<svg width="16" height="16" viewBox="0 0 16 16" fill="none" xmlns="http://www.w3.org/2000/svg">
<g clip-path="url(#clip0_165_217)">
<path d="M14.6664 8.00013C14.6664 11.6821 11.6817 14.6667 7.99975 14.6667C4.31773 14.6667 1.33307 11.6821 1.33307 8.00013C1.33307 4.3181 4.31773 1.33344 7.99975 1.33344C11.6817 1.33344 14.6664 4.3181 14.6664 8.00013Z" stroke="url(#paint0_linear_165_217)" stroke-width="2"/>
<path d="M7.87922 4.6357C7.34002 4.6357 6.90243 5.07328 6.90243 5.61245C6.90243 5.78515 6.83384 5.95078 6.7117 6.07289C6.5896 6.19502 6.42397 6.26361 6.25127 6.26361C6.07857 6.26361 5.91294 6.19502 5.79082 6.07289C5.6687 5.95078 5.6001 5.78515 5.6001 5.61245C5.6001 5.23906 5.69186 4.87139 5.86729 4.54177C6.04271 4.21215 6.29643 3.93069 6.60614 3.72212C6.9159 3.51355 7.2721 3.38428 7.64352 3.34566C8.01486 3.30704 8.39006 3.36025 8.73603 3.50063C9.08206 3.64102 9.38824 3.86425 9.62773 4.15072C9.86723 4.43719 10.0327 4.77811 10.1095 5.14351C10.1864 5.50891 10.1722 5.88759 10.0685 6.24626C9.96453 6.60492 9.77421 6.93256 9.51413 7.20043C9.43413 7.28289 9.35777 7.35933 9.28482 7.4322C9.10853 7.6002 8.94293 7.77911 8.78912 7.96798C8.59813 8.21278 8.53035 8.39249 8.53035 8.54267V9.19387C8.53035 9.3666 8.46177 9.5322 8.33966 9.65431C8.21748 9.77642 8.05188 9.845 7.87922 9.845C7.7065 9.845 7.5409 9.77642 7.41879 9.65431C7.29661 9.5322 7.22803 9.3666 7.22803 9.19387V8.54267C7.22803 7.97402 7.49283 7.513 7.76112 7.1683C7.95995 6.91303 8.20912 6.66473 8.41232 6.46158C8.47312 6.40079 8.53035 6.34436 8.57981 6.29313C8.71363 6.15543 8.80388 5.98135 8.83937 5.79264C8.87479 5.60394 8.85377 5.40898 8.77901 5.23213C8.70424 5.05528 8.57901 4.90438 8.41893 4.7983C8.25893 4.69222 8.07122 4.63566 7.87922 4.6357ZM7.87922 12.6667C8.10948 12.6667 8.33028 12.5753 8.49312 12.4125C8.65595 12.2497 8.74744 12.0289 8.74744 11.7986C8.74744 11.5683 8.65595 11.3474 8.49312 11.1846C8.33028 11.0218 8.10948 10.9303 7.87922 10.9303C7.64897 10.9303 7.4281 11.0218 7.2653 11.1846C7.10243 11.3474 7.01097 11.5683 7.01097 11.7986C7.01097 12.0289 7.10243 12.2497 7.2653 12.4125C7.4281 12.5753 7.64897 12.6667 7.87922 12.6667Z" fill="url(#paint1_linear_165_217)"/>
</g>
<defs>
<linearGradient id="paint0_linear_165_217" x1="1.14035" y1="1.46463" x2="14.8858" y2="15.6307" gradientUnits="userSpaceOnUse">
<stop stop-color="#F9D423"/>
<stop offset="0.515624" stop-color="#FF4E50"/>
<stop offset="0.991304" stop-color="#8A2387"/>
</linearGradient>
<linearGradient id="paint1_linear_165_217" x1="5.53421" y1="3.42527" x2="13.2657" y2="7.31671" gradientUnits="userSpaceOnUse">
<stop stop-color="#F9D423"/>
<stop offset="0.515624" stop-color="#FF4E50"/>
<stop offset="0.991304" stop-color="#8A2387"/>
</linearGradient>
<clipPath id="clip0_165_217">
<rect width="16" height="16" fill="white"/>
</clipPath>
</defs>
</svg>
