<svg width="22" height="22" viewBox="0 0 22 22" fill="none" xmlns="http://www.w3.org/2000/svg">
<path d="M2.6875 1C2.3078 1 2 1.3078 2 1.6875V12.2154C2 12.7645 2.61197 13.092 3.06886 12.7874L5.36863 11.2542C5.59956 11.1003 5.90044 11.1003 6.13137 11.2542L8.43113 12.7874C8.88801 13.092 9.49999 12.7645 9.49999 12.2154V1.6875C9.49999 1.3078 9.19219 1 8.81249 1H2.6875ZM11.375 1C11.0298 1 10.75 1.27982 10.75 1.625C10.75 1.97018 11.0298 2.25 11.375 2.25H12.5625C12.9422 2.25 13.25 2.5578 13.25 2.9375V6.56251C13.25 6.94218 13.5578 7.25001 13.9375 7.25001H17.5625C17.9422 7.25001 18.25 7.5578 18.25 7.93751V19.0625C18.25 19.4422 17.9422 19.75 17.5625 19.75H3.93749C3.55782 19.75 3.25 19.4422 3.25 19.0625V15.375C3.25 15.0298 2.97018 14.75 2.625 14.75C2.27982 14.75 2 15.0298 2 15.375V20.3125C2 20.6922 2.3078 21 2.6875 21H18.8125C19.1922 21 19.5 20.6922 19.5 20.3125V6.28476C19.5 6.10243 19.4276 5.92757 19.2986 5.79863L14.7014 1.20136C14.5724 1.07243 14.3976 1 14.2152 1H11.375ZM5.75002 4.74998H7.60128C7.87711 4.74998 8.03974 5.05798 7.87927 5.28235C6.79196 6.80272 5.51833 8.22309 3.97895 9.28611C3.72306 9.46279 3.40336 9.21842 3.48962 8.91967C3.87985 7.5678 4.30778 6.19978 5.16884 5.07806C5.32129 4.91594 5.51482 4.7526 5.75002 4.74998Z" fill="url(#paint0_linear_451_3450)" stroke="url(#paint1_linear_451_3450)" stroke-width="0.6"/>
<defs>
<linearGradient id="paint0_linear_451_3450" x1="10.75" y1="1" x2="10.75" y2="21" gradientUnits="userSpaceOnUse">
<stop stop-color="#F75050"/>
<stop offset="1" stop-color="#A00909"/>
</linearGradient>
<linearGradient id="paint1_linear_451_3450" x1="10.75" y1="1" x2="10.75" y2="21" gradientUnits="userSpaceOnUse">
<stop stop-color="#F75050"/>
<stop offset="1" stop-color="#A00909"/>
</linearGradient>
</defs>
</svg>
