<svg width="22" height="22" viewBox="0 0 22 22" fill="none" xmlns="http://www.w3.org/2000/svg">
<path d="M5.84375 9.06641V12.9336C5.84375 13.2895 5.55517 13.5781 5.19922 13.5781H1.33203C0.976078 13.5781 0.6875 13.2895 0.6875 12.9336V9.06641C0.6875 8.71045 0.976078 8.42188 1.33203 8.42188H5.19922C5.55517 8.42188 5.84375 8.71045 5.84375 9.06641Z" fill="url(#paint0_linear_451_3446)"/>
<path d="M13.5781 9.06641V12.9336C13.5781 13.2895 13.2895 13.5781 12.9336 13.5781H9.06641C8.71045 13.5781 8.42188 13.2895 8.42188 12.9336V9.06641C8.42188 8.71045 8.71045 8.42188 9.06641 8.42188H12.9336C13.2895 8.42188 13.5781 8.71045 13.5781 9.06641Z" fill="url(#paint1_linear_451_3446)"/>
<path d="M21.3125 9.06641V12.9336C21.3125 13.2895 21.0239 13.5781 20.668 13.5781H16.8008C16.4448 13.5781 16.1562 13.2895 16.1562 12.9336V9.06641C16.1562 8.71045 16.4448 8.42188 16.8008 8.42188H20.668C21.0239 8.42188 21.3125 8.71045 21.3125 9.06641Z" fill="url(#paint2_linear_451_3446)"/>
<defs>
<linearGradient id="paint0_linear_451_3446" x1="3.26562" y1="13.5781" x2="3.26562" y2="8.42188" gradientUnits="userSpaceOnUse">
<stop stop-color="#FD5900"/>
<stop offset="1" stop-color="#FFDE00"/>
</linearGradient>
<linearGradient id="paint1_linear_451_3446" x1="11" y1="13.5781" x2="11" y2="8.42188" gradientUnits="userSpaceOnUse">
<stop stop-color="#FD3A84"/>
<stop offset="1" stop-color="#FFA68D"/>
</linearGradient>
<linearGradient id="paint2_linear_451_3446" x1="18.7344" y1="13.5781" x2="18.7344" y2="8.42188" gradientUnits="userSpaceOnUse">
<stop stop-color="#A93AFF"/>
<stop offset="1" stop-color="#FF81FF"/>
</linearGradient>
</defs>
</svg>
