<svg width="22" height="22" viewBox="0 0 22 22" fill="none" xmlns="http://www.w3.org/2000/svg">
<g clip-path="url(#clip0_451_3440)">
<path fill-rule="evenodd" clip-rule="evenodd" d="M10.998 3.15724C8.91797 3.15724 6.9232 3.98352 5.45244 5.45429C3.98166 6.92506 3.15538 8.91989 3.15538 10.9998C3.15538 13.0798 3.98166 15.0746 5.45244 16.5455C6.9232 18.0162 8.91797 18.8425 10.998 18.8425C11.2952 18.8425 11.5801 18.9604 11.7902 19.1705C12.0003 19.3807 12.1185 19.6656 12.1185 19.9628C12.1185 20.2599 12.0003 20.545 11.7902 20.7551C11.5801 20.9652 11.2952 21.0832 10.998 21.0832C8.8536 21.0826 6.76516 20.3986 5.03609 19.1302C3.30703 17.8616 2.02737 16.0751 1.38299 14.0297C0.738614 11.9844 0.763085 9.787 1.45286 7.75652C2.14261 5.72605 3.46174 3.96836 5.21862 2.73877C6.97551 1.50917 9.07862 0.871697 11.2225 0.918954C13.3664 0.966199 15.4395 1.69572 17.1404 3.00155C18.8415 4.30736 20.0819 6.12147 20.6815 8.18034C21.281 10.2392 21.2087 12.4357 20.4749 14.4505C20.2826 14.962 19.9706 15.4199 19.5652 15.786L19.4457 15.8966C19.0333 16.2771 18.5369 16.555 17.997 16.7076C17.4571 16.8601 16.8886 16.8832 16.3383 16.7747C15.7877 16.6662 15.2705 16.4295 14.8288 16.0835C14.387 15.7376 14.0331 15.2921 13.796 14.7837C12.9448 15.4131 11.9062 15.7374 10.8482 15.7035C9.78996 15.6698 8.77415 15.2803 7.96483 14.5979C7.15547 13.9155 6.59986 12.9801 6.3878 11.943C6.17574 10.9057 6.31963 9.82733 6.7962 8.88199C7.27277 7.93674 8.05419 7.17976 9.01412 6.73343C9.97412 6.28712 11.0564 6.17754 12.0864 6.42242C13.1164 6.6673 14.0337 7.2523 14.69 8.08291C15.3463 8.9135 15.7035 9.94127 15.7036 10.9998V13.2765C15.7029 13.5341 15.7776 13.7864 15.9184 14.0023C16.0591 14.2181 16.2599 14.3881 16.4959 14.4916C16.732 14.5951 16.993 14.6273 17.2471 14.5845C17.5012 14.5416 17.7373 14.4254 17.9265 14.2504L18.0459 14.1384C18.1879 14.0147 18.2985 13.859 18.3686 13.6842C18.8002 12.4994 18.9398 11.2277 18.7753 9.97739C18.6109 8.72705 18.1474 7.5348 17.4241 6.50174C16.7008 5.46867 15.739 4.62527 14.6203 4.04305C13.5017 3.46083 12.2591 3.15697 10.998 3.15724ZM10.998 8.53501C11.3217 8.53501 11.6422 8.59884 11.9412 8.7227C12.2402 8.84655 12.512 9.02812 12.741 9.25698C12.9698 9.48587 13.1514 9.75748 13.2752 10.0566C13.3991 10.3556 13.4629 10.6763 13.4629 10.9998C13.4629 11.3236 13.3991 11.6441 13.2752 11.9431C13.1514 12.2422 12.9698 12.5139 12.741 12.7427C12.512 12.9716 12.2402 13.1531 11.9412 13.2771C11.6422 13.401 11.3217 13.4647 10.998 13.4647C10.3443 13.4647 9.71727 13.205 9.25517 12.7427C8.7929 12.2804 8.53324 11.6536 8.53324 10.9998C8.53324 10.3461 8.7929 9.71926 9.25517 9.25698C9.71727 8.79467 10.3443 8.53501 10.998 8.53501Z" fill="url(#paint0_linear_451_3440)"/>
</g>
<defs>
<linearGradient id="paint0_linear_451_3440" x1="11.0003" y1="21.0832" x2="11.0003" y2="0.916498" gradientUnits="userSpaceOnUse">
<stop stop-color="#00B59C"/>
<stop offset="1" stop-color="#9CFFAC"/>
</linearGradient>
<clipPath id="clip0_451_3440">
<rect width="22" height="22" fill="white"/>
</clipPath>
</defs>
</svg>
