<svg width="16" height="16" viewBox="0 0 16 16" fill="none" xmlns="http://www.w3.org/2000/svg">
<path fill-rule="evenodd" clip-rule="evenodd" d="M3.84918 1.375C2.20659 1.375 0.875 2.70658 0.875 4.34918C0.875 5.99286 2.20685 7.32335 3.84918 7.32335C5.49153 7.32335 6.82336 5.99286 6.82336 4.34918C6.82336 2.70658 5.49178 1.375 3.84918 1.375ZM2.875 4.34918C2.875 3.81115 3.31115 3.375 3.84918 3.375C4.3872 3.375 4.82336 3.81115 4.82336 4.34918C4.82336 4.88776 4.38748 5.32336 3.84918 5.32336C3.31088 5.32336 2.875 4.88776 2.875 4.34918ZM8.41528 4.34915C8.41528 3.79685 8.86298 3.34915 9.41528 3.34915H14.3749C14.9272 3.34915 15.3749 3.79685 15.3749 4.34915C15.3749 4.90143 14.9272 5.34915 14.3749 5.34915H9.41528C8.86298 5.34915 8.41528 4.90143 8.41528 4.34915ZM11.4264 11.636C11.4264 11.0975 11.8623 10.6618 12.4006 10.6618C12.9389 10.6618 13.3748 11.0975 13.3748 11.636C13.3748 12.174 12.9386 12.6102 12.4006 12.6102C11.8625 12.6102 11.4264 12.174 11.4264 11.636ZM12.4006 8.66182C10.7583 8.66182 9.4264 9.99229 9.4264 11.636C9.4264 13.2785 10.758 14.6102 12.4006 14.6102C14.0432 14.6102 15.3748 13.2785 15.3748 11.636C15.3748 9.99229 14.0429 8.66182 12.4006 8.66182ZM1.87537 10.636C1.32309 10.636 0.875371 11.0837 0.875371 11.636C0.875371 12.1883 1.32309 12.636 1.87537 12.636H6.8342C7.38648 12.636 7.83419 12.1883 7.83419 11.636C7.83419 11.0837 7.38648 10.636 6.8342 10.636H1.87537Z" fill="url(#paint0_linear_169_287)" stroke="url(#paint1_linear_169_287)"/>
<defs>
<linearGradient id="paint0_linear_169_287" x1="1.78124" y1="14.6173" x2="16.7041" y2="3.10503" gradientUnits="userSpaceOnUse">
<stop stop-color="#2E4AFA"/>
<stop offset="1" stop-color="#8E9EFF"/>
</linearGradient>
<linearGradient id="paint1_linear_169_287" x1="1.78124" y1="14.6173" x2="16.7041" y2="3.10503" gradientUnits="userSpaceOnUse">
<stop stop-color="#2E4AFA"/>
<stop offset="1" stop-color="#8E9EFF"/>
</linearGradient>
</defs>
</svg>
