<svg width="22" height="22" viewBox="0 0 22 22" fill="none" xmlns="http://www.w3.org/2000/svg">
<path opacity="0.4" d="M4.87498 3.04346C2.936 3.04346 1.375 4.60445 1.375 6.54342V17.2074C1.375 19.1464 2.936 20.7074 4.87498 20.7074H15.3748C17.3139 20.7074 18.8749 19.1464 18.8749 17.2074V11.858C18.8749 11.6489 18.7562 11.4579 18.5626 11.3788C18.1457 11.2083 17.5483 10.9966 17.0017 10.7665C16.5349 10.5698 15.7499 10.9935 15.7499 11.5V15.8324C15.7499 16.8019 14.9693 17.5825 13.9998 17.5825H6.24998C5.28048 17.5825 4.49999 16.8019 4.49999 15.8324V7.91842C4.49999 6.94894 5.28048 6.16845 6.24998 6.16845H10.4537C10.9606 6.16845 11.3842 5.38239 11.1868 4.9156C10.9555 4.36868 10.7425 3.77087 10.5708 3.3541C10.4913 3.16135 10.3008 3.04346 10.0924 3.04346H4.87498Z" fill="url(#paint0_linear_451_3434)"/>
<path d="M12.0767 2.53039C11.6202 2.07369 11.9437 1.29309 12.5894 1.29309H19.6953C20.2112 1.28479 20.6332 1.70339 20.625 2.21935V9.29792C20.625 9.94362 19.8444 10.2671 19.3876 9.8106L17.9537 8.38072C17.4165 7.84505 16.547 7.84567 16.0106 8.3821L12.3501 12.0425C12.0973 12.3041 11.6696 12.3736 11.3404 12.2231C11.2607 12.1867 11.1944 12.1275 11.1325 12.0654L9.87551 10.8052C9.55191 10.4562 9.55191 9.91694 9.87551 9.56793L13.5257 5.9178C14.0635 5.38002 14.0625 4.50782 13.5236 3.97118L12.0767 2.53039Z" fill="url(#paint1_linear_451_3434)"/>
<defs>
<linearGradient id="paint0_linear_451_3434" x1="10.1249" y1="20.7074" x2="10.1249" y2="3.04346" gradientUnits="userSpaceOnUse">
<stop stop-color="#A93AFF"/>
<stop offset="1" stop-color="#FF81FF"/>
</linearGradient>
<linearGradient id="paint1_linear_451_3434" x1="15.1289" y1="12.3015" x2="15.1289" y2="1.29297" gradientUnits="userSpaceOnUse">
<stop stop-color="#A93AFF"/>
<stop offset="1" stop-color="#FF81FF"/>
</linearGradient>
</defs>
</svg>
