<svg width="24" height="24" viewBox="0 0 24 24" fill="none" xmlns="http://www.w3.org/2000/svg">
<path fill-rule="evenodd" clip-rule="evenodd" d="M16.636 4.12368L19.8987 7.38974C22.1135 9.60674 23.2209 10.7152 22.9633 11.9107C22.7046 13.1051 21.2384 13.6555 18.307 14.7574L16.276 15.5202C15.4911 15.8152 15.0982 15.9627 14.7954 16.2247C14.6633 16.3403 14.5434 16.4702 14.441 16.6122C14.2076 16.9391 14.0964 17.3431 13.8741 18.1533C13.3677 19.9938 13.1145 20.9141 12.5102 21.2586C12.257 21.404 11.9686 21.4788 11.6758 21.4788C10.9823 21.4788 10.3075 20.8029 8.95792 19.4533L7.34415 17.8374L6.1564 16.6485L4.59987 15.0898C3.25911 13.7479 2.58872 13.0764 2.58542 12.3873C2.5831 12.0889 2.66022 11.7952 2.80888 11.5364C3.15343 10.9387 4.06709 10.6866 5.89441 10.1825C6.70569 9.95899 7.11079 9.84781 7.43772 9.61334C7.58303 9.50767 7.71622 9.38548 7.83401 9.24788C8.0938 8.94186 8.2391 8.54667 8.52751 7.7563L9.26394 5.74956C10.3504 2.78512 10.8931 1.30235 12.0908 1.03816C13.2895 0.773965 14.4047 1.89017 16.636 4.12368Z" fill="url(#paint0_linear_54_532)"/>
<path opacity="0.4" d="M2.417 22.7689L7.34415 17.8374L6.1564 16.6485L1.22924 21.5801C1.0791 21.7392 0.9969 21.9507 1.00009 22.1694C1.00328 22.3882 1.09161 22.5971 1.24633 22.7519C1.40104 22.9066 1.60997 22.9949 1.82875 22.9981C2.04753 23.0013 2.25784 22.9191 2.417 22.7689Z" fill="url(#paint1_linear_54_532)"/>
<defs>
<linearGradient id="paint0_linear_54_532" x1="22.9395" y1="1.12983" x2="2.62334" y2="21.2137" gradientUnits="userSpaceOnUse">
<stop stop-color="#FE7970"/>
<stop offset="1" stop-color="#DC3282"/>
</linearGradient>
<linearGradient id="paint1_linear_54_532" x1="7.32536" y1="16.6888" x2="1.02598" y2="22.9303" gradientUnits="userSpaceOnUse">
<stop stop-color="#FE7970"/>
<stop offset="1" stop-color="#DC3282"/>
</linearGradient>
</defs>
</svg>
