<svg width="24" height="24" viewBox="0 0 24 24" fill="none" xmlns="http://www.w3.org/2000/svg">
<path d="M23.0031 13.375C23.0031 13.676 22.9438 13.974 22.8287 14.252C22.7135 14.5301 22.5447 14.7827 22.3319 14.9955C22.1191 15.2083 21.8665 15.3771 21.5884 15.4923C21.3104 15.6074 21.0124 15.6667 20.7115 15.6667H17.0118L13.138 21.6131C12.8996 22.036 12.5525 22.3876 12.1327 22.6314C11.7129 22.8752 11.2355 23.0025 10.7501 23C10.3605 23.0001 9.97678 22.9058 9.63168 22.7251C9.28658 22.5445 8.99042 22.2829 8.76856 21.9627C8.5467 21.6425 8.40576 21.2733 8.35781 20.8868C8.30985 20.5002 8.35632 20.1078 8.49323 19.7431L10.1872 15.6667H6.50315C5.85678 15.6667 5.22189 15.4959 4.66281 15.1716C4.10373 14.8472 3.64033 14.3808 3.31957 13.8196L1.18649 10.3134C1.09534 10.162 1.03544 9.99394 1.01033 9.81906C0.985205 9.64418 0.995375 9.46604 1.04023 9.29515C1.08509 9.12426 1.16373 8.96409 1.2715 8.8241C1.37928 8.6841 1.51401 8.56711 1.66774 8.48004C1.91169 8.35213 2.19009 8.30539 2.46244 8.3466C2.73479 8.38782 2.98689 8.51484 3.18207 8.70921L4.48098 10.009C5.16845 10.6967 6.10093 11.0832 7.07331 11.0834H20.7115C21.0124 11.0834 21.3104 11.1426 21.5884 11.2578C21.8665 11.373 22.1191 11.5418 22.3319 11.7546C22.5447 11.9674 22.7135 12.22 22.8287 12.4981C22.9438 12.7761 23.0031 13.0741 23.0031 13.375Z" fill="url(#paint0_linear_304_199)"/>
<path opacity="0.4" d="M13.1315 2.38694L17.2565 9.25001H10.431L8.48953 4.25694C8.35285 3.89226 8.30655 3.49989 8.3546 3.11342C8.40265 2.72694 8.54361 2.35786 8.76543 2.03775C8.98724 1.71764 9.28331 1.45603 9.62829 1.27531C9.97327 1.09459 10.3569 1.00013 10.7464 1.00003C11.2314 0.997943 11.7082 1.12539 12.1275 1.36921C12.5468 1.61303 12.8934 1.96437 13.1315 2.38694Z" fill="url(#paint1_linear_304_199)"/>
<defs>
<linearGradient id="paint0_linear_304_199" x1="22.3824" y1="15.666" x2="6.34199" y2="6.96077" gradientUnits="userSpaceOnUse">
<stop stop-color="#FE7970"/>
<stop offset="1" stop-color="#DC3282"/>
</linearGradient>
<linearGradient id="paint1_linear_304_199" x1="17.0049" y1="5.12501" x2="9.70459" y2="2.26965" gradientUnits="userSpaceOnUse">
<stop stop-color="#FE7970"/>
<stop offset="1" stop-color="#DC3282"/>
</linearGradient>
</defs>
</svg>
