<svg width="16" height="16" viewBox="0 0 16 16" fill="none" xmlns="http://www.w3.org/2000/svg">
<path fill-rule="evenodd" clip-rule="evenodd" d="M9.66669 9.33331H6.33335C5.71002 9.33331 5.39869 9.33331 5.16669 9.46731C5.01468 9.55508 4.88845 9.68131 4.80069 9.83331C4.66669 10.0653 4.66669 10.3766 4.66669 11C4.66669 11.6233 4.66669 11.9346 4.80069 12.1666C4.88845 12.3187 5.01468 12.4449 5.16669 12.5326C5.39869 12.6666 5.71002 12.6666 6.33335 12.6666H9.66669C10.29 12.6666 10.6014 12.6666 10.8334 12.5326C10.9854 12.4449 11.1116 12.3187 11.1994 12.1666C11.3334 11.9346 11.3334 11.6233 11.3334 11C11.3334 10.3766 11.3334 10.0653 11.1994 9.83331C11.1116 9.68131 10.9854 9.55508 10.8334 9.46731C10.6014 9.33331 10.29 9.33331 9.66669 9.33331Z" fill="url(#paint0_linear_162_4)"/>
<path d="M12.6666 4.99998C12.6666 4.37665 12.6666 4.06531 12.5326 3.83331C12.4449 3.68131 12.3187 3.55508 12.1666 3.46731C11.9346 3.33331 11.6233 3.33331 11 3.33331H4.99998C4.37665 3.33331 4.06531 3.33331 3.83331 3.46731C3.68131 3.55508 3.55508 3.68131 3.46731 3.83331C3.33331 4.06531 3.33331 4.37665 3.33331 4.99998C3.33331 5.62331 3.33331 5.93465 3.46731 6.16665C3.55508 6.31865 3.68131 6.44488 3.83331 6.53265C4.06531 6.66665 4.37665 6.66665 4.99998 6.66665H11C11.6233 6.66665 11.9346 6.66665 12.1666 6.53265C12.3187 6.44488 12.4449 6.31865 12.5326 6.16665C12.6666 5.93465 12.6666 5.62331 12.6666 4.99998Z" fill="url(#paint1_linear_162_4)"/>
<path d="M8.5 3.33331V1.33331C8.5 1.2007 8.44732 1.07353 8.35355 0.97976C8.25978 0.885991 8.13261 0.833313 8 0.833313C7.86739 0.833313 7.74022 0.885991 7.64645 0.97976C7.55268 1.07353 7.5 1.2007 7.5 1.33331V3.33331H8.5ZM7.5 6.66665V9.33331H8.5V6.66665H7.5ZM7.5 12.6666V14.6666C7.5 14.7993 7.55268 14.9264 7.64645 15.0202C7.74022 15.114 7.86739 15.1666 8 15.1666C8.13261 15.1666 8.25978 15.114 8.35355 15.0202C8.44732 14.9264 8.5 14.7993 8.5 14.6666V12.6666H7.5Z" fill="#344CD8"/>
<defs>
<linearGradient id="paint0_linear_162_4" x1="5.08335" y1="12.6684" x2="8.7518" y2="7.50205" gradientUnits="userSpaceOnUse">
<stop stop-color="#2E4AFA"/>
<stop offset="1" stop-color="#8E9EFF"/>
</linearGradient>
<linearGradient id="paint1_linear_162_4" x1="3.91665" y1="6.66844" x2="7.05165" y2="0.487264" gradientUnits="userSpaceOnUse">
<stop stop-color="#2E4AFA"/>
<stop offset="1" stop-color="#8E9EFF"/>
</linearGradient>
</defs>
</svg>
