<svg width="16" height="16" viewBox="0 0 16 16" fill="none" xmlns="http://www.w3.org/2000/svg">
<path d="M4.91663 5.24998C4.91663 4.62665 4.91663 4.31531 5.05063 4.08331C5.13839 3.93131 5.26462 3.80508 5.41663 3.71731C5.64863 3.58331 5.95996 3.58331 6.58329 3.58331H12.5833C13.2066 3.58331 13.518 3.58331 13.75 3.71731C13.902 3.80508 14.0282 3.93131 14.116 4.08331C14.25 4.31531 14.25 4.62665 14.25 5.24998C14.25 5.87331 14.25 6.18465 14.116 6.41665C14.0282 6.56865 13.902 6.69488 13.75 6.78265C13.518 6.91665 13.2066 6.91665 12.5833 6.91665H6.58329C5.95996 6.91665 5.64863 6.91665 5.41663 6.78265C5.26462 6.69488 5.13839 6.56865 5.05063 6.41665C4.91663 6.18465 4.91663 5.87331 4.91663 5.24998ZM4.91663 11.25C4.91663 10.6266 4.91663 10.3153 5.05063 10.0833C5.13839 9.93131 5.26462 9.80508 5.41663 9.71731C5.64863 9.58331 5.95996 9.58331 6.58329 9.58331H10.5833C11.2066 9.58331 11.518 9.58331 11.75 9.71731C11.902 9.80508 12.0282 9.93131 12.116 10.0833C12.25 10.3153 12.25 10.6266 12.25 11.25C12.25 11.8733 12.25 12.1846 12.116 12.4166C12.0282 12.5687 11.902 12.6949 11.75 12.7826C11.518 12.9166 11.2066 12.9166 10.5833 12.9166H6.58329C5.95996 12.9166 5.64863 12.9166 5.41663 12.7826C5.26462 12.6949 5.13839 12.5687 5.05063 12.4166C4.91663 12.1846 4.91663 11.8733 4.91663 11.25Z" fill="url(#paint0_linear_162_18)"/>
<path fill-rule="evenodd" clip-rule="evenodd" d="M2.49994 15.25C2.69885 15.25 2.88962 15.171 3.03027 15.0303C3.17092 14.8897 3.24994 14.6989 3.24994 14.5L3.24994 2C3.24994 1.80109 3.17092 1.61032 3.03027 1.46967C2.88962 1.32902 2.69885 1.25 2.49994 1.25C2.30103 1.25 2.11026 1.32902 1.96961 1.46967C1.82896 1.61032 1.74994 1.80109 1.74994 2L1.74994 14.5C1.74994 14.6989 1.82896 14.8897 1.96961 15.0303C2.11026 15.171 2.30103 15.25 2.49994 15.25Z" fill="#344CD8"/>
<defs>
<linearGradient id="paint0_linear_162_18" x1="5.49996" y1="12.9217" x2="15.7431" y2="5.70879" gradientUnits="userSpaceOnUse">
<stop stop-color="#2E4AFA"/>
<stop offset="1" stop-color="#8E9EFF"/>
</linearGradient>
</defs>
</svg>
