<svg width="16" height="16" viewBox="0 0 16 16" fill="none" xmlns="http://www.w3.org/2000/svg">
<path d="M11.0833 11.25C11.0833 11.8734 11.0833 12.1847 10.9493 12.4167C10.8615 12.5687 10.7353 12.6949 10.5833 12.7827C10.3513 12.9167 10.0399 12.9167 9.4166 12.9167H3.41661C2.79327 12.9167 2.48194 12.9167 2.24994 12.7827C2.09793 12.6949 1.9717 12.5687 1.88394 12.4167C1.74994 12.1847 1.74994 11.8734 1.74994 11.25C1.74994 10.6267 1.74994 10.3154 1.88394 10.0834C1.9717 9.93137 2.09793 9.80514 2.24994 9.71737C2.48194 9.58337 2.79327 9.58337 3.41661 9.58337H9.4166C10.0399 9.58337 10.3513 9.58337 10.5833 9.71737C10.7353 9.80514 10.8615 9.93137 10.9493 10.0834C11.0833 10.3154 11.0833 10.6267 11.0833 11.25ZM11.0833 5.25004C11.0833 5.87337 11.0833 6.18471 10.9493 6.41671C10.8615 6.56871 10.7353 6.69494 10.5833 6.78271C10.3513 6.91671 10.0399 6.91671 9.4166 6.91671H5.41661C4.79327 6.91671 4.48194 6.91671 4.24994 6.78271C4.09793 6.69494 3.9717 6.56871 3.88394 6.41671C3.74994 6.18471 3.74994 5.87337 3.74994 5.25004C3.74994 4.62671 3.74994 4.31537 3.88394 4.08337C3.9717 3.93137 4.09793 3.80514 4.24994 3.71737C4.48194 3.58337 4.79327 3.58337 5.41661 3.58337H9.4166C10.0399 3.58337 10.3513 3.58337 10.5833 3.71737C10.7353 3.80514 10.8615 3.93137 10.9493 4.08337C11.0833 4.31537 11.0833 4.62671 11.0833 5.25004Z" fill="url(#paint0_linear_162_18)"/>
<path fill-rule="evenodd" clip-rule="evenodd" d="M13.4999 1.25C13.301 1.25 13.1103 1.32902 12.9696 1.46967C12.829 1.61032 12.7499 1.80109 12.7499 2V14.5C12.7499 14.6989 12.829 14.8897 12.9696 15.0303C13.1103 15.171 13.301 15.25 13.4999 15.25C13.6989 15.25 13.8896 15.171 14.0303 15.0303C14.1709 14.8897 14.2499 14.6989 14.2499 14.5V2C14.2499 1.80109 14.1709 1.61032 14.0303 1.46967C13.8896 1.32902 13.6989 1.25 13.4999 1.25Z" fill="#344CD8"/>
<defs>
<linearGradient id="paint0_linear_162_18" x1="2.33327" y1="12.9217" x2="12.5764" y2="5.70885" gradientUnits="userSpaceOnUse">
<stop stop-color="#2E4AFA"/>
<stop offset="1" stop-color="#8E9EFF"/>
</linearGradient>
</defs>
</svg>
