<svg width="16" height="16" viewBox="0 0 16 16" fill="none" xmlns="http://www.w3.org/2000/svg">
<path d="M4.99998 11.3333C4.37665 11.3333 4.06531 11.3333 3.83331 11.1993C3.68131 11.1116 3.55508 10.9853 3.46731 10.8333C3.33331 10.6013 3.33331 10.29 3.33331 9.66667V3.66667C3.33331 3.04333 3.33331 2.732 3.46731 2.5C3.55508 2.34799 3.68131 2.22176 3.83331 2.134C4.06531 2 4.37665 2 4.99998 2C5.62331 2 5.93465 2 6.16665 2.134C6.31865 2.22176 6.44488 2.34799 6.53265 2.5C6.66665 2.732 6.66665 3.04333 6.66665 3.66667V9.66667C6.66665 10.29 6.66665 10.6013 6.53265 10.8333C6.44488 10.9853 6.31865 11.1116 6.16665 11.1993C5.93465 11.3333 5.62331 11.3333 4.99998 11.3333ZM11 11.3333C10.3766 11.3333 10.0653 11.3333 9.83331 11.1993C9.68131 11.1116 9.55508 10.9853 9.46731 10.8333C9.33331 10.6013 9.33331 10.29 9.33331 9.66667V5.66667C9.33331 5.04333 9.33331 4.732 9.46731 4.5C9.55508 4.34799 9.68131 4.22176 9.83331 4.134C10.0653 4 10.3766 4 11 4C11.6233 4 11.9346 4 12.1666 4.134C12.3187 4.22176 12.4449 4.34799 12.5326 4.5C12.6666 4.732 12.6666 5.04333 12.6666 5.66667V9.66667C12.6666 10.29 12.6666 10.6013 12.5326 10.8333C12.4449 10.9853 12.3187 11.1116 12.1666 11.1993C11.9346 11.3333 11.6233 11.3333 11 11.3333Z" fill="url(#paint0_linear_162_18)"/>
<path fill-rule="evenodd" clip-rule="evenodd" d="M15 13.75C15 13.5511 14.921 13.3603 14.7803 13.2197C14.6397 13.079 14.4489 13 14.25 13H1.75C1.55109 13 1.36032 13.079 1.21967 13.2197C1.07902 13.3603 1 13.5511 1 13.75C1 13.9489 1.07902 14.1397 1.21967 14.2803C1.36032 14.421 1.55109 14.5 1.75 14.5H14.25C14.4489 14.5 14.6397 14.421 14.7803 14.2803C14.921 14.1397 15 13.9489 15 13.75Z" fill="#344CD8"/>
<defs>
<linearGradient id="paint0_linear_162_18" x1="3.91665" y1="11.3384" x2="14.1598" y2="4.12547" gradientUnits="userSpaceOnUse">
<stop stop-color="#2E4AFA"/>
<stop offset="1" stop-color="#8E9EFF"/>
</linearGradient>
</defs>
</svg>
