<svg width="22" height="22" viewBox="0 0 22 22" fill="none" xmlns="http://www.w3.org/2000/svg">
<path fill-rule="evenodd" clip-rule="evenodd" d="M4.34869 4.61299L3.24001 17.9171C3.242 17.9327 3.24536 17.9539 3.25094 17.9781C3.26271 18.0293 3.27931 18.072 3.29678 18.1015C3.3117 18.1265 3.32111 18.1323 3.32522 18.1346C3.32806 18.1364 3.37026 18.162 3.49159 18.162H18.5085C18.6297 18.162 18.6718 18.1365 18.6747 18.1347C18.6788 18.1324 18.6883 18.1265 18.7032 18.1015C18.7206 18.072 18.7373 18.0293 18.7491 17.9781C18.7546 17.9539 18.758 17.9327 18.76 17.9171L17.6513 4.61299H4.34869ZM2.51587 4.17357C2.58291 3.36892 3.25556 2.75 4.06299 2.75H17.937C18.7444 2.75 19.4171 3.36892 19.4842 4.17357L20.62 17.8049C20.6233 17.8441 20.6271 17.9047 20.6236 17.9776C20.6167 18.1204 20.5795 18.5915 20.3041 19.0542C19.9891 19.5834 19.4024 20.0249 18.5085 20.0249H3.49159C2.59772 20.0249 2.01092 19.5834 1.69591 19.0542C1.42047 18.5915 1.3832 18.1204 1.37639 17.9776C1.37292 17.9047 1.37665 17.8441 1.37992 17.8049L2.51587 4.17357ZM7.24578 6.44779C6.87896 6.44779 6.52717 6.5935 6.26779 6.85289C6.00839 7.11228 5.86267 7.46408 5.86267 7.8309C5.86267 8.19772 6.00839 8.54954 6.26779 8.80894C6.43618 8.97733 6.64352 9.09783 6.86863 9.16164C6.97049 9.60125 7.11799 10.1143 7.32933 10.6314C7.61173 11.3224 8.00969 12.0348 8.60487 12.5981C9.20004 13.1615 10.0168 13.5611 10.9993 13.5611C11.9818 13.5611 12.7985 13.1615 13.3937 12.5981C13.9888 12.0348 14.3869 11.3224 14.6692 10.6314C14.8805 10.1145 15.0279 9.6016 15.1298 9.16207C15.3556 9.09838 15.5635 8.97772 15.7322 8.80894C15.9917 8.54954 16.1373 8.19772 16.1373 7.8309C16.1373 7.46408 15.9917 7.11228 15.7322 6.85289C15.4729 6.5935 15.121 6.44779 14.7542 6.44779C14.3873 6.44779 14.0356 6.5935 13.7761 6.85289C13.5168 7.11228 13.3711 7.46408 13.3711 7.8309C13.3711 8.19772 13.5168 8.54954 13.7761 8.80894C13.8328 8.86557 13.8938 8.91679 13.9584 8.96225C13.8695 9.33556 13.7448 9.76213 13.572 10.185C13.3309 10.7748 12.9978 11.3434 12.5781 11.7406C12.1584 12.1379 11.6761 12.3787 10.9993 12.3787C10.3225 12.3787 9.8402 12.1379 9.4205 11.7406C9.00079 11.3434 8.6677 10.7748 8.42662 10.185C8.25395 9.76246 8.12923 9.33622 8.04029 8.96312C8.10538 8.91744 8.16683 8.86593 8.22382 8.80894C8.48321 8.54954 8.62894 8.19772 8.62894 7.8309C8.62894 7.46408 8.48321 7.11228 8.22382 6.85289C7.96444 6.5935 7.61265 6.44779 7.24578 6.44779Z" fill="url(#paint0_linear_451_3432)"/>
<defs>
<linearGradient id="paint0_linear_451_3432" x1="11" y1="20.025" x2="11" y2="2.75" gradientUnits="userSpaceOnUse">
<stop stop-color="#FD5900"/>
<stop offset="1" stop-color="#FFDE00"/>
</linearGradient>
</defs>
</svg>
