<svg width="22" height="22" viewBox="0 0 22 22" fill="none" xmlns="http://www.w3.org/2000/svg">
<path d="M19.7656 6.1875C20.6199 6.1875 21.3125 5.49495 21.3125 4.64062C21.3125 3.7863 20.6199 3.09375 19.7656 3.09375H2.23438C1.38006 3.09375 0.6875 3.7863 0.6875 4.64062C0.6875 5.49495 1.38006 6.1875 2.23438 6.1875H19.7656ZM19.7656 12.375C20.6199 12.375 21.3125 11.6824 21.3125 10.8281C21.3125 9.9738 20.6199 9.28125 19.7656 9.28125H2.23438C1.38006 9.28125 0.6875 9.9738 0.6875 10.8281C0.6875 11.6824 1.38006 12.375 2.23438 12.375H19.7656ZM19.7656 18.5625C20.6199 18.5625 21.3125 17.8699 21.3125 17.0156C21.3125 16.1613 20.6199 15.4688 19.7656 15.4688H2.23438C1.38006 15.4688 0.6875 16.1613 0.6875 17.0156C0.6875 17.8699 1.38006 18.5625 2.23438 18.5625H19.7656Z" fill="url(#paint0_linear_451_3428)" stroke="url(#paint1_linear_451_3428)"/>
<defs>
<linearGradient id="paint0_linear_451_3428" x1="2.16071" y1="10.8281" x2="18.7427" y2="8.38489" gradientUnits="userSpaceOnUse">
<stop stop-color="#8D01A2"/>
<stop offset="1" stop-color="#FF00D2"/>
</linearGradient>
<linearGradient id="paint1_linear_451_3428" x1="2.16071" y1="10.8281" x2="18.7427" y2="8.38489" gradientUnits="userSpaceOnUse">
<stop stop-color="#8D01A2"/>
<stop offset="1" stop-color="#FF00D2"/>
</linearGradient>
</defs>
</svg>
