<svg width="22" height="22" viewBox="0 0 22 22" fill="none" xmlns="http://www.w3.org/2000/svg">
<path d="M2.0625 1.375C1.68281 1.375 1.375 1.68281 1.375 2.0625V19.9375C1.375 20.3171 1.68281 20.625 2.0625 20.625H19.9375C20.3171 20.625 20.625 20.3171 20.625 19.9375V2.0625C20.625 1.68281 20.3171 1.375 19.9375 1.375H2.0625ZM2.97917 6.875C2.97917 6.49531 3.28698 6.1875 3.66667 6.1875H18.3333C18.7129 6.1875 19.0208 6.49531 19.0208 6.875V18.3333C19.0208 18.7129 18.7129 19.0208 18.3333 19.0208H3.66667C3.28698 19.0208 2.97917 18.7129 2.97917 18.3333V6.875ZM8.47917 11C8.09948 11 7.79167 11.3078 7.79167 11.6875V13.5208C7.79167 13.9004 8.09948 14.2083 8.47917 14.2083H13.5208C13.9004 14.2083 14.2083 13.9004 14.2083 13.5208V11.6875C14.2083 11.3078 13.9004 11 13.5208 11H8.47917Z" fill="url(#paint0_linear_451_3430)" stroke="url(#paint1_linear_451_3430)" stroke-width="0.5"/>
<defs>
<linearGradient id="paint0_linear_451_3430" x1="1.37218" y1="10.7148" x2="20.6207" y2="10.7148" gradientUnits="userSpaceOnUse">
<stop stop-color="#FD3A84"/>
<stop offset="1" stop-color="#FFA68D"/>
</linearGradient>
<linearGradient id="paint1_linear_451_3430" x1="1.37218" y1="10.7148" x2="20.6207" y2="10.7148" gradientUnits="userSpaceOnUse">
<stop stop-color="#FD3A84"/>
<stop offset="1" stop-color="#FFA68D"/>
</linearGradient>
</defs>
</svg>
