<svg width="22" height="22" viewBox="0 0 22 22" fill="none" xmlns="http://www.w3.org/2000/svg">
<path d="M20.625 11C20.625 13.5527 19.6109 16.0009 17.8059 17.8059C16.0009 19.6109 13.5527 20.625 11 20.625C8.4473 20.625 5.99914 19.6109 4.19409 17.8059C2.38906 16.0009 1.375 13.5527 1.375 11C1.375 10.6809 1.50176 10.3749 1.7274 10.1493C1.95302 9.92363 2.25904 9.79688 2.57812 9.79688C2.89721 9.79688 3.20323 9.92363 3.42885 10.1493C3.65449 10.3749 3.78125 10.6809 3.78125 11C3.78125 12.4277 4.20463 13.8234 4.99783 15.0105C5.79104 16.1976 6.91845 17.1229 8.2375 17.6693C9.55656 18.2157 11.008 18.3587 12.4083 18.08C13.8086 17.8014 15.0949 17.114 16.1044 16.1044C17.114 15.0949 17.8014 13.8086 18.08 12.4083C18.3587 11.008 18.2157 9.55656 17.6693 8.2375C17.1229 6.91845 16.1976 5.79104 15.0105 4.99783C13.8234 4.20463 12.4277 3.78125 11 3.78125C10.6809 3.78125 10.3749 3.65449 10.1493 3.42885C9.92363 3.20323 9.79688 2.89721 9.79688 2.57812C9.79688 2.25904 9.92363 1.95302 10.1493 1.7274C10.3749 1.50176 10.6809 1.375 11 1.375C13.5519 1.37776 15.9984 2.39271 17.8028 4.19715C19.6073 6.00158 20.6222 8.44814 20.625 11ZM6.98959 11C6.98959 11.3191 7.11635 11.6251 7.34197 11.8507C7.5676 12.0764 7.87361 12.2031 8.19271 12.2031H9.94928C10.254 12.4713 10.6494 12.6134 11.0552 12.6005C11.4609 12.5876 11.8466 12.4206 12.1336 12.1336C12.4206 11.8466 12.5876 11.4609 12.6005 11.0552C12.6134 10.6494 12.4713 10.254 12.2031 9.94928V6.58854C12.2031 6.26945 12.0764 5.96343 11.8507 5.73781C11.6251 5.51217 11.3191 5.38541 11 5.38541C10.6809 5.38541 10.3749 5.51217 10.1493 5.73781C9.92363 5.96343 9.79688 6.26945 9.79688 6.58854V9.79688H8.19271C7.87361 9.79688 7.5676 9.92363 7.34197 10.1493C7.11635 10.3749 6.98959 10.6809 6.98959 11ZM6.78104 5.3004C7.019 5.3004 7.25161 5.22983 7.44946 5.09764C7.64732 4.96543 7.80153 4.77752 7.89259 4.5577C7.98365 4.33785 8.00747 4.09594 7.96104 3.86255C7.91462 3.62917 7.80003 3.4148 7.63178 3.24653C7.46352 3.07828 7.24914 2.96369 7.01577 2.91727C6.78238 2.87085 6.54046 2.89467 6.32062 2.98573C6.10079 3.07679 5.91288 3.23099 5.78067 3.42885C5.64848 3.6267 5.57791 3.85932 5.57791 4.09728C5.57791 4.41636 5.70467 4.72239 5.93031 4.94801C6.15593 5.17364 6.46195 5.3004 6.78104 5.3004ZM3.71147 8.39322C3.94943 8.39322 4.18203 8.32267 4.37989 8.19046C4.57774 8.05827 4.73194 7.87036 4.82302 7.65052C4.91408 7.43067 4.9379 7.18878 4.89148 6.95539C4.84505 6.722 4.73046 6.50763 4.5622 6.33937C4.39395 6.1711 4.17957 6.05651 3.94618 6.01009C3.71281 5.96367 3.4709 5.98751 3.25105 6.07857C3.0312 6.16962 2.84331 6.32383 2.7111 6.52168C2.5789 6.71954 2.50834 6.95215 2.50834 7.1901C2.50834 7.50918 2.6351 7.81521 2.86074 8.04085C3.08636 8.26647 3.39238 8.39322 3.71147 8.39322Z" fill="url(#paint0_linear_451_3426)" stroke="url(#paint1_linear_451_3426)" stroke-width="0.6"/>
<defs>
<linearGradient id="paint0_linear_451_3426" x1="2.5327" y1="15.2119" x2="20.2491" y2="10.8425" gradientUnits="userSpaceOnUse">
<stop stop-color="#F5F013"/>
<stop offset="1" stop-color="#F9A60D"/>
</linearGradient>
<linearGradient id="paint1_linear_451_3426" x1="2.5327" y1="15.2119" x2="20.2491" y2="10.8425" gradientUnits="userSpaceOnUse">
<stop stop-color="#F5F013"/>
<stop offset="1" stop-color="#F9A60D"/>
</linearGradient>
</defs>
</svg>
