<svg width="22" height="22" viewBox="0 0 22 22" fill="none" xmlns="http://www.w3.org/2000/svg">
<g clip-path="url(#clip0_451_3415)">
<path d="M10.862 4.54785C10.4257 4.54785 10.0721 4.90301 10.0721 5.34112C10.0721 5.77923 10.4257 6.1344 10.862 6.1344H11.1384C11.5747 6.1344 11.9283 5.77923 11.9283 5.34112C11.9283 4.90301 11.5747 4.54785 11.1384 4.54785H10.862ZM10.862 7.95892C10.4257 7.95892 10.0721 8.31405 10.0721 8.75219C10.0721 9.1903 10.4257 9.54546 10.862 9.54546H11.1384C11.5747 9.54546 11.9283 9.1903 11.9283 8.75219C11.9283 8.31405 11.5747 7.95892 11.1384 7.95892H10.862ZM11.0002 11.37C10.4876 11.37 10.0721 11.7873 10.0721 12.3021V12.3683C10.0721 12.8066 9.77679 13.1787 9.40265 13.4043C8.68861 13.8348 8.21582 14.5401 8.21582 15.3363C8.21582 16.6413 9.4734 17.7161 11.0002 17.7161C12.527 17.7161 13.7846 16.6413 13.7846 15.3363C13.7846 14.5398 13.3115 13.8343 12.5971 13.4035C12.2232 13.178 11.9283 12.8061 11.9283 12.3682V12.3021C11.9283 11.7873 11.5128 11.37 11.0002 11.37ZM11.0002 14.543C11.5236 14.543 11.9283 14.8889 11.9283 15.3363C11.9283 15.7837 11.5236 16.1296 11.0002 16.1296C10.4767 16.1296 10.0721 15.7837 10.0721 15.3363C10.0721 14.8889 10.4767 14.543 11.0002 14.543Z" fill="url(#paint0_linear_451_3415)" stroke="url(#paint1_linear_451_3415)" stroke-width="0.6"/>
<path d="M1.71875 2.67068C1.71875 1.5754 2.60288 0.6875 3.69349 0.6875H18.3065C19.3971 0.6875 20.2812 1.5754 20.2812 2.67068V13.0601C20.2812 13.2499 20.1275 13.4037 19.9376 13.4038L18.7689 13.4044C18.579 13.4044 18.425 13.2505 18.425 13.0606V4.25721C18.425 3.16195 17.5408 2.27404 16.4503 2.27404H12.3231C12.1049 2.27404 11.9281 2.45161 11.9281 2.67068C11.9281 2.88973 11.7513 3.0673 11.5332 3.0673H10.4668C10.2487 3.0673 10.0719 2.88973 10.0719 2.67068C10.0719 2.45161 9.89505 2.27404 9.67694 2.27404H5.54974C4.45912 2.27404 3.575 3.16195 3.575 4.25721V17.7428C3.575 18.838 4.45912 19.726 5.54974 19.726H12.7188C12.9086 19.726 13.0625 19.8799 13.0625 20.0697V20.9688C13.0625 21.1586 12.9086 21.3125 12.7188 21.3125H3.69349C2.60288 21.3125 1.71875 20.4246 1.71875 19.3293V2.67068Z" fill="url(#paint2_linear_451_3415)" stroke="url(#paint3_linear_451_3415)" stroke-width="0.6"/>
<path d="M18.2188 17.5312C16.3281 17.5312 17.5312 17.8406 17.5312 18.2188V17.5312H15.4688C15.0906 17.5312 14.7812 17.8406 14.7812 18.2188C14.7812 18.5969 15.0906 18.9062 15.4688 18.9062H17.5312V18.2188C17.5312 18.5969 16.6719 18.9062 18.2188 18.9062C19.9695 18.9062 18.9062 18.5969 18.9062 18.2188V18.9062H20.9688C21.3469 18.9062 21.6562 18.5969 21.6562 18.2188C21.6562 17.8406 21.3469 17.5312 20.9688 17.5312H18.9062V18.2188C18.9062 17.8406 20.1094 17.5312 18.2188 17.5312Z" fill="url(#paint4_linear_451_3415)"/>
<path d="M17.5312 18.2188C17.5312 17.8406 16.3281 17.5312 18.2188 17.5312C20.1094 17.5312 18.9062 17.8406 18.9062 18.2188M17.5312 18.2188V17.5312H15.4688C15.0906 17.5312 14.7812 17.8406 14.7812 18.2188C14.7812 18.5969 15.0906 18.9062 15.4688 18.9062H17.5312V18.2188ZM17.5312 18.2188C17.5312 18.5969 16.6719 18.9062 18.2188 18.9062C19.9695 18.9062 18.9062 18.5969 18.9062 18.2188M18.9062 18.2188V18.9062H20.9688C21.3469 18.9062 21.6562 18.5969 21.6562 18.2188C21.6562 17.8406 21.3469 17.5312 20.9688 17.5312H18.9062V18.2188Z" stroke="url(#paint5_linear_451_3415)"/>
</g>
<defs>
<linearGradient id="paint0_linear_451_3415" x1="10.778" y1="4.81257" x2="14.3523" y2="16.2625" gradientUnits="userSpaceOnUse">
<stop stop-color="#F70FA8"/>
<stop offset="1" stop-color="#F40631"/>
</linearGradient>
<linearGradient id="paint1_linear_451_3415" x1="10.778" y1="4.81257" x2="14.3523" y2="16.2625" gradientUnits="userSpaceOnUse">
<stop stop-color="#F70FA8"/>
<stop offset="1" stop-color="#F40631"/>
</linearGradient>
<linearGradient id="paint2_linear_451_3415" x1="10.2592" y1="1.1021" x2="13.0853" y2="20.3689" gradientUnits="userSpaceOnUse">
<stop stop-color="#F70FA8"/>
<stop offset="1" stop-color="#F40631"/>
</linearGradient>
<linearGradient id="paint3_linear_451_3415" x1="10.2592" y1="1.1021" x2="13.0853" y2="20.3689" gradientUnits="userSpaceOnUse">
<stop stop-color="#F70FA8"/>
<stop offset="1" stop-color="#F40631"/>
</linearGradient>
<linearGradient id="paint4_linear_451_3415" x1="21.424" y1="17.5705" x2="21.3005" y2="19.121" gradientUnits="userSpaceOnUse">
<stop stop-color="#FE0F7C"/>
<stop offset="1" stop-color="#DF0066"/>
</linearGradient>
<linearGradient id="paint5_linear_451_3415" x1="21.424" y1="17.5705" x2="21.3005" y2="19.121" gradientUnits="userSpaceOnUse">
<stop stop-color="#FE0F7C"/>
<stop offset="1" stop-color="#DF0066"/>
</linearGradient>
<clipPath id="clip0_451_3415">
<rect width="22" height="22" fill="white"/>
</clipPath>
</defs>
</svg>
