<svg width="22" height="22" viewBox="0 0 22 22" fill="none" xmlns="http://www.w3.org/2000/svg">
<path d="M9.72117 4.68213C9.30504 4.68213 8.96776 5.02088 8.96776 5.43875C8.96776 5.85662 9.30504 6.19538 9.72117 6.19538H9.98484C10.4009 6.19538 10.7382 5.85662 10.7382 5.43875C10.7382 5.02088 10.4009 4.68213 9.98484 4.68213H9.72117ZM9.72117 7.9356C9.30504 7.9356 8.96776 8.27433 8.96776 8.69223C8.96776 9.1101 9.30504 9.44885 9.72117 9.44885H9.98484C10.4009 9.44885 10.7382 9.1101 10.7382 8.69223C10.7382 8.27433 10.4009 7.9356 9.98484 7.9356H9.72117ZM9.853 11.1891C9.36409 11.1891 8.96776 11.5871 8.96776 12.0781V12.1413C8.96776 12.5593 8.68612 12.9142 8.32927 13.1294C7.64822 13.54 7.19727 14.2127 7.19727 14.9722C7.19727 16.2168 8.39674 17.242 9.853 17.242C11.3092 17.242 12.5087 16.2168 12.5087 14.9722C12.5087 14.2125 12.0575 13.5396 11.3761 13.1286C11.0195 12.9136 10.7382 12.5588 10.7382 12.1412V12.0781C10.7382 11.5871 10.3419 11.1891 9.853 11.1891ZM9.853 14.2155C10.3522 14.2155 10.7382 14.5454 10.7382 14.9722C10.7382 15.3989 10.3522 15.7288 9.853 15.7288C9.35369 15.7288 8.96776 15.3989 8.96776 14.9722C8.96776 14.5454 9.35369 14.2155 9.853 14.2155Z" fill="url(#paint0_linear_451_3420)" stroke="url(#paint1_linear_451_3420)" stroke-width="0.6"/>
<path d="M1 2.89155C1 1.84688 1.84328 1 2.88351 1H16.8214C17.8616 1 18.7049 1.84688 18.7049 2.89155V12.801C18.7049 12.982 18.5582 13.1288 18.3772 13.1289L17.2624 13.1293C17.0813 13.1294 16.9344 12.9826 16.9344 12.8015V4.40479C16.9344 3.36013 16.0911 2.51324 15.0509 2.51324H11.1144C10.9064 2.51324 10.7377 2.68261 10.7377 2.89155C10.7377 3.10049 10.569 3.26985 10.361 3.26985H9.3439C9.13587 3.26985 8.96721 3.10049 8.96721 2.89155C8.96721 2.68261 8.79856 2.51324 8.59052 2.51324H4.654C3.61377 2.51324 2.77049 3.36013 2.77049 4.40479V17.2673C2.77049 18.312 3.61377 19.1589 4.654 19.1589H11.4918C11.6729 19.1589 11.8197 19.3057 11.8197 19.4868V20.3443C11.8197 20.5253 11.6729 20.6721 11.4918 20.6721H2.88351C1.84328 20.6721 1 19.8252 1 18.7806V2.89155Z" fill="url(#paint2_linear_451_3420)" stroke="url(#paint3_linear_451_3420)" stroke-width="0.6"/>
<path d="M16.7377 14.4424C16.377 14.4424 16.0819 14.7375 16.0819 15.0981V17.0653H14.1147C13.7541 17.0653 13.459 17.3604 13.459 17.7211C13.459 18.0817 13.7541 18.3768 14.1147 18.3768H16.0819V20.344C16.0819 20.7047 16.377 20.9998 16.7377 20.9998C17.0983 20.9998 17.3934 20.7047 17.3934 20.344V18.3768H19.3606C19.7213 18.3768 20.0164 18.0817 20.0164 17.7211C20.0164 17.3604 19.7213 17.0653 19.3606 17.0653H17.3934V15.0981C17.3934 14.7375 17.0983 14.4424 16.7377 14.4424Z" fill="url(#paint4_linear_451_3420)" stroke="url(#paint5_linear_451_3420)"/>
<defs>
<linearGradient id="paint0_linear_451_3420" x1="9.85304" y1="20.672" x2="9.85304" y2="0.999899" gradientUnits="userSpaceOnUse">
<stop stop-color="#02AA93"/>
<stop offset="1" stop-color="#67FF80"/>
</linearGradient>
<linearGradient id="paint1_linear_451_3420" x1="9.85304" y1="20.672" x2="9.85304" y2="0.999899" gradientUnits="userSpaceOnUse">
<stop stop-color="#02AA93"/>
<stop offset="1" stop-color="#67FF80"/>
</linearGradient>
<linearGradient id="paint2_linear_451_3420" x1="9.85246" y1="20.6721" x2="9.85246" y2="1" gradientUnits="userSpaceOnUse">
<stop stop-color="#02AA93"/>
<stop offset="1" stop-color="#67FF80"/>
</linearGradient>
<linearGradient id="paint3_linear_451_3420" x1="9.85246" y1="20.6721" x2="9.85246" y2="1" gradientUnits="userSpaceOnUse">
<stop stop-color="#02AA93"/>
<stop offset="1" stop-color="#67FF80"/>
</linearGradient>
<linearGradient id="paint4_linear_451_3420" x1="16.7377" y1="20.9998" x2="16.7377" y2="14.4424" gradientUnits="userSpaceOnUse">
<stop stop-color="#02AA93"/>
<stop offset="1" stop-color="#67FF80"/>
</linearGradient>
<linearGradient id="paint5_linear_451_3420" x1="16.7377" y1="20.9998" x2="16.7377" y2="14.4424" gradientUnits="userSpaceOnUse">
<stop stop-color="#02AA93"/>
<stop offset="1" stop-color="#67FF80"/>
</linearGradient>
</defs>
</svg>
