<svg width="22" height="22" viewBox="0 0 22 22" fill="none" xmlns="http://www.w3.org/2000/svg">
<path d="M3.69349 0.6875C2.60288 0.6875 1.71875 1.5754 1.71875 2.67068V19.3293C1.71875 20.4246 2.60288 21.3125 3.69349 21.3125H18.3065C19.3971 21.3125 20.2812 20.4246 20.2812 19.3293V2.67068C20.2812 1.5754 19.3971 0.6875 18.3065 0.6875H3.69349ZM3.575 4.25721C3.575 3.16195 4.45912 2.27404 5.54974 2.27404H9.67694C9.89505 2.27404 10.0719 2.45161 10.0719 2.67068C10.0719 2.88973 10.2487 3.0673 10.4668 3.0673H11.5332C11.7513 3.0673 11.9281 2.88973 11.9281 2.67068C11.9281 2.45161 12.1049 2.27404 12.3231 2.27404H16.4503C17.5408 2.27404 18.425 3.16195 18.425 4.25721V17.7428C18.425 18.838 17.5408 19.726 16.4503 19.726H5.54974C4.45912 19.726 3.575 18.838 3.575 17.7428V4.25721ZM10.8618 4.54809C10.4255 4.54809 10.0719 4.90325 10.0719 5.34132C10.0719 5.77947 10.4255 6.13463 10.8618 6.13463H11.1382C11.5745 6.13463 11.9281 5.77947 11.9281 5.34132C11.9281 4.90325 11.5745 4.54809 11.1382 4.54809H10.8618ZM10.8618 7.95912C10.4255 7.95912 10.0719 8.31428 10.0719 8.75242C10.0719 9.1905 10.4255 9.54566 10.8618 9.54566H11.1382C11.5745 9.54566 11.9281 9.1905 11.9281 8.75242C11.9281 8.31428 11.5745 7.95912 11.1382 7.95912H10.8618ZM11 11.3702C10.4874 11.3702 10.0719 11.7875 10.0719 12.3023V12.3686C10.0719 12.8068 9.77659 13.1789 9.40246 13.4045C8.68842 13.835 8.21562 14.5403 8.21562 15.3365C8.21562 16.6415 9.4732 17.7163 11 17.7163C12.5268 17.7163 13.7844 16.6415 13.7844 15.3365C13.7844 14.54 13.3113 13.8346 12.5969 13.4037C12.223 13.1782 11.9281 12.8063 11.9281 12.3684V12.3023C11.9281 11.7875 11.5126 11.3702 11 11.3702ZM11 14.5432C11.5234 14.5432 11.9281 14.8891 11.9281 15.3365C11.9281 15.784 11.5234 16.1298 11 16.1298C10.4765 16.1298 10.0719 15.784 10.0719 15.3365C10.0719 14.8891 10.4765 14.5432 11 14.5432Z" fill="url(#paint0_linear_451_3424)" stroke="url(#paint1_linear_451_3424)" stroke-width="0.6"/>
<defs>
<linearGradient id="paint0_linear_451_3424" x1="11" y1="21.3125" x2="11" y2="0.6875" gradientUnits="userSpaceOnUse">
<stop stop-color="#02AA93"/>
<stop offset="1" stop-color="#67FF80"/>
</linearGradient>
<linearGradient id="paint1_linear_451_3424" x1="11" y1="21.3125" x2="11" y2="0.6875" gradientUnits="userSpaceOnUse">
<stop stop-color="#02AA93"/>
<stop offset="1" stop-color="#67FF80"/>
</linearGradient>
</defs>
</svg>
