<svg width="22" height="22" viewBox="0 0 22 22" fill="none" xmlns="http://www.w3.org/2000/svg">
<path d="M11 1.375C9.09636 1.375 7.23546 1.93949 5.65264 2.9971C4.06981 4.05472 2.83616 5.55794 2.10767 7.31667C1.37917 9.07541 1.18856 11.0107 1.55995 12.8777C1.93132 14.7448 2.84802 16.4598 4.19409 17.8059C5.54018 19.152 7.25519 20.0686 9.12227 20.4401C10.9893 20.8115 12.9246 20.6209 14.6833 19.8923C16.4421 19.1639 17.9453 17.9302 19.0028 16.3474C20.0606 14.7645 20.625 12.9036 20.625 11C20.6222 8.44814 19.6073 6.00158 17.8028 4.19715C15.9984 2.39271 13.5519 1.37776 11 1.375ZM11.401 18.1986V17.168C11.401 16.2767 11.047 15.4219 10.4167 14.7916C9.78644 14.1614 8.93164 13.8073 8.04031 13.8073H8.0323C7.70113 13.8073 7.37323 13.7421 7.06729 13.6153C6.76134 13.4886 6.48338 13.3028 6.24927 13.0686L3.8005 10.6182C3.86592 9.34398 4.26845 8.10996 4.96696 7.04223C5.66548 5.97453 6.63494 5.11139 7.77628 4.54106C8.91761 3.97071 10.1899 3.7136 11.4632 3.796C12.7364 3.87839 13.9649 4.29736 15.0232 5.01004C14.8109 5.16591 14.5544 5.25018 14.2909 5.25066H13.1408C12.9768 5.25066 12.8144 5.28301 12.6629 5.34583C12.5114 5.40867 12.3738 5.50076 12.258 5.61682C12.1421 5.73289 12.0503 5.87068 11.9878 6.02228C11.9252 6.17387 11.8932 6.33633 11.8935 6.50031V7.33609C11.8935 7.66688 11.7621 7.98411 11.5282 8.21801C11.2943 8.45192 10.9771 8.58332 10.6463 8.58332C10.4822 8.5829 10.3197 8.61486 10.168 8.67733C10.0163 8.73983 9.87843 8.83164 9.76228 8.94749C9.64612 9.06335 9.55396 9.20098 9.49107 9.35253C9.4282 9.50405 9.39584 9.66651 9.39584 9.83056V10.6663C9.39584 10.9971 9.52724 11.3144 9.76114 11.5483C9.99505 11.7822 10.3123 11.9136 10.6431 11.9136H13.9765C14.3073 11.9136 14.6246 12.045 14.8585 12.2789C15.0924 12.5128 15.2238 12.83 15.2238 13.1608V14.38C15.2238 14.5439 15.2561 14.7061 15.3188 14.8575C15.3816 15.0089 15.4736 15.1464 15.5895 15.2623L16.2577 15.9304C14.9917 17.2843 13.2518 18.0969 11.401 18.1986Z" fill="url(#paint0_linear_451_3413)"/>
<defs>
<linearGradient id="paint0_linear_451_3413" x1="11" y1="20.625" x2="11" y2="1.375" gradientUnits="userSpaceOnUse">
<stop stop-color="#A93AFF"/>
<stop offset="1" stop-color="#FF81FF"/>
</linearGradient>
</defs>
</svg>
