<svg width="16" height="16" viewBox="0 0 16 16" fill="none" xmlns="http://www.w3.org/2000/svg">
<path fill-rule="evenodd" clip-rule="evenodd" d="M2.8429 4.18428C2.97196 4.11966 3.00822 3.94555 2.90617 3.84349L1.42718 2.36451C1.10175 2.03907 1.10175 1.51143 1.42718 1.186C1.75262 0.860561 2.28026 0.860561 2.60569 1.186L15.1057 13.686C15.4311 14.0114 15.4311 14.5391 15.1057 14.8645C14.7803 15.1899 14.2526 15.1899 13.9272 14.8645L12.4474 13.3847C12.3345 13.2719 12.141 13.3301 12.1066 13.4859C12.0875 13.5721 12.0687 13.6546 12.0501 13.7336C11.7911 14.8347 10.7995 15.5 9.75526 15.5C9.12921 15.5 8.5259 15.2653 8.0644 14.8423L5.62345 12.6047C5.31606 12.323 4.91422 12.1667 4.49724 12.1667H4.33333C2.49238 12.1667 1 10.6743 1 8.83333V7.16667C1 5.86144 1.75019 4.73143 2.8429 4.18428ZM10.6711 11.6084C10.7158 11.6531 10.7367 11.7163 10.7273 11.7788C10.6319 12.4129 10.5244 12.9408 10.4277 13.352C10.3653 13.6172 10.1146 13.8333 9.75526 13.8333C9.54619 13.8333 9.34472 13.755 9.19061 13.6137L6.74965 11.3762C6.13489 10.8126 5.33121 10.5 4.49724 10.5H4.33333C3.41286 10.5 2.66667 9.75381 2.66667 8.83333L2.66667 7.16667C2.66667 6.24619 3.41286 5.5 4.33333 5.5H4.49724V5.5C4.53865 5.5 4.57859 5.51592 4.60787 5.5452L10.6711 11.6084Z" fill="url(#paint0_linear_620_158)"/>
<path d="M10.4277 2.64801C10.6685 3.67202 10.9761 5.41979 10.9987 7.72957C10.9992 7.78214 11.0202 7.83285 11.0574 7.87003L12.3122 9.12483C12.4348 9.24743 12.6438 9.16657 12.6498 8.99329C12.6607 8.67323 12.6667 8.34199 12.6667 8C12.6667 5.40993 12.3253 3.4367 12.0501 2.26645C11.7911 1.16532 10.7995 0.5 9.75526 0.5C9.12921 0.5 8.5259 0.734677 8.0644 1.15772L6.27786 2.79538C6.19392 2.87232 6.19107 3.00372 6.27158 3.08423L7.1681 3.98075C7.24381 4.05646 7.36573 4.05911 7.44466 3.98675L9.19061 2.38631C9.34472 2.24504 9.54619 2.16667 9.75526 2.16667C10.1146 2.16667 10.3653 2.3828 10.4277 2.64801Z" fill="url(#paint1_linear_620_158)"/>
<path fill-rule="evenodd" clip-rule="evenodd" d="M2.8429 4.18428C2.97196 4.11966 3.00822 3.94555 2.90617 3.84349L1.42718 2.36451C1.10175 2.03907 1.10175 1.51143 1.42718 1.186C1.75262 0.860561 2.28026 0.860561 2.60569 1.186L15.1057 13.686C15.4311 14.0114 15.4311 14.5391 15.1057 14.8645C14.7803 15.1899 14.2526 15.1899 13.9272 14.8645L12.4474 13.3847C12.3345 13.2719 12.141 13.3301 12.1066 13.4859C12.0875 13.5721 12.0687 13.6546 12.0501 13.7336C11.7911 14.8347 10.7995 15.5 9.75526 15.5C9.12921 15.5 8.5259 15.2653 8.0644 14.8423L5.62345 12.6047C5.31606 12.323 4.91422 12.1667 4.49724 12.1667H4.33333C2.49238 12.1667 1 10.6743 1 8.83333V7.16667C1 5.86144 1.75019 4.73143 2.8429 4.18428ZM10.6711 11.6084C10.7158 11.6531 10.7367 11.7163 10.7273 11.7788C10.6319 12.4129 10.5244 12.9408 10.4277 13.352C10.3653 13.6172 10.1146 13.8333 9.75526 13.8333C9.54619 13.8333 9.34472 13.755 9.19061 13.6137L6.74965 11.3762C6.13489 10.8126 5.33121 10.5 4.49724 10.5H4.33333C3.41286 10.5 2.66667 9.75381 2.66667 8.83333L2.66667 7.16667C2.66667 6.24619 3.41286 5.5 4.33333 5.5H4.49724V5.5C4.53865 5.5 4.57859 5.51592 4.60787 5.5452L10.6711 11.6084Z" stroke="url(#paint2_linear_620_158)" stroke-width="0.4"/>
<path d="M10.4277 2.64801C10.6685 3.67202 10.9761 5.41979 10.9987 7.72957C10.9992 7.78214 11.0202 7.83285 11.0574 7.87003L12.3122 9.12483C12.4348 9.24743 12.6438 9.16657 12.6498 8.99329C12.6607 8.67323 12.6667 8.34199 12.6667 8C12.6667 5.40993 12.3253 3.4367 12.0501 2.26645C11.7911 1.16532 10.7995 0.5 9.75526 0.5C9.12921 0.5 8.5259 0.734677 8.0644 1.15772L6.27786 2.79538C6.19392 2.87232 6.19107 3.00372 6.27158 3.08423L7.1681 3.98075C7.24381 4.05646 7.36573 4.05911 7.44466 3.98675L9.19061 2.38631C9.34472 2.24504 9.54619 2.16667 9.75526 2.16667C10.1146 2.16667 10.3653 2.3828 10.4277 2.64801Z" stroke="url(#paint3_linear_620_158)" stroke-width="0.4"/>
<defs>
<linearGradient id="paint0_linear_620_158" x1="1" y1="15.5066" x2="10.3441" y2="-0.746293" gradientUnits="userSpaceOnUse">
<stop stop-color="#FF425B"/>
<stop offset="1" stop-color="#FF8760"/>
</linearGradient>
<linearGradient id="paint1_linear_620_158" x1="1" y1="15.5066" x2="10.3441" y2="-0.746293" gradientUnits="userSpaceOnUse">
<stop stop-color="#FF425B"/>
<stop offset="1" stop-color="#FF8760"/>
</linearGradient>
<linearGradient id="paint2_linear_620_158" x1="1" y1="15.5066" x2="10.3441" y2="-0.746293" gradientUnits="userSpaceOnUse">
<stop stop-color="#FF425B"/>
<stop offset="1" stop-color="#FF8760"/>
</linearGradient>
<linearGradient id="paint3_linear_620_158" x1="1" y1="15.5066" x2="10.3441" y2="-0.746293" gradientUnits="userSpaceOnUse">
<stop stop-color="#FF425B"/>
<stop offset="1" stop-color="#FF8760"/>
</linearGradient>
</defs>
</svg>
