<svg width="22" height="22" viewBox="0 0 22 22" fill="none" xmlns="http://www.w3.org/2000/svg">
<path fill-rule="evenodd" clip-rule="evenodd" d="M11.3539 15.4288C11.2905 15.948 11.2719 16.4589 11.1302 16.9875C10.9046 17.7408 10.3145 18.2015 9.67776 18.1829C9.37571 18.1904 8.95063 18.0064 8.66442 17.7658L5.3261 15.0544H3.46631C2.56949 15.0544 1.9654 14.4432 1.84328 13.4363C1.66895 12.1972 1.68574 9.95856 1.84328 8.69435C1.9654 7.82119 2.56949 7.1329 3.46631 7.1329H5.3261L8.59543 4.46791C8.88164 4.22546 9.37571 3.99697 9.67776 4.00347C10.3145 3.98487 10.9046 4.44653 11.1302 5.19893C11.256 5.68011 11.2905 6.23929 11.3539 6.75856C11.5059 7.97262 11.5059 14.2147 11.3539 15.4288Z" stroke="url(#paint0_linear_451_2783)" stroke-width="2.4" stroke-linecap="round" stroke-linejoin="round"/>
<path fill-rule="evenodd" clip-rule="evenodd" d="M18.7619 3.19261C18.4368 2.725 17.7941 2.60951 17.3265 2.93466C16.8589 3.25981 16.7434 3.90246 17.0685 4.37006C18.2319 6.04312 18.9588 8.33343 18.9588 10.9319C18.9588 13.5304 18.2318 15.8216 17.0685 17.4946C16.7434 17.9622 16.8589 18.6048 17.3265 18.93C17.7941 19.2551 18.4368 19.1397 18.7619 18.6721C20.1919 16.6155 21.0213 13.9028 21.0213 10.9319C21.0213 7.96094 20.1918 5.24903 18.7619 3.19261ZM15.7213 5.90518C15.3962 5.43754 14.7535 5.32201 14.2859 5.64712C13.8183 5.97228 13.7028 6.61492 14.0279 7.08256C14.6994 8.04836 15.1311 9.39036 15.1311 10.9324C15.1311 12.4743 14.6994 13.8154 14.0279 14.7813C13.7028 15.249 13.8183 15.8916 14.2859 16.2167C14.7535 16.5418 15.3962 16.4263 15.7213 15.9587C16.6593 14.6096 17.1936 12.847 17.1936 10.9324C17.1936 9.01787 16.6593 7.25433 15.7213 5.90518Z" fill="url(#paint1_linear_451_2783)"/>
<defs>
<linearGradient id="paint0_linear_451_2783" x1="2.41512" y1="18.1835" x2="12.4491" y2="8.14946" gradientUnits="userSpaceOnUse">
<stop stop-color="#9BE862"/>
<stop offset="1" stop-color="#C8FF9F"/>
</linearGradient>
<linearGradient id="paint1_linear_451_2783" x1="14.356" y1="19.1146" x2="24.857" y2="12.4149" gradientUnits="userSpaceOnUse">
<stop stop-color="#9BE862"/>
<stop offset="1" stop-color="#C8FF9F"/>
</linearGradient>
</defs>
</svg>
