<svg width="22" height="22" viewBox="0 0 22 22" fill="none" xmlns="http://www.w3.org/2000/svg">
<path d="M10.9161 1.375C8.56168 1.38192 6.291 2.24911 4.53142 3.81336L3.46222 2.74417C3.35004 2.63203 3.20714 2.55566 3.05157 2.52473C2.896 2.4938 2.73475 2.50968 2.58821 2.57037C2.44167 2.63107 2.31641 2.73385 2.22828 2.86572C2.14014 2.99759 2.09308 3.15263 2.09305 3.31125V6.98964C2.09305 7.20235 2.17755 7.40637 2.32797 7.55679C2.47839 7.70722 2.68241 7.79171 2.89513 7.79171H6.57353C6.73214 7.79168 6.88717 7.74462 7.01907 7.65648C7.15093 7.56834 7.25371 7.44312 7.31438 7.29658C7.37509 7.15 7.39097 6.98878 7.36003 6.8332C7.32909 6.67762 7.25275 6.53472 7.14062 6.42256L6.23023 5.51217C7.29259 4.60463 8.5955 4.02493 9.98088 3.84333C11.3663 3.66176 12.7746 3.88613 14.0349 4.48924C15.2953 5.09231 16.3536 6.04821 17.0813 7.24096C17.8091 8.43367 18.1751 9.812 18.1349 11.2086C18.0833 13.0132 17.3573 14.733 16.1003 16.0288C14.8433 17.3246 13.1463 18.1023 11.3441 18.2086C9.54192 18.3149 7.76531 17.7421 6.3646 16.6031C4.96392 15.4641 4.04085 13.8416 3.77743 12.0557C3.73983 11.7653 3.59827 11.4983 3.37899 11.3043C3.15971 11.1102 2.87754 11.0021 2.58472 11.0001C2.41482 10.9979 2.24639 11.032 2.09071 11.1001C1.93502 11.1682 1.79566 11.2687 1.68193 11.395C1.5682 11.5212 1.48272 11.6703 1.43121 11.8322C1.37969 11.9942 1.36332 12.1652 1.38319 12.334C1.71703 14.6969 2.9155 16.852 4.74667 18.3823C6.57786 19.9125 8.91158 20.7091 11.2962 20.618C13.7087 20.5017 15.9914 19.4912 17.6993 17.7833C19.4071 16.0755 20.4177 13.7928 20.5339 11.3803C20.5836 10.0856 20.3718 8.79426 19.9109 7.5834C19.4501 6.37251 18.7498 5.26701 17.852 4.33297C16.9541 3.39896 15.8771 2.65559 14.6854 2.14735C13.4936 1.6391 12.2117 1.37642 10.9161 1.375Z" fill="url(#paint0_linear_451_3390)"/>
<path d="M10.5157 6.98926C10.1966 6.98926 9.89055 7.11603 9.66491 7.34167C9.43927 7.56727 9.3125 7.87331 9.3125 8.19238V11.6358C9.3126 12.0612 9.48169 12.4691 9.78254 12.7699L11.2207 14.2081C11.4476 14.4272 11.7515 14.5485 12.067 14.5457C12.3824 14.543 12.6842 14.4165 12.9073 14.1934C13.1303 13.9703 13.2569 13.6686 13.2596 13.3531C13.2624 13.0377 13.1411 12.7338 12.9219 12.5068L11.7188 11.3037V8.19238C11.7188 7.87331 11.592 7.56727 11.3664 7.34167C11.1408 7.11603 10.8347 6.98926 10.5157 6.98926Z" fill="url(#paint1_linear_451_3390)"/>
<defs>
<linearGradient id="paint0_linear_451_3390" x1="10.958" y1="20.625" x2="10.958" y2="1.375" gradientUnits="userSpaceOnUse">
<stop stop-color="#FDA700"/>
<stop offset="1" stop-color="#FFDE00"/>
</linearGradient>
<linearGradient id="paint1_linear_451_3390" x1="11.2861" y1="14.5458" x2="11.2861" y2="6.98926" gradientUnits="userSpaceOnUse">
<stop stop-color="#FDA700"/>
<stop offset="1" stop-color="#FFDE00"/>
</linearGradient>
</defs>
</svg>
