<svg width="16" height="16" viewBox="0 0 16 16" fill="none" xmlns="http://www.w3.org/2000/svg">
<path d="M8.01394 2.00024C9.20852 2.00309 10.3152 2.29471 11.2946 3.02715L11.3078 3.03699C11.3236 3.04886 11.3383 3.06224 11.3516 3.07693L11.3627 3.08917C11.6034 3.35541 11.7086 3.68002 11.6417 4.00568C11.5787 4.31256 11.3779 4.54642 11.1555 4.69175C10.7544 4.95403 10.1035 5.02483 9.64488 4.57117C9.62154 4.54804 9.59556 4.52731 9.56642 4.51209C8.18785 3.79155 6.29029 4.24466 5.33138 5.32901L5.32758 5.3333L5.32366 5.33757C4.97045 5.71791 4.78988 6.19782 4.7124 6.74749C4.68759 6.92355 4.82954 7.07455 5.00735 7.07455H5.79731C6.04985 7.07455 6.19418 7.36263 6.043 7.56492L3.79797 10.5685C3.67531 10.7327 3.42929 10.7327 3.30662 10.5685L1.0616 7.56492C0.910415 7.36263 1.05475 7.07455 1.30729 7.07455H2.16964C2.3303 7.07455 2.4628 6.95036 2.48293 6.79098C2.74985 4.67401 4.23779 2.77139 6.42792 2.20677C6.93869 2.07245 7.47179 1.99506 8.01394 2.00024Z" fill="url(#paint0_linear_169_289)"/>
<path d="M12.6933 4.54217L14.9384 7.54574C15.0896 7.74803 14.9452 8.03611 14.6927 8.03611H13.8303C13.6697 8.03611 13.5372 8.1603 13.5171 8.31968C13.2502 10.4366 11.7622 12.3393 9.57208 12.904C9.12514 13.0214 8.66271 13.0942 8.19176 13.1073L8.18769 13.1091L8.18342 13.1108L7.98793 13.1105C6.79224 13.1079 5.685 12.8149 4.70537 12.0823L4.69221 12.0725C4.67632 12.0606 4.66165 12.0472 4.64834 12.0325L4.6373 12.0202C4.39667 11.7541 4.29134 11.4295 4.3583 11.1039C4.42142 10.797 4.62233 10.5633 4.84475 10.418C5.24623 10.1561 5.89732 10.086 6.3557 10.5401C6.37885 10.5629 6.40463 10.5836 6.43343 10.5989C7.81902 11.3319 9.63244 10.9778 10.6654 9.78536L10.6708 9.77914L10.6764 9.7731C11.0295 9.39275 11.2101 8.91284 11.2876 8.36318C11.3125 8.18715 11.1705 8.03611 10.9927 8.03611H10.2027C9.95016 8.03611 9.80584 7.74803 9.95703 7.54574L12.202 4.54217C12.3247 4.37803 12.5707 4.37803 12.6933 4.54217Z" fill="url(#paint1_linear_169_289)"/>
<defs>
<linearGradient id="paint0_linear_169_289" x1="1.76153" y1="10.6916" x2="7.00755" y2="1.33168" gradientUnits="userSpaceOnUse">
<stop stop-color="#9BE862"/>
<stop offset="1" stop-color="#C8FF9F"/>
</linearGradient>
<linearGradient id="paint1_linear_169_289" x1="5.10004" y1="13.1108" x2="10.3461" y2="3.75078" gradientUnits="userSpaceOnUse">
<stop stop-color="#9BE862"/>
<stop offset="1" stop-color="#C8FF9F"/>
</linearGradient>
</defs>
</svg>
