<svg width="22" height="22" viewBox="0 0 22 22" fill="none" xmlns="http://www.w3.org/2000/svg">
<path fill-rule="evenodd" clip-rule="evenodd" d="M6.10916 4.63299C5.77644 4.88785 5.5 5.31702 5.5 6.17846V17.7399L9.9606 15.2962L9.96679 15.2929C10.51 14.9994 11.1644 14.9994 11.7075 15.2929L11.711 15.2947L16.2209 17.7503V6.02339C16.2209 5.24652 15.9558 4.85657 15.616 4.61295C15.2107 4.32231 14.5293 4.125 13.5471 4.125H8.17376C7.16372 4.125 6.49808 4.3351 6.10916 4.63299ZM3.33191 19.3288C3.18084 19.0404 3.09934 18.7207 3.09392 18.3952C3.09381 18.3885 3.09375 18.3818 3.09375 18.3751V6.17846C3.09375 4.71374 3.61206 3.51464 4.64595 2.72273C5.62365 1.97387 6.89642 1.71875 8.17376 1.71875H13.5471C14.7825 1.71875 16.0395 1.95566 17.0182 2.65749C18.0625 3.40634 18.6271 4.56717 18.6271 6.02339V18.3751C18.6271 18.9143 18.4129 19.4313 18.0317 19.8125C17.6505 20.1937 17.1335 20.4079 16.5943 20.4079C16.588 20.4079 16.5816 20.4079 16.5752 20.4078C16.2504 20.4026 15.931 20.3227 15.6419 20.1744C15.6331 20.1699 15.6244 20.1653 15.6158 20.1606L10.838 17.5592L6.09228 20.1591C6.08767 20.1616 6.0831 20.1641 6.07846 20.1666C6.07533 20.1682 6.07217 20.1699 6.06904 20.1715C5.09431 20.6781 3.8941 20.322 3.35295 19.3673C3.34574 19.3547 3.33873 19.3419 3.33191 19.3288ZM6.70312 9.32518C6.70312 8.66071 7.24178 8.12206 7.90625 8.12206H9.84081V6.18753C9.84081 5.52307 10.3795 4.98441 11.0439 4.98441C11.7084 4.98441 12.2471 5.52307 12.2471 6.18753V8.12206H14.086C14.7505 8.12206 15.2891 8.66071 15.2891 9.32518C15.2891 9.98965 14.7505 10.5283 14.086 10.5283H12.2471V12.3673C12.2471 13.0317 11.7084 13.5704 11.0439 13.5704C10.3795 13.5704 9.84081 13.0317 9.84081 12.3673V10.5283H7.90625C7.24178 10.5283 6.70312 9.98965 6.70312 9.32518Z" fill="url(#paint0_linear_451_3388)"/>
<defs>
<linearGradient id="paint0_linear_451_3388" x1="2.86923" y1="1.90265" x2="21.9162" y2="18.2177" gradientUnits="userSpaceOnUse">
<stop stop-color="#F9D423"/>
<stop offset="0.515624" stop-color="#FF4E50"/>
<stop offset="0.991304" stop-color="#8A2387"/>
</linearGradient>
</defs>
</svg>
