<svg width="22" height="22" viewBox="0 0 22 22" fill="none" xmlns="http://www.w3.org/2000/svg">
<path fill-rule="evenodd" clip-rule="evenodd" d="M5.5 6.17846C5.5 5.31702 5.77644 4.88785 6.10916 4.63299C6.49808 4.3351 7.16372 4.125 8.17376 4.125H13.5471C14.5293 4.125 15.2107 4.32231 15.616 4.61295C15.9558 4.85657 16.2209 5.24652 16.2209 6.02339V17.7503L11.711 15.2947L11.7075 15.2929C11.1644 14.9994 10.51 14.9994 9.96679 15.2929L9.9606 15.2962L5.5 17.7399V6.17846ZM3.09392 18.3952C3.09934 18.7207 3.18084 19.0404 3.33191 19.3288C3.33873 19.3419 3.34574 19.3547 3.35295 19.3673C3.8941 20.322 5.09431 20.6781 6.06904 20.1715C6.07681 20.1675 6.08458 20.1633 6.09228 20.1591L10.838 17.5592L15.6158 20.1606C15.6244 20.1653 15.6331 20.1699 15.6419 20.1744C15.931 20.3227 16.2504 20.4026 16.5752 20.4078C16.5816 20.4079 16.588 20.4079 16.5943 20.4079C17.1335 20.4079 17.6505 20.1937 18.0317 19.8125C18.4129 19.4313 18.6271 18.9143 18.6271 18.3751V6.02339C18.6271 4.56717 18.0625 3.40634 17.0182 2.65749C16.0395 1.95566 14.7825 1.71875 13.5471 1.71875H8.17376C6.89642 1.71875 5.62365 1.97387 4.64595 2.72273C3.61206 3.51464 3.09375 4.71374 3.09375 6.17846V18.3751C3.09375 18.3818 3.09381 18.3885 3.09392 18.3952ZM7.7473 7.26265C7.08283 7.26265 6.54417 7.8013 6.54417 8.46577C6.54417 9.13024 7.08283 9.6689 7.7473 9.6689H13.927C14.5915 9.6689 15.1302 9.13024 15.1302 8.46577C15.1302 7.8013 14.5915 7.26265 13.927 7.26265H7.7473Z" fill="url(#paint0_linear_451_3384)"/>
<defs>
<linearGradient id="paint0_linear_451_3384" x1="2.86923" y1="1.90265" x2="21.9162" y2="18.2177" gradientUnits="userSpaceOnUse">
<stop stop-color="#F9D423"/>
<stop offset="0.515624" stop-color="#FF4E50"/>
<stop offset="0.991304" stop-color="#8A2387"/>
</linearGradient>
</defs>
</svg>
