<svg width="22" height="22" viewBox="0 0 22 22" fill="none" xmlns="http://www.w3.org/2000/svg">
<path fill-rule="evenodd" clip-rule="evenodd" d="M16.2136 1.375H5.78645C4.61691 1.37649 3.49573 1.84174 2.66873 2.66873C1.84174 3.49573 1.37648 4.61691 1.375 5.78645V13.0052C1.37648 14.1747 1.84174 15.2959 2.66873 16.1229C3.49573 16.9499 4.61691 17.4152 5.78645 17.4167H6.93987L10.2284 20.1662C10.4448 20.3471 10.7179 20.4462 11 20.4462C11.2821 20.4462 11.5552 20.3471 11.7716 20.1662L15.0601 17.4167H16.2136C17.3831 17.4152 18.5043 16.9499 19.3313 16.1229C20.1583 15.2959 20.6235 14.1747 20.625 13.0052V5.78645C20.6235 4.61691 20.1583 3.49573 19.3313 2.66873C18.5043 1.84174 17.3831 1.37649 16.2136 1.375ZM18.2188 13.0052C18.2188 13.537 18.0075 14.0471 17.6315 14.4231C17.2554 14.7992 16.7454 15.0104 16.2136 15.0104H14.623C14.3408 15.0106 14.0677 15.11 13.8514 15.2911L11 17.6749L8.14859 15.2911C7.93227 15.11 7.65916 15.0106 7.37698 15.0104H5.78645C5.25463 15.0104 4.74461 14.7992 4.36855 14.4231C3.99252 14.0471 3.78125 13.537 3.78125 13.0052V5.78645C3.78125 5.25463 3.99252 4.74461 4.36855 4.36855C4.74461 3.99252 5.25463 3.78125 5.78645 3.78125H16.2136C16.7454 3.78125 17.2554 3.99252 17.6315 4.36855C18.0075 4.74461 18.2188 5.25463 18.2188 5.78645V13.0052ZM7.39062 8.59375H9.79688C10.116 8.59375 10.422 8.46701 10.6476 8.24137C10.8733 8.01573 11 7.70973 11 7.39063C11 7.07152 10.8733 6.76552 10.6476 6.53988C10.422 6.31424 10.116 6.1875 9.79688 6.1875H7.39062C7.07152 6.1875 6.76552 6.31424 6.53988 6.53988C6.31424 6.76552 6.1875 7.07152 6.1875 7.39063C6.1875 7.70973 6.31424 8.01573 6.53988 8.24137C6.76552 8.46701 7.07152 8.59375 7.39062 8.59375ZM6.53988 10.5502C6.76552 10.3246 7.07152 10.1979 7.39062 10.1979H14.6094C14.9285 10.1979 15.2345 10.3246 15.4601 10.5502C15.6857 10.7759 15.8125 11.0819 15.8125 11.401C15.8125 11.7201 15.6857 12.0261 15.4601 12.2517C15.2345 12.4774 14.9285 12.6041 14.6094 12.6041H7.39062C7.07152 12.6041 6.76552 12.4774 6.53988 12.2517C6.31424 12.0261 6.1875 11.7201 6.1875 11.401C6.1875 11.0819 6.31424 10.7759 6.53988 10.5502Z" fill="url(#paint0_linear_451_3382)"/>
<defs>
<linearGradient id="paint0_linear_451_3382" x1="11" y1="8.59375" x2="11.3438" y2="19.7656" gradientUnits="userSpaceOnUse">
<stop stop-color="#FFE600"/>
<stop offset="0.81623" stop-color="#FCF39F"/>
</linearGradient>
</defs>
</svg>
