<svg width="22" height="22" viewBox="0 0 22 22" fill="none" xmlns="http://www.w3.org/2000/svg">
<path d="M7.65787 12.4325L6.22559 11.0002L7.65787 9.56787M14.3419 9.56787L15.7742 11.0002L14.3419 12.4325" stroke="url(#paint0_linear_451_3374)" stroke-width="2.4" stroke-linecap="round" stroke-linejoin="round"/>
<path d="M11.9549 8.61285L10.0451 13.8646M2.40625 11C2.40625 12.1285 2.62854 13.246 3.06041 14.2887C3.49229 15.3313 4.12529 16.2787 4.92331 17.0767C5.72131 17.8747 6.66866 18.5077 7.71131 18.9396C8.75395 19.3715 9.87145 19.5938 11 19.5938C12.1285 19.5938 13.246 19.3715 14.2887 18.9396C15.3313 18.5077 16.2787 17.8747 17.0767 17.0767C17.8747 16.2787 18.5077 15.3313 18.9396 14.2887C19.3715 13.246 19.5938 12.1285 19.5938 11C19.5938 9.87145 19.3715 8.75395 18.9396 7.71131C18.5077 6.66866 17.8747 5.72131 17.0767 4.92331C16.2787 4.12529 15.3313 3.49229 14.2887 3.06041C13.246 2.62854 12.1285 2.40625 11 2.40625C9.87145 2.40625 8.75395 2.62854 7.71131 3.06041C6.66866 3.49229 5.72131 4.12529 4.92331 4.92331C4.12529 5.72131 3.49229 6.66866 3.06041 7.71131C2.62854 8.75395 2.40625 9.87145 2.40625 11Z" stroke="url(#paint1_linear_451_3374)" stroke-width="2.4" stroke-linecap="round" stroke-linejoin="round"/>
<defs>
<linearGradient id="paint0_linear_451_3374" x1="10.9999" y1="12.4325" x2="10.9999" y2="9.56787" gradientUnits="userSpaceOnUse">
<stop stop-color="#00F0FF"/>
<stop offset="1" stop-color="#85FFF0"/>
</linearGradient>
<linearGradient id="paint1_linear_451_3374" x1="11" y1="19.5938" x2="11" y2="2.40625" gradientUnits="userSpaceOnUse">
<stop stop-color="#00F0FF"/>
<stop offset="1" stop-color="#85FFF0"/>
</linearGradient>
</defs>
</svg>
