<svg width="24" height="24" viewBox="0 0 24 24" fill="none" xmlns="http://www.w3.org/2000/svg">
<path opacity="0.4" d="M14.6599 4.83893C14.1363 4.7422 13.6553 5.07637 13.5557 5.58752C13.456 6.09867 13.7912 6.59772 14.3006 6.69775C15.8343 6.99675 17.0185 8.18393 17.3187 9.72288V9.72398C17.4041 10.167 17.7941 10.4891 18.2433 10.4891C18.3035 10.4891 18.3638 10.4836 18.4251 10.4726C18.9345 10.3703 19.2697 9.87237 19.17 9.36013C18.722 7.0616 16.9528 5.28632 14.6599 4.83893" fill="url(#paint0_linear_19_69)"/>
<path opacity="0.4" d="M14.5914 1.00872C14.346 0.973547 14.0996 1.0461 13.9035 1.20219C13.7019 1.36048 13.5759 1.58912 13.5485 1.84525C13.4905 2.36299 13.864 2.83127 14.3811 2.88953C17.9469 3.28746 20.7185 6.06525 21.1195 9.64219C21.1731 10.1215 21.5752 10.4831 22.055 10.4831C22.0912 10.4831 22.1262 10.4809 22.1624 10.4765C22.4132 10.449 22.6367 10.3248 22.7945 10.127C22.9511 9.9291 23.0223 9.68287 22.9939 9.43114C22.4943 4.9682 19.0402 1.50448 14.5914 1.00872" fill="url(#paint1_linear_19_69)"/>
<path d="M18.1651 14.9403C17.452 14.7886 16.8878 15.1184 16.3883 15.4064C15.8767 15.7032 14.9028 16.4892 14.3463 16.2869C11.4914 15.1173 8.80636 12.6275 7.64404 9.77388C7.43919 9.20557 8.22465 8.23054 8.51934 7.7161C8.80745 7.21704 9.13172 6.64873 8.98383 5.93422C8.85018 5.29116 7.12149 3.10037 6.51021 2.50128C6.10597 2.10555 5.69407 1.8879 5.27011 1.85162C3.67617 1.78457 1.896 3.90282 1.58378 4.40957C0.800504 5.49013 0.805982 6.92794 1.59693 8.67134C3.50308 13.3541 10.7125 20.4212 15.4319 22.391C16.3017 22.7966 17.0992 23 17.8146 23C18.5146 23 19.1379 22.8054 19.6736 22.4196C20.0768 22.1877 22.2919 20.3266 22.2327 18.6965C22.1987 18.2809 21.9807 17.8654 21.5886 17.4631C20.9904 16.8486 18.806 15.0755 18.1651 14.9403" fill="url(#paint2_linear_19_69)"/>
<defs>
<linearGradient id="paint0_linear_19_69" x1="13.5381" y1="7.65566" x2="19.1876" y2="7.65566" gradientUnits="userSpaceOnUse">
<stop stop-color="#02AA93"/>
<stop offset="1" stop-color="#67FF80"/>
</linearGradient>
<linearGradient id="paint1_linear_19_69" x1="13.5426" y1="5.74156" x2="23" y2="5.74156" gradientUnits="userSpaceOnUse">
<stop stop-color="#02AA93"/>
<stop offset="1" stop-color="#67FF80"/>
</linearGradient>
<linearGradient id="paint2_linear_19_69" x1="1" y1="12.425" x2="22.2339" y2="12.425" gradientUnits="userSpaceOnUse">
<stop stop-color="#02AA93"/>
<stop offset="1" stop-color="#67FF80"/>
</linearGradient>
</defs>
</svg>
