<svg width="24" height="24" viewBox="0 0 24 24" fill="none" xmlns="http://www.w3.org/2000/svg">
<path d="M10.1997 10.7443L7.38568 13.6299C5.55814 11.5536 4.05249 9.40268 3.33601 7.60318C2.58838 5.92081 2.57799 4.52593 3.32562 3.48243C3.61637 2.99262 5.30893 0.93757 6.81458 1.00146C7.21954 1.0334 7.61413 1.24636 7.98794 1.62969C8.56944 2.21532 10.2101 4.33426 10.3347 4.95184C10.4801 5.65461 10.1685 6.19765 9.89856 6.68746C9.6182 7.17726 8.87057 8.12493 9.06786 8.67862C9.3586 9.39204 9.7428 10.0842 10.1997 10.7443" fill="url(#paint0_linear_19_69)"/>
<path d="M22.899 17.314C22.951 18.9005 20.8534 20.7 20.4692 20.9237C19.9604 21.2963 19.3686 21.488 18.704 21.488C18.029 21.488 17.271 21.2963 16.4507 20.9024C14.5089 20.0718 12.1103 18.3043 9.87778 16.2066L12.671 13.3434C13.5329 14.0238 14.4674 14.5881 15.4227 14.9832C15.9523 15.1844 16.8661 14.4178 17.3541 14.1303C17.8318 13.8534 18.3613 13.534 19.0363 13.6831C19.6489 13.8108 21.7153 15.5251 22.2864 16.1214C22.6602 16.5154 22.8575 16.92 22.899 17.314" fill="url(#paint1_linear_19_69)"/>
<path opacity="0.4" d="M22.2972 3.47165V3.48229L12.4326 13.5872L3.51294 22.7338C3.33642 22.9041 3.11836 23 2.88991 23C2.66147 23 2.44341 22.9041 2.2565 22.7338C1.96576 22.425 1.92422 21.9671 2.12151 21.6264L2.15266 21.5838C2.17343 21.5508 2.1942 21.5199 2.22535 21.488L21.0408 2.18325C21.1965 2.01288 21.425 1.90533 21.6638 1.90533C21.9026 1.90533 22.1311 2.01288 22.2972 2.18325C22.6399 2.54528 22.6399 3.10962 22.2972 3.47165" fill="url(#paint2_linear_19_69)"/>
<defs>
<linearGradient id="paint0_linear_19_69" x1="6.57088" y1="13.6299" x2="6.57088" y2="1" gradientUnits="userSpaceOnUse">
<stop stop-color="#E80058"/>
<stop offset="0.9997" stop-color="#FF001D"/>
<stop offset="0.9998" stop-color="#FF867E"/>
</linearGradient>
<linearGradient id="paint1_linear_19_69" x1="16.3889" y1="21.488" x2="16.3889" y2="13.3434" gradientUnits="userSpaceOnUse">
<stop stop-color="#E80058"/>
<stop offset="0.9997" stop-color="#FF001D"/>
<stop offset="0.9998" stop-color="#FF867E"/>
</linearGradient>
<linearGradient id="paint2_linear_19_69" x1="12.2771" y1="23" x2="12.2771" y2="1.90533" gradientUnits="userSpaceOnUse">
<stop stop-color="#E80058"/>
<stop offset="0.9997" stop-color="#FF001D"/>
<stop offset="0.9998" stop-color="#FF867E"/>
</linearGradient>
</defs>
</svg>
