<svg width="16" height="16" viewBox="0 0 16 16" fill="none" xmlns="http://www.w3.org/2000/svg">
<path d="M7.5 6.5C6.66901 6.5 6 7.16901 6 8V12C6 12.831 6.66901 13.5 7.5 13.5H11.5C12.331 13.5 13 12.831 13 12V11.66C13 11.4912 13.1766 11.3807 13.3283 11.4544L15.3535 12.4375C15.6407 12.6149 16.0002 12.3915 16 12.0371V7.96094C16.0003 7.70154 15.7993 7.49273 15.5567 7.5C15.485 7.50222 15.4154 7.52414 15.3535 7.5625L13.3283 8.54565C13.1766 8.61935 13 8.50878 13 8.34002V8C13 7.16901 12.331 6.5 11.5 6.5H7.5Z" fill="url(#paint0_linear_129_52)"/>
<path d="M4.5 2.5C3.66901 2.5 3 3.16901 3 4V4.34002C3 4.50878 2.82341 4.61935 2.6716 4.54565L0.64648 3.5625C0.584538 3.52414 0.514926 3.50222 0.44336 3.5C0.200686 3.49273 -0.00028655 3.70154 3.06703e-07 3.96094V8.03711C-0.000208836 8.39157 0.35928 8.61488 0.64648 8.4375L2.6716 7.45435C2.82341 7.38065 3 7.49122 3 7.65998V8C3 8.83099 3.66901 9.5 4.5 9.5H4.77143C4.89767 9.5 5 9.39767 5 9.27143V8C5 6.6323 6.1323 5.5 7.5 5.5H9.77143C9.89767 5.5 10 5.39767 10 5.27143V4C10 3.16901 9.331 2.5 8.5 2.5H4.5Z" fill="url(#paint1_linear_129_52)"/>
<defs>
<linearGradient id="paint0_linear_129_52" x1="7.875" y1="12.625" x2="11.7468" y2="5.98769" gradientUnits="userSpaceOnUse">
<stop stop-color="#FF405B"/>
<stop offset="1" stop-color="#FF8860"/>
</linearGradient>
<linearGradient id="paint1_linear_129_52" x1="2.85603" y1="9.49985" x2="11.8015" y2="4.34433" gradientUnits="userSpaceOnUse">
<stop stop-color="#FF8860"/>
<stop offset="1" stop-color="white"/>
</linearGradient>
</defs>
</svg>
