<svg width="22" height="22" viewBox="0 0 22 22" fill="none" xmlns="http://www.w3.org/2000/svg">
<path d="M15.2295 14.2819L16.4136 13.1165C16.5986 12.9344 16.9205 13.0619 16.9205 13.3241V18.6192C16.9205 19.5842 16.125 20.3672 15.1445 20.3672H2.11982C1.13928 20.3672 0.34375 19.5842 0.34375 18.6192V5.8002C0.34375 4.83515 1.13928 4.05216 2.11982 4.05216H12.2398C12.5025 4.05216 12.6357 4.36539 12.4507 4.55111L11.2667 5.7165C11.2111 5.77108 11.1372 5.8002 11.0558 5.8002H2.11982V18.6192H15.1445V14.4858C15.1445 14.4093 15.174 14.3364 15.2295 14.2819ZM21.024 6.93282L11.3073 16.496L7.96238 16.8602C6.99297 16.9658 6.1678 16.161 6.27509 15.1996L6.64513 11.9075L16.3618 2.34423C17.2091 1.51026 18.5781 1.51026 19.4218 2.34423L21.0203 3.91748C21.8676 4.75142 21.8676 6.10249 21.024 6.93282ZM17.3682 8.05812L15.2184 5.94227L8.3435 12.7123L8.07338 15.0903L10.4896 14.8245L17.3682 8.05812ZM19.7659 5.15563L18.1674 3.58243C18.0158 3.43307 17.7678 3.43307 17.6198 3.58243L16.4765 4.70773L18.6263 6.82354L19.7696 5.69824C19.9176 5.54534 19.9176 5.30496 19.7659 5.15563Z" fill="url(#paint0_linear_451_3351)" stroke="url(#paint1_linear_451_3351)" stroke-width="0.6"/>
<defs>
<linearGradient id="paint0_linear_451_3351" x1="0.346875" y1="10.7666" x2="21.6598" y2="10.7666" gradientUnits="userSpaceOnUse">
<stop stop-color="#A93AFF"/>
<stop offset="1" stop-color="#FF81FF"/>
</linearGradient>
<linearGradient id="paint1_linear_451_3351" x1="0.346875" y1="10.7666" x2="21.6598" y2="10.7666" gradientUnits="userSpaceOnUse">
<stop stop-color="#A93AFF"/>
<stop offset="1" stop-color="#FF81FF"/>
</linearGradient>
</defs>
</svg>
