<svg width="22" height="22" viewBox="0 0 22 22" fill="none" xmlns="http://www.w3.org/2000/svg">
<path d="M10.7708 1.375C10.1327 1.375 9.52062 1.62851 9.06936 2.07977C8.6181 2.53103 8.36458 3.14307 8.36458 3.78125C8.36565 4.16404 8.45802 4.54106 8.63404 4.88097C6.94387 5.34813 5.45337 6.35629 4.39069 7.75114C3.32801 9.14598 2.75171 10.8506 2.75 12.6042C2.75 14.7315 3.59505 16.7716 5.09924 18.2758C6.60345 19.7799 8.64358 20.625 10.7708 20.625C11.8241 20.625 12.8671 20.4175 13.8403 20.0145C14.8134 19.6113 15.6976 19.0205 16.4424 18.2758C17.1872 17.531 17.7781 16.6467 18.1811 15.6736C18.5842 14.7005 18.7917 13.6575 18.7917 12.6042C18.7891 10.8374 18.2034 9.12337 17.1292 7.7265C17.0431 7.61453 17.0504 7.45548 17.1502 7.35551L18.4877 6.01517C18.4973 6.00601 18.5068 5.99661 18.5159 5.98698L18.5222 5.98385C18.6068 5.90873 18.6746 5.81659 18.7209 5.71346C18.7674 5.61032 18.7914 5.49853 18.7917 5.38542C18.7917 5.1727 18.7072 4.96867 18.5567 4.81826C18.4063 4.66784 18.2023 4.58333 17.9895 4.58333C17.8765 4.58351 17.7647 4.60761 17.6616 4.65404C17.5592 4.70018 17.4675 4.76729 17.3927 4.85107L17.3895 4.85118H17.3865L16.0164 6.22123C15.9165 6.32122 15.7572 6.32866 15.6452 6.24242C14.8314 5.61624 13.9043 5.15166 12.9139 4.87472V4.87158C13.0863 4.53394 13.1765 4.16035 13.1771 3.78125C13.1771 3.14307 12.9236 2.53103 12.4723 2.07977C12.021 1.62851 11.409 1.375 10.7708 1.375ZM10.7708 2.97917C10.9836 2.97917 11.1876 3.06366 11.338 3.21409C11.4884 3.36451 11.5729 3.56852 11.5729 3.78125C11.5729 3.99398 11.4884 4.19799 11.338 4.34841C11.1876 4.49882 10.9836 4.58333 10.7708 4.58333C10.5581 4.58333 10.3541 4.49882 10.2037 4.34841C10.0533 4.19799 9.96875 3.99398 9.96875 3.78125C9.96875 3.56852 10.0533 3.36451 10.2037 3.21409C10.3541 3.06366 10.5581 2.97917 10.7708 2.97917ZM10.7708 6.1875C12.4726 6.1875 14.1048 6.86353 15.3082 8.06689C16.5114 9.27025 17.1875 10.9024 17.1875 12.6042C17.1875 14.3059 16.5114 15.938 15.3082 17.1414C14.1048 18.3448 12.4726 19.0208 10.7708 19.0208C9.06903 19.0208 7.43692 18.3448 6.23356 17.1414C5.0302 15.938 4.35417 14.3059 4.35417 12.6042C4.35417 10.9024 5.0302 9.27025 6.23356 8.06689C7.43692 6.86353 9.06903 6.1875 10.7708 6.1875ZM11.0457 7.79952C10.8941 7.79085 10.7708 7.91479 10.7708 8.06667V10.725C10.7708 10.8769 10.8948 10.9976 11.0445 11.0235C11.3684 11.0796 11.6696 11.2343 11.9051 11.4699C12.1407 11.7054 12.2954 12.0066 12.3515 12.3305C12.3774 12.4802 12.4981 12.6042 12.65 12.6042H15.3083C15.4602 12.6042 15.5841 12.4809 15.5755 12.3293C15.5082 11.1531 15.0113 10.0387 14.1738 9.20121C13.3363 8.36371 12.2219 7.86676 11.0457 7.79952Z" fill="url(#paint0_linear_451_3337)" stroke="url(#paint1_linear_451_3337)" stroke-width="0.4"/>
<defs>
<linearGradient id="paint0_linear_451_3337" x1="10.7708" y1="20.625" x2="10.7708" y2="1.375" gradientUnits="userSpaceOnUse">
<stop stop-color="#A93AFF"/>
<stop offset="1" stop-color="#FF81FF"/>
</linearGradient>
<linearGradient id="paint1_linear_451_3337" x1="10.7708" y1="20.625" x2="10.7708" y2="1.375" gradientUnits="userSpaceOnUse">
<stop stop-color="#A93AFF"/>
<stop offset="1" stop-color="#FF81FF"/>
</linearGradient>
</defs>
</svg>
