<svg width="22" height="22" viewBox="0 0 22 22" fill="none" xmlns="http://www.w3.org/2000/svg">
<path d="M20.6054 13.3567C20.5491 14.0894 20.3612 14.8059 20.0509 15.472C19.9156 15.7611 19.6709 15.9846 19.3708 16.0933C19.0706 16.202 18.7396 16.1871 18.4505 16.0517C18.1614 15.9164 17.9379 15.6717 17.8291 15.3716C17.7204 15.0714 17.7354 14.7404 17.8707 14.4513C18.0586 14.0469 18.1719 13.612 18.2053 13.1674C18.286 12.1108 17.9587 11.0634 17.2908 10.2407C16.6229 9.41803 15.6651 8.88253 14.6145 8.74441C14.3526 8.70963 14.1095 8.58966 13.9226 8.40304C13.7357 8.21641 13.6154 7.97345 13.5802 7.71169C13.5083 7.17059 13.3295 6.64922 13.0539 6.17801C12.7784 5.70683 12.4117 5.29526 11.9753 4.96739C11.5316 4.63317 11.0258 4.39089 10.4873 4.25477C9.94881 4.11864 9.38857 4.09138 8.83939 4.1746C8.00302 4.30045 7.2269 4.68476 6.61984 5.27371C6.01277 5.86266 5.60509 6.62671 5.45397 7.45893C5.27722 8.3577 5.40599 9.28977 5.81986 10.1069C6.06812 10.572 6.12205 11.1164 5.96984 11.6211C5.81766 12.1258 5.47174 12.5496 5.00782 12.7999C4.55434 13.026 4.19203 13.4007 3.98121 13.8615C3.77039 14.3223 3.72378 14.8414 3.84911 15.3323C4.00362 15.8187 4.31238 16.2414 4.72866 16.5364C5.14494 16.8315 5.64606 16.9829 6.15608 16.9677H8.18703C8.50627 16.9677 8.81241 17.0945 9.03812 17.3202C9.26386 17.546 9.39067 17.8521 9.39067 18.1713C9.39067 18.4906 9.26386 18.7967 9.03812 19.0224C8.81241 19.2481 8.50627 19.375 8.18703 19.375H6.15608C5.11228 19.3953 4.09114 19.0693 3.25228 18.4478C2.41342 17.8262 1.80414 16.9443 1.51966 15.9398C1.27721 14.9933 1.34073 13.9943 1.70112 13.0861C2.06151 12.1779 2.70024 11.4072 3.52574 10.8845C2.93765 9.56288 2.80602 8.08318 3.15159 6.67851C3.49718 5.27385 4.30028 4.02411 5.43441 3.12618C6.56851 2.22826 7.96916 1.73322 9.41566 1.71906C10.8621 1.7049 12.2722 2.17243 13.4237 3.04798C14.5717 3.91902 15.4026 5.14229 15.7892 6.53053C17.2614 6.92931 18.5481 7.82952 19.4274 9.07576C20.3067 10.322 20.7233 11.8361 20.6054 13.3567ZM16.2619 16.1653H15.0076V12.5543C15.0076 12.2351 14.8808 11.9289 14.6551 11.7032C14.4294 11.4775 14.1232 11.3507 13.804 11.3507C13.4848 11.3507 13.1787 11.4775 12.9529 11.7032C12.7272 11.9289 12.6004 12.2351 12.6004 12.5543V16.1653H11.3462C11.1924 16.1651 11.0421 16.2106 10.9142 16.2959C10.7863 16.3812 10.6866 16.5026 10.6278 16.6446C10.5689 16.7867 10.5535 16.943 10.5836 17.0938C10.6136 17.2446 10.6877 17.383 10.7965 17.4917L13.2543 19.9495C13.3264 20.0219 13.4121 20.0793 13.5064 20.1185C13.6007 20.1576 13.7019 20.1778 13.804 20.1778C13.9062 20.1778 14.0073 20.1576 14.1016 20.1185C14.1959 20.0793 14.2816 20.0219 14.3537 19.9495L16.8115 17.4917C16.9203 17.383 16.9944 17.2446 17.0245 17.0938C17.0545 16.943 17.0391 16.7867 16.9803 16.6446C16.9214 16.5026 16.8217 16.3812 16.6938 16.2959C16.5659 16.2106 16.4156 16.1651 16.2619 16.1653Z" fill="url(#paint0_linear_451_3335)"/>
<defs>
<linearGradient id="paint0_linear_451_3335" x1="11" y1="20.1777" x2="11" y2="1.71875" gradientUnits="userSpaceOnUse">
<stop stop-color="#02AA93"/>
<stop offset="1" stop-color="#67FF80"/>
</linearGradient>
</defs>
</svg>
