<svg width="22" height="22" viewBox="0 0 22 22" fill="none" xmlns="http://www.w3.org/2000/svg">
<path fill-rule="evenodd" clip-rule="evenodd" d="M15.7933 6.55445C17.2216 6.95179 18.4755 7.81643 19.3546 9.0102C19.8789 9.72166 20.253 10.5324 20.4541 11.393C20.6552 12.2536 20.6791 13.1461 20.5244 14.0163C20.3711 14.8916 20.038 15.7257 19.546 16.4658C19.0541 17.2059 18.414 17.8359 17.6661 18.316C17.4815 18.4305 17.2695 18.4933 17.0523 18.4979C16.8351 18.5026 16.6206 18.4489 16.4312 18.3424C16.2418 18.236 16.0844 18.0807 15.9755 17.8927C15.8665 17.7048 15.81 17.491 15.8117 17.2737C15.8112 17.0743 15.8603 16.8778 15.9546 16.702C16.049 16.5262 16.1856 16.3766 16.3521 16.2668C16.8186 15.9703 17.2191 15.5811 17.5288 15.1233C17.8386 14.6656 18.051 14.149 18.1528 13.6058C18.2513 13.0545 18.2367 12.4889 18.1099 11.9434C17.9831 11.3979 17.7467 10.8838 17.4152 10.4325C17.0828 9.98178 16.6634 9.60231 16.1819 9.31642C15.7003 9.03055 15.1664 8.8441 14.6115 8.76806C14.3489 8.73159 14.1056 8.6098 13.919 8.42146C13.7324 8.23316 13.6129 7.98872 13.5788 7.72578C13.4274 6.62836 12.8467 5.63588 11.9641 4.96619C11.2448 4.42155 10.3666 4.12809 9.46433 4.13077C9.12313 4.13136 8.78312 4.17089 8.45092 4.24865C7.75022 4.41812 7.10679 4.76981 6.58584 5.26811C6.06485 5.76637 5.6849 6.39354 5.48446 7.08599C5.30221 7.70491 5.26604 8.35766 5.37886 8.99288C5.49172 9.62813 5.75042 10.2285 6.13467 10.7468C6.25206 10.905 6.32875 11.0897 6.35803 11.2846C6.38729 11.4795 6.36821 11.6785 6.30248 11.8643C6.23676 12.0501 6.12642 12.2168 5.98111 12.3499C5.83581 12.4831 5.66002 12.5784 5.46923 12.6277C5.18155 12.7021 4.91153 12.833 4.67483 13.0126C4.43812 13.1922 4.2394 13.417 4.09025 13.674C3.94109 13.9311 3.84443 14.2151 3.8059 14.5098C3.76736 14.8044 3.78771 15.1038 3.86574 15.3905C4.01466 15.875 4.31826 16.2975 4.73003 16.5931C5.14185 16.8888 5.63915 17.0414 6.14591 17.0276H8.19514C8.5141 17.0276 8.82001 17.1543 9.04554 17.3799C9.27108 17.6054 9.39778 17.9113 9.39778 18.2302C9.39778 18.5492 9.27108 18.8551 9.04554 19.0806C8.82001 19.3062 8.5141 19.4329 8.19514 19.4329H6.14591C5.10218 19.4531 4.08155 19.1245 3.24567 18.4991C2.40977 17.8738 1.80639 16.9875 1.53106 15.9806C1.28061 15.04 1.33263 14.0445 1.67973 13.1351C2.02683 12.2258 2.6514 11.4488 3.46486 10.9143C3.07554 10.0307 2.88629 9.07191 2.91067 8.10662C2.93504 7.1413 3.17243 6.19331 3.60587 5.33043C4.0393 4.46755 4.65805 3.71112 5.41788 3.11524C6.1777 2.51936 7.0598 2.09875 8.00112 1.88349C9.65167 1.50654 11.384 1.78209 12.8362 2.65256C14.2883 3.52302 15.3478 4.92106 15.7933 6.55445ZM13.1363 14.7531V19.1627C13.1363 19.4817 13.0096 19.7876 12.784 20.0131C12.5585 20.2386 12.2526 20.3653 11.9337 20.3653C11.6147 20.3653 11.3088 20.2386 11.0833 20.0131C10.8578 19.7876 10.731 19.4817 10.731 19.1627V14.7531H9.39775C9.23921 14.7531 9.08421 14.706 8.95242 14.6179C8.82059 14.5298 8.71784 14.4046 8.65721 14.2582C8.59653 14.1117 8.58065 13.9505 8.61156 13.795C8.64249 13.6395 8.71881 13.4967 8.8309 13.3845L11.3668 10.8486C11.5172 10.6983 11.721 10.6139 11.9337 10.6139C12.1462 10.6139 12.3501 10.6983 12.5005 10.8486L15.0364 13.3845C15.1485 13.4967 15.2248 13.6395 15.2557 13.795C15.2867 13.9505 15.2708 14.1117 15.2101 14.2582C15.1494 14.4046 15.0467 14.5298 14.9149 14.6179C14.7831 14.706 14.6281 14.7531 14.4696 14.7531H13.1363Z" fill="url(#paint0_linear_451_3333)"/>
<defs>
<linearGradient id="paint0_linear_451_3333" x1="11" y1="20.3653" x2="11" y2="1.71875" gradientUnits="userSpaceOnUse">
<stop stop-color="#5570FF"/>
<stop offset="1" stop-color="#4DD3FF"/>
</linearGradient>
</defs>
</svg>
