<svg width="16" height="16" viewBox="0 0 16 16" fill="none" xmlns="http://www.w3.org/2000/svg">
<path fill-rule="evenodd" clip-rule="evenodd" d="M2.79949 2C2.21749 2 1.65949 2.231 1.24749 2.643C0.835492 3.055 0.604492 3.613 0.604492 4.195C0.604492 6.358 0.604492 9.642 0.604492 11.805C0.604492 12.387 0.835492 12.945 1.24749 13.357C1.65949 13.769 2.21749 14 2.79949 14C4.46449 14 6.74449 14 8.40949 14C8.99149 14 9.54949 13.769 9.96149 13.357C10.3735 12.945 10.6045 12.387 10.6045 11.805V4C10.6045 2 8.60449 2 8.60449 2H2.79949Z" fill="url(#paint0_linear_345_669)"/>
<path opacity="0.5" fill-rule="evenodd" clip-rule="evenodd" d="M11.0695 2C11.0695 2 13.0695 2 13.0695 4V11.805C13.0695 12.387 12.8385 12.945 12.4275 13.357C12.0155 13.769 11.4575 14 10.8745 14H9.52051C10.1025 14 10.6615 13.769 11.0725 13.357C11.4845 12.945 11.7155 12.387 11.7155 11.805V4C11.7155 2 9.71551 2 9.71551 2H11.0695ZM13.3955 2C13.3955 2 15.3955 2 15.3955 4V11.805C15.3955 12.387 15.1645 12.945 14.7525 13.357C14.3405 13.769 13.7825 14 13.2005 14H11.8465C12.4285 14 12.9865 13.769 13.3985 13.357C13.8095 12.945 14.0415 12.387 14.0415 11.805V4C14.0415 2 12.0415 2 12.0415 2H13.3955Z" fill="url(#paint1_linear_345_669)"/>
<defs>
<linearGradient id="paint0_linear_345_669" x1="10.6045" y1="14" x2="0.763275" y2="5.70711" gradientUnits="userSpaceOnUse">
<stop stop-color="#731FFF"/>
<stop offset="0.905415" stop-color="#EB1AFF"/>
</linearGradient>
<linearGradient id="paint1_linear_345_669" x1="15.3955" y1="14" x2="7.45452" y2="10.0687" gradientUnits="userSpaceOnUse">
<stop stop-color="#731FFF"/>
<stop offset="0.905415" stop-color="#EB1AFF"/>
</linearGradient>
</defs>
</svg>
