<svg width="22" height="22" viewBox="0 0 22 22" fill="none" xmlns="http://www.w3.org/2000/svg">
<path d="M7.7 1.375C5.87753 1.375 4.4 2.81149 4.4 4.58333V7.79167V9.39583C4.4 9.83883 4.03063 10.1979 3.575 10.1979H3.4375C3.05781 10.1979 2.75 10.5057 2.75 10.8854V11.1146C2.75 11.4943 3.05781 11.8021 3.4375 11.8021H3.575C4.03063 11.8021 4.4 12.1612 4.4 12.6042V14.2083V15.8125V17.4167C4.4 19.1887 5.87746 20.625 7.7 20.625H8.6625C9.04219 20.625 9.35 20.3171 9.35 19.9375V19.7083C9.35 19.3286 9.04219 19.0208 8.6625 19.0208H7.7C6.78873 19.0208 6.05 18.3026 6.05 17.4167V15.8125V14.2083V12.6042C6.05 12.2137 5.95695 11.8428 5.78908 11.5151C5.62672 11.1982 5.62672 10.8018 5.78908 10.4849C5.95695 10.1572 6.05 9.78626 6.05 9.39583V7.79167V7.34049V4.58333C6.05 3.69735 6.78883 2.97917 7.7 2.97917H8.6625C9.04219 2.97917 9.35 2.67136 9.35 2.29167V2.0625C9.35 1.68281 9.04219 1.375 8.6625 1.375H7.7ZM13.3375 1.375C12.9578 1.375 12.65 1.68281 12.65 2.0625V2.29167C12.65 2.67136 12.9578 2.97917 13.3375 2.97917H14.3C15.2112 2.97917 15.95 3.69735 15.95 4.58333V7.34049V7.79167V9.39583C15.95 9.78626 16.0431 10.1572 16.211 10.4849C16.3732 10.8018 16.3732 11.1982 16.211 11.5151C16.0431 11.8428 15.95 12.2137 15.95 12.6042V14.2083V15.8125V17.4167C15.95 18.3026 15.2112 19.0208 14.3 19.0208H13.3375C12.9578 19.0208 12.65 19.3286 12.65 19.7083V19.9375C12.65 20.3171 12.9578 20.625 13.3375 20.625H14.3C16.1226 20.625 17.6 19.1887 17.6 17.4167V15.8125V14.2083V12.6042C17.6 12.1612 17.9693 11.8021 18.425 11.8021H18.5625C18.9421 11.8021 19.25 11.4943 19.25 11.1146V10.8854C19.25 10.5057 18.9421 10.1979 18.5625 10.1979H18.425C17.9693 10.1979 17.6 9.83883 17.6 9.39583V7.79167V4.58333C17.6 2.81149 16.1224 1.375 14.3 1.375H13.3375Z" fill="url(#paint0_linear_451_3326)" stroke="url(#paint1_linear_451_3326)" stroke-width="0.6"/>
<defs>
<linearGradient id="paint0_linear_451_3326" x1="19.25" y1="11.1689" x2="6.80053" y2="12.3615" gradientUnits="userSpaceOnUse">
<stop stop-color="#BE41B4"/>
<stop offset="1" stop-color="#FE1FE8"/>
</linearGradient>
<linearGradient id="paint1_linear_451_3326" x1="19.25" y1="11.1689" x2="6.80053" y2="12.3615" gradientUnits="userSpaceOnUse">
<stop stop-color="#BE41B4"/>
<stop offset="1" stop-color="#FE1FE8"/>
</linearGradient>
</defs>
</svg>
