<svg width="22" height="22" viewBox="0 0 22 22" fill="none" xmlns="http://www.w3.org/2000/svg">
<path fill-rule="evenodd" clip-rule="evenodd" d="M2.66849 10.0775C3.49552 10.9046 4.61686 11.3697 5.78646 11.371C6.95606 11.3697 8.07737 10.9046 8.90443 10.0775C9.73142 9.25052 10.1967 8.12914 10.1979 6.95956C10.1979 6.31147 10.0006 5.16048 8.29214 2.67563C8.00931 2.2738 7.634 1.94588 7.19778 1.71952C6.76165 1.49316 6.27746 1.375 5.78606 1.375C5.29466 1.375 4.81046 1.49316 4.3743 1.71952C3.93814 1.94588 3.5628 2.2738 3.27995 2.67563C1.57231 5.16048 1.375 6.31147 1.375 6.95956C1.37627 8.12914 1.84146 9.25052 2.66849 10.0775ZM5.48978 3.83556C5.58124 3.78766 5.68322 3.76335 5.78646 3.76485C5.8895 3.76333 5.9913 3.78754 6.08261 3.8353C6.17394 3.88306 6.25189 3.95286 6.30941 4.03837C7.74998 6.13501 7.79164 6.87933 7.79164 6.95956C7.79164 7.49134 7.58038 8.0014 7.20438 8.37746C6.82831 8.75353 6.31827 8.96479 5.78646 8.96479C5.25464 8.96479 4.74461 8.75353 4.36856 8.37746C3.99251 8.0014 3.78125 7.49134 3.78125 6.95956C3.78125 6.88174 3.82296 6.13501 5.2627 4.03917C5.32025 3.95345 5.39831 3.88346 5.48978 3.83556ZM11.0426 18.9621C12.0952 20.0146 13.5222 20.6068 15.0107 20.6087C16.4991 20.6068 17.9262 20.0146 18.9786 18.9621C20.0311 17.9096 20.6233 16.4826 20.6252 14.9941C20.6252 13.4485 19.443 11.3206 17.1121 8.66972C16.8477 8.37375 16.5239 8.13698 16.1616 7.97493C15.7994 7.81282 15.4071 7.72901 15.0103 7.72901C14.6134 7.72901 14.2211 7.81282 13.8588 7.97493C13.4967 8.13698 13.1728 8.37375 12.9084 8.66972C10.5784 11.3206 9.39606 13.4485 9.39606 14.9941C9.39799 16.4826 9.99013 17.9096 11.0426 18.9621ZM14.8485 10.1606C14.8994 10.1375 14.9548 10.1258 15.0107 10.1263C15.0666 10.1262 15.1219 10.1382 15.1727 10.1617C15.2236 10.185 15.2687 10.2192 15.305 10.2618C17.4538 12.7018 18.219 14.3067 18.219 14.9941C18.219 15.845 17.881 16.6611 17.2793 17.2628C16.6776 17.8644 15.8615 18.2025 15.0107 18.2025C14.1598 18.2025 13.3437 17.8644 12.742 17.2628C12.1404 16.6611 11.8023 15.845 11.8023 14.9941C11.8023 14.3067 12.5675 12.7018 14.7155 10.2594C14.7522 10.2173 14.7975 10.1835 14.8485 10.1606Z" fill="url(#paint0_linear_451_3310)"/>
<defs>
<linearGradient id="paint0_linear_451_3310" x1="11.0001" y1="20.6087" x2="11.0001" y2="1.375" gradientUnits="userSpaceOnUse">
<stop stop-color="#5570FF"/>
<stop offset="1" stop-color="#4DD3FF"/>
</linearGradient>
</defs>
</svg>
