<svg width="22" height="22" viewBox="0 0 22 22" fill="none" xmlns="http://www.w3.org/2000/svg">
<path d="M18.3153 1.375C17.7028 1.3751 17.1152 1.61853 16.6821 2.05176L14.0882 4.64562C13.8198 4.91411 13.3845 4.91411 13.116 4.64562L12.6415 4.17113C12.373 3.90265 11.9377 3.90265 11.6693 4.17113L11.1015 4.73887C10.833 5.00735 10.833 5.44265 11.1015 5.71113L11.1248 5.73445C11.3933 6.00293 11.3933 6.43823 11.1248 6.70673L4.54262 13.2889C3.97023 13.8614 3.68539 14.6174 3.68539 15.3733V16.4902C3.68539 16.6726 3.61295 16.8475 3.48402 16.9763L1.86152 18.5988C1.59304 18.8673 1.59304 19.3027 1.86152 19.5712L2.42926 20.1388C2.69774 20.4073 3.13304 20.4073 3.40152 20.1388L5.02402 18.5163C5.15295 18.3875 5.32782 18.315 5.51016 18.315H6.62703C7.38304 18.315 8.13905 18.0301 8.71144 17.4578L15.2936 10.8755C15.562 10.6071 15.9974 10.6071 16.2659 10.8755L16.2891 10.8989C16.5577 11.1674 16.993 11.1674 17.2615 10.8989L17.8291 10.3311C18.0977 10.0626 18.0977 9.62735 17.8291 9.35887L17.3548 8.88438C17.0862 8.61589 17.0862 8.18059 17.3548 7.91211L19.9486 5.31824C20.3818 4.8851 20.6252 4.29762 20.6253 3.685V2.915C20.6253 2.06448 19.9359 1.375 19.0853 1.375H18.3153ZM12.2137 7.79555C12.4822 7.52707 12.9175 7.52707 13.1859 7.79555L14.2048 8.81445C14.4733 9.08293 14.4733 9.51823 14.2048 9.78673L10.4979 13.4936C10.369 13.6226 10.1941 13.695 10.0118 13.695H7.97398C7.36149 13.695 7.05476 12.9545 7.48785 12.5214L12.2137 7.79555Z" fill="url(#paint0_linear_451_3314)"/>
<defs>
<linearGradient id="paint0_linear_451_3314" x1="11.1428" y1="20.3402" x2="11.1428" y2="1.375" gradientUnits="userSpaceOnUse">
<stop stop-color="#A5A5A5"/>
<stop offset="0.9973" stop-color="#DCDCDC"/>
</linearGradient>
</defs>
</svg>
