<svg width="16" height="16" viewBox="0 0 16 16" fill="none" xmlns="http://www.w3.org/2000/svg">
<path d="M9.65549 7.70214L7.72417 11.3295C7.62913 11.508 7.58161 11.5972 7.52915 11.6832C7.43303 11.8406 7.32434 11.99 7.20414 12.1299C7.13853 12.2063 7.06824 12.279 6.92768 12.4244C5.67698 13.7179 5.05164 14.3646 4.67074 14.4593C3.95593 14.637 3.22869 14.2171 3.02518 13.5092C2.91674 13.132 3.16416 12.2671 3.65901 10.5372C3.71463 10.3428 3.74244 10.2456 3.77577 10.1506C3.83685 9.9765 3.91189 9.80766 4.00018 9.64571C4.04837 9.5573 4.10191 9.47152 4.20897 9.29997L6.38466 5.81373M4.24321 2.79841C4.58021 2.37124 5.14114 2.18879 5.66495 2.33597L6.3513 2.52882C6.73823 2.63754 6.9317 2.69189 7.12723 2.68996C7.20692 2.68917 7.28639 2.68142 7.36474 2.6668C7.55696 2.63093 7.73794 2.53938 8.09991 2.35628C9.39743 1.69993 10.0462 1.37175 10.5833 1.5465C10.738 1.5968 10.8824 1.67426 11.0099 1.77524C11.4526 2.12601 11.5373 2.84101 11.7068 4.271L11.7404 4.55456C11.7869 4.94733 11.8102 5.14371 11.8853 5.32197C11.9062 5.37157 11.93 5.41989 11.9566 5.46669C12.0522 5.63487 12.1937 5.773 12.4767 6.04926L13.0272 6.58656C13.4166 6.96661 13.539 7.54361 13.3376 8.04905C13.0336 8.81167 12.124 9.1273 11.413 8.71682L4.62719 4.79904C3.91622 4.38856 3.73473 3.44294 4.24321 2.79841Z" stroke="url(#paint0_linear_547_913)" stroke-width="1.8"/>
<defs>
<linearGradient id="paint0_linear_547_913" x1="12.6291" y1="1.73402" x2="0.979034" y2="11.4246" gradientUnits="userSpaceOnUse">
<stop stop-color="#FFC700"/>
<stop offset="0.551952" stop-color="#FF49AB"/>
<stop offset="1" stop-color="#BA49FF"/>
</linearGradient>
</defs>
</svg>
