<svg width="22" height="22" viewBox="0 0 22 22" fill="none" xmlns="http://www.w3.org/2000/svg">
<path d="M2.0625 1.375C1.68281 1.375 1.375 1.68281 1.375 2.0625V19.9375C1.375 20.3171 1.68281 20.625 2.0625 20.625H19.9375C20.3171 20.625 20.625 20.3171 20.625 19.9375V2.0625C20.625 1.68281 20.3171 1.375 19.9375 1.375H2.0625ZM2.97917 3.66667C2.97917 3.28697 3.28697 2.97917 3.66667 2.97917H18.3333C18.7131 2.97917 19.0208 3.28697 19.0208 3.66667V18.3333C19.0208 18.7131 18.7131 19.0208 18.3333 19.0208H3.66667C3.28697 19.0208 2.97917 18.7131 2.97917 18.3333V3.66667ZM5.27083 6.1875C4.89114 6.1875 4.58333 6.49531 4.58333 6.875V8.70833C4.58333 9.08804 4.89114 9.39583 5.27083 9.39583H7.10417C7.48386 9.39583 7.79167 9.08804 7.79167 8.70833V6.875C7.79167 6.49531 7.48386 6.1875 7.10417 6.1875H5.27083ZM14.8958 6.1875C14.5161 6.1875 14.2083 6.49531 14.2083 6.875V8.70833C14.2083 9.08804 14.5161 9.39583 14.8958 9.39583H16.7292C17.1089 9.39583 17.4167 9.08804 17.4167 8.70833V6.875C17.4167 6.49531 17.1089 6.1875 16.7292 6.1875H14.8958ZM8.47917 12.6042C8.09946 12.6042 7.79167 12.912 7.79167 13.2917V13.5208C7.79167 13.9006 8.09946 14.2083 8.47917 14.2083H13.5208C13.9006 14.2083 14.2083 13.9006 14.2083 13.5208V13.2917C14.2083 12.912 13.9006 12.6042 13.5208 12.6042H8.47917ZM14.8958 14.2083C14.5161 14.2083 14.2083 14.5161 14.2083 14.8958V15.125C14.2083 15.5046 14.5161 15.8125 14.8958 15.8125H15.125C15.5046 15.8125 15.8125 15.5046 15.8125 15.125V14.8958C15.8125 14.5161 15.5046 14.2083 15.125 14.2083H14.8958ZM16.5 15.8125C16.1204 15.8125 15.8125 16.1204 15.8125 16.5V16.7292C15.8125 17.1089 16.1204 17.4167 16.5 17.4167H16.7292C17.1089 17.4167 17.4167 17.1089 17.4167 16.7292V16.5C17.4167 16.1204 17.1089 15.8125 16.7292 15.8125H16.5ZM7.79167 14.8958C7.79167 14.5161 7.48386 14.2083 7.10417 14.2083H6.875C6.49531 14.2083 6.1875 14.5161 6.1875 14.8958V15.125C6.1875 15.5046 6.49531 15.8125 6.875 15.8125H7.10417C7.48386 15.8125 7.79167 15.5046 7.79167 15.125V14.8958ZM6.1875 16.5C6.1875 16.1204 5.87969 15.8125 5.5 15.8125H5.27083C4.89114 15.8125 4.58333 16.1204 4.58333 16.5V16.7292C4.58333 17.1089 4.89114 17.4167 5.27083 17.4167H5.5C5.87969 17.4167 6.1875 17.1089 6.1875 16.7292V16.5Z" fill="url(#paint0_linear_451_3304)" stroke="url(#paint1_linear_451_3304)" stroke-width="0.6"/>
<defs>
<linearGradient id="paint0_linear_451_3304" x1="1.37218" y1="10.7148" x2="20.6207" y2="10.7148" gradientUnits="userSpaceOnUse">
<stop stop-color="#FD3A84"/>
<stop offset="1" stop-color="#FFA68D"/>
</linearGradient>
<linearGradient id="paint1_linear_451_3304" x1="1.37218" y1="10.7148" x2="20.6207" y2="10.7148" gradientUnits="userSpaceOnUse">
<stop stop-color="#FD3A84"/>
<stop offset="1" stop-color="#FFA68D"/>
</linearGradient>
</defs>
</svg>
