<svg width="22" height="22" viewBox="0 0 22 22" fill="none" xmlns="http://www.w3.org/2000/svg">
<path fill-rule="evenodd" clip-rule="evenodd" d="M5.29262 1.89062C3.03405 1.89062 1.20312 3.72154 1.20312 5.98012C1.20312 8.24017 3.03442 10.0696 5.29262 10.0696C7.55085 10.0696 9.38211 8.24017 9.38211 5.98012C9.38211 3.72154 7.55119 1.89062 5.29262 1.89062ZM3.95312 5.98012C3.95312 5.24033 4.55283 4.64062 5.29262 4.64062C6.0324 4.64062 6.63211 5.24033 6.63211 5.98012C6.63211 6.72066 6.03278 7.31961 5.29262 7.31961C4.55245 7.31961 3.95312 6.72066 3.95312 5.98012ZM11.571 5.98008C11.571 5.22067 12.1866 4.60508 12.946 4.60508H19.7655C20.5249 4.60508 21.1405 5.22067 21.1405 5.98008C21.1405 6.73946 20.5249 7.35508 19.7655 7.35508H12.946C12.1866 7.35508 11.571 6.73946 11.571 5.98008ZM15.7113 15.9995C15.7113 15.259 16.3106 14.66 17.0508 14.66C17.791 14.66 18.3903 15.259 18.3903 15.9995C18.3903 16.7393 17.7906 17.339 17.0508 17.339C16.311 17.339 15.7113 16.7393 15.7113 15.9995ZM17.0508 11.91C14.7926 11.91 12.9613 13.7394 12.9613 15.9995C12.9613 18.258 14.7922 20.089 17.0508 20.089C19.3094 20.089 21.1403 18.258 21.1403 15.9995C21.1403 13.7394 19.309 11.91 17.0508 11.91ZM2.57863 14.6245C1.81924 14.6245 1.20363 15.2401 1.20363 15.9995C1.20363 16.7589 1.81924 17.3745 2.57863 17.3745H9.39702C10.1564 17.3745 10.772 16.7589 10.772 15.9995C10.772 15.2401 10.1564 14.6245 9.39702 14.6245H2.57863Z" fill="url(#paint0_linear_451_3300)" stroke="url(#paint1_linear_451_3300)"/>
<defs>
<linearGradient id="paint0_linear_451_3300" x1="10.3198" y1="19.4376" x2="12.1628" y2="3.26186" gradientUnits="userSpaceOnUse">
<stop stop-color="#8D01A2"/>
<stop offset="1" stop-color="#FF33DB"/>
</linearGradient>
<linearGradient id="paint1_linear_451_3300" x1="10.3198" y1="19.4376" x2="12.1628" y2="3.26186" gradientUnits="userSpaceOnUse">
<stop stop-color="#8D01A2"/>
<stop offset="1" stop-color="#FF33DB"/>
</linearGradient>
</defs>
</svg>
