<svg width="24" height="24" viewBox="0 0 24 24" fill="none" xmlns="http://www.w3.org/2000/svg">
<path d="M21.8421 12.8788H14.8947C14.5877 12.8788 14.2931 12.7568 14.076 12.5397C13.8589 12.3226 13.7368 12.028 13.7368 11.721C13.7368 11.4139 13.8589 11.1193 14.076 10.9022C14.2931 10.6851 14.5877 10.5631 14.8947 10.5631H21.8421C22.1492 10.5631 22.4437 10.6851 22.6609 10.9022C22.878 11.1193 23 11.4139 23 11.721C23 12.028 22.878 12.3226 22.6609 12.5397C22.4437 12.7568 22.1492 12.8788 21.8421 12.8788ZM18.3684 16.3525C18.0613 16.3525 17.7668 16.2305 17.5497 16.0134C17.3326 15.7963 17.2105 15.5017 17.2105 15.1946V8.24726C17.2105 7.94016 17.3326 7.64565 17.5497 7.4285C17.7668 7.21136 18.0613 7.08936 18.3684 7.08936C18.6755 7.08936 18.9701 7.21136 19.1872 7.4285C19.4043 7.64565 19.5263 7.94016 19.5263 8.24726V15.1946C19.5263 15.5017 19.4043 15.7963 19.1872 16.0134C18.9701 16.2305 18.6755 16.3525 18.3684 16.3525ZM7.94737 14.0367C3.60526 14.0367 1 16.3525 1 18.6683C1 19.8262 3.60526 20.9841 7.94737 20.9841C12.0208 20.9841 14.8947 19.8262 14.8947 18.6683C14.8947 16.3525 12.1691 14.0367 7.94737 14.0367Z" fill="url(#paint0_linear_202_118)"/>
<path opacity="0.4" d="M3 7.3003C3 4.5383 5.23601 2.30029 8.00002 2.30029C10.764 2.30029 13 4.5383 13 7.3003C13 10.0623 10.764 12.3002 8.00002 12.3002C5.23601 12.3002 3 10.0623 3 7.3003Z" fill="url(#paint1_linear_202_118)"/>
<defs>
<linearGradient id="paint0_linear_202_118" x1="12" y1="20.9841" x2="12" y2="1.29993" gradientUnits="userSpaceOnUse">
<stop stop-color="#02AA93"/>
<stop offset="1" stop-color="#67FF80"/>
</linearGradient>
<linearGradient id="paint1_linear_202_118" x1="11.5001" y1="19.3003" x2="11.5001" y2="2.30029" gradientUnits="userSpaceOnUse">
<stop stop-color="#02AA93"/>
<stop offset="1" stop-color="#67FF80"/>
</linearGradient>
</defs>
</svg>
