<svg width="22" height="22" viewBox="0 0 22 22" fill="none" xmlns="http://www.w3.org/2000/svg">
<path d="M6.625 5C3.51837 5 1 7.51837 1 10.625C1 13.7316 3.51837 16.25 6.625 16.25C8.66497 16.2469 10.5141 15.144 11.501 13.4163C11.801 12.8911 12.3245 12.4995 12.9293 12.4988L14.7493 12.4966C15.4397 12.4958 16 13.0553 16 13.7459C16 14.4359 16.5593 14.9951 17.2493 14.9951H18.5C19.1903 14.9951 19.75 14.4354 19.75 13.7451V13.1152C19.75 12.7704 20.0303 12.4913 20.375 12.4927C20.7197 12.494 21 12.2149 21 11.8701V10.1745C21 9.38517 20.36 8.74546 19.5707 8.74589L12.9311 8.74946C12.3255 8.74979 11.8007 8.35794 11.5001 7.8321C10.513 6.10521 8.66434 5.00289 6.625 5ZM6.625 8.75C7.66054 8.75 8.5 9.58946 8.5 10.625C8.5 11.6605 7.66054 12.5 6.625 12.5C5.58946 12.5 4.75 11.6605 4.75 10.625C4.75 9.58946 5.58946 8.75 6.625 8.75Z" fill="url(#paint0_linear_451_2557)"/>
<defs>
<linearGradient id="paint0_linear_451_2557" x1="4.625" y1="14.9219" x2="13.9511" y2="0.455698" gradientUnits="userSpaceOnUse">
<stop stop-color="#FE0844"/>
<stop offset="1" stop-color="#FEB302"/>
</linearGradient>
</defs>
</svg>
