<svg width="22" height="22" viewBox="0 0 22 22" fill="none" xmlns="http://www.w3.org/2000/svg">
<path d="M17.4167 1.375H4.58333C2.81142 1.375 1.375 2.81142 1.375 4.58333V17.4167C1.375 19.1885 2.81142 20.625 4.58333 20.625H17.4167C19.1885 20.625 20.625 19.1885 20.625 17.4167V4.58333C20.625 2.81142 19.1885 1.375 17.4167 1.375Z" fill="url(#paint0_linear_451_3275)"/>
<path d="M7.33782 5.06953C7.06934 4.80104 6.63404 4.80104 6.36556 5.06953L5.06954 6.36555C4.80105 6.63403 4.80104 7.06933 5.06954 7.33781L8.24563 10.5139C8.51412 10.7824 8.51412 11.2177 8.24563 11.4862L5.06954 14.6623C4.80104 14.9307 4.80104 15.366 5.06954 15.6346L6.36556 16.9306C6.63404 17.199 7.06934 17.199 7.33782 16.9306L10.5139 13.7545C10.7824 13.486 11.2177 13.486 11.4862 13.7545L14.6624 16.9306C14.9308 17.199 15.3661 17.199 15.6346 16.9306L16.9306 15.6346C17.1991 15.366 17.1991 14.9307 16.9306 14.6623L13.7544 11.4862C13.486 11.2177 13.486 10.7824 13.7544 10.5139L16.9306 7.33781C17.1991 7.06933 17.1991 6.63403 16.9306 6.36555L15.6346 5.06953C15.3661 4.80104 14.9308 4.80104 14.6624 5.06953L11.4862 8.24562C11.2177 8.51411 10.7824 8.51411 10.5139 8.24562L7.33782 5.06953Z" fill="white"/>
<defs>
<linearGradient id="paint0_linear_451_3275" x1="11" y1="20.625" x2="11" y2="1.375" gradientUnits="userSpaceOnUse">
<stop stop-color="#FF1B71"/>
<stop offset="0.9998" stop-color="#FF867E"/>
<stop offset="0.9999" stop-color="#FF6678"/>
</linearGradient>
</defs>
</svg>
