<svg width="22" height="22" viewBox="0 0 22 22" fill="none" xmlns="http://www.w3.org/2000/svg">
<g clip-path="url(#clip0_451_3269)">
<path d="M11.0003 0.916504C5.42699 0.916504 0.916992 5.4265 0.916992 10.9998C0.916992 16.5732 5.42699 21.0832 11.0003 21.0832C16.5737 21.0832 21.0837 16.5732 21.0837 10.9998C21.0837 5.4265 16.5737 0.916504 11.0003 0.916504Z" fill="url(#paint0_linear_451_3269)"/>
<path d="M12.8337 13.6675C12.2837 13.475 11.917 12.9525 11.917 12.375C11.917 11.7975 12.2837 11.275 12.8337 11.0825V5.5H9.16699V8.3325C9.36261 8.39861 9.54081 8.50792 9.68839 8.65233C9.83598 8.79675 9.94918 8.97254 10.0195 9.16667C10.2578 9.9 9.88199 10.67 9.16699 10.9175V16.5H12.8337V13.6675Z" fill="white"/>
</g>
<defs>
<linearGradient id="paint0_linear_451_3269" x1="11.0003" y1="21.0832" x2="11.0003" y2="0.916504" gradientUnits="userSpaceOnUse">
<stop stop-color="#00B59C"/>
<stop offset="1" stop-color="#9CFFAC"/>
</linearGradient>
<clipPath id="clip0_451_3269">
<rect width="22" height="22" fill="white"/>
</clipPath>
</defs>
</svg>
