<svg width="24" height="24" viewBox="0 0 24 24" fill="none" xmlns="http://www.w3.org/2000/svg">
<path d="M4.35722 13.8879L15.7707 6.85593C16.0264 6.69926 16.3536 6.71426 16.593 6.89926C17.6773 7.73431 18.6461 8.58102 19.2925 9.29272C19.2925 9.29272 19.8493 9.86275 20.0903 10.2244C20.4794 10.7178 20.6667 11.3628 20.6667 11.9895C20.6667 12.6929 20.4615 13.3579 20.0528 13.8896C19.96 13.9846 19.6067 14.403 19.2729 14.7446C17.3256 16.8714 12.2425 20.3849 9.56902 21.45C9.17988 21.6216 8.14111 21.98 7.60218 22C7.08279 22 6.58131 21.8867 6.09937 21.6383C5.50672 21.2966 5.04269 20.7666 4.78218 20.1382C4.61448 19.7016 4.3556 18.3915 4.3556 18.3532C4.18789 17.4181 4.06252 16.1047 4.00065 14.5713C3.98926 14.2963 4.12765 14.0296 4.35722 13.8879Z" fill="url(#paint0_linear_73_2373)"/>
<path opacity="0.4" d="M5.12054 10.1004C4.61744 10.412 3.98408 10.0137 4.0085 9.41537C4.06874 8.01196 4.17294 6.77523 4.29994 5.85519C4.31948 5.83519 4.57836 4.20344 4.87632 3.65174C5.3957 2.62669 6.41494 2 7.51071 2H7.60188C8.30851 2.01833 9.81132 2.64503 9.81132 2.68336C10.5684 2.99838 11.5567 3.53174 12.6199 4.17344C13.0986 4.46345 13.11 5.17515 12.6313 5.47017L5.12054 10.1004Z" fill="url(#paint1_linear_73_2373)"/>
<defs>
<linearGradient id="paint0_linear_73_2373" x1="4.10566" y1="6.79373" x2="19.0406" y2="23.2515" gradientUnits="userSpaceOnUse">
<stop stop-color="#FE7970"/>
<stop offset="1" stop-color="#DC3282"/>
</linearGradient>
<linearGradient id="paint1_linear_73_2373" x1="4.06472" y1="2.02432" x2="12.103" y2="10.8881" gradientUnits="userSpaceOnUse">
<stop stop-color="#FE7970"/>
<stop offset="1" stop-color="#DC3282"/>
</linearGradient>
</defs>
</svg>
