<svg width="16" height="16" viewBox="0 0 16 16" fill="none" xmlns="http://www.w3.org/2000/svg">
<g clip-path="url(#clip0_161_106)">
<path fill-rule="evenodd" clip-rule="evenodd" d="M1 13C0.448 13 0 12.552 0 12V3.992C0 1.787 1.787 0 3.992 0C6.357 0 9.643 0 12.008 0C13.067 0 14.082 0.421001 14.831 1.169C15.579 1.918 16 2.933 16 3.992C16 6.357 16 9.643 16 12.008C16 14.213 14.213 16 12.008 16C8.751 16 4 16 4 16C3.448 16 3 15.552 3 15C3 13.896 2.104 13 1 13ZM1 14C1.552 14 2 14.448 2 15C2 15.552 1.552 16 1 16C0.448 16 0 15.552 0 15C0 14.448 0.448 14 1 14Z" fill="url(#paint0_linear_161_106)"/>
<path d="M6.83279 6.12014C6.83279 6.37939 6.72985 6.62792 6.54655 6.81122C6.36325 6.99451 6.11464 7.09746 5.85547 7.09746H1.97732C1.71815 7.09746 1.46954 6.99451 1.28624 6.81122C1.10294 6.62792 1 6.37939 1 6.12014C1 5.86098 1.10294 5.61236 1.28624 5.42906C1.46954 5.24586 1.71815 5.14282 1.97732 5.14282H5.85547C6.11464 5.14282 6.36325 5.24586 6.54655 5.42906C6.72985 5.61236 6.83279 5.86098 6.83279 6.12014Z" fill="#7FD1AE"/>
<path d="M7.97561 4.97732C7.97561 5.23657 7.87267 5.4851 7.68937 5.6684C7.50607 5.85169 7.25746 5.95464 6.99829 5.95464H3.12014C2.86098 5.95464 2.61236 5.85169 2.42906 5.6684C2.24577 5.4851 2.14282 5.23657 2.14282 4.97732C2.14282 4.71815 2.24577 4.46954 2.42906 4.28624C2.61236 4.10303 2.86098 4 3.12014 4H6.99829C7.25746 4 7.50607 4.10303 7.68937 4.28624C7.87267 4.46954 7.97561 4.71815 7.97561 4.97732Z" fill="url(#paint1_linear_161_106)"/>
<path fill-rule="evenodd" clip-rule="evenodd" d="M10.1527 14.7267C10.0765 14.7759 9.99041 14.8032 9.90236 14.8061C9.83121 14.8085 9.76037 14.7948 9.69401 14.766C9.62766 14.7372 9.56717 14.6938 9.51613 14.6384C9.46508 14.583 9.42449 14.5167 9.3968 14.4435C9.36906 14.3703 9.35481 14.2916 9.35484 14.2121V14.1728C9.35484 13.8813 9.11852 13.645 8.82698 13.645L5.58064 13.645C5.25994 13.645 5 13.385 5 13.0643V10.7418C5 10.4211 5.25994 10.1611 5.58064 10.1611H8.82698C9.11852 10.1611 9.35484 9.92476 9.35484 9.63325V9.59403C9.35484 9.48976 9.37941 9.38732 9.42607 9.29701C9.47276 9.20672 9.53993 9.13171 9.62077 9.07956C9.70167 9.02743 9.79338 8.99995 9.88674 8.99995C9.98014 8.99993 10.0719 9.02738 10.1527 9.0795L11.9433 10.2345L13.7339 11.3889C13.8148 11.441 13.882 11.516 13.9287 11.6063C13.9754 11.6966 14 11.7991 14 11.9034C14 12.0077 13.9754 12.1102 13.9287 12.2005C13.882 12.2908 13.8148 12.3658 13.7339 12.4179L11.9433 13.5723L10.1527 14.7267Z" fill="#7FD1AE"/>
<path fill-rule="evenodd" clip-rule="evenodd" d="M11.1527 13.7267C11.0765 13.7759 10.9904 13.8032 10.9024 13.8061C10.8312 13.8085 10.7604 13.7948 10.694 13.766C10.6277 13.7372 10.5672 13.6938 10.5161 13.6384C10.4651 13.583 10.4245 13.5167 10.3968 13.4435C10.3691 13.3703 10.3548 13.2916 10.3548 13.2121V13.1728C10.3548 12.8813 10.1185 12.645 9.82698 12.645L6.58064 12.645C6.25994 12.645 6 12.385 6 12.0643V9.74176C6 9.42106 6.25994 9.16111 6.58064 9.16111H9.82698C10.1185 9.16111 10.3548 8.92476 10.3548 8.63325V8.59403C10.3548 8.48976 10.3794 8.38732 10.4261 8.29701C10.4728 8.20672 10.5399 8.13171 10.6208 8.07956C10.7017 8.02743 10.7934 7.99995 10.8867 7.99995C10.9801 7.99993 11.0719 8.02738 11.1527 8.0795L12.9433 9.23446L14.7339 10.3889C14.8148 10.441 14.882 10.516 14.9287 10.6063C14.9754 10.6966 15 10.7991 15 10.9034C15 11.0077 14.9754 11.1102 14.9287 11.2005C14.882 11.2908 14.8148 11.3658 14.7339 11.4179L12.9433 12.5723L11.1527 13.7267Z" fill="url(#paint2_linear_161_106)"/>
</g>
<defs>
<linearGradient id="paint0_linear_161_106" x1="2" y1="14.0004" x2="16.972" y2="10.5455" gradientUnits="userSpaceOnUse">
<stop stop-color="#62E8AF"/>
<stop offset="1" stop-color="#B3FBDC"/>
</linearGradient>
<linearGradient id="paint1_linear_161_106" x1="2.14282" y1="5.95464" x2="2.34609" y2="3.52837" gradientUnits="userSpaceOnUse">
<stop stop-color="#B3FBDC"/>
<stop offset="1" stop-color="white"/>
</linearGradient>
<linearGradient id="paint2_linear_161_106" x1="6" y1="13.8064" x2="15.7813" y2="10.0161" gradientUnits="userSpaceOnUse">
<stop stop-color="#B3FBDC"/>
<stop offset="1" stop-color="white"/>
</linearGradient>
<clipPath id="clip0_161_106">
<rect width="16" height="16" fill="white"/>
</clipPath>
</defs>
</svg>
