<svg width="16" height="16" viewBox="0 0 16 16" fill="none" xmlns="http://www.w3.org/2000/svg">
<path fill-rule="evenodd" clip-rule="evenodd" d="M10.7243 11.857C10.8911 12.0239 10.8911 12.2944 10.7243 12.4612L9.8936 13.2919C9.58096 13.6045 9.58096 14.112 9.8936 14.4246C10.2062 14.7373 10.7137 14.7373 11.0264 14.4246L11.857 13.5939C12.0239 13.4271 12.2944 13.4271 12.4612 13.5939L13.2919 14.4246C13.6045 14.7373 14.112 14.7373 14.4246 14.4246C14.7373 14.112 14.7373 13.6045 14.4246 13.2919L13.5939 12.4612C13.4271 12.2944 13.4271 12.0239 13.5939 11.857L14.4246 11.0264C14.7373 10.7137 14.7373 10.2062 14.4246 9.8936C14.112 9.58096 13.6045 9.58096 13.2919 9.8936L12.4612 10.7243C12.2944 10.8911 12.0239 10.8911 11.857 10.7243L11.0264 9.8936C10.7137 9.58096 10.2062 9.58096 9.8936 9.8936C9.58096 10.2062 9.58096 10.7137 9.8936 11.0264L10.7243 11.857Z" fill="url(#paint0_linear_161_115)"/>
<path d="M1.4 1C1.17909 1 1 1.17909 1 1.4V14.6C1 14.8209 1.17909 15 1.4 15H8.76667C8.98758 15 9.16667 14.8209 9.16667 14.6V14.2333C9.16667 14.0124 8.98758 13.8333 8.76667 13.8333H7.23333C7.01242 13.8333 6.83333 13.6542 6.83333 13.4333V9.56667C6.83333 9.34575 7.01242 9.16667 7.23333 9.16667H8.76667C8.98758 9.16667 9.16667 8.98758 9.16667 8.76667V8H7.23333C7.01242 8 6.83333 7.82091 6.83333 7.6V6.06667C6.83333 5.84575 7.01242 5.66667 7.23333 5.66667H8.76667C8.98758 5.66667 9.16667 5.84575 9.16667 6.06667V8H9.93333C10.1542 8 10.3333 7.82091 10.3333 7.6V6.06667C10.3333 5.84575 10.5124 5.66667 10.7333 5.66667H13.4333C13.6542 5.66667 13.8333 5.84575 13.8333 6.06667V8.76667C13.8333 8.98758 14.0124 9.16667 14.2333 9.16667H14.6C14.8209 9.16667 15 8.98758 15 8.76667V1.4C15 1.17909 14.8209 1 14.6 1H1.4ZM2.16667 2.56667C2.16667 2.34575 2.34575 2.16667 2.56667 2.16667H5.26667C5.48758 2.16667 5.66667 2.34575 5.66667 2.56667V4.1C5.66667 4.32091 5.48758 4.5 5.26667 4.5H2.56667C2.34575 4.5 2.16667 4.32091 2.16667 4.1V2.56667ZM6.83333 2.56667C6.83333 2.34575 7.01242 2.16667 7.23333 2.16667H8.76667C8.98758 2.16667 9.16667 2.34575 9.16667 2.56667V4.1C9.16667 4.32091 8.98758 4.5 8.76667 4.5H7.23333C7.01242 4.5 6.83333 4.32091 6.83333 4.1V2.56667ZM10.3333 2.56667C10.3333 2.34575 10.5124 2.16667 10.7333 2.16667H13.4333C13.6542 2.16667 13.8333 2.34575 13.8333 2.56667V4.1C13.8333 4.32091 13.6542 4.5 13.4333 4.5H10.7333C10.5124 4.5 10.3333 4.32091 10.3333 4.1V2.56667ZM2.16667 6.06667C2.16667 5.84575 2.34575 5.66667 2.56667 5.66667H5.26667C5.48758 5.66667 5.66667 5.84575 5.66667 6.06667V8.76667C5.66667 8.98758 5.48758 9.16667 5.26667 9.16667H2.56667C2.34575 9.16667 2.16667 8.98758 2.16667 8.76667V6.06667ZM2.16667 10.7333C2.16667 10.5124 2.34575 10.3333 2.56667 10.3333H5.26667C5.48758 10.3333 5.66667 10.5124 5.66667 10.7333V13.4333C5.66667 13.6542 5.48758 13.8333 5.26667 13.8333H2.56667C2.34575 13.8333 2.16667 13.6542 2.16667 13.4333V10.7333Z" fill="url(#paint1_linear_161_115)"/>
<path d="M2.16669 2.56669C2.16669 2.34577 2.34577 2.16669 2.56669 2.16669H5.26669C5.4876 2.16669 5.66669 2.34577 5.66669 2.56669V4.10002C5.66669 4.32093 5.4876 4.50002 5.26669 4.50002H2.56669C2.34577 4.50002 2.16669 4.32093 2.16669 4.10002V2.56669Z" fill="url(#paint2_linear_161_115)"/>
<defs>
<linearGradient id="paint0_linear_161_115" x1="10.5966" y1="14.0341" x2="13.7216" y2="10.2841" gradientUnits="userSpaceOnUse">
<stop stop-color="#FF405B"/>
<stop offset="1" stop-color="#FF8860"/>
</linearGradient>
<linearGradient id="paint1_linear_161_115" x1="2.4" y1="15.0044" x2="7.45636" y2="-0.166609" gradientUnits="userSpaceOnUse">
<stop stop-color="#22B4FA"/>
<stop offset="1" stop-color="#6BD6FE"/>
</linearGradient>
<linearGradient id="paint2_linear_161_115" x1="2.16669" y1="4.50002" x2="6.0023" y2="3.06166" gradientUnits="userSpaceOnUse">
<stop stop-color="#6BD6FE"/>
<stop offset="1" stop-color="white"/>
</linearGradient>
</defs>
</svg>
