<svg width="22" height="22" viewBox="0 0 22 22" fill="none" xmlns="http://www.w3.org/2000/svg">
<path fill-rule="evenodd" clip-rule="evenodd" d="M12.375 6.24976C12.375 5.94601 12.6212 5.69976 12.925 5.69976H13.1874C13.6193 5.69976 13.8827 5.22459 13.6538 4.85826L11.6383 1.6335C11.4229 1.28883 10.9209 1.28883 10.7055 1.6335L8.69 4.85826C8.46105 5.22459 8.7244 5.69976 9.1564 5.69976H9.41875C9.7225 5.69976 9.96875 5.94601 9.96875 6.24976V11.1654C9.96875 11.4692 9.7225 11.7154 9.41875 11.7154H6.90938C6.60562 11.7154 6.35938 11.4692 6.35938 11.1654V10.5074C6.35938 10.3109 6.46737 10.1333 6.62313 10.0135C6.70526 9.9503 6.78366 9.88155 6.85773 9.80749C7.30899 9.35623 7.5625 8.74419 7.5625 8.10601C7.5625 7.46783 7.30899 6.85579 6.85773 6.40453C6.40647 5.95328 5.79443 5.69976 5.15625 5.69976C4.51807 5.69976 3.90603 5.95328 3.45477 6.40453C3.00351 6.85579 2.75 7.46783 2.75 8.10601C2.75 8.74419 3.00351 9.35623 3.45477 9.80749C3.52884 9.88155 3.60724 9.9503 3.68937 10.0135C3.84513 10.1333 3.95312 10.3109 3.95312 10.5074V11.7154C3.95312 11.7154 3.95312 14.1217 6.35938 14.1217H9.41875C9.7225 14.1217 9.96875 14.3679 9.96875 14.6717V15.3296C9.96875 15.5261 9.86076 15.7037 9.705 15.8235C9.62287 15.8868 9.54447 15.9555 9.47039 16.0295C9.01913 16.4807 8.76562 17.0929 8.76562 17.731C8.76562 18.3692 9.01913 18.9812 9.47039 19.4325C9.92166 19.8837 10.5337 20.1373 11.1719 20.1373C11.8101 20.1373 12.4221 19.8837 12.8734 19.4325C13.3246 18.9812 13.5781 18.3692 13.5781 17.731C13.5781 17.0929 13.3246 16.4807 12.8734 16.0295C12.7993 15.9555 12.7209 15.8868 12.6388 15.8235C12.483 15.7037 12.375 15.5261 12.375 15.3296V14.6717C12.375 14.3679 12.6212 14.1217 12.925 14.1217H15.9844C18.3906 14.1217 18.3906 11.7154 18.3906 11.7154V11.0623C18.3906 10.7585 18.6453 10.5133 18.9244 10.3934C19.246 10.2551 19.5938 9.95602 19.5938 9.30914V6.90289C19.5938 5.69976 18.3906 5.69976 18.3906 5.69976H15.9844C15.9844 5.69976 14.7812 5.69976 14.7812 6.90289V9.30914C14.7812 9.95602 15.129 10.2551 15.4506 10.3934C15.7297 10.5133 15.9844 10.7585 15.9844 11.0623V11.1654C15.9844 11.4692 15.7381 11.7154 15.4344 11.7154H12.925C12.6212 11.7154 12.375 11.4692 12.375 11.1654V6.24976Z" fill="url(#paint0_linear_451_3243)"/>
<defs>
<linearGradient id="paint0_linear_451_3243" x1="11.1719" y1="20.1373" x2="11.1719" y2="1.375" gradientUnits="userSpaceOnUse">
<stop stop-color="#FDA700"/>
<stop offset="1" stop-color="#FFDE00"/>
</linearGradient>
</defs>
</svg>
