<svg width="22" height="22" viewBox="0 0 22 22" fill="none" xmlns="http://www.w3.org/2000/svg">
<path fill-rule="evenodd" clip-rule="evenodd" d="M19.092 16.3423C18.0186 17.4167 16.2898 17.4167 12.833 17.4167C11.7 17.4167 10.4515 17.875 9.31209 18.4662L9.30742 18.4686C7.47903 19.4177 6.56446 19.8923 6.11384 19.5892C5.73766 19.3369 5.73456 18.6413 5.84336 17.3276L5.49967 17.3232C4.30801 17.2068 3.50592 16.9418 2.90734 16.3423C1.83301 15.2689 1.83301 13.5401 1.83301 10.0833C1.83301 6.62658 1.83301 4.89775 2.90734 3.82433C3.98076 2.75 5.70959 2.75 9.16634 2.75H12.833C16.2898 2.75 18.0186 2.75 19.092 3.82433C20.1663 4.89775 20.1663 6.62658 20.1663 10.0833C20.1663 13.5401 20.1663 15.2689 19.092 16.3423Z" fill="url(#paint0_linear_451_3202)"/>
<path d="M6.11449 19.5893L6.62618 18.8288L6.6251 18.828L6.11449 19.5893ZM5.84401 17.3277L6.75755 17.4034L6.83868 16.4236L5.85569 16.4112L5.84401 17.3277ZM5.50033 17.3233L5.4112 18.2357L5.44983 18.2394L5.48864 18.2399L5.50033 17.3233ZM2.90799 16.3425L3.55667 15.6948L3.55589 15.694L2.90799 16.3425ZM12.8337 18.3335C14.5361 18.3335 15.9053 18.3354 16.9791 18.191C18.0792 18.0431 19.0057 17.7265 19.7411 16.9904L18.4448 15.694C18.1068 16.0323 17.6316 16.2534 16.7347 16.374C15.8115 16.4982 14.588 16.5002 12.8337 16.5002V18.3335ZM12.8337 16.5002C11.4811 16.5002 10.0755 17.0379 8.89054 17.6528L9.73496 19.28C10.8288 18.7124 11.9202 18.3335 12.8337 18.3335V16.5002ZM8.89054 17.6528L8.88573 17.6553L9.73038 19.2824L9.73496 19.28L8.89054 17.6528ZM8.88573 17.6553C7.95046 18.1406 7.31837 18.4672 6.86281 18.6442C6.63693 18.7318 6.51476 18.7579 6.46071 18.763C6.41873 18.7669 6.50948 18.7502 6.62618 18.8288L5.60281 20.3499C5.94482 20.58 6.31886 20.6177 6.63224 20.5882C6.93353 20.5599 7.23879 20.4648 7.52642 20.3531C8.0979 20.1313 8.83724 19.746 9.73038 19.2824L8.88573 17.6553ZM6.6251 18.828C6.79537 18.9423 6.73802 19.0733 6.71015 18.7721C6.68441 18.4939 6.70248 18.0684 6.75755 17.4034L4.93047 17.2521C4.87675 17.9008 4.84196 18.4799 4.88462 18.941C4.92515 19.3791 5.05743 19.9841 5.60387 20.3506L6.6251 18.828ZM5.48864 18.2399L5.83233 18.2443L5.85569 16.4112L5.51201 16.4068L5.48864 18.2399ZM2.25931 16.9902C3.08023 17.8124 4.13877 18.1114 5.4112 18.2357L5.58945 16.411C4.47855 16.3024 3.93293 16.0716 3.55667 15.6948L2.25931 16.9902ZM0.916994 10.0835C0.916994 11.7859 0.915046 13.1552 1.05946 14.2289C1.20743 15.329 1.52399 16.2555 2.26009 16.9909L3.55589 15.694C3.21766 15.3561 2.99706 14.8814 2.87644 13.9846C2.75228 13.0614 2.75033 11.8378 2.75033 10.0835H0.916994ZM2.26008 3.17604C1.52399 3.91151 1.20743 4.83792 1.05946 5.93806C0.915046 7.01185 0.916994 8.38105 0.916994 10.0835H2.75033C2.75033 8.3292 2.75228 7.10561 2.87644 6.18244C2.99706 5.28562 3.21767 4.8109 3.5559 4.47296L2.26008 3.17604ZM9.16699 1.8335C7.46454 1.8335 6.09534 1.83154 5.02155 1.97597C3.92141 2.12393 2.99555 2.43995 2.26008 3.17604L3.5559 4.47296C3.89385 4.13472 4.36911 3.91356 5.26593 3.79295C6.18911 3.66878 7.4127 3.66683 9.16699 3.66683V1.8335ZM12.8337 1.8335H9.16699V3.66683H12.8337V1.8335ZM19.7411 3.1766C19.0057 2.4405 18.0792 2.12393 16.9791 1.97597C15.9053 1.83154 14.5361 1.8335 12.8337 1.8335V3.66683C14.588 3.66683 15.8115 3.66878 16.7347 3.79295C17.6316 3.91356 18.1062 4.13417 18.4442 4.4724L19.7411 3.1766ZM21.0837 10.0835C21.0837 8.38105 21.0856 7.01184 20.9412 5.93806C20.7933 4.83792 20.4772 3.91207 19.7411 3.1766L18.4442 4.4724C18.7825 4.81034 19.0036 5.28562 19.1242 6.18244C19.2484 7.10561 19.2503 8.3292 19.2503 10.0835H21.0837ZM19.7411 16.9904C20.4772 16.255 20.7933 15.329 20.9412 14.2289C21.0856 13.1552 21.0837 11.7859 21.0837 10.0835H19.2503C19.2503 11.8378 19.2484 13.0614 19.1242 13.9846C19.0036 14.8814 18.783 15.3561 18.4448 15.694L19.7411 16.9904Z" fill="url(#paint1_linear_451_3202)"/>
<path d="M10.0833 5.5C9.83024 5.5 9.625 5.70521 9.625 5.95833V10.2798C9.625 10.5329 9.83024 10.7381 10.0833 10.7381H11.9167C12.1698 10.7381 12.375 10.5329 12.375 10.2798V5.95833C12.375 5.70521 12.1698 5.5 11.9167 5.5H10.0833ZM10.0833 12.0477C9.83024 12.0477 9.625 12.2528 9.625 12.506V14.2083C9.625 14.4614 9.83024 14.6667 10.0833 14.6667H11.9167C12.1698 14.6667 12.375 14.4614 12.375 14.2083V12.506C12.375 12.2528 12.1698 12.0477 11.9167 12.0477H10.0833Z" fill="white"/>
<defs>
<linearGradient id="paint0_linear_451_3202" x1="10.9997" y1="19.6802" x2="10.9997" y2="2.75" gradientUnits="userSpaceOnUse">
<stop stop-color="#FD5900"/>
<stop offset="1" stop-color="#FFDE00"/>
</linearGradient>
<linearGradient id="paint1_linear_451_3202" x1="11.0003" y1="20.5969" x2="11.0003" y2="1.8335" gradientUnits="userSpaceOnUse">
<stop stop-color="#FD5900"/>
<stop offset="1" stop-color="#FFDE00"/>
</linearGradient>
</defs>
</svg>
