<svg width="24" height="24" viewBox="0 0 24 24" fill="none" xmlns="http://www.w3.org/2000/svg">
<path d="M4.2769 9.2535C2.0923 8.3801 1 7.9434 1 7.4C1 6.8566 2.0923 6.421 4.2769 5.5465L7.3657 4.3112C9.5503 3.4367 10.6437 3 12 3C13.3574 3 14.4497 3.4367 16.6343 4.3112L19.7231 5.5465C21.9077 6.4199 23 6.8566 23 7.4C23 7.9434 21.9077 8.379 19.7231 9.2535L16.6343 10.4888C14.4497 11.3644 13.3563 11.8 12 11.8C10.6426 11.8 9.5503 11.3633 7.3657 10.4899L4.278 9.2524L4.2769 9.2535Z" fill="url(#paint0_linear_8_1034)"/>
<path fill-rule="evenodd" clip-rule="evenodd" d="M1 7.4C1 7.9434 2.0923 8.379 4.2769 9.2535L7.3657 10.4888C9.5503 11.3644 10.6437 11.8 12 11.8C13.3574 11.8 14.4497 11.3633 16.6343 10.4899L19.7231 9.2535C21.9077 8.3801 23 7.9434 23 7.4C23 6.8566 21.9077 6.421 19.7231 5.5465L16.6343 4.3112C14.4497 3.4367 13.3563 3 12 3C10.6426 3 9.5503 3.4367 7.3657 4.3112L4.278 5.5465C2.0923 6.4199 1 6.8566 1 7.4Z" fill="url(#paint1_linear_8_1034)"/>
<path opacity="0.7" d="M5.1426 9.59998L4.2769 9.94648C2.0923 10.8199 1 11.2577 1 11.8C1 12.3423 2.0923 12.779 4.2769 13.6535L7.3657 14.8888C9.5503 15.7644 10.6437 16.2 12 16.2C13.3574 16.2 14.4497 15.7633 16.6343 14.8899L19.7231 13.6535C21.9077 12.7801 23 12.3423 23 11.8C23 11.2577 21.9077 10.821 19.7231 9.94648L18.8574 9.59998L16.6343 10.4899C14.4497 11.3633 13.3563 11.8 12 11.8C10.6426 11.8 9.5503 11.3633 7.3657 10.4899L5.1437 9.59998H5.1426Z" fill="url(#paint2_linear_8_1034)"/>
<path opacity="0.4" d="M5.1426 14L4.2769 14.3465C2.0923 15.2199 1 15.6577 1 16.2C1 16.7434 2.0923 17.179 4.2769 18.0535L7.3657 19.2888C9.5503 20.1644 10.6437 20.6 12 20.6C13.3574 20.6 14.4497 20.1633 16.6343 19.2888L19.7231 18.0535C21.9077 17.1801 23 16.7434 23 16.2C23 15.6577 21.9077 15.221 19.7231 14.3465L18.8574 14L16.6343 14.8899C14.4497 15.7633 13.3563 16.2 12 16.2C10.6426 16.2 9.5503 15.7633 7.3657 14.8899L5.1437 14H5.1426Z" fill="url(#paint3_linear_8_1034)"/>
<defs>
<linearGradient id="paint0_linear_8_1034" x1="5.07526" y1="1.35" x2="8.10762" y2="17.4045" gradientUnits="userSpaceOnUse">
<stop stop-color="#FFCA64"/>
<stop offset="1" stop-color="#C70000"/>
</linearGradient>
<linearGradient id="paint1_linear_8_1034" x1="5.07526" y1="1.35" x2="8.10762" y2="17.4045" gradientUnits="userSpaceOnUse">
<stop stop-color="#FFCA64"/>
<stop offset="1" stop-color="#C70000"/>
</linearGradient>
<linearGradient id="paint2_linear_8_1034" x1="5.07526" y1="8.36248" x2="6.80706" y2="20.5876" gradientUnits="userSpaceOnUse">
<stop stop-color="#FFCA64"/>
<stop offset="1" stop-color="#C70000"/>
</linearGradient>
<linearGradient id="paint3_linear_8_1034" x1="5.07526" y1="12.7625" x2="6.80706" y2="24.9876" gradientUnits="userSpaceOnUse">
<stop stop-color="#FFCA64"/>
<stop offset="1" stop-color="#C70000"/>
</linearGradient>
</defs>
</svg>
