<svg width="16" height="16" viewBox="0 0 16 16" fill="none" xmlns="http://www.w3.org/2000/svg">
<g clip-path="url(#clip0_488_572)">
<path d="M4.57355 3.76018C4.35229 3.52494 3.98171 3.51515 3.74834 3.73837C3.51835 3.95837 3.50803 4.32239 3.72518 4.55506L5.76286 6.73829C6.11989 7.12082 6.12166 7.7139 5.76693 8.09855L3.7407 10.2956C3.5335 10.5204 3.54054 10.8684 3.75665 11.0846C3.98392 11.3119 4.35411 11.3062 4.57432 11.0721L7.63548 7.81761C7.84217 7.59019 7.84217 7.24288 7.63548 7.01548L4.57355 3.76018ZM8.5834 10.4999C8.26122 10.4999 8.00006 10.761 8.00006 11.0831C8.00006 11.4054 8.26122 11.6666 8.5834 11.6666H12.0833C12.4056 11.6666 12.6668 11.4054 12.6668 11.0831C12.6668 10.761 12.4056 10.4999 12.0833 10.4999H8.5834Z" fill="url(#paint0_linear_488_572)" stroke="url(#paint1_linear_488_572)" stroke-width="0.6"/>
<rect x="1.3335" y="1.3335" width="13.3333" height="13.3333" rx="3.4" stroke="url(#paint2_linear_488_572)" stroke-width="1.5" stroke-linecap="round" stroke-linejoin="round"/>
</g>
<defs>
<linearGradient id="paint0_linear_488_572" x1="14.527" y1="1.40016" x2="9.0664" y2="15.1117" gradientUnits="userSpaceOnUse">
<stop stop-color="#FE0F7C"/>
<stop offset="1" stop-color="#DF0066"/>
</linearGradient>
<linearGradient id="paint1_linear_488_572" x1="14.527" y1="1.40016" x2="9.0664" y2="15.1117" gradientUnits="userSpaceOnUse">
<stop stop-color="#FE0F7C"/>
<stop offset="1" stop-color="#DF0066"/>
</linearGradient>
<linearGradient id="paint2_linear_488_572" x1="17.3931" y1="-2.25472" x2="7.62481" y2="19.5545" gradientUnits="userSpaceOnUse">
<stop stop-color="#FE0F7C"/>
<stop offset="1" stop-color="#DF0066"/>
</linearGradient>
<clipPath id="clip0_488_572">
<rect width="16" height="16" fill="white"/>
</clipPath>
</defs>
</svg>
