<svg width="22" height="22" viewBox="0 0 22 22" fill="none" xmlns="http://www.w3.org/2000/svg">
<path d="M13.2799 1.518C12.9864 1.43914 12.6846 1.61325 12.6059 1.90678L7.84318 19.6775C7.76458 19.9708 7.93849 20.2724 8.23171 20.3512L8.72029 20.4823C9.01377 20.5613 9.31559 20.3872 9.39426 20.0936L14.1569 2.32281C14.2356 2.02954 14.0617 1.72806 13.7685 1.64927L13.2799 1.518ZM7.04572 4.97328C6.82548 4.75905 6.47244 4.76681 6.26182 4.99049L1.89519 9.62787L1.7259 9.8094C1.52846 10.0211 1.52893 10.3496 1.72694 10.5608L1.89519 10.7401L6.23377 15.4012C6.44395 15.6269 6.7987 15.6357 7.01983 15.4207L7.37763 15.0727C7.59209 14.8641 7.60047 14.5223 7.39649 14.3035L3.91048 10.5629C3.71274 10.3507 3.71375 10.0214 3.91278 9.81045L7.42003 6.09293C7.62623 5.87436 7.61886 5.53076 7.40345 5.32124L7.04572 4.97328ZM15.7383 4.99049C15.5277 4.76681 15.1747 4.75905 14.9544 4.97328L14.5967 5.32124C14.3813 5.53076 14.3739 5.87436 14.5802 6.09293L18.0874 9.81045C18.2863 10.0214 18.2874 10.3507 18.0897 10.5629L14.6037 14.3035C14.3996 14.5223 14.408 14.8641 14.6225 15.0727L14.9803 15.4207C15.2014 15.6357 15.5563 15.6269 15.7664 15.4012L20.1049 10.7401L20.2732 10.5608C20.4712 10.3496 20.4718 10.0211 20.2743 9.8094L20.1049 9.62787L15.7383 4.99049Z" fill="url(#paint0_linear_451_3200)" stroke="url(#paint1_linear_451_3200)"/>
<defs>
<linearGradient id="paint0_linear_451_3200" x1="11.0001" y1="20.6252" x2="11.0001" y2="1.37519" gradientUnits="userSpaceOnUse">
<stop stop-color="#A93AFF"/>
<stop offset="1" stop-color="#FF81FF"/>
</linearGradient>
<linearGradient id="paint1_linear_451_3200" x1="11.0001" y1="20.6252" x2="11.0001" y2="1.37519" gradientUnits="userSpaceOnUse">
<stop stop-color="#A93AFF"/>
<stop offset="1" stop-color="#FF81FF"/>
</linearGradient>
</defs>
</svg>
