<svg width="16" height="16" viewBox="0 0 16 16" fill="none" xmlns="http://www.w3.org/2000/svg">
<path fill-rule="evenodd" clip-rule="evenodd" d="M15 13H1C0.448 13 0 13.448 0 14C0 14.552 0.448 15 1 15H15C15.552 15 16 14.552 16 14C16 13.448 15.552 13 15 13Z" fill="url(#paint0_linear_73_2497)"/>
<path d="M13.4 13H12.4V15H13.4V13Z" fill="#7FD1AE"/>
<path fill-rule="evenodd" clip-rule="evenodd" d="M11 10C11 8.896 11.896 8 13 8C13.438 7.664 13.521 7.036 13.185 6.598C12.088 5.168 9.94 4 8 4C4.689 4 2 6.689 2 10C2 10.552 2.448 11 3 11H10C10.552 11 11 10.552 11 10ZM13 11C13.552 11 14 10.552 14 10C14 9.448 13.552 9 13 9C12.448 9 12 9.448 12 10C12 10.552 12.448 11 13 11Z" fill="url(#paint1_linear_73_2497)"/>
<path fill-rule="evenodd" clip-rule="evenodd" d="M3.70699 3.29299L2.70699 2.29299C2.31699 1.90299 1.68299 1.90299 1.29299 2.29299C0.902988 2.68299 0.902988 3.31699 1.29299 3.70699L2.29299 4.70699C2.68299 5.09699 3.31699 5.09699 3.70699 4.70699C4.09699 4.31699 4.09699 3.68299 3.70699 3.29299Z" fill="url(#paint2_linear_73_2497)"/>
<path fill-rule="evenodd" clip-rule="evenodd" d="M13.707 4.70699L14.707 3.70699C15.097 3.31699 15.097 2.68299 14.707 2.29299C14.317 1.90299 13.683 1.90299 13.293 2.29299L12.293 3.29299C11.903 3.68299 11.903 4.31699 12.293 4.70699C12.683 5.09699 13.317 5.09699 13.707 4.70699Z" fill="url(#paint3_linear_73_2497)"/>
<path fill-rule="evenodd" clip-rule="evenodd" d="M9 2V1C9 0.448 8.552 0 8 0C7.448 0 7 0.448 7 1V2C7 2.552 7.448 3 8 3C8.552 3 9 2.552 9 2Z" fill="url(#paint4_linear_73_2497)"/>
<path fill-rule="evenodd" clip-rule="evenodd" d="M15 15V13C15 12.448 14.552 12 14 12C13.448 12 13 12.448 13 13V15C13 15.552 13.448 16 14 16C14.552 16 15 15.552 15 15Z" fill="url(#paint5_linear_73_2497)"/>
<defs>
<linearGradient id="paint0_linear_73_2497" x1="2" y1="14.7501" x2="5.57735" y2="8.14592" gradientUnits="userSpaceOnUse">
<stop stop-color="#62E8AF"/>
<stop offset="1" stop-color="#B3FBDC"/>
</linearGradient>
<linearGradient id="paint1_linear_73_2497" x1="3.5" y1="10.1252" x2="13.7265" y2="6.07965" gradientUnits="userSpaceOnUse">
<stop stop-color="#62E8AF"/>
<stop offset="1" stop-color="#B3FBDC"/>
</linearGradient>
<linearGradient id="paint2_linear_73_2497" x1="1.37536" y1="4.62469" x2="4.18167" y2="3.97711" gradientUnits="userSpaceOnUse">
<stop stop-color="#62E8AF"/>
<stop offset="1" stop-color="#B3FBDC"/>
</linearGradient>
<linearGradient id="paint3_linear_73_2497" x1="12.3754" y1="4.62469" x2="15.1817" y2="3.97711" gradientUnits="userSpaceOnUse">
<stop stop-color="#62E8AF"/>
<stop offset="1" stop-color="#B3FBDC"/>
</linearGradient>
<linearGradient id="paint4_linear_73_2497" x1="7.25" y1="2.62508" x2="9.17558" y2="2.32885" gradientUnits="userSpaceOnUse">
<stop stop-color="#62E8AF"/>
<stop offset="1" stop-color="#B3FBDC"/>
</linearGradient>
<linearGradient id="paint5_linear_73_2497" x1="13" y1="16" x2="15" y2="12" gradientUnits="userSpaceOnUse">
<stop stop-color="#B3FBDC"/>
<stop offset="1" stop-color="white"/>
</linearGradient>
</defs>
</svg>
