<svg width="16" height="16" viewBox="0 0 16 16" fill="none" xmlns="http://www.w3.org/2000/svg">
<path d="M2 1C1.44772 1 1 1.44772 1 2V14C1 14.5523 1.44772 15 2 15H14C14.5523 15 15 14.5523 15 14V2C15 1.44772 14.5523 1 14 1H2ZM2 3C2 2.44772 2.44772 2 3 2H13C13.5523 2 14 2.44772 14 3V13C14 13.5523 13.5523 14 13 14H3C2.44772 14 2 13.5523 2 13V3Z" fill="url(#paint0_linear_162_38)"/>
<path d="M4 6V4C4 3.44772 4.44772 3 5 3H11C11.5523 3 12 3.44772 12 4V6C12 6.55228 11.5523 7 11 7H5C4.44772 7 4 6.55228 4 6Z" fill="url(#paint1_linear_162_38)"/>
<path d="M4 12V10C4 9.44772 4.44772 9 5 9H11C11.5523 9 12 9.44772 12 10V12C12 12.5523 11.5523 13 11 13H5C4.44772 13 4 12.5523 4 12Z" fill="url(#paint2_linear_162_38)"/>
<defs>
<linearGradient id="paint0_linear_162_38" x1="3.625" y1="14.124" x2="12.3742" y2="3.62412" gradientUnits="userSpaceOnUse">
<stop stop-color="#FF8860"/>
<stop offset="1" stop-color="#FBD92C"/>
</linearGradient>
<linearGradient id="paint1_linear_162_38" x1="5.5" y1="12.3743" x2="11.8484" y2="6.27933" gradientUnits="userSpaceOnUse">
<stop stop-color="#FF8860"/>
<stop offset="1" stop-color="#FBD92C"/>
</linearGradient>
<linearGradient id="paint2_linear_162_38" x1="5.5" y1="12.3743" x2="11.8484" y2="6.27933" gradientUnits="userSpaceOnUse">
<stop stop-color="#FF8860"/>
<stop offset="1" stop-color="#FBD92C"/>
</linearGradient>
</defs>
</svg>
