<svg width="16" height="16" viewBox="0 0 16 16" fill="none" xmlns="http://www.w3.org/2000/svg">
<path d="M1 14C1 14.5523 1.44772 15 2 15H14C14.5523 15 15 14.5523 15 14V2C15 1.44772 14.5523 1 14 1H2C1.44772 1 1 1.44772 1 2V14ZM3 14C2.44772 14 2 13.5523 2 13V3C2 2.44772 2.44772 2 3 2H13C13.5523 2 14 2.44772 14 3V13C14 13.5523 13.5523 14 13 14H3Z" fill="url(#paint0_linear_162_38)"/>
<path d="M6 12H4C3.44772 12 3 11.5523 3 11V5C3 4.44772 3.44772 4 4 4H6C6.55228 4 7 4.44772 7 5V11C7 11.5523 6.55228 12 6 12Z" fill="url(#paint1_linear_162_38)"/>
<path d="M12 12H10C9.44772 12 9 11.5523 9 11V5C9 4.44772 9.44772 4 10 4H12C12.5523 4 13 4.44772 13 5V11C13 11.5523 12.5523 12 12 12Z" fill="url(#paint2_linear_162_38)"/>
<defs>
<linearGradient id="paint0_linear_162_38" x1="2.4" y1="15.0044" x2="7.45636" y2="-0.166609" gradientUnits="userSpaceOnUse">
<stop offset="0.190745" stop-color="#22B4FA"/>
<stop offset="0.896724" stop-color="#7DDCFF"/>
</linearGradient>
<linearGradient id="paint1_linear_162_38" x1="4" y1="12.0025" x2="6.39778" y2="3.0097" gradientUnits="userSpaceOnUse">
<stop offset="0.190745" stop-color="#22B4FA"/>
<stop offset="0.896724" stop-color="#7DDCFF"/>
</linearGradient>
<linearGradient id="paint2_linear_162_38" x1="4" y1="12.0025" x2="6.39778" y2="3.0097" gradientUnits="userSpaceOnUse">
<stop offset="0.190745" stop-color="#22B4FA"/>
<stop offset="0.896724" stop-color="#7DDCFF"/>
</linearGradient>
</defs>
</svg>
