<svg width="22" height="22" viewBox="0 0 22 22" fill="none" xmlns="http://www.w3.org/2000/svg">
<path d="M5.37172 19.1136C4.97129 19.1136 4.6467 18.789 4.6467 18.3886V3.37172C4.6467 2.97129 4.97129 2.6467 5.37172 2.6467H12.1551C12.5556 2.6467 12.8802 2.97129 12.8802 3.37172V6.86176C12.8802 7.26217 13.2048 7.58678 13.6052 7.58678H17.0953C17.4957 7.58678 17.8203 7.91139 17.8203 8.31181V11.8018C17.8203 12.2023 18.1448 12.5269 18.5453 12.5269H18.7419C19.1423 12.5269 19.467 12.2023 19.467 11.8018V6.2404C19.467 6.04811 19.3906 5.86369 19.2546 5.72772L14.7393 1.21236C14.6033 1.07639 14.4189 1 14.2265 1H3.72502C3.3246 1 3 1.32461 3 1.72502V20.0354C3 20.4356 3.3246 20.7604 3.72502 20.7604H10.5085C10.9089 20.7604 11.2335 20.4356 11.2335 20.0354V19.8387C11.2335 19.4382 10.9089 19.1136 10.5085 19.1136H5.37172Z" fill="url(#paint0_linear_451_3178)" stroke="url(#paint1_linear_451_3178)" stroke-width="0.6"/>
<path d="M14.5638 17.4667H10.311C9.91055 17.4667 9.58594 17.1422 9.58594 16.7417V16.5451C9.58594 16.1447 9.91055 15.82 10.311 15.82H14.5638C15.2098 15.82 15.5332 15.0392 15.0766 14.5824L14.1575 13.6633C13.8743 13.3801 13.8743 12.9211 14.1575 12.6379L14.2964 12.499C14.5796 12.2158 15.0386 12.2158 15.3218 12.499L18.9534 16.1308C19.2366 16.4138 19.2366 16.8728 18.9534 17.1561L15.3218 20.7877C15.0386 21.0709 14.5796 21.0709 14.2964 20.7877L14.1575 20.6487C13.8743 20.3657 13.8743 19.9066 14.1575 19.6235L15.0766 18.7045C15.5332 18.2477 15.2098 17.4667 14.5638 17.4667Z" fill="url(#paint2_linear_451_3178)" stroke="url(#paint3_linear_451_3178)" stroke-width="0.6"/>
<defs>
<linearGradient id="paint0_linear_451_3178" x1="11.4916" y1="21.4416" x2="11.4916" y2="0.318949" gradientUnits="userSpaceOnUse">
<stop stop-color="#00B59C"/>
<stop offset="1" stop-color="#9CFFAC"/>
</linearGradient>
<linearGradient id="paint1_linear_451_3178" x1="11.4916" y1="21.4416" x2="11.4916" y2="0.318949" gradientUnits="userSpaceOnUse">
<stop stop-color="#00B59C"/>
<stop offset="1" stop-color="#9CFFAC"/>
</linearGradient>
<linearGradient id="paint2_linear_451_3178" x1="14.5261" y1="21.3005" x2="14.5261" y2="11.9863" gradientUnits="userSpaceOnUse">
<stop stop-color="#00B59C"/>
<stop offset="1" stop-color="#9CFFAC"/>
</linearGradient>
<linearGradient id="paint3_linear_451_3178" x1="14.5261" y1="21.3005" x2="14.5261" y2="11.9863" gradientUnits="userSpaceOnUse">
<stop stop-color="#00B59C"/>
<stop offset="1" stop-color="#9CFFAC"/>
</linearGradient>
</defs>
</svg>
