<svg width="22" height="22" viewBox="0 0 22 22" fill="none" xmlns="http://www.w3.org/2000/svg">
<path d="M19.5938 7.69742V16.5859C19.5924 17.8391 19.094 19.0405 18.2079 19.9266C17.3217 20.8127 16.1203 21.3111 14.8672 21.3125H7.13281C5.87967 21.3111 4.67823 20.8127 3.79215 19.9266C2.90603 19.0405 2.40761 17.8391 2.40625 16.5859V5.41406C2.40761 4.16092 2.90603 2.95951 3.79215 2.0734C4.67823 1.1873 5.87967 0.688882 7.13281 0.687517H12.5838C13.2048 0.68584 13.8199 0.807341 14.3935 1.04498C14.9672 1.28262 15.4881 1.63169 15.9259 2.07197L18.2093 4.35531C18.6496 4.79318 18.9986 5.31403 19.2363 5.88772C19.4739 6.46137 19.5954 7.07651 19.5938 7.69742ZM17.0156 16.5859V8.42188H13.5781C13.1223 8.42188 12.6851 8.24079 12.3628 7.91849C12.0405 7.59615 11.8594 7.15897 11.8594 6.70312V3.26564H7.13281C6.56301 3.26564 6.01655 3.49198 5.61364 3.89489C5.21073 4.2978 4.98438 4.84426 4.98438 5.41406V16.5859C4.98438 17.1557 5.21073 17.7022 5.61364 18.1051C6.01655 18.508 6.56301 18.7344 7.13281 18.7344H14.8672C15.437 18.7344 15.9834 18.508 16.3864 18.1051C16.7893 17.7022 17.0156 17.1557 17.0156 16.5859Z" fill="url(#paint0_linear_451_3193)"/>
<path d="M13.0665 13.3349L14.0606 12.3414C14.1804 12.2217 14.2754 12.0795 14.3402 11.9231C14.405 11.7666 14.4383 11.5989 14.4383 11.4296C14.4383 11.2603 14.405 11.0926 14.3402 10.9362C14.2754 10.7797 14.1804 10.6376 14.0606 10.5178C13.9409 10.3981 13.7987 10.3031 13.6423 10.2383C13.4859 10.1735 13.3182 10.1401 13.1488 10.1401C12.9795 10.1401 12.8118 10.1735 12.6554 10.2383C12.499 10.3031 12.3568 10.3981 12.2371 10.5178L11.2436 11.512C11.1093 11.6463 10.8915 11.6463 10.7573 11.512L9.76377 10.5178C9.52194 10.276 9.19397 10.1401 8.85197 10.1401C8.50998 10.1401 8.18201 10.276 7.94018 10.5178C7.69835 10.7596 7.5625 11.0876 7.5625 11.4296C7.5625 11.7716 7.69835 12.0996 7.94018 12.3414L8.93437 13.3349C9.06871 13.4691 9.06871 13.6869 8.93437 13.8212L7.94018 14.8147C7.69835 15.0565 7.5625 15.3845 7.5625 15.7265C7.5625 16.0685 7.69835 16.3965 7.94018 16.6383C8.18201 16.8801 8.50998 17.016 8.85197 17.016C9.19397 17.016 9.52194 16.8801 9.76377 16.6383L10.7573 15.6441C10.8915 15.5098 11.1093 15.5098 11.2436 15.6441L12.2371 16.6383C12.4789 16.8801 12.8069 17.016 13.1488 17.016C13.4908 17.016 13.8188 16.8801 14.0606 16.6383C14.3025 16.3965 14.4383 16.0685 14.4383 15.7265C14.4383 15.3845 14.3025 15.0565 14.0606 14.8147L13.0665 13.8212C12.9321 13.6869 12.9321 13.4691 13.0665 13.3349Z" fill="url(#paint1_linear_451_3193)"/>
<defs>
<linearGradient id="paint0_linear_451_3193" x1="2.40373" y1="10.6944" x2="19.59" y2="10.6944" gradientUnits="userSpaceOnUse">
<stop stop-color="#FD3A84"/>
<stop offset="1" stop-color="#FFA68D"/>
</linearGradient>
<linearGradient id="paint1_linear_451_3193" x1="7.5615" y1="13.4762" x2="14.4368" y2="13.4762" gradientUnits="userSpaceOnUse">
<stop stop-color="#FD3A84"/>
<stop offset="1" stop-color="#FFA68D"/>
</linearGradient>
</defs>
</svg>
