<svg width="16" height="16" viewBox="0 0 16 16" fill="none" xmlns="http://www.w3.org/2000/svg">
<path d="M11.3333 8.87506V5.41642C11.3353 4.9181 11.2383 4.4243 11.0481 3.9637C10.8578 3.5031 10.578 3.08482 10.2249 2.7331L9.59789 2.10836C9.24618 1.75529 8.82793 1.47553 8.36727 1.28527C7.90669 1.09503 7.41294 0.998073 6.91457 1.00003H5.20833C4.3577 1.00095 3.5422 1.33927 2.94073 1.94075C2.33924 2.54223 2.00093 3.35775 2 4.20835V8.87506C2.00093 9.7256 2.33924 10.5412 2.94073 11.1426C3.5422 11.7441 4.3577 12.0824 5.20833 12.0833H8.12494C8.97564 12.0824 9.79113 11.7441 10.3926 11.1426C10.9941 10.5412 11.3324 9.7256 11.3333 8.87506ZM3.75 8.87506V4.20835C3.75 3.82157 3.90365 3.45065 4.17713 3.17715C4.45063 2.90367 4.82155 2.75002 5.20833 2.75002H6.9169C7.02865 2.75177 7.14005 2.7627 7.25 2.7827V3.9167C7.25 4.2261 7.37287 4.52285 7.59171 4.74165C7.81047 4.96045 8.1072 5.08335 8.41665 5.08335H9.55062C9.57062 5.1933 9.58153 5.3047 9.58335 5.41642V8.87506C9.58335 9.26175 9.42967 9.63273 9.15614 9.90618C8.88269 10.1797 8.51178 10.3334 8.12494 10.3334H5.20833C4.82155 10.3334 4.45063 10.1797 4.17713 9.90618C3.90365 9.63273 3.75 9.26175 3.75 8.87506ZM14.25 5.95835V11.7917C14.249 12.6423 13.9107 13.4578 13.3092 14.0593C12.7078 14.6607 11.8923 14.9991 11.0417 15H6.375C6.14292 15 5.92038 14.9078 5.75628 14.7437C5.59217 14.5796 5.5 14.3571 5.5 14.125C5.5 13.8929 5.59217 13.6704 5.75628 13.5063C5.92038 13.3422 6.14292 13.25 6.375 13.25H11.0417C11.4284 13.25 11.7993 13.0964 12.0729 12.8229C12.3463 12.5494 12.5 12.1785 12.5 11.7917V5.95835C12.5 5.7263 12.5921 5.50372 12.7562 5.33962C12.9204 5.17555 13.1429 5.08335 13.375 5.08335C13.6071 5.08335 13.8296 5.17555 13.9937 5.33962C14.1577 5.50372 14.25 5.7263 14.25 5.95835Z" fill="url(#paint0_linear_167_267)"/>
<defs>
<linearGradient id="paint0_linear_167_267" x1="4.29687" y1="13.25" x2="13.1821" y2="3.92051" gradientUnits="userSpaceOnUse">
<stop stop-color="#FF405B"/>
<stop offset="1" stop-color="#FF8860"/>
</linearGradient>
</defs>
</svg>
