<svg width="22" height="22" viewBox="0 0 22 22" fill="none" xmlns="http://www.w3.org/2000/svg">
<path d="M5.37166 19.1132C4.97124 19.1132 4.64666 18.7886 4.64666 18.3882V3.37166C4.64666 2.97124 4.97124 2.64666 5.37166 2.64666H12.1549C12.5553 2.64666 12.8799 2.97124 12.8799 3.37166V6.86163C12.8799 7.26204 13.2045 7.58663 13.6049 7.58663H17.095C17.4954 7.58663 17.82 7.91123 17.82 8.31164V11.8016C17.82 12.202 18.1445 12.5266 18.545 12.5266H18.7416C19.142 12.5266 19.4666 12.202 19.4666 11.8016V6.24028C19.4666 6.048 19.3902 5.86359 19.2542 5.72761L14.739 1.21235C14.603 1.07639 14.4186 1 14.2263 1H3.72501C3.3246 1 3 1.3246 3 1.72501V20.0349C3 20.4352 3.3246 20.7599 3.72501 20.7599H10.5083C10.9087 20.7599 11.2333 20.4352 11.2333 20.0349V19.8383C11.2333 19.4378 10.9087 19.1132 10.5083 19.1132H5.37166Z" fill="url(#paint0_linear_451_3175)" stroke="url(#paint1_linear_451_3175)" stroke-width="0.6"/>
<path d="M14.4896 15.8198H18.7423C19.1426 15.8198 19.4674 16.1446 19.4674 16.545V16.7416C19.4674 17.1419 19.1426 17.4666 18.7423 17.4666H14.4896C13.8436 17.4666 13.5202 18.2474 13.9769 18.7043L14.8959 19.6233C15.1791 19.9064 15.1791 20.3655 14.8959 20.6485L14.7569 20.7877C14.4738 21.0707 14.0148 21.0707 13.7316 20.7875L10.1 17.1559C9.81691 16.8727 9.81691 16.4137 10.1 16.1306L13.7317 12.499C14.0148 12.2158 14.4738 12.2158 14.7569 12.4989L14.8959 12.6379C15.1791 12.921 15.1791 13.3801 14.8959 13.6632L13.9769 14.5823C13.5202 15.0391 13.8436 15.8198 14.4896 15.8198Z" fill="url(#paint2_linear_451_3175)" stroke="url(#paint3_linear_451_3175)" stroke-width="0.6"/>
<defs>
<linearGradient id="paint0_linear_451_3175" x1="11.2333" y1="20.7599" x2="11.2333" y2="1" gradientUnits="userSpaceOnUse">
<stop stop-color="#5570FF"/>
<stop offset="1" stop-color="#4DD3FF"/>
</linearGradient>
<linearGradient id="paint1_linear_451_3175" x1="11.2333" y1="20.7599" x2="11.2333" y2="1" gradientUnits="userSpaceOnUse">
<stop stop-color="#5570FF"/>
<stop offset="1" stop-color="#4DD3FF"/>
</linearGradient>
<linearGradient id="paint2_linear_451_3175" x1="14.6775" y1="20.9999" x2="14.6775" y2="12.2866" gradientUnits="userSpaceOnUse">
<stop stop-color="#5570FF"/>
<stop offset="1" stop-color="#4DD3FF"/>
</linearGradient>
<linearGradient id="paint3_linear_451_3175" x1="14.6775" y1="20.9999" x2="14.6775" y2="12.2866" gradientUnits="userSpaceOnUse">
<stop stop-color="#5570FF"/>
<stop offset="1" stop-color="#4DD3FF"/>
</linearGradient>
</defs>
</svg>
