<svg width="22" height="22" viewBox="0 0 22 22" fill="none" xmlns="http://www.w3.org/2000/svg">
<path d="M3.01359 16.7609C3.01359 16.953 3.16931 17.1087 3.36139 17.1087H8.70656C8.89864 17.1087 9.05436 17.2644 9.05436 17.4565V18.7745C9.05436 18.9666 8.89864 19.1223 8.70656 19.1223H3.01359C2.47956 19.1223 1.96738 18.9101 1.58977 18.5325C1.21214 18.1549 1 17.6428 1 17.1087V3.01359C1 2.47956 1.21214 1.96738 1.58977 1.58977C1.96738 1.21214 2.47956 1 3.01359 1H14.951C15.0433 1 15.1318 1.03664 15.197 1.10187L19.0204 4.92531C19.0857 4.99054 19.1223 5.079 19.1223 5.17124V7.01752C19.1223 7.10977 19.0857 7.19823 19.0204 7.26345L17.7025 8.58144C17.4834 8.80054 17.1087 8.64536 17.1087 8.33551V6.00689C17.1087 5.91464 17.0721 5.82618 17.0069 5.76095L14.3613 3.11546C14.2961 3.05023 14.2077 3.01359 14.1154 3.01359H3.36139C3.1693 3.01359 3.01359 3.16931 3.01359 3.36139V16.7609ZM12.7337 8.04756C12.9259 8.04756 13.0815 7.89185 13.0815 7.69976V4.36818C13.0815 4.1761 12.9259 4.02038 12.7337 4.02038H4.36818C4.1761 4.02038 4.02038 4.1761 4.02038 4.36818V7.69976C4.02038 7.89185 4.1761 8.04756 4.36818 8.04756H12.7337ZM19.5451 10.3632C19.4961 10.3104 19.4371 10.2681 19.3713 10.2387C19.3055 10.2094 19.2346 10.1934 19.1626 10.1921C19.0216 10.1921 18.8807 10.2525 18.7699 10.3632L18.0091 11.1241C17.8733 11.2599 17.8733 11.4801 18.0091 11.616L19.5811 13.188C19.717 13.3238 19.9372 13.3238 20.073 13.188L20.8338 12.4271C21.0554 12.2157 21.0554 11.8633 20.8338 11.6519L19.5451 10.3632ZM11.17 17.9532C11.1047 18.0185 11.0679 18.107 11.0679 18.1993V19.7813C11.0679 19.9734 11.2236 20.1291 11.4157 20.1291H12.9977C13.09 20.1291 13.1786 20.0924 13.2438 20.027L18.9976 14.2638C19.1333 14.128 19.1332 13.9079 18.9974 13.7722L17.4249 12.1997C17.2892 12.0639 17.0691 12.0638 16.9332 12.1995L11.17 17.9532ZM13.0815 13.0815C13.0815 11.4102 11.7325 10.0612 10.0612 10.0612C8.38988 10.0612 7.04077 11.4102 7.04077 13.0815C7.04077 14.7528 8.38988 16.1019 10.0612 16.1019C10.1449 16.1019 10.2254 16.0686 10.2846 16.0094L12.989 13.305C13.0482 13.2458 13.0815 13.1653 13.0815 13.0815Z" fill="url(#paint0_linear_451_3141)"/>
<defs>
<linearGradient id="paint0_linear_451_3141" x1="11" y1="20.1291" x2="11" y2="1" gradientUnits="userSpaceOnUse">
<stop stop-color="#5570FF"/>
<stop offset="1" stop-color="#4DD3FF"/>
</linearGradient>
</defs>
</svg>
