<svg width="22" height="22" viewBox="0 0 22 22" fill="none" xmlns="http://www.w3.org/2000/svg">
<path d="M16.6146 12.6043C16.0288 12.6065 15.4506 12.7378 14.9213 12.9889C14.4316 13.2211 13.9949 13.5506 13.6375 13.9567C13.5862 14.015 13.5031 14.0347 13.4324 14.0028L9.35921 12.1638C9.28024 12.1282 9.24057 12.0394 9.26291 11.9557C9.34613 11.644 9.39082 11.3231 9.39584 11.0002C9.39134 10.6809 9.3482 10.3636 9.26745 10.055C9.24564 9.97167 9.28519 9.88357 9.36363 9.84794L13.435 7.99874C13.5048 7.96699 13.587 7.98572 13.6386 8.04256C14.2378 8.70296 15.0421 9.14449 15.9237 9.29436C16.8479 9.45149 17.798 9.27798 18.607 8.80431C19.416 8.33066 20.0324 7.58711 20.3476 6.70426C20.663 5.82141 20.6571 4.85567 20.3313 3.97665C20.0054 3.09763 19.3803 2.36153 18.5656 1.89759C17.7509 1.43364 16.7989 1.27152 15.8766 1.4397C14.9543 1.60788 14.1208 2.0956 13.5223 2.81724C12.9239 3.53885 12.5988 4.44824 12.6042 5.3857C12.6042 5.45815 12.6139 5.52798 12.6235 5.59792C12.6333 5.67007 12.5935 5.73868 12.5272 5.76879L7.9689 7.83771C7.90946 7.86469 7.84006 7.85541 7.78838 7.81555C7.10035 7.28497 6.25622 6.99426 5.38541 6.98985C4.32178 6.98985 3.30172 7.41237 2.54963 8.16444C1.79752 8.91653 1.375 9.93657 1.375 11.0002C1.375 12.0638 1.79752 13.0838 2.54963 13.8359C3.30172 14.588 4.32178 15.0105 5.38541 15.0105C6.25254 15.007 7.09359 14.7195 7.78066 14.1937C7.83219 14.1542 7.90116 14.1451 7.96032 14.1718L12.5269 16.2333C12.5933 16.2633 12.6333 16.332 12.6234 16.4043C12.6139 16.4738 12.6042 16.5429 12.6042 16.6147C12.6042 17.4078 12.8394 18.1832 13.28 18.8427C13.7207 19.5021 14.3471 20.0162 15.0799 20.3197C15.8127 20.6233 16.619 20.7027 17.397 20.548C18.1749 20.3931 18.8896 20.0112 19.4504 19.4504C20.0112 18.8896 20.3931 18.1749 20.548 17.397C20.7027 16.6191 20.6233 15.8128 20.3197 15.08C20.0162 14.3472 19.5021 13.7209 18.8427 13.2802C18.1832 12.8395 17.4078 12.6043 16.6146 12.6043ZM16.6146 3.78158C16.9319 3.78158 17.242 3.87566 17.5058 4.05192C17.7696 4.22818 17.9752 4.47872 18.0967 4.77183C18.2181 5.06495 18.2499 5.38749 18.188 5.69865C18.1261 6.00983 17.9733 6.29566 17.7488 6.52001C17.5245 6.74434 17.2387 6.89712 16.9275 6.95903C16.6164 7.02092 16.2938 6.98916 16.0007 6.86775C15.7076 6.74632 15.457 6.54072 15.2808 6.27693C15.1045 6.01312 15.0104 5.70298 15.0104 5.3857C15.0104 4.96026 15.1794 4.55225 15.4803 4.25141C15.7811 3.95058 16.1891 3.78158 16.6146 3.78158ZM5.38541 12.6043C5.06815 12.6043 4.758 12.5102 4.49419 12.334C4.23038 12.1577 4.02478 11.9072 3.90337 11.6141C3.78194 11.3209 3.75018 10.9984 3.81207 10.6872C3.87398 10.3761 4.02676 10.0902 4.2511 9.86588C4.47545 9.64155 4.76128 9.48877 5.07246 9.42688C5.38364 9.36497 5.70618 9.39675 5.9993 9.51816C6.29243 9.63957 6.54297 9.84517 6.71923 10.109C6.8955 10.3728 6.98959 10.6829 6.98959 11.0002C6.98959 11.4256 6.82057 11.8336 6.51973 12.1345C6.2189 12.4353 5.81087 12.6043 5.38541 12.6043ZM16.6146 18.2188C16.2973 18.2188 15.9872 18.1247 15.7233 17.9484C15.4596 17.7722 15.2539 17.5216 15.1325 17.2286C15.0111 16.9354 14.9793 16.6129 15.0412 16.3017C15.1031 15.9905 15.2559 15.7047 15.4803 15.4804C15.7046 15.256 15.9904 15.1032 16.3016 15.0413C16.6128 14.9795 16.9353 15.0112 17.2284 15.1326C17.5216 15.254 17.772 15.4597 17.9484 15.7235C18.1247 15.9872 18.2188 16.2974 18.2188 16.6147C18.2188 17.0401 18.0498 17.4481 17.7488 17.749C17.4481 18.0498 17.04 18.2188 16.6146 18.2188Z" fill="url(#paint0_linear_451_3135)" stroke="url(#paint1_linear_451_3135)" stroke-width="0.5"/>
<defs>
<linearGradient id="paint0_linear_451_3135" x1="1.375" y1="20.625" x2="24.6027" y2="10.5011" gradientUnits="userSpaceOnUse">
<stop stop-color="#0357D1"/>
<stop offset="1" stop-color="#27CDFC"/>
</linearGradient>
<linearGradient id="paint1_linear_451_3135" x1="1.375" y1="20.625" x2="24.6027" y2="10.5011" gradientUnits="userSpaceOnUse">
<stop stop-color="#0357D1"/>
<stop offset="1" stop-color="#27CDFC"/>
</linearGradient>
</defs>
</svg>
