<svg width="22" height="22" viewBox="0 0 22 22" fill="none" xmlns="http://www.w3.org/2000/svg">
<path d="M20.9688 7.94922V15.4258C20.9674 16.6372 20.4856 17.7986 19.6291 18.6551C18.7725 19.5117 17.6111 19.9935 16.3997 19.9948H5.60027C4.3889 19.9935 3.22751 19.5117 2.37094 18.6551C1.51437 17.7986 1.03257 16.6372 1.03125 15.4258V6.28777C1.03257 5.0764 1.51437 3.915 2.37094 3.05844C3.22751 2.20187 4.3889 1.72007 5.60027 1.71875H7.67707C7.87057 1.71863 8.06142 1.76357 8.2345 1.85L11.0037 3.23498C11.1947 3.33049 11.4052 3.38021 11.6187 3.38021H16.3997C17.6111 3.38153 18.7725 3.86334 19.6291 4.71989C20.4856 5.57648 20.9674 6.73784 20.9688 7.94922ZM18.4766 7.94922C18.4763 7.70578 18.2594 7.53387 18.016 7.53387H4.89844C4.13906 7.53387 3.52344 8.14945 3.52344 8.90887V15.4258C3.52344 15.9766 3.74223 16.5048 4.13174 16.8943C4.52121 17.2838 5.04945 17.5026 5.60027 17.5026H16.3997C16.9506 17.5026 17.4788 17.2838 17.8683 16.8943C18.2578 16.5048 18.4766 15.9766 18.4766 15.4258V7.94922Z" fill="url(#paint0_linear_451_3163)"/>
<defs>
<linearGradient id="paint0_linear_451_3163" x1="11" y1="19.9948" x2="11" y2="1.71875" gradientUnits="userSpaceOnUse">
<stop stop-color="#02AA93"/>
<stop offset="1" stop-color="#67FF80"/>
</linearGradient>
</defs>
</svg>
