<svg width="22" height="22" viewBox="0 0 22 22" fill="none" xmlns="http://www.w3.org/2000/svg">
<path d="M3.4375 1.375C3.05781 1.375 2.75 1.68281 2.75 2.0625V19.9375C2.75 20.3171 3.05781 20.625 3.4375 20.625H8.47917C8.85886 20.625 9.16667 20.3171 9.16667 19.9375V19.7083C9.16667 19.3286 8.85886 19.0208 8.47917 19.0208H5.04167C4.66197 19.0208 4.35417 18.7131 4.35417 18.3333V3.66667C4.35417 3.28697 4.66197 2.97917 5.04167 2.97917H11.6875C12.0672 2.97917 12.375 3.28697 12.375 3.66667V7.10417C12.375 7.48386 12.6828 7.79167 13.0625 7.79167H16.5C16.8796 7.79167 17.1875 8.09946 17.1875 8.47917V10.3125C17.1875 10.6922 17.4954 11 17.875 11H18.1042C18.4839 11 18.7917 10.6922 18.7917 10.3125V6.47228C18.7917 6.28994 18.7193 6.11506 18.5903 5.98613L14.1805 1.57637C14.0515 1.44744 13.8768 1.375 13.6944 1.375H12.375H3.4375Z" fill="url(#paint0_linear_451_3165)" stroke="url(#paint1_linear_451_3165)" stroke-width="0.5"/>
<path fill-rule="evenodd" clip-rule="evenodd" d="M13.9785 11C11.3124 11 9.16602 13.1464 9.16602 15.8125C9.16602 18.4786 11.3124 20.625 13.9785 20.625C16.6446 20.625 18.791 18.4786 18.791 15.8125C18.791 13.1464 16.6446 11 13.9785 11ZM13.9782 12.6039C14.8292 12.6039 15.6453 12.942 16.247 13.5436C16.8485 14.1453 17.1866 14.9614 17.1866 15.8122C17.1866 16.6632 16.8485 17.4793 16.247 18.081C15.6453 18.6825 14.8292 19.0207 13.9782 19.0207C13.1274 19.0207 12.3113 18.6825 11.7097 18.081C11.108 17.4793 10.77 16.6632 10.77 15.8122C10.77 14.9614 11.108 14.1453 11.7097 13.5436C12.3113 12.942 13.1274 12.6039 13.9782 12.6039Z" fill="url(#paint2_linear_451_3165)"/>
<path d="M15.0333 17.4168H12.925C12.6212 17.4168 12.375 17.1706 12.375 16.8668V15.0106V14.3C12.375 13.9963 12.6212 13.75 12.925 13.75H13.4292C13.7329 13.75 13.9792 13.9963 13.9792 14.3V15.2628C13.9792 15.5665 14.2255 15.8128 14.5292 15.8128H15.0333C15.337 15.8128 15.5833 16.0589 15.5833 16.3628V16.8668C15.5833 17.1706 15.337 17.4168 15.0333 17.4168Z" fill="url(#paint3_linear_451_3165)"/>
<defs>
<linearGradient id="paint0_linear_451_3165" x1="10.7708" y1="20.625" x2="10.7708" y2="1.375" gradientUnits="userSpaceOnUse">
<stop stop-color="#FDA700"/>
<stop offset="1" stop-color="#FFDE00"/>
</linearGradient>
<linearGradient id="paint1_linear_451_3165" x1="10.7708" y1="20.625" x2="10.7708" y2="1.375" gradientUnits="userSpaceOnUse">
<stop stop-color="#FDA700"/>
<stop offset="1" stop-color="#FFDE00"/>
</linearGradient>
<linearGradient id="paint2_linear_451_3165" x1="13.9785" y1="20.625" x2="13.9785" y2="11" gradientUnits="userSpaceOnUse">
<stop stop-color="#FDA700"/>
<stop offset="1" stop-color="#FFDE00"/>
</linearGradient>
<linearGradient id="paint3_linear_451_3165" x1="13.9792" y1="17.4168" x2="13.9792" y2="13.75" gradientUnits="userSpaceOnUse">
<stop stop-color="#FDA700"/>
<stop offset="1" stop-color="#FFDE00"/>
</linearGradient>
</defs>
</svg>
