<svg width="22" height="22" viewBox="0 0 22 22" fill="none" xmlns="http://www.w3.org/2000/svg">
<path d="M4.77053 7.16794C4.38855 7.16904 4.01015 7.09431 3.65726 6.94819C3.30437 6.80202 2.98396 6.58732 2.71459 6.31651L1.44781 5.19093C1.20106 4.97063 1.05194 4.66132 1.03324 4.33108C1.02399 4.16752 1.04703 4.00379 1.10106 3.84918C1.15509 3.69456 1.23904 3.55207 1.34813 3.4299C1.45722 3.30772 1.5893 3.20823 1.73684 3.1371C1.88437 3.06597 2.04447 3.02459 2.208 3.01534C2.53826 2.99664 2.86242 3.10991 3.10916 3.33022L4.42496 4.50481C4.46779 4.55544 4.52059 4.59673 4.58002 4.62615C4.63946 4.65561 4.70429 4.67253 4.77053 4.67593C4.88046 4.67589 4.98592 4.63227 5.06375 4.55465L8.06499 1.6971C8.30596 1.47905 8.62259 1.36377 8.94737 1.37586C9.27214 1.38795 9.57932 1.52645 9.80344 1.76182C10.0275 1.99719 10.1508 2.3108 10.147 2.63577C10.1431 2.96074 10.0124 3.27134 9.78285 3.50134L6.80402 6.33727C6.53637 6.60268 6.21899 6.81271 5.87005 6.95523C5.52111 7.09779 5.14745 7.17008 4.77053 7.16794ZM20.9688 4.26058C20.9688 3.93013 20.8375 3.61319 20.6038 3.37951C20.3701 3.14584 20.0532 3.01456 19.7227 3.01456H13.0773C12.7468 3.01456 12.4299 3.14584 12.1963 3.37951C11.9626 3.61319 11.8313 3.93013 11.8313 4.26058C11.8313 4.59106 11.9626 4.90796 12.1963 5.14164C12.4299 5.37532 12.7468 5.5066 13.0773 5.5066H19.7227C20.0532 5.5066 20.3701 5.37532 20.6038 5.14164C20.8375 4.90796 20.9688 4.59106 20.9688 4.26058ZM6.80402 12.9827L9.78285 10.1468C10.0124 9.91678 10.1431 9.60616 10.147 9.28118C10.1508 8.95623 10.0275 8.64263 9.80344 8.40723C9.57932 8.17187 9.27214 8.03337 8.94737 8.0213C8.62259 8.0092 8.30596 8.12446 8.06499 8.34254L5.06375 11.2001C4.98585 11.2779 4.88025 11.3217 4.77012 11.3217C4.65998 11.3217 4.55435 11.2779 4.47645 11.2001L3.15984 9.88261C2.92609 9.64886 2.60906 9.51754 2.27849 9.51754C1.94792 9.51754 1.63089 9.64886 1.39714 9.88261C1.16339 10.1164 1.03207 10.4334 1.03207 10.7639C1.03207 11.0945 1.16339 11.4116 1.39714 11.6453L2.71459 12.9619C3.25617 13.5032 3.98939 13.809 4.75503 13.8128C5.5207 13.8167 6.25697 13.5184 6.80402 12.9827ZM20.9688 10.906C20.9688 10.5755 20.8375 10.2586 20.6038 10.025C20.3701 9.79127 20.0532 9.65999 19.7227 9.65999H13.0773C12.7468 9.65999 12.4299 9.79127 12.1963 10.025C11.9626 10.2586 11.8313 10.5755 11.8313 10.906C11.8313 11.2365 11.9626 11.5534 12.1963 11.7871C12.4299 12.0207 12.7468 12.152 13.0773 12.152H19.7227C20.0532 12.152 20.3701 12.0207 20.6038 11.7871C20.8375 11.5534 20.9688 11.2365 20.9688 10.906ZM6.80402 19.6281L9.78285 16.7922C10.0124 16.5622 10.1431 16.2516 10.147 15.9266C10.1508 15.6016 10.0275 15.288 9.80344 15.0527C9.57932 14.8173 9.27214 14.6788 8.94737 14.6667C8.62259 14.6546 8.30596 14.7699 8.06499 14.9879L5.06375 17.8455C4.98592 17.9231 4.88046 17.9667 4.77053 17.9668C4.70429 17.9634 4.63946 17.9465 4.58002 17.917C4.52059 17.8876 4.46779 17.8463 4.42496 17.7957L3.10916 16.6211C2.86242 16.4008 2.53826 16.2875 2.208 16.3062C1.87774 16.3249 1.56844 16.474 1.34813 16.7208C1.12782 16.9675 1.01455 17.2917 1.03324 17.6219C1.05194 17.9522 1.20106 18.2615 1.44781 18.4818L2.71293 19.6074C3.25457 20.1491 3.98815 20.4552 4.7542 20.4591C5.52028 20.463 6.2569 20.1643 6.80402 19.6281ZM20.9688 17.5514C20.9688 17.221 20.8375 16.904 20.6038 16.6704C20.3701 16.4367 20.0532 16.3054 19.7227 16.3054H13.0773C12.7468 16.3054 12.4299 16.4367 12.1963 16.6704C11.9626 16.904 11.8313 17.221 11.8313 17.5514C11.8313 17.8819 11.9626 18.1988 12.1963 18.4325C12.4299 18.6662 12.7468 18.7975 13.0773 18.7975H19.7227C20.0532 18.7975 20.3701 18.6662 20.6038 18.4325C20.8375 18.1988 20.9688 17.8819 20.9688 17.5514Z" fill="url(#paint0_linear_451_3149)"/>
<defs>
<linearGradient id="paint0_linear_451_3149" x1="1.03417" y1="10.6343" x2="20.9721" y2="10.6343" gradientUnits="userSpaceOnUse">
<stop stop-color="#A93AFF"/>
<stop offset="1" stop-color="#FF81FF"/>
</linearGradient>
</defs>
</svg>
