<svg width="22" height="22" viewBox="0 0 22 22" fill="none" xmlns="http://www.w3.org/2000/svg">
<path d="M3.01356 16.7606C3.01356 16.9527 3.16927 17.1084 3.36135 17.1084H8.70644C8.89852 17.1084 9.05424 17.2642 9.05424 17.4562V18.7742C9.05424 18.9663 8.89852 19.122 8.70644 19.122H3.01356C2.47953 19.122 1.96737 18.9099 1.58976 18.5322C1.21214 18.1546 1 17.6425 1 17.1084V3.01356C1 2.47953 1.21214 1.96737 1.58976 1.58976C1.96737 1.21214 2.47953 1 3.01356 1H14.9508C15.0431 1 15.1316 1.03664 15.1968 1.10187L19.0202 4.92525C19.0854 4.99047 19.122 5.07894 19.122 5.17118V7.01742C19.122 7.10967 19.0854 7.19813 19.0202 7.26336L17.7022 8.58133C17.4831 8.80043 17.1084 8.64525 17.1084 8.3354V6.0068C17.1084 5.91456 17.0718 5.8261 17.0066 5.76088L14.3611 3.11542C14.2959 3.0502 14.2075 3.01356 14.1152 3.01356H3.36135C3.16927 3.01356 3.01356 3.16927 3.01356 3.36135V16.7606ZM12.7335 8.04745C12.9256 8.04745 13.0813 7.89174 13.0813 7.69966V4.36814C13.0813 4.17605 12.9256 4.02034 12.7335 4.02034H4.36814C4.17605 4.02034 4.02034 4.17605 4.02034 4.36814V7.69966C4.02034 7.89174 4.17605 8.04745 4.36814 8.04745H12.7335ZM13.0813 13.0813C13.0813 11.4101 11.7322 10.061 10.061 10.061C8.38976 10.061 7.04067 11.4101 7.04067 13.0813C7.04067 14.7526 8.38976 16.1017 10.061 16.1017C10.1448 16.1017 10.2252 16.0684 10.2845 16.0092L12.9888 13.3048C13.048 13.2455 13.0813 13.1652 13.0813 13.0813Z" fill="url(#paint0_linear_451_3143)"/>
<path d="M19.3718 10.2387C19.4375 10.2681 19.4966 10.3103 19.5457 10.3631L20.8343 11.6518C21.0558 11.8631 21.0558 12.2155 20.8343 12.427L19.8276 13.4338L17.7637 11.3699L18.7704 10.3631C18.8812 10.2523 19.0222 10.1919 19.1631 10.1919C19.2351 10.1934 19.3061 10.2092 19.3718 10.2387Z" fill="url(#paint1_linear_451_3143)"/>
<path d="M11.4162 20.1289C11.2241 20.1289 11.0684 19.9731 11.0684 19.7811V18.1991C11.0684 18.1068 11.1051 18.0183 11.1704 17.953L16.9336 12.1993C17.0695 12.0637 17.2895 12.0638 17.4253 12.1995L18.9977 13.772C19.1335 13.9077 19.1335 14.1278 18.9979 14.2637L13.2442 20.0268C13.1789 20.0922 13.0904 20.1289 12.9981 20.1289H11.4162Z" fill="url(#paint2_linear_451_3143)"/>
<defs>
<linearGradient id="paint0_linear_451_3143" x1="10.9999" y1="20.1288" x2="10.9999" y2="1" gradientUnits="userSpaceOnUse">
<stop stop-color="#5570FF"/>
<stop offset="1" stop-color="#4DD3FF"/>
</linearGradient>
<linearGradient id="paint1_linear_451_3143" x1="16.0345" y1="20.1288" x2="16.0345" y2="10.1919" gradientUnits="userSpaceOnUse">
<stop stop-color="#FDA700"/>
<stop offset="1" stop-color="#FFDE00"/>
</linearGradient>
<linearGradient id="paint2_linear_451_3143" x1="16.0343" y1="20.1289" x2="16.0343" y2="10.1919" gradientUnits="userSpaceOnUse">
<stop stop-color="#FDA700"/>
<stop offset="1" stop-color="#FFDE00"/>
</linearGradient>
</defs>
</svg>
