<svg width="22" height="22" viewBox="0 0 22 22" fill="none" xmlns="http://www.w3.org/2000/svg">
<path d="M12.9762 5.84361C13.3181 5.84361 13.646 5.97943 13.8877 6.22115C14.1295 6.46288 14.2652 6.79075 14.2652 7.13264C14.2652 7.4745 14.1295 7.80237 13.8877 8.04409C13.646 8.28585 13.3181 8.42167 12.9762 8.42167H6.96077C6.61891 8.42167 6.29104 8.28585 6.04931 8.04409C5.80755 7.80237 5.67174 7.4745 5.67174 7.13264C5.67174 6.79075 5.80755 6.46288 6.04931 6.22115C6.29104 5.97943 6.61891 5.84361 6.96077 5.84361H12.9762ZM19.9035 20.9346C19.7837 21.0544 19.6416 21.1495 19.4852 21.2143C19.3287 21.2791 19.161 21.3125 18.9917 21.3125C18.8223 21.3125 18.6547 21.2791 18.4982 21.2143C18.3418 21.1495 18.1996 21.0544 18.0799 20.9346L16.3518 19.2057C15.8357 19.4578 15.2693 19.5903 14.6949 19.5932C13.9301 19.5932 13.1824 19.3664 12.5465 18.9415C11.9106 18.5166 11.4149 17.9126 11.1222 17.206C10.8295 16.4994 10.7529 15.7219 10.9022 14.9717C11.0514 14.2216 11.4197 13.5325 11.9605 12.9917C12.5013 12.4509 13.1904 12.0826 13.9405 11.9333C14.6906 11.7842 15.4682 11.8607 16.1748 12.1534C16.8814 12.4461 17.4854 12.9418 17.9103 13.5777C18.3352 14.2136 18.562 14.9613 18.562 15.7261C18.5591 16.3005 18.4266 16.8668 18.1744 17.383L19.9035 19.1111C20.0232 19.2308 20.1183 19.373 20.1831 19.5294C20.2479 19.6858 20.2813 19.8536 20.2813 20.0229C20.2813 20.1923 20.2479 20.3599 20.1831 20.5164C20.1183 20.6728 20.0232 20.815 19.9035 20.9346ZM14.6949 17.0152C14.9499 17.0152 15.1991 16.9396 15.4111 16.7979C15.6231 16.6563 15.7883 16.455 15.8859 16.2194C15.9834 15.9839 16.0089 15.7247 15.9592 15.4747C15.9095 15.2246 15.7867 14.9949 15.6064 14.8147C15.4261 14.6344 15.1965 14.5116 14.9464 14.4619C14.6964 14.4121 14.4372 14.4377 14.2017 14.5352C13.9661 14.6328 13.7648 14.798 13.6232 15.01C13.4815 15.222 13.4059 15.4712 13.4059 15.7261C13.4059 16.068 13.5417 16.3959 13.7834 16.6376C14.0252 16.8794 14.3531 17.0152 14.6949 17.0152ZM9.53882 18.7339H6.10142C5.53166 18.7339 4.9852 18.5075 4.58229 18.1046C4.17938 17.7017 3.95306 17.1553 3.95306 16.5855V5.41393C3.95306 4.84416 4.17938 4.2977 4.58229 3.89479C4.9852 3.49188 5.53166 3.26555 6.10142 3.26555H15.5543C15.6682 3.26555 15.7775 3.31082 15.8581 3.3914C15.9387 3.47198 15.984 3.58126 15.984 3.69524V9.7107C15.984 10.0526 16.1198 10.3804 16.3615 10.6222C16.6033 10.8639 16.9311 10.9997 17.273 10.9997C17.6148 10.9997 17.9427 10.8639 18.1845 10.6222C18.4262 10.3804 18.562 10.0526 18.562 9.7107V3.69524C18.562 2.89753 18.2451 2.1325 17.6811 1.56844C17.117 1.00439 16.352 0.6875 15.5543 0.6875H6.10142C4.84832 0.688865 3.64691 1.18726 2.76085 2.07335C1.87476 2.95943 1.37636 4.16082 1.375 5.41393V16.5855C1.37636 17.8386 1.87476 19.04 2.76085 19.9261C3.64691 20.8121 4.84832 21.3105 6.10142 21.3119H9.53882C9.88072 21.3119 10.2086 21.1761 10.4503 20.9344C10.692 20.6926 10.8279 20.3647 10.8279 20.0229C10.8279 19.681 10.692 19.3532 10.4503 19.1114C10.2086 18.8697 9.88072 18.7339 9.53882 18.7339Z" fill="url(#paint0_linear_451_3157)"/>
<defs>
<linearGradient id="paint0_linear_451_3157" x1="1.10172" y1="0.890446" x2="22.3396" y2="20.9542" gradientUnits="userSpaceOnUse">
<stop stop-color="#F9D423"/>
<stop offset="0.515624" stop-color="#FF4E50"/>
<stop offset="0.991304" stop-color="#8A2387"/>
</linearGradient>
</defs>
</svg>
