<svg width="16" height="16" viewBox="0 0 16 16" fill="none" xmlns="http://www.w3.org/2000/svg">
<path fill-rule="evenodd" clip-rule="evenodd" d="M4.72368 1.32054C5.2416 0.768093 5.99232 0.583496 6.83333 0.583496H9.16667C10.0077 0.583496 10.7584 0.768093 11.2763 1.32054C11.7846 1.86269 11.9167 2.60046 11.9167 3.3335V3.8335C11.9167 3.87952 11.954 3.91683 12 3.91683V3.91683C12.7823 3.91683 13.5067 4.11291 14.0303 4.6365C14.5539 5.16009 14.75 5.88455 14.75 6.66683V10.0002C14.75 10.7824 14.5539 11.5069 14.0303 12.0305C13.5067 12.5541 12.7823 12.7502 12 12.7502H11.6123C11.5033 12.7502 11.4149 12.8376 11.4079 12.9464C11.3647 13.6205 11.1576 14.2366 10.697 14.6972C10.1734 15.2208 9.44894 15.4168 8.66667 15.4168H7.33333C6.55106 15.4168 5.8266 15.2208 5.303 14.6972C4.8424 14.2366 4.63525 13.6205 4.59208 12.9464C4.58511 12.8376 4.49673 12.7502 4.38768 12.7502H4C3.21772 12.7502 2.49326 12.5541 1.96967 12.0305C1.44608 11.5069 1.25 10.7824 1.25 10.0002V6.66683C1.25 5.88455 1.44608 5.16009 1.96967 4.6365C2.49326 4.11291 3.21772 3.91683 4 3.91683V3.91683C4.04602 3.91683 4.08333 3.87952 4.08333 3.8335V3.3335C4.08333 2.60046 4.21542 1.86269 4.72368 1.32054ZM4.38333 11.2502C4.49379 11.2502 4.58333 11.1606 4.58333 11.0502V10.9247C4.58333 10.8227 4.5051 10.7398 4.40933 10.7049C4.12187 10.5998 3.91667 10.324 3.91667 10.0002C3.91667 9.58595 4.25245 9.25016 4.66667 9.25016H5.33333H10.5267H10.6667H11.3333C11.7475 9.25016 12.0833 9.58595 12.0833 10.0002C12.0833 10.324 11.8781 10.5998 11.5907 10.7049C11.4949 10.7398 11.4167 10.8227 11.4167 10.9247V11.0502C11.4167 11.1606 11.5062 11.2502 11.6167 11.2502H12C12.5511 11.2502 12.8266 11.1129 12.9697 10.9698C13.1127 10.8268 13.25 10.5512 13.25 10.0002V6.66683C13.25 6.11577 13.1127 5.84023 12.9697 5.69716C12.8266 5.55409 12.5511 5.41683 12 5.41683L11.1667 5.41683H4.83333L4 5.41683C3.44894 5.41683 3.1734 5.55409 3.03033 5.69716C2.88726 5.84023 2.75 6.11577 2.75 6.66683V10.0002C2.75 10.5512 2.88726 10.8268 3.03033 10.9698C3.1734 11.1129 3.44894 11.2502 4 11.2502H4.38333ZM6.08333 12.0002L6.08333 10.9502C6.08333 10.8397 6.17288 10.7502 6.28333 10.7502H9.71667C9.82712 10.7502 9.91667 10.8397 9.91667 10.9502V12.0002V12.6668C9.91667 13.2179 9.77941 13.4934 9.63634 13.6365C9.49326 13.7796 9.21772 13.9168 8.66667 13.9168H7.33333C6.78228 13.9168 6.50674 13.7796 6.36366 13.6365C6.22059 13.4934 6.08333 13.2179 6.08333 12.6668V12.001L6.08333 12.0002ZM5.81799 2.34645C5.70125 2.47097 5.58333 2.7332 5.58333 3.3335V3.71683C5.58333 3.82729 5.67288 3.91683 5.78333 3.91683H10.2167C10.3271 3.91683 10.4167 3.82729 10.4167 3.71683V3.3335C10.4167 2.7332 10.2987 2.47097 10.182 2.34645C10.0749 2.23223 9.82566 2.0835 9.16667 2.0835H6.83333C6.17434 2.0835 5.92507 2.23223 5.81799 2.34645ZM4.66667 6.5835C4.25245 6.5835 3.91667 6.91928 3.91667 7.3335C3.91667 7.74771 4.25245 8.0835 4.66667 8.0835H6.66667C7.08088 8.0835 7.41667 7.74771 7.41667 7.3335C7.41667 6.91928 7.08088 6.5835 6.66667 6.5835H4.66667Z" fill="url(#paint0_linear_491_629)"/>
<defs>
<linearGradient id="paint0_linear_491_629" x1="8" y1="15.4168" x2="8" y2="0.583496" gradientUnits="userSpaceOnUse">
<stop stop-color="#5570FF"/>
<stop offset="1" stop-color="#4DD3FF"/>
</linearGradient>
</defs>
</svg>
