<svg width="22" height="22" viewBox="0 0 22 22" fill="none" xmlns="http://www.w3.org/2000/svg">
<path d="M14.5513 7.7925H7.73407V7.17253C7.73441 5.29971 9.25287 3.78181 11.1257 3.78214C12.3588 3.78238 13.4946 4.45194 14.0918 5.53075C14.4142 6.11167 15.1466 6.32118 15.7275 5.99873C16.3084 5.67627 16.5179 4.94391 16.1955 4.36299C14.6435 1.56268 11.1153 0.550727 8.31495 2.1027C6.47188 3.12415 5.32819 5.06531 5.32797 7.17253V8.27932C3.85289 9.0321 2.92368 10.5476 2.92188 12.2037V16.2138C2.92454 18.649 4.89792 20.6224 7.33303 20.625H14.5513C16.9864 20.6222 18.9599 18.649 18.9625 16.2138V12.2037C18.9599 9.76855 16.9865 7.79518 14.5513 7.7925ZM16.5564 16.2138C16.5564 17.3212 15.6587 18.2189 14.5513 18.2189H7.33308C6.22571 18.2189 5.328 17.3212 5.328 16.2138V12.2037C5.328 11.0963 6.22571 10.1986 7.33308 10.1986H14.5513C15.6587 10.1986 16.5564 11.0963 16.5564 12.2037V16.2138Z" fill="url(#paint0_linear_451_3190)"/>
<path d="M10.5409 12.604H11.343C12.0074 12.604 12.546 13.1426 12.546 13.807C12.546 14.4715 12.0074 15.0101 11.343 15.0101H10.5409C9.87651 15.0101 9.33789 14.4715 9.33789 13.807C9.33789 13.1426 9.87651 12.604 10.5409 12.604Z" fill="url(#paint1_linear_451_3190)" stroke="url(#paint2_linear_451_3190)"/>
<defs>
<linearGradient id="paint0_linear_451_3190" x1="10.9422" y1="20.625" x2="10.9422" y2="1.375" gradientUnits="userSpaceOnUse">
<stop stop-color="#02AA93"/>
<stop offset="1" stop-color="#67FF80"/>
</linearGradient>
<linearGradient id="paint1_linear_451_3190" x1="10.9419" y1="15.0101" x2="10.9419" y2="12.604" gradientUnits="userSpaceOnUse">
<stop stop-color="#02AA93"/>
<stop offset="1" stop-color="#67FF80"/>
</linearGradient>
<linearGradient id="paint2_linear_451_3190" x1="10.9419" y1="15.0101" x2="10.9419" y2="12.604" gradientUnits="userSpaceOnUse">
<stop stop-color="#02AA93"/>
<stop offset="1" stop-color="#67FF80"/>
</linearGradient>
</defs>
</svg>
