<svg width="16" height="16" viewBox="0 0 16 16" fill="none" xmlns="http://www.w3.org/2000/svg">
<path d="M14.3031 5.67093V11.9394C14.302 12.8231 13.9506 13.6705 13.3257 14.2954C12.7007 14.9203 11.8535 15.2718 10.9697 15.2727H5.51515C4.6314 15.2718 3.7841 14.9203 3.15921 14.2954C2.53428 13.6705 2.18278 12.8231 2.18182 11.9394V4.06062C2.18278 3.17687 2.53428 2.32959 3.15921 1.70467C3.7841 1.07977 4.6314 0.728267 5.51515 0.727307H9.35942C9.79731 0.726122 10.2311 0.811809 10.6356 0.979402C11.0402 1.14699 11.4076 1.39317 11.7164 1.70367L13.3267 3.31396C13.6372 3.62276 13.8834 3.99008 14.0509 4.39466C14.2186 4.79922 14.3042 5.23304 14.3031 5.67093ZM12.4849 11.9394V6.38184C12.4849 6.27138 12.3953 6.18184 12.2849 6.18184H10.0606C9.73913 6.18184 9.43084 6.05413 9.2035 5.82683C8.97622 5.59951 8.84851 5.2912 8.84851 4.96971V2.74548C8.84851 2.63502 8.75897 2.54548 8.64851 2.54548H5.51515C5.11331 2.54548 4.72793 2.70511 4.44379 2.98926C4.15964 3.2734 4.00001 3.65878 4.00001 4.06062V11.9394C4.00001 12.3413 4.15964 12.7266 4.44379 13.0108C4.72793 13.2949 5.11331 13.4546 5.51515 13.4546H10.9697C11.3716 13.4546 11.757 13.2949 12.0411 13.0108C12.3252 12.7266 12.4849 12.3413 12.4849 11.9394Z" fill="url(#paint0_linear_167_246)"/>
<path fill-rule="evenodd" clip-rule="evenodd" d="M10.6394 10.474C10.7421 10.531 10.8213 10.621 10.877 10.711C10.9856 10.897 10.9769 11.125 10.8712 11.326L10.6658 11.686C10.5573 11.878 10.3548 11.998 10.1465 11.998C10.0439 11.998 9.92941 11.968 9.83551 11.908C9.75923 11.857 9.67124 11.839 9.57736 11.839C9.28692 11.839 9.04339 12.088 9.03462 12.385C9.03462 12.73 8.76469 13 8.42731 13H8.02828C7.68796 13 7.41805 12.73 7.41805 12.385C7.4122 12.088 7.16866 11.839 6.87822 11.839C6.78139 11.839 6.6934 11.857 6.62005 11.908C6.52615 11.968 6.40879 11.998 6.30905 11.998C6.09781 11.998 5.8954 11.878 5.78684 11.686L5.58439 11.326C5.47585 11.131 5.47 10.897 5.57853 10.711C5.62546 10.621 5.71348 10.531 5.81324 10.474C5.8954 10.432 5.9482 10.363 5.99806 10.282C6.14476 10.024 6.05673 9.685 5.80738 9.532C5.51693 9.361 5.42303 8.98 5.59025 8.683L5.78684 8.329C5.95699 8.032 6.3208 7.927 6.6142 8.101C6.86943 8.245 7.20093 8.149 7.35058 7.894C7.39752 7.81 7.42392 7.72 7.41805 7.63C7.4122 7.513 7.44445 7.402 7.50019 7.312C7.60874 7.126 7.80533 7.006 8.01949 7H8.43316C8.65025 7 8.84684 7.126 8.9554 7.312C9.0082 7.402 9.04339 7.513 9.03462 7.63C9.02873 7.72 9.05515 7.81 9.1021 7.894C9.25171 8.149 9.58323 8.245 9.84136 8.101C10.1318 7.927 10.4986 8.032 10.6658 8.329L10.8624 8.683C11.0326 8.98 10.9387 9.361 10.6453 9.532C10.3959 9.685 10.3079 10.024 10.4576 10.282C10.5044 10.363 10.5573 10.432 10.6394 10.474ZM8.19998 10.75C8.6142 10.75 8.94998 10.4142 8.94998 10C8.94998 9.58579 8.6142 9.25 8.19998 9.25C7.78577 9.25 7.44998 9.58579 7.44998 10C7.44998 10.4142 7.78577 10.75 8.19998 10.75Z" fill="url(#paint1_linear_167_246)"/>
<defs>
<linearGradient id="paint0_linear_167_246" x1="5.21214" y1="14.2338" x2="14.9485" y2="4.76782" gradientUnits="userSpaceOnUse">
<stop stop-color="#A056FF"/>
<stop offset="1" stop-color="#C59AFD"/>
</linearGradient>
<linearGradient id="paint1_linear_167_246" x1="6.86364" y1="12.5714" x2="10.8745" y2="8.31743" gradientUnits="userSpaceOnUse">
<stop stop-color="#A056FF"/>
<stop offset="1" stop-color="#C59AFD"/>
</linearGradient>
</defs>
</svg>
