<svg width="16" height="16" viewBox="0 0 16 16" fill="none" xmlns="http://www.w3.org/2000/svg">
<path fill-rule="evenodd" clip-rule="evenodd" d="M10.5811 2.29152C10.3635 2.23928 10.1219 2.2335 9.34527 2.2335H6.1335C5.27857 2.2335 4.6915 2.2342 4.23639 2.27138C3.79179 2.30771 3.55296 2.37431 3.38012 2.46238C2.98498 2.66372 2.66372 2.98498 2.46238 3.38012C2.37431 3.55296 2.30771 3.79179 2.27138 4.23639C2.2342 4.6915 2.2335 5.27857 2.2335 6.13349V9.86683C2.2335 10.7218 2.2342 11.3088 2.27138 11.7639C2.30771 12.2085 2.37431 12.4474 2.46238 12.6202C2.66372 13.0154 2.98498 13.3366 3.38012 13.5379C3.55296 13.626 3.79179 13.6926 4.23639 13.7289C4.29944 13.7341 4.36502 13.7386 4.4335 13.7424V11.2268L4.4335 11.193C4.43348 10.7739 4.43346 10.4065 4.45829 10.1027C4.48463 9.78021 4.54337 9.45101 4.70598 9.13186C4.94566 8.66145 5.32812 8.279 5.79852 8.03932C6.11767 7.8767 6.44687 7.81797 6.76933 7.79162C7.07313 7.7668 7.44055 7.76681 7.85965 7.76683H7.85967L7.8935 7.76683H8.10683L8.14066 7.76683H8.14068C8.55978 7.76681 8.92719 7.7668 9.231 7.79162C9.55346 7.81797 9.88266 7.8767 10.2018 8.03932C10.6722 8.279 11.0547 8.66145 11.2943 9.13186C11.457 9.45101 11.5157 9.78021 11.542 10.1027C11.5669 10.4065 11.5668 10.7739 11.5668 11.1929V11.193L11.5668 11.2268V13.7424C11.6353 13.7386 11.7009 13.7341 11.7639 13.7289C12.2085 13.6926 12.4474 13.626 12.6202 13.5379C13.0154 13.3366 13.3366 13.0154 13.5379 12.6202C13.626 12.4474 13.6926 12.2085 13.7289 11.7639C13.7661 11.3088 13.7668 10.7218 13.7668 9.86683V6.65506C13.7668 5.87845 13.761 5.63683 13.7088 5.41924C13.6574 5.20496 13.5725 5.00012 13.4574 4.81223C13.3405 4.62143 13.1737 4.44649 12.6245 3.89734L12.103 3.37578C11.5538 2.82664 11.3789 2.65988 11.1881 2.54295C11.0002 2.42781 10.7954 2.34296 10.5811 2.29152ZM9.76683 13.7668V11.2268C9.76683 10.7639 9.76613 10.4709 9.74802 10.2492C9.73077 10.0381 9.70231 9.97215 9.69053 9.94904C9.62342 9.81733 9.51634 9.71024 9.38462 9.64313C9.36152 9.63135 9.29556 9.60289 9.08442 9.58564C8.86277 9.56753 8.56972 9.56683 8.10683 9.56683H7.8935C7.4306 9.56683 7.13756 9.56753 6.91591 9.58564C6.70476 9.60289 6.63881 9.63135 6.6157 9.64313C6.48399 9.71024 6.3769 9.81733 6.30979 9.94904C6.29802 9.97215 6.26956 10.0381 6.25231 10.2492C6.2342 10.4709 6.2335 10.7639 6.2335 11.2268V13.7668H9.76683ZM9.44107 0.433473C10.0823 0.433218 10.5505 0.433032 11.0013 0.541255C11.3992 0.636793 11.7797 0.794369 12.1286 1.0082C12.5239 1.25043 12.8548 1.58166 13.3081 2.03524L13.3758 2.10299L13.8973 2.62455L13.9651 2.69226L13.9651 2.69227L13.9651 2.69228C14.4187 3.14549 14.7499 3.47645 14.9921 3.87173C15.206 4.22067 15.3635 4.60109 15.4591 4.99903C15.5673 5.44982 15.5671 5.91806 15.5669 6.55926L15.5668 6.65506V9.86683V9.90454C15.5668 10.7126 15.5669 11.3734 15.523 11.9105C15.4776 12.4664 15.3807 12.9685 15.1418 13.4374C14.7679 14.1712 14.1712 14.7679 13.4374 15.1418C12.9685 15.3807 12.4664 15.4776 11.9105 15.523C11.3734 15.5669 10.7126 15.5668 9.90454 15.5668H9.86683H6.13349H6.09579C5.28774 15.5668 4.62689 15.5669 4.08981 15.523C3.5339 15.4776 3.03182 15.3807 2.56293 15.1418C1.8291 14.7679 1.23248 14.1712 0.858573 13.4374C0.619662 12.9685 0.522779 12.4664 0.47736 11.9105C0.433479 11.3734 0.433487 10.7126 0.433498 9.90453L0.433498 9.86683V6.13349L0.433498 6.09579V6.09579C0.433487 5.28774 0.433479 4.62689 0.47736 4.08981C0.522779 3.5339 0.619662 3.03182 0.858573 2.56293C1.23248 1.8291 1.8291 1.23248 2.56293 0.858573C3.03182 0.619662 3.5339 0.522779 4.08982 0.47736C4.62689 0.433479 5.28774 0.433487 6.09579 0.433498H6.0958L6.1335 0.433498H9.34527L9.44107 0.433473ZM4.4335 5.3335C4.4335 4.83644 4.83644 4.4335 5.3335 4.4335L10.6668 4.4335C11.1639 4.4335 11.5668 4.83644 11.5668 5.3335C11.5668 5.83055 11.1639 6.2335 10.6668 6.2335L5.3335 6.2335C4.83644 6.2335 4.4335 5.83055 4.4335 5.3335Z" fill="url(#paint0_linear_525_667)"/>
<defs>
<linearGradient id="paint0_linear_525_667" x1="0.583496" y1="8.00016" x2="15.4168" y2="8.00016" gradientUnits="userSpaceOnUse">
<stop stop-color="#B3E94F"/>
<stop offset="1" stop-color="#85FA77"/>
</linearGradient>
</defs>
</svg>
