<svg width="22" height="22" viewBox="0 0 22 22" fill="none" xmlns="http://www.w3.org/2000/svg">
<path d="M19.6667 7.7975V16.4167C19.6653 17.6318 19.182 18.7969 18.3228 19.6561C17.4635 20.5154 16.2985 20.9987 15.0833 21H7.58333C6.36817 20.9987 5.20313 20.5154 4.3439 19.6561C3.48463 18.7969 3.00132 17.6318 3 16.4167V5.58333C3.00132 4.36817 3.48463 3.20316 4.3439 2.3439C5.20313 1.48465 6.36817 1.00134 7.58333 1.00002H12.8692C13.4713 0.99839 14.0678 1.11621 14.624 1.34665C15.1803 1.57709 15.6854 1.91558 16.11 2.34252L18.3242 4.55667C18.7511 4.98127 19.0896 5.48633 19.32 6.04263C19.5505 6.5989 19.6683 7.1954 19.6667 7.7975ZM17.1667 16.4167V8.5H13.8333C13.3913 8.5 12.9674 8.3244 12.6548 8.01187C12.3423 7.6993 12.1667 7.27537 12.1667 6.83333V3.50001H7.58333C7.0308 3.50001 6.5009 3.7195 6.1102 4.1102C5.7195 4.5009 5.5 5.0308 5.5 5.58333V16.4167C5.5 16.9692 5.7195 17.4991 6.1102 17.8898C6.5009 18.2805 7.0308 18.5 7.58333 18.5H15.0833C15.6359 18.5 16.1658 18.2805 16.5565 17.8898C16.9472 17.4991 17.1667 16.9692 17.1667 16.4167Z" fill="url(#paint0_linear_451_3169)"/>
<path d="M12.5833 11.917L12.5838 10.5541C12.5838 10.3899 12.5515 10.2273 12.4886 10.0756C12.4258 9.92388 12.3337 9.78604 12.2176 9.66994C12.1015 9.55381 11.9636 9.46171 11.8119 9.39888C11.6602 9.33604 11.4976 9.30371 11.3334 9.30371C11.1692 9.30371 11.0066 9.33604 10.8549 9.39888C10.7032 9.46171 10.5654 9.55381 10.4493 9.66994C10.3331 9.78604 10.241 9.92388 10.1782 10.0756C10.1154 10.2273 10.083 10.3899 10.083 10.5541L10.0835 11.917C10.0836 12.1012 9.93422 12.2505 9.75002 12.2504L8.38712 12.25C8.05552 12.25 7.73745 12.3817 7.50295 12.6162C7.26849 12.8507 7.13672 13.1687 7.13672 13.5004C7.13672 13.832 7.26849 14.15 7.50295 14.3845C7.73745 14.619 8.05552 14.7508 8.38712 14.7508L9.75002 14.7503C9.93422 14.7502 10.0836 14.8996 10.0835 15.0837L10.083 16.4466C10.083 16.7783 10.2148 17.0963 10.4493 17.3308C10.6838 17.5653 11.0018 17.697 11.3334 17.697C11.665 17.697 11.9831 17.5653 12.2176 17.3308C12.4521 17.0963 12.5838 16.7783 12.5838 16.4466L12.5833 15.0837C12.5833 14.8996 12.7326 14.7502 12.9168 14.7503L14.2797 14.7508C14.6113 14.7508 14.9294 14.619 15.1639 14.3845C15.3984 14.15 15.5301 13.832 15.5301 13.5004C15.5301 13.1687 15.3984 12.8507 15.1639 12.6162C14.9294 12.3817 14.6113 12.25 14.2797 12.25L12.9168 12.2504C12.7326 12.2505 12.5833 12.1012 12.5833 11.917Z" fill="url(#paint1_linear_451_3169)"/>
<defs>
<linearGradient id="paint0_linear_451_3169" x1="11.3333" y1="21" x2="11.3333" y2="1" gradientUnits="userSpaceOnUse">
<stop stop-color="#02AA93"/>
<stop offset="1" stop-color="#67FF80"/>
</linearGradient>
<linearGradient id="paint1_linear_451_3169" x1="13.6907" y1="15.8577" x2="8.97609" y2="11.1431" gradientUnits="userSpaceOnUse">
<stop stop-color="#02AA93"/>
<stop offset="1" stop-color="#67FF80"/>
</linearGradient>
</defs>
</svg>
