<svg width="22" height="22" viewBox="0 0 22 22" fill="none" xmlns="http://www.w3.org/2000/svg">
<path d="M3.4375 1.375C3.05781 1.375 2.75 1.68281 2.75 2.0625V19.9375C2.75 20.3171 3.05781 20.625 3.4375 20.625H18.1042C18.4839 20.625 18.7917 20.3171 18.7917 19.9375V6.47228C18.7917 6.28994 18.7193 6.11506 18.5903 5.98613L14.1805 1.57637C14.0515 1.44744 13.8768 1.375 13.6944 1.375H3.4375ZM4.35417 3.66667C4.35417 3.28697 4.66197 2.97917 5.04167 2.97917H11.6875C12.0672 2.97917 12.375 3.28697 12.375 3.66667V7.10417C12.375 7.48386 12.6828 7.79167 13.0625 7.79167H16.5C16.8796 7.79167 17.1875 8.09946 17.1875 8.47917V18.3333C17.1875 18.7131 16.8796 19.0208 16.5 19.0208H5.04167C4.66197 19.0208 4.35417 18.7131 4.35417 18.3333V3.66667Z" fill="url(#paint0_linear_451_3159)"/>
<path fill-rule="evenodd" clip-rule="evenodd" d="M9.89637 7.79177C9.41173 7.80706 8.94302 7.9684 8.55166 8.25465C8.21279 8.50251 7.94561 8.83399 7.77526 9.21528C7.7277 9.32173 7.6252 9.39594 7.5086 9.39594H6.23301C6.08113 9.39594 5.95801 9.51906 5.95801 9.67094V10.7251C5.95801 10.877 6.08113 11.0001 6.23301 11.0001H7.50871C7.62525 11.0001 7.72773 11.0742 7.77532 11.1806C7.95077 11.5728 8.2286 11.9121 8.58116 12.1617C8.98679 12.449 9.47139 12.6036 9.96842 12.6043C10.4655 12.6036 10.9501 12.449 11.3557 12.1617C11.7082 11.9121 11.9861 11.5728 12.1615 11.1806C12.2091 11.0742 12.3116 11.0001 12.4281 11.0001H15.308C15.4599 11.0001 15.583 10.877 15.583 10.7251V9.67094C15.583 9.51906 15.4599 9.39594 15.308 9.39594H12.4281C12.3116 9.39594 12.2091 9.3218 12.1615 9.21542C11.9861 8.82321 11.7082 8.48397 11.3557 8.2343C10.9501 7.94706 10.4655 7.79247 9.96842 7.79177C9.94441 7.79141 9.92037 7.79141 9.89637 7.79177ZM9.9682 9.39589C10.1809 9.39589 10.3849 9.4804 10.5354 9.63082C10.6858 9.78123 10.7703 9.98525 10.7703 10.198C10.7703 10.4107 10.6858 10.6147 10.5354 10.7651C10.3849 10.9156 10.1809 11.0001 9.9682 11.0001C9.75547 11.0001 9.55146 10.9156 9.40104 10.7651C9.25062 10.6147 9.16612 10.4107 9.16612 10.198C9.16612 9.98525 9.25062 9.78123 9.40104 9.63082C9.55146 9.4804 9.75547 9.39589 9.9682 9.39589Z" fill="url(#paint1_linear_451_3159)"/>
<path fill-rule="evenodd" clip-rule="evenodd" d="M11.6447 17.416C12.1293 17.4007 12.598 17.2395 12.9894 16.9532C13.3282 16.7053 13.5954 16.3738 13.7658 15.9925C13.8134 15.886 13.9158 15.8118 14.0324 15.8118H15.308C15.4599 15.8118 15.583 15.6887 15.583 15.5368V14.4827C15.583 14.3308 15.4599 14.2077 15.308 14.2077H14.0323C13.9158 14.2077 13.8132 14.1336 13.7657 14.0272C13.5902 13.635 13.3124 13.2957 12.9598 13.046C12.5542 12.7588 12.0696 12.6042 11.5726 12.6035C11.0756 12.6042 10.5909 12.7588 10.1853 13.046C9.83277 13.2957 9.55493 13.635 9.37948 14.0272C9.33189 14.1336 9.22942 14.2077 9.11288 14.2077H6.23301C6.08113 14.2077 5.95801 14.3308 5.95801 14.4827V15.5368C5.95801 15.6887 6.08113 15.8118 6.23301 15.8118H9.11288C9.22942 15.8118 9.33189 15.886 9.37948 15.9923C9.55493 16.3846 9.83277 16.7238 10.1853 16.9735C10.5909 17.2608 11.0756 17.4153 11.5726 17.416C11.5966 17.4164 11.6206 17.4164 11.6447 17.416ZM11.5724 15.8123C11.3596 15.8123 11.1556 15.7278 11.0052 15.5774C10.8548 15.4269 10.7703 15.223 10.7703 15.0103C10.7703 14.7976 10.8548 14.5935 11.0052 14.4431C11.1556 14.2927 11.3596 14.2081 11.5724 14.2081C11.7851 14.2081 11.9891 14.2927 12.1395 14.4431C12.2899 14.5935 12.3744 14.7976 12.3744 15.0103C12.3744 15.223 12.2899 15.4269 12.1395 15.5774C11.9891 15.7278 11.7851 15.8123 11.5724 15.8123Z" fill="url(#paint2_linear_451_3159)"/>
<defs>
<linearGradient id="paint0_linear_451_3159" x1="10.7708" y1="20.625" x2="10.7708" y2="1.375" gradientUnits="userSpaceOnUse">
<stop stop-color="#5570FF"/>
<stop offset="1" stop-color="#4DD3FF"/>
</linearGradient>
<linearGradient id="paint1_linear_451_3159" x1="10.7705" y1="12.6043" x2="10.7705" y2="7.7915" gradientUnits="userSpaceOnUse">
<stop stop-color="#5570FF"/>
<stop offset="1" stop-color="#4DD3FF"/>
</linearGradient>
<linearGradient id="paint2_linear_451_3159" x1="10.7705" y1="17.4163" x2="10.7705" y2="12.6035" gradientUnits="userSpaceOnUse">
<stop stop-color="#5570FF"/>
<stop offset="1" stop-color="#4DD3FF"/>
</linearGradient>
</defs>
</svg>
