<svg width="22" height="22" viewBox="0 0 22 22" fill="none" xmlns="http://www.w3.org/2000/svg">
<path d="M16.6437 8.20038V7.02517C16.6437 3.90466 14.114 1.375 10.9935 1.375C7.87299 1.375 5.34337 3.90466 5.34337 7.02513V8.20035C3.85883 8.95794 2.9237 10.4831 2.92188 12.1498V16.1856C2.92456 18.6362 4.91055 20.6224 7.36125 20.625H14.6257C17.0764 20.6222 19.0625 18.6362 19.0651 16.1856V12.1498C19.0633 10.4832 18.1282 8.95794 16.6437 8.20038ZM10.9935 3.7965C12.7766 3.7965 14.2221 5.242 14.2221 7.02513V7.71042H7.76485V7.02513C7.76485 5.242 9.21037 3.7965 10.9935 3.7965ZM16.6437 16.1856C16.6437 17.3001 15.7402 18.2035 14.6258 18.2035H7.3613C6.24685 18.2035 5.3434 17.3001 5.3434 16.1856V12.1498C5.3434 11.0354 6.24685 10.1319 7.3613 10.1319H14.6258C15.7402 10.1319 16.6437 11.0354 16.6437 12.1498V16.1856Z" fill="url(#paint0_linear_451_3181)" stroke="url(#paint1_linear_451_3181)" stroke-width="0.6"/>
<path d="M10.5896 12.5532H11.3968C12.0655 12.5532 12.6075 13.0953 12.6075 13.764C12.6075 14.4326 12.0655 14.9747 11.3968 14.9747H10.5896C9.92098 14.9747 9.37891 14.4326 9.37891 13.764C9.37891 13.0953 9.92098 12.5532 10.5896 12.5532Z" fill="url(#paint2_linear_451_3181)"/>
<defs>
<linearGradient id="paint0_linear_451_3181" x1="2.68854" y1="1.56442" x2="22.3333" y2="18.5427" gradientUnits="userSpaceOnUse">
<stop stop-color="#F9D423"/>
<stop offset="0.515624" stop-color="#FF4E50"/>
<stop offset="0.991304" stop-color="#8A2387"/>
</linearGradient>
<linearGradient id="paint1_linear_451_3181" x1="2.68854" y1="1.56442" x2="22.3333" y2="18.5427" gradientUnits="userSpaceOnUse">
<stop stop-color="#F9D423"/>
<stop offset="0.515624" stop-color="#FF4E50"/>
<stop offset="0.991304" stop-color="#8A2387"/>
</linearGradient>
<linearGradient id="paint2_linear_451_3181" x1="9.33224" y1="12.577" x2="11.7087" y2="15.8426" gradientUnits="userSpaceOnUse">
<stop stop-color="#F9D423"/>
<stop offset="0.515624" stop-color="#FF4E50"/>
<stop offset="0.991304" stop-color="#8A2387"/>
</linearGradient>
</defs>
</svg>
