<svg width="22" height="22" viewBox="0 0 22 22" fill="none" xmlns="http://www.w3.org/2000/svg">
<path fill-rule="evenodd" clip-rule="evenodd" d="M13.75 1.71875H8.25C7.4906 1.71875 6.875 2.33435 6.875 3.09375V7.90625C6.875 8.46044 7.20285 8.93805 7.6752 9.15571C7.78013 9.20406 7.83157 9.33364 7.77033 9.43161L4.95062 13.9432C4.91922 13.9934 4.86413 14.0239 4.80487 14.0239H3.0293C2.40042 14.0239 1.89062 14.5337 1.89062 15.1626V19.1479C1.89062 19.7768 2.40042 20.2866 3.0293 20.2866H8.15332C8.78219 20.2866 9.29199 19.7768 9.29199 19.1479V15.1626C9.29199 14.5337 8.78219 14.0239 8.15332 14.0239H7.64244C7.50745 14.0239 7.42514 13.8754 7.49669 13.761L9.79294 10.087L10.246 9.36203C10.2774 9.31178 10.3325 9.28125 10.3918 9.28125H11.5283C11.5876 9.28125 11.6427 9.31178 11.6741 9.36203L11.9937 9.87346L14.4234 13.761C14.4949 13.8754 14.4126 14.0239 14.2776 14.0239H13.8467C13.2179 14.0239 12.7081 14.5337 12.7081 15.1626V19.1479C12.7081 19.7768 13.2179 20.2866 13.8467 20.2866H18.9707C19.5996 20.2866 20.1094 19.7768 20.1094 19.1479V15.1626C20.1094 14.5337 19.5996 14.0239 18.9707 14.0239H17.1152C17.0559 14.0239 17.0009 13.9934 16.9695 13.9432L14.1672 9.45947C14.1039 9.35828 14.161 9.22424 14.2714 9.17897C14.7722 8.97358 15.125 8.4811 15.125 7.90625V3.09375C15.125 2.33435 14.5094 1.71875 13.75 1.71875Z" fill="url(#paint0_linear_451_3127)"/>
<defs>
<linearGradient id="paint0_linear_451_3127" x1="5.19279" y1="18.0947" x2="21.8907" y2="3.79928" gradientUnits="userSpaceOnUse">
<stop stop-color="#FE0844"/>
<stop offset="1" stop-color="#FEB302"/>
</linearGradient>
</defs>
</svg>
