<svg width="22" height="22" viewBox="0 0 22 22" fill="none" xmlns="http://www.w3.org/2000/svg">
<path d="M5.16261 20.9265C4.36656 20.9265 3.57935 20.732 2.80098 20.3427C2.02262 19.9535 1.39462 19.4406 0.916992 18.8038C1.37693 18.8038 1.84572 18.6225 2.32335 18.2603C2.80098 17.8973 3.0398 17.3708 3.0398 16.6809C3.0398 15.7964 3.34938 15.0446 3.96853 14.4254C4.58768 13.8063 5.33951 13.4967 6.22401 13.4967C7.10852 13.4967 7.86034 13.8063 8.47949 14.4254C9.09865 15.0446 9.40826 15.7964 9.40826 16.6809C9.40826 17.8485 8.9925 18.8479 8.16107 19.6794C7.32963 20.5108 6.33015 20.9265 5.16261 20.9265ZM11.2657 14.5581L8.34681 11.6393L17.8464 2.13968C18.041 1.94509 18.2843 1.84319 18.5767 1.83399C18.8682 1.8255 19.1201 1.92739 19.3324 2.13968L20.7652 3.57257C20.9775 3.78484 21.0837 4.03251 21.0837 4.31555C21.0837 4.59859 20.9775 4.84625 20.7652 5.05853L11.2657 14.5581Z" fill="url(#paint0_linear_451_3133)"/>
<defs>
<linearGradient id="paint0_linear_451_3133" x1="4.5722" y1="18.6725" x2="21.8921" y2="2.71074" gradientUnits="userSpaceOnUse">
<stop stop-color="#FE0844"/>
<stop offset="1" stop-color="#FEB302"/>
</linearGradient>
</defs>
</svg>
