<svg width="22" height="22" viewBox="0 0 22 22" fill="none" xmlns="http://www.w3.org/2000/svg">
<path d="M5.18417 1.50792C5.4193 1.32834 5.73328 1.40395 5.95084 1.56732C7.48276 2.57995 9.00736 3.60205 10.5348 4.62007C10.7714 4.8037 11.1205 4.87255 11.3731 4.67407C12.7999 3.74244 14.2018 2.78113 15.6241 1.84546C15.8563 1.69424 16.0783 1.52547 16.3339 1.408C16.5412 1.30674 16.7457 1.46201 16.9136 1.55787C18.466 2.59346 20.0183 3.62904 21.578 4.65517C21.8429 4.81776 21.7921 5.18447 21.538 5.3635C20.1885 6.31414 18.7621 7.17399 17.4098 8.11938C17.0291 8.38561 17.0336 8.944 17.4158 9.20813C18.8068 10.1695 20.2459 11.0718 21.6495 12.0163C21.8676 12.1722 21.8388 12.4878 21.6223 12.6458C21.5646 12.6878 21.5051 12.7279 21.4436 12.7657C19.8986 13.7688 18.374 14.799 16.8406 15.8198C16.6288 15.9912 16.309 15.9669 16.1031 15.7995C14.4836 14.7329 12.8758 13.65 11.2577 12.582C11.1544 12.5123 11.0438 12.486 10.9243 12.5026C10.8606 12.5114 10.8026 12.5419 10.7489 12.5772C9.09265 13.6674 7.45275 14.7815 5.78876 15.8603C5.46894 16.0763 5.1389 15.7968 4.88336 15.6294C3.52087 14.6863 2.10746 13.8067 0.749215 12.8616C0.372252 12.5993 0.36625 12.0491 0.740982 11.7836C2.0699 10.8421 3.48725 10.0021 4.81815 9.06152C5.1069 8.85747 5.16984 8.4657 4.87408 8.27197C4.72152 8.172 4.55913 8.08153 4.41459 7.97662C3.13414 7.12257 1.83147 6.2953 0.567667 5.42118C0.25988 5.20829 0.210149 4.80298 0.524736 4.6003C0.581045 4.564 0.637403 4.52787 0.692176 4.49044C2.19779 3.50752 3.68295 2.49624 5.18417 1.50792ZM5.51156 3.33953C5.44157 3.34065 5.37348 3.36138 5.3147 3.3994C4.79759 3.73385 4.29218 4.08526 3.778 4.42485C3.36806 4.69559 3.34399 5.29633 3.75225 5.56964C4.21026 5.87623 4.67618 6.17306 5.13632 6.47756C5.37004 6.63224 5.67398 6.63369 5.90766 6.47893C6.36551 6.17561 6.82537 5.87479 7.28277 5.57081C7.69107 5.29949 7.6852 4.70013 7.2772 4.42836C6.76192 4.08509 6.24856 3.73976 5.72847 3.40157C5.66408 3.3597 5.58836 3.3383 5.51156 3.33953ZM16.441 3.32421C16.3948 3.33004 16.3535 3.35408 16.3144 3.37927C15.7873 3.71862 15.271 4.07351 14.7482 4.41928C14.3358 4.69205 14.3196 5.29908 14.7307 5.57387C15.1865 5.87857 15.647 6.17784 16.1057 6.47945C16.3364 6.63111 16.6353 6.63142 16.8659 6.47952C17.3238 6.17767 17.7822 5.87658 18.2384 5.57208C18.6471 5.29925 18.6391 4.69827 18.2292 4.42716C17.7696 4.12321 17.3124 3.81562 16.8552 3.50752C16.7308 3.42927 16.5997 3.30416 16.441 3.32421ZM6.38018 8.14134C6.31198 8.18864 6.24038 8.2334 6.1694 8.27908C5.87119 8.4711 5.93159 8.85414 6.22275 9.05668C7.68867 10.0763 9.21096 11.0278 10.6911 12.0312C11.0621 12.3066 11.4388 11.9366 11.7396 11.7517C13.1125 10.7935 14.5623 9.92458 15.9204 8.9497C16.1214 8.8054 16.165 8.48616 15.9513 8.36141C14.5391 7.42978 13.1299 6.49547 11.7192 5.56115C11.5864 5.46453 11.4485 5.37484 11.3057 5.29313C11.1023 5.17677 10.8521 5.19733 10.6554 5.32462C9.22148 6.25226 7.81414 7.21555 6.38018 8.14134ZM3.76923 11.7481C3.35973 12.0188 3.35393 12.6193 3.76208 12.8921C4.21868 13.1972 4.67721 13.5003 5.13485 13.8043C5.36567 13.9577 5.66594 13.958 5.89701 13.8051C6.35612 13.5011 6.81544 13.1979 7.27287 12.8924C7.68245 12.6189 7.67561 12.0154 7.26489 11.7437C6.80709 11.4407 6.35093 11.1355 5.89127 10.8358C5.66494 10.6881 5.37289 10.6891 5.14695 10.8373C4.68653 11.1394 4.22845 11.4444 3.76923 11.7481ZM14.7417 11.7449C14.3298 12.0161 14.3217 12.6202 14.7317 12.8942C15.1863 13.1979 15.6426 13.4992 16.0984 13.8011C16.3303 13.9547 16.6318 13.9537 16.8636 13.8C17.3228 13.4955 17.7852 13.1941 18.2418 12.8858C18.647 12.6123 18.6304 12.015 18.2228 11.7449C17.7658 11.4421 17.3129 11.134 16.8535 10.834C16.627 10.6862 16.3345 10.6888 16.109 10.8381C15.6531 11.1401 15.1986 11.4441 14.7417 11.7449Z" fill="url(#paint0_linear_451_3124)"/>
<path d="M10.5192 13.5947C10.7207 13.488 10.9558 13.2126 11.1939 13.4165C12.8396 14.4642 14.446 15.5633 16.0801 16.6272C16.1775 16.7036 16.3086 16.7677 16.3857 16.8637C16.4604 16.9569 16.4245 17.0916 16.3382 17.1742C16.2289 17.2788 16.0846 17.3546 15.9618 17.4441C14.4285 18.4459 12.9068 19.4599 11.3852 20.4779C11.1953 20.6278 10.9105 20.6966 10.709 20.5211C9.15081 19.495 7.60431 18.4499 6.04032 17.4305C5.96824 17.3762 5.88646 17.3256 5.81001 17.2703C5.59004 17.1111 5.68598 16.8237 5.90849 16.6681C7.41917 15.6119 8.99227 14.6316 10.5192 13.5947ZM9.24476 16.435C8.84972 16.6984 8.81748 17.2719 9.20884 17.5408C9.6719 17.8588 10.152 18.1572 10.6221 18.4665C10.8576 18.6215 11.1634 18.6235 11.3982 18.4675C11.8463 18.1697 12.2966 17.8743 12.7442 17.5753C13.1582 17.2986 13.1427 16.6845 12.7277 16.409C12.2259 16.0757 11.7308 15.7336 11.2215 15.4112C11.1716 15.3796 11.1177 15.36 11.0591 15.353C10.9738 15.3427 10.8852 15.3616 10.8119 15.4064C10.2783 15.7327 9.76475 16.0883 9.24476 16.435Z" fill="url(#paint1_linear_451_3124)"/>
<defs>
<linearGradient id="paint0_linear_451_3124" x1="11" y1="15.939" x2="11" y2="1.375" gradientUnits="userSpaceOnUse">
<stop stop-color="#5558FF"/>
<stop offset="1" stop-color="#00C0FF"/>
</linearGradient>
<linearGradient id="paint1_linear_451_3124" x1="10.9967" y1="20.6251" x2="10.9967" y2="13.3433" gradientUnits="userSpaceOnUse">
<stop stop-color="#5558FF"/>
<stop offset="1" stop-color="#00C0FF"/>
</linearGradient>
</defs>
</svg>
