<svg width="16" height="16" viewBox="0 0 16 16" fill="none" xmlns="http://www.w3.org/2000/svg">
<path fill-rule="evenodd" clip-rule="evenodd" d="M7.37062 13.7333C5.7375 13.7333 4.92057 13.7333 4.23857 13.3659C3.55713 12.9981 3.12462 12.325 2.25997 10.9793L2.25784 10.976L1.75917 10.1987C1.03097 9.06493 0.666504 8.49733 0.666504 7.86667C0.666504 7.236 1.03097 6.6684 1.75917 5.53467L2.2593 4.75733C3.12537 3.40873 3.55804 2.73553 4.24004 2.3674C4.9213 2 5.73824 2 7.37137 2H9.30517C12.1461 2 13.5673 2 14.4502 2.85947C15.3332 3.7182 15.3332 5.10127 15.3332 7.86667C15.3332 10.6321 15.3332 12.0151 14.4502 12.8739C13.5673 13.7333 12.1461 13.7333 9.30444 13.7333H7.37064H7.37062ZM6.75226 4.99171C6.83526 5.0287 6.91 5.08205 6.972 5.14856L8.04289 6.21949C8.43341 6.61003 9.06659 6.61003 9.45712 6.2195L10.5281 5.14856C10.6564 5.02898 10.8261 4.96389 11.0015 4.96698C11.1769 4.97008 11.3442 5.04112 11.4682 5.16514C11.5922 5.28917 11.6633 5.45649 11.6664 5.63186C11.6695 5.80723 11.6044 5.97695 11.4848 6.10528L10.4138 7.17624C10.0233 7.56677 10.0233 8.19994 10.4139 8.59046L11.4848 9.66136C11.6044 9.78969 11.6695 9.95942 11.6664 10.1348C11.6633 10.3102 11.5922 10.4775 11.4682 10.6015C11.3442 10.7256 11.1769 10.7966 11.0015 10.7997C10.8261 10.8028 10.6564 10.7377 10.5281 10.6181L9.45712 9.54714C9.06659 9.15661 8.43341 9.15662 8.04289 9.54716L6.972 10.6181C6.91 10.6846 6.83526 10.738 6.75226 10.775C6.6692 10.812 6.57956 10.8318 6.48867 10.8334C6.39778 10.835 6.3075 10.8183 6.22321 10.7843C6.13892 10.7502 6.06235 10.6996 5.99807 10.6353C5.93379 10.571 5.88312 10.4944 5.84907 10.4102C5.81502 10.3258 5.7983 10.2356 5.79991 10.1447C5.80152 10.0538 5.82141 9.96416 5.8584 9.88109C5.8954 9.79809 5.94875 9.72336 6.01526 9.66136L7.0862 8.59046C7.47673 8.19994 7.47674 7.56677 7.08621 7.17624L6.01526 6.10528C5.94875 6.0433 5.8954 5.96857 5.8584 5.88554C5.82141 5.8025 5.80152 5.71286 5.79991 5.62197C5.7983 5.53108 5.81502 5.4408 5.84907 5.35651C5.88312 5.27222 5.93379 5.19565 5.99807 5.13137C6.06235 5.0671 6.13892 5.01642 6.22321 4.98238C6.3075 4.94833 6.39778 4.93161 6.48867 4.93321C6.57956 4.93482 6.6692 4.95471 6.75226 4.99171Z" fill="url(#paint0_linear_640_109)"/>
<defs>
<linearGradient id="paint0_linear_640_109" x1="14.8377" y1="2.33537" x2="10.9866" y2="14.4227" gradientUnits="userSpaceOnUse">
<stop stop-color="#FE0F7C"/>
<stop offset="1" stop-color="#DF0066"/>
</linearGradient>
</defs>
</svg>
