<svg width="22" height="22" viewBox="0 0 22 22" fill="none" xmlns="http://www.w3.org/2000/svg">
<path fill-rule="evenodd" clip-rule="evenodd" d="M13.7575 3.04579C13.7575 2.16014 14.791 1.67693 15.4706 2.24487L20.4383 6.39647C21.1872 7.02233 21.1872 8.17337 20.4383 8.79923L15.4706 12.9508C14.791 13.5187 13.7575 13.0355 13.7575 12.1499V10.9607C13.7575 10.3842 13.2902 9.91693 12.7137 9.91693H8.53849C6.91481 9.91693 5.63909 11.1927 5.63909 12.8163C5.63909 14.44 6.91481 15.7158 8.53849 15.7158H8.71249C9.57717 15.7158 10.2782 16.4167 10.2782 17.2815V18.7892C10.2782 19.6539 9.57717 20.3549 8.71249 20.3549H8.53849C4.36331 20.3549 1 16.9915 1 12.8163C1 8.64115 4.36331 5.27784 8.53849 5.27784H12.7137C13.2902 5.27784 13.7575 4.81053 13.7575 4.23405V3.04579Z" fill="url(#paint0_linear_451_3050)"/>
<defs>
<linearGradient id="paint0_linear_451_3050" x1="11.4379" y1="20.3549" x2="11.4379" y2="0.813168" gradientUnits="userSpaceOnUse">
<stop stop-color="#00B59C"/>
<stop offset="1" stop-color="#9CFFAC"/>
</linearGradient>
</defs>
</svg>
