<svg width="22" height="22" viewBox="0 0 22 22" fill="none" xmlns="http://www.w3.org/2000/svg">
<path d="M3.66602 1.375C3.28632 1.375 2.97852 1.68281 2.97852 2.0625V8.70833C2.97852 9.08804 3.28632 9.39583 3.66602 9.39583H3.89519C4.27488 9.39583 4.58269 9.08804 4.58269 8.70833V3.66667C4.58269 3.28697 4.89049 2.97917 5.27019 2.97917H11.916C12.2957 2.97917 12.6035 3.28697 12.6035 3.66667V7.10417C12.6035 7.48386 12.9113 7.79167 13.291 7.79167H16.7285C17.1082 7.79167 17.416 8.09946 17.416 8.47917V8.70833C17.416 9.08804 17.7239 9.39583 18.1035 9.39583H18.3327C18.7124 9.39583 19.0202 9.08804 19.0202 8.70833V6.47228C19.0202 6.28994 18.9478 6.11506 18.8188 5.98613L14.409 1.57637C14.2801 1.44744 14.1053 1.375 13.923 1.375H3.66602Z" fill="url(#paint0_linear_451_3097)"/>
<path d="M1.375 11.6875C1.375 11.3078 1.68281 11 2.0625 11H19.9375C20.3171 11 20.625 11.3078 20.625 11.6875V11.9167C20.625 12.2964 20.3171 12.6042 19.9375 12.6042H2.0625C1.68281 12.6042 1.375 12.2964 1.375 11.9167V11.6875Z" fill="url(#paint1_linear_451_3097)"/>
<path d="M4.12501 14.025C4.12501 13.8731 4.24815 13.75 4.40003 13.75H5.45417C5.60604 13.75 5.72917 13.8732 5.72917 14.025L5.72914 19.8917C5.72914 20.0435 5.60603 20.1667 5.45414 20.1667H4.4C4.24812 20.1667 4.125 20.0435 4.125 19.8917L4.12501 14.025Z" fill="url(#paint2_linear_451_3097)"/>
<path d="M7.33302 14.025C7.33302 13.8731 7.45615 13.75 7.60802 13.75H8.66218C8.81405 13.75 8.93717 13.8732 8.93717 14.025L8.93715 19.8917C8.93715 20.0435 8.81403 20.1667 8.66215 20.1667H7.60801C7.45613 20.1667 7.33301 20.0435 7.33301 19.8917L7.33302 14.025Z" fill="url(#paint3_linear_451_3097)"/>
<path d="M10.541 14.025C10.541 13.8731 10.6642 13.75 10.816 13.75H11.8702C12.0221 13.75 12.1452 13.8732 12.1452 14.025L12.1452 19.8917C12.1452 20.0435 12.022 20.1667 11.8702 20.1667H10.816C10.6641 20.1667 10.541 20.0435 10.541 19.8917L10.541 14.025Z" fill="url(#paint4_linear_451_3097)"/>
<path d="M13.75 14.025C13.75 13.8731 13.8732 13.75 14.025 13.75H15.0792C15.231 13.75 15.3542 13.8732 15.3542 14.025V19.8917C15.3542 20.0435 15.231 20.1667 15.0792 20.1667H14.025C13.8731 20.1667 13.75 20.0435 13.75 19.8917V14.025Z" fill="url(#paint5_linear_451_3097)"/>
<path d="M16.958 14.025C16.958 13.8731 17.0812 13.75 17.233 13.75H18.2872C18.439 13.75 18.5622 13.8732 18.5622 14.025V19.8917C18.5622 20.0435 18.439 20.1667 18.2872 20.1667H17.233C17.0811 20.1667 16.958 20.0435 16.958 19.8917V14.025Z" fill="url(#paint6_linear_451_3097)"/>
<defs>
<linearGradient id="paint0_linear_451_3097" x1="18.5677" y1="5.38542" x2="8.63165" y2="-1.80307" gradientUnits="userSpaceOnUse">
<stop stop-color="#FE7970"/>
<stop offset="1" stop-color="#DC3282"/>
</linearGradient>
<linearGradient id="paint1_linear_451_3097" x1="20.082" y1="11.8021" x2="19.1667" y2="7.82849" gradientUnits="userSpaceOnUse">
<stop stop-color="#FE7970"/>
<stop offset="1" stop-color="#DC3282"/>
</linearGradient>
<linearGradient id="paint2_linear_451_3097" x1="4.92708" y1="20.1667" x2="4.92708" y2="13.75" gradientUnits="userSpaceOnUse">
<stop stop-color="#FF1B71"/>
<stop offset="0.9998" stop-color="#FF867E"/>
<stop offset="0.9999" stop-color="#FF6678"/>
</linearGradient>
<linearGradient id="paint3_linear_451_3097" x1="8.13509" y1="20.1667" x2="8.13509" y2="13.75" gradientUnits="userSpaceOnUse">
<stop stop-color="#FF1B71"/>
<stop offset="0.9998" stop-color="#FF867E"/>
<stop offset="0.9999" stop-color="#FF6678"/>
</linearGradient>
<linearGradient id="paint4_linear_451_3097" x1="11.3431" y1="20.1667" x2="11.3431" y2="13.75" gradientUnits="userSpaceOnUse">
<stop stop-color="#FF1B71"/>
<stop offset="0.9998" stop-color="#FF867E"/>
<stop offset="0.9999" stop-color="#FF6678"/>
</linearGradient>
<linearGradient id="paint5_linear_451_3097" x1="14.552" y1="20.1667" x2="14.552" y2="13.75" gradientUnits="userSpaceOnUse">
<stop stop-color="#FF1B71"/>
<stop offset="0.9998" stop-color="#FF867E"/>
<stop offset="0.9999" stop-color="#FF6678"/>
</linearGradient>
<linearGradient id="paint6_linear_451_3097" x1="17.76" y1="20.1667" x2="17.76" y2="13.75" gradientUnits="userSpaceOnUse">
<stop stop-color="#FF1B71"/>
<stop offset="0.9998" stop-color="#FF867E"/>
<stop offset="0.9999" stop-color="#FF6678"/>
</linearGradient>
</defs>
</svg>
