<svg width="16" height="16" viewBox="0 0 16 16" fill="none" xmlns="http://www.w3.org/2000/svg">
<path d="M1.4 1C1.17909 1 1 1.17909 1 1.4V14.6C1 14.8209 1.17909 15 1.4 15H14.6C14.8209 15 15 14.8209 15 14.6V1.4C15 1.17909 14.8209 1 14.6 1H1.4ZM2.16667 2.56667C2.16667 2.34575 2.34575 2.16667 2.56667 2.16667H5.26667C5.48758 2.16667 5.66667 2.34575 5.66667 2.56667V4.1C5.66667 4.32091 5.48758 4.5 5.26667 4.5H2.56667C2.34575 4.5 2.16667 4.32091 2.16667 4.1V2.56667ZM6.83333 2.56667C6.83333 2.34575 7.01242 2.16667 7.23333 2.16667H8.76667C8.98758 2.16667 9.16667 2.34575 9.16667 2.56667V4.1C9.16667 4.32091 8.98758 4.5 8.76667 4.5H7.23333C7.01242 4.5 6.83333 4.32091 6.83333 4.1V2.56667ZM10.3333 2.56667C10.3333 2.34575 10.5124 2.16667 10.7333 2.16667H13.4333C13.6542 2.16667 13.8333 2.34575 13.8333 2.56667V4.1C13.8333 4.32091 13.6542 4.5 13.4333 4.5H10.7333C10.5124 4.5 10.3333 4.32091 10.3333 4.1V2.56667ZM2.16667 6.06667C2.16667 5.84575 2.34575 5.66667 2.56667 5.66667H5.26667C5.48758 5.66667 5.66667 5.84575 5.66667 6.06667V8.76667C5.66667 8.98758 5.48758 9.16667 5.26667 9.16667H2.56667C2.34575 9.16667 2.16667 8.98758 2.16667 8.76667V6.06667ZM6.83333 6.06667C6.83333 5.84575 7.01242 5.66667 7.23333 5.66667H8.76667C8.98758 5.66667 9.16667 5.84575 9.16667 6.06667V8.76667C9.16667 8.98758 8.98758 9.16667 8.76667 9.16667H7.23333C7.01242 9.16667 6.83333 8.98758 6.83333 8.76667V6.06667ZM10.3333 6.06667C10.3333 5.84575 10.5124 5.66667 10.7333 5.66667H13.4333C13.6542 5.66667 13.8333 5.84575 13.8333 6.06667V8.76667C13.8333 8.98758 13.6542 9.16667 13.4333 9.16667H10.7333C10.5124 9.16667 10.3333 8.98758 10.3333 8.76667V6.06667ZM2.16667 10.7333C2.16667 10.5124 2.34575 10.3333 2.56667 10.3333H5.26667C5.48758 10.3333 5.66667 10.5124 5.66667 10.7333V13.4333C5.66667 13.6542 5.48758 13.8333 5.26667 13.8333H2.56667C2.34575 13.8333 2.16667 13.6542 2.16667 13.4333V10.7333ZM6.83333 10.7333C6.83333 10.5124 7.01242 10.3333 7.23333 10.3333H8.76667C8.98758 10.3333 9.16667 10.5124 9.16667 10.7333V13.4333C9.16667 13.6542 8.98758 13.8333 8.76667 13.8333H7.23333C7.01242 13.8333 6.83333 13.6542 6.83333 13.4333V10.7333ZM10.3333 10.7333C10.3333 10.5124 10.5124 10.3333 10.7333 10.3333H13.4333C13.6542 10.3333 13.8333 10.5124 13.8333 10.7333V13.4333C13.8333 13.6542 13.6542 13.8333 13.4333 13.8333H10.7333C10.5124 13.8333 10.3333 13.6542 10.3333 13.4333V10.7333Z" fill="url(#paint0_linear_160_81)"/>
<rect x="6" y="1" width="4" height="14" fill="url(#paint1_linear_160_81)"/>
<path fill-rule="evenodd" clip-rule="evenodd" d="M7.32034 8L6.64069 8.67966C6.4531 8.86724 6.4531 9.17173 6.64069 9.35931C6.82827 9.5469 7.13276 9.5469 7.32034 9.35931L8 8.67966L8.67966 9.35931C8.86724 9.5469 9.17173 9.5469 9.35931 9.35931C9.5469 9.17173 9.5469 8.86724 9.35931 8.67966L8.67966 8L9.35931 7.32034C9.5469 7.13276 9.5469 6.82827 9.35931 6.64069C9.17173 6.4531 8.86724 6.4531 8.67966 6.64069L8 7.32034L7.32034 6.64069C7.13276 6.4531 6.82827 6.4531 6.64069 6.64069C6.4531 6.82827 6.4531 7.13276 6.64069 7.32034L7.32034 8Z" fill="url(#paint2_linear_160_81)"/>
<defs>
<linearGradient id="paint0_linear_160_81" x1="2.4" y1="15.0044" x2="7.45636" y2="-0.166609" gradientUnits="userSpaceOnUse">
<stop stop-color="#22B4FA"/>
<stop offset="1" stop-color="#6BD6FE"/>
</linearGradient>
<linearGradient id="paint1_linear_160_81" x1="6.75" y1="13.25" x2="12.2084" y2="11.3786" gradientUnits="userSpaceOnUse">
<stop stop-color="#FF405B"/>
<stop offset="1" stop-color="#FF8860"/>
</linearGradient>
<linearGradient id="paint2_linear_160_81" x1="7.35681" y1="9.49994" x2="8.33598" y2="7.16863" gradientUnits="userSpaceOnUse">
<stop stop-color="#FF8860"/>
<stop offset="1" stop-color="white"/>
</linearGradient>
</defs>
</svg>
