<svg width="22" height="22" viewBox="0 0 22 22" fill="none" xmlns="http://www.w3.org/2000/svg">
<path d="M9.40555 7.48055C8.99862 7.07362 8.91399 6.45919 9.01581 5.89284C9.05465 5.67691 9.075 5.45409 9.075 5.225C9.075 3.09787 7.35213 1.375 5.225 1.375C3.09787 1.375 1.375 3.09787 1.375 5.225C1.375 7.35213 3.09787 9.075 5.225 9.075C5.45409 9.075 5.67691 9.05465 5.89284 9.01581C6.45918 8.91399 7.07362 8.99862 7.48055 9.40555L8.10274 10.0277C8.63967 10.5647 8.63967 11.4353 8.10274 11.9723L7.48055 12.5945C7.07362 13.0014 6.45918 13.086 5.89284 12.9842C5.67691 12.9454 5.45409 12.925 5.225 12.925C3.09787 12.925 1.375 14.6479 1.375 16.775C1.375 18.9021 3.09787 20.625 5.225 20.625C7.35213 20.625 9.075 18.9021 9.075 16.775C9.075 16.5459 9.05465 16.3231 9.01581 16.1072C8.91399 15.5408 8.99862 14.9264 9.40555 14.5194L10.0277 13.8973C10.5647 13.3603 11.4353 13.3603 11.9723 13.8973L17.3348 19.2598C17.5926 19.5176 17.9424 19.6625 18.307 19.6625H19.9444C20.3203 19.6625 20.625 19.3578 20.625 18.9819C20.625 18.8014 20.5533 18.6283 20.4257 18.5007L9.40555 7.48055ZM5.225 7.15C4.16625 7.15 3.3 6.29337 3.3 5.225C3.3 4.15662 4.16625 3.3 5.225 3.3C6.28375 3.3 7.15 4.15662 7.15 5.225C7.15 6.29337 6.28375 7.15 5.225 7.15ZM5.225 18.7C4.16625 18.7 3.3 17.8434 3.3 16.775C3.3 15.7066 4.16625 14.85 5.225 14.85C6.28375 14.85 7.15 15.7066 7.15 16.775C7.15 17.8434 6.28375 18.7 5.225 18.7ZM11 11.4813C10.7305 11.4813 10.5188 11.2695 10.5188 11C10.5188 10.7305 10.7305 10.5188 11 10.5188C11.2695 10.5188 11.4813 10.7305 11.4813 11C11.4813 11.2695 11.2695 11.4813 11 11.4813ZM18.307 2.3375C17.9424 2.3375 17.5926 2.48236 17.3348 2.74023L12.925 7.15C12.3934 7.68157 12.3934 8.54342 12.925 9.075C13.4566 9.60657 14.3184 9.60657 14.85 9.075L20.4257 3.49934C20.5533 3.37171 20.625 3.19859 20.625 3.01809C20.625 2.64221 20.3203 2.3375 19.9444 2.3375H18.307Z" fill="url(#paint0_linear_451_3105)" stroke="url(#paint1_linear_451_3105)" stroke-width="0.6"/>
<defs>
<linearGradient id="paint0_linear_451_3105" x1="11" y1="20.625" x2="11" y2="1.375" gradientUnits="userSpaceOnUse">
<stop stop-color="#FD2E00"/>
<stop offset="1" stop-color="#FF9900"/>
</linearGradient>
<linearGradient id="paint1_linear_451_3105" x1="11" y1="20.625" x2="11" y2="1.375" gradientUnits="userSpaceOnUse">
<stop stop-color="#FD2E00"/>
<stop offset="1" stop-color="#FF9900"/>
</linearGradient>
</defs>
</svg>
