<svg width="16" height="16" viewBox="0 0 16 16" fill="none" xmlns="http://www.w3.org/2000/svg">
<path fill-rule="evenodd" clip-rule="evenodd" d="M6.08317 2.8335C6.08317 2.42104 6.42072 2.0835 6.83317 2.0835H9.1665C9.37268 2.0835 9.55757 2.16521 9.69619 2.30383C9.8348 2.44244 9.9165 2.6273 9.9165 2.8335C9.9165 3.24595 9.57896 3.5835 9.1665 3.5835H6.83317C6.62699 3.5835 6.4421 3.50178 6.30348 3.36316C6.16487 3.22456 6.08317 3.03969 6.08317 2.8335ZM11.2035 1.87765C11.27 2.01886 11.3988 2.12398 11.5528 2.14909C12.0757 2.23433 12.5919 2.41669 13.028 2.77449C13.7435 3.36147 14.0832 4.28232 14.0832 5.50016V12.0002C14.0832 13.1537 13.7332 14.0547 13.0425 14.6511C12.3724 15.2298 11.501 15.4168 10.6665 15.4168H5.33317C4.49864 15.4168 3.62728 15.2298 2.95715 14.6511C2.26646 14.0547 1.9165 13.1537 1.9165 12.0002V5.50016C1.9165 4.28232 2.25614 3.36147 2.97165 2.77449C3.40783 2.41665 3.92412 2.23429 4.44701 2.14906C4.60105 2.12396 4.72985 2.01884 4.79635 1.87766C5.1563 1.11352 5.93387 0.583496 6.83317 0.583496H9.1665C9.78699 0.583496 10.3488 0.835121 10.7569 1.24317C10.9402 1.4265 11.0919 1.64087 11.2035 1.87765ZM11.5892 3.69114C11.4082 3.63859 11.2292 3.7518 11.1382 3.91688C10.7549 4.61182 10.0149 5.0835 9.1665 5.0835H6.83317C6.21268 5.0835 5.65087 4.83187 5.24282 4.42382C5.03879 4.21979 4.87388 3.97733 4.75997 3.70832C4.73923 3.65933 4.68846 3.62898 4.63613 3.63854C4.32695 3.69501 4.09342 3.79439 3.92303 3.93417C3.67353 4.13885 3.4165 4.55133 3.4165 5.50016V12.0002C3.4165 12.8466 3.66322 13.279 3.93753 13.5159C4.2324 13.7705 4.69437 13.9168 5.33317 13.9168H10.6665C11.3053 13.9168 11.7673 13.7705 12.0621 13.5159C12.3365 13.279 12.5832 12.8466 12.5832 12.0002V5.50016C12.5832 4.55133 12.3261 4.13885 12.0766 3.93417C11.9505 3.83067 11.7897 3.74932 11.5892 3.69114ZM4.58317 8.66683C4.58317 8.25262 4.91896 7.91683 5.33317 7.91683H7.99984C8.41405 7.91683 8.74984 8.25262 8.74984 8.66683C8.74984 9.08104 8.41405 9.41683 7.99984 9.41683H5.33317C4.91896 9.41683 4.58317 9.08104 4.58317 8.66683ZM5.33317 10.5835C4.91896 10.5835 4.58317 10.9193 4.58317 11.3335C4.58317 11.7477 4.91896 12.0835 5.33317 12.0835H10.6665C11.0807 12.0835 11.4165 11.7477 11.4165 11.3335C11.4165 10.9193 11.0807 10.5835 10.6665 10.5835H5.33317Z" fill="url(#paint0_linear_620_179)" stroke="url(#paint1_linear_620_179)" stroke-width="0.4"/>
<defs>
<linearGradient id="paint0_linear_620_179" x1="7.99984" y1="15.4168" x2="7.99984" y2="0.583496" gradientUnits="userSpaceOnUse">
<stop stop-color="#A93AFF"/>
<stop offset="1" stop-color="#FF81FF"/>
</linearGradient>
<linearGradient id="paint1_linear_620_179" x1="7.99984" y1="15.4168" x2="7.99984" y2="0.583496" gradientUnits="userSpaceOnUse">
<stop stop-color="#A93AFF"/>
<stop offset="1" stop-color="#FF81FF"/>
</linearGradient>
</defs>
</svg>
