<svg width="16" height="16" viewBox="0 0 16 16" fill="none" xmlns="http://www.w3.org/2000/svg">
<path d="M6.36364 15C6.91592 15 7.36364 14.5523 7.36364 14V9.63635C7.36364 9.08407 6.91592 8.63635 6.36364 8.63635H2C1.44772 8.63635 1 9.08407 1 9.63635V14C1 14.5523 1.44772 15 2 15H6.36364Z" fill="url(#paint0_linear_161_124)"/>
<path d="M7.36364 2V6.36364C7.36364 6.91592 6.91592 7.36364 6.36364 7.36364H2C1.44772 7.36364 1 6.91592 1 6.36364V2C1 1.44772 1.44772 1 2 1H6.36364C6.91592 1 7.36364 1.44772 7.36364 2Z" fill="url(#paint1_linear_161_124)"/>
<path d="M15 2V6.36364C15 6.91592 14.5523 7.36364 14 7.36364H9.63635C9.08407 7.36364 8.63635 6.91592 8.63635 6.36364V2C8.63635 1.44772 9.08407 1 9.63635 1H14C14.5523 1 15 1.44772 15 2Z" fill="url(#paint2_linear_161_124)"/>
<path fill-rule="evenodd" clip-rule="evenodd" d="M10.2782 11.6375C10.4784 11.8377 10.4784 12.1623 10.2782 12.3625L9.28138 13.3593C8.90621 13.7345 8.90621 14.3435 9.28138 14.7186C9.65655 15.0938 10.2655 15.0938 10.6407 14.7186L11.6375 13.7218C11.8377 13.5216 12.1623 13.5216 12.3625 13.7218L13.3593 14.7186C13.7345 15.0938 14.3435 15.0938 14.7186 14.7186C15.0938 14.3435 15.0938 13.7345 14.7186 13.3593L13.7218 12.3625C13.5216 12.1623 13.5216 11.8377 13.7218 11.6375L14.7186 10.6407C15.0938 10.2655 15.0938 9.65655 14.7186 9.28138C14.3435 8.90621 13.7345 8.90621 13.3593 9.28138L12.3625 10.2782C12.1623 10.4784 11.8377 10.4784 11.6375 10.2782L10.6407 9.28138C10.2655 8.90621 9.65655 8.90621 9.28138 9.28138C8.90621 9.65655 8.90621 10.2655 9.28138 10.6407L10.2782 11.6375Z" fill="url(#paint3_linear_161_124)"/>
<defs>
<linearGradient id="paint0_linear_161_124" x1="2.81747" y1="14.9999" x2="4.89451" y2="10.0547" gradientUnits="userSpaceOnUse">
<stop stop-color="#FF8860"/>
<stop offset="1" stop-color="white"/>
</linearGradient>
<linearGradient id="paint1_linear_161_124" x1="2.81747" y1="7.3635" x2="4.89451" y2="2.41831" gradientUnits="userSpaceOnUse">
<stop stop-color="#FF8860"/>
<stop offset="1" stop-color="white"/>
</linearGradient>
<linearGradient id="paint2_linear_161_124" x1="10.4538" y1="7.3635" x2="12.5309" y2="2.41831" gradientUnits="userSpaceOnUse">
<stop stop-color="#FF8860"/>
<stop offset="1" stop-color="white"/>
</linearGradient>
<linearGradient id="paint3_linear_161_124" x1="10.125" y1="14.25" x2="13.875" y2="9.75" gradientUnits="userSpaceOnUse">
<stop stop-color="#FF405B"/>
<stop offset="1" stop-color="#FF8860"/>
</linearGradient>
</defs>
</svg>
