<svg width="22" height="22" viewBox="0 0 22 22" fill="none" xmlns="http://www.w3.org/2000/svg">
<path d="M19.5113 1.54765C19.3919 1.45256 19.2178 1.47298 19.1236 1.59313L13.9989 8.12992C13.9244 8.22502 13.7968 8.25967 13.6824 8.22056C12.6642 7.87223 11.3942 7.76942 9.64446 7.79032C9.57458 7.79116 9.50664 7.81956 9.45616 7.86789C7.37217 9.86327 5.94568 10.5267 1.73669 10.9868C1.65972 10.9953 1.58785 11.0356 1.55133 11.1039C1.42717 11.3359 1.19655 11.9298 1.61409 12.6043C2.15203 13.4733 7.11866 20.6251 12.7038 20.6251H14.1523C14.2379 20.6251 14.3184 20.5859 14.3694 20.5173C16.0273 18.2871 17.1797 14.6832 17.4565 14.2084C17.7379 13.7259 17.7107 13.1817 17.4565 12.6043C17.2208 12.0687 16.2748 10.2285 15.5269 9.38114C15.4334 9.27523 15.4217 9.11681 15.5085 9.00536L20.4578 2.64877C20.5505 2.52985 20.53 2.35854 20.4122 2.26467L19.5113 1.54765ZM10.2917 9.61752C10.3444 9.57987 10.4099 9.56139 10.4744 9.56794C13.4496 9.87046 15.2922 13.0644 15.6003 13.638C15.6311 13.6952 15.6383 13.7588 15.6215 13.8216C15.4817 14.3445 14.7439 16.9063 13.2281 18.8555C13.1718 18.9281 13.0801 18.9659 12.9887 18.9572C8.28493 18.5088 6.53417 16.7521 3.96897 12.7325C3.85531 12.5544 3.97852 12.3199 4.1891 12.3026C6.70779 12.0958 8.21176 11.1025 10.2917 9.61752Z" fill="url(#paint0_linear_451_3113)" stroke="url(#paint1_linear_451_3113)" stroke-width="0.6"/>
<path d="M1.61426 2.7673C1.61426 1.99836 2.22986 1.375 2.98927 1.375C3.74866 1.375 4.36426 1.99836 4.36426 2.7673C4.36426 3.53625 3.74866 4.15961 2.98927 4.15961C2.22986 4.15961 1.61426 3.53625 1.61426 2.7673Z" fill="url(#paint2_linear_451_3113)"/>
<path d="M6.36621 2.41922C6.36621 1.84251 6.82794 1.375 7.39746 1.375C7.96701 1.375 8.42871 1.84251 8.42871 2.41922C8.42871 2.99592 7.96701 3.46343 7.39746 3.46343C6.82794 3.46343 6.36621 2.99592 6.36621 2.41922Z" fill="url(#paint3_linear_451_3113)"/>
<path d="M3.19824 6.67194C3.19824 5.51854 4.12166 4.5835 5.26076 4.5835C6.39985 4.5835 7.32324 5.51854 7.32324 6.67194C7.32324 7.82536 6.39985 8.7604 5.26076 8.7604C4.12166 8.7604 3.19824 7.82536 3.19824 6.67194Z" fill="url(#paint4_linear_451_3113)"/>
<defs>
<linearGradient id="paint0_linear_451_3113" x1="11" y1="20.6251" x2="11" y2="1.37511" gradientUnits="userSpaceOnUse">
<stop stop-color="#FD3A84"/>
<stop offset="1" stop-color="#FFA68D"/>
</linearGradient>
<linearGradient id="paint1_linear_451_3113" x1="11" y1="20.6251" x2="11" y2="1.37511" gradientUnits="userSpaceOnUse">
<stop stop-color="#FD3A84"/>
<stop offset="1" stop-color="#FFA68D"/>
</linearGradient>
<linearGradient id="paint2_linear_451_3113" x1="1.61264" y1="6.77918" x2="12.6119" y2="6.77918" gradientUnits="userSpaceOnUse">
<stop stop-color="#FD3A84"/>
<stop offset="1" stop-color="#FFA68D"/>
</linearGradient>
<linearGradient id="paint3_linear_451_3113" x1="0.177534" y1="5.42809" x2="8.42691" y2="5.42809" gradientUnits="userSpaceOnUse">
<stop stop-color="#FD3A84"/>
<stop offset="1" stop-color="#FFA68D"/>
</linearGradient>
<linearGradient id="paint4_linear_451_3113" x1="1.13454" y1="4.45973" x2="9.38394" y2="4.45973" gradientUnits="userSpaceOnUse">
<stop stop-color="#FD3A84"/>
<stop offset="1" stop-color="#FFA68D"/>
</linearGradient>
</defs>
</svg>
