<svg width="22" height="22" viewBox="0 0 22 22" fill="none" xmlns="http://www.w3.org/2000/svg">
<path d="M12.8333 1.375C12.4536 1.375 12.1458 1.68281 12.1458 2.0625V8.70833C12.1458 9.08804 11.838 9.39583 11.4583 9.39583H8.02083C7.64114 9.39583 7.33333 9.70364 7.33333 10.0833V10.3125C7.33333 10.6922 7.64114 11 8.02083 11H17.875C18.2546 11 18.5625 10.6922 18.5625 10.3125V10.0833C18.5625 9.70364 18.2546 9.39583 17.875 9.39583H14.4375C14.0579 9.39583 13.75 9.08804 13.75 8.70833V2.0625C13.75 1.68281 13.4422 1.375 13.0625 1.375H12.8333ZM8.02083 12.6042C7.64114 12.6042 7.33459 12.9127 7.3217 13.2921C7.18212 17.3998 5.80422 20.625 4.125 20.625H10.5417H12.1458H15.3542C17.0334 20.625 18.4112 17.3998 18.5508 13.2921C18.5637 12.9127 18.2546 12.6042 17.875 12.6042H15.3542H12.1458H10.5417H8.02083Z" fill="url(#paint0_linear_451_3056)" stroke="url(#paint1_linear_451_3056)" stroke-width="0.5"/>
<defs>
<linearGradient id="paint0_linear_451_3056" x1="11.3438" y1="20.625" x2="11.3438" y2="1.375" gradientUnits="userSpaceOnUse">
<stop stop-color="#FFA800"/>
<stop offset="1" stop-color="#FFF737"/>
</linearGradient>
<linearGradient id="paint1_linear_451_3056" x1="11.3438" y1="20.625" x2="11.3438" y2="1.375" gradientUnits="userSpaceOnUse">
<stop stop-color="#FFA800"/>
<stop offset="1" stop-color="#FFF737"/>
</linearGradient>
</defs>
</svg>
