<svg width="22" height="22" viewBox="0 0 22 22" fill="none" xmlns="http://www.w3.org/2000/svg">
<path d="M5.32812 1.375C4.69769 1.375 4.125 1.94769 4.125 2.57812C4.125 3.20856 4.69769 3.78125 5.32812 3.78125C5.95856 3.78125 6.53125 3.20856 6.53125 2.57812C6.53125 1.94769 5.95856 1.375 5.32812 1.375ZM7.17504 5.47794C6.91183 5.27615 6.5315 5.46393 6.53167 5.79559L6.53865 19.4244C6.53885 19.8089 7.02841 19.9717 7.25884 19.664L11.2238 14.3685C11.2993 14.2677 11.4179 14.2083 11.544 14.2083H17.3833C17.7656 14.2083 17.9301 13.7234 17.6267 13.4908L7.17504 5.47794Z" fill="url(#paint0_linear_451_3037)"/>
<defs>
<linearGradient id="paint0_linear_451_3037" x1="4.12712" y1="10.7148" x2="18.5648" y2="10.7148" gradientUnits="userSpaceOnUse">
<stop stop-color="#A93AFF"/>
<stop offset="1" stop-color="#FF81FF"/>
</linearGradient>
</defs>
</svg>
