<svg width="22" height="22" viewBox="0 0 22 22" fill="none" xmlns="http://www.w3.org/2000/svg">
<path d="M20.0322 18.5864L16.5703 15.1346C17.6873 13.7118 18.2933 11.9545 18.2911 10.1455C18.2911 8.5345 17.8133 6.95963 16.9183 5.62012C16.0233 4.28059 14.7511 3.23656 13.2627 2.62005C11.7743 2.00353 10.1365 1.84222 8.55641 2.15651C6.97634 2.47081 5.52494 3.2466 4.38577 4.38577C3.2466 5.52494 2.47081 6.97634 2.15651 8.55641C1.84222 10.1365 2.00353 11.7743 2.62005 13.2627C3.23656 14.7511 4.28059 16.0233 5.62012 16.9183C6.95963 17.8133 8.5345 18.2911 10.1455 18.2911C11.9545 18.2933 13.7118 17.6873 15.1346 16.5703L18.5864 20.0322C18.681 20.1275 18.7937 20.2033 18.9176 20.255C19.0418 20.3067 19.1748 20.3333 19.3092 20.3333C19.4437 20.3333 19.5767 20.3067 19.7008 20.255C19.8249 20.2033 19.9375 20.1275 20.0322 20.0322C20.1275 19.9375 20.2033 19.8249 20.255 19.7008C20.3067 19.5767 20.3333 19.4437 20.3333 19.3092C20.3333 19.1748 20.3067 19.0418 20.255 18.9176C20.2033 18.7937 20.1275 18.681 20.0322 18.5864ZM4.03638 10.1455C4.03638 8.93726 4.39468 7.75612 5.06597 6.75147C5.73723 5.74682 6.69136 4.9638 7.80766 4.50142C8.92396 4.03902 10.1524 3.91805 11.3374 4.15376C12.5224 4.38949 13.611 4.97133 14.4653 5.82571C15.3197 6.68009 15.9016 7.76864 16.1373 8.9537C16.373 10.1386 16.252 11.3671 15.7897 12.4835C15.3273 13.5998 14.5441 14.5538 13.5396 15.2251C12.5349 15.8963 11.3539 16.2546 10.1455 16.2546C8.52527 16.2546 6.9714 15.6111 5.82571 14.4653C4.68001 13.3196 4.03638 11.7657 4.03638 10.1455Z" fill="url(#paint0_linear_451_3075)" stroke="url(#paint1_linear_451_3075)"/>
<defs>
<linearGradient id="paint0_linear_451_3075" x1="11.1667" y1="20.3333" x2="11.1667" y2="2" gradientUnits="userSpaceOnUse">
<stop stop-color="#5558FF"/>
<stop offset="1" stop-color="#00C0FF"/>
</linearGradient>
<linearGradient id="paint1_linear_451_3075" x1="11.1667" y1="20.3333" x2="11.1667" y2="2" gradientUnits="userSpaceOnUse">
<stop stop-color="#5558FF"/>
<stop offset="1" stop-color="#00C0FF"/>
</linearGradient>
</defs>
</svg>
