<svg width="16" height="16" viewBox="0 0 16 16" fill="none" xmlns="http://www.w3.org/2000/svg">
<path fill-rule="evenodd" clip-rule="evenodd" d="M2.75 7.00016C2.75 4.13644 5.02323 2.0835 8 2.0835C10.9768 2.0835 13.25 4.13644 13.25 7.00016C13.25 9.37247 12.1989 11.1019 10.9844 12.2518C10.3743 12.8294 9.72809 13.2548 9.16692 13.5329C8.58095 13.8234 8.16261 13.9167 8 13.9167C7.83739 13.9167 7.41905 13.8234 6.83308 13.5329C6.27191 13.2548 5.62573 12.8294 5.01563 12.2518C3.80107 11.1019 2.75 9.37247 2.75 7.00016ZM8 0.583496C4.31011 0.583496 1.25 3.19722 1.25 7.00016C1.25 9.8624 2.53227 11.9663 3.98437 13.341C4.7076 14.0257 5.47809 14.5355 6.16692 14.8769C6.83095 15.206 7.49594 15.4167 8 15.4167C8.50406 15.4167 9.16905 15.206 9.83308 14.8769C10.5219 14.5355 11.2924 14.0257 12.0156 13.341C13.4677 11.9663 14.75 9.8624 14.75 7.00016C14.75 3.19722 11.6899 0.583496 8 0.583496ZM6.75 7.3335C6.75 6.64314 7.30964 6.0835 8 6.0835C8.69036 6.0835 9.25 6.64314 9.25 7.3335C9.25 8.02385 8.69036 8.5835 8 8.5835C7.30964 8.5835 6.75 8.02385 6.75 7.3335ZM8 4.5835C6.48122 4.5835 5.25 5.81471 5.25 7.3335C5.25 8.85228 6.48122 10.0835 8 10.0835C9.51878 10.0835 10.75 8.85228 10.75 7.3335C10.75 5.81471 9.51878 4.5835 8 4.5835Z" fill="url(#paint0_linear_488_575)"/>
<defs>
<linearGradient id="paint0_linear_488_575" x1="1.05487" y1="0.729453" x2="16.3223" y2="15.0497" gradientUnits="userSpaceOnUse">
<stop stop-color="#F9D423"/>
<stop offset="0.515624" stop-color="#FF4E50"/>
<stop offset="0.991304" stop-color="#8A2387"/>
</linearGradient>
</defs>
</svg>
