<svg width="16" height="16" viewBox="0 0 16 16" fill="none" xmlns="http://www.w3.org/2000/svg">
<path fill-rule="evenodd" clip-rule="evenodd" d="M3.88612 1C3.89739 1 3.90868 1 3.92 1L8.51389 1C8.82071 0.999975 9.10819 0.999951 9.34959 1.01967C9.61154 1.04108 9.90597 1.09059 10.1988 1.23979C10.6127 1.45071 10.9493 1.78727 11.1602 2.20122C11.3094 2.49404 11.3589 2.78847 11.3803 3.05041C11.4001 3.29182 11.4 3.57931 11.4 3.88614L11.4 4.6L12.1139 4.6C12.4207 4.59998 12.7082 4.59995 12.9496 4.61967C13.2115 4.64108 13.506 4.69059 13.7988 4.83979C14.2127 5.05071 14.5493 5.38727 14.7602 5.80123C14.9094 6.09404 14.9589 6.38847 14.9803 6.65041C15.0001 6.89181 15 7.17928 15 7.4861V12.1139C15 12.4207 15.0001 12.7082 14.9803 12.9496C14.9589 13.2115 14.9094 13.506 14.7602 13.7988C14.5493 14.2127 14.2127 14.5493 13.7988 14.7602C13.506 14.9094 13.2115 14.9589 12.9496 14.9803C12.7082 15.0001 12.4207 15 12.1139 15H7.4861C7.17928 15 6.89181 15.0001 6.65041 14.9803C6.38847 14.9589 6.09404 14.9094 5.80123 14.7602C5.38727 14.5493 5.05071 14.2127 4.83979 13.7988C4.69059 13.506 4.64108 13.2115 4.61967 12.9496C4.59995 12.7082 4.59998 12.4207 4.6 12.1139L4.6 11.4L3.88614 11.4C3.57931 11.4 3.29182 11.4001 3.05041 11.3803C2.78847 11.3589 2.49404 11.3094 2.20122 11.1602C1.78727 10.9493 1.45071 10.6127 1.23979 10.1988C1.09059 9.90597 1.04108 9.61154 1.01967 9.34959C0.999951 9.10819 0.999975 8.82071 1 8.51389L1 3.92C1 3.90868 1 3.89739 1 3.88612C0.999975 3.57929 0.999951 3.29182 1.01967 3.05041C1.04108 2.78847 1.09059 2.49404 1.23979 2.20122C1.45071 1.78727 1.78727 1.45071 2.20122 1.23979C2.49404 1.09059 2.78847 1.04108 3.05041 1.01967C3.29182 0.999951 3.57929 0.999975 3.88612 1ZM6.6 12.08C6.6 12.4325 6.60078 12.6368 6.61303 12.7867C6.61843 12.8528 6.62487 12.8877 6.62812 12.9023C6.64516 12.9309 6.6691 12.9548 6.69774 12.9719C6.71228 12.9751 6.74722 12.9816 6.81328 12.987C6.96321 12.9992 7.16747 13 7.52 13H12.08C12.4325 13 12.6368 12.9992 12.7867 12.987C12.8528 12.9816 12.8877 12.9751 12.9023 12.9719C12.9309 12.9548 12.9548 12.9309 12.9719 12.9023C12.9751 12.8877 12.9816 12.8528 12.987 12.7867C12.9992 12.6368 13 12.4325 13 12.08V7.52C13 7.16747 12.9992 6.96321 12.987 6.81328C12.9816 6.74722 12.9751 6.71228 12.9719 6.69774C12.9548 6.6691 12.9309 6.64516 12.9023 6.62812C12.8877 6.62487 12.8528 6.61843 12.7867 6.61303C12.6368 6.60078 12.4325 6.6 12.08 6.6H7.52C7.16747 6.6 6.96321 6.60078 6.81328 6.61303C6.74722 6.61843 6.71228 6.62487 6.69775 6.62812C6.6691 6.64516 6.64516 6.6691 6.62812 6.69775C6.62487 6.71228 6.61843 6.74722 6.61303 6.81328C6.60078 6.96321 6.6 7.16747 6.6 7.52V12.08ZM9.4 4.6L7.48612 4.6C7.17929 4.59998 6.89182 4.59995 6.65041 4.61967C6.38847 4.64108 6.09404 4.69059 5.80123 4.83979C5.38727 5.05071 5.05071 5.38727 4.83979 5.80123C4.69059 6.09404 4.64108 6.38847 4.61967 6.65041C4.59995 6.89182 4.59998 7.17929 4.6 7.48612L4.6 9.4H3.92C3.56747 9.4 3.36321 9.39923 3.21328 9.38698C3.14722 9.38158 3.11228 9.37514 3.09774 9.37189C3.0691 9.35484 3.04516 9.33091 3.02812 9.30226C3.02487 9.28773 3.01843 9.25279 3.01303 9.18673C3.00078 9.03679 3 8.83254 3 8.48V3.92C3 3.56747 3.00078 3.36321 3.01303 3.21328C3.01843 3.14722 3.02487 3.11228 3.02812 3.09774C3.04516 3.0691 3.0691 3.04516 3.09774 3.02812C3.11228 3.02487 3.14722 3.01843 3.21328 3.01303C3.36321 3.00078 3.56747 3 3.92 3H8.48C8.83254 3 9.03679 3.00078 9.18673 3.01303C9.25279 3.01843 9.28773 3.02487 9.30226 3.02812C9.33091 3.04516 9.35484 3.0691 9.37189 3.09774C9.37514 3.11228 9.38158 3.14722 9.38698 3.21328C9.39923 3.36321 9.4 3.56747 9.4 3.92V4.6Z" fill="url(#paint0_linear_482_80)"/>
<defs>
<linearGradient id="paint0_linear_482_80" x1="1" y1="8" x2="15" y2="8" gradientUnits="userSpaceOnUse">
<stop stop-color="#2FFFFF"/>
<stop offset="0.27" stop-color="#2AE7FF"/>
<stop offset="0.82" stop-color="#1EAAFF"/>
<stop offset="1" stop-color="#1A95FF"/>
</linearGradient>
</defs>
</svg>
