<svg width="22" height="22" viewBox="0 0 22 22" fill="none" xmlns="http://www.w3.org/2000/svg">
<path d="M20.0222 12.4475H13.6538C13.3724 12.4475 13.1023 12.3357 12.9033 12.1366C12.7043 11.9376 12.5924 11.6676 12.5924 11.3862C12.5924 11.1047 12.7043 10.8346 12.9033 10.6356C13.1023 10.4366 13.3724 10.3248 13.6538 10.3248H20.0222C20.3038 10.3248 20.5737 10.4366 20.7728 10.6356C20.9718 10.8346 21.0837 11.1047 21.0837 11.3862C21.0837 11.6676 20.9718 11.9376 20.7728 12.1366C20.5737 12.3357 20.3038 12.4475 20.0222 12.4475ZM16.838 15.6317C16.5565 15.6317 16.2866 15.5199 16.0875 15.3209C15.8885 15.1219 15.7766 14.8518 15.7766 14.5703V8.20192C15.7766 7.92041 15.8885 7.65044 16.0875 7.45139C16.2866 7.25234 16.5565 7.14051 16.838 7.14051C17.1195 7.14051 17.3896 7.25234 17.5886 7.45139C17.7876 7.65044 17.8994 7.92041 17.8994 8.20192V14.5703C17.8994 14.8518 17.7876 15.1219 17.5886 15.3209C17.3896 15.5199 17.1195 15.6317 16.838 15.6317ZM7.28541 3.9563C9.04098 3.9563 10.4697 5.38496 10.4697 7.14051C10.4697 8.89607 9.04098 10.3248 7.28541 10.3248C5.52985 10.3248 4.1012 8.89607 4.1012 7.14051C4.1012 5.38496 5.52985 3.9563 7.28541 3.9563ZM7.28541 1.8335C4.3517 1.8335 1.97839 4.20892 1.97839 7.14051C1.97839 10.0721 4.3517 12.4475 7.28541 12.4475C10.2191 12.4475 12.5924 10.0721 12.5924 7.14051C12.5924 4.20892 10.2191 1.8335 7.28541 1.8335ZM7.28541 15.6317C9.43053 15.6317 10.7891 16.4501 11.3007 17.1655C10.5757 17.4414 9.21081 17.7545 7.28541 17.7545C5.17959 17.7545 3.88256 17.4309 3.23298 17.1792C3.72016 16.4203 5.11909 15.6317 7.28541 15.6317ZM7.28541 13.5089C3.30515 13.5089 0.916992 15.6317 0.916992 17.7545C0.916992 18.8159 3.30515 19.8773 7.28541 19.8773C11.0194 19.8773 13.6538 18.8159 13.6538 17.7545C13.6538 15.6317 11.1553 13.5089 7.28541 13.5089Z" fill="url(#paint0_linear_451_3066)"/>
<defs>
<linearGradient id="paint0_linear_451_3066" x1="11.0003" y1="19.8773" x2="11.0003" y2="1.8335" gradientUnits="userSpaceOnUse">
<stop stop-color="#02AA93"/>
<stop offset="1" stop-color="#67FF80"/>
</linearGradient>
</defs>
</svg>
