<svg width="22" height="22" viewBox="0 0 22 22" fill="none" xmlns="http://www.w3.org/2000/svg">
<path d="M19.6053 16.6402C19.2952 14.7599 17.625 13.4121 15.7221 13.5047C13.8194 13.5972 12.2891 15.1049 12.1666 17.0052C8.32846 16.8852 6.96572 15.9875 7.18828 14.1622C7.27077 13.4797 7.68336 13.1146 8.44096 12.937C8.90104 12.8295 9.41112 12.8145 9.87372 12.857C9.9162 12.862 9.96121 12.8646 10.0037 12.8696C10.2863 12.937 10.5738 12.9946 10.8614 13.0396C11.714 13.1796 12.5816 13.2496 13.4068 13.2046C15.7271 13.0796 17.3074 12.0569 17.3874 9.88655C17.465 7.78373 16.0197 6.29348 13.6893 5.2958C12.9417 4.97575 12.1491 4.72823 11.3564 4.54068C10.9989 4.45566 10.6989 4.39817 10.4763 4.36065C10.2788 2.46286 8.68852 1.01512 6.78069 1.00012C4.8729 0.985116 3.25764 2.40285 3.0276 4.29816C2.79756 6.19347 4.02776 7.95623 5.88307 8.39631C7.73837 8.83638 9.63116 7.81373 10.2763 6.01844C10.5113 6.06093 10.7439 6.10845 10.9764 6.16346C11.6815 6.32849 12.3866 6.54853 13.0367 6.82857C14.8045 7.58369 15.7697 8.58134 15.7247 9.82654C15.6847 10.9417 14.8845 11.4568 13.3193 11.5418C12.6316 11.5793 11.879 11.5193 11.1364 11.3968C10.9289 11.3618 10.7389 11.3268 10.5713 11.2893C10.4738 11.2693 10.4063 11.2518 10.3763 11.2443L10.2988 11.2293C10.2438 11.2218 10.1512 11.2093 10.0312 11.1968C9.40612 11.1393 8.72853 11.1593 8.06842 11.3118C6.6882 11.6344 5.72052 12.492 5.54049 13.9572C5.14795 17.1127 7.50581 18.5755 12.4416 18.6805C13.1693 20.4408 15.102 21.3784 16.9323 20.8559C18.7652 20.3333 19.9154 18.5205 19.6053 16.6402ZM6.74321 6.83357C5.59302 6.83357 4.66035 5.9009 4.66035 4.75071C4.66035 3.60053 5.59302 2.66789 6.74321 2.66789C7.89339 2.66789 8.82603 3.60053 8.82603 4.75071C8.82603 5.9009 7.89339 6.83357 6.74321 6.83357ZM15.9072 19.3306C14.757 19.3306 13.8244 18.3979 13.8244 17.2477C13.8244 16.0976 14.757 15.1649 15.9072 15.1649C17.0574 15.1649 17.99 16.0976 17.99 17.2477C17.99 18.3979 17.0574 19.3306 15.9072 19.3306Z" fill="url(#paint0_linear_451_3060)" stroke="url(#paint1_linear_451_3060)" stroke-width="0.6"/>
<defs>
<linearGradient id="paint0_linear_451_3060" x1="11.3278" y1="21" x2="11.3278" y2="0.999998" gradientUnits="userSpaceOnUse">
<stop stop-color="#A93AFF"/>
<stop offset="1" stop-color="#FF81FF"/>
</linearGradient>
<linearGradient id="paint1_linear_451_3060" x1="11.3278" y1="21" x2="11.3278" y2="0.999998" gradientUnits="userSpaceOnUse">
<stop stop-color="#A93AFF"/>
<stop offset="1" stop-color="#FF81FF"/>
</linearGradient>
</defs>
</svg>
