<svg width="22" height="22" viewBox="0 0 22 22" fill="none" xmlns="http://www.w3.org/2000/svg">
<g clip-path="url(#clip0_451_3044)">
<path d="M16.7096 1.0239C16.6408 0.955132 16.5475 0.916504 16.4503 0.916504H3.15773C2.56345 0.916504 1.99351 1.15257 1.5733 1.57281C1.15306 1.99302 0.916992 2.56297 0.916992 3.15724V18.8425C0.916992 19.4367 1.15306 20.0066 1.5733 20.4268C1.99351 20.8471 2.56345 21.0832 3.15773 21.0832H18.843C20.0753 21.0832 21.0837 20.0748 21.0837 18.8425V5.54986C21.0837 5.45262 21.0451 5.35936 20.9762 5.29059L16.7096 1.0239ZM18.843 18.4758C18.843 18.6783 18.6788 18.8425 18.4763 18.8425H3.5244C3.32189 18.8425 3.15773 18.6783 3.15773 18.4758V3.52391C3.15773 3.32141 3.32189 3.15724 3.5244 3.15724H15.5204C15.6177 3.15724 15.7109 3.19588 15.7796 3.26464L18.7355 6.2205C18.8043 6.28926 18.843 6.38252 18.843 6.47977V18.4758ZM11.0003 10.9998C9.14051 10.9998 7.63921 12.5012 7.63921 14.361C7.63921 16.2208 9.14051 17.722 11.0003 17.722C12.8601 17.722 14.3615 16.2208 14.3615 14.361C14.3615 12.5012 12.8601 10.9998 11.0003 10.9998ZM4.27811 4.64428C4.27811 4.44177 4.44226 4.27762 4.64477 4.27762H13.9948C14.1973 4.27762 14.3615 4.44177 14.3615 4.64428V8.39242C14.3615 8.59493 14.1973 8.7591 13.9948 8.7591H4.64477C4.44226 8.7591 4.27811 8.59493 4.27811 8.39243V4.64428Z" fill="url(#paint0_linear_451_3044)"/>
</g>
<defs>
<linearGradient id="paint0_linear_451_3044" x1="11.0003" y1="21.0832" x2="11.0003" y2="0.916504" gradientUnits="userSpaceOnUse">
<stop stop-color="#00B59C"/>
<stop offset="1" stop-color="#9CFFAC"/>
</linearGradient>
<clipPath id="clip0_451_3044">
<rect width="22" height="22" fill="white"/>
</clipPath>
</defs>
</svg>
