<svg width="16" height="16" viewBox="0 0 16 16" fill="none" xmlns="http://www.w3.org/2000/svg">
<path fill-rule="evenodd" clip-rule="evenodd" d="M3.7334 1C3.74279 1 3.7522 1 3.76164 1L8.02344 1C8.29379 0.99999 8.53405 0.99998 8.73429 1.01364C8.94719 1.02817 9.1703 1.06067 9.3939 1.15329C9.88731 1.35766 10.2793 1.74968 10.4837 2.24309C10.5763 2.46669 10.6088 2.6898 10.6233 2.9027C10.637 3.10295 10.637 3.3432 10.637 3.61357V3.63699C10.637 4.06066 10.2935 4.40411 9.86986 4.40411C9.44619 4.40411 9.10274 4.06066 9.10274 3.63699C9.10274 3.33608 9.10232 3.14881 9.09266 3.00714C9.08346 2.87235 9.06852 2.83571 9.06624 2.83022C9.01758 2.71274 8.92425 2.61941 8.80677 2.57074C8.80128 2.56847 8.76464 2.55353 8.62985 2.54433C8.48818 2.53466 8.30091 2.53425 8 2.53425H3.76164C3.39991 2.53425 3.17475 2.53484 3.00537 2.54868C2.84494 2.56179 2.80319 2.58286 2.79603 2.58651C2.70582 2.63247 2.63247 2.70582 2.58651 2.79603C2.58286 2.80319 2.56179 2.84494 2.54868 3.00537C2.53484 3.17475 2.53425 3.39991 2.53425 3.76164V8C2.53425 8.30091 2.53466 8.48818 2.54433 8.62985C2.55353 8.76464 2.56847 8.80128 2.57074 8.80677C2.61941 8.92425 2.71274 9.01758 2.83022 9.06624C2.83571 9.06852 2.87235 9.08346 3.00714 9.09266C3.14881 9.10232 3.33608 9.10274 3.63699 9.10274C4.06066 9.10274 4.40411 9.44619 4.40411 9.86986C4.40411 10.2935 4.06066 10.637 3.63699 10.637H3.61357C3.3432 10.637 3.10295 10.637 2.9027 10.6233C2.6898 10.6088 2.46669 10.5763 2.24309 10.4837C1.74968 10.2793 1.35766 9.88731 1.15329 9.3939C1.06067 9.1703 1.02817 8.94719 1.01364 8.73429C0.99998 8.53405 0.99999 8.29379 1 8.02344L1 3.76164C1 3.7522 1 3.74279 1 3.7334C0.999985 3.40852 0.99997 3.11987 1.01953 2.88043C1.04039 2.62512 1.08726 2.359 1.21948 2.0995C1.41254 1.7206 1.7206 1.41254 2.0995 1.21948C2.359 1.08726 2.62512 1.04039 2.88043 1.01953C3.11987 0.99997 3.40852 0.999985 3.7334 1ZM8.09642 5.36301H12.2666C12.5915 5.363 12.8801 5.36298 13.1196 5.38255C13.3749 5.40341 13.641 5.45027 13.9005 5.58249C14.2794 5.77556 14.5875 6.08361 14.7805 6.46251C14.9127 6.72201 14.9596 6.98813 14.9805 7.24344C15 7.48287 15 7.77151 15 8.09639V12.2666C15 12.5915 15 12.8801 14.9805 13.1196C14.9596 13.3749 14.9127 13.641 14.7805 13.9005C14.5875 14.2794 14.2794 14.5875 13.9005 14.7805C13.641 14.9127 13.3749 14.9596 13.1196 14.9805C12.8801 15 12.5915 15 12.2666 15H8.09639C7.77151 15 7.48287 15 7.24344 14.9805C6.98813 14.9596 6.72201 14.9127 6.46251 14.7805C6.08361 14.5875 5.77556 14.2794 5.58249 13.9005C5.45027 13.641 5.40341 13.3749 5.38255 13.1196C5.36298 12.8801 5.363 12.5915 5.36301 12.2666V8.09642C5.363 7.77153 5.36298 7.48288 5.38255 7.24344C5.40341 6.98813 5.45028 6.72201 5.58249 6.46251C5.77555 6.08361 6.08361 5.77555 6.46251 5.58249C6.72201 5.45028 6.98813 5.40341 7.24344 5.38255C7.48288 5.36298 7.77153 5.363 8.09642 5.36301ZM7.36838 6.9117C7.20795 6.9248 7.16621 6.94587 7.15905 6.94952C7.06883 6.99548 6.99548 7.06883 6.94952 7.15905C6.94587 7.16621 6.9248 7.20795 6.9117 7.36838C6.89786 7.53776 6.89726 7.76293 6.89726 8.12466V12.2384C6.89726 12.6001 6.89786 12.8253 6.9117 12.9946C6.9248 13.1551 6.94587 13.1968 6.94952 13.204C6.99548 13.2942 7.06883 13.3675 7.15905 13.4135C7.16621 13.4171 7.20795 13.4382 7.36838 13.4513C7.53776 13.4652 7.76293 13.4658 8.12466 13.4658H12.2384C12.6001 13.4658 12.8253 13.4652 12.9946 13.4513C13.1551 13.4382 13.1968 13.4171 13.204 13.4135C13.2942 13.3675 13.3675 13.2942 13.4135 13.204C13.4171 13.1968 13.4382 13.1551 13.4513 12.9946C13.4652 12.8253 13.4658 12.6001 13.4658 12.2384V8.12466C13.4658 7.76293 13.4652 7.53776 13.4513 7.36838C13.4382 7.20795 13.4171 7.16621 13.4135 7.15905C13.3675 7.06883 13.2942 6.99548 13.204 6.94952C13.1968 6.94587 13.1551 6.9248 12.9946 6.9117C12.8253 6.89786 12.6001 6.89726 12.2384 6.89726H8.12466C7.76293 6.89726 7.53776 6.89786 7.36838 6.9117Z" fill="url(#paint0_linear_474_112)" stroke="url(#paint1_linear_474_112)" stroke-width="0.4" stroke-linecap="round" stroke-linejoin="round"/>
<defs>
<linearGradient id="paint0_linear_474_112" x1="8" y1="15" x2="8" y2="1" gradientUnits="userSpaceOnUse">
<stop stop-color="#5570FF"/>
<stop offset="1" stop-color="#4DD3FF"/>
</linearGradient>
<linearGradient id="paint1_linear_474_112" x1="8" y1="15" x2="8" y2="1" gradientUnits="userSpaceOnUse">
<stop stop-color="#5570FF"/>
<stop offset="1" stop-color="#4DD3FF"/>
</linearGradient>
</defs>
</svg>
