<svg width="22" height="22" viewBox="0 0 22 22" fill="none" xmlns="http://www.w3.org/2000/svg">
<path d="M15.9146 6.60622C16.0578 6.46303 16.0578 6.23087 15.9146 6.08767L15.2101 5.38322C15.0669 5.24002 14.8347 5.24002 14.6916 5.38321L9.71086 10.3638C9.56767 10.507 9.56767 10.7392 9.71086 10.8824L10.4153 11.5869C10.5585 11.73 10.7907 11.73 10.9339 11.5869L15.9146 6.60622ZM20.1108 5.38138C19.9674 5.23905 19.736 5.23946 19.5932 5.3823L10.9336 14.0419C10.7905 14.1849 10.5586 14.1851 10.4153 14.0421L7.30821 10.9424C7.16496 10.7995 6.93305 10.7997 6.78997 10.9428L6.0852 11.6475C5.94201 11.7907 5.94201 12.0229 6.0852 12.1661L10.4153 16.4962C10.5585 16.6394 10.7907 16.6394 10.9339 16.4962L20.8231 6.60714C20.9666 6.46359 20.9661 6.23072 20.8221 6.08768L20.1108 5.38138ZM1.17765 11.6475C1.03359 11.7906 1.03318 12.0235 1.17673 12.167L5.50593 16.4962C5.64913 16.6394 5.88129 16.6394 6.02448 16.4962L6.72918 15.7915C6.87228 15.6484 6.87238 15.4164 6.72941 15.2732L2.40658 10.9426C2.26379 10.7996 2.03215 10.7991 1.88872 10.9415L1.17765 11.6475Z" fill="url(#paint0_linear_451_3042)" stroke="url(#paint1_linear_451_3042)"/>
<defs>
<linearGradient id="paint0_linear_451_3042" x1="0.919494" y1="10.7674" x2="21.0865" y2="10.7674" gradientUnits="userSpaceOnUse">
<stop stop-color="#A93AFF"/>
<stop offset="1" stop-color="#FF81FF"/>
</linearGradient>
<linearGradient id="paint1_linear_451_3042" x1="0.919494" y1="10.7674" x2="21.0865" y2="10.7674" gradientUnits="userSpaceOnUse">
<stop stop-color="#A93AFF"/>
<stop offset="1" stop-color="#FF81FF"/>
</linearGradient>
</defs>
</svg>
