<svg width="22" height="22" viewBox="0 0 22 22" fill="none" xmlns="http://www.w3.org/2000/svg">
<path d="M2.0625 1.375C1.68281 1.375 1.375 1.68281 1.375 2.0625V18.9652C1.375 19.5777 2.11553 19.8844 2.54863 19.4513L6.43815 15.5618C5.27696 14.4007 4.58333 12.7719 4.58333 11C4.58333 7.45617 7.45617 4.58333 11 4.58333C12.7719 4.58333 14.4007 5.27696 15.5618 6.43815L19.4513 2.54863C19.8844 2.11553 19.5777 1.375 18.9652 1.375H2.0625ZM15.5618 6.43815L6.43815 15.5618C7.59934 16.723 9.22809 17.4167 11 17.4167C14.5438 17.4167 17.4167 14.5438 17.4167 11C17.4167 9.22809 16.723 7.59934 15.5618 6.43815Z" fill="url(#paint0_linear_451_3039)"/>
<path d="M6.92456 15.0755L15.0759 6.92407C15.3445 6.65558 15.7831 6.65351 16.0201 6.95022C16.9033 8.05625 17.4169 9.47501 17.4169 10.9998C17.4169 14.5436 14.5441 17.4164 11.0003 17.4164C9.47549 17.4164 8.05674 16.9029 6.9507 16.0196C6.654 15.7826 6.65606 15.344 6.92456 15.0755Z" fill="url(#paint1_linear_451_3039)"/>
<defs>
<linearGradient id="paint0_linear_451_3039" x1="11" y1="20.625" x2="11" y2="1.375" gradientUnits="userSpaceOnUse">
<stop stop-color="#5570FF"/>
<stop offset="1" stop-color="#4DD3FF"/>
</linearGradient>
<linearGradient id="paint1_linear_451_3039" x1="12.3552" y1="17.9843" x2="12.3552" y2="6.7251" gradientUnits="userSpaceOnUse">
<stop stop-color="#5570FF"/>
<stop offset="1" stop-color="#4DD3FF"/>
</linearGradient>
</defs>
</svg>
