<svg width="22" height="22" viewBox="0 0 22 22" fill="none" xmlns="http://www.w3.org/2000/svg">
<path fill-rule="evenodd" clip-rule="evenodd" d="M3.66656 14.6666V2.44439H14.6666V1.83328C14.6666 1.6712 14.6021 1.51576 14.4876 1.40116C14.373 1.28655 14.2175 1.22217 14.0554 1.22217H3.05545C2.89337 1.22217 2.73793 1.28655 2.62332 1.40116C2.50872 1.51576 2.44434 1.6712 2.44434 1.83328V15.2777C2.44434 15.4398 2.50872 15.5953 2.62332 15.7098C2.73793 15.8244 2.89337 15.8888 3.05545 15.8888H3.66656V14.6666ZM7.94412 20.778H18.9441C19.1062 20.778 19.2617 20.7136 19.3762 20.599C19.4908 20.4844 19.5552 20.329 19.5552 20.1669V6.72244C19.5552 6.56037 19.4908 6.40491 19.3762 6.29032C19.2617 6.17574 19.1062 6.11133 18.9441 6.11133H7.94412C7.78205 6.11133 7.62659 6.17574 7.512 6.29032C7.39742 6.40491 7.33301 6.56037 7.33301 6.72244V20.1669C7.33301 20.329 7.39742 20.4844 7.512 20.599C7.62659 20.7136 7.78205 20.778 7.94412 20.778ZM18.333 19.5558H8.55523V7.33355H18.333V19.5558ZM17.1107 9.77783H9.77734V11.0001H17.1107V9.77783ZM9.77734 12.2222H17.1107V13.4444H9.77734V12.2222ZM17.1107 14.6665H9.77734V15.8887H17.1107V14.6665ZM6.11089 4.88873V17.1109V18.3332H5.49978C5.3377 18.3332 5.18227 18.2688 5.06766 18.1542C4.95306 18.0396 4.88867 17.8841 4.88867 17.7221V4.27762C4.88867 4.11554 4.95306 3.9601 5.06766 3.84549C5.18227 3.73089 5.3377 3.6665 5.49978 3.6665H16.4998C16.6618 3.6665 16.8173 3.73089 16.9319 3.84549C17.0465 3.9601 17.1109 4.11554 17.1109 4.27762V4.88873H6.11089Z" fill="url(#paint0_linear_451_3068)"/>
<path d="M3.66656 2.44439V2.24439H3.46656V2.44439H3.66656ZM14.6666 2.44439V2.64439H14.8666V2.44439H14.6666ZM14.4876 1.40116L14.629 1.25975L14.629 1.25975L14.4876 1.40116ZM2.62332 1.40116L2.48191 1.25973L2.4819 1.25974L2.62332 1.40116ZM2.62332 15.7098L2.48191 15.8513L2.48192 15.8513L2.62332 15.7098ZM3.66656 15.8888V16.0888H3.86656V15.8888H3.66656ZM19.3762 20.599L19.5177 20.7404L19.5177 20.7404L19.3762 20.599ZM19.3762 6.29032L19.5177 6.1489L19.5177 6.1489L19.3762 6.29032ZM7.512 6.29032L7.65342 6.43174L7.65342 6.43174L7.512 6.29032ZM7.512 20.599L7.37058 20.7404L7.37058 20.7404L7.512 20.599ZM8.55523 19.5558H8.35523V19.7558H8.55523V19.5558ZM18.333 19.5558V19.7558H18.533V19.5558H18.333ZM8.55523 7.33355V7.13355H8.35523V7.33355H8.55523ZM18.333 7.33355H18.533V7.13355H18.333V7.33355ZM9.77734 9.77783V9.57783H9.57734V9.77783H9.77734ZM17.1107 9.77783H17.3107V9.57783H17.1107V9.77783ZM9.77734 11.0001H9.57734V11.2001H9.77734V11.0001ZM17.1107 11.0001V11.2001H17.3107V11.0001H17.1107ZM17.1107 12.2222H17.3107V12.0222H17.1107V12.2222ZM9.77734 12.2222V12.0222H9.57734V12.2222H9.77734ZM17.1107 13.4444V13.6444H17.3107V13.4444H17.1107ZM9.77734 13.4444H9.57734V13.6444H9.77734V13.4444ZM9.77734 14.6665V14.4665H9.57734V14.6665H9.77734ZM17.1107 14.6665H17.3107V14.4665H17.1107V14.6665ZM9.77734 15.8887H9.57734V16.0887H9.77734V15.8887ZM17.1107 15.8887V16.0887H17.3107V15.8887H17.1107ZM6.11089 4.88873V4.68873H5.91089V4.88873H6.11089ZM6.11089 18.3332V18.5332H6.31089V18.3332H6.11089ZM5.06766 18.1542L4.92625 18.2956L4.92625 18.2956L5.06766 18.1542ZM5.06766 3.84549L4.92624 3.70407L4.92623 3.70407L5.06766 3.84549ZM16.9319 3.84549L17.0733 3.70409L17.0733 3.70408L16.9319 3.84549ZM17.1109 4.88873V5.08873H17.3109V4.88873H17.1109ZM3.46656 2.44439V14.6666H3.86656V2.44439H3.46656ZM14.6666 2.24439H3.66656V2.64439H14.6666V2.24439ZM14.4666 1.83328V2.44439H14.8666V1.83328H14.4666ZM14.3461 1.54256C14.4232 1.61968 14.4666 1.72426 14.4666 1.83328H14.8666C14.8666 1.61814 14.7811 1.41184 14.629 1.25975L14.3461 1.54256ZM14.0554 1.42217C14.1645 1.42217 14.2691 1.46549 14.3461 1.54257L14.629 1.25975C14.4769 1.10762 14.2705 1.02217 14.0554 1.02217V1.42217ZM3.05545 1.42217H14.0554V1.02217H3.05545V1.42217ZM2.76474 1.54258C2.84185 1.46548 2.94641 1.42217 3.05545 1.42217V1.02217C2.84032 1.02217 2.63402 1.10763 2.48191 1.25973L2.76474 1.54258ZM2.64434 1.83328C2.64434 1.72425 2.68765 1.61968 2.76475 1.54257L2.4819 1.25974C2.3298 1.41185 2.24434 1.61815 2.24434 1.83328H2.64434ZM2.64434 15.2777V1.83328H2.24434V15.2777H2.64434ZM2.76473 15.5684C2.68766 15.4913 2.64434 15.3868 2.64434 15.2777H2.24434C2.24434 15.4928 2.32979 15.6992 2.48191 15.8513L2.76473 15.5684ZM3.05545 15.6888C2.94643 15.6888 2.84185 15.6455 2.76473 15.5684L2.48192 15.8513C2.63401 16.0033 2.8403 16.0888 3.05545 16.0888V15.6888ZM3.66656 15.6888H3.05545V16.0888H3.66656V15.6888ZM3.46656 14.6666V15.8888H3.86656V14.6666H3.46656ZM18.9441 20.578H7.94412V20.978H18.9441V20.578ZM19.2348 20.4576C19.1577 20.5347 19.0531 20.578 18.9441 20.578V20.978C19.1592 20.978 19.3656 20.8925 19.5177 20.7404L19.2348 20.4576ZM19.3552 20.1669C19.3552 20.2759 19.3119 20.3805 19.2348 20.4576L19.5177 20.7404C19.6697 20.5883 19.7552 20.382 19.7552 20.1669H19.3552ZM19.3552 6.72244V20.1669H19.7552V6.72244H19.3552ZM19.2348 6.43174C19.3119 6.50883 19.3552 6.61342 19.3552 6.72244H19.7552C19.7552 6.50732 19.6697 6.30099 19.5177 6.1489L19.2348 6.43174ZM18.9441 6.31133C19.0531 6.31133 19.1577 6.35466 19.2348 6.43174L19.5177 6.1489C19.3656 5.99682 19.1592 5.91133 18.9441 5.91133V6.31133ZM7.94412 6.31133H18.9441V5.91133H7.94412V6.31133ZM7.65342 6.43174C7.73051 6.35466 7.8351 6.31133 7.94412 6.31133V5.91133C7.729 5.91133 7.52267 5.99682 7.37058 6.1489L7.65342 6.43174ZM7.53301 6.72244C7.53301 6.61342 7.57634 6.50883 7.65342 6.43174L7.37058 6.1489C7.2185 6.30099 7.13301 6.50732 7.13301 6.72244H7.53301ZM7.53301 20.1669V6.72244H7.13301V20.1669H7.53301ZM7.65342 20.4576C7.57634 20.3805 7.53301 20.2759 7.53301 20.1669H7.13301C7.13301 20.382 7.2185 20.5883 7.37058 20.7404L7.65342 20.4576ZM7.94412 20.578C7.8351 20.578 7.73051 20.5347 7.65342 20.4576L7.37058 20.7404C7.52267 20.8925 7.729 20.978 7.94412 20.978V20.578ZM8.55523 19.7558H18.333V19.3558H8.55523V19.7558ZM8.35523 7.33355V19.5558H8.75523V7.33355H8.35523ZM18.333 7.13355H8.55523V7.53355H18.333V7.13355ZM18.533 19.5558V7.33355H18.133V19.5558H18.533ZM9.77734 9.97783H17.1107V9.57783H9.77734V9.97783ZM9.97734 11.0001V9.77783H9.57734V11.0001H9.97734ZM17.1107 10.8001H9.77734V11.2001H17.1107V10.8001ZM16.9107 9.77783V11.0001H17.3107V9.77783H16.9107ZM17.1107 12.0222H9.77734V12.4222H17.1107V12.0222ZM17.3107 13.4444V12.2222H16.9107V13.4444H17.3107ZM9.77734 13.6444H17.1107V13.2444H9.77734V13.6444ZM9.57734 12.2222V13.4444H9.97734V12.2222H9.57734ZM9.77734 14.8665H17.1107V14.4665H9.77734V14.8665ZM9.97734 15.8887V14.6665H9.57734V15.8887H9.97734ZM17.1107 15.6887H9.77734V16.0887H17.1107V15.6887ZM16.9107 14.6665V15.8887H17.3107V14.6665H16.9107ZM6.31089 17.1109V4.88873H5.91089V17.1109H6.31089ZM6.31089 18.3332V17.1109H5.91089V18.3332H6.31089ZM5.49978 18.5332H6.11089V18.1332H5.49978V18.5332ZM4.92625 18.2956C5.07835 18.4477 5.28464 18.5332 5.49978 18.5332V18.1332C5.39077 18.1332 5.28619 18.0898 5.20907 18.0127L4.92625 18.2956ZM4.68867 17.7221C4.68867 17.9372 4.77412 18.1435 4.92625 18.2956L5.20907 18.0127C5.13199 17.9357 5.08867 17.8311 5.08867 17.7221H4.68867ZM4.68867 4.27762V17.7221H5.08867V4.27762H4.68867ZM4.92623 3.70407C4.77413 3.85619 4.68867 4.06249 4.68867 4.27762H5.08867C5.08867 4.16858 5.13199 4.06401 5.20909 3.98691L4.92623 3.70407ZM5.49978 3.4665C5.28466 3.4665 5.07835 3.55196 4.92624 3.70407L5.20908 3.98692C5.28618 3.90982 5.39075 3.8665 5.49978 3.8665V3.4665ZM16.4998 3.4665H5.49978V3.8665H16.4998V3.4665ZM17.0733 3.70408C16.9212 3.55196 16.7149 3.4665 16.4998 3.4665V3.8665C16.6088 3.8665 16.7134 3.90983 16.7905 3.9869L17.0733 3.70408ZM17.3109 4.27762C17.3109 4.06247 17.2254 3.85618 17.0733 3.70409L16.7905 3.9869C16.8676 4.06402 16.9109 4.1686 16.9109 4.27762H17.3109ZM17.3109 4.88873V4.27762H16.9109V4.88873H17.3109ZM6.11089 5.08873H17.1109V4.68873H6.11089V5.08873Z" fill="url(#paint1_linear_451_3068)"/>
<defs>
<linearGradient id="paint0_linear_451_3068" x1="10.9998" y1="18.3332" x2="10.9998" y2="3.6665" gradientUnits="userSpaceOnUse">
<stop stop-color="#FD5900"/>
<stop offset="1" stop-color="#FFDE00"/>
</linearGradient>
<linearGradient id="paint1_linear_451_3068" x1="10.9998" y1="18.3332" x2="10.9998" y2="3.6665" gradientUnits="userSpaceOnUse">
<stop stop-color="#FD5900"/>
<stop offset="1" stop-color="#FFDE00"/>
</linearGradient>
</defs>
</svg>
