<svg width="22" height="22" viewBox="0 0 22 22" fill="none" xmlns="http://www.w3.org/2000/svg">
<path fill-rule="evenodd" clip-rule="evenodd" d="M8.24254 3.04579C8.24254 2.16014 7.20897 1.67693 6.52936 2.24487L1.56167 6.39648C0.812776 7.02233 0.812776 8.17338 1.56167 8.79924L6.52936 12.9508C7.20897 13.5188 8.24254 13.0355 8.24254 12.1499V10.9607C8.24254 10.3842 8.70984 9.91693 9.28633 9.91693H13.4615C15.0852 9.91693 16.3609 11.1927 16.3609 12.8163C16.3609 14.44 15.0852 15.7158 13.4615 15.7158H13.2875C12.4228 15.7158 11.7218 16.4167 11.7218 17.2815V18.7892C11.7218 19.6539 12.4228 20.3549 13.2875 20.3549H13.4615C17.6367 20.3549 21 16.9915 21 12.8163C21 8.64115 17.6367 5.27784 13.4615 5.27784H9.28633C8.70984 5.27784 8.24254 4.81053 8.24254 4.23405V3.04579Z" fill="url(#paint0_linear_451_3035)"/>
<defs>
<linearGradient id="paint0_linear_451_3035" x1="10.5621" y1="20.3549" x2="10.5621" y2="0.813167" gradientUnits="userSpaceOnUse">
<stop stop-color="#5570FF"/>
<stop offset="1" stop-color="#4DD3FF"/>
</linearGradient>
</defs>
</svg>
