<svg width="16" height="16" viewBox="0 0 16 16" fill="none" xmlns="http://www.w3.org/2000/svg">
<path d="M14.3031 5.67093V11.9394C14.302 12.8231 13.9506 13.6705 13.3257 14.2954C12.7007 14.9203 11.8535 15.2718 10.9697 15.2727H5.51515C4.6314 15.2718 3.7841 14.9203 3.15921 14.2954C2.53428 13.6705 2.18278 12.8231 2.18182 11.9394V4.06062C2.18278 3.17687 2.53428 2.32959 3.15921 1.70467C3.7841 1.07977 4.6314 0.728267 5.51515 0.727307H9.35942C9.79731 0.726122 10.2311 0.811809 10.6356 0.979402C11.0402 1.14699 11.4076 1.39317 11.7164 1.70367L13.3267 3.31396C13.6372 3.62276 13.8834 3.99008 14.0509 4.39466C14.2186 4.79922 14.3042 5.23304 14.3031 5.67093ZM12.4849 11.9394V6.38184C12.4849 6.27138 12.3953 6.18184 12.2849 6.18184H10.0606C9.73913 6.18184 9.43084 6.05413 9.2035 5.82683C8.97622 5.59951 8.84851 5.2912 8.84851 4.96971V2.74548C8.84851 2.63502 8.75897 2.54548 8.64851 2.54548H5.51515C5.11331 2.54548 4.72793 2.70511 4.44379 2.98926C4.15964 3.2734 4.00001 3.65878 4.00001 4.06062V11.9394C4.00001 12.3413 4.15964 12.7266 4.44379 13.0108C4.72793 13.2949 5.11331 13.4546 5.51515 13.4546H10.9697C11.3716 13.4546 11.757 13.2949 12.0411 13.0108C12.3252 12.7266 12.4849 12.3413 12.4849 11.9394Z" fill="url(#paint0_linear_167_262)"/>
<path d="M6.49848 12.0068H10.0862C10.3613 12.0068 10.5846 11.7813 10.5846 11.5034C10.5846 11.2255 10.3613 11 10.0862 11H6.49848C6.22332 11 6 11.2255 6 11.5034C6 11.7813 6.22332 12.0068 6.49848 12.0068" fill="url(#paint1_linear_167_262)"/>
<path d="M6.49848 12.0068H10.0862C10.3613 12.0068 10.5846 11.7813 10.5846 11.5034C10.5846 11.2255 10.3613 11 10.0862 11H6.49848C6.22332 11 6 11.2255 6 11.5034C6 11.7813 6.22332 12.0068 6.49848 12.0068" stroke="url(#paint2_linear_167_262)" stroke-width="0.6"/>
<path d="M6.49848 9.0068H8.72899C9.00414 9.0068 9.22746 8.78127 9.22746 8.5034C9.22746 8.22552 9.00414 8 8.72899 8H6.49848C6.22332 8 6 8.22552 6 8.5034C6 8.78127 6.22332 9.0068 6.49848 9.0068" fill="url(#paint3_linear_167_262)"/>
<path d="M6.49848 9.0068H8.72899C9.00414 9.0068 9.22746 8.78127 9.22746 8.5034C9.22746 8.22552 9.00414 8 8.72899 8H6.49848C6.22332 8 6 8.22552 6 8.5034C6 8.78127 6.22332 9.0068 6.49848 9.0068" stroke="url(#paint4_linear_167_262)" stroke-width="0.6"/>
<defs>
<linearGradient id="paint0_linear_167_262" x1="3.39395" y1="15.2773" x2="9.43234" y2="0.179379" gradientUnits="userSpaceOnUse">
<stop offset="0.190745" stop-color="#22B4FA"/>
<stop offset="0.896724" stop-color="#7DDCFF"/>
</linearGradient>
<linearGradient id="paint1_linear_167_262" x1="6.45846" y1="12.0071" x2="6.54671" y2="10.8014" gradientUnits="userSpaceOnUse">
<stop offset="0.190745" stop-color="#22B4FA"/>
<stop offset="0.896724" stop-color="#7DDCFF"/>
</linearGradient>
<linearGradient id="paint2_linear_167_262" x1="6.45846" y1="12.0071" x2="6.54671" y2="10.8014" gradientUnits="userSpaceOnUse">
<stop offset="0.190745" stop-color="#22B4FA"/>
<stop offset="0.896724" stop-color="#7DDCFF"/>
</linearGradient>
<linearGradient id="paint3_linear_167_262" x1="6.32275" y1="9.00711" x2="6.44743" y2="7.80788" gradientUnits="userSpaceOnUse">
<stop offset="0.190745" stop-color="#22B4FA"/>
<stop offset="0.896724" stop-color="#7DDCFF"/>
</linearGradient>
<linearGradient id="paint4_linear_167_262" x1="6.32275" y1="9.00711" x2="6.44743" y2="7.80788" gradientUnits="userSpaceOnUse">
<stop offset="0.190745" stop-color="#22B4FA"/>
<stop offset="0.896724" stop-color="#7DDCFF"/>
</linearGradient>
</defs>
</svg>
