<svg width="64" height="64" viewBox="0 0 64 64" fill="none" xmlns="http://www.w3.org/2000/svg">
<path fill-rule="evenodd" clip-rule="evenodd" d="M19.3947 3.14058C19.0572 2.85889 18.5753 2.83066 18.2072 3.07101L1.15625 14.2048C0.586316 14.577 0.546667 15.3974 1.07806 15.8228L12.4683 24.9406C12.7983 25.2048 13.2588 25.2329 13.6186 25.0108L32 13.6612L19.3947 3.14058ZM0 35.8103C0 35.8093 0.00119651 35.8086 0.00209923 35.8092L18.2071 47.6966C18.5752 47.937 19.0572 47.9087 19.3947 47.627L32 37.1038L13.6187 25.7569C13.2589 25.5348 12.7983 25.563 12.4683 25.8273L0.00220609 35.8114C0.00131757 35.8121 0 35.8115 0 35.8103V35.8103ZM32 37.1038L44.6053 47.627C44.9428 47.9087 45.4248 47.937 45.7929 47.6966L62.8441 36.5626C63.4139 36.1905 63.4536 35.3703 62.9224 34.9448L51.5318 25.8221C51.2018 25.5577 50.7411 25.5296 50.3813 25.7518L32 37.1038ZM62.9222 15.8228C63.4535 15.3974 63.4138 14.5771 62.8439 14.2049L45.7928 3.07101C45.4247 2.83066 44.9428 2.85889 44.6053 3.14058L32 13.6612L50.3813 25.0133C50.7411 25.2355 51.2017 25.2074 51.5318 24.9431L62.9222 15.8228Z" fill="url(#paint0_linear_59_1082)"/>
<path opacity="0.4" d="M19.3944 49.9629L31.3985 39.9966C31.7688 39.6891 32.3056 39.6891 32.676 39.9965L44.6827 49.963C45.0203 50.2432 45.5011 50.2706 45.8684 50.0307L49.357 47.7516C50.0221 47.3171 50.9039 47.7943 50.9039 48.5888V50.3133C50.9039 50.6646 50.7195 50.9902 50.4182 51.1709L32.5516 61.8858C32.235 62.0757 31.8395 62.0757 31.5229 61.8858L13.6588 51.1709C13.3576 50.9902 13.1732 50.6647 13.1732 50.3134V48.5888C13.1732 47.7943 14.055 47.3171 14.7201 47.7516L18.2087 50.0307C18.576 50.2706 19.0568 50.2431 19.3944 49.9629Z" fill="url(#paint1_linear_59_1082)"/>
<defs>
<linearGradient id="paint0_linear_59_1082" x1="32" y1="48.1012" x2="32" y2="2.6665" gradientUnits="userSpaceOnUse">
<stop stop-color="#5570FF"/>
<stop offset="1" stop-color="#4DD3FF"/>
</linearGradient>
<linearGradient id="paint1_linear_59_1082" x1="32.0386" y1="62.1943" x2="32.0386" y2="39.4663" gradientUnits="userSpaceOnUse">
<stop stop-color="#5570FF"/>
<stop offset="1" stop-color="#4DD3FF"/>
</linearGradient>
</defs>
</svg>
