<svg width="24" height="24" viewBox="0 0 24 24" fill="none" xmlns="http://www.w3.org/2000/svg">
<path opacity="0.5" d="M16.7146 18.6C20.1862 18.6 23 15.8192 23 12.3883C23 9.6691 21.2323 7.358 18.7705 6.5165C18.4207 3.4134 15.7565 1 12.5236 1C9.052 1 6.2382 3.7808 6.2382 7.2117C6.2382 7.9707 6.3757 8.6967 6.6276 9.3699C6.32678 9.31144 6.02105 9.28197 5.7146 9.2819C3.1109 9.283 1 11.3686 1 13.9415C1 16.5144 3.1109 18.6 5.7146 18.6H16.7146Z" fill="url(#paint0_linear_8_332)"/>
<path d="M18.9146 23C21.1707 23 23 21.262 23 19.117C23 17.4186 21.8505 15.9743 20.25 15.4474C20.0245 13.5081 18.292 12 16.191 12C13.9338 12 12.1045 13.738 12.1045 15.883C12.1045 16.356 12.1947 16.8114 12.3575 17.2316C12.1616 17.1951 11.9628 17.1766 11.7635 17.1766C10.0728 17.1766 8.70001 18.479 8.70001 20.0883C8.70001 21.6965 10.0717 23 11.7646 23H18.9146Z" fill="url(#paint1_linear_8_332)"/>
<defs>
<linearGradient id="paint0_linear_8_332" x1="12" y1="18.6" x2="12" y2="1" gradientUnits="userSpaceOnUse">
<stop stop-color="#5558FF"/>
<stop offset="1" stop-color="#00C0FF"/>
</linearGradient>
<linearGradient id="paint1_linear_8_332" x1="15.85" y1="23" x2="15.85" y2="12" gradientUnits="userSpaceOnUse">
<stop stop-color="#5558FF"/>
<stop offset="1" stop-color="#00C0FF"/>
</linearGradient>
</defs>
</svg>
