<svg width="22" height="22" viewBox="0 0 22 22" fill="none" xmlns="http://www.w3.org/2000/svg">
<path d="M17.4167 1.375H4.58333C2.81142 1.375 1.375 2.81142 1.375 4.58333V17.4167C1.375 19.1885 2.81142 20.625 4.58333 20.625H17.4167C19.1885 20.625 20.625 19.1885 20.625 17.4167V4.58333C20.625 2.81142 19.1885 1.375 17.4167 1.375Z" fill="url(#paint0_linear_451_2998)"/>
<path d="M8.1125 8.25004C8.1125 6.07992 9.95527 5.08838 11.55 5.08838C13.6549 5.08838 14.766 6.27762 15.0506 7.56788C15.1324 7.93864 14.8173 8.24996 14.4375 8.24999L14.1625 8.25C13.7829 8.25003 13.4871 7.93081 13.3423 7.5798C13.0613 6.8988 12.3648 6.41671 11.55 6.41671C10.4868 6.41671 9.625 7.23753 9.625 8.25004V10.6072C9.625 10.8242 9.80455 11 10.026 11H12.524H14.2886H15.4114C15.6329 11 15.8125 11.1759 15.8125 11.3929V16.1072C15.8125 16.3241 15.6329 16.5001 15.4114 16.5001H6.58855C6.36705 16.5001 6.1875 16.3241 6.1875 16.1072V11.3929C6.1875 11.1759 6.36705 11 6.58855 11H7.71145C7.93295 11 8.1125 10.8242 8.1125 10.6072V8.25004Z" fill="white" stroke="white"/>
<defs>
<linearGradient id="paint0_linear_451_2998" x1="11" y1="20.625" x2="11" y2="1.375" gradientUnits="userSpaceOnUse">
<stop stop-color="#02AA93"/>
<stop offset="1" stop-color="#67FF80"/>
</linearGradient>
</defs>
</svg>
