<svg width="22" height="22" viewBox="0 0 22 22" fill="none" xmlns="http://www.w3.org/2000/svg">
<path d="M17.4167 1.375H4.58333C2.81142 1.375 1.375 2.81142 1.375 4.58333V17.4167C1.375 19.1885 2.81142 20.625 4.58333 20.625H17.4167C19.1885 20.625 20.625 19.1885 20.625 17.4167V4.58333C20.625 2.81142 19.1885 1.375 17.4167 1.375Z" fill="url(#paint0_linear_451_3001)"/>
<path d="M11 5.5C9.40527 5.5 8.1125 6.7312 8.1125 8.25V10.6071C8.1125 10.8241 7.93295 11 7.71145 11H6.58855C6.36705 11 6.1875 11.1759 6.1875 11.3929V16.1072C6.1875 16.3241 6.36705 16.5 6.58855 16.5H15.4114C15.6329 16.5 15.8125 16.3241 15.8125 16.1072V11.3929C15.8125 11.1759 15.6329 11 15.4114 11H14.2886C14.0671 11 13.8875 10.8241 13.8875 10.6071V8.25C13.8875 6.7312 12.5947 5.5 11 5.5ZM11 6.41667C12.0631 6.41667 12.925 7.23748 12.925 8.25V10.6071C12.925 10.8241 12.7454 11 12.524 11H9.47605C9.25455 11 9.075 10.8241 9.075 10.6071V8.25C9.075 7.23748 9.93685 6.41667 11 6.41667Z" fill="white"/>
<defs>
<linearGradient id="paint0_linear_451_3001" x1="11" y1="20.625" x2="11" y2="1.375" gradientUnits="userSpaceOnUse">
<stop stop-color="#A5A5A5"/>
<stop offset="0.9973" stop-color="#DCDCDC"/>
</linearGradient>
</defs>
</svg>
