<svg width="22" height="22" viewBox="0 0 22 22" fill="none" xmlns="http://www.w3.org/2000/svg">
<path d="M15.928 4.59635C15.656 4.59154 15.3937 4.6962 15.2018 4.88607L14.7443 5.33897L14.7532 5.3477L10.6335 9.40399C10.3409 9.69209 10.3409 10.1592 10.6335 10.4472L12.8293 12.6093C13.1219 12.8974 13.5962 12.8974 13.8888 12.6093L18.0198 8.54183L18.0206 8.54261L20.7408 5.93893C21.2184 5.48177 20.898 4.68415 20.232 4.6724L15.928 4.59635Z" fill="url(#paint0_linear_451_3032)"/>
<path d="M6.07245 9.17448C6.34442 9.16967 6.6067 9.27425 6.79855 9.4642L7.25611 9.91706L7.24725 9.92579L11.3669 13.9821C11.6595 14.2702 11.6595 14.7373 11.3669 15.0254L9.17115 17.1873C8.87858 17.4754 8.40417 17.4754 8.11157 17.1873L3.98062 13.1199L3.9798 13.1207L1.25963 10.5171C0.782021 10.0599 1.10244 9.26227 1.7684 9.25053L6.07245 9.17448Z" fill="url(#paint1_linear_451_3032)"/>
<defs>
<linearGradient id="paint0_linear_451_3032" x1="13.3523" y1="13.0948" x2="3.69727" y2="3.70258" gradientUnits="userSpaceOnUse">
<stop stop-color="#2AD454"/>
<stop offset="1" stop-color="#B3FF5A"/>
</linearGradient>
<linearGradient id="paint1_linear_451_3032" x1="13.3518" y1="13.0948" x2="3.69684" y2="3.70247" gradientUnits="userSpaceOnUse">
<stop stop-color="#2AD454"/>
<stop offset="1" stop-color="#B3FF5A"/>
</linearGradient>
</defs>
</svg>
