<svg width="22" height="22" viewBox="0 0 22 22" fill="none" xmlns="http://www.w3.org/2000/svg">
<path d="M17.4167 1.375H4.58333C2.81142 1.375 1.375 2.81142 1.375 4.58333V17.4167C1.375 19.1885 2.81142 20.625 4.58333 20.625H17.4167C19.1885 20.625 20.625 19.1885 20.625 17.4167V4.58333C20.625 2.81142 19.1885 1.375 17.4167 1.375Z" fill="url(#paint0_linear_167_243)"/>
<path d="M10.083 4.58301C9.70332 4.58301 9.39551 4.89082 9.39551 5.27051V7.10385C9.39551 7.48354 9.70332 7.79135 10.083 7.79135H11.9164C12.296 7.79135 12.6039 7.48354 12.6039 7.10385V5.27051C12.6039 4.89082 12.296 4.58301 11.9164 4.58301H10.083ZM10.083 9.39551C9.70332 9.39551 9.39551 9.70332 9.39551 10.083V16.7288C9.39551 17.1084 9.70332 17.4163 10.083 17.4163H11.9164C12.296 17.4163 12.6039 17.1084 12.6039 16.7288V10.083C12.6039 9.70332 12.296 9.39551 11.9164 9.39551H10.083Z" fill="white"/>
<defs>
<linearGradient id="paint0_linear_167_243" x1="3.3" y1="20.631" x2="10.2525" y2="-0.229087" gradientUnits="userSpaceOnUse">
<stop offset="0.190745" stop-color="#22B4FA"/>
<stop offset="0.896724" stop-color="#7DDCFF"/>
</linearGradient>
</defs>
</svg>
