<svg width="22" height="22" viewBox="0 0 22 22" fill="none" xmlns="http://www.w3.org/2000/svg">
<path d="M1.37598 17.8604C1.37598 16.7217 2.29974 15.7979 3.43833 15.7979H18.5623C19.7009 15.7979 20.6246 16.7217 20.6246 17.8604C20.6246 18.9991 19.7009 19.9229 18.5623 19.9229H3.43833C2.29974 19.9229 1.37598 18.9991 1.37598 17.8604Z" fill="url(#paint0_linear_451_2995)"/>
<path d="M5.37914 9.35021C5.01256 8.82256 4.6631 8.28328 4.33128 7.73307C2.9864 5.51979 2.31397 4.41419 3.0586 3.42203C3.80117 2.43193 5.36057 2.34117 8.47935 2.15966C9.36017 2.11015 10.2244 2.07715 11 2.07715C11.7756 2.07715 12.6398 2.11015 13.5207 2.15966C16.6394 2.34117 18.1967 2.43193 18.9414 3.42203C19.686 4.41419 19.0136 5.52185 17.6687 7.73307C17.3201 8.30652 16.9653 8.8614 16.6209 9.35021C16.2289 9.90716 15.7587 10.5157 15.2595 11.1283C13.4505 13.3457 12.547 14.4534 11 14.4534C9.45299 14.4534 8.54954 13.3457 6.74052 11.1283C6.24135 10.5157 5.77105 9.90922 5.37914 9.35021Z" fill="url(#paint1_linear_451_2995)"/>
<defs>
<linearGradient id="paint0_linear_451_2995" x1="11.0003" y1="19.9229" x2="11.0003" y2="15.7979" gradientUnits="userSpaceOnUse">
<stop stop-color="#A93AFF"/>
<stop offset="1" stop-color="#FF81FF"/>
</linearGradient>
<linearGradient id="paint1_linear_451_2995" x1="19.25" y1="14.4534" x2="9.22144" y2="1.23138" gradientUnits="userSpaceOnUse">
<stop stop-color="#731FFF"/>
<stop offset="0.905415" stop-color="#EB1AFF"/>
</linearGradient>
</defs>
</svg>
