<svg width="24" height="24" viewBox="0 0 24 24" fill="none" xmlns="http://www.w3.org/2000/svg">
<path d="M11.9081 13.2493C9.47485 13.2524 7.12617 14.1427 5.30222 15.7534C3.59183 17.2638 2.45292 19.3104 2.06692 21.5501C2.02604 21.7874 2.21285 21.9987 2.45361 21.9987H2.91233C3.11117 21.9987 3.27884 21.8524 3.31501 21.6569C3.67511 19.7102 4.68583 17.9394 6.18671 16.638C7.775 15.2609 9.80599 14.5017 11.9081 14.4992C12.1713 14.5013 12.4342 14.5153 12.696 14.5412C12.9398 14.5652 13.158 14.3785 13.158 14.1335V13.6883C13.158 13.4878 13.0097 13.3174 12.8102 13.2979C12.5104 13.2685 12.2094 13.2527 11.9081 13.2506" fill="url(#paint0_linear_99_194)"/>
<path d="M11.9081 13.2493C9.47485 13.2524 7.12617 14.1427 5.30222 15.7534C3.59183 17.2638 2.45292 19.3104 2.06692 21.5501C2.02604 21.7874 2.21285 21.9987 2.45361 21.9987H2.91233C3.11117 21.9987 3.27884 21.8524 3.31501 21.6569C3.67511 19.7102 4.68583 17.9394 6.18671 16.638C7.775 15.2609 9.80599 14.5017 11.9081 14.4992C12.1713 14.5013 12.4342 14.5153 12.696 14.5412C12.9398 14.5652 13.158 14.3785 13.158 14.1335V13.6883C13.158 13.4878 13.0097 13.3174 12.8102 13.2979C12.5104 13.2685 12.2094 13.2527 11.9081 13.2506" stroke="url(#paint1_linear_99_194)"/>
<path opacity="0.4" d="M8.37282 3.46437C9.31044 2.52675 10.5821 2 11.9081 2C13.2341 2 14.5058 2.52675 15.4434 3.46437C16.381 4.40199 16.9078 5.67368 16.9078 6.99968C16.9078 8.32567 16.381 9.59736 15.4434 10.535C14.5058 11.4726 13.2341 11.9994 11.9081 11.9994C10.5821 11.9994 9.31044 11.4726 8.37282 10.535C7.4352 9.59736 6.90845 8.32567 6.90845 6.99968C6.90845 5.67368 7.4352 4.40199 8.37282 3.46437Z" fill="url(#paint2_linear_99_194)"/>
<path d="M18.3747 21.7495C20.7908 21.7495 22.7494 19.7909 22.7494 17.3748C22.7494 14.9587 20.7908 13 18.3747 13C15.9586 13 14 14.9587 14 17.3748C14 19.7909 15.9586 21.7495 18.3747 21.7495Z" fill="url(#paint3_linear_99_194)" stroke="url(#paint4_linear_99_194)"/>
<path d="M15.249 16.9485C15.249 16.8381 15.3386 16.7485 15.449 16.7485H21.2986C21.4091 16.7485 21.4986 16.8381 21.4986 16.9485V17.7984C21.4986 17.9089 21.4091 17.9984 21.2986 17.9984H15.449C15.3386 17.9984 15.249 17.9089 15.249 17.7984V16.9485Z" fill="white" stroke="white"/>
<defs>
<linearGradient id="paint0_linear_99_194" x1="16.4041" y1="2.57162" x2="6.97239" y2="20.2259" gradientUnits="userSpaceOnUse">
<stop stop-color="#FE0F7C"/>
<stop offset="1" stop-color="#DF0066"/>
</linearGradient>
<linearGradient id="paint1_linear_99_194" x1="16.4041" y1="2.57162" x2="6.97239" y2="20.2259" gradientUnits="userSpaceOnUse">
<stop stop-color="#FE0F7C"/>
<stop offset="1" stop-color="#DF0066"/>
</linearGradient>
<linearGradient id="paint2_linear_99_194" x1="19.8329" y1="-10.2031" x2="7.78912" y2="7.5715" gradientUnits="userSpaceOnUse">
<stop stop-color="#FE0F7C"/>
<stop offset="1" stop-color="#DF0066"/>
</linearGradient>
<linearGradient id="paint3_linear_99_194" x1="22.4538" y1="13.2501" x2="19.0412" y2="21.8193" gradientUnits="userSpaceOnUse">
<stop stop-color="#FE0F7C"/>
<stop offset="1" stop-color="#DF0066"/>
</linearGradient>
<linearGradient id="paint4_linear_99_194" x1="22.4538" y1="13.2501" x2="19.0412" y2="21.8193" gradientUnits="userSpaceOnUse">
<stop stop-color="#FE0F7C"/>
<stop offset="1" stop-color="#DF0066"/>
</linearGradient>
</defs>
</svg>
