<svg width="32" height="32" viewBox="0 0 32 32" fill="none" xmlns="http://www.w3.org/2000/svg">
<path d="M30 14.8333C30 15.4522 29.7542 16.0457 29.3166 16.4832C28.879 16.9208 28.2855 17.1667 27.6667 17.1667H18.1667C17.6144 17.1667 17.1667 16.719 17.1667 16.1667V13.5302C17.1667 12.9475 16.6703 12.4952 16.0877 12.4997C16.0584 12.4999 16.0292 12.5 16 12.5C15.9708 12.5 15.9416 12.4999 15.9123 12.4997C15.3297 12.4952 14.8333 12.9475 14.8333 13.5302V16.1667C14.8333 16.719 14.3856 17.1667 13.8333 17.1667H4.33333C3.71449 17.1667 3.121 16.9208 2.68342 16.4832C2.24583 16.0457 2 15.4522 2 14.8333C2 13.5957 2.49167 12.4087 3.36683 11.5335C4.242 10.6583 5.42899 10.1667 6.66667 10.1667V10.1667C7.37269 10.1667 7.77142 9.21259 7.42678 8.5964C7.32938 8.42225 7.24053 8.24298 7.16068 8.0592C6.81025 7.2527 6.6416 6.37898 6.66667 5.5C6.66667 5.19058 6.78958 4.89383 7.00838 4.67504C7.22717 4.45625 7.52391 4.33333 7.83333 4.33333C8.14275 4.33333 8.4395 4.45625 8.65829 4.67504C8.87708 4.89383 9 5.19058 9 5.5C9 7.62064 10.3294 8.78026 11.8458 9.41303C12.6238 9.73766 13.2835 8.8582 13.0183 8.05803C12.7443 7.23162 12.5698 6.37291 12.5 5.5C12.5 4.57174 12.8687 3.6815 13.5251 3.02513C14.1815 2.36875 15.0717 2 16 2C16.9283 2 17.8185 2.36875 18.4749 3.02513C19.1313 3.6815 19.5 4.57174 19.5 5.5C19.4302 6.37291 19.2557 7.23162 18.9817 8.05803C18.7165 8.8582 19.3762 9.73766 20.1542 9.41303C21.6706 8.78026 23 7.62064 23 5.5C23 5.19058 23.1229 4.89383 23.3417 4.67504C23.5605 4.45625 23.8572 4.33333 24.1667 4.33333C24.4761 4.33333 24.7728 4.45625 24.9916 4.67504C25.2104 4.89383 25.3333 5.19058 25.3333 5.5C25.3584 6.37898 25.1897 7.2527 24.8393 8.0592C24.7595 8.24298 24.6706 8.42225 24.5732 8.5964C24.2286 9.21259 24.6273 10.1667 25.3333 10.1667V10.1667C26.571 10.1667 27.758 10.6583 28.6332 11.5335C29.5083 12.4087 30 13.5957 30 14.8333ZM14.8333 5.5C14.9094 6.16989 15.0604 6.82726 15.2822 7.46012C15.5356 8.18306 16.4644 8.18306 16.7178 7.46012C16.9396 6.82726 17.0906 6.16989 17.1667 5.5C17.1667 5.19058 17.0437 4.89383 16.825 4.67504C16.6062 4.45625 16.3094 4.33333 16 4.33333C15.6906 4.33333 15.3938 4.45625 15.175 4.67504C14.9562 4.89383 14.8333 5.19058 14.8333 5.5Z" fill="url(#paint0_linear_305_216)"/>
<g opacity="0.4">
<path d="M13.8333 19.5H5.33331C4.78103 19.5 4.33331 19.9477 4.33331 20.5V24.1667C4.33331 25.7138 4.94789 27.1975 6.04186 28.2915C7.13582 29.3854 8.61955 30 10.1666 30H13.8333C14.3856 30 14.8333 29.5523 14.8333 29V20.5C14.8333 19.9477 14.3856 19.5 13.8333 19.5Z" fill="url(#paint1_linear_305_216)"/>
<path d="M21.8333 30H18.1666C17.6144 30 17.1666 29.5523 17.1666 29V20.5C17.1666 19.9477 17.6144 19.5 18.1666 19.5H26.6666C27.2189 19.5 27.6666 19.9477 27.6666 20.5V24.1667C27.6666 24.9327 27.5158 25.6913 27.2226 26.399C26.9295 27.1067 26.4998 27.7498 25.9581 28.2915C25.4164 28.8331 24.7734 29.2628 24.0656 29.556C23.3579 29.8491 22.5994 30 21.8333 30Z" fill="url(#paint2_linear_305_216)"/>
</g>
<defs>
<linearGradient id="paint0_linear_305_216" x1="1.59528" y1="2.14924" x2="14.4793" y2="26.6628" gradientUnits="userSpaceOnUse">
<stop stop-color="#F9D423"/>
<stop offset="0.515624" stop-color="#FF4E50"/>
<stop offset="0.991304" stop-color="#8A2387"/>
</linearGradient>
<linearGradient id="paint1_linear_305_216" x1="3.99605" y1="19.6033" x2="11.9389" y2="37.7942" gradientUnits="userSpaceOnUse">
<stop stop-color="#F9D423"/>
<stop offset="0.515624" stop-color="#FF4E50"/>
<stop offset="0.991304" stop-color="#8A2387"/>
</linearGradient>
<linearGradient id="paint2_linear_305_216" x1="3.99605" y1="19.6033" x2="11.9389" y2="37.7942" gradientUnits="userSpaceOnUse">
<stop stop-color="#F9D423"/>
<stop offset="0.515624" stop-color="#FF4E50"/>
<stop offset="0.991304" stop-color="#8A2387"/>
</linearGradient>
</defs>
</svg>
