<svg width="22" height="22" viewBox="0 0 22 22" fill="none" xmlns="http://www.w3.org/2000/svg">
<path d="M6.54194 2.74187C6.07673 2.33396 6.45829 1.41385 7.09996 1.56739C8.28704 1.8825 9.43631 2.32823 10.6108 2.68802C10.895 2.79687 11.2547 2.83812 11.4266 3.12229C11.5974 3.36177 11.4988 3.66541 11.4908 3.93468C10.9259 4.24177 10.2705 4.17302 9.6586 4.28646C7.74621 4.59239 6.01829 5.78521 4.99392 7.41916C4.33621 8.45385 3.95235 9.66614 3.91798 10.8933C3.89965 11.0961 3.92142 11.3173 3.82402 11.5052C3.58913 11.865 3.0036 11.9303 2.70798 11.6118C2.55788 11.4491 2.56933 11.213 2.56017 11.0079C2.51433 8.84802 3.4734 6.73396 4.98131 5.21114C5.81433 4.35521 6.87538 3.78229 7.94673 3.28041C7.47694 3.10625 6.96933 3.00885 6.54194 2.74187Z" fill="url(#paint0_linear_451_2990)" stroke="url(#paint1_linear_451_2990)"/>
<path d="M17.8054 10.9931C17.7779 10.6436 17.9922 10.2735 18.3577 10.2163C18.714 10.1418 19.1071 10.4053 19.1449 10.7731C19.248 12.6225 18.6739 14.4902 17.6037 15.9958C16.6745 17.2723 15.3797 18.2371 13.9416 18.8696C14.0975 18.9131 14.2522 18.959 14.408 19.0048C14.6899 19.0965 15.0027 19.1641 15.2238 19.376C15.4404 19.6453 15.2983 19.9936 15.2559 20.2961C14.9844 20.4004 14.6933 20.5413 14.3988 20.4359C13.3183 20.1598 12.247 19.8516 11.171 19.5582C10.8227 19.4677 10.4881 19.3313 10.1741 19.156C10.1455 18.7848 10.1982 18.4135 10.4262 18.1076C12.2 18.103 14.007 17.5691 15.3533 16.382C16.9162 15.0631 17.7859 13.0247 17.8054 10.9931Z" fill="url(#paint2_linear_451_2990)" stroke="url(#paint3_linear_451_2990)"/>
<path fill-rule="evenodd" clip-rule="evenodd" d="M13.3281 3.01581C14.5588 1.713 16.6694 1.4655 18.2014 2.37758C18.9313 2.8405 19.5546 3.49821 19.8582 4.31862C20.3384 5.54237 20.1871 7.00217 19.44 8.08842C18.8098 8.98446 17.8038 9.59862 16.7175 9.74873C15.6473 9.91029 14.5324 9.58602 13.6811 8.92602C13.4232 8.7106 13.1906 8.46539 12.9775 8.20529C11.8065 6.69394 11.9692 4.35873 13.3281 3.01581ZM17.491 3.57154C16.3761 2.85196 14.7742 3.21519 14.0512 4.31748C13.2823 5.35102 13.4782 6.91164 14.4407 7.75498C14.8292 8.08154 15.3001 8.31873 15.8066 8.38519C17.0693 8.588 18.3881 7.68623 18.6884 6.44987C18.8339 5.77498 18.7651 5.02217 18.3675 4.44123C18.1418 4.09175 17.8359 3.80185 17.491 3.57154Z" fill="url(#paint4_linear_451_2990)" stroke="url(#paint5_linear_451_2990)"/>
<path fill-rule="evenodd" clip-rule="evenodd" d="M1.79576 13.4016C1.77743 13.0476 1.9917 12.6236 2.40305 12.6694C3.31917 12.6634 4.23527 12.6707 5.15139 12.678C6.12246 12.6859 7.09354 12.6937 8.06461 12.6855C8.14033 12.6883 8.21809 12.6879 8.29658 12.6874C8.59346 12.6856 8.90069 12.6836 9.14628 12.8631C9.32274 12.9811 9.34222 13.2091 9.34451 13.4016C9.3573 14.5248 9.35546 15.6483 9.35362 16.772C9.35234 17.5616 9.35104 18.3514 9.35482 19.1411C9.35826 19.4104 9.3342 19.6785 9.29295 19.9455C9.00878 20.091 8.6994 20.193 8.37513 20.1724C7.50199 20.1671 6.6286 20.1679 5.75507 20.1687C4.74174 20.1697 3.72823 20.1706 2.71472 20.162C2.50067 20.1588 2.28761 20.1332 2.07553 20.1075C2.05827 20.1054 2.04102 20.1034 2.02378 20.1013C2.00807 20.0653 1.99171 20.0294 1.9753 19.9931C1.88518 19.7948 1.79356 19.5932 1.80034 19.3703C1.78545 17.3811 1.77743 15.3908 1.79576 13.4016ZM5.47738 14.0035C4.70574 14.0042 3.93404 14.005 3.16274 13.9997C3.1752 15.2411 3.17313 16.4833 3.17104 17.7255C3.17046 18.0805 3.16986 18.4355 3.16961 18.7905C3.29549 18.7915 3.42129 18.7923 3.54705 18.793C3.86197 18.7951 4.17664 18.797 4.4919 18.8019C5.65378 18.8077 6.81565 18.8111 7.97753 18.8008C7.97409 17.2001 7.9718 15.5993 7.97868 13.9986C7.72315 14.002 7.46878 14.0032 7.21326 14.0043C6.63477 14.0024 6.05609 14.003 5.47738 14.0035Z" fill="url(#paint6_linear_451_2990)" stroke="url(#paint7_linear_451_2990)"/>
<defs>
<linearGradient id="paint0_linear_451_2990" x1="3.2475" y1="11.8169" x2="3.2475" y2="-7.10039" gradientUnits="userSpaceOnUse">
<stop stop-color="#02AA93"/>
<stop offset="1" stop-color="#67FF80"/>
</linearGradient>
<linearGradient id="paint1_linear_451_2990" x1="3.2475" y1="11.8169" x2="3.2475" y2="-7.10039" gradientUnits="userSpaceOnUse">
<stop stop-color="#02AA93"/>
<stop offset="1" stop-color="#67FF80"/>
</linearGradient>
<linearGradient id="paint2_linear_451_2990" x1="10.8576" y1="20.4732" x2="10.8576" y2="1.55041" gradientUnits="userSpaceOnUse">
<stop stop-color="#02AA93"/>
<stop offset="1" stop-color="#67FF80"/>
</linearGradient>
<linearGradient id="paint3_linear_451_2990" x1="10.8576" y1="20.4732" x2="10.8576" y2="1.55041" gradientUnits="userSpaceOnUse">
<stop stop-color="#02AA93"/>
<stop offset="1" stop-color="#67FF80"/>
</linearGradient>
<linearGradient id="paint4_linear_451_2990" x1="12.8043" y1="9.7897" x2="12.8043" y2="-4.87135" gradientUnits="userSpaceOnUse">
<stop stop-color="#02AA93"/>
<stop offset="1" stop-color="#67FF80"/>
</linearGradient>
<linearGradient id="paint5_linear_451_2990" x1="12.8043" y1="9.7897" x2="12.8043" y2="-4.87135" gradientUnits="userSpaceOnUse">
<stop stop-color="#02AA93"/>
<stop offset="1" stop-color="#67FF80"/>
</linearGradient>
<linearGradient id="paint6_linear_451_2990" x1="2.36667" y1="20.175" x2="2.36667" y2="6.33891" gradientUnits="userSpaceOnUse">
<stop stop-color="#02AA93"/>
<stop offset="1" stop-color="#67FF80"/>
</linearGradient>
<linearGradient id="paint7_linear_451_2990" x1="2.36667" y1="20.175" x2="2.36667" y2="6.33891" gradientUnits="userSpaceOnUse">
<stop stop-color="#02AA93"/>
<stop offset="1" stop-color="#67FF80"/>
</linearGradient>
</defs>
</svg>
