<svg width="16" height="16" viewBox="0 0 16 16" fill="none" xmlns="http://www.w3.org/2000/svg">
<path opacity="0.4" d="M3.54544 2.21338C2.13527 2.21338 1 3.34865 1 4.75881V12.5144C1 13.9246 2.13527 15.0599 3.54544 15.0599H11.1817C12.5919 15.0599 13.7272 13.9246 13.7272 12.5144V8.62395C13.7272 8.47186 13.6409 8.33301 13.5001 8.27544C13.1969 8.15143 12.7624 7.99752 12.3649 7.83011C12.0254 7.68712 11.4545 7.9952 11.4545 8.3636V11.5144C11.4545 12.2195 10.8868 12.7872 10.1817 12.7872H4.54544C3.84035 12.7872 3.27272 12.2195 3.27272 11.5144V5.75881C3.27272 5.05373 3.84035 4.4861 4.54544 4.4861H7.60272C7.97131 4.4861 8.27945 3.91442 8.13588 3.57494C7.96765 3.17718 7.81276 2.74241 7.68782 2.4393C7.63004 2.29912 7.49151 2.21338 7.3399 2.21338H3.54544Z" fill="url(#paint0_linear_304_191)"/>
<path d="M8.78296 1.84037C8.45099 1.50823 8.68623 0.940518 9.15583 0.940518H14.3238C14.699 0.93448 15.0059 1.23892 14.9999 1.61416V6.76221C14.9999 7.23181 14.4322 7.46704 14.1 7.13507L13.0572 6.09516C12.6665 5.70558 12.0341 5.70603 11.644 6.09616L8.98183 8.75829C8.798 8.94853 8.48692 8.99909 8.2475 8.88965C8.18952 8.86315 8.14134 8.82008 8.09632 8.77495L7.18212 7.85844C6.94678 7.60461 6.94678 7.21241 7.18212 6.95858L9.83677 4.30394C10.2279 3.91283 10.2272 3.2785 9.83527 2.88822L8.78296 1.84037Z" fill="url(#paint1_linear_304_191)"/>
<defs>
<linearGradient id="paint0_linear_304_191" x1="7.36359" y1="15.0599" x2="7.36359" y2="2.21338" gradientUnits="userSpaceOnUse">
<stop stop-color="#A93AFF"/>
<stop offset="1" stop-color="#FF81FF"/>
</linearGradient>
<linearGradient id="paint1_linear_304_191" x1="11.0028" y1="8.94663" x2="11.0028" y2="0.94043" gradientUnits="userSpaceOnUse">
<stop stop-color="#A93AFF"/>
<stop offset="1" stop-color="#FF81FF"/>
</linearGradient>
</defs>
</svg>
