<svg width="24" height="24" viewBox="0 0 24 24" fill="none" xmlns="http://www.w3.org/2000/svg">
<path opacity="0.4" d="M12 19.7001C16.2526 19.7001 19.7 16.2527 19.7 12.0001C19.7 7.74746 16.2526 4.30005 12 4.30005C7.74746 4.30005 4.30005 7.74746 4.30005 12.0001C4.30005 16.2527 7.74746 19.7001 12 19.7001Z" fill="url(#paint0_linear_299_390)"/>
<path fill-rule="evenodd" clip-rule="evenodd" d="M12 23C18.0753 23 23 18.0753 23 12C23 5.9247 18.0753 1 12 1C5.9247 1 1 5.9247 1 12C1 18.0753 5.9247 23 12 23ZM12 19.7C13.0112 19.7 14.0125 19.5008 14.9467 19.1139C15.8809 18.7269 16.7297 18.1597 17.4447 17.4447C18.1597 16.7297 18.7269 15.8809 19.1139 14.9467C19.5008 14.0125 19.7 13.0112 19.7 12C19.7 10.9888 19.5008 9.98754 19.1139 9.05334C18.7269 8.11913 18.1597 7.27029 17.4447 6.55528C16.7297 5.84027 15.8809 5.27309 14.9467 4.88613C14.0125 4.49917 13.0112 4.3 12 4.3C9.95783 4.3 7.99931 5.11125 6.55528 6.55528C5.11125 7.99931 4.3 9.95783 4.3 12C4.3 14.0422 5.11125 16.0007 6.55528 17.4447C7.99931 18.8888 9.95783 19.7 12 19.7Z" fill="url(#paint1_linear_299_390)"/>
<defs>
<linearGradient id="paint0_linear_299_390" x1="12" y1="19.7001" x2="12" y2="4.30005" gradientUnits="userSpaceOnUse">
<stop stop-color="#FDA700"/>
<stop offset="1" stop-color="#FFDE00"/>
</linearGradient>
<linearGradient id="paint1_linear_299_390" x1="12" y1="23" x2="12" y2="1" gradientUnits="userSpaceOnUse">
<stop stop-color="#FD5900"/>
<stop offset="1" stop-color="#FFDE00"/>
</linearGradient>
</defs>
</svg>
