<svg width="16" height="16" viewBox="0 0 16 16" fill="none" xmlns="http://www.w3.org/2000/svg">
<path fill-rule="evenodd" clip-rule="evenodd" d="M11.8612 0.710682C12.6848 0.629844 13.4703 0.997878 14.2112 1.73871C14.952 2.47955 15.32 3.2651 15.2392 4.08864C15.1622 4.87284 14.6923 5.5016 14.2112 5.98272L13.4897 6.70422C13.4853 6.70867 13.4809 6.71307 13.4765 6.7174L9.13326 11.0606L9.1246 11.0693C9.12458 11.0693 9.12455 11.0693 9.12453 11.0693V11.0693C9.12451 11.0693 9.12448 11.0693 9.12446 11.0693C8.95439 11.2339 8.74012 11.371 8.54102 11.4711C8.34356 11.5703 8.10077 11.6634 7.85838 11.6981L5.91873 11.9752L5.91492 11.9757C5.91491 11.9757 5.91491 11.9757 5.91491 11.9757V11.9757C5.91491 11.9757 5.91491 11.9757 5.91491 11.9757C5.36662 12.0511 4.82195 11.9028 4.4336 11.516C4.04422 11.1282 3.89423 10.5824 3.9749 10.0299L3.97513 10.0283L4.25147 8.0939L4.25167 8.0925C4.28604 7.84777 4.37854 7.60352 4.47881 7.40402C4.57938 7.20393 4.7189 6.98695 4.88925 6.81661L9.22647 2.47938C9.23465 2.47081 9.24304 2.46242 9.25164 2.45422L9.96714 1.73871C10.4483 1.25759 11.077 0.787658 11.8612 0.710682ZM9.63852 4.55329C9.56866 4.43969 9.4102 4.41698 9.3159 4.51128L5.94991 7.87727C5.92693 7.90024 5.87313 7.97003 5.81905 8.07764C5.76485 8.18546 5.74153 8.2693 5.73708 8.3012L5.73674 8.30362C5.73674 8.30362 5.73674 8.30362 5.73674 8.30362V8.30362C5.73673 8.30362 5.73673 8.30362 5.73673 8.30362L5.45964 10.2433L5.45923 10.2461C5.43731 10.3954 5.48395 10.4451 5.49211 10.4532C5.50165 10.4627 5.55592 10.5106 5.7088 10.4899L5.71042 10.4897L7.64625 10.2131C7.67451 10.2091 7.75714 10.1862 7.86739 10.1308C7.97263 10.0779 8.04698 10.0235 8.07849 9.99407L11.4396 6.63297C11.5339 6.53866 11.5112 6.38019 11.3975 6.31038C10.6812 5.87036 10.0782 5.26819 9.63852 4.55329ZM12.846 5.22656C12.7891 5.28341 12.7036 5.30112 12.6301 5.26833C11.7602 4.87978 11.0659 4.18524 10.6805 3.32042C10.6478 3.24707 10.6656 3.1616 10.7224 3.10482L11.0278 2.79937C11.4231 2.40411 11.7416 2.22964 12.0078 2.20351C12.2346 2.18124 12.6025 2.2514 13.1505 2.79937C13.6985 3.34734 13.7686 3.71527 13.7464 3.94211C13.7202 4.20829 13.5458 4.5268 13.1505 4.92206L12.846 5.22656ZM1.96702 2.12892C2.90144 1.1945 4.27604 0.862093 5.96102 0.862093H7.24982C7.66404 0.862093 7.99982 1.19788 7.99982 1.61209C7.99982 2.02631 7.66404 2.36209 7.24982 2.36209H5.96102C4.42398 2.36209 3.54316 2.67409 3.02768 3.18958C2.5122 3.70506 2.2002 4.58588 2.2002 6.12291V9.98933C2.2002 11.5264 2.5122 12.4072 3.02768 12.9227C3.54316 13.4382 4.42398 13.7502 5.96102 13.7502H9.82743C11.3645 13.7502 12.2453 13.4382 12.7608 12.9227C13.2763 12.4072 13.5883 11.5264 13.5883 9.98933V8.70053C13.5883 8.28631 13.924 7.95053 14.3383 7.95053C14.7525 7.95053 15.0883 8.28631 15.0883 8.70053V9.98933C15.0883 11.6743 14.7559 13.0489 13.8214 13.9833C12.887 14.9178 11.5124 15.2502 9.82743 15.2502H5.96102C4.27604 15.2502 2.90144 14.9178 1.96702 13.9833C1.0326 13.0489 0.700195 11.6743 0.700195 9.98933V6.12291C0.700195 4.43793 1.0326 3.06334 1.96702 2.12892Z" fill="url(#paint0_linear_488_559)"/>
<defs>
<linearGradient id="paint0_linear_488_559" x1="4.33769" y1="14.2108" x2="13.9667" y2="2.97735" gradientUnits="userSpaceOnUse">
<stop stop-color="#A056FF"/>
<stop offset="1" stop-color="#C59AFD"/>
</linearGradient>
</defs>
</svg>
