<svg width="64" height="64" viewBox="0 0 64 64" fill="none" xmlns="http://www.w3.org/2000/svg">
<path d="M47.2525 32.3475C47.2525 31.4808 47.2051 30.7721 47.105 30.104C47.0207 29.5422 46.5202 29.1514 45.952 29.1514H33.4656C32.7909 29.1514 32.2443 29.6981 32.2443 30.3727V33.7318C32.2443 34.4062 32.7909 34.9531 33.4656 34.9531H39.4826C40.2152 34.9531 40.7807 35.5985 40.532 36.2876C40.0791 37.5425 39.1714 38.97 37.6637 40.0253L37.6347 40.2195L42.2757 43.8147L42.5971 43.8469C45.5502 41.1196 47.2525 37.1069 47.2525 32.3475Z" fill="url(#paint0_linear_299_380)"/>
<path d="M32.2442 47.6336C36.465 47.6336 40.0087 46.2439 42.597 43.8468L37.6637 40.0252C36.3436 40.9458 34.5716 41.5885 32.2442 41.5885C28.1098 41.5885 24.6011 38.8614 23.3503 35.092L23.1669 35.1077L18.3412 38.8421L18.2781 39.0178C20.8489 44.1246 26.1295 47.6336 32.2442 47.6336Z" fill="url(#paint1_linear_299_380)"/>
<path d="M23.3503 35.092C23.0202 34.1193 22.8293 33.077 22.8293 32C22.8293 30.923 23.0203 29.8807 23.333 28.908L23.3242 28.7008L18.438 24.9062L18.2781 24.9822C17.2186 27.1013 16.6106 29.4813 16.6106 32C16.6106 34.5187 17.2185 36.8984 18.278 39.0178L23.3503 35.092Z" fill="url(#paint2_linear_299_380)"/>
<path d="M32.2443 22.4114C34.5116 22.4114 36.2088 23.1678 37.3845 24.0005C37.918 24.3784 38.6579 24.3791 39.1257 23.9223L41.7839 21.3268C42.2832 20.8394 42.2759 20.0292 41.7282 19.5969C39.1663 17.5754 35.9768 16.3665 32.2443 16.3665C26.1296 16.3665 20.849 19.8753 18.2782 24.9823L23.333 28.908C24.6012 25.1386 28.1099 22.4114 32.2443 22.4114Z" fill="url(#paint3_linear_299_380)"/>
<path opacity="0.4" d="M52.1763 51.6805C52.6678 52.1597 52.6693 52.9517 52.158 53.4097C49.4693 55.8185 46.3467 57.727 42.9444 59.0375C39.1492 60.4993 35.0861 61.1852 31.0077 61.0526C26.9295 60.9202 22.9224 59.9721 19.2351 58.2671C15.9303 56.7391 12.9454 54.6325 10.4271 52.0552C9.94744 51.5642 10.0017 50.7742 10.5238 50.3286L15.1675 46.3655C15.6716 45.9354 16.4244 45.9886 16.8945 46.4559C18.6371 48.1883 20.6816 49.6097 22.9358 50.6518C25.554 51.8624 28.3993 52.5357 31.2955 52.6297C34.1913 52.7238 37.0765 52.2369 39.7716 51.1988C42.0924 50.305 44.2301 49.0188 46.0873 47.4027C46.5873 46.9677 47.3419 46.9647 47.8163 47.4274L52.1763 51.6805Z" fill="url(#paint4_linear_299_380)"/>
<path d="M53.0806 13.1523C53.5745 12.7105 54.333 12.7418 54.7668 13.2428C59.0062 18.1383 61.4761 24.2736 61.7714 30.6975C62.067 37.12 60.1709 43.4453 56.3993 48.6908C56.0121 49.2292 55.259 49.3284 54.7273 48.9322L49.8205 45.2766C49.2704 44.8667 49.1688 44.086 49.5584 43.5212C52.0815 39.863 53.3439 35.5014 53.1402 31.0752C52.9367 26.6479 51.2788 22.4139 48.4291 18.9903C47.9902 18.4628 48.0214 17.6756 48.5329 17.2181L53.0806 13.1523Z" fill="url(#paint5_linear_299_380)"/>
<path opacity="0.4" d="M11.8234 12.3197C11.332 11.8404 11.3305 11.0483 11.8418 10.5903C17.055 5.91997 23.8157 3.20246 30.9172 2.95061C38.0192 2.69872 44.9652 4.93073 50.5129 9.22046C51.0557 9.6403 51.1116 10.4302 50.6565 10.9439L46.6274 15.4912C46.188 15.9873 45.4349 16.0391 44.9048 15.6412C41.0062 12.715 36.1717 11.1973 31.231 11.3725C26.2906 11.5477 21.5826 13.4035 17.9125 16.5973C17.4125 17.0323 16.658 17.0354 16.1835 16.5727L11.8234 12.3197Z" fill="url(#paint6_linear_299_380)"/>
<path d="M8.64646 48.1016C8.10031 48.478 7.35105 48.3512 6.98417 47.7987C3.6753 42.814 2.00552 36.9506 2.21624 30.9969C2.427 25.0423 4.50803 19.3045 8.16263 14.5538C8.56683 14.0283 9.32242 13.9535 9.84116 14.3663L14.6238 18.1722C15.1607 18.5995 15.2372 19.3832 14.8296 19.9352C12.3858 23.244 10.9959 27.1938 10.851 31.2879C10.7061 35.3814 11.8133 39.4149 14.0169 42.8802C14.3849 43.4589 14.2547 44.2347 13.6902 44.6241L8.64646 48.1016Z" fill="url(#paint7_linear_299_380)"/>
<defs>
<linearGradient id="paint0_linear_299_380" x1="31.9316" y1="47.6337" x2="31.9316" y2="16.3665" gradientUnits="userSpaceOnUse">
<stop stop-color="#A93AFF"/>
<stop offset="1" stop-color="#FF81FF"/>
</linearGradient>
<linearGradient id="paint1_linear_299_380" x1="31.9315" y1="47.6336" x2="31.9315" y2="16.3664" gradientUnits="userSpaceOnUse">
<stop stop-color="#A93AFF"/>
<stop offset="1" stop-color="#FF81FF"/>
</linearGradient>
<linearGradient id="paint2_linear_299_380" x1="31.9315" y1="47.6336" x2="31.9315" y2="16.3664" gradientUnits="userSpaceOnUse">
<stop stop-color="#A93AFF"/>
<stop offset="1" stop-color="#FF81FF"/>
</linearGradient>
<linearGradient id="paint3_linear_299_380" x1="31.9316" y1="47.6336" x2="31.9316" y2="16.3665" gradientUnits="userSpaceOnUse">
<stop stop-color="#A93AFF"/>
<stop offset="1" stop-color="#FF81FF"/>
</linearGradient>
<linearGradient id="paint4_linear_299_380" x1="51.2977" y1="52.7633" x2="12.3358" y2="48.9771" gradientUnits="userSpaceOnUse">
<stop stop-color="#00B59C"/>
<stop offset="1" stop-color="#9CFFAC"/>
</linearGradient>
<linearGradient id="paint5_linear_299_380" x1="51.9083" y1="50.3206" x2="50.5648" y2="12.2138" gradientUnits="userSpaceOnUse">
<stop stop-color="#5570FF"/>
<stop offset="1" stop-color="#4DD3FF"/>
</linearGradient>
<linearGradient id="paint6_linear_299_380" x1="13.6794" y1="14.4123" x2="47.2672" y2="11.2367" gradientUnits="userSpaceOnUse">
<stop stop-color="#FD3A84"/>
<stop offset="1" stop-color="#FFA68D"/>
</linearGradient>
<linearGradient id="paint7_linear_299_380" x1="12.9466" y1="49.5877" x2="10.9924" y2="13.8015" gradientUnits="userSpaceOnUse">
<stop stop-color="#FD5900"/>
<stop offset="1" stop-color="#FFDE00"/>
</linearGradient>
</defs>
</svg>
