<svg width="22" height="22" viewBox="0 0 22 22" fill="none" xmlns="http://www.w3.org/2000/svg">
<path d="M5.78571 1C5.50957 1 5.28571 1.22386 5.28571 1.5V4.78571C5.28571 5.06186 5.06186 5.28571 4.78571 5.28571H1.5C1.22386 5.28571 1 5.50957 1 5.78571V7.64286C1 7.919 1.22386 8.14286 1.5 8.14286H4.78571C5.06186 8.14286 5.28571 8.36671 5.28571 8.64286V13.3571C5.28571 13.6332 5.06186 13.8571 4.78571 13.8571H1.5C1.22386 13.8571 1 14.081 1 14.3571V16.2143C1 16.4904 1.22386 16.7142 1.5 16.7142H4.78571C5.06186 16.7142 5.28571 16.9381 5.28571 17.2143V20.5C5.28571 20.7761 5.50957 21 5.78571 21H7.64286C7.919 21 8.14286 20.7761 8.14286 20.5V17.2143C8.14286 16.9381 8.36671 16.7142 8.64286 16.7142H13.3571C13.6332 16.7142 13.8571 16.9381 13.8571 17.2143V20.5C13.8571 20.7761 14.081 21 14.3571 21H16.2143C16.4904 21 16.7142 20.7761 16.7142 20.5V17.2143C16.7142 16.9381 16.9381 16.7142 17.2143 16.7142H20.5C20.7761 16.7142 21 16.4904 21 16.2143V14.3571C21 14.081 20.7761 13.8571 20.5 13.8571H17.2143C16.9381 13.8571 16.7142 13.6332 16.7142 13.3571V8.64286C16.7142 8.36671 16.9381 8.14286 17.2143 8.14286H20.5C20.7761 8.14286 21 7.919 21 7.64286V5.78571C21 5.50957 20.7761 5.28571 20.5 5.28571H17.2143C16.9381 5.28571 16.7142 5.06186 16.7142 4.78571V1.5C16.7142 1.22386 16.4904 1 16.2143 1H14.3571C14.081 1 13.8571 1.22386 13.8571 1.5V4.78571C13.8571 5.06186 13.6332 5.28571 13.3571 5.28571H8.64286C8.36671 5.28571 8.14286 5.06186 8.14286 4.78571V1.5C8.14286 1.22386 7.919 1 7.64286 1H5.78571ZM8.14286 8.64286C8.14286 8.36671 8.36671 8.14286 8.64286 8.14286H13.3571C13.6332 8.14286 13.8571 8.36671 13.8571 8.64286V13.3571C13.8571 13.6332 13.6332 13.8571 13.3571 13.8571H8.64286C8.36671 13.8571 8.14286 13.6332 8.14286 13.3571V8.64286Z" fill="url(#paint0_linear_451_2977)"/>
<path fill-rule="evenodd" clip-rule="evenodd" d="M8.14328 1.5C8.14328 1.22386 7.91942 1 7.64328 1H5.78613C5.51 1 5.28613 1.22386 5.28613 1.5V20.5C5.28613 20.7761 5.51 21 5.78613 21H7.64328C7.91942 21 8.14328 20.7761 8.14328 20.5V1.5ZM16.7145 1.5C16.7145 1.22386 16.4906 1 16.2145 1H14.3574C14.0812 1 13.8574 1.22386 13.8574 1.5V20.5C13.8574 20.7761 14.0812 21 14.3574 21H16.2145C16.4906 21 16.7145 20.7761 16.7145 20.5V1.5Z" fill="url(#paint1_linear_451_2977)"/>
<defs>
<linearGradient id="paint0_linear_451_2977" x1="10.1303" y1="20.4629" x2="12.3899" y2="2.39079" gradientUnits="userSpaceOnUse">
<stop stop-color="#8D01A2"/>
<stop offset="1" stop-color="#FF33DB"/>
</linearGradient>
<linearGradient id="paint1_linear_451_2977" x1="7.35756" y1="18.6389" x2="21.8952" y2="11.3906" gradientUnits="userSpaceOnUse">
<stop stop-color="#FE0844"/>
<stop offset="1" stop-color="#FEB302"/>
</linearGradient>
</defs>
</svg>
