<svg width="22" height="22" viewBox="0 0 22 22" fill="none" xmlns="http://www.w3.org/2000/svg">
<path d="M18.0804 1.4997L18.0789 1.49998C16.8987 1.73095 15.7176 1.9584 14.5359 2.18591C12.6277 2.55334 10.7187 2.92091 8.81281 3.30367C8.5081 3.32197 8.26644 3.49773 8.10775 3.72683C7.949 3.956 7.86665 4.24691 7.88297 4.51506C7.88499 5.78094 7.88466 7.04711 7.88433 8.31338C7.88383 10.2581 7.88334 12.2029 7.89131 14.1477C7.09148 13.7017 6.11212 13.5947 5.23332 13.8562C3.91292 14.2326 2.88942 15.4513 2.77141 16.8174C2.63188 18.0089 3.18369 19.2401 4.15515 19.947C5.03126 20.6 6.22888 20.8049 7.27177 20.4584C8.32411 20.134 9.17092 19.2717 9.51084 18.2358C9.66519 17.8787 9.69739 17.5066 9.69358 17.1413C9.69185 16.974 9.68246 16.8057 9.67326 16.6408C9.67239 16.6251 9.67153 16.6096 9.67066 16.5939C9.66064 16.413 9.65171 16.236 9.65331 16.0621C9.6538 15.1982 9.65373 14.3334 9.65367 13.4697C9.65358 12.0585 9.65347 10.6478 9.65577 9.23736C10.1474 9.13233 10.6445 9.05516 11.1453 8.97745L11.15 8.97672C11.6794 8.89456 12.2128 8.81168 12.7411 8.69468C13.0859 8.61711 13.4357 8.56259 13.789 8.50753C13.8304 8.50108 13.8718 8.49461 13.9133 8.48811C14.3076 8.4263 14.7058 8.36041 15.0976 8.2577L15.0998 8.25714L15.1019 8.25646C15.3125 8.1915 15.5059 8.04707 15.6304 7.86224C15.7554 7.67643 15.8151 7.44277 15.7418 7.20565L15.7391 7.19648L15.7345 7.18797C15.6397 7.00611 15.4916 6.8264 15.3081 6.70698C15.1244 6.58739 14.8999 6.52553 14.6611 6.59299C14.5161 6.62178 14.3718 6.65132 14.2277 6.6808C13.6349 6.80203 13.0476 6.92218 12.4503 6.98521L12.4473 6.98551L12.4443 6.98598C12.0544 7.04932 11.6665 7.12513 11.2806 7.20052C11.1822 7.21976 11.0839 7.23896 10.9858 7.25791C10.5414 7.34379 10.0986 7.42497 9.6529 7.48303C9.6557 7.06802 9.65526 6.65334 9.65482 6.23915L9.65477 6.19014C9.65431 5.74823 9.654 5.30688 9.65774 4.86537C9.87651 4.82407 10.0953 4.78277 10.3142 4.74148C12.863 4.26059 15.415 3.77912 17.9565 3.25024C17.9662 4.90575 17.9648 6.55859 17.9634 8.21167C17.962 9.63922 17.9609 11.067 17.9668 12.4967C17.0023 12.0518 15.8029 12.1366 14.9399 12.778C13.9439 13.4747 13.4737 14.8086 13.8104 15.971C14.0899 17.0321 15.0084 17.8916 16.0911 18.1008C17.0551 18.3037 18.1034 17.9838 18.7924 17.2854C19.4913 16.5953 19.7659 15.5766 19.6948 14.6308C19.6899 12.3653 19.6911 10.0999 19.6923 7.8345C19.6936 5.99407 19.6945 4.15355 19.6922 2.31274C19.7249 1.92236 19.4314 1.62685 19.1647 1.45625L19.1584 1.45222L19.1515 1.44911C18.9614 1.36248 18.7683 1.36438 18.5886 1.39165C18.499 1.40527 18.4103 1.42562 18.3257 1.44554C18.3162 1.44777 18.3069 1.44999 18.2975 1.45221C18.2222 1.47004 18.1507 1.48697 18.0804 1.4997ZM16.206 13.9901L16.2074 13.9895C16.569 13.8274 16.9896 13.8794 17.3295 14.0785C17.6694 14.2776 17.9175 14.6156 17.947 15.0087L17.9475 15.0151L17.9487 15.0215C18.0261 15.4124 17.875 15.8056 17.5972 16.0874C17.3192 16.3692 16.9247 16.5293 16.5294 16.4656L16.5261 16.4651L16.5228 16.4648C15.7982 16.3943 15.25 15.6247 15.4213 14.9221L15.4217 14.9203L15.4221 14.9185C15.5072 14.5072 15.8147 14.1527 16.206 13.9901ZM5.65845 15.4828L5.66009 15.4822C6.51842 15.1854 7.57834 15.6674 7.85134 16.5309C7.91175 16.9505 7.90374 17.3844 7.86247 17.8126C7.57611 18.6439 6.58353 19.1353 5.73431 18.8799L5.73247 18.8792L5.73063 18.8788C4.8722 18.6541 4.28451 17.7165 4.4659 16.851L4.4662 16.8495L4.46646 16.8482C4.57956 16.2234 5.05319 15.6809 5.65845 15.4828Z" fill="url(#paint0_linear_451_2975)" stroke="url(#paint1_linear_451_2975)" stroke-width="0.5"/>
<defs>
<linearGradient id="paint0_linear_451_2975" x1="11.2278" y1="1.375" x2="11.2278" y2="20.625" gradientUnits="userSpaceOnUse">
<stop stop-color="#DC18FC"/>
<stop offset="1" stop-color="#8E1EFF"/>
</linearGradient>
<linearGradient id="paint1_linear_451_2975" x1="11.2278" y1="1.375" x2="11.2278" y2="20.625" gradientUnits="userSpaceOnUse">
<stop stop-color="#DC18FC"/>
<stop offset="1" stop-color="#8E1EFF"/>
</linearGradient>
</defs>
</svg>
