<svg width="16" height="16" viewBox="0 0 16 16" fill="none" xmlns="http://www.w3.org/2000/svg">
<g clip-path="url(#clip0_541_881)">
<path d="M7.02797 1.05941C8.56748 0.866171 10.1743 1.14396 11.539 1.89796C13.0793 2.75634 14.2539 4.21775 14.8813 5.86896C15.4499 7.36745 15.4124 9.0514 14.9333 10.569C14.4133 12.3271 13.1432 13.798 11.585 14.7056C11.2381 14.8479 10.8349 14.4778 10.9287 14.1138C10.9781 13.8308 11.2688 13.7143 11.4708 13.5582C12.6624 12.7619 13.6078 11.5568 13.9889 10.1539C14.3963 8.83662 14.3912 7.37522 13.8729 6.0898C13.3035 4.6931 12.2848 3.45857 10.9542 2.75116C9.77019 2.12053 8.38668 1.91521 7.06632 2.09638C5.56436 2.32585 4.14934 3.11781 3.17588 4.29971C2.19987 5.45313 1.65857 6.9801 1.71995 8.50017C1.75575 10.5232 2.84685 12.4807 4.53038 13.5686C4.77502 13.6944 4.96341 13.9843 4.84918 14.2629C4.75797 14.5399 4.42809 14.6633 4.16896 14.5554C2.88435 13.7678 1.84782 12.5669 1.26902 11.1625C0.569186 9.49224 0.508664 7.5538 1.12325 5.84825C1.62704 4.4593 2.54936 3.22737 3.74189 2.37071C4.71023 1.67193 5.84907 1.21729 7.02797 1.05941Z" fill="url(#paint0_linear_541_881)" stroke="url(#paint1_linear_541_881)"/>
<path d="M5.90495 7.00981C5.68154 7.2328 5.5043 7.49767 5.38337 7.78923C5.26244 8.0808 5.2002 8.39338 5.2002 8.70901C5.2002 9.02465 5.26244 9.33723 5.38337 9.6288C5.5043 9.92036 5.68154 10.1852 5.90495 10.4082C6.35655 10.8589 6.96855 11.1121 7.60652 11.1121C8.24455 11.1121 8.85655 10.8589 9.30812 10.4082C9.66572 10.0514 9.91612 9.30981 10.0873 8.52821C10.3449 7.36021 10.4737 6.77621 10.0073 6.31061C9.54172 5.84581 8.95692 5.97461 7.78652 6.23061C7.00412 6.40341 6.26255 6.65221 5.90495 7.00981Z" fill="url(#paint2_linear_541_881)"/>
</g>
<defs>
<linearGradient id="paint0_linear_541_881" x1="15.2569" y1="1.08708" x2="1.64716" y2="15.4317" gradientUnits="userSpaceOnUse">
<stop stop-color="#FE7970"/>
<stop offset="1" stop-color="#DC3282"/>
</linearGradient>
<linearGradient id="paint1_linear_541_881" x1="15.2569" y1="1.08708" x2="1.64716" y2="15.4317" gradientUnits="userSpaceOnUse">
<stop stop-color="#FE7970"/>
<stop offset="1" stop-color="#DC3282"/>
</linearGradient>
<linearGradient id="paint2_linear_541_881" x1="10.304" y1="6.03241" x2="5.23224" y2="11.0686" gradientUnits="userSpaceOnUse">
<stop stop-color="#FE7970"/>
<stop offset="1" stop-color="#DC3282"/>
</linearGradient>
<clipPath id="clip0_541_881">
<rect width="16" height="16" fill="white"/>
</clipPath>
</defs>
</svg>
