<svg width="22" height="22" viewBox="0 0 22 22" fill="none" xmlns="http://www.w3.org/2000/svg">
<path d="M19.2831 16.1211C19.867 16.9505 20.625 17.909 20.625 18.59C20.625 19.1218 20.4137 19.6318 20.0377 20.0079C19.6616 20.384 19.1516 20.5952 18.6198 20.5952C18.088 20.5952 17.5779 20.384 17.2019 20.0079C16.8258 19.6318 16.6145 19.1218 16.6145 18.59C16.6145 17.9684 17.3854 16.9794 17.9717 16.1283C18.0452 16.0229 18.1429 15.9365 18.2567 15.8767C18.3705 15.8169 18.497 15.7853 18.6255 15.7846C18.7541 15.7839 18.881 15.8141 18.9954 15.8727C19.1098 15.9312 19.2085 16.0165 19.2831 16.1211ZM18.5813 13.0307L12.3089 19.303C11.4808 20.1288 10.359 20.5924 9.18961 20.5924C8.02017 20.5924 6.89844 20.1288 6.07029 19.303L2.66703 15.8997C1.83976 15.0725 1.375 13.9504 1.375 12.7804C1.375 11.6105 1.83976 10.4884 2.66703 9.6611L5.72941 6.59874L3.33116 4.2013C3.10545 3.97559 2.97866 3.66948 2.97866 3.35028C2.97866 3.03109 3.10545 2.72497 3.33116 2.49926C3.55686 2.27356 3.86298 2.14676 4.18217 2.14676C4.50136 2.14676 4.80749 2.27356 5.03319 2.49926L7.43064 4.89751L8.93936 3.38878C8.73015 3.15933 8.61774 2.85786 8.62565 2.54744C8.63356 2.23701 8.76122 1.94167 8.98191 1.72319C9.20253 1.50471 9.49912 1.38 9.80959 1.37515C10.1201 1.3703 10.4204 1.48569 10.6478 1.69718L20.2729 11.3222C20.4844 11.5496 20.5998 11.85 20.5949 12.1604C20.5901 12.4709 20.4654 12.7675 20.2469 12.9882C20.0284 13.2089 19.733 13.3365 19.4226 13.3444C19.1122 13.3524 18.8108 13.2399 18.5813 13.0307ZM16.8785 11.3311L10.639 5.09162L9.13186 6.59874L12.252 9.71809C12.4777 9.9438 12.6045 10.2499 12.6045 10.5691C12.6045 10.8883 12.4777 11.1944 12.252 11.4201C12.0263 11.6458 11.7202 11.7726 11.401 11.7726C11.0818 11.7726 10.7757 11.6458 10.55 11.4201L7.43064 8.29998L4.36826 11.3624C4.182 11.5486 4.03425 11.7697 3.93344 12.013C3.83264 12.2563 3.78075 12.517 3.78075 12.7804C3.78075 13.0438 3.83264 13.3046 3.93344 13.5479C4.03425 13.7913 4.182 14.0124 4.36826 14.1985L7.7715 17.6018C7.95774 17.788 8.17877 17.9358 8.42215 18.0366C8.66546 18.1374 8.92623 18.1893 9.18961 18.1893C9.45299 18.1893 9.71376 18.1374 9.95713 18.0366C10.2004 17.9358 10.4215 17.788 10.6077 17.6018L16.8785 11.3311Z" fill="url(#paint0_linear_451_2973)"/>
<defs>
<linearGradient id="paint0_linear_451_2973" x1="1.09675" y1="1.56413" x2="20.9102" y2="22.0154" gradientUnits="userSpaceOnUse">
<stop stop-color="#F9D423"/>
<stop offset="0.515624" stop-color="#FF4E50"/>
<stop offset="0.991304" stop-color="#8A2387"/>
</linearGradient>
</defs>
</svg>
