<svg width="16" height="16" viewBox="0 0 16 16" fill="none" xmlns="http://www.w3.org/2000/svg">
<path opacity="0.4" d="M7.4 1C7.17909 1 7 1.17909 7 1.4V2.76372C7 2.95365 6.86582 3.11572 6.68271 3.16618C4.98683 3.63354 3.63354 4.98683 3.16618 6.68271C3.11572 6.86582 2.95365 7 2.76372 7H1.4C1.17909 7 1 7.17909 1 7.4V8.6C1 8.82091 1.17909 9 1.4 9H2.76372C2.95365 9 3.11572 9.13418 3.16618 9.31729C3.63354 11.0132 4.98683 12.3665 6.68271 12.8338C6.86582 12.8843 7 13.0463 7 13.2363V14.6C7 14.8209 7.17909 15 7.4 15H8.6C8.82091 15 9 14.8209 9 14.6V13.2363C9 13.0463 9.13418 12.8843 9.31729 12.8338C11.0132 12.3665 12.3665 11.0132 12.8338 9.31729C12.8843 9.13418 13.0463 9 13.2363 9H14.6C14.8209 9 15 8.82091 15 8.6V7.4C15 7.17909 14.8209 7 14.6 7H13.2363C13.0463 7 12.8843 6.86582 12.8338 6.68271C12.3665 4.98683 11.0132 3.63354 9.31729 3.16618C9.13418 3.11572 9 2.95365 9 2.76372V1.4C9 1.17909 8.82091 1 8.6 1H7.4Z" fill="url(#paint0_linear_302_183)"/>
<path d="M10 8C10 6.9 9.1 6 8 6C6.9 6 6 6.9 6 8C6 9.1 6.9 10 8 10C9.1 10 10 9.1 10 8Z" fill="url(#paint1_linear_302_183)"/>
<defs>
<linearGradient id="paint0_linear_302_183" x1="8" y1="15" x2="8" y2="1" gradientUnits="userSpaceOnUse">
<stop stop-color="#5570FF"/>
<stop offset="1" stop-color="#4DD3FF"/>
</linearGradient>
<linearGradient id="paint1_linear_302_183" x1="8" y1="10" x2="8" y2="6" gradientUnits="userSpaceOnUse">
<stop stop-color="#5570FF"/>
<stop offset="1" stop-color="#4DD3FF"/>
</linearGradient>
</defs>
</svg>
