<svg width="22" height="22" viewBox="0 0 22 22" fill="none" xmlns="http://www.w3.org/2000/svg">
<path d="M17.0156 4.58334H13.7664C13.6698 3.70349 13.2526 2.89003 12.5944 2.29824C11.9362 1.70646 11.083 1.3778 10.1979 1.375H4.98438C4.02744 1.37606 3.11 1.75667 2.43333 2.43333C1.75667 3.11 1.37606 4.02744 1.375 4.98438V19.4219C1.375 19.7409 1.50175 20.047 1.72738 20.2726C1.95302 20.4982 2.25904 20.625 2.57812 20.625C2.89721 20.625 3.20323 20.4982 3.42887 20.2726C3.6545 20.047 3.78125 19.7409 3.78125 19.4219V12.6041H9.03568C9.13227 13.484 9.54951 14.2975 10.2077 14.8893C10.8659 15.4811 11.7191 15.8097 12.6041 15.8125H17.0156C17.9726 15.8115 18.89 15.4308 19.5667 14.7542C20.2433 14.0775 20.624 13.1601 20.625 12.2031V8.19273C20.624 7.2358 20.2433 6.31832 19.5667 5.64167C18.89 4.96501 17.9726 4.58439 17.0156 4.58334ZM3.78125 4.98438C3.78125 4.66529 3.908 4.35927 4.13363 4.13363C4.35927 3.908 4.66529 3.78125 4.98438 3.78125H10.1979C10.517 3.78125 10.823 3.908 11.0487 4.13363C11.2743 4.35927 11.401 4.66529 11.401 4.98438V8.99477C11.401 9.31391 11.2743 9.61991 11.0487 9.84555C10.823 10.0712 10.517 10.1979 10.1979 10.1979H3.78125V4.98438ZM18.2188 12.2031C18.2188 12.5222 18.092 12.8282 17.8663 13.0538C17.6407 13.2795 17.3347 13.4062 17.0156 13.4062H12.6041C12.3161 13.4051 12.038 13.3005 11.8205 13.1117C11.6029 12.9229 11.4603 12.6622 11.4187 12.3772C12.1162 12.1274 12.7199 11.6685 13.1473 11.0633C13.5747 10.458 13.8051 9.73576 13.8073 8.99477V6.98961H17.0156C17.3347 6.98961 17.6407 7.11631 17.8663 7.34195C18.092 7.56759 18.2188 7.87359 18.2188 8.19273V12.2031Z" fill="url(#paint0_linear_451_2967)"/>
<defs>
<linearGradient id="paint0_linear_451_2967" x1="11" y1="20.625" x2="11" y2="1.375" gradientUnits="userSpaceOnUse">
<stop stop-color="#5570FF"/>
<stop offset="1" stop-color="#4DD3FF"/>
</linearGradient>
</defs>
</svg>
