<svg width="22" height="22" viewBox="0 0 22 22" fill="none" xmlns="http://www.w3.org/2000/svg">
<path d="M1.375 8.25C1.375 8.25 0.6875 8.25 0.6875 8.9375V19.9375C0.6875 20.625 1.375 20.625 1.375 20.625H13.75C13.75 20.625 14.4375 20.625 14.4375 19.9375V15.125H11.6875V17.875H3.4375V12.375H6.1875V8.25H1.375Z" fill="url(#paint0_linear_451_2954)"/>
<path fill-rule="evenodd" clip-rule="evenodd" d="M8.25 1.375C7.5625 1.375 7.5625 2.0625 7.5625 2.0625V13.0625C7.5625 13.75 8.25 13.75 8.25 13.75H20.625C20.625 13.75 21.3125 13.75 21.3125 13.0625V2.0625C21.3125 1.375 20.625 1.375 20.625 1.375H8.25ZM10.3125 5.5H18.5625V11H10.3125V5.5Z" fill="url(#paint1_linear_451_2954)"/>
<defs>
<linearGradient id="paint0_linear_451_2954" x1="0.685486" y1="14.2541" x2="14.4345" y2="14.2541" gradientUnits="userSpaceOnUse">
<stop stop-color="#FD3A84"/>
<stop offset="1" stop-color="#FFA68D"/>
</linearGradient>
<linearGradient id="paint1_linear_451_2954" x1="7.36374" y1="1.49677" x2="20.0109" y2="15.979" gradientUnits="userSpaceOnUse">
<stop stop-color="#F9D423"/>
<stop offset="0.515624" stop-color="#FF4E50"/>
<stop offset="0.991304" stop-color="#8A2387"/>
</linearGradient>
</defs>
</svg>
