<svg width="22" height="22" viewBox="0 0 22 22" fill="none" xmlns="http://www.w3.org/2000/svg">
<path d="M20.9688 7.94922V15.4258C20.9674 16.6372 20.4856 17.7986 19.6291 18.6551C18.7725 19.5117 17.6111 19.9935 16.3997 19.9948H5.60027C4.3889 19.9935 3.22751 19.5117 2.37094 18.6551C1.51437 17.7986 1.03257 16.6372 1.03125 15.4258V6.28777C1.03257 5.0764 1.51437 3.915 2.37094 3.05844C3.22751 2.20187 4.3889 1.72007 5.60027 1.71875H7.67707C7.87057 1.71863 8.06142 1.76357 8.2345 1.85L11.0037 3.23498C11.1947 3.33049 11.4052 3.38021 11.6187 3.38021H16.3997C17.6111 3.38153 18.7725 3.86334 19.6291 4.71989C20.4856 5.57648 20.9674 6.73784 20.9688 7.94922ZM18.4766 7.94922C18.4763 7.70578 18.2594 7.53387 18.016 7.53387H4.89844C4.13906 7.53387 3.52344 8.14945 3.52344 8.90887V15.4258C3.52344 15.9766 3.74223 16.5048 4.13174 16.8943C4.52121 17.2838 5.04945 17.5026 5.60027 17.5026H16.3997C16.9506 17.5026 17.4788 17.2838 17.8683 16.8943C18.2578 16.5048 18.4766 15.9766 18.4766 15.4258V7.94922Z" fill="url(#paint0_linear_451_2948)"/>
<path d="M14.3733 13.3992C14.607 13.1655 14.7383 12.8485 14.7383 12.5181C14.7383 12.1876 14.607 11.8706 14.3733 11.6369C14.1396 11.4033 13.8227 11.272 13.4922 11.272H12.5898C12.4 11.272 12.2461 11.1181 12.2461 10.9282V10.0259C12.2461 9.6954 12.1148 9.37846 11.8811 9.14474C11.6474 8.91106 11.3305 8.77979 11 8.77979C10.6695 8.77979 10.3526 8.91106 10.1189 9.14474C9.88518 9.37846 9.75391 9.6954 9.75391 10.0259V10.9282C9.75391 11.1181 9.60001 11.272 9.41016 11.272H8.50781C8.17733 11.272 7.86039 11.4033 7.62668 11.6369C7.393 11.8706 7.26172 12.1876 7.26172 12.5181C7.26172 12.8485 7.393 13.1655 7.62668 13.3992C7.86039 13.6329 8.17733 13.7642 8.50781 13.7642H9.41016C9.60001 13.7642 9.75391 13.9181 9.75391 14.1079V15.0103C9.75391 15.3407 9.88518 15.6577 10.1189 15.8914C10.3526 16.1251 10.6695 16.2563 11 16.2563C11.3305 16.2563 11.6474 16.1251 11.8811 15.8914C12.1148 15.6577 12.2461 15.3407 12.2461 15.0103V14.1079C12.2461 13.9181 12.4 13.7642 12.5898 13.7642H13.4922C13.8227 13.7642 14.1396 13.6329 14.3733 13.3992Z" fill="url(#paint1_linear_451_2948)"/>
<defs>
<linearGradient id="paint0_linear_451_2948" x1="11" y1="19.9948" x2="11" y2="1.71875" gradientUnits="userSpaceOnUse">
<stop stop-color="#02AA93"/>
<stop offset="1" stop-color="#67FF80"/>
</linearGradient>
<linearGradient id="paint1_linear_451_2948" x1="11" y1="16.2563" x2="11" y2="8.77979" gradientUnits="userSpaceOnUse">
<stop stop-color="#02AA93"/>
<stop offset="1" stop-color="#67FF80"/>
</linearGradient>
</defs>
</svg>
