<svg width="22" height="22" viewBox="0 0 22 22" fill="none" xmlns="http://www.w3.org/2000/svg">
<path fill-rule="evenodd" clip-rule="evenodd" d="M0.6875 3.09375C0.6875 2.33436 1.30311 1.71875 2.0625 1.71875H7.55714C7.55855 1.71875 7.55992 1.71932 7.56092 1.72032C7.56195 1.72133 7.56233 1.72287 7.56326 1.72395C7.56436 1.72523 7.56645 1.72553 7.56786 1.72413C7.56931 1.7227 7.57123 1.7219 7.57323 1.7219C7.57525 1.7219 7.57718 1.7227 7.57862 1.72412L9.92052 4.06601C10.1784 4.32389 10.5281 4.46875 10.8928 4.46875H15.8125C16.5719 4.46875 17.1875 5.08437 17.1875 5.84375V8.25C17.1875 8.43985 17.0336 8.59375 16.8438 8.59375H16.3927C16.0281 8.59375 15.6783 8.44889 15.4205 8.19101L13.0786 5.84911C13.0772 5.8477 13.0753 5.84691 13.0732 5.84691C13.0712 5.84691 13.0693 5.8477 13.0679 5.84911C13.0665 5.85052 13.0644 5.85025 13.0633 5.84894C13.0623 5.84788 13.0619 5.84633 13.0609 5.84533C13.0599 5.8443 13.0585 5.84375 13.0571 5.84375H7.5625C6.80312 5.84375 6.1875 6.45937 6.1875 7.21875V8.25C6.1875 8.43985 6.0336 8.59375 5.84375 8.59375H3.4375C2.67811 8.59375 2.0625 9.20937 2.0625 9.96875V15.4688C2.0625 16.2282 2.67811 16.8438 3.4375 16.8438H5.5C5.68985 16.8438 5.84375 16.9976 5.84375 17.1875V17.875C5.84375 18.0649 5.68985 18.2188 5.5 18.2188H2.0625C1.30311 18.2188 0.6875 17.6032 0.6875 16.8438V3.09375ZM3.4375 3.09375C2.67811 3.09375 2.0625 3.70937 2.0625 4.46875V5.84375C2.0625 6.60313 2.6781 7.21875 3.4375 7.21875H4.23222C4.5969 7.21875 4.94663 7.07389 5.20448 6.81601L7.54638 4.47411C7.54782 4.4727 7.54975 4.47191 7.55177 4.47191C7.55377 4.47191 7.55569 4.4727 7.55714 4.47411C7.55855 4.47552 7.56064 4.47525 7.56174 4.47394C7.56267 4.47287 7.56305 4.47133 7.56408 4.47033C7.56508 4.4693 7.56645 4.46875 7.56786 4.46875H7.80141C8.01432 4.46875 8.12085 4.21121 7.97015 4.06079L7.20253 3.29464C7.07362 3.16599 6.89896 3.09375 6.71684 3.09375H3.4375Z" fill="url(#paint0_linear_451_2942)" stroke="url(#paint1_linear_451_2942)" stroke-width="0.6"/>
<path d="M6.1875 3.78125C5.42812 3.78125 4.8125 4.39687 4.8125 5.15625V9.28125V10.6562V18.9062C4.8125 19.6657 5.42812 20.2812 6.1875 20.2812H19.9375C20.6969 20.2812 21.3125 19.6657 21.3125 18.9062V9.28125V7.90625C21.3125 7.14687 20.6969 6.53125 19.9375 6.53125H15.0177C14.6531 6.53125 14.3034 6.38639 14.0455 6.12851L11.7036 3.78661C11.7022 3.7852 11.7003 3.78441 11.6982 3.78441C11.6962 3.78441 11.6943 3.7852 11.6929 3.78661C11.6915 3.78802 11.6894 3.78775 11.6883 3.78644C11.6873 3.78537 11.6869 3.78383 11.6859 3.78283C11.6849 3.7818 11.6835 3.78125 11.6821 3.78125H6.1875ZM6.1875 7.21875C6.1875 6.45937 6.80312 5.84375 7.5625 5.84375H10.8418C11.024 5.84375 11.1986 5.91601 11.3275 6.04464L12.0952 6.81079C12.2459 6.96121 12.1393 7.21875 11.9264 7.21875H11.6929C11.6915 7.21875 11.6901 7.2193 11.6891 7.22033C11.6881 7.22133 11.6877 7.22288 11.6867 7.22394C11.6856 7.22525 11.6835 7.22552 11.6821 7.22411C11.6807 7.2227 11.6788 7.22191 11.6768 7.22191C11.6747 7.22191 11.6728 7.2227 11.6714 7.22411L9.32948 9.56601C9.07163 9.82389 8.7219 9.96875 8.35722 9.96875H7.5625C6.80309 9.96875 6.1875 9.35313 6.1875 8.59375V7.21875ZM6.1875 12.0312C6.1875 11.2719 6.80312 10.6562 7.5625 10.6562H18.5625C19.3219 10.6562 19.9375 11.2719 19.9375 12.0312V17.5312C19.9375 18.2907 19.3219 18.9062 18.5625 18.9062H7.5625C6.80312 18.9062 6.1875 18.2907 6.1875 17.5312V12.0312Z" fill="url(#paint2_linear_451_2942)" stroke="url(#paint3_linear_451_2942)" stroke-width="0.6"/>
<defs>
<linearGradient id="paint0_linear_451_2942" x1="8.9375" y1="18.2188" x2="8.9375" y2="1.71875" gradientUnits="userSpaceOnUse">
<stop stop-color="#5570FF"/>
<stop offset="1" stop-color="#4DD3FF"/>
</linearGradient>
<linearGradient id="paint1_linear_451_2942" x1="8.9375" y1="18.2188" x2="8.9375" y2="1.71875" gradientUnits="userSpaceOnUse">
<stop stop-color="#5570FF"/>
<stop offset="1" stop-color="#4DD3FF"/>
</linearGradient>
<linearGradient id="paint2_linear_451_2942" x1="20.7551" y1="4.25287" x2="14.3193" y2="20.4129" gradientUnits="userSpaceOnUse">
<stop stop-color="#FE0F7C"/>
<stop offset="1" stop-color="#DF0066"/>
</linearGradient>
<linearGradient id="paint3_linear_451_2942" x1="20.7551" y1="4.25287" x2="14.3193" y2="20.4129" gradientUnits="userSpaceOnUse">
<stop stop-color="#FE0F7C"/>
<stop offset="1" stop-color="#DF0066"/>
</linearGradient>
</defs>
</svg>
