<svg width="16" height="16" viewBox="0 0 16 16" fill="none" xmlns="http://www.w3.org/2000/svg">
<path d="M5.69775 4.36291L7.31066 2.75H15C15.1398 2.75 15.25 2.86021 15.25 3V13C15.25 13.6938 14.6938 14.25 14 14.25H2C1.30621 14.25 0.75 13.6938 0.75 13V5C0.75 4.86021 0.860214 4.75 1 4.75H4.76331C5.11372 4.75 5.44987 4.61081 5.6977 4.36296C5.69772 4.36294 5.69773 4.36293 5.69775 4.36291ZM7.36291 2.69775L7.36296 2.6977L7.36291 2.69775Z" stroke="url(#paint0_linear_169_296)" stroke-width="1.5"/>
<path d="M12.7527 8.68864L8.96158 4.89761C8.81764 4.75361 8.57141 4.85561 8.57141 5.05921V11.1359C8.57141 11.2622 8.67375 11.3645 8.79998 11.3645H10.6286C10.7548 11.3645 10.8571 11.2622 10.8571 11.1359V9.30738C10.8571 9.18115 10.9595 9.07881 11.0857 9.07881H12.591C12.7947 9.07881 12.8966 8.83264 12.7527 8.68864Z" fill="url(#paint1_linear_169_296)"/>
<path d="M7.2 6.79309H5.37143C5.2452 6.79309 5.14286 6.89543 5.14286 7.02166V8.85023C5.14286 8.97652 5.04051 9.0788 4.91428 9.0788H3.40896C3.20532 9.0788 3.10335 9.32503 3.24734 9.46903L7.0384 13.2601C7.18234 13.4041 7.42857 13.3021 7.42857 13.0985V7.02166C7.42857 6.89543 7.32623 6.79309 7.2 6.79309Z" fill="url(#paint2_linear_169_296)"/>
<defs>
<linearGradient id="paint0_linear_169_296" x1="2" y1="13.1254" x2="16.8684" y2="9.46561" gradientUnits="userSpaceOnUse">
<stop stop-color="#62E8AF"/>
<stop offset="1" stop-color="#B3FBDC"/>
</linearGradient>
<linearGradient id="paint1_linear_169_296" x1="9.10249" y1="10.5479" x2="13.1977" y2="9.93343" gradientUnits="userSpaceOnUse">
<stop stop-color="#62E8AF"/>
<stop offset="1" stop-color="#B3FBDC"/>
</linearGradient>
<linearGradient id="paint2_linear_169_296" x1="3.71101" y1="12.5109" x2="7.80618" y2="11.8964" gradientUnits="userSpaceOnUse">
<stop stop-color="#62E8AF"/>
<stop offset="1" stop-color="#B3FBDC"/>
</linearGradient>
</defs>
</svg>
