<svg width="16" height="16" viewBox="0 0 16 16" fill="none" xmlns="http://www.w3.org/2000/svg">
<path d="M0.636364 3.5V7.86364C0.636364 8.41592 1.08408 8.86364 1.63636 8.86364H6C6.55228 8.86364 7 8.41592 7 7.86364V3.5C7 2.94772 6.55228 2.5 6 2.5H1.63636C1.08408 2.5 0.636364 2.94772 0.636364 3.5Z" fill="url(#paint0_linear_162_50)"/>
<path d="M9.57823 5.0238C9.09733 5.0238 8.70748 5.41365 8.70748 5.89455C8.70748 6.37545 9.09733 6.7653 9.57823 6.7653H15.1293C15.6102 6.7653 16 6.37545 16 5.89455C16 5.41365 15.6102 5.0238 15.1293 5.0238H9.57823ZM9.57823 8.5068C9.09733 8.5068 8.70748 8.89664 8.70748 9.37754C8.70748 9.85845 9.09733 10.2483 9.57823 10.2483H10.1769C10.6578 10.2483 11.0476 9.85845 11.0476 9.37754C11.0476 8.89664 10.6578 8.5068 10.1769 8.5068H9.57823ZM0.870749 11.7313C0.389847 11.7313 0 12.1211 0 12.602C0 13.0829 0.389847 13.4728 0.870749 13.4728H15.1293C15.6102 13.4728 16 13.0829 16 12.602C16 12.1211 15.6102 11.7313 15.1293 11.7313H0.870749Z" fill="url(#paint1_linear_162_50)"/>
<defs>
<linearGradient id="paint0_linear_162_50" x1="5.40909" y1="8.40909" x2="1.19786" y2="3.49599" gradientUnits="userSpaceOnUse">
<stop stop-color="#A056FF"/>
<stop offset="1" stop-color="#C59AFD"/>
</linearGradient>
<linearGradient id="paint1_linear_162_50" x1="12" y1="12.8693" x2="7.74915" y2="3.47772" gradientUnits="userSpaceOnUse">
<stop stop-color="#A056FF"/>
<stop offset="1" stop-color="#C59AFD"/>
</linearGradient>
</defs>
</svg>
