<svg width="22" height="22" viewBox="0 0 22 22" fill="none" xmlns="http://www.w3.org/2000/svg">
<path fill-rule="evenodd" clip-rule="evenodd" d="M8.45073 6.00725C8.95933 4.22722 10.5863 3 12.4375 3H16.7073C17.6233 3 18.3659 3.74255 18.3659 4.65853C18.3659 5.57452 17.6233 6.31707 16.7073 6.31707H12.4375C12.0673 6.31707 11.7419 6.56252 11.6402 6.91853L9.948 12.841C9.06967 15.9152 4.87154 16.3053 3.44172 13.4457C3.40978 13.3818 3.34449 13.3415 3.27306 13.3415H2.65853C1.74255 13.3415 1 12.5989 1 11.6829C1 10.7669 1.74255 10.0244 2.65853 10.0244H3.27306C4.6009 10.0244 5.81477 10.7746 6.4086 11.9623C6.43928 12.0236 6.46665 12.0399 6.48096 12.0473C6.50422 12.0595 6.54391 12.0704 6.59472 12.0657C6.64553 12.061 6.68253 12.0429 6.70315 12.0267C6.71583 12.0167 6.73974 11.9957 6.75859 11.9297L8.45073 6.00725ZM12.9004 10.3882C13.5481 9.74053 14.5983 9.74053 15.2459 10.3882L16.2359 11.3782C16.4963 11.6385 16.9184 11.6385 17.1787 11.3782L18.1687 10.3882C18.8164 9.74053 19.8665 9.74053 20.5142 10.3882C21.1619 11.0359 21.1619 12.0861 20.5142 12.7337L19.5243 13.7237C19.2639 13.9841 19.2639 14.4062 19.5243 14.6665L20.5142 15.6565C21.1619 16.3042 21.1619 17.3543 20.5142 18.002C19.8665 18.6497 18.8164 18.6497 18.1687 18.002L17.1787 17.0121C16.9184 16.7517 16.4963 16.7517 16.2359 17.0121L15.2459 18.002C14.5983 18.6497 13.5481 18.6497 12.9004 18.002C12.2527 17.3543 12.2527 16.3042 12.9004 15.6565L13.8904 14.6665C14.1507 14.4062 14.1507 13.9841 13.8904 13.7237L12.9004 12.7337C12.2527 12.0861 12.2527 11.0359 12.9004 10.3882Z" fill="url(#paint0_linear_451_2927)"/>
<defs>
<linearGradient id="paint0_linear_451_2927" x1="11" y1="3" x2="11" y2="18.4878" gradientUnits="userSpaceOnUse">
<stop stop-color="#00FFE0"/>
<stop offset="1" stop-color="#078AA7"/>
</linearGradient>
</defs>
</svg>
