<svg width="22" height="22" viewBox="0 0 22 22" fill="none" xmlns="http://www.w3.org/2000/svg">
<path d="M7.39075 1.375C7.39075 1.375 2.17818 1.37501 1.45742 6.2272C1.41478 6.51423 1.79435 6.62204 1.96056 6.38417C2.97659 4.93006 4.22357 4.65238 7.04847 4.63442C7.20055 4.63345 7.32486 4.76359 7.3241 4.91567C7.2614 17.5055 3.93774 17.854 3.78668 19.8115C3.7801 19.8969 3.82107 19.9796 3.89104 20.0289C5.69902 21.3029 8.41277 20.5116 8.61581 17.8428L9.67929 4.84744C9.69093 4.70515 9.80953 4.59544 9.95229 4.59488L14.1941 4.57824C14.3553 4.57761 14.4823 4.715 14.4692 4.87557L13.4064 17.918C13.4064 21.5273 18.2189 21.5273 19.422 17.918C19.5281 17.5994 18.5736 17.0914 18.3249 17.317C17.0687 18.4563 15.8573 18.8026 15.9192 16.6522L16.9162 4.84686C16.9282 4.70482 17.0468 4.5955 17.1893 4.59502L20.3511 4.58426C20.5026 4.58375 20.6251 4.46077 20.6251 4.30926V1.65C20.6251 1.49812 20.5021 1.375 20.3501 1.375H7.39075Z" fill="url(#paint0_linear_451_2929)"/>
<defs>
<linearGradient id="paint0_linear_451_2929" x1="11.0001" y1="1.375" x2="11.0001" y2="20.625" gradientUnits="userSpaceOnUse">
<stop stop-color="#DC18FC"/>
<stop offset="1" stop-color="#8E1EFF"/>
</linearGradient>
</defs>
</svg>
