<svg width="16" height="16" viewBox="0 0 16 16" fill="none" xmlns="http://www.w3.org/2000/svg">
<path opacity="0.4" d="M4.82174 2.8667C4.65104 2.8667 4.49914 2.97503 4.44355 3.13643L1.18266 12.6031C1.09319 12.8628 1.28614 13.1334 1.56085 13.1334H2.49264C2.66395 13.1334 2.81624 13.0243 2.87136 12.8621L3.32134 11.538C3.37647 11.3758 3.52876 11.2667 3.70007 11.2667H6.70281C6.87361 11.2667 7.02556 11.3751 7.08108 11.5367L7.53715 12.8634C7.59267 13.0249 7.74462 13.1334 7.91542 13.1334H8.83915C9.11385 13.1334 9.30681 12.8628 9.21734 12.6031L5.95645 3.13643C5.90086 2.97503 5.74896 2.8667 5.57826 2.8667H4.82174ZM4.81889 7.21664C4.94019 6.85156 5.45655 6.85143 5.57803 7.21646L6.12954 8.87373C6.21572 9.1327 6.02295 9.40003 5.75001 9.40003H4.64788C4.37503 9.40003 4.18226 9.13286 4.26828 8.87392L4.81889 7.21664Z" fill="url(#paint0_linear_302_131)"/>
<path fill-rule="evenodd" clip-rule="evenodd" d="M11.2 8.4668C10.9791 8.4668 10.8 8.64588 10.8 8.8668V9.00013C10.8 9.22104 10.9791 9.40013 11.2 9.40013H13.6C13.8006 9.40013 14.0666 9.6848 14.0666 9.8668V9.93346C14.0666 10.1544 13.8876 10.3335 13.6666 10.3335H11.7333C11.304 10.3335 10.9213 10.5102 10.6833 10.7855C10.4453 11.0562 10.3333 11.3975 10.3333 11.7335C10.3333 12.0695 10.4599 12.4107 10.6979 12.6814C10.9359 12.952 11.3086 13.1335 11.7333 13.1335H14.6C14.8209 13.1335 15 12.9544 15 12.7335V9.8668C15 9.10613 14.384 8.4668 13.6 8.4668H11.2ZM11.7333 11.2668H13.6667C13.8876 11.2668 14.0667 11.4459 14.0667 11.6668V11.8002C14.0667 12.0211 13.8876 12.2002 13.6667 12.2002H11.7333C11.5467 12.2002 11.4679 12.1483 11.3979 12.0689C11.3279 11.9896 11.2667 11.8642 11.2667 11.7335C11.2667 11.6028 11.3133 11.4774 11.3833 11.3981C11.4533 11.3234 11.5373 11.2668 11.7333 11.2668Z" fill="url(#paint1_linear_302_131)"/>
<defs>
<linearGradient id="paint0_linear_302_131" x1="9.16308" y1="8.00003" x2="1.8753" y2="5.8431" gradientUnits="userSpaceOnUse">
<stop stop-color="#FE7970"/>
<stop offset="1" stop-color="#DC3282"/>
</linearGradient>
<linearGradient id="paint1_linear_302_131" x1="14.8684" y1="10.8001" x2="10.9745" y2="9.39157" gradientUnits="userSpaceOnUse">
<stop stop-color="#FE7970"/>
<stop offset="1" stop-color="#DC3282"/>
</linearGradient>
</defs>
</svg>
