<svg width="16" height="16" viewBox="0 0 16 16" fill="none" xmlns="http://www.w3.org/2000/svg">
<path d="M16 9.86496V4.13504C16 3.2872 15.0111 2.82405 14.3598 3.36682L10.9219 6.23178C10.4421 6.63157 10.4421 7.36843 10.9219 7.76822L14.3598 10.6332C15.0111 11.176 16 10.7128 16 9.86496Z" fill="url(#paint0_linear_162_23)"/>
<path d="M6.42177 5.5238C6.90267 5.5238 7.29252 5.91365 7.29252 6.39455C7.29252 6.87545 6.90267 7.2653 6.42177 7.2653H0.870749C0.389848 7.2653 0 6.87545 0 6.39455C0 5.91365 0.389847 5.5238 0.870748 5.5238H6.42177ZM6.42177 9.0068C6.90267 9.0068 7.29252 9.39664 7.29252 9.87754C7.29252 10.3584 6.90267 10.7483 6.42177 10.7483H5.82313C5.34223 10.7483 4.95238 10.3584 4.95238 9.87754C4.95238 9.39664 5.34223 9.0068 5.82313 9.0068H6.42177ZM15.1293 12.2313C15.6102 12.2313 16 12.6211 16 13.102C16 13.5829 15.6102 13.9728 15.1293 13.9728H0.870748C0.389847 13.9728 0 13.5829 0 13.102C0 12.6211 0.389848 12.2313 0.870749 12.2313H15.1293Z" fill="url(#paint1_linear_162_23)"/>
<defs>
<linearGradient id="paint0_linear_162_23" x1="15.25" y1="10.7503" x2="9.44777" y2="9.94691" gradientUnits="userSpaceOnUse">
<stop stop-color="#62E8AF"/>
<stop offset="1" stop-color="#B3FBDC"/>
</linearGradient>
<linearGradient id="paint1_linear_162_23" x1="2" y1="12.9169" x2="15.2407" y2="7.13073" gradientUnits="userSpaceOnUse">
<stop stop-color="#62E8AF"/>
<stop offset="1" stop-color="#B3FBDC"/>
</linearGradient>
</defs>
</svg>
