<svg width="16" height="16" viewBox="0 0 16 16" fill="none" xmlns="http://www.w3.org/2000/svg">
<path d="M2.03846 1C2.33585 1 2.57692 1.24108 2.57692 1.53846V14.4615C2.57692 14.7589 2.33585 15 2.03846 15V15C1.74108 15 1.5 14.7589 1.5 14.4615V1.53846C1.5 1.24108 1.74108 1 2.03846 1V1Z" fill="#279FD7"/>
<path d="M14.4231 12.9231C14.4231 13.4753 13.9753 13.9231 13.4231 13.9231H10.0384C9.48616 13.9231 9.03844 13.4753 9.03844 12.9231V9.53844C9.03844 8.98616 9.48616 8.53844 10.0384 8.53844H13.4231C13.9753 8.53844 14.4231 8.98616 14.4231 9.53844V12.9231ZM14.4231 6.46152C14.4231 7.0138 13.9753 7.46152 13.4231 7.46152H10.0384C9.48616 7.46152 9.03844 7.0138 9.03844 6.46152V3.0769C9.03844 2.52462 9.48616 2.0769 10.0384 2.0769H13.4231C13.9753 2.0769 14.4231 2.52462 14.4231 3.0769V6.46152ZM7.96152 12.9231C7.96152 13.4753 7.5138 13.9231 6.96152 13.9231H3.5769C3.02462 13.9231 2.5769 13.4753 2.5769 12.9231V9.53844C2.5769 8.98616 3.02462 8.53844 3.5769 8.53844H6.96152C7.5138 8.53844 7.96152 8.98616 7.96152 9.53844V12.9231ZM7.96152 6.46152C7.96152 7.0138 7.5138 7.46152 6.96152 7.46152H3.5769C3.02462 7.46152 2.5769 7.0138 2.5769 6.46152V3.0769C2.5769 2.52462 3.02462 2.0769 3.5769 2.0769H6.96152C7.5138 2.0769 7.96152 2.52462 7.96152 3.0769V6.46152Z" fill="url(#paint0_linear_159_2)"/>
<defs>
<linearGradient id="paint0_linear_159_2" x1="3.76152" y1="13.9268" x2="8.03998" y2="1.08977" gradientUnits="userSpaceOnUse">
<stop stop-color="#22B4FA"/>
<stop offset="1" stop-color="#6BD6FE"/>
</linearGradient>
</defs>
</svg>
