<svg width="16" height="16" viewBox="0 0 16 16" fill="none" xmlns="http://www.w3.org/2000/svg">
<path d="M1 7.92311C1 7.62572 1.24108 7.38464 1.53846 7.38464H14.4615C14.7589 7.38464 15 7.62572 15 7.92311V7.92311C15 8.22049 14.7589 8.46157 14.4615 8.46157H1.53846C1.24108 8.46157 1 8.22049 1 7.92311V7.92311Z" fill="#279FD7"/>
<path d="M12.9231 2C13.4753 2 13.9231 2.44772 13.9231 3V6.38462C13.9231 6.9369 13.4753 7.38462 12.9231 7.38462H9.53844C8.98616 7.38462 8.53844 6.9369 8.53844 6.38462V3C8.53844 2.44772 8.98616 2 9.53844 2H12.9231ZM6.46152 2C7.0138 2 7.46152 2.44772 7.46152 3V6.38462C7.46152 6.9369 7.0138 7.38462 6.46152 7.38462H3.0769C2.52462 7.38462 2.0769 6.9369 2.0769 6.38462V3C2.0769 2.44772 2.52462 2 3.0769 2H6.46152ZM12.9231 8.46154C13.4753 8.46154 13.9231 8.90925 13.9231 9.46154V12.8462C13.9231 13.3984 13.4753 13.8462 12.9231 13.8462H9.53844C8.98616 13.8462 8.53844 13.3984 8.53844 12.8462V9.46154C8.53844 8.90925 8.98616 8.46154 9.53844 8.46154H12.9231ZM6.46152 8.46154C7.0138 8.46154 7.46152 8.90925 7.46152 9.46154V12.8462C7.46152 13.3984 7.0138 13.8462 6.46152 13.8462H3.0769C2.52462 13.8462 2.0769 13.3984 2.0769 12.8462V9.46154C2.0769 8.90925 2.52462 8.46154 3.0769 8.46154H6.46152Z" fill="url(#paint0_linear_159_43)"/>
<defs>
<linearGradient id="paint0_linear_159_43" x1="3.26152" y1="13.8499" x2="7.53998" y2="1.01287" gradientUnits="userSpaceOnUse">
<stop stop-color="#22B4FA"/>
<stop offset="1" stop-color="#6BD6FE"/>
</linearGradient>
</defs>
</svg>
