<svg width="16" height="16" viewBox="0 0 16 16" fill="none" xmlns="http://www.w3.org/2000/svg">
<path d="M2.0769 3.0769C2.0769 2.52462 2.52462 2.0769 3.0769 2.0769H12.9231C13.4753 2.0769 13.9231 2.52462 13.9231 3.0769V12.9231C13.9231 13.4753 13.4753 13.9231 12.9231 13.9231H3.0769C2.52462 13.9231 2.0769 13.4753 2.0769 12.9231V3.0769Z" fill="url(#paint0_linear_159_40)"/>
<path d="M2 1C1.44772 1 1 1.44772 1 2V14C1 14.5523 1.44772 15 2 15H14C14.5523 15 15 14.5523 15 14V2C15 1.44772 14.5523 1 14 1H2ZM2.07692 3.07692C2.07692 2.52464 2.52464 2.07692 3.07692 2.07692H6.46154C7.01382 2.07692 7.46154 2.52464 7.46154 3.07692V6.46154C7.46154 7.01382 7.01382 7.46154 6.46154 7.46154H3.07692C2.52464 7.46154 2.07692 7.01382 2.07692 6.46154V3.07692ZM8.53846 3.07692C8.53846 2.52464 8.98618 2.07692 9.53846 2.07692H12.9231C13.4754 2.07692 13.9231 2.52464 13.9231 3.07692V6.46154C13.9231 7.01382 13.4754 7.46154 12.9231 7.46154H9.53846C8.98618 7.46154 8.53846 7.01382 8.53846 6.46154V3.07692ZM2.07692 9.53846C2.07692 8.98618 2.52464 8.53846 3.07692 8.53846H6.46154C7.01382 8.53846 7.46154 8.98618 7.46154 9.53846V12.9231C7.46154 13.4754 7.01382 13.9231 6.46154 13.9231H3.07692C2.52464 13.9231 2.07692 13.4754 2.07692 12.9231V9.53846ZM8.53846 9.53846C8.53846 8.98618 8.98618 8.53846 9.53846 8.53846H12.9231C13.4754 8.53846 13.9231 8.98618 13.9231 9.53846V12.9231C13.9231 13.4754 13.4754 13.9231 12.9231 13.9231H9.53846C8.98618 13.9231 8.53846 13.4754 8.53846 12.9231V9.53846Z" fill="#279FD7"/>
<defs>
<linearGradient id="paint0_linear_159_40" x1="3.26152" y1="13.9268" x2="7.53998" y2="1.08977" gradientUnits="userSpaceOnUse">
<stop stop-color="#22B4FA"/>
<stop offset="1" stop-color="#6BD6FE"/>
</linearGradient>
</defs>
</svg>
