<svg width="16" height="16" viewBox="0 0 16 16" fill="none" xmlns="http://www.w3.org/2000/svg">
<path d="M9.57823 5.5238C9.09733 5.5238 8.70748 5.91365 8.70748 6.39455V6.39455C8.70748 6.87545 9.09733 7.2653 9.57823 7.2653H15.1293C15.6102 7.2653 16 6.87545 16 6.39455V6.39455C16 5.91365 15.6102 5.5238 15.1293 5.5238H9.57823ZM9.57823 9.0068C9.09733 9.0068 8.70748 9.39664 8.70748 9.87754V9.87754C8.70748 10.3584 9.09733 10.7483 9.57823 10.7483H10.1769C10.6578 10.7483 11.0476 10.3584 11.0476 9.87754V9.87754C11.0476 9.39664 10.6578 9.0068 10.1769 9.0068H9.57823ZM0.870748 12.2313C0.389847 12.2313 0 12.6211 0 13.102V13.102C0 13.5829 0.389847 13.9728 0.870749 13.9728H8.70748H10.449H12.517H15.1293C15.6102 13.9728 16 13.5829 16 13.102V13.102C16 12.6211 15.6102 12.2313 15.1293 12.2313H12.517H10.449H8.70748H0.870748Z" fill="url(#paint0_linear_162_23)"/>
<path d="M0 9.86496V4.13504C0 3.2872 0.988856 2.82405 1.64018 3.36682L5.07814 6.23178C5.55789 6.63157 5.55789 7.36843 5.07814 7.76822L1.64018 10.6332C0.988858 11.176 0 10.7128 0 9.86496Z" fill="url(#paint1_linear_162_23)"/>
<defs>
<linearGradient id="paint0_linear_162_23" x1="2" y1="12.9169" x2="15.2407" y2="7.13073" gradientUnits="userSpaceOnUse">
<stop stop-color="#62E8AF"/>
<stop offset="1" stop-color="#B3FBDC"/>
</linearGradient>
<linearGradient id="paint1_linear_162_23" x1="0.75" y1="10.7503" x2="6.55223" y2="9.94691" gradientUnits="userSpaceOnUse">
<stop stop-color="#62E8AF"/>
<stop offset="1" stop-color="#B3FBDC"/>
</linearGradient>
</defs>
</svg>
