<svg width="16" height="16" viewBox="0 0 16 16" fill="none" xmlns="http://www.w3.org/2000/svg">
<path d="M13.8462 12.9231C13.8462 13.4753 13.3984 13.9231 12.8462 13.9231H9.46154C8.90925 13.9231 8.46154 13.4753 8.46154 12.9231V9.53844C8.46154 8.98616 8.90925 8.53844 9.46154 8.53844H12.8462C13.3984 8.53844 13.8462 8.98616 13.8462 9.53844V12.9231ZM13.8462 6.46152C13.8462 7.0138 13.3984 7.46152 12.8462 7.46152H9.46154C8.90925 7.46152 8.46154 7.0138 8.46154 6.46152V3.0769C8.46154 2.52462 8.90925 2.0769 9.46154 2.0769H12.8462C13.3984 2.0769 13.8462 2.52462 13.8462 3.0769V6.46152ZM7.38462 12.9231C7.38462 13.4753 6.9369 13.9231 6.38462 13.9231H3C2.44772 13.9231 2 13.4753 2 12.9231V9.53844C2 8.98616 2.44772 8.53844 3 8.53844H6.38462C6.9369 8.53844 7.38462 8.98616 7.38462 9.53844V12.9231ZM7.38462 6.46152C7.38462 7.0138 6.9369 7.46152 6.38462 7.46152H3C2.44772 7.46152 2 7.0138 2 6.46152V3.0769C2 2.52462 2.44772 2.0769 3 2.0769H6.38462C6.9369 2.0769 7.38462 2.52462 7.38462 3.0769V6.46152Z" fill="url(#paint0_linear_159_37)"/>
<path d="M7.92311 1C8.22049 1 8.46157 1.24108 8.46157 1.53846V14.4615C8.46157 14.7589 8.22049 15 7.92311 15V15C7.62572 15 7.38464 14.7589 7.38464 14.4615V1.53846C7.38464 1.24108 7.62572 1 7.92311 1V1Z" fill="#279FD7"/>
<defs>
<linearGradient id="paint0_linear_159_37" x1="3.18462" y1="13.9268" x2="7.46308" y2="1.08977" gradientUnits="userSpaceOnUse">
<stop stop-color="#22B4FA"/>
<stop offset="1" stop-color="#6BD6FE"/>
</linearGradient>
</defs>
</svg>
