<svg width="16" height="16" viewBox="0 0 16 16" fill="none" xmlns="http://www.w3.org/2000/svg">
<path d="M1 13.8846C1 13.5872 1.24108 13.3461 1.53846 13.3461H14.4615C14.7589 13.3461 15 13.5872 15 13.8846V13.8846C15 14.182 14.7589 14.4231 14.4615 14.4231H1.53846C1.24108 14.4231 1 14.182 1 13.8846V13.8846Z" fill="#279FD7"/>
<path d="M12.9231 1.5C13.4753 1.5 13.9231 1.94772 13.9231 2.5V5.88461C13.9231 6.4369 13.4753 6.88462 12.9231 6.88462H9.53844C8.98616 6.88462 8.53844 6.4369 8.53844 5.88462V2.5C8.53844 1.94772 8.98616 1.5 9.53844 1.5H12.9231ZM6.46152 1.5C7.0138 1.5 7.46152 1.94772 7.46152 2.5V5.88461C7.46152 6.4369 7.0138 6.88462 6.46152 6.88462H3.0769C2.52462 6.88462 2.0769 6.4369 2.0769 5.88462V2.5C2.0769 1.94772 2.52462 1.5 3.0769 1.5H6.46152ZM12.9231 7.96154C13.4753 7.96154 13.9231 8.40925 13.9231 8.96154V12.3462C13.9231 12.8984 13.4753 13.3462 12.9231 13.3462H9.53844C8.98616 13.3462 8.53844 12.8984 8.53844 12.3462V8.96154C8.53844 8.40925 8.98616 7.96154 9.53844 7.96154H12.9231ZM6.46152 7.96154C7.0138 7.96154 7.46152 8.40925 7.46152 8.96154V12.3462C7.46152 12.8984 7.0138 13.3462 6.46152 13.3462H3.0769C2.52462 13.3462 2.0769 12.8984 2.0769 12.3462V8.96154C2.0769 8.40925 2.52462 7.96154 3.0769 7.96154H6.46152Z" fill="url(#paint0_linear_159_31)"/>
<defs>
<linearGradient id="paint0_linear_159_31" x1="3.26152" y1="13.3499" x2="7.53998" y2="0.512869" gradientUnits="userSpaceOnUse">
<stop stop-color="#22B4FA"/>
<stop offset="1" stop-color="#6BD6FE"/>
</linearGradient>
</defs>
</svg>
