<svg width="16" height="16" viewBox="0 0 16 16" fill="none" xmlns="http://www.w3.org/2000/svg">
<path d="M2 1C1.44772 1 1 1.44772 1 2V2.07692V13.9231V14C1 14.5523 1.44772 15 2 15H2.07692H13.9231H14C14.5523 15 15 14.5523 15 14V13.9231V2.07692V2C15 1.44772 14.5523 1 14 1H13.9231H2.07692H2ZM2.07692 3.07692C2.07692 2.52464 2.52464 2.07692 3.07692 2.07692H12.9231C13.4754 2.07692 13.9231 2.52464 13.9231 3.07692V12.9231C13.9231 13.4754 13.4754 13.9231 12.9231 13.9231H3.07692C2.52464 13.9231 2.07692 13.4754 2.07692 12.9231V3.07692Z" fill="#279FD7"/>
<path d="M3.0769 2.0769C2.52462 2.0769 2.0769 2.52462 2.0769 3.0769V6.46152C2.0769 7.0138 2.52462 7.46152 3.0769 7.46152H6.46152C7.0138 7.46152 7.46152 7.0138 7.46152 6.46152V3.0769C7.46152 2.52462 7.0138 2.0769 6.46152 2.0769H3.0769ZM9.53844 2.0769C8.98616 2.0769 8.53844 2.52462 8.53844 3.0769V6.46152C8.53844 7.0138 8.98616 7.46152 9.53844 7.46152H12.9231C13.4753 7.46152 13.9231 7.0138 13.9231 6.46152V3.0769C13.9231 2.52462 13.4753 2.0769 12.9231 2.0769H9.53844ZM3.0769 8.53844C2.52462 8.53844 2.0769 8.98616 2.0769 9.53844V12.9231C2.0769 13.4753 2.52462 13.9231 3.0769 13.9231H6.46152C7.0138 13.9231 7.46152 13.4753 7.46152 12.9231V9.53844C7.46152 8.98616 7.0138 8.53844 6.46152 8.53844H3.0769ZM9.53844 8.53844C8.98616 8.53844 8.53844 8.98616 8.53844 9.53844V12.9231C8.53844 13.4753 8.98616 13.9231 9.53844 13.9231H12.9231C13.4753 13.9231 13.9231 13.4753 13.9231 12.9231V9.53844C13.9231 8.98616 13.4753 8.53844 12.9231 8.53844H9.53844Z" fill="url(#paint0_linear_159_46)"/>
<defs>
<linearGradient id="paint0_linear_159_46" x1="3.26152" y1="13.9268" x2="7.53998" y2="1.08977" gradientUnits="userSpaceOnUse">
<stop stop-color="#22B4FA"/>
<stop offset="1" stop-color="#6BD6FE"/>
</linearGradient>
</defs>
</svg>
