<svg width="16" height="16" viewBox="0 0 16 16" fill="none" xmlns="http://www.w3.org/2000/svg">
<path d="M1.4375 1C1.40589 1 1.37457 1.00097 1.34347 1.00269C1.14514 1.01366 1 1.19002 1 1.38865V2.35C1 2.57091 1.18146 2.74526 1.39675 2.7948C2.17388 2.97361 2.75 3.66705 2.75 4.5V7.125V11.5C2.75 12.333 2.17388 13.0264 1.39675 13.2052C1.18146 13.2547 1 13.4291 1 13.65V14.6114C1 14.81 1.14514 14.9863 1.34347 14.9973C1.37457 14.999 1.40589 15 1.4375 15H2.75H6.25H10.625C13.0487 15 15 13.0487 15 10.625C15 8.96444 14.0777 7.53929 12.7196 6.80168C12.4374 6.64843 12.3679 6.22533 12.5703 5.97603C12.9941 5.45384 13.25 4.791 13.25 4.0625C13.25 2.36587 11.8841 1 10.1875 1H6.25H2.75H1.4375ZM6.25 3.15C6.25 2.92909 6.42909 2.75 6.65 2.75H8C8.9695 2.75 9.75 3.5305 9.75 4.5C9.75 5.4695 8.9695 6.25 8 6.25H6.65C6.42909 6.25 6.25 6.07091 6.25 5.85V3.15ZM6.25 8.4C6.25 8.17909 6.42909 8 6.65 8H8.875C10.3292 8 11.5 9.17075 11.5 10.625C11.5 12.0792 10.3292 13.25 8.875 13.25H6.65C6.42909 13.25 6.25 13.0709 6.25 12.85V8.4Z" fill="url(#paint0_linear_162_55)"/>
<defs>
<linearGradient id="paint0_linear_162_55" x1="1.875" y1="15.0075" x2="17.2397" y2="4.18821" gradientUnits="userSpaceOnUse">
<stop stop-color="#2E4AFA"/>
<stop offset="1" stop-color="#8E9EFF"/>
</linearGradient>
</defs>
</svg>
