<svg width="16" height="16" viewBox="0 0 16 16" fill="none" xmlns="http://www.w3.org/2000/svg">
<path d="M4.99998 5.16669C4.37665 5.16669 4.06531 5.16669 3.83331 5.30069C3.68131 5.38845 3.55508 5.51468 3.46731 5.66669C3.33331 5.89869 3.33331 6.21002 3.33331 6.83335V12.8334C3.33331 13.4567 3.33331 13.768 3.46731 14C3.55508 14.152 3.68131 14.2783 3.83331 14.366C4.06531 14.5 4.37665 14.5 4.99998 14.5C5.62331 14.5 5.93465 14.5 6.16665 14.366C6.31865 14.2783 6.44488 14.152 6.53265 14C6.66665 13.768 6.66665 13.4567 6.66665 12.8334V6.83335C6.66665 6.21002 6.66665 5.89869 6.53265 5.66669C6.44488 5.51468 6.31865 5.38845 6.16665 5.30069C5.93465 5.16669 5.62331 5.16669 4.99998 5.16669ZM11 5.16669C10.3766 5.16669 10.0653 5.16669 9.83331 5.30069C9.68131 5.38845 9.55508 5.51468 9.46731 5.66669C9.33331 5.89869 9.33331 6.21002 9.33331 6.83335V10.8334C9.33331 11.4567 9.33331 11.768 9.46731 12C9.55508 12.152 9.68131 12.2783 9.83331 12.366C10.0653 12.5 10.3766 12.5 11 12.5C11.6233 12.5 11.9346 12.5 12.1666 12.366C12.3187 12.2783 12.4449 12.152 12.5326 12C12.6666 11.768 12.6666 11.4567 12.6666 10.8334V6.83335C12.6666 6.21002 12.6666 5.89869 12.5326 5.66669C12.4449 5.51468 12.3187 5.38845 12.1666 5.30069C11.9346 5.16669 11.6233 5.16669 11 5.16669Z" fill="url(#paint0_linear_162_18)"/>
<path fill-rule="evenodd" clip-rule="evenodd" d="M15 2.75C15 2.94891 14.921 3.13968 14.7803 3.28033C14.6397 3.42098 14.4489 3.5 14.25 3.5H1.75C1.55109 3.5 1.36032 3.42098 1.21967 3.28033C1.07902 3.13968 1 2.94891 1 2.75C1 2.55109 1.07902 2.36032 1.21967 2.21967C1.36032 2.07902 1.55109 2 1.75 2H14.25C14.4489 2 14.6397 2.07902 14.7803 2.21967C14.921 2.36032 15 2.55109 15 2.75Z" fill="#344CD8"/>
<defs>
<linearGradient id="paint0_linear_162_18" x1="3.91665" y1="14.505" x2="14.1598" y2="7.29216" gradientUnits="userSpaceOnUse">
<stop stop-color="#2E4AFA"/>
<stop offset="1" stop-color="#8E9EFF"/>
</linearGradient>
</defs>
</svg>
