<svg width="16" height="16" viewBox="0 0 16 16" fill="none" xmlns="http://www.w3.org/2000/svg">
<path fill-rule="evenodd" clip-rule="evenodd" d="M9.33331 6.33335V9.66669C9.33331 10.29 9.33331 10.6014 9.46731 10.8334C9.55508 10.9854 9.68131 11.1116 9.83331 11.1994C10.0653 11.3334 10.3766 11.3334 11 11.3334C11.6233 11.3334 11.9346 11.3334 12.1666 11.1994C12.3187 11.1116 12.4449 10.9854 12.5326 10.8334C12.6666 10.6014 12.6666 10.29 12.6666 9.66669V6.33335C12.6666 5.71002 12.6666 5.39869 12.5326 5.16669C12.4449 5.01468 12.3187 4.88845 12.1666 4.80069C11.9346 4.66669 11.6233 4.66669 11 4.66669C10.3766 4.66669 10.0653 4.66669 9.83331 4.80069C9.68131 4.88845 9.55508 5.01468 9.46731 5.16669C9.33331 5.39869 9.33331 5.71002 9.33331 6.33335Z" fill="url(#paint0_linear_162_11)"/>
<path d="M4.99998 3.33331C4.37665 3.33331 4.06531 3.33331 3.83331 3.46731C3.68131 3.55508 3.55508 3.68131 3.46731 3.83331C3.33331 4.06531 3.33331 4.37665 3.33331 4.99998V11C3.33331 11.6233 3.33331 11.9346 3.46731 12.1666C3.55508 12.3187 3.68131 12.4449 3.83331 12.5326C4.06531 12.6666 4.37665 12.6666 4.99998 12.6666C5.62331 12.6666 5.93465 12.6666 6.16665 12.5326C6.31865 12.4449 6.44488 12.3187 6.53265 12.1666C6.66665 11.9346 6.66665 11.6233 6.66665 11V4.99998C6.66665 4.37665 6.66665 4.06531 6.53265 3.83331C6.44488 3.68131 6.31865 3.55508 6.16665 3.46731C5.93465 3.33331 5.62331 3.33331 4.99998 3.33331Z" fill="url(#paint1_linear_162_11)"/>
<path d="M3.33331 7.5H1.33331C1.2007 7.5 1.07353 7.55268 0.97976 7.64645C0.885991 7.74022 0.833313 7.86739 0.833313 8C0.833313 8.13261 0.885991 8.25978 0.97976 8.35355C1.07353 8.44732 1.2007 8.5 1.33331 8.5H3.33331V7.5ZM6.66665 8.5H9.33331V7.5H6.66665V8.5ZM12.6666 8.5H14.6666C14.7993 8.5 14.9264 8.44732 15.0202 8.35355C15.114 8.25978 15.1666 8.13261 15.1666 8C15.1666 7.86739 15.114 7.74022 15.0202 7.64645C14.9264 7.55268 14.7993 7.5 14.6666 7.5H12.6666V8.5Z" fill="#344CD8"/>
<defs>
<linearGradient id="paint0_linear_162_11" x1="9.54165" y1="11.3369" x2="14.4103" y2="9.62276" gradientUnits="userSpaceOnUse">
<stop stop-color="#2E4AFA"/>
<stop offset="1" stop-color="#8E9EFF"/>
</linearGradient>
<linearGradient id="paint1_linear_162_11" x1="3.54165" y1="12.6717" x2="8.68836" y2="11.3773" gradientUnits="userSpaceOnUse">
<stop stop-color="#2E4AFA"/>
<stop offset="1" stop-color="#8E9EFF"/>
</linearGradient>
</defs>
</svg>
