<svg width="16" height="16" viewBox="0 0 16 16" fill="none" xmlns="http://www.w3.org/2000/svg">
<path d="M15.3636 3.5V7.86364C15.3636 8.41592 14.9159 8.86364 14.3636 8.86364H10C9.44772 8.86364 9 8.41592 9 7.86364V3.5C9 2.94772 9.44772 2.5 10 2.5H14.3636C14.9159 2.5 15.3636 2.94772 15.3636 3.5Z" fill="url(#paint0_linear_162_50)"/>
<path d="M6.42177 5.0238C6.90267 5.0238 7.29252 5.41365 7.29252 5.89455C7.29252 6.37545 6.90267 6.7653 6.42177 6.7653H0.870749C0.389848 6.7653 0 6.37545 0 5.89455C0 5.41365 0.389847 5.0238 0.870748 5.0238H6.42177ZM6.42177 8.5068C6.90267 8.5068 7.29252 8.89664 7.29252 9.37754C7.29252 9.85845 6.90267 10.2483 6.42177 10.2483H5.82313C5.34223 10.2483 4.95238 9.85845 4.95238 9.37754C4.95238 8.89664 5.34223 8.5068 5.82313 8.5068H6.42177ZM15.1293 11.7313C15.6102 11.7313 16 12.1211 16 12.602C16 13.0829 15.6102 13.4728 15.1293 13.4728H0.870748C0.389847 13.4728 0 13.0829 0 12.602C0 12.1211 0.389848 11.7313 0.870749 11.7313H15.1293Z" fill="url(#paint1_linear_162_50)"/>
<defs>
<linearGradient id="paint0_linear_162_50" x1="10.5909" y1="8.40909" x2="14.8021" y2="3.49599" gradientUnits="userSpaceOnUse">
<stop stop-color="#A056FF"/>
<stop offset="1" stop-color="#C59AFD"/>
</linearGradient>
<linearGradient id="paint1_linear_162_50" x1="4" y1="12.8693" x2="8.25085" y2="3.47772" gradientUnits="userSpaceOnUse">
<stop stop-color="#A056FF"/>
<stop offset="1" stop-color="#C59AFD"/>
</linearGradient>
</defs>
</svg>
