<svg width="16" height="16" viewBox="0 0 16 16" fill="none" xmlns="http://www.w3.org/2000/svg">
<path d="M14 15C14.5523 15 15 14.5523 15 14V9.63636C15 9.08408 14.5523 8.63636 14 8.63636H9.63636C9.08408 8.63636 8.63636 9.08408 8.63636 9.63636V14C8.63636 14.5523 9.08408 15 9.63636 15H14ZM6.36364 15C6.91592 15 7.36364 14.5523 7.36364 14V9.63636C7.36364 9.08408 6.91592 8.63636 6.36364 8.63636H2C1.44772 8.63636 1 9.08408 1 9.63636V14C1 14.5523 1.44772 15 2 15H6.36364ZM14 7.36364C14.5523 7.36364 15 6.91592 15 6.36364V2C15 1.44772 14.5523 1 14 1H9.63636C9.08408 1 8.63636 1.44772 8.63636 2V6.36364C8.63636 6.91592 9.08408 7.36364 9.63636 7.36364H14ZM6.36364 7.36364C6.91592 7.36364 7.36364 6.91592 7.36364 6.36364V2C7.36364 1.44772 6.91592 1 6.36364 1H2C1.44772 1 1 1.44772 1 2V6.36364C1 6.91592 1.44772 7.36364 2 7.36364H6.36364Z" fill="url(#paint0_linear_159_8)"/>
<defs>
<linearGradient id="paint0_linear_159_8" x1="2.75" y1="13.2504" x2="15.8505" y2="10.2273" gradientUnits="userSpaceOnUse">
<stop stop-color="#62E8AF"/>
<stop offset="1" stop-color="#B3FBDC"/>
</linearGradient>
</defs>
</svg>
