<svg width="22" height="22" viewBox="0 0 22 22" fill="none" xmlns="http://www.w3.org/2000/svg">
<path d="M1.925 1.375C1.62125 1.375 1.375 1.62125 1.375 1.925V3.575C1.375 3.87875 1.62125 4.125 1.925 4.125H20.075C20.3787 4.125 20.625 3.87875 20.625 3.575V1.925C20.625 1.62125 20.3787 1.375 20.075 1.375H1.925ZM10.175 6.875C9.87125 6.875 9.625 7.12125 9.625 7.425V9.075C9.625 9.37875 9.87125 9.625 10.175 9.625H20.075C20.3787 9.625 20.625 9.37875 20.625 9.075V7.425C20.625 7.12125 20.3787 6.875 20.075 6.875H10.175ZM10.175 12.375C9.87125 12.375 9.625 12.6212 9.625 12.925V14.575C9.625 14.8787 9.87125 15.125 10.175 15.125H20.075C20.3787 15.125 20.625 14.8787 20.625 14.575V12.925C20.625 12.6212 20.3787 12.375 20.075 12.375H10.175ZM1.925 17.875C1.62125 17.875 1.375 18.1213 1.375 18.425V20.075C1.375 20.3787 1.62125 20.625 1.925 20.625H20.075C20.3787 20.625 20.625 20.3787 20.625 20.075V18.425C20.625 18.1213 20.3787 17.875 20.075 17.875H1.925Z" fill="url(#paint0_linear_451_2931)"/>
<defs>
<linearGradient id="paint0_linear_451_2931" x1="19.25" y1="11.6875" x2="3.62827" y2="13.4138" gradientUnits="userSpaceOnUse">
<stop stop-color="#8D01A2"/>
<stop offset="1" stop-color="#FF00D2"/>
</linearGradient>
</defs>
</svg>
