<svg width="16" height="16" viewBox="0 0 16 16" fill="none" xmlns="http://www.w3.org/2000/svg">
<path d="M8 1C7.70262 1 7.46154 1.24108 7.46154 1.53846V6.46154C7.46154 7.01382 7.01382 7.46154 6.46154 7.46154H1.53846C1.24108 7.46154 1 7.70262 1 8V8C1 8.29738 1.24108 8.53846 1.53846 8.53846H6.46154C7.01382 8.53846 7.46154 8.98618 7.46154 9.53846V14.4615C7.46154 14.7589 7.70262 15 8 15V15C8.29738 15 8.53846 14.7589 8.53846 14.4615V9.53846C8.53846 8.98618 8.98618 8.53846 9.53846 8.53846H14.4615C14.7589 8.53846 15 8.29738 15 8V8C15 7.70262 14.7589 7.46154 14.4615 7.46154H9.53846C8.98618 7.46154 8.53846 7.01382 8.53846 6.46154V1.53846C8.53846 1.24108 8.29738 1 8 1V1Z" fill="#279FD7"/>
<path d="M12.9231 2.0769C13.4753 2.0769 13.9231 2.52462 13.9231 3.0769V6.46152C13.9231 7.0138 13.4753 7.46152 12.9231 7.46152H9.53844C8.98616 7.46152 8.53844 7.0138 8.53844 6.46152V3.0769C8.53844 2.52462 8.98616 2.0769 9.53844 2.0769H12.9231ZM6.46152 2.0769C7.0138 2.0769 7.46152 2.52462 7.46152 3.0769V6.46152C7.46152 7.0138 7.0138 7.46152 6.46152 7.46152H3.0769C2.52462 7.46152 2.0769 7.0138 2.0769 6.46152V3.0769C2.0769 2.52462 2.52462 2.0769 3.0769 2.0769H6.46152ZM12.9231 8.53844C13.4753 8.53844 13.9231 8.98616 13.9231 9.53844V12.9231C13.9231 13.4753 13.4753 13.9231 12.9231 13.9231H9.53844C8.98616 13.9231 8.53844 13.4753 8.53844 12.9231V9.53844C8.53844 8.98616 8.98616 8.53844 9.53844 8.53844H12.9231ZM6.46152 8.53844C7.0138 8.53844 7.46152 8.98616 7.46152 9.53844V12.9231C7.46152 13.4753 7.0138 13.9231 6.46152 13.9231H3.0769C2.52462 13.9231 2.0769 13.4753 2.0769 12.9231V9.53844C2.0769 8.98616 2.52462 8.53844 3.0769 8.53844H6.46152Z" fill="url(#paint0_linear_159_5)"/>
<defs>
<linearGradient id="paint0_linear_159_5" x1="3.26152" y1="13.9268" x2="7.53998" y2="1.08977" gradientUnits="userSpaceOnUse">
<stop stop-color="#22B4FA"/>
<stop offset="1" stop-color="#6BD6FE"/>
</linearGradient>
</defs>
</svg>
