<svg width="16" height="16" viewBox="0 0 16 16" fill="none" xmlns="http://www.w3.org/2000/svg">
<path d="M12.9231 2.0769C13.4753 2.0769 13.9231 2.52462 13.9231 3.0769V6.46152C13.9231 7.0138 13.4753 7.46152 12.9231 7.46152H9.53844C8.98616 7.46152 8.53844 7.0138 8.53844 6.46152V3.0769C8.53844 2.52462 8.98616 2.0769 9.53844 2.0769H12.9231ZM6.46152 2.0769C7.0138 2.0769 7.46152 2.52462 7.46152 3.0769V6.46152C7.46152 7.0138 7.0138 7.46152 6.46152 7.46152H3.0769C2.52462 7.46152 2.0769 7.0138 2.0769 6.46152V3.0769C2.0769 2.52462 2.52462 2.0769 3.0769 2.0769H6.46152ZM12.9231 8.53844C13.4753 8.53844 13.9231 8.98616 13.9231 9.53844V12.9231C13.9231 13.4753 13.4753 13.9231 12.9231 13.9231H9.53844C8.98616 13.9231 8.53844 13.4753 8.53844 12.9231V9.53844C8.53844 8.98616 8.98616 8.53844 9.53844 8.53844H12.9231ZM6.46152 8.53844C7.0138 8.53844 7.46152 8.98616 7.46152 9.53844V12.9231C7.46152 13.4753 7.0138 13.9231 6.46152 13.9231H3.0769C2.52462 13.9231 2.0769 13.4753 2.0769 12.9231V9.53844C2.0769 8.98616 2.52462 8.53844 3.0769 8.53844H6.46152Z" fill="url(#paint0_linear_159_34)"/>
<path d="M14.4616 1C14.3188 1 14.1819 1.05672 14.0809 1.15769L1.15769 14.0809C1.05672 14.1819 1 14.3188 1 14.4616V14.4616C1 14.759 1.24106 15 1.5384 15V15C1.68119 15 1.81814 14.9433 1.91911 14.8423L14.8423 1.91911C14.9433 1.81814 15 1.68119 15 1.5384V1.5384C15 1.24106 14.759 1 14.4616 1V1Z" fill="#279FD7"/>
<defs>
<linearGradient id="paint0_linear_159_34" x1="3.26152" y1="13.9268" x2="7.53998" y2="1.08977" gradientUnits="userSpaceOnUse">
<stop stop-color="#22B4FA"/>
<stop offset="1" stop-color="#6BD6FE"/>
</linearGradient>
</defs>
</svg>
