<svg width="22" height="22" viewBox="0 0 22 22" fill="none" xmlns="http://www.w3.org/2000/svg">
<path d="M1.925 1.375C1.62125 1.375 1.375 1.62125 1.375 1.925V3.575C1.375 3.87875 1.62125 4.125 1.925 4.125H20.075C20.3787 4.125 20.625 3.87875 20.625 3.575V1.925C20.625 1.62125 20.3787 1.375 20.075 1.375H1.925ZM6.05 6.875C5.74625 6.875 5.5 7.12125 5.5 7.425V9.075C5.5 9.37875 5.74625 9.625 6.05 9.625H15.95C16.2537 9.625 16.5 9.37875 16.5 9.075V7.425C16.5 7.12125 16.2537 6.875 15.95 6.875H6.05ZM6.05 12.375C5.74625 12.375 5.5 12.6212 5.5 12.925V14.575C5.5 14.8787 5.74625 15.125 6.05 15.125H15.95C16.2537 15.125 16.5 14.8787 16.5 14.575V12.925C16.5 12.6212 16.2537 12.375 15.95 12.375H6.05ZM1.925 17.875C1.62125 17.875 1.375 18.1213 1.375 18.425V20.075C1.375 20.3787 1.62125 20.625 1.925 20.625H20.075C20.3787 20.625 20.625 20.3787 20.625 20.075V18.425C20.625 18.1213 20.3787 17.875 20.075 17.875H1.925Z" fill="url(#paint0_linear_451_2937)"/>
<defs>
<linearGradient id="paint0_linear_451_2937" x1="4.86406" y1="18.3524" x2="22.223" y2="3.20644" gradientUnits="userSpaceOnUse">
<stop stop-color="#FE0844"/>
<stop offset="1" stop-color="#FEB302"/>
</linearGradient>
</defs>
</svg>
