<svg width="22" height="22" viewBox="0 0 22 22" fill="none" xmlns="http://www.w3.org/2000/svg">
<path d="M1.925 1.375C1.62125 1.375 1.375 1.62125 1.375 1.925V3.575C1.375 3.87875 1.62125 4.125 1.925 4.125H20.075C20.3787 4.125 20.625 3.87875 20.625 3.575V1.925C20.625 1.62125 20.3787 1.375 20.075 1.375H1.925ZM1.925 6.875C1.62125 6.875 1.375 7.12125 1.375 7.425V9.075C1.375 9.37875 1.62125 9.625 1.925 9.625H20.075C20.3787 9.625 20.625 9.37875 20.625 9.075V7.425C20.625 7.12125 20.3787 6.875 20.075 6.875H1.925ZM1.925 12.375C1.62125 12.375 1.375 12.6212 1.375 12.925V14.575C1.375 14.8787 1.62125 15.125 1.925 15.125H20.075C20.3787 15.125 20.625 14.8787 20.625 14.575V12.925C20.625 12.6212 20.3787 12.375 20.075 12.375H1.925ZM1.925 17.875C1.62125 17.875 1.375 18.1213 1.375 18.425V20.075C1.375 20.3787 1.62125 20.625 1.925 20.625H20.075C20.3787 20.625 20.625 20.3787 20.625 20.075V18.425C20.625 18.1213 20.3787 17.875 20.075 17.875H1.925Z" fill="url(#paint0_linear_451_2935)"/>
<defs>
<linearGradient id="paint0_linear_451_2935" x1="10.1629" y1="20.108" x2="12.3378" y2="2.71363" gradientUnits="userSpaceOnUse">
<stop stop-color="#8D01A2"/>
<stop offset="1" stop-color="#FF33DB"/>
</linearGradient>
</defs>
</svg>
