<svg width="16" height="16" viewBox="0 0 16 16" fill="none" xmlns="http://www.w3.org/2000/svg">
<path d="M13.8846 15C13.5872 15 13.3461 14.7589 13.3461 14.4615V1.53846C13.3461 1.24108 13.5872 1 13.8846 1V1C14.182 1 14.4231 1.24108 14.4231 1.53846V14.4615C14.4231 14.7589 14.182 15 13.8846 15V15Z" fill="#279FD7"/>
<path d="M1.5 3.0769C1.5 2.52462 1.94772 2.0769 2.5 2.0769H5.88461C6.4369 2.0769 6.88462 2.52462 6.88462 3.0769V6.46152C6.88462 7.0138 6.4369 7.46152 5.88462 7.46152H2.5C1.94772 7.46152 1.5 7.0138 1.5 6.46152V3.0769ZM1.5 9.53844C1.5 8.98616 1.94772 8.53844 2.5 8.53844H5.88461C6.4369 8.53844 6.88462 8.98616 6.88462 9.53844V12.9231C6.88462 13.4753 6.4369 13.9231 5.88462 13.9231H2.5C1.94772 13.9231 1.5 13.4753 1.5 12.9231V9.53844ZM7.96154 3.0769C7.96154 2.52462 8.40925 2.0769 8.96154 2.0769H12.3462C12.8984 2.0769 13.3462 2.52462 13.3462 3.0769V6.46152C13.3462 7.0138 12.8984 7.46152 12.3462 7.46152H8.96154C8.40925 7.46152 7.96154 7.0138 7.96154 6.46152V3.0769ZM7.96154 9.53844C7.96154 8.98616 8.40925 8.53844 8.96154 8.53844H12.3462C12.8984 8.53844 13.3462 8.98616 13.3462 9.53844V12.9231C13.3462 13.4753 12.8984 13.9231 12.3462 13.9231H8.96154C8.40925 13.9231 7.96154 13.4753 7.96154 12.9231V9.53844Z" fill="url(#paint0_linear_159_13)"/>
<defs>
<linearGradient id="paint0_linear_159_13" x1="2.68462" y1="13.9268" x2="6.96308" y2="1.08977" gradientUnits="userSpaceOnUse">
<stop stop-color="#22B4FA"/>
<stop offset="1" stop-color="#6BD6FE"/>
</linearGradient>
</defs>
</svg>
