<svg width="22" height="22" viewBox="0 0 22 22" fill="none" xmlns="http://www.w3.org/2000/svg">
<path d="M20.075 20.625C20.3787 20.625 20.625 20.3787 20.625 20.075V18.425C20.625 18.1213 20.3787 17.875 20.075 17.875H1.925C1.62125 17.875 1.375 18.1213 1.375 18.425V20.075C1.375 20.3787 1.62125 20.625 1.925 20.625H20.075ZM11.825 15.125C12.1288 15.125 12.375 14.8787 12.375 14.575V12.925C12.375 12.6212 12.1288 12.375 11.825 12.375H1.925C1.62125 12.375 1.375 12.6212 1.375 12.925V14.575C1.375 14.8787 1.62125 15.125 1.925 15.125H11.825ZM11.825 9.625C12.1288 9.625 12.375 9.37875 12.375 9.075V7.425C12.375 7.12125 12.1288 6.875 11.825 6.875H1.925C1.62125 6.875 1.375 7.12125 1.375 7.425V9.075C1.375 9.37875 1.62125 9.625 1.925 9.625H11.825ZM20.075 4.125C20.3787 4.125 20.625 3.87875 20.625 3.575V1.925C20.625 1.62125 20.3787 1.375 20.075 1.375H1.925C1.62125 1.375 1.375 1.62125 1.375 1.925V3.575C1.375 3.87875 1.62125 4.125 1.925 4.125H20.075Z" fill="url(#paint0_linear_451_2933)"/>
<defs>
<linearGradient id="paint0_linear_451_2933" x1="2.75" y1="10.3125" x2="18.3718" y2="8.58619" gradientUnits="userSpaceOnUse">
<stop stop-color="#8D01A2"/>
<stop offset="1" stop-color="#FF00D2"/>
</linearGradient>
</defs>
</svg>
