<svg width="16" height="16" viewBox="0 0 16 16" fill="none" xmlns="http://www.w3.org/2000/svg">
<path d="M1 2.03846C1 2.33585 1.24108 2.57692 1.53846 2.57692H14.4615C14.7589 2.57692 15 2.33585 15 2.03846V2.03846C15 1.74108 14.7589 1.5 14.4615 1.5H1.53846C1.24108 1.5 1 1.74108 1 2.03846V2.03846Z" fill="#279FD7"/>
<path d="M12.9231 14.4231C13.4753 14.4231 13.9231 13.9753 13.9231 13.4231V10.0384C13.9231 9.48616 13.4753 9.03844 12.9231 9.03844H9.53844C8.98616 9.03844 8.53844 9.48616 8.53844 10.0384V13.4231C8.53844 13.9753 8.98616 14.4231 9.53844 14.4231H12.9231ZM6.46152 14.4231C7.0138 14.4231 7.46152 13.9753 7.46152 13.4231V10.0384C7.46152 9.48616 7.0138 9.03844 6.46152 9.03844H3.0769C2.52462 9.03844 2.0769 9.48616 2.0769 10.0384V13.4231C2.0769 13.9753 2.52462 14.4231 3.0769 14.4231H6.46152ZM12.9231 7.96152C13.4753 7.96152 13.9231 7.5138 13.9231 6.96152V3.5769C13.9231 3.02462 13.4753 2.5769 12.9231 2.5769H9.53844C8.98616 2.5769 8.53844 3.02462 8.53844 3.5769V6.96152C8.53844 7.5138 8.98616 7.96152 9.53844 7.96152H12.9231ZM6.46152 7.96152C7.0138 7.96152 7.46152 7.5138 7.46152 6.96152V3.5769C7.46152 3.02462 7.0138 2.5769 6.46152 2.5769H3.0769C2.52462 2.5769 2.0769 3.02462 2.0769 3.5769V6.96152C2.0769 7.5138 2.52462 7.96152 3.0769 7.96152H6.46152Z" fill="url(#paint0_linear_159_10)"/>
<defs>
<linearGradient id="paint0_linear_159_10" x1="3.26152" y1="14.4268" x2="7.53998" y2="1.58977" gradientUnits="userSpaceOnUse">
<stop stop-color="#22B4FA"/>
<stop offset="1" stop-color="#6BD6FE"/>
</linearGradient>
</defs>
</svg>
