<svg width="22" height="22" viewBox="0 0 22 22" fill="none" xmlns="http://www.w3.org/2000/svg">
<path d="M4.61846 0.919058C4.61701 0.917601 4.61466 0.91761 4.61321 0.919058L4.14055 1.39303C3.8788 1.6555 3.87895 2.08032 4.14088 2.34261L5.03267 3.23564C5.33955 3.54294 5.37515 4.01999 5.22242 4.42654C5.08146 4.80176 5.00797 5.20105 5.0075 5.60586C5.00758 6.38133 5.27553 7.13296 5.76601 7.7336C6.09749 8.13954 6.51685 8.45967 6.98845 8.67245C7.3855 8.85158 7.69919 9.21503 7.69919 9.65063V13.679C7.69919 14.1146 7.3855 14.4781 6.98845 14.6572C6.51765 14.8696 6.0989 15.189 5.76767 15.5939C5.27729 16.1935 5.00879 16.9439 5.0075 17.7185C5.0075 18.6109 5.36198 19.4667 5.99297 20.0976C6.3054 20.4101 6.67631 20.6579 7.08453 20.827C7.49274 20.9961 7.93027 21.0831 8.37211 21.0831C9.26446 21.0831 10.1203 20.7286 10.7513 20.0976C11.3822 19.4667 11.7367 18.6109 11.7367 17.7185C11.7366 16.943 11.4687 16.1914 10.9783 15.5907C10.6468 15.1848 10.2274 14.8647 9.75579 14.6519C9.35878 14.4728 9.04504 14.1094 9.04504 13.6738V9.53623C9.04504 9.16444 9.31213 8.85328 9.65624 8.7128C9.99697 8.57373 10.4008 8.60708 10.661 8.86729L11.7619 9.96825C12.0688 10.2752 12.1049 10.7518 11.9528 11.1584C11.8123 11.5337 11.7394 11.933 11.7394 12.3377C11.7394 13.2301 12.0938 14.0859 12.7249 14.7169C13.3558 15.3479 14.2116 15.7024 15.104 15.7024C15.9964 15.7024 16.8522 15.3479 17.4831 14.7169C18.1141 14.0859 18.4686 13.2301 18.4686 12.3377C18.4686 11.4454 18.1141 10.5896 17.4831 9.95863C16.8522 9.3276 15.9964 8.9731 15.104 8.9731C14.692 8.97361 14.286 9.04971 13.9052 9.1955C13.4963 9.35198 13.0148 9.3177 12.7055 9.00804L11.7049 8.00619C11.3964 7.69717 11.3622 7.2168 11.5179 6.80879C11.6636 6.42746 11.7394 6.02084 11.7394 5.60849C11.7394 5.16664 11.6524 4.72912 11.4833 4.32091C11.3142 3.91269 11.0664 3.54178 10.7539 3.22934C10.4415 2.91692 10.0706 2.66908 9.66238 2.49999C9.2541 2.3309 8.81658 2.24387 8.37474 2.24387C7.96353 2.2447 7.55818 2.32085 7.17805 2.46644C6.76954 2.62289 6.28823 2.58881 5.9789 2.27948L4.61846 0.919058Z" fill="url(#paint0_linear_451_2919)"/>
<defs>
<linearGradient id="paint0_linear_451_2919" x1="11.0677" y1="21.0831" x2="11.0677" y2="0.916431" gradientUnits="userSpaceOnUse">
<stop stop-color="#A93AFF"/>
<stop offset="1" stop-color="#FF81FF"/>
</linearGradient>
</defs>
</svg>
