<svg width="22" height="22" viewBox="0 0 22 22" fill="none" xmlns="http://www.w3.org/2000/svg">
<path fill-rule="evenodd" clip-rule="evenodd" d="M12.0809 2.57742C12.0809 1.91335 11.5425 1.375 10.8785 1.375C10.2143 1.375 9.67601 1.91335 9.67601 2.57742V6.58549C9.67601 7.24958 10.2144 7.78793 10.8785 7.78793C11.5425 7.78793 12.0809 7.24958 12.0809 6.58549V2.57742ZM14.2218 6.33404C13.8815 6.11683 13.678 5.73887 13.6839 5.33524C13.6841 5.10764 13.7486 4.88472 13.87 4.69226C14.2255 4.12871 14.9705 3.9601 15.534 4.31561C16.6855 5.03085 17.6567 6.00194 18.3719 7.15347C20.9414 11.2903 19.6709 16.7269 15.534 19.2964C11.3972 21.866 5.96056 20.5954 3.39103 16.4586C0.821495 12.3217 2.09204 6.88514 6.22892 4.31554C6.4219 4.19389 6.64548 4.12964 6.87356 4.13026C7.53761 4.13212 8.07448 4.67191 8.07263 5.336C8.07541 5.74465 7.86641 6.12563 7.52029 6.34284C6.65813 6.87277 5.93361 7.59921 5.40595 8.46278C3.55933 11.4851 4.51241 15.4321 7.53469 17.2787C10.557 19.1253 14.5039 18.1721 16.3505 15.1499C18.1972 12.1276 17.2441 8.18063 14.2218 6.33404Z" fill="url(#paint0_linear_451_2915)"/>
<defs>
<linearGradient id="paint0_linear_451_2915" x1="18.9013" y1="1.70585" x2="1.29593" y2="18.6641" gradientUnits="userSpaceOnUse">
<stop stop-color="#D800BD"/>
<stop offset="0.408098" stop-color="#F92D7A"/>
<stop offset="0.590073" stop-color="#FF4A52"/>
<stop offset="1" stop-color="#FFB243"/>
</linearGradient>
</defs>
</svg>
