<svg width="22" height="22" viewBox="0 0 22 22" fill="none" xmlns="http://www.w3.org/2000/svg">
<path d="M3.16936 0.916504C3.12074 0.916504 3.07411 0.935818 3.03973 0.970202L1.88671 2.12322C1.85232 2.15761 1.83301 2.20424 1.83301 2.25286V3.43734V3.76304C1.83301 3.80099 1.84479 3.838 1.86671 3.86897L8.10139 12.6755C8.12331 12.7065 8.13509 12.7434 8.13509 12.7814V17.3019C8.13509 17.3329 8.14974 17.362 8.17459 17.3804L13.162 21.0813C13.1636 21.0825 13.1655 21.0832 13.1675 21.0832C13.1726 21.0832 13.1768 21.079 13.1768 21.0739V12.7814C13.1768 12.7434 13.1885 12.7065 13.2105 12.6755L19.4451 3.86897C19.4671 3.838 19.4788 3.80099 19.4788 3.76304V2.25286C19.4788 2.20424 19.4595 2.15761 19.4251 2.12322L18.2721 0.970202C18.2378 0.935818 18.1911 0.916504 18.1425 0.916504H3.16936ZM3.09342 2.36025C3.09342 2.259 3.1755 2.17692 3.27676 2.17692H18.0351C18.1364 2.17692 18.2184 2.259 18.2184 2.36025V3.36423C18.2184 3.40219 18.2067 3.43921 18.1847 3.47018L11.9694 12.2479C11.964 12.2557 11.955 12.2603 11.9456 12.2603C11.9295 12.2603 11.9163 12.2734 11.9163 12.2895V12.3218V13.5207V18.2226C11.9163 18.3732 11.7447 18.4596 11.6237 18.3698L9.46957 16.7711C9.42301 16.7364 9.39551 16.6819 9.39551 16.6239V13.5207V12.3218V12.2895C9.39551 12.2734 9.3824 12.2603 9.36627 12.2603C9.35682 12.2603 9.34793 12.2557 9.34243 12.248L3.12714 3.47018C3.1052 3.43921 3.09342 3.40219 3.09342 3.36423V2.36025ZM5.95682 3.89198C5.81039 3.89198 5.72306 4.05517 5.80427 4.177L7.79922 7.16942C7.89983 7.32035 8.13509 7.24911 8.13509 7.06772V5.2657C8.13509 5.19626 8.17433 5.13278 8.23644 5.10173L9.96127 4.23929C10.1343 4.15278 10.0727 3.89198 9.87932 3.89198H5.95682Z" fill="url(#paint0_linear_451_2911)" stroke="url(#paint1_linear_451_2911)"/>
<defs>
<linearGradient id="paint0_linear_451_2911" x1="10.6559" y1="21.0832" x2="10.6559" y2="0.916504" gradientUnits="userSpaceOnUse">
<stop stop-color="#5570FF"/>
<stop offset="1" stop-color="#4DD3FF"/>
</linearGradient>
<linearGradient id="paint1_linear_451_2911" x1="10.6559" y1="21.0832" x2="10.6559" y2="0.916504" gradientUnits="userSpaceOnUse">
<stop stop-color="#5570FF"/>
<stop offset="1" stop-color="#4DD3FF"/>
</linearGradient>
</defs>
</svg>
