<svg width="16" height="16" viewBox="0 0 16 16" fill="none" xmlns="http://www.w3.org/2000/svg">
<g clip-path="url(#clip0_159_46)">
<path d="M1.5 0.5C0.947715 0.5 0.5 0.947715 0.5 1.5V1.65385V14.3462V14.5C0.5 15.0523 0.947715 15.5 1.5 15.5H1.65385H14.3462H14.5C15.0523 15.5 15.5 15.0523 15.5 14.5V14.3462V1.65385V1.5C15.5 0.947715 15.0523 0.5 14.5 0.5H14.3462H1.65385H1.5ZM1.65385 2.65385C1.65385 2.10156 2.10156 1.65385 2.65385 1.65385H13.3462C13.8984 1.65385 14.3462 2.10156 14.3462 2.65385V13.3462C14.3462 13.8984 13.8984 14.3462 13.3462 14.3462H2.65385C2.10156 14.3462 1.65385 13.8984 1.65385 13.3462V2.65385Z" fill="#344CD8"/>
<path d="M3.0769 2.0769C2.52462 2.0769 2.0769 2.52462 2.0769 3.0769V6.46152C2.0769 7.0138 2.52462 7.46152 3.0769 7.46152H6.46152C7.0138 7.46152 7.46152 7.0138 7.46152 6.46152V3.0769C7.46152 2.52462 7.0138 2.0769 6.46152 2.0769H3.0769ZM9.53844 2.0769C8.98616 2.0769 8.53844 2.52462 8.53844 3.0769V6.46152C8.53844 7.0138 8.98616 7.46152 9.53844 7.46152H12.9231C13.4753 7.46152 13.9231 7.0138 13.9231 6.46152V3.0769C13.9231 2.52462 13.4753 2.0769 12.9231 2.0769H9.53844ZM3.0769 8.53844C2.52462 8.53844 2.0769 8.98616 2.0769 9.53844V12.9231C2.0769 13.4753 2.52462 13.9231 3.0769 13.9231H6.46152C7.0138 13.9231 7.46152 13.4753 7.46152 12.9231V9.53844C7.46152 8.98616 7.0138 8.53844 6.46152 8.53844H3.0769ZM9.53844 8.53844C8.98616 8.53844 8.53844 8.98616 8.53844 9.53844V12.9231C8.53844 13.4753 8.98616 13.9231 9.53844 13.9231H12.9231C13.4753 13.9231 13.9231 13.4753 13.9231 12.9231V9.53844C13.9231 8.98616 13.4753 8.53844 12.9231 8.53844H9.53844Z" fill="url(#paint0_linear_159_46)"/>
</g>
<defs>
<linearGradient id="paint0_linear_159_46" x1="3.26152" y1="13.9268" x2="7.53998" y2="1.08977" gradientUnits="userSpaceOnUse">
<stop stop-color="#22B4FA"/>
<stop offset="1" stop-color="#6BD6FE"/>
</linearGradient>
<clipPath id="clip0_159_46">
<rect width="16" height="16" fill="white"/>
</clipPath>
</defs>
</svg>
