<svg width="22" height="22" viewBox="0 0 22 22" fill="none" xmlns="http://www.w3.org/2000/svg">
<path d="M2.75 13.75C4.26878 13.75 5.5 12.5188 5.5 11C5.5 9.48122 4.26878 8.25 2.75 8.25C1.23122 8.25 0 9.48122 0 11C0 12.5188 1.23122 13.75 2.75 13.75Z" fill="url(#paint0_linear_451_2893)"/>
<path d="M22.0003 9.89986C22.0003 9.74798 21.8773 9.62486 21.7253 9.62486H13.0393C12.7943 9.62486 12.6716 9.32864 12.8448 9.15541L16.9934 5.00681C17.1008 4.89942 17.1008 4.72529 16.9934 4.61791L15.3198 2.94431C15.2124 2.83692 15.0383 2.83692 14.9309 2.94431L7.0698 10.8054C6.96241 10.9128 6.96241 11.0869 7.0698 11.1943L14.9309 19.0554C15.0383 19.1628 15.2124 19.1628 15.3198 19.0554L16.9934 17.3818C17.1008 17.2744 17.1008 17.1003 16.9934 16.9929L12.8448 12.8443C12.6716 12.6711 12.7943 12.3749 13.0393 12.3749H21.7253C21.8773 12.3749 22.0003 12.2517 22.0003 12.0999V9.89986Z" fill="url(#paint1_linear_451_2893)"/>
<defs>
<linearGradient id="paint0_linear_451_2893" x1="5.31418" y1="8.4072" x2="3.16893" y2="13.7939" gradientUnits="userSpaceOnUse">
<stop stop-color="#FE0F7C"/>
<stop offset="1" stop-color="#DF0066"/>
</linearGradient>
<linearGradient id="paint1_linear_451_2893" x1="21.3128" y1="10.9999" x2="8.38302" y2="12.3096" gradientUnits="userSpaceOnUse">
<stop stop-color="#8D01A2"/>
<stop offset="1" stop-color="#FF00D2"/>
</linearGradient>
</defs>
</svg>
