<svg width="22" height="22" viewBox="0 0 22 22" fill="none" xmlns="http://www.w3.org/2000/svg">
<path d="M11.4834 1.57367C11.2156 1.30878 10.7844 1.30878 10.5166 1.57367L9.86897 2.21412L9.86894 2.22039V2.22663L1.37721 10.7152L1.375 10.7206V11.6373C1.375 12.0169 1.68281 12.3247 2.0625 12.3247H2.3042C2.68389 12.3247 2.9917 12.6325 2.9917 13.0122V18.7352C2.9917 18.7386 2.98889 18.7414 2.98543 18.7414C2.98198 18.7414 2.97917 18.7443 2.97917 18.7476V19.6581C2.97917 20.0377 3.28697 20.3456 3.66667 20.3456H18.3333C18.7131 20.3456 19.0208 20.0377 19.0208 19.6581V18.7414V13.0122C19.0208 12.6325 19.3286 12.3247 19.7083 12.3247H19.9375C20.3171 12.3247 20.625 12.0169 20.625 11.6373V10.7206L20.6228 10.7152L19.2782 9.37071C19.0098 9.1022 18.5745 9.1022 18.3059 9.37071L17.8757 9.80105C17.7606 9.91609 17.7606 10.1026 17.8757 10.2177L17.8976 10.2397C18.0751 10.4171 17.9494 10.7206 17.6985 10.7206C17.5428 10.7206 17.4167 10.8467 17.4167 11.0023V18.0539C17.4167 18.4337 17.1089 18.7414 16.7292 18.7414H13.2917C12.912 18.7414 12.6042 18.4337 12.6042 18.0539V14.6164C12.6042 14.2368 12.2964 13.9289 11.9167 13.9289H10.0833C9.70364 13.9289 9.39583 14.2368 9.39583 14.6164V18.0539C9.39583 18.4337 9.08804 18.7414 8.70833 18.7414H5.27083C4.89114 18.7414 4.58333 18.4337 4.58333 18.0539V12.3247V11.0023C4.58333 10.8467 4.45723 10.7206 4.30167 10.7206C4.05069 10.7206 3.92505 10.4171 4.10255 10.2397L10.9953 3.34988H10.9984H11.0016L11.0047 3.34987L12.8293 5.17195C13.0978 5.44013 13.5328 5.43998 13.8011 5.17162L13.9538 5.01911C14.2223 4.75049 14.2222 4.31491 13.9534 4.0465L12.1311 2.22663V2.22039L12.131 2.21412L11.4834 1.57367ZM16.5 2.69974C16.1204 2.69974 15.8125 3.00754 15.8125 3.38724V6.82476C15.8125 7.20444 16.1204 7.51224 16.5 7.51224H16.7417C17.1214 7.51224 17.4292 7.20444 17.4292 6.82476V3.38724C17.4292 3.00754 17.1214 2.69974 16.7417 2.69974H16.5Z" fill="url(#paint0_linear_451_2891)" stroke="url(#paint1_linear_451_2891)" stroke-width="0.4"/>
<defs>
<linearGradient id="paint0_linear_451_2891" x1="2.75" y1="10.7206" x2="18.3718" y2="8.99427" gradientUnits="userSpaceOnUse">
<stop stop-color="#8D01A2"/>
<stop offset="1" stop-color="#FF00D2"/>
</linearGradient>
<linearGradient id="paint1_linear_451_2891" x1="2.75" y1="10.7206" x2="18.3718" y2="8.99427" gradientUnits="userSpaceOnUse">
<stop stop-color="#8D01A2"/>
<stop offset="1" stop-color="#FF00D2"/>
</linearGradient>
</defs>
</svg>
