<svg width="22" height="22" viewBox="0 0 22 22" fill="none" xmlns="http://www.w3.org/2000/svg">
<g clip-path="url(#clip0_451_2888)">
<path d="M12.2623 21.0832C14.7126 21.0832 16.7955 20.2255 18.5107 18.5103C20.226 16.795 21.0836 14.7122 21.0836 12.2618C21.0836 11.0366 20.8507 9.88884 20.3848 8.8185C19.9189 7.74817 19.286 6.81703 18.4863 6.02506C17.6858 5.2331 16.7504 4.60449 15.6801 4.13925C14.6098 3.674 13.4623 3.44105 12.2378 3.4404C12.1745 3.4404 12.1427 3.36387 12.1876 3.31911L12.9484 2.55826C13.0464 2.46024 13.116 2.35407 13.1571 2.23971C13.1983 2.12536 13.2185 2.00284 13.2179 1.87216C13.2179 1.74147 13.1974 1.61895 13.1562 1.5046C13.115 1.39025 13.0457 1.28406 12.9484 1.18605C12.7686 1.00636 12.54 0.916504 12.2623 0.916504C11.9845 0.916504 11.7558 1.00636 11.5761 1.18605L9.02775 3.73445C8.92974 3.83246 8.86048 3.93864 8.81996 4.053C8.77944 4.16734 8.75886 4.28986 8.75821 4.42055C8.75821 4.55124 8.77879 4.67376 8.81996 4.78811C8.86113 4.90246 8.93039 5.00864 9.02775 5.10666L11.5761 7.65506C11.7558 7.83475 11.9845 7.9246 12.2623 7.9246C12.54 7.9246 12.7686 7.83475 12.9484 7.65506C13.0464 7.55705 13.1157 7.45086 13.1562 7.33651C13.1967 7.22216 13.2173 7.09964 13.2179 6.96895C13.2179 6.83826 13.1974 6.71575 13.1562 6.6014C13.115 6.48704 13.0457 6.38086 12.9484 6.28284L12.1876 5.52199C12.1427 5.47723 12.1745 5.40071 12.2378 5.40071C14.1327 5.40071 15.7539 6.07048 17.1013 7.41002C18.4487 8.74957 19.1227 10.3668 19.1233 12.2618C19.1233 14.1567 18.4535 15.774 17.114 17.1135C15.7745 18.4531 14.1572 19.1229 12.2623 19.1229C11.7885 19.1229 11.3269 19.0778 10.8773 18.9876C10.4277 18.8974 9.99096 18.7628 9.56681 18.5838C9.38715 18.5021 9.20317 18.4775 9.01501 18.5103C8.82683 18.5429 8.66771 18.6246 8.53767 18.7553C8.25997 19.033 8.14561 19.3352 8.19462 19.662C8.24363 19.9887 8.43966 20.2255 8.78272 20.3726C9.32179 20.6013 9.88151 20.777 10.4618 20.8998C11.042 21.0228 11.6421 21.0838 12.2623 21.0832Z" fill="url(#paint0_linear_451_2888)"/>
<path d="M6.74892 17.6643C6.63457 17.7055 6.51206 17.7261 6.38137 17.7261C6.25068 17.7268 6.12816 17.7065 6.01381 17.6653C5.89946 17.6242 5.79327 17.5545 5.69526 17.4565L1.18655 12.9478C1.08919 12.8498 1.01992 12.7437 0.978763 12.6293C0.937596 12.515 0.917008 12.3924 0.917008 12.2617C0.916352 12.1311 0.936615 12.0085 0.977783 11.8942C1.01894 11.7798 1.08853 11.6736 1.18655 11.5756L5.69526 7.0669C5.79327 6.96954 5.89946 6.90028 6.01381 6.85911C6.12816 6.81794 6.25068 6.79736 6.38137 6.79736C6.51206 6.79801 6.63457 6.81859 6.74892 6.85911C6.86328 6.89963 6.96946 6.96889 7.06747 7.0669L11.5762 11.5756C11.6735 11.6736 11.7428 11.7798 11.784 11.8942C11.8251 12.0085 11.8458 12.1311 11.8458 12.2617C11.8451 12.3924 11.8245 12.515 11.784 12.6293C11.7435 12.7437 11.6742 12.8498 11.5762 12.9478L7.06747 17.4565C6.96946 17.5539 6.86328 17.6232 6.74892 17.6643Z" fill="url(#paint1_linear_451_2888)"/>
</g>
<defs>
<linearGradient id="paint0_linear_451_2888" x1="18.6649" y1="3.20101" x2="6.78708" y2="11.3165" gradientUnits="userSpaceOnUse">
<stop stop-color="#8F0CFF"/>
<stop offset="0.516064" stop-color="#AA1DFF"/>
<stop offset="1" stop-color="#B826FF"/>
</linearGradient>
<linearGradient id="paint1_linear_451_2888" x1="9.79656" y1="8.03538" x2="2.9021" y2="15.3994" gradientUnits="userSpaceOnUse">
<stop stop-color="#8F0CFF"/>
<stop offset="0.516064" stop-color="#AA1DFF"/>
<stop offset="1" stop-color="#B826FF"/>
</linearGradient>
<clipPath id="clip0_451_2888">
<rect width="22" height="22" fill="white"/>
</clipPath>
</defs>
</svg>
