<svg width="22" height="22" viewBox="0 0 22 22" fill="none" xmlns="http://www.w3.org/2000/svg">
<path d="M19.25 13.75C20.7688 13.75 22 12.5188 22 11C22 9.48122 20.7688 8.25 19.25 8.25C17.7312 8.25 16.5 9.48122 16.5 11C16.5 12.5188 17.7312 13.75 19.25 13.75Z" fill="url(#paint0_linear_451_2882)"/>
<path d="M0 11.8252C0 12.129 0.246243 12.3752 0.55 12.3752H8.29718C8.78718 12.3752 9.03257 12.9676 8.6861 13.3141L5.20141 16.7989C4.98662 17.0136 4.98662 17.3618 5.20141 17.5766L6.4861 18.8614C6.70088 19.0761 7.04912 19.0761 7.2639 18.8614L14.7362 11.3891C14.9509 11.1743 14.9509 10.8261 14.7362 10.6113L7.2639 3.13912C7.04912 2.92433 6.70088 2.92433 6.4861 3.13912L5.20141 4.42381C4.98662 4.6386 4.98662 4.98683 5.20141 5.20162L8.6861 8.68631C9.03257 9.03278 8.78718 9.62521 8.29718 9.62521H0.55C0.246243 9.62521 0 9.87146 0 10.1752V11.8252Z" fill="url(#paint1_linear_451_2882)"/>
<defs>
<linearGradient id="paint0_linear_451_2882" x1="21.8142" y1="8.4072" x2="19.669" y2="13.7939" gradientUnits="userSpaceOnUse">
<stop stop-color="#FE0F7C"/>
<stop offset="1" stop-color="#DF0066"/>
</linearGradient>
<linearGradient id="paint1_linear_451_2882" x1="1.08036" y1="11.0002" x2="13.3783" y2="9.75446" gradientUnits="userSpaceOnUse">
<stop stop-color="#8D01A2"/>
<stop offset="1" stop-color="#FF00D2"/>
</linearGradient>
</defs>
</svg>
