<svg width="22" height="22" viewBox="0 0 22 22" fill="none" xmlns="http://www.w3.org/2000/svg">
<path opacity="0.5" d="M18.9035 5.32093C18.9035 3.52432 17.447 2.06787 15.6504 2.06787H4.62804C2.83143 2.06787 1.375 3.52432 1.375 5.32091V16.6787C1.375 18.4754 2.83143 19.9318 4.62804 19.9318H15.6504C17.447 19.9318 18.9035 18.4754 18.9035 16.6787V5.32093Z" fill="url(#paint0_linear_451_2869)"/>
<path d="M16.512 5.69447C16.2901 5.6905 16.0761 5.77719 15.9196 5.93454L15.5463 6.30976L15.5536 6.317L12.1927 9.67789C11.954 9.91659 11.954 10.3036 12.1927 10.5423L13.984 12.3336C14.2227 12.5723 14.6097 12.5723 14.8484 12.3336L18.2186 8.96351L18.2193 8.96418L20.4383 6.80688C20.828 6.42808 20.5666 5.76724 20.0233 5.75748L16.512 5.69447Z" fill="url(#paint1_linear_451_2869)"/>
<path d="M8.47204 9.48744C8.69395 9.48346 8.90788 9.57016 9.06441 9.72751L9.4377 10.1027L9.43043 10.11L12.7913 13.4709C13.03 13.7096 13.03 14.0966 12.7913 14.3353L11 16.1266C10.7613 16.3653 10.3743 16.3653 10.1356 16.1266L6.76551 12.7565L6.76484 12.7572L4.54569 10.5998C4.15605 10.221 4.41744 9.56021 4.96077 9.55044L8.47204 9.48744Z" fill="url(#paint2_linear_451_2869)"/>
<defs>
<linearGradient id="paint0_linear_451_2869" x1="10.1392" y1="19.9318" x2="10.1392" y2="2.06787" gradientUnits="userSpaceOnUse">
<stop stop-color="#A93AFF"/>
<stop offset="1" stop-color="#FF81FF"/>
</linearGradient>
<linearGradient id="paint1_linear_451_2869" x1="20.6246" y1="16.3059" x2="15.9608" y2="6.01448" gradientUnits="userSpaceOnUse">
<stop stop-color="#731FFF"/>
<stop offset="0.905415" stop-color="#EB1AFF"/>
</linearGradient>
<linearGradient id="paint2_linear_451_2869" x1="20.6246" y1="16.3056" x2="15.9607" y2="6.01415" gradientUnits="userSpaceOnUse">
<stop stop-color="#731FFF"/>
<stop offset="0.905415" stop-color="#EB1AFF"/>
</linearGradient>
</defs>
</svg>
