<svg width="22" height="22" viewBox="0 0 22 22" fill="none" xmlns="http://www.w3.org/2000/svg">
<path d="M19.5938 7.69742V16.5859C19.5924 17.8391 19.094 19.0405 18.2079 19.9266C17.3217 20.8127 16.1203 21.3111 14.8672 21.3125H7.13281C5.87967 21.3111 4.67823 20.8127 3.79215 19.9266C2.90603 19.0405 2.40761 17.8391 2.40625 16.5859V5.41406C2.40761 4.16092 2.90603 2.95951 3.79215 2.0734C4.67823 1.1873 5.87967 0.688882 7.13281 0.687517H12.5838C13.2048 0.68584 13.8199 0.807341 14.3935 1.04498C14.9672 1.28262 15.4881 1.63169 15.9259 2.07197L18.2093 4.35531C18.6496 4.79318 18.9986 5.31403 19.2363 5.88772C19.4739 6.46137 19.5954 7.07651 19.5938 7.69742ZM17.0156 16.5859V8.42188H13.5781C13.1223 8.42188 12.6851 8.24079 12.3628 7.91849C12.0405 7.59615 11.8594 7.15897 11.8594 6.70312V3.26564H7.13281C6.56301 3.26564 6.01655 3.49198 5.61364 3.89489C5.21073 4.2978 4.98438 4.84426 4.98438 5.41406V16.5859C4.98438 17.1557 5.21073 17.7022 5.61364 18.1051C6.01655 18.508 6.56301 18.7344 7.13281 18.7344H14.8672C15.437 18.7344 15.9834 18.508 16.3864 18.1051C16.7893 17.7022 17.0156 17.1557 17.0156 16.5859Z" fill="url(#paint0_linear_451_2862)"/>
<path d="M12.2887 11.9455L12.2892 10.54C12.2892 10.3706 12.2558 10.203 12.191 10.0465C12.1262 9.89004 12.0312 9.74789 11.9115 9.62817C11.7918 9.5084 11.6496 9.41343 11.4932 9.34863C11.3367 9.28383 11.1691 9.25049 10.9997 9.25049C10.8304 9.25049 10.6627 9.28383 10.5062 9.34863C10.3498 9.41343 10.2077 9.5084 10.0879 9.62817C9.96816 9.74789 9.87318 9.89004 9.80839 10.0465C9.74359 10.203 9.71025 10.3706 9.71025 10.54L9.71073 11.9455C9.7108 12.1354 9.5568 12.2894 9.36684 12.2893L7.96135 12.2888C7.61939 12.2888 7.29138 12.4247 7.04955 12.6665C6.80776 12.9083 6.67188 13.2363 6.67188 13.5783C6.67188 13.9203 6.80776 14.2483 7.04955 14.4901C7.29138 14.7319 7.61939 14.8678 7.96135 14.8678L9.36684 14.8673C9.5568 14.8672 9.7108 15.0212 9.71073 15.2111L9.71025 16.6166C9.71025 16.9586 9.8461 17.2866 10.0879 17.5284C10.3298 17.7703 10.6577 17.9061 10.9997 17.9061C11.3417 17.9061 11.6697 17.7703 11.9115 17.5284C12.1533 17.2866 12.2892 16.9586 12.2892 16.6166L12.2887 15.2111C12.2886 15.0212 12.4426 14.8672 12.6326 14.8673L14.0381 14.8678C14.3801 14.8678 14.708 14.7319 14.9499 14.4901C15.1917 14.2483 15.3275 13.9203 15.3275 13.5783C15.3275 13.2363 15.1917 12.9083 14.9499 12.6665C14.708 12.4247 14.3801 12.2888 14.0381 12.2888L12.6326 12.2893C12.4426 12.2894 12.2886 12.1354 12.2887 11.9455Z" fill="url(#paint1_linear_451_2862)"/>
<defs>
<linearGradient id="paint0_linear_451_2862" x1="11" y1="21.3125" x2="11" y2="0.6875" gradientUnits="userSpaceOnUse">
<stop stop-color="#FDA700"/>
<stop offset="1" stop-color="#FFDE00"/>
</linearGradient>
<linearGradient id="paint1_linear_451_2862" x1="13.4307" y1="16.0093" x2="8.56876" y2="11.1473" gradientUnits="userSpaceOnUse">
<stop stop-color="#FDA700"/>
<stop offset="1" stop-color="#FFDE00"/>
</linearGradient>
</defs>
</svg>
