<svg width="22" height="22" viewBox="0 0 22 22" fill="none" xmlns="http://www.w3.org/2000/svg">
<path d="M11 1.375C9.09636 1.375 7.23546 1.93949 5.65264 2.9971C4.06981 4.05472 2.83616 5.55794 2.10767 7.31667C1.37917 9.07541 1.18856 11.0107 1.55995 12.8778C1.93132 14.7448 2.84802 16.4598 4.19409 17.8059C5.54018 19.152 7.25519 20.0686 9.12227 20.4401C10.9893 20.8115 12.9246 20.6209 14.6833 19.8923C16.4421 19.1639 17.9453 17.9302 19.0028 16.3474C20.0606 14.7645 20.625 12.9037 20.625 11C20.6222 8.44814 19.6073 6.00158 17.8028 4.19715C15.9984 2.39271 13.5519 1.37776 11 1.375ZM11 18.2188C9.57227 18.2188 8.17659 17.7954 6.98949 17.0022C5.80236 16.209 4.87712 15.0816 4.33075 13.7625C3.78438 12.4434 3.64143 10.992 3.91995 9.59169C4.19849 8.19139 4.88601 6.90513 5.89557 5.89557C6.90513 4.88601 8.19139 4.19849 9.59169 3.91995C10.992 3.64141 12.4434 3.78438 13.7625 4.33075C15.0816 4.87711 16.209 5.80236 17.0022 6.98949C17.7954 8.17659 18.2188 9.57227 18.2188 11C18.2163 12.9138 17.4551 14.7486 16.1019 16.1019C14.7486 17.4551 12.9138 18.2163 11 18.2188Z" fill="url(#paint0_linear_451_2850)" stroke="url(#paint1_linear_451_2850)" stroke-width="0.3"/>
<path d="M10.6352 9.03114H10.3945C10.0793 9.02341 9.77255 9.13368 9.5344 9.34038C9.29625 9.54706 9.14388 9.83526 9.10718 10.1485C9.0862 10.4618 9.18855 10.7709 9.39236 11.0098C9.59619 11.2486 9.88531 11.3984 10.198 11.427V15.1566C10.198 15.4757 10.3248 15.7818 10.5504 16.0074C10.776 16.233 11.0821 16.3598 11.4011 16.3598C11.7203 16.3598 12.0263 16.233 12.2519 16.0074C12.4775 15.7818 12.6043 15.4757 12.6043 15.1566V11.0003C12.6043 10.478 12.3968 9.97716 12.0275 9.60789C11.6583 9.2386 11.1574 9.03114 10.6352 9.03114Z" fill="url(#paint2_linear_451_2850)" stroke="url(#paint3_linear_451_2850)" stroke-width="0.3"/>
<path d="M10.8637 8.16585C11.1359 8.16585 11.402 8.08512 11.6284 7.93389C11.8547 7.78264 12.0311 7.56769 12.1353 7.31619C12.2395 7.06468 12.2667 6.78794 12.2136 6.52095C12.1605 6.25396 12.0294 6.00872 11.8369 5.81622C11.6444 5.62373 11.3992 5.49264 11.1322 5.43953C10.8652 5.38642 10.5885 5.41368 10.337 5.51786C10.0855 5.62203 9.87052 5.79844 9.71927 6.02479C9.56803 6.25115 9.4873 6.51724 9.4873 6.78947C9.4872 6.97025 9.52273 7.14928 9.59186 7.31631C9.661 7.48335 9.76237 7.63512 9.89021 7.76294C10.018 7.89078 10.1698 7.99215 10.3368 8.06128C10.5039 8.13043 10.6829 8.16595 10.8637 8.16585Z" fill="url(#paint4_linear_451_2850)" stroke="url(#paint5_linear_451_2850)" stroke-width="0.3"/>
<defs>
<linearGradient id="paint0_linear_451_2850" x1="11" y1="20.625" x2="11" y2="1.375" gradientUnits="userSpaceOnUse">
<stop stop-color="#02AA93"/>
<stop offset="1" stop-color="#67FF80"/>
</linearGradient>
<linearGradient id="paint1_linear_451_2850" x1="11" y1="20.625" x2="11" y2="1.375" gradientUnits="userSpaceOnUse">
<stop stop-color="#02AA93"/>
<stop offset="1" stop-color="#67FF80"/>
</linearGradient>
<linearGradient id="paint2_linear_451_2850" x1="10.8544" y1="16.3598" x2="10.8544" y2="9.03076" gradientUnits="userSpaceOnUse">
<stop stop-color="#02AA93"/>
<stop offset="1" stop-color="#67FF80"/>
</linearGradient>
<linearGradient id="paint3_linear_451_2850" x1="10.8544" y1="16.3598" x2="10.8544" y2="9.03076" gradientUnits="userSpaceOnUse">
<stop stop-color="#02AA93"/>
<stop offset="1" stop-color="#67FF80"/>
</linearGradient>
<linearGradient id="paint4_linear_451_2850" x1="10.8637" y1="8.16585" x2="10.8637" y2="5.4131" gradientUnits="userSpaceOnUse">
<stop stop-color="#02AA93"/>
<stop offset="1" stop-color="#67FF80"/>
</linearGradient>
<linearGradient id="paint5_linear_451_2850" x1="10.8637" y1="8.16585" x2="10.8637" y2="5.4131" gradientUnits="userSpaceOnUse">
<stop stop-color="#02AA93"/>
<stop offset="1" stop-color="#67FF80"/>
</linearGradient>
</defs>
</svg>
