<svg width="16" height="16" viewBox="0 0 16 16" fill="none" xmlns="http://www.w3.org/2000/svg">
<path d="M1.2 1C1.08954 1 1 1.08954 1 1.2V4.3C1 4.41046 1.08954 4.5 1.2 4.5H4.3C4.41046 4.5 4.5 4.41046 4.5 4.3V1.2C4.5 1.08954 4.41046 1 4.3 1H1.2ZM5.86667 1C5.75621 1 5.66667 1.08954 5.66667 1.2V1.96667C5.66667 2.07713 5.75621 2.16667 5.86667 2.16667H11.2758C11.3289 2.16667 11.3798 2.1456 11.4173 2.10809L12.184 1.34142C12.3099 1.21543 12.2207 1 12.0425 1H5.86667ZM14.3415 1.14371C14.2636 1.06452 14.1362 1.06392 14.0576 1.14238L1.14264 14.035C1.06404 14.1135 1.06442 14.2409 1.14349 14.3189L1.69245 14.8604C1.77075 14.9376 1.89672 14.9372 1.97443 14.8593L14.86 1.95371C14.9375 1.87605 14.938 1.75043 14.8611 1.67218L14.3415 1.14371ZM5.86667 3.33333C5.75621 3.33333 5.66667 3.42287 5.66667 3.53333V4.3C5.66667 4.41046 5.75621 4.5 5.86667 4.5H8.94254C8.99558 4.5 9.04645 4.47893 9.08396 4.44142L9.85064 3.67475C9.97664 3.54876 9.88741 3.33333 9.70922 3.33333H5.86667ZM15 3.95746C15 3.77927 14.7846 3.69004 14.6586 3.81603L14.316 4.15858C14.19 4.28457 14.2793 4.5 14.4575 4.5H14.8C14.9105 4.5 15 4.41046 15 4.3V3.95746ZM1.2 6.83333C1.08954 6.83333 1 6.92287 1 7.03333V10.1333C1 10.2438 1.08954 10.3333 1.2 10.3333H3.10922C3.16226 10.3333 3.21313 10.3122 3.25064 10.2747L4.44142 9.08396C4.47893 9.04645 4.5 8.99558 4.5 8.94254V7.03333C4.5 6.92287 4.41046 6.83333 4.3 6.83333H1.2ZM5.86667 6.83333C5.75621 6.83333 5.66667 6.92287 5.66667 7.03333V7.37586C5.66667 7.55404 5.88209 7.64327 6.00809 7.51728L6.35063 7.17475C6.47662 7.04876 6.38739 6.83333 6.20921 6.83333H5.86667ZM11.7242 6.83333C11.6711 6.83333 11.6202 6.8544 11.5827 6.89191L10.816 7.65858C10.6901 7.78457 10.7793 8 10.9575 8H14.8C14.9105 8 15 7.91046 15 7.8V7.03333C15 6.92287 14.9105 6.83333 14.8 6.83333H11.7242ZM9.39077 9.16669C9.33773 9.16669 9.28686 9.18776 9.24935 9.22527L8.48273 9.99189C8.35674 10.1179 8.44597 10.3333 8.62415 10.3333H14.8C14.9105 10.3333 15 10.2438 15 10.1333V9.36669C15 9.25623 14.9105 9.16669 14.8 9.16669H9.39077ZM5.89078 12.6667C5.83774 12.6667 5.78687 12.6878 5.74936 12.7253L4.98272 13.4919C4.85672 13.6179 4.94595 13.8333 5.12414 13.8333H14.8C14.9105 13.8333 15 13.7438 15 13.6333V12.8667C15 12.7562 14.9105 12.6667 14.8 12.6667H5.89078Z" fill="url(#paint0_linear_164_200)"/>
<defs>
<linearGradient id="paint0_linear_164_200" x1="14.9585" y1="1.08875" x2="1.06927" y2="14.8624" gradientUnits="userSpaceOnUse">
<stop stop-color="#FE7970"/>
<stop offset="1" stop-color="#DC3282"/>
</linearGradient>
</defs>
</svg>
