<svg width="22" height="22" viewBox="0 0 22 22" fill="none" xmlns="http://www.w3.org/2000/svg">
<path d="M14.4375 1.375C13.2949 1.375 12.375 2.29488 12.375 3.4375V7.5625C12.375 8.70512 13.2949 9.625 14.4375 9.625H18.5625C19.7051 9.625 20.625 8.70512 20.625 7.5625V3.4375C20.625 2.29488 19.7051 1.375 18.5625 1.375H14.4375ZM15.125 4.125H17.875V6.875H15.125V4.125ZM2.0625 13.75C0.919875 13.75 0 14.6699 0 15.8125V19.9375C0 21.0801 0.919875 22 2.0625 22H6.1875C7.33012 22 8.25 21.0801 8.25 19.9375V15.8125C8.25 14.6699 7.33012 13.75 6.1875 13.75H2.0625ZM2.75 16.5H5.5V19.25H2.75V16.5Z" fill="url(#paint0_linear_451_2846)"/>
<path d="M0 3.4375C0 2.29488 0.919875 1.375 2.0625 1.375H6.1875C7.33012 1.375 8.25 2.29488 8.25 3.4375V7.5625C8.25 8.70512 7.33012 9.625 6.1875 9.625H2.0625C0.919875 9.625 0 8.70512 0 7.5625V3.4375Z" fill="url(#paint1_linear_451_2846)"/>
<path d="M12.375 15.8125C12.375 14.6699 13.2949 13.75 14.4375 13.75H18.5625C19.7051 13.75 20.625 14.6699 20.625 15.8125V19.9375C20.625 21.0801 19.7051 22 18.5625 22H14.4375C13.2949 22 12.375 21.0801 12.375 19.9375V15.8125Z" fill="url(#paint2_linear_451_2846)"/>
<defs>
<linearGradient id="paint0_linear_451_2846" x1="1.47322" y1="11.6875" x2="18.2108" y2="9.83788" gradientUnits="userSpaceOnUse">
<stop stop-color="#8D01A2"/>
<stop offset="1" stop-color="#FF00D2"/>
</linearGradient>
<linearGradient id="paint1_linear_451_2846" x1="19.9282" y1="1.96452" x2="11.8835" y2="22.1646" gradientUnits="userSpaceOnUse">
<stop stop-color="#FE0F7C"/>
<stop offset="1" stop-color="#DF0066"/>
</linearGradient>
<linearGradient id="paint2_linear_451_2846" x1="19.9282" y1="1.96452" x2="11.8835" y2="22.1646" gradientUnits="userSpaceOnUse">
<stop stop-color="#FE0F7C"/>
<stop offset="1" stop-color="#DF0066"/>
</linearGradient>
</defs>
</svg>
