<svg width="22" height="22" viewBox="0 0 22 22" fill="none" xmlns="http://www.w3.org/2000/svg">
<path d="M10.9159 1.8335C9.70044 1.8335 8.53474 2.31635 7.67525 3.17584C6.81577 4.03532 6.33291 5.20104 6.33291 6.41654C6.33291 7.63203 6.81577 8.79774 7.67525 9.65725C8.53474 10.5167 9.70044 10.9996 10.9159 10.9996C12.1314 10.9996 13.2972 10.5167 14.1566 9.65725C15.0161 8.79774 15.499 7.63203 15.499 6.41654C15.499 5.20104 15.0161 4.03532 14.1566 3.17584C13.2972 2.31635 12.1314 1.8335 10.9159 1.8335ZM10.9159 2.97926C11.8276 2.97926 12.7019 3.34145 13.3465 3.98606C13.9911 4.63068 14.3533 5.50491 14.3533 6.41654C14.3533 7.32815 13.9911 8.20246 13.3465 8.84708C12.7019 9.4917 11.8276 9.85378 10.9159 9.85378C10.0043 9.85378 9.13006 9.4917 8.48545 8.84708C7.84083 8.20246 7.47867 7.32815 7.47867 6.41654C7.47867 5.50491 7.84083 4.63068 8.48545 3.98606C9.13006 3.34145 10.0043 2.97926 10.9159 2.97926ZM10.9159 12.1454C8.68542 12.1482 6.53246 12.9643 4.86051 14.4408C3.29265 15.8253 2.24865 17.7014 1.89482 19.7544C1.85734 19.9719 2.02859 20.1656 2.24928 20.1656H2.66978C2.85205 20.1656 3.00574 20.0315 3.0389 19.8523C3.36899 18.0678 4.29548 16.4446 5.67129 15.2517C7.12722 13.9893 8.98896 13.2934 10.9159 13.2911C11.1572 13.293 11.3982 13.3059 11.6382 13.3296C11.8617 13.3516 12.0617 13.1805 12.0617 12.9559V12.5478C12.0617 12.364 11.9257 12.2078 11.7429 12.1899C11.4681 12.163 11.1921 12.1485 10.9159 12.1465" fill="url(#paint0_linear_451_2832)"/>
<path d="M10.9159 12.1454C8.68542 12.1482 6.53246 12.9643 4.86051 14.4408C3.29265 15.8253 2.24865 17.7014 1.89482 19.7544C1.85734 19.9719 2.02859 20.1656 2.24928 20.1656H2.66978C2.85205 20.1656 3.00574 20.0315 3.0389 19.8523C3.36899 18.0678 4.29548 16.4446 5.67129 15.2517C7.12722 13.9893 8.98896 13.2934 10.9159 13.2911C11.1572 13.293 11.3982 13.3059 11.6382 13.3296C11.8617 13.3516 12.0617 13.1805 12.0617 12.9559V12.5478C12.0617 12.364 11.9257 12.2078 11.7429 12.1899C11.4681 12.163 11.1921 12.1485 10.9159 12.1465M10.9159 1.8335C9.70044 1.8335 8.53474 2.31635 7.67525 3.17584C6.81577 4.03532 6.33291 5.20104 6.33291 6.41654C6.33291 7.63203 6.81577 8.79774 7.67525 9.65725C8.53474 10.5167 9.70044 10.9996 10.9159 10.9996C12.1314 10.9996 13.2972 10.5167 14.1566 9.65725C15.0161 8.79774 15.499 7.63203 15.499 6.41654C15.499 5.20104 15.0161 4.03532 14.1566 3.17584C13.2972 2.31635 12.1314 1.8335 10.9159 1.8335ZM10.9159 2.97926C11.8276 2.97926 12.7019 3.34145 13.3465 3.98606C13.9911 4.63068 14.3533 5.50491 14.3533 6.41654C14.3533 7.32815 13.9911 8.20246 13.3465 8.84708C12.7019 9.4917 11.8276 9.85378 10.9159 9.85378C10.0043 9.85378 9.13006 9.4917 8.48545 8.84708C7.84083 8.20246 7.47867 7.32815 7.47867 6.41654C7.47867 5.50491 7.84083 4.63068 8.48545 3.98606C9.13006 3.34145 10.0043 2.97926 10.9159 2.97926Z" stroke="url(#paint1_linear_451_2832)"/>
<path d="M16.0717 20.1669C18.2864 20.1669 20.0818 18.3715 20.0818 16.1567C20.0818 13.942 18.2864 12.1465 16.0717 12.1465C13.8569 12.1465 12.0615 13.942 12.0615 16.1567C12.0615 18.3715 13.8569 20.1669 16.0717 20.1669Z" fill="url(#paint2_linear_451_2832)" stroke="url(#paint3_linear_451_2832)"/>
<path d="M13.207 15.7659C13.207 15.6647 13.2892 15.5825 13.3904 15.5825H18.7525C18.8538 15.5825 18.9358 15.6647 18.9358 15.7659V16.5449C18.9358 16.6462 18.8538 16.7283 18.7525 16.7283H13.3904C13.2892 16.7283 13.207 16.6462 13.207 16.5449V15.7659Z" fill="white" stroke="white"/>
<defs>
<linearGradient id="paint0_linear_451_2832" x1="15.0373" y1="2.35748" x2="6.3915" y2="18.5406" gradientUnits="userSpaceOnUse">
<stop stop-color="#FE0F7C"/>
<stop offset="1" stop-color="#DF0066"/>
</linearGradient>
<linearGradient id="paint1_linear_451_2832" x1="15.0373" y1="2.35748" x2="6.3915" y2="18.5406" gradientUnits="userSpaceOnUse">
<stop stop-color="#FE0F7C"/>
<stop offset="1" stop-color="#DF0066"/>
</linearGradient>
<linearGradient id="paint2_linear_451_2832" x1="19.8108" y1="12.3757" x2="16.6826" y2="20.2308" gradientUnits="userSpaceOnUse">
<stop stop-color="#FE0F7C"/>
<stop offset="1" stop-color="#DF0066"/>
</linearGradient>
<linearGradient id="paint3_linear_451_2832" x1="19.8108" y1="12.3757" x2="16.6826" y2="20.2308" gradientUnits="userSpaceOnUse">
<stop stop-color="#FE0F7C"/>
<stop offset="1" stop-color="#DF0066"/>
</linearGradient>
</defs>
</svg>
