<svg width="22" height="22" viewBox="0 0 22 22" fill="none" xmlns="http://www.w3.org/2000/svg">
<path d="M18.8475 17.0845C18.3915 16.0039 17.7294 15.0224 16.8983 14.1947C16.0699 13.3644 15.0886 12.7025 14.0085 12.2454C13.9987 12.2406 13.9891 12.2382 13.9795 12.2333C15.4861 11.1451 16.4655 9.37245 16.4655 7.37249C16.4655 4.05936 13.7812 1.375 10.468 1.375C7.1549 1.375 4.47054 4.05936 4.47054 7.37249C4.47054 9.37245 5.44997 11.1451 6.9566 12.2358C6.94693 12.2406 6.93725 12.243 6.92757 12.2479C5.84417 12.7049 4.87199 13.3603 4.03766 14.197C3.20747 15.0254 2.54556 16.0069 2.08848 17.087C1.63944 18.1444 1.39727 19.278 1.37506 20.4267C1.37442 20.4524 1.37895 20.4781 1.38838 20.5022C1.39782 20.5263 1.41196 20.5481 1.42999 20.5667C1.44802 20.5851 1.46956 20.5998 1.49336 20.6099C1.51715 20.6199 1.54271 20.625 1.56854 20.625H3.01953C3.12594 20.625 3.21059 20.5403 3.21301 20.4363C3.26137 18.5694 4.01106 16.8209 5.33631 15.4957C6.7075 14.1245 8.52852 13.37 10.468 13.37C12.4075 13.37 14.2285 14.1245 15.5998 15.4957C16.925 16.8209 17.6747 18.5694 17.7231 20.4363C17.7254 20.5428 17.8101 20.625 17.9165 20.625H19.3676C19.3933 20.625 19.4189 20.6199 19.4426 20.6099C19.4664 20.5998 19.488 20.5851 19.506 20.5667C19.524 20.5481 19.5382 20.5263 19.5477 20.5022C19.5572 20.4781 19.5616 20.4524 19.561 20.4267C19.5368 19.2708 19.2974 18.1462 18.8475 17.0845ZM10.468 11.532C9.35801 11.532 8.31328 11.0992 7.52733 10.3132C6.74137 9.52722 6.30848 8.48251 6.30848 7.37249C6.30848 6.26247 6.74137 5.21774 7.52733 4.43179C8.31328 3.64583 9.35801 3.21293 10.468 3.21293C11.5781 3.21293 12.6228 3.64583 13.4087 4.43179C14.1947 5.21774 14.6275 6.26247 14.6275 7.37249C14.6275 8.48251 14.1947 9.52722 13.4087 10.3132C12.6228 11.0992 11.5781 11.532 10.468 11.532Z" fill="url(#paint0_linear_451_2816)" stroke="url(#paint1_linear_451_2816)" stroke-width="0.5"/>
<defs>
<linearGradient id="paint0_linear_451_2816" x1="10.468" y1="20.625" x2="10.468" y2="1.375" gradientUnits="userSpaceOnUse">
<stop stop-color="#FDA700"/>
<stop offset="1" stop-color="#FFDE00"/>
</linearGradient>
<linearGradient id="paint1_linear_451_2816" x1="10.468" y1="20.625" x2="10.468" y2="1.375" gradientUnits="userSpaceOnUse">
<stop stop-color="#FDA700"/>
<stop offset="1" stop-color="#FFDE00"/>
</linearGradient>
</defs>
</svg>
