<svg width="22" height="22" viewBox="0 0 22 22" fill="none" xmlns="http://www.w3.org/2000/svg">
<path d="M10.9163 1.8335C9.70068 1.8335 8.53492 2.31637 7.6754 3.17589C6.81588 4.03541 6.33302 5.20117 6.33301 6.41673C6.33302 7.63227 6.81588 8.79804 7.6754 9.65752C8.53492 10.5171 9.70068 11 10.9163 11C12.1318 11 13.2975 10.5171 14.1571 9.65752C15.0165 8.79804 15.4994 7.63227 15.4995 6.41673C15.4994 5.20117 15.0165 4.03541 14.1571 3.17589C13.2975 2.31637 12.1318 1.8335 10.9163 1.8335ZM10.9163 2.9793C11.8279 2.9793 12.7022 3.34144 13.3468 3.98608C13.9915 4.63072 14.3537 5.50506 14.3537 6.41673C14.3537 7.32839 13.9915 8.20266 13.3468 8.8473C12.7022 9.49197 11.8279 9.85415 10.9163 9.85415C10.0046 9.85415 9.13027 9.49197 8.48563 8.8473C7.84099 8.20266 7.47882 7.32839 7.47881 6.41673C7.47882 5.50506 7.84099 4.63072 8.48563 3.98608C9.13027 3.34144 10.0046 2.9793 10.9163 2.9793Z" fill="url(#paint0_linear_451_2828)" stroke="url(#paint1_linear_451_2828)"/>
<path d="M10.9171 12.146C8.68641 12.1487 6.53316 12.9647 4.86096 14.4411C3.29285 15.8258 2.2487 17.7021 1.89482 19.7554C1.85734 19.973 2.02859 20.1666 2.24928 20.1666H2.67073C2.853 20.1666 3.0067 20.0325 3.03985 19.8533C3.36996 18.0688 4.29648 16.4454 5.67234 15.2525C7.1283 13.9901 8.99013 13.294 10.9171 13.2918C11.1585 13.2938 11.3994 13.3066 11.6394 13.3303C11.8629 13.3524 12.063 13.1812 12.063 12.9566V12.5475C12.063 12.3637 11.927 12.2076 11.7442 12.1896C11.4694 12.1626 11.1934 12.148 10.9171 12.146Z" fill="url(#paint2_linear_451_2828)" stroke="url(#paint3_linear_451_2828)"/>
<path fill-rule="evenodd" clip-rule="evenodd" d="M19.9689 11.4007C20.0128 11.2474 19.8534 11.115 19.7107 11.1864L11.245 15.4192C11.1098 15.4868 11.1098 15.6796 11.245 15.7472L13.1406 16.6951C13.1842 16.7168 13.2172 16.755 13.2326 16.8011L14.2144 19.7466C14.2661 19.9015 14.4792 19.9166 14.5523 19.7705L15.4182 18.0388C15.4635 17.9483 15.5736 17.9115 15.6642 17.9568L17.5943 18.9219C17.6969 18.9732 17.8209 18.9186 17.8525 18.8082L19.9689 11.4007Z" fill="url(#paint4_linear_451_2828)" stroke="url(#paint5_linear_451_2828)"/>
<defs>
<linearGradient id="paint0_linear_451_2828" x1="10.9163" y1="11" x2="10.9163" y2="1.8335" gradientUnits="userSpaceOnUse">
<stop stop-color="#FDA700"/>
<stop offset="1" stop-color="#FFDE00"/>
</linearGradient>
<linearGradient id="paint1_linear_451_2828" x1="10.9163" y1="11" x2="10.9163" y2="1.8335" gradientUnits="userSpaceOnUse">
<stop stop-color="#FDA700"/>
<stop offset="1" stop-color="#FFDE00"/>
</linearGradient>
<linearGradient id="paint2_linear_451_2828" x1="6.94825" y1="20.1666" x2="6.94825" y2="12.146" gradientUnits="userSpaceOnUse">
<stop stop-color="#FDA700"/>
<stop offset="1" stop-color="#FFDE00"/>
</linearGradient>
<linearGradient id="paint3_linear_451_2828" x1="6.94825" y1="20.1666" x2="6.94825" y2="12.146" gradientUnits="userSpaceOnUse">
<stop stop-color="#FDA700"/>
<stop offset="1" stop-color="#FFDE00"/>
</linearGradient>
<linearGradient id="paint4_linear_451_2828" x1="15.5002" y1="20.1664" x2="15.5002" y2="10.9999" gradientUnits="userSpaceOnUse">
<stop stop-color="#FDA700"/>
<stop offset="1" stop-color="#FFDE00"/>
</linearGradient>
<linearGradient id="paint5_linear_451_2828" x1="15.5002" y1="20.1664" x2="15.5002" y2="10.9999" gradientUnits="userSpaceOnUse">
<stop stop-color="#FDA700"/>
<stop offset="1" stop-color="#FFDE00"/>
</linearGradient>
</defs>
</svg>
