<svg width="22" height="22" viewBox="0 0 22 22" fill="none" xmlns="http://www.w3.org/2000/svg">
<path d="M10.9163 1.8335C9.70068 1.8335 8.53492 2.31637 7.6754 3.17589C6.81588 4.03541 6.33302 5.20117 6.33301 6.41673C6.33302 7.63227 6.81588 8.79804 7.6754 9.65752C8.53492 10.5171 9.70068 11 10.9163 11C12.1318 11 13.2975 10.5171 14.1571 9.65752C15.0165 8.79804 15.4994 7.63227 15.4995 6.41673C15.4994 5.20117 15.0165 4.03541 14.1571 3.17589C13.2975 2.31637 12.1318 1.8335 10.9163 1.8335ZM10.9163 2.9793C11.8279 2.9793 12.7022 3.34144 13.3468 3.98608C13.9915 4.63072 14.3537 5.50506 14.3537 6.41673C14.3537 7.32839 13.9915 8.20266 13.3468 8.8473C12.7022 9.49197 11.8279 9.85415 10.9163 9.85415C10.0046 9.85415 9.13027 9.49197 8.48563 8.8473C7.84099 8.20266 7.47882 7.32839 7.47881 6.41673C7.47882 5.50506 7.84099 4.63072 8.48563 3.98608C9.13027 3.34144 10.0046 2.9793 10.9163 2.9793Z" fill="url(#paint0_linear_451_2818)" stroke="url(#paint1_linear_451_2818)"/>
<path d="M10.9169 12.146C8.68619 12.1487 6.53294 12.9647 4.86074 14.4411C3.35265 15.7728 2.32916 17.5592 1.93825 19.5205C1.87033 19.8613 2.14049 20.1666 2.48801 20.1666C2.77504 20.1666 3.01625 19.9552 3.07487 19.6742C3.43243 17.9603 4.34243 16.4054 5.67212 15.2525C7.12809 13.9901 8.98991 13.294 10.9169 13.2918C11.0804 13.2931 11.2435 13.2994 11.4064 13.3107C11.753 13.3348 12.0628 13.0705 12.0628 12.723C12.0628 12.4388 11.8525 12.1965 11.5691 12.1741C11.3522 12.157 11.1346 12.1476 10.9169 12.146Z" fill="url(#paint2_linear_451_2818)" stroke="url(#paint3_linear_451_2818)"/>
<path d="M16.9898 20.1666C19.2047 20.1666 21.0001 18.3712 21.0001 16.1563C21.0001 13.9415 19.2047 12.146 16.9898 12.146C14.775 12.146 12.9795 13.9415 12.9795 16.1563C12.9795 18.3712 14.775 20.1666 16.9898 20.1666Z" fill="url(#paint4_linear_451_2818)" stroke="url(#paint5_linear_451_2818)"/>
<path fill-rule="evenodd" clip-rule="evenodd" d="M18.4494 14.6967C18.5926 14.5536 18.8248 14.5536 18.968 14.6967L19.5952 15.324C19.7384 15.4672 19.7384 15.6993 19.5952 15.8425L16.6764 18.7614C16.5332 18.9046 16.301 18.9046 16.1578 18.7614L14.3847 16.9883C14.2415 16.8451 14.2415 16.6129 14.3847 16.4698L15.012 15.8425C15.1552 15.6993 15.3874 15.6993 15.5306 15.8425L16.1578 16.4698C16.301 16.6129 16.5332 16.6129 16.6764 16.4698L18.4494 14.6967Z" fill="white" stroke="white"/>
<defs>
<linearGradient id="paint0_linear_451_2818" x1="10.9163" y1="11" x2="10.9163" y2="1.8335" gradientUnits="userSpaceOnUse">
<stop stop-color="#02AA93"/>
<stop offset="1" stop-color="#67FF80"/>
</linearGradient>
<linearGradient id="paint1_linear_451_2818" x1="10.9163" y1="11" x2="10.9163" y2="1.8335" gradientUnits="userSpaceOnUse">
<stop stop-color="#02AA93"/>
<stop offset="1" stop-color="#67FF80"/>
</linearGradient>
<linearGradient id="paint2_linear_451_2818" x1="6.94803" y1="20.1666" x2="6.94803" y2="12.146" gradientUnits="userSpaceOnUse">
<stop stop-color="#02AA93"/>
<stop offset="1" stop-color="#67FF80"/>
</linearGradient>
<linearGradient id="paint3_linear_451_2818" x1="6.94803" y1="20.1666" x2="6.94803" y2="12.146" gradientUnits="userSpaceOnUse">
<stop stop-color="#02AA93"/>
<stop offset="1" stop-color="#67FF80"/>
</linearGradient>
<linearGradient id="paint4_linear_451_2818" x1="16.9898" y1="20.1666" x2="16.9898" y2="12.146" gradientUnits="userSpaceOnUse">
<stop stop-color="#02AA93"/>
<stop offset="1" stop-color="#67FF80"/>
</linearGradient>
<linearGradient id="paint5_linear_451_2818" x1="16.9898" y1="20.1666" x2="16.9898" y2="12.146" gradientUnits="userSpaceOnUse">
<stop stop-color="#02AA93"/>
<stop offset="1" stop-color="#67FF80"/>
</linearGradient>
</defs>
</svg>
