<svg width="22" height="22" viewBox="0 0 22 22" fill="none" xmlns="http://www.w3.org/2000/svg">
<g clip-path="url(#clip0_451_2807)">
<path d="M9.73835 21.0832C7.28799 21.0832 5.20517 20.2255 3.48989 18.5103C1.77463 16.795 0.916992 14.7122 0.916992 12.2618C0.916992 11.0366 1.14994 9.88884 1.61584 8.8185C2.08175 7.74817 2.71459 6.81703 3.51439 6.02506C4.31486 5.2331 5.25025 4.60449 6.32058 4.13925C7.3909 3.674 8.53834 3.44105 9.76292 3.4404C9.82617 3.4404 9.85788 3.36387 9.81315 3.31911L9.05227 2.55826C8.95425 2.46024 8.88466 2.35407 8.84349 2.23971C8.80232 2.12536 8.78207 2.00284 8.78273 1.87216C8.78273 1.74147 8.8033 1.61895 8.84447 1.5046C8.88564 1.39025 8.9549 1.28406 9.05227 1.18605C9.23198 1.00636 9.46069 0.916504 9.73835 0.916504C10.0161 0.916504 10.2448 1.00636 10.4245 1.18605L12.9729 3.73445C13.0709 3.83246 13.1402 3.93864 13.1807 4.053C13.2212 4.16734 13.2418 4.28986 13.2424 4.42055C13.2424 4.55124 13.2219 4.67376 13.1807 4.78811C13.1396 4.90246 13.0703 5.00864 12.9729 5.10666L10.4245 7.65506C10.2448 7.83475 10.0161 7.9246 9.73835 7.9246C9.46069 7.9246 9.23198 7.83475 9.05227 7.65506C8.95425 7.55705 8.88499 7.45086 8.84447 7.33651C8.80396 7.22216 8.78338 7.09964 8.78273 6.96895C8.78273 6.83826 8.8033 6.71575 8.84447 6.6014C8.88564 6.48704 8.9549 6.38086 9.05227 6.28284L9.81315 5.52199C9.85788 5.47723 9.82617 5.40071 9.76292 5.40071C7.86791 5.40071 6.24674 6.07048 4.89936 7.41002C3.55197 8.74957 2.87795 10.3668 2.8773 12.2618C2.8773 14.1567 3.54707 15.774 4.88662 17.1135C6.22616 18.4531 7.84341 19.1229 9.73835 19.1229C10.2121 19.1229 10.6738 19.0778 11.1233 18.9876C11.5729 18.8974 12.0098 18.7628 12.4338 18.5838C12.6135 18.5021 12.7975 18.4775 12.9856 18.5103C13.1738 18.5429 13.333 18.6246 13.463 18.7553C13.7407 19.033 13.855 19.3352 13.806 19.662C13.757 19.9887 13.5609 20.2255 13.2179 20.3726C12.6788 20.6013 12.1192 20.777 11.539 20.8998C10.9587 21.0228 10.3585 21.0838 9.73835 21.0832Z" fill="url(#paint0_linear_451_2807)"/>
<path d="M15.252 17.6643C15.3663 17.7055 15.4889 17.7261 15.6196 17.7261C15.7502 17.7268 15.8728 17.7065 15.9871 17.6653C16.1015 17.6242 16.2077 17.5545 16.3057 17.4565L20.8144 12.9478C20.9118 12.8498 20.981 12.7437 21.0222 12.6293C21.0633 12.515 21.084 12.3924 21.084 12.2617C21.0846 12.1311 21.0643 12.0085 21.0232 11.8942C20.982 11.7798 20.9124 11.6736 20.8144 11.5756L16.3057 7.0669C16.2077 6.96954 16.1015 6.90028 15.9871 6.85911C15.8728 6.81794 15.7502 6.79736 15.6196 6.79736C15.4889 6.79801 15.3663 6.81859 15.252 6.85911C15.1377 6.89963 15.0315 6.96889 14.9335 7.0669L10.4248 11.5756C10.3274 11.6736 10.2581 11.7798 10.217 11.8942C10.1758 12.0085 10.1553 12.1311 10.1553 12.2617C10.1559 12.3924 10.1764 12.515 10.217 12.6293C10.2575 12.7437 10.3268 12.8498 10.4248 12.9478L14.9335 17.4565C15.0315 17.5539 15.1377 17.6232 15.252 17.6643Z" fill="url(#paint1_linear_451_2807)"/>
</g>
<defs>
<linearGradient id="paint0_linear_451_2807" x1="3.33575" y1="3.20101" x2="15.2136" y2="11.3165" gradientUnits="userSpaceOnUse">
<stop stop-color="#8F0CFF"/>
<stop offset="0.516064" stop-color="#AA1DFF"/>
<stop offset="1" stop-color="#B826FF"/>
</linearGradient>
<linearGradient id="paint1_linear_451_2807" x1="12.2044" y1="8.03538" x2="19.0988" y2="15.3994" gradientUnits="userSpaceOnUse">
<stop stop-color="#8F0CFF"/>
<stop offset="0.516064" stop-color="#AA1DFF"/>
<stop offset="1" stop-color="#B826FF"/>
</linearGradient>
<clipPath id="clip0_451_2807">
<rect width="22" height="22" fill="white"/>
</clipPath>
</defs>
</svg>
