<svg width="22" height="22" viewBox="0 0 22 22" fill="none" xmlns="http://www.w3.org/2000/svg">
<path d="M15.5843 4.125C16.1661 4.1249 16.7262 4.34613 17.1509 4.74382C17.5757 5.14147 17.8332 5.6858 17.8714 6.26643L17.876 6.41671V14.7069C17.876 14.938 18.0634 15.1254 18.2945 15.1254H19.251C19.6042 15.1255 19.9437 15.2616 20.1993 15.5053C20.4549 15.749 20.6069 16.0817 20.6238 16.4343C20.6408 16.7871 20.5214 17.1328 20.2904 17.3999C20.0594 17.667 19.7345 17.835 19.383 17.8691L19.251 17.8755H18.2945C18.0634 17.8755 17.876 18.0629 17.876 18.294V19.2505C17.8758 19.6036 17.7398 19.9432 17.4961 20.1987C17.2524 20.4543 16.9198 20.6064 16.567 20.6233C16.2143 20.6403 15.8686 20.5209 15.6015 20.2899C15.3344 20.0589 15.1664 19.734 15.1323 19.3825L15.1259 19.2505V7.29355C15.1259 7.06245 14.9386 6.8751 14.7074 6.8751H9.12747C8.89636 6.8751 8.70898 6.68772 8.70898 6.45662V4.54348C8.70898 4.31238 8.89636 4.125 9.12747 4.125H15.5843Z" fill="#FC5185"/>
<path d="M6.47243 1.77774C6.21459 1.51987 5.86482 1.375 5.50014 1.375C5.13545 1.375 4.78572 1.51987 4.52784 1.77774C4.26996 2.03561 4.1251 2.38537 4.1251 2.75003V3.70662C4.1251 3.93772 3.93772 4.1251 3.70662 4.1251H2.75003C2.38537 4.1251 2.03561 4.26996 1.77774 4.52784C1.51987 4.78572 1.375 5.13545 1.375 5.50014C1.375 5.86482 1.51987 6.21459 1.77774 6.47243C2.03561 6.73032 2.38537 6.87517 2.75003 6.87517H3.70662C3.93772 6.87517 4.1251 7.06255 4.1251 7.29365V15.5838C4.1251 16.1916 4.36652 16.7746 4.79634 17.2043C5.22613 17.6341 5.80903 17.8756 6.41682 17.8756H12.8736C13.1047 17.8756 13.2921 17.6882 13.2921 17.4571V15.544C13.2921 15.3128 13.1047 15.1255 12.8736 15.1255H7.29365C7.06255 15.1255 6.87517 14.9381 6.87517 14.707V2.75003C6.87517 2.38537 6.73032 2.03561 6.47243 1.77774Z" fill="#FC5185"/>
</svg>
