<svg width="24" height="25" viewBox="0 0 24 25" fill="none" xmlns="http://www.w3.org/2000/svg">
<path opacity="0.5" d="M2 12.5C2 7.786 2 5.429 3.464 3.964C4.93 2.5 7.286 2.5 12 2.5C16.714 2.5 19.071 2.5 20.535 3.964C22 5.43 22 7.786 22 12.5C22 17.214 22 19.571 20.535 21.035C19.072 22.5 16.714 22.5 12 22.5C7.286 22.5 4.929 22.5 3.464 21.035C2 19.572 2 17.214 2 12.5Z" fill="url(#paint0_linear_343_519)"/>
<path d="M3.465 21.035C4.929 22.5 7.286 22.5 12 22.5C16.715 22.5 19.072 22.5 20.536 21.035C21.8242 19.7468 21.9796 17.7684 21.9981 14.1023C21.9997 13.7706 21.7307 13.5 21.399 13.5H18.84C17.935 13.5 17.482 13.5 17.085 13.683C16.687 13.866 16.392 14.21 15.803 14.897L15.198 15.603C14.608 16.29 14.314 16.634 13.916 16.817C13.518 17 13.066 17 12.161 17H11.84C10.935 17 10.482 17 10.084 16.817C9.687 16.634 9.392 16.29 8.803 15.603L8.197 14.897C7.608 14.21 7.314 13.866 6.916 13.683C6.518 13.5 6.066 13.5 5.16 13.5H2.60104C2.26926 13.5 2.00027 13.7706 2.00194 14.1023C2.02038 17.7684 2.17589 19.7468 3.465 21.035ZM12.53 11.83C12.3894 11.9705 12.1988 12.0493 12 12.0493C11.8012 12.0493 11.6106 11.9705 11.47 11.83L8.17 8.53C8.09631 8.46134 8.03721 8.37854 7.99622 8.28654C7.95523 8.19454 7.93319 8.09523 7.93141 7.99452C7.92963 7.89382 7.94816 7.79379 7.98588 7.7004C8.0236 7.60701 8.07974 7.52218 8.15096 7.45096C8.22218 7.37974 8.30701 7.3236 8.4004 7.28588C8.49379 7.24816 8.59382 7.22963 8.69452 7.23141C8.79523 7.23319 8.89454 7.25523 8.98654 7.29622C9.07854 7.33721 9.16134 7.39631 9.23 7.47L10.2257 8.46574C10.6037 8.84371 11.25 8.57601 11.25 8.04147V3.1C11.25 2.76863 11.5186 2.5 11.85 2.5H12.15C12.4814 2.5 12.75 2.76863 12.75 3.1V8.04147C12.75 8.57602 13.3963 8.84371 13.7743 8.46574L14.77 7.47C14.8387 7.39631 14.9215 7.33721 15.0135 7.29622C15.1055 7.25523 15.2048 7.23319 15.3055 7.23141C15.4062 7.22963 15.5062 7.24816 15.5996 7.28588C15.693 7.3236 15.7778 7.37974 15.849 7.45096C15.9203 7.52218 15.9764 7.60701 16.0141 7.7004C16.0518 7.79379 16.0704 7.89382 16.0686 7.99452C16.0668 8.09523 16.0448 8.19454 16.0038 8.28654C15.9628 8.37854 15.9037 8.46134 15.83 8.53L12.53 11.83Z" fill="url(#paint1_linear_343_519)"/>
<defs>
<linearGradient id="paint0_linear_343_519" x1="12" y1="22.5" x2="12" y2="2.5" gradientUnits="userSpaceOnUse">
<stop stop-color="#5570FF"/>
<stop offset="1" stop-color="#4DD3FF"/>
</linearGradient>
<linearGradient id="paint1_linear_343_519" x1="12" y1="22.5" x2="12" y2="2.5" gradientUnits="userSpaceOnUse">
<stop stop-color="#5570FF"/>
<stop offset="1" stop-color="#4DD3FF"/>
</linearGradient>
</defs>
</svg>
