<svg width="24" height="24" viewBox="0 0 24 24" fill="none" xmlns="http://www.w3.org/2000/svg">
<path d="M11.9999 1.00481C9.08317 1.00481 6.28589 2.16348 4.22344 4.22593C2.16099 6.28838 1.00232 9.08566 1.00232 12.0024C1.00232 14.9191 2.16099 17.7164 4.22344 19.7789C6.28589 21.8413 9.08317 23 11.9999 23C12.4309 22.9959 12.8612 22.9666 13.2887 22.912C10.0045 20.4376 7.87513 16.4509 7.87513 12.0519C7.87513 7.60103 10.0066 3.65097 13.2934 1.13747C12.8653 1.06616 12.4333 1.02026 11.9998 1L11.9999 1.00481Z" fill="url(#paint0_linear_314_96)"/>
<path opacity="0.35" d="M15.1466 1.41765C11.6108 3.61717 9.25049 7.46633 9.25049 12.0028C9.25049 16.4654 11.6113 20.3572 15.1467 22.5333C17.4231 21.8536 19.4181 20.4551 20.8333 18.5469C22.2485 16.6388 23.0078 14.3238 22.9976 11.9481C22.9966 9.58141 22.2321 7.27816 20.8178 5.38056C19.4034 3.48295 17.4146 2.09224 15.1468 1.41504L15.1466 1.41765Z" fill="url(#paint1_linear_314_96)"/>
<defs>
<linearGradient id="paint0_linear_314_96" x1="7.14784" y1="23" x2="7.14784" y2="1" gradientUnits="userSpaceOnUse">
<stop stop-color="#5570FF"/>
<stop offset="1" stop-color="#4DD3FF"/>
</linearGradient>
<linearGradient id="paint1_linear_314_96" x1="16.1241" y1="22.5333" x2="16.1241" y2="1.41504" gradientUnits="userSpaceOnUse">
<stop stop-color="#5570FF"/>
<stop offset="1" stop-color="#4DD3FF"/>
</linearGradient>
</defs>
</svg>
