<svg width="16" height="16" viewBox="0 0 16 16" fill="none" xmlns="http://www.w3.org/2000/svg">
<path d="M2.7373 12.835L2.32871 13.6369L2.32871 13.6369L2.7373 12.835ZM1.3468 11.4445L0.544892 11.8531L0.544892 11.8531L1.3468 11.4445ZM14.6532 11.4445L15.4551 11.8531L15.4551 11.8531L14.6532 11.4445ZM13.2627 12.835L13.6713 13.6369L13.6713 13.6369L13.2627 12.835ZM13.2627 3.3468L13.6713 2.54489L13.6713 2.54489L13.2627 3.3468ZM14.6532 4.7373L15.4551 4.32871L15.4551 4.32871L14.6532 4.7373ZM2.7373 3.3468L2.32871 2.54489L2.32871 2.54489L2.7373 3.3468ZM1.3468 4.7373L0.544892 4.32871L0.544892 4.32871L1.3468 4.7373ZM6 9.1C5.50294 9.1 5.1 9.50294 5.1 10C5.1 10.4971 5.50294 10.9 6 10.9V9.1ZM10 10.9C10.4971 10.9 10.9 10.4971 10.9 10C10.9 9.50294 10.4971 9.1 10 9.1V10.9ZM11 5.28182C10.5029 5.28182 10.1 5.68476 10.1 6.18182C10.1 6.67887 10.5029 7.08182 11 7.08182V5.28182ZM12.5 7.08182C12.9971 7.08182 13.4 6.67887 13.4 6.18182C13.4 5.68476 12.9971 5.28182 12.5 5.28182V7.08182ZM6.09091 3.9H9.90909V2.1H6.09091V3.9ZM9.90909 12.2818H6.09091V14.0818H9.90909V12.2818ZM6.09091 12.2818C5.18507 12.2818 4.55981 12.2811 4.07439 12.2415C3.59947 12.2027 3.33819 12.1311 3.14589 12.0331L2.32871 13.6369C2.81705 13.8857 3.34158 13.9876 3.92781 14.0355C4.50353 14.0825 5.21477 14.0818 6.09091 14.0818V12.2818ZM0.1 8.09091C0.1 8.96705 0.0993001 9.67828 0.146339 10.254C0.194236 10.8402 0.296072 11.3648 0.544892 11.8531L2.1487 11.0359C2.05073 10.8436 1.97916 10.5824 1.94036 10.1074C1.9007 9.62201 1.9 8.99675 1.9 8.09091H0.1ZM3.14589 12.0331C2.71654 11.8143 2.36747 11.4653 2.1487 11.0359L0.544892 11.8531C0.936229 12.6212 1.56067 13.2456 2.32871 13.6369L3.14589 12.0331ZM14.1 8.09091C14.1 8.99675 14.0993 9.62201 14.0596 10.1074C14.0208 10.5823 13.9493 10.8436 13.8513 11.0359L15.4551 11.8531C15.7039 11.3648 15.8058 10.8402 15.8537 10.254C15.9007 9.67828 15.9 8.96705 15.9 8.09091H14.1ZM9.90909 14.0818C10.7852 14.0818 11.4965 14.0825 12.0722 14.0355C12.6584 13.9876 13.183 13.8857 13.6713 13.6369L12.8541 12.0331C12.6618 12.1311 12.4005 12.2027 11.9256 12.2415C11.4402 12.2811 10.8149 12.2818 9.90909 12.2818V14.0818ZM13.8513 11.0359C13.6325 11.4653 13.2835 11.8143 12.8541 12.0331L13.6713 13.6369C14.4393 13.2456 15.0638 12.6212 15.4551 11.8531L13.8513 11.0359ZM9.90909 3.9C10.8149 3.9 11.4402 3.9007 11.9256 3.94036C12.4005 3.97916 12.6618 4.05073 12.8541 4.1487L13.6713 2.54489C13.183 2.29607 12.6584 2.19424 12.0722 2.14634C11.4965 2.0993 10.7852 2.1 9.90909 2.1V3.9ZM15.9 8.09091C15.9 7.21477 15.9007 6.50353 15.8537 5.92781C15.8058 5.34158 15.7039 4.81705 15.4551 4.32871L13.8513 5.14589C13.9493 5.33819 14.0208 5.59947 14.0596 6.07439C14.0993 6.55981 14.1 7.18507 14.1 8.09091H15.9ZM12.8541 4.1487C13.2835 4.36747 13.6325 4.71654 13.8513 5.14589L15.4551 4.32871C15.0638 3.56067 14.4393 2.93623 13.6713 2.54489L12.8541 4.1487ZM6.09091 2.1C5.21477 2.1 4.50353 2.0993 3.92781 2.14634C3.34158 2.19424 2.81705 2.29607 2.32871 2.54489L3.14589 4.1487C3.33819 4.05073 3.59947 3.97916 4.07439 3.94036C4.55981 3.9007 5.18507 3.9 6.09091 3.9V2.1ZM1.9 8.09091C1.9 7.18507 1.9007 6.55981 1.94036 6.07439C1.97916 5.59947 2.05073 5.33819 2.1487 5.14589L0.544892 4.32871C0.296072 4.81705 0.194236 5.34158 0.146339 5.92781C0.0993001 6.50353 0.1 7.21477 0.1 8.09091H1.9ZM2.32871 2.54489C1.56067 2.93623 0.936229 3.56067 0.544892 4.32871L2.1487 5.14589C2.36747 4.71654 2.71654 4.36747 3.14589 4.1487L2.32871 2.54489ZM6 10.9H10V9.1H6V10.9ZM11 7.08182H12.5V5.28182H11V7.08182Z" fill="url(#paint0_linear_536_860)"/>
<path d="M4.18191 9.99996C4.18191 10.3514 3.897 10.6363 3.54554 10.6363C3.19409 10.6363 2.90918 10.3514 2.90918 9.99996C2.90918 9.6485 3.19409 9.36359 3.54554 9.36359C3.897 9.36359 4.18191 9.6485 4.18191 9.99996Z" fill="url(#paint1_linear_536_860)"/>
<path d="M13.091 9.99996C13.091 10.3514 12.8061 10.6363 12.4546 10.6363C12.1032 10.6363 11.8183 10.3514 11.8183 9.99996C11.8183 9.6485 12.1032 9.36359 12.4546 9.36359C12.8061 9.36359 13.091 9.6485 13.091 9.99996Z" fill="url(#paint2_linear_536_860)"/>
<path d="M6.72736 6.18177C6.72736 6.53323 6.44245 6.81814 6.091 6.81814C5.73954 6.81814 5.45463 6.53323 5.45463 6.18177C5.45463 5.83032 5.73954 5.54541 6.091 5.54541C6.44245 5.54541 6.72736 5.83032 6.72736 6.18177Z" fill="url(#paint3_linear_536_860)"/>
<path d="M9.27282 6.18177C9.27282 6.53323 8.98791 6.81814 8.63645 6.81814C8.285 6.81814 8.00009 6.53323 8.00009 6.18177C8.00009 5.83032 8.285 5.54541 8.63645 5.54541C8.98791 5.54541 9.27282 5.83032 9.27282 6.18177Z" fill="url(#paint4_linear_536_860)"/>
<path d="M4.18191 6.18177C4.18191 6.53323 3.897 6.81814 3.54554 6.81814C3.19409 6.81814 2.90918 6.53323 2.90918 6.18177C2.90918 5.83032 3.19409 5.54541 3.54554 5.54541C3.897 5.54541 4.18191 5.83032 4.18191 6.18177Z" fill="url(#paint5_linear_536_860)"/>
<path d="M4.18191 9.99996C4.18191 10.3514 3.897 10.6363 3.54554 10.6363C3.19409 10.6363 2.90918 10.3514 2.90918 9.99996C2.90918 9.6485 3.19409 9.36359 3.54554 9.36359C3.897 9.36359 4.18191 9.6485 4.18191 9.99996Z" stroke="url(#paint6_linear_536_860)" stroke-width="0.4"/>
<path d="M13.091 9.99996C13.091 10.3514 12.8061 10.6363 12.4546 10.6363C12.1032 10.6363 11.8183 10.3514 11.8183 9.99996C11.8183 9.6485 12.1032 9.36359 12.4546 9.36359C12.8061 9.36359 13.091 9.6485 13.091 9.99996Z" stroke="url(#paint7_linear_536_860)" stroke-width="0.4"/>
<path d="M6.72736 6.18177C6.72736 6.53323 6.44245 6.81814 6.091 6.81814C5.73954 6.81814 5.45463 6.53323 5.45463 6.18177C5.45463 5.83032 5.73954 5.54541 6.091 5.54541C6.44245 5.54541 6.72736 5.83032 6.72736 6.18177Z" stroke="url(#paint8_linear_536_860)" stroke-width="0.4"/>
<path d="M9.27282 6.18177C9.27282 6.53323 8.98791 6.81814 8.63645 6.81814C8.285 6.81814 8.00009 6.53323 8.00009 6.18177C8.00009 5.83032 8.285 5.54541 8.63645 5.54541C8.98791 5.54541 9.27282 5.83032 9.27282 6.18177Z" stroke="url(#paint9_linear_536_860)" stroke-width="0.4"/>
<path d="M4.18191 6.18177C4.18191 6.53323 3.897 6.81814 3.54554 6.81814C3.19409 6.81814 2.90918 6.53323 2.90918 6.18177C2.90918 5.83032 3.19409 5.54541 3.54554 5.54541C3.897 5.54541 4.18191 5.83032 4.18191 6.18177Z" stroke="url(#paint10_linear_536_860)" stroke-width="0.4"/>
<defs>
<linearGradient id="paint0_linear_536_860" x1="1.875" y1="13.1873" x2="13.7376" y2="1.70162" gradientUnits="userSpaceOnUse">
<stop stop-color="#2E4AFA"/>
<stop offset="1" stop-color="#8E9EFF"/>
</linearGradient>
<linearGradient id="paint1_linear_536_860" x1="3.54554" y1="10.6391" x2="9.14826" y2="2.74857" gradientUnits="userSpaceOnUse">
<stop stop-color="#2E4AFA"/>
<stop offset="1" stop-color="#8E9EFF"/>
</linearGradient>
<linearGradient id="paint2_linear_536_860" x1="3.54554" y1="10.6391" x2="9.14826" y2="2.74857" gradientUnits="userSpaceOnUse">
<stop stop-color="#2E4AFA"/>
<stop offset="1" stop-color="#8E9EFF"/>
</linearGradient>
<linearGradient id="paint3_linear_536_860" x1="3.54554" y1="10.6391" x2="9.14826" y2="2.74857" gradientUnits="userSpaceOnUse">
<stop stop-color="#2E4AFA"/>
<stop offset="1" stop-color="#8E9EFF"/>
</linearGradient>
<linearGradient id="paint4_linear_536_860" x1="3.54554" y1="10.6391" x2="9.14826" y2="2.74857" gradientUnits="userSpaceOnUse">
<stop stop-color="#2E4AFA"/>
<stop offset="1" stop-color="#8E9EFF"/>
</linearGradient>
<linearGradient id="paint5_linear_536_860" x1="3.54554" y1="10.6391" x2="9.14826" y2="2.74857" gradientUnits="userSpaceOnUse">
<stop stop-color="#2E4AFA"/>
<stop offset="1" stop-color="#8E9EFF"/>
</linearGradient>
<linearGradient id="paint6_linear_536_860" x1="3.54554" y1="10.6391" x2="9.14826" y2="2.74857" gradientUnits="userSpaceOnUse">
<stop stop-color="#2E4AFA"/>
<stop offset="1" stop-color="#8E9EFF"/>
</linearGradient>
<linearGradient id="paint7_linear_536_860" x1="3.54554" y1="10.6391" x2="9.14826" y2="2.74857" gradientUnits="userSpaceOnUse">
<stop stop-color="#2E4AFA"/>
<stop offset="1" stop-color="#8E9EFF"/>
</linearGradient>
<linearGradient id="paint8_linear_536_860" x1="3.54554" y1="10.6391" x2="9.14826" y2="2.74857" gradientUnits="userSpaceOnUse">
<stop stop-color="#2E4AFA"/>
<stop offset="1" stop-color="#8E9EFF"/>
</linearGradient>
<linearGradient id="paint9_linear_536_860" x1="3.54554" y1="10.6391" x2="9.14826" y2="2.74857" gradientUnits="userSpaceOnUse">
<stop stop-color="#2E4AFA"/>
<stop offset="1" stop-color="#8E9EFF"/>
</linearGradient>
<linearGradient id="paint10_linear_536_860" x1="3.54554" y1="10.6391" x2="9.14826" y2="2.74857" gradientUnits="userSpaceOnUse">
<stop stop-color="#2E4AFA"/>
<stop offset="1" stop-color="#8E9EFF"/>
</linearGradient>
</defs>
</svg>
