<svg width="22" height="22" viewBox="0 0 22 22" fill="none" xmlns="http://www.w3.org/2000/svg">
<path d="M9.47413 14.9457L7.79324 16.5346C6.24585 18.0598 3.73921 18.0598 2.19179 16.5346C0.644372 15.0094 0.644438 12.5387 2.19179 11.0134L5.27306 7.97637C5.78423 7.47253 6.40037 7.14129 7.0515 6.96873C7.74472 6.78242 8.47992 6.7893 9.17304 6.98948C9.79621 7.16199 10.3843 7.49326 10.8745 7.97637C11.2185 8.31544 11.4866 8.70207 11.6764 9.11485C11.8177 9.42218 11.6731 9.78762 11.3444 9.86765C10.6959 10.0255 9.98102 9.85628 9.47413 9.35664C8.82298 8.71476 7.82868 8.6182 7.07255 9.05987C6.92553 9.13575 6.79252 9.23925 6.67343 9.35664L3.59215 12.3938C2.82198 13.1529 2.82198 14.3952 3.59215 15.1544C4.36234 15.9135 5.62269 15.9135 6.39287 15.1544C7.24874 14.3036 7.75371 13.804 8.04363 13.5183C8.34988 13.2166 8.61051 13.4545 8.89484 13.7769C9.02526 13.9248 9.13177 14.0466 9.24746 14.1661C9.48626 14.4126 9.71862 14.7048 9.47413 14.9457Z" fill="url(#paint0_linear_451_2795)" stroke="url(#paint1_linear_451_2795)" stroke-width="0.6"/>
<path d="M9.77584 4.45153L11.4567 2.86266C13.0041 1.33748 15.5108 1.33741 17.0581 2.86266C18.6056 4.38788 18.6056 6.85855 17.0581 8.3838L13.9769 11.4209C13.4658 11.9247 12.8496 12.2559 12.1985 12.4285C11.5053 12.6148 10.7701 12.608 10.0769 12.4078C9.45378 12.2353 8.86566 11.904 8.3755 11.4209C8.0315 11.0818 7.76339 10.6952 7.57357 10.2824C7.43224 9.97508 7.57687 9.60963 7.90556 9.52961C8.55412 9.37172 9.26896 9.54099 9.77584 10.0406C10.427 10.6825 11.4213 10.779 12.1774 10.3374C12.3245 10.2615 12.4575 10.158 12.5766 10.0406L15.6578 7.00346C16.428 6.24432 16.428 5.00206 15.6578 4.24292C14.8876 3.48379 13.6273 3.48379 12.8571 4.24292C12.0012 5.09365 11.4963 5.59328 11.2064 5.87892C10.9001 6.18061 10.6395 5.94275 10.3551 5.62031C10.2247 5.47241 10.1182 5.35061 10.0025 5.23115C9.7637 4.9846 9.53136 4.69246 9.77584 4.45153Z" fill="url(#paint2_linear_451_2795)" stroke="url(#paint3_linear_451_2795)" stroke-width="0.6"/>
<path fill-rule="evenodd" clip-rule="evenodd" d="M15.7143 15.1166V13.2812C15.7143 12.7354 16.22 12.293 16.8438 12.293C17.4675 12.293 17.9731 12.7354 17.9731 13.2812V15.1166H19.8086C20.3545 15.1166 20.7969 15.6223 20.7969 16.2461C20.7969 16.8699 20.3545 17.3755 19.8086 17.3755H17.9731V19.211C17.9731 19.7568 17.4675 20.1992 16.8438 20.1992C16.22 20.1992 15.7143 19.7568 15.7143 19.211V17.3755H13.8789C13.3331 17.3755 12.8906 16.8699 12.8906 16.2461C12.8906 15.6223 13.3331 15.1166 13.8789 15.1166H15.7143Z" fill="url(#paint4_linear_451_2795)" stroke="url(#paint5_linear_451_2795)" stroke-width="0.6"/>
<defs>
<linearGradient id="paint0_linear_451_2795" x1="6.45349" y1="17.6784" x2="6.45349" y2="6.83398" gradientUnits="userSpaceOnUse">
<stop stop-color="#5570FF"/>
<stop offset="1" stop-color="#4DD3FF"/>
</linearGradient>
<linearGradient id="paint1_linear_451_2795" x1="6.45349" y1="17.6784" x2="6.45349" y2="6.83398" gradientUnits="userSpaceOnUse">
<stop stop-color="#5570FF"/>
<stop offset="1" stop-color="#4DD3FF"/>
</linearGradient>
<linearGradient id="paint2_linear_451_2795" x1="12.7965" y1="1.71875" x2="12.7965" y2="12.5633" gradientUnits="userSpaceOnUse">
<stop stop-color="#5570FF"/>
<stop offset="1" stop-color="#4DD3FF"/>
</linearGradient>
<linearGradient id="paint3_linear_451_2795" x1="12.7965" y1="1.71875" x2="12.7965" y2="12.5633" gradientUnits="userSpaceOnUse">
<stop stop-color="#5570FF"/>
<stop offset="1" stop-color="#4DD3FF"/>
</linearGradient>
<linearGradient id="paint4_linear_451_2795" x1="16.8437" y1="20.1992" x2="16.8437" y2="12.293" gradientUnits="userSpaceOnUse">
<stop stop-color="#02AA93"/>
<stop offset="1" stop-color="#67FF80"/>
</linearGradient>
<linearGradient id="paint5_linear_451_2795" x1="16.8437" y1="20.1992" x2="16.8437" y2="12.293" gradientUnits="userSpaceOnUse">
<stop stop-color="#02AA93"/>
<stop offset="1" stop-color="#67FF80"/>
</linearGradient>
</defs>
</svg>
