<svg width="16" height="16" viewBox="0 0 16 16" fill="none" xmlns="http://www.w3.org/2000/svg">
<path fill-rule="evenodd" clip-rule="evenodd" d="M11.25 11.25H9.75C9.336 11.25 9 11.586 9 12C9 12.414 9.336 12.75 9.75 12.75H11.25V14.25C11.25 14.664 11.586 15 12 15C12.414 15 12.75 14.664 12.75 14.25V12.75H14.25C14.664 12.75 15 12.414 15 12C15 11.586 14.664 11.25 14.25 11.25H12.75V9.75C12.75 9.336 12.414 9 12 9C11.586 9 11.25 9.336 11.25 9.75V11.25Z" fill="url(#paint0_linear_160_76)"/>
<path d="M1.4 1C1.17909 1 1 1.17909 1 1.4V14.6C1 14.8209 1.17909 15 1.4 15H8.76667C8.98758 15 9.16667 14.8209 9.16667 14.6V14.2333C9.16667 14.0124 8.98758 13.8333 8.76667 13.8333H7.23333C7.01242 13.8333 6.83333 13.6542 6.83333 13.4333V10.7333C6.83333 10.5124 7.01242 10.3333 7.23333 10.3333H8.76667C8.98758 10.3333 9.16667 10.1542 9.16667 9.93333V9.16667H7.23333C7.01242 9.16667 6.83333 8.98758 6.83333 8.76667V6.06667C6.83333 5.84575 7.01242 5.66667 7.23333 5.66667H8.76667C8.98758 5.66667 9.16667 5.84575 9.16667 6.06667V9.16667H9.93333C10.1542 9.16667 10.3333 8.98758 10.3333 8.76667V6.06667C10.3333 5.84575 10.5124 5.66667 10.7333 5.66667H13.4333C13.6542 5.66667 13.8333 5.84575 13.8333 6.06667V8.76667C13.8333 8.98758 14.0124 9.16667 14.2333 9.16667H14.6C14.8209 9.16667 15 8.98758 15 8.76667V1.4C15 1.17909 14.8209 1 14.6 1H1.4ZM2.16667 2.56667C2.16667 2.34575 2.34575 2.16667 2.56667 2.16667H5.26667C5.48758 2.16667 5.66667 2.34575 5.66667 2.56667V4.1C5.66667 4.32091 5.48758 4.5 5.26667 4.5H2.56667C2.34575 4.5 2.16667 4.32091 2.16667 4.1V2.56667ZM6.83333 2.56667C6.83333 2.34575 7.01242 2.16667 7.23333 2.16667H8.76667C8.98758 2.16667 9.16667 2.34575 9.16667 2.56667V4.1C9.16667 4.32091 8.98758 4.5 8.76667 4.5H7.23333C7.01242 4.5 6.83333 4.32091 6.83333 4.1V2.56667ZM10.3333 2.56667C10.3333 2.34575 10.5124 2.16667 10.7333 2.16667H13.4333C13.6542 2.16667 13.8333 2.34575 13.8333 2.56667V4.1C13.8333 4.32091 13.6542 4.5 13.4333 4.5H10.7333C10.5124 4.5 10.3333 4.32091 10.3333 4.1V2.56667ZM2.16667 6.06667C2.16667 5.84575 2.34575 5.66667 2.56667 5.66667H5.26667C5.48758 5.66667 5.66667 5.84575 5.66667 6.06667V8.76667C5.66667 8.98758 5.48758 9.16667 5.26667 9.16667H2.56667C2.34575 9.16667 2.16667 8.98758 2.16667 8.76667V6.06667ZM2.16667 10.7333C2.16667 10.5124 2.34575 10.3333 2.56667 10.3333H5.26667C5.48758 10.3333 5.66667 10.5124 5.66667 10.7333V13.4333C5.66667 13.6542 5.48758 13.8333 5.26667 13.8333H2.56667C2.34575 13.8333 2.16667 13.6542 2.16667 13.4333V10.7333Z" fill="url(#paint1_linear_160_76)"/>
<path d="M2.16669 2.56669C2.16669 2.34577 2.34577 2.16669 2.56669 2.16669H5.26669C5.4876 2.16669 5.66669 2.34577 5.66669 2.56669V4.10002C5.66669 4.32093 5.4876 4.50002 5.26669 4.50002H2.56669C2.34577 4.50002 2.16669 4.32093 2.16669 4.10002V2.56669Z" fill="url(#paint2_linear_160_76)"/>
<defs>
<linearGradient id="paint0_linear_160_76" x1="9.75" y1="14.2502" x2="15.3645" y2="12.9546" gradientUnits="userSpaceOnUse">
<stop stop-color="#62E8AF"/>
<stop offset="1" stop-color="#B3FBDC"/>
</linearGradient>
<linearGradient id="paint1_linear_160_76" x1="2.4" y1="15.0044" x2="7.45636" y2="-0.166609" gradientUnits="userSpaceOnUse">
<stop stop-color="#22B4FA"/>
<stop offset="1" stop-color="#6BD6FE"/>
</linearGradient>
<linearGradient id="paint2_linear_160_76" x1="2.16669" y1="4.50002" x2="6.0023" y2="3.06166" gradientUnits="userSpaceOnUse">
<stop stop-color="#6BD6FE"/>
<stop offset="1" stop-color="white"/>
</linearGradient>
</defs>
</svg>
