<svg width="22" height="22" viewBox="0 0 22 22" fill="none" xmlns="http://www.w3.org/2000/svg">
<path d="M9.39121 1.375C7.61889 1.375 6.18341 2.8105 6.18341 4.58281V8.01952C6.18341 8.77892 5.56779 9.39452 4.80841 9.39452H3.77754C3.33464 9.39452 2.97559 9.75358 2.97559 10.1965C2.97559 10.6394 3.33464 10.9984 3.77754 10.9984H4.80841C5.56779 10.9984 6.18341 11.614 6.18341 12.3734V19.8199C6.18341 20.2628 6.54245 20.6218 6.98536 20.6218C7.42826 20.6218 7.78732 20.2628 7.78732 19.8199V12.3734C7.78732 11.614 8.40292 10.9984 9.16232 10.9984H10.1932C10.6361 10.9984 10.9951 10.6394 10.9951 10.1965C10.9951 9.75358 10.6361 9.39452 10.1932 9.39452H9.1623C8.40292 9.39452 7.78732 8.77892 7.78732 8.01952V4.58281C7.78732 3.69746 8.50586 2.97891 9.39121 2.97891H11.7971C12.24 2.97891 12.599 2.61986 12.599 2.17696C12.599 1.73404 12.24 1.375 11.7971 1.375H10.9951H9.39121Z" fill="url(#paint0_linear_451_2792)" stroke="url(#paint1_linear_451_2792)"/>
<path d="M18.9428 13.9015C18.3611 13.3199 17.4182 13.3199 16.8365 13.9015L16.1078 14.6303C15.8392 14.8988 15.4041 14.8988 15.1355 14.6303L14.4068 13.9015C13.8251 13.3199 12.8821 13.3199 12.3005 13.9015C11.7188 14.4833 11.7188 15.4263 12.3005 16.0079L13.0292 16.7366C13.2977 17.005 13.2977 17.4404 13.0292 17.7089L12.3005 18.4376C11.7189 19.0193 11.7188 19.9622 12.3005 20.5439C12.8821 21.1255 13.8251 21.1255 14.4068 20.5439L15.1355 19.8151C15.4041 19.5467 15.8392 19.5467 16.1078 19.8151L16.8365 20.5439C17.4182 21.1255 18.3611 21.1255 18.9428 20.5439C19.5245 19.9622 19.5245 19.0193 18.9428 18.4376L18.214 17.7089C17.9456 17.4404 17.9456 17.005 18.214 16.7366L18.9428 16.0079C19.5245 15.4263 19.5245 14.4833 18.9428 13.9015Z" fill="url(#paint2_linear_451_2792)"/>
<defs>
<linearGradient id="paint0_linear_451_2792" x1="7.7873" y1="20.6218" x2="7.7873" y2="1.375" gradientUnits="userSpaceOnUse">
<stop stop-color="#A93AFF"/>
<stop offset="1" stop-color="#FF81FF"/>
</linearGradient>
<linearGradient id="paint1_linear_451_2792" x1="7.7873" y1="20.6218" x2="7.7873" y2="1.375" gradientUnits="userSpaceOnUse">
<stop stop-color="#A93AFF"/>
<stop offset="1" stop-color="#FF81FF"/>
</linearGradient>
<linearGradient id="paint2_linear_451_2792" x1="15.6217" y1="20.9802" x2="15.6217" y2="13.4653" gradientUnits="userSpaceOnUse">
<stop stop-color="#A93AFF"/>
<stop offset="1" stop-color="#FF81FF"/>
</linearGradient>
</defs>
</svg>
