<svg width="22" height="22" viewBox="0 0 22 22" fill="none" xmlns="http://www.w3.org/2000/svg">
<g clip-path="url(#clip0_451_2799)">
<path d="M11 0C8.34783 0 5.8043 1.11257 3.92894 3.09295C2.05357 5.07333 1 7.75932 1 10.56C1.00007 11.9468 1.25879 13.3199 1.7614 14.6011C2.26401 15.8823 3.00067 17.0463 3.9293 18.0269C4.85794 19.0074 5.96037 19.7851 7.17365 20.3159C8.38693 20.8465 9.6873 21.1196 11.0005 21.1194C12.3137 21.1194 13.6141 20.8461 14.8273 20.3154C16.0405 19.7846 17.1429 19.0067 18.0715 18.0262C19 17.0455 19.7365 15.8813 20.2389 14.6001C20.7415 13.3189 21 11.9457 21 10.5589C21 4.72779 16.5219 0 11 0ZM11 18.9189C9.9528 18.9316 8.91362 18.7247 7.94264 18.3103C6.97168 17.8959 6.08823 17.2821 5.34346 16.5047C4.5987 15.7272 4.0074 14.8013 3.60386 13.7808C3.20032 12.7603 2.99253 11.6654 2.99253 10.5595C2.99253 9.45353 3.20032 8.3586 3.60386 7.33807C4.0074 6.31757 4.5987 5.39173 5.34346 4.61423C6.08823 3.83672 6.97168 3.22299 7.94264 2.80858C8.91362 2.39418 9.9528 2.18731 11 2.19999C12.0472 2.18731 13.0864 2.39418 14.0574 2.80858C15.0283 3.22299 15.9118 3.83672 16.6565 4.61423C17.4014 5.39173 17.9925 6.31757 18.3962 7.33807C18.7996 8.3586 19.0075 9.45353 19.0075 10.5595C19.0075 11.6654 18.7996 12.7603 18.3962 13.7808C17.9925 14.8013 17.4014 15.7272 16.6565 16.5047C15.9118 17.2821 15.0283 17.8959 14.0574 18.3103C13.0864 18.7247 12.0472 18.9316 11 18.9189ZM8.39687 10.285C9.25937 10.285 9.95833 9.42369 9.95833 8.35999C9.95833 7.29629 9.25833 6.43499 8.39583 6.43499C7.53333 6.43499 6.83333 7.29629 6.83333 8.35999C6.83333 9.42369 7.53333 10.285 8.39687 10.285ZM13.6042 10.285C14.4677 10.285 15.1667 9.42369 15.1667 8.35999C15.1667 7.29629 14.4667 6.43499 13.6042 6.43499C12.7417 6.43499 12.0417 7.29739 12.0417 8.35999C12.0417 9.42259 12.7417 10.285 13.6042 10.285ZM15.5219 12.0296C15.338 11.9317 15.1252 11.9136 14.9289 11.9795C14.7326 12.0452 14.5686 12.1896 14.4719 12.3816C14.4365 12.4542 13.5667 14.1339 11.001 14.1339C8.44792 14.1339 7.57292 12.4696 7.52917 12.3827C7.43551 12.1874 7.27222 12.0394 7.07521 11.9712C6.87819 11.903 6.66361 11.9202 6.47864 12.0192C6.29368 12.1181 6.1535 12.2905 6.08895 12.4985C6.02438 12.7066 6.04072 12.9332 6.13437 13.1285C6.18646 13.2374 7.43437 15.7839 11.001 15.7839C14.5687 15.7839 15.8146 13.2363 15.8656 13.1274C15.9574 12.9336 15.9728 12.7093 15.9083 12.5036C15.8439 12.2978 15.705 12.1274 15.5219 12.0296Z" fill="url(#paint0_linear_451_2799)"/>
</g>
<defs>
<linearGradient id="paint0_linear_451_2799" x1="11" y1="21.1194" x2="11" y2="0" gradientUnits="userSpaceOnUse">
<stop stop-color="#FD5900"/>
<stop offset="1" stop-color="#FFDE00"/>
</linearGradient>
<clipPath id="clip0_451_2799">
<rect width="22" height="22" fill="white"/>
</clipPath>
</defs>
</svg>
