<svg width="16" height="16" viewBox="0 0 16 16" fill="none" xmlns="http://www.w3.org/2000/svg">
<path d="M15 5.20834V11.625C14.9991 12.4756 14.6608 13.2912 14.0593 13.8927C13.4578 14.4941 12.6423 14.8324 11.7916 14.8334H4.20835C3.35772 14.8324 2.5422 14.4941 1.94072 13.8927C1.33924 13.2912 1.00093 12.4756 1 11.625V5.20834C1.00093 4.35772 1.33924 3.5422 1.94072 2.94072C2.5422 2.33925 3.35772 2.00093 4.20835 2H11.7916C12.6423 2.00093 13.4578 2.33925 14.0593 2.94072C14.6608 3.5422 14.9991 4.35772 15 5.20834Z" stroke="url(#paint0_linear_641_119)" stroke-width="1.5"/>
<path d="M11.5021 5.55558C11.3922 5.39111 11.3335 5.19779 11.3335 4.99999C11.3335 4.73478 11.4389 4.48044 11.6264 4.2929C11.814 4.10537 12.0683 4 12.3335 4C12.5313 4 12.7246 4.05864 12.8891 4.16855C13.0535 4.27842 13.1817 4.43459 13.2574 4.61732C13.3331 4.80005 13.3529 5.00113 13.3143 5.19508C13.2757 5.38907 13.1805 5.56725 13.0406 5.70711C12.9008 5.84697 12.7226 5.9422 12.5286 5.98079C12.3347 6.01939 12.1336 5.99958 11.9509 5.92388C11.7681 5.84819 11.612 5.72002 11.5021 5.55558Z" fill="url(#paint1_linear_641_119)"/>
<path d="M9.16852 5.55558C9.05865 5.39111 9 5.19779 9 4.99999C9 4.73478 9.10535 4.48044 9.29288 4.2929C9.48044 4.10537 9.73479 4 10 4C10.1978 4 10.3911 4.05864 10.5556 4.16855C10.72 4.27842 10.8482 4.43459 10.9239 4.61732C10.9996 4.80005 11.0194 5.00113 10.9808 5.19508C10.9422 5.38907 10.8469 5.56725 10.7071 5.70711C10.5672 5.84697 10.3891 5.9422 10.1951 5.98079C10.0011 6.01939 9.80006 5.99958 9.61732 5.92388C9.43459 5.84819 9.2784 5.72002 9.16852 5.55558Z" fill="url(#paint2_linear_641_119)"/>
<path d="M6.76862 5.55558C6.65875 5.39111 6.6001 5.19779 6.6001 4.99999C6.6001 4.73478 6.70545 4.48044 6.89298 4.2929C7.08054 4.10537 7.33489 4 7.6001 4C7.79789 4 7.99122 4.05864 8.15566 4.16855C8.32013 4.27842 8.44829 4.43459 8.52399 4.61732C8.59966 4.80005 8.6195 5.00113 8.58087 5.19508C8.54231 5.38907 8.44705 5.56725 8.30722 5.70711C8.16735 5.84697 7.98918 5.9422 7.79519 5.98079C7.6012 6.01939 7.40016 5.99958 7.21742 5.92388C7.03469 5.84819 6.8785 5.72002 6.76862 5.55558Z" fill="url(#paint3_linear_641_119)"/>
<path d="M3.87885 7.93058C3.69132 8.11814 3.58594 8.37247 3.58594 8.63769C3.58594 8.9029 3.69132 9.15725 3.87885 9.34481C4.06638 9.53234 4.32073 9.63769 4.58594 9.63769H11.9193C12.1845 9.63769 12.4389 9.53234 12.6264 9.34481C12.8139 9.15725 12.9193 8.9029 12.9193 8.63769C12.9193 8.37247 12.8139 8.11814 12.6264 7.93058C12.4389 7.74305 12.1845 7.6377 11.9193 7.6377H4.58594C4.32073 7.6377 4.06638 7.74305 3.87885 7.93058Z" fill="url(#paint4_linear_641_119)"/>
<path d="M11.6667 13H7C6.73479 13 6.48044 12.8946 6.29291 12.7071C6.10538 12.5195 6 12.2652 6 12C6 11.7347 6.10538 11.4804 6.29291 11.2929C6.48044 11.1053 6.73479 11 7 11H11.6667C11.9319 11 12.1862 11.1053 12.3738 11.2929C12.5613 11.4804 12.6667 11.7347 12.6667 12C12.6667 12.2652 12.5613 12.5195 12.3738 12.7071C12.1862 12.8946 11.9319 13 11.6667 13Z" fill="url(#paint5_linear_641_119)"/>
<defs>
<linearGradient id="paint0_linear_641_119" x1="4.5" y1="13.9167" x2="12.8498" y2="3.28972" gradientUnits="userSpaceOnUse">
<stop stop-color="#A056FF"/>
<stop offset="1" stop-color="#C59AFD"/>
</linearGradient>
<linearGradient id="paint1_linear_641_119" x1="9.33354" y1="5.85716" x2="10.1139" y2="3.4294" gradientUnits="userSpaceOnUse">
<stop stop-color="#A056FF"/>
<stop offset="1" stop-color="#C59AFD"/>
</linearGradient>
<linearGradient id="paint2_linear_641_119" x1="10.3333" y1="5.85716" x2="11.1137" y2="3.4294" gradientUnits="userSpaceOnUse">
<stop stop-color="#A056FF"/>
<stop offset="1" stop-color="#C59AFD"/>
</linearGradient>
<linearGradient id="paint3_linear_641_119" x1="7.93344" y1="5.85716" x2="8.7138" y2="3.4294" gradientUnits="userSpaceOnUse">
<stop stop-color="#A056FF"/>
<stop offset="1" stop-color="#C59AFD"/>
</linearGradient>
<linearGradient id="paint4_linear_641_119" x1="5.91927" y1="9.4948" x2="6.3952" y2="6.90365" gradientUnits="userSpaceOnUse">
<stop stop-color="#A056FF"/>
<stop offset="1" stop-color="#C59AFD"/>
</linearGradient>
<linearGradient id="paint5_linear_641_119" x1="7.66668" y1="12.8571" x2="8.31273" y2="10.3447" gradientUnits="userSpaceOnUse">
<stop stop-color="#A056FF"/>
<stop offset="1" stop-color="#C59AFD"/>
</linearGradient>
</defs>
</svg>
