<svg width="22" height="22" viewBox="0 0 22 22" fill="none" xmlns="http://www.w3.org/2000/svg">
<path fill-rule="evenodd" clip-rule="evenodd" d="M3.60938 7.89728C3.60938 7.27347 3.81549 6.82509 4.10929 6.53431C4.40237 6.24429 4.87974 6.01562 5.59958 6.01562H11.2137C11.9284 6.01562 12.4066 6.24367 12.7017 6.5351C12.9972 6.82698 13.2039 7.27574 13.2039 7.89728V10.2335C13.2033 10.2543 13.2033 10.275 13.2039 10.2958V11.7863C13.2033 11.8071 13.2033 11.8278 13.2039 11.8485V14.1934C13.2039 14.8152 12.9974 15.261 12.7034 15.5502C12.4092 15.8396 11.9308 16.0669 11.2137 16.0669H5.58962C4.87393 16.0669 4.39893 15.84 4.10733 15.5519C3.81538 15.2635 3.60938 14.8176 3.60938 14.1934V7.89728ZM15.6075 14.3561C15.5717 15.4746 15.165 16.504 14.3909 17.2655C13.5796 18.0637 12.4614 18.4732 11.2137 18.4732H5.58962C4.34228 18.4732 3.2256 18.0633 2.41626 17.2637C1.60729 16.4646 1.20312 15.3722 1.20312 14.1934V7.89728C1.20312 6.71904 1.60719 5.62506 2.41679 4.82395C3.22711 4.02208 4.34644 3.60938 5.59958 3.60938H11.2137C12.4638 3.60938 13.5822 4.0227 14.3926 4.82316C15.1633 5.58439 15.5696 6.61145 15.6072 7.72623L17.3483 6.30094L17.3498 6.2997C18.7256 5.16921 20.7968 6.15436 20.7968 7.93275V14.1493C20.7968 15.9324 18.7231 16.9093 17.3501 15.7827L17.3491 15.7819L15.6075 14.3561ZM15.6101 11.2485L18.3906 13.5247V8.55735L15.6101 10.8336V11.2485Z" fill="url(#paint0_linear_451_2790)"/>
<defs>
<linearGradient id="paint0_linear_451_2790" x1="4.75447" y1="16.7184" x2="18.1516" y2="1.30949" gradientUnits="userSpaceOnUse">
<stop stop-color="#FE0844"/>
<stop offset="1" stop-color="#FEB302"/>
</linearGradient>
</defs>
</svg>
