<svg width="22" height="22" viewBox="0 0 22 22" fill="none" xmlns="http://www.w3.org/2000/svg">
<path d="M17.3047 10.4531H9.6875V6.27344C9.6875 5.30418 10.4761 4.51562 11.4453 4.51562C12.4146 4.51562 13.2031 5.30418 13.2031 6.27344V8.69531C13.2031 9.01891 13.4655 9.28125 13.7891 9.28125H16.1328C16.4564 9.28125 16.7188 9.01891 16.7188 8.69531V6.27344C16.7188 3.36566 14.3531 1 11.4453 1C8.53754 1 6.17188 3.36566 6.17188 6.27344V10.4531H5.58594C5.26234 10.4531 5 10.7155 5 11.0391V14.5547C5 18.1086 7.89137 21 11.4453 21C14.9993 21 17.8906 18.1086 17.8906 14.5547V11.0391C17.8906 10.7155 17.6283 10.4531 17.3047 10.4531ZM7.34375 6.27344C7.34375 4.01184 9.18371 2.17188 11.4453 2.17188C13.7069 2.17188 15.5469 4.01184 15.5469 6.27344V8.10938H14.375V6.27344C14.375 4.65801 13.0607 3.34375 11.4453 3.34375C9.82988 3.34375 8.51562 4.65801 8.51562 6.27344V10.4531H7.34375V6.27344ZM16.7188 14.5547C16.7188 17.4625 14.3531 19.8281 11.4453 19.8281C8.53754 19.8281 6.17188 17.4625 6.17188 14.5547V11.625H16.7188V14.5547ZM10.8594 16.2117V18.0703C10.8594 18.3939 11.1217 18.6562 11.4453 18.6562C11.7689 18.6562 12.0312 18.3939 12.0312 18.0703V16.2117C12.7132 15.9698 13.2031 15.3186 13.2031 14.5547C13.2031 13.5854 12.4146 12.7969 11.4453 12.7969C10.4761 12.7969 9.6875 13.5854 9.6875 14.5547C9.6875 15.3186 10.1774 15.9698 10.8594 16.2117ZM11.4453 13.9688C11.7684 13.9688 12.0312 14.2316 12.0312 14.5547C12.0312 14.8778 11.7684 15.1406 11.4453 15.1406C11.1222 15.1406 10.8594 14.8778 10.8594 14.5547C10.8594 14.2316 11.1222 13.9688 11.4453 13.9688Z" fill="url(#paint0_linear_451_2786)" stroke="url(#paint1_linear_451_2786)" stroke-width="0.6"/>
<defs>
<linearGradient id="paint0_linear_451_2786" x1="11.4453" y1="21" x2="11.4453" y2="1" gradientUnits="userSpaceOnUse">
<stop stop-color="#5558FF"/>
<stop offset="1" stop-color="#00C0FF"/>
</linearGradient>
<linearGradient id="paint1_linear_451_2786" x1="11.4453" y1="21" x2="11.4453" y2="1" gradientUnits="userSpaceOnUse">
<stop stop-color="#5558FF"/>
<stop offset="1" stop-color="#00C0FF"/>
</linearGradient>
</defs>
</svg>
