<svg width="22" height="22" viewBox="0 0 22 22" fill="none" xmlns="http://www.w3.org/2000/svg">
<path fill-rule="evenodd" clip-rule="evenodd" d="M7.07781 0.71477C6.54296 0.586785 6.13941 0.922168 5.97227 1.29475C5.8088 1.6592 5.81571 2.17622 6.19885 2.51218C6.21277 2.52439 6.22766 2.53545 6.24337 2.54526C6.49357 2.70156 6.5228 3.0982 6.26907 3.2487C5.66301 3.60817 5.08415 4.02726 4.57948 4.54557C2.97665 6.16477 1.94858 8.41965 1.99779 10.7392L1.99807 10.7473C1.99879 10.7636 1.99939 10.7826 2.00005 10.8037C2.00268 10.8881 2.00635 11.0058 2.02375 11.1131C2.04729 11.258 2.10107 11.4334 2.2404 11.5844L2.24111 11.5852C2.48007 11.8426 2.8204 11.9302 3.12333 11.8996C3.42559 11.869 3.73854 11.7165 3.92562 11.43L3.93504 11.4155L3.94298 11.4002C4.02293 11.246 4.04794 11.0895 4.05885 10.9637C4.06413 10.9028 4.0665 10.8425 4.06851 10.7917L4.0687 10.7867C4.07087 10.7318 4.07272 10.6873 4.0765 10.6454L4.07747 10.6348L4.07776 10.6241C4.11121 9.42973 4.48526 8.24633 5.12781 7.2355L5.12896 7.23371C6.12971 5.63742 7.81783 4.47474 9.67642 4.1774L9.68481 4.17595C9.87511 4.14067 10.0548 4.12537 10.2516 4.10861C10.3663 4.09884 10.4868 4.08858 10.6187 4.07358C10.9525 4.03561 11.3177 3.96829 11.6656 3.77917C11.773 3.72075 11.8414 3.60964 11.845 3.48737C11.8466 3.43449 11.8527 3.37723 11.8609 3.30252L11.8614 3.29826C11.8689 3.22942 11.8782 3.14519 11.8808 3.05965C11.8862 2.8859 11.8665 2.66292 11.723 2.45509C11.5799 2.22561 11.3688 2.10771 11.1893 2.03509C11.0987 1.99847 11.0068 1.96976 10.9292 1.94578L10.9156 1.94157C10.8397 1.9181 10.7783 1.89913 10.7218 1.87747L10.7108 1.87326L10.6995 1.8698C10.2428 1.7299 9.77562 1.57205 9.30311 1.41238C8.57106 1.16501 7.82587 0.91323 7.08606 0.716853L7.07781 0.71477ZM18.5782 16.5791C17.7841 17.6698 16.7438 18.5435 15.5814 19.1921C15.5431 19.2135 15.5479 19.2707 15.5888 19.2866C15.7553 19.3514 15.9383 19.4433 16.0971 19.5955L16.1132 19.6109L16.1272 19.6282C16.3159 19.863 16.3358 20.1248 16.3178 20.3324C16.3089 20.4344 16.2902 20.5331 16.2737 20.6154L16.2648 20.6594C16.2512 20.7268 16.2401 20.7816 16.2326 20.8351C16.2152 20.9589 16.132 21.0635 16.0154 21.1084C15.9926 21.1171 15.9677 21.1269 15.9411 21.1374C15.8284 21.1821 15.6848 21.2391 15.5431 21.2737C15.3613 21.3182 15.1437 21.338 14.9139 21.2602C14.1608 21.0677 13.4095 20.8592 12.6621 20.6519C12.3119 20.5548 11.9622 20.4578 11.6139 20.3628C11.2278 20.2623 10.8582 20.1113 10.5123 19.9183C10.4118 19.8621 10.346 19.7594 10.3372 19.6446C10.3043 19.2183 10.3608 18.7427 10.6628 18.3373C10.7275 18.2505 10.8294 18.1993 10.9376 18.199C12.6935 18.1945 14.4599 17.6654 15.7647 16.515L15.7703 16.5101C17.2861 15.2309 18.1404 13.2447 18.1632 11.2558C18.1331 10.7754 18.4254 10.2074 19.0119 10.1106C19.5587 10.0017 20.162 10.3919 20.223 10.9847L20.2238 10.9928L20.2242 11.0008C20.3345 12.9797 19.7207 14.9716 18.5805 16.5759L18.5782 16.5791Z" fill="url(#paint0_linear_451_2779)"/>
<path fill-rule="evenodd" clip-rule="evenodd" d="M13.3865 2.88699C14.6488 1.55074 16.8136 1.29688 18.3848 2.23239C19.1335 2.70718 19.7729 3.38177 20.0843 4.22325C20.5768 5.47842 20.4215 6.97571 19.6553 8.08988C19.0089 9.00893 17.9771 9.63881 16.8629 9.79281C15.7653 9.9585 14.6218 9.62589 13.7485 8.94898C13.4841 8.72801 13.2455 8.47653 13.0269 8.20971C11.8258 6.65955 11.9927 4.26438 13.3865 2.88699Z" fill="url(#paint1_linear_451_2779)" stroke="url(#paint2_linear_451_2779)"/>
<path fill-rule="evenodd" clip-rule="evenodd" d="M2.93438 13.9764C4.19663 12.6401 6.36143 12.3862 7.93262 13.3217C8.68131 13.7965 9.32068 14.4711 9.63212 15.3126C10.1246 16.5677 9.96934 18.065 9.20312 19.1792C8.55673 20.0983 7.52493 20.7281 6.4108 20.8821C5.31313 21.0478 4.16961 20.7152 3.29635 20.0383C3.03194 19.8173 2.79338 19.5659 2.57475 19.299C1.37369 17.7489 1.54055 15.3538 2.93438 13.9764Z" fill="url(#paint3_linear_451_2779)" stroke="url(#paint4_linear_451_2779)"/>
<defs>
<linearGradient id="paint0_linear_451_2779" x1="11.1165" y1="21.3128" x2="11.1165" y2="0.68701" gradientUnits="userSpaceOnUse">
<stop stop-color="#A93AFF"/>
<stop offset="1" stop-color="#FF81FF"/>
</linearGradient>
<linearGradient id="paint1_linear_451_2779" x1="16.2954" y1="9.83489" x2="16.2954" y2="1.67383" gradientUnits="userSpaceOnUse">
<stop stop-color="#A93AFF"/>
<stop offset="1" stop-color="#FF81FF"/>
</linearGradient>
<linearGradient id="paint2_linear_451_2779" x1="16.2954" y1="9.83489" x2="16.2954" y2="1.67383" gradientUnits="userSpaceOnUse">
<stop stop-color="#A93AFF"/>
<stop offset="1" stop-color="#FF81FF"/>
</linearGradient>
<linearGradient id="paint3_linear_451_2779" x1="5.84326" y1="20.9242" x2="5.84326" y2="12.7632" gradientUnits="userSpaceOnUse">
<stop stop-color="#A93AFF"/>
<stop offset="1" stop-color="#FF81FF"/>
</linearGradient>
<linearGradient id="paint4_linear_451_2779" x1="5.84326" y1="20.9242" x2="5.84326" y2="12.7632" gradientUnits="userSpaceOnUse">
<stop stop-color="#A93AFF"/>
<stop offset="1" stop-color="#FF81FF"/>
</linearGradient>
</defs>
</svg>
