<svg width="22" height="22" viewBox="0 0 22 22" fill="none" xmlns="http://www.w3.org/2000/svg">
<path d="M11.8493 17.8346C12.0391 17.8346 12.193 17.6806 12.193 17.4908V11.8695C12.193 11.6796 12.3469 11.5257 12.5368 11.5257H12.5934C12.8996 11.5257 13.053 11.1555 12.8364 10.9389L11.3846 9.48712C11.2504 9.35285 11.0327 9.35285 10.8985 9.48712L9.44666 10.9389C9.23013 11.1555 9.38348 11.5257 9.68973 11.5257H9.74631C9.93616 11.5257 10.0901 11.6796 10.0901 11.8695V17.4908C10.0901 17.6806 10.244 17.8346 10.4338 17.8346H11.8493ZM14.2959 19.5938C14.2959 19.7836 14.142 19.9375 13.9522 19.9375H8.33088C8.14103 19.9375 7.98713 19.7836 7.98713 19.5938V13.9724C7.98713 13.7826 7.83324 13.6287 7.64338 13.6287H4.61113C4.30488 13.6287 4.1515 13.2584 4.36807 13.0419L10.8985 6.51145C11.0327 6.37722 11.2504 6.37722 11.3846 6.51145L17.915 13.0419C18.1316 13.2584 17.9782 13.6287 17.6719 13.6287H14.6397C14.4499 13.6287 14.2959 13.7826 14.2959 13.9724V19.5938ZM18.5018 3.82168C18.5018 4.01153 18.3479 4.16546 18.1581 4.16546H4.125C3.93515 4.16546 3.78125 4.01153 3.78125 3.82171V2.40625C3.78125 2.2164 3.93515 2.0625 4.125 2.0625H18.1581C18.3479 2.0625 18.5018 2.2164 18.5018 2.40625V3.82168Z" fill="url(#paint0_linear_451_2775)"/>
<defs>
<linearGradient id="paint0_linear_451_2775" x1="11.1416" y1="2.0625" x2="11.1416" y2="19.9375" gradientUnits="userSpaceOnUse">
<stop stop-color="#5570FF"/>
<stop offset="1" stop-color="#4DD3FF"/>
</linearGradient>
</defs>
</svg>
