<svg width="22" height="22" viewBox="0 0 22 22" fill="none" xmlns="http://www.w3.org/2000/svg">
<g clip-path="url(#clip0_451_2772)">
<path d="M11 21.2822C16.6954 21.2822 21.3125 16.7104 21.3125 11.0708C21.3125 5.43118 16.6954 0.859375 11 0.859375C5.30456 0.859375 0.6875 5.43118 0.6875 11.0708C0.6875 16.7104 5.30456 21.2822 11 21.2822Z" fill="url(#paint0_linear_451_2772)"/>
<path fill-rule="evenodd" clip-rule="evenodd" d="M12.6486 4.81077L11.1358 6.24075C10.9157 6.4576 11.1248 6.7205 11.3398 6.94243C11.4361 7.04189 11.5254 7.14316 11.6312 7.26318L11.6313 7.26332L11.6571 7.29266C11.913 7.58285 12.1476 7.79692 12.4232 7.52539C12.6841 7.26834 13.1386 6.81868 13.9089 6.05301C14.6021 5.36977 15.7364 5.36977 16.4295 6.05301C17.1227 6.73623 17.1227 7.85426 16.4295 8.5375L13.349 11.5752C13.2419 11.6809 13.1222 11.7741 12.9898 11.8423C12.3093 12.2398 11.4144 12.1529 10.8284 11.5752C10.3722 11.1256 10.1228 11.1157 9.53906 11.2578C9.24323 11.3298 8.94119 11.7447 9.0684 12.0213C9.23922 12.3928 9.25849 12.5123 9.56811 12.8175C10.0092 13.2523 10.5385 13.5504 11.0994 13.7057C11.7232 13.8859 12.3849 13.892 13.0088 13.7243C13.5948 13.5691 14.1493 13.271 14.6094 12.8175L17.6899 9.77979C19.0826 8.40708 19.0826 6.18348 17.6899 4.81077C16.2972 3.43805 14.0412 3.4381 12.6486 4.81077ZM9.35141 17.1156L10.8642 15.6856C11.0843 15.4688 10.8751 15.2059 10.6602 14.9839C10.5639 14.8845 10.4747 14.7833 10.369 14.6634L10.3429 14.6337C10.0869 14.3435 9.85239 14.1294 9.57677 14.401C9.31583 14.658 8.86136 15.1077 8.09108 15.8734C7.39793 16.5566 6.2636 16.5566 5.57045 15.8734C4.87728 15.1901 4.87728 14.0721 5.57045 13.3889L8.84637 10.4542C8.95353 10.3485 9.07326 10.2554 9.20557 10.1871C9.88609 9.78955 10.781 9.87647 11.367 10.4542C11.8232 10.9038 12.221 11.0562 12.8047 10.9141C13.1005 10.842 13.3616 10.4172 13.2344 10.1406C13.0635 9.76914 12.9369 9.51708 12.6273 9.21192C12.1862 8.77711 11.6569 8.47897 11.096 8.3237C10.4722 8.14354 9.81052 8.13736 9.18663 8.30505C8.60061 8.46034 8.04609 8.75846 7.58603 9.21192L4.31011 12.1466C2.91749 13.5193 2.91744 15.7429 4.31011 17.1156C5.70278 18.4883 7.95877 18.4883 9.35141 17.1156Z" fill="url(#paint1_linear_451_2772)" stroke="url(#paint2_linear_451_2772)" stroke-width="0.6"/>
</g>
<defs>
<linearGradient id="paint0_linear_451_2772" x1="11" y1="21.2822" x2="11" y2="0.859375" gradientUnits="userSpaceOnUse">
<stop stop-color="#5570FF"/>
<stop offset="1" stop-color="#4DD3FF"/>
</linearGradient>
<linearGradient id="paint1_linear_451_2772" x1="11" y1="18.145" x2="11" y2="3.78125" gradientUnits="userSpaceOnUse">
<stop stop-color="#ADDCFF"/>
<stop offset="0.5028" stop-color="#EAF6FF"/>
<stop offset="1" stop-color="#EAF6FF"/>
</linearGradient>
<linearGradient id="paint2_linear_451_2772" x1="11" y1="18.145" x2="11" y2="3.78125" gradientUnits="userSpaceOnUse">
<stop stop-color="#ADDCFF"/>
<stop offset="0.5028" stop-color="#EAF6FF"/>
<stop offset="1" stop-color="#EAF6FF"/>
</linearGradient>
<clipPath id="clip0_451_2772">
<rect width="22" height="22" fill="white"/>
</clipPath>
</defs>
</svg>
