<svg width="22" height="22" viewBox="0 0 22 22" fill="none" xmlns="http://www.w3.org/2000/svg">
<path d="M10.9997 1.8335C9.99134 1.8335 9.16634 2.6585 9.16634 3.66683V7.3335C9.16634 8.34602 8.34553 9.16683 7.33301 9.16683H3.66634C2.65801 9.16683 1.83301 9.99183 1.83301 11.0002C1.83301 12.0085 2.65801 12.8335 3.66634 12.8335H7.33301C8.34553 12.8335 9.16634 13.6543 9.16634 14.6668V18.3335C9.16634 19.3418 9.99134 20.1668 10.9997 20.1668C12.008 20.1668 12.833 19.3418 12.833 18.3335V14.6668C12.833 13.6543 13.6538 12.8335 14.6663 12.8335H18.333C19.3413 12.8335 20.1663 12.0085 20.1663 11.0002C20.1663 9.99183 19.3413 9.16683 18.333 9.16683H14.6663C13.6538 9.16683 12.833 8.34602 12.833 7.3335V3.66683C12.833 2.6585 12.008 1.8335 10.9997 1.8335Z" fill="url(#paint0_linear_451_2770)" stroke="url(#paint1_linear_451_2770)"/>
<defs>
<linearGradient id="paint0_linear_451_2770" x1="10.9997" y1="20.1668" x2="10.9997" y2="1.8335" gradientUnits="userSpaceOnUse">
<stop stop-color="#02AA93"/>
<stop offset="1" stop-color="#67FF80"/>
</linearGradient>
<linearGradient id="paint1_linear_451_2770" x1="10.9997" y1="20.1668" x2="10.9997" y2="1.8335" gradientUnits="userSpaceOnUse">
<stop stop-color="#02AA93"/>
<stop offset="1" stop-color="#67FF80"/>
</linearGradient>
</defs>
</svg>
