<svg width="16" height="16" viewBox="0 0 16 16" fill="none" xmlns="http://www.w3.org/2000/svg">
<path fill-rule="evenodd" clip-rule="evenodd" d="M4.70815 10.2549C3.96695 9.28647 3.54487 8.11193 3.5 6.89345C3.50905 4.4591 5.48943 2.49175 7.92393 2.50002C10.359 2.5083 12.3262 4.48897 12.318 6.92397L12.3179 6.92695V6.97817C12.2851 8.56087 11.3904 10.1107 10.1665 11.4031C9.63854 11.9511 9.06381 12.4514 8.44909 12.8984C8.12705 13.1326 7.69193 13.1318 7.37108 12.896C6.36177 12.1541 5.46609 11.267 4.7137 10.2623L4.70815 10.2549ZM7.92989 0.750036C4.5284 0.73848 1.76156 3.48657 1.75001 6.88807L1.75 6.89105V6.909C1.75 6.91903 1.75017 6.92903 1.75052 6.93905C1.805 8.52487 2.35207 10.0543 3.31565 11.3148C4.32607 12.6633 5.56353 13.8254 6.9725 14.7491C7.52095 15.1807 8.29505 15.1811 8.84385 14.7503C9.78407 14.1389 10.6516 13.4223 11.4296 12.6144L11.4344 12.6093C12.8044 11.1636 14.026 9.21076 14.0678 7.00335L14.0679 6.99337V6.9868V6.92847C14.0787 3.52762 11.3309 0.761593 7.92989 0.750036ZM7.0001 7.97513C7.0001 7.52313 7.36655 7.15665 7.81862 7.15665C8.27062 7.15665 8.63709 7.52313 8.63709 7.97513C8.63709 8.4272 8.27062 8.79367 7.81862 8.79367C7.36655 8.79367 7.0001 8.4272 7.0001 7.97513ZM7.81862 5.40665C6.40007 5.40665 5.2501 6.5566 5.2501 7.97513C5.2501 9.39367 6.40007 10.5436 7.81862 10.5436C9.23716 10.5436 10.3871 9.39367 10.3871 7.97513C10.3871 6.5566 9.23716 5.40665 7.81862 5.40665Z" fill="url(#paint0_linear_168_282)"/>
<defs>
<linearGradient id="paint0_linear_168_282" x1="7.90898" y1="15.0731" x2="7.90898" y2="0.75" gradientUnits="userSpaceOnUse">
<stop stop-color="#02AA93"/>
<stop offset="1" stop-color="#67FF80"/>
</linearGradient>
</defs>
</svg>
