<svg width="22" height="22" viewBox="0 0 22 22" fill="none" xmlns="http://www.w3.org/2000/svg">
<path d="M15.2043 2.75C14.3822 2.75795 13.5734 2.95834 12.8426 3.33511C12.112 3.71187 11.4797 4.25455 10.9964 4.91965C10.5132 4.25455 9.88082 3.71187 9.15014 3.33511C8.4194 2.95834 7.61062 2.75795 6.78854 2.75C5.29917 2.80948 3.89395 3.45626 2.88013 4.54893C1.86632 5.6416 1.3264 7.09122 1.37844 8.58089C1.37844 12.2293 5.12464 16.135 8.27131 18.7695C9.0354 19.412 10.0017 19.7642 11 19.7642C11.9983 19.7642 12.9646 19.412 13.7287 18.7695C16.8721 16.135 20.6216 12.2293 20.6216 8.58089C20.6736 7.09005 20.1327 5.63934 19.1173 4.54646C18.1019 3.45359 16.6949 2.80762 15.2043 2.75ZM12.1802 16.9269C11.8487 17.206 11.4293 17.359 10.996 17.359C10.5627 17.359 10.1432 17.206 9.81179 16.9269C5.98063 13.7145 3.78292 10.6728 3.78292 8.58089C3.73182 7.72908 4.01879 6.8915 4.58152 6.24996C5.14426 5.60845 5.93732 5.2148 6.78854 5.15449C7.63977 5.2148 8.4328 5.60845 8.99552 6.24996C9.55831 6.8915 9.84527 7.72908 9.79412 8.58089C9.79412 8.89976 9.92083 9.20556 10.1463 9.43099C10.3718 9.65649 10.6776 9.78312 10.9964 9.78312C11.3153 9.78312 11.621 9.65649 11.8465 9.43099C12.0719 9.20556 12.1987 8.89976 12.1987 8.58089C12.1476 7.72908 12.4345 6.8915 12.9973 6.24996C13.56 5.60845 14.353 5.2148 15.2043 5.15449C16.0555 5.2148 16.8486 5.60845 17.4113 6.24996C17.974 6.8915 18.261 7.72908 18.2099 8.58089C18.2099 10.6728 16.0121 13.7145 12.1802 16.9269Z" fill="url(#paint0_linear_451_2766)"/>
<defs>
<linearGradient id="paint0_linear_451_2766" x1="11" y1="19.7642" x2="11" y2="2.75" gradientUnits="userSpaceOnUse">
<stop stop-color="#FD3A84"/>
<stop offset="1" stop-color="#FFA68D"/>
</linearGradient>
</defs>
</svg>
