<svg width="22" height="22" viewBox="0 0 22 22" fill="none" xmlns="http://www.w3.org/2000/svg">
<path d="M20.625 13.8073V16.2135C20.6238 17.3831 20.1585 18.5044 19.3315 19.3315C18.5044 20.1585 17.3831 20.6238 16.2135 20.625H5.78646C4.61685 20.6238 3.49552 20.1585 2.6685 19.3315C1.84147 18.5044 1.37627 17.3831 1.375 16.2135V8.19271C1.37627 7.0231 1.84147 5.90178 2.6685 5.07475C3.49552 4.2477 4.61685 3.78252 5.78646 3.78125H12.2031C12.5222 3.78125 12.8282 3.90801 13.0539 4.13365C13.2795 4.35927 13.4062 4.66529 13.4062 4.98438C13.4062 5.30346 13.2795 5.60948 13.0539 5.8351C12.8282 6.06074 12.5222 6.1875 12.2031 6.1875H5.78646C5.42267 6.1887 5.06612 6.28913 4.75518 6.47795C4.44424 6.66677 4.19071 6.93686 4.02187 7.25909L9.58112 12.8191C9.9633 13.1836 10.4711 13.3868 10.9992 13.3868C11.5273 13.3868 12.0351 13.1836 12.4173 12.8191C12.6442 12.6 12.9481 12.4787 13.2636 12.4814C13.579 12.4842 13.8808 12.6107 14.1038 12.8338C14.3269 13.0568 14.4535 13.3586 14.4562 13.6741C14.4589 13.9895 14.3377 14.2934 14.1185 14.5203C13.2886 15.3427 12.1675 15.8041 10.9992 15.8041C9.83085 15.8041 8.70978 15.3427 7.8799 14.5203L3.78125 10.4201V16.2135C3.78125 16.7454 3.99252 17.2554 4.36856 17.6315C4.74461 18.0075 5.25465 18.2188 5.78646 18.2188H16.2135C16.7454 18.2188 17.2554 18.0075 17.6315 17.6315C18.0075 17.2554 18.2188 16.7454 18.2188 16.2135V13.8073C18.2188 13.4882 18.3454 13.1822 18.5711 12.9566C18.7968 12.7309 19.1027 12.6042 19.4219 12.6042C19.741 12.6042 20.047 12.7309 20.2727 12.9566C20.4982 13.1822 20.625 13.4882 20.625 13.8073ZM13.2651 7.79166C13.0805 7.79123 12.9 7.84561 12.7464 7.94789C12.5928 8.05018 12.473 8.19576 12.4022 8.3662C12.3314 8.53664 12.3128 8.72425 12.3488 8.90527C12.3847 9.08629 12.4736 9.25256 12.6042 9.383L15.5526 12.3315C15.7276 12.506 15.9647 12.6041 16.2119 12.6041C16.4591 12.6041 16.6962 12.506 16.8713 12.3315L19.8229 9.383C19.9535 9.25256 20.0423 9.08629 20.0783 8.90527C20.1142 8.72425 20.0956 8.53664 20.0248 8.3662C19.9542 8.19576 19.8344 8.05018 19.6807 7.94789C19.5271 7.84561 19.3466 7.79123 19.162 7.79166H17.4166V2.57812C17.4166 2.25904 17.2899 1.95302 17.0643 1.7274C16.8386 1.50176 16.5326 1.375 16.2135 1.375C15.8944 1.375 15.5884 1.50176 15.3628 1.7274C15.1372 1.95302 15.0104 2.25904 15.0104 2.57812V7.79166H13.2651Z" fill="url(#paint0_linear_451_2749)"/>
<defs>
<linearGradient id="paint0_linear_451_2749" x1="8.85156" y1="11.6875" x2="14.9531" y2="6.78906" gradientUnits="userSpaceOnUse">
<stop stop-color="#0072FF"/>
<stop offset="1" stop-color="#00E5A1"/>
</linearGradient>
</defs>
</svg>
