<svg width="22" height="22" viewBox="0 0 22 22" fill="none" xmlns="http://www.w3.org/2000/svg">
<path d="M10.418 5.39979L16.4134 10.2444C16.558 10.3602 16.5827 10.5728 16.4699 10.721L9.36213 19.9824C8.91533 20.5546 8.25686 20.8782 7.5514 20.8902L3.67128 20.938C3.46434 20.9404 3.28326 20.797 3.23623 20.5916L2.35438 16.7575C2.20152 16.0528 2.35438 15.3242 2.80118 14.7628L9.94413 5.45712C10.0594 5.30782 10.2722 5.28154 10.418 5.39979Z" fill="url(#paint0_linear_451_2739)"/>
<path opacity="0.4" d="M19.0977 7.35696L17.9418 8.79983C17.8254 8.9467 17.6161 8.97063 17.4715 8.85356C16.0664 7.7165 12.4685 4.7985 11.4702 3.98989C11.3244 3.87044 11.3045 3.65784 11.422 3.50973L12.5367 2.12541C13.5479 0.823496 15.3115 0.704056 16.7343 1.83875L18.3687 3.14066C19.0389 3.6662 19.4857 4.35896 19.6385 5.08756C19.8149 5.889 19.6267 6.6761 19.0977 7.35696Z" fill="url(#paint1_linear_451_2739)"/>
<defs>
<linearGradient id="paint0_linear_451_2739" x1="9.41873" y1="20.938" x2="9.41873" y2="5.32568" gradientUnits="userSpaceOnUse">
<stop stop-color="#FD5900"/>
<stop offset="1" stop-color="#FFDE00"/>
</linearGradient>
<linearGradient id="paint1_linear_451_2739" x1="15.5243" y1="8.92776" x2="15.5243" y2="1.06201" gradientUnits="userSpaceOnUse">
<stop stop-color="#FD5900"/>
<stop offset="1" stop-color="#FFDE00"/>
</linearGradient>
</defs>
</svg>
