<svg width="22" height="22" viewBox="0 0 22 22" fill="none" xmlns="http://www.w3.org/2000/svg">
<path d="M9.93379 20.625C7.98725 20.6276 6.11732 19.8667 4.72556 18.5058C1.81331 15.4795 1.87019 10.6757 4.85327 7.71917L9.53292 3.0403C11.445 1.07324 14.5147 0.817321 16.7261 2.44064C19.0821 4.24939 19.5257 7.62551 17.7169 9.98144C17.5756 10.1654 17.4226 10.3401 17.2588 10.5044L12.3617 15.4014C11.8106 15.9777 11.0791 16.3483 10.2886 16.4521C9.21698 16.5695 8.15615 16.1528 7.4509 15.3375C6.36969 13.9525 6.48527 11.9799 7.72085 10.7306L11.4541 7.00066C11.9275 6.52739 12.6949 6.52739 13.1683 7.00066C13.6416 7.47407 13.6416 8.24149 13.1683 8.71491L9.32035 12.5637C8.98176 12.9025 8.98194 13.4517 9.32076 13.7902C9.65958 14.1287 10.2087 14.1286 10.5472 13.7898L15.4888 8.84911C16.5032 7.86268 16.6908 6.30166 15.9389 5.10295C15.0511 3.73528 13.2226 3.34631 11.8549 4.23419C11.6837 4.34536 11.5244 4.47398 11.3797 4.61803L6.50285 9.49892C4.65953 11.2888 4.42004 14.1645 5.94196 16.2347C7.63474 18.4394 10.7942 18.8543 12.9989 17.1615C13.1711 17.0293 13.3346 16.886 13.4884 16.7326L17.3372 12.8846C17.8105 12.4113 18.578 12.4113 19.0515 12.8846C19.5247 13.358 19.5247 14.1254 19.0515 14.5988L15.2026 18.4468C13.8061 19.845 11.91 20.629 9.93379 20.625Z" fill="url(#paint0_linear_451_2764)" stroke="url(#paint1_linear_451_2764)" stroke-width="0.6"/>
<defs>
<linearGradient id="paint0_linear_451_2764" x1="3.78015" y1="11" x2="17.4756" y2="9.67696" gradientUnits="userSpaceOnUse">
<stop stop-color="#8D01A2"/>
<stop offset="1" stop-color="#FF00D2"/>
</linearGradient>
<linearGradient id="paint1_linear_451_2764" x1="3.78015" y1="11" x2="17.4756" y2="9.67696" gradientUnits="userSpaceOnUse">
<stop stop-color="#8D01A2"/>
<stop offset="1" stop-color="#FF00D2"/>
</linearGradient>
</defs>
</svg>
