<svg width="22" height="22" viewBox="0 0 22 22" fill="none" xmlns="http://www.w3.org/2000/svg">
<path d="M20.625 11.401V16.2135C20.6238 17.3831 20.1585 18.5044 19.3315 19.3315C18.5044 20.1585 17.3831 20.6238 16.2135 20.625H5.78646C4.61685 20.6238 3.49552 20.1585 2.6685 19.3315C1.84147 18.5044 1.37627 17.3831 1.375 16.2135V8.19271C1.37627 7.0231 1.84147 5.90178 2.6685 5.07475C3.49552 4.2477 4.61685 3.78252 5.78646 3.78125H8.99479C9.31387 3.78125 9.6199 3.90801 9.84553 4.13365C10.0712 4.35927 10.1979 4.66529 10.1979 4.98438C10.1979 5.30346 10.0712 5.60948 9.84553 5.8351C9.6199 6.06074 9.31387 6.1875 8.99479 6.1875H5.78646C5.42267 6.1887 5.06612 6.28913 4.75518 6.47795C4.44424 6.66677 4.19071 6.93686 4.02187 7.25909L9.58112 12.8191C9.9633 13.1836 10.4711 13.3868 10.9992 13.3868C11.5273 13.3868 12.0351 13.1836 12.4173 12.8191L13.399 11.7764C13.5075 11.6615 13.6376 11.5691 13.7818 11.5044C13.926 11.4398 14.0815 11.4042 14.2395 11.3996C14.3975 11.3951 14.5548 11.4217 14.7025 11.4779C14.8502 11.5342 14.9853 11.619 15.1003 11.7275C15.2152 11.836 15.3076 11.966 15.3722 12.1103C15.4369 12.2545 15.4725 12.41 15.4771 12.568C15.4816 12.7259 15.455 12.8833 15.3987 13.0309C15.3425 13.1786 15.2577 13.3138 15.1492 13.4287L14.1426 14.4939C13.733 14.9068 13.2462 15.235 12.7098 15.4597C12.1735 15.6845 11.5981 15.8014 11.0166 15.8038C10.435 15.8062 9.85868 15.694 9.32049 15.4736C8.7823 15.2533 8.29278 14.9291 7.8799 14.5195L3.78125 10.4209V16.2135C3.78125 16.7454 3.99252 17.2554 4.36856 17.6315C4.74461 18.0075 5.25465 18.2188 5.78646 18.2188H16.2135C16.7454 18.2188 17.2554 18.0075 17.6315 17.6315C18.0075 17.2554 18.2188 16.7454 18.2188 16.2135V11.401C18.2188 11.0819 18.3454 10.7759 18.5711 10.5503C18.7968 10.3247 19.1027 10.1979 19.4219 10.1979C19.741 10.1979 20.047 10.3247 20.2727 10.5503C20.4982 10.7759 20.625 11.0819 20.625 11.401ZM13.0052 6.98959H15.0104V8.99479C15.0104 9.31387 15.1372 9.6199 15.3628 9.84553C15.5884 10.0712 15.8944 10.1979 16.2135 10.1979C16.5326 10.1979 16.8386 10.0712 17.0643 9.84553C17.2899 9.6199 17.4166 9.31387 17.4166 8.99479V6.98959H19.4219C19.741 6.98959 20.047 6.86283 20.2727 6.63719C20.4982 6.41157 20.625 6.10555 20.625 5.78646C20.625 5.46738 20.4982 5.16135 20.2727 4.93572C20.047 4.7101 19.741 4.58334 19.4219 4.58334H17.4166V2.57812C17.4166 2.25904 17.2899 1.95302 17.0643 1.7274C16.8386 1.50176 16.5326 1.375 16.2135 1.375C15.8944 1.375 15.5884 1.50176 15.3628 1.7274C15.1372 1.95302 15.0104 2.25904 15.0104 2.57812V4.58334H13.0052C12.6861 4.58334 12.3801 4.7101 12.1545 4.93572C11.9288 5.16135 11.8021 5.46738 11.8021 5.78646C11.8021 6.10555 11.9288 6.41157 12.1545 6.63719C12.3801 6.86283 12.6861 6.98959 13.0052 6.98959Z" fill="url(#paint0_linear_451_2753)"/>
<defs>
<linearGradient id="paint0_linear_451_2753" x1="11" y1="20.625" x2="11" y2="1.375" gradientUnits="userSpaceOnUse">
<stop stop-color="#02AA93"/>
<stop offset="1" stop-color="#67FF80"/>
</linearGradient>
</defs>
</svg>
