<svg width="24" height="24" viewBox="0 0 24 24" fill="none" xmlns="http://www.w3.org/2000/svg">
<path d="M7.80405 17.7594L16.1695 9.75133C16.4072 9.52796 16.5967 9.25824 16.7262 8.95883C16.8558 8.65941 16.9226 8.33663 16.9226 8.0104C16.9226 7.68416 16.8558 7.36139 16.7262 7.06197C16.5967 6.76255 16.4072 6.49284 16.1695 6.26946M2.58972 9.51914L9.37959 3.01978C12.1924 0.326739 16.7526 0.326739 19.5654 3.01978" stroke="url(#paint0_linear_8_717)" stroke-width="2" stroke-linecap="round"/>
<path opacity="0.5" d="M20.1146 2.44406C19.9622 2.29826 19.7581 2.21897 19.5473 2.22365C19.3364 2.22832 19.136 2.31657 18.9902 2.46897C18.8444 2.62138 18.7651 2.82547 18.7698 3.03633C18.7745 3.2472 18.8627 3.44757 19.0152 3.59337L20.1146 2.44406ZM19.0152 12.1942L10.5883 20.2606L11.6877 21.4088L20.1146 13.3424L19.0152 12.1942ZM4.77594 14.7939L13.082 6.84305L11.9825 5.6948L3.67646 13.6446L4.77594 14.7939ZM16.7197 5.6948C16.0794 5.08987 15.2319 4.75285 14.3511 4.75285C13.4702 4.75285 12.6228 5.08987 11.9825 5.6948L13.082 6.84305C13.4262 6.52129 13.8799 6.3423 14.3511 6.3423C14.8223 6.3423 15.276 6.52129 15.6202 6.84305L16.7197 5.6948ZM4.77594 20.2606C4.40163 19.9104 4.10323 19.4872 3.89921 19.017C3.6952 18.5468 3.58993 18.0398 3.58993 17.5272C3.58993 17.0147 3.6952 16.5076 3.89921 16.0375C4.10323 15.5673 4.40163 15.144 4.77594 14.7939L3.67646 13.6446C3.14711 14.1432 2.72532 14.7448 2.43702 15.4124C2.14872 16.08 2 16.7995 2 17.5267C2 18.2539 2.14872 18.9734 2.43702 19.641C2.72532 20.3086 3.14711 20.9102 3.67646 21.4088L4.77594 20.2606ZM10.5883 20.2606C8.98727 21.7926 6.37798 21.7926 4.77594 20.2606L3.67646 21.4088C5.89239 23.5304 9.47181 23.5304 11.6877 21.4088L10.5883 20.2606ZM19.0152 3.59337C21.5004 5.97258 21.5004 9.81494 19.0152 12.1942L20.1146 13.3424C23.254 10.3376 23.254 5.44882 20.1146 2.44406L19.0152 3.59337Z" fill="url(#paint1_linear_8_717)"/>
<defs>
<linearGradient id="paint0_linear_8_717" x1="3.18468" y1="9.37973" x2="18.3912" y2="7.65496" gradientUnits="userSpaceOnUse">
<stop stop-color="#8D01A2"/>
<stop offset="1" stop-color="#FF00D2"/>
</linearGradient>
<linearGradient id="paint1_linear_8_717" x1="2.7174" y1="12.6117" x2="21.0659" y2="10.5875" gradientUnits="userSpaceOnUse">
<stop stop-color="#8D01A2"/>
<stop offset="1" stop-color="#FF00D2"/>
</linearGradient>
</defs>
</svg>
