<svg width="22" height="22" viewBox="0 0 22 22" fill="none" xmlns="http://www.w3.org/2000/svg">
<path d="M19.2663 7.6532L14.0166 2.62414C13.2195 1.82724 12.1394 1.37817 11.0123 1.37502C9.88517 1.37186 8.80258 1.81488 8.001 2.60729L2.73372 7.6532C2.30493 8.06596 1.96364 8.56084 1.7302 9.10833C1.49676 9.6558 1.37596 10.2447 1.375 10.8399V16.2138C1.37627 17.3834 1.84147 18.5047 2.6685 19.3318C3.49552 20.1589 4.61685 20.624 5.78646 20.6253H16.2135C17.3831 20.624 18.5044 20.1589 19.3315 19.3318C20.1585 18.5047 20.6238 17.3834 20.625 16.2138V10.8399C20.624 10.2447 20.5033 9.6558 20.2697 9.10833C20.0363 8.56084 19.695 8.06596 19.2663 7.6532ZM9.68459 4.32695C9.85925 4.15384 10.0664 4.01691 10.2941 3.92403C10.5218 3.83113 10.7656 3.78412 11.0115 3.78568C11.2574 3.78725 11.5006 3.83737 11.7271 3.93314C11.9536 4.0289 12.159 4.16847 12.3315 4.3438L16.6483 8.47935L12.4165 12.8194C12.0345 13.1842 11.5266 13.3878 10.9984 13.3878C10.4702 13.3878 9.9623 13.1842 9.58031 12.8194L5.29478 8.53229L9.68459 4.32695ZM18.2188 16.2138C18.2188 16.7456 18.0075 17.2557 17.6315 17.6318C17.2554 18.0079 16.7454 18.2191 16.2135 18.2191H5.78646C5.25465 18.2191 4.74461 18.0079 4.36856 17.6318C3.99252 17.2557 3.78125 16.7456 3.78125 16.2138V10.8399C3.78182 10.7124 3.79498 10.5854 3.82056 10.4605L7.88069 14.5214C8.71229 15.3458 9.83641 15.8075 11.0074 15.8055C12.1783 15.8035 13.3009 15.3381 14.1297 14.511L18.1595 10.3795C18.1973 10.5301 18.2172 10.6846 18.2188 10.8399V16.2138Z" fill="url(#paint0_linear_451_2751)"/>
<defs>
<linearGradient id="paint0_linear_451_2751" x1="11" y1="20.6253" x2="11" y2="1.375" gradientUnits="userSpaceOnUse">
<stop stop-color="#FDA700"/>
<stop offset="1" stop-color="#FFDE00"/>
</linearGradient>
</defs>
</svg>
