<svg width="22" height="22" viewBox="0 0 22 22" fill="none" xmlns="http://www.w3.org/2000/svg">
<path d="M20.625 13.8073V16.2135C20.6238 17.3831 20.1585 18.5044 19.3315 19.3315C18.5044 20.1585 17.3831 20.6238 16.2135 20.625H5.78646C4.61685 20.6238 3.49552 20.1585 2.6685 19.3315C1.84147 18.5044 1.37627 17.3831 1.375 16.2135V8.19271C1.37627 7.0231 1.84147 5.90178 2.6685 5.07475C3.49552 4.2477 4.61685 3.78252 5.78646 3.78125H7.39062C7.70971 3.78125 8.01573 3.90801 8.24135 4.13365C8.46699 4.35927 8.59375 4.66529 8.59375 4.98438C8.59375 5.30346 8.46699 5.60948 8.24135 5.8351C8.01573 6.06074 7.70971 6.1875 7.39062 6.1875H5.78646C5.42267 6.1887 5.06612 6.28913 4.75518 6.47795C4.44424 6.66677 4.19071 6.93686 4.02187 7.25909L9.58112 12.8191C9.89227 13.1213 10.2914 13.3167 10.7209 13.3773C11.1503 13.4378 11.5879 13.3603 11.9705 13.156C12.2496 13.0012 12.5788 12.9637 12.8855 13.0516C13.1923 13.1395 13.4516 13.3457 13.6064 13.6248C13.7611 13.9039 13.7987 14.2331 13.7108 14.5398C13.6228 14.8466 13.4166 15.1059 13.1376 15.2607C12.2989 15.7219 11.3334 15.8992 10.3856 15.7659C9.43788 15.6325 8.55876 15.1958 7.8799 14.5212L3.78125 10.4209V16.2135C3.78125 16.7454 3.99252 17.2554 4.36856 17.6315C4.74461 18.0075 5.25465 18.2188 5.78646 18.2188H16.2135C16.7454 18.2188 17.2554 18.0075 17.6315 17.6315C18.0075 17.2554 18.2188 16.7454 18.2188 16.2135V13.8073C18.2188 13.4882 18.3456 13.1822 18.5711 12.9566C18.7968 12.7309 19.1027 12.6042 19.4219 12.6042C19.741 12.6042 20.047 12.7309 20.2727 12.9566C20.4982 13.1822 20.625 13.4882 20.625 13.8073Z" fill="url(#paint0_linear_451_2761)"/>
<path d="M11.8555 2.26524C11.542 2.13089 11.2312 2.46044 11.3838 2.7655L13.0517 6.10129C13.1032 6.20438 13.1032 6.32569 13.0517 6.42878L11.3838 9.76453C11.2312 10.0696 11.542 10.3992 11.8555 10.2648L20.4031 6.60155C20.6989 6.47475 20.6989 6.05531 20.4031 5.9285L11.8555 2.26524ZM12.9326 4.22708C12.7801 3.92201 13.0908 3.59248 13.4043 3.72682L18.5424 5.9285C18.8382 6.05529 18.8382 6.47477 18.5424 6.60156L13.4043 8.80323C13.0908 8.9376 12.7801 8.60801 12.9326 8.30295L13.8697 6.42878C13.9213 6.32569 13.9213 6.20438 13.8697 6.10129L12.9326 4.22708Z" fill="url(#paint1_linear_451_2761)" stroke="url(#paint2_linear_451_2761)" stroke-width="1.2"/>
<defs>
<linearGradient id="paint0_linear_451_2761" x1="8.85156" y1="12.8047" x2="14.2995" y2="7.80617" gradientUnits="userSpaceOnUse">
<stop stop-color="#0072FF"/>
<stop offset="1" stop-color="#00E5A1"/>
</linearGradient>
<linearGradient id="paint1_linear_451_2761" x1="15.9844" y1="10.2957" x2="15.9844" y2="2.23437" gradientUnits="userSpaceOnUse">
<stop stop-color="#02AA93"/>
<stop offset="1" stop-color="#67FF80"/>
</linearGradient>
<linearGradient id="paint2_linear_451_2761" x1="15.9844" y1="10.2957" x2="15.9844" y2="2.23437" gradientUnits="userSpaceOnUse">
<stop stop-color="#02AA93"/>
<stop offset="1" stop-color="#67FF80"/>
</linearGradient>
</defs>
</svg>
