<svg width="22" height="22" viewBox="0 0 22 22" fill="none" xmlns="http://www.w3.org/2000/svg">
<path d="M20.625 13.8073V16.2135C20.6238 17.3831 20.1585 18.5044 19.3315 19.3315C18.5044 20.1585 17.3831 20.6238 16.2135 20.625H5.78646C4.61685 20.6238 3.49552 20.1585 2.6685 19.3315C1.84147 18.5044 1.37627 17.3831 1.375 16.2135V8.19271C1.37627 7.0231 1.84147 5.90178 2.6685 5.07475C3.49552 4.2477 4.61685 3.78252 5.78646 3.78125H7.39062C7.70971 3.78125 8.01573 3.90801 8.24135 4.13365C8.46699 4.35927 8.59375 4.66529 8.59375 4.98438C8.59375 5.30346 8.46699 5.60948 8.24135 5.8351C8.01573 6.06074 7.70971 6.1875 7.39062 6.1875H5.78646C5.42267 6.1887 5.06612 6.28913 4.75518 6.47795C4.44424 6.66677 4.19071 6.93686 4.02187 7.25909L9.58112 12.8191C9.89228 13.1213 10.2914 13.3167 10.7209 13.3773C11.1503 13.4378 11.5879 13.3603 11.9705 13.156C12.2496 13.0012 12.5788 12.9637 12.8855 13.0516C13.1923 13.1395 13.4516 13.3457 13.6064 13.6248C13.7611 13.9039 13.7987 14.2331 13.7108 14.5398C13.6228 14.8466 13.4166 15.1059 13.1376 15.2607C12.2989 15.7219 11.3334 15.8992 10.3856 15.7659C9.43788 15.6325 8.55876 15.1958 7.8799 14.5212L3.78125 10.4209V16.2135C3.78125 16.7454 3.99252 17.2554 4.36856 17.6315C4.74461 18.0075 5.25465 18.2188 5.78646 18.2188H16.2135C16.7454 18.2188 17.2554 18.0075 17.6315 17.6315C18.0075 17.2554 18.2188 16.7454 18.2188 16.2135V13.8073C18.2188 13.4882 18.3454 13.1822 18.5711 12.9566C18.7968 12.7309 19.1027 12.6042 19.4219 12.6042C19.741 12.6042 20.047 12.7309 20.2727 12.9566C20.4982 13.1822 20.625 13.4882 20.625 13.8073ZM10.1979 6.58854C10.1996 5.20635 10.7494 3.88125 11.7268 2.90388C12.7042 1.92653 14.0293 1.3767 15.4115 1.375C22.3094 1.61963 22.3094 11.5615 15.4115 11.8021C14.0293 11.8004 12.7042 11.2506 11.7268 10.2732C10.7494 9.29584 10.1996 7.97074 10.1979 6.58854ZM18.2188 6.58854C18.2155 6.26979 18.1574 5.95397 18.047 5.65491L14.4778 9.22419C14.9003 9.37315 15.3522 9.41889 15.7959 9.35755C16.2396 9.29622 16.6622 9.12959 17.0284 8.87162C17.3944 8.61364 17.6937 8.27178 17.9008 7.87459C18.1079 7.47742 18.2169 7.03646 18.2188 6.58854ZM12.6042 6.58854C12.6074 6.9073 12.6655 7.22312 12.7758 7.52216L16.3451 3.9529C15.9227 3.80392 15.4707 3.7582 15.027 3.81953C14.5833 3.88087 14.1607 4.04748 13.7946 4.30547C13.4284 4.56345 13.1293 4.90531 12.9222 5.30248C12.7151 5.69967 12.6061 6.14063 12.6042 6.58854Z" fill="url(#paint0_linear_451_2735)"/>
<defs>
<linearGradient id="paint0_linear_451_2735" x1="17.7891" y1="6.44531" x2="3.95966" y2="17.6127" gradientUnits="userSpaceOnUse">
<stop stop-color="#F50259"/>
<stop offset="1" stop-color="#FFBB37"/>
</linearGradient>
</defs>
</svg>
