<svg width="22" height="22" viewBox="0 0 22 22" fill="none" xmlns="http://www.w3.org/2000/svg">
<path d="M19.55 3H2.45C2.19813 3.00029 1.95667 3.10048 1.77857 3.27857C1.60048 3.45667 1.50029 3.69813 1.5 3.95V18.5167C1.50029 18.7685 1.60048 19.01 1.77857 19.1881C1.95667 19.3662 2.19813 19.4664 2.45 19.4667H5.53333C5.75425 19.4667 5.93333 19.2876 5.93333 19.0667V17.1383C5.9334 16.9972 5.97118 16.8586 6.04274 16.737C6.11431 16.6154 6.21707 16.515 6.34041 16.4465L9.67336 14.594C9.84936 14.4961 9.92521 14.2827 9.85043 14.0958L8.81194 11.4996C8.79304 11.4523 8.78333 11.4019 8.78333 11.351V9.01667C8.78333 8.42877 9.01688 7.86495 9.4326 7.44926C9.84828 7.03354 10.4121 6.8 11 6.8C11.5879 6.8 12.1517 7.03354 12.5674 7.44926C12.9831 7.86495 13.2167 8.42877 13.2167 9.01667V11.351C13.2167 11.4019 13.207 11.4523 13.1881 11.4996L12.1496 14.0957C12.0748 14.2826 12.1506 14.496 12.3266 14.5939L15.6596 16.4465C15.7829 16.515 15.8857 16.6154 15.9573 16.737C16.0288 16.8586 16.0666 16.9972 16.0667 17.1383V19.0667C16.0667 19.2876 16.2458 19.4667 16.4667 19.4667H19.55C19.8019 19.4664 20.0433 19.3662 20.2214 19.1881C20.3995 19.01 20.4997 18.7685 20.5 18.5167V3.95C20.4997 3.69813 20.3995 3.45667 20.2214 3.27857C20.0433 3.10048 19.8019 3.00029 19.55 3ZM19.2333 17.8C19.2333 18.0209 19.0542 18.2 18.8333 18.2H17.7333C17.5124 18.2 17.3333 18.0209 17.3333 17.8V17.1383C17.3332 16.7713 17.235 16.411 17.049 16.0947C16.8629 15.7784 16.5957 15.5176 16.2749 15.3392L13.917 14.0288C13.741 13.931 13.6652 13.7176 13.74 13.5306L14.4547 11.7435C14.4736 11.6962 14.4833 11.6458 14.4833 11.5949V9.01667C14.4833 8.09282 14.1163 7.20682 13.4631 6.55357C12.8098 5.90032 11.9238 5.53333 11 5.53333C10.0762 5.53333 9.19015 5.90032 8.5369 6.55357C7.88365 7.20682 7.51667 8.09282 7.51667 9.01667V11.5949C7.51667 11.6458 7.52637 11.6962 7.54527 11.7435L8.26005 13.5307C8.33483 13.7176 8.25898 13.931 8.08298 14.0288L5.72503 15.3394C5.40437 15.5178 5.13717 15.7786 4.9511 16.0948C4.76502 16.4111 4.66682 16.7714 4.66667 17.1383V17.8C4.66667 18.0209 4.48758 18.2 4.26667 18.2H3.16667C2.94575 18.2 2.76667 18.0209 2.76667 17.8V4.66667C2.76667 4.44575 2.94575 4.26667 3.16667 4.26667H18.8333C19.0542 4.26667 19.2333 4.44575 19.2333 4.66667V17.8Z" fill="url(#paint0_linear_451_2759)" stroke="url(#paint1_linear_451_2759)"/>
<defs>
<linearGradient id="paint0_linear_451_2759" x1="11" y1="19.4667" x2="11" y2="3" gradientUnits="userSpaceOnUse">
<stop stop-color="#A93AFF"/>
<stop offset="1" stop-color="#FF81FF"/>
</linearGradient>
<linearGradient id="paint1_linear_451_2759" x1="11" y1="19.4667" x2="11" y2="3" gradientUnits="userSpaceOnUse">
<stop stop-color="#A93AFF"/>
<stop offset="1" stop-color="#FF81FF"/>
</linearGradient>
</defs>
</svg>
