<svg width="22" height="22" viewBox="0 0 22 22" fill="none" xmlns="http://www.w3.org/2000/svg">
<path d="M20.625 14.6094V16.2135C20.6238 17.3831 20.1585 18.5044 19.3315 19.3315C18.5044 20.1585 17.3831 20.6238 16.2135 20.625H5.78646C4.61685 20.6238 3.49552 20.1585 2.6685 19.3315C1.84147 18.5044 1.37627 17.3831 1.375 16.2135V8.19271C1.37627 7.0231 1.84147 5.90178 2.6685 5.07475C3.49552 4.2477 4.61685 3.78252 5.78646 3.78125H10.599C10.918 3.78125 11.2241 3.90801 11.4497 4.13365C11.6753 4.35927 11.8021 4.66529 11.8021 4.98438C11.8021 5.30346 11.6753 5.60948 11.4497 5.8351C11.2241 6.06074 10.918 6.1875 10.599 6.1875H5.78646C5.42267 6.1887 5.06612 6.28913 4.75518 6.47795C4.44424 6.66677 4.19071 6.93686 4.02187 7.25909L9.58112 12.8191C9.89673 13.125 10.3023 13.3214 10.7381 13.3791C11.1738 13.4369 11.6166 13.3531 12.001 13.14C12.1379 13.061 12.2891 13.0097 12.4458 12.9891C12.6026 12.9685 12.7618 12.979 12.9145 13.02C13.0672 13.061 13.2103 13.1316 13.3357 13.2279C13.4611 13.3241 13.5663 13.4442 13.6453 13.5811C13.7243 13.718 13.7755 13.8692 13.7961 14.0259C13.8167 14.1827 13.8062 14.3419 13.7652 14.4946C13.7243 14.6473 13.6536 14.7904 13.5574 14.9158C13.4611 15.0412 13.3411 15.1464 13.2041 15.2254C12.3622 15.708 11.385 15.9009 10.4228 15.7742C9.46064 15.6476 8.56666 15.2084 7.87829 14.5243L3.78125 10.4209V16.2135C3.78125 16.7454 3.99252 17.2554 4.36856 17.6315C4.74461 18.0075 5.25465 18.2188 5.78646 18.2188H16.2135C16.7454 18.2188 17.2554 18.0075 17.6315 17.6315C18.0075 17.2554 18.2188 16.7454 18.2188 16.2135V14.6094C18.2188 14.2903 18.3454 13.9843 18.5711 13.7586C18.7968 13.533 19.1027 13.4062 19.4219 13.4062C19.741 13.4062 20.047 13.533 20.2727 13.7586C20.4982 13.9843 20.625 14.2903 20.625 14.6094ZM19.0209 1.375H15.0104C14.585 1.375 14.1769 1.54401 13.8761 1.84485C13.5753 2.14569 13.4062 2.55372 13.4062 2.97916V10.7225C13.4063 10.9264 13.4639 11.1261 13.5725 11.2987C13.6811 11.4713 13.8362 11.6097 14.02 11.6981C14.2038 11.7864 14.4088 11.821 14.6114 11.798C14.814 11.775 15.006 11.6952 15.1652 11.5679L17.0156 10.088L18.866 11.5679C19.0254 11.6952 19.2173 11.775 19.4198 11.798C19.6225 11.821 19.8275 11.7864 20.0112 11.6981C20.195 11.6097 20.3502 11.4713 20.4588 11.2987C20.5672 11.1261 20.625 10.9264 20.625 10.7225V2.97916C20.625 2.55372 20.456 2.14569 20.1551 1.84485C19.8543 1.54401 19.4463 1.375 19.0209 1.375Z" fill="url(#paint0_linear_451_2737)"/>
<defs>
<linearGradient id="paint0_linear_451_2737" x1="1.09676" y1="1.56442" x2="20.9419" y2="22.0167" gradientUnits="userSpaceOnUse">
<stop stop-color="#F9D423"/>
<stop offset="0.515624" stop-color="#FF4E50"/>
<stop offset="0.991304" stop-color="#8A2387"/>
</linearGradient>
</defs>
</svg>
