<svg width="22" height="22" viewBox="0 0 22 22" fill="none" xmlns="http://www.w3.org/2000/svg">
<path d="M16.2135 2.23438H5.78646C4.61685 2.23565 3.49552 2.70084 2.6685 3.52787C1.84147 4.3549 1.37627 5.47623 1.375 6.64584V15.4688C1.37627 16.6383 1.84147 17.7597 2.6685 18.5867C3.49552 19.4138 4.61685 19.8789 5.78646 19.8803H16.2135C17.3831 19.8789 18.5044 19.4138 19.3315 18.5867C20.1585 17.7597 20.6238 16.6383 20.625 15.4688V6.64584C20.6238 5.47623 20.1585 4.3549 19.3315 3.52787C18.5044 2.70084 17.3831 2.23565 16.2135 2.23438ZM16.2135 4.64062C16.7 4.64224 17.1689 4.82233 17.5314 5.14675L12.3178 10.3603C11.9637 10.6985 11.4929 10.8872 11.0032 10.8872C10.5135 10.8872 10.0427 10.6985 9.68859 10.3603L4.47506 5.14675C4.83587 4.82379 5.30224 4.6438 5.78646 4.64062H16.2135ZM16.2135 17.474H5.78646C5.25465 17.474 4.74461 17.2628 4.36856 16.8867C3.99252 16.5106 3.78125 16.0006 3.78125 15.4688V7.86259L7.98337 12.0647C8.3794 12.4609 8.84962 12.7752 9.36715 12.9896C9.88469 13.2041 10.4394 13.3145 10.9996 13.3145C11.5598 13.3145 12.1145 13.2041 12.632 12.9896C13.1496 12.7752 13.6198 12.4609 14.0158 12.0647L18.2188 7.86259V15.4688C18.2188 16.0006 18.0075 16.5106 17.6315 16.8867C17.2554 17.2628 16.7454 17.474 16.2135 17.474Z" fill="url(#paint0_linear_451_2733)"/>
<defs>
<linearGradient id="paint0_linear_451_2733" x1="1.09675" y1="2.408" x2="19.1721" y2="22.73" gradientUnits="userSpaceOnUse">
<stop stop-color="#F9D423"/>
<stop offset="0.515624" stop-color="#FF4E50"/>
<stop offset="0.991304" stop-color="#8A2387"/>
</linearGradient>
</defs>
</svg>
