<svg width="16" height="16" viewBox="0 0 16 16" fill="none" xmlns="http://www.w3.org/2000/svg">
<path d="M11.7916 1.625H4.20833C3.35771 1.62592 2.5422 1.96424 1.94073 2.56572C1.33925 3.1672 1.00092 3.98271 1 4.83333V11.25C1.00092 12.1006 1.33925 12.9161 1.94073 13.5176C2.5422 14.1191 3.35771 14.4574 4.20833 14.4584H11.7916C12.6423 14.4574 13.4577 14.1191 14.0593 13.5176C14.6607 12.9161 14.9991 12.1006 15 11.25V4.83333C14.9991 3.98271 14.6607 3.1672 14.0593 2.56572C13.4577 1.96424 12.6423 1.62592 11.7916 1.625ZM11.7916 3.37499C12.0031 3.3757 12.21 3.42277 12.3986 3.51091C12.6066 3.60816 12.6135 3.87968 12.4512 4.04204L8.9584 7.53476C8.70087 7.78072 8.35847 7.91796 8.00233 7.91796C7.64618 7.91796 7.30378 7.78072 7.04625 7.53476L3.55352 4.04202C3.39117 3.87967 3.3981 3.60816 3.60609 3.51091C3.79323 3.42341 3.99848 3.37637 4.20833 3.37499H11.7916ZM11.7916 12.7084H4.20833C3.82156 12.7084 3.45063 12.5548 3.17713 12.2812C2.90365 12.0077 2.75 11.6368 2.75 11.25V6.68393C2.75 6.32757 3.18086 6.1491 3.43284 6.40108L5.80609 8.77432C6.09411 9.06247 6.43609 9.29105 6.81247 9.44698C7.18887 9.60298 7.59229 9.68327 7.99971 9.68327C8.40713 9.68327 8.81055 9.60298 9.18691 9.44698C9.56335 9.29105 9.90531 9.06247 10.1933 8.77432L12.5672 6.40091C12.8192 6.14897 13.25 6.32744 13.25 6.68378V11.25C13.25 11.6368 13.0964 12.0077 12.8229 12.2812C12.5494 12.5548 12.1785 12.7084 11.7916 12.7084Z" fill="url(#paint0_linear_168_284)"/>
<defs>
<linearGradient id="paint0_linear_168_284" x1="8" y1="14.4584" x2="8" y2="1.625" gradientUnits="userSpaceOnUse">
<stop stop-color="#5570FF"/>
<stop offset="1" stop-color="#4DD3FF"/>
</linearGradient>
</defs>
</svg>
