<svg width="22" height="22" viewBox="0 0 22 22" fill="none" xmlns="http://www.w3.org/2000/svg">
<path opacity="0.4" d="M5.90355 11.9258C5.40678 11.9258 5.00465 12.3339 5.00465 12.8381L4.75684 17.245C4.75684 17.8875 5.27048 18.4078 5.90355 18.4078C6.5366 18.4078 7.04913 17.8875 7.04913 17.245L6.80244 12.8381C6.80244 12.3339 6.4003 11.9258 5.90355 11.9258Z" fill="url(#paint0_linear_451_2744)"/>
<path d="M7.13111 3.05444C7.13111 3.05444 6.87314 2.78922 6.7132 2.67376C6.48115 2.49542 6.19503 2.40625 5.91004 2.40625C5.59013 2.40625 5.29275 2.50685 5.05056 2.69662C5.00663 2.7412 4.81965 2.90926 4.66532 3.06587C3.69658 3.98157 2.11169 6.37201 1.62732 7.62381C1.55072 7.81358 1.38514 8.29373 1.375 8.55094C1.375 8.79558 1.42907 9.03109 1.53946 9.25401C1.69378 9.53294 1.93597 9.75702 2.22209 9.87932C2.42034 9.95821 3.01397 10.0805 3.02524 10.0805C3.67519 10.204 4.73179 10.2703 5.89878 10.2703C7.01058 10.2703 8.02324 10.204 8.68333 10.1034C8.69461 10.092 9.4313 9.96964 9.68474 9.83474C10.1466 9.58896 10.4338 9.10882 10.4338 8.59552V8.55094C10.4226 8.21599 10.1353 7.51176 10.1252 7.51176C9.64081 6.32742 8.13251 3.993 7.13111 3.05444Z" fill="url(#paint1_linear_451_2744)"/>
<path opacity="0.4" d="M16.0959 10.2116C16.5927 10.2116 16.9948 9.80343 16.9948 9.29927L17.2416 4.89214C17.2416 4.24965 16.729 3.72949 16.0959 3.72949C15.4629 3.72949 14.9492 4.24965 14.9492 4.89214L15.197 9.29927C15.197 9.80343 15.5992 10.2116 16.0959 10.2116Z" fill="url(#paint2_linear_451_2744)"/>
<path d="M20.4598 12.8835C20.3054 12.6046 20.0633 12.3816 19.7771 12.2582C19.5789 12.1793 18.9842 12.057 18.9741 12.057C18.3241 11.9335 17.2674 11.8672 16.1005 11.8672C14.9887 11.8672 13.976 11.9335 13.3159 12.0341C13.3047 12.0455 12.568 12.169 12.3145 12.3028C11.8515 12.5486 11.5654 13.0287 11.5654 13.5432V13.5877C11.5767 13.9227 11.8628 14.6258 11.8741 14.6258C12.3584 15.8102 13.8656 18.1458 14.8681 19.0832C14.8681 19.0832 15.1261 19.3484 15.2861 19.4627C15.517 19.6423 15.8031 19.7313 16.0903 19.7313C16.4091 19.7313 16.7054 19.6308 16.9487 19.441C16.9926 19.3964 17.1796 19.2284 17.3339 19.0729C18.3016 18.1561 19.8876 15.7656 20.3708 14.5149C20.4484 14.3251 20.6141 13.8438 20.6243 13.5877C20.6243 13.3419 20.5701 13.1064 20.4598 12.8835Z" fill="url(#paint3_linear_451_2744)"/>
<defs>
<linearGradient id="paint0_linear_451_2744" x1="5.90298" y1="18.4078" x2="5.90298" y2="11.9258" gradientUnits="userSpaceOnUse">
<stop stop-color="#02AA93"/>
<stop offset="1" stop-color="#67FF80"/>
</linearGradient>
<linearGradient id="paint1_linear_451_2744" x1="5.9044" y1="10.2703" x2="5.9044" y2="2.40625" gradientUnits="userSpaceOnUse">
<stop stop-color="#02AA93"/>
<stop offset="1" stop-color="#67FF80"/>
</linearGradient>
<linearGradient id="paint2_linear_451_2744" x1="16.0954" y1="10.2116" x2="16.0954" y2="3.72949" gradientUnits="userSpaceOnUse">
<stop stop-color="#02AA93"/>
<stop offset="1" stop-color="#67FF80"/>
</linearGradient>
<linearGradient id="paint3_linear_451_2744" x1="16.0948" y1="19.7313" x2="16.0948" y2="11.8672" gradientUnits="userSpaceOnUse">
<stop stop-color="#02AA93"/>
<stop offset="1" stop-color="#67FF80"/>
</linearGradient>
</defs>
</svg>
