<svg width="22" height="22" viewBox="0 0 22 22" fill="none" xmlns="http://www.w3.org/2000/svg">
<g clip-path="url(#clip0_451_2724)">
<path d="M1 14.7295C1 15.5835 1.682 16.2712 3.045 17.6456L4.492 19.1046C5.855 20.479 6.537 21.1667 7.384 21.1667C8.231 21.1667 8.914 20.479 10.277 19.1046L18.955 10.3543C20.318 8.97894 21 8.29025 21 7.4372C21 6.58415 20.318 5.89546 18.955 4.5211L17.508 3.06204C16.145 1.68768 15.463 1 14.616 1C13.862 1 13.24 1.5445 12.152 2.63148L11.102 3.68822L10.03 4.77016L8.98 5.82689L7.91 6.90883L6.86 7.96657L5.788 9.0465L4.74 10.1052L3.667 11.1872L2.619 12.2449C1.539 13.342 1 13.9692 1 14.7295Z" stroke="url(#paint0_linear_451_2724)" stroke-width="2"/>
<path d="M13.8196 1.2789C13.7849 1.24439 13.7477 1.21252 13.7084 1.18359L12.3502 2.55178C12.3786 2.59095 12.411 2.62881 12.4459 2.66407L14.2767 4.51008C14.4608 4.68303 14.7043 4.77719 14.9558 4.77272C15.2074 4.76824 15.4475 4.66548 15.6254 4.48609C15.8033 4.30669 15.9052 4.06466 15.9096 3.811C15.914 3.55733 15.8206 3.31183 15.6491 3.12622L13.821 1.2776L13.8196 1.2789ZM11.0723 4.04923C11.0375 4.01427 11.0004 3.98198 10.9609 3.95261L9.60399 5.32081C9.63272 5.36094 9.66472 5.3985 9.69981 5.43309L12.4459 8.20341C12.6292 8.38168 12.8745 8.48026 13.1291 8.47791C13.3837 8.47556 13.6273 8.37247 13.8072 8.19084C13.9872 8.00921 14.0892 7.76358 14.0913 7.50685C14.0934 7.25012 13.9954 7.00283 13.8184 6.81825L11.0723 4.04923ZM8.32607 6.81825C8.2914 6.78328 8.25418 6.75099 8.21471 6.72164L6.85654 8.08983C6.88502 8.12899 6.91738 8.16816 6.95235 8.20341L8.7844 10.0494C8.8733 10.1457 8.9805 10.2228 9.09962 10.2763C9.21872 10.3298 9.34736 10.3586 9.47772 10.3609C9.60809 10.3633 9.73763 10.3391 9.85854 10.2899C9.97945 10.2405 10.0893 10.1673 10.1815 10.0743C10.2737 9.9813 10.3464 9.87057 10.3953 9.74865C10.4441 9.62674 10.4681 9.49611 10.4657 9.36466C10.4634 9.23317 10.4349 9.10352 10.3818 8.98341C10.3288 8.86331 10.2523 8.7552 10.1568 8.66556L8.32607 6.81825ZM5.57992 9.58732C5.54526 9.5523 5.50804 9.52004 5.46858 9.4907L4.1104 10.8602C4.13889 10.8993 4.17125 10.9372 4.20621 10.9724L6.95235 13.7415C7.04188 13.8351 7.14899 13.9097 7.26744 13.961C7.38589 14.0124 7.5133 14.0395 7.64223 14.0407C7.77117 14.0419 7.89905 14.0171 8.01841 13.968C8.13777 13.9188 8.24622 13.8462 8.33744 13.7542C8.42866 13.6624 8.50081 13.5531 8.54969 13.4327C8.59858 13.3125 8.6232 13.1835 8.62215 13.0535C8.62109 12.9235 8.59436 12.795 8.54352 12.6756C8.49269 12.556 8.41877 12.448 8.32607 12.3576L5.57992 9.58732ZM2.83249 12.3576C2.79789 12.3222 2.76067 12.2895 2.72115 12.2597L1.36426 13.6305C1.39275 13.6697 1.42511 13.7062 1.46008 13.7415L3.29083 15.5875C3.37973 15.6837 3.48693 15.7608 3.60605 15.8143C3.72517 15.8679 3.85375 15.8966 3.98413 15.8989C4.11452 15.9013 4.24403 15.8771 4.36494 15.8279C4.48586 15.7786 4.59569 15.7053 4.6879 15.6123C4.78011 15.5193 4.8528 15.4086 4.90164 15.2867C4.95049 15.1648 4.97447 15.0342 4.97217 14.9027C4.96987 14.7713 4.94133 14.6415 4.88825 14.5215C4.83518 14.4014 4.75866 14.2933 4.66325 14.2037L2.83249 12.3576Z" fill="url(#paint1_linear_451_2724)"/>
</g>
<defs>
<linearGradient id="paint0_linear_451_2724" x1="20.9407" y1="1.12785" x2="0.935683" y2="20.8025" gradientUnits="userSpaceOnUse">
<stop stop-color="#FE7970"/>
<stop offset="1" stop-color="#DC3282"/>
</linearGradient>
<linearGradient id="paint1_linear_451_2724" x1="15.8666" y1="1.27687" x2="1.26992" y2="15.5848" gradientUnits="userSpaceOnUse">
<stop stop-color="#FE7970"/>
<stop offset="1" stop-color="#DC3282"/>
</linearGradient>
<clipPath id="clip0_451_2724">
<rect width="22" height="22" fill="white"/>
</clipPath>
</defs>
</svg>
