<svg width="22" height="22" viewBox="0 0 22 22" fill="none" xmlns="http://www.w3.org/2000/svg">
<path d="M14.5983 13.631H6.73777C6.66182 13.631 6.60027 13.5732 6.60027 13.5017V12.7219C6.60027 11.9983 5.7435 11.5668 5.10387 11.9681L1.83289 14.0204C1.26143 14.379 1.26143 15.1693 1.83289 15.5279L5.10387 17.5803C5.7435 17.9817 6.60027 17.5501 6.60027 16.8266V16.0467C6.60027 15.9753 6.66182 15.9173 6.73777 15.9173H14.5983C15.269 15.9173 15.8128 15.4055 15.8128 14.7742C15.8128 14.1428 15.269 13.631 14.5983 13.631Z" fill="url(#paint0_linear_451_2670)"/>
<path d="M15.8132 5.95264V5.17282C15.8132 4.75937 16.3028 4.51277 16.6683 4.74211L19.9393 6.79449C20.2658 6.99939 20.2658 7.45101 19.9393 7.65591L16.6683 9.70827C16.3028 9.9376 15.8132 9.69101 15.8132 9.27756V8.49774C15.8132 8.21185 15.5669 7.9801 15.2632 7.9801H6.18822C4.5976 7.9801 3.28446 9.05865 3.02604 10.4843C2.97496 10.7661 2.73365 10.9997 2.4299 10.9997H1.92572C1.62197 10.9997 1.37244 10.767 1.40643 10.4829C1.67732 8.21873 3.70785 6.47029 6.18822 6.47029H15.2632C15.5669 6.47029 15.8132 6.23852 15.8132 5.95264Z" fill="url(#paint1_linear_451_2670)" stroke="url(#paint2_linear_451_2670)" stroke-width="0.6"/>
<path d="M15.8723 10.8325C15.5685 10.8325 15.3223 11.0643 15.3223 11.3502V17.2168C15.3223 17.5026 15.5685 17.7344 15.8723 17.7344H16.6056C16.9094 17.7344 17.1556 17.5026 17.1556 17.2168V16.5266C17.1556 16.2408 17.4018 16.009 17.7056 16.009H18.439C18.7427 16.009 18.989 16.2408 18.989 16.5266V17.2168C18.989 17.5026 19.2352 17.7344 19.539 17.7344H20.2723C20.576 17.7344 20.8223 17.5026 20.8223 17.2168V11.3502C20.8223 11.0643 20.576 10.8325 20.2723 10.8325H15.8723ZM17.1556 13.0756C17.1556 12.7898 17.4018 12.558 17.7056 12.558H18.439C18.7427 12.558 18.989 12.7898 18.989 13.0756V13.7658C18.989 14.0518 18.7427 14.2835 18.439 14.2835H17.7056C17.4018 14.2835 17.1556 14.0518 17.1556 13.7659V13.0756Z" fill="url(#paint3_linear_451_2670)"/>
<defs>
<linearGradient id="paint0_linear_451_2670" x1="1.19603" y1="11.8727" x2="5.39624" y2="22.4089" gradientUnits="userSpaceOnUse">
<stop stop-color="#F9D423"/>
<stop offset="0.515624" stop-color="#FF4E50"/>
<stop offset="0.991304" stop-color="#8A2387"/>
</linearGradient>
<linearGradient id="paint1_linear_451_2670" x1="1.09748" y1="4.27244" x2="5.39319" y2="16.8159" gradientUnits="userSpaceOnUse">
<stop stop-color="#F9D423"/>
<stop offset="0.515624" stop-color="#FF4E50"/>
<stop offset="0.991304" stop-color="#8A2387"/>
</linearGradient>
<linearGradient id="paint2_linear_451_2670" x1="1.09748" y1="4.27244" x2="5.39319" y2="16.8159" gradientUnits="userSpaceOnUse">
<stop stop-color="#F9D423"/>
<stop offset="0.515624" stop-color="#FF4E50"/>
<stop offset="0.991304" stop-color="#8A2387"/>
</linearGradient>
<linearGradient id="paint3_linear_451_2670" x1="15.2428" y1="10.9004" x2="22.2255" y2="16.635" gradientUnits="userSpaceOnUse">
<stop stop-color="#F9D423"/>
<stop offset="0.515624" stop-color="#FF4E50"/>
<stop offset="0.991304" stop-color="#8A2387"/>
</linearGradient>
</defs>
</svg>
