<svg width="22" height="22" viewBox="0 0 22 22" fill="none" xmlns="http://www.w3.org/2000/svg">
<path d="M11.8482 13.0374H6.73777C6.66182 13.0374 6.60027 12.9827 6.60027 12.9152V12.1788C6.60027 11.4954 5.7435 11.0879 5.10387 11.4669L1.83289 13.4052C1.26143 13.7439 1.26143 14.4903 1.83289 14.829L5.10387 16.7673C5.7435 17.1463 6.60027 16.7388 6.60027 16.0555V15.319C6.60027 15.2515 6.66182 15.1967 6.73777 15.1967H11.8482C12.519 15.1967 13.0628 14.7133 13.0628 14.117C13.0628 13.5208 12.519 13.0374 11.8482 13.0374Z" fill="url(#paint0_linear_451_2660)"/>
<path d="M15.8132 5.78579V5.04928C15.8132 4.65881 16.3028 4.42591 16.6683 4.6425L19.9393 6.58086C20.2658 6.77437 20.2658 7.2009 19.9393 7.39442L16.6683 9.33277C16.3028 9.54936 15.8132 9.31646 15.8132 8.92599V8.18948C15.8132 7.91948 15.5669 7.70059 15.2632 7.70059H6.18822C4.5976 7.70059 3.28446 8.71924 3.02604 10.0657C2.97496 10.3318 2.73365 10.5525 2.4299 10.5525H1.92572C1.62197 10.5525 1.37244 10.3327 1.40643 10.0643C1.67732 7.92598 3.70785 6.27468 6.18822 6.27468H15.2632C15.5669 6.27468 15.8132 6.05579 15.8132 5.78579Z" fill="url(#paint1_linear_451_2660)" stroke="url(#paint2_linear_451_2660)" stroke-width="0.6"/>
<path d="M13.8076 11.29C13.8076 10.885 14.1771 10.5566 14.6326 10.5566H19.8003C20.256 10.5566 20.6253 10.885 20.6253 11.29V11.3609C20.6253 11.7659 20.256 12.0942 19.8003 12.0942H14.6326C14.1771 12.0942 13.8076 11.7659 13.8076 11.3609V11.29Z" fill="url(#paint3_linear_451_2660)"/>
<path d="M13.8076 13.6992C13.8076 13.2941 14.1771 12.9658 14.6326 12.9658H19.8003C20.256 12.9658 20.6253 13.2941 20.6253 13.6992V13.77C20.6253 14.175 20.256 14.5034 19.8003 14.5034H14.6326C14.1771 14.5034 13.8076 14.175 13.8076 13.77V13.6992Z" fill="url(#paint4_linear_451_2660)"/>
<path d="M13.8076 16.1083C13.8076 15.7033 14.1771 15.375 14.6326 15.375H19.8003C20.256 15.375 20.6253 15.7033 20.6253 16.1083V16.1792C20.6253 16.5841 20.256 16.9126 19.8003 16.9126H14.6326C14.1771 16.9126 13.8076 16.5841 13.8076 16.1792V16.1083Z" fill="url(#paint5_linear_451_2660)"/>
<defs>
<linearGradient id="paint0_linear_451_2660" x1="3.51739" y1="16.2524" x2="7.81307" y2="8.43652" gradientUnits="userSpaceOnUse">
<stop stop-color="#FE0844"/>
<stop offset="1" stop-color="#FEB302"/>
</linearGradient>
<linearGradient id="paint1_linear_451_2660" x1="4.86479" y1="9.79493" x2="8.75878" y2="-0.397814" gradientUnits="userSpaceOnUse">
<stop stop-color="#FE0844"/>
<stop offset="1" stop-color="#FEB302"/>
</linearGradient>
<linearGradient id="paint2_linear_451_2660" x1="4.86479" y1="9.79493" x2="8.75878" y2="-0.397814" gradientUnits="userSpaceOnUse">
<stop stop-color="#FE0844"/>
<stop offset="1" stop-color="#FEB302"/>
</linearGradient>
<linearGradient id="paint3_linear_451_2660" x1="15.0433" y1="16.1622" x2="20.8158" y2="10.7601" gradientUnits="userSpaceOnUse">
<stop stop-color="#FE0844"/>
<stop offset="1" stop-color="#FEB302"/>
</linearGradient>
<linearGradient id="paint4_linear_451_2660" x1="15.0433" y1="16.1619" x2="20.8158" y2="10.7598" gradientUnits="userSpaceOnUse">
<stop stop-color="#FE0844"/>
<stop offset="1" stop-color="#FEB302"/>
</linearGradient>
<linearGradient id="paint5_linear_451_2660" x1="15.0433" y1="16.1621" x2="20.8157" y2="10.7599" gradientUnits="userSpaceOnUse">
<stop stop-color="#FE0844"/>
<stop offset="1" stop-color="#FEB302"/>
</linearGradient>
</defs>
</svg>
