<svg width="22" height="22" viewBox="0 0 22 22" fill="none" xmlns="http://www.w3.org/2000/svg">
<path d="M19.5711 10.6118C19.0254 10.6118 18.6459 11.0226 18.5683 11.4502C18.3432 12.6919 17.1995 13.6314 15.8128 13.6314H6.73777C6.66182 13.6314 6.60027 13.5735 6.60027 13.502V12.7222C6.60027 11.9987 5.7435 11.5671 5.10387 11.9685L1.83289 14.0208C1.26143 14.3794 1.26143 15.1697 1.83289 15.5283L5.10387 17.5806C5.7435 17.9821 6.60027 17.5505 6.60027 16.8269V16.0471C6.60027 15.9757 6.66182 15.9177 6.73777 15.9177H15.8128C18.5051 15.9177 20.7103 14.019 21.0045 11.5603C21.0696 11.0169 20.5929 10.6118 20.0753 10.6118H19.5711Z" fill="url(#paint0_linear_451_2656)"/>
<path d="M15.8132 5.95264V5.17282C15.8132 4.75937 16.3028 4.51277 16.6683 4.74211L19.9393 6.79449C20.2658 6.99939 20.2658 7.45101 19.9393 7.65591L16.6683 9.70827C16.3028 9.9376 15.8132 9.69101 15.8132 9.27756V8.49774C15.8132 8.21185 15.5669 7.9801 15.2632 7.9801H6.18822C4.5976 7.9801 3.28446 9.05865 3.02604 10.4843C2.97496 10.7661 2.73365 10.9997 2.4299 10.9997H1.92572C1.62197 10.9997 1.37244 10.767 1.40643 10.4829C1.67732 8.21873 3.70785 6.47029 6.18822 6.47029H15.2632C15.5669 6.47029 15.8132 6.23852 15.8132 5.95264Z" fill="url(#paint1_linear_451_2656)" stroke="url(#paint2_linear_451_2656)" stroke-width="0.6"/>
<path d="M16.5737 11.6816C15.8824 11.6816 15.3223 12.209 15.3223 12.8595V16.5565C15.3223 17.2069 15.8824 17.7343 16.5737 17.7343C17.2649 17.7343 17.8252 17.2069 17.8252 16.5565V12.8595C17.8252 12.209 17.2649 11.6816 16.5737 11.6816Z" fill="url(#paint3_linear_451_2656)"/>
<defs>
<linearGradient id="paint0_linear_451_2656" x1="11.2074" y1="17.7344" x2="11.2074" y2="10.6118" gradientUnits="userSpaceOnUse">
<stop stop-color="#A93AFF"/>
<stop offset="1" stop-color="#FF81FF"/>
</linearGradient>
<linearGradient id="paint1_linear_451_2656" x1="11.0007" y1="10.9997" x2="11.0007" y2="4.20558" gradientUnits="userSpaceOnUse">
<stop stop-color="#A93AFF"/>
<stop offset="1" stop-color="#FF81FF"/>
</linearGradient>
<linearGradient id="paint2_linear_451_2656" x1="11.0007" y1="10.9997" x2="11.0007" y2="4.20558" gradientUnits="userSpaceOnUse">
<stop stop-color="#A93AFF"/>
<stop offset="1" stop-color="#FF81FF"/>
</linearGradient>
<linearGradient id="paint3_linear_451_2656" x1="16.5738" y1="17.7343" x2="16.5738" y2="11.6816" gradientUnits="userSpaceOnUse">
<stop stop-color="#A93AFF"/>
<stop offset="1" stop-color="#FF81FF"/>
</linearGradient>
</defs>
</svg>
