<svg width="17" height="16" viewBox="0 0 17 16" fill="none" xmlns="http://www.w3.org/2000/svg">
<path d="M13.9897 12.962L13.1759 12.3809L13.1759 12.3809L13.9897 12.962ZM8.08704 12.3058L7.58052 13.168L7.58052 13.168L8.08704 12.3058ZM12.1072 14.0679L12.2136 15.0622L12.1072 14.0679ZM12.1072 3.00903L12.2136 2.0147L12.1072 3.00903ZM13.9897 4.11488L14.8035 3.53377L13.9897 4.11488ZM4.57717 7.43261L5.4933 7.83348L4.57717 7.43261ZM4.57717 9.64431L3.66103 10.0452L4.57717 9.64431ZM3.5 3C3.5 2.44772 3.05228 2 2.5 2C1.94772 2 1.5 2.44772 1.5 3L3.5 3ZM1.5 14.0769C1.5 14.6292 1.94772 15.0769 2.5 15.0769C3.05229 15.0769 3.5 14.6292 3.5 14.0769L1.5 14.0769ZM13.5 8.53846C13.5 9.79414 13.499 10.6678 13.4402 11.3197C13.3809 11.9776 13.2726 12.2454 13.1759 12.3809L14.8035 13.5432C15.2171 12.964 15.3639 12.2564 15.4322 11.4993C15.501 10.7362 15.5 9.75538 15.5 8.53846L13.5 8.53846ZM7.58052 13.168C8.61557 13.7761 9.45176 14.2685 10.1377 14.5904C10.8184 14.9098 11.503 15.1382 12.2136 15.0622L12.0009 13.0736C11.848 13.0899 11.5748 13.0555 10.9873 12.7798C10.4052 12.5066 9.66302 12.0718 8.59356 11.4436L7.58052 13.168ZM13.1759 12.3809C12.8946 12.7749 12.4664 13.0238 12.0009 13.0736L12.2136 15.0622C13.2544 14.9509 14.1945 14.396 14.8035 13.5432L13.1759 12.3809ZM8.59357 5.63336C9.66302 5.00511 10.4052 4.5703 10.9873 4.29712C11.5748 4.02147 11.848 3.987 12.0009 4.00336L12.2136 2.0147C11.503 1.93871 10.8184 2.16714 10.1377 2.48656C9.45176 2.80845 8.61557 3.30086 7.58052 3.90891L8.59357 5.63336ZM15.5 8.53846C15.5 7.32154 15.501 6.34071 15.4322 5.57765C15.3639 4.82057 15.2171 4.11295 14.8035 3.53377L13.1759 4.69598C13.2726 4.83149 13.3809 5.09937 13.4403 5.75725C13.499 6.40916 13.5 7.28278 13.5 8.53846L15.5 8.53846ZM12.0009 4.00336C12.4664 4.05313 12.8946 4.30206 13.1759 4.69598L14.8035 3.53377C14.1945 2.68093 13.2544 2.12601 12.2136 2.0147L12.0009 4.00336ZM7.58052 3.90891C6.54536 4.51702 5.70832 5.00756 5.09164 5.45088C4.47805 5.89198 3.94722 6.37769 3.66103 7.03174L5.4933 7.83348C5.56024 7.68051 5.7321 7.45363 6.25905 7.07481C6.7829 6.69823 7.52423 6.26155 8.59357 5.63336L7.58052 3.90891ZM8.59356 11.4436C7.52423 10.8154 6.78289 10.3787 6.25905 10.0021C5.7321 9.6233 5.56024 9.39642 5.4933 9.24344L3.66103 10.0452C3.94722 10.6992 4.47805 11.1849 5.09164 11.626C5.70832 12.0694 6.54536 12.5599 7.58052 13.168L8.59356 11.4436ZM3.66103 7.03174C3.24119 7.99122 3.24119 9.08571 3.66103 10.0452L5.4933 9.24344C5.29711 8.79506 5.29711 8.28186 5.4933 7.83348L3.66103 7.03174ZM1.5 3L1.5 14.0769L3.5 14.0769L3.5 3L1.5 3Z" fill="url(#paint0_linear_582_324)"/>
<defs>
<linearGradient id="paint0_linear_582_324" x1="2.50176" y1="8.37434" x2="14.502" y2="8.37434" gradientUnits="userSpaceOnUse">
<stop stop-color="#A93AFF"/>
<stop offset="1" stop-color="#FF81FF"/>
</linearGradient>
</defs>
</svg>
