<svg width="17" height="16" viewBox="0 0 17 16" fill="none" xmlns="http://www.w3.org/2000/svg">
<path d="M5.92105 5.22101C7.37188 6.07331 8.09729 6.49946 8.34074 7.05582C8.55309 7.5411 8.55309 8.09527 8.34074 8.58055C8.09729 9.13691 7.37188 9.56306 5.92105 10.4154C4.47022 11.2677 3.74481 11.6938 3.14955 11.6301C2.63034 11.5746 2.15868 11.2975 1.85181 10.8678C1.5 10.3751 1.5 9.52278 1.5 7.81818C1.5 6.11359 1.5 5.26129 1.85181 4.76859C2.15868 4.33883 2.63034 4.06175 3.14955 4.00622C3.74481 3.94256 4.47022 4.36871 5.92105 5.22101Z" stroke="url(#paint0_linear_582_318)" stroke-width="1.8"/>
<path d="M12.9211 5.22101C14.3719 6.07331 15.0973 6.49946 15.3407 7.05582C15.5531 7.5411 15.5531 8.09527 15.3407 8.58055C15.0973 9.13691 14.3719 9.56306 12.9211 10.4154C11.4702 11.2677 10.7448 11.6938 10.1496 11.6301C9.63034 11.5746 9.15868 11.2975 8.85181 10.8678C8.5 10.3751 8.5 9.52278 8.5 7.81818C8.5 6.11359 8.5 5.26129 8.85181 4.76859C9.15868 4.33883 9.63034 4.06175 10.1496 4.00622C10.7448 3.94256 11.4702 4.36871 12.9211 5.22101Z" stroke="url(#paint1_linear_582_318)" stroke-width="1.8"/>
<defs>
<linearGradient id="paint0_linear_582_318" x1="8.5" y1="11.6364" x2="8.5" y2="4.4492" gradientUnits="userSpaceOnUse">
<stop stop-color="#18AEFA"/>
<stop offset="1" stop-color="#83E1FF"/>
</linearGradient>
<linearGradient id="paint1_linear_582_318" x1="8.5" y1="11.6364" x2="8.5" y2="4.4492" gradientUnits="userSpaceOnUse">
<stop stop-color="#18AEFA"/>
<stop offset="1" stop-color="#83E1FF"/>
</linearGradient>
</defs>
</svg>
