<svg width="22" height="22" viewBox="0 0 22 22" fill="none" xmlns="http://www.w3.org/2000/svg">
<path fill-rule="evenodd" clip-rule="evenodd" d="M1.92784 2C1.41541 2 1 2.41541 1 2.92783C1 3.44027 1.41541 3.85567 1.92784 3.85567H9.24745V18.4949H1.92784C1.41541 18.4949 1 18.9104 1 19.4228C1 19.9352 1.41541 20.3506 1.92784 20.3506H10.1753C10.6877 20.3506 11.1031 19.9352 11.1031 19.4228V2.92783C11.1031 2.41541 10.6877 2 10.1753 2H1.92784ZM12.5649 2.90829C12.6668 2.40609 13.1565 2.08158 13.6587 2.18347C17.8468 3.03321 21 6.73525 21 11.1753C21 15.6154 17.8467 19.3165 13.6589 20.167C13.1567 20.2691 12.667 19.9447 12.565 19.4424C12.463 18.9403 12.7874 18.4505 13.2896 18.3485C16.63 17.67 19.1443 14.7153 19.1443 11.1753C19.1443 7.63509 16.6299 4.67978 13.2898 4.0021C12.7876 3.90021 12.463 3.41049 12.5649 2.90829ZM12.5739 8.47694C12.6976 7.97968 13.2011 7.67691 13.6984 7.80068C15.1541 8.16303 16.0515 9.64179 16.0515 11.1753C16.0515 12.7088 15.1541 14.1875 13.6984 14.5499C13.2011 14.6736 12.6976 14.3709 12.5739 13.8737C12.4501 13.3764 12.7529 12.8729 13.2501 12.7491C13.6764 12.643 14.1959 12.0847 14.1959 11.1753C14.1959 10.2659 13.6764 9.70751 13.2501 9.6014C12.7529 9.47764 12.4501 8.9742 12.5739 8.47694ZM6.87631 7.97938H5.32992V14.0618C5.32992 14.6361 5.10182 15.1868 4.69581 15.5928C4.28981 15.9987 3.73914 16.2268 3.16496 16.2268C2.59078 16.2268 2.04011 15.9987 1.6341 15.5928C1.22809 15.1868 1 14.6361 1 14.0618C1 13.4877 1.22809 12.937 1.6341 12.531C2.04011 12.125 2.59078 11.8969 3.16496 11.8969C3.26906 11.8969 3.3724 11.9044 3.47424 11.9191V7.54639C3.47424 7.16907 3.62413 6.8072 3.89092 6.54039C4.15773 6.27359 4.5196 6.1237 4.89692 6.1237H6.87631C7.38874 6.1237 7.80415 6.5391 7.80415 7.05154C7.80415 7.56397 7.38874 7.97938 6.87631 7.97938Z" fill="url(#paint0_linear_451_2718)"/>
<defs>
<linearGradient id="paint0_linear_451_2718" x1="11" y1="2" x2="11" y2="20.3506" gradientUnits="userSpaceOnUse">
<stop stop-color="#DC18FC"/>
<stop offset="1" stop-color="#8E1EFF"/>
</linearGradient>
</defs>
</svg>
