<svg width="16" height="16" viewBox="0 0 16 16" fill="none" xmlns="http://www.w3.org/2000/svg">
<path fill-rule="evenodd" clip-rule="evenodd" d="M11.2197 1.21967C11.5126 0.926777 11.9874 0.926777 12.2803 1.21967L14.5303 3.46967C14.8232 3.76256 14.8232 4.23744 14.5303 4.53033L12.2803 6.78033C11.9874 7.07322 11.5126 7.07322 11.2197 6.78033C10.9268 6.48744 10.9268 6.01256 11.2197 5.71967L12.1893 4.75005H4.88886C3.28028 4.75005 2 6.06633 2 7.75C2 8.16421 1.66421 8.5 1.25 8.5C0.835786 8.5 0.5 8.16421 0.5 7.75C0.5 5.29153 2.39921 3.25005 4.88886 3.25005H12.1894L11.2197 2.28033C10.9268 1.98744 10.9268 1.51256 11.2197 1.21967ZM14.75 7C15.1642 7 15.5 7.33579 15.5 7.75C15.5 10.2462 13.4206 12.25 10.9684 12.25H3.81071L4.78033 13.2197C5.07322 13.5126 5.07322 13.9874 4.78033 14.2803C4.48744 14.5732 4.01256 14.5732 3.71967 14.2803L1.46967 12.0303C1.17678 11.7374 1.17678 11.2626 1.46967 10.9697L3.71967 8.71967C4.01256 8.42678 4.48744 8.42678 4.78033 8.71967C5.07322 9.01256 5.07322 9.48744 4.78033 9.78033L3.81061 10.75H10.9684C12.6143 10.75 14 9.39589 14 7.75C14 7.33579 14.3358 7 14.75 7Z" fill="url(#paint0_linear_497_406)" stroke="url(#paint1_linear_497_406)" stroke-width="0.6" stroke-linecap="round" stroke-linejoin="round"/>
<defs>
<linearGradient id="paint0_linear_497_406" x1="0.502197" y1="7.54998" x2="15.5025" y2="7.54998" gradientUnits="userSpaceOnUse">
<stop stop-color="#A93AFF"/>
<stop offset="1" stop-color="#FF81FF"/>
</linearGradient>
<linearGradient id="paint1_linear_497_406" x1="0.502197" y1="7.54998" x2="15.5025" y2="7.54998" gradientUnits="userSpaceOnUse">
<stop stop-color="#A93AFF"/>
<stop offset="1" stop-color="#FF81FF"/>
</linearGradient>
</defs>
</svg>
