<svg width="22" height="22" viewBox="0 0 22 22" fill="none" xmlns="http://www.w3.org/2000/svg">
<path d="M16.005 12.2685C15.6424 12.0126 15.125 12.2561 15.125 12.6827V13.7179C15.125 14.0038 14.8787 14.2355 14.575 14.2355H1.925C1.62125 14.2355 1.375 14.4673 1.375 14.7532V16.3061C1.375 16.592 1.62125 16.8238 1.925 16.8238H14.575C14.8787 16.8238 15.125 17.0556 15.125 17.3414V18.3767C15.125 18.8033 15.6424 19.0468 16.005 18.7908L20.0383 15.9438C20.3317 15.7367 20.3317 15.3226 20.0383 15.1155L16.005 12.2685Z" fill="url(#paint0_linear_451_2697)"/>
<path d="M15.125 4.65886V3.62357C15.125 3.197 15.6424 2.95351 16.005 3.20945L20.0383 6.05651C20.3317 6.26357 20.3317 6.67768 20.0383 6.88474L16.005 9.7318C15.6424 9.98774 15.125 9.74425 15.125 9.31769V8.28239C15.125 7.99651 14.8787 7.76474 14.575 7.76474H1.925C1.62125 7.76474 1.375 7.53298 1.375 7.2471V5.69416C1.375 5.40827 1.62125 5.17651 1.925 5.17651H14.575C14.8787 5.17651 15.125 4.94475 15.125 4.65886Z" fill="url(#paint1_linear_451_2697)"/>
<defs>
<linearGradient id="paint0_linear_451_2697" x1="11" y1="19.412" x2="11" y2="11.6474" gradientUnits="userSpaceOnUse">
<stop stop-color="#02AA93"/>
<stop offset="1" stop-color="#67FF80"/>
</linearGradient>
<linearGradient id="paint1_linear_451_2697" x1="11" y1="10.353" x2="11" y2="2.58827" gradientUnits="userSpaceOnUse">
<stop stop-color="#02AA93"/>
<stop offset="1" stop-color="#67FF80"/>
</linearGradient>
</defs>
</svg>
