<svg width="22" height="22" viewBox="0 0 22 22" fill="none" xmlns="http://www.w3.org/2000/svg">
<path d="M16.0608 13.0816H9.98785M6.95138 13.0816H5.93924M5.93924 16.2708H11M14.0365 16.2708H16.0608M1.89062 6.97049V4.94618C1.89062 4.4093 2.1039 3.89441 2.48353 3.51478C2.86316 3.13515 3.37805 2.92188 3.91493 2.92188H18.085C18.622 2.92188 19.1369 3.13515 19.5164 3.51478C19.8961 3.89441 20.1094 4.4093 20.1094 4.94618V17.092C20.1094 17.6289 19.8961 18.1438 19.5164 18.5235C19.1369 18.903 18.622 19.1163 18.085 19.1163H3.91493C3.37805 19.1163 2.86316 18.903 2.48353 18.5235C2.1039 18.1438 1.89062 17.6289 1.89062 17.092V6.97049Z" stroke="url(#paint0_linear_451_2639)" stroke-width="2" stroke-linecap="round" stroke-linejoin="round"/>
<defs>
<linearGradient id="paint0_linear_451_2639" x1="1.89062" y1="11.0191" x2="20.1094" y2="11.0191" gradientUnits="userSpaceOnUse">
<stop stop-color="#9EE170"/>
<stop offset="1" stop-color="#E5ECA2"/>
</linearGradient>
</defs>
</svg>
