<svg width="22" height="22" viewBox="0 0 22 22" fill="none" xmlns="http://www.w3.org/2000/svg">
<path d="M14.5983 13.0374H6.73777C6.66182 13.0374 6.60027 12.9827 6.60027 12.9152V12.1788C6.60027 11.4954 5.7435 11.0879 5.10387 11.4669L1.83289 13.4052C1.26143 13.7439 1.26143 14.4903 1.83289 14.829L5.10387 16.7673C5.7435 17.1463 6.60027 16.7388 6.60027 16.0555V15.319C6.60027 15.2515 6.66182 15.1967 6.73777 15.1967H14.5983C15.269 15.1967 15.8128 14.7133 15.8128 14.117C15.8128 13.5208 15.269 13.0374 14.5983 13.0374Z" fill="url(#paint0_linear_451_2685)"/>
<path d="M15.8132 5.78579V5.04928C15.8132 4.65881 16.3028 4.42591 16.6683 4.6425L19.9393 6.58086C20.2658 6.77437 20.2658 7.2009 19.9393 7.39442L16.6683 9.33277C16.3028 9.54936 15.8132 9.31646 15.8132 8.92599V8.18948C15.8132 7.91948 15.5669 7.70059 15.2632 7.70059H6.18822C4.5976 7.70059 3.28446 8.71924 3.02604 10.0657C2.97496 10.3318 2.73365 10.5525 2.4299 10.5525H1.92572C1.62197 10.5525 1.37244 10.3327 1.40643 10.0643C1.67732 7.92598 3.70785 6.27468 6.18822 6.27468H15.2632C15.5669 6.27468 15.8132 6.05579 15.8132 5.78579Z" fill="url(#paint1_linear_451_2685)" stroke="url(#paint2_linear_451_2685)" stroke-width="0.6"/>
<path d="M21.0446 16.3232C20.7024 16.6274 20.1461 16.6274 19.8038 16.3232L18.5629 15.2201L17.3211 16.3232C16.9841 16.6329 16.4286 16.6414 16.0803 16.3426C15.7319 16.0432 15.7223 15.5494 16.0583 15.2397C16.0653 15.2334 16.0723 15.2263 16.0803 15.2201L17.3211 14.1172L16.0803 13.0134C15.7319 12.7138 15.7223 12.2201 16.0583 11.9104C16.3953 11.6007 16.9508 11.5921 17.2993 11.8909C17.3063 11.8971 17.3141 11.9034 17.3211 11.9104L18.5629 13.0134L19.8038 11.9104C20.1408 11.6007 20.6963 11.5921 21.0446 11.8909C21.393 12.1904 21.4027 12.6842 21.0666 12.9938C21.0596 13.0001 21.0526 13.0072 21.0446 13.0134L19.8038 14.1172L21.0446 15.2201C21.3886 15.5236 21.393 16.015 21.0516 16.3208C21.0516 16.3208 21.049 16.3239 21.0446 16.3232Z" fill="url(#paint3_linear_451_2685)"/>
<defs>
<linearGradient id="paint0_linear_451_2685" x1="15.3261" y1="11.4816" x2="14.3686" y2="17.6775" gradientUnits="userSpaceOnUse">
<stop stop-color="#FE0F7C"/>
<stop offset="1" stop-color="#DF0066"/>
</linearGradient>
<linearGradient id="paint1_linear_451_2685" x1="19.9753" y1="4.3192" x2="19.0254" y2="11.4743" gradientUnits="userSpaceOnUse">
<stop stop-color="#FE0F7C"/>
<stop offset="1" stop-color="#DF0066"/>
</linearGradient>
<linearGradient id="paint2_linear_451_2685" x1="19.9753" y1="4.3192" x2="19.0254" y2="11.4743" gradientUnits="userSpaceOnUse">
<stop stop-color="#FE0F7C"/>
<stop offset="1" stop-color="#DF0066"/>
</linearGradient>
<linearGradient id="paint3_linear_451_2685" x1="21.1267" y1="11.8121" x2="19.3815" y2="16.7419" gradientUnits="userSpaceOnUse">
<stop stop-color="#FE0F7C"/>
<stop offset="1" stop-color="#DF0066"/>
</linearGradient>
</defs>
</svg>
