<svg width="16" height="16" viewBox="0 0 16 16" fill="none" xmlns="http://www.w3.org/2000/svg">
<path d="M10.5789 10.4154C9.12812 9.56306 8.4027 9.13691 8.15926 8.58055C7.94691 8.09527 7.94691 7.5411 8.15926 7.05582C8.4027 6.49946 9.12812 6.07331 10.5789 5.22101C12.0298 4.36871 12.7552 3.94256 13.3504 4.00622C13.8697 4.06175 14.3413 4.33883 14.6482 4.76859C15 5.26129 15 6.11359 15 7.81818C15 9.52278 15 10.3751 14.6482 10.8678C14.3413 11.2975 13.8697 11.5746 13.3504 11.6301C12.7552 11.6938 12.0298 11.2677 10.5789 10.4154Z" stroke="url(#paint0_linear_582_321)" stroke-width="1.8"/>
<path d="M3.57895 10.4154C2.12812 9.56306 1.4027 9.13691 1.15926 8.58055C0.946914 8.09527 0.946914 7.5411 1.15926 7.05582C1.4027 6.49946 2.12812 6.07331 3.57895 5.22101C5.02978 4.36871 5.75519 3.94256 6.35045 4.00622C6.86966 4.06175 7.34133 4.33883 7.64819 4.76859C8 5.26129 8 6.11359 8 7.81818C8 9.52278 8 10.3751 7.64819 10.8678C7.34132 11.2975 6.86966 11.5746 6.35045 11.6301C5.75519 11.6938 5.02977 11.2677 3.57895 10.4154Z" stroke="url(#paint1_linear_582_321)" stroke-width="1.8"/>
<defs>
<linearGradient id="paint0_linear_582_321" x1="8" y1="11.6364" x2="8" y2="4.4492" gradientUnits="userSpaceOnUse">
<stop stop-color="#18AEFA"/>
<stop offset="1" stop-color="#83E1FF"/>
</linearGradient>
<linearGradient id="paint1_linear_582_321" x1="8" y1="11.6364" x2="8" y2="4.4492" gradientUnits="userSpaceOnUse">
<stop stop-color="#18AEFA"/>
<stop offset="1" stop-color="#83E1FF"/>
</linearGradient>
</defs>
</svg>
