<svg width="24" height="24" viewBox="0 0 24 24" fill="none" xmlns="http://www.w3.org/2000/svg">
<path d="M19.9762 13.8879L8.56267 6.85593C8.30697 6.69926 7.97977 6.71426 7.74037 6.89926C6.65607 7.73431 5.68727 8.58102 5.04087 9.29272C5.04087 9.29272 4.48407 9.86275 4.24307 10.2244C3.85397 10.7178 3.66667 11.3628 3.66667 11.9895C3.66667 12.6929 3.87187 13.3579 4.28057 13.8896C4.37337 13.9846 4.72667 14.403 5.06047 14.7446C7.00777 16.8714 12.0909 20.3849 14.7644 21.45C15.1535 21.6216 16.1923 21.98 16.7312 22C17.2506 22 17.7521 21.8867 18.234 21.6383C18.8267 21.2966 19.2907 20.7666 19.5512 20.1382C19.7189 19.7016 19.9778 18.3915 19.9778 18.3532C20.1455 17.4181 20.2709 16.1047 20.3327 14.5713C20.3441 14.2963 20.2057 14.0296 19.9762 13.8879Z" fill="url(#paint0_linear_73_3933)"/>
<path opacity="0.4" d="M19.2128 10.1004C19.7159 10.412 20.3493 10.0137 20.3249 9.41537C20.2646 8.01196 20.1604 6.77523 20.0334 5.85519C20.0139 5.83519 19.755 4.20344 19.4571 3.65174C18.9377 2.62669 17.9184 2 16.8227 2H16.7315C16.0249 2.01833 14.5221 2.64503 14.5221 2.68336C13.765 2.99838 12.7767 3.53174 11.7135 4.17344C11.2348 4.46345 11.2234 5.17515 11.7021 5.47017L19.2128 10.1004Z" fill="url(#paint1_linear_73_3933)"/>
<defs>
<linearGradient id="paint0_linear_73_3933" x1="12" y1="22" x2="12" y2="6.74853" gradientUnits="userSpaceOnUse">
<stop stop-color="#02AA93"/>
<stop offset="1" stop-color="#67FF80"/>
</linearGradient>
<linearGradient id="paint1_linear_73_3933" x1="15.8371" y1="10.2092" x2="15.8371" y2="2" gradientUnits="userSpaceOnUse">
<stop stop-color="#00B59C"/>
<stop offset="1" stop-color="#9CFFAC"/>
</linearGradient>
</defs>
</svg>
