<svg width="16" height="16" viewBox="0 0 16 16" fill="none" xmlns="http://www.w3.org/2000/svg">
<path d="M2.51032 4.11488L1.69649 3.53377L1.69649 3.53377L2.51032 4.11488ZM8.41296 4.77114L8.91948 3.90891L8.41296 4.77114ZM4.39276 3.00903L4.28642 2.0147L4.28642 2.0147L4.39276 3.00903ZM4.39276 14.0679L4.28642 15.0622L4.39276 14.0679ZM2.51032 12.962L3.32414 12.3809L2.51032 12.962ZM11.9228 9.64431L11.0067 9.24344L11.0067 9.24344L11.9228 9.64431ZM11.9228 7.43262L11.0067 7.83349L11.9228 7.43262ZM15 3C15 2.44772 14.5523 2 14 2C13.4477 2 13 2.44772 13 3H15ZM13 14.0769C13 14.6292 13.4477 15.0769 14 15.0769C14.5523 15.0769 15 14.6292 15 14.0769H13ZM3 8.53846C3 7.28278 3.00097 6.40916 3.05975 5.75725C3.11907 5.09937 3.22739 4.83149 3.32415 4.69598L1.69649 3.53377C1.28293 4.11295 1.13609 4.82057 1.06783 5.57765C0.99903 6.34071 1 7.32154 1 8.53846L3 8.53846ZM8.91948 3.90891C7.88443 3.30086 7.04824 2.80845 6.36227 2.48656C5.68159 2.16715 4.99695 1.93871 4.28642 2.0147L4.4991 4.00336C4.65202 3.987 4.92523 4.02147 5.51266 4.29713C6.0948 4.5703 6.83699 5.00511 7.90644 5.63336L8.91948 3.90891ZM3.32415 4.69598C3.60543 4.30206 4.03364 4.05314 4.4991 4.00336L4.28642 2.0147C3.24561 2.12601 2.30546 2.68093 1.69649 3.53377L3.32415 4.69598ZM7.90643 11.4436C6.83698 12.0718 6.0948 12.5066 5.51266 12.7798C4.92523 13.0555 4.65201 13.0899 4.49909 13.0736L4.28642 15.0622C4.99695 15.1382 5.68159 14.9098 6.36227 14.5904C7.04824 14.2685 7.88443 13.7761 8.91948 13.168L7.90643 11.4436ZM1 8.53846C1 9.75538 0.999029 10.7362 1.06783 11.4993C1.13609 12.2564 1.28293 12.964 1.69649 13.5432L3.32414 12.3809C3.22739 12.2454 3.11907 11.9776 3.05975 11.3197C3.00097 10.6678 3 9.79414 3 8.53846L1 8.53846ZM4.49909 13.0736C4.03364 13.0238 3.60543 12.7749 3.32414 12.3809L1.69649 13.5432C2.30545 14.396 3.2456 14.9509 4.28642 15.0622L4.49909 13.0736ZM8.91948 13.168C9.95464 12.5599 10.7917 12.0694 11.4084 11.626C12.0219 11.1849 12.5528 10.6992 12.839 10.0452L11.0067 9.24344C10.9398 9.39642 10.7679 9.6233 10.241 10.0021C9.7171 10.3787 8.97577 10.8154 7.90643 11.4436L8.91948 13.168ZM7.90644 5.63336C8.97577 6.26155 9.71711 6.69823 10.241 7.07482C10.7679 7.45363 10.9398 7.68051 11.0067 7.83349L12.839 7.03174C12.5528 6.37769 12.0219 5.89198 11.4084 5.45089C10.7917 5.00756 9.95465 4.51702 8.91948 3.90891L7.90644 5.63336ZM12.839 10.0452C13.2588 9.08571 13.2588 7.99122 12.839 7.03174L11.0067 7.83349C11.2029 8.28186 11.2029 8.79507 11.0067 9.24344L12.839 10.0452ZM13 3V14.0769H15V3H13Z" fill="url(#paint0_linear_582_327)"/>
<defs>
<linearGradient id="paint0_linear_582_327" x1="2.00176" y1="8.37434" x2="14.002" y2="8.37434" gradientUnits="userSpaceOnUse">
<stop stop-color="#A93AFF"/>
<stop offset="1" stop-color="#FF81FF"/>
</linearGradient>
</defs>
</svg>
