<svg width="16" height="16" viewBox="0 0 16 16" fill="none" xmlns="http://www.w3.org/2000/svg">
<path fill-rule="evenodd" clip-rule="evenodd" d="M11.9697 1.71967C12.2626 1.42678 12.7374 1.42678 13.0303 1.71967L15.2803 3.96967C15.5732 4.26256 15.5732 4.73744 15.2803 5.03033L13.0303 7.28033C12.7374 7.57323 12.2626 7.57323 11.9697 7.28033C11.6768 6.98744 11.6768 6.51256 11.9697 6.21967L12.8643 5.325H11.8504C10.7004 5.325 9.6813 5.88822 8.77008 6.70606C8.46182 6.98273 7.98764 6.95712 7.71097 6.64886C7.43429 6.3406 7.4599 5.86641 7.76817 5.58974C8.81877 4.6468 10.1816 3.825 11.8504 3.825H13.0143L11.9697 2.78033C11.6768 2.48744 11.6768 2.01256 11.9697 1.71967ZM0.5 4.575C0.5 4.16079 0.835787 3.825 1.25 3.825C4.11848 3.825 5.93046 6.03418 7.39577 7.85475C7.45081 7.92314 7.50541 7.99109 7.55961 8.05855C8.26606 8.93778 8.90642 9.73475 9.59844 10.3376C10.3276 10.9729 11.0406 11.325 11.8468 11.325H13.0143L11.9697 10.2803C11.6768 9.98744 11.6768 9.51257 11.9697 9.21967C12.2626 8.92678 12.7374 8.92678 13.0303 9.21967L15.2803 11.4697C15.5732 11.7626 15.5732 12.2374 15.2803 12.5303L13.0303 14.7803C12.7374 15.0732 12.2626 15.0732 11.9697 14.7803C11.6768 14.4874 11.6768 14.0126 11.9697 13.7197L12.8643 12.825H11.8468C10.5483 12.825 9.49812 12.2396 8.61313 11.4686C7.87713 10.8274 7.20498 10.0114 6.56888 9.22056C5.93967 10.0064 5.26907 10.8117 4.53338 11.4495C3.63272 12.2304 2.56315 12.825 1.25402 12.825C0.83981 12.825 0.504024 12.4892 0.504024 12.075C0.504024 11.6608 0.83981 11.325 1.25402 11.325C2.0705 11.325 2.80346 10.9641 3.55079 10.3162C4.25135 9.70882 4.90114 8.90674 5.59936 8.0305C4.28519 6.47423 3.01411 5.325 1.25 5.325C0.835787 5.325 0.5 4.98922 0.5 4.575Z" fill="url(#paint0_linear_497_400)" stroke="url(#paint1_linear_497_400)" stroke-width="0.6" stroke-linecap="round" stroke-linejoin="round"/>
<defs>
<linearGradient id="paint0_linear_497_400" x1="0.5" y1="8.25" x2="15.5" y2="8.25" gradientUnits="userSpaceOnUse">
<stop stop-color="#FFC152"/>
<stop offset="1" stop-color="#FF5F5F"/>
</linearGradient>
<linearGradient id="paint1_linear_497_400" x1="0.5" y1="8.25" x2="15.5" y2="8.25" gradientUnits="userSpaceOnUse">
<stop stop-color="#FFC152"/>
<stop offset="1" stop-color="#FF5F5F"/>
</linearGradient>
</defs>
</svg>
