<svg width="16" height="16" viewBox="0 0 16 16" fill="none" xmlns="http://www.w3.org/2000/svg">
<path d="M9.93333 3.62659C12.5368 5.11101 13.8385 5.85322 14.2753 6.82221C14.6564 7.66741 14.6564 8.63259 14.2753 9.47779C13.8385 10.4468 12.5368 11.189 9.93333 12.6734C7.3299 14.1578 6.02819 14.9 4.96003 14.7892C4.02834 14.6925 3.18196 14.2099 2.63131 13.4614C2 12.6033 2 11.1188 2 8.15C2 5.18116 2 3.69675 2.63131 2.83862C3.18196 2.09013 4.02834 1.60755 4.96003 1.51084C6.02819 1.39996 7.3299 2.14217 9.93333 3.62659Z" stroke="url(#paint0_linear_582_315)" stroke-width="2"/>
<defs>
<linearGradient id="paint0_linear_582_315" x1="13.5929" y1="1.73942" x2="1.47403" y2="13.602" gradientUnits="userSpaceOnUse">
<stop stop-color="#FFC700"/>
<stop offset="0.551952" stop-color="#FF49AB"/>
<stop offset="1" stop-color="#BA49FF"/>
</linearGradient>
</defs>
</svg>
