<svg width="22" height="22" viewBox="0 0 22 22" fill="none" xmlns="http://www.w3.org/2000/svg">
<path d="M8.95438 19.422C12.5117 20.875 16.8656 19.5824 19.1406 16.4753C20.769 14.3438 21.3546 11.4595 20.7149 8.84717C20.1528 6.42834 18.5393 4.29323 16.3898 3.10031C13.7009 1.57096 10.2267 1.61335 7.57732 3.21604C5.09988 4.67133 3.43163 7.38712 3.20999 10.2744L3.17088 10.2739C2.7679 10.2692 2.33355 10.264 1.91391 10.3073L1.88885 10.3099L1.86426 10.3154C1.47956 10.4007 1.217 10.6884 1.10217 10.9994C0.989571 11.3044 0.99954 11.6829 1.21601 11.9958C2.0699 13.4319 2.93557 14.8598 3.81102 16.2815C4.01452 16.6889 4.42623 16.8608 4.79418 16.8494C5.15735 16.838 5.55191 16.6465 5.7397 16.2481C6.61079 14.833 7.47196 13.4099 8.32315 11.983C8.73049 11.3778 8.40297 10.5475 7.74892 10.3328L7.7076 10.3192L7.66442 10.3141C7.23608 10.2634 6.7937 10.2679 6.38351 10.2739C6.58488 8.77955 7.34271 7.36839 8.50585 6.44535L8.50902 6.44288L8.51204 6.44037C9.92121 5.27976 11.8953 4.87352 13.634 5.39021L13.6382 5.39152L13.6425 5.39265C16.1517 6.08352 18.0049 8.69392 17.7928 11.339L17.7922 11.3479L17.7918 11.3569C17.6837 14.1344 15.3296 16.5886 12.6136 16.79L12.5962 16.7913L12.579 16.794C12.1297 16.8638 11.6758 16.8235 11.1931 16.736C10.9528 16.6924 10.7122 16.6384 10.4618 16.5823L10.4569 16.5812C10.2077 16.5254 9.94844 16.4673 9.68725 16.4206L9.64923 16.4138H9.61063C8.79677 16.4138 8.2961 17.0417 8.15757 17.6583C8.01924 18.274 8.20167 19.0557 8.92808 19.4102L8.94104 19.4166L8.95438 19.422Z" fill="url(#paint0_linear_451_2637)"/>
<defs>
<linearGradient id="paint0_linear_451_2637" x1="11" y1="20.0172" x2="11" y2="1.9829" gradientUnits="userSpaceOnUse">
<stop stop-color="#02AA93"/>
<stop offset="1" stop-color="#67FF80"/>
</linearGradient>
</defs>
</svg>
