<svg width="24" height="24" viewBox="0 0 24 24" fill="none" xmlns="http://www.w3.org/2000/svg">
<path d="M11.8889 17.2222C12.6551 17.2222 13.3899 17.5266 13.9316 18.0684C14.4734 18.6101 14.7778 19.3449 14.7778 20.1111C14.7778 20.8773 14.4734 21.6121 13.9316 22.1539C13.3899 22.6956 12.6551 23 11.8889 23C11.1227 23 10.3879 22.6956 9.84614 22.1539C9.30436 21.6121 9 20.8773 9 20.1111C9 19.3449 9.30436 18.6101 9.84614 18.0684C10.3879 17.5266 11.1227 17.2222 11.8889 17.2222ZM11.8889 0.999998C12.6551 0.999998 13.3899 1.30436 13.9316 1.84613C14.4734 2.38791 14.7778 3.12271 14.7778 3.88889C14.7778 4.65507 14.4734 5.38987 13.9316 5.93164C13.3899 6.47341 12.6551 6.77778 11.8889 6.77778C11.1227 6.77778 10.3879 6.47341 9.84614 5.93164C9.30436 5.38987 9 4.65507 9 3.88889C9 3.12271 9.30436 2.38791 9.84614 1.84613C10.3879 1.30436 11.1227 0.999998 11.8889 0.999998Z" fill="url(#paint0_linear_8_626)"/>
<path opacity="0.5" d="M11.9 9.2C12.6691 9.2 13.4068 9.50554 13.9506 10.0494C14.4945 10.5932 14.8 11.3309 14.8 12.1C14.8 12.8691 14.4945 13.6068 13.9506 14.1506C13.4068 14.6945 12.6691 15 11.9 15C11.1309 15 10.3932 14.6945 9.84939 14.1506C9.30554 13.6068 9 12.8691 9 12.1C9 11.3309 9.30554 10.5932 9.84939 10.0494C10.3932 9.50554 11.1309 9.2 11.9 9.2Z" fill="url(#paint1_linear_8_626)"/>
<defs>
<linearGradient id="paint0_linear_8_626" x1="9.05685" y1="23.318" x2="20.2483" y2="20.4661" gradientUnits="userSpaceOnUse">
<stop stop-color="#F9D423"/>
<stop offset="0.515624" stop-color="#FF4E50"/>
<stop offset="0.991304" stop-color="#8A2387"/>
</linearGradient>
<linearGradient id="paint1_linear_8_626" x1="9.05707" y1="15.0838" x2="15.2193" y2="9.10453" gradientUnits="userSpaceOnUse">
<stop stop-color="#F9D423"/>
<stop offset="0.515624" stop-color="#FF4E50"/>
<stop offset="0.991304" stop-color="#8A2387"/>
</linearGradient>
</defs>
</svg>
