<svg width="16" height="16" viewBox="0 0 16 16" fill="none" xmlns="http://www.w3.org/2000/svg">
<g clip-path="url(#clip0_129_68)">
<path d="M7.28063 7.27134C7.41883 7.12827 7.49529 6.93667 7.49356 6.7378C7.49183 6.53891 7.41203 6.34866 7.27143 6.20802C7.13076 6.06738 6.94049 5.9876 6.74163 5.98587C6.54273 5.98414 6.35112 6.0606 6.20806 6.19877L5.09298 7.31387L4.87073 7.0916C4.76406 6.98507 4.61946 6.9252 4.46869 6.9252C4.31793 6.9252 4.17333 6.98507 4.06667 7.0916L2.72024 8.438C2.20566 8.95267 1.88027 9.62627 1.79695 10.3493C1.71363 11.0723 1.87729 11.8022 2.26132 12.4204L0.898201 13.7843C0.825754 13.8543 0.767968 13.9379 0.728214 14.0305C0.688454 14.1231 0.667534 14.2226 0.666654 14.3233C0.665783 14.424 0.684974 14.5239 0.723114 14.6171C0.761254 14.7103 0.817581 14.7951 0.888801 14.8663C0.960021 14.9375 1.04471 14.9938 1.13794 15.0319C1.23116 15.0701 1.33105 15.0893 1.43177 15.0884C1.53249 15.0875 1.63203 15.0666 1.72457 15.0269C1.81711 14.9871 1.90082 14.9293 1.97079 14.8569L3.33467 13.4937C3.95289 13.8778 4.68281 14.0414 5.40581 13.9581C6.12881 13.8748 6.80236 13.5494 7.31703 13.0348L8.66349 11.6884C8.77003 11.5817 8.82983 11.4371 8.82983 11.2864C8.82983 11.1356 8.77003 10.991 8.66349 10.8843L8.44123 10.6621L9.5563 9.547C9.6945 9.40394 9.77089 9.21234 9.76923 9.01347C9.76749 8.81454 9.68769 8.62434 9.54703 8.48367C9.40643 8.343 9.21616 8.26327 9.01729 8.26154C8.81836 8.2598 8.62676 8.33627 8.48369 8.4744L7.36863 9.58947L6.16557 8.3864L7.28063 7.27134Z" fill="url(#paint0_linear_129_68)"/>
<path d="M15.3333 1.41865C15.3351 1.61754 15.2586 1.80915 15.1204 1.95221L13.7573 3.31608C14.1413 3.9343 14.305 4.66423 14.2217 5.38724C14.1383 6.11024 13.8129 6.78382 13.2984 7.29849L12.4883 8.10862C12.365 8.23189 12.2186 8.32969 12.0575 8.39642C11.8965 8.46309 11.7239 8.49742 11.5495 8.49742C11.3752 8.49742 11.2025 8.46309 11.0415 8.39642C10.8805 8.32969 10.7341 8.23189 10.6108 8.10862L7.8914 5.38844C7.64266 5.13952 7.50293 4.80202 7.50293 4.45012C7.50293 4.09822 7.64266 3.76071 7.8914 3.51179L8.70153 2.7009C9.21633 2.18626 9.89013 1.8609 10.6133 1.77772C11.3365 1.69453 12.0665 1.85842 12.6847 2.24274L14.0478 0.879622C14.1909 0.741449 14.3825 0.664992 14.5814 0.666716C14.7803 0.668449 14.9705 0.748222 15.1111 0.888862C15.2518 1.0295 15.3316 1.21976 15.3333 1.41865Z" fill="url(#paint1_linear_129_68)"/>
</g>
<defs>
<linearGradient id="paint0_linear_129_68" x1="2.94228" y1="14.4382" x2="8.96605" y2="7.41049" gradientUnits="userSpaceOnUse">
<stop stop-color="#A056FF"/>
<stop offset="1" stop-color="#C59AFD"/>
</linearGradient>
<linearGradient id="paint1_linear_129_68" x1="9.46054" y1="7.93808" x2="14.6427" y2="1.8925" gradientUnits="userSpaceOnUse">
<stop stop-color="#A056FF"/>
<stop offset="1" stop-color="#C59AFD"/>
</linearGradient>
<clipPath id="clip0_129_68">
<rect width="16" height="16" fill="white"/>
</clipPath>
</defs>
</svg>
