<svg width="16" height="16" viewBox="0 0 16 16" fill="none" xmlns="http://www.w3.org/2000/svg">
<path d="M7.21188 10.2258L7.71115 10.3178L7.21188 10.2251V10.2258ZM5.20662 10.6953L4.70869 10.6013L5.20729 10.696L5.20662 10.6953ZM1.74209 8.00002C1.74209 6.34032 2.40141 4.74858 3.575 3.575C4.74858 2.40141 6.34032 1.74209 8.00002 1.74209V0.727295C3.98277 0.727295 0.727295 3.98277 0.727295 8.00002H1.74209ZM4.42049 13.1261C2.80087 11.9929 1.74209 10.1223 1.74209 8.00002H0.727295C0.727295 10.4693 1.96196 12.6444 3.83935 13.9576L4.42049 13.1261ZM4.70869 10.6013L4.22091 13.1924L5.21812 13.3805L5.70522 10.7893L4.70869 10.6013ZM3.77169 8.00002C3.77169 9.01079 4.12823 9.93828 4.71951 10.6642L5.50564 10.0235C5.03916 9.45246 4.78503 8.7374 4.78649 8.00002H3.77169ZM8.00002 3.77169C6.87857 3.77169 5.80311 4.21718 5.01014 5.01014C4.21718 5.80311 3.77169 6.87857 3.77169 8.00002H4.78649C4.78649 7.14773 5.12506 6.33036 5.72771 5.72771C6.33036 5.12506 7.14773 4.78649 8.00002 4.78649V3.77169ZM12.2284 8.00002C12.2284 6.87857 11.7829 5.80311 10.9899 5.01014C10.1969 4.21718 9.12148 3.77169 8.00002 3.77169V4.78649C8.85231 4.78649 9.6697 5.12506 10.2724 5.72771C10.875 6.33036 11.2135 7.14773 11.2135 8.00002H12.2284ZM11.2812 10.6642C11.8951 9.91217 12.2298 8.97086 12.2284 8.00002H11.2135C11.2149 8.73719 10.9607 9.45202 10.4944 10.0229L11.2812 10.6642ZM11.7792 13.1924L11.2914 10.6013L10.2941 10.7893L10.7813 13.3805L11.7792 13.1924ZM14.258 8.00002C14.258 10.1223 13.1991 11.9929 11.5796 13.1261L12.1614 13.9583C14.0388 12.6437 15.2727 10.4693 15.2727 8.00002H14.258ZM8.00002 1.74209C9.65973 1.74209 11.2514 2.40141 12.425 3.575C13.5986 4.74858 14.258 6.34032 14.258 8.00002H15.2727C15.2727 3.98277 12.0173 0.727295 8.00002 0.727295V1.74209ZM10.537 8.00002C10.537 7.32715 10.2697 6.68184 9.79399 6.2061C9.3182 5.73031 8.6729 5.46303 8.00002 5.46303V6.47783C8.40373 6.47783 8.79086 6.6382 9.07639 6.92366C9.36184 7.20919 9.5222 7.59631 9.5222 8.00002H10.537ZM9.28882 10.1839C9.66904 9.9601 9.98417 9.64082 10.2031 9.25777C10.422 8.87479 10.5371 8.44119 10.537 8.00002H9.5222C9.5222 8.55682 9.22249 9.0446 8.7726 9.30977L9.28882 10.1839ZM10.0215 14.0989L9.28744 10.1331L8.28955 10.3178L9.02359 14.2837L10.0215 14.0989ZM8.00002 15.2727C8.44991 15.2727 8.88628 15.2274 9.30911 15.149L9.12308 14.1517C8.75282 14.2217 8.37682 14.2572 8.00002 14.258V15.2727ZM6.68955 15.1482C7.11239 15.2274 7.54948 15.2727 8.00002 15.2727V14.258C7.62315 14.257 7.24715 14.2211 6.87697 14.1503L6.68955 15.1482ZM6.71326 10.1331L5.97922 14.0983L6.97711 14.283L7.71115 10.3178L6.71326 10.1331ZM5.46303 8.00002C5.46303 8.93159 5.96636 9.7441 6.71188 10.1839L7.22744 9.30977C6.99915 9.17573 6.80991 8.98431 6.67842 8.75457C6.54693 8.5249 6.4778 8.26475 6.47783 8.00002H5.46303ZM8.00002 5.46303C7.32715 5.46303 6.68184 5.73031 6.2061 6.2061C5.73031 6.68184 5.46303 7.32715 5.46303 8.00002H6.47783C6.47783 7.59631 6.6382 7.20919 6.92366 6.92366C7.20919 6.6382 7.59631 6.47783 8.00002 6.47783V5.46303ZM7.71115 10.3178C7.7937 9.86999 7.53595 9.49246 7.22744 9.30977L6.71188 10.1839C6.71435 10.1854 6.7166 10.1871 6.71864 10.1893C6.72068 10.1913 6.72002 10.1919 6.71864 10.1893C6.71559 10.1829 6.71355 10.1754 6.7126 10.1683C6.71057 10.1567 6.71122 10.1447 6.71326 10.1331L7.71115 10.3178ZM6.87697 14.1503C6.95748 14.1659 6.98526 14.2376 6.97711 14.283L5.97922 14.0983C5.89195 14.5678 6.18556 15.0536 6.68955 15.1482L6.87697 14.1503ZM10.7813 13.3805C10.8949 13.9839 11.6019 14.3493 12.1621 13.9576L11.5796 13.1261C11.599 13.1132 11.6221 13.1053 11.6453 13.103C11.6685 13.1007 11.692 13.1042 11.7135 13.1133C11.7487 13.1288 11.773 13.1606 11.7792 13.1924L10.7813 13.3805ZM5.70522 10.7893C5.75935 10.5032 5.6714 10.2265 5.50564 10.0235L4.71951 10.6642C4.71478 10.6588 4.70193 10.6371 4.70869 10.6013L5.70522 10.7893ZM8.7726 9.30977C8.46409 9.49246 8.20635 9.86999 8.28955 10.3178L9.28744 10.1331C9.28955 10.145 9.28955 10.1571 9.28744 10.169C9.28642 10.1758 9.28439 10.1823 9.2814 10.1886C9.28002 10.1913 9.27937 10.1906 9.2814 10.1886C9.28344 10.1865 9.28635 10.1853 9.28882 10.1839L8.7726 9.30977ZM10.4944 10.0229C10.3287 10.2258 10.2407 10.5032 10.2941 10.7893L11.2914 10.6013C11.2981 10.6378 11.2859 10.6588 11.2812 10.6642L10.4944 10.0229ZM9.02359 14.2837C9.01959 14.253 9.02766 14.2221 9.04628 14.1973C9.06497 14.1726 9.09246 14.1562 9.12308 14.1517L9.30911 15.149C9.81311 15.0549 10.1081 14.5692 10.0215 14.0989L9.02359 14.2837ZM3.83935 13.9576C4.39884 14.3493 5.10378 13.9833 5.21812 13.3805L4.22091 13.1924C4.22466 13.1748 4.23258 13.1591 4.24399 13.1452C4.25541 13.1312 4.27001 13.1204 4.28653 13.1133C4.30824 13.1042 4.33183 13.1008 4.35522 13.1031C4.37859 13.1055 4.40102 13.113 4.42049 13.1261L3.83935 13.9576Z" fill="url(#paint0_linear_164_159)"/>
<path d="M7.71115 10.3178L7.21188 10.2258V10.2251L7.71115 10.3178ZM7.71115 10.3178L6.97711 14.283M7.71115 10.3178L6.71326 10.1331M7.71115 10.3178C7.7937 9.86999 7.53595 9.49246 7.22744 9.30977M6.97711 14.283C6.98526 14.2376 6.95748 14.1659 6.87697 14.1503M6.97711 14.283L5.97922 14.0983M6.71326 10.1331L5.97922 14.0983M6.71326 10.1331C6.71122 10.1447 6.71057 10.1567 6.7126 10.1683C6.71355 10.1754 6.71559 10.1829 6.71864 10.1893M7.22744 9.30977L6.71188 10.1839M7.22744 9.30977C6.99915 9.17573 6.80991 8.98431 6.67842 8.75457C6.54693 8.5249 6.4778 8.26475 6.47783 8.00002M11.2805 13.2864L11.7792 13.1924M11.7792 13.1924L11.2914 10.6013M11.7792 13.1924L10.7813 13.3805M11.7792 13.1924C11.773 13.1606 11.7487 13.1288 11.7135 13.1133C11.692 13.1042 11.6685 13.1007 11.6453 13.103C11.6221 13.1053 11.599 13.1132 11.5796 13.1261M11.2914 10.6013C11.2981 10.6378 11.2859 10.6588 11.2812 10.6642M11.2914 10.6013L10.2941 10.7893M10.7813 13.3805L10.2941 10.7893M10.7813 13.3805C10.8949 13.9839 11.6019 14.3493 12.1621 13.9576L11.5796 13.1261M11.5796 13.1261C13.1991 11.9929 14.258 10.1223 14.258 8.00002M11.5796 13.1261L12.1614 13.9583C14.0388 12.6437 15.2727 10.4693 15.2727 8.00002M4.70869 10.6013L5.20662 10.6953L5.20729 10.696L4.70869 10.6013ZM4.70869 10.6013L4.22091 13.1924M4.70869 10.6013L5.70522 10.7893M4.70869 10.6013C4.70193 10.6371 4.71478 10.6588 4.71951 10.6642M4.22091 13.1924C4.22466 13.1748 4.23258 13.1591 4.24399 13.1452C4.25541 13.1312 4.27001 13.1204 4.28653 13.1133C4.30824 13.1042 4.33183 13.1008 4.35522 13.1031C4.37859 13.1055 4.40102 13.113 4.42049 13.1261M4.22091 13.1924L5.21812 13.3805M5.70522 10.7893L5.21812 13.3805M5.70522 10.7893C5.75935 10.5032 5.6714 10.2265 5.50564 10.0235M4.71951 10.6642C4.12823 9.93828 3.77169 9.01079 3.77169 8.00002M4.71951 10.6642L5.50564 10.0235M1.74209 8.00002C1.74209 6.34032 2.40141 4.74858 3.575 3.575C4.74858 2.40141 6.34032 1.74209 8.00002 1.74209M1.74209 8.00002H0.727295M1.74209 8.00002C1.74209 10.1223 2.80087 11.9929 4.42049 13.1261M8.00002 1.74209V0.727295M8.00002 1.74209C9.65973 1.74209 11.2514 2.40141 12.425 3.575C13.5986 4.74858 14.258 6.34032 14.258 8.00002M0.727295 8.00002C0.727295 3.98277 3.98277 0.727295 8.00002 0.727295M0.727295 8.00002C0.727295 10.4693 1.96196 12.6444 3.83935 13.9576M4.42049 13.1261L3.83935 13.9576M8.00002 0.727295C12.0173 0.727295 15.2727 3.98277 15.2727 8.00002M14.258 8.00002H15.2727M3.83935 13.9576C4.39884 14.3493 5.10378 13.9833 5.21812 13.3805M5.50564 10.0235C5.03916 9.45246 4.78503 8.7374 4.78649 8.00002M3.77169 8.00002H4.78649M3.77169 8.00002C3.77169 6.87857 4.21718 5.80311 5.01014 5.01014C5.80311 4.21718 6.87857 3.77169 8.00002 3.77169M4.78649 8.00002C4.78649 7.14773 5.12506 6.33036 5.72771 5.72771C6.33036 5.12506 7.14773 4.78649 8.00002 4.78649M8.00002 3.77169V4.78649M8.00002 3.77169C9.12148 3.77169 10.1969 4.21718 10.9899 5.01014C11.7829 5.80311 12.2284 6.87857 12.2284 8.00002M8.00002 4.78649C8.85231 4.78649 9.6697 5.12506 10.2724 5.72771C10.875 6.33036 11.2135 7.14773 11.2135 8.00002M12.2284 8.00002H11.2135M12.2284 8.00002C12.2298 8.97086 11.8951 9.91217 11.2812 10.6642M11.2135 8.00002C11.2149 8.73719 10.9607 9.45202 10.4944 10.0229M11.2812 10.6642L10.4944 10.0229M10.4944 10.0229C10.3287 10.2258 10.2407 10.5032 10.2941 10.7893M10.537 8.00002C10.537 7.32715 10.2697 6.68184 9.79399 6.2061C9.3182 5.73031 8.6729 5.46303 8.00002 5.46303M10.537 8.00002H9.5222M10.537 8.00002C10.5371 8.44119 10.422 8.87479 10.2031 9.25777C9.98417 9.64082 9.66904 9.9601 9.28882 10.1839M8.00002 5.46303V6.47783M8.00002 5.46303C7.32715 5.46303 6.68184 5.73031 6.2061 6.2061C5.73031 6.68184 5.46303 7.32715 5.46303 8.00002M9.5222 8.00002C9.5222 7.59631 9.36184 7.20919 9.07639 6.92366C8.79086 6.6382 8.40373 6.47783 8.00002 6.47783M9.5222 8.00002C9.5222 8.55682 9.22249 9.0446 8.7726 9.30977M9.28882 10.1839L8.7726 9.30977M9.28882 10.1839C9.28635 10.1853 9.28344 10.1865 9.2814 10.1886M8.00002 6.47783C7.59631 6.47783 7.20919 6.6382 6.92366 6.92366C6.6382 7.20919 6.47783 7.59631 6.47783 8.00002M5.46303 8.00002C5.46303 8.93159 5.96636 9.7441 6.71188 10.1839M5.46303 8.00002H6.47783M8.7726 9.30977C8.46409 9.49246 8.20635 9.86999 8.28955 10.3178M9.2814 10.1886C9.28439 10.1823 9.28642 10.1758 9.28744 10.169C9.28955 10.1571 9.28955 10.145 9.28744 10.1331M9.2814 10.1886C9.27937 10.1906 9.28002 10.1913 9.2814 10.1886ZM8.28955 10.3178L9.28744 10.1331M8.28955 10.3178L9.02359 14.2837M10.0215 14.0989L9.28744 10.1331M10.0215 14.0989L9.02359 14.2837M10.0215 14.0989C10.1081 14.5692 9.81311 15.0549 9.30911 15.149M9.02359 14.2837C9.01959 14.253 9.02766 14.2221 9.04628 14.1973C9.06497 14.1726 9.09246 14.1562 9.12308 14.1517M9.30911 15.149C8.88628 15.2274 8.44991 15.2727 8.00002 15.2727M9.30911 15.149L9.12308 14.1517M9.12308 14.1517C8.75282 14.2217 8.37682 14.2572 8.00002 14.258M8.00002 15.2727V14.258M8.00002 15.2727C7.54948 15.2727 7.11239 15.2274 6.68955 15.1482M8.00002 14.258C7.62315 14.257 7.24715 14.2211 6.87697 14.1503M6.68955 15.1482L6.87697 14.1503M6.68955 15.1482C6.18556 15.0536 5.89195 14.5678 5.97922 14.0983M6.71864 10.1893C6.7166 10.1871 6.71435 10.1854 6.71188 10.1839M6.71864 10.1893C6.72002 10.1919 6.72068 10.1913 6.71864 10.1893Z" stroke="url(#paint1_linear_164_159)" stroke-width="0.4"/>
<defs>
<linearGradient id="paint0_linear_164_159" x1="15.2296" y1="0.819506" x2="0.79926" y2="15.1298" gradientUnits="userSpaceOnUse">
<stop stop-color="#FE7970"/>
<stop offset="1" stop-color="#DC3282"/>
</linearGradient>
<linearGradient id="paint1_linear_164_159" x1="15.2296" y1="0.819506" x2="0.79926" y2="15.1298" gradientUnits="userSpaceOnUse">
<stop stop-color="#FE7970"/>
<stop offset="1" stop-color="#DC3282"/>
</linearGradient>
</defs>
</svg>
