<svg width="22" height="22" viewBox="0 0 22 22" fill="none" xmlns="http://www.w3.org/2000/svg">
<path d="M16.3594 2.49966C17.0522 1.8426 17.9762 1.34672 18.952 1.37625C19.6792 1.3984 20.3436 1.92627 20.5392 2.62517C20.8161 3.56648 20.388 4.57667 19.7457 5.26697C18.5964 6.4236 17.4372 7.57039 16.2844 8.72455C16.09 8.85868 16.2536 9.10231 16.2536 9.28441C16.7827 12.1255 17.2996 14.9704 17.8274 17.8128C17.9049 18.14 17.8655 18.5214 17.601 18.7578C17.0596 19.2832 16.4849 19.7753 15.9239 20.2799C15.6199 20.5666 15.1216 20.5899 14.7844 20.3474C14.499 20.153 14.3981 19.8048 14.259 19.5071C13.3633 17.4756 12.4724 15.4416 11.5693 13.4126C10.8039 14.1927 10.0324 14.9667 9.24739 15.7271C9.27322 16.7385 9.46763 17.7377 9.53038 18.7466C9.55008 19.2622 9.06405 19.5575 8.74782 19.8849C8.49558 20.1101 8.25194 20.4175 7.88157 20.4175C7.44722 20.4669 7.02149 20.1592 6.91321 19.7409C6.53299 18.5264 6.17616 17.3045 5.78856 16.0925C4.57409 15.7246 3.35964 15.3567 2.14641 14.9851C1.70713 14.8658 1.39336 14.4031 1.47949 13.9503C1.53363 13.5467 1.88801 13.2982 2.13902 13.0127C2.42449 12.7162 2.73457 12.3261 3.19722 12.3802C4.18158 12.4651 5.16103 12.5943 6.14417 12.6866C6.92428 11.9028 7.70684 11.1215 8.48942 10.3402C6.33366 9.39515 4.17912 8.45017 2.02336 7.5064C1.64684 7.36244 1.33799 6.98961 1.3786 6.57125C1.37244 6.18613 1.68621 5.92403 1.91508 5.65703C2.31251 5.23127 2.69641 4.79201 3.09631 4.3675C3.33625 4.09803 3.72632 4.01804 4.06715 4.1128C7.07193 4.66527 10.0804 5.2079 13.0852 5.76037C14.1803 4.67634 15.2643 3.58246 16.3594 2.49966ZM17.2306 3.50618C16.1687 4.57421 15.0933 5.62872 14.0339 6.69922C13.7915 6.97484 13.4346 7.19756 13.052 7.1028C10.0115 6.54787 6.96857 5.99785 3.92934 5.43061C3.60943 5.77638 3.2895 6.11968 2.97081 6.46666C5.15611 7.43626 7.35001 8.38372 9.53532 9.35086C10.105 9.55388 10.3289 10.3623 9.90199 10.8065C8.94962 11.781 7.97139 12.7309 7.01164 13.6993C6.79632 13.9306 6.48378 14.0721 6.16509 14.0266C5.24839 13.9454 4.33661 13.8113 3.4187 13.7424C3.29074 13.719 3.2132 13.7744 3.18737 13.9109C4.20989 14.2185 5.22993 14.5372 6.25367 14.8436C6.57236 14.931 6.89229 15.1291 6.99194 15.4638C7.35001 16.549 7.65394 17.6528 8.00585 18.7392C8.04769 18.6938 8.1289 18.6027 8.17073 18.5572C8.08706 17.5962 7.95171 16.6413 7.8705 15.6816C7.84097 15.4121 7.94802 15.1451 8.13997 14.9593C9.05666 14.0291 9.99058 13.1161 10.9097 12.1883C11.3232 11.6075 12.3186 11.6777 12.5684 12.3716C13.5343 14.5446 14.4941 16.7201 15.4489 18.898C15.8082 18.5989 16.1466 18.2767 16.4936 17.9652C15.9362 14.9519 15.3849 11.9373 14.8324 8.92389C14.75 8.59537 14.862 8.24591 15.1031 8.01458C16.2905 6.82103 17.4902 5.63857 18.6801 4.44625C18.9987 4.1251 19.262 3.71044 19.2904 3.24778C19.3162 2.98323 19.1354 2.667 18.8363 2.70392C18.22 2.73345 17.665 3.08782 17.2306 3.50618Z" fill="#19B0FF" stroke="#19B0FF" stroke-width="0.6"/>
</svg>
