<svg width="16" height="16" viewBox="0 0 16 16" fill="none" xmlns="http://www.w3.org/2000/svg">
<path fill-rule="evenodd" clip-rule="evenodd" d="M14.661 2.38824C14.7362 2.31313 14.7783 2.21126 14.7783 2.10504C14.7783 1.99881 14.7362 1.89694 14.661 1.82184C14.586 1.74673 14.4841 1.70453 14.3778 1.70453C14.2717 1.70453 14.1698 1.74673 14.0946 1.82184L11.9602 3.95704C11.3391 3.47373 10.5629 3.23392 9.7774 3.28268C8.99187 3.33144 8.25122 3.66542 7.69464 4.22184L7.45464 4.46184C7.34387 4.57254 7.25595 4.70398 7.19601 4.84866C7.13605 4.99334 7.10518 5.14842 7.10518 5.30504C7.10518 5.46165 7.13605 5.61673 7.19601 5.76141C7.25595 5.90608 7.34387 6.03754 7.45464 6.14824L10.3346 9.02824C10.5581 9.25173 10.8613 9.37726 11.1775 9.37726C11.4935 9.37726 11.7967 9.25173 12.0202 9.02824L12.2602 8.78824C12.8167 8.23173 13.1509 7.49117 13.1999 6.70567C13.2487 5.92017 13.009 5.14384 12.5258 4.52264L14.661 2.38824ZM11.4548 8.46176C11.4183 8.4982 11.3751 8.52707 11.3277 8.54678C11.28 8.56649 11.229 8.5766 11.1775 8.5766C11.1261 8.5766 11.0751 8.56649 11.0276 8.54678C10.98 8.52707 10.9367 8.4982 10.9004 8.46176L8.02038 5.58177C7.94715 5.50829 7.90598 5.40875 7.90598 5.30497C7.90598 5.2012 7.94715 5.10165 8.02038 5.02817L8.26038 4.78817C8.71907 4.34926 9.33137 4.10739 9.9662 4.11434C10.601 4.1213 11.2079 4.37653 11.6567 4.82538C12.1058 5.27423 12.3612 5.88102 12.3682 6.51583C12.3754 7.15063 12.1335 7.76299 11.6948 8.22176L11.4548 8.46176ZM6.14824 7.45449C5.9247 7.23099 5.62154 7.10542 5.30544 7.10542C4.98933 7.10542 4.68617 7.23099 4.46264 7.45449L4.22264 7.69449C3.6661 8.251 3.33198 8.99158 3.28307 9.77704C3.23416 10.5626 3.47383 11.3389 3.95704 11.96L1.82184 14.0944C1.74673 14.1695 1.70453 14.2714 1.70453 14.3777C1.70453 14.4839 1.74673 14.5858 1.82184 14.6609C1.89694 14.7359 1.99881 14.7781 2.10504 14.7781C2.21126 14.7781 2.31313 14.7359 2.38824 14.6609L4.52264 12.5256C5.14385 13.0088 5.92017 13.2485 6.70567 13.1997C7.49117 13.1508 8.23173 12.8167 8.78824 12.26L9.02824 12.02C9.25173 11.7965 9.37726 11.4933 9.37726 11.1773C9.37726 10.8612 9.25173 10.5581 9.02824 10.3344L6.14824 7.45449ZM5.02824 8.02089C5.06464 7.98446 5.10785 7.95558 5.15541 7.93587C5.20298 7.91616 5.25395 7.90606 5.30544 7.90606C5.35692 7.90606 5.40789 7.91616 5.45546 7.93587C5.50302 7.95558 5.54623 7.98446 5.58264 8.02089L8.46264 10.9009C8.53587 10.9743 8.57704 11.074 8.57704 11.1777C8.57704 11.2815 8.53587 11.381 8.46264 11.4544L8.22264 11.6945C7.99718 11.9199 7.72952 12.0989 7.43493 12.221C7.14034 12.3431 6.82459 12.4058 6.50572 12.4058C6.18684 12.406 5.87108 12.3431 5.57646 12.2212C5.28185 12.0991 5.01414 11.9204 4.78864 11.6949C4.56313 11.4695 4.38424 11.2018 4.26217 10.9071C4.14011 10.6125 4.07727 10.2968 4.07723 9.97798C4.07716 9.33398 4.33291 8.71631 4.78824 8.26089L5.02824 8.02089Z" fill="url(#paint0_linear_167_278)"/>
<path d="M11.9602 3.95704L11.8068 4.15434L11.981 4.28993L12.137 4.13378L11.9602 3.95704ZM12.5258 4.52264L12.349 4.34583L12.193 4.50189L12.3285 4.67613L12.5258 4.52264ZM8.26038 4.78817L8.08751 4.6075L8.08358 4.6114L8.26038 4.78817ZM11.6948 8.22177L11.8717 8.39857L11.8754 8.39457L11.6948 8.22177ZM3.95704 11.96L4.13378 12.1369L4.2899 11.9809L4.15437 11.8066L3.95704 11.96ZM4.52264 12.5256L4.67613 12.3284L4.50189 12.1929L4.34583 12.349L4.52264 12.5256ZM14.5284 2.10504C14.5284 2.14495 14.5125 2.18324 14.4842 2.21146L14.8378 2.56505C14.9597 2.44306 15.0284 2.27756 15.0284 2.10504H14.5284ZM14.4842 1.99861C14.5125 2.02684 14.5284 2.06512 14.5284 2.10504H15.0284C15.0284 1.93251 14.9599 1.76705 14.8378 1.64506L14.4842 1.99861ZM14.3778 1.95453C14.4178 1.95453 14.456 1.97039 14.4842 1.99861L14.8378 1.64506C14.7159 1.52307 14.5503 1.45453 14.3778 1.45453V1.95453ZM14.2714 1.99861C14.2997 1.97039 14.338 1.95453 14.3778 1.95453V1.45453C14.2053 1.45453 14.0399 1.52307 13.9178 1.64506L14.2714 1.99861ZM12.137 4.13378L14.2714 1.99861L13.9178 1.64506L11.7834 3.78029L12.137 4.13378ZM9.79289 3.5322C10.5175 3.48721 11.2337 3.70846 11.8068 4.15434L12.1138 3.75973C11.4445 3.239 10.6082 2.98062 9.76191 3.03316L9.79289 3.5322ZM7.87136 4.39864C8.38489 3.8853 9.06816 3.57719 9.79289 3.5322L9.76191 3.03316C8.91558 3.0857 8.11755 3.44553 7.51791 4.04503L7.87136 4.39864ZM7.63136 4.63868L7.87136 4.39864L7.51791 4.04503L7.27784 4.28506L7.63136 4.63868ZM7.427 4.94438C7.47435 4.83004 7.5438 4.72616 7.63136 4.63868L7.27784 4.28506C7.14384 4.41898 7.0376 4.57792 6.96506 4.75295L7.427 4.94438ZM7.35522 5.30504C7.35522 5.18127 7.37958 5.05871 7.427 4.94438L6.96506 4.75295C6.89253 4.92797 6.85518 5.11557 6.85518 5.30504H7.35522ZM7.427 5.66569C7.37958 5.55136 7.35522 5.4288 7.35522 5.30504H6.85518C6.85518 5.4945 6.89253 5.6821 6.96506 5.85712L7.427 5.66569ZM7.63144 5.97146C7.54387 5.88398 7.47435 5.78003 7.427 5.66569L6.96506 5.85712C7.0376 6.03215 7.14392 6.19116 7.27791 6.32508L7.63144 5.97146ZM10.5114 8.85144L7.63144 5.97146L7.27791 6.32508L10.1578 9.20504L10.5114 8.85144ZM11.1775 9.12729C10.9277 9.12729 10.6882 9.02809 10.5114 8.85144L10.1578 9.20504C10.4282 9.47537 10.7951 9.62729 11.1775 9.62729V9.12729ZM11.8434 8.85144C11.6669 9.02809 11.4273 9.12729 11.1775 9.12729V9.62729C11.5599 9.62729 11.9266 9.47537 12.197 9.20504L11.8434 8.85144ZM12.0834 8.61144L11.8434 8.85144L12.197 9.20504L12.437 8.96504L12.0834 8.61144ZM12.9503 6.69013C12.9052 7.41481 12.597 8.09806 12.0834 8.61144L12.437 8.96504C13.0367 8.36547 13.3967 7.56752 13.4493 6.72121L12.9503 6.69013ZM12.3285 4.67613C12.7743 5.24925 12.9954 5.96545 12.9503 6.69013L13.4493 6.72121C13.5021 5.87489 13.2437 5.03846 12.7231 4.36914L12.3285 4.67613ZM14.4842 2.21146L12.349 4.34583L12.7026 4.69945L14.8378 2.56505L14.4842 2.21146ZM11.4233 8.77769C11.5012 8.74547 11.5719 8.69813 11.6316 8.63857L11.2781 8.28497C11.2649 8.2982 11.2492 8.30867 11.2319 8.3158L11.4233 8.77769ZM11.1775 8.82657C11.262 8.82657 11.3453 8.80998 11.4233 8.77769L11.2319 8.3158C11.2148 8.32293 11.1962 8.32657 11.1775 8.32657V8.82657ZM10.9319 8.77769C11.0098 8.80998 11.0933 8.82657 11.1775 8.82657V8.32657C11.1589 8.32657 11.1405 8.32293 11.1232 8.3158L10.9319 8.77769ZM10.7237 8.63857C10.7832 8.69813 10.854 8.74547 10.9319 8.77769L11.1232 8.3158C11.1061 8.30867 11.0903 8.2982 11.0772 8.28497L10.7237 8.63857ZM7.84336 5.7583L10.7237 8.63857L11.0772 8.28497L9.63718 6.84498L8.19718 5.405L7.84336 5.7583ZM7.65595 5.30497C7.65595 5.47493 7.72336 5.63796 7.84336 5.7583L8.19718 5.405C8.17064 5.37838 8.15595 5.34256 8.15595 5.30497H7.65595ZM7.84358 4.85139C7.72358 4.97174 7.65595 5.13501 7.65595 5.30497H8.15595C8.15595 5.26738 8.17086 5.23132 8.1974 5.2047L7.84358 4.85139ZM8.08358 4.6114L7.84358 4.85139L8.1974 5.2047L8.43718 4.96495L8.08358 4.6114ZM9.96889 3.86436C9.26875 3.85669 8.5934 4.12342 8.08751 4.6075L8.43326 4.9688C8.84467 4.57507 9.39398 4.35809 9.96344 4.36433L9.96889 3.86436ZM11.8335 4.64858C11.3383 4.15353 10.669 3.87203 9.96889 3.86436L9.96344 4.36433C10.533 4.37057 11.0773 4.59952 11.48 5.00217L11.8335 4.64858ZM12.6183 6.51303C12.6103 5.81288 12.3287 5.14363 11.8335 4.64858L11.48 5.00217C11.8828 5.40482 12.1119 5.94916 12.1183 6.51862L12.6183 6.51303ZM11.8754 8.39457C12.3594 7.88856 12.6261 7.21318 12.6183 6.51303L12.1183 6.51862C12.1247 7.08808 11.9077 7.63741 11.5141 8.04897L11.8754 8.39457ZM11.6316 8.63857L11.8717 8.39857L11.5181 8.04497L11.2781 8.28497L11.6316 8.63857ZM5.30544 7.35544C5.55524 7.35544 5.79482 7.45464 5.97147 7.63129L6.32501 7.27769C6.05459 7.00733 5.68784 6.85542 5.30544 6.85542V7.35544ZM4.6394 7.63129C4.81605 7.45464 5.05563 7.35544 5.30544 7.35544V6.85542C4.92304 6.85542 4.55629 7.00731 4.28587 7.27769L4.6394 7.63129ZM4.3994 7.87129L4.6394 7.63129L4.28587 7.27769L4.04586 7.51769L4.3994 7.87129ZM3.53259 9.7926C3.57771 9.06787 3.88596 8.38467 4.3994 7.87129L4.04586 7.51769C3.44623 8.11726 3.08625 8.91522 3.03355 9.76155L3.53259 9.7926ZM4.15437 11.8066C3.70858 11.2335 3.48746 10.5173 3.53259 9.7926L3.03355 9.76155C2.98086 10.6079 3.23908 11.4442 3.7597 12.1135L4.15437 11.8066ZM1.99858 14.2712L4.13378 12.1369L3.78029 11.7832L1.64509 13.9177L1.99858 14.2712ZM1.95453 14.3777C1.95453 14.3378 1.97036 14.2994 1.99858 14.2712L1.64509 13.9177C1.5231 14.0396 1.45453 14.2052 1.45453 14.3777H1.95453ZM1.99861 14.4842C1.97039 14.4559 1.95453 14.4175 1.95453 14.3777H1.45453C1.45453 14.5503 1.52307 14.7157 1.64506 14.8377L1.99861 14.4842ZM2.10504 14.5282C2.06512 14.5282 2.02684 14.5124 1.99861 14.4842L1.64506 14.8377C1.76705 14.9597 1.93251 15.0282 2.10504 15.0282V14.5282ZM2.21146 14.4842C2.18323 14.5124 2.14495 14.5282 2.10504 14.5282V15.0282C2.27757 15.0282 2.44302 14.9597 2.56501 14.8377L2.21146 14.4842ZM4.34583 12.349L2.21146 14.4842L2.56501 14.8377L4.69945 12.7024L4.34583 12.349ZM6.69013 12.9501C5.96544 12.9953 5.24925 12.7741 4.67613 12.3284L4.36914 12.7231C5.03846 13.2437 5.87489 13.5018 6.72121 13.4492L6.69013 12.9501ZM8.61144 12.0834C8.09806 12.5967 7.41481 12.905 6.69013 12.9501L6.72121 13.4492C7.56752 13.3965 8.36547 13.0365 8.96504 12.4369L8.61144 12.0834ZM8.85144 11.8434L8.61144 12.0834L8.96504 12.4369L9.20504 12.1968L8.85144 11.8434ZM9.12729 11.1773C9.12729 11.4271 9.02809 11.6666 8.85144 11.8434L9.20504 12.1968C9.47536 11.9264 9.62729 11.5597 9.62729 11.1773H9.12729ZM8.85144 10.5113C9.02809 10.6879 9.12729 10.9274 9.12729 11.1773H9.62729C9.62729 10.7949 9.47536 10.4282 9.20504 10.1578L8.85144 10.5113ZM5.97147 7.63129L8.85144 10.5113L9.20504 10.1578L6.32501 7.27769L5.97147 7.63129ZM5.05974 7.70497C4.98184 7.73718 4.91107 7.78453 4.85145 7.84409L5.20501 8.19769C5.2182 8.18446 5.23386 8.17398 5.25109 8.16686L5.05974 7.70497ZM5.30544 7.65609C5.22112 7.65609 5.13763 7.67267 5.05974 7.70497L5.25109 8.16686C5.26832 8.15973 5.28679 8.15602 5.30544 8.15602V7.65609ZM5.55113 7.70497C5.47324 7.67267 5.38975 7.65609 5.30544 7.65609V8.15602C5.32408 8.15602 5.34255 8.15973 5.35978 8.16686L5.55113 7.70497ZM5.75942 7.84409C5.6998 7.78453 5.62903 7.73718 5.55113 7.70497L5.35978 8.16686C5.37701 8.17398 5.39266 8.18446 5.40585 8.19762L5.75942 7.84409ZM8.63966 10.7244L5.75942 7.84409L5.40585 8.19762L8.28584 11.0776L8.63966 10.7244ZM8.82707 11.1777C8.82707 11.0077 8.75966 10.8447 8.63966 10.7244L8.28584 11.0776C8.31238 11.1042 8.32707 11.1401 8.32707 11.1777H8.82707ZM8.63944 11.6313C8.75944 11.5109 8.82707 11.3477 8.82707 11.1777H8.32707C8.32707 11.2153 8.31216 11.2514 8.28562 11.278L8.63944 11.6313ZM8.39944 11.8713L8.63944 11.6313L8.28562 11.278L8.04584 11.5178L8.39944 11.8713ZM7.53063 12.4519C7.85555 12.3173 8.15078 12.1199 8.39944 11.8713L8.04584 11.5178C7.84362 11.72 7.60349 11.8805 7.33923 11.99L7.53063 12.4519ZM6.50575 12.6559C6.85744 12.6559 7.20571 12.5866 7.53063 12.4519L7.33923 11.99C7.07497 12.0994 6.79173 12.1559 6.50569 12.1559L6.50575 12.6559ZM5.48082 12.4522C5.80576 12.5866 6.15404 12.6559 6.50575 12.6559L6.50569 12.1559C6.21964 12.1559 5.93639 12.0997 5.67211 11.9901L5.48082 12.4522ZM4.61188 11.8717C4.8606 12.1204 5.15587 12.3175 5.48082 12.4522L5.67211 11.9901C5.40782 11.8807 5.16768 11.7204 4.96539 11.5181L4.61188 11.8717ZM4.03122 11.0029C4.16585 11.3277 4.36316 11.6231 4.61188 11.8717L4.96539 11.5181C4.7631 11.3159 4.60263 11.0757 4.49313 10.8114L4.03122 11.0029ZM3.82723 9.97798C3.82727 10.3298 3.89659 10.678 4.03122 11.0029L4.49313 10.8114C4.38364 10.5472 4.32726 10.2639 4.32723 9.97798H3.82723ZM4.61146 8.08409C4.10926 8.58642 3.82715 9.26773 3.82723 9.97798H4.32723C4.32716 9.40024 4.55659 8.8462 4.96503 8.43762L4.61146 8.08409ZM4.85145 7.84409L4.61146 8.08409L4.96503 8.43762L5.20501 8.19769L4.85145 7.84409Z" fill="url(#paint1_linear_167_278)"/>
<defs>
<linearGradient id="paint0_linear_167_278" x1="4.15587" y1="13.9601" x2="12.3261" y2="4.15487" gradientUnits="userSpaceOnUse">
<stop stop-color="#FF8860"/>
<stop offset="1" stop-color="#FBD92C"/>
</linearGradient>
<linearGradient id="paint1_linear_167_278" x1="3.99963" y1="14.1788" x2="12.4823" y2="3.9986" gradientUnits="userSpaceOnUse">
<stop stop-color="#FF8860"/>
<stop offset="1" stop-color="#FBD92C"/>
</linearGradient>
</defs>
</svg>
