<svg width="22" height="22" viewBox="0 0 22 22" fill="none" xmlns="http://www.w3.org/2000/svg">
<path d="M10.0063 13.8056L10.6356 13.9216L10.0063 13.8047V13.8056ZM7.47882 14.3973L6.85123 14.2788L7.47967 14.3982L7.47882 14.3973ZM3.11208 11.0002C3.11208 8.90825 3.94309 6.90199 5.4223 5.42279C6.90151 3.94358 8.90776 3.11257 10.9997 3.11257V1.8335C5.93626 1.8335 1.83301 5.93675 1.83301 11.0002H3.11208ZM6.48797 17.4612C4.44657 16.0328 3.11208 13.6751 3.11208 11.0002H1.83301C1.83301 14.1125 3.38921 16.854 5.75549 18.5091L6.48797 17.4612ZM6.85123 14.2788L6.23642 17.5447L7.49331 17.7818L8.10727 14.5159L6.85123 14.2788ZM5.67022 11.0002C5.67022 12.2741 6.1196 13.4432 6.86487 14.3582L7.85572 13.5506C7.26776 12.8308 6.94744 11.9296 6.94929 11.0002H5.67022ZM10.9997 5.67071C9.58617 5.67071 8.23064 6.2322 7.23118 7.23166C6.23172 8.23113 5.67022 9.58666 5.67022 11.0002H6.94929C6.94929 9.92592 7.37603 8.8957 8.13561 8.1361C8.89521 7.37652 9.92543 6.94978 10.9997 6.94978V5.67071ZM16.3292 11.0002C16.3292 9.58666 15.7676 8.23113 14.7682 7.23166C13.7686 6.2322 12.4132 5.67071 10.9997 5.67071V6.94978C12.0739 6.94978 13.1042 7.37652 13.8638 8.1361C14.6233 8.8957 15.0501 9.92592 15.0501 11.0002H16.3292ZM15.1353 14.3582C15.9091 13.4103 16.3309 12.2238 16.3292 11.0002H15.0501C15.0517 11.9293 14.7314 12.8303 14.1437 13.5498L15.1353 14.3582ZM15.763 17.5447L15.1481 14.2788L13.8912 14.5159L14.5052 17.7818L15.763 17.5447ZM18.8873 11.0002C18.8873 13.6751 17.5527 16.0328 15.5114 17.4612L16.2448 18.51C18.611 16.8532 20.1663 14.1125 20.1663 11.0002H18.8873ZM10.9997 3.11257C13.0916 3.11257 15.0978 3.94358 16.577 5.42279C18.0562 6.90199 18.8873 8.90825 18.8873 11.0002H20.1663C20.1663 5.93675 16.0631 1.8335 10.9997 1.8335V3.11257ZM14.1974 11.0002C14.1974 10.1521 13.8604 9.3387 13.2608 8.73907C12.6611 8.13938 11.8478 7.80249 10.9997 7.80249V9.08156C11.5085 9.08156 11.9965 9.2837 12.3563 9.6435C12.7161 10.0034 12.9183 10.4913 12.9183 11.0002H14.1974ZM12.6241 13.7527C13.1033 13.4707 13.5005 13.0683 13.7764 12.5854C14.0524 12.1027 14.1975 11.5562 14.1974 11.0002H12.9183C12.9183 11.702 12.5405 12.3168 11.9734 12.651L12.6241 13.7527ZM13.5475 18.6873L12.6224 13.6887L11.3646 13.9216L12.2898 18.9202L13.5475 18.6873ZM10.9997 20.1668C11.5667 20.1668 12.1167 20.1097 12.6497 20.0108L12.4152 18.7539C11.9485 18.8421 11.4746 18.8868 10.9997 18.8878V20.1668ZM9.34793 20.0099C9.88088 20.1097 10.4318 20.1668 10.9997 20.1668V18.8878C10.5247 18.8866 10.0507 18.8413 9.58416 18.7521L9.34793 20.0099ZM9.37782 13.6887L8.45262 18.6865L9.71038 18.9193L10.6356 13.9216L9.37782 13.6887ZM7.802 11.0002C7.802 12.1743 8.43642 13.1984 9.37607 13.7527L10.0259 12.651C9.73816 12.482 9.49964 12.2408 9.33391 11.9512C9.16817 11.6617 9.08104 11.3338 9.08107 11.0002H7.802ZM10.9997 7.80249C10.1516 7.80249 9.33822 8.13938 8.73858 8.73907C8.1389 9.3387 7.802 10.1521 7.802 11.0002H9.08107C9.08107 10.4913 9.28322 10.0034 9.64301 9.6435C10.0029 9.2837 10.4908 9.08156 10.9997 9.08156V7.80249ZM10.6356 13.9216C10.7396 13.3571 10.4147 12.8813 10.0259 12.651L9.37607 13.7527C9.37919 13.7547 9.38203 13.7569 9.3846 13.7595C9.38634 13.7629 9.38717 13.7621 9.3846 13.7595C9.38075 13.7514 9.37818 13.742 9.37699 13.7331C9.37442 13.7184 9.37525 13.7034 9.37782 13.6887L10.6356 13.9216ZM9.58416 18.7521C9.68563 18.7718 9.72065 18.8621 9.71038 18.9193L8.45262 18.6865C8.34262 19.2783 8.7127 19.8905 9.34793 20.0099L9.58416 18.7521ZM14.5052 17.7818C14.6485 18.5424 15.5396 19.0028 16.2456 18.5091L15.5114 17.4612C15.5359 17.4449 15.5649 17.4349 15.5942 17.432C15.6235 17.4292 15.653 17.4336 15.6802 17.445C15.7245 17.4646 15.7553 17.5046 15.763 17.5447L14.5052 17.7818ZM8.10727 14.5159C8.17549 14.1552 8.06464 13.8064 7.85572 13.5506L6.86487 14.3582C6.8589 14.3513 6.8427 14.324 6.85123 14.2788L8.10727 14.5159ZM11.9734 12.651C11.5846 12.8813 11.2597 13.3571 11.3646 13.9216L12.6224 13.6887C12.625 13.7037 12.625 13.719 12.6224 13.7339C12.6211 13.7426 12.6185 13.7508 12.6147 13.7587C12.6122 13.7613 12.613 13.7621 12.6147 13.7587C12.6173 13.756 12.621 13.7546 12.6241 13.7527L11.9734 12.651ZM14.1437 13.5498C13.9347 13.8056 13.8238 14.1552 13.8912 14.5159L15.1481 14.2788C15.1567 14.3249 15.1413 14.3513 15.1353 14.3582L14.1437 13.5498ZM12.2898 18.9202C12.2847 18.8816 12.2949 18.8425 12.3184 18.8114C12.3419 18.7802 12.3766 18.7596 12.4152 18.7539L12.6497 20.0108C13.2849 19.8923 13.6567 19.28 13.5475 18.6873L12.2898 18.9202ZM5.75549 18.5091C6.46068 19.0028 7.34921 18.5416 7.49331 17.7818L6.23642 17.5447C6.24114 17.5225 6.25112 17.5027 6.26551 17.4852C6.2799 17.4676 6.2983 17.454 6.31913 17.445C6.34649 17.4336 6.37623 17.4293 6.4057 17.4322C6.43516 17.4352 6.46343 17.4446 6.48797 17.4612L5.75549 18.5091Z" fill="url(#paint0_linear_451_2622)"/>
<path d="M10.6356 13.9216L10.0063 13.8056V13.8047L10.6356 13.9216ZM10.6356 13.9216L9.71038 18.9193M10.6356 13.9216L9.37782 13.6887M10.6356 13.9216C10.7396 13.3571 10.4147 12.8813 10.0259 12.651M9.71038 18.9193C9.72065 18.8621 9.68563 18.7718 9.58416 18.7521M9.71038 18.9193L9.08107 18.8034M9.71038 18.9193L8.45262 18.6865M9.37782 13.6887L8.45262 18.6865M9.37782 13.6887C9.37525 13.7034 9.37442 13.7184 9.37699 13.7331C9.37818 13.742 9.38075 13.7506 9.3846 13.7587M10.0259 12.651L9.70103 13.2019M10.0259 12.651L9.37607 13.7527M10.0259 12.651C9.73816 12.482 9.49964 12.2408 9.33391 11.9512C9.16817 11.6617 9.08104 11.3338 9.08107 11.0002M9.37607 13.7527C9.37919 13.7547 9.38203 13.756 9.3846 13.7587M9.37607 13.7527C8.43642 13.1984 7.802 12.1743 7.802 11.0002M9.08107 11.0002C9.08107 10.4913 9.28322 10.0034 9.64301 9.6435C10.0029 9.2837 10.4908 9.08156 10.9997 9.08156M9.08107 11.0002H7.802M9.46646 19.3815L9.58416 18.7521M9.58416 18.7521C10.0507 18.8413 10.5247 18.8866 10.9997 18.8878M9.58416 18.7521L9.34793 20.0099M10.9997 18.8878V20.1668M10.9997 18.8878C11.4746 18.8868 11.9485 18.8421 12.4152 18.7539M9.34793 20.0099C9.88088 20.1097 10.4318 20.1668 10.9997 20.1668M9.34793 20.0099C8.7127 19.8905 8.34262 19.2783 8.45262 18.6865M15.763 17.5447L15.1345 17.6632M15.763 17.5447L15.1481 14.2788M15.763 17.5447L14.5052 17.7818M15.763 17.5447C15.7553 17.5046 15.7245 17.4646 15.6802 17.445C15.653 17.4336 15.6235 17.4292 15.5942 17.432C15.5649 17.4349 15.5359 17.4449 15.5114 17.4612M15.1481 14.2788L14.5197 14.3973M15.1481 14.2788L13.8912 14.5159M15.1481 14.2788C15.1567 14.3249 15.1413 14.3513 15.1353 14.3582M14.5052 17.7818C14.6485 18.5424 15.5396 19.0028 16.2456 18.5091L15.5114 17.4612M14.5052 17.7818L13.8912 14.5159M15.5114 17.4612L15.8781 17.9856M15.5114 17.4612C17.5527 16.0328 18.8873 13.6751 18.8873 11.0002M15.5114 17.4612L16.2448 18.51C18.611 16.8532 20.1663 14.1125 20.1663 11.0002M18.8873 11.0002C18.8873 8.90825 18.0562 6.90199 16.577 5.42279C15.0978 3.94358 13.0916 3.11257 10.9997 3.11257M18.8873 11.0002H20.1663M20.1663 11.0002C20.1663 5.93675 16.0631 1.8335 10.9997 1.8335M6.85123 14.2788L7.47882 14.3973L7.47967 14.3982L6.85123 14.2788ZM6.85123 14.2788L6.23642 17.5447M6.85123 14.2788L8.10727 14.5159M6.85123 14.2788C6.8427 14.324 6.8589 14.3513 6.86487 14.3582M6.23642 17.5447L7.49331 17.7818M6.23642 17.5447C6.24114 17.5225 6.25112 17.5027 6.26551 17.4852C6.2799 17.4676 6.2983 17.454 6.31913 17.445C6.34649 17.4336 6.37623 17.4293 6.4057 17.4322C6.43516 17.4352 6.46343 17.4446 6.48797 17.4612M7.49331 17.7818L8.10727 14.5159M7.49331 17.7818C7.34921 18.5416 6.46068 19.0028 5.75549 18.5091M8.10727 14.5159C8.17549 14.1552 8.06464 13.8056 7.85572 13.5498M6.86487 14.3582L7.85572 13.5498M6.86487 14.3582L7.3603 13.9539M6.86487 14.3582C6.1196 13.4432 5.67022 12.2741 5.67022 11.0002M7.85572 13.5498C7.26776 12.83 6.94744 11.9296 6.94929 11.0002M5.67022 11.0002H6.94929M5.67022 11.0002C5.67022 9.58666 6.23172 8.23113 7.23118 7.23166C8.23064 6.2322 9.58617 5.67071 10.9997 5.67071M6.94929 11.0002C6.94929 9.92592 7.37603 8.8957 8.13561 8.1361C8.89521 7.37652 9.92543 6.94978 10.9997 6.94978M12.2983 13.2019L12.6241 13.7527M12.6241 13.7527C13.1033 13.4707 13.5005 13.0683 13.7764 12.5854C14.0524 12.1027 14.1975 11.5562 14.1974 11.0002M12.6241 13.7527L11.9734 12.651M12.6241 13.7527C12.621 13.7546 12.6173 13.7569 12.6147 13.7595M14.1974 11.0002C14.1974 10.1521 13.8604 9.3387 13.2608 8.73907C12.6611 8.13938 11.8478 7.80249 10.9997 7.80249M14.1974 11.0002H12.9183M11.9734 12.651C12.5405 12.3168 12.9183 11.702 12.9183 11.0002M11.9734 12.651C11.5846 12.8813 11.2597 13.3571 11.3646 13.9216M12.6147 13.7595C12.6122 13.7621 12.613 13.7629 12.6147 13.7595ZM12.6147 13.7595C12.6185 13.7516 12.6211 13.7426 12.6224 13.7339C12.625 13.719 12.625 13.7037 12.6224 13.6887M12.6224 13.6887L11.9931 13.8047M12.6224 13.6887L13.5475 18.6873M12.6224 13.6887L11.3646 13.9216M13.5475 18.6873L12.2898 18.9202M13.5475 18.6873C13.6567 19.28 13.2849 19.8923 12.6497 20.0108M11.3646 13.9216L12.2898 18.9202M14.639 13.9539L14.1437 13.5506M14.1437 13.5506C13.9347 13.8064 13.8238 14.1552 13.8912 14.5159M14.1437 13.5506L15.1353 14.3582M14.1437 13.5506C14.7314 12.8311 15.0517 11.9293 15.0501 11.0002M15.1353 14.3582C15.9091 13.4103 16.3309 12.2238 16.3292 11.0002M12.9183 18.8034L12.2898 18.9202M12.2898 18.9202C12.2847 18.8816 12.2949 18.8425 12.3184 18.8114C12.3419 18.7802 12.3766 18.7596 12.4152 18.7539M12.4152 18.7539L12.6497 20.0108M12.532 19.3823L12.6497 20.0108M12.6497 20.0108C12.1167 20.1097 11.5667 20.1668 10.9997 20.1668M6.12216 17.9856L5.75549 18.5091M5.75549 18.5091C3.38921 16.854 1.83301 14.1125 1.83301 11.0002M5.75549 18.5091L6.48797 17.4612M1.83301 11.0002H3.11208M1.83301 11.0002C1.83301 5.93675 5.93626 1.8335 10.9997 1.8335M6.48797 17.4612C4.44657 16.0328 3.11208 13.6751 3.11208 11.0002M3.11208 11.0002C3.11208 8.90825 3.94309 6.90199 5.4223 5.42279C6.90151 3.94358 8.90776 3.11257 10.9997 3.11257M10.9997 3.11257V1.8335M10.9997 5.67071V6.94978M10.9997 5.67071C12.4132 5.67071 13.7686 6.2322 14.7682 7.23166C15.7676 8.23113 16.3292 9.58666 16.3292 11.0002M10.9997 6.94978C12.0739 6.94978 13.1042 7.37652 13.8638 8.1361C14.6233 8.8957 15.0501 9.92592 15.0501 11.0002M16.3292 11.0002H15.0501M10.9997 7.80249V9.08156M10.9997 7.80249C10.1516 7.80249 9.33822 8.13938 8.73858 8.73907C8.1389 9.3387 7.802 10.1521 7.802 11.0002M12.9183 11.0002C12.9183 10.4913 12.7161 10.0034 12.3563 9.6435C11.9965 9.2837 11.5085 9.08156 10.9997 9.08156M9.3846 13.7587C9.38634 13.7621 9.38717 13.7613 9.3846 13.7587Z" stroke="url(#paint1_linear_451_2622)" stroke-width="0.6"/>
<defs>
<linearGradient id="paint0_linear_451_2622" x1="10.9997" y1="20.1668" x2="10.9997" y2="1.8335" gradientUnits="userSpaceOnUse">
<stop stop-color="#5570FF"/>
<stop offset="1" stop-color="#4DD3FF"/>
</linearGradient>
<linearGradient id="paint1_linear_451_2622" x1="10.9997" y1="20.1668" x2="10.9997" y2="1.8335" gradientUnits="userSpaceOnUse">
<stop stop-color="#5570FF"/>
<stop offset="1" stop-color="#4DD3FF"/>
</linearGradient>
</defs>
</svg>
