<svg width="22" height="22" viewBox="0 0 22 22" fill="none" xmlns="http://www.w3.org/2000/svg">
<path fill-rule="evenodd" clip-rule="evenodd" d="M11.4125 3.27725C9.49795 3.27725 7.66185 4.03779 6.30807 5.39157C4.9543 6.74534 4.19375 8.58146 4.19375 10.496V10.7366C4.19375 10.9281 4.11769 11.1117 3.98232 11.247C3.84694 11.3824 3.66333 11.4585 3.47187 11.4585C3.28042 11.4585 3.09681 11.3824 2.96143 11.247C2.82606 11.1117 2.75 10.9281 2.75 10.7366V10.496C2.75 8.19855 3.66265 5.99522 5.28719 4.37068C6.91172 2.74615 9.11506 1.8335 11.4125 1.8335C13.7099 1.8335 15.9132 2.74615 17.5378 4.37068C19.1624 5.99522 20.075 8.19855 20.075 10.496V10.7366C20.075 10.9281 19.9989 11.1117 19.8635 11.247C19.7282 11.3824 19.5446 11.4585 19.3531 11.4585C19.1616 11.4585 18.978 11.3824 18.8427 11.247C18.7073 11.1117 18.6313 10.9281 18.6313 10.7366V10.496C18.6313 8.58146 17.8707 6.74534 16.517 5.39157C15.1631 4.03779 13.327 3.27725 11.4125 3.27725ZM11.4125 6.16476C10.2638 6.16476 9.16211 6.6211 8.34984 7.43336C7.53758 8.24563 7.08125 9.34732 7.08125 10.496V10.7366C7.08125 10.9281 7.00519 11.1117 6.86982 11.2471C6.73444 11.3825 6.55083 11.4585 6.35937 11.4585C6.16792 11.4585 5.98431 11.3825 5.84893 11.2471C5.71356 11.1117 5.6375 10.9281 5.6375 10.7366V10.496C5.6375 8.96439 6.24594 7.4955 7.32896 6.41248C8.41198 5.32945 9.88084 4.72101 11.4125 4.72101C12.9442 4.72101 14.413 5.32945 15.4961 6.41248C16.5791 7.4955 17.1875 8.96439 17.1875 10.496V10.7366C17.1875 10.9281 17.1114 11.1117 16.976 11.2471C16.8407 11.3825 16.6571 11.4585 16.4656 11.4585C16.2741 11.4585 16.0905 11.3825 15.9552 11.2471C15.8198 11.1117 15.7437 10.9281 15.7437 10.7366V10.496C15.7437 9.34732 15.2874 8.24563 14.4752 7.43336C13.6629 6.6211 12.5612 6.16476 11.4125 6.16476ZM9.50308 8.32908C10.0306 7.86446 10.7095 7.60825 11.4125 7.60849C12.1144 7.61007 12.7917 7.8672 13.3179 8.33179C13.844 8.7964 14.1829 9.4367 14.2714 10.133C14.3599 10.8293 14.1917 11.534 13.7984 12.1154C13.4051 12.6967 12.8136 13.115 12.1344 13.292V15.3085H17.1875C17.9533 15.3085 18.6877 15.6127 19.2293 16.1542C19.7708 16.6957 20.075 17.4302 20.075 18.196C20.075 18.9618 19.7708 19.6962 19.2293 20.2378C18.6877 20.7793 17.9533 21.0835 17.1875 21.0835H5.6375C4.87169 21.0835 4.13724 20.7793 3.59573 20.2378C3.05421 19.6962 2.75 18.9618 2.75 18.196C2.75 17.4302 3.05421 16.6957 3.59573 16.1542C4.13724 15.6127 4.87169 15.3085 5.6375 15.3085H10.6906V13.292C10.0099 13.1166 9.41664 12.6987 9.02197 12.117C8.62733 11.5352 8.45846 10.8296 8.54704 10.1322C8.63561 9.43477 8.97553 8.79369 9.50308 8.32908ZM10.3916 9.4751C10.1208 9.74589 9.96875 10.1131 9.96875 10.496C9.96875 10.8789 10.1208 11.2461 10.3916 11.5169C10.6624 11.7877 11.0296 11.9397 11.4125 11.9397C11.7954 11.9397 12.1626 11.7877 12.4334 11.5169C12.7042 11.2461 12.8562 10.8789 12.8562 10.496C12.8562 10.1131 12.7042 9.74589 12.4334 9.4751C12.1626 9.20432 11.7954 9.05224 11.4125 9.05224C11.0296 9.05224 10.6624 9.20432 10.3916 9.4751ZM18.2084 17.1751C17.9376 16.9043 17.5704 16.7522 17.1875 16.7522H5.6375C5.25459 16.7522 4.88737 16.9043 4.61662 17.1751C4.34586 17.4459 4.19375 17.8131 4.19375 18.196C4.19375 18.5789 4.34586 18.9461 4.61662 19.2169C4.88737 19.4876 5.25459 19.6397 5.6375 19.6397H17.1875C17.5704 19.6397 17.9376 19.4876 18.2084 19.2169C18.4792 18.9461 18.6313 18.5789 18.6313 18.196C18.6313 17.8131 18.4792 17.4459 18.2084 17.1751Z" fill="url(#paint0_linear_451_2628)"/>
<defs>
<linearGradient id="paint0_linear_451_2628" x1="11.4125" y1="21.0835" x2="11.4125" y2="1.8335" gradientUnits="userSpaceOnUse">
<stop stop-color="#A93AFF"/>
<stop offset="1" stop-color="#FF81FF"/>
</linearGradient>
</defs>
</svg>
