<svg width="22" height="22" viewBox="0 0 22 22" fill="none" xmlns="http://www.w3.org/2000/svg">
<path fill-rule="evenodd" clip-rule="evenodd" d="M20.1902 2.3151C20.2935 2.21182 20.3515 2.07175 20.3515 1.9257C20.3515 1.77963 20.2935 1.63956 20.1902 1.5363C20.087 1.43303 19.9469 1.375 19.8008 1.375C19.6548 1.375 19.5147 1.43303 19.4114 1.5363L16.4766 4.4722C15.6226 3.80765 14.5552 3.47791 13.4752 3.54496C12.3951 3.612 11.3767 4.07122 10.6114 4.8363L10.2814 5.1663C10.1291 5.31851 10.0082 5.49924 9.92578 5.69818C9.84334 5.89711 9.8009 6.11035 9.8009 6.3257C9.8009 6.54104 9.84334 6.75428 9.92578 6.95321C10.0082 7.15214 10.1291 7.33289 10.2814 7.4851L14.2414 11.4451C14.5487 11.7524 14.9656 11.925 15.4003 11.925C15.8349 11.925 16.2518 11.7524 16.5591 11.4451L16.8891 11.1151C17.6543 10.3499 18.1137 9.33163 18.1811 8.25157C18.2483 7.17151 17.9187 6.10406 17.2543 5.2499L20.1902 2.3151ZM15.7816 10.6662C15.7315 10.7163 15.6721 10.756 15.6068 10.7831C15.5413 10.8102 15.4712 10.8241 15.4004 10.8241C15.3297 10.8241 15.2596 10.8102 15.1942 10.7831C15.1288 10.756 15.0693 10.7163 15.0193 10.6662L11.0593 6.70621C10.9586 6.60517 10.902 6.4683 10.902 6.32561C10.902 6.18292 10.9586 6.04604 11.0593 5.945L11.3893 5.61501C12.02 5.0115 12.8619 4.67893 13.7348 4.68849C14.6076 4.69806 15.4421 5.049 16.0593 5.66617C16.6767 6.28334 17.0279 7.11767 17.0376 7.99054C17.0474 8.86339 16.7149 9.70538 16.1116 10.3362L15.7816 10.6662ZM7.4851 10.2812C7.17773 9.97388 6.76089 9.80123 6.32625 9.80123C5.8916 9.80123 5.47476 9.97388 5.1674 10.2812L4.8374 10.6112C4.07216 11.3764 3.61274 12.3947 3.54549 13.4747C3.47824 14.5548 3.80779 15.6222 4.4722 16.4763L1.5363 19.4111C1.43303 19.5144 1.375 19.6545 1.375 19.8006C1.375 19.9467 1.43303 20.0867 1.5363 20.19C1.63956 20.2932 1.77963 20.3512 1.9257 20.3512C2.07175 20.3512 2.21182 20.2932 2.3151 20.19L5.2499 17.254C6.10406 17.9184 7.17151 18.248 8.25157 18.1808C9.33163 18.1136 10.3499 17.6542 11.1151 16.8888L11.4451 16.5588C11.7524 16.2515 11.925 15.8346 11.925 15.4C11.925 14.9654 11.7524 14.5486 11.4451 14.2411L7.4851 10.2812ZM5.9451 11.06C5.99515 11.0099 6.05457 10.9702 6.11996 10.9431C6.18537 10.916 6.25545 10.9021 6.32625 10.9021C6.39704 10.9021 6.46712 10.916 6.53253 10.9431C6.59792 10.9702 6.65734 11.0099 6.7074 11.06L10.6674 15.02C10.7681 15.121 10.8247 15.258 10.8247 15.4006C10.8247 15.5433 10.7681 15.6801 10.6674 15.7811L10.3374 16.1112C10.0274 16.4212 9.65936 16.6672 9.2543 16.8351C8.84924 17.003 8.41508 17.0893 7.97664 17.0893C7.53818 17.0895 7.10401 17.0031 6.6989 16.8354C6.29382 16.6676 5.92571 16.4218 5.61565 16.1117C5.30557 15.8018 5.0596 15.4337 4.89176 15.0286C4.72392 14.6235 4.63752 14.1894 4.63746 13.751C4.63737 12.8655 4.98902 12.0162 5.6151 11.39L5.9451 11.06ZM5.81903 4.72546C5.78671 4.69348 5.7431 4.67554 5.69763 4.67554C5.65217 4.67554 5.60856 4.69348 5.57624 4.72546L4.72546 5.57624C4.69348 5.60856 4.67554 5.65217 4.67554 5.69763C4.67554 5.7431 4.69348 5.78671 4.72546 5.81903L16.6364 17.7299C16.703 17.7966 16.8125 17.7966 16.8792 17.7299L17.7299 16.8792C17.7966 16.8125 17.7966 16.703 17.7299 16.6364L5.81903 4.72546Z" fill="url(#paint0_linear_451_2634)"/>
<path d="M16.4766 4.4722L16.2656 4.74349L16.5051 4.92993L16.7197 4.71522L16.4766 4.4722ZM17.2543 5.2499L17.0112 5.00679L16.7966 5.22137L16.983 5.46095L17.2543 5.2499ZM11.3893 5.61501L11.1516 5.36658L11.1462 5.37195L11.3893 5.61501ZM16.1116 10.3362L16.3548 10.5793L16.36 10.5738L16.1116 10.3362ZM4.4722 16.4763L4.71522 16.7195L4.92988 16.505L4.74353 16.2653L4.4722 16.4763ZM5.2499 17.254L5.46095 16.9828L5.22137 16.7965L5.00679 17.0111L5.2499 17.254ZM5.81903 4.72546L6.06209 4.48239L6.06089 4.48121L5.81903 4.72546ZM5.57624 4.72546L5.33438 4.48119L5.33318 4.4824L5.57624 4.72546ZM4.72546 5.57624L4.48239 5.33317L4.48121 5.33438L4.72546 5.57624ZM4.72546 5.81903L4.48119 6.06089L4.4824 6.06209L4.72546 5.81903ZM20.0078 1.9257C20.0078 1.98058 19.9859 2.03323 19.9471 2.07203L20.4332 2.55822C20.6009 2.39048 20.6953 2.16292 20.6953 1.9257H20.0078ZM19.9471 1.77936C19.9859 1.81818 20.0078 1.87081 20.0078 1.9257H20.6953C20.6953 1.68847 20.6011 1.46096 20.4333 1.29323L19.9471 1.77936ZM19.8008 1.71875C19.8557 1.71875 19.9083 1.74056 19.9471 1.77936L20.4333 1.29323C20.2656 1.12549 20.038 1.03125 19.8008 1.03125V1.71875ZM19.6545 1.77936C19.6933 1.74056 19.746 1.71875 19.8008 1.71875V1.03125C19.5636 1.03125 19.3361 1.12549 19.1683 1.29323L19.6545 1.77936ZM16.7197 4.71522L19.6545 1.77936L19.1683 1.29323L16.2335 4.22917L16.7197 4.71522ZM13.4965 3.88805C14.4929 3.82619 15.4776 4.1304 16.2656 4.74349L16.6877 4.2009C15.7675 3.4849 14.6175 3.12962 13.4539 3.20187L13.4965 3.88805ZM10.8544 5.0794C11.5605 4.37356 12.5 3.94991 13.4965 3.88805L13.4539 3.20187C12.2902 3.27411 11.1929 3.76888 10.3684 4.59319L10.8544 5.0794ZM10.5244 5.40946L10.8544 5.0794L10.3684 4.59319L10.0383 4.92323L10.5244 5.40946ZM10.2434 5.82979C10.3085 5.67258 10.404 5.52974 10.5244 5.40946L10.0383 4.92323C9.85406 5.10737 9.70797 5.32591 9.60823 5.56658L10.2434 5.82979ZM10.1447 6.3257C10.1447 6.15552 10.1782 5.987 10.2434 5.82979L9.60823 5.56658C9.5085 5.80723 9.45715 6.06518 9.45715 6.3257H10.1447ZM10.2434 6.8216C10.1782 6.66439 10.1447 6.49587 10.1447 6.3257H9.45715C9.45715 6.58621 9.5085 6.84416 9.60823 7.08481L10.2434 6.8216ZM10.5245 7.24203C10.4041 7.12174 10.3085 6.97881 10.2434 6.8216L9.60823 7.08481C9.70797 7.32548 9.85416 7.54412 10.0384 7.72826L10.5245 7.24203ZM14.4845 11.202L10.5245 7.24203L10.0384 7.72826L13.9983 11.6882L14.4845 11.202ZM15.4003 11.5813C15.0568 11.5813 14.7275 11.4449 14.4845 11.202L13.9983 11.6882C14.3701 12.0599 14.8745 12.2688 15.4003 12.2688V11.5813ZM16.316 11.202C16.0732 11.4449 15.7438 11.5813 15.4003 11.5813V12.2688C15.9261 12.2688 16.4303 12.0599 16.8021 11.6882L16.316 11.202ZM16.646 10.872L16.316 11.202L16.8021 11.6882L17.1322 11.3582L16.646 10.872ZM17.8379 8.2302C17.7759 9.22664 17.3521 10.1661 16.646 10.872L17.1322 11.3582C17.9567 10.5338 18.4517 9.43661 18.5241 8.27293L17.8379 8.2302ZM16.983 5.46095C17.5959 6.24899 17.9 7.23376 17.8379 8.2302L18.5241 8.27293C18.5966 7.10924 18.2414 5.95915 17.5256 5.03884L16.983 5.46095ZM19.9471 2.07203L17.0112 5.00679L17.4973 5.49302L20.4332 2.55822L19.9471 2.07203ZM15.7383 11.1006C15.8454 11.0563 15.9427 10.9912 16.0247 10.9093L15.5386 10.4231C15.5205 10.4413 15.4989 10.4557 15.4752 10.4655L15.7383 11.1006ZM15.4004 11.1678C15.5165 11.1678 15.6311 11.145 15.7383 11.1006L15.4752 10.4655C15.4516 10.4753 15.4261 10.4803 15.4004 10.4803V11.1678ZM15.0626 11.1006C15.1697 11.145 15.2845 11.1678 15.4004 11.1678V10.4803C15.3748 10.4803 15.3494 10.4753 15.3257 10.4655L15.0626 11.1006ZM14.7763 10.9093C14.8582 10.9912 14.9555 11.0563 15.0626 11.1006L15.3257 10.4655C15.3021 10.4557 15.2805 10.4413 15.2624 10.4231L14.7763 10.9093ZM10.8159 6.94893L14.7763 10.9093L15.2624 10.4231L11.3024 6.46315L10.8159 6.94893ZM10.5582 6.32561C10.5582 6.5593 10.6509 6.78347 10.8159 6.94893L11.3024 6.46315C11.2659 6.42654 11.2457 6.37729 11.2457 6.32561H10.5582ZM10.8162 5.70193C10.6512 5.86741 10.5582 6.09191 10.5582 6.32561H11.2457C11.2457 6.27392 11.2662 6.22434 11.3027 6.18773L10.8162 5.70193ZM11.1462 5.37195L10.8162 5.70193L11.3027 6.18773L11.6324 5.85808L11.1462 5.37195ZM13.7385 4.34477C12.7758 4.33422 11.8472 4.70097 11.1516 5.36658L11.627 5.86337C12.1927 5.32199 12.948 5.02365 13.731 5.03223L13.7385 4.34477ZM16.3024 5.42307C15.6215 4.74238 14.7012 4.35531 13.7385 4.34477L13.731 5.03223C14.5141 5.04081 15.2625 5.35561 15.8163 5.90925L16.3024 5.42307ZM17.3814 7.98669C17.3705 7.02398 16.9833 6.10376 16.3024 5.42307L15.8163 5.90925C16.3701 6.4629 16.6851 7.21137 16.6939 7.99437L17.3814 7.98669ZM16.36 10.5738C17.0255 9.87804 17.3921 8.94939 17.3814 7.98669L16.6939 7.99437C16.7027 8.77738 16.4044 9.53271 15.8632 10.0986L16.36 10.5738ZM16.0247 10.9093L16.3548 10.5793L15.8686 10.0931L15.5386 10.4231L16.0247 10.9093ZM6.32625 10.145C6.66973 10.145 6.99915 10.2814 7.24204 10.5243L7.72816 10.0381C7.35633 9.66635 6.85205 9.45748 6.32625 9.45748V10.145ZM5.41045 10.5243C5.65334 10.2814 5.98276 10.145 6.32625 10.145V9.45748C5.80045 9.45748 5.29617 9.66633 4.92434 10.0381L5.41045 10.5243ZM5.08045 10.8543L5.41045 10.5243L4.92434 10.0381L4.59433 10.3681L5.08045 10.8543ZM3.88858 13.4961C3.95062 12.4996 4.37447 11.5602 5.08045 10.8543L4.59433 10.3681C3.76984 11.1925 3.27487 12.2897 3.2024 13.4534L3.88858 13.4961ZM4.74353 16.2653C4.13057 15.4773 3.82653 14.4925 3.88858 13.4961L3.2024 13.4534C3.12995 14.6171 3.48501 15.7671 4.20086 16.6874L4.74353 16.2653ZM1.77932 19.6542L4.71522 16.7195L4.22917 16.2332L1.29327 19.1681L1.77932 19.6542ZM1.71875 19.8006C1.71875 19.7457 1.74052 19.693 1.77932 19.6542L1.29327 19.1681C1.12553 19.3357 1.03125 19.5634 1.03125 19.8006H1.71875ZM1.77936 19.947C1.74056 19.9081 1.71875 19.8554 1.71875 19.8006H1.03125C1.03125 20.0379 1.12549 20.2653 1.29323 20.4331L1.77936 19.947ZM1.9257 20.0075C1.87081 20.0075 1.81818 19.9858 1.77936 19.947L1.29323 20.4331C1.46096 20.6008 1.68847 20.695 1.9257 20.695V20.0075ZM2.07203 19.947C2.03321 19.9858 1.98058 20.0075 1.9257 20.0075V20.695C2.16293 20.695 2.39042 20.6008 2.55816 20.4331L2.07203 19.947ZM5.00679 17.0111L2.07203 19.947L2.55816 20.4331L5.49302 17.4971L5.00679 17.0111ZM8.2302 17.8377C7.23376 17.8998 6.24899 17.5957 5.46095 16.9828L5.03884 17.5255C5.95915 18.2413 7.10924 18.5963 8.27293 18.5239L8.2302 17.8377ZM10.872 16.6459C10.1661 17.3518 9.22664 17.7757 8.2302 17.8377L8.27293 18.5239C9.43661 18.4514 10.5338 17.9564 11.3582 17.132L10.872 16.6459ZM11.202 16.3159L10.872 16.6459L11.3582 17.132L11.6882 16.8019L11.202 16.3159ZM11.5813 15.4C11.5813 15.7435 11.4449 16.0729 11.202 16.3159L11.6882 16.8019C12.0599 16.4301 12.2688 15.9258 12.2688 15.4H11.5813ZM11.202 14.4843C11.4449 14.7271 11.5813 15.0565 11.5813 15.4H12.2688C12.2688 14.8742 12.0599 14.37 11.6882 13.9982L11.202 14.4843ZM7.24204 10.5243L11.202 14.4843L11.6882 13.9982L7.72816 10.0381L7.24204 10.5243ZM5.98841 10.6256C5.8813 10.6699 5.78399 10.735 5.70202 10.8169L6.18816 11.3031C6.2063 11.2849 6.22783 11.2705 6.25152 11.2607L5.98841 10.6256ZM6.32625 10.5584C6.21031 10.5584 6.09551 10.5812 5.98841 10.6256L6.25152 11.2607C6.27521 11.2509 6.30061 11.2458 6.32625 11.2458V10.5584ZM6.66408 10.6256C6.55698 10.5812 6.44218 10.5584 6.32625 10.5584V11.2458C6.35188 11.2458 6.37728 11.2509 6.40097 11.2607L6.66408 10.6256ZM6.95047 10.8169C6.8685 10.735 6.77119 10.6699 6.66408 10.6256L6.40097 11.2607C6.42466 11.2705 6.44618 11.2849 6.46432 11.303L6.95047 10.8169ZM10.9108 14.7773L6.95047 10.8169L6.46432 11.303L10.4243 15.263L10.9108 14.7773ZM11.1685 15.4006C11.1685 15.1669 11.0758 14.9427 10.9108 14.7773L10.4243 15.263C10.4608 15.2996 10.481 15.3489 10.481 15.4006H11.1685ZM10.9105 16.0243C11.0755 15.8587 11.1685 15.6343 11.1685 15.4006H10.481C10.481 15.4523 10.4605 15.5019 10.424 15.5385L10.9105 16.0243ZM10.5805 16.3543L10.9105 16.0243L10.424 15.5385L10.0943 15.8682L10.5805 16.3543ZM9.38589 17.1527C9.83265 16.9675 10.2386 16.6962 10.5805 16.3543L10.0943 15.8682C9.81625 16.1463 9.48607 16.3669 9.12271 16.5175L9.38589 17.1527ZM7.97668 17.4331C8.46026 17.4331 8.93912 17.3378 9.38589 17.1527L9.12271 16.5175C8.75935 16.668 8.3699 16.7456 7.97659 16.7456L7.97668 17.4331ZM6.5674 17.153C7.0142 17.3379 7.49308 17.4332 7.97668 17.4331L7.97659 16.7456C7.58328 16.7457 7.19381 16.6683 6.83042 16.5177L6.5674 17.153ZM5.37261 16.3548C5.7146 16.6968 6.12059 16.9679 6.5674 17.153L6.83042 16.5177C6.46702 16.3673 6.13683 16.1468 5.85868 15.8686L5.37261 16.3548ZM4.5742 15.1602C4.75931 15.6069 5.03062 16.013 5.37261 16.3548L5.85868 15.8686C5.58053 15.5906 5.35989 15.2604 5.20932 14.897L4.5742 15.1602ZM4.29371 13.751C4.29377 14.2347 4.38908 14.7135 4.5742 15.1602L5.20932 14.897C5.05878 14.5337 4.98125 14.1442 4.98121 13.751H4.29371ZM5.37203 11.1469C4.6815 11.8376 4.2936 12.7744 4.29371 13.751H4.98121C4.98112 12.9566 5.29658 12.1948 5.85819 11.633L5.37203 11.1469ZM5.70202 10.8169L5.37203 11.1469L5.85819 11.633L6.18816 11.3031L5.70202 10.8169ZM5.69763 5.01929C5.65252 5.01929 5.60922 5.00148 5.57715 4.96973L6.06089 4.48121C5.96421 4.38548 5.83367 4.33179 5.69763 4.33179V5.01929ZM5.81812 4.96973C5.78605 5.00148 5.74276 5.01929 5.69763 5.01929V4.33179C5.5616 4.33179 5.43106 4.38547 5.33438 4.48119L5.81812 4.96973ZM4.96854 5.81932L5.81932 4.96854L5.33318 4.4824L4.48239 5.33317L4.96854 5.81932ZM5.01929 5.69763C5.01929 5.74276 5.00148 5.78605 4.96973 5.81812L4.48121 5.33438C4.38548 5.43106 4.33179 5.5616 4.33179 5.69763H5.01929ZM4.96973 5.57715C5.00148 5.60922 5.01929 5.65252 5.01929 5.69763H4.33179C4.33179 5.83367 4.38547 5.96421 4.48119 6.06089L4.96973 5.57715ZM16.8795 17.4868L4.96854 5.57596L4.4824 6.06209L16.3933 17.973L16.8795 17.4868ZM16.6361 17.4868C16.7038 17.4192 16.8119 17.4192 16.8795 17.4868L16.3933 17.973C16.5942 18.1739 16.9214 18.1739 17.1222 17.973L16.6361 17.4868ZM17.4868 16.6361L16.6361 17.4868L17.1222 17.973L17.973 17.1222L17.4868 16.6361ZM17.4868 16.8795C17.4192 16.8119 17.4192 16.7038 17.4868 16.6361L17.973 17.1222C18.1739 16.9214 18.1739 16.5942 17.973 16.3933L17.4868 16.8795ZM5.57596 4.96854L17.4868 16.8795L17.973 16.3933L6.06209 4.48239L5.57596 4.96854Z" fill="url(#paint1_linear_451_2634)"/>
<defs>
<linearGradient id="paint0_linear_451_2634" x1="1.37222" y1="10.582" x2="20.3474" y2="10.582" gradientUnits="userSpaceOnUse">
<stop stop-color="#FD3A84"/>
<stop offset="1" stop-color="#FFA68D"/>
</linearGradient>
<linearGradient id="paint1_linear_451_2634" x1="1.37222" y1="10.582" x2="20.3474" y2="10.582" gradientUnits="userSpaceOnUse">
<stop stop-color="#FD3A84"/>
<stop offset="1" stop-color="#FFA68D"/>
</linearGradient>
</defs>
</svg>
