<svg width="16" height="16" viewBox="0 0 16 16" fill="none" xmlns="http://www.w3.org/2000/svg">
<path fill-rule="evenodd" clip-rule="evenodd" d="M4.72384 1.32054C5.24176 0.768093 5.99249 0.583496 6.8335 0.583496H9.16683C10.0078 0.583496 10.7586 0.768093 11.2765 1.32054C11.6107 1.67703 11.7823 2.11811 11.8606 2.58681C11.889 2.75727 12.1025 2.83713 12.2247 2.71492L14.1365 0.803166C14.4294 0.510273 14.9043 0.510273 15.1972 0.803166C15.4901 1.09606 15.4901 1.57093 15.1972 1.86383L4.53108 12.5299C4.53069 12.5303 4.5303 12.5307 4.5299 12.5311L1.86383 15.1972C1.57093 15.4901 1.09606 15.4901 0.803166 15.1972C0.510273 14.9043 0.510273 14.4294 0.803166 14.1365L2.31965 12.62C2.41504 12.5246 2.39028 12.364 2.27909 12.2876C2.16977 12.2125 2.06639 12.127 1.96983 12.0305C1.44624 11.5069 1.25016 10.7824 1.25016 10.0002V6.66683C1.25016 5.88455 1.44624 5.16009 1.96983 4.6365C2.49343 4.11291 3.21789 3.91683 4.00016 3.91683V3.91683C4.04619 3.91683 4.0835 3.87952 4.0835 3.8335V3.3335C4.0835 2.60046 4.21558 1.86269 4.72384 1.32054ZM3.60944 11.2224C3.66936 11.2319 3.72953 11.2101 3.77243 11.1672L9.18141 5.75825C9.30741 5.63226 9.21817 5.41683 9.03999 5.41683H4.8335H4.00016C3.4491 5.41683 3.17357 5.55409 3.03049 5.69716C2.88742 5.84023 2.75016 6.11577 2.75016 6.66683V10.0002C2.75016 10.5512 2.88742 10.8268 3.03049 10.9698C3.13473 11.0741 3.30927 11.1752 3.60944 11.2224ZM5.5835 3.71683C5.5835 3.82729 5.67304 3.91683 5.7835 3.91683H10.2168C10.3273 3.91683 10.4168 3.82729 10.4168 3.71683V3.3335C10.4168 2.7332 10.2989 2.47097 10.1822 2.34645C10.0751 2.23223 9.82582 2.0835 9.16683 2.0835H6.8335C6.17451 2.0835 5.92523 2.23223 5.81815 2.34645C5.70141 2.47097 5.5835 2.7332 5.5835 3.3335V3.71683ZM7.89683 10.0002C7.89683 9.58595 8.23262 9.25016 8.64683 9.25016H8.66562L8.66683 9.25016L10.5268 9.25016H10.6668H11.3335C11.7477 9.25016 12.0835 9.58595 12.0835 10.0002C12.0835 10.324 11.8783 10.5998 11.5908 10.7049C11.4951 10.7398 11.4168 10.8227 11.4168 10.9247V11.0502C11.4168 11.1606 11.5064 11.2502 11.6168 11.2502H12.0002C12.5512 11.2502 12.8268 11.1129 12.9698 10.9698C13.1129 10.8268 13.2502 10.5512 13.2502 10.0002V6.66683C13.2502 6.02342 13.0683 5.75655 12.8852 5.62917C12.5452 5.39263 12.4613 4.92523 12.6978 4.5852C12.9344 4.24517 13.4018 4.16127 13.7418 4.39782C14.4787 4.91044 14.7502 5.75024 14.7502 6.66683V10.0002C14.7502 10.7824 14.5541 11.5069 14.0305 12.0305C13.5069 12.5541 12.7824 12.7502 12.0002 12.7502H11.6125C11.5034 12.7502 11.4151 12.8376 11.4081 12.9464C11.3649 13.6205 11.1578 14.2366 10.6972 14.6972C10.1736 15.2208 9.4491 15.4168 8.66683 15.4168H7.3335C6.67343 15.4168 6.0541 15.279 5.55756 14.9171C5.04622 14.5444 4.75615 14.0007 4.64226 13.3743C4.56816 12.9668 4.83847 12.5764 5.246 12.5023C5.65353 12.4282 6.04397 12.6985 6.11806 13.106C6.17751 13.4329 6.30077 13.6026 6.4411 13.7049C6.59622 13.818 6.86689 13.9168 7.3335 13.9168H8.66683C9.21789 13.9168 9.49343 13.7796 9.6365 13.6365C9.77957 13.4934 9.91683 13.2179 9.91683 12.6668L9.91683 12.0002L9.91683 10.9502C9.91683 10.8397 9.82729 10.7502 9.71683 10.7502L8.66683 10.7502L8.64683 10.7502C8.23262 10.7502 7.89683 10.4144 7.89683 10.0002ZM3.91683 7.3335C3.91683 6.91928 4.25262 6.5835 4.66683 6.5835H6.00016C6.41438 6.5835 6.75016 6.91928 6.75016 7.3335C6.75016 7.74771 6.41438 8.0835 6.00016 8.0835H4.66683C4.25262 8.0835 3.91683 7.74771 3.91683 7.3335Z" fill="url(#paint0_linear_491_641)"/>
<defs>
<linearGradient id="paint0_linear_491_641" x1="8.00016" y1="15.4168" x2="8.00016" y2="0.583496" gradientUnits="userSpaceOnUse">
<stop stop-color="#EC396C"/>
<stop offset="1" stop-color="#FF709A"/>
</linearGradient>
</defs>
</svg>
