<svg width="24" height="24" viewBox="0 0 24 24" fill="none" xmlns="http://www.w3.org/2000/svg">
<path d="M9.8691 10.8178C9.96382 10.6469 10.101 10.5047 10.2673 10.404L20.1573 4.46416C20.3243 4.36382 20.5148 4.30922 20.7096 4.30583C20.9044 4.30245 21.0967 4.35039 21.2671 4.44486C21.4375 4.53933 21.58 4.67698 21.6803 4.84399C21.7807 5.011 21.8353 5.20149 21.8387 5.39629L22.0374 16.9289C22.0424 17.3251 21.8379 17.6941 21.4992 17.8997L11.6132 23.8417C11.4462 23.942 11.2557 23.9966 11.0609 24C10.8661 24.0034 10.6738 23.9555 10.5034 23.861C10.333 23.7665 10.1904 23.6289 10.0901 23.4619C9.98975 23.2949 9.93513 23.1044 9.93173 22.9096L9.72913 11.3748C9.72622 11.1801 9.77449 10.988 9.8691 10.8178Z" fill="url(#paint0_linear_347_67)"/>
<path opacity="0.5" d="M7.73012 21.6884L9.88802 20.392L9.72932 11.3742C9.72335 10.9775 9.92786 10.6085 10.2675 10.4034L17.9996 5.75995L17.9557 3.24297C17.9523 3.04817 17.8976 2.85768 17.7973 2.69067C17.6969 2.52366 17.5544 2.38601 17.384 2.29154C17.2136 2.19707 17.0213 2.14912 16.8265 2.15251C16.6317 2.1559 16.4412 2.2105 16.2742 2.31083L6.38426 8.25064C6.04462 8.4558 5.84011 8.82471 5.84607 9.22146L6.04868 20.7562C6.05208 20.9511 6.1067 21.1415 6.20704 21.3085C6.30739 21.4756 6.44993 21.6132 6.62033 21.7077C6.79073 21.8021 6.983 21.8501 7.17781 21.8467C7.37262 21.8433 7.5631 21.7887 7.73012 21.6884Z" fill="url(#paint1_linear_347_67)"/>
<path opacity="0.25" d="M3.84658 19.536L6.00447 18.2397L5.84577 9.22186C5.83981 8.82511 6.04432 8.4562 6.38396 8.25105L14.116 3.60761L14.0721 1.09063C14.0687 0.895821 14.0141 0.70534 13.9137 0.53833C13.8134 0.37132 13.6709 0.233664 13.5005 0.139197C13.3301 0.0447307 13.1378 -0.00321901 12.943 0.000167746C12.7482 0.0035545 12.5577 0.0581582 12.3907 0.158491L2.50072 6.0983C2.16107 6.30346 1.95656 6.67236 1.96253 7.06911L2.16513 18.6039C2.16853 18.7987 2.22315 18.9892 2.3235 19.1562C2.42384 19.3232 2.56638 19.4609 2.73678 19.5553C2.90719 19.6498 3.09946 19.6978 3.29427 19.6944C3.48907 19.691 3.67956 19.6364 3.84658 19.536Z" fill="url(#paint2_linear_347_67)"/>
<defs>
<linearGradient id="paint0_linear_347_67" x1="10.1604" y1="14.1529" x2="21.2735" y2="13.3752" gradientUnits="userSpaceOnUse">
<stop stop-color="#8D01A2"/>
<stop offset="1" stop-color="#FF00D2"/>
</linearGradient>
<linearGradient id="paint1_linear_347_67" x1="6.2719" y1="11.9996" x2="17.2465" y2="11.2413" gradientUnits="userSpaceOnUse">
<stop stop-color="#8D01A2"/>
<stop offset="1" stop-color="#FF00D2"/>
</linearGradient>
<linearGradient id="paint2_linear_347_67" x1="2.38836" y1="9.84728" x2="13.363" y2="9.08891" gradientUnits="userSpaceOnUse">
<stop stop-color="#8D01A2"/>
<stop offset="1" stop-color="#FF00D2"/>
</linearGradient>
</defs>
</svg>
