<svg width="22" height="22" viewBox="0 0 22 22" fill="none" xmlns="http://www.w3.org/2000/svg">
<path d="M4.73373 1.375C3.77744 1.39722 2.99878 1.51887 2.37212 1.71742C2.05062 1.81929 1.89208 2.16535 1.98176 2.49047L2.03196 2.6724C2.13766 3.05555 2.54639 3.27228 2.93008 3.16854C3.45027 3.02786 4.11949 2.87891 4.58333 2.87891H4.68359C5.72089 2.9227 5.78645 3.29109 5.78645 4.1823C5.78645 4.38549 5.64113 4.55962 5.44121 4.59598L5.23502 4.63346C2.72212 4.9987 1.375 5.31172 1.375 7.24023C1.375 8.58435 2.36408 9.39583 3.78125 9.39583C4.50446 9.39583 5.03154 9.17896 5.52266 8.84179C5.75822 8.68006 6.09405 8.80406 6.13863 9.0863C6.16676 9.26456 6.32041 9.39583 6.50086 9.39583H7.10417C7.48386 9.39583 7.79167 9.08804 7.79167 8.70833V3.83138C7.79167 2.18046 6.6373 1.375 4.88411 1.375H4.73373ZM15.3614 4.88411C15.1594 4.71104 14.8614 4.71104 14.6596 4.88411L9.88819 9.70087C9.61767 9.97396 9.62362 10.4158 9.90142 10.6815L10.0629 10.836C10.333 11.0944 10.76 11.0896 11.0243 10.8253L13.0347 8.81491C13.4678 8.38181 14.2083 8.68856 14.2083 9.30105V19.9375C14.2083 20.3171 14.5161 20.625 14.8958 20.625H15.125C15.5046 20.625 15.8125 20.3171 15.8125 19.9375V9.30105C15.8125 8.68854 16.5531 8.38181 16.9862 8.81491L18.9966 10.8253C19.2609 11.0896 19.6878 11.0944 19.9579 10.836L20.1194 10.6815C20.3972 10.4158 20.4032 9.97396 20.1326 9.70087L15.3614 4.88411ZM5.23502 5.73632C5.53114 5.70941 5.78645 5.94257 5.78645 6.2399V7.1257C5.78645 7.35405 5.67491 7.57057 5.48027 7.68996C5.07315 7.93969 4.69601 8.09245 4.13216 8.09245C3.50394 8.09245 3.17969 7.69515 3.17969 7.13998C3.17969 6.08806 4.11005 5.89703 5.23502 5.73632ZM2.0625 12.6042C1.68281 12.6042 1.375 12.912 1.375 13.2917V13.5208C1.375 13.9006 1.68281 14.2083 2.0625 14.2083H3.8474C4.40689 14.2083 4.73209 14.8411 4.40646 15.2959L1.50344 19.352C1.41991 19.4688 1.375 19.6087 1.375 19.7522V19.9375C1.375 20.3171 1.68281 20.625 2.0625 20.625H7.10417C7.48386 20.625 7.79167 20.3171 7.79167 19.9375V19.7083C7.79167 19.3286 7.48386 19.0208 7.10417 19.0208H5.86794C5.31883 19.0208 4.99132 18.4089 5.29591 17.952L7.6762 14.3815C7.75149 14.2687 7.79167 14.136 7.79167 14.0001V13.2917C7.79167 12.912 7.48386 12.6042 7.10417 12.6042H2.0625Z" fill="url(#paint0_linear_451_2470)" stroke="url(#paint1_linear_451_2470)" stroke-width="0.6"/>
<defs>
<linearGradient id="paint0_linear_451_2470" x1="11" y1="20.625" x2="11" y2="1.375" gradientUnits="userSpaceOnUse">
<stop stop-color="#5570FF"/>
<stop offset="1" stop-color="#4DD3FF"/>
</linearGradient>
<linearGradient id="paint1_linear_451_2470" x1="11" y1="20.625" x2="11" y2="1.375" gradientUnits="userSpaceOnUse">
<stop stop-color="#5570FF"/>
<stop offset="1" stop-color="#4DD3FF"/>
</linearGradient>
</defs>
</svg>
