<svg width="16" height="16" viewBox="0 0 16 16" fill="none" xmlns="http://www.w3.org/2000/svg">
<path fill-rule="evenodd" clip-rule="evenodd" d="M10.5549 4.87911C10.5549 4.01427 11.256 3.31319 12.1209 3.31319C12.9856 3.31319 13.6869 4.01427 13.6869 4.87911C13.6869 5.74396 12.9856 6.44505 12.1209 6.44505C11.256 6.44505 10.5549 5.74396 10.5549 4.87911ZM12.1209 1.5C10.2546 1.5 8.74175 3.01289 8.74175 4.87911C8.74175 6.74535 10.2546 8.25825 12.1209 8.25825C13.9871 8.25825 15.5 6.74535 15.5 4.87911C15.5 3.01289 13.9871 1.5 12.1209 1.5ZM7.58791 8.91759C7.08716 8.91759 6.68133 9.32341 6.68133 9.82416C6.68133 9.92404 6.69748 10.0201 6.7273 10.11C6.85783 10.5032 7.04443 11.1459 6.75145 11.4389L6.70523 11.4852C6.50996 11.6805 6.19336 11.6805 5.9981 11.4852L5.10285 10.5899C4.77829 10.2655 4.33805 10.0832 3.8791 10.0832C3.42018 10.0832 2.98003 10.2654 2.65547 10.5898L0.765528 12.4799C0.411491 12.8339 0.411491 13.4079 0.765528 13.7619C1.11959 14.1159 1.6936 14.1159 2.04765 13.7619L3.52554 12.284C3.72082 12.0887 4.0374 12.0887 4.23267 12.284L5.12786 13.1792C5.45243 13.5037 5.89266 13.686 6.35166 13.686C6.81059 13.686 7.25075 13.5039 7.57534 13.1794L8.03353 12.7211C8.32651 12.4281 8.96928 12.6147 9.36255 12.7452C9.45239 12.775 9.54848 12.7911 9.64833 12.7911C10.149 12.7911 10.5549 12.3852 10.5549 11.8846V9.82416C10.5549 9.32341 10.149 8.91759 9.64833 8.91759H7.58791Z" fill="url(#paint0_linear_164_125)"/>
<defs>
<linearGradient id="paint0_linear_164_125" x1="0.502197" y1="7.57807" x2="15.5025" y2="7.57807" gradientUnits="userSpaceOnUse">
<stop stop-color="#A93AFF"/>
<stop offset="1" stop-color="#FF81FF"/>
</linearGradient>
</defs>
</svg>
