<svg width="16" height="16" viewBox="0 0 16 16" fill="none" xmlns="http://www.w3.org/2000/svg">
<g clip-path="url(#clip0_54_603)">
<path d="M8 3C5.2386 3 3 5.2386 3 8C3 10.761 5.2386 13 8 13C10.761 13 13 10.761 13 8C13 5.2386 10.761 3 8 3ZM7.50229 5.04156C7.7746 4.99575 8 5.22386 8 5.5V10.5C8 10.7761 7.7746 11.0043 7.50229 10.9584C6.89127 10.8556 6.32258 10.5652 5.87868 10.1213C5.31607 9.55871 5 8.79565 5 8C5 7.20435 5.31607 6.44129 5.87868 5.87868C6.32258 5.43478 6.89127 5.14436 7.50229 5.04156Z" fill="url(#paint0_linear_54_603)"/>
<path opacity="0.4" fill-rule="evenodd" clip-rule="evenodd" d="M7 0.5V1.5C7 1.77614 7.22386 2 7.5 2H8.5C8.77614 2 9 1.77614 9 1.5V0.5C9 0.223858 8.77614 0 8.5 0H7.5C7.22386 0 7 0.223858 7 0.5ZM2.69722 1.99026L1.99026 2.69722C1.79499 2.89249 1.79499 3.20908 1.99027 3.40434L2.69724 4.11126C2.8925 4.30651 3.20907 4.30651 3.40433 4.11125L4.11125 3.40433C4.30651 3.20907 4.30651 2.8925 4.11126 2.69724L3.40434 1.99027C3.20908 1.79499 2.89249 1.79499 2.69722 1.99026ZM11.8885 2.69726L12.5954 1.9903C12.7907 1.79502 13.1073 1.79502 13.3026 1.9903L14.0095 2.69726C14.2047 2.89252 14.2047 3.20909 14.0095 3.40435L13.3026 4.11126C13.1073 4.30652 12.7907 4.30652 12.5954 4.11126L11.8885 3.40435C11.6933 3.20909 11.6933 2.89252 11.8885 2.69726ZM0 7.5V8.5C0 8.77614 0.223858 9 0.5 9H1.5C1.77614 9 2 8.77614 2 8.5V7.5C2 7.22386 1.77614 7 1.5 7H0.5C0.223858 7 0 7.22386 0 7.5ZM14 8.5V7.5C14 7.22386 14.2239 7 14.5 7H15.5C15.7761 7 16 7.22386 16 7.5V8.5C16 8.77614 15.7761 9 15.5 9H14.5C14.2239 9 14 8.77614 14 8.5ZM2.69723 11.8885L1.99027 12.5954C1.79499 12.7907 1.79499 13.1073 1.99027 13.3026L2.69723 14.0095C2.89249 14.2047 3.20906 14.2047 3.40432 14.0095L4.11123 13.3026C4.30649 13.1073 4.30649 12.7907 4.11123 12.5954L3.40432 11.8885C3.20906 11.6933 2.89249 11.6933 2.69723 11.8885ZM11.8886 12.5954L12.5954 11.8886C12.7907 11.6933 13.1073 11.6933 13.3026 11.8886L14.0094 12.5954C14.2047 12.7907 14.2047 13.1073 14.0094 13.3026L13.3026 14.0094C13.1073 14.2047 12.7907 14.2047 12.5954 14.0094L11.8886 13.3026C11.6933 13.1073 11.6933 12.7907 11.8886 12.5954ZM7 14.5V15.5C7 15.7761 7.22386 16 7.5 16H8.5C8.77614 16 9 15.7761 9 15.5V14.5C9 14.2239 8.77614 14 8.5 14H7.5C7.22386 14 7 14.2239 7 14.5Z" fill="url(#paint1_linear_54_603)"/>
</g>
<defs>
<linearGradient id="paint0_linear_54_603" x1="3.71429" y1="8" x2="11.8295" y2="7.10322" gradientUnits="userSpaceOnUse">
<stop stop-color="#8D01A2"/>
<stop offset="1" stop-color="#FF00D2"/>
</linearGradient>
<linearGradient id="paint1_linear_54_603" x1="8" y1="16" x2="8" y2="0" gradientUnits="userSpaceOnUse">
<stop stop-color="#A93AFF"/>
<stop offset="1" stop-color="#FF81FF"/>
</linearGradient>
<clipPath id="clip0_54_603">
<rect width="16" height="16" fill="white"/>
</clipPath>
</defs>
</svg>
