<svg width="22" height="22" viewBox="0 0 22 22" fill="none" xmlns="http://www.w3.org/2000/svg">
<path d="M2.0625 1.375C1.68281 1.375 1.375 1.68281 1.375 2.0625V19.9375C1.375 20.3171 1.68281 20.625 2.0625 20.625H5.5C5.87969 20.625 6.1875 20.3171 6.1875 19.9375V19.7083C6.1875 19.3286 5.87969 19.0208 5.5 19.0208H3.66667C3.28697 19.0208 2.97917 18.7131 2.97917 18.3333V5.27083C2.97917 4.89114 3.28697 4.58333 3.66667 4.58333H18.3333C18.7131 4.58333 19.0208 4.89114 19.0208 5.27083V5.5C19.0208 5.87969 19.3286 6.1875 19.7083 6.1875H19.9375C20.3171 6.1875 20.625 5.87969 20.625 5.5V2.0625C20.625 1.68281 20.3171 1.375 19.9375 1.375H2.0625ZM8.47917 7.79167C8.09946 7.79167 7.79167 8.09946 7.79167 8.47917V19.9375C7.79167 20.3171 8.09946 20.625 8.47917 20.625H19.9375C20.3171 20.625 20.625 20.3171 20.625 19.9375V8.47917C20.625 8.09946 20.3171 7.79167 19.9375 7.79167H8.47917ZM9.39583 11.6875C9.39583 11.3078 9.70364 11 10.0833 11H18.3333C18.7131 11 19.0208 11.3078 19.0208 11.6875V18.3333C19.0208 18.7131 18.7131 19.0208 18.3333 19.0208H10.0833C9.70364 19.0208 9.39583 18.7131 9.39583 18.3333V11.6875Z" fill="url(#paint0_linear_451_2608)"/>
<defs>
<linearGradient id="paint0_linear_451_2608" x1="11" y1="1.375" x2="11" y2="20.625" gradientUnits="userSpaceOnUse">
<stop stop-color="#DC18FC"/>
<stop offset="1" stop-color="#8E1EFF"/>
</linearGradient>
</defs>
</svg>
