<svg width="24" height="25" viewBox="0 0 24 25" fill="none" xmlns="http://www.w3.org/2000/svg">
<path opacity="0.5" d="M2 12.5C2 7.786 2 5.429 3.464 3.964C4.93 2.5 7.286 2.5 12 2.5C16.714 2.5 19.071 2.5 20.535 3.964C22 5.43 22 7.786 22 12.5C22 17.214 22 19.571 20.535 21.035C19.072 22.5 16.714 22.5 12 22.5C7.286 22.5 4.929 22.5 3.464 21.035C2 19.572 2 17.214 2 12.5Z" fill="url(#paint0_linear_343_523)"/>
<path d="M3.465 21.035C4.929 22.5 7.286 22.5 12 22.5C16.715 22.5 19.072 22.5 20.536 21.035C21.893 19.678 21.993 17.555 22 13.5H18.84C17.935 13.5 17.482 13.5 17.085 13.683C16.687 13.866 16.392 14.21 15.803 14.897L15.198 15.603C14.608 16.29 14.314 16.634 13.916 16.817C13.518 17 13.066 17 12.161 17H11.84C10.935 17 10.482 17 10.084 16.817C9.687 16.634 9.392 16.29 8.803 15.603L8.197 14.897C7.608 14.21 7.314 13.866 6.916 13.683C6.518 13.5 6.066 13.5 5.16 13.5H2C2.007 17.555 2.107 19.678 3.465 21.035Z" fill="url(#paint1_linear_343_523)"/>
<path d="M12.53 6.46983C12.3894 6.32938 12.1988 6.25049 12 6.25049C11.8012 6.25049 11.6106 6.32938 11.47 6.46983L8.17 9.76983C8.09631 9.83849 8.03721 9.92129 7.99622 10.0133C7.95523 10.1053 7.93319 10.2046 7.93141 10.3053C7.92963 10.406 7.94816 10.506 7.98588 10.5994C8.0236 10.6928 8.07974 10.7776 8.15096 10.8489C8.22218 10.9201 8.30701 10.9762 8.4004 11.014C8.49379 11.0517 8.59382 11.0702 8.69452 11.0684C8.79523 11.0666 8.89454 11.0446 8.98654 11.0036C9.07854 10.9626 9.16134 10.9035 9.23 10.8298L10.2257 9.83409C10.6037 9.45611 11.25 9.72381 11.25 10.2584V16.3878C11.25 16.7227 10.9745 17.0038 10.642 16.9638C10.4271 16.9379 10.2509 16.8934 10.084 16.8168C9.687 16.6338 9.392 16.2898 8.803 15.6028L8.197 14.8968C7.608 14.2098 7.314 13.8658 6.916 13.6828C6.518 13.4998 6.066 13.4998 5.16 13.4998H2.60104C2.26926 13.4998 2.00027 13.7704 2.00194 14.1022C2.02038 17.7682 2.17589 19.7467 3.465 21.0348C4.929 22.4998 7.286 22.4998 12 22.4998C16.715 22.4998 19.072 22.4998 20.536 21.0348C21.8242 19.7467 21.9796 17.7682 21.9981 14.1022C21.9997 13.7704 21.7307 13.4998 21.399 13.4998H18.84C17.935 13.4998 17.482 13.4998 17.085 13.6828C16.687 13.8658 16.392 14.2098 15.803 14.8968L15.198 15.6028C14.608 16.2898 14.314 16.6338 13.916 16.8168C13.7495 16.8934 13.5732 16.938 13.358 16.9638C13.0255 17.0038 12.75 16.7227 12.75 16.3878V10.2594C12.75 9.72481 13.3963 9.45711 13.7743 9.83509L14.77 10.8308C14.8392 10.9024 14.922 10.9595 15.0135 10.9988C15.105 11.0381 15.2035 11.0587 15.3031 11.0595C15.4026 11.0603 15.5014 11.0413 15.5935 11.0036C15.6857 10.9658 15.7694 10.9101 15.8398 10.8396C15.9102 10.7692 15.9658 10.6854 16.0035 10.5932C16.0412 10.501 16.0601 10.4023 16.0592 10.3027C16.0583 10.2031 16.0375 10.1047 15.9982 10.0132C15.9588 9.92171 15.9017 9.83898 15.83 9.76983L12.53 6.46983Z" fill="url(#paint2_linear_343_523)"/>
<defs>
<linearGradient id="paint0_linear_343_523" x1="22" y1="22.5" x2="5.3581" y2="5.67166" gradientUnits="userSpaceOnUse">
<stop stop-color="#731FFF"/>
<stop offset="0.905415" stop-color="#EB1AFF"/>
</linearGradient>
<linearGradient id="paint1_linear_343_523" x1="22" y1="22.5" x2="16.4361" y2="9.99736" gradientUnits="userSpaceOnUse">
<stop stop-color="#731FFF"/>
<stop offset="0.905415" stop-color="#EB1AFF"/>
</linearGradient>
<linearGradient id="paint2_linear_343_523" x1="22" y1="22.4998" x2="8.79556" y2="6.06548" gradientUnits="userSpaceOnUse">
<stop stop-color="#731FFF"/>
<stop offset="0.905415" stop-color="#EB1AFF"/>
</linearGradient>
</defs>
</svg>
