<svg width="16" height="16" viewBox="0 0 16 16" fill="none" xmlns="http://www.w3.org/2000/svg">
<path fill-rule="evenodd" clip-rule="evenodd" d="M6.77352 0.583519L6.741 0.583519C5.81648 0.583512 5.07692 0.583507 4.47933 0.632332C3.86599 0.682444 3.33646 0.787703 2.84946 1.03584C2.06859 1.43372 1.43372 2.06859 1.03584 2.84946C0.787703 3.33646 0.682444 3.86599 0.632332 4.47933C0.583507 5.07692 0.583512 5.81648 0.583519 6.74099L0.583519 6.77352V9.22685L0.583519 9.25937C0.583512 10.1839 0.583507 10.9234 0.632332 11.521C0.682444 12.1344 0.787703 12.6639 1.03584 13.1509C1.43372 13.9318 2.06859 14.5667 2.84946 14.9645C3.33646 15.2127 3.86599 15.3179 4.47933 15.368C5.07691 15.4169 5.81646 15.4169 6.74095 15.4169H6.74098H6.77352H9.22685H9.25939H9.25942C10.1839 15.4169 10.9235 15.4169 11.521 15.368C12.1344 15.3179 12.6639 15.2127 13.1509 14.9645C13.9318 14.5667 14.5667 13.9318 14.9645 13.1509C15.2127 12.6639 15.3179 12.1344 15.368 11.521C15.4169 10.9235 15.4169 10.1839 15.4169 9.25942V9.2594V9.22686V6.77352V6.74098V6.74096C15.4169 5.81646 15.4169 5.07691 15.368 4.47933C15.3179 3.86599 15.2127 3.33646 14.9645 2.84946C14.5667 2.06859 13.9318 1.43372 13.1509 1.03584C12.6639 0.787703 12.1344 0.682444 11.521 0.632332C10.9234 0.583507 10.1839 0.583512 9.25938 0.583519L9.22686 0.583519H6.77352ZM3.53044 2.37235C3.77074 2.24991 4.0809 2.16988 4.60148 2.12735C5.13081 2.0841 5.80905 2.08352 6.77352 2.08352H9.22686C10.1913 2.08352 10.8696 2.0841 11.3989 2.12735C11.9195 2.16988 12.2296 2.24991 12.4699 2.37235C12.9686 2.62642 13.374 3.03181 13.628 3.53044C13.7505 3.77074 13.8305 4.0809 13.873 4.60148C13.9163 5.13081 13.9169 5.80905 13.9169 6.77352V9.22686C13.9169 10.1913 13.9163 10.8696 13.873 11.3989C13.8305 11.9195 13.7505 12.2296 13.628 12.4699C13.374 12.9686 12.9686 13.374 12.4699 13.628C12.2296 13.7505 11.9195 13.8305 11.3989 13.873C10.8696 13.9163 10.1913 13.9169 9.22685 13.9169H6.77352C5.80905 13.9169 5.13081 13.9163 4.60148 13.873C4.0809 13.8305 3.77074 13.7505 3.53044 13.628C3.03181 13.374 2.62642 12.9686 2.37235 12.4699C2.24991 12.2296 2.16988 11.9195 2.12735 11.3989C2.0841 10.8696 2.08352 10.1913 2.08352 9.22685V6.77352C2.08352 5.80905 2.0841 5.13081 2.12735 4.60148C2.16988 4.0809 2.24991 3.77074 2.37235 3.53044C2.62642 3.03181 3.03181 2.62642 3.53044 2.37235ZM11.3747 10.542C10.3478 11.9446 8.3824 12.5281 6.77659 11.8722L6.77056 11.8697L6.76471 11.8669C6.4368 11.7068 6.35445 11.354 6.4169 11.0761C6.47943 10.7977 6.70544 10.5142 7.07282 10.5142V10.5142C7.08442 10.5142 7.096 10.5153 7.10741 10.5173V10.5173C7.22531 10.5384 7.34234 10.5646 7.45484 10.5898L7.45703 10.5903L7.45898 10.5908C7.57135 10.6159 7.67932 10.6401 7.78715 10.6597C8.00509 10.6992 8.20998 10.7174 8.41279 10.6859L8.42054 10.6847L8.42841 10.6841C9.65441 10.5932 10.7171 9.48531 10.7659 8.2315L10.7661 8.22748L10.7664 8.22344C10.8621 7.02942 10.0256 5.85106 8.89284 5.53919L8.89092 5.53868L8.88901 5.53809C8.10413 5.30485 7.21302 5.48823 6.57691 6.01214L6.57554 6.01328L6.57412 6.01439C6.16862 6.33618 5.87225 6.78939 5.71643 7.28982C5.65916 7.47378 5.63052 7.56576 5.68497 7.64561C5.73942 7.72546 5.85301 7.73365 6.0802 7.75004C6.11837 7.75279 6.15645 7.75632 6.19429 7.7608V7.7608C6.20725 7.76232 6.22003 7.76515 6.23243 7.76922V7.76922C6.52767 7.86613 6.67552 8.24093 6.49164 8.51416C6.1074 9.15828 5.71867 9.80065 5.32544 10.4395C5.24067 10.6193 5.06257 10.7058 4.89863 10.7109C4.73253 10.7161 4.54668 10.6384 4.45482 10.4545C4.05963 9.81278 3.66886 9.16821 3.2834 8.51993C3.18569 8.37869 3.18119 8.2078 3.23202 8.07015C3.28385 7.92976 3.40237 7.79989 3.57603 7.76136L3.58713 7.75887L3.59844 7.75771C3.78783 7.73819 3.98386 7.7405 4.16574 7.74264L4.16585 7.74264V7.74264C4.17578 7.74276 4.1841 7.73514 4.1849 7.72525C4.29035 6.42848 5.04166 5.21062 6.15496 4.55665C7.35092 3.83318 8.91922 3.81404 10.133 4.5044C11.1033 5.04291 11.8317 6.00671 12.0854 7.0986C12.3742 8.27783 12.1098 9.57985 11.3747 10.542Z" fill="url(#paint0_linear_488_541)"/>
<defs>
<linearGradient id="paint0_linear_488_541" x1="0.585669" y1="7.7804" x2="15.4193" y2="7.7804" gradientUnits="userSpaceOnUse">
<stop stop-color="#A93AFF"/>
<stop offset="1" stop-color="#FF81FF"/>
</linearGradient>
</defs>
</svg>
