<svg width="16" height="16" viewBox="0 0 16 16" fill="none" xmlns="http://www.w3.org/2000/svg">
<path fill-rule="evenodd" clip-rule="evenodd" d="M6.13352 0.583519L6.10141 0.583519C5.28858 0.583512 4.63296 0.583506 4.10205 0.626883C3.55541 0.671545 3.07527 0.765904 2.63105 0.992245C1.92545 1.35177 1.35177 1.92545 0.992245 2.63105C0.765904 3.07527 0.671545 3.55541 0.626883 4.10205C0.583506 4.63296 0.583512 5.28857 0.583519 6.10141L0.583519 6.13351V9.86685L0.583519 9.89896C0.583512 10.7118 0.583506 11.3674 0.626883 11.8983C0.671545 12.445 0.765904 12.9251 0.992245 13.3693C1.35177 14.0749 1.92545 14.6486 2.63105 15.0081C3.07527 15.2345 3.55541 15.3288 4.10205 15.3735C4.63295 15.4169 5.28856 15.4169 6.10139 15.4169H6.13351H9.86685H9.89898C10.7118 15.4169 11.3674 15.4169 11.8983 15.3735C12.445 15.3288 12.9251 15.2345 13.3693 15.0081C14.0749 14.6486 14.6486 14.0749 15.0081 13.3693C15.2345 12.9251 15.3288 12.445 15.3735 11.8983C15.4169 11.3674 15.4169 10.7118 15.4169 9.89898V9.86686V6.13352V6.1014C15.4169 5.28856 15.4169 4.63296 15.3735 4.10205C15.3288 3.55541 15.2345 3.07527 15.0081 2.63105C14.6486 1.92545 14.0749 1.35177 13.3693 0.992245C12.9251 0.765904 12.445 0.671545 11.8983 0.626883C11.3674 0.583506 10.7118 0.583512 9.89896 0.583519L9.86686 0.583519H6.13352ZM3.31204 2.32875C3.50956 2.22811 3.77032 2.15898 4.2242 2.1219C4.68683 2.0841 5.28106 2.08352 6.13352 2.08352H9.86686C10.7193 2.08352 11.3135 2.0841 11.7762 2.1219C12.23 2.15898 12.4908 2.22811 12.6883 2.32875C13.1117 2.54447 13.4559 2.88868 13.6716 3.31204C13.7723 3.50956 13.8414 3.77032 13.8785 4.2242C13.9163 4.68683 13.9169 5.28106 13.9169 6.13352V9.86686C13.9169 10.7193 13.9163 11.3135 13.8785 11.7762C13.8414 12.23 13.7723 12.4908 13.6716 12.6883C13.4559 13.1117 13.1117 13.4559 12.6883 13.6716C12.4908 13.7723 12.23 13.8414 11.7762 13.8785C11.3135 13.9163 10.7193 13.9169 9.86685 13.9169H6.13351C5.28106 13.9169 4.68683 13.9163 4.2242 13.8785C3.77032 13.8414 3.50956 13.7723 3.31204 13.6716C2.88868 13.4559 2.54447 13.1117 2.32875 12.6883C2.22811 12.4908 2.15898 12.23 2.1219 11.7762C2.0841 11.3135 2.08352 10.7193 2.08352 9.86685V6.13351C2.08352 5.28106 2.0841 4.68683 2.1219 4.2242C2.15898 3.77032 2.22811 3.50956 2.32875 3.31204C2.54447 2.88868 2.88868 2.54447 3.31204 2.32875ZM6.39272 8.01923C6.03145 8.01923 5.85082 8.01923 5.79633 7.90587C5.74185 7.79251 5.85469 7.65146 6.08037 7.36935L7.15304 6.02852C7.44954 5.6579 7.59779 5.47258 7.73159 5.51952C7.86538 5.56645 7.86538 5.80377 7.86538 6.2784V6.59077L7.86538 6.60877V6.60878C7.86535 6.70463 7.86531 6.81645 7.87333 6.91456C7.88256 7.02764 7.90608 7.18673 7.99073 7.35286C8.10098 7.56924 8.27691 7.74517 8.4933 7.85543C8.65943 7.94008 8.81851 7.96359 8.93159 7.97283C9.0297 7.98084 9.14153 7.98081 9.23737 7.98077L9.25539 7.98077H9.29959C9.66086 7.98077 9.84149 7.98077 9.89598 8.09413C9.95046 8.20749 9.83762 8.34854 9.61194 8.63065L8.53927 9.97148C8.24277 10.3421 8.09452 10.5274 7.96072 10.4805C7.82692 10.4335 7.82692 10.1962 7.82692 9.7216V9.40923L7.82693 9.39123C7.82696 9.29538 7.827 9.18355 7.81898 9.08544C7.80974 8.97236 7.78623 8.81327 7.70158 8.64714C7.59133 8.43076 7.4154 8.25483 7.19901 8.14457C7.03288 8.05992 6.8738 8.03641 6.76072 8.02717C6.6626 8.01916 6.55077 8.01919 6.45493 8.01923L6.43692 8.01923H6.39272ZM9.06458 3.36483C8.80421 3.07972 8.41814 2.94429 8.03671 3.00428C7.68617 3.05941 7.45024 3.30194 7.34407 3.41378C7.21528 3.54946 7.06722 3.73458 6.90847 3.93306L6.90846 3.93306L6.88998 3.95617L4.24619 7.2609L4.22914 7.28222L4.22913 7.28222C4.11091 7.42996 3.99237 7.57808 3.90661 7.70779C3.82439 7.83216 3.68258 8.06587 3.68225 8.36799C3.68187 8.71821 3.84111 9.04952 4.11482 9.26801C4.35094 9.45648 4.62203 9.49175 4.77051 9.50523C4.92536 9.5193 5.11506 9.51927 5.30426 9.51923H5.3043L5.3316 9.51923H5.92692C6.11549 9.51923 6.20977 9.51923 6.26834 9.57781C6.32692 9.63639 6.32692 9.73067 6.32692 9.91923V11.1755L6.32692 11.2051C6.3269 11.4593 6.32688 11.6963 6.34268 11.8827C6.35572 12.0364 6.38844 12.3731 6.62773 12.6352C6.8881 12.9203 7.27417 13.0557 7.6556 12.9957C8.00614 12.9406 8.24207 12.6981 8.34823 12.5862C8.47703 12.4505 8.6251 12.2654 8.78385 12.0669L8.80233 12.0438L11.4461 8.7391L11.4632 8.71778L11.4632 8.71774C11.5814 8.57002 11.6999 8.42191 11.7857 8.29221C11.8679 8.16784 12.0097 7.93413 12.0101 7.63201C12.0104 7.28179 11.8512 6.95048 11.5775 6.732C11.3414 6.54352 11.0703 6.50825 10.9218 6.49477C10.7669 6.4807 10.5772 6.48073 10.388 6.48077L10.3607 6.48077H9.76539C9.57682 6.48077 9.48254 6.48077 9.42396 6.42219C9.36539 6.36361 9.36539 6.26933 9.36539 6.08077V4.8245L9.36539 4.79491V4.79488C9.36541 4.54073 9.36543 4.30369 9.34962 4.11729C9.33659 3.96363 9.30387 3.62687 9.06458 3.36483Z" fill="url(#paint0_linear_488_532)"/>
<defs>
<linearGradient id="paint0_linear_488_532" x1="3" y1="14.5" x2="14" y2="2.5" gradientUnits="userSpaceOnUse">
<stop stop-color="#2FFFFF"/>
<stop offset="0.27" stop-color="#2AE7FF"/>
<stop offset="0.721376" stop-color="#1EAAFF"/>
<stop offset="1" stop-color="#1A95FF"/>
</linearGradient>
</defs>
</svg>
