<svg width="22" height="22" viewBox="0 0 22 22" fill="none" xmlns="http://www.w3.org/2000/svg">
<path d="M17.4167 1.375H4.58333C2.81142 1.375 1.375 2.81142 1.375 4.58333V17.4167C1.375 19.1885 2.81142 20.625 4.58333 20.625H17.4167C19.1885 20.625 20.625 19.1885 20.625 17.4167V4.58333C20.625 2.81142 19.1885 1.375 17.4167 1.375Z" fill="url(#paint0_linear_451_2590)"/>
<path d="M10.083 4.5835C9.70332 4.5835 9.39551 4.8913 9.39551 5.271V7.10434C9.39551 7.48403 9.70332 7.79184 10.083 7.79184H11.9164C12.296 7.79184 12.6039 7.48403 12.6039 7.10434V5.271C12.6039 4.8913 12.296 4.5835 11.9164 4.5835H10.083ZM10.083 9.396C9.70332 9.396 9.39551 9.7038 9.39551 10.0835V16.7293C9.39551 17.109 9.70332 17.4168 10.083 17.4168H11.9164C12.296 17.4168 12.6039 17.109 12.6039 16.7293V10.0835C12.6039 9.7038 12.296 9.396 11.9164 9.396H10.083Z" fill="white"/>
<defs>
<linearGradient id="paint0_linear_451_2590" x1="11" y1="20.625" x2="11" y2="1.375" gradientUnits="userSpaceOnUse">
<stop stop-color="#5570FF"/>
<stop offset="1" stop-color="#4DD3FF"/>
</linearGradient>
</defs>
</svg>
