<svg width="22" height="22" viewBox="0 0 22 22" fill="none" xmlns="http://www.w3.org/2000/svg">
<path d="M16.5 2.75H5.5C3.98122 2.75 2.75 3.98122 2.75 5.5V16.5C2.75 18.0187 3.98122 19.25 5.5 19.25H16.5C18.0187 19.25 19.25 18.0187 19.25 16.5V5.5C19.25 3.98122 18.0187 2.75 16.5 2.75Z" stroke="url(#paint0_linear_451_2593)" stroke-width="2"/>
<path d="M11.1948 5.69431C11.0874 5.58692 10.9133 5.58692 10.8059 5.69431L9.50946 6.99074C9.4579 7.04231 9.38794 7.07129 9.31501 7.07129H7.34678C7.1949 7.07129 7.07178 7.19441 7.07178 7.34629V9.31452C7.07178 9.38745 7.04279 9.45741 6.99123 9.50897L5.6948 10.8054C5.58741 10.9128 5.58741 11.0869 5.6948 11.1943L6.99123 12.4907C7.04279 12.5423 7.07178 12.6123 7.07178 12.6852V14.6534C7.07178 14.8053 7.1949 14.9284 7.34678 14.9284H9.31501C9.38794 14.9284 9.4579 14.9574 9.50946 15.0089L10.8059 16.3054C10.9133 16.4128 11.0874 16.4128 11.1948 16.3054L12.4912 15.0089C12.5428 14.9574 12.6128 14.9284 12.6857 14.9284H14.6539C14.8058 14.9284 14.9289 14.8053 14.9289 14.6534V12.6852C14.9289 12.6123 14.9579 12.5423 15.0094 12.4907L16.3059 11.1943C16.4133 11.0869 16.4133 10.9128 16.3059 10.8054L15.0094 9.50897C14.9579 9.45741 14.9289 9.38745 14.9289 9.31452V7.34629C14.9289 7.19441 14.8058 7.07129 14.6539 7.07129H12.6857C12.6128 7.07129 12.5428 7.04231 12.4912 6.99074L11.1948 5.69431Z" stroke="url(#paint1_linear_451_2593)" stroke-width="2"/>
<defs>
<linearGradient id="paint0_linear_451_2593" x1="11" y1="19.25" x2="11" y2="2.75" gradientUnits="userSpaceOnUse">
<stop stop-color="#FD5900"/>
<stop offset="1" stop-color="#FFDE00"/>
</linearGradient>
<linearGradient id="paint1_linear_451_2593" x1="11.0003" y1="16.4999" x2="11.0003" y2="5.49986" gradientUnits="userSpaceOnUse">
<stop stop-color="#FD5900"/>
<stop offset="1" stop-color="#FFDE00"/>
</linearGradient>
</defs>
</svg>
