<svg width="22" height="22" viewBox="0 0 22 22" fill="none" xmlns="http://www.w3.org/2000/svg">
<g clip-path="url(#clip0_451_2577)">
<path d="M20.1663 11.0002C20.1663 16.0629 16.0624 20.1668 10.9997 20.1668C5.93692 20.1668 1.83301 16.0629 1.83301 11.0002C1.83301 5.93741 5.93692 1.8335 10.9997 1.8335C16.0624 1.8335 20.1663 5.93741 20.1663 11.0002Z" stroke="url(#paint0_linear_451_2577)" stroke-width="2.4"/>
<path d="M10.834 6.37411C10.0926 6.37411 9.49091 6.97578 9.49091 7.71714C9.49091 7.9546 9.39659 8.18234 9.22865 8.35025C9.06076 8.51817 8.83302 8.61249 8.59556 8.61249C8.3581 8.61249 8.13036 8.51817 7.96244 8.35025C7.79453 8.18234 7.7002 7.9546 7.7002 7.71714C7.70021 7.20373 7.82637 6.69818 8.06759 6.24496C8.30879 5.79173 8.65766 5.40472 9.08351 5.11794C9.50943 4.83116 9.9992 4.65341 10.5099 4.60031C11.0205 4.5472 11.5364 4.62037 12.0121 4.81339C12.4879 5.00642 12.9089 5.31337 13.2382 5.70726C13.5675 6.10116 13.795 6.56993 13.9006 7.07235C14.0063 7.57478 13.9869 8.09546 13.8442 8.58863C13.7013 9.08179 13.4396 9.5323 13.082 9.90062C12.972 10.014 12.867 10.1191 12.7667 10.2193C12.5243 10.4503 12.2966 10.6963 12.0851 10.956C11.8225 11.2926 11.7293 11.5397 11.7293 11.7462V12.6416C11.7293 12.8791 11.635 13.1068 11.4671 13.2747C11.2991 13.4426 11.0714 13.5369 10.834 13.5369C10.5965 13.5369 10.3688 13.4426 10.2009 13.2747C10.0329 13.1068 9.93861 12.8791 9.93861 12.6416V11.7462C9.93861 10.9643 10.3027 10.3304 10.6716 9.85644C10.945 9.50544 11.2876 9.16403 11.567 8.88469C11.6506 8.80111 11.7293 8.72352 11.7973 8.65308C11.9813 8.46374 12.1054 8.22438 12.1542 7.96491C12.2029 7.70544 12.174 7.43737 12.0712 7.1942C11.9684 6.95103 11.7962 6.74355 11.5761 6.59769C11.3561 6.45183 11.098 6.37406 10.834 6.37411ZM10.834 17.4168C11.1506 17.4168 11.4542 17.2911 11.6781 17.0672C11.902 16.8433 12.0278 16.5397 12.0278 16.2231C12.0278 15.9064 11.902 15.6027 11.6781 15.3789C11.4542 15.155 11.1506 15.0292 10.834 15.0292C10.5174 15.0292 10.2137 15.155 9.98985 15.3789C9.76591 15.6027 9.64015 15.9064 9.64015 16.2231C9.64015 16.5397 9.76591 16.8433 9.98985 17.0672C10.2137 17.2911 10.5174 17.4168 10.834 17.4168Z" fill="url(#paint1_linear_451_2577)"/>
</g>
<defs>
<linearGradient id="paint0_linear_451_2577" x1="10.9997" y1="1.8335" x2="10.9997" y2="20.1668" gradientUnits="userSpaceOnUse">
<stop stop-color="#DC18FC"/>
<stop offset="1" stop-color="#8E1EFF"/>
</linearGradient>
<linearGradient id="paint1_linear_451_2577" x1="10.834" y1="4.58349" x2="10.834" y2="17.4168" gradientUnits="userSpaceOnUse">
<stop stop-color="#DC18FC"/>
<stop offset="1" stop-color="#8E1EFF"/>
</linearGradient>
<clipPath id="clip0_451_2577">
<rect width="22" height="22" fill="white"/>
</clipPath>
</defs>
</svg>
