<svg width="22" height="22" viewBox="0 0 22 22" fill="none" xmlns="http://www.w3.org/2000/svg">
<path d="M2.50051 12.9009C2.40832 12.9044 2.32089 12.9427 2.25566 13.0079L1.67259 13.591C0.861735 14.4019 0.861741 15.7122 1.6726 16.5231C2.48335 17.3339 3.79376 17.3336 4.60467 16.5231L7.80335 13.3288C8.03954 13.0929 7.86338 12.6898 7.52985 12.703L2.50051 12.9009Z" fill="url(#paint0_linear_451_2571)"/>
<path d="M8.97444 11.8624C8.90922 11.9276 8.82186 11.9657 8.72976 11.9694L3.69834 12.1674C3.36493 12.1805 3.18871 11.7776 3.42466 11.5418L9.56288 5.40344C9.7321 5.23393 9.93313 5.0994 10.1546 5.00761C10.3758 4.91584 10.6128 4.86865 10.8522 4.86865C11.0917 4.86865 11.3288 4.91587 11.55 5.00769C11.771 5.09931 11.972 5.23368 12.1414 5.4034L20.3267 13.5886C20.5196 13.7811 20.6729 14.01 20.7772 14.2614C20.8814 14.513 20.9353 14.7832 20.9353 15.0556C20.9353 15.3279 20.8817 15.5977 20.7774 15.8492C20.6736 16.0995 20.5215 16.3272 20.3302 16.5189C19.5284 17.3336 18.2062 17.3324 17.4052 16.5314L12.1521 11.2782C11.4366 10.5626 10.2764 10.5622 9.56032 11.2774L8.97444 11.8624Z" fill="url(#paint1_linear_451_2571)"/>
<defs>
<linearGradient id="paint0_linear_451_2571" x1="2.83462" y1="17.3058" x2="1.69268" y2="13.9335" gradientUnits="userSpaceOnUse">
<stop offset="0.106984" stop-color="#E02767"/>
<stop offset="0.871403" stop-color="#FA5D51"/>
</linearGradient>
<linearGradient id="paint1_linear_451_2571" x1="7.87125" y1="17.6149" x2="4.52292" y2="8.42635" gradientUnits="userSpaceOnUse">
<stop offset="0.106984" stop-color="#E02767"/>
<stop offset="0.871403" stop-color="#FA5D51"/>
</linearGradient>
</defs>
</svg>
