<svg width="22" height="22" viewBox="0 0 22 22" fill="none" xmlns="http://www.w3.org/2000/svg">
<path d="M2.50051 9.09933C2.40832 9.0957 2.32089 9.05746 2.25566 8.99222L1.67259 8.40917C0.861735 7.59828 0.861741 6.28799 1.6726 5.47711C2.48335 4.66635 3.79376 4.66662 4.60467 5.47711L5.79353 6.66434L7.80335 8.67142C8.03954 8.90727 7.86338 9.31037 7.52985 9.29726L2.50051 9.09933Z" fill="url(#paint0_linear_451_2574)"/>
<path d="M8.97444 10.1372C8.90922 10.072 8.82186 10.0339 8.72976 10.0302L3.69834 9.8322C3.36493 9.81909 3.18871 10.222 3.42466 10.4579L9.56288 16.5962C9.7321 16.7657 9.93313 16.9003 10.1546 16.992C10.3758 17.0838 10.6128 17.131 10.8522 17.131C11.0917 17.131 11.3288 17.0838 11.55 16.9919C11.771 16.9003 11.972 16.766 12.1414 16.5963L20.3267 8.41101C20.5196 8.21854 20.6729 7.98963 20.7772 7.73828C20.8814 7.4867 20.9353 7.21646 20.9353 6.9441C20.9353 6.67173 20.8817 6.40202 20.7774 6.15045C20.6736 5.90019 20.5215 5.67243 20.3302 5.48074C19.5284 4.66612 18.2062 4.66732 17.4052 5.46823L16.2122 6.66133L12.1521 10.7214C11.4366 11.437 10.2764 11.4374 9.56032 10.7223L8.97444 10.1372Z" fill="url(#paint1_linear_451_2574)"/>
<defs>
<linearGradient id="paint0_linear_451_2574" x1="6.64028" y1="8.50192" x2="4.49022" y2="4.67778" gradientUnits="userSpaceOnUse">
<stop stop-color="#248EFE"/>
<stop offset="1" stop-color="#1DF4FF"/>
</linearGradient>
<linearGradient id="paint1_linear_451_2574" x1="17.6636" y1="14.9279" x2="11.4912" y2="4.72606" gradientUnits="userSpaceOnUse">
<stop stop-color="#248EFE"/>
<stop offset="1" stop-color="#1DF4FF"/>
</linearGradient>
</defs>
</svg>
