<svg width="24" height="24" viewBox="0 0 24 24" fill="none" xmlns="http://www.w3.org/2000/svg">
<path opacity="0.5" d="M9.92633 21.2723C9.92237 21.3728 9.88065 21.4682 9.80948 21.5394L9.17342 22.1754C8.28882 23.06 6.85941 23.06 5.97481 22.1754C5.09035 21.291 5.09064 19.8614 5.97481 18.9768L9.45951 15.4873C9.71681 15.2297 10.1566 15.4219 10.1422 15.7857L9.92633 21.2723Z" fill="url(#paint0_linear_348_127)"/>
<path d="M11.059 14.2095C10.9879 14.2806 10.9463 14.3759 10.9423 14.4764L10.7263 19.9652C10.712 20.3289 11.1515 20.5212 11.4089 20.2638L18.1052 13.5674C18.2901 13.3829 18.4369 13.1636 18.537 12.922C18.6371 12.6807 18.6886 12.4221 18.6886 12.1609C18.6886 11.8997 18.6371 11.6411 18.5369 11.3997C18.437 11.1587 18.2904 10.9393 18.1053 10.7546L9.17591 1.8252C8.96594 1.61469 8.71622 1.44752 8.44202 1.33368C8.16757 1.21996 7.87277 1.16113 7.57564 1.16113C7.27851 1.16113 6.98428 1.21972 6.70984 1.33344C6.43683 1.44672 6.18837 1.6126 5.97925 1.82132C5.09058 2.69596 5.09188 4.13843 5.9656 5.01215L11.6963 10.7428C12.477 11.5235 12.4774 12.7891 11.6973 13.5703L11.059 14.2095Z" fill="url(#paint1_linear_348_127)"/>
<defs>
<linearGradient id="paint0_linear_348_127" x1="5.12093" y1="20.9078" x2="8.7998" y2="22.1535" gradientUnits="userSpaceOnUse">
<stop offset="0.106984" stop-color="#E02767"/>
<stop offset="0.871403" stop-color="#FA5D51"/>
</linearGradient>
<linearGradient id="paint1_linear_348_127" x1="4.78372" y1="15.4134" x2="14.8076" y2="19.0661" gradientUnits="userSpaceOnUse">
<stop offset="0.106984" stop-color="#E02767"/>
<stop offset="0.871403" stop-color="#FA5D51"/>
</linearGradient>
</defs>
</svg>
