<svg width="24" height="24" viewBox="0 0 24 24" fill="none" xmlns="http://www.w3.org/2000/svg">
<path opacity="0.5" d="M14.0739 21.2723C14.0779 21.3728 14.1196 21.4682 14.1908 21.5394L14.8268 22.1754C15.7114 23.06 17.1408 23.06 18.0254 22.1754C18.9099 21.291 18.9096 19.8614 18.0254 18.9768L14.5407 15.4873C14.2834 15.2297 13.8437 15.4219 13.858 15.7857L14.0739 21.2723Z" fill="url(#paint0_linear_348_127)"/>
<path d="M12.9412 14.2095C13.0123 14.2806 13.0539 14.3759 13.0579 14.4764L13.2739 19.9652C13.2882 20.3289 12.8487 20.5212 12.5914 20.2638L5.89504 13.5674C5.71012 13.3829 5.56335 13.1636 5.46322 12.922C5.3631 12.6807 5.31163 12.4221 5.31163 12.1609C5.31163 11.8997 5.36313 11.6411 5.46331 11.3997C5.56326 11.1587 5.70983 10.9393 5.89499 10.7546L14.8243 1.8252C15.0343 1.61469 15.284 1.44752 15.5582 1.33368C15.8327 1.21996 16.1275 1.16113 16.4246 1.16113C16.7217 1.16113 17.016 1.21972 17.2904 1.33344C17.5634 1.44672 17.8119 1.6126 18.021 1.82132C18.9097 2.69596 18.9084 4.13843 18.0346 5.01215L12.3039 10.7428C11.5233 11.5235 11.5228 12.7891 12.303 13.5703L12.9412 14.2095Z" fill="url(#paint1_linear_348_127)"/>
<defs>
<linearGradient id="paint0_linear_348_127" x1="18.8793" y1="20.9078" x2="15.2004" y2="22.1535" gradientUnits="userSpaceOnUse">
<stop offset="0.106984" stop-color="#E02767"/>
<stop offset="0.871403" stop-color="#FA5D51"/>
</linearGradient>
<linearGradient id="paint1_linear_348_127" x1="19.2165" y1="15.4134" x2="9.19265" y2="19.0661" gradientUnits="userSpaceOnUse">
<stop offset="0.106984" stop-color="#E02767"/>
<stop offset="0.871403" stop-color="#FA5D51"/>
</linearGradient>
</defs>
</svg>
