<svg width="22" height="22" viewBox="0 0 22 22" fill="none" xmlns="http://www.w3.org/2000/svg">
<path d="M2.03736 6.3147H1.83366C1.3274 6.3147 0.916992 6.72511 0.916992 7.23137V7.43508V18.6387C0.916992 19.2594 1.41668 19.7592 2.03736 19.7592H19.9633H20.167C20.6733 19.7592 21.0837 19.3487 21.0837 18.8425V18.6387V7.43508C21.0837 6.8144 20.584 6.3147 19.9633 6.3147L14.616 6.41656L2.03736 6.3147ZM3.15773 7.43508H13.241L14.616 6.41656L10.8758 6.32552C10.5952 6.31869 10.3394 6.17681 10.1377 5.98168C9.62166 5.48269 8.9285 5.19662 8.1994 5.19434C7.4657 5.19491 6.76783 5.48294 6.24972 5.9864C6.05117 6.17932 5.80008 6.32055 5.52343 6.3306L4.04112 6.38446C3.54814 6.40237 3.15773 6.80721 3.15773 7.30052V7.43508ZM2.03736 8.35175C2.03736 7.84548 2.44777 7.43508 2.95403 7.43508H3.15773H5.45536H10.9391H13.241H14.3615H19.0466C19.5529 7.43508 19.9633 7.84548 19.9633 8.35175V9.87954C19.9633 10.3858 19.5529 10.7962 19.0466 10.7962H17.7225H12.1207C10.8793 10.7962 9.87997 11.7956 9.87997 13.0369C9.87997 14.2783 10.8793 15.2777 12.1207 15.2777H17.7225H19.0466C19.5529 15.2777 19.9633 15.6881 19.9633 16.1944V17.7221C19.9633 18.2284 19.5529 18.6387 19.0466 18.6387H2.95403C2.44777 18.6387 2.03736 18.2284 2.03736 17.7221V8.35175ZM13.241 11.9166C13.8599 11.9166 14.3615 12.4182 14.3615 13.0369C14.3615 13.6557 13.8599 14.1573 13.241 14.1573C12.6223 14.1573 12.1207 13.6557 12.1207 13.0369C12.1207 12.4182 12.6223 11.9166 13.241 11.9166Z" fill="url(#paint0_linear_451_2166)"/>
<path d="M14.616 6.41656L19.9633 6.3147C20.584 6.3147 21.0837 6.8144 21.0837 7.43508V18.6387V18.8425C21.0837 19.3487 20.6733 19.7592 20.167 19.7592H19.9633H2.03736C1.41668 19.7592 0.916992 19.2594 0.916992 18.6387V7.43508V7.23137C0.916992 6.72511 1.3274 6.3147 1.83366 6.3147H2.03736L14.616 6.41656ZM14.616 6.41656L13.241 7.43508M14.616 6.41656L10.8758 6.32552C10.5952 6.31869 10.3394 6.17681 10.1377 5.98168C9.62166 5.48269 8.9285 5.19662 8.1994 5.19434C7.4657 5.19491 6.76783 5.48294 6.24972 5.9864C6.05117 6.17932 5.80008 6.32055 5.52343 6.3306L4.04112 6.38446C3.54814 6.40237 3.15773 6.80721 3.15773 7.30052V7.43508M13.241 7.43508H3.15773M13.241 7.43508H14.3615H19.0466C19.5529 7.43508 19.9633 7.84548 19.9633 8.35175V9.87954C19.9633 10.3858 19.5529 10.7962 19.0466 10.7962H17.7225H12.1207C10.8793 10.7962 9.87997 11.7956 9.87997 13.0369C9.87997 14.2783 10.8793 15.2777 12.1207 15.2777H17.7225H19.0466C19.5529 15.2777 19.9633 15.6881 19.9633 16.1944V17.7221C19.9633 18.2284 19.5529 18.6387 19.0466 18.6387H2.95403C2.44777 18.6387 2.03736 18.2284 2.03736 17.7221V8.35175C2.03736 7.84548 2.44777 7.43508 2.95403 7.43508H3.15773M13.241 7.43508H10.9391H5.45536H3.15773M13.241 11.9166C13.8599 11.9166 14.3615 12.4182 14.3615 13.0369C14.3615 13.6557 13.8599 14.1573 13.241 14.1573C12.6223 14.1573 12.1207 13.6557 12.1207 13.0369C12.1207 12.4182 12.6223 11.9166 13.241 11.9166Z" stroke="url(#paint1_linear_451_2166)"/>
<defs>
<linearGradient id="paint0_linear_451_2166" x1="20.5149" y1="12.4767" x2="5.30213" y2="4.85721" gradientUnits="userSpaceOnUse">
<stop stop-color="#FE7970"/>
<stop offset="1" stop-color="#DC3282"/>
</linearGradient>
<linearGradient id="paint1_linear_451_2166" x1="20.5149" y1="12.4767" x2="5.30213" y2="4.85721" gradientUnits="userSpaceOnUse">
<stop stop-color="#FE7970"/>
<stop offset="1" stop-color="#DC3282"/>
</linearGradient>
</defs>
</svg>
