<svg width="22" height="22" viewBox="0 0 22 22" fill="none" xmlns="http://www.w3.org/2000/svg">
<path opacity="0.5" fill-rule="evenodd" clip-rule="evenodd" d="M1.59473 4.79517C1.59473 4.58946 1.67645 4.39217 1.8219 4.24671C1.96737 4.10125 2.16465 4.01953 2.37036 4.01953H14.7806C14.9863 4.01953 15.1836 4.10125 15.3291 4.24671C15.4745 4.39217 15.5563 4.58946 15.5563 4.79517C15.5563 5.00089 15.4745 5.19817 15.3291 5.34363C15.1836 5.48909 14.9863 5.57082 14.7806 5.57082H2.37036C2.16465 5.57082 1.96737 5.48909 1.8219 5.34363C1.67645 5.19817 1.59473 5.00089 1.59473 4.79517ZM1.59473 8.93192C1.59473 8.72621 1.67645 8.52893 1.8219 8.38346C1.96737 8.238 2.16465 8.15628 2.37036 8.15628H12.7123C12.918 8.15628 13.1152 8.238 13.2607 8.38346C13.4062 8.52893 13.4879 8.72621 13.4879 8.93192C13.4879 9.13764 13.4062 9.33494 13.2607 9.48042C13.1152 9.6258 12.918 9.70757 12.7123 9.70757H2.37036C2.16465 9.70757 1.96737 9.6258 1.8219 9.48042C1.67645 9.33494 1.59473 9.13764 1.59473 8.93192ZM1.59473 13.0687C1.59473 12.863 1.67645 12.6657 1.8219 12.5203C1.96737 12.3748 2.16465 12.293 2.37036 12.293H8.57549C8.78121 12.293 8.97849 12.3748 9.12395 12.5203C9.26944 12.6657 9.35111 12.863 9.35111 13.0687C9.35111 13.2744 9.26944 13.4717 9.12395 13.6172C8.97849 13.7626 8.78121 13.8443 8.57549 13.8443H2.37036C2.16465 13.8443 1.96737 13.7626 1.8219 13.6172C1.67645 13.4717 1.59473 13.2744 1.59473 13.0687ZM1.59473 17.2054C1.59473 16.9997 1.67645 16.8025 1.8219 16.657C1.96737 16.5115 2.16465 16.4299 2.37036 16.4299H7.54131C7.74702 16.4299 7.9443 16.5115 8.08977 16.657C8.23522 16.8025 8.31695 16.9997 8.31695 17.2054C8.31695 17.4111 8.23522 17.6085 8.08977 17.7539C7.9443 17.8994 7.74702 17.9811 7.54131 17.9811H2.37036C2.16465 17.9811 1.96737 17.8994 1.8219 17.7539C1.67645 17.6085 1.59473 17.4111 1.59473 17.2054Z" fill="url(#paint0_linear_451_2554)" stroke="url(#paint1_linear_451_2554)"/>
<path d="M17.4207 16.85C17.3218 16.4379 16.9532 16.1473 16.5293 16.1473H15.5401C15.1162 16.1473 14.7476 16.4379 14.6487 16.85L14.546 17.2779C14.4471 17.69 14.0785 17.9806 13.6547 17.9806H12.9378C12.3158 17.9806 11.8744 17.3743 12.0655 16.7823L14.1723 10.2557C14.2946 9.87718 14.6469 9.62061 15.0447 9.62061H17.1477C17.5498 9.62061 17.905 9.88268 18.0236 10.2669L20.0388 16.7935C20.2208 17.3831 19.7801 17.9806 19.1629 17.9806H18.4147C17.9909 17.9806 17.6223 17.69 17.5234 17.2779L17.4207 16.85ZM16.0492 11.4246C16.0319 11.4246 16.0168 11.4361 16.0121 11.4527L15.3913 13.6731C15.2725 14.0982 15.5919 14.5193 16.0333 14.5193C16.471 14.5193 16.7899 14.1047 16.6777 13.6816L16.0863 11.4532C16.0818 11.4363 16.0666 11.4246 16.0492 11.4246Z" fill="url(#paint2_linear_451_2554)"/>
<defs>
<linearGradient id="paint0_linear_451_2554" x1="1.59677" y1="10.7935" x2="15.5586" y2="10.7935" gradientUnits="userSpaceOnUse">
<stop stop-color="#A93AFF"/>
<stop offset="1" stop-color="#FF81FF"/>
</linearGradient>
<linearGradient id="paint1_linear_451_2554" x1="1.59677" y1="10.7935" x2="15.5586" y2="10.7935" gradientUnits="userSpaceOnUse">
<stop stop-color="#A93AFF"/>
<stop offset="1" stop-color="#FF81FF"/>
</linearGradient>
<linearGradient id="paint2_linear_451_2554" x1="11.68" y1="13.6768" x2="20.4068" y2="13.6768" gradientUnits="userSpaceOnUse">
<stop stop-color="#A93AFF"/>
<stop offset="1" stop-color="#FF81FF"/>
</linearGradient>
</defs>
</svg>
