<svg width="22" height="22" viewBox="0 0 22 22" fill="none" xmlns="http://www.w3.org/2000/svg">
<path d="M9.42896 18.307L9.47176 18.1003C9.56007 17.6736 9.23426 17.2734 8.79852 17.2734H8.58742H4.8125C4.43279 17.2734 4.125 16.9656 4.125 16.5859V13.7552C4.125 13.3071 4.54678 12.9809 4.98833 13.0569C5.33844 13.1172 5.63654 13.1484 5.84375 13.1484C7.029 13.1484 7.99219 12.1852 7.99219 11C7.99219 9.81475 7.029 8.85156 5.84375 8.85156C5.63654 8.85156 5.33844 8.88281 4.98833 8.9431C4.54678 9.01911 4.125 8.69289 4.125 8.24484V5.41406C4.125 5.03436 4.43279 4.72656 4.8125 4.72656H8.58742H8.79852C9.23426 4.72656 9.56007 4.3264 9.47176 3.89971L9.42896 3.69298C9.32872 3.20867 9.28125 2.81469 9.28125 2.57812C9.28125 1.63087 10.0527 0.859375 11 0.859375C11.9473 0.859375 12.7188 1.63087 12.7188 2.57812C12.7188 2.81469 12.6713 3.20867 12.571 3.69298L12.5282 3.89971C12.4399 4.3264 12.7657 4.72656 13.2015 4.72656H13.4126H17.1875C17.5672 4.72656 17.875 5.03436 17.875 5.41406V8.24484C17.875 8.69289 17.4532 9.01911 17.0117 8.9431C16.6616 8.88281 16.3635 8.85156 16.1562 8.85156C14.971 8.85156 14.0078 9.81475 14.0078 11C14.0078 12.1852 14.971 13.1484 16.1562 13.1484C16.3635 13.1484 16.6616 13.1172 17.0117 13.0569C17.4532 12.9809 17.875 13.3071 17.875 13.7552V16.5859C17.875 16.9656 17.5672 17.2734 17.1875 17.2734H13.4126H13.2015C12.7658 17.2734 12.44 17.6736 12.5282 18.1002L12.571 18.307C12.6712 18.7914 12.7188 19.1853 12.7188 19.4219C12.7188 20.3691 11.9473 21.1406 11 21.1406C10.0527 21.1406 9.28125 20.3691 9.28125 19.4219C9.28125 19.1853 9.32872 18.7913 9.42896 18.307Z" fill="url(#paint0_linear_451_2552)" stroke="url(#paint1_linear_451_2552)"/>
<defs>
<linearGradient id="paint0_linear_451_2552" x1="11" y1="21.1406" x2="11" y2="0.859375" gradientUnits="userSpaceOnUse">
<stop stop-color="#02AA93"/>
<stop offset="1" stop-color="#67FF80"/>
</linearGradient>
<linearGradient id="paint1_linear_451_2552" x1="11" y1="22" x2="11" y2="0" gradientUnits="userSpaceOnUse">
<stop stop-color="#02AA93"/>
<stop offset="1" stop-color="#67FF80"/>
</linearGradient>
</defs>
</svg>
