<svg width="22" height="22" viewBox="0 0 22 22" fill="none" xmlns="http://www.w3.org/2000/svg">
<path d="M11.1542 7.5459C10.8942 7.5459 10.6776 7.74527 10.6561 8.00442L10.5733 9.00267C10.5572 9.19607 10.4298 9.36078 10.2522 9.43899C9.89889 9.59456 9.56369 9.78836 9.2526 10.0169C9.09607 10.132 8.88951 10.1601 8.7138 10.0773L7.80712 9.64985C7.57193 9.53896 7.29102 9.62692 7.16105 9.85213L5.93904 11.9696C5.80913 12.1947 5.87341 12.4819 6.08691 12.6301L6.90799 13.2001C7.06791 13.3111 7.14671 13.5047 7.12484 13.6981C7.10328 13.8889 7.09212 14.0809 7.09143 14.2729C7.09137 14.4671 7.102 14.6611 7.12324 14.8539C7.14453 15.047 7.06563 15.2399 6.90603 15.3506L6.08714 15.9186C5.87354 16.0668 5.80918 16.3539 5.93913 16.5791L7.16107 18.6966C7.29103 18.9217 7.57192 19.0097 7.80711 18.8989L8.70977 18.4734C8.88484 18.3908 9.09062 18.4185 9.24699 18.5326C9.5594 18.7604 9.89585 18.9532 10.2503 19.1077C10.4289 19.1855 10.5573 19.3506 10.5734 19.5448L10.6561 20.5416C10.6776 20.8008 10.8942 21.0001 11.1542 21.0001H13.5977C13.8576 21.0001 14.0743 20.8008 14.0958 20.5416L14.1785 19.5459C14.1946 19.3525 14.3219 19.1879 14.4995 19.1097C14.8529 18.9541 15.1881 18.7603 15.4992 18.5317C15.6557 18.4167 15.8622 18.3885 16.038 18.4714L16.9446 18.8987C17.1798 19.0097 17.4607 18.9217 17.5907 18.6966L18.8128 16.579C18.9426 16.3539 18.8784 16.0668 18.6648 15.9186L17.8446 15.3491C17.6843 15.2378 17.6055 15.0435 17.6279 14.8495C17.6502 14.6582 17.6618 14.4658 17.663 14.2729C17.6624 14.08 17.6513 13.8873 17.6295 13.6956C17.6077 13.5022 17.6865 13.3085 17.8466 13.1975L18.6646 12.63C18.8783 12.4819 18.9426 12.1947 18.8127 11.9695L17.5907 9.85209C17.4607 9.6269 17.1798 9.53894 16.9446 9.6498L16.0422 10.0752C15.867 10.1578 15.6612 10.13 15.5047 10.0158C15.1929 9.7882 14.857 9.59541 14.5033 9.44093C14.3251 9.36314 14.197 9.19838 14.1806 9.00467L14.0963 8.00374C14.0744 7.74489 13.858 7.5459 13.5982 7.5459H11.1542ZM12.3759 12.3521C12.6283 12.3519 12.8783 12.4014 13.1116 12.4979C13.3449 12.5943 13.5569 12.7358 13.7355 12.9141C13.9142 13.0925 14.0559 13.3043 14.1526 13.5374C14.2493 13.7706 14.2992 14.0205 14.2995 14.2729C14.2996 14.5256 14.25 14.7759 14.1534 15.0093C14.0568 15.2428 13.9151 15.455 13.7365 15.6335C13.5578 15.8122 13.3456 15.9539 13.1122 16.0505C12.8788 16.1471 12.6285 16.1967 12.3759 16.1966C12.1235 16.1963 11.8735 16.1465 11.6404 16.0498C11.4072 15.953 11.1954 15.8112 11.017 15.6326C10.8386 15.4541 10.6972 15.242 10.6008 15.0087C10.5043 14.7754 10.4548 14.5255 10.455 14.2729C10.4553 13.7636 10.6578 13.2752 11.0179 12.9151C11.3781 12.5549 11.8665 12.3524 12.3759 12.3521Z" fill="url(#paint0_linear_451_2545)"/>
<path fill-rule="evenodd" clip-rule="evenodd" d="M6.02171 1.10737C5.94757 1.00064 5.804 0.968532 5.69147 1.03352L4.34222 1.81263C4.22967 1.87763 4.1857 2.01805 4.24114 2.13562L4.52998 2.7484C4.57131 2.83605 4.55753 2.93917 4.49956 3.01681C4.34838 3.21928 4.22194 3.4391 4.12294 3.67159C4.08487 3.76097 4.00236 3.82482 3.90555 3.83294L3.22902 3.88973C3.09954 3.90061 3 4.00886 3 4.13878V5.69727C3 5.82719 3.09954 5.93545 3.22902 5.94632L3.9048 6.00305C4.002 6.01121 4.08475 6.07553 4.1226 6.16541C4.17163 6.28187 4.22762 6.39534 4.29023 6.50521C4.35348 6.6148 4.42321 6.72046 4.49902 6.82166C4.55728 6.89941 4.57115 7.00284 4.52962 7.09067L4.24135 7.70056C4.1858 7.81806 4.22959 7.95853 4.34208 8.02364L5.69137 8.80481C5.80392 8.86998 5.94765 8.83793 6.02186 8.7311L6.40975 8.17267C6.46496 8.09318 6.56101 8.0536 6.65714 8.06488C6.90785 8.09435 7.16119 8.09377 7.41177 8.06317C7.5084 8.05136 7.60517 8.09105 7.66061 8.17108L8.04827 8.73087C8.12234 8.83781 8.26605 8.87005 8.37871 8.80501L9.72789 8.02593C9.84036 7.96099 9.88434 7.82072 9.82908 7.70318L9.53986 7.08794C9.49858 7.00014 9.51255 6.89691 9.57077 6.81931C9.72269 6.61678 9.84982 6.39679 9.94943 6.16405C9.98759 6.07489 10.07 6.01126 10.1666 6.00315L10.8435 5.94632C10.973 5.93545 11.0725 5.82719 11.0725 5.69727V4.13934C11.0725 4.0092 10.9726 3.90082 10.8429 3.89025L10.1682 3.83528C10.0708 3.82734 9.9877 3.76296 9.94975 3.67288C9.90076 3.55655 9.84484 3.44322 9.78228 3.33348C9.71848 3.22386 9.64816 3.11819 9.57173 3.01706C9.51299 2.93931 9.49881 2.83558 9.54036 2.74744L9.82877 2.13562C9.88419 2.01805 9.84024 1.87763 9.72767 1.81263L8.37856 1.03359C8.26597 0.968574 8.12234 1.00074 8.04822 1.10757L7.66281 1.66318C7.60759 1.74278 7.51143 1.78243 7.41521 1.77108C7.16362 1.74142 6.90939 1.74202 6.65794 1.77285C6.5614 1.78469 6.46471 1.74513 6.40921 1.66524L6.02171 1.10737ZM7.00782 3.76711C7.21498 3.76186 7.41974 3.81253 7.60055 3.9138C7.78134 4.01507 7.93152 4.1632 8.03528 4.34259C8.18772 4.60746 8.22878 4.92201 8.14945 5.21716C8.07013 5.51229 7.8769 5.76386 7.61221 5.91663C7.34765 6.06928 7.03334 6.11075 6.73823 6.03193C6.44314 5.9531 6.19137 5.76043 6.03818 5.49618C5.96217 5.36507 5.91275 5.22027 5.89276 5.07004C5.87275 4.91983 5.88256 4.76714 5.92161 4.62071C5.96065 4.47428 6.02818 4.33698 6.12032 4.21667C6.21247 4.09635 6.32742 3.99538 6.45862 3.91951C6.62604 3.82356 6.81488 3.77116 7.00782 3.76711Z" fill="url(#paint1_linear_451_2545)"/>
<defs>
<linearGradient id="paint0_linear_451_2545" x1="11.7961" y1="20.6387" x2="13.3295" y2="8.48491" gradientUnits="userSpaceOnUse">
<stop stop-color="#8D01A2"/>
<stop offset="1" stop-color="#FF33DB"/>
</linearGradient>
<linearGradient id="paint1_linear_451_2545" x1="4.46314" y1="7.91314" x2="11.5568" y2="1.53899" gradientUnits="userSpaceOnUse">
<stop stop-color="#FE0844"/>
<stop offset="1" stop-color="#FEB302"/>
</linearGradient>
</defs>
</svg>
