<svg width="16" height="16" viewBox="0 0 16 16" fill="none" xmlns="http://www.w3.org/2000/svg">
<path d="M15.25 11.5595V5.2738C15.25 4.64864 14.979 4.04909 14.4968 3.60704C14.0146 3.165 13.3605 2.91666 12.6786 2.91666C12.5649 2.91666 12.4559 2.95805 12.3755 3.03172C12.2951 3.10539 12.25 3.20532 12.25 3.30951V13.5238C12.25 13.628 12.2951 13.7279 12.3755 13.8016C12.4559 13.8753 12.5649 13.9167 12.6786 13.9167C13.3605 13.9167 14.0146 13.6684 14.4968 13.2263C14.979 12.7842 15.25 12.1847 15.25 11.5595Z" stroke="url(#paint0_linear_164_136)"/>
<path d="M0.75 11.5595V5.2738C0.75 4.64864 1.02092 4.04909 1.50316 3.60704C1.98539 3.165 2.63945 2.91666 3.32143 2.91666C3.43509 2.91666 3.54411 2.95805 3.62448 3.03172C3.70485 3.10539 3.75 3.20532 3.75 3.30951V13.5238C3.75 13.628 3.70485 13.7279 3.62448 13.8016C3.54411 13.8753 3.43509 13.9167 3.32143 13.9167C2.63945 13.9167 1.98539 13.6684 1.50316 13.2263C1.02092 12.7842 0.75 12.1847 0.75 11.5595Z" stroke="url(#paint1_linear_164_136)"/>
<path d="M7.3524 14.8564C5.51941 14.8564 4.60389 14.8564 4.03437 14.2869C3.46484 13.7174 3.46484 12.8019 3.46484 10.9689V5.13755C3.46484 3.30457 3.46484 2.38905 4.03437 1.81953C4.60389 1.25 5.51941 1.25 7.3524 1.25H8.32426C10.1573 1.25 11.0728 1.25 11.6423 1.81953C12.2118 2.38905 12.2118 3.30457 12.2118 5.13755V10.9689C12.2118 12.8019 12.2118 13.7174 11.6423 14.2869C11.0728 14.8564 10.1573 14.8564 8.32426 14.8564H7.3524Z" stroke="url(#paint2_linear_164_136)" stroke-width="1.5"/>
<defs>
<linearGradient id="paint0_linear_164_136" x1="12.55" y1="13.9201" x2="19.0412" y2="8.60853" gradientUnits="userSpaceOnUse">
<stop stop-color="#22B4FA"/>
<stop offset="1" stop-color="#6BD6FE"/>
</linearGradient>
<linearGradient id="paint1_linear_164_136" x1="1.04999" y1="13.9201" x2="7.54115" y2="8.60853" gradientUnits="userSpaceOnUse">
<stop stop-color="#22B4FA"/>
<stop offset="1" stop-color="#6BD6FE"/>
</linearGradient>
<linearGradient id="paint2_linear_164_136" x1="4.33954" y1="14.8607" x2="11.0337" y2="1.94893" gradientUnits="userSpaceOnUse">
<stop stop-color="#22B4FA"/>
<stop offset="1" stop-color="#6BD6FE"/>
</linearGradient>
</defs>
</svg>
