<svg width="16" height="16" viewBox="0 0 16 16" fill="none" xmlns="http://www.w3.org/2000/svg">
<g clip-path="url(#clip0_165_207)">
<path fill-rule="evenodd" clip-rule="evenodd" d="M11.8715 7H4.12853C3.50558 7 3 7.41891 3 7.93506C3 8.45122 3.50558 8.87013 4.12853 8.87013H11.8715C12.4944 8.87013 13 8.45122 13 7.93506C13 7.41891 12.4944 7 11.8715 7Z" fill="url(#paint0_linear_165_207)"/>
<path fill-rule="evenodd" clip-rule="evenodd" d="M9.99997 3H6C5.448 3 5 3.448 5 4C5 4.552 5.448 5 6 5H9.99997C10.552 5 11 4.552 11 4C11 3.448 10.552 3 9.99997 3Z" fill="url(#paint1_linear_165_207)"/>
<path fill-rule="evenodd" clip-rule="evenodd" d="M9.99997 11H6C5.448 11 5 11.448 5 12C5 12.552 5.448 13 6 13H9.99997C10.552 13 11 12.552 11 12C11 11.448 10.552 11 9.99997 11Z" fill="url(#paint2_linear_165_207)"/>
<rect x="1" y="1" width="14" height="14" rx="1" stroke="url(#paint3_linear_165_207)" stroke-width="1.6"/>
</g>
<defs>
<linearGradient id="paint0_linear_165_207" x1="3.71429" y1="8.75563" x2="4.98175" y2="5.0981" gradientUnits="userSpaceOnUse">
<stop stop-color="#B65592"/>
<stop offset="0.5" stop-color="#FB6F71"/>
<stop offset="1" stop-color="#F9CB52"/>
</linearGradient>
<linearGradient id="paint1_linear_165_207" x1="5.42857" y1="4.87755" x2="7.3874" y2="1.70621" gradientUnits="userSpaceOnUse">
<stop stop-color="#B65592"/>
<stop offset="0.5" stop-color="#FB6F71"/>
<stop offset="1" stop-color="#F9CB52"/>
</linearGradient>
<linearGradient id="paint2_linear_165_207" x1="5.42857" y1="12.8775" x2="7.38736" y2="9.7062" gradientUnits="userSpaceOnUse">
<stop stop-color="#B65592"/>
<stop offset="0.5" stop-color="#FB6F71"/>
<stop offset="1" stop-color="#F9CB52"/>
</linearGradient>
<linearGradient id="paint3_linear_165_207" x1="2" y1="14.1429" x2="14.8178" y2="7.22555" gradientUnits="userSpaceOnUse">
<stop stop-color="#B65592"/>
<stop offset="0.5" stop-color="#FB6F71"/>
<stop offset="1" stop-color="#F9CB52"/>
</linearGradient>
<clipPath id="clip0_165_207">
<rect width="16" height="16" fill="white"/>
</clipPath>
</defs>
</svg>
