<svg width="16" height="16" viewBox="0 0 16 16" fill="none" xmlns="http://www.w3.org/2000/svg">
<g clip-path="url(#clip0_166_238)">
<path d="M11.0338 1H4.9655C2.5932 1 1 2.6646 1 5.1419V10.8588C1 13.3354 2.5932 15 4.9655 15H11.0331C13.4054 15 15 13.3354 15 10.8588V5.1419C15 2.6646 13.4061 1 11.0338 1Z" stroke="url(#paint0_linear_166_238)" stroke-width="1.8"/>
<path d="M7.03883 4.57486C7.09275 4.52103 7.13535 4.45695 7.16412 4.38641C7.19289 4.31587 7.20724 4.24027 7.20634 4.16409C7.20544 4.08791 7.18929 4.01268 7.15887 3.94283C7.12843 3.87298 7.08433 3.80994 7.02915 3.7574C6.97398 3.70487 6.90884 3.66391 6.83759 3.63694C6.76633 3.60997 6.6904 3.59754 6.61427 3.60037C6.53814 3.6032 6.46334 3.62125 6.39429 3.65344C6.32524 3.68564 6.26332 3.73132 6.21221 3.78782L4.45087 5.63745L3.99417 5.15791C3.94305 5.10142 3.88114 5.05573 3.8121 5.02354C3.74304 4.99135 3.66824 4.9733 3.59211 4.97047C3.51598 4.96763 3.44004 4.98007 3.36879 5.00703C3.29753 5.03401 3.2324 5.07497 3.17722 5.1275C3.12205 5.18003 3.07795 5.24309 3.04751 5.31293C3.01708 5.38278 3.00095 5.45801 3.00004 5.53419C2.99914 5.61037 3.01349 5.68596 3.04226 5.75651C3.07103 5.82706 3.11363 5.89113 3.16755 5.94496L4.03756 6.85835C4.09088 6.91431 4.155 6.95886 4.22604 6.9893C4.29709 7.01974 4.37358 7.03544 4.45087 7.03544C4.52816 7.03544 4.60465 7.01974 4.6757 6.9893C4.74675 6.95886 4.81087 6.91431 4.86418 6.85835L7.03883 4.57486ZM8.90901 5.13279C8.75762 5.13279 8.6124 5.19294 8.50536 5.3C8.39826 5.40706 8.33816 5.55226 8.33816 5.70367C8.33816 5.85507 8.39826 6.00027 8.50536 6.10734C8.6124 6.2144 8.75762 6.27454 8.90901 6.27454H12.7148C12.8662 6.27454 13.0115 6.2144 13.1185 6.10734C13.2255 6.00027 13.2857 5.85507 13.2857 5.70367C13.2857 5.55226 13.2255 5.40706 13.1185 5.3C13.0115 5.19294 12.8662 5.13279 12.7148 5.13279H8.90901ZM7.03883 9.903C7.09275 9.84919 7.13535 9.7851 7.16412 9.71457C7.19289 9.64399 7.20724 9.56845 7.20634 9.49227C7.20544 9.4161 7.18929 9.34082 7.15887 9.271C7.12843 9.20112 7.08433 9.13812 7.02915 9.08554C6.97398 9.03302 6.90884 8.99207 6.83759 8.96507C6.76633 8.93813 6.6904 8.92566 6.61427 8.92855C6.53814 8.93138 6.46334 8.94938 6.39429 8.98159C6.32524 9.0138 6.26332 9.0595 6.21221 9.11595L4.45087 10.9656L3.99417 10.4861C3.94305 10.4296 3.88114 10.3839 3.8121 10.3517C3.74304 10.3195 3.66824 10.3014 3.59211 10.2986C3.51598 10.2958 3.44004 10.3083 3.36879 10.3352C3.29753 10.3622 3.2324 10.4031 3.17722 10.4557C3.12205 10.5082 3.07795 10.5712 3.04751 10.6411C3.01708 10.7109 3.00095 10.7862 3.00004 10.8623C2.99914 10.9385 3.01349 11.0141 3.04226 11.0847C3.07103 11.1552 3.11363 11.2193 3.16755 11.2731L4.03756 12.1865C4.09088 12.2425 4.155 12.287 4.22604 12.3174C4.29709 12.3479 4.37358 12.3636 4.45087 12.3636C4.52816 12.3636 4.60465 12.3479 4.6757 12.3174C4.74675 12.287 4.81087 12.2425 4.86418 12.1865L7.03883 9.903ZM8.90901 10.4609C8.75762 10.4609 8.6124 10.5211 8.50536 10.6281C8.39826 10.7352 8.33816 10.8804 8.33816 11.0319C8.33816 11.1832 8.39826 11.3284 8.50536 11.4355C8.6124 11.5425 8.75762 11.6027 8.90901 11.6027H12.7148C12.8662 11.6027 13.0115 11.5425 13.1185 11.4355C13.2255 11.3284 13.2857 11.1832 13.2857 11.0319C13.2857 10.8804 13.2255 10.7352 13.1185 10.6281C13.0115 10.5211 12.8662 10.4609 12.7148 10.4609H8.90901Z" fill="url(#paint1_linear_166_238)" stroke="url(#paint2_linear_166_238)" stroke-width="0.6"/>
</g>
<defs>
<linearGradient id="paint0_linear_166_238" x1="8" y1="15" x2="8" y2="1" gradientUnits="userSpaceOnUse">
<stop stop-color="#02AA93"/>
<stop offset="1" stop-color="#67FF80"/>
</linearGradient>
<linearGradient id="paint1_linear_166_238" x1="8.14286" y1="12.3636" x2="8.14286" y2="3.59998" gradientUnits="userSpaceOnUse">
<stop stop-color="#02AA93"/>
<stop offset="1" stop-color="#67FF80"/>
</linearGradient>
<linearGradient id="paint2_linear_166_238" x1="8.14286" y1="12.3636" x2="8.14286" y2="3.59998" gradientUnits="userSpaceOnUse">
<stop stop-color="#02AA93"/>
<stop offset="1" stop-color="#67FF80"/>
</linearGradient>
<clipPath id="clip0_166_238">
<rect width="16" height="16" fill="white"/>
</clipPath>
</defs>
</svg>
