<svg width="22" height="22" viewBox="0 0 22 22" fill="none" xmlns="http://www.w3.org/2000/svg">
<path d="M19.6667 7.7975V16.4167C19.6653 17.6318 19.182 18.7969 18.3228 19.6561C17.4635 20.5154 16.2985 20.9987 15.0833 21H7.58333C6.36817 20.9987 5.20313 20.5154 4.3439 19.6561C3.48463 18.7969 3.00132 17.6318 3 16.4167V5.58333C3.00132 4.36817 3.48463 3.20316 4.3439 2.3439C5.20313 1.48465 6.36817 1.00134 7.58333 1.00002H12.8692C13.4713 0.99839 14.0678 1.11621 14.624 1.34665C15.1803 1.57709 15.6854 1.91558 16.11 2.34252L18.3242 4.55667C18.7511 4.98127 19.0896 5.48633 19.32 6.04263C19.5505 6.5989 19.6683 7.1954 19.6667 7.7975ZM17.1667 16.4167V8.5H13.8333C13.3913 8.5 12.9674 8.3244 12.6548 8.01187C12.3423 7.6993 12.1667 7.27537 12.1667 6.83333V3.50001H7.58333C7.0308 3.50001 6.5009 3.7195 6.1102 4.1102C5.7195 4.5009 5.5 5.0308 5.5 5.58333V16.4167C5.5 16.9692 5.7195 17.4991 6.1102 17.8898C6.5009 18.2805 7.0308 18.5 7.58333 18.5H15.0833C15.6359 18.5 16.1658 18.2805 16.5565 17.8898C16.9472 17.4991 17.1667 16.9692 17.1667 16.4167Z" fill="url(#paint0_linear_451_2542)"/>
<path d="M13.3372 13.264L14.3012 12.3006C14.4173 12.1845 14.5094 12.0466 14.5723 11.8949C14.6351 11.7432 14.6675 11.5806 14.6675 11.4164C14.6675 11.2522 14.6351 11.0896 14.5723 10.9379C14.5094 10.7862 14.4173 10.6484 14.3012 10.5322C14.1851 10.4161 14.0473 10.324 13.8956 10.2612C13.7439 10.1984 13.5813 10.166 13.4171 10.166C13.2529 10.166 13.0903 10.1984 12.9386 10.2612C12.7869 10.324 12.649 10.4161 12.5329 10.5322L11.5695 11.4963C11.4393 11.6266 11.2281 11.6266 11.098 11.4963L10.1346 10.5322C9.90007 10.2977 9.58203 10.166 9.2504 10.166C8.91877 10.166 8.60073 10.2977 8.36623 10.5322C8.13173 10.7667 8 11.0848 8 11.4164C8 11.748 8.13173 12.0661 8.36623 12.3006L9.3303 13.264C9.46057 13.3941 9.46057 13.6053 9.3303 13.7355L8.36623 14.6989C8.13173 14.9334 8 15.2514 8 15.5831C8 15.9147 8.13173 16.2327 8.36623 16.4672C8.60073 16.7017 8.91877 16.8335 9.2504 16.8335C9.58203 16.8335 9.90007 16.7017 10.1346 16.4672L11.098 15.5032C11.2281 15.3729 11.4393 15.3729 11.5695 15.5032L12.5329 16.4672C12.7674 16.7017 13.0854 16.8335 13.4171 16.8335C13.7487 16.8335 14.0667 16.7017 14.3012 16.4672C14.5357 16.2327 14.6675 15.9147 14.6675 15.5831C14.6675 15.2514 14.5357 14.9334 14.3012 14.6989L13.3372 13.7355C13.2069 13.6053 13.2069 13.3941 13.3372 13.264Z" fill="url(#paint1_linear_451_2542)"/>
<defs>
<linearGradient id="paint0_linear_451_2542" x1="2.99756" y1="10.7037" x2="19.663" y2="10.7037" gradientUnits="userSpaceOnUse">
<stop stop-color="#FD3A84"/>
<stop offset="1" stop-color="#FFA68D"/>
</linearGradient>
<linearGradient id="paint1_linear_451_2542" x1="7.99903" y1="13.4009" x2="14.666" y2="13.4009" gradientUnits="userSpaceOnUse">
<stop stop-color="#FD3A84"/>
<stop offset="1" stop-color="#FFA68D"/>
</linearGradient>
</defs>
</svg>
