<svg width="64" height="64" viewBox="0 0 64 64" fill="none" xmlns="http://www.w3.org/2000/svg">
<g opacity="0.4">
<path d="M13.5 12C12.6716 12 12 12.6716 12 13.5V15.8333C12 16.6617 12.6716 17.3333 13.5 17.3333H15.8333C16.6617 17.3333 17.3333 16.6617 17.3333 15.8333V13.5C17.3333 12.6716 16.6617 12 15.8333 12H13.5Z" fill="url(#paint0_linear_37_135)"/>
<path fill-rule="evenodd" clip-rule="evenodd" d="M7 5.5C6.17158 5.5 5.5 6.17158 5.5 7V22.3333C5.5 23.1617 6.17158 23.8333 7 23.8333H22.3333C23.1617 23.8333 23.8333 23.1617 23.8333 22.3333V7C23.8333 6.17158 23.1617 5.5 22.3333 5.5H7ZM10.8333 11.3333C10.8333 11.0571 11.0571 10.8333 11.3333 10.8333H18C18.2762 10.8333 18.5 11.0571 18.5 11.3333V18C18.5 18.2762 18.2762 18.5 18 18.5H11.3333C11.0571 18.5 10.8333 18.2762 10.8333 18V11.3333Z" fill="url(#paint1_linear_37_135)"/>
<path fill-rule="evenodd" clip-rule="evenodd" d="M28.6667 5.5C27.8383 5.5 27.1667 6.17158 27.1667 7V13.6667C27.1667 14.4951 27.8383 15.1667 28.6667 15.1667H31C31.2312 15.1667 31.4501 15.1144 31.6457 15.021C31.5523 15.2166 31.5 15.4355 31.5 15.6667V22.3333C31.5 22.5645 31.5523 22.7834 31.6457 22.979C31.4501 22.8856 31.2312 22.8333 31 22.8333H28.6667C27.8383 22.8333 27.1667 23.5049 27.1667 24.3333V26.6667C27.1667 26.8979 27.219 27.1168 27.3124 27.3124C27.1168 27.219 26.8979 27.1667 26.6667 27.1667H24.3333C23.5049 27.1667 22.8333 27.8383 22.8333 28.6667V31C22.8333 31.2762 22.6095 31.5 22.3333 31.5H20C19.7688 31.5 19.5499 31.5523 19.3543 31.6457C19.4477 31.4501 19.5 31.2312 19.5 31V28.6667C19.5 27.8383 18.8284 27.1667 18 27.1667H7C6.17158 27.1667 5.5 27.8383 5.5 28.6667V35.3333C5.5 36.1618 6.17158 36.8333 7 36.8333H13.6667C14.4951 36.8333 15.1667 36.1617 15.1667 35.3333V33C15.1667 32.7238 15.3905 32.5 15.6667 32.5H18C18.2312 32.5 18.4501 32.4477 18.6457 32.3543C18.5523 32.5499 18.5 32.7688 18.5 33V35.3333C18.5 36.1617 19.1716 36.8333 20 36.8333H26.6667C26.8979 36.8333 27.1168 36.781 27.3124 36.6876C27.219 36.8832 27.1667 37.1021 27.1667 37.3333V39.6667C27.1667 40.4951 27.8383 41.1667 28.6667 41.1667H31C31.2762 41.1667 31.5 41.3905 31.5 41.6667V44C31.5 44.8284 32.1716 45.5 33 45.5H35.3333C35.5645 45.5 35.7834 45.4477 35.979 45.3543C35.8856 45.5499 35.8333 45.7688 35.8333 46V48.3333C35.8333 48.5645 35.8856 48.7835 35.979 48.979C35.7835 48.8856 35.5645 48.8333 35.3333 48.8333H28.6667C27.8382 48.8333 27.1667 49.505 27.1667 50.3333V52.6667C27.1667 53.4951 27.8383 54.1667 28.6667 54.1667H31C31.2762 54.1667 31.5 54.3905 31.5 54.6667V57C31.5 57.8284 32.1716 58.5 33 58.5H35.3333C36.1617 58.5 36.8333 57.8284 36.8333 57V50.3333C36.8333 50.1021 36.781 49.8832 36.6876 49.6876C36.8831 49.781 37.1021 49.8333 37.3333 49.8333H39.6667C39.8979 49.8333 40.1169 49.781 40.3124 49.6876C40.219 49.8832 40.1667 50.1021 40.1667 50.3333V52.6667C40.1667 53.4951 40.8383 54.1667 41.6667 54.1667H44C44.2312 54.1667 44.4501 54.1144 44.6457 54.021C44.5523 54.2166 44.5 54.4355 44.5 54.6667V57C44.5 57.8284 45.1716 58.5 46 58.5H48.3333C49.1617 58.5 49.8333 57.8284 49.8333 57V54.6667C49.8333 54.4355 49.781 54.2165 49.6876 54.021C49.8832 54.1144 50.1021 54.1667 50.3333 54.1667H57C57.8284 54.1667 58.5 53.4951 58.5 52.6667V50.3333C58.5 49.505 57.8285 48.8333 57 48.8333H50.3333C49.505 48.8333 48.8333 49.505 48.8333 50.3333V52.6667C48.8333 52.8979 48.8856 53.1169 48.979 53.3124C48.7835 53.219 48.5645 53.1667 48.3333 53.1667H46C45.7688 53.1667 45.5499 53.219 45.3543 53.3124C45.4477 53.1168 45.5 52.8979 45.5 52.6667V50.3333C45.5 49.505 44.8285 48.8333 44 48.8333H41.6667C41.4355 48.8333 41.2166 48.8856 41.021 48.979C41.1144 48.7835 41.1667 48.5645 41.1667 48.3333V46C41.1667 45.7688 41.1144 45.5499 41.021 45.3543C41.2166 45.4477 41.4355 45.5 41.6667 45.5H44C44.8284 45.5 45.5 44.8284 45.5 44V41.6667C45.5 41.4355 45.4477 41.2166 45.3543 41.021C45.5499 41.1144 45.7688 41.1667 46 41.1667H48.3333C48.6095 41.1667 48.8333 41.3905 48.8333 41.6667V44C48.8333 44.8285 49.505 45.5 50.3333 45.5H52.6667C53.4951 45.5 54.1667 44.8284 54.1667 44V37.3333C54.1667 37.1021 54.1144 36.8832 54.021 36.6876C54.2166 36.781 54.4355 36.8333 54.6667 36.8333H57C57.8284 36.8333 58.5 36.1617 58.5 35.3333V28.6667C58.5 27.8383 57.8284 27.1667 57 27.1667H50.3333C49.505 27.1667 48.8333 27.8382 48.8333 28.6667V31C48.8333 31.8285 49.505 32.5 50.3333 32.5H52.6667C52.9429 32.5 53.1667 32.7238 53.1667 33V35.3333C53.1667 35.5645 53.219 35.7834 53.3124 35.979C53.1168 35.8856 52.8979 35.8333 52.6667 35.8333H46C45.7688 35.8333 45.5499 35.8856 45.3543 35.979C45.4477 35.7834 45.5 35.5645 45.5 35.3333V28.6667C45.5 27.8383 44.8284 27.1667 44 27.1667H41.6667C40.8383 27.1667 40.1667 27.8383 40.1667 28.6667V31C40.1667 31.2762 39.9429 31.5 39.6667 31.5H37.3333C37.1021 31.5 36.8832 31.5523 36.6876 31.6457C36.781 31.4501 36.8333 31.2312 36.8333 31V28.6667C36.8333 27.8383 36.1617 27.1667 35.3333 27.1667H33C32.7688 27.1667 32.5499 27.219 32.3543 27.3124C32.4477 27.1168 32.5 26.8979 32.5 26.6667V24.3333C32.5 24.1021 32.4477 23.8832 32.3543 23.6876C32.5499 23.781 32.7688 23.8333 33 23.8333H35.3333C36.1617 23.8333 36.8333 23.1617 36.8333 22.3333V15.6667C36.8333 14.8383 36.1617 14.1667 35.3333 14.1667H33C32.7688 14.1667 32.5499 14.219 32.3543 14.3124C32.4477 14.1168 32.5 13.8979 32.5 13.6667V11.3333C32.5 11.0571 32.7238 10.8333 33 10.8333H35.3333C36.1617 10.8333 36.8333 10.1618 36.8333 9.33333V7C36.8333 6.17158 36.1618 5.5 35.3333 5.5H28.6667ZM28.1667 28.6667C28.1667 28.4355 28.1144 28.2166 28.021 28.021C28.2166 28.1144 28.4355 28.1667 28.6667 28.1667H31C31.2312 28.1667 31.4501 28.1144 31.6457 28.021C31.5523 28.2166 31.5 28.4355 31.5 28.6667V31C31.5 31.8284 32.1716 32.5 33 32.5H35.3333C35.5645 32.5 35.7834 32.4477 35.979 32.3543C35.8856 32.5499 35.8333 32.7688 35.8333 33V35.3333C35.8333 35.5645 35.8856 35.7834 35.979 35.979C35.7834 35.8856 35.5645 35.8333 35.3333 35.8333H28.6667C28.4355 35.8333 28.2166 35.8856 28.021 35.979C28.1144 35.7834 28.1667 35.5645 28.1667 35.3333V28.6667ZM36.8333 37.3333C36.8333 37.1021 36.781 36.8832 36.6876 36.6876C36.8832 36.781 37.1021 36.8333 37.3333 36.8333H44C44.2312 36.8333 44.4501 36.781 44.6457 36.6876C44.5523 36.8832 44.5 37.1021 44.5 37.3333V39.6667C44.5 39.8979 44.5523 40.1168 44.6457 40.3124C44.4501 40.219 44.2312 40.1667 44 40.1667H41.6667C40.8383 40.1667 40.1667 40.8383 40.1667 41.6667V44C40.1667 44.2312 40.219 44.4501 40.3124 44.6457C40.1168 44.5523 39.8979 44.5 39.6667 44.5H37.3333C37.1021 44.5 36.8832 44.5523 36.6876 44.6457C36.781 44.4501 36.8333 44.2312 36.8333 44V37.3333Z" fill="url(#paint2_linear_37_135)"/>
</g>
<path fill-rule="evenodd" clip-rule="evenodd" d="M40.6667 7C40.6667 6.44772 41.1144 6 41.6667 6H57C57.5523 6 58 6.44772 58 7V22.3333C58 22.8856 57.5523 23.3333 57 23.3333H41.6667C41.1144 23.3333 40.6667 22.8856 40.6667 22.3333V7ZM6 41.6667C6 41.1144 6.44772 40.6667 7 40.6667H22.3333C22.8856 40.6667 23.3333 41.1144 23.3333 41.6667V57C23.3333 57.5523 22.8856 58 22.3333 58H7C6.44772 58 6 57.5523 6 57V41.6667ZM46 10.3333C45.4477 10.3333 45 10.781 45 11.3333V18C45 18.5523 45.4477 19 46 19H52.6667C53.219 19 53.6667 18.5523 53.6667 18V11.3333C53.6667 10.781 53.219 10.3333 52.6667 10.3333H46ZM10.3333 46C10.3333 45.4477 10.781 45 11.3333 45H18C18.5523 45 19 45.4477 19 46V52.6667C19 53.219 18.5523 53.6667 18 53.6667H11.3333C10.781 53.6667 10.3333 53.219 10.3333 52.6667V46Z" fill="url(#paint3_linear_37_135)"/>
<path d="M41.6667 5.5C40.8383 5.5 40.1667 6.17158 40.1667 7H41.1667C41.1667 6.72386 41.3905 6.5 41.6667 6.5V5.5ZM57 5.5H41.6667V6.5H57V5.5ZM58.5 7C58.5 6.17158 57.8284 5.5 57 5.5V6.5C57.2762 6.5 57.5 6.72386 57.5 7H58.5ZM58.5 22.3333V7H57.5V22.3333H58.5ZM57 23.8333C57.8284 23.8333 58.5 23.1617 58.5 22.3333H57.5C57.5 22.6095 57.2762 22.8333 57 22.8333V23.8333ZM41.6667 23.8333H57V22.8333H41.6667V23.8333ZM40.1667 22.3333C40.1667 23.1617 40.8383 23.8333 41.6667 23.8333V22.8333C41.3905 22.8333 41.1667 22.6095 41.1667 22.3333H40.1667ZM40.1667 7V22.3333H41.1667V7H40.1667ZM7 40.1667C6.17158 40.1667 5.5 40.8383 5.5 41.6667H6.5C6.5 41.3905 6.72386 41.1667 7 41.1667V40.1667ZM22.3333 40.1667H7V41.1667H22.3333V40.1667ZM23.8333 41.6667C23.8333 40.8383 23.1617 40.1667 22.3333 40.1667V41.1667C22.6095 41.1667 22.8333 41.3905 22.8333 41.6667H23.8333ZM23.8333 57V41.6667H22.8333V57H23.8333ZM22.3333 58.5C23.1617 58.5 23.8333 57.8284 23.8333 57H22.8333C22.8333 57.2762 22.6095 57.5 22.3333 57.5V58.5ZM7 58.5H22.3333V57.5H7V58.5ZM5.5 57C5.5 57.8284 6.17158 58.5 7 58.5V57.5C6.72386 57.5 6.5 57.2762 6.5 57H5.5ZM5.5 41.6667V57H6.5V41.6667H5.5ZM45.5 11.3333C45.5 11.0572 45.7238 10.8333 46 10.8333V9.83331C45.1716 9.83331 44.5 10.5049 44.5 11.3333H45.5ZM45.5 18V11.3333H44.5V18H45.5ZM46 18.5C45.7238 18.5 45.5 18.2762 45.5 18H44.5C44.5 18.8285 45.1716 19.5 46 19.5V18.5ZM52.6667 18.5H46V19.5H52.6667V18.5ZM53.1667 18C53.1667 18.2762 52.9429 18.5 52.6667 18.5V19.5C53.4951 19.5 54.1667 18.8285 54.1667 18H53.1667ZM53.1667 11.3333V18H54.1667V11.3333H53.1667ZM52.6667 10.8333C52.9429 10.8333 53.1667 11.0572 53.1667 11.3333H54.1667C54.1667 10.5049 53.4951 9.83331 52.6667 9.83331V10.8333ZM46 10.8333H52.6667V9.83331H46V10.8333ZM11.3333 44.5C10.5049 44.5 9.8333 45.1716 9.8333 46H10.8333C10.8333 45.7238 11.0571 45.5 11.3333 45.5V44.5ZM18 44.5H11.3333V45.5H18V44.5ZM19.5 46C19.5 45.1716 18.8284 44.5 18 44.5V45.5C18.2762 45.5 18.5 45.7238 18.5 46H19.5ZM19.5 52.6667V46H18.5V52.6667H19.5ZM18 54.1667C18.8284 54.1667 19.5 53.4951 19.5 52.6667H18.5C18.5 52.9429 18.2762 53.1667 18 53.1667V54.1667ZM11.3333 54.1667H18V53.1667H11.3333V54.1667ZM9.8333 52.6667C9.8333 53.4951 10.5049 54.1667 11.3333 54.1667V53.1667C11.0571 53.1667 10.8333 52.9429 10.8333 52.6667H9.8333ZM9.8333 46V52.6667H10.8333V46H9.8333ZM48.1667 12C47.3383 12 46.6667 12.6716 46.6667 13.5H47.6667C47.6667 13.2239 47.8905 13 48.1667 13V12ZM46.6667 13.5V15.8333H47.6667V13.5H46.6667ZM46.6667 15.8333C46.6667 16.6618 47.3383 17.3333 48.1667 17.3333V16.3333C47.8905 16.3333 47.6667 16.1095 47.6667 15.8333H46.6667ZM48.1667 17.3333H50.5V16.3333H48.1667V17.3333ZM50.5 17.3333C51.3284 17.3333 52 16.6618 52 15.8333H51C51 16.1095 50.7762 16.3333 50.5 16.3333V17.3333ZM52 15.8333V13.5H51V15.8333H52ZM52 13.5C52 12.6716 51.3284 12 50.5 12V13C50.7762 13 51 13.2239 51 13.5H52ZM50.5 12H48.1667V13H50.5V12ZM13.5 46.6667C12.6716 46.6667 12 47.3383 12 48.1667H13C13 47.8905 13.2238 47.6667 13.5 47.6667V46.6667ZM12 48.1667V50.5H13V48.1667H12ZM12 50.5C12 51.3284 12.6716 52 13.5 52V51C13.2238 51 13 50.7762 13 50.5H12ZM13.5 52H15.8333V51H13.5V52ZM15.8333 52C16.6617 52 17.3333 51.3284 17.3333 50.5H16.3333C16.3333 50.7762 16.1095 51 15.8333 51V52ZM17.3333 50.5V48.1667H16.3333V50.5H17.3333ZM17.3333 48.1667C17.3333 47.3383 16.6617 46.6667 15.8333 46.6667V47.6667C16.1095 47.6667 16.3333 47.8905 16.3333 48.1667H17.3333ZM15.8333 46.6667H13.5V47.6667H15.8333V46.6667Z" fill="url(#paint4_linear_37_135)"/>
<defs>
<linearGradient id="paint0_linear_37_135" x1="5.5" y1="23.2371" x2="52.5424" y2="50.5876" gradientUnits="userSpaceOnUse">
<stop stop-color="#FD5900"/>
<stop offset="1" stop-color="#FFDE00"/>
</linearGradient>
<linearGradient id="paint1_linear_37_135" x1="5.5" y1="23.2371" x2="52.5424" y2="50.5876" gradientUnits="userSpaceOnUse">
<stop stop-color="#FD5900"/>
<stop offset="1" stop-color="#FFDE00"/>
</linearGradient>
<linearGradient id="paint2_linear_37_135" x1="5.5" y1="23.2371" x2="52.5424" y2="50.5876" gradientUnits="userSpaceOnUse">
<stop stop-color="#FD5900"/>
<stop offset="1" stop-color="#FFDE00"/>
</linearGradient>
<linearGradient id="paint3_linear_37_135" x1="15.425" y1="51.8611" x2="62.3166" y2="10.9473" gradientUnits="userSpaceOnUse">
<stop stop-color="#FE0844"/>
<stop offset="1" stop-color="#FEB302"/>
</linearGradient>
<linearGradient id="paint4_linear_37_135" x1="15.425" y1="51.8611" x2="62.3166" y2="10.9473" gradientUnits="userSpaceOnUse">
<stop stop-color="#FE0844"/>
<stop offset="1" stop-color="#FEB302"/>
</linearGradient>
</defs>
</svg>
