<svg width="22" height="22" viewBox="0 0 22 22" fill="none" xmlns="http://www.w3.org/2000/svg">
<path d="M6.70896 20.3933C6.07275 20.3904 5.45379 20.1861 4.94089 19.8097C4.41671 19.441 4.02557 18.9129 3.82568 18.304C3.62575 17.6951 3.62775 17.0379 3.83136 16.4303L4.80668 13.4134L2.23914 11.5361C1.72434 11.16 1.34169 10.6306 1.14595 10.0239C0.9502 9.41711 0.951386 8.76396 1.14934 8.15789C1.34729 7.55186 1.73186 7.02393 2.24803 6.64968C2.76419 6.27543 3.3855 6.074 4.02307 6.07429H7.16579L8.12029 3.09829C8.31618 2.48885 8.70043 1.95732 9.21771 1.58025C9.735 1.20317 10.3586 1 10.9988 1C11.6389 1 12.2625 1.20317 12.7798 1.58025C13.2971 1.95732 13.6813 2.48885 13.8772 3.09829L14.835 6.07429H17.9778C18.6153 6.07418 19.2365 6.27571 19.7525 6.65004C20.2685 7.02436 20.653 7.55229 20.8508 8.15829C21.0486 8.76432 21.0498 9.41739 20.854 10.0241C20.6582 10.6308 20.2756 11.16 19.7609 11.5361L17.1942 13.4134L18.1695 16.4303C18.3661 17.0388 18.3647 17.694 18.1654 18.3017C17.9661 18.9094 17.5791 19.4382 17.0603 19.812C16.5414 20.1859 15.9173 20.3856 15.2778 20.3823C14.6383 20.379 14.0163 20.173 13.5013 19.7939L11.0004 17.9549L8.49957 19.7947C7.98211 20.1806 7.3545 20.3904 6.70896 20.3933ZM4.02307 8.57511C3.91304 8.57511 3.80582 8.60986 3.71675 8.67446C3.62764 8.73904 3.56125 8.83011 3.52704 8.93471C3.49282 9.03929 3.49254 9.152 3.52625 9.25675C3.55993 9.3615 3.62586 9.45289 3.71464 9.51793L7.01243 11.9279C7.22475 12.0832 7.38275 12.3015 7.46386 12.5517C7.54496 12.8019 7.54511 13.0714 7.46421 13.3217L6.21382 17.198C6.17911 17.3031 6.17875 17.4166 6.21279 17.522C6.24682 17.6273 6.3135 17.7191 6.40318 17.7841C6.49282 17.8491 6.60082 17.8838 6.71154 17.8834C6.82225 17.8829 6.92996 17.8473 7.01907 17.7815L10.261 15.3966C10.4758 15.2385 10.7354 15.1533 11.0021 15.1533C11.2687 15.1533 11.5284 15.2385 11.7432 15.3966L14.9851 17.7807C15.0741 17.847 15.1819 17.8832 15.2929 17.8839C15.4039 17.8847 15.5123 17.85 15.6021 17.7848C15.692 17.7197 15.7588 17.6276 15.7926 17.5219C15.8265 17.4161 15.8257 17.3024 15.7904 17.1972L14.5399 13.3209C14.4591 13.0705 14.4592 12.8011 14.5403 12.5509C14.6214 12.3006 14.7794 12.0823 14.9917 11.9271L18.2887 9.51711C18.3774 9.45211 18.4433 9.36079 18.477 9.25611C18.5108 9.15143 18.5105 9.03879 18.4764 8.93425C18.4423 8.82971 18.3761 8.73864 18.2871 8.67396C18.1981 8.60932 18.091 8.57443 17.9811 8.57429H13.9181C13.6532 8.57421 13.3953 8.49007 13.1813 8.33396C12.9674 8.17786 12.8085 7.95786 12.7277 7.70564L11.5006 3.86186C11.4668 3.75664 11.4005 3.66489 11.3112 3.59979C11.2219 3.53471 11.1143 3.49964 11.0038 3.49964C10.8933 3.49964 10.7856 3.53471 10.6963 3.59979C10.607 3.66489 10.5407 3.75664 10.5069 3.86186L9.27068 7.7065C9.18993 7.95829 9.03146 8.17796 8.81804 8.33404C8.60461 8.49011 8.34718 8.5745 8.08279 8.57511H4.02307Z" fill="url(#paint0_linear_451_2538)"/>
<defs>
<linearGradient id="paint0_linear_451_2538" x1="11" y1="20.3933" x2="11" y2="1" gradientUnits="userSpaceOnUse">
<stop stop-color="#FFA800"/>
<stop offset="1" stop-color="#FFF737"/>
</linearGradient>
</defs>
</svg>
