<svg width="22" height="22" viewBox="0 0 22 22" fill="none" xmlns="http://www.w3.org/2000/svg">
<path fill-rule="evenodd" clip-rule="evenodd" d="M6.70896 20.3933C6.07275 20.3904 5.45379 20.1861 4.94089 19.8097C4.41671 19.441 4.02557 18.9129 3.82568 18.304C3.62575 17.6951 3.62775 17.0379 3.83136 16.4303L4.64779 13.9049C4.74261 13.6115 4.63857 13.2905 4.38971 13.1085L2.23914 11.5361C1.72434 11.16 1.34169 10.6306 1.14595 10.0239C0.9502 9.41711 0.951386 8.76396 1.14934 8.15789C1.34729 7.55186 1.73186 7.02393 2.24803 6.64968C2.76419 6.27543 3.3855 6.074 4.02307 6.07429H6.64475C6.95521 6.07429 7.23011 5.87375 7.32493 5.57814L8.12029 3.09829C8.31618 2.48885 8.70043 1.95732 9.21771 1.58025C9.735 1.20317 10.3586 1 10.9988 1C11.6389 1 12.2625 1.20317 12.7798 1.58025C13.2971 1.95732 13.6813 2.48885 13.8772 3.09829L14.6756 5.57882C14.7706 5.87407 15.0453 6.07429 15.3555 6.07429H17.9778C18.6153 6.07418 19.2365 6.27571 19.7525 6.65004C20.2685 7.02436 20.653 7.55229 20.8508 8.15829C21.0486 8.76432 21.0498 9.41739 20.854 10.0241C20.6582 10.6308 20.2756 11.16 19.7609 11.5361L17.611 13.1085C17.3622 13.2905 17.2582 13.6115 17.353 13.9048L18.1695 16.4303C18.3661 17.0388 18.3647 17.694 18.1654 18.3017C17.9661 18.9094 17.5791 19.4382 17.0603 19.812C16.5414 20.1859 15.9173 20.3856 15.2778 20.3823C14.6383 20.379 14.0163 20.173 13.5013 19.7939L11.4237 18.2661C11.1719 18.081 10.829 18.081 10.5773 18.2663L8.49957 19.7947C7.98211 20.1806 7.3545 20.3904 6.70896 20.3933ZM13.7082 18.0666C14.1626 18.0646 14.6048 17.9187 14.9711 17.6498C15.3455 17.3864 15.6249 17.0092 15.7677 16.5743C15.9105 16.1394 15.9091 15.6699 15.7637 15.2359L15.2259 13.5725C15.1311 13.2791 15.2351 12.9581 15.484 12.7761L16.901 11.7401C17.2687 11.4714 17.542 11.0933 17.6818 10.6599C17.8216 10.2265 17.8208 9.75996 17.6794 9.32707C17.538 8.89418 17.2633 8.51707 16.8946 8.24975C16.5259 7.98243 16.0821 7.83857 15.6267 7.83875H13.903C13.5925 7.83875 13.3176 7.63825 13.2228 7.34261L12.7001 5.71304C12.5602 5.27775 12.2857 4.89807 11.9162 4.62875C11.7408 4.50086 11.5482 4.40096 11.3454 4.33132C10.9723 4.20321 10.6441 4.53404 10.644 4.9285L10.6429 15.9636C10.6429 16.1908 10.751 16.4044 10.934 16.5391L12.4292 17.6391C12.7988 17.9148 13.2471 18.0646 13.7082 18.0666Z" fill="url(#paint0_linear_451_2540)"/>
<defs>
<linearGradient id="paint0_linear_451_2540" x1="11" y1="20.3933" x2="11" y2="1" gradientUnits="userSpaceOnUse">
<stop stop-color="#FFA800"/>
<stop offset="1" stop-color="#FFF737"/>
</linearGradient>
</defs>
</svg>
