<svg width="22" height="22" viewBox="0 0 22 22" fill="none" xmlns="http://www.w3.org/2000/svg">
<path d="M4.94089 19.8097C5.45379 20.1861 6.07275 20.3904 6.70896 20.3933C7.3545 20.3904 7.98211 20.1806 8.49957 19.7947L10.5773 18.2663C10.829 18.081 11.1719 18.081 11.4237 18.2661L13.5013 19.7939C14.0163 20.173 14.6383 20.379 15.2778 20.3823C15.9173 20.3856 16.5414 20.1859 17.0603 19.812C17.5791 19.4382 17.9661 18.9094 18.1654 18.3017C18.3647 17.694 18.3661 17.0388 18.1695 16.4303L17.353 13.9048C17.2582 13.6115 17.3622 13.2905 17.611 13.1085L19.7609 11.5361C20.2756 11.16 20.6582 10.6308 20.854 10.0241C21.0498 9.41739 21.0486 8.76432 20.8508 8.15829C20.653 7.55229 20.2685 7.02436 19.7525 6.65004C19.2365 6.27571 18.6153 6.07418 17.9778 6.07429H15.3555C15.0453 6.07429 14.7706 5.87407 14.6756 5.57882L13.8772 3.09829C13.6813 2.48885 13.2971 1.95732 12.7798 1.58025C12.2625 1.20317 11.6389 1 10.9988 1C10.3586 1 9.735 1.20317 9.21771 1.58025C8.70043 1.95732 8.31618 2.48885 8.12029 3.09829L7.32493 5.57814C7.23011 5.87375 6.95521 6.07429 6.64475 6.07429H4.02307C3.3855 6.074 2.76419 6.27543 2.24803 6.64968C1.73186 7.02393 1.34729 7.55186 1.14934 8.15789C0.951386 8.76396 0.9502 9.41711 1.14595 10.0239C1.34169 10.6306 1.72434 11.16 2.23914 11.5361L4.38971 13.1085C4.63857 13.2905 4.74261 13.6115 4.64779 13.9049L3.83136 16.4303C3.62775 17.0379 3.62575 17.6951 3.82568 18.304C4.02557 18.9129 4.41671 19.441 4.94089 19.8097Z" fill="url(#paint0_linear_451_2536)"/>
<defs>
<linearGradient id="paint0_linear_451_2536" x1="11" y1="20.3933" x2="11" y2="1" gradientUnits="userSpaceOnUse">
<stop stop-color="#FFA800"/>
<stop offset="1" stop-color="#FFF737"/>
</linearGradient>
</defs>
</svg>
