<svg width="22" height="22" viewBox="0 0 22 22" fill="none" xmlns="http://www.w3.org/2000/svg">
<path d="M19.892 1.76412C19.6772 1.54933 19.3289 1.54933 19.1141 1.76412L15.6404 5.23797C15.4256 5.45276 15.0773 5.45276 14.8625 5.23797L13.9327 4.30823C13.7179 4.09344 13.3697 4.09344 13.1549 4.30823L4.30774 13.1554C4.09295 13.3702 4.09295 13.7184 4.30774 13.9332L5.23749 14.863C5.45227 15.0778 5.45227 15.4261 5.23749 15.6408L1.76363 19.1146C1.54884 19.3294 1.54884 19.6777 1.76363 19.8925L2.10748 20.2364C2.32227 20.4511 2.67051 20.4511 2.8853 20.2364L6.35914 16.7624C6.57393 16.5477 6.92218 16.5477 7.13697 16.7624L8.06671 17.6922C8.2815 17.907 8.62973 17.907 8.84452 17.6922L17.6917 8.84501C17.9065 8.63022 17.9065 8.28199 17.6917 8.0672L16.7619 7.13745C16.5472 6.92267 16.5472 6.57442 16.7619 6.35963L20.2359 2.88579C20.4507 2.671 20.4507 2.32275 20.2359 2.10797L19.892 1.76412Z" fill="url(#paint0_linear_451_2530)" stroke="url(#paint1_linear_451_2530)" stroke-width="0.6"/>
<defs>
<linearGradient id="paint0_linear_451_2530" x1="10.9997" y1="20.6252" x2="10.9997" y2="1.37521" gradientUnits="userSpaceOnUse">
<stop stop-color="#02AA93"/>
<stop offset="1" stop-color="#67FF80"/>
</linearGradient>
<linearGradient id="paint1_linear_451_2530" x1="10.9997" y1="20.6252" x2="10.9997" y2="1.37521" gradientUnits="userSpaceOnUse">
<stop stop-color="#02AA93"/>
<stop offset="1" stop-color="#67FF80"/>
</linearGradient>
</defs>
</svg>
