<svg width="22" height="22" viewBox="0 0 22 22" fill="none" xmlns="http://www.w3.org/2000/svg">
<g clip-path="url(#clip0_451_2520)">
<path fill-rule="evenodd" clip-rule="evenodd" d="M15.6766 17.5299L14.2505 16.1038C13.8264 15.6797 13.8755 14.943 14.3602 14.4583C14.8448 13.9736 15.5816 13.9245 16.0057 14.3486L17.4318 15.7747L18.8577 14.3486C19.2819 13.9245 20.0187 13.9736 20.5033 14.4583C20.988 14.943 21.0371 15.6797 20.6131 16.1038L19.1869 17.5299L20.6131 18.9561C21.0371 19.3801 20.988 20.1168 20.5033 20.6015C20.0187 21.0863 19.2819 21.1354 18.8577 20.7112L17.4318 19.2851L16.0057 20.7112C15.5816 21.1354 14.8448 21.0863 14.3602 20.6015C13.8755 20.1168 13.8264 19.3801 14.2505 18.9561L15.6766 17.5299Z" fill="url(#paint0_linear_451_2520)" stroke="url(#paint1_linear_451_2520)" stroke-width="0.6"/>
<path d="M10.2775 15.5347L8.43049 17.2807C6.73012 18.9567 3.97567 18.9567 2.27527 17.2807C0.574875 15.6047 0.574947 12.8898 2.27527 11.2137L5.66115 7.87641C6.22286 7.32277 6.89991 6.95879 7.61541 6.76916C8.37717 6.56443 9.18505 6.57199 9.94669 6.79196C10.6315 6.98152 11.2777 7.34555 11.8163 7.87641C12.1943 8.24901 12.489 8.67386 12.6975 9.12745C12.8529 9.46516 12.6939 9.86673 12.3327 9.95466C11.62 10.1281 10.8346 9.94218 10.2775 9.39314C9.56202 8.6878 8.46943 8.5817 7.63855 9.06703C7.47699 9.15041 7.33083 9.26415 7.19996 9.39314L3.81408 12.7305C2.96776 13.5647 2.96776 14.9298 3.81408 15.7641C4.66041 16.5982 6.04535 16.5982 6.89168 15.7641C7.83216 14.8291 8.38705 14.2801 8.70563 13.9663C9.04215 13.6347 9.32855 13.8961 9.64099 14.2504C9.7843 14.4129 9.90134 14.5468 10.0285 14.6781C10.2909 14.949 10.5462 15.27 10.2775 15.5347Z" fill="url(#paint2_linear_451_2520)" stroke="url(#paint3_linear_451_2520)" stroke-width="0.6"/>
<path d="M10.6092 4.00294L12.4563 2.257C14.1567 0.581035 16.9112 0.580963 18.6114 2.257C20.312 3.933 20.312 6.64792 18.6114 8.32396L15.2257 11.6613C14.6639 12.2149 13.9869 12.5789 13.2714 12.7685C12.5096 12.9733 11.7018 12.9657 10.9401 12.7458C10.2554 12.5562 9.60909 12.1922 9.07048 11.6613C8.69246 11.2887 8.39785 10.8638 8.18926 10.4103C8.03396 10.0725 8.19289 9.67098 8.55408 9.58304C9.26675 9.40955 10.0523 9.59555 10.6092 10.1446C11.3248 10.8499 12.4174 10.956 13.2483 10.4707C13.4098 10.3873 13.556 10.2735 13.6868 10.1446L17.0727 6.80716C17.919 5.97297 17.919 4.6079 17.0727 3.77371C16.2264 2.93953 14.8414 2.93953 13.9951 3.77371C13.0547 4.70855 12.4998 5.25756 12.1812 5.57144C11.8447 5.90296 11.5583 5.64159 11.2458 5.28727C11.1025 5.12475 10.9855 4.9909 10.8583 4.85964C10.5959 4.58871 10.3406 4.26769 10.6092 4.00294Z" fill="url(#paint4_linear_451_2520)" stroke="url(#paint5_linear_451_2520)" stroke-width="0.6"/>
</g>
<defs>
<linearGradient id="paint0_linear_451_2520" x1="17.259" y1="11.7706" x2="17.547" y2="23.2892" gradientUnits="userSpaceOnUse">
<stop stop-color="#D800BD"/>
<stop offset="0.408098" stop-color="#F92D7A"/>
<stop offset="0.590073" stop-color="#FF4A52"/>
<stop offset="1" stop-color="#FFB243"/>
</linearGradient>
<linearGradient id="paint1_linear_451_2520" x1="17.259" y1="11.7706" x2="17.547" y2="23.2892" gradientUnits="userSpaceOnUse">
<stop stop-color="#D800BD"/>
<stop offset="0.408098" stop-color="#F92D7A"/>
<stop offset="0.590073" stop-color="#FF4A52"/>
<stop offset="1" stop-color="#FFB243"/>
</linearGradient>
<linearGradient id="paint2_linear_451_2520" x1="6.95829" y1="18.5376" x2="6.95829" y2="6.62109" gradientUnits="userSpaceOnUse">
<stop stop-color="#5570FF"/>
<stop offset="1" stop-color="#4DD3FF"/>
</linearGradient>
<linearGradient id="paint3_linear_451_2520" x1="6.95829" y1="18.5376" x2="6.95829" y2="6.62109" gradientUnits="userSpaceOnUse">
<stop stop-color="#5570FF"/>
<stop offset="1" stop-color="#4DD3FF"/>
</linearGradient>
<linearGradient id="paint4_linear_451_2520" x1="13.9285" y1="1" x2="13.9285" y2="12.9166" gradientUnits="userSpaceOnUse">
<stop stop-color="#5570FF"/>
<stop offset="1" stop-color="#4DD3FF"/>
</linearGradient>
<linearGradient id="paint5_linear_451_2520" x1="13.9285" y1="1" x2="13.9285" y2="12.9166" gradientUnits="userSpaceOnUse">
<stop stop-color="#5570FF"/>
<stop offset="1" stop-color="#4DD3FF"/>
</linearGradient>
<clipPath id="clip0_451_2520">
<rect width="22" height="22" fill="white"/>
</clipPath>
</defs>
</svg>
