<svg width="22" height="22" viewBox="0 0 22 22" fill="none" xmlns="http://www.w3.org/2000/svg">
<path d="M9.11306 2.65978C8.74829 2.40724 8.25 2.66832 8.25 3.11199V4.94977C8.25 5.25352 8.00375 5.49977 7.7 5.49977H6.875C2.75 5.49977 0 8.24977 0 12.3748C0 15.6231 2.36849 17.5687 3.99693 18.5225C4.45489 18.7908 4.89023 18.2859 4.63422 17.821C4.06981 16.7961 3.4375 15.427 3.4375 14.4373C3.4375 12.6498 5.5 10.9998 7.5625 10.9998H7.7C8.00375 10.9998 8.25 11.246 8.25 11.5498V13.3876C8.25 13.8312 8.74829 14.0923 9.11306 13.8397L16.5344 8.70198C16.8502 8.48327 16.8502 8.01627 16.5344 7.79756L9.11306 2.65978Z" fill="url(#paint0_linear_451_2517)"/>
<path d="M21.3469 7.79756L13.9256 2.65978C13.5608 2.40724 13.0625 2.66832 13.0625 3.11199V3.67818C13.0625 3.85867 13.151 4.02767 13.2995 4.13039L18.5967 7.79756C18.9127 8.01627 18.9127 8.48327 18.5967 8.70198L13.2995 12.3691C13.151 12.4719 13.0625 12.6409 13.0625 12.8214V13.3876C13.0625 13.8312 13.5608 14.0923 13.9256 13.8397L21.3469 8.70198C21.6627 8.48327 21.6627 8.01627 21.3469 7.79756Z" fill="url(#paint1_linear_451_2517)"/>
<defs>
<linearGradient id="paint0_linear_451_2517" x1="17.1875" y1="19.2498" x2="-3.55149" y2="10.2106" gradientUnits="userSpaceOnUse">
<stop stop-color="#0357D1"/>
<stop offset="1" stop-color="#27CDFC"/>
</linearGradient>
<linearGradient id="paint1_linear_451_2517" x1="17.5312" y1="14.4373" x2="17.5312" y2="2.06227" gradientUnits="userSpaceOnUse">
<stop stop-color="#02AA93"/>
<stop offset="1" stop-color="#67FF80"/>
</linearGradient>
</defs>
</svg>
