<svg width="22" height="22" viewBox="0 0 22 22" fill="none" xmlns="http://www.w3.org/2000/svg">
<path d="M12.8867 2.65978C13.2515 2.40724 13.7498 2.66832 13.7498 3.11199V4.94977C13.7498 5.25352 13.996 5.49977 14.2998 5.49977H15.1248C19.2498 5.49977 21.9998 8.24977 21.9998 12.3748C21.9998 15.6231 19.6313 17.5687 18.0028 18.5225C17.5449 18.7908 17.1096 18.2859 17.3656 17.821C17.9299 16.7961 18.5623 15.427 18.5623 14.4373C18.5623 12.6498 16.4998 10.9998 14.4373 10.9998H14.2998C13.996 10.9998 13.7498 11.246 13.7498 11.5498V13.3876C13.7498 13.8312 13.2515 14.0923 12.8867 13.8397L5.46545 8.70198C5.14954 8.48327 5.14954 8.01627 5.46545 7.79756L12.8867 2.65978Z" fill="url(#paint0_linear_451_2514)"/>
<path d="M0.65295 7.79756L8.0742 2.65978C8.43898 2.40724 8.93726 2.66832 8.93726 3.11199V3.67818C8.93726 3.85867 8.84871 4.02767 8.70031 4.13039L3.403 7.79756C3.08707 8.01627 3.08707 8.48327 3.403 8.70198L8.70031 12.3691C8.84871 12.4719 8.93726 12.6409 8.93726 12.8214V13.3876C8.93726 13.8312 8.43898 14.0923 8.0742 13.8397L0.65295 8.70198C0.337038 8.48327 0.337037 8.01627 0.65295 7.79756Z" fill="url(#paint1_linear_451_2514)"/>
<defs>
<linearGradient id="paint0_linear_451_2514" x1="4.81227" y1="19.2498" x2="25.5513" y2="10.2105" gradientUnits="userSpaceOnUse">
<stop stop-color="#0357D1"/>
<stop offset="1" stop-color="#27CDFC"/>
</linearGradient>
<linearGradient id="paint1_linear_451_2514" x1="4.46851" y1="14.4373" x2="4.46851" y2="2.06227" gradientUnits="userSpaceOnUse">
<stop stop-color="#02AA93"/>
<stop offset="1" stop-color="#67FF80"/>
</linearGradient>
</defs>
</svg>
