<svg width="22" height="22" viewBox="0 0 22 22" fill="none" xmlns="http://www.w3.org/2000/svg">
<path fill-rule="evenodd" clip-rule="evenodd" d="M15.6353 2.23438C15.6353 1.56991 15.0967 1.03125 14.4322 1.03125C13.7677 1.03125 13.2291 1.56991 13.2291 2.23438C13.2291 2.33955 13.1438 2.42481 13.0386 2.42481H8.69708C8.59193 2.42481 8.50664 2.33955 8.50664 2.23438C8.50664 1.56991 7.96799 1.03125 7.30352 1.03125C6.63905 1.03125 6.10039 1.56991 6.10039 2.23438C6.10039 2.38391 5.99012 2.50985 5.84303 2.53664C4.84189 2.71899 3.9412 3.12987 3.22625 3.80947C2.206 4.77936 1.71875 6.14938 1.71875 7.72533V15.7115C1.71875 17.3026 2.20231 18.6882 3.21784 19.6724C4.2274 20.6509 5.61244 21.0871 7.13216 21.0871H14.5962C16.1138 21.0871 17.4971 20.6608 18.5071 19.6964C19.5256 18.724 20.0097 17.3523 20.0097 15.7782V7.72726C20.0141 6.15299 19.5325 4.78197 18.5136 3.81064C17.7986 3.12906 16.8962 2.71794 15.8924 2.53595C15.7455 2.50933 15.6353 2.38364 15.6353 2.23438ZM12.9217 4.83106C13.0915 4.83106 13.2291 4.96867 13.2291 5.13844C13.2291 5.80291 13.7677 6.34157 14.4322 6.34157C15.0967 6.34157 15.6353 5.80291 15.6353 5.13844C15.6353 5.03604 15.7307 4.96004 15.8289 4.98874C16.268 5.11696 16.6045 5.31513 16.8533 5.55232C17.2146 5.89672 17.4966 6.42373 17.5789 7.21322C17.599 7.40561 17.4419 7.56553 17.2485 7.56553H4.48192C4.2879 7.56553 4.13067 7.40479 4.15164 7.21194C4.23727 6.42548 4.52103 5.89861 4.8841 5.55349C5.13397 5.31596 5.47051 5.11796 5.90772 4.98967C6.00548 4.96097 6.10039 5.03656 6.10039 5.13844C6.10039 5.80291 6.63905 6.34157 7.30352 6.34157C7.96799 6.34157 8.50664 5.80291 8.50664 5.13844C8.50664 4.96867 8.64428 4.83106 8.81403 4.83106H12.9217ZM4.46875 9.97178C4.2789 9.97178 4.125 10.1257 4.125 10.3155V15.7115C4.125 16.8158 4.45081 17.5164 4.89252 17.9446C5.34022 18.3785 6.06031 18.6808 7.13216 18.6808H14.5962C15.6784 18.6808 16.4002 18.3811 16.8454 17.9561C17.2821 17.5391 17.6034 16.8578 17.6034 15.7782V10.3155C17.6034 10.1257 17.4495 9.97178 17.2597 9.97178H4.46875Z" fill="url(#paint0_linear_451_2511)"/>
<path d="M10.45 12.1589C10.45 11.8986 10.6611 11.6875 10.9214 11.6875H11.0786C11.3389 11.6875 11.55 11.8986 11.55 12.1589V13.4161C11.55 13.6764 11.761 13.8875 12.0215 13.8875H13.2786C13.5389 13.8875 13.75 14.0986 13.75 14.3589V14.5161C13.75 14.7764 13.5389 14.9875 13.2786 14.9875H12.0215C11.761 14.9875 11.55 15.1985 11.55 15.459V16.7161C11.55 16.9764 11.3389 17.1875 11.0786 17.1875H10.9214C10.6611 17.1875 10.45 16.9764 10.45 16.7161V15.459C10.45 15.1985 10.2389 14.9875 9.97858 14.9875H8.72142C8.46106 14.9875 8.25 14.7764 8.25 14.5161V14.3589C8.25 14.0986 8.46106 13.8875 8.72142 13.8875H9.97858C10.2389 13.8875 10.45 13.6764 10.45 13.4161V12.1589Z" fill="url(#paint1_linear_451_2511)" stroke="url(#paint2_linear_451_2511)"/>
<defs>
<linearGradient id="paint0_linear_451_2511" x1="10.0688" y1="20.5484" x2="12.5457" y2="2.48218" gradientUnits="userSpaceOnUse">
<stop stop-color="#8D01A2"/>
<stop offset="1" stop-color="#FF33DB"/>
</linearGradient>
<linearGradient id="paint1_linear_451_2511" x1="11" y1="17.1875" x2="11" y2="11.6875" gradientUnits="userSpaceOnUse">
<stop stop-color="#02AA93"/>
<stop offset="1" stop-color="#67FF80"/>
</linearGradient>
<linearGradient id="paint2_linear_451_2511" x1="11" y1="17.1875" x2="11" y2="11.6875" gradientUnits="userSpaceOnUse">
<stop stop-color="#02AA93"/>
<stop offset="1" stop-color="#67FF80"/>
</linearGradient>
</defs>
</svg>
