<svg width="22" height="22" viewBox="0 0 22 22" fill="none" xmlns="http://www.w3.org/2000/svg">
<path d="M9.32885 1.375C9.02509 1.375 8.77885 1.62125 8.77885 1.925V2.55794C8.77885 2.81891 8.5948 3.0418 8.34287 3.10992C7.72009 3.27832 7.12218 3.52771 6.56371 3.85103C6.33736 3.98207 6.04882 3.95491 5.86388 3.76998L5.41377 3.31987C5.19898 3.10508 4.85074 3.10508 4.63595 3.31987L3.31987 4.63595C3.10508 4.85074 3.10508 5.19898 3.31987 5.41377L3.7704 5.86429C3.95515 6.04905 3.98245 6.33722 3.85191 6.56356C3.52995 7.12181 3.2823 7.71948 3.11514 8.34201C3.04738 8.59437 2.8243 8.77885 2.56303 8.77885H1.925C1.62125 8.77885 1.375 9.02509 1.375 9.32885V11.1904C1.375 11.4941 1.62125 11.7404 1.925 11.7404H2.55794C2.81891 11.7404 3.0418 11.9244 3.10992 12.1764C3.27832 12.7991 3.52771 13.3971 3.85103 13.9556C3.98207 14.1819 3.95491 14.4704 3.76998 14.6553L3.31987 15.1055C3.10508 15.3202 3.10508 15.6685 3.31987 15.8833L4.63595 17.1993C4.85074 17.4141 5.19898 17.4141 5.41377 17.1993L5.86429 16.7489C6.04905 16.5641 6.33722 16.5369 6.56356 16.6673C7.12181 16.9892 7.71948 17.237 8.34201 17.4041C8.59437 17.4719 8.77885 17.6949 8.77885 17.9563V18.5943C8.77885 18.898 9.02509 19.1443 9.32885 19.1443H9.70962C10.0134 19.1443 10.2596 18.898 10.2596 18.5943V16.7326C10.2596 16.4289 10.0128 16.1854 9.71036 16.1572C8.31174 16.0269 6.99781 15.4022 6.01107 14.3866C4.93753 13.2805 4.33654 11.8011 4.33654 10.2596C4.33654 8.6589 4.98495 7.1261 6.13256 6.01107C7.23869 4.93753 8.71813 4.33654 10.2596 4.33654C11.8603 4.33654 13.3931 4.98495 14.5082 6.13256C15.4535 7.10655 16.0324 8.37 16.1572 9.71037C16.1854 10.0128 16.4289 10.2596 16.7326 10.2596H18.5943C18.898 10.2596 19.1443 10.0134 19.1443 9.70962V9.32885C19.1443 9.02509 18.898 8.77885 18.5943 8.77885H17.9614C17.7004 8.77885 17.4775 8.5948 17.4093 8.34287C17.2408 7.72009 16.9916 7.12218 16.6682 6.56371C16.5371 6.33736 16.5644 6.04882 16.7493 5.86388L17.1993 5.41377C17.4141 5.19898 17.4141 4.85074 17.1993 4.63595L15.8833 3.31987C15.6685 3.10508 15.3202 3.10508 15.1055 3.31987L14.6549 3.7704C14.4702 3.95515 14.182 3.98245 13.9557 3.85191C13.3974 3.52995 12.7998 3.2823 12.1772 3.11514C11.9249 3.04738 11.7404 2.8243 11.7404 2.56303V1.925C11.7404 1.62125 11.4941 1.375 11.1904 1.375H9.32885ZM9.63394 7.86814C9.26842 7.62446 8.77885 7.88648 8.77885 8.32576V12.1935C8.77885 12.6328 9.26842 12.8948 9.63394 12.6511L12.5347 10.7172C12.8613 10.4995 12.8613 10.0197 12.5347 9.80199L9.63394 7.86814ZM15.2519 11.7404C14.9482 11.7404 14.7019 11.9866 14.7019 12.2904V16.4629C14.7019 16.9529 14.1096 17.1982 13.7631 16.8519L12.6904 15.7792C12.4756 15.5643 12.1273 15.5643 11.9125 15.7792L11.6434 16.0483C11.4286 16.2631 11.4286 16.6114 11.6434 16.8261L15.0534 20.2362C15.2681 20.4509 15.6164 20.4509 15.8312 20.2362L18.2245 17.8428L19.2412 16.8261C19.456 16.6114 19.456 16.2631 19.2412 16.0483L18.9721 15.7792C18.7573 15.5643 18.409 15.5643 18.1943 15.7792L17.1216 16.8519C16.7751 17.1982 16.1827 16.9529 16.1827 16.4629V12.2904C16.1827 11.9866 15.9364 11.7404 15.6326 11.7404H15.2519Z" fill="url(#paint0_linear_451_2502)" stroke="url(#paint1_linear_451_2502)" stroke-width="0.6"/>
<defs>
<linearGradient id="paint0_linear_451_2502" x1="4.68373" y1="18.3524" x2="21.8945" y2="4.11176" gradientUnits="userSpaceOnUse">
<stop stop-color="#FE0844"/>
<stop offset="1" stop-color="#FEB302"/>
</linearGradient>
<linearGradient id="paint1_linear_451_2502" x1="4.68373" y1="18.3524" x2="21.8945" y2="4.11176" gradientUnits="userSpaceOnUse">
<stop stop-color="#FE0844"/>
<stop offset="1" stop-color="#FEB302"/>
</linearGradient>
</defs>
</svg>
