<svg width="22" height="22" viewBox="0 0 22 22" fill="none" xmlns="http://www.w3.org/2000/svg">
<path d="M9.112 1.40224C10.1757 1.33674 11.2421 1.41293 12.3086 1.39021C12.9584 1.30866 13.5192 1.84468 13.6816 2.40207C13.8681 2.91002 13.8958 3.46024 14.0532 3.9743C14.1046 4.14243 14.2146 4.28574 14.3594 4.38548C14.6071 4.55608 14.8724 4.70412 15.1395 4.84887C15.3917 4.98556 15.69 5.01303 15.9598 4.91556C16.4371 4.74313 16.9104 4.55919 17.4065 4.44055C17.9532 4.30019 18.6127 4.49267 18.8995 4.97389C19.367 5.70238 19.7952 6.45495 20.2104 7.21285C20.4349 7.68871 20.7443 8.27955 20.3784 8.76477C19.9812 9.31011 19.3634 9.66047 18.8787 10.1298C18.7639 10.2408 18.6845 10.3843 18.6612 10.5423C18.6216 10.8105 18.6282 11.0865 18.6347 11.3595C18.639 11.5338 18.6801 11.7085 18.7871 11.8461C19.2641 12.4583 20.1046 12.7982 20.442 13.5194C20.6497 13.883 20.5832 14.3335 20.3545 14.673C19.8388 15.5232 19.3289 16.3773 18.7767 17.2061C18.4094 17.7473 17.6155 17.8236 17.0463 17.5388C16.5532 17.3035 15.9092 17.2648 15.5729 16.8037C15.2071 16.3425 15.6549 15.5953 16.2609 15.6555C16.4581 15.674 16.6455 15.7272 16.8286 15.7946C17.2736 15.9582 17.7635 15.8239 18.0146 15.4217C18.1526 15.2005 18.288 14.9776 18.4236 14.7549C18.6792 14.3345 18.6024 13.7984 18.2198 13.4892C17.6832 13.0556 17.1578 12.5991 17.049 11.9141C17.0035 11.2971 17.0088 10.6729 17.0724 10.0586C17.0791 9.99372 17.0919 9.92934 17.115 9.86831C17.3231 9.31908 17.7944 8.94841 18.2605 8.57881C18.6232 8.29135 18.7002 7.79127 18.4671 7.39155C18.3275 7.15222 18.1868 6.91355 18.0481 6.67377C17.814 6.26869 17.3439 6.06507 16.906 6.22999C16.1891 6.49997 15.4576 6.78982 14.7269 6.40949C13.9514 5.91492 12.9004 5.59812 12.5642 4.68784C12.4766 4.3719 12.4038 4.05185 12.3298 3.73203C12.2244 3.27597 11.8145 2.96343 11.3464 2.96493C11.1192 2.96565 10.892 2.96589 10.6648 2.96546C10.1412 2.96448 9.71219 3.3554 9.58389 3.86301C9.50201 4.18698 9.38857 4.50275 9.22218 4.79744C8.91284 5.35219 8.30686 5.65428 7.76727 5.97776C7.38305 6.19563 6.99602 6.46699 6.53128 6.48837C5.98859 6.52236 5.49393 6.31201 4.99873 6.12504C4.59649 5.97317 4.16307 6.14878 3.93726 6.51466C3.80177 6.73417 3.66761 6.95435 3.53215 7.17379C3.26147 7.61227 3.34452 8.18058 3.7384 8.51285C3.98054 8.7171 4.21802 8.92576 4.43647 9.15241C4.86307 9.59886 4.93934 10.2258 4.90543 10.8032C4.87297 11.3927 4.97891 12.0584 4.5622 12.557C4.31781 12.8622 4.0162 13.1169 3.7063 13.3637C3.32738 13.6654 3.22486 14.188 3.46866 14.6065C3.60381 14.8385 3.74072 15.0696 3.87551 15.3019C4.1166 15.7174 4.60323 15.9201 5.04926 15.7418C5.60653 15.519 6.1671 15.2984 6.78131 15.4201C7.31101 15.5498 7.73902 15.8946 8.20798 16.1433C8.71791 16.4039 9.20807 16.7822 9.3705 17.3317C9.44463 17.6122 9.51734 17.8936 9.58423 18.1763C9.69848 18.6589 10.1197 19.0162 10.6158 19.0162C10.8649 19.0164 11.1141 19.0159 11.3634 19.0156C11.8432 19.0149 12.1996 18.6739 12.3079 18.2065C12.3661 17.9553 12.4747 17.7291 12.7253 17.5909C13.231 17.2781 13.9881 17.7193 13.9189 18.2887C13.9189 19.158 13.68 20.2936 12.6891 20.5867C12.6254 20.6054 12.5591 20.6131 12.4927 20.615C11.452 20.6441 10.4092 20.5994 9.36714 20.6131C9.14463 20.6161 8.92117 20.558 8.73806 20.4315C8.60468 20.3393 8.48377 20.2345 8.42268 20.0853C8.17817 19.4564 8.05673 18.7966 7.90988 18.1426C7.85125 17.8815 7.68716 17.6572 7.45908 17.5173C7.2325 17.3785 7.00427 17.2416 6.77184 17.112C6.52682 16.9752 6.23458 16.9573 5.97114 17.054C5.47623 17.2358 4.98271 17.4226 4.46756 17.5483C3.90677 17.6792 3.27255 17.4333 2.9957 16.9493C2.53803 16.2168 2.10719 15.4683 1.69473 14.7117C1.4546 14.2211 1.22718 13.6036 1.61139 13.1211C2.01223 12.6646 2.53165 12.3186 2.9844 11.9085C3.18423 11.7274 3.27831 11.4622 3.28905 11.1928C3.29794 10.9699 3.31073 10.7472 3.29964 10.5256C3.29137 10.3605 3.2274 10.2028 3.11613 10.0805C2.55575 9.46462 1.67624 9.08267 1.42352 8.26083C1.26391 7.80502 1.52947 7.35989 1.76536 6.97627C2.22867 6.25044 2.65243 5.50189 3.13835 4.78942C3.44912 4.33895 4.07488 4.14514 4.6074 4.33629C5.04448 4.50192 5.48235 4.66242 5.92271 4.81721C6.21364 4.91947 6.53517 4.88288 6.80307 4.73015C7.08555 4.56913 7.36856 4.40871 7.6262 4.214C7.6697 4.18112 7.7104 4.1442 7.74409 4.1013C8.10451 3.64248 8.00068 3.00871 8.19103 2.48363C8.34357 2.04519 8.55405 1.47442 9.112 1.40224Z" fill="url(#paint0_linear_451_2499)" stroke="url(#paint1_linear_451_2499)" stroke-width="0.6"/>
<path d="M8.5916 14.1377C8.69538 14.2106 8.81447 14.2539 8.93784 14.2635C9.06119 14.2732 9.18481 14.249 9.29723 14.1932L14.2651 11.7298C14.3949 11.6664 14.505 11.5639 14.5823 11.4344C14.6595 11.305 14.7006 11.1541 14.7006 11C14.7006 10.8459 14.6595 10.6951 14.5823 10.5656C14.505 10.4361 14.3949 10.3336 14.2651 10.2702L9.29723 7.8068C9.18331 7.75046 9.05805 7.72634 8.9332 7.73673C8.80833 7.74707 8.68793 7.79159 8.5833 7.86605C8.47866 7.94052 8.3932 8.04253 8.33494 8.16248C8.27667 8.28246 8.2475 8.41647 8.25017 8.55198V13.4788C8.25206 13.6107 8.28427 13.74 8.34387 13.8551C8.40346 13.97 8.48861 14.0672 8.5916 14.1377ZM9.16064 8.84144L13.5481 11.0154L9.16064 13.177V8.84144Z" fill="url(#paint2_linear_451_2499)" stroke="url(#paint3_linear_451_2499)"/>
<defs>
<linearGradient id="paint0_linear_451_2499" x1="2.74586" y1="11" x2="18.3215" y2="9.28397" gradientUnits="userSpaceOnUse">
<stop stop-color="#8D01A2"/>
<stop offset="1" stop-color="#FF00D2"/>
</linearGradient>
<linearGradient id="paint1_linear_451_2499" x1="2.74586" y1="11" x2="18.3215" y2="9.28397" gradientUnits="userSpaceOnUse">
<stop stop-color="#8D01A2"/>
<stop offset="1" stop-color="#FF00D2"/>
</linearGradient>
<linearGradient id="paint2_linear_451_2499" x1="8.71076" y1="11" x2="13.9471" y2="10.4285" gradientUnits="userSpaceOnUse">
<stop stop-color="#8D01A2"/>
<stop offset="1" stop-color="#FF00D2"/>
</linearGradient>
<linearGradient id="paint3_linear_451_2499" x1="8.71076" y1="11" x2="13.9471" y2="10.4285" gradientUnits="userSpaceOnUse">
<stop stop-color="#8D01A2"/>
<stop offset="1" stop-color="#FF00D2"/>
</linearGradient>
</defs>
</svg>
