<svg width="24" height="24" viewBox="0 0 24 24" fill="none" xmlns="http://www.w3.org/2000/svg">
<path opacity="0.5" d="M6.714 17.323L7.351 15L8 13H16L16.649 15L17.286 17.323C17.914 19.615 18.228 20.761 17.809 21.388C17.662 21.608 17.465 21.784 17.236 21.901C16.584 22.233 15.576 21.708 13.561 20.658C12.891 20.308 12.555 20.134 12.199 20.096C12.0667 20.0818 11.9333 20.0818 11.801 20.096C11.445 20.134 11.11 20.309 10.439 20.658C8.424 21.708 7.416 22.233 6.764 21.901C6.5322 21.7819 6.33489 21.6053 6.191 21.388C5.771 20.761 6.086 19.615 6.714 17.323Z" fill="url(#paint0_linear_302_204)"/>
<path fill-rule="evenodd" clip-rule="evenodd" d="M12 16C13.8565 16 15.637 15.2625 16.9497 13.9497C18.2625 12.637 19 10.8565 19 9C19 7.14348 18.2625 5.36301 16.9497 4.05025C15.637 2.7375 13.8565 2 12 2C10.1435 2 8.36301 2.7375 7.05025 4.05025C5.7375 5.36301 5 7.14348 5 9C5 10.8565 5.7375 12.637 7.05025 13.9497C8.36301 15.2625 10.1435 16 12 16ZM12 6C11.716 6 11.526 6.34 11.146 7.023L11.048 7.199C10.94 7.393 10.886 7.489 10.802 7.553C10.717 7.617 10.612 7.641 10.402 7.688L10.212 7.732C9.474 7.899 9.105 7.982 9.017 8.264C8.929 8.547 9.181 8.841 9.684 9.429L9.814 9.581C9.957 9.748 10.029 9.831 10.061 9.935C10.093 10.039 10.082 10.15 10.061 10.373L10.041 10.576C9.965 11.361 9.927 11.754 10.156 11.928C10.386 12.102 10.732 11.943 11.423 11.625L11.601 11.543C11.798 11.453 11.896 11.408 12 11.408C12.104 11.408 12.202 11.453 12.399 11.543L12.577 11.625C13.268 11.944 13.614 12.102 13.844 11.928C14.074 11.754 14.035 11.361 13.959 10.576L13.939 10.373C13.918 10.15 13.907 10.039 13.939 9.935C13.971 9.832 14.043 9.748 14.186 9.581L14.316 9.429C14.819 8.841 15.071 8.547 14.983 8.264C14.895 7.982 14.526 7.899 13.788 7.732L13.598 7.688C13.388 7.641 13.283 7.618 13.198 7.553C13.114 7.489 13.06 7.393 12.952 7.199L12.854 7.023C12.474 6.34 12.284 6 12 6Z" fill="url(#paint1_linear_302_204)"/>
<defs>
<linearGradient id="paint0_linear_302_204" x1="17.9643" y1="13.0571" x2="9.37254" y2="24.4175" gradientUnits="userSpaceOnUse">
<stop stop-color="#FE7970"/>
<stop offset="1" stop-color="#DC3282"/>
</linearGradient>
<linearGradient id="paint1_linear_302_204" x1="18.9585" y1="2.08875" x2="5.06927" y2="15.8624" gradientUnits="userSpaceOnUse">
<stop stop-color="#FE7970"/>
<stop offset="1" stop-color="#DC3282"/>
</linearGradient>
</defs>
</svg>
