<svg width="16" height="16" viewBox="0 0 16 16" fill="none" xmlns="http://www.w3.org/2000/svg">
<path d="M12.1045 5.96391V5.10921C12.1045 2.83975 10.2647 1 7.99527 1C5.72581 1 3.88608 2.83975 3.88608 5.10919V5.96389C2.80642 6.51487 2.12632 7.62407 2.125 8.83622V11.7713C2.12695 13.5536 3.57131 14.9981 5.35363 15H10.6369C12.4192 14.998 13.8636 13.5536 13.8655 11.7713V8.83622C13.8642 7.62415 13.1841 6.51487 12.1045 5.96391ZM7.99527 2.76109C9.29207 2.76109 10.3433 3.81236 10.3433 5.10919V5.60758H5.64716V5.10919C5.64716 3.81236 6.69845 2.76109 7.99527 2.76109ZM12.1045 11.7713C12.1045 12.5819 11.4474 13.2389 10.6369 13.2389H5.35367C4.54316 13.2389 3.88611 12.5819 3.88611 11.7713V8.83622C3.88611 8.02575 4.54316 7.36865 5.35367 7.36865H10.6369C11.4474 7.36865 12.1045 8.02575 12.1045 8.83622V11.7713Z" fill="url(#paint0_linear_164_130)" stroke="url(#paint1_linear_164_130)" stroke-width="0.6"/>
<path d="M7.70155 9.12961H8.2886C8.77493 9.12961 9.16911 9.52386 9.16911 10.0102C9.16911 10.4964 8.77493 10.8907 8.2886 10.8907H7.70155C7.21528 10.8907 6.82104 10.4964 6.82104 10.0102C6.82104 9.52386 7.21528 9.12961 7.70155 9.12961Z" fill="url(#paint2_linear_164_130)"/>
<defs>
<linearGradient id="paint0_linear_164_130" x1="3.59257" y1="13.2504" x2="14.7461" y2="11.092" gradientUnits="userSpaceOnUse">
<stop stop-color="#62E8AF"/>
<stop offset="1" stop-color="#B3FBDC"/>
</linearGradient>
<linearGradient id="paint1_linear_164_130" x1="3.59257" y1="13.2504" x2="14.7461" y2="11.092" gradientUnits="userSpaceOnUse">
<stop stop-color="#62E8AF"/>
<stop offset="1" stop-color="#B3FBDC"/>
</linearGradient>
<linearGradient id="paint2_linear_164_130" x1="7.11455" y1="10.6706" x2="9.22863" y2="10.0202" gradientUnits="userSpaceOnUse">
<stop stop-color="#62E8AF"/>
<stop offset="1" stop-color="#B3FBDC"/>
</linearGradient>
</defs>
</svg>
