<svg width="16" height="16" viewBox="0 0 16 16" fill="none" xmlns="http://www.w3.org/2000/svg">
<path d="M11.584 3.3428C11.3862 3.3393 11.1954 3.41542 11.0559 3.5535L10.7231 3.88288L10.7296 3.88923L7.73345 6.83926C7.52065 7.04879 7.52065 7.38851 7.73345 7.59796L9.3304 9.1704C9.5432 9.37992 9.88814 9.37992 10.1009 9.1704L13.1053 6.21224L13.1059 6.2128L15.0842 4.31922C15.4316 3.98674 15.1985 3.40665 14.7142 3.39811L11.584 3.3428Z" fill="url(#paint0_linear_164_133)"/>
<path d="M4.41633 6.67236C4.61412 6.66886 4.80487 6.74492 4.9444 6.88306L5.27717 7.21241L5.27073 7.21876L8.26684 10.1688C8.47964 10.3783 8.47964 10.718 8.26684 10.9276L6.66993 12.4999C6.45715 12.7094 6.11212 12.7094 5.89932 12.4999L2.895 9.54175L2.8944 9.54233L0.916093 7.64881C0.568741 7.3163 0.801773 6.7362 1.28611 6.72767L4.41633 6.67236Z" fill="url(#paint1_linear_164_133)"/>
<defs>
<linearGradient id="paint0_linear_164_133" x1="15.2276" y1="3.38062" x2="9.4576" y2="10.7198" gradientUnits="userSpaceOnUse">
<stop stop-color="#FE7970"/>
<stop offset="1" stop-color="#DC3282"/>
</linearGradient>
<linearGradient id="paint1_linear_164_133" x1="8.40369" y1="6.71018" x2="2.63384" y2="14.0493" gradientUnits="userSpaceOnUse">
<stop stop-color="#FE7970"/>
<stop offset="1" stop-color="#DC3282"/>
</linearGradient>
</defs>
</svg>
