<svg width="22" height="22" viewBox="0 0 22 22" fill="none" xmlns="http://www.w3.org/2000/svg">
<path d="M1.375 1.375V6.1875H6.1875V1.375H1.375ZM7.79167 1.375V2.97917H15.6182L17.2224 1.375H7.79167ZM19.5253 1.375L1.375 19.4939L2.52172 20.625L20.625 2.49354L19.5253 1.375ZM7.79167 4.58333V6.1875H12.4099L14.0141 4.58333H7.79167ZM20.625 4.77759L19.2151 6.1875H20.625V4.77759ZM1.375 9.39583V14.2083H4.38908L6.1875 12.4099V9.39583H1.375ZM7.79167 9.39583V10.8057L9.20158 9.39583H7.79167ZM16.0068 9.39583L14.4026 11H20.625V9.39583H16.0068ZM12.7984 12.6042L11.1943 14.2083H20.625V12.6042H12.7984ZM7.98592 17.4167L6.38176 19.0208H20.625V17.4167H7.98592Z" fill="url(#paint0_linear_451_2483)"/>
<defs>
<linearGradient id="paint0_linear_451_2483" x1="11" y1="20.625" x2="11" y2="1.375" gradientUnits="userSpaceOnUse">
<stop stop-color="#00B59C"/>
<stop offset="1" stop-color="#9CFFAC"/>
</linearGradient>
</defs>
</svg>
