<svg width="22" height="22" viewBox="0 0 22 22" fill="none" xmlns="http://www.w3.org/2000/svg">
<path d="M18.3417 4.37417L16.3484 2.35918C15.4853 1.49215 14.3134 1.00328 13.09 1H7.58337C5.0532 1.00277 3.00277 3.05316 3 5.58333V16.4166C3.00277 18.9468 5.0532 20.9972 7.58337 21H15.0834C17.6135 20.9972 19.6639 18.9468 19.6667 16.4167V7.5975C19.6698 6.38987 19.1932 5.23043 18.3417 4.37417ZM17.1667 16.4167C17.1667 17.5673 16.2339 18.5 15.0834 18.5H7.58337C6.43277 18.5 5.50003 17.5673 5.50003 16.4167V5.58333C5.5 4.43273 6.43277 3.5 7.58337 3.5H12.1667V6.83333C12.1667 7.7538 12.9129 8.5 13.8334 8.5H17.1667V16.4167Z" fill="url(#paint0_linear_451_2472)"/>
<defs>
<linearGradient id="paint0_linear_451_2472" x1="11.3333" y1="21" x2="11.3333" y2="1" gradientUnits="userSpaceOnUse">
<stop stop-color="#A93AFF"/>
<stop offset="1" stop-color="#FF81FF"/>
</linearGradient>
</defs>
</svg>
