<svg width="22" height="22" viewBox="0 0 22 22" fill="none" xmlns="http://www.w3.org/2000/svg">
<path d="M10.9128 1C8.46668 1.00719 6.10754 1.90816 4.27939 3.53336L3.16854 2.42251C3.05199 2.306 2.90352 2.22666 2.74189 2.19452C2.58026 2.16239 2.41273 2.17889 2.26048 2.24195C2.10823 2.305 1.97809 2.41179 1.88652 2.5488C1.79495 2.68581 1.74606 2.84689 1.74602 3.01169V6.83339C1.74602 7.05439 1.83382 7.26636 1.9901 7.42264C2.14638 7.57893 2.35835 7.66671 2.57936 7.66671H6.40107C6.56586 7.66668 6.72693 7.61779 6.86396 7.52621C7.00096 7.43464 7.10775 7.30454 7.17079 7.15229C7.23386 7 7.25036 6.8325 7.21821 6.67086C7.18607 6.50921 7.10675 6.36075 6.99025 6.24421L6.04439 5.29836C7.14814 4.35546 8.50182 3.75318 9.94118 3.5645C11.3805 3.37586 12.8437 3.60896 14.1532 4.23557C15.4626 4.86214 16.5621 5.85529 17.3182 7.0945C18.0744 8.33368 18.4546 9.76571 18.4129 11.2167C18.3592 13.0917 17.605 14.8784 16.299 16.2247C14.993 17.571 13.2299 18.379 11.3575 18.4895C9.48511 18.5999 7.63929 18.0048 6.184 16.8214C4.72875 15.6381 3.76971 13.9524 3.49604 12.0968C3.45696 11.7951 3.30989 11.5177 3.08207 11.3161C2.85424 11.1145 2.56108 11.0022 2.25686 11.0001C2.08033 10.9978 1.90534 11.0332 1.74359 11.104C1.58184 11.1747 1.43705 11.2792 1.31889 11.4104C1.20073 11.5415 1.11192 11.6964 1.0584 11.8646C1.00487 12.0329 0.987868 12.2106 1.00851 12.3859C1.35536 14.8409 2.60052 17.08 4.50304 18.6699C6.40557 20.2598 8.83021 21.0874 11.3078 20.9927C13.8142 20.8719 16.1859 19.822 17.9603 18.0476C19.7347 16.2732 20.7846 13.9016 20.9054 11.3951C20.957 10.05 20.7369 8.70832 20.2581 7.45029C19.7794 6.19221 19.0518 5.04364 18.119 4.07321C17.1861 3.10281 16.0671 2.33049 14.829 1.80244C13.5908 1.27439 12.2589 1.00147 10.9128 1Z" fill="url(#paint0_linear_451_2467)"/>
<path d="M10.4971 6.83301C10.1656 6.83301 9.84764 6.96472 9.61321 7.19915C9.37878 7.43354 9.24707 7.75151 9.24707 8.08301V11.6605C9.24718 12.1025 9.42286 12.5264 9.73543 12.8389L11.2296 14.3331C11.4654 14.5608 11.7811 14.6868 12.1089 14.6839C12.4366 14.6811 12.7501 14.5496 12.9819 14.3178C13.2136 14.0861 13.3451 13.7726 13.348 13.4448C13.3508 13.1171 13.2248 12.8013 12.9971 12.5655L11.7471 11.3155V8.08301C11.7471 7.75151 11.6154 7.43354 11.381 7.19915C11.1466 6.96472 10.8286 6.83301 10.4971 6.83301Z" fill="url(#paint1_linear_451_2467)"/>
<defs>
<linearGradient id="paint0_linear_451_2467" x1="10.9564" y1="21" x2="10.9564" y2="1" gradientUnits="userSpaceOnUse">
<stop stop-color="#FDA700"/>
<stop offset="1" stop-color="#FFDE00"/>
</linearGradient>
<linearGradient id="paint1_linear_451_2467" x1="11.2975" y1="14.684" x2="11.2975" y2="6.83301" gradientUnits="userSpaceOnUse">
<stop stop-color="#FDA700"/>
<stop offset="1" stop-color="#FFDE00"/>
</linearGradient>
</defs>
</svg>
