<svg width="22" height="22" viewBox="0 0 22 22" fill="none" xmlns="http://www.w3.org/2000/svg">
<path fill-rule="evenodd" clip-rule="evenodd" d="M13.2222 2.85558C13.2222 2.51618 13.6183 2.33101 13.8787 2.54865L20.6327 8.19308C20.8241 8.35298 20.8241 8.64705 20.6327 8.80694L13.8787 14.4514C13.6183 14.669 13.2222 14.4838 13.2222 14.1444V11.1218C13.2222 10.9009 13.0431 10.7218 12.8222 10.7218H8.22222C6.66667 10.7218 5.44444 11.944 5.44444 13.4996C5.44444 15.0551 6.66667 16.2773 8.22222 16.2773H9.48889C9.7098 16.2773 9.88889 16.4564 9.88889 16.6773V20.3218C9.88889 20.5427 9.7098 20.7218 9.48889 20.7218H8.22222C4.22222 20.7218 1 17.4996 1 13.4996C1 9.49957 4.22222 6.27734 8.22222 6.27734H12.8222C13.0431 6.27734 13.2222 6.09826 13.2222 5.87734V2.85558Z" fill="url(#paint0_linear_451_2462)"/>
<defs>
<linearGradient id="paint0_linear_451_2462" x1="11" y1="20.7218" x2="11" y2="2" gradientUnits="userSpaceOnUse">
<stop stop-color="#00B59C"/>
<stop offset="1" stop-color="#9CFFAC"/>
</linearGradient>
</defs>
</svg>
