<svg width="22" height="22" viewBox="0 0 22 22" fill="none" xmlns="http://www.w3.org/2000/svg">
<path d="M3.01359 16.7087C3.01359 16.9296 3.19268 17.1087 3.41359 17.1087H8.65437C8.87528 17.1087 9.05437 17.2878 9.05437 17.5087V18.7223C9.05437 18.9432 8.87528 19.1223 8.65437 19.1223H3.01359C2.47956 19.1223 1.96739 18.9102 1.58977 18.5325C1.21214 18.1549 1 17.6427 1 17.1087V3.01359C1 2.47956 1.21214 1.96739 1.58977 1.58977C1.96739 1.21214 2.47956 1 3.01359 1H14.9295C15.0355 1 15.1373 1.04214 15.2123 1.11716L19.0052 4.91003C19.0802 4.98504 19.1223 5.08678 19.1223 5.19287V6.9959C19.1223 7.10199 19.0802 7.20373 19.0052 7.27875L17.7916 8.49234C17.5396 8.74432 17.1087 8.56586 17.1087 8.2095V6.02851C17.1087 5.92242 17.0666 5.82068 16.9916 5.74567L14.3767 3.13075C14.3016 3.05573 14.1999 3.01359 14.0938 3.01359H3.41359C3.19268 3.01359 3.01359 3.19268 3.01359 3.41359V16.7087ZM12.6815 8.04757C12.9025 8.04757 13.0815 7.86848 13.0815 7.64757V4.42039C13.0815 4.19947 12.9025 4.02039 12.6815 4.02039H4.42039C4.19947 4.02039 4.02039 4.19947 4.02039 4.42039V7.64757C4.02039 7.86848 4.19947 8.04757 4.42039 8.04757H12.6815ZM19.5452 10.3632C19.4961 10.3104 19.437 10.2682 19.3713 10.2388C19.3056 10.2094 19.2346 10.1935 19.1626 10.192C19.0216 10.192 18.8807 10.2525 18.7699 10.3632L18.046 11.0872C17.8898 11.2434 17.8898 11.4966 18.046 11.6528L19.5442 13.1511C19.7004 13.3073 19.9537 13.3073 20.1099 13.1511L20.8339 12.4271C21.0554 12.2157 21.0554 11.8633 20.8339 11.6519L19.5452 10.3632ZM11.1853 17.9379C11.1102 18.013 11.068 18.1148 11.068 18.221V19.7291C11.068 19.95 11.247 20.1291 11.468 20.1291H12.9761C13.0823 20.1291 13.1841 20.0869 13.2592 20.0117L18.9608 14.3007C19.1168 14.1445 19.1166 13.8914 18.9605 13.7353L17.4618 12.2365C17.3057 12.0804 17.0526 12.0803 16.8964 12.2363L11.1853 17.9379ZM13.0815 13.0815C13.0815 11.4103 11.7324 10.0612 10.0612 10.0612C8.38988 10.0612 7.04077 11.4103 7.04077 13.0815C7.04077 14.7528 8.38988 16.1019 10.0612 16.1019V16.1019C10.145 16.1019 10.2253 16.0686 10.2846 16.0094L12.989 13.305C13.0483 13.2457 13.0815 13.1654 13.0815 13.0815V13.0815Z" fill="url(#paint0_linear_451_2460)"/>
<defs>
<linearGradient id="paint0_linear_451_2460" x1="11" y1="20.1291" x2="11" y2="1" gradientUnits="userSpaceOnUse">
<stop stop-color="#5570FF"/>
<stop offset="1" stop-color="#4DD3FF"/>
</linearGradient>
</defs>
</svg>
