<svg width="22" height="22" viewBox="0 0 22 22" fill="none" xmlns="http://www.w3.org/2000/svg">
<path fill-rule="evenodd" clip-rule="evenodd" d="M12.4087 2.24927C12.4087 1.55932 11.8494 1 11.1594 1C10.4694 1 9.91015 1.55932 9.91015 2.24927V6.41351C9.91015 7.10347 10.4695 7.66279 11.1594 7.66279C11.8494 7.66279 12.4087 7.10347 12.4087 6.41351V2.24927ZM14.6331 6.15226C14.2795 5.92658 14.0681 5.5339 14.0742 5.11454C14.0744 4.87808 14.1414 4.64647 14.2675 4.4465C14.6369 3.861 15.4109 3.68582 15.9964 4.05518C17.1928 4.79829 18.2017 5.80722 18.9448 7.00362C21.6145 11.3016 20.2945 16.9501 15.9964 19.6197C11.6984 22.2894 6.04994 20.9693 3.3803 16.6713C0.710642 12.3732 2.03069 6.72483 6.32876 4.05511C6.52926 3.92872 6.76154 3.86197 6.99851 3.86261C7.68844 3.86454 8.24622 4.42536 8.2443 5.11533C8.24719 5.5399 8.03004 5.93572 7.67044 6.1614C6.77469 6.71197 6.02194 7.46672 5.47372 8.36394C3.55515 11.504 4.54536 15.6048 7.6854 17.5233C10.8254 19.4418 14.9262 18.4516 16.8447 15.3116C18.7633 12.1716 17.7731 8.0708 14.6331 6.15226Z" fill="url(#paint0_linear_451_2458)"/>
<defs>
<linearGradient id="paint0_linear_451_2458" x1="19.4949" y1="1.34374" x2="1.20356" y2="18.9627" gradientUnits="userSpaceOnUse">
<stop stop-color="#D800BD"/>
<stop offset="0.408098" stop-color="#F92D7A"/>
<stop offset="0.590073" stop-color="#FF4A52"/>
<stop offset="1" stop-color="#FFB243"/>
</linearGradient>
</defs>
</svg>
