<svg width="22" height="22" viewBox="0 0 22 22" fill="none" xmlns="http://www.w3.org/2000/svg">
<path d="M18.3902 13.8223C19.0401 13.8227 19.6656 14.07 20.1398 14.5143C20.6142 14.9586 20.9019 15.5665 20.9448 16.215L20.951 16.383V18.4376C20.9487 19.1008 20.6891 19.7374 20.227 20.2132C19.7648 20.6891 19.1362 20.9671 18.4733 20.9889C17.8104 21.0107 17.1648 20.7745 16.6725 20.3299C16.1801 19.8855 15.8794 19.2674 15.8336 18.6057L15.8285 18.4376V16.383C15.8287 15.7038 16.0987 15.0525 16.5791 14.5722C17.0596 14.092 17.7109 13.8223 18.3902 13.8223ZM10.7048 3.57306C11.9041 3.57302 13.0905 3.82065 14.1897 4.30042C15.2887 4.7802 16.277 5.48179 17.0924 6.36124C17.9078 7.24069 18.5328 8.27905 18.9281 9.41129C19.3236 10.5435 19.4809 11.7452 19.3904 12.941C18.8928 12.7941 18.369 12.7588 17.8564 12.8376C17.9724 11.3336 17.6114 9.83129 16.8247 8.54423C16.0378 7.25721 14.8654 6.25099 13.4738 5.66863C12.0824 5.08626 10.5426 4.95741 9.07373 5.30037C7.60479 5.64333 6.28134 6.44066 5.29159 7.579C4.30183 8.71733 3.69612 10.1387 3.5606 11.6411C3.42507 13.1434 3.76663 14.6503 4.53669 15.9474C5.30676 17.2445 6.46614 18.2658 7.85 18.866C9.23386 19.4664 10.7717 19.6151 12.245 19.2912V20.2237L12.2563 20.4132V20.8559C11.0665 21.0706 9.84492 21.0351 8.66956 20.7518C7.49417 20.4687 6.39062 19.9438 5.42915 19.2108C4.46769 18.4777 3.66936 17.5525 3.08498 16.4941C2.50061 15.4357 2.14299 14.2671 2.03489 13.0629C1.92678 11.8587 2.07056 10.6453 2.45708 9.49965C2.84359 8.35407 3.46437 7.3015 4.27991 6.40894C5.09545 5.51637 6.08787 4.80336 7.19403 4.31531C8.30017 3.82724 9.49583 3.57481 10.7048 3.57409V3.57306ZM14.7997 14.4884L14.8067 14.5908V20.2237C14.8087 20.4198 14.7357 20.6092 14.6026 20.7532C14.4695 20.8972 14.2863 20.9848 14.0907 20.9982C13.895 21.0116 13.7017 20.9497 13.5501 20.8251C13.3987 20.7005 13.3006 20.5228 13.2758 20.3282L13.2687 20.2237V15.6586L12.744 15.8358C12.5679 15.895 12.3763 15.8884 12.2047 15.8172C12.033 15.746 11.893 15.615 11.8106 15.4485L11.7706 15.3522C11.7114 15.176 11.718 14.9844 11.7892 14.8127C11.8604 14.6412 11.9914 14.5011 12.1579 14.4187L12.2542 14.3787L13.7934 13.8622C13.9007 13.8262 14.0146 13.8143 14.1269 13.8274C14.2394 13.8405 14.3475 13.8782 14.4436 13.9379C14.5397 13.9977 14.6215 14.0778 14.683 14.1728C14.7446 14.2677 14.7844 14.3752 14.7997 14.4873V14.4884ZM18.3892 15.3594C18.1384 15.3597 17.8964 15.4519 17.709 15.6187C17.5217 15.7854 17.402 16.0151 17.3727 16.2642L17.3655 16.383V18.4376C17.368 18.6973 17.4691 18.9463 17.6483 19.1344C17.8275 19.3224 18.0713 19.4354 18.3306 19.4505C18.5898 19.4656 18.8452 19.3817 19.045 19.2157C19.2448 19.0498 19.374 18.8141 19.4068 18.5565L19.4128 18.4376V16.383C19.4126 16.1117 19.3047 15.8514 19.1128 15.6595C18.9208 15.4676 18.6606 15.3597 18.3892 15.3594ZM10.7048 6.64926C10.8906 6.64927 11.07 6.71653 11.2099 6.83859C11.3499 6.96066 11.4409 7.12928 11.4662 7.31327L11.4734 7.4178V12.029C11.4733 12.2237 11.3994 12.4112 11.2665 12.5535C11.1335 12.6957 10.9515 12.7823 10.7572 12.7956C10.563 12.8088 10.3709 12.7478 10.2198 12.6249C10.0688 12.5021 9.97001 12.3265 9.94347 12.1336L9.93629 12.029V7.4178C9.93629 7.21397 10.0173 7.01849 10.1614 6.87436C10.3056 6.73023 10.501 6.64926 10.7048 6.64926ZM18.0438 3.6991L18.1258 3.76263L19.2858 4.77301C19.4328 4.90101 19.5257 5.08008 19.5456 5.27396C19.5656 5.46785 19.5111 5.66207 19.3932 5.81731C19.2754 5.97255 19.1029 6.07721 18.9108 6.1101C18.7187 6.14299 18.5212 6.10165 18.3585 5.99446L18.2755 5.93093L17.1176 4.92056C16.9717 4.7923 16.88 4.61363 16.8606 4.42046C16.8412 4.22729 16.8956 4.03392 17.0129 3.87923C17.1302 3.72454 17.3018 3.61999 17.493 3.58657C17.6842 3.55315 17.881 3.59336 18.0438 3.6991ZM13.0105 1C13.2052 1.00006 13.3927 1.07403 13.5349 1.20696C13.6772 1.3399 13.7637 1.52188 13.777 1.71616C13.7903 1.91042 13.7293 2.10248 13.6064 2.25354C13.4836 2.40458 13.3079 2.50336 13.115 2.5299L13.0105 2.53708H8.39924C8.20452 2.53701 8.01708 2.46305 7.8748 2.33011C7.73252 2.19717 7.646 2.01519 7.63273 1.82092C7.61945 1.62666 7.68042 1.43459 7.8033 1.28354C7.92618 1.13249 8.10182 1.03372 8.29472 1.00717L8.39924 1H13.0105Z" fill="url(#paint0_linear_451_2456)" stroke="url(#paint1_linear_451_2456)" stroke-width="0.6"/>
<defs>
<linearGradient id="paint0_linear_451_2456" x1="11.4755" y1="21" x2="11.4755" y2="1" gradientUnits="userSpaceOnUse">
<stop stop-color="#FD5900"/>
<stop offset="1" stop-color="#FF007A"/>
</linearGradient>
<linearGradient id="paint1_linear_451_2456" x1="11.4755" y1="21" x2="11.4755" y2="1" gradientUnits="userSpaceOnUse">
<stop stop-color="#FD5900"/>
<stop offset="1" stop-color="#FF007A"/>
</linearGradient>
</defs>
</svg>
