<svg width="16" height="16" viewBox="0 0 16 16" fill="none" xmlns="http://www.w3.org/2000/svg">
<path fill-rule="evenodd" clip-rule="evenodd" d="M7.72581 13.8479C7.72581 13.3944 8.09342 13.0268 8.54692 13.0268H13.5968C14.0956 13.0268 14.5 12.6224 14.5 12.1236L14.5 8.51067C14.5 8.0118 14.0956 7.60745 13.5968 7.60745L8.54692 7.60745C8.09342 7.60745 7.72581 7.23983 7.72581 6.78633V6.72512C7.72581 6.56291 7.68758 6.40357 7.615 6.26308C7.54237 6.12262 7.43788 6.00594 7.31213 5.92482C7.18629 5.84373 7.04362 5.80099 6.89841 5.80099C6.75311 5.80099 6.61045 5.84361 6.48465 5.92474L3.69927 7.72133L0.913924 9.51703C0.788088 9.59811 0.683602 9.71479 0.610933 9.85529C0.538265 9.99578 0.5 10.1552 0.5 10.3175C0.5 10.4797 0.538265 10.6391 0.610933 10.7796C0.683602 10.9201 0.788088 11.0367 0.913924 11.1178L3.69927 12.9135L6.48465 14.7092C6.60326 14.7858 6.73714 14.8283 6.87411 14.8329C6.98479 14.8365 7.09499 14.8152 7.1982 14.7704C7.30141 14.7256 7.39551 14.6581 7.47491 14.5719C7.55432 14.4858 7.61746 14.3827 7.66053 14.2688C7.70368 14.1549 7.72585 14.0325 7.72581 13.9088V13.8479Z" fill="url(#paint0_linear_159_59)"/>
<path fill-rule="evenodd" clip-rule="evenodd" d="M4.24946 7.36643L6.48461 5.92474C6.61041 5.84361 6.75308 5.80099 6.89837 5.80099C7.04359 5.80099 7.18626 5.84373 7.31209 5.92482C7.43785 6.00594 7.54233 6.12262 7.61496 6.26308C7.68755 6.40357 7.72577 6.56291 7.72577 6.72512V6.78633C7.72577 7.01282 7.81746 7.21788 7.96574 7.36643L4.24946 7.36643ZM8.47733 7.60454C8.47772 7.60457 8.47811 7.60461 8.4785 7.60464C8.50105 7.6065 8.52386 7.60745 8.54688 7.60745H11.3862L9.641 8.7326C9.5447 8.79476 9.436 8.82923 9.3248 8.83293C9.23493 8.83586 9.14546 8.81863 9.06166 8.78226C8.97786 8.74586 8.90146 8.69106 8.837 8.62113C8.77253 8.55116 8.72126 8.46743 8.6863 8.37497C8.65126 8.2825 8.63326 8.18313 8.6333 8.08273V8.0331C8.6333 7.86991 8.57467 7.72042 8.47733 7.60454Z" fill="#D49F34"/>
<path fill-rule="evenodd" clip-rule="evenodd" d="M10.9744 7.73272C10.8781 7.79489 10.7694 7.82935 10.6582 7.83305C10.5683 7.83599 10.4789 7.81875 10.3951 7.78239C10.3113 7.74599 10.2349 7.69119 10.1704 7.62125C10.1059 7.55129 10.0547 7.46755 10.0197 7.37509C9.98467 7.28262 9.96667 7.18325 9.96671 7.08285V7.03322C9.96671 6.66502 9.66824 6.36655 9.30004 6.36655L5.20004 6.36655C4.79501 6.36655 4.46671 6.03822 4.46671 5.63322V2.69989C4.46671 2.29485 4.79501 1.96655 5.20004 1.96655L9.30004 1.96655C9.66824 1.96655 9.96671 1.66805 9.96671 1.29989V1.25035C9.96671 1.11865 9.99774 0.989286 10.0567 0.87522C10.1156 0.761186 10.2005 0.666454 10.3026 0.600587C10.4047 0.534754 10.5206 0.500053 10.6385 0.500053C10.7564 0.50002 10.8723 0.534686 10.9744 0.60052L13.2359 2.05919L15.4973 3.51715C15.5995 3.58295 15.6843 3.67769 15.7433 3.79179C15.8023 3.90585 15.8334 4.03525 15.8334 4.16699C15.8334 4.29869 15.8023 4.42812 15.7433 4.54219C15.6843 4.65625 15.5995 4.75099 15.4973 4.81682L13.2359 6.27475L10.9744 7.73272Z" fill="url(#paint1_linear_159_59)"/>
<defs>
<linearGradient id="paint0_linear_159_59" x1="1.37603" y1="13.1397" x2="8.04369" y2="4.52798" gradientUnits="userSpaceOnUse">
<stop stop-color="#FF8860"/>
<stop offset="1" stop-color="#FBD92C"/>
</linearGradient>
<linearGradient id="paint1_linear_159_59" x1="7.30837" y1="6.00004" x2="10.649" y2="0.821992" gradientUnits="userSpaceOnUse">
<stop stop-color="#FBD92C"/>
<stop offset="1" stop-color="white"/>
</linearGradient>
</defs>
</svg>
