<svg width="16" height="16" viewBox="0 0 16 16" fill="none" xmlns="http://www.w3.org/2000/svg">
<path fill-rule="evenodd" clip-rule="evenodd" d="M4.5335 0.433496L4.49809 0.433495H4.49809C3.96822 0.433481 3.51704 0.433468 3.14661 0.463733C2.75745 0.495529 2.37886 0.565163 2.01692 0.749577C1.47126 1.02761 1.02761 1.47125 0.749579 2.01692C0.565165 2.37886 0.49553 2.75745 0.463735 3.14661C0.433469 3.51704 0.433482 3.96822 0.433497 4.49809L0.433497 4.5335L0.433496 11.4668L0.433495 11.5022C0.43348 12.0321 0.433468 12.4833 0.463733 12.8537C0.495529 13.2429 0.565163 13.6215 0.749577 13.9834C1.02761 14.5291 1.47125 14.9727 2.01692 15.2507C2.37886 15.4352 2.75745 15.5048 3.14661 15.5366C3.51704 15.5669 3.96822 15.5668 4.49809 15.5668H4.5335L6.13346 15.5668H6.16887C6.69874 15.5668 7.14992 15.5669 7.52036 15.5366C7.90952 15.5048 8.28812 15.4352 8.65005 15.2507C9.19573 14.9727 9.63937 14.5291 9.9174 13.9834C10.1018 13.6214 10.1714 13.2428 10.2032 12.8537C10.2335 12.4833 10.2335 12.0321 10.2335 11.5022V11.5022V11.4668L10.2335 10.9999V10.9998L10.2335 10.6669C10.2336 10.1699 9.83066 9.76689 9.3336 9.76683C8.83655 9.76677 8.43356 10.1697 8.4335 10.6667L8.43345 10.9997V10.9998L8.43346 11.4668C8.43347 12.0417 8.43277 12.4188 8.40921 12.7071C8.38652 12.985 8.34716 13.1003 8.31358 13.1662C8.20812 13.3732 8.03985 13.5415 7.83287 13.6469C7.76698 13.6805 7.65163 13.7199 7.37378 13.7426C7.08542 13.7661 6.70837 13.7668 6.13346 13.7668L4.5335 13.7668C3.95859 13.7668 3.58154 13.7661 3.29319 13.7426C3.01534 13.7199 2.9 13.6805 2.83411 13.6469C2.62713 13.5415 2.45885 13.3732 2.35339 13.1662C2.31982 13.1003 2.28046 12.985 2.25776 12.7071C2.2342 12.4188 2.2335 12.0417 2.2335 11.4668L2.2335 4.5335C2.2335 3.95859 2.2342 3.58154 2.25776 3.29319C2.28046 3.01534 2.31982 2.9 2.35339 2.83411C2.45885 2.62713 2.62713 2.45885 2.83411 2.35339C2.9 2.31982 3.01534 2.28046 3.29319 2.25776C3.58154 2.2342 3.95859 2.2335 4.5335 2.2335H6.1335C6.7084 2.2335 7.08545 2.2342 7.3738 2.25776C7.65165 2.28046 7.76699 2.31982 7.83289 2.35339C8.03986 2.45885 8.20814 2.62713 8.3136 2.83411C8.34718 2.9 8.38654 3.01534 8.40924 3.29319C8.4328 3.58154 8.4335 3.95859 8.4335 4.53349V4.99984V5.3335C8.4335 5.83055 8.83644 6.2335 9.3335 6.2335C9.83055 6.2335 10.2335 5.83055 10.2335 5.3335V4.99984V4.53349V4.49809C10.2335 3.96822 10.2335 3.51704 10.2033 3.14661C10.1715 2.75745 10.1018 2.37886 9.91741 2.01692C9.63938 1.47125 9.19574 1.02761 8.65007 0.749577C8.28814 0.565163 7.90954 0.495529 7.52038 0.463734C7.14995 0.433468 6.69877 0.433481 6.1689 0.433495L6.1335 0.433496L4.5335 0.433496ZM12.6366 4.69677C12.2851 4.3453 11.7152 4.3453 11.3638 4.69677C11.0123 5.04825 11.0123 5.61809 11.3638 5.96957V5.96957C11.7387 6.34447 11.9261 6.53193 11.9283 6.69445C11.9298 6.80427 11.8861 6.90986 11.8074 6.98646C11.6909 7.09984 11.4258 7.09984 10.8956 7.09984L6.00016 7.09984C5.50311 7.09984 5.10016 7.50278 5.10016 7.99984C5.10016 8.49689 5.50311 8.89984 6.00016 8.89984L10.8956 8.89984C11.4258 8.89984 11.6909 8.89984 11.8074 9.01321C11.8861 9.08982 11.9298 9.19541 11.9283 9.30522C11.9261 9.46775 11.7387 9.6552 11.3638 10.0301V10.0301C11.0123 10.3816 11.0123 10.9514 11.3638 11.3029C11.7152 11.6544 12.2851 11.6544 12.6366 11.3029L15.3032 8.63623C15.6547 8.28476 15.6547 7.71491 15.3032 7.36344L12.6366 4.69677Z" fill="url(#paint0_linear_488_441)"/>
<defs>
<linearGradient id="paint0_linear_488_441" x1="0.369091" y1="0.729454" x2="15.661" y2="16.4892" gradientUnits="userSpaceOnUse">
<stop stop-color="#F9D423"/>
<stop offset="0.515624" stop-color="#FF4E50"/>
<stop offset="0.991304" stop-color="#8A2387"/>
</linearGradient>
</defs>
</svg>
