<svg width="16" height="16" viewBox="0 0 16 16" fill="none" xmlns="http://www.w3.org/2000/svg">
<path fill-rule="evenodd" clip-rule="evenodd" d="M3.85567 4.22423C3.85567 3.27196 4.62763 2.5 5.5799 2.5C6.53216 2.5 7.30412 3.27196 7.30412 4.22423C7.30412 5.17649 6.53216 5.94845 5.5799 5.94845C4.62763 5.94845 3.85567 5.17649 3.85567 4.22423ZM5.5799 1C3.79921 1 2.35567 2.44354 2.35567 4.22423C2.35567 6.00492 3.79921 7.44845 5.5799 7.44845C7.36059 7.44845 8.80412 6.00492 8.80412 4.22423C8.80412 2.44354 7.36059 1 5.5799 1ZM9.90995 1C9.49573 1 9.15995 1.33579 9.15995 1.75C9.15995 2.16421 9.49573 2.5 9.90995 2.5C10.8622 2.5 11.6342 3.27196 11.6342 4.22423C11.6342 5.17649 10.8622 5.94845 9.90995 5.94845C9.49573 5.94845 9.15995 6.28424 9.15995 6.69845C9.15995 7.11267 9.49573 7.44845 9.90995 7.44845C11.6906 7.44845 13.1342 6.00492 13.1342 4.22423C13.1342 2.44354 11.6906 1 9.90995 1ZM0.5 12.1418C0.5 10.0878 2.16509 8.42268 4.21907 8.42268H6.94072C8.99471 8.42268 10.6598 10.0878 10.6598 12.1418C10.6598 13.6491 9.43781 14.8711 7.93041 14.8711H3.22938C1.72199 14.8711 0.5 13.6491 0.5 12.1418ZM4.21907 9.92268C2.99351 9.92268 2 10.9162 2 12.1418C2 12.8207 2.55041 13.3711 3.22938 13.3711H7.93041C8.60938 13.3711 9.15979 12.8207 9.15979 12.1418C9.15979 10.9162 8.16628 9.92268 6.94072 9.92268H4.21907ZM11.1468 8.42268C10.7325 8.42268 10.3968 8.75847 10.3968 9.17268C10.3968 9.58689 10.7325 9.92268 11.1468 9.92268H11.889C13.1146 9.92268 14.1081 10.9162 14.1081 12.1418C14.1081 12.8207 13.5577 13.3711 12.8787 13.3711H11.1468C10.7325 13.3711 10.3968 13.7069 10.3968 14.1211C10.3968 14.5353 10.7325 14.8711 11.1468 14.8711H12.8787C14.3861 14.8711 15.6081 13.6491 15.6081 12.1418C15.6081 10.0878 13.943 8.42268 11.889 8.42268H11.1468Z" fill="url(#paint0_linear_488_566)"/>
<defs>
<linearGradient id="paint0_linear_488_566" x1="0.5" y1="7.93557" x2="15.6081" y2="7.93557" gradientUnits="userSpaceOnUse">
<stop stop-color="#FFC152"/>
<stop offset="1" stop-color="#FF5F5F"/>
</linearGradient>
</defs>
</svg>
