<svg width="16" height="16" viewBox="0 0 16 16" fill="none" xmlns="http://www.w3.org/2000/svg">
<path fill-rule="evenodd" clip-rule="evenodd" d="M7.67519 0.871146C7.82979 1.13526 7.80841 1.46681 7.62118 1.70888C6.92768 2.60551 6.51482 3.73115 6.51482 4.9561C6.51482 7.88421 8.87726 10.2523 11.7846 10.2523C12.5855 10.2523 13.3429 10.0732 14.0209 9.75333C14.2981 9.62256 14.6269 9.67359 14.8514 9.88221C15.076 10.0908 15.1509 10.4151 15.0408 10.7011C13.954 13.5242 11.2236 15.5312 8.02222 15.5312C3.86472 15.5312 0.5 12.1469 0.5 7.9792C0.5 4.18699 3.28455 1.04507 6.91828 0.508085C7.22103 0.463345 7.52059 0.607034 7.67519 0.871146ZM5.03434 4.43644C5.10226 3.53585 5.13622 3.08555 4.8861 2.96853C4.63598 2.8515 4.36985 3.10998 3.8376 3.62694C2.70493 4.72707 2 6.26998 2 7.9792C2 11.3247 4.69934 14.0312 8.02222 14.0312C9.59941 14.0312 11.0365 13.4216 12.1111 12.4226C12.1253 12.4094 12.0897 12.4425 12.0925 12.4397C12.3457 12.1947 12.1747 11.7594 11.8224 11.7524C11.8184 11.7523 11.8071 11.7523 11.7846 11.7523V11.7523C8.04264 11.7523 5.01482 8.70643 5.01482 4.9561C5.01482 4.78129 5.0214 4.60799 5.03434 4.43644Z" fill="url(#paint0_linear_488_562)"/>
<defs>
<linearGradient id="paint0_linear_488_562" x1="0.289098" y1="0.647905" x2="15.792" y2="16.1572" gradientUnits="userSpaceOnUse">
<stop stop-color="#F9D423"/>
<stop offset="0.515624" stop-color="#FF4E50"/>
<stop offset="0.991304" stop-color="#8A2387"/>
</linearGradient>
</defs>
</svg>
