<svg width="22" height="22" viewBox="0 0 22 22" fill="none" xmlns="http://www.w3.org/2000/svg">
<path d="M19.1558 12.1384L17.1932 12.6061C16.9463 12.669 16.7101 12.7683 16.4924 12.9007L14.8962 11.9206C15.0686 11.2872 15.0686 10.6192 14.8962 9.98587L16.4924 9.00573C16.7101 9.13815 16.9463 9.23742 17.1932 9.30026C17.1932 9.30026 19.3418 9.80069 19.4344 9.80069C20.0956 9.7944 20.6264 9.25327 20.6201 8.59206C20.6149 8.04595 20.2407 7.57257 19.7105 7.44136L17.7447 6.97125C17.7001 6.96039 17.6619 6.93148 17.6394 6.89146C17.6152 6.85293 17.6077 6.80628 17.6186 6.76218L18.0863 4.79875C18.2776 4.16584 17.9197 3.49762 17.2868 3.30631C16.6539 3.115 15.9857 3.47294 15.7944 4.10585C15.7802 4.15277 15.7689 4.20052 15.7605 4.24882L15.2928 6.21225C15.238 6.45831 15.2199 6.71113 15.2394 6.96252L13.6431 7.94661C13.2328 7.59323 12.7544 7.32755 12.2376 7.16602V5.28639C12.4641 5.17162 12.6718 5.02305 12.8537 4.84581L14.2816 3.41873C14.7491 2.95103 14.7489 2.19293 14.2812 1.72549C13.8135 1.25801 13.0554 1.2582 12.588 1.7259L11.1608 3.15373C11.0948 3.21986 10.9877 3.21994 10.9216 3.15389C10.9216 3.15392 10.9215 3.15385 10.9216 3.15389L9.49276 1.72586C9.02505 1.25816 8.26678 1.25816 7.79907 1.72586C7.3314 2.19356 7.3314 2.95182 7.79907 3.41952L9.22697 4.8466C9.40889 5.02353 9.61665 5.17182 9.84311 5.28639V7.16602C9.32738 7.32902 8.85043 7.59574 8.44157 7.9498L6.84128 6.96252C6.86128 6.70931 6.84324 6.45452 6.78783 6.20665L6.32012 4.24882C6.17712 3.60329 5.53785 3.19589 4.89232 3.33889C4.24679 3.48188 3.83938 4.12115 3.98238 4.76668C3.98513 4.77902 3.98805 4.79129 3.99118 4.80349L4.45889 6.76692C4.46978 6.8111 4.46229 6.85774 4.43816 6.89624C4.41561 6.93629 4.37742 6.96516 4.3328 6.97603L2.37015 7.44133C1.72698 7.59488 1.33006 8.24072 1.48362 8.88384C1.61212 9.42215 2.09286 9.80224 2.64627 9.80306C2.73885 9.80306 4.88744 9.30263 4.88744 9.30263C5.13432 9.23979 5.37051 9.14052 5.58821 9.00811L7.18448 9.98824C7.01209 10.6216 7.01209 11.2895 7.18448 11.9229L5.58821 12.903C5.37051 12.7706 5.13432 12.6713 4.88744 12.6085L2.92479 12.1408C2.29286 11.9462 1.62287 12.3009 1.42831 12.9328C1.23376 13.5647 1.58837 14.2347 2.22031 14.4293C2.26941 14.4444 2.31946 14.4563 2.37007 14.465L4.33273 14.9327C4.37735 14.9436 4.41554 14.9725 4.43805 15.0125C4.46222 15.051 4.46971 15.0977 4.45882 15.1418L3.99114 17.1053C3.83687 17.7484 4.23314 18.3948 4.87627 18.5491C5.51939 18.7034 6.16584 18.3071 6.32012 17.664L6.78783 15.7005C6.84331 15.4524 6.86135 15.1974 6.84128 14.9439L8.44157 13.9598C8.85043 14.3139 9.32738 14.5806 9.84311 14.7436V16.62C9.61675 16.7354 9.40902 16.8842 9.22697 17.0614L7.79907 18.4868C7.3314 18.9545 7.3314 19.7128 7.79907 20.1805C8.26678 20.6482 9.02505 20.6482 9.49276 20.1805L10.9198 18.7526C10.9859 18.6865 11.093 18.6864 11.1591 18.7525C11.1591 18.7525 11.1592 18.7525 11.1591 18.7525L12.5864 20.1805C13.0541 20.6482 13.8123 20.6482 14.28 20.1805C14.7477 19.7128 14.7477 18.9545 14.28 18.4868L12.8522 17.0598C12.6705 16.8832 12.4633 16.735 12.2376 16.62V14.7403C12.7533 14.5773 13.2303 14.3106 13.6391 13.9566L15.2354 14.9407C15.2154 15.1939 15.2334 15.4486 15.2888 15.6965L15.7565 17.66C15.9108 18.3031 16.5573 18.6993 17.2004 18.5451C17.8435 18.3908 18.2398 17.7444 18.0855 17.1013L17.6178 15.1378C17.6069 15.0937 17.6144 15.047 17.6386 15.0085C17.6611 14.9685 17.6993 14.9396 17.7439 14.9287L19.7066 14.461C20.3497 14.3067 20.746 13.6603 20.5917 13.0172C20.4374 12.374 19.791 11.9778 19.1478 12.132L19.1558 12.1384ZM11.0403 12.5495C10.1587 12.5495 9.44405 11.8348 9.44405 10.9532C9.44405 10.0716 10.1587 9.35694 11.0403 9.35694C11.9219 9.35694 12.6366 10.0716 12.6366 10.9532C12.6366 11.8348 11.9219 12.5495 11.0403 12.5495Z" fill="url(#paint0_linear_451_2434)"/>
<defs>
<linearGradient id="paint0_linear_451_2434" x1="11" y1="20.5313" x2="11" y2="1.375" gradientUnits="userSpaceOnUse">
<stop stop-color="#A93AFF"/>
<stop offset="1" stop-color="#FF81FF"/>
</linearGradient>
</defs>
</svg>
