<svg width="22" height="22" viewBox="0 0 22 22" fill="none" xmlns="http://www.w3.org/2000/svg">
<path d="M1.71429 1C1.3198 1 1 1.3198 1 1.71429C1 7.90476 1 14.0953 1 20.2857C1 20.6801 1.3198 21 1.71429 21H3.61904C4.01354 21 4.33333 20.6801 4.33333 20.2857V20.0476C4.33333 19.6531 4.01354 19.3333 3.61904 19.3333H3.38096C2.98646 19.3333 2.66667 19.0136 2.66667 18.619V10.0476C2.66667 9.65313 2.98646 9.33333 3.38096 9.33333H18.619C19.0136 9.33333 19.3333 9.65313 19.3333 10.0476V18.619C19.3333 19.0136 19.0136 19.3333 18.619 19.3333H18.381C17.9864 19.3333 17.6667 19.6531 17.6667 20.0476V20.2857C17.6667 20.6801 17.9864 21 18.381 21H20.2857C20.6801 21 21 20.6801 21 20.2857V19.3333V5.04761C21 4.65313 20.6801 4.33333 20.2857 4.33333H12.9756C12.7861 4.33333 12.6044 4.25807 12.4705 4.12413L9.35017 1.00381C9.34806 1.00171 9.34464 1.00171 9.34254 1.00381L9.33984 1.00651C9.33744 1.00891 9.33333 1.00721 9.33333 1.00381L9.32951 1H1.71429ZM2.66667 3.38096C2.66667 2.98646 2.98646 2.66667 3.38096 2.66667H8.63997C8.64831 2.66667 8.6563 2.66997 8.6622 2.67587L11.4812 5.49493C11.7602 5.77387 11.7602 6.22613 11.4812 6.50507L10.5289 7.45746C10.3949 7.59141 10.2132 7.66667 10.0238 7.66667H3.38096C2.98646 7.66667 2.66667 7.34687 2.66667 6.95239V3.38096ZM5.04761 4.33333C4.65313 4.33333 4.33333 4.65313 4.33333 5.04761V5.28571C4.33333 5.6802 4.65313 6 5.04761 6H7.6089C8.24526 6 8.56394 5.23061 8.11397 4.78064L7.87587 4.54254C7.74191 4.40859 7.56024 4.33333 7.3708 4.33333H5.04761ZM6.71429 14.3333C6.3198 14.3333 6 14.6531 6 15.0476C6 16.7937 6 18.5397 6 20.2857C6 20.6801 6.3198 21 6.71429 21H6.95239C7.34687 21 7.66667 20.6801 7.66667 20.2857V16.7143C7.66667 16.3199 7.98646 16 8.38096 16H13.619C14.0136 16 14.3333 16.3199 14.3333 16.7143V20.2857C14.3333 20.6801 14.6531 21 15.0476 21H15.2857C15.6801 21 16 20.6801 16 20.2857C16 18.5397 16 16.7937 16 15.0476C16 14.6531 15.6801 14.3333 15.2857 14.3333C12.4286 14.3333 9.57143 14.3333 6.71429 14.3333Z" fill="url(#paint0_linear_451_2454)"/>
<defs>
<linearGradient id="paint0_linear_451_2454" x1="11" y1="21" x2="11" y2="1" gradientUnits="userSpaceOnUse">
<stop stop-color="#A93AFF"/>
<stop offset="1" stop-color="#FF81FF"/>
</linearGradient>
</defs>
</svg>
