<svg width="22" height="22" viewBox="0 0 22 22" fill="none" xmlns="http://www.w3.org/2000/svg">
<path d="M18.7914 14.6669H15.1247C15.0031 14.6669 14.8866 14.7152 14.8006 14.8011C14.7146 14.8871 14.6663 15.0036 14.6663 15.1252C14.6663 15.2468 14.7146 15.3633 14.8006 15.4493C14.8866 15.5353 15.0031 15.5836 15.1247 15.5836H17.8526C17.1013 16.7087 16.0845 17.6318 14.8921 18.2712C13.6997 18.9107 12.3683 19.2469 11.0153 19.2502C9.821 19.251 8.64079 18.9927 7.55595 18.4932C6.47116 17.9938 5.50759 17.265 4.7317 16.3571C3.95582 15.4492 3.38609 14.3839 3.06178 13.2344C2.73748 12.0851 2.66634 10.879 2.85326 9.69946C2.86783 9.58193 2.83635 9.46334 2.7654 9.36852C2.69446 9.27368 2.58957 9.21 2.47271 9.1908C2.35585 9.17158 2.23611 9.19839 2.13855 9.26551C2.04099 9.33268 1.97322 9.43495 1.94942 9.55096C1.87172 10.0301 1.83279 10.5148 1.83301 11.0002C1.83851 16.0602 5.93969 20.1613 10.9997 20.1668C12.4226 20.1663 13.8258 19.8349 15.0986 19.1986C16.3713 18.5625 17.4786 17.639 18.333 16.5011V18.7928C18.333 18.9143 18.3813 19.0309 18.4672 19.1168C18.5532 19.2029 18.6697 19.251 18.7914 19.251C18.9129 19.251 19.0294 19.2029 19.1154 19.1168C19.2013 19.0309 19.2496 18.9143 19.2496 18.7928V15.1243C19.2494 15.0029 19.201 14.8866 19.115 14.8008C19.0291 14.715 18.9127 14.6669 18.7914 14.6669ZM15.3419 2.92987C11.293 0.750046 6.34394 1.93162 3.66635 5.50296V3.20855C3.66635 3.08698 3.61805 2.9704 3.5321 2.88445C3.44614 2.79849 3.32956 2.75021 3.20801 2.75021C3.08646 2.75021 2.96988 2.79849 2.88392 2.88445C2.79797 2.9704 2.74967 3.08698 2.74967 3.20855V6.87521C2.74967 6.99676 2.79797 7.11334 2.88392 7.19932C2.96988 7.28525 3.08646 7.33355 3.20801 7.33355H6.87469C6.99624 7.33355 7.11282 7.28525 7.19876 7.19932C7.28473 7.11334 7.33303 6.99676 7.33303 6.87521C7.33303 6.75364 7.28473 6.63708 7.19876 6.55114C7.11282 6.46515 6.99624 6.41686 6.87469 6.41686H4.14667C4.89807 5.29168 5.91485 4.36867 7.10723 3.72921C8.29965 3.08977 9.63105 2.75355 10.9841 2.75021C12.1784 2.74951 13.3588 3.00787 14.4436 3.50751C15.5285 4.00715 16.492 4.73614 17.2679 5.64424C18.0436 6.55234 18.6132 7.61792 18.9373 8.76747C19.2615 9.917 19.3323 11.1232 19.1451 12.3028C19.1355 12.3622 19.1377 12.4229 19.1515 12.4815C19.1654 12.5401 19.1907 12.5953 19.2259 12.6441C19.261 12.693 19.3055 12.7344 19.3567 12.766C19.4079 12.7976 19.4648 12.8189 19.5243 12.8285C19.5836 12.8382 19.6444 12.836 19.7029 12.8221C19.7615 12.8083 19.8168 12.7831 19.8656 12.7479C19.9144 12.7127 19.9559 12.6682 19.9875 12.617C20.0191 12.5658 20.0402 12.5089 20.0499 12.4495C20.1276 11.9703 20.1666 11.4856 20.1664 11.0002C20.165 9.34492 19.7159 7.72079 18.8667 6.29998C18.0173 4.87923 16.7994 3.71469 15.3419 2.92987Z" fill="url(#paint0_linear_451_2449)" stroke="url(#paint1_linear_451_2449)" stroke-width="1.6"/>
<path fill-rule="evenodd" clip-rule="evenodd" d="M13.75 11C13.75 10.2706 13.4603 9.5712 12.9446 9.05544C12.4288 8.53973 11.7294 8.25 11 8.25C10.2706 8.25 9.57115 8.53973 9.05544 9.05544C8.53973 9.5712 8.25 10.2706 8.25 11C8.25 11.7294 8.53973 12.4288 9.05544 12.9446C9.57115 13.4603 10.2706 13.75 11 13.75C11.7294 13.75 12.4288 13.4603 12.9446 12.9446C13.4603 12.4288 13.75 11.7294 13.75 11ZM9.16664 11C9.16664 10.5138 9.35985 10.0475 9.70363 9.70363C10.0475 9.35985 10.5138 9.16664 11 9.16664C11.4862 9.16664 11.9525 9.35985 12.2964 9.70363C12.6402 10.0475 12.8333 10.5138 12.8333 11C12.8333 11.4862 12.6402 11.9525 12.2964 12.2964C11.9525 12.6402 11.4862 12.8333 11 12.8333C10.5138 12.8333 10.0475 12.6402 9.70363 12.2964C9.35985 11.9525 9.16664 11.4862 9.16664 11Z" fill="url(#paint2_linear_451_2449)" stroke="url(#paint3_linear_451_2449)" stroke-width="2"/>
<defs>
<linearGradient id="paint0_linear_451_2449" x1="10.9997" y1="20.1668" x2="10.9997" y2="1.83398" gradientUnits="userSpaceOnUse">
<stop stop-color="#A93AFF"/>
<stop offset="1" stop-color="#FF81FF"/>
</linearGradient>
<linearGradient id="paint1_linear_451_2449" x1="10.9997" y1="20.1668" x2="10.9997" y2="1.83398" gradientUnits="userSpaceOnUse">
<stop stop-color="#A93AFF"/>
<stop offset="1" stop-color="#FF81FF"/>
</linearGradient>
<linearGradient id="paint2_linear_451_2449" x1="11" y1="8.25" x2="11" y2="13.75" gradientUnits="userSpaceOnUse">
<stop stop-color="#DC18FC"/>
<stop offset="1" stop-color="#8E1EFF"/>
</linearGradient>
<linearGradient id="paint3_linear_451_2449" x1="11" y1="8.25" x2="11" y2="13.75" gradientUnits="userSpaceOnUse">
<stop stop-color="#DC18FC"/>
<stop offset="1" stop-color="#8E1EFF"/>
</linearGradient>
</defs>
</svg>
