<svg width="16" height="16" viewBox="0 0 16 16" fill="none" xmlns="http://www.w3.org/2000/svg">
<path d="M0.778352 3.71645C0.967055 3.49014 1.23791 3.34801 1.53138 3.32135C1.82484 3.29466 2.11687 3.38561 2.3433 3.5742L2.75379 3.91504C3.65037 4.66194 4.41358 5.29769 4.94115 5.88306C5.50281 6.50548 5.94 7.21832 5.94 8.13263C5.94 9.04702 5.50281 9.76136 4.94115 10.3822C4.41358 10.9677 3.65037 11.6034 2.75379 12.3503L2.3433 12.6911C2.23176 12.7887 2.10183 12.8629 1.96114 12.9097C1.82046 12.9562 1.67187 12.9742 1.52412 12.9627C1.37638 12.951 1.23247 12.91 1.10083 12.8418C0.969185 12.7737 0.852496 12.68 0.757611 12.5661C0.662742 12.4523 0.591597 12.3207 0.548347 12.1788C0.505111 12.0372 0.49067 11.8881 0.505846 11.7407C0.521038 11.5933 0.565563 11.4504 0.636798 11.3204C0.708017 11.1905 0.804521 11.0761 0.920625 10.9838L1.26739 10.695C2.244 9.87994 2.88272 9.34636 3.29174 8.89296C3.68002 8.46315 3.71706 8.2601 3.71706 8.13263C3.71706 8.00524 3.68002 7.80369 3.29174 7.37238C2.88124 6.91899 2.244 6.38401 1.26739 5.57038L0.920625 5.28139C0.69431 5.09269 0.552186 4.82183 0.525507 4.52838C0.498828 4.23492 0.589768 3.94287 0.778352 3.71645ZM15.5 11.8064C15.5 12.1012 15.3829 12.3839 15.1744 12.5923C14.966 12.8008 14.6833 12.9179 14.3884 12.9179H8.47839C8.18366 12.9179 7.90093 12.8008 7.69247 12.5923C7.48402 12.3839 7.36694 12.1012 7.36694 11.8064C7.36694 11.5117 7.48402 11.229 7.69247 11.0205C7.90093 10.8121 8.18366 10.695 8.47839 10.695H14.3884C14.6833 10.695 14.966 10.8121 15.1744 11.0205C15.3829 11.229 15.5 11.5117 15.5 11.8064Z" fill="url(#paint0_linear_623_74)"/>
<path d="M15.1744 5.09758C15.3829 4.88912 15.5 4.60644 15.5 4.3116C15.5 4.01692 15.3829 3.73423 15.1744 3.52577C14.966 3.31732 14.6833 3.2002 14.3884 3.2002H8.47839C8.18366 3.2002 7.90093 3.31732 7.69247 3.52577C7.48402 3.73423 7.36694 4.01692 7.36694 4.3116C7.36694 4.60644 7.48402 4.88912 7.69247 5.09758C7.90093 5.30603 8.18366 5.42316 8.47839 5.42316H14.3884C14.6833 5.42316 14.966 5.30603 15.1744 5.09758Z" fill="url(#paint1_linear_623_74)"/>
<path d="M15.1744 8.71367C15.3829 8.50522 15.5 8.22253 15.5 7.9277C15.5 7.63301 15.3829 7.35032 15.1744 7.14187C14.966 6.93341 14.6833 6.81629 14.3884 6.81629H10.0044C9.70965 6.81629 9.42691 6.93341 9.21846 7.14187C9.01 7.35032 8.89292 7.63301 8.89292 7.9277C8.89292 8.22253 9.01 8.50522 9.21846 8.71367C9.42691 8.92213 9.70965 9.03925 10.0044 9.03925H14.3884C14.6833 9.03925 14.966 8.92213 15.1744 8.71367Z" fill="url(#paint2_linear_623_74)"/>
<path d="M0.778352 3.71645C0.967055 3.49014 1.23791 3.34801 1.53138 3.32135C1.82484 3.29466 2.11687 3.38561 2.3433 3.5742L2.75379 3.91504C3.65037 4.66194 4.41358 5.29769 4.94115 5.88306C5.50281 6.50548 5.94 7.21832 5.94 8.13263C5.94 9.04702 5.50281 9.76136 4.94115 10.3822C4.41358 10.9677 3.65037 11.6034 2.75379 12.3503L2.3433 12.6911C2.23176 12.7887 2.10183 12.8629 1.96114 12.9097C1.82046 12.9562 1.67187 12.9742 1.52412 12.9627C1.37638 12.951 1.23247 12.91 1.10083 12.8418C0.969185 12.7737 0.852496 12.68 0.757611 12.5661C0.662742 12.4523 0.591597 12.3207 0.548347 12.1788C0.505111 12.0372 0.49067 11.8881 0.505846 11.7407C0.521038 11.5933 0.565563 11.4504 0.636798 11.3204C0.708017 11.1905 0.804521 11.0761 0.920625 10.9838L1.26739 10.695C2.244 9.87994 2.88272 9.34636 3.29174 8.89296C3.68002 8.46315 3.71706 8.2601 3.71706 8.13263C3.71706 8.00524 3.68002 7.80369 3.29174 7.37238C2.88124 6.91899 2.244 6.38401 1.26739 5.57038L0.920625 5.28139C0.69431 5.09269 0.552186 4.82183 0.525507 4.52838C0.498828 4.23492 0.589768 3.94287 0.778352 3.71645ZM15.5 11.8064C15.5 12.1012 15.3829 12.3839 15.1744 12.5923C14.966 12.8008 14.6833 12.9179 14.3884 12.9179H8.47839C8.18366 12.9179 7.90093 12.8008 7.69247 12.5923C7.48402 12.3839 7.36694 12.1012 7.36694 11.8064C7.36694 11.5117 7.48402 11.229 7.69247 11.0205C7.90093 10.8121 8.18366 10.695 8.47839 10.695H14.3884C14.6833 10.695 14.966 10.8121 15.1744 11.0205C15.3829 11.229 15.5 11.5117 15.5 11.8064Z" stroke="url(#paint3_linear_623_74)" stroke-width="0.2"/>
<path d="M15.1744 5.09758C15.3829 4.88912 15.5 4.60644 15.5 4.3116C15.5 4.01692 15.3829 3.73423 15.1744 3.52577C14.966 3.31732 14.6833 3.2002 14.3884 3.2002H8.47839C8.18366 3.2002 7.90093 3.31732 7.69247 3.52577C7.48402 3.73423 7.36694 4.01692 7.36694 4.3116C7.36694 4.60644 7.48402 4.88912 7.69247 5.09758C7.90093 5.30603 8.18366 5.42316 8.47839 5.42316H14.3884C14.6833 5.42316 14.966 5.30603 15.1744 5.09758Z" stroke="url(#paint4_linear_623_74)" stroke-width="0.2"/>
<path d="M15.1744 8.71367C15.3829 8.50522 15.5 8.22253 15.5 7.9277C15.5 7.63301 15.3829 7.35032 15.1744 7.14187C14.966 6.93341 14.6833 6.81629 14.3884 6.81629H10.0044C9.70965 6.81629 9.42691 6.93341 9.21846 7.14187C9.01 7.35032 8.89292 7.63301 8.89292 7.9277C8.89292 8.22253 9.01 8.50522 9.21846 8.71367C9.42691 8.92213 9.70965 9.03925 10.0044 9.03925H14.3884C14.6833 9.03925 14.966 8.92213 15.1744 8.71367Z" stroke="url(#paint5_linear_623_74)" stroke-width="0.2"/>
<defs>
<linearGradient id="paint0_linear_623_74" x1="8" y1="12.9661" x2="8" y2="3.2002" gradientUnits="userSpaceOnUse">
<stop stop-color="#A93AFF"/>
<stop offset="1" stop-color="#FF81FF"/>
</linearGradient>
<linearGradient id="paint1_linear_623_74" x1="8" y1="12.9661" x2="8" y2="3.2002" gradientUnits="userSpaceOnUse">
<stop stop-color="#A93AFF"/>
<stop offset="1" stop-color="#FF81FF"/>
</linearGradient>
<linearGradient id="paint2_linear_623_74" x1="8" y1="12.9661" x2="8" y2="3.2002" gradientUnits="userSpaceOnUse">
<stop stop-color="#A93AFF"/>
<stop offset="1" stop-color="#FF81FF"/>
</linearGradient>
<linearGradient id="paint3_linear_623_74" x1="8" y1="12.9661" x2="8" y2="3.2002" gradientUnits="userSpaceOnUse">
<stop stop-color="#A93AFF"/>
<stop offset="1" stop-color="#FF81FF"/>
</linearGradient>
<linearGradient id="paint4_linear_623_74" x1="8" y1="12.9661" x2="8" y2="3.2002" gradientUnits="userSpaceOnUse">
<stop stop-color="#A93AFF"/>
<stop offset="1" stop-color="#FF81FF"/>
</linearGradient>
<linearGradient id="paint5_linear_623_74" x1="8" y1="12.9661" x2="8" y2="3.2002" gradientUnits="userSpaceOnUse">
<stop stop-color="#A93AFF"/>
<stop offset="1" stop-color="#FF81FF"/>
</linearGradient>
</defs>
</svg>
