<svg width="16" height="16" viewBox="0 0 16 16" fill="none" xmlns="http://www.w3.org/2000/svg">
<path d="M14.7531 15.2727C15.04 15.2727 15.2726 15.0401 15.2726 14.7532V1.24676C15.2726 0.959919 15.04 0.727264 14.7531 0.727264H12.1557C11.8688 0.727264 11.6363 0.959919 11.6363 1.24676V1.41992C11.6363 1.70683 11.8688 1.93941 12.1557 1.93941H13.541C13.8279 1.93941 14.0605 2.17192 14.0605 2.4589V12.329C14.0605 12.6159 13.8279 12.8485 13.541 12.8485H2.45881C2.27642 12.8485 2.27642 10.6159 2.27642 10.329V10.1558C2.27642 9.86894 2.04384 9.63636 1.75693 9.63636H1.24666C0.959828 9.63636 0.727173 9.86894 0.727173 10.1558V14.7532C0.727173 15.0401 0.959828 15.2727 1.24666 15.2727H14.7531ZM9.90466 7.42423C10.1916 7.42423 10.4241 7.19166 10.4241 6.90475V1.24676C10.4241 0.959919 10.1916 0.727264 9.90466 0.727264H1.24666C0.959828 0.727264 0.727173 0.959919 0.727173 1.24676V6.90475C0.727173 7.19166 0.959828 7.42423 1.24666 7.42423H9.90466ZM9.21202 5.4805C9.21202 5.76741 8.97944 5.99999 8.69255 5.99999H2.45881C2.17183 5.99999 1.93932 5.76741 1.93932 5.4805V3.4589C1.93932 3.17192 2.17183 2.93941 2.45881 2.93941H8.69255C8.97944 2.93941 9.21202 3.17192 9.21202 3.4589V5.4805Z" fill="url(#paint0_linear_164_142)"/>
<defs>
<linearGradient id="paint0_linear_164_142" x1="7.9999" y1="15.2727" x2="7.9999" y2="0.727264" gradientUnits="userSpaceOnUse">
<stop stop-color="#00B59C"/>
<stop offset="1" stop-color="#9CFFAC"/>
</linearGradient>
</defs>
</svg>
