<svg width="22" height="22" viewBox="0 0 22 22" fill="none" xmlns="http://www.w3.org/2000/svg">
<path d="M2.70089 2.0625C2.34832 2.0625 2.0625 2.34832 2.0625 2.70089V19.2991C2.0625 19.6516 2.34832 19.9375 2.70089 19.9375H10.3616C10.7142 19.9375 11 19.6516 11 19.2991V19.0862C11 18.7338 10.7142 18.4479 10.3616 18.4479H4.19048C3.83789 18.4479 3.55209 18.1621 3.55209 17.8095V4.19048C3.55209 3.83789 3.83789 3.55209 4.19048 3.55209H7.38244C7.73499 3.55209 8.02086 3.83789 8.02086 4.19048V5.89286C8.02086 6.24543 8.30665 6.53125 8.6592 6.53125H15.4688H17.8095C18.1621 6.53125 18.4479 6.81707 18.4479 7.16966V10.3616C18.4479 10.7142 18.7338 11 19.0862 11H19.2991C19.6516 11 19.9375 10.7142 19.9375 10.3616V5.68006C19.9375 5.32749 19.6516 5.04166 19.2991 5.04166H16.1072C15.7546 5.04166 15.4688 4.75586 15.4688 4.40327V2.70089C15.4688 2.34832 15.1829 2.0625 14.8303 2.0625H13.9791H8.02086H2.70089ZM16.1072 12.4896C15.7546 12.4896 15.4688 12.7754 15.4688 13.1279V14.8303C15.4688 15.1829 15.1829 15.4688 14.8303 15.4688H13.1279C12.7754 15.4688 12.4896 15.7546 12.4896 16.1072V16.32C12.4896 16.6725 12.7754 16.9584 13.1279 16.9584H14.8303C15.1829 16.9584 15.4688 17.2442 15.4688 17.5968V19.2991C15.4688 19.6516 15.7546 19.9375 16.1072 19.9375H16.32C16.6725 19.9375 16.9584 19.6516 16.9584 19.2991V17.5968C16.9584 17.2442 17.2442 16.9584 17.5968 16.9584H19.2991C19.6516 16.9584 19.9375 16.6725 19.9375 16.32V16.1072C19.9375 15.7546 19.6516 15.4688 19.2991 15.4688H17.5968C17.2442 15.4688 16.9584 15.1829 16.9584 14.8303V13.1279C16.9584 12.7754 16.6725 12.4896 16.32 12.4896H16.1072Z" fill="url(#paint0_linear_451_2424)" stroke="url(#paint1_linear_451_2424)" stroke-width="0.6"/>
<defs>
<linearGradient id="paint0_linear_451_2424" x1="11" y1="19.9375" x2="11" y2="2.0625" gradientUnits="userSpaceOnUse">
<stop stop-color="#5570FF"/>
<stop offset="1" stop-color="#4DD3FF"/>
</linearGradient>
<linearGradient id="paint1_linear_451_2424" x1="11" y1="19.9375" x2="11" y2="2.0625" gradientUnits="userSpaceOnUse">
<stop stop-color="#5570FF"/>
<stop offset="1" stop-color="#4DD3FF"/>
</linearGradient>
</defs>
</svg>
