<svg width="22" height="22" viewBox="0 0 22 22" fill="none" xmlns="http://www.w3.org/2000/svg">
<path d="M11.8412 17.25C11.4408 17.6501 10.898 17.875 10.332 17.875C9.76601 17.875 9.22316 17.6501 8.82289 17.25L5.43747 13.8647C5.0373 13.4643 4.8125 12.9215 4.8125 12.3555C4.8125 11.7895 5.0373 11.2467 5.43747 10.8464L13.2211 3.06271C13.4212 2.86254 13.6927 2.75006 13.9757 2.75H17.803C18.3691 2.75 18.912 2.97489 19.3123 3.3752C19.7126 3.7755 19.9375 4.31844 19.9375 4.88455V8.71179C19.9374 8.99484 19.825 9.26626 19.6248 9.46639L17.803 11.2623" stroke="url(#paint0_linear_451_2419)" stroke-width="2" stroke-linecap="round" stroke-linejoin="round"/>
<path d="M7.36361 16.2904L6.49989 16.8663C6.26011 17.0261 5.98731 17.1297 5.70188 17.1694C5.41646 17.209 5.12576 17.1836 4.85151 17.0951C4.57725 17.0066 4.32653 16.8574 4.11807 16.6584C3.90961 16.4594 3.74879 16.2159 3.64761 15.9462L2.18417 12.0436C2.02716 11.6247 2.02196 11.164 2.16944 10.7416C2.31694 10.3192 2.6078 9.96188 2.99146 9.73177L11.1886 4.8125" stroke="url(#paint1_linear_451_2419)" stroke-width="2" stroke-linecap="round" stroke-linejoin="round"/>
<path d="M17.875 6.87499C17.875 5.73591 16.9515 4.8125 15.8124 4.8125C14.6734 4.8125 13.75 5.73591 13.75 6.87499C13.75 8.01405 14.6734 8.9375 15.8124 8.9375C16.9515 8.9375 17.875 8.01405 17.875 6.87499Z" fill="url(#paint2_linear_451_2419)"/>
<path d="M18.6154 13.4856C18.9659 13.4856 19.25 13.7697 19.25 14.1202V14.7548C19.25 15.1053 18.9659 15.3894 18.6154 15.3894H16.7115C16.3611 15.3894 16.0769 15.6736 16.0769 16.024V17.9279C16.0769 18.2784 15.7928 18.5625 15.4423 18.5625H14.8077C14.4572 18.5625 14.1731 18.2784 14.1731 17.9279V16.024C14.1731 15.6736 13.8889 15.3894 13.5385 15.3894H11.6346C11.2841 15.3894 11 15.1053 11 14.7548V14.1202C11 13.7697 11.2841 13.4856 11.6346 13.4856H13.5385C13.8889 13.4856 14.1731 13.2014 14.1731 12.851V10.9471C14.1731 10.5966 14.4572 10.3125 14.8077 10.3125H15.4423C15.7928 10.3125 16.0769 10.5966 16.0769 10.9471V12.851C16.0769 13.2014 16.3611 13.4856 16.7115 13.4856H18.6154Z" fill="url(#paint3_linear_451_2419)" stroke="url(#paint4_linear_451_2419)" stroke-width="0.6"/>
<defs>
<linearGradient id="paint0_linear_451_2419" x1="12.375" y1="17.875" x2="12.375" y2="2.75" gradientUnits="userSpaceOnUse">
<stop stop-color="#5570FF"/>
<stop offset="1" stop-color="#4DD3FF"/>
</linearGradient>
<linearGradient id="paint1_linear_451_2419" x1="6.62555" y1="17.1875" x2="6.62555" y2="4.8125" gradientUnits="userSpaceOnUse">
<stop stop-color="#5570FF"/>
<stop offset="1" stop-color="#4DD3FF"/>
</linearGradient>
<linearGradient id="paint2_linear_451_2419" x1="7.5625" y1="17.5312" x2="15.8124" y2="4.8125" gradientUnits="userSpaceOnUse">
<stop stop-color="#5570FF"/>
<stop offset="1" stop-color="#4DD3FF"/>
</linearGradient>
<linearGradient id="paint3_linear_451_2419" x1="15.125" y1="18.5625" x2="15.125" y2="10.3125" gradientUnits="userSpaceOnUse">
<stop stop-color="#02AA93"/>
<stop offset="1" stop-color="#67FF80"/>
</linearGradient>
<linearGradient id="paint4_linear_451_2419" x1="15.125" y1="18.5625" x2="15.125" y2="10.3125" gradientUnits="userSpaceOnUse">
<stop stop-color="#02AA93"/>
<stop offset="1" stop-color="#67FF80"/>
</linearGradient>
</defs>
</svg>
