<svg width="22" height="22" viewBox="0 0 22 22" fill="none" xmlns="http://www.w3.org/2000/svg">
<path d="M16.1053 8.9948C16.4244 8.9948 16.7304 8.86803 16.9561 8.64239C17.1817 8.41679 17.3084 8.11075 17.3084 7.79168V7.24065C17.307 6.11088 16.8575 5.02782 16.0587 4.22895C15.2598 3.4301 14.1767 2.98065 13.047 2.97917H12.4387C12.2488 2.97917 12.0949 2.82526 12.0949 2.63542V2.57812C12.0949 2.25904 11.9681 1.95302 11.7425 1.72739C11.5169 1.50176 11.2109 1.375 10.8918 1.375C10.5727 1.375 10.2667 1.50176 10.041 1.72739C9.8154 1.95302 9.68866 2.25904 9.68866 2.57812V2.63542C9.68866 2.82526 9.53477 2.97917 9.34491 2.97917H8.73658C7.71351 2.97764 6.72403 3.34423 5.9489 4.01194C5.17378 4.67967 4.66476 5.60398 4.51478 6.61602C4.36483 7.62805 4.58398 8.66023 5.13215 9.52404C5.68037 10.3879 6.52101 11.0256 7.50056 11.3208L9.43556 11.85C9.58502 11.8909 9.68866 12.0266 9.68866 12.1816V16.2708C9.68866 16.4607 9.53477 16.6146 9.34491 16.6146H8.73658C8.24474 16.614 7.77322 16.4183 7.42545 16.0705C7.07768 15.7227 6.88201 15.2512 6.88136 14.7594V14.2083C6.88136 13.8893 6.75462 13.5832 6.52898 13.3576C6.30334 13.132 5.99734 13.0052 5.67823 13.0052C5.35913 13.0052 5.05313 13.132 4.82749 13.3576C4.60188 13.5832 4.47511 13.8893 4.47511 14.2083V14.7594C4.47659 15.8891 4.92604 16.9722 5.72492 17.7711C6.52376 18.5699 7.60681 19.0193 8.73658 19.0208H9.34491C9.53477 19.0208 9.68866 19.1747 9.68866 19.3646V19.4219C9.68866 19.741 9.8154 20.047 10.041 20.2726C10.2667 20.4982 10.5727 20.625 10.8918 20.625C11.2109 20.625 11.5169 20.4982 11.7425 20.2726C11.9681 20.047 12.0949 19.741 12.0949 19.4219V19.3646C12.0949 19.1747 12.2488 19.0208 12.4387 19.0208H13.047C14.0701 19.0224 15.0595 18.6558 15.8346 17.988C16.6098 17.3203 17.1188 16.396 17.2688 15.384C17.4187 14.3719 17.1996 13.3398 16.6514 12.476C16.1032 11.6122 15.2625 10.9744 14.283 10.6792L12.3482 10.1515C12.1987 10.1107 12.0949 9.97487 12.0949 9.81987V5.72918C12.0949 5.53933 12.2488 5.38543 12.4387 5.38543H13.047C13.5388 5.38605 14.0103 5.58171 14.3581 5.92952C14.7059 6.27729 14.9016 6.74881 14.9022 7.24065V7.79168C14.9022 8.11075 15.029 8.41679 15.2546 8.64239C15.4802 8.86803 15.7862 8.9948 16.1053 8.9948ZM13.6044 12.9884C14.0275 13.1217 14.3889 13.4022 14.6231 13.779C14.8572 14.1559 14.9486 14.6041 14.8807 15.0426C14.8128 15.481 14.5902 15.8806 14.253 16.169C13.9159 16.4574 13.4866 16.6154 13.043 16.6146H12.4387C12.2488 16.6146 12.0949 16.4607 12.0949 16.2708V13.0263C12.0949 12.7996 12.3105 12.635 12.5292 12.6947L13.6044 12.9884ZM9.68866 8.9737C9.68866 9.2004 9.47303 9.36502 9.25433 9.30528L8.17912 9.01165C7.75634 8.87838 7.39516 8.59822 7.16103 8.22181C6.92687 7.84537 6.83516 7.3976 6.90253 6.95942C6.96988 6.52128 7.19183 6.12171 7.52823 5.83299C7.86466 5.54428 8.29328 5.38553 8.73658 5.38543H9.34491C9.53477 5.38543 9.68866 5.53933 9.68866 5.72918V8.9737Z" fill="url(#paint0_linear_451_2413)"/>
<defs>
<linearGradient id="paint0_linear_451_2413" x1="10.8918" y1="20.625" x2="10.8918" y2="1.375" gradientUnits="userSpaceOnUse">
<stop stop-color="#02AA93"/>
<stop offset="1" stop-color="#67FF80"/>
</linearGradient>
</defs>
</svg>
