<svg width="16" height="16" viewBox="0 0 16 16" fill="none" xmlns="http://www.w3.org/2000/svg">
<path d="M1 8C1 4.9359 1 3.40385 2.0248 2.4516C3.051 1.5 4.7002 1.5 8 1.5C11.2998 1.5 12.9497 1.5 13.9745 2.4516C15 3.4045 15 4.9359 15 8C15 11.0641 15 12.5961 13.9745 13.5477C12.9504 14.5 11.2998 14.5 8 14.5C4.7002 14.5 3.0503 14.5 2.0248 13.5477C1 12.5968 1 11.0641 1 8Z" stroke="url(#paint0_linear_171_316)" stroke-width="1.6"/>
<path d="M3.18561 5.26651C3.31144 5.1156 3.49205 5.02083 3.68774 5.00305C3.88342 4.98525 4.07815 5.0459 4.22914 5.17165L4.50286 5.39893C5.10071 5.89697 5.60963 6.3209 5.96142 6.71123C6.33594 7.12627 6.62746 7.6016 6.62746 8.21127C6.62746 8.821 6.33594 9.29733 5.96142 9.71133C5.60963 10.1017 5.10071 10.5256 4.50286 11.0237L4.22914 11.2509C4.15476 11.316 4.06812 11.3655 3.97431 11.3967C3.8805 11.4277 3.78142 11.4397 3.6829 11.432C3.58438 11.4242 3.48842 11.3969 3.40064 11.3514C3.31286 11.306 3.23505 11.2435 3.17178 11.1676C3.10852 11.0917 3.06108 11.0039 3.03224 10.9093C3.00341 10.8149 2.99378 10.7155 3.0039 10.6172C3.01403 10.5189 3.04372 10.4236 3.09122 10.3369C3.13871 10.2503 3.20306 10.174 3.28048 10.1125L3.51171 9.91987C4.16292 9.3764 4.58883 9.0206 4.86157 8.71827C5.12048 8.43167 5.14518 8.29627 5.14518 8.21127C5.14518 8.12633 5.12048 7.99193 4.86157 7.70433C4.58784 7.402 4.16292 7.04527 3.51171 6.50273L3.28048 6.31003C3.12957 6.1842 3.0348 6.00359 3.01701 5.80791C2.99922 5.61223 3.05986 5.41749 3.18561 5.26651ZM12.6667 10.6817C12.6667 10.8783 12.5886 11.0668 12.4496 11.2058C12.3106 11.3448 12.1221 11.4229 11.9255 11.4229H7.9846C7.78807 11.4229 7.59954 11.3448 7.46054 11.2058C7.32154 11.0668 7.24347 10.8783 7.24347 10.6817C7.24347 10.4852 7.32154 10.2967 7.46054 10.1577C7.59954 10.0187 7.78807 9.9406 7.9846 9.9406H11.9255C12.1221 9.9406 12.3106 10.0187 12.4496 10.1577C12.5886 10.2967 12.6667 10.4852 12.6667 10.6817Z" fill="url(#paint1_linear_171_316)"/>
<defs>
<linearGradient id="paint0_linear_171_316" x1="8" y1="1.5" x2="8" y2="14.5" gradientUnits="userSpaceOnUse">
<stop stop-color="#DC18FC"/>
<stop offset="1" stop-color="#8E1EFF"/>
</linearGradient>
<linearGradient id="paint1_linear_171_316" x1="7.83333" y1="11.4343" x2="7.83333" y2="5" gradientUnits="userSpaceOnUse">
<stop stop-color="#FD5900"/>
<stop offset="1" stop-color="#FFDE00"/>
</linearGradient>
</defs>
</svg>
