<svg width="16" height="16" viewBox="0 0 16 16" fill="none" xmlns="http://www.w3.org/2000/svg">
<path fill-rule="evenodd" clip-rule="evenodd" d="M14.3529 10.8416V9.23529H12.0903C11.8972 9.23529 11.8006 9.23529 11.7193 9.24338C10.9386 9.32104 10.321 9.93861 10.2434 10.7193C10.2353 10.8006 10.2353 10.8972 10.2353 11.0903C10.2353 11.3207 10.2353 11.4358 10.2455 11.5273C10.345 12.4148 11.1337 13.0614 12.0235 12.9849C12.1152 12.977 12.2281 12.9544 12.454 12.9092L12.6979 12.8604C13.0112 12.7978 13.1679 12.7664 13.3001 12.7153C13.8395 12.5067 14.2299 12.0304 14.3287 11.4605C14.3529 11.3209 14.3529 11.1611 14.3529 10.8416ZM6.11765 12.4886V10.8824H3.85496C3.66189 10.8824 3.56535 10.8824 3.48404 10.8904C2.70332 10.9681 2.08574 11.5857 2.00809 12.3664C2 12.4477 2 12.5442 2 12.7373C2 12.9677 2 13.0829 2.01025 13.1743C2.1097 14.0619 2.89839 14.7084 3.7882 14.6319C3.87985 14.624 3.99289 14.6014 4.21875 14.5563L4.46259 14.5075C4.77592 14.4448 4.93258 14.4135 5.06476 14.3624C5.60418 14.1537 5.99463 13.6774 6.09344 13.1076C6.11765 12.9679 6.11765 12.8082 6.11765 12.4886Z" fill="url(#paint0_linear_557_234)"/>
<path d="M6.11765 10.8824V6.76471M6.11765 10.8824V12.4886M6.11765 10.8824H3.85496M14.3529 9.23529V5.11765M14.3529 9.23529V10.8416M14.3529 9.23529H12.0903M14.3529 5.11765L6.11765 6.76471M14.3529 5.11765C14.3529 5.11765 14.3529 2.22956 13.7501 1.73535C13.1473 1.24114 12.2358 1.42343 10.4128 1.78803M14.3529 5.11765V5.01818C14.3529 3.34196 14.3529 2.50384 13.8896 1.99012C13.7686 1.85598 13.6282 1.74082 13.4729 1.64851C12.8783 1.29493 12.0565 1.4593 10.4128 1.78803V1.78803M6.11765 6.76471V5.34759M6.11765 5.34759C6.11765 4.05485 6.11765 3.40848 6.49097 2.95311C6.86428 2.49773 7.4981 2.37097 8.76574 2.11744M6.11765 5.34759V5.34759C6.11765 4.17943 6.11765 3.59534 6.40223 3.15136C6.47788 3.03333 6.56707 2.92455 6.66797 2.82722C7.04752 2.46108 7.62026 2.34654 8.76574 2.11744V2.11744M6.11765 5.34759V12.4886M8.76574 2.11744L10.4128 1.78803M14.3529 10.8416C14.3529 11.1611 14.3529 11.3209 14.3287 11.4605C14.2299 12.0304 13.8395 12.5067 13.3001 12.7153C13.1679 12.7664 13.0112 12.7978 12.6979 12.8604M14.3529 10.8416V10.8416C14.3529 11.0423 14.3529 11.1427 14.3442 11.2312C14.2726 11.9543 13.7732 12.5634 13.0782 12.7754C12.9931 12.8014 12.8947 12.8211 12.6979 12.8604V12.8604M12.6979 12.8604L12.454 12.9092M12.454 12.9092C12.2281 12.9544 12.1152 12.977 12.0235 12.9849C11.1337 13.0614 10.345 12.4148 10.2455 11.5273C10.2353 11.4358 10.2353 11.3207 10.2353 11.0903M12.454 12.9092V12.9092C12.3943 12.9211 12.3645 12.9271 12.3405 12.9312C11.2599 13.1172 10.2655 12.302 10.236 11.2059C10.2353 11.1816 10.2353 11.1511 10.2353 11.0903V11.0903M10.2353 11.0903C10.2353 10.8972 10.2353 10.8006 10.2434 10.7193C10.321 9.93861 10.9386 9.32104 11.7193 9.24338C11.8006 9.23529 11.8972 9.23529 12.0903 9.23529M10.2353 11.0903V11.0903C10.2353 11.0392 10.2353 11.0137 10.2358 10.9921C10.2588 10.0318 11.0318 9.25884 11.9921 9.23581C12.0137 9.23529 12.0392 9.23529 12.0903 9.23529V9.23529M6.11765 12.4886C6.11765 12.8082 6.11765 12.9679 6.09344 13.1076C5.99463 13.6774 5.60418 14.1537 5.06476 14.3624C4.93258 14.4135 4.77592 14.4448 4.46259 14.5075M6.11765 12.4886V12.4886C6.11765 12.6894 6.11765 12.7898 6.10888 12.8783C6.03725 13.6013 5.53791 14.2104 4.84294 14.4225C4.75787 14.4484 4.65944 14.4681 4.46259 14.5075V14.5075M4.46259 14.5075L4.21875 14.5563M4.21875 14.5563C3.99289 14.6014 3.87985 14.624 3.7882 14.6319C2.89839 14.7084 2.1097 14.0619 2.01025 13.1743C2 13.0829 2 12.9677 2 12.7373M4.21875 14.5563V14.5563C4.15904 14.5682 4.12918 14.5742 4.10524 14.5783C3.02464 14.7642 2.03025 13.949 2.00066 12.8529C2 12.8286 2 12.7982 2 12.7373V12.7373M2 12.7373C2 12.5442 2 12.4477 2.00809 12.3664C2.08574 11.5857 2.70332 10.9681 3.48404 10.8904C3.56535 10.8824 3.66189 10.8824 3.85496 10.8824M2 12.7373V12.7373C2 12.6863 2 12.6608 2.00052 12.6392C2.02355 11.6789 2.79655 10.9059 3.75684 10.8829C3.77842 10.8824 3.80393 10.8824 3.85496 10.8824V10.8824" stroke="url(#paint1_linear_557_234)" stroke-width="1.8"/>
<defs>
<linearGradient id="paint0_linear_557_234" x1="8.17647" y1="15" x2="8.17647" y2="1" gradientUnits="userSpaceOnUse">
<stop stop-color="#A93AFF"/>
<stop offset="1" stop-color="#FF81FF"/>
</linearGradient>
<linearGradient id="paint1_linear_557_234" x1="8.17647" y1="15" x2="8.17647" y2="1" gradientUnits="userSpaceOnUse">
<stop stop-color="#A93AFF"/>
<stop offset="1" stop-color="#FF81FF"/>
</linearGradient>
</defs>
</svg>
