<svg width="16" height="16" viewBox="0 0 16 16" fill="none" xmlns="http://www.w3.org/2000/svg">
<path d="M8.88891 7H7.11113C6.99326 7 6.88021 7.04683 6.79686 7.13017C6.71351 7.21352 6.66669 7.32657 6.66669 7.44444V10.1111C6.66669 10.229 6.71351 10.342 6.79686 10.4254C6.88021 10.5087 6.99326 10.5556 7.11113 10.5556H8.88891C9.00678 10.5556 9.11983 10.5087 9.20318 10.4254C9.28653 10.342 9.33335 10.229 9.33335 10.1111V7.44444C9.33335 7.32657 9.28653 7.21352 9.20318 7.13017C9.11983 7.04683 9.00678 7 8.88891 7Z" fill="url(#paint0_linear_164_155)"/>
<path d="M14.9822 5.72444L13.1644 3.90667C13.0816 3.82456 12.9699 3.77827 12.8533 3.77778H10.8311C10.7206 3.77778 10.6311 3.68823 10.6311 3.57778V2.91111C10.6371 2.67758 10.551 2.45106 10.3913 2.28056C10.2316 2.11005 10.0112 2.00927 9.77775 2H6.15108C6.03701 2.00449 5.925 2.03182 5.82169 2.08038C5.71837 2.12893 5.62584 2.19772 5.54959 2.28268C5.47334 2.36764 5.4149 2.46703 5.37775 2.57497C5.3406 2.68292 5.32549 2.79722 5.33331 2.91111V3.57778C5.33331 3.68823 5.24376 3.77778 5.13331 3.77778H3.14664C3.08815 3.77744 3.03017 3.78865 2.97602 3.81077C2.92187 3.83289 2.87261 3.86547 2.83108 3.90667L1.01775 5.72444C0.97656 5.76597 0.943971 5.81523 0.921853 5.86938C0.899735 5.92353 0.888524 5.98151 0.888862 6.04V12.6667C0.888862 12.9024 0.982513 13.1285 1.14921 13.2952C1.31591 13.4619 1.542 13.5556 1.77775 13.5556H14.2222C14.4579 13.5556 14.684 13.4619 14.8507 13.2952C15.0174 13.1285 15.1111 12.9024 15.1111 12.6667V6.03556C15.1106 5.91896 15.0643 5.80723 14.9822 5.72444ZM6.2222 3.08889C6.2222 2.97843 6.31174 2.88889 6.4222 2.88889H9.57775C9.68821 2.88889 9.77775 2.97843 9.77775 3.08889V3.57778C9.77775 3.68823 9.68821 3.77778 9.57775 3.77778H6.4222C6.31174 3.77778 6.2222 3.68823 6.2222 3.57778V3.08889ZM14.2222 7.57778C14.2222 7.68823 14.1327 7.77778 14.0222 7.77778H9.97775C9.86729 7.77778 9.77775 7.86732 9.77775 7.97778V8.43556C9.77775 8.54601 9.86729 8.63556 9.97775 8.63556H14.0222C14.1327 8.63556 14.2222 8.7251 14.2222 8.83556V12.4667C14.2222 12.5771 14.1327 12.6667 14.0222 12.6667H1.97775C1.86729 12.6667 1.77775 12.5771 1.77775 12.4667V8.83556C1.77775 8.7251 1.86729 8.63556 1.97775 8.63556H6.0222C6.13265 8.63556 6.2222 8.54601 6.2222 8.43556V7.97778C6.2222 7.86732 6.13265 7.77778 6.0222 7.77778H1.97775C1.86729 7.77778 1.77775 7.68823 1.77775 7.57778V6.30506C1.77775 6.25202 1.79882 6.20115 1.83633 6.16364L3.27473 4.72525C3.31224 4.68774 3.36311 4.66667 3.41615 4.66667H12.5838C12.6368 4.66667 12.6877 4.68774 12.7252 4.72525L14.1636 6.16364C14.2011 6.20115 14.2222 6.25202 14.2222 6.30506V7.57778Z" fill="url(#paint1_linear_164_155)" stroke="url(#paint2_linear_164_155)" stroke-width="0.6"/>
<defs>
<linearGradient id="paint0_linear_164_155" x1="7.33335" y1="10.3016" x2="9.69324" y2="8.23669" gradientUnits="userSpaceOnUse">
<stop stop-color="#A056FF"/>
<stop offset="1" stop-color="#C59AFD"/>
</linearGradient>
<linearGradient id="paint1_linear_164_155" x1="4.44441" y1="12.7302" x2="11.7023" y2="2.30857" gradientUnits="userSpaceOnUse">
<stop stop-color="#A056FF"/>
<stop offset="1" stop-color="#C59AFD"/>
</linearGradient>
<linearGradient id="paint2_linear_164_155" x1="4.44441" y1="12.7302" x2="11.7023" y2="2.30857" gradientUnits="userSpaceOnUse">
<stop stop-color="#A056FF"/>
<stop offset="1" stop-color="#C59AFD"/>
</linearGradient>
</defs>
</svg>
