<svg width="22" height="22" viewBox="0 0 22 22" fill="none" xmlns="http://www.w3.org/2000/svg">
<path d="M11 1.375C8.44728 1.375 5.99914 2.38906 4.19409 4.19409C2.38906 5.99914 1.375 8.44728 1.375 11C1.375 13.5527 2.38906 16.0009 4.19409 17.8058C5.99914 19.6109 8.44728 20.625 11 20.625C13.5527 20.625 16.0009 19.6109 17.8058 17.8058C19.6109 16.0009 20.625 13.5527 20.625 11C20.625 8.44728 19.6109 5.99914 17.8058 4.19409C16.0009 2.38906 13.5527 1.375 11 1.375ZM11 8.25C11.7293 8.25 12.4288 8.53973 12.9445 9.05546C13.4603 9.57118 13.75 10.2707 13.75 11C13.75 11.7293 13.4603 12.4288 12.9445 12.9445C12.4288 13.4603 11.7293 13.75 11 13.75C10.2707 13.75 9.57118 13.4603 9.05546 12.9445C8.53973 12.4288 8.25 11.7293 8.25 11C8.25 10.2707 8.53973 9.57118 9.05546 9.05546C9.57118 8.53973 10.2707 8.25 11 8.25Z" fill="url(#paint0_linear_451_2405)"/>
<defs>
<linearGradient id="paint0_linear_451_2405" x1="10.1629" y1="20.108" x2="12.3378" y2="2.71363" gradientUnits="userSpaceOnUse">
<stop stop-color="#8D01A2"/>
<stop offset="1" stop-color="#FF33DB"/>
</linearGradient>
</defs>
</svg>
