<svg width="22" height="22" viewBox="0 0 22 22" fill="none" xmlns="http://www.w3.org/2000/svg">
<path d="M11.2288 1.71815C11.1199 1.55488 10.88 1.55488 10.7711 1.71817L8.07663 5.7599C7.95479 5.94265 8.0858 6.18744 8.30545 6.18744H13.6944C13.9141 6.18744 14.045 5.94265 13.9232 5.7599L11.2288 1.71815ZM6.18744 8.30545C6.18744 8.0858 5.94265 7.95479 5.7599 8.07663L1.71815 10.7711C1.55488 10.88 1.55488 11.1199 1.71817 11.2288L5.7599 13.9232C5.94265 14.045 6.18744 13.9141 6.18744 13.6944V8.30545ZM16.2399 8.07663C16.0572 7.95479 15.8124 8.0858 15.8124 8.30545V13.6944C15.8124 13.9141 16.0572 14.045 16.2399 13.9232L20.2817 11.2288C20.4449 11.1199 20.4449 10.88 20.2817 10.7711L16.2399 8.07663ZM10.9999 9.39577C10.114 9.39577 9.39577 10.114 9.39577 10.9999C9.39577 11.8859 10.114 12.6041 10.9999 12.6041C11.8859 12.6041 12.6041 11.8859 12.6041 10.9999C12.6041 10.114 11.8859 9.39577 10.9999 9.39577ZM8.30545 15.8124C8.0858 15.8124 7.95479 16.0572 8.07663 16.2399L10.7711 20.2817C10.88 20.4449 11.1199 20.4449 11.2288 20.2817L13.9232 16.2399C14.045 16.0572 13.9141 15.8124 13.6944 15.8124H8.30545Z" fill="url(#paint0_linear_451_2393)"/>
<path d="M11.2288 1.71815C11.1199 1.55488 10.88 1.55488 10.7711 1.71817L8.07663 5.7599C7.95479 5.94265 8.0858 6.18744 8.30545 6.18744H13.6944C13.9141 6.18744 14.045 5.94265 13.9232 5.7599L11.2288 1.71815ZM6.18744 8.30545C6.18744 8.0858 5.94265 7.95479 5.7599 8.07663L1.71815 10.7711C1.55488 10.88 1.55488 11.1199 1.71817 11.2288L5.7599 13.9232C5.94265 14.045 6.18744 13.9141 6.18744 13.6944V8.30545ZM16.2399 8.07663C16.0572 7.95479 15.8124 8.0858 15.8124 8.30545V13.6944C15.8124 13.9141 16.0572 14.045 16.2399 13.9232L20.2817 11.2288C20.4449 11.1199 20.4449 10.88 20.2817 10.7711L16.2399 8.07663ZM10.9999 9.39577C10.114 9.39577 9.39577 10.114 9.39577 10.9999C9.39577 11.8859 10.114 12.6041 10.9999 12.6041C11.8859 12.6041 12.6041 11.8859 12.6041 10.9999C12.6041 10.114 11.8859 9.39577 10.9999 9.39577ZM8.30545 15.8124C8.0858 15.8124 7.95479 16.0572 8.07663 16.2399L10.7711 20.2817C10.88 20.4449 11.1199 20.4449 11.2288 20.2817L13.9232 16.2399C14.045 16.0572 13.9141 15.8124 13.6944 15.8124H8.30545Z" stroke="url(#paint1_linear_451_2393)" stroke-width="0.6"/>
<defs>
<linearGradient id="paint0_linear_451_2393" x1="4.864" y1="18.3523" x2="22.223" y2="3.20638" gradientUnits="userSpaceOnUse">
<stop stop-color="#FE0844"/>
<stop offset="1" stop-color="#FEB302"/>
</linearGradient>
<linearGradient id="paint1_linear_451_2393" x1="4.864" y1="18.3523" x2="22.223" y2="3.20638" gradientUnits="userSpaceOnUse">
<stop stop-color="#FE0844"/>
<stop offset="1" stop-color="#FEB302"/>
</linearGradient>
</defs>
</svg>
