<svg width="22" height="22" viewBox="0 0 22 22" fill="none" xmlns="http://www.w3.org/2000/svg">
<g clip-path="url(#clip0_451_2383)">
<path d="M1.28571 1C1.12791 1 1 1.12791 1 1.28571V3.5V4.46429C1 4.62209 1.12791 4.75 1.28571 4.75H4.46429C4.62209 4.75 4.75 4.62209 4.75 4.46429V3.5V1.28571C4.75 1.12791 4.62209 1 4.46429 1H2.25H1.28571ZM17.5357 1C17.3779 1 17.25 1.12791 17.25 1.28571V2.25V3.5V4.46429C17.25 4.62209 17.3779 4.75 17.5357 4.75H18.5H19.75H20.7143C20.8721 4.75 21 4.62209 21 4.46429V3.5V2.25V1.28571C21 1.12791 20.8721 1 20.7143 1H17.5357ZM2.25 2.53571C2.25 2.37791 2.37791 2.25 2.53571 2.25H3.21429C3.37209 2.25 3.5 2.37791 3.5 2.53571V3.21429C3.5 3.37209 3.37209 3.5 3.21429 3.5H2.53571C2.37791 3.5 2.25 3.37209 2.25 3.21429V2.53571ZM18.5 2.53571C18.5 2.37791 18.6279 2.25 18.7857 2.25H19.4643C19.6221 2.25 19.75 2.37791 19.75 2.53571V3.21429C19.75 3.37209 19.6221 3.5 19.4643 3.5H18.7857C18.6279 3.5 18.5 3.37209 18.5 3.21429V2.53571ZM8.78571 3.5C8.62791 3.5 8.5 3.62791 8.5 3.78571V4.46429C8.5 4.62209 8.62791 4.75 8.78571 4.75H13.2143C13.3721 4.75 13.5 4.62209 13.5 4.46429V3.78571C13.5 3.62791 13.3721 3.5 13.2143 3.5H8.78571ZM3.78571 8.5C3.62791 8.5 3.5 8.62791 3.5 8.78571V13.2143C3.5 13.3721 3.62791 13.5 3.78571 13.5H4.46429C4.62209 13.5 4.75 13.3721 4.75 13.2143V8.78571C4.75 8.62791 4.62209 8.5 4.46429 8.5H3.78571ZM1.28571 17.25C1.12791 17.25 1 17.3779 1 17.5357V18.5V20.7143C1 20.8721 1.12791 21 1.28571 21H2.25H3.5H4.46429C4.62209 21 4.75 20.8721 4.75 20.7143V17.5357C4.75 17.3779 4.62209 17.25 4.46429 17.25H1.28571ZM2.25 18.7857C2.25 18.6279 2.37791 18.5 2.53571 18.5H3.21429C3.37209 18.5 3.5 18.6279 3.5 18.7857V19.4643C3.5 19.6221 3.37209 19.75 3.21429 19.75H2.53571C2.37791 19.75 2.25 19.6221 2.25 19.4643V18.7857Z" fill="url(#paint0_linear_451_2383)" stroke="url(#paint1_linear_451_2383)"/>
<path d="M9.35742 16.2144V9.71436H15.8574V16.2144H9.35742ZM10.3931 9.96436C9.95919 9.96436 9.60742 10.3161 9.60742 10.7501V15.1786C9.60742 15.6127 9.95926 15.9644 10.3931 15.9644H14.8217C15.2557 15.9644 15.6074 15.6126 15.6074 15.1786V10.7501C15.6074 10.3162 15.2558 9.96436 14.8217 9.96436H10.3931Z" fill="url(#paint2_linear_451_2383)" stroke="url(#paint3_linear_451_2383)"/>
<path d="M20.0713 19.4643V16.5H20.3213V20.5H16.3213V20.25H19.2856C19.7196 20.25 20.0713 19.8983 20.0713 19.4643Z" fill="url(#paint4_linear_451_2383)" stroke="url(#paint5_linear_451_2383)"/>
<path fill-rule="evenodd" clip-rule="evenodd" d="M9.14314 9.21436C8.98534 9.21436 8.85742 9.34227 8.85742 9.50007V16.4286C8.85742 16.5865 8.98534 16.7144 9.14314 16.7144H16.0717C16.2296 16.7144 16.3574 16.5865 16.3574 16.4286V9.50007C16.3574 9.34227 16.2296 9.21436 16.0717 9.21436H9.14314ZM10.1074 10.7501C10.1074 10.5923 10.2353 10.4644 10.3931 10.4644H14.8217C14.9796 10.4644 15.1074 10.5923 15.1074 10.7501V15.1786C15.1074 15.3365 14.9796 15.4644 14.8217 15.4644H10.3931C10.2353 15.4644 10.1074 15.3365 10.1074 15.1786V10.7501Z" stroke="url(#paint6_linear_451_2383)"/>
<path d="M19.857 16C19.6991 16 19.5713 16.128 19.5713 16.2857V19.4643C19.5713 19.6221 19.4434 19.75 19.2856 19.75H16.107C15.9491 19.75 15.8213 19.878 15.8213 20.0357V20.7143C15.8213 20.8721 15.9491 21 16.107 21H20.5356C20.6934 21 20.8213 20.8721 20.8213 20.7143V16.2857C20.8213 16.128 20.6934 16 20.5356 16H19.857Z" stroke="url(#paint7_linear_451_2383)"/>
</g>
<defs>
<linearGradient id="paint0_linear_451_2383" x1="15.565" y1="31.5848" x2="19.0644" y2="3.17257" gradientUnits="userSpaceOnUse">
<stop stop-color="#8D01A2"/>
<stop offset="1" stop-color="#FF33DB"/>
</linearGradient>
<linearGradient id="paint1_linear_451_2383" x1="15.565" y1="31.5848" x2="19.0644" y2="3.17257" gradientUnits="userSpaceOnUse">
<stop stop-color="#8D01A2"/>
<stop offset="1" stop-color="#FF33DB"/>
</linearGradient>
<linearGradient id="paint2_linear_451_2383" x1="14.3193" y1="20.6836" x2="15.6316" y2="10.0291" gradientUnits="userSpaceOnUse">
<stop stop-color="#8D01A2"/>
<stop offset="1" stop-color="#FF33DB"/>
</linearGradient>
<linearGradient id="paint3_linear_451_2383" x1="14.3193" y1="20.6836" x2="15.6316" y2="10.0291" gradientUnits="userSpaceOnUse">
<stop stop-color="#8D01A2"/>
<stop offset="1" stop-color="#FF33DB"/>
</linearGradient>
<linearGradient id="paint4_linear_451_2383" x1="14.3189" y1="20.6836" x2="15.6311" y2="10.029" gradientUnits="userSpaceOnUse">
<stop stop-color="#8D01A2"/>
<stop offset="1" stop-color="#FF33DB"/>
</linearGradient>
<linearGradient id="paint5_linear_451_2383" x1="19.4625" y1="23.6462" x2="20.3374" y2="16.5431" gradientUnits="userSpaceOnUse">
<stop stop-color="#8D01A2"/>
<stop offset="1" stop-color="#FF33DB"/>
</linearGradient>
<linearGradient id="paint6_linear_451_2383" x1="14.3193" y1="20.6836" x2="15.6316" y2="10.0291" gradientUnits="userSpaceOnUse">
<stop stop-color="#8D01A2"/>
<stop offset="1" stop-color="#FF33DB"/>
</linearGradient>
<linearGradient id="paint7_linear_451_2383" x1="19.4625" y1="23.6462" x2="20.3374" y2="16.5431" gradientUnits="userSpaceOnUse">
<stop stop-color="#8D01A2"/>
<stop offset="1" stop-color="#FF33DB"/>
</linearGradient>
<clipPath id="clip0_451_2383">
<rect width="22" height="22" fill="white"/>
</clipPath>
</defs>
</svg>
