<svg width="22" height="22" viewBox="0 0 22 22" fill="none" xmlns="http://www.w3.org/2000/svg">
<path fill-rule="evenodd" clip-rule="evenodd" d="M19.7084 4.98438C19.7084 4.31991 19.1697 3.78125 18.5052 3.78125H15.4766C14.9697 2.3434 13.6131 1.37989 12.0886 1.375H9.6823C8.15777 1.37989 6.80113 2.3434 6.2943 3.78125H3.26562C2.60116 3.78125 2.0625 4.31991 2.0625 4.98438C2.0625 5.64884 2.60116 6.1875 3.26562 6.1875H3.66668V16.2136C3.66668 18.6499 5.64176 20.625 8.07812 20.625H13.6927C16.1291 20.625 18.1042 18.6499 18.1042 16.2136V6.1875H18.5052C19.1697 6.1875 19.7084 5.64884 19.7084 4.98438ZM15.6979 16.2136C15.6979 17.321 14.8002 18.2188 13.6927 18.2188H8.07812C6.9707 18.2188 6.07293 17.321 6.07293 16.2136V6.1875H15.6979V16.2136ZM8.88009 15.8125C9.54456 15.8125 10.0832 15.2738 10.0832 14.6094V9.79688C10.0832 9.13241 9.54456 8.59375 8.88009 8.59375C8.21563 8.59375 7.67697 9.13241 7.67697 9.79688V14.6094C7.67697 15.2738 8.21563 15.8125 8.88009 15.8125ZM14.0938 14.6094C14.0938 15.2738 13.5551 15.8125 12.8906 15.8125C12.2262 15.8125 11.6875 15.2738 11.6875 14.6094V9.79688C11.6875 9.13241 12.2262 8.59375 12.8906 8.59375C13.5551 8.59375 14.0938 9.13241 14.0938 9.79688V14.6094Z" fill="url(#paint0_linear_451_2381)"/>
<defs>
<linearGradient id="paint0_linear_451_2381" x1="10.8854" y1="20.625" x2="10.8854" y2="1.375" gradientUnits="userSpaceOnUse">
<stop stop-color="#02AA93"/>
<stop offset="1" stop-color="#67FF80"/>
</linearGradient>
</defs>
</svg>
