<svg width="22" height="22" viewBox="0 0 22 22" fill="none" xmlns="http://www.w3.org/2000/svg">
<path d="M16.7889 1.25281C16.4518 0.915731 15.9053 0.915731 15.5682 1.25281L10.8506 5.97044C10.5135 6.30749 10.5135 6.85402 10.8506 7.19107L14.8086 11.1492C15.1458 11.4862 15.6922 11.4862 16.0294 11.1492L20.7469 6.43152C21.084 6.09447 21.084 5.54796 20.7469 5.21089L16.7889 1.25281ZM4.49875 8.15854C4.21848 7.87829 3.76404 7.87829 3.48375 8.15854L3.37964 8.26264C3.04248 8.59986 3.04258 9.14647 3.37987 9.48352L6.72931 12.8304C7.06662 13.1675 7.0667 13.7143 6.72948 14.0514L2.36975 18.4097C2.03258 18.7468 2.03322 19.294 2.37033 19.6311C2.70743 19.9683 3.25469 19.9689 3.59174 19.6318L7.95019 15.272C8.28733 14.9347 8.83394 14.9347 9.17108 15.272L12.5179 18.6201C12.855 18.9573 13.4016 18.9573 13.7387 18.6203L13.8429 18.516C14.1223 18.2367 14.1223 17.7837 13.843 17.5044L4.49875 8.15854Z" fill="url(#paint0_linear_451_2375)"/>
<path d="M2.47322 1.25276C2.13621 0.91575 1.58979 0.915741 1.25277 1.25276C0.915744 1.58979 0.915744 2.13619 1.25277 2.47322L19.5268 20.7472C19.8638 21.0843 20.4102 21.0843 20.7472 20.7472C21.0843 20.4102 21.0843 19.8638 20.7472 19.5268L2.47322 1.25276Z" fill="url(#paint1_linear_451_2375)"/>
<defs>
<linearGradient id="paint0_linear_451_2375" x1="20.6951" y1="1.2027" x2="13.0499" y2="20.3982" gradientUnits="userSpaceOnUse">
<stop stop-color="#FE0F7C"/>
<stop offset="1" stop-color="#DF0066"/>
</linearGradient>
<linearGradient id="paint1_linear_451_2375" x1="20.7732" y1="11" x2="3.48855" y2="4.74752" gradientUnits="userSpaceOnUse">
<stop stop-color="#FE7970"/>
<stop offset="1" stop-color="#DC3282"/>
</linearGradient>
</defs>
</svg>
