<svg width="22" height="22" viewBox="0 0 22 22" fill="none" xmlns="http://www.w3.org/2000/svg">
<path d="M7.59951 6.70962L9.83007 4.47827L9.84691 15.4121C9.84691 16.0766 10.3856 16.6153 11.05 16.6153C11.7145 16.6153 12.2531 16.0766 12.2531 15.4121L12.2363 4.49192L14.4541 6.70966C14.9157 7.18761 15.6773 7.20084 16.1552 6.73922C16.6332 6.2776 16.6464 5.51595 16.1848 5.038C16.1751 5.02796 16.1652 5.01813 16.1552 5.00844L13.579 2.43218C12.1695 1.02261 9.88414 1.02261 8.47456 2.43214L5.89829 5.0084C5.43667 5.48635 5.4499 6.248 5.92785 6.70962C6.39408 7.15993 7.13324 7.15993 7.59951 6.70962Z" fill="url(#paint0_linear_451_2370)"/>
<path d="M19.4217 13.0054C18.7572 13.0054 18.2186 13.544 18.2186 14.2085V17.8908C18.2181 18.0718 18.0715 18.2184 17.8905 18.2188H4.10926C3.92827 18.2184 3.78163 18.0718 3.78122 17.8908V14.2085C3.78122 13.544 3.24257 13.0054 2.57811 13.0054C1.91366 13.0054 1.375 13.544 1.375 14.2085V17.8908C1.37677 19.4002 2.59992 20.6233 4.10926 20.625H17.8905C19.3999 20.6233 20.623 19.4001 20.6248 17.8908V14.2085C20.6248 13.544 20.0861 13.0054 19.4217 13.0054Z" fill="url(#paint1_linear_451_2370)"/>
<defs>
<linearGradient id="paint0_linear_451_2370" x1="11.0415" y1="16.6153" x2="11.0415" y2="1.375" gradientUnits="userSpaceOnUse">
<stop stop-color="#5570FF"/>
<stop offset="1" stop-color="#4DD3FF"/>
</linearGradient>
<linearGradient id="paint1_linear_451_2370" x1="10.9999" y1="20.625" x2="10.9999" y2="13.0054" gradientUnits="userSpaceOnUse">
<stop stop-color="#5570FF"/>
<stop offset="1" stop-color="#4DD3FF"/>
</linearGradient>
</defs>
</svg>
