<svg width="22" height="22" viewBox="0 0 22 22" fill="none" xmlns="http://www.w3.org/2000/svg">
<path fill-rule="evenodd" clip-rule="evenodd" d="M15.0105 1.375H16.2137C17.3833 1.37627 18.5046 1.84147 19.3316 2.6685C20.1587 3.49552 20.6238 4.61685 20.6252 5.78646V6.98959C20.6252 7.30867 20.4983 7.6147 20.2727 7.84032C20.0472 8.06596 19.741 8.19271 19.422 8.19271C19.1029 8.19271 18.7969 8.06596 18.5713 7.84032C18.3456 7.6147 18.2189 7.30867 18.2189 6.98959V5.78646C18.2189 5.25465 18.0077 4.74461 17.6316 4.36856C17.2556 3.99252 16.7455 3.78125 16.2137 3.78125H15.0105C14.6914 3.78125 14.3854 3.65449 14.1598 3.42885C13.9342 3.20323 13.8074 2.89721 13.8074 2.57812C13.8074 2.25904 13.9342 1.95302 14.1598 1.7274C14.3854 1.50176 14.6914 1.375 15.0105 1.375ZM3.42887 7.84034C3.20323 8.06596 2.89723 8.19271 2.57812 8.19271C2.25904 8.19271 1.95302 8.06596 1.7274 7.84034C1.50176 7.6147 1.37501 7.30867 1.37501 6.98959V5.78646C1.37628 4.61687 1.84147 3.49552 2.6685 2.6685C3.49552 1.84147 4.61687 1.37628 5.78646 1.37501H6.98959C7.30867 1.37501 7.6147 1.50176 7.84034 1.7274C8.06596 1.95302 8.19271 2.25904 8.19271 2.57812C8.19271 2.89723 8.06596 3.20323 7.84034 3.42887C7.6147 3.65449 7.30867 3.78125 6.98959 3.78125H5.78646C5.25465 3.78125 4.74461 3.99252 4.36856 4.36856C3.99252 4.74461 3.78125 5.25465 3.78125 5.78646V6.98959C3.78125 7.30867 3.65449 7.6147 3.42887 7.84034ZM18.5713 14.1594C18.7969 13.9338 19.1029 13.807 19.422 13.807C19.741 13.807 20.0472 13.9338 20.2727 14.1594C20.4983 14.3851 20.6252 14.6911 20.6252 15.0102V16.2133C20.6238 17.3829 20.1587 18.5042 19.3316 19.3313C18.5046 20.1582 17.3833 20.6235 16.2137 20.6247H15.0105C14.6914 20.6247 14.3854 20.498 14.1598 20.2723C13.9342 20.0466 13.8074 19.7407 13.8074 19.4215C13.8074 19.1025 13.9342 18.7964 14.1598 18.5709C14.3854 18.3453 14.6914 18.2184 15.0105 18.2184H16.2137C16.7455 18.2184 17.2556 18.0072 17.6316 17.6311C18.0077 17.255 18.2189 16.7451 18.2189 16.2133V15.0102C18.2189 14.6911 18.3456 14.3851 18.5713 14.1594ZM6.98959 18.2184H5.78646C5.25465 18.2184 4.74461 18.0072 4.36856 17.6311C3.99252 17.255 3.78125 16.7451 3.78125 16.2133V15.0102C3.78125 14.6911 3.65449 14.3851 3.42885 14.1594C3.20323 13.9338 2.89721 13.807 2.57812 13.807C2.25904 13.807 1.95302 13.9338 1.7274 14.1594C1.50176 14.3851 1.375 14.6911 1.375 15.0102V16.2133C1.37627 17.3829 1.84147 18.5042 2.6685 19.3313C3.49552 20.1582 4.61685 20.6235 5.78646 20.6247H6.98959C7.30867 20.6247 7.6147 20.498 7.84032 20.2723C8.06596 20.0466 8.19271 19.7407 8.19271 19.4215C8.19271 19.1025 8.06596 18.7964 7.84032 18.5709C7.6147 18.3453 7.30867 18.2184 6.98959 18.2184ZM10.9999 10.1982C12.5503 10.1982 13.8072 8.9413 13.8072 7.39088C13.8072 5.84045 12.5503 4.58358 10.9999 4.58358C9.44945 4.58358 8.19259 5.84045 8.19259 7.39088C8.19259 8.9413 9.44945 10.1982 10.9999 10.1982ZM6.29521 16.0338C6.26376 15.9221 6.25709 15.8048 6.27567 15.6903H6.27729C6.49022 14.5936 7.07807 13.6051 7.94004 12.8944C8.80201 12.1838 9.88438 11.7951 11.0015 11.7951C12.1187 11.7951 13.2011 12.1838 14.0631 12.8944C14.925 13.6051 15.5129 14.5936 15.7258 15.6903C15.7444 15.805 15.7377 15.9223 15.7062 16.0341C15.6746 16.146 15.619 16.2495 15.5432 16.3376C15.4674 16.4256 15.3732 16.496 15.2673 16.5438C15.1614 16.5916 15.0463 16.6157 14.9301 16.6143H7.06973C6.9537 16.6154 6.8388 16.5912 6.7331 16.5433C6.6274 16.4954 6.53345 16.425 6.45781 16.337C6.38217 16.2489 6.32668 16.1455 6.29521 16.0338Z" fill="url(#paint0_linear_451_2362)"/>
<path d="M16.2137 1.375L16.2138 1.20312H16.2137V1.375ZM20.6252 5.78646H20.797V5.78627L20.6252 5.78646ZM1.37501 5.78646L1.20313 5.78627V5.78646H1.37501ZM5.78646 1.37501V1.20313H5.78627L5.78646 1.37501ZM20.6252 16.2133L20.797 16.2135V16.2133H20.6252ZM16.2137 20.6247V20.7965H16.2138L16.2137 20.6247ZM1.375 16.2133H1.20312V16.2135L1.375 16.2133ZM5.78646 20.6247L5.78627 20.7965H5.78646V20.6247ZM6.27567 15.6903V15.5184H6.12944L6.10601 15.6627L6.27567 15.6903ZM6.27729 15.6903V15.8622H6.419L6.446 15.723L6.27729 15.6903ZM15.7258 15.6903L15.8955 15.6627L15.895 15.6601L15.8945 15.6575L15.7258 15.6903ZM14.9301 16.6143L14.9322 16.4424H14.9301V16.6143ZM7.06973 16.6143V16.4424L7.06803 16.4424L7.06973 16.6143ZM16.2137 1.20312H15.0105V1.54688H16.2137V1.20312ZM19.4532 2.54696C18.594 1.68774 17.429 1.20445 16.2138 1.20312L16.2137 1.54688C17.3377 1.5481 18.4152 1.99518 19.2101 2.79003L19.4532 2.54696ZM20.797 5.78627C20.7957 4.57115 20.3124 3.40618 19.4532 2.54696L19.2101 2.79003C20.0049 3.58487 20.4521 4.66256 20.4533 5.78665L20.797 5.78627ZM20.797 6.98959V5.78646H20.4533V6.98959H20.797ZM20.3943 7.96185C20.6522 7.70399 20.797 7.35426 20.797 6.98959H20.4533C20.4533 7.26309 20.3447 7.52539 20.1511 7.71879L20.3943 7.96185ZM19.422 8.36459C19.7866 8.36459 20.1364 8.21972 20.3943 7.96185L20.1511 7.71879C19.9578 7.91218 19.6955 8.02084 19.422 8.02084V8.36459ZM18.4498 7.96185C18.7076 8.21972 19.0573 8.36459 19.422 8.36459V8.02084C19.1484 8.02084 18.8861 7.91218 18.6928 7.71879L18.4498 7.96185ZM18.047 6.98959C18.047 7.35426 18.1919 7.70399 18.4498 7.96185L18.6928 7.71879C18.4994 7.52539 18.3908 7.26309 18.3908 6.98959H18.047ZM18.047 5.78646V6.98959H18.3908V5.78646H18.047ZM17.5101 4.4901C17.8539 4.83392 18.047 5.30023 18.047 5.78646H18.3908C18.3908 5.20907 18.1613 4.6553 17.7531 4.24703L17.5101 4.4901ZM16.2137 3.95312C16.6999 3.95312 17.1662 4.14628 17.5101 4.4901L17.7531 4.24703C17.3448 3.83874 16.7911 3.60938 16.2137 3.60938V3.95312ZM15.0105 3.95312H16.2137V3.60938H15.0105V3.95312ZM14.0383 3.5504C14.2961 3.80825 14.6459 3.95312 15.0105 3.95312V3.60938C14.737 3.60938 14.4747 3.50073 14.2813 3.30732L14.0383 3.5504ZM13.6355 2.57812C13.6355 2.94279 13.7804 3.29254 14.0383 3.5504L14.2813 3.30732C14.0879 3.11393 13.9793 2.85163 13.9793 2.57812H13.6355ZM14.0383 1.60585C13.7804 1.86371 13.6355 2.21346 13.6355 2.57812H13.9793C13.9793 2.30462 14.0879 2.04232 14.2813 1.84893L14.0383 1.60585ZM15.0105 1.20312C14.6459 1.20312 14.2961 1.34799 14.0383 1.60585L14.2813 1.84893C14.4747 1.65552 14.737 1.54688 15.0105 1.54688V1.20312ZM2.57812 8.36459C2.94281 8.36459 3.29254 8.21972 3.5504 7.96187L3.30734 7.71879C3.11395 7.9122 2.85163 8.02084 2.57812 8.02084V8.36459ZM1.60586 7.96187C1.86373 8.21972 2.21346 8.36459 2.57812 8.36459V8.02084C2.30462 8.02084 2.04232 7.9122 1.84893 7.71879L1.60586 7.96187ZM1.20313 6.98959C1.20313 7.35426 1.348 7.704 1.60586 7.96187L1.84893 7.71879C1.65553 7.52539 1.54688 7.26309 1.54688 6.98959H1.20313ZM1.20313 5.78646V6.98959H1.54688V5.78646H1.20313ZM2.54696 2.54696C1.68775 3.40618 1.20446 4.57115 1.20313 5.78627L1.54688 5.78665C1.54811 4.66257 1.99519 3.58488 2.79003 2.79003L2.54696 2.54696ZM5.78627 1.20313C4.57115 1.20446 3.40618 1.68775 2.54696 2.54696L2.79003 2.79003C3.58488 1.99519 4.66257 1.54811 5.78665 1.54688L5.78627 1.20313ZM6.98959 1.20313H5.78646V1.54688H6.98959V1.20313ZM7.96187 1.60586C7.704 1.348 7.35426 1.20313 6.98959 1.20313V1.54688C7.26309 1.54688 7.52539 1.65553 7.71879 1.84893L7.96187 1.60586ZM8.36459 2.57812C8.36459 2.21346 8.21972 1.86373 7.96187 1.60586L7.71879 1.84893C7.9122 2.04232 8.02084 2.30462 8.02084 2.57812H8.36459ZM7.96187 3.5504C8.21972 3.29254 8.36459 2.94281 8.36459 2.57812H8.02084C8.02084 2.85163 7.9122 3.11395 7.71879 3.30734L7.96187 3.5504ZM6.98959 3.95312C7.35426 3.95312 7.704 3.80827 7.96187 3.5504L7.71879 3.30734C7.52539 3.50073 7.26309 3.60938 6.98959 3.60938V3.95312ZM5.78646 3.95312H6.98959V3.60938H5.78646V3.95312ZM4.4901 4.4901C4.83392 4.14628 5.30023 3.95312 5.78646 3.95312V3.60938C5.20907 3.60938 4.65532 3.83876 4.24703 4.24703L4.4901 4.4901ZM3.95312 5.78646C3.95312 5.30023 4.14628 4.83392 4.4901 4.4901L4.24703 4.24703C3.83876 4.65532 3.60938 5.20907 3.60938 5.78646H3.95312ZM3.95312 6.98959V5.78646H3.60938V6.98959H3.95312ZM3.5504 7.96187C3.80827 7.704 3.95312 7.35426 3.95312 6.98959H3.60938C3.60938 7.26309 3.50073 7.52539 3.30734 7.71879L3.5504 7.96187ZM19.422 13.6352C19.0573 13.6352 18.7076 13.78 18.4498 14.0379L18.6928 14.281C18.8861 14.0876 19.1484 13.9789 19.422 13.9789V13.6352ZM20.3943 14.0379C20.1364 13.78 19.7866 13.6352 19.422 13.6352V13.9789C19.6955 13.9789 19.9578 14.0876 20.1511 14.281L20.3943 14.0379ZM20.797 15.0102C20.797 14.6455 20.6522 14.2958 20.3943 14.0379L20.1511 14.281C20.3447 14.4744 20.4533 14.7367 20.4533 15.0102H20.797ZM20.797 16.2133V15.0102H20.4533V16.2133H20.797ZM19.4532 19.4528C20.3124 18.5936 20.7957 17.4286 20.797 16.2135L20.4533 16.2131C20.4521 17.3372 20.0049 18.4149 19.2101 19.2098L19.4532 19.4528ZM16.2138 20.7965C17.429 20.7953 18.594 20.312 19.4532 19.4528L19.2101 19.2098C18.4152 20.0045 17.3375 20.4516 16.2135 20.4528L16.2138 20.7965ZM15.0105 20.7965H16.2137L16.2135 20.4528H15.0105V20.7965ZM14.0383 20.3938C14.2961 20.6518 14.6459 20.7965 15.0105 20.7965V20.4528C14.737 20.4528 14.4747 20.3442 14.2813 20.1508L14.0383 20.3938ZM13.6355 19.4215C13.6355 19.7863 13.7804 20.136 14.0383 20.3938L14.2813 20.1508C14.0879 19.9574 13.9793 19.6952 13.9793 19.4215H13.6355ZM14.0383 18.4494C13.7804 18.7072 13.6355 19.057 13.6355 19.4215H13.9793C13.9793 19.1481 14.0879 18.8858 14.2813 18.6924L14.0383 18.4494ZM15.0105 18.0465C14.6459 18.0465 14.2961 18.1914 14.0383 18.4494L14.2813 18.6924C14.4747 18.4991 14.737 18.3903 15.0105 18.3903V18.0465ZM16.2137 18.0465H15.0105V18.3903H16.2137V18.0465ZM17.5101 17.5096C17.1662 17.8535 16.6999 18.0465 16.2137 18.0465V18.3903C16.7911 18.3903 17.3448 18.161 17.7531 17.7526L17.5101 17.5096ZM18.047 16.2133C18.047 16.6995 17.8539 17.1658 17.5101 17.5096L17.7531 17.7526C18.1613 17.3444 18.3908 16.7907 18.3908 16.2133H18.047ZM18.047 15.0102V16.2133H18.3908V15.0102H18.047ZM18.4498 14.0379C18.1919 14.2958 18.047 14.6455 18.047 15.0102H18.3908C18.3908 14.7367 18.4994 14.4744 18.6928 14.281L18.4498 14.0379ZM5.78646 18.3903H6.98959V18.0465H5.78646V18.3903ZM4.24703 17.7526C4.6553 18.161 5.20907 18.3903 5.78646 18.3903V18.0465C5.30023 18.0465 4.83392 17.8535 4.4901 17.5096L4.24703 17.7526ZM3.60938 16.2133C3.60938 16.7907 3.83874 17.3444 4.24703 17.7526L4.4901 17.5096C4.14628 17.1658 3.95312 16.6995 3.95312 16.2133H3.60938ZM3.60938 15.0102V16.2133H3.95312V15.0102H3.60938ZM3.30732 14.281C3.50073 14.4744 3.60938 14.7367 3.60938 15.0102H3.95312C3.95312 14.6455 3.80825 14.2958 3.5504 14.0379L3.30732 14.281ZM2.57812 13.9789C2.85163 13.9789 3.11393 14.0876 3.30732 14.281L3.5504 14.0379C3.29254 13.78 2.94279 13.6352 2.57812 13.6352V13.9789ZM1.84893 14.281C2.04232 14.0876 2.30462 13.9789 2.57812 13.9789V13.6352C2.21346 13.6352 1.86371 13.78 1.60585 14.0379L1.84893 14.281ZM1.54688 15.0102C1.54688 14.7367 1.65552 14.4744 1.84893 14.281L1.60585 14.0379C1.34799 14.2958 1.20312 14.6455 1.20312 15.0102H1.54688ZM1.54688 16.2133V15.0102H1.20312V16.2133H1.54688ZM2.79003 19.2098C1.99518 18.4149 1.5481 17.3372 1.54688 16.2131L1.20312 16.2135C1.20445 17.4286 1.68774 18.5936 2.54696 19.4528L2.79003 19.2098ZM5.78665 20.4528C4.66256 20.4516 3.58487 20.0045 2.79003 19.2098L2.54696 19.4528C3.40618 20.312 4.57115 20.7953 5.78627 20.7965L5.78665 20.4528ZM6.98959 20.4528H5.78646V20.7965H6.98959V20.4528ZM7.71879 20.1508C7.52539 20.3442 7.26309 20.4528 6.98959 20.4528V20.7965C7.35426 20.7965 7.70399 20.6518 7.96185 20.3938L7.71879 20.1508ZM8.02084 19.4215C8.02084 19.6952 7.91218 19.9574 7.71879 20.1508L7.96185 20.3938C8.21972 20.136 8.36459 19.7863 8.36459 19.4215H8.02084ZM7.71879 18.6924C7.91218 18.8858 8.02084 19.1481 8.02084 19.4215H8.36459C8.36459 19.057 8.21972 18.7072 7.96185 18.4494L7.71879 18.6924ZM6.98959 18.3903C7.26309 18.3903 7.52539 18.4991 7.71879 18.6924L7.96185 18.4494C7.70399 18.1914 7.35426 18.0465 6.98959 18.0465V18.3903ZM13.6353 7.39088C13.6353 8.84637 12.4554 10.0263 10.9999 10.0263V10.37C12.6452 10.37 13.979 9.03622 13.979 7.39088H13.6353ZM10.9999 4.75545C12.4554 4.75545 13.6353 5.93538 13.6353 7.39088H13.979C13.979 5.74552 12.6452 4.4117 10.9999 4.4117V4.75545ZM8.36447 7.39088C8.36447 5.93538 9.54437 4.75545 10.9999 4.75545V4.4117C9.35454 4.4117 8.02072 5.74552 8.02072 7.39088H8.36447ZM10.9999 10.0263C9.54437 10.0263 8.36447 8.84637 8.36447 7.39088H8.02072C8.02072 9.03622 9.35454 10.37 10.9999 10.37V10.0263ZM6.10601 15.6627C6.08343 15.802 6.09152 15.9446 6.12978 16.0804L6.46066 15.9872C6.43598 15.8996 6.43075 15.8076 6.44533 15.7178L6.10601 15.6627ZM6.27729 15.5184H6.27567V15.8622H6.27729V15.5184ZM7.83069 12.7618C6.93796 13.4979 6.32911 14.5217 6.10856 15.6575L6.446 15.723C6.65134 14.6655 7.2182 13.7124 8.04937 13.0271L7.83069 12.7618ZM11.0015 11.6232C9.84447 11.6232 8.72345 12.0258 7.83069 12.7618L8.04937 13.0271C8.88056 12.3417 9.92427 11.967 11.0015 11.967V11.6232ZM14.1724 12.7618C13.2796 12.0258 12.1586 11.6232 11.0015 11.6232V11.967C12.0788 11.967 13.1225 12.3417 13.9537 13.0271L14.1724 12.7618ZM15.8945 15.6575C15.674 14.5217 15.0651 13.4979 14.1724 12.7618L13.9537 13.0271C14.7849 13.7124 15.3518 14.6655 15.5571 15.723L15.8945 15.6575ZM15.8716 16.0808C15.9099 15.9449 15.9181 15.8022 15.8955 15.6627L15.5561 15.7178C15.5708 15.8077 15.5655 15.8998 15.5407 15.9875L15.8716 16.0808ZM15.6734 16.4497C15.7656 16.3427 15.8332 16.2168 15.8716 16.0808L15.5407 15.9875C15.516 16.0752 15.4724 16.1564 15.4129 16.2254L15.6734 16.4497ZM15.338 16.7005C15.4668 16.6423 15.5812 16.5568 15.6734 16.4497L15.4129 16.2254C15.3535 16.2945 15.2796 16.3497 15.1966 16.3871L15.338 16.7005ZM14.9281 16.7861C15.0693 16.7878 15.2093 16.7586 15.338 16.7005L15.1966 16.3871C15.1135 16.4246 15.0233 16.4435 14.9322 16.4424L14.9281 16.7861ZM7.06973 16.7862H14.9301V16.4424L7.06973 16.4424V16.7862ZM6.66215 16.6998C6.79066 16.7581 6.93036 16.7875 7.07144 16.7861L7.06803 16.4424C6.97704 16.4433 6.88695 16.4243 6.80405 16.3868L6.66215 16.6998ZM6.32746 16.449C6.41941 16.556 6.53364 16.6416 6.66215 16.6998L6.80405 16.3868C6.72115 16.3492 6.64747 16.294 6.58816 16.2249L6.32746 16.449ZM6.12978 16.0804C6.16803 16.2162 6.23549 16.342 6.32746 16.449L6.58816 16.2249C6.52884 16.1559 6.48532 16.0748 6.46066 15.9872L6.12978 16.0804Z" fill="url(#paint1_linear_451_2362)"/>
<defs>
<linearGradient id="paint0_linear_451_2362" x1="1.37782" y1="10.7147" x2="20.6283" y2="10.7147" gradientUnits="userSpaceOnUse">
<stop stop-color="#A93AFF"/>
<stop offset="1" stop-color="#FF81FF"/>
</linearGradient>
<linearGradient id="paint1_linear_451_2362" x1="1.37782" y1="10.7147" x2="20.6283" y2="10.7147" gradientUnits="userSpaceOnUse">
<stop stop-color="#A93AFF"/>
<stop offset="1" stop-color="#FF81FF"/>
</linearGradient>
</defs>
</svg>
