<svg width="22" height="22" viewBox="0 0 22 22" fill="none" xmlns="http://www.w3.org/2000/svg">
<path d="M10.0003 1.8335C8.78468 1.8335 7.61891 2.31637 6.75939 3.17589C5.89986 4.03541 5.417 5.20117 5.41699 6.41673C5.417 7.63227 5.89986 8.79804 6.75939 9.65752C7.61891 10.5171 8.78468 11 10.0003 11C11.2158 11 12.3815 10.5171 13.241 9.65752C14.1005 8.79804 14.5834 7.63227 14.5835 6.41673C14.5834 5.20117 14.1005 4.03541 13.241 3.17589C12.3815 2.31637 11.2158 1.8335 10.0003 1.8335ZM10.0003 2.9793C10.9119 2.9793 11.7862 3.34144 12.4308 3.98608C13.0755 4.63072 13.4377 5.50506 13.4377 6.41673C13.4377 7.32839 13.0755 8.20266 12.4308 8.8473C11.7862 9.49197 10.9119 9.85415 10.0003 9.85415C9.08856 9.85415 8.21426 9.49197 7.56961 8.8473C6.92497 8.20266 6.56281 7.32839 6.5628 6.41673C6.56281 5.50506 6.92497 4.63072 7.56961 3.98608C8.21426 3.34144 9.08856 2.9793 10.0003 2.9793Z" fill="url(#paint0_linear_451_2365)" stroke="url(#paint1_linear_451_2365)"/>
<path d="M10.0001 12.146C7.76942 12.1487 5.61617 12.9647 3.94396 14.4411C2.37586 15.8258 1.3317 17.7021 0.977824 19.7554C0.940351 19.973 1.11159 20.1666 1.33229 20.1666H1.75374C1.93601 20.1666 2.0897 20.0325 2.12286 19.8533C2.45297 18.0688 3.37949 16.4454 4.75534 15.2525C6.21131 13.9901 8.07314 13.294 10.0001 13.2918C10.2415 13.2938 10.4824 13.3066 10.7224 13.3303C10.9459 13.3524 11.146 13.1812 11.146 12.9566V12.5475C11.146 12.3637 11.01 12.2076 10.8273 12.1896C10.5524 12.1626 10.2764 12.148 10.0001 12.146Z" fill="url(#paint2_linear_451_2365)" stroke="url(#paint3_linear_451_2365)"/>
<path d="M13.5496 13.32C14.3016 12.568 15.3217 12.1455 16.3853 12.1455C17.4489 12.1455 18.469 12.568 19.221 13.32C19.9732 14.0722 20.3956 15.0922 20.3956 16.1558C20.3956 17.2194 19.9732 18.2394 19.221 18.9915C18.469 19.7436 17.4489 20.1662 16.3853 20.1662C15.3217 20.1662 14.3016 19.7436 13.5496 18.9915C12.7975 18.2394 12.375 17.2194 12.375 16.1558C12.375 15.0922 12.7975 14.0722 13.5496 13.32Z" stroke="url(#paint4_linear_451_2365)" stroke-width="1.4"/>
<path d="M16.1792 14.291C15.9767 14.291 15.8125 14.4552 15.8125 14.6577V16.5827V17.3618C15.8125 17.5643 15.9767 17.7284 16.1792 17.7284H16.9583H17.7375C17.94 17.7284 18.1042 17.5643 18.1042 17.3618V16.9493C18.1042 16.7469 17.94 16.5827 17.7375 16.5827H17.325C17.1225 16.5827 16.9583 16.4185 16.9583 16.216V14.6577C16.9583 14.4552 16.7942 14.291 16.5917 14.291H16.1792Z" stroke="url(#paint5_linear_451_2365)"/>
<defs>
<linearGradient id="paint0_linear_451_2365" x1="7.07841" y1="9.91776" x2="15.3443" y2="2.70559" gradientUnits="userSpaceOnUse">
<stop stop-color="#FE0844"/>
<stop offset="1" stop-color="#FEB302"/>
</linearGradient>
<linearGradient id="paint1_linear_451_2365" x1="7.07841" y1="9.91776" x2="15.3443" y2="2.70559" gradientUnits="userSpaceOnUse">
<stop stop-color="#FE0844"/>
<stop offset="1" stop-color="#FEB302"/>
</linearGradient>
<linearGradient id="paint2_linear_451_2365" x1="2.77061" y1="19.2197" x2="10.0292" y2="11.1424" gradientUnits="userSpaceOnUse">
<stop stop-color="#FE0844"/>
<stop offset="1" stop-color="#FEB302"/>
</linearGradient>
<linearGradient id="paint3_linear_451_2365" x1="2.77061" y1="19.2197" x2="10.0292" y2="11.1424" gradientUnits="userSpaceOnUse">
<stop stop-color="#FE0844"/>
<stop offset="1" stop-color="#FEB302"/>
</linearGradient>
<linearGradient id="paint4_linear_451_2365" x1="13.8287" y1="19.2192" x2="21.0614" y2="12.9085" gradientUnits="userSpaceOnUse">
<stop stop-color="#FE0844"/>
<stop offset="1" stop-color="#FEB302"/>
</linearGradient>
<linearGradient id="paint5_linear_451_2365" x1="13.8287" y1="19.2192" x2="21.0614" y2="12.9085" gradientUnits="userSpaceOnUse">
<stop stop-color="#FE0844"/>
<stop offset="1" stop-color="#FEB302"/>
</linearGradient>
</defs>
</svg>
