<svg width="22" height="22" viewBox="0 0 22 22" fill="none" xmlns="http://www.w3.org/2000/svg">
<path d="M11.0096 1.37504C10.7844 1.37314 10.5632 1.43448 10.3712 1.5521C10.1791 1.66971 10.0239 1.83886 9.92326 2.04031L1.50188 18.8826C1.4102 19.066 1.36695 19.2699 1.37623 19.4748C1.3855 19.6797 1.447 19.8788 1.5549 20.0531C1.66278 20.2276 1.81347 20.3716 1.99263 20.4714C2.17181 20.5711 2.37352 20.6235 2.57862 20.6234H19.4213C19.6265 20.6235 19.8282 20.5711 20.0073 20.4714C20.1865 20.3716 20.3372 20.2276 20.4451 20.0531C20.5529 19.8788 20.6145 19.6797 20.6238 19.4748C20.6331 19.2699 20.5898 19.066 20.4981 18.8826L12.0767 2.04031C11.9775 1.84179 11.8254 1.67457 11.637 1.55716C11.4487 1.43975 11.2315 1.37672 11.0096 1.37504Z" fill="url(#paint0_linear_451_2355)"/>
<path d="M10.083 6.18701C9.7033 6.18701 9.39551 6.49481 9.39551 6.87451V11.9156C9.39551 12.2953 9.7033 12.6031 10.083 12.6031H11.9161C12.2958 12.6031 12.6036 12.2953 12.6036 11.9156V6.87451C12.6036 6.49481 12.2958 6.18701 11.9161 6.18701H10.083ZM10.083 14.2072C9.7033 14.2072 9.39551 14.515 9.39551 14.8947V16.7277C9.39551 17.1075 9.7033 17.4152 10.083 17.4152H11.9161C12.2958 17.4152 12.6036 17.1075 12.6036 16.7277V14.8947C12.6036 14.515 12.2958 14.2072 11.9161 14.2072H10.083Z" fill="white"/>
<defs>
<linearGradient id="paint0_linear_451_2355" x1="11" y1="20.6234" x2="11" y2="1.375" gradientUnits="userSpaceOnUse">
<stop stop-color="#FD5900"/>
<stop offset="1" stop-color="#FFDE00"/>
</linearGradient>
</defs>
</svg>
