<svg width="22" height="22" viewBox="0 0 22 22" fill="none" xmlns="http://www.w3.org/2000/svg">
<path d="M2.0625 1.375C1.68281 1.375 1.375 1.68281 1.375 2.0625V19.9375C1.375 20.3171 1.68281 20.625 2.0625 20.625H8.70833C9.08804 20.625 9.39583 20.3171 9.39583 19.9375V2.0625C9.39583 1.68281 9.08804 1.375 8.70833 1.375H2.0625ZM11.6875 1.375C11.3078 1.375 11 1.68281 11 2.0625V19.9375C11 20.3171 11.3078 20.625 11.6875 20.625H19.9375C20.3171 20.625 20.625 20.3171 20.625 19.9375V2.0625C20.625 1.68281 20.3171 1.375 19.9375 1.375H11.6875ZM2.97917 6.875C2.97917 6.49531 3.28697 6.1875 3.66667 6.1875H7.10417C7.48386 6.1875 7.79167 6.49531 7.79167 6.875V18.3333C7.79167 18.7131 7.48386 19.0208 7.10417 19.0208H3.66667C3.28697 19.0208 2.97917 18.7131 2.97917 18.3333V6.875ZM12.6042 6.875C12.6042 6.49531 12.912 6.1875 13.2917 6.1875H18.3333C18.7131 6.1875 19.0208 6.49531 19.0208 6.875V18.3333C19.0208 18.7131 18.7131 19.0208 18.3333 19.0208H13.2917C12.912 19.0208 12.6042 18.7131 12.6042 18.3333V6.875Z" fill="url(#paint0_linear_451_2353)"/>
<defs>
<linearGradient id="paint0_linear_451_2353" x1="10.1629" y1="20.108" x2="12.3378" y2="2.71363" gradientUnits="userSpaceOnUse">
<stop stop-color="#8D01A2"/>
<stop offset="1" stop-color="#FF33DB"/>
</linearGradient>
</defs>
</svg>
