<svg width="22" height="22" viewBox="0 0 22 22" fill="none" xmlns="http://www.w3.org/2000/svg">
<path d="M16.2136 1.375H5.78645C4.61687 1.37628 3.49552 1.84146 2.66849 2.66849C1.84146 3.49552 1.37628 4.61687 1.375 5.78645V16.2136C1.37628 17.3831 1.84146 18.5045 2.66849 19.3315C3.49552 20.1585 4.61687 20.6237 5.78645 20.625H16.2136C17.3831 20.6237 18.5045 20.1585 19.3315 19.3315C20.1585 18.5045 20.6237 17.3831 20.625 16.2136V5.78645C20.6237 4.61687 20.1585 3.49552 19.3315 2.66849C18.5045 1.84146 17.3831 1.37628 16.2136 1.375ZM3.78125 9.39582H5.38543V12.6042H3.78125V9.39582ZM14.2083 9.79688H7.79168V3.78125H14.2083V9.79688ZM7.79168 12.2031H14.2083V18.2188H7.79168V12.2031ZM16.6146 9.39582H18.2188V12.6042H16.6146V9.39582ZM18.2188 5.78645V6.98957H16.6146V3.82216C17.0674 3.91459 17.4743 4.16058 17.7666 4.51849C18.0589 4.87644 18.2186 5.32434 18.2188 5.78645ZM5.38543 3.82216V6.98957H3.78125V5.78645C3.78135 5.32434 3.94106 4.87644 4.23335 4.51849C4.52567 4.16058 4.93264 3.91459 5.38543 3.82216ZM3.78125 16.2136V15.0104H5.38543V18.1778C4.93264 18.0854 4.52567 17.8394 4.23335 17.4815C3.94106 17.1236 3.78135 16.6757 3.78125 16.2136ZM16.6146 18.1778V15.0104H18.2188V16.2136C18.2186 16.6757 18.0589 17.1236 17.7666 17.4815C17.4743 17.8394 17.0674 18.0854 16.6146 18.1778Z" fill="url(#paint0_linear_451_2351)"/>
<defs>
<linearGradient id="paint0_linear_451_2351" x1="1.09675" y1="1.56442" x2="20.9419" y2="22.0167" gradientUnits="userSpaceOnUse">
<stop stop-color="#F9D423"/>
<stop offset="0.515624" stop-color="#FF4E50"/>
<stop offset="0.991304" stop-color="#8A2387"/>
</linearGradient>
</defs>
</svg>
