<svg width="22" height="22" viewBox="0 0 22 22" fill="none" xmlns="http://www.w3.org/2000/svg">
<path fill-rule="evenodd" clip-rule="evenodd" d="M2.0625 2.75C1.68281 2.75 1.375 3.05781 1.375 3.4375V3.66669C1.375 4.04639 1.68281 4.35419 2.0625 4.35419H15.125C15.5046 4.35419 15.8125 4.04639 15.8125 3.66669V3.4375C15.8125 3.05781 15.5046 2.75 15.125 2.75H2.0625ZM2.0625 18.7917C1.68281 18.7917 1.375 18.4839 1.375 18.1042V17.875C1.375 17.4954 1.68281 17.1875 2.0625 17.1875H5.5C5.87969 17.1875 6.1875 17.4954 6.1875 17.875V18.1042C6.1875 18.4839 5.87969 18.7917 5.5 18.7917H2.0625ZM1.375 13.2915C1.375 13.6712 1.68281 13.9789 2.0625 13.9789H8.70833C9.08804 13.9789 9.39583 13.6712 9.39583 13.2915V13.0625C9.39583 12.6828 9.08804 12.375 8.70833 12.375H2.0625C1.68281 12.375 1.375 12.6828 1.375 13.0625V13.2915ZM2.0625 9.16668C1.68281 9.16668 1.375 8.85889 1.375 8.4792V8.25C1.375 7.87031 1.68281 7.5625 2.0625 7.5625H11.9167C12.2964 7.5625 12.6042 7.87031 12.6042 8.25V8.47918C12.6042 8.85889 12.2964 9.16668 11.9167 9.16668H2.0625ZM14.5244 19.9096C14.7928 20.178 15.2281 20.178 15.4967 19.9096L20.1389 15.2672C20.4075 14.9986 20.4075 14.5633 20.1389 14.2949L19.977 14.1329C19.7086 13.8644 19.2732 13.8644 19.0047 14.1329L16.9862 16.1514C16.5531 16.5846 15.8125 16.2778 15.8125 15.6654V11.4582C15.8125 11.0785 15.5048 10.7707 15.125 10.7707H14.8959C14.5161 10.7707 14.2084 11.0785 14.2084 11.4582V15.6654C14.2084 16.2778 13.4679 16.5846 13.0348 16.1514L11.0162 14.1329C10.7477 13.8644 10.3124 13.8644 10.0439 14.1329L9.88202 14.2949C9.61353 14.5633 9.61353 14.9986 9.88202 15.2672L14.5244 19.9096Z" fill="url(#paint0_linear_451_2190)" stroke="url(#paint1_linear_451_2190)" stroke-width="0.6"/>
<defs>
<linearGradient id="paint0_linear_451_2190" x1="10.8576" y1="20.1109" x2="10.8576" y2="2.75" gradientUnits="userSpaceOnUse">
<stop stop-color="#00B59C"/>
<stop offset="1" stop-color="#9CFFAC"/>
</linearGradient>
<linearGradient id="paint1_linear_451_2190" x1="10.8576" y1="20.1109" x2="10.8576" y2="2.75" gradientUnits="userSpaceOnUse">
<stop stop-color="#00B59C"/>
<stop offset="1" stop-color="#9CFFAC"/>
</linearGradient>
</defs>
</svg>
