<svg width="22" height="22" viewBox="0 0 22 22" fill="none" xmlns="http://www.w3.org/2000/svg">
<path fill-rule="evenodd" clip-rule="evenodd" d="M5.38541 5.09896C5.38541 6.20641 4.48766 7.10416 3.38021 7.10416C2.27275 7.10416 1.375 6.20641 1.375 5.09896C1.375 3.9915 2.27275 3.09375 3.38021 3.09375C4.48766 3.09375 5.38541 3.9915 5.38541 5.09896ZM19.422 6.30231H7.79178C7.4727 6.30231 7.16667 6.17555 6.94103 5.94992C6.71541 5.7243 6.58866 5.41827 6.58866 5.09919C6.58866 4.7801 6.71541 4.47408 6.94103 4.24844C7.16667 4.02282 7.4727 3.89606 7.79178 3.89606H19.422C19.741 3.89606 20.0472 4.02282 20.2727 4.24844C20.4983 4.47408 20.6252 4.7801 20.6252 5.09919C20.6252 5.41827 20.4983 5.7243 20.2727 5.94992C20.0472 6.17555 19.741 6.30231 19.422 6.30231ZM7.79178 10.1977H19.422C19.741 10.1977 20.0472 10.3244 20.2727 10.5501C20.4983 10.7757 20.6252 11.0817 20.6252 11.4008C20.6252 11.7199 20.4983 12.0259 20.2727 12.2516C20.0472 12.4772 19.741 12.6039 19.422 12.6039H7.79178C7.4727 12.6039 7.16667 12.4772 6.94103 12.2516C6.71541 12.0259 6.58866 11.7199 6.58866 11.4008C6.58866 11.0817 6.71541 10.7757 6.94103 10.5501C7.16667 10.3244 7.4727 10.1977 7.79178 10.1977ZM19.422 16.1562H7.79178C7.4727 16.1562 7.16667 16.283 6.94103 16.5086C6.71541 16.7343 6.58866 17.0403 6.58866 17.3594C6.58866 17.6785 6.71541 17.9845 6.94103 18.2102C7.16667 18.4357 7.4727 18.5625 7.79178 18.5625H19.422C19.741 18.5625 20.0472 18.4357 20.2727 18.2102C20.4983 17.9845 20.6252 17.6785 20.6252 17.3594C20.6252 17.0403 20.4983 16.7343 20.2727 16.5086C20.0472 16.283 19.741 16.1562 19.422 16.1562ZM3.38021 13.005C4.48766 13.005 5.38541 12.1072 5.38541 10.9998C5.38541 9.89233 4.48766 8.99456 3.38021 8.99456C2.27275 8.99456 1.375 9.89233 1.375 10.9998C1.375 12.1072 2.27275 13.005 3.38021 13.005ZM5.38541 16.9583C5.38541 18.0658 4.48766 18.9635 3.38021 18.9635C2.27275 18.9635 1.375 18.0658 1.375 16.9583C1.375 15.8509 2.27275 14.9531 3.38021 14.9531C4.48766 14.9531 5.38541 15.8509 5.38541 16.9583Z" fill="url(#paint0_linear_451_2288)"/>
<path d="M3.38021 7.44791C4.67751 7.44791 5.72916 6.39626 5.72916 5.09896H5.04166C5.04166 6.01655 4.2978 6.76041 3.38021 6.76041V7.44791ZM1.03125 5.09896C1.03125 6.39626 2.08292 7.44791 3.38021 7.44791V6.76041C2.46261 6.76041 1.71875 6.01655 1.71875 5.09896H1.03125ZM3.38021 2.75C2.08292 2.75 1.03125 3.80167 1.03125 5.09896H1.71875C1.71875 4.18136 2.46261 3.4375 3.38021 3.4375V2.75ZM5.72916 5.09896C5.72916 3.80167 4.67751 2.75 3.38021 2.75V3.4375C4.2978 3.4375 5.04166 4.18136 5.04166 5.09896H5.72916ZM7.79178 6.64606H19.422V5.95856H7.79178V6.64606ZM6.69797 6.19298C6.98808 6.48309 7.38152 6.64606 7.79178 6.64606V5.95856C7.56386 5.95856 7.34527 5.86802 7.1841 5.70685L6.69797 6.19298ZM6.24491 5.09919C6.24491 5.50944 6.40788 5.90289 6.69797 6.19298L7.1841 5.70685C7.02295 5.54568 6.93241 5.32711 6.93241 5.09919H6.24491ZM6.69797 4.00538C6.40788 4.29547 6.24491 4.68892 6.24491 5.09919H6.93241C6.93241 4.87126 7.02295 4.65267 7.1841 4.49151L6.69797 4.00538ZM7.79178 3.55231C7.38152 3.55231 6.98808 3.71528 6.69797 4.00538L7.1841 4.49151C7.34527 4.33036 7.56386 4.23981 7.79178 4.23981V3.55231ZM19.422 3.55231H7.79178V4.23981H19.422V3.55231ZM20.5159 4.00538C20.2257 3.71528 19.8323 3.55231 19.422 3.55231V4.23981C19.65 4.23981 19.8686 4.33036 20.0296 4.49151L20.5159 4.00538ZM20.9689 5.09919C20.9689 4.68892 20.8058 4.29547 20.5159 4.00538L20.0296 4.49151C20.1908 4.65267 20.2814 4.87126 20.2814 5.09919H20.9689ZM20.5159 6.19298C20.8058 5.90289 20.9689 5.50944 20.9689 5.09919H20.2814C20.2814 5.32709 20.1908 5.54568 20.0296 5.70685L20.5159 6.19298ZM19.422 6.64606C19.8323 6.64606 20.2257 6.48309 20.5159 6.19298L20.0296 5.70685C19.8686 5.86802 19.65 5.95856 19.422 5.95856V6.64606ZM19.422 9.85394H7.79178V10.5414H19.422V9.85394ZM20.5159 10.307C20.2257 10.0169 19.8323 9.85394 19.422 9.85394V10.5414C19.65 10.5414 19.8686 10.632 20.0296 10.7931L20.5159 10.307ZM20.9689 11.4008C20.9689 10.9906 20.8058 10.5971 20.5159 10.307L20.0296 10.7931C20.1908 10.9543 20.2814 11.1729 20.2814 11.4008H20.9689ZM20.5159 12.4946C20.8058 12.2045 20.9689 11.8111 20.9689 11.4008H20.2814C20.2814 11.6287 20.1908 11.8473 20.0296 12.0085L20.5159 12.4946ZM19.422 12.9477C19.8323 12.9477 20.2257 12.7847 20.5159 12.4946L20.0296 12.0085C19.8686 12.1696 19.65 12.2602 19.422 12.2602V12.9477ZM7.79178 12.9477H19.422V12.2602H7.79178V12.9477ZM6.69797 12.4946C6.98808 12.7847 7.38152 12.9477 7.79178 12.9477V12.2602C7.56386 12.2602 7.34527 12.1696 7.1841 12.0085L6.69797 12.4946ZM6.24491 11.4008C6.24491 11.8111 6.40788 12.2045 6.69797 12.4946L7.1841 12.0085C7.02295 11.8473 6.93241 11.6287 6.93241 11.4008H6.24491ZM6.69797 10.307C6.40788 10.5971 6.24491 10.9906 6.24491 11.4008H6.93241C6.93241 11.1729 7.02295 10.9543 7.1841 10.7931L6.69797 10.307ZM7.79178 9.85394C7.38152 9.85394 6.98808 10.0169 6.69797 10.307L7.1841 10.7931C7.34527 10.632 7.56386 10.5414 7.79178 10.5414V9.85394ZM7.79178 16.5H19.422V15.8125H7.79178V16.5ZM7.1841 16.7517C7.34527 16.5905 7.56386 16.5 7.79178 16.5V15.8125C7.38152 15.8125 6.98806 15.9755 6.69797 16.2656L7.1841 16.7517ZM6.93241 17.3594C6.93241 17.1315 7.02293 16.9129 7.1841 16.7517L6.69797 16.2656C6.40788 16.5557 6.24491 16.9491 6.24491 17.3594H6.93241ZM7.18412 17.9671C7.02295 17.8059 6.93241 17.5873 6.93241 17.3594H6.24491C6.24491 17.7696 6.40788 18.1631 6.69797 18.4532L7.18412 17.9671ZM7.79178 18.2188C7.56386 18.2188 7.34528 18.1282 7.18412 17.9671L6.69797 18.4532C6.98806 18.7433 7.38152 18.9062 7.79178 18.9062V18.2188ZM19.422 18.2188H7.79178V18.9062H19.422V18.2188ZM20.0296 17.9671C19.8684 18.1282 19.65 18.2188 19.422 18.2188V18.9062C19.8323 18.9062 20.2257 18.7433 20.5159 18.4532L20.0296 17.9671ZM20.2814 17.3594C20.2814 17.5873 20.1908 17.8059 20.0296 17.9671L20.5159 18.4532C20.8058 18.1631 20.9689 17.7696 20.9689 17.3594H20.2814ZM20.0296 16.7517C20.1908 16.9129 20.2814 17.1315 20.2814 17.3594H20.9689C20.9689 16.9491 20.8058 16.5557 20.5159 16.2656L20.0296 16.7517ZM19.422 16.5C19.65 16.5 19.8684 16.5905 20.0296 16.7517L20.5159 16.2656C20.2257 15.9755 19.8323 15.8125 19.422 15.8125V16.5ZM5.04166 10.9998C5.04166 11.9174 4.2978 12.6612 3.38021 12.6612V13.3487C4.67751 13.3487 5.72916 12.2971 5.72916 10.9998H5.04166ZM3.38021 9.33831C4.2978 9.33831 5.04166 10.0822 5.04166 10.9998H5.72916C5.72916 9.70248 4.67751 8.65081 3.38021 8.65081V9.33831ZM1.71875 10.9998C1.71875 10.0822 2.46261 9.33831 3.38021 9.33831V8.65081C2.08292 8.65081 1.03125 9.70248 1.03125 10.9998H1.71875ZM3.38021 12.6612C2.46261 12.6612 1.71875 11.9174 1.71875 10.9998H1.03125C1.03125 12.2971 2.08292 13.3487 3.38021 13.3487V12.6612ZM3.38021 19.3072C4.67751 19.3072 5.72916 18.2557 5.72916 16.9583H5.04166C5.04166 17.8759 4.2978 18.6197 3.38021 18.6197V19.3072ZM1.03125 16.9583C1.03125 18.2557 2.08292 19.3072 3.38021 19.3072V18.6197C2.46261 18.6197 1.71875 17.8759 1.71875 16.9583H1.03125ZM3.38021 14.6094C2.08292 14.6094 1.03125 15.661 1.03125 16.9583H1.71875C1.71875 16.0407 2.46261 15.2969 3.38021 15.2969V14.6094ZM5.72916 16.9583C5.72916 15.661 4.67751 14.6094 3.38021 14.6094V15.2969C4.2978 15.2969 5.04166 16.0407 5.04166 16.9583H5.72916Z" fill="url(#paint1_linear_451_2288)"/>
<defs>
<linearGradient id="paint0_linear_451_2288" x1="20.6252" y1="11.3307" x2="6.26916" y2="13.4122" gradientUnits="userSpaceOnUse">
<stop stop-color="#BE41B4"/>
<stop offset="1" stop-color="#FE1FE8"/>
</linearGradient>
<linearGradient id="paint1_linear_451_2288" x1="20.6252" y1="11.3307" x2="6.26916" y2="13.4122" gradientUnits="userSpaceOnUse">
<stop stop-color="#BE41B4"/>
<stop offset="1" stop-color="#FE1FE8"/>
</linearGradient>
</defs>
</svg>
