<svg width="22" height="22" viewBox="0 0 22 22" fill="none" xmlns="http://www.w3.org/2000/svg">
<path d="M2.40625 2.0625C2.2164 2.0625 2.0625 2.2164 2.0625 2.40625V7.67707C2.0625 7.86692 2.2164 8.02082 2.40625 8.02082H7.67707C7.86692 8.02082 8.02082 7.86692 8.02082 7.67707V2.40625C8.02082 2.2164 7.86692 2.0625 7.67707 2.0625H2.40625ZM9.85418 2.0625C9.66433 2.0625 9.51043 2.2164 9.51043 2.40625V4.69793C9.51043 4.88778 9.66433 5.04168 9.85418 5.04168H10.6562C10.8461 5.04168 11 4.88778 11 4.69793V3.89582C11 3.70597 11.1539 3.55207 11.3438 3.55207H12.1458C12.3357 3.55207 12.4896 3.39818 12.4896 3.20833V2.40625C12.4896 2.2164 12.3357 2.0625 12.1458 2.0625H11H9.85418ZM11.3438 5.04168C11.1539 5.04168 11 5.19558 11 5.38543V7.67707C11 7.86692 11.1539 8.02082 11.3438 8.02082H12.1458C12.3357 8.02082 12.4896 7.86692 12.4896 7.67707V5.38543C12.4896 5.19558 12.3357 5.04168 12.1458 5.04168H11.3438ZM11 8.36457C11 8.17472 10.8461 8.02082 10.6562 8.02082H9.85418C9.66433 8.02082 9.51043 8.17472 9.51043 8.36457V9.16668C9.51043 9.35653 9.66433 9.51043 9.85418 9.51043H10.6562C10.8461 9.51043 11 9.35653 11 9.16668V8.36457ZM11.3438 9.51043C11.1539 9.51043 11 9.66433 11 9.85418V10.6562C11 10.8461 11.1539 11 11.3438 11H12.1458C12.3357 11 12.4896 10.8461 12.4896 10.6562V9.85418C12.4896 9.66433 12.3357 9.51043 12.1458 9.51043H11.3438ZM12.8333 11C12.6435 11 12.4896 11.1539 12.4896 11.3438V12.1458C12.4896 12.3357 12.6435 12.4896 12.8333 12.4896H15.125C15.3149 12.4896 15.4688 12.3357 15.4688 12.1458V9.85418C15.4688 9.66433 15.3149 9.51043 15.125 9.51043H14.3229C14.1331 9.51043 13.9792 9.66433 13.9792 9.85418V10.6562C13.9792 10.8461 13.8253 11 13.6354 11H12.8333ZM15.8125 12.4896C15.6226 12.4896 15.4688 12.6435 15.4688 12.8333V13.6354C15.4688 13.8253 15.6226 13.9792 15.8125 13.9792H16.6146C16.8044 13.9792 16.9583 14.1331 16.9583 14.3229V15.125C16.9583 15.3149 17.1123 15.4688 17.3021 15.4688H18.1042C18.294 15.4688 18.4479 15.3149 18.4479 15.125V12.8333C18.4479 12.6435 18.294 12.4896 18.1042 12.4896H15.8125ZM18.4479 12.1458C18.4479 12.3357 18.6018 12.4896 18.7917 12.4896H19.5938C19.7836 12.4896 19.9375 12.3357 19.9375 12.1458V11V9.85418C19.9375 9.66433 19.7836 9.51043 19.5938 9.51043H17.3021C17.1123 9.51043 16.9583 9.66433 16.9583 9.85418V10.6562C16.9583 10.8461 17.1123 11 17.3021 11H18.1042C18.294 11 18.4479 11.1539 18.4479 11.3438V12.1458ZM15.4688 14.3229C15.4688 14.1331 15.3149 13.9792 15.125 13.9792H14.3229C14.1331 13.9792 13.9792 14.1331 13.9792 14.3229V15.125C13.9792 15.3149 14.1331 15.4688 14.3229 15.4688H15.125C15.3149 15.4688 15.4688 15.3149 15.4688 15.125V14.3229ZM13.9792 15.8125C13.9792 15.6226 13.8253 15.4688 13.6354 15.4688H12.8333C12.6435 15.4688 12.4896 15.6226 12.4896 15.8125V16.6146C12.4896 16.8044 12.6435 16.9583 12.8333 16.9583H13.6354C13.8253 16.9583 13.9792 16.8044 13.9792 16.6146V15.8125ZM14.3229 16.9583C14.1331 16.9583 13.9792 17.1123 13.9792 17.3021V18.1042C13.9792 18.294 14.1331 18.4479 14.3229 18.4479H15.125C15.3149 18.4479 15.4688 18.294 15.4688 18.1042V17.3021C15.4688 17.1123 15.3149 16.9583 15.125 16.9583H14.3229ZM15.8125 18.4479C15.6226 18.4479 15.4688 18.6018 15.4688 18.7917V19.5938C15.4688 19.7836 15.6226 19.9375 15.8125 19.9375H16.6146C16.8044 19.9375 16.9583 19.7836 16.9583 19.5938V18.7917C16.9583 18.6018 16.8044 18.4479 16.6146 18.4479H15.8125ZM16.9583 18.1042C16.9583 18.294 17.1123 18.4479 17.3021 18.4479H19.5938C19.7836 18.4479 19.9375 18.294 19.9375 18.1042V17.3021C19.9375 17.1123 19.7836 16.9583 19.5938 16.9583H17.3021C17.1123 16.9583 16.9583 17.1123 16.9583 17.3021V18.1042ZM12.4896 17.3021C12.4896 17.1123 12.3357 16.9583 12.1458 16.9583H9.85418C9.66433 16.9583 9.51043 17.1123 9.51043 17.3021V18.1042C9.51043 18.294 9.66433 18.4479 9.85418 18.4479H10.6562C10.8461 18.4479 11 18.6018 11 18.7917V19.5938C11 19.7836 11.1539 19.9375 11.3438 19.9375H12.1458C12.3357 19.9375 12.4896 19.7836 12.4896 19.5938V18.4479V17.3021ZM12.1458 15.4688C12.3357 15.4688 12.4896 15.3149 12.4896 15.125V12.8333C12.4896 12.6435 12.3357 12.4896 12.1458 12.4896H9.85418C9.66433 12.4896 9.51043 12.6435 9.51043 12.8333V13.6354C9.51043 13.8253 9.66433 13.9792 9.85418 13.9792H10.6562C10.8461 13.9792 11 14.1331 11 14.3229V15.125C11 15.3149 11.1539 15.4688 11.3438 15.4688H12.1458ZM9.16668 12.4896C9.35653 12.4896 9.51043 12.3357 9.51043 12.1458V9.85418C9.51043 9.66433 9.35653 9.51043 9.16668 9.51043H8.36457C8.17472 9.51043 8.02082 9.66433 8.02082 9.85418V10.6562C8.02082 10.8461 7.86692 11 7.67707 11H6.875C6.68515 11 6.53125 11.1539 6.53125 11.3438V12.1458C6.53125 12.3357 6.68515 12.4896 6.875 12.4896H9.16668ZM6.1875 11C6.37735 11 6.53125 10.8461 6.53125 10.6562V9.85418C6.53125 9.66433 6.37735 9.51043 6.1875 9.51043H5.04168H2.40625C2.2164 9.51043 2.0625 9.66433 2.0625 9.85418V12.1458C2.0625 12.3357 2.2164 12.4896 2.40625 12.4896H4.69793C4.88778 12.4896 5.04168 12.3357 5.04168 12.1458V11.3438C5.04168 11.1539 5.19558 11 5.38543 11H6.1875ZM14.3229 2.0625C14.1331 2.0625 13.9792 2.2164 13.9792 2.40625V7.67707C13.9792 7.86692 14.1331 8.02082 14.3229 8.02082H19.5938C19.7836 8.02082 19.9375 7.86692 19.9375 7.67707V2.40625C19.9375 2.2164 19.7836 2.0625 19.5938 2.0625H14.3229ZM3.55207 3.89582C3.55207 3.70597 3.70597 3.55207 3.89582 3.55207H6.1875C6.37735 3.55207 6.53125 3.70597 6.53125 3.89582V6.1875C6.53125 6.37735 6.37735 6.53125 6.1875 6.53125H3.89582C3.70597 6.53125 3.55207 6.37735 3.55207 6.1875V3.89582ZM15.4688 3.89582C15.4688 3.70597 15.6226 3.55207 15.8125 3.55207H18.1042C18.294 3.55207 18.4479 3.70597 18.4479 3.89582V6.1875C18.4479 6.37735 18.294 6.53125 18.1042 6.53125H15.8125C15.6226 6.53125 15.4688 6.37735 15.4688 6.1875V3.89582ZM4.64062 4.29688C4.45077 4.29688 4.29688 4.45077 4.29688 4.64062V5.4427C4.29688 5.63255 4.45077 5.78645 4.64062 5.78645H5.4427C5.63255 5.78645 5.78645 5.63255 5.78645 5.4427V4.64062C5.78645 4.45077 5.63255 4.29688 5.4427 4.29688H4.64062ZM16.5573 4.29688C16.3674 4.29688 16.2136 4.45077 16.2136 4.64062V5.4427C16.2136 5.63255 16.3674 5.78645 16.5573 5.78645H17.3594C17.5492 5.78645 17.7031 5.63255 17.7031 5.4427V4.64062C17.7031 4.45077 17.5492 4.29688 17.3594 4.29688H16.5573ZM2.40625 13.9792C2.2164 13.9792 2.0625 14.1331 2.0625 14.3229V19.5938C2.0625 19.7836 2.2164 19.9375 2.40625 19.9375H7.67707C7.86692 19.9375 8.02082 19.7836 8.02082 19.5938V14.3229C8.02082 14.1331 7.86692 13.9792 7.67707 13.9792H2.40625ZM3.55207 15.8125C3.55207 15.6226 3.70597 15.4688 3.89582 15.4688H6.1875C6.37735 15.4688 6.53125 15.6226 6.53125 15.8125V18.1042C6.53125 18.294 6.37735 18.4479 6.1875 18.4479H3.89582C3.70597 18.4479 3.55207 18.294 3.55207 18.1042V15.8125ZM4.64062 16.2136C4.45077 16.2136 4.29688 16.3674 4.29688 16.5573V17.3594C4.29688 17.5492 4.45077 17.7031 4.64062 17.7031H5.4427C5.63255 17.7031 5.78645 17.5492 5.78645 17.3594V16.5573C5.78645 16.3674 5.63255 16.2136 5.4427 16.2136H4.64062Z" fill="url(#paint0_linear_451_2341)" stroke="url(#paint1_linear_451_2341)" stroke-width="0.4"/>
<defs>
<linearGradient id="paint0_linear_451_2341" x1="11" y1="19.9375" x2="11" y2="2.0625" gradientUnits="userSpaceOnUse">
<stop stop-color="#FD2E00"/>
<stop offset="1" stop-color="#FF9900"/>
</linearGradient>
<linearGradient id="paint1_linear_451_2341" x1="11" y1="19.9375" x2="11" y2="2.0625" gradientUnits="userSpaceOnUse">
<stop stop-color="#FD2E00"/>
<stop offset="1" stop-color="#FF9900"/>
</linearGradient>
</defs>
</svg>
