<svg width="22" height="22" viewBox="0 0 22 22" fill="none" xmlns="http://www.w3.org/2000/svg">
<g clip-path="url(#clip0_451_2305)">
<path fill-rule="evenodd" clip-rule="evenodd" d="M15.0103 1.375H16.2135C17.3831 1.37627 18.5044 1.84147 19.3315 2.6685C20.1585 3.49552 20.6236 4.61685 20.6248 5.78646V6.98959C20.6248 7.30867 20.4982 7.6147 20.2725 7.84032C20.0468 8.06596 19.7409 8.19271 19.4219 8.19271C19.1027 8.19271 18.7968 8.06596 18.5711 7.84032C18.3454 7.6147 18.2188 7.30867 18.2188 6.98959V5.78646C18.2188 5.25465 18.0073 4.74461 17.6313 4.36856C17.2554 3.99252 16.7453 3.78125 16.2135 3.78125H15.0103C14.6913 3.78125 14.3853 3.65449 14.1596 3.42885C13.934 3.20323 13.8072 2.89721 13.8072 2.57812C13.8072 2.25904 13.934 1.95302 14.1596 1.7274C14.3853 1.50176 14.6913 1.375 15.0103 1.375ZM5.78646 1.37501H6.98959C7.30867 1.37501 7.6147 1.50176 7.84034 1.7274C8.06596 1.95302 8.19271 2.25904 8.19271 2.57812C8.19271 2.89723 8.06596 3.20323 7.84034 3.42887C7.6147 3.65449 7.30867 3.78125 6.98959 3.78125H5.78646C5.25465 3.78125 4.74461 3.99252 4.36856 4.36856C3.99252 4.74461 3.78125 5.25465 3.78125 5.78646V6.98959C3.78125 7.30867 3.65449 7.6147 3.42887 7.84034C3.20323 8.06596 2.89723 8.19271 2.57812 8.19271C2.25904 8.19271 1.95302 8.06596 1.7274 7.84034C1.50176 7.6147 1.37501 7.30867 1.37501 6.98959V5.78646C1.37628 4.61687 1.84147 3.49552 2.6685 2.6685C3.49552 1.84147 4.61687 1.37628 5.78646 1.37501ZM18.5711 14.1598C18.7968 13.9342 19.1027 13.8074 19.4219 13.8074C19.7409 13.8074 20.0468 13.9342 20.2725 14.1598C20.4982 14.3854 20.6248 14.6914 20.6248 15.0105V16.2137C20.6236 17.3833 20.1585 18.5046 19.3315 19.3316C18.5044 20.1587 17.3831 20.6238 16.2135 20.6252H15.0103C14.6913 20.6252 14.3853 20.4983 14.1596 20.2727C13.934 20.0472 13.8072 19.741 13.8072 19.422C13.8072 19.1029 13.934 18.7969 14.1596 18.5713C14.3853 18.3456 14.6913 18.2189 15.0103 18.2189H16.2135C16.7453 18.2189 17.2554 18.0077 17.6313 17.6316C18.0073 17.2556 18.2188 16.7455 18.2188 16.2137V15.0105C18.2188 14.6914 18.3454 14.3854 18.5711 14.1598ZM6.98959 18.2189H5.78646C5.25465 18.2189 4.74461 18.0077 4.36856 17.6316C3.99252 17.2556 3.78125 16.7455 3.78125 16.2137V15.0105C3.78125 14.6914 3.65449 14.3854 3.42885 14.1598C3.20323 13.9342 2.89721 13.8074 2.57812 13.8074C2.25904 13.8074 1.95302 13.9342 1.7274 14.1598C1.50176 14.3854 1.375 14.6914 1.375 15.0105V16.2137C1.37627 17.3833 1.84147 18.5046 2.6685 19.3316C3.49552 20.1587 4.61685 20.6238 5.78646 20.6252H6.98959C7.30867 20.6252 7.6147 20.4983 7.84032 20.2727C8.06596 20.0472 8.19271 19.741 8.19271 19.422C8.19271 19.1029 8.06596 18.7969 7.84032 18.5713C7.6147 18.3456 7.30867 18.2189 6.98959 18.2189Z" fill="url(#paint0_linear_451_2305)" stroke="url(#paint1_linear_451_2305)"/>
</g>
<defs>
<linearGradient id="paint0_linear_451_2305" x1="10.1629" y1="20.1082" x2="12.3378" y2="2.71365" gradientUnits="userSpaceOnUse">
<stop stop-color="#8D01A2"/>
<stop offset="1" stop-color="#FF33DB"/>
</linearGradient>
<linearGradient id="paint1_linear_451_2305" x1="10.1629" y1="20.1082" x2="12.3378" y2="2.71365" gradientUnits="userSpaceOnUse">
<stop stop-color="#8D01A2"/>
<stop offset="1" stop-color="#FF33DB"/>
</linearGradient>
<clipPath id="clip0_451_2305">
<rect width="22" height="22" fill="white"/>
</clipPath>
</defs>
</svg>
