<svg width="22" height="22" viewBox="0 0 22 22" fill="none" xmlns="http://www.w3.org/2000/svg">
<path d="M2.75 1.375C1.99061 1.375 1.375 1.99061 1.375 2.75V19.25C1.375 20.0094 1.99061 20.625 2.75 20.625H19.25C20.0094 20.625 20.625 20.0094 20.625 19.25V2.75C20.625 1.99061 20.0094 1.375 19.25 1.375H2.75ZM2.97917 5.95833C2.97917 5.19894 3.59477 4.58333 4.35417 4.58333H4.8125C5.57189 4.58333 6.1875 5.19894 6.1875 5.95833V17.6458C6.1875 18.4052 5.57189 19.0208 4.8125 19.0208H4.35417C3.59477 19.0208 2.97917 18.4052 2.97917 17.6458V5.95833ZM7.79167 5.95833C7.79167 5.19894 8.40727 4.58333 9.16667 4.58333H17.6458C18.4052 4.58333 19.0208 5.19894 19.0208 5.95833V17.6458C19.0208 18.4052 18.4052 19.0208 17.6458 19.0208H9.16667C8.40727 19.0208 7.79167 18.4052 7.79167 17.6458V5.95833Z" fill="url(#paint0_linear_451_2211)" stroke="url(#paint1_linear_451_2211)" stroke-width="0.6"/>
<path d="M11.9151 11.3162L10.5539 9.955C10.2854 9.68652 10.2854 9.25122 10.5539 8.98273L10.7484 8.78828C11.0168 8.51979 11.4521 8.51979 11.7206 8.78828L13.0818 10.1495C13.3503 10.4179 13.7855 10.4179 14.054 10.1495L15.4152 8.78828C15.6837 8.51979 16.119 8.51979 16.3874 8.78828L16.582 8.98273C16.8504 9.25122 16.8504 9.68652 16.582 9.955L15.2207 11.3162C14.9522 11.5847 14.9522 12.02 15.2207 12.2885L16.582 13.6496C16.8504 13.918 16.8504 14.3534 16.582 14.6219L16.3874 14.8163C16.119 15.0849 15.6837 15.0849 15.4152 14.8163L14.054 13.4552C13.7855 13.1867 13.3503 13.1867 13.0818 13.4552L11.7206 14.8163C11.4521 15.0849 11.0168 15.0849 10.7484 14.8163L10.5539 14.6219C10.2854 14.3534 10.2854 13.918 10.5539 13.6496L11.9151 12.2885C12.1836 12.02 12.1836 11.5847 11.9151 11.3162Z" fill="url(#paint2_linear_451_2211)" stroke="url(#paint3_linear_451_2211)"/>
<defs>
<linearGradient id="paint0_linear_451_2211" x1="19.9746" y1="1.92522" x2="12.4663" y2="20.7786" gradientUnits="userSpaceOnUse">
<stop stop-color="#FE0F7C"/>
<stop offset="1" stop-color="#DF0066"/>
</linearGradient>
<linearGradient id="paint1_linear_451_2211" x1="19.9746" y1="1.92522" x2="12.4663" y2="20.7786" gradientUnits="userSpaceOnUse">
<stop stop-color="#FE0F7C"/>
<stop offset="1" stop-color="#DF0066"/>
</linearGradient>
<linearGradient id="paint2_linear_451_2211" x1="13.5376" y1="6.33251" x2="16.9756" y2="14.3213" gradientUnits="userSpaceOnUse">
<stop stop-color="#FE0F7C"/>
<stop offset="1" stop-color="#DF0066"/>
</linearGradient>
<linearGradient id="paint3_linear_451_2211" x1="13.5376" y1="6.33251" x2="16.9756" y2="14.3213" gradientUnits="userSpaceOnUse">
<stop stop-color="#FE0F7C"/>
<stop offset="1" stop-color="#DF0066"/>
</linearGradient>
</defs>
</svg>
