<svg width="22" height="22" viewBox="0 0 22 22" fill="none" xmlns="http://www.w3.org/2000/svg">
<path fill-rule="evenodd" clip-rule="evenodd" d="M10.9992 3.60938C14.5803 3.64298 17.9058 5.47073 19.8535 8.47595C20.8821 9.98345 20.8821 11.9672 19.8535 13.4748C17.9058 16.48 14.5803 18.3078 10.9992 18.3413C7.41718 18.3066 4.09155 16.477 2.14485 13.4699C1.11838 11.9635 1.11838 9.98236 2.14485 8.47595C4.09265 5.47073 7.41809 3.64298 10.9992 3.60938ZM10.9992 15.9226C13.7875 15.9019 16.3733 14.4628 17.8604 12.1041C18.3241 11.423 18.3241 10.5277 17.8604 9.8466C16.3733 7.48789 13.7874 6.04878 10.9992 6.02815C8.21083 6.04883 5.62497 7.48789 4.13789 9.8466C3.67428 10.5277 3.67428 11.423 4.13789 12.1041C5.62502 14.4628 8.21088 15.9019 10.9992 15.9226ZM14.2245 10.9752C14.2245 12.7564 12.7806 14.2003 10.9995 14.2003C9.21838 14.2003 7.77449 12.7564 7.77449 10.9752C7.77449 9.19413 9.21838 7.75024 10.9995 7.75024C12.7806 7.75024 14.2245 9.19413 14.2245 10.9752Z" fill="url(#paint0_linear_451_2175)"/>
<path d="M19.8535 8.47595L19.7093 8.56943L19.7105 8.57115L19.7115 8.57283L19.8535 8.47595ZM10.9992 3.60938L11.0008 3.4375H10.9992H10.9975L10.9992 3.60938ZM19.8535 13.4748L19.7115 13.3779L19.7105 13.3796L19.7093 13.3813L19.8535 13.4748ZM10.9992 18.3413L10.9975 18.5132H10.9992H11.0008L10.9992 18.3413ZM2.14485 13.4699L2.28914 13.3765L2.28804 13.3748L2.28688 13.3731L2.14485 13.4699ZM2.14485 8.47595L2.28688 8.57273L2.288 8.5711L2.28908 8.56943L2.14485 8.47595ZM17.8604 12.1041L17.7184 12.0074L17.7167 12.0099L17.715 12.0124L17.8604 12.1041ZM10.9992 15.9226L10.9979 16.0944H10.9992H11.0004L10.9992 15.9226ZM17.8604 9.8466L17.715 9.93828L17.7167 9.94082L17.7184 9.94331L17.8604 9.8466ZM10.9992 6.02815L11.0004 5.85628L10.9992 5.85626L10.9979 5.85628L10.9992 6.02815ZM4.13789 9.8466L4.27996 9.94331L4.28167 9.94082L4.28328 9.93828L4.13789 9.8466ZM4.13789 12.1041L4.28328 12.0124L4.28167 12.0099L4.27996 12.0074L4.13789 12.1041ZM19.9977 8.38246C18.0185 5.32885 14.6396 3.47165 11.0008 3.4375L10.9975 3.78125C14.521 3.8143 17.7928 5.61263 19.7093 8.56943L19.9977 8.38246ZM19.9956 13.5716C21.064 12.0057 21.064 9.94501 19.9954 8.37908L19.7115 8.57283C20.7003 10.0219 20.7003 11.9288 19.7115 13.3779L19.9956 13.5716ZM11.0008 18.5132C14.6396 18.4791 18.0185 16.6219 19.9978 13.5682L19.7093 13.3813C17.7928 16.3381 14.521 18.1364 10.9976 18.1694L11.0008 18.5132ZM2.00058 13.5633C3.97863 16.6188 7.35782 18.4779 10.9975 18.5132L11.0009 18.1694C7.47653 18.1354 4.20448 16.3352 2.28914 13.3765L2.00058 13.5633ZM2.00281 8.37916C0.936563 9.94397 0.936564 12.0019 2.00281 13.5667L2.28688 13.3731C1.30021 11.9251 1.30021 10.0208 2.28688 8.57273L2.00281 8.37916ZM10.9975 3.4375C7.3588 3.47165 3.97978 5.32885 2.00063 8.38246L2.28908 8.56943C4.20551 5.61263 7.47737 3.8143 11.0008 3.78125L10.9975 3.4375ZM17.715 12.0124C16.2592 14.3216 13.7276 15.7305 10.9979 15.7507L11.0004 16.0944C13.8473 16.0733 16.4875 14.604 18.0058 12.1958L17.715 12.0124ZM17.7184 9.94331C18.1423 10.566 18.1423 11.3846 17.7184 12.0074L18.0025 12.2008C18.5058 11.4614 18.5058 10.4893 18.0025 9.74988L17.7184 9.94331ZM10.9979 6.20001C13.7276 6.22022 16.2592 7.62908 17.715 9.93828L18.0058 9.75494C16.4875 7.34668 13.8473 5.87735 11.0004 5.85628L10.9979 6.20001ZM4.28328 9.93828C5.73913 7.62908 8.27068 6.22026 11.0004 6.20001L10.9979 5.85628C8.151 5.87739 5.51083 7.34668 3.99249 9.75494L4.28328 9.93828ZM4.27996 12.0074C3.85609 11.3846 3.85609 10.566 4.27996 9.94331L3.9958 9.74988C3.49247 10.4893 3.49247 11.4614 3.9958 12.2008L4.27996 12.0074ZM11.0004 15.7507C8.27071 15.7305 5.73917 14.3216 4.28328 12.0124L3.9925 12.1958C5.51086 14.604 8.15104 16.0734 10.9979 16.0944L11.0004 15.7507ZM10.9995 14.3722C12.8756 14.3722 14.3964 12.8513 14.3964 10.9752H14.0527C14.0527 12.6615 12.6857 14.0284 10.9995 14.0284V14.3722ZM7.60262 10.9752C7.60262 12.8513 9.12345 14.3722 10.9995 14.3722V14.0284C9.31331 14.0284 7.94637 12.6615 7.94637 10.9752H7.60262ZM10.9995 7.57836C9.12345 7.57836 7.60262 9.0992 7.60262 10.9752H7.94637C7.94637 9.28905 9.31331 7.92211 10.9995 7.92211V7.57836ZM14.3964 10.9752C14.3964 9.0992 12.8756 7.57836 10.9995 7.57836V7.92211C12.6857 7.92211 14.0527 9.28905 14.0527 10.9752H14.3964Z" fill="url(#paint1_linear_451_2175)"/>
<defs>
<linearGradient id="paint0_linear_451_2175" x1="11" y1="18.3413" x2="11" y2="3.60938" gradientUnits="userSpaceOnUse">
<stop stop-color="#02AA93"/>
<stop offset="1" stop-color="#67FF80"/>
</linearGradient>
<linearGradient id="paint1_linear_451_2175" x1="11" y1="18.3413" x2="11" y2="3.60938" gradientUnits="userSpaceOnUse">
<stop stop-color="#02AA93"/>
<stop offset="1" stop-color="#67FF80"/>
</linearGradient>
</defs>
</svg>
