<svg width="22" height="22" viewBox="0 0 22 22" fill="none" xmlns="http://www.w3.org/2000/svg">
<path d="M2.75 1.375C1.99061 1.375 1.375 1.99061 1.375 2.75V19.25C1.375 20.0094 1.99061 20.625 2.75 20.625H19.25C20.0094 20.625 20.625 20.0094 20.625 19.25V2.75C20.625 1.99061 20.0094 1.375 19.25 1.375H2.75ZM2.97917 5.95833C2.97917 5.19894 3.59477 4.58333 4.35417 4.58333H4.8125C5.57189 4.58333 6.1875 5.19894 6.1875 5.95833V17.6458C6.1875 18.4052 5.57189 19.0208 4.8125 19.0208H4.35417C3.59477 19.0208 2.97917 18.4052 2.97917 17.6458V5.95833ZM7.79167 5.95833C7.79167 5.19894 8.40727 4.58333 9.16667 4.58333H17.6458C18.4052 4.58333 19.0208 5.19894 19.0208 5.95833V17.6458C19.0208 18.4052 18.4052 19.0208 17.6458 19.0208H9.16667C8.40727 19.0208 7.79167 18.4052 7.79167 17.6458V5.95833Z" fill="url(#paint0_linear_451_2204)" stroke="url(#paint1_linear_451_2204)" stroke-width="0.6"/>
<path d="M12.6048 10.3128V8.47949C12.6048 8.0998 12.9126 7.79199 13.2923 7.79199H13.5215C13.9011 7.79199 14.209 8.0998 14.209 8.47949V10.3128C14.209 10.6925 14.5169 11.0003 14.8965 11.0003H16.7298C17.1096 11.0003 17.4173 11.3081 17.4173 11.6878V11.917C17.4173 12.2967 17.1096 12.6045 16.7298 12.6045H14.8965C14.5169 12.6045 14.209 12.9123 14.209 13.292V15.1253C14.209 15.5049 13.9011 15.8128 13.5215 15.8128H13.2923C12.9126 15.8128 12.6048 15.5049 12.6048 15.1253V13.292C12.6048 12.9123 12.297 12.6045 11.9173 12.6045H10.084C9.70428 12.6045 9.39648 12.2967 9.39648 11.917V11.6878C9.39648 11.3081 9.70428 11.0003 10.084 11.0003H11.9173C12.297 11.0003 12.6048 10.6925 12.6048 10.3128Z" fill="url(#paint2_linear_451_2204)" stroke="url(#paint3_linear_451_2204)"/>
<defs>
<linearGradient id="paint0_linear_451_2204" x1="11" y1="1.375" x2="11" y2="20.625" gradientUnits="userSpaceOnUse">
<stop stop-color="#97EB0E"/>
<stop offset="1" stop-color="#19B90B"/>
</linearGradient>
<linearGradient id="paint1_linear_451_2204" x1="11" y1="1.375" x2="11" y2="20.625" gradientUnits="userSpaceOnUse">
<stop stop-color="#97EB0E"/>
<stop offset="1" stop-color="#19B90B"/>
</linearGradient>
<linearGradient id="paint2_linear_451_2204" x1="13.4069" y1="7.79199" x2="13.4069" y2="15.8128" gradientUnits="userSpaceOnUse">
<stop stop-color="#97EB0E"/>
<stop offset="1" stop-color="#19B90B"/>
</linearGradient>
<linearGradient id="paint3_linear_451_2204" x1="13.4069" y1="7.79199" x2="13.4069" y2="15.8128" gradientUnits="userSpaceOnUse">
<stop stop-color="#97EB0E"/>
<stop offset="1" stop-color="#19B90B"/>
</linearGradient>
</defs>
</svg>
