<svg width="22" height="22" viewBox="0 0 22 22" fill="none" xmlns="http://www.w3.org/2000/svg">
<path d="M7.44479 4.125H2.55588C2.06497 4.125 1.66699 4.53541 1.66699 5.04166V11.4583C1.66699 11.9646 2.06497 12.375 2.55588 12.375H7.44479C7.93573 12.375 8.33366 11.9646 8.33366 11.4583V5.04166C8.33366 4.53541 7.93573 4.125 7.44479 4.125Z" fill="url(#paint0_linear_451_2243)"/>
<path d="M2.55588 17.875H19.4448C19.9357 17.875 20.3337 17.4646 20.3337 16.9584V16.0416C20.3337 15.5354 19.9357 15.125 19.4448 15.125H2.55588C2.06497 15.125 1.66699 15.5354 1.66699 16.0416V16.9584C1.66699 17.4646 2.06497 17.875 2.55588 17.875Z" fill="url(#paint1_linear_451_2243)"/>
<path d="M11.8889 12.375H19.4444C19.9353 12.375 20.3333 11.9646 20.3333 11.4584V10.5416C20.3333 10.0354 19.9353 9.625 19.4444 9.625H11.8889C11.3979 9.625 11 10.0354 11 10.5416V11.4584C11 11.9646 11.3979 12.375 11.8889 12.375Z" fill="url(#paint2_linear_451_2243)"/>
<path d="M11.8889 6.87499H19.4444C19.9353 6.87499 20.3333 6.4646 20.3333 5.95833V5.04166C20.3333 4.53541 19.9353 4.125 19.4444 4.125H11.8889C11.3979 4.125 11 4.53541 11 5.04166V5.95833C11 6.4646 11.3979 6.87499 11.8889 6.87499Z" fill="url(#paint3_linear_451_2243)"/>
<defs>
<linearGradient id="paint0_linear_451_2243" x1="11.0003" y1="17.875" x2="11.0003" y2="4.125" gradientUnits="userSpaceOnUse">
<stop stop-color="#5570FF"/>
<stop offset="1" stop-color="#4DD3FF"/>
</linearGradient>
<linearGradient id="paint1_linear_451_2243" x1="11.0003" y1="17.875" x2="11.0003" y2="4.12502" gradientUnits="userSpaceOnUse">
<stop stop-color="#5570FF"/>
<stop offset="1" stop-color="#4DD3FF"/>
</linearGradient>
<linearGradient id="paint2_linear_451_2243" x1="11" y1="17.875" x2="11" y2="4.12501" gradientUnits="userSpaceOnUse">
<stop stop-color="#5570FF"/>
<stop offset="1" stop-color="#4DD3FF"/>
</linearGradient>
<linearGradient id="paint3_linear_451_2243" x1="11" y1="17.875" x2="11" y2="4.125" gradientUnits="userSpaceOnUse">
<stop stop-color="#5570FF"/>
<stop offset="1" stop-color="#4DD3FF"/>
</linearGradient>
</defs>
</svg>
