<svg width="22" height="22" viewBox="0 0 22 22" fill="none" xmlns="http://www.w3.org/2000/svg">
<path fill-rule="evenodd" clip-rule="evenodd" d="M0 2.17251C0 1.73206 0.35706 1.375 0.797507 1.375H6.6459C7.08635 1.375 7.44341 1.73206 7.44341 2.17251V2.43837C7.44341 2.87882 7.08635 3.23587 6.6459 3.23587H0.797507C0.35706 3.23587 0 2.87882 0 2.43837V2.17251ZM0 19.1861C0 19.6265 0.35706 19.9836 0.797507 19.9836H8.50674C8.94721 19.9836 9.30425 19.6265 9.30425 19.1861V18.9201C9.30425 18.4797 8.94721 18.1226 8.50674 18.1226H0.797507C0.35706 18.1226 0 18.4797 0 18.9201V19.1861ZM0.797507 14.4006C0.35706 14.4006 0 14.0437 0 13.6033V13.3376C0 12.8972 0.35706 12.5401 0.797507 12.5401H6.6459C7.08635 12.5401 7.44341 12.8972 7.44341 13.3376V13.6033C7.44341 14.0437 7.08635 14.4006 6.6459 14.4006H0.797507ZM0 8.02094C0 8.46138 0.35706 8.81843 0.797507 8.81843H2.92418C3.36465 8.81843 3.7217 8.46138 3.7217 8.02091V7.75505C3.7217 7.31461 3.36465 6.95755 2.92418 6.95755H0.797507C0.35706 6.95755 0 7.31461 0 7.75505V8.02094ZM16.3813 21.2803C16.0698 21.5916 15.5647 21.5916 15.2534 21.2803L9.86822 15.895C9.55679 15.5836 9.55679 15.0785 9.86822 14.7672L10.0561 14.5793C10.3675 14.2678 10.8725 14.2678 11.1839 14.5793L13.5254 16.9207C14.0279 17.4232 14.8869 17.0673 14.8869 16.357V11.4766C14.8869 11.0362 15.2439 10.6791 15.6845 10.6791H15.9501C16.3907 10.6791 16.7476 11.0362 16.7476 11.4766V16.357C16.7476 17.0673 17.6067 17.4232 18.1092 16.9207L20.4507 14.5793C20.7621 14.2678 21.2671 14.2678 21.5784 14.5793L21.7664 14.7672C22.0778 15.0785 22.0778 15.5836 21.7664 15.895L16.3813 21.2803ZM11.5316 1.9389C11.8431 1.62748 12.348 1.62748 12.6594 1.9389L18.0445 7.32394C18.3561 7.63539 18.3561 8.14033 18.0445 8.45179L17.8569 8.63963C17.5453 8.95109 17.0404 8.95109 16.7288 8.63963L14.3873 6.29809C13.885 5.79568 13.026 6.15152 13.026 6.86201V11.7423C13.026 12.1828 12.6689 12.5398 12.2285 12.5398H11.9626C11.5222 12.5398 11.1651 12.1828 11.1651 11.7423V6.86201C11.1651 6.15152 10.3061 5.79568 9.80367 6.29809L7.46217 8.63963C7.1507 8.95109 6.64576 8.95109 6.3343 8.63963L6.14647 8.45179C5.83503 8.14033 5.83503 7.63539 6.14648 7.32394L11.5316 1.9389Z" fill="url(#paint0_linear_451_2188)"/>
<defs>
<linearGradient id="paint0_linear_451_2188" x1="11" y1="21.5138" x2="11" y2="1.375" gradientUnits="userSpaceOnUse">
<stop stop-color="#A93AFF"/>
<stop offset="1" stop-color="#FF81FF"/>
</linearGradient>
</defs>
</svg>
