<svg width="16" height="16" viewBox="0 0 16 16" fill="none" xmlns="http://www.w3.org/2000/svg">
<path fill-rule="evenodd" clip-rule="evenodd" d="M1.3335 1.25C0.919283 1.25 0.583496 1.58579 0.583496 2C0.583496 2.41421 0.919283 2.75 1.3335 2.75H14.6668C15.081 2.75 15.4168 2.41421 15.4168 2C15.4168 1.58579 15.081 1.25 14.6668 1.25H1.3335ZM1.3335 5.25C0.919283 5.25 0.583496 5.58579 0.583496 6C0.583496 6.41421 0.919283 6.75 1.3335 6.75H7.3335C7.74771 6.75 8.0835 6.41421 8.0835 6C8.0835 5.58579 7.74771 5.25 7.3335 5.25H1.3335ZM0.583496 10C0.583496 9.58579 0.919283 9.25 1.3335 9.25H5.3335C5.74771 9.25 6.0835 9.58579 6.0835 10C6.0835 10.4142 5.74771 10.75 5.3335 10.75H1.3335C0.919283 10.75 0.583496 10.4142 0.583496 10ZM1.3335 13.25C0.919283 13.25 0.583496 13.5858 0.583496 14C0.583496 14.4142 0.919283 14.75 1.3335 14.75H4.00016C4.41438 14.75 4.75016 14.4142 4.75016 14C4.75016 13.5858 4.41438 13.25 4.00016 13.25H1.3335ZM7.89327 12.4101C7.4496 12.4101 7.08994 12.7698 7.08994 13.2135C7.08994 13.6571 7.4496 14.0168 7.89327 14.0168C8.33695 14.0168 8.69661 13.6571 8.69661 13.2135C8.69661 12.7698 8.33695 12.4101 7.89327 12.4101ZM8.69661 10.9698C8.69661 11.1123 8.55104 11.2099 8.41294 11.1748C8.24673 11.1326 8.07262 11.1101 7.89327 11.1101C6.73164 11.1101 5.78994 12.0518 5.78994 13.2135C5.78994 14.3751 6.73164 15.3168 7.89327 15.3168C9.05421 15.3168 9.99547 14.3762 9.99661 13.2156L9.99661 13.2135L9.99661 9.93732C9.99661 9.83407 10.0817 9.75265 10.1819 9.72761V9.72761L13.7681 8.83106C13.8943 8.7995 14.0166 8.89497 14.0166 9.02509V10.0032C14.0166 10.1457 13.871 10.2432 13.7329 10.2081C13.5667 10.1659 13.3926 10.1435 13.2133 10.1435C12.0516 10.1435 11.1099 11.0851 11.1099 12.2468C11.1099 13.4084 12.0516 14.3501 13.2133 14.3501C14.3749 14.3501 15.3166 13.4084 15.3166 12.2468V6.57345C15.3166 5.8389 15.0773 5.22459 14.5182 4.8986C14.0098 4.60214 13.4181 4.65859 12.9708 4.77918L12.9684 4.77982L10.0684 5.57315L10.0656 5.57395C9.28289 5.79191 8.69661 6.44301 8.69661 7.36679V8.38013V9.06014V10.9698ZM13.8181 7.27239C13.9248 7.24573 14.0166 7.15958 14.0166 7.04963V6.57345C14.0166 6.1093 13.8807 6.03154 13.8641 6.02206L13.8634 6.02163C13.8002 5.9848 13.6288 5.94839 13.3102 6.03409L10.4131 6.82664C10.1432 6.9022 9.99661 7.07767 9.99661 7.36679V7.97161C9.99661 8.10172 10.1189 8.1972 10.2451 8.16564L13.8181 7.27239V7.27239ZM13.2133 11.4435C13.6569 11.4435 14.0166 11.8031 14.0166 12.2468C14.0166 12.6905 13.6569 13.0501 13.2133 13.0501C12.7696 13.0501 12.4099 12.6905 12.4099 12.2468C12.4099 11.8031 12.7696 11.4435 13.2133 11.4435Z" fill="url(#paint0_linear_491_620)"/>
<defs>
<linearGradient id="paint0_linear_491_620" x1="9.08156" y1="10.6529" x2="9.08156" y2="1.41522" gradientUnits="userSpaceOnUse">
<stop stop-color="#FF5E3F"/>
<stop offset="1" stop-color="#FFB93F"/>
</linearGradient>
</defs>
</svg>
