<svg width="22" height="22" viewBox="0 0 22 22" fill="none" xmlns="http://www.w3.org/2000/svg">
<path d="M19.8548 8.46912C19.2309 7.56087 18.4882 6.74025 17.6464 6.02924L19.9177 3.75868C20.3763 3.27308 20.3546 2.5076 19.8689 2.04896C19.4023 1.60822 18.6727 1.60875 18.2067 2.05012L15.5895 4.66819C14.1647 3.95624 12.5919 3.59102 10.9992 3.60224C7.41783 3.63651 4.09224 5.46416 2.14354 8.46912C1.11882 9.97619 1.11882 11.9563 2.14354 13.4634C2.76743 14.3717 3.51018 15.1923 4.35199 15.9033L2.08065 18.1763C1.60816 18.6488 1.60816 19.4148 2.08065 19.8871C2.55312 20.3596 3.31916 20.3596 3.79161 19.8871L6.40887 17.2691C7.83365 17.981 9.40648 18.3463 10.9992 18.3351C14.5805 18.3009 17.9061 16.4732 19.8548 13.4682C20.8818 11.9601 20.8818 9.97729 19.8548 8.46912ZM4.13834 12.0975C3.67403 11.4166 3.67403 10.5208 4.13834 9.83986C5.62514 7.48105 8.21093 6.04182 10.9992 6.02119C11.9388 6.01662 12.8717 6.1805 13.7535 6.50497L12.2586 7.99906C10.619 7.30302 8.72559 8.06797 8.02959 9.70757C7.68768 10.513 7.68768 11.4227 8.02959 12.2281L6.06463 14.1939C5.32335 13.5931 4.67436 12.8868 4.13834 12.0975ZM17.86 12.0975C16.3732 14.4563 13.7874 15.8955 10.9992 15.9162C10.0596 15.9207 9.12666 15.7569 8.24482 15.4324L9.73971 13.9375C11.3793 14.6335 13.2728 13.8686 13.9688 12.229C14.3107 11.4236 14.3107 10.5138 13.9688 9.70845L15.9337 7.7435C16.675 8.34426 17.324 9.05058 17.86 9.8399C18.3243 10.5208 18.3243 11.4166 17.86 12.0975Z" fill="url(#paint0_linear_451_2295)"/>
<defs>
<linearGradient id="paint0_linear_451_2295" x1="19.0809" y1="16.5518" x2="13.6914" y2="0.17572" gradientUnits="userSpaceOnUse">
<stop stop-color="#FF3649"/>
<stop offset="1" stop-color="#FF3678"/>
</linearGradient>
</defs>
</svg>
