<svg width="22" height="22" viewBox="0 0 22 22" fill="none" xmlns="http://www.w3.org/2000/svg">
<path fill-rule="evenodd" clip-rule="evenodd" d="M6.9982 2.75865C7.22384 2.53301 7.52984 2.40625 7.84895 2.40625C8.16803 2.40625 8.47404 2.53301 8.69968 2.75865C8.9253 2.98427 9.05205 3.29029 9.05205 3.60938V4.8125C9.05078 5.98211 8.5856 7.10344 7.75858 7.93047C6.93155 8.7575 5.81022 9.22269 4.64062 9.22396H3.4375C3.11841 9.22396 2.81239 9.09721 2.58675 8.87157C2.36113 8.64595 2.23438 8.33992 2.23438 8.02084C2.23438 7.70175 2.36113 7.39573 2.58675 7.17009C2.81239 6.94447 3.11841 6.81771 3.4375 6.81771H4.64062C5.17242 6.81771 5.68246 6.60645 6.05851 6.2304C6.43455 5.85435 6.64582 5.34432 6.64582 4.8125V3.60938C6.64582 3.29029 6.77258 2.98427 6.9982 2.75865ZM17.4168 12.8333H18.6199C18.9389 12.8333 19.245 12.9601 19.4705 13.1857C19.6962 13.4113 19.823 13.7173 19.823 14.0364C19.823 14.3555 19.6962 14.6615 19.4705 14.8872C19.245 15.1128 18.9389 15.2396 18.6199 15.2396H17.4168C16.8849 15.2396 16.3749 15.4508 15.9988 15.8269C15.6228 16.2029 15.4115 16.713 15.4115 17.2447V18.4479C15.4115 18.767 15.2848 19.073 15.0591 19.2986C14.8335 19.5243 14.5275 19.651 14.2084 19.651C13.8893 19.651 13.5833 19.5243 13.3576 19.2986C13.132 19.073 13.0053 18.767 13.0053 18.4479V17.2447C13.0065 16.0752 13.4717 14.9538 14.2988 14.1268C15.1258 13.2998 16.2471 12.8346 17.4168 12.8333ZM18.6199 6.81771H17.4168C16.8849 6.81771 16.3749 6.60645 15.9988 6.2304C15.6228 5.85435 15.4115 5.34432 15.4115 4.8125V3.60938C15.4115 3.29029 15.2848 2.98427 15.0591 2.75865C14.8335 2.53301 14.5275 2.40625 14.2084 2.40625C13.8893 2.40625 13.5833 2.53301 13.3576 2.75865C13.132 2.98427 13.0053 3.29029 13.0053 3.60938V4.8125C13.0065 5.98211 13.4717 7.10344 14.2988 7.93047C15.1258 8.7575 16.2471 9.22269 17.4168 9.22396H18.6199C18.9389 9.22396 19.245 9.09721 19.4705 8.87157C19.6962 8.64595 19.823 8.33992 19.823 8.02084C19.823 7.70175 19.6962 7.39573 19.4705 7.17009C19.245 6.94447 18.9389 6.81771 18.6199 6.81771ZM3.4375 12.8333H4.64062C5.81022 12.8346 6.93155 13.2998 7.75858 14.1268C8.5856 14.9538 9.05078 16.0752 9.05205 17.2447V18.4479C9.05205 18.767 8.9253 19.073 8.69968 19.2986C8.47404 19.5243 8.16803 19.651 7.84895 19.651C7.52984 19.651 7.22384 19.5243 6.9982 19.2986C6.77258 19.073 6.64582 18.767 6.64582 18.4479V17.2447C6.64582 16.713 6.43455 16.2029 6.05851 15.8269C5.68246 15.4508 5.17242 15.2396 4.64062 15.2396H3.4375C3.11841 15.2396 2.81239 15.1128 2.58675 14.8872C2.36113 14.6615 2.23438 14.3555 2.23438 14.0364C2.23438 13.7173 2.36113 13.4113 2.58675 13.1857C2.81239 12.9601 3.11841 12.8333 3.4375 12.8333Z" fill="url(#paint0_linear_451_2218)"/>
<path d="M9.05205 4.8125L9.3958 4.81288V4.8125H9.05205ZM4.64062 9.22396V9.56771H4.64099L4.64062 9.22396ZM17.4168 12.8333V12.4896H17.4163L17.4168 12.8333ZM13.0053 17.2447L12.6615 17.2444V17.2447H13.0053ZM13.0053 4.8125H12.6615V4.81288L13.0053 4.8125ZM17.4168 9.22396L17.4163 9.56771H17.4168V9.22396ZM4.64062 12.8333L4.64099 12.4896H4.64062V12.8333ZM9.05205 17.2447H9.3958V17.2444L9.05205 17.2447ZM7.84895 2.0625C7.43868 2.0625 7.04523 2.22547 6.75513 2.51556L7.24127 3.00171C7.40243 2.84054 7.62102 2.75 7.84895 2.75V2.0625ZM8.94274 2.51556C8.65265 2.22547 8.2592 2.0625 7.84895 2.0625V2.75C8.07685 2.75 8.29544 2.84054 8.45661 3.00171L8.94274 2.51556ZM9.3958 3.60938C9.3958 3.19913 9.23283 2.80567 8.94274 2.51556L8.45661 3.00171C8.61776 3.16286 8.7083 3.38145 8.7083 3.60938H9.3958ZM9.3958 4.8125V3.60938H8.7083V4.8125H9.3958ZM8.00164 8.17353C8.89304 7.28212 9.39443 6.07351 9.3958 4.81288L8.7083 4.81212C8.70714 5.89069 8.27815 6.92474 7.51551 7.6874L8.00164 8.17353ZM4.64099 9.56771C5.90162 9.56634 7.11023 9.06495 8.00164 8.17353L7.51551 7.6874C6.75285 8.45006 5.7188 8.87903 4.64025 8.88021L4.64099 9.56771ZM3.4375 9.56771H4.64062V8.88021H3.4375V9.56771ZM2.34369 9.11463C2.6338 9.40474 3.02723 9.56771 3.4375 9.56771V8.88021C3.20958 8.88021 2.99099 8.78967 2.82984 8.6285L2.34369 9.11463ZM1.89062 8.02084C1.89062 8.43109 2.0536 8.82454 2.34369 9.11463L2.82984 8.6285C2.66867 8.46734 2.57812 8.24876 2.57812 8.02084H1.89062ZM2.34369 6.92703C2.0536 7.21712 1.89062 7.61057 1.89062 8.02084H2.57812C2.57812 7.79292 2.66867 7.57432 2.82984 7.41316L2.34369 6.92703ZM3.4375 6.47396C3.02723 6.47396 2.6338 6.63694 2.34369 6.92703L2.82984 7.41316C2.99099 7.25201 3.20958 7.16146 3.4375 7.16146V6.47396ZM4.64062 6.47396H3.4375V7.16146H4.64062V6.47396ZM5.81544 5.98733C5.50385 6.29891 5.08126 6.47396 4.64062 6.47396V7.16146C5.2636 7.16146 5.86106 6.91398 6.30157 6.47347L5.81544 5.98733ZM6.30207 4.8125C6.30207 5.25315 6.12702 5.67574 5.81544 5.98733L6.30157 6.47347C6.74209 6.03295 6.98957 5.43548 6.98957 4.8125H6.30207ZM6.30207 3.60938V4.8125H6.98957V3.60938H6.30207ZM6.75513 2.51556C6.46504 2.80567 6.30207 3.19913 6.30207 3.60938H6.98957C6.98957 3.38145 7.08012 3.16286 7.24127 3.00171L6.75513 2.51556ZM18.6199 12.4896H17.4168V13.1771H18.6199V12.4896ZM19.7137 12.9426C19.4236 12.6525 19.0302 12.4896 18.6199 12.4896V13.1771C18.8478 13.1771 19.0664 13.2676 19.2275 13.4288L19.7137 12.9426ZM20.1668 14.0364C20.1668 13.6262 20.0037 13.2327 19.7137 12.9426L19.2275 13.4288C19.3887 13.5899 19.4793 13.8085 19.4793 14.0364H20.1668ZM19.7137 15.1302C20.0037 14.8401 20.1668 14.4467 20.1668 14.0364H19.4793C19.4793 14.2644 19.3887 14.4829 19.2275 14.6441L19.7137 15.1302ZM18.6199 15.5833C19.0302 15.5833 19.4236 15.4203 19.7137 15.1302L19.2275 14.6441C19.0664 14.8053 18.8478 14.8958 18.6199 14.8958V15.5833ZM17.4168 15.5833H18.6199V14.8958H17.4168V15.5833ZM16.2419 16.0699C16.5535 15.7584 16.9761 15.5833 17.4168 15.5833V14.8958C16.7937 14.8958 16.1963 15.1433 15.7558 15.5838L16.2419 16.0699ZM15.7553 17.2447C15.7553 16.8041 15.9303 16.3815 16.2419 16.0699L15.7558 15.5838C15.3152 16.0243 15.0678 16.6218 15.0678 17.2447H15.7553ZM15.7553 18.4479V17.2447H15.0678V18.4479H15.7553ZM15.3022 19.5417C15.5923 19.2515 15.7553 18.8581 15.7553 18.4479H15.0678C15.0678 18.6758 14.9772 18.8944 14.8161 19.0556L15.3022 19.5417ZM14.2084 19.9947C14.6186 19.9947 15.0121 19.8318 15.3022 19.5417L14.8161 19.0556C14.6549 19.2167 14.4363 19.3072 14.2084 19.3072V19.9947ZM13.1146 19.5417C13.4047 19.8318 13.7981 19.9947 14.2084 19.9947V19.3072C13.9805 19.3072 13.7619 19.2167 13.6007 19.0556L13.1146 19.5417ZM12.6615 18.4479C12.6615 18.8581 12.8245 19.2515 13.1146 19.5417L13.6007 19.0556C13.4396 18.8944 13.349 18.6758 13.349 18.4479H12.6615ZM12.6615 17.2447V18.4479H13.349V17.2447H12.6615ZM14.0557 13.8837C13.1643 14.7751 12.6629 15.9838 12.6615 17.2444L13.349 17.2451C13.3502 16.1666 13.7792 15.1325 14.5418 14.3699L14.0557 13.8837ZM17.4163 12.4896C16.1557 12.4909 14.9471 12.9923 14.0557 13.8837L14.5418 14.3699C15.3045 13.6072 16.3385 13.1782 17.4171 13.1771L17.4163 12.4896ZM17.4168 7.16146H18.6199V6.47396H17.4168V7.16146ZM15.7558 6.47347C16.1963 6.91398 16.7937 7.16146 17.4168 7.16146V6.47396C16.9761 6.47396 16.5535 6.29891 16.2419 5.98733L15.7558 6.47347ZM15.0678 4.8125C15.0678 5.43548 15.3152 6.03295 15.7558 6.47347L16.2419 5.98733C15.9303 5.67574 15.7553 5.25315 15.7553 4.8125H15.0678ZM15.0678 3.60938V4.8125H15.7553V3.60938H15.0678ZM14.8161 3.00171C14.9772 3.16286 15.0678 3.38145 15.0678 3.60938H15.7553C15.7553 3.19913 15.5923 2.80567 15.3022 2.51556L14.8161 3.00171ZM14.2084 2.75C14.4363 2.75 14.6549 2.84054 14.8161 3.00171L15.3022 2.51556C15.0121 2.22547 14.6186 2.0625 14.2084 2.0625V2.75ZM13.6007 3.00171C13.7619 2.84054 13.9805 2.75 14.2084 2.75V2.0625C13.7981 2.0625 13.4047 2.22547 13.1146 2.51556L13.6007 3.00171ZM13.349 3.60938C13.349 3.38145 13.4396 3.16286 13.6007 3.00171L13.1146 2.51556C12.8245 2.80567 12.6615 3.19913 12.6615 3.60938H13.349ZM13.349 4.8125V3.60938H12.6615V4.8125H13.349ZM14.5418 7.6874C13.7792 6.92474 13.3502 5.89069 13.349 4.81212L12.6615 4.81288C12.6629 6.07351 13.1643 7.28212 14.0557 8.17353L14.5418 7.6874ZM17.4171 8.88021C16.3385 8.87903 15.3045 8.45006 14.5418 7.6874L14.0557 8.17353C14.9471 9.06495 16.1557 9.56634 17.4163 9.56771L17.4171 8.88021ZM18.6199 8.88021H17.4168V9.56771H18.6199V8.88021ZM19.2275 8.6285C19.0664 8.78967 18.8478 8.88021 18.6199 8.88021V9.56771C19.0302 9.56771 19.4236 9.40474 19.7137 9.11463L19.2275 8.6285ZM19.4793 8.02084C19.4793 8.24876 19.3887 8.46734 19.2275 8.6285L19.7137 9.11463C20.0037 8.82454 20.1668 8.43109 20.1668 8.02084H19.4793ZM19.2275 7.41316C19.3887 7.57432 19.4793 7.79292 19.4793 8.02084H20.1668C20.1668 7.61057 20.0037 7.21712 19.7137 6.92703L19.2275 7.41316ZM18.6199 7.16146C18.8478 7.16146 19.0664 7.25201 19.2275 7.41316L19.7137 6.92703C19.4236 6.63694 19.0302 6.47396 18.6199 6.47396V7.16146ZM4.64062 12.4896H3.4375V13.1771H4.64062V12.4896ZM8.00164 13.8837C7.11023 12.9923 5.90162 12.4909 4.64099 12.4896L4.64025 13.1771C5.7188 13.1782 6.75285 13.6072 7.51551 14.3699L8.00164 13.8837ZM9.3958 17.2444C9.39443 15.9838 8.89304 14.7751 8.00164 13.8837L7.51551 14.3699C8.27815 15.1325 8.70714 16.1666 8.7083 17.2451L9.3958 17.2444ZM9.3958 18.4479V17.2447H8.7083V18.4479H9.3958ZM8.94274 19.5417C9.23283 19.2515 9.3958 18.8581 9.3958 18.4479H8.7083C8.7083 18.6758 8.61776 18.8944 8.45661 19.0556L8.94274 19.5417ZM7.84895 19.9947C8.2592 19.9947 8.65265 19.8318 8.94274 19.5417L8.45661 19.0556C8.29544 19.2167 8.07685 19.3072 7.84895 19.3072V19.9947ZM6.75513 19.5417C7.04523 19.8318 7.43868 19.9947 7.84895 19.9947V19.3072C7.62102 19.3072 7.40243 19.2167 7.24127 19.0556L6.75513 19.5417ZM6.30207 18.4479C6.30207 18.8581 6.46504 19.2515 6.75513 19.5417L7.24127 19.0556C7.08012 18.8944 6.98957 18.6758 6.98957 18.4479H6.30207ZM6.30207 17.2447V18.4479H6.98957V17.2447H6.30207ZM5.81544 16.0699C6.12702 16.3815 6.30207 16.8041 6.30207 17.2447H6.98957C6.98957 16.6218 6.74209 16.0243 6.30157 15.5838L5.81544 16.0699ZM4.64062 15.5833C5.08126 15.5833 5.50385 15.7584 5.81544 16.0699L6.30157 15.5838C5.86106 15.1433 5.2636 14.8958 4.64062 14.8958V15.5833ZM3.4375 15.5833H4.64062V14.8958H3.4375V15.5833ZM2.34369 15.1302C2.6338 15.4203 3.02723 15.5833 3.4375 15.5833V14.8958C3.20958 14.8958 2.99099 14.8053 2.82984 14.6441L2.34369 15.1302ZM1.89062 14.0364C1.89062 14.4467 2.0536 14.8401 2.34369 15.1302L2.82984 14.6441C2.66867 14.4829 2.57812 14.2644 2.57812 14.0364H1.89062ZM2.34369 12.9426C2.0536 13.2327 1.89062 13.6262 1.89062 14.0364H2.57812C2.57812 13.8085 2.66867 13.5899 2.82984 13.4288L2.34369 12.9426ZM3.4375 12.4896C3.02723 12.4896 2.6338 12.6525 2.34369 12.9426L2.82984 13.4288C2.99099 13.2676 3.20958 13.1771 3.4375 13.1771V12.4896Z" fill="url(#paint1_linear_451_2218)"/>
<defs>
<linearGradient id="paint0_linear_451_2218" x1="5.42231" y1="17.6151" x2="21.0117" y2="3.74198" gradientUnits="userSpaceOnUse">
<stop stop-color="#FE0844"/>
<stop offset="1" stop-color="#FEB302"/>
</linearGradient>
<linearGradient id="paint1_linear_451_2218" x1="5.42231" y1="17.6151" x2="21.0117" y2="3.74198" gradientUnits="userSpaceOnUse">
<stop stop-color="#FE0844"/>
<stop offset="1" stop-color="#FEB302"/>
</linearGradient>
</defs>
</svg>
