<svg width="22" height="22" viewBox="0 0 22 22" fill="none" xmlns="http://www.w3.org/2000/svg">
<path d="M2.0625 1.375C1.68281 1.375 1.375 1.68281 1.375 2.0625V19.9375C1.375 20.3171 1.68281 20.625 2.0625 20.625H19.9375C20.3171 20.625 20.625 20.3171 20.625 19.9375V2.0625C20.625 1.68281 20.3171 1.375 19.9375 1.375H2.0625ZM2.97917 5.27083C2.97917 4.89114 3.28697 4.58333 3.66667 4.58333H18.3333C18.7131 4.58333 19.0208 4.89114 19.0208 5.27083V18.3333C19.0208 18.7131 18.7131 19.0208 18.3333 19.0208H3.66667C3.28697 19.0208 2.97917 18.7131 2.97917 18.3333V5.27083ZM5.27083 6.1875C4.89114 6.1875 4.58333 6.49531 4.58333 6.875V16.7292C4.58333 17.1089 4.89114 17.4167 5.27083 17.4167H8.70833C9.08804 17.4167 9.39583 17.1089 9.39583 16.7292V16.5C9.39583 16.1204 9.70364 15.8125 10.0833 15.8125H11.9167C12.2964 15.8125 12.6042 16.1204 12.6042 16.5V16.7292C12.6042 17.1089 12.912 17.4167 13.2917 17.4167H16.7292C17.1089 17.4167 17.4167 17.1089 17.4167 16.7292V13.2917C17.4167 12.912 17.1089 12.6042 16.7292 12.6042H13.2917C12.912 12.6042 12.6042 12.912 12.6042 13.2917V13.5208C12.6042 13.9006 12.2964 14.2083 11.9167 14.2083H10.0833C9.70364 14.2083 9.39583 13.9006 9.39583 13.5208V10.0833C9.39583 9.70364 9.70364 9.39583 10.0833 9.39583H11.9167C12.2964 9.39583 12.6042 9.70364 12.6042 10.0833V10.3125C12.6042 10.6922 12.912 11 13.2917 11H16.7292C17.1089 11 17.4167 10.6922 17.4167 10.3125V6.875C17.4167 6.49531 17.1089 6.1875 16.7292 6.1875H13.2917C12.912 6.1875 12.6042 6.49531 12.6042 6.875V7.10417C12.6042 7.48386 12.2964 7.79167 11.9167 7.79167H10.0833C9.70364 7.79167 9.39583 7.48386 9.39583 7.10417V6.875C9.39583 6.49531 9.08804 6.1875 8.70833 6.1875H5.27083ZM14.2083 8.47917C14.2083 8.09946 14.5161 7.79167 14.8958 7.79167H15.125C15.5046 7.79167 15.8125 8.09946 15.8125 8.47917V8.70833C15.8125 9.08804 15.5046 9.39583 15.125 9.39583H14.8958C14.5161 9.39583 14.2083 9.08804 14.2083 8.70833V8.47917ZM14.2083 14.8958C14.2083 14.5161 14.5161 14.2083 14.8958 14.2083H15.125C15.5046 14.2083 15.8125 14.5161 15.8125 14.8958V15.125C15.8125 15.5046 15.5046 15.8125 15.125 15.8125H14.8958C14.5161 15.8125 14.2083 15.5046 14.2083 15.125V14.8958Z" fill="url(#paint0_linear_451_2202)"/>
<defs>
<linearGradient id="paint0_linear_451_2202" x1="11" y1="20.625" x2="11" y2="1.375" gradientUnits="userSpaceOnUse">
<stop stop-color="#FD5900"/>
<stop offset="1" stop-color="#FFDE00"/>
</linearGradient>
</defs>
</svg>
