<svg width="22" height="22" viewBox="0 0 22 22" fill="none" xmlns="http://www.w3.org/2000/svg">
<path d="M12.55 5C12.3843 5 12.25 5.13431 12.25 5.3V17.2C12.25 17.3657 12.3843 17.5 12.55 17.5H14.45C14.6157 17.5 14.75 17.3657 14.75 17.2V5.3C14.75 5.13431 14.6157 5 14.45 5H12.55ZM16.3 5C16.1343 5 16 5.13431 16 5.3V10.95C16 11.1157 16.1343 11.25 16.3 11.25H16.95C17.1157 11.25 17.25 11.1157 17.25 10.95V5.3C17.25 5.13431 17.1157 5 16.95 5H16.3ZM18.8 5C18.6343 5 18.5 5.13431 18.5 5.3V17.2C18.5 17.3657 18.6343 17.5 18.8 17.5H20.7C20.8657 17.5 21 17.3657 21 17.2V5.3C21 5.13431 20.8657 5 20.7 5H18.8Z" fill="url(#paint0_linear_80_78)"/>
<g opacity="0.4">
<path d="M1 5.3C1 5.13431 1.13431 5 1.3 5H1.95C2.11569 5 2.25 5.13431 2.25 5.3V17.2C2.25 17.3657 2.11569 17.5 1.95 17.5H1.3C1.13431 17.5 1 17.3657 1 17.2V5.3Z" fill="url(#paint1_linear_80_78)"/>
<path d="M3.5 5.3C3.5 5.13431 3.63431 5 3.8 5H4.45C4.61569 5 4.75 5.13431 4.75 5.3V13.45C4.75 13.6157 4.61569 13.75 4.45 13.75H3.8C3.63431 13.75 3.5 13.6157 3.5 13.45V5.3Z" fill="url(#paint2_linear_80_78)"/>
<path d="M6 5.3C6 5.13431 6.13431 5 6.3 5H6.95C7.11569 5 7.25 5.13431 7.25 5.3V17.2C7.25 17.3657 7.11569 17.5 6.95 17.5H6.3C6.13431 17.5 6 17.3657 6 17.2V5.3Z" fill="url(#paint3_linear_80_78)"/>
<path d="M8.5 5.3C8.5 5.13431 8.63431 5 8.8 5H10.7C10.8657 5 11 5.13431 11 5.3V17.2C11 17.3657 10.8657 17.5 10.7 17.5H8.8C8.63431 17.5 8.5 17.3657 8.5 17.2V5.3Z" fill="url(#paint4_linear_80_78)"/>
</g>
<defs>
<linearGradient id="paint0_linear_80_78" x1="11" y1="17.5" x2="11" y2="5" gradientUnits="userSpaceOnUse">
<stop stop-color="#A93AFF"/>
<stop offset="1" stop-color="#FF81FF"/>
</linearGradient>
<linearGradient id="paint1_linear_80_78" x1="11" y1="17.5" x2="11" y2="5" gradientUnits="userSpaceOnUse">
<stop stop-color="#A93AFF"/>
<stop offset="1" stop-color="#FF81FF"/>
</linearGradient>
<linearGradient id="paint2_linear_80_78" x1="11" y1="17.5" x2="11" y2="5" gradientUnits="userSpaceOnUse">
<stop stop-color="#A93AFF"/>
<stop offset="1" stop-color="#FF81FF"/>
</linearGradient>
<linearGradient id="paint3_linear_80_78" x1="11" y1="17.5" x2="11" y2="5" gradientUnits="userSpaceOnUse">
<stop stop-color="#A93AFF"/>
<stop offset="1" stop-color="#FF81FF"/>
</linearGradient>
<linearGradient id="paint4_linear_80_78" x1="11" y1="17.5" x2="11" y2="5" gradientUnits="userSpaceOnUse">
<stop stop-color="#A93AFF"/>
<stop offset="1" stop-color="#FF81FF"/>
</linearGradient>
</defs>
</svg>
