<svg width="16" height="16" viewBox="0 0 16 16" fill="none" xmlns="http://www.w3.org/2000/svg">
<path opacity="0.4" d="M1.45454 1.5C0.902259 1.5 0.454544 1.94772 0.454544 2.5V2.86364C0.454544 3.41592 0.902259 3.86364 1.45454 3.86364H6.54545C7.09774 3.86364 7.54545 3.41592 7.54545 2.86364V2.5C7.54545 1.94771 7.09774 1.5 6.54545 1.5H1.45454ZM1.45454 5.04545C0.902259 5.04545 0.454544 5.49317 0.454544 6.04545V6.40909C0.454544 6.96138 0.902259 7.40909 1.45454 7.40909H6.54545C7.09774 7.40909 7.54545 6.96138 7.54545 6.40909V6.04545C7.54545 5.49317 7.09774 5.04545 6.54545 5.04545H1.45454ZM1.45454 8.59091C0.902259 8.59091 0.454544 9.03862 0.454544 9.59091V9.95455C0.454544 10.5068 0.902259 10.9545 1.45454 10.9545H6.54545C7.09774 10.9545 7.54545 10.5068 7.54545 9.95454V9.59091C7.54545 9.03862 7.09774 8.59091 6.54545 8.59091H1.45454ZM1.45454 12.1364C0.902259 12.1364 0.454544 12.5841 0.454544 13.1364V13.5C0.454544 14.0523 0.902259 14.5 1.45454 14.5H6.54545C7.09774 14.5 7.54545 14.0523 7.54545 13.5V13.1364C7.54545 12.5841 7.09774 12.1364 6.54545 12.1364H1.45454Z" fill="url(#paint0_linear_291_142)"/>
<path d="M8.45454 2.86364V2.5C8.45454 1.94772 8.90226 1.5 9.45454 1.5H14.5455C15.0977 1.5 15.5455 1.94771 15.5455 2.5V2.86364C15.5455 3.41592 15.0977 3.86364 14.5455 3.86364H9.45454C8.90226 3.86364 8.45454 3.41592 8.45454 2.86364Z" fill="url(#paint1_linear_291_142)"/>
<path d="M8.45454 6.40909V6.04545C8.45454 5.49317 8.90226 5.04545 9.45454 5.04545H14.5455C15.0977 5.04545 15.5455 5.49317 15.5455 6.04545V6.40909C15.5455 6.96138 15.0977 7.40909 14.5455 7.40909H9.45454C8.90226 7.40909 8.45454 6.96138 8.45454 6.40909Z" fill="url(#paint2_linear_291_142)"/>
<path d="M8.45454 9.95455V9.59091C8.45454 9.03862 8.90226 8.59091 9.45454 8.59091H14.5455C15.0977 8.59091 15.5455 9.03862 15.5455 9.59091V9.95455C15.5455 10.5068 15.0977 10.9545 14.5455 10.9545H9.45454C8.90226 10.9545 8.45454 10.5068 8.45454 9.95455Z" fill="url(#paint3_linear_291_142)"/>
<path d="M8.45454 13.5V13.1364C8.45454 12.5841 8.90226 12.1364 9.45454 12.1364H14.5455C15.0977 12.1364 15.5455 12.5841 15.5455 13.1364V13.5C15.5455 14.0523 15.0977 14.5 14.5455 14.5H9.45454C8.90226 14.5 8.45454 14.0523 8.45454 13.5Z" fill="url(#paint4_linear_291_142)"/>
<defs>
<linearGradient id="paint0_linear_291_142" x1="0.455583" y1="7.80738" x2="7.54663" y2="7.80738" gradientUnits="userSpaceOnUse">
<stop stop-color="#A93AFF"/>
<stop offset="1" stop-color="#FF81FF"/>
</linearGradient>
<linearGradient id="paint1_linear_291_142" x1="8.45558" y1="7.80738" x2="15.5466" y2="7.80738" gradientUnits="userSpaceOnUse">
<stop stop-color="#A93AFF"/>
<stop offset="1" stop-color="#FF81FF"/>
</linearGradient>
<linearGradient id="paint2_linear_291_142" x1="8.45558" y1="7.80738" x2="15.5466" y2="7.80738" gradientUnits="userSpaceOnUse">
<stop stop-color="#A93AFF"/>
<stop offset="1" stop-color="#FF81FF"/>
</linearGradient>
<linearGradient id="paint3_linear_291_142" x1="8.45558" y1="7.80738" x2="15.5466" y2="7.80738" gradientUnits="userSpaceOnUse">
<stop stop-color="#A93AFF"/>
<stop offset="1" stop-color="#FF81FF"/>
</linearGradient>
<linearGradient id="paint4_linear_291_142" x1="8.45558" y1="7.80738" x2="15.5466" y2="7.80738" gradientUnits="userSpaceOnUse">
<stop stop-color="#A93AFF"/>
<stop offset="1" stop-color="#FF81FF"/>
</linearGradient>
</defs>
</svg>
