<svg width="22" height="22" viewBox="0 0 22 22" fill="none" xmlns="http://www.w3.org/2000/svg">
<path d="M19.25 14.4375H9.625C9.23828 14.4375 8.91241 14.3547 8.64744 14.1891C8.38248 14.0235 8.25 13.8198 8.25 13.5781C8.25 13.3364 8.38248 13.1328 8.64744 12.9671C8.91241 12.8015 9.23828 12.7188 9.625 12.7188H19.25C19.6367 12.7188 19.9626 12.8015 20.2276 12.9671C20.4925 13.1328 20.625 13.3364 20.625 13.5781C20.625 13.8198 20.4925 14.0235 20.2276 14.1891C19.9626 14.3547 19.6367 14.4375 19.25 14.4375ZM19.25 9.28125H9.625C9.23828 9.28125 8.91241 9.19621 8.64744 9.02612C8.38248 8.85603 8.25 8.65239 8.25 8.41514C8.25 8.17795 8.38248 7.97651 8.64744 7.81089C8.91241 7.64528 9.23828 7.5625 9.625 7.5625H19.25C19.6367 7.5625 19.9626 7.64528 20.2276 7.81089C20.4925 7.97651 20.625 8.17795 20.625 8.41514C20.625 8.65239 20.4925 8.85603 20.2276 9.02612C19.9626 9.19621 19.6367 9.28125 19.25 9.28125ZM19.25 5.84375H9.625C9.23828 5.84375 8.91241 5.75871 8.64744 5.58863C8.38248 5.41854 8.25 5.21489 8.25 4.97766C8.25 4.74044 8.38248 4.53902 8.64744 4.37341C8.91241 4.2078 9.23828 4.125 9.625 4.125H19.25C19.6367 4.125 19.9626 4.2078 20.2276 4.37341C20.4925 4.53902 20.625 4.74044 20.625 4.97766C20.625 5.21489 20.4925 5.41854 20.2276 5.58863C19.9626 5.75871 19.6367 5.84375 19.25 5.84375ZM9.625 16.1562H19.25C19.6367 16.1562 19.9626 16.239 20.2276 16.4046C20.4925 16.5703 20.625 16.7739 20.625 17.0156C20.625 17.2573 20.4889 17.461 20.2168 17.6266C19.9447 17.7922 19.6224 17.875 19.25 17.875H9.625C9.23828 17.875 8.91241 17.7922 8.64744 17.6266C8.38248 17.461 8.25 17.2573 8.25 17.0156C8.25 16.7739 8.38248 16.5703 8.64744 16.4046C8.91241 16.239 9.23828 16.1562 9.625 16.1562Z" fill="url(#paint0_linear_451_2291)"/>
<path d="M2.29166 18.5625H5.95834C6.2066 18.5625 6.42144 18.4714 6.60287 18.2892C6.78429 18.1071 6.875 17.883 6.875 17.6172V13.8359C6.875 13.5701 6.78429 13.346 6.60287 13.1639C6.42144 12.9817 6.2066 12.8906 5.95834 12.8906H2.29166C2.03385 12.8906 1.81662 12.9817 1.63998 13.1639C1.46332 13.346 1.375 13.5701 1.375 13.8359V17.6172C1.375 17.883 1.46332 18.1071 1.63998 18.2892C1.81662 18.4714 2.03385 18.5625 2.29166 18.5625Z" stroke="url(#paint1_linear_451_2291)" stroke-width="2" stroke-linecap="round" stroke-linejoin="round"/>
<path d="M2.29166 9.10938H5.95834C6.2066 9.10938 6.42144 9.01581 6.60287 8.82874C6.78429 8.64167 6.875 8.42009 6.875 8.16406V4.38281C6.875 4.11694 6.78429 3.89292 6.60287 3.71075C6.42144 3.52859 6.2066 3.4375 5.95834 3.4375H2.29166C2.03385 3.4375 1.81662 3.52859 1.63998 3.71075C1.46332 3.89292 1.375 4.11694 1.375 4.38281V8.16406C1.375 8.42009 1.46332 8.64167 1.63998 8.82874C1.81662 9.01581 2.03385 9.10938 2.29166 9.10938Z" stroke="url(#paint2_linear_451_2291)" stroke-width="2" stroke-linecap="round" stroke-linejoin="round"/>
<defs>
<linearGradient id="paint0_linear_451_2291" x1="8.25179" y1="10.7963" x2="20.6271" y2="10.7963" gradientUnits="userSpaceOnUse">
<stop stop-color="#A93AFF"/>
<stop offset="1" stop-color="#FF81FF"/>
</linearGradient>
<linearGradient id="paint1_linear_451_2291" x1="1.3758" y1="10.7759" x2="6.87589" y2="10.7759" gradientUnits="userSpaceOnUse">
<stop stop-color="#A93AFF"/>
<stop offset="1" stop-color="#FF81FF"/>
</linearGradient>
<linearGradient id="paint2_linear_451_2291" x1="1.3758" y1="10.7759" x2="6.87589" y2="10.7759" gradientUnits="userSpaceOnUse">
<stop stop-color="#A93AFF"/>
<stop offset="1" stop-color="#FF81FF"/>
</linearGradient>
</defs>
</svg>
