<svg width="22" height="22" viewBox="0 0 22 22" fill="none" xmlns="http://www.w3.org/2000/svg">
<path fill-rule="evenodd" clip-rule="evenodd" d="M14.5244 3.23603C14.7928 2.96755 15.2281 2.96755 15.4967 3.23603L20.1389 7.87843C20.4075 8.14691 20.4075 8.58221 20.1389 8.85069L19.977 9.01262C19.7086 9.28112 19.2732 9.28112 19.0047 9.01262L16.9862 6.99408C16.5531 6.56097 15.8125 6.86771 15.8125 7.48021V11.6873C15.8125 12.067 15.5048 12.3748 15.125 12.3748H14.8959C14.5161 12.3748 14.2084 12.067 14.2084 11.6874V7.48021C14.2084 6.86771 13.4679 6.56097 13.0348 6.99408L11.0162 9.01262C10.7477 9.28112 10.3124 9.28112 10.0439 9.01262L9.88202 8.85069C9.61353 8.58221 9.61353 8.14691 9.88202 7.87843L14.5244 3.23603ZM2.0625 4.354C1.68281 4.354 1.375 4.66179 1.375 5.0415V5.27069C1.375 5.65038 1.68281 5.95819 2.0625 5.95819H5.5C5.87969 5.95819 6.1875 5.65038 6.1875 5.27069V5.0415C6.1875 4.66179 5.87969 4.354 5.5 4.354H2.0625ZM2.0625 20.3959C1.68281 20.3959 1.375 20.088 1.375 19.7084V19.4792C1.375 19.0994 1.68281 18.7917 2.0625 18.7917H15.125C15.5046 18.7917 15.8125 19.0994 15.8125 19.4792V19.7084C15.8125 20.088 15.5046 20.3959 15.125 20.3959H2.0625ZM1.375 9.85433C1.375 9.47464 1.68281 9.16683 2.0625 9.16683H8.70833C9.08804 9.16683 9.39583 9.47464 9.39583 9.85433V10.0835C9.39583 10.4632 9.08804 10.771 8.70833 10.771H2.0625C1.68281 10.771 1.375 10.4632 1.375 10.0835V9.85433ZM2.0625 13.979C1.68281 13.979 1.375 14.2868 1.375 14.6665V14.8958C1.375 15.2754 1.68281 15.5833 2.0625 15.5833H11.9167C12.2964 15.5833 12.6042 15.2754 12.6042 14.8958V14.6665C12.6042 14.2868 12.2964 13.979 11.9167 13.979H2.0625Z" fill="url(#paint0_linear_451_2194)" stroke="url(#paint1_linear_451_2194)" stroke-width="0.6"/>
<defs>
<linearGradient id="paint0_linear_451_2194" x1="10.8576" y1="20.3959" x2="10.8576" y2="3.03466" gradientUnits="userSpaceOnUse">
<stop stop-color="#5570FF"/>
<stop offset="1" stop-color="#4DD3FF"/>
</linearGradient>
<linearGradient id="paint1_linear_451_2194" x1="10.8576" y1="20.3959" x2="10.8576" y2="3.03466" gradientUnits="userSpaceOnUse">
<stop stop-color="#5570FF"/>
<stop offset="1" stop-color="#4DD3FF"/>
</linearGradient>
</defs>
</svg>
