<svg width="22" height="22" viewBox="0 0 22 22" fill="none" xmlns="http://www.w3.org/2000/svg">
<path d="M1.71875 1.03125C1.33905 1.03125 1.03125 1.33905 1.03125 1.71875V20.2812C1.03125 20.661 1.33905 20.9688 1.71875 20.9688H20.2812C20.661 20.9688 20.9688 20.661 20.9688 20.2812V1.71875C20.9688 1.33905 20.661 1.03125 20.2812 1.03125H1.71875ZM2.54948 5.87238C2.54948 5.49271 2.85728 5.18488 3.23698 5.18488H18.763C19.1427 5.18488 19.4505 5.49271 19.4505 5.87238V18.763C19.4505 19.1427 19.1427 19.4505 18.763 19.4505H3.23698C2.85728 19.4505 2.54948 19.1427 2.54948 18.763V5.87238Z" fill="url(#paint0_linear_451_2297)"/>
<path d="M4.81542 6.80392C4.77884 6.47179 5.09193 6.1554 5.42801 6.19012C6.75496 6.19091 8.08269 6.19091 9.4096 6.19012C9.70836 6.16172 10.0333 6.41813 10.0111 6.7274C10.0095 7.57075 10.0119 8.4149 10.0095 9.25826C10.0373 9.45076 9.8649 9.57856 9.71712 9.66299C9.44535 9.77818 9.10769 9.53914 9.118 9.2488C9.11563 8.53009 9.11401 7.81138 9.12037 7.09267C7.98655 7.0895 6.85269 7.09029 5.71883 7.09267C5.72361 8.21687 5.7244 9.34189 5.71804 10.4669C6.4395 10.474 7.16179 10.4606 7.88325 10.4725C8.17007 10.4693 8.40527 10.8014 8.28846 11.0665C8.20503 11.2046 8.08586 11.3718 7.9015 11.3529C7.05134 11.3592 6.20114 11.3544 5.35095 11.3544C5.04026 11.3765 4.78682 11.0507 4.81621 10.7572C4.81858 9.43893 4.81858 8.12144 4.81542 6.80392Z" fill="url(#paint1_linear_451_2297)"/>
<path d="M12.4176 6.22462C12.5306 6.18117 12.6556 6.19224 12.7742 6.1875C14.105 6.19383 15.435 6.18434 16.765 6.19303C17.0443 6.19224 17.2823 6.4505 17.272 6.72458C17.2751 8.0949 17.2775 9.46526 17.2712 10.8356C17.2751 11.1381 16.9783 11.3877 16.6782 11.3529C15.3259 11.3521 13.9737 11.3569 12.6214 11.3513C12.3388 11.3663 12.0786 11.116 12.0809 10.8356C12.0738 9.48973 12.0809 8.14388 12.0778 6.79803C12.0547 6.55872 12.1876 6.31307 12.4176 6.22462ZM12.9804 7.08472C12.9843 8.20944 12.9764 9.33415 12.9843 10.4588C14.113 10.458 15.2424 10.4604 16.3718 10.458C16.3726 9.33336 16.3726 8.20865 16.3726 7.08393C15.2416 7.08235 14.1105 7.08235 12.9804 7.08472Z" fill="url(#paint2_linear_451_2297)"/>
<path d="M14.112 13.4318C15.0218 13.41 15.9332 13.4201 16.8437 13.4263C17.0058 13.5767 17.2791 13.6896 17.2696 13.9444C17.2752 15.3171 17.2712 16.6914 17.272 18.0641C17.3046 18.2955 17.0781 18.4248 16.9382 18.572C15.431 18.5915 13.9221 18.593 12.414 18.5712C12.2686 18.4302 12.0691 18.2885 12.0771 18.0656C12.074 17.2328 12.0755 16.4 12.0763 15.5672C12.0747 15.3046 12.3489 15.0818 12.6134 15.1442C12.8296 15.1566 12.9797 15.3685 12.9789 15.5687C12.9829 16.2754 12.9789 16.9812 12.9797 17.6878C14.112 17.6878 15.2434 17.6886 16.3757 17.6871C16.3757 16.58 16.3709 15.4721 16.3781 14.3651C15.6789 14.3604 14.9796 14.3651 14.2804 14.3635C13.9793 14.3916 13.694 14.0714 13.7989 13.784C13.8609 13.6351 14.0087 13.5494 14.112 13.4318Z" fill="url(#paint3_linear_451_2297)"/>
<path d="M5.13927 13.4674C5.25549 13.4185 5.38529 13.4216 5.50866 13.4185C6.80955 13.4216 8.1104 13.4169 9.41129 13.4208C9.72895 13.3908 10.0315 13.66 10.01 13.9797C10.0124 15.3222 10.0108 16.6648 10.0108 18.0065C10.0354 18.3002 9.79024 18.5866 9.4877 18.5835C8.10961 18.589 6.73073 18.5874 5.35263 18.5842C5.04532 18.5945 4.78737 18.3072 4.81446 18.0081C4.81446 16.6632 4.81205 15.3182 4.81604 13.9733C4.80648 13.7595 4.93865 13.5495 5.13927 13.4674ZM5.71567 14.3206C5.71725 15.4445 5.71488 16.5692 5.71725 17.6932C6.84777 17.6932 7.97826 17.6939 9.10875 17.6932C9.11432 16.5716 9.09999 15.4501 9.11594 14.3285C7.98304 14.308 6.84935 14.3238 5.71567 14.3206Z" fill="url(#paint4_linear_451_2297)"/>
<defs>
<linearGradient id="paint0_linear_451_2297" x1="11" y1="20.9688" x2="11" y2="1.03125" gradientUnits="userSpaceOnUse">
<stop stop-color="#5570FF"/>
<stop offset="1" stop-color="#4DD3FF"/>
</linearGradient>
<linearGradient id="paint1_linear_451_2297" x1="7.41248" y1="11.3562" x2="7.41248" y2="6.1875" gradientUnits="userSpaceOnUse">
<stop stop-color="#FD3A84"/>
<stop offset="1" stop-color="#FFA68D"/>
</linearGradient>
<linearGradient id="paint2_linear_451_2297" x1="14.6752" y1="11.3562" x2="14.6752" y2="6.1875" gradientUnits="userSpaceOnUse">
<stop stop-color="#02AA93"/>
<stop offset="1" stop-color="#67FF80"/>
</linearGradient>
<linearGradient id="paint3_linear_451_2297" x1="14.6752" y1="18.5871" x2="14.6752" y2="13.4184" gradientUnits="userSpaceOnUse">
<stop stop-color="#5570FF"/>
<stop offset="1" stop-color="#4DD3FF"/>
</linearGradient>
<linearGradient id="paint4_linear_451_2297" x1="7.41248" y1="18.5871" x2="7.41248" y2="13.4185" gradientUnits="userSpaceOnUse">
<stop stop-color="#FDA700"/>
<stop offset="1" stop-color="#FFDE00"/>
</linearGradient>
</defs>
</svg>
