<svg width="22" height="22" viewBox="0 0 22 22" fill="none" xmlns="http://www.w3.org/2000/svg">
<path d="M17.8152 6.98956C17.0706 6.98956 16.3565 6.69379 15.8301 6.16732C15.3036 5.64085 15.0078 4.92681 15.0078 4.18229C15.0078 3.43774 15.3036 2.7237 15.8301 2.19723C16.3565 1.67077 17.0706 1.375 17.8152 1.375C18.5596 1.375 19.2737 1.67077 19.8002 2.19723C20.3266 2.7237 20.6224 3.43774 20.6224 4.18229C20.6224 4.92681 20.3266 5.64085 19.8002 6.16732C19.2737 6.69379 18.5596 6.98956 17.8152 6.98956ZM18.2658 20.6248H11.7482C11.336 20.6286 10.9302 20.5233 10.5719 20.3196C10.2135 20.1159 9.9154 19.8211 9.70771 19.465C9.50448 19.1221 9.39558 18.7315 9.39206 18.3329C9.38853 17.9341 9.49051 17.5417 9.68765 17.1952L12.9489 11.3922C13.16 11.0336 13.4611 10.7363 13.8223 10.5298C14.1836 10.3233 14.5925 10.2146 15.0086 10.2146C15.4248 10.2146 15.8337 10.3233 16.1949 10.5298C16.5562 10.7363 16.8573 11.0336 17.0684 11.3922L20.3273 17.1928C20.5248 17.5395 20.6269 17.9322 20.6235 18.3313C20.6198 18.7303 20.5107 19.1211 20.3072 19.4643C20.0996 19.8206 19.8014 20.1156 19.4428 20.3194C19.0843 20.5233 18.6783 20.6286 18.2658 20.6248ZM15.0006 12.6226L11.8853 18.2188H18.1512L15.0006 12.6226ZM7.78912 19.4217C7.78912 19.1027 7.66236 18.7966 7.43674 18.5711C7.21112 18.3454 6.9051 18.2188 6.58601 18.2188H4.34981C4.251 18.2205 4.15357 18.1955 4.06773 18.1466C3.98191 18.0976 3.9109 18.0263 3.86215 17.9403C3.81102 17.8561 3.783 17.7598 3.78089 17.6612C3.77877 17.5627 3.80265 17.4653 3.85012 17.379L8.87193 8.09C8.92048 7.99985 8.99253 7.92452 9.08043 7.87201C9.16835 7.81951 9.26882 7.79178 9.37123 7.79178C9.47363 7.79178 9.57411 7.81951 9.66202 7.87201C9.74992 7.92452 9.82197 7.99985 9.87052 8.09L10.3694 9.0124C10.4399 9.15894 10.5395 9.28967 10.6619 9.39666C10.7844 9.50367 10.9273 9.58473 11.082 9.63495C11.2367 9.68516 11.4 9.7035 11.5619 9.68883C11.7239 9.67419 11.8812 9.62684 12.0244 9.54967C12.1675 9.4725 12.2936 9.3671 12.3949 9.23986C12.4961 9.11261 12.5706 8.96615 12.6136 8.80932C12.6567 8.6525 12.6676 8.48856 12.6455 8.32743C12.6234 8.1663 12.5689 8.01132 12.4853 7.87184L11.9864 6.94865C11.727 6.48252 11.3477 6.09421 10.8879 5.82385C10.428 5.55351 9.90426 5.41095 9.37083 5.41095C8.83738 5.41095 8.31363 5.55351 7.85378 5.82385C7.39391 6.09421 7.01465 6.48252 6.75524 6.94865L1.73343 16.2303C1.48827 16.6837 1.36499 17.193 1.37564 17.7083C1.38629 18.2237 1.5305 18.7273 1.79419 19.1703C2.05786 19.6132 2.43198 19.9801 2.87994 20.235C3.3279 20.4899 3.83438 20.6243 4.34981 20.6248H6.58601C6.9051 20.6248 7.21112 20.4982 7.43674 20.2725C7.66236 20.0468 7.78912 19.7409 7.78912 19.4217Z" fill="url(#paint0_linear_451_2237)"/>
<defs>
<linearGradient id="paint0_linear_451_2237" x1="10.9992" y1="20.625" x2="10.9992" y2="1.375" gradientUnits="userSpaceOnUse">
<stop stop-color="#02AA93"/>
<stop offset="1" stop-color="#67FF80"/>
</linearGradient>
</defs>
</svg>
