<svg width="22" height="22" viewBox="0 0 22 22" fill="none" xmlns="http://www.w3.org/2000/svg">
<path d="M2.0625 1.375C1.68281 1.375 1.375 1.68281 1.375 2.0625V15.125C1.375 15.5046 1.68281 15.8125 2.0625 15.8125H7.10417C7.48386 15.8125 7.79167 16.1204 7.79167 16.5V18.3333C7.79167 18.7131 7.48386 19.0208 7.10417 19.0208H6.875C6.49531 19.0208 6.1875 19.3286 6.1875 19.7083V19.9375C6.1875 20.3171 6.49531 20.625 6.875 20.625H15.125C15.5046 20.625 15.8125 20.3171 15.8125 19.9375V19.7083C15.8125 19.3286 15.5046 19.0208 15.125 19.0208H14.8958C14.5161 19.0208 14.2083 18.7131 14.2083 18.3333V16.5C14.2083 16.1204 14.5161 15.8125 14.8958 15.8125H19.9375C20.3171 15.8125 20.625 15.5046 20.625 15.125V2.0625C20.625 1.68281 20.3171 1.375 19.9375 1.375H2.0625ZM2.97917 3.66667C2.97917 3.28697 3.28697 2.97917 3.66667 2.97917H18.3333C18.7131 2.97917 19.0208 3.28697 19.0208 3.66667V13.5208C19.0208 13.9006 18.7131 14.2083 18.3333 14.2083H3.66667C3.28697 14.2083 2.97917 13.9006 2.97917 13.5208V3.66667ZM10.5235 5.52302C10.0757 5.14987 9.39583 5.46829 9.39583 6.05117V11.1363C9.39583 11.7192 10.0757 12.0376 10.5235 11.6645L13.5746 9.1219C13.9044 8.84704 13.9044 8.34046 13.5746 8.0656L10.5235 5.52302ZM9.39583 16.5C9.39583 16.1204 9.70364 15.8125 10.0833 15.8125H11.9167C12.2964 15.8125 12.6042 16.1204 12.6042 16.5V18.3333C12.6042 18.7131 12.2964 19.0208 11.9167 19.0208H10.0833C9.70364 19.0208 9.39583 18.7131 9.39583 18.3333V16.5Z" fill="url(#paint0_linear_451_2239)" stroke="url(#paint1_linear_451_2239)" stroke-width="0.6"/>
<defs>
<linearGradient id="paint0_linear_451_2239" x1="4.86406" y1="18.3524" x2="22.223" y2="3.20644" gradientUnits="userSpaceOnUse">
<stop stop-color="#FE0844"/>
<stop offset="1" stop-color="#FEB302"/>
</linearGradient>
<linearGradient id="paint1_linear_451_2239" x1="4.86406" y1="18.3524" x2="22.223" y2="3.20644" gradientUnits="userSpaceOnUse">
<stop stop-color="#FE0844"/>
<stop offset="1" stop-color="#FEB302"/>
</linearGradient>
</defs>
</svg>
