<svg width="22" height="22" viewBox="0 0 22 22" fill="none" xmlns="http://www.w3.org/2000/svg">
<path d="M0.785716 3.4375C0.351776 3.4375 0 3.78929 0 4.22322V18.3661C0 18.8 0.351776 19.1518 0.785716 19.1518H2.35714C2.79107 19.1518 3.14286 18.8 3.14286 18.3661V4.22322C3.14286 3.78929 2.79107 3.4375 2.35714 3.4375H0.785716ZM7.07142 3.4375C6.6375 3.4375 6.28572 3.78929 6.28572 4.22322V18.3661C6.28572 18.8 6.6375 19.1518 7.07142 19.1518H8.64284C9.07679 19.1518 9.42858 18.8 9.42858 18.3661V4.22322C9.42858 3.78929 9.07679 3.4375 8.64284 3.4375H7.07142ZM13.3572 3.4375C12.9232 3.4375 12.5714 3.78929 12.5714 4.22322V18.3661C12.5714 18.8 12.9232 19.1518 13.3572 19.1518H14.9286C15.3625 19.1518 15.7143 18.8 15.7143 18.3661V4.22322C15.7143 3.78929 15.3625 3.4375 14.9286 3.4375H13.3572ZM19.6428 3.4375C19.209 3.4375 18.8572 3.78929 18.8572 4.22322V18.3661C18.8572 18.8 19.209 19.1518 19.6428 19.1518H21.2143C21.6482 19.1518 22 18.8 22 18.3661V4.22322C22 3.78929 21.6482 3.4375 21.2143 3.4375H19.6428Z" fill="url(#paint0_linear_451_2343)"/>
<defs>
<linearGradient id="paint0_linear_451_2343" x1="11" y1="19.1518" x2="11" y2="3.4375" gradientUnits="userSpaceOnUse">
<stop stop-color="#FDA700"/>
<stop offset="1" stop-color="#FFDE00"/>
</linearGradient>
</defs>
</svg>
