<svg width="22" height="22" viewBox="0 0 22 22" fill="none" xmlns="http://www.w3.org/2000/svg">
<path d="M18.6815 13.6485H9.45393C9.08323 13.6485 8.7708 13.5692 8.51676 13.4104C8.26273 13.2516 8.13574 13.0563 8.13574 12.8246C8.13574 12.5929 8.26273 12.3977 8.51676 12.2389C8.7708 12.0801 9.08323 12.0007 9.45393 12.0007H18.6815C19.0523 12.0007 19.3647 12.0801 19.6188 12.2389C19.8728 12.3977 19.9998 12.5929 19.9998 12.8246C19.9998 13.0563 19.8728 13.2516 19.6188 13.4104C19.3647 13.5692 19.0523 13.6485 18.6815 13.6485ZM18.6815 9.36424H9.45393C9.08323 9.36424 8.7708 9.28273 8.51676 9.11964C8.26273 8.95662 8.13574 8.76136 8.13574 8.53392C8.13574 8.30649 8.26273 8.11338 8.51676 7.9546C8.7708 7.79582 9.08323 7.71646 9.45393 7.71646H18.6815C19.0523 7.71646 19.3647 7.79582 19.6188 7.9546C19.8728 8.11338 19.9998 8.30649 19.9998 8.53392C19.9998 8.76136 19.8728 8.95662 19.6188 9.11964C19.3647 9.28273 19.0523 9.36424 18.6815 9.36424ZM18.6815 6.06868H9.45393C9.08323 6.06868 8.7708 5.98715 8.51676 5.82409C8.26273 5.66103 8.13574 5.46579 8.13574 5.23835C8.13574 5.01092 8.26273 4.81782 8.51676 4.65906C8.7708 4.50028 9.08323 4.4209 9.45393 4.4209H18.6815C19.0523 4.4209 19.3647 4.50028 19.6188 4.65906C19.8728 4.81782 19.9998 5.01092 19.9998 5.23835C19.9998 5.46579 19.8728 5.66103 19.6188 5.82409C19.3647 5.98715 19.0523 6.06868 18.6815 6.06868ZM9.45393 15.2963H18.6815C19.0523 15.2963 19.3647 15.3757 19.6188 15.5344C19.8728 15.6932 19.9998 15.8885 19.9998 16.1202C19.9998 16.352 19.8694 16.5472 19.6084 16.7059C19.3476 16.8647 19.0386 16.9441 18.6815 16.9441H9.45393C9.08323 16.9441 8.7708 16.8647 8.51676 16.7059C8.26273 16.5472 8.13574 16.352 8.13574 16.1202C8.13574 15.8885 8.26273 15.6932 8.51676 15.5344C8.7708 15.3757 9.08323 15.2963 9.45393 15.2963Z" fill="url(#paint0_linear_451_2178)" stroke="url(#paint1_linear_451_2178)" stroke-width="0.6"/>
<path d="M1.87882 17.3469H5.39411C5.63212 17.3469 5.83809 17.2596 6.01202 17.0849C6.18596 16.9103 6.27293 16.6955 6.27293 16.4406V12.8155C6.27293 12.5606 6.18596 12.3458 6.01202 12.1712C5.83809 11.9965 5.63212 11.9092 5.39411 11.9092H1.87882C1.63165 11.9092 1.42339 11.9965 1.25404 12.1712C1.08468 12.3458 1 12.5606 1 12.8155V16.4406C1 16.6955 1.08468 16.9103 1.25404 17.0849C1.42339 17.2596 1.63165 17.3469 1.87882 17.3469Z" stroke="url(#paint2_linear_451_2178)" stroke-width="1.4" stroke-linecap="round" stroke-linejoin="round"/>
<path d="M1.87882 9.43773H5.39411C5.63212 9.43773 5.83809 9.34798 6.01202 9.16862C6.18596 8.98932 6.27293 8.77689 6.27293 8.53141V4.90628C6.27293 4.65139 6.18596 4.43662 6.01202 4.26197C5.83809 4.08733 5.63212 4 5.39411 4H1.87882C1.63165 4 1.42339 4.08733 1.25404 4.26197C1.08468 4.43662 1 4.65139 1 4.90628V8.53141C1 8.77689 1.08468 8.98932 1.25404 9.16862C1.42339 9.34798 1.63165 9.43773 1.87882 9.43773Z" stroke="url(#paint3_linear_451_2178)" stroke-width="1.4" stroke-linecap="round" stroke-linejoin="round"/>
<defs>
<linearGradient id="paint0_linear_451_2178" x1="13.5519" y1="16.6078" x2="15.0427" y2="5.31161" gradientUnits="userSpaceOnUse">
<stop stop-color="#8D01A2"/>
<stop offset="1" stop-color="#FF33DB"/>
</linearGradient>
<linearGradient id="paint1_linear_451_2178" x1="13.5519" y1="16.6078" x2="15.0427" y2="5.31161" gradientUnits="userSpaceOnUse">
<stop stop-color="#8D01A2"/>
<stop offset="1" stop-color="#FF33DB"/>
</linearGradient>
<linearGradient id="paint2_linear_451_2178" x1="3.40718" y1="17.2009" x2="4.0401" y2="12.2921" gradientUnits="userSpaceOnUse">
<stop stop-color="#8D01A2"/>
<stop offset="1" stop-color="#FF33DB"/>
</linearGradient>
<linearGradient id="paint3_linear_451_2178" x1="3.40718" y1="9.29168" x2="4.0401" y2="4.38293" gradientUnits="userSpaceOnUse">
<stop stop-color="#8D01A2"/>
<stop offset="1" stop-color="#FF33DB"/>
</linearGradient>
</defs>
</svg>
