<svg width="16" height="16" viewBox="0 0 16 16" fill="none" xmlns="http://www.w3.org/2000/svg">
<path d="M3.40625 8.80939C2.923 8.80939 2.53125 8.41764 2.53125 7.93439L2.53125 2.57501C2.53125 2.09176 2.923 1.70001 3.40625 1.70001C3.8895 1.70001 4.28125 2.09176 4.28125 2.57501L4.28125 7.93439C4.28125 8.41764 3.8895 8.80939 3.40625 8.80939Z" fill="url(#paint0_linear_164_187)"/>
<path d="M6.46875 5.74689H9.53125C10.0145 5.74689 10.4062 5.35514 10.4062 4.87189C10.4062 4.38864 10.0145 3.99689 9.53125 3.99689V3.99689C9.29188 3.99689 9.17219 3.99689 9.08213 3.94732C9.01575 3.91078 8.96111 3.85614 8.92457 3.78976C8.875 3.69969 8.875 3.58001 8.875 3.34064L8.875 2.57501C8.875 2.09176 8.48325 1.70001 8 1.70001C7.51675 1.70001 7.125 2.09176 7.125 2.57501L7.125 3.34064C7.125 3.58001 7.125 3.69969 7.07543 3.78976C7.03889 3.85614 6.98425 3.91078 6.91787 3.94732C6.82781 3.99689 6.70812 3.99689 6.46875 3.99689V3.99689C5.9855 3.99689 5.59375 4.38864 5.59375 4.87189C5.59375 5.35514 5.9855 5.74689 6.46875 5.74689Z" fill="url(#paint1_linear_164_187)"/>
<path d="M2.53125 13.2938C2.53125 13.777 2.923 14.1688 3.40625 14.1688C3.8895 14.1688 4.28125 13.777 4.28125 13.2938L4.28125 12.5281C4.28125 12.2888 4.28125 12.1691 4.33082 12.079C4.36736 12.0126 4.422 11.958 4.48838 11.9215C4.57844 11.8719 4.69813 11.8719 4.9375 11.8719V11.8719C5.42075 11.8719 5.8125 11.4801 5.8125 10.9969C5.8125 10.5136 5.42075 10.1219 4.9375 10.1219H1.875C1.39175 10.1219 1 10.5136 1 10.9969C1 11.4801 1.39175 11.8719 1.875 11.8719V11.8719C2.11437 11.8719 2.23406 11.8719 2.32412 11.9215C2.3905 11.958 2.44514 12.0126 2.48168 12.079C2.53125 12.1691 2.53125 12.2888 2.53125 12.5281L2.53125 13.2938Z" fill="url(#paint2_linear_164_187)"/>
<path d="M12.5938 14.1688C12.1105 14.1688 11.7188 13.777 11.7188 13.2938V13.2938C11.7188 13.0544 11.7188 12.9347 11.6692 12.8446C11.6326 12.7783 11.578 12.7236 11.5116 12.6871C11.4216 12.6375 11.3019 12.6375 11.0625 12.6375V12.6375C10.5793 12.6375 10.1875 12.2458 10.1875 11.7625C10.1875 11.2793 10.5793 10.8875 11.0625 10.8875H14.125C14.6082 10.8875 15 11.2793 15 11.7625C15 12.2458 14.6082 12.6375 14.125 12.6375V12.6375C13.8856 12.6375 13.7659 12.6375 13.6759 12.6871C13.6095 12.7236 13.5549 12.7783 13.5183 12.8446C13.4688 12.9347 13.4688 13.0544 13.4688 13.2938V13.2938C13.4688 13.777 13.077 14.1688 12.5938 14.1688Z" fill="url(#paint3_linear_164_187)"/>
<path d="M7.125 13.2938C7.125 13.777 7.51675 14.1688 8 14.1688C8.48325 14.1688 8.875 13.777 8.875 13.2938L8.875 7.93439C8.875 7.45114 8.48325 7.05939 8 7.05939C7.51675 7.05939 7.125 7.45114 7.125 7.93439L7.125 13.2938Z" fill="url(#paint4_linear_164_187)"/>
<path d="M11.7188 8.70001C11.7188 9.18326 12.1105 9.57501 12.5938 9.57501C13.077 9.57501 13.4688 9.18326 13.4688 8.70001L13.4687 2.57501C13.4687 2.09176 13.077 1.70001 12.5937 1.70001C12.1105 1.70001 11.7187 2.09176 11.7187 2.57501L11.7188 8.70001Z" fill="url(#paint5_linear_164_187)"/>
<defs>
<linearGradient id="paint0_linear_164_187" x1="4.5" y1="13.2781" x2="12.5543" y2="2.7275" gradientUnits="userSpaceOnUse">
<stop stop-color="#A056FF"/>
<stop offset="1" stop-color="#C59AFD"/>
</linearGradient>
<linearGradient id="paint1_linear_164_187" x1="4.5" y1="13.2781" x2="12.5543" y2="2.7275" gradientUnits="userSpaceOnUse">
<stop stop-color="#A056FF"/>
<stop offset="1" stop-color="#C59AFD"/>
</linearGradient>
<linearGradient id="paint2_linear_164_187" x1="4.5" y1="13.2781" x2="12.5543" y2="2.7275" gradientUnits="userSpaceOnUse">
<stop stop-color="#A056FF"/>
<stop offset="1" stop-color="#C59AFD"/>
</linearGradient>
<linearGradient id="paint3_linear_164_187" x1="4.5" y1="13.2781" x2="12.5543" y2="2.7275" gradientUnits="userSpaceOnUse">
<stop stop-color="#A056FF"/>
<stop offset="1" stop-color="#C59AFD"/>
</linearGradient>
<linearGradient id="paint4_linear_164_187" x1="4.5" y1="13.2781" x2="12.5543" y2="2.7275" gradientUnits="userSpaceOnUse">
<stop stop-color="#A056FF"/>
<stop offset="1" stop-color="#C59AFD"/>
</linearGradient>
<linearGradient id="paint5_linear_164_187" x1="4.5" y1="13.2781" x2="12.5543" y2="2.7275" gradientUnits="userSpaceOnUse">
<stop stop-color="#A056FF"/>
<stop offset="1" stop-color="#C59AFD"/>
</linearGradient>
</defs>
</svg>
