<svg width="22" height="22" viewBox="0 0 22 22" fill="none" xmlns="http://www.w3.org/2000/svg">
<path d="M19.0401 3.08495C18.5397 2.66796 17.953 2.36697 17.3225 2.20361C16.6919 2.04025 16.033 2.01855 15.393 2.14009L12.7598 2.69193C12.1055 2.80896 11.4964 3.10491 11 3.54695C10.514 3.10817 9.91553 2.81323 9.27148 2.69514L6.57571 2.13368C5.94018 2.01811 5.28704 2.04352 4.66241 2.20811C4.03779 2.37269 3.45693 2.67245 2.96087 3.08618C2.46482 3.49992 2.06567 4.01754 1.79165 4.60248C1.51762 5.18742 1.37538 5.8254 1.375 6.47134V14.3254C1.37357 15.3557 1.73336 16.3539 2.39178 17.1465C3.05021 17.9389 3.96561 18.4756 4.97876 18.663L9.63648 19.583C10.0847 19.6648 10.5395 19.7058 10.9952 19.7057C11.46 19.7054 11.9239 19.6633 12.3812 19.5798L17.0028 18.663C18.0186 18.4783 18.9375 17.9431 19.5994 17.1507C20.2612 16.3582 20.6242 15.3587 20.625 14.3261V6.47134C20.6256 5.82515 20.4839 5.18674 20.21 4.60147C19.9361 4.0162 19.5367 3.49843 19.0401 3.08495ZM9.79687 17.1623L5.42793 16.2993C4.96583 16.2153 4.54787 15.9718 4.24694 15.6112C3.94601 15.2506 3.7812 14.7958 3.78125 14.3261V6.47134C3.78273 5.94081 3.9938 5.43237 4.36849 5.05678C4.74318 4.68118 5.25112 4.46888 5.78165 4.46613C5.89301 4.46592 6.00415 4.47585 6.11371 4.49581L8.80948 5.05727C9.08655 5.10776 9.337 5.25381 9.51747 5.46999C9.69787 5.68617 9.79673 5.95877 9.79687 6.24034V17.1623ZM18.2187 14.3261C18.2179 14.7986 18.0506 15.2558 17.7462 15.6172C17.4419 15.9786 17.0199 16.2212 16.5544 16.3025L12.2031 17.1623V6.24034C12.2048 5.9535 12.3082 5.67654 12.4948 5.45874C12.6815 5.24094 12.9394 5.09641 13.2225 5.05085L15.855 4.49982C16.1439 4.44733 16.4407 4.45891 16.7246 4.53373C17.0085 4.60855 17.2725 4.74479 17.4979 4.93283C17.7233 5.12087 17.9048 5.35612 18.0293 5.62197C18.1539 5.88781 18.2185 6.17777 18.2187 6.47134V14.3261Z" fill="url(#paint0_linear_451_2229)"/>
<defs>
<linearGradient id="paint0_linear_451_2229" x1="11" y1="19.7057" x2="11" y2="2.0625" gradientUnits="userSpaceOnUse">
<stop stop-color="#02AA93"/>
<stop offset="1" stop-color="#67FF80"/>
</linearGradient>
</defs>
</svg>
