<svg width="22" height="22" viewBox="0 0 22 22" fill="none" xmlns="http://www.w3.org/2000/svg">
<path fill-rule="evenodd" clip-rule="evenodd" d="M3.4375 4.52904C3.4375 3.91775 3.92638 3.4375 4.51076 3.4375H7.31706C7.90144 3.4375 8.39032 3.91775 8.39032 4.52904V7.35969C8.39032 7.97039 7.90116 8.45123 7.31706 8.45123H4.51076C3.92666 8.45123 3.4375 7.97039 3.4375 7.35969V4.52904ZM4.51076 1.375C2.7705 1.375 1.375 2.7955 1.375 4.52904V7.35969C1.375 9.09205 2.77023 10.5137 4.51076 10.5137H7.31706C9.05761 10.5137 10.4528 9.09205 10.4528 7.35969V4.52904C10.4528 2.7955 9.0573 1.375 7.31706 1.375H4.51076ZM13.6097 4.52904C13.6097 3.91775 14.0986 3.4375 14.6829 3.4375H17.4901C18.0733 3.4375 18.5625 3.91744 18.5625 4.52904V7.35969C18.5625 7.97067 18.0731 8.45123 17.4901 8.45123H14.6829C14.0988 8.45123 13.6097 7.97039 13.6097 7.35969V4.52904ZM14.6829 1.375C12.9427 1.375 11.5472 2.7955 11.5472 4.52904V7.35969C11.5472 9.09205 12.9424 10.5137 14.6829 10.5137H17.4901C19.2301 10.5137 20.625 9.09177 20.625 7.35969V4.52904C20.625 2.79578 19.2298 1.375 17.4901 1.375H14.6829ZM4.51076 13.5484C3.92666 13.5484 3.4375 14.0284 3.4375 14.6408V17.4706C3.4375 18.0819 3.92638 18.5622 4.51076 18.5622H7.31706C7.90144 18.5622 8.39032 18.0819 8.39032 17.4706V14.6408C8.39032 14.0284 7.90116 13.5484 7.31706 13.5484H4.51076ZM1.375 14.6408C1.375 12.9067 2.77023 11.4859 4.51076 11.4859H7.31706C9.05761 11.4859 10.4528 12.9067 10.4528 14.6408V17.4706C10.4528 19.2041 9.0573 20.6247 7.31706 20.6247H4.51076C2.7705 20.6247 1.375 19.2041 1.375 17.4706V14.6408ZM13.6097 14.6408C13.6097 14.0284 14.0988 13.5484 14.6829 13.5484H17.4901C18.0731 13.5484 18.5625 14.0281 18.5625 14.6408V17.4706C18.5625 18.0822 18.0733 18.5622 17.4901 18.5622H14.6829C14.0986 18.5622 13.6097 18.0819 13.6097 17.4706V14.6408ZM14.6829 11.4859C12.9424 11.4859 11.5472 12.9067 11.5472 14.6408V17.4706C11.5472 19.2041 12.9427 20.6247 14.6829 20.6247H17.4901C19.2298 20.6247 20.625 19.2039 20.625 17.4706V14.6408C20.625 12.907 19.2301 11.4859 17.4901 11.4859H14.6829Z" fill="url(#paint0_linear_451_2303)"/>
<defs>
<linearGradient id="paint0_linear_451_2303" x1="19.7529" y1="1.70585" x2="2.15746" y2="20.2039" gradientUnits="userSpaceOnUse">
<stop stop-color="#D800BD"/>
<stop offset="0.408098" stop-color="#F92D7A"/>
<stop offset="0.590073" stop-color="#FF4A52"/>
<stop offset="1" stop-color="#FFB243"/>
</linearGradient>
</defs>
</svg>
