<svg width="22" height="22" viewBox="0 0 22 22" fill="none" xmlns="http://www.w3.org/2000/svg">
<path d="M12.9336 5.84375H9.06641C8.71045 5.84375 8.42188 5.55517 8.42188 5.19922V1.33203C8.42188 0.976078 8.71045 0.6875 9.06641 0.6875H12.9336C13.2895 0.6875 13.5781 0.976078 13.5781 1.33203V5.19922C13.5781 5.55517 13.2895 5.84375 12.9336 5.84375Z" fill="url(#paint0_linear_451_2347)"/>
<path d="M12.9336 13.5781H9.06641C8.71045 13.5781 8.42188 13.2895 8.42188 12.9336V9.06641C8.42188 8.71045 8.71045 8.42188 9.06641 8.42188H12.9336C13.2895 8.42188 13.5781 8.71045 13.5781 9.06641V12.9336C13.5781 13.2895 13.2895 13.5781 12.9336 13.5781Z" fill="url(#paint1_linear_451_2347)"/>
<path d="M12.9336 21.3125H9.06641C8.71045 21.3125 8.42188 21.0239 8.42188 20.668V16.8008C8.42188 16.4448 8.71045 16.1562 9.06641 16.1562H12.9336C13.2895 16.1562 13.5781 16.4448 13.5781 16.8008V20.668C13.5781 21.0239 13.2895 21.3125 12.9336 21.3125Z" fill="url(#paint2_linear_451_2347)"/>
<defs>
<linearGradient id="paint0_linear_451_2347" x1="11" y1="5.84375" x2="11" y2="0.6875" gradientUnits="userSpaceOnUse">
<stop stop-color="#FD5900"/>
<stop offset="1" stop-color="#FFDE00"/>
</linearGradient>
<linearGradient id="paint1_linear_451_2347" x1="11" y1="13.5781" x2="11" y2="8.42188" gradientUnits="userSpaceOnUse">
<stop stop-color="#FD3A84"/>
<stop offset="1" stop-color="#FFA68D"/>
</linearGradient>
<linearGradient id="paint2_linear_451_2347" x1="11" y1="21.3125" x2="11" y2="16.1562" gradientUnits="userSpaceOnUse">
<stop stop-color="#A93AFF"/>
<stop offset="1" stop-color="#FF81FF"/>
</linearGradient>
</defs>
</svg>
