<svg width="22" height="22" viewBox="0 0 22 22" fill="none" xmlns="http://www.w3.org/2000/svg">
<path d="M2.0625 1.375C1.68281 1.375 1.375 1.68281 1.375 2.0625V8.70833C1.375 9.08804 1.68281 9.39583 2.0625 9.39583H7.10417C7.48386 9.39583 7.79167 9.70364 7.79167 10.0833V16.7292C7.79167 17.1089 8.09946 17.4167 8.47917 17.4167H9.39583H11.9167C12.2964 17.4167 12.6042 17.7244 12.6042 18.1042V19.9375C12.6042 20.3171 12.912 20.625 13.2917 20.625H19.9375C20.3171 20.625 20.625 20.3171 20.625 19.9375V13.2917C20.625 12.912 20.3171 12.6042 19.9375 12.6042H13.2917C12.912 12.6042 12.6042 12.912 12.6042 13.2917V15.125C12.6042 15.5046 12.2964 15.8125 11.9167 15.8125H10.0833C9.70364 15.8125 9.39583 15.5046 9.39583 15.125V9.39583V6.875C9.39583 6.49531 9.70364 6.1875 10.0833 6.1875H11.9167C12.2964 6.1875 12.6042 6.49531 12.6042 6.875V8.70833C12.6042 9.08804 12.912 9.39583 13.2917 9.39583H19.9375C20.3171 9.39583 20.625 9.08804 20.625 8.70833V2.0625C20.625 1.68281 20.3171 1.375 19.9375 1.375H13.2917C12.912 1.375 12.6042 1.68281 12.6042 2.0625V3.89583C12.6042 4.27553 12.2964 4.58333 11.9167 4.58333H10.0833C9.70364 4.58333 9.39583 4.27553 9.39583 3.89583V2.0625C9.39583 1.68281 9.08804 1.375 8.70833 1.375H2.0625ZM2.97917 3.66667C2.97917 3.28697 3.28697 2.97917 3.66667 2.97917H7.10417C7.48386 2.97917 7.79167 3.28697 7.79167 3.66667V7.10417C7.79167 7.48386 7.48386 7.79167 7.10417 7.79167H3.66667C3.28697 7.79167 2.97917 7.48386 2.97917 7.10417V3.66667ZM14.2083 3.66667C14.2083 3.28697 14.5161 2.97917 14.8958 2.97917H18.3333C18.7131 2.97917 19.0208 3.28697 19.0208 3.66667V7.10417C19.0208 7.48386 18.7131 7.79167 18.3333 7.79167H14.8958C14.5161 7.79167 14.2083 7.48386 14.2083 7.10417V3.66667Z" fill="url(#paint0_linear_451_2282)" stroke="url(#paint1_linear_451_2282)" stroke-width="0.6"/>
<defs>
<linearGradient id="paint0_linear_451_2282" x1="4.86406" y1="18.3524" x2="22.223" y2="3.20644" gradientUnits="userSpaceOnUse">
<stop stop-color="#FE0844"/>
<stop offset="1" stop-color="#FEB302"/>
</linearGradient>
<linearGradient id="paint1_linear_451_2282" x1="4.86406" y1="18.3524" x2="22.223" y2="3.20644" gradientUnits="userSpaceOnUse">
<stop stop-color="#FE0844"/>
<stop offset="1" stop-color="#FEB302"/>
</linearGradient>
</defs>
</svg>
