<svg width="32" height="32" viewBox="0 0 32 32" fill="none" xmlns="http://www.w3.org/2000/svg">
<path d="M24.9999 2C23.8954 2 23 2.62682 23 3.40001V28.6001C23 29.3731 23.8954 30 24.9999 30H28.9998C30.1044 30 31 29.3731 31 28.6001V3.40001C31 2.62682 30.1044 2 28.9998 2H24.9999Z" fill="url(#paint0_linear_99_226)"/>
<path opacity="0.4" d="M1 28.6251V20.3749C1 19.6156 1.78352 19 2.74995 19H6.24994C7.21646 19 8 19.6156 8 20.3749V28.6251C8 29.3844 7.21646 30 6.24994 30H2.74995C1.78352 30 1 29.3844 1 28.6251Z" fill="url(#paint1_linear_99_226)"/>
<path opacity="0.6" d="M12 28.5834V14.4166C12 13.6342 12.8954 13 14 13H18C19.1046 13 20 13.6342 20 14.4166V28.5834C20 29.3657 19.1046 30 18 30H14C12.8954 30 12 29.3657 12 28.5834Z" fill="url(#paint2_linear_99_226)"/>
<defs>
<linearGradient id="paint0_linear_99_226" x1="22.8843" y1="2.27551" x2="38.5343" y2="6.88373" gradientUnits="userSpaceOnUse">
<stop stop-color="#F9D423"/>
<stop offset="0.515624" stop-color="#FF4E50"/>
<stop offset="0.991304" stop-color="#8A2387"/>
</linearGradient>
<linearGradient id="paint1_linear_99_226" x1="4.49999" y1="30" x2="4.49999" y2="19" gradientUnits="userSpaceOnUse">
<stop stop-color="#02AA93"/>
<stop offset="1" stop-color="#67FF80"/>
</linearGradient>
<linearGradient id="paint2_linear_99_226" x1="15.9999" y1="30" x2="15.9999" y2="13" gradientUnits="userSpaceOnUse">
<stop stop-color="#FD5900"/>
<stop offset="1" stop-color="#FFDE00"/>
</linearGradient>
</defs>
</svg>
