<svg width="22" height="22" viewBox="0 0 22 22" fill="none" xmlns="http://www.w3.org/2000/svg">
<path d="M2.0625 1.375C1.68281 1.375 1.375 1.68281 1.375 2.0625V2.29167C1.375 2.67136 1.68281 2.97917 2.0625 2.97917H3.8474C4.40689 2.97917 4.73209 3.61182 4.40646 4.0668L1.50344 8.12292C1.41991 8.23962 1.375 8.37954 1.375 8.52305V8.70833C1.375 9.08804 1.68281 9.39583 2.0625 9.39583H7.10417C7.48386 9.39583 7.79167 9.08804 7.79167 8.70833V8.47917C7.79167 8.09946 7.48386 7.79167 7.10417 7.79167H5.86794C5.31883 7.79167 4.99132 7.17969 5.29591 6.72281L7.6762 3.15237C7.75149 3.03942 7.79167 2.90674 7.79167 2.77101V2.0625C7.79167 1.68281 7.48386 1.375 7.10417 1.375H2.0625ZM14.8958 4.58333C14.5161 4.58333 14.2083 4.89114 14.2083 5.27083V15.9072C14.2083 16.5198 13.4678 16.8266 13.0347 16.3934L11.0243 14.383C10.76 14.1188 10.333 14.114 10.0629 14.3723L9.90142 14.5269C9.62362 14.7925 9.61767 15.2343 9.88819 15.5075L14.6596 20.3242C14.8614 20.4973 15.1594 20.4973 15.3614 20.3242L20.1326 15.5075C20.4032 15.2343 20.3972 14.7925 20.1194 14.5269L19.9579 14.3723C19.6878 14.114 19.2609 14.1188 18.9966 14.383L16.9862 16.3934C16.5531 16.8266 15.8125 16.5198 15.8125 15.9072V5.27083C15.8125 4.89114 15.5046 4.58333 15.125 4.58333H14.8958ZM4.73373 12.6042C3.77744 12.6264 2.99878 12.748 2.37212 12.9466C2.05062 13.0485 1.89208 13.3945 1.98176 13.7196L2.03196 13.9015C2.13766 14.2847 2.54639 14.5014 2.93008 14.3978C3.45027 14.257 4.11949 14.108 4.58333 14.108H4.68359C5.72089 14.1519 5.78645 14.5203 5.78645 15.4114C5.78645 15.6146 5.64113 15.7889 5.44121 15.8252L5.23502 15.8627C2.72212 16.2279 1.375 16.5408 1.375 18.4694C1.375 19.8135 2.36408 20.625 3.78125 20.625C4.50446 20.625 5.03154 20.4082 5.52266 20.071C5.75822 19.9092 6.09405 20.0332 6.13863 20.3155C6.16676 20.4937 6.32041 20.625 6.50086 20.625H7.10417C7.48386 20.625 7.79167 20.3171 7.79167 19.9375V15.0605C7.79167 13.4096 6.6373 12.6042 4.88411 12.6042H4.73373ZM5.23502 16.9654C5.53114 16.9386 5.78645 17.1717 5.78645 17.4691V18.3549C5.78645 18.5833 5.67491 18.7997 5.48027 18.9192C5.07315 19.1689 4.69601 19.3216 4.13216 19.3216C3.50394 19.3216 3.17969 18.9243 3.17969 18.3692C3.17969 17.3172 4.11005 17.1262 5.23502 16.9654Z" fill="url(#paint0_linear_451_2192)" stroke="url(#paint1_linear_451_2192)" stroke-width="0.6"/>
<defs>
<linearGradient id="paint0_linear_451_2192" x1="11" y1="20.625" x2="11" y2="1.375" gradientUnits="userSpaceOnUse">
<stop stop-color="#00B59C"/>
<stop offset="1" stop-color="#9CFFAC"/>
</linearGradient>
<linearGradient id="paint1_linear_451_2192" x1="10.8533" y1="20.625" x2="10.8533" y2="1.375" gradientUnits="userSpaceOnUse">
<stop stop-color="#00B59C"/>
<stop offset="1" stop-color="#9CFFAC"/>
</linearGradient>
</defs>
</svg>
