<svg width="22" height="22" viewBox="0 0 22 22" fill="none" xmlns="http://www.w3.org/2000/svg">
<path d="M3.64972 2.12962C3.55584 2.03574 3.44439 1.96127 3.32172 1.91046C3.19906 1.85966 3.06759 1.8335 2.93484 1.8335C2.80207 1.8335 2.6706 1.85966 2.54794 1.91046C2.42527 1.96127 2.31382 2.03574 2.21996 2.12962C2.03034 2.31921 1.92383 2.57636 1.92383 2.84451C1.92383 3.11263 2.03034 3.36978 2.21996 3.55939L7.88868 9.22815C7.53002 9.8953 7.39589 10.6603 7.50614 11.4096C7.61641 12.159 7.96518 12.853 8.50079 13.3885C9.03643 13.9242 9.73041 14.273 10.4797 14.3832C11.2291 14.4935 11.9941 14.3594 12.6613 14.0007L18.33 19.6694C18.4235 19.7638 18.5349 19.8387 18.6576 19.8898C18.7804 19.9409 18.912 19.9673 19.0449 19.9673C19.1779 19.9673 19.3094 19.9409 19.4321 19.8898C19.5548 19.8387 19.6662 19.7638 19.7598 19.6694C19.8542 19.5758 19.9291 19.4645 19.9802 19.3418C20.0313 19.2191 20.0576 19.0875 20.0576 18.9545C20.0576 18.8216 20.0313 18.6901 19.9802 18.5673C19.9291 18.4446 19.8542 18.3332 19.7598 18.2397L3.64972 2.12962ZM10.9899 12.4098C10.5893 12.4098 10.2052 12.2508 9.9219 11.9674C9.63865 11.6842 9.47952 11.3001 9.47952 10.8995V10.829L11.0503 12.3998L10.9899 12.4098Z" fill="url(#paint0_linear_451_2314)"/>
<path d="M11.2113 15.934C6.88171 16.0348 4.04232 12.3193 3.15627 10.8997C3.78705 9.89347 4.54511 8.97289 5.41167 8.16091L3.94163 6.74121C2.80519 7.812 1.83163 9.04337 1.0519 10.3962C0.963522 10.5493 0.916992 10.7229 0.916992 10.8997C0.916992 11.0763 0.963522 11.25 1.0519 11.4031C1.68623 12.5006 5.07941 17.9478 11.01 17.9478H11.2617C12.3768 17.9147 13.4775 17.6863 14.5139 17.2732L12.923 15.6823C12.3635 15.8294 11.7895 15.914 11.2113 15.934ZM20.9277 10.3962C20.2833 9.27857 16.729 3.67023 10.718 3.85146C9.60278 3.88455 8.50202 4.11287 7.4657 4.52607L9.05661 6.11694C9.61607 5.96977 10.1902 5.88534 10.7683 5.86522C15.0878 5.75446 17.9272 9.47996 18.8233 10.8997C18.1769 11.9089 17.4018 12.8295 16.5176 13.6383L18.0379 15.0581C19.1886 13.9901 20.1759 12.7585 20.968 11.4031C21.0502 11.2466 21.0899 11.0709 21.0828 10.8942C21.0757 10.7174 21.0222 10.5457 20.9277 10.3962Z" fill="url(#paint1_linear_451_2314)"/>
<defs>
<linearGradient id="paint0_linear_451_2314" x1="20.0039" y1="1.94846" x2="2.01355" y2="19.7891" gradientUnits="userSpaceOnUse">
<stop stop-color="#FE7970"/>
<stop offset="1" stop-color="#DC3282"/>
</linearGradient>
<linearGradient id="paint1_linear_451_2314" x1="21.0239" y1="3.93656" x2="7.84712" y2="22.6251" gradientUnits="userSpaceOnUse">
<stop stop-color="#FE7970"/>
<stop offset="1" stop-color="#DC3282"/>
</linearGradient>
</defs>
</svg>
