<svg width="22" height="22" viewBox="0 0 22 22" fill="none" xmlns="http://www.w3.org/2000/svg">
<path fill-rule="evenodd" clip-rule="evenodd" d="M12.0485 3.84942C8.10149 3.26858 4.43091 5.99746 3.85009 9.94452C3.77246 10.543 3.26589 10.993 2.6624 10.9996C2.60219 10.9988 2.54216 10.9936 2.48274 10.9839C1.82314 10.8766 1.37538 10.2549 1.48268 9.59523C1.75483 7.73455 2.56686 5.99457 3.81816 4.59085C7.35022 0.628501 13.4257 0.279696 17.3881 3.81176L18.4271 2.77272C18.5769 2.62293 18.7801 2.53875 18.992 2.53871C19.4334 2.53865 19.7914 2.8964 19.7914 3.33781V7.00325C19.7914 7.44468 19.4337 7.80251 18.9922 7.80251H15.3268C15.1149 7.80247 14.9117 7.71829 14.7619 7.5685C14.4497 7.25641 14.4496 6.75032 14.7617 6.43816L15.6928 5.50703C14.6585 4.62217 13.3952 4.04757 12.0485 3.84942ZM18.1488 12.0544C18.2265 11.4559 18.733 11.0059 19.3364 10.9994C19.3969 11.0001 19.4574 11.0054 19.5171 11.0151C20.1766 11.1229 20.624 11.7449 20.5162 12.4045C20.2441 14.2659 19.4317 16.0064 18.1797 17.4104C14.6473 21.372 8.57229 21.7197 4.61088 18.1871L3.57184 19.2263C3.42202 19.376 3.21881 19.4602 3.00694 19.4602C2.56552 19.4602 2.2076 19.1025 2.2075 18.6612V14.9957C2.2075 14.5543 2.56533 14.1964 3.00675 14.1964H6.67211C6.88398 14.1965 7.08719 14.2807 7.23701 14.4305C7.54922 14.7425 7.54929 15.2486 7.2372 15.5608L6.30607 16.4919C7.34043 17.3767 8.60369 17.9513 9.95035 18.1495C13.8974 18.7303 17.568 16.0014 18.1488 12.0544Z" fill="url(#paint0_linear_451_2224)"/>
<path d="M3.85012 9.94452L3.68007 9.91951L3.67986 9.92095L3.67967 9.92242L3.85012 9.94452ZM2.66243 10.9996L2.66028 11.1714L2.66227 11.1714L2.66428 11.1714L2.66243 10.9996ZM1.48271 9.59523L1.65235 9.62284L1.65257 9.62146L1.65277 9.6201L1.48271 9.59523ZM17.3881 3.81176L17.2736 3.94006L17.3948 4.04804L17.5096 3.93329L17.3881 3.81176ZM15.6928 5.50703L15.8144 5.62856L15.9458 5.4972L15.8046 5.37642L15.6928 5.50703ZM19.3365 10.9994L19.3385 10.8275L19.3366 10.8275L19.3347 10.8275L19.3365 10.9994ZM18.1488 12.0544L18.3188 12.0794L18.3191 12.078L18.3193 12.0765L18.1488 12.0544ZM19.5171 11.0151L19.4893 11.1848L19.4894 11.1848L19.5171 11.0151ZM20.5162 12.4045L20.3466 12.3768L20.3464 12.3782L20.3462 12.3796L20.5162 12.4045ZM4.61091 18.1871L4.72529 18.0589L4.60413 17.9508L4.48937 18.0656L4.61091 18.1871ZM6.30609 16.4919L6.18456 16.3704L6.0532 16.5017L6.19437 16.6225L6.30609 16.4919ZM4.02015 9.96954C4.58717 6.1164 8.1704 3.45246 12.0235 4.01945L12.0736 3.67936C8.03263 3.08473 4.27472 5.87852 3.68007 9.91951L4.02015 9.96954ZM2.66428 11.1714C3.35343 11.164 3.93191 10.6501 4.02057 9.96664L3.67967 9.92242C3.61305 10.436 3.17838 10.8221 2.66057 10.8277L2.66428 11.1714ZM2.45518 11.1536C2.52305 11.1646 2.59158 11.1706 2.66028 11.1714L2.66456 10.8277C2.61284 10.827 2.56133 10.8226 2.51037 10.8143L2.45518 11.1536ZM1.31306 9.56763C1.19052 10.321 1.70186 11.031 2.45518 11.1536L2.51037 10.8143C1.94445 10.7222 1.56029 10.1888 1.65235 9.62284L1.31306 9.56763ZM3.6899 4.47649C2.4162 5.9053 1.58966 7.6764 1.31264 9.57036L1.65277 9.6201C1.92005 7.79269 2.71757 6.08384 3.94649 4.70522L3.6899 4.47649ZM17.5024 3.68346C13.4692 0.0882349 7.28511 0.443275 3.6899 4.47649L3.94649 4.70522C7.41539 0.813729 13.3822 0.471161 17.2736 3.94006L17.5024 3.68346ZM18.3056 2.65117L17.2666 3.69023L17.5096 3.93329L18.5488 2.89427L18.3056 2.65117ZM18.992 2.36684C18.7346 2.36689 18.4877 2.46918 18.3056 2.65117L18.5488 2.89427C18.6665 2.77671 18.8258 2.71063 18.992 2.71059V2.36684ZM19.9633 3.33781C19.9633 2.80148 19.5283 2.36676 18.992 2.36684V2.71059C19.3385 2.71054 19.6195 2.99137 19.6195 3.33787L19.9633 3.33781ZM19.9633 7.00326V3.33781L19.6195 3.33787V7.00326H19.9633ZM18.9922 7.97438C19.5286 7.97438 19.9633 7.53961 19.9633 7.00326H19.6195C19.6195 7.34976 19.3387 7.63063 18.9922 7.63063V7.97438ZM15.3268 7.97438H18.9922V7.63063H15.3268L15.3268 7.97438ZM14.6404 7.69005C14.8224 7.87205 15.0693 7.97433 15.3268 7.97438L15.3268 7.63063C15.1605 7.6306 15.001 7.56453 14.8834 7.44695L14.6404 7.69005ZM14.6402 6.31663C14.261 6.69593 14.261 7.31086 14.6404 7.69005L14.8834 7.44695C14.6384 7.20196 14.6383 6.80471 14.8833 6.55968L14.6402 6.31663ZM15.5713 5.3855L14.6402 6.31663L14.8833 6.55968L15.8144 5.62856L15.5713 5.3855ZM12.0235 4.01945C13.3382 4.2129 14.5714 4.77383 15.5811 5.63764L15.8046 5.37642C14.7456 4.47052 13.4523 3.88225 12.0736 3.67936L12.0235 4.01945ZM19.3347 10.8275C18.6455 10.835 18.067 11.3488 17.9783 12.0323L18.3193 12.0765C18.3858 11.5629 18.8205 11.1768 19.3384 11.1712L19.3347 10.8275ZM19.545 10.8455C19.4767 10.8343 19.4078 10.8283 19.3385 10.8275L19.3346 11.1712C19.3863 11.1718 19.438 11.1764 19.4893 11.1848L19.545 10.8455ZM20.6859 12.4322C20.8089 11.679 20.2983 10.9686 19.545 10.8455L19.4894 11.1848C20.0552 11.2772 20.439 11.8109 20.3466 12.3768L20.6859 12.4322ZM18.3081 17.5249C19.5824 16.0957 20.4093 14.324 20.6864 12.4294L20.3462 12.3796C20.079 14.2077 19.2811 15.9172 18.0515 17.2961L18.3081 17.5249ZM4.49651 18.3155C8.52878 21.9111 14.7124 21.5571 18.3081 17.5249L18.0515 17.2961C14.5822 21.1867 8.61585 21.5282 4.72529 18.0589L4.49651 18.3155ZM3.69339 19.3478L4.73244 18.3086L4.48937 18.0656L3.45034 19.1046L3.69339 19.3478ZM3.00699 19.6321C3.26442 19.6321 3.51134 19.5298 3.69339 19.3478L3.45034 19.1046C3.33272 19.2222 3.17324 19.2883 3.00693 19.2883L3.00699 19.6321ZM2.03565 18.6612C2.03579 19.1976 2.47065 19.6323 3.00699 19.6321L3.00693 19.2883C2.66043 19.2883 2.37949 19.0075 2.3794 18.6612H2.03565ZM2.03565 14.9957V18.6612H2.3794V14.9957H2.03565ZM3.00678 14.0246C2.47043 14.0246 2.03565 14.4593 2.03565 14.9957H2.3794C2.3794 14.6492 2.66028 14.3683 3.00678 14.3683V14.0246ZM6.67217 14.0246H3.00678V14.3683H6.67213L6.67217 14.0246ZM7.35857 14.3089C7.17652 14.1269 6.9296 14.0246 6.67217 14.0246L6.67213 14.3683C6.83844 14.3683 6.99792 14.4344 7.11552 14.552L7.35857 14.3089ZM7.35876 15.6823C7.73796 15.303 7.73791 14.6881 7.35857 14.3089L7.11552 14.552C7.36058 14.797 7.36065 15.1942 7.11567 15.4393L7.35876 15.6823ZM6.42764 16.6134L7.35876 15.6823L7.11567 15.4393L6.18456 16.3704L6.42764 16.6134ZM9.97538 17.9795C8.66078 17.786 7.42758 17.2251 6.41783 16.3613L6.19437 16.6225C7.25333 17.5285 8.54665 18.1167 9.92535 18.3196L9.97538 17.9795ZM17.9788 12.0294C17.4118 15.8825 13.8285 18.5465 9.97538 17.9795L9.92535 18.3196C13.9663 18.9142 17.7243 16.1204 18.3188 12.0794L17.9788 12.0294Z" fill="url(#paint1_linear_451_2224)"/>
<defs>
<linearGradient id="paint0_linear_451_2224" x1="1.19122" y1="1.56442" x2="21.0409" y2="21.8255" gradientUnits="userSpaceOnUse">
<stop stop-color="#F9D423"/>
<stop offset="0.515624" stop-color="#FF4E50"/>
<stop offset="0.991304" stop-color="#8A2387"/>
</linearGradient>
<linearGradient id="paint1_linear_451_2224" x1="1.19125" y1="1.56442" x2="21.041" y2="21.8255" gradientUnits="userSpaceOnUse">
<stop stop-color="#F9D423"/>
<stop offset="0.515624" stop-color="#FF4E50"/>
<stop offset="0.991304" stop-color="#8A2387"/>
</linearGradient>
</defs>
</svg>
