<svg width="22" height="22" viewBox="0 0 22 22" fill="none" xmlns="http://www.w3.org/2000/svg">
<path d="M8.93656 12.3749L8.97419 12.3072L8.93673 12.375C9.14246 12.4886 9.39828 12.4866 9.60526 12.357L14.2564 9.45003C14.4488 9.32971 14.5659 9.11864 14.5659 8.89147C14.5659 8.66431 14.4488 8.45324 14.2564 8.33291L9.60541 5.42608C9.60543 5.42608 9.6054 5.42606 9.60541 5.42608C9.40202 5.29802 9.14406 5.29209 8.93656 5.408C8.7269 5.5244 8.5969 5.74509 8.5969 5.9845V11.7984C8.5969 12.0379 8.7269 12.2585 8.93656 12.3749ZM4.02326 14.7829H5.68992V15.2868C5.68992 15.651 5.98467 15.9457 6.34884 15.9457C6.71301 15.9457 7.00775 15.651 7.00775 15.2868V14.7829H17.9767C18.3409 14.7829 18.6357 14.4882 18.6357 14.124C18.6357 13.7599 18.3409 13.4651 17.9767 13.4651H7.00775V12.9612C7.00775 12.5971 6.71301 12.3023 6.34884 12.3023C5.98467 12.3023 5.68992 12.5971 5.68992 12.9612V13.4651H4.02326C3.65909 13.4651 3.36434 13.7599 3.36434 14.124C3.36434 14.4882 3.65909 14.7829 4.02326 14.7829ZM9.91473 10.6094V7.17358L12.6638 8.89147L9.91473 10.6094ZM20.3411 3H1.65891C1.29475 3 1 3.29474 1 3.65891V17.6124C1 17.9766 1.29475 18.2713 1.65891 18.2713H20.3411C20.7053 18.2713 21 17.9766 21 17.6124V3.65891C21 3.29474 20.7053 3 20.3411 3ZM19.6822 16.9535H2.31783V4.31783H19.6822V16.9535Z" fill="url(#paint0_linear_451_2270)"/>
<path d="M9.60541 5.42608L14.2564 8.33291C14.4488 8.45324 14.5659 8.66431 14.5659 8.89147C14.5659 9.11864 14.4488 9.32971 14.2564 9.45003L9.60526 12.357C9.39828 12.4866 9.14246 12.4886 8.93673 12.375L8.97419 12.3072L8.93656 12.3749C8.7269 12.2585 8.5969 12.0379 8.5969 11.7984V5.9845C8.5969 5.74509 8.7269 5.5244 8.93656 5.408C9.14406 5.29209 9.40202 5.29802 9.60541 5.42608ZM9.60541 5.42608C9.6054 5.42606 9.60543 5.42608 9.60541 5.42608ZM4.02326 14.7829H5.68992V15.2868C5.68992 15.651 5.98467 15.9457 6.34884 15.9457C6.71301 15.9457 7.00775 15.651 7.00775 15.2868V14.7829H17.9767C18.3409 14.7829 18.6357 14.4882 18.6357 14.124C18.6357 13.7599 18.3409 13.4651 17.9767 13.4651H7.00775V12.9612C7.00775 12.5971 6.71301 12.3023 6.34884 12.3023C5.98467 12.3023 5.68992 12.5971 5.68992 12.9612V13.4651H4.02326C3.65909 13.4651 3.36434 13.7599 3.36434 14.124C3.36434 14.4882 3.65909 14.7829 4.02326 14.7829ZM9.91473 10.6094V7.17358L12.6638 8.89147L9.91473 10.6094ZM20.3411 3H1.65891C1.29475 3 1 3.29474 1 3.65891V17.6124C1 17.9766 1.29475 18.2713 1.65891 18.2713H20.3411C20.7053 18.2713 21 17.9766 21 17.6124V3.65891C21 3.29474 20.7053 3 20.3411 3ZM19.6822 16.9535H2.31783V4.31783H19.6822V16.9535Z" stroke="url(#paint1_linear_451_2270)"/>
<defs>
<linearGradient id="paint0_linear_451_2270" x1="11" y1="18.1938" x2="11" y2="3.07752" gradientUnits="userSpaceOnUse">
<stop stop-color="#FD5900"/>
<stop offset="1" stop-color="#FFDE00"/>
</linearGradient>
<linearGradient id="paint1_linear_451_2270" x1="11" y1="18.1938" x2="11" y2="3.07752" gradientUnits="userSpaceOnUse">
<stop stop-color="#FD5900"/>
<stop offset="1" stop-color="#FFDE00"/>
</linearGradient>
</defs>
</svg>
