<svg width="22" height="22" viewBox="0 0 22 22" fill="none" xmlns="http://www.w3.org/2000/svg">
<path d="M19.6428 3.4375C19.209 3.4375 18.8572 3.78929 18.8572 4.22322V18.3661C18.8572 18.8 19.209 19.1518 19.6428 19.1518H21.2143C21.6482 19.1518 22 18.8 22 18.3661V4.22322C22 3.78929 21.6482 3.4375 21.2143 3.4375H19.6428ZM0.785716 6.58036C0.351776 6.58036 0 6.93213 0 7.36608V18.3661C0 18.8 0.351776 19.1518 0.785716 19.1518H2.35714C2.79107 19.1518 3.14286 18.8 3.14286 18.3661V7.36608C3.14286 6.93213 2.79107 6.58036 2.35714 6.58036H0.785716Z" fill="url(#paint0_linear_451_2182)"/>
<path d="M6.28516 18.3662V13.6519C6.28516 13.218 6.63694 12.8662 7.07085 12.8662H8.64226C9.07621 12.8662 9.42801 13.218 9.42801 13.6519V18.3662C9.42801 18.8001 9.07621 19.1519 8.64226 19.1519H7.07085C6.63694 19.1519 6.28516 18.8001 6.28516 18.3662Z" fill="url(#paint1_linear_451_2182)"/>
<path d="M12.5713 18.366V10.5088C12.5713 10.0749 12.9231 9.72314 13.357 9.72314H14.9285C15.3624 9.72314 15.7142 10.0749 15.7142 10.5088V18.366C15.7142 18.7999 15.3624 19.1517 14.9285 19.1517H13.357C12.9231 19.1517 12.5713 18.7999 12.5713 18.366Z" fill="url(#paint2_linear_451_2182)"/>
<defs>
<linearGradient id="paint0_linear_451_2182" x1="11" y1="19.1518" x2="11" y2="3.4375" gradientUnits="userSpaceOnUse">
<stop stop-color="#EC396C"/>
<stop offset="1" stop-color="#FF709A"/>
</linearGradient>
<linearGradient id="paint1_linear_451_2182" x1="7.85659" y1="19.1519" x2="7.85659" y2="12.8662" gradientUnits="userSpaceOnUse">
<stop stop-color="#A93AFF"/>
<stop offset="1" stop-color="#FF81FF"/>
</linearGradient>
<linearGradient id="paint2_linear_451_2182" x1="14.1427" y1="19.1517" x2="14.1427" y2="9.72314" gradientUnits="userSpaceOnUse">
<stop stop-color="#FD5900"/>
<stop offset="1" stop-color="#FFDE00"/>
</linearGradient>
</defs>
</svg>
