<svg width="22" height="22" viewBox="0 0 22 22" fill="none" xmlns="http://www.w3.org/2000/svg">
<path d="M5.18488 10.4414C5.18488 10.1109 5.3162 9.79399 5.54988 9.56027C5.78356 9.32659 6.1005 9.19531 6.43098 9.19531H15.569C15.8995 9.19531 16.2164 9.32659 16.4501 9.56027C16.6838 9.79399 16.8151 10.1109 16.8151 10.4414C16.8151 10.7719 16.6838 11.0888 16.4501 11.3225C16.2164 11.5562 15.8995 11.6875 15.569 11.6875H6.43098C6.1005 11.6875 5.78356 11.5562 5.54988 11.3225C5.3162 11.0888 5.18488 10.7719 5.18488 10.4414ZM6.43098 15.8411H12.2461C12.5766 15.8411 12.8935 15.7099 13.1272 15.4762C13.3609 15.2425 13.4922 14.9255 13.4922 14.595C13.4922 14.2646 13.3609 13.9476 13.1272 13.7139C12.8935 13.4803 12.5766 13.3489 12.2461 13.3489H6.43098C6.1005 13.3489 5.78356 13.4803 5.54988 13.7139C5.3162 13.9476 5.18488 14.2646 5.18488 14.595C5.18488 14.9255 5.3162 15.2425 5.54988 15.4762C5.78356 15.7099 6.1005 15.8411 6.43098 15.8411ZM20.9688 6.28777V15.4258C20.9674 16.6372 20.4856 17.7986 19.6291 18.6551C18.7725 19.5117 17.6111 19.9935 16.3997 19.9948H5.60027C4.3889 19.9935 3.22751 19.5117 2.37094 18.6551C1.51437 17.7986 1.03257 16.6372 1.03125 15.4258V6.28777C1.03257 5.0764 1.51437 3.915 2.37094 3.05844C3.22751 2.20187 4.3889 1.72007 5.60027 1.71875H16.3997C17.6111 1.72007 18.7725 2.20187 19.6291 3.05844C20.4856 3.915 20.9674 5.0764 20.9688 6.28777ZM7.67707 4.62629C7.67707 4.87276 7.75015 5.11366 7.8871 5.3186C8.02402 5.52351 8.21862 5.68322 8.44632 5.77754C8.67402 5.87187 8.92458 5.89655 9.16627 5.84846C9.40799 5.80037 9.63002 5.68171 9.8043 5.50743C9.97858 5.33314 10.0972 5.11112 10.1453 4.86939C10.1934 4.6277 10.1687 4.37714 10.0744 4.14944C9.98009 3.92174 9.82039 3.72714 9.61548 3.59023C9.41053 3.45328 9.16963 3.38021 8.92317 3.38021C8.59268 3.38021 8.27575 3.51151 8.04207 3.74519C7.80838 3.97887 7.67707 4.29581 7.67707 4.62629ZM3.52344 4.62629C3.52344 4.87276 3.59652 5.11366 3.73343 5.3186C3.87035 5.52351 4.06498 5.68322 4.29268 5.77754C4.52038 5.87187 4.77091 5.89655 5.01263 5.84846C5.25436 5.80037 5.47638 5.68171 5.65067 5.50743C5.82491 5.33314 5.94361 5.11112 5.99167 4.86939C6.03976 4.6277 6.01508 4.37714 5.92078 4.14944C5.82646 3.92174 5.66675 3.72714 5.46181 3.59023C5.2569 3.45328 5.016 3.38021 4.76953 3.38021C4.43905 3.38021 4.12211 3.51151 3.8884 3.74519C3.65472 3.97887 3.52344 4.29581 3.52344 4.62629ZM18.4766 8.22137C18.4766 7.84166 18.1688 7.53387 17.7891 7.53387H4.21094C3.83123 7.53387 3.52344 7.84166 3.52344 8.22137V15.4258C3.52344 15.9766 3.74223 16.5048 4.13174 16.8943C4.52121 17.2838 5.04945 17.5026 5.60027 17.5026H16.3997C16.9506 17.5026 17.4788 17.2838 17.8683 16.8943C18.2578 16.5048 18.4766 15.9766 18.4766 15.4258V8.22137Z" fill="url(#paint0_linear_451_2322)"/>
<defs>
<linearGradient id="paint0_linear_451_2322" x1="11" y1="19.9948" x2="11" y2="1.71875" gradientUnits="userSpaceOnUse">
<stop stop-color="#A93AFF"/>
<stop offset="1" stop-color="#FF81FF"/>
</linearGradient>
</defs>
</svg>
