<svg width="22" height="22" viewBox="0 0 22 22" fill="none" xmlns="http://www.w3.org/2000/svg">
<path d="M1.37533 3.6665C1.1222 3.6665 0.916992 3.87171 0.916992 4.12484V18.3332C0.916992 18.5863 1.1222 18.7915 1.37533 18.7915H20.6253C20.8784 18.7915 21.0837 18.5863 21.0837 18.3332V4.12484C21.0837 3.87171 20.8784 3.6665 20.6253 3.6665H1.37533ZM2.17741 5.38525C2.17741 5.13213 2.38261 4.92692 2.63574 4.92692H19.3649C19.618 4.92692 19.8232 5.13213 19.8232 5.38525V17.0728C19.8232 17.3258 19.618 17.5311 19.3649 17.5311H2.63574C2.38261 17.5311 2.17741 17.3258 2.17741 17.0728V5.38525ZM11.4587 7.44775C11.2056 7.44775 11.0003 7.65296 11.0003 7.90609V8.24984C11.0003 8.50297 11.2056 8.70817 11.4587 8.70817H18.1045C18.3576 8.70817 18.5628 8.50297 18.5628 8.24984V7.90609C18.5628 7.65296 18.3576 7.44775 18.1045 7.44775H11.4587ZM11.4587 9.96859C11.2056 9.96859 11.0003 10.1738 11.0003 10.4269V10.7707C11.0003 11.0238 11.2056 11.229 11.4587 11.229H16.8441C17.0972 11.229 17.3024 11.0238 17.3024 10.7707V10.4269C17.3024 10.1738 17.0972 9.96859 16.8441 9.96859H11.4587ZM11.4587 12.4894C11.2056 12.4894 11.0003 12.6947 11.0003 12.9478V13.2915C11.0003 13.5446 11.2056 13.7498 11.4587 13.7498H15.5837C15.8367 13.7498 16.042 13.5446 16.042 13.2915V12.9478C16.042 12.6947 15.8367 12.4894 15.5837 12.4894H11.4587Z" fill="url(#paint0_linear_451_2324)" stroke="url(#paint1_linear_451_2324)" stroke-width="0.5"/>
<path fill-rule="evenodd" clip-rule="evenodd" d="M6.81803 6.4165C5.77063 6.4165 4.92741 7.25973 4.92741 8.30713V10.0144C4.92741 10.1157 4.84533 10.1978 4.74408 10.1978H3.85033C3.74907 10.1978 3.66699 10.2798 3.66699 10.3811V13.7957C3.66699 13.897 3.74907 13.979 3.85033 13.979H9.78574C9.88703 13.979 9.96908 13.897 9.96908 13.7957V10.3811C9.96908 10.2798 9.88703 10.1978 9.78574 10.1978H8.89199C8.79074 10.1978 8.70866 10.1157 8.70866 10.0144V8.30713C8.70866 7.25973 7.86544 6.4165 6.81803 6.4165ZM6.81803 7.67692C7.16717 7.67692 7.44824 7.958 7.44824 8.30713V10.0144C7.44824 10.1157 7.36616 10.1978 7.26491 10.1978H6.37116C6.2699 10.1978 6.18783 10.1157 6.18783 10.0144V8.30713C6.18783 7.958 6.46889 7.67692 6.81803 7.67692Z" fill="url(#paint2_linear_451_2324)"/>
<defs>
<linearGradient id="paint0_linear_451_2324" x1="0.919944" y1="11.0049" x2="21.087" y2="11.0049" gradientUnits="userSpaceOnUse">
<stop stop-color="#A93AFF"/>
<stop offset="1" stop-color="#FF81FF"/>
</linearGradient>
<linearGradient id="paint1_linear_451_2324" x1="0.919944" y1="11.0049" x2="21.087" y2="11.0049" gradientUnits="userSpaceOnUse">
<stop stop-color="#A93AFF"/>
<stop offset="1" stop-color="#FF81FF"/>
</linearGradient>
<linearGradient id="paint2_linear_451_2324" x1="3.66791" y1="10.0857" x2="9.97014" y2="10.0857" gradientUnits="userSpaceOnUse">
<stop stop-color="#A93AFF"/>
<stop offset="1" stop-color="#FF81FF"/>
</linearGradient>
</defs>
</svg>
