<svg width="22" height="22" viewBox="0 0 22 22" fill="none" xmlns="http://www.w3.org/2000/svg">
<path d="M8.25 1.375V4.125H5.5V6.875H2.75V20.625H13.75V17.875H16.5V15.125H19.25V5.5L15.125 1.375H8.25ZM9.625 2.75H13.75V5.5L12.375 4.125H9.625V2.75ZM6.875 5.5H11V8.25L9.625 6.875H6.875V5.5ZM15.125 6.875H17.875V13.75H16.5V8.25L15.125 6.875ZM4.125 8.25H8.25V12.375H12.375V19.25H4.125V8.25ZM12.375 9.625H15.125V16.5H13.75V11L12.375 9.625Z" fill="url(#paint0_linear_451_2248)"/>
<defs>
<linearGradient id="paint0_linear_451_2248" x1="4.28488" y1="11" x2="16.4361" y2="11" gradientUnits="userSpaceOnUse">
<stop stop-color="#5570FF"/>
<stop offset="1" stop-color="#4DD3FF"/>
</linearGradient>
</defs>
</svg>
