<svg width="22" height="22" viewBox="0 0 22 22" fill="none" xmlns="http://www.w3.org/2000/svg">
<path d="M8.25 1.375C7.87031 1.375 7.5625 1.68281 7.5625 2.0625V2.29167C7.5625 2.67136 7.87031 2.97917 8.25 2.97917H10.7708H19.7083C20.0881 2.97917 20.3958 2.67136 20.3958 2.29167V2.0625C20.3958 1.68281 20.0881 1.375 19.7083 1.375H10.7708H8.25ZM8.25 4.58333C7.87031 4.58333 7.5625 4.89114 7.5625 5.27083V5.5C7.5625 5.87969 7.87031 6.1875 8.25 6.1875H10.7708H16.5C16.8796 6.1875 17.1875 5.87969 17.1875 5.5V5.27083C17.1875 4.89114 16.8796 4.58333 16.5 4.58333H10.7708H8.25ZM8.25 11C7.87031 11 7.5625 11.3078 7.5625 11.6875V11.9167C7.5625 12.2964 7.87031 12.6042 8.25 12.6042H10.7708H19.7083C20.0881 12.6042 20.3958 12.2964 20.3958 11.9167V11.6875C20.3958 11.3078 20.0881 11 19.7083 11H10.7708H8.25ZM8.25 14.2083C7.87031 14.2083 7.5625 14.5161 7.5625 14.8958V15.125C7.5625 15.5046 7.87031 15.8125 8.25 15.8125H10.7708H13.2917C13.6714 15.8125 13.9792 15.5046 13.9792 15.125V14.8958C13.9792 14.5161 13.6714 14.2083 13.2917 14.2083H10.7708H8.25ZM16.2708 14.2083C15.8911 14.2083 15.5833 14.5161 15.5833 14.8958V15.125C15.5833 15.5046 15.8911 15.8125 16.2708 15.8125H18.5911H18.7917H19.7083C20.0881 15.8125 20.3958 15.5046 20.3958 15.125V14.8958C20.3958 14.5161 20.0881 14.2083 19.7083 14.2083H18.7917H18.5911H16.2708ZM17.875 19.0208C17.4954 19.0208 17.1875 19.3286 17.1875 19.7083V19.9375C17.1875 20.3171 17.4954 20.625 17.875 20.625H19.7083C20.0881 20.625 20.3958 20.3171 20.3958 19.9375V19.7083C20.3958 19.3286 20.0881 19.0208 19.7083 19.0208H17.875Z" fill="url(#paint0_linear_451_2258)" stroke="url(#paint1_linear_451_2258)" stroke-width="0.6"/>
<path d="M0.805461 2.18046C1.32118 1.66474 2.02066 1.375 2.75001 1.375C3.47936 1.375 4.17882 1.66474 4.69454 2.18046C5.21029 2.69618 5.5 3.39566 5.5 4.12501C5.5 4.85436 5.21029 5.55382 4.69454 6.06954C4.17882 6.58529 3.47936 6.875 2.75001 6.875C2.02066 6.875 1.32118 6.58529 0.805461 6.06954C0.28974 5.55382 0 4.85436 0 4.12501C0 3.39566 0.28974 2.69618 0.805461 2.18046Z" fill="url(#paint2_linear_451_2258)"/>
<path d="M0.805471 11.8055C1.3212 11.2897 2.02069 11 2.75004 11C3.47941 11 4.17887 11.2897 4.69461 11.8055C5.21036 12.3212 5.50007 13.0207 5.50007 13.75C5.50007 14.4794 5.21036 15.1789 4.69461 15.6947C4.17887 16.2103 3.47941 16.5 2.75004 16.5C2.02069 16.5 1.3212 16.2103 0.805471 15.6947C0.289744 15.1789 0 14.4794 0 13.75C0 13.0207 0.289744 12.3212 0.805471 11.8055Z" fill="url(#paint3_linear_451_2258)"/>
<defs>
<linearGradient id="paint0_linear_451_2258" x1="7.5625" y1="20.625" x2="24.5546" y2="15.6875" gradientUnits="userSpaceOnUse">
<stop stop-color="#0357D1"/>
<stop offset="1" stop-color="#27CDFC"/>
</linearGradient>
<linearGradient id="paint1_linear_451_2258" x1="7.5625" y1="20.625" x2="24.5546" y2="15.6875" gradientUnits="userSpaceOnUse">
<stop stop-color="#0357D1"/>
<stop offset="1" stop-color="#27CDFC"/>
</linearGradient>
<linearGradient id="paint2_linear_451_2258" x1="1.17857" y1="20.2322" x2="3.07843" y2="3.67965" gradientUnits="userSpaceOnUse">
<stop stop-color="#8D01A2"/>
<stop offset="1" stop-color="#FF00D2"/>
</linearGradient>
<linearGradient id="paint3_linear_451_2258" x1="1.17859" y1="13.3572" x2="3.07847" y2="-3.19556" gradientUnits="userSpaceOnUse">
<stop stop-color="#8D01A2"/>
<stop offset="1" stop-color="#FF00D2"/>
</linearGradient>
</defs>
</svg>
