<svg width="22" height="22" viewBox="0 0 22 22" fill="none" xmlns="http://www.w3.org/2000/svg">
<path d="M9.06634 19.5077H6.48827C6.31733 19.5077 6.1534 19.4399 6.03252 19.319C5.91165 19.1982 5.84375 19.0342 5.84375 18.8633V16.2852C5.84375 16.1142 5.91165 15.9503 6.03252 15.8295C6.1534 15.7086 6.31733 15.6406 6.48827 15.6406H9.06634C9.23732 15.6406 9.40129 15.7086 9.52215 15.8295C9.64301 15.9503 9.71087 16.1142 9.71087 16.2852V18.8633C9.71087 19.0342 9.64301 19.1982 9.52215 19.319C9.40129 19.4399 9.23732 19.5077 9.06634 19.5077ZM7.13281 18.2188H8.42181V16.9297H7.13281V18.2188Z" fill="url(#paint0_linear_451_2231)" stroke="url(#paint1_linear_451_2231)"/>
<path d="M9.06627 9.19517H6.4882C6.31726 9.19517 6.15332 9.26317 6.03245 9.38403C5.91158 9.50489 5.84367 9.66886 5.84367 9.83971V9.92571C5.84367 10.3053 5.53587 10.6132 5.15617 10.6132H3.82418C3.44449 10.6132 3.13668 10.3053 3.13668 9.92571V7.30469C3.13668 6.92498 3.44449 6.61716 3.82418 6.61716H3.91011C4.08105 6.61716 4.24499 6.54921 4.36585 6.42834C4.48672 6.30748 4.55463 6.14353 4.55463 5.97261V3.39452C4.55463 3.22358 4.48672 3.05965 4.36585 2.93877C4.24499 2.8179 4.08105 2.75 3.91011 2.75H1.33202C1.16108 2.75 0.99715 2.8179 0.876274 2.93877C0.755404 3.05965 0.6875 3.22358 0.6875 3.39452V5.97261C0.6875 6.14353 0.755404 6.30748 0.876274 6.42834C0.99715 6.54921 1.16108 6.61716 1.33202 6.61716H1.41795C1.79765 6.61716 2.10545 6.92498 2.10545 7.30469V17.4021C2.10545 17.7818 2.41326 18.0896 2.79295 18.0896H6.20461C6.34136 18.0896 6.4725 18.0353 6.56921 17.9386C6.66594 17.8419 6.72024 17.7108 6.72024 17.574C6.72024 17.4373 6.66594 17.3061 6.56921 17.2094C6.4725 17.1127 6.34136 17.0584 6.20461 17.0584H3.82418C3.44449 17.0584 3.13668 16.7506 3.13668 16.3709V12.3319C3.13668 11.9522 3.44449 11.6444 3.82418 11.6444H5.15617C5.53587 11.6444 5.84367 11.9522 5.84367 12.3319V12.4178C5.84367 12.5887 5.91158 12.7527 6.03245 12.8736C6.15332 12.9944 6.31726 13.0624 6.4882 13.0624H9.06627C9.23725 13.0624 9.40115 12.9944 9.52208 12.8736C9.64294 12.7527 9.7108 12.5887 9.7108 12.4178V9.83971C9.7108 9.66886 9.64294 9.50489 9.52208 9.38403C9.40115 9.26317 9.23725 9.19517 9.06627 9.19517ZM1.97655 4.68357C1.97655 4.32761 2.26511 4.03905 2.62107 4.03905C2.97703 4.03905 3.26559 4.32761 3.26559 4.68357C3.26559 5.03953 2.97703 5.32809 2.62107 5.32809C2.26511 5.32809 1.97655 5.03953 1.97655 4.68357ZM8.42174 11.1288C8.42174 11.4848 8.13319 11.7733 7.77727 11.7733C7.42129 11.7733 7.13274 11.4848 7.13274 11.1288C7.13274 10.7728 7.42129 10.4842 7.77727 10.4842C8.13319 10.4842 8.42174 10.7728 8.42174 11.1288Z" fill="url(#paint2_linear_451_2231)" stroke="url(#paint3_linear_451_2231)"/>
<path d="M21.3123 4.94542C21.3123 4.70504 21.2444 4.47451 21.1235 4.30453C21.0026 4.13456 20.8387 4.03906 20.6678 4.03906H6.56884C6.16839 4.03906 5.84375 4.3637 5.84375 4.76415V5.12669C5.84375 5.52715 6.16839 5.85178 6.56884 5.85178H20.6678C20.8387 5.85178 21.0026 5.75629 21.1235 5.58632C21.2444 5.41634 21.3123 5.18581 21.3123 4.94542Z" fill="url(#paint4_linear_451_2231)" stroke="url(#paint5_linear_451_2231)"/>
<path d="M20.6678 10.4844H11.7251C11.3246 10.4844 11 10.809 11 11.2095V11.5721C11 11.9725 11.3246 12.2971 11.7251 12.2971H20.6678C20.8388 12.2971 21.0027 12.2016 21.1236 12.0317C21.2444 11.8617 21.3124 11.6311 21.3124 11.3908C21.3124 11.1504 21.2444 10.9198 21.1236 10.7499C21.0027 10.5799 20.8388 10.4844 20.6678 10.4844Z" fill="url(#paint6_linear_451_2231)" stroke="url(#paint7_linear_451_2231)"/>
<path d="M20.6678 16.9297H11.7251C11.3246 16.9297 11 17.2543 11 17.6548V18.0173C11 18.4178 11.3246 18.7424 11.7251 18.7424H20.6678C20.8388 18.7424 21.0027 18.6469 21.1236 18.477C21.2444 18.307 21.3124 18.0764 21.3124 17.8361C21.3124 17.5957 21.2444 17.3651 21.1236 17.1951C21.0027 17.0252 20.8388 16.9297 20.6678 16.9297Z" fill="url(#paint8_linear_451_2231)" stroke="url(#paint9_linear_451_2231)"/>
<defs>
<linearGradient id="paint0_linear_451_2231" x1="10.9999" y1="19.5077" x2="10.9999" y2="2.75021" gradientUnits="userSpaceOnUse">
<stop stop-color="#FD5900"/>
<stop offset="1" stop-color="#FFDE00"/>
</linearGradient>
<linearGradient id="paint1_linear_451_2231" x1="10.9999" y1="19.5077" x2="10.9999" y2="2.75021" gradientUnits="userSpaceOnUse">
<stop stop-color="#FD5900"/>
<stop offset="1" stop-color="#FFDE00"/>
</linearGradient>
<linearGradient id="paint2_linear_451_2231" x1="10.9999" y1="19.5075" x2="10.9999" y2="2.75" gradientUnits="userSpaceOnUse">
<stop stop-color="#FD5900"/>
<stop offset="1" stop-color="#FFDE00"/>
</linearGradient>
<linearGradient id="paint3_linear_451_2231" x1="10.9999" y1="19.5075" x2="10.9999" y2="2.75" gradientUnits="userSpaceOnUse">
<stop stop-color="#FD5900"/>
<stop offset="1" stop-color="#FFDE00"/>
</linearGradient>
<linearGradient id="paint4_linear_451_2231" x1="10.9999" y1="19.5075" x2="10.9999" y2="2.75002" gradientUnits="userSpaceOnUse">
<stop stop-color="#FD5900"/>
<stop offset="1" stop-color="#FFDE00"/>
</linearGradient>
<linearGradient id="paint5_linear_451_2231" x1="10.9999" y1="19.5075" x2="10.9999" y2="2.75002" gradientUnits="userSpaceOnUse">
<stop stop-color="#FD5900"/>
<stop offset="1" stop-color="#FFDE00"/>
</linearGradient>
<linearGradient id="paint6_linear_451_2231" x1="11" y1="19.5077" x2="11" y2="2.75015" gradientUnits="userSpaceOnUse">
<stop stop-color="#FD5900"/>
<stop offset="1" stop-color="#FFDE00"/>
</linearGradient>
<linearGradient id="paint7_linear_451_2231" x1="11" y1="19.5077" x2="11" y2="2.75015" gradientUnits="userSpaceOnUse">
<stop stop-color="#FD5900"/>
<stop offset="1" stop-color="#FFDE00"/>
</linearGradient>
<linearGradient id="paint8_linear_451_2231" x1="11" y1="19.5077" x2="11" y2="2.75022" gradientUnits="userSpaceOnUse">
<stop stop-color="#FD5900"/>
<stop offset="1" stop-color="#FFDE00"/>
</linearGradient>
<linearGradient id="paint9_linear_451_2231" x1="11" y1="19.5077" x2="11" y2="2.75022" gradientUnits="userSpaceOnUse">
<stop stop-color="#FD5900"/>
<stop offset="1" stop-color="#FFDE00"/>
</linearGradient>
</defs>
</svg>
