<svg width="16" height="16" viewBox="0 0 16 16" fill="none" xmlns="http://www.w3.org/2000/svg">
<path fill-rule="evenodd" clip-rule="evenodd" d="M11.4288 14.3C13.9537 14.3 16 12.2776 16 9.7824C16 8.88489 15.7352 8.04851 15.2786 7.34543C14.9161 6.7873 14.0786 7.0066 13.4505 7.22665C13.2811 7.28601 13.0989 7.31828 12.9093 7.31828C12.0055 7.31828 11.2729 6.58565 11.2729 5.6819C11.2729 5.35177 11.3706 5.04446 11.5388 4.78737C11.8858 4.25678 12.2611 3.5469 11.8443 3.06919C11.0059 2.10833 9.765 1.5 8.3808 1.5C5.85601 1.5 3.80961 3.5224 3.80961 6.0176C3.80961 6.3361 3.8429 6.6466 3.90625 6.94634C3.9667 7.23238 3.72116 7.52328 3.4288 7.52321C1.5352 7.52401 0 9.0408 0 10.912C0 12.7832 1.5352 14.3 3.4288 14.3H11.4288ZM13.4547 6.22736C14.0572 6.22736 14.5456 5.73894 14.5456 5.13644C14.5456 4.53394 14.0572 4.04552 13.4547 4.04552C12.8522 4.04552 12.3638 4.53394 12.3638 5.13644C12.3638 5.73894 12.8522 6.22736 13.4547 6.22736Z" fill="url(#paint0_linear_73_5527)"/>
<path d="M6.80973 14.3333C8.31379 14.3333 9.53333 13.1747 9.53333 11.7447C9.53333 10.6124 8.76699 9.64953 7.69999 9.29827C7.54966 8.0054 6.39466 7 4.99399 7C3.48919 7 2.26966 8.15867 2.26966 9.58867C2.26966 9.904 2.32979 10.2076 2.43833 10.4877C2.30773 10.4634 2.17519 10.4511 2.04233 10.4511C0.915193 10.4511 0 11.3193 0 12.3922C0 13.4643 0.91446 14.3333 2.04306 14.3333H6.80973Z" fill="#279FD7"/>
<path d="M7.80973 13.3333C9.31379 13.3333 10.5333 12.1747 10.5333 10.7447C10.5333 9.6124 9.76699 8.64953 8.69999 8.29827C8.54966 7.0054 7.39466 6 5.99399 6C4.48919 6 3.26966 7.15867 3.26966 8.58867C3.26966 8.904 3.32979 9.2076 3.43833 9.48773C3.30773 9.4634 3.17519 9.45107 3.04233 9.45107C1.91519 9.45107 1 10.3193 1 11.3922C1 12.4643 1.91446 13.3333 3.04306 13.3333H7.80973Z" fill="url(#paint1_linear_73_5527)"/>
<defs>
<linearGradient id="paint0_linear_73_5527" x1="1.6" y1="14.304" x2="5.43647" y2="-0.0844812" gradientUnits="userSpaceOnUse">
<stop offset="0.190745" stop-color="#22B4FA"/>
<stop offset="0.896724" stop-color="#7DDCFF"/>
</linearGradient>
<linearGradient id="paint1_linear_73_5527" x1="1" y1="13.3333" x2="11.7782" y2="9.83042" gradientUnits="userSpaceOnUse">
<stop stop-color="#6BD6FE"/>
<stop offset="1" stop-color="white"/>
</linearGradient>
</defs>
</svg>
