<svg width="16" height="16" viewBox="0 0 16 16" fill="none" xmlns="http://www.w3.org/2000/svg">
<path d="M6.83276 1C5.55523 1 4.5 2.05523 4.5 3.33276V4.1C4.5 4.32091 4.32091 4.5 4.1 4.5H3.33276C2.05523 4.5 1 5.55523 1 6.83276V12.6672C1 13.9448 2.05523 15 3.33276 15H9.16724C10.4448 15 11.5 13.9448 11.5 12.6672V11.9C11.5 11.6791 11.6791 11.5 11.9 11.5H12.6672C13.9448 11.5 15 10.4448 15 9.16724V3.33276C15 2.05523 13.9448 1 12.6672 1H6.83276ZM6.25 3.15C6.25 2.92909 6.42909 2.75 6.65 2.75H12.85C13.0709 2.75 13.25 2.92909 13.25 3.15V9.35C13.25 9.57091 13.0709 9.75 12.85 9.75H10.15C9.92909 9.75 9.75 9.92909 9.75 10.15V12.85C9.75 13.0709 9.57091 13.25 9.35 13.25H3.15C2.92909 13.25 2.75 13.0709 2.75 12.85V6.65C2.75 6.42909 2.92909 6.25 3.15 6.25H5.85C6.07091 6.25 6.25 6.07091 6.25 5.85V3.15Z" fill="url(#paint0_linear_165_204)"/>
<path d="M7.2 6.83429V4.36571C7.2 4.16374 7.36374 4 7.56571 4H11.6343C11.8363 4 12 4.16374 12 4.36571V8.43429C12 8.63626 11.8363 8.8 11.6343 8.8H9.16571C8.96374 8.8 8.8 8.96374 8.8 9.16571V11.6343C8.8 11.8363 8.63626 12 8.43429 12H4.36571C4.16374 12 4 11.8363 4 11.6343V7.56571C4 7.36374 4.16374 7.2 4.36571 7.2H6.83429C7.03626 7.2 7.2 7.03626 7.2 6.83429Z" stroke="url(#paint1_linear_165_204)" stroke-width="1.5"/>
<defs>
<linearGradient id="paint0_linear_165_204" x1="8" y1="15" x2="8" y2="1" gradientUnits="userSpaceOnUse">
<stop stop-color="#A93AFF"/>
<stop offset="1" stop-color="#FF81FF"/>
</linearGradient>
<linearGradient id="paint1_linear_165_204" x1="8" y1="12" x2="8" y2="4" gradientUnits="userSpaceOnUse">
<stop stop-color="#A93AFF"/>
<stop offset="1" stop-color="#FF81FF"/>
</linearGradient>
</defs>
</svg>
