<svg width="22" height="22" viewBox="0 0 22 22" fill="none" xmlns="http://www.w3.org/2000/svg">
<path d="M2.95403 1.8335C2.44777 1.8335 2.03736 2.24391 2.03736 2.75016V5.75479C2.03736 6.06417 1.78656 6.31498 1.47718 6.31498C1.16779 6.31498 0.916992 6.56578 0.916992 6.87516V7.43535V18.639C0.916992 19.2597 1.41668 19.7595 2.03736 19.7595H19.9633H20.167C20.6733 19.7595 21.0837 19.349 21.0837 18.8428V18.639V7.43535C21.0837 6.81466 20.584 6.31498 19.9633 6.31498H15.2781C14.7719 6.31498 14.3615 5.90457 14.3615 5.39831V2.75016C14.3615 2.24391 13.9511 1.8335 13.4448 1.8335H2.95403ZM3.15773 3.87053C3.15773 3.36427 3.56814 2.95386 4.0744 2.95386H12.3244C12.8306 2.95386 13.241 3.36427 13.241 3.87053V5.39831C13.241 5.90457 12.8306 6.31498 12.3244 6.31498H10.8897C10.6012 6.31498 10.3361 6.17189 10.1277 5.97235C9.61277 5.47929 8.92381 5.19687 8.1994 5.19461C7.47268 5.19518 6.78111 5.47776 6.26456 5.97235C6.05616 6.17189 5.79104 6.31498 5.50252 6.31498H4.0744C3.56814 6.31498 3.15773 5.90457 3.15773 5.39831V3.87053ZM2.03736 8.35201C2.03736 7.84576 2.44777 7.43535 2.95403 7.43535H3.15773H5.45536H10.9391H13.241H14.3615H19.0466C19.5529 7.43535 19.9633 7.84576 19.9633 8.35201V9.87981C19.9633 10.3861 19.5529 10.7965 19.0466 10.7965H17.7225H12.1207C10.8793 10.7965 9.87997 11.7958 9.87997 13.0372C9.87997 14.2785 10.8793 15.278 12.1207 15.278H17.7225H19.0466C19.5529 15.278 19.9633 15.6884 19.9633 16.1946V17.7224C19.9633 18.2286 19.5529 18.639 19.0466 18.639H2.95403C2.44777 18.639 2.03736 18.2286 2.03736 17.7224V8.35201ZM13.241 11.9168C13.8599 11.9168 14.3615 12.4184 14.3615 13.0372C14.3615 13.6559 13.8599 14.1575 13.241 14.1575C12.6223 14.1575 12.1207 13.6559 12.1207 13.0372C12.1207 12.4184 12.6223 11.9168 13.241 11.9168Z" fill="url(#paint0_linear_451_2164)" stroke="url(#paint1_linear_451_2164)"/>
<defs>
<linearGradient id="paint0_linear_451_2164" x1="11.0003" y1="19.7595" x2="11.0003" y2="1.8335" gradientUnits="userSpaceOnUse">
<stop stop-color="#00B59C"/>
<stop offset="1" stop-color="#9CFFAC"/>
</linearGradient>
<linearGradient id="paint1_linear_451_2164" x1="11.0003" y1="19.7595" x2="11.0003" y2="1.8335" gradientUnits="userSpaceOnUse">
<stop stop-color="#00B59C"/>
<stop offset="1" stop-color="#9CFFAC"/>
</linearGradient>
</defs>
</svg>
