<svg width="22" height="22" viewBox="0 0 22 22" fill="none" xmlns="http://www.w3.org/2000/svg">
<g clip-path="url(#clip0_451_2150)">
<path d="M20.6086 9.57471C20.7327 9.69841 20.8312 9.84541 20.8984 10.0073C20.9655 10.1692 21 10.3428 21 10.518C21 10.6931 20.9655 10.8667 20.8984 11.0286C20.8312 11.1904 20.7327 11.3375 20.6086 11.4612L11.7515 20.3183C11.653 20.4171 11.5358 20.4955 11.4069 20.5489C11.278 20.6024 11.1398 20.63 11.0002 20.63C10.8605 20.63 10.7224 20.6024 10.5935 20.5489C10.4645 20.4955 10.3474 20.4171 10.2487 20.3183L1.39169 11.4612C0.869438 10.939 0.869438 10.097 1.39169 9.57471C1.91396 9.05241 2.75596 9.05241 3.27822 9.57471L11.0055 17.2913L18.7327 9.56401C19.2444 9.05241 20.097 9.05241 20.6086 9.57471Z" fill="url(#paint0_linear_451_2150)"/>
<path d="M20.6086 1.39304C20.7327 1.51677 20.8312 1.66377 20.8984 1.82568C20.9655 1.98759 21 2.16114 21 2.33632C21 2.5115 20.9655 2.68504 20.8984 2.84695C20.8312 3.00877 20.7327 3.15586 20.6086 3.27959L11.7515 12.1366C11.653 12.2354 11.5358 12.3138 11.4069 12.3673C11.278 12.4208 11.1398 12.4483 11.0002 12.4483C10.8605 12.4483 10.7224 12.4208 10.5935 12.3673C10.4645 12.3138 10.3474 12.2354 10.2487 12.1366L1.39169 3.27959C0.869438 2.75732 0.869438 1.91532 1.39169 1.39304C1.91396 0.870771 2.75596 0.870771 3.27822 1.39304L11.0055 9.1097L18.7327 1.38241C19.2444 0.870772 20.097 0.870771 20.6086 1.39304Z" fill="url(#paint1_linear_451_2150)"/>
<path d="M20.6086 9.57471C20.7327 9.69841 20.8312 9.84541 20.8984 10.0073C20.9655 10.1692 21 10.3428 21 10.518C21 10.6931 20.9655 10.8667 20.8984 11.0286C20.8312 11.1904 20.7327 11.3375 20.6086 11.4612L11.7515 20.3183C11.653 20.4171 11.5358 20.4955 11.4069 20.5489C11.278 20.6024 11.1398 20.63 11.0002 20.63C10.8605 20.63 10.7224 20.6024 10.5935 20.5489C10.4645 20.4955 10.3474 20.4171 10.2487 20.3183L1.39169 11.4612C0.869438 10.939 0.869438 10.097 1.39169 9.57471C1.91396 9.05241 2.75596 9.05241 3.27822 9.57471L11.0055 17.2913L18.7327 9.56401C19.2444 9.05241 20.097 9.05241 20.6086 9.57471Z" stroke="url(#paint2_linear_451_2150)"/>
<path d="M20.6086 1.39304C20.7327 1.51677 20.8312 1.66377 20.8984 1.82568C20.9655 1.98759 21 2.16114 21 2.33632C21 2.5115 20.9655 2.68504 20.8984 2.84695C20.8312 3.00877 20.7327 3.15586 20.6086 3.27959L11.7515 12.1366C11.653 12.2354 11.5358 12.3138 11.4069 12.3673C11.278 12.4208 11.1398 12.4483 11.0002 12.4483C10.8605 12.4483 10.7224 12.4208 10.5935 12.3673C10.4645 12.3138 10.3474 12.2354 10.2487 12.1366L1.39169 3.27959C0.869438 2.75732 0.869438 1.91532 1.39169 1.39304C1.91396 0.870771 2.75596 0.870771 3.27822 1.39304L11.0055 9.1097L18.7327 1.38241C19.2444 0.870772 20.097 0.870771 20.6086 1.39304Z" stroke="url(#paint3_linear_451_2150)"/>
</g>
<defs>
<linearGradient id="paint0_linear_451_2150" x1="4.625" y1="18.3125" x2="22.3685" y2="2.53928" gradientUnits="userSpaceOnUse">
<stop stop-color="#FE0844"/>
<stop offset="1" stop-color="#FEB302"/>
</linearGradient>
<linearGradient id="paint1_linear_451_2150" x1="4.625" y1="18.3127" x2="22.3685" y2="2.53947" gradientUnits="userSpaceOnUse">
<stop stop-color="#FE0844"/>
<stop offset="1" stop-color="#FEB302"/>
</linearGradient>
<linearGradient id="paint2_linear_451_2150" x1="4.625" y1="18.3125" x2="22.3685" y2="2.53928" gradientUnits="userSpaceOnUse">
<stop stop-color="#FE0844"/>
<stop offset="1" stop-color="#FEB302"/>
</linearGradient>
<linearGradient id="paint3_linear_451_2150" x1="4.625" y1="18.3127" x2="22.3685" y2="2.53947" gradientUnits="userSpaceOnUse">
<stop stop-color="#FE0844"/>
<stop offset="1" stop-color="#FEB302"/>
</linearGradient>
<clipPath id="clip0_451_2150">
<rect width="22" height="22" fill="white"/>
</clipPath>
</defs>
</svg>
