<svg width="22" height="22" viewBox="0 0 22 22" fill="none" xmlns="http://www.w3.org/2000/svg">
<path d="M16.7889 1.25281C16.4518 0.915731 15.9054 0.915731 15.5682 1.25281L10.8506 5.97045C10.5135 6.30749 10.5135 6.85402 10.8506 7.19109L14.8086 11.1492C15.1458 11.4862 15.6922 11.4862 16.0294 11.1492L20.7469 6.43153C21.084 6.09447 21.084 5.54797 20.7469 5.21089L16.7889 1.25281ZM4.49875 8.15856C4.21848 7.87829 3.76404 7.87829 3.48375 8.15856L3.37964 8.26263C3.04248 8.59983 3.04258 9.14649 3.37988 9.48349L6.72931 12.8304C7.06662 13.1675 7.06668 13.7143 6.72948 14.0514L2.36974 18.4098C2.03258 18.7468 2.03322 19.294 2.37034 19.6312C2.70744 19.9683 3.25469 19.9689 3.59174 19.6318L7.95022 15.272C8.28735 14.9348 8.83395 14.9348 9.17108 15.272L12.518 18.6201C12.855 18.9573 13.4016 18.9573 13.7387 18.6203L13.8429 18.516C14.1223 18.2367 14.1223 17.7837 13.843 17.5044L4.49875 8.15856Z" fill="url(#paint0_linear_451_2130)"/>
<path d="M2.47322 1.25277C2.13621 0.915749 1.58979 0.91574 1.25277 1.25277C0.915744 1.58979 0.915744 2.13619 1.25277 2.47322L19.5267 20.7472C19.8638 21.0843 20.4102 21.0843 20.7472 20.7472C21.0843 20.4101 21.0843 19.8638 20.7472 19.5267L2.47322 1.25277Z" fill="url(#paint1_linear_451_2130)"/>
<defs>
<linearGradient id="paint0_linear_451_2130" x1="20.6951" y1="1.2027" x2="13.0499" y2="20.3982" gradientUnits="userSpaceOnUse">
<stop stop-color="#FE0F7C"/>
<stop offset="1" stop-color="#DF0066"/>
</linearGradient>
<linearGradient id="paint1_linear_451_2130" x1="20.7732" y1="11" x2="3.48855" y2="4.74751" gradientUnits="userSpaceOnUse">
<stop stop-color="#FE7970"/>
<stop offset="1" stop-color="#DC3282"/>
</linearGradient>
</defs>
</svg>
