<svg width="22" height="22" viewBox="0 0 22 22" fill="none" xmlns="http://www.w3.org/2000/svg">
<path d="M20.6086 12.134C20.7327 12.0205 20.8312 11.8858 20.8984 11.7374C20.9655 11.589 21 11.4299 21 11.2693C21 11.1087 20.9655 10.9497 20.8984 10.8013C20.8312 10.6529 20.7327 10.5181 20.6086 10.4046L11.7515 2.28572C11.653 2.19515 11.5358 2.12329 11.4069 2.07427C11.278 2.02524 11.1398 2 11.0002 2C10.8605 2 10.7224 2.02524 10.5935 2.07427C10.4645 2.12329 10.3474 2.19515 10.2487 2.28572L1.39169 10.4046C0.869438 10.8834 0.869438 11.6552 1.39169 12.134C1.91396 12.6127 2.75596 12.6127 3.27822 12.134L11.0055 5.06043L18.7327 12.1437C19.2444 12.6127 20.097 12.6127 20.6086 12.134Z" fill="url(#paint0_linear_451_2155)" stroke="url(#paint1_linear_451_2155)"/>
<path d="M20.6086 19.634C20.7327 19.5206 20.8312 19.3859 20.8984 19.2375C20.9655 19.0891 21 18.9299 21 18.7693C21 18.6087 20.9655 18.4497 20.8984 18.3013C20.8312 18.153 20.7327 18.0181 20.6086 17.9047L11.7515 9.78572C11.653 9.69516 11.5358 9.62329 11.4069 9.57425C11.278 9.5253 11.1398 9.5 11.0002 9.5C10.8605 9.5 10.7224 9.5253 10.5935 9.57425C10.4645 9.62329 10.3474 9.69516 10.2487 9.78572L1.39169 17.9047C0.869438 18.3834 0.869438 19.1553 1.39169 19.634C1.91396 20.1128 2.75596 20.1128 3.27822 19.634L11.0055 12.5605L18.7327 19.6437C19.2444 20.1128 20.097 20.1128 20.6086 19.634Z" fill="url(#paint2_linear_451_2155)" stroke="url(#paint3_linear_451_2155)"/>
<defs>
<linearGradient id="paint0_linear_451_2155" x1="10.1303" y1="12.2124" x2="10.7595" y2="2.6228" gradientUnits="userSpaceOnUse">
<stop stop-color="#8D01A2"/>
<stop offset="1" stop-color="#FF33DB"/>
</linearGradient>
<linearGradient id="paint1_linear_451_2155" x1="10.1303" y1="12.2124" x2="10.7595" y2="2.6228" gradientUnits="userSpaceOnUse">
<stop stop-color="#8D01A2"/>
<stop offset="1" stop-color="#FF33DB"/>
</linearGradient>
<linearGradient id="paint2_linear_451_2155" x1="10.1303" y1="19.7124" x2="10.7595" y2="10.1229" gradientUnits="userSpaceOnUse">
<stop stop-color="#8D01A2"/>
<stop offset="1" stop-color="#FF33DB"/>
</linearGradient>
<linearGradient id="paint3_linear_451_2155" x1="10.1303" y1="19.7124" x2="10.7595" y2="10.1229" gradientUnits="userSpaceOnUse">
<stop stop-color="#8D01A2"/>
<stop offset="1" stop-color="#FF33DB"/>
</linearGradient>
</defs>
</svg>
