<svg width="22" height="22" viewBox="0 0 22 22" fill="none" xmlns="http://www.w3.org/2000/svg">
<g clip-path="url(#clip0_451_2141)">
<path d="M16.6661 0.948207C16.3185 0.600598 15.7549 0.600598 15.4073 0.948207L6.98397 9.37159C6.63631 9.71919 6.07279 9.71919 5.72512 9.37159L4.16171 7.80814C3.8141 7.46054 3.25052 7.46054 2.90291 7.80814L2.82973 7.88129C2.48208 8.22896 2.48213 8.79264 2.82985 9.14024L6.55078 12.8598C6.89851 13.2074 6.89851 13.7711 6.55086 14.1188L0.94829 19.7198C0.600607 20.0674 0.600563 20.6311 0.9482 20.9787L1.02133 21.0518C1.36897 21.3995 1.93262 21.3994 2.28021 21.0517L7.88123 15.4492C8.22889 15.1014 8.79257 15.1014 9.14024 15.4492L12.8598 19.1701C13.2073 19.5179 13.771 19.5178 14.1187 19.1703L14.1919 19.097C14.5395 18.7494 14.5395 18.186 14.1919 17.8382L12.6284 16.2748C12.2808 15.9272 12.2808 15.3637 12.6284 15.016L21.0518 6.5927C21.3994 6.24511 21.3994 5.6815 21.0518 5.33389L16.6661 0.948207Z" fill="url(#paint0_linear_451_2141)"/>
</g>
<defs>
<linearGradient id="paint0_linear_451_2141" x1="10.9999" y1="21.6813" x2="10.9999" y2="0.318808" gradientUnits="userSpaceOnUse">
<stop stop-color="#00B59C"/>
<stop offset="1" stop-color="#9CFFAC"/>
</linearGradient>
<clipPath id="clip0_451_2141">
<rect width="22" height="22" fill="white"/>
</clipPath>
</defs>
</svg>
