<svg width="22" height="22" viewBox="0 0 22 22" fill="none" xmlns="http://www.w3.org/2000/svg">
<path d="M2.0625 1.375C1.68281 1.375 1.375 1.68281 1.375 2.0625V6.1875V19.9375C1.375 20.3171 1.68281 20.625 2.0625 20.625H2.97917H19.9375C20.3171 20.625 20.625 20.3171 20.625 19.9375V19.0208V2.0625C20.625 1.68281 20.3171 1.375 19.9375 1.375H2.97917H2.0625ZM4.35417 8.25C4.35417 7.87031 4.66197 7.5625 5.04167 7.5625H16.9583C17.3381 7.5625 17.6458 7.87031 17.6458 8.25V17.6489C17.6458 18.0287 17.3381 18.3364 16.9583 18.3364H5.04167C4.66197 18.3364 4.35417 18.0287 4.35417 17.6489V8.25Z" fill="url(#paint0_linear_451_2128)"/>
<defs>
<linearGradient id="paint0_linear_451_2128" x1="4.86406" y1="18.3524" x2="22.223" y2="3.20644" gradientUnits="userSpaceOnUse">
<stop stop-color="#FE0844"/>
<stop offset="1" stop-color="#FEB302"/>
</linearGradient>
</defs>
</svg>
