<svg width="22" height="22" viewBox="0 0 22 22" fill="none" xmlns="http://www.w3.org/2000/svg">
<path d="M1.71429 0C1.3198 0 1 0.3198 1 0.714286V19.2857C1 19.6801 1.3198 20 1.71429 20H5.28571C5.6802 20 6 19.6801 6 19.2857V19.0476C6 18.6531 5.6802 18.3333 5.28571 18.3333H3.38096C2.98646 18.3333 2.66667 18.0136 2.66667 17.619V4.04761C2.66667 3.65313 2.98646 3.33333 3.38096 3.33333H18.619C19.0136 3.33333 19.3333 3.65313 19.3333 4.04761V4.28571C19.3333 4.6802 19.6531 5 20.0476 5H20.2857C20.6801 5 21 4.6802 21 4.28571V0.714286C21 0.3198 20.6801 0 20.2857 0H1.71429ZM8.38096 6.66667C7.98646 6.66667 7.66667 6.98646 7.66667 7.38096V19.2857C7.66667 19.6801 7.98646 20 8.38096 20H20.2857C20.6801 20 21 19.6801 21 19.2857V7.38096C21 6.98646 20.6801 6.66667 20.2857 6.66667H8.38096ZM9.33333 10.7143C9.33333 10.3198 9.65313 10 10.0476 10H18.619C19.0136 10 19.3333 10.3198 19.3333 10.7143V17.619C19.3333 18.0136 19.0136 18.3333 18.619 18.3333H10.0476C9.65313 18.3333 9.33333 18.0136 9.33333 17.619V10.7143Z" fill="url(#paint0_linear_451_2158)"/>
<defs>
<linearGradient id="paint0_linear_451_2158" x1="11" y1="0" x2="11" y2="20" gradientUnits="userSpaceOnUse">
<stop stop-color="#DC18FC"/>
<stop offset="1" stop-color="#8E1EFF"/>
</linearGradient>
</defs>
</svg>
