<svg width="22" height="22" viewBox="0 0 22 22" fill="none" xmlns="http://www.w3.org/2000/svg">
<path d="M2.0625 1.375C1.68281 1.375 1.375 1.68281 1.375 2.0625V19.9375C1.375 20.3171 1.68281 20.625 2.0625 20.625H11.9167C12.2964 20.625 12.6042 20.3171 12.6042 19.9375V19.7083C12.6042 19.3286 12.2964 19.0208 11.9167 19.0208H3.66667C3.28697 19.0208 2.97917 18.7131 2.97917 18.3333V5.27083C2.97917 4.89114 3.28697 4.58333 3.66667 4.58333H18.3333C18.7131 4.58333 19.0208 4.89114 19.0208 5.27083V11.9167C19.0208 12.2964 19.3286 12.6042 19.7083 12.6042H19.9375C20.3171 12.6042 20.625 12.2964 20.625 11.9167V2.0625C20.625 1.68281 20.3171 1.375 19.9375 1.375H2.0625Z" fill="url(#paint0_linear_451_2143)" stroke="url(#paint1_linear_451_2143)" stroke-width="0.6"/>
<path d="M15.8128 13.2915C15.8128 12.9118 16.1207 12.604 16.5003 12.604H16.7295C17.1091 12.604 17.417 12.9118 17.417 13.2915V15.1248C17.417 15.5044 17.7247 15.8123 18.1045 15.8123H19.9378C20.3174 15.8123 20.6253 16.1202 20.6253 16.4998V16.729C20.6253 17.1087 20.3174 17.4165 19.9378 17.4165H18.1045C17.7247 17.4165 17.417 17.7242 17.417 18.104V19.9373C17.417 20.3169 17.1091 20.6248 16.7295 20.6248H16.5003C16.1207 20.6248 15.8128 20.3169 15.8128 19.9373V18.104C15.8128 17.7242 15.5049 17.4165 15.1253 17.4165H13.292C12.9123 17.4165 12.6045 17.1087 12.6045 16.729V16.4998C12.6045 16.1202 12.9123 15.8123 13.292 15.8123H15.1253C15.5049 15.8123 15.8128 15.5044 15.8128 15.1248V13.2915Z" fill="url(#paint2_linear_451_2143)" stroke="url(#paint3_linear_451_2143)" stroke-width="0.6"/>
<defs>
<linearGradient id="paint0_linear_451_2143" x1="11" y1="20.625" x2="11" y2="1.375" gradientUnits="userSpaceOnUse">
<stop stop-color="#00B59C"/>
<stop offset="1" stop-color="#9CFFAC"/>
</linearGradient>
<linearGradient id="paint1_linear_451_2143" x1="11" y1="20.625" x2="11" y2="1.375" gradientUnits="userSpaceOnUse">
<stop stop-color="#00B59C"/>
<stop offset="1" stop-color="#9CFFAC"/>
</linearGradient>
<linearGradient id="paint2_linear_451_2143" x1="10.9999" y1="20.6248" x2="10.9999" y2="1.3748" gradientUnits="userSpaceOnUse">
<stop stop-color="#00B59C"/>
<stop offset="1" stop-color="#9CFFAC"/>
</linearGradient>
<linearGradient id="paint3_linear_451_2143" x1="10.9999" y1="20.6248" x2="10.9999" y2="1.3748" gradientUnits="userSpaceOnUse">
<stop stop-color="#00B59C"/>
<stop offset="1" stop-color="#9CFFAC"/>
</linearGradient>
</defs>
</svg>
