<svg width="22" height="22" viewBox="0 0 22 22" fill="none" xmlns="http://www.w3.org/2000/svg">
<path d="M19.8471 18.7026C19.8471 19.3119 19.6052 19.8963 19.1743 20.3271C18.7435 20.758 18.1591 20.9999 17.5498 20.9999C16.9406 20.9999 16.3561 20.758 15.9253 20.3271C15.4945 19.8963 15.2525 19.3119 15.2525 18.7026C15.2525 18.0934 15.4945 17.5089 15.9253 17.0781C16.3561 16.6473 16.9406 16.4053 17.5498 16.4053C18.1591 16.4053 18.7435 16.6473 19.1743 17.0781C19.6052 17.5089 19.8471 18.0934 19.8471 18.7026ZM13.7209 18.7026C13.7209 19.3119 13.4789 19.8963 13.048 20.3271C12.6172 20.758 12.0329 20.9999 11.4236 20.9999C10.8143 20.9999 10.2299 20.758 9.79911 20.3271C9.36828 19.8963 9.12623 19.3119 9.12623 18.7026C9.12623 18.0934 9.36828 17.5089 9.79911 17.0781C10.2299 16.6473 10.8143 16.4053 11.4236 16.4053C12.0329 16.4053 12.6172 16.6473 13.048 17.0781C13.4789 17.5089 13.7209 18.0934 13.7209 18.7026ZM7.59468 18.7026C7.59468 19.3119 7.35263 19.8963 6.9218 20.3271C6.49097 20.758 5.90662 20.9999 5.29734 20.9999C4.68805 20.9999 4.1037 20.758 3.67288 20.3271C3.24205 19.8963 3 19.3119 3 18.7026C3 18.0934 3.24205 17.5089 3.67288 17.0781C4.1037 16.6473 4.68805 16.4053 5.29734 16.4053C5.90662 16.4053 6.49097 16.6473 6.9218 17.0781C7.35263 17.5089 7.59468 18.0934 7.59468 18.7026Z" fill="url(#paint0_linear_451_2125)"/>
<path d="M11.548 13.1439L18.1024 8.46222C18.9575 7.8514 18.9575 6.58048 18.1024 5.96967L11.548 1.28798C10.5343 0.563908 9.12623 1.28853 9.12623 2.53426V2.62127C9.12623 3.46711 8.44052 4.15282 7.59468 4.15282H4.53156C3.68571 4.15282 3 4.83853 3 5.68438V8.7475C3 9.59335 3.68571 10.2791 4.53156 10.2791H7.59468C8.44052 10.2791 9.12623 10.9648 9.12623 11.8106V11.8976C9.12623 13.1433 10.5343 13.868 11.548 13.1439Z" fill="url(#paint1_linear_451_2125)"/>
<defs>
<linearGradient id="paint0_linear_451_2125" x1="3.00247" y1="18.6346" x2="19.8499" y2="18.6346" gradientUnits="userSpaceOnUse">
<stop stop-color="#A93AFF"/>
<stop offset="1" stop-color="#FF81FF"/>
</linearGradient>
<linearGradient id="paint1_linear_451_2125" x1="3.00247" y1="6.98901" x2="19.8499" y2="6.98901" gradientUnits="userSpaceOnUse">
<stop stop-color="#A93AFF"/>
<stop offset="1" stop-color="#FF81FF"/>
</linearGradient>
</defs>
</svg>
