<svg width="22" height="22" viewBox="0 0 22 22" fill="none" xmlns="http://www.w3.org/2000/svg">
<path d="M3 18.7026C3 19.3119 3.24205 19.8963 3.67288 20.3271C4.1037 20.758 4.68805 20.9999 5.29734 20.9999C5.90662 20.9999 6.49097 20.758 6.9218 20.3271C7.35263 19.8963 7.59468 19.3119 7.59468 18.7026C7.59468 18.0934 7.35263 17.5089 6.9218 17.0781C6.49097 16.6473 5.90662 16.4053 5.29734 16.4053C4.68805 16.4053 4.1037 16.6473 3.67288 17.0781C3.24205 17.5089 3 18.0934 3 18.7026ZM9.12623 18.7026C9.12623 19.3119 9.36828 19.8963 9.79911 20.3271C10.2299 20.758 10.8143 20.9999 11.4236 20.9999C12.0329 20.9999 12.6172 20.758 13.048 20.3271C13.4789 19.8963 13.7209 19.3119 13.7209 18.7026C13.7209 18.0934 13.4789 17.5089 13.048 17.0781C12.6172 16.6473 12.0329 16.4053 11.4236 16.4053C10.8143 16.4053 10.2299 16.6473 9.79911 17.0781C9.36828 17.5089 9.12623 18.0934 9.12623 18.7026ZM15.2525 18.7026C15.2525 19.3119 15.4945 19.8963 15.9253 20.3271C16.3561 20.758 16.9406 20.9999 17.5498 20.9999C18.1591 20.9999 18.7435 20.758 19.1743 20.3271C19.6052 19.8963 19.8471 19.3119 19.8471 18.7026C19.8471 18.0934 19.6052 17.5089 19.1743 17.0781C18.7435 16.6473 18.1591 16.4053 17.5498 16.4053C16.9406 16.4053 16.3561 16.6473 15.9253 17.0781C15.4945 17.5089 15.2525 18.0934 15.2525 18.7026Z" fill="url(#paint0_linear_451_2122)"/>
<path d="M11.3002 13.1439L4.74585 8.46222C3.89071 7.8514 3.89071 6.58048 4.74585 5.96967L11.3002 1.28798C12.3139 0.563908 13.722 1.28853 13.722 2.53426V2.62127C13.722 3.46711 14.4077 4.15282 15.2535 4.15282H18.3166C19.1625 4.15282 19.8481 4.83853 19.8481 5.68438V8.7475C19.8481 9.59335 19.1625 10.2791 18.3166 10.2791H15.2535C14.4077 10.2791 13.722 10.9648 13.722 11.8106V11.8976C13.722 13.1433 12.3139 13.868 11.3002 13.1439Z" fill="url(#paint1_linear_451_2122)"/>
<defs>
<linearGradient id="paint0_linear_451_2122" x1="3.00247" y1="18.6346" x2="19.8499" y2="18.6346" gradientUnits="userSpaceOnUse">
<stop stop-color="#A93AFF"/>
<stop offset="1" stop-color="#FF81FF"/>
</linearGradient>
<linearGradient id="paint1_linear_451_2122" x1="3.00352" y1="6.98901" x2="19.8509" y2="6.98901" gradientUnits="userSpaceOnUse">
<stop stop-color="#A93AFF"/>
<stop offset="1" stop-color="#FF81FF"/>
</linearGradient>
</defs>
</svg>
