<svg width="22" height="22" viewBox="0 0 22 22" fill="none" xmlns="http://www.w3.org/2000/svg">
<path d="M11.6615 1C8.96807 1 7.30143 2.52122 7.06157 4.36986C7.06157 4.90258 6.47493 5.22676 6.02389 4.9433L4.52216 3.99953C4.29609 3.85746 4.00704 3.8641 3.78774 4.01641C3.40623 4.28138 3.40623 4.84564 3.78774 5.11061L6.44809 6.95829L7.19 7.47357C7.435 7.64371 7.75993 7.64371 8.00493 7.47357L8.74679 6.95829L11.4198 5.10184C11.7952 4.84111 11.7952 4.2859 11.4198 4.02517C11.1948 3.86891 10.8964 3.86904 10.6716 4.02549L9.42136 4.89543C8.99679 5.19083 8.41536 4.88705 8.41536 4.36986C8.41536 3.12306 9.85664 2.20439 11.6613 2.20396C13.4658 2.20439 15.2097 3.12326 15.1845 4.36986V4.67174C15.1845 5.0456 15.4876 5.34866 15.8614 5.34866C16.2353 5.34866 16.5384 5.04559 16.5384 4.67174V4.36946C16.5384 2.50856 14.3549 1 11.6615 1ZM15.1845 6.55259C13.6891 6.55259 12.4769 7.63064 12.4769 8.96043C12.4769 10.2904 13.6891 11.3684 15.1845 11.3684C16.6799 11.3684 17.8923 10.2904 17.8923 8.96043C17.8923 7.63064 16.6799 6.55259 15.1845 6.55259ZM7.06157 8.96043C6.706 8.96043 6.35388 9.02271 6.0253 9.14379C5.69683 9.26471 5.3983 9.44221 5.14694 9.66579C4.89546 9.88936 4.69601 10.1547 4.55994 10.4469C4.42388 10.7391 4.35384 11.0522 4.35384 11.3684C4.35384 11.6846 4.42388 11.9977 4.55994 12.2899C4.69601 12.582 4.89546 12.8474 5.14694 13.0711C5.3983 13.2946 5.69683 13.472 6.0253 13.5931C6.35388 13.714 6.706 13.7763 7.06157 13.7763C7.41714 13.7763 7.76921 13.714 8.09771 13.5931C8.42614 13.472 8.72464 13.2946 8.97614 13.0711C9.22757 12.8474 9.42707 12.582 9.56314 12.2899C9.69921 11.9977 9.76921 11.6846 9.76921 11.3684C9.76921 11.0522 9.69921 10.7391 9.56314 10.4469C9.42707 10.1547 9.22757 9.88936 8.97614 9.66579C8.72464 9.44221 8.42614 9.26471 8.09771 9.14379C7.76921 9.02271 7.41714 8.96043 7.06157 8.96043ZM15.2057 12.5724C13.2854 12.5724 11.6877 13.7938 11.2488 15.4349C11.1899 15.6549 11.2699 15.8831 11.4226 16.052C11.9162 16.598 12.2708 17.1664 12.4108 17.8818C12.4866 18.269 12.7967 18.5921 13.1911 18.5921H15.2057H17.6596H18.1354C18.3496 18.5921 18.5561 18.4981 18.6763 18.3208C19.0791 17.7268 19.2955 17.039 19.2963 16.3346C19.2963 14.2569 17.4656 12.5724 15.2057 12.5724ZM15.1396 13.7763C16.6322 13.7763 17.8419 14.7869 17.8419 16.0337C17.8414 16.4221 17.7214 16.8021 17.4956 17.1378C17.3826 17.3058 17.1844 17.3882 16.9819 17.3882H16.7605H15.1396H13.516C13.4961 17.3882 13.4792 17.374 13.4754 17.3545C13.3772 16.8461 13.1244 16.3809 12.7644 15.9858C12.5962 15.8011 12.4944 15.5501 12.5869 15.318C12.9436 14.4226 13.9471 13.7763 15.1396 13.7763ZM7.06157 14.9803C6.52815 14.9803 6.00004 15.0776 5.50729 15.2666C5.01447 15.4557 4.56674 15.7329 4.18959 16.0822C3.81244 16.4316 3.51327 16.8464 3.30916 17.3029C3.10505 17.7593 3 18.2484 3 18.7426C3.00185 19.4468 3.21696 20.1341 3.61741 20.7276C3.73753 20.9056 3.94434 21 4.15908 21H4.62355H7.06157H9.4995H9.96829C10.1836 21 10.3909 20.9051 10.5108 20.7264C10.9092 20.1327 11.1224 19.4459 11.1229 18.7426C11.1229 18.2484 11.018 17.7593 10.8139 17.3029C10.6098 16.8464 10.3106 16.4316 9.9335 16.0822C9.55629 15.7329 9.10857 15.4557 8.61579 15.2666C8.12307 15.0776 7.59479 14.9803 7.06157 14.9803ZM7.06157 16.1842C7.77964 16.1842 8.46829 16.4696 8.97614 16.9776C9.48393 17.4856 9.76921 18.1746 9.76921 18.8931C9.76864 19.0329 9.75721 19.1721 9.73529 19.3096C9.68771 19.6075 9.40929 19.7961 9.10764 19.7961H5.01539C4.71376 19.7961 4.43526 19.6075 4.38771 19.3096C4.36576 19.1721 4.35439 19.0329 4.35384 18.8931C4.35384 18.1746 4.63911 17.4856 5.14694 16.9776C5.65466 16.4696 6.34339 16.1842 7.06157 16.1842Z" fill="url(#paint0_linear_451_2107)" stroke="url(#paint1_linear_451_2107)" stroke-width="0.6"/>
<defs>
<linearGradient id="paint0_linear_451_2107" x1="11.1481" y1="21" x2="11.1481" y2="1" gradientUnits="userSpaceOnUse">
<stop stop-color="#FD2E00"/>
<stop offset="1" stop-color="#FF9900"/>
</linearGradient>
<linearGradient id="paint1_linear_451_2107" x1="11.1481" y1="21" x2="11.1481" y2="1" gradientUnits="userSpaceOnUse">
<stop stop-color="#FD2E00"/>
<stop offset="1" stop-color="#FF9900"/>
</linearGradient>
</defs>
</svg>
