<svg width="22" height="22" viewBox="0 0 22 22" fill="none" xmlns="http://www.w3.org/2000/svg">
<path d="M13.413 20.625C12.0086 20.626 10.621 20.3196 9.34756 19.7274C8.07414 19.1352 6.94571 18.2715 6.04151 17.1969C5.13731 16.1223 4.47923 14.8628 4.11345 13.5069C3.74766 12.151 3.68304 10.7314 3.92411 9.34787C4.16518 7.96431 4.70611 6.65026 5.5089 5.49794C6.31173 4.34562 7.357 3.38295 8.57134 2.67748C9.7857 1.97201 11.1397 1.54083 12.5384 1.4142C13.9371 1.28758 15.3465 1.46857 16.6679 1.94448C17.0636 2.08647 17.414 2.33201 17.6825 2.65552C17.951 2.97902 18.1278 3.36864 18.1945 3.78376C18.2612 4.19884 18.2153 4.62423 18.0616 5.01559C17.908 5.40691 17.6521 5.74984 17.3208 6.00865C13.2301 9.15279 13.2398 12.8576 17.3208 15.9914C17.6521 16.2503 17.9078 16.5933 18.0614 16.9848C18.215 17.3762 18.2607 17.8016 18.1939 18.2168C18.127 18.6319 17.95 19.0215 17.6813 19.3449C17.4127 19.6683 17.0621 19.9137 16.6663 20.0555C15.6219 20.4283 14.5219 20.6209 13.413 20.625ZM13.413 3.78125C12.3637 3.78008 11.3268 4.00771 10.3744 4.44823C9.42205 4.88874 8.57718 5.53163 7.89865 6.33201C7.22012 7.1324 6.72423 8.07111 6.44555 9.08273C6.16687 10.0944 6.11208 11.1545 6.28499 12.1895C6.45789 13.2245 6.85434 14.2093 7.44672 15.0754C8.03911 15.9415 8.8132 16.668 9.71506 17.2044C10.6169 17.7408 11.6249 18.0741 12.6687 18.1811C13.7125 18.2881 14.7672 18.1663 15.7591 17.8241C10.5367 13.7616 10.5544 8.22398 15.7591 4.17587C15.0031 3.91995 14.2111 3.78675 13.413 3.78125Z" fill="url(#paint0_linear_451_2111)"/>
<defs>
<linearGradient id="paint0_linear_451_2111" x1="20.2904" y1="19.7524" x2="8.5612" y2="0.421173" gradientUnits="userSpaceOnUse">
<stop stop-color="#315783"/>
<stop offset="0.428293" stop-color="#723483"/>
<stop offset="1" stop-color="#FC5185"/>
</linearGradient>
</defs>
</svg>
