<svg width="16" height="17" viewBox="0 0 16 17" fill="none" xmlns="http://www.w3.org/2000/svg">
<path d="M2.00004 14.5906C2.00004 15.0171 2.16943 15.4262 2.47101 15.7278C2.77259 16.0294 3.1817 16.1988 3.60818 16.1988C4.03466 16.1988 4.44377 16.0294 4.74535 15.7278C5.04693 15.4262 5.21632 15.0171 5.21632 14.5906C5.21632 14.1641 5.04693 13.7551 4.74535 13.4535C4.44377 13.1519 4.03466 12.9825 3.60818 12.9825C3.1817 12.9825 2.77259 13.1519 2.47101 13.4535C2.16943 13.7551 2.00004 14.1641 2.00004 14.5906ZM6.28842 14.5906C6.28842 15.0171 6.45785 15.4262 6.75943 15.7278C7.06102 16.0294 7.47006 16.1988 7.89656 16.1988C8.32307 16.1988 8.73211 16.0294 9.03369 15.7278C9.33527 15.4262 9.50471 15.0171 9.50471 14.5906C9.50471 14.1641 9.33527 13.7551 9.03369 13.4535C8.73211 13.1519 8.32307 12.9825 7.89656 12.9825C7.47006 12.9825 7.06102 13.1519 6.75943 13.4535C6.45785 13.7551 6.28842 14.1641 6.28842 14.5906ZM10.5768 14.5906C10.5768 15.0171 10.7462 15.4262 11.0478 15.7278C11.3494 16.0294 11.7584 16.1988 12.1849 16.1988C12.6114 16.1988 13.0205 16.0294 13.3221 15.7278C13.6237 15.4262 13.7931 15.0171 13.7931 14.5906C13.7931 14.1641 13.6237 13.7551 13.3221 13.4535C13.0205 13.1519 12.6114 12.9825 12.1849 12.9825C11.7584 12.9825 11.3494 13.1519 11.0478 13.4535C10.7462 13.7551 10.5768 14.1641 10.5768 14.5906Z" fill="url(#paint0_linear_114_802)"/>
<path d="M12.1915 6.18828L8.80225 10.9333C8.36005 11.5523 7.43999 11.5523 6.99781 10.9333L3.60853 6.18828C3.08431 5.45442 3.60887 4.43506 4.51074 4.43506H4.57372C5.18609 4.43506 5.68248 3.93864 5.68248 3.32629V1.10876C5.68248 0.496395 6.17888 -1.04904e-05 6.79125 -1.04904e-05H9.00878C9.62113 -1.04904e-05 10.1175 0.496395 10.1175 1.10876V3.32629C10.1175 3.93864 10.614 4.43506 11.2263 4.43506H11.2893C12.1911 4.43506 12.7157 5.45442 12.1915 6.18828Z" fill="url(#paint1_linear_114_802)"/>
<defs>
<linearGradient id="paint0_linear_114_802" x1="3.47385" y1="15.7968" x2="3.67256" y2="12.6394" gradientUnits="userSpaceOnUse">
<stop stop-color="#62E8AF"/>
<stop offset="1" stop-color="#B3FBDC"/>
</linearGradient>
<linearGradient id="paint1_linear_114_802" x1="4.52502" y1="1.42438" x2="13.1102" y2="2.98875" gradientUnits="userSpaceOnUse">
<stop stop-color="#62E8AF"/>
<stop offset="1" stop-color="#B3FBDC"/>
</linearGradient>
</defs>
</svg>
