<svg width="22" height="22" viewBox="0 0 22 22" fill="none" xmlns="http://www.w3.org/2000/svg">
<path fill-rule="evenodd" clip-rule="evenodd" d="M16.5499 14.8532L20.2738 18.578V18.5795C20.742 19.0477 20.742 19.8067 20.2738 20.2749C19.8057 20.7429 19.0467 20.7429 18.5785 20.2749L14.853 16.5493C11.8596 18.7887 7.74863 18.7876 4.75634 16.5469C1.03192 13.758 0.273576 8.47781 3.06258 4.75338C5.85156 1.02895 11.1317 0.270681 14.8561 3.05964C18.5805 5.84861 19.3388 11.1288 16.5499 14.8532ZM3.84667 9.8382C3.84667 13.1476 6.52942 15.8303 9.83877 15.8303C13.1467 15.8268 15.8274 13.1461 15.8308 9.8382C15.8308 6.52885 13.1481 3.84611 9.83877 3.84611C6.52945 3.84611 3.84667 6.52885 3.84667 9.8382ZM7.39062 8.59375H12.2031C12.8676 8.59375 13.4062 9.13241 13.4062 9.79688C13.4062 10.4613 12.8676 11 12.2031 11H7.39062C6.72616 11 6.1875 10.4613 6.1875 9.79688C6.1875 9.13241 6.72616 8.59375 7.39062 8.59375Z" fill="url(#paint0_linear_602_2)"/>
<path d="M20.2738 18.578H20.5738V18.4538L20.486 18.3659L20.2738 18.578ZM16.5499 14.8532L16.3098 14.6734L16.1539 14.8815L16.3377 15.0653L16.5499 14.8532ZM20.2738 18.5795H19.9738V18.7038L20.0617 18.7916L20.2738 18.5795ZM20.2738 20.2749L20.4859 20.4871L20.4859 20.487L20.2738 20.2749ZM18.5785 20.2749L18.3664 20.487L18.3664 20.4871L18.5785 20.2749ZM14.853 16.5493L15.0651 16.3372L14.8814 16.1534L14.6733 16.3091L14.853 16.5493ZM4.75634 16.5469L4.93616 16.3068L4.93616 16.3068L4.75634 16.5469ZM3.06258 4.75338L3.30271 4.9332L3.30271 4.9332L3.06258 4.75338ZM14.8561 3.05964L15.0359 2.81951L15.0359 2.81951L14.8561 3.05964ZM9.83877 15.8303L9.83877 16.1303L9.83909 16.1303L9.83877 15.8303ZM15.8308 9.8382L16.1308 9.83851V9.8382H15.8308ZM20.486 18.3659L16.7621 14.6411L16.3377 15.0653L20.0616 18.7901L20.486 18.3659ZM20.5738 18.5795V18.578H19.9738V18.5795H20.5738ZM20.4859 20.487C21.0713 19.9017 21.0713 18.9527 20.4859 18.3674L20.0617 18.7916C20.4127 19.1427 20.4127 19.7117 20.0617 20.0628L20.4859 20.487ZM18.3664 20.4871C18.9517 21.0722 19.9006 21.0722 20.4859 20.4871L20.0617 20.0627C19.7108 20.4136 19.1417 20.4136 18.7906 20.0627L18.3664 20.4871ZM14.6409 16.7614L18.3664 20.487L18.7906 20.0628L15.0651 16.3372L14.6409 16.7614ZM4.57652 16.787C7.67535 19.1075 11.9327 19.1087 15.0327 16.7895L14.6733 16.3091C11.7865 18.4687 7.8219 18.4677 4.93616 16.3068L4.57652 16.787ZM2.82245 4.57356C-0.0658699 8.43061 0.719473 13.8988 4.57652 16.787L4.93616 16.3068C1.34436 13.6172 0.613022 8.52501 3.30271 4.9332L2.82245 4.57356ZM15.0359 2.81951C11.1789 -0.0687638 5.71074 0.716505 2.82244 4.57356L3.30271 4.9332C5.99238 1.3414 11.0845 0.610126 14.6763 3.29978L15.0359 2.81951ZM16.79 15.033C19.6782 11.176 18.8929 5.70779 15.0359 2.81951L14.6763 3.29977C18.2681 5.98943 18.9994 11.0816 16.3098 14.6734L16.79 15.033ZM9.83877 15.5303C6.6951 15.5303 4.14667 12.9819 4.14667 9.8382H3.54667C3.54667 13.3133 6.36374 16.1303 9.83877 16.1303V15.5303ZM15.5308 9.83789C15.5276 12.9803 12.9809 15.527 9.83845 15.5303L9.83909 16.1303C13.3125 16.1266 16.1272 13.3119 16.1308 9.83851L15.5308 9.83789ZM9.83877 4.14611C12.9824 4.14611 15.5308 6.69453 15.5308 9.8382H16.1308C16.1308 6.36317 13.3138 3.54611 9.83877 3.54611V4.14611ZM4.14667 9.8382C4.14667 6.69454 6.69513 4.14611 9.83877 4.14611V3.54611C6.36377 3.54611 3.54667 6.36316 3.54667 9.8382H4.14667ZM12.2031 8.29375H7.39062V8.89375H12.2031V8.29375ZM13.7062 9.79688C13.7062 8.96674 13.0333 8.29375 12.2031 8.29375V8.89375C12.7019 8.89375 13.1062 9.29808 13.1062 9.79688H13.7062ZM12.2031 11.3C13.0333 11.3 13.7062 10.627 13.7062 9.79688H13.1062C13.1062 10.2956 12.7019 10.7 12.2031 10.7V11.3ZM7.39062 11.3H12.2031V10.7H7.39062V11.3ZM5.8875 9.79688C5.8875 10.627 6.56047 11.3 7.39062 11.3V10.7C6.89185 10.7 6.4875 10.2956 6.4875 9.79688H5.8875ZM7.39062 8.29375C6.56047 8.29375 5.8875 8.96673 5.8875 9.79688H6.4875C6.4875 9.29809 6.89185 8.89375 7.39062 8.89375V8.29375Z" fill="url(#paint1_linear_602_2)"/>
<defs>
<linearGradient id="paint0_linear_602_2" x1="19.7531" y1="1.70875" x2="2.15896" y2="20.2013" gradientUnits="userSpaceOnUse">
<stop stop-color="#D800BD"/>
<stop offset="0.408098" stop-color="#F92D7A"/>
<stop offset="0.590073" stop-color="#FF4A52"/>
<stop offset="1" stop-color="#FFB243"/>
</linearGradient>
<linearGradient id="paint1_linear_602_2" x1="19.7531" y1="1.70875" x2="2.15896" y2="20.2013" gradientUnits="userSpaceOnUse">
<stop stop-color="#D800BD"/>
<stop offset="0.408098" stop-color="#F92D7A"/>
<stop offset="0.590073" stop-color="#FF4A52"/>
<stop offset="1" stop-color="#FFB243"/>
</linearGradient>
</defs>
</svg>
