<svg width="16" height="16" viewBox="0 0 16 16" fill="none" xmlns="http://www.w3.org/2000/svg">
<path fill-rule="evenodd" clip-rule="evenodd" d="M8.5167 2.2462C8.3244 2.24251 8.08394 2.24181 7.77143 2.24181H7.47529C6.62036 2.24181 6.03329 2.24251 5.57819 2.2797C5.13359 2.31602 4.89476 2.38263 4.72191 2.4707C4.32677 2.67203 4.00551 2.99329 3.80418 3.38843C3.71611 3.56128 3.6495 3.80011 3.61318 4.24471C3.57599 4.69981 3.57529 5.28688 3.57529 6.14181V10.025C3.57529 10.8799 3.57599 11.467 3.61318 11.9221C3.6495 12.3667 3.71611 12.6055 3.80418 12.7783C4.00551 13.1735 4.32677 13.4947 4.72191 13.6961C4.89476 13.7841 5.13359 13.8508 5.57819 13.8871C6.03329 13.9243 6.62036 13.925 7.47529 13.925H8.66181C9.51674 13.925 10.1038 13.9243 10.5589 13.8871C11.0035 13.8508 11.2423 13.7841 11.4152 13.6961C11.8103 13.4947 12.1316 13.1735 12.3329 12.7783C12.421 12.6055 12.4876 12.3667 12.5239 11.9221C12.5611 11.467 12.5618 10.8799 12.5618 10.025V7.0322C12.5618 6.71969 12.5611 6.47924 12.5574 6.28694C12.0379 6.28695 11.5947 6.28652 11.2298 6.25671C10.8407 6.22491 10.4621 6.15528 10.1001 5.97086C9.55446 5.69283 9.11082 5.24919 8.83278 4.70352C8.64837 4.34158 8.57873 3.96299 8.54694 3.57383C8.51713 3.20897 8.51669 2.76577 8.5167 2.2462ZM11.9369 4.48432C11.7836 4.30996 11.5573 4.08092 11.1852 3.7088L11.0948 3.61841C10.7227 3.24631 10.4937 3.02007 10.3193 2.86678C10.3222 3.09074 10.3283 3.27187 10.341 3.42725C10.3637 3.7051 10.403 3.82044 10.4366 3.88633C10.5421 4.09331 10.7103 4.26159 10.9173 4.36705C10.9832 4.40062 11.0985 4.43998 11.3764 4.46268C11.5318 4.47538 11.7129 4.48144 11.9369 4.48432ZM9.66844 0.563387C9.16033 0.441403 8.63129 0.441564 7.87297 0.441794L7.77143 0.441815H7.47529L7.43759 0.441814H7.43759C6.62953 0.441804 5.96869 0.441795 5.43161 0.485676C4.8757 0.531096 4.37362 0.627979 3.90473 0.866889C3.1709 1.2408 2.57427 1.83742 2.20037 2.57125C1.96146 3.04014 1.86457 3.54222 1.81915 4.09813C1.77527 4.63521 1.77528 5.29605 1.77529 6.1041V6.10411L1.77529 6.14181V10.025L1.77529 10.0627C1.77528 10.8707 1.77527 11.5316 1.81915 12.0686C1.86457 12.6246 1.96146 13.1266 2.20037 13.5955C2.57427 14.3294 3.1709 14.926 3.90473 15.2999C4.37362 15.5388 4.8757 15.6357 5.43161 15.6811C5.96869 15.725 6.62953 15.725 7.43759 15.725H7.47529H8.66181H8.69951C9.50757 15.725 10.1684 15.725 10.7055 15.6811C11.2614 15.6357 11.7635 15.5388 12.2324 15.2999C12.9662 14.926 13.5628 14.3294 13.9367 13.5955C14.1756 13.1266 14.2725 12.6246 14.3179 12.0686C14.3618 11.5316 14.3618 10.8707 14.3618 10.0627V10.025V7.0322L14.3618 6.93066V6.93064C14.3621 6.17232 14.3622 5.64329 14.2402 5.13519C14.1325 4.68623 13.9547 4.25703 13.7134 3.86336C13.4404 3.41782 13.0662 3.04385 12.5298 2.5078L12.5298 2.50779L12.458 2.436L12.3676 2.34562L12.2958 2.2738C11.7598 1.73742 11.3858 1.36322 10.9403 1.0902C10.5466 0.848952 10.1174 0.671173 9.66844 0.563387ZM6.04624 7.18322C5.54919 7.18322 5.14624 7.58617 5.14624 8.08322C5.14624 8.58028 5.54919 8.98322 6.04624 8.98322H10.0912C10.5882 8.98322 10.9912 8.58028 10.9912 8.08322C10.9912 7.58617 10.5882 7.18322 10.0912 7.18322H6.04624ZM6.04624 9.88018C5.54919 9.88018 5.14624 10.2831 5.14624 10.7802C5.14624 11.2772 5.54919 11.6802 6.04624 11.6802H8.74287C9.23993 11.6802 9.64287 11.2772 9.64287 10.7802C9.64287 10.2831 9.23993 9.88018 8.74287 9.88018H6.04624Z" fill="url(#paint0_linear_579_245)"/>
<defs>
<linearGradient id="paint0_linear_579_245" x1="8.06856" y1="15.575" x2="8.06856" y2="1.47316" gradientUnits="userSpaceOnUse">
<stop stop-color="#18AEFA"/>
<stop offset="1" stop-color="#83E1FF"/>
</linearGradient>
</defs>
</svg>
