<svg width="16" height="16" viewBox="0 0 16 16" fill="none" xmlns="http://www.w3.org/2000/svg">
<path d="M4.5 1C3.85567 1 3.33333 1.52234 3.33333 2.16667C3.33333 2.81099 3.85567 3.33333 4.5 3.33333C5.14433 3.33333 5.66667 2.81099 5.66667 2.16667C5.66667 1.52234 5.14433 1 4.5 1ZM10.9167 1.58333C10.5945 1.26117 10.0722 1.26117 9.75 1.58333V1.58333C9.42783 1.9055 9.42783 2.42783 9.75 2.75L11.9596 4.95956C12.3501 5.35008 12.3501 5.98325 11.9596 6.37377L9.75 8.58333C9.42783 8.9055 9.42783 9.42783 9.75 9.75V9.75C10.0722 10.0722 10.5945 10.0722 10.9167 9.75L14.2929 6.37377C14.6834 5.98325 14.6834 5.35008 14.2929 4.95956L10.9167 1.58333ZM2.75 5.66667C1.7835 5.66667 1 6.45016 1 7.41667C1 8.38317 1.7835 9.16667 2.75 9.16667C3.7165 9.16667 4.5 8.38317 4.5 7.41667C4.5 6.45016 3.7165 5.66667 2.75 5.66667ZM6.25 11.5C5.2835 11.5 4.5 12.2835 4.5 13.25C4.5 14.2165 5.2835 15 6.25 15C7.2165 15 8 14.2165 8 13.25C8 12.2835 7.2165 11.5 6.25 11.5Z" fill="url(#paint0_linear_448_473)"/>
<defs>
<linearGradient id="paint0_linear_448_473" x1="8" y1="15" x2="8" y2="1" gradientUnits="userSpaceOnUse">
<stop stop-color="#5558FF"/>
<stop offset="1" stop-color="#00C0FF"/>
</linearGradient>
</defs>
</svg>
