<svg width="16" height="16" viewBox="0 0 16 16" fill="none" xmlns="http://www.w3.org/2000/svg">
<path fill-rule="evenodd" clip-rule="evenodd" d="M11.486 4.73659C12.5248 5.02559 13.4367 5.65439 14.0761 6.52259C14.4574 7.04004 14.7295 7.62964 14.8757 8.25554C15.0219 8.88144 15.0393 9.53054 14.9268 10.1634C14.8153 10.8 14.5731 11.4066 14.2153 11.9448C13.8575 12.4831 13.392 12.9413 12.8481 13.2905C12.7138 13.3737 12.5596 13.4194 12.4017 13.4228C12.2437 13.4261 12.0877 13.3871 11.95 13.3097C11.8122 13.2323 11.6978 13.1193 11.6185 12.9826C11.5393 12.8459 11.4981 12.6905 11.4994 12.5325C11.499 12.3874 11.5348 12.2445 11.6034 12.1166C11.672 11.9888 11.7713 11.88 11.8924 11.8001C12.2317 11.5845 12.523 11.3014 12.7483 10.9685C12.9735 10.6356 13.128 10.2599 13.2021 9.86484C13.2737 9.46389 13.263 9.05254 13.1708 8.65582C13.0786 8.25909 12.9067 7.88524 12.6656 7.55699C12.4238 7.22922 12.1189 6.95322 11.7686 6.74532C11.4184 6.53739 11.0301 6.40179 10.6265 6.34649C10.4356 6.31997 10.2586 6.23139 10.1229 6.09444C9.98722 5.95747 9.9003 5.77969 9.87553 5.58849C9.76538 4.79034 9.34302 4.06854 8.7012 3.58149C8.17802 3.18542 7.53933 2.97197 6.88315 2.97392C6.635 2.97434 6.38772 3.00309 6.14612 3.05964C5.63652 3.18289 5.16858 3.43867 4.7897 3.80107C4.4108 4.16344 4.13447 4.61957 3.9887 5.12319C3.85615 5.57329 3.82985 6.04802 3.9119 6.50999C3.99398 6.97199 4.18213 7.40864 4.46158 7.78557C4.54695 7.90067 4.60272 8.03499 4.62402 8.17669C4.6453 8.31842 4.63142 8.46319 4.58362 8.59832C4.53582 8.73342 4.45557 8.85469 4.3499 8.95152C4.24422 9.04832 4.11637 9.11767 3.97762 9.15347C3.7684 9.20764 3.57202 9.30279 3.39987 9.43342C3.22772 9.56407 3.0832 9.72757 2.97473 9.91449C2.86625 10.1014 2.79595 10.308 2.76793 10.5223C2.7399 10.7365 2.7547 10.9543 2.81145 11.1628C2.91975 11.5152 3.14055 11.8224 3.44003 12.0375C3.73953 12.2525 4.1012 12.3635 4.46975 12.3534H5.9601C6.19208 12.3534 6.41455 12.4456 6.57858 12.6096C6.7426 12.7736 6.83475 12.9961 6.83475 13.2281C6.83475 13.46 6.7426 13.6825 6.57858 13.8465C6.41455 14.0106 6.19208 14.1027 5.9601 14.1027H4.46975C3.71067 14.1174 2.9684 13.8784 2.36049 13.4236C1.75256 12.9689 1.31374 12.3243 1.1135 11.5919C0.931355 10.9079 0.969185 10.1839 1.22162 9.52254C1.47406 8.86119 1.92829 8.29612 2.5199 7.90742C2.23676 7.26477 2.09912 6.56749 2.11685 5.86544C2.13458 5.16339 2.30723 4.47394 2.62245 3.84639C2.93768 3.21887 3.38767 2.66872 3.94027 2.23536C4.49287 1.80199 5.1344 1.49609 5.819 1.33954C7.0194 1.06539 8.2793 1.26579 9.3354 1.89886C10.3915 2.53192 11.162 3.54867 11.486 4.73659ZM8.63715 12.314C8.143 12.314 7.74242 12.7145 7.74242 13.2087C7.74242 13.7028 8.143 14.1034 8.63715 14.1034H9.60528C10.0994 14.1034 10.5 13.7028 10.5 13.2087C10.5 12.7145 10.0994 12.314 9.60528 12.314H8.63715Z" fill="url(#paint0_linear_448_487)"/>
<defs>
<linearGradient id="paint0_linear_448_487" x1="8" y1="14.1034" x2="8" y2="1.21973" gradientUnits="userSpaceOnUse">
<stop stop-color="#5570FF"/>
<stop offset="1" stop-color="#4DD3FF"/>
</linearGradient>
</defs>
</svg>
