<svg width="16" height="16" viewBox="0 0 16 16" fill="none" xmlns="http://www.w3.org/2000/svg">
<path d="M2 1C1.44772 1 1 1.44772 1 2V2.16667V5.66667V6.83333V13.8333V14C1 14.5523 1.44772 15 2 15H14C14.5523 15 15 14.5523 15 14V13.8333V5.66667V4.5V4.33333C15 3.78105 14.5523 3.33333 14 3.33333H9.58999C9.32478 3.33333 9.07042 3.22798 8.88289 3.04044L6.84512 1.00267C6.84364 1.0012 6.84125 1.0012 6.83978 1.00267L6.83789 1.00456C6.83621 1.00624 6.83333 1.00505 6.83333 1.00267V1.00267C6.83333 1.0012 6.83214 1 6.83066 1H2.16667H2ZM2.16667 3.16667C2.16667 2.61438 2.61438 2.16667 3.16667 2.16667H6.11581C6.27032 2.16667 6.41852 2.22797 6.52788 2.33712L7.17921 2.98718C7.30709 3.11481 7.2167 3.33333 7.03602 3.33333H6.836C6.83453 3.33333 6.83333 3.33453 6.83333 3.336V3.336C6.83333 3.33838 6.83046 3.33957 6.82878 3.33789L6.82689 3.336C6.82541 3.33453 6.82302 3.33453 6.82155 3.336L4.78378 5.37377C4.59624 5.56131 4.34189 5.66667 4.07667 5.66667H3.16667C2.61438 5.66667 2.16667 5.21895 2.16667 4.66667V3.16667ZM2.16667 7.83333C2.16667 7.28105 2.61438 6.83333 3.16667 6.83333H12.8333C13.3856 6.83333 13.8333 7.28105 13.8333 7.83333V12.8333C13.8333 13.3856 13.3856 13.8333 12.8333 13.8333H3.16667C2.61438 13.8333 2.16667 13.3856 2.16667 12.8333V7.83333Z" fill="#BDC3C7"/>
</svg>
