<svg width="16" height="16" viewBox="0 0 16 16" fill="none" xmlns="http://www.w3.org/2000/svg">
<path d="M1.6 1C1.26863 1 1 1.26863 1 1.6V14.4C1 14.7314 1.26863 15 1.6 15H8.58333C8.9055 15 9.16667 14.7388 9.16667 14.4167V14.4167C9.16667 14.0945 8.9055 13.8333 8.58333 13.8333H2.76667C2.4353 13.8333 2.16667 13.5647 2.16667 13.2333V8.6C2.16667 8.26863 2.4353 8 2.76667 8H4.2513C4.41053 8 4.56323 7.93671 4.67577 7.82406L6.65529 5.84261C6.76783 5.72996 6.92053 5.66667 7.07976 5.66667H13.2333C13.5647 5.66667 13.8333 5.9353 13.8333 6.26667V8.58333C13.8333 8.9055 14.0945 9.16667 14.4167 9.16667V9.16667C14.7388 9.16667 15 8.9055 15 8.58333V3.93333C15 3.60196 14.7314 3.33333 14.4 3.33333H9.42431C9.26518 3.33333 9.11256 3.27012 9.00004 3.1576L6.84511 1.00267C6.84364 1.00119 6.84125 1.00119 6.83978 1.00267L6.83789 1.00456C6.83621 1.00624 6.83333 1.00505 6.83333 1.00267V1.00267C6.83333 1.00119 6.83214 1 6.83066 1H1.6ZM12.0833 9.16667C11.7612 9.16667 11.5 9.42783 11.5 9.75V10.9C11.5 11.2314 11.2314 11.5 10.9 11.5H9.75C9.42783 11.5 9.16667 11.7612 9.16667 12.0833V12.0833C9.16667 12.4055 9.42783 12.6667 9.75 12.6667H10.9C11.2314 12.6667 11.5 12.9353 11.5 13.2667V14.4167C11.5 14.7388 11.7612 15 12.0833 15V15C12.4055 15 12.6667 14.7388 12.6667 14.4167V13.2667C12.6667 12.9353 12.9353 12.6667 13.2667 12.6667H14.4167C14.7388 12.6667 15 12.4055 15 12.0833V12.0833C15 11.7612 14.7388 11.5 14.4167 11.5H13.2667C12.9353 11.5 12.6667 11.2314 12.6667 10.9V9.75C12.6667 9.42783 12.4055 9.16667 12.0833 9.16667V9.16667Z" fill="url(#paint0_linear_448_475)"/>
<defs>
<linearGradient id="paint0_linear_448_475" x1="8" y1="15" x2="8" y2="1" gradientUnits="userSpaceOnUse">
<stop stop-color="#A93AFF"/>
<stop offset="1" stop-color="#FF81FF"/>
</linearGradient>
</defs>
</svg>
