<svg width="16" height="16" viewBox="0 0 16 16" fill="none" xmlns="http://www.w3.org/2000/svg">
<path d="M2.17708 2.172C1.96762 1.94955 1.61655 1.94184 1.39753 2.15488L1.16558 2.38048C0.95139 2.58883 0.94405 2.93053 1.14911 3.14789L4.17985 6.36033C4.37778 6.57012 4.37877 6.89755 4.18213 7.10855L1.16946 10.3412C0.966617 10.5589 0.974963 10.8988 1.18823 11.1062L1.42022 11.3318C1.64012 11.5457 1.99291 11.537 2.20192 11.3124L6.00662 7.22498L6.11777 7.10647C6.31469 6.89649 6.31515 6.56982 6.11881 6.35929L6.00662 6.23899L2.17708 2.172ZM7.01462 13.4719C6.71255 13.4719 6.46767 13.7168 6.46767 14.0188V14.347C6.46767 14.649 6.71255 14.8939 7.01462 14.8939H14.4531C14.7551 14.8939 15 14.649 15 14.347V14.0188C15 13.7168 14.7551 13.4719 14.4531 13.4719H7.01462Z" fill="url(#paint0_linear_448_571)" stroke="url(#paint1_linear_448_571)"/>
<defs>
<linearGradient id="paint0_linear_448_571" x1="0.779234" y1="8.87756" x2="15" y2="8.87756" gradientUnits="userSpaceOnUse">
<stop stop-color="#FF823B"/>
<stop offset="0.986957" stop-color="#FF005B"/>
</linearGradient>
<linearGradient id="paint1_linear_448_571" x1="0.779234" y1="8.87756" x2="15" y2="8.87756" gradientUnits="userSpaceOnUse">
<stop stop-color="#FF823B"/>
<stop offset="0.986957" stop-color="#FF005B"/>
</linearGradient>
</defs>
</svg>
