<svg width="16" height="16" viewBox="0 0 16 16" fill="none" xmlns="http://www.w3.org/2000/svg">
<path d="M6.59797 15.0356C4.91789 15.0523 4.07786 15.0607 3.4329 14.7401C2.86558 14.4581 2.40209 14.0038 2.10887 13.4422C1.77552 12.8037 1.76716 11.9637 1.75044 10.2836L1.70666 5.88384C1.68994 4.20377 1.68158 3.36373 2.00216 2.71877C2.28415 2.15145 2.7385 1.68797 3.3001 1.39475C3.93855 1.0614 4.77859 1.05304 6.45866 1.03632L9.45852 1.00647C11.1386 0.989748 11.9786 0.981389 12.6236 1.30197C13.1909 1.58396 13.6544 2.03831 13.9476 2.59991C14.281 3.23835 14.2893 4.07839 14.306 5.75847L14.3498 10.1582C14.3665 11.8383 14.3749 12.6784 14.0543 13.3233C13.7723 13.8906 13.318 14.3541 12.7564 14.6473C12.1179 14.9807 11.2779 14.9891 9.59782 15.0058L6.59797 15.0356Z" stroke="url(#paint0_linear_505_69)" stroke-width="1.8" stroke-linecap="round"/>
<path fill-rule="evenodd" clip-rule="evenodd" d="M6.5 3.08024C6.5 3.44691 6.8 3.74691 7.16667 3.74691H8.5C8.86667 3.74691 9.16667 3.44691 9.16667 3.08024C9.16667 2.71357 8.86667 2.41357 8.5 2.41357H7.16667C6.8 2.41357 6.5 2.71357 6.5 3.08024ZM6.5 5.33337C6.5 5.70003 6.8 6.00003 7.16667 6.00003H8.5C8.86667 6.00003 9.16667 5.70003 9.16667 5.33337C9.16667 4.9667 8.86667 4.6667 8.5 4.6667H7.16667C6.8 4.6667 6.5 4.9667 6.5 5.33337ZM6.06562 9.49707L6.80312 7.74395V7.74082C6.91875 7.3002 7.31563 6.99707 7.76875 6.99707H8.23438C8.6875 6.99707 9.08437 7.30332 9.2 7.74082L9.93437 9.49707C9.97812 9.6627 10 9.8377 10 10.0096C10 11.1096 9.1 12.0002 8 12.0002C6.9 12.0002 6 11.1096 6 10.0096C6 9.8377 6.02187 9.66582 6.06562 9.49707ZM8.5 9.5002H7.5C7.225 9.5002 7 9.7252 7 10.0002C7 10.2752 7.225 10.5002 7.5 10.5002H8.5C8.775 10.5002 9 10.2752 9 10.0002C9 9.7252 8.775 9.5002 8.5 9.5002Z" fill="url(#paint1_linear_505_69)"/>
<defs>
<linearGradient id="paint0_linear_505_69" x1="2.6042" y1="15.0421" x2="12.6021" y2="1.21232" gradientUnits="userSpaceOnUse">
<stop stop-color="#80EA32"/>
<stop offset="1" stop-color="#B3FF7B"/>
</linearGradient>
<linearGradient id="paint1_linear_505_69" x1="6.28571" y1="12.0002" x2="12.8145" y2="7.81934" gradientUnits="userSpaceOnUse">
<stop stop-color="#80EA32"/>
<stop offset="1" stop-color="#B3FF7B"/>
</linearGradient>
</defs>
</svg>
