<svg width="16" height="16" viewBox="0 0 16 16" fill="none" xmlns="http://www.w3.org/2000/svg">
<path opacity="0.4" d="M3.55555 1.00076C3.55454 0.999745 3.55291 0.999751 3.5519 1.00076L3.22375 1.32982C3.04203 1.51204 3.04213 1.80698 3.22398 1.98909L3.84312 2.60908C4.05618 2.82244 4.08089 3.15363 3.97485 3.43589C3.87699 3.69639 3.82597 3.9736 3.82564 4.25466C3.8257 4.79304 4.01173 5.31487 4.35225 5.73188C4.58239 6.01371 4.87354 6.23596 5.20095 6.38368C5.47662 6.50805 5.6944 6.76037 5.6944 7.06279V9.85957C5.6944 10.162 5.47662 10.4143 5.20095 10.5387C4.87409 10.6861 4.58337 10.9079 4.35341 11.189C4.01295 11.6053 3.82654 12.1263 3.82564 12.664C3.82564 13.2836 4.07175 13.8778 4.50982 14.3158C4.72674 14.5327 4.98425 14.7048 5.26766 14.8222C5.55107 14.9396 5.85483 15 6.16159 15C6.7811 15 7.37526 14.7539 7.81336 14.3158C8.25141 13.8778 8.49751 13.2836 8.49751 12.664C8.49744 12.1256 8.31142 11.6039 7.97094 11.1868C7.74081 10.905 7.44965 10.6828 7.12222 10.535C6.84659 10.4106 6.62878 10.1584 6.62878 9.85594V6.98337C6.62878 6.72526 6.8142 6.50923 7.0531 6.4117C7.28966 6.31515 7.57 6.3383 7.75068 6.51896L8.51501 7.28331C8.72808 7.49638 8.75315 7.82732 8.64751 8.10956C8.55001 8.37018 8.49935 8.6474 8.49935 8.92837C8.49935 9.54792 8.74545 10.1421 9.18356 10.5801C9.6216 11.0182 10.2158 11.2643 10.8353 11.2643C11.4549 11.2643 12.049 11.0182 12.487 10.5801C12.9252 10.1421 13.1713 9.54792 13.1713 8.92837C13.1713 8.30883 12.9252 7.71467 12.487 7.27663C12.049 6.83852 11.4549 6.59242 10.8353 6.59242C10.5493 6.59277 10.2674 6.64561 10.003 6.74681C9.71916 6.85545 9.38486 6.83165 9.17013 6.61667L8.47542 5.92113C8.26121 5.70658 8.23747 5.37307 8.34559 5.08981C8.44672 4.82507 8.49935 4.54276 8.49935 4.25648C8.49935 3.94972 8.43896 3.64596 8.32154 3.36255C8.20418 3.07914 8.0321 2.82163 7.81514 2.60471C7.59826 2.3878 7.34076 2.21574 7.05737 2.09834C6.77391 1.98095 6.47017 1.92053 6.16341 1.92053C5.87792 1.9211 5.5965 1.97398 5.33259 2.07505C5.04897 2.18368 4.71481 2.16001 4.50005 1.94526L3.55555 1.00076Z" fill="url(#paint0_linear_448_508)"/>
<path d="M3.07431 1.47968L3.55192 1.00076C3.55292 0.999751 3.55456 0.999745 3.55556 1.00076L4.72174 2.16694C4.80765 2.25284 4.94162 2.2647 5.04823 2.20646C5.38931 2.02013 5.77257 1.92131 6.16343 1.92053C6.47018 1.92053 6.77392 1.98095 7.05738 2.09834C7.34078 2.21574 7.59827 2.3878 7.81516 2.60471C8.03211 2.82163 8.2042 3.07914 8.32155 3.36255C8.43897 3.64596 8.49937 3.94972 8.49937 4.25648C8.49937 4.64791 8.40098 5.03191 8.21482 5.37373C8.15678 5.48024 8.16869 5.61395 8.25441 5.69977L9.53958 6.98661L8.88077 7.64906L7.58656 6.35482C7.5016 6.26989 7.36948 6.25724 7.26333 6.31344C7.12554 6.38639 6.98082 6.44536 6.83133 6.48947C6.71493 6.5238 6.62879 6.62683 6.62879 6.74815V10.1677C6.62879 10.2887 6.71442 10.3915 6.83031 10.4261C7.27656 10.5594 7.67438 10.8237 7.97095 11.1868C8.31143 11.6039 8.49746 12.1256 8.49752 12.664C8.49752 13.2836 8.25142 13.8778 7.81338 14.3158C7.37527 14.7539 6.78112 15 6.1616 15C5.85484 15 5.55108 14.9396 5.26768 14.8222C4.98426 14.7048 4.72675 14.5327 4.50984 14.3158C4.07176 13.8778 3.82566 13.2836 3.82566 12.664C3.82655 12.1263 4.01296 11.6053 4.35342 11.189C4.64985 10.8266 5.04726 10.5629 5.49287 10.4298C5.60877 10.3952 5.69441 10.2923 5.69441 10.1713V6.75101C5.69441 6.63003 5.60877 6.52721 5.49287 6.49258C5.04667 6.35927 4.64881 6.09503 4.35227 5.73188C4.01174 5.31487 3.82571 4.79304 3.82566 4.25466C3.82611 3.86923 3.92189 3.49103 4.10307 3.15325C4.16008 3.04697 4.14781 2.91419 4.06259 2.82885L3.07443 1.83932C2.97524 1.73998 2.97518 1.57909 3.07431 1.47968Z" fill="url(#paint1_linear_448_508)"/>
<defs>
<linearGradient id="paint0_linear_448_508" x1="8.03305" y1="15" x2="8.03305" y2="0.99893" gradientUnits="userSpaceOnUse">
<stop stop-color="#A93AFF"/>
<stop offset="1" stop-color="#FF81FF"/>
</linearGradient>
<linearGradient id="paint1_linear_448_508" x1="6.21726" y1="15" x2="6.21726" y2="0.99893" gradientUnits="userSpaceOnUse">
<stop stop-color="#A93AFF"/>
<stop offset="1" stop-color="#FF81FF"/>
</linearGradient>
</defs>
</svg>
