<svg width="16" height="16" viewBox="0 0 16 16" fill="none" xmlns="http://www.w3.org/2000/svg">
<path fill-rule="evenodd" clip-rule="evenodd" d="M10.4085 4.47217C10.1575 4.13266 9.6967 3.8871 9.24959 4.05327C8.68486 4.21939 8.46519 4.93978 8.8672 5.34784C10.5222 7.25097 12.1929 9.14316 13.8714 11.0282C14.2499 11.5392 15.2186 11.4363 15.4284 10.8386C15.6225 10.4793 15.3872 10.1092 15.1362 9.83833C14.6252 9.25833 14.1139 8.67871 13.6027 8.09915C12.5369 6.8908 11.4714 5.68268 10.4085 4.47217ZM5.68583 4.63217C5.18966 4.54711 4.79037 4.87011 4.53654 5.22078C4.12881 5.74073 3.72164 6.26113 3.31441 6.78152C2.50007 7.82226 1.68568 8.86299 0.867223 9.9C0.557942 10.2442 0.352551 10.7457 0.631831 11.1622C0.948001 11.7487 1.93801 11.8507 2.36491 11.311C2.87219 10.714 3.34825 10.095 3.82448 9.47583C4.39243 8.73727 4.96054 7.99848 5.58199 7.29686C6.04061 7.88792 6.5025 8.47699 6.96445 9.06627C7.46251 9.7015 7.96069 10.3369 8.45514 10.9752C8.72286 11.3279 9.0967 11.7359 9.6252 11.6615C10.3821 11.6531 10.9059 10.7542 10.4375 10.1826C9.77682 9.29555 9.08953 8.42565 8.40208 7.5557C7.85774 6.8668 7.31335 6.1778 6.78201 5.48007C6.73845 5.42779 6.69517 5.37279 6.65128 5.31695C6.40417 5.00295 6.1365 4.66283 5.68583 4.63217Z" fill="url(#paint0_linear_639_87)" stroke="url(#paint1_linear_639_87)" stroke-width="0.6"/>
<defs>
<linearGradient id="paint0_linear_639_87" x1="0.501497" y1="8.03992" x2="10.6167" y2="8.03992" gradientUnits="userSpaceOnUse">
<stop stop-color="#A93AFF"/>
<stop offset="1" stop-color="#FF81FF"/>
</linearGradient>
<linearGradient id="paint1_linear_639_87" x1="0.501497" y1="8.03992" x2="10.6167" y2="8.03992" gradientUnits="userSpaceOnUse">
<stop stop-color="#A93AFF"/>
<stop offset="1" stop-color="#FF81FF"/>
</linearGradient>
</defs>
</svg>
