<svg width="16" height="16" viewBox="0 0 16 16" fill="none" xmlns="http://www.w3.org/2000/svg">
<path d="M8 0.5C3.85294 0.5 0.5 3.85294 0.5 8C0.5 12.1471 3.85294 15.5 8 15.5C12.1471 15.5 15.5 12.1471 15.5 8C15.5 3.85294 12.1471 0.5 8 0.5ZM13.7002 7.23557C13.724 7.40907 13.5855 7.55882 13.4103 7.55882H11.3882C11.2226 7.55882 11.0885 7.42449 11.0857 7.25883C11.0626 5.90047 10.8824 4.55695 10.5451 3.42997C10.4668 3.1684 10.7344 2.93017 10.9651 3.0762C12.3945 3.98107 13.4554 5.4504 13.7002 7.23557ZM8.11714 13.6435C8.05141 13.7113 7.94883 13.7112 7.88167 13.6449C7.51066 13.2781 6.89103 11.9816 6.69949 9.64273C6.68536 9.47027 6.82276 9.32353 6.99581 9.32353H8.91596C9.089 9.32353 9.22637 9.47026 9.21266 9.64277C9.02695 11.9788 8.47449 13.2749 8.11714 13.6435ZM6.98447 7.55882C6.81569 7.55882 6.67989 7.4196 6.68695 7.25098C6.80296 4.47913 7.46328 2.85953 7.79553 2.39217C7.85791 2.30443 7.97168 2.29563 8.0424 2.3768C8.43133 2.82315 9.10742 4.44787 9.22481 7.25098C9.23188 7.4196 9.09607 7.55882 8.9273 7.55882H6.98447ZM5.03494 3.0762C5.26563 2.93017 5.53541 3.16926 5.46092 3.43193C5.14026 4.56267 5.00295 5.91116 4.92683 7.27384C4.91791 7.43345 4.78625 7.55882 4.62639 7.55882H2.58966C2.41455 7.55882 2.27596 7.40907 2.29975 7.23557C2.54461 5.4504 3.6055 3.98107 5.03494 3.0762ZM2.54631 9.69308C2.48691 9.50716 2.63024 9.32353 2.82541 9.32353H4.62993C4.78835 9.32353 4.91917 9.44674 4.93167 9.60466C5.01457 10.6518 5.19473 11.6893 5.47213 12.6088C5.54933 12.8647 5.29348 13.0963 5.06615 12.9557C3.89463 12.2314 2.98201 11.0567 2.54631 9.69308ZM10.9339 12.9558C10.7065 13.0963 10.4516 12.8651 10.5301 12.6096C10.8074 11.7059 10.9872 10.7046 11.0694 9.60578C11.0812 9.44738 11.2123 9.32353 11.3711 9.32353H13.2438C13.4448 9.32353 13.5888 9.51739 13.5198 9.7061C13.0227 11.0642 12.1031 12.2338 10.9339 12.9558Z" fill="url(#paint0_linear_552_75)"/>
<defs>
<linearGradient id="paint0_linear_552_75" x1="1.4375" y1="15.5081" x2="17.8997" y2="3.91594" gradientUnits="userSpaceOnUse">
<stop stop-color="#2E4AFA"/>
<stop offset="1" stop-color="#8E9EFF"/>
</linearGradient>
</defs>
</svg>
