<svg width="16" height="16" viewBox="0 0 16 16" fill="none" xmlns="http://www.w3.org/2000/svg">
<path fill-rule="evenodd" clip-rule="evenodd" d="M4.72384 1.32054C5.24176 0.768093 5.99249 0.583496 6.8335 0.583496H9.16683C10.0078 0.583496 10.7586 0.768093 11.2765 1.32054C11.7847 1.86269 11.9168 2.60046 11.9168 3.3335V3.71697C11.9168 3.82743 12.0064 3.91697 12.1168 3.91697L12.4 3.91697C13.6979 3.91699 14.75 4.96912 14.75 6.26697V10.0002C14.75 10.7825 14.5539 11.5069 14.0303 12.0305C13.5067 12.5541 12.7823 12.7502 12 12.7502H11.6125C11.5034 12.7502 11.4151 12.8376 11.4081 12.9464C11.3649 13.6205 11.1578 14.2366 10.6972 14.6972C10.1736 15.2208 9.4491 15.4168 8.66683 15.4168H7.3335C6.55122 15.4168 5.82676 15.2208 5.30317 14.6972C4.84257 14.2366 4.63542 13.6205 4.59224 12.9464C4.58527 12.8376 4.49689 12.7502 4.38785 12.7502H4C3.21772 12.7502 2.49326 12.5541 1.96967 12.0305C1.44608 11.5069 1.25 10.7825 1.25 10.0002V6.66687C1.25 5.88459 1.44608 5.16013 1.96967 4.63654C2.49326 4.11294 3.21772 3.91686 4 3.91686H4.00001C4.04612 3.91687 4.0835 3.87949 4.0835 3.83338V3.3335C4.0835 2.60046 4.21558 1.86269 4.72384 1.32054ZM11.6168 11.2502C11.5064 11.2502 11.4168 11.1607 11.4168 11.0502V10.9247C11.4168 10.8227 11.4951 10.7398 11.5908 10.7049C11.8783 10.5999 12.0835 10.324 12.0835 10.0002C12.0835 9.58595 11.7477 9.25016 11.3335 9.25016H10.6668H10.5268H5.3335H4.66683C4.25262 9.25016 3.91683 9.58595 3.91683 10.0002C3.91683 10.3239 4.12198 10.5998 4.40938 10.7048C4.50512 10.7398 4.58333 10.8227 4.58333 10.9246V11.0502C4.58333 11.1607 4.49379 11.2502 4.38333 11.2502H4C3.44894 11.2502 3.1734 11.1129 3.03033 10.9699C2.88726 10.8268 2.75 10.5513 2.75 10.0002V6.66687C2.75 6.11581 2.88726 5.84027 3.03033 5.6972C3.1734 5.55412 3.44894 5.41687 3.99999 5.41686H4L12.4 5.41697C12.8694 5.41698 13.25 5.79754 13.25 6.26697V10.0002C13.25 10.5513 13.1127 10.8268 12.9697 10.9699C12.8266 11.1129 12.5511 11.2502 12 11.2502H11.6168ZM6.2835 10.7502C6.17304 10.7502 6.0835 10.8397 6.0835 10.9502V12.6668C6.0835 13.2179 6.22075 13.4934 6.36383 13.6365C6.5069 13.7796 6.78244 13.9168 7.3335 13.9168H8.66683C9.21789 13.9168 9.49343 13.7796 9.6365 13.6365C9.77957 13.4934 9.91683 13.2179 9.91683 12.6668V12.016L9.91667 12.0002V10.9502C9.91667 10.8397 9.82712 10.7502 9.71667 10.7502H6.2835ZM5.81815 2.34645C5.70141 2.47097 5.5835 2.7332 5.5835 3.3335V3.71683C5.5835 3.82729 5.67304 3.91683 5.7835 3.91683H10.2168C10.3273 3.91683 10.4168 3.82729 10.4168 3.71683V3.3335C10.4168 2.7332 10.2989 2.47097 10.1822 2.34645C10.0751 2.23223 9.82582 2.0835 9.16683 2.0835H6.8335C6.17451 2.0835 5.92523 2.23223 5.81815 2.34645ZM4.66683 6.5835C4.25262 6.5835 3.91683 6.91929 3.91683 7.3335C3.91683 7.74771 4.25262 8.0835 4.66683 8.0835H6.66683C7.08104 8.0835 7.41683 7.74771 7.41683 7.3335C7.41683 6.91929 7.08104 6.5835 6.66683 6.5835H4.66683Z" fill="url(#paint0_linear_491_629)"/>
<defs>
<linearGradient id="paint0_linear_491_629" x1="8" y1="15.4168" x2="8" y2="1.45605" gradientUnits="userSpaceOnUse">
<stop stop-color="#18AEFA"/>
<stop offset="1" stop-color="#83E1FF"/>
</linearGradient>
</defs>
</svg>
