<svg width="16" height="16" viewBox="0 0 16 16" fill="none" xmlns="http://www.w3.org/2000/svg">
<path fill-rule="evenodd" clip-rule="evenodd" d="M6.09981 0.399806L6.0621 0.399805H6.0621C5.25405 0.399795 4.5932 0.399786 4.05612 0.443667C3.50021 0.489087 2.99813 0.58597 2.52924 0.82488C1.79541 1.19879 1.19879 1.79541 0.82488 2.52924C0.585969 2.99813 0.489087 3.50021 0.443667 4.05612C0.399786 4.5932 0.399795 5.25405 0.399805 6.0621V6.06211L0.399806 6.09981V9.82981L0.399805 9.86751C0.399799 10.345 0.399794 10.7711 0.408844 11.1506C0.409113 11.1619 0.408383 11.1731 0.406965 11.1843C0.394868 11.2799 0.398101 11.3771 0.416662 11.4718C0.418818 11.4828 0.420301 11.494 0.420809 11.5052C0.426652 11.634 0.434121 11.7567 0.443667 11.8735C0.489087 12.4294 0.58597 12.9315 0.82488 13.4004C1.19879 14.1342 1.79541 14.7308 2.52924 15.1047C2.99813 15.3436 3.50021 15.4405 4.05612 15.4859C4.5932 15.5298 5.25405 15.5298 6.06211 15.5298H6.09981H9.82981H9.86751C10.6756 15.5298 11.3364 15.5298 11.8735 15.4859C12.4294 15.4405 12.9315 15.3436 13.4004 15.1047C14.1342 14.7308 14.7308 14.1342 15.1047 13.4004C15.3436 12.9315 15.4405 12.4294 15.4859 11.8735C15.5177 11.4852 15.5265 11.0323 15.5289 10.5058C15.53 10.4809 15.5301 10.4561 15.5292 10.4312C15.5298 10.2518 15.5298 10.064 15.5298 9.86751V9.8298V6.09981V6.0621C15.5298 5.25405 15.5298 4.5932 15.4859 4.05612C15.4405 3.50021 15.3436 2.99813 15.1047 2.52924C14.7308 1.79541 14.1342 1.19879 13.4004 0.82488C12.9315 0.585969 12.4294 0.489087 11.8735 0.443667C11.3364 0.399786 10.6756 0.399795 9.8675 0.399805L9.8298 0.399806H6.09981ZM13.3884 7.95059C13.5144 8.07659 13.7298 7.98735 13.7298 7.80917V6.09981C13.7298 5.24488 13.7291 4.65781 13.6919 4.2027C13.6556 3.7581 13.589 3.51927 13.5009 3.34643C13.2996 2.95129 12.9783 2.63003 12.5832 2.42869C12.4103 2.34062 12.1715 2.27401 11.7269 2.23769C11.2718 2.20051 10.6847 2.19981 9.8298 2.19981H6.09981C5.24488 2.19981 4.65781 2.20051 4.2027 2.23769C3.7581 2.27401 3.51927 2.34062 3.34643 2.42869C2.95129 2.63003 2.63003 2.95129 2.42869 3.34643C2.34062 3.51927 2.27401 3.7581 2.23769 4.2027C2.20051 4.65781 2.19981 5.24488 2.19981 6.09981V8.64233C2.19981 8.82051 2.41523 8.90974 2.54123 8.78375L4.40477 6.9202C4.99055 6.33441 5.9403 6.33441 6.52609 6.92019L8.65651 9.05061C8.73462 9.12872 8.86125 9.12872 8.93935 9.05062L10.6532 7.33675C11.239 6.75097 12.1888 6.75097 12.7746 7.33676L13.3884 7.95059ZM2.2931 11.5775C2.25371 11.6169 2.23315 11.6714 2.23769 11.7269V11.7269C2.27401 12.1715 2.34062 12.4103 2.42869 12.5832C2.63003 12.9783 2.95129 13.2996 3.34643 13.5009C3.51927 13.589 3.7581 13.6556 4.2027 13.6919C4.65781 13.7291 5.24488 13.7298 6.09981 13.7298H9.82981C10.6847 13.7298 11.2718 13.7291 11.7269 13.6919C12.1715 13.6556 12.4103 13.589 12.5832 13.5009C12.9783 13.2996 13.2996 12.9783 13.5009 12.5832C13.589 12.4103 13.6556 12.1715 13.6919 11.7269C13.7107 11.4969 13.7202 11.2332 13.725 10.9182C13.7258 10.8644 13.7046 10.8124 13.6665 10.7743L11.8553 8.9631C11.7772 8.885 11.6506 8.885 11.5725 8.9631L10.2121 10.3234C10.134 10.4015 10.134 10.5281 10.2121 10.6062L11.3089 11.703C11.6603 12.0544 11.6603 12.6243 11.3089 12.9758C10.9574 13.3272 10.3875 13.3272 10.0361 12.9758L8.16153 11.1012L5.60685 8.54654C5.52875 8.46844 5.40212 8.46844 5.32401 8.54654L2.2931 11.5775Z" fill="url(#paint0_linear_579_208)"/>
<defs>
<linearGradient id="paint0_linear_579_208" x1="7.9648" y1="15.6298" x2="7.9648" y2="1.20157" gradientUnits="userSpaceOnUse">
<stop stop-color="#18AEFA"/>
<stop offset="1" stop-color="#83E1FF"/>
</linearGradient>
</defs>
</svg>
