<svg width="16" height="16" viewBox="0 0 16 16" fill="none" xmlns="http://www.w3.org/2000/svg">
<path fill-rule="evenodd" clip-rule="evenodd" d="M2.2332 7.99987C2.2332 4.81693 4.81693 2.2332 7.99987 2.2332C11.1828 2.2332 13.7665 4.81693 13.7665 7.99987C13.7665 11.1828 11.1828 13.7665 7.99987 13.7665C4.81693 13.7665 2.2332 11.1828 2.2332 7.99987ZM7.99987 0.433203C3.82281 0.433203 0.433203 3.82281 0.433203 7.99987C0.433203 12.1769 3.82281 15.5665 7.99987 15.5665C12.1769 15.5665 15.5665 12.1769 15.5665 7.99987C15.5665 3.82281 12.1769 0.433203 7.99987 0.433203ZM8.65312 5.00654C8.65312 4.50949 8.25018 4.10654 7.75313 4.10654C7.25607 4.10654 6.85313 4.50949 6.85313 5.00654V7.73988C6.85313 8.14362 6.9881 8.52989 7.16299 8.83656C7.3376 9.14275 7.60053 9.45468 7.9462 9.65995L7.94764 9.6608L10.0119 10.8927C10.4387 11.1474 10.9912 11.0079 11.246 10.5811C11.5007 10.1543 11.3612 9.60176 10.9343 9.34703L8.86767 8.1137L8.86528 8.11228L8.86422 8.11161L8.86116 8.10952C8.85847 8.10761 8.85473 8.10478 8.85002 8.10088C8.84046 8.09294 8.82818 8.08155 8.81401 8.06619C8.78501 8.03476 8.75423 7.99332 8.7266 7.94486C8.66482 7.83653 8.65312 7.75613 8.65312 7.73988V5.00654Z" fill="url(#paint0_linear_495_78)"/>
<defs>
<linearGradient id="paint0_linear_495_78" x1="7.99987" y1="15.4665" x2="7.99987" y2="0.533203" gradientUnits="userSpaceOnUse">
<stop stop-color="#FDA700"/>
<stop offset="1" stop-color="#FFDE00"/>
</linearGradient>
</defs>
</svg>
