<svg width="16" height="16" viewBox="0 0 16 16" fill="none" xmlns="http://www.w3.org/2000/svg">
<path fill-rule="evenodd" clip-rule="evenodd" d="M5.59748 2H10.4022C11.1369 1.99999 11.7295 1.99999 12.2091 2.03982C12.7029 2.08083 13.1364 2.1675 13.5364 2.37529C14.1452 2.69154 14.6416 3.18794 14.9579 3.79675C15.1657 4.19676 15.2523 4.63023 15.2934 5.12411C15.3332 5.60371 15.3332 6.19629 15.3332 6.93099V9.06901C15.3332 9.80371 15.3332 10.3963 15.2934 10.8759C15.2523 11.3698 15.1657 11.8032 14.9579 12.2032C14.6416 12.8121 14.1452 13.3085 13.5364 13.6247C13.1364 13.8325 12.7029 13.9192 12.2091 13.9602C11.7295 14 11.1369 14 10.4022 14H5.5975C4.8628 14 4.27021 14 3.79061 13.9602C3.29674 13.9192 2.86326 13.8325 2.46326 13.6247C1.85445 13.3085 1.35804 12.8121 1.04179 12.2032C0.834008 11.8032 0.747334 11.3698 0.70632 10.8759C0.666492 10.3963 0.666497 9.80372 0.666504 9.06903V6.93097C0.666497 6.19628 0.666492 5.60371 0.70632 5.12411C0.747334 4.63023 0.834008 4.19676 1.04179 3.79675C1.35804 3.18794 1.85445 2.69154 2.46326 2.37529C2.86326 2.1675 3.29674 2.08083 3.79061 2.03982C4.27021 1.99999 4.86279 1.99999 5.59748 2ZM3.50166 3.42033C4.06742 3.55308 4.59262 3.8344 5.01995 4.24138L6.97915 6.10728C7.25009 6.36532 7.4248 6.531 7.56802 6.64679C7.70483 6.75738 7.76922 6.78535 7.80487 6.79625C7.93194 6.83511 8.06773 6.83511 8.19481 6.79625C8.23045 6.78535 8.29485 6.75738 8.43165 6.64679C8.57488 6.531 8.74958 6.36532 9.02053 6.10728L10.9797 4.24138C11.4071 3.8344 11.9323 3.55308 12.498 3.42033C12.386 3.39882 12.2551 3.38156 12.0987 3.36858C11.6808 3.33387 11.1437 3.33333 10.3732 3.33333H5.6265C4.85599 3.33333 4.31888 3.33387 3.90096 3.36858C3.74461 3.38156 3.61369 3.39882 3.50166 3.42033ZM13.8736 4.66667H13.2498C12.747 4.66667 12.2634 4.8601 11.8993 5.2069L9.92169 7.0903C9.67434 7.32589 9.46036 7.5297 9.26989 7.68367C9.0683 7.84664 8.85049 7.99002 8.58475 8.07129C8.20352 8.18788 7.79615 8.18788 7.41492 8.07129C7.14919 7.99002 6.93137 7.84664 6.72978 7.68367C6.53932 7.52969 6.32533 7.32588 6.07797 7.09029L4.10041 5.2069C3.73628 4.8601 3.25269 4.66667 2.74984 4.66667H2.12612C2.08556 4.81109 2.05519 4.99228 2.03508 5.23446C2.00037 5.65237 1.99984 6.18949 1.99984 6.96V9.04C1.99984 9.81051 2.00037 10.3476 2.03508 10.7655C2.06912 11.1755 2.13257 11.4107 2.22501 11.5886C2.41476 11.9539 2.7126 12.2517 3.07789 12.4415C3.25585 12.5339 3.49102 12.5974 3.90096 12.6314C4.31888 12.6661 4.85599 12.6667 5.6265 12.6667H10.3732C11.1437 12.6667 11.6808 12.6661 12.0987 12.6314C12.5087 12.5974 12.7438 12.5339 12.9218 12.4415C13.2871 12.2517 13.5849 11.9539 13.7747 11.5886C13.8671 11.4107 13.9306 11.1755 13.9646 10.7655C13.9993 10.3476 13.9998 9.81051 13.9998 9.04V6.96C13.9998 6.18949 13.9993 5.65237 13.9646 5.23446C13.9445 4.99228 13.9141 4.81109 13.8736 4.66667Z" fill="url(#paint0_linear_508_271)" stroke="url(#paint1_linear_508_271)" stroke-width="0.6" stroke-linecap="round"/>
<defs>
<linearGradient id="paint0_linear_508_271" x1="7.99984" y1="14" x2="7.99984" y2="2.70588" gradientUnits="userSpaceOnUse">
<stop stop-color="#18AEFA"/>
<stop offset="1" stop-color="#83E1FF"/>
</linearGradient>
<linearGradient id="paint1_linear_508_271" x1="7.99984" y1="14" x2="7.99984" y2="2.70588" gradientUnits="userSpaceOnUse">
<stop stop-color="#18AEFA"/>
<stop offset="1" stop-color="#83E1FF"/>
</linearGradient>
</defs>
</svg>
