<svg width="16" height="16" viewBox="0 0 16 16" fill="none" xmlns="http://www.w3.org/2000/svg">
<path d="M8 1.25C6.74933 1.25 5.73433 2.25333 5.68418 3.49233C4.63842 3.93918 3.7473 4.68385 3.12182 5.6336C2.49634 6.58333 2.16415 7.69613 2.16667 8.83333C2.16667 8.9325 2.162 9.04332 2.16667 9.16175C1.47542 9.56775 1 10.3121 1 11.1667C1 12.4482 2.05175 13.5 3.33332 13.5C3.66875 13.5 3.9925 13.4288 4.28125 13.2993C5.29218 14.1487 6.6105 14.6667 8 14.6667C9.3895 14.6667 10.7078 14.1487 11.7188 13.2993C12.0171 13.4321 12.3401 13.5005 12.6667 13.5C13.9482 13.5 15 12.4482 15 11.1667C15 10.3033 14.5188 9.54675 13.8158 9.1425C13.8246 9.04917 13.8333 8.95583 13.8333 8.83333C13.836 7.6961 13.5039 6.58322 12.8784 5.63347C12.2529 4.6837 11.3617 3.93905 10.3158 3.49233C10.2651 2.25333 9.25007 1.25 8 1.25ZM8 2.41667C8.651 2.41667 9.16667 2.93232 9.16667 3.58332C9.16667 4.23432 8.651 4.75 8 4.75C7.349 4.75 6.83332 4.23432 6.83332 3.58332C6.83332 2.93232 7.349 2.41667 8 2.41667ZM5.94082 4.659C6.33167 5.40217 7.1075 5.91668 8 5.91668C8.8925 5.91668 9.66832 5.40217 10.0592 4.659C10.8423 5.03927 11.5023 5.63262 11.9635 6.371C12.4247 7.10935 12.6684 7.96278 12.6667 8.83333C11.3851 8.83333 10.3333 9.88507 10.3333 11.1667C10.3333 11.6887 10.5142 12.1618 10.8076 12.5521C9.99798 13.1617 9.01342 13.4941 8 13.5C6.98655 13.4942 6.00197 13.1618 5.19242 12.5521C5.4977 12.1546 5.6643 11.6679 5.66668 11.1667C5.66668 9.88507 4.61492 8.83333 3.33332 8.83333C3.33332 7.01333 4.3775 5.41732 5.94082 4.659ZM3.33332 10C3.98432 10 4.5 10.5157 4.5 11.1667C4.5 11.8177 3.98432 12.3333 3.33332 12.3333C2.68232 12.3333 2.16667 11.8177 2.16667 11.1667C2.16667 10.5157 2.68232 10 3.33332 10ZM12.6667 10C13.3177 10 13.8333 10.5157 13.8333 11.1667C13.8333 11.8177 13.3177 12.3333 12.6667 12.3333C12.0157 12.3333 11.5 11.8177 11.5 11.1667C11.5 10.5157 12.0157 10 12.6667 10Z" fill="url(#paint0_linear_448_553)" stroke="url(#paint1_linear_448_553)" stroke-width="0.6"/>
<defs>
<linearGradient id="paint0_linear_448_553" x1="8" y1="14.6667" x2="8" y2="1.25" gradientUnits="userSpaceOnUse">
<stop stop-color="#5570FF"/>
<stop offset="1" stop-color="#4DD3FF"/>
</linearGradient>
<linearGradient id="paint1_linear_448_553" x1="8" y1="14.6667" x2="8" y2="1.25" gradientUnits="userSpaceOnUse">
<stop stop-color="#5570FF"/>
<stop offset="1" stop-color="#4DD3FF"/>
</linearGradient>
</defs>
</svg>
