<svg width="16" height="16" viewBox="0 0 16 16" fill="none" xmlns="http://www.w3.org/2000/svg">
<path fill-rule="evenodd" clip-rule="evenodd" d="M14.3529 10.8417V9.23535H12.0903C11.8972 9.23535 11.8006 9.23535 11.7193 9.24344C10.9386 9.3211 10.321 9.93867 10.2434 10.7194C10.2353 10.8007 10.2353 10.8973 10.2353 11.0904C10.2353 11.3208 10.2353 11.4359 10.2455 11.5274C10.345 12.4149 11.1337 13.0615 12.0235 12.985C12.1152 12.9771 12.2281 12.9545 12.454 12.9093L12.6979 12.8605C13.0112 12.7979 13.1679 12.7665 13.3001 12.7154C13.8395 12.5068 14.2299 12.0305 14.3287 11.4606C14.3529 11.321 14.3529 11.1612 14.3529 10.8417ZM6.11765 12.4887V10.8825H3.85496C3.66189 10.8825 3.56535 10.8825 3.48404 10.8905C2.70332 10.9682 2.08574 11.5858 2.00809 12.3665C2 12.4478 2 12.5443 2 12.7374C2 12.9678 2 13.083 2.01025 13.1744C2.1097 14.062 2.89839 14.7085 3.7882 14.632C3.87985 14.6241 3.99289 14.6015 4.21875 14.5564L4.46259 14.5076C4.77592 14.4449 4.93258 14.4136 5.06476 14.3625C5.60418 14.1538 5.99463 13.6775 6.09344 13.1077C6.11765 12.968 6.11765 12.8083 6.11765 12.4887Z" fill="url(#paint0_linear_590_80)"/>
<path d="M6.11765 10.8822V6.76454M6.11765 10.8822V12.4884M6.11765 10.8822H3.85496M6.11765 6.76454L14.3529 5.11749M6.11765 6.76454V5.34742M6.11765 12.4884V5.34742M6.11765 12.4884C6.11765 12.808 6.11765 12.9677 6.09344 13.1074C5.99463 13.6772 5.60418 14.1535 5.06476 14.3622C4.93258 14.4133 4.77592 14.4446 4.46259 14.5073M6.11765 12.4884C6.11765 12.6892 6.11765 12.7896 6.10888 12.8781C6.03725 13.6011 5.53791 14.2102 4.84294 14.4223C4.75787 14.4482 4.65944 14.4679 4.46259 14.5073M3.85496 10.8822C3.66189 10.8822 3.56535 10.8822 3.48404 10.8902C2.70332 10.9679 2.08574 11.5855 2.00809 12.3662C2 12.4475 2 12.544 2 12.7371M3.85496 10.8822C3.80393 10.8822 3.77842 10.8822 3.75684 10.8827C2.79655 10.9057 2.02355 11.6787 2.00052 12.639C2 12.6606 2 12.6861 2 12.7371M14.3529 9.23512V5.11749M14.3529 9.23512V10.8414M14.3529 9.23512H12.0903M14.3529 5.11749C14.3529 5.11749 14.3529 2.2294 13.7501 1.73518C13.1473 1.24097 12.2358 1.42327 10.4128 1.78787M14.3529 5.11749V5.01801C14.3529 3.34179 14.3529 2.50367 13.8896 1.98996C13.7686 1.85582 13.6282 1.74065 13.4729 1.64834C12.8783 1.29476 12.0565 1.45914 10.4128 1.78787M14.3529 10.8414C14.3529 11.1609 14.3529 11.3207 14.3287 11.4603C14.2299 12.0302 13.8395 12.5065 13.3001 12.7151C13.1679 12.7662 13.0112 12.7976 12.6979 12.8602M14.3529 10.8414C14.3529 11.0421 14.3529 11.1425 14.3442 11.231C14.2726 11.9541 13.7732 12.5632 13.0782 12.7752C12.9931 12.8012 12.8947 12.8209 12.6979 12.8602M12.0903 9.23512C11.8972 9.23512 11.8006 9.23512 11.7193 9.24321C10.9386 9.32087 10.321 9.93845 10.2434 10.7191C10.2353 10.8004 10.2353 10.897 10.2353 11.0901M12.0903 9.23512C12.0392 9.23512 12.0137 9.23513 11.9921 9.23565C11.0318 9.25868 10.2588 10.0316 10.2358 10.9919C10.2353 11.0135 10.2353 11.039 10.2353 11.0901M10.4128 1.78787L8.76574 2.11727M6.11765 5.34742C6.11765 4.05468 6.11765 3.40832 6.49097 2.95294C6.86428 2.49757 7.4981 2.3708 8.76574 2.11727M6.11765 5.34742C6.11765 4.17927 6.11765 3.59518 6.40223 3.1512C6.47788 3.03317 6.56707 2.92438 6.66797 2.82705C7.04752 2.46091 7.62026 2.34637 8.76574 2.11727M12.6979 12.8602L12.454 12.909M12.454 12.909C12.2281 12.9542 12.1152 12.9768 12.0235 12.9847C11.1337 13.0612 10.345 12.4146 10.2455 11.5271C10.2353 11.4356 10.2353 11.3205 10.2353 11.0901M12.454 12.909C12.3943 12.9209 12.3645 12.9269 12.3405 12.931C11.2599 13.117 10.2655 12.3018 10.236 11.2057C10.2353 11.1814 10.2353 11.1509 10.2353 11.0901M4.46259 14.5073L4.21875 14.5561M4.21875 14.5561C3.99289 14.6012 3.87985 14.6238 3.7882 14.6317C2.89839 14.7082 2.1097 14.0617 2.01025 13.1741C2 13.0827 2 12.9675 2 12.7371M4.21875 14.5561C4.15904 14.568 4.12918 14.574 4.10524 14.5781C3.02464 14.764 2.03025 13.9488 2.00066 12.8527C2 12.8284 2 12.798 2 12.7371" stroke="url(#paint1_linear_590_80)" stroke-width="1.6"/>
<defs>
<linearGradient id="paint0_linear_590_80" x1="8.17647" y1="15.0001" x2="8.17647" y2="1.00006" gradientUnits="userSpaceOnUse">
<stop stop-color="#A93AFF"/>
<stop offset="1" stop-color="#FF81FF"/>
</linearGradient>
<linearGradient id="paint1_linear_590_80" x1="8.17647" y1="14.9998" x2="8.17647" y2="0.999835" gradientUnits="userSpaceOnUse">
<stop stop-color="#A93AFF"/>
<stop offset="1" stop-color="#FF81FF"/>
</linearGradient>
</defs>
</svg>
