<svg width="16" height="16" viewBox="0 0 16 16" fill="none" xmlns="http://www.w3.org/2000/svg">
<path d="M7.99926 1.00586C6.29804 1.00928 4.65354 1.62557 3.34516 2.74433C3.22628 2.84603 3.21745 3.02693 3.32618 3.13959L3.9921 3.83019C4.09048 3.9323 4.25106 3.9415 4.3606 3.85117C5.39326 2.99949 6.67533 2.53165 7.9998 2.52797C9.55686 2.52797 11.0501 3.16941 12.1511 4.31106C13.1927 5.3914 13.8027 6.83566 13.8653 8.35573C13.8712 8.50153 13.9913 8.61626 14.1369 8.61626H15.0619C15.2156 8.61626 15.339 8.48873 15.3334 8.33486C15.2652 6.41879 14.5013 4.5957 13.1891 3.23495C11.8128 1.80773 9.94546 1.00593 7.99926 1.00586Z" fill="url(#paint0_linear_448_559)"/>
<path d="M1.64424 5.69951C1.50658 5.55663 1.26732 5.60463 1.19532 5.78945C0.879702 6.59933 0.700842 7.46013 0.666835 8.33367C0.660846 8.48767 0.784189 8.6158 0.938442 8.6158H1.86318C2.00866 8.6158 2.12834 8.50153 2.13473 8.35607C2.15922 7.7986 2.25752 7.247 2.42693 6.7172C2.45738 6.62182 2.43309 6.51769 2.36371 6.44561L1.64424 5.69951Z" fill="url(#paint1_linear_448_559)"/>
<path d="M7.99926 1.00586C6.29804 1.00928 4.65354 1.62557 3.34516 2.74433C3.22628 2.84603 3.21745 3.02693 3.32618 3.13959L3.9921 3.83019C4.09048 3.9323 4.25106 3.9415 4.3606 3.85117C5.39326 2.99949 6.67533 2.53165 7.9998 2.52797C9.55686 2.52797 11.0501 3.16941 12.1511 4.31106C13.1927 5.3914 13.8027 6.83566 13.8653 8.35573C13.8712 8.50153 13.9913 8.61626 14.1369 8.61626H15.0619C15.2156 8.61626 15.339 8.48873 15.3334 8.33486C15.2652 6.41879 14.5013 4.5957 13.1891 3.23495C11.8128 1.80773 9.94546 1.00593 7.99926 1.00586Z" fill="url(#paint2_linear_448_559)"/>
<path d="M2.36371 6.44561C2.43309 6.51769 2.45738 6.62182 2.42693 6.7172C2.25752 7.247 2.15922 7.7986 2.13473 8.35607C2.12834 8.50153 2.00866 8.6158 1.86318 8.6158H0.938442C0.784189 8.6158 0.660846 8.48767 0.666835 8.33367C0.700842 7.46013 0.879702 6.59933 1.19532 5.78945C1.26732 5.60463 1.50658 5.55663 1.64424 5.69951L2.36371 6.44561Z" fill="url(#paint3_linear_448_559)"/>
<path fill-rule="evenodd" clip-rule="evenodd" d="M9.59991 5.4388C9.26151 5.35144 8.90924 5.52152 8.76757 5.84162L9.59991 5.4388ZM8.76757 5.84162L6.2161 11.5928C5.98451 11.8669 5.82329 12.1919 5.74706 12.5411L5.74675 12.5425L5.74531 12.5493C5.74402 12.5551 5.74288 12.5613 5.74187 12.5673L5.72771 12.6523C5.55775 13.6849 6.14532 14.6943 7.14677 14.9409C8.14064 15.1845 9.13611 14.5762 9.49384 13.6061L9.50744 13.5693C9.51717 13.5435 9.52357 13.5189 9.52784 13.496L9.55277 13.4207C9.55624 13.41 9.55937 13.3992 9.56204 13.3882L9.56424 13.3787C9.61584 13.1653 9.63657 12.9448 9.62384 12.7266C9.62084 12.6753 9.61771 12.628 9.61471 12.5838C9.60477 12.4383 9.59711 12.3255 9.60744 12.2078L10.1338 6.1935C10.164 5.84579 9.93851 5.5262 9.59991 5.4388M7.92691 11.9428C7.72324 11.8937 7.51637 11.9683 7.41764 12.1908C7.37831 12.2791 7.32437 12.364 7.25771 12.4383C7.15931 12.548 7.09244 12.677 7.06024 12.8129L7.05071 12.8701C6.98137 13.2926 7.22204 13.5783 7.46697 13.6385C7.70937 13.6979 8.05624 13.5633 8.21751 13.1883L8.26624 13.0403C8.29397 12.912 8.29251 12.7861 8.26664 12.6733M7.92691 11.9428C8.12824 11.9913 8.26684 12.1448 8.24624 12.3803L7.92691 11.9428Z" fill="url(#paint4_linear_448_559)"/>
<defs>
<linearGradient id="paint0_linear_448_559" x1="14.9199" y1="8.00046" x2="2.82068" y2="3.41175" gradientUnits="userSpaceOnUse">
<stop stop-color="#FE7970"/>
<stop offset="1" stop-color="#DC3282"/>
</linearGradient>
<linearGradient id="paint1_linear_448_559" x1="14.9199" y1="8.00007" x2="2.82064" y2="3.41131" gradientUnits="userSpaceOnUse">
<stop stop-color="#FE7970"/>
<stop offset="1" stop-color="#DC3282"/>
</linearGradient>
<linearGradient id="paint2_linear_448_559" x1="14.9199" y1="8.00046" x2="2.82068" y2="3.41175" gradientUnits="userSpaceOnUse">
<stop stop-color="#FE7970"/>
<stop offset="1" stop-color="#DC3282"/>
</linearGradient>
<linearGradient id="paint3_linear_448_559" x1="14.9199" y1="8.00007" x2="2.82064" y2="3.41131" gradientUnits="userSpaceOnUse">
<stop stop-color="#FE7970"/>
<stop offset="1" stop-color="#DC3282"/>
</linearGradient>
<linearGradient id="paint4_linear_448_559" x1="14.9198" y1="8.00006" x2="2.82055" y2="3.41132" gradientUnits="userSpaceOnUse">
<stop stop-color="#FE7970"/>
<stop offset="1" stop-color="#DC3282"/>
</linearGradient>
</defs>
</svg>
