<svg width="16" height="16" viewBox="0 0 16 16" fill="none" xmlns="http://www.w3.org/2000/svg">
<path fill-rule="evenodd" clip-rule="evenodd" d="M12.2336 3.66676C12.2336 3.24335 12.5768 2.9001 13.0003 2.9001C13.4237 2.9001 13.7669 3.24335 13.7669 3.66676C13.7669 4.09018 13.4237 4.43343 13.0003 4.43343C12.5768 4.43343 12.2336 4.09018 12.2336 3.66676ZM13.0003 1.1001C11.5827 1.1001 10.4336 2.24923 10.4336 3.66676C10.4336 5.08429 11.5827 6.23343 13.0003 6.23343C14.4178 6.23343 15.5669 5.08429 15.5669 3.66676C15.5669 2.24923 14.4178 1.1001 13.0003 1.1001ZM2.86267 3.78477C2.51339 4.1091 2.23359 4.6718 2.23359 5.66693V10.3336C2.23359 11.3287 2.51339 11.8914 2.86267 12.2157C3.22402 12.5513 3.80489 12.7669 4.66693 12.7669H11.3336C12.1956 12.7669 12.7765 12.5513 13.1379 12.2157C13.4871 11.8914 13.7669 11.3287 13.7669 10.3336V7.00026C13.7669 6.5032 14.1699 6.10026 14.6669 6.10026C15.164 6.10026 15.5669 6.5032 15.5669 7.00026V10.3336C15.5669 11.6718 15.1801 12.7758 14.3627 13.5348C13.5574 14.2826 12.4716 14.5669 11.3336 14.5669H4.66693C3.52896 14.5669 2.44317 14.2826 1.63785 13.5348C0.820465 12.7758 0.433594 11.6718 0.433594 10.3336V5.66693C0.433594 4.32872 0.820465 3.22475 1.63785 2.46575C2.44317 1.71795 3.52896 1.43359 4.66693 1.43359H9.33359C9.83065 1.43359 10.2336 1.83654 10.2336 2.33359C10.2336 2.83065 9.83065 3.23359 9.33359 3.23359H4.66693C3.80489 3.23359 3.22402 3.44923 2.86267 3.78477ZM3.96338 5.43842C4.27359 5.05004 4.8399 4.98667 5.22828 5.29688L7.31383 6.96265L7.3143 6.96303C7.67293 7.24808 8.33401 7.24801 8.6925 6.96282L8.69271 6.96265L9.47916 6.33615C9.86794 6.02645 10.4342 6.09055 10.7439 6.47932C11.0536 6.8681 10.9895 7.43433 10.6007 7.74404L9.81404 8.37071L9.81383 8.37088C8.79909 9.17873 7.20745 9.17873 6.19271 8.37088L6.19159 8.36998L4.10492 6.70332C3.71655 6.39311 3.65318 5.8268 3.96338 5.43842Z" fill="url(#paint0_linear_591_197)"/>
<defs>
<linearGradient id="paint0_linear_591_197" x1="14.4004" y1="1.34252" x2="2.26803" y2="15.473" gradientUnits="userSpaceOnUse">
<stop stop-color="#FFC700"/>
<stop offset="0.551952" stop-color="#FF49AB"/>
<stop offset="1" stop-color="#BA49FF"/>
</linearGradient>
</defs>
</svg>
