<svg width="16" height="16" viewBox="0 0 16 16" fill="none" xmlns="http://www.w3.org/2000/svg">
<path fill-rule="evenodd" clip-rule="evenodd" d="M6.41058 0.433403L6.58144 0.433501H9.41871L9.58958 0.433403C10.5824 0.432545 11.3383 0.431891 11.9924 0.706728C12.5662 0.9478 13.0654 1.33751 13.4384 1.8357C13.8637 2.40367 14.0464 3.13717 14.2863 4.10054L14.3276 4.26633L14.8515 6.36176L14.8643 6.41309L14.8643 6.41311C15.0542 7.17248 15.1656 7.61829 15.2305 8.07134C15.3505 8.90851 15.3505 9.7585 15.2305 10.5957C15.1656 11.0487 15.0541 11.4945 14.8643 12.2539L14.8514 12.3052L14.8236 12.4168L14.8236 12.4168C14.6702 13.0323 14.5506 13.5122 14.3186 13.9146C13.8903 14.6578 13.1895 15.205 12.3646 15.4403C11.918 15.5677 11.4234 15.5673 10.789 15.5669L10.6741 15.5668H5.32588L5.21095 15.5669C4.57665 15.5673 4.0821 15.5677 3.63547 15.4403C2.81055 15.205 2.10966 14.6578 1.68135 13.9146C1.44945 13.5122 1.32984 13.0323 1.17643 12.4168L1.1486 12.3053L1.13576 12.254C0.945904 11.4946 0.834444 11.0488 0.769536 10.5958C0.649578 9.75854 0.649583 8.90845 0.769551 8.0712C0.834464 7.61816 0.94593 7.17238 1.1358 6.41304L1.1358 6.41304L1.14864 6.36169L1.67253 4.26621L1.71388 4.10043C1.95384 3.13709 2.13655 2.4036 2.56183 1.83565C2.93486 1.33748 3.43398 0.947781 4.00776 0.706718C4.6619 0.431891 5.4178 0.432545 6.41058 0.433403ZM6.58144 2.2335C5.33654 2.2335 4.97998 2.25067 4.70497 2.36621C4.42628 2.48329 4.18385 2.67258 4.00266 2.91455C3.82386 3.15332 3.72073 3.49508 3.41878 4.7028L2.89489 6.79827C2.68858 7.62346 2.60159 7.97586 2.55135 8.3265C2.54625 8.36214 2.54141 8.39781 2.53685 8.4335H3.46785L3.55081 8.4334C3.90482 8.43279 4.2546 8.43218 4.58575 8.53275C4.87507 8.62061 5.14422 8.76466 5.37781 8.95665C5.64519 9.17641 5.8393 9.46868 6.03593 9.76473L6.08217 9.83427C6.35773 10.2476 6.39886 10.2927 6.43177 10.3198C6.48255 10.3615 6.54106 10.3928 6.60396 10.4119C6.64481 10.4243 6.70447 10.4335 7.19881 10.4335H8.80118C9.29552 10.4335 9.35518 10.4243 9.39603 10.4119C9.45892 10.3928 9.51744 10.3615 9.56822 10.3198C9.60113 10.2927 9.64225 10.2476 9.91782 9.83427L9.96406 9.76472L9.96407 9.76472C10.1607 9.46867 10.3548 9.1764 10.6222 8.95665C10.8558 8.76466 11.1249 8.62061 11.4142 8.53275C11.7454 8.43218 12.0952 8.43279 12.4492 8.4334L12.5321 8.4335H13.4632C13.4587 8.39784 13.4538 8.36221 13.4487 8.3266C13.3985 7.97595 13.3115 7.62352 13.1052 6.7983L12.5814 4.70287C12.2795 3.49512 12.1763 3.15335 11.9975 2.91457C11.8164 2.67259 11.5739 2.4833 11.2952 2.36621C11.0202 2.25067 10.6636 2.2335 9.41871 2.2335H6.58144ZM13.4632 10.2335H12.5321C12.0378 10.2335 11.9781 10.2427 11.9373 10.2551C11.8744 10.2742 11.8159 10.3055 11.7651 10.3472C11.7322 10.3743 11.6911 10.4194 11.4155 10.8327L11.3693 10.9023C11.1726 11.1983 10.9785 11.4906 10.7111 11.7104C10.4776 11.9023 10.2084 12.0464 9.91908 12.1343C9.58794 12.2348 9.23816 12.2342 8.88414 12.2336L8.80118 12.2335H7.19881L7.11584 12.2336C6.76183 12.2342 6.41205 12.2348 6.08091 12.1343C5.79159 12.0464 5.52244 11.9023 5.28885 11.7104C5.02146 11.4906 4.82735 11.1983 4.63073 10.9023L4.58448 10.8327C4.30892 10.4194 4.26779 10.3743 4.23488 10.3472C4.1841 10.3055 4.12559 10.2742 4.0627 10.2551C4.02184 10.2427 3.96219 10.2335 3.46785 10.2335H2.53684C2.5414 10.2692 2.54623 10.3049 2.55134 10.3405C2.60158 10.6912 2.68856 11.0436 2.89486 11.8687C3.08996 12.6491 3.15155 12.8607 3.24091 13.0158C3.4356 13.3536 3.75418 13.6024 4.12915 13.7093C4.30126 13.7584 4.52147 13.7668 5.32588 13.7668H10.6741C11.4786 13.7668 11.6988 13.7584 11.8709 13.7093C12.2459 13.6024 12.5644 13.3536 12.7591 13.0158C12.8485 12.8608 12.9101 12.6491 13.1052 11.8687C13.3115 11.0435 13.3985 10.691 13.4487 10.3404C13.4538 10.3048 13.4586 10.2692 13.4632 10.2335ZM6.0001 3.76683C5.50304 3.76683 5.1001 4.16978 5.1001 4.66683C5.1001 5.16389 5.50304 5.56683 6.0001 5.56683H10.0001C10.4972 5.56683 10.9001 5.16389 10.9001 4.66683C10.9001 4.16978 10.4972 3.76683 10.0001 3.76683H6.0001ZM6.66676 6.4335C6.16971 6.4335 5.76676 6.83644 5.76676 7.3335C5.76676 7.83056 6.16971 8.2335 6.66676 8.2335H9.33343C9.83049 8.2335 10.2334 7.83056 10.2334 7.3335C10.2334 6.83644 9.83049 6.4335 9.33343 6.4335H6.66676Z" fill="url(#paint0_linear_591_132)"/>
<defs>
<linearGradient id="paint0_linear_591_132" x1="8.00003" y1="15.4168" x2="8.00003" y2="1.45605" gradientUnits="userSpaceOnUse">
<stop stop-color="#18AEFA"/>
<stop offset="1" stop-color="#83E1FF"/>
</linearGradient>
</defs>
</svg>
