<svg width="16" height="16" viewBox="0 0 16 16" fill="none" xmlns="http://www.w3.org/2000/svg">
<path fill-rule="evenodd" clip-rule="evenodd" d="M2.2335 5.66683C2.2335 4.6717 2.51329 4.10901 2.86257 3.78468C3.22392 3.44914 3.80479 3.2335 4.66683 3.2335H11.3335C12.1955 3.2335 12.7764 3.44914 13.1378 3.78468C13.487 4.10901 13.7668 4.6717 13.7668 5.66683V10.3335C13.7668 11.3286 13.487 11.8913 13.1378 12.2156C12.7764 12.5512 12.1955 12.7668 11.3335 12.7668H4.66683C4.16977 12.7668 3.76683 13.1698 3.76683 13.6668C3.76683 14.1639 4.16977 14.5668 4.66683 14.5668H11.3335C12.4715 14.5668 13.5573 14.2825 14.3626 13.5347C15.18 12.7757 15.5668 11.6717 15.5668 10.3335V5.66683C15.5668 4.32862 15.18 3.22465 14.3626 2.46565C13.5573 1.71786 12.4715 1.4335 11.3335 1.4335H4.66683C3.52886 1.4335 2.44307 1.71786 1.63776 2.46565C0.820368 3.22465 0.433496 4.32862 0.433496 5.66683C0.433496 6.16389 0.83644 6.56683 1.3335 6.56683C1.83055 6.56683 2.2335 6.16389 2.2335 5.66683ZM11.8953 6.70322C12.2837 6.39301 12.3471 5.8267 12.0369 5.43832C11.7267 5.04995 11.1604 4.98657 10.772 5.29678L8.68643 6.96255L8.68601 6.96289C8.32761 7.2478 7.6671 7.24793 7.30844 6.96326L5.22977 5.29766C4.84187 4.98685 4.27546 5.04933 3.96465 5.43723C3.65384 5.82512 3.71632 6.39153 4.10422 6.70234L6.18421 8.36901L6.18421 8.36901L6.18643 8.37078C7.20117 9.17863 8.79281 9.17863 9.80754 8.37078L9.80867 8.36989L11.8953 6.70322ZM0.433496 11C0.433496 10.5029 0.83644 10.1 1.3335 10.1H5.3335C5.83055 10.1 6.2335 10.5029 6.2335 11C6.2335 11.4971 5.83055 11.9 5.3335 11.9H1.3335C0.83644 11.9 0.433496 11.4971 0.433496 11ZM1.3335 7.4335C0.83644 7.4335 0.433496 7.83644 0.433496 8.3335C0.433496 8.83055 0.83644 9.2335 1.3335 9.2335H3.3335C3.83055 9.2335 4.2335 8.83055 4.2335 8.3335C4.2335 7.83644 3.83055 7.4335 3.3335 7.4335H1.3335Z" fill="url(#paint0_linear_591_152)"/>
<defs>
<linearGradient id="paint0_linear_591_152" x1="0.583496" y1="8.00016" x2="15.4168" y2="8.00016" gradientUnits="userSpaceOnUse">
<stop stop-color="#FFC152"/>
<stop offset="1" stop-color="#FF5F5F"/>
</linearGradient>
</defs>
</svg>
