<svg width="16" height="16" viewBox="0 0 16 16" fill="none" xmlns="http://www.w3.org/2000/svg">
<path fill-rule="evenodd" clip-rule="evenodd" d="M8.11467 0.440921C8.28488 0.462677 8.45006 0.533054 8.58774 0.652051C8.6062 0.667979 8.62397 0.684618 8.64101 0.701917L9.96965 2.03056C10.3211 2.38203 10.3211 2.95188 9.96965 3.30335C9.76498 3.50802 9.48625 3.59351 9.21972 3.55981C9.06881 3.54072 8.89992 3.64211 8.89992 3.79421V6.00029C8.89992 6.49734 8.49698 6.90029 7.99992 6.90029C7.50287 6.90029 7.09992 6.49734 7.09992 6.00029V3.79421C7.09992 3.64211 6.93103 3.54072 6.78013 3.55981C6.51359 3.59351 6.23487 3.50802 6.03019 3.30335C5.67872 2.95188 5.67872 2.38203 6.03019 2.03056L7.36353 0.697224C7.52362 0.537133 7.72901 0.449962 7.93844 0.435709C7.99692 0.431694 8.05594 0.433375 8.11467 0.440921ZM2.44001 7.76695C2.32788 7.76695 2.23743 7.67461 2.24215 7.56258C2.2882 6.47107 2.51026 5.76284 2.84468 5.29952C3.19805 4.80994 3.77482 4.46094 4.79739 4.31073C5.28917 4.23849 5.62927 3.78127 5.55703 3.28949C5.48479 2.79771 5.02757 2.4576 4.53579 2.52984C3.19836 2.7263 2.10846 3.24396 1.38516 4.24605C0.685669 5.21516 0.433255 6.49775 0.433255 8.00029V8.49449C0.433255 8.50597 0.432212 8.51742 0.430464 8.52877C0.423523 8.57382 0.419922 8.61996 0.419922 8.66695C0.419922 8.71394 0.423523 8.76009 0.430464 8.80514C0.432212 8.81648 0.433255 8.82793 0.433255 8.83942V10.0003C0.433255 11.7557 0.77883 13.2187 1.78019 14.22C2.78155 15.2214 4.24449 15.567 5.99992 15.567H9.99992C11.7554 15.567 13.2183 15.2214 14.2197 14.22C15.221 13.2187 15.5666 11.7557 15.5666 10.0003V8.00029C15.5666 6.49775 15.3142 5.21516 14.6147 4.24605C13.8914 3.24396 12.8015 2.7263 11.4641 2.52984C10.9723 2.4576 10.515 2.79771 10.4428 3.28949C10.3706 3.78127 10.7107 4.23849 11.2025 4.31073C12.225 4.46094 12.8018 4.80994 13.1552 5.29952C13.4896 5.76284 13.7116 6.47107 13.7577 7.56258C13.7624 7.67461 13.672 7.76695 13.5598 7.76695H11.7466C11.1643 7.76695 10.6164 8.09487 10.3483 8.63113L9.56827 10.1911C9.49272 10.3422 9.34271 10.4336 9.17992 10.4336H6.82659C6.6638 10.4336 6.51379 10.3422 6.43824 10.1911L5.65824 8.63113C5.39239 8.09942 4.854 7.76695 4.25992 7.76695H2.44001ZM2.43326 9.56695C2.3228 9.56695 2.23326 9.6565 2.23326 9.76695V10.0003C2.23326 11.5782 2.55435 12.4486 3.05298 12.9472C3.55162 13.4459 4.42202 13.767 5.99992 13.767H9.99992C11.5778 13.767 12.4482 13.4459 12.9469 12.9472C13.4455 12.4486 13.7666 11.5782 13.7666 10.0003V9.76695C13.7666 9.6565 13.677 9.56695 13.5666 9.56695H12.0164C11.9407 9.56695 11.8714 9.60975 11.8375 9.67751L11.1782 10.9961C10.8005 11.7517 10.0305 12.2336 9.17992 12.2336H6.82659C5.97604 12.2336 5.20605 11.7517 4.82827 10.9961L4.16897 9.67751C4.13509 9.60975 4.06584 9.56695 3.99008 9.56695H2.43326Z" fill="url(#paint0_linear_591_146)"/>
<defs>
<linearGradient id="paint0_linear_591_146" x1="0.419922" y1="8.00027" x2="15.5666" y2="8.00027" gradientUnits="userSpaceOnUse">
<stop stop-color="#FFC152"/>
<stop offset="1" stop-color="#FF5F5F"/>
</linearGradient>
</defs>
</svg>
