<svg width="16" height="16" viewBox="0 0 16 16" fill="none" xmlns="http://www.w3.org/2000/svg">
<path d="M8.33574 1C6.65539 1 5.04388 1.24583 3.8557 1.68343C2.66752 2.121 2 2.71451 2 3.33334V12.6667C2 13.2855 2.66752 13.879 3.8557 14.3166C5.04388 14.7542 6.65539 15 8.33574 15C10.0161 15 11.6276 14.7542 12.8157 14.3166C14.004 13.879 14.6715 13.2855 14.6715 12.6667V3.33334C14.6715 2.71451 14.004 2.121 12.8157 1.68343C11.6276 1.24583 10.0161 1 8.33574 1ZM8.33574 2.16667C9.73602 2.16667 11.079 2.28959 12.0691 2.50837C13.0592 2.72717 13.6155 3.02392 13.6155 3.33334C13.6155 3.64277 13.0592 3.93951 12.0691 4.1583C11.079 4.37709 9.73602 4.50001 8.33574 4.50001C6.93546 4.50001 5.59252 4.37709 4.60238 4.1583C3.61221 3.93951 3.05596 3.64277 3.05596 3.33334C3.05596 3.02392 3.61221 2.72717 4.60238 2.50837C5.59252 2.28959 6.93546 2.16667 8.33574 2.16667ZM3.05596 4.61849C3.63245 4.94023 4.41638 5.20435 5.33771 5.38726C6.25904 5.57017 7.28907 5.66616 8.33574 5.66667C9.38185 5.66642 10.4115 5.57076 11.3328 5.38827C12.254 5.20576 13.0383 4.94208 13.6155 4.62078V8.00001C13.6155 8.30944 13.0592 8.60619 12.0691 8.82498C11.079 9.04377 9.73602 9.16669 8.33574 9.16669C6.93546 9.16669 5.59252 9.04377 4.60238 8.82498C3.61221 8.60619 3.05596 8.30944 3.05596 8.00001V4.61849ZM3.05596 9.28517C3.63245 9.60691 4.41638 9.87102 5.33771 10.0539C6.25904 10.2368 7.28907 10.3328 8.33574 10.3333C9.38185 10.3331 10.4115 10.2374 11.3328 10.0549C12.254 9.87244 13.0383 9.60876 13.6155 9.28746V12.6667C13.6155 12.9761 13.0592 13.2728 12.0691 13.4916C11.079 13.7104 9.73602 13.8333 8.33574 13.8333C6.93546 13.8333 5.59252 13.7104 4.60238 13.4916C3.61221 13.2728 3.05596 12.9761 3.05596 12.6667V9.28517Z" fill="url(#paint0_linear_448_633)" stroke="url(#paint1_linear_448_633)" stroke-width="0.4"/>
<defs>
<linearGradient id="paint0_linear_448_633" x1="2.00186" y1="7.79258" x2="14.6736" y2="7.79258" gradientUnits="userSpaceOnUse">
<stop stop-color="#A93AFF"/>
<stop offset="1" stop-color="#FF81FF"/>
</linearGradient>
<linearGradient id="paint1_linear_448_633" x1="2.00186" y1="7.79258" x2="14.6736" y2="7.79258" gradientUnits="userSpaceOnUse">
<stop stop-color="#A93AFF"/>
<stop offset="1" stop-color="#FF81FF"/>
</linearGradient>
</defs>
</svg>
