<svg width="16" height="16" viewBox="0 0 16 16" fill="none" xmlns="http://www.w3.org/2000/svg">
<path fill-rule="evenodd" clip-rule="evenodd" d="M3.97291 0.433106H12.0266C12.3142 0.433092 12.5736 0.433079 12.7906 0.447882C13.0223 0.463695 13.2706 0.499367 13.5211 0.60311C14.0683 0.829779 14.5031 1.26455 14.7298 1.81178C14.8335 2.06224 14.8692 2.31054 14.885 2.5423C14.8998 2.75925 14.8998 3.01865 14.8998 3.30625V3.35997C14.8998 3.64757 14.8998 3.90696 14.885 4.12391C14.8692 4.35568 14.8335 4.60398 14.7298 4.85443C14.5031 5.40166 14.0683 5.83644 13.5211 6.06311C13.2706 6.16685 13.0223 6.20252 12.7906 6.21833C12.5736 6.23313 12.3142 6.23312 12.0266 6.23311L9.37977 6.23311C9.21176 6.23311 9.12775 6.23311 9.06357 6.26581C9.00713 6.29457 8.96123 6.34046 8.93247 6.39691C8.89977 6.46108 8.89977 6.54509 8.89977 6.71311V7.28644C8.89977 7.45446 8.89977 7.53846 8.93247 7.60264C8.96123 7.65909 9.00713 7.70498 9.06357 7.73374C9.12775 7.76644 9.21176 7.76644 9.37977 7.76644L10.1685 7.76644C10.6984 7.76643 11.1496 7.76641 11.52 7.79668C11.9092 7.82847 12.2877 7.89811 12.6497 8.08252C13.1953 8.36055 13.639 8.8042 13.917 9.34987C14.1014 9.7118 14.1711 10.0904 14.2029 10.4796C14.2153 10.6319 14.2226 10.798 14.227 10.9776C14.2297 11.0901 14.231 11.1464 14.2452 11.1891C14.2598 11.2329 14.2737 11.2571 14.3041 11.2918C14.3338 11.3257 14.3912 11.3612 14.5062 11.4323C15.1425 11.8258 15.5664 12.53 15.5664 13.3331C15.5664 14.5665 14.5665 15.5664 13.3331 15.5664C12.0997 15.5664 11.0998 14.5665 11.0998 13.3331C11.0998 12.533 11.5205 11.8312 12.1528 11.4368C12.2699 11.3637 12.3285 11.3272 12.3589 11.2911C12.3891 11.2554 12.4044 11.2268 12.4176 11.1819C12.4308 11.1366 12.4293 11.0823 12.4263 10.9736C12.4227 10.8432 12.4173 10.729 12.4088 10.6261C12.3861 10.3483 12.3468 10.2329 12.3132 10.1671C12.2078 9.96007 12.0395 9.79179 11.8325 9.68633C11.7666 9.65276 11.6513 9.6134 11.3734 9.5907C11.0851 9.56714 10.708 9.56644 10.1331 9.56644H9.37977C9.21176 9.56644 9.12775 9.56644 9.06357 9.59914C9.00713 9.6279 8.96123 9.67379 8.93247 9.73024C8.89977 9.79442 8.89977 9.87842 8.89977 10.0464V10.9756C8.89977 11.0865 8.89977 11.1419 8.91357 11.1858C8.9275 11.2301 8.94209 11.2564 8.97237 11.2916C9.0024 11.3264 9.06038 11.3625 9.17636 11.4345C9.81072 11.8284 10.2331 12.5314 10.2331 13.3331C10.2331 14.5665 9.23321 15.5664 7.99977 15.5664C6.76634 15.5664 5.76644 14.5665 5.76644 13.3331C5.76644 12.5314 6.18882 11.8284 6.82318 11.4345C6.93916 11.3625 6.99715 11.3264 7.02717 11.2916C7.05746 11.2564 7.07205 11.2301 7.08597 11.1858C7.09977 11.1419 7.09977 11.0865 7.09977 10.9756V10.0464C7.09977 9.87842 7.09977 9.79442 7.06707 9.73024C7.03831 9.67379 6.99242 9.6279 6.93597 9.59914C6.8718 9.56644 6.78779 9.56644 6.61977 9.56644H5.86644C5.29154 9.56644 4.91449 9.56714 4.62613 9.5907C4.34828 9.6134 4.23294 9.65276 4.16705 9.68633C3.96007 9.79179 3.79179 9.96007 3.68633 10.1671C3.65276 10.2329 3.6134 10.3483 3.5907 10.6261C3.58229 10.729 3.5768 10.8432 3.57321 10.9736C3.57021 11.0823 3.56871 11.1366 3.58197 11.1819C3.5951 11.2268 3.61048 11.2554 3.64063 11.2911C3.67108 11.3272 3.72962 11.3637 3.84672 11.4368C4.47902 11.8312 4.89977 12.533 4.89977 13.3331C4.89977 14.5665 3.89987 15.5664 2.66644 15.5664C1.433 15.5664 0.433105 14.5665 0.433105 13.3331C0.433105 12.53 0.857051 11.8258 1.49337 11.4323C1.60831 11.3612 1.66578 11.3257 1.69543 11.2918C1.72581 11.2571 1.73971 11.2329 1.7543 11.1891C1.76854 11.1464 1.76989 11.0901 1.77259 10.9776C1.7769 10.798 1.78423 10.6319 1.79668 10.4796C1.82847 10.0904 1.89811 9.7118 2.08252 9.34987C2.36055 8.8042 2.8042 8.36055 3.34987 8.08252C3.7118 7.89811 4.09039 7.82847 4.47955 7.79668C4.84999 7.76641 5.30117 7.76643 5.83103 7.76644L6.61977 7.76644C6.78779 7.76644 6.8718 7.76644 6.93597 7.73374C6.99242 7.70498 7.03831 7.65909 7.06707 7.60264C7.09977 7.53846 7.09977 7.45446 7.09977 7.28644V6.71311C7.09977 6.54509 7.09977 6.46108 7.06707 6.39691C7.03831 6.34046 6.99242 6.29457 6.93597 6.26581C6.8718 6.23311 6.78779 6.23311 6.61977 6.23311L3.97291 6.23311C3.68531 6.23312 3.42592 6.23313 3.20897 6.21833C2.9772 6.20252 2.7289 6.16685 2.47845 6.06311C1.93122 5.83643 1.49644 5.40166 1.26977 4.85443C1.16603 4.60398 1.13036 4.35568 1.11455 4.12391C1.09974 3.90696 1.09976 3.64757 1.09977 3.35997C1.09977 3.35104 1.09977 3.34209 1.09977 3.33311C1.09977 3.32413 1.09977 3.31517 1.09977 3.30624C1.09976 3.01865 1.09974 2.75925 1.11455 2.5423C1.13036 2.31054 1.16603 2.06224 1.26977 1.81178C1.49644 1.26455 1.93122 0.829779 2.47845 0.60311C2.7289 0.499367 2.9772 0.463695 3.20897 0.447882C3.42591 0.433079 3.68531 0.433092 3.97291 0.433106ZM11.9998 4.43311C12.3227 4.43311 12.5198 4.43262 12.668 4.42251C12.7885 4.41429 12.8272 4.402 12.8323 4.40014C12.8331 4.39983 12.833 4.39982 12.8323 4.40014C12.9385 4.35616 13.0228 4.27178 13.0668 4.1656C13.0665 4.16637 13.0665 4.16643 13.0668 4.1656C13.0687 4.16054 13.081 4.12181 13.0892 4.00138C13.0993 3.85318 13.0998 3.65605 13.0998 3.33311C13.0998 3.01017 13.0993 2.81303 13.0892 2.66483C13.081 2.54441 13.0687 2.50567 13.0668 2.5006C13.0665 2.49979 13.0665 2.49988 13.0668 2.5006C13.0228 2.39447 12.9385 2.31011 12.8323 2.26612C12.833 2.26641 12.8331 2.26642 12.8323 2.26612C12.8273 2.26426 12.7885 2.25192 12.668 2.24371C12.5198 2.23359 12.3227 2.23311 11.9998 2.23311H3.99977C3.67683 2.23311 3.4797 2.23359 3.3315 2.24371C3.21107 2.25192 3.17234 2.26421 3.16727 2.26608C3.16647 2.26637 3.16658 2.26636 3.16727 2.26608C3.06114 2.31006 2.97675 2.39444 2.93277 2.50057C2.93307 2.49985 2.93307 2.49976 2.93277 2.50057C2.93091 2.50564 2.91859 2.54441 2.91037 2.66483C2.90026 2.81303 2.89977 3.01017 2.89977 3.33311C2.89977 3.65605 2.90026 3.85318 2.91037 4.00138C2.91859 4.12181 2.93088 4.16054 2.93274 4.16561C2.93305 4.16644 2.93306 4.16637 2.93274 4.16561C2.97672 4.27179 3.0611 4.35614 3.16728 4.40012C3.16651 4.39981 3.16645 4.39982 3.16728 4.40012C3.17234 4.40199 3.21107 4.41429 3.3315 4.42251C3.4797 4.43262 3.67683 4.43311 3.99977 4.43311H11.9998ZM2.66644 12.8998C2.42712 12.8998 2.23311 13.0938 2.23311 13.3331C2.23311 13.5724 2.42712 13.7664 2.66644 13.7664C2.90576 13.7664 3.09977 13.5724 3.09977 13.3331C3.09977 13.0938 2.90576 12.8998 2.66644 12.8998ZM7.99977 12.8998C7.76045 12.8998 7.56644 13.0938 7.56644 13.3331C7.56644 13.5724 7.76045 13.7664 7.99977 13.7664C8.2391 13.7664 8.43311 13.5724 8.43311 13.3331C8.43311 13.0938 8.2391 12.8998 7.99977 12.8998ZM13.3331 12.8998C13.0938 12.8998 12.8998 13.0938 12.8998 13.3331C12.8998 13.5724 13.0938 13.7664 13.3331 13.7664C13.5724 13.7664 13.7664 13.5724 13.7664 13.3331C13.7664 13.0938 13.5724 12.8998 13.3331 12.8998Z" fill="url(#paint0_linear_592_82)"/>
<defs>
<linearGradient id="paint0_linear_592_82" x1="7.99977" y1="15.5664" x2="7.99977" y2="1.3233" gradientUnits="userSpaceOnUse">
<stop stop-color="#18AEFA"/>
<stop offset="1" stop-color="#83E1FF"/>
</linearGradient>
</defs>
</svg>
