<svg width="16" height="16" viewBox="0 0 16 16" fill="none" xmlns="http://www.w3.org/2000/svg">
<g clip-path="url(#clip0_590_78)">
<path fill-rule="evenodd" clip-rule="evenodd" d="M8.50181 2.30099C8.15006 2.20367 7.77849 2.20367 7.42675 2.30099C7.26989 2.34438 7.08852 2.42977 6.80161 2.62671C6.50569 2.82982 6.14888 3.11458 5.62542 3.53335L3.83341 4.96697C3.1608 5.50505 2.95593 5.67826 2.81201 5.8768C2.67026 6.07234 2.56481 6.29175 2.50067 6.52459C2.43554 6.761 2.42826 7.02919 2.42826 7.89054V12.3959C2.42826 12.7206 2.43013 12.7992 2.4373 12.8537C2.49968 13.3276 2.87256 13.7004 3.34643 13.7628C3.4009 13.7699 3.47957 13.7719 3.80427 13.7719H4.39855C4.83028 13.7719 5.18028 13.4218 5.18028 12.9901V10.7957C5.18028 9.25823 6.42671 8.01179 7.96427 8.01179C9.50184 8.01179 10.7483 9.25823 10.7483 10.7957V13.3066C10.7483 13.5635 10.9566 13.7719 11.2136 13.7719H11.8043C12.4551 13.7719 12.611 13.7645 12.7176 13.7359C13.082 13.6382 13.3667 13.3536 13.4643 12.9892C13.4929 12.8826 13.5003 12.7266 13.5003 12.0758V7.89054C13.5003 7.02919 13.493 6.761 13.4279 6.52459C13.3638 6.29175 13.2583 6.07234 13.1166 5.8768C12.9727 5.67826 12.7677 5.50505 12.0951 4.96697L10.3031 3.53335C9.77968 3.11458 9.42286 2.82982 9.12695 2.62671C8.84004 2.42977 8.65866 2.34438 8.50181 2.30099ZM6.96601 0.635539C7.61925 0.45482 8.30931 0.45482 8.96255 0.635539C9.37537 0.749744 9.73567 0.948626 10.1049 1.20203C10.4592 1.44522 10.8653 1.7701 11.358 2.16432L11.3826 2.18401L13.1747 3.61761C13.2028 3.64016 13.2306 3.66239 13.2581 3.68432C13.8125 4.12747 14.2172 4.45091 14.5156 4.86261C14.7788 5.22575 14.9748 5.63324 15.0938 6.06564C15.2289 6.55588 15.2287 7.07392 15.2283 7.78372C15.2283 7.81885 15.2283 7.85445 15.2283 7.89054V12.0758C15.2283 12.1105 15.2283 12.1446 15.2284 12.1783C15.2288 12.6715 15.2292 13.0791 15.1335 13.4364C14.876 14.3971 14.1255 15.1475 13.1649 15.405C12.8076 15.5007 12.3999 15.5003 11.9068 15.5C11.8731 15.4999 11.8389 15.4999 11.8043 15.4999H11.2136C10.0022 15.4999 9.02028 14.5179 9.02028 13.3066V10.7957C9.02028 10.2125 8.5475 9.73979 7.96427 9.73979C7.38106 9.73979 6.90828 10.2125 6.90828 10.7957V12.9901C6.90828 14.3762 5.78463 15.4999 4.39855 15.4999H3.80427C3.78697 15.4999 3.76988 15.4999 3.75299 15.4999C3.50656 15.5 3.30343 15.5 3.12088 15.476C1.8716 15.3116 0.888546 14.3285 0.724076 13.0792C0.700041 12.8966 0.700132 12.6936 0.700243 12.4471C0.70025 12.4302 0.700258 12.4132 0.700258 12.3959V7.89054C0.700258 7.85445 0.700242 7.81885 0.700226 7.78372C0.699903 7.07392 0.699668 6.55588 0.834721 6.06564C0.953842 5.63324 1.14969 5.22575 1.41293 4.86261C1.71137 4.45091 2.11604 4.12747 2.6705 3.68432C2.69794 3.66239 2.72575 3.64016 2.75394 3.61761L4.54594 2.18401L4.57054 2.16433C5.06332 1.7701 5.4694 1.44522 5.82371 1.20203C6.19289 0.948626 6.55319 0.749744 6.96601 0.635539Z" fill="url(#paint0_linear_590_78)"/>
</g>
<defs>
<linearGradient id="paint0_linear_590_78" x1="0.700195" y1="7.99998" x2="15.2284" y2="7.99998" gradientUnits="userSpaceOnUse">
<stop stop-color="#CDF97D"/>
<stop offset="1" stop-color="#A2EA99"/>
</linearGradient>
<clipPath id="clip0_590_78">
<rect width="16" height="16" fill="white"/>
</clipPath>
</defs>
</svg>
