<svg width="23" height="22" viewBox="0 0 23 22" fill="none" xmlns="http://www.w3.org/2000/svg">
<path d="M15.7921 4.53588H14.0398V1.61536C14.0398 1.29277 13.7783 1.03125 13.4557 1.03125C13.1331 1.03125 12.8716 1.29277 12.8716 1.61536V4.53588H9.36694V1.61536C9.36694 1.29277 9.10541 1.03125 8.78284 1.03125C8.46025 1.03125 8.19874 1.29277 8.19874 1.61536V4.53588H6.4464C6.12383 4.53588 5.8623 4.79741 5.8623 5.12V9.09102C5.8623 10.4579 6.47445 11.7315 7.54176 12.5854C8.3305 13.2164 8.78284 14.1575 8.78284 15.1675V15.6339C8.78284 15.9565 9.04436 16.218 9.36694 16.218H10.5352V20.3847C10.5352 20.7072 10.7967 20.9688 11.1193 20.9688C11.4418 20.9688 11.7034 20.7072 11.7034 20.3847V16.218H12.8716C13.1942 16.218 13.4557 15.9565 13.4557 15.6339V15.1675C13.4557 14.1575 13.908 13.2163 14.6967 12.5853C15.7641 11.7315 16.3762 10.4578 16.3762 9.09098V5.12C16.3762 4.79741 16.1147 4.53588 15.7921 4.53588ZM15.208 9.09102C15.208 10.1011 14.7557 11.0422 13.967 11.6732C12.9303 12.5025 12.323 13.7277 12.289 15.0498H9.94953C9.91546 13.7277 9.30823 12.5025 8.27158 11.6732C7.48285 11.0422 7.03052 10.101 7.03052 9.09102V5.7041H15.208V9.09102ZM9.95106 9.79285H11.196L10.6332 10.6371C10.4543 10.9055 10.5269 11.2681 10.7953 11.4471C11.0625 11.6252 11.4255 11.5546 11.6053 11.285L12.7735 9.53272C12.893 9.35349 12.9041 9.12304 12.8025 8.93312C12.7008 8.74321 12.5029 8.62464 12.2875 8.62464H11.0425L11.6053 7.7804C11.7842 7.51199 11.7117 7.14933 11.4432 6.97041C11.1749 6.79152 10.8122 6.86402 10.6332 7.13243L9.46503 8.88475C9.34556 9.064 9.33442 9.29445 9.43607 9.48435C9.5377 9.67428 9.73563 9.79285 9.95106 9.79285Z" fill="url(#paint0_linear_451_1183)" stroke="url(#paint1_linear_451_1183)" stroke-width="0.6"/>
<defs>
<linearGradient id="paint0_linear_451_1183" x1="11.1193" y1="20.9688" x2="11.1193" y2="1.03125" gradientUnits="userSpaceOnUse">
<stop stop-color="#5558FF"/>
<stop offset="1" stop-color="#00C0FF"/>
</linearGradient>
<linearGradient id="paint1_linear_451_1183" x1="11.1193" y1="20.9688" x2="11.1193" y2="1.03125" gradientUnits="userSpaceOnUse">
<stop stop-color="#5558FF"/>
<stop offset="1" stop-color="#00C0FF"/>
</linearGradient>
</defs>
</svg>
