<svg width="23" height="22" viewBox="0 0 23 22" fill="none" xmlns="http://www.w3.org/2000/svg">
<path d="M15.9835 4.53588H14.2312V1.61536C14.2312 1.29277 13.9697 1.03125 13.6471 1.03125C13.3245 1.03125 13.063 1.29277 13.063 1.61536V4.53588H9.55835V1.61536C9.55835 1.29277 9.29682 1.03125 8.97425 1.03125C8.65165 1.03125 8.39015 1.29277 8.39015 1.61536V4.53588H6.63781C6.31524 4.53588 6.05371 4.79741 6.05371 5.12V9.09102C6.05371 10.4579 6.66586 11.7315 7.73317 12.5854C8.5219 13.2164 8.97425 14.1575 8.97425 15.1675V15.6339C8.97425 15.9565 9.23577 16.218 9.55835 16.218H10.7266V20.3847C10.7266 20.7072 10.9881 20.9688 11.3107 20.9688C11.6333 20.9688 11.8948 20.7072 11.8948 20.3847V16.218H13.063C13.3856 16.218 13.6471 15.9565 13.6471 15.6339V15.1675C13.6471 14.1575 14.0994 13.2163 14.8881 12.5853C15.9555 11.7315 16.5676 10.4578 16.5676 9.09098V5.12C16.5676 4.79741 16.3061 4.53588 15.9835 4.53588ZM15.3994 9.09102C15.3994 10.1011 14.9471 11.0422 14.1584 11.6732C13.1217 12.5025 12.5144 13.7277 12.4804 15.0498H10.1409C10.1069 13.7277 9.49963 12.5025 8.46299 11.6732C7.67425 11.0422 7.22193 10.101 7.22193 9.09102V5.7041H15.3994V9.09102ZM10.1425 9.79285H11.3875L10.8247 10.6371C10.6457 10.9055 10.7183 11.2681 10.9867 11.4471C11.2539 11.6252 11.6169 11.5546 11.7967 11.285L12.9649 9.53272C13.0844 9.35349 13.0955 9.12304 12.9939 8.93312C12.8922 8.74321 12.6943 8.62464 12.4789 8.62464H11.2339L11.7967 7.7804C11.9756 7.51199 11.9031 7.14933 11.6346 6.97041C11.3663 6.79152 11.0036 6.86402 10.8247 7.13243L9.65643 8.88475C9.53696 9.064 9.52583 9.29445 9.62747 9.48435C9.7291 9.67428 9.92703 9.79285 10.1425 9.79285Z" fill="url(#paint0_linear_451_1185)" stroke="url(#paint1_linear_451_1185)" stroke-width="0.6"/>
<defs>
<linearGradient id="paint0_linear_451_1185" x1="11.3107" y1="20.9688" x2="11.3107" y2="1.03125" gradientUnits="userSpaceOnUse">
<stop stop-color="#5558FF"/>
<stop offset="1" stop-color="#00C0FF"/>
</linearGradient>
<linearGradient id="paint1_linear_451_1185" x1="11.3107" y1="20.9688" x2="11.3107" y2="1.03125" gradientUnits="userSpaceOnUse">
<stop stop-color="#5558FF"/>
<stop offset="1" stop-color="#00C0FF"/>
</linearGradient>
</defs>
</svg>
