<svg width="23" height="22" viewBox="0 0 23 22" fill="none" xmlns="http://www.w3.org/2000/svg">
<path d="M16.1739 4.53588H14.4216V1.61536C14.4216 1.29277 14.1601 1.03125 13.8375 1.03125C13.5149 1.03125 13.2534 1.29277 13.2534 1.61536V4.53588H9.74877V1.61536C9.74877 1.29277 9.48725 1.03125 9.16467 1.03125C8.84208 1.03125 8.58057 1.29277 8.58057 1.61536V4.53588H6.82824C6.50567 4.53588 6.24414 4.79741 6.24414 5.12V9.09102C6.24414 10.4579 6.85629 11.7315 7.9236 12.5854C8.71233 13.2164 9.16467 14.1575 9.16467 15.1675V15.6339C9.16467 15.9565 9.4262 16.218 9.74877 16.218H10.917V20.3847C10.917 20.7072 11.1785 20.9688 11.5011 20.9688C11.8237 20.9688 12.0852 20.7072 12.0852 20.3847V16.218H13.2534C13.576 16.218 13.8375 15.9565 13.8375 15.6339V15.1675C13.8375 14.1575 14.2899 13.2163 15.0786 12.5853C16.1459 11.7315 16.7581 10.4578 16.7581 9.09098V5.12C16.7581 4.79741 16.4965 4.53588 16.1739 4.53588ZM15.5898 9.09102C15.5898 10.1011 15.1375 11.0422 14.3488 11.6732C13.3121 12.5025 12.7049 13.7277 12.6708 15.0498H10.3314C10.2973 13.7277 9.69006 12.5025 8.65342 11.6732C7.86468 11.0422 7.41236 10.101 7.41236 9.09102V5.7041H15.5898V9.09102ZM10.3329 9.79285H11.5779L11.0151 10.6371C10.8362 10.9055 10.9087 11.2681 11.1771 11.4471C11.4444 11.6252 11.8074 11.5546 11.9871 11.285L13.1553 9.53272C13.2748 9.35349 13.2859 9.12304 13.1843 8.93312C13.0827 8.74321 12.8847 8.62464 12.6693 8.62464H11.4243L11.9871 7.7804C12.166 7.51199 12.0935 7.14933 11.8251 6.97041C11.5567 6.79152 11.1941 6.86402 11.0151 7.13243L9.84686 8.88475C9.72739 9.064 9.71626 9.29445 9.8179 9.48435C9.91953 9.67428 10.1175 9.79285 10.3329 9.79285Z" fill="url(#paint0_linear_451_1187)" stroke="url(#paint1_linear_451_1187)" stroke-width="0.6"/>
<defs>
<linearGradient id="paint0_linear_451_1187" x1="11.5011" y1="20.9688" x2="11.5011" y2="1.03125" gradientUnits="userSpaceOnUse">
<stop stop-color="#5558FF"/>
<stop offset="1" stop-color="#00C0FF"/>
</linearGradient>
<linearGradient id="paint1_linear_451_1187" x1="11.5011" y1="20.9688" x2="11.5011" y2="1.03125" gradientUnits="userSpaceOnUse">
<stop stop-color="#5558FF"/>
<stop offset="1" stop-color="#00C0FF"/>
</linearGradient>
</defs>
</svg>
