<svg width="23" height="22" viewBox="0 0 23 22" fill="none" xmlns="http://www.w3.org/2000/svg">
<path d="M18.128 12.0903V10.9624C18.128 10.6509 17.8754 10.3984 17.564 10.3984H15.8721V4.19482C15.8721 2.63997 14.6071 1.375 13.0522 1.375H10.7964C9.24153 1.375 7.97656 2.63997 7.97656 4.19482V10.3984H6.28466C5.9732 10.3984 5.7207 10.6509 5.7207 10.9624V12.0903C5.7207 14.6984 7.69811 16.853 10.2324 17.1345V19.4972H7.41261C7.10113 19.4972 6.84863 19.7496 6.84863 20.0611C6.84863 20.3725 7.10113 20.625 7.41261 20.625H16.436C16.7475 20.625 17 20.3725 17 20.0611C17 19.7496 16.7475 19.4972 16.436 19.4972H13.6162V17.1345C16.1505 16.853 18.128 14.6984 18.128 12.0903ZM9.10449 4.19482C9.10449 3.26191 9.86348 2.50293 10.7964 2.50293H13.0522C13.9852 2.50293 14.7441 3.26191 14.7441 4.19482V10.3984H9.10449V4.19482ZM9.10449 11.5264H14.7441V12.0903C14.7441 13.0232 13.9852 13.7822 13.0522 13.7822H10.7964C9.86348 13.7822 9.10449 13.0232 9.10449 12.0903V11.5264ZM12.4883 19.4972H11.3604V17.166H12.4883V19.4972ZM13.0522 16.0381H10.7964C8.6196 16.0381 6.84863 14.2671 6.84863 12.0903V11.5264H7.97656V12.0903C7.97656 13.6452 9.24153 14.9102 10.7964 14.9102H13.0522C14.6071 14.9102 15.8721 13.6452 15.8721 12.0903V11.5264H17V12.0903C17 14.2671 15.229 16.0381 13.0522 16.0381ZM10.7964 3.63086C10.4849 3.63086 10.2324 3.88336 10.2324 4.19482C10.2324 4.50629 10.4849 4.75879 10.7964 4.75879C11.1079 4.75879 11.3604 4.50629 11.3604 4.19482C11.3604 3.88336 11.1079 3.63086 10.7964 3.63086ZM10.7964 8.14258C10.4849 8.14258 10.2324 8.39508 10.2324 8.70653C10.2324 9.01801 10.4849 9.27051 10.7964 9.27051C11.1079 9.27051 11.3604 9.01801 11.3604 8.70653C11.3604 8.39508 11.1079 8.14258 10.7964 8.14258ZM10.7964 5.88672C10.4849 5.88672 10.2324 6.13922 10.2324 6.45068C10.2324 6.76215 10.4849 7.01465 10.7964 7.01465C11.1079 7.01465 11.3604 6.76215 11.3604 6.45068C11.3604 6.13922 11.1079 5.88672 10.7964 5.88672ZM13.0522 3.63086C12.7408 3.63086 12.4883 3.88336 12.4883 4.19482C12.4883 4.50629 12.7408 4.75879 13.0522 4.75879C13.3637 4.75879 13.6162 4.50629 13.6162 4.19482C13.6162 3.88336 13.3637 3.63086 13.0522 3.63086ZM13.0522 5.88672C12.7408 5.88672 12.4883 6.13922 12.4883 6.45068C12.4883 6.76215 12.7408 7.01465 13.0522 7.01465C13.3637 7.01465 13.6162 6.76215 13.6162 6.45068C13.6162 6.13922 13.3637 5.88672 13.0522 5.88672ZM13.0522 8.14258C12.7408 8.14258 12.4883 8.39508 12.4883 8.70653C12.4883 9.01801 12.7408 9.27051 13.0522 9.27051C13.3637 9.27051 13.6162 9.01801 13.6162 8.70653C13.6162 8.39508 13.3637 8.14258 13.0522 8.14258Z" fill="url(#paint0_linear_451_1207)"/>
<defs>
<linearGradient id="paint0_linear_451_1207" x1="10.4473" y1="13.9219" x2="12.252" y2="9.36719" gradientUnits="userSpaceOnUse">
<stop stop-color="#FD3D00"/>
<stop offset="1" stop-color="#FFE600"/>
</linearGradient>
</defs>
</svg>
