<svg width="23" height="22" viewBox="0 0 23 22" fill="none" xmlns="http://www.w3.org/2000/svg">
<path d="M8.27285 16.952L7.82905 17.3958C7.60094 17.6239 7.60094 17.9938 7.82905 18.2218C8.05711 18.4501 8.42697 18.4501 8.65508 18.2218L9.09888 17.7781C9.78171 18.2897 10.6292 18.5934 11.5463 18.5934C12.4633 18.5934 13.3108 18.2897 13.9936 17.7781L14.4374 18.2218C14.6655 18.4501 15.0353 18.4501 15.2635 18.2218C15.4916 17.9938 15.4916 17.6239 15.2635 17.3958L14.8197 16.952C15.3315 16.2692 15.635 15.4217 15.635 14.5046C15.635 13.5875 15.3315 12.7401 14.8197 12.0572L15.2635 11.6134C15.4916 11.3853 15.4916 11.0155 15.2635 10.7874C15.0354 10.5593 14.6656 10.5593 14.4374 10.7874L13.9936 11.2312C13.3108 10.7194 12.4633 10.4159 11.5463 10.4159C10.6292 10.4159 9.78171 10.7194 9.09888 11.2312L8.65508 10.7874C8.42706 10.5593 8.05722 10.5593 7.82905 10.7874C7.60094 11.0155 7.60094 11.3854 7.82905 11.6135L8.27285 12.0573C7.76103 12.7401 7.45753 13.5875 7.45753 14.5046C7.45753 15.4217 7.76103 16.2692 8.27285 16.952ZM11.5463 11.5841C13.1566 11.5841 14.4668 12.8943 14.4668 14.5046C14.4668 16.115 13.1566 17.4252 11.5463 17.4252C9.93588 17.4252 8.62573 16.115 8.62573 14.5046C8.62573 12.8943 9.93588 11.5841 11.5463 11.5841ZM11.5463 16.257C12.5125 16.257 13.2986 15.4709 13.2986 14.5046C13.2986 13.5384 12.5125 12.7523 11.5463 12.7523C10.58 12.7523 9.79396 13.5384 9.79396 14.5046C9.79396 15.4709 10.58 16.257 11.5463 16.257ZM11.5463 13.9205C11.8683 13.9205 12.1304 14.1826 12.1304 14.5046C12.1304 14.8267 11.8683 15.0888 11.5463 15.0888C11.2242 15.0888 10.9622 14.8267 10.9622 14.5046C10.9622 14.1826 11.2242 13.9205 11.5463 13.9205ZM11.5463 6.91125C11.8689 6.91125 12.1304 6.64972 12.1304 6.32713C12.1304 6.00457 11.8689 5.74305 11.5463 5.74305C11.2237 5.74305 10.9622 6.00457 10.9622 6.32713C10.9622 6.64972 11.2237 6.91125 11.5463 6.91125ZM8.65508 9.21836C8.88316 9.44644 9.25302 9.44647 9.48115 9.21836L9.93691 8.7626C10.3987 9.0688 10.9519 9.24768 11.5463 9.24768C12.1407 9.24768 12.6938 9.0688 13.1557 8.76257L13.6114 9.21833C13.8395 9.44644 14.2093 9.44644 14.4375 9.21833C14.6656 8.99021 14.6656 8.62039 14.4375 8.39226L13.9817 7.93652C14.2879 7.47472 14.4668 6.92154 14.4668 6.32713C14.4668 5.73275 14.2879 5.17957 13.9817 4.71778L14.4374 4.26204C14.6656 4.03391 14.6656 3.66408 14.4374 3.43597C14.2094 3.20789 13.8395 3.20786 13.6114 3.43597L13.1557 3.89173C12.6938 3.5855 12.1407 3.40661 11.5463 3.40661C10.9519 3.40661 10.3987 3.5855 9.93686 3.89173L9.4811 3.43597C9.25307 3.20789 8.88321 3.20786 8.65505 3.43597C8.42694 3.66408 8.42694 4.03391 8.65505 4.26204L9.11081 4.71778C8.80462 5.17957 8.62573 5.73275 8.62573 6.32713C8.62573 6.92154 8.80462 7.47472 9.11085 7.93652L8.65508 8.39226C8.42697 8.62039 8.42697 8.99025 8.65508 9.21836ZM11.5463 4.57481C12.5125 4.57481 13.2986 5.36092 13.2986 6.32713C13.2986 7.29338 12.5125 8.07948 11.5463 8.07948C10.58 8.07948 9.79396 7.29338 9.79396 6.32713C9.79396 5.36092 10.58 4.57481 11.5463 4.57481ZM17.3873 1.03125H5.70521C5.38262 1.03125 5.12109 1.29277 5.12109 1.61536V20.3847C5.12109 20.7073 5.38262 20.9688 5.70521 20.9688H17.3873C17.7099 20.9688 17.9715 20.7073 17.9715 20.3847V1.61536C17.9715 1.29277 17.7099 1.03125 17.3873 1.03125ZM16.8032 19.8005H6.28929V2.19945H16.8032V19.8005Z" fill="url(#paint0_linear_451_1213)" stroke="url(#paint1_linear_451_1213)" stroke-width="0.6"/>
<defs>
<linearGradient id="paint0_linear_451_1213" x1="11.5463" y1="20.9688" x2="11.5463" y2="1.03125" gradientUnits="userSpaceOnUse">
<stop stop-color="#6C00BF"/>
<stop offset="1" stop-color="#FF00FF"/>
</linearGradient>
<linearGradient id="paint1_linear_451_1213" x1="11.5463" y1="20.9688" x2="11.5463" y2="1.03125" gradientUnits="userSpaceOnUse">
<stop stop-color="#6C00BF"/>
<stop offset="1" stop-color="#FF00FF"/>
</linearGradient>
</defs>
</svg>
