<svg width="22" height="22" viewBox="0 0 22 22" fill="none" xmlns="http://www.w3.org/2000/svg">
<g clip-path="url(#clip0_451_1189)">
<path d="M20.4141 4.55469H4.51562V1.58594C4.51562 1.2623 4.25333 1 3.92969 1H1.58594C1.2623 1 1 1.2623 1 1.58594C1 1.90958 1.2623 2.17188 1.58594 2.17188H3.34375V20.4141C3.34375 20.7377 3.60605 21 3.92969 21C4.25333 21 4.51562 20.7377 4.51562 20.4141V17.4453H6.3125C6.46797 17.4453 6.61691 17.3835 6.72676 17.2736L7.72715 16.2734H9.58535L10.5857 17.2736C10.6956 17.3835 10.8445 17.4453 11 17.4453H20.4141C20.7377 17.4453 21 17.183 21 16.8594V5.14062C21 4.81698 20.7377 4.55469 20.4141 4.55469ZM4.51562 9.24219H5.72656V12.7578H4.51562V9.24219ZM19.8281 16.2734H11.2428L10.2424 15.2732C10.1325 15.1634 9.98359 15.1016 9.82812 15.1016H7.48438C7.32891 15.1016 7.17996 15.1634 7.07012 15.2732L6.06973 16.2734H4.51562V13.9297H6.3125C6.63613 13.9297 6.89844 13.6674 6.89844 13.3438V8.65625C6.89844 8.33262 6.63613 8.07031 6.3125 8.07031H4.51562V5.72656H19.8281V16.2734Z" fill="url(#paint0_linear_451_1189)" stroke="url(#paint1_linear_451_1189)" stroke-width="0.6"/>
<path d="M8.65625 12.7578H10.7572L12.9295 14.9299C13.0973 15.0977 13.3494 15.1475 13.5679 15.057C13.7869 14.9662 13.9297 14.7526 13.9297 14.5156V7.48439C13.9297 7.24744 13.787 7.0338 13.5679 6.94302C13.3491 6.85236 13.097 6.90255 12.9295 7.07009L10.7572 9.2422H8.65625C8.33262 9.2422 8.07031 9.50451 8.07031 9.82814V12.1719C8.07031 12.4955 8.33262 12.7578 8.65625 12.7578ZM12.7578 13.101L11.5859 11.9291V10.0709L12.7578 8.89904V13.101ZM9.24219 10.4141H10.4141V11.586H9.24219V10.4141Z" fill="url(#paint2_linear_451_1189)"/>
<path d="M15.6875 12.7578C16.0111 12.7578 16.2734 12.4955 16.2734 12.1719V9.82812C16.2734 9.50449 16.0111 9.24219 15.6875 9.24219C15.3639 9.24219 15.1016 9.50449 15.1016 9.82812V12.1719C15.1016 12.4955 15.3639 12.7578 15.6875 12.7578Z" fill="url(#paint3_linear_451_1189)"/>
<path d="M18.0312 13.9297C18.3549 13.9297 18.6172 13.6674 18.6172 13.3438V8.65625C18.6172 8.33262 18.3549 8.07031 18.0312 8.07031C17.7076 8.07031 17.4453 8.33262 17.4453 8.65625V13.3438C17.4453 13.6674 17.7076 13.9297 18.0312 13.9297Z" fill="url(#paint4_linear_451_1189)"/>
</g>
<defs>
<linearGradient id="paint0_linear_451_1189" x1="11" y1="21" x2="11" y2="0.999999" gradientUnits="userSpaceOnUse">
<stop stop-color="#02AA93"/>
<stop offset="1" stop-color="#67FF80"/>
</linearGradient>
<linearGradient id="paint1_linear_451_1189" x1="11" y1="21" x2="11" y2="0.999999" gradientUnits="userSpaceOnUse">
<stop stop-color="#02AA93"/>
<stop offset="1" stop-color="#67FF80"/>
</linearGradient>
<linearGradient id="paint2_linear_451_1189" x1="11" y1="15.1016" x2="11" y2="6.89844" gradientUnits="userSpaceOnUse">
<stop stop-color="#02AA93"/>
<stop offset="1" stop-color="#67FF80"/>
</linearGradient>
<linearGradient id="paint3_linear_451_1189" x1="15.6875" y1="12.7578" x2="15.6875" y2="9.24219" gradientUnits="userSpaceOnUse">
<stop stop-color="#02AA93"/>
<stop offset="1" stop-color="#67FF80"/>
</linearGradient>
<linearGradient id="paint4_linear_451_1189" x1="18.0312" y1="13.9297" x2="18.0312" y2="8.07031" gradientUnits="userSpaceOnUse">
<stop stop-color="#02AA93"/>
<stop offset="1" stop-color="#67FF80"/>
</linearGradient>
<clipPath id="clip0_451_1189">
<rect width="22" height="22" fill="white"/>
</clipPath>
</defs>
</svg>
