<svg width="23" height="22" viewBox="0 0 23 22" fill="none" xmlns="http://www.w3.org/2000/svg">
<path d="M8.08242 16.952L7.63862 17.3958C7.41051 17.6239 7.41051 17.9938 7.63862 18.2218C7.86668 18.4501 8.23654 18.4501 8.46465 18.2218L8.90845 17.7781C9.59128 18.2897 10.4388 18.5934 11.3558 18.5934C12.2729 18.5934 13.1204 18.2897 13.8032 17.7781L14.247 18.2218C14.4751 18.4501 14.8449 18.4501 15.0731 18.2218C15.3012 17.9938 15.3012 17.6239 15.0731 17.3958L14.6292 16.952C15.1411 16.2692 15.4446 15.4217 15.4446 14.5046C15.4446 13.5875 15.1411 12.7401 14.6292 12.0572L15.0731 11.6134C15.3012 11.3853 15.3012 11.0155 15.0731 10.7874C14.845 10.5593 14.4751 10.5593 14.247 10.7874L13.8032 11.2312C13.1204 10.7194 12.2729 10.4159 11.3558 10.4159C10.4388 10.4159 9.59128 10.7194 8.90845 11.2312L8.46465 10.7874C8.23663 10.5593 7.86679 10.5593 7.63862 10.7874C7.41051 11.0155 7.41051 11.3854 7.63862 11.6135L8.08242 12.0573C7.5706 12.7401 7.2671 13.5875 7.2671 14.5046C7.2671 15.4217 7.5706 16.2692 8.08242 16.952ZM11.3558 11.5841C12.9662 11.5841 14.2764 12.8943 14.2764 14.5046C14.2764 16.115 12.9662 17.4252 11.3558 17.4252C9.74545 17.4252 8.4353 16.115 8.4353 14.5046C8.4353 12.8943 9.74545 11.5841 11.3558 11.5841ZM11.3558 16.257C12.3221 16.257 13.1082 15.4709 13.1082 14.5046C13.1082 13.5384 12.3221 12.7523 11.3558 12.7523C10.3896 12.7523 9.60353 13.5384 9.60353 14.5046C9.60353 15.4709 10.3896 16.257 11.3558 16.257ZM11.3558 13.9205C11.6779 13.9205 11.9399 14.1826 11.9399 14.5046C11.9399 14.8267 11.6779 15.0888 11.3558 15.0888C11.0338 15.0888 10.7717 14.8267 10.7717 14.5046C10.7717 14.1826 11.0338 13.9205 11.3558 13.9205ZM11.3558 6.91125C11.6784 6.91125 11.9399 6.64972 11.9399 6.32713C11.9399 6.00457 11.6784 5.74305 11.3558 5.74305C11.0333 5.74305 10.7717 6.00457 10.7717 6.32713C10.7717 6.64972 11.0333 6.91125 11.3558 6.91125ZM8.46465 9.21836C8.69273 9.44644 9.06259 9.44647 9.29072 9.21836L9.74648 8.7626C10.2083 9.0688 10.7614 9.24768 11.3558 9.24768C11.9502 9.24768 12.5034 9.0688 12.9653 8.76257L13.421 9.21833C13.6491 9.44644 14.0189 9.44644 14.247 9.21833C14.4752 8.99021 14.4752 8.62039 14.247 8.39226L13.7913 7.93652C14.0975 7.47472 14.2764 6.92154 14.2764 6.32713C14.2764 5.73275 14.0975 5.17957 13.7912 4.71778L14.247 4.26204C14.4751 4.03391 14.4751 3.66408 14.247 3.43597C14.0189 3.20789 13.6491 3.20786 13.421 3.43597L12.9653 3.89173C12.5034 3.5855 11.9502 3.40661 11.3558 3.40661C10.7614 3.40661 10.2083 3.5855 9.74643 3.89173L9.29067 3.43597C9.06264 3.20789 8.69278 3.20786 8.46462 3.43597C8.23651 3.66408 8.23651 4.03391 8.46462 4.26204L8.92038 4.71778C8.61419 5.17957 8.4353 5.73275 8.4353 6.32713C8.4353 6.92154 8.61419 7.47472 8.92042 7.93652L8.46465 8.39226C8.23654 8.62039 8.23654 8.99025 8.46465 9.21836ZM11.3558 4.57481C12.3221 4.57481 13.1082 5.36092 13.1082 6.32713C13.1082 7.29338 12.3221 8.07948 11.3558 8.07948C10.3896 8.07948 9.60353 7.29338 9.60353 6.32713C9.60353 5.36092 10.3896 4.57481 11.3558 4.57481ZM17.1969 1.03125H5.51478C5.19219 1.03125 4.93066 1.29277 4.93066 1.61536V20.3847C4.93066 20.7073 5.19219 20.9688 5.51478 20.9688H17.1969C17.5195 20.9688 17.7811 20.7073 17.7811 20.3847V1.61536C17.7811 1.29277 17.5195 1.03125 17.1969 1.03125ZM16.6128 19.8005H6.09886V2.19945H16.6128V19.8005Z" fill="url(#paint0_linear_451_1211)" stroke="url(#paint1_linear_451_1211)" stroke-width="0.6"/>
<defs>
<linearGradient id="paint0_linear_451_1211" x1="11.3558" y1="20.9688" x2="11.3558" y2="1.03125" gradientUnits="userSpaceOnUse">
<stop stop-color="#6C00BF"/>
<stop offset="1" stop-color="#FF00FF"/>
</linearGradient>
<linearGradient id="paint1_linear_451_1211" x1="11.3558" y1="20.9688" x2="11.3558" y2="1.03125" gradientUnits="userSpaceOnUse">
<stop stop-color="#6C00BF"/>
<stop offset="1" stop-color="#FF00FF"/>
</linearGradient>
</defs>
</svg>
