<svg width="23" height="22" viewBox="0 0 23 22" fill="none" xmlns="http://www.w3.org/2000/svg">
<path d="M20.2724 14.5403C21.0806 11.5747 20.3228 8.44972 18.2407 6.17009C18.3665 5.89139 18.4177 5.58463 18.3768 5.27453C18.3184 4.83091 18.0894 4.43635 17.7307 4.16383C14.0506 1.3626 8.72718 1.36152 5.0481 4.16383C4.44231 4.62425 4.20878 5.44058 4.5383 6.16987C2.47391 8.43052 1.71081 11.528 2.4891 14.4734C1.83913 14.8871 1.53744 15.7039 1.81289 16.4517L2.58449 18.5494C2.90377 19.4162 3.87115 19.8679 4.75283 19.5499L5.38746 19.3215C5.54545 19.5107 5.73362 19.6732 5.96508 19.7799C6.36423 19.9636 6.82334 19.9927 7.25881 19.8356C7.68346 19.6824 8.02217 19.3751 8.2133 18.9702C8.4044 18.5647 8.42422 18.1101 8.26946 17.6899L6.7268 13.4946C6.57204 13.0744 6.2614 12.7387 5.85165 12.5496C5.4419 12.3611 4.98256 12.3403 4.55844 12.494C4.13381 12.6472 3.79456 12.9545 3.60344 13.3595C3.53916 13.496 3.50148 13.6388 3.47609 13.7833C2.97028 11.3504 3.64807 8.84304 5.32437 6.97237C5.99468 7.30617 6.64817 7.17181 7.11123 6.81801C9.57642 4.93996 13.2024 4.93996 15.6676 6.81801C16.1817 7.20973 16.8893 7.24173 17.4539 6.97183C19.202 8.92114 19.8572 11.5581 19.2279 14.0828L19.2226 14.0809C19.2248 13.8348 19.1779 13.5893 19.0696 13.3595C18.8785 12.9546 18.5392 12.6472 18.1147 12.4941C17.69 12.342 17.2307 12.3611 16.8209 12.5497C16.4117 12.7388 16.1011 13.0745 15.9463 13.4946L14.4031 17.6899C14.2483 18.1101 14.2681 18.5647 14.4592 18.9702C14.7506 19.5876 15.3674 19.9375 15.9937 19.9375C16.2377 19.9375 16.4805 19.8846 16.708 19.7801C16.9392 19.6732 17.1272 19.5107 17.2852 19.3215L17.9198 19.5501C18.7881 19.8633 19.765 19.4294 20.088 18.5494L20.8597 16.4517C21.1216 15.7404 20.8576 14.9704 20.2724 14.5403ZM4.94454 13.5426C5.24146 13.4369 5.56101 13.589 5.66716 13.8761L7.20982 18.0715C7.31521 18.3597 7.16797 18.6801 6.87276 18.787C6.87276 18.787 6.87276 18.787 6.87219 18.787C6.57012 18.8949 6.25392 18.7357 6.14958 18.4535L4.60691 14.2581C4.501 13.9685 4.65 13.6487 4.94454 13.5426ZM3.74004 15.1639L4.89717 18.3107L4.36733 18.5015C4.07489 18.605 3.75049 18.4568 3.64421 18.1679L2.87261 16.0702C2.76721 15.782 2.91446 15.4615 3.20967 15.3546L3.74004 15.1639ZM17.1458 5.83153C16.9624 6.06751 16.5956 6.11655 16.355 5.9329C13.486 3.74751 9.29391 3.74751 6.42277 5.93398C6.17285 6.12403 5.81992 6.07224 5.63297 5.83153C5.44097 5.58463 5.49112 5.23473 5.73543 5.04893C7.37338 3.80198 9.37335 3.17855 11.3357 3.17855C13.298 3.17855 15.4054 3.80201 17.0434 5.04893C17.288 5.23495 17.3376 5.58498 17.1458 5.83153ZM16.5229 18.4535C16.4156 18.7437 16.094 18.8911 15.7998 18.787C15.5042 18.6801 15.3574 18.3593 15.4627 18.0715L17.0059 13.8761C17.1111 13.5918 17.4276 13.4362 17.729 13.5426C18.0246 13.6495 18.1714 13.9702 18.0662 14.2581L16.5229 18.4535ZM19.7999 16.0702L19.0279 18.1679C18.922 18.4573 18.6023 18.6056 18.3058 18.5015L17.7759 18.3107L18.933 15.1639L19.4398 15.3464C19.4424 15.3473 19.4441 15.3494 19.4469 15.3503C19.4491 15.351 19.4515 15.3507 19.4538 15.3513L19.4629 15.3546C19.7585 15.4616 19.9053 15.7823 19.7999 16.0702Z" fill="url(#paint0_linear_451_1200)" stroke="url(#paint1_linear_451_1200)" stroke-width="0.6"/>
<defs>
<linearGradient id="paint0_linear_451_1200" x1="11.336" y1="19.9375" x2="12.0234" y2="2.49219" gradientUnits="userSpaceOnUse">
<stop stop-color="#9000FF"/>
<stop offset="1" stop-color="#FFA34E"/>
</linearGradient>
<linearGradient id="paint1_linear_451_1200" x1="11.336" y1="19.9375" x2="12.0234" y2="2.49219" gradientUnits="userSpaceOnUse">
<stop stop-color="#9000FF"/>
<stop offset="1" stop-color="#FFA34E"/>
</linearGradient>
</defs>
</svg>
