<svg width="23" height="22" viewBox="0 0 23 22" fill="none" xmlns="http://www.w3.org/2000/svg">
<path d="M20.081 14.5403C20.8892 11.5747 20.1314 8.44972 18.0493 6.17009C18.1751 5.89139 18.2263 5.58463 18.1854 5.27453C18.127 4.83091 17.898 4.43635 17.5393 4.16383C13.8592 1.3626 8.53578 1.36152 4.85669 4.16383C4.2509 4.62425 4.01737 5.44058 4.34689 6.16987C2.2825 8.43052 1.5194 11.528 2.2977 14.4734C1.64772 14.8871 1.34603 15.7039 1.62148 16.4517L2.39309 18.5494C2.71236 19.4162 3.67974 19.8679 4.56143 19.5499L5.19606 19.3215C5.35405 19.5107 5.54221 19.6732 5.77368 19.7799C6.17282 19.9636 6.63194 19.9927 7.0674 19.8356C7.49205 19.6824 7.83076 19.3751 8.02189 18.9702C8.213 18.5647 8.23281 18.1101 8.07806 17.6899L6.53539 13.4946C6.38064 13.0744 6.06999 12.7387 5.66024 12.5496C5.25049 12.3611 4.79116 12.3403 4.36704 12.494C3.9424 12.6472 3.60316 12.9545 3.41203 13.3595C3.34775 13.496 3.31007 13.6388 3.28469 13.7833C2.77888 11.3504 3.45667 8.84304 5.13296 6.97237C5.80328 7.30617 6.45676 7.17181 6.91983 6.81801C9.38501 4.93996 13.011 4.93996 15.4762 6.81801C15.9903 7.20973 16.6979 7.24173 17.2625 6.97183C19.0106 8.92114 19.6657 11.5581 19.0365 14.0828L19.0312 14.0809C19.0334 13.8348 18.9865 13.5893 18.8782 13.3595C18.6871 12.9546 18.3478 12.6472 17.9233 12.4941C17.4986 12.342 17.0393 12.3611 16.6295 12.5497C16.2203 12.7388 15.9096 13.0745 15.7549 13.4946L14.2117 17.6899C14.0569 18.1101 14.0767 18.5647 14.2678 18.9702C14.5592 19.5876 15.176 19.9375 15.8023 19.9375C16.0463 19.9375 16.2891 19.8846 16.5166 19.7801C16.7478 19.6732 16.9358 19.5107 17.0937 19.3215L17.7284 19.5501C18.5967 19.8633 19.5736 19.4294 19.8966 18.5494L20.6683 16.4517C20.9302 15.7404 20.6662 14.9704 20.081 14.5403ZM4.75314 13.5426C5.05005 13.4369 5.3696 13.589 5.47575 13.8761L7.01841 18.0715C7.12381 18.3597 6.97656 18.6801 6.68135 18.787C6.68135 18.787 6.68135 18.787 6.68078 18.787C6.37871 18.8949 6.06251 18.7357 5.95817 18.4535L4.41551 14.2581C4.3096 13.9685 4.45859 13.6487 4.75314 13.5426ZM3.54864 15.1639L4.70577 18.3107L4.17593 18.5015C3.88348 18.605 3.55909 18.4568 3.4528 18.1679L2.6812 16.0702C2.57581 15.782 2.72305 15.4615 3.01826 15.3546L3.54864 15.1639ZM16.9544 5.83153C16.771 6.06751 16.4042 6.11655 16.1636 5.9329C13.2946 3.74751 9.1025 3.74751 6.23136 5.93398C5.98144 6.12403 5.62851 6.07224 5.44156 5.83153C5.24956 5.58463 5.29972 5.23473 5.54402 5.04893C7.18197 3.80198 9.18194 3.17855 11.1443 3.17855C13.1066 3.17855 15.214 3.80201 16.852 5.04893C17.0966 5.23495 17.1462 5.58498 16.9544 5.83153ZM16.3315 18.4535C16.2242 18.7437 15.9026 18.8911 15.6084 18.787C15.3128 18.6801 15.166 18.3593 15.2713 18.0715L16.8145 13.8761C16.9197 13.5918 17.2362 13.4362 17.5376 13.5426C17.8332 13.6495 17.98 13.9702 17.8748 14.2581L16.3315 18.4535ZM19.6085 16.0702L18.8365 18.1679C18.7306 18.4573 18.4109 18.6056 18.1144 18.5015L17.5845 18.3107L18.7416 15.1639L19.2484 15.3464C19.251 15.3473 19.2527 15.3494 19.2555 15.3503C19.2577 15.351 19.2601 15.3507 19.2624 15.3513L19.2715 15.3546C19.5671 15.4616 19.7139 15.7823 19.6085 16.0702Z" fill="url(#paint0_linear_451_1198)" stroke="url(#paint1_linear_451_1198)" stroke-width="0.6"/>
<defs>
<linearGradient id="paint0_linear_451_1198" x1="11.1446" y1="19.9375" x2="11.832" y2="2.49219" gradientUnits="userSpaceOnUse">
<stop stop-color="#9000FF"/>
<stop offset="1" stop-color="#FFA34E"/>
</linearGradient>
<linearGradient id="paint1_linear_451_1198" x1="11.1446" y1="19.9375" x2="11.832" y2="2.49219" gradientUnits="userSpaceOnUse">
<stop stop-color="#9000FF"/>
<stop offset="1" stop-color="#FFA34E"/>
</linearGradient>
</defs>
</svg>
