<svg width="23" height="22" viewBox="0 0 23 22" fill="none" xmlns="http://www.w3.org/2000/svg">
<path d="M11.5264 16.8438C9.03861 16.8438 7.01465 14.8198 7.01465 12.332V4.51172C7.01465 2.02397 9.03861 0 11.5264 0C14.0141 0 16.0381 2.02397 16.0381 4.51172V12.332C16.0381 14.8198 14.0141 16.8438 11.5264 16.8438Z" fill="url(#paint0_linear_451_1202)"/>
<path d="M18.6162 12.332C18.6162 11.9761 18.3276 11.6875 17.9717 11.6875C17.6157 11.6875 17.3271 11.9761 17.3271 12.332C17.3271 15.5306 14.7249 18.1328 11.5264 18.1328C8.32781 18.1328 5.72559 15.5306 5.72559 12.332C5.72559 11.9761 5.43701 11.6875 5.08105 11.6875C4.7251 11.6875 4.43652 11.9761 4.43652 12.332C4.43652 16.0241 7.27346 19.0656 10.8818 19.3923V20.7109H7.65918C7.30323 20.7109 7.01465 20.9995 7.01465 21.3555C7.01465 21.7114 7.30323 22 7.65918 22H15.3936C15.7495 22 16.0381 21.7114 16.0381 21.3555C16.0381 20.9995 15.7495 20.7109 15.3936 20.7109H12.1709V19.3923C15.7793 19.0656 18.6162 16.0241 18.6162 12.332Z" fill="url(#paint1_linear_451_1202)"/>
<defs>
<linearGradient id="paint0_linear_451_1202" x1="11.5264" y1="16.8438" x2="11.5264" y2="0" gradientUnits="userSpaceOnUse">
<stop stop-color="#FD3A84"/>
<stop offset="1" stop-color="#FFA68D"/>
</linearGradient>
<linearGradient id="paint1_linear_451_1202" x1="18.1372" y1="11.9823" x2="15.0102" y2="22.7786" gradientUnits="userSpaceOnUse">
<stop stop-color="#FE0F7C"/>
<stop offset="1" stop-color="#DF0066"/>
</linearGradient>
</defs>
</svg>
