<svg width="23" height="22" viewBox="0 0 23 22" fill="none" xmlns="http://www.w3.org/2000/svg">
<path d="M20.8906 14.5403C21.6987 11.5747 20.9409 8.44972 18.8588 6.17009C18.9846 5.89139 19.0359 5.58463 18.995 5.27453C18.9365 4.83091 18.7076 4.43635 18.3489 4.16383C14.6687 1.3626 9.34535 1.36152 5.66626 4.16383C5.06047 4.62425 4.82694 5.44058 5.15646 6.16987C3.09207 8.43052 2.32897 11.528 3.10727 14.4734C2.4573 14.8871 2.1556 15.7039 2.43105 16.4517L3.20266 18.5494C3.52193 19.4162 4.48931 19.8679 5.371 19.5499L6.00563 19.3215C6.16362 19.5107 6.35178 19.6732 6.58325 19.7799C6.98239 19.9636 7.44151 19.9927 7.87697 19.8356C8.30162 19.6824 8.64034 19.3751 8.83146 18.9702C9.02257 18.5647 9.04238 18.1101 8.88763 17.6899L7.34496 13.4946C7.19021 13.0744 6.87956 12.7387 6.46981 12.5496C6.06006 12.3611 5.60073 12.3403 5.17661 12.494C4.75197 12.6472 4.41273 12.9545 4.2216 13.3595C4.15732 13.496 4.11964 13.6388 4.09426 13.7833C3.58845 11.3504 4.26624 8.84304 5.94253 6.97237C6.61285 7.30617 7.26633 7.17181 7.7294 6.81801C10.1946 4.93996 13.8206 4.93996 16.2858 6.81801C16.7999 7.20973 17.5074 7.24173 18.0721 6.97183C19.8201 8.92114 20.4753 11.5581 19.8461 14.0828L19.8408 14.0809C19.843 13.8348 19.7961 13.5893 19.6878 13.3595C19.4967 12.9546 19.1574 12.6472 18.7329 12.4941C18.3081 12.342 17.8488 12.3611 17.4391 12.5497C17.0299 12.7388 16.7192 13.0745 16.5645 13.4946L15.0212 17.6899C14.8665 18.1101 14.8863 18.5647 15.0774 18.9702C15.3688 19.5876 15.9856 19.9375 16.6118 19.9375C16.8558 19.9375 17.0987 19.8846 17.3262 19.7801C17.5574 19.6732 17.7454 19.5107 17.9033 19.3215L18.5379 19.5501C19.4063 19.8633 20.3832 19.4294 20.7061 18.5494L21.4779 16.4517C21.7398 15.7404 21.4758 14.9704 20.8906 14.5403ZM5.56271 13.5426C5.85962 13.4369 6.17917 13.589 6.28532 13.8761L7.82798 18.0715C7.93338 18.3597 7.78613 18.6801 7.49092 18.787C7.49092 18.787 7.49092 18.787 7.49035 18.787C7.18828 18.8949 6.87208 18.7357 6.76774 18.4535L5.22508 14.2581C5.11917 13.9685 5.26816 13.6487 5.56271 13.5426ZM4.35821 15.1639L5.51534 18.3107L4.9855 18.5015C4.69305 18.605 4.36866 18.4568 4.26237 18.1679L3.49077 16.0702C3.38538 15.782 3.53262 15.4615 3.82783 15.3546L4.35821 15.1639ZM17.764 5.83153C17.5806 6.06751 17.2138 6.11655 16.9731 5.9329C14.1042 3.74751 9.91207 3.74751 7.04093 5.93398C6.79101 6.12403 6.43808 6.07224 6.25113 5.83153C6.05913 5.58463 6.10929 5.23473 6.35359 5.04893C7.99154 3.80198 9.99151 3.17855 11.9539 3.17855C13.9162 3.17855 16.0236 3.80201 17.6616 5.04893C17.9062 5.23495 17.9558 5.58498 17.764 5.83153ZM17.1411 18.4535C17.0338 18.7437 16.7122 18.8911 16.4179 18.787C16.1224 18.6801 15.9756 18.3593 16.0809 18.0715L17.6241 13.8761C17.7292 13.5918 18.0457 13.4362 18.3472 13.5426C18.6428 13.6495 18.7896 13.9702 18.6844 14.2581L17.1411 18.4535ZM20.4181 16.0702L19.646 18.1679C19.5401 18.4573 19.2205 18.6056 18.924 18.5015L18.3941 18.3107L19.5511 15.1639L20.058 15.3464C20.0606 15.3473 20.0623 15.3494 20.0651 15.3503C20.0673 15.351 20.0697 15.3507 20.0719 15.3513L20.081 15.3546C20.3767 15.4616 20.5234 15.7823 20.4181 16.0702Z" fill="url(#paint0_linear_451_1196)" stroke="url(#paint1_linear_451_1196)" stroke-width="0.6"/>
<defs>
<linearGradient id="paint0_linear_451_1196" x1="11.9819" y1="16.3223" x2="13.399" y2="3.32679" gradientUnits="userSpaceOnUse">
<stop stop-color="#B400CF"/>
<stop offset="1" stop-color="#339DFF"/>
</linearGradient>
<linearGradient id="paint1_linear_451_1196" x1="11.9819" y1="16.3223" x2="13.399" y2="3.32679" gradientUnits="userSpaceOnUse">
<stop stop-color="#B400CF"/>
<stop offset="1" stop-color="#339DFF"/>
</linearGradient>
</defs>
</svg>
