<svg width="23" height="22" viewBox="0 0 23 22" fill="none" xmlns="http://www.w3.org/2000/svg">
<path d="M7.89199 16.952L7.44819 17.3958C7.22008 17.6239 7.22008 17.9938 7.44819 18.2218C7.67625 18.4501 8.04611 18.4501 8.27423 18.2218L8.71802 17.7781C9.40085 18.2897 10.2483 18.5934 11.1654 18.5934C12.0825 18.5934 12.93 18.2897 13.6128 17.7781L14.0566 18.2218C14.2847 18.4501 14.6545 18.4501 14.8826 18.2218C15.1107 17.9938 15.1107 17.6239 14.8826 17.3958L14.4388 16.952C14.9506 16.2692 15.2541 15.4217 15.2541 14.5046C15.2541 13.5875 14.9506 12.7401 14.4388 12.0572L14.8826 11.6134C15.1107 11.3853 15.1107 11.0155 14.8826 10.7874C14.6546 10.5593 14.2847 10.5593 14.0566 10.7874L13.6128 11.2312C12.93 10.7194 12.0825 10.4159 11.1654 10.4159C10.2483 10.4159 9.40085 10.7194 8.71802 11.2312L8.27423 10.7874C8.0462 10.5593 7.67636 10.5593 7.44819 10.7874C7.22008 11.0155 7.22008 11.3854 7.44819 11.6135L7.89199 12.0573C7.38017 12.7401 7.07667 13.5875 7.07667 14.5046C7.07667 15.4217 7.38017 16.2692 7.89199 16.952ZM11.1654 11.5841C12.7758 11.5841 14.0859 12.8943 14.0859 14.5046C14.0859 16.115 12.7758 17.4252 11.1654 17.4252C9.55502 17.4252 8.24487 16.115 8.24487 14.5046C8.24487 12.8943 9.55502 11.5841 11.1654 11.5841ZM11.1654 16.257C12.1316 16.257 12.9177 15.4709 12.9177 14.5046C12.9177 13.5384 12.1316 12.7523 11.1654 12.7523C10.1992 12.7523 9.4131 13.5384 9.4131 14.5046C9.4131 15.4709 10.1992 16.257 11.1654 16.257ZM11.1654 13.9205C11.4875 13.9205 11.7495 14.1826 11.7495 14.5046C11.7495 14.8267 11.4875 15.0888 11.1654 15.0888C10.8433 15.0888 10.5813 14.8267 10.5813 14.5046C10.5813 14.1826 10.8433 13.9205 11.1654 13.9205ZM11.1654 6.91125C11.488 6.91125 11.7495 6.64972 11.7495 6.32713C11.7495 6.00457 11.488 5.74305 11.1654 5.74305C10.8428 5.74305 10.5813 6.00457 10.5813 6.32713C10.5813 6.64972 10.8428 6.91125 11.1654 6.91125ZM8.27423 9.21836C8.5023 9.44644 8.87216 9.44647 9.10029 9.21836L9.55605 8.7626C10.0178 9.0688 10.571 9.24768 11.1654 9.24768C11.7598 9.24768 12.313 9.0688 12.7748 8.76257L13.2306 9.21833C13.4586 9.44644 13.8285 9.44644 14.0566 9.21833C14.2847 8.99021 14.2847 8.62039 14.0566 8.39226L13.6009 7.93652C13.907 7.47472 14.0859 6.92154 14.0859 6.32713C14.0859 5.73275 13.907 5.17957 13.6008 4.71778L14.0566 4.26204C14.2847 4.03391 14.2847 3.66408 14.0566 3.43597C13.8285 3.20789 13.4586 3.20786 13.2305 3.43597L12.7748 3.89173C12.313 3.5855 11.7598 3.40661 11.1654 3.40661C10.571 3.40661 10.0178 3.5855 9.556 3.89173L9.10024 3.43597C8.87221 3.20789 8.50235 3.20786 8.27419 3.43597C8.04608 3.66408 8.04608 4.03391 8.27419 4.26204L8.72995 4.71778C8.42376 5.17957 8.24487 5.73275 8.24487 6.32713C8.24487 6.92154 8.42376 7.47472 8.72999 7.93652L8.27423 8.39226C8.04611 8.62039 8.04611 8.99025 8.27423 9.21836ZM11.1654 4.57481C12.1316 4.57481 12.9177 5.36092 12.9177 6.32713C12.9177 7.29338 12.1316 8.07948 11.1654 8.07948C10.1992 8.07948 9.4131 7.29338 9.4131 6.32713C9.4131 5.36092 10.1992 4.57481 11.1654 4.57481ZM17.0065 1.03125H5.32435C5.00176 1.03125 4.74023 1.29277 4.74023 1.61536V20.3847C4.74023 20.7073 5.00176 20.9688 5.32435 20.9688H17.0065C17.329 20.9688 17.5906 20.7073 17.5906 20.3847V1.61536C17.5906 1.29277 17.329 1.03125 17.0065 1.03125ZM16.4224 19.8005H5.90843V2.19945H16.4224V19.8005Z" fill="url(#paint0_linear_451_1209)" stroke="url(#paint1_linear_451_1209)" stroke-width="0.6"/>
<defs>
<linearGradient id="paint0_linear_451_1209" x1="11.1654" y1="20.9688" x2="11.1654" y2="1.03125" gradientUnits="userSpaceOnUse">
<stop stop-color="#6C00BF"/>
<stop offset="1" stop-color="#FF00FF"/>
</linearGradient>
<linearGradient id="paint1_linear_451_1209" x1="11.1654" y1="20.9688" x2="11.1654" y2="1.03125" gradientUnits="userSpaceOnUse">
<stop stop-color="#6C00BF"/>
<stop offset="1" stop-color="#FF00FF"/>
</linearGradient>
</defs>
</svg>
