<svg width="23" height="22" viewBox="0 0 23 22" fill="none" xmlns="http://www.w3.org/2000/svg">
<path d="M17.9376 12.0903V10.9624C17.9376 10.6509 17.685 10.3984 17.3735 10.3984H15.6816V4.19482C15.6816 2.63997 14.4167 1.375 12.8618 1.375H10.6059C9.0511 1.375 7.78613 2.63997 7.78613 4.19482V10.3984H6.09423C5.78278 10.3984 5.53027 10.6509 5.53027 10.9624V12.0903C5.53027 14.6984 7.50768 16.853 10.042 17.1345V19.4972H7.22218C6.9107 19.4972 6.6582 19.7496 6.6582 20.0611C6.6582 20.3725 6.9107 20.625 7.22218 20.625H16.2456C16.5571 20.625 16.8096 20.3725 16.8096 20.0611C16.8096 19.7496 16.5571 19.4972 16.2456 19.4972H13.4258V17.1345C15.9601 16.853 17.9376 14.6984 17.9376 12.0903ZM8.91406 4.19482C8.91406 3.26191 9.67305 2.50293 10.6059 2.50293H12.8618C13.7947 2.50293 14.5537 3.26191 14.5537 4.19482V10.3984H8.91406V4.19482ZM8.91406 11.5264H14.5537V12.0903C14.5537 13.0232 13.7947 13.7822 12.8618 13.7822H10.6059C9.67305 13.7822 8.91406 13.0232 8.91406 12.0903V11.5264ZM12.2979 19.4972H11.1699V17.166H12.2979V19.4972ZM12.8618 16.0381H10.6059C8.42917 16.0381 6.6582 14.2671 6.6582 12.0903V11.5264H7.78613V12.0903C7.78613 13.6452 9.0511 14.9102 10.6059 14.9102H12.8618C14.4167 14.9102 15.6816 13.6452 15.6816 12.0903V11.5264H16.8096V12.0903C16.8096 14.2671 15.0386 16.0381 12.8618 16.0381ZM10.6059 3.63086C10.2945 3.63086 10.042 3.88336 10.042 4.19482C10.042 4.50629 10.2945 4.75879 10.6059 4.75879C10.9174 4.75879 11.1699 4.50629 11.1699 4.19482C11.1699 3.88336 10.9174 3.63086 10.6059 3.63086ZM10.6059 8.14258C10.2945 8.14258 10.042 8.39508 10.042 8.70653C10.042 9.01801 10.2945 9.27051 10.6059 9.27051C10.9174 9.27051 11.1699 9.01801 11.1699 8.70653C11.1699 8.39508 10.9174 8.14258 10.6059 8.14258ZM10.6059 5.88672C10.2945 5.88672 10.042 6.13922 10.042 6.45068C10.042 6.76215 10.2945 7.01465 10.6059 7.01465C10.9174 7.01465 11.1699 6.76215 11.1699 6.45068C11.1699 6.13922 10.9174 5.88672 10.6059 5.88672ZM12.8618 3.63086C12.5504 3.63086 12.2979 3.88336 12.2979 4.19482C12.2979 4.50629 12.5504 4.75879 12.8618 4.75879C13.1733 4.75879 13.4258 4.50629 13.4258 4.19482C13.4258 3.88336 13.1733 3.63086 12.8618 3.63086ZM12.8618 5.88672C12.5504 5.88672 12.2979 6.13922 12.2979 6.45068C12.2979 6.76215 12.5504 7.01465 12.8618 7.01465C13.1733 7.01465 13.4258 6.76215 13.4258 6.45068C13.4258 6.13922 13.1733 5.88672 12.8618 5.88672ZM12.8618 8.14258C12.5504 8.14258 12.2979 8.39508 12.2979 8.70653C12.2979 9.01801 12.5504 9.27051 12.8618 9.27051C13.1733 9.27051 13.4258 9.01801 13.4258 8.70653C13.4258 8.39508 13.1733 8.14258 12.8618 8.14258Z" fill="url(#paint0_linear_451_1205)"/>
<defs>
<linearGradient id="paint0_linear_451_1205" x1="10.2568" y1="13.9219" x2="12.0615" y2="9.36719" gradientUnits="userSpaceOnUse">
<stop stop-color="#FD3D00"/>
<stop offset="1" stop-color="#FFE600"/>
</linearGradient>
</defs>
</svg>
