<svg width="23" height="22" viewBox="0 0 23 22" fill="none" xmlns="http://www.w3.org/2000/svg">
<path d="M20.7001 14.5403C21.5083 11.5747 20.7505 8.44972 18.6684 6.17009C18.7942 5.89139 18.8454 5.58463 18.8045 5.27453C18.7461 4.83091 18.5172 4.43635 18.1585 4.16383C14.4783 1.3626 9.15492 1.36152 5.47583 4.16383C4.87004 4.62425 4.63651 5.44058 4.96603 6.16987C2.90164 8.43052 2.13854 11.528 2.91684 14.4734C2.26687 14.8871 1.96517 15.7039 2.24062 16.4517L3.01223 18.5494C3.3315 19.4162 4.29888 19.8679 5.18057 19.5499L5.8152 19.3215C5.97319 19.5107 6.16136 19.6732 6.39282 19.7799C6.79196 19.9636 7.25108 19.9927 7.68654 19.8356C8.11119 19.6824 8.44991 19.3751 8.64103 18.9702C8.83214 18.5647 8.85196 18.1101 8.6972 17.6899L7.15453 13.4946C6.99978 13.0744 6.68913 12.7387 6.27938 12.5496C5.86963 12.3611 5.4103 12.3403 4.98618 12.494C4.56154 12.6472 4.2223 12.9545 4.03117 13.3595C3.96689 13.496 3.92921 13.6388 3.90383 13.7833C3.39802 11.3504 4.07581 8.84304 5.7521 6.97237C6.42242 7.30617 7.0759 7.17181 7.53897 6.81801C10.0042 4.93996 13.6301 4.93996 16.0954 6.81801C16.6094 7.20973 17.317 7.24173 17.8817 6.97183C19.6297 8.92114 20.2849 11.5581 19.6557 14.0828L19.6503 14.0809C19.6526 13.8348 19.6056 13.5893 19.4974 13.3595C19.3062 12.9546 18.967 12.6472 18.5424 12.4941C18.1177 12.342 17.6584 12.3611 17.2486 12.5497C16.8394 12.7388 16.5288 13.0745 16.374 13.4946L14.8308 17.6899C14.676 18.1101 14.6959 18.5647 14.887 18.9702C15.1784 19.5876 15.7951 19.9375 16.4214 19.9375C16.6654 19.9375 16.9083 19.8846 17.1357 19.7801C17.3669 19.6732 17.5549 19.5107 17.7129 19.3215L18.3475 19.5501C19.2158 19.8633 20.1928 19.4294 20.5157 18.5494L21.2874 16.4517C21.5494 15.7404 21.2854 14.9704 20.7001 14.5403ZM5.37228 13.5426C5.66919 13.4369 5.98874 13.589 6.09489 13.8761L7.63755 18.0715C7.74295 18.3597 7.5957 18.6801 7.30049 18.787C7.30049 18.787 7.30049 18.787 7.29992 18.787C6.99785 18.8949 6.68165 18.7357 6.57731 18.4535L5.03465 14.2581C4.92874 13.9685 5.07773 13.6487 5.37228 13.5426ZM4.16778 15.1639L5.32491 18.3107L4.79507 18.5015C4.50262 18.605 4.17823 18.4568 4.07194 18.1679L3.30034 16.0702C3.19495 15.782 3.34219 15.4615 3.63741 15.3546L4.16778 15.1639ZM17.5736 5.83153C17.3902 6.06751 17.0234 6.11655 16.7827 5.9329C13.9138 3.74751 9.72164 3.74751 6.8505 5.93398C6.60058 6.12403 6.24765 6.07224 6.0607 5.83153C5.8687 5.58463 5.91886 5.23473 6.16316 5.04893C7.80111 3.80198 9.80108 3.17855 11.7634 3.17855C13.7258 3.17855 15.8332 3.80201 17.4711 5.04893C17.7158 5.23495 17.7654 5.58498 17.5736 5.83153ZM16.9507 18.4535C16.8433 18.7437 16.5217 18.8911 16.2275 18.787C15.9319 18.6801 15.7852 18.3593 15.8904 18.0715L17.4337 13.8761C17.5388 13.5918 17.8553 13.4362 18.1567 13.5426C18.4524 13.6495 18.5991 13.9702 18.494 14.2581L16.9507 18.4535ZM20.2277 16.0702L19.4556 18.1679C19.3497 18.4573 19.03 18.6056 18.7335 18.5015L18.2037 18.3107L19.3607 15.1639L19.8676 15.3464C19.8702 15.3473 19.8719 15.3494 19.8746 15.3503C19.8769 15.351 19.8793 15.3507 19.8815 15.3513L19.8906 15.3546C20.1862 15.4616 20.333 15.7823 20.2277 16.0702Z" fill="url(#paint0_linear_451_1194)" stroke="url(#paint1_linear_451_1194)" stroke-width="0.6"/>
<defs>
<linearGradient id="paint0_linear_451_1194" x1="11.7915" y1="16.3223" x2="13.2085" y2="3.32679" gradientUnits="userSpaceOnUse">
<stop stop-color="#B400CF"/>
<stop offset="1" stop-color="#339DFF"/>
</linearGradient>
<linearGradient id="paint1_linear_451_1194" x1="11.7915" y1="16.3223" x2="13.2085" y2="3.32679" gradientUnits="userSpaceOnUse">
<stop stop-color="#B400CF"/>
<stop offset="1" stop-color="#339DFF"/>
</linearGradient>
</defs>
</svg>
