<svg width="23" height="22" viewBox="0 0 23 22" fill="none" xmlns="http://www.w3.org/2000/svg">
<path opacity="0.4" d="M11.8772 7.42501C14.492 7.42501 16.8615 8.48665 18.5732 10.1993C18.7201 10.3362 18.8379 10.5013 18.9196 10.6847C19.0014 10.8681 19.0453 11.0661 19.0488 11.2669C19.0524 11.4676 19.0155 11.6671 18.9403 11.8533C18.865 12.0395 18.7531 12.2086 18.6111 12.3506C18.4691 12.4926 18.3 12.6045 18.1138 12.6797C17.9276 12.755 17.7282 12.7919 17.5274 12.7883C17.3266 12.7848 17.1286 12.7409 16.9452 12.6591C16.7618 12.5774 16.5967 12.4596 16.4598 12.3127C15.8588 11.7099 15.1445 11.232 14.358 10.9064C13.5715 10.5808 12.7284 10.414 11.8772 10.4156C11.0261 10.4143 10.1831 10.5813 9.39683 10.9071C8.61053 11.2328 7.89639 11.7108 7.29558 12.3136C7.01519 12.5941 6.63486 12.7518 6.23824 12.7519C5.84163 12.752 5.46123 12.5945 5.18073 12.3141C4.9002 12.0338 4.74255 11.6534 4.74245 11.2568C4.74238 10.8602 4.89985 10.4798 5.18022 10.1993C6.05881 9.31862 7.10271 8.62019 8.25197 8.1441C9.40123 7.66804 10.6332 7.42363 11.8772 7.42501ZM11.8772 3.43751C15.5925 3.43751 18.96 4.94578 21.3933 7.37915C21.5321 7.51803 21.6422 7.68292 21.7173 7.86435C21.7925 8.04582 21.8311 8.24028 21.8311 8.43666C21.831 8.63305 21.7923 8.82751 21.7171 9.0089C21.6419 9.19034 21.5317 9.35516 21.3928 9.494C21.2539 9.63281 21.089 9.74295 20.9076 9.81806C20.7261 9.89317 20.5316 9.9318 20.3353 9.93174C20.1389 9.9317 19.9444 9.89296 19.763 9.81778C19.5816 9.74257 19.4168 9.6324 19.278 9.49349C18.3073 8.51999 17.1537 7.748 15.8836 7.22192C14.6135 6.69588 13.2519 6.42607 11.8772 6.42813C8.98625 6.42813 6.37148 7.59846 4.47543 9.49349C4.33813 9.63872 4.17309 9.75498 3.99009 9.83531C3.8071 9.91568 3.60985 9.95855 3.41 9.96137C3.21016 9.96422 3.01177 9.92692 2.82657 9.85178C2.64138 9.77664 2.47313 9.66509 2.33177 9.52381C2.19041 9.38253 2.07881 9.21433 2.00356 9.02915C1.92832 8.84401 1.89096 8.64563 1.89369 8.44577C1.89642 8.24595 1.93919 8.04867 2.01947 7.86563C2.09975 7.68258 2.2159 7.51751 2.36107 7.38015C3.60942 6.12862 5.09273 5.13605 6.72578 4.45944C8.35887 3.78287 10.1095 3.43557 11.8772 3.43751Z" fill="url(#paint0_linear_451_1218)"/>
<path opacity="0.4" d="M13.9754 11.8288C13.3102 11.5534 12.5971 11.4119 11.8771 11.4126C11.157 11.412 10.4438 11.5535 9.77859 11.8291C9.11329 12.1047 8.50898 12.5089 8.00027 13.0186C7.71987 13.2991 7.5624 13.6795 7.5625 14.0761C7.5626 14.4727 7.72025 14.853 8.00075 15.1334C8.28128 15.4138 8.66168 15.5713 9.05829 15.5712C9.45491 15.5711 9.83524 15.4134 10.1156 15.1329L10.2552 15.0023C10.6918 14.6275 11.257 14.4032 11.8771 14.4032C12.2045 14.4025 12.5288 14.4666 12.8313 14.5918C13.1338 14.7171 13.4085 14.901 13.6396 15.1329L13.7532 15.2356C14.0505 15.4786 14.4299 15.5979 14.8128 15.5688C15.1956 15.5398 15.5527 15.3645 15.8098 15.0794C16.067 14.7942 16.2047 14.4211 16.1943 14.0373C16.1839 13.6534 16.0262 13.2883 15.7539 13.0176C15.245 12.5082 14.6407 12.1042 13.9754 11.8288Z" fill="url(#paint1_linear_451_1218)"/>
<path d="M12.9345 15.8379C12.6541 15.5574 12.2737 15.3999 11.8771 15.3999C11.4805 15.3999 11.1002 15.5574 10.8198 15.8379C10.5394 16.1183 10.3818 16.4986 10.3818 16.8952C10.3818 17.2918 10.5394 17.6721 10.8198 17.9526C11.1002 18.233 11.4805 18.3905 11.8771 18.3905C12.2737 18.3905 12.6541 18.233 12.9345 17.9526C13.2149 17.6721 13.3724 17.2918 13.3724 16.8952C13.3724 16.4986 13.2149 16.1183 12.9345 15.8379Z" fill="url(#paint2_linear_451_1218)"/>
<path d="M18.1993 9.96875C16.8745 9.96875 15.6884 11.051 15.6884 12.3633V13.5557H15.2099C14.8789 13.5557 14.6123 13.7589 14.6123 14.0832V17.6331C14.6123 17.9579 14.8789 18.2188 15.2099 18.2188H21.1886C21.5197 18.2188 21.7862 17.9579 21.7862 17.6331V14.0832C21.7862 13.7588 21.5196 13.5439 21.1886 13.5557H20.7101V12.3633C20.7101 11.0515 19.5239 9.96875 18.1993 9.96875ZM18.1993 11.4035C18.7954 11.4035 19.2753 11.8874 19.2753 12.488V13.5557H17.1232V12.488C17.1232 11.8874 17.6031 11.4035 18.1993 11.4035Z" fill="url(#paint3_linear_451_1218)"/>
<defs>
<linearGradient id="paint0_linear_451_1218" x1="5.50723" y1="11.6846" x2="12.606" y2="-1.52136" gradientUnits="userSpaceOnUse">
<stop stop-color="#FE0844"/>
<stop offset="1" stop-color="#FEB302"/>
</linearGradient>
<linearGradient id="paint1_linear_451_1218" x1="9.12711" y1="17.5669" x2="15.4598" y2="10.7316" gradientUnits="userSpaceOnUse">
<stop stop-color="#FE0844"/>
<stop offset="1" stop-color="#FEB302"/>
</linearGradient>
<linearGradient id="paint2_linear_451_1218" x1="9.12715" y1="17.5667" x2="15.4598" y2="10.7314" gradientUnits="userSpaceOnUse">
<stop stop-color="#FE0844"/>
<stop offset="1" stop-color="#FEB302"/>
</linearGradient>
<linearGradient id="paint3_linear_451_1218" x1="21.765" y1="10.021" x2="13.6689" y2="17.0025" gradientUnits="userSpaceOnUse">
<stop stop-color="#FE7970"/>
<stop offset="1" stop-color="#DC3282"/>
</linearGradient>
</defs>
</svg>
