<svg width="23" height="22" viewBox="0 0 23 22" fill="none" xmlns="http://www.w3.org/2000/svg">
<g clip-path="url(#clip0_451_1244)">
<path d="M2.8696 4.58054C1.78906 5.66016 1.78906 7.39898 1.78906 10.8757C1.78906 14.3524 1.78906 16.0912 2.8696 17.1709C3.94922 18.2514 5.68804 18.2514 9.16477 18.2514H10.5477C14.0245 18.2514 15.7633 18.2514 16.8429 17.1709C17.9234 16.0912 17.9234 14.3524 17.9234 10.8757C17.9234 7.39898 17.9234 5.66016 16.8429 4.58054C15.7633 3.5 14.0245 3.5 10.5477 3.5H9.16477C5.68804 3.5 3.94922 3.5 2.8696 4.58054Z" stroke="url(#paint0_linear_451_1244)" stroke-width="2"/>
<path d="M20.17 13.1052C20.17 13.32 20.2552 13.5259 20.4071 13.6777C20.5589 13.8295 20.7649 13.9149 20.9795 13.9149C21.1943 13.9149 21.4002 13.8295 21.552 13.6777C21.7039 13.5259 21.7891 13.32 21.7891 13.1052V8.7873C21.7891 8.57256 21.7039 8.36663 21.552 8.2148C21.4002 8.06296 21.1943 7.97766 20.9795 7.97766C20.7649 7.97766 20.5589 8.06296 20.4071 8.2148C20.2552 8.36663 20.17 8.57256 20.17 8.7873V13.1052ZM10.2666 8.22595C10.3979 8.06037 10.4594 7.84999 10.4377 7.63974C10.416 7.4295 10.313 7.23605 10.1507 7.10075C9.98834 6.96543 9.77947 6.89899 9.56872 6.91559C9.35806 6.9322 9.16217 7.03056 9.02298 7.18963L6.32425 10.4281C6.22579 10.5463 6.16305 10.6901 6.14337 10.8426C6.12369 10.9952 6.14788 11.1503 6.21313 11.2896C6.27837 11.4289 6.38197 11.5467 6.51176 11.6294C6.64156 11.712 6.7922 11.7559 6.94604 11.7559H8.996L7.40376 13.6665C7.27238 13.8322 7.21096 14.0425 7.23262 14.2528C7.25428 14.463 7.3573 14.6565 7.51967 14.7918C7.68205 14.9271 7.89089 14.9935 8.1016 14.977C8.3123 14.9603 8.50816 14.862 8.64738 14.703L11.3461 11.4645C11.4446 11.3462 11.5073 11.2024 11.527 11.0499C11.5466 10.8972 11.5225 10.7422 11.4572 10.6029C11.3919 10.4636 11.2884 10.3457 11.1586 10.2631C11.0288 10.1805 10.8782 10.1367 10.7244 10.1367H8.67436L10.2666 8.22595Z" fill="url(#paint1_linear_451_1244)"/>
</g>
<defs>
<linearGradient id="paint0_linear_451_1244" x1="17.3783" y1="3.92164" x2="11.9969" y2="18.7011" gradientUnits="userSpaceOnUse">
<stop stop-color="#FE0F7C"/>
<stop offset="1" stop-color="#DF0066"/>
</linearGradient>
<linearGradient id="paint1_linear_451_1244" x1="21.2603" y1="7.14364" x2="19.4577" y2="15.9268" gradientUnits="userSpaceOnUse">
<stop stop-color="#FE0F7C"/>
<stop offset="1" stop-color="#DF0066"/>
</linearGradient>
<clipPath id="clip0_451_1244">
<rect width="22" height="22" fill="white" transform="translate(0.389648)"/>
</clipPath>
</defs>
</svg>
