<svg width="23" height="22" viewBox="0 0 23 22" fill="none" xmlns="http://www.w3.org/2000/svg">
<path d="M3.07478 4.57478C2 5.64865 2 7.37821 2 10.8364C2 14.2946 2 16.0242 3.07478 17.0981C4.14865 18.1729 5.87821 18.1729 9.33641 18.1729H10.712C14.1702 18.1729 15.8998 18.1729 16.9736 17.0981C18.0483 16.0242 18.0483 14.2946 18.0483 10.8364C18.0483 7.37821 18.0483 5.64865 16.9736 4.57478C15.8998 3.5 14.1702 3.5 10.712 3.5H9.33641C5.87821 3.5 4.14865 3.5 3.07478 4.57478Z" stroke="url(#paint0_linear_451_1223)" stroke-width="2"/>
<path fill-rule="evenodd" clip-rule="evenodd" d="M7.61283 7.91124C8.28063 7.37491 9.11157 7.0827 9.96813 7.08301H10.5054C10.6463 7.08287 10.7859 7.1105 10.9161 7.16433C11.0463 7.21818 11.1647 7.29715 11.2644 7.39675C11.3642 7.49636 11.4432 7.61463 11.4973 7.74482C11.5511 7.875 11.579 8.01456 11.579 8.15549C11.579 8.30356 11.699 8.4236 11.847 8.4236H13.7271C13.9404 8.4236 14.145 8.50834 14.2958 8.65919C14.4468 8.81009 14.5314 9.01465 14.5314 9.22796C14.5314 9.44136 14.4468 9.64586 14.2958 9.79662C14.145 9.94757 13.9404 10.0323 13.7271 10.0323H11.996C11.7657 10.0323 11.579 10.219 11.579 10.4494V11.224C11.579 11.4543 11.7657 11.6411 11.996 11.6411H13.7271C13.9404 11.6411 14.145 11.7257 14.2958 11.8766C14.4468 12.0274 14.5314 12.232 14.5314 12.4454C14.5314 12.6587 14.4468 12.8633 14.2958 13.0142C14.145 13.165 13.9404 13.2497 13.7271 13.2497H11.846C11.6979 13.2497 11.5778 13.3697 11.5778 13.5179C11.5778 13.6588 11.5501 13.7983 11.4962 13.9285C11.4421 14.0587 11.363 14.1769 11.2633 14.2765C11.1636 14.3762 11.0453 14.4552 10.9151 14.509C10.7849 14.5628 10.6452 14.5905 10.5043 14.5902H9.96697C9.1105 14.5906 8.27957 14.2984 7.61177 13.7621C7.03137 13.2959 6.60446 12.6697 6.38153 11.9646C6.32253 11.778 6.1555 11.6411 5.95977 11.6411H4.07624C3.85791 11.6411 3.67564 11.4726 3.66723 11.2545C3.6565 10.976 3.6565 10.6974 3.66723 10.4188C3.67564 10.2007 3.85791 10.0323 4.07624 10.0323H5.96084C6.15656 10.0323 6.32359 9.8953 6.3826 9.70868C6.60553 9.00374 7.03245 8.37739 7.61283 7.91124ZM20.5849 13.5459C20.4294 13.3905 20.3421 13.1795 20.3421 12.9596V8.53777C20.3421 8.31787 20.4294 8.10694 20.5849 7.95145C20.7403 7.79595 20.9513 7.70859 21.1711 7.70859C21.391 7.70859 21.6019 7.79595 21.7574 7.95145C21.913 8.10694 22.0003 8.31787 22.0003 8.53777V12.9596C22.0003 13.1795 21.913 13.3905 21.7574 13.5459C21.6019 13.7014 21.391 13.7887 21.1711 13.7887C20.9513 13.7887 20.7403 13.7014 20.5849 13.5459Z" fill="url(#paint1_linear_451_1223)"/>
<defs>
<linearGradient id="paint0_linear_451_1223" x1="10.0242" y1="18.1729" x2="10.0242" y2="3.5" gradientUnits="userSpaceOnUse">
<stop stop-color="#02AA93"/>
<stop offset="1" stop-color="#67FF80"/>
</linearGradient>
<linearGradient id="paint1_linear_451_1223" x1="12.8297" y1="14.5902" x2="12.8297" y2="7.08301" gradientUnits="userSpaceOnUse">
<stop stop-color="#02AA93"/>
<stop offset="1" stop-color="#67FF80"/>
</linearGradient>
</defs>
</svg>
