<svg width="23" height="22" viewBox="0 0 23 22" fill="none" xmlns="http://www.w3.org/2000/svg">
<g clip-path="url(#clip0_451_1256)">
<path d="M3.06065 4.74083C1.98633 5.81424 1.98633 7.54308 1.98633 10.9998C1.98633 14.4566 1.98633 16.1854 3.06065 17.2588C4.13407 18.3332 5.8629 18.3332 9.31964 18.3332H10.6947C14.1514 18.3332 15.8802 18.3332 16.9536 17.2588C18.0279 16.1854 18.0279 14.4566 18.0279 10.9998C18.0279 7.54308 18.0279 5.81424 16.9536 4.74083C15.8802 3.6665 14.1514 3.6665 10.6947 3.6665H9.31964C5.8629 3.6665 4.13407 3.6665 3.06065 4.74083Z" stroke="url(#paint0_linear_451_1256)" stroke-width="2"/>
<path d="M19.4033 13.6668C19.4033 13.932 19.5086 14.1864 19.6962 14.374C19.8837 14.5614 20.1381 14.6668 20.4032 14.6668C20.6684 14.6668 20.9229 14.5614 21.1103 14.374C21.298 14.1864 21.4032 13.932 21.4032 13.6668V8.33356C21.4032 8.06834 21.298 7.81393 21.1103 7.6264C20.9229 7.43886 20.6684 7.3335 20.4032 7.3335C20.1381 7.3335 19.8837 7.43886 19.6962 7.6264C19.5086 7.81393 19.4033 8.06834 19.4033 8.33356V13.6668Z" fill="url(#paint1_linear_451_1256)"/>
<path d="M9.93524 6.4165C10.6884 6.4165 11.301 6.64109 11.7731 7.08871C12.2466 7.52717 12.4804 8.08939 12.4804 8.77682C12.4804 9.07476 12.4025 9.37725 12.2451 9.68433C12.0879 9.99141 11.9488 10.2083 11.8235 10.3413C11.6633 10.5091 11.4972 10.671 11.3254 10.827L11.2659 10.8883C10.7617 11.345 10.5082 11.7972 10.5082 12.2525V12.3103C10.5082 12.5543 10.3103 12.752 10.0664 12.752H9.7795C9.53558 12.752 9.33785 12.5543 9.33785 12.3103V12.1669C9.33785 11.7942 9.41724 11.4764 9.57463 11.2121C9.73202 10.9371 10.01 10.6178 10.4071 10.2541C10.6303 10.0464 10.7877 9.8937 10.8779 9.79433C10.9933 9.66435 11.0899 9.51878 11.165 9.36203C11.2614 9.182 11.3123 8.98112 11.3132 8.77682C11.3132 8.39494 11.1894 8.08939 10.9405 7.85716C10.7006 7.62648 10.366 7.50884 9.93524 7.50884C9.36792 7.50884 8.94319 7.76105 8.65955 8.26622C8.53381 8.49017 8.26815 8.61749 8.03123 8.51833L7.7955 8.41966C7.57544 8.32755 7.46552 8.07534 7.58024 7.86619C7.76314 7.53271 8.00585 7.23428 8.29742 6.98635C8.72825 6.60442 9.27213 6.4165 9.93524 6.4165ZM9.92296 13.8932C10.1629 13.8932 10.3629 13.9759 10.5187 14.1424C10.6868 14.3074 10.7678 14.5059 10.7678 14.7381C10.7678 14.9704 10.6853 15.1689 10.5203 15.3339C10.3629 15.502 10.1629 15.5831 9.92452 15.5831C9.81296 15.585 9.70223 15.5646 9.59873 15.5229C9.49524 15.4812 9.40128 15.4191 9.32245 15.3402C9.24359 15.2612 9.18143 15.1673 9.13971 15.0639C9.09799 14.9605 9.07755 14.8497 9.07963 14.7381C9.07712 14.6265 9.09726 14.5155 9.13884 14.4119C9.18041 14.3083 9.24255 14.2141 9.32154 14.1352C9.40046 14.0563 9.4946 13.994 9.59818 13.9525C9.70186 13.9109 9.81287 13.8908 9.92452 13.8932H9.92296Z" fill="url(#paint2_linear_451_1256)" stroke="url(#paint3_linear_451_1256)" stroke-width="0.6"/>
</g>
<defs>
<linearGradient id="paint0_linear_451_1256" x1="1.98633" y1="8.57487" x2="15.5521" y2="17.2014" gradientUnits="userSpaceOnUse">
<stop stop-color="#FDBD7E"/>
<stop offset="1" stop-color="#FCF09F"/>
</linearGradient>
<linearGradient id="paint1_linear_451_1256" x1="19.4033" y1="9.78769" x2="21.7203" y2="10.155" gradientUnits="userSpaceOnUse">
<stop stop-color="#FDBD7E"/>
<stop offset="1" stop-color="#FCF09F"/>
</linearGradient>
<linearGradient id="paint2_linear_451_1256" x1="7.40063" y1="9.48422" x2="12.8661" y2="11.2451" gradientUnits="userSpaceOnUse">
<stop stop-color="#FDAC7E"/>
<stop offset="1" stop-color="#FCF39F"/>
</linearGradient>
<linearGradient id="paint3_linear_451_1256" x1="7.40063" y1="9.48422" x2="12.8661" y2="11.2451" gradientUnits="userSpaceOnUse">
<stop stop-color="#FDAC7E"/>
<stop offset="1" stop-color="#FCF39F"/>
</linearGradient>
<clipPath id="clip0_451_1256">
<rect width="22" height="22" fill="white" transform="translate(0.15332)"/>
</clipPath>
</defs>
</svg>
