<svg width="23" height="22" viewBox="0 0 23 22" fill="none" xmlns="http://www.w3.org/2000/svg">
<path fill-rule="evenodd" clip-rule="evenodd" d="M9.12755 1.03125H13.8004C14.123 1.03125 14.3845 1.29277 14.3845 1.61536V3.36768H16.1368C16.4594 3.36768 16.721 3.62919 16.721 3.95178V20.3847C16.721 20.7072 16.4594 20.9688 16.1368 20.9688H6.79111C6.46854 20.9688 6.20703 20.7072 6.20703 20.3847V3.95178C6.20703 3.62919 6.46854 3.36768 6.79111 3.36768H8.54347V1.61536C8.54347 1.29277 8.80497 1.03125 9.12755 1.03125ZM13.2163 2.19947H9.71167V3.36768H13.2163V2.19947ZM7.37525 9.24767V19.8005H15.5527V9.24767H7.37525ZM7.37525 8.07948H15.5527V4.53588H7.37525V8.07948ZM11.2409 13.9205H12.6322C12.8346 13.9205 13.0226 14.0253 13.129 14.1976C13.2355 14.3697 13.2452 14.5848 13.1546 14.7659L11.9864 17.1023C11.8425 17.3903 11.4918 17.508 11.2028 17.3635C10.9142 17.2191 10.7973 16.8683 10.9415 16.5798L11.6871 15.0887H10.2958C10.0933 15.0887 9.90535 14.9839 9.79891 14.8117C9.69248 14.6395 9.68281 14.4244 9.77332 14.2434L10.9415 11.907C11.0858 11.6184 11.4367 11.5015 11.7252 11.6458C12.0137 11.7901 12.1307 12.1409 11.9864 12.4294L11.2409 13.9205Z" fill="url(#paint0_linear_451_1263)"/>
<path d="M14.3845 3.36768H14.1267V3.6255H14.3845V3.36768ZM8.54347 3.36768V3.6255H8.80128V3.36768H8.54347ZM9.71167 2.19947V1.94165H9.45385V2.19947H9.71167ZM13.2163 2.19947H13.4741V1.94165H13.2163V2.19947ZM9.71167 3.36768H9.45385V3.6255H9.71167V3.36768ZM13.2163 3.36768V3.6255H13.4741V3.36768H13.2163ZM7.37525 19.8005H7.11744V20.0583H7.37525V19.8005ZM7.37525 9.24767V8.98985H7.11744V9.24767H7.37525ZM15.5527 19.8005V20.0583H15.8105V19.8005H15.5527ZM15.5527 9.24767H15.8105V8.98985H15.5527V9.24767ZM15.5527 8.07948V8.3373H15.8105V8.07948H15.5527ZM7.37525 8.07948H7.11744V8.3373H7.37525V8.07948ZM15.5527 4.53588H15.8105V4.27807H15.5527V4.53588ZM7.37525 4.53588V4.27807H7.11744V4.53588H7.37525ZM11.2409 13.9205L11.0103 13.8052L10.8237 14.1783H11.2409V13.9205ZM11.6871 15.0887L11.9177 15.204L12.1043 14.8309H11.6871V15.0887ZM13.8004 0.773438H9.12755V1.28906H13.8004V0.773438ZM14.6423 1.61536C14.6423 1.15038 14.2654 0.773438 13.8004 0.773438V1.28906C13.9806 1.28906 14.1267 1.43516 14.1267 1.61536H14.6423ZM14.6423 3.36768V1.61536H14.1267V3.36768H14.6423ZM16.1368 3.10987H14.3845V3.6255H16.1368V3.10987ZM16.9788 3.95178C16.9788 3.48681 16.6018 3.10987 16.1368 3.10987V3.6255C16.317 3.6255 16.4631 3.77159 16.4631 3.95178H16.9788ZM16.9788 20.3847V3.95178H16.4631V20.3847H16.9788ZM16.1368 21.2266C16.6018 21.2266 16.9788 20.8496 16.9788 20.3847H16.4631C16.4631 20.5648 16.3171 20.7109 16.1368 20.7109V21.2266ZM6.79111 21.2266H16.1368V20.7109H6.79111V21.2266ZM5.94922 20.3847C5.94922 20.8496 6.32616 21.2266 6.79111 21.2266V20.7109C6.61094 20.7109 6.46484 20.5648 6.46484 20.3847H5.94922ZM5.94922 3.95178V20.3847H6.46484V3.95178H5.94922ZM6.79111 3.10987C6.32616 3.10987 5.94922 3.48683 5.94922 3.95178H6.46484C6.46484 3.77157 6.61094 3.6255 6.79111 3.6255V3.10987ZM8.54347 3.10987H6.79111V3.6255H8.54347V3.10987ZM8.28565 1.61536V3.36768H8.80128V1.61536H8.28565ZM9.12755 0.773438C8.66257 0.773438 8.28565 1.15039 8.28565 1.61536H8.80128C8.80128 1.43515 8.94737 1.28906 9.12755 1.28906V0.773438ZM9.71167 2.45728H13.2163V1.94165H9.71167V2.45728ZM9.96948 3.36768V2.19947H9.45385V3.36768H9.96948ZM13.2163 3.10987H9.71167V3.6255H13.2163V3.10987ZM12.9585 2.19947V3.36768H13.4741V2.19947H12.9585ZM7.63306 19.8005V9.24767H7.11744V19.8005H7.63306ZM15.5527 19.5427H7.37525V20.0583H15.5527V19.5427ZM15.2949 9.24767V19.8005H15.8105V9.24767H15.2949ZM7.37525 9.50548H15.5527V8.98985H7.37525V9.50548ZM15.5527 7.82167H7.37525V8.3373H15.5527V7.82167ZM15.2949 4.53588V8.07948H15.8105V4.53588H15.2949ZM7.37525 4.7937H15.5527V4.27807H7.37525V4.7937ZM7.63306 8.07948V4.53588H7.11744V8.07948H7.63306ZM12.6322 13.6627H11.2409V14.1783H12.6322V13.6627ZM13.3484 14.062C13.195 13.8138 12.924 13.6627 12.6322 13.6627V14.1783C12.7453 14.1783 12.8503 14.2369 12.9097 14.3331L13.3484 14.062ZM13.3852 14.8812C13.5157 14.6202 13.5019 14.3102 13.3484 14.062L12.9097 14.3331C12.9692 14.4292 12.9746 14.5494 12.924 14.6505L13.3852 14.8812ZM12.217 17.2176L13.3852 14.8812L12.924 14.6505L11.7558 16.987L12.217 17.2176ZM11.0874 17.594C11.5042 17.8025 12.0095 17.6327 12.217 17.2176L11.7558 16.987C11.6754 17.1479 11.4795 17.2136 11.318 17.1329L11.0874 17.594ZM10.7109 16.4645C10.503 16.8804 10.6716 17.386 11.0874 17.594L11.318 17.1329C11.1568 17.0523 11.0915 16.8563 11.1721 16.6951L10.7109 16.4645ZM11.4565 14.9734L10.7109 16.4645L11.1721 16.6951L11.9177 15.204L11.4565 14.9734ZM10.2958 15.3465H11.6871V14.8309H10.2958V15.3465ZM9.5796 14.9472C9.73301 15.1954 10.004 15.3465 10.2958 15.3465V14.8309C10.1827 14.8309 10.0777 14.7724 10.0182 14.6761L9.5796 14.9472ZM9.54271 14.1281C9.41226 14.389 9.4262 14.699 9.5796 14.9472L10.0182 14.6761C9.95875 14.58 9.95336 14.4598 10.0039 14.3586L9.54271 14.1281ZM10.7109 11.7916L9.54271 14.1281L10.0039 14.3586L11.1721 12.0222L10.7109 11.7916ZM11.8406 11.4152C11.4247 11.2073 10.9189 11.3757 10.7109 11.7916L11.1721 12.0222C11.2527 11.8611 11.4487 11.7958 11.6099 11.8764L11.8406 11.4152ZM12.217 12.5447C12.425 12.1288 12.2564 11.6232 11.8406 11.4152L11.6099 11.8764C11.7711 11.957 11.8364 12.1529 11.7558 12.3141L12.217 12.5447ZM11.4715 14.0358L12.217 12.5447L11.7558 12.3141L11.0103 13.8052L11.4715 14.0358Z" fill="url(#paint1_linear_451_1263)"/>
<defs>
<linearGradient id="paint0_linear_451_1263" x1="11.464" y1="20.9688" x2="11.464" y2="1.03125" gradientUnits="userSpaceOnUse">
<stop stop-color="#02AA93"/>
<stop offset="1" stop-color="#67FF80"/>
</linearGradient>
<linearGradient id="paint1_linear_451_1263" x1="11.464" y1="20.9688" x2="11.464" y2="1.03125" gradientUnits="userSpaceOnUse">
<stop stop-color="#02AA93"/>
<stop offset="1" stop-color="#67FF80"/>
</linearGradient>
</defs>
</svg>
