<svg width="23" height="22" viewBox="0 0 23 22" fill="none" xmlns="http://www.w3.org/2000/svg">
<path d="M3.08054 4.58054C2 5.66016 2 7.39898 2 10.8757C2 14.3524 2 16.0912 3.08054 17.1709C4.16016 18.2514 5.89898 18.2514 9.37571 18.2514H10.7587C14.2354 18.2514 15.9742 18.2514 17.0538 17.1709C18.1343 16.0912 18.1343 14.3524 18.1343 10.8757C18.1343 7.39898 18.1343 5.66016 17.0538 4.58054C15.9742 3.5 14.2354 3.5 10.7587 3.5H9.37571C5.89898 3.5 4.16016 3.5 3.08054 4.58054Z" stroke="url(#paint0_linear_451_1226)" stroke-width="2"/>
<path d="M20.3809 13.1052C20.3809 13.32 20.4661 13.5259 20.618 13.6777C20.7698 13.8295 20.9758 13.9149 21.1904 13.9149C21.4052 13.9149 21.6111 13.8295 21.7629 13.6777C21.9149 13.5259 22.0001 13.32 22.0001 13.1052V8.7873C22.0001 8.57256 21.9149 8.36663 21.7629 8.2148C21.6111 8.06296 21.4052 7.97766 21.1904 7.97766C20.9758 7.97766 20.7698 8.06296 20.618 8.2148C20.4661 8.36663 20.3809 8.57256 20.3809 8.7873V13.1052ZM10.4775 8.22595C10.6089 8.06037 10.6703 7.84999 10.6487 7.63974C10.6269 7.4295 10.5239 7.23605 10.3616 7.10075C10.1993 6.96543 9.99041 6.89899 9.77966 6.91559C9.56899 6.9322 9.3731 7.03056 9.23392 7.18963L6.53519 10.4281C6.43673 10.5463 6.37399 10.6901 6.35431 10.8426C6.33463 10.9952 6.35882 11.1503 6.42407 11.2896C6.48931 11.4289 6.5929 11.5467 6.7227 11.6294C6.8525 11.712 7.00314 11.7559 7.15697 11.7559H9.20694L7.61469 13.6665C7.48332 13.8322 7.4219 14.0425 7.44356 14.2528C7.46521 14.463 7.56824 14.6565 7.73061 14.7918C7.89298 14.9271 8.10183 14.9935 8.31254 14.977C8.52324 14.9603 8.7191 14.862 8.85832 14.703L11.557 11.4645C11.6556 11.3462 11.7183 11.2024 11.7379 11.0499C11.7576 10.8972 11.7334 10.7422 11.6682 10.6029C11.6029 10.4636 11.4993 10.3457 11.3696 10.2631C11.2397 10.1805 11.0891 10.1367 10.9353 10.1367H8.8853L10.4775 8.22595Z" fill="url(#paint1_linear_451_1226)"/>
<defs>
<linearGradient id="paint0_linear_451_1226" x1="10.0672" y1="18.2514" x2="10.0672" y2="3.5" gradientUnits="userSpaceOnUse">
<stop stop-color="#02AA93"/>
<stop offset="1" stop-color="#67FF80"/>
</linearGradient>
<linearGradient id="paint1_linear_451_1226" x1="14.1739" y1="14.9794" x2="14.1739" y2="6.91308" gradientUnits="userSpaceOnUse">
<stop stop-color="#02AA93"/>
<stop offset="1" stop-color="#67FF80"/>
</linearGradient>
</defs>
</svg>
