<svg width="23" height="22" viewBox="0 0 23 22" fill="none" xmlns="http://www.w3.org/2000/svg">
<g clip-path="url(#clip0_451_1241)">
<path d="M2.08054 4.58054C1 5.66016 1 7.39898 1 10.8757C1 14.3524 1 16.0912 2.08054 17.1709C3.16016 18.2514 4.89898 18.2514 8.37571 18.2514H9.75866C13.2354 18.2514 14.9742 18.2514 16.0538 17.1709C17.1343 16.0912 17.1343 14.3524 17.1343 10.8757C17.1343 7.39898 17.1343 5.66016 16.0538 4.58054C14.9742 3.5 13.2354 3.5 9.75866 3.5H8.37571C4.89898 3.5 3.16016 3.5 2.08054 4.58054Z" stroke="url(#paint0_linear_451_1241)" stroke-width="2"/>
<path d="M19.3809 13.1052C19.3809 13.32 19.4661 13.5259 19.618 13.6777C19.7698 13.8295 19.9758 13.9149 20.1904 13.9149C20.4052 13.9149 20.6111 13.8295 20.7629 13.6777C20.9149 13.5259 21.0001 13.32 21.0001 13.1052V8.7873C21.0001 8.57256 20.9149 8.36663 20.7629 8.2148C20.6111 8.06296 20.4052 7.97766 20.1904 7.97766C19.9758 7.97766 19.7698 8.06296 19.618 8.2148C19.4661 8.36663 19.3809 8.57256 19.3809 8.7873V13.1052ZM9.47755 8.22595C9.60885 8.06037 9.67033 7.84999 9.64868 7.63974C9.62694 7.4295 9.5239 7.23605 9.36163 7.10075C9.19928 6.96543 8.99041 6.89899 8.77966 6.91559C8.56899 6.9322 8.3731 7.03056 8.23392 7.18963L5.53519 10.4281C5.43673 10.5463 5.37399 10.6901 5.35431 10.8426C5.33463 10.9952 5.35882 11.1503 5.42407 11.2896C5.48931 11.4289 5.5929 11.5467 5.7227 11.6294C5.8525 11.712 6.00314 11.7559 6.15697 11.7559H8.20694L6.61469 13.6665C6.48332 13.8322 6.4219 14.0425 6.44356 14.2528C6.46521 14.463 6.56824 14.6565 6.73061 14.7918C6.89298 14.9271 7.10183 14.9935 7.31254 14.977C7.52324 14.9603 7.7191 14.862 7.85832 14.703L10.557 11.4645C10.6556 11.3462 10.7183 11.2024 10.7379 11.0499C10.7576 10.8972 10.7334 10.7422 10.6682 10.6029C10.6029 10.4636 10.4993 10.3457 10.3696 10.2631C10.2397 10.1805 10.0891 10.1367 9.93529 10.1367H7.8853L9.47755 8.22595Z" fill="url(#paint1_linear_451_1241)"/>
</g>
<defs>
<linearGradient id="paint0_linear_451_1241" x1="16.5893" y1="3.92164" x2="11.2078" y2="18.7011" gradientUnits="userSpaceOnUse">
<stop stop-color="#FE0F7C"/>
<stop offset="1" stop-color="#DF0066"/>
</linearGradient>
<linearGradient id="paint1_linear_451_1241" x1="20.4713" y1="7.14364" x2="18.6686" y2="15.9268" gradientUnits="userSpaceOnUse">
<stop stop-color="#FE0F7C"/>
<stop offset="1" stop-color="#DF0066"/>
</linearGradient>
<clipPath id="clip0_451_1241">
<rect width="22" height="22" fill="white" transform="translate(0.198242)"/>
</clipPath>
</defs>
</svg>
