<svg width="23" height="22" viewBox="0 0 23 22" fill="none" xmlns="http://www.w3.org/2000/svg">
<g clip-path="url(#clip0_451_1266)">
<path fill-rule="evenodd" clip-rule="evenodd" d="M18.7465 2.74024C19.2266 2.43381 19.8642 2.57457 20.1707 3.05465C21.6417 5.35953 22.5537 7.60525 22.5537 11.0133C22.5537 14.4167 21.6448 16.7117 20.1652 18.9805C19.8541 19.4576 19.215 19.5922 18.7381 19.2811C18.261 18.9698 18.1264 18.3309 18.4375 17.8538C19.7343 15.8655 20.4912 13.956 20.4912 11.0133C20.4912 8.07543 19.7374 6.20923 18.4321 4.16435C18.1257 3.68427 18.2665 3.04668 18.7465 2.74024ZM17.9707 5.31075C17.6836 4.81888 17.0521 4.65292 16.5602 4.94005C16.0684 5.22719 15.9024 5.85871 16.1895 6.35056C17.051 7.8263 17.5297 9.02636 17.5297 11.0134C17.5297 12.9954 17.0304 14.212 16.1859 15.6825C15.9022 16.1764 16.0727 16.8067 16.5666 17.0903C17.0605 17.3739 17.6908 17.2034 17.9744 16.7096C18.9328 15.0409 19.5921 13.468 19.5921 11.0134C19.5921 8.56359 18.9601 7.00572 17.9707 5.31075ZM15.7774 7.58275C15.5184 7.07553 14.8972 6.87435 14.39 7.1334C13.8828 7.39245 13.6816 8.01364 13.9406 8.52086C14.3407 9.3043 14.5682 10.1135 14.5682 11.0133C14.5682 11.8946 14.3307 12.7297 13.9376 13.5118C13.6819 14.0207 13.8871 14.6406 14.3959 14.8963C14.9048 15.1521 15.5247 14.9469 15.7805 14.438C16.2888 13.4265 16.6307 12.2755 16.6307 11.0133C16.6307 9.74011 16.3028 8.61141 15.7774 7.58275ZM12.1948 2.7329C11.957 2.61288 11.6905 2.56108 11.425 2.58327C11.1595 2.60544 10.9054 2.70074 10.6908 2.85859C10.6764 2.86917 10.6623 2.88011 10.6485 2.89142L6.01652 6.68383H2.51121C2.12881 6.68383 1.76206 6.83573 1.49165 7.10614C1.22125 7.37655 1.06934 7.7433 1.06934 8.1257V13.8745C1.06934 14.257 1.22125 14.6237 1.49165 14.8941C1.76206 15.1645 2.12881 15.3164 2.51121 15.3164H6.01652L10.6485 19.1088C10.6623 19.1202 10.6764 19.131 10.6908 19.1417C10.9054 19.2995 11.1595 19.3948 11.425 19.417C11.6905 19.4392 11.957 19.3875 12.1948 19.2673C12.4326 19.1473 12.6326 18.9638 12.7724 18.7369C12.9122 18.5102 12.9865 18.2491 12.987 17.9827V17.9808V4.01939V4.01751C12.9865 3.75111 12.9122 3.49003 12.7724 3.26329C12.6326 3.03652 12.4326 2.85294 12.1948 2.7329ZM7.26486 8.32735L10.9245 5.33107V16.6692L7.26005 13.669L7.25498 13.6648C6.92335 13.3968 6.50932 13.2517 6.08303 13.2539H3.13184V8.74633H6.10125C6.52645 8.74837 6.93864 8.59994 7.26486 8.32735Z" fill="url(#paint0_linear_451_1266)"/>
</g>
<defs>
<linearGradient id="paint0_linear_451_1266" x1="11.8115" y1="19.4486" x2="11.8115" y2="2.57813" gradientUnits="userSpaceOnUse">
<stop stop-color="#00B59C"/>
<stop offset="1" stop-color="#9CFFAC"/>
</linearGradient>
<clipPath id="clip0_451_1266">
<rect width="22" height="22" fill="white" transform="translate(0.725586)"/>
</clipPath>
</defs>
</svg>
