<svg width="23" height="22" viewBox="0 0 23 22" fill="none" xmlns="http://www.w3.org/2000/svg">
<path opacity="0.4" d="M11.9309 7.42501C14.5457 7.42501 16.9152 8.48665 18.6269 10.1993C18.7738 10.3362 18.8916 10.5013 18.9733 10.6847C19.0551 10.8681 19.099 11.0661 19.1026 11.2669C19.1061 11.4676 19.0692 11.6671 18.994 11.8533C18.9188 12.0395 18.8068 12.2086 18.6648 12.3506C18.5228 12.4926 18.3537 12.6045 18.1675 12.6797C17.9813 12.755 17.7819 12.7919 17.5811 12.7883C17.3803 12.7848 17.1823 12.7409 16.9989 12.6591C16.8155 12.5774 16.6504 12.4596 16.5135 12.3127C15.9125 11.7099 15.1982 11.232 14.4117 10.9064C13.6252 10.5808 12.7821 10.414 11.9309 10.4156C11.0798 10.4143 10.2368 10.5813 9.45054 10.9071C8.66424 11.2328 7.9501 11.7108 7.3493 12.3136C7.0689 12.5941 6.68857 12.7518 6.29195 12.7519C5.89534 12.752 5.51494 12.5945 5.23444 12.3141C4.95391 12.0338 4.79626 11.6534 4.79616 11.2568C4.79609 10.8602 4.95356 10.4798 5.23393 10.1993C6.11252 9.31862 7.15642 8.62019 8.30568 8.1441C9.45494 7.66804 10.6869 7.42363 11.9309 7.42501ZM11.9309 3.43751C15.6462 3.43751 19.0137 4.94578 21.447 7.37915C21.5858 7.51803 21.6959 7.68292 21.7711 7.86435C21.8462 8.04582 21.8848 8.24028 21.8848 8.43666C21.8847 8.63305 21.846 8.82751 21.7708 9.0089C21.6956 9.19034 21.5854 9.35516 21.4465 9.494C21.3076 9.63281 21.1427 9.74295 20.9613 9.81806C20.7798 9.89317 20.5854 9.9318 20.389 9.93174C20.1926 9.9317 19.9982 9.89296 19.8167 9.81778C19.6353 9.74257 19.4705 9.6324 19.3317 9.49349C18.361 8.51999 17.2074 7.748 15.9373 7.22192C14.6672 6.69588 13.3056 6.42607 11.9309 6.42813C9.03996 6.42813 6.42519 7.59846 4.52914 9.49349C4.39184 9.63872 4.2268 9.75498 4.04381 9.83531C3.86081 9.91568 3.66356 9.95855 3.46371 9.96137C3.26387 9.96422 3.06548 9.92692 2.88028 9.85178C2.69509 9.77664 2.52684 9.66509 2.38548 9.52381C2.24412 9.38253 2.13252 9.21433 2.05727 9.02915C1.98203 8.84401 1.94467 8.64563 1.94741 8.44577C1.95013 8.24595 1.9929 8.04867 2.07318 7.86563C2.15346 7.68258 2.26961 7.51751 2.41478 7.38015C3.66313 6.12862 5.14644 5.13605 6.7795 4.45944C8.41258 3.78287 10.1632 3.43557 11.9309 3.43751Z" fill="url(#paint0_linear_451_1268)"/>
<path opacity="0.4" d="M14.0291 11.8288C13.3639 11.5534 12.6508 11.4119 11.9308 11.4126C11.2107 11.412 10.4976 11.5535 9.8323 11.8291C9.167 12.1047 8.56269 12.5089 8.05398 13.0186C7.77358 13.2991 7.61611 13.6795 7.61621 14.0761C7.61631 14.4727 7.77396 14.853 8.05446 15.1334C8.33499 15.4138 8.71539 15.5713 9.112 15.5712C9.50862 15.5711 9.88895 15.4134 10.1693 15.1329L10.3089 15.0023C10.7455 14.6275 11.3107 14.4032 11.9308 14.4032C12.2582 14.4025 12.5825 14.4666 12.885 14.5918C13.1875 14.7171 13.4622 14.901 13.6933 15.1329L13.8069 15.2356C14.1042 15.4786 14.4836 15.5979 14.8665 15.5688C15.2494 15.5398 15.6064 15.3645 15.8635 15.0794C16.1207 14.7942 16.2584 14.4211 16.248 14.0373C16.2376 13.6534 16.0799 13.2883 15.8076 13.0176C15.2987 12.5082 14.6944 12.1042 14.0291 11.8288Z" fill="url(#paint1_linear_451_1268)"/>
<path d="M12.9882 15.8379C12.7078 15.5574 12.3274 15.3999 11.9308 15.3999C11.5342 15.3999 11.1539 15.5574 10.8735 15.8379C10.5931 16.1183 10.4355 16.4986 10.4355 16.8952C10.4355 17.2918 10.5931 17.6721 10.8735 17.9526C11.1539 18.233 11.5342 18.3905 11.9308 18.3905C12.3274 18.3905 12.7078 18.233 12.9882 17.9526C13.2686 17.6721 13.4261 17.2918 13.4261 16.8952C13.4261 16.4986 13.2686 16.1183 12.9882 15.8379Z" fill="url(#paint2_linear_451_1268)"/>
<path d="M18.253 9.96875C16.9282 9.96875 15.7421 11.051 15.7421 12.3633V13.5557H15.2636C14.9326 13.5557 14.666 13.7589 14.666 14.0832V17.6331C14.666 17.9579 14.9326 18.2188 15.2636 18.2188H21.2423C21.5734 18.2188 21.8399 17.9579 21.8399 17.6331V14.0832C21.8399 13.7588 21.5733 13.5439 21.2423 13.5557H20.7638V12.3633C20.7638 11.0515 19.5776 9.96875 18.253 9.96875ZM18.253 11.4035C18.8491 11.4035 19.3291 11.8874 19.3291 12.488V13.5557H17.1769V12.488C17.1769 11.8874 17.6568 11.4035 18.253 11.4035Z" fill="url(#paint3_linear_451_1268)"/>
<defs>
<linearGradient id="paint0_linear_451_1268" x1="5.56094" y1="11.6846" x2="12.6598" y2="-1.52136" gradientUnits="userSpaceOnUse">
<stop stop-color="#FE0844"/>
<stop offset="1" stop-color="#FEB302"/>
</linearGradient>
<linearGradient id="paint1_linear_451_1268" x1="9.18082" y1="17.5669" x2="15.5135" y2="10.7316" gradientUnits="userSpaceOnUse">
<stop stop-color="#FE0844"/>
<stop offset="1" stop-color="#FEB302"/>
</linearGradient>
<linearGradient id="paint2_linear_451_1268" x1="9.18086" y1="17.5667" x2="15.5136" y2="10.7314" gradientUnits="userSpaceOnUse">
<stop stop-color="#FE0844"/>
<stop offset="1" stop-color="#FEB302"/>
</linearGradient>
<linearGradient id="paint3_linear_451_1268" x1="21.8187" y1="10.021" x2="13.7226" y2="17.0025" gradientUnits="userSpaceOnUse">
<stop stop-color="#FE7970"/>
<stop offset="1" stop-color="#DC3282"/>
</linearGradient>
</defs>
</svg>
