<svg width="23" height="22" viewBox="0 0 23 22" fill="none" xmlns="http://www.w3.org/2000/svg">
<path d="M12.6548 9.27054C12.9658 9.27054 13.2188 9.52352 13.2188 9.8345C13.2188 10.146 13.4713 10.3985 13.7827 10.3985C14.0942 10.3985 14.3467 10.146 14.3467 9.8345C14.3467 8.9016 13.5877 8.1426 12.6548 8.1426C12.3433 8.1426 12.0908 8.39511 12.0908 8.70657C12.0908 9.01802 12.3433 9.27054 12.6548 9.27054ZM12.6548 7.01467C14.2096 7.01467 15.4746 8.27965 15.4746 9.8345C15.4746 10.146 15.7271 10.3985 16.0386 10.3985C16.3501 10.3985 16.6026 10.146 16.6026 9.8345C16.6026 7.6577 14.8316 5.88674 12.6548 5.88674C12.3433 5.88674 12.0908 6.13924 12.0908 6.45071C12.0908 6.76216 12.3433 7.01467 12.6548 7.01467ZM12.6548 3.63086C12.3433 3.63086 12.0908 3.88338 12.0908 4.19483C12.0908 4.50629 12.3433 4.75881 12.6548 4.75881C15.4535 4.75881 17.7306 7.03575 17.7306 9.8345C17.7306 10.146 17.983 10.3985 18.2945 10.3985C18.6059 10.3985 18.8584 10.146 18.8584 9.8345C18.8584 6.41382 16.0755 3.63086 12.6548 3.63086ZM12.6548 1.375C12.3433 1.375 12.0908 1.62751 12.0908 1.93897C12.0908 2.25043 12.3433 2.50293 12.6548 2.50293C16.6974 2.50293 19.9864 5.79188 19.9864 9.8345C19.9864 10.146 20.2389 10.3985 20.5503 10.3985C20.8618 10.3985 21.1143 10.146 21.1143 9.8345C21.1143 5.16993 17.3194 1.375 12.6548 1.375ZM17.1908 15.9952L14.3196 14.081C13.6509 13.6352 12.753 13.7241 12.1847 14.2924L11.4293 15.0478C10.9859 14.9836 9.93195 14.7198 8.85072 13.6386C7.76949 12.5573 7.50573 11.5035 7.44145 11.06L8.19689 10.3045C8.76518 9.73622 8.85407 8.83838 8.40826 8.16967L6.49409 5.29844C6.2118 4.87501 5.75946 4.60341 5.25307 4.55326C4.7465 4.50309 4.2498 4.68074 3.89003 5.0406L2.6933 6.23726C2.12305 6.80754 1.8226 7.5863 1.86892 8.3739C1.95916 9.90792 2.62359 12.9944 6.05923 16.43C9.49489 19.8657 12.5814 20.5301 14.1154 20.6204C14.9023 20.6666 15.6813 20.3665 16.252 19.7959L17.4487 18.5993C17.8086 18.2394 17.9861 17.7425 17.9359 17.2361C17.8858 16.7298 17.6142 16.2775 17.1908 15.9952ZM16.6511 17.8018L15.4544 18.9984C15.1118 19.3409 14.648 19.5217 14.1816 19.4944C12.8075 19.4135 10.0286 18.8043 6.8568 15.6325C3.68496 12.4606 3.07577 9.68179 2.9949 8.30766C2.96749 7.8414 3.14827 7.37744 3.49085 7.03483L4.68755 5.83816C4.93946 5.5863 5.35837 5.62825 5.55557 5.9241L7.46976 8.79534C7.61838 9.01825 7.58874 9.31753 7.39929 9.50699L6.458 10.4482C6.35224 10.554 6.29279 10.6974 6.29279 10.847C6.29279 10.9217 6.3128 12.6958 8.05312 14.4361C9.7934 16.1764 11.5675 16.1964 11.6422 16.1964C11.7918 16.1964 11.9352 16.137 12.041 16.0312L12.9822 15.0899C13.1716 14.9005 13.4709 14.8708 13.6939 15.0195L16.5651 16.9336C16.861 17.1309 16.903 17.5498 16.6511 17.8018Z" fill="url(#paint0_linear_451_1279)"/>
<defs>
<linearGradient id="paint0_linear_451_1279" x1="9.68457" y1="13.8359" x2="16.1299" y2="6.96094" gradientUnits="userSpaceOnUse">
<stop stop-color="#9000FF"/>
<stop offset="1" stop-color="#FF81FF"/>
</linearGradient>
</defs>
</svg>
