<svg width="23" height="22" viewBox="0 0 23 22" fill="none" xmlns="http://www.w3.org/2000/svg">
<path d="M12.4634 9.27054C12.7744 9.27054 13.0273 9.52352 13.0273 9.8345C13.0273 10.146 13.2799 10.3985 13.5913 10.3985C13.9028 10.3985 14.1553 10.146 14.1553 9.8345C14.1553 8.9016 13.3963 8.1426 12.4634 8.1426C12.1519 8.1426 11.8994 8.39511 11.8994 8.70657C11.8994 9.01802 12.1519 9.27054 12.4634 9.27054ZM12.4634 7.01467C14.0182 7.01467 15.2832 8.27965 15.2832 9.8345C15.2832 10.146 15.5357 10.3985 15.8472 10.3985C16.1587 10.3985 16.4112 10.146 16.4112 9.8345C16.4112 7.6577 14.6402 5.88674 12.4634 5.88674C12.1519 5.88674 11.8994 6.13924 11.8994 6.45071C11.8994 6.76216 12.1519 7.01467 12.4634 7.01467ZM12.4634 3.63086C12.1519 3.63086 11.8994 3.88338 11.8994 4.19483C11.8994 4.50629 12.1519 4.75881 12.4634 4.75881C15.2621 4.75881 17.5392 7.03575 17.5392 9.8345C17.5392 10.146 17.7916 10.3985 18.1031 10.3985C18.4145 10.3985 18.667 10.146 18.667 9.8345C18.667 6.41382 15.8841 3.63086 12.4634 3.63086ZM12.4634 1.375C12.1519 1.375 11.8994 1.62751 11.8994 1.93897C11.8994 2.25043 12.1519 2.50293 12.4634 2.50293C16.506 2.50293 19.795 5.79188 19.795 9.8345C19.795 10.146 20.0475 10.3985 20.3589 10.3985C20.6704 10.3985 20.9229 10.146 20.9229 9.8345C20.9229 5.16993 17.128 1.375 12.4634 1.375ZM16.9994 15.9952L14.1282 14.081C13.4595 13.6352 12.5616 13.7241 11.9933 14.2924L11.2379 15.0478C10.7944 14.9836 9.74054 14.7198 8.65931 13.6386C7.57808 12.5573 7.31432 11.5035 7.25004 11.06L8.00548 10.3045C8.57377 9.73622 8.66266 8.83838 8.21686 8.16967L6.30268 5.29844C6.0204 4.87501 5.56806 4.60341 5.06166 4.55326C4.55509 4.50309 4.05839 4.68074 3.69862 5.0406L2.50189 6.23726C1.93164 6.80754 1.63119 7.5863 1.67752 8.3739C1.76775 9.90792 2.43218 12.9944 5.86782 16.43C9.30348 19.8657 12.3899 20.5301 13.9239 20.6204C14.7109 20.6666 15.4899 20.3665 16.0606 19.7959L17.2573 18.5993C17.6172 18.2394 17.7947 17.7425 17.7445 17.2361C17.6944 16.7298 17.4228 16.2775 16.9994 15.9952ZM16.4597 17.8018L15.263 18.9984C14.9204 19.3409 14.4566 19.5217 13.9902 19.4944C12.6161 19.4135 9.83721 18.8043 6.66539 15.6325C3.49356 12.4606 2.88436 9.68179 2.8035 8.30766C2.77608 7.8414 2.95686 7.37744 3.29944 7.03483L4.49614 5.83816C4.74806 5.5863 5.16697 5.62825 5.36416 5.9241L7.27835 8.79534C7.42697 9.01825 7.39734 9.31753 7.20788 9.50699L6.26659 10.4482C6.16083 10.554 6.10138 10.6974 6.10138 10.847C6.10138 10.9217 6.12139 12.6958 7.86171 14.4361C9.602 16.1764 11.3761 16.1964 11.4508 16.1964C11.6004 16.1964 11.7438 16.137 11.8496 16.0312L12.7908 15.0899C12.9802 14.9005 13.2795 14.8708 13.5025 15.0195L16.3737 16.9336C16.6696 17.1309 16.7116 17.5498 16.4597 17.8018Z" fill="url(#paint0_linear_451_1277)"/>
<defs>
<linearGradient id="paint0_linear_451_1277" x1="9.49317" y1="13.8359" x2="15.9385" y2="6.96094" gradientUnits="userSpaceOnUse">
<stop stop-color="#9000FF"/>
<stop offset="1" stop-color="#FF81FF"/>
</linearGradient>
</defs>
</svg>
