<svg width="23" height="22" viewBox="0 0 23 22" fill="none" xmlns="http://www.w3.org/2000/svg">
<path d="M16.229 1.375C13.4306 1.375 11.1533 3.65294 11.1533 6.45071C11.1533 9.24945 13.4303 11.5264 16.229 11.5264C19.0332 11.5264 21.3047 9.24512 21.3047 6.45071C21.3047 3.65197 19.0277 1.375 16.229 1.375ZM16.229 10.3985C14.0522 10.3985 12.2813 8.62751 12.2813 6.45071C12.2813 5.56524 12.5743 4.74696 13.0685 4.08769L18.592 9.61125C17.9327 10.1054 17.1144 10.3985 16.229 10.3985ZM19.3895 8.81368L13.866 3.29015C14.5253 2.79598 15.3435 2.50293 16.229 2.50293C18.4058 2.50293 20.1768 4.2739 20.1768 6.45071C20.1768 7.33617 19.8838 8.1544 19.3895 8.81368ZM17.3812 15.9952L14.51 14.081C13.8413 13.6352 12.9435 13.7241 12.3752 14.2924L11.6197 15.0478C11.1763 14.9836 10.1224 14.7198 9.04115 13.6386C7.95992 12.5573 7.69616 11.5035 7.63188 11.06L8.38732 10.3046C8.95561 9.73622 9.0445 8.8384 8.59869 8.16967L6.68452 5.29844C6.40223 4.87501 5.94989 4.60341 5.4435 4.55326C4.93689 4.50309 4.44023 4.68074 4.08046 5.04056L2.88373 6.23726C2.31348 6.80754 2.01303 7.5863 2.05935 8.3739C2.14959 9.90794 2.81401 12.9944 6.24966 16.43C9.68532 19.8657 12.7718 20.5301 14.3058 20.6204C15.0924 20.6666 15.8715 20.3668 16.4424 19.7959L17.6391 18.5993C17.999 18.2394 18.1766 17.7425 18.1264 17.2361C18.0764 16.7298 17.8047 16.2775 17.3812 15.9952ZM16.8415 17.8018L15.6449 18.9984C15.3022 19.3409 14.8384 19.5217 14.372 19.4944C12.9979 19.4135 10.219 18.8043 7.04723 15.6325C3.87539 12.4606 3.2662 9.68179 3.18533 8.30766C3.15792 7.8414 3.3387 7.37744 3.68128 7.03483L4.87798 5.83816C5.13041 5.58577 5.54922 5.62889 5.746 5.9241L7.66019 8.79534C7.80881 9.01826 7.77917 9.31753 7.58972 9.50699L6.64843 10.4482C6.54267 10.554 6.48322 10.6974 6.48322 10.847C6.48322 10.9217 6.50323 12.6958 8.24355 14.4361C9.98383 16.1764 11.7579 16.1964 11.8326 16.1964C11.9822 16.1964 12.1256 16.137 12.2314 16.0312L13.1727 15.0899C13.3621 14.9005 13.6614 14.8708 13.8843 15.0195L16.7555 16.9336C17.052 17.1313 17.0929 17.5503 16.8415 17.8018Z" fill="url(#paint0_linear_451_1281)"/>
<defs>
<linearGradient id="paint0_linear_451_1281" x1="8.92969" y1="17.7031" x2="16.6641" y2="6.70312" gradientUnits="userSpaceOnUse">
<stop stop-color="#C92FFF"/>
<stop offset="1" stop-color="#FF0A18"/>
</linearGradient>
</defs>
</svg>
