<svg width="23" height="22" viewBox="0 0 23 22" fill="none" xmlns="http://www.w3.org/2000/svg">
<g clip-path="url(#clip0_451_1273)">
<path d="M16.3066 0C13.1084 0 10.5058 2.60335 10.5058 5.80078C10.5058 8.99933 13.108 11.6016 16.3066 11.6016C19.5113 11.6016 22.1074 8.99439 22.1074 5.80078C22.1074 2.60223 19.5051 0 16.3066 0ZM16.3066 10.3125C13.8188 10.3125 11.7949 8.28854 11.7949 5.80078C11.7949 4.78882 12.1298 3.85365 12.6946 3.1002L19.0071 9.41282C18.2537 9.9776 17.3185 10.3125 16.3066 10.3125ZM19.9186 8.50132L13.6061 2.18874C14.3595 1.62396 15.2946 1.28906 16.3066 1.28906C18.7944 1.28906 20.8183 3.31302 20.8183 5.80078C20.8183 6.81274 20.4834 7.74787 19.9186 8.50132ZM17.6234 16.7087L14.342 14.5211C13.5778 14.0116 12.5517 14.1132 11.9022 14.7627L11.0388 15.6261C10.5321 15.5526 9.32762 15.2511 8.09192 14.0155C6.85622 12.7798 6.5548 11.5754 6.48132 11.0685L7.34469 10.2052C7.99417 9.55565 8.09574 8.52955 7.58626 7.76531L5.39864 4.48392C5.07603 4 4.55907 3.6896 3.98033 3.63228C3.40137 3.57496 2.83375 3.77798 2.42258 4.1892L1.05488 5.55685C0.403178 6.2086 0.0598144 7.09861 0.112752 7.99872C0.215877 9.75189 0.975221 13.2792 4.90166 17.2057C8.8281 21.1321 12.3555 21.8915 14.1086 21.9946C15.0076 22.0475 15.898 21.7049 16.5505 21.0524L17.9181 19.6848C18.3294 19.2735 18.5323 18.7057 18.475 18.127C18.4177 17.5483 18.1073 17.0313 17.6234 16.7087ZM17.0066 18.7733L15.639 20.1409C15.2474 20.5325 14.7173 20.739 14.1843 20.7078C12.6139 20.6154 9.43809 19.9191 5.81316 16.2942C2.18823 12.6692 1.49201 9.49343 1.39958 7.92301C1.36826 7.39015 1.57485 6.85992 1.96638 6.46834L3.33403 5.10073C3.62253 4.81229 4.10115 4.86157 4.32605 5.19896L6.51368 8.48036C6.68353 8.73512 6.64967 9.07715 6.43315 9.29367L5.35739 10.3694C5.23652 10.4903 5.16858 10.6542 5.16858 10.8252C5.16858 10.9105 5.19144 12.938 7.18038 14.9269C9.16928 16.9159 11.1968 16.9387 11.2821 16.9387C11.4531 16.9387 11.617 16.8708 11.7379 16.7499L12.8136 15.6741C13.0301 15.4576 13.3722 15.4238 13.6269 15.5936L16.9083 17.7812C17.2471 18.0071 17.2939 18.486 17.0066 18.7733Z" fill="url(#paint0_linear_451_1273)"/>
</g>
<defs>
<linearGradient id="paint0_linear_451_1273" x1="11.1074" y1="22" x2="11.1074" y2="0" gradientUnits="userSpaceOnUse">
<stop stop-color="#FD3A84"/>
<stop offset="1" stop-color="#FFA68D"/>
</linearGradient>
<clipPath id="clip0_451_1273">
<rect width="22" height="22" fill="white" transform="translate(0.107422)"/>
</clipPath>
</defs>
</svg>
