<svg width="23" height="22" viewBox="0 0 23 22" fill="none" xmlns="http://www.w3.org/2000/svg">
<path d="M20.313 5.86523H17.2397L16.2682 3.9211C16.1723 3.73 15.9774 3.60938 15.7637 3.60938H11.252C11.0382 3.60938 10.8433 3.73 10.7475 3.9211L9.77594 5.86523H5.01074V5.30128C5.01074 4.98955 4.7585 4.7373 4.44677 4.7373C4.13506 4.7373 3.88281 4.98955 3.88281 5.30128V5.86523H2.19091C1.8792 5.86523 1.62695 6.11748 1.62695 6.42919V17.7085C1.62695 18.0202 1.8792 18.2724 2.19091 18.2724H20.313C20.6246 18.2724 20.877 18.0202 20.877 17.7085V6.42919C20.877 6.11748 20.6246 5.86523 20.313 5.86523ZM2.75488 9.24902H5.57472C5.88535 9.24902 6.13867 9.50183 6.13867 9.813V14.3247C6.13867 14.6359 5.88535 14.8887 5.57472 14.8887H2.75488V9.24902ZM19.7491 17.1445H13.5078H2.75488V16.0166H5.57472C6.50765 16.0166 7.2666 15.2577 7.2666 14.3247V9.813C7.2666 8.88004 6.50765 8.12109 5.57472 8.12109H2.75488V6.99316H10.124C10.3377 6.99316 10.5327 6.87254 10.6285 6.68143L11.6 4.7373H15.4156L16.3871 6.68143C16.483 6.87254 16.6779 6.99316 16.8916 6.99316H19.7491V17.1445ZM18.5835 12.0689C18.5835 9.26996 16.3067 6.99316 13.5078 6.99316C10.7089 6.99316 8.43214 9.26996 8.43214 12.0689C8.43214 14.8677 10.7089 17.1445 13.5078 17.1445C16.3067 17.1445 18.5835 14.8677 18.5835 12.0689ZM13.5078 16.0166C11.3312 16.0166 9.56005 14.2454 9.56005 12.0689C9.56005 9.89228 11.3312 8.12109 13.5078 8.12109C15.6844 8.12109 17.4556 9.89228 17.4556 12.0689C17.4556 14.2454 15.6844 16.0166 13.5078 16.0166ZM13.5078 9.24902C11.9525 9.24902 10.688 10.5141 10.688 12.0689C10.688 13.6236 11.9525 14.8887 13.5078 14.8887C15.0631 14.8887 16.3276 13.6236 16.3276 12.0689C16.3276 10.5141 15.0631 9.24902 13.5078 9.24902ZM13.5078 13.7607C12.5749 13.7607 11.8159 13.0018 11.8159 12.0689C11.8159 11.1359 12.5749 10.377 13.5078 10.377C14.4408 10.377 15.1997 11.1359 15.1997 12.0689C15.1997 13.0018 14.4408 13.7607 13.5078 13.7607Z" fill="url(#paint0_linear_451_1287)"/>
<path d="M13.5078 17.1445H19.7491V6.99316H16.8916C16.6779 6.99316 16.483 6.87254 16.3871 6.68143L15.4156 4.7373H11.6L10.6285 6.68143C10.5327 6.87254 10.3377 6.99316 10.124 6.99316H2.75488V8.12109H5.57472C6.50765 8.12109 7.2666 8.88004 7.2666 9.813V14.3247C7.2666 15.2577 6.50765 16.0166 5.57472 16.0166H2.75488V17.1445H13.5078ZM13.5078 17.1445C10.7089 17.1445 8.43214 14.8677 8.43214 12.0689C8.43214 9.26996 10.7089 6.99316 13.5078 6.99316C16.3067 6.99316 18.5835 9.26996 18.5835 12.0689C18.5835 14.8677 16.3067 17.1445 13.5078 17.1445ZM20.313 5.86523H17.2397L16.2682 3.9211C16.1723 3.73 15.9774 3.60938 15.7637 3.60938H11.252C11.0382 3.60938 10.8433 3.73 10.7475 3.9211L9.77594 5.86523H5.01074V5.30128C5.01074 4.98955 4.7585 4.7373 4.44677 4.7373C4.13506 4.7373 3.88281 4.98955 3.88281 5.30128V5.86523H2.19091C1.8792 5.86523 1.62695 6.11748 1.62695 6.42919V17.7085C1.62695 18.0202 1.8792 18.2724 2.19091 18.2724H20.313C20.6246 18.2724 20.877 18.0202 20.877 17.7085V6.42919C20.877 6.11748 20.6246 5.86523 20.313 5.86523ZM2.75488 9.24902H5.57472C5.88535 9.24902 6.13867 9.50183 6.13867 9.813V14.3247C6.13867 14.6359 5.88535 14.8887 5.57472 14.8887H2.75488V9.24902ZM13.5078 16.0166C11.3312 16.0166 9.56005 14.2454 9.56005 12.0689C9.56005 9.89228 11.3312 8.12109 13.5078 8.12109C15.6844 8.12109 17.4556 9.89228 17.4556 12.0689C17.4556 14.2454 15.6844 16.0166 13.5078 16.0166ZM13.5078 9.24902C11.9525 9.24902 10.688 10.5141 10.688 12.0689C10.688 13.6236 11.9525 14.8887 13.5078 14.8887C15.0631 14.8887 16.3276 13.6236 16.3276 12.0689C16.3276 10.5141 15.0631 9.24902 13.5078 9.24902ZM13.5078 13.7607C12.5749 13.7607 11.8159 13.0018 11.8159 12.0689C11.8159 11.1359 12.5749 10.377 13.5078 10.377C14.4408 10.377 15.1997 11.1359 15.1997 12.0689C15.1997 13.0018 14.4408 13.7607 13.5078 13.7607Z" stroke="url(#paint1_linear_451_1287)" stroke-width="0.6"/>
<defs>
<linearGradient id="paint0_linear_451_1287" x1="16.8379" y1="12.9766" x2="4.97852" y2="13.3203" gradientUnits="userSpaceOnUse">
<stop stop-color="#FD1E00"/>
<stop offset="1" stop-color="#FFDE00"/>
</linearGradient>
<linearGradient id="paint1_linear_451_1287" x1="16.8379" y1="12.9766" x2="4.97852" y2="13.3203" gradientUnits="userSpaceOnUse">
<stop stop-color="#FD1E00"/>
<stop offset="1" stop-color="#FFDE00"/>
</linearGradient>
</defs>
</svg>
