<svg width="23" height="22" viewBox="0 0 23 22" fill="none" xmlns="http://www.w3.org/2000/svg">
<path d="M16.6445 19.4972H15.8652L14.3583 16.408C17.0375 15.1439 18.9004 12.4242 18.9004 9.27051C18.9004 4.91685 15.3585 1.375 11.0049 1.375C6.65122 1.375 3.10938 4.91685 3.10938 9.27051C3.10938 12.4361 4.98618 15.1649 7.68173 16.4226L6.27571 19.4972H5.36523C5.0535 19.4972 4.80128 19.7493 4.80128 20.0611C4.80128 20.3727 5.0535 20.625 5.36523 20.625H16.6445C16.9563 20.625 17.2085 20.3727 17.2085 20.0611C17.2085 19.7493 16.9563 19.4972 16.6445 19.4972ZM4.2373 9.27051C4.2373 5.53864 7.27301 2.50293 11.0049 2.50293C14.7368 2.50293 17.7724 5.53864 17.7724 9.27051C17.7724 13.0024 14.7368 16.0381 11.0049 16.0381C7.27301 16.0381 4.2373 13.0024 4.2373 9.27051ZM7.52142 19.4972L8.73636 16.8302C9.45555 17.0464 10.2162 17.166 11.0049 17.166C11.8046 17.166 12.5762 17.0444 13.3042 16.8223L14.604 19.4972H7.52142ZM14.9526 9.27051C14.9526 7.09393 13.1815 5.32276 11.0049 5.32276C8.82831 5.32276 7.05714 7.09393 7.05714 9.27051C7.05714 11.4471 8.82831 13.2183 11.0049 13.2183C13.1815 13.2183 14.9526 11.4471 14.9526 9.27051ZM8.18505 9.27051C8.18505 7.71573 9.4501 6.45068 11.0049 6.45068C12.5597 6.45068 13.8247 7.71573 13.8247 9.27051C13.8247 10.8253 12.5597 12.0903 11.0049 12.0903C9.4501 12.0903 8.18505 10.8253 8.18505 9.27051Z" fill="url(#paint0_linear_451_1297)" stroke="url(#paint1_linear_451_1297)"/>
<path fill-rule="evenodd" clip-rule="evenodd" d="M12.6972 9.2705C12.6972 8.33754 11.9383 7.57861 11.0054 7.57861C10.0724 7.57861 9.31348 8.33754 9.31348 9.2705C9.31348 10.2035 10.0724 10.9624 11.0054 10.9624C11.9383 10.9624 12.6972 10.2035 12.6972 9.2705ZM10.4414 9.2705C10.4414 8.95934 10.6942 8.70653 11.0054 8.70653C11.3165 8.70653 11.5693 8.95934 11.5693 9.2705C11.5693 9.58166 11.3165 9.83447 11.0054 9.83447C10.6942 9.83447 10.4414 9.58166 10.4414 9.2705Z" fill="#FF0000"/>
<defs>
<linearGradient id="paint0_linear_451_1297" x1="11.0156" y1="1.375" x2="12.3739" y2="20.5288" gradientUnits="userSpaceOnUse">
<stop stop-color="#FF00A8"/>
<stop offset="1" stop-color="#9A06F4"/>
</linearGradient>
<linearGradient id="paint1_linear_451_1297" x1="11.0156" y1="1.375" x2="12.3739" y2="20.5288" gradientUnits="userSpaceOnUse">
<stop stop-color="#FF00A8"/>
<stop offset="1" stop-color="#9A06F4"/>
</linearGradient>
</defs>
</svg>
