<svg width="23" height="22" viewBox="0 0 23 22" fill="none" xmlns="http://www.w3.org/2000/svg">
<path d="M17.4541 19.4972H16.6748L15.1679 16.408C17.8471 15.1439 19.71 12.4242 19.71 9.27051C19.71 4.91685 16.1681 1.375 11.8145 1.375C7.46079 1.375 3.91895 4.91685 3.91895 9.27051C3.91895 12.4361 5.79575 15.1649 8.4913 16.4226L7.08528 19.4972H6.1748C5.86308 19.4972 5.61085 19.7493 5.61085 20.0611C5.61085 20.3727 5.86308 20.625 6.1748 20.625H17.4541C17.7658 20.625 18.018 20.3727 18.018 20.0611C18.018 19.7493 17.7658 19.4972 17.4541 19.4972ZM5.04688 9.27051C5.04688 5.53864 8.08258 2.50293 11.8145 2.50293C15.5463 2.50293 18.5819 5.53864 18.5819 9.27051C18.5819 13.0024 15.5463 16.0381 11.8145 16.0381C8.08258 16.0381 5.04688 13.0024 5.04688 9.27051ZM8.33099 19.4972L9.54593 16.8302C10.2651 17.0464 11.0258 17.166 11.8145 17.166C12.6142 17.166 13.3857 17.0444 14.1138 16.8223L15.4136 19.4972H8.33099ZM15.7622 9.27051C15.7622 7.09393 13.991 5.32276 11.8145 5.32276C9.63788 5.32276 7.86671 7.09393 7.86671 9.27051C7.86671 11.4471 9.63788 13.2183 11.8145 13.2183C13.991 13.2183 15.7622 11.4471 15.7622 9.27051ZM8.99462 9.27051C8.99462 7.71573 10.2597 6.45068 11.8145 6.45068C13.3692 6.45068 14.6343 7.71573 14.6343 9.27051C14.6343 10.8253 13.3692 12.0903 11.8145 12.0903C10.2597 12.0903 8.99462 10.8253 8.99462 9.27051Z" fill="url(#paint0_linear_451_1294)" stroke="url(#paint1_linear_451_1294)"/>
<path fill-rule="evenodd" clip-rule="evenodd" d="M13.5068 9.2705C13.5068 8.33754 12.7479 7.57861 11.8149 7.57861C10.882 7.57861 10.123 8.33754 10.123 9.2705C10.123 10.2035 10.882 10.9624 11.8149 10.9624C12.7479 10.9624 13.5068 10.2035 13.5068 9.2705ZM11.251 9.2705C11.251 8.95934 11.5038 8.70653 11.8149 8.70653C12.1261 8.70653 12.3789 8.95934 12.3789 9.2705C12.3789 9.58166 12.1261 9.83447 11.8149 9.83447C11.5038 9.83447 11.251 9.58166 11.251 9.2705Z" fill="#FF0000"/>
<defs>
<linearGradient id="paint0_linear_451_1294" x1="11.8252" y1="1.375" x2="13.1834" y2="20.5288" gradientUnits="userSpaceOnUse">
<stop stop-color="#FF00A8"/>
<stop offset="1" stop-color="#9A06F4"/>
</linearGradient>
<linearGradient id="paint1_linear_451_1294" x1="11.8252" y1="1.375" x2="13.1834" y2="20.5288" gradientUnits="userSpaceOnUse">
<stop stop-color="#FF00A8"/>
<stop offset="1" stop-color="#9A06F4"/>
</linearGradient>
</defs>
</svg>
