<svg width="23" height="22" viewBox="0 0 23 22" fill="none" xmlns="http://www.w3.org/2000/svg">
<path d="M18.2265 8.625C19.7799 8.625 21.0391 7.3658 21.0391 5.81249C21.0391 4.25919 19.7799 3 18.2265 3C16.6733 3 15.4141 4.25919 15.4141 5.81249C15.4141 7.3658 16.6733 8.625 18.2265 8.625Z" fill="url(#paint0_linear_451_1302)"/>
<path fill-rule="evenodd" clip-rule="evenodd" d="M4.49609 8.01173C4.49609 7.82187 4.64999 7.66798 4.83984 7.66798H14.2835C14.5546 7.66798 14.7234 7.36551 14.6102 7.1193C14.3774 6.6132 14.2369 6.06871 14.196 5.51165C14.1822 5.32223 14.0296 5.16797 13.8396 5.16797H3.55858C3.3044 5.17453 3.06312 5.28141 2.88746 5.46526C2.71181 5.64912 2.61605 5.895 2.62109 6.14922V16.0742C2.62109 16.2641 2.77499 16.418 2.96484 16.418H4.15234C4.34218 16.418 4.49609 16.2641 4.49609 16.0742V8.01173ZM20.1211 10.1365C20.1211 9.90804 19.902 9.74328 19.6771 9.7834C19.3356 9.84431 18.9881 9.86523 18.6418 9.84565C18.4324 9.83382 18.2461 9.99369 18.2461 10.2034V16.0743C18.2461 16.2641 18.3999 16.4181 18.5899 16.4181H19.7773C19.9671 16.4181 20.1211 16.2641 20.1211 16.0743V10.1365ZM1 17.8243C1 18.3399 1.42188 18.7617 1.9375 18.7617H20.6874C21.203 18.7617 21.625 18.3399 21.625 17.8243C21.625 17.3087 21.203 16.8867 20.6874 16.8867H1.9375C1.42188 16.8867 1 17.3087 1 17.8243Z" fill="url(#paint1_linear_451_1302)"/>
<defs>
<linearGradient id="paint0_linear_451_1302" x1="18.2265" y1="8.625" x2="18.2265" y2="3" gradientUnits="userSpaceOnUse">
<stop stop-color="#FD2E00"/>
<stop offset="1" stop-color="#FF9900"/>
</linearGradient>
<linearGradient id="paint1_linear_451_1302" x1="11.3125" y1="18.7617" x2="16.7266" y2="7.03912" gradientUnits="userSpaceOnUse">
<stop stop-color="#FD5900"/>
<stop offset="1" stop-color="#FFDE00"/>
</linearGradient>
</defs>
</svg>
