<svg width="23" height="22" viewBox="0 0 23 22" fill="none" xmlns="http://www.w3.org/2000/svg">
<path opacity="0.4" d="M20.6523 2.92188H2.90625C2.49091 2.92188 2.1543 3.25849 2.1543 3.67383V15.5046C2.1543 15.704 2.23346 15.8953 2.37445 16.0362L5.33218 18.9939C5.47317 19.135 5.66453 19.2142 5.86398 19.2142H17.6946C17.894 19.2142 18.0856 19.135 18.2263 18.9939L21.1841 16.0362C21.3252 15.8953 21.4043 15.704 21.4043 15.5046V3.67383C21.4043 3.25849 21.0678 2.92188 20.6523 2.92188Z" fill="url(#paint0_linear_451_1314)"/>
<path opacity="0.6" fill-rule="evenodd" clip-rule="evenodd" d="M6.81125 16.036C6.95238 16.177 7.14361 16.2563 7.34305 16.2563H16.2161C16.4155 16.2563 16.6068 16.177 16.7479 16.036L18.2266 14.5573C18.3677 14.4163 18.4468 14.2249 18.4468 14.0256V6.63135C18.4468 6.21601 18.1102 5.87939 17.6949 5.87939H5.86426C5.44892 5.87939 5.1123 6.21601 5.1123 6.63135V14.0256C5.1123 14.2249 5.19147 14.4163 5.33246 14.5573L6.81125 16.036ZM6.61621 7.3833H16.9429V13.7141L15.9046 14.7524H7.65456L6.61621 13.7141V7.3833Z" fill="url(#paint1_linear_451_1314)"/>
<path d="M11.0273 9.58936V11.0682C11.0273 11.4835 11.364 11.8201 11.7793 11.8201C12.1946 11.8201 12.5312 11.4835 12.5312 11.0682V9.58936C12.5312 9.17404 12.1946 8.8374 11.7793 8.8374C11.364 8.8374 11.0273 9.17404 11.0273 9.58936Z" fill="url(#paint2_linear_451_1314)"/>
<path d="M13.9854 9.58936V11.0682C13.9854 11.4835 14.322 11.8201 14.7373 11.8201C15.1526 11.8201 15.4893 11.4835 15.4893 11.0682V9.58936C15.4893 9.17404 15.1526 8.8374 14.7373 8.8374C14.322 8.8374 13.9854 9.17404 13.9854 9.58936Z" fill="url(#paint3_linear_451_1314)"/>
<path d="M8.06934 9.58936V11.0682C8.06934 11.4835 8.40595 11.8201 8.82129 11.8201C9.23663 11.8201 9.57324 11.4835 9.57324 11.0682V9.58936C9.57324 9.17404 9.23663 8.8374 8.82129 8.8374C8.40595 8.8374 8.06934 9.17404 8.06934 9.58936Z" fill="url(#paint4_linear_451_1314)"/>
<defs>
<linearGradient id="paint0_linear_451_1314" x1="2.1543" y1="11.0681" x2="21.4043" y2="11.0681" gradientUnits="userSpaceOnUse">
<stop stop-color="#9EE170"/>
<stop offset="1" stop-color="#E5ECA2"/>
</linearGradient>
<linearGradient id="paint1_linear_451_1314" x1="5.1123" y1="11.0679" x2="18.4468" y2="11.0679" gradientUnits="userSpaceOnUse">
<stop stop-color="#9EE170"/>
<stop offset="1" stop-color="#E5ECA2"/>
</linearGradient>
<linearGradient id="paint2_linear_451_1314" x1="11.0273" y1="10.3287" x2="12.5312" y2="10.3287" gradientUnits="userSpaceOnUse">
<stop stop-color="#9EE170"/>
<stop offset="1" stop-color="#E5ECA2"/>
</linearGradient>
<linearGradient id="paint3_linear_451_1314" x1="13.9854" y1="10.3287" x2="15.4893" y2="10.3287" gradientUnits="userSpaceOnUse">
<stop stop-color="#9EE170"/>
<stop offset="1" stop-color="#E5ECA2"/>
</linearGradient>
<linearGradient id="paint4_linear_451_1314" x1="8.06934" y1="10.3287" x2="9.57324" y2="10.3287" gradientUnits="userSpaceOnUse">
<stop stop-color="#9EE170"/>
<stop offset="1" stop-color="#E5ECA2"/>
</linearGradient>
</defs>
</svg>
