<svg width="23" height="22" viewBox="0 0 23 22" fill="none" xmlns="http://www.w3.org/2000/svg">
<path opacity="0.4" d="M20.8428 2.92188H3.09668C2.68134 2.92188 2.34473 3.25849 2.34473 3.67383V15.5046C2.34473 15.704 2.42389 15.8953 2.56488 16.0362L5.52261 18.9939C5.6636 19.135 5.85496 19.2142 6.05441 19.2142H17.885C18.0845 19.2142 18.276 19.135 18.4168 18.9939L21.3746 16.0362C21.5157 15.8953 21.5947 15.704 21.5947 15.5046V3.67383C21.5947 3.25849 21.2582 2.92188 20.8428 2.92188Z" fill="url(#paint0_linear_451_1308)"/>
<path opacity="0.6" fill-rule="evenodd" clip-rule="evenodd" d="M7.00168 16.036C7.14281 16.177 7.33404 16.2563 7.53348 16.2563H16.4065C16.606 16.2563 16.7972 16.177 16.9383 16.036L18.417 14.5573C18.5581 14.4163 18.6372 14.2249 18.6372 14.0256V6.63135C18.6372 6.21601 18.3007 5.87939 17.8853 5.87939H6.05469C5.63935 5.87939 5.30273 6.21601 5.30273 6.63135V14.0256C5.30273 14.2249 5.3819 14.4163 5.52289 14.5573L7.00168 16.036ZM6.80664 7.3833H17.1334V13.7141L16.095 14.7524H7.84499L6.80664 13.7141V7.3833Z" fill="url(#paint1_linear_451_1308)"/>
<path d="M11.2178 9.58936V11.0682C11.2178 11.4835 11.5544 11.8201 11.9697 11.8201C12.3851 11.8201 12.7217 11.4835 12.7217 11.0682V9.58936C12.7217 9.17404 12.3851 8.8374 11.9697 8.8374C11.5544 8.8374 11.2178 9.17404 11.2178 9.58936Z" fill="url(#paint2_linear_451_1308)"/>
<path d="M14.1758 9.58936V11.0682C14.1758 11.4835 14.5124 11.8201 14.9277 11.8201C15.3431 11.8201 15.6797 11.4835 15.6797 11.0682V9.58936C15.6797 9.17404 15.3431 8.8374 14.9277 8.8374C14.5124 8.8374 14.1758 9.17404 14.1758 9.58936Z" fill="url(#paint3_linear_451_1308)"/>
<path d="M8.25977 9.58936V11.0682C8.25977 11.4835 8.59638 11.8201 9.01172 11.8201C9.42705 11.8201 9.76367 11.4835 9.76367 11.0682V9.58936C9.76367 9.17404 9.42705 8.8374 9.01172 8.8374C8.59638 8.8374 8.25977 9.17404 8.25977 9.58936Z" fill="url(#paint4_linear_451_1308)"/>
<defs>
<linearGradient id="paint0_linear_451_1308" x1="11.9697" y1="19.2143" x2="11.9697" y2="2.92188" gradientUnits="userSpaceOnUse">
<stop stop-color="#02AA93"/>
<stop offset="1" stop-color="#67FF80"/>
</linearGradient>
<linearGradient id="paint1_linear_451_1308" x1="11.97" y1="16.2563" x2="11.97" y2="5.87939" gradientUnits="userSpaceOnUse">
<stop stop-color="#02AA93"/>
<stop offset="1" stop-color="#67FF80"/>
</linearGradient>
<linearGradient id="paint2_linear_451_1308" x1="11.9697" y1="11.8201" x2="11.9697" y2="8.8374" gradientUnits="userSpaceOnUse">
<stop stop-color="#02AA93"/>
<stop offset="1" stop-color="#67FF80"/>
</linearGradient>
<linearGradient id="paint3_linear_451_1308" x1="14.9277" y1="11.8201" x2="14.9277" y2="8.8374" gradientUnits="userSpaceOnUse">
<stop stop-color="#02AA93"/>
<stop offset="1" stop-color="#67FF80"/>
</linearGradient>
<linearGradient id="paint4_linear_451_1308" x1="9.01172" y1="11.8201" x2="9.01172" y2="8.8374" gradientUnits="userSpaceOnUse">
<stop stop-color="#02AA93"/>
<stop offset="1" stop-color="#67FF80"/>
</linearGradient>
</defs>
</svg>
