<svg width="23" height="22" viewBox="0 0 23 22" fill="none" xmlns="http://www.w3.org/2000/svg">
<path opacity="0.4" d="M20.0342 2.92188H2.28809C1.87275 2.92188 1.53613 3.25849 1.53613 3.67383V15.5046C1.53613 15.704 1.61529 15.8953 1.75629 16.0362L4.71402 18.9939C4.855 19.135 5.04637 19.2142 5.24581 19.2142H17.0765C17.2759 19.2142 17.4674 19.135 17.6082 18.9939L20.566 16.0362C20.7071 15.8953 20.7861 15.704 20.7861 15.5046V3.67383C20.7861 3.25849 20.4496 2.92188 20.0342 2.92188Z" fill="url(#paint0_linear_451_1320)"/>
<path opacity="0.6" fill-rule="evenodd" clip-rule="evenodd" d="M6.19309 16.036C6.33422 16.177 6.52545 16.2563 6.72489 16.2563H15.5979C15.7974 16.2563 15.9886 16.177 16.1297 16.036L17.6084 14.5573C17.7496 14.4163 17.8286 14.2249 17.8286 14.0256V6.63135C17.8286 6.21601 17.4921 5.87939 17.0767 5.87939H5.24609C4.83076 5.87939 4.49414 6.21601 4.49414 6.63135V14.0256C4.49414 14.2249 4.57331 14.4163 4.7143 14.5573L6.19309 16.036ZM5.99805 7.3833H16.3248V13.7141L15.2864 14.7524H7.0364L5.99805 13.7141V7.3833Z" fill="url(#paint1_linear_451_1320)"/>
<defs>
<linearGradient id="paint0_linear_451_1320" x1="20.7291" y1="3.02516" x2="4.76585" y2="21.7293" gradientUnits="userSpaceOnUse">
<stop stop-color="#FE7970"/>
<stop offset="1" stop-color="#DC3282"/>
</linearGradient>
<linearGradient id="paint1_linear_451_1320" x1="17.7891" y1="5.94519" x2="7.78912" y2="18.6883" gradientUnits="userSpaceOnUse">
<stop stop-color="#FE7970"/>
<stop offset="1" stop-color="#DC3282"/>
</linearGradient>
</defs>
</svg>
