<svg width="23" height="22" viewBox="0 0 23 22" fill="none" xmlns="http://www.w3.org/2000/svg">
<g clip-path="url(#clip0_451_1323)">
<path d="M8.77344 14.2227H13.9297C14.2856 14.2227 14.5742 13.9341 14.5742 13.5781V8.42188C14.5742 8.06592 14.2856 7.77734 13.9297 7.77734H8.77344C8.41748 7.77734 8.12891 8.06592 8.12891 8.42188V13.5781C8.12891 13.9341 8.41748 14.2227 8.77344 14.2227ZM9.41797 9.06641H13.2852V12.9336H9.41797V9.06641ZM19.1289 10.3555H21.707C22.063 10.3555 22.3516 10.0669 22.3516 9.71094V7.13281C22.3516 6.77686 22.063 6.48828 21.707 6.48828H19.1289C18.773 6.48828 18.4844 6.77686 18.4844 7.13281V7.77734H17.1523V5.84375C17.1523 5.4878 16.8638 5.19922 16.5078 5.19922H14.5742V3.86719H15.2188C15.5747 3.86719 15.8633 3.57861 15.8633 3.22266V0.644531C15.8633 0.288578 15.5747 0 15.2188 0H12.6406C12.2847 0 11.9961 0.288578 11.9961 0.644531V3.22266C11.9961 3.57861 12.2847 3.86719 12.6406 3.86719H13.2852V5.19922H9.41797V3.86719H10.0625C10.4185 3.86719 10.707 3.57861 10.707 3.22266V0.644531C10.707 0.288578 10.4185 0 10.0625 0H7.48438C7.12842 0 6.83984 0.288578 6.83984 0.644531V3.22266C6.83984 3.57861 7.12842 3.86719 7.48438 3.86719H8.12891V5.19922H6.19531C5.83936 5.19922 5.55078 5.4878 5.55078 5.84375V7.77734H4.21875V7.13281C4.21875 6.77686 3.93017 6.48828 3.57422 6.48828H0.996094C0.640141 6.48828 0.351562 6.77686 0.351562 7.13281V9.71094C0.351562 10.0669 0.640141 10.3555 0.996094 10.3555H3.57422C3.93017 10.3555 4.21875 10.0669 4.21875 9.71094V9.06641H5.55078V12.9336H4.21875V12.2891C4.21875 11.9331 3.93017 11.6445 3.57422 11.6445H0.996094C0.640141 11.6445 0.351562 11.9331 0.351562 12.2891V14.8672C0.351562 15.2231 0.640141 15.5117 0.996094 15.5117H3.57422C3.93017 15.5117 4.21875 15.2231 4.21875 14.8672V14.2227H5.55078V16.1562C5.55078 16.5122 5.83936 16.8008 6.19531 16.8008H8.12891V18.1328H7.48438C7.12842 18.1328 6.83984 18.4214 6.83984 18.7773V21.3555C6.83984 21.7114 7.12842 22 7.48438 22H10.0625C10.4185 22 10.707 21.7114 10.707 21.3555V18.7773C10.707 18.4214 10.4185 18.1328 10.0625 18.1328H9.41797V16.8008H13.2852V18.1328H12.6406C12.2847 18.1328 11.9961 18.4214 11.9961 18.7773V21.3555C11.9961 21.7114 12.2847 22 12.6406 22H15.2188C15.5747 22 15.8633 21.7114 15.8633 21.3555V18.7773C15.8633 18.4214 15.5747 18.1328 15.2188 18.1328H14.5742V16.8008H16.5078C16.8638 16.8008 17.1523 16.5122 17.1523 16.1562V14.2227H18.4844V14.8672C18.4844 15.2231 18.773 15.5117 19.1289 15.5117H21.707C22.063 15.5117 22.3516 15.2231 22.3516 14.8672V12.2891C22.3516 11.9331 22.063 11.6445 21.707 11.6445H19.1289C18.773 11.6445 18.4844 11.9331 18.4844 12.2891V12.9336H17.1523V9.06641H18.4844V9.71094C18.4844 10.0669 18.773 10.3555 19.1289 10.3555ZM19.7734 7.77734H21.0625V9.06641H19.7734V7.77734ZM2.92969 9.06641H1.64062V7.77734H2.92969V9.06641ZM2.92969 14.2227H1.64062V12.9336H2.92969V14.2227ZM13.2852 1.28906H14.5742V2.57812H13.2852V1.28906ZM8.12891 1.28906H9.41797V2.57812H8.12891V1.28906ZM9.41797 20.7109H8.12891V19.4219H9.41797V20.7109ZM14.5742 20.7109H13.2852V19.4219H14.5742V20.7109ZM15.8633 15.5117H6.83984V6.48828H15.8633V15.5117ZM19.7734 12.9336H21.0625V14.2227H19.7734V12.9336Z" fill="url(#paint0_linear_451_1323)"/>
</g>
<defs>
<linearGradient id="paint0_linear_451_1323" x1="4.33906" y1="19.4028" x2="24.1777" y2="2.09309" gradientUnits="userSpaceOnUse">
<stop stop-color="#FE0844"/>
<stop offset="1" stop-color="#FEB302"/>
</linearGradient>
<clipPath id="clip0_451_1323">
<rect width="22" height="22" fill="white" transform="translate(0.351562)"/>
</clipPath>
</defs>
</svg>
