<svg width="23" height="22" viewBox="0 0 23 22" fill="none" xmlns="http://www.w3.org/2000/svg">
<path d="M9.20653 18.6323H13.8794C14.2023 18.6323 14.4635 18.371 14.4635 18.0483C14.4635 17.7253 14.2023 17.464 13.8794 17.464H9.20653C8.88368 17.464 8.62243 17.7253 8.62243 18.0483C8.62243 18.371 8.88368 18.6323 9.20653 18.6323ZM9.20653 16.2959H13.8794C14.2023 16.2959 14.4635 16.0346 14.4635 15.7118C14.4635 15.3889 14.2023 15.1277 13.8794 15.1277H9.20653C8.88368 15.1277 8.62243 15.3889 8.62243 15.7118C8.62243 16.0346 8.88368 16.2959 9.20653 16.2959ZM13.8794 9.28661H15.0476C15.3705 9.28661 15.6317 9.02536 15.6317 8.70251C15.6317 8.37966 15.3705 8.11841 15.0476 8.11841H13.8794C13.5565 8.11841 13.2953 8.37966 13.2953 8.70251C13.2953 9.02536 13.5565 9.28661 13.8794 9.28661ZM20.9277 5.78198H16.7999V1.61536C16.7999 1.2925 16.5387 1.03125 16.2158 1.03125H6.87012C6.54727 1.03125 6.28602 1.2925 6.28602 1.61536V5.78198H2.15833C1.83547 5.78198 1.57422 6.04323 1.57422 6.3661V14.5436C1.57422 14.8664 1.83547 15.1277 2.15833 15.1277H6.28602V20.3847C6.28602 20.7075 6.54727 20.9688 6.87012 20.9688H16.2158C16.5387 20.9688 16.7999 20.7075 16.7999 20.3847V15.1277H20.9277C21.2505 15.1277 21.5117 14.8664 21.5117 14.5436V6.3661C21.5117 6.04323 21.2505 5.78198 20.9277 5.78198ZM7.45422 2.19947H15.6317V5.78198H7.45422V2.19947ZM15.6317 19.8005H7.45422V13.9595H15.6317V19.8005ZM20.3435 13.9595H16.7999V13.3754C16.7999 13.0525 16.5387 12.7913 16.2158 12.7913H6.87012C6.54727 12.7913 6.28602 13.0525 6.28602 13.3754V13.9595H2.74244V6.9502H20.3435V13.9595ZM5.7019 11.623C6.66816 11.623 7.45422 10.837 7.45422 9.87073C7.45422 8.90447 6.66816 8.11841 5.7019 8.11841C4.73564 8.11841 3.94958 8.90447 3.94958 9.87073C3.94958 10.837 4.73564 11.623 5.7019 11.623ZM5.7019 9.28661C6.02418 9.28661 6.28602 9.54846 6.28602 9.87073C6.28602 10.193 6.02418 10.4548 5.7019 10.4548C5.37963 10.4548 5.1178 10.193 5.1178 9.87073C5.1178 9.54846 5.37963 9.28661 5.7019 9.28661ZM17.384 9.28661H18.5522C18.8752 9.28661 19.1364 9.02536 19.1364 8.70251C19.1364 8.37966 18.8752 8.11841 18.5522 8.11841H17.384C17.0612 8.11841 16.7999 8.37966 16.7999 8.70251C16.7999 9.02536 17.0612 9.28661 17.384 9.28661Z" fill="url(#paint0_linear_451_1325)" stroke="url(#paint1_linear_451_1325)" stroke-width="0.6"/>
<defs>
<linearGradient id="paint0_linear_451_1325" x1="11.543" y1="20.9688" x2="11.543" y2="1.03125" gradientUnits="userSpaceOnUse">
<stop stop-color="#5558FF"/>
<stop offset="1" stop-color="#00C0FF"/>
</linearGradient>
<linearGradient id="paint1_linear_451_1325" x1="11.543" y1="20.9688" x2="11.543" y2="1.03125" gradientUnits="userSpaceOnUse">
<stop stop-color="#5558FF"/>
<stop offset="1" stop-color="#00C0FF"/>
</linearGradient>
</defs>
</svg>
