<svg width="23" height="22" viewBox="0 0 23 22" fill="none" xmlns="http://www.w3.org/2000/svg">
<path d="M15.0555 14.2624C14.8992 14.4186 14.8991 14.6719 15.0554 14.8282L16.0097 15.7825C16.1659 15.9387 16.4192 15.9387 16.5754 15.7825L21.0758 11.2827C21.2321 11.1264 21.2321 10.8732 21.0759 10.7169L16.5754 6.2165C16.4192 6.06027 16.1659 6.0603 16.0097 6.21657L15.0553 7.17145C14.8991 7.3277 14.8991 7.58098 15.0554 7.73715L18.0369 10.7169C18.1932 10.8731 18.1932 11.1265 18.0369 11.2827L15.0555 14.2624Z" fill="url(#paint0_linear_451_1327)"/>
<path d="M8.41171 7.73715C8.56797 7.58098 8.56804 7.3277 8.41186 7.17145L7.45743 6.21657C7.30123 6.0603 7.04791 6.06027 6.89168 6.2165L2.39124 10.717C2.23503 10.8732 2.23503 11.1264 2.39124 11.2827L6.89174 15.7832C7.04795 15.9394 7.30122 15.9394 7.45743 15.7832L8.41175 14.8288C8.56798 14.6726 8.56796 14.4193 8.4117 14.2631L5.43018 11.2827C5.27389 11.1265 5.2739 10.8731 5.43021 10.7169L8.41171 7.73715Z" fill="url(#paint1_linear_451_1327)"/>
<path d="M12.5985 5.66439C12.6566 5.45119 12.8766 5.32553 13.0898 5.38375L13.4181 5.47341C13.6311 5.5316 13.7567 5.75144 13.6986 5.96451L10.8703 16.3364C10.8122 16.5496 10.5922 16.6752 10.379 16.617L10.0507 16.5273C9.8377 16.4691 9.71213 16.2493 9.77023 16.0362L12.5985 5.66439Z" fill="url(#paint2_linear_451_1327)"/>
<defs>
<linearGradient id="paint0_linear_451_1327" x1="18.0656" y1="16.0653" x2="18.0656" y2="5.93359" gradientUnits="userSpaceOnUse">
<stop stop-color="#5558FF"/>
<stop offset="1" stop-color="#00C0FF"/>
</linearGradient>
<linearGradient id="paint1_linear_451_1327" x1="5.40152" y1="16.066" x2="5.40152" y2="5.93359" gradientUnits="userSpaceOnUse">
<stop stop-color="#5558FF"/>
<stop offset="1" stop-color="#00C0FF"/>
</linearGradient>
<linearGradient id="paint2_linear_451_1327" x1="11.7344" y1="16.7224" x2="11.7344" y2="5.27832" gradientUnits="userSpaceOnUse">
<stop stop-color="#5558FF"/>
<stop offset="1" stop-color="#00C0FF"/>
</linearGradient>
</defs>
</svg>
