<svg width="23" height="22" viewBox="0 0 23 22" fill="none" xmlns="http://www.w3.org/2000/svg">
<path d="M15.2459 14.2624C15.0896 14.4186 15.0896 14.6719 15.2458 14.8282L16.2001 15.7825C16.3563 15.9387 16.6096 15.9387 16.7658 15.7825L21.2663 11.2827C21.4225 11.1264 21.4225 10.8732 21.2663 10.7169L16.7659 6.2165C16.6096 6.06027 16.3563 6.0603 16.2001 6.21657L15.2457 7.17145C15.0895 7.3277 15.0896 7.58098 15.2458 7.73715L18.2273 10.7169C18.3836 10.8731 18.3836 11.1265 18.2273 11.2827L15.2459 14.2624Z" fill="url(#paint0_linear_451_1331)"/>
<path d="M8.60214 7.73715C8.7584 7.58098 8.75847 7.3277 8.60229 7.17145L7.64786 6.21657C7.49166 6.0603 7.23834 6.06027 7.08211 6.2165L2.58167 10.717C2.42546 10.8732 2.42546 11.1264 2.58167 11.2827L7.08217 15.7832C7.23838 15.9394 7.49165 15.9394 7.64786 15.7832L8.60218 14.8288C8.75841 14.6726 8.75839 14.4193 8.60213 14.2631L5.62061 11.2827C5.46432 11.1265 5.46433 10.8731 5.62064 10.7169L8.60214 7.73715Z" fill="url(#paint1_linear_451_1331)"/>
<path d="M12.7889 5.66439C12.8471 5.45119 13.0671 5.32553 13.2802 5.38375L13.6085 5.47341C13.8216 5.5316 13.9471 5.75144 13.889 5.96451L11.0607 16.3364C11.0026 16.5496 10.7826 16.6752 10.5694 16.617L10.2412 16.5273C10.0281 16.4691 9.90256 16.2493 9.96066 16.0362L12.7889 5.66439Z" fill="url(#paint2_linear_451_1331)"/>
<defs>
<linearGradient id="paint0_linear_451_1331" x1="18.256" y1="16.0653" x2="18.256" y2="5.93359" gradientUnits="userSpaceOnUse">
<stop stop-color="#5558FF"/>
<stop offset="1" stop-color="#00C0FF"/>
</linearGradient>
<linearGradient id="paint1_linear_451_1331" x1="5.59195" y1="16.066" x2="5.59195" y2="5.93359" gradientUnits="userSpaceOnUse">
<stop stop-color="#5558FF"/>
<stop offset="1" stop-color="#00C0FF"/>
</linearGradient>
<linearGradient id="paint2_linear_451_1331" x1="11.9248" y1="16.7224" x2="11.9248" y2="5.27832" gradientUnits="userSpaceOnUse">
<stop stop-color="#5558FF"/>
<stop offset="1" stop-color="#00C0FF"/>
</linearGradient>
</defs>
</svg>
