<svg width="16" height="16" viewBox="0 0 16 16" fill="none" xmlns="http://www.w3.org/2000/svg">
<path d="M11.2771 1H4.7002C3.31948 1 2.2002 2.11929 2.2002 3.5V12.5C2.2002 13.8807 3.31948 15 4.7002 15H11.2771C12.6578 15 13.7771 13.8807 13.7771 12.5V3.5C13.7771 2.11929 12.6578 1 11.2771 1Z" stroke="url(#paint0_linear_536_842)" stroke-width="1.8"/>
<path d="M7.9502 3C8.94476 3 9.89859 3.39509 10.6019 4.09835C11.3051 4.80161 11.7002 5.75544 11.7002 6.75C11.7002 8.62505 10.319 10.1818 8.47351 10.4568C8.1944 10.4984 7.9999 10.2157 8.10349 9.95317L8.4377 9.10625C8.51948 8.96179 8.54107 8.79093 8.49779 8.63067C8.45451 8.47041 8.34984 8.33365 8.20645 8.25L7.66895 7.9375C7.52449 7.85572 7.35363 7.83413 7.19337 7.87741C7.04232 7.9182 6.91215 8.01353 6.82765 8.1444C6.81733 8.16038 6.80677 8.17623 6.79494 8.19113L5.86142 9.36775C5.72408 9.54087 5.4706 9.57123 5.31323 9.41609C5.0086 9.11577 4.75709 8.76464 4.57054 8.37749C4.32592 7.86987 4.19932 7.31349 4.2002 6.75C4.2002 5.75544 4.59529 4.80161 5.29855 4.09835C6.00181 3.39509 6.95564 3 7.9502 3ZM7.9502 6.125C7.78444 6.125 7.62547 6.19085 7.50826 6.30806C7.39105 6.42527 7.3252 6.58424 7.3252 6.75C7.3252 6.91576 7.39105 7.07473 7.50826 7.19194C7.62547 7.30915 7.78444 7.375 7.9502 7.375C8.11596 7.375 8.27493 7.30915 8.39214 7.19194C8.50935 7.07473 8.5752 6.91576 8.5752 6.75C8.5752 6.58424 8.50935 6.42527 8.39214 6.30806C8.27493 6.19085 8.11596 6.125 7.9502 6.125ZM11 11.25C11.1658 11.25 11.3247 11.3158 11.4419 11.4331C11.5592 11.5503 11.625 11.7092 11.625 11.875C11.625 12.0408 11.5592 12.1997 11.4419 12.3169C11.3247 12.4342 11.1658 12.5 11 12.5C10.8342 12.5 10.6753 12.4342 10.5581 12.3169C10.4408 12.1997 10.375 12.0408 10.375 11.875C10.375 11.7092 10.4408 11.5503 10.5581 11.4331C10.6753 11.3158 10.8342 11.25 11 11.25ZM7.626 8.63797C7.78009 8.72755 7.8456 8.91627 7.78018 9.08206L6.50823 12.3054C6.41845 12.5329 6.14733 12.6272 5.93568 12.5047L5.11994 12.0322C4.90865 11.9099 4.85534 11.6284 5.00726 11.4372L7.16246 8.72535C7.27385 8.58518 7.47122 8.54798 7.626 8.63797Z" fill="url(#paint1_linear_536_842)"/>
<defs>
<linearGradient id="paint0_linear_536_842" x1="12.8847" y1="1.25202" x2="0.275483" y2="12.0588" gradientUnits="userSpaceOnUse">
<stop stop-color="#FFC700"/>
<stop offset="0.551952" stop-color="#FF49AB"/>
<stop offset="1" stop-color="#BA49FF"/>
</linearGradient>
<linearGradient id="paint1_linear_536_842" x1="11.1221" y1="3.17207" x2="2.59327" y2="10.1078" gradientUnits="userSpaceOnUse">
<stop stop-color="#FFC700"/>
<stop offset="0.551952" stop-color="#FF49AB"/>
<stop offset="1" stop-color="#BA49FF"/>
</linearGradient>
</defs>
</svg>
