<svg width="23" height="22" viewBox="0 0 23 22" fill="none" xmlns="http://www.w3.org/2000/svg">
<path d="M11.3662 0.859375C5.89079 0.859375 1.39746 5.3527 1.39746 10.8281C1.39746 16.3035 5.89079 20.7969 11.3662 20.7969C16.8416 20.7969 21.335 16.3035 21.335 10.8281C21.335 5.3527 16.8416 0.859375 11.3662 0.859375ZM11.3662 19.6286C6.53479 19.6286 2.56568 15.6595 2.56568 10.8281C2.56568 5.9967 6.53479 2.02759 11.3662 2.02759C16.1976 2.02759 20.1667 5.9967 20.1667 10.8281C20.1667 15.6595 16.1976 19.6286 11.3662 19.6286Z" fill="url(#paint0_linear_451_1399)" stroke="url(#paint1_linear_451_1399)" stroke-width="0.6"/>
<path fill-rule="evenodd" clip-rule="evenodd" d="M11.5381 6.48828C9.05059 6.48828 7.02637 8.5125 7.02637 11C7.02637 13.4875 9.05059 15.5117 11.5381 15.5117C14.0256 15.5117 16.0498 13.4875 16.0498 11C16.0498 8.5125 14.0256 6.48828 11.5381 6.48828ZM11.4951 14.1797C9.71822 14.1797 8.27246 12.7339 8.27246 10.957C8.27246 9.18014 9.71822 7.73438 11.4951 7.73438C13.272 7.73438 14.7178 9.18014 14.7178 10.957C14.7178 12.7339 13.272 14.1797 11.4951 14.1797Z" fill="url(#paint2_linear_451_1399)"/>
<path fill-rule="evenodd" clip-rule="evenodd" d="M11.5381 9.10938C10.4956 9.10938 9.64746 9.95748 9.64746 11C9.64746 12.0425 10.4956 12.8906 11.5381 12.8906C12.5806 12.8906 13.4287 12.0425 13.4287 11C13.4287 9.95748 12.5806 9.10938 11.5381 9.10938ZM11.5381 11.6875C11.1588 11.6875 10.8506 11.3793 10.8506 11C10.8506 10.6207 11.1588 10.3125 11.5381 10.3125C11.9174 10.3125 12.2256 10.6207 12.2256 11C12.2256 11.3793 11.9174 11.6875 11.5381 11.6875Z" fill="url(#paint3_linear_451_1399)"/>
<path d="M16.783 5.66261C17.4942 6.37388 18.052 7.20094 18.4414 8.12116C18.58 8.4491 18.427 8.8274 18.0991 8.96584C17.7725 9.10398 17.3932 8.95243 17.2544 8.62341C16.9296 7.85682 16.4645 7.16695 15.8716 6.57403C15.2786 5.98109 14.5888 5.51597 13.8222 5.19116C13.4942 5.05271 13.3413 4.67441 13.4798 4.34648C13.6182 4.0173 13.9984 3.86622 14.3244 4.00407C15.2446 4.39371 16.0717 4.95136 16.783 5.66261Z" fill="url(#paint4_linear_451_1399)"/>
<path d="M7.28406 14.8182C7.877 15.4111 8.56682 15.8762 9.33347 16.2011C9.66135 16.3395 9.81432 16.7178 9.67588 17.0457C9.5374 17.374 9.15862 17.5266 8.8312 17.3881C7.91098 16.9985 7.08392 16.4409 6.37266 15.7296C5.66139 15.0183 5.10371 14.1913 4.7141 13.2711C4.57566 12.9431 4.72859 12.5649 5.05653 12.4264C5.38129 12.2873 5.76271 12.4403 5.90121 12.7688C6.226 13.5354 6.69115 14.2253 7.28406 14.8182Z" fill="url(#paint5_linear_451_1399)"/>
<defs>
<linearGradient id="paint0_linear_451_1399" x1="2.82157" y1="10.8281" x2="19.0012" y2="9.04016" gradientUnits="userSpaceOnUse">
<stop stop-color="#8D01A2"/>
<stop offset="1" stop-color="#FF00D2"/>
</linearGradient>
<linearGradient id="paint1_linear_451_1399" x1="2.82157" y1="10.8281" x2="19.0012" y2="9.04016" gradientUnits="userSpaceOnUse">
<stop stop-color="#8D01A2"/>
<stop offset="1" stop-color="#FF00D2"/>
</linearGradient>
<linearGradient id="paint2_linear_451_1399" x1="8.66186" y1="14.4465" x2="16.7989" y2="7.34678" gradientUnits="userSpaceOnUse">
<stop stop-color="#FE0844"/>
<stop offset="1" stop-color="#FEB302"/>
</linearGradient>
<linearGradient id="paint3_linear_451_1399" x1="9.91755" y1="11" x2="12.9861" y2="10.6609" gradientUnits="userSpaceOnUse">
<stop stop-color="#8D01A2"/>
<stop offset="1" stop-color="#FF00D2"/>
</linearGradient>
<linearGradient id="paint4_linear_451_1399" x1="7.16967" y1="15.8471" x2="19.3687" y2="4.9323" gradientUnits="userSpaceOnUse">
<stop stop-color="#FE0844"/>
<stop offset="1" stop-color="#FEB302"/>
</linearGradient>
<linearGradient id="paint5_linear_451_1399" x1="7.16968" y1="15.8471" x2="19.3687" y2="4.9323" gradientUnits="userSpaceOnUse">
<stop stop-color="#FE0844"/>
<stop offset="1" stop-color="#FEB302"/>
</linearGradient>
</defs>
</svg>
