<svg width="24" height="22" viewBox="0 0 24 22" fill="none" xmlns="http://www.w3.org/2000/svg">
<path d="M17.5064 20.625C18.4393 20.625 19.1982 19.8658 19.1982 18.9332V3.10449C19.1982 2.1697 18.4428 1.375 17.5064 1.375H6.22704C5.7725 1.375 5.34453 1.56093 5.02187 1.89843C4.70801 2.22667 4.53516 2.65509 4.53516 3.10449V18.9332C4.53516 19.8658 5.29417 20.625 6.22704 20.625H17.5064ZM7.43061 16.395C7.49539 16.2826 7.43342 16.38 9.32842 14.4224C8.40243 16.9929 8.45251 16.8809 8.40728 16.9591C8.25144 17.2291 7.9069 17.3214 7.63697 17.1654C7.36776 17.0101 7.27508 16.6643 7.43061 16.395ZM11.0377 11.6873C10.8125 11.5466 10.5198 11.582 10.3348 11.7721L9.90869 12.2097C8.68867 11.5095 7.91895 10.1887 7.91895 8.74414C7.91895 6.56729 9.68986 4.79638 11.8667 4.79638C14.0436 4.79638 15.8145 6.56729 15.8145 8.74414C15.8145 10.9417 14.0436 12.7295 11.8667 12.7295C11.6276 12.7295 11.3908 12.7075 11.1584 12.6655L11.2695 12.3563C11.3593 12.1065 11.2628 11.8279 11.0377 11.6873ZM6.22704 2.50293H17.5064C17.8067 2.50293 18.0703 2.78403 18.0703 3.10449V18.9332C18.0703 19.244 17.8172 19.497 17.5064 19.497H10.1434C10.0625 18.7608 9.82306 18.057 9.43665 17.4238C9.51068 17.2736 9.4058 17.5337 10.7728 13.7382C11.1305 13.8169 11.4965 13.8574 11.8667 13.8574C14.6654 13.8574 16.9424 11.5635 16.9424 8.74414C16.9424 5.94531 14.6654 3.66845 11.8667 3.66845C9.06802 3.66845 6.79102 5.94531 6.79102 8.74414C6.79102 10.4964 7.67765 12.1076 9.10225 13.0378L6.88971 15.3102C6.49407 15.1606 6.08401 15.0621 5.66309 15.0159V3.10449C5.66309 2.78403 5.92671 2.50293 6.22704 2.50293ZM5.66309 18.9332V16.1531C5.87002 16.1825 6.07315 16.2281 6.27197 16.29C6.10618 16.9974 6.4121 17.7607 7.07299 18.1421C7.55883 18.4229 8.11973 18.4346 8.596 18.228C8.80484 18.6247 8.94305 19.0523 9.00648 19.497H6.22704C5.91612 19.497 5.66309 19.244 5.66309 18.9332Z" fill="url(#paint0_linear_451_1349)" stroke="url(#paint1_linear_451_1349)" stroke-width="0.6"/>
<path d="M13.5586 8.74415C13.5586 7.81126 12.7996 7.05225 11.8667 7.05225C10.9338 7.05225 10.1748 7.81126 10.1748 8.74415C10.1748 9.67705 10.9338 10.4361 11.8667 10.4361C12.7996 10.4361 13.5586 9.67705 13.5586 8.74415ZM11.3027 8.74415C11.3027 8.43324 11.5558 8.18019 11.8667 8.18019C12.1776 8.18019 12.4307 8.43324 12.4307 8.74415C12.4307 9.05507 12.1776 9.30812 11.8667 9.30812C11.5558 9.30812 11.3027 9.05507 11.3027 8.74415Z" fill="url(#paint2_linear_451_1349)" stroke="url(#paint3_linear_451_1349)" stroke-width="0.6"/>
<path d="M16.3784 14.9854H14.1226C13.8111 14.9854 13.5586 15.2378 13.5586 15.5493C13.5586 15.8608 13.8111 16.1133 14.1226 16.1133H16.3784C16.6899 16.1133 16.9424 15.8608 16.9424 15.5493C16.9424 15.2378 16.6899 14.9854 16.3784 14.9854Z" fill="url(#paint4_linear_451_1349)" stroke="url(#paint5_linear_451_1349)" stroke-width="0.6"/>
<path d="M16.3784 17.2412H14.1226C13.8111 17.2412 13.5586 17.4939 13.5586 17.8053C13.5586 18.1167 13.8111 18.3692 14.1226 18.3692H16.3784C16.6899 18.3692 16.9424 18.1167 16.9424 17.8053C16.9424 17.4939 16.6899 17.2412 16.3784 17.2412Z" fill="url(#paint6_linear_451_1349)" stroke="url(#paint7_linear_451_1349)" stroke-width="0.6"/>
<defs>
<linearGradient id="paint0_linear_451_1349" x1="18.7028" y1="1.92522" x2="9.73388" y2="19.0797" gradientUnits="userSpaceOnUse">
<stop stop-color="#FE0F7C"/>
<stop offset="1" stop-color="#DF0066"/>
</linearGradient>
<linearGradient id="paint1_linear_451_1349" x1="18.7028" y1="1.92522" x2="9.73388" y2="19.0797" gradientUnits="userSpaceOnUse">
<stop stop-color="#FE0F7C"/>
<stop offset="1" stop-color="#DF0066"/>
</linearGradient>
<linearGradient id="paint2_linear_451_1349" x1="10.7881" y1="10.0366" x2="13.8395" y2="7.3742" gradientUnits="userSpaceOnUse">
<stop stop-color="#FE0844"/>
<stop offset="1" stop-color="#FEB302"/>
</linearGradient>
<linearGradient id="paint3_linear_451_1349" x1="10.7881" y1="10.0366" x2="13.8395" y2="7.37425" gradientUnits="userSpaceOnUse">
<stop stop-color="#FE0844"/>
<stop offset="1" stop-color="#FEB302"/>
</linearGradient>
<linearGradient id="paint4_linear_451_1349" x1="14.1719" y1="15.9801" x2="14.8564" y2="14.1884" gradientUnits="userSpaceOnUse">
<stop stop-color="#FE0844"/>
<stop offset="1" stop-color="#FEB302"/>
</linearGradient>
<linearGradient id="paint5_linear_451_1349" x1="14.1719" y1="15.9801" x2="14.8565" y2="14.1884" gradientUnits="userSpaceOnUse">
<stop stop-color="#FE0844"/>
<stop offset="1" stop-color="#FEB302"/>
</linearGradient>
<linearGradient id="paint6_linear_451_1349" x1="14.1719" y1="18.236" x2="14.8564" y2="16.4444" gradientUnits="userSpaceOnUse">
<stop stop-color="#FE0844"/>
<stop offset="1" stop-color="#FEB302"/>
</linearGradient>
<linearGradient id="paint7_linear_451_1349" x1="14.1719" y1="18.236" x2="14.8565" y2="16.4443" gradientUnits="userSpaceOnUse">
<stop stop-color="#FE0844"/>
<stop offset="1" stop-color="#FEB302"/>
</linearGradient>
</defs>
</svg>
