<svg width="23" height="22" viewBox="0 0 23 22" fill="none" xmlns="http://www.w3.org/2000/svg">
<path fill-rule="evenodd" clip-rule="evenodd" d="M6.58529 7.35417C6.58529 7.59579 6.38941 7.79166 6.14778 7.79166H5.18946C4.94784 7.79166 4.75195 7.98755 4.75195 8.22917V17.875C4.75195 18.6044 5.04168 19.3038 5.55741 19.8196C6.07314 20.3352 6.7726 20.625 7.50195 20.625H14.8353C15.5646 20.625 16.2641 20.3352 16.7798 19.8196C17.2955 19.3038 17.5853 18.6044 17.5853 17.875V8.22917C17.5853 7.98755 17.3894 7.79166 17.1478 7.79166H16.1894C15.9478 7.79166 15.7519 7.59579 15.7519 7.35417V1.81251C15.7519 1.57088 15.5561 1.375 15.3144 1.375H7.02278C6.78116 1.375 6.58529 1.57088 6.58529 1.81251V7.35417ZM8.85612 3.20834C8.6145 3.20834 8.41863 3.40421 8.41863 3.64583V7.35417C8.41863 7.59579 8.6145 7.79166 8.85612 7.79166H13.4811C13.7227 7.79166 13.9186 7.59579 13.9186 7.35417V3.64583C13.9186 3.40421 13.7227 3.20834 13.4811 3.20834H8.85612ZM15.3144 9.62502C15.5561 9.62502 15.7519 9.82085 15.7519 10.0625V17.875C15.7519 18.1182 15.6554 18.3513 15.4835 18.5231C15.3115 18.695 15.0784 18.7918 14.8353 18.7918H7.50195C7.25884 18.7918 7.02569 18.695 6.85378 18.5231C6.68187 18.3513 6.58529 18.1182 6.58529 17.875V10.0625C6.58529 9.82085 6.78116 9.62502 7.02278 9.62502H15.3144ZM9.33529 4.30002C9.33529 4.20337 9.4136 4.12502 9.5103 4.12502H10.0769C10.1736 4.12502 10.2519 4.20337 10.2519 4.30002V5.78335C10.2519 5.88002 10.1736 5.95836 10.0769 5.95836H9.5103C9.4136 5.95836 9.33529 5.88002 9.33529 5.78335V4.30002ZM13.002 4.30002C13.002 4.20337 12.9236 4.12502 12.827 4.12502H12.2603C12.1636 4.12502 12.0853 4.20337 12.0853 4.30002V5.78335C12.0853 5.88002 12.1636 5.95836 12.2603 5.95836H12.827C12.9236 5.95836 13.002 5.88002 13.002 5.78335V4.30002Z" fill="url(#paint0_linear_451_1414)"/>
<defs>
<linearGradient id="paint0_linear_451_1414" x1="9.82227" y1="16.3281" x2="11.1113" y2="4.21094" gradientUnits="userSpaceOnUse">
<stop stop-color="#FD0F00"/>
<stop offset="1" stop-color="#FFE539"/>
</linearGradient>
</defs>
</svg>
