<svg width="23" height="22" viewBox="0 0 23 22" fill="none" xmlns="http://www.w3.org/2000/svg">
<path d="M16.7837 20.625C17.7167 20.625 18.4755 19.8658 18.4755 18.9332V3.10449C18.4755 2.1697 17.7201 1.375 16.7837 1.375H5.50439C5.04985 1.375 4.62188 1.56093 4.29922 1.89843C3.98535 2.22667 3.8125 2.65509 3.8125 3.10449V18.9332C3.8125 19.8658 4.57152 20.625 5.50439 20.625H16.7837ZM6.70796 16.395C6.77274 16.2826 6.71076 16.38 8.60577 14.4224C7.67977 16.9929 7.72986 16.8809 7.68462 16.9591C7.52878 17.2291 7.18424 17.3214 6.91431 17.1654C6.6451 17.0101 6.55243 16.6643 6.70796 16.395ZM10.315 11.6873C10.0898 11.5466 9.79712 11.582 9.6121 11.7721L9.18603 12.2097C7.96601 11.5095 7.19629 10.1887 7.19629 8.74414C7.19629 6.56729 8.9672 4.79638 11.1441 4.79638C13.3209 4.79638 15.0918 6.56729 15.0918 8.74414C15.0918 10.9417 13.3209 12.7295 11.1441 12.7295C10.9049 12.7295 10.6682 12.7075 10.4357 12.6655L10.5469 12.3563C10.6366 12.1065 10.5401 11.8279 10.315 11.6873ZM5.50439 2.50293H16.7837C17.084 2.50293 17.3476 2.78403 17.3476 3.10449V18.9332C17.3476 19.244 17.0946 19.497 16.7837 19.497H9.42071C9.33979 18.7608 9.10041 18.057 8.714 17.4238C8.78802 17.2736 8.68315 17.5337 10.0502 13.7382C10.4078 13.8169 10.7738 13.8574 11.1441 13.8574C13.9427 13.8574 16.2197 11.5635 16.2197 8.74414C16.2197 5.94531 13.9427 3.66845 11.1441 3.66845C8.34536 3.66845 6.06836 5.94531 6.06836 8.74414C6.06836 10.4964 6.95499 12.1076 8.3796 13.0378L6.16705 15.3102C5.77141 15.1606 5.36135 15.0621 4.94043 15.0159V3.10449C4.94043 2.78403 5.20405 2.50293 5.50439 2.50293ZM4.94043 18.9332V16.1531C5.14737 16.1825 5.35049 16.2281 5.54931 16.29C5.38352 16.9974 5.68944 17.7607 6.35034 18.1421C6.83618 18.4229 7.39707 18.4346 7.87334 18.228C8.08218 18.6247 8.22039 19.0523 8.28383 19.497H5.50439C5.19346 19.497 4.94043 19.244 4.94043 18.9332Z" fill="url(#paint0_linear_451_1356)" stroke="url(#paint1_linear_451_1356)" stroke-width="0.6"/>
<path d="M12.8359 8.74415C12.8359 7.81126 12.0769 7.05225 11.144 7.05225C10.2112 7.05225 9.45215 7.81126 9.45215 8.74415C9.45215 9.67705 10.2112 10.4361 11.144 10.4361C12.0769 10.4361 12.8359 9.67705 12.8359 8.74415ZM10.5801 8.74415C10.5801 8.43324 10.8331 8.18019 11.144 8.18019C11.455 8.18019 11.708 8.43324 11.708 8.74415C11.708 9.05507 11.455 9.30812 11.144 9.30812C10.8331 9.30812 10.5801 9.05507 10.5801 8.74415Z" fill="url(#paint2_linear_451_1356)" stroke="url(#paint3_linear_451_1356)" stroke-width="0.6"/>
<path d="M15.6558 14.9854H13.3999C13.0884 14.9854 12.8359 15.2378 12.8359 15.5493C12.8359 15.8608 13.0884 16.1133 13.3999 16.1133H15.6558C15.9673 16.1133 16.2197 15.8608 16.2197 15.5493C16.2197 15.2378 15.9673 14.9854 15.6558 14.9854Z" fill="url(#paint4_linear_451_1356)" stroke="url(#paint5_linear_451_1356)" stroke-width="0.6"/>
<path d="M15.6558 17.2412H13.3999C13.0884 17.2412 12.8359 17.4939 12.8359 17.8053C12.8359 18.1167 13.0884 18.3692 13.3999 18.3692H15.6558C15.9673 18.3692 16.2197 18.1167 16.2197 17.8053C16.2197 17.4939 15.9673 17.2412 15.6558 17.2412Z" fill="url(#paint6_linear_451_1356)" stroke="url(#paint7_linear_451_1356)" stroke-width="0.6"/>
<defs>
<linearGradient id="paint0_linear_451_1356" x1="10.5064" y1="20.108" x2="13.3302" y2="2.90522" gradientUnits="userSpaceOnUse">
<stop stop-color="#8D01A2"/>
<stop offset="1" stop-color="#FF33DB"/>
</linearGradient>
<linearGradient id="paint1_linear_451_1356" x1="10.5064" y1="20.108" x2="13.3302" y2="2.90522" gradientUnits="userSpaceOnUse">
<stop stop-color="#8D01A2"/>
<stop offset="1" stop-color="#FF33DB"/>
</linearGradient>
<linearGradient id="paint2_linear_451_1356" x1="10.0655" y1="10.0366" x2="13.1168" y2="7.3742" gradientUnits="userSpaceOnUse">
<stop stop-color="#FE0844"/>
<stop offset="1" stop-color="#FEB302"/>
</linearGradient>
<linearGradient id="paint3_linear_451_1356" x1="10.0655" y1="10.0366" x2="13.1169" y2="7.37425" gradientUnits="userSpaceOnUse">
<stop stop-color="#FE0844"/>
<stop offset="1" stop-color="#FEB302"/>
</linearGradient>
<linearGradient id="paint4_linear_451_1356" x1="13.4493" y1="15.9801" x2="14.1337" y2="14.1884" gradientUnits="userSpaceOnUse">
<stop stop-color="#FE0844"/>
<stop offset="1" stop-color="#FEB302"/>
</linearGradient>
<linearGradient id="paint5_linear_451_1356" x1="13.4493" y1="15.9801" x2="14.1338" y2="14.1884" gradientUnits="userSpaceOnUse">
<stop stop-color="#FE0844"/>
<stop offset="1" stop-color="#FEB302"/>
</linearGradient>
<linearGradient id="paint6_linear_451_1356" x1="13.4493" y1="18.236" x2="14.1337" y2="16.4444" gradientUnits="userSpaceOnUse">
<stop stop-color="#FE0844"/>
<stop offset="1" stop-color="#FEB302"/>
</linearGradient>
<linearGradient id="paint7_linear_451_1356" x1="13.4493" y1="18.236" x2="14.1339" y2="16.4443" gradientUnits="userSpaceOnUse">
<stop stop-color="#FE0844"/>
<stop offset="1" stop-color="#FEB302"/>
</linearGradient>
</defs>
</svg>
