<svg width="23" height="22" viewBox="0 0 23 22" fill="none" xmlns="http://www.w3.org/2000/svg">
<g clip-path="url(#clip0_451_1393)">
<path d="M11.1758 0.859375C5.70036 0.859375 1.20703 5.3527 1.20703 10.8281C1.20703 16.3035 5.70036 20.7969 11.1758 20.7969C16.6512 20.7969 21.1445 16.3035 21.1445 10.8281C21.1445 5.3527 16.6512 0.859375 11.1758 0.859375ZM11.1758 19.6286C6.34436 19.6286 2.37525 15.6595 2.37525 10.8281C2.37525 5.9967 6.34436 2.02759 11.1758 2.02759C16.0072 2.02759 19.9763 5.9967 19.9763 10.8281C19.9763 15.6595 16.0072 19.6286 11.1758 19.6286Z" fill="url(#paint0_linear_451_1393)" stroke="url(#paint1_linear_451_1393)" stroke-width="0.6"/>
<path fill-rule="evenodd" clip-rule="evenodd" d="M11.3477 6.48828C8.86016 6.48828 6.83594 8.5125 6.83594 11C6.83594 13.4875 8.86016 15.5117 11.3477 15.5117C13.8352 15.5117 15.8594 13.4875 15.8594 11C15.8594 8.5125 13.8352 6.48828 11.3477 6.48828ZM11.3047 14.1797C9.52779 14.1797 8.08203 12.7339 8.08203 10.957C8.08203 9.18014 9.52779 7.73438 11.3047 7.73438C13.0816 7.73438 14.5273 9.18014 14.5273 10.957C14.5273 12.7339 13.0816 14.1797 11.3047 14.1797Z" fill="url(#paint2_linear_451_1393)"/>
<path fill-rule="evenodd" clip-rule="evenodd" d="M11.3477 9.10938C10.3051 9.10938 9.45703 9.95748 9.45703 11C9.45703 12.0425 10.3051 12.8906 11.3477 12.8906C12.3902 12.8906 13.2383 12.0425 13.2383 11C13.2383 9.95748 12.3902 9.10938 11.3477 9.10938ZM11.3477 11.6875C10.9683 11.6875 10.6602 11.3793 10.6602 11C10.6602 10.6207 10.9683 10.3125 11.3477 10.3125C11.727 10.3125 12.0352 10.6207 12.0352 11C12.0352 11.3793 11.727 11.6875 11.3477 11.6875Z" fill="url(#paint3_linear_451_1393)"/>
<path d="M16.5925 5.66261C17.3038 6.37388 17.8615 7.20094 18.251 8.12116C18.3895 8.4491 18.2366 8.8274 17.9086 8.96584C17.5821 9.10398 17.2028 8.95243 17.064 8.62341C16.7392 7.85682 16.2741 7.16695 15.6811 6.57403C15.0882 5.98109 14.3984 5.51597 13.6317 5.19116C13.3038 5.05271 13.1508 4.67441 13.2893 4.34648C13.4278 4.0173 13.8079 3.86622 14.134 4.00407C15.0542 4.39371 15.8813 4.95136 16.5925 5.66261Z" fill="url(#paint4_linear_451_1393)"/>
<path d="M7.09364 14.8182C7.68657 15.4111 8.37639 15.8762 9.14304 16.2011C9.47092 16.3395 9.62389 16.7178 9.48545 17.0457C9.34697 17.374 8.96819 17.5266 8.64077 17.3881C7.72055 16.9985 6.89349 16.4409 6.18223 15.7296C5.47096 15.0183 4.91328 14.1913 4.52367 13.2711C4.38523 12.9431 4.53816 12.5649 4.8661 12.4264C5.19086 12.2873 5.57228 12.4403 5.71078 12.7688C6.03557 13.5354 6.50072 14.2253 7.09364 14.8182Z" fill="url(#paint5_linear_451_1393)"/>
</g>
<defs>
<linearGradient id="paint0_linear_451_1393" x1="2.63114" y1="10.8281" x2="18.8108" y2="9.04016" gradientUnits="userSpaceOnUse">
<stop stop-color="#8D01A2"/>
<stop offset="1" stop-color="#FF00D2"/>
</linearGradient>
<linearGradient id="paint1_linear_451_1393" x1="2.63114" y1="10.8281" x2="18.8108" y2="9.04016" gradientUnits="userSpaceOnUse">
<stop stop-color="#8D01A2"/>
<stop offset="1" stop-color="#FF00D2"/>
</linearGradient>
<linearGradient id="paint2_linear_451_1393" x1="8.47143" y1="14.4465" x2="16.6084" y2="7.34678" gradientUnits="userSpaceOnUse">
<stop stop-color="#FE0844"/>
<stop offset="1" stop-color="#FEB302"/>
</linearGradient>
<linearGradient id="paint3_linear_451_1393" x1="9.72712" y1="11" x2="12.7957" y2="10.6609" gradientUnits="userSpaceOnUse">
<stop stop-color="#8D01A2"/>
<stop offset="1" stop-color="#FF00D2"/>
</linearGradient>
<linearGradient id="paint4_linear_451_1393" x1="6.97924" y1="15.8471" x2="19.1783" y2="4.9323" gradientUnits="userSpaceOnUse">
<stop stop-color="#FE0844"/>
<stop offset="1" stop-color="#FEB302"/>
</linearGradient>
<linearGradient id="paint5_linear_451_1393" x1="6.97925" y1="15.8471" x2="19.1783" y2="4.9323" gradientUnits="userSpaceOnUse">
<stop stop-color="#FE0844"/>
<stop offset="1" stop-color="#FEB302"/>
</linearGradient>
<clipPath id="clip0_451_1393">
<rect width="22" height="22" fill="white" transform="translate(0.347656)"/>
</clipPath>
</defs>
</svg>
