<svg width="23" height="22" viewBox="0 0 23 22" fill="none" xmlns="http://www.w3.org/2000/svg">
<path fill-rule="evenodd" clip-rule="evenodd" d="M7.05795 7.35417C7.05795 7.59579 6.86206 7.79166 6.62044 7.79166H5.66212C5.4205 7.79166 5.22461 7.98755 5.22461 8.22917V17.875C5.22461 18.6044 5.51434 19.3038 6.03007 19.8196C6.5458 20.3352 7.24526 20.625 7.97461 20.625H15.3079C16.0372 20.625 16.7367 20.3352 17.2524 19.8196C17.7682 19.3038 18.058 18.6044 18.058 17.875V8.22917C18.058 7.98755 17.8621 7.79166 17.6205 7.79166H16.6621C16.4205 7.79166 16.2246 7.59579 16.2246 7.35417V1.81251C16.2246 1.57088 16.0288 1.375 15.7871 1.375H7.49544C7.25382 1.375 7.05795 1.57088 7.05795 1.81251V7.35417ZM9.32878 3.20834C9.08716 3.20834 8.89129 3.40421 8.89129 3.64583V7.35417C8.89129 7.59579 9.08716 7.79166 9.32878 7.79166H13.9538C14.1954 7.79166 14.3913 7.59579 14.3913 7.35417V3.64583C14.3913 3.40421 14.1954 3.20834 13.9538 3.20834H9.32878ZM15.7871 9.62502C16.0288 9.62502 16.2246 9.82085 16.2246 10.0625V17.875C16.2246 18.1182 16.1281 18.3513 15.9561 18.5231C15.7842 18.695 15.5511 18.7918 15.3079 18.7918H7.97461C7.73149 18.7918 7.49834 18.695 7.32643 18.5231C7.15453 18.3513 7.05795 18.1182 7.05795 17.875V10.0625C7.05795 9.82085 7.25382 9.62502 7.49544 9.62502H15.7871ZM9.80795 4.30002C9.80795 4.20337 9.88625 4.12502 9.98295 4.12502H10.5496C10.6463 4.12502 10.7246 4.20337 10.7246 4.30002V5.78335C10.7246 5.88002 10.6463 5.95836 10.5496 5.95836H9.98295C9.88625 5.95836 9.80795 5.88002 9.80795 5.78335V4.30002ZM13.4746 4.30002C13.4746 4.20337 13.3962 4.12502 13.2996 4.12502H12.733C12.6363 4.12502 12.558 4.20337 12.558 4.30002V5.78335C12.558 5.88002 12.6363 5.95836 12.733 5.95836H13.2996C13.3962 5.95836 13.4746 5.88002 13.4746 5.78335V4.30002Z" fill="url(#paint0_linear_451_1370)"/>
<defs>
<linearGradient id="paint0_linear_451_1370" x1="10.2949" y1="16.3281" x2="11.584" y2="4.21094" gradientUnits="userSpaceOnUse">
<stop stop-color="#FD0F00"/>
<stop offset="1" stop-color="#FFE539"/>
</linearGradient>
</defs>
</svg>
