<svg width="23" height="22" viewBox="0 0 23 22" fill="none" xmlns="http://www.w3.org/2000/svg">
<path d="M17.1441 20.625C18.077 20.625 18.8359 19.8658 18.8359 18.9332V3.10449C18.8359 2.1697 18.0805 1.375 17.1441 1.375H5.86474C5.4102 1.375 4.98223 1.56093 4.65957 1.89843C4.34571 2.22667 4.17285 2.65509 4.17285 3.10449V18.9332C4.17285 19.8658 4.93187 20.625 5.86474 20.625H17.1441ZM7.06831 16.395C7.13309 16.2826 7.07111 16.38 8.96612 14.4224C8.04012 16.9929 8.09021 16.8809 8.04497 16.9591C7.88913 17.2291 7.54459 17.3214 7.27466 17.1654C7.00545 17.0101 6.91278 16.6643 7.06831 16.395ZM10.6753 11.6873C10.4502 11.5466 10.1575 11.582 9.97245 11.7721L9.54639 12.2097C8.32637 11.5095 7.55664 10.1887 7.55664 8.74414C7.55664 6.56729 9.32756 4.79638 11.5044 4.79638C13.6813 4.79638 15.4521 6.56729 15.4521 8.74414C15.4521 10.9417 13.6813 12.7295 11.5044 12.7295C11.2653 12.7295 11.0285 12.7075 10.7961 12.6655L10.9072 12.3563C10.997 12.1065 10.9005 11.8279 10.6753 11.6873ZM5.86474 2.50293H17.1441C17.4444 2.50293 17.708 2.78403 17.708 3.10449V18.9332C17.708 19.244 17.4549 19.497 17.1441 19.497H9.78106C9.70015 18.7608 9.46076 18.057 9.07435 17.4238C9.14837 17.2736 9.0435 17.5337 10.4105 13.7382C10.7682 13.8169 11.1342 13.8574 11.5044 13.8574C14.3031 13.8574 16.5801 11.5635 16.5801 8.74414C16.5801 5.94531 14.3031 3.66845 11.5044 3.66845C8.70571 3.66845 6.42871 5.94531 6.42871 8.74414C6.42871 10.4964 7.31535 12.1076 8.73995 13.0378L6.5274 15.3102C6.13176 15.1606 5.7217 15.0621 5.30078 15.0159V3.10449C5.30078 2.78403 5.5644 2.50293 5.86474 2.50293ZM5.30078 18.9332V16.1531C5.50772 16.1825 5.71084 16.2281 5.90967 16.29C5.74388 16.9974 6.0498 17.7607 6.71069 18.1421C7.19653 18.4229 7.75743 18.4346 8.23369 18.228C8.44254 18.6247 8.58074 19.0523 8.64418 19.497H5.86474C5.55382 19.497 5.30078 19.244 5.30078 18.9332Z" fill="url(#paint0_linear_451_1342)" stroke="url(#paint1_linear_451_1342)" stroke-width="0.6"/>
<path d="M13.1963 8.74415C13.1963 7.81126 12.4373 7.05225 11.5044 7.05225C10.5715 7.05225 9.8125 7.81126 9.8125 8.74415C9.8125 9.67705 10.5715 10.4361 11.5044 10.4361C12.4373 10.4361 13.1963 9.67705 13.1963 8.74415ZM10.9404 8.74415C10.9404 8.43324 11.1935 8.18019 11.5044 8.18019C11.8153 8.18019 12.0684 8.43324 12.0684 8.74415C12.0684 9.05507 11.8153 9.30812 11.5044 9.30812C11.1935 9.30812 10.9404 9.05507 10.9404 8.74415Z" fill="url(#paint2_linear_451_1342)" stroke="url(#paint3_linear_451_1342)" stroke-width="0.6"/>
<path d="M16.0161 14.9854H13.7603C13.4488 14.9854 13.1963 15.2378 13.1963 15.5493C13.1963 15.8608 13.4488 16.1133 13.7603 16.1133H16.0161C16.3276 16.1133 16.5801 15.8608 16.5801 15.5493C16.5801 15.2378 16.3276 14.9854 16.0161 14.9854Z" fill="url(#paint4_linear_451_1342)" stroke="url(#paint5_linear_451_1342)" stroke-width="0.6"/>
<path d="M16.0161 17.2412H13.7603C13.4488 17.2412 13.1963 17.4939 13.1963 17.8053C13.1963 18.1167 13.4488 18.3692 13.7603 18.3692H16.0161C16.3276 18.3692 16.5801 18.1167 16.5801 17.8053C16.5801 17.4939 16.3276 17.2412 16.0161 17.2412Z" fill="url(#paint6_linear_451_1342)" stroke="url(#paint7_linear_451_1342)" stroke-width="0.6"/>
<defs>
<linearGradient id="paint0_linear_451_1342" x1="11.5043" y1="20.625" x2="11.5043" y2="1.375" gradientUnits="userSpaceOnUse">
<stop stop-color="#02AA93"/>
<stop offset="1" stop-color="#67FF80"/>
</linearGradient>
<linearGradient id="paint1_linear_451_1342" x1="11.5043" y1="20.625" x2="11.5043" y2="1.375" gradientUnits="userSpaceOnUse">
<stop stop-color="#02AA93"/>
<stop offset="1" stop-color="#67FF80"/>
</linearGradient>
<linearGradient id="paint2_linear_451_1342" x1="10.4258" y1="10.0366" x2="13.4772" y2="7.3742" gradientUnits="userSpaceOnUse">
<stop stop-color="#FE0844"/>
<stop offset="1" stop-color="#FEB302"/>
</linearGradient>
<linearGradient id="paint3_linear_451_1342" x1="10.4258" y1="10.0366" x2="13.4772" y2="7.37425" gradientUnits="userSpaceOnUse">
<stop stop-color="#FE0844"/>
<stop offset="1" stop-color="#FEB302"/>
</linearGradient>
<linearGradient id="paint4_linear_451_1342" x1="13.8096" y1="15.9801" x2="14.4941" y2="14.1884" gradientUnits="userSpaceOnUse">
<stop stop-color="#FE0844"/>
<stop offset="1" stop-color="#FEB302"/>
</linearGradient>
<linearGradient id="paint5_linear_451_1342" x1="13.8096" y1="15.9801" x2="14.4942" y2="14.1884" gradientUnits="userSpaceOnUse">
<stop stop-color="#FE0844"/>
<stop offset="1" stop-color="#FEB302"/>
</linearGradient>
<linearGradient id="paint6_linear_451_1342" x1="13.8096" y1="18.236" x2="14.4941" y2="16.4444" gradientUnits="userSpaceOnUse">
<stop stop-color="#FE0844"/>
<stop offset="1" stop-color="#FEB302"/>
</linearGradient>
<linearGradient id="paint7_linear_451_1342" x1="13.8096" y1="18.236" x2="14.4942" y2="16.4443" gradientUnits="userSpaceOnUse">
<stop stop-color="#FE0844"/>
<stop offset="1" stop-color="#FEB302"/>
</linearGradient>
</defs>
</svg>
