<svg width="23" height="22" viewBox="0 0 23 22" fill="none" xmlns="http://www.w3.org/2000/svg">
<path d="M16.7817 20.625C17.7147 20.625 18.4735 19.8658 18.4735 18.9332V3.10449C18.4735 2.1697 17.7182 1.375 16.7817 1.375H5.50243C5.04789 1.375 4.61992 1.56093 4.29726 1.89843C3.9834 2.22667 3.81055 2.65509 3.81055 3.10449V18.9332C3.81055 19.8658 4.56956 20.625 5.50243 20.625H16.7817ZM6.706 16.395C6.77078 16.2826 6.70881 16.38 8.60381 14.4224C7.67782 16.9929 7.7279 16.8809 7.68267 16.9591C7.52683 17.2291 7.18229 17.3214 6.91236 17.1654C6.64315 17.0101 6.55047 16.6643 6.706 16.395ZM10.313 11.6873C10.0879 11.5466 9.79517 11.582 9.61014 11.7721L9.18408 12.2097C7.96406 11.5095 7.19434 10.1887 7.19434 8.74414C7.19434 6.56729 8.96525 4.79638 11.1421 4.79638C13.3189 4.79638 15.0898 6.56729 15.0898 8.74414C15.0898 10.9417 13.3189 12.7295 11.1421 12.7295C10.903 12.7295 10.6662 12.7075 10.4337 12.6655L10.5449 12.3563C10.6347 12.1065 10.5382 11.8279 10.313 11.6873ZM5.50243 2.50293H16.7817C17.0821 2.50293 17.3457 2.78403 17.3457 3.10449V18.9332C17.3457 19.244 17.0926 19.497 16.7817 19.497H9.41876C9.33784 18.7608 9.09845 18.057 8.71204 17.4238C8.78607 17.2736 8.68119 17.5337 10.0482 13.7382C10.4059 13.8169 10.7718 13.8574 11.1421 13.8574C13.9408 13.8574 16.2178 11.5635 16.2178 8.74414C16.2178 5.94531 13.9408 3.66845 11.1421 3.66845C8.34341 3.66845 6.06641 5.94531 6.06641 8.74414C6.06641 10.4964 6.95304 12.1076 8.37764 13.0378L6.1651 15.3102C5.76946 15.1606 5.3594 15.0621 4.93848 15.0159V3.10449C4.93848 2.78403 5.2021 2.50293 5.50243 2.50293ZM4.93848 18.9332V16.1531C5.14541 16.1825 5.34854 16.2281 5.54736 16.29C5.38157 16.9974 5.68749 17.7607 6.34838 18.1421C6.83422 18.4229 7.39512 18.4346 7.87139 18.228C8.08023 18.6247 8.21844 19.0523 8.28187 19.497H5.50243C5.19151 19.497 4.93848 19.244 4.93848 18.9332Z" fill="url(#paint0_linear_451_1335)" stroke="url(#paint1_linear_451_1335)" stroke-width="0.6"/>
<path d="M12.834 8.74415C12.834 7.81126 12.075 7.05225 11.1421 7.05225C10.2092 7.05225 9.4502 7.81126 9.4502 8.74415C9.4502 9.67705 10.2092 10.4361 11.1421 10.4361C12.075 10.4361 12.834 9.67705 12.834 8.74415ZM10.5781 8.74415C10.5781 8.43324 10.8312 8.18019 11.1421 8.18019C11.453 8.18019 11.7061 8.43324 11.7061 8.74415C11.7061 9.05507 11.453 9.30812 11.1421 9.30812C10.8312 9.30812 10.5781 9.05507 10.5781 8.74415Z" fill="url(#paint2_linear_451_1335)" stroke="url(#paint3_linear_451_1335)" stroke-width="0.6"/>
<path d="M15.6538 14.9854H13.398C13.0865 14.9854 12.834 15.2378 12.834 15.5493C12.834 15.8608 13.0865 16.1133 13.398 16.1133H15.6538C15.9653 16.1133 16.2178 15.8608 16.2178 15.5493C16.2178 15.2378 15.9653 14.9854 15.6538 14.9854Z" fill="url(#paint4_linear_451_1335)" stroke="url(#paint5_linear_451_1335)" stroke-width="0.6"/>
<path d="M15.6538 17.2412H13.398C13.0865 17.2412 12.834 17.4939 12.834 17.8053C12.834 18.1167 13.0865 18.3692 13.398 18.3692H15.6538C15.9653 18.3692 16.2178 18.1167 16.2178 17.8053C16.2178 17.4939 15.9653 17.2412 15.6538 17.2412Z" fill="url(#paint6_linear_451_1335)" stroke="url(#paint7_linear_451_1335)" stroke-width="0.6"/>
<defs>
<linearGradient id="paint0_linear_451_1335" x1="11.142" y1="20.625" x2="11.142" y2="1.375" gradientUnits="userSpaceOnUse">
<stop stop-color="#02AA93"/>
<stop offset="1" stop-color="#67FF80"/>
</linearGradient>
<linearGradient id="paint1_linear_451_1335" x1="11.142" y1="20.625" x2="11.142" y2="1.375" gradientUnits="userSpaceOnUse">
<stop stop-color="#02AA93"/>
<stop offset="1" stop-color="#67FF80"/>
</linearGradient>
<linearGradient id="paint2_linear_451_1335" x1="10.0635" y1="10.0366" x2="13.1149" y2="7.3742" gradientUnits="userSpaceOnUse">
<stop stop-color="#FE0844"/>
<stop offset="1" stop-color="#FEB302"/>
</linearGradient>
<linearGradient id="paint3_linear_451_1335" x1="10.0635" y1="10.0366" x2="13.1149" y2="7.37425" gradientUnits="userSpaceOnUse">
<stop stop-color="#FE0844"/>
<stop offset="1" stop-color="#FEB302"/>
</linearGradient>
<linearGradient id="paint4_linear_451_1335" x1="13.4473" y1="15.9801" x2="14.1318" y2="14.1884" gradientUnits="userSpaceOnUse">
<stop stop-color="#FE0844"/>
<stop offset="1" stop-color="#FEB302"/>
</linearGradient>
<linearGradient id="paint5_linear_451_1335" x1="13.4473" y1="15.9801" x2="14.1318" y2="14.1884" gradientUnits="userSpaceOnUse">
<stop stop-color="#FE0844"/>
<stop offset="1" stop-color="#FEB302"/>
</linearGradient>
<linearGradient id="paint6_linear_451_1335" x1="13.4473" y1="18.236" x2="14.1318" y2="16.4444" gradientUnits="userSpaceOnUse">
<stop stop-color="#FE0844"/>
<stop offset="1" stop-color="#FEB302"/>
</linearGradient>
<linearGradient id="paint7_linear_451_1335" x1="13.4473" y1="18.236" x2="14.1319" y2="16.4443" gradientUnits="userSpaceOnUse">
<stop stop-color="#FE0844"/>
<stop offset="1" stop-color="#FEB302"/>
</linearGradient>
</defs>
</svg>
