<svg width="23" height="22" viewBox="0 0 23 22" fill="none" xmlns="http://www.w3.org/2000/svg">
<path fill-rule="evenodd" clip-rule="evenodd" d="M7.39389 7.35417C7.39389 7.59579 7.198 7.79166 6.95638 7.79166H5.99805C5.75643 7.79166 5.56055 7.98755 5.56055 8.22917V17.875C5.56055 18.6044 5.85028 19.3038 6.366 19.8196C6.88173 20.3352 7.5812 20.625 8.31055 20.625H15.6439C16.3732 20.625 17.0727 20.3352 17.5884 19.8196C18.1041 19.3038 18.3939 18.6044 18.3939 17.875V8.22917C18.3939 7.98755 18.198 7.79166 17.9564 7.79166H16.998C16.7564 7.79166 16.5605 7.59579 16.5605 7.35417V1.81251C16.5605 1.57088 16.3647 1.375 16.123 1.375H7.83138C7.58975 1.375 7.39389 1.57088 7.39389 1.81251V7.35417ZM9.66472 3.20834C9.42309 3.20834 9.22723 3.40421 9.22723 3.64583V7.35417C9.22723 7.59579 9.42309 7.79166 9.66472 7.79166H14.2897C14.5313 7.79166 14.7272 7.59579 14.7272 7.35417V3.64583C14.7272 3.40421 14.5313 3.20834 14.2897 3.20834H9.66472ZM16.123 9.62502C16.3647 9.62502 16.5605 9.82085 16.5605 10.0625V17.875C16.5605 18.1182 16.464 18.3513 16.2921 18.5231C16.1201 18.695 15.887 18.7918 15.6439 18.7918H8.31055C8.06743 18.7918 7.83428 18.695 7.66237 18.5231C7.49046 18.3513 7.39389 18.1182 7.39389 17.875V10.0625C7.39389 9.82085 7.58975 9.62502 7.83138 9.62502H16.123ZM10.1439 4.30002C10.1439 4.20337 10.2222 4.12502 10.3189 4.12502H10.8855C10.9822 4.12502 11.0605 4.20337 11.0605 4.30002V5.78335C11.0605 5.88002 10.9822 5.95836 10.8855 5.95836H10.3189C10.2222 5.95836 10.1439 5.88002 10.1439 5.78335V4.30002ZM13.8106 4.30002C13.8106 4.20337 13.7322 4.12502 13.6356 4.12502H13.0689C12.9722 4.12502 12.8939 4.20337 12.8939 4.30002V5.78335C12.8939 5.88002 12.9722 5.95836 13.0689 5.95836H13.6356C13.7322 5.95836 13.8106 5.88002 13.8106 5.78335V4.30002Z" fill="url(#paint0_linear_451_1412)"/>
<defs>
<linearGradient id="paint0_linear_451_1412" x1="10.6309" y1="16.3281" x2="11.9199" y2="4.21094" gradientUnits="userSpaceOnUse">
<stop stop-color="#FD0F00"/>
<stop offset="1" stop-color="#FFE539"/>
</linearGradient>
</defs>
</svg>
