<svg width="23" height="22" viewBox="0 0 23 22" fill="none" xmlns="http://www.w3.org/2000/svg">
<g clip-path="url(#clip0_451_1431)">
<path d="M2.24718 4.74083C1.17285 5.81424 1.17285 7.54308 1.17285 10.9998C1.17285 14.4566 1.17285 16.1854 2.24718 17.2588C3.32059 18.3332 5.04943 18.3332 8.50617 18.3332H9.88119C13.3379 18.3332 15.0668 18.3332 16.1401 17.2588C17.2144 16.1854 17.2144 14.4566 17.2144 10.9998C17.2144 7.54308 17.2144 5.81424 16.1401 4.74083C15.0668 3.6665 13.3379 3.6665 9.88119 3.6665H8.50617C5.04943 3.6665 3.32059 3.6665 2.24718 4.74083Z" stroke="url(#paint0_linear_451_1431)" stroke-width="2"/>
<path fill-rule="evenodd" clip-rule="evenodd" d="M6.78304 8.07593C7.45056 7.53982 8.28115 7.24774 9.13734 7.24805H9.67436C9.81525 7.24791 9.95477 7.27553 10.0849 7.32934C10.2151 7.38316 10.3334 7.4621 10.4331 7.56166C10.5328 7.66123 10.6118 7.77945 10.6658 7.90958C10.7196 8.03971 10.7475 8.17921 10.7475 8.32008C10.7475 8.46808 10.8675 8.58808 11.0154 8.58808H12.8947C13.1079 8.58808 13.3124 8.67278 13.4632 8.82357C13.6141 8.9744 13.6987 9.17888 13.6987 9.39209C13.6987 9.6054 13.6141 9.80982 13.4632 9.96052C13.3124 10.1114 13.1079 10.1961 12.8947 10.1961H11.1644C10.9341 10.1961 10.7475 10.3827 10.7475 10.613V11.3873C10.7475 11.6175 10.9341 11.8042 11.1644 11.8042H12.8947C13.1079 11.8042 13.3124 11.8888 13.4632 12.0396C13.6141 12.1904 13.6987 12.3949 13.6987 12.6081C13.6987 12.8214 13.6141 13.0259 13.4632 13.1767C13.3124 13.3274 13.1079 13.4121 12.8947 13.4121H11.0144C10.8664 13.4121 10.7463 13.5321 10.7463 13.6803C10.7463 13.8211 10.7186 13.9605 10.6647 14.0907C10.6107 14.2208 10.5316 14.339 10.432 14.4385C10.3323 14.5382 10.2141 14.6171 10.0839 14.6709C9.95376 14.7247 9.81415 14.7524 9.67326 14.7521H9.13619C8.28007 14.7525 7.44949 14.4604 6.78198 13.9243C6.20183 13.4583 5.77509 12.8323 5.55226 12.1276C5.49328 11.9411 5.32632 11.8042 5.13067 11.8042H3.24794C3.0297 11.8042 2.8475 11.6358 2.8391 11.4177C2.82837 11.1394 2.82837 10.8609 2.8391 10.5825C2.8475 10.3644 3.0297 10.1961 3.24794 10.1961H5.13175C5.32738 10.1961 5.49434 10.0592 5.55333 9.87261C5.77616 9.16797 6.2029 8.54189 6.78304 8.07593ZM19.7496 13.7082C19.5942 13.5528 19.5069 13.342 19.5069 13.1222V8.70219C19.5069 8.48238 19.5942 8.27154 19.7496 8.11612C19.905 7.96069 20.1159 7.87337 20.3356 7.87337C20.5554 7.87337 20.7662 7.96069 20.9217 8.11612C21.0771 8.27154 21.1644 8.48238 21.1644 8.70219V13.1222C21.1644 13.342 21.0771 13.5528 20.9217 13.7082C20.7662 13.8637 20.5554 13.951 20.3356 13.951C20.1159 13.951 19.905 13.8637 19.7496 13.7082Z" fill="url(#paint1_linear_451_1431)"/>
</g>
<defs>
<linearGradient id="paint0_linear_451_1431" x1="9.19366" y1="18.3332" x2="9.19366" y2="3.6665" gradientUnits="userSpaceOnUse">
<stop stop-color="#5570FF"/>
<stop offset="1" stop-color="#4DD3FF"/>
</linearGradient>
<linearGradient id="paint1_linear_451_1431" x1="11.9977" y1="14.7521" x2="11.9977" y2="7.24805" gradientUnits="userSpaceOnUse">
<stop stop-color="#5558FF"/>
<stop offset="1" stop-color="#00C0FF"/>
</linearGradient>
<clipPath id="clip0_451_1431">
<rect width="22" height="22" fill="white" transform="translate(0.255859)"/>
</clipPath>
</defs>
</svg>
