<svg width="23" height="22" viewBox="0 0 23 22" fill="none" xmlns="http://www.w3.org/2000/svg">
<g clip-path="url(#clip0_451_1441)">
<path d="M2.88417 4.80555C1.74512 5.94363 1.74512 7.77662 1.74512 11.4416C1.74512 15.1066 1.74512 16.9396 2.88417 18.0777C4.02225 19.2167 5.85523 19.2167 9.52022 19.2167H10.9781C14.6431 19.2167 16.476 19.2167 17.6141 18.0777C18.7531 16.9396 18.7531 15.1066 18.7531 11.4416C18.7531 7.77662 18.7531 5.94363 17.6141 4.80555C16.476 3.6665 14.6431 3.6665 10.9781 3.6665H9.52022C5.85523 3.6665 4.02225 3.6665 2.88417 4.80555Z" stroke="url(#paint0_linear_451_1441)" stroke-width="2"/>
<path d="M21.1213 13.7921C21.1213 14.0185 21.2111 14.2355 21.3713 14.3956C21.5312 14.5556 21.7484 14.6456 21.9746 14.6456C22.201 14.6456 22.4181 14.5556 22.5782 14.3956C22.7383 14.2355 22.8281 14.0185 22.8281 13.7921V9.24035C22.8281 9.01399 22.7383 8.7969 22.5782 8.63685C22.4181 8.47679 22.201 8.38687 21.9746 8.38687C21.7484 8.38687 21.5312 8.47679 21.3713 8.63685C21.2111 8.7969 21.1213 9.01399 21.1213 9.24035V13.7921ZM10.6817 8.6486C10.8201 8.47406 10.8849 8.25229 10.8621 8.03065C10.8391 7.80903 10.7305 7.60511 10.5595 7.46247C10.3883 7.31983 10.1681 7.24979 9.94597 7.26729C9.7239 7.2848 9.5174 7.38848 9.37068 7.55617L6.52581 10.97C6.42202 11.0946 6.35588 11.2462 6.33514 11.407C6.31439 11.5679 6.3399 11.7313 6.40867 11.8781C6.47745 12.025 6.58665 12.1492 6.72347 12.2364C6.86031 12.3234 7.0191 12.3697 7.18127 12.3697H9.34224L7.66377 14.3838C7.52528 14.5584 7.46054 14.7801 7.48337 15.0018C7.5062 15.2234 7.6148 15.4274 7.78596 15.57C7.95713 15.7127 8.17729 15.7826 8.39941 15.7652C8.62151 15.7477 8.82799 15.644 8.97474 15.4763L11.8196 12.0625C11.9235 11.9378 11.9896 11.7862 12.0103 11.6254C12.031 11.4645 12.0055 11.3011 11.9368 11.1543C11.8679 11.0074 11.7587 10.8831 11.622 10.7961C11.4851 10.709 11.3263 10.6628 11.1642 10.6628H9.00318L10.6817 8.6486Z" fill="url(#paint1_linear_451_1441)"/>
</g>
<defs>
<linearGradient id="paint0_linear_451_1441" x1="8.35091" y1="11.997" x2="13.3568" y2="7.60146" gradientUnits="userSpaceOnUse">
<stop stop-color="#0072FF"/>
<stop offset="1" stop-color="#00E5A1"/>
</linearGradient>
<linearGradient id="paint1_linear_451_1441" x1="12.7366" y1="11.8199" x2="15.2465" y2="7.91008" gradientUnits="userSpaceOnUse">
<stop stop-color="#0072FF"/>
<stop offset="1" stop-color="#00E5A1"/>
</linearGradient>
<clipPath id="clip0_451_1441">
<rect width="22" height="22" fill="white" transform="translate(0.828125)"/>
</clipPath>
</defs>
</svg>
