<svg width="23" height="22" viewBox="0 0 23 22" fill="none" xmlns="http://www.w3.org/2000/svg">
<g clip-path="url(#clip0_451_1428)">
<path d="M2.05577 4.74083C0.981445 5.81424 0.981445 7.54308 0.981445 10.9998C0.981445 14.4566 0.981445 16.1854 2.05577 17.2588C3.12919 18.3332 4.85802 18.3332 8.31476 18.3332H9.68978C13.1465 18.3332 14.8754 18.3332 15.9487 17.2588C17.023 16.1854 17.023 14.4566 17.023 10.9998C17.023 7.54308 17.023 5.81424 15.9487 4.74083C14.8754 3.6665 13.1465 3.6665 9.68978 3.6665H8.31476C4.85802 3.6665 3.12919 3.6665 2.05577 4.74083Z" stroke="url(#paint0_linear_451_1428)" stroke-width="2"/>
<path fill-rule="evenodd" clip-rule="evenodd" d="M6.59163 8.07593C7.25915 7.53982 8.08974 7.24774 8.94594 7.24805H9.48295C9.62385 7.24791 9.76336 7.27553 9.89353 7.32934C10.0237 7.38316 10.142 7.4621 10.2417 7.56166C10.3414 7.66123 10.4204 7.77945 10.4744 7.90958C10.5282 8.03971 10.5561 8.17921 10.5561 8.32008C10.5561 8.46808 10.6761 8.58808 10.824 8.58808H12.7033C12.9165 8.58808 13.121 8.67278 13.2718 8.82357C13.4227 8.9744 13.5073 9.17888 13.5073 9.39209C13.5073 9.6054 13.4227 9.80982 13.2718 9.96052C13.121 10.1114 12.9165 10.1961 12.7033 10.1961H10.973C10.7427 10.1961 10.5561 10.3827 10.5561 10.613V11.3873C10.5561 11.6175 10.7427 11.8042 10.973 11.8042H12.7033C12.9165 11.8042 13.121 11.8888 13.2718 12.0396C13.4227 12.1904 13.5073 12.3949 13.5073 12.6081C13.5073 12.8214 13.4227 13.0259 13.2718 13.1767C13.121 13.3274 12.9165 13.4121 12.7033 13.4121H10.823C10.675 13.4121 10.5549 13.5321 10.5549 13.6803C10.5549 13.8211 10.5272 13.9605 10.4733 14.0907C10.4193 14.2208 10.3402 14.339 10.2406 14.4385C10.1409 14.5382 10.0227 14.6171 9.89252 14.6709C9.76235 14.7247 9.62275 14.7524 9.48185 14.7521H8.94478C8.08867 14.7525 7.25809 14.4604 6.59057 13.9243C6.01042 13.4583 5.58368 12.8323 5.36085 12.1276C5.30187 11.9411 5.13491 11.8042 4.93927 11.8042H3.05653C2.83829 11.8042 2.6561 11.6358 2.64769 11.4177C2.63697 11.1394 2.63697 10.8609 2.64769 10.5825C2.6561 10.3644 2.83829 10.1961 3.05653 10.1961H4.94034C5.13597 10.1961 5.30294 10.0592 5.36192 9.87261C5.58476 9.16797 6.01149 8.54189 6.59163 8.07593ZM19.5582 13.7082C19.4028 13.5528 19.3155 13.342 19.3155 13.1222V8.70219C19.3155 8.48238 19.4028 8.27154 19.5582 8.11612C19.7136 7.96069 19.9245 7.87337 20.1442 7.87337C20.364 7.87337 20.5748 7.96069 20.7303 8.11612C20.8857 8.27154 20.973 8.48238 20.973 8.70219V13.1222C20.973 13.342 20.8857 13.5528 20.7303 13.7082C20.5748 13.8637 20.364 13.951 20.1442 13.951C19.9245 13.951 19.7136 13.8637 19.5582 13.7082Z" fill="url(#paint1_linear_451_1428)"/>
</g>
<defs>
<linearGradient id="paint0_linear_451_1428" x1="9.00225" y1="18.3332" x2="9.00225" y2="3.6665" gradientUnits="userSpaceOnUse">
<stop stop-color="#FDA700"/>
<stop offset="1" stop-color="#FFDE00"/>
</linearGradient>
<linearGradient id="paint1_linear_451_1428" x1="11.8062" y1="14.7521" x2="11.8062" y2="7.24805" gradientUnits="userSpaceOnUse">
<stop stop-color="#FDA700"/>
<stop offset="1" stop-color="#FFDE00"/>
</linearGradient>
<clipPath id="clip0_451_1428">
<rect width="22" height="22" fill="white" transform="translate(0.0644531)"/>
</clipPath>
</defs>
</svg>
