<svg width="23" height="22" viewBox="0 0 23 22" fill="none" xmlns="http://www.w3.org/2000/svg">
<g clip-path="url(#clip0_451_1422)">
<path d="M3.32139 4.74083C2.24707 5.81424 2.24707 7.54308 2.24707 10.9998C2.24707 14.4566 2.24707 16.1854 3.32139 17.2588C4.39481 18.3332 6.12364 18.3332 9.58039 18.3332H10.9554C14.4122 18.3332 16.141 18.3332 17.2143 17.2588C18.2887 16.1854 18.2887 14.4566 18.2887 10.9998C18.2887 7.54308 18.2887 5.81424 17.2143 4.74083C16.141 3.6665 14.4122 3.6665 10.9554 3.6665H9.58039C6.12364 3.6665 4.39481 3.6665 3.32139 4.74083Z" stroke="url(#paint0_linear_451_1422)" stroke-width="2"/>
<path fill-rule="evenodd" clip-rule="evenodd" d="M7.96957 8.07593C8.63709 7.53982 9.46768 7.24774 10.3239 7.24805H10.8609C11.0017 7.24791 11.1413 7.27553 11.2715 7.32934C11.4017 7.38315 11.5199 7.4621 11.6196 7.56166C11.7193 7.66123 11.7983 7.77945 11.8523 7.90958C11.9062 8.03971 11.934 8.17921 11.934 8.32008C11.934 8.46808 12.054 8.58808 12.202 8.58808H14.0813C14.2945 8.58808 14.499 8.67278 14.6498 8.82356C14.8006 8.9744 14.8852 9.17888 14.8852 9.39209C14.8852 9.6054 14.8006 9.80982 14.6498 9.96052C14.499 10.1114 14.2945 10.1961 14.0813 10.1961H12.3509C12.1207 10.1961 11.934 10.3827 11.934 10.613V11.3873C11.934 11.6175 12.1207 11.8042 12.3509 11.8042H14.0813C14.2945 11.8042 14.499 11.8888 14.6498 12.0396C14.8006 12.1904 14.8852 12.3949 14.8852 12.6081C14.8852 12.8214 14.8006 13.0259 14.6498 13.1767C14.499 13.3274 14.2945 13.4121 14.0813 13.4121H12.2009C12.053 13.4121 11.9329 13.5321 11.9329 13.6803C11.9329 13.8211 11.9051 13.9605 11.8513 14.0907C11.7973 14.2208 11.7182 14.339 11.6186 14.4385C11.5189 14.5381 11.4006 14.6171 11.2704 14.6709C11.1402 14.7247 11.0007 14.7524 10.8597 14.7521H10.3228C9.46661 14.7525 8.63602 14.4604 7.96851 13.9243C7.38836 13.4583 6.96162 12.8323 6.73879 12.1276C6.6798 11.9411 6.51285 11.8042 6.3172 11.8042H4.43447C4.21623 11.8042 4.03404 11.6358 4.02562 11.4177C4.0149 11.1394 4.0149 10.8609 4.02562 10.5825C4.03404 10.3644 4.21623 10.1961 4.43447 10.1961H6.31828C6.51391 10.1961 6.68087 10.0592 6.73986 9.87261C6.9627 9.16788 7.38943 8.54189 7.96957 8.07593ZM20.9362 13.7082C20.7806 13.5528 20.6935 13.342 20.6935 13.1222V8.70219C20.6935 8.48238 20.7806 8.27154 20.9362 8.11612C21.0916 7.96069 21.3024 7.87337 21.5221 7.87337C21.742 7.87337 21.9528 7.96069 22.1082 8.11612C22.2637 8.27154 22.3509 8.48238 22.3509 8.70219V13.1222C22.3509 13.342 22.2637 13.5528 22.1082 13.7082C21.9528 13.8637 21.742 13.951 21.5221 13.951C21.3024 13.951 21.0916 13.8637 20.9362 13.7082Z" fill="url(#paint1_linear_451_1422)"/>
</g>
<defs>
<linearGradient id="paint0_linear_451_1422" x1="10.2678" y1="18.3332" x2="10.2678" y2="3.66655" gradientUnits="userSpaceOnUse">
<stop stop-color="#FFA336"/>
<stop offset="1" stop-color="#FF4D1C"/>
</linearGradient>
<linearGradient id="paint1_linear_451_1422" x1="13.1842" y1="14.7521" x2="13.1842" y2="7.24807" gradientUnits="userSpaceOnUse">
<stop stop-color="#FFA336"/>
<stop offset="1" stop-color="#FF4D1C"/>
</linearGradient>
<clipPath id="clip0_451_1422">
<rect width="22" height="22" fill="white" transform="translate(0.683594)"/>
</clipPath>
</defs>
</svg>
