<svg width="23" height="22" viewBox="0 0 23 22" fill="none" xmlns="http://www.w3.org/2000/svg">
<g clip-path="url(#clip0_451_1419)">
<path d="M2.4835 4.74083C1.40918 5.81424 1.40918 7.54308 1.40918 10.9998C1.40918 14.4566 1.40918 16.1854 2.4835 17.2588C3.55692 18.3332 5.28575 18.3332 8.74249 18.3332H10.1175C13.5743 18.3332 15.3031 18.3332 16.3764 17.2588C17.4508 16.1854 17.4508 14.4566 17.4508 10.9998C17.4508 7.54308 17.4508 5.81424 16.3764 4.74083C15.3031 3.6665 13.5743 3.6665 10.1175 3.6665H8.74249C5.28575 3.6665 3.55692 3.6665 2.4835 4.74083Z" stroke="url(#paint0_linear_451_1419)" stroke-width="2"/>
<path fill-rule="evenodd" clip-rule="evenodd" d="M7.01937 8.07593C7.68688 7.53982 8.51748 7.24774 9.37367 7.24805H9.91069C10.0516 7.24791 10.1911 7.27553 10.3213 7.32934C10.4514 7.38316 10.5698 7.4621 10.6694 7.56166C10.7691 7.66123 10.8482 7.77945 10.9022 7.90958C10.956 8.03971 10.9838 8.17921 10.9838 8.32008C10.9838 8.46808 11.1038 8.58808 11.2518 8.58808H13.131C13.3442 8.58808 13.5488 8.67278 13.6995 8.82357C13.8504 8.9744 13.935 9.17888 13.935 9.39209C13.935 9.6054 13.8504 9.80982 13.6995 9.96052C13.5488 10.1114 13.3442 10.1961 13.131 10.1961H11.4007C11.1705 10.1961 10.9838 10.3827 10.9838 10.613V11.3873C10.9838 11.6175 11.1705 11.8042 11.4007 11.8042H13.131C13.3442 11.8042 13.5488 11.8888 13.6995 12.0396C13.8504 12.1904 13.935 12.3949 13.935 12.6081C13.935 12.8214 13.8504 13.0259 13.6995 13.1767C13.5488 13.3274 13.3442 13.4121 13.131 13.4121H11.2508C11.1027 13.4121 10.9826 13.5321 10.9826 13.6803C10.9826 13.8211 10.955 13.9605 10.9011 14.0907C10.8471 14.2208 10.768 14.339 10.6683 14.4385C10.5687 14.5382 10.4504 14.6171 10.3203 14.6709C10.1901 14.7247 10.0505 14.7524 9.90959 14.7521H9.37251C8.5164 14.7525 7.68582 14.4604 7.0183 13.9243C6.43815 13.4583 6.01142 12.8323 5.78859 12.1276C5.72961 11.9411 5.56265 11.8042 5.367 11.8042H3.48427C3.26603 11.8042 3.08383 11.6358 3.07543 11.4177C3.0647 11.1394 3.0647 10.8609 3.07543 10.5825C3.08383 10.3644 3.26603 10.1961 3.48427 10.1961H5.36807C5.56371 10.1961 5.73067 10.0592 5.78966 9.87261C6.01249 9.16797 6.43923 8.54189 7.01937 8.07593ZM19.986 13.7082C19.8305 13.5528 19.7432 13.342 19.7432 13.1222V8.70219C19.7432 8.48238 19.8305 8.27154 19.986 8.11612C20.1413 7.96069 20.3523 7.87337 20.5719 7.87337C20.7917 7.87337 21.0025 7.96069 21.158 8.11612C21.3135 8.27154 21.4007 8.48238 21.4007 8.70219V13.1222C21.4007 13.342 21.3135 13.5528 21.158 13.7082C21.0025 13.8637 20.7917 13.951 20.5719 13.951C20.3523 13.951 20.1413 13.8637 19.986 13.7082Z" fill="url(#paint1_linear_451_1419)"/>
</g>
<defs>
<linearGradient id="paint0_linear_451_1419" x1="16.9088" y1="4.08572" x2="11.5582" y2="18.7802" gradientUnits="userSpaceOnUse">
<stop stop-color="#FE0F7C"/>
<stop offset="1" stop-color="#DF0066"/>
</linearGradient>
<linearGradient id="paint1_linear_451_1419" x1="20.7814" y1="7.46254" x2="19.4292" y2="15.7573" gradientUnits="userSpaceOnUse">
<stop stop-color="#FE0F7C"/>
<stop offset="1" stop-color="#DF0066"/>
</linearGradient>
<clipPath id="clip0_451_1419">
<rect width="22" height="22" fill="white" transform="translate(0.492188)"/>
</clipPath>
</defs>
</svg>
