<svg width="23" height="22" viewBox="0 0 23 22" fill="none" xmlns="http://www.w3.org/2000/svg">
<g clip-path="url(#clip0_451_1416)">
<path d="M2.3578 4.80555C1.21875 5.94363 1.21875 7.77662 1.21875 11.4416C1.21875 15.1066 1.21875 16.9396 2.3578 18.0777C3.49588 19.2167 5.32886 19.2167 8.99385 19.2167H10.4517C14.1167 19.2167 15.9497 19.2167 17.0877 18.0777C18.2268 16.9396 18.2268 15.1066 18.2268 11.4416C18.2268 7.77662 18.2268 5.94363 17.0877 4.80555C15.9497 3.6665 14.1167 3.6665 10.4517 3.6665H8.99385C5.32886 3.6665 3.49588 3.6665 2.3578 4.80555Z" stroke="url(#paint0_linear_451_1416)" stroke-width="2"/>
<path d="M20.5949 13.7921C20.5949 14.0185 20.6848 14.2355 20.8449 14.3956C21.0049 14.5556 21.222 14.6456 21.4482 14.6456C21.6747 14.6456 21.8917 14.5556 22.0518 14.3956C22.2119 14.2355 22.3018 14.0185 22.3018 13.7921V9.24035C22.3018 9.01399 22.2119 8.7969 22.0518 8.63685C21.8917 8.47679 21.6747 8.38687 21.4482 8.38687C21.222 8.38687 21.0049 8.47679 20.8449 8.63685C20.6848 8.7969 20.5949 9.01399 20.5949 9.24035V13.7921ZM10.1553 8.6486C10.2937 8.47406 10.3585 8.25229 10.3357 8.03065C10.3128 7.80903 10.2041 7.60511 10.0331 7.46247C9.86195 7.31983 9.64177 7.24979 9.4196 7.26729C9.19753 7.2848 8.99103 7.38848 8.84431 7.55617L5.99945 10.97C5.89565 11.0946 5.82951 11.2462 5.80877 11.407C5.78803 11.5679 5.81353 11.7313 5.88231 11.8781C5.95108 12.025 6.06029 12.1492 6.19711 12.2364C6.33394 12.3234 6.49273 12.3697 6.6549 12.3697H8.81587L7.13741 14.3838C6.99892 14.5584 6.93417 14.7801 6.95701 15.0018C6.97983 15.2234 7.08844 15.4274 7.2596 15.57C7.43077 15.7127 7.65092 15.7826 7.87304 15.7652C8.09515 15.7477 8.30162 15.644 8.44838 15.4763L11.2932 12.0625C11.3971 11.9378 11.4632 11.7862 11.4839 11.6254C11.5046 11.4645 11.4791 11.3011 11.4104 11.1543C11.3415 11.0074 11.2324 10.8831 11.0956 10.7961C10.9587 10.709 10.8 10.6628 10.6378 10.6628H8.47681L10.1553 8.6486Z" fill="url(#paint1_linear_451_1416)"/>
</g>
<defs>
<linearGradient id="paint0_linear_451_1416" x1="9.72276" y1="19.2167" x2="9.72276" y2="3.6665" gradientUnits="userSpaceOnUse">
<stop stop-color="#02AA93"/>
<stop offset="1" stop-color="#67FF80"/>
</linearGradient>
<linearGradient id="paint1_linear_451_1416" x1="14.0518" y1="15.7677" x2="14.0518" y2="7.26465" gradientUnits="userSpaceOnUse">
<stop stop-color="#02AA93"/>
<stop offset="1" stop-color="#67FF80"/>
</linearGradient>
<clipPath id="clip0_451_1416">
<rect width="22" height="22" fill="white" transform="translate(0.301758)"/>
</clipPath>
</defs>
</svg>
