<svg width="23" height="22" viewBox="0 0 23 22" fill="none" xmlns="http://www.w3.org/2000/svg">
<g clip-path="url(#clip0_451_1434)">
<path d="M2.50233 4.80555C1.36328 5.94363 1.36328 7.77662 1.36328 11.4416C1.36328 15.1066 1.36328 16.9396 2.50233 18.0777C3.64041 19.2167 5.47339 19.2167 9.13838 19.2167H10.5962C14.2612 19.2167 16.0942 19.2167 17.2322 18.0777C18.3713 16.9396 18.3713 15.1066 18.3713 11.4416C18.3713 7.77662 18.3713 5.94363 17.2322 4.80555C16.0942 3.6665 14.2612 3.6665 10.5962 3.6665H9.13838C5.47339 3.6665 3.64041 3.6665 2.50233 4.80555Z" stroke="url(#paint0_linear_451_1434)" stroke-width="2"/>
<path d="M20.7395 13.7921C20.7395 14.0185 20.8293 14.2355 20.9894 14.3956C21.1494 14.5556 21.3665 14.6456 21.5928 14.6456C21.8192 14.6456 22.0363 14.5556 22.1963 14.3956C22.3565 14.2355 22.4463 14.0185 22.4463 13.7921V9.24035C22.4463 9.01399 22.3565 8.7969 22.1963 8.63685C22.0363 8.47679 21.8192 8.38687 21.5928 8.38687C21.3665 8.38687 21.1494 8.47679 20.9894 8.63685C20.8293 8.7969 20.7395 9.01399 20.7395 9.24035V13.7921ZM10.2998 8.6486C10.4382 8.47406 10.503 8.25229 10.4802 8.03065C10.4573 7.80903 10.3487 7.60511 10.1776 7.46247C10.0065 7.31983 9.7863 7.24979 9.56413 7.26729C9.34206 7.2848 9.13557 7.38848 8.98884 7.55617L6.14398 10.97C6.04018 11.0946 5.97405 11.2462 5.9533 11.407C5.93256 11.5679 5.95806 11.7313 6.02684 11.8781C6.09561 12.025 6.20482 12.1492 6.34164 12.2364C6.47847 12.3234 6.63726 12.3697 6.79943 12.3697H8.9604L7.28194 14.3838C7.14345 14.5584 7.0787 14.7801 7.10154 15.0018C7.12436 15.2234 7.23297 15.4274 7.40413 15.57C7.5753 15.7127 7.79545 15.7826 8.01757 15.7652C8.23968 15.7477 8.44615 15.644 8.59291 15.4763L11.4378 12.0625C11.5416 11.9378 11.6077 11.7862 11.6284 11.6254C11.6491 11.4645 11.6237 11.3011 11.5549 11.1543C11.4861 11.0074 11.3769 10.8831 11.2401 10.7961C11.1033 10.709 10.9445 10.6628 10.7823 10.6628H8.62134L10.2998 8.6486Z" fill="url(#paint1_linear_451_1434)"/>
</g>
<defs>
<linearGradient id="paint0_linear_451_1434" x1="9.86729" y1="19.2167" x2="9.86729" y2="3.6665" gradientUnits="userSpaceOnUse">
<stop stop-color="#5570FF"/>
<stop offset="1" stop-color="#4DD3FF"/>
</linearGradient>
<linearGradient id="paint1_linear_451_1434" x1="14.1963" y1="15.7678" x2="14.1963" y2="7.26465" gradientUnits="userSpaceOnUse">
<stop stop-color="#5570FF"/>
<stop offset="1" stop-color="#4DD3FF"/>
</linearGradient>
<clipPath id="clip0_451_1434">
<rect width="22" height="22" fill="white" transform="translate(0.446289)"/>
</clipPath>
</defs>
</svg>
