<svg width="23" height="22" viewBox="0 0 23 22" fill="none" xmlns="http://www.w3.org/2000/svg">
<g clip-path="url(#clip0_451_1425)">
<path d="M2.93007 4.80555C1.79102 5.94363 1.79102 7.77662 1.79102 11.4416C1.79102 15.1066 1.79102 16.9396 2.93007 18.0777C4.06814 19.2167 5.90113 19.2167 9.56612 19.2167H11.024C14.689 19.2167 16.5219 19.2167 17.66 18.0777C18.799 16.9396 18.799 15.1066 18.799 11.4416C18.799 7.77662 18.799 5.94363 17.66 4.80555C16.5219 3.6665 14.689 3.6665 11.024 3.6665H9.56612C5.90113 3.6665 4.06814 3.6665 2.93007 4.80555Z" stroke="url(#paint0_linear_451_1425)" stroke-width="2"/>
<path d="M21.1672 13.7921C21.1672 14.0185 21.257 14.2355 21.4172 14.3956C21.5771 14.5556 21.7943 14.6456 22.0205 14.6456C22.2469 14.6456 22.464 14.5556 22.624 14.3956C22.7842 14.2355 22.874 14.0185 22.874 13.7921V9.24035C22.874 9.01399 22.7842 8.7969 22.624 8.63685C22.464 8.47679 22.2469 8.38687 22.0205 8.38687C21.7943 8.38687 21.5771 8.47679 21.4172 8.63685C21.257 8.7969 21.1672 9.01399 21.1672 9.24035V13.7921ZM10.7275 8.6486C10.866 8.47406 10.9308 8.25229 10.9079 8.03065C10.885 7.80903 10.7764 7.60511 10.6054 7.46247C10.4342 7.31983 10.214 7.24979 9.99187 7.26729C9.7698 7.2848 9.5633 7.38848 9.41658 7.55617L6.57171 10.97C6.46792 11.0946 6.40178 11.2462 6.38104 11.407C6.36029 11.5679 6.38579 11.7313 6.45457 11.8781C6.52335 12.025 6.63255 12.1492 6.76937 12.2364C6.9062 12.3234 7.065 12.3697 7.22717 12.3697H9.38813L7.70967 14.3838C7.57118 14.5584 7.50644 14.7801 7.52927 15.0018C7.5521 15.2234 7.6607 15.4274 7.83186 15.57C8.00303 15.7127 8.22319 15.7826 8.44531 15.7652C8.66741 15.7477 8.87388 15.644 9.02064 15.4763L11.8655 12.0625C11.9694 11.9378 12.0354 11.7862 12.0562 11.6254C12.0769 11.4645 12.0514 11.3011 11.9826 11.1543C11.9138 11.0074 11.8046 10.8831 11.6679 10.7961C11.531 10.709 11.3722 10.6628 11.2101 10.6628H9.04908L10.7275 8.6486Z" fill="url(#paint1_linear_451_1425)"/>
</g>
<defs>
<linearGradient id="paint0_linear_451_1425" x1="10.295" y1="19.2167" x2="10.295" y2="3.66655" gradientUnits="userSpaceOnUse">
<stop stop-color="#FFA336"/>
<stop offset="1" stop-color="#FF4D1C"/>
</linearGradient>
<linearGradient id="paint1_linear_451_1425" x1="14.624" y1="15.7678" x2="14.624" y2="7.26467" gradientUnits="userSpaceOnUse">
<stop stop-color="#FFA336"/>
<stop offset="1" stop-color="#FF4D1C"/>
</linearGradient>
<clipPath id="clip0_451_1425">
<rect width="22" height="22" fill="white" transform="translate(0.874023)"/>
</clipPath>
</defs>
</svg>
