<svg width="23" height="22" viewBox="0 0 23 22" fill="none" xmlns="http://www.w3.org/2000/svg">
<g clip-path="url(#clip0_451_1437)">
<path d="M2.62804 4.74083C1.55371 5.81424 1.55371 7.54308 1.55371 10.9998C1.55371 14.4566 1.55371 16.1854 2.62804 17.2588C3.70145 18.3332 5.43029 18.3332 8.88703 18.3332H10.262C13.7188 18.3332 15.4476 18.3332 16.521 17.2588C17.5953 16.1854 17.5953 14.4566 17.5953 10.9998C17.5953 7.54308 17.5953 5.81424 16.521 4.74083C15.4476 3.6665 13.7188 3.6665 10.262 3.6665H8.88703C5.43029 3.6665 3.70145 3.6665 2.62804 4.74083Z" stroke="url(#paint0_linear_451_1437)" stroke-width="2"/>
<path d="M2.62804 4.74083C1.55371 5.81424 1.55371 7.54308 1.55371 10.9998C1.55371 14.4566 1.55371 16.1854 2.62804 17.2588C3.70145 18.3332 5.43029 18.3332 8.88703 18.3332H10.262C13.7188 18.3332 15.4476 18.3332 16.521 17.2588C17.5953 16.1854 17.5953 14.4566 17.5953 10.9998C17.5953 7.54308 17.5953 5.81424 16.521 4.74083C15.4476 3.6665 13.7188 3.6665 10.262 3.6665H8.88703C5.43029 3.6665 3.70145 3.6665 2.62804 4.74083Z" stroke="url(#paint1_linear_451_1437)" stroke-width="2"/>
<path fill-rule="evenodd" clip-rule="evenodd" d="M7.1639 8.07593C7.83141 7.53982 8.66201 7.24774 9.5182 7.24805H10.0552C10.1961 7.24791 10.3356 7.27553 10.4658 7.32934C10.596 7.38316 10.7143 7.4621 10.8139 7.56166C10.9137 7.66123 10.9927 7.77945 11.0467 7.90958C11.1005 8.03971 11.1284 8.17921 11.1284 8.32008C11.1284 8.46808 11.2484 8.58808 11.3963 8.58808H13.2756C13.4888 8.58808 13.6933 8.67278 13.8441 8.82357C13.995 8.9744 14.0796 9.17888 14.0796 9.39209C14.0796 9.6054 13.995 9.80982 13.8441 9.96052C13.6933 10.1114 13.4888 10.1961 13.2756 10.1961H11.5453C11.315 10.1961 11.1284 10.3827 11.1284 10.613V11.3873C11.1284 11.6175 11.315 11.8042 11.5453 11.8042H13.2756C13.4888 11.8042 13.6933 11.8888 13.8441 12.0396C13.995 12.1904 14.0796 12.3949 14.0796 12.6081C14.0796 12.8214 13.995 13.0259 13.8441 13.1767C13.6933 13.3274 13.4888 13.4121 13.2756 13.4121H11.3953C11.2473 13.4121 11.1272 13.5321 11.1272 13.6803C11.1272 13.8211 11.0995 13.9605 11.0456 14.0907C10.9916 14.2208 10.9125 14.339 10.8128 14.4385C10.7132 14.5382 10.595 14.6171 10.4648 14.6709C10.3346 14.7247 10.195 14.7524 10.0541 14.7521H9.51704C8.66093 14.7525 7.83035 14.4604 7.16283 13.9243C6.58269 13.4583 6.15595 12.8323 5.93312 12.1276C5.87414 11.9411 5.70718 11.8042 5.51153 11.8042H3.6288C3.41056 11.8042 3.22836 11.6358 3.21996 11.4177C3.20923 11.1394 3.20923 10.8609 3.21996 10.5825C3.22836 10.3644 3.41056 10.1961 3.6288 10.1961H5.51261C5.70824 10.1961 5.8752 10.0592 5.93419 9.87261C6.15702 9.16797 6.58376 8.54189 7.1639 8.07593ZM20.1305 13.7082C19.975 13.5528 19.8878 13.342 19.8878 13.1222V8.70219C19.8878 8.48238 19.975 8.27154 20.1305 8.11612C20.2859 7.96069 20.4968 7.87337 20.7164 7.87337C20.9362 7.87337 21.1471 7.96069 21.3025 8.11612C21.458 8.27154 21.5453 8.48238 21.5453 8.70219V13.1222C21.5453 13.342 21.458 13.5528 21.3025 13.7082C21.1471 13.8637 20.9362 13.951 20.7164 13.951C20.4968 13.951 20.2859 13.8637 20.1305 13.7082Z" fill="url(#paint2_linear_451_1437)"/>
</g>
<defs>
<linearGradient id="paint0_linear_451_1437" x1="9.57452" y1="18.3332" x2="9.57452" y2="3.6665" gradientUnits="userSpaceOnUse">
<stop stop-color="#5570FF"/>
<stop offset="1" stop-color="#4DD3FF"/>
</linearGradient>
<linearGradient id="paint1_linear_451_1437" x1="7.78415" y1="11.5236" x2="12.5056" y2="7.37789" gradientUnits="userSpaceOnUse">
<stop stop-color="#0072FF"/>
<stop offset="1" stop-color="#00E5A1"/>
</linearGradient>
<linearGradient id="paint2_linear_451_1437" x1="10.3324" y1="11.2681" x2="12.3041" y2="7.40104" gradientUnits="userSpaceOnUse">
<stop stop-color="#0072FF"/>
<stop offset="1" stop-color="#00E5A1"/>
</linearGradient>
<clipPath id="clip0_451_1437">
<rect width="22" height="22" fill="white" transform="translate(0.636719)"/>
</clipPath>
</defs>
</svg>
