<svg width="23" height="22" viewBox="0 0 23 22" fill="none" xmlns="http://www.w3.org/2000/svg">
<path d="M16.6851 20.625C17.618 20.625 18.3769 19.8658 18.3769 18.9332V3.10449C18.3769 2.1697 17.6215 1.375 16.6851 1.375H5.40575C4.95121 1.375 4.52324 1.56093 4.20058 1.89843C3.88672 2.22667 3.71387 2.65509 3.71387 3.10449V18.9332C3.71387 19.8658 4.47288 20.625 5.40575 20.625H16.6851ZM6.60932 16.395C6.6741 16.2826 6.61213 16.38 8.50713 14.4224C7.58114 16.9929 7.63123 16.8809 7.58599 16.9591C7.43015 17.2291 7.08561 17.3214 6.81568 17.1654C6.54647 17.0101 6.4538 16.6643 6.60932 16.395ZM10.2164 11.6873C9.99121 11.5466 9.69849 11.582 9.51346 11.7721L9.0874 12.2097C7.86738 11.5095 7.09766 10.1887 7.09766 8.74414C7.09766 6.56729 8.86857 4.79638 11.0454 4.79638C13.2223 4.79638 14.9932 6.56729 14.9932 8.74414C14.9932 10.9417 13.2223 12.7295 11.0454 12.7295C10.8063 12.7295 10.5695 12.7075 10.3371 12.6655L10.4483 12.3563C10.538 12.1065 10.4415 11.8279 10.2164 11.6873ZM5.40575 2.50293H16.6851C16.9854 2.50293 17.249 2.78403 17.249 3.10449V18.9332C17.249 19.244 16.9959 19.497 16.6851 19.497H9.32208C9.24116 18.7608 9.00177 18.057 8.61536 17.4238C8.68939 17.2736 8.58451 17.5337 9.95155 13.7382C10.3092 13.8169 10.6752 13.8574 11.0454 13.8574C13.8441 13.8574 16.1211 11.5635 16.1211 8.74414C16.1211 5.94531 13.8441 3.66845 11.0454 3.66845C8.24673 3.66845 5.96973 5.94531 5.96973 8.74414C5.96973 10.4964 6.85636 12.1076 8.28096 13.0378L6.06842 15.3102C5.67278 15.1606 5.26272 15.0621 4.8418 15.0159V3.10449C4.8418 2.78403 5.10542 2.50293 5.40575 2.50293ZM4.8418 18.9332V16.1531C5.04873 16.1825 5.25186 16.2281 5.45068 16.29C5.28489 16.9974 5.59081 17.7607 6.2517 18.1421C6.73754 18.4229 7.29844 18.4346 7.77471 18.228C7.98355 18.6247 8.12176 19.0523 8.1852 19.497H5.40575C5.09483 19.497 4.8418 19.244 4.8418 18.9332Z" fill="url(#paint0_linear_451_1444)" stroke="url(#paint1_linear_451_1444)" stroke-width="0.6"/>
<path d="M12.7373 8.74415C12.7373 7.81126 11.9783 7.05225 11.0454 7.05225C10.1125 7.05225 9.35352 7.81126 9.35352 8.74415C9.35352 9.67705 10.1125 10.4361 11.0454 10.4361C11.9783 10.4361 12.7373 9.67705 12.7373 8.74415ZM10.4814 8.74415C10.4814 8.43324 10.7345 8.18019 11.0454 8.18019C11.3563 8.18019 11.6094 8.43324 11.6094 8.74415C11.6094 9.05507 11.3563 9.30812 11.0454 9.30812C10.7345 9.30812 10.4814 9.05507 10.4814 8.74415Z" fill="url(#paint2_linear_451_1444)" stroke="url(#paint3_linear_451_1444)" stroke-width="0.6"/>
<path d="M15.5571 14.9854H13.3013C12.9898 14.9854 12.7373 15.2378 12.7373 15.5493C12.7373 15.8608 12.9898 16.1133 13.3013 16.1133H15.5571C15.8686 16.1133 16.1211 15.8608 16.1211 15.5493C16.1211 15.2378 15.8686 14.9854 15.5571 14.9854Z" fill="url(#paint4_linear_451_1444)" stroke="url(#paint5_linear_451_1444)" stroke-width="0.6"/>
<path d="M15.5571 17.2412H13.3013C12.9898 17.2412 12.7373 17.4939 12.7373 17.8053C12.7373 18.1167 12.9898 18.3692 13.3013 18.3692H15.5571C15.8686 18.3692 16.1211 18.1167 16.1211 17.8053C16.1211 17.4939 15.8686 17.2412 15.5571 17.2412Z" fill="url(#paint6_linear_451_1444)" stroke="url(#paint7_linear_451_1444)" stroke-width="0.6"/>
<defs>
<linearGradient id="paint0_linear_451_1444" x1="17.8815" y1="1.92522" x2="8.91259" y2="19.0797" gradientUnits="userSpaceOnUse">
<stop stop-color="#FE0F7C"/>
<stop offset="1" stop-color="#DF0066"/>
</linearGradient>
<linearGradient id="paint1_linear_451_1444" x1="17.8815" y1="1.92522" x2="8.91259" y2="19.0797" gradientUnits="userSpaceOnUse">
<stop stop-color="#FE0F7C"/>
<stop offset="1" stop-color="#DF0066"/>
</linearGradient>
<linearGradient id="paint2_linear_451_1444" x1="9.96683" y1="10.0366" x2="13.0182" y2="7.3742" gradientUnits="userSpaceOnUse">
<stop stop-color="#FE0844"/>
<stop offset="1" stop-color="#FEB302"/>
</linearGradient>
<linearGradient id="paint3_linear_451_1444" x1="9.96685" y1="10.0366" x2="13.0183" y2="7.37425" gradientUnits="userSpaceOnUse">
<stop stop-color="#FE0844"/>
<stop offset="1" stop-color="#FEB302"/>
</linearGradient>
<linearGradient id="paint4_linear_451_1444" x1="13.3506" y1="15.9801" x2="14.0351" y2="14.1884" gradientUnits="userSpaceOnUse">
<stop stop-color="#FE0844"/>
<stop offset="1" stop-color="#FEB302"/>
</linearGradient>
<linearGradient id="paint5_linear_451_1444" x1="13.3506" y1="15.9801" x2="14.0352" y2="14.1884" gradientUnits="userSpaceOnUse">
<stop stop-color="#FE0844"/>
<stop offset="1" stop-color="#FEB302"/>
</linearGradient>
<linearGradient id="paint6_linear_451_1444" x1="13.3506" y1="18.236" x2="14.0351" y2="16.4444" gradientUnits="userSpaceOnUse">
<stop stop-color="#FE0844"/>
<stop offset="1" stop-color="#FEB302"/>
</linearGradient>
<linearGradient id="paint7_linear_451_1444" x1="13.3506" y1="18.236" x2="14.0353" y2="16.4443" gradientUnits="userSpaceOnUse">
<stop stop-color="#FE0844"/>
<stop offset="1" stop-color="#FEB302"/>
</linearGradient>
</defs>
</svg>
