<svg width="23" height="22" viewBox="0 0 23 22" fill="none" xmlns="http://www.w3.org/2000/svg">
<path d="M20.5087 14.5403C21.3169 11.5747 20.5591 8.44972 18.477 6.17009C18.6028 5.89139 18.654 5.58463 18.6131 5.27453C18.5547 4.83091 18.3258 4.43635 17.967 4.16383C14.2869 1.3626 8.96351 1.36152 5.28443 4.16383C4.67863 4.62425 4.44511 5.44058 4.77463 6.16987C2.71024 8.43052 1.94714 11.528 2.72543 14.4734C2.07546 14.8871 1.77377 15.7039 2.04922 16.4517L2.82082 18.5494C3.1401 19.4162 4.10748 19.8679 4.98916 19.5499L5.62379 19.3215C5.78178 19.5107 5.96995 19.6732 6.20141 19.7799C6.60056 19.9636 7.05967 19.9927 7.49513 19.8356C7.91978 19.6824 8.2585 19.3751 8.44962 18.9702C8.64073 18.5647 8.66055 18.1101 8.50579 17.6899L6.96313 13.4946C6.80837 13.0744 6.49773 12.7387 6.08798 12.5496C5.67823 12.3611 5.21889 12.3403 4.79477 12.494C4.37014 12.6472 4.03089 12.9545 3.83976 13.3595C3.77548 13.496 3.73781 13.6388 3.71242 13.7833C3.20661 11.3504 3.8844 8.84304 5.5607 6.97237C6.23101 7.30617 6.8845 7.17181 7.34756 6.81801C9.81275 4.93996 13.4387 4.93996 15.9039 6.81801C16.418 7.20973 17.1256 7.24173 17.6903 6.97183C19.4383 8.92114 20.0935 11.5581 19.4642 14.0828L19.4589 14.0809C19.4612 13.8348 19.4142 13.5893 19.306 13.3595C19.1148 12.9546 18.7755 12.6472 18.351 12.4941C17.9263 12.342 17.467 12.3611 17.0572 12.5497C16.648 12.7388 16.3374 13.0745 16.1826 13.4946L14.6394 17.6899C14.4846 18.1101 14.5045 18.5647 14.6956 18.9702C14.987 19.5876 15.6037 19.9375 16.23 19.9375C16.474 19.9375 16.7169 19.8846 16.9443 19.7801C17.1755 19.6732 17.3635 19.5107 17.5215 19.3215L18.1561 19.5501C19.0244 19.8633 20.0014 19.4294 20.3243 18.5494L21.096 16.4517C21.358 15.7404 21.094 14.9704 20.5087 14.5403ZM5.18087 13.5426C5.47778 13.4369 5.79733 13.589 5.90348 13.8761L7.44615 18.0715C7.55154 18.3597 7.4043 18.6801 7.10908 18.787C7.10908 18.787 7.10908 18.787 7.10852 18.787C6.80645 18.8949 6.49025 18.7357 6.3859 18.4535L4.84324 14.2581C4.73733 13.9685 4.88633 13.6487 5.18087 13.5426ZM3.97637 15.1639L5.1335 18.3107L4.60366 18.5015C4.31122 18.605 3.98682 18.4568 3.88053 18.1679L3.10893 16.0702C3.00354 15.782 3.15079 15.4615 3.446 15.3546L3.97637 15.1639ZM17.3822 5.83153C17.1988 6.06751 16.8319 6.11655 16.5913 5.9329C13.7224 3.74751 9.53024 3.74751 6.6591 5.93398C6.40918 6.12403 6.05625 6.07224 5.8693 5.83153C5.6773 5.58463 5.72745 5.23473 5.97175 5.04893C7.6097 3.80198 9.60968 3.17855 11.572 3.17855C13.5344 3.17855 15.6418 3.80201 17.2797 5.04893C17.5244 5.23495 17.574 5.58498 17.3822 5.83153ZM16.7592 18.4535C16.6519 18.7437 16.3303 18.8911 16.0361 18.787C15.7405 18.6801 15.5938 18.3593 15.699 18.0715L17.2423 13.8761C17.3474 13.5918 17.6639 13.4362 17.9653 13.5426C18.261 13.6495 18.4077 13.9702 18.3025 14.2581L16.7592 18.4535ZM20.0363 16.0702L19.2642 18.1679C19.1583 18.4573 18.8386 18.6056 18.5421 18.5015L18.0123 18.3107L19.1693 15.1639L19.6762 15.3464C19.6788 15.3473 19.6805 15.3494 19.6832 15.3503C19.6855 15.351 19.6879 15.3507 19.6901 15.3513L19.6992 15.3546C19.9948 15.4616 20.1416 15.7823 20.0363 16.0702Z" fill="url(#paint0_linear_451_1455)" stroke="url(#paint1_linear_451_1455)" stroke-width="0.6"/>
<defs>
<linearGradient id="paint0_linear_451_1455" x1="11.6001" y1="16.3223" x2="13.0171" y2="3.32679" gradientUnits="userSpaceOnUse">
<stop stop-color="#B400CF"/>
<stop offset="1" stop-color="#339DFF"/>
</linearGradient>
<linearGradient id="paint1_linear_451_1455" x1="11.6001" y1="16.3223" x2="13.0171" y2="3.32679" gradientUnits="userSpaceOnUse">
<stop stop-color="#B400CF"/>
<stop offset="1" stop-color="#339DFF"/>
</linearGradient>
</defs>
</svg>
