<svg width="23" height="22" viewBox="0 0 23 22" fill="none" xmlns="http://www.w3.org/2000/svg">
<g clip-path="url(#clip0_451_1451)">
<path d="M21.595 15.0892C22.5187 11.664 21.6524 8.05474 19.2729 5.42185C19.4168 5.09996 19.4753 4.74567 19.4286 4.38752C19.3619 3.87515 19.1 3.41945 18.6902 3.1047C14.4843 -0.13063 8.40042 -0.131876 4.19573 3.1047C3.5034 3.63645 3.23652 4.57929 3.61311 5.42159C1.2538 8.03257 0.381687 11.6101 1.27116 15.0119C0.528343 15.4897 0.183553 16.433 0.49835 17.2967L1.38018 19.7195C1.74508 20.7207 2.85065 21.2423 3.85829 20.8751L4.58358 20.6113C4.76414 20.8298 4.9792 21.0174 5.24373 21.1408C5.69989 21.3528 6.2246 21.3863 6.72227 21.205C7.20757 21.0281 7.59469 20.6731 7.81311 20.2054C8.03152 19.7371 8.05417 19.2122 7.8773 18.7269L6.11425 13.8814C5.93739 13.3961 5.58237 13.0084 5.11408 12.79C4.6458 12.5722 4.12084 12.5483 3.63614 12.7258C3.15084 12.9026 2.76312 13.2577 2.5447 13.7253C2.47122 13.883 2.42817 14.048 2.39916 14.2148C1.82109 11.405 2.59571 8.50901 4.51148 6.34845C5.27754 6.73397 6.0244 6.57881 6.55362 6.17017C9.37098 4.00109 13.5149 4.00109 16.3324 6.17017C16.9199 6.6226 17.7285 6.65955 18.3738 6.34785C20.3717 8.59921 21.1204 11.6448 20.4013 14.5607L20.3951 14.5585C20.3978 14.2743 20.3441 13.9908 20.2204 13.7254C20.002 13.2577 19.6143 12.9027 19.129 12.7258C18.6437 12.5502 18.1187 12.5722 17.6504 12.79C17.1827 13.0084 16.8277 13.3961 16.6508 13.8814L14.8871 18.7269C14.7103 19.2122 14.7329 19.7372 14.9513 20.2054C15.2844 20.9185 15.9892 21.3227 16.705 21.3227C16.9838 21.3227 17.2614 21.2616 17.5214 21.1408C17.7856 21.0175 18.0004 20.8298 18.181 20.6113L18.9062 20.8752C19.8987 21.2369 21.0152 20.7358 21.3843 19.7195L22.2661 17.2968C22.5655 16.4752 22.2639 15.5859 21.595 15.0892ZM4.07739 13.9368C4.41673 13.8148 4.78193 13.9904 4.90323 14.322L6.66628 19.1675C6.78673 19.5004 6.61846 19.8705 6.28106 19.9939C6.28106 19.9939 6.28106 19.9939 6.28042 19.9939C5.9352 20.1185 5.57382 19.9347 5.45458 19.6087L3.69153 14.7632C3.57048 14.4288 3.74077 14.0594 4.07739 13.9368ZM2.70081 15.8094L4.02325 19.4438L3.41772 19.6641C3.0835 19.7837 2.71276 19.6125 2.59128 19.2788L1.70946 16.8561C1.58901 16.5232 1.75728 16.1531 2.09468 16.0297L2.70081 15.8094ZM18.0218 5.03082C17.8121 5.30338 17.3929 5.36001 17.1179 5.14791C13.8391 2.62386 9.0481 2.62387 5.7668 5.14916C5.48118 5.36865 5.07782 5.30884 4.86417 5.03082C4.64473 4.74567 4.70205 4.34154 4.98127 4.12695C6.8532 2.68677 9.1389 1.96673 11.3816 1.96673C13.6243 1.96673 16.0327 2.68682 17.9047 4.12695C18.1843 4.3418 18.2409 4.74606 18.0218 5.03082ZM17.3098 19.6087C17.1872 19.9439 16.8196 20.1143 16.4834 19.9939C16.1456 19.8704 15.9779 19.5 16.0982 19.1675L17.8619 14.322C17.982 13.9936 18.3437 13.8139 18.6883 13.9368C19.0261 14.0603 19.1938 14.4307 19.0735 14.7632L17.3098 19.6087ZM21.055 16.8561L20.1726 19.2788C20.0516 19.6132 19.6862 19.7845 19.3474 19.6641L18.7418 19.4438L20.0643 15.8094L20.6435 16.0201C20.6465 16.0212 20.6485 16.0236 20.6515 16.0246C20.6541 16.0255 20.6567 16.0251 20.6593 16.0259L20.6698 16.0296C21.0076 16.1532 21.1754 16.5236 21.055 16.8561Z" fill="url(#paint0_linear_451_1451)"/>
</g>
<defs>
<linearGradient id="paint0_linear_451_1451" x1="11.3819" y1="21.3227" x2="11.3819" y2="0.677761" gradientUnits="userSpaceOnUse">
<stop stop-color="#A93AFF"/>
<stop offset="1" stop-color="#FF81FF"/>
</linearGradient>
<clipPath id="clip0_451_1451">
<rect width="22" height="22" fill="white" transform="translate(0.381836)"/>
</clipPath>
</defs>
</svg>
