<svg width="23" height="22" viewBox="0 0 23 22" fill="none" xmlns="http://www.w3.org/2000/svg">
<path d="M11.5338 1.8335C7.7864 1.8335 4.65389 4.55147 3.62522 8.263C3.56238 8.48971 3.73697 8.7085 3.97222 8.7085H5.52986C5.69274 8.7085 5.83538 8.60076 5.88554 8.4458C6.772 5.70709 8.67913 4.12516 11.5338 4.12516C14.3885 4.12516 16.2956 5.70709 17.1822 8.4458C17.2323 8.60076 17.3749 8.7085 17.5378 8.7085H19.0954C19.3307 8.7085 19.5053 8.48971 19.4425 8.263C18.4138 4.55147 15.2813 1.8335 11.5338 1.8335ZM11.5338 6.41683C10.2373 6.41683 9.09698 7.1152 8.38497 8.19956C8.2364 8.42581 8.4111 8.7085 8.68176 8.7085H14.3835C14.6547 8.7085 14.8293 8.42475 14.6796 8.19858C13.9673 7.12282 12.8284 6.41683 11.5338 6.41683ZM4.32105 11.0002C4.00602 11.0002 3.83766 11.3712 4.04511 11.6083L11.2579 19.8515C11.4039 20.0184 11.6637 20.0184 11.8098 19.8515L19.0225 11.6083C19.23 11.3712 19.0617 11.0002 18.7466 11.0002H4.32105Z" fill="url(#paint0_linear_451_1457)"/>
<defs>
<linearGradient id="paint0_linear_451_1457" x1="3.513" y1="20.1668" x2="23.6218" y2="12.4978" gradientUnits="userSpaceOnUse">
<stop stop-color="#0357D1"/>
<stop offset="1" stop-color="#27CDFC"/>
</linearGradient>
</defs>
</svg>
