<svg width="23" height="22" viewBox="0 0 23 22" fill="none" xmlns="http://www.w3.org/2000/svg">
<g clip-path="url(#clip0_451_1512)">
<path d="M3.79797 3.1512C3.16463 3.1512 2.65121 3.8085 2.65121 4.6193V15.7769C2.65121 16.5877 3.16463 17.245 3.79797 17.245H8.23627C8.86911 17.245 9.38211 17.7579 9.38211 18.3908V18.4481C9.38211 19.0809 8.86911 19.5939 8.23627 19.5939H3.79797C2.15129 19.5939 0.816406 17.8849 0.816406 15.7769V4.6193C0.816406 2.5112 2.15129 0.802246 3.79797 0.802246H18.689C20.3357 0.802246 21.6706 2.5112 21.6706 4.6193V9.28068C21.6706 9.78734 21.2598 10.1981 20.7532 10.1981C20.2465 10.1981 19.8357 9.78734 19.8357 9.28068V4.6193C19.8357 3.80849 19.3223 3.1512 18.689 3.1512H3.79797Z" fill="url(#paint0_linear_451_1512)"/>
<path d="M19.8698 11.2734H19.8693C19.6341 11.2742 19.4026 11.3289 19.1925 11.4325C19.058 11.2482 18.8846 11.0951 18.6842 10.9842C18.4525 10.856 18.1922 10.7884 17.9272 10.7877H17.9266C17.6912 10.7886 17.4596 10.8432 17.2495 10.947C17.0611 10.6908 16.7988 10.4971 16.4967 10.3927C16.2112 10.294 15.9045 10.28 15.6131 10.3507V7.98815C15.6131 7.57133 15.4475 7.17157 15.1528 6.87683C14.858 6.58209 14.4584 6.4165 14.0415 6.4165C13.6246 6.4165 13.2249 6.58209 12.9302 6.87683C12.6354 7.17157 12.4699 7.57133 12.4699 7.98815V13.1625L11.5678 12.5477C11.3 12.3489 10.9749 12.2426 10.6414 12.2448C10.3299 12.2441 10.0252 12.336 9.76597 12.5089C9.50664 12.6819 9.3046 12.928 9.18555 13.2162C9.0665 13.5043 9.0358 13.8212 9.09736 14.1268C9.15893 14.4324 9.30997 14.7128 9.5313 14.9323L9.533 14.9339L9.53475 14.9355L13.4202 18.4811L13.4211 18.4819C13.9922 18.9931 14.7322 19.275 15.4988 19.2736H17.927C18.859 19.2736 19.753 18.9033 20.4121 18.2443C21.0712 17.5852 21.4414 16.6913 21.4414 15.7592V12.8451C21.4414 12.4282 21.2758 12.0285 20.9811 11.7337C20.6863 11.439 20.2866 11.2734 19.8698 11.2734ZM15.4985 18.0731H15.4972C15.0347 18.0787 14.5859 17.9163 14.234 17.6161L10.3764 14.074C10.309 14.005 10.271 13.9127 10.2705 13.8162C10.2706 13.7473 10.2898 13.6798 10.326 13.6213C10.3622 13.5627 10.414 13.5153 10.4757 13.4845C10.5373 13.4536 10.6063 13.4406 10.675 13.4469C10.7436 13.4531 10.8092 13.4782 10.8643 13.5195L10.8663 13.521L10.8683 13.5224L13.1323 15.0737C13.3604 15.23 13.6704 15.0666 13.6704 14.7901V7.98815C13.6704 7.88974 13.7094 7.79534 13.7791 7.72574C13.8487 7.65615 13.9431 7.61705 14.0415 7.61705C14.1399 7.61705 14.2343 7.65615 14.3039 7.72574C14.3734 7.79534 14.4126 7.88974 14.4126 7.98815V13.1015C14.4126 13.2914 14.5665 13.4453 14.7564 13.4453H15.2694C15.4592 13.4453 15.6131 13.2914 15.6131 13.1015V11.8736C15.6131 11.7752 15.6522 11.6808 15.7219 11.6113C15.7914 11.5417 15.8858 11.5025 15.9843 11.5025C16.0827 11.5025 16.1771 11.5417 16.2467 11.6113C16.3162 11.6808 16.3554 11.7752 16.3554 11.8736V13.1015C16.3554 13.2914 16.5093 13.4453 16.6991 13.4453H17.2121C17.402 13.4453 17.5559 13.2914 17.5559 13.1015V12.3594C17.5559 12.2609 17.595 12.1665 17.6646 12.097C17.7342 12.0273 17.8286 11.9882 17.927 11.9882C18.0254 11.9882 18.1199 12.0273 18.1894 12.097C18.259 12.1665 18.2982 12.2609 18.2982 12.3594V13.1015C18.2982 13.2914 18.452 13.4453 18.6419 13.4453H19.1549C19.3448 13.4453 19.4986 13.2914 19.4986 13.1015V12.8451C19.4986 12.7467 19.5377 12.6522 19.6074 12.5827C19.6769 12.513 19.7714 12.474 19.8698 12.474C19.9682 12.474 20.0626 12.513 20.1322 12.5827C20.2017 12.6522 20.2409 12.7467 20.2409 12.8451V15.7592C20.2409 16.3729 19.9971 16.9614 19.5632 17.3953C19.1292 17.8292 18.5406 18.0731 17.927 18.0731H15.4985Z" fill="url(#paint1_linear_451_1512)" stroke="url(#paint2_linear_451_1512)" stroke-width="0.6"/>
<path d="M17.1689 7.10554C17.2049 7.35609 16.9963 7.56234 16.7432 7.56234C16.4901 7.56234 16.2895 7.35512 16.2392 7.10704C16.1504 6.66889 15.9345 6.26272 15.6136 5.94189C15.1838 5.51211 14.601 5.27067 13.9932 5.27067C13.3855 5.27067 12.8026 5.51211 12.3728 5.94189C12.0519 6.26272 11.8361 6.66889 11.7473 7.10704C11.6969 7.35512 11.4963 7.56234 11.2432 7.56234C10.9901 7.56234 10.7815 7.35609 10.8175 7.10554C10.9156 6.42352 11.2316 5.78666 11.7246 5.2937C12.3262 4.69202 13.1423 4.354 13.9932 4.354C14.8441 4.354 15.6602 4.69202 16.2618 5.2937C16.7548 5.78666 17.0708 6.42352 17.1689 7.10554Z" fill="url(#paint3_linear_451_1512)"/>
</g>
<defs>
<linearGradient id="paint0_linear_451_1512" x1="3.87044" y1="16.842" x2="17.0864" y2="2.17544" gradientUnits="userSpaceOnUse">
<stop stop-color="#0072FF"/>
<stop offset="1" stop-color="#00E5A1"/>
</linearGradient>
<linearGradient id="paint1_linear_451_1512" x1="15.2539" y1="19.159" x2="15.2539" y2="6.53109" gradientUnits="userSpaceOnUse">
<stop stop-color="#00B59C"/>
<stop offset="1" stop-color="#9CFFAC"/>
</linearGradient>
<linearGradient id="paint2_linear_451_1512" x1="15.2539" y1="19.159" x2="15.2539" y2="6.53109" gradientUnits="userSpaceOnUse">
<stop stop-color="#00B59C"/>
<stop offset="1" stop-color="#9CFFAC"/>
</linearGradient>
<linearGradient id="paint3_linear_451_1512" x1="13.9932" y1="7.56234" x2="13.9932" y2="4.354" gradientUnits="userSpaceOnUse">
<stop stop-color="#00B59C"/>
<stop offset="1" stop-color="#9CFFAC"/>
</linearGradient>
<clipPath id="clip0_451_1512">
<rect width="22" height="22" fill="white" transform="translate(0.243164)"/>
</clipPath>
</defs>
</svg>
