<svg width="23" height="22" viewBox="0 0 23 22" fill="none" xmlns="http://www.w3.org/2000/svg">
<path d="M17.5938 9.78613C16.6608 9.78613 15.9019 10.5451 15.9019 11.478C15.9019 12.4109 16.6608 13.1699 17.5938 13.1699C18.5266 13.1699 19.2856 12.4109 19.2856 11.478C19.2856 10.5451 18.5266 9.78613 17.5938 9.78613ZM17.5938 12.042C17.2828 12.042 17.0298 11.789 17.0298 11.478C17.0298 11.1671 17.2828 10.9141 17.5938 10.9141C17.9048 10.9141 18.1578 11.1671 18.1578 11.478C18.1578 11.789 17.9048 12.042 17.5938 12.042ZM13.082 10.9141C12.7706 10.9141 12.5181 11.1666 12.5181 11.478C12.5181 11.7895 12.7706 12.042 13.082 12.042C13.3935 12.042 13.646 11.7895 13.646 11.478C13.646 11.1666 13.3935 10.9141 13.082 10.9141ZM17.5938 7.53027C16.5591 7.53027 15.5662 7.93844 14.831 8.6582H12.5181V6.9663C12.5181 6.03341 11.7591 5.27441 10.8262 5.27441H6.31445C6.0035 5.27441 5.75048 5.02141 5.75048 4.71044C5.75048 4.39948 6.0035 4.14648 6.31445 4.14648H17.5938C18.5266 4.14648 19.2856 3.38748 19.2856 2.45458C19.2856 2.14313 19.0331 1.89062 18.7217 1.89062C18.4102 1.89062 18.1578 2.14313 18.1578 2.45458C18.1578 2.76555 17.9048 3.01855 17.5938 3.01855H6.31445C5.38155 3.01855 4.62257 3.77755 4.62257 4.71044C4.62257 5.64334 5.38155 6.40234 6.31445 6.40234H10.8262C11.1371 6.40234 11.3901 6.65534 11.3901 6.9663V8.6582H9.07721C8.34194 7.93844 7.34909 7.53027 6.31445 7.53027C4.11689 7.53027 2.3291 9.30124 2.3291 11.478C2.3291 12.4815 2.75099 13.4691 3.49462 14.2243V17.3558C3.49462 18.7794 4.65278 19.9375 6.07634 19.9375C7.13818 19.9375 8.07906 19.3004 8.47343 18.3147L9.20699 16.4808C9.36254 16.528 9.52743 16.5537 9.69824 16.5537C10.4335 16.5537 11.0603 16.0822 11.2931 15.4258H12.6151C12.8479 16.0822 13.4748 16.5537 14.21 16.5537C14.3808 16.5537 14.5457 16.528 14.7013 16.4808L15.4349 18.3147C15.8291 19.3004 16.7701 19.9375 17.8318 19.9375C19.2554 19.9375 20.4136 18.7794 20.4136 17.3558V14.2243C21.1573 13.4691 21.5791 12.4815 21.5791 11.478C21.5791 9.30124 19.7913 7.53027 17.5938 7.53027ZM10.2622 14.862C10.2621 15.1729 10.0092 15.4258 9.69824 15.4258C9.38729 15.4258 9.13429 15.1728 9.13429 14.8618C9.13429 14.5509 9.38729 14.2979 9.69824 14.2979C10.0091 14.2979 10.2621 14.5507 10.2622 14.8616V14.8618V14.862ZM14.21 15.4258C13.899 15.4258 13.646 15.1728 13.646 14.8618C13.646 14.5509 13.899 14.2979 14.21 14.2979C14.5209 14.2979 14.7739 14.5509 14.7739 14.8618C14.7739 15.1728 14.5209 15.4258 14.21 15.4258ZM19.4721 13.5647C19.3535 13.6716 19.2856 13.8239 19.2856 13.9837V17.3559C19.2856 18.1574 18.6335 18.8097 17.8318 18.8097C17.2339 18.8097 16.7041 18.451 16.4821 17.8958L15.6335 15.7744C15.8031 15.5109 15.9019 15.1978 15.9019 14.8618C15.9019 13.9289 15.1429 13.1699 14.21 13.1699C13.4747 13.1699 12.8479 13.6414 12.6151 14.2979H11.2931C11.0603 13.6414 10.4335 13.1699 9.69824 13.1699C8.76534 13.1699 8.00634 13.9289 8.00634 14.8618C8.00634 15.1978 8.10515 15.5109 8.27467 15.7743L7.42614 17.8956C7.2041 18.451 6.67426 18.8097 6.07634 18.8097C5.27473 18.8097 4.62257 18.1576 4.62257 17.3558V13.9836C4.62257 13.8239 4.55478 13.6716 4.43608 13.5646C3.81388 13.0041 3.45703 12.2436 3.45703 11.478C3.45703 9.92319 4.73884 8.6582 6.31445 8.6582C7.11555 8.6582 7.88168 9.00087 8.41642 9.59829C8.52339 9.71781 8.67622 9.78613 8.83665 9.78613H15.0716C15.232 9.78613 15.3848 9.71781 15.4918 9.59829C16.0265 9.00087 16.7927 8.6582 17.5938 8.6582C19.1694 8.6582 20.4513 9.92319 20.4513 11.478C20.4513 12.2436 20.0943 13.0041 19.4721 13.5647ZM7.44238 10.9141H6.87843V10.3501C6.87843 10.0386 6.62591 9.78613 6.31445 9.78613C6.003 9.78613 5.75048 10.0386 5.75048 10.3501V10.9141H5.18652C4.87507 10.9141 4.62257 11.1666 4.62257 11.478C4.62257 11.7895 4.87507 12.042 5.18652 12.042H5.75048V12.606C5.75048 12.9174 6.003 13.1699 6.31445 13.1699C6.62591 13.1699 6.87843 12.9174 6.87843 12.606V12.042H7.44238C7.75384 12.042 8.00634 11.7895 8.00634 11.478C8.00634 11.1666 7.75384 10.9141 7.44238 10.9141ZM10.8262 10.9141C10.5147 10.9141 10.2622 11.1666 10.2622 11.478C10.2622 11.7895 10.5147 12.042 10.8262 12.042C11.1376 12.042 11.3901 11.7895 11.3901 11.478C11.3901 11.1666 11.1376 10.9141 10.8262 10.9141Z" fill="url(#paint0_linear_451_1459)"/>
<defs>
<linearGradient id="paint0_linear_451_1459" x1="9.03223" y1="16.4141" x2="14.1885" y2="6.96094" gradientUnits="userSpaceOnUse">
<stop stop-color="#FF00C7"/>
<stop offset="1" stop-color="#EBFF00"/>
</linearGradient>
</defs>
</svg>
