<svg width="23" height="22" viewBox="0 0 23 22" fill="none" xmlns="http://www.w3.org/2000/svg">
<path d="M21.1118 16.8214L19.9228 11.4594C19.5834 9.58024 17.9516 8.21777 16.0381 8.21777C15.4128 8.21777 14.8144 8.3599 14.2597 8.64019C13.5281 9.00988 12.8009 9.23502 12.0903 9.31363V7.6538C12.0903 7.34284 12.3433 7.08984 12.6543 7.08984H14.9102C15.8431 7.08984 16.602 6.33086 16.602 5.39794C16.602 4.46504 15.8431 3.70605 14.9102 3.70605H8.14258C7.8316 3.70605 7.5786 3.45305 7.5786 3.14208C7.5786 2.83063 7.3261 2.57812 7.01465 2.57812C6.70319 2.57812 6.45069 2.83063 6.45069 3.14208C6.45069 4.075 7.20967 4.83398 8.14258 4.83398H14.9102C15.2211 4.83398 15.4741 5.08698 15.4741 5.39794C15.4741 5.70891 15.2211 5.96191 14.9102 5.96191H12.6543C11.7214 5.96191 10.9624 6.7209 10.9624 7.6538V9.3136C10.2519 9.23498 9.52456 9.00984 8.79287 8.6401C8.23819 8.3599 7.6399 8.21777 7.01465 8.21777C5.1012 8.21777 3.46945 9.58024 3.12998 11.4594L1.94085 16.8214C1.92242 16.904 1.90137 17.0742 1.90137 17.2411C1.90137 18.4852 2.91335 19.4972 4.15723 19.4972C5.14717 19.4972 5.28167 19.2696 8.10258 16.7717C8.40651 17.0622 8.81787 17.2411 9.27051 17.2411C10.0057 17.2411 10.6326 16.7697 10.8654 16.1133H12.1874C12.4202 16.7697 13.047 17.2411 13.7823 17.2411C14.2349 17.2411 14.6463 17.0622 14.9502 16.7717C17.7706 19.2693 17.9021 19.4972 18.8955 19.4972C20.1394 19.4972 21.1514 18.4852 21.1514 17.2411C21.1514 17.0813 21.1314 16.9087 21.1118 16.8214ZM9.83446 15.5495C9.83436 15.8604 9.58145 16.1133 9.27051 16.1133C8.95953 16.1133 8.70655 15.8603 8.70655 15.5493C8.70655 15.2384 8.95953 14.9854 9.27051 14.9854C9.5814 14.9854 9.83436 15.2383 9.83446 15.5491V15.5495ZM13.7822 16.1133C13.4713 16.1133 13.2184 15.8604 13.2183 15.5495C13.2183 15.5496 13.2183 15.5494 13.2183 15.5495C13.2183 15.5494 13.2183 15.5492 13.2183 15.5491C13.2184 15.2382 13.4713 14.9854 13.7822 14.9854C14.0932 14.9854 14.3462 15.2384 14.3462 15.5493C14.3462 15.8603 14.0932 16.1133 13.7822 16.1133ZM18.8955 18.3691C18.3727 18.3691 18.4395 18.3499 15.4654 15.7216C15.4712 15.665 15.4741 15.6075 15.4741 15.5493C15.4741 14.6164 14.7151 13.8574 13.7822 13.8574C13.047 13.8574 12.4201 14.329 12.1873 14.9854H10.8654C10.6326 14.329 10.0057 13.8574 9.27051 13.8574C8.3376 13.8574 7.5786 14.6164 7.5786 15.5493C7.5786 15.6074 7.58158 15.6649 7.58734 15.7216C4.62734 18.337 4.68141 18.3691 4.15723 18.3691C3.53528 18.3691 3.0293 17.8631 3.0293 17.2411C3.0293 17.1779 3.03456 17.1145 3.0449 17.0527C3.0449 17.0527 4.23698 11.6766 4.23837 11.6687C4.47729 10.3226 5.64489 9.3457 7.01465 9.3457C7.46158 9.3457 7.88872 9.44702 8.2842 9.64686C9.36995 10.1955 10.4608 10.4736 11.5264 10.4736C12.592 10.4736 13.6828 10.1955 14.7685 9.6469C15.1639 9.44702 15.5911 9.3457 16.0381 9.3457C17.4078 9.3457 18.5755 10.3226 18.8144 11.6687C18.8158 11.6766 18.8173 11.6844 18.819 11.6922L20.0079 17.0527C20.0182 17.1145 20.0235 17.1779 20.0235 17.2411C20.0235 17.8631 19.5175 18.3691 18.8955 18.3691ZM8.14258 11.6016H7.5786V11.0376C7.5786 10.7261 7.3261 10.4736 7.01465 10.4736C6.70319 10.4736 6.45069 10.7261 6.45069 11.0376V11.6016H5.88672C5.57526 11.6016 5.32275 11.8541 5.32275 12.1655C5.32275 12.477 5.57526 12.7295 5.88672 12.7295H6.45069V13.2935C6.45069 13.6049 6.70319 13.8574 7.01465 13.8574C7.3261 13.8574 7.5786 13.6049 7.5786 13.2935V12.7295H8.14258C8.45403 12.7295 8.70655 12.477 8.70655 12.1655C8.70655 11.8541 8.45403 11.6016 8.14258 11.6016ZM17.166 11.6016H16.602V11.0376C16.602 10.7261 16.3495 10.4736 16.0381 10.4736C15.7266 10.4736 15.4741 10.7261 15.4741 11.0376V11.6016H14.9102C14.5987 11.6016 14.3462 11.8541 14.3462 12.1655C14.3462 12.477 14.5987 12.7295 14.9102 12.7295H15.4741V13.2935C15.4741 13.6049 15.7266 13.8574 16.0381 13.8574C16.3495 13.8574 16.602 13.6049 16.602 13.2935V12.7295H17.166C17.4775 12.7295 17.73 12.477 17.73 12.1655C17.73 11.8541 17.4775 11.6016 17.166 11.6016ZM10.3984 11.6016C10.087 11.6016 9.83446 11.8541 9.83446 12.1655C9.83446 12.477 10.087 12.7295 10.3984 12.7295C10.7099 12.7295 10.9624 12.477 10.9624 12.1655C10.9624 11.8541 10.7099 11.6016 10.3984 11.6016ZM12.6543 11.6016C12.3428 11.6016 12.0903 11.8541 12.0903 12.1655C12.0903 12.477 12.3428 12.7295 12.6543 12.7295C12.9658 12.7295 13.2183 12.477 13.2183 12.1655C13.2183 11.8541 12.9658 11.6016 12.6543 11.6016Z" fill="url(#paint0_linear_451_1466)"/>
<path d="M13.2183 15.5495C13.2184 15.8604 13.4713 16.1133 13.7822 16.1133C14.0932 16.1133 14.3462 15.8603 14.3462 15.5493C14.3462 15.2384 14.0932 14.9854 13.7822 14.9854C13.4713 14.9854 13.2184 15.2382 13.2183 15.5491C13.2183 15.5492 13.2183 15.5494 13.2183 15.5495ZM13.2183 15.5495C13.2183 15.5494 13.2183 15.5496 13.2183 15.5495ZM21.1118 16.8214L19.9228 11.4594C19.5834 9.58024 17.9516 8.21777 16.0381 8.21777C15.4128 8.21777 14.8144 8.3599 14.2597 8.64019C13.5281 9.00988 12.8009 9.23502 12.0903 9.31363V7.6538C12.0903 7.34284 12.3433 7.08984 12.6543 7.08984H14.9102C15.8431 7.08984 16.602 6.33086 16.602 5.39794C16.602 4.46504 15.8431 3.70605 14.9102 3.70605H8.14258C7.8316 3.70605 7.5786 3.45305 7.5786 3.14208C7.5786 2.83063 7.3261 2.57812 7.01465 2.57812C6.70319 2.57812 6.45069 2.83063 6.45069 3.14208C6.45069 4.075 7.20967 4.83398 8.14258 4.83398H14.9102C15.2211 4.83398 15.4741 5.08698 15.4741 5.39794C15.4741 5.70891 15.2211 5.96191 14.9102 5.96191H12.6543C11.7214 5.96191 10.9624 6.7209 10.9624 7.6538V9.3136C10.2519 9.23498 9.52456 9.00984 8.79287 8.6401C8.23819 8.3599 7.6399 8.21777 7.01465 8.21777C5.1012 8.21777 3.46945 9.58024 3.12998 11.4594L1.94085 16.8214C1.92242 16.904 1.90137 17.0742 1.90137 17.2411C1.90137 18.4852 2.91335 19.4972 4.15723 19.4972C5.14717 19.4972 5.28167 19.2696 8.10258 16.7717C8.40651 17.0622 8.81787 17.2411 9.27051 17.2411C10.0057 17.2411 10.6326 16.7697 10.8654 16.1133H12.1874C12.4202 16.7697 13.047 17.2411 13.7823 17.2411C14.2349 17.2411 14.6463 17.0622 14.9502 16.7717C17.7706 19.2693 17.9021 19.4972 18.8955 19.4972C20.1394 19.4972 21.1514 18.4852 21.1514 17.2411C21.1514 17.0813 21.1314 16.9087 21.1118 16.8214ZM9.83446 15.5495C9.83436 15.8604 9.58145 16.1133 9.27051 16.1133C8.95953 16.1133 8.70655 15.8603 8.70655 15.5493C8.70655 15.2384 8.95953 14.9854 9.27051 14.9854C9.5814 14.9854 9.83436 15.2383 9.83446 15.5491V15.5495ZM18.8955 18.3691C18.3727 18.3691 18.4395 18.3499 15.4654 15.7216C15.4712 15.665 15.4741 15.6075 15.4741 15.5493C15.4741 14.6164 14.7151 13.8574 13.7822 13.8574C13.047 13.8574 12.4201 14.329 12.1873 14.9854H10.8654C10.6326 14.329 10.0057 13.8574 9.27051 13.8574C8.3376 13.8574 7.5786 14.6164 7.5786 15.5493C7.5786 15.6074 7.58158 15.6649 7.58734 15.7216C4.62734 18.337 4.68141 18.3691 4.15723 18.3691C3.53528 18.3691 3.0293 17.8631 3.0293 17.2411C3.0293 17.1779 3.03456 17.1145 3.0449 17.0527C3.0449 17.0527 4.23698 11.6766 4.23837 11.6687C4.47729 10.3226 5.64489 9.3457 7.01465 9.3457C7.46158 9.3457 7.88872 9.44702 8.2842 9.64686C9.36995 10.1955 10.4608 10.4736 11.5264 10.4736C12.592 10.4736 13.6828 10.1955 14.7685 9.6469C15.1639 9.44702 15.5911 9.3457 16.0381 9.3457C17.4078 9.3457 18.5755 10.3226 18.8144 11.6687C18.8158 11.6766 18.8173 11.6844 18.819 11.6922L20.0079 17.0527C20.0182 17.1145 20.0235 17.1779 20.0235 17.2411C20.0235 17.8631 19.5175 18.3691 18.8955 18.3691ZM8.14258 11.6016H7.5786V11.0376C7.5786 10.7261 7.3261 10.4736 7.01465 10.4736C6.70319 10.4736 6.45069 10.7261 6.45069 11.0376V11.6016H5.88672C5.57526 11.6016 5.32275 11.8541 5.32275 12.1655C5.32275 12.477 5.57526 12.7295 5.88672 12.7295H6.45069V13.2935C6.45069 13.6049 6.70319 13.8574 7.01465 13.8574C7.3261 13.8574 7.5786 13.6049 7.5786 13.2935V12.7295H8.14258C8.45403 12.7295 8.70655 12.477 8.70655 12.1655C8.70655 11.8541 8.45403 11.6016 8.14258 11.6016ZM17.166 11.6016H16.602V11.0376C16.602 10.7261 16.3495 10.4736 16.0381 10.4736C15.7266 10.4736 15.4741 10.7261 15.4741 11.0376V11.6016H14.9102C14.5987 11.6016 14.3462 11.8541 14.3462 12.1655C14.3462 12.477 14.5987 12.7295 14.9102 12.7295H15.4741V13.2935C15.4741 13.6049 15.7266 13.8574 16.0381 13.8574C16.3495 13.8574 16.602 13.6049 16.602 13.2935V12.7295H17.166C17.4775 12.7295 17.73 12.477 17.73 12.1655C17.73 11.8541 17.4775 11.6016 17.166 11.6016ZM10.3984 11.6016C10.087 11.6016 9.83446 11.8541 9.83446 12.1655C9.83446 12.477 10.087 12.7295 10.3984 12.7295C10.7099 12.7295 10.9624 12.477 10.9624 12.1655C10.9624 11.8541 10.7099 11.6016 10.3984 11.6016ZM12.6543 11.6016C12.3428 11.6016 12.0903 11.8541 12.0903 12.1655C12.0903 12.477 12.3428 12.7295 12.6543 12.7295C12.9658 12.7295 13.2183 12.477 13.2183 12.1655C13.2183 11.8541 12.9658 11.6016 12.6543 11.6016Z" stroke="url(#paint1_linear_451_1466)" stroke-width="0.6"/>
<defs>
<linearGradient id="paint0_linear_451_1466" x1="10.9248" y1="18.4766" x2="13.6748" y2="7.82031" gradientUnits="userSpaceOnUse">
<stop stop-color="#0026EA"/>
<stop offset="1" stop-color="#00FFC2"/>
</linearGradient>
<linearGradient id="paint1_linear_451_1466" x1="10.9248" y1="18.4766" x2="13.6748" y2="7.82031" gradientUnits="userSpaceOnUse">
<stop stop-color="#0026EA"/>
<stop offset="1" stop-color="#00FFC2"/>
</linearGradient>
</defs>
</svg>
