<svg width="23" height="22" viewBox="0 0 23 22" fill="none" xmlns="http://www.w3.org/2000/svg">
<g clip-path="url(#clip0_451_1506)">
<path fill-rule="evenodd" clip-rule="evenodd" d="M2.97671 2.0625C2.94751 2.0625 2.92383 2.08618 2.92383 2.11538V19.8846C2.92383 19.9138 2.94751 19.9375 2.97671 19.9375H4.29884L4.29883 17.1875H11.1738V19.9375H13.2363V17.1875H20.1113V19.9375H17.1035H20.746C20.7752 19.9375 20.7988 19.9138 20.7988 19.8846V2.11538C20.7988 2.08618 20.7752 2.0625 20.746 2.0625H2.97671ZM1.54883 2.11538C1.54883 1.32679 2.18811 0.6875 2.97671 0.6875H20.746C21.5345 0.6875 22.1738 1.32679 22.1738 2.11538V19.8846C22.1738 20.6732 21.5345 21.3125 20.746 21.3125H2.97671C2.18811 21.3125 1.54883 20.6732 1.54883 19.8846V2.11538Z" fill="url(#paint0_linear_451_1506)"/>
<path d="M9.84269 3.4375C9.2841 3.4375 8.74833 3.65942 8.35329 4.05444C7.95825 4.44947 7.73633 4.98523 7.73633 5.54388C7.73653 6.01069 7.89184 6.4642 8.17777 6.83318C8.4637 7.20218 8.8641 7.4657 9.31613 7.58237V6.45308C9.15643 6.36089 9.02374 6.22839 8.93134 6.06884C8.83894 5.90928 8.79006 5.72826 8.78951 5.54388C8.78951 5.26456 8.90047 4.99667 9.09799 4.79916C9.29551 4.60165 9.56336 4.49069 9.84269 4.49069C9.98102 4.49069 10.118 4.51792 10.2458 4.57085C10.3735 4.62378 10.4896 4.70135 10.5875 4.79915C10.6852 4.89695 10.7628 5.01306 10.8157 5.14084C10.8686 5.26862 10.8959 5.40558 10.8959 5.54388C10.8956 5.59138 10.8921 5.63879 10.8854 5.68582L11.774 6.37698C11.8883 6.11407 11.9479 5.83058 11.9488 5.54388C11.9488 5.26727 11.8944 4.99335 11.7885 4.73779C11.6826 4.48223 11.5275 4.25004 11.3319 4.05444C11.1363 3.85885 10.9041 3.70369 10.6486 3.59783C10.393 3.49198 10.1193 3.4375 9.84269 3.4375ZM9.84269 5.54388L9.84902 15.8125L13.0024 11.5997H17.7418L9.84269 5.54388Z" fill="url(#paint1_linear_451_1506)"/>
</g>
<defs>
<linearGradient id="paint0_linear_451_1506" x1="11.8613" y1="21.3125" x2="11.8613" y2="0.6875" gradientUnits="userSpaceOnUse">
<stop stop-color="#FD3A84"/>
<stop offset="1" stop-color="#FFA68D"/>
</linearGradient>
<linearGradient id="paint1_linear_451_1506" x1="12.7391" y1="15.8125" x2="12.7391" y2="3.4375" gradientUnits="userSpaceOnUse">
<stop stop-color="#FF2424"/>
<stop offset="1" stop-color="#FF8D8D"/>
</linearGradient>
<clipPath id="clip0_451_1506">
<rect width="22" height="22" fill="white" transform="translate(0.861328)"/>
</clipPath>
</defs>
</svg>
