<svg width="23" height="22" viewBox="0 0 23 22" fill="none" xmlns="http://www.w3.org/2000/svg">
<path d="M20.9214 16.8214L19.7324 11.4594C19.3929 9.58024 17.7611 8.21777 15.8477 8.21777C15.2223 8.21777 14.624 8.3599 14.0693 8.64019C13.3377 9.00988 12.6104 9.23502 11.8999 9.31363V7.6538C11.8999 7.34284 12.1529 7.08984 12.4639 7.08984H14.7197C15.6526 7.08984 16.4116 6.33086 16.4116 5.39794C16.4116 4.46504 15.6526 3.70605 14.7197 3.70605H7.95215C7.64118 3.70605 7.38818 3.45305 7.38818 3.14208C7.38818 2.83063 7.13567 2.57812 6.82422 2.57812C6.51276 2.57812 6.26026 2.83063 6.26026 3.14208C6.26026 4.075 7.01925 4.83398 7.95215 4.83398H14.7197C15.0307 4.83398 15.2837 5.08698 15.2837 5.39794C15.2837 5.70891 15.0307 5.96191 14.7197 5.96191H12.4639C11.531 5.96191 10.772 6.7209 10.772 7.6538V9.3136C10.0614 9.23498 9.33413 9.00984 8.60244 8.6401C8.04776 8.3599 7.44947 8.21777 6.82422 8.21777C4.91077 8.21777 3.27902 9.58024 2.93955 11.4594L1.75042 16.8214C1.73199 16.904 1.71094 17.0742 1.71094 17.2411C1.71094 18.4852 2.72292 19.4972 3.9668 19.4972C4.95675 19.4972 5.09124 19.2696 7.91215 16.7717C8.21608 17.0622 8.62745 17.2411 9.08008 17.2411C9.81531 17.2411 10.4422 16.7697 10.675 16.1133H11.9969C12.2297 16.7697 12.8566 17.2411 13.5918 17.2411C14.0445 17.2411 14.4558 17.0622 14.7598 16.7717C17.5802 19.2693 17.7116 19.4972 18.7051 19.4972C19.9489 19.4972 20.9609 18.4852 20.9609 17.2411C20.9609 17.0813 20.941 16.9087 20.9214 16.8214ZM9.64403 15.5495C9.64393 15.8604 9.39102 16.1133 9.08008 16.1133C8.7691 16.1133 8.51612 15.8603 8.51612 15.5493C8.51612 15.2384 8.7691 14.9854 9.08008 14.9854C9.39097 14.9854 9.64393 15.2383 9.64403 15.5491V15.5495ZM13.5918 16.1133C13.2809 16.1133 13.0279 15.8604 13.0278 15.5495C13.0278 15.5496 13.0278 15.5494 13.0278 15.5495C13.0278 15.5494 13.0278 15.5492 13.0278 15.5491C13.0279 15.2382 13.2809 14.9854 13.5918 14.9854C13.9028 14.9854 14.1558 15.2384 14.1558 15.5493C14.1558 15.8603 13.9028 16.1133 13.5918 16.1133ZM18.7051 18.3691C18.1822 18.3691 18.2491 18.3499 15.275 15.7216C15.2807 15.665 15.2837 15.6075 15.2837 15.5493C15.2837 14.6164 14.5247 13.8574 13.5918 13.8574C12.8566 13.8574 12.2297 14.329 11.9969 14.9854H10.675C10.4422 14.329 9.81531 13.8574 9.08008 13.8574C8.14717 13.8574 7.38818 14.6164 7.38818 15.5493C7.38818 15.6074 7.39115 15.6649 7.39691 15.7216C4.43691 18.337 4.49098 18.3691 3.9668 18.3691C3.34485 18.3691 2.83887 17.8631 2.83887 17.2411C2.83887 17.1779 2.84413 17.1145 2.85447 17.0527C2.85447 17.0527 4.04655 11.6766 4.04794 11.6687C4.28686 10.3226 5.45446 9.3457 6.82422 9.3457C7.27115 9.3457 7.69829 9.44702 8.09377 9.64686C9.17953 10.1955 10.2703 10.4736 11.3359 10.4736C12.4016 10.4736 13.4924 10.1955 14.578 9.6469C14.9735 9.44702 15.4007 9.3457 15.8477 9.3457C17.2174 9.3457 18.385 10.3226 18.624 11.6687C18.6253 11.6766 18.6269 11.6844 18.6286 11.6922L19.8175 17.0527C19.8278 17.1145 19.8331 17.1779 19.8331 17.2411C19.8331 17.8631 19.3271 18.3691 18.7051 18.3691ZM7.95215 11.6016H7.38818V11.0376C7.38818 10.7261 7.13567 10.4736 6.82422 10.4736C6.51276 10.4736 6.26026 10.7261 6.26026 11.0376V11.6016H5.69629C5.38483 11.6016 5.13232 11.8541 5.13232 12.1655C5.13232 12.477 5.38483 12.7295 5.69629 12.7295H6.26026V13.2935C6.26026 13.6049 6.51276 13.8574 6.82422 13.8574C7.13567 13.8574 7.38818 13.6049 7.38818 13.2935V12.7295H7.95215C8.2636 12.7295 8.51612 12.477 8.51612 12.1655C8.51612 11.8541 8.2636 11.6016 7.95215 11.6016ZM16.9756 11.6016H16.4116V11.0376C16.4116 10.7261 16.1591 10.4736 15.8477 10.4736C15.5362 10.4736 15.2837 10.7261 15.2837 11.0376V11.6016H14.7197C14.4083 11.6016 14.1558 11.8541 14.1558 12.1655C14.1558 12.477 14.4083 12.7295 14.7197 12.7295H15.2837V13.2935C15.2837 13.6049 15.5362 13.8574 15.8477 13.8574C16.1591 13.8574 16.4116 13.6049 16.4116 13.2935V12.7295H16.9756C17.287 12.7295 17.5396 12.477 17.5396 12.1655C17.5396 11.8541 17.287 11.6016 16.9756 11.6016ZM10.208 11.6016C9.89655 11.6016 9.64403 11.8541 9.64403 12.1655C9.64403 12.477 9.89655 12.7295 10.208 12.7295C10.5195 12.7295 10.772 12.477 10.772 12.1655C10.772 11.8541 10.5195 11.6016 10.208 11.6016ZM12.4639 11.6016C12.1524 11.6016 11.8999 11.8541 11.8999 12.1655C11.8999 12.477 12.1524 12.7295 12.4639 12.7295C12.7753 12.7295 13.0278 12.477 13.0278 12.1655C13.0278 11.8541 12.7753 11.6016 12.4639 11.6016Z" fill="url(#paint0_linear_451_1463)"/>
<path d="M13.0278 15.5495C13.0279 15.8604 13.2809 16.1133 13.5918 16.1133C13.9028 16.1133 14.1558 15.8603 14.1558 15.5493C14.1558 15.2384 13.9028 14.9854 13.5918 14.9854C13.2809 14.9854 13.0279 15.2382 13.0278 15.5491C13.0278 15.5492 13.0278 15.5494 13.0278 15.5495ZM13.0278 15.5495C13.0278 15.5494 13.0278 15.5496 13.0278 15.5495ZM20.9214 16.8214L19.7324 11.4594C19.3929 9.58024 17.7611 8.21777 15.8477 8.21777C15.2223 8.21777 14.624 8.3599 14.0693 8.64019C13.3377 9.00988 12.6104 9.23502 11.8999 9.31363V7.6538C11.8999 7.34284 12.1529 7.08984 12.4639 7.08984H14.7197C15.6526 7.08984 16.4116 6.33086 16.4116 5.39794C16.4116 4.46504 15.6526 3.70605 14.7197 3.70605H7.95215C7.64118 3.70605 7.38818 3.45305 7.38818 3.14208C7.38818 2.83063 7.13567 2.57812 6.82422 2.57812C6.51276 2.57812 6.26026 2.83063 6.26026 3.14208C6.26026 4.075 7.01925 4.83398 7.95215 4.83398H14.7197C15.0307 4.83398 15.2837 5.08698 15.2837 5.39794C15.2837 5.70891 15.0307 5.96191 14.7197 5.96191H12.4639C11.531 5.96191 10.772 6.7209 10.772 7.6538V9.3136C10.0614 9.23498 9.33413 9.00984 8.60244 8.6401C8.04776 8.3599 7.44947 8.21777 6.82422 8.21777C4.91077 8.21777 3.27902 9.58024 2.93955 11.4594L1.75042 16.8214C1.73199 16.904 1.71094 17.0742 1.71094 17.2411C1.71094 18.4852 2.72292 19.4972 3.9668 19.4972C4.95675 19.4972 5.09124 19.2696 7.91215 16.7717C8.21608 17.0622 8.62745 17.2411 9.08008 17.2411C9.81531 17.2411 10.4422 16.7697 10.675 16.1133H11.9969C12.2297 16.7697 12.8566 17.2411 13.5918 17.2411C14.0445 17.2411 14.4558 17.0622 14.7598 16.7717C17.5802 19.2693 17.7116 19.4972 18.7051 19.4972C19.9489 19.4972 20.9609 18.4852 20.9609 17.2411C20.9609 17.0813 20.941 16.9087 20.9214 16.8214ZM9.64403 15.5495C9.64393 15.8604 9.39102 16.1133 9.08008 16.1133C8.7691 16.1133 8.51612 15.8603 8.51612 15.5493C8.51612 15.2384 8.7691 14.9854 9.08008 14.9854C9.39097 14.9854 9.64393 15.2383 9.64403 15.5491V15.5495ZM18.7051 18.3691C18.1822 18.3691 18.2491 18.3499 15.275 15.7216C15.2807 15.665 15.2837 15.6075 15.2837 15.5493C15.2837 14.6164 14.5247 13.8574 13.5918 13.8574C12.8566 13.8574 12.2297 14.329 11.9969 14.9854H10.675C10.4422 14.329 9.81531 13.8574 9.08008 13.8574C8.14717 13.8574 7.38818 14.6164 7.38818 15.5493C7.38818 15.6074 7.39115 15.6649 7.39691 15.7216C4.43691 18.337 4.49098 18.3691 3.9668 18.3691C3.34485 18.3691 2.83887 17.8631 2.83887 17.2411C2.83887 17.1779 2.84413 17.1145 2.85447 17.0527C2.85447 17.0527 4.04655 11.6766 4.04794 11.6687C4.28686 10.3226 5.45446 9.3457 6.82422 9.3457C7.27115 9.3457 7.69829 9.44702 8.09377 9.64686C9.17953 10.1955 10.2703 10.4736 11.3359 10.4736C12.4016 10.4736 13.4924 10.1955 14.578 9.6469C14.9735 9.44702 15.4007 9.3457 15.8477 9.3457C17.2174 9.3457 18.385 10.3226 18.624 11.6687C18.6253 11.6766 18.6269 11.6844 18.6286 11.6922L19.8175 17.0527C19.8278 17.1145 19.8331 17.1779 19.8331 17.2411C19.8331 17.8631 19.3271 18.3691 18.7051 18.3691ZM7.95215 11.6016H7.38818V11.0376C7.38818 10.7261 7.13567 10.4736 6.82422 10.4736C6.51276 10.4736 6.26026 10.7261 6.26026 11.0376V11.6016H5.69629C5.38483 11.6016 5.13232 11.8541 5.13232 12.1655C5.13232 12.477 5.38483 12.7295 5.69629 12.7295H6.26026V13.2935C6.26026 13.6049 6.51276 13.8574 6.82422 13.8574C7.13567 13.8574 7.38818 13.6049 7.38818 13.2935V12.7295H7.95215C8.2636 12.7295 8.51612 12.477 8.51612 12.1655C8.51612 11.8541 8.2636 11.6016 7.95215 11.6016ZM16.9756 11.6016H16.4116V11.0376C16.4116 10.7261 16.1591 10.4736 15.8477 10.4736C15.5362 10.4736 15.2837 10.7261 15.2837 11.0376V11.6016H14.7197C14.4083 11.6016 14.1558 11.8541 14.1558 12.1655C14.1558 12.477 14.4083 12.7295 14.7197 12.7295H15.2837V13.2935C15.2837 13.6049 15.5362 13.8574 15.8477 13.8574C16.1591 13.8574 16.4116 13.6049 16.4116 13.2935V12.7295H16.9756C17.287 12.7295 17.5396 12.477 17.5396 12.1655C17.5396 11.8541 17.287 11.6016 16.9756 11.6016ZM10.208 11.6016C9.89655 11.6016 9.64403 11.8541 9.64403 12.1655C9.64403 12.477 9.89655 12.7295 10.208 12.7295C10.5195 12.7295 10.772 12.477 10.772 12.1655C10.772 11.8541 10.5195 11.6016 10.208 11.6016ZM12.4639 11.6016C12.1524 11.6016 11.8999 11.8541 11.8999 12.1655C11.8999 12.477 12.1524 12.7295 12.4639 12.7295C12.7753 12.7295 13.0278 12.477 13.0278 12.1655C13.0278 11.8541 12.7753 11.6016 12.4639 11.6016Z" stroke="url(#paint1_linear_451_1463)" stroke-width="0.6"/>
<defs>
<linearGradient id="paint0_linear_451_1463" x1="10.7344" y1="18.4766" x2="13.4844" y2="7.82031" gradientUnits="userSpaceOnUse">
<stop stop-color="#0026EA"/>
<stop offset="1" stop-color="#00FFC2"/>
</linearGradient>
<linearGradient id="paint1_linear_451_1463" x1="10.7344" y1="18.4766" x2="13.4844" y2="7.82031" gradientUnits="userSpaceOnUse">
<stop stop-color="#0026EA"/>
<stop offset="1" stop-color="#00FFC2"/>
</linearGradient>
</defs>
</svg>
