<svg width="23" height="22" viewBox="0 0 23 22" fill="none" xmlns="http://www.w3.org/2000/svg">
<path d="M21.3023 16.8214L20.1132 11.4594C19.7738 9.58024 18.142 8.21777 16.2285 8.21777C15.6032 8.21777 15.0049 8.3599 14.4502 8.64019C13.7186 9.00988 12.9913 9.23502 12.2808 9.31363V7.6538C12.2808 7.34284 12.5338 7.08984 12.8447 7.08984H15.1006C16.0335 7.08984 16.7925 6.33086 16.7925 5.39794C16.7925 4.46504 16.0335 3.70605 15.1006 3.70605H8.33301C8.02203 3.70605 7.76903 3.45305 7.76903 3.14208C7.76903 2.83063 7.51653 2.57812 7.20508 2.57812C6.89362 2.57812 6.64112 2.83063 6.64112 3.14208C6.64112 4.075 7.4001 4.83398 8.33301 4.83398H15.1006C15.4116 4.83398 15.6646 5.08698 15.6646 5.39794C15.6646 5.70891 15.4116 5.96191 15.1006 5.96191H12.8447C11.9118 5.96191 11.1528 6.7209 11.1528 7.6538V9.3136C10.4423 9.23498 9.71499 9.00984 8.9833 8.6401C8.42862 8.3599 7.83032 8.21777 7.20508 8.21777C5.29163 8.21777 3.65988 9.58024 3.32041 11.4594L2.13127 16.8214C2.11285 16.904 2.0918 17.0742 2.0918 17.2411C2.0918 18.4852 3.10378 19.4972 4.34766 19.4972C5.3376 19.4972 5.4721 19.2696 8.29301 16.7717C8.59694 17.0622 9.0083 17.2411 9.46094 17.2411C10.1962 17.2411 10.823 16.7697 11.0558 16.1133H12.3778C12.6106 16.7697 13.2375 17.2411 13.9727 17.2411C14.4253 17.2411 14.8367 17.0622 15.1406 16.7717C17.961 19.2693 18.0925 19.4972 19.0859 19.4972C20.3298 19.4972 21.3418 18.4852 21.3418 17.2411C21.3418 17.0813 21.3219 16.9087 21.3023 16.8214ZM10.0249 15.5495C10.0248 15.8604 9.77188 16.1133 9.46094 16.1133C9.14996 16.1133 8.89698 15.8603 8.89698 15.5493C8.89698 15.2384 9.14996 14.9854 9.46094 14.9854C9.77182 14.9854 10.0248 15.2383 10.0249 15.5491V15.5495ZM13.9727 16.1133C13.6618 16.1133 13.4088 15.8604 13.4087 15.5495C13.4087 15.5496 13.4087 15.5494 13.4087 15.5495C13.4087 15.5494 13.4087 15.5492 13.4087 15.5491C13.4088 15.2382 13.6617 14.9854 13.9727 14.9854C14.2836 14.9854 14.5366 15.2384 14.5366 15.5493C14.5366 15.8603 14.2836 16.1133 13.9727 16.1133ZM19.0859 18.3691C18.5631 18.3691 18.63 18.3499 15.6558 15.7216C15.6616 15.665 15.6646 15.6075 15.6646 15.5493C15.6646 14.6164 14.9056 13.8574 13.9727 13.8574C13.2374 13.8574 12.6106 14.329 12.3778 14.9854H11.0558C10.823 14.329 10.1962 13.8574 9.46094 13.8574C8.52803 13.8574 7.76903 14.6164 7.76903 15.5493C7.76903 15.6074 7.77201 15.6649 7.77777 15.7216C4.81777 18.337 4.87184 18.3691 4.34766 18.3691C3.72571 18.3691 3.21973 17.8631 3.21973 17.2411C3.21973 17.1779 3.22499 17.1145 3.23533 17.0527C3.23533 17.0527 4.42741 11.6766 4.4288 11.6687C4.66772 10.3226 5.83532 9.3457 7.20508 9.3457C7.652 9.3457 8.07915 9.44702 8.47463 9.64686C9.56038 10.1955 10.6512 10.4736 11.7168 10.4736C12.7824 10.4736 13.8732 10.1955 14.9589 9.6469C15.3544 9.44702 15.7816 9.3457 16.2285 9.3457C17.5983 9.3457 18.7659 10.3226 19.0048 11.6687C19.0062 11.6766 19.0077 11.6844 19.0095 11.6922L20.1983 17.0527C20.2086 17.1145 20.214 17.1779 20.214 17.2411C20.214 17.8631 19.708 18.3691 19.0859 18.3691ZM8.33301 11.6016H7.76903V11.0376C7.76903 10.7261 7.51653 10.4736 7.20508 10.4736C6.89362 10.4736 6.64112 10.7261 6.64112 11.0376V11.6016H6.07715C5.76569 11.6016 5.51318 11.8541 5.51318 12.1655C5.51318 12.477 5.76569 12.7295 6.07715 12.7295H6.64112V13.2935C6.64112 13.6049 6.89362 13.8574 7.20508 13.8574C7.51653 13.8574 7.76903 13.6049 7.76903 13.2935V12.7295H8.33301C8.64446 12.7295 8.89698 12.477 8.89698 12.1655C8.89698 11.8541 8.64446 11.6016 8.33301 11.6016ZM17.3564 11.6016H16.7925V11.0376C16.7925 10.7261 16.54 10.4736 16.2285 10.4736C15.9171 10.4736 15.6646 10.7261 15.6646 11.0376V11.6016H15.1006C14.7891 11.6016 14.5366 11.8541 14.5366 12.1655C14.5366 12.477 14.7891 12.7295 15.1006 12.7295H15.6646V13.2935C15.6646 13.6049 15.9171 13.8574 16.2285 13.8574C16.54 13.8574 16.7925 13.6049 16.7925 13.2935V12.7295H17.3564C17.6679 12.7295 17.9205 12.477 17.9205 12.1655C17.9205 11.8541 17.6679 11.6016 17.3564 11.6016ZM10.5889 11.6016C10.2774 11.6016 10.0249 11.8541 10.0249 12.1655C10.0249 12.477 10.2774 12.7295 10.5889 12.7295C10.9003 12.7295 11.1528 12.477 11.1528 12.1655C11.1528 11.8541 10.9003 11.6016 10.5889 11.6016ZM12.8447 11.6016C12.5333 11.6016 12.2808 11.8541 12.2808 12.1655C12.2808 12.477 12.5333 12.7295 12.8447 12.7295C13.1562 12.7295 13.4087 12.477 13.4087 12.1655C13.4087 11.8541 13.1562 11.6016 12.8447 11.6016Z" fill="url(#paint0_linear_451_1469)"/>
<path d="M13.4087 15.5495C13.4088 15.8604 13.6618 16.1133 13.9727 16.1133C14.2836 16.1133 14.5366 15.8603 14.5366 15.5493C14.5366 15.2384 14.2836 14.9854 13.9727 14.9854C13.6617 14.9854 13.4088 15.2382 13.4087 15.5491C13.4087 15.5492 13.4087 15.5494 13.4087 15.5495ZM13.4087 15.5495C13.4087 15.5494 13.4087 15.5496 13.4087 15.5495ZM21.3023 16.8214L20.1132 11.4594C19.7738 9.58024 18.142 8.21777 16.2285 8.21777C15.6032 8.21777 15.0049 8.3599 14.4502 8.64019C13.7186 9.00988 12.9913 9.23502 12.2808 9.31363V7.6538C12.2808 7.34284 12.5338 7.08984 12.8447 7.08984H15.1006C16.0335 7.08984 16.7925 6.33086 16.7925 5.39794C16.7925 4.46504 16.0335 3.70605 15.1006 3.70605H8.33301C8.02203 3.70605 7.76903 3.45305 7.76903 3.14208C7.76903 2.83063 7.51653 2.57812 7.20508 2.57812C6.89362 2.57812 6.64112 2.83063 6.64112 3.14208C6.64112 4.075 7.4001 4.83398 8.33301 4.83398H15.1006C15.4116 4.83398 15.6646 5.08698 15.6646 5.39794C15.6646 5.70891 15.4116 5.96191 15.1006 5.96191H12.8447C11.9118 5.96191 11.1528 6.7209 11.1528 7.6538V9.3136C10.4423 9.23498 9.71499 9.00984 8.9833 8.6401C8.42862 8.3599 7.83032 8.21777 7.20508 8.21777C5.29163 8.21777 3.65988 9.58024 3.32041 11.4594L2.13127 16.8214C2.11285 16.904 2.0918 17.0742 2.0918 17.2411C2.0918 18.4852 3.10378 19.4972 4.34766 19.4972C5.3376 19.4972 5.4721 19.2696 8.29301 16.7717C8.59694 17.0622 9.0083 17.2411 9.46094 17.2411C10.1962 17.2411 10.823 16.7697 11.0558 16.1133H12.3778C12.6106 16.7697 13.2375 17.2411 13.9727 17.2411C14.4253 17.2411 14.8367 17.0622 15.1406 16.7717C17.961 19.2693 18.0925 19.4972 19.0859 19.4972C20.3298 19.4972 21.3418 18.4852 21.3418 17.2411C21.3418 17.0813 21.3219 16.9087 21.3023 16.8214ZM10.0249 15.5495C10.0248 15.8604 9.77188 16.1133 9.46094 16.1133C9.14996 16.1133 8.89698 15.8603 8.89698 15.5493C8.89698 15.2384 9.14996 14.9854 9.46094 14.9854C9.77182 14.9854 10.0248 15.2383 10.0249 15.5491V15.5495ZM19.0859 18.3691C18.5631 18.3691 18.63 18.3499 15.6558 15.7216C15.6616 15.665 15.6646 15.6075 15.6646 15.5493C15.6646 14.6164 14.9056 13.8574 13.9727 13.8574C13.2374 13.8574 12.6106 14.329 12.3778 14.9854H11.0558C10.823 14.329 10.1962 13.8574 9.46094 13.8574C8.52803 13.8574 7.76903 14.6164 7.76903 15.5493C7.76903 15.6074 7.77201 15.6649 7.77777 15.7216C4.81777 18.337 4.87184 18.3691 4.34766 18.3691C3.72571 18.3691 3.21973 17.8631 3.21973 17.2411C3.21973 17.1779 3.22499 17.1145 3.23533 17.0527C3.23533 17.0527 4.42741 11.6766 4.4288 11.6687C4.66772 10.3226 5.83532 9.3457 7.20508 9.3457C7.652 9.3457 8.07915 9.44702 8.47463 9.64686C9.56038 10.1955 10.6512 10.4736 11.7168 10.4736C12.7824 10.4736 13.8732 10.1955 14.9589 9.6469C15.3544 9.44702 15.7816 9.3457 16.2285 9.3457C17.5983 9.3457 18.7659 10.3226 19.0048 11.6687C19.0062 11.6766 19.0077 11.6844 19.0095 11.6922L20.1983 17.0527C20.2086 17.1145 20.214 17.1779 20.214 17.2411C20.214 17.8631 19.708 18.3691 19.0859 18.3691ZM8.33301 11.6016H7.76903V11.0376C7.76903 10.7261 7.51653 10.4736 7.20508 10.4736C6.89362 10.4736 6.64112 10.7261 6.64112 11.0376V11.6016H6.07715C5.76569 11.6016 5.51318 11.8541 5.51318 12.1655C5.51318 12.477 5.76569 12.7295 6.07715 12.7295H6.64112V13.2935C6.64112 13.6049 6.89362 13.8574 7.20508 13.8574C7.51653 13.8574 7.76903 13.6049 7.76903 13.2935V12.7295H8.33301C8.64446 12.7295 8.89698 12.477 8.89698 12.1655C8.89698 11.8541 8.64446 11.6016 8.33301 11.6016ZM17.3564 11.6016H16.7925V11.0376C16.7925 10.7261 16.54 10.4736 16.2285 10.4736C15.9171 10.4736 15.6646 10.7261 15.6646 11.0376V11.6016H15.1006C14.7891 11.6016 14.5366 11.8541 14.5366 12.1655C14.5366 12.477 14.7891 12.7295 15.1006 12.7295H15.6646V13.2935C15.6646 13.6049 15.9171 13.8574 16.2285 13.8574C16.54 13.8574 16.7925 13.6049 16.7925 13.2935V12.7295H17.3564C17.6679 12.7295 17.9205 12.477 17.9205 12.1655C17.9205 11.8541 17.6679 11.6016 17.3564 11.6016ZM10.5889 11.6016C10.2774 11.6016 10.0249 11.8541 10.0249 12.1655C10.0249 12.477 10.2774 12.7295 10.5889 12.7295C10.9003 12.7295 11.1528 12.477 11.1528 12.1655C11.1528 11.8541 10.9003 11.6016 10.5889 11.6016ZM12.8447 11.6016C12.5333 11.6016 12.2808 11.8541 12.2808 12.1655C12.2808 12.477 12.5333 12.7295 12.8447 12.7295C13.1562 12.7295 13.4087 12.477 13.4087 12.1655C13.4087 11.8541 13.1562 11.6016 12.8447 11.6016Z" stroke="url(#paint1_linear_451_1469)" stroke-width="0.6"/>
<defs>
<linearGradient id="paint0_linear_451_1469" x1="11.1152" y1="18.4766" x2="13.8652" y2="7.82031" gradientUnits="userSpaceOnUse">
<stop stop-color="#0026EA"/>
<stop offset="1" stop-color="#00FFC2"/>
</linearGradient>
<linearGradient id="paint1_linear_451_1469" x1="11.1152" y1="18.4766" x2="13.8652" y2="7.82031" gradientUnits="userSpaceOnUse">
<stop stop-color="#0026EA"/>
<stop offset="1" stop-color="#00FFC2"/>
</linearGradient>
</defs>
</svg>
