<svg width="23" height="22" viewBox="0 0 23 22" fill="none" xmlns="http://www.w3.org/2000/svg">
<path d="M16.7842 9.78613C15.8513 9.78613 15.0923 10.5451 15.0923 11.478C15.0923 12.4109 15.8513 13.1699 16.7842 13.1699C17.717 13.1699 18.476 12.4109 18.476 11.478C18.476 10.5451 17.717 9.78613 16.7842 9.78613ZM16.7842 12.042C16.4732 12.042 16.2202 11.789 16.2202 11.478C16.2202 11.1671 16.4732 10.9141 16.7842 10.9141C17.0952 10.9141 17.3482 11.1671 17.3482 11.478C17.3482 11.789 17.0952 12.042 16.7842 12.042ZM12.2725 10.9141C11.961 10.9141 11.7085 11.1666 11.7085 11.478C11.7085 11.7895 11.961 12.042 12.2725 12.042C12.5839 12.042 12.8364 11.7895 12.8364 11.478C12.8364 11.1666 12.5839 10.9141 12.2725 10.9141ZM16.7842 7.53027C15.7495 7.53027 14.7567 7.93844 14.0214 8.6582H11.7085V6.9663C11.7085 6.03341 10.9495 5.27441 10.0166 5.27441H5.50488C5.19393 5.27441 4.94091 5.02141 4.94091 4.71044C4.94091 4.39948 5.19393 4.14648 5.50488 4.14648H16.7842C17.717 4.14648 18.476 3.38748 18.476 2.45458C18.476 2.14313 18.2235 1.89062 17.9121 1.89062C17.6007 1.89062 17.3482 2.14313 17.3482 2.45458C17.3482 2.76555 17.0952 3.01855 16.7842 3.01855H5.50488C4.57198 3.01855 3.813 3.77755 3.813 4.71044C3.813 5.64334 4.57198 6.40234 5.50488 6.40234H10.0166C10.3276 6.40234 10.5806 6.65534 10.5806 6.9663V8.6582H8.26764C7.53237 7.93844 6.53952 7.53027 5.50488 7.53027C3.30732 7.53027 1.51953 9.30124 1.51953 11.478C1.51953 12.4815 1.94142 13.4691 2.68505 14.2243V17.3558C2.68505 18.7794 3.84321 19.9375 5.26677 19.9375C6.32861 19.9375 7.26949 19.3004 7.66386 18.3147L8.39742 16.4808C8.55297 16.528 8.71786 16.5537 8.88867 16.5537C9.6239 16.5537 10.2508 16.0822 10.4836 15.4258H11.8055C12.0383 16.0822 12.6652 16.5537 13.4004 16.5537C13.5712 16.5537 13.7361 16.528 13.8917 16.4808L14.6253 18.3147C15.0196 19.3004 15.9605 19.9375 17.0222 19.9375C18.4458 19.9375 19.604 18.7794 19.604 17.3558V14.2243C20.3478 13.4691 20.7695 12.4815 20.7695 11.478C20.7695 9.30124 18.9817 7.53027 16.7842 7.53027ZM9.45263 14.862C9.45253 15.1729 9.19961 15.4258 8.88867 15.4258C8.57772 15.4258 8.32472 15.1728 8.32472 14.8618C8.32472 14.5509 8.57772 14.2979 8.88867 14.2979C9.19958 14.2979 9.45253 14.5507 9.45263 14.8616V14.8618V14.862ZM13.4004 15.4258C13.0894 15.4258 12.8364 15.1728 12.8364 14.8618C12.8364 14.5509 13.0894 14.2979 13.4004 14.2979C13.7113 14.2979 13.9643 14.5509 13.9643 14.8618C13.9643 15.1728 13.7113 15.4258 13.4004 15.4258ZM18.6625 13.5647C18.5439 13.6716 18.476 13.8239 18.476 13.9837V17.3559C18.476 18.1574 17.8239 18.8097 17.0222 18.8097C16.4244 18.8097 15.8945 18.451 15.6725 17.8958L14.824 15.7744C14.9935 15.5109 15.0923 15.1978 15.0923 14.8618C15.0923 13.9289 14.3333 13.1699 13.4004 13.1699C12.6652 13.1699 12.0383 13.6414 11.8055 14.2979H10.4836C10.2508 13.6414 9.6239 13.1699 8.88867 13.1699C7.95577 13.1699 7.19677 13.9289 7.19677 14.8618C7.19677 15.1978 7.29558 15.5109 7.4651 15.7743L6.61657 17.8956C6.39452 18.451 5.86469 18.8097 5.26677 18.8097C4.46516 18.8097 3.813 18.1576 3.813 17.3558V13.9836C3.813 13.8239 3.74521 13.6716 3.62651 13.5646C3.00431 13.0041 2.64746 12.2436 2.64746 11.478C2.64746 9.92319 3.92927 8.6582 5.50488 8.6582C6.30598 8.6582 7.07211 9.00087 7.60685 9.59829C7.71382 9.71781 7.86665 9.78613 8.02708 9.78613H14.262C14.4224 9.78613 14.5753 9.71781 14.6823 9.59829C15.217 9.00087 15.9831 8.6582 16.7842 8.6582C18.3598 8.6582 19.6417 9.92319 19.6417 11.478C19.6417 12.2436 19.2847 13.0041 18.6625 13.5647ZM6.63281 10.9141H6.06886V10.3501C6.06886 10.0386 5.81634 9.78613 5.50488 9.78613C5.19343 9.78613 4.94091 10.0386 4.94091 10.3501V10.9141H4.37695C4.0655 10.9141 3.813 11.1666 3.813 11.478C3.813 11.7895 4.0655 12.042 4.37695 12.042H4.94091V12.606C4.94091 12.9174 5.19343 13.1699 5.50488 13.1699C5.81634 13.1699 6.06886 12.9174 6.06886 12.606V12.042H6.63281C6.94427 12.042 7.19677 11.7895 7.19677 11.478C7.19677 11.1666 6.94427 10.9141 6.63281 10.9141ZM10.0166 10.9141C9.70515 10.9141 9.45263 11.1666 9.45263 11.478C9.45263 11.7895 9.70515 12.042 10.0166 12.042C10.3281 12.042 10.5806 11.7895 10.5806 11.478C10.5806 11.1666 10.3281 10.9141 10.0166 10.9141Z" fill="url(#paint0_linear_451_1461)"/>
<defs>
<linearGradient id="paint0_linear_451_1461" x1="8.22266" y1="16.4141" x2="13.3789" y2="6.96094" gradientUnits="userSpaceOnUse">
<stop stop-color="#FF00C7"/>
<stop offset="1" stop-color="#EBFF00"/>
</linearGradient>
</defs>
</svg>
