<svg width="23" height="22" viewBox="0 0 23 22" fill="none" xmlns="http://www.w3.org/2000/svg">
<path d="M18.0767 1.4131C18.8491 1.32445 18.9911 1.36938 19.6753 1.77622C20.2834 2.11143 20.732 2.67494 21.0137 3.30406C20.9248 3.31327 20.8351 3.31812 20.7462 3.327C20.5513 3.34647 20.3764 3.44836 20.253 3.60042C20.0799 3.81384 19.9396 4.0551 19.7805 4.27927C19.7092 3.75463 19.4118 3.25304 18.9342 3.00771C18.4519 2.7296 18.5664 2.88262 18.0476 2.77575C17.9536 2.75196 17.8789 2.7045 17.8165 2.64292C17.5396 2.36923 17.5247 1.8635 17.7897 1.57825C17.8642 1.49801 17.9569 1.4377 18.0767 1.4131Z" fill="url(#paint0_linear_451_1492)"/>
<path d="M2.05046 4.37382C2.04321 2.84115 3.35617 1.44935 4.88311 1.39105C6.22385 1.37526 7.56463 1.38377 8.9054 1.38742C8.61161 1.86591 8.29364 2.32985 7.99743 2.80713C6.99762 2.8205 5.99779 2.78893 5.00038 2.81808C4.41765 2.83264 3.88448 3.20306 3.63906 3.73015C3.58466 3.84918 3.54112 3.97183 3.50728 4.09936C3.31385 5.46564 3.46376 6.85623 3.39969 8.23225C2.93423 8.77027 2.5667 9.38963 2.05409 9.88757C2.04079 8.05008 2.04684 6.21134 2.05046 4.37382Z" fill="url(#paint1_linear_451_1492)"/>
<path d="M8.90503 1.38746C10.5069 1.38138 11.0776 1.3826 12.6795 1.38381C13.012 1.35345 13.3504 1.55991 13.4423 1.88783C13.4549 1.92145 13.4635 1.95493 13.4687 1.98826C13.5397 2.44522 13.0109 2.77258 12.5493 2.80085C12.1499 2.82532 11.7467 2.80886 11.3472 2.80962C9.88673 2.80718 9.45753 2.81084 7.99707 2.80718C8.29328 2.3299 8.61125 1.86595 8.90503 1.38746Z" fill="url(#paint2_linear_451_1492)"/>
<path d="M14.829 2.42603C14.8254 2.3552 14.8196 2.28614 14.8218 2.21525C14.8297 1.96175 14.8667 1.65702 15.158 1.60402C15.415 1.57022 15.6831 1.55369 15.9407 1.59891C16.0361 1.61566 16.1339 1.64662 16.1961 1.72088C16.3126 1.85995 16.3106 2.07111 16.3126 2.25134C16.3043 2.31871 16.3061 2.39173 16.3084 2.46582C16.3185 2.79244 16.0296 2.98004 15.703 2.9883C15.6283 2.9902 15.5535 2.99038 15.4788 2.98899C15.1304 2.98251 14.8464 2.77408 14.829 2.42603Z" fill="url(#paint3_linear_451_1492)"/>
<path d="M20.2522 3.60056C20.3756 3.44851 20.5505 3.34662 20.7454 3.32714C20.8343 3.31826 20.924 3.31341 21.0129 3.3042C21.1121 3.64305 21.2014 3.98917 21.2112 4.3438C21.2014 6.16552 21.2148 7.98602 21.2026 9.80654C20.8049 10.2705 20.4144 10.7429 20.0844 11.2579C19.8596 11.5882 19.8825 12.0047 19.8764 12.3862C19.8921 13.3978 19.8728 14.4107 19.8666 15.4235C19.857 16.196 19.9175 16.9768 19.7725 17.7407C19.7869 13.2532 19.7809 8.76573 19.7797 4.27942C19.9388 4.05524 20.0791 3.81398 20.2522 3.60056Z" fill="url(#paint4_linear_451_1492)"/>
<path d="M14.7974 5.72175C14.8015 5.31058 15.1343 4.99288 15.5455 4.99268C15.9387 4.99249 16.269 5.28046 16.2739 5.67364C16.2767 5.8927 16.268 6.11249 16.2704 6.33077C16.2777 8.31646 16.2814 10.3021 16.2885 12.2878C16.3408 12.8127 16.0057 13.2507 15.7394 13.6744C15.707 13.7261 15.6565 13.7618 15.5964 13.7729C15.5186 13.7874 15.4364 13.7586 15.3891 13.6951C15.1937 13.4325 15.0248 13.1434 14.9018 12.8402C14.8496 12.7115 14.828 12.573 14.8257 12.4341C14.7925 10.3602 14.8201 8.28302 14.8003 6.20811C14.7983 6.04639 14.7958 5.88404 14.7974 5.72175Z" fill="url(#paint5_linear_451_1492)"/>
<path d="M3.39997 8.2325C3.46405 6.85648 3.31414 5.4659 3.50757 4.09961C3.458 8.56162 3.50154 13.0248 3.48701 17.4882C3.45317 17.9873 3.68771 18.4452 4.01292 18.8058C3.71672 19.1725 3.43382 19.5491 3.16301 19.934C3.01068 19.804 2.8656 19.6645 2.72777 19.5211C2.30343 18.9782 2.05317 18.2993 2.04954 17.6071C2.04591 16.8566 2.0447 16.1048 2.05438 15.3531C2.50775 14.9231 2.91396 14.4397 3.23919 13.9054C3.43019 13.5981 3.39877 13.2215 3.40602 12.8755C3.37337 11.3282 3.4169 9.77975 3.39997 8.2325Z" fill="url(#paint6_linear_451_1492)"/>
<path d="M21.2117 4.34375C21.2516 4.55143 21.2865 4.76031 21.2927 4.97285C21.2793 8.57743 21.2927 12.1832 21.2853 15.7879C21.2757 16.4035 21.347 17.0278 21.2141 17.6362C21.1997 15.0264 21.2165 12.4164 21.2031 9.80649C21.2153 7.98597 21.2019 6.16547 21.2117 4.34375Z" fill="url(#paint7_linear_451_1492)"/>
<path d="M2.05406 9.88775C2.56667 9.38981 2.9342 8.77044 3.39966 8.23242C3.41659 9.77968 3.37305 11.3281 3.40571 12.8754C3.39846 13.2215 3.42987 13.598 3.23887 13.9053C2.91365 14.4396 2.50744 14.923 2.05406 15.353C2.04318 13.5312 2.04318 11.7095 2.05406 9.88775Z" fill="url(#paint8_linear_451_1492)"/>
<path d="M20.0851 11.258C20.4151 10.743 20.8056 10.2706 21.2033 9.80664C21.2167 12.4166 21.1999 15.0265 21.2143 17.6363C21.2021 18.3651 20.9156 19.078 20.4418 19.627C19.9425 20.1321 19.2943 20.5195 18.5774 20.5912C17.3119 20.525 16.0439 20.541 14.7765 20.5271C14.0688 20.5194 13.6662 19.7604 14.0849 19.1897C15.4547 19.1861 16.8245 19.1934 18.193 19.1861C18.8822 19.1934 19.5289 18.6942 19.7139 18.0299C19.7297 17.9583 19.7586 17.8125 19.7732 17.7408C19.9182 16.9769 19.8577 16.1961 19.8674 15.4236C19.8735 14.4108 19.8928 13.3979 19.8772 12.3863C19.8832 12.0048 19.8603 11.5883 20.0851 11.258Z" fill="url(#paint9_linear_451_1492)"/>
<path d="M3.16309 19.9339C3.43389 19.549 3.7168 19.1724 4.01299 18.8057C4.34184 19.0207 4.71058 19.2041 5.11438 19.1883C6.29798 19.1931 7.48157 19.1834 8.66517 19.1907C8.45297 19.5336 8.27164 19.9081 8.01496 20.2212C7.89458 20.3682 7.72726 20.4716 7.53938 20.4995C7.26277 20.5404 6.9749 20.5191 6.69574 20.5254C6.03926 20.5036 5.38277 20.5461 4.72751 20.5921C4.15324 20.5437 3.61041 20.291 3.16309 19.9339Z" fill="url(#paint10_linear_451_1492)"/>
<path d="M8.66519 19.1905C10.4726 19.1881 12.2788 19.1869 14.0851 19.1893C13.6663 19.7599 14.069 20.5189 14.7766 20.5267C16.044 20.5406 17.312 20.5246 18.5776 20.5908C18.3285 20.6164 18.0771 20.6236 17.8268 20.6248C13.9557 20.6224 10.0845 20.6212 6.21458 20.62C5.7189 20.6164 5.22201 20.6358 4.72754 20.592C5.3828 20.5459 6.03929 20.5035 6.69577 20.5253C6.97492 20.5189 7.2628 20.5402 7.53941 20.4993C7.72729 20.4715 7.89461 20.368 8.01499 20.2211C8.27167 19.9079 8.453 19.5334 8.66519 19.1905Z" fill="url(#paint11_linear_451_1492)"/>
<path d="M21.0133 3.30406C20.7316 2.67494 20.283 2.11143 19.6749 1.77622C18.9907 1.36938 18.8487 1.32445 18.0763 1.4131C17.9565 1.4377 17.8639 1.49801 17.7893 1.57825C17.5244 1.8635 17.5393 2.36923 17.8161 2.64292C17.8785 2.7045 17.9533 2.75196 18.0473 2.77575C18.566 2.88262 18.4515 2.7296 18.9338 3.00771C19.4115 3.25304 19.7088 3.75463 19.7801 4.27927M21.0133 3.30406C20.9245 3.31327 20.8348 3.31812 20.7459 3.327C20.551 3.34647 20.376 3.44836 20.2526 3.60042C20.0795 3.81384 19.9393 4.0551 19.7801 4.27927M21.0133 3.30406C21.1125 3.64291 21.2019 3.98903 21.2117 4.34366M19.7801 4.27927C19.7813 8.76559 19.7874 13.2531 19.7729 17.7406M21.2117 4.34366C21.2019 6.16538 21.2153 7.98588 21.2031 9.8064M21.2117 4.34366C21.2516 4.55134 21.2864 4.76021 21.2926 4.97276C21.2792 8.57734 21.2926 12.1831 21.2852 15.7878C21.2756 16.4035 21.3469 17.0277 21.2141 17.6361M19.7729 17.7406C19.918 16.9767 19.8575 16.1959 19.8671 15.4234C19.8733 14.4105 19.8925 13.3977 19.8769 12.386C19.8829 12.0046 19.8601 11.588 20.0849 11.2577C20.4149 10.7428 20.8054 10.2703 21.2031 9.8064M19.7729 17.7406C19.7583 17.8123 19.7294 17.958 19.7136 18.0297C19.5287 18.694 18.8819 19.1931 18.1927 19.1859C16.8242 19.1931 15.4544 19.1859 14.0847 19.1895M8.9054 1.3876C7.56463 1.38395 6.22385 1.37545 4.88311 1.39124C3.35617 1.44954 2.04321 2.84133 2.05046 4.37401C2.04684 6.21153 2.04079 8.05026 2.05409 9.88776M8.9054 1.3876C8.61161 1.8661 8.29364 2.33004 7.99743 2.80732M8.9054 1.3876C10.5073 1.38153 11.0779 1.38275 12.6798 1.38395C13.0123 1.35359 13.3508 1.56006 13.4427 1.88798C13.4553 1.9216 13.4638 1.95508 13.469 1.9884C13.5401 2.44537 13.0113 2.77272 12.5497 2.80099C12.1502 2.82547 11.747 2.809 11.3475 2.80976C9.88709 2.80732 9.45789 2.81098 7.99743 2.80732M2.05409 9.88776C2.5667 9.38982 2.93423 8.77045 3.39969 8.23243M2.05409 9.88776C2.04321 11.7095 2.04321 13.5312 2.05409 15.353M7.99743 2.80732C6.99762 2.82069 5.99779 2.78912 5.00038 2.81827C4.41765 2.83283 3.88448 3.20325 3.63906 3.73034C3.58466 3.84936 3.54112 3.97201 3.50728 4.09954M3.50728 4.09954C3.31385 5.46583 3.46376 6.85642 3.39969 8.23243M3.50728 4.09954C3.45771 8.56156 3.50125 13.0247 3.48673 17.4881C3.45288 17.9872 3.68743 18.4451 4.01263 18.8057M3.39969 8.23243C3.41662 9.77969 3.37308 11.3281 3.40574 12.8754C3.39849 13.2215 3.4299 13.598 3.2389 13.9053C2.91368 14.4396 2.50747 14.923 2.05409 15.353M4.01263 18.8057C3.71644 19.1725 3.43353 19.5491 3.16273 19.9339M4.01263 18.8057C4.34148 19.0207 4.71022 19.2041 5.11402 19.1883C6.29762 19.1931 7.4812 19.1835 8.6648 19.1907M2.05409 15.353C2.04442 16.1047 2.04563 16.8565 2.04926 17.607C2.05288 18.2992 2.30314 18.9781 2.72749 19.521C2.86531 19.6644 3.01039 19.804 3.16273 19.9339M21.2031 9.8064C21.2165 12.4164 21.1996 15.0263 21.2141 17.6361M21.2141 17.6361C21.2019 18.3648 20.9154 19.0778 20.4415 19.6268C19.9422 20.1319 19.2941 20.5193 18.5772 20.591M14.0847 19.1895C13.6659 19.7601 14.0686 20.5191 14.7762 20.5269C16.0437 20.5408 17.3116 20.5248 18.5772 20.591M14.0847 19.1895C12.2784 19.1871 10.4722 19.1883 8.6648 19.1907M3.16273 19.9339C3.61005 20.291 4.15288 20.5437 4.72715 20.5922M8.6648 19.1907C8.45261 19.5336 8.27128 19.9081 8.0146 20.2213C7.89422 20.3682 7.7269 20.4717 7.53902 20.4995C7.26241 20.5404 6.97453 20.5191 6.69537 20.5255C6.0389 20.5037 5.3824 20.5461 4.72715 20.5922M4.72715 20.5922C5.22162 20.636 5.71851 20.6166 6.21419 20.6202C10.0841 20.6214 13.9553 20.6226 17.8264 20.625C18.0767 20.6238 18.3281 20.6166 18.5772 20.591M15.1581 1.60382C14.8668 1.65682 14.8298 1.96154 14.8218 2.21504C14.8196 2.28594 14.8255 2.355 14.8291 2.42583C14.8465 2.77387 15.1304 2.98231 15.4789 2.98879C15.5536 2.99018 15.6284 2.98999 15.7031 2.9881C16.0297 2.97983 16.3186 2.79223 16.3084 2.46562C16.3062 2.39152 16.3044 2.31851 16.3127 2.25113C16.3107 2.0709 16.3127 1.85974 16.1962 1.72067C16.134 1.64641 16.0362 1.61545 15.9408 1.5987C15.6832 1.55348 15.4151 1.57001 15.1581 1.60382ZM16.2702 6.33077C16.2679 6.11249 16.2765 5.8927 16.2738 5.67364C16.2689 5.28046 15.9386 4.99249 15.5454 4.99268C15.1342 4.99288 14.8014 5.31058 14.7973 5.72175C14.7956 5.88404 14.7982 6.04639 14.8002 6.20811C14.82 8.28302 14.7924 10.3602 14.8256 12.4341C14.8278 12.573 14.8495 12.7115 14.9017 12.8402C15.0247 13.1434 15.1935 13.4325 15.389 13.6951C15.4363 13.7586 15.5184 13.7874 15.5963 13.7729C15.6564 13.7618 15.7068 13.7261 15.7393 13.6744C16.0056 13.2507 16.3406 12.8127 16.2884 12.2878C16.2812 10.3021 16.2775 8.31646 16.2702 6.33077Z" stroke="url(#paint12_linear_451_1492)" stroke-width="0.6"/>
<defs>
<linearGradient id="paint0_linear_451_1492" x1="2.04624" y1="20.625" x2="25.2739" y2="10.5011" gradientUnits="userSpaceOnUse">
<stop stop-color="#0357D1"/>
<stop offset="1" stop-color="#27CDFC"/>
</linearGradient>
<linearGradient id="paint1_linear_451_1492" x1="2.04589" y1="20.6248" x2="25.2736" y2="10.5009" gradientUnits="userSpaceOnUse">
<stop stop-color="#0357D1"/>
<stop offset="1" stop-color="#27CDFC"/>
</linearGradient>
<linearGradient id="paint2_linear_451_1492" x1="2.04553" y1="20.6249" x2="25.2732" y2="10.5009" gradientUnits="userSpaceOnUse">
<stop stop-color="#0357D1"/>
<stop offset="1" stop-color="#27CDFC"/>
</linearGradient>
<linearGradient id="paint3_linear_451_1492" x1="2.04582" y1="20.6252" x2="25.2735" y2="10.5013" gradientUnits="userSpaceOnUse">
<stop stop-color="#0357D1"/>
<stop offset="1" stop-color="#27CDFC"/>
</linearGradient>
<linearGradient id="paint4_linear_451_1492" x1="2.04543" y1="20.6251" x2="25.2731" y2="10.5012" gradientUnits="userSpaceOnUse">
<stop stop-color="#0357D1"/>
<stop offset="1" stop-color="#27CDFC"/>
</linearGradient>
<linearGradient id="paint5_linear_451_1492" x1="2.04601" y1="20.625" x2="25.2737" y2="10.5011" gradientUnits="userSpaceOnUse">
<stop stop-color="#0357D1"/>
<stop offset="1" stop-color="#27CDFC"/>
</linearGradient>
<linearGradient id="paint6_linear_451_1492" x1="2.04618" y1="20.6251" x2="25.2739" y2="10.5011" gradientUnits="userSpaceOnUse">
<stop stop-color="#0357D1"/>
<stop offset="1" stop-color="#27CDFC"/>
</linearGradient>
<linearGradient id="paint7_linear_451_1492" x1="2.0458" y1="20.6251" x2="25.2736" y2="10.5011" gradientUnits="userSpaceOnUse">
<stop stop-color="#0357D1"/>
<stop offset="1" stop-color="#27CDFC"/>
</linearGradient>
<linearGradient id="paint8_linear_451_1492" x1="2.04586" y1="20.625" x2="25.2736" y2="10.5011" gradientUnits="userSpaceOnUse">
<stop stop-color="#0357D1"/>
<stop offset="1" stop-color="#27CDFC"/>
</linearGradient>
<linearGradient id="paint9_linear_451_1492" x1="2.04615" y1="20.6252" x2="25.2739" y2="10.5013" gradientUnits="userSpaceOnUse">
<stop stop-color="#0357D1"/>
<stop offset="1" stop-color="#27CDFC"/>
</linearGradient>
<linearGradient id="paint10_linear_451_1492" x1="2.04625" y1="20.625" x2="25.274" y2="10.501" gradientUnits="userSpaceOnUse">
<stop stop-color="#0357D1"/>
<stop offset="1" stop-color="#27CDFC"/>
</linearGradient>
<linearGradient id="paint11_linear_451_1492" x1="2.04628" y1="20.6248" x2="25.274" y2="10.5009" gradientUnits="userSpaceOnUse">
<stop stop-color="#0357D1"/>
<stop offset="1" stop-color="#27CDFC"/>
</linearGradient>
<linearGradient id="paint12_linear_451_1492" x1="2.04589" y1="20.625" x2="25.2736" y2="10.5011" gradientUnits="userSpaceOnUse">
<stop stop-color="#0357D1"/>
<stop offset="1" stop-color="#27CDFC"/>
</linearGradient>
</defs>
</svg>
