<svg width="23" height="22" viewBox="0 0 23 22" fill="none" xmlns="http://www.w3.org/2000/svg">
<path d="M17.3344 1.185C18.1252 1.09424 18.9744 1.14025 19.675 1.55678C20.2975 1.89995 20.7567 2.47689 21.0451 3.12098C20.919 3.13406 20.7912 3.13854 20.666 3.1574C20.537 3.17685 20.4215 3.24574 20.335 3.34344C20.1249 3.58051 19.966 3.86105 19.7827 4.11942C19.7096 3.58228 19.4051 3.06875 18.9162 2.81758C18.4223 2.53284 17.8357 2.68951 17.3046 2.5801C17.1315 2.5363 17.0219 2.41418 16.9364 2.27052C16.8036 2.04752 16.7889 1.75902 16.9148 1.53204C17.007 1.36562 17.1334 1.22625 17.3344 1.185Z" fill="url(#paint0_linear_451_1478)"/>
<path d="M1.63065 4.21605C1.62322 2.64689 2.96744 1.22195 4.53073 1.16227C5.90341 1.1461 7.27609 1.15481 8.64878 1.15854C8.348 1.64843 8.02246 2.12342 7.71921 2.61207C6.69558 2.62575 5.67195 2.59343 4.65079 2.62326C4.05419 2.63818 3.50834 3.01742 3.25707 3.55706C3.20137 3.67891 3.15681 3.80449 3.12216 3.93505C2.92411 5.33387 3.0776 6.75757 3.012 8.16634C2.53546 8.71716 2.15918 9.35129 1.63436 9.86108C1.62075 7.97983 1.62694 6.09732 1.63065 4.21605Z" fill="url(#paint1_linear_451_1478)"/>
<path d="M8.6493 1.15861C10.2893 1.15239 11.9294 1.15364 13.5694 1.15488C13.9098 1.12379 14.2563 1.33517 14.3504 1.67089C14.3968 1.79453 14.3899 1.91632 14.3597 2.03587C14.2841 2.33476 14.0061 2.54853 13.6998 2.58304C13.2051 2.63878 12.7025 2.61369 12.2054 2.61462C10.7102 2.61213 9.21495 2.61587 7.71973 2.61213C8.02298 2.12348 8.34851 1.6485 8.6493 1.15861Z" fill="url(#paint2_linear_451_1478)"/>
<path d="M14.8874 4.12521C14.884 4.07538 14.8798 4.02551 14.8811 3.97557C14.8872 3.71003 14.9148 3.3724 15.2262 3.31574C15.5064 3.27889 15.7994 3.26209 16.0786 3.32031C16.1419 3.33349 16.2048 3.35488 16.2529 3.39799C16.4086 3.53765 16.4061 3.77694 16.4083 3.97846C16.393 4.10229 16.4111 4.24465 16.4055 4.37883C16.3966 4.59648 16.1822 4.71167 15.9647 4.72514C15.7705 4.73716 15.5754 4.73745 15.3808 4.72769C15.1356 4.71538 14.9058 4.57832 14.8952 4.33307C14.8921 4.26328 14.8922 4.19284 14.8874 4.12521Z" fill="url(#paint3_linear_451_1478)"/>
<path d="M20.3351 3.34307C20.4216 3.24536 20.5371 3.17648 20.6662 3.15703C20.7914 3.13817 20.9192 3.13369 21.0453 3.12061C21.1468 3.46752 21.2384 3.82188 21.2484 4.18496C21.2384 6.05005 21.252 7.9139 21.2397 9.77776C20.8324 10.2527 20.4326 10.7364 20.0947 11.2636C19.8645 11.6018 19.888 12.0283 19.8818 12.4188C19.8979 13.4545 19.8781 14.4915 19.8719 15.5285C19.862 16.3193 19.9239 17.1188 19.7754 17.9009C19.7902 13.3065 19.784 8.71217 19.7828 4.11905C19.9662 3.86068 20.1251 3.58014 20.3351 3.34307Z" fill="url(#paint4_linear_451_1478)"/>
<path d="M14.857 6.82796C14.8611 6.40701 15.2019 6.08175 15.6229 6.08154C16.0255 6.08134 16.3637 6.37617 16.3687 6.77871C16.3714 7.00298 16.3626 7.22801 16.365 7.45149C16.3725 9.48445 16.3763 11.5174 16.3836 13.5504C16.4371 14.0877 16.094 14.5362 15.8214 14.97C15.7882 15.0229 15.7365 15.0595 15.675 15.0708C15.5954 15.0856 15.5113 15.0563 15.4628 14.9912C15.2477 14.7023 15.0642 14.3821 14.9365 14.0463C14.9036 13.9597 14.8887 13.8676 14.8873 13.775C14.8513 11.6268 14.8805 9.47517 14.86 7.32591C14.8579 7.16032 14.8553 6.99412 14.857 6.82796Z" fill="url(#paint5_linear_451_1478)"/>
<path d="M3.01227 8.16635C3.07787 6.75758 2.92438 5.33388 3.12243 3.93506C3.07168 8.5033 3.11624 13.0727 3.10138 17.6423C3.06673 18.1534 3.30685 18.6221 3.63981 18.9913C3.33656 19.3669 3.04692 19.7524 2.76966 20.1464C2.6137 20.0134 2.46517 19.8704 2.32407 19.7237C1.88962 19.1679 1.6334 18.4728 1.62968 17.7641C1.62597 16.9957 1.62473 16.2261 1.63463 15.4564C2.0988 15.0162 2.51468 14.5213 2.84765 13.9743C3.04321 13.6596 3.01103 13.2742 3.01846 12.9199C2.98503 11.3358 3.02959 9.75044 3.01227 8.16635Z" fill="url(#paint6_linear_451_1478)"/>
<path d="M21.248 4.18506C21.2888 4.39768 21.3246 4.61154 21.3308 4.82913C21.3172 8.51954 21.3308 12.2112 21.3234 15.9017C21.3135 16.532 21.3865 17.1711 21.2504 17.794C21.2356 15.122 21.2529 12.4499 21.2393 9.77786C21.2516 7.914 21.238 6.05015 21.248 4.18506Z" fill="url(#paint7_linear_451_1478)"/>
<path d="M1.63433 9.86125C2.15915 9.35146 2.53543 8.71733 3.01197 8.1665C3.02929 9.7506 2.98473 11.3359 3.01816 12.9201C3.01073 13.2743 3.04291 13.6598 2.84735 13.9744C2.51438 14.5215 2.0985 15.0164 1.63433 15.4566C1.62319 13.5914 1.62319 11.7263 1.63433 9.86125Z" fill="url(#paint8_linear_451_1478)"/>
<path d="M20.0945 11.2637C20.4324 10.7365 20.8322 10.2528 21.2394 9.77783C21.2531 12.4499 21.2358 15.122 21.2506 17.794C21.2382 18.54 20.9448 19.2699 20.4596 19.8319C19.9484 20.3492 19.285 20.7459 18.551 20.8192C17.2314 20.7501 15.9094 20.7684 14.5879 20.7527C13.8958 20.7445 13.5012 20.0013 13.9092 19.4421C13.9233 19.4229 13.9374 19.4036 13.9515 19.3844C15.3539 19.3806 16.7562 19.3881 18.1574 19.3806C18.8629 19.3881 19.5252 18.877 19.7144 18.1968C19.7306 18.1235 19.7603 17.9743 19.7752 17.901C19.9237 17.1188 19.8618 16.3194 19.8717 15.5285C19.8778 14.4916 19.8977 13.4546 19.8816 12.4189C19.8878 12.0284 19.8643 11.6019 20.0945 11.2637Z" fill="url(#paint9_linear_451_1478)"/>
<path d="M2.76953 20.1468C3.04679 19.7528 3.33643 19.3673 3.63968 18.9917C3.97636 19.2118 4.35387 19.3996 4.76728 19.3835C5.97906 19.3884 7.19082 19.3784 8.4026 19.3859C8.1674 19.7659 7.96922 20.1841 7.67011 20.5192C7.5858 20.6137 7.47522 20.682 7.35127 20.7079C7.03757 20.7734 6.70633 20.7452 6.38629 20.7524C5.71417 20.73 5.04206 20.7736 4.3712 20.8208C3.78326 20.7711 3.22751 20.5124 2.76953 20.1468Z" fill="url(#paint10_linear_451_1478)"/>
<path d="M8.40249 19.3858C10.253 19.3834 12.1021 19.3822 13.9514 19.3847C13.9373 19.4039 13.9232 19.4232 13.9091 19.4424C13.5011 20.0016 13.8957 20.7448 14.5878 20.753C15.9093 20.7687 17.2313 20.7504 18.5509 20.8195C18.2959 20.8456 18.0385 20.8531 17.7823 20.8543C13.8189 20.8518 9.85562 20.8505 5.89354 20.8494C5.38606 20.8456 4.87733 20.8656 4.37109 20.8208C5.04196 20.7735 5.71407 20.73 6.38618 20.7523C6.70622 20.7451 7.03746 20.7733 7.35117 20.7079C7.47511 20.682 7.58569 20.6137 7.67001 20.5192C7.96911 20.184 8.1673 19.7659 8.40249 19.3858Z" fill="url(#paint11_linear_451_1478)"/>
<path d="M21.045 3.12098C20.7566 2.47689 20.2973 1.89995 19.6748 1.55678C18.9742 1.14025 18.1251 1.09424 17.3342 1.185C17.1332 1.22625 17.0068 1.36562 16.9146 1.53204C16.7888 1.75902 16.8035 2.04752 16.9363 2.27052C17.0217 2.41418 17.1314 2.53631 17.3044 2.5801C17.8355 2.68951 18.4222 2.53284 18.916 2.81758C19.405 3.06875 19.7094 3.58228 19.7825 4.11942M21.045 3.12098C20.9188 3.13406 20.7911 3.13854 20.6658 3.1574C20.5368 3.17685 20.4213 3.24574 20.3348 3.34344C20.1248 3.58051 19.9658 3.86105 19.7825 4.11942M21.045 3.12098C21.1465 3.46789 21.2381 3.82225 21.248 4.18533M19.7825 4.11942C19.7837 8.71254 19.7898 13.3068 19.7751 17.9013M21.248 4.18533C21.2381 6.05043 21.2517 7.91427 21.2393 9.77813M21.248 4.18533C21.2888 4.39795 21.3247 4.61181 21.3309 4.8294C21.3172 8.51981 21.3309 12.2114 21.3234 15.9019C21.3136 16.5322 21.3866 17.1714 21.2504 17.7943M19.7751 17.9013C19.9236 17.1191 19.8617 16.3197 19.8715 15.5288C19.8777 14.4919 19.8975 13.4549 19.8815 12.4192C19.8877 12.0287 19.8642 11.6022 20.0944 11.264C20.4323 10.7368 20.8321 10.2531 21.2393 9.77813M19.7751 17.9013C19.7602 17.9746 19.7305 18.1238 19.7143 18.1971C19.525 18.8773 18.8627 19.3884 18.1573 19.3809C16.7561 19.3884 15.3537 19.3809 13.9514 19.3847M8.64878 1.1589C7.27609 1.15516 5.90341 1.14645 4.53073 1.16262C2.96744 1.22231 1.62322 2.64724 1.63065 4.21641C1.62694 6.09767 1.62075 7.98018 1.63436 9.86143M8.64878 1.1589C8.348 1.64879 8.02246 2.12377 7.71921 2.61242M8.64878 1.1589C10.2888 1.15268 11.9289 1.15393 13.5689 1.15516C13.9093 1.12408 14.2558 1.33546 14.3499 1.67118C14.3963 1.79481 14.3894 1.9166 14.3592 2.03616C14.2835 2.33505 14.0056 2.54882 13.6993 2.58333C13.2046 2.63906 12.7019 2.61398 12.2049 2.61491C10.7097 2.61242 9.21443 2.61616 7.71921 2.61242M1.63436 9.86143C2.15918 9.35164 2.53546 8.71751 3.012 8.16669M1.63436 9.86143C1.62322 11.7265 1.62322 13.5916 1.63436 15.4568M7.71921 2.61242C6.69558 2.6261 5.67195 2.59378 4.65079 2.62362C4.05419 2.63854 3.50834 3.01777 3.25707 3.55741C3.20137 3.67926 3.15681 3.80485 3.12216 3.9354M3.12216 3.9354C2.92411 5.33422 3.0776 6.75792 3.012 8.16669M3.12216 3.9354C3.07141 8.50364 3.11597 13.0731 3.10111 17.6427C3.06646 18.1537 3.30658 18.6225 3.63954 18.9917M3.012 8.16669C3.02932 9.75078 2.98476 11.3361 3.01819 12.9202C3.01076 13.2745 3.04294 13.66 2.84738 13.9746C2.51441 14.5217 2.09853 15.0165 1.63436 15.4568M3.63954 18.9917C3.33629 19.3673 3.04665 19.7527 2.76939 20.1468M3.63954 18.9917C3.97622 19.2118 4.35374 19.3996 4.76714 19.3834C5.97892 19.3884 7.19068 19.3784 8.40246 19.3858M1.63436 15.4568C1.62446 16.2264 1.6257 16.9961 1.62941 17.7645C1.63313 18.4732 1.88935 19.1682 2.3238 19.7241C2.4649 19.8707 2.61343 20.0137 2.76939 20.1468M21.2393 9.77813C21.253 12.4502 21.2357 15.1223 21.2504 17.7943M21.2504 17.7943C21.2381 18.5403 20.9447 19.2702 20.4595 19.8322C19.9483 20.3495 19.2849 20.7462 18.5509 20.8195M13.9514 19.3847C13.9373 19.4039 13.9232 19.4232 13.9091 19.4424C13.501 20.0016 13.8957 20.7448 14.5878 20.753C15.9092 20.7687 17.2313 20.7504 18.5509 20.8195M13.9514 19.3847C12.1021 19.3822 10.2529 19.3834 8.40246 19.3858M2.76939 20.1468C3.22737 20.5124 3.78312 20.771 4.37106 20.8208M8.40246 19.3858C8.16726 19.7659 7.96908 20.184 7.66997 20.5192C7.58566 20.6137 7.47508 20.682 7.35113 20.7079C7.03743 20.7733 6.70619 20.7451 6.38615 20.7524C5.71403 20.73 5.04192 20.7735 4.37106 20.8208M4.37106 20.8208C4.8773 20.8656 5.38603 20.8456 5.89351 20.8494C9.85559 20.8505 13.8189 20.8518 17.7822 20.8543C18.0384 20.8531 18.2959 20.8456 18.5509 20.8195M15.2263 3.3159C14.9149 3.37256 14.8873 3.71019 14.8812 3.97572C14.8799 4.02567 14.8841 4.07554 14.8875 4.12537C14.8923 4.193 14.8922 4.26344 14.8953 4.33322C14.906 4.57848 15.1357 4.71554 15.3809 4.72785C15.5755 4.73761 15.7706 4.73731 15.9648 4.72529C16.1823 4.71183 16.3967 4.59664 16.4056 4.37899C16.4112 4.24481 16.3931 4.10245 16.4084 3.97862C16.4062 3.77709 16.4087 3.53781 16.253 3.39814C16.2049 3.35504 16.142 3.33364 16.0787 3.32047C15.7995 3.26225 15.5065 3.27905 15.2263 3.3159ZM16.3649 7.45153C16.3625 7.22805 16.3714 7.00302 16.3686 6.77875C16.3636 6.37621 16.0254 6.08138 15.6228 6.08158C15.2018 6.08179 14.861 6.40704 14.8569 6.828C14.8552 6.99416 14.8578 7.16036 14.8599 7.32595C14.8804 9.47521 14.8512 11.6268 14.8872 13.775C14.8887 13.8676 14.9035 13.9597 14.9364 14.0464C15.0641 14.3821 15.2476 14.7024 15.4627 14.9912C15.5112 15.0563 15.5953 15.0856 15.6749 15.0709C15.7365 15.0595 15.7881 15.023 15.8214 14.97C16.094 14.5362 16.437 14.0877 16.3835 13.5504C16.3762 11.5174 16.3724 9.48449 16.3649 7.45153Z" stroke="url(#paint12_linear_451_1478)" stroke-width="0.6"/>
<defs>
<linearGradient id="paint0_linear_451_1478" x1="1.62612" y1="20.8543" x2="25.4069" y2="10.4893" gradientUnits="userSpaceOnUse">
<stop stop-color="#0357D1"/>
<stop offset="1" stop-color="#27CDFC"/>
</linearGradient>
<linearGradient id="paint1_linear_451_1478" x1="1.62597" y1="20.854" x2="25.4067" y2="10.489" gradientUnits="userSpaceOnUse">
<stop stop-color="#0357D1"/>
<stop offset="1" stop-color="#27CDFC"/>
</linearGradient>
<linearGradient id="paint2_linear_451_1478" x1="1.62649" y1="20.854" x2="25.4072" y2="10.4891" gradientUnits="userSpaceOnUse">
<stop stop-color="#0357D1"/>
<stop offset="1" stop-color="#27CDFC"/>
</linearGradient>
<linearGradient id="paint3_linear_451_1478" x1="1.62586" y1="20.8542" x2="25.4066" y2="10.4892" gradientUnits="userSpaceOnUse">
<stop stop-color="#0357D1"/>
<stop offset="1" stop-color="#27CDFC"/>
</linearGradient>
<linearGradient id="paint4_linear_451_1478" x1="1.62631" y1="20.854" x2="25.407" y2="10.489" gradientUnits="userSpaceOnUse">
<stop stop-color="#0357D1"/>
<stop offset="1" stop-color="#27CDFC"/>
</linearGradient>
<linearGradient id="paint5_linear_451_1478" x1="1.62606" y1="20.8543" x2="25.4068" y2="10.4893" gradientUnits="userSpaceOnUse">
<stop stop-color="#0357D1"/>
<stop offset="1" stop-color="#27CDFC"/>
</linearGradient>
<linearGradient id="paint6_linear_451_1478" x1="1.62624" y1="20.854" x2="25.407" y2="10.489" gradientUnits="userSpaceOnUse">
<stop stop-color="#0357D1"/>
<stop offset="1" stop-color="#27CDFC"/>
</linearGradient>
<linearGradient id="paint7_linear_451_1478" x1="1.62598" y1="20.8541" x2="25.4067" y2="10.4891" gradientUnits="userSpaceOnUse">
<stop stop-color="#0357D1"/>
<stop offset="1" stop-color="#27CDFC"/>
</linearGradient>
<linearGradient id="paint8_linear_451_1478" x1="1.62594" y1="20.8541" x2="25.4067" y2="10.4892" gradientUnits="userSpaceOnUse">
<stop stop-color="#0357D1"/>
<stop offset="1" stop-color="#27CDFC"/>
</linearGradient>
<linearGradient id="paint9_linear_451_1478" x1="1.62608" y1="20.854" x2="25.4068" y2="10.489" gradientUnits="userSpaceOnUse">
<stop stop-color="#0357D1"/>
<stop offset="1" stop-color="#27CDFC"/>
</linearGradient>
<linearGradient id="paint10_linear_451_1478" x1="1.62611" y1="20.8544" x2="25.4069" y2="10.4894" gradientUnits="userSpaceOnUse">
<stop stop-color="#0357D1"/>
<stop offset="1" stop-color="#27CDFC"/>
</linearGradient>
<linearGradient id="paint11_linear_451_1478" x1="1.626" y1="20.8543" x2="25.4067" y2="10.4894" gradientUnits="userSpaceOnUse">
<stop stop-color="#0357D1"/>
<stop offset="1" stop-color="#27CDFC"/>
</linearGradient>
<linearGradient id="paint12_linear_451_1478" x1="1.62597" y1="20.8543" x2="25.4067" y2="10.4893" gradientUnits="userSpaceOnUse">
<stop stop-color="#0357D1"/>
<stop offset="1" stop-color="#27CDFC"/>
</linearGradient>
</defs>
</svg>
