<svg width="23" height="22" viewBox="0 0 23 22" fill="none" xmlns="http://www.w3.org/2000/svg">
<path fill-rule="evenodd" clip-rule="evenodd" d="M2.54995 2.0625C2.52075 2.0625 2.49707 2.08618 2.49707 2.11538V19.8846C2.49707 19.9138 2.52075 19.9375 2.54995 19.9375H3.87208L3.87207 17.1875H10.7471V19.9375H12.8096V17.1875H19.6846V19.9375H16.6768H20.3192C20.3484 19.9375 20.3721 19.9138 20.3721 19.8846V2.11538C20.3721 2.08618 20.3484 2.0625 20.3192 2.0625H2.54995ZM1.12207 2.11538C1.12207 1.32679 1.76136 0.6875 2.54995 0.6875H20.3192C21.1078 0.6875 21.7471 1.32679 21.7471 2.11538V19.8846C21.7471 20.6732 21.1078 21.3125 20.3192 21.3125H2.54995C1.76136 21.3125 1.12207 20.6732 1.12207 19.8846V2.11538Z" fill="url(#paint0_linear_451_1516)"/>
<path d="M9.41593 3.4375C8.85734 3.4375 8.32157 3.65942 7.92653 4.05444C7.5315 4.44947 7.30957 4.98523 7.30957 5.54388C7.30978 6.01069 7.46508 6.4642 7.75101 6.83318C8.03695 7.20218 8.43735 7.4657 8.88938 7.58237V6.45308C8.72967 6.36089 8.59698 6.22839 8.50458 6.06884C8.41218 5.90928 8.3633 5.72826 8.36275 5.54388C8.36275 5.26456 8.47371 4.99667 8.67123 4.79916C8.86875 4.60165 9.1366 4.49069 9.41593 4.49069C9.55426 4.49069 9.69121 4.51792 9.81901 4.57085C9.94675 4.62378 10.0629 4.70135 10.1607 4.79915C10.2585 4.89695 10.3361 5.01306 10.389 5.14084C10.4419 5.26862 10.4692 5.40558 10.4692 5.54388C10.4688 5.59138 10.4653 5.63879 10.4586 5.68582L11.3473 6.37698C11.4616 6.11407 11.5211 5.83058 11.5221 5.54388C11.5221 5.26727 11.4676 4.99335 11.3618 4.73779C11.2559 4.48223 11.1007 4.25004 10.9051 4.05444C10.7095 3.85885 10.4774 3.70369 10.2218 3.59783C9.96621 3.49198 9.69251 3.4375 9.41593 3.4375ZM9.41593 5.54388L9.42226 15.8125L12.5757 11.5997H17.315L9.41593 5.54388Z" fill="url(#paint1_linear_451_1516)"/>
<defs>
<linearGradient id="paint0_linear_451_1516" x1="11.4346" y1="21.3125" x2="11.4346" y2="0.6875" gradientUnits="userSpaceOnUse">
<stop stop-color="#5570FF"/>
<stop offset="1" stop-color="#4DD3FF"/>
</linearGradient>
<linearGradient id="paint1_linear_451_1516" x1="12.3123" y1="15.8125" x2="12.3123" y2="3.4375" gradientUnits="userSpaceOnUse">
<stop stop-color="#FDA700"/>
<stop offset="1" stop-color="#FFDE00"/>
</linearGradient>
</defs>
</svg>
