<svg width="23" height="22" viewBox="0 0 23 22" fill="none" xmlns="http://www.w3.org/2000/svg">
<g clip-path="url(#clip0_451_1509)">
<path fill-rule="evenodd" clip-rule="evenodd" d="M2.16812 2.0625C2.13891 2.0625 2.11523 2.08618 2.11523 2.11538V19.8846C2.11523 19.9138 2.13891 19.9375 2.16812 19.9375H3.49024L3.49023 17.1875H10.3652V19.9375H12.4277V17.1875H19.3027V19.9375H16.2949H19.9374C19.9666 19.9375 19.9902 19.9138 19.9902 19.8846V2.11538C19.9902 2.08618 19.9666 2.0625 19.9374 2.0625H2.16812ZM0.740234 2.11538C0.740234 1.32679 1.37952 0.6875 2.16812 0.6875H19.9374C20.7259 0.6875 21.3652 1.32679 21.3652 2.11538V19.8846C21.3652 20.6732 20.7259 21.3125 19.9374 21.3125H2.16812C1.37952 21.3125 0.740234 20.6732 0.740234 19.8846V2.11538Z" fill="url(#paint0_linear_451_1509)"/>
<path d="M9.0341 3.4375C8.4755 3.4375 7.93973 3.65942 7.5447 4.05444C7.14966 4.44947 6.92773 4.98523 6.92773 5.54388C6.92794 6.01069 7.08325 6.4642 7.36918 6.83318C7.65511 7.20218 8.05551 7.4657 8.50754 7.58237V6.45308C8.34783 6.36089 8.21515 6.22839 8.12275 6.06884C8.03035 5.90928 7.98147 5.72826 7.98092 5.54388C7.98092 5.26456 8.09188 4.99667 8.2894 4.79916C8.48692 4.60165 8.75477 4.49069 9.0341 4.49069C9.17242 4.49069 9.30937 4.51792 9.43718 4.57085C9.56492 4.62378 9.68103 4.70135 9.77887 4.79915C9.87663 4.89695 9.95425 5.01306 10.0071 5.14084C10.0601 5.26862 10.0873 5.40558 10.0873 5.54388C10.087 5.59138 10.0835 5.63879 10.0768 5.68582L10.9654 6.37698C11.0798 6.11407 11.1393 5.83058 11.1403 5.54388C11.1403 5.26727 11.0858 4.99335 10.9799 4.73779C10.8741 4.48223 10.7189 4.25004 10.5233 4.05444C10.3277 3.85885 10.0955 3.70369 9.83998 3.59783C9.58437 3.49198 9.31068 3.4375 9.0341 3.4375ZM9.0341 5.54388L9.04042 15.8125L12.1938 11.5997H16.9332L9.0341 5.54388Z" fill="url(#paint1_linear_451_1509)"/>
</g>
<defs>
<linearGradient id="paint0_linear_451_1509" x1="11.0527" y1="21.3125" x2="11.0527" y2="0.6875" gradientUnits="userSpaceOnUse">
<stop stop-color="#5570FF"/>
<stop offset="1" stop-color="#4DD3FF"/>
</linearGradient>
<linearGradient id="paint1_linear_451_1509" x1="11.9305" y1="15.8125" x2="11.9305" y2="3.4375" gradientUnits="userSpaceOnUse">
<stop stop-color="#FDA700"/>
<stop offset="1" stop-color="#FFDE00"/>
</linearGradient>
<clipPath id="clip0_451_1509">
<rect width="22" height="22" fill="white" transform="translate(0.0527344)"/>
</clipPath>
</defs>
</svg>
