<svg width="23" height="22" viewBox="0 0 23 22" fill="none" xmlns="http://www.w3.org/2000/svg">
<path d="M18.9035 3.78474C18.844 3.46701 18.5327 3.26107 18.2211 3.31985C18.0637 3.34952 17.9052 3.36719 17.7454 3.36719C16.5133 3.36719 15.2025 2.337 15.1899 2.32672C15.1238 2.27422 13.5516 1.03125 11.8529 1.03125H11.8518C9.9477 1.06148 8.39953 2.71516 8.39953 4.71854V5.8406C5.77818 6.13551 3.72656 8.33975 3.72656 11.0387V15.7116C3.72656 18.6105 6.08474 20.9688 8.98367 20.9688C11.8826 20.9688 14.2408 18.6105 14.2408 15.7116V11.0387C14.2408 8.33975 12.1891 6.13551 9.56779 5.8406V4.71854C9.56779 3.34952 10.6003 2.21947 11.9043 2.19895C13.1364 2.19895 14.4473 3.22915 14.4598 3.23941C14.526 3.29192 16.0992 4.53544 17.7454 4.53544C17.9783 4.53544 18.2098 4.51091 18.438 4.46756C18.7551 4.40763 18.964 4.1019 18.9035 3.78474ZM8.98367 9.28625C9.3054 9.28625 9.56779 9.5481 9.56779 9.87039V11.0386C9.56779 11.3609 9.3054 11.6227 8.98367 11.6227C8.66192 11.6227 8.39953 11.3609 8.39953 11.0386V9.87039C8.39953 9.5481 8.66192 9.28625 8.98367 9.28625ZM13.0725 11.0386V15.7116C13.0725 17.9659 11.238 19.8005 8.98367 19.8005C6.7293 19.8005 4.89481 17.9659 4.89481 15.7116V11.0386C4.89481 8.98432 6.42326 7.29529 8.39953 7.0088V8.22563C7.72109 8.46756 7.2313 9.10986 7.2313 9.87039V11.0386C7.2313 12.0049 8.01737 12.791 8.98367 12.791C9.94997 12.791 10.736 12.0049 10.736 11.0386V9.87039C10.736 9.10986 10.2462 8.46756 9.56779 8.22563V7.0088C11.544 7.29535 13.0725 8.98432 13.0725 11.0386Z" fill="url(#paint0_linear_451_1476)" stroke="url(#paint1_linear_451_1476)" stroke-width="0.6"/>
<defs>
<linearGradient id="paint0_linear_451_1476" x1="11.3202" y1="20.9688" x2="11.3202" y2="1.03125" gradientUnits="userSpaceOnUse">
<stop stop-color="#FD3D00"/>
<stop offset="1" stop-color="#FAFF00"/>
</linearGradient>
<linearGradient id="paint1_linear_451_1476" x1="11.3202" y1="20.9688" x2="11.3202" y2="1.03125" gradientUnits="userSpaceOnUse">
<stop stop-color="#FD3D00"/>
<stop offset="1" stop-color="#FAFF00"/>
</linearGradient>
</defs>
</svg>
