<svg width="23" height="22" viewBox="0 0 23 22" fill="none" xmlns="http://www.w3.org/2000/svg">
<path fill-rule="evenodd" clip-rule="evenodd" d="M19.2237 14.5461C19.2237 13.9868 19.6776 13.5329 20.2368 13.5329C20.7961 13.5329 21.25 13.9868 21.25 14.5461V18.0921C21.25 19.4902 20.1152 20.625 18.7171 20.625H4.53289C3.13474 20.625 2 19.4902 2 18.0921V3.90789C2 2.50974 3.13474 1.375 4.53289 1.375H18.7171C20.1152 1.375 21.25 2.50974 21.25 3.90789V7.45394C21.25 8.01323 20.7961 8.46711 20.2368 8.46711C19.6776 8.46711 19.2237 8.01323 19.2237 7.45394V4.92106C19.2237 4.08217 18.5428 3.40132 17.7039 3.40132H5.54606C4.70717 3.40132 4.02632 4.08217 4.02632 4.92106V17.0789C4.02632 17.9178 4.70717 18.5987 5.54606 18.5987H17.7039C18.5428 18.5987 19.2237 17.9178 19.2237 17.0789V14.5461ZM15.9557 10.6525C15.938 10.2087 16.284 9.83538 16.7278 9.81915C17.172 9.80348 17.5469 10.1505 17.5646 10.5948L17.5773 10.9676C17.5773 10.9808 17.5773 10.9873 17.5773 11C17.5773 12.5765 16.9466 14.0952 15.8337 15.2087C14.7202 16.3216 13.2015 16.9523 11.625 16.9523C10.0485 16.9523 8.52981 16.3216 7.41633 15.2087C6.30337 14.0952 5.67269 12.5765 5.67269 11C5.67269 9.42353 6.30337 7.90481 7.41633 6.79133C8.52981 5.67837 10.0485 5.04769 11.625 5.04769C13.2851 5.04769 14.8681 5.74272 15.9942 6.95901C16.2961 7.28575 16.2759 7.79587 15.9492 8.09782C15.6224 8.39974 15.1123 8.37946 14.8104 8.05272C13.9933 7.16468 12.8347 6.65658 11.625 6.65658C10.473 6.65658 9.36615 7.11353 8.55562 7.93062C7.73853 8.74115 7.28158 9.84802 7.28158 11C7.28158 12.152 7.73853 13.2589 8.55562 14.0694C9.36615 14.8865 10.473 15.3434 11.625 15.3434C12.777 15.3434 13.8773 14.8865 14.6944 14.0759C15.5054 13.2649 15.9623 12.1646 15.9684 11.0127L15.9557 10.6525ZM10.5176 11C10.5176 10.7067 10.6336 10.424 10.8444 10.2194C11.049 10.0086 11.3317 9.89261 11.625 9.89261C11.9183 9.89261 12.201 10.0086 12.4056 10.2194C12.6164 10.424 12.7324 10.7067 12.7324 11C12.7324 11.2933 12.6164 11.576 12.4056 11.7806C12.201 11.9914 11.9183 12.1074 11.625 12.1074C11.3317 12.1074 11.049 11.9914 10.8444 11.7806C10.6336 11.576 10.5176 11.2933 10.5176 11ZM19.2237 11C19.2237 10.4408 19.6776 9.98683 20.2368 9.98683C20.7961 9.98683 21.25 10.4408 21.25 11C21.25 11.5592 20.7961 12.0132 20.2368 12.0132C19.6776 12.0132 19.2237 11.5592 19.2237 11ZM9.41025 11C9.41025 10.4129 9.64277 9.84854 10.0582 9.43315C10.4735 9.01777 11.0379 8.78525 11.625 8.78525C12.2121 8.78525 12.7765 9.01777 13.1918 9.43315C13.6072 9.84854 13.8397 10.4129 13.8397 11C13.8397 11.5871 13.6072 12.1515 13.1918 12.5668C12.7765 12.9822 12.2121 13.2147 11.625 13.2147C11.0379 13.2147 10.4735 12.9822 10.0582 12.5668C9.64277 12.1515 9.41025 11.5871 9.41025 11ZM17.1974 16.8257C17.1974 16.4062 17.5378 16.0658 17.9573 16.0658C18.3767 16.0658 18.7171 16.4062 18.7171 16.8257C18.7171 17.2451 18.3767 17.5855 17.9573 17.5855C17.5378 17.5855 17.1974 17.2451 17.1974 16.8257ZM4.53289 16.8257C4.53289 16.4062 4.8733 16.0658 5.29275 16.0658C5.71223 16.0658 6.05264 16.4062 6.05264 16.8257C6.05264 17.2451 5.71223 17.5855 5.29275 17.5855C4.8733 17.5855 4.53289 17.2451 4.53289 16.8257Z" fill="url(#paint0_linear_451_1519)"/>
<defs>
<linearGradient id="paint0_linear_451_1519" x1="2" y1="11" x2="21.25" y2="11" gradientUnits="userSpaceOnUse">
<stop stop-color="#5800E2"/>
<stop offset="1" stop-color="#FF00E6"/>
</linearGradient>
</defs>
</svg>
