<svg width="23" height="22" viewBox="0 0 23 22" fill="none" xmlns="http://www.w3.org/2000/svg">
<path fill-rule="evenodd" clip-rule="evenodd" d="M14.2562 2.99264C14.2562 2.78902 14.494 2.67628 14.6535 2.80428L15.248 3.28111L21.3548 8.39365C21.4703 8.49042 21.4703 8.66714 21.3548 8.76389L15.248 13.8764L14.6533 14.352C14.4937 14.4796 14.2562 14.3669 14.2562 14.1635V11.8482C14.2562 11.7144 14.147 11.606 14.0122 11.606H12.0604C11.9256 11.606 11.8164 11.4976 11.8164 11.3638C11.8164 11.4976 11.7071 11.606 11.5724 11.606H8.40056C8.26583 11.606 8.15657 11.4976 8.15657 11.3638V10.3585C8.15657 10.1506 7.91008 10.0394 7.75225 10.176L4.21245 13.2398C4.10092 13.3363 4.10094 13.5084 4.21252 13.6049L7.7523 16.6666C7.91017 16.8031 8.15657 16.6918 8.15657 16.4841V15.4809C8.15657 15.3471 8.26583 15.2388 8.40056 15.2388H12.7923C12.9271 15.2388 13.0363 15.3471 13.0363 15.4809V16.2075C13.0363 16.3412 12.9271 16.4497 12.7923 16.4497H9.6205C9.48575 16.4497 9.3765 16.558 9.3765 16.6918V19.0075C9.3765 19.211 9.13877 19.3237 8.9792 19.1957L8.38592 18.7201L2.2781 13.6075C2.16251 13.5107 2.16251 13.334 2.2781 13.2372L8.38592 8.12469L8.97906 7.64833C9.13859 7.5202 9.3765 7.6329 9.3765 7.83661V8.57878V10.1529C9.3765 10.2867 9.48575 10.3951 9.6205 10.3951H11.5724C11.7071 10.3951 11.8164 10.5035 11.8164 10.6373C11.8164 10.5035 11.9256 10.3951 12.0604 10.3951H15.2322C15.367 10.3951 15.4762 10.5035 15.4762 10.6373V11.6405C15.4762 11.8483 15.7226 11.9596 15.8804 11.823L19.4202 8.76129C19.5319 8.6648 19.5319 8.49272 19.4203 8.39618L15.8806 5.33239C15.7227 5.19578 15.4762 5.30704 15.4762 5.51492V6.52025C15.4762 6.654 15.367 6.76242 15.2322 6.76242H10.8404C10.7057 6.76242 10.5964 6.654 10.5964 6.52025V5.79372C10.5964 5.65996 10.7057 5.55153 10.8404 5.55153H14.0122C14.147 5.55153 14.2562 5.44311 14.2562 5.30936V2.99264Z" fill="url(#paint0_linear_451_1521)"/>
<defs>
<linearGradient id="paint0_linear_451_1521" x1="9.83985" y1="12.6328" x2="13.707" y2="11" gradientUnits="userSpaceOnUse">
<stop stop-color="#FF0061"/>
<stop offset="1" stop-color="#FF3800"/>
</linearGradient>
</defs>
</svg>
