<svg width="22" height="22" viewBox="0 0 22 22" fill="none" xmlns="http://www.w3.org/2000/svg">
<g clip-path="url(#clip0_451_1523)">
<path fill-rule="evenodd" clip-rule="evenodd" d="M13.7566 1.21937C13.7566 0.988144 14.0246 0.860145 14.2044 1.00548L14.8745 1.54693L21.7575 7.35235C21.8877 7.46223 21.8877 7.66291 21.7575 7.77277L14.8745 13.5782L14.2042 14.1183C14.0243 14.2632 13.7566 14.1352 13.7566 13.904V11.2751C13.7566 11.1232 13.6335 11.0001 13.4816 11.0001H11.2816C11.1298 11.0001 11.0066 10.8769 11.0066 10.7251C11.0066 10.8769 10.8835 11.0001 10.7316 11.0001H7.15662C7.00475 11.0001 6.88162 10.8769 6.88162 10.7251V9.58348C6.88162 9.34743 6.6038 9.22107 6.42589 9.37621L2.43615 12.8552C2.31043 12.9649 2.31046 13.1602 2.43622 13.2698L6.42596 16.7464C6.60388 16.9015 6.88162 16.7752 6.88162 16.5391V15.4C6.88162 15.2482 7.00475 15.125 7.15662 15.125H12.1066C12.2585 15.125 12.3816 15.2482 12.3816 15.4V16.225C12.3816 16.377 12.2585 16.5 12.1066 16.5H8.53162C8.37975 16.5 8.25662 16.6232 8.25662 16.775V19.4045C8.25662 19.6357 7.98866 19.7637 7.80881 19.6184L7.14011 19.0782L0.255919 13.2728C0.125631 13.1629 0.125631 12.9622 0.255919 12.8523L7.14011 7.04693L7.80865 6.50601C7.98847 6.36053 8.25662 6.48851 8.25662 6.71981V7.56256V9.35006C8.25662 9.50194 8.37975 9.62506 8.53162 9.62506H10.7316C10.8835 9.62506 11.0066 9.74819 11.0066 9.90006C11.0066 9.74819 11.1298 9.62506 11.2816 9.62506H14.8566C15.0085 9.62506 15.1316 9.74819 15.1316 9.90006V11.0392C15.1316 11.2752 15.4094 11.4015 15.5873 11.2465L19.577 7.76981C19.7028 7.66024 19.7028 7.46485 19.5771 7.35522L15.5874 3.87621C15.4095 3.72107 15.1316 3.84743 15.1316 4.08348V5.22506C15.1316 5.37694 15.0085 5.50006 14.8566 5.50006H9.90662C9.75475 5.50006 9.63162 5.37694 9.63162 5.22506V4.40006C9.63162 4.24819 9.75475 4.12506 9.90662 4.12506H13.4816C13.6335 4.12506 13.7566 4.00194 13.7566 3.85006V1.21937Z" fill="url(#paint0_linear_451_1523)"/>
</g>
<defs>
<linearGradient id="paint0_linear_451_1523" x1="11.0066" y1="19.68" x2="11.0066" y2="0.943848" gradientUnits="userSpaceOnUse">
<stop stop-color="#00B59C"/>
<stop offset="1" stop-color="#9CFFAC"/>
</linearGradient>
<clipPath id="clip0_451_1523">
<rect width="22" height="22" fill="white" transform="translate(0.00683594)"/>
</clipPath>
</defs>
</svg>
