<svg width="23" height="22" viewBox="0 0 23 22" fill="none" xmlns="http://www.w3.org/2000/svg">
<path d="M14.4175 2.80466C14.2579 2.67575 14.0202 2.78932 14.0202 2.99444V5.32733C14.0202 5.46208 13.9109 5.57131 13.7762 5.57131H10.6043C10.4696 5.57131 10.3604 5.68055 10.3604 5.8153V6.54727C10.3604 6.68202 10.4696 6.79124 10.6043 6.79124H14.9961C15.1309 6.79124 15.2401 6.68202 15.2401 6.54727V5.53553C15.2401 5.32613 15.4865 5.21402 15.6444 5.3516L19.1842 8.43722C19.2957 8.53447 19.2957 8.70784 19.1842 8.80507L15.6444 11.8907C15.4865 12.0283 15.2401 11.9162 15.2401 11.7068V10.695C15.2401 10.5603 15.1309 10.451 14.9961 10.451H11.8243C11.6895 10.451 11.5803 10.5603 11.5803 10.695V11.427C11.5803 11.5617 11.6895 11.671 11.8243 11.671H13.7762C13.9109 11.671 14.0202 11.7802 14.0202 11.915V14.2482C14.0202 14.4533 14.2578 14.5669 14.4174 14.4382L15.012 13.9583L21.1186 8.80768C21.2341 8.71019 21.2341 8.53213 21.1186 8.43466L15.0107 3.28395L14.4175 2.80466Z" fill="url(#paint0_linear_451_1530)"/>
<path d="M9.14021 7.87384C9.14021 7.66877 8.90259 7.5552 8.74301 7.68395L8.14841 8.16372L2.04176 13.3144C1.92618 13.4119 1.92619 13.59 2.04177 13.6874L8.14963 18.8381L8.74289 19.3175C8.90246 19.4462 9.14021 19.3328 9.14021 19.1277V16.7948C9.14021 16.66 9.24944 16.5508 9.38419 16.5508H12.556C12.6908 16.5508 12.8 16.4416 12.8 16.3068V15.5748C12.8 15.44 12.6908 15.3308 12.556 15.3308H8.16427C8.0295 15.3308 7.92028 15.44 7.92028 15.5748V16.5865C7.92028 16.796 7.67382 16.9081 7.51597 16.7705L3.97617 13.6849C3.86463 13.5876 3.86463 13.4142 3.97617 13.317L7.51597 10.2314C7.67382 10.0938 7.92028 10.2059 7.92028 10.4153V11.427C7.92028 11.5618 8.0295 11.671 8.16427 11.671H11.3361C11.4708 11.671 11.5801 11.5618 11.5801 11.427V10.6951C11.5801 10.5603 11.4708 10.4511 11.3361 10.4511H9.38419C9.24944 10.4511 9.14021 10.3419 9.14021 10.2071V8.6212V7.87384Z" fill="url(#paint1_linear_451_1530)"/>
<defs>
<linearGradient id="paint0_linear_451_1530" x1="17.6037" y1="8.62115" x2="11.7328" y2="10.0698" gradientUnits="userSpaceOnUse">
<stop stop-color="#FD5900"/>
<stop offset="1" stop-color="#FFDE00"/>
</linearGradient>
<linearGradient id="paint1_linear_451_1530" x1="9.90265" y1="11.4423" x2="6.24286" y2="13.5009" gradientUnits="userSpaceOnUse">
<stop stop-color="#FFD458"/>
<stop offset="1" stop-color="#FFFFD5"/>
</linearGradient>
</defs>
</svg>
