<svg width="23" height="22" viewBox="0 0 23 22" fill="none" xmlns="http://www.w3.org/2000/svg">
<g clip-path="url(#clip0_451_1527)">
<path opacity="0.35" d="M14.5864 1.00632C14.4065 0.861188 14.1387 0.989218 14.1387 1.22034V3.85021C14.1387 4.00209 14.0156 4.12521 13.8637 4.12521H10.2887C10.1368 4.12521 10.0137 4.24834 10.0137 4.40021V5.22521C10.0137 5.37709 10.1368 5.50021 10.2887 5.50021H15.2387C15.3906 5.50021 15.5137 5.37709 15.5137 5.22521V4.08487C15.5137 3.84885 15.7914 3.72249 15.9693 3.87757L19.959 7.35541C20.0849 7.46502 20.0849 7.66042 19.959 7.77002L15.9693 11.2479C15.7914 11.4029 15.5137 11.2766 15.5137 11.0406V9.90021C15.5137 9.74834 15.3906 9.62521 15.2387 9.62521H11.6637C11.5118 9.62521 11.3887 9.74834 11.3887 9.90021V10.7252C11.3887 10.8771 11.5118 11.0002 11.6637 11.0002H13.8637C14.0156 11.0002 14.1387 11.1233 14.1387 11.2752V13.905C14.1387 14.1362 14.4065 14.2642 14.5864 14.1191L15.2565 13.5783L22.1394 7.77292C22.2697 7.66306 22.2697 7.46238 22.1394 7.3525L15.2565 1.54708L14.5864 1.00632Z" fill="url(#paint0_linear_451_1527)"/>
<path d="M8.63849 6.72034C8.63849 6.48922 8.37066 6.36119 8.1908 6.50632L7.52061 7.04708L0.637736 12.8525C0.507465 12.9624 0.507475 13.1631 0.637756 13.2729L7.52199 19.0783L8.19066 19.6186C8.37051 19.7638 8.63849 19.6359 8.63849 19.4046V16.7752C8.63849 16.6233 8.7616 16.5002 8.91349 16.5002H12.4885C12.6404 16.5002 12.7635 16.3772 12.7635 16.2252V15.4002C12.7635 15.2483 12.6404 15.1252 12.4885 15.1252H7.53849C7.3866 15.1252 7.26349 15.2483 7.26349 15.4002V16.5405C7.26349 16.7766 6.98571 16.903 6.80778 16.7479L2.81804 13.27C2.69231 13.1604 2.69231 12.965 2.81804 12.8554L6.80778 9.37757C6.98571 9.22248 7.26349 9.34885 7.26349 9.58486V10.7252C7.26349 10.8771 7.3866 11.0002 7.53849 11.0002H11.1135C11.2654 11.0002 11.3885 10.8771 11.3885 10.7252V9.90021C11.3885 9.74834 11.2654 9.62521 11.1135 9.62521H8.91349C8.7616 9.62521 8.63849 9.50209 8.63849 9.35021V7.56271V6.72034Z" fill="url(#paint1_linear_451_1527)"/>
</g>
<defs>
<linearGradient id="paint0_linear_451_1527" x1="16.2012" y1="14.4803" x2="16.2012" y2="0.64509" gradientUnits="userSpaceOnUse">
<stop stop-color="#C3FFE8"/>
<stop offset="0.9973" stop-color="#F0FFF4"/>
</linearGradient>
<linearGradient id="paint1_linear_451_1527" x1="6.57599" y1="19.9803" x2="6.57599" y2="6.14508" gradientUnits="userSpaceOnUse">
<stop stop-color="#00B59C"/>
<stop offset="1" stop-color="#9CFFAC"/>
</linearGradient>
<clipPath id="clip0_451_1527">
<rect width="22" height="22" fill="white" transform="translate(0.388672)"/>
</clipPath>
</defs>
</svg>
