<svg width="23" height="22" viewBox="0 0 23 22" fill="none" xmlns="http://www.w3.org/2000/svg">
<g clip-path="url(#clip0_451_1525)">
<path opacity="0.35" fill-rule="evenodd" clip-rule="evenodd" d="M13.673 4.11383C13.8249 4.11383 13.948 3.99071 13.948 3.83883V1.20814C13.948 0.976914 14.216 0.848916 14.3959 0.994248L15.0659 1.5357L21.9487 7.34112C22.0791 7.45098 22.0791 7.65166 21.9487 7.76154L15.0659 13.567L14.3956 14.107C14.2156 14.252 13.948 14.1239 13.948 13.8929V11.2638C13.948 11.1119 13.8249 10.9888 13.673 10.9888H11.198H7.34803C7.19615 10.9888 7.07303 10.8657 7.07303 10.7138V9.57225C7.07303 9.3362 6.7952 9.20984 6.6173 9.36498L2.62755 12.844C2.50183 12.9536 2.50187 13.149 2.62762 13.2586L6.61737 16.7353C6.7953 16.8902 7.07303 16.7639 7.07303 16.5279V15.3889C7.07303 15.2369 7.19615 15.1139 7.34803 15.1139H12.298C12.4499 15.1139 12.573 15.2369 12.573 15.3889V16.2139C12.573 16.3657 12.4499 16.4889 12.298 16.4889H8.72303C8.57115 16.4889 8.44803 16.6119 8.44803 16.7639V19.3933C8.44803 19.6244 8.18006 19.7524 8.00022 19.6072L7.33152 19.067L0.447326 13.2615C0.317037 13.1517 0.317037 12.951 0.447326 12.8411L7.33152 7.0357L8.00006 6.49479C8.17987 6.3493 8.44803 6.47727 8.44803 6.70858V7.55133V9.33883C8.44803 9.49071 8.57115 9.61383 8.72303 9.61383H11.198H15.048C15.2 9.61383 15.323 9.73694 15.323 9.88883V11.0279C15.323 11.2639 15.6008 11.3903 15.7787 11.2353L19.7684 7.75858C19.8942 7.64901 19.8942 7.45361 19.7685 7.34399L15.7787 3.86498C15.6009 3.70984 15.323 3.8362 15.323 4.07225V5.21383C15.323 5.36571 15.2 5.48883 15.048 5.48883H10.098C9.94615 5.48883 9.82303 5.36571 9.82303 5.21383V4.38883C9.82303 4.23694 9.94615 4.11383 10.098 4.11383H13.673Z" fill="url(#paint0_linear_451_1525)"/>
</g>
<defs>
<linearGradient id="paint0_linear_451_1525" x1="0.198033" y1="0.632328" x2="0.198033" y2="19.969" gradientUnits="userSpaceOnUse">
<stop stop-color="white"/>
<stop offset="1" stop-color="#B5B5B5"/>
</linearGradient>
<clipPath id="clip0_451_1525">
<rect width="22" height="22" fill="white" transform="translate(0.198242)"/>
</clipPath>
</defs>
</svg>
