<svg width="16" height="16" viewBox="0 0 16 16" fill="none" xmlns="http://www.w3.org/2000/svg">
<path fill-rule="evenodd" clip-rule="evenodd" d="M4.55566 1.6001C2.89881 1.6001 1.55566 2.94325 1.55566 4.6001V9.95576C1.55566 10.0662 1.46612 10.1558 1.35566 10.1558H1C0.447715 10.1558 0 10.6035 0 11.1558V11.4891C0 13.1459 1.34315 14.4891 3 14.4891H13C14.6569 14.4891 16 13.1459 16 11.4891V11.1558C16 10.6035 15.5523 10.1558 15 10.1558H14.6446C14.5341 10.1558 14.4446 10.0662 14.4446 9.95576V4.6001C14.4446 2.94324 13.1014 1.6001 11.4446 1.6001H4.55566ZM3.55566 4.6001C3.55566 4.04781 4.00338 3.6001 4.55566 3.6001H11.4446C11.9968 3.6001 12.4446 4.04781 12.4446 4.6001V9.95565C12.4446 10.0661 12.355 10.1557 12.2446 10.1557H3.75566C3.64521 10.1557 3.55566 10.0661 3.55566 9.95565V4.6001ZM3 12.4891C2.86405 12.4891 2.73444 12.462 2.61629 12.4128C2.45665 12.3464 2.52915 12.1558 2.70204 12.1558H13.298C13.4708 12.1558 13.5434 12.3464 13.3837 12.4128C13.2656 12.462 13.1359 12.4891 13 12.4891H3Z" fill="url(#paint0_linear_576_148)"/>
<defs>
<linearGradient id="paint0_linear_576_148" x1="8" y1="14.4891" x2="8" y2="1.6001" gradientUnits="userSpaceOnUse">
<stop stop-color="#EC396C"/>
<stop offset="1" stop-color="#FF709A"/>
</linearGradient>
</defs>
</svg>
