<svg width="23" height="22" viewBox="0 0 23 22" fill="none" xmlns="http://www.w3.org/2000/svg">
<g clip-path="url(#clip0_451_1553)">
<path d="M17.5879 21.3125V14.9531C17.5879 14.3836 17.1262 13.9219 16.5566 13.9219H7.27539C6.70585 13.9219 6.24414 14.3836 6.24414 14.9531V21.3125" stroke="url(#paint0_linear_451_1553)" stroke-width="2"/>
<path d="M6.58789 19.8803H17.2441L16.6891 21.2678H6.58789V19.8803ZM19.0201 19.8803H20.7963V7.44791C20.7963 7.31842 20.75 7.14034 20.6574 6.91372C20.5649 6.68709 20.4725 6.52752 20.38 6.43502L16.481 2.53605C16.3885 2.44355 16.2312 2.35104 16.0092 2.25854C15.7872 2.16604 15.6069 2.11979 15.4681 2.11979V7.89193C15.4681 8.26193 15.3386 8.57644 15.0796 8.83544C14.8206 9.09446 14.5061 9.22396 14.1361 9.22396H6.14389C5.77387 9.22396 5.45936 9.09446 5.20036 8.83544C4.94135 8.57644 4.81185 8.26193 4.81185 7.89193V2.11979H3.0358V19.8803H4.81185H6.58789C7.08739 19.8803 4.55284 20.5832 4.81185 20.3242C5.07085 20.0652 5.38537 19.9358 5.75536 19.9358H17.2996C17.6697 19.9358 17.9842 20.0652 18.2431 20.3242C18.5021 20.5832 16.6891 19.8803 17.2441 19.8803H19.0201ZM13.6921 7.00391V2.56381C13.6921 2.44355 13.6481 2.33948 13.5602 2.25161C13.4724 2.16373 13.3683 2.11979 13.248 2.11979H10.584C10.4637 2.11979 10.3597 2.16373 10.2718 2.25161C10.1839 2.33948 10.14 2.44355 10.14 2.56381V7.00391C10.14 7.12417 10.1839 7.22822 10.2718 7.3161C10.3597 7.40398 10.4637 7.44791 10.584 7.44791H13.248C13.3683 7.44791 13.4724 7.40398 13.5602 7.3161C13.6481 7.22822 13.6921 7.12417 13.6921 7.00391ZM22.5723 7.44791V20.3242C22.5723 20.6943 22.4428 21.0088 22.1838 21.2678C21.9248 21.5268 21.6103 21.6562 21.2402 21.6562H2.5918C2.22179 21.6562 1.90728 21.5268 1.64828 21.2678C1.38927 21.0088 1.25977 20.6943 1.25977 20.3242V1.67578C1.25977 1.30577 1.38927 0.991265 1.64828 0.73226C1.90728 0.473253 2.22179 0.34375 2.5918 0.34375H15.4681C15.8381 0.34375 16.2451 0.436251 16.6891 0.621256C17.1331 0.80626 17.4846 1.02827 17.7436 1.28727L21.6287 5.17237C21.8877 5.43137 22.1098 5.78287 22.2947 6.22689C22.4798 6.6709 22.5723 7.07792 22.5723 7.44791Z" fill="url(#paint1_linear_451_1553)"/>
</g>
<defs>
<linearGradient id="paint0_linear_451_1553" x1="8.3002" y1="20.4401" x2="14.7498" y2="11.8026" gradientUnits="userSpaceOnUse">
<stop stop-color="#FE0844"/>
<stop offset="1" stop-color="#FEB302"/>
</linearGradient>
<linearGradient id="paint1_linear_451_1553" x1="1.25977" y1="21.6563" x2="26.976" y2="10.4476" gradientUnits="userSpaceOnUse">
<stop stop-color="#0357D1"/>
<stop offset="1" stop-color="#27CDFC"/>
</linearGradient>
<clipPath id="clip0_451_1553">
<rect width="22" height="22" fill="white" transform="translate(0.916016)"/>
</clipPath>
</defs>
</svg>
