<svg width="23" height="22" viewBox="0 0 23 22" fill="none" xmlns="http://www.w3.org/2000/svg">
<path d="M18.2426 20.625H4.70751C4.39606 20.625 4.14355 20.3723 4.14355 20.0611V15.5493C4.14355 15.2379 4.39606 14.9854 4.70751 14.9854H6.39941V13.8574H4.70751C4.39606 13.8574 4.14355 13.6049 4.14355 13.2934V9.83448C4.14355 9.68492 4.20297 9.54143 4.30876 9.43568L6.39941 7.34503V1.93897C6.39941 1.6275 6.65192 1.375 6.96339 1.375H18.2426C18.5542 1.375 18.8066 1.6275 18.8066 1.93897V13.2934C18.8066 13.6049 18.5542 13.8574 18.2426 13.8574H17.6786V14.9854H18.2426C18.5542 14.9854 18.8066 15.2379 18.8066 15.5493V20.0611C18.8066 20.3723 18.5542 20.625 18.2426 20.625Z" stroke="url(#paint0_linear_451_1547)" stroke-width="2" stroke-linecap="round" stroke-linejoin="round"/>
<path d="M9.21923 7.01463C9.53068 7.01463 9.7832 6.76213 9.7832 6.45066V4.19482C9.7832 3.88334 9.53068 3.63086 9.21923 3.63086C8.90778 3.63086 8.65527 3.88334 8.65527 4.19482V6.45066C8.65527 6.76213 8.90778 7.01463 9.21923 7.01463ZM11.4751 7.01463C11.7865 7.01463 12.039 6.76213 12.039 6.45066V4.19482C12.039 3.88334 11.7865 3.63086 11.4751 3.63086C11.1636 3.63086 10.9111 3.88334 10.9111 4.19482V6.45066C10.9111 6.76213 11.1636 7.01463 11.4751 7.01463ZM13.7309 7.01463C14.0424 7.01463 14.2949 6.76213 14.2949 6.45066V4.19482C14.2949 3.88334 14.0424 3.63086 13.7309 3.63086C13.4195 3.63086 13.167 3.88334 13.167 4.19482V6.45066C13.167 6.76213 13.4195 7.01463 13.7309 7.01463ZM15.9868 3.63086C15.6753 3.63086 15.4229 3.88334 15.4229 4.19482V6.45066C15.4229 6.76213 15.6753 7.01463 15.9868 7.01463C16.2983 7.01463 16.5508 6.76213 16.5508 6.45066V4.19482C16.5508 3.88334 16.2983 3.63086 15.9868 3.63086ZM15.9868 17.2411H6.96337C6.6519 17.2411 6.39941 17.4938 6.39941 17.8052C6.39941 18.1166 6.6519 18.3691 6.96337 18.3691H15.9868C16.2983 18.3691 16.5508 18.1166 16.5508 17.8052C16.5508 17.4938 16.2983 17.2411 15.9868 17.2411Z" fill="url(#paint1_linear_451_1547)"/>
<defs>
<linearGradient id="paint0_linear_451_1547" x1="18.8066" y1="11.1689" x2="7.72194" y2="12.1125" gradientUnits="userSpaceOnUse">
<stop stop-color="#BE41B4"/>
<stop offset="1" stop-color="#FE1FE8"/>
</linearGradient>
<linearGradient id="paint1_linear_451_1547" x1="16.5508" y1="11.1293" x2="8.86666" y2="11.7208" gradientUnits="userSpaceOnUse">
<stop stop-color="#BE41B4"/>
<stop offset="1" stop-color="#FE1FE8"/>
</linearGradient>
</defs>
</svg>
