<svg width="23" height="22" viewBox="0 0 23 22" fill="none" xmlns="http://www.w3.org/2000/svg">
<path d="M17.7828 19.5938H5.69788C5.41978 19.5938 5.19434 19.3682 5.19434 19.0903V15.0619C5.19434 14.7838 5.41978 14.5583 5.69788 14.5583H7.2085V13.5513H5.69788C5.41978 13.5513 5.19434 13.3258 5.19434 13.0477V9.95935C5.19434 9.82582 5.24738 9.6977 5.34184 9.60328L7.2085 7.73663V2.90979C7.2085 2.6317 7.43394 2.40625 7.71203 2.40625H17.7828C18.0609 2.40625 18.2864 2.6317 18.2864 2.90979V13.0477C18.2864 13.3258 18.0609 13.5513 17.7828 13.5513H17.2792V14.5583H17.7828C18.0609 14.5583 18.2864 14.7838 18.2864 15.0619V19.0903C18.2864 19.3682 18.0609 19.5938 17.7828 19.5938Z" stroke="url(#paint0_linear_451_1550)" stroke-width="2" stroke-linecap="round" stroke-linejoin="round"/>
<path d="M9.72666 7.44165C10.0048 7.44165 10.2302 7.21618 10.2302 6.93809V4.92394C10.2302 4.64584 10.0048 4.42041 9.72666 4.42041C9.44858 4.42041 9.22314 4.64584 9.22314 4.92394V6.93809C9.22314 7.21618 9.44858 7.44165 9.72666 7.44165ZM11.7408 7.44165C12.0189 7.44165 12.2444 7.21618 12.2444 6.93809V4.92394C12.2444 4.64584 12.0189 4.42041 11.7408 4.42041C11.4627 4.42041 11.2373 4.64584 11.2373 4.92394V6.93809C11.2373 7.21618 11.4627 7.44165 11.7408 7.44165ZM13.755 7.44165C14.0331 7.44165 14.2585 7.21618 14.2585 6.93809V4.92394C14.2585 4.64584 14.0331 4.42041 13.755 4.42041C13.4769 4.42041 13.2515 4.64584 13.2515 4.92394V6.93809C13.2515 7.21618 13.4769 7.44165 13.755 7.44165ZM15.7691 4.42041C15.4911 4.42041 15.2656 4.64584 15.2656 4.92394V6.93809C15.2656 7.21618 15.4911 7.44165 15.7691 7.44165C16.0472 7.44165 16.2727 7.21618 16.2727 6.93809V4.92394C16.2727 4.64584 16.0472 4.42041 15.7691 4.42041ZM15.7691 16.5724H7.71251C7.43442 16.5724 7.20898 16.798 7.20898 17.0761C7.20898 17.3542 7.43442 17.5795 7.71251 17.5795H15.7691C16.0472 17.5795 16.2727 17.3542 16.2727 17.0761C16.2727 16.798 16.0472 16.5724 15.7691 16.5724Z" fill="url(#paint1_linear_451_1550)"/>
<defs>
<linearGradient id="paint0_linear_451_1550" x1="11.7403" y1="19.5938" x2="11.7403" y2="2.40625" gradientUnits="userSpaceOnUse">
<stop stop-color="#FD0000"/>
<stop offset="1" stop-color="#FAFF00"/>
</linearGradient>
<linearGradient id="paint1_linear_451_1550" x1="11.7408" y1="17.5795" x2="11.7408" y2="4.42041" gradientUnits="userSpaceOnUse">
<stop stop-color="#FD5900"/>
<stop offset="1" stop-color="#FFDE00"/>
</linearGradient>
</defs>
</svg>
