<svg width="22" height="22" viewBox="0 0 22 22" fill="none" xmlns="http://www.w3.org/2000/svg">
<path d="M16.3229 21.1777V15.2099C16.3229 14.6755 15.8896 14.2422 15.3552 14.2422H6.64548C6.11101 14.2422 5.67773 14.6755 5.67773 15.2099V21.1777" stroke="url(#paint0_linear_451_1556)" stroke-width="2"/>
<path d="M6 19.8334H16L15.4792 21.1355H6V19.8334ZM17.6666 19.8334H19.3334V8.16666C19.3334 8.04515 19.29 7.87803 19.2031 7.66537C19.1163 7.45269 19.0295 7.30295 18.9427 7.21615L15.2839 3.55729C15.197 3.47048 15.0495 3.38368 14.8411 3.29687C14.6328 3.21006 14.4635 3.16666 14.3333 3.16666V8.58334C14.3333 8.93055 14.2118 9.22569 13.9687 9.46874C13.7257 9.71181 13.4305 9.83334 13.0833 9.83334H5.58334C5.23611 9.83334 4.94097 9.71181 4.69792 9.46874C4.45485 9.22569 4.33334 8.93055 4.33334 8.58334V3.16666H2.66666V19.8334H4.33334H6C6.46874 19.8334 4.09027 20.4931 4.33334 20.25C4.57639 20.0069 4.87153 19.8855 5.21874 19.8855H16.0521C16.3993 19.8855 16.6945 20.0069 16.9374 20.25C17.1805 20.4931 15.4792 19.8334 16 19.8334H17.6666ZM12.6667 7.75V3.58334C12.6667 3.47048 12.6254 3.37282 12.543 3.29037C12.4605 3.2079 12.3629 3.16666 12.25 3.16666H9.75C9.63714 3.16666 9.5395 3.2079 9.45703 3.29037C9.37456 3.37282 9.33334 3.47048 9.33334 3.58334V7.75C9.33334 7.86285 9.37456 7.9605 9.45703 8.04297C9.5395 8.12544 9.63714 8.16666 9.75 8.16666H12.25C12.3629 8.16666 12.4605 8.12544 12.543 8.04297C12.6254 7.9605 12.6667 7.86285 12.6667 7.75ZM21 8.16666V20.25C21 20.5973 20.8785 20.8924 20.6355 21.1355C20.3924 21.3785 20.0973 21.5 19.75 21.5H2.25C1.90278 21.5 1.60764 21.3785 1.36458 21.1355C1.12153 20.8924 1 20.5973 1 20.25V2.75C1 2.40278 1.12153 2.10764 1.36458 1.86458C1.60764 1.62153 1.90278 1.5 2.25 1.5H14.3333C14.6805 1.5 15.0625 1.5868 15.4792 1.76042C15.8958 1.93403 16.2257 2.14236 16.4687 2.38542L20.1145 6.03126C20.3576 6.27431 20.566 6.60416 20.7395 7.02084C20.9132 7.4375 21 7.81945 21 8.16666Z" fill="url(#paint1_linear_451_1556)"/>
<defs>
<linearGradient id="paint0_linear_451_1556" x1="7.60717" y1="20.359" x2="13.6596" y2="12.2535" gradientUnits="userSpaceOnUse">
<stop stop-color="#FE0844"/>
<stop offset="1" stop-color="#FEB302"/>
</linearGradient>
<linearGradient id="paint1_linear_451_1556" x1="1" y1="21.5" x2="25.1326" y2="10.9816" gradientUnits="userSpaceOnUse">
<stop stop-color="#0357D1"/>
<stop offset="1" stop-color="#27CDFC"/>
</linearGradient>
</defs>
</svg>
