<svg width="23" height="22" viewBox="0 0 23 22" fill="none" xmlns="http://www.w3.org/2000/svg">
<path d="M20.6412 4.8125H2.51903C2.20732 4.8125 1.95508 5.06474 1.95508 5.37646V16.6558C1.95508 16.9675 2.20732 17.2198 2.51903 17.2198H20.6412C20.9528 17.2198 21.2051 16.9675 21.2051 16.6558V5.37646C21.2051 5.06474 20.9528 4.8125 20.6412 4.8125ZM7.98093 16.0918L8.5449 14.9639H14.6152L15.1792 16.0918H7.98093ZM20.0772 16.0918H16.4404L15.4684 14.1477C15.3725 13.9565 15.1776 13.8359 14.9639 13.8359H8.19629C7.98258 13.8359 7.78764 13.9565 7.6918 14.1477L6.71975 16.0918H3.08301V5.94043H20.0772V16.0918ZM7.06836 12.708H16.0918C17.6466 12.708 18.9116 11.443 18.9116 9.88818C18.9116 8.33341 17.6466 7.06836 16.0918 7.06836H7.06836C5.51358 7.06836 4.24854 8.33341 4.24854 9.88818C4.24854 11.443 5.51358 12.708 7.06836 12.708ZM16.0918 8.19629C17.0248 8.19629 17.7837 8.95524 17.7837 9.88818C17.7837 10.8211 17.0248 11.5801 16.0918 11.5801C15.1588 11.5801 14.3999 10.8211 14.3999 9.88818C14.3999 8.95524 15.1588 8.19629 16.0918 8.19629ZM9.30982 8.19629H13.8503C13.4925 8.66905 13.272 9.25098 13.272 9.88818C13.272 10.5254 13.4925 11.1073 13.8503 11.5801H9.30982C9.66768 11.1073 9.88818 10.5254 9.88818 9.88818C9.88818 9.25098 9.66768 8.66905 9.30982 8.19629ZM7.06836 8.19629C8.00131 8.19629 8.76026 8.95524 8.76026 9.88818C8.76026 10.8211 8.00131 11.5801 7.06836 11.5801C6.1354 11.5801 5.37646 10.8211 5.37646 9.88818C5.37646 8.95524 6.1354 8.19629 7.06836 8.19629ZM16.0918 10.4521C16.4033 10.4521 16.6558 10.1996 16.6558 9.88818C16.6558 9.57665 16.4033 9.32422 16.0918 9.32422C15.7803 9.32422 15.5278 9.57665 15.5278 9.88818C15.5278 10.1996 15.7803 10.4521 16.0918 10.4521ZM7.06836 10.4521C7.37981 10.4521 7.63232 10.1996 7.63232 9.88818C7.63232 9.57665 7.37981 9.32422 7.06836 9.32422C6.7569 9.32422 6.5044 9.57665 6.5044 9.88818C6.5044 10.1996 6.7569 10.4521 7.06836 10.4521Z" fill="url(#paint0_linear_451_1567)"/>
<defs>
<linearGradient id="paint0_linear_451_1567" x1="11.5801" y1="17.2198" x2="11.5801" y2="4.8125" gradientUnits="userSpaceOnUse">
<stop stop-color="#FD1E00"/>
<stop offset="1" stop-color="#FFF500"/>
</linearGradient>
</defs>
</svg>
