<svg width="23" height="22" viewBox="0 0 23 22" fill="none" xmlns="http://www.w3.org/2000/svg">
<path d="M11.1934 1.89062C6.18996 1.89062 2.08398 5.9966 2.08398 11C2.08398 16.0034 6.18996 20.1094 11.1934 20.1094C16.1968 20.1094 20.3027 16.0034 20.3027 11C20.3027 5.9966 16.1968 1.89062 11.1934 1.89062ZM11.1934 19.0419C6.77844 19.0419 3.1515 15.4149 3.1515 11C3.1515 6.58508 6.77844 2.95814 11.1934 2.95814C15.6083 2.95814 19.2352 6.58508 19.2352 11C19.2352 15.4149 15.6083 19.0419 11.1934 19.0419Z" fill="url(#paint0_linear_451_1559)" stroke="url(#paint1_linear_451_1559)"/>
<path fill-rule="evenodd" clip-rule="evenodd" d="M11.3503 7.03418C9.07726 7.03418 7.22754 8.8839 7.22754 11.1569C7.22754 13.43 9.07726 15.2797 11.3503 15.2797C13.6234 15.2797 15.4731 13.43 15.4731 11.1569C15.4731 8.8839 13.6234 7.03418 11.3503 7.03418ZM11.311 14.0625C9.68733 14.0625 8.36621 12.7414 8.36621 11.1177C8.36621 9.49397 9.68733 8.17285 11.311 8.17285C12.9348 8.17285 14.2559 9.49397 14.2559 11.1177C14.2559 12.7414 12.9348 14.0625 11.311 14.0625Z" fill="url(#paint2_linear_451_1559)"/>
<path fill-rule="evenodd" clip-rule="evenodd" d="M11.3507 9.4292C10.398 9.4292 9.62305 10.2042 9.62305 11.1568C9.62305 12.1095 10.398 12.8845 11.3507 12.8845C12.3033 12.8845 13.0783 12.1095 13.0783 11.1568C13.0783 10.2042 12.3033 9.4292 11.3507 9.4292ZM11.3507 11.7851C11.0041 11.7851 10.7225 11.5034 10.7225 11.1568C10.7225 10.8102 11.0041 10.5286 11.3507 10.5286C11.6973 10.5286 11.9789 10.8102 11.9789 11.1568C11.9789 11.5034 11.6973 11.7851 11.3507 11.7851Z" fill="url(#paint3_linear_451_1559)"/>
<path d="M16.1432 6.27989C16.7932 6.92985 17.3028 7.6856 17.6588 8.5265C17.7853 8.82616 17.6456 9.17186 17.3459 9.29836C17.0475 9.42458 16.7009 9.2861 16.574 8.98546C16.2772 8.28495 15.8522 7.65454 15.3104 7.11274C14.7686 6.57092 14.1382 6.14589 13.4377 5.84908C13.138 5.72257 12.9982 5.37689 13.1248 5.07721C13.2513 4.77641 13.5987 4.63836 13.8966 4.76433C14.7375 5.12037 15.4933 5.62994 16.1432 6.27989Z" fill="url(#paint4_linear_451_1559)"/>
<path d="M7.46338 14.6461C8.0052 15.188 8.63557 15.613 9.33611 15.9098C9.63574 16.0363 9.77551 16.382 9.64901 16.6817C9.52246 16.9816 9.17634 17.1211 8.87716 16.9945C8.03626 16.6385 7.28049 16.1289 6.63056 15.479C5.9806 14.829 5.47099 14.0733 5.11498 13.2324C4.98847 12.9327 5.12822 12.5871 5.42788 12.4605C5.72464 12.3334 6.07319 12.4732 6.19974 12.7734C6.49653 13.4739 6.92158 14.1043 7.46338 14.6461Z" fill="url(#paint5_linear_451_1559)"/>
<defs>
<linearGradient id="paint0_linear_451_1559" x1="3.38532" y1="11" x2="18.1703" y2="9.36617" gradientUnits="userSpaceOnUse">
<stop stop-color="#A000B8"/>
<stop offset="1" stop-color="#FF00D2"/>
</linearGradient>
<linearGradient id="paint1_linear_451_1559" x1="3.38532" y1="11" x2="18.1703" y2="9.36617" gradientUnits="userSpaceOnUse">
<stop stop-color="#A000B8"/>
<stop offset="1" stop-color="#FF00D2"/>
</linearGradient>
<linearGradient id="paint2_linear_451_1559" x1="8.72203" y1="14.3063" x2="16.1576" y2="7.81867" gradientUnits="userSpaceOnUse">
<stop stop-color="#FE0844"/>
<stop offset="1" stop-color="#FEB302"/>
</linearGradient>
<linearGradient id="paint3_linear_451_1559" x1="9.86984" y1="11.1568" x2="12.6739" y2="10.847" gradientUnits="userSpaceOnUse">
<stop stop-color="#A000B8"/>
<stop offset="1" stop-color="#FF00D2"/>
</linearGradient>
<linearGradient id="paint4_linear_451_1559" x1="7.35865" y1="15.5864" x2="18.506" y2="5.61253" gradientUnits="userSpaceOnUse">
<stop stop-color="#FE0844"/>
<stop offset="1" stop-color="#FEB302"/>
</linearGradient>
<linearGradient id="paint5_linear_451_1559" x1="7.35886" y1="15.5864" x2="18.5062" y2="5.61248" gradientUnits="userSpaceOnUse">
<stop stop-color="#FE0844"/>
<stop offset="1" stop-color="#FEB302"/>
</linearGradient>
</defs>
</svg>
