<svg width="23" height="22" viewBox="0 0 23 22" fill="none" xmlns="http://www.w3.org/2000/svg">
<path d="M20.4478 4.8125H2.32568C2.01396 4.8125 1.76172 5.06474 1.76172 5.37646V16.6558C1.76172 16.9675 2.01396 17.2198 2.32568 17.2198H20.4478C20.7594 17.2198 21.0117 16.9675 21.0117 16.6558V5.37646C21.0117 5.06474 20.7594 4.8125 20.4478 4.8125ZM7.78757 16.0918L8.35154 14.9639H14.4219L14.9858 16.0918H7.78757ZM19.8839 16.0918H16.2471L15.275 14.1477C15.1792 13.9565 14.9842 13.8359 14.7705 13.8359H8.00293C7.78922 13.8359 7.59428 13.9565 7.49844 14.1477L6.52639 16.0918H2.88965V5.94043H19.8839V16.0918ZM6.875 12.708H15.8984C17.4532 12.708 18.7182 11.443 18.7182 9.88818C18.7182 8.33341 17.4532 7.06836 15.8984 7.06836H6.875C5.32022 7.06836 4.05518 8.33341 4.05518 9.88818C4.05518 11.443 5.32022 12.708 6.875 12.708ZM15.8984 8.19629C16.8314 8.19629 17.5904 8.95524 17.5904 9.88818C17.5904 10.8211 16.8314 11.5801 15.8984 11.5801C14.9655 11.5801 14.2065 10.8211 14.2065 9.88818C14.2065 8.95524 14.9655 8.19629 15.8984 8.19629ZM9.11646 8.19629H13.657C13.2991 8.66905 13.0786 9.25098 13.0786 9.88818C13.0786 10.5254 13.2991 11.1073 13.657 11.5801H9.11646C9.47432 11.1073 9.69482 10.5254 9.69482 9.88818C9.69482 9.25098 9.47432 8.66905 9.11646 8.19629ZM6.875 8.19629C7.80795 8.19629 8.5669 8.95524 8.5669 9.88818C8.5669 10.8211 7.80795 11.5801 6.875 11.5801C5.94205 11.5801 5.1831 10.8211 5.1831 9.88818C5.1831 8.95524 5.94205 8.19629 6.875 8.19629ZM15.8984 10.4521C16.2099 10.4521 16.4624 10.1996 16.4624 9.88818C16.4624 9.57665 16.2099 9.32422 15.8984 9.32422C15.587 9.32422 15.3345 9.57665 15.3345 9.88818C15.3345 10.1996 15.587 10.4521 15.8984 10.4521ZM6.875 10.4521C7.18645 10.4521 7.43896 10.1996 7.43896 9.88818C7.43896 9.57665 7.18645 9.32422 6.875 9.32422C6.56355 9.32422 6.31104 9.57665 6.31104 9.88818C6.31104 10.1996 6.56355 10.4521 6.875 10.4521Z" fill="url(#paint0_linear_451_1565)"/>
<defs>
<linearGradient id="paint0_linear_451_1565" x1="11.3867" y1="17.2198" x2="11.3867" y2="4.8125" gradientUnits="userSpaceOnUse">
<stop stop-color="#FD1E00"/>
<stop offset="1" stop-color="#FFF500"/>
</linearGradient>
</defs>
</svg>
