<svg width="23" height="22" viewBox="0 0 23 22" fill="none" xmlns="http://www.w3.org/2000/svg">
<path d="M11.7744 16.8438C9.28666 16.8438 7.2627 14.8198 7.2627 12.332V4.51172C7.2627 2.02397 9.28666 0 11.7744 0C14.2622 0 16.2861 2.02397 16.2861 4.51172V12.332C16.2861 14.8198 14.2622 16.8438 11.7744 16.8438Z" fill="url(#paint0_linear_451_1569)"/>
<path d="M18.8643 12.332C18.8643 11.9761 18.5757 11.6875 18.2197 11.6875C17.8638 11.6875 17.5752 11.9761 17.5752 12.332C17.5752 15.5306 14.973 18.1328 11.7744 18.1328C8.57585 18.1328 5.97363 15.5306 5.97363 12.332C5.97363 11.9761 5.68505 11.6875 5.3291 11.6875C4.97315 11.6875 4.68457 11.9761 4.68457 12.332C4.68457 16.0241 7.5215 19.0656 11.1299 19.3923V20.7109H7.90723C7.55127 20.7109 7.2627 20.9995 7.2627 21.3555C7.2627 21.7114 7.55127 22 7.90723 22H15.6416C15.9976 22 16.2861 21.7114 16.2861 21.3555C16.2861 20.9995 15.9976 20.7109 15.6416 20.7109H12.4189V19.3923C16.0273 19.0656 18.8643 16.0241 18.8643 12.332Z" fill="url(#paint1_linear_451_1569)"/>
<defs>
<linearGradient id="paint0_linear_451_1569" x1="11.7744" y1="16.8438" x2="11.7744" y2="0" gradientUnits="userSpaceOnUse">
<stop stop-color="#FD3A84"/>
<stop offset="1" stop-color="#FFA68D"/>
</linearGradient>
<linearGradient id="paint1_linear_451_1569" x1="18.3852" y1="11.9823" x2="15.2582" y2="22.7786" gradientUnits="userSpaceOnUse">
<stop stop-color="#FE0F7C"/>
<stop offset="1" stop-color="#DF0066"/>
</linearGradient>
</defs>
</svg>
