<svg width="16" height="16" viewBox="0 0 16 16" fill="none" xmlns="http://www.w3.org/2000/svg">
<path d="M14.2332 6.66683C14.2332 6.16977 13.8302 5.76683 13.3332 5.76683C12.8361 5.76683 12.4332 6.16977 12.4332 6.66683H14.2332ZM3.5665 6.66683C3.5665 6.16977 3.16356 5.76683 2.6665 5.76683C2.16945 5.76683 1.7665 6.16977 1.7665 6.66683H3.5665ZM7.99984 14.0002H7.09984V14.0162L7.10041 14.0322L7.99984 14.0002ZM6.44822 13.7937C5.96601 13.9143 5.67282 14.4029 5.79338 14.8851C5.91393 15.3673 6.40257 15.6605 6.88479 15.54L6.44822 13.7937ZM7.19139 14.5356L6.9731 13.6625L6.9731 13.6625L7.19139 14.5356ZM8.80829 14.5356L9.02657 13.6625L9.02657 13.6625L8.80829 14.5356ZM9.11489 15.54C9.5971 15.6605 10.0857 15.3673 10.2063 14.8851C10.3269 14.4029 10.0337 13.9143 9.55145 13.7937L9.11489 15.54ZM8.61778 3.47968C8.14623 3.3225 7.63654 3.57734 7.47936 4.04889C7.32217 4.52044 7.57701 5.03012 8.04856 5.18731L8.61778 3.47968ZM8.41231 4.35988L8.1277 5.21369L8.12771 5.21369L8.41231 4.35988ZM10.2749 4.43141L10.4931 5.30454L10.2749 4.43141ZM8.21812 5.46037C7.7359 5.33981 7.24726 5.633 7.12671 6.11521C7.00615 6.59743 7.29934 7.08607 7.78155 7.20662L8.21812 5.46037ZM8.52472 6.46472L8.30644 7.33785L8.30644 7.33785L8.52472 6.46472ZM10.1416 6.46472L10.3599 7.33785L10.3599 7.33785L10.1416 6.46472ZM9.7665 4.00016V6.66683H11.5665V4.00016H9.7665ZM6.23317 6.66683V4.00016H4.43317V6.66683H6.23317ZM7.99984 8.4335C7.02413 8.4335 6.23317 7.64253 6.23317 6.66683H4.43317C4.43317 8.63665 6.03002 10.2335 7.99984 10.2335V8.4335ZM9.7665 6.66683C9.7665 7.64253 8.97554 8.4335 7.99984 8.4335V10.2335C9.96965 10.2335 11.5665 8.63665 11.5665 6.66683H9.7665ZM7.99984 2.2335C8.97554 2.2335 9.7665 3.02446 9.7665 4.00016H11.5665C11.5665 2.03035 9.96965 0.433496 7.99984 0.433496V2.2335ZM7.99984 0.433496C6.03002 0.433496 4.43317 2.03035 4.43317 4.00016H6.23317C6.23317 3.02446 7.02413 2.2335 7.99984 2.2335V0.433496ZM12.4332 6.66683C12.4332 9.11529 10.4483 11.1002 7.99984 11.1002V12.9002C11.4424 12.9002 14.2332 10.1094 14.2332 6.66683H12.4332ZM7.99984 11.1002C5.55137 11.1002 3.5665 9.11529 3.5665 6.66683H1.7665C1.7665 10.1094 4.55726 12.9002 7.99984 12.9002V11.1002ZM7.09984 12.0002V14.0002H8.89984V12.0002H7.09984ZM6.88479 15.54L7.40967 15.4087L6.9731 13.6625L6.44822 13.7937L6.88479 15.54ZM8.59001 15.4087L9.11489 15.54L9.55145 13.7937L9.02657 13.6625L8.59001 15.4087ZM8.04856 5.18731L8.1277 5.21369L8.69692 3.50606L8.61778 3.47968L8.04856 5.18731ZM10.4931 5.30454L10.512 5.29981L10.0755 3.55356L10.0566 3.55828L10.4931 5.30454ZM8.12771 5.21369C8.8915 5.46829 9.71207 5.4998 10.4931 5.30454L10.0566 3.55828C9.60761 3.67052 9.13595 3.65241 8.69692 3.50606L8.12771 5.21369ZM7.78155 7.20662L8.30644 7.33785L8.743 5.59159L8.21812 5.46037L7.78155 7.20662ZM10.3599 7.33785L10.8848 7.20663L10.4482 5.46037L9.92334 5.59159L10.3599 7.33785ZM8.30644 7.33785C8.98055 7.50637 9.68579 7.50637 10.3599 7.33785L9.92334 5.59159C9.53586 5.68846 9.13048 5.68846 8.743 5.59159L8.30644 7.33785ZM9.7665 6.3335V6.66683H11.5665V6.3335H9.7665ZM9.7665 4.71773V6.3335H11.5665V4.71773H9.7665ZM7.40967 15.4087C7.6071 15.3594 7.80917 15.3352 8.01116 15.3361L8.01954 13.5361C7.66814 13.5345 7.31658 13.5766 6.9731 13.6625L7.40967 15.4087ZM8.01116 15.3361C8.2056 15.337 8.39995 15.3612 8.59001 15.4087L9.02657 13.6625C8.69593 13.5798 8.3578 13.5377 8.01954 13.5361L8.01116 15.3361ZM7.10041 14.0322L7.11592 14.4681L8.91478 14.4041L8.89927 13.9682L7.10041 14.0322ZM10.512 5.29981C10.1333 5.39449 9.7665 5.10807 9.7665 4.71773H11.5665C11.5665 3.93704 10.8328 3.36421 10.0755 3.55356L10.512 5.29981Z" fill="url(#paint0_linear_525_612)"/>
<defs>
<linearGradient id="paint0_linear_525_612" x1="2.6665" y1="8.00016" x2="13.3332" y2="8.00016" gradientUnits="userSpaceOnUse">
<stop stop-color="#FFC152"/>
<stop offset="1" stop-color="#FF5F5F"/>
</linearGradient>
</defs>
</svg>
