<svg width="23" height="22" viewBox="0 0 23 22" fill="none" xmlns="http://www.w3.org/2000/svg">
<path d="M10.9237 14.0965H11.2602C13.112 14.0965 14.6831 12.9105 15.236 11.266C15.3161 11.0266 15.1324 10.7799 14.8779 10.7799H13.8411C13.511 10.7799 13.2443 10.5165 13.2443 10.1914C13.2443 9.86549 13.511 9.60121 13.8411 9.60121H14.8462C15.1791 9.60121 15.4485 9.33515 15.4485 9.00639C15.4485 8.67769 15.1791 8.41156 14.8462 8.41156H13.8411C13.511 8.41156 13.2443 8.14736 13.2443 7.82231C13.2443 7.49636 13.511 7.23209 13.8411 7.23209H14.8462C15.1791 7.23209 15.4485 6.96596 15.4485 6.63726C15.4485 6.30853 15.1791 6.04243 14.8462 6.04243H13.8411C13.511 6.04243 13.2443 5.77817 13.2443 5.45221C13.2443 5.12718 13.511 4.86291 13.8411 4.86291H14.931C15.181 4.86291 15.36 4.62719 15.2928 4.38871C14.7977 2.64936 13.1801 1.375 11.2602 1.375H10.9237C8.61038 1.375 6.73535 3.22576 6.73535 5.51114V9.96036C6.73535 12.2448 8.61038 14.0965 10.9237 14.0965Z" fill="url(#paint0_linear_451_1574)"/>
<path opacity="0.4" d="M18.3412 8.90723C17.8266 8.90723 17.4089 9.31876 17.4089 9.828C17.4089 13.2671 14.5753 16.0653 11.0929 16.0653C7.60944 16.0653 4.77591 13.2671 4.77591 9.828C4.77591 9.31876 4.3582 8.90723 3.84352 8.90723C3.32884 8.90723 2.91113 9.31876 2.91113 9.828C2.91113 13.9715 6.08685 17.3922 10.1605 17.8517V19.7043C10.1605 20.2125 10.5772 20.625 11.0929 20.625C11.6075 20.625 12.0253 20.2125 12.0253 19.7043V17.8517C16.0979 17.3922 19.2736 13.9715 19.2736 9.828C19.2736 9.31876 18.8559 8.90723 18.3412 8.90723Z" fill="url(#paint1_linear_451_1574)"/>
<defs>
<linearGradient id="paint0_linear_451_1574" x1="11.0919" y1="14.0965" x2="11.0919" y2="1.375" gradientUnits="userSpaceOnUse">
<stop stop-color="#5558FF"/>
<stop offset="1" stop-color="#00C0FF"/>
</linearGradient>
<linearGradient id="paint1_linear_451_1574" x1="11.0924" y1="20.625" x2="11.0924" y2="8.90723" gradientUnits="userSpaceOnUse">
<stop stop-color="#5570FF"/>
<stop offset="1" stop-color="#4DD3FF"/>
</linearGradient>
</defs>
</svg>
