<svg width="23" height="22" viewBox="0 0 23 22" fill="none" xmlns="http://www.w3.org/2000/svg">
<path d="M11.564 16.1133C9.38718 16.1133 7.61621 14.3423 7.61621 12.1655V5.32276C7.61621 3.14597 9.38718 1.375 11.564 1.375C13.7408 1.375 15.5117 3.14597 15.5117 5.32276V12.1655C15.5117 14.3423 13.7408 16.1133 11.564 16.1133Z" fill="url(#paint0_linear_451_1580)"/>
<path d="M17.7677 12.1655C17.7677 11.8541 17.5151 11.6016 17.2036 11.6016C16.8921 11.6016 16.6396 11.8541 16.6396 12.1655C16.6396 14.9643 14.3627 17.2411 11.564 17.2411C8.76523 17.2411 6.48828 14.9643 6.48828 12.1655C6.48828 11.8541 6.23578 11.6016 5.92431 11.6016C5.61285 11.6016 5.36035 11.8541 5.36035 12.1655C5.36035 15.3961 7.84267 18.0574 11 18.3434V19.4972H8.18017C7.86871 19.4972 7.61621 19.7496 7.61621 20.0611C7.61621 20.3725 7.86871 20.625 8.18017 20.625H14.9477C15.2592 20.625 15.5117 20.3725 15.5117 20.0611C15.5117 19.7496 15.2592 19.4972 14.9477 19.4972H12.1279V18.3434C15.2853 18.0574 17.7677 15.3961 17.7677 12.1655Z" fill="url(#paint1_linear_451_1580)"/>
<defs>
<linearGradient id="paint0_linear_451_1580" x1="11.564" y1="16.1133" x2="11.564" y2="1.375" gradientUnits="userSpaceOnUse">
<stop stop-color="#FF0061"/>
<stop offset="1" stop-color="#FFED8D"/>
</linearGradient>
<linearGradient id="paint1_linear_451_1580" x1="17.3484" y1="11.8595" x2="14.6123" y2="21.3063" gradientUnits="userSpaceOnUse">
<stop stop-color="#FE0F7C"/>
<stop offset="0.0001" stop-color="#E30068"/>
<stop offset="1" stop-color="#D20060"/>
</linearGradient>
</defs>
</svg>
