<svg width="23" height="22" viewBox="0 0 23 22" fill="none" xmlns="http://www.w3.org/2000/svg">
<path d="M11.3706 16.1133C9.19382 16.1133 7.42285 14.3423 7.42285 12.1655V5.32276C7.42285 3.14597 9.19382 1.375 11.3706 1.375C13.5474 1.375 15.3184 3.14597 15.3184 5.32276V12.1655C15.3184 14.3423 13.5474 16.1133 11.3706 16.1133Z" fill="url(#paint0_linear_451_1577)"/>
<path d="M17.5743 12.1655C17.5743 11.8541 17.3217 11.6016 17.0102 11.6016C16.6988 11.6016 16.4463 11.8541 16.4463 12.1655C16.4463 14.9643 14.1693 17.2411 11.3706 17.2411C8.57187 17.2411 6.29492 14.9643 6.29492 12.1655C6.29492 11.8541 6.04242 11.6016 5.73095 11.6016C5.41949 11.6016 5.16699 11.8541 5.16699 12.1655C5.16699 15.3961 7.64931 18.0574 10.8066 18.3434V19.4972H7.98681C7.67535 19.4972 7.42285 19.7496 7.42285 20.0611C7.42285 20.3725 7.67535 20.625 7.98681 20.625H14.7544C15.0659 20.625 15.3184 20.3725 15.3184 20.0611C15.3184 19.7496 15.0659 19.4972 14.7544 19.4972H11.9346V18.3434C15.0919 18.0574 17.5743 15.3961 17.5743 12.1655Z" fill="url(#paint1_linear_451_1577)"/>
<defs>
<linearGradient id="paint0_linear_451_1577" x1="11.3706" y1="16.1133" x2="11.3706" y2="1.375" gradientUnits="userSpaceOnUse">
<stop stop-color="#FF0061"/>
<stop offset="1" stop-color="#FFED8D"/>
</linearGradient>
<linearGradient id="paint1_linear_451_1577" x1="17.1551" y1="11.8595" x2="14.4189" y2="21.3063" gradientUnits="userSpaceOnUse">
<stop stop-color="#FE0F7C"/>
<stop offset="0.0001" stop-color="#E30068"/>
<stop offset="1" stop-color="#D20060"/>
</linearGradient>
</defs>
</svg>
