<svg width="23" height="22" viewBox="0 0 23 22" fill="none" xmlns="http://www.w3.org/2000/svg">
<path fill-rule="evenodd" clip-rule="evenodd" d="M22 5.55405C22 7.24076 20.6327 8.60812 18.9459 8.60812C17.2593 8.60812 15.8919 7.24076 15.8919 5.55405C15.8919 3.86734 17.2593 2.5 18.9459 2.5C20.6327 2.5 22 3.86734 22 5.55405ZM4.40952 7.56883C4.20336 7.56883 4.03624 7.73595 4.03624 7.9421V16.6971C4.03624 16.9032 3.86911 17.0703 3.66297 17.0703H2.37348C2.16732 17.0703 2.00021 16.9032 2.00021 16.6971V5.91963C1.99474 5.64358 2.09871 5.37658 2.28946 5.17693C2.4802 4.97729 2.7422 4.86124 3.01822 4.85411H14.1823C14.3885 4.85411 14.5542 5.02161 14.5693 5.2273C14.6136 5.83221 14.7662 6.42346 15.019 6.97303C15.142 7.24039 14.9586 7.56883 14.6643 7.56883H4.40952ZM20.5211 9.86594C20.7652 9.82238 21.0032 10.0013 21.0032 10.2493V16.6972C21.0032 16.9033 20.8359 17.0704 20.6299 17.0704H19.3404C19.1342 17.0704 18.9672 16.9033 18.9672 16.6972V10.322C18.9672 10.0943 19.1695 9.9207 19.3968 9.93354C19.7729 9.9548 20.1502 9.93208 20.5211 9.86594ZM2.96308 19.6706C2.49183 19.6706 2.10625 19.2087 2.10625 18.6441C2.10625 18.0795 2.49183 17.6176 2.96308 17.6176H20.0997C20.5709 17.6176 20.9565 18.0795 20.9565 18.6441C20.9565 19.2087 20.5709 19.6706 20.0997 19.6706H2.96308Z" fill="url(#paint0_linear_451_1583)"/>
<defs>
<linearGradient id="paint0_linear_451_1583" x1="2.00293" y1="10.8309" x2="22.0034" y2="10.8309" gradientUnits="userSpaceOnUse">
<stop stop-color="#A93AFF"/>
<stop offset="1" stop-color="#FF81FF"/>
</linearGradient>
</defs>
</svg>
