<svg width="23" height="22" viewBox="0 0 23 22" fill="none" xmlns="http://www.w3.org/2000/svg">
<path d="M20.2725 2.92188H2.52637C2.11103 2.92188 1.77441 3.25849 1.77441 3.67383V15.5046C1.77441 15.704 1.85357 15.8953 1.99457 16.0362L4.9523 18.9939C5.09329 19.135 5.28465 19.2142 5.4841 19.2142H17.3147C17.5141 19.2142 17.7057 19.135 17.8464 18.9939L20.8042 16.0362C20.9454 15.8953 21.0244 15.704 21.0244 15.5046V3.67383C21.0244 3.25849 20.6879 2.92188 20.2725 2.92188ZM19.5205 15.1931L17.0034 17.7103H5.79545L3.27832 15.1931V4.42578H19.5205V15.1931ZM6.43109 16.0362C6.57222 16.1773 6.76345 16.2566 6.96289 16.2566H15.8359C16.0354 16.2566 16.2266 16.1773 16.3677 16.0362L17.8464 14.5575C17.9876 14.4165 18.0666 14.2251 18.0666 14.0258V6.63156C18.0666 6.21622 17.7301 5.8796 17.3147 5.8796H5.4841C5.06876 5.8796 4.73214 6.21622 4.73214 6.63156V14.0258C4.73214 14.2251 4.81131 14.4165 4.9523 14.5575L6.43109 16.0362ZM6.23605 7.38351H16.5628V13.7143L15.5244 14.7527H7.2744L6.23605 13.7143V7.38351ZM10.6475 11.0681V9.58928C10.6475 9.17397 10.9841 8.83733 11.3994 8.83733C11.8148 8.83733 12.1514 9.17397 12.1514 9.58928V11.0681C12.1514 11.4834 11.8148 11.82 11.3994 11.82C10.9841 11.82 10.6475 11.4834 10.6475 11.0681ZM13.6052 11.0681V9.58928C13.6052 9.17397 13.9418 8.83733 14.3571 8.83733C14.7725 8.83733 15.1091 9.17397 15.1091 9.58928V11.0681C15.1091 11.4834 14.7725 11.82 14.3571 11.82C13.9418 11.82 13.6052 11.4834 13.6052 11.0681ZM7.68973 11.0681V9.58928C7.68973 9.17397 8.02635 8.83733 8.44169 8.83733C8.85702 8.83733 9.19364 9.17397 9.19364 9.58928V11.0681C9.19364 11.4834 8.85702 11.82 8.44169 11.82C8.02635 11.82 7.68973 11.4834 7.68973 11.0681Z" fill="url(#paint0_linear_451_1610)"/>
<defs>
<linearGradient id="paint0_linear_451_1610" x1="5.89941" y1="12.7188" x2="19.3057" y2="6.27344" gradientUnits="userSpaceOnUse">
<stop stop-color="#8800C8"/>
<stop offset="1" stop-color="#FF4AED"/>
</linearGradient>
</defs>
</svg>
