<svg width="23" height="22" viewBox="0 0 23 22" fill="none" xmlns="http://www.w3.org/2000/svg">
<path d="M2.8745 2.50293H4.56641V20.0611C4.56641 20.3725 4.81887 20.625 5.13036 20.625C5.44187 20.625 5.69434 20.3725 5.69434 20.0611V17.2037H7.38622C7.53587 17.2037 7.67923 17.1443 7.78495 17.0384L8.74783 16.0757H10.574L11.5368 17.0384C11.6426 17.1443 11.7859 17.2037 11.9355 17.2037H20.9966C21.3081 17.2037 21.5605 16.9511 21.5605 16.6396V5.36035C21.5605 5.04885 21.3081 4.79638 20.9966 4.79638H5.69434V1.93896C5.69434 1.62746 5.44187 1.375 5.13036 1.375H2.8745C2.56301 1.375 2.31055 1.62746 2.31055 1.93896C2.31055 2.25046 2.56301 2.50293 2.8745 2.50293ZM5.69434 9.3081H6.82227V12.6919H5.69434V9.3081ZM20.4327 5.92432V16.0757H12.1692L11.2063 15.113C11.1006 15.0071 10.9573 14.9478 10.8076 14.9478H8.51417C8.36452 14.9478 8.22116 15.0071 8.11544 15.113L7.15256 16.0757H5.69434V13.8198H7.38622C7.69773 13.8198 7.9502 13.5673 7.9502 13.2559V8.74414C7.9502 8.43265 7.69773 8.18018 7.38622 8.18018H5.69434V5.92432H20.4327Z" fill="url(#paint0_linear_451_1585)" stroke="url(#paint1_linear_451_1585)" stroke-width="0.6"/>
<path d="M10.8081 10.4361C11.5433 10.4361 12.1702 9.9646 12.4031 9.30811H15.8838V9.87208C15.8838 10.1836 16.1363 10.4361 16.4477 10.4361H17.0117V12.6919H14.6589C14.426 12.0354 13.7992 11.564 13.064 11.564C12.1311 11.564 11.3721 12.323 11.3721 13.2559C11.3721 14.1887 12.1311 14.9478 13.064 14.9478C13.7992 14.9478 14.426 14.4763 14.6589 13.8198H17.5757C17.8872 13.8198 18.1397 13.5674 18.1397 13.2559V10.4361H18.7036C19.015 10.4361 19.2675 10.1836 19.2675 9.87208V7.61622C19.2675 7.30473 19.015 7.05225 18.7036 7.05225H16.4477C16.1363 7.05225 15.8838 7.30473 15.8838 7.61622V8.18019H12.4031C12.1702 7.5237 11.5433 7.05225 10.8081 7.05225C9.87523 7.05225 9.11621 7.81128 9.11621 8.74415C9.11621 9.67702 9.87523 10.4361 10.8081 10.4361ZM13.064 13.8198C12.753 13.8198 12.5 13.5668 12.5 13.2559C12.5 12.9449 12.753 12.6919 13.064 12.6919C13.3749 12.6919 13.6279 12.9449 13.6279 13.2559C13.6279 13.5668 13.3749 13.8198 13.064 13.8198ZM17.0117 8.18019H18.1397V9.30811H17.0117V8.18019ZM10.8081 8.18019C11.119 8.18019 11.3721 8.43321 11.3721 8.74415C11.3721 9.05509 11.119 9.30811 10.8081 9.30811C10.4972 9.30811 10.2441 9.05509 10.2441 8.74415C10.2441 8.43321 10.4972 8.18019 10.8081 8.18019Z" fill="url(#paint2_linear_451_1585)"/>
<defs>
<linearGradient id="paint0_linear_451_1585" x1="2.31055" y1="20.625" x2="25.5383" y2="10.5011" gradientUnits="userSpaceOnUse">
<stop stop-color="#0357D1"/>
<stop offset="1" stop-color="#27CDFC"/>
</linearGradient>
<linearGradient id="paint1_linear_451_1585" x1="2.31055" y1="20.625" x2="25.5383" y2="10.5011" gradientUnits="userSpaceOnUse">
<stop stop-color="#0357D1"/>
<stop offset="1" stop-color="#27CDFC"/>
</linearGradient>
<linearGradient id="paint2_linear_451_1585" x1="9.11621" y1="14.9478" x2="20.2087" y2="8.73174" gradientUnits="userSpaceOnUse">
<stop stop-color="#0357D1"/>
<stop offset="1" stop-color="#27CDFC"/>
</linearGradient>
</defs>
</svg>
