<svg width="23" height="22" viewBox="0 0 23 22" fill="none" xmlns="http://www.w3.org/2000/svg">
<path opacity="0.4" d="M11.9954 7.42501C14.6102 7.42501 16.9797 8.48665 18.6913 10.1993C18.8382 10.3362 18.9561 10.5013 19.0378 10.6847C19.1195 10.8681 19.1635 11.0661 19.167 11.2669C19.1705 11.4676 19.1336 11.6671 19.0584 11.8533C18.9832 12.0395 18.8713 12.2086 18.7293 12.3506C18.5873 12.4926 18.4181 12.6045 18.232 12.6797C18.0458 12.755 17.8464 12.7919 17.6456 12.7883C17.4448 12.7848 17.2468 12.7409 17.0634 12.6591C16.8799 12.5774 16.7149 12.4596 16.578 12.3127C15.9769 11.7099 15.2626 11.232 14.4761 10.9064C13.6897 10.5808 12.8465 10.414 11.9954 10.4156C11.1443 10.4143 10.3013 10.5813 9.51499 10.9071C8.7287 11.2328 8.01455 11.7108 7.41375 12.3136C7.13335 12.5941 6.75303 12.7518 6.35641 12.7519C5.95979 12.752 5.5794 12.5945 5.2989 12.3141C5.01836 12.0338 4.86072 11.6534 4.86061 11.2568C4.86055 10.8602 5.01802 10.4798 5.29838 10.1993C6.17697 9.31862 7.22087 8.62019 8.37013 8.1441C9.51939 7.66804 10.7514 7.42363 11.9954 7.42501ZM11.9954 3.43751C15.7107 3.43751 19.0781 4.94578 21.5115 7.37915C21.6503 7.51803 21.7604 7.68292 21.8355 7.86435C21.9106 8.04582 21.9493 8.24028 21.9492 8.43666C21.9492 8.63305 21.9104 8.82751 21.8353 9.0089C21.7601 9.19034 21.6499 9.35516 21.511 9.494C21.3721 9.63281 21.2072 9.74295 21.0257 9.81806C20.8443 9.89317 20.6498 9.9318 20.4534 9.93174C20.257 9.9317 20.0626 9.89296 19.8812 9.81778C19.6998 9.74257 19.5349 9.6324 19.3961 9.49349C18.4254 8.51999 17.2719 7.748 16.0018 7.22192C14.7317 6.69588 13.3701 6.42607 11.9954 6.42813C9.10441 6.42813 6.48965 7.59846 4.59359 9.49349C4.4563 9.63872 4.29126 9.75498 4.10826 9.83531C3.92526 9.91568 3.72801 9.95855 3.52817 9.96137C3.32832 9.96422 3.12994 9.92692 2.94474 9.85178C2.75954 9.77664 2.59129 9.66509 2.44993 9.52381C2.30857 9.38253 2.19697 9.21433 2.12173 9.02915C2.04648 8.84401 2.00913 8.64563 2.01186 8.44577C2.01459 8.24595 2.05736 8.04867 2.13763 7.86563C2.21791 7.68258 2.33407 7.51751 2.47923 7.38015C3.72759 6.12862 5.2109 5.13605 6.84395 4.45944C8.47704 3.78287 10.2277 3.43557 11.9954 3.43751Z" fill="url(#paint0_linear_451_1616)"/>
<path opacity="0.4" d="M14.0936 11.8288C13.4283 11.5534 12.7153 11.4119 11.9952 11.4126C11.2752 11.412 10.562 11.5535 9.89675 11.8291C9.23146 12.1047 8.62715 12.5089 8.11843 13.0186C7.83803 13.2991 7.68056 13.6795 7.68066 14.0761C7.68077 14.4727 7.83841 14.853 8.11891 15.1334C8.39945 15.4138 8.77984 15.5713 9.17646 15.5712C9.57308 15.5711 9.9534 15.4134 10.2338 15.1329L10.3733 15.0023C10.81 14.6275 11.3752 14.4032 11.9952 14.4032C12.3226 14.4025 12.647 14.4666 12.9494 14.5918C13.2519 14.7171 13.5266 14.901 13.7577 15.1329L13.8714 15.2356C14.1687 15.4786 14.5481 15.5979 14.9309 15.5688C15.3138 15.5398 15.6708 15.3645 15.928 15.0794C16.1852 14.7942 16.3228 14.4211 16.3124 14.0373C16.302 13.6534 16.1443 13.2883 15.8721 13.0176C15.3632 12.5082 14.7589 12.1042 14.0936 11.8288Z" fill="url(#paint1_linear_451_1616)"/>
<path d="M13.0526 15.8379C12.7722 15.5574 12.3919 15.3999 11.9953 15.3999C11.5987 15.3999 11.2184 15.5574 10.9379 15.8379C10.6575 16.1183 10.5 16.4986 10.5 16.8952C10.5 17.2918 10.6575 17.6721 10.9379 17.9526C11.2184 18.233 11.5987 18.3905 11.9953 18.3905C12.3919 18.3905 12.7722 18.233 13.0526 17.9526C13.3331 17.6721 13.4906 17.2918 13.4906 16.8952C13.4906 16.4986 13.3331 16.1183 13.0526 15.8379Z" fill="url(#paint2_linear_451_1616)"/>
<path d="M20.3589 12.1938H18.8555C18.6655 12.1938 18.5117 12.3477 18.5117 12.5376V17.8749C18.5117 18.0649 18.6655 18.2187 18.8555 18.2187H20.3589C20.5486 18.2187 20.7026 18.0649 20.7026 17.8749V12.5376C20.7026 12.3477 20.5486 12.1938 20.3589 12.1938Z" fill="url(#paint3_linear_451_1616)"/>
<path d="M20.7024 9.66446C20.7056 9.81028 20.6797 9.95534 20.6262 10.0911C20.5726 10.2268 20.4925 10.3505 20.3906 10.4549C20.2885 10.5592 20.1666 10.6422 20.0322 10.6987C19.8978 10.7554 19.7533 10.7845 19.6073 10.7846C19.4614 10.7846 19.3171 10.7555 19.1824 10.699C19.048 10.6424 18.9262 10.5595 18.8241 10.4553C18.722 10.3509 18.6419 10.2273 18.5883 10.0916C18.5347 9.95589 18.5087 9.8109 18.512 9.66501C18.5183 9.37874 18.6364 9.10642 18.8411 8.90615C19.0456 8.70602 19.3205 8.59382 19.6068 8.59375C19.8932 8.59368 20.168 8.70574 20.3729 8.90581C20.5776 9.10594 20.6958 9.37819 20.7024 9.66446Z" fill="url(#paint4_linear_451_1616)"/>
<defs>
<linearGradient id="paint0_linear_451_1616" x1="11.9805" y1="12.7886" x2="11.9805" y2="3.43751" gradientUnits="userSpaceOnUse">
<stop stop-color="#02AA93"/>
<stop offset="1" stop-color="#67FF80"/>
</linearGradient>
<linearGradient id="paint1_linear_451_1616" x1="11.9968" y1="15.5731" x2="11.9968" y2="11.4126" gradientUnits="userSpaceOnUse">
<stop stop-color="#02AA93"/>
<stop offset="1" stop-color="#67FF80"/>
</linearGradient>
<linearGradient id="paint2_linear_451_1616" x1="11.9953" y1="18.3905" x2="11.9953" y2="15.3999" gradientUnits="userSpaceOnUse">
<stop stop-color="#02AA93"/>
<stop offset="1" stop-color="#67FF80"/>
</linearGradient>
<linearGradient id="paint3_linear_451_1616" x1="19.6072" y1="18.2187" x2="19.6072" y2="12.1938" gradientUnits="userSpaceOnUse">
<stop stop-color="#02AA93"/>
<stop offset="1" stop-color="#67FF80"/>
</linearGradient>
<linearGradient id="paint4_linear_451_1616" x1="19.6072" y1="10.7846" x2="19.6072" y2="8.59375" gradientUnits="userSpaceOnUse">
<stop stop-color="#02AA93"/>
<stop offset="1" stop-color="#67FF80"/>
</linearGradient>
</defs>
</svg>
