<svg width="23" height="22" viewBox="0 0 23 22" fill="none" xmlns="http://www.w3.org/2000/svg">
<path opacity="0.4" d="M20.0791 2.92188H2.33301C1.91767 2.92188 1.58105 3.25849 1.58105 3.67383V15.5046C1.58105 15.704 1.66022 15.8953 1.80121 16.0362L4.75894 18.9939C4.89993 19.135 5.09129 19.2142 5.29074 19.2142H17.1214C17.3208 19.2142 17.5123 19.135 17.6531 18.9939L20.6109 16.0362C20.752 15.8953 20.8311 15.704 20.8311 15.5046V3.67383C20.8311 3.25849 20.4945 2.92188 20.0791 2.92188Z" fill="url(#paint0_linear_451_1607)"/>
<path fill-rule="evenodd" clip-rule="evenodd" d="M6.76981 16.2563C6.57037 16.2563 6.37914 16.177 6.23801 16.036L4.75922 14.5573C4.61823 14.4163 4.53906 14.2249 4.53906 14.0256V6.63135C4.53906 6.21601 4.87568 5.87939 5.29102 5.87939H17.1217C17.537 5.87939 17.8735 6.21601 17.8735 6.63135V14.0256C17.8735 14.2249 17.7945 14.4163 17.6534 14.5573L16.1747 16.036C16.0335 16.177 15.8423 16.2563 15.6429 16.2563H6.76981ZM16.3697 7.3833H6.04297V13.7141L7.08132 14.7524H15.3314L16.3697 13.7141V7.3833ZM10.4544 11.0679V9.58909C10.4544 9.17377 10.791 8.83714 11.2063 8.83714C11.6217 8.83714 11.9583 9.17377 11.9583 9.58909V11.0679C11.9583 11.4832 11.6217 11.8198 11.2063 11.8198C10.791 11.8198 10.4544 11.4832 10.4544 11.0679ZM13.4121 9.58909V11.0679C13.4121 11.4832 13.7487 11.8198 14.1641 11.8198C14.5794 11.8198 14.916 11.4832 14.916 11.0679V9.58909C14.916 9.17377 14.5794 8.83714 14.1641 8.83714C13.7487 8.83714 13.4121 9.17377 13.4121 9.58909ZM7.49665 11.0679V9.58909C7.49665 9.17377 7.83327 8.83714 8.24861 8.83714C8.66394 8.83714 9.00056 9.17377 9.00056 9.58909V11.0679C9.00056 11.4832 8.66394 11.8198 8.24861 11.8198C7.83327 11.8198 7.49665 11.4832 7.49665 11.0679Z" fill="url(#paint1_linear_451_1607)"/>
<defs>
<linearGradient id="paint0_linear_451_1607" x1="11.2061" y1="19.2143" x2="11.2061" y2="2.92188" gradientUnits="userSpaceOnUse">
<stop stop-color="#00B59C"/>
<stop offset="1" stop-color="#9CFFAC"/>
</linearGradient>
<linearGradient id="paint1_linear_451_1607" x1="11.2063" y1="16.2563" x2="11.2063" y2="5.87939" gradientUnits="userSpaceOnUse">
<stop stop-color="#02AA93"/>
<stop offset="1" stop-color="#67FF80"/>
</linearGradient>
</defs>
</svg>
