<svg width="23" height="22" viewBox="0 0 23 22" fill="none" xmlns="http://www.w3.org/2000/svg">
<g clip-path="url(#clip0_451_1711)">
<path d="M21.1799 7.80416C21.1612 7.78542 21.1413 7.76871 21.1208 7.75294C18.4336 4.9225 14.8095 3.4375 11.0439 3.4375C9.11804 3.4375 7.25758 3.81905 5.5143 4.57149C3.54789 5.42025 2.24511 6.46693 0.907913 7.80416C0.669115 8.04293 0.676157 8.4263 0.907913 8.65807L2.63008 10.3803C2.87456 10.6247 3.27109 10.6132 3.50204 10.3615C5.4547 8.23286 8.13316 7.06058 11.0439 7.06058C13.9546 7.06058 16.6331 8.23286 18.5857 10.3615C18.818 10.6147 19.2147 10.6233 19.4577 10.3803L21.1798 8.65807C21.1855 8.65245 21.1903 8.64639 21.1957 8.64059C21.1994 8.63646 21.2033 8.63242 21.2068 8.62825C21.4147 8.39107 21.4062 8.03039 21.1799 7.80416ZM11.0439 13.099C9.7331 13.099 8.51957 13.6872 7.71443 14.7128C7.52575 14.9531 7.54638 15.2965 7.76242 15.5126L10.6169 18.3671C10.8526 18.6029 11.2352 18.6028 11.4709 18.3671L14.3254 15.5126C14.5414 15.2965 14.5621 14.9531 14.3734 14.7128C13.5683 13.6872 12.3548 13.099 11.0439 13.099ZM11.0439 8.26826C8.4626 8.26826 6.0487 9.32809 4.31244 11.2524C4.09707 11.4911 4.10649 11.8567 4.33378 12.0839L6.03821 13.7884C6.2858 14.0361 6.69035 14.0211 6.91959 13.759C7.95832 12.5721 9.46158 11.8913 11.0439 11.8913C12.6263 11.8913 14.1295 12.5721 15.1683 13.759C15.3979 14.0216 15.8024 14.0357 16.0497 13.7884L17.7541 12.0839C17.9814 11.8567 17.9908 11.4911 17.7754 11.2524C16.0392 9.32821 13.6255 8.26826 11.0439 8.26826Z" fill="url(#paint0_linear_451_1711)"/>
</g>
<defs>
<linearGradient id="paint0_linear_451_1711" x1="10.2208" y1="3.74117" x2="11.6017" y2="18.0229" gradientUnits="userSpaceOnUse">
<stop stop-color="#F70FA8"/>
<stop offset="1" stop-color="#F40631"/>
</linearGradient>
<clipPath id="clip0_451_1711">
<rect width="22" height="22" fill="white" transform="translate(0.0439453)"/>
</clipPath>
</defs>
</svg>
