<svg width="23" height="22" viewBox="0 0 23 22" fill="none" xmlns="http://www.w3.org/2000/svg">
<path d="M20.6602 2.92188H2.91406C2.49873 2.92188 2.16211 3.25849 2.16211 3.67383V15.5046C2.16211 15.704 2.24127 15.8953 2.38226 16.0362L5.33999 18.9939C5.48098 19.135 5.67235 19.2142 5.87179 19.2142H17.7024C17.9018 19.2142 18.0934 19.135 18.2341 18.9939L21.1919 16.0362C21.333 15.8953 21.4121 15.704 21.4121 15.5046V3.67383C21.4121 3.25849 21.0756 2.92188 20.6602 2.92188ZM19.9082 15.1931L17.3911 17.7103H6.18314L3.66602 15.1931V4.42578H19.9082V15.1931ZM6.81879 16.0362C6.95991 16.1773 7.15114 16.2566 7.35059 16.2566H16.2236C16.4231 16.2566 16.6143 16.1773 16.7554 16.0362L18.2341 14.5575C18.3753 14.4165 18.4543 14.2251 18.4543 14.0258V6.63156C18.4543 6.21622 18.1178 5.8796 17.7024 5.8796H5.87179C5.45645 5.8796 5.11984 6.21622 5.11984 6.63156V14.0258C5.11984 14.2251 5.199 14.4165 5.33999 14.5575L6.81879 16.0362ZM6.62374 7.38351H16.9505V13.7143L15.9121 14.7527H7.66209L6.62374 13.7143V7.38351ZM11.0352 11.0681V9.58928C11.0352 9.17397 11.3718 8.83733 11.7871 8.83733C12.2024 8.83733 12.5391 9.17397 12.5391 9.58928V11.0681C12.5391 11.4834 12.2024 11.82 11.7871 11.82C11.3718 11.82 11.0352 11.4834 11.0352 11.0681ZM13.9929 11.0681V9.58928C13.9929 9.17397 14.3295 8.83733 14.7448 8.83733C15.1602 8.83733 15.4968 9.17397 15.4968 9.58928V11.0681C15.4968 11.4834 15.1602 11.82 14.7448 11.82C14.3295 11.82 13.9929 11.4834 13.9929 11.0681ZM8.07743 11.0681V9.58928C8.07743 9.17397 8.41405 8.83733 8.82938 8.83733C9.24472 8.83733 9.58133 9.17397 9.58133 9.58928V11.0681C9.58133 11.4834 9.24472 11.82 8.82938 11.82C8.41405 11.82 8.07743 11.4834 8.07743 11.0681Z" fill="url(#paint0_linear_451_1614)"/>
<defs>
<linearGradient id="paint0_linear_451_1614" x1="6.28711" y1="12.7188" x2="19.6934" y2="6.27344" gradientUnits="userSpaceOnUse">
<stop stop-color="#8800C8"/>
<stop offset="1" stop-color="#FF4AED"/>
</linearGradient>
</defs>
</svg>
