<svg width="23" height="22" viewBox="0 0 23 22" fill="none" xmlns="http://www.w3.org/2000/svg">
<path opacity="0.4" d="M11.1438 7.42501C13.7586 7.42501 16.1281 8.48665 17.8398 10.1993C17.9867 10.3362 18.1045 10.5013 18.1862 10.6847C18.268 10.8681 18.3119 11.0661 18.3154 11.2669C18.319 11.4676 18.2821 11.6671 18.2069 11.8533C18.1316 12.0395 18.0197 12.2086 17.8777 12.3506C17.7357 12.4926 17.5666 12.6045 17.3804 12.6797C17.1942 12.755 16.9948 12.7919 16.794 12.7883C16.5932 12.7848 16.3952 12.7409 16.2118 12.6591C16.0284 12.5774 15.8633 12.4596 15.7264 12.3127C15.1254 11.7099 14.4111 11.232 13.6246 10.9064C12.8381 10.5808 11.995 10.414 11.1438 10.4156C10.2927 10.4143 9.44972 10.5813 8.66343 10.9071C7.87713 11.2328 7.16299 11.7108 6.56219 12.3136C6.28179 12.5941 5.90146 12.7518 5.50485 12.7519C5.10823 12.752 4.72783 12.5945 4.44733 12.3141C4.1668 12.0338 4.00915 11.6534 4.00905 11.2568C4.00898 10.8602 4.16645 10.4798 4.44682 10.1993C5.32541 9.31862 6.36931 8.62019 7.51857 8.1441C8.66783 7.66804 9.89983 7.42363 11.1438 7.42501ZM11.1438 3.43751C14.8591 3.43751 18.2266 4.94578 20.6599 7.37915C20.7987 7.51803 20.9088 7.68292 20.9839 7.86435C21.0591 8.04582 21.0977 8.24028 21.0977 8.43666C21.0976 8.63305 21.0589 8.82751 20.9837 9.0089C20.9085 9.19034 20.7983 9.35516 20.6594 9.494C20.5205 9.63281 20.3556 9.74295 20.1742 9.81806C19.9927 9.89317 19.7982 9.9318 19.6019 9.93174C19.4055 9.9317 19.2111 9.89296 19.0296 9.81778C18.8482 9.74257 18.6834 9.6324 18.5446 9.49349C17.5739 8.51999 16.4203 7.748 15.1502 7.22192C13.8801 6.69588 12.5185 6.42607 11.1438 6.42813C8.25285 6.42813 5.63808 7.59846 3.74203 9.49349C3.60473 9.63872 3.4397 9.75498 3.2567 9.83531C3.0737 9.91568 2.87645 9.95855 2.6766 9.96137C2.47676 9.96422 2.27837 9.92692 2.09318 9.85178C1.90798 9.77664 1.73973 9.66509 1.59837 9.52381C1.45701 9.38253 1.34541 9.21433 1.27017 9.02915C1.19492 8.84401 1.15756 8.64563 1.1603 8.44577C1.16303 8.24595 1.20579 8.04867 1.28607 7.86563C1.36635 7.68258 1.4825 7.51751 1.62767 7.38015C2.87602 6.12862 4.35933 5.13605 5.99239 4.45944C7.62547 3.78287 9.37612 3.43557 11.1438 3.43751Z" fill="url(#paint0_linear_451_1588)"/>
<path opacity="0.4" d="M13.242 11.8288C12.5768 11.5534 11.8637 11.4119 11.1437 11.4126C10.4236 11.412 9.71045 11.5535 9.04519 11.8291C8.3799 12.1047 7.77558 12.5089 7.26687 13.0186C6.98647 13.2991 6.829 13.6795 6.8291 14.0761C6.8292 14.4727 6.98685 14.853 7.26735 15.1334C7.54788 15.4138 7.92828 15.5713 8.3249 15.5712C8.72151 15.5711 9.10184 15.4134 9.3822 15.1329L9.52176 15.0023C9.9584 14.6275 10.5236 14.4032 11.1437 14.4032C11.4711 14.4025 11.7954 14.4666 12.0979 14.5918C12.4004 14.7171 12.6751 14.901 12.9062 15.1329L13.0198 15.2356C13.3171 15.4786 13.6965 15.5979 14.0794 15.5688C14.4622 15.5398 14.8193 15.3645 15.0764 15.0794C15.3336 14.7942 15.4713 14.4211 15.4609 14.0373C15.4505 13.6534 15.2928 13.2883 15.0205 13.0176C14.5116 12.5082 13.9073 12.1042 13.242 11.8288Z" fill="url(#paint1_linear_451_1588)"/>
<path d="M12.2011 15.8379C11.9207 15.5574 11.5403 15.3999 11.1437 15.3999C10.7471 15.3999 10.3668 15.5574 10.0864 15.8379C9.80598 16.1183 9.64844 16.4986 9.64844 16.8952C9.64844 17.2918 9.80598 17.6721 10.0864 17.9526C10.3668 18.233 10.7471 18.3905 11.1437 18.3905C11.5403 18.3905 11.9207 18.233 12.2011 17.9526C12.4815 17.6721 12.639 17.2918 12.639 16.8952C12.639 16.4986 12.4815 16.1183 12.2011 15.8379Z" fill="url(#paint2_linear_451_1588)"/>
<path d="M19.5073 12.1938H18.0039C17.814 12.1938 17.6602 12.3477 17.6602 12.5376V17.8749C17.6602 18.0649 17.814 18.2187 18.0039 18.2187H19.5073C19.6971 18.2187 19.8511 18.0649 19.8511 17.8749V12.5376C19.8511 12.3477 19.6971 12.1938 19.5073 12.1938Z" fill="url(#paint3_linear_451_1588)"/>
<path d="M19.8508 9.66446C19.854 9.81028 19.8281 9.95534 19.7746 10.0911C19.721 10.2268 19.6409 10.3505 19.539 10.4549C19.4369 10.5592 19.315 10.6422 19.1806 10.6987C19.0462 10.7554 18.9017 10.7845 18.7558 10.7846C18.6099 10.7846 18.4655 10.7555 18.3309 10.699C18.1965 10.6424 18.0747 10.5595 17.9726 10.4553C17.8705 10.3509 17.7904 10.2273 17.7367 10.0916C17.6831 9.95589 17.6571 9.8109 17.6604 9.66501C17.6668 9.37874 17.7849 9.10642 17.9895 8.90615C18.1941 8.70602 18.4689 8.59382 18.7553 8.59375C19.0416 8.59368 19.3164 8.70574 19.5213 8.90581C19.726 9.10594 19.8443 9.37819 19.8508 9.66446Z" fill="url(#paint4_linear_451_1588)"/>
<defs>
<linearGradient id="paint0_linear_451_1588" x1="11.1874" y1="14.6935" x2="11.1874" y2="4.33071" gradientUnits="userSpaceOnUse">
<stop stop-color="#FDA700"/>
<stop offset="1" stop-color="#FFDE00"/>
</linearGradient>
<linearGradient id="paint1_linear_451_1588" x1="11.1706" y1="16.4207" x2="11.1706" y2="11.81" gradientUnits="userSpaceOnUse">
<stop stop-color="#FDA700"/>
<stop offset="1" stop-color="#FFDE00"/>
</linearGradient>
<linearGradient id="paint2_linear_451_1588" x1="11.1525" y1="18.9997" x2="11.1525" y2="15.6856" gradientUnits="userSpaceOnUse">
<stop stop-color="#FDA700"/>
<stop offset="1" stop-color="#FFDE00"/>
</linearGradient>
<linearGradient id="paint3_linear_451_1588" x1="18.7557" y1="18.2187" x2="18.7557" y2="8.59368" gradientUnits="userSpaceOnUse">
<stop stop-color="#FDA700"/>
<stop offset="1" stop-color="#FFDE00"/>
</linearGradient>
<linearGradient id="paint4_linear_451_1588" x1="18.7554" y1="18.2187" x2="18.7554" y2="8.59375" gradientUnits="userSpaceOnUse">
<stop stop-color="#FDA700"/>
<stop offset="1" stop-color="#FFDE00"/>
</linearGradient>
</defs>
</svg>
