<svg width="23" height="22" viewBox="0 0 23 22" fill="none" xmlns="http://www.w3.org/2000/svg">
<path d="M21.4084 8.02571C21.3911 8.00823 21.3725 7.99263 21.3532 7.97793C18.8452 5.33621 15.4628 3.9502 11.9482 3.9502C10.1507 3.9502 8.4143 4.3063 6.78723 5.00858C4.95193 5.80077 3.736 6.77766 2.48795 8.02571C2.26507 8.2486 2.27164 8.60641 2.48795 8.82271L4.09531 10.4301C4.32349 10.6583 4.69357 10.6475 4.90914 10.4126C6.73163 8.42587 9.23148 7.33175 11.9482 7.33175C14.6649 7.33175 17.1648 8.42587 18.9872 10.4126C19.2041 10.6489 19.5742 10.657 19.801 10.4301L21.4084 8.82271C21.4137 8.81749 21.4182 8.81182 21.4232 8.8064C21.4266 8.80257 21.4302 8.79881 21.4335 8.79489C21.6276 8.57351 21.6197 8.23686 21.4084 8.02571ZM11.9482 12.9676C10.7248 12.9676 9.59216 13.5166 8.84071 14.4738C8.66459 14.6981 8.68384 15.0186 8.88548 15.2203L11.5497 17.8845C11.7697 18.1046 12.1268 18.1045 12.3467 17.8845L15.0109 15.2203C15.2126 15.0186 15.2318 14.6981 15.0557 14.4738C14.3043 13.5166 13.1716 12.9676 11.9482 12.9676ZM11.9482 8.45892C9.53897 8.45892 7.286 9.44808 5.66551 11.2442C5.4645 11.4669 5.47328 11.8081 5.68543 12.0202L7.27623 13.611C7.5073 13.8422 7.88489 13.8282 8.09886 13.5836C9.06832 12.4758 10.4714 11.8405 11.9482 11.8405C13.4251 11.8405 14.8281 12.4758 15.7976 13.5836C16.0119 13.8287 16.3895 13.8418 16.6203 13.611L18.211 12.0202C18.4231 11.8081 18.4321 11.4669 18.231 11.2442C16.6105 9.44818 14.3577 8.45892 11.9482 8.45892Z" fill="url(#paint0_linear_451_1638)"/>
<defs>
<linearGradient id="paint0_linear_451_1638" x1="11.9482" y1="18.0495" x2="11.9482" y2="3.9502" gradientUnits="userSpaceOnUse">
<stop stop-color="#00FF85"/>
<stop offset="1" stop-color="#FFE600"/>
</linearGradient>
</defs>
</svg>
