<svg width="23" height="22" viewBox="0 0 23 22" fill="none" xmlns="http://www.w3.org/2000/svg">
<path opacity="0.4" fill-rule="evenodd" clip-rule="evenodd" d="M11.7348 3.27725C9.82022 3.27725 7.98411 4.03779 6.63033 5.39157C5.27656 6.74534 4.51602 8.58146 4.51602 10.496V10.7366C4.51602 10.9281 4.43996 11.1117 4.30459 11.247C4.1692 11.3824 3.9856 11.4585 3.79414 11.4585C3.60269 11.4585 3.41908 11.3824 3.28369 11.247C3.14832 11.1117 3.07227 10.9281 3.07227 10.7366V10.496C3.07227 8.19855 3.98492 5.99522 5.60945 4.37068C7.23399 2.74615 9.43732 1.8335 11.7348 1.8335C14.0322 1.8335 16.2355 2.74615 17.8601 4.37068C19.4846 5.99522 20.3973 8.19855 20.3973 10.496V10.7366C20.3973 10.9281 20.3212 11.1117 20.1858 11.247C20.0505 11.3824 19.8669 11.4585 19.6754 11.4585C19.4839 11.4585 19.3003 11.3824 19.165 11.247C19.0296 11.1117 18.9535 10.9281 18.9535 10.7366V10.496C18.9535 8.58146 18.193 6.74534 16.8392 5.39157C15.4854 4.03779 13.6493 3.27725 11.7348 3.27725ZM11.7348 6.16476C10.5861 6.16476 9.48438 6.6211 8.67211 7.43336C7.85984 8.24563 7.40352 9.34732 7.40352 10.496V10.7366C7.40352 10.9281 7.32746 11.1117 7.19209 11.2471C7.0567 11.3825 6.8731 11.4585 6.68164 11.4585C6.49019 11.4585 6.30658 11.3825 6.17119 11.2471C6.03582 11.1117 5.95977 10.9281 5.95977 10.7366V10.496C5.95977 8.96439 6.5682 7.4955 7.65123 6.41248C8.73425 5.32945 10.2031 4.72101 11.7348 4.72101C13.2664 4.72101 14.7353 5.32945 15.8183 6.41248C16.9014 7.4955 17.5098 8.96439 17.5098 10.496V10.7366C17.5098 10.9281 17.4337 11.1117 17.2983 11.2471C17.163 11.3825 16.9794 11.4585 16.7879 11.4585C16.5964 11.4585 16.4128 11.3825 16.2775 11.2471C16.1421 11.1117 16.066 10.9281 16.066 10.7366V10.496C16.066 9.34732 15.6097 8.24563 14.7974 7.43336C13.9852 6.6211 12.8834 6.16476 11.7348 6.16476Z" fill="url(#paint0_linear_451_1594)"/>
<path fill-rule="evenodd" clip-rule="evenodd" d="M9.82535 8.32899C10.3529 7.86437 11.0318 7.60816 11.7348 7.6084C12.4367 7.60998 13.114 7.86711 13.6401 8.3317C14.1662 8.79631 14.5052 9.43661 14.5937 10.1329C14.6821 10.8292 14.514 11.5339 14.1207 12.1153C13.8609 12.4994 13.5146 12.8122 13.1135 13.0314C12.7474 13.2315 12.4566 13.5831 12.4566 14.0003V14.3917C12.4566 14.898 12.867 15.3084 13.3733 15.3084H17.5098C18.2755 15.3084 19.01 15.6127 19.5515 16.1541C20.093 16.6956 20.3973 17.4301 20.3973 18.1959C20.3973 18.9617 20.093 19.6961 19.5515 20.2377C19.01 20.7792 18.2755 21.0834 17.5098 21.0834H5.95977C5.19395 21.0834 4.4595 20.7792 3.91799 20.2377C3.37648 19.6961 3.07227 18.9617 3.07227 18.1959C3.07227 17.4301 3.37648 16.6956 3.91799 16.1541C4.4595 15.6127 5.19395 15.3084 5.95977 15.3084H10.0962C10.6025 15.3084 11.0129 14.898 11.0129 14.3917V14.0022C11.0129 13.5842 10.7209 13.2321 10.3536 13.0322C9.95194 12.8136 9.6048 12.501 9.34424 12.1169C8.94959 11.5351 8.78072 10.8295 8.8693 10.1321C8.95787 9.43468 9.2978 8.7936 9.82535 8.32899ZM10.7139 9.47502C10.4431 9.7458 10.291 10.113 10.291 10.4959C10.291 10.8788 10.4431 11.246 10.7139 11.5168C10.9847 11.7876 11.3519 11.9397 11.7348 11.9397C12.1177 11.9397 12.4849 11.7876 12.7557 11.5168C13.0264 11.246 13.1785 10.8788 13.1785 10.4959C13.1785 10.113 13.0264 9.7458 12.7557 9.47502C12.4849 9.20423 12.1177 9.05215 11.7348 9.05215C11.3519 9.05215 10.9847 9.20423 10.7139 9.47502Z" fill="url(#paint1_linear_451_1594)"/>
<defs>
<linearGradient id="paint0_linear_451_1594" x1="11.7348" y1="21.0835" x2="11.7348" y2="1.8335" gradientUnits="userSpaceOnUse">
<stop stop-color="#A93AFF"/>
<stop offset="1" stop-color="#FF81FF"/>
</linearGradient>
<linearGradient id="paint1_linear_451_1594" x1="11.7348" y1="21.0834" x2="11.7348" y2="1.83341" gradientUnits="userSpaceOnUse">
<stop stop-color="#A93AFF"/>
<stop offset="1" stop-color="#FF81FF"/>
</linearGradient>
</defs>
</svg>
