<svg width="23" height="22" viewBox="0 0 23 22" fill="none" xmlns="http://www.w3.org/2000/svg">
<path d="M20.8743 8.00233C20.8562 7.98423 20.837 7.96806 20.8172 7.95285C18.2195 5.21677 14.7162 3.78125 11.0761 3.78125C9.21446 3.78125 7.41602 4.15008 5.73084 4.87743C3.82999 5.69791 2.57063 6.70971 1.27801 8.00233C1.04717 8.23317 1.05398 8.60377 1.27801 8.82779L2.94277 10.4926C3.1791 10.7289 3.56242 10.7178 3.78566 10.4744C5.67325 8.41677 8.26239 7.28356 11.0761 7.28356C13.8898 7.28356 16.479 8.41677 18.3666 10.4744C18.5911 10.7192 18.9745 10.7276 19.2095 10.4926L20.8743 8.82779C20.8798 8.82238 20.8844 8.8165 20.8895 8.8109C20.8932 8.80693 20.8969 8.80303 20.9002 8.79897C21.1013 8.56969 21.093 8.22102 20.8743 8.00233ZM11.0762 13.1207C9.80902 13.1207 8.63594 13.6893 7.85764 14.6807C7.67525 14.913 7.69518 15.245 7.90403 15.4538L10.6634 18.2133C10.8913 18.4412 11.2611 18.441 11.4889 18.2133L14.2482 15.4538C14.4571 15.245 14.477 14.913 14.2946 14.6807C13.5164 13.6893 12.3433 13.1207 11.0762 13.1207ZM11.0762 8.45101C8.58086 8.45101 6.24743 9.47549 4.56905 11.3357C4.36086 11.5664 4.36997 11.9198 4.58968 12.1395L6.23729 13.7871C6.47663 14.0265 6.86771 14.012 7.08931 13.7587C8.0934 12.6114 9.54654 11.9533 11.0762 11.9533C12.6058 11.9533 14.0589 12.6114 15.063 13.7587C15.285 14.0125 15.676 14.0261 15.9151 13.7871L17.5626 12.1395C17.7824 11.9198 17.7915 11.5664 17.5832 11.3357C15.905 9.47561 13.5716 8.45101 11.0762 8.45101Z" fill="url(#paint0_linear_451_1689)"/>
<path d="M19.9702 12.022H18.4668C18.2769 12.022 18.123 12.1759 18.123 12.3657V17.7031C18.123 17.893 18.2769 18.0469 18.4668 18.0469H19.9702C20.1599 18.0469 20.3139 17.893 20.3139 17.7031V12.3657C20.3139 12.1759 20.1599 12.022 19.9702 12.022Z" fill="url(#paint1_linear_451_1689)"/>
<path d="M20.3137 9.49257C20.317 9.63839 20.291 9.78347 20.2376 9.91925C20.1839 10.055 20.1038 10.1786 20.0019 10.283C19.8998 10.3873 19.778 10.4703 19.6436 10.5269C19.5091 10.5835 19.3646 10.6127 19.2187 10.6127C19.0728 10.6127 18.9284 10.5837 18.7938 10.5271C18.6594 10.4705 18.5375 10.3877 18.4354 10.2834C18.3334 10.1791 18.2533 10.0555 18.1996 9.91973C18.146 9.78402 18.1201 9.63901 18.1233 9.4931C18.1297 9.20685 18.2478 8.93453 18.4525 8.73428C18.657 8.53411 18.9318 8.42194 19.2182 8.42188C19.5045 8.42181 19.7793 8.53383 19.9842 8.73395C20.1889 8.93405 20.3072 9.20631 20.3137 9.49257Z" fill="url(#paint2_linear_451_1689)"/>
<path d="M19.9702 12.022H18.4668C18.2769 12.022 18.123 12.1759 18.123 12.3657V17.7031C18.123 17.893 18.2769 18.0469 18.4668 18.0469H19.9702C20.1599 18.0469 20.3139 17.893 20.3139 17.7031V12.3657C20.3139 12.1759 20.1599 12.022 19.9702 12.022Z" stroke="url(#paint3_linear_451_1689)" stroke-width="0.6"/>
<path d="M20.3137 9.49257C20.317 9.63839 20.291 9.78347 20.2376 9.91925C20.1839 10.055 20.1038 10.1786 20.0019 10.283C19.8998 10.3873 19.778 10.4703 19.6436 10.5269C19.5091 10.5835 19.3646 10.6127 19.2187 10.6127C19.0728 10.6127 18.9284 10.5837 18.7938 10.5271C18.6594 10.4705 18.5375 10.3877 18.4354 10.2834C18.3334 10.1791 18.2533 10.0555 18.1996 9.91973C18.146 9.78402 18.1201 9.63901 18.1233 9.4931C18.1297 9.20685 18.2478 8.93453 18.4525 8.73428C18.657 8.53411 18.9318 8.42194 19.2182 8.42188C19.5045 8.42181 19.7793 8.53383 19.9842 8.73395C20.1889 8.93405 20.3072 9.20631 20.3137 9.49257Z" stroke="url(#paint4_linear_451_1689)" stroke-width="0.6"/>
<defs>
<linearGradient id="paint0_linear_451_1689" x1="1.10742" y1="11.0827" x2="21.0449" y2="11.0827" gradientUnits="userSpaceOnUse">
<stop stop-color="#9EE170"/>
<stop offset="1" stop-color="#E5ECA2"/>
</linearGradient>
<linearGradient id="paint1_linear_451_1689" x1="19.2186" y1="18.0469" x2="19.2186" y2="8.42186" gradientUnits="userSpaceOnUse">
<stop stop-color="#FDA700"/>
<stop offset="1" stop-color="#FFDE00"/>
</linearGradient>
<linearGradient id="paint2_linear_451_1689" x1="19.2183" y1="18.0469" x2="19.2183" y2="8.42188" gradientUnits="userSpaceOnUse">
<stop stop-color="#FDA700"/>
<stop offset="1" stop-color="#FFDE00"/>
</linearGradient>
<linearGradient id="paint3_linear_451_1689" x1="19.2186" y1="18.0469" x2="19.2186" y2="8.42186" gradientUnits="userSpaceOnUse">
<stop stop-color="#FDA700"/>
<stop offset="1" stop-color="#FFDE00"/>
</linearGradient>
<linearGradient id="paint4_linear_451_1689" x1="19.2183" y1="18.0469" x2="19.2183" y2="8.42188" gradientUnits="userSpaceOnUse">
<stop stop-color="#FDA700"/>
<stop offset="1" stop-color="#FFDE00"/>
</linearGradient>
</defs>
</svg>
