<svg width="23" height="22" viewBox="0 0 23 22" fill="none" xmlns="http://www.w3.org/2000/svg">
<path d="M19.8857 2.92188H2.13965C1.72431 2.92188 1.3877 3.25849 1.3877 3.67383V15.5046C1.3877 15.704 1.46686 15.8953 1.60785 16.0362L4.56558 18.9939C4.70657 19.135 4.89793 19.2142 5.09738 19.2142H16.928C17.1274 19.2142 17.319 19.135 17.4597 18.9939L20.4175 16.0362C20.5586 15.8953 20.6377 15.704 20.6377 15.5046V3.67383C20.6377 3.25849 20.3012 2.92188 19.8857 2.92188ZM19.1338 15.1931L16.6167 17.7103H5.40873L2.8916 15.1931V4.42578H19.1338V15.1931ZM6.04437 16.0362C6.1855 16.1773 6.37673 16.2566 6.57617 16.2566H15.4492C15.6487 16.2566 15.8399 16.1773 15.981 16.0362L17.4597 14.5575C17.6008 14.4165 17.6799 14.2251 17.6799 14.0258V6.63156C17.6799 6.21622 17.3434 5.8796 16.928 5.8796H5.09738C4.68204 5.8796 4.34542 6.21622 4.34542 6.63156V14.0258C4.34542 14.2251 4.42459 14.4165 4.56558 14.5575L6.04437 16.0362ZM5.84933 7.38351H16.1761V13.7143L15.1377 14.7527H6.88768L5.84933 13.7143V7.38351ZM10.2607 11.0681V9.58928C10.2607 9.17397 10.5974 8.83733 11.0127 8.83733C11.428 8.83733 11.7646 9.17397 11.7646 9.58928V11.0681C11.7646 11.4834 11.428 11.82 11.0127 11.82C10.5974 11.82 10.2607 11.4834 10.2607 11.0681ZM13.2185 11.0681V9.58928C13.2185 9.17397 13.5551 8.83733 13.9704 8.83733C14.3858 8.83733 14.7224 9.17397 14.7224 9.58928V11.0681C14.7224 11.4834 14.3858 11.82 13.9704 11.82C13.5551 11.82 13.2185 11.4834 13.2185 11.0681ZM7.30301 11.0681V9.58928C7.30301 9.17397 7.63963 8.83733 8.05497 8.83733C8.4703 8.83733 8.80692 9.17397 8.80692 9.58928V11.0681C8.80692 11.4834 8.4703 11.82 8.05497 11.82C7.63963 11.82 7.30301 11.4834 7.30301 11.0681Z" fill="url(#paint0_linear_451_1605)"/>
<defs>
<linearGradient id="paint0_linear_451_1605" x1="5.5127" y1="12.7188" x2="18.9189" y2="6.27344" gradientUnits="userSpaceOnUse">
<stop stop-color="#8800C8"/>
<stop offset="1" stop-color="#FF4AED"/>
</linearGradient>
</defs>
</svg>
