<svg width="23" height="22" viewBox="0 0 23 22" fill="none" xmlns="http://www.w3.org/2000/svg">
<path d="M20.9231 8.02571C20.9057 8.00823 20.8871 7.99263 20.8679 7.97793C18.3599 5.33621 14.9774 3.9502 11.4628 3.9502C9.66537 3.9502 7.92895 4.3063 6.30188 5.00858C4.46658 5.80077 3.25065 6.77766 2.00259 8.02571C1.77971 8.2486 1.78629 8.60641 2.00259 8.82271L3.60996 10.4301C3.83814 10.6583 4.20822 10.6475 4.42378 10.4126C6.24628 8.42587 8.74613 7.33175 11.4628 7.33175C14.1795 7.33175 16.6794 8.42587 18.5019 10.4126C18.7188 10.6489 19.0888 10.657 19.3157 10.4301L20.9231 8.82271C20.9284 8.81749 20.9329 8.81182 20.9378 8.8064C20.9413 8.80257 20.9449 8.79881 20.9482 8.79489C21.1422 8.57351 21.1343 8.23686 20.9231 8.02571ZM11.4629 12.9676C10.2395 12.9676 9.10681 13.5166 8.35536 14.4738C8.17924 14.6981 8.19849 15.0186 8.40013 15.2203L11.0643 17.8845C11.2844 18.1046 11.6414 18.1045 11.8614 17.8845L14.5256 15.2203C14.7272 15.0186 14.7465 14.6981 14.5704 14.4738C13.8189 13.5166 12.6863 12.9676 11.4629 12.9676ZM11.4629 8.45892C9.05362 8.45892 6.80064 9.44808 5.18015 11.2442C4.97915 11.4669 4.98793 11.8081 5.20008 12.0202L6.79088 13.611C7.02195 13.8422 7.39954 13.8282 7.61351 13.5836C8.58297 12.4758 9.986 11.8405 11.4629 11.8405C12.9397 11.8405 14.3428 12.4758 15.3122 13.5836C15.5266 13.8287 15.9041 13.8418 16.1349 13.611L17.7257 12.0202C17.9378 11.8081 17.9467 11.4669 17.7456 11.2442C16.1252 9.44818 13.8723 8.45892 11.4629 8.45892Z" fill="url(#paint0_linear_451_1697)"/>
<defs>
<linearGradient id="paint0_linear_451_1697" x1="11.4629" y1="18.0495" x2="11.291" y2="11.2576" gradientUnits="userSpaceOnUse">
<stop stop-color="#00FF85"/>
<stop offset="1" stop-color="#FFE600"/>
</linearGradient>
</defs>
</svg>
