<svg width="23" height="22" viewBox="0 0 23 22" fill="none" xmlns="http://www.w3.org/2000/svg">
<path d="M20.582 2.92188H2.83594C2.4206 2.92188 2.08398 3.25849 2.08398 3.67383V15.5046C2.08398 15.704 2.16314 15.8953 2.30414 16.0362L5.26187 18.9939C5.40286 19.135 5.59422 19.2142 5.79367 19.2142H17.6243C17.8237 19.2142 18.0153 19.135 18.156 18.9939L21.1138 16.0362C21.2549 15.8953 21.334 15.704 21.334 15.5046V3.67383C21.334 3.25849 20.9975 2.92188 20.582 2.92188ZM19.8301 15.1931L17.313 17.7103H6.10502L3.58789 15.1931V4.42578H19.8301V15.1931ZM6.74066 16.0362C6.88179 16.1773 7.07302 16.2566 7.27246 16.2566H16.1455C16.345 16.2566 16.5362 16.1773 16.6773 16.0362L18.156 14.5575C18.2971 14.4165 18.3762 14.2251 18.3762 14.0258V6.63156C18.3762 6.21622 18.0397 5.8796 17.6243 5.8796H5.79367C5.37833 5.8796 5.04171 6.21622 5.04171 6.63156V14.0258C5.04171 14.2251 5.12088 14.4165 5.26187 14.5575L6.74066 16.0362ZM6.54562 7.38351H16.8723V13.7143L15.834 14.7527H7.58397L6.54562 13.7143V7.38351ZM10.957 11.0681V9.58928C10.957 9.17397 11.2936 8.83733 11.709 8.83733C12.1243 8.83733 12.4609 9.17397 12.4609 9.58928V11.0681C12.4609 11.4834 12.1243 11.82 11.709 11.82C11.2936 11.82 10.957 11.4834 10.957 11.0681ZM13.9148 11.0681V9.58928C13.9148 9.17397 14.2514 8.83733 14.6667 8.83733C15.082 8.83733 15.4187 9.17397 15.4187 9.58928V11.0681C15.4187 11.4834 15.082 11.82 14.6667 11.82C14.2514 11.82 13.9148 11.4834 13.9148 11.0681ZM7.9993 11.0681V9.58928C7.9993 9.17397 8.33592 8.83733 8.75126 8.83733C9.16659 8.83733 9.50321 9.17397 9.50321 9.58928V11.0681C9.50321 11.4834 9.16659 11.82 8.75126 11.82C8.33592 11.82 7.9993 11.4834 7.9993 11.0681Z" fill="url(#paint0_linear_451_1599)"/>
<defs>
<linearGradient id="paint0_linear_451_1599" x1="6.20898" y1="12.7188" x2="19.6152" y2="6.27344" gradientUnits="userSpaceOnUse">
<stop stop-color="#8800C8"/>
<stop offset="1" stop-color="#FF4AED"/>
</linearGradient>
</defs>
</svg>
