<svg width="23" height="22" viewBox="0 0 23 22" fill="none" xmlns="http://www.w3.org/2000/svg">
<path d="M20.9719 8.00233C20.9539 7.98423 20.9346 7.96806 20.9148 7.95285C18.3171 5.21677 14.8139 3.78125 11.1738 3.78125C9.31211 3.78125 7.51368 4.15008 5.8285 4.87743C3.92765 5.69791 2.66828 6.70971 1.37566 8.00233C1.14482 8.23317 1.15163 8.60377 1.37566 8.82779L3.04043 10.4926C3.27676 10.7289 3.66007 10.7178 3.88332 10.4744C5.7709 8.41677 8.36005 7.28356 11.1738 7.28356C13.9875 7.28356 16.5766 8.41677 18.4642 10.4744C18.6887 10.7192 19.0722 10.7276 19.3071 10.4926L20.9719 8.82779C20.9774 8.82238 20.982 8.8165 20.9872 8.8109C20.9908 8.80693 20.9946 8.80303 20.9979 8.79897C21.199 8.56969 21.1907 8.22102 20.9719 8.00233ZM11.1738 13.1207C9.90668 13.1207 8.7336 13.6893 7.9553 14.6807C7.7729 14.913 7.79284 15.245 8.00169 15.4538L10.761 18.2133C10.9889 18.4412 11.3587 18.441 11.5865 18.2133L14.3459 15.4538C14.5547 15.245 14.5747 14.913 14.3923 14.6807C13.614 13.6893 12.4409 13.1207 11.1738 13.1207ZM11.1738 8.45101C8.67851 8.45101 6.34509 9.47549 4.66671 11.3357C4.45852 11.5664 4.46763 11.9198 4.68733 12.1395L6.33495 13.7871C6.57428 14.0265 6.96537 14.012 7.18696 13.7587C8.19106 12.6114 9.64419 11.9533 11.1738 11.9533C12.7034 11.9533 14.1566 12.6114 15.1606 13.7587C15.3827 14.0125 15.7737 14.0261 16.0127 13.7871L17.6602 12.1395C17.88 11.9198 17.8892 11.5664 17.6808 11.3357C16.0026 9.47561 13.6693 8.45101 11.1738 8.45101Z" fill="url(#paint0_linear_451_1622)"/>
<path d="M20.0678 12.022H18.5645C18.3745 12.022 18.2207 12.1759 18.2207 12.3657V17.7031C18.2207 17.893 18.3745 18.0469 18.5645 18.0469H20.0678C20.2576 18.0469 20.4116 17.893 20.4116 17.7031V12.3657C20.4116 12.1759 20.2576 12.022 20.0678 12.022Z" fill="url(#paint1_linear_451_1622)"/>
<path d="M20.4114 9.49257C20.4146 9.63839 20.3887 9.78347 20.3352 9.91925C20.2816 10.055 20.2015 10.1786 20.0996 10.283C19.9975 10.3873 19.8756 10.4703 19.7412 10.5269C19.6068 10.5835 19.4623 10.6127 19.3163 10.6127C19.1704 10.6127 19.026 10.5837 18.8915 10.5271C18.7571 10.4705 18.6352 10.3877 18.5331 10.2834C18.431 10.1791 18.3509 10.0555 18.2973 9.91973C18.2437 9.78402 18.2177 9.63901 18.221 9.4931C18.2273 9.20685 18.3454 8.93453 18.5501 8.73428C18.7546 8.53411 19.0295 8.42194 19.3158 8.42188C19.6022 8.42181 19.877 8.53383 20.0819 8.73395C20.2866 8.93405 20.4048 9.20631 20.4114 9.49257Z" fill="url(#paint2_linear_451_1622)"/>
<path d="M20.0678 12.022H18.5645C18.3745 12.022 18.2207 12.1759 18.2207 12.3657V17.7031C18.2207 17.893 18.3745 18.0469 18.5645 18.0469H20.0678C20.2576 18.0469 20.4116 17.893 20.4116 17.7031V12.3657C20.4116 12.1759 20.2576 12.022 20.0678 12.022Z" stroke="url(#paint3_linear_451_1622)" stroke-width="0.6"/>
<path d="M20.4114 9.49257C20.4146 9.63839 20.3887 9.78347 20.3352 9.91925C20.2816 10.055 20.2015 10.1786 20.0996 10.283C19.9975 10.3873 19.8756 10.4703 19.7412 10.5269C19.6068 10.5835 19.4623 10.6127 19.3163 10.6127C19.1704 10.6127 19.026 10.5837 18.8915 10.5271C18.7571 10.4705 18.6352 10.3877 18.5331 10.2834C18.431 10.1791 18.3509 10.0555 18.2973 9.91973C18.2437 9.78402 18.2177 9.63901 18.221 9.4931C18.2273 9.20685 18.3454 8.93453 18.5501 8.73428C18.7546 8.53411 19.0295 8.42194 19.3158 8.42188C19.6022 8.42181 19.877 8.53383 20.0819 8.73395C20.2866 8.93405 20.4048 9.20631 20.4114 9.49257Z" stroke="url(#paint4_linear_451_1622)" stroke-width="0.6"/>
<defs>
<linearGradient id="paint0_linear_451_1622" x1="11.1738" y1="18.3841" x2="11.1738" y2="3.78125" gradientUnits="userSpaceOnUse">
<stop stop-color="#02AA93"/>
<stop offset="1" stop-color="#67FF80"/>
</linearGradient>
<linearGradient id="paint1_linear_451_1622" x1="19.3162" y1="18.0469" x2="19.3162" y2="8.42186" gradientUnits="userSpaceOnUse">
<stop stop-color="#FDA700"/>
<stop offset="1" stop-color="#FFDE00"/>
</linearGradient>
<linearGradient id="paint2_linear_451_1622" x1="19.316" y1="18.0469" x2="19.316" y2="8.42188" gradientUnits="userSpaceOnUse">
<stop stop-color="#FDA700"/>
<stop offset="1" stop-color="#FFDE00"/>
</linearGradient>
<linearGradient id="paint3_linear_451_1622" x1="19.3162" y1="18.0469" x2="19.3162" y2="8.42186" gradientUnits="userSpaceOnUse">
<stop stop-color="#FDA700"/>
<stop offset="1" stop-color="#FFDE00"/>
</linearGradient>
<linearGradient id="paint4_linear_451_1622" x1="19.316" y1="18.0469" x2="19.316" y2="8.42188" gradientUnits="userSpaceOnUse">
<stop stop-color="#FDA700"/>
<stop offset="1" stop-color="#FFDE00"/>
</linearGradient>
</defs>
</svg>
