<svg width="23" height="22" viewBox="0 0 23 22" fill="none" xmlns="http://www.w3.org/2000/svg">
<path opacity="0.4" d="M11.7043 7.42501C14.3191 7.42501 16.6887 8.48665 18.4003 10.1993C18.5472 10.3362 18.6651 10.5013 18.7468 10.6847C18.8285 10.8681 18.8725 11.0661 18.876 11.2669C18.8795 11.4676 18.8426 11.6671 18.7674 11.8533C18.6922 12.0395 18.5803 12.2086 18.4383 12.3506C18.2963 12.4926 18.1271 12.6045 17.941 12.6797C17.7547 12.755 17.5553 12.7919 17.3546 12.7883C17.1538 12.7848 16.9558 12.7409 16.7723 12.6591C16.5889 12.5774 16.4239 12.4596 16.2869 12.3127C15.6859 11.7099 14.9716 11.232 14.1851 10.9064C13.3986 10.5808 12.5555 10.414 11.7043 10.4156C10.8532 10.4143 10.0103 10.5813 9.22397 10.9071C8.43768 11.2328 7.72354 11.7108 7.12273 12.3136C6.84234 12.5941 6.46201 12.7518 6.06539 12.7519C5.66877 12.752 5.28838 12.5945 5.00788 12.3141C4.72735 12.0338 4.5697 11.6534 4.5696 11.2568C4.56953 10.8602 4.727 10.4798 5.00736 10.1993C5.88596 9.31862 6.92985 8.62019 8.07911 8.1441C9.22837 7.66804 10.4604 7.42363 11.7043 7.42501ZM11.7043 3.43751C15.4197 3.43751 18.7871 4.94578 21.2204 7.37915C21.3593 7.51803 21.4694 7.68292 21.5445 7.86435C21.6196 8.04582 21.6582 8.24028 21.6582 8.43666C21.6582 8.63305 21.6194 8.82751 21.5442 9.0089C21.469 9.19034 21.3589 9.35516 21.22 9.494C21.081 9.63281 20.9162 9.74295 20.7347 9.81806C20.5533 9.89317 20.3588 9.9318 20.1624 9.93174C19.966 9.9317 19.7716 9.89296 19.5902 9.81778C19.4087 9.74257 19.2439 9.6324 19.1051 9.49349C18.1344 8.51999 16.9809 7.748 15.7107 7.22192C14.4407 6.69588 13.0791 6.42607 11.7043 6.42813C8.8134 6.42813 6.19863 7.59846 4.30257 9.49349C4.16528 9.63872 4.00024 9.75498 3.81724 9.83531C3.63425 9.91568 3.437 9.95855 3.23715 9.96137C3.03731 9.96422 2.83892 9.92692 2.65372 9.85178C2.46853 9.77664 2.30027 9.66509 2.15891 9.52381C2.01756 9.38253 1.90596 9.21433 1.83071 9.02915C1.75547 8.84401 1.71811 8.64563 1.72084 8.44577C1.72357 8.24595 1.76634 8.04867 1.84662 7.86563C1.9269 7.68258 2.04305 7.51751 2.18822 7.38015C3.43657 6.12862 4.91988 5.13605 6.55293 4.45944C8.18602 3.78287 9.93667 3.43557 11.7043 3.43751Z" fill="url(#paint0_linear_451_1681)"/>
<path d="M13.8026 11.8288C13.1373 11.5534 12.4242 11.4119 11.7042 11.4126C10.9841 11.412 10.271 11.5535 9.60574 11.8291C8.94044 12.1047 8.33613 12.5089 7.82741 13.0186C7.54702 13.2991 7.38955 13.6795 7.38965 14.0761C7.38975 14.4727 7.5474 14.853 7.8279 15.1334C8.10843 15.4138 8.48882 15.5713 8.88544 15.5712C9.28206 15.5711 9.66239 15.4134 9.94275 15.1329L10.0823 15.0023C10.5189 14.6275 11.0842 14.4032 11.7042 14.4032C12.0316 14.4025 12.3559 14.4666 12.6584 14.5918C12.9609 14.7171 13.2356 14.901 13.4667 15.1329L13.5803 15.2356C13.8777 15.4786 14.2571 15.5979 14.6399 15.5688C15.0228 15.5398 15.3798 15.3645 15.637 15.0794C15.8942 14.7942 16.0318 14.4211 16.0214 14.0373C16.011 13.6534 15.8533 13.2883 15.5811 13.0176C15.0722 12.5082 14.4678 12.1042 13.8026 11.8288Z" fill="url(#paint1_linear_451_1681)"/>
<path d="M12.7616 15.8379C12.4812 15.5574 12.1008 15.3999 11.7043 15.3999C11.3077 15.3999 10.9274 15.5574 10.6469 15.8379C10.3665 16.1183 10.209 16.4986 10.209 16.8952C10.209 17.2918 10.3665 17.6721 10.6469 17.9526C10.9274 18.233 11.3077 18.3905 11.7043 18.3905C12.1008 18.3905 12.4812 18.233 12.7616 17.9526C13.042 17.6721 13.1996 17.2918 13.1996 16.8952C13.1996 16.4986 13.042 16.1183 12.7616 15.8379Z" fill="url(#paint2_linear_451_1681)"/>
<defs>
<linearGradient id="paint0_linear_451_1681" x1="5.33437" y1="11.6846" x2="12.4332" y2="-1.52136" gradientUnits="userSpaceOnUse">
<stop stop-color="#FE0844"/>
<stop offset="1" stop-color="#FEB302"/>
</linearGradient>
<linearGradient id="paint1_linear_451_1681" x1="8.95426" y1="17.5669" x2="15.287" y2="10.7316" gradientUnits="userSpaceOnUse">
<stop stop-color="#FE0844"/>
<stop offset="1" stop-color="#FEB302"/>
</linearGradient>
<linearGradient id="paint2_linear_451_1681" x1="8.9543" y1="17.5667" x2="15.287" y2="10.7314" gradientUnits="userSpaceOnUse">
<stop stop-color="#FE0844"/>
<stop offset="1" stop-color="#FEB302"/>
</linearGradient>
</defs>
</svg>
