<svg width="23" height="22" viewBox="0 0 23 22" fill="none" xmlns="http://www.w3.org/2000/svg">
<path d="M11.4928 1.8335C7.74539 1.8335 4.61287 4.55147 3.58421 8.263C3.52137 8.48971 3.69596 8.7085 3.93121 8.7085H5.48885C5.65172 8.7085 5.79436 8.60076 5.84452 8.4458C6.73098 5.70709 8.63811 4.12516 11.4928 4.12516C14.3475 4.12516 16.2546 5.70709 17.1411 8.4458C17.1913 8.60076 17.3339 8.7085 17.4968 8.7085H19.0544C19.2897 8.7085 19.4642 8.48971 19.4015 8.263C18.3728 4.55147 15.2402 1.8335 11.4928 1.8335ZM11.4928 6.41683C10.1963 6.41683 9.05596 7.1152 8.34395 8.19956C8.19539 8.42581 8.37009 8.7085 8.64074 8.7085H14.3425C14.6137 8.7085 14.7883 8.42475 14.6385 8.19858C13.9263 7.12282 12.7874 6.41683 11.4928 6.41683ZM4.28004 11.0002C3.96501 11.0002 3.79664 11.3712 4.00409 11.6083L11.2169 19.8515C11.3629 20.0184 11.6227 20.0184 11.7687 19.8515L18.9815 11.6083C19.189 11.3712 19.0207 11.0002 18.7056 11.0002H4.28004Z" fill="url(#paint0_linear_451_1659)"/>
<defs>
<linearGradient id="paint0_linear_451_1659" x1="3.47199" y1="20.1668" x2="23.5808" y2="12.4978" gradientUnits="userSpaceOnUse">
<stop stop-color="#0357D1"/>
<stop offset="1" stop-color="#27CDFC"/>
</linearGradient>
</defs>
</svg>
