<svg width="23" height="22" viewBox="0 0 23 22" fill="none" xmlns="http://www.w3.org/2000/svg">
<path opacity="0.4" d="M11.8645 7.42501C14.4793 7.42501 16.8488 8.48665 18.5605 10.1993C18.7074 10.3362 18.8252 10.5013 18.9069 10.6847C18.9887 10.8681 19.0326 11.0661 19.0361 11.2669C19.0397 11.4676 19.0028 11.6671 18.9276 11.8533C18.8523 12.0395 18.7404 12.2086 18.5984 12.3506C18.4564 12.4926 18.2873 12.6045 18.1011 12.6797C17.9149 12.755 17.7155 12.7919 17.5147 12.7883C17.3139 12.7848 17.1159 12.7409 16.9325 12.6591C16.7491 12.5774 16.584 12.4596 16.4471 12.3127C15.8461 11.7099 15.1318 11.232 14.3453 10.9064C13.5588 10.5808 12.7157 10.414 11.8645 10.4156C11.0134 10.4143 10.1704 10.5813 9.38413 10.9071C8.59784 11.2328 7.8837 11.7108 7.28289 12.3136C7.00249 12.5941 6.62217 12.7518 6.22555 12.7519C5.82893 12.752 5.44854 12.5945 5.16804 12.3141C4.8875 12.0338 4.72986 11.6534 4.72975 11.2568C4.72969 10.8602 4.88716 10.4798 5.16752 10.1993C6.04611 9.31862 7.09001 8.62019 8.23927 8.1441C9.38853 7.66804 10.6205 7.42363 11.8645 7.42501ZM11.8645 3.43751C15.5798 3.43751 18.9473 4.94578 21.3806 7.37915C21.5194 7.51803 21.6295 7.68292 21.7046 7.86435C21.7798 8.04582 21.8184 8.24028 21.8184 8.43666C21.8183 8.63305 21.7796 8.82751 21.7044 9.0089C21.6292 9.19034 21.519 9.35516 21.3801 9.494C21.2412 9.63281 21.0763 9.74295 20.8949 9.81806C20.7134 9.89317 20.5189 9.9318 20.3226 9.93174C20.1262 9.9317 19.9318 9.89296 19.7503 9.81778C19.5689 9.74257 19.4041 9.6324 19.2653 9.49349C18.2946 8.51999 17.141 7.748 15.8709 7.22192C14.6008 6.69588 13.2392 6.42607 11.8645 6.42813C8.97356 6.42813 6.35879 7.59846 4.46273 9.49349C4.32544 9.63872 4.1604 9.75498 3.9774 9.83531C3.7944 9.91568 3.59715 9.95855 3.39731 9.96137C3.19746 9.96422 2.99908 9.92692 2.81388 9.85178C2.62868 9.77664 2.46043 9.66509 2.31907 9.52381C2.17771 9.38253 2.06611 9.21433 1.99087 9.02915C1.91563 8.84401 1.87827 8.64563 1.881 8.44577C1.88373 8.24595 1.9265 8.04867 2.00677 7.86563C2.08705 7.68258 2.20321 7.51751 2.34838 7.38015C3.59673 6.12862 5.08004 5.13605 6.71309 4.45944C8.34618 3.78287 10.0968 3.43557 11.8645 3.43751Z" fill="url(#paint0_linear_451_1705)"/>
<path opacity="0.4" d="M13.9627 11.8288C13.2975 11.5534 12.5844 11.4119 11.8644 11.4126C11.1443 11.412 10.4312 11.5535 9.76589 11.8291C9.1006 12.1047 8.49629 12.5089 7.98757 13.0186C7.70717 13.2991 7.5497 13.6795 7.5498 14.0761C7.54991 14.4727 7.70755 14.853 7.98805 15.1334C8.26859 15.4138 8.64898 15.5713 9.0456 15.5712C9.44222 15.5711 9.82254 15.4134 10.1029 15.1329L10.2425 15.0023C10.6791 14.6275 11.2443 14.4032 11.8644 14.4032C12.1918 14.4025 12.5161 14.4666 12.8186 14.5918C13.1211 14.7171 13.3958 14.901 13.6269 15.1329L13.7405 15.2356C14.0378 15.4786 14.4172 15.5979 14.8001 15.5688C15.1829 15.5398 15.54 15.3645 15.7971 15.0794C16.0543 14.7942 16.192 14.4211 16.1816 14.0373C16.1712 13.6534 16.0135 13.2883 15.7412 13.0176C15.2323 12.5082 14.628 12.1042 13.9627 11.8288Z" fill="url(#paint1_linear_451_1705)"/>
<path d="M12.9218 15.8379C12.6414 15.5574 12.261 15.3999 11.8644 15.3999C11.4678 15.3999 11.0875 15.5574 10.8071 15.8379C10.5267 16.1183 10.3691 16.4986 10.3691 16.8952C10.3691 17.2918 10.5267 17.6721 10.8071 17.9526C11.0875 18.233 11.4678 18.3905 11.8644 18.3905C12.261 18.3905 12.6414 18.233 12.9218 17.9526C13.2022 17.6721 13.3597 17.2918 13.3597 16.8952C13.3597 16.4986 13.2022 16.1183 12.9218 15.8379Z" fill="url(#paint2_linear_451_1705)"/>
<path d="M20.228 12.1938H18.7246C18.5347 12.1938 18.3809 12.3477 18.3809 12.5376V17.8749C18.3809 18.0649 18.5347 18.2187 18.7246 18.2187H20.228C20.4178 18.2187 20.5718 18.0649 20.5718 17.8749V12.5376C20.5718 12.3477 20.4178 12.1938 20.228 12.1938Z" fill="url(#paint3_linear_451_1705)"/>
<path d="M20.5715 9.66446C20.5747 9.81028 20.5488 9.95534 20.4953 10.0911C20.4417 10.2268 20.3616 10.3505 20.2597 10.4549C20.1576 10.5592 20.0357 10.6422 19.9013 10.6987C19.7669 10.7554 19.6224 10.7845 19.4765 10.7846C19.3306 10.7846 19.1862 10.7555 19.0516 10.699C18.9172 10.6424 18.7954 10.5595 18.6933 10.4553C18.5912 10.3509 18.5111 10.2273 18.4575 10.0916C18.4038 9.95589 18.3778 9.8109 18.3811 9.66501C18.3875 9.37874 18.5056 9.10642 18.7102 8.90615C18.9148 8.70602 19.1896 8.59382 19.476 8.59375C19.7623 8.59368 20.0371 8.70574 20.242 8.90581C20.4467 9.10594 20.565 9.37819 20.5715 9.66446Z" fill="url(#paint4_linear_451_1705)"/>
<defs>
<linearGradient id="paint0_linear_451_1705" x1="11.9081" y1="14.6935" x2="11.9081" y2="4.33071" gradientUnits="userSpaceOnUse">
<stop stop-color="#FDA700"/>
<stop offset="1" stop-color="#FFDE00"/>
</linearGradient>
<linearGradient id="paint1_linear_451_1705" x1="11.8913" y1="16.4207" x2="11.8913" y2="11.81" gradientUnits="userSpaceOnUse">
<stop stop-color="#FDA700"/>
<stop offset="1" stop-color="#FFDE00"/>
</linearGradient>
<linearGradient id="paint2_linear_451_1705" x1="11.8732" y1="18.9997" x2="11.8732" y2="15.6856" gradientUnits="userSpaceOnUse">
<stop stop-color="#FDA700"/>
<stop offset="1" stop-color="#FFDE00"/>
</linearGradient>
<linearGradient id="paint3_linear_451_1705" x1="19.4764" y1="18.2187" x2="19.4764" y2="8.59368" gradientUnits="userSpaceOnUse">
<stop stop-color="#FDA700"/>
<stop offset="1" stop-color="#FFDE00"/>
</linearGradient>
<linearGradient id="paint4_linear_451_1705" x1="19.4761" y1="18.2187" x2="19.4761" y2="8.59375" gradientUnits="userSpaceOnUse">
<stop stop-color="#FDA700"/>
<stop offset="1" stop-color="#FFDE00"/>
</linearGradient>
</defs>
</svg>
