<svg width="24" height="22" viewBox="0 0 24 22" fill="none" xmlns="http://www.w3.org/2000/svg">
<path d="M19.2595 14.8198H11.2233C11.0208 14.8198 10.8567 14.984 10.8567 15.1865V16.3476C10.8567 16.5502 10.7762 16.7445 10.633 16.8877C10.4897 17.031 10.2954 17.1115 10.0928 17.1115C9.89018 17.1115 9.69588 17.031 9.55263 16.8877C9.40937 16.7445 9.32889 16.5502 9.32889 16.3476V15.1865C9.32889 14.984 9.16472 14.8198 8.96222 14.8198H8.16777C7.96527 14.8198 7.80111 14.984 7.80111 15.1865V16.3476C7.80111 16.5502 7.72062 16.7445 7.57737 16.8877C7.43411 17.031 7.23981 17.1115 7.03722 17.1115C6.83462 17.1115 6.64032 17.031 6.49707 16.8877C6.35381 16.7445 6.27333 16.5502 6.27333 16.3476V15.1865C6.27333 14.984 6.10917 14.8198 5.90666 14.8198H5.50944C4.90165 14.8198 4.31875 15.0613 3.88898 15.491C3.45921 15.9208 3.21777 16.5037 3.21777 17.1115C3.21777 17.7192 3.45921 18.3021 3.88898 18.732C4.31875 19.1617 4.90165 19.4032 5.50944 19.4032H19.2595C19.8672 19.4032 20.4501 19.1617 20.88 18.732C21.3097 18.3021 21.5511 17.7192 21.5511 17.1115C21.5511 16.5037 21.3097 15.9208 20.88 15.491C20.4501 15.0613 19.8672 14.8198 19.2595 14.8198Z" fill="url(#paint0_linear_451_1601)"/>
<path d="M19.2595 8.7085H11.2233C11.0208 8.7085 10.8567 8.87266 10.8567 9.07516V10.2363C10.8567 10.4389 10.7762 10.6331 10.633 10.7764C10.4897 10.9197 10.2954 11.0002 10.0928 11.0002C9.89018 11.0002 9.69588 10.9197 9.55263 10.7764C9.40937 10.6331 9.32889 10.4389 9.32889 10.2363V9.07516C9.32889 8.87266 9.16472 8.7085 8.96222 8.7085H8.16777C7.96527 8.7085 7.80111 8.87266 7.80111 9.07516V10.2363C7.80111 10.4389 7.72062 10.6331 7.57737 10.7764C7.43411 10.9197 7.23981 11.0002 7.03722 11.0002C6.83462 11.0002 6.64032 10.9197 6.49707 10.7764C6.35381 10.6331 6.27333 10.4389 6.27333 10.2363V9.07516C6.27333 8.87266 6.10917 8.7085 5.90666 8.7085H5.50944C4.90165 8.7085 4.31875 8.94994 3.88898 9.37968C3.45921 9.8095 3.21777 10.3924 3.21777 11.0002C3.21777 11.6079 3.45921 12.1908 3.88898 12.6206C4.31875 13.0504 4.90165 13.2918 5.50944 13.2918H19.2595C19.8672 13.2918 20.4501 13.0504 20.88 12.6206C21.3097 12.1908 21.5511 11.6079 21.5511 11.0002C21.5511 10.3924 21.3097 9.8095 20.88 9.37968C20.4501 8.94994 19.8672 8.7085 19.2595 8.7085Z" fill="url(#paint1_linear_451_1601)"/>
<path d="M19.2595 2.59717H11.2233C11.0208 2.59717 10.8567 2.76132 10.8567 2.96383V4.12494C10.8567 4.32754 10.7762 4.52184 10.633 4.66509C10.4897 4.80835 10.2954 4.88883 10.0928 4.88883C9.89018 4.88883 9.69588 4.80835 9.55263 4.66509C9.40937 4.52184 9.32889 4.32754 9.32889 4.12494V2.96383C9.32889 2.76132 9.16472 2.59717 8.96222 2.59717H8.16777C7.96527 2.59717 7.80111 2.76132 7.80111 2.96383V4.12494C7.80111 4.32754 7.72062 4.52184 7.57737 4.66509C7.43411 4.80835 7.23981 4.88883 7.03722 4.88883C6.83462 4.88883 6.64032 4.80835 6.49707 4.66509C6.35381 4.52184 6.27333 4.32754 6.27333 4.12494V2.96383C6.27333 2.76132 6.10917 2.59717 5.90666 2.59717H5.50944C4.90165 2.59717 4.31875 2.83861 3.88898 3.26838C3.45921 3.69815 3.21777 4.28105 3.21777 4.88883C3.21777 5.49662 3.45921 6.07951 3.88898 6.50928C4.31875 6.93906 4.90165 7.1805 5.50944 7.1805H19.2595C19.8672 7.1805 20.4501 6.93906 20.88 6.50928C21.3097 6.07951 21.5511 5.49662 21.5511 4.88883C21.5511 4.28105 21.3097 3.69815 20.88 3.26838C20.4501 2.83861 19.8672 2.59717 19.2595 2.59717Z" fill="url(#paint2_linear_451_1601)"/>
<defs>
<linearGradient id="paint0_linear_451_1601" x1="12.3845" y1="19.4032" x2="12.3845" y2="14.8198" gradientUnits="userSpaceOnUse">
<stop stop-color="#5570FF"/>
<stop offset="1" stop-color="#4DD3FF"/>
</linearGradient>
<linearGradient id="paint1_linear_451_1601" x1="12.3845" y1="13.2918" x2="12.3845" y2="8.7085" gradientUnits="userSpaceOnUse">
<stop stop-color="#5570FF"/>
<stop offset="1" stop-color="#4DD3FF"/>
</linearGradient>
<linearGradient id="paint2_linear_451_1601" x1="12.3845" y1="7.1805" x2="12.3845" y2="2.59717" gradientUnits="userSpaceOnUse">
<stop stop-color="#5570FF"/>
<stop offset="1" stop-color="#4DD3FF"/>
</linearGradient>
</defs>
</svg>
