<svg width="23" height="22" viewBox="0 0 23 22" fill="none" xmlns="http://www.w3.org/2000/svg">
<path d="M20.7297 8.02571C20.7123 8.00823 20.6938 7.99263 20.6745 7.97793C18.1665 5.33621 14.7841 3.9502 11.2695 3.9502C9.47201 3.9502 7.73559 4.3063 6.10852 5.00858C4.27322 5.80077 3.05729 6.77766 1.80924 8.02571C1.58635 8.2486 1.59293 8.60641 1.80924 8.82271L3.4166 10.4301C3.64478 10.6583 4.01486 10.6475 4.23043 10.4126C6.05292 8.42587 8.55277 7.33175 11.2695 7.33175C13.9862 7.33175 16.486 8.42587 18.3085 10.4126C18.5254 10.6489 18.8955 10.657 19.1223 10.4301L20.7297 8.82271C20.735 8.81749 20.7395 8.81182 20.7445 8.8064C20.7479 8.80257 20.7515 8.79881 20.7548 8.79489C20.9488 8.57351 20.9409 8.23686 20.7297 8.02571ZM11.2695 12.9676C10.0461 12.9676 8.91345 13.5166 8.162 14.4738C7.98588 14.6981 8.00513 15.0186 8.20677 15.2203L10.871 17.8845C11.091 18.1046 11.4481 18.1045 11.668 17.8845L14.3322 15.2203C14.5339 15.0186 14.5531 14.6981 14.377 14.4738C13.6256 13.5166 12.4929 12.9676 11.2695 12.9676ZM11.2695 8.45892C8.86026 8.45892 6.60728 9.44808 4.9868 11.2442C4.78579 11.4669 4.79457 11.8081 5.00672 12.0202L6.59752 13.611C6.82859 13.8422 7.20618 13.8282 7.42015 13.5836C8.38961 12.4758 9.79264 11.8405 11.2695 11.8405C12.7464 11.8405 14.1494 12.4758 15.1189 13.5836C15.3332 13.8287 15.7108 13.8418 15.9415 13.611L17.5323 12.0202C17.7444 11.8081 17.7533 11.4669 17.5523 11.2442C15.9318 9.44818 13.679 8.45892 11.2695 8.45892Z" fill="url(#paint0_linear_451_1695)"/>
<defs>
<linearGradient id="paint0_linear_451_1695" x1="11.2695" y1="18.0495" x2="11.0977" y2="11.2576" gradientUnits="userSpaceOnUse">
<stop stop-color="#00FF85"/>
<stop offset="1" stop-color="#FFE600"/>
</linearGradient>
</defs>
</svg>
