<svg width="23" height="22" viewBox="0 0 23 22" fill="none" xmlns="http://www.w3.org/2000/svg">
<path opacity="0.4" d="M11.1233 7.42501C13.7381 7.42501 16.1076 8.48665 17.8193 10.1993C17.9662 10.3362 18.084 10.5013 18.1657 10.6847C18.2475 10.8681 18.2914 11.0661 18.2949 11.2669C18.2985 11.4676 18.2616 11.6671 18.1863 11.8533C18.1111 12.0395 17.9992 12.2086 17.8572 12.3506C17.7152 12.4926 17.5461 12.6045 17.3599 12.6797C17.1737 12.755 16.9743 12.7919 16.7735 12.7883C16.5727 12.7848 16.3747 12.7409 16.1913 12.6591C16.0079 12.5774 15.8428 12.4596 15.7059 12.3127C15.1049 11.7099 14.3906 11.232 13.6041 10.9064C12.8176 10.5808 11.9745 10.414 11.1233 10.4156C10.2722 10.4143 9.42921 10.5813 8.64292 10.9071C7.85663 11.2328 7.14248 11.7108 6.54168 12.3136C6.26128 12.5941 5.88096 12.7518 5.48434 12.7519C5.08772 12.752 4.70733 12.5945 4.42683 12.3141C4.14629 12.0338 3.98865 11.6534 3.98854 11.2568C3.98848 10.8602 4.14595 10.4798 4.42631 10.1993C5.3049 9.31862 6.3488 8.62019 7.49806 8.1441C8.64732 7.66804 9.87932 7.42363 11.1233 7.42501ZM11.1233 3.43751C14.8386 3.43751 18.206 4.94578 20.6394 7.37915C20.7782 7.51803 20.8883 7.68292 20.9634 7.86435C21.0385 8.04582 21.0772 8.24028 21.0771 8.43666C21.0771 8.63305 21.0384 8.82751 20.9632 9.0089C20.888 9.19034 20.7778 9.35516 20.6389 9.494C20.5 9.63281 20.3351 9.74295 20.1537 9.81806C19.9722 9.89317 19.7777 9.9318 19.5814 9.93174C19.385 9.9317 19.1905 9.89296 19.0091 9.81778C18.8277 9.74257 18.6629 9.6324 18.524 9.49349C17.5534 8.51999 16.3998 7.748 15.1297 7.22192C13.8596 6.69588 12.498 6.42607 11.1233 6.42813C8.23234 6.42813 5.61758 7.59846 3.72152 9.49349C3.58423 9.63872 3.41919 9.75498 3.23619 9.83531C3.05319 9.91568 2.85594 9.95855 2.6561 9.96137C2.45625 9.96422 2.25787 9.92692 2.07267 9.85178C1.88747 9.77664 1.71922 9.66509 1.57786 9.52381C1.4365 9.38253 1.3249 9.21433 1.24966 9.02915C1.17441 8.84401 1.13706 8.64563 1.13979 8.44577C1.14252 8.24595 1.18529 8.04867 1.26556 7.86563C1.34584 7.68258 1.462 7.51751 1.60716 7.38015C2.85552 6.12862 4.33883 5.13605 5.97188 4.45944C7.60497 3.78287 9.35562 3.43557 11.1233 3.43751Z" fill="url(#paint0_linear_451_1663)"/>
<path opacity="0.4" d="M13.2215 11.8288C12.5563 11.5534 11.8432 11.4119 11.1232 11.4126C10.4031 11.412 9.68994 11.5535 9.02468 11.8291C8.35939 12.1047 7.75508 12.5089 7.24636 13.0186C6.96596 13.2991 6.80849 13.6795 6.80859 14.0761C6.8087 14.4727 6.96634 14.853 7.24684 15.1334C7.52738 15.4138 7.90777 15.5713 8.30439 15.5712C8.70101 15.5711 9.08133 15.4134 9.36169 15.1329L9.50126 15.0023C9.93789 14.6275 10.5031 14.4032 11.1232 14.4032C11.4506 14.4025 11.7749 14.4666 12.0774 14.5918C12.3799 14.7171 12.6546 14.901 12.8856 15.1329L12.9993 15.2356C13.2966 15.4786 13.676 15.5979 14.0589 15.5688C14.4417 15.5398 14.7988 15.3645 15.0559 15.0794C15.3131 14.7942 15.4508 14.4211 15.4404 14.0373C15.4299 13.6534 15.2723 13.2883 15 13.0176C14.4911 12.5082 13.8868 12.1042 13.2215 11.8288Z" fill="url(#paint1_linear_451_1663)"/>
<path d="M12.1805 15.8379C11.9002 15.5574 11.5198 15.3999 11.1232 15.3999C10.7266 15.3999 10.3463 15.5574 10.0659 15.8379C9.78547 16.1183 9.62793 16.4986 9.62793 16.8952C9.62793 17.2918 9.78547 17.6721 10.0659 17.9526C10.3463 18.233 10.7266 18.3905 11.1232 18.3905C11.5198 18.3905 11.9002 18.233 12.1805 17.9526C12.461 17.6721 12.6185 17.2918 12.6185 16.8952C12.6185 16.4986 12.461 16.1183 12.1805 15.8379Z" fill="url(#paint2_linear_451_1663)"/>
<path d="M19.4868 12.1938H17.9834C17.7934 12.1938 17.6396 12.3477 17.6396 12.5376V17.8749C17.6396 18.0649 17.7934 18.2187 17.9834 18.2187H19.4868C19.6766 18.2187 19.8306 18.0649 19.8306 17.8749V12.5376C19.8306 12.3477 19.6766 12.1938 19.4868 12.1938Z" fill="url(#paint3_linear_451_1663)"/>
<path d="M19.8303 9.66446C19.8335 9.81028 19.8076 9.95534 19.7541 10.0911C19.7005 10.2268 19.6204 10.3505 19.5185 10.4549C19.4164 10.5592 19.2945 10.6422 19.1601 10.6987C19.0257 10.7554 18.8812 10.7845 18.7353 10.7846C18.5894 10.7846 18.445 10.7555 18.3104 10.699C18.176 10.6424 18.0541 10.5595 17.9521 10.4553C17.85 10.3509 17.7699 10.2273 17.7162 10.0916C17.6626 9.95589 17.6366 9.8109 17.6399 9.66501C17.6463 9.37874 17.7644 9.10642 17.969 8.90615C18.1736 8.70602 18.4484 8.59382 18.7348 8.59375C19.0211 8.59368 19.2959 8.70574 19.5008 8.90581C19.7055 9.10594 19.8238 9.37819 19.8303 9.66446Z" fill="url(#paint4_linear_451_1663)"/>
<defs>
<linearGradient id="paint0_linear_451_1663" x1="11.1669" y1="14.6935" x2="11.1669" y2="4.33071" gradientUnits="userSpaceOnUse">
<stop stop-color="#FDA700"/>
<stop offset="1" stop-color="#FFDE00"/>
</linearGradient>
<linearGradient id="paint1_linear_451_1663" x1="11.1501" y1="16.4207" x2="11.1501" y2="11.81" gradientUnits="userSpaceOnUse">
<stop stop-color="#FDA700"/>
<stop offset="1" stop-color="#FFDE00"/>
</linearGradient>
<linearGradient id="paint2_linear_451_1663" x1="11.132" y1="18.9997" x2="11.132" y2="15.6856" gradientUnits="userSpaceOnUse">
<stop stop-color="#FDA700"/>
<stop offset="1" stop-color="#FFDE00"/>
</linearGradient>
<linearGradient id="paint3_linear_451_1663" x1="18.7352" y1="18.2187" x2="18.7352" y2="8.59368" gradientUnits="userSpaceOnUse">
<stop stop-color="#FDA700"/>
<stop offset="1" stop-color="#FFDE00"/>
</linearGradient>
<linearGradient id="paint4_linear_451_1663" x1="18.7349" y1="18.2187" x2="18.7349" y2="8.59375" gradientUnits="userSpaceOnUse">
<stop stop-color="#FDA700"/>
<stop offset="1" stop-color="#FFDE00"/>
</linearGradient>
</defs>
</svg>
