<svg width="23" height="22" viewBox="0 0 23 22" fill="none" xmlns="http://www.w3.org/2000/svg">
<path opacity="0.4" d="M11.2522 7.42501C13.867 7.42501 16.2365 8.48665 17.9482 10.1993C18.0951 10.3362 18.2129 10.5013 18.2946 10.6847C18.3764 10.8681 18.4203 11.0661 18.4238 11.2669C18.4274 11.4676 18.3905 11.6671 18.3153 11.8533C18.24 12.0395 18.1281 12.2086 17.9861 12.3506C17.8441 12.4926 17.675 12.6045 17.4888 12.6797C17.3026 12.755 17.1032 12.7919 16.9024 12.7883C16.7016 12.7848 16.5036 12.7409 16.3202 12.6591C16.1368 12.5774 15.9717 12.4596 15.8348 12.3127C15.2338 11.7099 14.5195 11.232 13.733 10.9064C12.9465 10.5808 12.1034 10.414 11.2522 10.4156C10.4011 10.4143 9.55812 10.5813 8.77183 10.9071C7.98553 11.2328 7.27139 11.7108 6.67058 12.3136C6.39019 12.5941 6.00986 12.7518 5.61324 12.7519C5.21663 12.752 4.83623 12.5945 4.55573 12.3141C4.2752 12.0338 4.11755 11.6534 4.11745 11.2568C4.11738 10.8602 4.27485 10.4798 4.55522 10.1993C5.43381 9.31862 6.47771 8.62019 7.62697 8.1441C8.77623 7.66804 10.0082 7.42363 11.2522 7.42501ZM11.2522 3.43751C14.9675 3.43751 18.335 4.94578 20.7683 7.37915C20.9071 7.51803 21.0172 7.68292 21.0923 7.86435C21.1675 8.04582 21.2061 8.24028 21.2061 8.43666C21.206 8.63305 21.1673 8.82751 21.0921 9.0089C21.0169 9.19034 20.9067 9.35516 20.7678 9.494C20.6289 9.63281 20.464 9.74295 20.2826 9.81806C20.1011 9.89317 19.9066 9.9318 19.7103 9.93174C19.5139 9.9317 19.3194 9.89296 19.138 9.81778C18.9566 9.74257 18.7918 9.6324 18.653 9.49349C17.6823 8.51999 16.5287 7.748 15.2586 7.22192C13.9885 6.69588 12.6269 6.42607 11.2522 6.42813C8.36125 6.42813 5.74648 7.59846 3.85043 9.49349C3.71313 9.63872 3.54809 9.75498 3.36509 9.83531C3.1821 9.91568 2.98485 9.95855 2.785 9.96137C2.58516 9.96422 2.38677 9.92692 2.20157 9.85178C2.01638 9.77664 1.84813 9.66509 1.70677 9.52381C1.56541 9.38253 1.45381 9.21433 1.37856 9.02915C1.30332 8.84401 1.26596 8.64563 1.26869 8.44577C1.27142 8.24595 1.31419 8.04867 1.39447 7.86563C1.47475 7.68258 1.5909 7.51751 1.73607 7.38015C2.98442 6.12862 4.46773 5.13605 6.10078 4.45944C7.73387 3.78287 9.48452 3.43557 11.2522 3.43751Z" fill="url(#paint0_linear_451_1713)"/>
<path opacity="0.4" d="M13.3504 11.8288C12.6852 11.5534 11.9721 11.4119 11.2521 11.4126C10.532 11.412 9.81885 11.5535 9.15359 11.8291C8.48829 12.1047 7.88398 12.5089 7.37527 13.0186C7.09487 13.2991 6.9374 13.6795 6.9375 14.0761C6.9376 14.4727 7.09525 14.853 7.37575 15.1334C7.65628 15.4138 8.03668 15.5713 8.43329 15.5712C8.82991 15.5711 9.21024 15.4134 9.4906 15.1329L9.63016 15.0023C10.0668 14.6275 10.632 14.4032 11.2521 14.4032C11.5795 14.4025 11.9038 14.4666 12.2063 14.5918C12.5088 14.7171 12.7835 14.901 13.0146 15.1329L13.1282 15.2356C13.4255 15.4786 13.8049 15.5979 14.1878 15.5688C14.5706 15.5398 14.9277 15.3645 15.1848 15.0794C15.442 14.7942 15.5797 14.4211 15.5693 14.0373C15.5589 13.6534 15.4012 13.2883 15.1289 13.0176C14.62 12.5082 14.0157 12.1042 13.3504 11.8288Z" fill="url(#paint1_linear_451_1713)"/>
<path d="M12.3095 15.8379C12.0291 15.5574 11.6487 15.3999 11.2521 15.3999C10.8555 15.3999 10.4752 15.5574 10.1948 15.8379C9.91438 16.1183 9.75684 16.4986 9.75684 16.8952C9.75684 17.2918 9.91438 17.6721 10.1948 17.9526C10.4752 18.233 10.8555 18.3905 11.2521 18.3905C11.6487 18.3905 12.0291 18.233 12.3095 17.9526C12.5899 17.6721 12.7474 17.2918 12.7474 16.8952C12.7474 16.4986 12.5899 16.1183 12.3095 15.8379Z" fill="url(#paint2_linear_451_1713)"/>
<path d="M19.6157 12.1938H18.1123C17.9223 12.1938 17.7686 12.3477 17.7686 12.5376V17.8749C17.7686 18.0649 17.9223 18.2187 18.1123 18.2187H19.6157C19.8055 18.2187 19.9595 18.0649 19.9595 17.8749V12.5376C19.9595 12.3477 19.8055 12.1938 19.6157 12.1938Z" fill="url(#paint3_linear_451_1713)"/>
<path d="M19.9592 9.66446C19.9624 9.81028 19.9365 9.95534 19.883 10.0911C19.8294 10.2268 19.7493 10.3505 19.6474 10.4549C19.5453 10.5592 19.4234 10.6422 19.289 10.6987C19.1546 10.7554 19.0101 10.7845 18.8642 10.7846C18.7183 10.7846 18.5739 10.7555 18.4393 10.699C18.3049 10.6424 18.1831 10.5595 18.081 10.4553C17.9789 10.3509 17.8988 10.2273 17.8451 10.0916C17.7915 9.95589 17.7655 9.8109 17.7688 9.66501C17.7752 9.37874 17.8933 9.10642 18.0979 8.90615C18.3025 8.70602 18.5773 8.59382 18.8637 8.59375C19.15 8.59368 19.4248 8.70574 19.6297 8.90581C19.8344 9.10594 19.9527 9.37819 19.9592 9.66446Z" fill="url(#paint4_linear_451_1713)"/>
<defs>
<linearGradient id="paint0_linear_451_1713" x1="11.2958" y1="14.6935" x2="11.2958" y2="4.33071" gradientUnits="userSpaceOnUse">
<stop stop-color="#FDA700"/>
<stop offset="1" stop-color="#FFDE00"/>
</linearGradient>
<linearGradient id="paint1_linear_451_1713" x1="11.279" y1="16.4207" x2="11.279" y2="11.81" gradientUnits="userSpaceOnUse">
<stop stop-color="#FDA700"/>
<stop offset="1" stop-color="#FFDE00"/>
</linearGradient>
<linearGradient id="paint2_linear_451_1713" x1="11.2609" y1="18.9997" x2="11.2609" y2="15.6856" gradientUnits="userSpaceOnUse">
<stop stop-color="#FDA700"/>
<stop offset="1" stop-color="#FFDE00"/>
</linearGradient>
<linearGradient id="paint3_linear_451_1713" x1="18.8641" y1="18.2187" x2="18.8641" y2="8.59368" gradientUnits="userSpaceOnUse">
<stop stop-color="#FDA700"/>
<stop offset="1" stop-color="#FFDE00"/>
</linearGradient>
<linearGradient id="paint4_linear_451_1713" x1="18.8638" y1="18.2187" x2="18.8638" y2="8.59375" gradientUnits="userSpaceOnUse">
<stop stop-color="#FDA700"/>
<stop offset="1" stop-color="#FFDE00"/>
</linearGradient>
</defs>
</svg>
