<svg width="23" height="22" viewBox="0 0 23 22" fill="none" xmlns="http://www.w3.org/2000/svg">
<path d="M11.5432 7.42501C14.158 7.42501 16.5275 8.48665 18.2392 10.1993C18.3861 10.3362 18.5039 10.5013 18.5856 10.6847C18.6674 10.8681 18.7113 11.0661 18.7149 11.2669C18.7184 11.4676 18.6815 11.6671 18.6063 11.8533C18.5311 12.0395 18.4191 12.2086 18.2771 12.3506C18.1351 12.4926 17.966 12.6045 17.7798 12.6797C17.5936 12.755 17.3942 12.7919 17.1934 12.7883C16.9926 12.7848 16.7946 12.7409 16.6112 12.6591C16.4278 12.5774 16.2627 12.4596 16.1258 12.3127C15.5248 11.7099 14.8105 11.232 14.024 10.9064C13.2375 10.5808 12.3944 10.414 11.5432 10.4156C10.6921 10.4143 9.84913 10.5813 9.06284 10.9071C8.27655 11.2328 7.56241 11.7108 6.9616 12.3136C6.6812 12.5941 6.30088 12.7518 5.90426 12.7519C5.50764 12.752 5.12725 12.5945 4.84675 12.3141C4.56621 12.0338 4.40857 11.6534 4.40847 11.2568C4.4084 10.8602 4.56587 10.4798 4.84623 10.1993C5.72482 9.31862 6.76872 8.62019 7.91798 8.1441C9.06724 7.66804 10.2992 7.42363 11.5432 7.42501ZM11.5432 3.43751C15.2585 3.43751 18.626 4.94578 21.0593 7.37915C21.1981 7.51803 21.3082 7.68292 21.3834 7.86435C21.4585 8.04582 21.4971 8.24028 21.4971 8.43666C21.497 8.63305 21.4583 8.82751 21.3831 9.0089C21.3079 9.19034 21.1977 9.35516 21.0588 9.494C20.9199 9.63281 20.7551 9.74295 20.5736 9.81806C20.3922 9.89317 20.1977 9.9318 20.0013 9.93174C19.8049 9.9317 19.6105 9.89296 19.429 9.81778C19.2476 9.74257 19.0828 9.6324 18.944 9.49349C17.9733 8.51999 16.8197 7.748 15.5496 7.22192C14.2795 6.69588 12.9179 6.42607 11.5432 6.42813C8.65227 6.42813 6.0375 7.59846 4.14144 9.49349C4.00415 9.63872 3.83911 9.75498 3.65611 9.83531C3.47312 9.91568 3.27586 9.95855 3.07602 9.96137C2.87617 9.96422 2.67779 9.92692 2.49259 9.85178C2.30739 9.77664 2.13914 9.66509 1.99778 9.52381C1.85642 9.38253 1.74482 9.21433 1.66958 9.02915C1.59434 8.84401 1.55698 8.64563 1.55971 8.44577C1.56244 8.24595 1.60521 8.04867 1.68548 7.86563C1.76576 7.68258 1.88192 7.51751 2.02709 7.38015C3.27544 6.12862 4.75875 5.13605 6.3918 4.45944C8.02489 3.78287 9.77554 3.43557 11.5432 3.43751Z" fill="url(#paint0_radial_451_1653)"/>
<g opacity="0.4">
<path d="M12.6005 15.8379C12.3201 15.5575 11.9397 15.3999 11.5432 15.3999C11.1466 15.3999 10.7663 15.5575 10.4858 15.8379C10.2054 16.1183 10.0479 16.4986 10.0479 16.8952C10.0479 17.2918 10.2054 17.6721 10.4858 17.9526C10.7663 18.233 11.1466 18.3905 11.5432 18.3905C11.9397 18.3905 12.3201 18.233 12.6005 17.9526C12.8809 17.6721 13.0385 17.2918 13.0385 16.8952C13.0385 16.4986 12.8809 16.1183 12.6005 15.8379Z" fill="url(#paint1_radial_451_1653)"/>
<path d="M13.6414 11.8288C12.9762 11.5534 12.2631 11.4119 11.5431 11.4126C10.823 11.412 10.1099 11.5535 9.4446 11.8291C8.77931 12.1047 8.175 12.5089 7.66628 13.0186C7.38588 13.2991 7.22841 13.6795 7.22852 14.0761C7.22862 14.4727 7.38626 14.853 7.66676 15.1334C7.9473 15.4138 8.32769 15.5713 8.72431 15.5712C9.12093 15.5711 9.50125 15.4134 9.78162 15.1329L9.92118 15.0023C10.3578 14.6275 10.923 14.4032 11.5431 14.4032C11.8705 14.4025 12.1948 14.4666 12.4973 14.5918C12.7998 14.7171 13.0745 14.901 13.3056 15.1329L13.4192 15.2356C13.7165 15.4786 14.0959 15.5979 14.4788 15.5688C14.8617 15.5398 15.2187 15.3645 15.4758 15.0794C15.733 14.7942 15.8707 14.4211 15.8603 14.0373C15.8499 13.6534 15.6922 13.2883 15.4199 13.0176C14.9111 12.5082 14.3067 12.1042 13.6414 11.8288Z" fill="url(#paint2_radial_451_1653)"/>
</g>
<path d="M17.8653 9.96875C16.5405 9.96875 15.3544 11.051 15.3544 12.3633V13.5557H14.8759C14.5449 13.5557 14.2783 13.7589 14.2783 14.0832V17.6331C14.2783 17.9579 14.5449 18.2188 14.8759 18.2188H20.8546C21.1857 18.2188 21.4522 17.9579 21.4522 17.6331V14.0832C21.4522 13.7588 21.1856 13.5439 20.8546 13.5557H20.3761V12.3633C20.3761 11.0515 19.1899 9.96875 17.8653 9.96875ZM17.8653 11.4035C18.4614 11.4035 18.9414 11.8874 18.9414 12.488V13.5557H16.7892V12.488C16.7892 11.8874 17.2691 11.4035 17.8653 11.4035Z" fill="url(#paint3_radial_451_1653)"/>
<defs>
<radialGradient id="paint0_radial_451_1653" cx="0" cy="0" r="1" gradientUnits="userSpaceOnUse" gradientTransform="translate(11.5283 12.4981) rotate(-95.2386) scale(9.09858 31.3618)">
<stop offset="0.393422" stop-color="#02AA93"/>
<stop offset="1" stop-color="#67FF80"/>
</radialGradient>
<radialGradient id="paint1_radial_451_1653" cx="0" cy="0" r="1" gradientUnits="userSpaceOnUse" gradientTransform="translate(11.5447 18.1738) rotate(-93.0451) scale(6.77088 13.6163)">
<stop offset="0.393422" stop-color="#02AA93"/>
<stop offset="1" stop-color="#67FF80"/>
</radialGradient>
<radialGradient id="paint2_radial_451_1653" cx="0" cy="0" r="1" gradientUnits="userSpaceOnUse" gradientTransform="translate(11.5447 18.174) rotate(-93.0451) scale(6.77088 13.6164)">
<stop offset="0.393422" stop-color="#02AA93"/>
<stop offset="1" stop-color="#67FF80"/>
</radialGradient>
<radialGradient id="paint3_radial_451_1653" cx="0" cy="0" r="1" gradientUnits="userSpaceOnUse" gradientTransform="translate(17.8653 17.9625) rotate(-92.1415) scale(7.9993 11.3241)">
<stop offset="0.393422" stop-color="#02AA93"/>
<stop offset="1" stop-color="#67FF80"/>
</radialGradient>
</defs>
</svg>
