<svg width="23" height="22" viewBox="0 0 23 22" fill="none" xmlns="http://www.w3.org/2000/svg">
<path opacity="0.4" d="M11.3176 7.42501C13.9324 7.42501 16.302 8.48665 18.0136 10.1993C18.1605 10.3362 18.2783 10.5013 18.3601 10.6847C18.4418 10.8681 18.4857 11.0661 18.4893 11.2669C18.4928 11.4676 18.4559 11.6671 18.3807 11.8533C18.3055 12.0395 18.1935 12.2086 18.0515 12.3506C17.9095 12.4926 17.7404 12.6045 17.5542 12.6797C17.368 12.755 17.1686 12.7919 16.9678 12.7883C16.7671 12.7848 16.5691 12.7409 16.3856 12.6591C16.2022 12.5774 16.0371 12.4596 15.9002 12.3127C15.2992 11.7099 14.5849 11.232 13.7984 10.9064C13.0119 10.5808 12.1688 10.414 11.3176 10.4156C10.4665 10.4143 9.62355 10.5813 8.83725 10.9071C8.05096 11.2328 7.33682 11.7108 6.73601 12.3136C6.45562 12.5941 6.07529 12.7518 5.67867 12.7519C5.28205 12.752 4.90166 12.5945 4.62116 12.3141C4.34063 12.0338 4.18298 11.6534 4.18288 11.2568C4.18281 10.8602 4.34028 10.4798 4.62065 10.1993C5.49924 9.31862 6.54314 8.62019 7.6924 8.1441C8.84165 7.66804 10.0737 7.42363 11.3176 7.42501ZM11.3176 3.43751C15.0329 3.43751 18.4004 4.94578 20.8337 7.37915C20.9726 7.51803 21.0827 7.68292 21.1578 7.86435C21.2329 8.04582 21.2715 8.24028 21.2715 8.43666C21.2714 8.63305 21.2327 8.82751 21.1575 9.0089C21.0823 9.19034 20.9721 9.35516 20.8332 9.494C20.6943 9.63281 20.5295 9.74295 20.348 9.81806C20.1666 9.89317 19.9721 9.9318 19.7757 9.93174C19.5793 9.9317 19.3849 9.89296 19.2034 9.81778C19.022 9.74257 18.8572 9.6324 18.7184 9.49349C17.7477 8.51999 16.5941 7.748 15.324 7.22192C14.0539 6.69588 12.6923 6.42607 11.3176 6.42813C8.42668 6.42813 5.81191 7.59846 3.91585 9.49349C3.77856 9.63872 3.61352 9.75498 3.43052 9.83531C3.24753 9.91568 3.05028 9.95855 2.85043 9.96137C2.65059 9.96422 2.4522 9.92692 2.267 9.85178C2.08181 9.77664 1.91356 9.66509 1.7722 9.52381C1.63084 9.38253 1.51924 9.21433 1.44399 9.02915C1.36875 8.84401 1.33139 8.64563 1.33412 8.44577C1.33685 8.24595 1.37962 8.04867 1.4599 7.86563C1.54018 7.68258 1.65633 7.51751 1.8015 7.38015C3.04985 6.12862 4.53316 5.13605 6.16621 4.45944C7.7993 3.78287 9.54995 3.43557 11.3176 3.43751Z" fill="url(#paint0_linear_451_1669)"/>
<path opacity="0.4" d="M13.4159 11.8288C12.7506 11.5534 12.0375 11.4119 11.3175 11.4126C10.5974 11.412 9.88428 11.5535 9.21902 11.8291C8.55372 12.1047 7.94941 12.5089 7.4407 13.0186C7.1603 13.2991 7.00283 13.6795 7.00293 14.0761C7.00303 14.4727 7.16068 14.853 7.44118 15.1334C7.72171 15.4138 8.1021 15.5713 8.49872 15.5712C8.89534 15.5711 9.27567 15.4134 9.55603 15.1329L9.69559 15.0023C10.1322 14.6275 10.6975 14.4032 11.3175 14.4032C11.6449 14.4025 11.9692 14.4666 12.2717 14.5918C12.5742 14.7171 12.8489 14.901 13.08 15.1329L13.1936 15.2356C13.4909 15.4786 13.8703 15.5979 14.2532 15.5688C14.6361 15.5398 14.9931 15.3645 15.2502 15.0794C15.5074 14.7942 15.6451 14.4211 15.6347 14.0373C15.6243 13.6534 15.4666 13.2883 15.1944 13.0176C14.6855 12.5082 14.0811 12.1042 13.4159 11.8288Z" fill="url(#paint1_linear_451_1669)"/>
<path d="M12.3749 15.8379C12.0945 15.5574 11.7141 15.3999 11.3175 15.3999C10.921 15.3999 10.5406 15.5574 10.2602 15.8379C9.97981 16.1183 9.82227 16.4986 9.82227 16.8952C9.82227 17.2918 9.97981 17.6721 10.2602 17.9526C10.5406 18.233 10.921 18.3905 11.3175 18.3905C11.7141 18.3905 12.0945 18.233 12.3749 17.9526C12.6553 17.6721 12.8129 17.2918 12.8129 16.8952C12.8129 16.4986 12.6553 16.1183 12.3749 15.8379Z" fill="url(#paint2_linear_451_1669)"/>
<path d="M19.6812 12.1938H18.1777C17.9878 12.1938 17.834 12.3477 17.834 12.5376V17.8749C17.834 18.0649 17.9878 18.2187 18.1777 18.2187H19.6812C19.8709 18.2187 20.0249 18.0649 20.0249 17.8749V12.5376C20.0249 12.3477 19.8709 12.1938 19.6812 12.1938Z" fill="url(#paint3_linear_451_1669)"/>
<path d="M20.0246 9.66446C20.0279 9.81028 20.002 9.95534 19.9485 10.0911C19.8948 10.2268 19.8147 10.3505 19.7129 10.4549C19.6108 10.5592 19.4889 10.6422 19.3545 10.6987C19.2201 10.7554 19.0755 10.7845 18.9296 10.7846C18.7837 10.7846 18.6393 10.7555 18.5047 10.699C18.3703 10.6424 18.2485 10.5595 18.1464 10.4553C18.0443 10.3509 17.9642 10.2273 17.9106 10.0916C17.857 9.95589 17.831 9.8109 17.8343 9.66501C17.8406 9.37874 17.9587 9.10642 18.1634 8.90615C18.3679 8.70602 18.6428 8.59382 18.9291 8.59375C19.2155 8.59368 19.4902 8.70574 19.6951 8.90581C19.8999 9.10594 20.0181 9.37819 20.0246 9.66446Z" fill="url(#paint4_linear_451_1669)"/>
<defs>
<linearGradient id="paint0_linear_451_1669" x1="11.3613" y1="14.6935" x2="11.3613" y2="4.33071" gradientUnits="userSpaceOnUse">
<stop stop-color="#FDA700"/>
<stop offset="1" stop-color="#FFDE00"/>
</linearGradient>
<linearGradient id="paint1_linear_451_1669" x1="11.3444" y1="16.4207" x2="11.3444" y2="11.81" gradientUnits="userSpaceOnUse">
<stop stop-color="#FDA700"/>
<stop offset="1" stop-color="#FFDE00"/>
</linearGradient>
<linearGradient id="paint2_linear_451_1669" x1="11.3263" y1="18.9997" x2="11.3263" y2="15.6856" gradientUnits="userSpaceOnUse">
<stop stop-color="#FDA700"/>
<stop offset="1" stop-color="#FFDE00"/>
</linearGradient>
<linearGradient id="paint3_linear_451_1669" x1="18.9295" y1="18.2187" x2="18.9295" y2="8.59368" gradientUnits="userSpaceOnUse">
<stop stop-color="#FDA700"/>
<stop offset="1" stop-color="#FFDE00"/>
</linearGradient>
<linearGradient id="paint4_linear_451_1669" x1="18.9292" y1="18.2187" x2="18.9292" y2="8.59375" gradientUnits="userSpaceOnUse">
<stop stop-color="#FDA700"/>
<stop offset="1" stop-color="#FFDE00"/>
</linearGradient>
</defs>
</svg>
