<svg width="23" height="22" viewBox="0 0 23 22" fill="none" xmlns="http://www.w3.org/2000/svg">
<path d="M21.2141 8.02571C21.1967 8.00823 21.1782 7.99263 21.1589 7.97793C18.6509 5.33621 15.2684 3.9502 11.7539 3.9502C9.95639 3.9502 8.21997 4.3063 6.5929 5.00858C4.7576 5.80077 3.54167 6.77766 2.29361 8.02571C2.07073 8.2486 2.0773 8.60641 2.29361 8.82271L3.90097 10.4301C4.12915 10.6583 4.49923 10.6475 4.7148 10.4126C6.53729 8.42587 9.03715 7.33175 11.7539 7.33175C14.4705 7.33175 16.9704 8.42587 18.7929 10.4126C19.0098 10.6489 19.3798 10.657 19.6067 10.4301L21.2141 8.82271C21.2194 8.81749 21.2239 8.81182 21.2289 8.8064C21.2323 8.80257 21.2359 8.79881 21.2392 8.79489C21.4332 8.57351 21.4253 8.23686 21.2141 8.02571ZM11.7539 12.9676C10.5305 12.9676 9.39783 13.5166 8.64637 14.4738C8.47025 14.6981 8.4895 15.0186 8.69115 15.2203L11.3553 17.8845C11.5754 18.1046 11.9324 18.1045 12.1524 17.8845L14.8166 15.2203C15.0182 15.0186 15.0375 14.6981 14.8614 14.4738C14.11 13.5166 12.9773 12.9676 11.7539 12.9676ZM11.7539 8.45892C9.34463 8.45892 7.09166 9.44808 5.47117 11.2442C5.27016 11.4669 5.27895 11.8081 5.49109 12.0202L7.0819 13.611C7.31297 13.8422 7.69056 13.8282 7.90453 13.5836C8.87399 12.4758 10.277 11.8405 11.7539 11.8405C13.2308 11.8405 14.6338 12.4758 15.6033 13.5836C15.8176 13.8287 16.1952 13.8418 16.4259 13.611L18.0167 12.0202C18.2288 11.8081 18.2377 11.4669 18.0366 11.2442C16.4162 9.44818 14.1633 8.45892 11.7539 8.45892Z" fill="url(#paint0_linear_451_1636)"/>
<defs>
<linearGradient id="paint0_linear_451_1636" x1="11.7539" y1="18.0495" x2="11.7539" y2="3.9502" gradientUnits="userSpaceOnUse">
<stop stop-color="#00FF85"/>
<stop offset="1" stop-color="#FFE600"/>
</linearGradient>
</defs>
</svg>
