<svg width="23" height="22" viewBox="0 0 23 22" fill="none" xmlns="http://www.w3.org/2000/svg">
<path d="M11.6862 1.8335C7.93875 1.8335 4.80623 4.55147 3.77756 8.263C3.71473 8.48971 3.88932 8.7085 4.12457 8.7085H5.68221C5.84508 8.7085 5.98772 8.60076 6.03788 8.4458C6.92434 5.70709 8.83147 4.12516 11.6862 4.12516C14.5409 4.12516 16.448 5.70709 17.3345 8.4458C17.3846 8.60076 17.5273 8.7085 17.6902 8.7085H19.2478C19.4831 8.7085 19.6576 8.48971 19.5948 8.263C18.5661 4.55147 15.4336 1.8335 11.6862 1.8335ZM11.6862 6.41683C10.3896 6.41683 9.24932 7.1152 8.53731 8.19956C8.38875 8.42581 8.56344 8.7085 8.8341 8.7085H14.5358C14.8071 8.7085 14.9817 8.42475 14.8319 8.19858C14.1197 7.12282 12.9808 6.41683 11.6862 6.41683ZM4.4734 11.0002C4.15837 11.0002 3.99 11.3712 4.19745 11.6083L11.4103 19.8515C11.5563 20.0184 11.8161 20.0184 11.9621 19.8515L19.1749 11.6083C19.3823 11.3712 19.214 11.0002 18.899 11.0002H4.4734Z" fill="url(#paint0_linear_451_1661)"/>
<defs>
<linearGradient id="paint0_linear_451_1661" x1="3.66535" y1="20.1668" x2="23.7742" y2="12.4978" gradientUnits="userSpaceOnUse">
<stop stop-color="#0357D1"/>
<stop offset="1" stop-color="#27CDFC"/>
</linearGradient>
</defs>
</svg>
