<svg width="23" height="22" viewBox="0 0 23 22" fill="none" xmlns="http://www.w3.org/2000/svg">
<path opacity="0.4" d="M11.8977 7.42501C14.5125 7.42501 16.882 8.48665 18.5937 10.1993C18.7406 10.3362 18.8584 10.5013 18.9401 10.6847C19.0219 10.8681 19.0658 11.0661 19.0694 11.2669C19.0729 11.4676 19.036 11.6671 18.9608 11.8533C18.8855 12.0395 18.7736 12.2086 18.6316 12.3506C18.4896 12.4926 18.3205 12.6045 18.1343 12.6797C17.9481 12.755 17.7487 12.7919 17.5479 12.7883C17.3471 12.7848 17.1491 12.7409 16.9657 12.6591C16.7823 12.5774 16.6172 12.4596 16.4803 12.3127C15.8793 11.7099 15.165 11.232 14.3785 10.9064C13.592 10.5808 12.7489 10.414 11.8977 10.4156C11.0466 10.4143 10.2036 10.5813 9.41733 10.9071C8.63104 11.2328 7.9169 11.7108 7.31609 12.3136C7.0357 12.5941 6.65537 12.7518 6.25875 12.7519C5.86213 12.752 5.48174 12.5945 5.20124 12.3141C4.92071 12.0338 4.76306 11.6534 4.76296 11.2568C4.76289 10.8602 4.92036 10.4798 5.20072 10.1993C6.07931 9.31862 7.12321 8.62019 8.27247 8.1441C9.42173 7.66804 10.6537 7.42363 11.8977 7.42501ZM11.8977 3.43751C15.613 3.43751 18.9805 4.94578 21.4138 7.37915C21.5526 7.51803 21.6627 7.68292 21.7378 7.86435C21.813 8.04582 21.8516 8.24028 21.8516 8.43666C21.8515 8.63305 21.8128 8.82751 21.7376 9.0089C21.6624 9.19034 21.5522 9.35516 21.4133 9.494C21.2744 9.63281 21.1095 9.74295 20.9281 9.81806C20.7466 9.89317 20.5522 9.9318 20.3558 9.93174C20.1594 9.9317 19.965 9.89296 19.7835 9.81778C19.6021 9.74257 19.4373 9.6324 19.2985 9.49349C18.3278 8.51999 17.1742 7.748 15.9041 7.22192C14.634 6.69588 13.2724 6.42607 11.8977 6.42813C9.00676 6.42813 6.39199 7.59846 4.49593 9.49349C4.35864 9.63872 4.1936 9.75498 4.0106 9.83531C3.82761 9.91568 3.63036 9.95855 3.43051 9.96137C3.23067 9.96422 3.03228 9.92692 2.84708 9.85178C2.66189 9.77664 2.49363 9.66509 2.35227 9.52381C2.21092 9.38253 2.09932 9.21433 2.02407 9.02915C1.94883 8.84401 1.91147 8.64563 1.9142 8.44577C1.91693 8.24595 1.9597 8.04867 2.03998 7.86563C2.12026 7.68258 2.23641 7.51751 2.38158 7.38015C3.62993 6.12862 5.11324 5.13605 6.74629 4.45944C8.37938 3.78287 10.13 3.43557 11.8977 3.43751Z" fill="url(#paint0_linear_451_1685)"/>
<path d="M13.9959 11.8288C13.3307 11.5534 12.6176 11.4119 11.8976 11.4126C11.1775 11.412 10.4644 11.5535 9.7991 11.8291C9.1338 12.1047 8.52949 12.5089 8.02077 13.0186C7.74038 13.2991 7.5829 13.6795 7.58301 14.0761C7.58311 14.4727 7.74075 14.853 8.02125 15.1334C8.30179 15.4138 8.68218 15.5713 9.0788 15.5712C9.47542 15.5711 9.85575 15.4134 10.1361 15.1329L10.2757 15.0023C10.7123 14.6275 11.2775 14.4032 11.8976 14.4032C12.225 14.4025 12.5493 14.4666 12.8518 14.5918C13.1543 14.7171 13.429 14.901 13.6601 15.1329L13.7737 15.2356C14.071 15.4786 14.4504 15.5979 14.8333 15.5688C15.2161 15.5398 15.5732 15.3645 15.8303 15.0794C16.0875 14.7942 16.2252 14.4211 16.2148 14.0373C16.2044 13.6534 16.0467 13.2883 15.7744 13.0176C15.2655 12.5082 14.6612 12.1042 13.9959 11.8288Z" fill="url(#paint1_linear_451_1685)"/>
<path d="M12.955 15.8379C12.6746 15.5574 12.2942 15.3999 11.8976 15.3999C11.501 15.3999 11.1207 15.5574 10.8403 15.8379C10.5599 16.1183 10.4023 16.4986 10.4023 16.8952C10.4023 17.2918 10.5599 17.6721 10.8403 17.9526C11.1207 18.233 11.501 18.3905 11.8976 18.3905C12.2942 18.3905 12.6746 18.233 12.955 17.9526C13.2354 17.6721 13.3929 17.2918 13.3929 16.8952C13.3929 16.4986 13.2354 16.1183 12.955 15.8379Z" fill="url(#paint2_linear_451_1685)"/>
<defs>
<linearGradient id="paint0_linear_451_1685" x1="5.52773" y1="11.6846" x2="12.6265" y2="-1.52136" gradientUnits="userSpaceOnUse">
<stop stop-color="#FE0844"/>
<stop offset="1" stop-color="#FEB302"/>
</linearGradient>
<linearGradient id="paint1_linear_451_1685" x1="9.14762" y1="17.5669" x2="15.4803" y2="10.7316" gradientUnits="userSpaceOnUse">
<stop stop-color="#FE0844"/>
<stop offset="1" stop-color="#FEB302"/>
</linearGradient>
<linearGradient id="paint2_linear_451_1685" x1="9.14766" y1="17.5667" x2="15.4804" y2="10.7314" gradientUnits="userSpaceOnUse">
<stop stop-color="#FE0844"/>
<stop offset="1" stop-color="#FEB302"/>
</linearGradient>
</defs>
</svg>
