<svg width="23" height="22" viewBox="0 0 23 22" fill="none" xmlns="http://www.w3.org/2000/svg">
<g clip-path="url(#clip0_451_1640)">
<path d="M20.9397 8.00233C20.9216 7.98423 20.9024 7.96806 20.8826 7.95285C18.2849 5.21677 14.7817 3.78125 11.1415 3.78125C9.27989 3.78125 7.48145 4.15008 5.79627 4.87743C3.89542 5.69791 2.63606 6.70971 1.34344 8.00233C1.1126 8.23317 1.11941 8.60377 1.34344 8.82779L3.0082 10.4926C3.24453 10.7289 3.62785 10.7178 3.85109 10.4744C5.73868 8.41677 8.32782 7.28356 11.1415 7.28356C13.9553 7.28356 16.5444 8.41677 18.432 10.4744C18.6565 10.7192 19.0399 10.7276 19.2749 10.4926L20.9397 8.82779C20.9452 8.82238 20.9498 8.8165 20.955 8.8109C20.9586 8.80693 20.9624 8.80303 20.9656 8.79897C21.1667 8.56969 21.1585 8.22102 20.9397 8.00233ZM11.1416 13.1207C9.87445 13.1207 8.70137 13.6893 7.92307 14.6807C7.74068 14.913 7.76061 15.245 7.96946 15.4538L10.7288 18.2133C10.9567 18.4412 11.3265 18.441 11.5543 18.2133L14.3137 15.4538C14.5225 15.245 14.5424 14.913 14.36 14.6807C13.5818 13.6893 12.4087 13.1207 11.1416 13.1207ZM11.1416 8.45101C8.64629 8.45101 6.31286 9.47549 4.63448 11.3357C4.42629 11.5664 4.4354 11.9198 4.65511 12.1395L6.30272 13.7871C6.54205 14.0265 6.93314 14.012 7.15474 13.7587C8.15883 12.6114 9.61197 11.9533 11.1416 11.9533C12.6712 11.9533 14.1243 12.6114 15.1284 13.7587C15.3504 14.0125 15.7415 14.0261 15.9805 13.7871L17.628 12.1395C17.8478 11.9198 17.8569 11.5664 17.6486 11.3357C15.9704 9.47561 13.6371 8.45101 11.1416 8.45101Z" fill="url(#paint0_linear_451_1640)"/>
<path d="M16.4334 11.2433C16.2992 11.109 16.0815 11.109 15.9473 11.2433L15.5099 11.6807C15.3756 11.8149 15.3756 12.0326 15.5099 12.1668L17.3657 14.0227C17.5 14.157 17.5 14.3746 17.3657 14.5089L15.5099 16.3648C15.3756 16.4991 15.3756 16.7167 15.5099 16.851L15.9473 17.2884C16.0815 17.4226 16.2992 17.4226 16.4334 17.2884L18.2894 15.4324C18.4236 15.2982 18.6412 15.2982 18.7754 15.4324L20.6314 17.2884C20.7656 17.4226 20.9834 17.4226 21.1176 17.2884L21.555 16.851C21.6892 16.7167 21.6892 16.4991 21.555 16.3648L19.6991 14.5089C19.5649 14.3746 19.5649 14.157 19.6991 14.0227L21.555 12.1668C21.6892 12.0326 21.6892 11.8149 21.555 11.6807L21.1176 11.2433C20.9834 11.109 20.7656 11.109 20.6314 11.2433L18.7754 13.0992C18.6412 13.2334 18.4236 13.2334 18.2894 13.0992L16.4334 11.2433Z" fill="url(#paint1_linear_451_1640)" stroke="url(#paint2_linear_451_1640)"/>
</g>
<defs>
<linearGradient id="paint0_linear_451_1640" x1="1.17285" y1="11.0827" x2="21.1104" y2="11.0827" gradientUnits="userSpaceOnUse">
<stop stop-color="#9EE170"/>
<stop offset="1" stop-color="#E5ECA2"/>
</linearGradient>
<linearGradient id="paint1_linear_451_1640" x1="21.5774" y1="11.1869" x2="19.0298" y2="17.5835" gradientUnits="userSpaceOnUse">
<stop stop-color="#FE0F7C"/>
<stop offset="1" stop-color="#DF0066"/>
</linearGradient>
<linearGradient id="paint2_linear_451_1640" x1="21.5774" y1="11.1869" x2="19.0298" y2="17.5835" gradientUnits="userSpaceOnUse">
<stop stop-color="#FE0F7C"/>
<stop offset="1" stop-color="#DF0066"/>
</linearGradient>
<clipPath id="clip0_451_1640">
<rect width="22" height="22" fill="white" transform="translate(0.141602)"/>
</clipPath>
</defs>
</svg>
