<svg width="23" height="22" viewBox="0 0 23 22" fill="none" xmlns="http://www.w3.org/2000/svg">
<path opacity="0.4" d="M11.6711 7.42501C14.2859 7.42501 16.6555 8.48665 18.3671 10.1993C18.514 10.3362 18.6319 10.5013 18.7136 10.6847C18.7953 10.8681 18.8392 11.0661 18.8428 11.2669C18.8463 11.4676 18.8094 11.6671 18.7342 11.8533C18.659 12.0395 18.5471 12.2086 18.4051 12.3506C18.2631 12.4926 18.0939 12.6045 17.9078 12.6797C17.7215 12.755 17.5221 12.7919 17.3214 12.7883C17.1206 12.7848 16.9226 12.7409 16.7391 12.6591C16.5557 12.5774 16.3906 12.4596 16.2537 12.3127C15.6527 11.7099 14.9384 11.232 14.1519 10.9064C13.3654 10.5808 12.5223 10.414 11.6711 10.4156C10.82 10.4143 9.97706 10.5813 9.19077 10.9071C8.40448 11.2328 7.69034 11.7108 7.08953 12.3136C6.80913 12.5941 6.42881 12.7518 6.03219 12.7519C5.63557 12.752 5.25518 12.5945 4.97468 12.3141C4.69414 12.0338 4.5365 11.6534 4.5364 11.2568C4.53633 10.8602 4.6938 10.4798 4.97416 10.1993C5.85275 9.31862 6.89665 8.62019 8.04591 8.1441C9.19517 7.66804 10.4272 7.42363 11.6711 7.42501ZM11.6711 3.43751C15.3865 3.43751 18.7539 4.94578 21.1872 7.37915C21.3261 7.51803 21.4362 7.68292 21.5113 7.86435C21.5864 8.04582 21.625 8.24028 21.625 8.43666C21.625 8.63305 21.5862 8.82751 21.511 9.0089C21.4358 9.19034 21.3257 9.35516 21.1868 9.494C21.0478 9.63281 20.883 9.74295 20.7015 9.81806C20.5201 9.89317 20.3256 9.9318 20.1292 9.93174C19.9328 9.9317 19.7384 9.89296 19.557 9.81778C19.3755 9.74257 19.2107 9.6324 19.0719 9.49349C18.1012 8.51999 16.9477 7.748 15.6775 7.22192C14.4075 6.69588 13.0459 6.42607 11.6711 6.42813C8.7802 6.42813 6.16543 7.59846 4.26937 9.49349C4.13208 9.63872 3.96704 9.75498 3.78404 9.83531C3.60104 9.91568 3.40379 9.95855 3.20395 9.96137C3.0041 9.96422 2.80572 9.92692 2.62052 9.85178C2.43532 9.77664 2.26707 9.66509 2.12571 9.52381C1.98435 9.38253 1.87275 9.21433 1.79751 9.02915C1.72227 8.84401 1.68491 8.64563 1.68764 8.44577C1.69037 8.24595 1.73314 8.04867 1.81341 7.86563C1.89369 7.68258 2.00985 7.51751 2.15502 7.38015C3.40337 6.12862 4.88668 5.13605 6.51973 4.45944C8.15282 3.78287 9.90347 3.43557 11.6711 3.43751Z" fill="url(#paint0_linear_451_1699)"/>
<path opacity="0.4" d="M13.7694 11.8288C13.1041 11.5534 12.391 11.4119 11.671 11.4126C10.9509 11.412 10.2378 11.5535 9.57253 11.8291C8.90724 12.1047 8.30293 12.5089 7.79421 13.0186C7.51381 13.2991 7.35634 13.6795 7.35645 14.0761C7.35655 14.4727 7.51419 14.853 7.79469 15.1334C8.07523 15.4138 8.45562 15.5713 8.85224 15.5712C9.24886 15.5711 9.62918 15.4134 9.90955 15.1329L10.0491 15.0023C10.4857 14.6275 11.051 14.4032 11.671 14.4032C11.9984 14.4025 12.3227 14.4666 12.6252 14.5918C12.9277 14.7171 13.2024 14.901 13.4335 15.1329L13.5471 15.2356C13.8445 15.4786 14.2238 15.5979 14.6067 15.5688C14.9896 15.5398 15.3466 15.3645 15.6038 15.0794C15.861 14.7942 15.9986 14.4211 15.9882 14.0373C15.9778 13.6534 15.8201 13.2883 15.5479 13.0176C15.039 12.5082 14.4346 12.1042 13.7694 11.8288Z" fill="url(#paint1_linear_451_1699)"/>
<path d="M12.7284 15.8379C12.448 15.5574 12.0676 15.3999 11.6711 15.3999C11.2745 15.3999 10.8942 15.5574 10.6137 15.8379C10.3333 16.1183 10.1758 16.4986 10.1758 16.8952C10.1758 17.2918 10.3333 17.6721 10.6137 17.9526C10.8942 18.233 11.2745 18.3905 11.6711 18.3905C12.0676 18.3905 12.448 18.233 12.7284 17.9526C13.0088 17.6721 13.1664 17.2918 13.1664 16.8952C13.1664 16.4986 13.0088 16.1183 12.7284 15.8379Z" fill="url(#paint2_linear_451_1699)"/>
<path d="M20.0347 12.1938H18.5313C18.3413 12.1938 18.1875 12.3477 18.1875 12.5376V17.8749C18.1875 18.0649 18.3413 18.2187 18.5313 18.2187H20.0347C20.2244 18.2187 20.3784 18.0649 20.3784 17.8749V12.5376C20.3784 12.3477 20.2244 12.1938 20.0347 12.1938Z" fill="url(#paint3_linear_451_1699)"/>
<path d="M20.3782 9.66446C20.3814 9.81028 20.3555 9.95534 20.302 10.0911C20.2484 10.2268 20.1683 10.3505 20.0664 10.4549C19.9643 10.5592 19.8424 10.6422 19.708 10.6987C19.5736 10.7554 19.4291 10.7845 19.2831 10.7846C19.1372 10.7846 18.9928 10.7555 18.8582 10.699C18.7238 10.6424 18.602 10.5595 18.4999 10.4553C18.3978 10.3509 18.3177 10.2273 18.2641 10.0916C18.2105 9.95589 18.1845 9.8109 18.1878 9.66501C18.1941 9.37874 18.3122 9.10642 18.5169 8.90615C18.7214 8.70602 18.9963 8.59382 19.2826 8.59375C19.569 8.59368 19.8438 8.70574 20.0486 8.90581C20.2534 9.10594 20.3716 9.37819 20.3782 9.66446Z" fill="url(#paint4_linear_451_1699)"/>
<defs>
<linearGradient id="paint0_linear_451_1699" x1="11.7148" y1="14.6935" x2="11.7148" y2="4.33071" gradientUnits="userSpaceOnUse">
<stop stop-color="#FDA700"/>
<stop offset="1" stop-color="#FFDE00"/>
</linearGradient>
<linearGradient id="paint1_linear_451_1699" x1="11.6979" y1="16.4207" x2="11.6979" y2="11.81" gradientUnits="userSpaceOnUse">
<stop stop-color="#FDA700"/>
<stop offset="1" stop-color="#FFDE00"/>
</linearGradient>
<linearGradient id="paint2_linear_451_1699" x1="11.6799" y1="18.9997" x2="11.6799" y2="15.6856" gradientUnits="userSpaceOnUse">
<stop stop-color="#FDA700"/>
<stop offset="1" stop-color="#FFDE00"/>
</linearGradient>
<linearGradient id="paint3_linear_451_1699" x1="19.283" y1="18.2187" x2="19.283" y2="8.59368" gradientUnits="userSpaceOnUse">
<stop stop-color="#FDA700"/>
<stop offset="1" stop-color="#FFDE00"/>
</linearGradient>
<linearGradient id="paint4_linear_451_1699" x1="19.2828" y1="18.2187" x2="19.2828" y2="8.59375" gradientUnits="userSpaceOnUse">
<stop stop-color="#FDA700"/>
<stop offset="1" stop-color="#FFDE00"/>
</linearGradient>
</defs>
</svg>
