<svg width="23" height="22" viewBox="0 0 23 22" fill="none" xmlns="http://www.w3.org/2000/svg">
<path d="M20.3887 2.92188H2.64258C2.22724 2.92188 1.89062 3.25849 1.89062 3.67383V15.5046C1.89062 15.704 1.96979 15.8953 2.11078 16.0362L5.06851 18.9939C5.2095 19.135 5.40086 19.2142 5.60031 19.2142H17.4309C17.6304 19.2142 17.8219 19.135 17.9627 18.9939L20.9205 16.0362C21.0616 15.8953 21.1406 15.704 21.1406 15.5046V3.67383C21.1406 3.25849 20.8041 2.92188 20.3887 2.92188ZM19.6367 15.1931L17.1196 17.7103H5.91166L3.39453 15.1931V4.42578H19.6367V15.1931ZM6.5473 16.0362C6.68843 16.1773 6.87966 16.2566 7.0791 16.2566H15.9521C16.1516 16.2566 16.3428 16.1773 16.4839 16.0362L17.9627 14.5575C18.1038 14.4165 18.1828 14.2251 18.1828 14.0258V6.63156C18.1828 6.21622 17.8463 5.8796 17.4309 5.8796H5.60031C5.18497 5.8796 4.84835 6.21622 4.84835 6.63156V14.0258C4.84835 14.2251 4.92752 14.4165 5.06851 14.5575L6.5473 16.0362ZM6.35226 7.38351H16.679V13.7143L15.6406 14.7527H7.39061L6.35226 13.7143V7.38351ZM10.7637 11.0681V9.58928C10.7637 9.17397 11.1003 8.83733 11.5156 8.83733C11.931 8.83733 12.2676 9.17397 12.2676 9.58928V11.0681C12.2676 11.4834 11.931 11.82 11.5156 11.82C11.1003 11.82 10.7637 11.4834 10.7637 11.0681ZM13.7214 11.0681V9.58928C13.7214 9.17397 14.058 8.83733 14.4734 8.83733C14.8887 8.83733 15.2253 9.17397 15.2253 9.58928V11.0681C15.2253 11.4834 14.8887 11.82 14.4734 11.82C14.058 11.82 13.7214 11.4834 13.7214 11.0681ZM7.80594 11.0681V9.58928C7.80594 9.17397 8.14256 8.83733 8.5579 8.83733C8.97323 8.83733 9.30985 9.17397 9.30985 9.58928V11.0681C9.30985 11.4834 8.97323 11.82 8.5579 11.82C8.14256 11.82 7.80594 11.4834 7.80594 11.0681Z" fill="url(#paint0_linear_451_1597)"/>
<defs>
<linearGradient id="paint0_linear_451_1597" x1="6.01563" y1="12.7188" x2="19.4219" y2="6.27344" gradientUnits="userSpaceOnUse">
<stop stop-color="#8800C8"/>
<stop offset="1" stop-color="#FF4AED"/>
</linearGradient>
</defs>
</svg>
