<svg width="23" height="22" viewBox="0 0 23 22" fill="none" xmlns="http://www.w3.org/2000/svg">
<path d="M11.3498 7.42501C13.9646 7.42501 16.3342 8.48665 18.0458 10.1993C18.1927 10.3362 18.3106 10.5013 18.3923 10.6847C18.474 10.8681 18.518 11.0661 18.5215 11.2669C18.525 11.4676 18.4881 11.6671 18.4129 11.8533C18.3377 12.0395 18.2258 12.2086 18.0838 12.3506C17.9418 12.4926 17.7726 12.6045 17.5865 12.6797C17.4003 12.755 17.2008 12.7919 17.0001 12.7883C16.7993 12.7848 16.6013 12.7409 16.4179 12.6591C16.2344 12.5774 16.0694 12.4596 15.9324 12.3127C15.3314 11.7099 14.6171 11.232 13.8306 10.9064C13.0442 10.5808 12.201 10.414 11.3498 10.4156C10.4988 10.4143 9.65578 10.5813 8.86948 10.9071C8.08319 11.2328 7.36905 11.7108 6.76824 12.3136C6.48784 12.5941 6.10752 12.7518 5.7109 12.7519C5.31428 12.752 4.93389 12.5945 4.65339 12.3141C4.37285 12.0338 4.21521 11.6534 4.21511 11.2568C4.21504 10.8602 4.37251 10.4798 4.65287 10.1993C5.53146 9.31862 6.57536 8.62019 7.72462 8.1441C8.87388 7.66804 10.1059 7.42363 11.3498 7.42501ZM11.3498 3.43751C15.0652 3.43751 18.4326 4.94578 20.8659 7.37915C21.0048 7.51803 21.1149 7.68292 21.19 7.86435C21.2651 8.04582 21.3037 8.24028 21.3037 8.43666C21.3037 8.63305 21.2649 8.82751 21.1898 9.0089C21.1145 9.19034 21.0044 9.35516 20.8655 9.494C20.7266 9.63281 20.5617 9.74295 20.3802 9.81806C20.1988 9.89317 20.0043 9.9318 19.8079 9.93174C19.6115 9.9317 19.4171 9.89296 19.2357 9.81778C19.0542 9.74257 18.8894 9.6324 18.7506 9.49349C17.7799 8.51999 16.6264 7.748 15.3563 7.22192C14.0862 6.69588 12.7246 6.42607 11.3498 6.42813C8.45891 6.42813 5.84414 7.59846 3.94808 9.49349C3.81079 9.63872 3.64575 9.75498 3.46275 9.83531C3.27976 9.91568 3.08251 9.95855 2.88266 9.96137C2.68281 9.96422 2.48443 9.92692 2.29923 9.85178C2.11403 9.77664 1.94578 9.66509 1.80442 9.52381C1.66307 9.38253 1.55146 9.21433 1.47622 9.02915C1.40098 8.84401 1.36362 8.64563 1.36635 8.44577C1.36908 8.24595 1.41185 8.04867 1.49213 7.86563C1.5724 7.68258 1.68856 7.51751 1.83373 7.38015C3.08208 6.12862 4.56539 5.13605 6.19844 4.45944C7.83153 3.78287 9.58218 3.43557 11.3498 3.43751Z" fill="url(#paint0_radial_451_1647)"/>
<g opacity="0.4">
<path d="M12.4071 15.8379C12.1267 15.5575 11.7464 15.3999 11.3498 15.3999C10.9532 15.3999 10.5729 15.5575 10.2925 15.8379C10.012 16.1183 9.85449 16.4986 9.85449 16.8952C9.85449 17.2918 10.012 17.6721 10.2925 17.9526C10.5729 18.233 10.9532 18.3905 11.3498 18.3905C11.7464 18.3905 12.1267 18.233 12.4071 17.9526C12.6876 17.6721 12.8451 17.2918 12.8451 16.8952C12.8451 16.4986 12.6876 16.1183 12.4071 15.8379Z" fill="url(#paint1_radial_451_1647)"/>
<path d="M13.4481 11.8288C12.7828 11.5534 12.0698 11.4119 11.3497 11.4126C10.6296 11.412 9.9165 11.5535 9.25124 11.8291C8.58595 12.1047 7.98164 12.5089 7.47292 13.0186C7.19253 13.2991 7.03505 13.6795 7.03516 14.0761C7.03526 14.4727 7.1929 14.853 7.4734 15.1334C7.75394 15.4138 8.13433 15.5713 8.53095 15.5712C8.92757 15.5711 9.30789 15.4134 9.58826 15.1329L9.72782 15.0023C10.1645 14.6275 10.7297 14.4032 11.3497 14.4032C11.6771 14.4025 12.0015 14.4666 12.3039 14.5918C12.6064 14.7171 12.8811 14.901 13.1122 15.1329L13.2259 15.2356C13.5232 15.4786 13.9026 15.5979 14.2854 15.5688C14.6683 15.5398 15.0253 15.3645 15.2825 15.0794C15.5397 14.7942 15.6773 14.4211 15.6669 14.0373C15.6565 13.6534 15.4988 13.2883 15.2266 13.0176C14.7177 12.5082 14.1133 12.1042 13.4481 11.8288Z" fill="url(#paint2_radial_451_1647)"/>
</g>
<path d="M17.6719 9.96875C16.3471 9.96875 15.161 11.051 15.161 12.3633V13.5557H14.6826C14.3515 13.5557 14.085 13.7589 14.085 14.0832V17.6331C14.085 17.9579 14.3515 18.2188 14.6826 18.2188H20.6613C20.9923 18.2188 21.2589 17.9579 21.2589 17.6331V14.0832C21.2589 13.7588 20.9923 13.5439 20.6613 13.5557H20.1828V12.3633C20.1828 11.0515 18.9965 9.96875 17.6719 9.96875ZM17.6719 11.4035C18.2681 11.4035 18.748 11.8874 18.748 12.488V13.5557H16.5958V12.488C16.5958 11.8874 17.0758 11.4035 17.6719 11.4035Z" fill="url(#paint3_radial_451_1647)"/>
<defs>
<radialGradient id="paint0_radial_451_1647" cx="0" cy="0" r="1" gradientUnits="userSpaceOnUse" gradientTransform="translate(11.335 12.4981) rotate(-95.2386) scale(9.09858 31.3618)">
<stop offset="0.393422" stop-color="#02AA93"/>
<stop offset="1" stop-color="#67FF80"/>
</radialGradient>
<radialGradient id="paint1_radial_451_1647" cx="0" cy="0" r="1" gradientUnits="userSpaceOnUse" gradientTransform="translate(11.3514 18.1738) rotate(-93.0451) scale(6.77088 13.6163)">
<stop offset="0.393422" stop-color="#02AA93"/>
<stop offset="1" stop-color="#67FF80"/>
</radialGradient>
<radialGradient id="paint2_radial_451_1647" cx="0" cy="0" r="1" gradientUnits="userSpaceOnUse" gradientTransform="translate(11.3513 18.174) rotate(-93.0451) scale(6.77088 13.6164)">
<stop offset="0.393422" stop-color="#02AA93"/>
<stop offset="1" stop-color="#67FF80"/>
</radialGradient>
<radialGradient id="paint3_radial_451_1647" cx="0" cy="0" r="1" gradientUnits="userSpaceOnUse" gradientTransform="translate(17.6719 17.9625) rotate(-92.1415) scale(7.9993 11.3241)">
<stop offset="0.393422" stop-color="#02AA93"/>
<stop offset="1" stop-color="#67FF80"/>
</radialGradient>
</defs>
</svg>
