<svg width="23" height="22" viewBox="0 0 23 22" fill="none" xmlns="http://www.w3.org/2000/svg">
<path opacity="0.4" d="M11.511 7.42501C14.1258 7.42501 16.4953 8.48665 18.207 10.1993C18.3539 10.3362 18.4717 10.5013 18.5534 10.6847C18.6352 10.8681 18.6791 11.0661 18.6826 11.2669C18.6862 11.4676 18.6493 11.6671 18.574 11.8533C18.4988 12.0395 18.3869 12.2086 18.2449 12.3506C18.1029 12.4926 17.9338 12.6045 17.7476 12.6797C17.5614 12.755 17.362 12.7919 17.1612 12.7883C16.9604 12.7848 16.7624 12.7409 16.579 12.6591C16.3956 12.5774 16.2305 12.4596 16.0936 12.3127C15.4926 11.7099 14.7783 11.232 13.9918 10.9064C13.2053 10.5808 12.3622 10.414 11.511 10.4156C10.6599 10.4143 9.81691 10.5813 9.03061 10.9071C8.24432 11.2328 7.53018 11.7108 6.92937 12.3136C6.64898 12.5941 6.26865 12.7518 5.87203 12.7519C5.47541 12.752 5.09502 12.5945 4.81452 12.3141C4.53399 12.0338 4.37634 11.6534 4.37624 11.2568C4.37617 10.8602 4.53364 10.4798 4.814 10.1993C5.6926 9.31862 6.7365 8.62019 7.88575 8.1441C9.03501 7.66804 10.267 7.42363 11.511 7.42501ZM11.511 3.43751C15.2263 3.43751 18.5937 4.94578 21.0271 7.37915C21.1659 7.51803 21.276 7.68292 21.3511 7.86435C21.4262 8.04582 21.4649 8.24028 21.4648 8.43666C21.4648 8.63305 21.4261 8.82751 21.3509 9.0089C21.2757 9.19034 21.1655 9.35516 21.0266 9.494C20.8877 9.63281 20.7228 9.74295 20.5414 9.81806C20.3599 9.89317 20.1654 9.9318 19.969 9.93174C19.7727 9.9317 19.5782 9.89296 19.3968 9.81778C19.2154 9.74257 19.0505 9.6324 18.9117 9.49349C17.9411 8.51999 16.7875 7.748 15.5174 7.22192C14.2473 6.69588 12.8857 6.42607 11.511 6.42813C8.62004 6.42813 6.00527 7.59846 4.10921 9.49349C3.97192 9.63872 3.80688 9.75498 3.62388 9.83531C3.44089 9.91568 3.24364 9.95855 3.04379 9.96137C2.84395 9.96422 2.64556 9.92692 2.46036 9.85178C2.27517 9.77664 2.10692 9.66509 1.96556 9.52381C1.8242 9.38253 1.7126 9.21433 1.63735 9.02915C1.56211 8.84401 1.52475 8.64563 1.52748 8.44577C1.53021 8.24595 1.57298 8.04867 1.65326 7.86563C1.73354 7.68258 1.84969 7.51751 1.99486 7.38015C3.24321 6.12862 4.72652 5.13605 6.35957 4.45944C7.99266 3.78287 9.74331 3.43557 11.511 3.43751Z" fill="url(#paint0_linear_451_1675)"/>
<path opacity="0.4" d="M13.6092 11.8288C12.944 11.5534 12.2309 11.4119 11.5109 11.4126C10.7908 11.412 10.0776 11.5535 9.41238 11.8291C8.74708 12.1047 8.14277 12.5089 7.63405 13.0186C7.35366 13.2991 7.19619 13.6795 7.19629 14.0761C7.19639 14.4727 7.35404 14.853 7.63454 15.1334C7.91507 15.4138 8.29546 15.5713 8.69208 15.5712C9.0887 15.5711 9.46903 15.4134 9.74939 15.1329L9.88895 15.0023C10.3256 14.6275 10.8908 14.4032 11.5109 14.4032C11.8383 14.4025 12.1626 14.4666 12.465 14.5918C12.7675 14.7171 13.0423 14.901 13.2733 15.1329L13.387 15.2356C13.6843 15.4786 14.0637 15.5979 14.4466 15.5688C14.8294 15.5398 15.1864 15.3645 15.4436 15.0794C15.7008 14.7942 15.8385 14.4211 15.8281 14.0373C15.8176 13.6534 15.66 13.2883 15.3877 13.0176C14.8788 12.5082 14.2745 12.1042 13.6092 11.8288Z" fill="url(#paint1_linear_451_1675)"/>
<path d="M12.5682 15.8379C12.2878 15.5574 11.9075 15.3999 11.5109 15.3999C11.1143 15.3999 10.734 15.5574 10.4536 15.8379C10.1732 16.1183 10.0156 16.4986 10.0156 16.8952C10.0156 17.2918 10.1732 17.6721 10.4536 17.9526C10.734 18.233 11.1143 18.3905 11.5109 18.3905C11.9075 18.3905 12.2878 18.233 12.5682 17.9526C12.8487 17.6721 13.0062 17.2918 13.0062 16.8952C13.0062 16.4986 12.8487 16.1183 12.5682 15.8379Z" fill="url(#paint2_linear_451_1675)"/>
<path d="M19.8745 12.1938H18.3711C18.1811 12.1938 18.0273 12.3477 18.0273 12.5376V17.8749C18.0273 18.0649 18.1811 18.2187 18.3711 18.2187H19.8745C20.0643 18.2187 20.2183 18.0649 20.2183 17.8749V12.5376C20.2183 12.3477 20.0643 12.1938 19.8745 12.1938Z" fill="url(#paint3_linear_451_1675)"/>
<path d="M20.218 9.66446C20.2212 9.81028 20.1953 9.95534 20.1418 10.0911C20.0882 10.2268 20.0081 10.3505 19.9062 10.4549C19.8041 10.5592 19.6822 10.6422 19.5478 10.6987C19.4134 10.7554 19.2689 10.7845 19.1229 10.7846C18.9771 10.7846 18.8327 10.7555 18.6981 10.699C18.5637 10.6424 18.4418 10.5595 18.3397 10.4553C18.2377 10.3509 18.1576 10.2273 18.1039 10.0916C18.0503 9.95589 18.0243 9.8109 18.0276 9.66501C18.0339 9.37874 18.1521 9.10642 18.3567 8.90615C18.5613 8.70602 18.8361 8.59382 19.1225 8.59375C19.4088 8.59368 19.6836 8.70574 19.8885 8.90581C20.0932 9.10594 20.2115 9.37819 20.218 9.66446Z" fill="url(#paint4_linear_451_1675)"/>
<defs>
<linearGradient id="paint0_linear_451_1675" x1="11.5546" y1="14.6935" x2="11.5546" y2="4.33071" gradientUnits="userSpaceOnUse">
<stop stop-color="#FDA700"/>
<stop offset="1" stop-color="#FFDE00"/>
</linearGradient>
<linearGradient id="paint1_linear_451_1675" x1="11.5378" y1="16.4207" x2="11.5378" y2="11.81" gradientUnits="userSpaceOnUse">
<stop stop-color="#FDA700"/>
<stop offset="1" stop-color="#FFDE00"/>
</linearGradient>
<linearGradient id="paint2_linear_451_1675" x1="11.5197" y1="18.9997" x2="11.5197" y2="15.6856" gradientUnits="userSpaceOnUse">
<stop stop-color="#FDA700"/>
<stop offset="1" stop-color="#FFDE00"/>
</linearGradient>
<linearGradient id="paint3_linear_451_1675" x1="19.1229" y1="18.2187" x2="19.1229" y2="8.59368" gradientUnits="userSpaceOnUse">
<stop stop-color="#FDA700"/>
<stop offset="1" stop-color="#FFDE00"/>
</linearGradient>
<linearGradient id="paint4_linear_451_1675" x1="19.1226" y1="18.2187" x2="19.1226" y2="8.59375" gradientUnits="userSpaceOnUse">
<stop stop-color="#FDA700"/>
<stop offset="1" stop-color="#FFDE00"/>
</linearGradient>
</defs>
</svg>
