<svg width="23" height="22" viewBox="0 0 23 22" fill="none" xmlns="http://www.w3.org/2000/svg">
<path opacity="0.4" d="M20.3037 2.92188H2.55762C2.14228 2.92188 1.80566 3.25849 1.80566 3.67383V15.5046C1.80566 15.704 1.88482 15.8953 2.02582 16.0362L4.98355 18.9939C5.12454 19.135 5.3159 19.2142 5.51535 19.2142H17.346C17.5454 19.2142 17.7369 19.135 17.8777 18.9939L20.8355 16.0362C20.9766 15.8953 21.0557 15.704 21.0557 15.5046V3.67383C21.0557 3.25849 20.7191 2.92188 20.3037 2.92188Z" fill="url(#paint0_linear_451_1719)"/>
<path opacity="0.6" fill-rule="evenodd" clip-rule="evenodd" d="M6.46262 16.036C6.60375 16.177 6.79498 16.2563 6.99442 16.2563H15.8675C16.0669 16.2563 16.2581 16.177 16.3993 16.036L17.878 14.5573C18.0191 14.4163 18.0981 14.2249 18.0981 14.0256V6.63135C18.0981 6.21601 17.7616 5.87939 17.3463 5.87939H5.51562C5.10029 5.87939 4.76367 6.21601 4.76367 6.63135V14.0256C4.76367 14.2249 4.84284 14.4163 4.98383 14.5573L6.46262 16.036ZM6.26758 7.3833H16.5943V13.7141L15.556 14.7524H7.30593L6.26758 13.7141V7.3833Z" fill="url(#paint1_linear_451_1719)"/>
<defs>
<linearGradient id="paint0_linear_451_1719" x1="20.9986" y1="3.02516" x2="5.03538" y2="21.7293" gradientUnits="userSpaceOnUse">
<stop stop-color="#FE7970"/>
<stop offset="1" stop-color="#DC3282"/>
</linearGradient>
<linearGradient id="paint1_linear_451_1719" x1="18.0586" y1="5.94519" x2="8.05865" y2="18.6883" gradientUnits="userSpaceOnUse">
<stop stop-color="#FE7970"/>
<stop offset="1" stop-color="#DC3282"/>
</linearGradient>
</defs>
</svg>
