<svg width="23" height="22" viewBox="0 0 23 22" fill="none" xmlns="http://www.w3.org/2000/svg">
<path d="M20.4971 2.92188H2.75098C2.33564 2.92188 1.99902 3.25849 1.99902 3.67383V15.5046C1.99902 15.704 2.07818 15.8953 2.21918 16.0362L5.17691 18.9939C5.3179 19.135 5.50926 19.2142 5.7087 19.2142H17.5393C17.7388 19.2142 17.9303 19.135 18.0711 18.9939L21.0289 16.0362C21.17 15.8953 21.249 15.704 21.249 15.5046V3.67383C21.249 3.25849 20.9125 2.92188 20.4971 2.92188ZM19.7451 15.1931L17.228 17.7103H6.02006L3.50293 15.1931V4.42578H19.7451V15.1931ZM6.6557 16.0362C6.79683 16.1773 6.98806 16.2566 7.1875 16.2566H16.0605C16.26 16.2566 16.4512 16.1773 16.5923 16.0362L18.0711 14.5575C18.2122 14.4165 18.2912 14.2251 18.2912 14.0258V6.63156C18.2912 6.21622 17.9547 5.8796 17.5393 5.8796H5.7087C5.29337 5.8796 4.95675 6.21622 4.95675 6.63156V14.0258C4.95675 14.2251 5.03592 14.4165 5.17691 14.5575L6.6557 16.0362ZM6.46066 7.38351H16.7874V13.7143L15.749 14.7527H7.49901L6.46066 13.7143V7.38351ZM10.8721 11.0681V9.58928C10.8721 9.17397 11.2087 8.83733 11.624 8.83733C12.0394 8.83733 12.376 9.17397 12.376 9.58928V11.0681C12.376 11.4834 12.0394 11.82 11.624 11.82C11.2087 11.82 10.8721 11.4834 10.8721 11.0681ZM13.8298 11.0681V9.58928C13.8298 9.17397 14.1664 8.83733 14.5818 8.83733C14.9971 8.83733 15.3337 9.17397 15.3337 9.58928V11.0681C15.3337 11.4834 14.9971 11.82 14.5818 11.82C14.1664 11.82 13.8298 11.4834 13.8298 11.0681ZM7.91434 11.0681V9.58928C7.91434 9.17397 8.25096 8.83733 8.6663 8.83733C9.08163 8.83733 9.41825 9.17397 9.41825 9.58928V11.0681C9.41825 11.4834 9.08163 11.82 8.6663 11.82C8.25096 11.82 7.91434 11.4834 7.91434 11.0681Z" fill="url(#paint0_linear_451_1722)"/>
<defs>
<linearGradient id="paint0_linear_451_1722" x1="6.12402" y1="12.7188" x2="19.5303" y2="6.27344" gradientUnits="userSpaceOnUse">
<stop stop-color="#8800C8"/>
<stop offset="1" stop-color="#FF4AED"/>
</linearGradient>
</defs>
</svg>
