<svg width="23" height="22" viewBox="0 0 23 22" fill="none" xmlns="http://www.w3.org/2000/svg">
<path d="M20.4709 8.02571C20.4536 8.00823 20.435 7.99263 20.4157 7.97793C17.9077 5.33621 14.5253 3.9502 11.0107 3.9502C9.21322 3.9502 7.4768 4.3063 5.84973 5.00858C4.01443 5.80077 2.7985 6.77766 1.55045 8.02571C1.32757 8.2486 1.33414 8.60641 1.55045 8.82271L3.15781 10.4301C3.38599 10.6583 3.75607 10.6475 3.97164 10.4126C5.79413 8.42587 8.29398 7.33175 11.0107 7.33175C13.7274 7.33175 16.2273 8.42587 18.0497 10.4126C18.2666 10.6489 18.6367 10.657 18.8635 10.4301L20.4709 8.82271C20.4762 8.81749 20.4807 8.81182 20.4857 8.8064C20.4891 8.80257 20.4927 8.79881 20.496 8.79489C20.6901 8.57351 20.6822 8.23686 20.4709 8.02571ZM11.0107 12.9676C9.7873 12.9676 8.65466 13.5166 7.90321 14.4738C7.72709 14.6981 7.74634 15.0186 7.94798 15.2203L10.6122 17.8845C10.8322 18.1046 11.1893 18.1045 11.4092 17.8845L14.0734 15.2203C14.2751 15.0186 14.2943 14.6981 14.1182 14.4738C13.3668 13.5166 12.2341 12.9676 11.0107 12.9676ZM11.0107 8.45892C8.60147 8.45892 6.3485 9.44808 4.72801 11.2442C4.527 11.4669 4.53578 11.8081 4.74793 12.0202L6.33873 13.611C6.5698 13.8422 6.94739 13.8282 7.16136 13.5836C8.13082 12.4758 9.53386 11.8405 11.0107 11.8405C12.4876 11.8405 13.8906 12.4758 14.8601 13.5836C15.0744 13.8287 15.452 13.8418 15.6828 13.611L17.2735 12.0202C17.4856 11.8081 17.4946 11.4669 17.2935 11.2442C15.673 9.44818 13.4202 8.45892 11.0107 8.45892Z" fill="url(#paint0_linear_451_1726)"/>
<defs>
<linearGradient id="paint0_linear_451_1726" x1="11.0107" y1="18.0495" x2="11.0107" y2="3.9502" gradientUnits="userSpaceOnUse">
<stop stop-color="#00FF85"/>
<stop offset="1" stop-color="#FFE600"/>
</linearGradient>
</defs>
</svg>
