<svg width="23" height="22" viewBox="0 0 23 22" fill="none" xmlns="http://www.w3.org/2000/svg">
<path d="M21.2776 8.02571C21.2602 8.00823 21.2416 7.99263 21.2224 7.97793C18.7144 5.33621 15.3319 3.9502 11.8173 3.9502C10.0199 3.9502 8.28344 4.3063 6.65637 5.00858C4.82107 5.80077 3.60514 6.77766 2.35709 8.02571C2.13421 8.2486 2.14078 8.60641 2.35709 8.82271L3.96445 10.4301C4.19263 10.6583 4.56271 10.6475 4.77828 10.4126C6.60077 8.42587 9.10062 7.33175 11.8173 7.33175C14.534 7.33175 17.0339 8.42587 18.8564 10.4126C19.0733 10.6489 19.4433 10.657 19.6702 10.4301L21.2776 8.82271C21.2829 8.81749 21.2874 8.81182 21.2923 8.8064C21.2958 8.80257 21.2994 8.79881 21.3026 8.79489C21.4967 8.57351 21.4888 8.23686 21.2776 8.02571ZM11.8174 12.9676C10.5939 12.9676 9.4613 13.5166 8.70985 14.4738C8.53373 14.6981 8.55298 15.0186 8.75462 15.2203L11.4188 17.8845C11.6389 18.1046 11.9959 18.1045 12.2159 17.8845L14.8801 15.2203C15.0817 15.0186 15.101 14.6981 14.9249 14.4738C14.1734 13.5166 13.0408 12.9676 11.8174 12.9676ZM11.8174 8.45892C9.40811 8.45892 7.15514 9.44808 5.53465 11.2442C5.33364 11.4669 5.34242 11.8081 5.55457 12.0202L7.14537 13.611C7.37644 13.8422 7.75403 13.8282 7.968 13.5836C8.93746 12.4758 10.3405 11.8405 11.8174 11.8405C13.2942 11.8405 14.6973 12.4758 15.6667 13.5836C15.8811 13.8287 16.2586 13.8418 16.4894 13.611L18.0802 12.0202C18.2923 11.8081 18.3012 11.4669 18.1001 11.2442C16.4797 9.44818 14.2268 8.45892 11.8174 8.45892Z" fill="url(#paint0_linear_451_1724)"/>
<defs>
<linearGradient id="paint0_linear_451_1724" x1="11.8174" y1="18.0495" x2="11.8174" y2="3.9502" gradientUnits="userSpaceOnUse">
<stop stop-color="#00FF85"/>
<stop offset="1" stop-color="#FFE600"/>
</linearGradient>
</defs>
</svg>
