<svg width="23" height="22" viewBox="0 0 23 22" fill="none" xmlns="http://www.w3.org/2000/svg">
<path opacity="0.4" d="M11.4133 7.42501C14.0281 7.42501 16.3977 8.48665 18.1093 10.1993C18.2562 10.3362 18.3741 10.5013 18.4558 10.6847C18.5375 10.8681 18.5814 11.0661 18.585 11.2669C18.5885 11.4676 18.5516 11.6671 18.4764 11.8533C18.4012 12.0395 18.2892 12.2086 18.1472 12.3506C18.0052 12.4926 17.8361 12.6045 17.6499 12.6797C17.4637 12.755 17.2643 12.7919 17.0635 12.7883C16.8628 12.7848 16.6648 12.7409 16.4813 12.6591C16.2979 12.5774 16.1328 12.4596 15.9959 12.3127C15.3949 11.7099 14.6806 11.232 13.8941 10.9064C13.1076 10.5808 12.2645 10.414 11.4133 10.4156C10.5622 10.4143 9.71925 10.5813 8.93296 10.9071C8.14666 11.2328 7.43252 11.7108 6.83172 12.3136C6.55132 12.5941 6.171 12.7518 5.77438 12.7519C5.37776 12.752 4.99736 12.5945 4.71686 12.3141C4.43633 12.0338 4.27869 11.6534 4.27858 11.2568C4.27851 10.8602 4.43599 10.4798 4.71635 10.1993C5.59494 9.31862 6.63884 8.62019 7.7881 8.1441C8.93736 7.66804 10.1694 7.42363 11.4133 7.42501ZM11.4133 3.43751C15.1286 3.43751 18.4961 4.94578 20.9294 7.37915C21.0683 7.51803 21.1784 7.68292 21.2535 7.86435C21.3286 8.04582 21.3672 8.24028 21.3672 8.43666C21.3672 8.63305 21.3284 8.82751 21.2532 9.0089C21.178 9.19034 21.0678 9.35516 20.9289 9.494C20.79 9.63281 20.6252 9.74295 20.4437 9.81806C20.2623 9.89317 20.0678 9.9318 19.8714 9.93174C19.675 9.9317 19.4806 9.89296 19.2992 9.81778C19.1177 9.74257 18.9529 9.6324 18.8141 9.49349C17.8434 8.51999 16.6898 7.748 15.4197 7.22192C14.1496 6.69588 12.788 6.42607 11.4133 6.42813C8.52238 6.42813 5.90761 7.59846 4.01156 9.49349C3.87426 9.63872 3.70923 9.75498 3.52623 9.83531C3.34323 9.91568 3.14598 9.95855 2.94614 9.96137C2.74629 9.96422 2.54791 9.92692 2.36271 9.85178C2.17751 9.77664 2.00926 9.66509 1.8679 9.52381C1.72654 9.38253 1.61494 9.21433 1.5397 9.02915C1.46445 8.84401 1.42709 8.64563 1.42983 8.44577C1.43256 8.24595 1.47533 8.04867 1.5556 7.86563C1.63588 7.68258 1.75203 7.51751 1.8972 7.38015C3.14556 6.12862 4.62886 5.13605 6.26192 4.45944C7.895 3.78287 9.64566 3.43557 11.4133 3.43751Z" fill="url(#paint0_linear_451_1733)"/>
<path opacity="0.4" d="M13.5116 11.8288C12.8463 11.5534 12.1332 11.4119 11.4132 11.4126C10.6931 11.412 9.97998 11.5535 9.31472 11.8291C8.64943 12.1047 8.04511 12.5089 7.5364 13.0186C7.256 13.2991 7.09853 13.6795 7.09863 14.0761C7.09874 14.4727 7.25638 14.853 7.53688 15.1334C7.81741 15.4138 8.19781 15.5713 8.59443 15.5712C8.99105 15.5711 9.37137 15.4134 9.65173 15.1329L9.7913 15.0023C10.2279 14.6275 10.7932 14.4032 11.4132 14.4032C11.7406 14.4025 12.0649 14.4666 12.3674 14.5918C12.6699 14.7171 12.9446 14.901 13.1757 15.1329L13.2893 15.2356C13.5866 15.4786 13.966 15.5979 14.3489 15.5688C14.7318 15.5398 15.0888 15.3645 15.346 15.0794C15.6031 14.7942 15.7408 14.4211 15.7304 14.0373C15.72 13.6534 15.5623 13.2883 15.2901 13.0176C14.7812 12.5082 14.1768 12.1042 13.5116 11.8288Z" fill="url(#paint1_linear_451_1733)"/>
<path d="M12.4706 15.8379C12.1902 15.5574 11.8098 15.3999 11.4132 15.3999C11.0167 15.3999 10.6363 15.5574 10.3559 15.8379C10.0755 16.1183 9.91797 16.4986 9.91797 16.8952C9.91797 17.2918 10.0755 17.6721 10.3559 17.9526C10.6363 18.233 11.0167 18.3905 11.4132 18.3905C11.8098 18.3905 12.1902 18.233 12.4706 17.9526C12.751 17.6721 12.9086 17.2918 12.9086 16.8952C12.9086 16.4986 12.751 16.1183 12.4706 15.8379Z" fill="url(#paint2_linear_451_1733)"/>
<defs>
<linearGradient id="paint0_linear_451_1733" x1="5.04336" y1="11.6846" x2="12.1422" y2="-1.52136" gradientUnits="userSpaceOnUse">
<stop stop-color="#FE0844"/>
<stop offset="1" stop-color="#FEB302"/>
</linearGradient>
<linearGradient id="paint1_linear_451_1733" x1="8.66325" y1="17.5669" x2="14.9959" y2="10.7316" gradientUnits="userSpaceOnUse">
<stop stop-color="#FE0844"/>
<stop offset="1" stop-color="#FEB302"/>
</linearGradient>
<linearGradient id="paint2_linear_451_1733" x1="8.66328" y1="17.5667" x2="14.996" y2="10.7314" gradientUnits="userSpaceOnUse">
<stop stop-color="#FE0844"/>
<stop offset="1" stop-color="#FEB302"/>
</linearGradient>
</defs>
</svg>
