<svg width="23" height="22" viewBox="0 0 23 22" fill="none" xmlns="http://www.w3.org/2000/svg">
<path d="M21.052 8.02571C21.0346 8.00823 21.016 7.99263 20.9968 7.97793C18.4888 5.33621 15.1063 3.9502 11.5917 3.9502C9.79428 3.9502 8.05786 4.3063 6.43079 5.00858C4.59549 5.80077 3.37956 6.77766 2.1315 8.02571C1.90862 8.2486 1.91519 8.60641 2.1315 8.82271L3.73886 10.4301C3.96704 10.6583 4.33713 10.6475 4.55269 10.4126C6.37518 8.42587 8.87504 7.33175 11.5917 7.33175C14.3084 7.33175 16.8083 8.42587 18.6308 10.4126C18.8477 10.6489 19.2177 10.657 19.4446 10.4301L21.052 8.82271C21.0573 8.81749 21.0618 8.81182 21.0668 8.8064C21.0702 8.80257 21.0738 8.79881 21.0771 8.79489C21.2711 8.57351 21.2632 8.23686 21.052 8.02571ZM11.5918 12.9676C10.3684 12.9676 9.23572 13.5166 8.48426 14.4738C8.30814 14.6981 8.32739 15.0186 8.52904 15.2203L11.1932 17.8845C11.4133 18.1046 11.7703 18.1045 11.9903 17.8845L14.6545 15.2203C14.8561 15.0186 14.8754 14.6981 14.6993 14.4738C13.9478 13.5166 12.8152 12.9676 11.5918 12.9676ZM11.5918 8.45892C9.18252 8.45892 6.92955 9.44808 5.30906 11.2442C5.10805 11.4669 5.11684 11.8081 5.32898 12.0202L6.91979 13.611C7.15086 13.8422 7.52845 13.8282 7.74242 13.5836C8.71188 12.4758 10.1149 11.8405 11.5918 11.8405C13.0687 11.8405 14.4717 12.4758 15.4411 13.5836C15.6555 13.8287 16.033 13.8418 16.2638 13.611L17.8546 12.0202C18.0667 11.8081 18.0756 11.4669 17.8745 11.2442C16.2541 9.44818 14.0012 8.45892 11.5918 8.45892Z" fill="url(#paint0_linear_451_1737)"/>
<defs>
<linearGradient id="paint0_linear_451_1737" x1="11.5918" y1="18.0495" x2="11.4199" y2="11.2576" gradientUnits="userSpaceOnUse">
<stop stop-color="#00FF85"/>
<stop offset="1" stop-color="#FFE600"/>
</linearGradient>
</defs>
</svg>
