<svg width="23" height="22" viewBox="0 0 23 22" fill="none" xmlns="http://www.w3.org/2000/svg">
<path d="M21.4387 8.02571C21.4213 8.00823 21.4028 7.99263 21.3835 7.97793C18.8755 5.33621 15.4931 3.9502 11.9785 3.9502C10.181 3.9502 8.44458 4.3063 6.81751 5.00858C4.98221 5.80077 3.76628 6.77766 2.51822 8.02571C2.29534 8.2486 2.30191 8.60641 2.51822 8.82271L4.12558 10.4301C4.35376 10.6583 4.72384 10.6475 4.93941 10.4126C6.7619 8.42587 9.26176 7.33175 11.9785 7.33175C14.6952 7.33175 17.195 8.42587 19.0175 10.4126C19.2344 10.6489 19.6044 10.657 19.8313 10.4301L21.4387 8.82271C21.444 8.81749 21.4485 8.81182 21.4535 8.8064C21.4569 8.80257 21.4605 8.79881 21.4638 8.79489C21.6578 8.57351 21.6499 8.23686 21.4387 8.02571ZM11.9785 12.9676C10.7551 12.9676 9.62244 13.5166 8.87098 14.4738C8.69486 14.6981 8.71411 15.0186 8.91576 15.2203L11.58 17.8845C11.8 18.1046 12.157 18.1045 12.377 17.8845L15.0412 15.2203C15.2428 15.0186 15.2621 14.6981 15.086 14.4738C14.3346 13.5166 13.2019 12.9676 11.9785 12.9676ZM11.9785 8.45892C9.56924 8.45892 7.31627 9.44808 5.69578 11.2442C5.49477 11.4669 5.50355 11.8081 5.7157 12.0202L7.30651 13.611C7.53758 13.8422 7.91517 13.8282 8.12913 13.5836C9.0986 12.4758 10.5016 11.8405 11.9785 11.8405C13.4554 11.8405 14.8584 12.4758 15.8279 13.5836C16.0422 13.8287 16.4198 13.8418 16.6505 13.611L18.2413 12.0202C18.4534 11.8081 18.4623 11.4669 18.2612 11.2442C16.6408 9.44818 14.3879 8.45892 11.9785 8.45892Z" fill="url(#paint0_linear_451_1741)"/>
<defs>
<linearGradient id="paint0_linear_451_1741" x1="11.9785" y1="18.0495" x2="11.9785" y2="3.9502" gradientUnits="userSpaceOnUse">
<stop stop-color="#00FF85"/>
<stop offset="1" stop-color="#FFE600"/>
</linearGradient>
</defs>
</svg>
