<svg width="23" height="22" viewBox="0 0 23 22" fill="none" xmlns="http://www.w3.org/2000/svg">
<path opacity="0.4" d="M11.219 7.42501C13.8338 7.42501 16.2033 8.48665 17.915 10.1993C18.0619 10.3362 18.1797 10.5013 18.2614 10.6847C18.3432 10.8681 18.3871 11.0661 18.3906 11.2669C18.3942 11.4676 18.3573 11.6671 18.2821 11.8533C18.2068 12.0395 18.0949 12.2086 17.9529 12.3506C17.8109 12.4926 17.6418 12.6045 17.4556 12.6797C17.2694 12.755 17.07 12.7919 16.8692 12.7883C16.6684 12.7848 16.4704 12.7409 16.287 12.6591C16.1036 12.5774 15.9385 12.4596 15.8016 12.3127C15.2006 11.7099 14.4863 11.232 13.6998 10.9064C12.9133 10.5808 12.0702 10.414 11.219 10.4156C10.3679 10.4143 9.52492 10.5813 8.73862 10.9071C7.95233 11.2328 7.23819 11.7108 6.63738 12.3136C6.35698 12.5941 5.97666 12.7518 5.58004 12.7519C5.18342 12.752 4.80303 12.5945 4.52253 12.3141C4.24199 12.0338 4.08435 11.6534 4.08425 11.2568C4.08418 10.8602 4.24165 10.4798 4.52201 10.1993C5.4006 9.31862 6.4445 8.62019 7.59376 8.1441C8.74302 7.66804 9.97502 7.42363 11.219 7.42501ZM11.219 3.43751C14.9343 3.43751 18.3017 4.94578 20.7351 7.37915C20.8739 7.51803 20.984 7.68292 21.0591 7.86435C21.1342 8.04582 21.1729 8.24028 21.1729 8.43666C21.1728 8.63305 21.1341 8.82751 21.0589 9.0089C20.9837 9.19034 20.8735 9.35516 20.7346 9.494C20.5957 9.63281 20.4308 9.74295 20.2494 9.81806C20.0679 9.89317 19.8734 9.9318 19.6771 9.93174C19.4807 9.9317 19.2862 9.89296 19.1048 9.81778C18.9234 9.74257 18.7586 9.6324 18.6198 9.49349C17.6491 8.51999 16.4955 7.748 15.2254 7.22192C13.9553 6.69588 12.5937 6.42607 11.219 6.42813C8.32805 6.42813 5.71328 7.59846 3.81722 9.49349C3.67993 9.63872 3.51489 9.75498 3.33189 9.83531C3.1489 9.91568 2.95165 9.95855 2.7518 9.96137C2.55195 9.96422 2.35357 9.92692 2.16837 9.85178C1.98318 9.77664 1.81492 9.66509 1.67356 9.52381C1.53221 9.38253 1.4206 9.21433 1.34536 9.02915C1.27012 8.84401 1.23276 8.64563 1.23549 8.44577C1.23822 8.24595 1.28099 8.04867 1.36127 7.86563C1.44155 7.68258 1.5577 7.51751 1.70287 7.38015C2.95122 6.12862 4.43453 5.13605 6.06758 4.45944C7.70067 3.78287 9.45132 3.43557 11.219 3.43751Z" fill="url(#paint0_linear_451_1728)"/>
<path opacity="0.7" d="M13.3172 11.8288C12.652 11.5534 11.9389 11.4119 11.2189 11.4126C10.4988 11.412 9.78564 11.5535 9.12038 11.8291C8.45509 12.1047 7.85078 12.5089 7.34206 13.0186C7.06167 13.2991 6.90419 13.6795 6.9043 14.0761C6.9044 14.4727 7.06204 14.853 7.34254 15.1334C7.62308 15.4138 8.00347 15.5713 8.40009 15.5712C8.79671 15.5711 9.17703 15.4134 9.4574 15.1329L9.59696 15.0023C10.0336 14.6275 10.5988 14.4032 11.2189 14.4032C11.5463 14.4025 11.8706 14.4666 12.1731 14.5918C12.4756 14.7171 12.7503 14.901 12.9814 15.1329L13.095 15.2356C13.3923 15.4786 13.7717 15.5979 14.1546 15.5688C14.5374 15.5398 14.8945 15.3645 15.1516 15.0794C15.4088 14.7942 15.5465 14.4211 15.5361 14.0373C15.5257 13.6534 15.368 13.2883 15.0957 13.0176C14.5868 12.5082 13.9825 12.1042 13.3172 11.8288Z" fill="url(#paint1_linear_451_1728)"/>
<path d="M12.2763 15.8379C11.9959 15.5574 11.6155 15.3999 11.2189 15.3999C10.8223 15.3999 10.442 15.5574 10.1616 15.8379C9.88117 16.1183 9.72363 16.4986 9.72363 16.8952C9.72363 17.2918 9.88117 17.6721 10.1616 17.9526C10.442 18.233 10.8223 18.3905 11.2189 18.3905C11.6155 18.3905 11.9959 18.233 12.2763 17.9526C12.5567 17.6721 12.7142 17.2918 12.7142 16.8952C12.7142 16.4986 12.5567 16.1183 12.2763 15.8379Z" fill="url(#paint2_linear_451_1728)"/>
<path d="M17.5411 9.96875C16.2163 9.96875 15.0302 11.051 15.0302 12.3633V13.5557H14.5517C14.2207 13.5557 13.9541 13.7589 13.9541 14.0832V17.6331C13.9541 17.9579 14.2207 18.2188 14.5517 18.2188H20.5304C20.8614 18.2188 21.128 17.9579 21.128 17.6331V14.0832C21.128 13.7588 20.8614 13.5439 20.5304 13.5557H20.0519V12.3633C20.0519 11.0515 18.8657 9.96875 17.5411 9.96875ZM17.5411 11.4035C18.1372 11.4035 18.6171 11.8874 18.6171 12.488V13.5557H16.465V12.488C16.465 11.8874 16.9449 11.4035 17.5411 11.4035Z" fill="url(#paint3_linear_451_1728)"/>
<defs>
<linearGradient id="paint0_linear_451_1728" x1="4.84902" y1="11.6846" x2="11.9478" y2="-1.52136" gradientUnits="userSpaceOnUse">
<stop stop-color="#FE0844"/>
<stop offset="1" stop-color="#FEB302"/>
</linearGradient>
<linearGradient id="paint1_linear_451_1728" x1="8.46891" y1="17.5669" x2="14.8016" y2="10.7316" gradientUnits="userSpaceOnUse">
<stop stop-color="#FE0844"/>
<stop offset="1" stop-color="#FEB302"/>
</linearGradient>
<linearGradient id="paint2_linear_451_1728" x1="8.46895" y1="17.5667" x2="14.8016" y2="10.7314" gradientUnits="userSpaceOnUse">
<stop stop-color="#FE0844"/>
<stop offset="1" stop-color="#FEB302"/>
</linearGradient>
<linearGradient id="paint3_linear_451_1728" x1="21.1067" y1="10.021" x2="13.0107" y2="17.0025" gradientUnits="userSpaceOnUse">
<stop stop-color="#FE7970"/>
<stop offset="1" stop-color="#DC3282"/>
</linearGradient>
</defs>
</svg>
