<svg width="23" height="22" viewBox="0 0 23 22" fill="none" xmlns="http://www.w3.org/2000/svg">
<path d="M21.2453 8.02571C21.228 8.00823 21.2094 7.99263 21.1902 7.97793C18.6822 5.33621 15.2997 3.9502 11.7851 3.9502C9.98764 3.9502 8.25122 4.3063 6.62415 5.00858C4.78885 5.80077 3.57292 6.77766 2.32486 8.02571C2.10198 8.2486 2.10855 8.60641 2.32486 8.82271L3.93222 10.4301C4.1604 10.6583 4.53048 10.6475 4.74605 10.4126C6.56854 8.42587 9.0684 7.33175 11.7851 7.33175C14.5018 7.33175 17.0017 8.42587 18.8241 10.4126C19.041 10.6489 19.4111 10.657 19.638 10.4301L21.2453 8.82271C21.2507 8.81749 21.2551 8.81182 21.2601 8.8064C21.2635 8.80257 21.2672 8.79881 21.2704 8.79489C21.4645 8.57351 21.4566 8.23686 21.2453 8.02571ZM11.7851 12.9676C10.5617 12.9676 9.42908 13.5166 8.67762 14.4738C8.5015 14.6981 8.52075 15.0186 8.7224 15.2203L11.3866 17.8845C11.6066 18.1046 11.9637 18.1045 12.1836 17.8845L14.8478 15.2203C15.0495 15.0186 15.0687 14.6981 14.8926 14.4738C14.1412 13.5166 13.0086 12.9676 11.7851 12.9676ZM11.7851 8.45892C9.37588 8.45892 7.12291 9.44808 5.50242 11.2442C5.30141 11.4669 5.3102 11.8081 5.52234 12.0202L7.11315 13.611C7.34422 13.8422 7.72181 13.8282 7.93578 13.5836C8.90524 12.4758 10.3083 11.8405 11.7851 11.8405C13.262 11.8405 14.665 12.4758 15.6345 13.5836C15.8488 13.8287 16.2264 13.8418 16.4572 13.611L18.0479 12.0202C18.26 11.8081 18.269 11.4669 18.0679 11.2442C16.4474 9.44818 14.1946 8.45892 11.7851 8.45892Z" fill="url(#paint0_linear_451_1739)"/>
<defs>
<linearGradient id="paint0_linear_451_1739" x1="11.7851" y1="18.0495" x2="11.7851" y2="3.9502" gradientUnits="userSpaceOnUse">
<stop stop-color="#00FF85"/>
<stop offset="1" stop-color="#FFE600"/>
</linearGradient>
</defs>
</svg>
