<svg width="23" height="22" viewBox="0 0 23 22" fill="none" xmlns="http://www.w3.org/2000/svg">
<path opacity="0.4" d="M11.1545 7.42501C13.7693 7.42501 16.1389 8.48665 17.8505 10.1993C17.9974 10.3362 18.1153 10.5013 18.197 10.6847C18.2787 10.8681 18.3226 11.0661 18.3262 11.2669C18.3297 11.4676 18.2928 11.6671 18.2176 11.8533C18.1424 12.0395 18.0305 12.2086 17.8885 12.3506C17.7465 12.4926 17.5773 12.6045 17.3912 12.6797C17.2049 12.755 17.0055 12.7919 16.8048 12.7883C16.604 12.7848 16.406 12.7409 16.2225 12.6591C16.0391 12.5774 15.874 12.4596 15.7371 12.3127C15.1361 11.7099 14.4218 11.232 13.6353 10.9064C12.8488 10.5808 12.0057 10.414 11.1545 10.4156C10.3034 10.4143 9.46046 10.5813 8.67417 10.9071C7.88788 11.2328 7.17373 11.7108 6.57293 12.3136C6.29253 12.5941 5.91221 12.7518 5.51559 12.7519C5.11897 12.752 4.73858 12.5945 4.45808 12.3141C4.17754 12.0338 4.0199 11.6534 4.01979 11.2568C4.01973 10.8602 4.1772 10.4798 4.45756 10.1993C5.33615 9.31862 6.38005 8.62019 7.52931 8.1441C8.67857 7.66804 9.91057 7.42363 11.1545 7.42501ZM11.1545 3.43751C14.8699 3.43751 18.2373 4.94578 20.6706 7.37915C20.8095 7.51803 20.9196 7.68292 20.9947 7.86435C21.0698 8.04582 21.1084 8.24028 21.1084 8.43666C21.1084 8.63305 21.0696 8.82751 20.9944 9.0089C20.9192 9.19034 20.8091 9.35516 20.6702 9.494C20.5312 9.63281 20.3664 9.74295 20.1849 9.81806C20.0035 9.89317 19.809 9.9318 19.6126 9.93174C19.4162 9.9317 19.2218 9.89296 19.0404 9.81778C18.8589 9.74257 18.6941 9.6324 18.5553 9.49349C17.5846 8.51999 16.4311 7.748 15.1609 7.22192C13.8909 6.69588 12.5293 6.42607 11.1545 6.42813C8.26359 6.42813 5.64883 7.59846 3.75277 9.49349C3.61548 9.63872 3.45044 9.75498 3.26744 9.83531C3.08444 9.91568 2.88719 9.95855 2.68735 9.96137C2.4875 9.96422 2.28912 9.92692 2.10392 9.85178C1.91872 9.77664 1.75047 9.66509 1.60911 9.52381C1.46775 9.38253 1.35615 9.21433 1.28091 9.02915C1.20566 8.84401 1.16831 8.64563 1.17104 8.44577C1.17377 8.24595 1.21654 8.04867 1.29681 7.86563C1.37709 7.68258 1.49325 7.51751 1.63841 7.38015C2.88677 6.12862 4.37008 5.13605 6.00313 4.45944C7.63622 3.78287 9.38687 3.43557 11.1545 3.43751Z" fill="url(#paint0_linear_451_1758)"/>
<path opacity="0.4" d="M13.2528 11.8288C12.5875 11.5534 11.8744 11.4119 11.1544 11.4126C10.4343 11.412 9.72119 11.5535 9.05593 11.8291C8.39064 12.1047 7.78633 12.5089 7.27761 13.0186C6.99721 13.2991 6.83974 13.6795 6.83984 14.0761C6.83995 14.4727 6.99759 14.853 7.27809 15.1334C7.55863 15.4138 7.93902 15.5713 8.33564 15.5712C8.73226 15.5711 9.11258 15.4134 9.39294 15.1329L9.53251 15.0023C9.96914 14.6275 10.5344 14.4032 11.1544 14.4032C11.4818 14.4025 11.8061 14.4666 12.1086 14.5918C12.4111 14.7171 12.6858 14.901 12.9169 15.1329L13.0305 15.2356C13.3278 15.4786 13.7072 15.5979 14.0901 15.5688C14.473 15.5398 14.83 15.3645 15.0872 15.0794C15.3444 14.7942 15.482 14.4211 15.4716 14.0373C15.4612 13.6534 15.3035 13.2883 15.0313 13.0176C14.5224 12.5082 13.918 12.1042 13.2528 11.8288Z" fill="url(#paint1_linear_451_1758)"/>
<path d="M12.2118 15.8379C11.9314 15.5574 11.551 15.3999 11.1545 15.3999C10.7579 15.3999 10.3775 15.5574 10.0971 15.8379C9.81672 16.1183 9.65918 16.4986 9.65918 16.8952C9.65918 17.2918 9.81672 17.6721 10.0971 17.9526C10.3775 18.233 10.7579 18.3905 11.1545 18.3905C11.551 18.3905 11.9314 18.233 12.2118 17.9526C12.4922 17.6721 12.6498 17.2918 12.6498 16.8952C12.6498 16.4986 12.4922 16.1183 12.2118 15.8379Z" fill="url(#paint2_linear_451_1758)"/>
<path d="M19.5181 12.1938H18.0146C17.8247 12.1938 17.6709 12.3477 17.6709 12.5376V17.8749C17.6709 18.0649 17.8247 18.2187 18.0146 18.2187H19.5181C19.7078 18.2187 19.8618 18.0649 19.8618 17.8749V12.5376C19.8618 12.3477 19.7078 12.1938 19.5181 12.1938Z" fill="url(#paint3_linear_451_1758)"/>
<path d="M19.8616 9.66446C19.8648 9.81028 19.8389 9.95534 19.7854 10.0911C19.7318 10.2268 19.6517 10.3505 19.5498 10.4549C19.4477 10.5592 19.3258 10.6422 19.1914 10.6987C19.057 10.7554 18.9125 10.7845 18.7665 10.7846C18.6206 10.7846 18.4762 10.7555 18.3416 10.699C18.2072 10.6424 18.0854 10.5595 17.9833 10.4553C17.8812 10.3509 17.8011 10.2273 17.7475 10.0916C17.6939 9.95589 17.6679 9.8109 17.6712 9.66501C17.6775 9.37874 17.7956 9.10642 18.0003 8.90615C18.2048 8.70602 18.4797 8.59382 18.766 8.59375C19.0524 8.59368 19.3272 8.70574 19.532 8.90581C19.7368 9.10594 19.855 9.37819 19.8616 9.66446Z" fill="url(#paint4_linear_451_1758)"/>
<defs>
<linearGradient id="paint0_linear_451_1758" x1="11.1982" y1="14.6935" x2="11.1982" y2="4.33071" gradientUnits="userSpaceOnUse">
<stop stop-color="#FDA700"/>
<stop offset="1" stop-color="#FFDE00"/>
</linearGradient>
<linearGradient id="paint1_linear_451_1758" x1="11.1813" y1="16.4207" x2="11.1813" y2="11.81" gradientUnits="userSpaceOnUse">
<stop stop-color="#FDA700"/>
<stop offset="1" stop-color="#FFDE00"/>
</linearGradient>
<linearGradient id="paint2_linear_451_1758" x1="11.1633" y1="18.9997" x2="11.1633" y2="15.6856" gradientUnits="userSpaceOnUse">
<stop stop-color="#FDA700"/>
<stop offset="1" stop-color="#FFDE00"/>
</linearGradient>
<linearGradient id="paint3_linear_451_1758" x1="18.7664" y1="18.2187" x2="18.7664" y2="8.59368" gradientUnits="userSpaceOnUse">
<stop stop-color="#FDA700"/>
<stop offset="1" stop-color="#FFDE00"/>
</linearGradient>
<linearGradient id="paint4_linear_451_1758" x1="18.7662" y1="18.2187" x2="18.7662" y2="8.59375" gradientUnits="userSpaceOnUse">
<stop stop-color="#FDA700"/>
<stop offset="1" stop-color="#FFDE00"/>
</linearGradient>
</defs>
</svg>
