<svg width="23" height="22" viewBox="0 0 23 22" fill="none" xmlns="http://www.w3.org/2000/svg">
<g clip-path="url(#clip0_451_1755)">
<path d="M3.00135 4.80555C1.8623 5.94363 1.8623 7.77662 1.8623 11.4416C1.8623 15.1066 1.8623 16.9396 3.00135 18.0777C4.13943 19.2167 5.97242 19.2167 9.63741 19.2167H11.0952C14.7603 19.2167 16.5932 19.2167 17.7313 18.0777C18.8703 16.9396 18.8703 15.1066 18.8703 11.4416C18.8703 7.77662 18.8703 5.94363 17.7313 4.80555C16.5932 3.6665 14.7603 3.6665 11.0952 3.6665H9.63741C5.97242 3.6665 4.13943 3.6665 3.00135 4.80555Z" stroke="url(#paint0_linear_451_1755)" stroke-width="2"/>
<path d="M21.2385 13.7921C21.2385 14.0185 21.3283 14.2355 21.4885 14.3956C21.6484 14.5556 21.8656 14.6456 22.0918 14.6456C22.3182 14.6456 22.5353 14.5556 22.6953 14.3956C22.8555 14.2355 22.9453 14.0185 22.9453 13.7921V9.24035C22.9453 9.01399 22.8555 8.7969 22.6953 8.63685C22.5353 8.47679 22.3182 8.38687 22.0918 8.38687C21.8656 8.38687 21.6484 8.47679 21.4885 8.63685C21.3283 8.7969 21.2385 9.01399 21.2385 9.24035V13.7921ZM10.7988 8.6486C10.9373 8.47406 11.0021 8.25229 10.9792 8.03065C10.9563 7.80903 10.8477 7.60511 10.6766 7.46247C10.5055 7.31983 10.2853 7.24979 10.0632 7.26729C9.84109 7.2848 9.63459 7.38848 9.48787 7.55617L6.643 10.97C6.53921 11.0946 6.47307 11.2462 6.45233 11.407C6.43158 11.5679 6.45708 11.7313 6.52586 11.8781C6.59464 12.025 6.70384 12.1492 6.84066 12.2364C6.97749 12.3234 7.13629 12.3697 7.29845 12.3697H9.45942L7.78096 14.3838C7.64247 14.5584 7.57773 14.7801 7.60056 15.0018C7.62339 15.2234 7.73199 15.4274 7.90315 15.57C8.07432 15.7127 8.29448 15.7826 8.51659 15.7652C8.7387 15.7477 8.94517 15.644 9.09193 15.4763L11.9368 12.0625C12.0406 11.9378 12.1067 11.7862 12.1275 11.6254C12.1482 11.4645 12.1227 11.3011 12.0539 11.1543C11.9851 11.0074 11.8759 10.8831 11.7392 10.7961C11.6023 10.709 11.4435 10.6628 11.2814 10.6628H9.12037L10.7988 8.6486Z" fill="url(#paint1_linear_451_1755)"/>
</g>
<defs>
<linearGradient id="paint0_linear_451_1755" x1="18.2958" y1="4.11098" x2="12.6229" y2="19.6908" gradientUnits="userSpaceOnUse">
<stop stop-color="#FE0F7C"/>
<stop offset="1" stop-color="#DF0066"/>
</linearGradient>
<linearGradient id="paint1_linear_451_1755" x1="22.3879" y1="7.50769" x2="20.4876" y2="16.7665" gradientUnits="userSpaceOnUse">
<stop stop-color="#FE0F7C"/>
<stop offset="1" stop-color="#DF0066"/>
</linearGradient>
<clipPath id="clip0_451_1755">
<rect width="22" height="22" fill="white" transform="translate(0.945312)"/>
</clipPath>
</defs>
</svg>
