<svg width="23" height="22" viewBox="0 0 23 22" fill="none" xmlns="http://www.w3.org/2000/svg">
<path fill-rule="evenodd" clip-rule="evenodd" d="M9.15099 1.03125H13.8238C14.1464 1.03125 14.408 1.29277 14.408 1.61536V3.36768H16.1603C16.4829 3.36768 16.7444 3.62919 16.7444 3.95178V20.3847C16.7444 20.7072 16.4829 20.9688 16.1603 20.9688H6.81455C6.49198 20.9688 6.23047 20.7072 6.23047 20.3847V3.95178C6.23047 3.62919 6.49198 3.36768 6.81455 3.36768H8.5669V1.61536C8.5669 1.29277 8.82841 1.03125 9.15099 1.03125ZM13.2397 2.19947H9.7351V3.36768H13.2397V2.19947ZM7.39869 9.24767V19.8005H15.5762V9.24767H7.39869ZM7.39869 8.07948H15.5762V4.53588H7.39869V8.07948ZM11.2643 13.9205H12.6556C12.8581 13.9205 13.0461 14.0253 13.1525 14.1976C13.2589 14.3697 13.2686 14.5848 13.1781 14.7659L12.0099 17.1023C11.8659 17.3903 11.5153 17.508 11.2262 17.3635C10.9377 17.2191 10.8207 16.8683 10.965 16.5798L11.7105 15.0887H10.3192C10.1168 15.0887 9.92879 14.9839 9.82235 14.8117C9.71592 14.6395 9.70624 14.4244 9.79675 14.2434L10.965 11.907C11.1093 11.6184 11.4602 11.5015 11.7487 11.6458C12.0372 11.7901 12.1542 12.1409 12.0099 12.4294L11.2643 13.9205Z" fill="url(#paint0_linear_451_1749)"/>
<path d="M14.408 3.36768H14.1501V3.6255H14.408V3.36768ZM8.5669 3.36768V3.6255H8.82472V3.36768H8.5669ZM9.7351 2.19947V1.94165H9.47729V2.19947H9.7351ZM13.2397 2.19947H13.4975V1.94165H13.2397V2.19947ZM9.7351 3.36768H9.47729V3.6255H9.7351V3.36768ZM13.2397 3.36768V3.6255H13.4975V3.36768H13.2397ZM7.39869 19.8005H7.14087V20.0583H7.39869V19.8005ZM7.39869 9.24767V8.98985H7.14087V9.24767H7.39869ZM15.5762 19.8005V20.0583H15.834V19.8005H15.5762ZM15.5762 9.24767H15.834V8.98985H15.5762V9.24767ZM15.5762 8.07948V8.3373H15.834V8.07948H15.5762ZM7.39869 8.07948H7.14087V8.3373H7.39869V8.07948ZM15.5762 4.53588H15.834V4.27807H15.5762V4.53588ZM7.39869 4.53588V4.27807H7.14087V4.53588H7.39869ZM11.2643 13.9205L11.0337 13.8052L10.8472 14.1783H11.2643V13.9205ZM11.7105 15.0887L11.9411 15.204L12.1277 14.8309H11.7105V15.0887ZM13.8238 0.773438H9.15099V1.28906H13.8238V0.773438ZM14.6658 1.61536C14.6658 1.15038 14.2888 0.773438 13.8238 0.773438V1.28906C14.0041 1.28906 14.1501 1.43516 14.1501 1.61536H14.6658ZM14.6658 3.36768V1.61536H14.1501V3.36768H14.6658ZM16.1603 3.10987H14.408V3.6255H16.1603V3.10987ZM17.0022 3.95178C17.0022 3.48681 16.6252 3.10987 16.1603 3.10987V3.6255C16.3405 3.6255 16.4866 3.77159 16.4866 3.95178H17.0022ZM17.0022 20.3847V3.95178H16.4866V20.3847H17.0022ZM16.1603 21.2266C16.6252 21.2266 17.0022 20.8496 17.0022 20.3847H16.4866C16.4866 20.5648 16.3405 20.7109 16.1603 20.7109V21.2266ZM6.81455 21.2266H16.1603V20.7109H6.81455V21.2266ZM5.97266 20.3847C5.97266 20.8496 6.3496 21.2266 6.81455 21.2266V20.7109C6.63438 20.7109 6.48828 20.5648 6.48828 20.3847H5.97266ZM5.97266 3.95178V20.3847H6.48828V3.95178H5.97266ZM6.81455 3.10987C6.3496 3.10987 5.97266 3.48683 5.97266 3.95178H6.48828C6.48828 3.77157 6.63438 3.6255 6.81455 3.6255V3.10987ZM8.5669 3.10987H6.81455V3.6255H8.5669V3.10987ZM8.30909 1.61536V3.36768H8.82472V1.61536H8.30909ZM9.15099 0.773438C8.68601 0.773438 8.30909 1.15039 8.30909 1.61536H8.82472C8.82472 1.43515 8.97081 1.28906 9.15099 1.28906V0.773438ZM9.7351 2.45728H13.2397V1.94165H9.7351V2.45728ZM9.99292 3.36768V2.19947H9.47729V3.36768H9.99292ZM13.2397 3.10987H9.7351V3.6255H13.2397V3.10987ZM12.9819 2.19947V3.36768H13.4975V2.19947H12.9819ZM7.6565 19.8005V9.24767H7.14087V19.8005H7.6565ZM15.5762 19.5427H7.39869V20.0583H15.5762V19.5427ZM15.3184 9.24767V19.8005H15.834V9.24767H15.3184ZM7.39869 9.50548H15.5762V8.98985H7.39869V9.50548ZM15.5762 7.82167H7.39869V8.3373H15.5762V7.82167ZM15.3184 4.53588V8.07948H15.834V4.53588H15.3184ZM7.39869 4.7937H15.5762V4.27807H7.39869V4.7937ZM7.6565 8.07948V4.53588H7.14087V8.07948H7.6565ZM12.6556 13.6627H11.2643V14.1783H12.6556V13.6627ZM13.3718 14.062C13.2184 13.8138 12.9474 13.6627 12.6556 13.6627V14.1783C12.7687 14.1783 12.8737 14.2369 12.9332 14.3331L13.3718 14.062ZM13.4087 14.8812C13.5392 14.6202 13.5253 14.3102 13.3718 14.062L12.9332 14.3331C12.9926 14.4292 12.9981 14.5494 12.9475 14.6505L13.4087 14.8812ZM12.2405 17.2176L13.4087 14.8812L12.9475 14.6505L11.7793 16.987L12.2405 17.2176ZM11.1109 17.594C11.5276 17.8025 12.033 17.6327 12.2405 17.2176L11.7793 16.987C11.6988 17.1479 11.5029 17.2136 11.3415 17.1329L11.1109 17.594ZM10.7344 16.4645C10.5264 16.8804 10.695 17.386 11.1109 17.594L11.3415 17.1329C11.1803 17.0523 11.115 16.8563 11.1956 16.6951L10.7344 16.4645ZM11.48 14.9734L10.7344 16.4645L11.1956 16.6951L11.9411 15.204L11.48 14.9734ZM10.3192 15.3465H11.7105V14.8309H10.3192V15.3465ZM9.60303 14.9472C9.75645 15.1954 10.0274 15.3465 10.3192 15.3465V14.8309C10.2062 14.8309 10.1011 14.7724 10.0416 14.6761L9.60303 14.9472ZM9.56615 14.1281C9.4357 14.389 9.44964 14.699 9.60303 14.9472L10.0416 14.6761C9.98219 14.58 9.97679 14.4598 10.0274 14.3586L9.56615 14.1281ZM10.7344 11.7916L9.56615 14.1281L10.0274 14.3586L11.1956 12.0222L10.7344 11.7916ZM11.864 11.4152C11.4482 11.2073 10.9424 11.3757 10.7344 11.7916L11.1956 12.0222C11.2762 11.8611 11.4722 11.7958 11.6334 11.8764L11.864 11.4152ZM12.2404 12.5447C12.4484 12.1288 12.2798 11.6232 11.864 11.4152L11.6334 11.8764C11.7946 11.957 11.8599 12.1529 11.7793 12.3141L12.2404 12.5447ZM11.4949 14.0358L12.2404 12.5447L11.7793 12.3141L11.0337 13.8052L11.4949 14.0358Z" fill="url(#paint1_linear_451_1749)"/>
<defs>
<linearGradient id="paint0_linear_451_1749" x1="11.4874" y1="20.9688" x2="11.4874" y2="1.03125" gradientUnits="userSpaceOnUse">
<stop stop-color="#02AA93"/>
<stop offset="1" stop-color="#67FF80"/>
</linearGradient>
<linearGradient id="paint1_linear_451_1749" x1="11.4874" y1="20.9688" x2="11.4874" y2="1.03125" gradientUnits="userSpaceOnUse">
<stop stop-color="#02AA93"/>
<stop offset="1" stop-color="#67FF80"/>
</linearGradient>
</defs>
</svg>
