<svg width="23" height="22" viewBox="0 0 23 22" fill="none" xmlns="http://www.w3.org/2000/svg">
<path d="M6.57602 8.31505H3.29835C3.1985 8.31505 3.10274 8.35428 3.03214 8.42412C2.96154 8.49396 2.92188 8.58867 2.92188 8.68743V13.9008C2.92188 13.9996 2.96154 14.0943 3.03214 14.1641C3.10274 14.234 3.1985 14.2732 3.29835 14.2732H6.57602C6.75004 14.2733 6.91865 14.3331 7.05319 14.4422L11.3577 17.9333C11.4139 17.9742 11.4803 17.9988 11.5498 18.0044C11.6192 18.0101 11.6889 17.9966 11.751 17.9654C11.8132 17.9342 11.8653 17.8865 11.9017 17.8279C11.9382 17.7691 11.9574 17.7015 11.9572 17.6325V4.95567C11.9572 4.88683 11.9378 4.81934 11.9014 4.76072C11.8649 4.70208 11.8127 4.65461 11.7507 4.62355C11.6884 4.5925 11.6188 4.57907 11.5495 4.58478C11.4801 4.5905 11.4138 4.61512 11.3577 4.6559L7.05319 8.14701C6.91853 8.25586 6.74993 8.31523 6.57602 8.31505Z" stroke="url(#paint0_linear_451_1743)" stroke-width="2.4" stroke-linecap="round" stroke-linejoin="round"/>
<path fill-rule="evenodd" clip-rule="evenodd" d="M18.7025 5.60509C18.4397 5.15955 17.8657 5.01129 17.4201 5.27392C16.9746 5.53656 16.8263 6.11063 17.089 6.55616C17.9719 8.05379 18.4652 9.27253 18.4652 11.2941C18.4652 13.3108 17.9506 14.5443 17.0854 16.0381C16.8261 16.4855 16.9788 17.0585 17.4264 17.3177C17.8738 17.577 18.4467 17.4244 18.706 16.9767C19.6741 15.3053 20.3381 13.7459 20.3381 11.2941C20.3381 8.84687 19.7019 7.30063 18.7025 5.60509ZM16.4691 7.88565C16.232 7.42602 15.6673 7.2456 15.2076 7.48269C14.748 7.71977 14.5675 8.28457 14.8046 8.74421C15.2178 9.54533 15.4533 10.3714 15.4533 11.2941C15.4533 12.1983 15.2074 13.0497 14.8018 13.8494C14.5677 14.3106 14.752 14.8742 15.2132 15.1082C15.6744 15.3421 16.238 15.158 16.472 14.6967C16.983 13.6895 17.3262 12.5487 17.3262 11.2941C17.3262 10.0279 16.9971 8.90924 16.4691 7.88565Z" fill="url(#paint1_linear_451_1743)"/>
<defs>
<linearGradient id="paint0_linear_451_1743" x1="7.43955" y1="18.0057" x2="7.43955" y2="4.5835" gradientUnits="userSpaceOnUse">
<stop stop-color="#02AA93"/>
<stop offset="1" stop-color="#67FF80"/>
</linearGradient>
<linearGradient id="paint1_linear_451_1743" x1="17.5191" y1="17.444" x2="17.5191" y2="5.14404" gradientUnits="userSpaceOnUse">
<stop stop-color="#02AA93"/>
<stop offset="1" stop-color="#67FF80"/>
</linearGradient>
</defs>
</svg>
