<svg width="23" height="22" viewBox="0 0 23 22" fill="none" xmlns="http://www.w3.org/2000/svg">
<path fill-rule="evenodd" clip-rule="evenodd" d="M11.2762 3.71174C11.435 3.78807 11.536 3.94866 11.536 4.12484V17.2243C11.536 17.4005 11.435 17.5611 11.2762 17.6374C11.1174 17.7137 10.9289 17.6922 10.7914 17.5821L6.2385 13.9399H2.65658C2.40345 13.9399 2.19824 13.7347 2.19824 13.4816V7.86753C2.19824 7.61441 2.40345 7.4092 2.65658 7.4092H6.2385L10.7914 3.76695C10.9289 3.65688 11.1174 3.63542 11.2762 3.71174ZM10.6193 5.07846L6.68558 8.22544C6.60432 8.29045 6.50334 8.32587 6.39927 8.32587H3.11491V13.0233H6.39927C6.50334 13.0233 6.60432 13.0587 6.68558 13.1237L10.6193 16.2707V5.07846ZM19.9174 7.91335C20.0964 8.09234 20.0964 8.38254 19.9174 8.56153L17.4998 10.9792L19.9174 13.3968C20.0964 13.5758 20.0964 13.8661 19.9174 14.045C19.7384 14.224 19.4482 14.224 19.2692 14.045L16.8515 11.6274L14.4339 14.045C14.2549 14.224 13.9648 14.224 13.7857 14.045C13.6067 13.8661 13.6067 13.5758 13.7857 13.3968L16.2034 10.9792L13.7857 8.56153C13.6067 8.38254 13.6067 8.09234 13.7857 7.91335C13.9648 7.73436 14.2549 7.73436 14.4339 7.91335L16.8515 10.331L19.2692 7.91335C19.4482 7.73436 19.7384 7.73436 19.9174 7.91335Z" fill="url(#paint0_linear_451_1746)"/>
<path d="M6.23856 13.94L6.6394 13.439C6.52563 13.3479 6.38427 13.2983 6.23856 13.2983V13.94ZM6.23856 7.40927V8.05094C6.38427 8.05094 6.52563 8.00135 6.6394 7.91033L6.23856 7.40927ZM10.6194 5.07852H11.261C11.261 4.83187 11.1197 4.60704 10.8974 4.50019C10.6751 4.39334 10.4112 4.42338 10.2186 4.57747L10.6194 5.07852ZM3.11497 8.32594V7.68427C2.76059 7.68427 2.47331 7.97155 2.47331 8.32594H3.11497ZM3.11497 13.0233H2.47331C2.47331 13.3777 2.76059 13.665 3.11497 13.665V13.0233ZM10.6194 16.2707L10.2186 16.7718C10.4112 16.9259 10.6751 16.9559 10.8974 16.8491C11.1197 16.7423 11.261 16.5174 11.261 16.2707H10.6194ZM17.4999 10.9793L17.0461 10.5255C16.7955 10.7761 16.7955 11.1824 17.0461 11.4329L17.4999 10.9793ZM16.8516 11.6274L17.3053 11.1737C17.185 11.0533 17.0218 10.9858 16.8516 10.9858C16.6815 10.9858 16.5182 11.0533 16.3979 11.1737L16.8516 11.6274ZM16.2034 10.9793L16.6572 11.4329C16.7775 11.3127 16.8451 11.1494 16.8451 10.9793C16.8451 10.809 16.7775 10.6459 16.6572 10.5255L16.2034 10.9793ZM16.8516 10.3311L16.3979 10.7848C16.5182 10.9051 16.6815 10.9728 16.8516 10.9728C17.0218 10.9728 17.185 10.9051 17.3053 10.7848L16.8516 10.3311ZM12.1777 4.12491C12.1777 3.70207 11.9353 3.31665 11.5543 3.13348L10.9983 4.29015C10.9348 4.25962 10.8944 4.19538 10.8944 4.12491H12.1777ZM12.1777 17.2243V4.12491H10.8944V17.2243H12.1777ZM11.5543 18.2158C11.9353 18.0326 12.1777 17.6472 12.1777 17.2243H10.8944C10.8944 17.1538 10.9348 17.0896 10.9983 17.0591L11.5543 18.2158ZM10.3906 18.0833C10.7207 18.3474 11.1731 18.399 11.5543 18.2158L10.9983 17.0591C11.0618 17.0285 11.1372 17.0372 11.1923 17.0812L10.3906 18.0833ZM5.83772 14.4411L10.3906 18.0833L11.1923 17.0812L6.6394 13.439L5.83772 14.4411ZM2.65664 14.5817H6.23856V13.2983H2.65664V14.5817ZM1.55664 13.4817C1.55664 14.0892 2.04913 14.5817 2.65664 14.5817V13.2983C2.7579 13.2983 2.83997 13.3804 2.83997 13.4817H1.55664ZM1.55664 7.8676V13.4817H2.83997V7.8676H1.55664ZM2.65664 6.7676C2.04913 6.7676 1.55664 7.26009 1.55664 7.8676H2.83997C2.83997 7.96886 2.7579 8.05094 2.65664 8.05094V6.7676ZM6.23856 6.7676H2.65664V8.05094H6.23856V6.7676ZM10.3906 3.26595L5.83771 6.90821L6.6394 7.91033L11.1923 4.26807L10.3906 3.26595ZM11.5543 3.13348C11.1731 2.95031 10.7207 3.00181 10.3906 3.26595L11.1923 4.26807C11.1372 4.31209 11.0618 4.32068 10.9983 4.29015L11.5543 3.13348ZM7.0865 8.72657L11.0202 5.57958L10.2186 4.57747L6.28481 7.72445L7.0865 8.72657ZM6.39934 8.9676C6.64911 8.9676 6.89146 8.88261 7.0865 8.72657L6.28481 7.72445C6.31731 7.69844 6.3577 7.68427 6.39934 7.68427V8.9676ZM3.11497 8.9676H6.39934V7.68427H3.11497V8.9676ZM3.75664 13.0233V8.32594H2.47331V13.0233H3.75664ZM6.39934 12.3817H3.11497V13.665H6.39934V12.3817ZM7.0865 12.6228C6.89145 12.4667 6.64911 12.3817 6.39934 12.3817V13.665C6.3577 13.665 6.31731 13.6508 6.28481 13.6249L7.0865 12.6228ZM11.0202 15.7697L7.0865 12.6228L6.28481 13.6249L10.2186 16.7718L11.0202 15.7697ZM9.97769 5.07852V16.2707H11.261V5.07852H9.97769ZM20.3712 9.01532C20.8008 8.58575 20.8008 7.88926 20.3712 7.45969L19.4637 8.36714C19.3921 8.29555 19.3921 8.17946 19.4637 8.10787L20.3712 9.01532ZM17.9535 11.4329L20.3712 9.01532L19.4637 8.10787L17.0461 10.5255L17.9535 11.4329ZM17.0461 11.4329L19.4637 13.8506L20.3712 12.9431L17.9535 10.5255L17.0461 11.4329ZM19.4637 13.8506C19.3921 13.779 19.3921 13.6629 19.4637 13.5913L20.3712 14.4988C20.8008 14.0693 20.8008 13.3728 20.3712 12.9431L19.4637 13.8506ZM19.4637 13.5913C19.5353 13.5197 19.6515 13.5197 19.7231 13.5913L18.8155 14.4988C19.2451 14.9284 19.9416 14.9284 20.3712 14.4988L19.4637 13.5913ZM19.7231 13.5913L17.3053 11.1737L16.3979 12.0812L18.8155 14.4988L19.7231 13.5913ZM14.8877 14.4988L17.3053 12.0812L16.3979 11.1737L13.9802 13.5913L14.8877 14.4988ZM13.332 14.4988C13.7617 14.9284 14.4582 14.9284 14.8877 14.4988L13.9802 13.5913C14.0518 13.5197 14.168 13.5197 14.2395 13.5913L13.332 14.4988ZM13.332 12.9431C12.9025 13.3728 12.9025 14.0693 13.332 14.4988L14.2395 13.5913C14.3111 13.6629 14.3111 13.779 14.2395 13.8506L13.332 12.9431ZM15.7498 10.5255L13.332 12.9431L14.2395 13.8506L16.6572 11.4329L15.7498 10.5255ZM16.6572 10.5255L14.2395 8.10787L13.332 9.01532L15.7498 11.4329L16.6572 10.5255ZM14.2395 8.10787C14.3111 8.17947 14.3111 8.29555 14.2395 8.36714L13.332 7.45969C12.9025 7.88926 12.9025 8.58575 13.332 9.01532L14.2395 8.10787ZM14.2395 8.36714C14.168 8.43874 14.0518 8.43874 13.9802 8.36714L14.8877 7.45969C14.4582 7.03011 13.7617 7.03011 13.332 7.45969L14.2395 8.36714ZM13.9802 8.36714L16.3979 10.7848L17.3053 9.87735L14.8877 7.45969L13.9802 8.36714ZM18.8155 7.45969L16.3979 9.87735L17.3053 10.7848L19.7231 8.36714L18.8155 7.45969ZM20.3712 7.45969C19.9416 7.0301 19.2451 7.0301 18.8155 7.45969L19.7231 8.36714C19.6515 8.43874 19.5353 8.43874 19.4637 8.36714L20.3712 7.45969Z" fill="url(#paint1_linear_451_1746)"/>
<defs>
<linearGradient id="paint0_linear_451_1746" x1="20.3033" y1="3.20285" x2="15.0745" y2="19.5114" gradientUnits="userSpaceOnUse">
<stop stop-color="#FE0F7C"/>
<stop offset="1" stop-color="#DF0066"/>
</linearGradient>
<linearGradient id="paint1_linear_451_1746" x1="20.3034" y1="3.20291" x2="15.0745" y2="19.5114" gradientUnits="userSpaceOnUse">
<stop stop-color="#FE0F7C"/>
<stop offset="1" stop-color="#DF0066"/>
</linearGradient>
</defs>
</svg>
