<svg width="23" height="22" viewBox="0 0 23 22" fill="none" xmlns="http://www.w3.org/2000/svg">
<path fill-rule="evenodd" clip-rule="evenodd" d="M9.34435 1.03125H14.0172C14.3398 1.03125 14.6013 1.29277 14.6013 1.61536V3.36768H16.3536C16.6762 3.36768 16.9377 3.62919 16.9377 3.95178V20.3847C16.9377 20.7072 16.6762 20.9688 16.3536 20.9688H7.00791C6.68534 20.9688 6.42383 20.7072 6.42383 20.3847V3.95178C6.42383 3.62919 6.68534 3.36768 7.00791 3.36768H8.76026V1.61536C8.76026 1.29277 9.02177 1.03125 9.34435 1.03125ZM13.4331 2.19947H9.92846V3.36768H13.4331V2.19947ZM7.59205 9.24767V19.8005H15.7695V9.24767H7.59205ZM7.59205 8.07948H15.7695V4.53588H7.59205V8.07948ZM11.4577 13.9205H12.849C13.0514 13.9205 13.2394 14.0253 13.3458 14.1976C13.4523 14.3697 13.462 14.5848 13.3714 14.7659L12.2032 17.1023C12.0592 17.3903 11.7086 17.508 11.4195 17.3635C11.131 17.2191 11.0141 16.8683 11.1583 16.5798L11.9039 15.0887H10.5126C10.3101 15.0887 10.1221 14.9839 10.0157 14.8117C9.90928 14.6395 9.8996 14.4244 9.99011 14.2434L11.1583 11.907C11.3026 11.6184 11.6535 11.5015 11.942 11.6458C12.2305 11.7901 12.3475 12.1409 12.2032 12.4294L11.4577 13.9205Z" fill="url(#paint0_linear_451_1752)"/>
<path d="M14.6013 3.36768H14.3435V3.6255H14.6013V3.36768ZM8.76026 3.36768V3.6255H9.01807V3.36768H8.76026ZM9.92846 2.19947V1.94165H9.67065V2.19947H9.92846ZM13.4331 2.19947H13.6909V1.94165H13.4331V2.19947ZM9.92846 3.36768H9.67065V3.6255H9.92846V3.36768ZM13.4331 3.36768V3.6255H13.6909V3.36768H13.4331ZM7.59205 19.8005H7.33423V20.0583H7.59205V19.8005ZM7.59205 9.24767V8.98985H7.33423V9.24767H7.59205ZM15.7695 19.8005V20.0583H16.0273V19.8005H15.7695ZM15.7695 9.24767H16.0273V8.98985H15.7695V9.24767ZM15.7695 8.07948V8.3373H16.0273V8.07948H15.7695ZM7.59205 8.07948H7.33423V8.3373H7.59205V8.07948ZM15.7695 4.53588H16.0273V4.27807H15.7695V4.53588ZM7.59205 4.53588V4.27807H7.33423V4.53588H7.59205ZM11.4577 13.9205L11.2271 13.8052L11.0405 14.1783H11.4577V13.9205ZM11.9039 15.0887L12.1345 15.204L12.3211 14.8309H11.9039V15.0887ZM14.0172 0.773438H9.34435V1.28906H14.0172V0.773438ZM14.8591 1.61536C14.8591 1.15038 14.4822 0.773438 14.0172 0.773438V1.28906C14.1974 1.28906 14.3435 1.43516 14.3435 1.61536H14.8591ZM14.8591 3.36768V1.61536H14.3435V3.36768H14.8591ZM16.3536 3.10987H14.6013V3.6255H16.3536V3.10987ZM17.1956 3.95178C17.1956 3.48681 16.8186 3.10987 16.3536 3.10987V3.6255C16.5338 3.6255 16.6799 3.77159 16.6799 3.95178H17.1956ZM17.1956 20.3847V3.95178H16.6799V20.3847H17.1956ZM16.3536 21.2266C16.8186 21.2266 17.1956 20.8496 17.1956 20.3847H16.6799C16.6799 20.5648 16.5339 20.7109 16.3536 20.7109V21.2266ZM7.00791 21.2266H16.3536V20.7109H7.00791V21.2266ZM6.16602 20.3847C6.16602 20.8496 6.54295 21.2266 7.00791 21.2266V20.7109C6.82773 20.7109 6.68164 20.5648 6.68164 20.3847H6.16602ZM6.16602 3.95178V20.3847H6.68164V3.95178H6.16602ZM7.00791 3.10987C6.54295 3.10987 6.16602 3.48683 6.16602 3.95178H6.68164C6.68164 3.77157 6.82773 3.6255 7.00791 3.6255V3.10987ZM8.76026 3.10987H7.00791V3.6255H8.76026V3.10987ZM8.50245 1.61536V3.36768H9.01807V1.61536H8.50245ZM9.34435 0.773438C8.87937 0.773438 8.50245 1.15039 8.50245 1.61536H9.01807C9.01807 1.43515 9.16417 1.28906 9.34435 1.28906V0.773438ZM9.92846 2.45728H13.4331V1.94165H9.92846V2.45728ZM10.1863 3.36768V2.19947H9.67065V3.36768H10.1863ZM13.4331 3.10987H9.92846V3.6255H13.4331V3.10987ZM13.1753 2.19947V3.36768H13.6909V2.19947H13.1753ZM7.84986 19.8005V9.24767H7.33423V19.8005H7.84986ZM15.7695 19.5427H7.59205V20.0583H15.7695V19.5427ZM15.5117 9.24767V19.8005H16.0273V9.24767H15.5117ZM7.59205 9.50548H15.7695V8.98985H7.59205V9.50548ZM15.7695 7.82167H7.59205V8.3373H15.7695V7.82167ZM15.5117 4.53588V8.07948H16.0273V4.53588H15.5117ZM7.59205 4.7937H15.7695V4.27807H7.59205V4.7937ZM7.84986 8.07948V4.53588H7.33423V8.07948H7.84986ZM12.849 13.6627H11.4577V14.1783H12.849V13.6627ZM13.5652 14.062C13.4118 13.8138 13.1408 13.6627 12.849 13.6627V14.1783C12.9621 14.1783 13.0671 14.2369 13.1265 14.3331L13.5652 14.062ZM13.602 14.8812C13.7325 14.6202 13.7186 14.3102 13.5652 14.062L13.1265 14.3331C13.186 14.4292 13.1914 14.5494 13.1408 14.6505L13.602 14.8812ZM12.4338 17.2176L13.602 14.8812L13.1408 14.6505L11.9726 16.987L12.4338 17.2176ZM11.3042 17.594C11.7209 17.8025 12.2263 17.6327 12.4338 17.2176L11.9726 16.987C11.8922 17.1479 11.6963 17.2136 11.5348 17.1329L11.3042 17.594ZM10.9277 16.4645C10.7198 16.8804 10.8884 17.386 11.3042 17.594L11.5348 17.1329C11.3736 17.0523 11.3083 16.8563 11.3889 16.6951L10.9277 16.4645ZM11.6733 14.9734L10.9277 16.4645L11.3889 16.6951L12.1345 15.204L11.6733 14.9734ZM10.5126 15.3465H11.9039V14.8309H10.5126V15.3465ZM9.79639 14.9472C9.94981 15.1954 10.2208 15.3465 10.5126 15.3465V14.8309C10.3995 14.8309 10.2945 14.7724 10.235 14.6761L9.79639 14.9472ZM9.75951 14.1281C9.62906 14.389 9.643 14.699 9.79639 14.9472L10.235 14.6761C10.1755 14.58 10.1702 14.4598 10.2207 14.3586L9.75951 14.1281ZM10.9277 11.7916L9.75951 14.1281L10.2207 14.3586L11.3889 12.0222L10.9277 11.7916ZM12.0574 11.4152C11.6415 11.2073 11.1357 11.3757 10.9277 11.7916L11.3889 12.0222C11.4695 11.8611 11.6655 11.7958 11.8267 11.8764L12.0574 11.4152ZM12.4338 12.5447C12.6418 12.1288 12.4732 11.6232 12.0574 11.4152L11.8267 11.8764C11.9879 11.957 12.0532 12.1529 11.9726 12.3141L12.4338 12.5447ZM11.6883 14.0358L12.4338 12.5447L11.9726 12.3141L11.2271 13.8052L11.6883 14.0358Z" fill="url(#paint1_linear_451_1752)"/>
<defs>
<linearGradient id="paint0_linear_451_1752" x1="11.6808" y1="20.9688" x2="11.6808" y2="1.03125" gradientUnits="userSpaceOnUse">
<stop stop-color="#02AA93"/>
<stop offset="1" stop-color="#67FF80"/>
</linearGradient>
<linearGradient id="paint1_linear_451_1752" x1="11.6808" y1="20.9688" x2="11.6808" y2="1.03125" gradientUnits="userSpaceOnUse">
<stop stop-color="#02AA93"/>
<stop offset="1" stop-color="#67FF80"/>
</linearGradient>
</defs>
</svg>
