<svg width="23" height="22" viewBox="0 0 23 22" fill="none" xmlns="http://www.w3.org/2000/svg">
<g clip-path="url(#clip0_451_1764)">
<path d="M22.1447 7.6011C22.1247 7.58112 22.1035 7.56329 22.0817 7.54649C19.2153 4.52738 15.3496 2.94336 11.3329 2.94336C9.27869 2.94336 7.29422 3.35035 5.43471 4.15294C3.33722 5.0583 1.94759 6.17476 0.521241 7.6011C0.26652 7.85582 0.274035 8.26476 0.521241 8.51196L2.35822 10.349C2.619 10.6097 3.04196 10.5974 3.28831 10.3289C5.37116 8.05842 8.22815 6.80799 11.3329 6.80799C14.4377 6.80799 17.2947 8.05842 19.3776 10.3289C19.6254 10.599 20.0484 10.6083 20.3077 10.349L22.1447 8.51196C22.1507 8.50598 22.1558 8.49949 22.1615 8.49331C22.1655 8.48892 22.1696 8.48463 22.1734 8.48016C22.3952 8.22716 22.3861 7.84242 22.1447 7.6011ZM11.333 13.249C9.93478 13.249 8.64035 13.8764 7.78153 14.9703C7.58027 15.2267 7.60227 15.593 7.83271 15.8235L10.8775 18.8683C11.129 19.1198 11.537 19.1197 11.7884 18.8683L14.8332 15.8235C15.0637 15.593 15.0857 15.2267 14.8844 14.9703C14.0256 13.8764 12.7312 13.249 11.333 13.249ZM11.333 8.09619C8.57955 8.09619 6.00473 9.22665 4.15274 11.2793C3.92301 11.5339 3.93306 11.9238 4.1755 12.1662L5.99356 13.9843C6.25765 14.2485 6.68918 14.2325 6.93372 13.953C8.04167 12.6869 9.64513 11.9608 11.333 11.9608C13.0208 11.9608 14.6243 12.6869 15.7323 13.953C15.9772 14.233 16.4087 14.2481 16.6725 13.9843L18.4905 12.1662C18.7329 11.9238 18.743 11.5339 18.5132 11.2793C16.6613 9.22678 14.0866 8.09619 11.333 8.09619Z" fill="url(#paint0_linear_451_1764)"/>
</g>
<defs>
<linearGradient id="paint0_linear_451_1764" x1="11.333" y1="19.0569" x2="11.333" y2="2.94336" gradientUnits="userSpaceOnUse">
<stop stop-color="#02AA93"/>
<stop offset="1" stop-color="#67FF80"/>
</linearGradient>
<clipPath id="clip0_451_1764">
<rect width="22" height="22" fill="white" transform="translate(0.333008)"/>
</clipPath>
</defs>
</svg>
