<svg width="23" height="22" viewBox="0 0 23 22" fill="none" xmlns="http://www.w3.org/2000/svg">
<path fill-rule="evenodd" clip-rule="evenodd" d="M9.11876 1.03125H13.7916C14.1142 1.03125 14.3757 1.29277 14.3757 1.61536V3.36768H16.128C16.4506 3.36768 16.7122 3.62919 16.7122 3.95178V20.3847C16.7122 20.7072 16.4506 20.9688 16.128 20.9688H6.78233C6.45975 20.9688 6.19824 20.7072 6.19824 20.3847V3.95178C6.19824 3.62919 6.45975 3.36768 6.78233 3.36768H8.53468V1.61536C8.53468 1.29277 8.79618 1.03125 9.11876 1.03125ZM13.2075 2.19947H9.70288V3.36768H13.2075V2.19947ZM7.36646 9.24767V19.8005H15.5439V9.24767H7.36646ZM7.36646 8.07948H15.5439V4.53588H7.36646V8.07948ZM11.2321 13.9205H12.6234C12.8258 13.9205 13.0138 14.0253 13.1202 14.1976C13.2267 14.3697 13.2364 14.5848 13.1458 14.7659L11.9776 17.1023C11.8337 17.3903 11.4831 17.508 11.194 17.3635C10.9055 17.2191 10.7885 16.8683 10.9327 16.5798L11.6783 15.0887H10.287C10.0846 15.0887 9.89656 14.9839 9.79012 14.8117C9.6837 14.6395 9.67402 14.4244 9.76453 14.2434L10.9327 11.907C11.077 11.6184 11.4279 11.5015 11.7164 11.6458C12.005 11.7901 12.1219 12.1409 11.9776 12.4294L11.2321 13.9205Z" fill="url(#paint0_linear_451_1770)"/>
<path d="M14.3757 3.36768H14.1179V3.6255H14.3757V3.36768ZM8.53468 3.36768V3.6255H8.79249V3.36768H8.53468ZM9.70288 2.19947V1.94165H9.44506V2.19947H9.70288ZM13.2075 2.19947H13.4653V1.94165H13.2075V2.19947ZM9.70288 3.36768H9.44506V3.6255H9.70288V3.36768ZM13.2075 3.36768V3.6255H13.4653V3.36768H13.2075ZM7.36646 19.8005H7.10865V20.0583H7.36646V19.8005ZM7.36646 9.24767V8.98985H7.10865V9.24767H7.36646ZM15.5439 19.8005V20.0583H15.8018V19.8005H15.5439ZM15.5439 9.24767H15.8018V8.98985H15.5439V9.24767ZM15.5439 8.07948V8.3373H15.8018V8.07948H15.5439ZM7.36646 8.07948H7.10865V8.3373H7.36646V8.07948ZM15.5439 4.53588H15.8018V4.27807H15.5439V4.53588ZM7.36646 4.53588V4.27807H7.10865V4.53588H7.36646ZM11.2321 13.9205L11.0015 13.8052L10.8149 14.1783H11.2321V13.9205ZM11.6783 15.0887L11.9089 15.204L12.0955 14.8309H11.6783V15.0887ZM13.7916 0.773438H9.11876V1.28906H13.7916V0.773438ZM14.6335 1.61536C14.6335 1.15038 14.2566 0.773438 13.7916 0.773438V1.28906C13.9718 1.28906 14.1179 1.43516 14.1179 1.61536H14.6335ZM14.6335 3.36768V1.61536H14.1179V3.36768H14.6335ZM16.128 3.10987H14.3757V3.6255H16.128V3.10987ZM16.97 3.95178C16.97 3.48681 16.593 3.10987 16.128 3.10987V3.6255C16.3083 3.6255 16.4543 3.77159 16.4543 3.95178H16.97ZM16.97 20.3847V3.95178H16.4543V20.3847H16.97ZM16.128 21.2266C16.593 21.2266 16.97 20.8496 16.97 20.3847H16.4543C16.4543 20.5648 16.3083 20.7109 16.128 20.7109V21.2266ZM6.78233 21.2266H16.128V20.7109H6.78233V21.2266ZM5.94043 20.3847C5.94043 20.8496 6.31737 21.2266 6.78233 21.2266V20.7109C6.60215 20.7109 6.45605 20.5648 6.45605 20.3847H5.94043ZM5.94043 3.95178V20.3847H6.45605V3.95178H5.94043ZM6.78233 3.10987C6.31737 3.10987 5.94043 3.48683 5.94043 3.95178H6.45605C6.45605 3.77157 6.60215 3.6255 6.78233 3.6255V3.10987ZM8.53468 3.10987H6.78233V3.6255H8.53468V3.10987ZM8.27686 1.61536V3.36768H8.79249V1.61536H8.27686ZM9.11876 0.773438C8.65379 0.773438 8.27686 1.15039 8.27686 1.61536H8.79249C8.79249 1.43515 8.93858 1.28906 9.11876 1.28906V0.773438ZM9.70288 2.45728H13.2075V1.94165H9.70288V2.45728ZM9.96069 3.36768V2.19947H9.44506V3.36768H9.96069ZM13.2075 3.10987H9.70288V3.6255H13.2075V3.10987ZM12.9497 2.19947V3.36768H13.4653V2.19947H12.9497ZM7.62427 19.8005V9.24767H7.10865V19.8005H7.62427ZM15.5439 19.5427H7.36646V20.0583H15.5439V19.5427ZM15.2861 9.24767V19.8005H15.8018V9.24767H15.2861ZM7.36646 9.50548H15.5439V8.98985H7.36646V9.50548ZM15.5439 7.82167H7.36646V8.3373H15.5439V7.82167ZM15.2861 4.53588V8.07948H15.8018V4.53588H15.2861ZM7.36646 4.7937H15.5439V4.27807H7.36646V4.7937ZM7.62427 8.07948V4.53588H7.10865V8.07948H7.62427ZM12.6234 13.6627H11.2321V14.1783H12.6234V13.6627ZM13.3396 14.062C13.1862 13.8138 12.9152 13.6627 12.6234 13.6627V14.1783C12.7365 14.1783 12.8415 14.2369 12.9009 14.3331L13.3396 14.062ZM13.3764 14.8812C13.507 14.6202 13.4931 14.3102 13.3396 14.062L12.9009 14.3331C12.9604 14.4292 12.9658 14.5494 12.9153 14.6505L13.3764 14.8812ZM12.2082 17.2176L13.3764 14.8812L12.9153 14.6505L11.747 16.987L12.2082 17.2176ZM11.0786 17.594C11.4954 17.8025 12.0007 17.6327 12.2082 17.2176L11.747 16.987C11.6666 17.1479 11.4707 17.2136 11.3093 17.1329L11.0786 17.594ZM10.7021 16.4645C10.4942 16.8804 10.6628 17.386 11.0786 17.594L11.3093 17.1329C11.1481 17.0523 11.0828 16.8563 11.1633 16.6951L10.7021 16.4645ZM11.4477 14.9734L10.7021 16.4645L11.1633 16.6951L11.9089 15.204L11.4477 14.9734ZM10.287 15.3465H11.6783V14.8309H10.287V15.3465ZM9.57081 14.9472C9.72422 15.1954 9.99518 15.3465 10.287 15.3465V14.8309C10.1739 14.8309 10.0689 14.7724 10.0094 14.6761L9.57081 14.9472ZM9.53392 14.1281C9.40347 14.389 9.41741 14.699 9.57081 14.9472L10.0094 14.6761C9.94996 14.58 9.94457 14.4598 9.99513 14.3586L9.53392 14.1281ZM10.7022 11.7916L9.53392 14.1281L9.99513 14.3586L11.1633 12.0222L10.7022 11.7916ZM11.8318 11.4152C11.4159 11.2073 10.9101 11.3757 10.7022 11.7916L11.1633 12.0222C11.2439 11.8611 11.4399 11.7958 11.6011 11.8764L11.8318 11.4152ZM12.2082 12.5447C12.4162 12.1288 12.2476 11.6232 11.8318 11.4152L11.6011 11.8764C11.7624 11.957 11.8276 12.1529 11.747 12.3141L12.2082 12.5447ZM11.4627 14.0358L12.2082 12.5447L11.747 12.3141L11.0015 13.8052L11.4627 14.0358Z" fill="url(#paint1_linear_451_1770)"/>
<defs>
<linearGradient id="paint0_linear_451_1770" x1="11.4552" y1="20.9688" x2="11.4552" y2="1.03125" gradientUnits="userSpaceOnUse">
<stop stop-color="#02AA93"/>
<stop offset="1" stop-color="#67FF80"/>
</linearGradient>
<linearGradient id="paint1_linear_451_1770" x1="11.4552" y1="20.9688" x2="11.4552" y2="1.03125" gradientUnits="userSpaceOnUse">
<stop stop-color="#02AA93"/>
<stop offset="1" stop-color="#67FF80"/>
</linearGradient>
</defs>
</svg>
