<svg width="23" height="22" viewBox="0 0 23 22" fill="none" xmlns="http://www.w3.org/2000/svg">
<path d="M17.1314 1.92668C17.8625 1.84278 18.6476 1.88531 19.2952 2.27037C19.8706 2.5876 20.2951 3.12094 20.5617 3.71633C20.3845 3.73472 20.2037 3.73472 20.033 3.79105C19.7711 4.03243 19.5994 4.35081 19.3947 4.63932C19.3271 4.14277 19.0456 3.66805 18.5938 3.43587C18.1373 3.17266 17.5949 3.31748 17.1039 3.21633C16.8134 3.14277 16.716 2.83013 16.5947 2.59335C16.6966 2.32554 16.8122 1.9922 17.1314 1.92668Z" fill="url(#paint0_linear_451_1773)"/>
<path d="M2.61466 4.72916C2.60781 3.2786 3.85043 1.96135 5.29555 1.90618C6.56449 1.89124 7.83342 1.89929 9.10236 1.90274C8.8243 2.3556 8.52338 2.79469 8.24304 3.24641C7.29678 3.25906 6.35052 3.22917 5.40655 3.25676C4.85504 3.27054 4.35045 3.62111 4.11816 4.11998C4.06668 4.23261 4.02548 4.34869 3.99344 4.46938C3.81036 5.76249 3.95225 7.07858 3.89161 8.38086C3.45109 8.89006 3.10325 9.47626 2.6181 9.94752C2.60552 8.20846 2.61124 6.46824 2.61466 4.72916Z" fill="url(#paint1_linear_451_1773)"/>
<path d="M9.10247 1.90273C10.6185 1.89697 12.1346 1.89813 13.6507 1.89928C13.9654 1.87054 14.2857 2.06594 14.3727 2.3763C14.4722 2.64181 14.3064 2.89813 14.2206 3.14064C13.6209 3.28892 13.0008 3.24755 12.3898 3.2487C11.0076 3.2464 9.62537 3.24985 8.24316 3.2464C8.52349 2.79468 8.82443 2.35559 9.10247 1.90273Z" fill="url(#paint2_linear_451_1773)"/>
<path d="M14.8262 2.63118C14.8307 2.37945 14.8307 2.00933 15.1466 1.95188C15.4349 1.91394 15.7381 1.89901 16.0218 1.97716C16.2404 2.09096 16.237 2.35071 16.2393 2.56451C16.2129 2.7783 16.2942 3.05186 16.1397 3.22428C15.7416 3.2783 15.3353 3.27371 14.936 3.22772C14.8067 3.06221 14.8548 2.82658 14.8262 2.63118Z" fill="url(#paint3_linear_451_1773)"/>
<path d="M20.0329 3.79102C20.2034 3.7347 20.3842 3.7347 20.5616 3.71631C20.6554 4.03701 20.74 4.36459 20.7493 4.70022C20.74 6.42435 20.7527 8.14731 20.7412 9.87031C20.3648 10.3094 19.9953 10.7565 19.6828 11.2439C19.47 11.5565 19.4919 11.9507 19.486 12.3117C19.501 13.2692 19.4826 14.2278 19.4769 15.1864C19.4678 15.9175 19.5249 16.6565 19.3877 17.3795C19.4013 13.1323 19.3956 8.88526 19.3946 4.63929C19.5993 4.35079 19.771 4.0324 20.0329 3.79102Z" fill="url(#paint4_linear_451_1773)"/>
<path d="M14.8865 3.83366C15.3154 3.79573 15.7469 3.79802 16.176 3.82675C16.2686 4.23597 16.2308 4.65665 16.2354 5.07159C16.2423 6.95089 16.2458 8.83019 16.2525 10.7095C16.3052 11.2382 15.9425 11.6739 15.6851 12.0991C15.6325 12.1084 15.5283 12.1279 15.4757 12.1382C15.2182 11.8129 15.002 11.4394 14.8715 11.0463C14.8349 9.01755 14.8635 6.98537 14.8441 4.95549C14.8395 4.58194 14.8315 4.20493 14.8865 3.83366Z" fill="url(#paint5_linear_451_1773)"/>
<path d="M3.89194 8.38072C3.95259 7.07842 3.81069 5.76234 3.99377 4.46924C3.94687 8.69221 3.98805 12.9163 3.97432 17.1405C3.94228 17.6129 4.16425 18.0462 4.47205 18.3876C4.19172 18.7347 3.92397 19.091 3.66767 19.4554C3.5235 19.3324 3.38619 19.2002 3.25576 19.0646C2.85414 18.5508 2.61729 17.9082 2.61386 17.253C2.61042 16.5428 2.60927 15.8313 2.61843 15.1198C3.04751 14.7129 3.43196 14.2554 3.73976 13.7497C3.92054 13.4588 3.8908 13.1025 3.89766 12.775C3.86676 11.3106 3.90795 9.84508 3.89194 8.38072Z" fill="url(#paint6_linear_451_1773)"/>
<path d="M20.7493 4.7002C20.7869 4.89675 20.8201 5.09444 20.8259 5.29559C20.8132 8.70707 20.8259 12.1197 20.8191 15.5312C20.81 16.1139 20.8773 16.7048 20.7515 17.2806C20.7379 14.8105 20.7539 12.3404 20.7412 9.87028C20.7527 8.1473 20.74 6.42432 20.7493 4.7002Z" fill="url(#paint7_linear_451_1773)"/>
<path d="M2.61807 9.9475C3.10322 9.47624 3.45107 8.89004 3.89158 8.38086C3.9076 9.84522 3.86642 11.3107 3.8973 12.7751C3.89045 13.1026 3.92018 13.459 3.7394 13.7498C3.43161 14.2555 3.04716 14.713 2.61807 15.1199C2.60778 13.3957 2.60778 11.6716 2.61807 9.9475Z" fill="url(#paint8_linear_451_1773)"/>
<path d="M19.6832 11.2437C19.9957 10.7563 20.3652 10.3092 20.7416 9.87012C20.7543 12.3403 20.7384 14.8104 20.7519 17.2805C20.7404 17.97 20.4694 18.6448 20.0208 19.1644C19.5483 19.6426 18.9349 20.0092 18.2565 20.0771C16.5664 19.9885 14.8718 20.0552 13.1807 19.9782C13.4324 19.554 13.7127 19.1482 14.0045 18.7505C15.3009 18.7471 16.5973 18.754 17.8925 18.7471C18.5447 18.754 19.1569 18.2816 19.3319 17.6528C19.3469 17.585 19.3744 17.4472 19.3881 17.3793C19.5254 16.6563 19.4682 15.9173 19.4773 15.1862C19.483 14.2276 19.5014 13.269 19.4864 12.3115C19.4923 11.9506 19.4704 11.5563 19.6832 11.2437Z" fill="url(#paint9_linear_451_1773)"/>
<path d="M3.66699 19.4554C3.92329 19.0912 4.19104 18.7349 4.47137 18.3877C4.7826 18.5912 5.13159 18.7648 5.51375 18.7498C6.63393 18.7543 7.75411 18.7452 8.87431 18.7521C8.62602 19.1532 8.42234 19.6003 8.07335 19.9268C7.73467 20.0463 7.36509 20.0073 7.01039 20.0152C6.38908 19.9946 5.76777 20.0348 5.14761 20.0784C4.60411 20.0325 4.09035 19.7935 3.66699 19.4554Z" fill="url(#paint10_linear_451_1773)"/>
<path d="M8.87515 18.7519C10.5858 18.7496 12.2952 18.7484 14.0047 18.7508C13.7128 19.1484 13.4326 19.5542 13.1808 19.9784C14.872 20.0554 16.5665 19.9887 18.2566 20.0772C18.0209 20.1013 17.7828 20.1081 17.546 20.1093C13.8822 20.1069 10.2184 20.1059 6.55582 20.1047C6.0867 20.1013 5.61642 20.1196 5.14844 20.0782C5.7686 20.0346 6.38991 19.9943 7.01124 20.015C7.36593 20.0071 7.7355 20.0461 8.0742 19.9266C8.42319 19.6001 8.62684 19.153 8.87515 18.7519Z" fill="url(#paint11_linear_451_1773)"/>
<path d="M20.5617 3.71633C20.2951 3.12094 19.8706 2.5876 19.2949 2.27037C18.6473 1.88531 17.8624 1.84278 17.1313 1.92668C16.8121 1.9922 16.6965 2.32554 16.5946 2.59335C16.7159 2.83013 16.8132 3.14277 17.1038 3.21633C17.5947 3.31748 18.137 3.17266 18.5935 3.43587C19.0456 3.66805 19.3271 4.14277 19.3946 4.63932M20.5617 3.71633C20.3843 3.73472 20.2035 3.73472 20.033 3.79105C19.771 4.03243 19.5993 4.35081 19.3946 4.63932M20.5617 3.71633C20.6555 4.03703 20.7401 4.36461 20.7493 4.70025M19.3946 4.63932C19.3957 8.88528 19.4013 13.1323 19.3878 17.3795M20.7493 4.70025C20.7401 6.42438 20.7528 8.14734 20.7413 9.87033M20.7493 4.70025C20.787 4.89679 20.8202 5.0945 20.8258 5.29564C20.8133 8.70712 20.826 12.1197 20.819 15.5313C20.8098 16.114 20.8774 16.7048 20.7516 17.2807M19.3878 17.3795C19.5249 16.6565 19.4678 15.9175 19.477 15.1864C19.4826 14.2278 19.5008 13.2692 19.4861 12.3118C19.4917 11.9508 19.4701 11.5565 19.6829 11.2439C19.9953 10.7565 20.3649 10.3094 20.7413 9.87033M19.3878 17.3795C19.374 17.4474 19.3465 17.5852 19.3316 17.6529C19.1566 18.2818 18.5444 18.7541 17.8922 18.7473C16.597 18.7541 15.3006 18.7473 14.0042 18.7509M20.7413 9.87033C20.7538 12.3405 20.7378 14.8106 20.7516 17.2807M20.7516 17.2807C20.7401 17.9702 20.469 18.645 20.0204 19.1646C19.5478 19.6427 18.9345 20.0093 18.256 20.0772M14.0042 18.7509C13.7123 19.1484 13.4321 19.5542 13.1803 19.9784C14.8715 20.0554 16.566 19.9887 18.256 20.0772M14.0042 18.7509C12.2947 18.7485 10.5853 18.7497 8.87466 18.7519M9.10236 1.90255C7.83342 1.8991 6.56449 1.89105 5.29555 1.90599C3.85043 1.96118 2.60781 3.27841 2.61466 4.72897C2.61124 6.46805 2.60552 8.20827 2.6181 9.94733M9.10236 1.90255C8.8243 2.35541 8.52338 2.7945 8.24304 3.24622M9.10236 1.90255C10.6184 1.8968 12.1345 1.89796 13.6506 1.8991C13.9653 1.87036 14.2856 2.06577 14.3726 2.37612C14.4721 2.64163 14.3063 2.89795 14.2205 3.14048C13.6208 3.28874 13.0007 3.24737 12.3897 3.24852C11.0075 3.24622 9.62526 3.24968 8.24304 3.24622M2.6181 9.94733C3.10325 9.47607 3.45109 8.88987 3.89161 8.38068M2.6181 9.94733C2.60781 11.6714 2.60781 13.3956 2.6181 15.1198M8.24304 3.24622C7.29678 3.25887 6.35052 3.22898 5.40655 3.25657C4.85504 3.27035 4.35045 3.62093 4.11816 4.11979C4.06668 4.23242 4.02548 4.34852 3.99344 4.4692M3.89161 8.38068C3.95225 7.0784 3.81036 5.7623 3.99344 4.4692M3.89161 8.38068C3.90763 9.84505 3.86643 11.3106 3.89733 12.775C3.89047 13.1025 3.92021 13.4588 3.73943 13.7497C3.43164 14.2553 3.04719 14.7128 2.6181 15.1198M2.6181 15.1198C2.60894 15.8313 2.61009 16.5427 2.61353 17.253C2.61697 17.9082 2.85381 18.5506 3.25543 19.0645C3.38587 19.2002 3.52318 19.3323 3.66735 19.4552M3.99344 4.4692C3.94654 8.69217 3.98772 12.9163 3.97399 17.1405C3.94195 17.6129 4.16393 18.0462 4.47172 18.3875M4.47172 18.3875C4.19139 18.7347 3.92365 19.091 3.66735 19.4552M4.47172 18.3875C4.78295 18.591 5.13194 18.7646 5.51409 18.7497C6.63429 18.7541 7.75446 18.745 8.87466 18.7519M3.66735 19.4552C4.09071 19.7933 4.60446 20.0324 5.14796 20.0783M8.87466 18.7519C8.62635 19.1531 8.4227 19.6003 8.07371 19.9267C7.73503 20.0461 7.36544 20.0071 7.01074 20.0152C6.38943 19.9944 5.76811 20.0348 5.14796 20.0783M18.256 20.0772C18.0203 20.1013 17.7823 20.1082 17.5455 20.1094C13.8817 20.107 10.2179 20.1059 6.55533 20.1047C6.08621 20.1013 5.61593 20.1197 5.14796 20.0783M14.8257 2.63129C14.8302 2.37956 14.8302 2.00944 15.1461 1.95198C15.4344 1.91405 15.7376 1.8991 16.0214 1.97727C16.24 2.09105 16.2365 2.35082 16.2388 2.56462C16.2125 2.77841 16.2937 3.05197 16.1392 3.22439C15.7411 3.27841 15.3349 3.27381 14.9355 3.22783C14.8062 3.06231 14.8543 2.82667 14.8257 2.63129ZM14.8864 3.83357C15.3154 3.79564 15.7468 3.79794 16.1759 3.82668C16.2686 4.23588 16.2308 4.65656 16.2353 5.0715C16.2422 6.95081 16.2457 8.83011 16.2525 10.7094C16.3051 11.2381 15.9425 11.6738 15.6851 12.0991C15.6324 12.1083 15.5283 12.1278 15.4756 12.1381C15.2182 11.8128 15.002 11.4393 14.8715 11.0462C14.8348 9.01746 14.8634 6.98529 14.844 4.95541C14.8395 4.58186 14.8314 4.20484 14.8864 3.83357Z" stroke="url(#paint12_linear_451_1773)" stroke-width="0.6"/>
<defs>
<linearGradient id="paint0_linear_451_1773" x1="2.61044" y1="20.1094" x2="24.5937" y2="10.5278" gradientUnits="userSpaceOnUse">
<stop stop-color="#0357D1"/>
<stop offset="1" stop-color="#27CDFC"/>
</linearGradient>
<linearGradient id="paint1_linear_451_1773" x1="2.61035" y1="20.1096" x2="24.5937" y2="10.528" gradientUnits="userSpaceOnUse">
<stop stop-color="#0357D1"/>
<stop offset="1" stop-color="#27CDFC"/>
</linearGradient>
<linearGradient id="paint2_linear_451_1773" x1="2.61046" y1="20.1096" x2="24.5938" y2="10.528" gradientUnits="userSpaceOnUse">
<stop stop-color="#0357D1"/>
<stop offset="1" stop-color="#27CDFC"/>
</linearGradient>
<linearGradient id="paint3_linear_451_1773" x1="2.61081" y1="20.1093" x2="24.5941" y2="10.5277" gradientUnits="userSpaceOnUse">
<stop stop-color="#0357D1"/>
<stop offset="1" stop-color="#27CDFC"/>
</linearGradient>
<linearGradient id="paint4_linear_451_1773" x1="2.6103" y1="20.1093" x2="24.5936" y2="10.5278" gradientUnits="userSpaceOnUse">
<stop stop-color="#0357D1"/>
<stop offset="1" stop-color="#27CDFC"/>
</linearGradient>
<linearGradient id="paint5_linear_451_1773" x1="2.6104" y1="20.1095" x2="24.5938" y2="10.5279" gradientUnits="userSpaceOnUse">
<stop stop-color="#0357D1"/>
<stop offset="1" stop-color="#27CDFC"/>
</linearGradient>
<linearGradient id="paint6_linear_451_1773" x1="2.61068" y1="20.1094" x2="24.594" y2="10.5278" gradientUnits="userSpaceOnUse">
<stop stop-color="#0357D1"/>
<stop offset="1" stop-color="#27CDFC"/>
</linearGradient>
<linearGradient id="paint7_linear_451_1773" x1="2.61025" y1="20.1093" x2="24.5936" y2="10.5277" gradientUnits="userSpaceOnUse">
<stop stop-color="#0357D1"/>
<stop offset="1" stop-color="#27CDFC"/>
</linearGradient>
<linearGradient id="paint8_linear_451_1773" x1="2.61032" y1="20.1096" x2="24.5936" y2="10.528" gradientUnits="userSpaceOnUse">
<stop stop-color="#0357D1"/>
<stop offset="1" stop-color="#27CDFC"/>
</linearGradient>
<linearGradient id="paint9_linear_451_1773" x1="2.61073" y1="20.1092" x2="24.594" y2="10.5276" gradientUnits="userSpaceOnUse">
<stop stop-color="#0357D1"/>
<stop offset="1" stop-color="#27CDFC"/>
</linearGradient>
<linearGradient id="paint10_linear_451_1773" x1="2.61" y1="20.1095" x2="24.5933" y2="10.528" gradientUnits="userSpaceOnUse">
<stop stop-color="#0357D1"/>
<stop offset="1" stop-color="#27CDFC"/>
</linearGradient>
<linearGradient id="paint11_linear_451_1773" x1="2.61084" y1="20.1093" x2="24.5943" y2="10.5278" gradientUnits="userSpaceOnUse">
<stop stop-color="#0357D1"/>
<stop offset="1" stop-color="#27CDFC"/>
</linearGradient>
<linearGradient id="paint12_linear_451_1773" x1="2.61035" y1="20.1094" x2="24.5937" y2="10.5278" gradientUnits="userSpaceOnUse">
<stop stop-color="#0357D1"/>
<stop offset="1" stop-color="#10CAFF"/>
</linearGradient>
</defs>
</svg>
