<svg width="23" height="22" viewBox="0 0 23 22" fill="none" xmlns="http://www.w3.org/2000/svg">
<path d="M13.8635 1.38604C14.0396 1.39163 14.2192 1.38672 14.3996 1.3818C14.9352 1.36716 15.4783 1.35233 15.9605 1.61126C16.3121 1.78172 16.5612 2.08895 16.8019 2.38576L16.827 2.41677L16.7871 2.46225C16.9446 2.71631 17.0233 3.01036 17.0277 3.3088C17.0235 4.01263 17.0235 4.7168 17.0235 5.42111C17.0235 6.01246 17.0235 6.60392 17.0209 7.19539C17.0212 7.62398 17.022 8.05264 17.0228 8.48121V8.48158C17.025 9.74598 17.0274 11.0104 17.0167 12.2748C16.7538 12.4983 16.5431 12.7677 16.3324 13.0372C16.1571 13.2614 15.9818 13.4858 15.7762 13.6838C15.7496 15.0415 15.7584 16.4004 15.7673 17.758L15.7673 17.759C15.7651 18.0974 15.754 18.4381 15.7008 18.773C15.6949 16.2667 15.6968 13.7603 15.6986 11.2539C15.7006 8.57228 15.7026 5.89064 15.6951 3.20897C15.7307 3.3643 15.7584 3.52184 15.7795 3.68051L15.7797 3.68038C15.7585 3.52174 15.7307 3.36426 15.6951 3.20897C15.6375 2.99484 15.469 2.82172 15.267 2.73742C14.7792 2.65913 14.2855 2.66571 13.7922 2.67228C13.5653 2.67529 13.3385 2.67831 13.1123 2.67307C13.3952 2.26366 13.6549 1.83872 13.8635 1.38604Z" fill="url(#paint0_linear_451_1796)"/>
<path d="M7.0348 1.38403C6.01072 1.39512 5.08429 2.30049 5.10093 3.33343L5.10021 3.71447C5.09705 5.37925 5.09387 7.04409 5.10315 8.70885C5.09648 10.3787 5.09204 12.0486 5.10535 13.7184C5.37308 13.4961 5.58833 13.2255 5.80368 12.9548C5.9881 12.7229 6.17257 12.491 6.39011 12.2893C6.40899 10.6251 6.40557 8.96204 6.39116 7.29893C6.41084 6.70558 6.40531 6.11154 6.39965 5.51785V5.51768C6.39192 4.70598 6.38418 3.89465 6.44121 3.08601C6.4501 3.07706 6.45898 3.06807 6.46785 3.05906L6.46823 3.05868L6.4684 3.05853C6.59614 2.92921 6.72749 2.79621 6.89945 2.73097C7.49334 2.65727 8.09185 2.66571 8.69051 2.67415C9.02013 2.67879 9.34978 2.68345 9.67875 2.67437L10.1598 2.67487C11.1436 2.67595 12.1282 2.67707 13.1127 2.67324C13.3957 2.26385 13.6553 1.8389 13.8639 1.38622C12.7121 1.37734 11.5615 1.38068 10.411 1.38511C9.28487 1.37957 8.15982 1.37848 7.0348 1.38403Z" fill="url(#paint1_linear_451_1796)"/>
<path d="M6.39917 5.51761C6.39145 4.70591 6.38372 3.89458 6.44075 3.08594C6.44207 5.18512 6.44202 7.28447 6.44193 9.38385C6.44183 12.5496 6.44173 15.7154 6.4464 18.8807C6.38717 18.3577 6.39202 17.8318 6.39687 17.3057C6.39965 17.004 6.40244 16.7024 6.39314 16.4011C6.40532 15.0297 6.4063 13.6595 6.38965 12.2892C6.40852 10.625 6.40524 8.96188 6.39082 7.29873C6.4105 6.70538 6.40484 6.1113 6.39917 5.51761Z" fill="url(#paint2_linear_451_1796)"/>
<path d="M17.0286 3.30859C17.1153 3.75048 17.1077 4.20038 17.0999 4.64877C17.0987 4.7284 17.0973 4.80796 17.0965 4.88742C17.0976 8.95488 17.0976 13.0234 17.0965 17.0921C17.0973 17.1741 17.0987 17.2564 17.1003 17.3385V17.3389C17.1082 17.7846 17.116 18.2316 17.0299 18.6709C17.0229 17.655 17.0239 16.6392 17.0248 15.6235C17.0259 14.5073 17.0269 13.3911 17.0176 12.2746C17.0283 11.0102 17.0259 9.74578 17.0237 8.48138V8.481C17.0229 8.05243 17.0221 7.62377 17.0218 7.19519C17.0244 6.60371 17.0244 6.01226 17.0244 5.4209C17.0244 4.71659 17.0244 4.01242 17.0286 3.30859Z" fill="url(#paint3_linear_451_1796)"/>
<path fill-rule="evenodd" clip-rule="evenodd" d="M5.80357 12.9547C5.58824 13.2254 5.37297 13.496 5.10524 13.7183C5.09415 15.1163 5.09531 16.5154 5.10306 17.9145C5.07202 18.5769 5.06867 19.2947 5.49027 19.8495C5.82535 20.2233 6.26579 20.5019 6.76395 20.5951C8.41688 20.6281 10.071 20.6241 11.7254 20.6203H11.7256C12.7897 20.6179 13.8538 20.6154 14.9177 20.6228C15.5346 20.6539 16.126 20.3787 16.5553 19.9449C16.8415 19.5841 17.0304 19.136 17.0293 18.6713C17.0223 17.6553 17.0233 16.6395 17.0242 15.6239C17.0253 14.5076 17.0263 13.3914 17.017 12.2749C16.7541 12.4984 16.5434 12.7678 16.3328 13.0374C16.1574 13.2616 15.9821 13.4859 15.7765 13.684C15.7499 15.0416 15.7587 16.4005 15.7676 17.7581L15.7676 17.7591C15.7654 18.0976 15.7543 18.4382 15.7011 18.7732C15.64 19.1305 15.2605 19.3358 14.9189 19.3113C14.3226 19.3131 13.7261 19.3127 13.1296 19.3124H13.1281C12.6228 19.3119 12.1175 19.3115 11.6125 19.3125C11.4143 19.3124 11.2161 19.3122 11.0179 19.3119C9.84612 19.3107 8.67493 19.3093 7.50291 19.317C7.11348 19.337 6.61874 19.3003 6.44678 18.8808C6.38755 18.3578 6.39238 17.8318 6.39724 17.3057C6.40003 17.0041 6.40279 16.7024 6.39351 16.4012C6.2011 16.6092 6.02536 16.8318 5.84979 17.0544" fill="url(#paint4_linear_451_1796)"/>
<path d="M5.84895 17.0542C6.02452 16.8315 6.20026 16.609 6.39268 16.4009C6.40486 15.0295 6.40584 13.6593 6.38919 12.2891C6.17165 12.4907 5.98716 12.7227 5.80273 12.9545" fill="url(#paint5_linear_451_1796)"/>
<path d="M9.09931 17.4435C9.10045 17.0829 9.44437 16.779 9.80163 16.8156L10.0963 16.8149H10.0966C10.8502 16.8126 11.6029 16.8106 12.3557 16.8156C12.7795 16.7845 13.1346 17.2383 13.0059 17.6422C12.9549 17.893 12.7318 18.0683 12.4922 18.1271C11.5524 18.1037 10.6127 18.1004 9.67295 18.1293C9.34673 18.0803 9.07379 17.7809 9.09931 17.4435Z" fill="url(#paint6_linear_451_1796)"/>
<path d="M13.8638 1.38604C14.0399 1.39163 14.2195 1.38672 14.3999 1.3818C14.9355 1.36716 15.4786 1.35233 15.9608 1.61126C16.3124 1.78172 16.5615 2.08895 16.8022 2.38576L16.8273 2.41677L16.7874 2.46225C16.9449 2.71631 17.0236 3.01036 17.028 3.3088M13.8638 1.38604C13.6552 1.83872 13.3955 2.26366 13.1126 2.67307M13.8638 1.38604C12.7121 1.37716 11.5614 1.3805 10.4109 1.38493C9.28478 1.37939 8.15972 1.3783 7.03471 1.38385C6.01063 1.39495 5.08419 2.30031 5.10084 3.33324L5.10012 3.7143C5.09694 5.37907 5.09378 7.04392 5.10304 8.70868C5.09639 10.3785 5.09194 12.0484 5.10524 13.7182M17.028 3.3088C17.0238 4.01263 17.0238 4.7168 17.0238 5.42111C17.0238 6.01246 17.0238 6.60392 17.0212 7.19539C17.0215 7.62398 17.0223 8.05264 17.0231 8.48121V8.48158C17.0253 9.74598 17.0277 11.0104 17.017 12.2748M17.028 3.3088C17.1146 3.75069 17.1071 4.20059 17.0993 4.64898C17.0981 4.72859 17.0967 4.80817 17.0959 4.88763C17.097 8.95508 17.097 13.0236 17.0959 17.0923C17.0967 17.1743 17.0981 17.2566 17.0997 17.3387V17.3391C17.1075 17.7848 17.1154 18.2318 17.0293 18.6711M13.1126 2.67307C13.3388 2.67831 13.5656 2.67529 13.7925 2.67228C14.2858 2.66571 14.7795 2.65913 15.2673 2.73742C15.4693 2.82172 15.6378 2.99484 15.6954 3.20897M13.1126 2.67307C12.1281 2.67688 11.1435 2.67578 10.1597 2.67468L9.67866 2.6742C9.34969 2.68328 9.02002 2.67862 8.6904 2.67396C8.09174 2.66552 7.49325 2.6571 6.89936 2.7308C6.72738 2.79604 6.59603 2.92902 6.4683 3.05834L6.46814 3.0585L6.46776 3.05888C6.45888 3.0679 6.44999 3.07687 6.4411 3.08583M5.10524 13.7182C5.37297 13.4959 5.58824 13.2253 5.80357 12.9546M5.10524 13.7182C5.09415 15.1162 5.09531 16.5153 5.10306 17.9144M17.017 12.2748C16.7541 12.4983 16.5434 12.7677 16.3327 13.0372C16.1574 13.2614 15.9821 13.4858 15.7765 13.6838M17.017 12.2748C17.0263 13.3913 17.0253 14.5075 17.0242 15.6237C17.0233 16.6394 17.0223 17.6552 17.0293 18.6711M17.0293 18.6711C17.0304 19.1359 16.8415 19.5841 16.5553 19.9447C16.126 20.3785 15.5346 20.6537 14.9177 20.6226C13.8538 20.6152 12.7897 20.6178 11.7256 20.6202H11.7254C10.071 20.624 8.41688 20.6279 6.76395 20.5949M15.6954 3.20897C15.7029 5.89064 15.7009 8.57228 15.6989 11.2539C15.6971 13.7603 15.6952 16.2667 15.7011 18.773M15.6954 3.20897C15.731 3.3643 15.7587 3.52184 15.7798 3.68051M15.6954 3.20897C15.731 3.36426 15.7588 3.52174 15.78 3.68038L15.7798 3.68051M6.4411 3.08583C6.38409 3.89448 6.39181 4.7058 6.39954 5.5175C6.40522 6.11119 6.41085 6.70529 6.39119 7.29862M6.4411 3.08583C6.44243 5.185 6.44239 7.28437 6.44231 9.38376C6.4422 12.5495 6.4421 15.7153 6.44678 18.8806M5.80357 12.9546C5.98799 12.7227 6.17248 12.4908 6.39002 12.2891M5.80357 12.9546L5.84979 17.0543M5.10306 17.9144C5.3789 17.6512 5.61432 17.3528 5.84979 17.0543M5.10306 17.9144C5.07202 18.5768 5.06867 19.2945 5.49027 19.8493C5.82535 20.2232 6.26579 20.5018 6.76395 20.5949M15.7765 13.6838C15.7736 13.4758 15.771 13.2678 15.7688 13.0597M15.7765 13.6838C15.7499 15.0415 15.7587 16.4004 15.7676 17.758L15.7676 17.759C15.7654 18.0974 15.7543 18.4381 15.7011 18.773M6.76395 20.5949C7.02581 20.1778 7.27881 19.755 7.50291 19.3169M15.7011 18.773C15.64 19.1304 15.2605 19.3356 14.9189 19.3112C14.3226 19.3129 13.7261 19.3126 13.1296 19.3122H13.1281C12.6228 19.3117 12.1175 19.3114 11.6125 19.3124C11.4143 19.3122 11.2161 19.312 11.0179 19.3117C9.84612 19.3105 8.67493 19.3091 7.50291 19.3169M7.50291 19.3169C7.11348 19.3368 6.61874 19.3002 6.44678 18.8806M15.7798 3.68051C15.7476 5.35031 15.7541 7.02011 15.7763 8.68993M6.44678 18.8806C6.38755 18.3576 6.39238 17.8317 6.39724 17.3056C6.40003 17.0039 6.40279 16.7022 6.39351 16.401M6.39119 7.29862L6.39105 7.29874C6.40546 8.96185 6.40889 10.6249 6.39002 12.2891M6.39119 7.29862C6.40561 8.96179 6.40889 10.6249 6.39002 12.2891M6.39002 12.2891C6.40668 13.6594 6.4057 15.0296 6.39351 16.401M5.84979 17.0543C6.02536 16.8316 6.2011 16.6091 6.39351 16.401M11.5626 19.4073C11.5526 19.4265 11.5426 19.4456 11.5327 19.4647M9.80184 16.8155C9.44459 16.7789 9.10065 17.0828 9.09953 17.4434C9.07401 17.7808 9.34694 18.0802 9.67315 18.1292C10.6129 18.1003 11.5526 18.1036 12.4924 18.127C12.732 18.0682 12.9551 17.8929 13.0061 17.6421C13.1348 17.2382 12.7798 16.7845 12.3559 16.8155C11.6031 16.8105 10.8504 16.8125 10.0968 16.8148H10.0965L9.80184 16.8155Z" stroke="url(#paint7_linear_451_1796)" stroke-width="0.6"/>
<defs>
<linearGradient id="paint0_linear_451_1796" x1="7.49679" y1="13.2344" x2="16.0905" y2="12.2891" gradientUnits="userSpaceOnUse">
<stop stop-color="#A000D9"/>
<stop offset="1" stop-color="#FF38DC"/>
</linearGradient>
<linearGradient id="paint1_linear_451_1796" x1="7.49718" y1="13.2346" x2="16.0909" y2="12.2892" gradientUnits="userSpaceOnUse">
<stop stop-color="#A000D9"/>
<stop offset="1" stop-color="#FF38DC"/>
</linearGradient>
<linearGradient id="paint2_linear_451_1796" x1="7.49671" y1="13.2345" x2="16.0906" y2="12.2892" gradientUnits="userSpaceOnUse">
<stop stop-color="#A000D9"/>
<stop offset="1" stop-color="#FF38DC"/>
</linearGradient>
<linearGradient id="paint3_linear_451_1796" x1="7.49777" y1="13.2342" x2="16.0915" y2="12.2889" gradientUnits="userSpaceOnUse">
<stop stop-color="#A000D9"/>
<stop offset="1" stop-color="#FF38DC"/>
</linearGradient>
<linearGradient id="paint4_linear_451_1796" x1="7.49709" y1="13.2345" x2="16.0908" y2="12.2892" gradientUnits="userSpaceOnUse">
<stop stop-color="#A000D9"/>
<stop offset="1" stop-color="#FF38DC"/>
</linearGradient>
<linearGradient id="paint5_linear_451_1796" x1="7.49625" y1="13.2343" x2="16.09" y2="12.289" gradientUnits="userSpaceOnUse">
<stop stop-color="#A000D9"/>
<stop offset="1" stop-color="#FF38DC"/>
</linearGradient>
<linearGradient id="paint6_linear_451_1796" x1="7.49687" y1="13.2345" x2="16.0906" y2="12.2892" gradientUnits="userSpaceOnUse">
<stop stop-color="#A000D9"/>
<stop offset="1" stop-color="#FF38DC"/>
</linearGradient>
<linearGradient id="paint7_linear_451_1796" x1="7.49709" y1="13.2344" x2="16.0908" y2="12.2891" gradientUnits="userSpaceOnUse">
<stop stop-color="#A000D9"/>
<stop offset="1" stop-color="#FF38DC"/>
</linearGradient>
</defs>
</svg>
