<svg width="23" height="22" viewBox="0 0 23 22" fill="none" xmlns="http://www.w3.org/2000/svg">
<path d="M14.6701 1.38604C14.8462 1.39163 15.0258 1.38672 15.2063 1.3818C15.7419 1.36716 16.285 1.35233 16.7672 1.61126C17.1188 1.78172 17.3678 2.08895 17.6086 2.38576L17.6336 2.41677L17.5937 2.46225C17.7512 2.71631 17.8299 3.01036 17.8344 3.3088C17.8301 4.01263 17.8301 4.7168 17.8301 5.42111C17.8301 6.01246 17.8301 6.60392 17.8276 7.19539C17.8279 7.62398 17.8287 8.05264 17.8295 8.48121V8.48158C17.8317 9.74598 17.834 11.0104 17.8233 12.2748C17.5604 12.4983 17.3498 12.7677 17.1391 13.0372C16.9638 13.2614 16.7884 13.4858 16.5828 13.6838C16.5562 15.0415 16.5651 16.4004 16.5739 17.758L16.5739 17.759C16.5717 18.0974 16.5606 18.4381 16.5074 18.773C16.5015 16.2667 16.5034 13.7603 16.5053 11.2539C16.5073 8.57228 16.5093 5.89064 16.5018 3.20897C16.5373 3.3643 16.565 3.52184 16.5862 3.68051L16.5863 3.68038C16.5652 3.52174 16.5373 3.36426 16.5018 3.20897C16.4441 2.99484 16.2757 2.82172 16.0736 2.73742C15.5858 2.65913 15.0922 2.66571 14.5989 2.67228C14.372 2.67529 14.1451 2.67831 13.9189 2.67307C14.2019 2.26366 14.4615 1.83872 14.6701 1.38604Z" fill="url(#paint0_linear_451_1787)"/>
<path d="M7.84144 1.38403C6.81736 1.39512 5.89093 2.30049 5.90757 3.33343L5.90685 3.71447C5.90369 5.37925 5.90051 7.04409 5.90979 8.70885C5.90312 10.3787 5.89869 12.0486 5.91199 13.7184C6.17972 13.4961 6.39497 13.2255 6.61032 12.9548C6.79474 12.7229 6.97921 12.491 7.19675 12.2893C7.21563 10.6251 7.21221 8.96204 7.1978 7.29893C7.21748 6.70558 7.21195 6.11154 7.20629 5.51785V5.51768C7.19856 4.70598 7.19082 3.89465 7.24785 3.08601C7.25674 3.07706 7.26562 3.06807 7.27449 3.05906L7.27487 3.05868L7.27504 3.05853C7.40278 2.92921 7.53413 2.79621 7.70609 2.73097C8.29999 2.65727 8.89849 2.66571 9.49715 2.67415C9.82677 2.67879 10.1564 2.68345 10.4854 2.67437L10.9664 2.67487C11.9502 2.67595 12.9349 2.67707 13.9193 2.67324C14.2023 2.26385 14.4619 1.8389 14.6705 1.38622C13.5188 1.37734 12.3682 1.38068 11.2176 1.38511C10.0915 1.37957 8.96646 1.37848 7.84144 1.38403Z" fill="url(#paint1_linear_451_1787)"/>
<path d="M7.20581 5.51761C7.19809 4.70591 7.19036 3.89458 7.24739 3.08594C7.24871 5.18512 7.24866 7.28447 7.24857 9.38385C7.24847 12.5496 7.24837 15.7154 7.25304 18.8807C7.19381 18.3577 7.19866 17.8318 7.20351 17.3057C7.20629 17.004 7.20908 16.7024 7.19978 16.4011C7.21196 15.0297 7.21294 13.6595 7.19629 12.2892C7.21516 10.625 7.21188 8.96188 7.19746 7.29873C7.21714 6.70538 7.21148 6.1113 7.20581 5.51761Z" fill="url(#paint2_linear_451_1787)"/>
<path d="M17.8353 3.30859C17.9219 3.75048 17.9143 4.20038 17.9066 4.64877C17.9053 4.7284 17.9039 4.80796 17.9031 4.88742C17.9042 8.95488 17.9042 13.0234 17.9031 17.0921C17.9039 17.1741 17.9053 17.2564 17.9069 17.3385V17.3389C17.9148 17.7846 17.9227 18.2316 17.8365 18.6709C17.8296 17.655 17.8305 16.6392 17.8315 15.6235C17.8326 14.5073 17.8335 13.3911 17.8242 12.2746C17.835 11.0102 17.8326 9.74578 17.8304 8.48138V8.481C17.8296 8.05243 17.8288 7.62377 17.8285 7.19519C17.831 6.60371 17.831 6.01226 17.831 5.4209C17.831 4.71659 17.831 4.01242 17.8353 3.30859Z" fill="url(#paint3_linear_451_1787)"/>
<path fill-rule="evenodd" clip-rule="evenodd" d="M6.61021 12.9547C6.39488 13.2254 6.17961 13.496 5.91188 13.7183C5.9008 15.1163 5.90195 16.5154 5.9097 17.9145C5.87866 18.5769 5.87531 19.2947 6.29692 19.8495C6.63199 20.2233 7.07243 20.5019 7.57059 20.5951C9.22352 20.6281 10.8777 20.6241 12.5321 20.6203H12.5323C13.5963 20.6179 14.6604 20.6154 15.7243 20.6228C16.3412 20.6539 16.9327 20.3787 17.362 19.9449C17.6482 19.5841 17.837 19.136 17.8359 18.6713C17.829 17.6553 17.8299 16.6395 17.8309 15.6239C17.832 14.5076 17.8329 13.3914 17.8236 12.2749C17.5607 12.4984 17.3501 12.7678 17.1394 13.0374C16.9641 13.2616 16.7887 13.4859 16.5831 13.684C16.5565 15.0416 16.5654 16.4005 16.5742 17.7581L16.5742 17.7591C16.572 18.0976 16.5609 18.4382 16.5077 18.7732C16.4467 19.1305 16.0672 19.3358 15.7255 19.3113C15.1293 19.3131 14.5327 19.3127 13.9362 19.3124H13.9347C13.4295 19.3119 12.9242 19.3115 12.4192 19.3125C12.2209 19.3124 12.0227 19.3122 11.8245 19.3119C10.6528 19.3107 9.48157 19.3093 8.30955 19.317C7.92012 19.337 7.42538 19.3003 7.25342 18.8808C7.19419 18.3578 7.19902 17.8318 7.20388 17.3057C7.20667 17.0041 7.20943 16.7024 7.20015 16.4012C7.00774 16.6092 6.832 16.8318 6.65643 17.0544" fill="url(#paint4_linear_451_1787)"/>
<path d="M6.65559 17.0542C6.83116 16.8315 7.0069 16.609 7.19932 16.4009C7.2115 15.0295 7.21248 13.6593 7.19583 12.2891C6.97829 12.4907 6.7938 12.7227 6.60938 12.9545" fill="url(#paint5_linear_451_1787)"/>
<path d="M9.90595 17.4435C9.90709 17.0829 10.251 16.779 10.6083 16.8156L10.903 16.8149H10.9032C11.6568 16.8126 12.4096 16.8106 13.1624 16.8156C13.5862 16.7845 13.9413 17.2383 13.8125 17.6422C13.7615 17.893 13.5385 18.0683 13.2988 18.1271C12.359 18.1037 11.4193 18.1004 10.4796 18.1293C10.1534 18.0803 9.88043 17.7809 9.90595 17.4435Z" fill="url(#paint6_linear_451_1787)"/>
<path d="M14.6704 1.38604C14.8465 1.39163 15.0261 1.38672 15.2066 1.3818C15.7422 1.36716 16.2853 1.35233 16.7675 1.61126C17.1191 1.78172 17.3681 2.08895 17.6089 2.38576L17.6339 2.41677L17.594 2.46225C17.7515 2.71631 17.8302 3.01036 17.8347 3.3088M14.6704 1.38604C14.4618 1.83872 14.2022 2.26366 13.9192 2.67307M14.6704 1.38604C13.5187 1.37716 12.3681 1.3805 11.2175 1.38493C10.0914 1.37939 8.96636 1.3783 7.84135 1.38385C6.81727 1.39495 5.89083 2.30031 5.90748 3.33324L5.90676 3.7143C5.90358 5.37907 5.90042 7.04392 5.90968 8.70868C5.90303 10.3785 5.89858 12.0484 5.91188 13.7182M17.8347 3.3088C17.8304 4.01263 17.8304 4.7168 17.8304 5.42111C17.8304 6.01246 17.8304 6.60392 17.8279 7.19539C17.8282 7.62398 17.829 8.05264 17.8298 8.48121V8.48158C17.832 9.74598 17.8343 11.0104 17.8236 12.2748M17.8347 3.3088C17.9213 3.75069 17.9137 4.20059 17.906 4.64898C17.9047 4.72859 17.9033 4.80817 17.9025 4.88763C17.9036 8.95508 17.9036 13.0236 17.9025 17.0923C17.9033 17.1743 17.9047 17.2566 17.9063 17.3387V17.3391C17.9142 17.7848 17.9221 18.2318 17.8359 18.6711M13.9192 2.67307C14.1454 2.67831 14.3723 2.67529 14.5992 2.67228C15.0925 2.66571 15.5861 2.65913 16.0739 2.73742C16.276 2.82172 16.4444 2.99484 16.5021 3.20897M13.9192 2.67307C12.9348 2.67688 11.9502 2.67578 10.9663 2.67468L10.4853 2.6742C10.1563 2.68328 9.82666 2.67862 9.49704 2.67396C8.89838 2.66552 8.29989 2.6571 7.706 2.7308C7.53402 2.79604 7.40267 2.92902 7.27494 3.05834L7.27478 3.0585L7.2744 3.05888C7.26552 3.0679 7.25663 3.07687 7.24775 3.08583M5.91188 13.7182C6.17961 13.4959 6.39488 13.2253 6.61021 12.9546M5.91188 13.7182C5.9008 15.1162 5.90195 16.5153 5.9097 17.9144M17.8236 12.2748C17.5607 12.4983 17.3501 12.7677 17.1394 13.0372C16.9641 13.2614 16.7887 13.4858 16.5831 13.6838M17.8236 12.2748C17.8329 13.3913 17.832 14.5075 17.8309 15.6237C17.8299 16.6394 17.829 17.6552 17.8359 18.6711M17.8359 18.6711C17.837 19.1359 17.6482 19.5841 17.362 19.9447C16.9327 20.3785 16.3412 20.6537 15.7243 20.6226C14.6604 20.6152 13.5963 20.6178 12.5323 20.6202H12.5321C10.8777 20.624 9.22352 20.6279 7.57059 20.5949M16.5021 3.20897C16.5096 5.89064 16.5076 8.57228 16.5056 11.2539C16.5037 13.7603 16.5018 16.2667 16.5077 18.773M16.5021 3.20897C16.5376 3.3643 16.5653 3.52184 16.5865 3.68051M16.5021 3.20897C16.5376 3.36426 16.5654 3.52174 16.5866 3.68038L16.5865 3.68051M7.24775 3.08583C7.19073 3.89448 7.19845 4.7058 7.20619 5.5175C7.21186 6.11119 7.21749 6.70529 7.19783 7.29862M7.24775 3.08583C7.24907 5.185 7.24903 7.28437 7.24895 9.38376C7.24885 12.5495 7.24874 15.7153 7.25342 18.8806M6.61021 12.9546C6.79463 12.7227 6.97912 12.4908 7.19666 12.2891M6.61021 12.9546L6.65643 17.0543M5.9097 17.9144C6.18554 17.6512 6.42096 17.3528 6.65643 17.0543M5.9097 17.9144C5.87866 18.5768 5.87531 19.2945 6.29692 19.8493C6.63199 20.2232 7.07243 20.5018 7.57059 20.5949M16.5831 13.6838C16.5802 13.4758 16.5777 13.2678 16.5754 13.0597M16.5831 13.6838C16.5565 15.0415 16.5654 16.4004 16.5742 17.758L16.5742 17.759C16.572 18.0974 16.5609 18.4381 16.5077 18.773M7.57059 20.5949C7.83245 20.1778 8.08545 19.755 8.30955 19.3169M16.5077 18.773C16.4467 19.1304 16.0672 19.3356 15.7255 19.3112C15.1293 19.3129 14.5327 19.3126 13.9362 19.3122H13.9347C13.4295 19.3117 12.9242 19.3114 12.4192 19.3124C12.2209 19.3122 12.0227 19.312 11.8245 19.3117C10.6528 19.3105 9.48157 19.3091 8.30955 19.3169M8.30955 19.3169C7.92012 19.3368 7.42538 19.3002 7.25342 18.8806M16.5865 3.68051C16.5542 5.35031 16.5608 7.02011 16.583 8.68993M7.25342 18.8806C7.19419 18.3576 7.19902 17.8317 7.20388 17.3056C7.20667 17.0039 7.20943 16.7022 7.20015 16.401M7.19783 7.29862L7.19769 7.29874C7.2121 8.96185 7.21554 10.6249 7.19666 12.2891M7.19783 7.29862C7.21225 8.96179 7.21554 10.6249 7.19666 12.2891M7.19666 12.2891C7.21332 13.6594 7.21234 15.0296 7.20015 16.401M6.65643 17.0543C6.832 16.8316 7.00774 16.6091 7.20015 16.401M12.3692 19.4073C12.3593 19.4265 12.3493 19.4456 12.3393 19.4647M10.6085 16.8155C10.2512 16.7789 9.90729 17.0828 9.90617 17.4434C9.88065 17.7808 10.1536 18.0802 10.4798 18.1292C11.4195 18.1003 12.3593 18.1036 13.299 18.127C13.5387 18.0682 13.7618 17.8929 13.8127 17.6421C13.9415 17.2382 13.5864 16.7845 13.1626 16.8155C12.4098 16.8105 11.657 16.8125 10.9034 16.8148H10.9032L10.6085 16.8155Z" stroke="url(#paint7_linear_451_1787)" stroke-width="0.6"/>
<defs>
<linearGradient id="paint0_linear_451_1787" x1="8.30343" y1="13.2344" x2="16.8972" y2="12.2891" gradientUnits="userSpaceOnUse">
<stop stop-color="#A000D9"/>
<stop offset="1" stop-color="#FF38DC"/>
</linearGradient>
<linearGradient id="paint1_linear_451_1787" x1="8.30382" y1="13.2346" x2="16.8976" y2="12.2892" gradientUnits="userSpaceOnUse">
<stop stop-color="#A000D9"/>
<stop offset="1" stop-color="#FF38DC"/>
</linearGradient>
<linearGradient id="paint2_linear_451_1787" x1="8.30335" y1="13.2345" x2="16.8972" y2="12.2892" gradientUnits="userSpaceOnUse">
<stop stop-color="#A000D9"/>
<stop offset="1" stop-color="#FF38DC"/>
</linearGradient>
<linearGradient id="paint3_linear_451_1787" x1="8.30441" y1="13.2342" x2="16.8981" y2="12.2889" gradientUnits="userSpaceOnUse">
<stop stop-color="#A000D9"/>
<stop offset="1" stop-color="#FF38DC"/>
</linearGradient>
<linearGradient id="paint4_linear_451_1787" x1="8.30373" y1="13.2345" x2="16.8975" y2="12.2892" gradientUnits="userSpaceOnUse">
<stop stop-color="#A000D9"/>
<stop offset="1" stop-color="#FF38DC"/>
</linearGradient>
<linearGradient id="paint5_linear_451_1787" x1="8.30289" y1="13.2343" x2="16.8966" y2="12.289" gradientUnits="userSpaceOnUse">
<stop stop-color="#A000D9"/>
<stop offset="1" stop-color="#FF38DC"/>
</linearGradient>
<linearGradient id="paint6_linear_451_1787" x1="8.30351" y1="13.2345" x2="16.8973" y2="12.2892" gradientUnits="userSpaceOnUse">
<stop stop-color="#A000D9"/>
<stop offset="1" stop-color="#FF38DC"/>
</linearGradient>
<linearGradient id="paint7_linear_451_1787" x1="8.30373" y1="13.2344" x2="16.8975" y2="12.2891" gradientUnits="userSpaceOnUse">
<stop stop-color="#A000D9"/>
<stop offset="1" stop-color="#FF38DC"/>
</linearGradient>
</defs>
</svg>
