<svg width="23" height="22" viewBox="0 0 23 22" fill="none" xmlns="http://www.w3.org/2000/svg">
<path d="M11.0315 21.0833C10.9253 21.0832 10.8198 21.0646 10.7199 21.0283C10.5272 20.9577 10.3638 20.8245 10.2557 20.6499C10.1476 20.4754 10.1013 20.2697 10.124 20.0658L10.8299 13.5666H5.43075C5.26421 13.5669 5.10076 13.5218 4.95795 13.4361C4.81512 13.3504 4.69833 13.2275 4.62011 13.0805C4.54189 12.9334 4.5052 12.7679 4.51397 12.6016C4.52275 12.4353 4.57666 12.2745 4.66991 12.1366L11.9024 1.31993C12.0168 1.15065 12.1844 1.02444 12.3788 0.961331C12.5731 0.898226 12.7829 0.901837 12.9749 0.971597C13.1595 1.04013 13.3172 1.16628 13.4244 1.33138C13.5317 1.49647 13.5831 1.69174 13.5707 1.88826L12.8649 8.43326H18.264C18.4306 8.43301 18.594 8.47812 18.7369 8.56377C18.8797 8.64941 18.9965 8.77235 19.0747 8.91936C19.1529 9.06638 19.1896 9.23195 19.1809 9.39823C19.1721 9.56451 19.1182 9.7253 19.0249 9.86325L11.7924 20.6799C11.7083 20.8043 11.595 20.9062 11.4623 20.9765C11.3296 21.0469 11.1817 21.0835 11.0315 21.0833ZM7.14491 11.7333H11.8474C11.9753 11.7335 12.1017 11.7607 12.2186 11.8127C12.3354 11.8648 12.44 11.9408 12.5257 12.0358C12.6122 12.132 12.6774 12.2455 12.7169 12.3687C12.7564 12.492 12.7694 12.6221 12.7549 12.7508L12.3424 16.5549L16.5499 10.2666H11.8474C11.718 10.2674 11.59 10.2407 11.4716 10.1886C11.3533 10.1363 11.2474 10.0596 11.1608 9.96354C11.0743 9.86738 11.009 9.75408 10.9693 9.63088C10.9297 9.50777 10.9165 9.3777 10.9307 9.24909L11.3432 5.44493L7.14491 11.7333Z" fill="url(#paint0_linear_451_1836)"/>
<defs>
<linearGradient id="paint0_linear_451_1836" x1="11.8474" y1="21.0833" x2="11.8474" y2="0.916504" gradientUnits="userSpaceOnUse">
<stop stop-color="#FDA700"/>
<stop offset="1" stop-color="#FFDE00"/>
</linearGradient>
</defs>
</svg>
