<svg width="23" height="22" viewBox="0 0 23 22" fill="none" xmlns="http://www.w3.org/2000/svg">
<path d="M17.2926 1.92668C18.0236 1.84278 18.8087 1.88531 19.4563 2.27037C20.0317 2.5876 20.4563 3.12094 20.7229 3.71633C20.5457 3.73472 20.3648 3.73472 20.1942 3.79105C19.9322 4.03243 19.7605 4.35081 19.5558 4.63932C19.4883 4.14277 19.2067 3.66805 18.7549 3.43587C18.2984 3.17266 17.756 3.31748 17.265 3.21633C16.9745 3.14277 16.8771 2.83013 16.7559 2.59335C16.8577 2.32554 16.9733 1.9922 17.2926 1.92668Z" fill="url(#paint0_linear_451_1812)"/>
<path d="M2.7758 4.72916C2.76894 3.2786 4.01156 1.96135 5.45668 1.90618C6.72562 1.89124 7.99456 1.89929 9.26349 1.90274C8.98543 2.3556 8.68451 2.79469 8.40417 3.24641C7.45791 3.25906 6.51165 3.22917 5.56768 3.25676C5.01617 3.27054 4.51158 3.62111 4.27929 4.11998C4.22781 4.23261 4.18661 4.34869 4.15458 4.46938C3.9715 5.76249 4.11338 7.07858 4.05274 8.38086C3.61223 8.89006 3.26439 9.47626 2.77923 9.94752C2.76665 8.20846 2.77238 6.46824 2.7758 4.72916Z" fill="url(#paint1_linear_451_1812)"/>
<path d="M9.2636 1.90273C10.7797 1.89697 12.2958 1.89813 13.8118 1.89928C14.1265 1.87054 14.4469 2.06594 14.5338 2.3763C14.6334 2.64181 14.4675 2.89813 14.3817 3.14064C13.7821 3.28892 13.1619 3.24755 12.5509 3.2487C11.1687 3.2464 9.7865 3.24985 8.4043 3.2464C8.68463 2.79468 8.98556 2.35559 9.2636 1.90273Z" fill="url(#paint2_linear_451_1812)"/>
<path d="M14.9873 2.63118C14.9919 2.37945 14.9919 2.00933 15.3077 1.95188C15.596 1.91394 15.8992 1.89901 16.183 1.97716C16.4016 2.09096 16.3981 2.35071 16.4004 2.56451C16.374 2.7783 16.4553 3.05186 16.3009 3.22428C15.9027 3.2783 15.4965 3.27371 15.0972 3.22772C14.9678 3.06221 15.0159 2.82658 14.9873 2.63118Z" fill="url(#paint3_linear_451_1812)"/>
<path d="M20.194 3.79102C20.3645 3.7347 20.5454 3.7347 20.7227 3.71631C20.8166 4.03701 20.9011 4.36459 20.9104 4.70022C20.9011 6.42435 20.9139 8.14731 20.9023 9.87031C20.5259 10.3094 20.1564 10.7565 19.8439 11.2439C19.6312 11.5565 19.653 11.9507 19.6471 12.3117C19.6621 13.2692 19.6437 14.2278 19.638 15.1864C19.6289 15.9175 19.686 16.6565 19.5488 17.3795C19.5624 13.1323 19.5567 8.88526 19.5557 4.63929C19.7604 4.35079 19.9321 4.0324 20.194 3.79102Z" fill="url(#paint4_linear_451_1812)"/>
<path d="M15.0476 3.83366C15.4766 3.79573 15.908 3.79802 16.3371 3.82675C16.4298 4.23597 16.392 4.65665 16.3965 5.07159C16.4034 6.95089 16.4069 8.83019 16.4137 10.7095C16.4663 11.2382 16.1036 11.6739 15.8462 12.0991C15.7936 12.1084 15.6895 12.1279 15.6368 12.1382C15.3793 11.8129 15.1632 11.4394 15.0327 11.0463C14.996 9.01755 15.0246 6.98537 15.0052 4.95549C15.0007 4.58194 14.9926 4.20493 15.0476 3.83366Z" fill="url(#paint5_linear_451_1812)"/>
<path d="M4.05307 8.38072C4.11372 7.07842 3.97182 5.76234 4.1549 4.46924C4.108 8.69221 4.14918 12.9163 4.13545 17.1405C4.10341 17.6129 4.32539 18.0462 4.63318 18.3876C4.35285 18.7347 4.08511 19.091 3.82881 19.4554C3.68464 19.3324 3.54733 19.2002 3.41689 19.0646C3.01527 18.5508 2.77843 17.9082 2.77499 17.253C2.77155 16.5428 2.7704 15.8313 2.77956 15.1198C3.20865 14.7129 3.5931 14.2554 3.90089 13.7497C4.08167 13.4588 4.05193 13.1025 4.05879 12.775C4.02789 11.3106 4.06909 9.84508 4.05307 8.38072Z" fill="url(#paint6_linear_451_1812)"/>
<path d="M20.9104 4.7002C20.9481 4.89675 20.9812 5.09444 20.9871 5.29559C20.9744 8.70707 20.9871 12.1197 20.9802 15.5312C20.9711 16.1139 21.0385 16.7048 20.9127 17.2806C20.8991 14.8105 20.9151 12.3404 20.9023 9.87028C20.9139 8.1473 20.9011 6.42432 20.9104 4.7002Z" fill="url(#paint7_linear_451_1812)"/>
<path d="M2.77921 9.9475C3.26436 9.47624 3.6122 8.89004 4.05271 8.38086C4.06873 9.84522 4.02755 11.3107 4.05844 12.7751C4.05158 13.1026 4.08131 13.459 3.90054 13.7498C3.59274 14.2555 3.20829 14.713 2.77921 15.1199C2.76891 13.3957 2.76891 11.6716 2.77921 9.9475Z" fill="url(#paint8_linear_451_1812)"/>
<path d="M19.8443 11.2437C20.1568 10.7563 20.5263 10.3092 20.9027 9.87012C20.9155 12.3403 20.8995 14.8104 20.9131 17.2805C20.9015 17.97 20.6305 18.6448 20.1819 19.1644C19.7094 19.6426 19.096 20.0092 18.4176 20.0771C16.7275 19.9885 15.033 20.0552 13.3418 19.9782C13.5936 19.554 13.8739 19.1482 14.1657 18.7505C15.4621 18.7471 16.7584 18.754 18.0537 18.7471C18.7058 18.754 19.3181 18.2816 19.493 17.6528C19.508 17.585 19.5355 17.4472 19.5492 17.3793C19.6866 16.6563 19.6293 15.9173 19.6384 15.1862C19.6441 14.2276 19.6625 13.269 19.6475 12.3115C19.6534 11.9506 19.6316 11.5563 19.8443 11.2437Z" fill="url(#paint9_linear_451_1812)"/>
<path d="M3.82812 19.4554C4.08442 19.0912 4.35217 18.7349 4.6325 18.3877C4.94373 18.5912 5.29272 18.7648 5.67489 18.7498C6.79507 18.7543 7.91524 18.7452 9.03544 18.7521C8.78715 19.1532 8.58348 19.6003 8.23448 19.9268C7.8958 20.0463 7.52622 20.0073 7.17152 20.0152C6.55021 19.9946 5.9289 20.0348 5.30874 20.0784C4.76524 20.0325 4.25149 19.7935 3.82812 19.4554Z" fill="url(#paint10_linear_451_1812)"/>
<path d="M9.03628 18.7519C10.7469 18.7496 12.4563 18.7484 14.1658 18.7508C13.874 19.1484 13.5937 19.5542 13.3419 19.9784C15.0331 20.0554 16.7276 19.9887 18.4177 20.0772C18.182 20.1013 17.9439 20.1081 17.7071 20.1093C14.0433 20.1069 10.3796 20.1059 6.71695 20.1047C6.24784 20.1013 5.77755 20.1196 5.30957 20.0782C5.92973 20.0346 6.55104 19.9943 7.17237 20.015C7.52707 20.0071 7.89663 20.0461 8.23533 19.9266C8.58432 19.6001 8.78798 19.153 9.03628 18.7519Z" fill="url(#paint11_linear_451_1812)"/>
<path d="M20.7228 3.71633C20.4562 3.12094 20.0317 2.5876 19.4561 2.27037C18.8085 1.88531 18.0235 1.84278 17.2925 1.92668C16.9732 1.9922 16.8577 2.32554 16.7557 2.59335C16.877 2.83013 16.9744 3.14277 17.2649 3.21633C17.7559 3.31748 18.2982 3.17266 18.7547 3.43587C19.2067 3.66805 19.4882 4.14277 19.5558 4.63932M20.7228 3.71633C20.5454 3.73472 20.3646 3.73472 20.1941 3.79105C19.9322 4.03243 19.7605 4.35081 19.5558 4.63932M20.7228 3.71633C20.8166 4.03703 20.9012 4.36461 20.9105 4.70025M19.5558 4.63932C19.5568 8.88528 19.5625 13.1323 19.5489 17.3795M20.9105 4.70025C20.9012 6.42438 20.9139 8.14734 20.9024 9.87033M20.9105 4.70025C20.9481 4.89679 20.9813 5.0945 20.987 5.29564C20.9744 8.70712 20.9871 12.1197 20.9801 15.5313C20.971 16.114 21.0385 16.7048 20.9127 17.2807M19.5489 17.3795C19.686 16.6565 19.629 15.9175 19.6381 15.1864C19.6438 14.2278 19.662 13.2692 19.6472 12.3118C19.6529 11.9508 19.6312 11.5565 19.844 11.2439C20.1565 10.7565 20.526 10.3094 20.9024 9.87033M19.5489 17.3795C19.5351 17.4474 19.5076 17.5852 19.4927 17.6529C19.3177 18.2818 18.7055 18.7541 18.0533 18.7473C16.7581 18.7541 15.4617 18.7473 14.1653 18.7509M20.9024 9.87033C20.915 12.3405 20.899 14.8106 20.9127 17.2807M20.9127 17.2807C20.9012 17.9702 20.6302 18.645 20.1816 19.1646C19.7089 19.6427 19.0957 20.0093 18.4171 20.0772M14.1653 18.7509C13.8735 19.1484 13.5932 19.5542 13.3414 19.9784C15.0326 20.0554 16.7271 19.9887 18.4171 20.0772M14.1653 18.7509C12.4558 18.7485 10.7464 18.7497 9.03579 18.7519M9.26349 1.90255C7.99456 1.8991 6.72562 1.89105 5.45668 1.90599C4.01156 1.96118 2.76894 3.27841 2.7758 4.72897C2.77238 6.46805 2.76665 8.20827 2.77923 9.94733M9.26349 1.90255C8.98543 2.35541 8.68451 2.7945 8.40417 3.24622M9.26349 1.90255C10.7796 1.8968 12.2956 1.89796 13.8117 1.8991C14.1264 1.87036 14.4467 2.06577 14.5337 2.37612C14.6333 2.64163 14.4674 2.89795 14.3816 3.14048C13.782 3.28874 13.1618 3.24737 12.5508 3.24852C11.1686 3.24622 9.78639 3.24968 8.40417 3.24622M2.77923 9.94733C3.26439 9.47607 3.61223 8.88987 4.05274 8.38068M2.77923 9.94733C2.76894 11.6714 2.76894 13.3956 2.77923 15.1198M8.40417 3.24622C7.45791 3.25887 6.51165 3.22898 5.56768 3.25657C5.01617 3.27035 4.51158 3.62093 4.27929 4.11979C4.22781 4.23242 4.18661 4.34852 4.15458 4.4692M4.05274 8.38068C4.11338 7.0784 3.9715 5.7623 4.15458 4.4692M4.05274 8.38068C4.06876 9.84505 4.02756 11.3106 4.05846 12.775C4.05161 13.1025 4.08134 13.4588 3.90056 13.7497C3.59277 14.2553 3.20832 14.7128 2.77923 15.1198M2.77923 15.1198C2.77007 15.8313 2.77122 16.5427 2.77466 17.253C2.7781 17.9082 3.01494 18.5506 3.41656 19.0645C3.547 19.2002 3.68431 19.3323 3.82848 19.4552M4.15458 4.4692C4.10767 8.69217 4.14885 12.9163 4.13512 17.1405C4.10308 17.6129 4.32506 18.0462 4.63285 18.3875M4.63285 18.3875C4.35253 18.7347 4.08478 19.091 3.82848 19.4552M4.63285 18.3875C4.94408 18.591 5.29308 18.7646 5.67522 18.7497C6.79542 18.7541 7.9156 18.745 9.03579 18.7519M3.82848 19.4552C4.25184 19.7933 4.76559 20.0324 5.3091 20.0783M9.03579 18.7519C8.78748 19.1531 8.58383 19.6003 8.23484 19.9267C7.89616 20.0461 7.52658 20.0071 7.17188 20.0152C6.55057 19.9944 5.92924 20.0348 5.3091 20.0783M18.4171 20.0772C18.1815 20.1013 17.9435 20.1082 17.7066 20.1094C14.0429 20.107 10.3791 20.1059 6.71646 20.1047C6.24734 20.1013 5.77706 20.1197 5.3091 20.0783M14.9868 2.63129C14.9914 2.37956 14.9914 2.00944 15.3073 1.95198C15.5956 1.91405 15.8987 1.8991 16.1825 1.97727C16.4011 2.09105 16.3976 2.35082 16.3999 2.56462C16.3736 2.77841 16.4548 3.05197 16.3004 3.22439C15.9022 3.27841 15.496 3.27381 15.0967 3.22783C14.9673 3.06231 15.0154 2.82667 14.9868 2.63129ZM15.0475 3.83357C15.4765 3.79564 15.9079 3.79794 16.337 3.82668C16.4297 4.23588 16.3919 4.65656 16.3965 5.0715C16.4033 6.95081 16.4068 8.83011 16.4136 10.7094C16.4663 11.2381 16.1036 11.6738 15.8462 12.0991C15.7935 12.1083 15.6894 12.1278 15.6368 12.1381C15.3793 11.8128 15.1631 11.4393 15.0326 11.0462C14.9959 9.01746 15.0245 6.98529 15.0052 4.95541C15.0006 4.58186 14.9926 4.20484 15.0475 3.83357Z" stroke="url(#paint12_linear_451_1812)" stroke-width="0.6"/>
<defs>
<linearGradient id="paint0_linear_451_1812" x1="2.77157" y1="20.1094" x2="24.7549" y2="10.5278" gradientUnits="userSpaceOnUse">
<stop stop-color="#0357D1"/>
<stop offset="1" stop-color="#27CDFC"/>
</linearGradient>
<linearGradient id="paint1_linear_451_1812" x1="2.77148" y1="20.1096" x2="24.7548" y2="10.528" gradientUnits="userSpaceOnUse">
<stop stop-color="#0357D1"/>
<stop offset="1" stop-color="#27CDFC"/>
</linearGradient>
<linearGradient id="paint2_linear_451_1812" x1="2.77159" y1="20.1096" x2="24.7549" y2="10.528" gradientUnits="userSpaceOnUse">
<stop stop-color="#0357D1"/>
<stop offset="1" stop-color="#27CDFC"/>
</linearGradient>
<linearGradient id="paint3_linear_451_1812" x1="2.77194" y1="20.1093" x2="24.7553" y2="10.5277" gradientUnits="userSpaceOnUse">
<stop stop-color="#0357D1"/>
<stop offset="1" stop-color="#27CDFC"/>
</linearGradient>
<linearGradient id="paint4_linear_451_1812" x1="2.77143" y1="20.1093" x2="24.7547" y2="10.5278" gradientUnits="userSpaceOnUse">
<stop stop-color="#0357D1"/>
<stop offset="1" stop-color="#27CDFC"/>
</linearGradient>
<linearGradient id="paint5_linear_451_1812" x1="2.77153" y1="20.1095" x2="24.755" y2="10.5279" gradientUnits="userSpaceOnUse">
<stop stop-color="#0357D1"/>
<stop offset="1" stop-color="#27CDFC"/>
</linearGradient>
<linearGradient id="paint6_linear_451_1812" x1="2.77181" y1="20.1094" x2="24.7551" y2="10.5278" gradientUnits="userSpaceOnUse">
<stop stop-color="#0357D1"/>
<stop offset="1" stop-color="#27CDFC"/>
</linearGradient>
<linearGradient id="paint7_linear_451_1812" x1="2.77138" y1="20.1093" x2="24.7547" y2="10.5277" gradientUnits="userSpaceOnUse">
<stop stop-color="#0357D1"/>
<stop offset="1" stop-color="#27CDFC"/>
</linearGradient>
<linearGradient id="paint8_linear_451_1812" x1="2.77145" y1="20.1096" x2="24.7547" y2="10.528" gradientUnits="userSpaceOnUse">
<stop stop-color="#0357D1"/>
<stop offset="1" stop-color="#27CDFC"/>
</linearGradient>
<linearGradient id="paint9_linear_451_1812" x1="2.77186" y1="20.1092" x2="24.7552" y2="10.5276" gradientUnits="userSpaceOnUse">
<stop stop-color="#0357D1"/>
<stop offset="1" stop-color="#27CDFC"/>
</linearGradient>
<linearGradient id="paint10_linear_451_1812" x1="2.77113" y1="20.1095" x2="24.7544" y2="10.528" gradientUnits="userSpaceOnUse">
<stop stop-color="#0357D1"/>
<stop offset="1" stop-color="#27CDFC"/>
</linearGradient>
<linearGradient id="paint11_linear_451_1812" x1="2.77197" y1="20.1093" x2="24.7554" y2="10.5278" gradientUnits="userSpaceOnUse">
<stop stop-color="#0357D1"/>
<stop offset="1" stop-color="#27CDFC"/>
</linearGradient>
<linearGradient id="paint12_linear_451_1812" x1="2.77148" y1="20.1094" x2="24.7548" y2="10.5278" gradientUnits="userSpaceOnUse">
<stop stop-color="#0357D1"/>
<stop offset="1" stop-color="#10CAFF"/>
</linearGradient>
</defs>
</svg>
