<svg width="23" height="22" viewBox="0 0 23 22" fill="none" xmlns="http://www.w3.org/2000/svg">
<path fill-rule="evenodd" clip-rule="evenodd" d="M2.7819 2.65834C2.75464 2.65834 2.73256 2.68043 2.73256 2.70768C2.73256 2.70768 2.73256 19.3088 2.73256 19.3359C2.82422 19.3359 2.7053 19.3359 2.73256 19.3359L3.32532 19.3385C3.70621 19.3402 4.0159 19.0321 4.0159 18.651L4.01588 17.4625C4.01588 17.0828 4.32369 16.775 4.70338 16.775H9.74506C10.1247 16.775 10.4326 17.0828 10.4326 17.4625V18.6541C10.4326 19.0338 10.7404 19.3416 11.1201 19.3416H11.1544C11.5341 19.3416 11.8419 19.0338 11.8419 18.6541V17.4625C11.8419 17.0828 12.1497 16.775 12.5294 16.775H17.5711C17.9508 16.775 18.2586 17.0828 18.2586 17.4625V19.3416H15.4513H19.3665C19.3938 19.3416 19.4158 19.3196 19.4158 19.2923V2.70768C19.4158 2.68043 19.3938 2.65834 19.3665 2.65834H2.7819ZM1.44922 2.70768C1.44922 1.97166 2.04588 1.375 2.7819 1.375H19.3665C20.1025 1.375 20.6992 1.97166 20.6992 2.70768V19.2923C20.6992 20.0283 20.1025 20.625 19.3665 20.625H2.7819C2.04588 20.625 1.44922 20.0283 1.44922 19.2923V2.70768Z" fill="url(#paint0_linear_451_1826)"/>
<path d="M2.73256 19.3359C2.73256 19.3088 2.73256 2.70768 2.73256 2.70768C2.73256 2.68043 2.75464 2.65834 2.7819 2.65834H19.3665C19.3938 2.65834 19.4158 2.68043 19.4158 2.70768V19.2923C19.4158 19.3196 19.3938 19.3416 19.3665 19.3416H15.4513H18.2586V17.4625C18.2586 17.0828 17.9508 16.775 17.5711 16.775H12.5294C12.1497 16.775 11.8419 17.0828 11.8419 17.4625V18.6541C11.8419 19.0338 11.5341 19.3416 11.1544 19.3416H11.1201C10.7404 19.3416 10.4326 19.0338 10.4326 18.6541V17.4625C10.4326 17.0828 10.1247 16.775 9.74506 16.775H4.70338C4.32369 16.775 4.01588 17.0828 4.01588 17.4625L4.0159 18.651C4.0159 19.0321 3.70621 19.3402 3.32532 19.3385L2.73256 19.3359ZM2.73256 19.3359C2.7053 19.3359 2.82422 19.3359 2.73256 19.3359ZM1.44922 2.70768C1.44922 1.97166 2.04588 1.375 2.7819 1.375H19.3665C20.1025 1.375 20.6992 1.97166 20.6992 2.70768V19.2923C20.6992 20.0283 20.1025 20.625 19.3665 20.625H2.7819C2.04588 20.625 1.44922 20.0283 1.44922 19.2923V2.70768Z" stroke="url(#paint1_linear_451_1826)" stroke-width="0.6" stroke-linejoin="round"/>
<path d="M9.19055 3.94189C8.6692 3.94189 8.16915 4.14902 7.80044 4.51771C7.43174 4.8864 7.22461 5.38645 7.22461 5.90785C7.2248 6.34354 7.36976 6.76683 7.63663 7.1112C7.75337 7.26187 7.89057 7.39369 8.0433 7.50344C8.34279 7.71866 8.69909 7.451 8.69909 7.08219C8.69909 6.88063 8.58113 6.70233 8.44886 6.55024C8.40793 6.50319 8.37145 6.4522 8.33996 6.39782C8.25371 6.2489 8.20809 6.07995 8.20758 5.90785C8.20758 5.64715 8.31115 5.39713 8.4955 5.21279C8.67984 5.02844 8.92983 4.92488 9.19055 4.92488C9.31964 4.92488 9.44747 4.9503 9.56675 4.9997C9.68598 5.0491 9.79436 5.12149 9.88566 5.21277C9.97691 5.30406 10.0494 5.41242 10.0987 5.53169C10.1481 5.65095 10.1736 5.77877 10.1736 5.90785C10.173 5.99006 10.2038 6.07148 10.2686 6.12196L10.4213 6.24071C10.7111 6.46607 11.1392 6.35024 11.1546 5.98348C11.1556 5.95831 11.1562 5.9331 11.1563 5.90785C11.1563 5.64968 11.1055 5.39403 11.0067 5.1555C10.9078 4.91699 10.763 4.70028 10.5805 4.51771C10.3979 4.33516 10.1812 4.19036 9.94271 4.09155C9.70415 3.99275 9.44869 3.94189 9.19055 3.94189ZM10.2972 6.75626C9.84477 6.40942 9.19105 6.73222 9.19141 7.30231L9.19517 13.4283C9.19559 14.0891 10.0371 14.3689 10.4331 13.8398L11.9334 11.8355C12.0632 11.6621 12.2672 11.56 12.4838 11.56H14.5363C15.1933 11.56 15.476 10.7266 14.9546 10.3268L10.2972 6.75626Z" fill="url(#paint2_linear_451_1826)"/>
<defs>
<linearGradient id="paint0_linear_451_1826" x1="11.0742" y1="20.625" x2="11.0742" y2="1.375" gradientUnits="userSpaceOnUse">
<stop stop-color="#0028FF"/>
<stop offset="0.520833" stop-color="#36A0FF"/>
<stop offset="1" stop-color="#4DD3FF"/>
</linearGradient>
<linearGradient id="paint1_linear_451_1826" x1="11.0742" y1="20.625" x2="11.0742" y2="1.375" gradientUnits="userSpaceOnUse">
<stop stop-color="#0028FF"/>
<stop offset="0.520833" stop-color="#36A0FF"/>
<stop offset="1" stop-color="#4DD3FF"/>
</linearGradient>
<linearGradient id="paint2_linear_451_1826" x1="11.8938" y1="15.4919" x2="11.8938" y2="3.94189" gradientUnits="userSpaceOnUse">
<stop stop-color="#FD7900"/>
<stop offset="1" stop-color="#FAFF00"/>
</linearGradient>
</defs>
</svg>
