<svg width="23" height="22" viewBox="0 0 23 22" fill="none" xmlns="http://www.w3.org/2000/svg">
<path d="M10.8382 21.0833C10.7319 21.0832 10.6264 21.0646 10.5265 21.0283C10.3338 20.9577 10.1704 20.8245 10.0623 20.6499C9.95424 20.4754 9.90795 20.2697 9.93068 20.0658L10.6365 13.5666H5.23739C5.07085 13.5669 4.9074 13.5218 4.76459 13.4361C4.62176 13.3504 4.50497 13.2275 4.42675 13.0805C4.34853 12.9334 4.31184 12.7679 4.32061 12.6016C4.32939 12.4353 4.3833 12.2745 4.47655 12.1366L11.709 1.31993C11.8234 1.15065 11.9911 1.02444 12.1854 0.961331C12.3797 0.898226 12.5896 0.901837 12.7815 0.971597C12.9661 1.04013 13.1238 1.16628 13.231 1.33138C13.3384 1.49647 13.3897 1.69174 13.3773 1.88826L12.6715 8.43326H18.0707C18.2372 8.43301 18.4007 8.47812 18.5435 8.56377C18.6863 8.64941 18.8031 8.77235 18.8814 8.91936C18.9596 9.06638 18.9962 9.23195 18.9875 9.39823C18.9787 9.56451 18.9248 9.7253 18.8315 9.86325L11.599 20.6799C11.515 20.8043 11.4017 20.9062 11.2689 20.9765C11.1363 21.0469 10.9883 21.0835 10.8382 21.0833ZM6.95155 11.7333H11.654C11.782 11.7335 11.9084 11.7607 12.0253 11.8127C12.142 11.8648 12.2466 11.9408 12.3323 12.0358C12.4189 12.132 12.4841 12.2455 12.5236 12.3687C12.5631 12.492 12.576 12.6221 12.5615 12.7508L12.149 16.5549L16.3565 10.2666H11.654C11.5247 10.2674 11.3966 10.2407 11.2783 10.1886C11.1599 10.1363 11.0541 10.0596 10.9674 9.96354C10.8809 9.86738 10.8156 9.75408 10.7759 9.63088C10.7363 9.50777 10.7231 9.3777 10.7373 9.24909L11.1498 5.44493L6.95155 11.7333Z" fill="url(#paint0_linear_451_1834)"/>
<defs>
<linearGradient id="paint0_linear_451_1834" x1="11.654" y1="21.0833" x2="11.654" y2="0.916504" gradientUnits="userSpaceOnUse">
<stop stop-color="#FDA700"/>
<stop offset="1" stop-color="#FFDE00"/>
</linearGradient>
</defs>
</svg>
