<svg width="23" height="22" viewBox="0 0 23 22" fill="none" xmlns="http://www.w3.org/2000/svg">
<g clip-path="url(#clip0_451_1809)">
<path d="M20.3141 11.2734H20.3137C20.0784 11.2742 19.847 11.3289 19.6368 11.4325C19.5023 11.2482 19.3289 11.0951 19.1285 10.9842C18.8968 10.856 18.6365 10.7884 18.3716 10.7877H18.3709C18.1355 10.7886 17.904 10.8432 17.6938 10.947C17.5054 10.6908 17.2432 10.4971 16.941 10.3927C16.6556 10.294 16.3488 10.28 16.0575 10.3507V7.98815C16.0575 7.57133 15.8919 7.17157 15.5972 6.87683C15.3024 6.58209 14.9027 6.4165 14.4858 6.4165C14.069 6.4165 13.6692 6.58209 13.3745 6.87683C13.0798 7.17157 12.9142 7.57133 12.9142 7.98815V13.1625L12.0121 12.5477C11.7444 12.3489 11.4193 12.2426 11.0858 12.2448C10.7742 12.2441 10.4695 12.336 10.2103 12.5089C9.95098 12.6819 9.74894 12.928 9.62988 13.2162C9.51083 13.5043 9.48013 13.8212 9.5417 14.1268C9.60327 14.4324 9.75431 14.7128 9.97564 14.9323L9.97733 14.9339L9.97909 14.9355L13.8646 18.4811L13.8655 18.4819C14.4366 18.9931 15.1765 19.275 15.9431 19.2736H18.3714C19.3034 19.2736 20.1974 18.9033 20.8564 18.2443C21.5155 17.5852 21.8857 16.6913 21.8857 15.7592V12.8451C21.8857 12.4282 21.7202 12.0285 21.4255 11.7337C21.1306 11.439 20.731 11.2734 20.3141 11.2734ZM15.9429 18.0731H15.9415C15.479 18.0787 15.0302 17.9163 14.6783 17.6161L10.8207 14.074C10.7533 14.005 10.7154 13.9127 10.7149 13.8162C10.7149 13.7473 10.7341 13.6798 10.7703 13.6213C10.8065 13.5627 10.8584 13.5153 10.92 13.4845C10.9817 13.4536 11.0507 13.4406 11.1193 13.4469C11.188 13.4531 11.2535 13.4782 11.3087 13.5195L11.3106 13.521L11.3126 13.5224L13.5766 15.0737C13.8047 15.23 14.1147 15.0666 14.1147 14.7901V7.98815C14.1147 7.88974 14.1538 7.79534 14.2234 7.72574C14.293 7.65615 14.3874 7.61705 14.4858 7.61705C14.5843 7.61705 14.6787 7.65615 14.7482 7.72574C14.8178 7.79534 14.857 7.88974 14.857 7.98815V13.1015C14.857 13.2914 15.0109 13.4453 15.2007 13.4453H15.7137C15.9036 13.4453 16.0575 13.2914 16.0575 13.1015V11.8736C16.0575 11.7752 16.0965 11.6808 16.1662 11.6113C16.2357 11.5417 16.3302 11.5025 16.4286 11.5025C16.527 11.5025 16.6214 11.5417 16.691 11.6113C16.7605 11.6808 16.7997 11.7752 16.7997 11.8736V13.1015C16.7997 13.2914 16.9536 13.4453 17.1435 13.4453H17.6565C17.8463 13.4453 18.0002 13.2914 18.0002 13.1015V12.3594C18.0002 12.2609 18.0393 12.1665 18.109 12.097C18.1785 12.0273 18.2729 11.9882 18.3714 11.9882C18.4698 11.9882 18.5642 12.0273 18.6337 12.097C18.7033 12.1665 18.7425 12.2609 18.7425 12.3594V13.1015C18.7425 13.2914 18.8964 13.4453 19.0862 13.4453H19.5992C19.7891 13.4453 19.943 13.2914 19.943 13.1015V12.8451C19.943 12.7467 19.9821 12.6522 20.0517 12.5827C20.1213 12.513 20.2157 12.474 20.3141 12.474C20.4125 12.474 20.507 12.513 20.5765 12.5827C20.6461 12.6522 20.6852 12.7467 20.6852 12.8451V15.7592C20.6852 16.3729 20.4414 16.9614 20.0075 17.3953C19.5736 17.8292 18.9849 18.0731 18.3714 18.0731H15.9429Z" fill="url(#paint0_linear_451_1809)" stroke="url(#paint1_linear_451_1809)" stroke-width="0.6"/>
<path fill-rule="evenodd" clip-rule="evenodd" d="M4.2423 2.80745C3.60897 2.80745 3.09554 3.8085 3.09554 4.6193V15.7769C3.09554 16.5877 3.60897 17.4741 4.2423 17.4741H8.68061C9.31344 17.4741 9.82644 17.7579 9.82644 18.3908V18.4481C9.82644 19.0809 9.31344 19.5939 8.68061 19.5939H4.2423C2.59563 19.5939 1.26074 17.8849 1.26074 15.7769V4.6193C1.26074 2.5112 2.59563 0.802246 4.2423 0.802246H19.1333C20.78 0.802246 22.1149 2.5112 22.1149 4.6193V9.28068C22.1149 9.78734 21.7041 10.1981 21.1976 10.1981C20.6909 10.1981 20.2801 9.78734 20.2801 9.28068V4.6193C20.2801 3.80849 19.7666 2.80745 19.1333 2.80745H4.2423ZM4.46908 7.44808C4.46908 7.19495 4.67428 6.98975 4.92741 6.98975H10.0837C10.3368 6.98975 10.542 7.19495 10.542 7.44808V7.79183C10.542 8.04496 10.3368 8.25016 10.0837 8.25016H4.92741C4.67428 8.25016 4.46908 8.04496 4.46908 7.79183V7.44808ZM6.07324 9.73975C5.82012 9.73975 5.61491 9.94495 5.61491 10.1981V10.5418C5.61491 10.795 5.82012 11.0002 6.07324 11.0002H11.2295C11.4826 11.0002 11.6878 10.795 11.6878 10.5418V10.1981C11.6878 9.94495 11.4826 9.73975 11.2295 9.73975H6.07324Z" fill="url(#paint2_linear_451_1809)"/>
</g>
<defs>
<linearGradient id="paint0_linear_451_1809" x1="15.6982" y1="19.159" x2="15.6982" y2="6.53109" gradientUnits="userSpaceOnUse">
<stop stop-color="#00B59C"/>
<stop offset="1" stop-color="#9CFFAC"/>
</linearGradient>
<linearGradient id="paint1_linear_451_1809" x1="15.6982" y1="19.159" x2="15.6982" y2="6.53109" gradientUnits="userSpaceOnUse">
<stop stop-color="#00B59C"/>
<stop offset="1" stop-color="#9CFFAC"/>
</linearGradient>
<linearGradient id="paint2_linear_451_1809" x1="4.31478" y1="16.842" x2="17.5308" y2="2.17544" gradientUnits="userSpaceOnUse">
<stop stop-color="#0072FF"/>
<stop offset="1" stop-color="#00E5A1"/>
</linearGradient>
<clipPath id="clip0_451_1809">
<rect width="22" height="22" fill="white" transform="translate(0.6875)"/>
</clipPath>
</defs>
</svg>
