<svg width="23" height="22" viewBox="0 0 23 22" fill="none" xmlns="http://www.w3.org/2000/svg">
<path d="M21 2V8.25C19.3424 8.25 17.7527 7.5915 16.5806 6.41942C15.4085 5.24731 14.75 3.6576 14.75 2H21ZM1 2V8.25C1.82076 8.25 2.63349 8.08831 3.39177 7.77425C4.15006 7.46013 4.83905 6.99978 5.41942 6.41942C5.99978 5.83905 6.46016 5.15006 6.77425 4.39177C7.08834 3.63349 7.25 2.82076 7.25 2H1ZM21 19.5V13.25C19.3424 13.25 17.7527 13.9085 16.5806 15.0806C15.4085 16.2527 14.75 17.8424 14.75 19.5H21ZM1.00063 19.5V13.25C2.65822 13.25 4.24794 13.9085 5.42004 15.0806C6.59214 16.2527 7.25063 17.8424 7.25063 19.5H1.00063Z" fill="url(#paint0_linear_451_1807)"/>
<defs>
<linearGradient id="paint0_linear_451_1807" x1="11" y1="19.5" x2="11" y2="2" gradientUnits="userSpaceOnUse">
<stop stop-color="#A93AFF"/>
<stop offset="1" stop-color="#FF81FF"/>
</linearGradient>
</defs>
</svg>
