<svg width="23" height="22" viewBox="0 0 23 22" fill="none" xmlns="http://www.w3.org/2000/svg">
<path d="M21.0624 19.1941L11.9204 6.67603C11.8133 6.52934 11.6426 6.44263 11.4609 6.44263C11.2793 6.44263 11.1086 6.52934 11.0014 6.67603L1.85951 19.1941C1.73316 19.367 1.71472 19.5963 1.81172 19.7873C1.90871 19.9783 2.10479 20.0986 2.319 20.0986H20.6029C20.8171 20.0986 21.0131 19.9783 21.1102 19.7873C21.2072 19.5963 21.1887 19.367 21.0624 19.1941ZM11.4609 7.97643L14.5566 12.2153L13.7369 13.0349L13.0013 12.2993C12.779 12.0771 12.4188 12.0771 12.1966 12.2993L11.4609 13.0349L10.7252 12.2993C10.5031 12.0771 10.1428 12.0771 9.92059 12.2993L9.18497 13.0349L8.36527 12.2153L11.4609 7.97643ZM3.43914 18.9606L7.686 13.1454L8.78258 14.242C9.00476 14.4642 9.36501 14.4642 9.58724 14.242L10.323 13.5063L11.0586 14.242C11.2808 14.4641 11.6411 14.4641 11.8633 14.242L12.5989 13.5063L13.3346 14.242C13.4457 14.3531 13.5913 14.4086 13.7369 14.4086C13.8826 14.4086 14.0282 14.3531 14.1393 14.242L15.2358 13.1454L19.4828 18.9606H3.43914ZM5.164 8.71862C7.04648 8.71862 8.578 7.18711 8.578 5.30463C8.578 3.42214 7.04648 1.89062 5.164 1.89062C3.28152 1.89062 1.75 3.42214 1.75 5.30463C1.75 7.18711 3.28152 8.71862 5.164 8.71862ZM5.164 3.02863C6.41899 3.02863 7.44001 4.04964 7.44001 5.30463C7.44001 6.55962 6.41899 7.58063 5.164 7.58063C3.90902 7.58063 2.888 6.55962 2.888 5.30463C2.888 4.04964 3.90902 3.02863 5.164 3.02863Z" fill="url(#paint0_linear_451_1832)" stroke="url(#paint1_linear_451_1832)"/>
<defs>
<linearGradient id="paint0_linear_451_1832" x1="11.4609" y1="20.0986" x2="11.4609" y2="1.89062" gradientUnits="userSpaceOnUse">
<stop stop-color="#00B59C"/>
<stop offset="1" stop-color="#9CFFAC"/>
</linearGradient>
<linearGradient id="paint1_linear_451_1832" x1="11.4609" y1="20.0986" x2="11.4609" y2="1.89062" gradientUnits="userSpaceOnUse">
<stop stop-color="#00B59C"/>
<stop offset="1" stop-color="#9CFFAC"/>
</linearGradient>
</defs>
</svg>
