<svg width="23" height="22" viewBox="0 0 23 22" fill="none" xmlns="http://www.w3.org/2000/svg">
<path d="M16.5923 1.80283C15.706 0.916504 14.2802 0.916504 11.4286 0.916504C8.57609 0.916504 7.1503 0.916504 6.26398 1.80283C5.96155 2.10526 5.76254 2.47103 5.63132 2.93508C5.48132 3.46557 5.93998 3.94499 6.49128 3.94264C6.75842 3.9415 7.0362 3.9415 7.32475 3.9415H15.5346C15.8227 3.9415 16.1001 3.9415 16.3671 3.94264C16.918 3.94499 17.3765 3.46614 17.2264 2.93605C17.0948 2.47154 16.895 2.10548 16.5923 1.80283ZM16.562 14.529C17.0682 14.529 17.4795 14.9401 17.4774 15.4463C17.4677 17.7973 17.3801 19.41 16.5923 20.1968C15.707 21.0832 14.2802 21.0832 11.4286 21.0832C8.5771 21.0832 7.1503 21.0832 6.26499 20.1968C5.47727 19.41 5.38963 17.7973 5.37989 15.4463C5.37779 14.9401 5.78907 14.529 6.29533 14.529H16.562Z" fill="url(#paint0_linear_451_1848)"/>
<path opacity="0.5" d="M15.4624 4.9502H7.3957C4.54414 4.9502 3.11734 4.9502 2.23203 5.83652C1.3457 6.72184 1.3457 8.14863 1.3457 11.0002C1.3457 13.8517 1.3457 15.2785 2.23203 16.1639C2.53496 16.4675 2.9013 16.6669 3.36664 16.7982C3.90081 16.9489 4.38124 16.4831 4.37543 15.9281C4.37202 15.6025 4.37107 15.2654 4.3708 14.9253C4.37064 14.7066 4.16883 14.5363 4.0142 14.3817C3.91966 14.2872 3.86654 14.1589 3.86654 14.0252C3.86654 13.8915 3.91966 13.7633 4.0142 13.6687C4.10876 13.5742 4.23699 13.521 4.3707 13.521H18.4874C18.6211 13.521 18.7494 13.5742 18.8439 13.6687C18.9385 13.7633 18.9915 13.8915 18.9915 14.0252C18.9915 14.1589 18.9385 14.2872 18.8439 14.3817C18.6892 14.5363 18.4875 14.7066 18.4873 14.9253C18.487 15.2654 18.4861 15.6024 18.4826 15.928C18.4768 16.483 18.9573 16.9488 19.4915 16.7981C19.9568 16.6668 20.3236 16.4674 20.6271 16.1639C21.5124 15.2785 21.5124 13.8517 21.5124 11.0002C21.5124 8.14863 21.5124 6.72184 20.626 5.83652C19.7407 4.9502 18.3139 4.9502 15.4624 4.9502Z" fill="url(#paint1_linear_451_1848)"/>
<path d="M8.40332 9.73957C8.60389 9.73957 8.79625 9.65991 8.93807 9.5181C9.07989 9.37629 9.15957 9.18389 9.15957 8.9833C9.15957 8.78273 9.07989 8.59038 8.93807 8.44855C8.79625 8.30673 8.60389 8.22705 8.40332 8.22705H5.37832C5.17775 8.22705 4.9854 8.30673 4.84357 8.44855C4.70175 8.59038 4.62207 8.78273 4.62207 8.9833C4.62207 9.18389 4.70175 9.37629 4.84357 9.5181C4.9854 9.65991 5.17775 9.73957 5.37832 9.73957H8.40332Z" fill="url(#paint2_linear_451_1848)"/>
<path d="M18.2254 10.4632C18.5692 10.1193 18.7624 9.65312 18.7624 9.16683C18.7624 8.68059 18.5692 8.21428 18.2254 7.87046C17.8815 7.52665 17.4152 7.3335 16.929 7.3335C16.4427 7.3335 15.9763 7.52665 15.6325 7.87046C15.2887 8.21428 15.0957 8.68059 15.0957 9.16683C15.0957 9.65312 15.2887 10.1193 15.6325 10.4632C15.9763 10.807 16.4427 11.0002 16.929 11.0002C17.4152 11.0002 17.8815 10.807 18.2254 10.4632Z" fill="url(#paint3_linear_451_1848)"/>
<defs>
<linearGradient id="paint0_linear_451_1848" x1="11.4286" y1="21.0832" x2="11.4286" y2="0.916503" gradientUnits="userSpaceOnUse">
<stop stop-color="#02AA93"/>
<stop offset="1" stop-color="#67FF80"/>
</linearGradient>
<linearGradient id="paint1_linear_451_1848" x1="11.429" y1="16.8269" x2="11.429" y2="4.9502" gradientUnits="userSpaceOnUse">
<stop stop-color="#00B59C"/>
<stop offset="1" stop-color="#9CFFAC"/>
</linearGradient>
<linearGradient id="paint2_linear_451_1848" x1="6.89082" y1="9.73957" x2="6.89082" y2="8.22705" gradientUnits="userSpaceOnUse">
<stop stop-color="#02AA93"/>
<stop offset="1" stop-color="#67FF80"/>
</linearGradient>
<linearGradient id="paint3_linear_451_1848" x1="16.929" y1="11.0002" x2="16.929" y2="7.3335" gradientUnits="userSpaceOnUse">
<stop stop-color="#E80058"/>
<stop offset="0.9997" stop-color="#FF001D"/>
<stop offset="0.9998" stop-color="#FF867E"/>
</linearGradient>
</defs>
</svg>
