<svg width="23" height="22" viewBox="0 0 23 22" fill="none" xmlns="http://www.w3.org/2000/svg">
<path d="M16.3989 1.80283C15.5126 0.916504 14.0868 0.916504 11.2353 0.916504C8.38273 0.916504 6.95694 0.916504 6.07062 1.80283C5.76819 2.10526 5.56918 2.47103 5.43796 2.93508C5.28796 3.46557 5.74662 3.94499 6.29792 3.94264C6.56506 3.9415 6.84284 3.9415 7.13139 3.9415H15.3412C15.6293 3.9415 15.9068 3.9415 16.1737 3.94264C16.7246 3.94499 17.1832 3.46614 17.033 2.93605C16.9015 2.47154 16.7016 2.10548 16.3989 1.80283ZM16.3686 14.529C16.8749 14.529 17.2862 14.9401 17.2841 15.4463C17.2744 17.7973 17.1867 19.41 16.3989 20.1968C15.5136 21.0832 14.0868 21.0832 11.2353 21.0832C8.38374 21.0832 6.95694 21.0832 6.07163 20.1968C5.28391 19.41 5.19628 17.7973 5.18653 15.4463C5.18443 14.9401 5.59571 14.529 6.10197 14.529H16.3686Z" fill="url(#paint0_linear_451_1843)"/>
<path opacity="0.5" d="M15.269 4.9502H7.20234C4.35078 4.9502 2.92399 4.9502 2.03867 5.83652C1.15234 6.72184 1.15234 8.14863 1.15234 11.0002C1.15234 13.8517 1.15234 15.2785 2.03867 16.1639C2.3416 16.4675 2.70794 16.6669 3.17328 16.7982C3.70745 16.9489 4.18788 16.4831 4.18207 15.9281C4.17866 15.6025 4.17771 15.2654 4.17744 14.9253C4.17728 14.7066 3.97548 14.5363 3.82084 14.3817C3.7263 14.2872 3.67318 14.1589 3.67318 14.0252C3.67318 13.8915 3.7263 13.7633 3.82084 13.6687C3.9154 13.5742 4.04363 13.521 4.17734 13.521H18.294C18.4278 13.521 18.556 13.5742 18.6505 13.6687C18.7451 13.7633 18.7982 13.8915 18.7982 14.0252C18.7982 14.1589 18.7451 14.2872 18.6505 14.3817C18.4959 14.5363 18.2941 14.7066 18.2939 14.9253C18.2936 15.2654 18.2927 15.6024 18.2892 15.928C18.2835 16.483 18.764 16.9488 19.2981 16.7981C19.7634 16.6668 20.1303 16.4674 20.4337 16.1639C21.319 15.2785 21.319 13.8517 21.319 11.0002C21.319 8.14863 21.319 6.72184 20.4327 5.83652C19.5474 4.9502 18.1206 4.9502 15.269 4.9502Z" fill="url(#paint1_linear_451_1843)"/>
<path d="M8.20996 9.73957C8.41053 9.73957 8.60289 9.65991 8.74471 9.5181C8.88653 9.37629 8.96621 9.18389 8.96621 8.9833C8.96621 8.78273 8.88653 8.59038 8.74471 8.44855C8.60289 8.30673 8.41053 8.22705 8.20996 8.22705H5.18496C4.98439 8.22705 4.79204 8.30673 4.65021 8.44855C4.50839 8.59038 4.42871 8.78273 4.42871 8.9833C4.42871 9.18389 4.50839 9.37629 4.65021 9.5181C4.79204 9.65991 4.98439 9.73957 5.18496 9.73957H8.20996Z" fill="url(#paint2_linear_451_1843)"/>
<path d="M18.032 10.4632C18.3759 10.1193 18.569 9.65312 18.569 9.16683C18.569 8.68059 18.3759 8.21428 18.032 7.87046C17.6882 7.52665 17.2219 7.3335 16.7357 7.3335C16.2494 7.3335 15.783 7.52665 15.4391 7.87046C15.0953 8.21428 14.9023 8.68059 14.9023 9.16683C14.9023 9.65312 15.0953 10.1193 15.4391 10.4632C15.783 10.807 16.2494 11.0002 16.7357 11.0002C17.2219 11.0002 17.6882 10.807 18.032 10.4632Z" fill="url(#paint3_linear_451_1843)"/>
<defs>
<linearGradient id="paint0_linear_451_1843" x1="11.2353" y1="21.0832" x2="11.2353" y2="0.916503" gradientUnits="userSpaceOnUse">
<stop stop-color="#02AA93"/>
<stop offset="1" stop-color="#67FF80"/>
</linearGradient>
<linearGradient id="paint1_linear_451_1843" x1="11.2357" y1="16.8269" x2="11.2357" y2="4.9502" gradientUnits="userSpaceOnUse">
<stop stop-color="#00B59C"/>
<stop offset="1" stop-color="#9CFFAC"/>
</linearGradient>
<linearGradient id="paint2_linear_451_1843" x1="6.69746" y1="9.73957" x2="6.69746" y2="8.22705" gradientUnits="userSpaceOnUse">
<stop stop-color="#02AA93"/>
<stop offset="1" stop-color="#67FF80"/>
</linearGradient>
<linearGradient id="paint3_linear_451_1843" x1="16.7357" y1="11.0002" x2="16.7357" y2="7.3335" gradientUnits="userSpaceOnUse">
<stop stop-color="#E80058"/>
<stop offset="0.9997" stop-color="#FF001D"/>
<stop offset="0.9998" stop-color="#FF867E"/>
</linearGradient>
</defs>
</svg>
