<svg width="23" height="22" viewBox="0 0 23 22" fill="none" xmlns="http://www.w3.org/2000/svg">
<path d="M4.81689 10.1299C4.50543 10.1299 4.25293 10.3824 4.25293 10.6939C4.25293 11.0053 4.50543 11.2578 4.81689 11.2578C5.12836 11.2578 5.38086 11.0053 5.38086 10.6939C5.38086 10.3824 5.12836 10.1299 4.81689 10.1299ZM7.07275 10.1299C6.76129 10.1299 6.50879 10.3824 6.50879 10.6939C6.50879 11.0053 6.76129 11.2578 7.07275 11.2578C7.38422 11.2578 7.63672 11.0053 7.63672 10.6939C7.63672 10.3824 7.38422 10.1299 7.07275 10.1299ZM20.6831 6.74609H17.8257V3.85107C17.8257 3.66254 17.7315 3.48642 17.5745 3.38183L14.1907 1.12596C14.0981 1.06419 13.9893 1.03125 13.8779 1.03125H5.94483C5.63336 1.03125 5.38086 1.28376 5.38086 1.59521V6.74609H2.56103C2.24958 6.74609 1.99707 6.9986 1.99707 7.31005V15.2056C1.99707 15.517 2.24958 15.7695 2.56103 15.7695H5.38086V19.7173C5.38086 20.0288 5.63336 20.2812 5.94483 20.2812H17.2617C17.5732 20.2812 17.8257 20.0288 17.8257 19.7173V15.7695H20.6831C20.9946 15.7695 21.2471 15.517 21.2471 15.2056V7.31005C21.2471 6.9986 20.9946 6.74609 20.6831 6.74609ZM14.4419 2.64901L15.3991 3.28711H14.4419V2.64901ZM6.50879 2.15918H13.314V3.85107C13.314 4.16254 13.5665 4.41504 13.8779 4.41504H16.6977V7.31005C16.6977 7.62102 16.4447 7.87402 16.1338 7.87402H7.07275C6.76179 7.87402 6.50879 7.62102 6.50879 7.31005V2.15918ZM16.6977 19.1534H6.50879V14.0776C6.50879 13.7667 6.76179 13.5137 7.07275 13.5137H16.1338C16.4447 13.5137 16.6977 13.7667 16.6977 14.0776V19.1534ZM20.1192 14.6416H17.8257V14.0776C17.8257 13.1447 17.0667 12.3857 16.1338 12.3857H7.07275C6.13986 12.3857 5.38086 13.1447 5.38086 14.0776V14.6416H3.125V7.87402H5.47787C5.71067 8.53043 6.33752 9.00195 7.07275 9.00195H16.1338C16.869 9.00195 17.4959 8.53043 17.7287 7.87402H20.1192V14.6416ZM15.0059 14.6416H8.20069C7.88922 14.6416 7.63672 14.8941 7.63672 15.2056C7.63672 15.517 7.88922 15.7695 8.20069 15.7695H15.0059C15.3173 15.7695 15.5698 15.517 15.5698 15.2056C15.5698 14.8941 15.3173 14.6416 15.0059 14.6416ZM15.0059 16.8975H8.20069C7.88922 16.8975 7.63672 17.15 7.63672 17.4615C7.63672 17.7729 7.88922 18.0254 8.20069 18.0254H15.0059C15.3173 18.0254 15.5698 17.7729 15.5698 17.4615C15.5698 17.15 15.3173 16.8975 15.0059 16.8975Z" fill="url(#paint0_linear_451_1853)" stroke="url(#paint1_linear_451_1853)" stroke-width="0.6"/>
<defs>
<linearGradient id="paint0_linear_451_1853" x1="11.6221" y1="20.2812" x2="11.6221" y2="1.03125" gradientUnits="userSpaceOnUse">
<stop stop-color="#FD5B00"/>
<stop offset="0.411458" stop-color="#AB18A8"/>
<stop offset="1" stop-color="#8E00E4"/>
</linearGradient>
<linearGradient id="paint1_linear_451_1853" x1="11.6221" y1="20.2812" x2="11.6221" y2="1.03125" gradientUnits="userSpaceOnUse">
<stop stop-color="#FD5B00"/>
<stop offset="0.411458" stop-color="#AB18A8"/>
<stop offset="1" stop-color="#8E00E4"/>
</linearGradient>
</defs>
</svg>
