<svg width="23" height="22" viewBox="0 0 23 22" fill="none" xmlns="http://www.w3.org/2000/svg">
<g clip-path="url(#clip0_451_1838)">
<path d="M16.2046 1.80283C15.3183 0.916504 13.8925 0.916504 11.0409 0.916504C8.18839 0.916504 6.76261 0.916504 5.87628 1.80283C5.57386 2.10526 5.37485 2.47103 5.24363 2.93508C5.09362 3.46557 5.55229 3.94499 6.10358 3.94264C6.37072 3.9415 6.6485 3.9415 6.93705 3.9415H15.1469C15.435 3.9415 15.7124 3.9415 15.9794 3.94264C16.5303 3.94499 16.9888 3.46614 16.8387 2.93605C16.7071 2.47154 16.5073 2.10548 16.2046 1.80283ZM16.1743 14.529C16.6805 14.529 17.0918 14.9401 17.0897 15.4463C17.08 17.7973 16.9924 19.41 16.2046 20.1968C15.3193 21.0832 13.8925 21.0832 11.0409 21.0832C8.1894 21.0832 6.76261 21.0832 5.87729 20.1968C5.08957 19.41 5.00194 17.7973 4.9922 15.4463C4.9901 14.9401 5.40138 14.529 5.90763 14.529H16.1743Z" fill="url(#paint0_linear_451_1838)"/>
<path opacity="0.5" d="M15.0747 4.9502H7.00801C4.15644 4.9502 2.72965 4.9502 1.84433 5.83652C0.958008 6.72184 0.958008 8.14863 0.958008 11.0002C0.958008 13.8517 0.958008 15.2785 1.84433 16.1639C2.14726 16.4675 2.5136 16.6669 2.97895 16.7982C3.51312 16.9489 3.99354 16.4831 3.98774 15.9281C3.98433 15.6025 3.98337 15.2654 3.98311 14.9253C3.98294 14.7066 3.78114 14.5363 3.62651 14.3817C3.53196 14.2872 3.47884 14.1589 3.47884 14.0252C3.47884 13.8915 3.53196 13.7633 3.62651 13.6687C3.72106 13.5742 3.84929 13.521 3.98301 13.521H18.0997C18.2334 13.521 18.3617 13.5742 18.4562 13.6687C18.5508 13.7633 18.6038 13.8915 18.6038 14.0252C18.6038 14.1589 18.5508 14.2872 18.4562 14.3817C18.3015 14.5363 18.0998 14.7066 18.0996 14.9253C18.0993 15.2654 18.0984 15.6024 18.0949 15.928C18.0891 16.483 18.5696 16.9488 19.1038 16.7981C19.5691 16.6668 19.9359 16.4674 20.2394 16.1639C21.1247 15.2785 21.1247 13.8517 21.1247 11.0002C21.1247 8.14863 21.1247 6.72184 20.2383 5.83652C19.353 4.9502 17.9262 4.9502 15.0747 4.9502Z" fill="url(#paint1_linear_451_1838)"/>
<path d="M8.01563 9.73957C8.21619 9.73957 8.40855 9.65991 8.55037 9.5181C8.6922 9.37629 8.77187 9.18389 8.77187 8.9833C8.77187 8.78273 8.6922 8.59038 8.55037 8.44855C8.40855 8.30673 8.21619 8.22705 8.01563 8.22705H4.99062C4.79006 8.22705 4.5977 8.30673 4.45588 8.44855C4.31405 8.59038 4.23438 8.78273 4.23438 8.9833C4.23438 9.18389 4.31405 9.37629 4.45588 9.5181C4.5977 9.65991 4.79006 9.73957 4.99062 9.73957H8.01563Z" fill="url(#paint2_linear_451_1838)"/>
<path d="M17.8377 10.4632C18.1815 10.1193 18.3747 9.65312 18.3747 9.16683C18.3747 8.68059 18.1815 8.21428 17.8377 7.87046C17.4938 7.52665 17.0275 7.3335 16.5413 7.3335C16.055 7.3335 15.5886 7.52665 15.2448 7.87046C14.901 8.21428 14.708 8.68059 14.708 9.16683C14.708 9.65312 14.901 10.1193 15.2448 10.4632C15.5886 10.807 16.055 11.0002 16.5413 11.0002C17.0275 11.0002 17.4938 10.807 17.8377 10.4632Z" fill="url(#paint3_linear_451_1838)"/>
</g>
<defs>
<linearGradient id="paint0_linear_451_1838" x1="11.0409" y1="21.0832" x2="11.0409" y2="0.916503" gradientUnits="userSpaceOnUse">
<stop stop-color="#02AA93"/>
<stop offset="1" stop-color="#67FF80"/>
</linearGradient>
<linearGradient id="paint1_linear_451_1838" x1="11.0413" y1="16.8269" x2="11.0413" y2="4.9502" gradientUnits="userSpaceOnUse">
<stop stop-color="#00B59C"/>
<stop offset="1" stop-color="#9CFFAC"/>
</linearGradient>
<linearGradient id="paint2_linear_451_1838" x1="6.50313" y1="9.73957" x2="6.50313" y2="8.22705" gradientUnits="userSpaceOnUse">
<stop stop-color="#02AA93"/>
<stop offset="1" stop-color="#67FF80"/>
</linearGradient>
<linearGradient id="paint3_linear_451_1838" x1="16.5413" y1="11.0002" x2="16.5413" y2="7.3335" gradientUnits="userSpaceOnUse">
<stop stop-color="#E80058"/>
<stop offset="0.9997" stop-color="#FF001D"/>
<stop offset="0.9998" stop-color="#FF867E"/>
</linearGradient>
<clipPath id="clip0_451_1838">
<rect width="22" height="22" fill="white" transform="translate(0.0410156)"/>
</clipPath>
</defs>
</svg>
