<svg width="22" height="22" viewBox="0 0 22 22" fill="none" xmlns="http://www.w3.org/2000/svg">
<path opacity="0.4" d="M11.0088 0C8.72354 0 6.88379 1.83975 6.88379 4.125V8.94824C6.88379 9.38117 6.67366 9.78238 6.35492 10.0754C4.94978 11.3669 4.13686 13.1955 4.13379 15.125C4.13778 18.733 6.93095 21.725 10.5303 21.9753C10.6898 21.9904 10.8493 21.9986 11.0088 22C14.8052 22 17.8838 18.9214 17.8838 15.125C17.8813 13.1955 17.0681 11.3669 15.6628 10.0754C15.3439 9.7824 15.1338 9.38114 15.1338 8.94817V4.125C15.1338 1.83975 13.294 0 11.0088 0ZM11.0088 2.75C11.8187 2.75 12.3838 3.31568 12.3838 4.125V10.3223C12.3838 10.7558 12.5882 11.1639 12.9353 11.4234L13.4852 11.8346C14.5233 12.6143 15.131 13.8297 15.1338 15.1277C15.1324 17.4364 13.3202 19.2486 11.0115 19.25C10.9373 19.2486 10.863 19.2459 10.7888 19.239L10.7558 19.2335L10.7214 19.2308C8.53654 19.0795 6.8875 17.3154 6.88379 15.125C6.8875 13.8284 7.49539 12.6129 8.53269 11.8346L9.08239 11.4235C9.42944 11.1639 9.63379 10.7558 9.63379 10.3224V4.125C9.63379 3.31568 10.1989 2.75 11.0088 2.75Z" fill="#FF007F"/>
<path d="M11.0088 17.875C12.5276 17.875 13.7588 16.6438 13.7588 15.125C13.7588 13.6062 12.5276 12.375 11.0088 12.375C9.49001 12.375 8.25879 13.6062 8.25879 15.125C8.25879 16.6438 9.49001 17.875 11.0088 17.875Z" fill="#FF007F"/>
</svg>
