<svg width="23" height="22" viewBox="0 0 23 22" fill="none" xmlns="http://www.w3.org/2000/svg">
<path fill-rule="evenodd" clip-rule="evenodd" d="M14.8833 1.3818C14.7028 1.38672 14.5233 1.39163 14.3471 1.38604C14.1385 1.83872 13.8789 2.26366 13.596 2.67307C13.8216 2.67829 14.048 2.6753 14.2744 2.67229L14.2761 2.67228C14.7693 2.66571 15.2629 2.65915 15.7506 2.73742C15.9527 2.82172 16.1211 2.99484 16.1788 3.20897C16.1863 5.89045 16.1843 8.5719 16.1823 11.2534L16.1823 11.2698C16.1804 13.7709 16.1786 16.272 16.1844 18.773C16.1234 19.1304 15.7439 19.3356 15.4023 19.3112C14.8064 19.3129 14.2102 19.3126 13.6141 19.3122H13.6115C13.1062 19.3117 12.6009 19.3114 12.0959 19.3124C11.8977 19.3122 11.6995 19.312 11.5013 19.3117L11.4365 19.3115H11.4358C10.2859 19.3105 9.1365 19.3093 7.98631 19.3169C7.59688 19.3368 7.10214 19.3002 6.93017 18.8806L6.93011 18.88C6.92543 15.7149 6.92553 12.5493 6.92564 9.38377C6.92572 7.28439 6.92577 5.18504 6.92445 3.08586C6.86744 3.89424 6.87516 4.70532 6.88286 5.51676L6.88287 5.51753C6.88855 6.11122 6.8942 6.70531 6.87452 7.29865C6.88894 8.9618 6.89222 10.6249 6.87335 12.2892C6.89001 13.6594 6.88903 15.0297 6.87684 16.4011C6.68446 16.6091 6.50874 16.8316 6.33318 17.0542V17.0538C6.50862 16.8313 6.68424 16.6089 6.8765 16.401C6.88868 15.0296 6.88966 13.6594 6.87301 12.2892C6.89188 10.625 6.88848 8.96187 6.87407 7.29876C6.89375 6.70541 6.88822 6.11138 6.88257 5.51769V5.51751C6.87483 4.70587 6.8671 3.89443 6.92412 3.08584C6.93301 3.07689 6.9419 3.0679 6.95077 3.05889L6.95114 3.05852L6.95132 3.05836C7.07902 2.92908 7.21043 2.79603 7.38236 2.7308C7.97624 2.6571 8.57473 2.66554 9.17337 2.67398L9.1746 2.674C9.50383 2.67864 9.83309 2.68326 10.1617 2.6742L10.6624 2.67472C11.6396 2.6758 12.6178 2.67687 13.5956 2.67307C13.8786 2.26368 14.1382 1.83874 14.3468 1.38605C13.1951 1.37717 12.0444 1.38051 10.8939 1.38494C9.76778 1.3794 8.64274 1.37831 7.51771 1.38386C6.49363 1.39496 5.56721 2.30032 5.58384 3.33326L5.5831 3.72118C5.57994 5.38367 5.5768 7.04622 5.58606 8.70868C5.57939 10.3785 5.57496 12.0484 5.58826 13.7182C5.85594 13.496 6.07116 13.2254 6.28645 12.9548L6.28657 12.955C6.07137 13.2256 5.8562 13.496 5.58864 13.7182C5.57755 15.1161 5.5787 16.5152 5.58646 17.9144C5.55542 18.5768 5.55206 19.2945 5.97367 19.8493C6.30874 20.2232 6.74919 20.5018 7.24735 20.5949C8.89266 20.6277 10.5392 20.624 12.186 20.6202H12.2088H12.209L12.263 20.62H12.2634C13.3093 20.6176 14.3553 20.6154 15.4011 20.6226C16.018 20.6537 16.6094 20.3785 17.0387 19.9447C17.3249 19.584 17.5138 19.1359 17.5127 18.6711C17.5057 17.6552 17.5067 16.6394 17.5076 15.6237C17.5087 14.5075 17.5097 13.3912 17.5004 12.2747C17.511 11.0234 17.5087 9.77207 17.5065 8.52074L17.5065 8.48158V8.48121C17.5057 8.05264 17.5049 7.62398 17.5046 7.19539C17.5071 6.60423 17.5071 6.01308 17.5071 5.42202V5.42111C17.5071 4.7168 17.5071 4.01263 17.5114 3.3088C17.5069 3.01036 17.4282 2.71631 17.2707 2.46225L17.3107 2.41677L17.2852 2.38537C17.0446 2.08868 16.7956 1.78166 16.4442 1.61126C15.962 1.35233 15.4189 1.36716 14.8833 1.3818ZM16.8159 13.0375C16.7666 13.1006 16.7173 13.1636 16.6673 13.2261C16.7168 13.1642 16.7655 13.1019 16.8143 13.0395L16.8159 13.0375L16.8161 13.0372L16.8162 13.0371C16.873 12.9644 16.9297 12.8918 16.9875 12.8201C16.9301 12.8914 16.8736 12.9636 16.8172 13.0358L16.8162 13.0371L16.8159 13.0375ZM16.2632 3.68051C16.2433 3.53114 16.2175 3.38276 16.1849 3.2363C16.2175 3.38272 16.2434 3.53103 16.2633 3.68038L16.2632 3.68051Z" fill="url(#paint0_linear_451_1874)"/>
<path d="M17.5833 4.64877C17.5911 4.20038 17.5987 3.75048 17.512 3.30859C17.5078 4.01242 17.5078 4.71659 17.5078 5.4209C17.5078 6.01226 17.5078 6.60371 17.5052 7.19519C17.5055 7.62377 17.5063 8.05243 17.5071 8.481V8.48138L17.5072 8.5256C17.5094 9.77525 17.5116 11.0249 17.501 12.2746C17.5103 13.3911 17.5093 14.5073 17.5082 15.6235C17.5073 16.6392 17.5063 17.655 17.5133 18.671C17.5994 18.2316 17.5916 17.7846 17.5837 17.3389V17.3386C17.5821 17.2564 17.5807 17.1741 17.5799 17.0921C17.581 13.0234 17.581 8.95488 17.5799 4.88742C17.5805 4.82491 17.5815 4.76233 17.5825 4.6997L17.5833 4.64877Z" fill="url(#paint1_linear_451_1874)"/>
<path d="M9.58271 17.4436C9.58385 17.0829 9.92777 16.779 10.285 16.8156L10.5797 16.8149H10.58C11.3336 16.8126 12.0863 16.8106 12.8391 16.8156C13.2629 16.7845 13.618 17.2383 13.4893 17.6422C13.4383 17.893 13.2152 18.0683 12.9756 18.1271C12.0358 18.1037 11.0961 18.1005 10.1563 18.1293C9.83013 18.0803 9.55719 17.7809 9.58271 17.4436Z" fill="url(#paint2_linear_451_1874)"/>
<path d="M16.1844 18.773C16.1786 16.272 16.1804 13.7709 16.1823 11.2698L16.1823 11.2534C16.1843 8.5719 16.1863 5.89045 16.1788 3.20897C16.1211 2.99484 15.9527 2.82172 15.7506 2.73742C15.2629 2.65915 14.7693 2.66571 14.2761 2.67228L14.2744 2.67229C14.048 2.6753 13.8216 2.67829 13.596 2.67307C13.8789 2.26366 14.1385 1.83872 14.3471 1.38604C14.5233 1.39163 14.7028 1.38672 14.8833 1.3818C15.4189 1.36716 15.962 1.35233 16.4442 1.61126C16.7956 1.78166 17.0446 2.08868 17.2852 2.38537L17.3107 2.41677L17.2707 2.46225C17.4282 2.71631 17.5069 3.01036 17.5114 3.3088C17.5071 4.01263 17.5071 4.7168 17.5071 5.42111V5.42202C17.5071 6.01308 17.5071 6.60423 17.5046 7.19539C17.5049 7.62398 17.5057 8.05264 17.5065 8.48121V8.48158L17.5065 8.52074C17.5087 9.77207 17.511 11.0234 17.5004 12.2747C17.5097 13.3912 17.5087 14.5075 17.5076 15.6237C17.5067 16.6394 17.5057 17.6552 17.5127 18.6711C17.5138 19.1359 17.3249 19.584 17.0387 19.9447C16.6094 20.3785 16.018 20.6537 15.4011 20.6226C14.3553 20.6154 13.3093 20.6176 12.2634 20.62H12.263L12.209 20.6202H12.2088H12.186C10.5392 20.624 8.89266 20.6277 7.24735 20.5949C6.74919 20.5018 6.30874 20.2232 5.97367 19.8493C5.55206 19.2945 5.55542 18.5768 5.58646 17.9144C5.5787 16.5152 5.57755 15.1161 5.58864 13.7182C5.8562 13.496 6.07137 13.2256 6.28657 12.955L6.28645 12.9548C6.07116 13.2254 5.85594 13.496 5.58826 13.7182C5.57496 12.0484 5.57939 10.3785 5.58606 8.70868C5.5768 7.04622 5.57994 5.38367 5.5831 3.72118L5.58384 3.33326C5.56721 2.30032 6.49363 1.39496 7.51771 1.38386C8.64274 1.37831 9.76778 1.3794 10.8939 1.38494C12.0444 1.38051 13.1951 1.37717 14.3468 1.38605C14.1382 1.83874 13.8786 2.26368 13.5956 2.67307C12.6178 2.67687 11.6396 2.6758 10.6624 2.67472L10.1617 2.6742C9.83309 2.68326 9.50383 2.67864 9.1746 2.674L9.17337 2.67398C8.57473 2.66554 7.97624 2.6571 7.38236 2.7308C7.21043 2.79603 7.07902 2.92908 6.95132 3.05836L6.95114 3.05852L6.95077 3.05889C6.9419 3.0679 6.93301 3.07689 6.92412 3.08584C6.8671 3.89443 6.87483 4.70587 6.88257 5.51751V5.51769C6.88822 6.11138 6.89375 6.70541 6.87407 7.29876C6.88848 8.96187 6.89188 10.625 6.87301 12.2892C6.88966 13.6594 6.88868 15.0296 6.8765 16.401C6.68424 16.6089 6.50862 16.8313 6.33318 17.0538V17.0542C6.50874 16.8316 6.68446 16.6091 6.87684 16.4011C6.88903 15.0297 6.89001 13.6594 6.87335 12.2892C6.89222 10.6249 6.88894 8.9618 6.87452 7.29865C6.8942 6.70531 6.88855 6.11122 6.88287 5.51753L6.88286 5.51676C6.87516 4.70532 6.86744 3.89424 6.92445 3.08586C6.92577 5.18504 6.92572 7.28439 6.92564 9.38377C6.92553 12.5493 6.92543 15.7149 6.93011 18.88L6.93017 18.8806C7.10214 19.3002 7.59688 19.3368 7.98631 19.3169C9.1365 19.3093 10.2859 19.3105 11.4358 19.3115H11.4365L11.5013 19.3117C11.6995 19.312 11.8977 19.3122 12.0959 19.3124C12.6009 19.3114 13.1062 19.3117 13.6115 19.3122H13.6141C14.2102 19.3126 14.8064 19.3129 15.4023 19.3112C15.7439 19.3356 16.1234 19.1304 16.1844 18.773ZM16.1844 18.773C16.2376 18.4381 16.2487 18.0974 16.2509 17.759L16.2509 17.758L16.2509 17.7569C16.2421 16.3997 16.2332 15.0411 16.2598 13.6838M16.8159 13.0375C16.7666 13.1006 16.7173 13.1636 16.6673 13.2261C16.7168 13.1642 16.7655 13.1019 16.8143 13.0395L16.8159 13.0375ZM16.8159 13.0375L16.8161 13.0372L16.8162 13.0371M16.8159 13.0375L16.8162 13.0371M16.8162 13.0371C16.873 12.9644 16.9297 12.8918 16.9875 12.8201C16.9301 12.8914 16.8736 12.9636 16.8172 13.0358L16.8162 13.0371ZM16.1849 3.2363C16.2175 3.38276 16.2433 3.53114 16.2632 3.68051L16.2633 3.68038C16.2434 3.53103 16.2175 3.38272 16.1849 3.2363ZM17.5118 3.30877C17.5984 3.75066 17.5908 4.20056 17.5831 4.64894L17.5823 4.69987C17.5813 4.7625 17.5802 4.82508 17.5796 4.88759C17.5807 8.95505 17.5807 13.0236 17.5796 17.0923C17.5804 17.1743 17.5818 17.2566 17.5834 17.3387V17.3391C17.5913 17.7848 17.5992 18.2318 17.513 18.6711C17.5061 17.6552 17.507 16.6394 17.508 15.6237C17.5091 14.5075 17.51 13.3912 17.5007 12.2747C17.5114 11.0251 17.5092 9.77542 17.507 8.52577L17.5069 8.48155V8.48117C17.5061 8.0526 17.5053 7.62394 17.505 7.19536C17.5075 6.60388 17.5075 6.01243 17.5075 5.42107C17.5075 4.71677 17.5075 4.01259 17.5118 3.30877ZM10.285 16.8155C9.92776 16.7789 9.58384 17.0828 9.5827 17.4434C9.55718 17.7808 9.83012 18.0802 10.1563 18.1292C11.0961 18.1003 12.0358 18.1036 12.9756 18.127C13.2152 18.0682 13.4383 17.8929 13.4893 17.6421C13.618 17.2382 13.2629 16.7844 12.8391 16.8155C12.0863 16.8105 11.3335 16.8125 10.58 16.8147H10.5797L10.285 16.8155Z" stroke="url(#paint3_linear_451_1874)" stroke-width="0.6"/>
<defs>
<linearGradient id="paint0_linear_451_1874" x1="11.5811" y1="20.625" x2="11.5811" y2="1.375" gradientUnits="userSpaceOnUse">
<stop stop-color="#02AA93"/>
<stop offset="1" stop-color="#67FF80"/>
</linearGradient>
<linearGradient id="paint1_linear_451_1874" x1="11.5814" y1="20.6248" x2="11.5814" y2="1.37483" gradientUnits="userSpaceOnUse">
<stop stop-color="#02AA93"/>
<stop offset="1" stop-color="#67FF80"/>
</linearGradient>
<linearGradient id="paint2_linear_451_1874" x1="11.5811" y1="20.6251" x2="11.5811" y2="1.37514" gradientUnits="userSpaceOnUse">
<stop stop-color="#02AA93"/>
<stop offset="1" stop-color="#67FF80"/>
</linearGradient>
<linearGradient id="paint3_linear_451_1874" x1="11.5811" y1="20.625" x2="11.5811" y2="1.375" gradientUnits="userSpaceOnUse">
<stop stop-color="#02AA93"/>
<stop offset="1" stop-color="#67FF80"/>
</linearGradient>
</defs>
</svg>
