<svg width="23" height="22" viewBox="0 0 23 22" fill="none" xmlns="http://www.w3.org/2000/svg">
<path fill-rule="evenodd" clip-rule="evenodd" d="M14.4956 1.3818C14.3151 1.38672 14.1356 1.39163 13.9594 1.38604C13.7508 1.83872 13.4912 2.26366 13.2083 2.67307C13.4339 2.67829 13.6603 2.6753 13.8867 2.67229L13.8884 2.67228C14.3816 2.66571 14.8752 2.65915 15.3629 2.73742C15.565 2.82172 15.7334 2.99484 15.7911 3.20897C15.7986 5.89045 15.7966 8.5719 15.7946 11.2534L15.7946 11.2698C15.7927 13.7709 15.7909 16.272 15.7967 18.773C15.7357 19.1304 15.3562 19.3356 15.0146 19.3112C14.4187 19.3129 13.8225 19.3126 13.2264 19.3122H13.2238C12.7185 19.3117 12.2132 19.3114 11.7082 19.3124C11.51 19.3122 11.3118 19.312 11.1136 19.3117L11.0488 19.3115H11.0481C9.8982 19.3105 8.7488 19.3093 7.59862 19.3169C7.20918 19.3368 6.71444 19.3002 6.54248 18.8806L6.54241 18.88C6.53774 15.7149 6.53784 12.5493 6.53794 9.38377C6.53803 7.28439 6.53808 5.18504 6.53676 3.08586C6.47974 3.89424 6.48746 4.70532 6.49516 5.51676L6.49518 5.51753C6.50085 6.11122 6.50651 6.70531 6.48683 7.29865C6.50125 8.9618 6.50453 10.6249 6.48566 12.2892C6.50231 13.6594 6.50133 15.0297 6.48915 16.4011C6.29677 16.6091 6.12104 16.8316 5.94549 17.0542V17.0538C6.12092 16.8313 6.29654 16.6089 6.4888 16.401C6.50099 15.0296 6.50197 13.6594 6.48531 12.2892C6.50419 10.625 6.50078 8.96187 6.48638 7.29876C6.50606 6.70541 6.50052 6.11138 6.49487 5.51769V5.51751C6.48714 4.70587 6.4794 3.89443 6.53643 3.08584C6.54532 3.07689 6.5542 3.0679 6.56307 3.05889L6.56345 3.05852L6.56362 3.05836C6.69132 2.92908 6.82274 2.79603 6.99467 2.7308C7.58854 2.6571 8.18703 2.66554 8.78567 2.67398L8.78691 2.674C9.11614 2.67864 9.4454 2.68326 9.77397 2.6742L10.2747 2.67472C11.2519 2.6758 12.2301 2.67687 13.2079 2.67307C13.4909 2.26368 13.7505 1.83874 13.9591 1.38605C12.8074 1.37717 11.6567 1.38051 10.5062 1.38494C9.38008 1.3794 8.25504 1.37831 7.13002 1.38386C6.10593 1.39496 5.17951 2.30032 5.19615 3.33326L5.19541 3.72118C5.19225 5.38367 5.1891 7.04622 5.19837 8.70868C5.1917 10.3785 5.18726 12.0484 5.20057 13.7182C5.46824 13.496 5.68347 13.2254 5.89876 12.9548L5.89888 12.955C5.68367 13.2256 5.4685 13.496 5.20094 13.7182C5.18986 15.1161 5.19101 16.5152 5.19876 17.9144C5.16772 18.5768 5.16437 19.2945 5.58598 19.8493C5.92105 20.2232 6.36149 20.5018 6.85966 20.5949C8.50497 20.6277 10.1515 20.624 11.7983 20.6202H11.8211H11.8213L11.8753 20.62H11.8757C12.9216 20.6176 13.9676 20.6154 15.0134 20.6226C15.6303 20.6537 16.2217 20.3785 16.651 19.9447C16.9372 19.584 17.1261 19.1359 17.125 18.6711C17.118 17.6552 17.119 16.6394 17.1199 15.6237C17.121 14.5075 17.122 13.3912 17.1127 12.2747C17.1233 11.0234 17.121 9.77207 17.1188 8.52074L17.1188 8.48158V8.48121C17.118 8.05264 17.1172 7.62398 17.1169 7.19539C17.1194 6.60423 17.1194 6.01308 17.1194 5.42202V5.42111C17.1194 4.7168 17.1194 4.01263 17.1237 3.3088C17.1193 3.01036 17.0405 2.71631 16.883 2.46225L16.923 2.41677L16.8976 2.38537C16.6569 2.08868 16.4079 1.78166 16.0565 1.61126C15.5743 1.35233 15.0312 1.36716 14.4956 1.3818ZM16.4282 13.0375C16.3789 13.1006 16.3296 13.1636 16.2796 13.2261C16.3291 13.1642 16.3778 13.1019 16.4266 13.0395L16.4282 13.0375L16.4284 13.0372L16.4285 13.0371C16.4853 12.9644 16.542 12.8918 16.5998 12.8201C16.5424 12.8914 16.4859 12.9636 16.4295 13.0358L16.4285 13.0371L16.4282 13.0375ZM15.8755 3.68051C15.8556 3.53114 15.8298 3.38276 15.7972 3.2363C15.8298 3.38272 15.8557 3.53103 15.8756 3.68038L15.8755 3.68051Z" fill="url(#paint0_linear_451_1860)"/>
<path d="M17.1956 4.64877C17.2034 4.20038 17.211 3.75048 17.1243 3.30859C17.1201 4.01242 17.1201 4.71659 17.1201 5.4209C17.1201 6.01226 17.1201 6.60371 17.1175 7.19519C17.1179 7.62377 17.1186 8.05243 17.1194 8.481V8.48138L17.1195 8.5256C17.1217 9.77525 17.1239 11.0249 17.1133 12.2746C17.1226 13.3911 17.1217 14.5073 17.1206 15.6235C17.1196 16.6392 17.1186 17.655 17.1256 18.671C17.2117 18.2316 17.2039 17.7846 17.196 17.3389V17.3386C17.1944 17.2564 17.193 17.1741 17.1922 17.0921C17.1933 13.0234 17.1933 8.95488 17.1922 4.88742C17.1928 4.82491 17.1938 4.76233 17.1948 4.6997L17.1956 4.64877Z" fill="url(#paint1_linear_451_1860)"/>
<path d="M9.19502 17.4436C9.19615 17.0829 9.54007 16.779 9.89733 16.8156L10.192 16.8149H10.1923C10.9459 16.8126 11.6986 16.8106 12.4514 16.8156C12.8752 16.7845 13.2303 17.2383 13.1016 17.6422C13.0506 17.893 12.8275 18.0683 12.5879 18.1271C11.6481 18.1037 10.7084 18.1005 9.76865 18.1293C9.44243 18.0803 9.16949 17.7809 9.19502 17.4436Z" fill="url(#paint2_linear_451_1860)"/>
<path d="M15.7967 18.773C15.7909 16.272 15.7927 13.7709 15.7946 11.2698L15.7946 11.2534C15.7966 8.5719 15.7986 5.89045 15.7911 3.20897C15.7334 2.99484 15.565 2.82172 15.3629 2.73742C14.8752 2.65915 14.3816 2.66571 13.8884 2.67228L13.8867 2.67229C13.6603 2.6753 13.4339 2.67829 13.2083 2.67307C13.4912 2.26366 13.7508 1.83872 13.9594 1.38604C14.1356 1.39163 14.3151 1.38672 14.4956 1.3818C15.0312 1.36716 15.5743 1.35233 16.0565 1.61126C16.4079 1.78166 16.6569 2.08868 16.8976 2.38537L16.923 2.41677L16.883 2.46225C17.0405 2.71631 17.1193 3.01036 17.1237 3.3088C17.1194 4.01263 17.1194 4.7168 17.1194 5.42111V5.42202C17.1194 6.01308 17.1194 6.60423 17.1169 7.19539C17.1172 7.62398 17.118 8.05264 17.1188 8.48121V8.48158L17.1188 8.52074C17.121 9.77207 17.1233 11.0234 17.1127 12.2747C17.122 13.3912 17.121 14.5075 17.1199 15.6237C17.119 16.6394 17.118 17.6552 17.125 18.6711C17.1261 19.1359 16.9372 19.584 16.651 19.9447C16.2217 20.3785 15.6303 20.6537 15.0134 20.6226C13.9676 20.6154 12.9216 20.6176 11.8757 20.62H11.8753L11.8213 20.6202H11.8211H11.7983C10.1515 20.624 8.50497 20.6277 6.85966 20.5949C6.36149 20.5018 5.92105 20.2232 5.58598 19.8493C5.16437 19.2945 5.16772 18.5768 5.19876 17.9144C5.19101 16.5152 5.18986 15.1161 5.20094 13.7182C5.4685 13.496 5.68367 13.2256 5.89888 12.955L5.89876 12.9548C5.68347 13.2254 5.46824 13.496 5.20057 13.7182C5.18726 12.0484 5.1917 10.3785 5.19837 8.70868C5.1891 7.04622 5.19225 5.38367 5.19541 3.72118L5.19615 3.33326C5.17951 2.30032 6.10593 1.39496 7.13002 1.38386C8.25504 1.37831 9.38008 1.3794 10.5062 1.38494C11.6567 1.38051 12.8074 1.37717 13.9591 1.38605C13.7505 1.83874 13.4909 2.26368 13.2079 2.67307C12.2301 2.67687 11.2519 2.6758 10.2747 2.67472L9.77397 2.6742C9.4454 2.68326 9.11614 2.67864 8.78691 2.674L8.78567 2.67398C8.18703 2.66554 7.58854 2.6571 6.99467 2.7308C6.82274 2.79603 6.69132 2.92908 6.56362 3.05836L6.56345 3.05852L6.56307 3.05889C6.5542 3.0679 6.54532 3.07689 6.53643 3.08584C6.4794 3.89443 6.48714 4.70587 6.49487 5.51751V5.51769C6.50052 6.11138 6.50606 6.70541 6.48638 7.29876C6.50078 8.96187 6.50419 10.625 6.48531 12.2892C6.50197 13.6594 6.50099 15.0296 6.4888 16.401C6.29654 16.6089 6.12092 16.8313 5.94549 17.0538V17.0542C6.12104 16.8316 6.29677 16.6091 6.48915 16.4011C6.50133 15.0297 6.50231 13.6594 6.48566 12.2892C6.50453 10.6249 6.50125 8.9618 6.48683 7.29865C6.50651 6.70531 6.50085 6.11122 6.49518 5.51753L6.49516 5.51676C6.48746 4.70532 6.47974 3.89424 6.53676 3.08586C6.53808 5.18504 6.53803 7.28439 6.53794 9.38377C6.53784 12.5493 6.53774 15.7149 6.54241 18.88L6.54248 18.8806C6.71444 19.3002 7.20918 19.3368 7.59862 19.3169C8.7488 19.3093 9.8982 19.3105 11.0481 19.3115H11.0488L11.1136 19.3117C11.3118 19.312 11.51 19.3122 11.7082 19.3124C12.2132 19.3114 12.7185 19.3117 13.2238 19.3122H13.2264C13.8225 19.3126 14.4187 19.3129 15.0146 19.3112C15.3562 19.3356 15.7357 19.1304 15.7967 18.773ZM15.7967 18.773C15.8499 18.4381 15.861 18.0974 15.8632 17.759L15.8632 17.758L15.8632 17.7569C15.8544 16.3997 15.8455 15.0411 15.8721 13.6838M16.4282 13.0375C16.3789 13.1006 16.3296 13.1636 16.2796 13.2261C16.3291 13.1642 16.3778 13.1019 16.4266 13.0395L16.4282 13.0375ZM16.4282 13.0375L16.4284 13.0372L16.4285 13.0371M16.4282 13.0375L16.4285 13.0371M16.4285 13.0371C16.4853 12.9644 16.542 12.8918 16.5998 12.8201C16.5424 12.8914 16.4859 12.9636 16.4295 13.0358L16.4285 13.0371ZM15.7972 3.2363C15.8298 3.38276 15.8556 3.53114 15.8755 3.68051L15.8756 3.68038C15.8557 3.53103 15.8298 3.38272 15.7972 3.2363ZM17.1241 3.30877C17.2107 3.75066 17.2031 4.20056 17.1954 4.64894L17.1946 4.69987C17.1936 4.7625 17.1925 4.82508 17.1919 4.88759C17.193 8.95505 17.193 13.0236 17.1919 17.0923C17.1927 17.1743 17.1941 17.2566 17.1957 17.3387V17.3391C17.2036 17.7848 17.2115 18.2318 17.1253 18.6711C17.1184 17.6552 17.1193 16.6394 17.1203 15.6237C17.1214 14.5075 17.1223 13.3912 17.113 12.2747C17.1237 11.0251 17.1215 9.77542 17.1193 8.52577L17.1192 8.48155V8.48117C17.1184 8.0526 17.1176 7.62394 17.1173 7.19536C17.1198 6.60388 17.1198 6.01243 17.1198 5.42107C17.1198 4.71677 17.1198 4.01259 17.1241 3.30877ZM9.89732 16.8155C9.54007 16.7789 9.19614 17.0828 9.19501 17.4434C9.16949 17.7808 9.44242 18.0802 9.76864 18.1292C10.7084 18.1003 11.6481 18.1036 12.5879 18.127C12.8275 18.0682 13.0506 17.8929 13.1016 17.6421C13.2303 17.2382 12.8752 16.7844 12.4514 16.8155C11.6986 16.8105 10.9458 16.8125 10.1923 16.8147H10.192L9.89732 16.8155Z" stroke="url(#paint3_linear_451_1860)" stroke-width="0.6"/>
<defs>
<linearGradient id="paint0_linear_451_1860" x1="11.1934" y1="20.625" x2="11.1934" y2="1.375" gradientUnits="userSpaceOnUse">
<stop stop-color="#02AA93"/>
<stop offset="1" stop-color="#67FF80"/>
</linearGradient>
<linearGradient id="paint1_linear_451_1860" x1="11.1937" y1="20.6248" x2="11.1937" y2="1.37483" gradientUnits="userSpaceOnUse">
<stop stop-color="#02AA93"/>
<stop offset="1" stop-color="#67FF80"/>
</linearGradient>
<linearGradient id="paint2_linear_451_1860" x1="11.1934" y1="20.6251" x2="11.1934" y2="1.37514" gradientUnits="userSpaceOnUse">
<stop stop-color="#02AA93"/>
<stop offset="1" stop-color="#67FF80"/>
</linearGradient>
<linearGradient id="paint3_linear_451_1860" x1="11.1934" y1="20.625" x2="11.1934" y2="1.375" gradientUnits="userSpaceOnUse">
<stop stop-color="#02AA93"/>
<stop offset="1" stop-color="#67FF80"/>
</linearGradient>
</defs>
</svg>
