<svg width="23" height="22" viewBox="0 0 23 22" fill="none" xmlns="http://www.w3.org/2000/svg">
<path d="M14.1525 1.38604C14.3287 1.39163 14.5082 1.38672 14.6887 1.3818C15.2243 1.36716 15.7674 1.35233 16.2496 1.61126C16.6012 1.78172 16.8503 2.08895 17.091 2.38576L17.1161 2.41677L17.0762 2.46225C17.2336 2.71631 17.3124 3.01036 17.3168 3.3088C17.3125 4.01263 17.3125 4.7168 17.3125 5.42111C17.3125 6.01246 17.3125 6.60392 17.31 7.19539C17.3103 7.62398 17.3111 8.05264 17.3119 8.48121V8.48158C17.3141 9.74598 17.3165 11.0104 17.3057 12.2748C17.0428 12.4983 16.8322 12.7677 16.6215 13.0372C16.4462 13.2614 16.2708 13.4858 16.0652 13.6838C16.0386 15.0415 16.0475 16.4004 16.0563 17.758L16.0564 17.759C16.0541 18.0974 16.0431 18.4381 15.9898 18.773C15.984 16.2667 15.9858 13.7603 15.9877 11.2539C15.9897 8.57228 15.9917 5.89064 15.9842 3.20897C16.0197 3.3643 16.0474 3.52184 16.0686 3.68051L16.0687 3.68038C16.0476 3.52174 16.0197 3.36426 15.9842 3.20897C15.9265 2.99484 15.7581 2.82172 15.5561 2.73742C15.0682 2.65913 14.5746 2.66571 14.0813 2.67228C13.8544 2.67529 13.6275 2.67831 13.4014 2.67307C13.6843 2.26366 13.944 1.83872 14.1525 1.38604Z" fill="url(#paint0_linear_451_1865)"/>
<path d="M7.32381 1.38403C6.29972 1.39512 5.3733 2.30049 5.38994 3.33343L5.38922 3.71447C5.38605 5.37925 5.38287 7.04409 5.39215 8.70885C5.38549 10.3787 5.38105 12.0486 5.39435 13.7184C5.66208 13.4961 5.87734 13.2255 6.09268 12.9548C6.2771 12.7229 6.46158 12.491 6.67912 12.2893C6.69799 10.6251 6.69457 8.96204 6.68017 7.29893C6.69985 6.70558 6.69431 6.11154 6.68866 5.51785V5.51768C6.68093 4.70598 6.67319 3.89465 6.73022 3.08601C6.7391 3.07706 6.74799 3.06807 6.75686 3.05906L6.75724 3.05868L6.75741 3.05853C6.88515 2.92921 7.01649 2.79621 7.18845 2.73097C7.78235 2.65727 8.38085 2.66571 8.97951 2.67415C9.30913 2.67879 9.63879 2.68345 9.96776 2.67437L10.4488 2.67487C11.4326 2.67595 12.4172 2.67707 13.4017 2.67324C13.6847 2.26385 13.9443 1.8389 14.1529 1.38622C13.0011 1.37734 11.8505 1.38068 10.7 1.38511C9.57387 1.37957 8.44883 1.37848 7.32381 1.38403Z" fill="url(#paint1_linear_451_1865)"/>
<path d="M6.68823 5.51761C6.68052 4.70591 6.67278 3.89458 6.72981 3.08594C6.73113 5.18512 6.73108 7.28447 6.731 9.38385C6.73089 12.5496 6.73079 15.7154 6.73546 18.8807C6.67624 18.3577 6.68108 17.8318 6.68593 17.3057C6.68871 17.004 6.6915 16.7024 6.6822 16.4011C6.69439 15.0297 6.69537 13.6595 6.67871 12.2892C6.69758 10.625 6.6943 8.96188 6.67988 7.29873C6.69956 6.70538 6.6939 6.1113 6.68823 5.51761Z" fill="url(#paint2_linear_451_1865)"/>
<path d="M17.3177 3.30859C17.4043 3.75048 17.3967 4.20038 17.389 4.64877C17.3877 4.7284 17.3863 4.80796 17.3855 4.88742C17.3866 8.95488 17.3866 13.0234 17.3855 17.0921C17.3863 17.1741 17.3877 17.2564 17.3893 17.3386V17.3389C17.3972 17.7846 17.4051 18.2316 17.3189 18.671C17.312 17.655 17.3129 16.6392 17.3139 15.6235C17.315 14.5073 17.316 13.3911 17.3066 12.2746C17.3174 11.0102 17.315 9.74578 17.3128 8.48138V8.481C17.312 8.05243 17.3112 7.62377 17.3109 7.19519C17.3134 6.60371 17.3134 6.01226 17.3134 5.4209C17.3134 4.71659 17.3134 4.01242 17.3177 3.30859Z" fill="url(#paint3_linear_451_1865)"/>
<path fill-rule="evenodd" clip-rule="evenodd" d="M6.09263 12.9547C5.87731 13.2254 5.66203 13.496 5.3943 13.7183C5.38322 15.1163 5.38437 16.5154 5.39212 17.9146C5.36108 18.577 5.35773 19.2947 5.77934 19.8495C6.11441 20.2233 6.55485 20.502 7.05302 20.5951C8.70594 20.6281 10.3601 20.6242 12.0145 20.6204H12.0147C13.0787 20.618 14.1428 20.6154 15.2068 20.6228C15.8236 20.6539 16.4151 20.3787 16.8444 19.9449C17.1306 19.5841 17.3194 19.1361 17.3183 18.6713C17.3114 17.6554 17.3123 16.6395 17.3133 15.6239C17.3144 14.5076 17.3153 13.3914 17.306 12.2749C17.0431 12.4984 16.8325 12.7678 16.6218 13.0374C16.4465 13.2616 16.2711 13.4859 16.0655 13.684C16.0389 15.0416 16.0478 16.4005 16.0566 17.7581L16.0567 17.7592C16.0544 18.0976 16.0434 18.4383 15.9901 18.7732C15.9291 19.1306 15.5496 19.3358 15.2079 19.3114C14.6117 19.3131 14.0151 19.3128 13.4186 19.3124H13.4172C12.9119 19.3119 12.4066 19.3116 11.9016 19.3126C11.7034 19.3124 11.5052 19.3122 11.307 19.3119C10.1352 19.3107 8.96399 19.3093 7.79198 19.3171C7.40254 19.337 6.9078 19.3004 6.73584 18.8808C6.67661 18.3578 6.68144 17.8319 6.6863 17.3058C6.68909 17.0041 6.69186 16.7024 6.68257 16.4012C6.49016 16.6092 6.31442 16.8318 6.13885 17.0544" fill="url(#paint4_linear_451_1865)"/>
<path d="M6.13801 17.0542C6.31358 16.8315 6.48933 16.609 6.68174 16.4009C6.69393 15.0295 6.69491 13.6593 6.67825 12.2891C6.46071 12.4907 6.27622 12.7227 6.0918 12.9545" fill="url(#paint5_linear_451_1865)"/>
<path d="M9.38838 17.4436C9.38951 17.0829 9.73343 16.779 10.0907 16.8156L10.3854 16.8149H10.3857C11.1392 16.8126 11.892 16.8106 12.6448 16.8156C13.0686 16.7845 13.4237 17.2383 13.2949 17.6422C13.244 17.893 13.0209 18.0683 12.7812 18.1271C11.8415 18.1037 10.9018 18.1005 9.96201 18.1293C9.63579 18.0803 9.36285 17.7809 9.38838 17.4436Z" fill="url(#paint6_linear_451_1865)"/>
<path d="M14.1528 1.38604C14.329 1.39163 14.5085 1.38672 14.689 1.3818C15.2246 1.36716 15.7677 1.35233 16.2499 1.61126C16.6015 1.78172 16.8506 2.08895 17.0913 2.38576L17.1164 2.41677L17.0765 2.46225C17.2339 2.71631 17.3127 3.01036 17.3171 3.3088M14.1528 1.38604C13.9443 1.83872 13.6846 2.26366 13.4017 2.67307M14.1528 1.38604C13.0011 1.37716 11.8505 1.3805 10.7 1.38493C9.57384 1.37939 8.44878 1.3783 7.32377 1.38385C6.29969 1.39495 5.37325 2.30031 5.3899 3.33324L5.38918 3.7143C5.386 5.37907 5.38284 7.04392 5.3921 8.70868C5.38545 10.3785 5.381 12.0484 5.3943 13.7182M17.3171 3.3088C17.3128 4.01263 17.3128 4.7168 17.3128 5.42111C17.3128 6.01246 17.3128 6.60392 17.3103 7.19539C17.3106 7.62398 17.3114 8.05264 17.3122 8.48121V8.48158C17.3144 9.74598 17.3168 11.0104 17.306 12.2748M17.3171 3.3088C17.4037 3.75069 17.3961 4.20059 17.3884 4.64898C17.3871 4.72859 17.3857 4.80817 17.3849 4.88763C17.386 8.95508 17.386 13.0236 17.3849 17.0923C17.3857 17.1743 17.3871 17.2566 17.3887 17.3387V17.3391C17.3966 17.7848 17.4045 18.2318 17.3183 18.6711M13.4017 2.67307C13.6278 2.67831 13.8547 2.67529 14.0816 2.67228C14.5749 2.66571 15.0685 2.65913 15.5564 2.73742C15.7584 2.82172 15.9268 2.99484 15.9845 3.20897M13.4017 2.67307C12.4172 2.67688 11.4326 2.67578 10.4488 2.67468L9.96772 2.6742C9.63876 2.68328 9.30908 2.67862 8.97946 2.67396C8.3808 2.66552 7.78232 2.6571 7.18842 2.7308C7.01644 2.79604 6.8851 2.92902 6.75736 3.05834L6.7572 3.0585L6.75682 3.05888C6.74794 3.0679 6.73905 3.07687 6.73017 3.08583M5.3943 13.7182C5.66203 13.4959 5.87731 13.2253 6.09263 12.9546M5.3943 13.7182C5.38322 15.1162 5.38437 16.5153 5.39212 17.9144M17.306 12.2748C17.0431 12.4983 16.8325 12.7677 16.6218 13.0372C16.4465 13.2614 16.2711 13.4858 16.0655 13.6838M17.306 12.2748C17.3153 13.3913 17.3144 14.5075 17.3133 15.6237C17.3123 16.6394 17.3114 17.6552 17.3183 18.6711M17.3183 18.6711C17.3194 19.1359 17.1306 19.5841 16.8444 19.9447C16.4151 20.3785 15.8236 20.6537 15.2068 20.6226C14.1428 20.6152 13.0787 20.6178 12.0147 20.6202H12.0145C10.3601 20.624 8.70594 20.6279 7.05302 20.5949M15.9845 3.20897C15.992 5.89064 15.99 8.57228 15.988 11.2539C15.9861 13.7603 15.9843 16.2667 15.9901 18.773M15.9845 3.20897C16.02 3.3643 16.0477 3.52184 16.0689 3.68051M15.9845 3.20897C16.02 3.36426 16.0479 3.52174 16.069 3.68038L16.0689 3.68051M6.73017 3.08583C6.67316 3.89448 6.68087 4.7058 6.68861 5.5175C6.69428 6.11119 6.69992 6.70529 6.68025 7.29862M6.73017 3.08583C6.73149 5.185 6.73146 7.28437 6.73137 9.38376C6.73127 12.5495 6.73116 15.7153 6.73584 18.8806M6.09263 12.9546C6.27705 12.7227 6.46154 12.4908 6.67909 12.2891M6.09263 12.9546L6.13885 17.0543M5.39212 17.9144C5.66796 17.6512 5.90338 17.3528 6.13885 17.0543M5.39212 17.9144C5.36108 18.5768 5.35773 19.2945 5.77934 19.8493C6.11441 20.2232 6.55485 20.5018 7.05302 20.5949M16.0655 13.6838C16.0626 13.4758 16.0601 13.2678 16.0579 13.0597M16.0655 13.6838C16.0389 15.0415 16.0478 16.4004 16.0566 17.758L16.0567 17.759C16.0544 18.0974 16.0434 18.4381 15.9901 18.773M7.05302 20.5949C7.31487 20.1778 7.56787 19.755 7.79198 19.3169M15.9901 18.773C15.9291 19.1304 15.5496 19.3356 15.2079 19.3112C14.6117 19.3129 14.0151 19.3126 13.4186 19.3122H13.4172C12.9119 19.3117 12.4066 19.3114 11.9016 19.3124C11.7034 19.3122 11.5052 19.312 11.307 19.3117C10.1352 19.3105 8.96399 19.3091 7.79198 19.3169M16.0689 3.68051C16.0366 5.35031 16.0432 7.02011 16.0654 8.68993M6.68025 7.29862L6.68012 7.29874C6.69452 8.96185 6.69796 10.6249 6.67909 12.2891M6.68025 7.29862C6.69467 8.96179 6.69796 10.6249 6.67909 12.2891M6.73584 18.8806C6.9078 19.3002 7.40254 19.3368 7.79198 19.3169M6.73584 18.8806C6.67661 18.3576 6.68144 17.8317 6.6863 17.3056C6.68909 17.0039 6.69186 16.7022 6.68257 16.401M6.67909 12.2891C6.69574 13.6594 6.69476 15.0296 6.68257 16.401M6.13885 17.0543C6.31442 16.8316 6.49016 16.6091 6.68257 16.401M11.8517 19.4073C11.8417 19.4265 11.8317 19.4456 11.8217 19.4647M10.0909 16.8155C9.73365 16.7789 9.38971 17.0828 9.38859 17.4434C9.36307 17.7808 9.63601 18.0802 9.96221 18.1292C10.902 18.1003 11.8417 18.1036 12.7814 18.127C13.0211 18.0682 13.2442 17.8929 13.2952 17.6421C13.4239 17.2382 13.0688 16.7845 12.645 16.8155C11.8922 16.8105 11.1394 16.8125 10.3859 16.8148H10.3856L10.0909 16.8155Z" stroke="url(#paint7_linear_451_1865)" stroke-width="0.6"/>
<defs>
<linearGradient id="paint0_linear_451_1865" x1="17.1845" y1="1.87229" x2="8.72857" y2="6.65069" gradientUnits="userSpaceOnUse">
<stop stop-color="#FE0F7C"/>
<stop offset="1" stop-color="#DF0066"/>
</linearGradient>
<linearGradient id="paint1_linear_451_1865" x1="13.8567" y1="1.73303" x2="7.88566" y2="12.3869" gradientUnits="userSpaceOnUse">
<stop stop-color="#FE0F7C"/>
<stop offset="1" stop-color="#DF0066"/>
</linearGradient>
<linearGradient id="paint2_linear_451_1865" x1="6.73354" y1="3.5374" x2="6.57186" y2="3.53886" gradientUnits="userSpaceOnUse">
<stop stop-color="#FE0F7C"/>
<stop offset="1" stop-color="#DF0066"/>
</linearGradient>
<linearGradient id="paint3_linear_451_1865" x1="17.391" y1="3.74768" x2="17.1424" y2="3.75124" gradientUnits="userSpaceOnUse">
<stop stop-color="#FE0F7C"/>
<stop offset="1" stop-color="#DF0066"/>
</linearGradient>
<linearGradient id="paint4_linear_451_1865" x1="16.915" y1="12.5136" x2="14.4657" y2="21.3067" gradientUnits="userSpaceOnUse">
<stop stop-color="#FE0F7C"/>
<stop offset="1" stop-color="#DF0066"/>
</linearGradient>
<linearGradient id="paint5_linear_451_1865" x1="6.6706" y1="12.4253" x2="5.11843" y2="12.9152" gradientUnits="userSpaceOnUse">
<stop stop-color="#FE0F7C"/>
<stop offset="1" stop-color="#DF0066"/>
</linearGradient>
<linearGradient id="paint6_linear_451_1865" x1="13.1888" y1="16.8501" x2="12.9931" y2="18.3182" gradientUnits="userSpaceOnUse">
<stop stop-color="#FE0F7C"/>
<stop offset="1" stop-color="#DF0066"/>
</linearGradient>
<linearGradient id="paint7_linear_451_1865" x1="16.9874" y1="1.92522" x2="7.08186" y2="17.4475" gradientUnits="userSpaceOnUse">
<stop stop-color="#FE0F7C"/>
<stop offset="1" stop-color="#DF0066"/>
</linearGradient>
</defs>
</svg>
