<svg width="23" height="22" viewBox="0 0 23 22" fill="none" xmlns="http://www.w3.org/2000/svg">
<path d="M14.5402 1.38604C14.7164 1.39163 14.8959 1.38672 15.0764 1.3818C15.612 1.36716 16.1551 1.35233 16.6373 1.61126C16.9889 1.78172 17.238 2.08895 17.4787 2.38576L17.5038 2.41677L17.4639 2.46225C17.6213 2.71631 17.7001 3.01036 17.7045 3.3088C17.7002 4.01263 17.7002 4.7168 17.7002 5.42111C17.7002 6.01246 17.7002 6.60392 17.6977 7.19539C17.698 7.62398 17.6988 8.05264 17.6996 8.48121V8.48158C17.7018 9.74598 17.7042 11.0104 17.6934 12.2748C17.4305 12.4983 17.2199 12.7677 17.0092 13.0372C16.8339 13.2614 16.6585 13.4858 16.4529 13.6838C16.4263 15.0415 16.4352 16.4004 16.444 17.758L16.4441 17.759C16.4418 18.0974 16.4307 18.4381 16.3775 18.773C16.3717 16.2667 16.3735 13.7603 16.3754 11.2539C16.3774 8.57228 16.3794 5.89064 16.3719 3.20897C16.4074 3.3643 16.4351 3.52184 16.4563 3.68051L16.4564 3.68038C16.4353 3.52174 16.4074 3.36426 16.3719 3.20897C16.3142 2.99484 16.1458 2.82172 15.9438 2.73742C15.4559 2.65913 14.9623 2.66571 14.469 2.67228C14.2421 2.67529 14.0152 2.67831 13.7891 2.67307C14.072 2.26366 14.3317 1.83872 14.5402 1.38604Z" fill="url(#paint0_linear_451_1879)"/>
<path d="M7.7115 1.38403C6.68742 1.39512 5.761 2.30049 5.77763 3.33343L5.77691 3.71447C5.77375 5.37925 5.77057 7.04409 5.77985 8.70885C5.77318 10.3787 5.76875 12.0486 5.78205 13.7184C6.04978 13.4961 6.26504 13.2255 6.48038 12.9548C6.6648 12.7229 6.84927 12.491 7.06682 12.2893C7.08569 10.6251 7.08227 8.96204 7.06786 7.29893C7.08754 6.70558 7.08201 6.11154 7.07636 5.51785V5.51768C7.06862 4.70598 7.06089 3.89465 7.11791 3.08601C7.1268 3.07706 7.13569 3.06807 7.14455 3.05906L7.14493 3.05868L7.1451 3.05853C7.27284 2.92921 7.40419 2.79621 7.57615 2.73097C8.17005 2.65727 8.76855 2.66571 9.36721 2.67415C9.69683 2.67879 10.0265 2.68345 10.3555 2.67437L10.8365 2.67487C11.8203 2.67595 12.8049 2.67707 13.7894 2.67324C14.0724 2.26385 14.332 1.8389 14.5406 1.38622C13.3888 1.37734 12.2382 1.38068 11.0877 1.38511C9.96157 1.37957 8.83653 1.37848 7.7115 1.38403Z" fill="url(#paint1_linear_451_1879)"/>
<path d="M7.07593 5.51761C7.06821 4.70591 7.06048 3.89458 7.1175 3.08594C7.11883 5.18512 7.11878 7.28447 7.11869 9.38385C7.11859 12.5496 7.11848 15.7154 7.12316 18.8807C7.06393 18.3577 7.06878 17.8318 7.07362 17.3057C7.07641 17.004 7.07919 16.7024 7.06989 16.4011C7.08208 15.0297 7.08306 13.6595 7.06641 12.2892C7.08528 10.625 7.08199 8.96188 7.06757 7.29873C7.08725 6.70538 7.0816 6.1113 7.07593 5.51761Z" fill="url(#paint2_linear_451_1879)"/>
<path d="M17.7054 3.30859C17.792 3.75048 17.7844 4.20038 17.7767 4.64877C17.7754 4.7284 17.774 4.80796 17.7732 4.88742C17.7743 8.95488 17.7743 13.0234 17.7732 17.0921C17.774 17.1741 17.7754 17.2564 17.777 17.3386V17.3389C17.7849 17.7846 17.7928 18.2316 17.7066 18.671C17.6997 17.655 17.7006 16.6392 17.7016 15.6235C17.7027 14.5073 17.7037 13.3911 17.6943 12.2746C17.7051 11.0102 17.7027 9.74578 17.7005 8.48138V8.481C17.6997 8.05243 17.6989 7.62377 17.6986 7.19519C17.7011 6.60371 17.7011 6.01226 17.7011 5.4209C17.7011 4.71659 17.7011 4.01242 17.7054 3.30859Z" fill="url(#paint3_linear_451_1879)"/>
<path fill-rule="evenodd" clip-rule="evenodd" d="M6.48033 12.9547C6.265 13.2254 6.04973 13.496 5.782 13.7183C5.77091 15.1163 5.77206 16.5154 5.77982 17.9146C5.74877 18.577 5.74542 19.2947 6.16703 19.8495C6.5021 20.2233 6.94255 20.502 7.44071 20.5951C9.09363 20.6281 10.7478 20.6242 12.4022 20.6204H12.4024C13.4664 20.618 14.5305 20.6154 15.5945 20.6228C16.2113 20.6539 16.8028 20.3787 17.2321 19.9449C17.5183 19.5841 17.7071 19.1361 17.706 18.6713C17.6991 17.6554 17.7 16.6395 17.701 15.6239C17.7021 14.5076 17.703 13.3914 17.6937 12.2749C17.4308 12.4984 17.2202 12.7678 17.0095 13.0374C16.8342 13.2616 16.6588 13.4859 16.4532 13.684C16.4266 15.0416 16.4355 16.4005 16.4443 17.7581L16.4444 17.7592C16.4421 18.0976 16.431 18.4383 16.3778 18.7732C16.3168 19.1306 15.9373 19.3358 15.5956 19.3114C14.9994 19.3131 14.4028 19.3128 13.8063 19.3124H13.8049C13.2996 19.3119 12.7943 19.3116 12.2893 19.3126C12.0911 19.3124 11.8929 19.3122 11.6947 19.3119C10.5229 19.3107 9.35169 19.3093 8.17967 19.3171C7.79024 19.337 7.29549 19.3004 7.12353 18.8808C7.06431 18.3578 7.06914 17.8319 7.074 17.3058C7.07678 17.0041 7.07955 16.7024 7.07027 16.4012C6.87786 16.6092 6.70211 16.8318 6.52654 17.0544" fill="url(#paint4_linear_451_1879)"/>
<path d="M6.52571 17.0542C6.70128 16.8315 6.87702 16.609 7.06944 16.4009C7.08162 15.0295 7.0826 13.6593 7.06595 12.2891C6.8484 12.4907 6.66391 12.7227 6.47949 12.9545" fill="url(#paint5_linear_451_1879)"/>
<path d="M9.77607 17.4436C9.77721 17.0829 10.1211 16.779 10.4784 16.8156L10.7731 16.8149H10.7734C11.5269 16.8126 12.2797 16.8106 13.0325 16.8156C13.4563 16.7845 13.8114 17.2383 13.6826 17.6422C13.6317 17.893 13.4086 18.0683 13.1689 18.1271C12.2292 18.1037 11.2894 18.1005 10.3497 18.1293C10.0235 18.0803 9.75055 17.7809 9.77607 17.4436Z" fill="url(#paint6_linear_451_1879)"/>
<path d="M14.5405 1.38604C14.7167 1.39163 14.8962 1.38672 15.0767 1.3818C15.6123 1.36716 16.1554 1.35233 16.6376 1.61126C16.9892 1.78172 17.2383 2.08895 17.479 2.38576L17.5041 2.41677L17.4642 2.46225C17.6216 2.71631 17.7004 3.01036 17.7048 3.3088M14.5405 1.38604C14.332 1.83872 14.0723 2.26366 13.7894 2.67307M14.5405 1.38604C13.3888 1.37716 12.2382 1.3805 11.0877 1.38493C9.96153 1.37939 8.83647 1.3783 7.71147 1.38385C6.68738 1.39495 5.76094 2.30031 5.7776 3.33324L5.77688 3.7143C5.7737 5.37907 5.77053 7.04392 5.7798 8.70868C5.77315 10.3785 5.7687 12.0484 5.782 13.7182M17.7048 3.3088C17.7005 4.01263 17.7005 4.7168 17.7005 5.42111C17.7005 6.01246 17.7005 6.60392 17.698 7.19539C17.6983 7.62398 17.6991 8.05264 17.6999 8.48121V8.48158C17.7021 9.74598 17.7045 11.0104 17.6937 12.2748M17.7048 3.3088C17.7914 3.75069 17.7838 4.20059 17.7761 4.64898C17.7748 4.72859 17.7734 4.80817 17.7726 4.88763C17.7737 8.95508 17.7737 13.0236 17.7726 17.0923C17.7734 17.1743 17.7748 17.2566 17.7764 17.3387V17.3391C17.7843 17.7848 17.7922 18.2318 17.706 18.6711M13.7894 2.67307C14.0155 2.67831 14.2424 2.67529 14.4693 2.67228C14.9626 2.66571 15.4562 2.65913 15.9441 2.73742C16.1461 2.82172 16.3145 2.99484 16.3722 3.20897M13.7894 2.67307C12.8049 2.67688 11.8203 2.67578 10.8365 2.67468L10.3554 2.6742C10.0265 2.68328 9.69678 2.67862 9.36716 2.67396C8.7685 2.66552 8.17001 2.6571 7.57612 2.7308C7.40414 2.79604 7.27279 2.92902 7.14505 3.05834L7.1449 3.0585L7.14452 3.05888C7.13563 3.0679 7.12675 3.07687 7.11786 3.08583M5.782 13.7182C6.04973 13.4959 6.265 13.2253 6.48033 12.9546M5.782 13.7182C5.77091 15.1162 5.77206 16.5153 5.77982 17.9144M17.6937 12.2748C17.4308 12.4983 17.2202 12.7677 17.0095 13.0372C16.8342 13.2614 16.6588 13.4858 16.4532 13.6838M17.6937 12.2748C17.703 13.3913 17.7021 14.5075 17.701 15.6237C17.7 16.6394 17.6991 17.6552 17.706 18.6711M17.706 18.6711C17.7071 19.1359 17.5183 19.5841 17.2321 19.9447C16.8028 20.3785 16.2113 20.6537 15.5945 20.6226C14.5305 20.6152 13.4664 20.6178 12.4024 20.6202H12.4022C10.7478 20.624 9.09363 20.6279 7.44071 20.5949M16.3722 3.20897C16.3797 5.89064 16.3777 8.57228 16.3757 11.2539C16.3738 13.7603 16.372 16.2667 16.3778 18.773M16.3722 3.20897C16.4077 3.3643 16.4354 3.52184 16.4566 3.68051M16.3722 3.20897C16.4077 3.36426 16.4356 3.52174 16.4567 3.68038L16.4566 3.68051M7.11786 3.08583C7.06085 3.89448 7.06857 4.7058 7.0763 5.5175C7.08197 6.11119 7.08761 6.70529 7.06795 7.29862M7.11786 3.08583C7.11919 5.185 7.11915 7.28437 7.11907 9.38376C7.11896 12.5495 7.11886 15.7153 7.12353 18.8806M6.48033 12.9546C6.66475 12.7227 6.84924 12.4908 7.06678 12.2891M6.48033 12.9546L6.52654 17.0543M5.77982 17.9144C6.05566 17.6512 6.29107 17.3528 6.52654 17.0543M5.77982 17.9144C5.74877 18.5768 5.74542 19.2945 6.16703 19.8493C6.5021 20.2232 6.94255 20.5018 7.44071 20.5949M16.4532 13.6838C16.4503 13.4758 16.4478 13.2678 16.4456 13.0597M16.4532 13.6838C16.4266 15.0415 16.4355 16.4004 16.4443 17.758L16.4444 17.759C16.4421 18.0974 16.431 18.4381 16.3778 18.773M7.44071 20.5949C7.70256 20.1778 7.95556 19.755 8.17967 19.3169M16.3778 18.773C16.3168 19.1304 15.9373 19.3356 15.5956 19.3112C14.9994 19.3129 14.4028 19.3126 13.8063 19.3122H13.8049C13.2996 19.3117 12.7943 19.3114 12.2893 19.3124C12.0911 19.3122 11.8929 19.312 11.6947 19.3117C10.5229 19.3105 9.35169 19.3091 8.17967 19.3169M16.4566 3.68051C16.4243 5.35031 16.4309 7.02011 16.4531 8.68993M7.06795 7.29862L7.06781 7.29874C7.08222 8.96185 7.08565 10.6249 7.06678 12.2891M7.06795 7.29862C7.08237 8.96179 7.08565 10.6249 7.06678 12.2891M7.12353 18.8806C7.29549 19.3002 7.79024 19.3368 8.17967 19.3169M7.12353 18.8806C7.06431 18.3576 7.06914 17.8317 7.074 17.3056C7.07678 17.0039 7.07955 16.7022 7.07027 16.401M7.06678 12.2891C7.08344 13.6594 7.08246 15.0296 7.07027 16.401M6.52654 17.0543C6.70211 16.8316 6.87786 16.6091 7.07027 16.401M12.2394 19.4073C12.2294 19.4265 12.2194 19.4456 12.2094 19.4647M10.4786 16.8155C10.1213 16.7789 9.7774 17.0828 9.77629 17.4434C9.75076 17.7808 10.0237 18.0802 10.3499 18.1292C11.2896 18.1003 12.2294 18.1036 13.1691 18.127C13.4088 18.0682 13.6319 17.8929 13.6829 17.6421C13.8116 17.2382 13.4565 16.7845 13.0327 16.8155C12.2799 16.8105 11.5271 16.8125 10.7736 16.8148H10.7733L10.4786 16.8155Z" stroke="url(#paint7_linear_451_1879)" stroke-width="0.6"/>
<defs>
<linearGradient id="paint0_linear_451_1879" x1="17.5722" y1="1.87229" x2="9.11626" y2="6.65069" gradientUnits="userSpaceOnUse">
<stop stop-color="#FE0F7C"/>
<stop offset="1" stop-color="#DF0066"/>
</linearGradient>
<linearGradient id="paint1_linear_451_1879" x1="14.2444" y1="1.73303" x2="8.27336" y2="12.3869" gradientUnits="userSpaceOnUse">
<stop stop-color="#FE0F7C"/>
<stop offset="1" stop-color="#DF0066"/>
</linearGradient>
<linearGradient id="paint2_linear_451_1879" x1="7.12123" y1="3.5374" x2="6.95955" y2="3.53886" gradientUnits="userSpaceOnUse">
<stop stop-color="#FE0F7C"/>
<stop offset="1" stop-color="#DF0066"/>
</linearGradient>
<linearGradient id="paint3_linear_451_1879" x1="17.7787" y1="3.74768" x2="17.5301" y2="3.75124" gradientUnits="userSpaceOnUse">
<stop stop-color="#FE0F7C"/>
<stop offset="1" stop-color="#DF0066"/>
</linearGradient>
<linearGradient id="paint4_linear_451_1879" x1="17.3027" y1="12.5136" x2="14.8534" y2="21.3067" gradientUnits="userSpaceOnUse">
<stop stop-color="#FE0F7C"/>
<stop offset="1" stop-color="#DF0066"/>
</linearGradient>
<linearGradient id="paint5_linear_451_1879" x1="7.0583" y1="12.4253" x2="5.50613" y2="12.9152" gradientUnits="userSpaceOnUse">
<stop stop-color="#FE0F7C"/>
<stop offset="1" stop-color="#DF0066"/>
</linearGradient>
<linearGradient id="paint6_linear_451_1879" x1="13.5765" y1="16.8501" x2="13.3808" y2="18.3182" gradientUnits="userSpaceOnUse">
<stop stop-color="#FE0F7C"/>
<stop offset="1" stop-color="#DF0066"/>
</linearGradient>
<linearGradient id="paint7_linear_451_1879" x1="17.3751" y1="1.92522" x2="7.46955" y2="17.4475" gradientUnits="userSpaceOnUse">
<stop stop-color="#FE0F7C"/>
<stop offset="1" stop-color="#DF0066"/>
</linearGradient>
</defs>
</svg>
