<svg width="23" height="22" viewBox="0 0 23 22" fill="none" xmlns="http://www.w3.org/2000/svg">
<path fill-rule="evenodd" clip-rule="evenodd" d="M15.27 1.3818C15.0895 1.38672 14.91 1.39163 14.7338 1.38604C14.5253 1.83872 14.2656 2.26366 13.9827 2.67307C14.2083 2.67829 14.4347 2.6753 14.6611 2.67229L14.6628 2.67228C15.156 2.66571 15.6496 2.65915 16.1374 2.73742C16.3394 2.82172 16.5078 2.99484 16.5655 3.20897C16.573 5.89045 16.571 8.5719 16.569 11.2534L16.569 11.2698C16.5671 13.7709 16.5653 16.272 16.5711 18.773C16.5101 19.1304 16.1306 19.3356 15.789 19.3112C15.1931 19.3129 14.5969 19.3126 14.0008 19.3122H13.9982C13.493 19.3117 12.9877 19.3114 12.4826 19.3124C12.2844 19.3122 12.0862 19.312 11.888 19.3117L11.8232 19.3115H11.8226C10.6726 19.3105 9.52322 19.3093 8.37303 19.3169C7.9836 19.3368 7.48885 19.3002 7.31689 18.8806L7.31682 18.88C7.31215 15.7149 7.31225 12.5493 7.31236 9.38377C7.31244 7.28439 7.31249 5.18504 7.31117 3.08586C7.25416 3.89424 7.26188 4.70532 7.26958 5.51676L7.26959 5.51753C7.27527 6.11122 7.28092 6.70531 7.26124 7.29865C7.27566 8.9618 7.27894 10.6249 7.26007 12.2892C7.27673 13.6594 7.27575 15.0297 7.26356 16.4011C7.07118 16.6091 6.89546 16.8316 6.7199 17.0542V17.0538C6.89534 16.8313 7.07096 16.6089 7.26322 16.401C7.2754 15.0296 7.27638 13.6594 7.25973 12.2892C7.2786 10.625 7.2752 8.96187 7.26079 7.29876C7.28047 6.70541 7.27494 6.11138 7.26928 5.51769V5.51751C7.26155 4.70587 7.25382 3.89443 7.31084 3.08584C7.31973 3.07689 7.32862 3.0679 7.33748 3.05889L7.33786 3.05852L7.33803 3.05836C7.46574 2.92908 7.59715 2.79603 7.76908 2.7308C8.36296 2.6571 8.96144 2.66554 9.56009 2.67398L9.56132 2.674C9.89055 2.67864 10.2198 2.68326 10.5484 2.6742L11.0491 2.67472C12.0264 2.6758 13.0045 2.67687 13.9823 2.67307C14.2653 2.26368 14.5249 1.83874 14.7335 1.38605C13.5818 1.37717 12.4312 1.38051 11.2806 1.38494C10.1545 1.3794 9.02946 1.37831 7.90443 1.38386C6.88035 1.39496 5.95392 2.30032 5.97056 3.33326L5.96982 3.72118C5.96666 5.38367 5.96352 7.04622 5.97278 8.70868C5.96611 10.3785 5.96168 12.0484 5.97498 13.7182C6.24266 13.496 6.45788 13.2254 6.67317 12.9548L6.67329 12.955C6.45809 13.2256 6.24292 13.496 5.97536 13.7182C5.96427 15.1161 5.96542 16.5152 5.97317 17.9144C5.94213 18.5768 5.93878 19.2945 6.36039 19.8493C6.69546 20.2232 7.13591 20.5018 7.63407 20.5949C9.27938 20.6277 10.9259 20.624 12.5727 20.6202H12.5955H12.5958L12.6497 20.62H12.6501C13.696 20.6176 14.742 20.6154 15.7878 20.6226C16.4047 20.6537 16.9961 20.3785 17.4255 19.9447C17.7116 19.584 17.9005 19.1359 17.8994 18.6711C17.8924 17.6552 17.8934 16.6394 17.8943 15.6237C17.8955 14.5075 17.8964 13.3912 17.8871 12.2747C17.8977 11.0234 17.8955 9.77207 17.8933 8.52074L17.8932 8.48158V8.48121C17.8924 8.05264 17.8916 7.62398 17.8913 7.19539C17.8938 6.60423 17.8938 6.01308 17.8938 5.42202V5.42111C17.8938 4.7168 17.8938 4.01263 17.8981 3.3088C17.8937 3.01036 17.8149 2.71631 17.6575 2.46225L17.6974 2.41677L17.672 2.38537C17.4313 2.08868 17.1823 1.78166 16.8309 1.61126C16.3487 1.35233 15.8056 1.36716 15.27 1.3818ZM17.2026 13.0375C17.1533 13.1006 17.104 13.1636 17.054 13.2261C17.1035 13.1642 17.1523 13.1019 17.201 13.0395L17.2026 13.0375L17.2028 13.0372L17.2029 13.0371C17.2597 12.9644 17.3164 12.8918 17.3742 12.8201C17.3168 12.8914 17.2604 12.9636 17.2039 13.0358L17.2029 13.0371L17.2026 13.0375ZM16.6499 3.68051C16.63 3.53114 16.6043 3.38276 16.5717 3.2363C16.6043 3.38272 16.6301 3.53103 16.65 3.68038L16.6499 3.68051Z" fill="url(#paint0_linear_451_1888)"/>
<path d="M17.9701 4.64877C17.9778 4.20038 17.9854 3.75048 17.8987 3.30859C17.8945 4.01242 17.8945 4.71659 17.8945 5.4209C17.8945 6.01226 17.8945 6.60371 17.892 7.19519C17.8923 7.62377 17.8931 8.05243 17.8938 8.481V8.48138L17.8939 8.5256C17.8961 9.77525 17.8983 11.0249 17.8877 12.2746C17.897 13.3911 17.8961 14.5073 17.895 15.6235C17.894 16.6392 17.8931 17.655 17.9 18.671C17.9862 18.2316 17.9783 17.7846 17.9704 17.3389V17.3386C17.9688 17.2564 17.9674 17.1741 17.9666 17.0921C17.9677 13.0234 17.9677 8.95488 17.9666 4.88742C17.9672 4.82491 17.9682 4.76233 17.9692 4.6997L17.9701 4.64877Z" fill="url(#paint1_linear_451_1888)"/>
<path d="M9.96943 17.4436C9.97056 17.0829 10.3145 16.779 10.6717 16.8156L10.9664 16.8149H10.9667C11.7203 16.8126 12.473 16.8106 13.2258 16.8156C13.6497 16.7845 14.0047 17.2383 13.876 17.6422C13.825 17.893 13.6019 18.0683 13.3623 18.1271C12.4225 18.1037 11.4828 18.1005 10.5431 18.1293C10.2168 18.0803 9.94391 17.7809 9.96943 17.4436Z" fill="url(#paint2_linear_451_1888)"/>
<path d="M16.5711 18.773C16.5653 16.272 16.5671 13.7709 16.569 11.2698L16.569 11.2534C16.571 8.5719 16.573 5.89045 16.5655 3.20897C16.5078 2.99484 16.3394 2.82172 16.1374 2.73742C15.6496 2.65915 15.156 2.66571 14.6628 2.67228L14.6611 2.67229C14.4347 2.6753 14.2083 2.67829 13.9827 2.67307C14.2656 2.26366 14.5253 1.83872 14.7338 1.38604C14.91 1.39163 15.0895 1.38672 15.27 1.3818C15.8056 1.36716 16.3487 1.35233 16.8309 1.61126C17.1823 1.78166 17.4313 2.08868 17.672 2.38537L17.6974 2.41677L17.6575 2.46225C17.8149 2.71631 17.8937 3.01036 17.8981 3.3088C17.8938 4.01263 17.8938 4.7168 17.8938 5.42111V5.42202C17.8938 6.01308 17.8938 6.60423 17.8913 7.19539C17.8916 7.62398 17.8924 8.05264 17.8932 8.48121V8.48158L17.8933 8.52074C17.8955 9.77207 17.8977 11.0234 17.8871 12.2747C17.8964 13.3912 17.8955 14.5075 17.8943 15.6237C17.8934 16.6394 17.8924 17.6552 17.8994 18.6711C17.9005 19.1359 17.7116 19.584 17.4255 19.9447C16.9961 20.3785 16.4047 20.6537 15.7878 20.6226C14.742 20.6154 13.696 20.6176 12.6501 20.62H12.6497L12.5958 20.6202H12.5955H12.5727C10.9259 20.624 9.27938 20.6277 7.63407 20.5949C7.13591 20.5018 6.69546 20.2232 6.36039 19.8493C5.93878 19.2945 5.94213 18.5768 5.97317 17.9144C5.96542 16.5152 5.96427 15.1161 5.97536 13.7182C6.24292 13.496 6.45809 13.2256 6.67329 12.955L6.67317 12.9548C6.45788 13.2254 6.24266 13.496 5.97498 13.7182C5.96168 12.0484 5.96611 10.3785 5.97278 8.70868C5.96352 7.04622 5.96666 5.38367 5.96982 3.72118L5.97056 3.33326C5.95392 2.30032 6.88035 1.39496 7.90443 1.38386C9.02946 1.37831 10.1545 1.3794 11.2806 1.38494C12.4312 1.38051 13.5818 1.37717 14.7335 1.38605C14.5249 1.83874 14.2653 2.26368 13.9823 2.67307C13.0045 2.67687 12.0264 2.6758 11.0491 2.67472L10.5484 2.6742C10.2198 2.68326 9.89055 2.67864 9.56132 2.674L9.56009 2.67398C8.96144 2.66554 8.36296 2.6571 7.76908 2.7308C7.59715 2.79603 7.46574 2.92908 7.33803 3.05836L7.33786 3.05852L7.33748 3.05889C7.32862 3.0679 7.31973 3.07689 7.31084 3.08584C7.25382 3.89443 7.26155 4.70587 7.26928 5.51751V5.51769C7.27494 6.11138 7.28047 6.70541 7.26079 7.29876C7.2752 8.96187 7.2786 10.625 7.25973 12.2892C7.27638 13.6594 7.2754 15.0296 7.26322 16.401C7.07096 16.6089 6.89534 16.8313 6.7199 17.0538V17.0542C6.89546 16.8316 7.07118 16.6091 7.26356 16.4011C7.27575 15.0297 7.27673 13.6594 7.26007 12.2892C7.27894 10.6249 7.27566 8.9618 7.26124 7.29865C7.28092 6.70531 7.27527 6.11122 7.26959 5.51753L7.26958 5.51676C7.26188 4.70532 7.25416 3.89424 7.31117 3.08586C7.31249 5.18504 7.31244 7.28439 7.31236 9.38377C7.31225 12.5493 7.31215 15.7149 7.31682 18.88L7.31689 18.8806C7.48885 19.3002 7.9836 19.3368 8.37303 19.3169C9.52322 19.3093 10.6726 19.3105 11.8226 19.3115H11.8232L11.888 19.3117C12.0862 19.312 12.2844 19.3122 12.4826 19.3124C12.9877 19.3114 13.493 19.3117 13.9982 19.3122H14.0008C14.5969 19.3126 15.1931 19.3129 15.789 19.3112C16.1306 19.3356 16.5101 19.1304 16.5711 18.773ZM16.5711 18.773C16.6244 18.4381 16.6354 18.0974 16.6377 17.759L16.6376 17.758L16.6376 17.7569C16.6288 16.3997 16.6199 15.0411 16.6465 13.6838M17.2026 13.0375C17.1533 13.1006 17.104 13.1636 17.054 13.2261C17.1035 13.1642 17.1523 13.1019 17.201 13.0395L17.2026 13.0375ZM17.2026 13.0375L17.2028 13.0372L17.2029 13.0371M17.2026 13.0375L17.2029 13.0371M17.2029 13.0371C17.2597 12.9644 17.3164 12.8918 17.3742 12.8201C17.3168 12.8914 17.2604 12.9636 17.2039 13.0358L17.2029 13.0371ZM16.5717 3.2363C16.6043 3.38276 16.63 3.53114 16.6499 3.68051L16.65 3.68038C16.6301 3.53103 16.6043 3.38272 16.5717 3.2363ZM17.8985 3.30877C17.9851 3.75066 17.9775 4.20056 17.9698 4.64894L17.969 4.69987C17.968 4.7625 17.967 4.82508 17.9663 4.88759C17.9675 8.95505 17.9675 13.0236 17.9663 17.0923C17.9671 17.1743 17.9686 17.2566 17.9701 17.3387V17.3391C17.978 17.7848 17.9859 18.2318 17.8998 18.6711C17.8928 17.6552 17.8938 16.6394 17.8947 15.6237C17.8958 14.5075 17.8968 13.3912 17.8874 12.2747C17.8981 11.0251 17.8959 9.77542 17.8937 8.52577L17.8936 8.48155V8.48117C17.8928 8.0526 17.892 7.62394 17.8917 7.19536C17.8942 6.60388 17.8942 6.01243 17.8942 5.42107C17.8942 4.71677 17.8942 4.01259 17.8985 3.30877ZM10.6717 16.8155C10.3145 16.7789 9.97056 17.0828 9.96942 17.4434C9.9439 17.7808 10.2168 18.0802 10.5431 18.1292C11.4828 18.1003 12.4225 18.1036 13.3623 18.127C13.6019 18.0682 13.825 17.8929 13.876 17.6421C14.0047 17.2382 13.6496 16.7844 13.2258 16.8155C12.473 16.8105 11.7203 16.8125 10.9667 16.8147H10.9664L10.6717 16.8155Z" stroke="url(#paint3_linear_451_1888)" stroke-width="0.6"/>
<defs>
<linearGradient id="paint0_linear_451_1888" x1="11.9678" y1="20.625" x2="11.9678" y2="1.375" gradientUnits="userSpaceOnUse">
<stop stop-color="#02AA93"/>
<stop offset="1" stop-color="#67FF80"/>
</linearGradient>
<linearGradient id="paint1_linear_451_1888" x1="11.9681" y1="20.6248" x2="11.9681" y2="1.37483" gradientUnits="userSpaceOnUse">
<stop stop-color="#02AA93"/>
<stop offset="1" stop-color="#67FF80"/>
</linearGradient>
<linearGradient id="paint2_linear_451_1888" x1="11.9678" y1="20.6251" x2="11.9678" y2="1.37514" gradientUnits="userSpaceOnUse">
<stop stop-color="#02AA93"/>
<stop offset="1" stop-color="#67FF80"/>
</linearGradient>
<linearGradient id="paint3_linear_451_1888" x1="11.9678" y1="20.625" x2="11.9678" y2="1.375" gradientUnits="userSpaceOnUse">
<stop stop-color="#02AA93"/>
<stop offset="1" stop-color="#67FF80"/>
</linearGradient>
</defs>
</svg>
