<svg width="23" height="22" viewBox="0 0 23 22" fill="none" xmlns="http://www.w3.org/2000/svg">
<g clip-path="url(#clip0_451_1893)">
<path d="M21.5254 3.91016H4.03711V0.644531C4.03711 0.288528 3.74858 0 3.39258 0H0.814453C0.45845 0 0.169922 0.288528 0.169922 0.644531C0.169922 1.00054 0.45845 1.28906 0.814453 1.28906H2.74805V21.3555C2.74805 21.7115 3.03657 22 3.39258 22C3.74858 22 4.03711 21.7115 4.03711 21.3555V18.0898H6.01367C6.18469 18.0898 6.34853 18.0219 6.46936 17.901L7.56978 16.8008H9.61381L10.7142 17.901C10.8351 18.0219 10.9989 18.0898 11.1699 18.0898H21.5254C21.8814 18.0898 22.1699 17.8013 22.1699 17.4453V4.55469C22.1699 4.19868 21.8814 3.91016 21.5254 3.91016ZM4.03711 9.06641H5.36914V12.9336H4.03711V9.06641ZM20.8809 16.8008H11.437L10.3365 15.7006C10.2157 15.5797 10.0519 15.5117 9.88086 15.5117H7.30273C7.13172 15.5117 6.96788 15.5797 6.84705 15.7006L5.74662 16.8008H4.03711V14.2227H6.01367C6.36967 14.2227 6.6582 13.9341 6.6582 13.5781V8.42188C6.6582 8.06588 6.36967 7.77734 6.01367 7.77734H4.03711V5.19922H20.8809V16.8008Z" fill="url(#paint0_linear_451_1893)"/>
<path d="M8.5918 12.9336H10.9029L13.2924 15.3229C13.477 15.5075 13.7543 15.5623 13.9946 15.4627C14.2355 15.3628 14.3926 15.1279 14.3926 14.8672V7.13283C14.3926 6.87218 14.2357 6.63718 13.9946 6.53732C13.7539 6.43759 13.4767 6.49281 13.2924 6.6771L10.9029 9.06642H8.5918C8.2358 9.06642 7.94727 9.35496 7.94727 9.71095V12.2891C7.94727 12.6451 8.2358 12.9336 8.5918 12.9336ZM13.1035 13.3111L11.8145 12.022V9.978L13.1035 8.68894V13.3111ZM9.23633 10.3555H10.5254V11.6445H9.23633V10.3555Z" fill="url(#paint1_linear_451_1893)"/>
<path d="M16.3262 12.9336C16.6822 12.9336 16.9707 12.6451 16.9707 12.2891V9.71094C16.9707 9.35494 16.6822 9.06641 16.3262 9.06641C15.9702 9.06641 15.6816 9.35494 15.6816 9.71094V12.2891C15.6816 12.6451 15.9702 12.9336 16.3262 12.9336Z" fill="url(#paint2_linear_451_1893)"/>
<path d="M18.9043 14.2227C19.2603 14.2227 19.5488 13.9341 19.5488 13.5781V8.42188C19.5488 8.06588 19.2603 7.77734 18.9043 7.77734C18.5483 7.77734 18.2598 8.06588 18.2598 8.42188V13.5781C18.2598 13.9341 18.5483 14.2227 18.9043 14.2227Z" fill="url(#paint3_linear_451_1893)"/>
</g>
<defs>
<linearGradient id="paint0_linear_451_1893" x1="11.1699" y1="22" x2="11.1699" y2="-1.3113e-06" gradientUnits="userSpaceOnUse">
<stop stop-color="#02AA93"/>
<stop offset="1" stop-color="#67FF80"/>
</linearGradient>
<linearGradient id="paint1_linear_451_1893" x1="11.1699" y1="15.5117" x2="11.1699" y2="6.48828" gradientUnits="userSpaceOnUse">
<stop stop-color="#02AA93"/>
<stop offset="1" stop-color="#67FF80"/>
</linearGradient>
<linearGradient id="paint2_linear_451_1893" x1="16.3262" y1="12.9336" x2="16.3262" y2="9.06641" gradientUnits="userSpaceOnUse">
<stop stop-color="#02AA93"/>
<stop offset="1" stop-color="#67FF80"/>
</linearGradient>
<linearGradient id="paint3_linear_451_1893" x1="18.9043" y1="14.2227" x2="18.9043" y2="7.77734" gradientUnits="userSpaceOnUse">
<stop stop-color="#02AA93"/>
<stop offset="1" stop-color="#67FF80"/>
</linearGradient>
<clipPath id="clip0_451_1893">
<rect width="22" height="22" fill="white" transform="translate(0.169922)"/>
</clipPath>
</defs>
</svg>
