<svg width="23" height="22" viewBox="0 0 23 22" fill="none" xmlns="http://www.w3.org/2000/svg">
<path d="M14.1203 1.38604C14.2964 1.39163 14.476 1.38672 14.6564 1.3818C15.1921 1.36716 15.7352 1.35233 16.2174 1.61126C16.569 1.78172 16.818 2.08895 17.0588 2.38576L17.0838 2.41677L17.0439 2.46225C17.2014 2.71631 17.2801 3.01036 17.2846 3.3088C17.2803 4.01263 17.2803 4.7168 17.2803 5.42111C17.2803 6.01246 17.2803 6.60392 17.2778 7.19539C17.2781 7.62398 17.2789 8.05264 17.2797 8.48121V8.48158C17.2819 9.74598 17.2842 11.0104 17.2735 12.2748C17.0106 12.4983 16.8 12.7677 16.5893 13.0372C16.414 13.2614 16.2386 13.4858 16.033 13.6838C16.0064 15.0415 16.0153 16.4004 16.0241 17.758L16.0241 17.759C16.0219 18.0974 16.0108 18.4381 15.9576 18.773C15.9517 16.2667 15.9536 13.7603 15.9555 11.2539C15.9575 8.57228 15.9595 5.89064 15.952 3.20897C15.9875 3.3643 16.0152 3.52184 16.0364 3.68051L16.0365 3.68038C16.0153 3.52174 15.9875 3.36426 15.952 3.20897C15.8943 2.99484 15.7259 2.82172 15.5238 2.73742C15.036 2.65913 14.5424 2.66571 14.0491 2.67228C13.8222 2.67529 13.5953 2.67831 13.3691 2.67307C13.6521 2.26366 13.9117 1.83872 14.1203 1.38604Z" fill="url(#paint0_linear_451_1898)"/>
<path d="M7.29158 1.38403C6.2675 1.39512 5.34107 2.30049 5.35771 3.33343L5.35699 3.71447C5.35383 5.37925 5.35065 7.04409 5.35993 8.70885C5.35326 10.3787 5.34883 12.0486 5.36213 13.7184C5.62986 13.4961 5.84511 13.2255 6.06046 12.9548C6.24488 12.7229 6.42935 12.491 6.64689 12.2893C6.66577 10.6251 6.66235 8.96204 6.64794 7.29893C6.66762 6.70558 6.66209 6.11154 6.65643 5.51785V5.51768C6.6487 4.70598 6.64096 3.89465 6.69799 3.08601C6.70688 3.07706 6.71576 3.06807 6.72463 3.05906L6.72501 3.05868L6.72518 3.05853C6.85292 2.92921 6.98427 2.79621 7.15623 2.73097C7.75012 2.65727 8.34863 2.66571 8.94729 2.67415C9.27691 2.67879 9.60656 2.68345 9.93553 2.67437L10.4166 2.67487C11.4004 2.67595 12.385 2.67707 13.3695 2.67324C13.6524 2.26385 13.9121 1.8389 14.1207 1.38622C12.9689 1.37734 11.8183 1.38068 10.6678 1.38511C9.54165 1.37957 8.4166 1.37848 7.29158 1.38403Z" fill="url(#paint1_linear_451_1898)"/>
<path d="M6.65601 5.51761C6.64829 4.70591 6.64055 3.89458 6.69758 3.08594C6.69891 5.18512 6.69885 7.28447 6.69877 9.38385C6.69867 12.5496 6.69856 15.7154 6.70324 18.8807C6.64401 18.3577 6.64886 17.8318 6.6537 17.3057C6.65649 17.004 6.65927 16.7024 6.64997 16.4011C6.66216 15.0297 6.66314 13.6595 6.64648 12.2892C6.66536 10.625 6.66207 8.96188 6.64765 7.29873C6.66733 6.70538 6.66168 6.1113 6.65601 5.51761Z" fill="url(#paint2_linear_451_1898)"/>
<path d="M17.2855 3.30859C17.3721 3.75048 17.3645 4.20038 17.3568 4.64877C17.3555 4.7284 17.3541 4.80796 17.3533 4.88742C17.3544 8.95488 17.3544 13.0234 17.3533 17.0921C17.3541 17.1741 17.3555 17.2564 17.3571 17.3386V17.3389C17.365 17.7846 17.3729 18.2316 17.2867 18.671C17.2798 17.655 17.2807 16.6392 17.2817 15.6235C17.2828 14.5073 17.2837 13.3911 17.2744 12.2746C17.2852 11.0102 17.2828 9.74578 17.2806 8.48138V8.481C17.2798 8.05243 17.279 7.62377 17.2787 7.19519C17.2812 6.60371 17.2812 6.01226 17.2812 5.4209C17.2812 4.71659 17.2812 4.01242 17.2855 3.30859Z" fill="url(#paint3_linear_451_1898)"/>
<path fill-rule="evenodd" clip-rule="evenodd" d="M6.0604 12.9547C5.84508 13.2254 5.62981 13.496 5.36208 13.7183C5.35099 15.1163 5.35214 16.5154 5.35989 17.9146C5.32885 18.577 5.3255 19.2947 5.74711 19.8495C6.08218 20.2233 6.52263 20.502 7.02079 20.5951C8.67371 20.6281 10.3279 20.6242 11.9823 20.6204H11.9825C13.0465 20.618 14.1106 20.6154 15.1745 20.6228C15.7914 20.6539 16.3829 20.3787 16.8122 19.9449C17.0984 19.5841 17.2872 19.1361 17.2861 18.6713C17.2792 17.6554 17.2801 16.6395 17.2811 15.6239C17.2822 14.5076 17.2831 13.3914 17.2738 12.2749C17.0109 12.4984 16.8003 12.7678 16.5896 13.0374C16.4143 13.2616 16.2389 13.4859 16.0333 13.684C16.0067 15.0416 16.0156 16.4005 16.0244 17.7581L16.0244 17.7592C16.0222 18.0976 16.0111 18.4383 15.9579 18.7732C15.8969 19.1306 15.5174 19.3358 15.1757 19.3114C14.5795 19.3131 13.9829 19.3128 13.3864 19.3124H13.3849C12.8797 19.3119 12.3744 19.3116 11.8694 19.3126C11.6711 19.3124 11.4729 19.3122 11.2747 19.3119C10.103 19.3107 8.93177 19.3093 7.75975 19.3171C7.37032 19.337 6.87557 19.3004 6.70361 18.8808C6.64438 18.3578 6.64921 17.8319 6.65408 17.3058C6.65686 17.0041 6.65963 16.7024 6.65035 16.4012C6.45793 16.6092 6.28219 16.8318 6.10662 17.0544" fill="url(#paint4_linear_451_1898)"/>
<path d="M6.10579 17.0542C6.28136 16.8315 6.4571 16.609 6.64951 16.4009C6.6617 15.0295 6.66268 13.6593 6.64602 12.2891C6.42848 12.4907 6.24399 12.7227 6.05957 12.9545" fill="url(#paint5_linear_451_1898)"/>
<path d="M9.35615 17.4436C9.35728 17.0829 9.7012 16.779 10.0585 16.8156L10.3532 16.8149H10.3534C11.107 16.8126 11.8598 16.8106 12.6126 16.8156C13.0364 16.7845 13.3914 17.2383 13.2627 17.6422C13.2117 17.893 12.9887 18.0683 12.749 18.1271C11.8092 18.1037 10.8695 18.1005 9.92978 18.1293C9.60356 18.0803 9.33063 17.7809 9.35615 17.4436Z" fill="url(#paint6_linear_451_1898)"/>
<path d="M14.1206 1.38604C14.2967 1.39163 14.4763 1.38672 14.6568 1.3818C15.1924 1.36716 15.7355 1.35233 16.2177 1.61126C16.5693 1.78172 16.8183 2.08895 17.0591 2.38576L17.0841 2.41677L17.0442 2.46225C17.2017 2.71631 17.2804 3.01036 17.2849 3.3088M14.1206 1.38604C13.912 1.83872 13.6524 2.26366 13.3694 2.67307M14.1206 1.38604C12.9689 1.37716 11.8183 1.3805 10.6677 1.38493C9.54161 1.37939 8.41655 1.3783 7.29154 1.38385C6.26746 1.39495 5.34102 2.30031 5.35768 3.33324L5.35695 3.7143C5.35377 5.37907 5.35061 7.04392 5.35988 8.70868C5.35322 10.3785 5.34877 12.0484 5.36208 13.7182M17.2849 3.3088C17.2806 4.01263 17.2806 4.7168 17.2806 5.42111C17.2806 6.01246 17.2806 6.60392 17.2781 7.19539C17.2784 7.62398 17.2792 8.05264 17.28 8.48121V8.48158C17.2822 9.74598 17.2845 11.0104 17.2738 12.2748M17.2849 3.3088C17.3715 3.75069 17.3639 4.20059 17.3562 4.64898C17.3549 4.72859 17.3535 4.80817 17.3527 4.88763C17.3538 8.95508 17.3538 13.0236 17.3527 17.0923C17.3535 17.1743 17.3549 17.2566 17.3565 17.3387V17.3391C17.3644 17.7848 17.3723 18.2318 17.2861 18.6711M13.3694 2.67307C13.5956 2.67831 13.8225 2.67529 14.0494 2.67228C14.5427 2.66571 15.0363 2.65913 15.5241 2.73742C15.7262 2.82172 15.8946 2.99484 15.9523 3.20897M13.3694 2.67307C12.385 2.67688 11.4004 2.67578 10.4165 2.67468L9.9355 2.6742C9.60653 2.68328 9.27686 2.67862 8.94723 2.67396C8.34858 2.66552 7.75009 2.6571 7.15619 2.7308C6.98422 2.79604 6.85287 2.92902 6.72513 3.05834L6.72498 3.0585L6.7246 3.05888C6.71571 3.0679 6.70683 3.07687 6.69794 3.08583M5.36208 13.7182C5.62981 13.4959 5.84508 13.2253 6.0604 12.9546M5.36208 13.7182C5.35099 15.1162 5.35214 16.5153 5.35989 17.9144M17.2738 12.2748C17.0109 12.4983 16.8003 12.7677 16.5896 13.0372C16.4143 13.2614 16.2389 13.4858 16.0333 13.6838M17.2738 12.2748C17.2831 13.3913 17.2822 14.5075 17.2811 15.6237C17.2801 16.6394 17.2792 17.6552 17.2861 18.6711M17.2861 18.6711C17.2872 19.1359 17.0984 19.5841 16.8122 19.9447C16.3829 20.3785 15.7914 20.6537 15.1745 20.6226C14.1106 20.6152 13.0465 20.6178 11.9825 20.6202H11.9823C10.3279 20.624 8.67371 20.6279 7.02079 20.5949M15.9523 3.20897C15.9598 5.89064 15.9578 8.57228 15.9558 11.2539C15.9539 13.7603 15.952 16.2667 15.9579 18.773M15.9523 3.20897C15.9878 3.3643 16.0155 3.52184 16.0367 3.68051M15.9523 3.20897C15.9878 3.36426 16.0156 3.52174 16.0368 3.68038L16.0367 3.68051M6.69794 3.08583C6.64093 3.89448 6.64865 4.7058 6.65638 5.5175C6.66205 6.11119 6.66769 6.70529 6.64803 7.29862M6.69794 3.08583C6.69926 5.185 6.69923 7.28437 6.69914 9.38376C6.69904 12.5495 6.69894 15.7153 6.70361 18.8806M6.0604 12.9546C6.24483 12.7227 6.42932 12.4908 6.64686 12.2891M6.0604 12.9546L6.10662 17.0543M5.35989 17.9144C5.63574 17.6512 5.87115 17.3528 6.10662 17.0543M5.35989 17.9144C5.32885 18.5768 5.3255 19.2945 5.74711 19.8493C6.08218 20.2232 6.52263 20.5018 7.02079 20.5949M16.0333 13.6838C16.0304 13.4758 16.0278 13.2678 16.0256 13.0597M16.0333 13.6838C16.0067 15.0415 16.0156 16.4004 16.0244 17.758L16.0244 17.759C16.0222 18.0974 16.0111 18.4381 15.9579 18.773M7.02079 20.5949C7.28264 20.1778 7.53564 19.755 7.75975 19.3169M15.9579 18.773C15.8969 19.1304 15.5174 19.3356 15.1757 19.3112C14.5795 19.3129 13.9829 19.3126 13.3864 19.3122H13.3849C12.8797 19.3117 12.3744 19.3114 11.8694 19.3124C11.6711 19.3122 11.4729 19.312 11.2747 19.3117C10.103 19.3105 8.93177 19.3091 7.75975 19.3169M16.0367 3.68051C16.0044 5.35031 16.011 7.02011 16.0332 8.68993M6.64803 7.29862L6.64789 7.29874C6.66229 8.96185 6.66573 10.6249 6.64686 12.2891M6.64803 7.29862C6.66245 8.96179 6.66573 10.6249 6.64686 12.2891M6.70361 18.8806C6.87557 19.3002 7.37032 19.3368 7.75975 19.3169M6.70361 18.8806C6.64438 18.3576 6.64921 17.8317 6.65408 17.3056C6.65686 17.0039 6.65963 16.7022 6.65035 16.401M6.64686 12.2891C6.66351 13.6594 6.66253 15.0296 6.65035 16.401M6.10662 17.0543C6.28219 16.8316 6.45793 16.6091 6.65035 16.401M11.8194 19.4073C11.8095 19.4265 11.7995 19.4456 11.7895 19.4647M10.0587 16.8155C9.70142 16.7789 9.35748 17.0828 9.35637 17.4434C9.33084 17.7808 9.60378 18.0802 9.92998 18.1292C10.8697 18.1003 11.8095 18.1036 12.7492 18.127C12.9889 18.0682 13.212 17.8929 13.2629 17.6421C13.3916 17.2382 13.0366 16.7845 12.6128 16.8155C11.86 16.8105 11.1072 16.8125 10.3536 16.8148H10.3534L10.0587 16.8155Z" stroke="url(#paint7_linear_451_1898)" stroke-width="0.6"/>
<defs>
<linearGradient id="paint0_linear_451_1898" x1="17.1523" y1="1.87229" x2="8.69634" y2="6.65069" gradientUnits="userSpaceOnUse">
<stop stop-color="#FE0F7C"/>
<stop offset="1" stop-color="#DF0066"/>
</linearGradient>
<linearGradient id="paint1_linear_451_1898" x1="13.8245" y1="1.73303" x2="7.85344" y2="12.3869" gradientUnits="userSpaceOnUse">
<stop stop-color="#FE0F7C"/>
<stop offset="1" stop-color="#DF0066"/>
</linearGradient>
<linearGradient id="paint2_linear_451_1898" x1="6.70131" y1="3.5374" x2="6.53963" y2="3.53886" gradientUnits="userSpaceOnUse">
<stop stop-color="#FE0F7C"/>
<stop offset="1" stop-color="#DF0066"/>
</linearGradient>
<linearGradient id="paint3_linear_451_1898" x1="17.3587" y1="3.74768" x2="17.1102" y2="3.75124" gradientUnits="userSpaceOnUse">
<stop stop-color="#FE0F7C"/>
<stop offset="1" stop-color="#DF0066"/>
</linearGradient>
<linearGradient id="paint4_linear_451_1898" x1="16.8828" y1="12.5136" x2="14.4335" y2="21.3067" gradientUnits="userSpaceOnUse">
<stop stop-color="#FE0F7C"/>
<stop offset="1" stop-color="#DF0066"/>
</linearGradient>
<linearGradient id="paint5_linear_451_1898" x1="6.63838" y1="12.4253" x2="5.08621" y2="12.9152" gradientUnits="userSpaceOnUse">
<stop stop-color="#FE0F7C"/>
<stop offset="1" stop-color="#DF0066"/>
</linearGradient>
<linearGradient id="paint6_linear_451_1898" x1="13.1565" y1="16.8501" x2="12.9609" y2="18.3182" gradientUnits="userSpaceOnUse">
<stop stop-color="#FE0F7C"/>
<stop offset="1" stop-color="#DF0066"/>
</linearGradient>
<linearGradient id="paint7_linear_451_1898" x1="16.9552" y1="1.92522" x2="7.04963" y2="17.4475" gradientUnits="userSpaceOnUse">
<stop stop-color="#FE0F7C"/>
<stop offset="1" stop-color="#DF0066"/>
</linearGradient>
</defs>
</svg>
