<svg width="23" height="22" viewBox="0 0 23 22" fill="none" xmlns="http://www.w3.org/2000/svg">
<path fill-rule="evenodd" clip-rule="evenodd" d="M14.8501 1.3818C14.6696 1.38672 14.49 1.39163 14.3139 1.38604C14.1053 1.83872 13.8457 2.26366 13.5627 2.67307C13.7884 2.67829 14.0148 2.6753 14.2412 2.67229L14.2429 2.67228C14.7361 2.66571 15.2297 2.65915 15.7174 2.73742C15.9195 2.82172 16.0879 2.99484 16.1456 3.20897C16.1531 5.89045 16.1511 8.5719 16.1491 11.2534L16.1491 11.2698C16.1472 13.7709 16.1454 16.272 16.1512 18.773C16.0902 19.1304 15.7107 19.3356 15.3691 19.3112C14.7732 19.3129 14.177 19.3126 13.5809 19.3122H13.5783C13.073 19.3117 12.5677 19.3114 12.0627 19.3124C11.8645 19.3122 11.6663 19.312 11.4681 19.3117L11.4033 19.3115H11.4026C10.2527 19.3105 9.1033 19.3093 7.95311 19.3169C7.56367 19.3368 7.06893 19.3002 6.89697 18.8806L6.8969 18.88C6.89223 15.7149 6.89233 12.5493 6.89243 9.38377C6.89252 7.28439 6.89257 5.18504 6.89125 3.08586C6.83424 3.89424 6.84195 4.70532 6.84965 5.51676L6.84967 5.51753C6.85534 6.11122 6.861 6.70531 6.84132 7.29865C6.85574 8.9618 6.85902 10.6249 6.84015 12.2892C6.8568 13.6594 6.85582 15.0297 6.84364 16.4011C6.65126 16.6091 6.47553 16.8316 6.29998 17.0542V17.0538C6.47541 16.8313 6.65104 16.6089 6.8433 16.401C6.85548 15.0296 6.85646 13.6594 6.83981 12.2892C6.85868 10.625 6.85527 8.96187 6.84087 7.29876C6.86055 6.70541 6.85502 6.11138 6.84936 5.51769V5.51751C6.84163 4.70587 6.83389 3.89443 6.89092 3.08584C6.89981 3.07689 6.90869 3.0679 6.91756 3.05889L6.91794 3.05852L6.91811 3.05836C7.04582 2.92908 7.17723 2.79603 7.34916 2.7308C7.94304 2.6571 8.54152 2.66554 9.14016 2.67398L9.1414 2.674C9.47063 2.67864 9.79989 2.68326 10.1285 2.6742L10.6292 2.67472C11.6064 2.6758 12.5846 2.67687 13.5624 2.67307C13.8454 2.26368 14.105 1.83874 14.3136 1.38605C13.1618 1.37717 12.0112 1.38051 10.8607 1.38494C9.73458 1.3794 8.60953 1.37831 7.48451 1.38386C6.46043 1.39496 5.534 2.30032 5.55064 3.33326L5.5499 3.72118C5.54674 5.38367 5.54359 7.04622 5.55286 8.70868C5.54619 10.3785 5.54175 12.0484 5.55506 13.7182C5.82274 13.496 6.03796 13.2254 6.25325 12.9548L6.25337 12.955C6.03816 13.2256 5.82299 13.496 5.55544 13.7182C5.54435 15.1161 5.5455 16.5152 5.55325 17.9144C5.52221 18.5768 5.51886 19.2945 5.94047 19.8493C6.27554 20.2232 6.71599 20.5018 7.21415 20.5949C8.85946 20.6277 10.506 20.624 12.1528 20.6202H12.1756H12.1758L12.2298 20.62H12.2302C13.2761 20.6176 14.3221 20.6154 15.3679 20.6226C15.9848 20.6537 16.5762 20.3785 17.0055 19.9447C17.2917 19.584 17.4806 19.1359 17.4795 18.6711C17.4725 17.6552 17.4735 16.6394 17.4744 15.6237C17.4755 14.5075 17.4765 13.3912 17.4672 12.2747C17.4778 11.0234 17.4755 9.77207 17.4733 8.52074L17.4733 8.48158V8.48121C17.4725 8.05264 17.4717 7.62398 17.4714 7.19539C17.4739 6.60423 17.4739 6.01308 17.4739 5.42202V5.42111C17.4739 4.7168 17.4739 4.01263 17.4782 3.3088C17.4737 3.01036 17.395 2.71631 17.2375 2.46225L17.2774 2.41677L17.252 2.38537C17.0114 2.08868 16.7624 1.78166 16.411 1.61126C15.9288 1.35233 15.3857 1.36716 14.8501 1.3818ZM16.7827 13.0375C16.7334 13.1006 16.6841 13.1636 16.6341 13.2261C16.6836 13.1642 16.7323 13.1019 16.7811 13.0395L16.7827 13.0375L16.7829 13.0372L16.783 13.0371C16.8398 12.9644 16.8965 12.8918 16.9543 12.8201C16.8969 12.8914 16.8404 12.9636 16.784 13.0358L16.783 13.0371L16.7827 13.0375ZM16.23 3.68051C16.2101 3.53114 16.1843 3.38276 16.1517 3.2363C16.1843 3.38272 16.2102 3.53103 16.2301 3.68038L16.23 3.68051Z" fill="url(#paint0_linear_451_1907)"/>
<path d="M17.5501 4.64877C17.5579 4.20038 17.5655 3.75048 17.4788 3.30859C17.4746 4.01242 17.4746 4.71659 17.4746 5.4209C17.4746 6.01226 17.4746 6.60371 17.472 7.19519C17.4723 7.62377 17.4731 8.05243 17.4739 8.481V8.48138L17.474 8.5256C17.4762 9.77525 17.4784 11.0249 17.4678 12.2746C17.4771 13.3911 17.4761 14.5073 17.475 15.6235C17.4741 16.6392 17.4731 17.655 17.4801 18.671C17.5662 18.2316 17.5584 17.7846 17.5505 17.3389V17.3386C17.5489 17.2564 17.5475 17.1741 17.5467 17.0921C17.5478 13.0234 17.5478 8.95488 17.5467 4.88742C17.5473 4.82491 17.5483 4.76233 17.5493 4.6997L17.5501 4.64877Z" fill="url(#paint1_linear_451_1907)"/>
<path d="M9.54951 17.4436C9.55064 17.0829 9.89456 16.779 10.2518 16.8156L10.5465 16.8149H10.5468C11.3003 16.8126 12.0531 16.8106 12.8059 16.8156C13.2297 16.7845 13.5848 17.2383 13.4561 17.6422C13.4051 17.893 13.182 18.0683 12.9424 18.1271C12.0026 18.1037 11.0629 18.1005 10.1231 18.1293C9.79692 18.0803 9.52398 17.7809 9.54951 17.4436Z" fill="url(#paint2_linear_451_1907)"/>
<path d="M16.1512 18.773C16.1454 16.272 16.1472 13.7709 16.1491 11.2698L16.1491 11.2534C16.1511 8.5719 16.1531 5.89045 16.1456 3.20897C16.0879 2.99484 15.9195 2.82172 15.7174 2.73742C15.2297 2.65915 14.7361 2.66571 14.2429 2.67228L14.2412 2.67229C14.0148 2.6753 13.7884 2.67829 13.5627 2.67307C13.8457 2.26366 14.1053 1.83872 14.3139 1.38604C14.49 1.39163 14.6696 1.38672 14.8501 1.3818C15.3857 1.36716 15.9288 1.35233 16.411 1.61126C16.7624 1.78166 17.0114 2.08868 17.252 2.38537L17.2774 2.41677L17.2375 2.46225C17.395 2.71631 17.4737 3.01036 17.4782 3.3088C17.4739 4.01263 17.4739 4.7168 17.4739 5.42111V5.42202C17.4739 6.01308 17.4739 6.60423 17.4714 7.19539C17.4717 7.62398 17.4725 8.05264 17.4733 8.48121V8.48158L17.4733 8.52074C17.4755 9.77207 17.4778 11.0234 17.4672 12.2747C17.4765 13.3912 17.4755 14.5075 17.4744 15.6237C17.4735 16.6394 17.4725 17.6552 17.4795 18.6711C17.4806 19.1359 17.2917 19.584 17.0055 19.9447C16.5762 20.3785 15.9848 20.6537 15.3679 20.6226C14.3221 20.6154 13.2761 20.6176 12.2302 20.62H12.2298L12.1758 20.6202H12.1756H12.1528C10.506 20.624 8.85946 20.6277 7.21415 20.5949C6.71599 20.5018 6.27554 20.2232 5.94047 19.8493C5.51886 19.2945 5.52221 18.5768 5.55325 17.9144C5.5455 16.5152 5.54435 15.1161 5.55544 13.7182C5.82299 13.496 6.03816 13.2256 6.25337 12.955L6.25325 12.9548C6.03796 13.2254 5.82274 13.496 5.55506 13.7182C5.54175 12.0484 5.54619 10.3785 5.55286 8.70868C5.54359 7.04622 5.54674 5.38367 5.5499 3.72118L5.55064 3.33326C5.534 2.30032 6.46043 1.39496 7.48451 1.38386C8.60953 1.37831 9.73458 1.3794 10.8607 1.38494C12.0112 1.38051 13.1618 1.37717 14.3136 1.38605C14.105 1.83874 13.8454 2.26368 13.5624 2.67307C12.5846 2.67687 11.6064 2.6758 10.6292 2.67472L10.1285 2.6742C9.79989 2.68326 9.47063 2.67864 9.1414 2.674L9.14016 2.67398C8.54152 2.66554 7.94304 2.6571 7.34916 2.7308C7.17723 2.79603 7.04582 2.92908 6.91811 3.05836L6.91794 3.05852L6.91756 3.05889C6.90869 3.0679 6.89981 3.07689 6.89092 3.08584C6.83389 3.89443 6.84163 4.70587 6.84936 5.51751V5.51769C6.85502 6.11138 6.86055 6.70541 6.84087 7.29876C6.85527 8.96187 6.85868 10.625 6.83981 12.2892C6.85646 13.6594 6.85548 15.0296 6.8433 16.401C6.65104 16.6089 6.47541 16.8313 6.29998 17.0538V17.0542C6.47553 16.8316 6.65126 16.6091 6.84364 16.4011C6.85582 15.0297 6.8568 13.6594 6.84015 12.2892C6.85902 10.6249 6.85574 8.9618 6.84132 7.29865C6.861 6.70531 6.85534 6.11122 6.84967 5.51753L6.84965 5.51676C6.84195 4.70532 6.83424 3.89424 6.89125 3.08586C6.89257 5.18504 6.89252 7.28439 6.89243 9.38377C6.89233 12.5493 6.89223 15.7149 6.8969 18.88L6.89697 18.8806C7.06893 19.3002 7.56367 19.3368 7.95311 19.3169C9.1033 19.3093 10.2527 19.3105 11.4026 19.3115H11.4033L11.4681 19.3117C11.6663 19.312 11.8645 19.3122 12.0627 19.3124C12.5677 19.3114 13.073 19.3117 13.5783 19.3122H13.5809C14.177 19.3126 14.7732 19.3129 15.3691 19.3112C15.7107 19.3356 16.0902 19.1304 16.1512 18.773ZM16.1512 18.773C16.2044 18.4381 16.2155 18.0974 16.2177 17.759L16.2177 17.758L16.2177 17.7569C16.2089 16.3997 16.2 15.0411 16.2266 13.6838M16.7827 13.0375C16.7334 13.1006 16.6841 13.1636 16.6341 13.2261C16.6836 13.1642 16.7323 13.1019 16.7811 13.0395L16.7827 13.0375ZM16.7827 13.0375L16.7829 13.0372L16.783 13.0371M16.7827 13.0375L16.783 13.0371M16.783 13.0371C16.8398 12.9644 16.8965 12.8918 16.9543 12.8201C16.8969 12.8914 16.8404 12.9636 16.784 13.0358L16.783 13.0371ZM16.1517 3.2363C16.1843 3.38276 16.2101 3.53114 16.23 3.68051L16.2301 3.68038C16.2102 3.53103 16.1843 3.38272 16.1517 3.2363ZM17.4786 3.30877C17.5652 3.75066 17.5576 4.20056 17.5499 4.64894L17.5491 4.69987C17.548 4.7625 17.547 4.82508 17.5464 4.88759C17.5475 8.95505 17.5475 13.0236 17.5464 17.0923C17.5472 17.1743 17.5486 17.2566 17.5502 17.3387V17.3391C17.5581 17.7848 17.566 18.2318 17.4798 18.6711C17.4729 17.6552 17.4738 16.6394 17.4748 15.6237C17.4759 14.5075 17.4768 13.3912 17.4675 12.2747C17.4781 11.0251 17.4759 9.77542 17.4738 8.52577L17.4737 8.48155V8.48117C17.4729 8.0526 17.4721 7.62394 17.4718 7.19536C17.4743 6.60388 17.4743 6.01243 17.4743 5.42107C17.4743 4.71677 17.4743 4.01259 17.4786 3.30877ZM10.2518 16.8155C9.89456 16.7789 9.55064 17.0828 9.5495 17.4434C9.52398 17.7808 9.79692 18.0802 10.1231 18.1292C11.0629 18.1003 12.0026 18.1036 12.9423 18.127C13.182 18.0682 13.4051 17.8929 13.4561 17.6421C13.5848 17.2382 13.2297 16.7844 12.8059 16.8155C12.0531 16.8105 11.3003 16.8125 10.5468 16.8147H10.5465L10.2518 16.8155Z" stroke="url(#paint3_linear_451_1907)" stroke-width="0.6"/>
<defs>
<linearGradient id="paint0_linear_451_1907" x1="11.5479" y1="20.625" x2="11.5479" y2="1.375" gradientUnits="userSpaceOnUse">
<stop stop-color="#02AA93"/>
<stop offset="1" stop-color="#67FF80"/>
</linearGradient>
<linearGradient id="paint1_linear_451_1907" x1="11.5482" y1="20.6248" x2="11.5482" y2="1.37483" gradientUnits="userSpaceOnUse">
<stop stop-color="#02AA93"/>
<stop offset="1" stop-color="#67FF80"/>
</linearGradient>
<linearGradient id="paint2_linear_451_1907" x1="11.5479" y1="20.6251" x2="11.5479" y2="1.37514" gradientUnits="userSpaceOnUse">
<stop stop-color="#02AA93"/>
<stop offset="1" stop-color="#67FF80"/>
</linearGradient>
<linearGradient id="paint3_linear_451_1907" x1="11.5479" y1="20.625" x2="11.5479" y2="1.375" gradientUnits="userSpaceOnUse">
<stop stop-color="#02AA93"/>
<stop offset="1" stop-color="#67FF80"/>
</linearGradient>
</defs>
</svg>
