<svg width="23" height="22" viewBox="0 0 23 22" fill="none" xmlns="http://www.w3.org/2000/svg">
<path d="M17.2076 1.92668C17.9387 1.84278 18.7237 1.88531 19.3713 2.27037C19.9468 2.5876 20.3713 3.12094 20.6379 3.71633C20.4607 3.73472 20.2799 3.73472 20.1092 3.79105C19.8473 4.03243 19.6756 4.35081 19.4709 4.63932C19.4033 4.14277 19.1218 3.66805 18.6699 3.43587C18.2134 3.17266 17.671 3.31748 17.1801 3.21633C16.8895 3.14277 16.7922 2.83013 16.6709 2.59335C16.7728 2.32554 16.8884 1.9922 17.2076 1.92668Z" fill="url(#paint0_linear_451_1954)"/>
<path d="M2.69083 4.72916C2.68398 3.2786 3.9266 1.96135 5.37172 1.90618C6.64066 1.89124 7.9096 1.89929 9.17853 1.90274C8.90047 2.3556 8.59955 2.79469 8.31921 3.24641C7.37295 3.25906 6.42669 3.22917 5.48272 3.25676C4.93121 3.27054 4.42662 3.62111 4.19433 4.11998C4.14285 4.23261 4.10165 4.34869 4.06962 4.46938C3.88654 5.76249 4.02842 7.07858 3.96778 8.38086C3.52726 8.89006 3.17942 9.47626 2.69427 9.94752C2.68169 8.20846 2.68741 6.46824 2.69083 4.72916Z" fill="url(#paint1_linear_451_1954)"/>
<path d="M9.17864 1.90273C10.6947 1.89697 12.2108 1.89813 13.7269 1.89928C14.0416 1.87054 14.3619 2.06594 14.4488 2.3763C14.5484 2.64181 14.3825 2.89813 14.2967 3.14064C13.6971 3.28892 13.0769 3.24755 12.466 3.2487C11.0838 3.2464 9.70154 3.24985 8.31934 3.2464C8.59966 2.79468 8.9006 2.35559 9.17864 1.90273Z" fill="url(#paint2_linear_451_1954)"/>
<path d="M14.9023 2.63118C14.9069 2.37945 14.9069 2.00933 15.2228 1.95188C15.5111 1.91394 15.8142 1.89901 16.098 1.97716C16.3166 2.09096 16.3131 2.35071 16.3155 2.56451C16.2891 2.7783 16.3703 3.05186 16.2159 3.22428C15.8177 3.2783 15.4115 3.27371 15.0122 3.22772C14.8829 3.06221 14.9309 2.82658 14.9023 2.63118Z" fill="url(#paint3_linear_451_1954)"/>
<path d="M20.1091 3.79102C20.2796 3.7347 20.4604 3.7347 20.6378 3.71631C20.7316 4.03701 20.8162 4.36459 20.8255 4.70022C20.8162 6.42435 20.8289 8.14731 20.8174 9.87031C20.441 10.3094 20.0714 10.7565 19.759 11.2439C19.5462 11.5565 19.568 11.9507 19.5622 12.3117C19.5771 13.2692 19.5587 14.2278 19.5531 15.1864C19.544 15.9175 19.601 16.6565 19.4639 17.3795C19.4774 13.1323 19.4718 8.88526 19.4707 4.63929C19.6754 4.35079 19.8471 4.0324 20.1091 3.79102Z" fill="url(#paint4_linear_451_1954)"/>
<path d="M14.9626 3.83366C15.3916 3.79573 15.823 3.79802 16.2521 3.82675C16.3448 4.23597 16.307 4.65665 16.3116 5.07159C16.3184 6.95089 16.3219 8.83019 16.3287 10.7095C16.3814 11.2382 16.0187 11.6739 15.7613 12.0991C15.7087 12.1084 15.6045 12.1279 15.5519 12.1382C15.2944 11.8129 15.0782 11.4394 14.9477 11.0463C14.911 9.01755 14.9396 6.98537 14.9203 4.95549C14.9157 4.58194 14.9076 4.20493 14.9626 3.83366Z" fill="url(#paint5_linear_451_1954)"/>
<path d="M3.96811 8.38072C4.02876 7.07842 3.88686 5.76234 4.06994 4.46924C4.02304 8.69221 4.06422 12.9163 4.05049 17.1405C4.01845 17.6129 4.24043 18.0462 4.54822 18.3876C4.26789 18.7347 4.00015 19.091 3.74385 19.4554C3.59968 19.3324 3.46237 19.2002 3.33193 19.0646C2.93031 18.5508 2.69347 17.9082 2.69003 17.253C2.68659 16.5428 2.68544 15.8313 2.6946 15.1198C3.12369 14.7129 3.50814 14.2554 3.81593 13.7497C3.99671 13.4588 3.96697 13.1025 3.97383 12.775C3.94293 11.3106 3.98413 9.84508 3.96811 8.38072Z" fill="url(#paint6_linear_451_1954)"/>
<path d="M20.8255 4.7002C20.8631 4.89675 20.8963 5.09444 20.9021 5.29559C20.8894 8.70707 20.9021 12.1197 20.8952 15.5312C20.8861 16.1139 20.9535 16.7048 20.8277 17.2806C20.8141 14.8105 20.8301 12.3404 20.8174 9.87028C20.8289 8.1473 20.8162 6.42432 20.8255 4.7002Z" fill="url(#paint7_linear_451_1954)"/>
<path d="M2.69424 9.9475C3.1794 9.47624 3.52724 8.89004 3.96775 8.38086C3.98377 9.84522 3.94259 11.3107 3.97348 12.7751C3.96662 13.1026 3.99635 13.459 3.81557 13.7498C3.50778 14.2555 3.12333 14.713 2.69424 15.1199C2.68395 13.3957 2.68395 11.6716 2.69424 9.9475Z" fill="url(#paint8_linear_451_1954)"/>
<path d="M19.7594 11.2437C20.0719 10.7563 20.4414 10.3092 20.8178 9.87012C20.8305 12.3403 20.8145 14.8104 20.8281 17.2805C20.8166 17.97 20.5455 18.6448 20.0969 19.1644C19.6245 19.6426 19.011 20.0092 18.3326 20.0771C16.6426 19.9885 14.948 20.0552 13.2568 19.9782C13.5086 19.554 13.7889 19.1482 14.0807 18.7505C15.3771 18.7471 16.6735 18.754 17.9687 18.7471C18.6209 18.754 19.2331 18.2816 19.4081 17.6528C19.423 17.585 19.4505 17.4472 19.4643 17.3793C19.6016 16.6563 19.5444 15.9173 19.5535 15.1862C19.5591 14.2276 19.5775 13.269 19.5626 12.3115C19.5684 11.9506 19.5466 11.5563 19.7594 11.2437Z" fill="url(#paint9_linear_451_1954)"/>
<path d="M3.74316 19.4554C3.99946 19.0912 4.26721 18.7349 4.54754 18.3877C4.85877 18.5912 5.20776 18.7648 5.58993 18.7498C6.7101 18.7543 7.83028 18.7452 8.95048 18.7521C8.70219 19.1532 8.49852 19.6003 8.14952 19.9268C7.81084 20.0463 7.44126 20.0073 7.08656 20.0152C6.46525 19.9946 5.84394 20.0348 5.22378 20.0784C4.68028 20.0325 4.16653 19.7935 3.74316 19.4554Z" fill="url(#paint10_linear_451_1954)"/>
<path d="M8.95132 18.7519C10.6619 18.7496 12.3713 18.7484 14.0808 18.7508C13.789 19.1484 13.5087 19.5542 13.257 19.9784C14.9481 20.0554 16.6427 19.9887 18.3327 20.0772C18.0971 20.1013 17.859 20.1081 17.6221 20.1093C13.9584 20.1069 10.2946 20.1059 6.63199 20.1047C6.16287 20.1013 5.69259 20.1196 5.22461 20.0782C5.84477 20.0346 6.46608 19.9943 7.08741 20.015C7.44211 20.0071 7.81167 20.0461 8.15037 19.9266C8.49936 19.6001 8.70302 19.153 8.95132 18.7519Z" fill="url(#paint11_linear_451_1954)"/>
<path d="M20.6378 3.71633C20.3713 3.12094 19.9467 2.5876 19.3711 2.27037C18.7235 1.88531 17.9386 1.84278 17.2075 1.92668C16.8882 1.9922 16.7727 2.32554 16.6708 2.59335C16.7921 2.83013 16.8894 3.14277 17.18 3.21633C17.6709 3.31748 18.2132 3.17266 18.6697 3.43587C19.1217 3.66805 19.4033 4.14277 19.4708 4.63932M20.6378 3.71633C20.4605 3.73472 20.2796 3.73472 20.1091 3.79105C19.8472 4.03243 19.6755 4.35081 19.4708 4.63932M20.6378 3.71633C20.7317 4.03703 20.8162 4.36461 20.8255 4.70025M19.4708 4.63932C19.4718 8.88528 19.4775 13.1323 19.4639 17.3795M20.8255 4.70025C20.8162 6.42438 20.829 8.14734 20.8174 9.87033M20.8255 4.70025C20.8632 4.89679 20.8963 5.0945 20.902 5.29564C20.8895 8.70712 20.9022 12.1197 20.8951 15.5313C20.886 16.114 20.9536 16.7048 20.8278 17.2807M19.4639 17.3795C19.6011 16.6565 19.544 15.9175 19.5531 15.1864C19.5588 14.2278 19.577 13.2692 19.5622 12.3118C19.5679 11.9508 19.5463 11.5565 19.759 11.2439C20.0715 10.7565 20.441 10.3094 20.8174 9.87033M19.4639 17.3795C19.4502 17.4474 19.4227 17.5852 19.4077 17.6529C19.2328 18.2818 18.6205 18.7541 17.9683 18.7473C16.6731 18.7541 15.3767 18.7473 14.0803 18.7509M20.8174 9.87033C20.83 12.3405 20.814 14.8106 20.8278 17.2807M20.8278 17.2807C20.8162 17.9702 20.5452 18.645 20.0966 19.1646C19.6239 19.6427 19.0107 20.0093 18.3321 20.0772M14.0803 18.7509C13.7885 19.1484 13.5083 19.5542 13.2565 19.9784C14.9476 20.0554 16.6422 19.9887 18.3321 20.0772M14.0803 18.7509C12.3709 18.7485 10.6614 18.7497 8.95083 18.7519M9.17853 1.90255C7.9096 1.8991 6.64066 1.89105 5.37172 1.90599C3.9266 1.96118 2.68398 3.27841 2.69083 4.72897C2.68741 6.46805 2.68169 8.20827 2.69427 9.94733M9.17853 1.90255C8.90047 2.35541 8.59955 2.7945 8.31921 3.24622M9.17853 1.90255C10.6946 1.8968 12.2107 1.89796 13.7268 1.8991C14.0415 1.87036 14.3618 2.06577 14.4487 2.37612C14.5483 2.64163 14.3824 2.89795 14.2966 3.14048C13.697 3.28874 13.0768 3.24737 12.4659 3.24852C11.0836 3.24622 9.70143 3.24968 8.31921 3.24622M2.69427 9.94733C3.17942 9.47607 3.52726 8.88987 3.96778 8.38068M2.69427 9.94733C2.68398 11.6714 2.68398 13.3956 2.69427 15.1198M8.31921 3.24622C7.37295 3.25887 6.42669 3.22898 5.48272 3.25657C4.93121 3.27035 4.42662 3.62093 4.19433 4.11979C4.14285 4.23242 4.10165 4.34852 4.06962 4.4692M3.96778 8.38068C4.02842 7.0784 3.88654 5.7623 4.06962 4.4692M3.96778 8.38068C3.9838 9.84505 3.9426 11.3106 3.9735 12.775C3.96665 13.1025 3.99638 13.4588 3.8156 13.7497C3.50781 14.2553 3.12336 14.7128 2.69427 15.1198M2.69427 15.1198C2.68511 15.8313 2.68626 16.5427 2.6897 17.253C2.69314 17.9082 2.92998 18.5506 3.3316 19.0645C3.46204 19.2002 3.59935 19.3323 3.74352 19.4552M4.06962 4.4692C4.02271 8.69217 4.06389 12.9163 4.05016 17.1405C4.01812 17.6129 4.2401 18.0462 4.54789 18.3875M4.54789 18.3875C4.26756 18.7347 3.99982 19.091 3.74352 19.4552M4.54789 18.3875C4.85912 18.591 5.20812 18.7646 5.59026 18.7497C6.71046 18.7541 7.83064 18.745 8.95083 18.7519M3.74352 19.4552C4.16688 19.7933 4.68063 20.0324 5.22413 20.0783M8.95083 18.7519C8.70252 19.1531 8.49887 19.6003 8.14988 19.9267C7.8112 20.0461 7.44161 20.0071 7.08692 20.0152C6.4656 19.9944 5.84428 20.0348 5.22413 20.0783M18.3321 20.0772C18.0965 20.1013 17.8585 20.1082 17.6217 20.1094C13.9579 20.107 10.2941 20.1059 6.6315 20.1047C6.16238 20.1013 5.6921 20.1197 5.22413 20.0783M14.9019 2.63129C14.9064 2.37956 14.9064 2.00944 15.2223 1.95198C15.5106 1.91405 15.8138 1.8991 16.0975 1.97727C16.3162 2.09105 16.3127 2.35082 16.315 2.56462C16.2886 2.77841 16.3699 3.05197 16.2154 3.22439C15.8173 3.27841 15.411 3.27381 15.0117 3.22783C14.8824 3.06231 14.9305 2.82667 14.9019 2.63129ZM14.9626 3.83357C15.3916 3.79564 15.823 3.79794 16.2521 3.82668C16.3448 4.23588 16.3069 4.65656 16.3115 5.0715C16.3184 6.95081 16.3219 8.83011 16.3287 10.7094C16.3813 11.2381 16.0186 11.6738 15.7612 12.0991C15.7086 12.1083 15.6045 12.1278 15.5518 12.1381C15.2943 11.8128 15.0781 11.4393 14.9476 11.0462C14.911 9.01746 14.9396 6.98529 14.9202 4.95541C14.9157 4.58186 14.9076 4.20484 14.9626 3.83357Z" stroke="url(#paint12_linear_451_1954)" stroke-width="0.6"/>
<defs>
<linearGradient id="paint0_linear_451_1954" x1="2.68661" y1="20.1094" x2="24.6699" y2="10.5278" gradientUnits="userSpaceOnUse">
<stop stop-color="#0357D1"/>
<stop offset="1" stop-color="#27CDFC"/>
</linearGradient>
<linearGradient id="paint1_linear_451_1954" x1="2.68652" y1="20.1096" x2="24.6698" y2="10.528" gradientUnits="userSpaceOnUse">
<stop stop-color="#0357D1"/>
<stop offset="1" stop-color="#27CDFC"/>
</linearGradient>
<linearGradient id="paint2_linear_451_1954" x1="2.68663" y1="20.1096" x2="24.67" y2="10.528" gradientUnits="userSpaceOnUse">
<stop stop-color="#0357D1"/>
<stop offset="1" stop-color="#27CDFC"/>
</linearGradient>
<linearGradient id="paint3_linear_451_1954" x1="2.68698" y1="20.1093" x2="24.6703" y2="10.5277" gradientUnits="userSpaceOnUse">
<stop stop-color="#0357D1"/>
<stop offset="1" stop-color="#27CDFC"/>
</linearGradient>
<linearGradient id="paint4_linear_451_1954" x1="2.68647" y1="20.1093" x2="24.6698" y2="10.5278" gradientUnits="userSpaceOnUse">
<stop stop-color="#0357D1"/>
<stop offset="1" stop-color="#27CDFC"/>
</linearGradient>
<linearGradient id="paint5_linear_451_1954" x1="2.68657" y1="20.1095" x2="24.67" y2="10.5279" gradientUnits="userSpaceOnUse">
<stop stop-color="#0357D1"/>
<stop offset="1" stop-color="#27CDFC"/>
</linearGradient>
<linearGradient id="paint6_linear_451_1954" x1="2.68685" y1="20.1094" x2="24.6702" y2="10.5278" gradientUnits="userSpaceOnUse">
<stop stop-color="#0357D1"/>
<stop offset="1" stop-color="#27CDFC"/>
</linearGradient>
<linearGradient id="paint7_linear_451_1954" x1="2.68642" y1="20.1093" x2="24.6698" y2="10.5277" gradientUnits="userSpaceOnUse">
<stop stop-color="#0357D1"/>
<stop offset="1" stop-color="#27CDFC"/>
</linearGradient>
<linearGradient id="paint8_linear_451_1954" x1="2.68649" y1="20.1096" x2="24.6698" y2="10.528" gradientUnits="userSpaceOnUse">
<stop stop-color="#0357D1"/>
<stop offset="1" stop-color="#27CDFC"/>
</linearGradient>
<linearGradient id="paint9_linear_451_1954" x1="2.6869" y1="20.1092" x2="24.6702" y2="10.5276" gradientUnits="userSpaceOnUse">
<stop stop-color="#0357D1"/>
<stop offset="1" stop-color="#27CDFC"/>
</linearGradient>
<linearGradient id="paint10_linear_451_1954" x1="2.68617" y1="20.1095" x2="24.6695" y2="10.528" gradientUnits="userSpaceOnUse">
<stop stop-color="#0357D1"/>
<stop offset="1" stop-color="#27CDFC"/>
</linearGradient>
<linearGradient id="paint11_linear_451_1954" x1="2.68701" y1="20.1093" x2="24.6704" y2="10.5278" gradientUnits="userSpaceOnUse">
<stop stop-color="#0357D1"/>
<stop offset="1" stop-color="#27CDFC"/>
</linearGradient>
<linearGradient id="paint12_linear_451_1954" x1="2.68652" y1="20.1094" x2="24.6698" y2="10.5278" gradientUnits="userSpaceOnUse">
<stop stop-color="#0357D1"/>
<stop offset="1" stop-color="#10CAFF"/>
</linearGradient>
</defs>
</svg>
