<svg width="23" height="22" viewBox="0 0 23 22" fill="none" xmlns="http://www.w3.org/2000/svg">
<path d="M19.1401 2.4126C19.6562 2.6971 20.0486 3.16507 20.309 3.69818L20.3085 3.69822C20.1731 3.70869 20.0251 3.72015 19.8866 3.76584L19.8692 3.77162L19.8556 3.7841C19.7189 3.91001 19.6072 4.0547 19.5053 4.20149C19.4589 4.26834 19.414 4.33635 19.3698 4.40336C19.3656 4.40989 19.3612 4.41641 19.3569 4.42292C19.3461 4.43931 19.3352 4.45565 19.3245 4.4719C19.2131 4.0342 18.9389 3.6324 18.526 3.41948C18.2813 3.27897 18.0168 3.24931 17.762 3.23995C17.6956 3.23751 17.6303 3.23639 17.5662 3.2353C17.3787 3.23211 17.2002 3.22905 17.0261 3.19343C16.9117 3.16389 16.8315 3.08761 16.7629 2.98182C16.7152 2.90831 16.6785 2.83017 16.6402 2.74882C16.6255 2.71754 16.6106 2.68577 16.5947 2.65363C16.642 2.52901 16.6902 2.40375 16.7585 2.29896C16.831 2.18791 16.9208 2.10837 17.0479 2.08116C17.7644 1.99941 18.5195 2.0437 19.1376 2.41122L19.1388 2.41192L19.1401 2.4126Z" fill="url(#paint0_linear_451_1912)" stroke="url(#paint1_linear_451_1912)"/>
<path d="M2.71522 4.77787V4.77729C2.70862 3.38348 3.90555 2.11544 5.29219 2.06186C6.34061 2.04953 7.38901 2.05301 8.43813 2.0565C8.59686 2.05703 8.75562 2.05756 8.91437 2.05802C8.802 2.23746 8.6865 2.41534 8.57041 2.59373C8.56319 2.60481 8.55598 2.6159 8.54875 2.62698C8.42059 2.82387 8.29191 3.02158 8.16695 3.22177C7.78695 3.22629 7.40403 3.2241 7.02041 3.22192C6.47894 3.21883 5.93604 3.21575 5.39787 3.23147C4.81634 3.24607 4.28776 3.6148 4.04448 4.13724L4.04422 4.1378C3.99106 4.2541 3.9486 4.37383 3.91562 4.49806L3.91432 4.50297L3.9136 4.50798C3.82185 5.15608 3.81171 5.80854 3.81668 6.45775C3.81784 6.60931 3.81982 6.76056 3.8218 6.91153C3.82818 7.39926 3.83452 7.88418 3.81314 8.36781C3.6426 8.567 3.48535 8.77767 3.33013 8.98561C3.29124 9.03771 3.25248 9.08963 3.21366 9.14117C3.05475 9.35218 2.89419 9.55777 2.71721 9.74787C2.70783 8.28436 2.71092 6.82008 2.71402 5.35599C2.71443 5.16328 2.71484 4.97056 2.71522 4.77787Z" fill="url(#paint2_linear_451_1912)" stroke="url(#paint3_linear_451_1912)"/>
<path d="M8.36914 3.22153C9.06611 3.22302 9.76264 3.22286 10.4593 3.22269C11.0826 3.22256 11.706 3.22242 12.3298 3.22346C12.3298 3.22346 12.3299 3.22346 12.3298 3.22346V3.30873C12.4408 3.30851 12.552 3.30972 12.6634 3.31093C13.1606 3.3163 13.6603 3.32171 14.1464 3.20151L8.36914 3.22153ZM8.36914 3.22153C8.47524 3.05355 8.58373 2.88684 8.69261 2.71958C8.69974 2.70864 8.70685 2.6977 8.71398 2.68675C8.84924 2.47892 8.98478 2.27014 9.11572 2.05828C10.604 2.05277 12.0924 2.0539 13.5809 2.05504H13.5848L13.5887 2.05468C13.8646 2.02949 14.1412 2.202 14.2152 2.4661L14.2162 2.46961L14.2175 2.47302C14.2575 2.5797 14.2461 2.68777 14.2094 2.8055C14.191 2.86459 14.167 2.9239 14.1411 2.98562C14.1377 2.99377 14.1343 3.00199 14.1308 3.01027C14.1145 3.04913 14.0977 3.08912 14.0823 3.12919L8.36914 3.22153Z" fill="url(#paint4_linear_451_1912)"/>
<path d="M8.36914 3.22153C9.06611 3.22302 9.76264 3.22286 10.4593 3.22269C11.0826 3.22256 11.706 3.22242 12.3298 3.22346M8.36914 3.22153L14.1464 3.20151C13.6603 3.32171 13.1606 3.3163 12.6634 3.31093C12.552 3.30972 12.4408 3.30851 12.3298 3.30873V3.22346M8.36914 3.22153C8.47524 3.05355 8.58373 2.88684 8.69261 2.71958C8.69974 2.70864 8.70685 2.6977 8.71398 2.68675C8.84924 2.47892 8.98478 2.27014 9.11572 2.05828C10.604 2.05277 12.0924 2.0539 13.5809 2.05504H13.5848L13.5887 2.05468C13.8646 2.02949 14.1412 2.202 14.2152 2.4661L14.2162 2.46961L14.2175 2.47302C14.2575 2.5797 14.2461 2.68777 14.2094 2.8055C14.191 2.86459 14.167 2.9239 14.1411 2.98562C14.1377 2.99377 14.1343 3.00199 14.1308 3.01027C14.1145 3.04913 14.0977 3.08912 14.0823 3.12919L8.36914 3.22153ZM12.3298 3.22346C12.3299 3.22346 12.3298 3.22346 12.3298 3.22346Z" stroke="url(#paint5_linear_451_1912)"/>
<path d="M14.8428 2.84484C14.8414 2.79503 14.8391 2.74238 14.832 2.69091C14.8321 2.68961 14.8321 2.68832 14.8321 2.687C14.8344 2.56137 14.8368 2.42491 14.8713 2.31176C14.905 2.20154 14.9639 2.12781 15.0779 2.10637C15.3567 2.06983 15.6396 2.05697 15.9012 2.12694C15.977 2.1692 16.0169 2.23587 16.0387 2.32228C16.0613 2.41141 16.0623 2.51239 16.0634 2.61679C16.0634 2.61967 16.0635 2.62254 16.0635 2.6254C16.0569 2.68334 16.0572 2.74332 16.0586 2.79992C16.0591 2.81556 16.0595 2.83086 16.06 2.8459C16.0613 2.88903 16.0626 2.93004 16.0618 2.97106C16.0599 3.06832 16.046 3.1453 16.0048 3.2046C15.6413 3.25077 15.2703 3.24734 14.9037 3.20764C14.8693 3.1504 14.8549 3.08063 14.8487 2.99693C14.8458 2.95841 14.8448 2.91971 14.8438 2.87893C14.8435 2.86775 14.8432 2.85639 14.8428 2.84484Z" fill="url(#paint6_linear_451_1912)" stroke="url(#paint7_linear_451_1912)"/>
<path d="M19.3663 7.14347C19.3659 6.33416 19.3654 5.52488 19.3652 4.71566C19.4113 4.64993 19.4556 4.58309 19.4993 4.51701C19.5035 4.51053 19.5078 4.50407 19.5121 4.49762C19.5564 4.43032 19.6002 4.36398 19.6454 4.29889C19.7408 4.16156 19.8402 4.03313 19.9575 3.92238C20.0689 3.88839 20.1823 3.87952 20.3063 3.86983C20.329 3.86806 20.3522 3.86625 20.3757 3.86426C20.4601 4.15865 20.5306 4.4521 20.5389 4.75006C20.5346 5.56609 20.5352 6.37903 20.5357 7.19151C20.5364 8.07615 20.5369 8.96028 20.5311 9.84734C20.1646 10.2756 19.8025 10.7154 19.4948 11.195C19.4379 11.2789 19.397 11.3675 19.3673 11.4583C19.3675 10.0199 19.3669 8.58164 19.3663 7.14347Z" fill="url(#paint8_linear_451_1912)" stroke="url(#paint9_linear_451_1912)"/>
<path d="M16.0769 10.7121L16.0769 10.7162L16.0773 10.7202C16.1012 10.96 16.0316 11.1822 15.92 11.401C15.8461 11.5461 15.7582 11.6824 15.6692 11.8202C15.628 11.884 15.5867 11.9481 15.5464 12.0135C15.5097 12.0202 15.4648 12.0285 15.4264 12.0358C15.1927 11.7327 14.9977 11.3898 14.8769 11.0314C14.8562 9.87588 14.8567 8.72128 14.8573 7.56576C14.8577 6.71181 14.8581 5.85734 14.8499 5.0016V5.00137C14.8497 4.98268 14.8494 4.96399 14.8492 4.94533C14.845 4.61494 14.8409 4.28926 14.8818 3.96858C15.2586 3.93903 15.6377 3.94048 16.0161 3.9634C16.0694 4.23891 16.0656 4.51751 16.0616 4.80544C16.0602 4.90841 16.0587 5.0126 16.0599 5.11825C16.0634 6.06791 16.066 7.01651 16.0686 7.96517C16.0711 8.88043 16.0736 9.79575 16.0769 10.7121Z" fill="url(#paint10_linear_451_1912)" stroke="url(#paint11_linear_451_1912)"/>
<path d="M3.89559 13.6191C3.87513 13.6715 3.84996 13.7229 3.81897 13.7728C3.51539 14.2715 3.13832 14.7227 2.71849 15.1246C2.70991 15.8178 2.71107 16.5112 2.71442 17.2039L3.89559 13.6191ZM3.89559 13.6191C3.89716 14.7762 3.89755 15.9331 3.8938 17.0897ZM3.89559 13.6191L3.8938 17.0897ZM3.8938 17.0897C3.86266 17.5628 4.07219 17.9923 4.36162 18.3324C4.11827 18.6361 3.88453 18.9467 3.65963 19.2634C3.54567 19.1621 3.436 19.0553 3.33057 18.9459C2.94463 18.4506 2.71772 17.8325 2.71442 17.2039L3.8938 17.0897Z" fill="url(#paint12_linear_451_1912)"/>
<path d="M3.89559 13.6191C3.87513 13.6715 3.84996 13.7229 3.81897 13.7728C3.51539 14.2715 3.13832 14.7227 2.71849 15.1246C2.70991 15.8178 2.71107 16.5112 2.71442 17.2039M3.89559 13.6191L2.71442 17.2039M3.89559 13.6191C3.89716 14.7762 3.89755 15.9331 3.8938 17.0897M3.89559 13.6191L3.8938 17.0897M2.71442 17.2039C2.71772 17.8325 2.94463 18.4506 3.33057 18.9459C3.436 19.0553 3.54567 19.1621 3.65963 19.2634C3.88453 18.9467 4.11827 18.6361 4.36162 18.3324C4.07219 17.9923 3.86266 17.5628 3.8938 17.0897M2.71442 17.2039L3.8938 17.0897" stroke="url(#paint13_linear_451_1912)"/>
<path d="M20.6242 4.74902C20.6616 4.94406 20.6945 5.14021 20.7003 5.3398C20.6877 8.72483 20.7003 12.111 20.6935 15.4961C20.6844 16.0743 20.7513 16.6605 20.6264 17.2319C20.613 14.781 20.6288 12.33 20.6162 9.87903C20.6276 8.16941 20.615 6.45979 20.6242 4.74902Z" fill="url(#paint14_linear_451_1912)"/>
<mask id="mask0_451_1912" style="mask-type:luminance" maskUnits="userSpaceOnUse" x="20" y="4" width="1" height="14">
<path d="M20.6242 4.74902C20.6616 4.94406 20.6945 5.14021 20.7003 5.3398C20.6877 8.72483 20.7003 12.111 20.6935 15.4961C20.6844 16.0743 20.7513 16.6605 20.6264 17.2319C20.613 14.781 20.6288 12.33 20.6162 9.87903C20.6276 8.16941 20.615 6.45979 20.6242 4.74902Z" fill="white"/>
</mask>
<g mask="url(#mask0_451_1912)">
<path d="M20.6239 4.74888L20.7913 4.7168L20.4533 4.74795L20.6239 4.74888ZM20.6999 5.33965L20.8705 5.34028V5.33749V5.33469L20.6999 5.33965ZM20.6931 15.496L20.8637 15.4986V15.4963L20.6931 15.496ZM20.6261 17.2318L20.4555 17.2326L20.7927 17.2681L20.6261 17.2318ZM20.6159 9.87888L20.4453 9.87774V9.87975L20.6159 9.87888ZM20.4564 4.78095C20.4934 4.97454 20.5241 5.15946 20.5296 5.3446L20.8705 5.33469C20.8642 5.12066 20.829 4.91326 20.7913 4.7168L20.4564 4.78095ZM20.5294 5.33902C20.5168 8.72344 20.5294 12.1126 20.5226 15.4956L20.8637 15.4963C20.8705 12.1091 20.8579 8.72591 20.8705 5.34028L20.5294 5.33902ZM20.5226 15.4933C20.5181 15.7777 20.5326 16.0939 20.5325 16.3664C20.5325 16.6518 20.5181 16.9272 20.4595 17.1953L20.7927 17.2681C20.859 16.965 20.8735 16.6615 20.8735 16.3664C20.8737 16.0583 20.859 15.7924 20.8637 15.4986L20.5226 15.4933ZM20.7966 17.2308C20.79 16.006 20.7905 14.781 20.7912 13.5554C20.792 12.3301 20.7927 11.1041 20.7864 9.878L20.4453 9.87975C20.4516 11.1047 20.4509 12.3297 20.4501 13.5553C20.4494 14.7807 20.4489 16.0066 20.4555 17.2326L20.7966 17.2308ZM20.7864 9.88003C20.7978 8.17666 20.7854 6.45123 20.7944 4.7498L20.4533 4.74795C20.4441 6.46803 20.4569 8.16186 20.4453 9.87774L20.7864 9.88003Z" fill="url(#paint15_linear_451_1912)"/>
</g>
<path d="M3.67355 13.6835L3.67312 13.6841C3.40665 14.1219 3.08097 14.5235 2.71745 14.8871C2.70847 13.2552 2.70877 11.6234 2.71839 9.99166C2.95311 9.75947 3.15541 9.502 3.34988 9.2438C3.38966 9.19096 3.42908 9.13816 3.46837 9.08552C3.58253 8.93261 3.69562 8.78111 3.81377 8.63428C3.81771 9.19651 3.81415 9.76146 3.81058 10.3271C3.80546 11.1391 3.80033 11.9526 3.81735 12.7613C3.81631 12.8121 3.81611 12.862 3.81588 12.9115C3.81541 13.0263 3.81493 13.1383 3.80413 13.2504C3.78892 13.4084 3.75369 13.5545 3.67355 13.6835Z" fill="url(#paint16_linear_451_1912)" stroke="url(#paint17_linear_451_1912)"/>
<path d="M19.6362 11.29L19.6363 11.29L19.6375 11.288C19.9032 10.8737 20.2114 10.4881 20.5318 10.1094C20.5368 11.24 20.5361 12.3706 20.5354 13.5015V13.5555C20.5347 14.7806 20.5342 16.0061 20.5409 17.2315C20.5296 17.8934 20.2694 18.5428 19.8381 19.0435C19.3805 19.5057 18.7925 19.8549 18.148 19.9215C17.3093 19.8776 16.47 19.8723 15.6326 19.8683C15.6005 19.8683 15.5683 19.8681 15.5361 19.8679C14.7762 19.8643 14.018 19.8607 13.2607 19.8299C13.4817 19.4683 13.7232 19.1194 13.9744 18.7758C14.5106 18.7746 15.0474 18.7749 15.5843 18.7752C16.3194 18.7759 17.0546 18.7764 17.7887 18.7725C18.4753 18.7795 19.1157 18.2843 19.2993 17.6243L19.2998 17.622L19.3004 17.6198C19.3128 17.5639 19.3334 17.461 19.3479 17.3891C19.3512 17.3734 19.3541 17.3591 19.3565 17.3469L19.3566 17.3459C19.46 16.8018 19.4542 16.2457 19.4484 15.7006C19.4463 15.5172 19.4445 15.335 19.4467 15.155V15.1545C19.4482 14.8925 19.4508 14.6302 19.4533 14.3678C19.4598 13.6794 19.4665 12.99 19.4557 12.3016C19.4564 12.2625 19.4567 12.2235 19.4569 12.1846C19.4581 12.042 19.4593 11.9016 19.4758 11.7639C19.4965 11.5904 19.5412 11.4298 19.6362 11.29Z" fill="url(#paint18_linear_451_1912)" stroke="url(#paint19_linear_451_1912)"/>
<path d="M5.14419 19.9223C4.65386 19.8795 4.18609 19.6718 3.79102 19.3725C4.0153 19.0563 4.24836 18.7464 4.49097 18.4434C4.78814 18.6301 5.13024 18.789 5.50829 18.7749C6.0198 18.7769 6.52971 18.7761 7.03934 18.7752C7.58961 18.7744 8.13958 18.7735 8.69089 18.7763C8.65653 18.8346 8.62281 18.8933 8.5893 18.9516L8.58799 18.9538C8.52888 19.0566 8.47038 19.1583 8.40893 19.2575C8.2893 19.4506 8.16057 19.6308 8.00141 19.7828C7.85002 19.8336 7.68979 19.8519 7.52225 19.8577C7.43541 19.8606 7.3477 19.8602 7.25852 19.8595C7.25076 19.8595 7.24297 19.8594 7.23518 19.8594C7.15485 19.8587 7.07326 19.858 6.99234 19.8599C6.37388 19.8394 5.75631 19.8793 5.14419 19.9223Z" fill="url(#paint20_linear_451_1912)" stroke="url(#paint21_linear_451_1912)"/>
<path d="M8.88923 18.7772C10.5148 18.775 12.1392 18.774 13.7637 18.776C13.5086 19.1287 13.2635 19.4896 13.0404 19.8654L12.9894 19.9512C11.3398 19.9505 9.69032 19.95 8.04102 19.9495C8.05239 19.9458 8.06373 19.942 8.07507 19.9381L8.09192 19.9321L8.10497 19.9198C8.28602 19.7505 8.42772 19.5513 8.55403 19.3475C8.61719 19.2455 8.67705 19.1413 8.73594 19.039L8.73652 19.038C8.7874 18.9494 8.83754 18.8623 8.88923 18.7772Z" fill="url(#paint22_linear_451_1912)" stroke="url(#paint23_linear_451_1912)"/>
<path d="M19.1812 2.33822C19.7524 2.65299 20.1736 3.1822 20.4381 3.77298C20.5312 4.0912 20.6152 4.41623 20.6244 4.74927C20.6617 4.94429 20.6946 5.14046 20.7003 5.34005C20.6878 8.72508 20.7004 12.1112 20.6934 15.4963C20.6844 16.0745 20.7514 16.6608 20.6266 17.2322C20.6152 17.9164 20.3462 18.5859 19.9011 19.1015C19.4321 19.5759 18.8236 19.9397 18.1503 20.0071C17.9165 20.0309 17.6803 20.0378 17.4453 20.0389C14.2171 20.0369 10.9888 20.0357 7.76132 20.0347L6.54037 20.0343C6.07489 20.0309 5.60825 20.0492 5.14392 20.0081C4.60463 19.9625 4.09486 19.7253 3.67478 19.3899C3.53173 19.2679 3.39548 19.1368 3.26605 19.0022C2.86755 18.4923 2.63254 17.8548 2.62913 17.2047C2.62572 16.4999 2.62458 15.794 2.63367 15.088C2.62345 13.3772 2.62345 11.6664 2.63367 9.95568C2.62118 8.2301 2.62686 6.50337 2.63025 4.77777C2.62345 3.33846 3.85644 2.03143 5.29036 1.97667C6.54946 1.96185 7.80856 1.96983 9.06766 1.97326C10.5645 1.96758 12.0614 1.96869 13.5583 1.96982L13.5806 1.96983C13.8929 1.94132 14.2107 2.13521 14.297 2.44316C14.3958 2.70661 14.2312 2.96094 14.1461 3.20159C13.5511 3.34871 12.9357 3.30766 12.3295 3.3088C10.958 3.30651 9.5865 3.30994 8.215 3.30651C7.27607 3.31906 6.33715 3.28941 5.4005 3.31678C4.85326 3.33046 4.35258 3.67831 4.12209 4.17331C4.07102 4.28507 4.03014 4.40027 3.99835 4.52001C3.95181 8.71024 3.99267 12.9016 3.97904 17.093C3.94725 17.5618 4.16751 17.9918 4.47292 18.3304C4.78174 18.5324 5.12802 18.7046 5.50721 18.6898C6.61872 18.6942 7.73021 18.6852 8.84172 18.692C10.5391 18.6898 12.2352 18.6886 13.9315 18.691C15.2178 18.6874 16.5042 18.6942 17.7893 18.6874C18.4365 18.6942 19.0439 18.2256 19.2176 17.6015C19.2324 17.5344 19.2597 17.3976 19.2733 17.3302C19.2868 13.116 19.2812 8.90186 19.2801 4.68881C19.2131 4.19611 18.9338 3.72508 18.4852 3.49469C18.0323 3.23352 17.4942 3.37722 17.0071 3.27686C16.7188 3.20386 16.6222 2.89365 16.5018 2.65871C16.6029 2.39297 16.7176 2.06222 17.0344 1.99721C17.7598 1.91395 18.5386 1.95616 19.1812 2.33822Z" fill="url(#paint24_linear_451_1912)"/>
<path d="M15.065 2.02195C14.7516 2.07897 14.7516 2.44621 14.7471 2.69599C14.7754 2.88986 14.7277 3.12368 14.8561 3.28791C15.2523 3.33353 15.6554 3.3381 16.0504 3.2845C16.2037 3.11341 16.1231 2.84197 16.1492 2.62984C16.1469 2.4177 16.1504 2.15994 15.9335 2.04704C15.6519 1.96948 15.3511 1.98432 15.065 2.02195Z" fill="url(#paint25_linear_451_1912)"/>
<path d="M16.0865 3.88226C15.6607 3.85374 15.2327 3.85146 14.807 3.8891C14.7524 4.25749 14.7604 4.63159 14.765 5.00224C14.7842 7.01639 14.7558 9.0328 14.7922 11.0458C14.9217 11.4358 15.1362 11.8065 15.3917 12.1293C15.4439 12.119 15.5472 12.0996 15.5995 12.0905C15.8549 11.6685 16.2147 11.2363 16.1625 10.7116C16.1558 8.84691 16.1523 6.98218 16.1455 5.11743C16.141 4.70571 16.1785 4.28829 16.0865 3.88226Z" fill="url(#paint26_linear_451_1912)"/>
<path d="M20.4381 3.77298C20.1736 3.1822 19.7524 2.65299 19.1812 2.33822C18.5386 1.95616 17.7598 1.91395 17.0344 1.99721C16.7176 2.06222 16.6029 2.39297 16.5018 2.65871C16.6222 2.89365 16.7188 3.20386 17.0071 3.27686C17.4942 3.37722 18.0323 3.23352 18.4852 3.49469C18.9338 3.72508 19.2131 4.19611 19.2801 4.68881M20.4381 3.77298C20.2621 3.79123 20.0827 3.79123 19.9135 3.84712C19.6536 4.08663 19.4833 4.40254 19.2801 4.68881M20.4381 3.77298C20.5312 4.0912 20.6152 4.41623 20.6244 4.74927M19.2801 4.68881C19.2812 8.90186 19.2868 13.116 19.2733 17.3302M20.6244 4.74927C20.6152 6.46003 20.6278 8.16964 20.6163 9.87928M20.6244 4.74927C20.6617 4.94429 20.6946 5.14046 20.7003 5.34005C20.6878 8.72508 20.7004 12.1112 20.6934 15.4963C20.6844 16.0745 20.7514 16.6608 20.6266 17.2322M19.2733 17.3302C19.4094 16.6128 19.3528 15.8795 19.3618 15.1541C19.3675 14.203 19.3855 13.2518 19.3709 12.3018C19.3765 11.9436 19.355 11.5524 19.5661 11.2422C19.8762 10.7586 20.2429 10.3149 20.6163 9.87928M19.2733 17.3302C19.2597 17.3976 19.2324 17.5344 19.2176 17.6015C19.0439 18.2256 18.4365 18.6942 17.7893 18.6874C16.5042 18.6942 15.2178 18.6874 13.9315 18.691M20.6163 9.87928C20.6288 12.3302 20.6129 14.7812 20.6266 17.2322M20.6266 17.2322C20.6152 17.9164 20.3462 18.5859 19.9011 19.1015C19.4321 19.5759 18.8236 19.9397 18.1503 20.0071M13.9315 18.691C13.6419 19.0854 13.3638 19.4881 13.114 19.909C14.792 19.9854 16.4735 19.9192 18.1503 20.0071M13.9315 18.691C12.2352 18.6886 10.5391 18.6898 8.84172 18.692M18.1503 20.0071C17.9165 20.0309 17.6803 20.0378 17.4453 20.0389C13.81 20.0366 10.1746 20.0355 6.54037 20.0343C6.07489 20.0309 5.60825 20.0492 5.14392 20.0081M8.84172 18.692C7.73021 18.6852 6.61872 18.6942 5.50721 18.6898C5.12802 18.7046 4.78174 18.5324 4.47292 18.3304M8.84172 18.692C8.59534 19.09 8.39327 19.5338 8.04698 19.8577C7.71092 19.9762 7.34421 19.9375 6.99226 19.9455C6.37576 19.9249 5.75925 19.9649 5.14392 20.0081M9.06766 1.97326C7.80856 1.96983 6.54946 1.96185 5.29036 1.97667C3.85644 2.03143 2.62345 3.33846 2.63025 4.77777C2.62686 6.50337 2.62118 8.2301 2.63367 9.95568M9.06766 1.97326C8.79176 2.42261 8.49317 2.85829 8.215 3.30651M9.06766 1.97326C10.572 1.96755 12.0763 1.96871 13.5806 1.96983C13.8929 1.94132 14.2107 2.13521 14.297 2.44316C14.3958 2.70661 14.2312 2.96094 14.1461 3.20159C13.5511 3.34871 12.9357 3.30766 12.3295 3.3088C10.958 3.30651 9.5865 3.30994 8.215 3.30651M2.63367 9.95568C3.11506 9.48807 3.4602 8.90642 3.8973 8.40117M2.63367 9.95568C2.62345 11.6664 2.62345 13.3772 2.63367 15.088M8.215 3.30651C7.27607 3.31906 6.33715 3.28941 5.4005 3.31678C4.85326 3.33046 4.35258 3.67831 4.12209 4.17331C4.07102 4.28507 4.03014 4.40027 3.99835 4.52001M3.8973 8.40117C3.95747 7.10898 3.81669 5.80309 3.99835 4.52001M3.8973 8.40117C3.9132 9.85419 3.87232 11.3083 3.90298 12.7614C3.89618 13.0863 3.92568 13.4399 3.7463 13.7285C3.4409 14.2303 3.05943 14.6842 2.63367 15.088M2.63367 15.088C2.62458 15.794 2.62572 16.4999 2.62913 17.2047C2.63254 17.8548 2.86755 18.4923 3.26605 19.0022C3.39548 19.1368 3.53173 19.2679 3.67478 19.3899M3.99835 4.52001C3.95181 8.71024 3.99267 12.9016 3.97904 17.093C3.94725 17.5618 4.16751 17.9918 4.47292 18.3304M3.67478 19.3899C3.92909 19.0285 4.19476 18.6749 4.47292 18.3304M3.67478 19.3899C4.09486 19.7253 4.60463 19.9625 5.14392 20.0081M14.7466 2.69635C14.7511 2.44657 14.7511 2.07932 15.0646 2.02231C15.3507 1.98467 15.6515 1.96983 15.933 2.0474C16.15 2.1603 16.1465 2.41805 16.1488 2.63019C16.1226 2.84233 16.2032 3.11377 16.05 3.28485C15.6549 3.33846 15.2519 3.33388 14.8556 3.28826C14.7273 3.12403 14.775 2.89022 14.7466 2.69635ZM14.8069 3.88931C15.2325 3.85167 15.6606 3.85395 16.0864 3.88247C16.1783 4.2885 16.1408 4.70592 16.1453 5.11764C16.1522 6.98239 16.1556 8.84712 16.1624 10.7118C16.2146 11.2365 15.8547 11.6687 15.5993 12.0907C15.5471 12.0999 15.4438 12.1192 15.3915 12.1295C15.136 11.8067 14.9215 11.436 14.792 11.046C14.7557 9.03301 14.784 7.0166 14.7648 5.00246C14.7603 4.6318 14.7523 4.2577 14.8069 3.88931Z" stroke="url(#paint27_linear_451_1912)" stroke-width="0.6"/>
<defs>
<linearGradient id="paint0_linear_451_1912" x1="18.4699" y1="4.68851" x2="18.4699" y2="1.96112" gradientUnits="userSpaceOnUse">
<stop stop-color="#02AA93"/>
<stop offset="1" stop-color="#67FF80"/>
</linearGradient>
<linearGradient id="paint1_linear_451_1912" x1="18.4699" y1="4.68851" x2="18.4699" y2="1.96112" gradientUnits="userSpaceOnUse">
<stop stop-color="#02AA93"/>
<stop offset="1" stop-color="#67FF80"/>
</linearGradient>
<linearGradient id="paint2_linear_451_1912" x1="5.8465" y1="9.95561" x2="5.8465" y2="1.96796" gradientUnits="userSpaceOnUse">
<stop stop-color="#02AA93"/>
<stop offset="1" stop-color="#67FF80"/>
</linearGradient>
<linearGradient id="paint3_linear_451_1912" x1="5.8465" y1="9.95561" x2="5.8465" y2="1.96796" gradientUnits="userSpaceOnUse">
<stop stop-color="#02AA93"/>
<stop offset="1" stop-color="#67FF80"/>
</linearGradient>
<linearGradient id="paint4_linear_451_1912" x1="11.2716" y1="3.31315" x2="11.2716" y2="1.96699" gradientUnits="userSpaceOnUse">
<stop stop-color="#02AA93"/>
<stop offset="1" stop-color="#67FF80"/>
</linearGradient>
<linearGradient id="paint5_linear_451_1912" x1="11.2716" y1="3.31315" x2="11.2716" y2="1.96699" gradientUnits="userSpaceOnUse">
<stop stop-color="#02AA93"/>
<stop offset="1" stop-color="#67FF80"/>
</linearGradient>
<linearGradient id="paint6_linear_451_1912" x1="15.4477" y1="3.32359" x2="15.4477" y2="1.99139" gradientUnits="userSpaceOnUse">
<stop stop-color="#02AA93"/>
<stop offset="1" stop-color="#67FF80"/>
</linearGradient>
<linearGradient id="paint7_linear_451_1912" x1="15.4477" y1="3.32359" x2="15.4477" y2="1.99139" gradientUnits="userSpaceOnUse">
<stop stop-color="#02AA93"/>
<stop offset="1" stop-color="#67FF80"/>
</linearGradient>
<linearGradient id="paint8_linear_451_1912" x1="19.9487" y1="17.3301" x2="19.9487" y2="3.77281" gradientUnits="userSpaceOnUse">
<stop stop-color="#02AA93"/>
<stop offset="1" stop-color="#67FF80"/>
</linearGradient>
<linearGradient id="paint9_linear_451_1912" x1="19.9487" y1="17.3301" x2="19.9487" y2="3.77281" gradientUnits="userSpaceOnUse">
<stop stop-color="#02AA93"/>
<stop offset="1" stop-color="#67FF80"/>
</linearGradient>
<linearGradient id="paint10_linear_451_1912" x1="15.4643" y1="12.1295" x2="15.4643" y2="3.86102" gradientUnits="userSpaceOnUse">
<stop stop-color="#02AA93"/>
<stop offset="1" stop-color="#67FF80"/>
</linearGradient>
<linearGradient id="paint11_linear_451_1912" x1="15.4643" y1="12.1295" x2="15.4643" y2="3.86102" gradientUnits="userSpaceOnUse">
<stop stop-color="#02AA93"/>
<stop offset="1" stop-color="#67FF80"/>
</linearGradient>
<linearGradient id="paint12_linear_451_1912" x1="3.54978" y1="19.3896" x2="3.54978" y2="4.51963" gradientUnits="userSpaceOnUse">
<stop stop-color="#02AA93"/>
<stop offset="1" stop-color="#67FF80"/>
</linearGradient>
<linearGradient id="paint13_linear_451_1912" x1="3.54978" y1="19.3896" x2="3.54978" y2="4.51963" gradientUnits="userSpaceOnUse">
<stop stop-color="#02AA93"/>
<stop offset="1" stop-color="#67FF80"/>
</linearGradient>
<linearGradient id="paint14_linear_451_1912" x1="20.6599" y1="17.2319" x2="20.6599" y2="4.74902" gradientUnits="userSpaceOnUse">
<stop stop-color="#02AA93"/>
<stop offset="1" stop-color="#67FF80"/>
</linearGradient>
<linearGradient id="paint15_linear_451_1912" x1="20.6595" y1="17.2318" x2="20.6595" y2="4.74888" gradientUnits="userSpaceOnUse">
<stop stop-color="#02AA93"/>
<stop offset="1" stop-color="#67FF80"/>
</linearGradient>
<linearGradient id="paint16_linear_451_1912" x1="3.26416" y1="15.088" x2="3.26416" y2="8.40115" gradientUnits="userSpaceOnUse">
<stop stop-color="#02AA93"/>
<stop offset="1" stop-color="#67FF80"/>
</linearGradient>
<linearGradient id="paint17_linear_451_1912" x1="3.26416" y1="15.088" x2="3.26416" y2="8.40115" gradientUnits="userSpaceOnUse">
<stop stop-color="#02AA93"/>
<stop offset="1" stop-color="#67FF80"/>
</linearGradient>
<linearGradient id="paint18_linear_451_1912" x1="16.8699" y1="20.0069" x2="16.8699" y2="9.87909" gradientUnits="userSpaceOnUse">
<stop stop-color="#02AA93"/>
<stop offset="1" stop-color="#67FF80"/>
</linearGradient>
<linearGradient id="paint19_linear_451_1912" x1="16.8699" y1="20.0069" x2="16.8699" y2="9.87909" gradientUnits="userSpaceOnUse">
<stop stop-color="#02AA93"/>
<stop offset="1" stop-color="#67FF80"/>
</linearGradient>
<linearGradient id="paint20_linear_451_1912" x1="6.25785" y1="20.0079" x2="6.25785" y2="18.3303" gradientUnits="userSpaceOnUse">
<stop stop-color="#02AA93"/>
<stop offset="1" stop-color="#67FF80"/>
</linearGradient>
<linearGradient id="paint21_linear_451_1912" x1="6.25785" y1="20.0079" x2="6.25785" y2="18.3303" gradientUnits="userSpaceOnUse">
<stop stop-color="#02AA93"/>
<stop offset="1" stop-color="#67FF80"/>
</linearGradient>
<linearGradient id="paint22_linear_451_1912" x1="11.6469" y1="20.0389" x2="11.6469" y2="18.6895" gradientUnits="userSpaceOnUse">
<stop stop-color="#02AA93"/>
<stop offset="1" stop-color="#67FF80"/>
</linearGradient>
<linearGradient id="paint23_linear_451_1912" x1="11.6469" y1="20.0389" x2="11.6469" y2="18.6895" gradientUnits="userSpaceOnUse">
<stop stop-color="#02AA93"/>
<stop offset="1" stop-color="#67FF80"/>
</linearGradient>
<linearGradient id="paint24_linear_451_1912" x1="11.6647" y1="20.0389" x2="11.6647" y2="1.96143" gradientUnits="userSpaceOnUse">
<stop stop-color="#02AA93"/>
<stop offset="1" stop-color="#67FF80"/>
</linearGradient>
<linearGradient id="paint25_linear_451_1912" x1="11.6651" y1="20.0386" x2="11.6651" y2="1.96107" gradientUnits="userSpaceOnUse">
<stop stop-color="#02AA93"/>
<stop offset="1" stop-color="#67FF80"/>
</linearGradient>
<linearGradient id="paint26_linear_451_1912" x1="11.6648" y1="20.0387" x2="11.6648" y2="1.96121" gradientUnits="userSpaceOnUse">
<stop stop-color="#02AA93"/>
<stop offset="1" stop-color="#67FF80"/>
</linearGradient>
<linearGradient id="paint27_linear_451_1912" x1="11.6647" y1="20.0389" x2="11.6647" y2="1.96143" gradientUnits="userSpaceOnUse">
<stop stop-color="#02AA93"/>
<stop offset="1" stop-color="#67FF80"/>
</linearGradient>
</defs>
</svg>
