<svg width="23" height="22" viewBox="0 0 23 22" fill="none" xmlns="http://www.w3.org/2000/svg">
<path d="M19.3794 2.4126C19.8954 2.6971 20.2879 3.16507 20.5483 3.69818L20.5478 3.69822C20.4124 3.70869 20.2643 3.72015 20.1258 3.76584L20.1085 3.77162L20.0948 3.7841C19.9582 3.91001 19.8465 4.0547 19.7445 4.20149C19.6981 4.26834 19.6533 4.33635 19.6091 4.40336C19.6048 4.40989 19.6004 4.41641 19.5961 4.42292C19.5854 4.43931 19.5745 4.45565 19.5637 4.4719C19.4524 4.0342 19.1781 3.6324 18.7653 3.41948C18.5205 3.27897 18.256 3.24931 18.0013 3.23995C17.9348 3.23751 17.8696 3.23639 17.8054 3.2353C17.6179 3.23211 17.4394 3.22905 17.2653 3.19343C17.1509 3.16389 17.0707 3.08761 17.0021 2.98182C16.9545 2.90831 16.9178 2.83017 16.8795 2.74882C16.8648 2.71754 16.8499 2.68577 16.834 2.65363C16.8813 2.52901 16.9294 2.40375 16.9978 2.29896C17.0702 2.18791 17.16 2.10837 17.2871 2.08116C18.0036 1.99941 18.7588 2.0437 19.3768 2.41122L19.378 2.41192L19.3794 2.4126Z" fill="url(#paint0_linear_451_1968)" stroke="url(#paint1_linear_451_1968)"/>
<path d="M2.95448 4.77787V4.77729C2.94788 3.38348 4.14481 2.11544 5.53144 2.06186C6.57987 2.04953 7.62827 2.05301 8.67739 2.0565C8.83612 2.05703 8.99487 2.05756 9.15363 2.05802C9.04126 2.23746 8.92575 2.41534 8.80967 2.59373C8.80245 2.60481 8.79524 2.6159 8.78801 2.62698C8.65984 2.82387 8.53117 3.02158 8.40621 3.22177C8.02621 3.22629 7.64329 3.2241 7.25967 3.22192C6.7182 3.21883 6.17529 3.21575 5.63713 3.23147C5.0556 3.24607 4.52702 3.6148 4.28374 4.13724L4.28348 4.1378C4.23032 4.2541 4.18786 4.37383 4.15487 4.49806L4.15358 4.50297L4.15286 4.50798C4.06111 5.15608 4.05096 5.80854 4.05594 6.45775C4.0571 6.60931 4.05908 6.76056 4.06106 6.91153C4.06744 7.39926 4.07378 7.88418 4.0524 8.36781C3.88185 8.567 3.72461 8.77767 3.56938 8.98561C3.5305 9.03771 3.49174 9.08963 3.45292 9.14117C3.29401 9.35218 3.13344 9.55777 2.95647 9.74787C2.94709 8.28436 2.95018 6.82008 2.95328 5.35599C2.95369 5.16328 2.9541 4.97056 2.95448 4.77787Z" fill="url(#paint2_linear_451_1968)" stroke="url(#paint3_linear_451_1968)"/>
<path d="M8.6084 3.22153C9.30537 3.22302 10.0019 3.22286 10.6986 3.22269C11.3219 3.22256 11.9452 3.22242 12.5691 3.22346C12.569 3.22346 12.5691 3.22346 12.5691 3.22346V3.30873C12.68 3.30851 12.7912 3.30972 12.9026 3.31093C13.3998 3.3163 13.8996 3.32171 14.3857 3.20151L8.6084 3.22153ZM8.6084 3.22153C8.71449 3.05355 8.82299 2.88684 8.93187 2.71958C8.939 2.70864 8.94611 2.6977 8.95324 2.68675C9.08849 2.47892 9.22404 2.27014 9.35498 2.05828C10.8433 2.05277 12.3316 2.0539 13.8202 2.05504H13.8241L13.828 2.05468C14.1038 2.02949 14.3805 2.202 14.4545 2.4661L14.4555 2.46961L14.4567 2.47302C14.4968 2.5797 14.4854 2.68777 14.4487 2.8055C14.4303 2.86459 14.4062 2.9239 14.3804 2.98562C14.377 2.99377 14.3735 3.00199 14.37 3.01027C14.3537 3.04913 14.3369 3.08912 14.3215 3.12919L8.6084 3.22153Z" fill="url(#paint4_linear_451_1968)"/>
<path d="M8.6084 3.22153C9.30537 3.22302 10.0019 3.22286 10.6986 3.22269C11.3219 3.22256 11.9452 3.22242 12.5691 3.22346M8.6084 3.22153L14.3857 3.20151C13.8996 3.32171 13.3998 3.3163 12.9026 3.31093C12.7912 3.30972 12.68 3.30851 12.5691 3.30873V3.22346M8.6084 3.22153C8.71449 3.05355 8.82299 2.88684 8.93187 2.71958C8.939 2.70864 8.94611 2.6977 8.95324 2.68675C9.08849 2.47892 9.22404 2.27014 9.35498 2.05828C10.8433 2.05277 12.3316 2.0539 13.8202 2.05504H13.8241L13.828 2.05468C14.1038 2.02949 14.3805 2.202 14.4545 2.4661L14.4555 2.46961L14.4567 2.47302C14.4968 2.5797 14.4854 2.68777 14.4487 2.8055C14.4303 2.86459 14.4062 2.9239 14.3804 2.98562C14.377 2.99377 14.3735 3.00199 14.37 3.01027C14.3537 3.04913 14.3369 3.08912 14.3215 3.12919L8.6084 3.22153ZM12.5691 3.22346C12.5691 3.22346 12.569 3.22346 12.5691 3.22346Z" stroke="url(#paint5_linear_451_1968)"/>
<path d="M15.0821 2.84484C15.0806 2.79503 15.0784 2.74238 15.0713 2.69091C15.0713 2.68961 15.0713 2.68832 15.0714 2.687C15.0736 2.56137 15.076 2.42491 15.1106 2.31176C15.1442 2.20154 15.2032 2.12781 15.3171 2.10637C15.5959 2.06983 15.8789 2.05697 16.1405 2.12694C16.2162 2.1692 16.2562 2.23587 16.278 2.32228C16.3005 2.41141 16.3016 2.51239 16.3027 2.61679C16.3027 2.61967 16.3027 2.62254 16.3028 2.6254C16.2961 2.68334 16.2965 2.74332 16.2979 2.79992C16.2983 2.81556 16.2988 2.83086 16.2992 2.8459C16.3006 2.88903 16.3019 2.93004 16.3011 2.97106C16.2992 3.06832 16.2853 3.1453 16.2441 3.2046C15.8806 3.25077 15.5096 3.24734 15.1429 3.20764C15.1086 3.1504 15.0942 3.08063 15.088 2.99693C15.0851 2.95841 15.0841 2.91971 15.083 2.87893C15.0827 2.86775 15.0824 2.85639 15.0821 2.84484Z" fill="url(#paint6_linear_451_1968)" stroke="url(#paint7_linear_451_1968)"/>
<path d="M19.6055 7.14347C19.6052 6.33416 19.6047 5.52488 19.6045 4.71566C19.6505 4.64993 19.6949 4.58309 19.7385 4.51701C19.7428 4.51053 19.7471 4.50407 19.7513 4.49762C19.7957 4.43032 19.8395 4.36398 19.8847 4.29889C19.98 4.16156 20.0795 4.03313 20.1968 3.92238C20.3082 3.88839 20.4216 3.87952 20.5455 3.86983C20.5682 3.86806 20.5914 3.86625 20.615 3.86426C20.6994 4.15865 20.7698 4.4521 20.7782 4.75006C20.7739 5.56609 20.7744 6.37903 20.7749 7.19151C20.7756 8.07615 20.7761 8.96028 20.7703 9.84734C20.4038 10.2756 20.0418 10.7154 19.7341 11.195C19.6771 11.2789 19.6362 11.3675 19.6065 11.4583C19.6067 10.0199 19.6062 8.58164 19.6055 7.14347Z" fill="url(#paint8_linear_451_1968)" stroke="url(#paint9_linear_451_1968)"/>
<path d="M16.3162 10.7121L16.3162 10.7162L16.3166 10.7202C16.3404 10.96 16.2708 11.1822 16.1593 11.401C16.0854 11.5461 15.9974 11.6824 15.9084 11.8202C15.8673 11.884 15.8259 11.9481 15.7856 12.0135C15.749 12.0202 15.7041 12.0285 15.6657 12.0358C15.432 11.7327 15.2369 11.3898 15.1161 11.0314C15.0954 9.87588 15.096 8.72128 15.0965 7.56576C15.0969 6.71181 15.0973 5.85734 15.0892 5.0016V5.00137C15.0889 4.98268 15.0887 4.96399 15.0885 4.94533C15.0843 4.61494 15.0802 4.28926 15.1211 3.96858C15.4979 3.93903 15.877 3.94048 16.2553 3.9634C16.3087 4.23891 16.3048 4.51751 16.3009 4.80544C16.2994 4.90841 16.298 5.0126 16.2991 5.11825C16.3026 6.06791 16.3052 7.01651 16.3078 7.96517C16.3103 8.88043 16.3128 9.79575 16.3162 10.7121Z" fill="url(#paint10_linear_451_1968)" stroke="url(#paint11_linear_451_1968)"/>
<path d="M4.13485 13.6191C4.11439 13.6715 4.08921 13.7229 4.05823 13.7728C3.75464 14.2715 3.37757 14.7227 2.95775 15.1246C2.94917 15.8178 2.95033 16.5112 2.95367 17.2039L4.13485 13.6191ZM4.13485 13.6191C4.13642 14.7762 4.13681 15.9331 4.13306 17.0897ZM4.13485 13.6191L4.13306 17.0897ZM4.13306 17.0897C4.10192 17.5628 4.31145 17.9923 4.60088 18.3324C4.35753 18.6361 4.12378 18.9467 3.89889 19.2634C3.78493 19.1621 3.67526 19.0553 3.56983 18.9459C3.18389 18.4506 2.95698 17.8325 2.95367 17.2039L4.13306 17.0897Z" fill="url(#paint12_linear_451_1968)"/>
<path d="M4.13485 13.6191C4.11439 13.6715 4.08921 13.7229 4.05823 13.7728C3.75464 14.2715 3.37757 14.7227 2.95775 15.1246C2.94917 15.8178 2.95033 16.5112 2.95367 17.2039M4.13485 13.6191L2.95367 17.2039M4.13485 13.6191C4.13642 14.7762 4.13681 15.9331 4.13306 17.0897M4.13485 13.6191L4.13306 17.0897M2.95367 17.2039C2.95698 17.8325 3.18389 18.4506 3.56983 18.9459C3.67526 19.0553 3.78493 19.1621 3.89889 19.2634C4.12378 18.9467 4.35753 18.6361 4.60088 18.3324C4.31145 17.9923 4.10192 17.5628 4.13306 17.0897M2.95367 17.2039L4.13306 17.0897" stroke="url(#paint13_linear_451_1968)"/>
<path d="M20.8635 4.74902C20.9008 4.94406 20.9337 5.14021 20.9395 5.3398C20.9269 8.72483 20.9395 12.111 20.9327 15.4961C20.9237 16.0743 20.9905 16.6605 20.8657 17.2319C20.8522 14.781 20.8681 12.33 20.8555 9.87903C20.8669 8.16941 20.8543 6.45979 20.8635 4.74902Z" fill="url(#paint14_linear_451_1968)"/>
<mask id="mask0_451_1968" style="mask-type:luminance" maskUnits="userSpaceOnUse" x="20" y="4" width="1" height="14">
<path d="M20.8635 4.74902C20.9008 4.94406 20.9337 5.14021 20.9395 5.3398C20.9269 8.72483 20.9395 12.111 20.9327 15.4961C20.9237 16.0743 20.9905 16.6605 20.8657 17.2319C20.8522 14.781 20.8681 12.33 20.8555 9.87903C20.8669 8.16941 20.8543 6.45979 20.8635 4.74902Z" fill="white"/>
</mask>
<g mask="url(#mask0_451_1968)">
<path d="M20.8631 4.74888L21.0306 4.7168L20.6926 4.74795L20.8631 4.74888ZM20.9392 5.33965L21.1097 5.34028V5.33749V5.33469L20.9392 5.33965ZM20.9324 15.496L21.1029 15.4986V15.4963L20.9324 15.496ZM20.8653 17.2318L20.6948 17.2326L21.032 17.2681L20.8653 17.2318ZM20.8551 9.87888L20.6846 9.87774V9.87975L20.8551 9.87888ZM20.6957 4.78095C20.7327 4.97454 20.7634 5.15946 20.7688 5.3446L21.1097 5.33469C21.1034 5.12066 21.0683 4.91326 21.0306 4.7168L20.6957 4.78095ZM20.7686 5.33902C20.756 8.72344 20.7686 12.1126 20.7618 15.4956L21.1029 15.4963C21.1097 12.1091 21.0971 8.72591 21.1097 5.34028L20.7686 5.33902ZM20.7618 15.4933C20.7574 15.7777 20.7719 16.0939 20.7717 16.3664C20.7717 16.6518 20.7574 16.9272 20.6987 17.1953L21.032 17.2681C21.0983 16.965 21.1128 16.6615 21.1128 16.3664C21.113 16.0583 21.0983 15.7924 21.1029 15.4986L20.7618 15.4933ZM21.0359 17.2308C21.0292 16.006 21.0297 14.781 21.0304 13.5554C21.0313 12.3301 21.032 11.1041 21.0257 9.878L20.6846 9.87975C20.6909 11.1047 20.6902 12.3297 20.6893 13.5553C20.6887 14.7807 20.6882 16.0066 20.6948 17.2326L21.0359 17.2308ZM21.0257 9.88003C21.0371 8.17666 21.0246 6.45123 21.0337 4.7498L20.6926 4.74795C20.6834 6.46803 20.6962 8.16186 20.6846 9.87774L21.0257 9.88003Z" fill="url(#paint15_linear_451_1968)"/>
</g>
<path d="M3.91281 13.6835L3.91238 13.6841C3.64591 14.1219 3.32022 14.5235 2.95671 14.8871C2.94772 13.2552 2.94803 11.6234 2.95765 9.99166C3.19237 9.75947 3.39466 9.502 3.58913 9.2438C3.62892 9.19096 3.66833 9.13816 3.70763 9.08552C3.82179 8.93261 3.93488 8.78111 4.05303 8.63428C4.05697 9.19651 4.0534 9.76146 4.04984 10.3271C4.04472 11.1391 4.03959 11.9526 4.05661 12.7613C4.05557 12.8121 4.05536 12.862 4.05514 12.9115C4.05466 13.0263 4.05419 13.1383 4.04339 13.2504C4.02818 13.4084 3.99295 13.5545 3.91281 13.6835Z" fill="url(#paint16_linear_451_1968)" stroke="url(#paint17_linear_451_1968)"/>
<path d="M19.8754 11.29L19.8756 11.29L19.8768 11.288C20.1425 10.8737 20.4507 10.4881 20.7711 10.1094C20.776 11.24 20.7754 12.3706 20.7747 13.5015V13.5555C20.774 14.7806 20.7735 16.0061 20.7801 17.2315C20.7689 17.8934 20.5086 18.5428 20.0773 19.0435C19.6198 19.5057 19.0317 19.8549 18.3873 19.9215C17.5486 19.8776 16.7093 19.8723 15.8719 19.8683C15.8397 19.8683 15.8076 19.8681 15.7754 19.8679C15.0155 19.8643 14.2573 19.8607 13.5 19.8299C13.721 19.4683 13.9625 19.1194 14.2137 18.7758C14.7499 18.7746 15.2867 18.7749 15.8236 18.7752C16.5586 18.7759 17.2939 18.7764 18.028 18.7725C18.7145 18.7795 19.3549 18.2843 19.5386 17.6243L19.5391 17.622L19.5396 17.6198C19.5521 17.5639 19.5727 17.461 19.5872 17.3891C19.5904 17.3734 19.5933 17.3591 19.5957 17.3469L19.5959 17.3459C19.6992 16.8018 19.6934 16.2457 19.6876 15.7006C19.6856 15.5172 19.6837 15.335 19.6859 15.155V15.1545C19.6875 14.8925 19.69 14.6302 19.6926 14.3678C19.6991 13.6794 19.7057 12.99 19.695 12.3016C19.6957 12.2625 19.696 12.2235 19.6962 12.1846C19.6974 12.042 19.6986 11.9016 19.7151 11.7639C19.7357 11.5904 19.7804 11.4298 19.8754 11.29Z" fill="url(#paint18_linear_451_1968)" stroke="url(#paint19_linear_451_1968)"/>
<path d="M5.38344 19.9223C4.89312 19.8795 4.42535 19.6718 4.03027 19.3725C4.25455 19.0563 4.48762 18.7464 4.73023 18.4434C5.0274 18.6301 5.36949 18.789 5.74755 18.7749C6.25906 18.7769 6.76897 18.7761 7.2786 18.7752C7.82887 18.7744 8.37884 18.7735 8.93015 18.7763C8.89579 18.8346 8.86207 18.8933 8.82856 18.9516L8.82725 18.9538C8.76814 19.0566 8.70964 19.1583 8.64819 19.2575C8.52856 19.4506 8.39983 19.6308 8.24066 19.7828C8.08927 19.8336 7.92905 19.8519 7.76151 19.8577C7.67467 19.8606 7.58696 19.8602 7.49778 19.8595C7.49002 19.8595 7.48223 19.8594 7.47443 19.8594C7.39411 19.8587 7.31252 19.858 7.2316 19.8599C6.61314 19.8394 5.99557 19.8793 5.38344 19.9223Z" fill="url(#paint20_linear_451_1968)" stroke="url(#paint21_linear_451_1968)"/>
<path d="M9.12848 18.7772C10.7541 18.775 12.3785 18.774 14.003 18.776C13.7479 19.1287 13.5027 19.4896 13.2796 19.8654L13.2287 19.9512C11.5791 19.9505 9.92957 19.95 8.28027 19.9495C8.29165 19.9458 8.30299 19.942 8.31433 19.9381L8.33118 19.9321L8.34423 19.9198C8.52527 19.7505 8.66698 19.5513 8.79328 19.3475C8.85645 19.2455 8.91631 19.1413 8.9752 19.039L8.97578 19.038C9.02665 18.9494 9.07679 18.8623 9.12848 18.7772Z" fill="url(#paint22_linear_451_1968)" stroke="url(#paint23_linear_451_1968)"/>
<path d="M19.4205 2.33822C19.9916 2.65299 20.4129 3.1822 20.6774 3.77298C20.7705 4.0912 20.8544 4.41623 20.8636 4.74927C20.901 4.94429 20.9339 5.14046 20.9395 5.34005C20.9271 8.72508 20.9397 12.1112 20.9327 15.4963C20.9237 16.0745 20.9907 16.6608 20.8658 17.2322C20.8544 17.9164 20.5855 18.5859 20.1403 19.1015C19.6714 19.5759 19.0629 19.9397 18.3896 20.0071C18.1557 20.0309 17.9196 20.0378 17.6846 20.0389C14.4563 20.0369 11.2281 20.0357 8.00058 20.0347L6.77963 20.0343C6.31415 20.0309 5.84751 20.0492 5.38317 20.0081C4.84388 19.9625 4.33412 19.7253 3.91403 19.3899C3.77098 19.2679 3.63474 19.1368 3.50531 19.0022C3.10681 18.4923 2.8718 17.8548 2.86839 17.2047C2.86498 16.4999 2.86383 15.794 2.87292 15.088C2.86271 13.3772 2.86271 11.6664 2.87292 9.95568C2.86044 8.2301 2.86612 6.50337 2.86951 4.77777C2.86271 3.33846 4.0957 2.03143 5.52962 1.97667C6.78872 1.96185 8.04782 1.96983 9.30692 1.97326C10.8038 1.96758 12.3007 1.96869 13.7976 1.96982L13.8199 1.96983C14.1321 1.94132 14.45 2.13521 14.5363 2.44316C14.6351 2.70661 14.4705 2.96094 14.3853 3.20159C13.7904 3.34871 13.175 3.30766 12.5688 3.3088C11.1972 3.30651 9.82576 3.30994 8.45426 3.30651C7.51533 3.31906 6.57641 3.28941 5.63976 3.31678C5.09252 3.33046 4.59184 3.67831 4.36135 4.17331C4.31027 4.28507 4.26939 4.40027 4.23761 4.52001C4.19106 8.71024 4.23193 12.9016 4.2183 17.093C4.18651 17.5618 4.40677 17.9918 4.71217 18.3304C5.02099 18.5324 5.36728 18.7046 5.74646 18.6898C6.85798 18.6942 7.96947 18.6852 9.08098 18.692C10.7783 18.6898 12.4745 18.6886 14.1707 18.691C15.4571 18.6874 16.7434 18.6942 18.0286 18.6874C18.6757 18.6942 19.2832 18.2256 19.4568 17.6015C19.4717 17.5344 19.4989 17.3976 19.5126 17.3302C19.5261 13.116 19.5204 8.90186 19.5194 4.68881C19.4524 4.19611 19.173 3.72508 18.7245 3.49469C18.2715 3.23352 17.7335 3.37722 17.2463 3.27686C16.958 3.20386 16.8614 2.89365 16.7411 2.65871C16.8422 2.39297 16.9569 2.06222 17.2736 1.99721C17.999 1.91395 18.7779 1.95616 19.4205 2.33822Z" fill="url(#paint24_linear_451_1968)"/>
<path d="M15.3043 2.02195C14.9908 2.07897 14.9908 2.44621 14.9863 2.69599C15.0147 2.88986 14.967 3.12368 15.0953 3.28791C15.4916 3.33353 15.8946 3.3381 16.2897 3.2845C16.443 3.11341 16.3623 2.84197 16.3885 2.62984C16.3862 2.4177 16.3897 2.15994 16.1727 2.04704C15.8912 1.96948 15.5904 1.98432 15.3043 2.02195Z" fill="url(#paint25_linear_451_1968)"/>
<path d="M16.3258 3.88226C15.9 3.85374 15.4719 3.85146 15.0463 3.8891C14.9917 4.25749 14.9997 4.63159 15.0042 5.00224C15.0234 7.01639 14.9951 9.0328 15.0314 11.0458C15.1609 11.4358 15.3754 11.8065 15.6309 12.1293C15.6832 12.119 15.7865 12.0996 15.8387 12.0905C16.0941 11.6685 16.454 11.2363 16.4017 10.7116C16.395 8.84691 16.3915 6.98218 16.3847 5.11743C16.3802 4.70571 16.4177 4.28829 16.3258 3.88226Z" fill="url(#paint26_linear_451_1968)"/>
<path d="M20.6774 3.77298C20.4129 3.1822 19.9916 2.65299 19.4205 2.33822C18.7779 1.95616 17.999 1.91395 17.2736 1.99721C16.9569 2.06222 16.8422 2.39297 16.7411 2.65871C16.8614 2.89365 16.958 3.20386 17.2463 3.27686C17.7335 3.37722 18.2715 3.23352 18.7245 3.49469C19.173 3.72508 19.4524 4.19611 19.5194 4.68881M20.6774 3.77298C20.5014 3.79123 20.322 3.79123 20.1528 3.84712C19.8929 4.08663 19.7225 4.40254 19.5194 4.68881M20.6774 3.77298C20.7705 4.0912 20.8544 4.41623 20.8636 4.74927M19.5194 4.68881C19.5204 8.90186 19.5261 13.116 19.5126 17.3302M20.8636 4.74927C20.8544 6.46003 20.867 8.16964 20.8556 9.87928M20.8636 4.74927C20.901 4.94429 20.9339 5.14046 20.9395 5.34005C20.9271 8.72508 20.9397 12.1112 20.9327 15.4963C20.9237 16.0745 20.9907 16.6608 20.8658 17.2322M19.5126 17.3302C19.6487 16.6128 19.5921 15.8795 19.6011 15.1541C19.6067 14.203 19.6248 13.2518 19.6101 12.3018C19.6158 11.9436 19.5943 11.5524 19.8054 11.2422C20.1154 10.7586 20.4821 10.3149 20.8556 9.87928M19.5126 17.3302C19.4989 17.3976 19.4717 17.5344 19.4568 17.6015C19.2832 18.2256 18.6757 18.6942 18.0286 18.6874C16.7434 18.6942 15.4571 18.6874 14.1707 18.691M20.8556 9.87928C20.8681 12.3302 20.8522 14.7812 20.8658 17.2322M20.8658 17.2322C20.8544 17.9164 20.5855 18.5859 20.1403 19.1015C19.6714 19.5759 19.0629 19.9397 18.3896 20.0071M14.1707 18.691C13.8812 19.0854 13.6031 19.4881 13.3532 19.909C15.0313 19.9854 16.7127 19.9192 18.3896 20.0071M14.1707 18.691C12.4745 18.6886 10.7783 18.6898 9.08098 18.692M18.3896 20.0071C18.1557 20.0309 17.9196 20.0378 17.6846 20.0389C14.0492 20.0366 10.4139 20.0355 6.77963 20.0343C6.31415 20.0309 5.84751 20.0492 5.38317 20.0081M9.08098 18.692C7.96947 18.6852 6.85798 18.6942 5.74646 18.6898C5.36728 18.7046 5.02099 18.5324 4.71217 18.3304M9.08098 18.692C8.8346 19.09 8.63252 19.5338 8.28624 19.8577C7.95018 19.9762 7.58346 19.9375 7.23152 19.9455C6.61502 19.9249 5.99851 19.9649 5.38317 20.0081M9.30692 1.97326C8.04782 1.96983 6.78872 1.96185 5.52962 1.97667C4.0957 2.03143 2.86271 3.33846 2.86951 4.77777C2.86612 6.50337 2.86044 8.2301 2.87292 9.95568M9.30692 1.97326C9.03101 2.42261 8.73243 2.85829 8.45426 3.30651M9.30692 1.97326C10.8112 1.96755 12.3156 1.96871 13.8199 1.96983C14.1321 1.94132 14.45 2.13521 14.5363 2.44316C14.6351 2.70661 14.4705 2.96094 14.3853 3.20159C13.7904 3.34871 13.175 3.30766 12.5688 3.3088C11.1972 3.30651 9.82576 3.30994 8.45426 3.30651M2.87292 9.95568C3.35431 9.48807 3.69946 8.90642 4.13656 8.40117M2.87292 9.95568C2.86271 11.6664 2.86271 13.3772 2.87292 15.088M8.45426 3.30651C7.51533 3.31906 6.57641 3.28941 5.63976 3.31678C5.09252 3.33046 4.59184 3.67831 4.36135 4.17331C4.31027 4.28507 4.26939 4.40027 4.23761 4.52001M4.13656 8.40117C4.19673 7.10898 4.05594 5.80309 4.23761 4.52001M4.13656 8.40117C4.15245 9.85419 4.11157 11.3083 4.14224 12.7614C4.13543 13.0863 4.16494 13.4399 3.98556 13.7285C3.68015 14.2303 3.29868 14.6842 2.87292 15.088M2.87292 15.088C2.86383 15.794 2.86498 16.4999 2.86839 17.2047C2.8718 17.8548 3.10681 18.4923 3.50531 19.0022C3.63474 19.1368 3.77098 19.2679 3.91403 19.3899M4.23761 4.52001C4.19106 8.71024 4.23193 12.9016 4.2183 17.093C4.18651 17.5618 4.40677 17.9918 4.71217 18.3304M3.91403 19.3899C4.16835 19.0285 4.43402 18.6749 4.71217 18.3304M3.91403 19.3899C4.33412 19.7253 4.84388 19.9625 5.38317 20.0081M14.9859 2.69635C14.9904 2.44657 14.9904 2.07932 15.3038 2.02231C15.5899 1.98467 15.8907 1.96983 16.1723 2.0474C16.3892 2.1603 16.3858 2.41805 16.3881 2.63019C16.3619 2.84233 16.4425 3.11377 16.2893 3.28485C15.8942 3.33846 15.4911 3.33388 15.0949 3.28826C14.9665 3.12403 15.0143 2.89022 14.9859 2.69635ZM15.0461 3.88931C15.4718 3.85167 15.8999 3.85395 16.3256 3.88247C16.4176 4.2885 16.3801 4.70592 16.3846 5.11764C16.3914 6.98239 16.3949 8.84712 16.4016 10.7118C16.4538 11.2365 16.094 11.6687 15.8386 12.0907C15.7863 12.0999 15.683 12.1192 15.6308 12.1295C15.3753 11.8067 15.1608 11.436 15.0313 11.046C14.9949 9.03301 15.0233 7.0166 15.0041 5.00246C14.9996 4.6318 14.9916 4.2577 15.0461 3.88931Z" stroke="url(#paint27_linear_451_1968)" stroke-width="0.6"/>
<defs>
<linearGradient id="paint0_linear_451_1968" x1="18.7092" y1="4.68851" x2="18.7092" y2="1.96112" gradientUnits="userSpaceOnUse">
<stop stop-color="#02AA93"/>
<stop offset="1" stop-color="#67FF80"/>
</linearGradient>
<linearGradient id="paint1_linear_451_1968" x1="18.7092" y1="4.68851" x2="18.7092" y2="1.96112" gradientUnits="userSpaceOnUse">
<stop stop-color="#02AA93"/>
<stop offset="1" stop-color="#67FF80"/>
</linearGradient>
<linearGradient id="paint2_linear_451_1968" x1="6.08576" y1="9.95561" x2="6.08576" y2="1.96796" gradientUnits="userSpaceOnUse">
<stop stop-color="#02AA93"/>
<stop offset="1" stop-color="#67FF80"/>
</linearGradient>
<linearGradient id="paint3_linear_451_1968" x1="6.08576" y1="9.95561" x2="6.08576" y2="1.96796" gradientUnits="userSpaceOnUse">
<stop stop-color="#02AA93"/>
<stop offset="1" stop-color="#67FF80"/>
</linearGradient>
<linearGradient id="paint4_linear_451_1968" x1="11.5109" y1="3.31315" x2="11.5109" y2="1.96699" gradientUnits="userSpaceOnUse">
<stop stop-color="#02AA93"/>
<stop offset="1" stop-color="#67FF80"/>
</linearGradient>
<linearGradient id="paint5_linear_451_1968" x1="11.5109" y1="3.31315" x2="11.5109" y2="1.96699" gradientUnits="userSpaceOnUse">
<stop stop-color="#02AA93"/>
<stop offset="1" stop-color="#67FF80"/>
</linearGradient>
<linearGradient id="paint6_linear_451_1968" x1="15.687" y1="3.32359" x2="15.687" y2="1.99139" gradientUnits="userSpaceOnUse">
<stop stop-color="#02AA93"/>
<stop offset="1" stop-color="#67FF80"/>
</linearGradient>
<linearGradient id="paint7_linear_451_1968" x1="15.687" y1="3.32359" x2="15.687" y2="1.99139" gradientUnits="userSpaceOnUse">
<stop stop-color="#02AA93"/>
<stop offset="1" stop-color="#67FF80"/>
</linearGradient>
<linearGradient id="paint8_linear_451_1968" x1="20.1879" y1="17.3301" x2="20.1879" y2="3.77281" gradientUnits="userSpaceOnUse">
<stop stop-color="#02AA93"/>
<stop offset="1" stop-color="#67FF80"/>
</linearGradient>
<linearGradient id="paint9_linear_451_1968" x1="20.1879" y1="17.3301" x2="20.1879" y2="3.77281" gradientUnits="userSpaceOnUse">
<stop stop-color="#02AA93"/>
<stop offset="1" stop-color="#67FF80"/>
</linearGradient>
<linearGradient id="paint10_linear_451_1968" x1="15.7036" y1="12.1295" x2="15.7036" y2="3.86102" gradientUnits="userSpaceOnUse">
<stop stop-color="#02AA93"/>
<stop offset="1" stop-color="#67FF80"/>
</linearGradient>
<linearGradient id="paint11_linear_451_1968" x1="15.7036" y1="12.1295" x2="15.7036" y2="3.86102" gradientUnits="userSpaceOnUse">
<stop stop-color="#02AA93"/>
<stop offset="1" stop-color="#67FF80"/>
</linearGradient>
<linearGradient id="paint12_linear_451_1968" x1="3.78904" y1="19.3896" x2="3.78904" y2="4.51963" gradientUnits="userSpaceOnUse">
<stop stop-color="#02AA93"/>
<stop offset="1" stop-color="#67FF80"/>
</linearGradient>
<linearGradient id="paint13_linear_451_1968" x1="3.78904" y1="19.3896" x2="3.78904" y2="4.51963" gradientUnits="userSpaceOnUse">
<stop stop-color="#02AA93"/>
<stop offset="1" stop-color="#67FF80"/>
</linearGradient>
<linearGradient id="paint14_linear_451_1968" x1="20.8991" y1="17.2319" x2="20.8991" y2="4.74902" gradientUnits="userSpaceOnUse">
<stop stop-color="#02AA93"/>
<stop offset="1" stop-color="#67FF80"/>
</linearGradient>
<linearGradient id="paint15_linear_451_1968" x1="20.8988" y1="17.2318" x2="20.8988" y2="4.74888" gradientUnits="userSpaceOnUse">
<stop stop-color="#02AA93"/>
<stop offset="1" stop-color="#67FF80"/>
</linearGradient>
<linearGradient id="paint16_linear_451_1968" x1="3.50342" y1="15.088" x2="3.50342" y2="8.40115" gradientUnits="userSpaceOnUse">
<stop stop-color="#02AA93"/>
<stop offset="1" stop-color="#67FF80"/>
</linearGradient>
<linearGradient id="paint17_linear_451_1968" x1="3.50342" y1="15.088" x2="3.50342" y2="8.40115" gradientUnits="userSpaceOnUse">
<stop stop-color="#02AA93"/>
<stop offset="1" stop-color="#67FF80"/>
</linearGradient>
<linearGradient id="paint18_linear_451_1968" x1="17.1091" y1="20.0069" x2="17.1091" y2="9.87909" gradientUnits="userSpaceOnUse">
<stop stop-color="#02AA93"/>
<stop offset="1" stop-color="#67FF80"/>
</linearGradient>
<linearGradient id="paint19_linear_451_1968" x1="17.1091" y1="20.0069" x2="17.1091" y2="9.87909" gradientUnits="userSpaceOnUse">
<stop stop-color="#02AA93"/>
<stop offset="1" stop-color="#67FF80"/>
</linearGradient>
<linearGradient id="paint20_linear_451_1968" x1="6.4971" y1="20.0079" x2="6.4971" y2="18.3303" gradientUnits="userSpaceOnUse">
<stop stop-color="#02AA93"/>
<stop offset="1" stop-color="#67FF80"/>
</linearGradient>
<linearGradient id="paint21_linear_451_1968" x1="6.4971" y1="20.0079" x2="6.4971" y2="18.3303" gradientUnits="userSpaceOnUse">
<stop stop-color="#02AA93"/>
<stop offset="1" stop-color="#67FF80"/>
</linearGradient>
<linearGradient id="paint22_linear_451_1968" x1="11.8861" y1="20.0389" x2="11.8861" y2="18.6895" gradientUnits="userSpaceOnUse">
<stop stop-color="#02AA93"/>
<stop offset="1" stop-color="#67FF80"/>
</linearGradient>
<linearGradient id="paint23_linear_451_1968" x1="11.8861" y1="20.0389" x2="11.8861" y2="18.6895" gradientUnits="userSpaceOnUse">
<stop stop-color="#02AA93"/>
<stop offset="1" stop-color="#67FF80"/>
</linearGradient>
<linearGradient id="paint24_linear_451_1968" x1="11.9039" y1="20.0389" x2="11.9039" y2="1.96143" gradientUnits="userSpaceOnUse">
<stop stop-color="#02AA93"/>
<stop offset="1" stop-color="#67FF80"/>
</linearGradient>
<linearGradient id="paint25_linear_451_1968" x1="11.9044" y1="20.0386" x2="11.9044" y2="1.96107" gradientUnits="userSpaceOnUse">
<stop stop-color="#02AA93"/>
<stop offset="1" stop-color="#67FF80"/>
</linearGradient>
<linearGradient id="paint26_linear_451_1968" x1="11.9041" y1="20.0387" x2="11.9041" y2="1.96121" gradientUnits="userSpaceOnUse">
<stop stop-color="#02AA93"/>
<stop offset="1" stop-color="#67FF80"/>
</linearGradient>
<linearGradient id="paint27_linear_451_1968" x1="11.9039" y1="20.0389" x2="11.9039" y2="1.96143" gradientUnits="userSpaceOnUse">
<stop stop-color="#02AA93"/>
<stop offset="1" stop-color="#67FF80"/>
</linearGradient>
</defs>
</svg>
