<svg width="22" height="22" viewBox="0 0 22 22" fill="none" xmlns="http://www.w3.org/2000/svg">
<path d="M3.22222 4C1.9911 4 1 5.04067 1 6.33333V15.6667C1 16.9593 1.9911 18 3.22222 18H18.7778C20.0088 18 21 16.9593 21 15.6667V6.33333C21 5.04067 20.0088 4 18.7778 4H3.22222ZM9.88885 4.875C9.88885 4.71391 10.0194 4.58333 10.1805 4.58333H11.8195C11.9806 4.58333 12.1112 4.71391 12.1112 4.875V4.875C12.1112 5.03609 11.9806 5.16667 11.8195 5.16667H10.1805C10.0194 5.16667 9.88885 5.03609 9.88885 4.875V4.875ZM4.33333 6.73333C4.33333 6.51242 4.51242 6.33333 4.73333 6.33333H17.2667C17.4876 6.33333 17.6667 6.51242 17.6667 6.73333V15.2667C17.6667 15.4876 17.4876 15.6667 17.2667 15.6667H4.73333C4.51242 15.6667 4.33333 15.4876 4.33333 15.2667V6.73333Z" fill="url(#paint0_radial_451_2092)"/>
<defs>
<radialGradient id="paint0_radial_451_2092" cx="0" cy="0" r="1" gradientUnits="userSpaceOnUse" gradientTransform="translate(9.2134 13.3757) scale(10 7)">
<stop stop-color="#FF1C7F"/>
<stop offset="1" stop-color="#CE166F"/>
</radialGradient>
</defs>
</svg>
