<svg width="23" height="22" viewBox="0 0 23 22" fill="none" xmlns="http://www.w3.org/2000/svg">
<path d="M19.1636 2.4126C19.6796 2.6971 20.072 3.16507 20.3325 3.69818L20.332 3.69822C20.1965 3.70869 20.0485 3.72015 19.91 3.76584L19.8926 3.77162L19.879 3.7841C19.7424 3.91001 19.6307 4.0547 19.5287 4.20149C19.4823 4.26834 19.4375 4.33635 19.3933 4.40336C19.389 4.40989 19.3846 4.41641 19.3803 4.42292C19.3696 4.43931 19.3587 4.45565 19.3479 4.4719C19.2366 4.0342 18.9623 3.6324 18.5494 3.41948C18.3047 3.27897 18.0402 3.24931 17.7855 3.23995C17.719 3.23751 17.6538 3.23639 17.5896 3.2353C17.4021 3.23211 17.2236 3.22905 17.0495 3.19343C16.9351 3.16389 16.8549 3.08761 16.7863 2.98182C16.7387 2.90831 16.7019 2.83017 16.6637 2.74882C16.649 2.71754 16.634 2.68577 16.6182 2.65363C16.6655 2.52901 16.7136 2.40375 16.782 2.29896C16.8544 2.18791 16.9442 2.10837 17.0713 2.08116C17.7878 1.99941 18.543 2.0437 19.161 2.41122L19.1622 2.41192L19.1636 2.4126Z" fill="url(#paint0_linear_451_1933)" stroke="url(#paint1_linear_451_1933)"/>
<path d="M2.73866 4.77787V4.77729C2.73206 3.38348 3.92899 2.11544 5.31562 2.06186C6.36405 2.04953 7.41244 2.05301 8.46157 2.0565C8.6203 2.05703 8.77905 2.05756 8.93781 2.05802C8.82544 2.23746 8.70993 2.41534 8.59384 2.59373C8.58663 2.60481 8.57942 2.6159 8.57219 2.62698C8.44402 2.82387 8.31535 3.02158 8.19039 3.22177C7.81039 3.22629 7.42747 3.2241 7.04385 3.22192C6.50238 3.21883 5.95947 3.21575 5.42131 3.23147C4.83977 3.24607 4.3112 3.6148 4.06792 4.13724L4.06766 4.1378C4.0145 4.2541 3.97204 4.37383 3.93905 4.49806L3.93776 4.50297L3.93704 4.50798C3.84529 5.15608 3.83514 5.80854 3.84012 6.45775C3.84128 6.60931 3.84326 6.76056 3.84524 6.91153C3.85162 7.39926 3.85796 7.88418 3.83658 8.36781C3.66603 8.567 3.50879 8.77767 3.35356 8.98561C3.31468 9.03771 3.27592 9.08963 3.2371 9.14117C3.07819 9.35218 2.91762 9.55777 2.74065 9.74787C2.73127 8.28436 2.73436 6.82008 2.73746 5.35599C2.73787 5.16328 2.73828 4.97056 2.73866 4.77787Z" fill="url(#paint2_linear_451_1933)" stroke="url(#paint3_linear_451_1933)"/>
<path d="M8.39258 3.22153C9.08955 3.22302 9.78608 3.22286 10.4827 3.22269C11.106 3.22256 11.7294 3.22242 12.3533 3.22346C12.3532 3.22346 12.3533 3.22346 12.3533 3.22346V3.30873C12.4642 3.30851 12.5754 3.30972 12.6868 3.31093C13.184 3.3163 13.6837 3.32171 14.1698 3.20151L8.39258 3.22153ZM8.39258 3.22153C8.49867 3.05355 8.60717 2.88684 8.71605 2.71958C8.72317 2.70864 8.73029 2.6977 8.73742 2.68675C8.87267 2.47892 9.00822 2.27014 9.13916 2.05828C10.6275 2.05277 12.1158 2.0539 13.6043 2.05504H13.6083L13.6122 2.05468C13.888 2.02949 14.1647 2.202 14.2387 2.4661L14.2396 2.46961L14.2409 2.47302C14.2809 2.5797 14.2695 2.68777 14.2329 2.8055C14.2145 2.86459 14.1904 2.9239 14.1646 2.98562C14.1611 2.99377 14.1577 3.00199 14.1542 3.01027C14.1379 3.04913 14.1211 3.08912 14.1057 3.12919L8.39258 3.22153Z" fill="url(#paint4_linear_451_1933)"/>
<path d="M8.39258 3.22153C9.08955 3.22302 9.78608 3.22286 10.4827 3.22269C11.106 3.22256 11.7294 3.22242 12.3533 3.22346M8.39258 3.22153L14.1698 3.20151C13.6837 3.32171 13.184 3.3163 12.6868 3.31093C12.5754 3.30972 12.4642 3.30851 12.3533 3.30873V3.22346M8.39258 3.22153C8.49867 3.05355 8.60717 2.88684 8.71605 2.71958C8.72317 2.70864 8.73029 2.6977 8.73742 2.68675C8.87267 2.47892 9.00822 2.27014 9.13916 2.05828C10.6275 2.05277 12.1158 2.0539 13.6043 2.05504H13.6083L13.6122 2.05468C13.888 2.02949 14.1647 2.202 14.2387 2.4661L14.2396 2.46961L14.2409 2.47302C14.2809 2.5797 14.2695 2.68777 14.2329 2.8055C14.2145 2.86459 14.1904 2.9239 14.1646 2.98562C14.1611 2.99377 14.1577 3.00199 14.1542 3.01027C14.1379 3.04913 14.1211 3.08912 14.1057 3.12919L8.39258 3.22153ZM12.3533 3.22346C12.3533 3.22346 12.3532 3.22346 12.3533 3.22346Z" stroke="url(#paint5_linear_451_1933)"/>
<path d="M14.8663 2.84484C14.8648 2.79503 14.8625 2.74238 14.8555 2.69091C14.8555 2.68961 14.8555 2.68832 14.8555 2.687C14.8578 2.56137 14.8602 2.42491 14.8948 2.31176C14.9284 2.20154 14.9874 2.12781 15.1013 2.10637C15.3801 2.06983 15.6631 2.05697 15.9247 2.12694C16.0004 2.1692 16.0403 2.23587 16.0622 2.32228C16.0847 2.41141 16.0857 2.51239 16.0868 2.61679C16.0869 2.61967 16.0869 2.62254 16.0869 2.6254C16.0803 2.68334 16.0806 2.74332 16.0821 2.79992C16.0825 2.81556 16.083 2.83086 16.0834 2.8459C16.0848 2.88903 16.0861 2.93004 16.0853 2.97106C16.0833 3.06832 16.0694 3.1453 16.0283 3.2046C15.6648 3.25077 15.2938 3.24734 14.9271 3.20764C14.8927 3.1504 14.8784 3.08063 14.8721 2.99693C14.8693 2.95841 14.8683 2.91971 14.8672 2.87893C14.8669 2.86775 14.8666 2.85639 14.8663 2.84484Z" fill="url(#paint6_linear_451_1933)" stroke="url(#paint7_linear_451_1933)"/>
<path d="M19.3897 7.14347C19.3894 6.33416 19.3888 5.52488 19.3887 4.71566C19.4347 4.64993 19.4791 4.58309 19.5227 4.51701C19.527 4.51053 19.5312 4.50407 19.5355 4.49762C19.5799 4.43032 19.6237 4.36398 19.6689 4.29889C19.7642 4.16156 19.8636 4.03313 19.981 3.92238C20.0923 3.88839 20.2057 3.87952 20.3297 3.86983C20.3524 3.86806 20.3756 3.86625 20.3991 3.86426C20.4836 4.15865 20.554 4.4521 20.5623 4.75006C20.5581 5.56609 20.5586 6.37903 20.5591 7.19151C20.5598 8.07615 20.5603 8.96028 20.5545 9.84734C20.188 10.2756 19.8259 10.7154 19.5183 11.195C19.4613 11.2789 19.4204 11.3675 19.3907 11.4583C19.3909 10.0199 19.3904 8.58164 19.3897 7.14347Z" fill="url(#paint8_linear_451_1933)" stroke="url(#paint9_linear_451_1933)"/>
<path d="M16.1003 10.7121L16.1003 10.7162L16.1008 10.7202C16.1246 10.96 16.055 11.1822 15.9435 11.401C15.8695 11.5461 15.7816 11.6824 15.6926 11.8202C15.6515 11.884 15.6101 11.9481 15.5698 12.0135C15.5332 12.0202 15.4882 12.0285 15.4499 12.0358C15.2162 11.7327 15.0211 11.3898 14.9003 11.0314C14.8796 9.87588 14.8801 8.72128 14.8807 7.56576C14.8811 6.71181 14.8815 5.85734 14.8733 5.0016V5.00137C14.8731 4.98268 14.8729 4.96399 14.8726 4.94533C14.8685 4.61494 14.8644 4.28926 14.9053 3.96858C15.2821 3.93903 15.6612 3.94048 16.0395 3.9634C16.0929 4.23891 16.089 4.51751 16.085 4.80544C16.0836 4.90841 16.0822 5.0126 16.0833 5.11825C16.0868 6.06791 16.0894 7.01651 16.092 7.96517C16.0945 8.88043 16.097 9.79575 16.1003 10.7121Z" fill="url(#paint10_linear_451_1933)" stroke="url(#paint11_linear_451_1933)"/>
<path d="M3.91903 13.6191C3.89857 13.6715 3.87339 13.7229 3.84241 13.7728C3.53882 14.2715 3.16175 14.7227 2.74193 15.1246C2.73335 15.8178 2.73451 16.5112 2.73785 17.2039L3.91903 13.6191ZM3.91903 13.6191C3.9206 14.7762 3.92099 15.9331 3.91724 17.0897ZM3.91903 13.6191L3.91724 17.0897ZM3.91724 17.0897C3.8861 17.5628 4.09563 17.9923 4.38506 18.3324C4.14171 18.6361 3.90796 18.9467 3.68307 19.2634C3.56911 19.1621 3.45944 19.0553 3.35401 18.9459C2.96807 18.4506 2.74116 17.8325 2.73785 17.2039L3.91724 17.0897Z" fill="url(#paint12_linear_451_1933)"/>
<path d="M3.91903 13.6191C3.89857 13.6715 3.87339 13.7229 3.84241 13.7728C3.53882 14.2715 3.16175 14.7227 2.74193 15.1246C2.73335 15.8178 2.73451 16.5112 2.73785 17.2039M3.91903 13.6191L2.73785 17.2039M3.91903 13.6191C3.9206 14.7762 3.92099 15.9331 3.91724 17.0897M3.91903 13.6191L3.91724 17.0897M2.73785 17.2039C2.74116 17.8325 2.96807 18.4506 3.35401 18.9459C3.45944 19.0553 3.56911 19.1621 3.68307 19.2634C3.90796 18.9467 4.14171 18.6361 4.38506 18.3324C4.09563 17.9923 3.8861 17.5628 3.91724 17.0897M2.73785 17.2039L3.91724 17.0897" stroke="url(#paint13_linear_451_1933)"/>
<path d="M20.6477 4.74902C20.685 4.94406 20.7179 5.14021 20.7237 5.3398C20.7111 8.72483 20.7237 12.111 20.7169 15.4961C20.7079 16.0743 20.7747 16.6605 20.6499 17.2319C20.6364 14.781 20.6523 12.33 20.6396 9.87903C20.6511 8.16941 20.6385 6.45979 20.6477 4.74902Z" fill="url(#paint14_linear_451_1933)"/>
<mask id="mask0_451_1933" style="mask-type:luminance" maskUnits="userSpaceOnUse" x="20" y="4" width="1" height="14">
<path d="M20.6477 4.74902C20.685 4.94406 20.7179 5.14021 20.7237 5.3398C20.7111 8.72483 20.7237 12.111 20.7169 15.4961C20.7079 16.0743 20.7747 16.6605 20.6499 17.2319C20.6364 14.781 20.6523 12.33 20.6396 9.87903C20.6511 8.16941 20.6385 6.45979 20.6477 4.74902Z" fill="white"/>
</mask>
<g mask="url(#mask0_451_1933)">
<path d="M20.6473 4.74888L20.8148 4.7168L20.4768 4.74795L20.6473 4.74888ZM20.7234 5.33965L20.8939 5.34028V5.33749V5.33469L20.7234 5.33965ZM20.7165 15.496L20.8871 15.4986V15.4963L20.7165 15.496ZM20.6495 17.2318L20.479 17.2326L20.8161 17.2681L20.6495 17.2318ZM20.6393 9.87888L20.4688 9.87774V9.87975L20.6393 9.87888ZM20.4798 4.78095C20.5168 4.97454 20.5475 5.15946 20.553 5.3446L20.8939 5.33469C20.8876 5.12066 20.8525 4.91326 20.8148 4.7168L20.4798 4.78095ZM20.5528 5.33902C20.5402 8.72344 20.5528 12.1126 20.546 15.4956L20.8871 15.4963C20.8939 12.1091 20.8813 8.72591 20.8939 5.34028L20.5528 5.33902ZM20.546 15.4933C20.5416 15.7777 20.5561 16.0939 20.5559 16.3664C20.5559 16.6518 20.5416 16.9272 20.4829 17.1953L20.8161 17.2681C20.8825 16.965 20.897 16.6615 20.897 16.3664C20.8972 16.0583 20.8825 15.7924 20.8871 15.4986L20.546 15.4933ZM20.8201 17.2308C20.8134 16.006 20.8139 14.781 20.8146 13.5554C20.8155 12.3301 20.8161 11.1041 20.8098 9.878L20.4688 9.87975C20.4751 11.1047 20.4744 12.3297 20.4735 13.5553C20.4728 14.7807 20.4723 16.0066 20.479 17.2326L20.8201 17.2308ZM20.8098 9.88003C20.8213 8.17666 20.8088 6.45123 20.8179 4.7498L20.4768 4.74795C20.4676 6.46803 20.4803 8.16186 20.4688 9.87774L20.8098 9.88003Z" fill="url(#paint15_linear_451_1933)"/>
</g>
<path d="M3.69699 13.6835L3.69656 13.6841C3.43009 14.1219 3.1044 14.5235 2.74089 14.8871C2.7319 13.2552 2.73221 11.6234 2.74183 9.99166C2.97655 9.75947 3.17884 9.502 3.37331 9.2438C3.4131 9.19096 3.45251 9.13816 3.49181 9.08552C3.60597 8.93261 3.71906 8.78111 3.83721 8.63428C3.84115 9.19651 3.83758 9.76146 3.83402 10.3271C3.8289 11.1391 3.82377 11.9526 3.84079 12.7613C3.83975 12.8121 3.83954 12.862 3.83932 12.9115C3.83884 13.0263 3.83837 13.1383 3.82757 13.2504C3.81236 13.4084 3.77713 13.5545 3.69699 13.6835Z" fill="url(#paint16_linear_451_1933)" stroke="url(#paint17_linear_451_1933)"/>
<path d="M19.6596 11.29L19.6598 11.29L19.661 11.288C19.9267 10.8737 20.2348 10.4881 20.5553 10.1094C20.5602 11.24 20.5595 12.3706 20.5589 13.5015V13.5555C20.5582 14.7806 20.5577 16.0061 20.5643 17.2315C20.5531 17.8934 20.2928 18.5428 19.8615 19.0435C19.4039 19.5057 18.8159 19.8549 18.1714 19.9215C17.3328 19.8776 16.4934 19.8723 15.6561 19.8683C15.6239 19.8683 15.5917 19.8681 15.5596 19.8679C14.7997 19.8643 14.0415 19.8607 13.2842 19.8299C13.5052 19.4683 13.7466 19.1194 13.9978 18.7758C14.5341 18.7746 15.0709 18.7749 15.6077 18.7752C16.3428 18.7759 17.078 18.7764 17.8122 18.7725C18.4987 18.7795 19.1391 18.2843 19.3228 17.6243L19.3233 17.622L19.3238 17.6198C19.3362 17.5639 19.3569 17.461 19.3714 17.3891C19.3746 17.3734 19.3775 17.3591 19.3799 17.3469L19.3801 17.3459C19.4834 16.8018 19.4776 16.2457 19.4718 15.7006C19.4698 15.5172 19.4679 15.335 19.4701 15.155V15.1545C19.4717 14.8925 19.4742 14.6302 19.4768 14.3678C19.4833 13.6794 19.4899 12.99 19.4792 12.3016C19.4798 12.2625 19.4802 12.2235 19.4804 12.1846C19.4815 12.042 19.4827 11.9016 19.4993 11.7639C19.5199 11.5904 19.5646 11.4298 19.6596 11.29Z" fill="url(#paint18_linear_451_1933)" stroke="url(#paint19_linear_451_1933)"/>
<path d="M5.16762 19.9223C4.6773 19.8795 4.20953 19.6718 3.81445 19.3725C4.03873 19.0563 4.2718 18.7464 4.51441 18.4434C4.81158 18.6301 5.15367 18.789 5.53173 18.7749C6.04324 18.7769 6.55315 18.7761 7.06278 18.7752C7.61305 18.7744 8.16302 18.7735 8.71433 18.7763C8.67997 18.8346 8.64625 18.8933 8.61274 18.9516L8.61143 18.9538C8.55232 19.0566 8.49382 19.1583 8.43237 19.2575C8.31274 19.4506 8.18401 19.6308 8.02484 19.7828C7.87345 19.8336 7.71323 19.8519 7.54569 19.8577C7.45885 19.8606 7.37114 19.8602 7.28196 19.8595C7.2742 19.8595 7.26641 19.8594 7.25861 19.8594C7.17829 19.8587 7.0967 19.858 7.01578 19.8599C6.39732 19.8394 5.77975 19.8793 5.16762 19.9223Z" fill="url(#paint20_linear_451_1933)" stroke="url(#paint21_linear_451_1933)"/>
<path d="M8.91266 18.7772C10.5382 18.775 12.1627 18.774 13.7871 18.776C13.5321 19.1287 13.2869 19.4896 13.0638 19.8654L13.0129 19.9512C11.3633 19.9505 9.71375 19.95 8.06445 19.9495C8.07583 19.9458 8.08717 19.942 8.09851 19.9381L8.11536 19.9321L8.12841 19.9198C8.30945 19.7505 8.45116 19.5513 8.57746 19.3475C8.64063 19.2455 8.70049 19.1413 8.75938 19.039L8.75996 19.038C8.81083 18.9494 8.86097 18.8623 8.91266 18.7772Z" fill="url(#paint22_linear_451_1933)" stroke="url(#paint23_linear_451_1933)"/>
<path d="M19.2047 2.33822C19.7758 2.65299 20.1971 3.1822 20.4616 3.77298C20.5547 4.0912 20.6386 4.41623 20.6478 4.74927C20.6851 4.94429 20.7181 5.14046 20.7237 5.34005C20.7112 8.72508 20.7239 12.1112 20.7169 15.4963C20.7078 16.0745 20.7749 16.6608 20.65 17.2322C20.6386 17.9164 20.3696 18.5859 19.9245 19.1015C19.4555 19.5759 18.847 19.9397 18.1737 20.0071C17.9399 20.0309 17.7038 20.0378 17.4688 20.0389C14.2405 20.0369 11.0122 20.0357 7.78476 20.0347L6.56381 20.0343C6.09833 20.0309 5.63169 20.0492 5.16735 20.0081C4.62806 19.9625 4.1183 19.7253 3.69821 19.3899C3.55516 19.2679 3.41892 19.1368 3.28949 19.0022C2.89099 18.4923 2.65598 17.8548 2.65257 17.2047C2.64916 16.4999 2.64801 15.794 2.6571 15.088C2.64689 13.3772 2.64689 11.6664 2.6571 9.95568C2.64462 8.2301 2.6503 6.50337 2.65369 4.77777C2.64689 3.33846 3.87988 2.03143 5.3138 1.97667C6.5729 1.96185 7.832 1.96983 9.0911 1.97326C10.588 1.96758 12.0849 1.96869 13.5817 1.96982L13.6041 1.96983C13.9163 1.94132 14.2342 2.13521 14.3204 2.44316C14.4192 2.70661 14.2547 2.96094 14.1695 3.20159C13.5745 3.34871 12.9592 3.30766 12.3529 3.3088C10.9814 3.30651 9.60994 3.30994 8.23843 3.30651C7.29951 3.31906 6.36059 3.28941 5.42394 3.31678C4.8767 3.33046 4.37602 3.67831 4.14553 4.17331C4.09445 4.28507 4.05357 4.40027 4.02179 4.52001C3.97524 8.71024 4.01611 12.9016 4.00248 17.093C3.97069 17.5618 4.19095 17.9918 4.49635 18.3304C4.80517 18.5324 5.15146 18.7046 5.53064 18.6898C6.64216 18.6942 7.75365 18.6852 8.86516 18.692C10.5625 18.6898 12.2587 18.6886 13.9549 18.691C15.2412 18.6874 16.5276 18.6942 17.8128 18.6874C18.4599 18.6942 19.0674 18.2256 19.241 17.6015C19.2558 17.5344 19.2831 17.3976 19.2968 17.3302C19.3102 13.116 19.3046 8.90186 19.3036 4.68881C19.2366 4.19611 18.9572 3.72508 18.5087 3.49469C18.0557 3.23352 17.5176 3.37722 17.0305 3.27686C16.7422 3.20386 16.6456 2.89365 16.5253 2.65871C16.6264 2.39297 16.741 2.06222 17.0578 1.99721C17.7832 1.91395 18.5621 1.95616 19.2047 2.33822Z" fill="url(#paint24_linear_451_1933)"/>
<path d="M15.0885 2.02195C14.775 2.07897 14.775 2.44621 14.7705 2.69599C14.7989 2.88986 14.7512 3.12368 14.8795 3.28791C15.2757 3.33353 15.6788 3.3381 16.0739 3.2845C16.2271 3.11341 16.1465 2.84197 16.1727 2.62984C16.1704 2.4177 16.1738 2.15994 15.9569 2.04704C15.6753 1.96948 15.3745 1.98432 15.0885 2.02195Z" fill="url(#paint25_linear_451_1933)"/>
<path d="M16.11 3.88226C15.6842 3.85374 15.2561 3.85146 14.8304 3.8891C14.7759 4.25749 14.7839 4.63159 14.7884 5.00224C14.8076 7.01639 14.7792 9.0328 14.8156 11.0458C14.9451 11.4358 15.1596 11.8065 15.4151 12.1293C15.4673 12.119 15.5707 12.0996 15.6229 12.0905C15.8783 11.6685 16.2382 11.2363 16.1859 10.7116C16.1792 8.84691 16.1757 6.98218 16.1689 5.11743C16.1644 4.70571 16.2019 4.28829 16.11 3.88226Z" fill="url(#paint26_linear_451_1933)"/>
<path d="M20.4616 3.77298C20.1971 3.1822 19.7758 2.65299 19.2047 2.33822C18.5621 1.95616 17.7832 1.91395 17.0578 1.99721C16.741 2.06222 16.6264 2.39297 16.5253 2.65871C16.6456 2.89365 16.7422 3.20386 17.0305 3.27686C17.5176 3.37722 18.0557 3.23352 18.5087 3.49469C18.9572 3.72508 19.2366 4.19611 19.3036 4.68881M20.4616 3.77298C20.2856 3.79123 20.1062 3.79123 19.937 3.84712C19.6771 4.08663 19.5067 4.40254 19.3036 4.68881M20.4616 3.77298C20.5547 4.0912 20.6386 4.41623 20.6478 4.74927M19.3036 4.68881C19.3046 8.90186 19.3102 13.116 19.2968 17.3302M20.6478 4.74927C20.6386 6.46003 20.6512 8.16964 20.6398 9.87928M20.6478 4.74927C20.6851 4.94429 20.7181 5.14046 20.7237 5.34005C20.7112 8.72508 20.7239 12.1112 20.7169 15.4963C20.7078 16.0745 20.7749 16.6608 20.65 17.2322M19.2968 17.3302C19.4329 16.6128 19.3762 15.8795 19.3853 15.1541C19.3909 14.203 19.409 13.2518 19.3943 12.3018C19.3999 11.9436 19.3785 11.5524 19.5896 11.2422C19.8996 10.7586 20.2663 10.3149 20.6398 9.87928M19.2968 17.3302C19.2831 17.3976 19.2558 17.5344 19.241 17.6015C19.0674 18.2256 18.4599 18.6942 17.8128 18.6874C16.5276 18.6942 15.2412 18.6874 13.9549 18.691M20.6398 9.87928C20.6522 12.3302 20.6364 14.7812 20.65 17.2322M20.65 17.2322C20.6386 17.9164 20.3696 18.5859 19.9245 19.1015C19.4555 19.5759 18.847 19.9397 18.1737 20.0071M13.9549 18.691C13.6653 19.0854 13.3873 19.4881 13.1374 19.909C14.8155 19.9854 16.4969 19.9192 18.1737 20.0071M13.9549 18.691C12.2587 18.6886 10.5625 18.6898 8.86516 18.692M18.1737 20.0071C17.9399 20.0309 17.7038 20.0378 17.4688 20.0389C13.8334 20.0366 10.198 20.0355 6.56381 20.0343C6.09833 20.0309 5.63169 20.0492 5.16735 20.0081M8.86516 18.692C7.75365 18.6852 6.64216 18.6942 5.53064 18.6898C5.15146 18.7046 4.80517 18.5324 4.49635 18.3304M8.86516 18.692C8.61878 19.09 8.4167 19.5338 8.07042 19.8577C7.73436 19.9762 7.36764 19.9375 7.0157 19.9455C6.3992 19.9249 5.78269 19.9649 5.16735 20.0081M9.0911 1.97326C7.832 1.96983 6.5729 1.96185 5.3138 1.97667C3.87988 2.03143 2.64689 3.33846 2.65369 4.77777C2.6503 6.50337 2.64462 8.2301 2.6571 9.95568M9.0911 1.97326C8.81519 2.42261 8.51661 2.85829 8.23843 3.30651M9.0911 1.97326C10.5954 1.96755 12.0997 1.96871 13.6041 1.96983C13.9163 1.94132 14.2342 2.13521 14.3204 2.44316C14.4192 2.70661 14.2547 2.96094 14.1695 3.20159C13.5745 3.34871 12.9592 3.30766 12.3529 3.3088C10.9814 3.30651 9.60994 3.30994 8.23843 3.30651M2.6571 9.95568C3.13849 9.48807 3.48364 8.90642 3.92074 8.40117M2.6571 9.95568C2.64689 11.6664 2.64689 13.3772 2.6571 15.088M8.23843 3.30651C7.29951 3.31906 6.36059 3.28941 5.42394 3.31678C4.8767 3.33046 4.37602 3.67831 4.14553 4.17331C4.09445 4.28507 4.05357 4.40027 4.02179 4.52001M3.92074 8.40117C3.98091 7.10898 3.84012 5.80309 4.02179 4.52001M3.92074 8.40117C3.93663 9.85419 3.89575 11.3083 3.92642 12.7614C3.91961 13.0863 3.94912 13.4399 3.76974 13.7285C3.46433 14.2303 3.08286 14.6842 2.6571 15.088M2.6571 15.088C2.64801 15.794 2.64916 16.4999 2.65257 17.2047C2.65598 17.8548 2.89099 18.4923 3.28949 19.0022C3.41892 19.1368 3.55516 19.2679 3.69821 19.3899M4.02179 4.52001C3.97524 8.71024 4.01611 12.9016 4.00248 17.093C3.97069 17.5618 4.19095 17.9918 4.49635 18.3304M3.69821 19.3899C3.95253 19.0285 4.2182 18.6749 4.49635 18.3304M3.69821 19.3899C4.1183 19.7253 4.62806 19.9625 5.16735 20.0081M14.7701 2.69635C14.7746 2.44657 14.7746 2.07932 15.088 2.02231C15.3741 1.98467 15.6749 1.96983 15.9565 2.0474C16.1734 2.1603 16.1699 2.41805 16.1722 2.63019C16.1461 2.84233 16.2267 3.11377 16.0734 3.28485C15.6784 3.33846 15.2753 3.33388 14.8791 3.28826C14.7507 3.12403 14.7984 2.89022 14.7701 2.69635ZM14.8303 3.88931C15.256 3.85167 15.684 3.85395 16.1098 3.88247C16.2018 4.2885 16.1643 4.70592 16.1688 5.11764C16.1756 6.98239 16.1791 8.84712 16.1858 10.7118C16.238 11.2365 15.8782 11.6687 15.6228 12.0907C15.5705 12.0999 15.4672 12.1192 15.415 12.1295C15.1595 11.8067 14.945 11.436 14.8155 11.046C14.7791 9.03301 14.8075 7.0166 14.7883 5.00246C14.7837 4.6318 14.7757 4.2577 14.8303 3.88931Z" stroke="url(#paint27_linear_451_1933)" stroke-width="0.6"/>
<defs>
<linearGradient id="paint0_linear_451_1933" x1="20.3284" y1="2.03908" x2="19.5348" y2="4.91495" gradientUnits="userSpaceOnUse">
<stop stop-color="#FE0F7C"/>
<stop offset="1" stop-color="#DF0066"/>
</linearGradient>
<linearGradient id="paint1_linear_451_1933" x1="20.3284" y1="2.03908" x2="19.5348" y2="4.91495" gradientUnits="userSpaceOnUse">
<stop stop-color="#FE0F7C"/>
<stop offset="1" stop-color="#DF0066"/>
</linearGradient>
<linearGradient id="paint2_linear_451_1933" x1="8.87316" y1="2.19626" x2="5.27471" y2="9.4831" gradientUnits="userSpaceOnUse">
<stop stop-color="#FE0F7C"/>
<stop offset="1" stop-color="#DF0066"/>
</linearGradient>
<linearGradient id="paint3_linear_451_1933" x1="8.87316" y1="2.19626" x2="5.27471" y2="9.4831" gradientUnits="userSpaceOnUse">
<stop stop-color="#FE0F7C"/>
<stop offset="1" stop-color="#DF0066"/>
</linearGradient>
<linearGradient id="paint4_linear_451_1933" x1="14.1449" y1="2.00546" x2="14.0119" y2="3.52135" gradientUnits="userSpaceOnUse">
<stop stop-color="#FE0F7C"/>
<stop offset="1" stop-color="#DF0066"/>
</linearGradient>
<linearGradient id="paint5_linear_451_1933" x1="14.1449" y1="2.00546" x2="14.0119" y2="3.52135" gradientUnits="userSpaceOnUse">
<stop stop-color="#FE0F7C"/>
<stop offset="1" stop-color="#DF0066"/>
</linearGradient>
<linearGradient id="paint6_linear_451_1933" x1="16.1249" y1="2.02946" x2="15.6245" y2="3.35183" gradientUnits="userSpaceOnUse">
<stop stop-color="#FE0F7C"/>
<stop offset="1" stop-color="#DF0066"/>
</linearGradient>
<linearGradient id="paint7_linear_451_1933" x1="16.1249" y1="2.02946" x2="15.6245" y2="3.35183" gradientUnits="userSpaceOnUse">
<stop stop-color="#FE0F7C"/>
<stop offset="1" stop-color="#DF0066"/>
</linearGradient>
<linearGradient id="paint8_linear_451_1933" x1="20.6021" y1="4.16032" x2="16.9793" y2="5.06682" gradientUnits="userSpaceOnUse">
<stop stop-color="#FE0F7C"/>
<stop offset="1" stop-color="#DF0066"/>
</linearGradient>
<linearGradient id="paint9_linear_451_1933" x1="20.6021" y1="4.16032" x2="16.9793" y2="5.06682" gradientUnits="userSpaceOnUse">
<stop stop-color="#FE0F7C"/>
<stop offset="1" stop-color="#DF0066"/>
</linearGradient>
<linearGradient id="paint10_linear_451_1933" x1="16.1432" y1="4.09736" x2="12.755" y2="5.5439" gradientUnits="userSpaceOnUse">
<stop stop-color="#FE0F7C"/>
<stop offset="1" stop-color="#DF0066"/>
</linearGradient>
<linearGradient id="paint11_linear_451_1933" x1="16.1432" y1="4.09736" x2="12.755" y2="5.5439" gradientUnits="userSpaceOnUse">
<stop stop-color="#FE0F7C"/>
<stop offset="1" stop-color="#DF0066"/>
</linearGradient>
<linearGradient id="paint12_linear_451_1933" x1="4.434" y1="4.94466" x2="-0.360609" y2="6.43948" gradientUnits="userSpaceOnUse">
<stop stop-color="#FE0F7C"/>
<stop offset="1" stop-color="#DF0066"/>
</linearGradient>
<linearGradient id="paint13_linear_451_1933" x1="4.434" y1="4.94466" x2="-0.360609" y2="6.43948" gradientUnits="userSpaceOnUse">
<stop stop-color="#FE0F7C"/>
<stop offset="1" stop-color="#DF0066"/>
</linearGradient>
<linearGradient id="paint14_linear_451_1933" x1="20.7239" y1="5.10582" x2="20.4756" y2="5.11016" gradientUnits="userSpaceOnUse">
<stop stop-color="#FE0F7C"/>
<stop offset="1" stop-color="#DF0066"/>
</linearGradient>
<linearGradient id="paint15_linear_451_1933" x1="20.7235" y1="5.10567" x2="20.4752" y2="5.11002" gradientUnits="userSpaceOnUse">
<stop stop-color="#FE0F7C"/>
<stop offset="1" stop-color="#DF0066"/>
</linearGradient>
<linearGradient id="paint16_linear_451_1933" x1="3.88295" y1="8.59227" x2="0.924675" y2="10.0108" gradientUnits="userSpaceOnUse">
<stop stop-color="#FE0F7C"/>
<stop offset="1" stop-color="#DF0066"/>
</linearGradient>
<linearGradient id="paint17_linear_451_1933" x1="3.88295" y1="8.59227" x2="0.924675" y2="10.0108" gradientUnits="userSpaceOnUse">
<stop stop-color="#FE0F7C"/>
<stop offset="1" stop-color="#DF0066"/>
</linearGradient>
<linearGradient id="paint18_linear_451_1933" x1="20.3958" y1="10.1686" x2="15.6063" y2="19.0896" gradientUnits="userSpaceOnUse">
<stop stop-color="#FE0F7C"/>
<stop offset="1" stop-color="#DF0066"/>
</linearGradient>
<linearGradient id="paint19_linear_451_1933" x1="20.3958" y1="10.1686" x2="15.6063" y2="19.0896" gradientUnits="userSpaceOnUse">
<stop stop-color="#FE0F7C"/>
<stop offset="1" stop-color="#DF0066"/>
</linearGradient>
<linearGradient id="paint20_linear_451_1933" x1="8.69022" y1="18.3782" x2="8.4481" y2="20.2506" gradientUnits="userSpaceOnUse">
<stop stop-color="#FE0F7C"/>
<stop offset="1" stop-color="#DF0066"/>
</linearGradient>
<linearGradient id="paint21_linear_451_1933" x1="8.69022" y1="18.3782" x2="8.4481" y2="20.2506" gradientUnits="userSpaceOnUse">
<stop stop-color="#FE0F7C"/>
<stop offset="1" stop-color="#DF0066"/>
</linearGradient>
<linearGradient id="paint22_linear_451_1933" x1="17.7342" y1="18.7283" x2="17.671" y2="20.2567" gradientUnits="userSpaceOnUse">
<stop stop-color="#FE0F7C"/>
<stop offset="1" stop-color="#DF0066"/>
</linearGradient>
<linearGradient id="paint23_linear_451_1933" x1="17.7342" y1="18.7283" x2="17.671" y2="20.2567" gradientUnits="userSpaceOnUse">
<stop stop-color="#FE0F7C"/>
<stop offset="1" stop-color="#DF0066"/>
</linearGradient>
<linearGradient id="paint24_linear_451_1933" x1="20.1162" y1="2.47814" x2="13.065" y2="20.1832" gradientUnits="userSpaceOnUse">
<stop stop-color="#FE0F7C"/>
<stop offset="1" stop-color="#DF0066"/>
</linearGradient>
<linearGradient id="paint25_linear_451_1933" x1="20.1167" y1="2.47778" x2="13.0655" y2="20.1829" gradientUnits="userSpaceOnUse">
<stop stop-color="#FE0F7C"/>
<stop offset="1" stop-color="#DF0066"/>
</linearGradient>
<linearGradient id="paint26_linear_451_1933" x1="20.1164" y1="2.47792" x2="13.0652" y2="20.183" gradientUnits="userSpaceOnUse">
<stop stop-color="#FE0F7C"/>
<stop offset="1" stop-color="#DF0066"/>
</linearGradient>
<linearGradient id="paint27_linear_451_1933" x1="20.1162" y1="2.47814" x2="13.065" y2="20.1832" gradientUnits="userSpaceOnUse">
<stop stop-color="#FE0F7C"/>
<stop offset="1" stop-color="#DF0066"/>
</linearGradient>
</defs>
</svg>
