<svg width="23" height="22" viewBox="0 0 23 22" fill="none" xmlns="http://www.w3.org/2000/svg">
<path d="M13.1958 4.46206H18.9406C19.3964 4.46206 19.8335 4.64315 20.1558 4.96547C20.4782 5.2878 20.6592 5.72499 20.6592 6.18082V10.4777C20.6592 10.9523 20.2745 11.3371 19.7998 11.3371C19.3251 11.3371 18.9406 10.9523 18.9406 10.4777V6.98648C18.9406 6.54151 18.5798 6.18082 18.1349 6.18082H4.27736C3.83239 6.18082 3.4717 6.54151 3.4717 6.98648V15.6877C3.4717 16.1326 3.83239 16.4934 4.27736 16.4934H18.1349C18.5798 16.4934 18.9406 16.1326 18.9406 15.6877V14.7746C18.9406 14.3 19.3251 13.9152 19.7998 13.9152C20.2745 13.9152 20.6592 14.3 20.6592 14.7746V16.4934C20.6592 17.4386 19.8857 18.212 18.9406 18.212H3.4717C2.52637 18.212 1.75293 17.4386 1.75293 16.4934V6.18082C1.75293 5.72499 1.93402 5.2878 2.25633 4.96547C2.57867 4.64315 3.01585 4.46206 3.4717 4.46206H9.21468C9.502 4.46206 9.64569 4.11445 9.44219 3.91157L7.46418 1.93956C7.29538 1.77126 7.29519 1.49794 7.46372 1.32939C7.63209 1.16104 7.90506 1.16104 8.07341 1.32939L10.9782 4.23419C11.1041 4.36004 11.3081 4.36004 11.434 4.23419L14.3385 1.32963C14.5066 1.16149 14.7796 1.16245 14.9465 1.33179C15.1118 1.49943 15.1108 1.76902 14.9444 1.93548L12.9679 3.91193C12.7649 4.11493 12.9087 4.46206 13.1958 4.46206Z" fill="url(#paint0_linear_451_1992)"/>
<path d="M8.62793 14.2194V8.45507C8.62793 8.20763 8.89525 8.0525 9.11009 8.17525L14.1539 11.0574C14.3704 11.1812 14.3704 11.4934 14.1539 11.6171L9.11009 14.4993C8.89525 14.622 8.62793 14.4669 8.62793 14.2194Z" fill="url(#paint1_linear_451_1992)"/>
<path d="M5.56641 8.49023C5.56641 8.13426 5.27785 7.8457 4.92188 7.8457C4.5659 7.8457 4.27734 8.13426 4.27734 8.49023V14.291C4.27734 14.647 4.5659 14.9356 4.92188 14.9356C5.27785 14.9356 5.56641 14.647 5.56641 14.291V8.49023Z" fill="url(#paint2_linear_451_1992)"/>
<defs>
<linearGradient id="paint0_linear_451_1992" x1="11.2061" y1="18.212" x2="11.2061" y2="1.02454" gradientUnits="userSpaceOnUse">
<stop stop-color="#9000FF"/>
<stop offset="1" stop-color="#FF00FF"/>
</linearGradient>
<linearGradient id="paint1_linear_451_1992" x1="8.62793" y1="14.008" x2="10.5186" y2="10.6564" gradientUnits="userSpaceOnUse">
<stop stop-color="#FD0000"/>
<stop offset="1" stop-color="#FFDE00"/>
</linearGradient>
<linearGradient id="paint2_linear_451_1992" x1="4.92188" y1="14.9356" x2="4.92188" y2="7.8457" gradientUnits="userSpaceOnUse">
<stop stop-color="#FD0F00"/>
<stop offset="1" stop-color="#FF0F00"/>
</linearGradient>
</defs>
</svg>
