<svg width="23" height="22" viewBox="0 0 23 22" fill="none" xmlns="http://www.w3.org/2000/svg">
<path d="M13.3892 4.46206H19.134C19.5898 4.46206 20.0269 4.64315 20.3491 4.96547C20.6716 5.2878 20.8525 5.72499 20.8525 6.18082V10.4777C20.8525 10.9523 20.4679 11.3371 19.9932 11.3371C19.5184 11.3371 19.134 10.9523 19.134 10.4777V6.98648C19.134 6.54151 18.7732 6.18082 18.3282 6.18082H4.47072C4.02575 6.18082 3.66506 6.54151 3.66506 6.98648V15.6877C3.66506 16.1326 4.02575 16.4934 4.47072 16.4934H18.3282C18.7732 16.4934 19.134 16.1326 19.134 15.6877V14.7746C19.134 14.3 19.5184 13.9152 19.9932 13.9152C20.4679 13.9152 20.8525 14.3 20.8525 14.7746V16.4934C20.8525 17.4386 20.0791 18.212 19.134 18.212H3.66506C2.71973 18.212 1.94629 17.4386 1.94629 16.4934V6.18082C1.94629 5.72499 2.12738 5.2878 2.44969 4.96547C2.77203 4.64315 3.20921 4.46206 3.66506 4.46206H9.40804C9.69536 4.46206 9.83905 4.11445 9.63555 3.91157L7.65754 1.93956C7.48874 1.77126 7.48855 1.49794 7.65708 1.32939C7.82545 1.16104 8.09842 1.16104 8.26677 1.32939L11.1716 4.23419C11.2974 4.36004 11.5015 4.36004 11.6273 4.23419L14.5319 1.32963C14.7 1.16149 14.9729 1.16245 15.1399 1.33179C15.3051 1.49943 15.3042 1.76902 15.1377 1.93548L13.1613 3.91193C12.9583 4.11493 13.1021 4.46206 13.3892 4.46206Z" fill="url(#paint0_linear_451_1996)"/>
<path d="M8.82129 14.2194V8.45507C8.82129 8.20763 9.08861 8.0525 9.30345 8.17525L14.3473 11.0574C14.5638 11.1812 14.5638 11.4934 14.3473 11.6171L9.30345 14.4993C9.08861 14.622 8.82129 14.4669 8.82129 14.2194Z" fill="url(#paint1_linear_451_1996)"/>
<path d="M5.75977 8.49023C5.75977 8.13426 5.4712 7.8457 5.11523 7.8457C4.75926 7.8457 4.4707 8.13426 4.4707 8.49023V14.291C4.4707 14.647 4.75926 14.9356 5.11523 14.9356C5.4712 14.9356 5.75977 14.647 5.75977 14.291V8.49023Z" fill="url(#paint2_linear_451_1996)"/>
<defs>
<linearGradient id="paint0_linear_451_1996" x1="11.3994" y1="18.212" x2="11.3994" y2="1.02454" gradientUnits="userSpaceOnUse">
<stop stop-color="#9000FF"/>
<stop offset="1" stop-color="#FF00FF"/>
</linearGradient>
<linearGradient id="paint1_linear_451_1996" x1="8.82129" y1="14.008" x2="10.7119" y2="10.6564" gradientUnits="userSpaceOnUse">
<stop stop-color="#FD0000"/>
<stop offset="1" stop-color="#FFDE00"/>
</linearGradient>
<linearGradient id="paint2_linear_451_1996" x1="5.11523" y1="14.9356" x2="5.11523" y2="7.8457" gradientUnits="userSpaceOnUse">
<stop stop-color="#FD0F00"/>
<stop offset="1" stop-color="#FF0F00"/>
</linearGradient>
</defs>
</svg>
