<svg width="23" height="22" viewBox="0 0 23 22" fill="none" xmlns="http://www.w3.org/2000/svg">
<path d="M4.77753 8.10548C4.77753 7.91562 4.93143 7.76173 5.12128 7.76173H14.565C14.836 7.76173 15.0049 7.45926 14.8916 7.21305C14.6588 6.70695 14.5183 6.16246 14.4775 5.6054C14.4636 5.41598 14.311 5.26172 14.1211 5.26172H3.84002C3.58584 5.26828 3.34456 5.37516 3.1689 5.55901C2.99325 5.74287 2.8975 5.98875 2.90253 6.24297V16.168C2.90253 16.3578 3.05643 16.5117 3.24628 16.5117H4.43378C4.62362 16.5117 4.77753 16.3578 4.77753 16.168V8.10548Z" fill="url(#paint0_linear_451_2000)"/>
<path d="M20.4023 10.2302C20.4023 10.0018 20.1832 9.83701 19.9584 9.87712C19.6169 9.93804 19.2693 9.95895 18.923 9.93938C18.7137 9.92755 18.5273 10.0874 18.5273 10.2971V16.168C18.5273 16.3579 18.6812 16.5118 18.8711 16.5118H20.0586C20.2483 16.5118 20.4023 16.3579 20.4023 16.168V10.2302Z" fill="url(#paint1_linear_451_2000)"/>
<path d="M18.5078 8.71875C20.0612 8.71875 21.3204 7.45955 21.3204 5.90624C21.3204 4.35294 20.0612 3.09375 18.5078 3.09375C16.9545 3.09375 15.6953 4.35294 15.6953 5.90624C15.6953 7.45955 16.9545 8.71875 18.5078 8.71875Z" fill="url(#paint2_linear_451_2000)"/>
<path d="M2.21875 18.8554C1.70313 18.8554 1.28125 18.4336 1.28125 17.918C1.28125 17.4024 1.70313 16.9805 2.21875 16.9805H20.9687C21.4843 16.9805 21.9062 17.4024 21.9062 17.918C21.9062 18.4336 21.4843 18.8554 20.9687 18.8554H2.21875Z" fill="url(#paint3_linear_451_2000)"/>
<path d="M14.6875 12.0775C14.9167 12.2098 14.9167 12.5406 14.6875 12.6729L10.3047 15.2033C10.0755 15.3356 9.78906 15.1702 9.78906 14.9056V9.84476C9.78906 9.58014 10.0755 9.41474 10.3047 9.54705L14.6875 12.0775Z" fill="url(#paint4_linear_451_2000)"/>
<defs>
<linearGradient id="paint0_linear_451_2000" x1="9.04619" y1="16.5117" x2="9.04619" y2="5.26172" gradientUnits="userSpaceOnUse">
<stop stop-color="#FD5900"/>
<stop offset="1" stop-color="#FFDE00"/>
</linearGradient>
<linearGradient id="paint1_linear_451_2000" x1="19.4647" y1="16.5118" x2="19.4647" y2="9.77429" gradientUnits="userSpaceOnUse">
<stop stop-color="#FD5900"/>
<stop offset="1" stop-color="#FFDE00"/>
</linearGradient>
<linearGradient id="paint2_linear_451_2000" x1="18.5078" y1="8.71875" x2="18.5078" y2="3.09375" gradientUnits="userSpaceOnUse">
<stop stop-color="#FD2E00"/>
<stop offset="1" stop-color="#FF9900"/>
</linearGradient>
<linearGradient id="paint3_linear_451_2000" x1="11.5938" y1="18.8554" x2="11.5938" y2="16.9805" gradientUnits="userSpaceOnUse">
<stop stop-color="#FD5900"/>
<stop offset="1" stop-color="#FFDE00"/>
</linearGradient>
<linearGradient id="paint4_linear_451_2000" x1="7.98438" y1="12.3752" x2="15.2031" y2="12.3752" gradientUnits="userSpaceOnUse">
<stop stop-color="#FD2E00"/>
<stop offset="1" stop-color="#FF9900"/>
</linearGradient>
</defs>
</svg>
