<svg width="23" height="22" viewBox="0 0 23 22" fill="none" xmlns="http://www.w3.org/2000/svg">
<path d="M13.2965 5.50011H19.4242C19.9104 5.50011 20.3767 5.69327 20.7205 6.03709C21.0644 6.38091 21.2574 6.84722 21.2574 7.33344V11.9168C21.2574 12.423 20.8472 12.8334 20.3408 12.8334C19.8345 12.8334 19.4242 12.423 19.4242 11.9168V8.19281C19.4242 7.7182 19.0394 7.33344 18.5648 7.33344H3.78353C3.3089 7.33344 2.92416 7.7182 2.92416 8.19281V17.4741C2.92416 17.9487 3.3089 18.3335 3.78353 18.3335H18.5648C19.0394 18.3335 19.4242 17.9487 19.4242 17.4741V16.5001C19.4242 15.9939 19.8345 15.5834 20.3408 15.5834C20.8472 15.5834 21.2574 15.9939 21.2574 16.5001V18.3335C21.2574 19.3417 20.4324 20.1667 19.4242 20.1667H2.92416C1.91582 20.1667 1.09082 19.3417 1.09082 18.3335V7.33344C1.09082 6.84722 1.28397 6.38091 1.62779 6.03709C1.97161 5.69327 2.43792 5.50011 2.92416 5.50011H9.04999C9.35648 5.50011 9.50974 5.12933 9.29268 4.91292L7.18281 2.80945C7.00275 2.62994 7.00254 2.33839 7.18231 2.15861C7.3619 1.97903 7.65307 1.97903 7.83265 2.15861L10.9311 5.25705C11.0653 5.39128 11.283 5.39128 11.4172 5.25705L14.5154 2.15886C14.6947 1.97951 14.9858 1.98054 15.1639 2.16117C15.3402 2.33999 15.3392 2.62755 15.1616 2.80511L13.0535 4.9133C12.8369 5.12984 12.9903 5.50011 13.2965 5.50011Z" fill="url(#paint0_linear_451_2018)"/>
<path d="M8.42383 15.9075V9.7588C8.42383 9.49487 8.70897 9.32941 8.93813 9.46034L14.3182 12.5347C14.5491 12.6666 14.5491 12.9996 14.3182 13.1316L8.93813 16.2059C8.70897 16.3369 8.42383 16.1714 8.42383 15.9075Z" fill="url(#paint1_linear_451_2018)"/>
<path d="M5.1582 9.79688C5.1582 9.41718 4.8504 9.10938 4.4707 9.10938C4.09101 9.10938 3.7832 9.41718 3.7832 9.79688V15.9844C3.7832 16.3641 4.09101 16.6719 4.4707 16.6719C4.8504 16.6719 5.1582 16.3641 5.1582 15.9844V9.79688Z" fill="url(#paint2_linear_451_2018)"/>
<defs>
<linearGradient id="paint0_linear_451_2018" x1="11.1742" y1="20.1667" x2="11.1742" y2="1.83344" gradientUnits="userSpaceOnUse">
<stop stop-color="#A93AFF"/>
<stop offset="1" stop-color="#FF81FF"/>
</linearGradient>
<linearGradient id="paint1_linear_451_2018" x1="11.6322" y1="16.4998" x2="11.6322" y2="9.16647" gradientUnits="userSpaceOnUse">
<stop stop-color="#FD5900"/>
<stop offset="1" stop-color="#FFDE00"/>
</linearGradient>
<linearGradient id="paint2_linear_451_2018" x1="4.4707" y1="16.6719" x2="4.4707" y2="9.10938" gradientUnits="userSpaceOnUse">
<stop stop-color="#FD2E00"/>
<stop offset="1" stop-color="#FF9900"/>
</linearGradient>
</defs>
</svg>
