<svg width="23" height="22" viewBox="0 0 23 22" fill="none" xmlns="http://www.w3.org/2000/svg">
<g opacity="0.4">
<path d="M6.02553 3.6665H11.7874H17.5493C19.5862 3.6665 20.6053 3.6665 21.2377 4.43352C21.8708 5.19966 21.8708 6.43438 21.8708 8.90208V12.3924C21.8708 14.8602 21.8708 16.0949 21.2377 16.861C20.6053 17.6281 19.5862 17.6281 17.5493 17.6281H11.7874H6.02553C3.9887 17.6281 2.96956 17.6281 2.33719 16.861C1.7041 16.0949 1.7041 14.8602 1.7041 12.3924V8.90208C1.7041 6.43438 1.7041 5.19966 2.33719 4.43352C2.96956 3.6665 3.9887 3.6665 6.02553 3.6665Z" fill="url(#paint0_linear_451_2006)"/>
</g>
<path d="M18.8452 7.90674C19.1126 7.90674 19.3691 8.01297 19.5582 8.20207C19.7473 8.39117 19.8536 8.64764 19.8536 8.91507C19.8536 9.18246 19.7473 9.43895 19.5582 9.62805C19.3691 9.81716 19.1126 9.92341 18.8452 9.92341C18.5778 9.92341 18.3213 9.81716 18.1323 9.62805C17.9432 9.43895 17.8369 9.18246 17.8369 8.91507C17.8369 8.64764 17.9432 8.39117 18.1323 8.20207C18.3213 8.01297 18.5778 7.90674 18.8452 7.90674ZM18.8452 11.9401C19.1126 11.9401 19.3691 12.0463 19.5582 12.2354C19.7473 12.4245 19.8536 12.681 19.8536 12.9484C19.8536 13.2158 19.7473 13.4723 19.5582 13.6614C19.3691 13.8505 19.1126 13.9567 18.8452 13.9567C18.5778 13.9567 18.3213 13.8505 18.1323 13.6614C17.9432 13.4723 17.8369 13.2158 17.8369 12.9484C17.8369 12.681 17.9432 12.4245 18.1323 12.2354C18.3213 12.0463 18.5778 11.9401 18.8452 11.9401Z" fill="url(#paint1_linear_451_2006)"/>
<path d="M18.8452 7.90674C19.1126 7.90674 19.3691 8.01297 19.5582 8.20207C19.7473 8.39117 19.8536 8.64764 19.8536 8.91507C19.8536 9.18246 19.7473 9.43895 19.5582 9.62805C19.3691 9.81716 19.1126 9.92341 18.8452 9.92341C18.5778 9.92341 18.3213 9.81716 18.1323 9.62805C17.9432 9.43895 17.8369 9.18246 17.8369 8.91507C17.8369 8.64764 17.9432 8.39117 18.1323 8.20207C18.3213 8.01297 18.5778 7.90674 18.8452 7.90674ZM18.8452 11.9401C19.1126 11.9401 19.3691 12.0463 19.5582 12.2354C19.7473 12.4245 19.8536 12.681 19.8536 12.9484C19.8536 13.2158 19.7473 13.4723 19.5582 13.6614C19.3691 13.8505 19.1126 13.9567 18.8452 13.9567C18.5778 13.9567 18.3213 13.8505 18.1323 13.6614C17.9432 13.4723 17.8369 13.2158 17.8369 12.9484C17.8369 12.681 17.9432 12.4245 18.1323 12.2354C18.3213 12.0463 18.5778 11.9401 18.8452 11.9401Z" fill="url(#paint2_linear_451_2006)"/>
<path d="M12.3983 11.0047C12.3983 11.2363 12.3288 11.4689 12.1899 11.6551C12.1639 11.6916 12.0423 11.8422 11.9468 11.9402L11.8947 11.9936C11.1656 12.8054 9.35134 14.0262 8.4312 14.4173C8.4312 14.4262 7.88433 14.6589 7.62391 14.6668H7.58919C7.18989 14.6668 6.81662 14.436 6.62565 14.0618C6.52148 13.8559 6.426 13.259 6.41732 13.2509C6.33919 12.7154 6.28711 11.8957 6.28711 10.9957C6.28711 10.0521 6.33919 9.1958 6.43467 8.67007C6.43467 8.66116 6.53016 8.17999 6.59093 8.0196C6.68642 7.78882 6.86003 7.5919 7.07704 7.46716C7.25065 7.37894 7.43294 7.3335 7.62391 7.3335C7.82357 7.3433 8.19683 7.47607 8.3444 7.53844C9.31662 7.9305 11.1742 9.21358 11.8861 9.9977C12.0076 10.1225 12.1378 10.2748 12.1726 10.3096C12.3201 10.5056 12.3983 10.7462 12.3983 11.0047Z" fill="url(#paint3_linear_451_2006)"/>
<defs>
<linearGradient id="paint0_linear_451_2006" x1="11.7874" y1="3.6665" x2="11.7874" y2="17.6281" gradientUnits="userSpaceOnUse">
<stop stop-color="#FCBC18"/>
<stop offset="1" stop-color="#FF6F1E"/>
</linearGradient>
<linearGradient id="paint1_linear_451_2006" x1="18.8452" y1="7.90674" x2="18.8452" y2="13.9567" gradientUnits="userSpaceOnUse">
<stop stop-color="#FCBC18"/>
<stop offset="1" stop-color="#FF6F1E"/>
</linearGradient>
<linearGradient id="paint2_linear_451_2006" x1="18.8452" y1="7.90674" x2="18.8452" y2="13.9567" gradientUnits="userSpaceOnUse">
<stop stop-color="#FCBC18"/>
<stop offset="1" stop-color="#FF6F1E"/>
</linearGradient>
<linearGradient id="paint3_linear_451_2006" x1="9.34266" y1="7.3335" x2="9.34266" y2="14.6668" gradientUnits="userSpaceOnUse">
<stop stop-color="#FCBC18"/>
<stop offset="1" stop-color="#FF6F1E"/>
</linearGradient>
</defs>
</svg>
