<svg width="23" height="22" viewBox="0 0 23 22" fill="none" xmlns="http://www.w3.org/2000/svg">
<path d="M16.9961 19.4972H16.2168L14.7098 16.408C17.3891 15.1439 19.252 12.4242 19.252 9.27051C19.252 4.91685 15.7101 1.375 11.3564 1.375C7.00278 1.375 3.46094 4.91685 3.46094 9.27051C3.46094 12.4361 5.33774 15.1649 8.03329 16.4226L6.62727 19.4972H5.7168C5.40507 19.4972 5.15284 19.7493 5.15284 20.0611C5.15284 20.3727 5.40507 20.625 5.7168 20.625H16.9961C17.3078 20.625 17.56 20.3727 17.56 20.0611C17.56 19.7493 17.3078 19.4972 16.9961 19.4972ZM4.58887 9.27051C4.58887 5.53864 7.62458 2.50293 11.3564 2.50293C15.0883 2.50293 18.1239 5.53864 18.1239 9.27051C18.1239 13.0024 15.0883 16.0381 11.3564 16.0381C7.62458 16.0381 4.58887 13.0024 4.58887 9.27051ZM7.87299 19.4972L9.08792 16.8302C9.80711 17.0464 10.5678 17.166 11.3564 17.166C12.1562 17.166 12.9277 17.0444 13.6558 16.8223L14.9556 19.4972H7.87299ZM15.3042 9.27051C15.3042 7.09393 13.533 5.32276 11.3564 5.32276C9.17987 5.32276 7.4087 7.09393 7.4087 9.27051C7.4087 11.4471 9.17987 13.2183 11.3564 13.2183C13.533 13.2183 15.3042 11.4471 15.3042 9.27051ZM8.53661 9.27051C8.53661 7.71573 9.80166 6.45068 11.3564 6.45068C12.9112 6.45068 14.1763 7.71573 14.1763 9.27051C14.1763 10.8253 12.9112 12.0903 11.3564 12.0903C9.80166 12.0903 8.53661 10.8253 8.53661 9.27051Z" fill="url(#paint0_linear_451_2022)" stroke="url(#paint1_linear_451_2022)"/>
<path fill-rule="evenodd" clip-rule="evenodd" d="M13.0488 9.2705C13.0488 8.33754 12.2899 7.57861 11.3569 7.57861C10.424 7.57861 9.66504 8.33754 9.66504 9.2705C9.66504 10.2035 10.424 10.9624 11.3569 10.9624C12.2899 10.9624 13.0488 10.2035 13.0488 9.2705ZM10.793 9.2705C10.793 8.95934 11.0458 8.70653 11.3569 8.70653C11.6681 8.70653 11.9209 8.95934 11.9209 9.2705C11.9209 9.58166 11.6681 9.83447 11.3569 9.83447C11.0458 9.83447 10.793 9.58166 10.793 9.2705Z" fill="#FF0000"/>
<defs>
<linearGradient id="paint0_linear_451_2022" x1="11.3672" y1="1.375" x2="12.7254" y2="20.5288" gradientUnits="userSpaceOnUse">
<stop stop-color="#FF00A8"/>
<stop offset="1" stop-color="#9A06F4"/>
</linearGradient>
<linearGradient id="paint1_linear_451_2022" x1="11.3672" y1="1.375" x2="12.7254" y2="20.5288" gradientUnits="userSpaceOnUse">
<stop stop-color="#FF00A8"/>
<stop offset="1" stop-color="#9A06F4"/>
</linearGradient>
</defs>
</svg>
