<svg width="23" height="22" viewBox="0 0 23 22" fill="none" xmlns="http://www.w3.org/2000/svg">
<path opacity="0.4" d="M11.7698 7.42501C14.3846 7.42501 16.7541 8.48665 18.4657 10.1993C18.6127 10.3362 18.7305 10.5013 18.8122 10.6847C18.894 10.8681 18.9379 11.0661 18.9414 11.2669C18.945 11.4676 18.908 11.6671 18.8328 11.8533C18.7576 12.0395 18.6457 12.2086 18.5037 12.3506C18.3617 12.4926 18.1926 12.6045 18.0064 12.6797C17.8202 12.755 17.6208 12.7919 17.42 12.7883C17.2192 12.7848 17.0212 12.7409 16.8378 12.6591C16.6543 12.5774 16.4893 12.4596 16.3524 12.3127C15.7514 11.7099 15.037 11.232 14.2505 10.9064C13.4641 10.5808 12.621 10.414 11.7698 10.4156C10.9187 10.4143 10.0757 10.5813 9.2894 10.9071C8.50311 11.2328 7.78897 11.7108 7.18816 12.3136C6.90777 12.5941 6.52744 12.7518 6.13082 12.7519C5.7342 12.752 5.35381 12.5945 5.07331 12.3141C4.79278 12.0338 4.63513 11.6534 4.63503 11.2568C4.63496 10.8602 4.79243 10.4798 5.07279 10.1993C5.95138 9.31862 6.99528 8.62019 8.14454 8.1441C9.2938 7.66804 10.5258 7.42363 11.7698 7.42501ZM11.7698 3.43751C15.4851 3.43751 18.8525 4.94578 21.2859 7.37915C21.4247 7.51803 21.5348 7.68292 21.6099 7.86435C21.685 8.04582 21.7237 8.24028 21.7236 8.43666C21.7236 8.63305 21.6849 8.82751 21.6097 9.0089C21.5345 9.19034 21.4243 9.35516 21.2854 9.494C21.1465 9.63281 20.9816 9.74295 20.8001 9.81806C20.6187 9.89317 20.4242 9.9318 20.2278 9.93174C20.0315 9.9317 19.837 9.89296 19.6556 9.81778C19.4742 9.74257 19.3093 9.6324 19.1705 9.49349C18.1999 8.51999 17.0463 7.748 15.7762 7.22192C14.5061 6.69588 13.1445 6.42607 11.7698 6.42813C8.87883 6.42813 6.26406 7.59846 4.368 9.49349C4.23071 9.63872 4.06567 9.75498 3.88267 9.83531C3.69968 9.91568 3.50243 9.95855 3.30258 9.96137C3.10274 9.96422 2.90435 9.92692 2.71915 9.85178C2.53396 9.77664 2.3657 9.66509 2.22434 9.52381C2.08299 9.38253 1.97139 9.21433 1.89614 9.02915C1.8209 8.84401 1.78354 8.64563 1.78627 8.44577C1.789 8.24595 1.83177 8.04867 1.91205 7.86563C1.99233 7.68258 2.10848 7.51751 2.25365 7.38015C3.502 6.12862 4.98531 5.13605 6.61836 4.45944C8.25145 3.78287 10.0021 3.43557 11.7698 3.43751Z" fill="url(#paint0_linear_451_2029)"/>
<path d="M13.868 11.8288C13.2027 11.5534 12.4897 11.4119 11.7697 11.4126C11.0496 11.412 10.3364 11.5535 9.67117 11.8291C9.00587 12.1047 8.40156 12.5089 7.89284 13.0186C7.61245 13.2991 7.45498 13.6795 7.45508 14.0761C7.45518 14.4727 7.61283 14.853 7.89333 15.1334C8.17386 15.4138 8.55425 15.5713 8.95087 15.5712C9.34749 15.5711 9.72782 15.4134 10.0082 15.1329L10.1477 15.0023C10.5844 14.6275 11.1496 14.4032 11.7697 14.4032C12.097 14.4025 12.4214 14.4666 12.7238 14.5918C13.0263 14.7171 13.3011 14.901 13.5321 15.1329L13.6458 15.2356C13.9431 15.4786 14.3225 15.5979 14.7054 15.5688C15.0882 15.5398 15.4452 15.3645 15.7024 15.0794C15.9596 14.7942 16.0973 14.4211 16.0868 14.0373C16.0764 13.6534 15.9188 13.2883 15.6465 13.0176C15.1376 12.5082 14.5333 12.1042 13.868 11.8288Z" fill="url(#paint1_linear_451_2029)"/>
<path d="M12.827 15.8379C12.5466 15.5574 12.1663 15.3999 11.7697 15.3999C11.3731 15.3999 10.9928 15.5574 10.7124 15.8379C10.432 16.1183 10.2744 16.4986 10.2744 16.8952C10.2744 17.2918 10.432 17.6721 10.7124 17.9526C10.9928 18.233 11.3731 18.3905 11.7697 18.3905C12.1663 18.3905 12.5466 18.233 12.827 17.9526C13.1075 17.6721 13.265 17.2918 13.265 16.8952C13.265 16.4986 13.1075 16.1183 12.827 15.8379Z" fill="url(#paint2_linear_451_2029)"/>
<defs>
<linearGradient id="paint0_linear_451_2029" x1="5.3998" y1="11.6846" x2="12.4986" y2="-1.52136" gradientUnits="userSpaceOnUse">
<stop stop-color="#FE0844"/>
<stop offset="1" stop-color="#FEB302"/>
</linearGradient>
<linearGradient id="paint1_linear_451_2029" x1="9.01969" y1="17.5669" x2="15.3524" y2="10.7316" gradientUnits="userSpaceOnUse">
<stop stop-color="#FE0844"/>
<stop offset="1" stop-color="#FEB302"/>
</linearGradient>
<linearGradient id="paint2_linear_451_2029" x1="9.01973" y1="17.5667" x2="15.3524" y2="10.7314" gradientUnits="userSpaceOnUse">
<stop stop-color="#FE0844"/>
<stop offset="1" stop-color="#FEB302"/>
</linearGradient>
</defs>
</svg>
