<svg width="23" height="22" viewBox="0 0 23 22" fill="none" xmlns="http://www.w3.org/2000/svg">
<path opacity="0.4" d="M11.5764 7.42501C14.1912 7.42501 16.5607 8.48665 18.2724 10.1993C18.4193 10.3362 18.5371 10.5013 18.6188 10.6847C18.7006 10.8681 18.7445 11.0661 18.7481 11.2669C18.7516 11.4676 18.7147 11.6671 18.6395 11.8533C18.5643 12.0395 18.4523 12.2086 18.3103 12.3506C18.1683 12.4926 17.9992 12.6045 17.813 12.6797C17.6268 12.755 17.4274 12.7919 17.2266 12.7883C17.0258 12.7848 16.8278 12.7409 16.6444 12.6591C16.461 12.5774 16.2959 12.4596 16.159 12.3127C15.558 11.7099 14.8437 11.232 14.0572 10.9064C13.2707 10.5808 12.4276 10.414 11.5764 10.4156C10.7253 10.4143 9.88234 10.5813 9.09604 10.9071C8.30975 11.2328 7.59561 11.7108 6.9948 12.3136C6.71441 12.5941 6.33408 12.7518 5.93746 12.7519C5.54084 12.752 5.16045 12.5945 4.87995 12.3141C4.59942 12.0338 4.44177 11.6534 4.44167 11.2568C4.4416 10.8602 4.59907 10.4798 4.87943 10.1993C5.75803 9.31862 6.80193 8.62019 7.95118 8.1441C9.10044 7.66804 10.3324 7.42363 11.5764 7.42501ZM11.5764 3.43751C15.2917 3.43751 18.6592 4.94578 21.0925 7.37915C21.2313 7.51803 21.3415 7.68292 21.4166 7.86435C21.4917 8.04582 21.5303 8.24028 21.5303 8.43666C21.5302 8.63305 21.4915 8.82751 21.4163 9.0089C21.3411 9.19034 21.2309 9.35516 21.092 9.494C20.9531 9.63281 20.7883 9.74295 20.6068 9.81806C20.4254 9.89317 20.2309 9.9318 20.0345 9.93174C19.8381 9.9317 19.6437 9.89296 19.4622 9.81778C19.2808 9.74257 19.116 9.6324 18.9772 9.49349C18.0065 8.51999 16.8529 7.748 15.5828 7.22192C14.3127 6.69588 12.9511 6.42607 11.5764 6.42813C8.68547 6.42813 6.0707 7.59846 4.17464 9.49349C4.03735 9.63872 3.87231 9.75498 3.68931 9.83531C3.50632 9.91568 3.30907 9.95855 3.10922 9.96137C2.90938 9.96422 2.71099 9.92692 2.52579 9.85178C2.3406 9.77664 2.17235 9.66509 2.03098 9.52381C1.88963 9.38253 1.77803 9.21433 1.70278 9.02915C1.62754 8.84401 1.59018 8.64563 1.59291 8.44577C1.59564 8.24595 1.63841 8.04867 1.71869 7.86563C1.79897 7.68258 1.91512 7.51751 2.06029 7.38015C3.30864 6.12862 4.79195 5.13605 6.425 4.45944C8.05809 3.78287 9.80874 3.43557 11.5764 3.43751Z" fill="url(#paint0_linear_451_2025)"/>
<path d="M13.6746 11.8288C13.0094 11.5534 12.2963 11.4119 11.5763 11.4126C10.8562 11.412 10.1431 11.5535 9.47781 11.8291C8.81251 12.1047 8.2082 12.5089 7.69948 13.0186C7.41909 13.2991 7.26162 13.6795 7.26172 14.0761C7.26182 14.4727 7.41947 14.853 7.69997 15.1334C7.9805 15.4138 8.36089 15.5713 8.75751 15.5712C9.15413 15.5711 9.53446 15.4134 9.81482 15.1329L9.95438 15.0023C10.391 14.6275 10.9562 14.4032 11.5763 14.4032C11.9037 14.4025 12.228 14.4666 12.5305 14.5918C12.833 14.7171 13.1077 14.901 13.3388 15.1329L13.4524 15.2356C13.7497 15.4786 14.1291 15.5979 14.512 15.5688C14.8949 15.5398 15.2519 15.3645 15.509 15.0794C15.7662 14.7942 15.9039 14.4211 15.8935 14.0373C15.8831 13.6534 15.7254 13.2883 15.4531 13.0176C14.9443 12.5082 14.3399 12.1042 13.6746 11.8288Z" fill="url(#paint1_linear_451_2025)"/>
<path d="M12.6337 15.8379C12.3533 15.5574 11.9729 15.3999 11.5763 15.3999C11.1797 15.3999 10.7994 15.5574 10.519 15.8379C10.2386 16.1183 10.0811 16.4986 10.0811 16.8952C10.0811 17.2918 10.2386 17.6721 10.519 17.9526C10.7994 18.233 11.1797 18.3905 11.5763 18.3905C11.9729 18.3905 12.3533 18.233 12.6337 17.9526C12.9141 17.6721 13.0716 17.2918 13.0716 16.8952C13.0716 16.4986 12.9141 16.1183 12.6337 15.8379Z" fill="url(#paint2_linear_451_2025)"/>
<defs>
<linearGradient id="paint0_linear_451_2025" x1="5.20644" y1="11.6846" x2="12.3053" y2="-1.52136" gradientUnits="userSpaceOnUse">
<stop stop-color="#FE0844"/>
<stop offset="1" stop-color="#FEB302"/>
</linearGradient>
<linearGradient id="paint1_linear_451_2025" x1="8.82633" y1="17.5669" x2="15.159" y2="10.7316" gradientUnits="userSpaceOnUse">
<stop stop-color="#FE0844"/>
<stop offset="1" stop-color="#FEB302"/>
</linearGradient>
<linearGradient id="paint2_linear_451_2025" x1="8.82637" y1="17.5667" x2="15.1591" y2="10.7314" gradientUnits="userSpaceOnUse">
<stop stop-color="#FE0844"/>
<stop offset="1" stop-color="#FEB302"/>
</linearGradient>
</defs>
</svg>
