<svg width="23" height="22" viewBox="0 0 23 22" fill="none" xmlns="http://www.w3.org/2000/svg">
<g clip-path="url(#clip0_451_2038)">
<path d="M2.39198 4.80555C1.25293 5.94363 1.25293 7.77662 1.25293 11.4416C1.25293 15.1066 1.25293 16.9396 2.39198 18.0777C3.53006 19.2167 5.36304 19.2167 9.02803 19.2167H10.4859C14.1509 19.2167 15.9839 19.2167 17.1219 18.0777C18.2609 16.9396 18.2609 15.1066 18.2609 11.4416C18.2609 7.77662 18.2609 5.94363 17.1219 4.80555C15.9839 3.6665 14.1509 3.6665 10.4859 3.6665H9.02803C5.36304 3.6665 3.53006 3.6665 2.39198 4.80555Z" stroke="url(#paint0_linear_451_2038)" stroke-width="2"/>
<path d="M20.6291 13.7921C20.6291 14.0185 20.7189 14.2355 20.8791 14.3956C21.039 14.5556 21.2562 14.6456 21.4824 14.6456C21.7088 14.6456 21.9259 14.5556 22.086 14.3956C22.2461 14.2355 22.3359 14.0185 22.3359 13.7921V9.24035C22.3359 9.01399 22.2461 8.7969 22.086 8.63685C21.9259 8.47679 21.7088 8.38687 21.4824 8.38687C21.2562 8.38687 21.039 8.47679 20.8791 8.63685C20.7189 8.7969 20.6291 9.01399 20.6291 9.24035V13.7921ZM10.1895 8.6486C10.3279 8.47406 10.3927 8.25229 10.3699 8.03065C10.3469 7.80903 10.2383 7.60511 10.0673 7.46247C9.89613 7.31983 9.67595 7.24979 9.45378 7.26729C9.23171 7.2848 9.02521 7.38848 8.87849 7.55617L6.03363 10.97C5.92983 11.0946 5.86369 11.2462 5.84295 11.407C5.82221 11.5679 5.84771 11.7313 5.91649 11.8781C5.98526 12.025 6.09447 12.1492 6.23129 12.2364C6.36812 12.3234 6.52691 12.3697 6.68908 12.3697H8.85005L7.17159 14.3838C7.0331 14.5584 6.96835 14.7801 6.99119 15.0018C7.01401 15.2234 7.12262 15.4274 7.29378 15.57C7.46495 15.7127 7.6851 15.7826 7.90722 15.7652C8.12933 15.7477 8.3358 15.644 8.48256 15.4763L11.3274 12.0625C11.4313 11.9378 11.4974 11.7862 11.5181 11.6254C11.5388 11.4645 11.5133 11.3011 11.4446 11.1543C11.3757 11.0074 11.2665 10.8831 11.1298 10.7961C10.9929 10.709 10.8342 10.6628 10.672 10.6628H8.51099L10.1895 8.6486Z" fill="url(#paint1_linear_451_2038)"/>
</g>
<defs>
<linearGradient id="paint0_linear_451_2038" x1="17.6864" y1="4.11098" x2="12.0135" y2="19.6908" gradientUnits="userSpaceOnUse">
<stop stop-color="#FE0F7C"/>
<stop offset="1" stop-color="#DF0066"/>
</linearGradient>
<linearGradient id="paint1_linear_451_2038" x1="21.7785" y1="7.50769" x2="19.8783" y2="16.7665" gradientUnits="userSpaceOnUse">
<stop stop-color="#FE0F7C"/>
<stop offset="1" stop-color="#DF0066"/>
</linearGradient>
<clipPath id="clip0_451_2038">
<rect width="22" height="22" fill="white" transform="translate(0.335938)"/>
</clipPath>
</defs>
</svg>
