<svg width="23" height="22" viewBox="0 0 23 22" fill="none" xmlns="http://www.w3.org/2000/svg">
<g clip-path="url(#clip0_451_2041)">
<path d="M2.58534 4.80555C1.44629 5.94363 1.44629 7.77662 1.44629 11.4416C1.44629 15.1066 1.44629 16.9396 2.58534 18.0777C3.72342 19.2167 5.5564 19.2167 9.22139 19.2167H10.6792C14.3442 19.2167 16.1772 19.2167 17.3153 18.0777C18.4543 16.9396 18.4543 15.1066 18.4543 11.4416C18.4543 7.77662 18.4543 5.94363 17.3153 4.80555C16.1772 3.6665 14.3442 3.6665 10.6792 3.6665H9.22139C5.5564 3.6665 3.72342 3.6665 2.58534 4.80555Z" stroke="url(#paint0_linear_451_2041)" stroke-width="2"/>
<path d="M20.8225 13.7921C20.8225 14.0185 20.9123 14.2355 21.0724 14.3956C21.2324 14.5556 21.4496 14.6456 21.6758 14.6456C21.9022 14.6456 22.1193 14.5556 22.2793 14.3956C22.4395 14.2355 22.5293 14.0185 22.5293 13.7921V9.24035C22.5293 9.01399 22.4395 8.7969 22.2793 8.63685C22.1193 8.47679 21.9022 8.38687 21.6758 8.38687C21.4496 8.38687 21.2324 8.47679 21.0724 8.63685C20.9123 8.7969 20.8225 9.01399 20.8225 9.24035V13.7921ZM10.3828 8.6486C10.5212 8.47406 10.586 8.25229 10.5632 8.03065C10.5403 7.80903 10.4317 7.60511 10.2606 7.46247C10.0895 7.31983 9.86931 7.24979 9.64714 7.26729C9.42507 7.2848 9.21857 7.38848 9.07185 7.55617L6.22699 10.97C6.12319 11.0946 6.05705 11.2462 6.03631 11.407C6.01557 11.5679 6.04107 11.7313 6.10984 11.8781C6.17862 12.025 6.28782 12.1492 6.42465 12.2364C6.56148 12.3234 6.72027 12.3697 6.88244 12.3697H9.04341L7.36494 14.3838C7.22645 14.5584 7.16171 14.7801 7.18454 15.0018C7.20737 15.2234 7.31598 15.4274 7.48714 15.57C7.65831 15.7127 7.87846 15.7826 8.10058 15.7652C8.32269 15.7477 8.52916 15.644 8.67592 15.4763L11.5208 12.0625C11.6246 11.9378 11.6907 11.7862 11.7114 11.6254C11.7322 11.4645 11.7067 11.3011 11.6379 11.1543C11.5691 11.0074 11.4599 10.8831 11.3231 10.7961C11.1863 10.709 11.0275 10.6628 10.8654 10.6628H8.70435L10.3828 8.6486Z" fill="url(#paint1_linear_451_2041)"/>
</g>
<defs>
<linearGradient id="paint0_linear_451_2041" x1="9.9503" y1="19.2167" x2="9.9503" y2="3.66655" gradientUnits="userSpaceOnUse">
<stop stop-color="#FFA336"/>
<stop offset="1" stop-color="#FF4D1C"/>
</linearGradient>
<linearGradient id="paint1_linear_451_2041" x1="14.2793" y1="15.7678" x2="14.2793" y2="7.26467" gradientUnits="userSpaceOnUse">
<stop stop-color="#FFA336"/>
<stop offset="1" stop-color="#FF4D1C"/>
</linearGradient>
<clipPath id="clip0_451_2041">
<rect width="22" height="22" fill="white" transform="translate(0.529297)"/>
</clipPath>
</defs>
</svg>
