<svg width="23" height="22" viewBox="0 0 23 22" fill="none" xmlns="http://www.w3.org/2000/svg">
<g clip-path="url(#clip0_451_2035)">
<path d="M2.13389 4.74083C1.05957 5.81424 1.05957 7.54308 1.05957 10.9998C1.05957 14.4566 1.05957 16.1854 2.13389 17.2588C3.20731 18.3332 4.93614 18.3332 8.39289 18.3332H9.7679C13.2247 18.3332 14.9535 18.3332 16.0268 17.2588C17.1011 16.1854 17.1011 14.4566 17.1011 10.9998C17.1011 7.54308 17.1011 5.81424 16.0268 4.74083C14.9535 3.6665 13.2247 3.6665 9.7679 3.6665H8.39289C4.93614 3.6665 3.20731 3.6665 2.13389 4.74083Z" stroke="url(#paint0_linear_451_2035)" stroke-width="2"/>
<path fill-rule="evenodd" clip-rule="evenodd" d="M6.66976 8.07593C7.33727 7.53982 8.16787 7.24774 9.02406 7.24805H9.56108C9.70197 7.24791 9.84149 7.27553 9.97166 7.32934C10.1018 7.38316 10.2202 7.4621 10.3198 7.56166C10.4195 7.66123 10.4986 7.77945 10.5525 7.90958C10.6064 8.03971 10.6342 8.17921 10.6342 8.32008C10.6342 8.46808 10.7542 8.58808 10.9022 8.58808H12.7814C12.9946 8.58808 13.1991 8.67278 13.3499 8.82357C13.5008 8.9744 13.5854 9.17888 13.5854 9.39209C13.5854 9.6054 13.5008 9.80982 13.3499 9.96052C13.1991 10.1114 12.9946 10.1961 12.7814 10.1961H11.0511C10.8209 10.1961 10.6342 10.3827 10.6342 10.613V11.3873C10.6342 11.6175 10.8209 11.8042 11.0511 11.8042H12.7814C12.9946 11.8042 13.1991 11.8888 13.3499 12.0396C13.5008 12.1904 13.5854 12.3949 13.5854 12.6081C13.5854 12.8214 13.5008 13.0259 13.3499 13.1767C13.1991 13.3274 12.9946 13.4121 12.7814 13.4121H10.9012C10.7531 13.4121 10.633 13.5321 10.633 13.6803C10.633 13.8211 10.6053 13.9605 10.5514 14.0907C10.4975 14.2208 10.4183 14.339 10.3187 14.4385C10.2191 14.5382 10.1008 14.6171 9.97065 14.6709C9.84048 14.7247 9.70087 14.7524 9.55998 14.7521H9.0229C8.16679 14.7525 7.33621 14.4604 6.66869 13.9243C6.08854 13.4583 5.66181 12.8323 5.43898 12.1276C5.38 11.9411 5.21304 11.8042 5.01739 11.8042H3.13466C2.91642 11.8042 2.73422 11.6358 2.72582 11.4177C2.71509 11.1394 2.71509 10.8609 2.72582 10.5825C2.73422 10.3644 2.91642 10.1961 3.13466 10.1961H5.01846C5.2141 10.1961 5.38106 10.0592 5.44005 9.87261C5.66288 9.16797 6.08962 8.54189 6.66976 8.07593ZM19.6363 13.7082C19.4809 13.5528 19.3936 13.342 19.3936 13.1222V8.70219C19.3936 8.48238 19.4809 8.27154 19.6363 8.11612C19.7917 7.96069 20.0026 7.87337 20.2223 7.87337C20.4421 7.87337 20.6529 7.96069 20.8084 8.11612C20.9639 8.27154 21.0511 8.48238 21.0511 8.70219V13.1222C21.0511 13.342 20.9639 13.5528 20.8084 13.7082C20.6529 13.8637 20.4421 13.951 20.2223 13.951C20.0026 13.951 19.7917 13.8637 19.6363 13.7082Z" fill="url(#paint1_linear_451_2035)"/>
</g>
<defs>
<linearGradient id="paint0_linear_451_2035" x1="16.5592" y1="4.08572" x2="11.2086" y2="18.7802" gradientUnits="userSpaceOnUse">
<stop stop-color="#FE0F7C"/>
<stop offset="1" stop-color="#DF0066"/>
</linearGradient>
<linearGradient id="paint1_linear_451_2035" x1="20.4317" y1="7.46254" x2="19.0796" y2="15.7573" gradientUnits="userSpaceOnUse">
<stop stop-color="#FE0F7C"/>
<stop offset="1" stop-color="#DF0066"/>
</linearGradient>
<clipPath id="clip0_451_2035">
<rect width="22" height="22" fill="white" transform="translate(0.142578)"/>
</clipPath>
</defs>
</svg>
