<svg width="23" height="22" viewBox="0 0 23 22" fill="none" xmlns="http://www.w3.org/2000/svg">
<path d="M16.5499 4.53588H14.7976V1.61536C14.7976 1.29277 14.5361 1.03125 14.2135 1.03125C13.8909 1.03125 13.6294 1.29277 13.6294 1.61536V4.53588H10.1248V1.61536C10.1248 1.29277 9.86323 1.03125 9.54065 1.03125C9.21806 1.03125 8.95655 1.29277 8.95655 1.61536V4.53588H7.20422C6.88164 4.53588 6.62012 4.79741 6.62012 5.12V9.09102C6.62012 10.4579 7.23227 11.7315 8.29958 12.5854C9.08831 13.2164 9.54065 14.1575 9.54065 15.1675V15.6339C9.54065 15.9565 9.80218 16.218 10.1248 16.218H11.293V20.3847C11.293 20.7072 11.5545 20.9688 11.8771 20.9688C12.1997 20.9688 12.4612 20.7072 12.4612 20.3847V16.218H13.6294C13.952 16.218 14.2135 15.9565 14.2135 15.6339V15.1675C14.2135 14.1575 14.6658 13.2163 15.4545 12.5853C16.5219 11.7315 17.134 10.4578 17.134 9.09098V5.12C17.134 4.79741 16.8725 4.53588 16.5499 4.53588ZM15.9658 9.09102C15.9658 10.1011 15.5135 11.0422 14.7248 11.6732C13.6881 12.5025 13.0808 13.7277 13.0468 15.0498H10.7073C10.6733 13.7277 10.066 12.5025 9.02939 11.6732C8.24066 11.0422 7.78833 10.101 7.78833 9.09102V5.7041H15.9658V9.09102ZM10.7089 9.79285H11.9539L11.3911 10.6371C11.2121 10.9055 11.2847 11.2681 11.5531 11.4471C11.8203 11.6252 12.1833 11.5546 12.3631 11.285L13.5313 9.53272C13.6508 9.35349 13.6619 9.12304 13.5603 8.93312C13.4586 8.74321 13.2607 8.62464 13.0453 8.62464H11.8003L12.3631 7.7804C12.542 7.51199 12.4695 7.14933 12.2011 6.97041C11.9327 6.79152 11.57 6.86402 11.3911 7.13243L10.2228 8.88475C10.1034 9.064 10.0922 9.29445 10.1939 9.48435C10.2955 9.67428 10.4934 9.79285 10.7089 9.79285Z" fill="url(#paint0_linear_451_2033)" stroke="url(#paint1_linear_451_2033)" stroke-width="0.6"/>
<defs>
<linearGradient id="paint0_linear_451_2033" x1="11.8771" y1="20.9688" x2="11.8771" y2="1.03125" gradientUnits="userSpaceOnUse">
<stop stop-color="#5558FF"/>
<stop offset="1" stop-color="#00C0FF"/>
</linearGradient>
<linearGradient id="paint1_linear_451_2033" x1="11.8771" y1="20.9688" x2="11.8771" y2="1.03125" gradientUnits="userSpaceOnUse">
<stop stop-color="#5558FF"/>
<stop offset="1" stop-color="#00C0FF"/>
</linearGradient>
</defs>
</svg>
