<svg width="23" height="22" viewBox="0 0 23 22" fill="none" xmlns="http://www.w3.org/2000/svg">
<g clip-path="url(#clip0_451_2044)">
<path d="M2.71397 4.74083C1.63965 5.81424 1.63965 7.54308 1.63965 10.9998C1.63965 14.4566 1.63965 16.1854 2.71397 17.2588C3.78739 18.3332 5.51622 18.3332 8.97296 18.3332H10.348C13.8047 18.3332 15.5336 18.3332 16.6069 17.2588C17.6812 16.1854 17.6812 14.4566 17.6812 10.9998C17.6812 7.54308 17.6812 5.81424 16.6069 4.74083C15.5336 3.6665 13.8047 3.6665 10.348 3.6665H8.97296C5.51622 3.6665 3.78739 3.6665 2.71397 4.74083Z" stroke="url(#paint0_linear_451_2044)" stroke-width="2"/>
<path d="M2.71397 4.74083C1.63965 5.81424 1.63965 7.54308 1.63965 10.9998C1.63965 14.4566 1.63965 16.1854 2.71397 17.2588C3.78739 18.3332 5.51622 18.3332 8.97296 18.3332H10.348C13.8047 18.3332 15.5336 18.3332 16.6069 17.2588C17.6812 16.1854 17.6812 14.4566 17.6812 10.9998C17.6812 7.54308 17.6812 5.81424 16.6069 4.74083C15.5336 3.6665 13.8047 3.6665 10.348 3.6665H8.97296C5.51622 3.6665 3.78739 3.6665 2.71397 4.74083Z" stroke="url(#paint1_linear_451_2044)" stroke-width="2"/>
<path fill-rule="evenodd" clip-rule="evenodd" d="M7.24984 8.07593C7.91735 7.53982 8.74794 7.24774 9.60414 7.24805H10.1412C10.282 7.24791 10.4216 7.27553 10.5517 7.32934C10.6819 7.38316 10.8002 7.4621 10.8999 7.56166C10.9996 7.66123 11.0786 7.77945 11.1326 7.90958C11.1864 8.03971 11.2143 8.17921 11.2143 8.32008C11.2143 8.46808 11.3343 8.58808 11.4822 8.58808H13.3615C13.5747 8.58808 13.7792 8.67278 13.93 8.82357C14.0809 8.9744 14.1655 9.17888 14.1655 9.39209C14.1655 9.6054 14.0809 9.80982 13.93 9.96052C13.7792 10.1114 13.5747 10.1961 13.3615 10.1961H11.6312C11.4009 10.1961 11.2143 10.3827 11.2143 10.613V11.3873C11.2143 11.6175 11.4009 11.8042 11.6312 11.8042H13.3615C13.5747 11.8042 13.7792 11.8888 13.93 12.0396C14.0809 12.1904 14.1655 12.3949 14.1655 12.6081C14.1655 12.8214 14.0809 13.0259 13.93 13.1767C13.7792 13.3274 13.5747 13.4121 13.3615 13.4121H11.4812C11.3332 13.4121 11.2131 13.5321 11.2131 13.6803C11.2131 13.8211 11.1854 13.9605 11.1315 14.0907C11.0775 14.2208 10.9984 14.339 10.8988 14.4385C10.7991 14.5382 10.6809 14.6171 10.5507 14.6709C10.4206 14.7247 10.2809 14.7524 10.1401 14.7521H9.60298C8.74687 14.7525 7.91629 14.4604 7.24877 13.9243C6.66862 13.4583 6.24189 12.8323 6.01905 12.1276C5.96008 11.9411 5.79311 11.8042 5.59747 11.8042H3.71474C3.4965 11.8042 3.3143 11.6358 3.3059 11.4177C3.29517 11.1394 3.29517 10.8609 3.3059 10.5825C3.3143 10.3644 3.4965 10.1961 3.71474 10.1961H5.59854C5.79418 10.1961 5.96114 10.0592 6.02013 9.87261C6.24296 9.16797 6.6697 8.54189 7.24984 8.07593ZM20.2164 13.7082C20.061 13.5528 19.9737 13.342 19.9737 13.1222V8.70219C19.9737 8.48238 20.061 8.27154 20.2164 8.11612C20.3718 7.96069 20.5827 7.87337 20.8024 7.87337C21.0222 7.87337 21.233 7.96069 21.3885 8.11612C21.5439 8.27154 21.6312 8.48238 21.6312 8.70219V13.1222C21.6312 13.342 21.5439 13.5528 21.3885 13.7082C21.233 13.8637 21.0222 13.951 20.8024 13.951C20.5827 13.951 20.3718 13.8637 20.2164 13.7082Z" fill="url(#paint2_linear_451_2044)"/>
</g>
<defs>
<linearGradient id="paint0_linear_451_2044" x1="9.66045" y1="18.3332" x2="9.66045" y2="3.6665" gradientUnits="userSpaceOnUse">
<stop stop-color="#5570FF"/>
<stop offset="1" stop-color="#4DD3FF"/>
</linearGradient>
<linearGradient id="paint1_linear_451_2044" x1="7.87009" y1="11.5236" x2="12.5915" y2="7.37789" gradientUnits="userSpaceOnUse">
<stop stop-color="#0072FF"/>
<stop offset="1" stop-color="#00E5A1"/>
</linearGradient>
<linearGradient id="paint2_linear_451_2044" x1="10.4184" y1="11.2681" x2="12.39" y2="7.40104" gradientUnits="userSpaceOnUse">
<stop stop-color="#0072FF"/>
<stop offset="1" stop-color="#00E5A1"/>
</linearGradient>
<clipPath id="clip0_451_2044">
<rect width="22" height="22" fill="white" transform="translate(0.722656)"/>
</clipPath>
</defs>
</svg>
