<svg width="23" height="22" viewBox="0 0 23 22" fill="none" xmlns="http://www.w3.org/2000/svg">
<g clip-path="url(#clip0_451_2048)">
<path d="M2.90733 4.74083C1.83301 5.81424 1.83301 7.54308 1.83301 10.9998C1.83301 14.4566 1.83301 16.1854 2.90733 17.2588C3.98075 18.3332 5.70958 18.3332 9.16632 18.3332H10.5413C13.9981 18.3332 15.7269 18.3332 16.8002 17.2588C17.8746 16.1854 17.8746 14.4566 17.8746 10.9998C17.8746 7.54308 17.8746 5.81424 16.8002 4.74083C15.7269 3.6665 13.9981 3.6665 10.5413 3.6665H9.16632C5.70958 3.6665 3.98075 3.6665 2.90733 4.74083Z" stroke="url(#paint0_linear_451_2048)" stroke-width="2"/>
<path d="M2.90733 4.74083C1.83301 5.81424 1.83301 7.54308 1.83301 10.9998C1.83301 14.4566 1.83301 16.1854 2.90733 17.2588C3.98075 18.3332 5.70958 18.3332 9.16632 18.3332H10.5413C13.9981 18.3332 15.7269 18.3332 16.8002 17.2588C17.8746 16.1854 17.8746 14.4566 17.8746 10.9998C17.8746 7.54308 17.8746 5.81424 16.8002 4.74083C15.7269 3.6665 13.9981 3.6665 10.5413 3.6665H9.16632C5.70958 3.6665 3.98075 3.6665 2.90733 4.74083Z" stroke="url(#paint1_linear_451_2048)" stroke-width="2"/>
<path fill-rule="evenodd" clip-rule="evenodd" d="M7.44319 8.07593C8.11071 7.53982 8.9413 7.24774 9.7975 7.24805H10.3345C10.4754 7.24791 10.6149 7.27553 10.7451 7.32934C10.8753 7.38316 10.9936 7.4621 11.0932 7.56166C11.193 7.66123 11.272 7.77945 11.326 7.90958C11.3798 8.03971 11.4077 8.17921 11.4077 8.32008C11.4077 8.46808 11.5277 8.58808 11.6756 8.58808H13.5549C13.7681 8.58808 13.9726 8.67278 14.1234 8.82357C14.2743 8.9744 14.3589 9.17888 14.3589 9.39209C14.3589 9.6054 14.2743 9.80982 14.1234 9.96052C13.9726 10.1114 13.7681 10.1961 13.5549 10.1961H11.8246C11.5943 10.1961 11.4077 10.3827 11.4077 10.613V11.3873C11.4077 11.6175 11.5943 11.8042 11.8246 11.8042H13.5549C13.7681 11.8042 13.9726 11.8888 14.1234 12.0396C14.2743 12.1904 14.3589 12.3949 14.3589 12.6081C14.3589 12.8214 14.2743 13.0259 14.1234 13.1767C13.9726 13.3274 13.7681 13.4121 13.5549 13.4121H11.6746C11.5266 13.4121 11.4065 13.5321 11.4065 13.6803C11.4065 13.8211 11.3788 13.9605 11.3249 14.0907C11.2709 14.2208 11.1918 14.339 11.0921 14.4385C10.9925 14.5382 10.8743 14.6171 10.7441 14.6709C10.6139 14.7247 10.4743 14.7524 10.3334 14.7521H9.79634C8.94023 14.7525 8.10965 14.4604 7.44213 13.9243C6.86198 13.4583 6.43525 12.8323 6.21241 12.1276C6.15344 11.9411 5.98647 11.8042 5.79083 11.8042H3.9081C3.68986 11.8042 3.50766 11.6358 3.49925 11.4177C3.48853 11.1394 3.48853 10.8609 3.49925 10.5825C3.50766 10.3644 3.68986 10.1961 3.9081 10.1961H5.7919C5.98754 10.1961 6.1545 10.0592 6.21349 9.87261C6.43632 9.16797 6.86305 8.54189 7.44319 8.07593ZM20.4098 13.7082C20.2543 13.5528 20.1671 13.342 20.1671 13.1222V8.70219C20.1671 8.48238 20.2543 8.27154 20.4098 8.11612C20.5652 7.96069 20.7761 7.87337 20.9957 7.87337C21.2155 7.87337 21.4264 7.96069 21.5818 8.11612C21.7373 8.27154 21.8246 8.48238 21.8246 8.70219V13.1222C21.8246 13.342 21.7373 13.5528 21.5818 13.7082C21.4264 13.8637 21.2155 13.951 20.9957 13.951C20.7761 13.951 20.5652 13.8637 20.4098 13.7082Z" fill="url(#paint2_linear_451_2048)"/>
</g>
<defs>
<linearGradient id="paint0_linear_451_2048" x1="9.85381" y1="18.3332" x2="9.85381" y2="3.6665" gradientUnits="userSpaceOnUse">
<stop stop-color="#5570FF"/>
<stop offset="1" stop-color="#4DD3FF"/>
</linearGradient>
<linearGradient id="paint1_linear_451_2048" x1="8.06345" y1="11.5236" x2="12.7849" y2="7.37789" gradientUnits="userSpaceOnUse">
<stop stop-color="#0072FF"/>
<stop offset="1" stop-color="#00E5A1"/>
</linearGradient>
<linearGradient id="paint2_linear_451_2048" x1="10.6117" y1="11.2681" x2="12.5834" y2="7.40104" gradientUnits="userSpaceOnUse">
<stop stop-color="#0072FF"/>
<stop offset="1" stop-color="#00E5A1"/>
</linearGradient>
<clipPath id="clip0_451_2048">
<rect width="22" height="22" fill="white" transform="translate(0.916016)"/>
</clipPath>
</defs>
</svg>
