<svg width="23" height="22" viewBox="0 0 23 22" fill="none" xmlns="http://www.w3.org/2000/svg">
<path d="M16.6665 20.625C17.5995 20.625 18.3583 19.8658 18.3583 18.9332V3.10449C18.3583 2.1697 17.6029 1.375 16.6665 1.375H5.3872C4.93266 1.375 4.50469 1.56093 4.18203 1.89843C3.86817 2.22667 3.69531 2.65509 3.69531 3.10449V18.9332C3.69531 19.8658 4.45433 20.625 5.3872 20.625H16.6665ZM6.59077 16.395C6.65555 16.2826 6.59357 16.38 8.48858 14.4224C7.56259 16.9929 7.61267 16.8809 7.56743 16.9591C7.41159 17.2291 7.06705 17.3214 6.79712 17.1654C6.52792 17.0101 6.43524 16.6643 6.59077 16.395ZM10.1978 11.6873C9.97265 11.5466 9.67993 11.582 9.49491 11.7721L9.06885 12.2097C7.84883 11.5095 7.0791 10.1887 7.0791 8.74414C7.0791 6.56729 8.85002 4.79638 11.0269 4.79638C13.2037 4.79638 14.9746 6.56729 14.9746 8.74414C14.9746 10.9417 13.2037 12.7295 11.0269 12.7295C10.7878 12.7295 10.551 12.7075 10.3185 12.6655L10.4297 12.3563C10.5194 12.1065 10.4229 11.8279 10.1978 11.6873ZM5.3872 2.50293H16.6665C16.9668 2.50293 17.2305 2.78403 17.2305 3.10449V18.9332C17.2305 19.244 16.9774 19.497 16.6665 19.497H9.30353C9.22261 18.7608 8.98322 18.057 8.59681 17.4238C8.67084 17.2736 8.56596 17.5337 9.933 13.7382C10.2906 13.8169 10.6566 13.8574 11.0269 13.8574C13.8255 13.8574 16.1025 11.5635 16.1025 8.74414C16.1025 5.94531 13.8255 3.66845 11.0269 3.66845C8.22817 3.66845 5.95117 5.94531 5.95117 8.74414C5.95117 10.4964 6.83781 12.1076 8.26241 13.0378L6.04986 15.3102C5.65422 15.1606 5.24416 15.0621 4.82324 15.0159V3.10449C4.82324 2.78403 5.08686 2.50293 5.3872 2.50293ZM4.82324 18.9332V16.1531C5.03018 16.1825 5.2333 16.2281 5.43213 16.29C5.26634 16.9974 5.57226 17.7607 6.23315 18.1421C6.71899 18.4229 7.27989 18.4346 7.75615 18.228C7.965 18.6247 8.1032 19.0523 8.16664 19.497H5.3872C5.07628 19.497 4.82324 19.244 4.82324 18.9332Z" fill="url(#paint0_linear_451_2052)" stroke="url(#paint1_linear_451_2052)" stroke-width="0.6"/>
<path d="M12.7188 8.74415C12.7188 7.81126 11.9597 7.05225 11.0268 7.05225C10.094 7.05225 9.33496 7.81126 9.33496 8.74415C9.33496 9.67705 10.094 10.4361 11.0268 10.4361C11.9597 10.4361 12.7188 9.67705 12.7188 8.74415ZM10.4629 8.74415C10.4629 8.43324 10.7159 8.18019 11.0268 8.18019C11.3378 8.18019 11.5908 8.43324 11.5908 8.74415C11.5908 9.05507 11.3378 9.30812 11.0268 9.30812C10.7159 9.30812 10.4629 9.05507 10.4629 8.74415Z" fill="url(#paint2_linear_451_2052)" stroke="url(#paint3_linear_451_2052)" stroke-width="0.6"/>
<path d="M15.5386 14.9854H13.2827C12.9712 14.9854 12.7188 15.2378 12.7188 15.5493C12.7188 15.8608 12.9712 16.1133 13.2827 16.1133H15.5386C15.8501 16.1133 16.1025 15.8608 16.1025 15.5493C16.1025 15.2378 15.8501 14.9854 15.5386 14.9854Z" fill="url(#paint4_linear_451_2052)" stroke="url(#paint5_linear_451_2052)" stroke-width="0.6"/>
<path d="M15.5386 17.2412H13.2827C12.9712 17.2412 12.7188 17.4939 12.7188 17.8053C12.7188 18.1167 12.9712 18.3692 13.2827 18.3692H15.5386C15.8501 18.3692 16.1025 18.1167 16.1025 17.8053C16.1025 17.4939 15.8501 17.2412 15.5386 17.2412Z" fill="url(#paint6_linear_451_2052)" stroke="url(#paint7_linear_451_2052)" stroke-width="0.6"/>
<defs>
<linearGradient id="paint0_linear_451_2052" x1="11.0268" y1="20.625" x2="11.0268" y2="1.375" gradientUnits="userSpaceOnUse">
<stop stop-color="#02AA93"/>
<stop offset="1" stop-color="#67FF80"/>
</linearGradient>
<linearGradient id="paint1_linear_451_2052" x1="11.0268" y1="20.625" x2="11.0268" y2="1.375" gradientUnits="userSpaceOnUse">
<stop stop-color="#02AA93"/>
<stop offset="1" stop-color="#67FF80"/>
</linearGradient>
<linearGradient id="paint2_linear_451_2052" x1="9.94828" y1="10.0366" x2="12.9996" y2="7.3742" gradientUnits="userSpaceOnUse">
<stop stop-color="#FE0844"/>
<stop offset="1" stop-color="#FEB302"/>
</linearGradient>
<linearGradient id="paint3_linear_451_2052" x1="9.9483" y1="10.0366" x2="12.9997" y2="7.37425" gradientUnits="userSpaceOnUse">
<stop stop-color="#FE0844"/>
<stop offset="1" stop-color="#FEB302"/>
</linearGradient>
<linearGradient id="paint4_linear_451_2052" x1="13.3321" y1="15.9801" x2="14.0165" y2="14.1884" gradientUnits="userSpaceOnUse">
<stop stop-color="#FE0844"/>
<stop offset="1" stop-color="#FEB302"/>
</linearGradient>
<linearGradient id="paint5_linear_451_2052" x1="13.3321" y1="15.9801" x2="14.0166" y2="14.1884" gradientUnits="userSpaceOnUse">
<stop stop-color="#FE0844"/>
<stop offset="1" stop-color="#FEB302"/>
</linearGradient>
<linearGradient id="paint6_linear_451_2052" x1="13.3321" y1="18.236" x2="14.0165" y2="16.4444" gradientUnits="userSpaceOnUse">
<stop stop-color="#FE0844"/>
<stop offset="1" stop-color="#FEB302"/>
</linearGradient>
<linearGradient id="paint7_linear_451_2052" x1="13.3321" y1="18.236" x2="14.0167" y2="16.4443" gradientUnits="userSpaceOnUse">
<stop stop-color="#FE0844"/>
<stop offset="1" stop-color="#FEB302"/>
</linearGradient>
</defs>
</svg>
