<svg width="23" height="22" viewBox="0 0 23 22" fill="none" xmlns="http://www.w3.org/2000/svg">
<path d="M17.4116 20.625C18.3446 20.625 19.1034 19.8658 19.1034 18.9332V3.10449C19.1034 2.1697 18.348 1.375 17.4116 1.375H6.13232C5.67778 1.375 5.24981 1.56093 4.92715 1.89843C4.61328 2.22667 4.44043 2.65509 4.44043 3.10449V18.9332C4.44043 19.8658 5.19945 20.625 6.13232 20.625H17.4116ZM7.33589 16.395C7.40067 16.2826 7.33869 16.38 9.2337 14.4224C8.3077 16.9929 8.35779 16.8809 8.31255 16.9591C8.15671 17.2291 7.81217 17.3214 7.54224 17.1654C7.27303 17.0101 7.18036 16.6643 7.33589 16.395ZM10.9429 11.6873C10.7178 11.5466 10.425 11.582 10.24 11.7721L9.81396 12.2097C8.59394 11.5095 7.82422 10.1887 7.82422 8.74414C7.82422 6.56729 9.59513 4.79638 11.772 4.79638C13.9488 4.79638 15.7197 6.56729 15.7197 8.74414C15.7197 10.9417 13.9488 12.7295 11.772 12.7295C11.5329 12.7295 11.2961 12.7075 11.0636 12.6655L11.1748 12.3563C11.2646 12.1065 11.1681 11.8279 10.9429 11.6873ZM6.13232 2.50293H17.4116C17.7119 2.50293 17.9756 2.78403 17.9756 3.10449V18.9332C17.9756 19.244 17.7225 19.497 17.4116 19.497H10.0486C9.96772 18.7608 9.72834 18.057 9.34193 17.4238C9.41595 17.2736 9.31107 17.5337 10.6781 13.7382C11.0357 13.8169 11.4017 13.8574 11.772 13.8574C14.5707 13.8574 16.8477 11.5635 16.8477 8.74414C16.8477 5.94531 14.5707 3.66845 11.772 3.66845C8.97329 3.66845 6.69629 5.94531 6.69629 8.74414C6.69629 10.4964 7.58292 12.1076 9.00753 13.0378L6.79498 15.3102C6.39934 15.1606 5.98928 15.0621 5.56836 15.0159V3.10449C5.56836 2.78403 5.83198 2.50293 6.13232 2.50293ZM5.56836 18.9332V16.1531C5.7753 16.1825 5.97842 16.2281 6.17724 16.29C6.01145 16.9974 6.31737 17.7607 6.97827 18.1421C7.46411 18.4229 8.025 18.4346 8.50127 18.228C8.71011 18.6247 8.84832 19.0523 8.91176 19.497H6.13232C5.82139 19.497 5.56836 19.244 5.56836 18.9332Z" fill="url(#paint0_linear_451_2059)" stroke="url(#paint1_linear_451_2059)" stroke-width="0.6"/>
<path d="M13.4639 8.74415C13.4639 7.81126 12.7048 7.05225 11.772 7.05225C10.8391 7.05225 10.0801 7.81126 10.0801 8.74415C10.0801 9.67705 10.8391 10.4361 11.772 10.4361C12.7048 10.4361 13.4639 9.67705 13.4639 8.74415ZM11.208 8.74415C11.208 8.43324 11.461 8.18019 11.772 8.18019C12.0829 8.18019 12.3359 8.43324 12.3359 8.74415C12.3359 9.05507 12.0829 9.30812 11.772 9.30812C11.461 9.30812 11.208 9.05507 11.208 8.74415Z" fill="url(#paint2_linear_451_2059)" stroke="url(#paint3_linear_451_2059)" stroke-width="0.6"/>
<path d="M16.2837 14.9854H14.0278C13.7163 14.9854 13.4639 15.2378 13.4639 15.5493C13.4639 15.8608 13.7163 16.1133 14.0278 16.1133H16.2837C16.5952 16.1133 16.8477 15.8608 16.8477 15.5493C16.8477 15.2378 16.5952 14.9854 16.2837 14.9854Z" fill="url(#paint4_linear_451_2059)" stroke="url(#paint5_linear_451_2059)" stroke-width="0.6"/>
<path d="M16.2837 17.2412H14.0278C13.7163 17.2412 13.4639 17.4939 13.4639 17.8053C13.4639 18.1167 13.7163 18.3692 14.0278 18.3692H16.2837C16.5952 18.3692 16.8477 18.1167 16.8477 17.8053C16.8477 17.4939 16.5952 17.2412 16.2837 17.2412Z" fill="url(#paint6_linear_451_2059)" stroke="url(#paint7_linear_451_2059)" stroke-width="0.6"/>
<defs>
<linearGradient id="paint0_linear_451_2059" x1="11.7719" y1="20.625" x2="11.7719" y2="1.375" gradientUnits="userSpaceOnUse">
<stop stop-color="#02AA93"/>
<stop offset="1" stop-color="#67FF80"/>
</linearGradient>
<linearGradient id="paint1_linear_451_2059" x1="11.7719" y1="20.625" x2="11.7719" y2="1.375" gradientUnits="userSpaceOnUse">
<stop stop-color="#02AA93"/>
<stop offset="1" stop-color="#67FF80"/>
</linearGradient>
<linearGradient id="paint2_linear_451_2059" x1="10.6934" y1="10.0366" x2="13.7448" y2="7.3742" gradientUnits="userSpaceOnUse">
<stop stop-color="#FE0844"/>
<stop offset="1" stop-color="#FEB302"/>
</linearGradient>
<linearGradient id="paint3_linear_451_2059" x1="10.6934" y1="10.0366" x2="13.7448" y2="7.37425" gradientUnits="userSpaceOnUse">
<stop stop-color="#FE0844"/>
<stop offset="1" stop-color="#FEB302"/>
</linearGradient>
<linearGradient id="paint4_linear_451_2059" x1="14.0772" y1="15.9801" x2="14.7617" y2="14.1884" gradientUnits="userSpaceOnUse">
<stop stop-color="#FE0844"/>
<stop offset="1" stop-color="#FEB302"/>
</linearGradient>
<linearGradient id="paint5_linear_451_2059" x1="14.0772" y1="15.9801" x2="14.7617" y2="14.1884" gradientUnits="userSpaceOnUse">
<stop stop-color="#FE0844"/>
<stop offset="1" stop-color="#FEB302"/>
</linearGradient>
<linearGradient id="paint6_linear_451_2059" x1="14.0772" y1="18.236" x2="14.7617" y2="16.4444" gradientUnits="userSpaceOnUse">
<stop stop-color="#FE0844"/>
<stop offset="1" stop-color="#FEB302"/>
</linearGradient>
<linearGradient id="paint7_linear_451_2059" x1="14.0772" y1="18.236" x2="14.7618" y2="16.4443" gradientUnits="userSpaceOnUse">
<stop stop-color="#FE0844"/>
<stop offset="1" stop-color="#FEB302"/>
</linearGradient>
</defs>
</svg>
