<svg width="48" height="48" viewBox="0 0 48 48" fill="none" xmlns="http://www.w3.org/2000/svg">
<path d="M3 12C2.44772 12 2 12.4477 2 13V16.2774C2 16.8297 2.44772 17.2774 3 17.2774H6.27742C6.82971 17.2774 7.27742 17.7251 7.27742 18.2774V34.7484C7.27742 35.3007 7.72514 35.7484 8.27742 35.7484H11.5548C12.1071 35.7484 12.5548 35.3007 12.5548 34.7484V13C12.5548 12.4477 12.1071 12 11.5548 12H3ZM28.3871 12C21.8291 12 16.5129 17.3162 16.5129 23.8742C16.5129 30.3864 21.757 35.6673 28.2518 35.7406C28.254 35.7406 28.2557 35.7424 28.2557 35.7445V35.7445C28.2557 35.7467 28.2575 35.7484 28.2596 35.7484H43.4149C43.7928 35.7484 44.1399 35.5361 44.3015 35.1945C44.8312 34.0747 45.2816 32.9116 45.6509 31.711C45.8428 31.0869 45.3646 30.471 44.7117 30.471H28.3879C24.7446 30.471 21.7911 27.5175 21.7911 23.8742C21.7911 20.2309 24.7446 17.2774 28.3879 17.2774C30.788 17.2804 32.9781 18.5844 34.1344 20.6493C34.3287 20.9962 34.6826 21.2355 35.0802 21.2355H38.6993C39.3413 21.2355 39.8182 20.6371 39.6107 20.0295C37.9865 15.275 33.5025 12.0049 28.3871 12Z" fill="url(#paint0_linear_811_3)"/>
<defs>
<linearGradient id="paint0_linear_811_3" x1="24" y1="35.7484" x2="24" y2="12" gradientUnits="userSpaceOnUse">
<stop stop-color="#FDA700"/>
<stop offset="1" stop-color="#FFDE00"/>
</linearGradient>
</defs>
</svg>
