<svg width="192" height="192" viewBox="0 0 192 192" fill="none" xmlns="http://www.w3.org/2000/svg">
<path d="M7.57061 34.0498C7.42061 26.3298 14.2406 19.3198 21.9906 19.4098C29.8513 19.3852 37.7159 19.3908 45.5819 19.3965H45.6314C50.5374 19.4001 55.444 19.4036 60.3506 19.3998C57.9006 23.4798 55.3206 27.4598 52.6906 31.4098C43.4406 31.4298 34.1906 31.4098 24.9406 31.3898C24.5404 31.435 24.0992 31.4388 23.6476 31.4427C22.1019 31.4561 20.4333 31.4705 19.8606 33.1498C19.2226 34.134 19.3493 35.2748 19.4747 36.4034C19.534 36.9376 19.5931 37.469 19.5706 37.9798C19.6531 45.3291 19.6343 52.6727 19.6156 60.0192C19.6094 62.4689 19.6031 64.9192 19.6006 67.3698C16.7495 70.2969 14.3119 73.5612 11.8731 76.827C10.4627 78.7157 9.05191 80.605 7.5606 82.4298L7.5544 77.5898C7.5355 63.0748 7.51661 48.5664 7.57061 34.0498Z" fill="url(#paint0_linear_811_6)"/>
<path d="M60.3506 19.3998C64.2465 19.3998 68.1439 19.3988 72.0417 19.3977H72.078C79.8636 19.3955 87.6523 19.3933 95.4409 19.4C105.091 19.39 114.751 19.3901 124.401 19.4001C129.406 19.4081 134.412 19.4033 139.418 19.3985H139.427C146.94 19.3913 154.454 19.3841 161.971 19.4201C165.501 19.3601 168.691 21.0701 171.511 23.0401C173.931 25.87 176.101 29.1801 176.201 33.04C176.341 37.9481 176.312 42.8615 176.284 47.7764C176.274 49.5208 176.263 51.2654 176.261 53.01C176.481 56.09 174.111 59.21 170.971 59.46C167.751 59.95 164.361 57.36 164.301 54.04C164.111 47.61 164.191 41.18 164.321 34.75L164.341 33.71C163.591 31.9602 161.901 31.2201 160.071 31.4201C151.937 31.3976 143.8 31.4035 135.664 31.4095H135.662C129.334 31.4142 123.006 31.4188 116.681 31.4101C110.194 31.4167 103.707 31.4145 97.2207 31.4123L97.2041 31.4123C93.9663 31.4112 90.7285 31.4101 87.4907 31.4101C79.7574 31.4167 72.0242 31.4144 64.2909 31.4122L64.2711 31.4122C60.411 31.4111 56.5506 31.4098 52.6906 31.4098C55.3206 27.4598 57.9006 23.4798 60.3506 19.3998Z" fill="url(#paint1_linear_811_6)"/>
<path d="M43.7999 115.401C48.6328 115.366 53.4678 115.331 58.3006 115.4L58.2999 115.401C55.6903 119.31 53.0802 123.22 50.5606 127.18C47.151 127.187 43.7414 127.198 40.3323 127.209L40.3175 127.209H40.2868C33.4722 127.231 26.6592 127.253 19.8506 127.24C17.4807 126.87 15.3208 125.74 13.3308 124.45C12.5208 123.76 11.7408 123.05 10.9808 122.32C8.6708 119.44 7.44081 115.75 7.54081 112.06V112.045C7.54081 102.17 7.54061 92.2948 7.5606 82.4298C9.05191 80.605 10.4627 78.7157 11.8731 76.827C14.3119 73.5612 16.7495 70.2969 19.6006 67.3698C19.6352 77.2282 19.6269 87.0869 19.6184 96.9453C19.6146 101.327 19.6108 105.709 19.6108 110.09C19.5808 111.8 19.9308 113.47 20.3407 115.13C28.1487 115.513 35.9719 115.457 43.7987 115.401H43.7999Z" fill="url(#paint2_linear_811_6)"/>
<path d="M88.441 122.04C88.4411 122.04 88.441 122.04 88.441 122.04C88.2706 121.616 88.1085 121.188 87.9461 120.758C87.4417 119.423 86.9351 118.083 86.171 116.88C85.2027 115.432 83.4119 115.408 81.8055 115.387C81.5373 115.384 81.2742 115.38 81.021 115.37C74.7127 115.403 68.3974 115.402 62.0867 115.401C60.8246 115.4 59.5622 115.4 58.3006 115.4C55.6913 119.31 53.0805 123.22 50.5606 127.18C54.1002 127.264 57.6446 127.236 61.1891 127.207C66.8973 127.161 72.6068 127.114 78.301 127.54C79.184 128.228 79.7642 129.182 80.3355 130.122C80.437 130.289 80.5384 130.456 80.641 130.62C80.736 130.785 80.8785 131.038 81.021 131.29C81.1634 131.542 81.3058 131.795 81.4008 131.96C81.4009 131.96 81.4007 131.96 81.4008 131.96C81.898 133.072 82.5061 134.14 83.1143 135.207C84.1576 137.037 85.2005 138.867 85.6806 140.92C85.896 144.009 85.869 147.106 85.842 150.203C85.8252 152.139 85.8083 154.076 85.8506 156.01C85.8056 156.41 85.8125 156.844 85.8194 157.285C85.8387 158.509 85.8589 159.787 84.7706 160.53C81.4334 160.839 78.0782 160.786 74.722 160.733C71.4607 160.681 68.1983 160.629 64.9506 160.91C61.2206 161.31 59.2306 165.3 59.7506 168.74C61.2406 170.79 63.1606 173.05 65.9906 172.77C74.1245 172.836 82.261 172.825 90.3975 172.813H90.4023C98.2693 172.802 106.136 172.791 114.001 172.85C114.486 172.836 114.976 172.836 115.467 172.836C117.111 172.836 118.77 172.836 120.341 172.32C122.032 171.643 122.986 170.049 123.888 168.542C124.026 168.311 124.163 168.083 124.301 167.86C124.211 164.74 122.431 161.24 119.011 160.9C115.527 160.635 112.033 160.682 108.538 160.728C106.365 160.757 104.191 160.786 102.021 160.74C101.761 160.724 101.494 160.72 101.223 160.717C100.179 160.704 99.0948 160.69 98.3006 159.92C97.771 156.241 97.863 152.511 97.9549 148.784C98.0574 144.628 98.1597 140.475 97.4006 136.4C96.3371 134.607 95.1239 132.899 93.9096 131.191C91.8472 128.289 89.7817 125.382 88.441 122.04Z" fill="url(#paint3_linear_811_6)"/>
<path d="M134.051 58.83C121.201 60.06 109.091 67.18 101.691 77.75C93.6907 88.71 91.2707 103.34 94.8407 116.38C95.5807 118.62 96.4007 120.84 97.3506 123.01C101.881 132.79 109.881 140.95 119.681 145.49C121.631 142.59 123.551 139.65 125.421 136.69C115.401 132.57 107.601 123.68 104.761 113.23C104.531 112.28 104.341 111.32 104.201 110.36C101.441 96.51 108.171 81.54 120.231 74.26C129.851 68.12 142.501 67.36 152.901 71.99C159.271 74.91 164.751 79.7098 168.491 85.6398C171.091 83.0998 173.351 80.2298 175.301 77.1698C170.941 71.4098 165.331 66.6698 158.941 63.3198C151.241 59.6298 142.571 57.89 134.051 58.83Z" fill="url(#paint4_linear_811_6)"/>
<path d="M146.839 86.6343C145.672 87.8608 144.506 89.0872 143.261 90.22C142.887 90.6032 142.483 90.9899 142.072 91.3841C139.692 93.6649 137.046 96.2007 138.231 99.79C142.521 104.48 146.981 109.07 151.691 113.34C154.241 115.71 157.671 113.91 159.681 111.8C160.822 107.42 157.803 104.69 154.805 101.981C153.388 100.7 151.977 99.424 151.011 97.98C152.045 95.8822 153.79 94.2865 155.54 92.6866C157.361 91.0223 159.186 89.3534 160.221 87.11C161.541 83.08 156.881 78.92 153.071 80.91C150.748 82.5255 148.793 84.58 146.839 86.6343Z" fill="url(#paint5_linear_811_6)"/>
<path d="M183.791 98.7099C182.791 90.9599 179.811 83.5298 175.301 77.1698C173.351 80.2298 171.091 83.0998 168.491 85.6398C172.591 92.3798 174.431 100.45 173.431 108.3C171.921 122.36 161.061 134.86 147.291 138.18C140.081 140.03 132.321 139.46 125.421 136.69C123.551 139.65 121.631 142.59 119.681 145.49C136.321 153.39 157.601 149.73 170.491 136.5C180.471 126.85 185.321 112.45 183.791 98.7099Z" fill="url(#paint6_linear_811_6)"/>
<path d="M118.121 102.94C116.101 98.9501 120.811 94.1301 124.851 96.0801C127.033 97.4792 128.816 99.3644 130.598 101.249C131.592 102.301 132.587 103.353 133.651 104.32C134.197 104.911 134.809 105.488 135.428 106.073C137.735 108.252 140.152 110.535 139.711 113.98C137.708 116.617 135.355 118.935 133.005 121.251C131.87 122.369 130.735 123.487 129.641 124.64C129.252 125.016 128.87 125.406 128.486 125.797C127.117 127.195 125.734 128.606 123.961 129.45C122.172 130.143 120.484 129.244 118.904 128.403C118.568 128.224 118.237 128.048 117.911 127.89C117.301 125.8 116.741 123.24 118.341 121.45C119.806 119.749 121.4 118.172 122.994 116.595C124.371 115.233 125.748 113.871 127.041 112.43C126.051 111.377 124.991 110.379 123.931 109.381C121.81 107.385 119.688 105.387 118.121 102.94Z" fill="url(#paint7_linear_811_6)"/>
<path d="M60.3506 19.3998C55.444 19.4036 50.5374 19.4001 45.6314 19.3965H45.5819C37.7159 19.3908 29.8513 19.3852 21.9906 19.4098C14.2406 19.3198 7.42061 26.3298 7.57061 34.0498C7.51661 48.5664 7.5355 63.0748 7.5544 77.5898L7.5606 82.4298M60.3506 19.3998C57.9006 23.4798 55.3206 27.4598 52.6906 31.4098M60.3506 19.3998C64.2465 19.3998 68.1439 19.3988 72.0417 19.3977H72.078C79.8636 19.3955 87.6523 19.3933 95.4409 19.4C105.091 19.39 114.751 19.3901 124.401 19.4001M52.6906 31.4098C43.4406 31.4298 34.1906 31.4098 24.9406 31.3898C24.5404 31.435 24.0992 31.4388 23.6476 31.4427C22.1019 31.4561 20.4333 31.4705 19.8606 33.1498C19.2226 34.134 19.3493 35.2748 19.4747 36.4034C19.534 36.9376 19.5931 37.469 19.5706 37.9798C19.6531 45.3291 19.6343 52.6727 19.6156 60.0192C19.6094 62.4689 19.6031 64.9192 19.6006 67.3698M52.6906 31.4098C56.5506 31.4098 60.411 31.4111 64.2711 31.4122L64.2909 31.4122C72.0242 31.4144 79.7574 31.4167 87.4907 31.4101C90.7285 31.4101 93.9663 31.4112 97.2041 31.4123L97.2207 31.4123C103.707 31.4145 110.194 31.4167 116.681 31.4101M19.6006 67.3698C16.7495 70.2969 14.3119 73.5612 11.8731 76.827C10.4627 78.7157 9.05191 80.605 7.5606 82.4298M19.6006 67.3698C19.6352 77.2282 19.6269 87.0869 19.6184 96.9453C19.6146 101.327 19.6108 105.709 19.6108 110.09C19.5808 111.8 19.9308 113.47 20.3407 115.13C28.1487 115.513 35.9719 115.457 43.7987 115.401H43.7999C48.6328 115.366 53.4678 115.331 58.3006 115.4M7.5606 82.4298C7.54061 92.2948 7.54081 102.17 7.54081 112.045V112.06C7.44081 115.75 8.6708 119.44 10.9808 122.32C11.7408 123.05 12.5208 123.76 13.3308 124.45C15.3208 125.74 17.4807 126.87 19.8506 127.24C26.6592 127.253 33.4722 127.231 40.2868 127.209H40.3175L40.3323 127.209C43.7414 127.198 47.151 127.187 50.5606 127.18M124.401 19.4001C123.959 20.0802 123.517 20.7601 123.075 21.44M124.401 19.4001C129.406 19.4081 134.412 19.4033 139.418 19.3985H139.427C146.94 19.3913 154.454 19.3841 161.971 19.4201C165.501 19.3601 168.691 21.0701 171.511 23.0401C173.931 25.87 176.101 29.1801 176.201 33.04C176.341 37.9481 176.312 42.8615 176.284 47.7764C176.274 49.5208 176.263 51.2654 176.261 53.01C176.481 56.09 174.111 59.21 170.971 59.46C167.751 59.95 164.361 57.36 164.301 54.04C164.111 47.61 164.191 41.18 164.321 34.75L164.341 33.71C163.591 31.9602 161.901 31.2201 160.071 31.4201C151.937 31.3976 143.8 31.4035 135.664 31.4095H135.662C129.334 31.4142 123.006 31.4188 116.681 31.4101M116.681 31.4101C118.74 28.1099 120.858 24.8497 122.977 21.5914M58.3006 115.4L58.2999 115.401C55.6903 119.31 53.0802 123.22 50.5606 127.18M58.3006 115.4C59.5622 115.4 60.8246 115.4 62.0867 115.401C68.3974 115.402 74.7127 115.403 81.021 115.37C81.2742 115.38 81.5373 115.384 81.8055 115.387C83.4119 115.408 85.2027 115.432 86.171 116.88C86.9351 118.083 87.4417 119.423 87.9461 120.758C88.1085 121.188 88.2706 121.616 88.441 122.04M58.3006 115.4C55.6913 119.31 53.0805 123.22 50.5606 127.18M50.5606 127.18C54.1002 127.264 57.6446 127.236 61.1891 127.207C66.8973 127.161 72.6068 127.114 78.301 127.54C79.184 128.228 79.7642 129.182 80.3355 130.122C80.437 130.289 80.5384 130.456 80.641 130.62C80.736 130.785 80.8785 131.038 81.021 131.29C81.1634 131.542 81.3058 131.795 81.4008 131.96M88.441 122.04C88.441 122.04 88.4411 122.04 88.441 122.04ZM88.441 122.04C89.7817 125.382 91.8472 128.289 93.9096 131.191C95.1239 132.899 96.3371 134.607 97.4006 136.4C98.1597 140.475 98.0574 144.628 97.9549 148.784C97.863 152.511 97.771 156.241 98.3006 159.92C99.0948 160.69 100.179 160.704 101.223 160.717C101.494 160.72 101.761 160.724 102.021 160.74C104.191 160.786 106.365 160.757 108.538 160.728C112.033 160.682 115.527 160.635 119.011 160.9C122.431 161.24 124.211 164.74 124.301 167.86C124.163 168.083 124.026 168.311 123.888 168.542C122.986 170.049 122.032 171.643 120.341 172.32C118.77 172.836 117.111 172.836 115.467 172.836C114.976 172.836 114.486 172.836 114.001 172.85C106.136 172.791 98.2693 172.802 90.4023 172.813H90.3975C82.261 172.825 74.1245 172.836 65.9906 172.77C63.1606 173.05 61.2406 170.79 59.7506 168.74C59.2306 165.3 61.2206 161.31 64.9506 160.91C68.1983 160.629 71.4607 160.681 74.722 160.733C78.0782 160.786 81.4334 160.839 84.7706 160.53C85.8589 159.787 85.8387 158.509 85.8194 157.285C85.8125 156.844 85.8056 156.41 85.8506 156.01C85.8083 154.076 85.8252 152.139 85.842 150.203C85.869 147.106 85.896 144.009 85.6806 140.92C85.2005 138.867 84.1576 137.037 83.1143 135.207C82.5061 134.14 81.898 133.072 81.4008 131.96M81.4008 131.96C81.4007 131.96 81.4009 131.96 81.4008 131.96ZM119.681 145.49C109.881 140.95 101.881 132.79 97.3506 123.01C96.4007 120.84 95.5807 118.62 94.8407 116.38C91.2707 103.34 93.6907 88.71 101.691 77.75C109.091 67.18 121.201 60.06 134.051 58.83C142.571 57.89 151.241 59.6298 158.941 63.3198C165.331 66.6698 170.941 71.4098 175.301 77.1698M119.681 145.49C121.631 142.59 123.551 139.65 125.421 136.69M119.681 145.49C136.321 153.39 157.601 149.73 170.491 136.5C180.471 126.85 185.321 112.45 183.791 98.7099C182.791 90.9599 179.811 83.5298 175.301 77.1698M125.421 136.69C115.401 132.57 107.601 123.68 104.761 113.23C104.531 112.28 104.341 111.32 104.201 110.36C101.441 96.51 108.171 81.54 120.231 74.26C129.851 68.12 142.501 67.36 152.901 71.99C159.271 74.91 164.751 79.7098 168.491 85.6398M125.421 136.69C132.321 139.46 140.081 140.03 147.291 138.18C161.061 134.86 171.921 122.36 173.431 108.3C174.431 100.45 172.591 92.3798 168.491 85.6398M168.491 85.6398C171.091 83.0998 173.351 80.2298 175.301 77.1698M143.261 90.22C144.506 89.0872 145.672 87.8608 146.839 86.6343C148.793 84.58 150.748 82.5255 153.071 80.91C156.881 78.92 161.541 83.08 160.221 87.11C159.186 89.3534 157.361 91.0223 155.54 92.6866C153.79 94.2865 152.045 95.8822 151.011 97.98C151.977 99.424 153.388 100.7 154.805 101.981C157.803 104.69 160.822 107.42 159.681 111.8C157.671 113.91 154.241 115.71 151.691 113.34C146.981 109.07 142.521 104.48 138.231 99.79C137.046 96.2007 139.692 93.6649 142.072 91.3841C142.483 90.9899 142.887 90.6032 143.261 90.22ZM124.851 96.0801C120.811 94.1301 116.101 98.9501 118.121 102.94C119.688 105.387 121.81 107.385 123.931 109.381C124.991 110.379 126.051 111.377 127.041 112.43C125.748 113.871 124.371 115.233 122.994 116.595C121.4 118.172 119.806 119.749 118.341 121.45C116.741 123.24 117.301 125.8 117.911 127.89C118.237 128.048 118.568 128.224 118.904 128.403C120.484 129.244 122.172 130.143 123.961 129.45C125.734 128.606 127.117 127.195 128.486 125.797C128.87 125.406 129.252 125.016 129.641 124.64C130.735 123.487 131.87 122.369 133.005 121.251C135.355 118.935 137.708 116.617 139.711 113.98C140.152 110.535 137.735 108.252 135.428 106.073C134.809 105.488 134.197 104.911 133.651 104.32C132.587 103.353 131.592 102.301 130.598 101.249C128.816 99.3644 127.033 97.4792 124.851 96.0801Z" stroke="url(#paint8_linear_811_6)" stroke-width="4"/>
<defs>
<linearGradient id="paint0_linear_811_6" x1="7.53516" y1="172.85" x2="210.09" y2="71.2901" gradientUnits="userSpaceOnUse">
<stop stop-color="#0357D1"/>
<stop offset="1" stop-color="#27CDFC"/>
</linearGradient>
<linearGradient id="paint1_linear_811_6" x1="7.53516" y1="172.85" x2="210.09" y2="71.2901" gradientUnits="userSpaceOnUse">
<stop stop-color="#0357D1"/>
<stop offset="1" stop-color="#27CDFC"/>
</linearGradient>
<linearGradient id="paint2_linear_811_6" x1="7.53516" y1="172.85" x2="210.09" y2="71.2901" gradientUnits="userSpaceOnUse">
<stop stop-color="#0357D1"/>
<stop offset="1" stop-color="#27CDFC"/>
</linearGradient>
<linearGradient id="paint3_linear_811_6" x1="7.53516" y1="172.85" x2="210.09" y2="71.2901" gradientUnits="userSpaceOnUse">
<stop stop-color="#0357D1"/>
<stop offset="1" stop-color="#27CDFC"/>
</linearGradient>
<linearGradient id="paint4_linear_811_6" x1="7.53516" y1="172.85" x2="210.09" y2="71.2901" gradientUnits="userSpaceOnUse">
<stop stop-color="#0357D1"/>
<stop offset="1" stop-color="#27CDFC"/>
</linearGradient>
<linearGradient id="paint5_linear_811_6" x1="7.53516" y1="172.85" x2="210.09" y2="71.2901" gradientUnits="userSpaceOnUse">
<stop stop-color="#0357D1"/>
<stop offset="1" stop-color="#27CDFC"/>
</linearGradient>
<linearGradient id="paint6_linear_811_6" x1="7.53516" y1="172.85" x2="210.09" y2="71.2901" gradientUnits="userSpaceOnUse">
<stop stop-color="#0357D1"/>
<stop offset="1" stop-color="#27CDFC"/>
</linearGradient>
<linearGradient id="paint7_linear_811_6" x1="7.53516" y1="172.85" x2="210.09" y2="71.2901" gradientUnits="userSpaceOnUse">
<stop stop-color="#0357D1"/>
<stop offset="1" stop-color="#27CDFC"/>
</linearGradient>
<linearGradient id="paint8_linear_811_6" x1="7.53516" y1="172.85" x2="210.09" y2="71.2901" gradientUnits="userSpaceOnUse">
<stop stop-color="#0357D1"/>
<stop offset="1" stop-color="#27CDFC"/>
</linearGradient>
</defs>
</svg>
