<svg width="16" height="16" viewBox="0 0 16 16" fill="none" xmlns="http://www.w3.org/2000/svg">
<g clip-path="url(#clip0_505_69)">
<path fill-rule="evenodd" clip-rule="evenodd" d="M9.4676 1.90655C10.3225 1.89804 10.9095 1.8929 11.365 1.92555C11.8099 1.95745 12.0494 2.02168 12.2231 2.10803C12.6202 2.30542 12.9447 2.62346 13.1499 3.01658C13.2397 3.18854 13.3087 3.4267 13.3495 3.87091C13.3912 4.32563 13.3977 4.91266 13.4062 5.76755L13.45 10.1673C13.4585 11.0222 13.4636 11.6093 13.431 12.0647C13.3991 12.5097 13.3349 12.7491 13.2485 12.9229C13.0511 13.32 12.7331 13.6444 12.34 13.8497C12.168 13.9395 11.9298 14.0084 11.4856 14.0492C11.0309 14.0909 10.4439 14.0974 9.58899 14.1059L6.58914 14.1358C5.73425 14.1443 5.1472 14.1494 4.69175 14.1168C4.24681 14.0849 4.00733 14.0207 3.83362 13.9343C3.43649 13.7369 3.11205 13.4189 2.9068 13.0258C2.81701 12.8538 2.74803 12.6156 2.70728 12.1714C2.66557 11.7167 2.65903 11.1297 2.65053 10.2748L2.60674 5.87501C2.59824 5.02013 2.59309 4.43308 2.62575 3.97762C2.65765 3.53269 2.72188 3.29321 2.80822 3.11949C3.00561 2.72237 3.32366 2.39793 3.71678 2.19267C3.88874 2.10289 4.12689 2.03391 4.57111 1.99316C5.02582 1.95145 5.61286 1.94491 6.46774 1.9364L9.4676 1.90655ZM13.0243 0.496162C12.5531 0.261929 12.05 0.170047 11.4937 0.130161C10.9562 0.0916262 10.2954 0.0982106 9.48739 0.106262H9.48738L9.44969 0.106637L6.44983 0.136489L6.41213 0.136864C5.60412 0.144893 4.9433 0.151461 4.40669 0.200684C3.85125 0.251633 3.35016 0.353506 2.88368 0.597071C2.1536 0.978261 1.56294 1.58079 1.19636 2.31831C0.962124 2.78955 0.870242 3.29257 0.830356 3.84891C0.791822 4.38639 0.798406 5.04721 0.806457 5.85523L0.806832 5.89292L0.850615 10.2927L0.85099 10.3304V10.3304C0.859019 11.1384 0.865586 11.7992 0.914809 12.3359C0.965759 12.8913 1.06763 13.3924 1.3112 13.8589C1.69239 14.5889 2.29492 15.1796 3.03243 15.5462C3.50368 15.7804 4.00669 15.8723 4.56303 15.9122C5.10052 15.9507 5.76134 15.9441 6.56936 15.9361L6.60705 15.9357L9.6069 15.9059L9.64466 15.9055C10.4526 15.8974 11.1134 15.8909 11.65 15.8417C12.2055 15.7907 12.7066 15.6888 13.1731 15.4453C13.9031 15.0641 14.4938 14.4616 14.8604 13.724C15.0946 13.2528 15.1865 12.7498 15.2264 12.1934C15.2649 11.6559 15.2583 10.9951 15.2503 10.1871L15.2499 10.1494L15.2061 5.74964L15.2057 5.71188C15.1977 4.90389 15.1911 4.24309 15.1419 3.70649C15.091 3.15106 14.9891 2.64997 14.7455 2.18348C14.3643 1.45341 13.7618 0.862747 13.0243 0.496162ZM7.16679 3.74703C6.80013 3.74703 6.50013 3.44703 6.50013 3.08037C6.50013 2.7137 6.80013 2.4137 7.16679 2.4137H8.50013C8.86679 2.4137 9.16679 2.7137 9.16679 3.08037C9.16679 3.44703 8.86679 3.74703 8.50013 3.74703H7.16679ZM7.16679 6.00016C6.80013 6.00016 6.50013 5.70016 6.50013 5.33349C6.50013 4.96682 6.80013 4.66683 7.16679 4.66683H8.50013C8.86679 4.66683 9.16679 4.96682 9.16679 5.33349C9.16679 5.70016 8.86679 6.00016 8.50013 6.00016H7.16679ZM6.80325 7.74411L6.06575 9.49723C6.022 9.66598 6.00013 9.83785 6.00013 10.0097C6.00013 11.1097 6.90013 12.0004 8.00013 12.0004C9.10013 12.0004 10.0001 11.1097 10.0001 10.0097C10.0001 9.83785 9.97825 9.66285 9.9345 9.49723L9.20013 7.74098C9.0845 7.30348 8.68763 6.99723 8.2345 6.99723H7.76888C7.31575 6.99723 6.91888 7.30035 6.80325 7.74098V7.74411ZM7.50013 9.50036H8.50013C8.77513 9.50036 9.00013 9.72535 9.00013 10.0004C9.00013 10.2754 8.77513 10.5004 8.50013 10.5004H7.50013C7.22513 10.5004 7.00013 10.2754 7.00013 10.0004C7.00013 9.72535 7.22513 9.50036 7.50013 9.50036Z" fill="url(#paint0_linear_505_69)"/>
</g>
<defs>
<linearGradient id="paint0_linear_505_69" x1="8.02837" y1="15.9422" x2="8.02837" y2="0.100098" gradientUnits="userSpaceOnUse">
<stop stop-color="#00B59C"/>
<stop offset="1" stop-color="#9CFFAC"/>
</linearGradient>
<clipPath id="clip0_505_69">
<rect width="16" height="16" fill="white"/>
</clipPath>
</defs>
</svg>
