<svg width="16" height="16" viewBox="0 0 16 16" fill="none" xmlns="http://www.w3.org/2000/svg">
<path fill-rule="evenodd" clip-rule="evenodd" d="M0.200195 2.5502C0.200195 1.52847 1.02847 0.700195 2.0502 0.700195C3.07192 0.700195 3.9002 1.52847 3.9002 2.5502V11.6774C3.9002 12.3882 3.68982 13.083 3.29558 13.6743L2.71584 14.544C2.56746 14.7665 2.31768 14.9002 2.0502 14.9002C1.78271 14.9002 1.53293 14.7665 1.38455 14.544L0.804814 13.6743C0.410573 13.083 0.200195 12.3882 0.200195 11.6774V2.5502ZM2.0002 5.1002C1.88974 5.1002 1.8002 5.18974 1.8002 5.3002V11.6774C1.8002 11.8955 1.83584 12.1108 1.90465 12.3153C1.9548 12.4643 2.14559 12.4643 2.19574 12.3153C2.26455 12.1108 2.3002 11.8955 2.3002 11.6774V5.3002C2.3002 5.18974 2.21065 5.1002 2.1002 5.1002H2.0002ZM2.3002 3.3002C2.3002 3.41065 2.21065 3.5002 2.1002 3.5002H2.0002C1.88974 3.5002 1.8002 3.41065 1.8002 3.3002V2.5502C1.8002 2.41212 1.91212 2.3002 2.0502 2.3002C2.18827 2.3002 2.3002 2.41212 2.3002 2.5502V3.3002ZM4.4002 3.6002C4.4002 1.99857 5.69857 0.700195 7.3002 0.700195H12.9002C14.5018 0.700195 15.8002 1.99857 15.8002 3.6002V12.0002C15.8002 13.6018 14.5018 14.9002 12.9002 14.9002H7.3002C5.69857 14.9002 4.4002 13.6018 4.4002 12.0002V3.6002ZM7.3002 2.3002C6.58223 2.3002 6.0002 2.88223 6.0002 3.6002V12.0002C6.0002 12.7182 6.58223 13.3002 7.3002 13.3002H12.9002C13.6182 13.3002 14.2002 12.7182 14.2002 12.0002V3.6002C14.2002 2.88223 13.6182 2.3002 12.9002 2.3002H7.3002ZM7.2002 5.0002C7.2002 4.55837 7.55837 4.2002 8.0002 4.2002H12.2002C12.642 4.2002 13.0002 4.55837 13.0002 5.0002C13.0002 5.44202 12.642 5.8002 12.2002 5.8002H8.0002C7.55837 5.8002 7.2002 5.44202 7.2002 5.0002ZM7.2002 7.8002C7.2002 7.35837 7.55837 7.0002 8.0002 7.0002H12.2002C12.642 7.0002 13.0002 7.35837 13.0002 7.8002C13.0002 8.24202 12.642 8.6002 12.2002 8.6002H8.0002C7.55837 8.6002 7.2002 8.24202 7.2002 7.8002ZM7.2002 10.6002C7.2002 10.1584 7.55837 9.8002 8.0002 9.8002H10.1002C10.542 9.8002 10.9002 10.1584 10.9002 10.6002C10.9002 11.042 10.542 11.4002 10.1002 11.4002H8.0002C7.55837 11.4002 7.2002 11.042 7.2002 10.6002Z" fill="url(#paint0_linear_482_69)"/>
<defs>
<linearGradient id="paint0_linear_482_69" x1="15.0001" y1="14.1002" x2="4.58596" y2="2.39909" gradientUnits="userSpaceOnUse">
<stop stop-color="#731FFF"/>
<stop offset="0.905415" stop-color="#EB1AFF"/>
</linearGradient>
</defs>
</svg>
