<svg width="16" height="16" viewBox="0 0 16 16" fill="none" xmlns="http://www.w3.org/2000/svg">
<path d="M6.66667 14.6668H9.33333C12.6667 14.6668 14 13.3335 14 10.0002V6.00016C14 2.66683 12.6667 1.3335 9.33333 1.3335H6.66667C3.33333 1.3335 2 2.66683 2 6.00016V10.0002C2 13.3335 3.33333 14.6668 6.66667 14.6668Z" stroke="url(#paint0_linear_598_140)" stroke-width="1.8" stroke-linecap="round" stroke-linejoin="round"/>
<path d="M11 5.05371V5.72038C11 6.26704 10.5533 6.72038 10 6.72038H6C5.45333 6.72038 5 6.27371 5 5.72038V5.05371C5 4.50704 5.44667 4.05371 6 4.05371H10C10.5533 4.05371 11 4.50038 11 5.05371Z" stroke="url(#paint1_linear_598_140)" stroke-width="1.5" stroke-linecap="round" stroke-linejoin="round"/>
<path fill-rule="evenodd" clip-rule="evenodd" d="M5.42393 8.43311C4.92687 8.43311 4.52393 8.83605 4.52393 9.33311C4.52393 9.83016 4.92687 10.2331 5.42393 10.2331H5.43163C5.92868 10.2331 6.33163 9.83016 6.33163 9.33311C6.33163 8.83605 5.92868 8.43311 5.43163 8.43311H5.42393ZM7.99668 8.43311C7.49962 8.43311 7.09668 8.83605 7.09668 9.33311C7.09668 9.83016 7.49962 10.2331 7.99668 10.2331H8.00438C8.50144 10.2331 8.90438 9.83016 8.90438 9.33311C8.90438 8.83605 8.50144 8.43311 8.00438 8.43311H7.99668ZM9.66943 9.33311C9.66943 8.83605 10.0724 8.43311 10.5694 8.43311H10.5771C11.0742 8.43311 11.4771 8.83605 11.4771 9.33311C11.4771 9.83016 11.0742 10.2331 10.5771 10.2331H10.5694C10.0724 10.2331 9.66943 9.83016 9.66943 9.33311ZM5.42393 10.7666C4.92687 10.7666 4.52393 11.1695 4.52393 11.6666C4.52393 12.1637 4.92687 12.5666 5.42393 12.5666H5.43163C5.92868 12.5666 6.33163 12.1637 6.33163 11.6666C6.33163 11.1695 5.92868 10.7666 5.43163 10.7666H5.42393ZM7.09668 11.6666C7.09668 11.1695 7.49962 10.7666 7.99668 10.7666H8.00438C8.50144 10.7666 8.90438 11.1695 8.90438 11.6666C8.90438 12.1637 8.50144 12.5666 8.00438 12.5666H7.99668C7.49962 12.5666 7.09668 12.1637 7.09668 11.6666ZM10.5694 10.7666C10.0724 10.7666 9.66943 11.1695 9.66943 11.6666C9.66943 12.1637 10.0724 12.5666 10.5694 12.5666H10.5771C11.0742 12.5666 11.4771 12.1637 11.4771 11.6666C11.4771 11.1695 11.0742 10.7666 10.5771 10.7666H10.5694Z" fill="url(#paint2_linear_598_140)"/>
<defs>
<linearGradient id="paint0_linear_598_140" x1="2" y1="8.00016" x2="14" y2="8.00016" gradientUnits="userSpaceOnUse">
<stop stop-color="#FFC152"/>
<stop offset="1" stop-color="#FF5F5F"/>
</linearGradient>
<linearGradient id="paint1_linear_598_140" x1="5" y1="5.38704" x2="11" y2="5.38704" gradientUnits="userSpaceOnUse">
<stop stop-color="#FFC152"/>
<stop offset="1" stop-color="#FF5F5F"/>
</linearGradient>
<linearGradient id="paint2_linear_598_140" x1="4.52393" y1="10.4999" x2="11.4771" y2="10.4999" gradientUnits="userSpaceOnUse">
<stop stop-color="#FFC152"/>
<stop offset="1" stop-color="#FF5F5F"/>
</linearGradient>
</defs>
</svg>
