<svg width="16" height="16" viewBox="0 0 16 16" fill="none" xmlns="http://www.w3.org/2000/svg">
<path d="M12.0752 5.125V11.125M1.2002 4.9L1.2002 11.35C1.2002 12.1901 1.2002 12.6101 1.36369 12.931C1.5075 13.2132 1.73697 13.4427 2.01921 13.5865C2.34008 13.75 2.76012 13.75 3.6002 13.75L12.3002 13.75C13.1403 13.75 13.5603 13.75 13.8812 13.5865C14.1634 13.4427 14.3929 13.2132 14.5367 12.931C14.7002 12.6101 14.7002 12.1901 14.7002 11.35V4.9C14.7002 4.05992 14.7002 3.63988 14.5367 3.31902C14.3929 3.03677 14.1634 2.8073 13.8812 2.66349C13.5603 2.5 13.1403 2.5 12.3002 2.5L3.6002 2.5C2.76012 2.5 2.34008 2.5 2.01921 2.66349C1.73697 2.8073 1.5075 3.03677 1.36369 3.31901C1.2002 3.63988 1.2002 4.05992 1.2002 4.9ZM7.5752 8.125C7.5752 9.16053 6.73573 10 5.7002 10C4.66466 10 3.8252 9.16053 3.8252 8.125C3.8252 7.08947 4.66466 6.25 5.7002 6.25C6.73573 6.25 7.5752 7.08947 7.5752 8.125Z" stroke="url(#paint0_linear_572_101)" stroke-width="1.8" stroke-linecap="round" stroke-linejoin="round"/>
<defs>
<linearGradient id="paint0_linear_572_101" x1="8" y1="2.2998" x2="7.95637" y2="16.2997" gradientUnits="userSpaceOnUse">
<stop stop-color="#DE14FF"/>
<stop offset="1" stop-color="#7F00FF"/>
</linearGradient>
</defs>
</svg>
