<svg width="16" height="16" viewBox="0 0 16 16" fill="none" xmlns="http://www.w3.org/2000/svg">
<path fill-rule="evenodd" clip-rule="evenodd" d="M4.49981 1.1001C2.95445 1.1001 1.89293 1.54579 1.19962 2.05001C0.858397 2.29817 0.618224 2.55186 0.458228 2.75397C0.37828 2.85495 0.318224 2.94321 0.275345 3.01181C0.253892 3.04614 0.236686 3.07563 0.223393 3.09944C0.218576 3.10807 0.214269 3.11595 0.210457 3.12306C0.174394 3.18871 0.146283 3.25934 0.127419 3.33366C0.107103 3.41318 0.0981324 3.49391 0.0998065 3.57376L0.0998065 13.6475C0.0988343 13.6938 0.101464 13.74 0.107561 13.7855C0.123237 13.9046 0.162165 14.0162 0.219632 14.1159C0.293638 14.2448 0.400237 14.3566 0.534837 14.4376C0.5965 14.4749 0.662998 14.505 0.733169 14.5267C0.874552 14.5708 1.0211 14.578 1.16075 14.5525C1.2562 14.5353 1.34641 14.503 1.42885 14.4582C1.56207 14.3861 1.67827 14.2799 1.76284 14.1444C1.77503 14.1249 1.7865 14.105 1.79721 14.0846L1.80174 14.0771C1.81203 14.0607 1.83401 14.0274 1.86951 13.9826C1.94042 13.893 2.06483 13.7578 2.25833 13.6171C2.63446 13.3435 3.32294 13.0114 4.49981 13.0114C5.67668 13.0114 6.36515 13.3435 6.74129 13.6171C6.93479 13.7578 7.0592 13.893 7.1301 13.9826C7.16561 14.0274 7.18758 14.0607 7.19787 14.0771L7.20239 14.0846C7.20793 14.0951 7.21368 14.1055 7.21962 14.1159C7.25809 14.1829 7.30537 14.2453 7.3608 14.3011C7.42331 14.3641 7.4942 14.4168 7.5707 14.4582C7.62198 14.4861 7.67627 14.5091 7.73295 14.5267C7.82066 14.554 7.91036 14.5672 7.99917 14.5672C8.12111 14.5674 8.24475 14.5427 8.36263 14.4906C8.45613 14.4495 8.54295 14.3924 8.61856 14.3209C8.62747 14.3125 8.63621 14.3038 8.64479 14.295C8.69778 14.2406 8.74312 14.1802 8.78025 14.1154C8.7861 14.1053 8.79175 14.095 8.79721 14.0846L8.80174 14.0771C8.81203 14.0607 8.83401 14.0274 8.86951 13.9826C8.94042 13.893 9.06483 13.7578 9.25833 13.6171C9.63446 13.3435 10.3229 13.0114 11.4998 13.0114C12.6767 13.0114 13.3651 13.3435 13.7413 13.6171C13.9348 13.7578 14.0592 13.893 14.1301 13.9826C14.1656 14.0274 14.1876 14.0607 14.1979 14.0771L14.2024 14.0846C14.2854 14.2426 14.414 14.373 14.5707 14.4582C14.6524 14.5026 14.7416 14.5347 14.8361 14.552C14.9767 14.5781 15.1244 14.571 15.2668 14.5266C15.3361 14.5051 15.4017 14.4755 15.4627 14.4389C15.5985 14.3576 15.7059 14.2451 15.7803 14.1154C15.8375 14.016 15.8763 13.9046 15.892 13.7859C15.8981 13.7402 15.9008 13.6939 15.8998 13.6475V3.57378C15.9015 3.49388 15.8925 3.41308 15.8722 3.33351C15.8533 3.25926 15.8252 3.18869 15.7892 3.12311L15.7762 3.09944C15.7629 3.07563 15.7457 3.04614 15.7243 3.01181C15.6814 2.94321 15.6213 2.85495 15.5414 2.75397C15.3814 2.55186 15.1412 2.29817 14.8 2.05001C14.1067 1.54579 13.0452 1.1001 11.4998 1.1001C9.95445 1.1001 8.89293 1.54579 8.19962 2.05001C8.17569 2.06742 8.15226 2.08485 8.12931 2.10228C8.05295 2.16033 7.94666 2.16033 7.8703 2.10228C7.84736 2.08485 7.82392 2.06742 7.79999 2.05001C7.10669 1.54579 6.04516 1.1001 4.49981 1.1001ZM7.09981 3.90733C7.09981 3.86011 7.08343 3.81413 7.05143 3.77939C6.97834 3.70005 6.87674 3.60425 6.74129 3.50574C6.36515 3.23218 5.67668 2.9001 4.49981 2.9001C3.32294 2.9001 2.63446 3.23218 2.25833 3.50574C2.12287 3.60425 2.02127 3.70005 1.94819 3.77939C1.91619 3.81413 1.89981 3.86011 1.89981 3.90734V11.4292C1.89981 11.5763 2.05354 11.6738 2.19013 11.6193C2.79823 11.3765 3.55944 11.2114 4.49981 11.2114C5.44017 11.2114 6.20138 11.3765 6.80949 11.6193C6.94607 11.6738 7.09981 11.5763 7.09981 11.4292V3.90733ZM13.7413 3.50574C13.8767 3.60425 13.9783 3.70005 14.0514 3.77939C14.0834 3.81413 14.0998 3.86011 14.0998 3.90734V11.4292C14.0998 11.5763 13.9461 11.6738 13.8095 11.6193C13.2014 11.3765 12.4402 11.2114 11.4998 11.2114C10.5594 11.2114 9.79823 11.3765 9.19013 11.6193C9.05354 11.6738 8.89981 11.5763 8.89981 11.4292V3.90734C8.89981 3.86011 8.91619 3.81413 8.94819 3.77939C9.02127 3.70005 9.12287 3.60425 9.25833 3.50574C9.63446 3.23218 10.3229 2.9001 11.4998 2.9001C12.6767 2.9001 13.3651 3.23218 13.7413 3.50574Z" fill="url(#paint0_linear_588_105)"/>
<defs>
<linearGradient id="paint0_linear_588_105" x1="7.99981" y1="14.5672" x2="7.99981" y2="1.89228" gradientUnits="userSpaceOnUse">
<stop stop-color="#18AEFA"/>
<stop offset="1" stop-color="#83E1FF"/>
</linearGradient>
</defs>
</svg>
