<svg width="16" height="16" viewBox="0 0 16 16" fill="none" xmlns="http://www.w3.org/2000/svg">
<path fill-rule="evenodd" clip-rule="evenodd" d="M7.7005 0.583496L7.7335 0.583498H8.26683L8.29983 0.583496H8.29992C9.39202 0.583492 10.2575 0.583489 10.9551 0.640486C11.6685 0.698772 12.2721 0.82038 12.8233 1.10122C13.7171 1.55662 14.4437 2.28327 14.8991 3.17704C15.1799 3.72822 15.3016 4.33184 15.3598 5.04523C15.4168 5.74284 15.4168 6.60831 15.4168 7.70042V7.70044V7.70045V7.70046V7.70048V7.7335V10.1145V10.1361V10.1361V10.1361V10.1361V10.1361C15.4168 10.3404 15.4168 10.4719 15.4099 10.6007C15.3512 11.6813 14.9253 12.7095 14.2027 13.5151C14.1165 13.6112 14.0236 13.7041 13.8791 13.8486L13.8638 13.8638L13.8486 13.8791C13.7041 14.0236 13.6112 14.1165 13.5151 14.2027C12.7095 14.9253 11.6813 15.3512 10.6007 15.4099C10.4719 15.4168 10.3404 15.4168 10.1361 15.4168H10.1361H10.1361H10.1361H10.1361H10.1145H7.7335H7.70048H7.70047H7.70045H7.70044H7.70042C6.60831 15.4168 5.74284 15.4168 5.04523 15.3598C4.33184 15.3016 3.72822 15.1799 3.17704 14.8991C2.28327 14.4437 1.55662 13.7171 1.10122 12.8233C0.82038 12.2721 0.698772 11.6685 0.640486 10.9551C0.583489 10.2575 0.583492 9.39202 0.583496 8.29991V8.29983L0.583498 8.26683V7.73349L0.583496 7.70049V7.70041C0.583492 6.60831 0.583489 5.74284 0.640486 5.04523C0.698772 4.33184 0.82038 3.72822 1.10122 3.17704C1.55662 2.28327 2.28327 1.55662 3.17704 1.10122C3.72822 0.82038 4.33184 0.698772 5.04523 0.640486C5.74284 0.583489 6.60831 0.583492 7.70042 0.583496H7.7005ZM5.16738 2.1355C4.54675 2.18621 4.1625 2.28259 3.85803 2.43773C3.2465 2.74932 2.74932 3.2465 2.43773 3.85803C2.28259 4.1625 2.18621 4.54675 2.1355 5.16738C2.08408 5.79676 2.0835 6.60102 2.0835 7.73349V8.26683C2.0835 9.39931 2.08408 10.2036 2.1355 10.8329C2.18621 11.4536 2.28259 11.8378 2.43773 12.1423C2.74932 12.7538 3.2465 13.251 3.85803 13.5626C4.1625 13.7177 4.54675 13.8141 5.16738 13.8648C5.79676 13.9162 6.60102 13.9168 7.7335 13.9168H9.86681C9.89444 13.9168 9.91683 13.8944 9.91683 13.8668V13.8668V13.8364C9.91682 13.3022 9.91681 12.8564 9.94657 12.4921C9.97761 12.1123 10.0447 11.7556 10.2166 11.4183C10.4802 10.9009 10.9009 10.4802 11.4184 10.2165C11.7556 10.0447 12.1123 9.97759 12.4922 9.94655C12.8564 9.91679 13.3022 9.9168 13.8364 9.91681H13.8668V9.91681C13.8944 9.91681 13.9168 9.89443 13.9168 9.86681V7.7335C13.9168 6.60102 13.9162 5.79676 13.8648 5.16738C13.8141 4.54675 13.7177 4.1625 13.5626 3.85803C13.251 3.2465 12.7538 2.74932 12.1423 2.43773C11.8378 2.28259 11.4536 2.18621 10.8329 2.1355C10.2036 2.08408 9.39931 2.0835 8.26683 2.0835H7.7335C6.60102 2.0835 5.79676 2.08408 5.16738 2.1355ZM12.5135 13.0861C12.334 13.2471 12.1383 13.3866 11.9304 13.5029C11.7186 13.6215 11.6127 13.6807 11.5135 13.6216C11.4143 13.5625 11.4161 13.4318 11.4197 13.1703C11.4227 12.9507 11.4288 12.7702 11.4416 12.6143C11.465 12.3272 11.5069 12.1899 11.5531 12.0993C11.6729 11.8641 11.8641 11.6729 12.0993 11.5531C12.1899 11.5069 12.3272 11.465 12.6143 11.4416C12.7702 11.4288 12.9507 11.4226 13.1703 11.4196C13.4318 11.4161 13.5626 11.4143 13.6216 11.5135C13.6807 11.6127 13.6215 11.7186 13.503 11.9304C13.3867 12.1383 13.2471 12.334 13.0861 12.5135C13.0304 12.5756 12.9679 12.6385 12.8032 12.8032C12.6385 12.9679 12.5756 13.0304 12.5135 13.0861ZM4.66683 3.91683C4.25262 3.91683 3.91683 4.25262 3.91683 4.66683C3.91683 5.08104 4.25262 5.41683 4.66683 5.41683H10.0002C10.4144 5.41683 10.7502 5.08104 10.7502 4.66683C10.7502 4.25262 10.4144 3.91683 10.0002 3.91683H4.66683ZM3.91683 7.3335C3.91683 6.91928 4.25262 6.5835 4.66683 6.5835H8.66683C9.08105 6.5835 9.41683 6.91928 9.41683 7.3335C9.41683 7.74771 9.08105 8.0835 8.66683 8.0835H4.66683C4.25262 8.0835 3.91683 7.74771 3.91683 7.3335ZM4.66683 9.25016C4.25262 9.25016 3.91683 9.58595 3.91683 10.0002C3.91683 10.4144 4.25262 10.7502 4.66683 10.7502H6.00016C6.41438 10.7502 6.75016 10.4144 6.75016 10.0002C6.75016 9.58595 6.41438 9.25016 6.00016 9.25016H4.66683Z" fill="url(#paint0_linear_488_497)"/>
<path d="M7.7335 0.583498L7.73349 0.783498H7.7335V0.583498ZM7.7005 0.583496L7.70051 0.383496H7.7005V0.583496ZM8.26683 0.583498L8.26683 0.783498L8.26685 0.783498L8.26683 0.583498ZM8.29983 0.583496L8.29983 0.383496L8.29982 0.383496L8.29983 0.583496ZM8.29992 0.583496L8.29992 0.783496L8.29992 0.783496L8.29992 0.583496ZM10.9551 0.640486L10.9388 0.839821L10.9388 0.839821L10.9551 0.640486ZM12.8233 1.10122L12.7325 1.27942L12.7325 1.27942L12.8233 1.10122ZM14.8991 3.17704L15.0773 3.08624L15.0773 3.08624L14.8991 3.17704ZM15.3598 5.04523L15.1605 5.06152L15.1605 5.06152L15.3598 5.04523ZM15.4168 7.70042L15.2168 7.70042V7.70042H15.4168ZM15.4168 10.1361L15.2168 10.1361L15.2168 10.1361L15.4168 10.1361ZM15.4099 10.6007L15.2101 10.5899L15.2101 10.5899L15.4099 10.6007ZM14.2027 13.5151L14.0538 13.3816L14.0538 13.3816L14.2027 13.5151ZM13.8791 13.8486L13.7377 13.7071L13.7377 13.7071L13.8791 13.8486ZM13.8486 13.8791L13.7071 13.7377L13.7071 13.7377L13.8486 13.8791ZM13.5151 14.2027L13.3816 14.0538L13.3816 14.0538L13.5151 14.2027ZM10.6007 15.4099L10.5899 15.2101L10.5899 15.2101L10.6007 15.4099ZM10.1361 15.4168L10.1361 15.2168H10.1361V15.4168ZM7.70042 15.4168L7.70042 15.2168L7.70042 15.2168L7.70042 15.4168ZM5.04523 15.3598L5.06152 15.1605L5.06152 15.1605L5.04523 15.3598ZM3.17704 14.8991L3.08624 15.0773L3.08624 15.0773L3.17704 14.8991ZM1.10122 12.8233L1.27942 12.7325L1.27942 12.7325L1.10122 12.8233ZM0.640486 10.9551L0.839821 10.9388L0.839821 10.9388L0.640486 10.9551ZM0.583496 8.29991L0.783496 8.29991V8.29991H0.583496ZM0.583496 8.29983L0.383496 8.29982V8.29983H0.583496ZM0.583498 8.26683L0.783498 8.26684V8.26683H0.583498ZM0.583498 7.73349L0.783498 7.73349L0.783498 7.73348L0.583498 7.73349ZM0.583496 7.70049L0.383496 7.70049L0.383496 7.70051L0.583496 7.70049ZM0.583496 7.70041L0.783496 7.70041L0.783496 7.70041L0.583496 7.70041ZM0.640486 5.04523L0.44115 5.02894L0.44115 5.02894L0.640486 5.04523ZM1.10122 3.17704L0.923016 3.08624L0.923016 3.08624L1.10122 3.17704ZM3.17704 1.10122L3.08624 0.923016L3.08624 0.923016L3.17704 1.10122ZM5.04523 0.640486L5.02895 0.44115L5.02895 0.44115L5.04523 0.640486ZM7.70042 0.583496L7.70042 0.783496H7.70042V0.583496ZM3.85803 2.43773L3.94883 2.61593L3.94883 2.61593L3.85803 2.43773ZM5.16738 2.1355L5.18367 2.33484L5.18367 2.33484L5.16738 2.1355ZM2.43773 3.85803L2.61593 3.94883L2.61593 3.94883L2.43773 3.85803ZM2.1355 5.16738L2.33484 5.18367L2.33484 5.18367L2.1355 5.16738ZM2.1355 10.8329L2.33484 10.8167L2.33484 10.8167L2.1355 10.8329ZM2.43773 12.1423L2.25953 12.2331L2.25953 12.2331L2.43773 12.1423ZM3.85803 13.5626L3.76723 13.7408L3.76723 13.7408L3.85803 13.5626ZM5.16738 13.8648L5.18367 13.6655L5.18367 13.6655L5.16738 13.8648ZM9.91683 13.8364L10.1168 13.8364L10.1168 13.8364L9.91683 13.8364ZM9.94657 12.4921L10.1459 12.5084L10.1459 12.5084L9.94657 12.4921ZM10.2166 11.4183L10.0384 11.3275L10.0384 11.3275L10.2166 11.4183ZM11.4184 10.2165L11.5092 10.3947L11.5092 10.3947L11.4184 10.2165ZM12.4922 9.94655L12.5084 10.1459L12.5084 10.1459L12.4922 9.94655ZM13.8364 9.91681L13.8364 10.1168H13.8364V9.91681ZM13.8648 5.16738L13.6655 5.18367L13.6655 5.18367L13.8648 5.16738ZM13.5626 3.85803L13.7408 3.76723L13.7408 3.76723L13.5626 3.85803ZM12.1423 2.43773L12.2331 2.25953L12.2331 2.25953L12.1423 2.43773ZM10.8329 2.1355L10.8167 2.33484L10.8167 2.33484L10.8329 2.1355ZM12.5135 13.0861L12.3799 12.9372L12.3799 12.9372L12.5135 13.0861ZM11.4416 12.6143L11.2423 12.598L11.2423 12.598L11.4416 12.6143ZM11.5531 12.0993L11.7313 12.1901L11.7313 12.1901L11.5531 12.0993ZM12.0993 11.5531L12.1901 11.7313L12.1901 11.7313L12.0993 11.5531ZM12.6143 11.4416L12.598 11.2422L12.6143 11.4416ZM13.0861 12.5135L12.9372 12.3799L12.9372 12.3799L13.0861 12.5135ZM13.503 11.9304L13.6775 12.0281L13.503 11.9304ZM11.9304 13.5029L12.0281 13.6775L11.9304 13.5029ZM11.4197 13.1703L11.2197 13.1676L11.4197 13.1703ZM11.5135 13.6216L11.6159 13.4498L11.5135 13.6216ZM7.73351 0.383498L7.70051 0.383496L7.70049 0.783496L7.73349 0.783498L7.73351 0.383498ZM8.26683 0.383498H7.7335V0.783498H8.26683V0.383498ZM8.29982 0.383496L8.26682 0.383498L8.26685 0.783498L8.29985 0.783496L8.29982 0.383496ZM8.29992 0.383496H8.29983V0.783496H8.29992V0.383496ZM10.9714 0.44115C10.2638 0.383337 9.38892 0.383492 8.29992 0.383496L8.29992 0.783496C9.39512 0.783492 10.2512 0.783641 10.9388 0.839821L10.9714 0.44115ZM12.9141 0.923016C12.33 0.625427 11.6972 0.500449 10.9714 0.44115L10.9388 0.839821C11.6398 0.897095 12.2142 1.01533 12.7325 1.27942L12.9141 0.923016ZM15.0773 3.08624C14.6027 2.15484 13.8455 1.39759 12.9141 0.923016L12.7325 1.27942C13.5886 1.71564 14.2847 2.4117 14.7209 3.26784L15.0773 3.08624ZM15.5592 5.02895C15.4999 4.30316 15.3749 3.6703 15.0773 3.08624L14.7209 3.26784C14.985 3.78614 15.1032 4.36053 15.1605 5.06152L15.5592 5.02895ZM15.6168 7.70042C15.6168 6.61141 15.617 5.73654 15.5592 5.02895L15.1605 5.06152C15.2167 5.74914 15.2168 6.60521 15.2168 7.70042L15.6168 7.70042ZM15.6168 7.70044V7.70042H15.2168V7.70044H15.6168ZM15.6168 7.70045V7.70044H15.2168V7.70045H15.6168ZM15.6168 7.70046V7.70045H15.2168V7.70046H15.6168ZM15.6168 7.70048V7.70046H15.2168V7.70048H15.6168ZM15.6168 7.7335V7.70048H15.2168V7.7335H15.6168ZM15.6168 10.1145V7.7335H15.2168V10.1145H15.6168ZM15.6168 10.1361V10.1145H15.2168V10.1361H15.6168ZM15.6168 10.1361V10.1361H15.2168V10.1361H15.6168ZM15.6168 10.1361V10.1361H15.2168V10.1361H15.6168ZM15.6168 10.1361V10.1361H15.2168V10.1361H15.6168ZM15.6168 10.1361V10.1361H15.2168V10.1361H15.6168ZM15.6096 10.6116C15.6169 10.4762 15.6168 10.3388 15.6168 10.1361L15.2168 10.1361C15.2168 10.3421 15.2168 10.4676 15.2101 10.5899L15.6096 10.6116ZM14.3516 13.6487C15.1046 12.8092 15.5484 11.7377 15.6096 10.6116L15.2101 10.5899C15.154 11.625 14.746 12.6099 14.0538 13.3816L14.3516 13.6487ZM14.0205 13.99C14.1638 13.8467 14.261 13.7496 14.3516 13.6487L14.0538 13.3816C13.972 13.4727 13.8833 13.5615 13.7377 13.7071L14.0205 13.99ZM14.0052 14.0052L14.0205 13.99L13.7377 13.7071L13.7224 13.7224L14.0052 14.0052ZM13.99 14.0205L14.0052 14.0052L13.7224 13.7224L13.7071 13.7377L13.99 14.0205ZM13.6487 14.3516C13.7496 14.261 13.8467 14.1638 13.99 14.0205L13.7071 13.7377C13.5615 13.8833 13.4727 13.972 13.3816 14.0538L13.6487 14.3516ZM10.6116 15.6096C11.7377 15.5484 12.8092 15.1046 13.6487 14.3516L13.3816 14.0538C12.6099 14.746 11.625 15.154 10.5899 15.2101L10.6116 15.6096ZM10.1361 15.6168C10.3388 15.6168 10.4762 15.6169 10.6116 15.6096L10.5899 15.2101C10.4676 15.2168 10.3421 15.2168 10.1361 15.2168L10.1361 15.6168ZM10.1361 15.6168H10.1361V15.2168H10.1361V15.6168ZM10.1361 15.6168H10.1361V15.2168H10.1361V15.6168ZM10.1361 15.6168H10.1361V15.2168H10.1361V15.6168ZM10.1361 15.6168H10.1361V15.2168H10.1361V15.6168ZM10.1145 15.6168H10.1361V15.2168H10.1145V15.6168ZM7.7335 15.6168H10.1145V15.2168H7.7335V15.6168ZM7.70048 15.6168H7.7335V15.2168H7.70048V15.6168ZM7.70047 15.6168H7.70048V15.2168H7.70047V15.6168ZM7.70045 15.6168H7.70047V15.2168H7.70045V15.6168ZM7.70044 15.6168H7.70045V15.2168H7.70044V15.6168ZM7.70042 15.6168H7.70044V15.2168H7.70042V15.6168ZM5.02895 15.5592C5.73654 15.617 6.61141 15.6168 7.70043 15.6168L7.70042 15.2168C6.60522 15.2168 5.74914 15.2167 5.06152 15.1605L5.02895 15.5592ZM3.08624 15.0773C3.6703 15.3749 4.30316 15.4999 5.02895 15.5592L5.06152 15.1605C4.36053 15.1032 3.78614 14.985 3.26784 14.7209L3.08624 15.0773ZM0.923016 12.9141C1.39759 13.8455 2.15484 14.6027 3.08624 15.0773L3.26784 14.7209C2.4117 14.2847 1.71564 13.5886 1.27942 12.7325L0.923016 12.9141ZM0.44115 10.9714C0.500449 11.6972 0.625427 12.33 0.923016 12.9141L1.27942 12.7325C1.01533 12.2142 0.897095 11.6398 0.839821 10.9388L0.44115 10.9714ZM0.383496 8.29991C0.383492 9.38892 0.383337 10.2638 0.44115 10.9714L0.839821 10.9388C0.783641 10.2512 0.783492 9.39512 0.783496 8.29991L0.383496 8.29991ZM0.383496 8.29983V8.29991H0.783496V8.29983H0.383496ZM0.383498 8.26682L0.383496 8.29982L0.783496 8.29984L0.783498 8.26684L0.383498 8.26682ZM0.383498 7.73349V8.26683H0.783498V7.73349H0.383498ZM0.383496 7.70051L0.383498 7.73351L0.783498 7.73348L0.783496 7.70048L0.383496 7.70051ZM0.383496 7.70041V7.70049H0.783496V7.70041H0.383496ZM0.44115 5.02894C0.383337 5.73653 0.383492 6.61141 0.383496 7.70041L0.783496 7.70041C0.783492 6.60521 0.783641 5.74914 0.839821 5.06152L0.44115 5.02894ZM0.923016 3.08624C0.625427 3.6703 0.500449 4.30316 0.44115 5.02894L0.839821 5.06152C0.897095 4.36053 1.01533 3.78614 1.27942 3.26784L0.923016 3.08624ZM3.08624 0.923016C2.15484 1.39759 1.39759 2.15484 0.923016 3.08624L1.27942 3.26784C1.71564 2.4117 2.4117 1.71564 3.26784 1.27942L3.08624 0.923016ZM5.02895 0.44115C4.30316 0.500449 3.6703 0.625427 3.08624 0.923016L3.26784 1.27942C3.78614 1.01533 4.36053 0.897095 5.06152 0.839821L5.02895 0.44115ZM7.70042 0.383496C6.61141 0.383492 5.73653 0.383337 5.02895 0.44115L5.06152 0.839821C5.74914 0.783641 6.60521 0.783492 7.70042 0.783496L7.70042 0.383496ZM7.7005 0.383496H7.70042V0.783496H7.7005V0.383496ZM3.94883 2.61593C4.22038 2.47756 4.57536 2.38454 5.18367 2.33484L5.15109 1.93617C4.51814 1.98788 4.10462 2.08762 3.76723 2.25953L3.94883 2.61593ZM2.61593 3.94883C2.90834 3.37493 3.37493 2.90834 3.94883 2.61593L3.76723 2.25953C3.11807 2.59029 2.59029 3.11807 2.25953 3.76723L2.61593 3.94883ZM2.33484 5.18367C2.38454 4.57536 2.47756 4.22038 2.61593 3.94883L2.25953 3.76723C2.08762 4.10462 1.98788 4.51814 1.93617 5.15109L2.33484 5.18367ZM2.2835 7.73349C2.2835 6.59767 2.28424 5.803 2.33484 5.18367L1.93617 5.15109C1.88392 5.79052 1.8835 6.60436 1.8835 7.73349H2.2835ZM2.2835 8.26683V7.73349H1.8835V8.26683H2.2835ZM2.33484 10.8167C2.28424 10.1973 2.2835 9.40266 2.2835 8.26683H1.8835C1.8835 9.39596 1.88392 10.2098 1.93617 10.8492L2.33484 10.8167ZM2.61593 12.0515C2.47756 11.7799 2.38454 11.425 2.33484 10.8167L1.93617 10.8492C1.98788 11.4822 2.08762 11.8957 2.25953 12.2331L2.61593 12.0515ZM3.94883 13.3844C3.37493 13.092 2.90834 12.6254 2.61593 12.0515L2.25953 12.2331C2.59029 12.8823 3.11807 13.41 3.76723 13.7408L3.94883 13.3844ZM5.18367 13.6655C4.57536 13.6158 4.22038 13.5228 3.94883 13.3844L3.76723 13.7408C4.10462 13.9127 4.51814 14.0124 5.15109 14.0642L5.18367 13.6655ZM7.7335 13.7168C6.59767 13.7168 5.803 13.7161 5.18367 13.6655L5.15109 14.0642C5.79052 14.1164 6.60437 14.1168 7.7335 14.1168V13.7168ZM9.86681 13.7168H7.7335V14.1168H9.86681V13.7168ZM9.71683 13.8364V13.8668H10.1168V13.8364H9.71683ZM9.74723 12.4759C9.71666 12.85 9.71682 13.3051 9.71683 13.8364L10.1168 13.8364C10.1168 13.2993 10.117 12.8627 10.1459 12.5084L9.74723 12.4759ZM10.0384 11.3275C9.84977 11.6977 9.77929 12.0835 9.74723 12.4759L10.1459 12.5084C10.1759 12.141 10.2397 11.8135 10.3948 11.5091L10.0384 11.3275ZM11.3276 10.0383C10.7725 10.3212 10.3212 10.7725 10.0384 11.3275L10.3948 11.5091C10.6392 11.0293 11.0293 10.6392 11.5092 10.3947L11.3276 10.0383ZM12.4759 9.74721C12.0836 9.77927 11.6977 9.84975 11.3276 10.0383L11.5092 10.3947C11.8136 10.2396 12.141 10.1759 12.5084 10.1459L12.4759 9.74721ZM13.8364 9.71681C13.3052 9.7168 12.85 9.71664 12.4759 9.74721L12.5084 10.1459C12.8627 10.1169 13.2993 10.1168 13.8364 10.1168L13.8364 9.71681ZM13.8668 9.71681H13.8364V10.1168H13.8668V9.71681ZM13.7168 7.7335V9.86681H14.1168V7.7335H13.7168ZM13.6655 5.18367C13.7161 5.803 13.7168 6.59767 13.7168 7.7335H14.1168C14.1168 6.60437 14.1164 5.79052 14.0642 5.15109L13.6655 5.18367ZM13.3844 3.94883C13.5228 4.22038 13.6158 4.57536 13.6655 5.18367L14.0642 5.15109C14.0124 4.51814 13.9127 4.10462 13.7408 3.76723L13.3844 3.94883ZM12.0515 2.61593C12.6254 2.90834 13.092 3.37493 13.3844 3.94883L13.7408 3.76723C13.41 3.11807 12.8823 2.59029 12.2331 2.25953L12.0515 2.61593ZM10.8167 2.33484C11.425 2.38454 11.7799 2.47756 12.0515 2.61593L12.2331 2.25953C11.8957 2.08762 11.4822 1.98788 10.8492 1.93617L10.8167 2.33484ZM8.26683 2.2835C9.40266 2.2835 10.1973 2.28424 10.8167 2.33484L10.8492 1.93617C10.2098 1.88392 9.39596 1.8835 8.26683 1.8835V2.2835ZM7.7335 2.2835H8.26683V1.8835H7.7335V2.2835ZM5.18367 2.33484C5.803 2.28424 6.59767 2.2835 7.7335 2.2835V1.8835C6.60437 1.8835 5.79052 1.88392 5.15109 1.93617L5.18367 2.33484ZM12.0281 13.6775C12.2487 13.554 12.4565 13.4059 12.647 13.235L12.3799 12.9372C12.2115 13.0884 12.0278 13.2193 11.8328 13.3284L12.0281 13.6775ZM11.2423 12.598C11.229 12.7606 11.2227 12.9463 11.2197 13.1676L11.6196 13.173C11.6226 12.9551 11.6287 12.7798 11.6409 12.6306L11.2423 12.598ZM11.3749 12.0085C11.3119 12.132 11.2667 12.2986 11.2423 12.598L11.6409 12.6306C11.6634 12.3557 11.7019 12.2477 11.7313 12.1901L11.3749 12.0085ZM12.0085 11.3749C11.7357 11.5139 11.5139 11.7357 11.3749 12.0085L11.7313 12.1901C11.8319 11.9926 11.9926 11.8319 12.1901 11.7313L12.0085 11.3749ZM12.598 11.2422C12.2986 11.2667 12.1321 11.3119 12.0085 11.3749L12.1901 11.7313C12.2477 11.7019 12.3557 11.6634 12.6306 11.6409L12.598 11.2422ZM13.1676 11.2197C12.9463 11.2227 12.7606 11.2289 12.598 11.2422L12.6306 11.6409C12.7799 11.6287 12.9551 11.6226 13.173 11.6196L13.1676 11.2197ZM13.235 12.647C13.4059 12.4565 13.554 12.2487 13.6775 12.0281L13.3284 11.8328C13.2193 12.0278 13.0884 12.2114 12.9372 12.3799L13.235 12.647ZM12.9446 12.9446C13.1077 12.7815 13.1748 12.7141 13.235 12.647L12.9372 12.3799C12.886 12.437 12.8281 12.4954 12.6617 12.6617L12.9446 12.9446ZM12.647 13.235C12.7141 13.1748 12.7815 13.1077 12.9446 12.9446L12.6617 12.6617C12.4954 12.8281 12.437 12.886 12.3799 12.9372L12.647 13.235ZM4.11683 4.66683C4.11683 4.36307 4.36307 4.11683 4.66683 4.11683V3.71683C4.14216 3.71683 3.71683 4.14216 3.71683 4.66683H4.11683ZM4.66683 5.21683C4.36307 5.21683 4.11683 4.97059 4.11683 4.66683H3.71683C3.71683 5.1915 4.14216 5.61683 4.66683 5.61683V5.21683ZM10.0002 5.21683H4.66683V5.61683H10.0002V5.21683ZM10.5502 4.66683C10.5502 4.97059 10.3039 5.21683 10.0002 5.21683V5.61683C10.5248 5.61683 10.9502 5.1915 10.9502 4.66683H10.5502ZM10.0002 4.11683C10.3039 4.11683 10.5502 4.36307 10.5502 4.66683H10.9502C10.9502 4.14216 10.5248 3.71683 10.0002 3.71683V4.11683ZM4.66683 4.11683H10.0002V3.71683H4.66683V4.11683ZM4.66683 6.3835C4.14216 6.3835 3.71683 6.80883 3.71683 7.3335H4.11683C4.11683 7.02974 4.36307 6.7835 4.66683 6.7835V6.3835ZM8.66683 6.3835H4.66683V6.7835H8.66683V6.3835ZM9.61683 7.3335C9.61683 6.80883 9.1915 6.3835 8.66683 6.3835V6.7835C8.97059 6.7835 9.21683 7.02974 9.21683 7.3335H9.61683ZM8.66683 8.2835C9.1915 8.2835 9.61683 7.85817 9.61683 7.3335H9.21683C9.21683 7.63725 8.97059 7.8835 8.66683 7.8835V8.2835ZM4.66683 8.2835H8.66683V7.8835H4.66683V8.2835ZM3.71683 7.3335C3.71683 7.85817 4.14216 8.2835 4.66683 8.2835V7.8835C4.36307 7.8835 4.11683 7.63725 4.11683 7.3335H3.71683ZM4.11683 10.0002C4.11683 9.69641 4.36307 9.45016 4.66683 9.45016V9.05016C4.14216 9.05016 3.71683 9.47549 3.71683 10.0002H4.11683ZM4.66683 10.5502C4.36307 10.5502 4.11683 10.3039 4.11683 10.0002H3.71683C3.71683 10.5248 4.14216 10.9502 4.66683 10.9502V10.5502ZM6.00016 10.5502H4.66683V10.9502H6.00016V10.5502ZM6.55016 10.0002C6.55016 10.3039 6.30392 10.5502 6.00016 10.5502V10.9502C6.52484 10.9502 6.95016 10.5248 6.95016 10.0002H6.55016ZM6.00016 9.45016C6.30392 9.45016 6.55016 9.69641 6.55016 10.0002H6.95016C6.95016 9.47549 6.52484 9.05016 6.00016 9.05016V9.45016ZM4.66683 9.45016H6.00016V9.05016H4.66683V9.45016ZM13.173 11.6196C13.3114 11.6177 13.3889 11.6174 13.4406 11.6256C13.4824 11.6322 13.4626 11.6372 13.4498 11.6158L13.7935 11.4112C13.7216 11.2905 13.6069 11.2469 13.5031 11.2305C13.4094 11.2156 13.2907 11.218 13.1676 11.2197L13.173 11.6196ZM13.6775 12.0281C13.7328 11.9292 13.7887 11.831 13.8182 11.7442C13.8521 11.6447 13.8629 11.5277 13.7935 11.4112L13.4498 11.6158C13.4478 11.6125 13.4451 11.6049 13.4448 11.5973C13.4446 11.5926 13.4459 11.5967 13.4396 11.6153C13.4246 11.6592 13.3916 11.7198 13.3284 11.8328L13.6775 12.0281ZM11.8328 13.3284C11.7199 13.3916 11.6592 13.4246 11.6153 13.4396C11.5968 13.4459 11.5927 13.4446 11.5974 13.4448C11.6049 13.445 11.6125 13.4478 11.6159 13.4498L11.4112 13.7935C11.5277 13.8629 11.6447 13.8521 11.7442 13.8182C11.831 13.7887 11.9292 13.7328 12.0281 13.6775L11.8328 13.3284ZM11.2197 13.1676C11.218 13.2907 11.2157 13.4094 11.2305 13.5031C11.2469 13.6069 11.2906 13.7216 11.4112 13.7935L11.6159 13.4498C11.6373 13.4625 11.6322 13.4824 11.6256 13.4406C11.6174 13.3889 11.6177 13.3114 11.6196 13.173L11.2197 13.1676ZM13.8668 10.1168C14.0049 10.1168 14.1168 10.0049 14.1168 9.86681H13.7168C13.7168 9.78397 13.784 9.71681 13.8668 9.71681V10.1168ZM9.86681 14.1168C10.0049 14.1168 10.1168 14.0049 10.1168 13.8668H9.71683C9.71683 13.784 9.78398 13.7168 9.86681 13.7168V14.1168Z" fill="url(#paint1_linear_488_497)"/>
<defs>
<linearGradient id="paint0_linear_488_497" x1="8.04372" y1="18.4385" x2="8.04372" y2="2.00036" gradientUnits="userSpaceOnUse">
<stop stop-color="#FDA700"/>
<stop offset="1" stop-color="#FFDE00"/>
</linearGradient>
<linearGradient id="paint1_linear_488_497" x1="8.04372" y1="18.4385" x2="8.04372" y2="2.00036" gradientUnits="userSpaceOnUse">
<stop stop-color="#FDA700"/>
<stop offset="1" stop-color="#FFDE00"/>
</linearGradient>
</defs>
</svg>
