<svg width="16" height="16" viewBox="0 0 16 16" fill="none" xmlns="http://www.w3.org/2000/svg">
<path fill-rule="evenodd" clip-rule="evenodd" d="M4.09501 2.72017C4.52907 2.00436 5.30639 1.5 6.19672 1.5H9.46994C10.3603 1.5 11.1376 2.00436 11.5717 2.72017C11.704 2.93835 11.852 3.16745 12.0047 3.37689C12.0777 3.47709 12.2203 3.55714 12.4181 3.55714H12.4998C13.9727 3.55714 15.1667 4.75112 15.1667 6.22381V11.5C15.1667 12.9728 13.9728 14.1667 12.5 14.1667H3.16667C1.69391 14.1667 0.5 12.9728 0.5 11.5V6.22381C0.5 4.75112 1.69368 3.55714 3.16651 3.55714H3.24825C3.44608 3.55714 3.58898 3.47709 3.66201 3.37689C3.81462 3.16745 3.96271 2.93835 4.09501 2.72017ZM6.19672 2.83333C5.82449 2.83333 5.45571 3.04773 5.23511 3.41151C5.09011 3.65064 4.92093 3.91326 4.73959 4.16211C4.37371 4.66423 3.79602 4.89048 3.24857 4.89048H3.16683C2.43052 4.89048 1.83333 5.48736 1.83333 6.22381V11.5C1.83333 12.2364 2.43029 12.8333 3.16667 12.8333H12.5C13.2364 12.8333 13.8333 12.2364 13.8333 11.5V6.22381C13.8333 5.48736 13.2365 4.89048 12.5002 4.89048H12.4184C11.871 4.89048 11.293 4.66423 10.9271 4.16211C10.7457 3.91326 10.5766 3.65064 10.4316 3.41151C10.211 3.04773 9.84218 2.83333 9.46994 2.83333H6.19672ZM7.83333 6.16667C6.72876 6.16667 5.83333 7.0621 5.83333 8.16667C5.83333 9.27124 6.72876 10.1667 7.83333 10.1667C8.9379 10.1667 9.83333 9.27124 9.83333 8.16667C9.83333 7.0621 8.9379 6.16667 7.83333 6.16667ZM4.5 8.16667C4.5 6.32572 5.99238 4.83333 7.83333 4.83333C9.67428 4.83333 11.1667 6.32572 11.1667 8.16667C11.1667 10.0076 9.67428 11.5 7.83333 11.5C5.99238 11.5 4.5 10.0076 4.5 8.16667Z" fill="url(#paint0_linear_497_429)" stroke="url(#paint1_linear_497_429)" stroke-width="0.5"/>
<defs>
<linearGradient id="paint0_linear_497_429" x1="0.5" y1="7.83333" x2="15.1667" y2="7.83333" gradientUnits="userSpaceOnUse">
<stop stop-color="#FFC152"/>
<stop offset="1" stop-color="#FF5F5F"/>
</linearGradient>
<linearGradient id="paint1_linear_497_429" x1="0.5" y1="7.83333" x2="15.1667" y2="7.83333" gradientUnits="userSpaceOnUse">
<stop stop-color="#FFC152"/>
<stop offset="1" stop-color="#FF5F5F"/>
</linearGradient>
</defs>
</svg>
