<svg width="16" height="16" viewBox="0 0 16 16" fill="none" xmlns="http://www.w3.org/2000/svg">
<path fill-rule="evenodd" clip-rule="evenodd" d="M1.75 3.11508C1.75 2.52355 1.89672 2.22021 2.05844 2.05888C2.22051 1.89722 2.52612 1.75 3.12211 1.75H5.87663C6.49639 1.75 6.80713 1.90025 6.96598 2.0591C7.12125 2.21437 7.26365 2.51045 7.24896 3.10356L7.24873 3.12212V5.17082C7.24873 5.25708 7.1932 5.33308 7.11247 5.36349C7.00819 5.40278 6.90653 5.44685 6.80778 5.49598C6.68023 5.55944 6.51614 5.48453 6.436 5.36674C6.31003 5.18163 6.09765 5.06006 5.85686 5.06006C5.8188 5.06006 5.78004 5.05661 5.74092 5.04953C5.63029 5.0295 5.59095 4.9028 5.63607 4.79983C5.68139 4.69639 5.72079 4.58977 5.75387 4.48047C5.76763 4.435 5.80906 4.40312 5.85657 4.40312V4.40312C6.27078 4.40312 6.60657 4.06734 6.60657 3.65313C6.60657 3.23891 6.27078 2.90313 5.85657 2.90313H5.2578C5.18023 2.90313 5.11166 2.85669 5.06657 2.79357C4.93963 2.61585 4.73163 2.5 4.49658 2.5C4.26153 2.5 4.05354 2.61585 3.92659 2.79357C3.8815 2.85669 3.81293 2.90313 3.73536 2.90313H3.1499C2.73569 2.90313 2.3999 3.23891 2.3999 3.65313C2.3999 4.06734 2.73569 4.40312 3.1499 4.40312H4.07812C4.16245 4.40312 4.213 4.49461 4.16008 4.56027V4.56027C4.15658 4.56461 4.15275 4.56858 4.14866 4.57235C4.1189 4.59976 4.09199 4.6293 4.06799 4.66055C4.0617 4.66874 4.05503 4.67663 4.04764 4.68383C3.80582 4.91943 3.48442 5.0601 3.14355 5.0601C2.75696 5.0601 2.44355 5.3735 2.44355 5.7601C2.44355 6.1467 2.75696 6.4601 3.14355 6.4601C3.62894 6.4601 4.08126 6.33096 4.47269 6.10589C4.54469 6.06449 4.63423 6.06737 4.7039 6.11259C4.90321 6.24195 5.1233 6.34097 5.35996 6.3996C5.50945 6.43664 5.5952 6.61504 5.52374 6.75148C5.46283 6.86778 5.40919 6.98827 5.36237 7.11248C5.33195 7.19321 5.25596 7.24875 5.16969 7.24875H3.12211L3.10726 7.24889C2.51361 7.26065 2.2162 7.11733 2.05976 6.9605C1.9001 6.80044 1.75 6.48903 1.75 5.86959V3.11508ZM8.74874 3.131V4.9C8.74874 5.01046 8.83828 5.1 8.94874 5.1H12.2699C13.334 5.1 14.3017 5.35638 14.9888 6.04346C15.6777 6.73232 15.9224 7.69124 15.8984 8.73914V12.2595C15.9222 13.3223 15.6813 14.2963 14.9888 14.9888C14.2963 15.6814 13.3223 15.9222 12.2595 15.8984H8.73699C7.68885 15.9176 6.73061 15.6698 6.04266 14.9801C5.35655 14.2923 5.1 13.3254 5.1 12.2609V8.94874C5.1 8.83829 5.01046 8.74874 4.9 8.74874H3.12923C2.30643 8.76374 1.54582 8.56925 0.997779 8.01984C0.451243 7.47193 0.25 6.70471 0.25 5.86959V3.11508C0.25 2.29423 0.454626 1.54003 0.999101 0.996905C1.54323 0.454129 2.29867 0.25 3.12211 0.25H5.87663C6.71142 0.25 7.4793 0.451102 8.02665 0.998448C8.57543 1.54723 8.76746 2.30839 8.74874 3.131ZM10.4999 7.55C10.7458 7.55 10.9707 7.68886 11.081 7.90876L12.6458 11.0312C12.6508 11.0411 12.6567 11.0506 12.663 11.0598C12.6975 11.1096 12.7253 11.1644 12.7449 11.223C12.7484 11.2336 12.7525 11.244 12.7575 11.254L13.0499 11.8375C13.2108 12.1584 13.081 12.549 12.7601 12.7098C12.4391 12.8707 12.0486 12.7409 11.8877 12.42L11.7724 12.1899C11.7385 12.1222 11.6693 12.0795 11.5936 12.0795H9.4061C9.33041 12.0795 9.26121 12.1222 9.2273 12.1899L9.11197 12.42C8.95113 12.7409 8.56057 12.8707 8.23964 12.7098C7.9187 12.549 7.78892 12.1584 7.94977 11.8375L9.91875 7.90876C10.029 7.68886 10.2539 7.55 10.4999 7.55ZM10.3211 10.0075C10.3948 9.86029 10.6049 9.8603 10.6787 10.0075L10.9204 10.4899C10.9871 10.6229 10.8904 10.7795 10.7416 10.7795H10.2581C10.1093 10.7795 10.0126 10.6229 10.0793 10.4899L10.3211 10.0075ZM7.31545 7.31591C7.09112 7.53969 6.9 7.94902 6.9 8.71939V12.2609C6.9 13.0666 7.09518 13.4865 7.31704 13.7089C7.53503 13.9274 7.93739 14.1139 8.71061 14.0986L8.72842 14.0984H12.2699L12.2917 14.0986C13.0946 14.118 13.503 13.929 13.716 13.716C13.929 13.503 14.118 13.0946 14.0986 12.2917L14.0984 12.2699V8.72844L14.0986 8.70617C14.1178 7.93361 13.9326 7.53284 13.716 7.31625C13.4951 7.09535 13.076 6.9 12.2699 6.9H8.72842C7.95241 6.9 7.5402 7.09172 7.31545 7.31591Z" fill="url(#paint0_linear_596_209)"/>
<defs>
<linearGradient id="paint0_linear_596_209" x1="0.25" y1="7.99999" x2="15.75" y2="7.99999" gradientUnits="userSpaceOnUse">
<stop stop-color="#FFC152"/>
<stop offset="1" stop-color="#FF5F5F"/>
</linearGradient>
</defs>
</svg>
