<svg width="128" height="128" viewBox="0 0 128 128" fill="none" xmlns="http://www.w3.org/2000/svg">
<path fill-rule="evenodd" clip-rule="evenodd" d="M12.9211 12.5703C9.0996 12.5703 6 15.6699 6 19.4914V38.0038V41.7457V45.4877V108.509C6 112.33 9.0996 115.43 12.9211 115.43H115.079C118.901 115.43 122 112.33 122 108.509V45.4877V41.7457V38.0038V19.4914C122 15.6699 118.901 12.5703 115.079 12.5703H105.541H102.925H101.799H99.1826H92.8246H90.2081H89.0827H86.4662H80.1079H77.4915H76.366H73.7495H12.9211ZM112.645 38.0038C113.679 38.0038 114.516 37.1661 114.516 36.1328V21.9252C114.516 20.8918 113.679 20.0542 112.645 20.0542H111.154C110.12 20.0542 109.283 20.8918 109.283 21.9252V25.8498C109.283 29.6713 106.184 32.771 102.362 32.771C101.068 32.771 99.8552 32.4151 98.8187 31.7959C97.4101 30.9544 94.5974 30.9544 93.1888 31.7959C92.1522 32.4151 90.9403 32.771 89.6454 32.771C88.3506 32.771 87.1386 32.4151 86.102 31.7959C84.6934 30.9544 81.8807 30.9544 80.4721 31.7959C79.4355 32.4151 78.2236 32.771 76.9287 32.771C73.1071 32.771 70.0076 29.6713 70.0076 25.8498V21.9252C70.0076 20.8918 69.1699 20.0542 68.1366 20.0542H15.3548C14.3215 20.0542 13.4839 20.8918 13.4839 21.9252V36.1328C13.4839 37.1661 14.3215 38.0038 15.3548 38.0038H60.2581H112.645ZM114.516 47.3586C114.516 46.3253 113.679 45.4877 112.645 45.4877H60.2581H15.3548C14.3215 45.4877 13.4839 46.3253 13.4839 47.3586V106.075C13.4839 107.108 14.3215 107.946 15.3548 107.946H112.645C113.679 107.946 114.516 107.108 114.516 106.075V47.3586Z" fill="url(#paint0_linear_1005_47)" stroke="url(#paint1_linear_1005_47)" stroke-width="3"/>
<path d="M77.6619 67.5899L77.6621 67.59C80.5251 69.308 82.2782 72.4023 82.2782 75.7429C82.2782 79.0834 80.5252 82.1779 77.6619 83.8959L74.7053 78.9684L77.6619 83.8959L60.1222 94.4197C60.122 94.4198 60.1217 94.42 60.1215 94.4201C58.6176 95.3226 56.9229 95.7752 55.2297 95.7752C53.6164 95.7752 51.9996 95.3644 50.5459 94.5414L77.6619 67.5899ZM77.6619 67.5899L60.1217 57.0658C60.1216 57.0658 60.1215 57.0657 60.1215 57.0657C57.1847 55.3036 53.5268 55.2569 50.5456 56.9444L50.5452 56.9446M77.6619 67.5899L50.5452 56.9446M50.5452 56.9446C47.5638 58.6325 45.7217 61.7938 45.7217 65.2187M50.5452 56.9446L45.7217 65.2187M45.7217 65.2187V86.2671M45.7217 65.2187V86.2671M45.7217 86.2671C45.7217 89.692 47.5638 92.8533 50.5453 94.5411L45.7217 86.2671Z" stroke="url(#paint2_linear_1005_47)" stroke-width="12" stroke-linejoin="round"/>
<defs>
<linearGradient id="paint0_linear_1005_47" x1="6" y1="46.9934" x2="102.345" y2="110.164" gradientUnits="userSpaceOnUse">
<stop stop-color="#FD5900"/>
<stop offset="1" stop-color="#FFDE00"/>
</linearGradient>
<linearGradient id="paint1_linear_1005_47" x1="6" y1="46.9934" x2="102.345" y2="110.164" gradientUnits="userSpaceOnUse">
<stop stop-color="#FD5900"/>
<stop offset="1" stop-color="#FFDE00"/>
</linearGradient>
<linearGradient id="paint2_linear_1005_47" x1="51.7217" y1="71.1028" x2="74.8897" y2="82.889" gradientUnits="userSpaceOnUse">
<stop stop-color="#FD5900"/>
<stop offset="1" stop-color="#FFDE00"/>
</linearGradient>
</defs>
</svg>
