<svg width="16" height="16" viewBox="0 0 16 16" fill="none" xmlns="http://www.w3.org/2000/svg">
<path d="M5.9 15H10.1C13.6 15 15 13.6977 15 10.4419V5.55814C15 2.30233 13.6 1 10.1 1H5.9C2.4 1 1 2.30233 1 5.55814V10.4419C1 13.6977 2.4 15 5.9 15Z" stroke="url(#paint0_linear_644_143)" stroke-width="1.8" stroke-linecap="round" stroke-linejoin="round"/>
<path d="M7.72245 3.00042C7.72197 3.00018 7.72144 3.00005 7.7209 3.00005C7.47772 2.99774 7.24116 3.0793 7.05106 3.23101C6.86304 3.39016 6.77718 3.5878 6.72684 3.78619C6.62543 4.18443 6.65504 4.60045 6.75053 5.05939C6.85801 5.57889 7.16455 6.20242 7.41906 6.80377C7.43544 6.84247 7.43889 6.88539 7.42975 6.92641C7.30958 7.46545 7.27068 7.94725 7.07401 8.50519C6.90998 8.97565 6.70316 9.25655 6.50943 9.65759C6.48658 9.70489 6.44697 9.74235 6.39748 9.75995C5.94816 9.91976 5.4329 10.0255 5.08574 10.241C4.69045 10.4868 4.34402 10.7592 4.13823 11.1441C3.93097 11.5268 3.95317 12.0694 4.22928 12.4618C4.36623 12.6668 4.54536 12.8297 4.78446 12.9244C5.0243 13.0192 5.28412 13.0229 5.50249 12.9466C5.93775 12.7971 6.24717 12.4618 6.54252 12.0687C6.80289 11.7225 6.99301 11.1461 7.22418 10.6627C7.2471 10.6148 7.289 10.579 7.33902 10.5611C7.67279 10.4418 7.93148 10.3006 8.30058 10.2181C8.68029 10.1333 8.94488 10.1629 9.28482 10.1356C9.35001 10.1304 9.415 10.1544 9.45424 10.2068C9.59512 10.3946 9.72265 10.6415 9.87359 10.7725C10.2267 11.0783 10.6138 11.3225 11.0765 11.3499C11.5372 11.3794 11.9965 11.0941 12.252 10.6645C12.2547 10.6599 12.2597 10.6571 12.265 10.6571V10.6571C12.2733 10.6571 12.2801 10.6503 12.2801 10.642V10.6383C12.2801 10.6351 12.2809 10.6319 12.2825 10.6291C12.3937 10.4327 12.4703 10.2223 12.4652 9.98567C12.4607 9.74879 12.3393 9.50155 12.1876 9.3387C11.8841 9.013 11.4969 8.93157 11.0772 8.87605C10.7843 8.83835 10.3843 8.93047 10.0264 8.96193C9.96049 8.96771 9.89717 8.9377 9.85651 8.88556C9.54362 8.48439 9.23303 8.15862 8.94903 7.62801C8.7966 7.34117 8.74664 7.09388 8.62796 6.80785C8.61191 6.76916 8.60711 6.72657 8.6163 6.6857C8.72576 6.19904 8.92207 5.6674 8.94903 5.24593C8.98456 4.71296 8.96384 4.25402 8.81061 3.8343C8.73255 3.61022 8.59731 3.41043 8.41828 3.2547C8.22905 3.09757 7.99273 3.0082 7.74689 3.0008H7.72404C7.72349 3.0008 7.72294 3.00067 7.72245 3.00042V3.00042ZM8.11552 8.87531C8.167 8.72892 8.34416 8.69009 8.44167 8.81082C8.45075 8.82206 8.45984 8.8333 8.46892 8.84457C8.55786 8.95487 8.49112 9.10162 8.34944 9.10322C8.26059 9.10422 8.17115 9.10708 8.06963 9.12995V9.12995C8.02647 9.13859 7.99874 9.11989 8.01838 9.08049C8.05145 9.01413 8.08685 8.9557 8.11552 8.87531V8.87531ZM10.9373 9.98566C10.9373 9.98527 10.9377 9.98497 10.938 9.98503C11.1429 10.0124 11.2382 10.0483 11.2841 10.068C11.297 10.0735 11.3142 10.0896 11.3074 10.1019V10.1019C11.2164 10.2536 11.2038 10.244 11.1446 10.2403C11.1078 10.2381 10.9922 10.1797 10.8616 10.097C10.8243 10.0734 10.8432 9.99372 10.8869 9.98804C10.9063 9.98552 10.9236 9.98441 10.9366 9.9863C10.937 9.98635 10.9373 9.98605 10.9373 9.98566V9.98566ZM5.66386 11.1886C5.68498 11.1759 5.72067 11.2123 5.71174 11.2352C5.6881 11.2959 5.66515 11.3637 5.64017 11.3966C5.43093 11.6751 5.23694 11.8163 5.16841 11.8526C5.16013 11.8569 5.15959 11.8576 5.15947 11.8482C5.15947 11.8481 5.15947 11.848 5.15946 11.8479C5.15897 11.8404 5.15007 11.837 5.14257 11.837V11.837C5.13525 11.837 5.12839 11.8334 5.12417 11.8274C5.05608 11.7309 5.07922 11.771 5.13089 11.6741C5.18493 11.575 5.36036 11.3766 5.66386 11.1886V11.1886Z" fill="url(#paint1_linear_644_143)"/>
<defs>
<linearGradient id="paint0_linear_644_143" x1="8" y1="15" x2="8.02036" y2="0.124989" gradientUnits="userSpaceOnUse">
<stop stop-color="#DD2025"/>
<stop offset="0.9998" stop-color="#FF867E"/>
</linearGradient>
<linearGradient id="paint1_linear_644_143" x1="8.2327" y1="13" x2="8.24988" y2="2.375" gradientUnits="userSpaceOnUse">
<stop stop-color="#DD2025"/>
<stop offset="0.9998" stop-color="#FF867E"/>
</linearGradient>
</defs>
</svg>
