<svg width="16" height="16" viewBox="0 0 16 16" fill="none" xmlns="http://www.w3.org/2000/svg">
<path fill-rule="evenodd" clip-rule="evenodd" d="M5.4 0.435059H10.6C10.8209 0.435059 11 0.614145 11 0.835059V6.03506C11 6.25597 10.8209 6.43506 10.6 6.43506H5.4C5.17909 6.43506 5 6.25597 5 6.03506V0.835059C5 0.614145 5.17909 0.435059 5.4 0.435059ZM2.4 7C2.17909 7 2 7.17909 2 7.4V8.6C2 8.82091 2.17909 9 2.4 9H13.6C13.8209 9 14 8.82091 14 8.6V7.4C14 7.17909 13.8209 7 13.6 7H2.4ZM11 12.5654C11 10.9086 9.65685 9.56543 8 9.56543C6.34315 9.56543 5 10.9086 5 12.5654C5 14.2223 6.34315 15.5654 8 15.5654C9.65685 15.5654 11 14.2223 11 12.5654Z" fill="url(#paint0_linear_1012_577)"/>
<defs>
<linearGradient id="paint0_linear_1012_577" x1="1.82655" y1="0.58394" x2="17.1197" y2="13.0841" gradientUnits="userSpaceOnUse">
<stop stop-color="#F9D423"/>
<stop offset="0.515624" stop-color="#FF4E50"/>
<stop offset="0.991304" stop-color="#8A2387"/>
</linearGradient>
</defs>
</svg>
