<svg width="64" height="64" viewBox="0 0 64 64" fill="none" xmlns="http://www.w3.org/2000/svg">
<path d="M25.9811 42.3124C25.7832 42.7953 25.7649 43.3399 25.9251 43.8366C27.8099 49.6822 28.7427 52.5965 29.4919 55.4424C30.1033 57.7646 33.5061 57.7646 34.1174 55.4423C34.8667 52.5963 35.7995 49.6821 37.6844 43.8366C37.8446 43.3399 37.8262 42.7953 37.6283 42.3124L33.8503 33.0945C33.1004 31.2647 30.5091 31.2647 29.7592 33.0945L25.9811 42.3124Z" fill="url(#paint0_linear_919_19)"/>
<path d="M26.1775 5.24914C26.4833 4.49409 27.2166 4 28.0312 4H35.58C36.3947 4 37.1279 4.49409 37.4337 5.24914L58.497 57.2491C59.0296 58.564 58.0619 60 56.6433 60H51.4185C50.6179 60 49.8944 59.5226 49.5796 58.7865L33.6445 21.5282C32.9525 19.9102 30.6588 19.9102 29.9668 21.5282L14.0317 58.7865C13.7168 59.5226 12.9934 60 12.1928 60H6.96797C5.54932 60 4.58166 58.564 5.11427 57.2491L26.1775 5.24914Z" fill="url(#paint1_linear_919_19)"/>
<defs>
<linearGradient id="paint0_linear_919_19" x1="31.8047" y1="57.184" x2="31.8047" y2="31.7222" gradientUnits="userSpaceOnUse">
<stop stop-color="#5570FF"/>
<stop offset="1" stop-color="#4DD3FF"/>
</linearGradient>
<linearGradient id="paint1_linear_919_19" x1="14.0795" y1="53.3889" x2="64.5293" y2="9.67606" gradientUnits="userSpaceOnUse">
<stop stop-color="#FE0844"/>
<stop offset="1" stop-color="#FEB302"/>
</linearGradient>
</defs>
</svg>
