<svg width="16" height="16" viewBox="0 0 16 16" fill="none" xmlns="http://www.w3.org/2000/svg">
<path fill-rule="evenodd" clip-rule="evenodd" d="M3.84292 1.46331C4.19439 1.81478 4.19439 2.38463 3.84292 2.7361L2.0364 4.54262C1.68492 4.8941 1.11508 4.8941 0.763604 4.54262C0.412132 4.19115 0.412132 3.6213 0.763604 3.26983L2.57012 1.46331C2.9216 1.11184 3.49145 1.11184 3.84292 1.46331ZM2.90254 8.72398C2.90254 5.89533 5.19562 3.60225 8.02428 3.60225C10.8529 3.60225 13.146 5.89533 13.146 8.72398C13.146 11.5526 10.8529 13.8457 8.02428 13.8457C5.19562 13.8457 2.90254 11.5526 2.90254 8.72398ZM8.02428 1.80225C4.20151 1.80225 1.10254 4.90121 1.10254 8.72398C1.10254 12.5468 4.20151 15.6457 8.02428 15.6457C11.847 15.6457 14.946 12.5468 14.946 8.72398C14.946 4.90121 11.847 1.80225 8.02428 1.80225ZM8.92402 6.31504C8.92402 5.81798 8.52108 5.41504 8.02402 5.41504C7.52697 5.41504 7.12402 5.81798 7.12402 6.31504V8.72373C7.12402 9.02465 7.27441 9.30566 7.52479 9.47258L9.33131 10.6769C9.74489 10.9526 10.3037 10.8409 10.5794 10.4273C10.8551 10.0137 10.7434 9.45495 10.3298 9.17924L8.92402 8.24207V6.31504ZM12.2051 2.7361C11.8537 2.38463 11.8537 1.81478 12.2051 1.46331C12.5566 1.11184 13.1264 1.11184 13.4779 1.46331L15.2844 3.26983C15.6359 3.6213 15.6359 4.19115 15.2844 4.54262C14.933 4.8941 14.3631 4.8941 14.0117 4.54262L12.2051 2.7361Z" fill="url(#paint0_linear_556_210)"/>
<defs>
<linearGradient id="paint0_linear_556_210" x1="3.32151" y1="13.84" x2="12.2769" y2="2.64572" gradientUnits="userSpaceOnUse">
<stop stop-color="#FF405B"/>
<stop offset="1" stop-color="#FF8860"/>
</linearGradient>
</defs>
</svg>
