<svg width="128" height="128" viewBox="0 0 128 128" fill="none" xmlns="http://www.w3.org/2000/svg">
<path d="M19 11C16.7909 11 15 12.7909 15 15V113C15 115.209 16.7909 117 19 117H37.5C39.7091 117 41.5 115.209 41.5 113V41.5C41.5 39.2909 43.2909 37.5 45.5 37.5H55.1667C57.3758 37.5 59.1667 39.2909 59.1667 41.5V113C59.1667 115.209 60.9575 117 63.1667 117H108.167C110.376 117 112.167 115.209 112.167 113V94.5C112.167 92.2909 110.376 90.5 108.167 90.5H89.6667C87.4575 90.5 85.6667 88.7091 85.6667 86.5V15C85.6667 12.7909 83.8758 11 81.6667 11H19Z" fill="url(#paint0_linear_728_112)"/>
<defs>
<linearGradient id="paint0_linear_728_112" x1="107.765" y1="12.8218" x2="10.8188" y2="106.246" gradientUnits="userSpaceOnUse">
<stop stop-color="#D800BD"/>
<stop offset="0.408098" stop-color="#F92D7A"/>
<stop offset="0.590073" stop-color="#FF4A52"/>
<stop offset="1" stop-color="#FFB243"/>
</linearGradient>
</defs>
</svg>
