<svg width="16" height="16" viewBox="0 0 16 16" fill="none" xmlns="http://www.w3.org/2000/svg">
<path d="M6.17528 2.23391C6.8583 0.588695 9.1417 0.588695 9.82472 2.23392L10.3005 3.37987C10.5802 4.05363 11.1943 4.52072 11.9066 4.60143L13.2342 4.75188C14.9108 4.94188 15.6033 7.04761 14.3788 8.23243L13.2516 9.32313C12.756 9.80268 12.537 10.5089 12.672 11.1924L12.9441 12.5701C13.2886 14.314 11.4204 15.6307 9.94585 14.6832L9.05552 14.1111C8.41038 13.6966 7.58962 13.6966 6.94448 14.1111L6.05415 14.6832C4.5796 15.6307 2.71135 14.314 3.05585 12.5701L3.328 11.1924C3.46301 10.5089 3.24403 9.80268 2.74843 9.32313L1.62122 8.23243C0.396741 7.04761 1.08922 4.94188 2.76582 4.75188L4.09342 4.60143C4.8057 4.52072 5.41982 4.05363 5.69954 3.37987L6.17528 2.23391Z" stroke="url(#paint0_linear_591_99)" stroke-width="1.8" stroke-linecap="round" stroke-linejoin="round"/>
<defs>
<linearGradient id="paint0_linear_591_99" x1="8" y1="15" x2="8" y2="1" gradientUnits="userSpaceOnUse">
<stop stop-color="#A93AFF"/>
<stop offset="1" stop-color="#FF81FF"/>
</linearGradient>
</defs>
</svg>
