<svg width="16" height="16" viewBox="0 0 16 16" fill="none" xmlns="http://www.w3.org/2000/svg">
<path fill-rule="evenodd" clip-rule="evenodd" d="M9.5736 1.05872C9.57852 0.561684 9.17959 0.154771 8.68256 0.14985C8.18552 0.144928 7.77861 0.543863 7.77369 1.04089L7.77089 1.32411C7.7699 1.42349 7.69558 1.50569 7.59919 1.52987C7.04523 1.6688 6.61638 2.10374 6.47248 2.64763C6.44715 2.74335 6.36439 2.81631 6.26537 2.81631H6.00016C4.24473 2.81631 2.7818 3.16188 1.78043 4.16325C0.779071 5.16461 0.433496 6.62754 0.433496 8.38298V9.71631C0.433496 11.4717 0.779071 12.9347 1.78043 13.936C2.7818 14.9374 4.24473 15.283 6.00016 15.283H10.0002C11.7556 15.283 13.2185 14.9374 14.2199 13.936C15.2213 12.9347 15.5668 11.4717 15.5668 9.71631V8.38298C15.5668 6.62754 15.2213 5.16461 14.2199 4.16325C13.2185 3.16188 11.7556 2.81631 10.0002 2.81631H9.5924C9.4151 2.81631 9.31268 2.58897 9.3936 2.4312C9.50051 2.22274 9.56232 1.98764 9.56683 1.73952C9.56683 1.73951 9.56684 1.7395 9.56685 1.7395V1.7395C9.56686 1.7395 9.56686 1.73949 9.56686 1.73948L9.56694 1.73205L9.5736 1.05872ZM7.9642 4.61631C7.97178 4.61642 7.97937 4.61647 7.98698 4.61647H8.65365C8.65943 4.61647 8.6652 4.61642 8.67095 4.61631H10.0002C11.5781 4.61631 12.4485 4.9374 12.9471 5.43604C13.4457 5.93468 13.7668 6.80508 13.7668 8.38298V9.71631C13.7668 11.2942 13.4457 12.1646 12.9471 12.6632C12.4485 13.1619 11.5781 13.483 10.0002 13.483H6.00016C4.42226 13.483 3.55186 13.1619 3.05323 12.6632C2.55459 12.1646 2.2335 11.2942 2.2335 9.71631V8.38298C2.2335 6.80508 2.55459 5.93468 3.05323 5.43604C3.55186 4.9374 4.42226 4.61631 6.00016 4.61631H7.9642ZM11.3999 7.31641C11.3999 6.76412 10.9522 6.31641 10.3999 6.31641C9.84762 6.31641 9.3999 6.76412 9.3999 7.31641V7.32974C9.3999 7.88202 9.84762 8.32974 10.3999 8.32974C10.9522 8.32974 11.3999 7.88202 11.3999 7.32974V7.31641ZM6.91034 8.55328C7.20324 8.26039 7.20324 7.78551 6.91034 7.49262C6.61745 7.19973 6.14258 7.19973 5.84968 7.49262L5.50477 7.83754C5.42666 7.91564 5.30003 7.91564 5.22192 7.83753L4.89703 7.51264C4.60414 7.21975 4.12926 7.21975 3.83637 7.51264C3.54348 7.80553 3.54348 8.28041 3.83637 8.5733L4.16126 8.8982C4.23937 8.9763 4.23937 9.10293 4.16126 9.18104L3.81635 9.52595C3.52346 9.81885 3.52346 10.2937 3.81635 10.5866C4.10924 10.8795 4.58412 10.8795 4.87701 10.5866L5.22193 10.2417C5.30003 10.1636 5.42666 10.1636 5.50477 10.2417L5.8697 10.6066C6.1626 10.8995 6.63747 10.8995 6.93036 10.6066C7.22326 10.3137 7.22326 9.83887 6.93036 9.54597L6.56543 9.18104C6.48732 9.10293 6.48732 8.9763 6.56543 8.8982L6.91034 8.55328ZM8.02002 9.04981C8.02002 8.49752 8.46773 8.04981 9.02002 8.04981H9.02669C9.57897 8.04981 10.0267 8.49752 10.0267 9.04981C10.0267 9.60209 9.57897 10.0498 9.02669 10.0498H9.02002C8.46773 10.0498 8.02002 9.60209 8.02002 9.04981ZM12 8.04981C11.4477 8.04981 11 8.49752 11 9.04981C11 9.60209 11.4477 10.0498 12 10.0498H12.0067C12.559 10.0498 13.0067 9.60209 13.0067 9.04981C13.0067 8.49752 12.559 8.04981 12.0067 8.04981H12ZM10.5 9.71631C11.0523 9.71631 11.5 10.164 11.5 10.7163V10.7296C11.5 11.2819 11.0523 11.7296 10.5 11.7296C9.94771 11.7296 9.5 11.2819 9.5 10.7296V10.7163C9.5 10.164 9.94771 9.71631 10.5 9.71631Z" fill="url(#paint0_linear_562_381)"/>
<defs>
<linearGradient id="paint0_linear_562_381" x1="8.00016" y1="15.133" x2="8.00016" y2="0.299805" gradientUnits="userSpaceOnUse">
<stop stop-color="#FFA800"/>
<stop offset="1" stop-color="#FFF737"/>
</linearGradient>
</defs>
</svg>
