<svg width="128" height="128" viewBox="0 0 128 128" fill="none" xmlns="http://www.w3.org/2000/svg">
<path d="M106.687 40.4422C105.815 40.4418 105.051 39.8713 104.738 39.0569C99.7043 25.9611 84.9232 22.879 72.9329 22.7748C62.009 22.7748 53.9824 26.8617 48.8532 34.0697C43.7652 41.2306 40.4439 48.5682 40.4439 64.0324C40.4439 79.3612 43.6727 87.1192 48.5688 94.3731C53.4651 101.581 63.4388 105.145 71.4494 105.185C78.0997 105.218 85.4852 102.519 92.1926 99.8349C92.9498 99.532 93.4444 98.7976 93.4444 97.9821V78.2289C93.4444 77.1243 92.549 76.2289 91.4444 76.2289H83.6667C82.5621 76.2289 81.6667 75.3334 81.6667 74.2289V71.8865C81.6667 70.782 82.5621 69.8865 83.6667 69.8865H115C116.105 69.8865 117 70.782 117 71.8865V104.02C117 104.759 116.593 105.439 115.937 105.779C100.788 113.627 84.9184 116.934 69.1198 116.998C51.0409 116.998 36.8234 112.276 26.4654 102.833C16.1551 93.3891 11 80.4553 11 64.0318C11 47.5629 16.1552 34.6062 26.4654 25.1628C36.824 15.7217 51.0397 11 69.1186 11C84.0526 11.4873 97.0721 14.4409 109.843 19.3399C110.61 19.6341 111.112 20.3733 111.112 21.1948V38.4434C111.112 39.5484 110.216 40.444 109.111 40.4434L106.687 40.4422Z" fill="url(#paint0_linear_731_12)"/>
<defs>
<linearGradient id="paint0_linear_731_12" x1="63.9999" y1="116.998" x2="63.9999" y2="11" gradientUnits="userSpaceOnUse">
<stop stop-color="#02AA93"/>
<stop offset="1" stop-color="#67FF80"/>
</linearGradient>
</defs>
</svg>
