<svg width="128" height="128" viewBox="0 0 128 128" fill="none" xmlns="http://www.w3.org/2000/svg">
<path d="M72.0438 6.82061C58.717 4.55291 45.0167 7.01964 33.3177 13.7932C21.6187 20.5668 12.6584 31.2203 7.99007 43.9071C6.05741 51.177 5.45668 58.9443 6.52326 67.0159C9.99814 93.3232 33.4541 116.512 61.7409 112.244C80.9875 109.339 98.0013 91.865 94.3626 70.8675C93.1547 63.9046 89.4806 57.5908 84.0919 53.1277C78.7033 48.6646 71.2499 46.1192 63.4905 47.6768C58.4753 48.6823 57.6538 51.7725 54.4674 55.7679C51.2806 59.7638 49.9503 60.9206 51.3014 66.6819C52.1544 70.3189 54.1636 73.4558 57.1694 75.7413C60.1753 78.0267 64.6126 79.3441 68.9729 78.1307C71.668 77.3806 73.8812 75.8673 75.5511 73.5337C77.221 71.2001 76.2675 64.3572 75.1203 60.9312C74.4228 58.8528 73.9333 59.64 72.0224 58.3778C70.481 57.3597 69.3191 57.5561 66.9536 57.9535C67.9668 57.2361 69.0804 56.6384 70.2014 56.4137C73.8091 55.6895 75.3553 56.0066 78.2182 58.3778C81.0811 60.749 80.7813 69.3743 81.4294 73.1101C83.6417 85.8847 72.4936 97.3468 59.7814 99.2656C39.6467 102.303 22.1372 85.0063 19.5345 65.2976C15.6179 35.6568 40.9003 10.3885 69.7134 7.0412C70.4866 6.95091 71.2671 6.88252 72.0438 6.82061ZM65.2935 58.3674C65.2891 58.3692 65.2865 58.3721 65.2821 58.374C65.2774 58.376 65.2726 58.3759 65.2673 58.3778L65.2935 58.3674ZM65.1003 65.2722L68.9729 64.0291C68.8666 64.3498 69.4407 64.0291 70.295 65.2722C70.7232 65.8952 71.4534 70.0217 70.295 70.5002C68.7674 71.1299 66.8494 70.6847 66.0311 70.1442C65.2112 69.6026 64.8992 69.1743 64.6033 68.2923C64.3059 67.4043 64.6415 66.2238 64.8766 65.8952C65.0888 65.5987 65.1245 65.5839 65.3873 65.511C65.3646 65.4953 65.3086 65.4413 65.1139 65.2933C65.1084 65.2893 65.105 65.277 65.1003 65.2722ZM65.3873 65.511C65.4107 65.5268 65.3989 65.5021 65.4525 65.4877C65.4175 65.4975 65.4157 65.5036 65.3873 65.511Z" fill="url(#paint0_linear_719_68)"/>
<path d="M74.7542 21.1741C71.4045 21.0078 67.9762 21.2062 64.5018 21.8104C42.7178 25.5951 25.4207 46.1321 29.599 69.0431C32.8412 86.8131 49.7091 100.924 68.5218 97.3118C82.958 94.5411 94.4271 80.7242 91.2976 65.3091C88.9233 53.6098 77.6184 44.3023 64.9852 47.0234C55.4993 49.0661 47.945 58.3382 50.3309 68.7227C52.1039 76.441 59.7525 82.6013 68.3504 80.4787C74.6657 78.9148 79.7486 72.5461 77.8263 65.3394C77.539 64.2601 76.9846 63.2716 76.3871 62.3218C77.7814 63.8491 78.9274 65.6425 79.3514 67.7324C81.004 75.8697 74.4683 83.7579 66.2248 85.34C54.6625 87.5598 43.6957 78.4002 41.5894 66.8562C38.7292 51.1726 51.0645 36.5171 66.5895 33.8199C87.1785 30.2396 106.22 46.3628 109.59 66.6455C113.973 93.0251 93.3648 117.228 67.4508 121.358C66.0198 121.585 64.5881 121.754 63.1567 121.865C63.8166 121.941 64.4777 122.005 65.1399 122.057C79.7619 122.427 93.9322 116.974 104.534 106.897C115.135 96.8197 121.299 82.9438 121.669 68.3218C121.695 67.1325 121.682 65.9427 121.631 64.7543C121.625 64.7189 121.621 64.6836 121.616 64.6479C117.753 41.3992 98.2019 22.3381 74.7542 21.1741Z" fill="url(#paint1_radial_719_68)"/>
<defs>
<linearGradient id="paint0_linear_719_68" x1="22.9139" y1="36.7526" x2="91.8054" y2="72.7855" gradientUnits="userSpaceOnUse">
<stop stop-color="#7801A2"/>
<stop offset="1" stop-color="#FF3395"/>
</linearGradient>
<radialGradient id="paint1_radial_719_68" cx="0" cy="0" r="1" gradientUnits="userSpaceOnUse" gradientTransform="translate(70.5 66) rotate(31.8274) scale(51.1981 44.9026)">
<stop offset="0.238238" stop-color="#FD3939"/>
<stop offset="1" stop-color="#5600F0"/>
</radialGradient>
</defs>
</svg>
