<svg width="16" height="16" viewBox="0 0 16 16" fill="none" xmlns="http://www.w3.org/2000/svg">
<path fill-rule="evenodd" clip-rule="evenodd" d="M2.23311 7.99977C2.23311 4.81683 4.81683 2.23311 7.99977 2.23311C11.1827 2.23311 13.7664 4.81683 13.7664 7.99977C13.7664 11.1827 11.1827 13.7664 7.99977 13.7664C4.81683 13.7664 2.23311 11.1827 2.23311 7.99977ZM7.99977 0.433105C3.82272 0.433105 0.433105 3.82272 0.433105 7.99977C0.433105 12.1768 3.82272 15.5664 7.99977 15.5664C12.1768 15.5664 15.5664 12.1768 15.5664 7.99977C15.5664 3.82272 12.1768 0.433105 7.99977 0.433105ZM7.90003 5.00001C7.90004 4.50295 7.4971 4.1 7.00004 4.1C6.50298 4.1 6.10004 4.50294 6.10003 4.99999L6.1 8.99999C6.1 9.23869 6.19482 9.46761 6.3636 9.63639C6.53238 9.80518 6.7613 9.9 7 9.9H11C11.4971 9.9 11.9 9.49706 11.9 9C11.9 8.50294 11.4971 8.1 11 8.1H7.90001L7.90003 5.00001Z" fill="url(#paint0_linear_495_78)"/>
<defs>
<linearGradient id="paint0_linear_495_78" x1="7.62144" y1="15.9448" x2="7.62144" y2="0.0547717" gradientUnits="userSpaceOnUse">
<stop stop-color="#FF458A"/>
<stop offset="0.461905" stop-color="#FF736D"/>
<stop offset="1" stop-color="#FEAD43"/>
</linearGradient>
</defs>
</svg>
