<svg width="16" height="16" viewBox="0 0 16 16" fill="none" xmlns="http://www.w3.org/2000/svg">
<path d="M5.89755 14.6668H10.0955C13.5937 14.6668 14.993 13.3335 14.993 10.0002V6.00016C14.993 2.66683 13.5937 1.3335 10.0955 1.3335H5.89755C2.3993 1.3335 1 2.66683 1 6.00016V10.0002C1 13.3335 2.3993 14.6668 5.89755 14.6668Z" stroke="url(#paint0_linear_566_541)" stroke-width="1.8" stroke-linecap="round" stroke-linejoin="round"/>
<path d="M11.5 8.5L9.82332 5.28427C9.68493 5.09195 9.42358 5.05339 9.24001 5.19743C9.14724 5.2697 9.09174 5.37448 9.07703 5.48517C9.03307 5.38337 8.95177 5.29911 8.84353 5.25674C8.62656 5.17287 8.38763 5.28598 8.30663 5.51048L4.85076 9.58169C4.77017 9.80623 4.87924 10.0562 5.09457 10.1405C5.31361 10.2248 5.55166 10.1084 5.63146 9.88672L9.08435 5.81907C9.08633 5.81674 9.08792 5.81398 9.08892 5.81108V5.81108C9.09735 5.78666 9.13968 5.78079 9.15463 5.80186C9.1549 5.80224 9.15518 5.80263 9.15545 5.80301C9.15618 5.80403 9.15683 5.80509 9.15741 5.8062L10.8333 9.02024C10.9708 9.21191 11.232 9.25112 11.4165 9.10708C11.601 8.96346 11.6384 8.69148 11.5 8.5Z" fill="url(#paint1_linear_566_541)"/>
<path d="M11.5 8.5L11.234 8.6387L11.2441 8.65806L11.2569 8.67576L11.5 8.5ZM9.82332 5.28427L10.0893 5.14557L10.0794 5.1265L10.0668 5.10904L9.82332 5.28427ZM9.24001 5.19743L9.42437 5.43409L9.4252 5.43344L9.24001 5.19743ZM9.07703 5.48517L8.80161 5.6041L9.23156 6.59975L9.37442 5.52469L9.07703 5.48517ZM8.84353 5.25674L8.95289 4.97738L8.95169 4.97692L8.84353 5.25674ZM8.30663 5.51048L8.53535 5.70463L8.57043 5.66329L8.58883 5.61229L8.30663 5.51048ZM4.85076 9.58169L4.62205 9.38755L4.5868 9.42908L4.5684 9.48035L4.85076 9.58169ZM5.09457 10.1405L4.9852 10.4198L4.98683 10.4205L5.09457 10.1405ZM5.63146 9.88672L5.40275 9.69257L5.3676 9.73399L5.3492 9.7851L5.63146 9.88672ZM10.8333 9.02024L10.5672 9.15894L10.5771 9.17785L10.5895 9.19517L10.8333 9.02024ZM11.4165 9.10708L11.2322 8.87039L11.2319 8.8706L11.4165 9.10708ZM9.15545 5.80301L9.39949 5.62853L9.15545 5.80301ZM9.15741 5.8062L9.42342 5.66749L9.15741 5.8062ZM9.15463 5.80186L8.90999 5.9755L9.15463 5.80186ZM9.08435 5.81907L9.31306 6.01321L9.08435 5.81907ZM11.766 8.3613L10.0893 5.14557L9.55731 5.42296L11.234 8.6387L11.766 8.3613ZM10.0668 5.10904C9.83102 4.78134 9.37554 4.70975 9.05482 4.96141L9.4252 5.43344C9.47162 5.39702 9.53884 5.40256 9.57981 5.45949L10.0668 5.10904ZM9.05565 4.96076C8.89655 5.08469 8.80399 5.26248 8.77965 5.44565L9.37442 5.52469C9.3795 5.48648 9.39792 5.4547 9.42437 5.43409L9.05565 4.96076ZM9.35245 5.36624C9.27918 5.19656 9.14117 5.05109 8.95288 4.97738L8.73417 5.5361C8.76237 5.54713 8.78697 5.57018 8.80161 5.6041L9.35245 5.36624ZM8.95169 4.97692C8.57036 4.82951 8.15986 5.03332 8.02444 5.40867L8.58883 5.61229C8.61541 5.53863 8.68275 5.51622 8.73536 5.53656L8.95169 4.97692ZM8.07792 5.31634L4.62205 9.38755L5.07948 9.77584L8.53535 5.70463L8.07792 5.31634ZM4.5684 9.48035C4.43583 9.84972 4.61093 10.2733 4.9852 10.4198L5.20395 9.86113C5.14756 9.83905 5.10452 9.76275 5.13313 9.68304L4.5684 9.48035ZM4.98683 10.4205C5.37169 10.5686 5.78019 10.3593 5.91373 9.98833L5.3492 9.7851C5.32313 9.85751 5.25552 9.88097 5.20232 9.8605L4.98683 10.4205ZM5.86017 10.0809L9.31306 6.01321L8.85564 5.62493L5.40275 9.69257L5.86017 10.0809ZM8.90999 5.9755C8.91046 5.97616 8.91093 5.97683 8.91141 5.9775L9.39949 5.62853C9.39942 5.62843 9.39934 5.62832 9.39927 5.62822L8.90999 5.9755ZM8.8914 5.9449L10.5672 9.15894L11.0993 8.88153L9.42342 5.66749L8.8914 5.9449ZM10.5895 9.19517C10.8246 9.52273 11.2798 9.5944 11.6012 9.34355L11.2319 8.8706C11.1842 8.90783 11.117 8.90109 11.077 8.8453L10.5895 9.19517ZM11.6009 9.34376C11.9148 9.09924 11.9746 8.64441 11.7431 8.32424L11.2569 8.67576C11.3023 8.73855 11.2871 8.82767 11.2322 8.87039L11.6009 9.34376ZM8.91141 5.9775C8.90439 5.96768 8.89762 5.95683 8.8914 5.9449L9.42342 5.66749C9.41605 5.65335 9.40796 5.64037 9.39949 5.62853L8.91141 5.9775ZM9.37247 5.90903C9.32679 6.04128 9.21291 6.07925 9.16084 6.08653C9.10867 6.09382 8.99013 6.08842 8.90999 5.9755L9.39927 5.62822C9.30417 5.49423 9.15699 5.48124 9.07782 5.4923C8.99873 5.50335 8.85948 5.55647 8.80536 5.71313L9.37247 5.90903ZM9.31306 6.01321C9.33877 5.98293 9.35914 5.94765 9.37247 5.90903L8.80536 5.71313C8.8167 5.6803 8.8339 5.65054 8.85564 5.62493L9.31306 6.01321Z" fill="url(#paint2_linear_566_541)"/>
<path d="M4.63124 11.274C5.31023 11.274 5.86258 10.7386 5.86258 10.0805C5.86258 9.42243 5.31023 8.88708 4.63124 8.88708C3.95225 8.88708 3.3999 9.42243 3.3999 10.0805C3.3999 10.7386 3.95225 11.274 4.63124 11.274ZM9.13135 6.3869C9.81034 6.3869 10.3627 5.85156 10.3627 5.19346C10.3627 4.53537 9.81034 4 9.13135 4C8.45236 4 7.90001 4.53537 7.90001 5.19346C7.90001 5.85156 8.45236 6.3869 9.13135 6.3869ZM11.325 10.5312C12.004 10.5312 12.5564 9.99588 12.5564 9.33779C12.5564 8.67969 12.004 8.14433 11.325 8.14433C10.646 8.14433 10.0937 8.67969 10.0937 9.33779C10.0937 9.99588 10.646 10.5312 11.325 10.5312Z" fill="url(#paint3_linear_566_541)" stroke="url(#paint4_linear_566_541)"/>
<defs>
<linearGradient id="paint0_linear_566_541" x1="6.4639" y1="17.7779" x2="6.4639" y2="0.273661" gradientUnits="userSpaceOnUse">
<stop stop-color="#9000FF"/>
<stop offset="1" stop-color="#FF0CFF"/>
</linearGradient>
<linearGradient id="paint1_linear_566_541" x1="6.77679" y1="12.4822" x2="6.77679" y2="4.63524" gradientUnits="userSpaceOnUse">
<stop stop-color="#9000FF"/>
<stop offset="1" stop-color="#FF0CFF"/>
</linearGradient>
<linearGradient id="paint2_linear_566_541" x1="6.3565" y1="12.8286" x2="6.3565" y2="4.61291" gradientUnits="userSpaceOnUse">
<stop stop-color="#9000FF"/>
<stop offset="1" stop-color="#FF0CFF"/>
</linearGradient>
<linearGradient id="paint3_linear_566_541" x1="5.55261" y1="16.7181" x2="5.55261" y2="3.13926" gradientUnits="userSpaceOnUse">
<stop stop-color="#9000FF"/>
<stop offset="1" stop-color="#FF0CFF"/>
</linearGradient>
<linearGradient id="paint4_linear_566_541" x1="5.55261" y1="16.7181" x2="5.55261" y2="3.13926" gradientUnits="userSpaceOnUse">
<stop stop-color="#9000FF"/>
<stop offset="1" stop-color="#FF0CFF"/>
</linearGradient>
</defs>
</svg>
