<svg width="64" height="64" viewBox="0 0 64 64" fill="none" xmlns="http://www.w3.org/2000/svg">
<path d="M19.9851 59.3011C18.2037 59.2932 16.4706 58.7212 15.0345 57.6672C13.5668 56.6347 12.4716 55.1561 11.9119 53.4511C11.3521 51.7462 11.3577 49.9062 11.9278 48.2047L14.6587 39.7575L7.4696 34.5011C6.02815 33.4479 4.95674 31.9658 4.40865 30.2669C3.86056 28.5679 3.86388 26.7391 4.41814 25.0421C4.9724 23.3452 6.0492 21.867 7.49447 20.8191C8.93974 19.7712 10.6794 19.2072 12.4646 19.208H21.2642L23.9368 10.8752C24.4853 9.16877 25.5612 7.6805 27.0096 6.62469C28.458 5.56887 30.2041 5 31.9965 5C33.7889 5 35.535 5.56887 36.9834 6.62469C38.4318 7.6805 39.5077 9.16877 40.0562 10.8752V10.8752L42.7381 19.208H51.5377C53.3227 19.2077 55.0621 19.772 56.5069 20.8201C57.9518 21.8682 59.0283 23.3464 59.5822 25.0432C60.1362 26.7401 60.1393 28.5687 59.5912 30.2674C59.043 31.9662 57.9717 33.4481 56.5304 34.5011L49.3437 39.7575L52.0746 48.2047C52.6252 49.9086 52.6211 51.7433 52.0631 53.4448C51.505 55.1463 50.4216 56.6269 48.9688 57.6737C47.5159 58.7206 45.7685 59.2796 43.9779 59.2705C42.1872 59.2613 40.4456 58.6845 39.0035 57.6228L32.0012 52.4738L24.9988 57.6252C23.5499 58.7058 21.7926 59.2932 19.9851 59.3011V59.3011ZM12.4646 26.2103C12.1565 26.2103 11.8563 26.3076 11.6069 26.4885C11.3574 26.6693 11.1715 26.9243 11.0757 27.2172C10.9799 27.51 10.9791 27.8256 11.0735 28.1189C11.1678 28.4122 11.3524 28.6681 11.601 28.8502L20.8348 35.5981C21.4293 36.0329 21.8717 36.6441 22.0988 37.3447C22.3259 38.0454 22.3263 38.7999 22.0998 39.5008L18.5987 50.3544C18.5015 50.6488 18.5005 50.9665 18.5958 51.2615C18.6911 51.5565 18.8778 51.8136 19.1289 51.9955C19.3799 52.1774 19.6823 52.2747 19.9923 52.2734C20.3023 52.2722 20.6039 52.1723 20.8534 51.9883L29.9308 45.3104C30.5322 44.8679 31.2592 44.6292 32.0058 44.6292C32.7524 44.6292 33.4795 44.8679 34.0809 45.3104L43.1582 51.986C43.4074 52.1717 43.7094 52.273 44.0202 52.275C44.331 52.2771 44.6343 52.1799 44.886 51.9975C45.1377 51.8152 45.3245 51.5572 45.4193 51.2612C45.5141 50.9652 45.5119 50.6467 45.413 50.3521L41.9118 39.4984C41.6854 38.7975 41.6857 38.0431 41.9129 37.3424C42.14 36.6417 42.5823 36.0305 43.1769 35.5958L52.4083 28.8479C52.6567 28.6659 52.8413 28.4102 52.9357 28.1171C53.0301 27.824 53.0295 27.5086 52.934 27.2159C52.8385 26.9232 52.653 26.6682 52.4039 26.4871C52.1548 26.3061 51.8549 26.2084 51.5471 26.208H40.1706C39.429 26.2078 38.7067 25.9722 38.1077 25.5351C37.5086 25.098 37.0639 24.482 36.8375 23.7758L33.4016 13.0132C33.307 12.7186 33.1213 12.4617 32.8713 12.2794C32.6213 12.0972 32.3199 11.999 32.0105 11.999C31.7011 11.999 31.3997 12.0972 31.1497 12.2794C30.8997 12.4617 30.714 12.7186 30.6194 13.0132L27.1579 23.7782C26.9318 24.4832 26.4881 25.0983 25.8905 25.5353C25.2929 25.9723 24.5721 26.2086 23.8318 26.2103H12.4646Z" fill="url(#paint0_linear_906_20)"/>
<defs>
<linearGradient id="paint0_linear_906_20" x1="32" y1="59.3011" x2="32" y2="5" gradientUnits="userSpaceOnUse">
<stop stop-color="#FFA800"/>
<stop offset="1" stop-color="#FFF737"/>
</linearGradient>
</defs>
</svg>
