<svg width="128" height="128" viewBox="0 0 128 128" fill="none" xmlns="http://www.w3.org/2000/svg">
<path d="M103.652 40.6665C99.3197 40.6665 95.1653 38.9457 92.1022 35.8826C89.0392 32.8195 87.3183 28.6651 87.3183 24.3333C87.3183 20.0014 89.0392 15.847 92.1022 12.7839C95.1653 9.72082 99.3197 8 103.652 8C107.983 8 112.138 9.72082 115.201 12.7839C118.264 15.847 119.985 20.0014 119.985 24.3333C119.985 28.6651 118.264 32.8195 115.201 35.8826C112.138 38.9457 107.983 40.6665 103.652 40.6665V40.6665ZM106.274 119.999H68.3531C65.955 120.021 63.5939 119.408 61.509 118.223C59.4242 117.038 57.6896 115.323 56.4812 113.251C55.2988 111.256 54.6652 108.983 54.6447 106.664C54.6242 104.344 55.2175 102.061 56.3645 100.045L75.3391 66.2817C76.5674 64.1954 78.3191 62.4658 80.4209 61.2642C82.5228 60.0626 84.9019 59.4305 87.323 59.4305C89.7441 59.4305 92.1232 60.0626 94.2251 61.2642C96.3269 62.4658 98.0786 64.1954 99.3069 66.2817L118.268 100.031C119.417 102.048 120.011 104.333 119.991 106.655C119.97 108.976 119.335 111.25 118.151 113.247C116.943 115.32 115.208 117.036 113.122 118.222C111.036 119.408 108.674 120.021 106.274 119.999V119.999ZM87.2763 73.4403L69.1511 106H105.607L87.2763 73.4403ZM45.3185 112.999C45.3185 111.143 44.581 109.362 43.2683 108.05C41.9556 106.737 40.1751 106 38.3186 106H25.308C24.7331 106.01 24.1662 105.865 23.6668 105.58C23.1675 105.295 22.7543 104.88 22.4707 104.38C22.1732 103.89 22.0102 103.33 21.9979 102.756C21.9856 102.183 22.1245 101.616 22.4007 101.114L51.6185 47.0691C51.901 46.5446 52.3202 46.1063 52.8316 45.8008C53.3431 45.4953 53.9277 45.334 54.5235 45.334C55.1193 45.334 55.7039 45.4953 56.2154 45.8008C56.7268 46.1063 57.146 46.5446 57.4285 47.0691L60.3311 52.4358C60.7415 53.2884 61.3205 54.049 62.0331 54.6715C62.7457 55.2941 63.5771 55.7657 64.4771 56.0579C65.3771 56.35 66.327 56.4567 67.2694 56.3714C68.2118 56.2862 69.1271 56.0107 69.96 55.5617C70.7929 55.1127 71.5262 54.4995 72.1155 53.7592C72.7047 53.0188 73.1378 52.1667 73.3884 51.2542C73.6391 50.3418 73.7022 49.388 73.5738 48.4505C73.4455 47.513 73.1284 46.6113 72.6417 45.7998L69.7391 40.4285C68.2298 37.7165 66.0232 35.4572 63.3477 33.8842C60.6721 32.3113 57.6248 31.4819 54.5212 31.4819C51.4175 31.4819 48.3702 32.3113 45.6947 33.8842C43.0191 35.4572 40.8125 37.7165 39.3032 40.4285L10.0854 94.4309C8.65901 97.0689 7.94174 100.032 8.0037 103.03C8.06566 106.029 8.90475 108.959 10.4389 111.536C11.973 114.113 14.1497 116.248 16.756 117.731C19.3623 119.214 22.3091 119.996 25.308 119.999H38.3186C40.1751 119.999 41.9556 119.262 43.2683 117.949C44.581 116.636 45.3185 114.856 45.3185 112.999Z" fill="url(#paint0_linear_905_67)"/>
<defs>
<linearGradient id="paint0_linear_905_67" x1="63.9956" y1="120" x2="63.9956" y2="7.99999" gradientUnits="userSpaceOnUse">
<stop stop-color="#02AA93"/>
<stop offset="1" stop-color="#67FF80"/>
</linearGradient>
</defs>
</svg>
