<svg width="16" height="16" viewBox="0 0 16 16" fill="none" xmlns="http://www.w3.org/2000/svg">
<path fill-rule="evenodd" clip-rule="evenodd" d="M7.18624 1.92446C7.54786 1.29797 8.45216 1.29797 8.81381 1.92446L15.3695 13.2794C15.8308 14.0785 14.9843 14.9945 14.1512 14.5972L12.5048 13.812C12.3329 13.73 12.1343 13.8553 12.1343 14.0458V14.0458C12.1343 14.2533 11.966 14.4216 11.7584 14.4216H11.0067C10.7992 14.4216 10.6309 14.2533 10.6309 14.0458V13.2968C10.6309 13.0655 10.4979 12.8548 10.2891 12.7553L9.98597 12.6107C9.58778 12.4208 9.12768 12.7111 9.12768 13.1522V14.0455C9.12768 14.2531 8.95937 14.4214 8.75183 14.4214H7.24841C7.04084 14.4214 6.87256 14.2531 6.87256 14.0455V13.1521C6.87256 12.711 6.41246 12.4207 6.01427 12.6106L5.71085 12.7553C5.50209 12.8549 5.36914 13.0656 5.36914 13.2968V14.0458C5.36914 14.2533 5.20086 14.4216 4.99328 14.4216H4.24158C4.034 14.4216 3.86572 14.2533 3.86572 14.0458V14.0458C3.86572 13.8553 3.6671 13.73 3.4952 13.812L1.84874 14.5972C1.01577 14.9946 0.169133 14.0785 0.630482 13.2793L7.18624 1.92446ZM8.51963 3.67009C8.28869 3.27009 7.71134 3.27009 7.4804 3.67009L2.87569 11.6457C2.58105 12.156 3.12173 12.7409 3.65359 12.4872L7.59552 10.6072C7.8514 10.4851 8.14893 10.4852 8.40473 10.6073L12.3472 12.4876C12.8791 12.7413 13.419 12.156 13.1244 11.6457L8.51963 3.67009Z" fill="url(#paint0_linear_651_83)"/>
<path d="M8.81381 1.92446L8.46739 2.12444L8.4674 2.12446L8.81381 1.92446ZM7.18624 1.92446L7.53265 2.12446L7.53268 2.12442L7.18624 1.92446ZM15.3695 13.2794L15.7159 13.0794L15.7159 13.0794L15.3695 13.2794ZM14.1512 14.5972L13.979 14.9583L13.9791 14.9583L14.1512 14.5972ZM1.84874 14.5972L1.67655 14.2362L1.67652 14.2362L1.84874 14.5972ZM0.630482 13.2793L0.284072 13.0793L0.284065 13.0793L0.630482 13.2793ZM7.4804 3.67009L7.13399 3.47009L7.13399 3.47009L7.4804 3.67009ZM8.51963 3.67009L8.86604 3.47009L8.86604 3.47008L8.51963 3.67009ZM2.87569 11.6457L3.2221 11.8457L3.2221 11.8457L2.87569 11.6457ZM3.65359 12.4872L3.4814 12.1262L3.4814 12.1262L3.65359 12.4872ZM7.59552 10.6072L7.76771 10.9682L7.76775 10.9682L7.59552 10.6072ZM8.40473 10.6073L8.23245 10.9683L8.23254 10.9683L8.40473 10.6073ZM12.3472 12.4876L12.1751 12.8487L12.1751 12.8487L12.3472 12.4876ZM13.1244 11.6457L12.778 11.8457L12.778 11.8457L13.1244 11.6457ZM5.71085 12.7553L5.53866 12.3942L5.71085 12.7553ZM12.5048 13.812L12.677 13.4509L12.5048 13.812ZM3.4952 13.812L3.32301 13.4509L3.4952 13.812ZM9.98597 12.6107L9.81378 12.9717L9.98597 12.6107ZM10.2891 12.7553L10.4613 12.3942L10.2891 12.7553ZM9.16024 1.72449C8.64464 0.831302 7.35538 0.831275 6.83981 1.7245L7.53268 2.12442C7.74033 1.76466 8.25969 1.76463 8.46739 2.12444L9.16024 1.72449ZM15.7159 13.0794L9.16022 1.72446L8.4674 2.12446L15.0231 13.4794L15.7159 13.0794ZM13.9791 14.9583C15.1667 15.5246 16.3737 14.2188 15.7159 13.0794L15.0231 13.4794C15.288 13.9383 14.8019 14.4644 14.3234 14.2362L13.9791 14.9583ZM12.3326 14.173L13.979 14.9583L14.3234 14.2362L12.677 13.4509L12.3326 14.173ZM11.7343 14.0458C11.7343 14.0324 11.7451 14.0216 11.7584 14.0216V14.8216C12.1869 14.8216 12.5343 14.4742 12.5343 14.0458H11.7343ZM11.7584 14.0216H11.0067V14.8216H11.7584V14.0216ZM11.0067 14.0216C11.0201 14.0216 11.0309 14.0324 11.0309 14.0458H10.2309C10.2309 14.4742 10.5783 14.8216 11.0067 14.8216V14.0216ZM11.0309 14.0458V13.2968H10.2309V14.0458H11.0309ZM9.81378 12.9717L10.117 13.1163L10.4613 12.3942L10.1582 12.2496L9.81378 12.9717ZM8.72768 13.1522V14.0455H9.52768V13.1522H8.72768ZM8.72768 14.0455C8.72768 14.0322 8.73846 14.0214 8.75183 14.0214V14.8214C9.18029 14.8214 9.52768 14.474 9.52768 14.0455H8.72768ZM8.75183 14.0214H7.24841V14.8214H8.75183V14.0214ZM7.24841 14.0214C7.26177 14.0214 7.27256 14.0322 7.27256 14.0455H6.47256C6.47256 14.474 6.8199 14.8214 7.24841 14.8214V14.0214ZM7.27256 14.0455V13.1521H6.47256V14.0455H7.27256ZM5.88304 13.1163L6.18646 12.9716L5.84209 12.2495L5.53866 12.3942L5.88304 13.1163ZM5.76914 14.0458V13.2968H4.96914V14.0458H5.76914ZM4.99328 14.8216C5.42179 14.8216 5.76914 14.4742 5.76914 14.0458H4.96914C4.96914 14.0324 4.97993 14.0216 4.99328 14.0216V14.8216ZM4.24158 14.8216H4.99328V14.0216H4.24158V14.8216ZM3.46572 14.0458C3.46572 14.4742 3.81307 14.8216 4.24158 14.8216V14.0216C4.25493 14.0216 4.26572 14.0324 4.26572 14.0458H3.46572ZM2.02093 14.9583L3.66739 14.173L3.32301 13.4509L1.67655 14.2362L2.02093 14.9583ZM0.284065 13.0793C-0.373622 14.2186 0.833281 15.5248 2.02096 14.9582L1.67652 14.2362C1.19826 14.4643 0.711889 13.9384 0.976899 13.4793L0.284065 13.0793ZM6.83983 1.72446L0.284072 13.0793L0.976892 13.4793L7.53265 2.12446L6.83983 1.72446ZM7.82681 3.87009C7.90379 3.73676 8.09624 3.73676 8.17322 3.87009L8.86604 3.47008C8.48113 2.80342 7.51889 2.80342 7.13399 3.47009L7.82681 3.87009ZM3.2221 11.8457L7.82681 3.87009L7.13399 3.47009L2.52928 11.4457L3.2221 11.8457ZM3.4814 12.1262C3.30411 12.2107 3.12389 12.0158 3.2221 11.8457L2.52928 11.4457C2.03822 12.2962 2.93935 13.271 3.82579 12.8483L3.4814 12.1262ZM7.42332 10.2461L3.4814 12.1262L3.82579 12.8483L7.76771 10.9682L7.42332 10.2461ZM8.57701 10.2463C8.21237 10.0723 7.78823 10.072 7.42328 10.2461L7.76775 10.9682C7.91456 10.8981 8.08548 10.8982 8.23245 10.9683L8.57701 10.2463ZM12.5194 12.1266L8.57692 10.2463L8.23254 10.9683L12.1751 12.8487L12.5194 12.1266ZM12.778 11.8457C12.8769 12.0171 12.6954 12.2105 12.5194 12.1266L12.1751 12.8487C13.0629 13.2721 13.9611 12.2949 13.4708 11.4457L12.778 11.8457ZM8.17322 3.87009L12.778 11.8457L13.4708 11.4457L8.86604 3.47009L8.17322 3.87009ZM5.53866 12.3942C5.19072 12.5602 4.96914 12.9114 4.96914 13.2968H5.76914C5.76914 13.2197 5.81345 13.1495 5.88304 13.1163L5.53866 12.3942ZM12.677 13.4509C12.2396 13.2424 11.7343 13.5612 11.7343 14.0458H12.5343C12.5343 14.1494 12.4262 14.2176 12.3326 14.173L12.677 13.4509ZM7.27256 13.1521C7.27256 12.4169 6.50574 11.933 5.84209 12.2495L6.18646 12.9716C6.31919 12.9083 6.47256 13.0051 6.47256 13.1521H7.27256ZM4.26572 14.0458C4.26572 13.5612 3.76037 13.2424 3.32301 13.4509L3.66739 14.173C3.57383 14.2176 3.46572 14.1494 3.46572 14.0458H4.26572ZM10.1582 12.2496C9.49451 11.9331 8.72768 12.417 8.72768 13.1522H9.52768C9.52768 13.0052 9.68105 12.9084 9.81378 12.9717L10.1582 12.2496ZM11.0309 13.2968C11.0309 12.9114 10.8093 12.5602 10.4613 12.3942L10.117 13.1163C10.1865 13.1495 10.2309 13.2197 10.2309 13.2968H11.0309Z" fill="url(#paint1_linear_651_83)"/>
<defs>
<linearGradient id="paint0_linear_651_83" x1="8.00001" y1="14.6095" x2="8.00001" y2="1.64252" gradientUnits="userSpaceOnUse">
<stop stop-color="#FD5900"/>
<stop offset="1" stop-color="#FFDE00"/>
</linearGradient>
<linearGradient id="paint1_linear_651_83" x1="8.00001" y1="14.6095" x2="8.00001" y2="1.64252" gradientUnits="userSpaceOnUse">
<stop stop-color="#FD5900"/>
<stop offset="1" stop-color="#FFDE00"/>
</linearGradient>
</defs>
</svg>
