<svg width="128" height="128" viewBox="0 0 128 128" fill="none" xmlns="http://www.w3.org/2000/svg">
<path fill-rule="evenodd" clip-rule="evenodd" d="M83.8182 112.35C91.1687 108.496 97.395 102.803 101.89 95.8257L83.5786 84.0296C81.1226 87.8421 77.7204 90.9529 73.7039 93.0588C69.6874 95.1646 65.1937 96.1936 60.6611 96.0452C58.4724 95.9736 56.3107 95.6287 54.2245 95.0249C53.6108 99.7952 49.194 103.35 44.0476 103.075C38.6666 102.787 34.5256 98.4209 34.7983 93.3232C34.9878 89.7811 37.2585 86.8176 40.4318 85.4354C39.754 84.5202 39.1345 83.5589 38.5781 82.557C36.3766 78.5921 35.2403 74.1243 35.28 69.5894C35.3196 65.0545 36.5339 60.6073 38.8044 56.6815C41.075 52.7557 44.3242 49.4854 48.2352 47.1896C52.1462 44.8937 56.5854 43.6506 61.12 43.5816L60.7885 21.8024C52.4899 21.9287 44.3656 24.2037 37.2082 28.4053C30.0508 32.607 24.1044 38.5919 19.9492 45.7764C15.794 52.9609 13.5717 61.0996 13.4991 69.3989C13.4265 77.6981 15.5061 85.8745 19.535 93.1306C23.5639 100.387 29.4046 106.475 36.4875 110.801C43.5703 115.127 51.6535 117.544 59.9486 117.815C68.2438 118.087 76.4676 116.204 83.8182 112.35Z" fill="url(#paint0_linear_718_23)"/>
<path d="M108.246 8.68L108.242 8.68074L108.238 8.68153C101.802 9.94108 95.3604 11.1815 88.9167 12.4222C78.5101 14.4259 68.0995 16.4305 57.7056 18.5179C56.0439 18.6177 54.7261 19.5762 53.8606 20.8255C52.9948 22.0752 52.5458 23.6617 52.6348 25.124C52.6458 32.0275 52.644 38.9323 52.6422 45.8379C52.6396 56.443 52.6368 67.0491 52.6803 77.6543C48.3184 75.2225 42.9777 74.6386 38.1851 76.0647C30.9845 78.1177 25.4029 84.7636 24.7593 92.2135C23.9985 98.7117 27.0076 105.426 32.3054 109.281C37.0833 112.842 43.6144 113.959 49.3017 112.07C55.0405 110.301 59.6586 105.598 61.5123 99.9491C62.354 98.0013 62.5296 95.9721 62.5089 93.9805C62.4993 93.067 62.4482 92.1502 62.3981 91.2508C62.3932 91.1649 62.3885 91.0808 62.3838 90.9955C62.3292 90.0083 62.2805 89.0433 62.2892 88.0949V88.0895C62.2919 83.378 62.2915 78.6677 62.2911 73.9574C62.2906 66.2618 62.2901 58.5683 62.3026 50.8768C64.9836 50.304 67.6948 49.8831 70.4257 49.4594L70.4515 49.4553C73.3384 49.0073 76.2471 48.5553 79.1281 47.9173L79.1305 47.9169C81.0105 47.4939 82.9163 47.1969 84.8434 46.8967C85.0689 46.8615 85.2944 46.8263 85.521 46.7908C87.6713 46.4537 89.8424 46.0944 91.979 45.5343L91.9915 45.5311L92.0028 45.5275C93.1516 45.1732 94.2062 44.3855 94.8849 43.3776C95.5673 42.3644 95.8924 41.0901 95.4928 39.797L95.4772 39.7469L95.4528 39.7005C94.9357 38.7088 94.128 37.7288 93.1272 37.0775C92.1257 36.4254 90.9012 36.088 89.5985 36.456C88.8081 36.6129 88.0208 36.7739 87.2352 36.9347C84.003 37.5958 80.7994 38.2511 77.542 38.5948L77.5259 38.5964L77.5098 38.599C75.3835 38.9445 73.2681 39.3578 71.1636 39.769C70.6269 39.8739 70.091 39.9786 69.5558 40.082C67.1321 40.5503 64.7177 40.9931 62.287 41.3095C62.3022 39.0465 62.2998 36.785 62.2974 34.5262L62.2972 34.2589C62.2947 31.8491 62.2929 29.4422 62.3133 27.0344C63.5064 26.8091 64.6997 26.584 65.8931 26.3589C79.7931 23.7363 93.7099 21.1107 107.571 18.2265C107.623 27.2547 107.614 36.2682 107.607 45.2832C107.6 53.0682 107.594 60.8543 107.626 68.6513C102.366 66.2248 95.8256 66.6877 91.1189 70.1853C85.6874 73.9848 83.1238 81.2588 84.9598 87.5986C86.4837 93.3847 91.4929 98.0729 97.3973 99.2127C102.655 100.319 108.371 98.5748 112.128 94.7661C115.941 91.0021 117.437 85.4466 117.05 80.2895C117.022 67.9349 117.029 55.5807 117.037 43.2263C117.043 33.1897 117.048 23.1525 117.036 13.1138C117.214 10.985 115.613 9.37343 114.159 8.4431L114.124 8.42111L114.087 8.40418C113.051 7.9317 111.997 7.94209 111.017 8.09084C110.529 8.16505 110.045 8.27599 109.584 8.38468C109.532 8.39686 109.481 8.409 109.43 8.42107C109.019 8.51832 108.629 8.61063 108.246 8.68ZM98.0242 76.7954L98.032 76.7924L98.0385 76.7895C100.01 75.9055 102.297 76.1918 104.151 77.2773C106.005 78.3629 107.357 80.206 107.518 82.3503L107.521 82.3855L107.527 82.4195C107.95 84.5519 107.126 86.6961 105.61 88.2327C104.095 89.7698 101.943 90.643 99.7874 90.2952L99.7695 90.2923L99.7516 90.2905C95.7993 89.9069 92.8105 85.7096 93.7446 81.8779L93.7469 81.8678L93.7487 81.8582C94.2128 79.6155 95.8901 77.6824 98.0242 76.7954ZM40.5036 84.9354L40.5081 84.9336L40.5125 84.9324C45.1933 83.3136 50.9735 85.9428 52.4623 90.6513C52.7917 92.9391 52.7481 95.3065 52.523 97.6416C50.9614 102.174 45.5484 104.855 40.9173 103.461L40.9072 103.457L40.8971 103.455C36.2158 102.23 33.011 97.1173 34.0001 92.3972L34.0018 92.3888L34.0032 92.3817C34.6199 88.974 37.2028 86.0162 40.5036 84.9354Z" fill="url(#paint1_linear_718_23)" stroke="url(#paint2_linear_718_23)" stroke-width="2"/>
<defs>
<linearGradient id="paint0_linear_718_23" x1="60.4671" y1="30.3298" x2="55.7982" y2="117.604" gradientUnits="userSpaceOnUse">
<stop stop-color="#A5B9FF"/>
<stop offset="1" stop-color="#BBE9FF"/>
</linearGradient>
<linearGradient id="paint1_linear_718_23" x1="70.8758" y1="112.979" x2="70.8758" y2="8" gradientUnits="userSpaceOnUse">
<stop stop-color="#0028FF"/>
<stop offset="1" stop-color="#00C0FF"/>
</linearGradient>
<linearGradient id="paint2_linear_718_23" x1="70.8758" y1="112.979" x2="70.8758" y2="8" gradientUnits="userSpaceOnUse">
<stop stop-color="#0028FF"/>
<stop offset="1" stop-color="#00C0FF"/>
</linearGradient>
</defs>
</svg>
