<svg width="16" height="16" viewBox="0 0 16 16" fill="none" xmlns="http://www.w3.org/2000/svg">
<g clip-path="url(#clip0_503_486)">
<path d="M9.16665 6.44444H8.16665V7.18517C8.16665 7.53406 8.16665 7.70889 8.264 7.81778C8.362 7.92594 8.51935 7.92594 8.83335 7.92594H9.16665C9.48065 7.92594 9.638 7.92594 9.736 7.81778C9.83335 7.70889 9.83335 7.53406 9.83335 7.18517C9.83335 6.83628 9.83335 6.6615 9.736 6.55261C9.638 6.44444 9.48 6.44444 9.16665 6.44444ZM6.59735 5.07111C6.5 5.18 6.5 5.35556 6.5 5.70372C6.5 6.05183 6.5 6.22739 6.59735 6.33628C6.69535 6.44444 6.85335 6.44444 7.16665 6.44444H8.16665V4.96297H7.16665C6.85265 4.96297 6.69535 4.96297 6.59735 5.07111ZM9.16665 3.48148H8.16665V4.96297H9.16665C9.48065 4.96297 9.638 4.96297 9.736 4.85482C9.83335 4.74593 9.83335 4.57111 9.83335 4.22222C9.83335 3.87333 9.83335 3.69852 9.736 3.58963C9.638 3.48148 9.48 3.48148 9.16665 3.48148ZM8.16665 3.48148V2L6.5 2.00222V2.74074C6.5 3.08963 6.5 3.26444 6.59735 3.37333C6.69535 3.48148 6.85335 3.48148 7.16665 3.48148H8.16665ZM6.5 10.1482V10.0556C6.5 9.69778 6.76135 9.40739 7.08335 9.40739H9.25C9.572 9.40739 9.83335 9.69778 9.83335 10.0556V10.1482C9.83335 10.6393 9.65775 11.1103 9.34515 11.4576C9.0326 11.8049 8.6087 12 8.16665 12C7.72465 12 7.3007 11.8049 6.98815 11.4576C6.6756 11.1103 6.5 10.6393 6.5 10.1482Z" fill="url(#paint0_linear_503_486)"/>
<path d="M8.16665 6.44444H9.16665C9.48 6.44444 9.638 6.44444 9.736 6.55261C9.83335 6.6615 9.83335 6.83628 9.83335 7.18517C9.83335 7.53406 9.83335 7.70889 9.736 7.81778C9.638 7.92594 9.48065 7.92594 9.16665 7.92594H8.83335C8.51935 7.92594 8.362 7.92594 8.264 7.81778C8.16665 7.70889 8.16665 7.53406 8.16665 7.18517V6.44444ZM8.16665 6.44444H7.16665C6.85335 6.44444 6.69535 6.44444 6.59735 6.33628C6.5 6.22739 6.5 6.05183 6.5 5.70372C6.5 5.35556 6.5 5.18 6.59735 5.07111C6.69535 4.96297 6.85265 4.96297 7.16665 4.96297H8.16665M8.16665 6.44444V4.96297M8.16665 4.96297V3.48148M8.16665 4.96297H9.16665C9.48065 4.96297 9.638 4.96297 9.736 4.85482C9.83335 4.74593 9.83335 4.57111 9.83335 4.22222C9.83335 3.87333 9.83335 3.69852 9.736 3.58963C9.638 3.48148 9.48 3.48148 9.16665 3.48148H8.16665M8.16665 3.48148V2L6.5 2.00222V2.74074C6.5 3.08963 6.5 3.26444 6.59735 3.37333C6.69535 3.48148 6.85335 3.48148 7.16665 3.48148H8.16665ZM6.5 10.1482V10.0556C6.5 9.69778 6.76135 9.40739 7.08335 9.40739H9.25C9.572 9.40739 9.83335 9.69778 9.83335 10.0556V10.1482C9.83335 10.6393 9.65775 11.1103 9.34515 11.4576C9.0326 11.8049 8.6087 12 8.16665 12C7.72465 12 7.3007 11.8049 6.98815 11.4576C6.6756 11.1103 6.5 10.6393 6.5 10.1482Z" stroke="url(#paint1_linear_503_486)" stroke-width="0.6"/>
<path d="M6.49982 15.0766C4.81975 15.0934 3.97971 15.1017 3.33476 14.7811C2.76744 14.4992 2.30395 14.0448 2.01073 13.4832C1.67738 12.8448 1.66902 12.0047 1.6523 10.3246L1.60852 5.92486C1.5918 4.24478 1.58344 3.40475 1.90402 2.75979C2.18601 2.19247 2.64036 1.72898 3.20196 1.43576C3.84041 1.10241 4.68044 1.09405 6.36052 1.07733L9.36037 1.04748C11.0404 1.03076 11.8805 1.0224 12.5254 1.34298C13.0928 1.62497 13.5562 2.07932 13.8495 2.64092C14.1828 3.27937 14.1912 4.11941 14.2079 5.79948L14.2517 10.1993C14.2684 11.8793 14.2768 12.7194 13.9562 13.3643C13.6742 13.9317 13.2198 14.3951 12.6582 14.6884C12.0198 15.0217 11.1797 15.0301 9.49968 15.0468L6.49982 15.0766Z" stroke="url(#paint2_linear_503_486)" stroke-width="1.8" stroke-linecap="round"/>
</g>
<defs>
<linearGradient id="paint0_linear_503_486" x1="8.1667" y1="1.99999" x2="8.1667" y2="12" gradientUnits="userSpaceOnUse">
<stop stop-color="#DCFF4F"/>
<stop offset="1" stop-color="#00BF58"/>
</linearGradient>
<linearGradient id="paint1_linear_503_486" x1="8.1667" y1="1.99999" x2="8.1667" y2="12" gradientUnits="userSpaceOnUse">
<stop stop-color="#DCFF4F"/>
<stop offset="1" stop-color="#00BF58"/>
</linearGradient>
<linearGradient id="paint2_linear_503_486" x1="7.93019" y1="1.041" x2="7.93019" y2="15.0831" gradientUnits="userSpaceOnUse">
<stop stop-color="#DCFF4F"/>
<stop offset="1" stop-color="#00BF58"/>
</linearGradient>
<clipPath id="clip0_503_486">
<rect width="16" height="16" fill="white"/>
</clipPath>
</defs>
</svg>
