<svg width="17" height="16" viewBox="0 0 17 16" fill="none" xmlns="http://www.w3.org/2000/svg">
<path fill-rule="evenodd" clip-rule="evenodd" d="M1.5 1.62336C1.49896 1.23219 1.92107 0.985974 2.26104 1.17947L8.52088 4.7423L14.7433 1.2803C15.0827 1.09147 15.5001 1.33685 15.5001 1.72524V3.0885C15.5001 3.27768 15.3952 3.45127 15.2276 3.53926L13.8721 4.25139C13.7046 4.33938 13.5997 4.51297 13.5997 4.70215V11.9134C13.5997 12.0825 13.5158 12.2406 13.3756 12.3353L12.4851 12.937C12.1469 13.1655 11.6908 12.9231 11.6908 12.515V6.32792C11.6908 5.94199 11.2782 5.69635 10.939 5.8803L9.15459 6.84778V14.3778C9.15459 14.8078 8.65452 15.0442 8.32223 14.7713L7.43168 14.0397C7.31393 13.943 7.24569 13.7986 7.24569 13.6462V11.0188C7.24569 10.8328 7.14435 10.6617 6.98132 10.5723L4.15624 9.02317C3.81691 8.83707 3.40225 9.08262 3.40225 9.46959V10.7423C3.40225 11.1637 2.9194 11.4027 2.58427 11.1471L1.72305 10.4902C1.59715 10.3943 1.52309 10.2451 1.52267 10.0867L1.5 1.62336ZM6.47355 8.12605C6.8129 8.31315 7.22857 8.06766 7.22857 7.68015V6.39461C7.22857 6.2066 7.12495 6.03389 6.95907 5.94538L4.18536 4.46551C3.8462 4.28455 3.4365 4.53033 3.4365 4.91474V6.15094C3.4365 6.33646 3.5374 6.50729 3.69985 6.59686L6.47355 8.12605Z" fill="url(#paint0_linear_1011_569)"/>
<defs>
<linearGradient id="paint0_linear_1011_569" x1="20.5327" y1="10.2534" x2="10.6987" y2="-3.48585" gradientUnits="userSpaceOnUse">
<stop stop-color="#2AD454"/>
<stop offset="1" stop-color="#B3FF5A"/>
</linearGradient>
</defs>
</svg>
