<svg width="16" height="16" viewBox="0 0 16 16" fill="none" xmlns="http://www.w3.org/2000/svg">
<path fill-rule="evenodd" clip-rule="evenodd" d="M4.12009 15.1665C4.05342 15.1665 3.98009 15.1598 3.92009 15.1531L2.47342 14.9531C1.78009 14.8598 1.15342 14.2398 1.04676 13.5331L0.846758 12.0731C0.780091 11.6065 0.980091 10.9998 1.31342 10.6598L4.24009 7.73312C3.76676 5.83979 4.31343 3.83979 5.70676 2.45979C7.86676 0.306453 11.3801 0.299786 13.5468 2.45979C14.5934 3.50645 15.1668 4.89979 15.1668 6.37979C15.1668 7.85979 14.5934 9.25312 13.5468 10.2998C12.1468 11.6865 10.1534 12.2331 8.27342 11.7531L6.51667 13.5059C6.5054 13.52 6.49325 13.5336 6.48021 13.5466C6.46644 13.5604 6.45217 13.5732 6.43745 13.5849L5.34009 14.6798C5.06009 14.9731 4.56009 15.1665 4.12009 15.1665ZM7.76009 10.8398L6.11833 12.4781L4.94688 11.3066C4.75355 11.1133 4.43355 11.1133 4.24021 11.3066C4.04688 11.5 4.04688 11.82 4.24021 12.0133L5.41091 13.184L4.61342 13.9798C4.50009 14.0931 4.20676 14.1865 4.04676 14.1598L2.59342 13.9598C2.34009 13.9265 2.06676 13.6398 2.02676 13.3865L1.82676 11.9265C1.80676 11.7731 1.90009 11.4798 2.01342 11.3665L5.14676 8.23312C5.28009 8.09979 5.32676 7.91312 5.27342 7.73312C4.77342 6.10645 5.20676 4.35979 6.40676 3.16645C7.29342 2.27979 8.45342 1.83979 9.62009 1.83979C10.7868 1.83979 11.9534 2.28645 12.8201 3.16645C13.6734 4.01979 14.1468 5.15979 14.1468 6.37979C14.1468 7.59312 13.6734 8.73979 12.8201 9.59312C11.6201 10.7931 9.86676 11.2265 8.26009 10.7198C8.08676 10.6665 7.89342 10.7065 7.76009 10.8398ZM8.16699 6.33301C8.16699 7.15967 8.84033 7.83301 9.66699 7.83301C10.4937 7.83301 11.167 7.15967 11.167 6.33301C11.167 5.50634 10.4937 4.83301 9.66699 4.83301C8.84033 4.83301 8.16699 5.50634 8.16699 6.33301ZM9.16699 6.33301C9.16699 6.05967 9.39366 5.83301 9.66699 5.83301C9.94033 5.83301 10.167 6.05967 10.167 6.33301C10.167 6.60634 9.94033 6.83301 9.66699 6.83301C9.39366 6.83301 9.16699 6.60634 9.16699 6.33301Z" fill="url(#paint0_linear_507_451)"/>
<path d="M3.92009 15.1531L3.87899 15.4504L3.88696 15.4513L3.92009 15.1531ZM2.47342 14.9531L2.51451 14.6559L2.51345 14.6558L2.47342 14.9531ZM1.04676 13.5331L0.749506 13.5738L0.750118 13.5779L1.04676 13.5331ZM0.846758 12.0731L1.14399 12.0324L1.14374 12.0307L0.846758 12.0731ZM1.31342 10.6598L1.10128 10.4476L1.0992 10.4498L1.31342 10.6598ZM4.24009 7.73312L4.45222 7.94525L4.57233 7.82514L4.53113 7.66036L4.24009 7.73312ZM5.70676 2.45979L5.91787 2.67294L5.91856 2.67225L5.70676 2.45979ZM13.5468 2.45979L13.7589 2.24765L13.7586 2.24733L13.5468 2.45979ZM13.5468 10.2998L13.7579 10.5129L13.7589 10.5119L13.5468 10.2998ZM8.27342 11.7531L8.34764 11.4624L8.18232 11.4202L8.06153 11.5407L8.27342 11.7531ZM6.51667 13.5059L6.30478 13.2935L6.29286 13.3054L6.28234 13.3186L6.51667 13.5059ZM6.43745 13.5849L6.25009 13.3506L6.23723 13.3609L6.22556 13.3725L6.43745 13.5849ZM5.34009 14.6798L5.12814 14.4674L5.12309 14.4726L5.34009 14.6798ZM6.11833 12.4781L5.9062 12.6902L6.1181 12.9021L6.33024 12.6904L6.11833 12.4781ZM7.76009 10.8398L7.972 11.0521L7.97222 11.0519L7.76009 10.8398ZM4.94688 11.3066L4.73475 11.5188L4.73475 11.5188L4.94688 11.3066ZM4.24021 11.3066L4.45235 11.5188L4.45235 11.5188L4.24021 11.3066ZM4.24021 12.0133L4.02808 12.2254L4.02808 12.2254L4.24021 12.0133ZM5.41091 13.184L5.62282 13.3963L5.8354 13.1842L5.62305 12.9719L5.41091 13.184ZM4.61342 13.9798L4.40152 13.7674L4.40129 13.7677L4.61342 13.9798ZM4.04676 14.1598L4.0961 13.8637L4.08766 13.8626L4.04676 14.1598ZM2.59342 13.9598L2.63432 13.6626L2.63256 13.6624L2.59342 13.9598ZM2.02676 13.3865L1.72947 13.4272L1.73043 13.4332L2.02676 13.3865ZM1.82676 11.9265L1.52927 11.9653L1.52953 11.9672L1.82676 11.9265ZM2.01342 11.3665L1.80129 11.1543L1.80129 11.1543L2.01342 11.3665ZM5.14676 8.23312L5.35889 8.44525L5.35889 8.44525L5.14676 8.23312ZM5.27342 7.73312L5.56108 7.64789L5.56018 7.64498L5.27342 7.73312ZM6.40676 3.16645L6.6183 3.37918L6.61889 3.37858L6.40676 3.16645ZM12.8201 3.16645L12.6063 3.37697L12.608 3.37858L12.8201 3.16645ZM8.26009 10.7198L8.35032 10.4337L8.34832 10.4331L8.26009 10.7198ZM3.88696 15.4513C3.94978 15.4583 4.0364 15.4665 4.12009 15.4665V14.8665C4.07045 14.8665 4.0104 14.8613 3.95322 14.855L3.88696 15.4513ZM2.43234 15.2503L3.87901 15.4503L3.96118 14.8559L2.51451 14.6559L2.43234 15.2503ZM0.750118 13.5779C0.876333 14.4141 1.60556 15.139 2.4334 15.2504L2.51345 14.6558C1.95462 14.5806 1.43052 14.0655 1.3434 13.4883L0.750118 13.5779ZM0.549534 12.1138L0.749534 13.5738L1.34398 13.4924L1.14398 12.0324L0.549534 12.1138ZM1.0992 10.4498C0.893881 10.6592 0.739668 10.9387 0.645205 11.2249C0.550784 11.511 0.508512 11.8267 0.549773 12.1155L1.14374 12.0307C1.11834 11.8529 1.14273 11.6319 1.21498 11.413C1.28718 11.1942 1.39963 11.0004 1.52765 10.8698L1.0992 10.4498ZM4.02796 7.52099L1.10129 10.4477L1.52556 10.8719L4.45222 7.94525L4.02796 7.52099ZM5.49565 2.24664C4.02624 3.70198 3.45032 5.81096 3.94905 7.80588L4.53113 7.66036C4.0832 5.86861 4.60061 3.97759 5.91787 2.67294L5.49565 2.24664ZM13.7586 2.24733C11.4746 -0.029629 7.7718 -0.0224926 5.49495 2.24733L5.91856 2.67225C7.96172 0.635398 11.2856 0.629201 13.335 2.67224L13.7586 2.24733ZM15.4668 6.37979C15.4668 4.82075 14.8622 3.35095 13.7589 2.24765L13.3346 2.67192C14.3247 3.66195 14.8668 4.97883 14.8668 6.37979H15.4668ZM13.7589 10.5119C14.8622 9.40862 15.4668 7.93883 15.4668 6.37979H14.8668C14.8668 7.78075 14.3247 9.09762 13.3346 10.0877L13.7589 10.5119ZM8.19921 12.0438C10.1828 12.5502 12.2841 11.9727 13.7579 10.5129L13.3356 10.0866C12.0095 11.4002 10.1241 11.916 8.34764 11.4624L8.19921 12.0438ZM6.72857 13.7182L8.48531 11.9655L8.06153 11.5407L6.30478 13.2935L6.72857 13.7182ZM6.69235 13.7588C6.71328 13.7378 6.73284 13.7159 6.75101 13.6932L6.28234 13.3186C6.27796 13.324 6.27322 13.3294 6.26808 13.3345L6.69235 13.7588ZM6.62482 13.8192C6.64824 13.8005 6.67078 13.7803 6.69235 13.7588L6.26808 13.3345C6.26211 13.3405 6.2561 13.3458 6.25009 13.3506L6.62482 13.8192ZM5.55198 14.8922L6.64935 13.7973L6.22556 13.3725L5.1282 14.4674L5.55198 14.8922ZM4.12009 15.4665C4.62957 15.4665 5.2124 15.248 5.5571 14.8869L5.12309 14.4726C4.90778 14.6982 4.49061 14.8665 4.12009 14.8665V15.4665ZM6.33024 12.6904L7.972 11.0521L7.54818 10.6274L5.90642 12.2657L6.33024 12.6904ZM4.73475 11.5188L5.9062 12.6902L6.33046 12.2659L5.15901 11.0945L4.73475 11.5188ZM4.45235 11.5188C4.52852 11.4426 4.65857 11.4426 4.73475 11.5188L5.15901 11.0945C4.84852 10.784 4.33857 10.784 4.02808 11.0945L4.45235 11.5188ZM4.45235 11.8012C4.37617 11.725 4.37617 11.5949 4.45235 11.5188L4.02808 11.0945C3.71759 11.405 3.71759 11.9149 4.02808 12.2254L4.45235 11.8012ZM5.62305 12.9719L4.45235 11.8012L4.02808 12.2254L5.19878 13.3961L5.62305 12.9719ZM4.82533 14.1921L5.62282 13.3963L5.19901 12.9716L4.40152 13.7674L4.82533 14.1921ZM3.99744 14.4557C4.14523 14.4803 4.31152 14.4485 4.43846 14.4082C4.56503 14.368 4.71954 14.2979 4.82556 14.1919L4.40129 13.7677C4.40138 13.7676 4.3897 13.7782 4.35943 13.7942C4.3312 13.8091 4.29569 13.824 4.25672 13.8364C4.21777 13.8488 4.18 13.8572 4.14796 13.8614C4.13214 13.8635 4.11929 13.8643 4.10958 13.8644C4.09957 13.8645 4.09538 13.8638 4.09608 13.8639L3.99744 14.4557ZM2.55253 14.257L4.00586 14.457L4.08766 13.8626L2.63432 13.6626L2.55253 14.257ZM1.73043 13.4332C1.76283 13.6385 1.88093 13.8275 2.01548 13.9652C2.14919 14.1021 2.33895 14.2289 2.55429 14.2572L2.63256 13.6624C2.59456 13.6574 2.521 13.6241 2.4447 13.546C2.36925 13.4687 2.33068 13.3878 2.32309 13.3397L1.73043 13.4332ZM1.52953 11.9672L1.72953 13.4272L2.32398 13.3457L2.12398 11.8857L1.52953 11.9672ZM1.80129 11.1543C1.69559 11.26 1.62566 11.4141 1.58504 11.5379C1.54423 11.6623 1.51084 11.8239 1.52928 11.9653L2.12424 11.8877C2.12437 11.8887 2.12379 11.8845 2.12418 11.8743C2.12455 11.8644 2.12572 11.8513 2.12816 11.8352C2.13309 11.8027 2.14222 11.7643 2.15514 11.725C2.16807 11.6856 2.18331 11.6496 2.19851 11.6211C2.21483 11.5904 2.22558 11.5786 2.22556 11.5786L1.80129 11.1543ZM4.93463 8.02099L1.80129 11.1543L2.22556 11.5786L5.35889 8.44525L4.93463 8.02099ZM4.98579 7.81835C5.00806 7.89351 4.98971 7.9659 4.93463 8.02099L5.35889 8.44525C5.57047 8.23367 5.64546 7.93273 5.56106 7.64789L4.98579 7.81835ZM6.19522 2.95373C4.91565 4.22619 4.45418 6.0889 4.98667 7.82126L5.56018 7.64498C5.09267 6.124 5.49786 4.49339 6.6183 3.37917L6.19522 2.95373ZM9.62009 1.53979C8.3777 1.53979 7.14021 2.00873 6.19463 2.95432L6.61889 3.37858C7.44664 2.55084 8.52915 2.13979 9.62009 2.13979V1.53979ZM13.0338 2.95595C12.1076 2.01541 10.8624 1.53979 9.62009 1.53979V2.13979C10.7111 2.13979 11.7993 2.55749 12.6063 3.37696L13.0338 2.95595ZM14.4468 6.37979C14.4468 5.08049 13.942 3.86411 13.0322 2.95432L12.608 3.37858C13.4048 4.17546 13.8468 5.23908 13.8468 6.37979H14.4468ZM13.0322 9.80525C13.9422 8.8953 14.4468 7.67218 14.4468 6.37979H13.8468C13.8468 7.51406 13.4047 8.58427 12.608 9.38099L13.0322 9.80525ZM8.16987 11.0059C9.88425 11.5465 11.7539 11.0836 13.0322 9.80525L12.608 9.38099C11.4863 10.5026 9.84927 10.9064 8.35032 10.4337L8.16987 11.0059ZM7.97222 11.0519C8.02156 11.0026 8.09721 10.9835 8.17187 11.0065L8.34832 10.4331C8.07631 10.3494 7.76529 10.4103 7.54796 10.6277L7.97222 11.0519ZM9.66699 7.53301C9.00601 7.53301 8.46699 6.99399 8.46699 6.33301H7.86699C7.86699 7.32536 8.67464 8.13301 9.66699 8.13301V7.53301ZM10.867 6.33301C10.867 6.99399 10.328 7.53301 9.66699 7.53301V8.13301C10.6593 8.13301 11.467 7.32536 11.467 6.33301H10.867ZM9.66699 5.13301C10.328 5.13301 10.867 5.67203 10.867 6.33301H11.467C11.467 5.34066 10.6593 4.53301 9.66699 4.53301V5.13301ZM8.46699 6.33301C8.46699 5.67203 9.00601 5.13301 9.66699 5.13301V4.53301C8.67464 4.53301 7.86699 5.34066 7.86699 6.33301H8.46699ZM9.66699 5.53301C9.22797 5.53301 8.86699 5.89399 8.86699 6.33301H9.46699C9.46699 6.22536 9.55934 6.13301 9.66699 6.13301V5.53301ZM10.467 6.33301C10.467 5.89399 10.106 5.53301 9.66699 5.53301V6.13301C9.77464 6.13301 9.86699 6.22536 9.86699 6.33301H10.467ZM9.66699 7.13301C10.106 7.13301 10.467 6.77203 10.467 6.33301H9.86699C9.86699 6.44066 9.77464 6.53301 9.66699 6.53301V7.13301ZM8.86699 6.33301C8.86699 6.77203 9.22797 7.13301 9.66699 7.13301V6.53301C9.55934 6.53301 9.46699 6.44066 9.46699 6.33301H8.86699Z" fill="url(#paint1_linear_507_451)"/>
<defs>
<linearGradient id="paint0_linear_507_451" x1="4.41718" y1="14.1433" x2="13.8955" y2="3.07857" gradientUnits="userSpaceOnUse">
<stop stop-color="#A056FF"/>
<stop offset="1" stop-color="#C59AFD"/>
</linearGradient>
<linearGradient id="paint1_linear_507_451" x1="4.41718" y1="14.1433" x2="13.8955" y2="3.07857" gradientUnits="userSpaceOnUse">
<stop stop-color="#A056FF"/>
<stop offset="1" stop-color="#C59AFD"/>
</linearGradient>
</defs>
</svg>
