<svg width="16" height="16" viewBox="0 0 16 16" fill="none" xmlns="http://www.w3.org/2000/svg">
<g clip-path="url(#clip0_735_23)">
<path d="M8.07227 0.000354831C6.85166 -0.0119324 5.64907 0.295092 4.58398 0.890926C4.465 0.952472 4.3596 1.03728 4.27405 1.14031C4.1885 1.24335 4.12455 1.36251 4.08598 1.49072C4.04742 1.61893 4.03504 1.75357 4.04957 1.88665C4.06409 2.01974 4.10524 2.14855 4.17056 2.26544C4.23588 2.38232 4.32404 2.4849 4.42981 2.56709C4.53558 2.64927 4.6568 2.70938 4.78627 2.74385C4.91574 2.77832 5.05082 2.78644 5.18349 2.76774C5.31617 2.74903 5.44372 2.70388 5.55859 2.63496C6.31929 2.20968 7.1781 1.99062 8.04973 1.99953C8.92137 2.00843 9.77551 2.245 10.5273 2.68574C11.28 3.1258 11.9042 3.75502 12.338 4.51085C12.7718 5.26668 13 6.12279 13 6.99407C13.0007 6.99668 13.0013 6.99928 13.002 7.00188C13.0013 7.00513 13.0007 7.00839 13 7.01165V8.00964C13 8.27414 13.1054 8.52781 13.2929 8.71484C13.4804 8.90187 13.7348 9.00694 14 9.00694C14.2652 9.00694 14.5196 8.90187 14.7071 8.71484C14.8946 8.52781 15 8.27414 15 8.00964V7.01165C15.0001 7.00579 15.0001 6.99993 15 6.99407C14.9991 5.77438 14.6793 4.57609 14.0723 3.51791C13.4652 2.45973 12.592 1.5784 11.5391 0.961234C10.4871 0.34433 9.29196 0.0130742 8.07227 0.000354831ZM2.95508 2.99431C2.77568 2.98714 2.59758 3.0267 2.43949 3.10883C2.28141 3.19096 2.14916 3.31264 2.05664 3.46108C1.39551 4.48905 1.03262 5.66939 1.00586 6.87884C1.00325 6.89961 1.0013 6.92045 1 6.94134V11.9996C1 12.2646 1.10536 12.5188 1.29289 12.7061C1.48043 12.8935 1.73478 12.9988 2 12.9988C2.26522 12.9988 2.51957 12.8935 2.70711 12.7061C2.89464 12.5188 3 12.2646 3 11.9996V7.02922C3 6.12824 3.26286 5.24552 3.75586 4.48055C3.85131 4.3376 3.90589 4.17284 3.91408 4.00298C3.92226 3.83312 3.88376 3.6642 3.80246 3.51332C3.72117 3.36244 3.59998 3.23497 3.45116 3.14383C3.30235 3.05268 3.13121 3.0011 2.95508 2.99431ZM8 3.00017C5.802 3.00017 4 4.80287 4 6.99993C3.99999 7.00188 3.99999 7.00384 4 7.00579C3.99999 7.00774 3.99999 7.0097 4 7.01165V8.00964C4 8.27414 4.10536 8.52781 4.29289 8.71484C4.48043 8.90187 4.73478 9.00694 5 9.00694C5.26522 9.00694 5.51957 8.90187 5.70711 8.71484C5.89464 8.52781 6 8.27414 6 8.00964V7.01165C6.00002 7.00774 6.00002 7.00383 6 6.99993C6 5.8839 6.883 5.00005 8 5.00005C9.116 5.00005 10 5.8839 10 6.99993C9.99999 7.00188 9.99999 7.00384 10 7.00579C9.99999 7.00774 9.99999 7.0097 10 7.01165V11.9977C10 11.9977 10.0098 12.4374 10.1758 12.9371C10.4067 13.6019 10.7891 14.2043 11.293 14.6967C11.3852 14.7922 11.4955 14.8683 11.6176 14.9207C11.7396 14.9731 11.8709 15.0007 12.0038 15.002C12.1366 15.0032 12.2684 14.978 12.3914 14.9279C12.5144 14.8777 12.6261 14.8036 12.7201 14.71C12.8141 14.6163 12.8884 14.5048 12.9387 14.3822C12.9889 14.2595 13.0142 14.1281 13.013 13.9956C13.0118 13.8631 12.9841 13.7321 12.9316 13.6104C12.879 13.4887 12.8027 13.3786 12.707 13.2867C12.324 12.9057 12.1572 12.5536 12.0742 12.3062C11.9902 12.0579 12 11.9977 12 11.9977V7.01165C12 7.00774 12 7.00383 12 6.99993C12 4.80287 10.197 3.00017 8 3.00017ZM7.98438 5.99999C7.71936 6.00409 7.46683 6.11295 7.28225 6.30264C7.09767 6.49234 6.99615 6.74735 7 7.01165V11.9977C7 11.9977 6.99953 12.591 7.14453 13.314C7.28953 14.038 7.55697 14.9607 8.29297 15.6947C8.38517 15.7901 8.49551 15.8663 8.61756 15.9187C8.7396 15.9711 8.87089 15.9987 9.00376 15.9999C9.13662 16.0012 9.26841 15.976 9.3914 15.9258C9.5144 15.8757 9.62614 15.8016 9.72011 15.7079C9.81407 15.6142 9.88836 15.5028 9.93865 15.3801C9.98894 15.2575 10.0142 15.1261 10.013 14.9936C10.0118 14.861 9.9841 14.7301 9.93156 14.6084C9.87903 14.4867 9.8027 14.3766 9.70703 14.2846C9.44203 14.0214 9.21047 13.4479 9.10547 12.9254C9.00047 12.4018 9 11.9977 9 11.9977V7.01165C9.00194 6.87815 8.97699 6.74563 8.92662 6.62194C8.87626 6.49824 8.8015 6.38589 8.70678 6.29154C8.61207 6.1972 8.49932 6.12278 8.37523 6.07269C8.25114 6.02261 8.11823 5.99789 7.98438 5.99999ZM4.98438 9.98998C4.71971 9.99409 4.46747 10.1027 4.28295 10.2919C4.09843 10.4812 3.99668 10.7357 4 10.9997V13.9917C4 14.2562 4.10536 14.5099 4.29289 14.6969C4.48043 14.8839 4.73478 14.989 5 14.989C5.26522 14.989 5.51957 14.8839 5.70711 14.6969C5.89464 14.5099 6 14.2562 6 13.9917V10.9997C6.00168 10.8664 5.97653 10.734 5.92605 10.6106C5.87556 10.4871 5.80076 10.375 5.70607 10.2809C5.61138 10.1867 5.49873 10.1125 5.37477 10.0625C5.25081 10.0126 5.11806 9.98789 4.98438 9.98998ZM14 9.99975C13.8687 9.99975 13.7386 10.0256 13.6173 10.0759C13.496 10.1261 13.3858 10.1998 13.2929 10.2926C13.2 10.3855 13.1264 10.4957 13.0761 10.617C13.0259 10.7383 13 10.8684 13 10.9997C13 11.2649 13.1054 11.5192 13.2929 11.7067C13.4804 11.8943 13.7348 11.9996 14 11.9996C14.2652 11.9996 14.5196 11.8943 14.7071 11.7067C14.8946 11.5192 15 11.2649 15 10.9997C15 10.8684 14.9741 10.7383 14.9239 10.617C14.8736 10.4957 14.8 10.3855 14.7071 10.2926C14.6142 10.1998 14.504 10.1261 14.3827 10.0759C14.2614 10.0256 14.1313 9.99975 14 9.99975Z" fill="url(#paint0_linear_735_23)"/>
</g>
<defs>
<linearGradient id="paint0_linear_735_23" x1="0.797639" y1="0.157438" x2="17.2119" y2="14.9594" gradientUnits="userSpaceOnUse">
<stop stop-color="#F9D423"/>
<stop offset="0.515624" stop-color="#FF4E50"/>
<stop offset="0.991304" stop-color="#8A2387"/>
</linearGradient>
<clipPath id="clip0_735_23">
<rect width="16" height="16" fill="white"/>
</clipPath>
</defs>
</svg>
