<svg width="16" height="16" viewBox="0 0 16 16" fill="none" xmlns="http://www.w3.org/2000/svg">
<path d="M14.072 1.88077L14.1097 2.00126L14.5254 3.44874C14.5631 3.57995 14.5519 3.72037 14.4941 3.844C14.4362 3.96764 14.3355 4.06613 14.2106 4.12127L14.1383 4.14763L6.05971 6.46344H14.4644C14.601 6.46368 14.7329 6.5134 14.8356 6.6034C14.9384 6.69341 15.005 6.81759 15.0232 6.95296L15.0285 7.02827V13.4289C15.0285 13.9563 14.8273 14.4639 14.466 14.848C14.1047 15.2322 13.6104 15.464 13.084 15.4962L12.9574 15.5H3.54432C3.01693 15.5 2.50939 15.2989 2.12524 14.9375C1.74108 14.5762 1.50925 14.0819 1.47703 13.5555L1.47327 13.4282V7.1081L1.08014 5.73669C0.934854 5.22971 0.988449 4.68639 1.23 4.21757C1.47154 3.74875 1.88285 3.38974 2.38001 3.21377L2.50051 3.17461L11.5484 0.580145C12.0554 0.434854 12.5987 0.488449 13.0675 0.729996C13.5363 0.971544 13.8953 1.38285 14.0713 1.88001M13.8981 7.59235H2.60293V13.4282C2.60293 13.8831 2.92602 14.2626 3.35454 14.35L3.44792 14.3651L3.54432 14.3696H12.9582C13.1911 14.3695 13.4157 14.2831 13.5886 14.127C13.7616 13.9709 13.8705 13.7563 13.8943 13.5246L13.8988 13.4282L13.8981 7.59235ZM3.93744 3.93826L2.81079 4.2621C2.58703 4.3263 2.39499 4.47114 2.27176 4.66864C2.14853 4.86615 2.10285 5.1023 2.14354 5.33151L2.16613 5.42565L2.4252 6.33014L2.64737 6.26612L3.93744 3.93826ZM7.51923 2.91177L5.47303 3.49844L4.1822 5.82555L6.22916 5.23963L7.51923 2.91177ZM11.1025 1.88378L9.05558 2.4712L7.7655 4.79831L9.81095 4.21239L11.1025 1.88378ZM12.4935 1.7083L11.348 3.77182L13.2828 3.21678L13.0237 2.31305C12.9856 2.1793 12.9183 2.05568 12.8266 1.9511C12.7349 1.84653 12.6211 1.7636 12.4935 1.7083Z" fill="url(#paint0_linear_526_691)"/>
<path d="M14.072 1.88077L14.1097 2.00126L14.5254 3.44874C14.5631 3.57995 14.5519 3.72037 14.4941 3.844C14.4362 3.96764 14.3355 4.06613 14.2106 4.12127L14.1383 4.14763L6.05971 6.46344H14.4644C14.601 6.46368 14.7329 6.5134 14.8356 6.6034C14.9384 6.69341 15.005 6.81759 15.0232 6.95296L15.0285 7.02827V13.4289C15.0285 13.9563 14.8273 14.4639 14.466 14.848C14.1047 15.2322 13.6104 15.464 13.084 15.4962L12.9574 15.5H3.54432C3.01693 15.5 2.50939 15.2989 2.12524 14.9375C1.74108 14.5762 1.50925 14.0819 1.47703 13.5555L1.47327 13.4282V7.1081L1.08014 5.73669C0.934854 5.22971 0.988449 4.68639 1.23 4.21757C1.47154 3.74875 1.88285 3.38974 2.38001 3.21377L2.50051 3.17461L11.5484 0.580145C12.0554 0.434854 12.5987 0.488449 13.0675 0.729996C13.5363 0.971544 13.8953 1.38285 14.0713 1.88001M13.8981 7.59235H2.60293V13.4282C2.60293 13.8831 2.92602 14.2626 3.35454 14.35L3.44792 14.3651L3.54432 14.3696H12.9582C13.1911 14.3695 13.4157 14.2831 13.5886 14.127C13.7616 13.9709 13.8705 13.7563 13.8943 13.5246L13.8988 13.4282L13.8981 7.59235ZM3.93744 3.93826L2.81079 4.2621C2.58703 4.3263 2.39499 4.47114 2.27176 4.66864C2.14853 4.86615 2.10285 5.1023 2.14354 5.33151L2.16613 5.42565L2.4252 6.33014L2.64737 6.26612L3.93744 3.93826ZM7.51923 2.91177L5.47303 3.49844L4.1822 5.82555L6.22916 5.23963L7.51923 2.91177ZM11.1025 1.88378L9.05558 2.4712L7.7655 4.79831L9.81095 4.21239L11.1025 1.88378ZM12.4935 1.7083L11.348 3.77182L13.2828 3.21678L13.0237 2.31305C12.9856 2.1793 12.9183 2.05568 12.8266 1.9511C12.7349 1.84653 12.6211 1.7636 12.4935 1.7083Z" stroke="url(#paint1_linear_526_691)" stroke-width="0.6"/>
<path d="M8.38052 12.3626C8.24409 12.4515 8.10466 12.5362 7.9624 12.6167C7.39013 12.9427 7.10426 13.1057 6.84773 12.9252C6.59173 12.7452 6.56827 12.3671 6.52133 11.6111C6.50853 11.3975 6.5 11.188 6.5 11C6.5 10.812 6.50853 10.6025 6.52133 10.3889C6.56827 9.63286 6.59173 9.25533 6.84773 9.07481C7.10426 8.89429 7.39066 9.05731 7.9624 9.38335C8.11067 9.46785 8.25414 9.55386 8.38052 9.63736C8.52453 9.73238 8.68186 9.84638 8.84026 9.9674C9.41359 10.4059 9.7 10.625 9.7 11C9.7 11.375 9.41359 11.594 8.84026 12.0326C8.68186 12.1536 8.52506 12.2676 8.38052 12.3626Z" fill="url(#paint2_linear_526_691)"/>
<defs>
<linearGradient id="paint0_linear_526_691" x1="2.39934" y1="17.3392" x2="17.424" y2="8.30604" gradientUnits="userSpaceOnUse">
<stop stop-color="#AE4CFF"/>
<stop offset="1" stop-color="#FFADFF"/>
</linearGradient>
<linearGradient id="paint1_linear_526_691" x1="2.39934" y1="17.3392" x2="17.424" y2="8.30604" gradientUnits="userSpaceOnUse">
<stop stop-color="#AE4CFF"/>
<stop offset="1" stop-color="#FFADFF"/>
</linearGradient>
<linearGradient id="paint2_linear_526_691" x1="6.8192" y1="13.4904" x2="10.5093" y2="11.5927" gradientUnits="userSpaceOnUse">
<stop stop-color="#AE4CFF"/>
<stop offset="1" stop-color="#FFADFF"/>
</linearGradient>
</defs>
</svg>
