<svg width="64" height="64" viewBox="0 0 64 64" fill="none" xmlns="http://www.w3.org/2000/svg">
<path fill-rule="evenodd" clip-rule="evenodd" d="M35.17 19.1688H28.8301C26.6709 17.2086 23.1123 15.0377 19.6586 13.3386C17.7356 12.3925 15.7757 11.5583 14.0074 10.963C12.2926 10.3856 10.5726 9.96752 9.20305 10.002C9.1695 10.0028 9.13618 10.0046 9.10311 10.0071C8.36603 10.0378 7.36519 10.2178 6.62279 10.9751C6.12086 11.487 5.77999 12.1304 5.53462 12.7386C5.28185 13.3651 5.0834 14.0741 4.92288 14.8159C4.6021 16.2982 4.39847 18.0755 4.26535 19.9255C3.99999 23.6133 3.99999 27.8273 4 31.0378V31.0834C4 31.1495 4.00245 31.2056 4.0045 31.2439C4.00552 31.2631 4.00658 31.2801 4.00731 31.2917L4.0089 31.3168C4.07 32.3237 4.92 33.0999 5.9283 33.0696C6.93659 33.0392 7.73837 32.2133 7.7388 31.2045C7.74019 27.9599 7.75904 24.0458 8.02164 20.6974C8.15316 19.0205 8.34175 17.5442 8.60248 16.3938C8.81805 15.4427 9.04063 14.9195 9.18164 14.6752C9.21472 14.6725 9.25302 14.6704 9.29687 14.6693L9.29695 14.6693C9.98247 14.652 11.1866 14.8875 12.8162 15.436C14.3924 15.9666 16.1972 16.7308 18.0108 17.6228C21.6977 19.4362 25.1456 21.6413 26.7478 23.2756C27.0988 23.6337 27.5792 23.8355 28.0807 23.8355H35.9193C36.4208 23.8355 36.9012 23.6337 37.2522 23.2756C39.0965 21.3944 43.3497 18.7874 47.5353 16.8934C49.602 15.9582 51.5372 15.2499 53.0305 14.901C53.7842 14.7249 54.3402 14.6609 54.7039 14.6701C54.7482 14.6712 54.7861 14.6732 54.8183 14.6757C54.9589 14.9203 55.1814 15.445 55.3971 16.3995C55.658 17.5543 55.8466 19.0358 55.9782 20.7163C56.2409 24.0715 56.2598 27.9861 56.2612 31.2045C56.2616 32.2122 57.0618 33.0377 58.0689 33.0695C59.0761 33.1013 59.9267 32.328 59.9908 31.3224L59.9912 31.3165C59.9931 31.2886 60 31.187 60 31.0816V31.0367C60 27.8572 60 23.6436 59.7347 19.9484C59.6016 18.0948 59.398 16.3122 59.0774 14.8256C58.917 14.0817 58.7187 13.3708 58.4661 12.7428C58.2211 12.1336 57.8802 11.488 57.377 10.9749C56.5996 10.182 55.5398 10.0232 54.7977 10.0046C53.9873 9.98421 53.0853 10.1209 52.181 10.3323C50.3582 10.7582 48.1768 11.572 45.9962 12.5587C42.0202 14.3579 37.6566 16.9119 35.17 19.1688ZM54.9668 14.698C54.9678 14.6983 54.9684 14.6983 54.9685 14.6983C54.9687 14.6981 54.965 14.6968 54.9571 14.6949C54.9617 14.6965 54.965 14.6975 54.9668 14.698ZM20.8002 31.4699C18.3248 31.4699 15.9509 32.6499 14.2005 34.7503C12.4502 36.8507 11.4669 39.6995 11.4669 42.6699C11.4669 45.6403 12.4502 48.489 14.2005 50.5894C15.9509 52.6898 18.3248 53.8698 20.8002 53.8698C23.2755 53.8698 25.6495 52.6898 27.3998 50.5894C29.1501 48.489 30.1335 45.6403 30.1335 42.6699C30.1335 39.6995 29.1501 36.8507 27.3998 34.7503C25.6495 32.6499 23.2755 31.4699 20.8002 31.4699ZM20.8002 35.2032C22.2854 35.2032 23.7098 35.9899 24.76 37.3902C25.8102 38.7904 26.4002 40.6896 26.4002 42.6699C26.4002 44.6501 25.8102 46.5493 24.76 47.9496C23.7098 49.3498 22.2854 50.1365 20.8002 50.1365C19.315 50.1365 17.8906 49.3498 16.8404 47.9496C15.7902 46.5493 15.2002 44.6501 15.2002 42.6699C15.2002 40.6896 15.7902 38.7904 16.8404 37.3902C17.8906 35.9899 19.315 35.2032 20.8002 35.2032ZM43.1998 31.4699C40.7244 31.4699 38.3505 32.6499 36.6001 34.7503C34.8498 36.8507 33.8665 39.6995 33.8665 42.6699C33.8665 45.6403 34.8498 48.489 36.6001 50.5894C38.3505 52.6898 40.7244 53.8698 43.1998 53.8698C45.6751 53.8698 48.0491 52.6898 49.7994 50.5894C51.5497 48.489 52.5331 45.6403 52.5331 42.6699C52.5331 39.6995 51.5497 36.8507 49.7994 34.7503C48.0491 32.6499 45.6751 31.4699 43.1998 31.4699ZM43.1998 35.2032C44.685 35.2032 46.1093 35.9899 47.1595 37.3902C48.2098 38.7904 48.7997 40.6896 48.7997 42.6699C48.7997 44.6501 48.2098 46.5493 47.1595 47.9496C46.1093 49.3498 44.685 50.1365 43.1998 50.1365C41.7146 50.1365 40.2902 49.3498 39.24 47.9496C38.1898 46.5493 37.5998 44.6501 37.5998 42.6699C37.5998 40.6896 38.1898 38.7904 39.24 37.3902C40.2902 35.9899 41.7146 35.2032 43.1998 35.2032Z" fill="url(#paint0_linear_935_4)"/>
<path d="M28.8301 19.1688L28.1579 19.9092C28.342 20.0763 28.5816 20.1688 28.8301 20.1688V19.1688ZM35.17 19.1688V20.1688C35.4185 20.1688 35.658 20.0763 35.842 19.9093L35.17 19.1688ZM19.6586 13.3386L20.1001 12.4413L19.6586 13.3386ZM14.0074 10.963L13.6883 11.9107L13.6883 11.9107L14.0074 10.963ZM9.20305 10.002L9.2282 11.0017L9.2282 11.0017L9.20305 10.002ZM9.10311 10.0071L9.14473 11.0063C9.15683 11.0058 9.16892 11.005 9.181 11.0041L9.10311 10.0071ZM6.62279 10.9751L5.90872 10.275L5.90872 10.275L6.62279 10.9751ZM5.53462 12.7386L6.46199 13.1127L6.46199 13.1127L5.53462 12.7386ZM4.92288 14.8159L3.94551 14.6043L3.94551 14.6043L4.92288 14.8159ZM4.26535 19.9255L5.26277 19.9973L5.26277 19.9973L4.26535 19.9255ZM4 31.0378L5 31.0378L5 31.0378L4 31.0378ZM4.0045 31.2439L5.00307 31.1906L5.00307 31.1906L4.0045 31.2439ZM4.00731 31.2917L5.00533 31.2287L5.00533 31.2287L4.00731 31.2917ZM4.0089 31.3168L5.00706 31.2562L5.00691 31.2538L4.0089 31.3168ZM5.9283 33.0696L5.95838 34.0691L5.95839 34.0691L5.9283 33.0696ZM7.7388 31.2045L8.7388 31.205L8.7388 31.205L7.7388 31.2045ZM8.02164 20.6974L7.0247 20.6193L7.0247 20.6193L8.02164 20.6974ZM8.60248 16.3938L7.62722 16.1728L7.62722 16.1728L8.60248 16.3938ZM9.18164 14.6752L9.0998 13.6786C8.77276 13.7055 8.4797 13.8911 8.31562 14.1752L9.18164 14.6752ZM9.29687 14.6693L9.32198 15.669L9.32716 15.6688L9.29687 14.6693ZM9.29695 14.6693L9.2718 13.6696L9.26666 13.6698L9.29695 14.6693ZM12.8162 15.436L13.1352 14.4883L13.1352 14.4883L12.8162 15.436ZM18.0108 17.6228L18.4521 16.7254L18.4521 16.7254L18.0108 17.6228ZM26.7478 23.2756L26.0337 23.9757L26.0337 23.9757L26.7478 23.2756ZM37.2522 23.2756L36.5381 22.5756L36.5381 22.5756L37.2522 23.2756ZM47.5353 16.8934L47.9476 17.8044L47.9476 17.8044L47.5353 16.8934ZM53.0305 14.901L52.803 13.9272L52.803 13.9272L53.0305 14.901ZM54.7039 14.6701L54.6788 15.6697L54.6788 15.6697L54.7039 14.6701ZM54.8183 14.6757L55.6853 14.1774C55.5208 13.8912 55.2255 13.7046 54.8964 13.6788L54.8183 14.6757ZM55.3971 16.3995L54.4217 16.6198L54.4217 16.6198L55.3971 16.3995ZM55.9782 20.7163L56.9751 20.6383L56.9751 20.6382L55.9782 20.7163ZM56.2612 31.2045L57.2612 31.2041L57.2612 31.2041L56.2612 31.2045ZM58.0689 33.0695L58.1005 32.07L58.1005 32.07L58.0689 33.0695ZM59.9908 31.3224L58.9931 31.2545L58.9928 31.2588L59.9908 31.3224ZM59.9912 31.3165L58.9935 31.2485L58.9935 31.2487L59.9912 31.3165ZM60 31.0367L59 31.0367V31.0367H60ZM59.7347 19.9484L60.7321 19.8768L60.7321 19.8768L59.7347 19.9484ZM59.0774 14.8256L58.0999 15.0364L58.0999 15.0364L59.0774 14.8256ZM58.4661 12.7428L59.3939 12.3696L59.3939 12.3696L58.4661 12.7428ZM57.377 10.9749L56.663 11.675L56.6631 11.6751L57.377 10.9749ZM54.7977 10.0046L54.8228 9.00488L54.8228 9.00488L54.7977 10.0046ZM52.181 10.3323L52.4085 11.306L52.4085 11.306L52.181 10.3323ZM45.9962 12.5587L46.4085 13.4698L46.4085 13.4698L45.9962 12.5587ZM54.9685 14.6983L55.6087 15.4665C55.6141 15.462 55.6194 15.4575 55.6247 15.4529L54.9685 14.6983ZM54.9668 14.698L55.2147 13.7292L55.2145 13.7292L54.9668 14.698ZM54.9571 14.6949L55.1961 13.7239C54.6788 13.5965 54.1526 13.8971 53.9993 14.4073C53.8461 14.9175 54.1198 15.4582 54.6216 15.6369L54.9571 14.6949ZM14.2005 34.7503L14.9688 35.3905L14.9688 35.3905L14.2005 34.7503ZM14.2005 50.5894L14.9688 49.9493L14.9688 49.9493L14.2005 50.5894ZM27.3998 50.5894L26.6316 49.9493L26.6316 49.9493L27.3998 50.5894ZM27.3998 34.7503L28.168 34.1101L28.168 34.1101L27.3998 34.7503ZM24.76 47.9496L23.96 47.3496L23.96 47.3496L24.76 47.9496ZM16.8404 47.9496L17.6404 47.3496L17.6404 47.3496L16.8404 47.9496ZM16.8404 37.3902L17.6404 37.9902L17.6404 37.9902L16.8404 37.3902ZM36.6001 34.7503L35.8319 34.1101L35.8319 34.1101L36.6001 34.7503ZM36.6001 50.5894L35.8319 51.2296L35.8319 51.2296L36.6001 50.5894ZM49.7994 50.5894L49.0312 49.9493L49.0312 49.9493L49.7994 50.5894ZM49.7994 34.7503L49.0312 35.3905L49.0312 35.3905L49.7994 34.7503ZM47.1595 47.9496L46.3596 47.3496L46.3595 47.3496L47.1595 47.9496ZM39.24 47.9496L38.44 48.5496L38.44 48.5496L39.24 47.9496ZM39.24 37.3902L38.44 36.7902L38.44 36.7902L39.24 37.3902ZM28.8301 20.1688H35.17V18.1688H28.8301V20.1688ZM19.2172 14.2358C22.6361 15.9179 26.0992 18.0402 28.1579 19.9092L29.5023 18.4284C27.2425 16.3769 23.5886 14.1575 20.1001 12.4413L19.2172 14.2358ZM13.6883 11.9107C15.4051 12.4887 17.3235 13.3042 19.2172 14.2358L20.1001 12.4413C18.1477 11.4808 16.1462 10.628 14.3265 10.0152L13.6883 11.9107ZM9.2282 11.0017C10.4148 10.9718 11.9969 11.3412 13.6883 11.9107L14.3265 10.0152C12.5883 9.42999 10.7304 8.96324 9.17789 9.0023L9.2282 11.0017ZM9.181 11.0041C9.19653 11.0029 9.21227 11.0021 9.2282 11.0017L9.1779 9.0023C9.12674 9.00359 9.07583 9.00622 9.02521 9.01018L9.181 11.0041ZM7.33687 11.6751C7.81377 11.1887 8.50065 11.0331 9.14473 11.0063L9.06148 9.008C8.23142 9.04259 6.91661 9.24695 5.90872 10.275L7.33687 11.6751ZM6.46199 13.1127C6.68297 12.565 6.9637 12.0558 7.33687 11.6751L5.90872 10.275C5.27801 10.9183 4.87701 11.6958 4.60725 12.3645L6.46199 13.1127ZM5.90026 15.0274C6.05348 14.3193 6.23746 13.6693 6.46199 13.1127L4.60725 12.3645C4.32624 13.061 4.11332 13.8289 3.94551 14.6043L5.90026 15.0274ZM5.26277 19.9973C5.39446 18.1671 5.5939 16.443 5.90026 15.0274L3.94551 14.6043C3.6103 16.1533 3.40247 17.9839 3.26793 19.8537L5.26277 19.9973ZM5 31.0378C4.99999 27.82 5.00045 23.6428 5.26277 19.9973L3.26793 19.8537C2.99953 23.5837 2.99999 27.8346 3 31.0378L5 31.0378ZM5 31.0834V31.0378H3V31.0834H5ZM5.00307 31.1906C5.00156 31.1622 5 31.1252 5 31.0834H3C3 31.1737 3.00334 31.2491 3.00592 31.2973L5.00307 31.1906ZM5.00533 31.2287C5.00465 31.2181 5.00383 31.2048 5.00307 31.1906L3.00592 31.2973C3.00721 31.3213 3.00851 31.3422 3.0093 31.3547L5.00533 31.2287ZM5.00691 31.2538L5.00533 31.2287L3.0093 31.3547L3.01088 31.3798L5.00691 31.2538ZM5.89821 32.07C5.43007 32.0841 5.03543 31.7237 5.00706 31.2562L3.01073 31.3774C3.10457 32.9237 4.40993 34.1157 5.95838 34.0691L5.89821 32.07ZM6.7388 31.2041C6.7386 31.6725 6.36635 32.0559 5.89821 32.07L5.95839 34.0691C7.50684 34.0225 8.73814 32.7541 8.7388 31.205L6.7388 31.2041ZM7.0247 20.6193C6.7586 24.0122 6.74019 27.9639 6.7388 31.2041L8.7388 31.205C8.74019 27.9558 8.75948 24.0794 9.01858 20.7756L7.0247 20.6193ZM7.62722 16.1728C7.35112 17.391 7.15785 18.9215 7.0247 20.6193L9.01858 20.7756C9.14847 19.1194 9.33238 17.6974 9.57775 16.6148L7.62722 16.1728ZM8.31562 14.1752C8.10629 14.5378 7.85524 15.1667 7.62722 16.1728L9.57775 16.6148C9.78086 15.7187 9.97497 15.3012 10.0477 15.1753L8.31562 14.1752ZM9.27177 13.6696C9.21021 13.6712 9.15294 13.6742 9.0998 13.6786L9.26348 15.6719C9.27649 15.6708 9.29583 15.6696 9.32198 15.669L9.27177 13.6696ZM9.26666 13.6698L9.26659 13.6698L9.32716 15.6688L9.32724 15.6688L9.26666 13.6698ZM13.1352 14.4883C11.4836 13.9324 10.141 13.6477 9.2718 13.6696L9.32211 15.669C9.82398 15.6563 10.8895 15.8426 12.4972 16.3838L13.1352 14.4883ZM18.4521 16.7254C16.6092 15.819 14.7628 15.0361 13.1352 14.4883L12.4972 16.3838C14.0219 16.897 15.7852 17.6425 17.5694 18.5201L18.4521 16.7254ZM27.4619 22.5756C25.7379 20.817 22.1654 18.5518 18.4521 16.7254L17.5694 18.5201C21.2299 20.3205 24.5533 22.4656 26.0337 23.9757L27.4619 22.5756ZM28.0807 22.8355C27.8479 22.8355 27.6249 22.7418 27.4618 22.5756L26.0337 23.9757C26.5728 24.5256 27.3106 24.8355 28.0807 24.8355V22.8355ZM35.9193 22.8355H28.0807V24.8355H35.9193V22.8355ZM36.5381 22.5756C36.3752 22.7418 36.1521 22.8355 35.9193 22.8355V24.8355C36.6894 24.8355 37.4272 24.5256 37.9663 23.9757L36.5381 22.5756ZM47.1231 15.9823C42.9046 17.8912 38.5145 20.5596 36.5381 22.5756L37.9663 23.9757C39.6785 22.2292 43.7948 19.6836 47.9476 17.8044L47.1231 15.9823ZM52.803 13.9272C51.2214 14.2968 49.2202 15.0333 47.1231 15.9823L47.9476 17.8044C49.9838 16.883 51.8531 16.2031 53.2581 15.8748L52.803 13.9272ZM54.729 13.6704C54.2455 13.6582 53.5968 13.7417 52.803 13.9272L53.2581 15.8748C53.9717 15.708 54.4349 15.6636 54.6788 15.6697L54.729 13.6704ZM54.8964 13.6788C54.8455 13.6748 54.7899 13.6719 54.729 13.6704L54.6788 15.6697C54.7065 15.6704 54.7268 15.6716 54.7403 15.6727L54.8964 13.6788ZM56.3725 16.1791C56.1445 15.1698 55.8936 14.5399 55.6853 14.1774L53.9513 15.1741C54.0241 15.3007 54.2184 15.7203 54.4217 16.6198L56.3725 16.1791ZM56.9751 20.6382C56.842 18.9371 56.6487 17.4015 56.3725 16.1791L54.4217 16.6198C54.6673 17.7071 54.8513 19.1345 54.9812 20.7944L56.9751 20.6382ZM57.2612 31.2041C57.2598 27.99 57.2413 24.0379 56.9751 20.6383L54.9812 20.7943C55.2404 24.1051 55.2598 27.9822 55.2612 31.205L57.2612 31.2041ZM58.1005 32.07C57.6329 32.0552 57.2614 31.672 57.2612 31.2041L55.2612 31.205C55.2619 32.7525 56.4906 34.0201 58.0373 34.069L58.1005 32.07ZM58.9928 31.2588C58.963 31.7257 58.5681 32.0847 58.1005 32.07L58.0373 34.069C59.5841 34.1178 60.8904 32.9303 60.9887 31.3859L58.9928 31.2588ZM58.9935 31.2487L58.9931 31.2545L60.9885 31.3903L60.9888 31.3844L58.9935 31.2487ZM59 31.0816C59 31.1504 58.9952 31.2229 58.9935 31.2485L60.9888 31.3846C60.9909 31.3543 61 31.2236 61 31.0816H59ZM59 31.0367V31.0816H61V31.0367H59ZM58.7372 20.02C58.9996 23.6731 59 27.85 59 31.0367L61 31.0367C61 27.8643 61.0005 23.614 60.7321 19.8768L58.7372 20.02ZM58.0999 15.0364C58.4061 16.4566 58.6056 18.1862 58.7372 20.02L60.7321 19.8768C60.5976 18.0035 60.3898 16.1678 60.0549 14.6147L58.0999 15.0364ZM57.5383 13.116C57.7628 13.674 57.9467 14.3261 58.0999 15.0364L60.0549 14.6147C59.8873 13.8373 59.6746 13.0675 59.3939 12.3696L57.5383 13.116ZM56.6631 11.6751C57.0368 12.0562 57.3175 12.567 57.5383 13.116L59.3939 12.3696C59.1247 11.7003 58.7236 10.9198 58.091 10.2747L56.6631 11.6751ZM54.7725 11.0043C55.433 11.0208 56.1626 11.1647 56.663 11.675L58.0911 10.2748C57.0366 9.19931 55.6467 9.02558 54.8228 9.00488L54.7725 11.0043ZM52.4085 11.306C53.2723 11.1042 54.0817 10.9869 54.7725 11.0043L54.8228 9.00488C53.8928 8.98152 52.8982 9.13771 51.9534 9.3585L52.4085 11.306ZM46.4085 13.4698C48.5585 12.4969 50.674 11.7114 52.4085 11.306L51.9534 9.3585C50.0424 9.80508 47.7951 10.6471 45.584 11.6477L46.4085 13.4698ZM35.842 19.9093C38.218 17.7529 42.4749 15.2498 46.4085 13.4698L45.584 11.6477C41.5655 13.466 37.0952 16.071 34.4979 18.4284L35.842 19.9093ZM54.3283 13.9301C54.4763 13.8067 54.6228 13.7572 54.6918 13.7373C54.7703 13.7147 54.8356 13.7064 54.8735 13.7028C54.9488 13.6956 55.0082 13.6988 55.0328 13.7004C55.0872 13.7039 55.1292 13.7112 55.1431 13.7137C55.1781 13.7199 55.2049 13.7267 55.2147 13.7292L54.7189 15.6668C54.7297 15.6695 54.7573 15.6765 54.7929 15.6828C54.8071 15.6853 54.8493 15.6927 54.9039 15.6962C54.9286 15.6978 54.988 15.701 55.0633 15.6938C55.1013 15.6902 55.1667 15.6819 55.2451 15.6593C55.3142 15.6394 55.4606 15.5899 55.6087 15.4665L54.3283 13.9301ZM54.7181 15.6659C54.7087 15.6636 54.6907 15.659 54.6674 15.6517C54.6589 15.649 54.6329 15.6408 54.6 15.6278C54.5911 15.6243 54.542 15.6052 54.4833 15.5727C54.4704 15.5655 54.3675 15.5107 54.2639 15.4079C54.2231 15.3674 54.0689 15.2122 54.0007 14.9501C53.9614 14.7989 53.9495 14.6048 54.0148 14.3976C54.0797 14.1916 54.1992 14.0421 54.3123 13.9437L55.6247 15.4529C55.7378 15.3545 55.8573 15.205 55.9222 14.9989C55.9875 14.7918 55.9756 14.5977 55.9363 14.4464C55.8681 14.1843 55.7139 14.0291 55.673 13.9886C55.5694 13.8857 55.4664 13.8309 55.4534 13.8237C55.3946 13.7911 55.3451 13.7718 55.3358 13.7681C55.3021 13.7548 55.2747 13.7461 55.2642 13.7428C55.2372 13.7344 55.2135 13.7281 55.1961 13.7239L54.7181 15.6659ZM55.2145 13.7292C55.2366 13.7348 55.2537 13.74 55.2636 13.7431C55.2749 13.7467 55.2846 13.75 55.2926 13.7528L54.6216 15.6369C54.6424 15.6443 54.6769 15.656 54.719 15.6668L55.2145 13.7292ZM14.9688 35.3905C16.5516 33.4911 18.655 32.4699 20.8002 32.4699V30.4699C17.9947 30.4699 15.3502 31.8087 13.4323 34.1101L14.9688 35.3905ZM12.4669 42.6699C12.4669 39.9117 13.3815 37.2952 14.9688 35.3905L13.4323 34.1101C11.5189 36.4062 10.4669 39.4872 10.4669 42.6699H12.4669ZM14.9688 49.9493C13.3815 48.0446 12.4669 45.4281 12.4669 42.6699H10.4669C10.4669 45.8525 11.5189 48.9335 13.4323 51.2296L14.9688 49.9493ZM20.8002 52.8698C18.655 52.8698 16.5516 51.8486 14.9688 49.9493L13.4323 51.2296C15.3502 53.5311 17.9947 54.8698 20.8002 54.8698V52.8698ZM26.6316 49.9493C25.0488 51.8486 22.9453 52.8698 20.8002 52.8698V54.8698C23.6057 54.8698 26.2502 53.5311 28.168 51.2296L26.6316 49.9493ZM29.1335 42.6699C29.1335 45.4281 28.2188 48.0446 26.6316 49.9493L28.168 51.2296C30.0815 48.9335 31.1335 45.8525 31.1335 42.6699H29.1335ZM26.6316 35.3905C28.2188 37.2952 29.1335 39.9117 29.1335 42.6699H31.1335C31.1335 39.4872 30.0815 36.4062 28.168 34.1101L26.6316 35.3905ZM20.8002 32.4699C22.9453 32.4699 25.0488 33.4911 26.6316 35.3905L28.168 34.1101C26.2502 31.8087 23.6057 30.4699 20.8002 30.4699V32.4699ZM25.56 36.7902C24.359 35.1889 22.6587 34.2032 20.8002 34.2032V36.2032C21.9121 36.2032 23.0605 36.7909 23.96 37.9902L25.56 36.7902ZM27.4002 42.6699C27.4002 40.503 26.7568 38.3859 25.56 36.7902L23.96 37.9902C24.8635 39.1949 25.4002 40.8762 25.4002 42.6699H27.4002ZM25.56 48.5496C26.7568 46.9538 27.4002 44.8368 27.4002 42.6699H25.4002C25.4002 44.4635 24.8635 46.1448 23.96 47.3496L25.56 48.5496ZM20.8002 51.1365C22.6587 51.1365 24.359 50.1508 25.56 48.5496L23.96 47.3496C23.0605 48.5489 21.9121 49.1365 20.8002 49.1365V51.1365ZM16.0404 48.5496C17.2413 50.1508 18.9417 51.1365 20.8002 51.1365V49.1365C19.6882 49.1365 18.5398 48.5489 17.6404 47.3496L16.0404 48.5496ZM14.2002 42.6699C14.2002 44.8368 14.8436 46.9538 16.0404 48.5496L17.6404 47.3496C16.7368 46.1448 16.2002 44.4635 16.2002 42.6699H14.2002ZM16.0404 36.7902C14.8436 38.3859 14.2002 40.503 14.2002 42.6699H16.2002C16.2002 40.8762 16.7368 39.1949 17.6404 37.9902L16.0404 36.7902ZM20.8002 34.2032C18.9417 34.2032 17.2413 35.1889 16.0404 36.7902L17.6404 37.9902C18.5398 36.7909 19.6882 36.2032 20.8002 36.2032V34.2032ZM37.3683 35.3905C38.9512 33.4911 41.0546 32.4699 43.1998 32.4699V30.4699C40.3942 30.4699 37.7498 31.8087 35.8319 34.1101L37.3683 35.3905ZM34.8665 42.6699C34.8665 39.9117 35.7811 37.2952 37.3683 35.3905L35.8319 34.1101C33.9185 36.4062 32.8665 39.4872 32.8665 42.6699H34.8665ZM37.3683 49.9493C35.7811 48.0446 34.8665 45.4281 34.8665 42.6699H32.8665C32.8665 45.8525 33.9185 48.9335 35.8319 51.2296L37.3683 49.9493ZM43.1998 52.8698C41.0546 52.8698 38.9512 51.8486 37.3683 49.9493L35.8319 51.2296C37.7498 53.5311 40.3942 54.8698 43.1998 54.8698V52.8698ZM49.0312 49.9493C47.4484 51.8486 45.3449 52.8698 43.1998 52.8698V54.8698C46.0053 54.8698 48.6498 53.5311 50.5676 51.2296L49.0312 49.9493ZM51.5331 42.6699C51.5331 45.4281 50.6184 48.0446 49.0312 49.9493L50.5676 51.2296C52.4811 48.9335 53.5331 45.8525 53.5331 42.6699H51.5331ZM49.0312 35.3905C50.6184 37.2952 51.5331 39.9117 51.5331 42.6699H53.5331C53.5331 39.4872 52.4811 36.4062 50.5676 34.1101L49.0312 35.3905ZM43.1998 32.4699C45.3449 32.4699 47.4484 33.4911 49.0312 35.3905L50.5676 34.1101C48.6498 31.8087 46.0053 30.4699 43.1998 30.4699V32.4699ZM47.9595 36.7902C46.7586 35.1889 45.0583 34.2032 43.1998 34.2032V36.2032C44.3117 36.2032 45.4601 36.7909 46.3596 37.9902L47.9595 36.7902ZM49.7997 42.6699C49.7997 40.503 49.1564 38.3859 47.9595 36.7902L46.3596 37.9902C47.2631 39.1949 47.7997 40.8762 47.7997 42.6699H49.7997ZM47.9595 48.5496C49.1564 46.9538 49.7997 44.8368 49.7997 42.6699H47.7997C47.7997 44.4635 47.2631 46.1448 46.3596 47.3496L47.9595 48.5496ZM43.1998 51.1365C45.0583 51.1365 46.7586 50.1508 47.9595 48.5496L46.3595 47.3496C45.4601 48.5489 44.3117 49.1365 43.1998 49.1365V51.1365ZM38.44 48.5496C39.6409 50.1508 41.3413 51.1365 43.1998 51.1365V49.1365C42.0878 49.1365 40.9394 48.5489 40.04 47.3496L38.44 48.5496ZM36.5998 42.6699C36.5998 44.8368 37.2432 46.9538 38.44 48.5496L40.04 47.3496C39.1364 46.1448 38.5998 44.4635 38.5998 42.6699H36.5998ZM38.44 36.7902C37.2432 38.3859 36.5998 40.503 36.5998 42.6699H38.5998C38.5998 40.8762 39.1364 39.1949 40.04 37.9902L38.44 36.7902ZM43.1998 34.2032C41.3413 34.2032 39.6409 35.1889 38.44 36.7902L40.04 37.9902C40.9394 36.7909 42.0878 36.2032 43.1998 36.2032V34.2032Z" fill="url(#paint1_linear_935_4)"/>
<defs>
<linearGradient id="paint0_linear_935_4" x1="32" y1="10" x2="32" y2="53.8698" gradientUnits="userSpaceOnUse">
<stop stop-color="#0EEBB6"/>
<stop offset="1" stop-color="#04B6CE"/>
</linearGradient>
<linearGradient id="paint1_linear_935_4" x1="32" y1="10" x2="32" y2="53.8698" gradientUnits="userSpaceOnUse">
<stop stop-color="#0EEBB6"/>
<stop offset="1" stop-color="#04B6CE"/>
</linearGradient>
</defs>
</svg>
