<svg width="16" height="16" viewBox="0 0 16 16" fill="none" xmlns="http://www.w3.org/2000/svg">
<path fill-rule="evenodd" clip-rule="evenodd" d="M9.77219 0.646575L9.70118 0.628998C9.35237 0.542191 8.91689 0.433817 8.40578 0.593706C8.1718 0.666903 7.9638 0.794997 7.8055 0.919215C7.64721 1.04343 7.47333 1.21501 7.3466 1.42488C7.06798 1.88627 7.07057 2.40297 7.07269 2.82493V2.825C7.07287 2.86087 7.07305 2.89606 7.07305 2.93048V4.774L7.07305 4.8094C7.07303 5.33927 7.07302 5.79045 7.10329 6.16089C7.13508 6.55005 7.20472 6.92864 7.38913 7.29057C7.66716 7.83624 8.11081 8.27989 8.65648 8.55792C9.01841 8.74233 9.397 8.81197 9.78616 8.84376C10.1566 8.87403 10.6078 8.87402 11.1376 8.874L11.173 8.874H13.0166C13.051 8.874 13.0862 8.87418 13.1221 8.87436C13.5441 8.87648 14.0608 8.87907 14.5222 8.60045C14.732 8.47372 14.9036 8.29984 15.0278 8.14155C15.1521 7.98325 15.2801 7.77525 15.3533 7.54127C15.5132 7.03016 15.4049 6.59468 15.3181 6.24587L15.3005 6.17486C14.6342 3.45315 12.4939 1.31284 9.77219 0.646575ZM8.96422 2.31244L8.95102 2.31124C8.9417 2.31693 8.92977 2.32502 8.91672 2.33527C8.90677 2.34307 8.89819 2.35054 8.89125 2.35706C8.88959 2.36646 8.88762 2.37969 8.88564 2.39771C8.87429 2.50081 8.87305 2.64412 8.87305 2.93048V4.774C8.87305 5.3489 8.87375 5.72595 8.89731 6.01431C8.92001 6.29216 8.95937 6.4075 8.99294 6.47339C9.0984 6.68037 9.26668 6.84865 9.47366 6.95411C9.53955 6.98768 9.65489 7.02704 9.93274 7.04974C10.2211 7.0733 10.5981 7.074 11.173 7.074H13.0166C13.3029 7.074 13.4462 7.07276 13.5493 7.06141C13.5674 7.05943 13.5806 7.05746 13.59 7.0558C13.5965 7.04885 13.604 7.04028 13.6118 7.03033C13.622 7.01727 13.6301 7.00535 13.6358 6.99603L13.6346 6.98282C13.632 6.95834 13.6258 6.91956 13.6115 6.85364C13.597 6.78653 13.5781 6.70914 13.5521 6.60285C13.0454 4.533 11.414 2.90164 9.3442 2.39495C9.2379 2.36893 9.16052 2.35005 9.09341 2.33554C9.02749 2.32128 8.9887 2.3151 8.96422 2.31244ZM8.89562 2.3376L8.89471 2.34054C8.89527 2.33842 8.8956 2.33752 8.89562 2.3376ZM13.6095 7.05143C13.6095 7.05145 13.6086 7.05178 13.6065 7.05234L13.6095 7.05143ZM6.24984 2.49324C6.72405 2.3443 6.98774 1.83913 6.8388 1.36491C6.68986 0.890693 6.18468 0.627007 5.71047 0.77595C2.6508 1.73694 0.429688 4.5949 0.429688 7.97398C0.429688 12.1401 3.80704 15.5175 7.97321 15.5175C11.3523 15.5175 14.2102 13.2964 15.1712 10.2367C15.3202 9.7625 15.0565 9.25733 14.5823 9.10839C14.1081 8.95944 13.6029 9.22313 13.4539 9.69735C12.7218 12.0284 10.5436 13.7175 7.97321 13.7175C4.80115 13.7175 2.22969 11.146 2.22969 7.97398C2.22969 5.40359 3.91881 3.22537 6.24984 2.49324Z" fill="url(#paint0_linear_536_837)"/>
<defs>
<linearGradient id="paint0_linear_536_837" x1="0.429688" y1="8.01461" x2="15.4353" y2="8.01461" gradientUnits="userSpaceOnUse">
<stop stop-color="#FFC152"/>
<stop offset="1" stop-color="#FF5F5F"/>
</linearGradient>
</defs>
</svg>
