<svg width="16" height="16" viewBox="0 0 16 16" fill="none" xmlns="http://www.w3.org/2000/svg">
<path fill-rule="evenodd" clip-rule="evenodd" d="M6.42281 3.13746C6.00863 3.13175 5.67751 2.79136 5.68323 2.37718C5.69013 1.87762 5.76304 1.27652 6.24999 0.921699C6.48199 0.752654 6.73209 0.699511 6.91866 0.678801C7.08964 0.659821 7.27477 0.662447 7.42152 0.664529L7.42153 0.664529L7.44351 0.664838L8.75869 0.682992L8.78068 0.68329L8.78068 0.68329C8.92743 0.68526 9.11256 0.687744 9.28296 0.711437C9.46889 0.737289 9.71742 0.797315 9.94466 0.972699C10.4216 1.34082 10.4779 1.94371 10.471 2.44327C10.4653 2.85745 10.1249 3.18857 9.71076 3.18285C9.29658 3.17713 8.96546 2.83674 8.97118 2.42257C8.97245 2.33015 8.96991 2.25837 8.96571 2.20343C8.96504 2.19465 8.95787 2.1878 8.94907 2.18742V2.18742C8.88909 2.18499 8.82253 2.18402 8.73799 2.18285L7.42281 2.1647C7.33826 2.16353 7.2717 2.16266 7.21168 2.16344V2.16344C7.20287 2.16358 7.19552 2.17022 7.1946 2.17899C7.18889 2.23379 7.18436 2.30547 7.18309 2.39789C7.17737 2.81206 6.83698 3.14318 6.42281 3.13746ZM5.9041 11.8507C5.80848 11.4477 6.05767 11.0435 6.46069 10.9478C7.4458 10.7141 8.47915 10.7284 9.45743 10.9892C9.85766 11.0959 10.0956 11.5069 9.98888 11.9071C9.88217 12.3073 9.4712 12.5453 9.07097 12.4386C8.33236 12.2416 7.55077 12.2308 6.80699 12.4073C6.40397 12.5029 5.99973 12.2537 5.9041 11.8507ZM6.49243 8.64608C6.08941 8.74171 5.84021 9.14595 5.93584 9.54897C6.03147 9.95199 6.43571 10.2012 6.83873 10.1056C7.5825 9.92907 8.36409 9.93986 9.10271 10.1368C9.50294 10.2435 9.9139 10.0056 10.0206 9.60535C10.1273 9.20512 9.8894 8.79416 9.48917 8.68744C8.51089 8.4266 7.47753 8.41233 6.49243 8.64608ZM5.96758 7.24721C5.87195 6.84419 6.12114 6.43995 6.52417 6.34432C7.50927 6.11058 8.54263 6.12484 9.52091 6.38569C9.92114 6.4924 10.1591 6.90337 10.0524 7.3036C9.94564 7.70383 9.53468 7.94177 9.13445 7.83505C8.39583 7.6381 7.61424 7.62732 6.87047 7.8038C6.46745 7.89943 6.06321 7.65023 5.96758 7.24721ZM6.60451 13.8075C5.28397 13.7893 4.76167 13.5988 4.51047 13.3406C4.25928 13.0823 4.08329 12.555 4.10152 11.2345L4.15598 7.28891C4.17421 5.96837 4.36469 5.44607 4.62291 5.19488C4.88114 4.94369 5.4085 4.7677 6.72904 4.78593L9.35939 4.82224C10.6799 4.84046 11.2022 5.03094 11.4534 5.28917C11.7046 5.54739 11.8806 6.07475 11.8624 7.39529L11.8079 11.3408C11.7897 12.6614 11.5992 13.1837 11.341 13.4349C11.0828 13.6861 10.5554 13.862 9.23486 13.8438L6.60451 13.8075ZM2.60166 11.2137C2.58358 12.5236 2.7137 13.6447 3.43527 14.3865C4.15685 15.1283 5.27398 15.2893 6.5838 15.3074L9.21416 15.3437C10.524 15.3617 11.6451 15.2316 12.3869 14.5101C13.1287 13.7885 13.2897 12.6713 13.3078 11.3615L13.3622 7.41599C13.3803 6.10617 13.2502 4.98502 12.5286 4.24325C11.8071 3.50147 10.6899 3.34046 9.3801 3.32238L6.74974 3.28607C5.43992 3.26799 4.31877 3.39811 3.57699 4.11968C2.83522 4.84126 2.67421 5.95839 2.65613 7.26821L2.60166 11.2137Z" fill="url(#paint0_linear_621_74)"/>
<defs>
<linearGradient id="paint0_linear_621_74" x1="8" y1="1" x2="7.76827" y2="15.0052" gradientUnits="userSpaceOnUse">
<stop stop-color="#FFC04F"/>
<stop offset="1" stop-color="#FF7337"/>
</linearGradient>
</defs>
</svg>
