<svg width="16" height="16" viewBox="0 0 16 16" fill="none" xmlns="http://www.w3.org/2000/svg">
<path d="M11.5421 11.2377L11.5817 9.8969C11.5854 9.77087 11.6492 9.6551 11.7481 9.57693C11.8233 9.51757 11.896 9.4552 11.9662 9.38996C14.8401 6.47822 15.48 2.08977 14.6848 1.30598C13.8897 0.522196 9.50882 1.17724 6.59329 4.05113C6.52821 4.12235 6.46567 4.19583 6.40581 4.27145C6.32829 4.36937 6.21331 4.43193 6.08847 4.43561L4.74552 4.47521C4.48102 4.47965 4.22229 4.5533 3.99509 4.68882C3.7679 4.82434 3.58016 5.017 3.45057 5.24763L1.03863 9.66258C1.00464 9.73195 0.992676 9.81005 1.00435 9.88641C1.01602 9.96277 1.05077 10.0337 1.10393 10.0898C1.15709 10.1458 1.22612 10.1843 1.30175 10.2C1.37739 10.2156 1.45601 10.2078 1.52708 10.1775L4.10438 8.93695C4.39184 8.79858 4.72529 9.0377 4.72768 9.35672C4.72893 9.52325 4.73824 9.68973 4.75561 9.85558C4.7668 9.96242 4.7388 10.0702 4.6731 10.1552L3.12494 12.1578C3.08459 12.2062 3.06248 12.2671 3.06248 12.3301C3.06248 12.3931 3.08459 12.454 3.12494 12.5024L3.3029 12.669L3.4695 12.847C3.51845 12.8876 3.58006 12.9098 3.64368 12.9098C3.7073 12.9098 3.76891 12.8876 3.81785 12.847L5.81639 11.2886C5.90156 11.2222 6.00988 11.1938 6.11729 11.205C6.28705 11.2228 6.45747 11.2321 6.62793 11.2329C6.94434 11.2345 7.18315 11.5621 7.05005 11.8492L5.83601 14.4675C5.81061 14.536 5.80552 14.6103 5.82137 14.6815C5.83722 14.7528 5.87332 14.8179 5.92532 14.8691C5.97733 14.9203 6.04303 14.9554 6.11452 14.9702C6.186 14.9849 6.26022 14.9787 6.32824 14.9522L10.7546 12.5365C10.9858 12.4101 11.1801 12.2256 11.3183 12.0011C11.4564 11.7767 11.5335 11.5201 11.5421 11.2567V11.2377ZM9.8496 6.16016C9.66771 5.97789 9.54393 5.7458 9.4939 5.49321C9.44386 5.24061 9.46981 4.97886 9.56848 4.74101C9.66714 4.50317 9.83409 4.2999 10.0482 4.1569C10.2624 4.0139 10.5141 3.93758 10.7716 3.93758C11.0291 3.93758 11.2808 4.0139 11.495 4.1569C11.7091 4.2999 11.876 4.50317 11.9747 4.74101C12.0734 4.97886 12.0993 5.24061 12.0493 5.49321C11.9993 5.7458 11.8755 5.97789 11.6936 6.16016C11.5726 6.2814 11.4289 6.37759 11.2707 6.44321C11.1125 6.50884 10.9429 6.54263 10.7716 6.54263C10.6003 6.54263 10.4307 6.50884 10.2725 6.44321C10.1143 6.37759 9.97059 6.2814 9.8496 6.16016Z" stroke="url(#paint0_linear_657_74)" stroke-width="1.8" stroke-linecap="round" stroke-linejoin="round"/>
<defs>
<linearGradient id="paint0_linear_657_74" x1="8.04111" y1="17.8254" x2="8.04111" y2="2.33516" gradientUnits="userSpaceOnUse">
<stop stop-color="#FDA700"/>
<stop offset="1" stop-color="#FFDE00"/>
</linearGradient>
</defs>
</svg>
