<svg width="16" height="16" viewBox="0 0 16 16" fill="none" xmlns="http://www.w3.org/2000/svg">
<path d="M3.5498 15.5H14.2373C14.548 15.5 14.7998 15.2482 14.7998 14.9375V14.5625C14.7998 14.2518 14.548 14 14.2373 14H3.5588C3.2123 13.991 2.7998 13.8537 2.7998 13.25C2.7998 12.6462 3.2123 12.509 3.5588 12.5H14.2373C14.548 12.5 14.7998 12.2481 14.7998 11.9375V2C14.7998 1.17275 14.127 0.5 13.2998 0.5H3.5498C2.6453 0.5 1.2998 1.09925 1.2998 2.75V13.25C1.2998 14.9007 2.6453 15.5 3.5498 15.5ZM2.7998 4.99999V2.75C2.7998 2.14625 3.2123 2.009 3.5498 2H12.7373C13.0479 2 13.2998 2.25184 13.2998 2.5625V10.4375C13.2998 10.7482 13.0479 11 12.7373 11H3.3623C3.05164 11 2.7998 10.7482 2.7998 10.4375V4.99999Z" fill="url(#paint0_linear_669_198)" stroke="url(#paint1_linear_669_198)" stroke-width="0.6"/>
<path d="M7.29933 9.40673C7.29933 9.56204 7.42522 9.68798 7.58058 9.68798H8.51804C8.67341 9.68798 8.79929 9.56204 8.79929 9.40673V6.59423C8.79929 6.43893 8.92524 6.31298 9.08054 6.31298H10.0181C10.1734 6.31298 10.2993 6.18704 10.2993 6.03173V4.90674C10.2993 4.75143 10.1734 4.62549 10.0181 4.62549H9.08054C8.92524 4.62549 8.79929 4.49957 8.79929 4.34424V3.21924C8.79929 3.06391 8.67341 2.93799 8.51804 2.93799H7.58058C7.42522 2.93799 7.29933 3.06391 7.29933 3.21924V4.34424C7.29933 4.49957 7.17339 4.62549 7.01808 4.62549H6.08057C5.92526 4.62549 5.79932 4.75143 5.79932 4.90674V6.03173C5.79932 6.18704 5.92526 6.31298 6.08057 6.31298H7.01808C7.17339 6.31298 7.29933 6.43893 7.29933 6.59423V9.40673Z" fill="url(#paint2_linear_669_198)"/>
<defs>
<linearGradient id="paint0_linear_669_198" x1="4.21054" y1="-3.33027" x2="19.9013" y2="6.36966" gradientUnits="userSpaceOnUse">
<stop stop-color="#ABDAFB"/>
<stop offset="1" stop-color="#638FFF"/>
</linearGradient>
<linearGradient id="paint1_linear_669_198" x1="4.21054" y1="-3.33027" x2="19.9013" y2="6.36966" gradientUnits="userSpaceOnUse">
<stop stop-color="#ABDAFB"/>
<stop offset="1" stop-color="#638FFF"/>
</linearGradient>
<linearGradient id="paint2_linear_669_198" x1="6.76956" y1="1.21437" x2="12.7455" y2="3.95089" gradientUnits="userSpaceOnUse">
<stop stop-color="#ABDAFB"/>
<stop offset="1" stop-color="#638FFF"/>
</linearGradient>
</defs>
</svg>
