<svg width="64" height="64" viewBox="0 0 64 64" fill="none" xmlns="http://www.w3.org/2000/svg">
<path d="M24.2272 5C23.5494 5 23 5.54945 23 6.22727V12.8217C23 13.4801 22.4806 14.0182 21.8221 14.0198C20.7738 14.0223 19.5447 14 18.7989 14H15.2273C14.5495 14 14 14.5494 14 15.2272V18.0141C14 18.2791 14.1038 18.4952 14.3687 18.4865C14.7771 18.4732 16.2324 18.5203 16.6218 18.6438C17.8047 19.0191 18.2786 20.0512 18.4712 20.8435C18.4916 20.9274 18.5 21.0132 18.5 21.0995V43.25C18.474 43.4572 18.4638 43.7646 18.4112 44.0863C18.2856 44.853 15.3937 45.522 14.6168 45.5103C14.1381 45.5031 14 45.8931 14 46.3719V48.7728C14 49.4506 14.5495 50 15.2273 50H19.0713C19.9114 49.9695 20.8698 49.9804 21.7728 49.9906C22.4506 49.9982 23 50.5495 23 51.2273V57.751C23 58.4372 23.5627 58.9901 24.2488 58.978L26.2943 58.9421C26.9636 58.9303 27.5 58.3844 27.5 57.715V51.2273C27.5 50.5495 28.0495 50 28.7273 50H30.7215C31.3918 50 31.9381 50.5378 31.9486 51.208L32.0515 57.7919C32.0619 58.4622 32.6083 59 33.2786 59H35.3237C36.0091 59 36.5616 58.4388 36.5509 57.7536L36.4478 51.1593C36.4376 50.5086 36.9398 49.9641 37.5883 49.9109C45.4618 49.2648 50 47.9109 50 38.75C50 32 45.4959 29.7543 40.1729 29.75C43.5493 29.4943 45.4976 27.5 45.4991 21.875C45.5 18.5 43.5493 14 40.9991 14H37.7272C37.0494 14 36.5 13.4505 36.5 12.7727V6.22727C36.5 5.54945 35.9505 5 35.2727 5H33.2273C32.5495 5 32 5.54945 32 6.22727V12.7727C32 13.4505 31.4506 13.9986 30.7728 13.9915C30.1197 13.9846 29.4301 13.9763 28.7723 13.9782C28.0771 13.9803 27.5 13.4227 27.5 12.7274V6.22727C27.5 5.54945 26.9506 5 26.2727 5H24.2272ZM27.5 19.7273C27.5 19.0495 28.0508 18.499 28.7286 18.5014C34.1904 18.5203 36.5006 18.8022 36.5 23C36.5006 27.167 33.6813 27.4754 28.729 27.4981C28.0512 27.5013 27.5 26.9505 27.5 26.2727V19.7273ZM27.5 33.2273C27.5 32.5495 28.0528 31.9995 28.7306 32.0007C36.9102 32.015 41.0009 32.315 41 38.75C41.0009 45.1855 36.9102 45.4854 28.7306 45.4993C28.0528 45.5005 27.5 44.9506 27.5 44.2727V33.2273Z" fill="url(#paint0_linear_1005_350)"/>
<defs>
<linearGradient id="paint0_linear_1005_350" x1="32" y1="59" x2="32" y2="5" gradientUnits="userSpaceOnUse">
<stop stop-color="#FD5900"/>
<stop offset="1" stop-color="#FFDE00"/>
</linearGradient>
</defs>
</svg>
