<svg width="128" height="128" viewBox="0 0 128 128" fill="none" xmlns="http://www.w3.org/2000/svg">
<path fill-rule="evenodd" clip-rule="evenodd" d="M41.3045 43.5652C41.3045 47.7433 37.9175 51.1304 33.7393 51.1304C29.5612 51.1304 26.1741 47.7433 26.1741 43.5652C26.1741 39.3871 29.5612 36 33.7393 36C37.9175 36 41.3045 39.3871 41.3045 43.5652ZM61.4776 43.5652C61.4776 47.7433 58.0906 51.1304 53.9124 51.1304C49.7343 51.1304 46.3472 47.7433 46.3472 43.5652C46.3472 39.3871 49.7343 36 53.9124 36C58.0906 36 61.4776 39.3871 61.4776 43.5652ZM74.0866 51.1304C78.2647 51.1304 81.6518 47.7433 81.6518 43.5652C81.6518 39.3871 78.2647 36 74.0866 36C69.9084 36 66.5214 39.3871 66.5214 43.5652C66.5214 47.7433 69.9084 51.1304 74.0866 51.1304ZM101.826 43.5652C101.826 47.7433 98.4388 51.1304 94.2607 51.1304C90.0825 51.1304 86.6955 47.7433 86.6955 43.5652C86.6955 39.3871 90.0825 36 94.2607 36C98.4388 36 101.826 39.3871 101.826 43.5652ZM13.5652 71.304C17.7433 71.304 21.1304 67.917 21.1304 63.7388C21.1304 59.5607 17.7433 56.1736 13.5652 56.1736C9.38705 56.1736 6 59.5607 6 63.7388C6 67.917 9.38705 71.304 13.5652 71.304ZM41.3045 63.7388C41.3045 67.917 37.9175 71.304 33.7393 71.304C29.5612 71.304 26.1741 67.917 26.1741 63.7388C26.1741 59.5607 29.5612 56.1736 33.7393 56.1736C37.9175 56.1736 41.3045 59.5607 41.3045 63.7388ZM53.9124 71.304C58.0906 71.304 61.4776 67.917 61.4776 63.7388C61.4776 59.5607 58.0906 56.1736 53.9124 56.1736C49.7343 56.1736 46.3472 59.5607 46.3472 63.7388C46.3472 67.917 49.7343 71.304 53.9124 71.304ZM81.6518 63.7388C81.6518 67.917 78.2647 71.304 74.0866 71.304C69.9084 71.304 66.5214 67.917 66.5214 63.7388C66.5214 59.5607 69.9084 56.1736 74.0866 56.1736C78.2647 56.1736 81.6518 59.5607 81.6518 63.7388ZM94.2607 71.304C98.4388 71.304 101.826 67.917 101.826 63.7388C101.826 59.5607 98.4388 56.1736 94.2607 56.1736C90.0825 56.1736 86.6955 59.5607 86.6955 63.7388C86.6955 67.917 90.0825 71.304 94.2607 71.304ZM122 63.7388C122 67.917 118.613 71.304 114.435 71.304C110.257 71.304 106.87 67.917 106.87 63.7388C106.87 59.5607 110.257 56.1736 114.435 56.1736C118.613 56.1736 122 59.5607 122 63.7388ZM13.5652 91.4781C17.7433 91.4781 21.1304 88.0911 21.1304 83.9129C21.1304 79.7348 17.7433 76.3477 13.5652 76.3477C9.38705 76.3477 6 79.7348 6 83.9129C6 88.0911 9.38705 91.4781 13.5652 91.4781ZM41.3045 83.9129C41.3045 88.0911 37.9175 91.4781 33.7393 91.4781C29.5612 91.4781 26.1741 88.0911 26.1741 83.9129C26.1741 79.7348 29.5612 76.3477 33.7393 76.3477C37.9175 76.3477 41.3045 79.7348 41.3045 83.9129ZM94.2607 91.4781C98.4388 91.4781 101.826 88.0911 101.826 83.9129C101.826 79.7348 98.4388 76.3477 94.2607 76.3477C90.0825 76.3477 86.6955 79.7348 86.6955 83.9129C86.6955 88.0911 90.0825 91.4781 94.2607 91.4781ZM122 83.9129C122 88.0911 118.613 91.4781 114.435 91.4781C110.257 91.4781 106.87 88.0911 106.87 83.9129C106.87 79.7348 110.257 76.3477 114.435 76.3477C118.613 76.3477 122 79.7348 122 83.9129Z" fill="url(#paint0_linear_705_109)"/>
<defs>
<linearGradient id="paint0_linear_705_109" x1="116.745" y1="36.9535" x2="87.2527" y2="96.2503" gradientUnits="userSpaceOnUse">
<stop stop-color="#D800BD"/>
<stop offset="0.408098" stop-color="#F92D7A"/>
<stop offset="0.590073" stop-color="#FF4A52"/>
<stop offset="1" stop-color="#FFB243"/>
</linearGradient>
</defs>
</svg>
