<svg width="16" height="16" viewBox="0 0 16 16" fill="none" xmlns="http://www.w3.org/2000/svg">
<path fill-rule="evenodd" clip-rule="evenodd" d="M14.4993 9.78398L13.0174 8.30209C13.0106 8.29529 13.0037 8.28858 12.9968 8.28194C13.0037 8.27531 13.0106 8.26859 13.0174 8.2618L14.4993 6.77991C14.5027 6.90942 14.4882 7.03904 14.4557 7.16501C14.4272 7.27545 14.3854 7.38176 14.3313 7.48159M10.9106 8.28194C10.9086 8.28001 10.9066 8.27807 10.9046 8.27612C8.97247 6.40936 7.53654 5.5987 6.27673 5.47295C6.60042 6.37062 6.76764 7.32126 6.76706 8.28315C6.76643 9.24472 6.59821 10.1949 6.27362 11.092C7.53408 10.9668 8.97079 10.1561 10.9045 8.28782C10.9065 8.28587 10.9086 8.28388 10.9106 8.28194ZM14.4557 9.39894C14.4882 9.52489 14.5027 9.65449 14.4993 9.78398ZM13.9317 10.6306L12.3103 9.00919C12.115 8.81394 11.798 8.81514 11.5994 9.00699C9.23076 11.2954 7.33326 12.2971 5.41876 12.0809C5.08816 12.0435 4.93395 11.6736 5.07556 11.3726C5.52916 10.4083 5.76636 9.35354 5.76706 8.28254C5.76771 7.21144 5.53166 6.15619 5.07916 5.19134C4.93796 4.89018 5.09241 4.52062 5.42296 4.4835C7.33636 4.26861 9.23276 5.27034 11.5994 7.55689C11.798 7.74874 12.115 7.74994 12.3103 7.55469L13.9317 5.93324C14.0512 5.81429 14.2014 5.73094 14.3655 5.69254C14.5297 5.65414 14.7013 5.66219 14.8611 5.71584C15.0209 5.76944 15.1627 5.86649 15.2704 5.99609C15.3782 6.12569 15.4478 6.28274 15.4714 6.44969C15.5213 6.77114 15.5053 7.09939 15.4241 7.41444C15.3752 7.60419 15.3033 7.78679 15.2104 7.95824C15.1018 8.15844 15.1018 8.40539 15.2104 8.60564C15.3033 8.77709 15.3752 8.95964 15.4241 9.14944C15.5053 9.46449 15.5213 9.79274 15.4714 10.1142C15.4478 10.2811 15.3782 10.4381 15.2704 10.5678C15.1627 10.6974 15.0209 10.7944 14.8611 10.848C14.7013 10.9016 14.5297 10.9097 14.3655 10.8713C14.2014 10.8329 14.0512 10.7496 13.9317 10.6306ZM14.3313 7.48159C14.0615 7.97914 14.0616 8.58473 14.3312 9.0822ZM14.3312 9.0822C14.3854 9.18211 14.4273 9.2885 14.4557 9.39894Z" fill="url(#paint0_linear_644_132)"/>
<path d="M14.4993 9.78398L13.0174 8.30209C13.0106 8.29529 13.0037 8.28858 12.9968 8.28194C13.0037 8.27531 13.0106 8.26859 13.0174 8.2618L14.4993 6.77991C14.5027 6.90942 14.4882 7.03904 14.4557 7.16501C14.4272 7.27545 14.3854 7.38176 14.3313 7.48159M14.4993 9.78398L14.3313 7.48159M14.4993 9.78398C14.5027 9.65449 14.4882 9.52489 14.4557 9.39894M14.4993 9.78398L14.4557 9.39894M14.3313 7.48159C14.0615 7.97914 14.0616 8.58473 14.3312 9.0822M14.3313 7.48159L14.3312 9.0822M14.4557 9.39894C14.4273 9.2885 14.3854 9.18211 14.3312 9.0822M14.4557 9.39894L14.3312 9.0822M10.9046 8.27612C10.9066 8.27807 10.9086 8.28001 10.9106 8.28194C10.9086 8.28388 10.9065 8.28587 10.9045 8.28782C8.97079 10.1561 7.53408 10.9668 6.27362 11.092C6.59821 10.1949 6.76643 9.24472 6.76706 8.28315C6.76764 7.32126 6.60042 6.37062 6.27673 5.47295C7.53654 5.5987 8.97247 6.40936 10.9046 8.27612ZM12.3103 9.00919L13.9317 10.6306C14.0512 10.7496 14.2014 10.8329 14.3655 10.8713C14.5297 10.9097 14.7013 10.9016 14.8611 10.848C15.0209 10.7944 15.1627 10.6974 15.2704 10.5678C15.3782 10.4381 15.4478 10.2811 15.4714 10.1142C15.5213 9.79274 15.5053 9.46449 15.4241 9.14944C15.3752 8.95964 15.3033 8.77709 15.2104 8.60564C15.1018 8.40539 15.1018 8.15844 15.2104 7.95824C15.3033 7.78679 15.3752 7.60419 15.4241 7.41444C15.5053 7.09939 15.5213 6.77114 15.4714 6.44969C15.4478 6.28274 15.3782 6.12569 15.2704 5.99609C15.1627 5.86649 15.0209 5.76944 14.8611 5.71584C14.7013 5.66219 14.5297 5.65414 14.3655 5.69254C14.2014 5.73094 14.0512 5.81429 13.9317 5.93324L12.3103 7.55469C12.115 7.74994 11.798 7.74874 11.5994 7.55689C9.23276 5.27034 7.33636 4.26861 5.42296 4.4835C5.09241 4.52062 4.93796 4.89018 5.07916 5.19134C5.53166 6.15619 5.76771 7.21144 5.76706 8.28254C5.76636 9.35354 5.52916 10.4083 5.07556 11.3726C4.93395 11.6736 5.08816 12.0435 5.41876 12.0809C7.33326 12.2971 9.23076 11.2954 11.5994 9.00699C11.798 8.81514 12.115 8.81394 12.3103 9.00919Z" stroke="url(#paint1_linear_644_132)" stroke-width="0.4" stroke-linejoin="round"/>
<path d="M8.04398 3.0338C7.59623 3.11144 7.65293 3.67057 8.07903 3.82849C8.90663 4.1352 9.68443 4.56642 10.3849 5.10856C10.5875 5.26536 10.8886 5.26221 10.9944 5.02891C11.0043 5.00716 11.0135 4.98512 11.022 4.96276C11.0843 4.79933 11.1089 4.62395 11.0941 4.44968C11.0792 4.2754 11.0252 4.10673 10.9361 3.95622C10.847 3.80571 10.7251 3.67724 10.5794 3.58039C10.0336 3.20986 9.39318 3.00305 8.73368 2.98431C8.50163 2.97772 8.27063 2.9945 8.04398 3.0338Z" fill="url(#paint2_linear_644_132)"/>
<path d="M10.5355 11.3232C10.6489 11.2363 10.8096 11.245 10.9106 11.346C11.9152 12.4432 10.1393 13.6219 9.23872 12.6637C9.08702 12.512 9.12432 12.257 9.30927 12.1483C9.73447 11.8987 10.144 11.6231 10.5355 11.3232Z" fill="url(#paint3_linear_644_132)"/>
<path fill-rule="evenodd" clip-rule="evenodd" d="M3.4742 11.4421C2.29262 10.7984 0.506222 9.82523 0.500002 8.28168C0.499551 7.98108 0.563487 7.68388 0.687507 7.41003C0.811527 7.13618 0.992757 6.89213 1.21901 6.69418C1.86801 6.10438 2.58475 5.59458 3.35378 5.17528C3.57835 5.05288 3.85883 5.13118 3.97945 5.35673C4.45947 6.25433 4.71207 7.25863 4.71167 8.28113C4.71125 9.34873 4.435 10.3963 3.91214 11.3231C3.82524 11.4771 3.62951 11.5267 3.4742 11.4421ZM2.98812 8.65538C3.08723 8.55628 3.14291 8.42183 3.14291 8.28168C3.14291 8.14153 3.08723 8.00708 2.98812 7.90798C2.88901 7.80888 2.75458 7.75318 2.61442 7.75318C2.47425 7.75318 2.33983 7.80888 2.24072 7.90798C2.14161 8.00708 2.08592 8.14153 2.08592 8.28168C2.08592 8.42183 2.14161 8.55628 2.24072 8.65538C2.33983 8.75448 2.47425 8.81018 2.61442 8.81018C2.75458 8.81018 2.88901 8.75448 2.98812 8.65538Z" fill="url(#paint4_linear_644_132)"/>
<defs>
<linearGradient id="paint0_linear_644_132" x1="10.1327" y1="12.1096" x2="10.1327" y2="4.45508" gradientUnits="userSpaceOnUse">
<stop stop-color="#5570FF"/>
<stop offset="1" stop-color="#4DD3FF"/>
</linearGradient>
<linearGradient id="paint1_linear_644_132" x1="10.1327" y1="12.1096" x2="10.1327" y2="4.45508" gradientUnits="userSpaceOnUse">
<stop stop-color="#5570FF"/>
<stop offset="1" stop-color="#4DD3FF"/>
</linearGradient>
<linearGradient id="paint2_linear_644_132" x1="5.85468" y1="13.0166" x2="5.85468" y2="2.98291" gradientUnits="userSpaceOnUse">
<stop stop-color="#5570FF"/>
<stop offset="1" stop-color="#4DD3FF"/>
</linearGradient>
<linearGradient id="paint3_linear_644_132" x1="5.85477" y1="13.0167" x2="5.85477" y2="2.98305" gradientUnits="userSpaceOnUse">
<stop stop-color="#5570FF"/>
<stop offset="1" stop-color="#4DD3FF"/>
</linearGradient>
<linearGradient id="paint4_linear_644_132" x1="5.8547" y1="13.0167" x2="5.8547" y2="2.98303" gradientUnits="userSpaceOnUse">
<stop stop-color="#5570FF"/>
<stop offset="1" stop-color="#4DD3FF"/>
</linearGradient>
</defs>
</svg>
