<svg width="24" height="24" viewBox="0 0 24 24" fill="none" xmlns="http://www.w3.org/2000/svg">
<path fill-rule="evenodd" clip-rule="evenodd" d="M18.1925 4.13582L19.6345 1.63779C20.0192 0.971409 20.8992 0.779957 21.4749 1.29047C21.6084 1.40884 21.7396 1.52968 21.8686 1.65293C22.2789 2.0452 22.3428 2.66865 22.059 3.16028L20.6483 5.60369C20.3971 6.03864 20.4256 6.57575 20.6761 7.01102C21.5473 8.5245 22.0099 10.2443 22.0108 12C22.0097 12.7711 21.9198 13.5378 21.7435 14.2851C21.5619 15.0554 20.6782 15.3594 19.9929 14.9636L19.698 14.7934C19.1619 14.4837 18.9315 13.8403 19.0399 13.2308C19.1121 12.8252 19.1493 12.4133 19.1506 12C19.1493 10.9891 18.9337 9.98983 18.5179 9.06828C18.2482 8.47044 17.8983 7.91412 17.4789 7.41413C17.0819 6.94054 16.9607 6.2693 17.2697 5.73405L18.1925 4.13582ZM1.63779 4.36557C0.971409 3.98091 0.779957 3.10081 1.29047 2.52514C1.40884 2.39166 1.52968 2.26043 1.65293 2.13149C2.0452 1.72111 2.66865 1.65722 3.16028 1.94106L5.60369 3.35174C6.03864 3.60286 6.57575 3.57441 7.01102 3.32386C8.5245 2.45269 10.2443 1.99014 12 1.98927C12.7711 1.99023 13.5378 2.08027 14.2851 2.25649C15.0554 2.43811 15.3594 3.32184 14.9636 4.00717L14.7934 4.30198C14.4837 4.83812 13.8403 5.06856 13.2308 4.96008C12.8252 4.88789 12.4133 4.85075 12 4.84948C10.9891 4.85073 9.98983 5.06634 9.06828 5.48209C8.47044 5.7518 7.91412 6.10177 7.41413 6.52107C6.94054 6.91822 6.2693 7.03935 5.73405 6.7303L4.13582 5.80753L1.63779 4.36557ZM1.98927 12C1.99023 11.229 2.08027 10.4622 2.25649 9.71486C2.43811 8.94465 3.32184 8.64065 4.00717 9.0364L4.30198 9.20665C4.83812 9.5162 5.06856 10.1596 4.96008 10.7692C4.88789 11.1749 4.85075 11.5866 4.84948 12C4.85073 13.011 5.06634 14.0102 5.48209 14.9318C5.7518 15.5295 6.10177 16.0859 6.52107 16.5859C6.91822 17.0595 7.03935 17.7307 6.7303 18.266L5.80753 19.8642L4.36557 22.3622C3.98091 23.0286 3.10081 23.2201 2.52514 22.7096C2.39166 22.5911 2.26043 22.4704 2.13149 22.3471C1.72111 21.9549 1.65722 21.3314 1.94106 20.8398L3.35176 18.3964C3.60286 17.9614 3.57441 17.4243 3.32386 16.989C2.45269 15.4756 1.99014 13.7558 1.98927 12ZM14.9318 18.5179C15.5295 18.2482 16.0859 17.8983 16.5859 17.4789C17.0595 17.0819 17.7307 16.9607 18.266 17.2697L19.8642 18.1925L22.3622 19.6345C23.0286 20.0192 23.22 20.8992 22.7096 21.4749C22.5911 21.6084 22.4704 21.7396 22.3471 21.8686C21.9549 22.2789 21.3314 22.3428 20.8398 22.059L18.3964 20.6483C17.9614 20.3971 17.4243 20.4256 16.989 20.6761C15.4756 21.5473 13.7558 22.0099 12 22.0108C11.229 22.0097 10.4622 21.9198 9.71486 21.7435C8.94465 21.5619 8.64065 20.6782 9.0364 19.9929L9.20665 19.698C9.5162 19.1619 10.1596 18.9315 10.7692 19.0399C11.1749 19.1121 11.5866 19.1493 12 19.1506C13.011 19.1493 14.0102 18.9337 14.9318 18.5179ZM16.2904 11.9999C16.2904 14.3695 14.3695 16.2902 12 16.2902C9.63061 16.2902 7.70971 14.3695 7.70971 11.9999C7.70971 9.63048 9.63061 7.70963 12 7.70963C14.3695 7.70963 16.2904 9.63048 16.2904 11.9999Z" fill="url(#paint0_linear_1005_431)"/>
<defs>
<linearGradient id="paint0_linear_1005_431" x1="12" y1="23" x2="12" y2="0.999999" gradientUnits="userSpaceOnUse">
<stop stop-color="#5570FF"/>
<stop offset="1" stop-color="#4DD3FF"/>
</linearGradient>
</defs>
</svg>
