<svg width="16" height="16" viewBox="0 0 16 16" fill="none" xmlns="http://www.w3.org/2000/svg">
<path fill-rule="evenodd" clip-rule="evenodd" d="M7.94919 2.57222C6.6414 1.75895 4.38935 1.00837 2.8471 0.883183C1.52579 0.772916 0.433105 1.79082 0.433105 3.1068V11.1601C0.433105 12.2449 1.2808 13.2321 2.37502 13.3724L2.56346 13.3984C2.56346 13.3984 2.56346 13.3984 2.56346 13.3984V13.3984C2.56346 13.3984 2.56346 13.3984 2.56347 13.3984L2.56722 13.3989C3.90383 13.5775 6.03124 14.2759 7.21461 14.9231C7.2243 14.9284 7.23409 14.9335 7.24397 14.9385L7.25771 14.9453C7.50564 15.0773 7.77222 15.1218 7.99561 15.1218C8.221 15.1218 8.49784 15.0764 8.75326 14.9319C9.93518 14.2807 12.0599 13.5789 13.4001 13.3996L13.6147 13.3736L13.6181 13.3732C14.7154 13.236 15.5664 12.247 15.5664 11.1601V3.11347C15.5664 1.79593 14.4813 0.801085 13.1865 0.886803H13.1798C13.1541 0.886803 13.1285 0.8879 13.1029 0.890091C11.5808 1.02056 9.35631 1.76153 8.0406 2.57177C8.01249 2.58908 7.9775 2.5892 7.94919 2.57222V2.57222ZM2.23311 3.1068C2.23311 2.83658 2.433 2.65473 2.69774 2.67698L2.70049 2.6772C3.95552 2.7788 5.93737 3.43895 7.00354 4.10382L7.01673 4.11188V4.11188C7.06815 4.14273 7.09961 4.1983 7.09961 4.25827V12.265C7.09961 12.5524 6.80512 12.7469 6.53722 12.6426C5.30007 12.1611 3.87148 11.7574 2.80767 11.615L2.80566 11.6147L2.61612 11.5886C2.6161 11.5886 2.61608 11.5886 2.61609 11.5885V11.5885C2.61609 11.5885 2.61608 11.5885 2.61606 11.5885L2.60474 11.5871C2.42208 11.5643 2.23311 11.3533 2.23311 11.1601V10.3891C2.23311 10.1271 2.73793 9.9 3 9.9V9.9H5C5.49706 9.9 5.9 9.49706 5.9 9C5.9 8.50294 5.49706 8.1 5 8.1H3V8.1C2.73793 8.1 2.23311 7.87294 2.23311 7.61086V7.38914C2.23311 7.12706 2.73793 6.9 3 6.9V6.9H4.5C4.99706 6.9 5.4 6.49706 5.4 6C5.4 5.50294 4.99706 5.1 4.5 5.1H3V5.1C2.73793 5.1 2.23311 4.87294 2.23311 4.61086V3.1068ZM8.89961 12.2575C8.89961 12.5449 9.19406 12.7394 9.46194 12.6351C10.6939 12.1556 12.1097 11.7554 13.1678 11.6147L13.1781 11.6133C13.1781 11.6133 13.1781 11.6133 13.1781 11.6133V11.6133C13.1781 11.6133 13.1782 11.6133 13.1782 11.6133L13.3948 11.5871L13.3959 11.5869C13.5782 11.5634 13.7664 11.3529 13.7664 11.1601V3.11347C13.7664 2.84526 13.5685 2.66067 13.2951 2.68364C13.2701 2.68574 13.245 2.6868 13.2199 2.6868C11.963 2.80402 10.0063 3.46292 8.95037 4.12565V4.12565C8.91872 4.14613 8.89961 4.18126 8.89961 4.21895V12.2575Z" fill="url(#paint0_linear_592_89)"/>
<defs>
<linearGradient id="paint0_linear_592_89" x1="1.94266" y1="16.8686" x2="16.9918" y2="6.59214" gradientUnits="userSpaceOnUse">
<stop stop-color="#AE4CFF"/>
<stop offset="1" stop-color="#FFADFF"/>
</linearGradient>
</defs>
</svg>
