<svg width="128" height="128" viewBox="0 0 128 128" fill="none" xmlns="http://www.w3.org/2000/svg">
<path fill-rule="evenodd" clip-rule="evenodd" d="M120 64C120 94.9279 94.9279 120 64 120C33.0721 120 8 94.9279 8 64C8 33.0721 33.0721 8 64 8C94.9279 8 120 33.0721 120 64ZM68.8782 22.2806C64.3527 21.7514 59.7201 21.9733 55.2863 22.9239C53.8611 23.2277 52.2469 23.661 50.8756 24.1104C42.2915 26.9216 34.8932 32.4005 29.6712 39.8114C27.7434 42.547 26.1152 45.5717 24.8972 48.6797C21.9075 56.3104 21.2159 64.5711 22.8959 72.5665C23.3467 74.5762 23.8857 76.6671 24.7992 79.0709C27.0616 85.0139 30.6155 90.3129 35.2341 94.6179C37.0254 96.2839 39.0498 97.8659 41.0714 99.1609L41.4312 99.3499L47.1838 37.4258C47.3133 35.449 47.6829 33.8397 48.3325 32.4313C48.4879 32.0939 48.9205 31.3526 49.1326 31.0586C50.1112 29.7055 51.4125 28.7241 53.117 28.0563C53.8142 27.7847 54.8649 27.4725 55.8582 27.322C57.6677 27.0483 59.2812 27.2492 60.8058 27.9317C61.1362 28.0801 61.881 28.5057 62.1848 28.7206C63.4518 29.6152 64.5774 30.8255 65.6778 32.4719C65.8209 32.6863 66.4882 33.6425 68.6045 36.6747C69.1073 37.3951 69.6918 38.2326 70.3706 39.2052C81.9689 55.8309 91.8669 69.9303 99.1889 80.2679C99.6656 80.9402 100.034 81.4596 100.318 81.8608C101.194 83.097 101.275 83.2114 101.296 83.2219C101.324 83.2359 101.331 83.2219 101.632 82.6129C105.818 74.1688 107.029 64.6754 105.118 55.469C104.054 50.4024 102.738 47.0851 100.491 43.1938C97.2149 37.5539 92.7768 32.7246 87.3239 29.0797C81.8008 25.3921 75.4456 23.0478 68.8782 22.2806ZM63.3804 38.3813C61.6437 36.0195 59.6088 33.776 56.4329 34.1064C52.6014 35.3922 52.4078 39.8648 52.2066 44.512C52.1835 45.0465 52.1602 45.5832 52.1314 46.1177L52.6165 104.39L53.0008 104.516C58.1731 105.937 63.4987 106.343 68.8054 105.713C71.8427 105.342 73.522 104.929 75.7319 104.299C82.5849 102.311 88.7799 98.6359 93.7989 93.5819L94.3309 92.9939L63.3804 38.3813Z" fill="url(#paint0_linear_721_6)"/>
<defs>
<linearGradient id="paint0_linear_721_6" x1="64" y1="120" x2="64" y2="8" gradientUnits="userSpaceOnUse">
<stop stop-color="#FD5900"/>
<stop offset="1" stop-color="#FFDE00"/>
</linearGradient>
</defs>
</svg>
