<svg width="16" height="16" viewBox="0 0 16 16" fill="none" xmlns="http://www.w3.org/2000/svg">
<path d="M5.73147 1.03367C5.78002 1.04071 5.82949 1.03827 5.87701 1.02605C6.59785 0.840619 7.2886 0.469798 8.04867 0.501965C8.76754 0.50998 9.42419 0.84445 10.1082 1.02141C10.1579 1.03426 10.2097 1.03643 10.2604 1.02841C10.8347 0.937487 11.3993 0.790812 11.9745 0.705079C12.4273 0.642299 12.89 0.859263 13.1716 1.22672C13.9178 2.15643 14.6407 3.11384 15.2344 4.15712C15.6479 4.87079 15.5758 5.84112 15.0373 6.4634C14.4368 7.12498 13.8362 7.78656 13.2308 8.44326C13.1225 8.56075 13.0959 8.73071 13.1533 8.87984C13.3052 9.27443 13.4028 9.69676 13.3356 10.1222C13.2012 11.0161 12.6159 11.7746 11.8824 12.2399C11.7967 12.2943 11.7317 12.3758 11.6972 12.4713C11.5951 12.7543 11.4479 13.024 11.2007 13.1976C10.4403 13.7303 9.7281 14.3332 9.03992 14.9609C8.72347 15.2573 8.30451 15.4624 7.86949 15.4116C7.47727 15.3775 7.13586 15.1437 6.85596 14.8724C6.2391 14.3 5.58747 13.7682 4.8984 13.2927C4.61541 13.1031 4.42 12.8112 4.30814 12.4874C4.27387 12.3883 4.21017 12.3011 4.1225 12.2434C3.50359 11.8364 2.97394 11.2477 2.75811 10.5109C2.47554 9.65877 2.77416 8.67736 3.39013 8.06708C3.70213 7.79658 4.12465 8.20373 4.09078 8.55733C4.03908 9.01065 3.67628 9.37626 3.70568 9.84804C3.72434 10.3383 4.00317 10.7472 4.34821 11.0643C4.49182 11.1963 4.71084 11.1779 4.87248 11.0688C5.10893 10.909 5.37136 10.7901 5.62045 10.6522C6.17669 10.3512 6.74987 10.0853 7.33821 9.85912C7.52184 9.79542 7.71528 9.6717 7.76431 9.46396C7.79016 9.30148 7.69211 9.15745 7.56642 9.07342C6.98165 8.65889 6.38351 8.26375 5.79962 7.84735C5.657 7.75503 5.53131 7.57407 5.61154 7.39589C5.83885 6.86133 6.15887 6.37384 6.39063 5.84113C6.54039 5.49768 6.363 5.07667 6.03229 4.93357C5.55706 4.72642 5.06746 4.55362 4.58335 4.36772C4.22885 4.23159 4.29114 3.81745 4.66868 3.77668C4.72751 3.77033 4.78627 3.76338 4.84492 3.75551C5.419 3.6641 5.97078 3.90137 6.51722 4.04356C6.74542 4.11741 7.12873 4.1562 7.09842 4.49319C6.97362 5.42197 6.76592 6.33784 6.62954 7.26479C6.60012 7.43558 6.56624 7.70517 6.7784 7.76333C7.37298 7.95075 8.01123 8.11325 8.62809 7.93413C8.8449 7.85875 9.12155 7.85721 9.30501 7.70744C9.36079 7.66191 9.3872 7.59076 9.38774 7.51876C9.38888 7.3674 9.36098 7.21686 9.33944 7.06812C9.19949 6.26675 9.05151 5.46721 8.91423 4.66583C8.88838 4.50979 8.86164 4.303 9.01675 4.20697C9.25208 4.07587 9.52308 4.03617 9.77623 3.95585C10.1729 3.85337 10.5714 3.6798 10.9886 3.74165C11.2543 3.77173 11.5208 3.79337 11.7869 3.81854C12.0533 3.84374 12.098 4.0814 11.8523 4.18759V4.18759C11.2283 4.43593 10.5963 4.66583 9.97502 4.92342C9.66391 5.05175 9.45176 5.43213 9.58279 5.77004C9.74415 6.19289 9.98571 6.57696 10.1854 6.98134C10.2703 7.169 10.4169 7.35515 10.404 7.57012C10.4014 7.61467 10.384 7.6571 10.3564 7.69213C10.2868 7.78034 10.1944 7.84634 10.1052 7.91106C9.56942 8.27852 9.03724 8.65243 8.5024 9.0208C8.38473 9.11036 8.23052 9.21007 8.23944 9.38364C8.22695 9.59783 8.41415 9.75663 8.59154 9.82587C9.41521 10.1518 10.2157 10.5396 10.993 10.9716C11.0487 11.0022 11.1017 11.0373 11.1529 11.0752C11.2982 11.1824 11.4957 11.2029 11.6317 11.0842C11.9489 10.8073 12.1956 10.44 12.2838 10.0161C12.381 9.51475 12.0369 9.09559 11.9201 8.63489C11.8586 8.41885 11.9869 8.21481 12.1233 8.06431C12.815 7.30263 13.5176 6.55111 14.2065 5.78758C14.4874 5.49583 14.5231 5.01851 14.3082 4.67599C13.7626 3.72412 13.1012 2.85071 12.4237 1.99763C12.3435 1.921 12.2838 1.78713 12.1599 1.78436C11.4848 1.85591 10.8286 2.08649 10.15 2.12923C10.1238 2.13089 10.0974 2.12969 10.0714 2.12546C9.2976 1.99967 8.58334 1.51614 7.77768 1.59694C7.1242 1.69802 6.52351 2.03372 5.87075 2.13502C5.84072 2.13969 5.81019 2.14034 5.77996 2.13726C5.15505 2.07359 4.54492 1.87549 3.9222 1.80626C3.82912 1.79591 3.73418 1.82056 3.66711 1.88592C3.52964 2.0199 3.42547 2.19001 3.30366 2.33832C2.6975 3.11107 2.11807 3.90969 1.63582 4.772C1.50389 5.08314 1.51994 5.49583 1.75705 5.74973C2.07618 6.12457 2.42651 6.47079 2.73851 6.85116C2.99183 7.15577 2.76136 7.68948 2.37989 7.70422C2.35876 7.70504 2.33751 7.70592 2.31639 7.70701C2.01848 7.7224 1.84323 7.42879 1.65632 7.23432C1.38177 6.90748 1.0671 6.61758 0.81661 6.27043C0.435085 5.69064 0.398536 4.8911 0.706074 4.26883C1.28104 3.20525 2.02091 2.25246 2.75545 1.30427C3.02643 0.916505 3.48372 0.659841 3.95262 0.706004C4.55029 0.78316 5.13483 0.947213 5.73147 1.03367ZM7.67338 11.1203C7.22707 11.5468 6.69386 11.8403 6.14614 12.1007C5.86296 12.2353 5.82861 12.6282 6.07948 12.8163C6.6109 13.2148 7.11573 13.6517 7.60564 14.1042C7.73222 14.2095 7.87128 14.3534 8.04956 14.3202C8.19219 14.2898 8.29648 14.1744 8.40702 14.0848C8.90293 13.6309 9.41496 13.1947 9.94501 12.7833C10.1831 12.5985 10.1473 12.2305 9.87321 12.1051C9.49477 11.932 9.12065 11.7502 8.78676 11.4942C8.5556 11.3289 8.35773 11.1205 8.13625 10.9431C8.07818 10.8966 8.00275 10.8629 7.93536 10.8944C7.83491 10.9414 7.76245 11.0551 7.67338 11.1203Z" fill="url(#paint0_linear_554_159)" stroke="url(#paint1_linear_554_159)" stroke-width="0.7"/>
<defs>
<linearGradient id="paint0_linear_554_159" x1="3.3125" y1="13.5544" x2="12.6279" y2="2.31551" gradientUnits="userSpaceOnUse">
<stop stop-color="#FF2580"/>
<stop offset="1" stop-color="#FFAB2C"/>
</linearGradient>
<linearGradient id="paint1_linear_554_159" x1="3.3125" y1="13.5544" x2="12.6279" y2="2.31551" gradientUnits="userSpaceOnUse">
<stop stop-color="#FF2580"/>
<stop offset="1" stop-color="#FFAB2C"/>
</linearGradient>
</defs>
</svg>
