<svg width="128" height="128" viewBox="0 0 128 128" fill="none" xmlns="http://www.w3.org/2000/svg">
<path d="M56.4004 43.3501L30.1504 69.6001Z" fill="url(#paint0_linear_726_25)"/>
<path d="M65.8496 44.4004L88.9496 66.4504Z" fill="url(#paint1_linear_726_25)"/>
<mask id="path-3-inside-1_726_25" fill="white">
<path fill-rule="evenodd" clip-rule="evenodd" d="M49.8423 41.0659C49.8423 30.5361 58.3784 22 68.9082 22C79.438 22 87.9741 30.5361 87.9741 41.0659C87.9741 44.5192 87.056 47.7581 85.4506 50.5518L99 63.3305L92.5566 70L79.0195 57.2328C76.0885 59.0698 72.6224 60.1319 68.9082 60.1319C66.0511 60.1319 63.3407 59.5034 60.9078 58.3772L50.8769 68.4948C52.7698 72.0515 53.8425 76.1111 53.8425 80.4212C53.8425 94.461 42.461 105.842 28.4212 105.842C14.3815 105.842 3 94.461 3 80.4212C3 66.3815 14.3815 55 28.4212 55C34.3915 55 39.881 57.0581 44.2191 60.5034L53.027 51.6194C51.0149 48.5975 49.8423 44.9687 49.8423 41.0659ZM62.5527 41.0662C62.5527 37.5562 65.398 34.7108 68.908 34.7108C72.4179 34.7108 75.2633 37.5562 75.2633 41.0662C75.2633 44.5761 72.4179 47.4215 68.908 47.4215C65.398 47.4215 62.5527 44.5761 62.5527 41.0662ZM28.421 67.7108C21.4011 67.7108 15.7104 73.4016 15.7104 80.4215C15.7104 87.4413 21.4011 93.1321 28.421 93.1321C35.4409 93.1321 41.1316 87.4413 41.1316 80.4215C41.1316 73.4016 35.4409 67.7108 28.421 67.7108Z"/>
</mask>
<path fill-rule="evenodd" clip-rule="evenodd" d="M49.8423 41.0659C49.8423 30.5361 58.3784 22 68.9082 22C79.438 22 87.9741 30.5361 87.9741 41.0659C87.9741 44.5192 87.056 47.7581 85.4506 50.5518L99 63.3305L92.5566 70L79.0195 57.2328C76.0885 59.0698 72.6224 60.1319 68.9082 60.1319C66.0511 60.1319 63.3407 59.5034 60.9078 58.3772L50.8769 68.4948C52.7698 72.0515 53.8425 76.1111 53.8425 80.4212C53.8425 94.461 42.461 105.842 28.4212 105.842C14.3815 105.842 3 94.461 3 80.4212C3 66.3815 14.3815 55 28.4212 55C34.3915 55 39.881 57.0581 44.2191 60.5034L53.027 51.6194C51.0149 48.5975 49.8423 44.9687 49.8423 41.0659ZM62.5527 41.0662C62.5527 37.5562 65.398 34.7108 68.908 34.7108C72.4179 34.7108 75.2633 37.5562 75.2633 41.0662C75.2633 44.5761 72.4179 47.4215 68.908 47.4215C65.398 47.4215 62.5527 44.5761 62.5527 41.0662ZM28.421 67.7108C21.4011 67.7108 15.7104 73.4016 15.7104 80.4215C15.7104 87.4413 21.4011 93.1321 28.421 93.1321C35.4409 93.1321 41.1316 87.4413 41.1316 80.4215C41.1316 73.4016 35.4409 67.7108 28.421 67.7108Z" fill="url(#paint2_linear_726_25)"/>
<path d="M85.4506 50.5518L84.5836 50.0535L84.1903 50.7378L84.7645 51.2793L85.4506 50.5518ZM99 63.3305L99.7192 64.0253L100.422 63.2974L99.6861 62.603L99 63.3305ZM92.5566 70L91.8705 70.7275L92.5893 71.4054L93.2758 70.6948L92.5566 70ZM79.0195 57.2328L79.7056 56.5053L79.1433 55.975L78.4884 56.3855L79.0195 57.2328ZM60.9078 58.3772L61.3279 57.4697L60.6915 57.1751L60.1977 57.6731L60.9078 58.3772ZM50.8769 68.4948L50.1667 67.7907L49.6479 68.3141L49.9941 68.9646L50.8769 68.4948ZM44.2191 60.5034L43.5971 61.2865L44.2986 61.8436L44.9292 61.2075L44.2191 60.5034ZM53.027 51.6194L53.7372 52.3235L54.3115 51.7442L53.8594 51.0652L53.027 51.6194ZM68.9082 21C57.8261 21 48.8423 29.9838 48.8423 41.0659H50.8423C50.8423 31.0884 58.9306 23 68.9082 23V21ZM88.9741 41.0659C88.9741 29.9838 79.9903 21 68.9082 21V23C78.8857 23 86.9741 31.0884 86.9741 41.0659H88.9741ZM86.3176 51.05C88.0078 48.1088 88.9741 44.6987 88.9741 41.0659H86.9741C86.9741 44.3398 86.1042 47.4074 84.5836 50.0535L86.3176 51.05ZM84.7645 51.2793L98.3139 64.058L99.6861 62.603L86.1367 49.8243L84.7645 51.2793ZM98.2808 62.6357L91.8374 69.3052L93.2758 70.6948L99.7192 64.0253L98.2808 62.6357ZM93.2427 69.2725L79.7056 56.5053L78.3333 57.9603L91.8705 70.7275L93.2427 69.2725ZM68.9082 61.1319C72.8156 61.1319 76.4651 60.014 79.5505 58.0802L78.4884 56.3855C75.712 58.1256 72.4291 59.1319 68.9082 59.1319V61.1319ZM60.4878 59.2847C63.0496 60.4706 65.903 61.1319 68.9082 61.1319V59.1319C66.1991 59.1319 63.6318 58.5362 61.3279 57.4697L60.4878 59.2847ZM60.1977 57.6731L50.1667 67.7907L51.587 69.1988L61.618 59.0812L60.1977 57.6731ZM49.9941 68.9646C51.8119 72.3802 52.8425 76.2789 52.8425 80.4212H54.8425C54.8425 75.9433 53.7277 71.7228 51.7596 68.025L49.9941 68.9646ZM52.8425 80.4212C52.8425 93.9087 41.9087 104.842 28.4212 104.842V106.842C43.0133 106.842 54.8425 95.0133 54.8425 80.4212H52.8425ZM28.4212 104.842C14.9338 104.842 4 93.9087 4 80.4212H2C2 95.0133 13.8292 106.842 28.4212 106.842V104.842ZM4 80.4212C4 66.9338 14.9338 56 28.4212 56V54C13.8292 54 2 65.8292 2 80.4212H4ZM28.4212 56C34.1576 56 39.4296 57.9766 43.5971 61.2865L44.841 59.7204C40.3324 56.1396 34.6253 54 28.4212 54V56ZM44.9292 61.2075L53.7372 52.3235L52.3169 50.9154L43.5089 59.7994L44.9292 61.2075ZM48.8423 41.0659C48.8423 45.172 50.0766 48.9927 52.1947 52.1737L53.8594 51.0652C51.9532 48.2024 50.8423 44.7654 50.8423 41.0659H48.8423ZM68.908 33.7108C64.8457 33.7108 61.5527 37.0039 61.5527 41.0662H63.5527C63.5527 38.1085 65.9503 35.7108 68.908 35.7108V33.7108ZM76.2633 41.0662C76.2633 37.0039 72.9702 33.7108 68.908 33.7108V35.7108C71.8656 35.7108 74.2633 38.1085 74.2633 41.0662H76.2633ZM68.908 48.4215C72.9702 48.4215 76.2633 45.1284 76.2633 41.0662H74.2633C74.2633 44.0238 71.8656 46.4215 68.908 46.4215V48.4215ZM61.5527 41.0662C61.5527 45.1284 64.8457 48.4215 68.908 48.4215V46.4215C65.9503 46.4215 63.5527 44.0238 63.5527 41.0662H61.5527ZM16.7104 80.4215C16.7104 73.9539 21.9534 68.7108 28.421 68.7108V66.7108C20.8489 66.7108 14.7104 72.8493 14.7104 80.4215H16.7104ZM28.421 92.1321C21.9534 92.1321 16.7104 86.8891 16.7104 80.4215H14.7104C14.7104 87.9936 20.8489 94.1321 28.421 94.1321V92.1321ZM40.1316 80.4215C40.1316 86.8891 34.8886 92.1321 28.421 92.1321V94.1321C35.9932 94.1321 42.1316 87.9936 42.1316 80.4215H40.1316ZM28.421 68.7108C34.8886 68.7108 40.1316 73.9539 40.1316 80.4215H42.1316C42.1316 72.8493 35.9932 66.7108 28.421 66.7108V68.7108Z" fill="url(#paint3_linear_726_25)" mask="url(#path-3-inside-1_726_25)"/>
<path fill-rule="evenodd" clip-rule="evenodd" d="M100.372 60.1716C101.122 59.4214 102.139 59 103.2 59H114.4C115.915 59 117.3 59.856 117.978 61.2111L123.578 72.4111C124.566 74.3871 123.765 76.7898 121.789 77.7777C119.813 78.7657 117.41 77.9648 116.422 75.9889L111.928 67H104.857L96 75.8569V82.9279L104.989 87.4223C106.965 88.4102 107.766 90.8129 106.778 92.7889C105.79 94.7648 103.387 95.5657 101.411 94.5777L90.2111 88.9777C88.856 88.3001 88 86.9151 88 85.4V74.2C88 73.1391 88.4214 72.1217 89.1716 71.3716L100.372 60.1716Z" fill="url(#paint4_linear_726_25)" stroke="url(#paint5_linear_726_25)" stroke-width="2" stroke-linecap="round" stroke-linejoin="round"/>
<defs>
<linearGradient id="paint0_linear_726_25" x1="29.771" y1="43.6084" x2="56.8325" y2="71.4978" gradientUnits="userSpaceOnUse">
<stop stop-color="#F9D423"/>
<stop offset="0.515624" stop-color="#FF4E50"/>
<stop offset="0.991304" stop-color="#8A2387"/>
</linearGradient>
<linearGradient id="paint1_linear_726_25" x1="65.5157" y1="44.6174" x2="88.191" y2="69.0992" gradientUnits="userSpaceOnUse">
<stop stop-color="#F9D423"/>
<stop offset="0.515624" stop-color="#FF4E50"/>
<stop offset="0.991304" stop-color="#8A2387"/>
</linearGradient>
<linearGradient id="paint2_linear_726_25" x1="51" y1="105.842" x2="51" y2="22" gradientUnits="userSpaceOnUse">
<stop stop-color="#FD5900"/>
<stop offset="1" stop-color="#FFDE00"/>
</linearGradient>
<linearGradient id="paint3_linear_726_25" x1="51" y1="105.842" x2="51" y2="22" gradientUnits="userSpaceOnUse">
<stop stop-color="#FD5900"/>
<stop offset="1" stop-color="#FFDE00"/>
</linearGradient>
<linearGradient id="paint4_linear_726_25" x1="104.564" y1="59.7237" x2="109.021" y2="93.489" gradientUnits="userSpaceOnUse">
<stop stop-color="#F70FA8"/>
<stop offset="1" stop-color="#F40631"/>
</linearGradient>
<linearGradient id="paint5_linear_726_25" x1="104.564" y1="59.7237" x2="109.021" y2="93.489" gradientUnits="userSpaceOnUse">
<stop stop-color="#F70FA8"/>
<stop offset="1" stop-color="#F40631"/>
</linearGradient>
</defs>
</svg>
