<svg width="64" height="64" viewBox="0 0 64 64" fill="none" xmlns="http://www.w3.org/2000/svg">
<path d="M20.8 15C11.525 15 4 22.525 4 31.8C4 41.075 11.525 48.6 20.8 48.6H43.2C52.475 48.6 60 41.075 60 31.8C60 22.525 52.475 15 43.2 15H20.8Z" stroke="url(#paint0_linear_449_704)" stroke-width="5"/>
<path d="M52.7842 24.2158C52.0058 23.4373 50.95 23 49.8491 23C48.7482 23 47.6923 23.4373 46.9139 24.2158C46.1354 24.9942 45.6981 26.05 45.6981 27.1509C45.6981 28.2518 46.1354 29.3077 46.9139 30.0861C47.6923 30.8646 48.7482 31.3019 49.8491 31.3019C50.95 31.3019 52.0058 30.8646 52.7842 30.0861C53.5627 29.3077 54 28.2518 54 27.1509C54 26.05 53.5627 24.9942 52.7842 24.2158Z" fill="url(#paint1_linear_449_704)"/>
<path d="M40.2724 34.178C39.4939 34.9565 39.0566 36.0123 39.0566 37.1132C39.0566 38.2141 39.4939 39.2699 40.2724 40.0484C41.0508 40.8268 42.1066 41.2642 43.2075 41.2642C44.3084 41.2642 45.3643 40.8268 46.1427 40.0484C46.9212 39.2699 47.3585 38.2141 47.3585 37.1132C47.3585 36.0123 46.9212 34.9565 46.1427 34.178C45.3643 33.3996 44.3084 32.9623 43.2075 32.9623C42.1066 32.9623 41.0508 33.3996 40.2724 34.178Z" fill="url(#paint2_linear_449_704)"/>
<path d="M18.3019 23.8302C16.9217 23.8302 15.8113 24.9406 15.8113 26.3208V28.6415C15.8113 29.1938 15.3636 29.6415 14.8113 29.6415H12.4906C11.1104 29.6415 10 30.7519 10 32.1321C10 33.5123 11.1104 34.6226 12.4906 34.6226H14.8113C15.3636 34.6226 15.8113 35.0704 15.8113 35.6226V37.9434C15.8113 39.3236 16.9217 40.434 18.3019 40.434C19.6821 40.434 20.7925 39.3236 20.7925 37.9434V35.6226C20.7925 35.0704 21.2402 34.6226 21.7925 34.6226H24.1132C25.4934 34.6226 26.6038 33.5123 26.6038 32.1321C26.6038 30.7519 25.4934 29.6415 24.1132 29.6415H21.7925C21.2402 29.6415 20.7925 29.1938 20.7925 28.6415V26.3208C20.7925 24.9406 19.6821 23.8302 18.3019 23.8302Z" fill="url(#paint3_linear_449_704)"/>
<defs>
<linearGradient id="paint0_linear_449_704" x1="32" y1="15" x2="32" y2="48.6" gradientUnits="userSpaceOnUse">
<stop stop-color="#97EB0E"/>
<stop offset="1" stop-color="#19B90B"/>
</linearGradient>
<linearGradient id="paint1_linear_449_704" x1="32" y1="23" x2="32" y2="41.2642" gradientUnits="userSpaceOnUse">
<stop stop-color="#97EB0E"/>
<stop offset="1" stop-color="#19B90B"/>
</linearGradient>
<linearGradient id="paint2_linear_449_704" x1="32" y1="23" x2="32" y2="41.2642" gradientUnits="userSpaceOnUse">
<stop stop-color="#97EB0E"/>
<stop offset="1" stop-color="#19B90B"/>
</linearGradient>
<linearGradient id="paint3_linear_449_704" x1="32" y1="23" x2="32" y2="41.2642" gradientUnits="userSpaceOnUse">
<stop stop-color="#97EB0E"/>
<stop offset="1" stop-color="#19B90B"/>
</linearGradient>
</defs>
</svg>
