<svg width="16" height="16" viewBox="0 0 16 16" fill="none" xmlns="http://www.w3.org/2000/svg">
<path fill-rule="evenodd" clip-rule="evenodd" d="M0.5 3.73045C0.5 2.49861 1.49861 1.5 2.73045 1.5H4.77573C5.57798 1.5 6.3462 1.82412 6.906 2.39878L7.72871 3.24335C7.86866 3.38702 8.06072 3.46805 8.26128 3.46805H11.2348C12.8057 3.46805 14.0916 4.68579 14.2012 6.2281C15.2119 6.61922 15.7891 7.78901 15.3526 8.88057L13.9973 12.2696C13.5458 13.3988 12.4522 14.1392 11.236 14.1392H3.47394C2.64512 14.1392 1.89435 13.7992 1.35587 13.2529C0.827396 12.7168 0.5 11.9785 0.5 11.1653V3.73045ZM12.6804 6.09211C12.5231 5.43981 11.9357 4.95502 11.2348 4.95502H8.26128C7.65959 4.95502 7.08342 4.71192 6.66358 4.28093L5.84086 3.43636C5.56097 3.14903 5.17685 2.98697 4.77573 2.98697H2.73045C2.31984 2.98697 1.98697 3.31984 1.98697 3.73045V10.0107L2.7588 7.63372C3.05727 6.71451 3.91377 6.09211 4.88022 6.09211H12.6804ZM2.75301 12.4663L4.17308 8.09295C4.27257 7.78655 4.55807 7.57908 4.88022 7.57908H13.4646C13.8511 7.57908 14.1155 7.9695 13.972 8.32844L12.6167 11.7174C12.3909 12.282 11.8441 12.6523 11.236 12.6523H3.47394C3.21212 12.6523 2.96656 12.585 2.75301 12.4663Z" fill="url(#paint0_linear_499_470)"/>
<path d="M6.906 2.39878C6.3462 1.82412 5.57798 1.5 4.77573 1.5H2.73045C1.49861 1.5 0.5 2.49861 0.5 3.73045V11.1653C0.5 11.9785 0.827396 12.7168 1.35587 13.2529C1.89435 13.7992 2.64512 14.1392 3.47394 14.1392H11.236C12.4522 14.1392 13.5458 13.3988 13.9973 12.2696L15.3526 8.88057C15.7891 7.78901 15.2119 6.61922 14.2012 6.2281C14.0916 4.68579 12.8057 3.46805 11.2348 3.46805H8.26128C8.06072 3.46805 7.86866 3.38702 7.72871 3.24335L6.906 2.39878ZM6.906 2.39878L6.4096 2.88234M5.84086 3.43636L6.66358 4.28093C7.08342 4.71192 7.65959 4.95502 8.26128 4.95502H11.2348C11.9357 4.95502 12.5231 5.43981 12.6804 6.09211H4.88022C3.91377 6.09211 3.05727 6.71451 2.7588 7.63372L1.98697 10.0107V3.73045C1.98697 3.31984 2.31984 2.98697 2.73045 2.98697H4.77573C5.17685 2.98697 5.56097 3.14903 5.84086 3.43636ZM5.84086 3.43636L6.37343 2.91757M2.75301 12.4663L4.17308 8.09295C4.27257 7.78655 4.55807 7.57908 4.88022 7.57908H13.4646C13.8511 7.57908 14.1155 7.9695 13.972 8.32844L12.6167 11.7174C12.3909 12.282 11.8441 12.6523 11.236 12.6523H3.47394C3.21212 12.6523 2.96656 12.585 2.75301 12.4663Z" stroke="url(#paint1_linear_499_470)" stroke-width="0.4"/>
<defs>
<linearGradient id="paint0_linear_499_470" x1="8.04404" y1="16.714" x2="8.04404" y2="2.70729" gradientUnits="userSpaceOnUse">
<stop stop-color="#FDA700"/>
<stop offset="1" stop-color="#FFDE00"/>
</linearGradient>
<linearGradient id="paint1_linear_499_470" x1="8.04404" y1="16.714" x2="8.04404" y2="2.70729" gradientUnits="userSpaceOnUse">
<stop stop-color="#FDA700"/>
<stop offset="1" stop-color="#FFDE00"/>
</linearGradient>
</defs>
</svg>
