<svg width="16" height="16" viewBox="0 0 16 16" fill="none" xmlns="http://www.w3.org/2000/svg">
<path d="M8 6.23318V14.1665M8 6.23318C8 4.92639 8 4.27327 8.25432 3.77414C8.47802 3.3351 8.83472 2.97802 9.27376 2.75432C9.77289 2.5 10.4264 2.5 11.7332 2.5H13.7554C14.191 2.5 14.409 2.5 14.5753 2.58477C14.7217 2.65934 14.8404 2.77824 14.9149 2.92459C14.9997 3.09096 15 3.30892 15 3.74452V10.589C15 11.0246 14.9997 11.2421 14.9149 11.4084C14.8404 11.5548 14.7219 11.6741 14.5756 11.7486C14.4094 11.8333 14.1919 11.8333 13.7571 11.8333H11.5539C10.8234 11.8333 10.4575 11.8333 10.126 11.934C9.83247 12.0232 9.55996 12.1691 9.32299 12.3639C9.05531 12.5839 8.85246 12.8878 8.44725 13.4956L8 14.1665M8 6.23318C8 4.92639 7.99987 4.27327 7.74555 3.77414C7.52185 3.3351 7.16487 2.97802 6.72583 2.75432C6.2267 2.5 5.57315 2.5 4.26636 2.5H2.24414C1.80854 2.5 1.59096 2.5 1.42459 2.58477C1.27824 2.65934 1.15934 2.77824 1.08477 2.92459C1 3.09096 1 3.30892 1 3.74452V10.589C1 11.0246 1 11.2421 1.08477 11.4084C1.15934 11.5548 1.27824 11.6741 1.42459 11.7486C1.5908 11.8333 1.80812 11.8333 2.24286 11.8333H4.44612C5.17662 11.8333 5.54177 11.8333 5.87331 11.934C6.16682 12.0232 6.44065 12.1691 6.67763 12.3639C6.94422 12.583 7.14578 12.8853 7.54771 13.4882L8 14.1665" stroke="url(#paint0_linear_507_372)" stroke-width="1.8" stroke-linecap="round" stroke-linejoin="round"/>
<defs>
<linearGradient id="paint0_linear_507_372" x1="1" y1="8.33326" x2="15" y2="8.33326" gradientUnits="userSpaceOnUse">
<stop stop-color="#FFC152"/>
<stop offset="1" stop-color="#FF5F5F"/>
</linearGradient>
</defs>
</svg>
