<svg width="16" height="16" viewBox="0 0 16 16" fill="none" xmlns="http://www.w3.org/2000/svg">
<path d="M1 8C1 4.9359 1 3.40385 2.0248 2.4516C3.051 1.5 4.7002 1.5 8 1.5C11.2998 1.5 12.9497 1.5 13.9745 2.4516C15 3.4045 15 4.9359 15 8C15 11.0641 15 12.5961 13.9745 13.5477C12.9504 14.5 11.2998 14.5 8 14.5C4.7002 14.5 3.0503 14.5 2.0248 13.5477C1 12.5968 1 11.0641 1 8Z" stroke="url(#paint0_linear_661_127)" stroke-width="1.8"/>
<path fill-rule="evenodd" clip-rule="evenodd" d="M5.125 5C5.05596 5 5 5.05596 5 5.125V5.875C5 5.94404 4.94404 6 4.875 6H4.5C3.669 6 3 6.669 3 7.5C3 8.331 3.669 9 4.5 9H4.875C4.94404 9 5 9.05596 5 9.125V9.875C5 9.94404 4.94404 10 4.875 10H4.5H3.26865C3.18235 10 3.12233 10.0855 3.16041 10.1629C3.40404 10.6584 3.9086 11 4.5 11H4.875C4.94404 11 5 11.056 5 11.125V11.875C5 11.944 5.05596 12 5.125 12H5.875C5.94404 12 6 11.944 6 11.875V11.125C6 11.056 6.05596 11 6.125 11H6.5C7.331 11 8 10.331 8 9.5C8 8.669 7.331 8 6.5 8H6.125C6.05596 8 6 7.94404 6 7.875V7.125C6 7.05596 6.05596 7 6.125 7H6.5H7.73135C7.81765 7 7.87768 6.91453 7.83959 6.83709C7.59596 6.34163 7.0914 6 6.5 6H6.125C6.05596 6 6 5.94404 6 5.875V5.125C6 5.05596 5.94404 5 5.875 5H5.125ZM4.5 7H4.875C4.94404 7 5 7.05596 5 7.125V7.875C5 7.94404 4.94404 8 4.875 8H4.5C4.2057 8 4 7.7943 4 7.5C4 7.2057 4.2057 7 4.5 7ZM6 9.125C6 9.05596 6.05596 9 6.125 9H6.5C6.7943 9 7 9.2057 7 9.5C7 9.7943 6.7943 10 6.5 10H6.125C6.05596 10 6 9.94404 6 9.875V9.125ZM12.456 11.794C12.5498 11.7002 12.6025 11.573 12.6025 11.4404C12.6025 11.3078 12.5498 11.1807 12.456 11.0869C12.3623 10.9931 12.2351 10.9404 12.1025 10.9404H9.44383C9.31125 10.9404 9.18406 10.9931 9.09029 11.0869C8.99652 11.1807 8.94385 11.3078 8.94385 11.4404C8.94385 11.573 8.99652 11.7002 9.09029 11.794C9.18406 11.8877 9.31125 11.9404 9.44383 11.9404H12.1025C12.2351 11.9404 12.3623 11.8877 12.456 11.794Z" fill="url(#paint1_linear_661_127)"/>
<path d="M3.16041 10.1629L3.33989 10.0747L3.33988 10.0746L3.16041 10.1629ZM7.83959 6.83709L7.66011 6.92534L7.66012 6.92536L7.83959 6.83709ZM12.456 11.794L12.5975 11.9354L12.5975 11.9354L12.456 11.794ZM9.09029 11.0869L8.94887 10.9455L8.94887 10.9455L9.09029 11.0869ZM9.09029 11.794L8.94887 11.9354L8.94887 11.9354L9.09029 11.794ZM5.2 5.125C5.2 5.16642 5.16642 5.2 5.125 5.2V4.8C4.94551 4.8 4.8 4.94551 4.8 5.125H5.2ZM5.2 5.875V5.125H4.8V5.875H5.2ZM4.875 6.2C5.05449 6.2 5.2 6.05449 5.2 5.875H4.8C4.8 5.83358 4.83358 5.8 4.875 5.8V6.2ZM4.5 6.2H4.875V5.8H4.5V6.2ZM3.2 7.5C3.2 6.77946 3.77946 6.2 4.5 6.2V5.8C3.55854 5.8 2.8 6.55854 2.8 7.5H3.2ZM4.5 8.8C3.77946 8.8 3.2 8.22054 3.2 7.5H2.8C2.8 8.44146 3.55854 9.2 4.5 9.2V8.8ZM4.875 8.8H4.5V9.2H4.875V8.8ZM5.2 9.125C5.2 8.94551 5.05449 8.8 4.875 8.8V9.2C4.83358 9.2 4.8 9.16642 4.8 9.125H5.2ZM5.2 9.875V9.125H4.8V9.875H5.2ZM4.875 10.2C5.05449 10.2 5.2 10.0545 5.2 9.875H4.8C4.8 9.83358 4.83358 9.8 4.875 9.8V10.2ZM4.5 10.2H4.875V9.8H4.5V10.2ZM3.26865 10.2H4.5V9.8H3.26865V10.2ZM3.33988 10.0746C3.35473 10.1048 3.34986 10.1404 3.33347 10.1646C3.31819 10.1871 3.29344 10.2 3.26865 10.2V9.8C3.05393 9.8 2.86901 10.0236 2.98095 10.2512L3.33988 10.0746ZM4.5 10.8C3.98851 10.8 3.55153 10.5051 3.33989 10.0747L2.98094 10.2512C3.25655 10.8117 3.82869 11.2 4.5 11.2V10.8ZM4.875 10.8H4.5V11.2H4.875V10.8ZM5.2 11.125C5.2 10.9455 5.05449 10.8 4.875 10.8V11.2C4.83358 11.2 4.8 11.1664 4.8 11.125H5.2ZM5.2 11.875V11.125H4.8V11.875H5.2ZM5.125 11.8C5.16642 11.8 5.2 11.8336 5.2 11.875H4.8C4.8 12.0545 4.94551 12.2 5.125 12.2V11.8ZM5.875 11.8H5.125V12.2H5.875V11.8ZM5.8 11.875C5.8 11.8336 5.83358 11.8 5.875 11.8V12.2C6.05449 12.2 6.2 12.0545 6.2 11.875H5.8ZM5.8 11.125V11.875H6.2V11.125H5.8ZM6.125 10.8C5.94551 10.8 5.8 10.9455 5.8 11.125H6.2C6.2 11.1664 6.16642 11.2 6.125 11.2V10.8ZM6.5 10.8H6.125V11.2H6.5V10.8ZM7.8 9.5C7.8 10.2205 7.22054 10.8 6.5 10.8V11.2C7.44146 11.2 8.2 10.4415 8.2 9.5H7.8ZM6.5 8.2C7.22054 8.2 7.8 8.77946 7.8 9.5H8.2C8.2 8.55854 7.44146 7.8 6.5 7.8V8.2ZM6.125 8.2H6.5V7.8H6.125V8.2ZM5.8 7.875C5.8 8.05449 5.94551 8.2 6.125 8.2V7.8C6.16642 7.8 6.2 7.83358 6.2 7.875H5.8ZM5.8 7.125V7.875H6.2V7.125H5.8ZM6.125 6.8C5.94551 6.8 5.8 6.94551 5.8 7.125H6.2C6.2 7.16642 6.16642 7.2 6.125 7.2V6.8ZM6.5 6.8H6.125V7.2H6.5V6.8ZM7.73135 6.8H6.5V7.2H7.73135V6.8ZM7.66012 6.92536C7.64527 6.89516 7.65014 6.85961 7.66653 6.83541C7.68181 6.81286 7.70656 6.8 7.73135 6.8V7.2C7.94607 7.2 8.13099 6.9764 8.01905 6.74882L7.66012 6.92536ZM6.5 6.2C7.01149 6.2 7.44847 6.49492 7.66011 6.92534L8.01906 6.74884C7.74345 6.18833 7.17131 5.8 6.5 5.8V6.2ZM6.125 6.2H6.5V5.8H6.125V6.2ZM5.8 5.875C5.8 6.05449 5.94551 6.2 6.125 6.2V5.8C6.16642 5.8 6.2 5.83358 6.2 5.875H5.8ZM5.8 5.125V5.875H6.2V5.125H5.8ZM5.875 5.2C5.83358 5.2 5.8 5.16642 5.8 5.125H6.2C6.2 4.94551 6.05449 4.8 5.875 4.8V5.2ZM5.125 5.2H5.875V4.8H5.125V5.2ZM4.875 6.8H4.5V7.2H4.875V6.8ZM5.2 7.125C5.2 6.94551 5.05449 6.8 4.875 6.8V7.2C4.83358 7.2 4.8 7.16642 4.8 7.125H5.2ZM5.2 7.875V7.125H4.8V7.875H5.2ZM4.875 8.2C5.05449 8.2 5.2 8.05449 5.2 7.875H4.8C4.8 7.83358 4.83358 7.8 4.875 7.8V8.2ZM4.5 8.2H4.875V7.8H4.5V8.2ZM3.8 7.5C3.8 7.69498 3.86897 7.87253 3.99822 8.00178C4.12747 8.13103 4.30502 8.2 4.5 8.2V7.8C4.40068 7.8 4.32823 7.76612 4.28106 7.71894C4.23388 7.67177 4.2 7.59932 4.2 7.5H3.8ZM4.5 6.8C4.30502 6.8 4.12747 6.86897 3.99822 6.99822C3.86897 7.12747 3.8 7.30502 3.8 7.5H4.2C4.2 7.40068 4.23388 7.32823 4.28106 7.28106C4.32823 7.23388 4.40068 7.2 4.5 7.2V6.8ZM6.125 8.8C5.94551 8.8 5.8 8.94551 5.8 9.125H6.2C6.2 9.16642 6.16642 9.2 6.125 9.2V8.8ZM6.5 8.8H6.125V9.2H6.5V8.8ZM7.2 9.5C7.2 9.30502 7.13103 9.12747 7.00178 8.99822C6.87253 8.86897 6.69498 8.8 6.5 8.8V9.2C6.59932 9.2 6.67177 9.23388 6.71894 9.28106C6.76612 9.32823 6.8 9.40068 6.8 9.5H7.2ZM6.5 10.2C6.69498 10.2 6.87253 10.131 7.00178 10.0018C7.13103 9.87253 7.2 9.69498 7.2 9.5H6.8C6.8 9.59932 6.76612 9.67177 6.71894 9.71894C6.67177 9.76612 6.59932 9.8 6.5 9.8V10.2ZM6.125 10.2H6.5V9.8H6.125V10.2ZM5.8 9.875C5.8 10.0545 5.94551 10.2 6.125 10.2V9.8C6.16642 9.8 6.2 9.83358 6.2 9.875H5.8ZM5.8 9.125V9.875H6.2V9.125H5.8ZM12.4025 11.4404C12.4025 11.52 12.3709 11.5963 12.3146 11.6525L12.5975 11.9354C12.7287 11.8041 12.8025 11.6261 12.8025 11.4404H12.4025ZM12.3146 11.2283C12.3709 11.2846 12.4025 11.3609 12.4025 11.4404H12.8025C12.8025 11.2548 12.7287 11.0767 12.5975 10.9455L12.3146 11.2283ZM12.1025 11.1404C12.1821 11.1404 12.2584 11.172 12.3146 11.2283L12.5975 10.9455C12.4662 10.8142 12.2882 10.7404 12.1025 10.7404V11.1404ZM9.44383 11.1404H12.1025V10.7404H9.44383V11.1404ZM9.23171 11.2283C9.28798 11.172 9.3643 11.1404 9.44383 11.1404V10.7404C9.25819 10.7404 9.08014 10.8142 8.94887 10.9455L9.23171 11.2283ZM9.14385 11.4404C9.14385 11.3609 9.17544 11.2846 9.23171 11.2283L8.94887 10.9455C8.81759 11.0767 8.74385 11.2548 8.74385 11.4404H9.14385ZM9.23171 11.6525C9.17545 11.5963 9.14385 11.52 9.14385 11.4404H8.74385C8.74385 11.6261 8.81758 11.8041 8.94887 11.9354L9.23171 11.6525ZM9.44383 11.7404C9.36431 11.7404 9.28798 11.7088 9.23171 11.6525L8.94887 11.9354C9.08014 12.0667 9.25819 12.1404 9.44383 12.1404V11.7404ZM12.1025 11.7404H9.44383V12.1404H12.1025V11.7404ZM12.3146 11.6525C12.2584 11.7088 12.1821 11.7404 12.1025 11.7404V12.1404C12.2882 12.1404 12.4662 12.0667 12.5975 11.9354L12.3146 11.6525Z" fill="url(#paint2_linear_661_127)"/>
<defs>
<linearGradient id="paint0_linear_661_127" x1="0.79764" y1="1.62792" x2="14.1331" y2="16.4285" gradientUnits="userSpaceOnUse">
<stop stop-color="#F9D423"/>
<stop offset="0.515624" stop-color="#FF4E50"/>
<stop offset="0.991304" stop-color="#8A2387"/>
</linearGradient>
<linearGradient id="paint1_linear_661_127" x1="2.85726" y1="5.06887" x2="9.5993" y2="14.871" gradientUnits="userSpaceOnUse">
<stop stop-color="#F9D423"/>
<stop offset="0.515624" stop-color="#FF4E50"/>
<stop offset="0.991304" stop-color="#8A2387"/>
</linearGradient>
<linearGradient id="paint2_linear_661_127" x1="2.85726" y1="5.06887" x2="9.5993" y2="14.871" gradientUnits="userSpaceOnUse">
<stop stop-color="#F9D423"/>
<stop offset="0.515624" stop-color="#FF4E50"/>
<stop offset="0.991304" stop-color="#8A2387"/>
</linearGradient>
</defs>
</svg>
