<svg width="16" height="16" viewBox="0 0 16 16" fill="none" xmlns="http://www.w3.org/2000/svg">
<path d="M11.2884 1.5H4.71143C3.33071 1.5 2.21143 2.61929 2.21143 4V12C2.21143 13.3807 3.33071 14.5 4.71143 14.5H11.2884C12.6691 14.5 13.7884 13.3807 13.7884 12V4C13.7884 2.61929 12.6691 1.5 11.2884 1.5Z" stroke="url(#paint0_linear_505_76)" stroke-width="1.8"/>
<path d="M11.0961 5.69775C11.2871 5.5068 11.3944 5.2478 11.3944 4.97775C11.3944 4.70767 11.2871 4.44867 11.0961 4.2577C10.9052 4.06675 10.6462 3.95947 10.3761 3.95947H5.62421C5.35416 3.95947 5.09516 4.06675 4.90421 4.2577C4.71326 4.44867 4.60596 4.70767 4.60596 4.97775C4.60596 5.2478 4.71326 5.5068 4.90421 5.69775C5.09516 5.8887 5.35416 5.996 5.62421 5.996H10.3761C10.6462 5.996 10.9052 5.8887 11.0961 5.69775Z" fill="url(#paint1_linear_505_76)"/>
<path d="M8.72018 9.0923C8.91113 8.90133 9.01843 8.64233 9.01843 8.37228C9.01843 8.1022 8.91113 7.84323 8.72018 7.65223C8.52923 7.46128 8.27023 7.354 8.00018 7.354H5.62421C5.35416 7.354 5.09516 7.46128 4.90421 7.65223C4.71326 7.84323 4.60596 8.1022 4.60596 8.37228C4.60596 8.64233 4.71326 8.90133 4.90421 9.0923C5.09516 9.28325 5.35416 9.39053 5.62421 9.39053H8.00018C8.27023 9.39053 8.52923 9.28325 8.72018 9.0923Z" fill="url(#paint2_linear_505_76)"/>
<defs>
<linearGradient id="paint0_linear_505_76" x1="7.9999" y1="15.5" x2="7.9999" y2="0.5" gradientUnits="userSpaceOnUse">
<stop stop-color="#5570FF"/>
<stop offset="1" stop-color="#4DD3FF"/>
</linearGradient>
<linearGradient id="paint1_linear_505_76" x1="8.00008" y1="15.4998" x2="8.00008" y2="-0.792392" gradientUnits="userSpaceOnUse">
<stop stop-color="#5570FF"/>
<stop offset="1" stop-color="#4DD3FF"/>
</linearGradient>
<linearGradient id="paint2_linear_505_76" x1="8.00008" y1="15.5001" x2="8.00008" y2="-0.792062" gradientUnits="userSpaceOnUse">
<stop stop-color="#5570FF"/>
<stop offset="1" stop-color="#4DD3FF"/>
</linearGradient>
</defs>
</svg>
