<svg width="192" height="192" viewBox="0 0 192 192" fill="none" xmlns="http://www.w3.org/2000/svg">
<path d="M86.1789 127.93L128.782 107.55C138.406 102.946 138.406 89.2432 128.782 84.6387L86.1789 64.2589C77.7502 60.2268 68 66.371 68 75.7144V116.474C68 125.818 77.7502 131.961 86.1789 127.93Z" fill="url(#paint0_linear_705_100)"/>
<path d="M96.5 173C140.959 173 177 138.526 177 96C177 53.4741 140.959 19 96.5 19C52.0411 19 16 53.4741 16 96C16 138.526 52.0411 173 96.5 173Z" stroke="url(#paint1_linear_705_100)" stroke-width="18"/>
<defs>
<linearGradient id="paint0_linear_705_100" x1="133.703" y1="64.8919" x2="108.392" y2="130.187" gradientUnits="userSpaceOnUse">
<stop stop-color="#FE0F7C"/>
<stop offset="1" stop-color="#DF0066"/>
</linearGradient>
<linearGradient id="paint1_linear_705_100" x1="171.561" y1="23.4018" x2="113.428" y2="176.006" gradientUnits="userSpaceOnUse">
<stop stop-color="#FE0F7C"/>
<stop offset="1" stop-color="#DF0066"/>
</linearGradient>
</defs>
</svg>
