<svg width="128" height="128" viewBox="0 0 128 128" fill="none" xmlns="http://www.w3.org/2000/svg">
<path d="M89.9927 12.6569L12.6569 89.9927C11.596 91.0536 11 92.4925 11 93.9928C11 95.4932 11.596 96.932 12.6569 97.9929L13.9903 99.3263C25.3065 110.643 40.6547 117 56.6583 117C72.6619 117 88.0101 110.643 99.3263 99.3263C110.643 88.0101 117 72.6619 117 56.6583C117 40.6547 110.643 25.3065 99.3263 13.9903L97.993 12.6569C96.9321 11.596 95.4932 11 93.9928 11C92.4925 11 91.0536 11.596 89.9927 12.6569ZM38.1644 80.4857L52.3948 66.2553L57.8983 86.7859C50.7822 87.086 43.7902 84.8537 38.1644 80.4857ZM63.3252 63.3252L84.2158 68.922C81.1922 75.7411 75.7411 81.1922 68.922 84.2158L63.3252 63.3252ZM86.7859 57.8983L66.2553 52.3948L80.4857 38.1644C84.8537 43.7902 87.086 50.7822 86.7859 57.8983ZM91.3261 91.3261C82.5852 100.045 70.8804 105.151 58.5436 105.627C46.2068 106.102 34.1436 101.913 24.7573 93.8928L30.1141 88.536C38.0682 95.1499 48.2063 98.5535 58.54 98.0792C68.8737 97.6049 78.6574 93.2869 85.9722 85.9722C93.2869 78.6574 97.6049 68.8737 98.0792 58.54C98.5535 48.2063 95.1499 38.0682 88.536 30.1141L93.8928 24.7573C101.913 34.1436 106.102 46.2068 105.627 58.5436C105.151 70.8804 100.045 82.5852 91.3261 91.3261Z" fill="url(#paint0_linear_730_64)"/>
<defs>
<linearGradient id="paint0_linear_730_64" x1="112.198" y1="12.8218" x2="15.3067" y2="114.681" gradientUnits="userSpaceOnUse">
<stop stop-color="#D800BD"/>
<stop offset="0.408098" stop-color="#F92D7A"/>
<stop offset="0.590073" stop-color="#FF4A52"/>
<stop offset="1" stop-color="#FFB243"/>
</linearGradient>
</defs>
</svg>
