<svg width="64" height="64" viewBox="0 0 64 64" fill="none" xmlns="http://www.w3.org/2000/svg">
<path d="M10.25 48.585C9.54096 47.7379 9.7109 46.4789 10.5878 45.8072L16.0237 41.6429C16.9005 40.9712 18.1506 41.1429 18.8704 41.9807C23.0776 46.877 27.5405 49.1501 32.4575 49.1501C37.3371 49.1501 41.6755 46.9141 45.6992 42.0809C46.4058 41.2321 47.6518 41.0374 48.5408 41.6926L54.0546 45.7566C54.9441 46.4123 55.1372 47.6687 54.442 48.5276C48.3584 56.0433 40.9501 60 32.4575 60C23.9872 60 16.5103 56.0642 10.25 48.585ZM33.7349 19.486C32.9849 18.8343 31.8702 18.832 31.1175 19.4806L18.6159 30.2536C17.7793 30.9745 16.5168 30.8809 15.7956 30.0445L11.3227 24.8569C10.6012 24.0202 10.6948 22.757 11.5318 22.0358L31.1498 5.12999C31.9026 4.48128 33.0175 4.48367 33.7675 5.13561L53.2193 22.0441C54.053 22.7688 54.1413 24.032 53.4167 24.8657L48.9231 30.0351C48.1985 30.8686 46.9355 30.9571 46.1018 30.2326L33.7349 19.486Z" fill="url(#paint0_linear_914_23)"/>
<defs>
<linearGradient id="paint0_linear_914_23" x1="32.3327" y1="4" x2="32.3327" y2="60" gradientUnits="userSpaceOnUse">
<stop stop-color="#DC18FC"/>
<stop offset="0.490205" stop-color="#765FFC"/>
</linearGradient>
</defs>
</svg>
