<svg width="16" height="16" viewBox="0 0 16 16" fill="none" xmlns="http://www.w3.org/2000/svg">
<path fill-rule="evenodd" clip-rule="evenodd" d="M3.84292 0.963311C4.19439 1.31478 4.19439 1.88463 3.84292 2.2361L2.0364 4.04262C1.68492 4.3941 1.11508 4.3941 0.763604 4.04262C0.412132 3.69115 0.412132 3.1213 0.763604 2.76983L2.57013 0.963311C2.9216 0.611839 3.49145 0.611839 3.84292 0.963311ZM2.90236 8.224C2.90236 5.39535 5.19544 3.10227 8.0241 3.10227C10.8528 3.10227 13.1458 5.39535 13.1458 8.224C13.1458 11.0527 10.8528 13.3457 8.0241 13.3457C5.19544 13.3457 2.90236 11.0527 2.90236 8.224ZM8.0241 1.30227C4.20133 1.30227 1.10236 4.40123 1.10236 8.224C1.10236 12.0468 4.20133 15.1457 8.0241 15.1457C11.8469 15.1457 14.9458 12.0468 14.9458 8.224C14.9458 4.40123 11.8469 1.30227 8.0241 1.30227ZM8.92402 5.81504C8.92402 5.31798 8.52108 4.91504 8.02402 4.91504C7.52697 4.91504 7.12402 5.31798 7.12402 5.81504V8.22373C7.12402 8.52465 7.27441 8.80566 7.52479 8.97258L9.33132 10.1769C9.74489 10.4526 10.3037 10.3409 10.5794 9.92731C10.8551 9.51373 10.7434 8.95495 10.3298 8.67924L8.92402 7.74207V5.81504ZM12.2051 2.2361C11.8537 1.88463 11.8537 1.31478 12.2051 0.963311C12.5566 0.611839 13.1264 0.611839 13.4779 0.963311L15.2844 2.76983C15.6359 3.1213 15.6359 3.69115 15.2844 4.04262C14.933 4.3941 14.3631 4.3941 14.0117 4.04262L12.2051 2.2361Z" fill="url(#paint0_linear_556_210)"/>
<defs>
<linearGradient id="paint0_linear_556_210" x1="8.02402" y1="15.1457" x2="8.02402" y2="0.699707" gradientUnits="userSpaceOnUse">
<stop stop-color="#5570FF"/>
<stop offset="1" stop-color="#4DD3FF"/>
</linearGradient>
</defs>
</svg>
