<svg width="16" height="16" viewBox="0 0 16 16" fill="none" xmlns="http://www.w3.org/2000/svg">
<path d="M9.56735 7.67923L7.48747 11.5856C7.38512 11.7778 7.33395 11.8739 7.27745 11.9665C7.17394 12.136 7.05689 12.2969 6.92744 12.4476C6.85678 12.5299 6.78109 12.6081 6.62971 12.7647C5.28281 14.1577 4.60936 14.8542 4.19916 14.9562C3.42937 15.1475 2.64619 14.6954 2.42702 13.933C2.31024 13.5268 2.57669 12.5953 3.10961 10.7324C3.1695 10.523 3.19945 10.4183 3.23535 10.316C3.30112 10.1285 3.38194 9.94671 3.47702 9.7723C3.52892 9.67709 3.58657 9.58472 3.70187 9.39997L6.04492 5.64555M3.73874 2.39829C4.10167 1.93825 4.70574 1.74177 5.26985 1.90027L6.009 2.10796C6.42569 2.22504 6.63404 2.28358 6.84461 2.28149C6.93043 2.28064 7.01602 2.2723 7.10039 2.25655C7.3074 2.21792 7.5023 2.11933 7.89211 1.92214C9.28944 1.21531 9.98811 0.86189 10.5666 1.05007C10.7331 1.10425 10.8886 1.18767 11.0259 1.29641C11.5027 1.67417 11.5939 2.44416 11.7764 3.98415L11.8126 4.28953C11.8628 4.7125 11.8878 4.92399 11.9687 5.11596C11.9912 5.16938 12.0168 5.22142 12.0455 5.27182C12.1484 5.45294 12.3008 5.6017 12.6056 5.89921L13.1984 6.47783C13.6177 6.88712 13.7496 7.5085 13.5327 8.05282C13.2054 8.87411 12.2257 9.21402 11.46 8.77196L4.15227 4.55281C3.3866 4.11075 3.19115 3.0924 3.73874 2.39829Z" stroke="url(#paint0_linear_547_913)" stroke-width="1.8"/>
<defs>
<linearGradient id="paint0_linear_547_913" x1="8.01785" y1="15" x2="8.01785" y2="0.3" gradientUnits="userSpaceOnUse">
<stop stop-color="#8C1BAB"/>
<stop offset="0.488885" stop-color="#EB7295"/>
<stop offset="1" stop-color="#FBCD18"/>
</linearGradient>
</defs>
</svg>
