<svg width="128" height="128" viewBox="0 0 128 128" fill="none" xmlns="http://www.w3.org/2000/svg">
<path fill-rule="evenodd" clip-rule="evenodd" d="M40.2879 14.7031C39.8203 11.3033 43.5699 8.9318 46.4413 10.8113L76.7091 30.6234C77.6749 31.2555 78.3205 32.2741 78.4801 33.4173L83.9909 72.9089C83.9909 72.909 83.991 72.9091 83.9911 72.9091V72.9091C83.9911 72.9091 83.9911 72.9091 83.9912 72.9091L118.594 89.4589C121.664 90.9275 121.614 95.3157 118.512 96.7142L89.084 109.977C88.027 110.454 86.8154 110.448 85.7629 109.962L44.9092 91.0887C44.9092 91.0887 44.9092 91.0886 44.9092 91.0886V91.0886C44.9092 91.0886 44.9091 91.0886 44.9091 91.0886L44.9091 91.0886L16.6691 116.389C14.093 118.697 10 116.868 10 113.41V81.3612C10 80.2241 10.484 79.1407 11.3309 78.3819L43.3258 49.7177C44.3157 48.8308 44.8005 47.5102 44.6193 46.1934L40.2879 14.7031ZM45 55.2822C45 52.1267 48.4827 50.2137 51.1457 51.9064L76.8592 68.2505C79.5212 69.9425 79.2689 73.906 76.4138 75.2469L50.7004 87.3229C48.0476 88.5687 45 86.633 45 83.7023V55.2822Z" fill="url(#paint0_linear_945_16)"/>
<defs>
<linearGradient id="paint0_linear_945_16" x1="19.2244" y1="87.2896" x2="103.985" y2="80.3993" gradientUnits="userSpaceOnUse">
<stop stop-color="#A6F86E"/>
<stop offset="1" stop-color="#E7FF00"/>
</linearGradient>
</defs>
</svg>
