<svg width="16" height="16" viewBox="0 0 16 16" fill="none" xmlns="http://www.w3.org/2000/svg">
<path fill-rule="evenodd" clip-rule="evenodd" d="M3.62507 0.505532C2.67855 0.524907 1.83841 1.37737 1.82536 2.34098C1.81982 4.36902 1.82071 6.39707 1.8216 8.4253C1.82232 10.0672 1.82304 11.7094 1.82034 13.3516C1.81934 13.7055 1.84142 14.0736 2.00302 14.3947C2.30415 15.0637 3.00777 15.5093 3.73145 15.4971C5.2164 15.5008 6.7019 15.5001 8.18712 15.4995C8.74455 15.4993 9.303 15.4991 9.8603 15.4991C10.3591 15.5083 10.848 15.2758 11.1581 14.8791C11.4836 14.4784 11.8086 14.0773 12.1335 13.6761L12.1354 13.6738C12.4581 13.2754 12.7811 12.8767 13.1044 12.4788C13.4236 12.1035 13.6052 11.613 13.5922 11.1165C13.5902 10.9248 13.5911 10.7332 13.5919 10.5416C13.5933 10.2542 13.5946 9.96662 13.5862 9.6797C13.5801 9.40235 13.3352 9.1617 13.0662 9.14233C12.7591 9.10358 12.4419 9.35953 12.4359 9.67765C12.4247 9.935 12.4274 10.1924 12.43 10.4496C12.4327 10.702 12.4353 10.9542 12.4248 11.2062C12.4118 11.4071 12.3194 11.5926 12.1899 11.7415C11.6914 12.3557 11.194 12.9711 10.6965 13.5868L10.2808 14.1011C10.1815 14.2327 10.0259 14.3285 9.85827 14.3193C9.40072 14.3195 8.94315 14.3199 8.48562 14.3202C6.89967 14.3213 5.31365 14.3225 3.72845 14.3193C3.32997 14.3336 2.97365 13.9685 2.9847 13.5647C2.97947 11.5276 2.9806 9.49082 2.98172 7.454C2.98255 5.95197 2.98337 4.44992 2.98167 2.9477C2.98217 2.89097 2.9817 2.83417 2.9812 2.77737C2.97982 2.61467 2.97842 2.45201 3.00075 2.29101C3.05895 1.94636 3.38115 1.67716 3.72445 1.68328C6.5349 1.6792 9.34637 1.68124 12.1568 1.68328C12.2544 1.67177 12.3285 1.73014 12.4008 1.78708C12.4118 1.79576 12.4228 1.80442 12.4339 1.81278C12.4369 1.87139 12.4368 1.93273 12.4367 1.99507C12.4363 2.24289 12.4359 2.5066 12.6316 2.6785C12.9177 2.96197 13.4567 2.83145 13.5791 2.44091C13.6524 1.99428 13.6273 1.49259 13.3613 1.11123C13.0983 0.71763 12.6316 0.47902 12.1639 0.501455C10.9085 0.503702 9.6529 0.502975 8.39722 0.502247C6.80662 0.501327 5.21585 0.500405 3.62507 0.505532ZM4.74917 3.12122C4.61852 3.1218 4.48492 3.12237 4.36985 3.19037C3.8489 3.4361 4.05767 4.32732 4.63482 4.29775C5.79187 4.30362 6.94932 4.30282 8.10665 4.302C8.75752 4.30155 9.40835 4.3011 10.059 4.30182C10.3039 4.32222 10.5639 4.19885 10.6633 3.96225C10.852 3.60435 10.5629 3.11082 10.1594 3.1251C9.17932 3.11945 8.19922 3.12037 7.21912 3.12127C6.42562 3.122 5.6321 3.12275 4.8386 3.12C4.80912 3.12095 4.77922 3.1211 4.74917 3.12122ZM4.6699 5.74977C5.29547 5.72867 5.92175 5.73182 6.54812 5.73495C6.98102 5.73712 7.41397 5.7393 7.84675 5.73347C7.89192 5.73477 7.9385 5.7343 7.9857 5.73382C8.1954 5.73165 8.41687 5.72937 8.57745 5.88335C8.83342 6.09955 8.83842 6.54005 8.5865 6.7603C8.4392 6.91357 8.22362 6.916 8.0252 6.91825C8.00055 6.91852 7.9761 6.9188 7.95215 6.91935C7.45042 6.9164 6.94847 6.91677 6.44652 6.91715C5.9091 6.91755 5.37167 6.91795 4.83452 6.91427C4.52035 6.94485 4.21722 6.68992 4.20317 6.3677C4.17807 6.0822 4.38887 5.79362 4.6699 5.74977Z" fill="url(#paint0_linear_659_173)"/>
<path d="M1.82537 2.34098L1.57537 2.33759L1.57537 2.3403L1.82537 2.34098ZM3.62508 0.505534L3.62428 0.255536L3.6221 0.255544L3.61995 0.255586L3.62508 0.505534ZM2.00303 14.3948L2.23099 14.2922L2.22878 14.2872L2.22635 14.2824L2.00303 14.3948ZM3.73145 15.4971L3.73208 15.2471H3.72965L3.72723 15.2471L3.73145 15.4971ZM9.8603 15.4991L9.8649 15.2491L9.8626 15.2491H9.8603V15.4991ZM11.1581 14.8791L10.9641 14.7215L10.9626 14.7233L10.9612 14.7251L11.1581 14.8791ZM12.1354 13.6738L11.942 13.5154L11.9411 13.5165L12.1354 13.6738ZM12.1354 13.6738L12.329 13.8321L12.3299 13.831L12.1354 13.6738ZM13.1044 12.4788L12.914 12.3168L12.9121 12.319L12.9103 12.3212L13.1044 12.4788ZM13.5922 11.1165L13.3422 11.1191L13.3422 11.1211L13.3423 11.123L13.5922 11.1165ZM13.592 10.5416L13.842 10.5427V10.5416H13.592ZM13.592 10.5416L13.342 10.5402V10.5413L13.592 10.5416ZM13.5862 9.6797L13.3362 9.68513L13.3363 9.68703L13.5862 9.6797ZM13.0662 9.14233L13.035 9.39035L13.0416 9.3912L13.0483 9.39168L13.0662 9.14233ZM12.4359 9.67765L12.6857 9.68848L12.6858 9.68543L12.6859 9.6824L12.4359 9.67765ZM12.4301 10.4496H12.6801L12.6801 10.447L12.4301 10.4496ZM12.4301 10.4496L12.1801 10.4496L12.1801 10.4522L12.4301 10.4496ZM12.4249 11.2062L12.6743 11.2224L12.6745 11.2195L12.6746 11.2165L12.4249 11.2062ZM12.19 11.7415L12.0013 11.5775L11.9985 11.5807L11.9959 11.584L12.19 11.7415ZM10.2809 14.1011L10.0864 13.944L10.0839 13.9471L10.0814 13.9504L10.2809 14.1011ZM9.85828 14.3193L9.87193 14.0697L9.86505 14.0693H9.85815L9.85828 14.3193ZM3.72845 14.3193L3.72895 14.0693L3.72423 14.0693L3.7195 14.0695L3.72845 14.3193ZM2.9847 13.5648L3.2346 13.5716L3.2347 13.5679V13.5641L2.9847 13.5648ZM2.98168 2.9477L2.73165 2.9454L2.73168 2.94798L2.98168 2.9477ZM3.00075 2.29102L2.75423 2.24938L2.75363 2.25302L2.75313 2.25668L3.00075 2.29102ZM3.72445 1.68328L3.72 1.93324L3.7224 1.93328L3.7248 1.93328L3.72445 1.68328ZM12.1568 1.68328L12.1567 1.93328L12.1714 1.93329L12.1861 1.93156L12.1568 1.68328ZM12.4008 1.78708L12.557 1.59186L12.5555 1.59066L12.4008 1.78708ZM12.4008 1.78708L12.2447 1.98232L12.2462 1.98351L12.4008 1.78708ZM12.4339 1.81278L12.6835 1.79988L12.6776 1.68387L12.585 1.61364L12.4339 1.81278ZM12.6316 2.6785L12.8076 2.50093L12.8023 2.49563L12.7966 2.49068L12.6316 2.6785ZM13.5792 2.44091L13.8177 2.5157L13.823 2.49883L13.8259 2.48138L13.5792 2.44091ZM13.3613 1.11123L13.1535 1.25012L13.1549 1.2522L13.1563 1.25425L13.3613 1.11123ZM12.1639 0.501456L12.1643 0.751456L12.1701 0.751444L12.1759 0.751169L12.1639 0.501456ZM4.36985 3.19038L4.4765 3.41648L4.48703 3.41153L4.49703 3.4056L4.36985 3.19038ZM4.74918 3.12123V2.87123H4.74808L4.74918 3.12123ZM4.63483 4.29775L4.6361 4.04775L4.62908 4.0477L4.62203 4.04808L4.63483 4.29775ZM10.0591 4.30183L10.0798 4.05268L10.0696 4.05183H10.0593L10.0591 4.30183ZM10.6633 3.96225L10.4422 3.84565L10.437 3.85535L10.4328 3.86545L10.6633 3.96225ZM10.1594 3.1251L10.158 3.3751L10.1631 3.37513L10.1683 3.37495L10.1594 3.1251ZM4.8386 3.12L4.83945 2.87H4.835L4.83053 2.87015L4.8386 3.12ZM4.74918 3.12123V3.37123H4.75028L4.74918 3.12123ZM4.6699 5.74978L4.66148 5.49993L4.64633 5.50043L4.63138 5.50278L4.6699 5.74978ZM7.84675 5.73348L7.85398 5.48358L7.84868 5.48343L7.84338 5.4835L7.84675 5.73348ZM8.57745 5.88335L8.40443 6.0638L8.41013 6.06925L8.41615 6.07435L8.57745 5.88335ZM8.5865 6.7603L8.42195 6.57208L8.41378 6.57923L8.40625 6.58708L8.5865 6.7603ZM8.0252 6.91825L8.02238 6.66825L8.0209 6.66828L8.0252 6.91825ZM8.0252 6.91825L8.02795 7.16823L8.02943 7.1682L8.0252 6.91825ZM7.95215 6.91935L7.95068 7.16935L7.95433 7.16938L7.958 7.1693L7.95215 6.91935ZM4.83453 6.91428L4.83625 6.66428L4.82325 6.6642L4.8103 6.66545L4.83453 6.91428ZM4.20318 6.3677L4.45293 6.3568L4.4527 6.3513L4.4522 6.34583L4.20318 6.3677ZM2.07534 2.34436C2.0866 1.51292 2.82098 0.772046 3.6302 0.755481L3.61995 0.255586C2.53613 0.277771 1.59021 1.24182 1.57537 2.33759L2.07534 2.34436ZM2.0716 8.42518C2.07071 6.3969 2.06982 4.36925 2.07536 2.34166L1.57537 2.3403C1.56982 4.3688 1.57071 6.39725 1.5716 8.4254L2.0716 8.42518ZM2.07034 13.3523C2.07304 11.7098 2.07232 10.0671 2.0716 8.42518L1.5716 8.4254C1.57232 10.0674 1.57304 11.7092 1.57035 13.3512L2.07034 13.3523ZM2.22635 14.2824C2.0934 14.0182 2.06935 13.7024 2.07034 13.3523L1.57035 13.3512C1.56933 13.7089 1.58945 14.129 1.7797 14.5071L2.22635 14.2824ZM3.72723 15.2471C3.10398 15.2576 2.49133 14.8705 2.23099 14.2922L1.77506 14.4974C2.11697 15.2569 2.91158 15.761 3.73568 15.747L3.72723 15.2471ZM8.18713 15.2496C6.70183 15.2502 5.2166 15.2508 3.73208 15.2471L3.73083 15.7471C5.2162 15.7508 6.70303 15.7502 8.1882 15.7496L8.18713 15.2496ZM9.8603 15.2491C9.30293 15.2491 8.74453 15.2493 8.18713 15.2496L8.1882 15.7496C8.74563 15.7493 9.30305 15.7491 9.8603 15.7491V15.2491ZM10.9612 14.7251C10.6992 15.0602 10.2849 15.2569 9.8649 15.2491L9.85568 15.7491C10.4334 15.7597 10.9967 15.4914 11.3551 15.0331L10.9612 14.7251ZM11.9399 13.518C11.6149 13.9192 11.2894 14.321 10.9641 14.7215L11.3522 15.0368C11.6778 14.6359 12.0029 14.2346 12.3278 13.8335L11.9399 13.518ZM11.9399 13.518L12.3278 13.8335L12.329 13.8321L11.9399 13.518ZM11.9411 13.5165L11.9399 13.518L12.329 13.8321L12.3299 13.831L11.9411 13.5165ZM12.9103 12.3212C12.587 12.7192 12.2639 13.1181 11.9411 13.5165L12.3299 13.831C12.6526 13.4325 12.9753 13.0342 13.2984 12.6364L12.9103 12.3212ZM13.3423 11.123C13.3536 11.5554 13.195 11.9864 12.914 12.3168L13.2948 12.6408C13.6522 12.2206 13.8568 11.6707 13.8421 11.1099L13.3423 11.123ZM13.342 10.5402C13.3411 10.7315 13.3402 10.9252 13.3422 11.1191L13.8422 11.1139C13.8402 10.9244 13.8411 10.7346 13.842 10.5427L13.342 10.5402ZM13.3363 9.68703C13.3446 9.969 13.3433 10.252 13.342 10.5402L13.842 10.5427C13.8433 10.256 13.8446 9.96423 13.8361 9.67235L13.3363 9.68703ZM13.0483 9.39168C13.1961 9.40233 13.3332 9.54418 13.3362 9.68513L13.8361 9.67428C13.8271 9.26055 13.4744 8.92108 13.0842 8.89298L13.0483 9.39168ZM12.6859 9.6824C12.6889 9.52143 12.8666 9.36913 13.035 9.39035L13.0975 8.89428C12.6516 8.83805 12.1949 9.1976 12.1859 9.67293L12.6859 9.6824ZM12.6801 10.447C12.6774 10.1887 12.6749 9.938 12.6857 9.68848L12.1861 9.66685C12.1746 9.932 12.1774 10.1961 12.1801 10.4522L12.6801 10.447ZM12.6746 11.2165C12.6854 10.957 12.6827 10.6983 12.6801 10.447L12.1801 10.4522C12.1827 10.7056 12.1852 10.9514 12.1751 11.1958L12.6746 11.2165ZM12.3786 11.9056C12.5353 11.7254 12.657 11.4898 12.6743 11.2224L12.1754 11.19C12.1666 11.3244 12.1036 11.4599 12.0013 11.5775L12.3786 11.9056ZM10.891 13.744C11.3885 13.1282 11.8857 12.513 12.3841 11.8991L11.9959 11.584C11.4971 12.1984 10.9996 12.814 10.5021 13.4297L10.891 13.744ZM10.4753 14.2582L10.891 13.744L10.5021 13.4297L10.0864 13.944L10.4753 14.2582ZM9.84463 14.569C10.1177 14.5839 10.346 14.4296 10.4803 14.2518L10.0814 13.9504C10.017 14.0357 9.93413 14.0731 9.87193 14.0697L9.84463 14.569ZM8.48563 14.5702C8.94318 14.5699 9.40088 14.5696 9.8584 14.5693L9.85815 14.0693C9.40055 14.0696 8.94295 14.0699 8.4854 14.0702L8.48563 14.5702ZM3.72795 14.5693C5.31355 14.5725 6.89975 14.5713 8.48563 14.5702L8.4854 14.0702C6.8994 14.0713 5.31375 14.0725 3.72895 14.0693L3.72795 14.5693ZM2.73478 13.5579C2.71998 14.0995 3.18843 14.5888 3.7374 14.5692L3.7195 14.0695C3.47153 14.0784 3.22733 13.8375 3.2346 13.5716L2.73478 13.5579ZM2.73173 7.45385C2.7306 9.49063 2.72948 11.5278 2.7347 13.5654L3.2347 13.5641C3.22948 11.5274 3.2306 9.49103 3.23173 7.45413L2.73173 7.45385ZM2.73168 2.94798C2.73338 4.44998 2.73255 5.9518 2.73173 7.45385L3.23173 7.45413C3.23255 5.95215 3.23338 4.44988 3.23168 2.9474L2.73168 2.94798ZM2.73123 2.77953C2.7317 2.8367 2.73215 2.89125 2.73165 2.9454L3.23165 2.95C3.2322 2.89068 3.23168 2.83165 3.2312 2.77523L2.73123 2.77953ZM2.75313 2.25668C2.72785 2.43886 2.72985 2.61995 2.73123 2.77953L3.2312 2.77523C3.22978 2.60943 3.229 2.46516 3.24838 2.32535L2.75313 2.25668ZM3.7289 1.43332C3.25978 1.42496 2.8327 1.7849 2.75423 2.24938L3.24725 2.33266C3.28523 2.10782 3.50253 1.92936 3.72 1.93324L3.7289 1.43332ZM12.157 1.43328C9.3466 1.43124 6.53485 1.4292 3.72408 1.43328L3.7248 1.93328C6.53495 1.9292 9.34615 1.93124 12.1567 1.93328L12.157 1.43328ZM12.5555 1.59066C12.4997 1.54674 12.3442 1.40946 12.1276 1.435L12.1861 1.93156C12.1816 1.93209 12.1767 1.93176 12.1728 1.93092C12.1695 1.93021 12.1699 1.92974 12.1748 1.93224C12.18 1.93491 12.1882 1.93978 12.2007 1.94874C12.2138 1.95802 12.2273 1.96864 12.2462 1.98351L12.5555 1.59066ZM12.585 1.61364C12.5761 1.60685 12.5668 1.59959 12.5555 1.59066L12.2462 1.98351C12.2569 1.99195 12.2697 2.00199 12.2827 2.01192L12.585 1.61364ZM12.6867 1.99546C12.6868 1.93447 12.687 1.86632 12.6835 1.79988L12.1842 1.82568C12.1868 1.87647 12.1868 1.93099 12.1867 1.99469L12.6867 1.99546ZM12.7966 2.49068C12.7007 2.4064 12.6863 2.27145 12.6867 1.99546L12.1867 1.99469C12.1864 2.21433 12.1712 2.60678 12.4666 2.86633L12.7966 2.49068ZM13.3406 2.36611C13.3099 2.46415 13.223 2.54098 13.1067 2.5698C12.9898 2.59873 12.878 2.57068 12.8076 2.50093L12.4557 2.85608C12.6713 3.06978 12.9721 3.11823 13.2268 3.05513C13.4821 2.99193 13.726 2.80823 13.8177 2.5157L13.3406 2.36611ZM13.1563 1.25425C13.3684 1.55832 13.4011 1.98203 13.3325 2.40044L13.8259 2.48138C13.9038 2.00654 13.8863 1.42688 13.5664 0.968214L13.1563 1.25425ZM12.1759 0.751169C12.5542 0.733021 12.9383 0.928039 13.1535 1.25012L13.5692 0.972341C13.2584 0.507224 12.709 0.225023 12.1519 0.251744L12.1759 0.751169ZM8.39708 0.752249C9.65273 0.752976 10.9086 0.753706 12.1643 0.751456L12.1634 0.251456C10.9084 0.253704 9.6531 0.252976 8.39738 0.252249L8.39708 0.752249ZM3.62588 0.755534C5.2161 0.750406 6.8064 0.751329 8.39708 0.752249L8.39738 0.252249C6.80685 0.251329 5.2156 0.250406 3.62428 0.255536L3.62588 0.755534ZM4.49703 3.4056C4.54403 3.37785 4.60648 3.37185 4.75028 3.37123L4.74808 2.87123C4.6306 2.87175 4.42583 2.86693 4.24268 2.97513L4.49703 3.4056ZM4.62203 4.04808C4.49033 4.05483 4.37455 3.96148 4.33383 3.78965C4.29293 3.61713 4.3544 3.47408 4.4765 3.41648L4.2632 2.96428C3.86435 3.1524 3.76975 3.57783 3.8473 3.90498C3.925 4.23278 4.20218 4.57025 4.64763 4.54743L4.62203 4.04808ZM8.10648 4.052C6.94903 4.05283 5.7923 4.05363 4.6361 4.04775L4.63355 4.54775C5.79145 4.55363 6.94963 4.55283 8.10683 4.552L8.10648 4.052ZM10.0593 4.05183C9.40835 4.0511 8.7573 4.05155 8.10648 4.052L8.10683 4.552C8.75773 4.55155 9.40833 4.5511 10.0588 4.55183L10.0593 4.05183ZM10.4328 3.86545C10.3835 3.98273 10.2395 4.06598 10.0798 4.05268L10.0383 4.55095C10.3685 4.57845 10.7443 4.41495 10.8938 4.05908L10.4328 3.86545ZM10.1683 3.37495C10.2591 3.37173 10.3552 3.42563 10.4187 3.53208C10.4824 3.63895 10.4882 3.75838 10.4422 3.84565L10.8844 4.07888C11.0271 3.80823 10.9828 3.50193 10.8482 3.27613C10.7134 3.04993 10.4632 2.8642 10.1506 2.87525L10.1683 3.37495ZM7.21938 3.37128C8.1996 3.37038 9.17885 3.36948 10.158 3.3751L10.1609 2.8751C9.17978 2.86945 8.19885 2.87038 7.2189 2.87128L7.21938 3.37128ZM4.83773 3.37C5.63188 3.37275 6.42595 3.372 7.21938 3.37128L7.2189 2.87128C6.4253 2.87203 5.63233 2.87275 4.83945 2.87L4.83773 3.37ZM4.75028 3.37123C4.7797 3.3711 4.8131 3.37098 4.84668 3.36988L4.83053 2.87015C4.80513 2.87095 4.77875 2.8711 4.74808 2.87123L4.75028 3.37123ZM6.54938 5.48495C5.92383 5.48183 5.2927 5.47863 4.66148 5.49993L4.67833 5.99965C5.29828 5.97873 5.9197 5.9818 6.54688 5.98495L6.54938 5.48495ZM7.84338 5.4835C7.4133 5.4893 6.98265 5.48713 6.54938 5.48495L6.54688 5.98495C6.97938 5.98713 7.41463 5.98933 7.8501 5.98345L7.84338 5.4835ZM7.98313 5.48383C7.935 5.48433 7.8934 5.48473 7.85398 5.48358L7.8395 5.98338C7.89043 5.98485 7.94203 5.98428 7.98828 5.9838L7.98313 5.48383ZM8.75048 5.7029C8.50405 5.4666 8.1702 5.4819 7.98313 5.48383L7.98828 5.9838C8.22063 5.9814 8.3297 5.99215 8.40443 6.0638L8.75048 5.7029ZM8.75105 6.9485C8.94065 6.78275 9.02483 6.54305 9.02243 6.31763C9.02003 6.09223 8.9308 5.85455 8.73878 5.69235L8.41615 6.07435C8.48008 6.12835 8.52135 6.21903 8.52245 6.32298C8.52355 6.4269 8.48428 6.5176 8.42195 6.57208L8.75105 6.9485ZM8.02795 7.16823C8.20195 7.16625 8.53458 7.17513 8.76675 6.93353L8.40625 6.58708C8.34385 6.652 8.24523 6.66575 8.02238 6.66825L8.02795 7.16823ZM7.958 7.1693C7.98018 7.16878 8.00303 7.1685 8.02795 7.16823L8.02238 6.66825C7.998 6.66853 7.972 6.66883 7.94628 6.66943L7.958 7.1693ZM6.4467 7.16715C6.9488 7.16678 7.44993 7.1664 7.95068 7.16935L7.9536 6.66938C7.45093 6.6664 6.94815 6.66678 6.44633 6.66715L6.4467 7.16715ZM4.83283 7.16428C5.37108 7.16795 5.90945 7.16755 6.4467 7.16715L6.44633 6.66715C5.90875 6.66755 5.37228 6.66795 4.83625 6.66428L4.83283 7.16428ZM3.9534 6.3786C3.97385 6.84698 4.4049 7.20728 4.85875 7.1631L4.8103 6.66545C4.6358 6.68245 4.46063 6.5329 4.45293 6.3568L3.9534 6.3786ZM4.63138 5.50278C4.2104 5.56845 3.9184 5.9833 3.95413 6.3896L4.4522 6.34583C4.43773 6.1811 4.56735 6.0188 4.70845 5.9968L4.63138 5.50278Z" fill="url(#paint1_linear_659_173)"/>
<path d="M13.1097 3.83795C13.5021 3.6595 13.993 3.7421 14.3061 4.04188C14.53 4.2499 14.7678 4.4457 14.9676 4.6792C15.2948 5.08808 15.2346 5.73865 14.8512 6.08943C13.2281 7.73825 11.6061 9.3871 9.97699 11.0299C9.30751 11.7018 8.34894 11.869 7.50279 12.2025C7.26389 12.3075 6.95574 12.3238 6.76204 12.1199C6.53416 11.9149 6.55124 11.5672 6.68776 11.3154C7.07419 10.4609 7.32211 9.49928 8.00366 8.82323C9.57249 7.25493 11.1484 5.69583 12.7182 4.12855C12.8346 4.01538 12.9591 3.9042 13.1097 3.83795ZM8.88191 9.60838C8.57179 9.90818 8.36399 10.2946 8.21244 10.6974C8.60289 10.5822 8.97726 10.3885 9.25931 10.0866C10.8272 8.501 12.391 6.90925 13.9538 5.31855C13.8223 5.19823 13.6908 5.0779 13.5593 4.95758C11.9955 6.5024 10.4397 8.0564 8.88191 9.60838Z" fill="url(#paint2_linear_659_173)" stroke="url(#paint3_linear_659_173)" stroke-width="0.2"/>
<defs>
<linearGradient id="paint0_linear_659_173" x1="1.82031" y1="8" x2="13.6147" y2="8" gradientUnits="userSpaceOnUse">
<stop stop-color="#FFC152"/>
<stop offset="1" stop-color="#FF5F5F"/>
</linearGradient>
<linearGradient id="paint1_linear_659_173" x1="1.57031" y1="8" x2="13.8646" y2="8" gradientUnits="userSpaceOnUse">
<stop stop-color="#FFC152"/>
<stop offset="1" stop-color="#FF5F5F"/>
</linearGradient>
<linearGradient id="paint2_linear_659_173" x1="6.5874" y1="8.01152" x2="15.18" y2="8.01152" gradientUnits="userSpaceOnUse">
<stop stop-color="#FFC152"/>
<stop offset="1" stop-color="#FF5F5F"/>
</linearGradient>
<linearGradient id="paint3_linear_659_173" x1="6.5874" y1="8.01152" x2="15.18" y2="8.01152" gradientUnits="userSpaceOnUse">
<stop stop-color="#FFC152"/>
<stop offset="1" stop-color="#FF5F5F"/>
</linearGradient>
</defs>
</svg>
