<svg width="128" height="128" viewBox="0 0 128 128" fill="none" xmlns="http://www.w3.org/2000/svg">
<path d="M94.3362 13H71.0054C64.2012 13.0074 57.6778 15.7137 52.8665 20.5249C48.0552 25.3362 45.349 31.8596 45.3416 38.6638V67.16C40.449 64.66 34.8833 63.7961 29.4631 64.6954C24.0429 65.5947 19.0544 68.2098 15.2315 72.1559C11.4085 76.1021 8.95282 81.1709 8.22574 86.6169C7.49866 92.0629 8.53853 97.5984 11.1924 102.409C13.8463 107.22 17.974 111.052 22.9684 113.342C27.9628 115.632 33.5603 116.258 38.9373 115.129C44.3144 114 49.1872 111.175 52.8389 107.07C56.4906 102.965 58.7285 97.7965 59.2234 92.3246H59.34V38.6638C59.34 35.57 60.5691 32.6028 62.7568 30.4152C64.9444 28.2275 67.9116 26.9985 71.0054 26.9985H94.3362C97.43 26.9985 100.397 28.2275 102.585 30.4152C104.773 32.6028 106.002 35.57 106.002 38.6638V67.16C101.109 64.66 95.5433 63.7961 90.1231 64.6954C84.7029 65.5947 79.7144 68.2098 75.8914 72.1559C72.0684 76.1021 69.6128 81.1709 68.8857 86.6169C68.1586 92.0629 69.1985 97.5984 71.8524 102.409C74.5062 107.22 78.634 111.052 83.6284 113.342C88.6228 115.632 94.2202 116.258 99.5973 115.129C104.974 114 109.847 111.175 113.499 107.07C117.151 102.965 119.388 97.7965 119.883 92.3246H120V38.6638C119.993 31.8596 117.286 25.3362 112.475 20.5249C107.664 15.7137 101.14 13.0074 94.3362 13V13ZM33.6762 101.657C31.369 101.657 29.1136 100.973 27.1953 99.6909C25.2769 98.4091 23.7817 96.5872 22.8988 94.4556C22.0159 92.3241 21.7849 89.9785 22.235 87.7157C22.6851 85.4528 23.7961 83.3742 25.4275 81.7428C27.059 80.1114 29.1375 79.0004 31.4004 78.5503C33.6633 78.1001 36.0088 78.3312 38.1404 79.2141C40.2719 80.097 42.0938 81.5922 43.3756 83.5105C44.6574 85.4289 45.3416 87.6843 45.3416 89.9915C45.3416 93.0853 44.1126 96.0525 41.9249 98.2402C39.7372 100.428 36.7701 101.657 33.6762 101.657ZM94.3362 101.657C92.029 101.657 89.7736 100.973 87.8552 99.6909C85.9369 98.4091 84.4417 96.5872 83.5588 94.4556C82.6758 92.3241 82.4448 89.9785 82.8949 87.7157C83.3451 85.4528 84.4561 83.3742 86.0875 81.7428C87.7189 80.1114 89.7975 79.0004 92.0604 78.5503C94.3232 78.1001 96.6688 78.3312 98.8003 79.2141C100.932 80.097 102.754 81.5922 104.036 83.5105C105.317 85.4289 106.002 87.6843 106.002 89.9915C106.002 93.0853 104.773 96.0525 102.585 98.2402C100.397 100.428 97.43 101.657 94.3362 101.657Z" fill="url(#paint0_linear_943_13)"/>
<defs>
<linearGradient id="paint0_linear_943_13" x1="64" y1="13" x2="54.1609" y2="114.725" gradientUnits="userSpaceOnUse">
<stop stop-color="#A6FF70"/>
<stop offset="0.752309" stop-color="#FF913B"/>
<stop offset="1" stop-color="#FE3E02"/>
</linearGradient>
</defs>
</svg>
