<svg width="24" height="24" viewBox="0 0 24 24" fill="none" xmlns="http://www.w3.org/2000/svg">
<path d="M2 12C2 7.9931 2 5.98965 3.464 4.7444C4.93 3.5 7.286 3.5 12 3.5C16.714 3.5 19.071 3.5 20.535 4.7444C22 5.9905 22 7.9931 22 12C22 16.0069 22 18.0104 20.535 19.2547C19.072 20.5 16.714 20.5 12 20.5C7.286 20.5 4.929 20.5 3.464 19.2547C2 18.0112 2 16.0069 2 12Z" stroke="url(#paint0_linear_1005_428)" stroke-width="3"/>
<path d="M17.1667 12.5067C17.1667 12.8542 17.0625 13.203 16.8542 13.4824C16.8151 13.5372 16.6328 13.7631 16.4896 13.9101L16.4115 13.9903C15.3177 15.2079 12.5964 17.039 11.2161 17.6258C11.2161 17.6391 10.3958 17.988 10.0052 18H9.95312C9.35417 18 8.79427 17.6538 8.50781 17.0925C8.35156 16.7837 8.20833 15.8882 8.19531 15.8762C8.07813 15.0729 8 13.8433 8 12.4933C8 11.0779 8.07812 9.79344 8.22135 9.00486C8.22135 8.99149 8.36458 8.26974 8.45573 8.02916C8.59896 7.68299 8.85937 7.38761 9.1849 7.20049C9.44531 7.06817 9.71875 7 10.0052 7C10.3047 7.0147 10.8646 7.21385 11.0859 7.30741C12.5443 7.8955 15.3307 9.82017 16.3984 10.9964C16.5807 11.1835 16.776 11.412 16.8281 11.4642C17.0495 11.7582 17.1667 12.1191 17.1667 12.5067Z" fill="url(#paint1_linear_1005_428)"/>
<defs>
<linearGradient id="paint0_linear_1005_428" x1="12" y1="20.5" x2="12" y2="3.5" gradientUnits="userSpaceOnUse">
<stop stop-color="#5570FF"/>
<stop offset="1" stop-color="#4DD3FF"/>
</linearGradient>
<linearGradient id="paint1_linear_1005_428" x1="12.5834" y1="18" x2="12.5834" y2="7" gradientUnits="userSpaceOnUse">
<stop stop-color="#5570FF"/>
<stop offset="1" stop-color="#4DD3FF"/>
</linearGradient>
</defs>
</svg>
