<svg width="128" height="128" viewBox="0 0 128 128" fill="none" xmlns="http://www.w3.org/2000/svg">
<path fill-rule="evenodd" clip-rule="evenodd" d="M21 40C19.8954 40 19 40.8954 19 42V86C19 87.1046 19.8954 88 21 88H25C26.1046 88 27 87.1046 27 86V42C27 40.8954 26.1046 40 25 40H21ZM38 43.1602C36.8954 43.1602 36 44.0556 36 45.1602V73.1602C36 74.2647 36.8954 75.1602 38 75.1602H42C43.1046 75.1602 44 74.2647 44 73.1602V45.1602C44 44.0556 43.1046 43.1602 42 43.1602H38ZM66.0801 45.8403C66.0801 44.7358 66.9755 43.8403 68.0801 43.8403H72.0801C73.1846 43.8403 74.0801 44.7358 74.0801 45.8403V73.8403C74.0801 74.9449 73.1846 75.8403 72.0801 75.8403H68.0801C66.9755 75.8403 66.0801 74.9449 66.0801 73.8403V45.8403ZM85 40.1602C83.8954 40.1602 83 41.0556 83 42.1602V86.1602C83 87.2647 83.8954 88.1602 85 88.1602H89C90.1046 88.1602 91 87.2647 91 86.1602V42.1602C91 41.0556 90.1046 40.1602 89 40.1602H85ZM100 45.1602C100 44.0556 100.895 43.1602 102 43.1602H106C107.105 43.1602 108 44.0556 108 45.1602V73.1602C108 74.2647 107.105 75.1602 106 75.1602H102C100.895 75.1602 100 74.2647 100 73.1602V45.1602Z" fill="url(#paint0_linear_705_66)"/>
<path fill-rule="evenodd" clip-rule="evenodd" d="M20.5305 26C16.1592 26 12 29.8764 12 35.44V92.56C12 97.9556 16.0026 102 20.5305 102H107.722C112.004 102 116.185 97.9652 115.994 92.4181L115.991 92.3491V35.44C115.991 30.0444 111.989 26 107.461 26H20.5305ZM4 35.44C4 25.8836 11.3271 18 20.5305 18H107.461C117.03 18 123.991 26.2756 123.991 35.44V92.2151C124.282 101.757 116.991 110 107.722 110H20.5305C10.9616 110 4 101.724 4 92.56V35.44Z" fill="url(#paint1_linear_705_66)" stroke="url(#paint2_linear_705_66)" stroke-width="2"/>
<path d="M53 40C52.4477 40 52 40.4477 52 41V87C52 87.5523 52.4477 88 53 88H59C59.5523 88 60 87.5523 60 87V41C60 40.4477 59.5523 40 59 40H53Z" fill="#DE3E3E"/>
<defs>
<linearGradient id="paint0_linear_705_66" x1="91.8938" y1="40" x2="62.0861" y2="107.256" gradientUnits="userSpaceOnUse">
<stop stop-color="#DE00C0"/>
<stop offset="1" stop-color="#8720FF"/>
</linearGradient>
<linearGradient id="paint1_linear_705_66" x1="118.563" y1="19.5812" x2="38.3928" y2="129.514" gradientUnits="userSpaceOnUse">
<stop stop-color="#D800BD"/>
<stop offset="0.408098" stop-color="#F92D7A"/>
<stop offset="0.590073" stop-color="#FF4A52"/>
<stop offset="1" stop-color="#FFB243"/>
</linearGradient>
<linearGradient id="paint2_linear_705_66" x1="118.563" y1="19.5812" x2="38.3928" y2="129.514" gradientUnits="userSpaceOnUse">
<stop stop-color="#D800BD"/>
<stop offset="0.408098" stop-color="#F92D7A"/>
<stop offset="0.590073" stop-color="#FF4A52"/>
<stop offset="1" stop-color="#FFB243"/>
</linearGradient>
</defs>
</svg>
