<svg width="192" height="192" viewBox="0 0 192 192" fill="none" xmlns="http://www.w3.org/2000/svg">
<path fill-rule="evenodd" clip-rule="evenodd" d="M93.9418 17.1459C92.008 14.7606 88.7286 14.8058 85.958 15.2128C66.5186 17.3154 47.9274 26.2461 34.131 40.1057C19.4978 54.7 10.1118 74.6867 9.00352 95.3742C8.83391 100.111 14.8387 103.287 18.7175 100.642C21.4748 99.1267 21.7923 96.0479 22.0897 93.1652C22.1716 92.3709 22.252 91.5914 22.3815 90.8637C25.955 63.6533 46.3103 39.6535 72.4217 31.3332C77.8718 29.3986 83.6026 28.6152 89.2917 27.8374C89.7527 27.7744 90.2134 27.7115 90.6736 27.6479C95.2875 26.834 97.1647 20.4468 93.9418 17.1459ZM55.346 90.7848C53.7062 86.6699 47.6336 85.6977 44.8743 89.2021C34.5609 101.174 24.5868 113.45 14.7484 125.818C12.057 128.599 12.8599 133.697 16.3995 135.348C19.0413 136.24 21.8087 136.574 24.5764 136.907C25.3835 137.005 26.1906 137.102 26.9946 137.213C28.3639 137.402 29.4875 138.349 30.0304 139.621C33.7954 148.435 39.3699 156.526 46.7176 162.728C57.1103 171.626 71.0431 176.328 84.6957 175.548C86.699 175.434 87.0399 173.603 85.0696 173.224V173.224C84.6688 173.147 84.2694 173.07 83.8774 172.981C77.3071 171.67 70.9178 169.386 65.0826 166.062C51.8403 158.601 42.7709 145.07 39.1748 130.464C38.5086 127.032 34.8508 126.404 31.8898 125.896V125.896C31.4943 125.828 31.3268 125.357 31.5878 125.053C36.0124 119.889 40.3693 114.658 44.706 109.417C46.5133 107.233 49.9562 107.566 51.316 110.053C54.2352 115.393 57.1821 120.713 60.1802 126.013C60.9343 127.346 60.0986 128.913 58.5674 128.891V128.891C55.4034 128.846 51.9528 128.796 50.8316 131.876C50.6899 132.266 50.6673 132.687 50.706 133.1C52.092 147.868 62.4732 161.085 75.946 167.083C77.9245 167.964 79.1366 166.41 77.362 165.169V165.169C76.8395 164.803 76.3192 164.439 75.8483 164.039C68.4543 158.518 63.0096 150.571 60.4168 141.739C59.8546 139.824 61.4217 138.054 63.4075 138.255V138.255C66.2185 138.539 69.0333 138.824 71.839 138.552C72.1439 138.522 72.4466 138.456 72.7229 138.324C75.3295 137.074 76.2464 133.634 74.7853 131.142C68.5543 117.577 62.0972 104.102 55.346 90.7848Z" fill="url(#paint0_linear_945_46)"/>
<path fill-rule="evenodd" clip-rule="evenodd" d="M142.678 28.2941C132.85 20.6541 120.287 16.6904 107.861 17.0189C105.425 17.0833 105.009 19.2455 107.409 19.6613V19.6613C108.417 19.8358 109.423 20.0101 110.37 20.313C125.975 23.8514 139.987 34.2404 147.111 48.6765C149.339 52.6838 150.679 57.0663 152.013 61.4287C152.162 61.9151 152.31 62.4012 152.46 62.8865C153.272 65.5004 155.928 66.0448 158.372 66.5459V66.5459C159.294 66.7349 159.629 67.8105 159.015 68.5239C154.959 73.2395 150.994 78.0324 147.03 82.8253C146.915 82.9635 146.801 83.1017 146.687 83.2399C144.883 85.4208 141.448 85.0835 140.088 82.6013C136.653 76.3319 133.169 70.0844 129.685 63.8368V63.8368C129.685 63.8365 129.685 63.8361 129.686 63.836C130.56 63.7305 131.601 63.747 132.691 63.7643C136.14 63.8191 140.074 63.8817 140.742 60.101C140.791 59.8207 140.786 59.5332 140.752 59.2505C139.076 45.3479 129.704 32.2929 116.993 26.3699C115.014 25.4478 113.889 27.3593 115.608 28.7059V28.7059C117.413 30.1202 119.219 31.5353 120.74 33.2682C125.55 38.1811 128.985 44.3084 130.932 50.8842C131.492 52.7745 129.952 54.5441 127.987 54.3835V54.3835C125.443 54.1755 122.898 53.9674 120.344 54.0123C116.872 54.0236 114.837 58.2516 116.465 61.1569C122.526 74.5868 128.995 87.8246 135.554 101.006C136.639 103.527 138.924 105.833 141.875 105.63C144.709 105.767 146.566 103.566 148.255 101.563C148.514 101.257 148.768 100.955 149.022 100.667C158.306 89.5316 167.568 78.3739 176.558 67.0014C179.171 64.3222 178.73 59.4612 175.439 57.5394C172.744 56.4087 169.819 56.0839 166.901 55.7598C166.065 55.6668 165.228 55.5739 164.398 55.4621C163.036 55.2786 161.927 54.3276 161.391 53.0621C157.313 43.4312 150.993 34.6837 142.678 28.2941ZM182.586 96.7554C182.676 92.0296 176.694 88.9209 172.827 91.5775C170.033 93.217 169.731 96.3397 169.441 99.3483C169.332 100.468 169.226 101.572 168.993 102.577C164.526 133.201 138.607 159.089 107.972 163.577C106.983 163.797 105.901 163.898 104.803 164C101.768 164.284 98.61 164.579 96.9576 167.409C94.3453 171.298 97.4099 177.221 102.137 177.21C125.817 175.887 148.547 163.893 163.429 145.5C174.613 131.754 181.67 114.492 182.586 96.7554Z" fill="url(#paint1_linear_945_46)"/>
<defs>
<linearGradient id="paint0_linear_945_46" x1="52.2767" y1="175.632" x2="52.2767" y2="15" gradientUnits="userSpaceOnUse">
<stop stop-color="#FD5B00"/>
<stop offset="0.411458" stop-color="#AB18A8"/>
<stop offset="1" stop-color="#8E00E4"/>
</linearGradient>
<linearGradient id="paint1_linear_945_46" x1="111.694" y1="158.297" x2="224.199" y2="105.244" gradientUnits="userSpaceOnUse">
<stop stop-color="#FE0844"/>
<stop offset="1" stop-color="#FEB302"/>
</linearGradient>
</defs>
</svg>
