<svg width="32" height="32" viewBox="0 0 32 32" fill="none" xmlns="http://www.w3.org/2000/svg">
<path fill-rule="evenodd" clip-rule="evenodd" d="M16 2C16.539 2 16.9772 2.4368 16.9772 2.9772V5.92243C16.9772 6.45366 17.4534 6.88407 17.9846 6.88968V6.88968C18.528 6.89542 18.9302 6.45804 18.9302 5.91457V2.9772C18.9398 2.72461 19.0468 2.48556 19.2289 2.31024C19.411 2.13492 19.6539 2.03698 19.9067 2.03698C20.1595 2.03698 20.4024 2.13492 20.5845 2.31024C20.7666 2.48556 20.8736 2.72461 20.8832 2.9772V6.8832V6.8832C20.8835 6.9663 20.9404 7.04269 21.0227 7.05393C22.2526 7.22179 23.1178 7.55537 23.7812 8.2188C24.4446 8.88222 24.7782 9.74743 24.9461 10.9773C24.9573 11.0596 25.0337 11.1165 25.1168 11.1168V11.1168H29.0228C29.2754 11.1264 29.5144 11.2334 29.6898 11.4155C29.8651 11.5976 29.963 11.8405 29.963 12.0933C29.963 12.3461 29.8651 12.589 29.6898 12.7711C29.5144 12.9532 29.2754 13.0602 29.0228 13.0698H26.0845C25.5415 13.0698 25.1048 13.4715 25.1108 14.0144V14.0144C25.1167 14.5459 25.5471 15.0228 26.0785 15.0228H29.0228C29.282 15.0228 29.5305 15.1258 29.7138 15.309C29.897 15.4923 30 15.7408 30 16C30 16.2592 29.897 16.5077 29.7138 16.691C29.5305 16.8742 29.282 16.9772 29.0228 16.9772H26.0776C25.5463 16.9772 25.1159 17.4534 25.1103 17.9846V17.9846C25.1046 18.528 25.542 18.9302 26.0854 18.9302H29.0228C29.2754 18.9398 29.5144 19.0468 29.6898 19.2289C29.8651 19.411 29.963 19.6539 29.963 19.9067C29.963 20.1595 29.8651 20.4024 29.6898 20.5845C29.5144 20.7666 29.2754 20.8736 29.0228 20.8832H25.1168V20.8832C25.0337 20.8835 24.9573 20.9404 24.9461 21.0227C24.7782 22.2526 24.4446 23.1178 23.7812 23.7812C23.1178 24.4446 22.2526 24.7782 21.0227 24.9461C20.9406 24.9573 20.8841 25.0339 20.8832 25.1168V25.1168V29.0228C20.8736 29.2754 20.7666 29.5144 20.5845 29.6898C20.4024 29.8651 20.1595 29.963 19.9067 29.963C19.6539 29.963 19.411 29.8651 19.2289 29.6898C19.0468 29.5144 18.9398 29.2754 18.9302 29.0228V26.0815C18.9302 25.5396 18.4837 25.1049 17.9419 25.1114V25.1114C17.4093 25.1178 16.9772 25.5488 16.9772 26.0815V29.0228C16.9772 29.282 16.8742 29.5305 16.691 29.7138C16.5077 29.897 16.2592 30 16 30C15.7408 30 15.4923 29.897 15.309 29.7138C15.1258 29.5305 15.0228 29.282 15.0228 29.0228V26.0815C15.0228 25.5487 14.5908 25.1175 14.0581 25.1111V25.1111C13.5162 25.1046 13.0698 25.5395 13.0698 26.0815V29.0228C13.0602 29.2754 12.9532 29.5144 12.7711 29.6898C12.589 29.8651 12.3461 29.963 12.0933 29.963C11.8405 29.963 11.5976 29.8651 11.4155 29.6898C11.2334 29.5144 11.1264 29.2754 11.1168 29.0228V25.1168V25.1168C11.1168 25.0342 11.0592 24.9572 10.9773 24.9461C9.74742 24.7782 8.88222 24.4446 8.2188 23.7812C7.55537 23.1178 7.22179 22.2526 7.05393 21.0227C7.04269 20.9404 6.9663 20.8835 6.8832 20.8832V20.8832H2.9772C2.72461 20.8736 2.48556 20.7666 2.31024 20.5845C2.13492 20.4024 2.03698 20.1595 2.03698 19.9067C2.03698 19.6539 2.13492 19.411 2.31024 19.2289C2.48556 19.0468 2.72461 18.9398 2.9772 18.9302H5.9185C6.46046 18.9302 6.89542 18.4838 6.8889 17.9419V17.9419C6.88249 17.4092 6.45126 16.9772 5.9185 16.9772H2.9772C2.71803 16.9772 2.46948 16.8742 2.28622 16.691C2.10295 16.5077 2 16.2592 2 16C2 15.7408 2.10295 15.4923 2.28622 15.309C2.46948 15.1258 2.71803 15.0228 2.9772 15.0228H5.92243C6.45366 15.0228 6.88407 14.5466 6.88968 14.0154V14.0154C6.89542 13.472 6.45804 13.0698 5.91457 13.0698H2.9772C2.72461 13.0602 2.48556 12.9532 2.31024 12.7711C2.13492 12.589 2.03698 12.3461 2.03698 12.0933C2.03698 11.8405 2.13492 11.5976 2.31024 11.4155C2.48556 11.2334 2.72461 11.1264 2.9772 11.1168H6.8832V11.1168C6.96584 11.1168 7.04275 11.0592 7.05393 10.9773C7.2218 9.74742 7.55538 8.88222 8.2188 8.2188C8.88222 7.55537 9.74743 7.22179 10.9773 7.05393C11.0596 7.04269 11.1165 6.9663 11.1168 6.8832V6.8832V2.9772C11.1264 2.72461 11.2334 2.48556 11.4155 2.31024C11.5976 2.13492 11.8405 2.03698 12.0933 2.03698C12.3461 2.03698 12.589 2.13492 12.7711 2.31024C12.9532 2.48556 13.0602 2.72461 13.0698 2.9772V5.9185C13.0698 6.46036 13.5163 6.89511 14.0581 6.8886V6.8886C14.5907 6.88219 15.0228 6.45116 15.0228 5.9185V2.9772C15.0228 2.4368 15.461 2 16 2ZM14.6336 9.8134C13.767 9.8134 13.0208 9.8134 12.4244 9.8946C11.7832 9.98 11.17 10.1746 10.6716 10.6716C10.1746 11.17 9.98 11.7832 9.8946 12.4244C9.8134 13.0222 9.8134 13.7684 9.8134 14.6336V17.3664C9.8134 18.233 9.8134 18.9778 9.8946 19.5756C9.98 20.2168 10.1746 20.83 10.6716 21.3284C11.17 21.8254 11.7832 22.02 12.4244 22.1054C13.0208 22.1866 13.7684 22.1866 14.6336 22.1866H17.3664C18.233 22.1866 18.9778 22.1866 19.5756 22.1054C20.2168 22.02 20.83 21.8254 21.3284 21.3284C21.8254 20.83 22.02 20.2168 22.1054 19.5756C22.1866 18.9778 22.1866 18.2316 22.1866 17.3664V14.6336C22.1866 13.767 22.1866 13.0222 22.1054 12.4244C22.02 11.7832 21.8254 11.17 21.3284 10.6716C20.83 10.1746 20.2168 9.98 19.5756 9.8946C18.9778 9.8134 18.2316 9.8134 17.3664 9.8134H14.6336Z" fill="url(#paint0_linear_8_360)"/>
<path opacity="0.5" d="M12.0527 12.0527C12.0523 12.0523 12.0523 12.0517 12.0527 12.0513C12.1285 11.9786 12.2619 11.8866 12.6834 11.8294C13.1356 11.7692 13.7488 11.7678 14.698 11.7678H17.302C18.2512 11.7678 18.8644 11.7692 19.3152 11.8294C19.7394 11.8868 19.8724 11.9792 19.9452 12.0534C20.0208 12.1276 20.1132 12.2606 20.1692 12.6834C20.2308 13.1356 20.2322 13.7488 20.2322 14.698V17.302C20.2322 18.2512 20.2308 18.8644 20.1692 19.3152C20.1132 19.7394 20.0208 19.8724 19.9452 19.9452C19.8724 20.0208 19.7394 20.1132 19.3152 20.1692C18.8644 20.2308 18.2512 20.2322 17.302 20.2322H14.698C13.7488 20.2322 13.1356 20.2308 12.6834 20.1692C12.2606 20.1132 12.1276 20.0208 12.0534 19.9452C11.9792 19.8724 11.8868 19.7394 11.8294 19.3152C11.7692 18.8644 11.7678 18.2512 11.7678 17.302V14.698C11.7678 13.7488 11.7692 13.1356 11.8294 12.6848C11.8866 12.2619 11.9787 12.1284 12.0527 12.0541C12.0531 12.0537 12.0531 12.0531 12.0527 12.0527V12.0527Z" fill="url(#paint1_linear_8_360)"/>
<defs>
<linearGradient id="paint0_linear_8_360" x1="2" y1="30" x2="35.7857" y2="15.2743" gradientUnits="userSpaceOnUse">
<stop stop-color="#0357D1"/>
<stop offset="1" stop-color="#27CDFC"/>
</linearGradient>
<linearGradient id="paint1_linear_8_360" x1="11.7678" y1="20.2322" x2="21.9812" y2="15.7806" gradientUnits="userSpaceOnUse">
<stop stop-color="#0357D1"/>
<stop offset="1" stop-color="#27CDFC"/>
</linearGradient>
</defs>
</svg>
