<svg width="48" height="48" viewBox="0 0 48 48" fill="none" xmlns="http://www.w3.org/2000/svg">
<path fill-rule="evenodd" clip-rule="evenodd" d="M34.1527 46C33.4248 46 32.7447 45.8838 32.1122 45.6514C31.4798 45.3994 30.9329 45.0593 30.473 44.6323C30.013 44.1871 29.6497 43.672 29.3818 43.091C29.1322 42.5087 29.0075 41.8689 29.0075 41.1704C29.0075 40.4535 29.1604 39.7941 29.4674 39.1923C29.7928 38.5721 30.2344 38.0485 30.7898 37.6215C31.3648 37.1946 32.0449 36.8643 32.8303 36.6319C33.6157 36.3799 34.4781 36.2539 35.4176 36.2539C36.088 36.2539 36.7388 36.3126 37.3712 36.4288C37.6905 36.4857 37.9913 36.5544 38.2736 36.6346C38.6709 36.7475 39.0961 36.4639 39.0961 36.0508V36.0508C39.0961 35.0416 38.8086 34.266 38.2336 33.7229C37.6783 33.1797 36.8452 32.9081 35.7332 32.9081C34.9283 32.9081 34.1429 33.0537 33.3759 33.3449C32.9293 33.5147 32.476 33.7302 32.016 33.9921C31.479 34.2978 30.7777 34.1168 30.5116 33.5591L30.2124 32.9318C29.9988 32.484 30.1437 31.9431 30.5736 31.6955C32.3013 30.7005 34.1454 30.2022 36.1075 30.2022C38.2728 30.2022 39.9487 30.7453 41.1366 31.8316C42.344 32.8984 42.9483 34.4507 42.9483 36.4863V41.2291C42.9483 41.6365 43.0143 41.9276 43.1489 42.1013V42.1013C43.4431 42.4379 43.867 42.7413 43.867 43.1883V44.896C43.867 45.3695 43.5356 45.785 43.0662 45.8478C42.7406 45.8913 42.4424 45.9131 42.1715 45.9131C41.4436 45.9131 40.8784 45.748 40.476 45.4177C40.0931 45.0886 39.8533 44.6519 39.7579 44.1088V44.1088C39.7269 43.808 39.3322 43.6936 39.1238 43.9126C38.5711 44.4935 37.939 44.9565 37.2281 45.3015C36.2702 45.7676 35.2451 46 34.1527 46ZM35.2451 43.1485C35.8959 43.1485 36.5088 43.0322 37.0837 42.7998C37.6375 42.5833 38.0744 42.299 38.3947 41.9477C38.4416 41.8962 38.4918 41.8478 38.5448 41.8027C38.9126 41.4896 39.0961 41.1434 39.0961 40.763V39.7086C39.0961 39.2926 38.8399 38.9147 38.4393 38.8023C38.1713 38.7271 37.892 38.663 37.6012 38.61C37.0654 38.4938 36.5479 38.4363 36.05 38.4363C35.053 38.4363 34.2383 38.6687 33.6059 39.1336C32.9746 39.5801 32.6578 40.1526 32.6578 40.8511C32.6578 41.5105 32.9074 42.0634 33.4052 42.5087C33.9031 42.9356 34.516 43.1485 35.2451 43.1485ZM11.8034 2.64715C11.9503 2.25775 12.323 2 12.7391 2H14.527C14.9436 2 15.3166 2.25829 15.4631 2.64828L21.7334 19.3368C21.9791 19.9906 21.4958 20.6885 20.7973 20.6885H19.2454C18.8265 20.6885 18.4519 20.4273 18.3071 20.0342L17.0729 16.6844C16.9281 16.2913 16.5535 16.0301 16.1346 16.0301H11.0835C10.6627 16.0301 10.287 16.2935 10.1435 16.689L8.93106 20.0296C8.78752 20.4251 8.41179 20.6885 7.99105 20.6885H6.44584C5.74685 20.6885 5.26353 19.9897 5.51016 19.3357L11.8034 2.64715ZM14.7766 13.4759C15.4643 13.4759 15.9468 12.7976 15.7213 12.1479L14.559 8.7999C14.2499 7.90973 12.9938 7.90192 12.6737 8.78818L11.4646 12.1362C11.2292 12.788 11.7121 13.4759 12.4051 13.4759H14.7766Z" fill="url(#paint0_linear_1065_163)"/>
<path d="M6.48884 32.7419C6.6442 33.0905 6.99162 33.3168 7.37329 33.3168H10.1202C10.6658 33.3168 11.1057 33.7556 11.1658 34.2978C11.7531 39.5965 16.2978 43.7761 21.7435 43.7761C22.8836 43.7761 23.8085 42.8501 23.8085 41.71C23.8085 40.5711 22.8836 39.645 21.7435 39.645C18.5825 39.645 15.9174 37.3435 15.3461 34.3385C15.2409 33.7851 15.7007 33.3168 16.2639 33.3168H19.2834C19.6651 33.3168 20.0125 33.0905 20.1667 32.7419C20.322 32.3932 20.256 31.9834 20.0003 31.6996L14.7914 25.9476C14.4171 25.5341 13.885 25.2993 13.3284 25.2993C12.7705 25.2993 12.2384 25.5341 11.8641 25.9476L6.65643 31.6996C6.39954 31.9834 6.3347 32.3932 6.48884 32.7419Z" fill="url(#paint1_linear_1065_163)"/>
<path d="M28.0643 10.5462C31.2252 10.5462 33.8903 12.8475 34.4617 15.8515C34.567 16.4048 34.1072 16.8731 33.5439 16.8731H30.5244C30.1427 16.8731 29.7953 17.0994 29.64 17.4493C29.4858 17.7979 29.5519 18.2077 29.8076 18.4903L35.0152 24.2423C35.3895 24.6558 35.9217 24.8919 36.4795 24.8919C37.0373 24.8919 37.5695 24.6558 37.9426 24.2423L43.1514 18.4903C43.4071 18.2077 43.4732 17.7979 43.3178 17.4493C43.1637 17.0994 42.8162 16.8731 42.4346 16.8731H39.6876C39.142 16.8731 38.7022 16.4344 38.6421 15.8921C38.0546 10.5936 33.5089 6.41504 28.0643 6.41504C26.9242 6.41504 25.9994 7.33986 25.9994 8.47999C25.9994 9.62011 26.9242 10.5462 28.0643 10.5462Z" fill="url(#paint2_linear_1065_163)"/>
<defs>
<linearGradient id="paint0_linear_1065_163" x1="12.0446" y1="40.8056" x2="50.7711" y2="10.9579" gradientUnits="userSpaceOnUse">
<stop stop-color="#FE0844"/>
<stop offset="1" stop-color="#FEB302"/>
</linearGradient>
<linearGradient id="paint1_linear_1065_163" x1="13.1115" y1="39.3655" x2="46.7558" y2="10.2981" gradientUnits="userSpaceOnUse">
<stop stop-color="#FE0844"/>
<stop offset="1" stop-color="#FEB302"/>
</linearGradient>
<linearGradient id="paint2_linear_1065_163" x1="13.1115" y1="39.3655" x2="46.7558" y2="10.2981" gradientUnits="userSpaceOnUse">
<stop stop-color="#FE0844"/>
<stop offset="1" stop-color="#FEB302"/>
</linearGradient>
</defs>
</svg>
