<svg width="32" height="32" viewBox="0 0 32 32" fill="none" xmlns="http://www.w3.org/2000/svg">
<path d="M26.5248 16.436C26.5248 22.8919 21.2916 28.1252 14.8356 28.1252C8.37971 28.1252 3.14648 22.8919 3.14648 16.436C3.14648 9.98005 8.37971 4.74683 14.8356 4.74683C21.2916 4.74683 26.5248 9.98005 26.5248 16.436Z" stroke="url(#paint0_linear_1005_129)" stroke-width="4"/>
<path d="M30.5841 4.43651C30.9439 4.79667 31.1459 5.28489 31.1459 5.79391C31.1459 6.30294 30.9439 6.79115 30.5841 7.15131L17.7784 19.957C17.4183 20.3166 16.9302 20.5188 16.4211 20.5188C15.9121 20.5188 15.4239 20.3166 15.0637 19.957L9.94146 14.8347C9.75273 14.6589 9.60137 14.4467 9.49638 14.2111C9.39139 13.9755 9.33495 13.7212 9.33038 13.4634C9.32584 13.2054 9.37329 12.9493 9.46989 12.71C9.5665 12.4708 9.71029 12.2535 9.89268 12.0712C10.0751 11.8888 10.2924 11.745 10.5315 11.6483C10.7707 11.5518 11.0269 11.5043 11.2848 11.5089C11.5428 11.5134 11.7971 11.57 12.0327 11.6749C12.2683 11.7799 12.4804 11.9312 12.6563 12.1199L16.4211 15.8848L22.1452 10.1581L27.8693 4.43651C28.2295 4.07681 28.7178 3.87476 29.2266 3.87476C29.7357 3.87476 30.224 4.07681 30.5841 4.43651Z" fill="url(#paint1_linear_1005_129)" stroke="url(#paint2_linear_1005_129)"/>
<defs>
<linearGradient id="paint0_linear_1005_129" x1="14.8356" y1="28.1252" x2="14.8356" y2="4.74683" gradientUnits="userSpaceOnUse">
<stop stop-color="#5570FF"/>
<stop offset="1" stop-color="#4DD3FF"/>
</linearGradient>
<linearGradient id="paint1_linear_1005_129" x1="20.238" y1="20.5188" x2="20.238" y2="3.87476" gradientUnits="userSpaceOnUse">
<stop stop-color="#5570FF"/>
<stop offset="1" stop-color="#4DD3FF"/>
</linearGradient>
<linearGradient id="paint2_linear_1005_129" x1="20.238" y1="20.5188" x2="20.238" y2="3.87476" gradientUnits="userSpaceOnUse">
<stop stop-color="#5570FF"/>
<stop offset="1" stop-color="#4DD3FF"/>
</linearGradient>
</defs>
</svg>
