<svg width="128" height="128" viewBox="0 0 128 128" fill="none" xmlns="http://www.w3.org/2000/svg">
<path fill-rule="evenodd" clip-rule="evenodd" d="M6 64C6 95.9343 32.0639 122 64 122C95.9343 122 122 95.9361 122 64C122 32.0658 95.9363 6 64 6C32.0658 6 6 32.0637 6 64ZM12.7969 64C12.7969 35.7665 35.7665 12.7969 64 12.7969C92.2336 12.7969 115.203 35.7665 115.203 64C115.203 92.2336 92.2336 115.203 64 115.203C35.7665 115.203 12.7969 92.2336 12.7969 64Z" fill="url(#paint0_linear_1005_378)" stroke="url(#paint1_linear_1005_378)" stroke-width="8"/>
<path fill-rule="evenodd" clip-rule="evenodd" d="M76.2083 74.4672L90.2835 41.6238C90.8189 40.3786 90.5401 38.93 89.5803 37.9723C88.6227 37.0123 87.1761 36.7336 85.9287 37.2689L53.0853 51.3441C52.6961 51.51 52.3467 51.7487 52.0502 52.0408L52.0479 52.0474L75.5049 75.5045L75.5073 75.5066C75.8015 75.2104 76.0426 74.8587 76.2083 74.4672ZM52.0474 52.0472L75.5045 75.5043L75.5066 75.5064C75.2104 75.8005 74.8587 76.0417 74.4672 76.2074L41.6238 90.2828C40.3807 90.8156 38.9321 90.5415 37.9723 89.5794C37.0123 88.6217 36.7336 87.1731 37.2689 85.928L51.3441 53.0843C51.5121 52.6907 51.7533 52.3368 52.0495 52.0405L52.0474 52.0472Z" fill="url(#paint2_linear_1005_378)"/>
<path d="M90.2835 41.6238L87.5274 40.4388L87.526 40.4421L90.2835 41.6238ZM76.2083 74.4672L73.4509 73.2855L73.4456 73.2979L76.2083 74.4672ZM89.5803 37.9723L87.4565 40.0911L87.4612 40.0959L89.5803 37.9723ZM85.9287 37.2689L87.1104 40.0264L87.1117 40.0258L85.9287 37.2689ZM53.0853 51.3441L54.2616 54.1039L54.267 54.1016L53.0853 51.3441ZM52.0502 52.0408L49.9447 49.9037L49.447 50.3941L49.2171 51.0539L52.0502 52.0408ZM52.0479 52.0474L49.2148 51.0605L48.5957 52.8379L49.9265 54.1688L52.0479 52.0474ZM75.5049 75.5045L73.3836 77.6259L73.4332 77.6755L73.4851 77.7227L75.5049 75.5045ZM75.5073 75.5066L73.4874 77.7248L75.6114 79.6589L77.6357 77.6208L75.5073 75.5066ZM75.5045 75.5043L77.6259 73.383L77.6259 73.383L75.5045 75.5043ZM52.0474 52.0472L49.1844 51.151L48.6419 52.8843L49.9261 54.1686L52.0474 52.0472ZM75.5066 75.5064L77.6204 77.6353L79.7568 75.514L77.628 73.3851L75.5066 75.5064ZM74.4672 76.2074L73.2979 73.4447L73.2855 73.45L74.4672 76.2074ZM41.6238 90.2828L40.4421 87.5254L40.442 87.5254L41.6238 90.2828ZM37.9723 89.5794L40.0962 87.4606L40.0911 87.4556L37.9723 89.5794ZM37.2689 85.928L40.025 87.1129L40.0264 87.1097L37.2689 85.928ZM51.3441 53.0843L54.1016 54.266L54.1033 54.262L51.3441 53.0843ZM52.0495 52.0405L54.9125 52.9367L49.9279 49.9196L52.0495 52.0405ZM87.526 40.4421L73.4509 73.2855L78.9658 75.6489L93.0409 42.8055L87.526 40.4421ZM87.4612 40.0959C87.551 40.1854 87.5773 40.3229 87.5274 40.4388L93.0395 42.8088C94.0604 40.4344 93.5292 37.6747 91.6995 35.8488L87.4612 40.0959ZM87.1117 40.0258C87.2315 39.9744 87.3675 40.0019 87.4565 40.0911L91.7042 35.8536C89.8778 34.0227 87.1206 33.4929 84.7456 34.5121L87.1117 40.0258ZM54.267 54.1016L87.1104 40.0264L84.7469 34.5115L51.9035 48.5867L54.267 54.1016ZM54.1556 54.1779C54.1951 54.139 54.2323 54.1164 54.2616 54.1039L51.9089 48.5844C51.1598 48.9037 50.4982 49.3585 49.9447 49.9037L54.1556 54.1779ZM54.8809 53.0343L54.8832 53.0277L49.2171 51.0539L49.2148 51.0605L54.8809 53.0343ZM77.6263 73.3832L54.1692 49.9261L49.9265 54.1688L73.3836 77.6259L77.6263 73.3832ZM77.5271 73.2885L77.5248 73.2864L73.4851 77.7227L73.4874 77.7248L77.5271 73.2885ZM73.4456 73.2979C73.4357 73.3214 73.4153 73.3557 73.3788 73.3925L77.6357 77.6208C78.1876 77.0652 78.6496 76.3961 78.9711 75.6365L73.4456 73.2979ZM77.6259 73.383L54.1688 49.9259L49.9261 54.1686L73.3832 77.6257L77.6259 73.383ZM77.628 73.3851L77.6259 73.383L73.3832 77.6257L73.3853 77.6277L77.628 73.3851ZM75.6365 78.9702C76.3961 78.6487 77.065 78.1867 77.6204 77.6353L73.3929 73.3776C73.3558 73.4143 73.3214 73.4348 73.2979 73.4447L75.6365 78.9702ZM42.8056 93.0403L75.649 78.9649L73.2855 73.45L40.4421 87.5254L42.8056 93.0403ZM35.8485 91.6982C37.6806 93.5347 40.4404 94.054 42.8057 93.0402L40.442 87.5254C40.3211 87.5772 40.1836 87.5483 40.0962 87.4606L35.8485 91.6982ZM34.5129 84.7431C33.4921 87.1174 34.0231 89.8773 35.8536 91.7033L40.0911 87.4556C40.0015 87.3662 39.9752 87.2289 40.025 87.1129L34.5129 84.7431ZM48.5867 51.9026L34.5115 84.7463L40.0264 87.1097L54.1016 54.266L48.5867 51.9026ZM49.9279 49.9196C49.3637 50.4839 48.9049 51.1572 48.585 51.9066L54.1033 54.262C54.1194 54.2243 54.143 54.1897 54.1712 54.1615L49.9279 49.9196ZM54.9104 52.9434L54.9125 52.9367L49.1865 51.1443L49.1844 51.151L54.9104 52.9434Z" fill="url(#paint3_linear_1005_378)"/>
<defs>
<linearGradient id="paint0_linear_1005_378" x1="67.2178" y1="60.7197" x2="106.209" y2="17.3976" gradientUnits="userSpaceOnUse">
<stop stop-color="#7700D5"/>
<stop offset="1" stop-color="#BD00FF"/>
</linearGradient>
<linearGradient id="paint1_linear_1005_378" x1="67.2178" y1="60.7197" x2="106.209" y2="17.3976" gradientUnits="userSpaceOnUse">
<stop stop-color="#7700D5"/>
<stop offset="1" stop-color="#BD00FF"/>
</linearGradient>
<linearGradient id="paint2_linear_1005_378" x1="65.2617" y1="62.2612" x2="83.2618" y2="42.2612" gradientUnits="userSpaceOnUse">
<stop stop-color="#7700D5"/>
<stop offset="1" stop-color="#BD00FF"/>
</linearGradient>
<linearGradient id="paint3_linear_1005_378" x1="65.2617" y1="62.2612" x2="83.2618" y2="42.2612" gradientUnits="userSpaceOnUse">
<stop stop-color="#7700D5"/>
<stop offset="1" stop-color="#BD00FF"/>
</linearGradient>
</defs>
</svg>
