<svg width="48" height="48" viewBox="0 0 48 48" fill="none" xmlns="http://www.w3.org/2000/svg">
<path d="M5.85131 5.74942C3.88251 4.20542 1 5.60804 1 8.11007V10.6312C1 11.562 1.43203 12.4401 2.16945 13.008L15.8057 23.5104C16.3264 23.9114 16.3253 24.6972 15.8033 25.0967L2.17668 35.5259C1.43499 36.0935 1 36.9742 1 37.9082V40.5635C1 43.0498 3.85086 44.457 5.82452 42.9449L28.1933 25.8071L42.1617 36.638C44.1329 38.1664 47 36.7615 47 34.2671V31.6206C47 30.7045 46.5814 29.8386 45.8635 29.2695L40.5922 25.0913C40.0871 24.6909 40.0871 23.9243 40.5922 23.5239L45.8635 19.3457C46.5814 18.7766 47 17.9107 47 16.9947V14.5643C47 12.0547 44.1022 10.6544 42.1359 12.2138L28.1935 23.271L5.85131 5.74942Z" fill="url(#paint0_linear_1067_214)"/>
<defs>
<linearGradient id="paint0_linear_1067_214" x1="9.3375" y1="39.0281" x2="44.3147" y2="2.53102" gradientUnits="userSpaceOnUse">
<stop stop-color="#FE0844"/>
<stop offset="1" stop-color="#FEB302"/>
</linearGradient>
</defs>
</svg>
