<svg width="24" height="24" viewBox="0 0 24 24" fill="none" xmlns="http://www.w3.org/2000/svg">
<path d="M1 12.1362C1 5.98622 5.92462 1 11.9998 1C18.075 1 22.9997 5.98622 22.9997 12.1362V17.9034C22.9997 18.8021 22.9997 19.4192 22.8424 19.9604C22.6913 20.4815 22.4323 20.9651 22.0823 21.3797C21.7323 21.7943 21.2991 22.1308 20.8107 22.3672C20.3069 22.6092 19.7063 22.7049 18.8296 22.8446L18.6866 22.8666C18.4212 22.9124 18.1545 22.9509 17.8869 22.9821C17.657 23.0041 17.4227 23.0118 17.183 22.9645C16.7931 22.8857 16.4302 22.7076 16.1294 22.4475C15.8286 22.1873 15.6 21.8539 15.4659 21.4795C15.3893 21.2527 15.3463 21.0159 15.3383 20.7766C15.3251 20.5522 15.3251 20.2794 15.3251 19.9604V15.3702C15.3251 14.9027 15.3251 14.5001 15.4318 14.1547C15.5502 13.7686 15.7677 13.4203 16.0626 13.1443C16.3575 12.8683 16.7195 12.6744 17.1126 12.5817C17.4601 12.5014 17.8572 12.5333 18.3181 12.5707L18.4204 12.5784L18.5414 12.5894C19.4027 12.6576 19.9934 12.7038 20.4939 12.8919C20.8459 13.0239 21.1715 13.2043 21.4652 13.4276V12.1362C21.4652 6.84421 17.227 2.55428 11.9998 2.55428C6.77271 2.55428 2.53448 6.84421 2.53448 12.1362V13.4276C2.82817 13.2043 3.15377 13.0228 3.50576 12.8919C4.00625 12.7049 4.59694 12.6576 5.45823 12.5883L5.57923 12.5784L5.68153 12.5707C6.14352 12.5333 6.53952 12.5014 6.88711 12.5817C7.2802 12.6744 7.64218 12.8683 7.93705 13.1443C8.23193 13.4203 8.44941 13.7686 8.56788 14.1547C8.67568 14.5001 8.67458 14.9027 8.67458 15.3702V19.9593C8.67458 20.2794 8.67458 20.5533 8.66138 20.7766C8.64818 21.0109 8.61738 21.2463 8.53378 21.4784C8.39972 21.8526 8.17133 22.186 7.87072 22.4461C7.57011 22.7063 7.20744 22.8844 6.81781 22.9634C6.58504 23.0048 6.34736 23.0111 6.11272 22.9821C5.89162 22.9601 5.62433 22.9172 5.31303 22.8677L5.17004 22.8457C4.29335 22.7049 3.69166 22.6092 3.18897 22.3661C2.70059 22.1297 2.26735 21.7932 1.91735 21.3786C1.56735 20.964 1.3084 20.4804 1.1573 19.9593C1.0275 19.5138 1.0044 19.0166 1.0011 18.3522L1 18.1377V12.1362Z" fill="url(#paint0_linear_1005_467)"/>
<path fill-rule="evenodd" clip-rule="evenodd" d="M11.9999 5.125C12.2187 5.125 12.4286 5.21192 12.5833 5.36663C12.738 5.52135 12.8249 5.73119 12.8249 5.94999V11.4499C12.8249 11.6687 12.738 11.8786 12.5833 12.0333C12.4286 12.188 12.2187 12.2749 11.9999 12.2749C11.7811 12.2749 11.5713 12.188 11.4166 12.0333C11.2618 11.8786 11.1749 11.6687 11.1749 11.4499V5.94999C11.1749 5.73119 11.2618 5.52135 11.4166 5.36663C11.5713 5.21192 11.7811 5.125 11.9999 5.125ZM15.2999 6.77497C15.5187 6.77497 15.7285 6.86189 15.8832 7.01661C16.0379 7.17132 16.1249 7.38116 16.1249 7.59996V9.79993C16.1249 10.0188 16.0379 10.2286 15.8832 10.3833C15.7285 10.538 15.5187 10.625 15.2999 10.625C15.0811 10.625 14.8712 10.538 14.7165 10.3833C14.5618 10.2286 14.4749 10.0188 14.4749 9.79993V7.59996C14.4749 7.38116 14.5618 7.17132 14.7165 7.01661C14.8712 6.86189 15.0811 6.77497 15.2999 6.77497ZM8.69999 6.77497C8.91879 6.77497 9.12862 6.86189 9.28334 7.01661C9.43805 7.17132 9.52497 7.38116 9.52497 7.59996V9.79993C9.52497 10.0188 9.43805 10.2286 9.28334 10.3833C9.12862 10.538 8.91879 10.625 8.69999 10.625C8.48119 10.625 8.27135 10.538 8.11663 10.3833C7.96192 10.2286 7.875 10.0188 7.875 9.79993V7.59996C7.875 7.38116 7.96192 7.17132 8.11663 7.01661C8.27135 6.86189 8.48119 6.77497 8.69999 6.77497Z" fill="url(#paint1_linear_1005_467)"/>
<defs>
<linearGradient id="paint0_linear_1005_467" x1="11.9998" y1="23" x2="11.9998" y2="1" gradientUnits="userSpaceOnUse">
<stop stop-color="#FF1B71"/>
<stop offset="0.9998" stop-color="#FF867E"/>
<stop offset="0.9999" stop-color="#FF6678"/>
</linearGradient>
<linearGradient id="paint1_linear_1005_467" x1="11.9999" y1="12.2749" x2="11.9999" y2="5.125" gradientUnits="userSpaceOnUse">
<stop stop-color="#FF1B71"/>
<stop offset="0.9998" stop-color="#FF867E"/>
<stop offset="0.9999" stop-color="#FF6678"/>
</linearGradient>
</defs>
</svg>
