<svg width="64" height="64" viewBox="0 0 64 64" fill="none" xmlns="http://www.w3.org/2000/svg">
<path d="M57.145 6.85484C54.6722 4.38187 50.6694 4.38157 48.1962 6.85484C46.9821 8.06876 38.5688 16.4821 37.3935 17.6574H6.58199C5.70831 17.6574 5 18.3657 5 19.2394V57.418C5 58.2916 5.70831 59 6.58199 59H44.7606C45.6343 59 46.3426 58.2916 46.3426 57.418V26.6065C47.4951 25.4539 55.9497 16.9994 57.145 15.8041C59.618 13.331 59.6184 9.32812 57.145 6.85484ZM43.1786 55.8359H8.16397V20.8212H34.2297L32.7213 22.3296C27.7968 27.254 23.9343 33.2767 21.5015 39.8052H12.9099C12.0363 39.8052 11.3279 40.5134 11.3279 41.3871C11.3279 42.2607 12.0363 42.968 12.9099 42.968H22.612H22.6129C22.7877 42.968 22.9797 42.934 23.1299 42.8821C30.0679 40.4822 36.4791 36.4697 41.6703 31.2787L43.1786 29.7704V55.8359ZM39.433 29.0414C35.4143 33.0602 30.6136 36.3236 25.3988 38.6013C27.6764 33.3865 30.9397 28.5857 34.9586 24.567L45.9588 13.5667L50.4333 18.0412C49.2888 19.1857 40.522 27.9524 39.433 29.0414ZM54.9078 13.5667L52.6706 15.804L48.1962 11.3295L50.4333 9.09209C51.6698 7.85561 53.6712 7.8555 54.9078 9.09209C56.1444 10.3287 56.1444 12.33 54.9078 13.5667Z" fill="url(#paint0_linear_719_61)" stroke="url(#paint1_linear_719_61)" stroke-width="2"/>
<defs>
<linearGradient id="paint0_linear_719_61" x1="46.4642" y1="18.5" x2="5" y2="60.4463" gradientUnits="userSpaceOnUse">
<stop stop-color="#7DDF3A"/>
<stop offset="1" stop-color="#F4FDA1"/>
</linearGradient>
<linearGradient id="paint1_linear_719_61" x1="46.4642" y1="18.5" x2="5" y2="60.4463" gradientUnits="userSpaceOnUse">
<stop stop-color="#7DDF3A"/>
<stop offset="1" stop-color="#F4FDA1"/>
</linearGradient>
</defs>
</svg>
