<svg width="16" height="16" viewBox="0 0 16 16" fill="none" xmlns="http://www.w3.org/2000/svg">
<path fill-rule="evenodd" clip-rule="evenodd" d="M7.96023 0.5H8.03977C9.6507 0.5 10.9128 0.5 11.8979 0.632558C12.9053 0.767907 13.7007 1.05116 14.3251 1.67488C14.9495 2.2993 15.2321 3.09465 15.3674 4.10279C15.5 5.08721 15.5 6.3493 15.5 7.96023V8.03977C15.5 9.6507 15.5 10.9128 15.3674 11.8979C15.2321 12.9053 14.9488 13.7007 14.3251 14.3251C13.7007 14.9495 12.9054 15.2321 11.8972 15.3674C10.9128 15.5 9.6507 15.5 8.03977 15.5H7.96023C6.3493 15.5 5.08721 15.5 4.10209 15.3674C3.09465 15.2321 2.2993 14.9488 1.67488 14.3251C1.05047 13.7007 0.767907 12.9054 0.632558 11.8972C0.5 10.9128 0.5 9.6507 0.5 8.03977V7.96023C0.5 6.3493 0.5 5.08721 0.632558 4.10209C0.767907 3.09465 1.05116 2.2993 1.67488 1.67488C2.2993 1.05047 3.09465 0.767907 4.10279 0.632558C5.08721 0.5 6.3493 0.5 7.96023 0.5ZM4.24163 1.6693C3.35 1.7893 2.81209 2.01814 2.41512 2.41512C2.01744 2.81279 1.7893 3.35 1.6693 4.24233C1.66891 4.24528 1.66851 4.24824 1.66812 4.2512C1.63723 4.48418 1.82293 4.68605 2.05795 4.68605H4.00461C4.14137 4.68605 4.26865 4.61618 4.34207 4.5008L5.81845 2.18078C5.98937 1.91219 5.79317 1.56154 5.47504 1.57373C5.01077 1.59151 4.60328 1.62096 4.24163 1.6693ZM7.56627 1.54651C7.49509 1.54651 7.43384 1.59308 7.39581 1.65326V1.65326L5.85616 4.0712C5.6866 4.33749 5.87788 4.68605 6.19357 4.68605H8.53947C8.67624 4.68605 8.80353 4.61616 8.87695 4.50077L10.3641 2.16335C10.5288 1.90444 10.3527 1.56612 10.0459 1.55942C9.45487 1.54651 8.7791 1.54651 8 1.54651H7.56627ZM12.1639 1.73641C12.0082 1.70529 11.8512 1.7775 11.7659 1.9115L10.3909 4.07124C10.2214 4.33752 10.4127 4.68605 10.7284 4.68605H13.9414C14.1764 4.68605 14.3632 4.48404 14.3312 4.2512C14.3308 4.24824 14.3304 4.24528 14.33 4.24233C14.2107 3.35 13.9826 2.81209 13.5849 2.41442C13.252 2.08149 12.8204 1.86756 12.1639 1.73641ZM14.4437 6.12085C14.4398 5.90453 14.2625 5.73256 14.0462 5.73256H4.5193C4.51372 5.73265 4.50814 5.73265 4.50256 5.73256H1.95673C1.73921 5.73256 1.56146 5.90638 1.55773 6.12386C1.54702 6.74918 1.54328 7.37459 1.54651 8C1.54651 9.65907 1.54791 10.8507 1.6693 11.7577C1.7893 12.65 2.01814 13.1879 2.41512 13.5856C2.81279 13.9826 3.35 14.2107 4.24233 14.3307C5.1493 14.4521 6.34093 14.4535 8 14.4535C9.65907 14.4535 10.8507 14.4521 11.7577 14.3307C12.65 14.2107 13.1879 13.9819 13.5856 13.5849C13.9826 13.1872 14.2107 12.65 14.3307 11.7577C14.4521 10.8507 14.4535 9.65907 14.4535 8C14.4535 7.29347 14.4535 6.67194 14.4437 6.12085ZM8.95442 7.94488L9.02558 7.99093C9.45814 8.27 9.83209 8.5114 10.093 8.74233C10.3707 8.98791 10.6163 9.30395 10.6163 9.74419C10.6163 10.1844 10.3707 10.5005 10.093 10.746C9.83209 10.977 9.45814 11.2184 9.02558 11.4974L8.95442 11.5435C8.51767 11.8254 8.13814 12.0702 7.82279 12.2105C7.49488 12.3563 7.07419 12.4609 6.67302 12.2063C6.29349 11.9649 6.17767 11.5526 6.12954 11.1898C6.0807 10.8277 6.0814 10.3491 6.0814 9.78256V9.70581C6.0814 9.1393 6.0814 8.6607 6.13023 8.29861C6.17767 7.93581 6.29349 7.52419 6.67302 7.28209C7.07419 7.02744 7.49488 7.13279 7.82279 7.27791C8.13814 7.41814 8.51767 7.66302 8.95442 7.94488ZM7.20498 8.17549C7.20421 8.17537 7.20671 8.17512 7.20749 8.17512V8.17512C7.20832 8.17512 7.2058 8.17562 7.20498 8.17549V8.17549ZM7.18123 8.34628C7.2006 8.24254 7.30188 8.1922 7.3986 8.23442V8.23442C7.62884 8.33698 7.9393 8.53581 8.42419 8.84837C8.9007 9.15535 9.20558 9.35419 9.40023 9.52582C9.48482 9.60082 9.52747 9.65266 9.54885 9.68698C9.57055 9.72179 9.5704 9.76655 9.54872 9.80137C9.52728 9.83578 9.48464 9.88772 9.40023 9.96256C9.20628 10.1342 8.9007 10.3323 8.42349 10.6407C7.9393 10.9526 7.62954 11.1514 7.39791 11.254V11.254C7.30455 11.295 7.20275 11.2413 7.18228 11.1414C7.17668 11.1141 7.17141 11.0841 7.16698 11.0516C7.1293 10.767 7.12791 10.3595 7.12791 9.74419C7.12791 9.12884 7.1293 8.7214 7.16698 8.43675C7.17147 8.40275 7.17628 8.37275 7.18123 8.34628Z" fill="url(#paint0_linear_555_173)"/>
<path d="M7.23884 8.16186L7.24233 8.15837M7.96023 0.5H8.03977C9.6507 0.5 10.9128 0.5 11.8979 0.632558C12.9053 0.767907 13.7007 1.05116 14.3251 1.67488C14.9495 2.2993 15.2321 3.09465 15.3674 4.10279C15.5 5.08721 15.5 6.3493 15.5 7.96023V8.03977C15.5 9.6507 15.5 10.9128 15.3674 11.8979C15.2321 12.9053 14.9488 13.7007 14.3251 14.3251C13.7007 14.9495 12.9054 15.2321 11.8972 15.3674C10.9128 15.5 9.6507 15.5 8.03977 15.5H7.96023C6.3493 15.5 5.08721 15.5 4.10209 15.3674C3.09465 15.2321 2.2993 14.9488 1.67488 14.3251C1.05047 13.7007 0.767907 12.9054 0.632558 11.8972C0.5 10.9128 0.5 9.6507 0.5 8.03977V7.96023C0.5 6.3493 0.5 5.08721 0.632558 4.10209C0.767907 3.09465 1.05116 2.2993 1.67488 1.67488C2.2993 1.05047 3.09465 0.767907 4.10279 0.632558C5.08721 0.5 6.3493 0.5 7.96023 0.5ZM4.24163 1.6693C3.35 1.7893 2.81209 2.01814 2.41512 2.41512C2.01744 2.81279 1.7893 3.35 1.6693 4.24233C1.66891 4.24528 1.66851 4.24824 1.66812 4.2512C1.63723 4.48418 1.82293 4.68605 2.05795 4.68605H4.00461C4.14137 4.68605 4.26865 4.61618 4.34207 4.5008L5.81845 2.18078C5.98937 1.91219 5.79317 1.56154 5.47504 1.57373C5.01077 1.59151 4.60328 1.62096 4.24163 1.6693ZM7.39581 1.65326V1.65326C7.43384 1.59308 7.49509 1.54651 7.56627 1.54651H8C8.7791 1.54651 9.45487 1.54651 10.0459 1.55942C10.3527 1.56612 10.5288 1.90444 10.3641 2.16335L8.87695 4.50077C8.80353 4.61616 8.67624 4.68605 8.53947 4.68605H6.19357C5.87788 4.68605 5.6866 4.33749 5.85616 4.0712L7.39581 1.65326ZM14.33 4.24233C14.3304 4.24528 14.3308 4.24824 14.3312 4.2512C14.3632 4.48404 14.1764 4.68605 13.9414 4.68605H10.7284C10.4127 4.68605 10.2214 4.33752 10.3909 4.07124L11.7659 1.9115C11.8512 1.7775 12.0082 1.70529 12.1639 1.73641C12.8204 1.86756 13.252 2.08149 13.5849 2.41442C13.9826 2.81209 14.2107 3.35 14.33 4.24233ZM4.5193 5.73256H14.0462C14.2625 5.73256 14.4398 5.90453 14.4437 6.12085C14.4535 6.67194 14.4535 7.29347 14.4535 8C14.4535 9.65907 14.4521 10.8507 14.3307 11.7577C14.2107 12.65 13.9826 13.1872 13.5856 13.5849C13.1879 13.9819 12.65 14.2107 11.7577 14.3307C10.8507 14.4521 9.65907 14.4535 8 14.4535C6.34093 14.4535 5.1493 14.4521 4.24233 14.3307C3.35 14.2107 2.81279 13.9826 2.41512 13.5856C2.01814 13.1879 1.7893 12.65 1.6693 11.7577C1.54791 10.8507 1.54651 9.65907 1.54651 8C1.54328 7.37459 1.54702 6.74918 1.55773 6.12386C1.56146 5.90638 1.73921 5.73256 1.95673 5.73256H4.50256C4.50814 5.73265 4.51372 5.73265 4.5193 5.73256ZM8.95442 7.94488L9.02558 7.99093C9.45814 8.27 9.83209 8.5114 10.093 8.74233C10.3707 8.98791 10.6163 9.30395 10.6163 9.74419C10.6163 10.1844 10.3707 10.5005 10.093 10.746C9.83209 10.977 9.45814 11.2184 9.02558 11.4974L8.95442 11.5435C8.51767 11.8254 8.13814 12.0702 7.82279 12.2105C7.49488 12.3563 7.07419 12.4609 6.67302 12.2063C6.29349 11.9649 6.17767 11.5526 6.12954 11.1898C6.0807 10.8277 6.0814 10.3491 6.0814 9.78256V9.70581C6.0814 9.1393 6.0814 8.6607 6.13023 8.29861C6.17767 7.93581 6.29349 7.52419 6.67302 7.28209C7.07419 7.02744 7.49488 7.13279 7.82279 7.27791C8.13814 7.41814 8.51767 7.66302 8.95442 7.94488ZM7.3986 8.23442V8.23442C7.30188 8.1922 7.2006 8.24254 7.18123 8.34628C7.17628 8.37275 7.17147 8.40275 7.16698 8.43675C7.1293 8.7214 7.12791 9.12884 7.12791 9.74419C7.12791 10.3595 7.1293 10.767 7.16698 11.0516C7.17141 11.0841 7.17668 11.1141 7.18228 11.1414C7.20275 11.2413 7.30455 11.295 7.39791 11.254V11.254C7.62954 11.1514 7.9393 10.9526 8.42349 10.6407C8.9007 10.3323 9.20628 10.1342 9.40023 9.96256C9.48464 9.88772 9.52728 9.83578 9.54872 9.80137C9.5704 9.76655 9.57055 9.72179 9.54885 9.68698C9.52747 9.65266 9.48482 9.60082 9.40023 9.52582C9.20558 9.35419 8.9007 9.15535 8.42419 8.84837C7.9393 8.53581 7.62884 8.33698 7.3986 8.23442ZM7.20749 8.17512V8.17512C7.20671 8.17512 7.20421 8.17537 7.20498 8.17549V8.17549C7.2058 8.17562 7.20832 8.17512 7.20749 8.17512Z" stroke="url(#paint1_linear_555_173)" stroke-width="0.7"/>
<defs>
<linearGradient id="paint0_linear_555_173" x1="3.73416" y1="-3.33027" x2="20.1065" y2="7.9156" gradientUnits="userSpaceOnUse">
<stop stop-color="#5DBCFF"/>
<stop offset="1" stop-color="#4D7FFF"/>
</linearGradient>
<linearGradient id="paint1_linear_555_173" x1="3.73416" y1="-3.33027" x2="20.1065" y2="7.9156" gradientUnits="userSpaceOnUse">
<stop stop-color="#5DBCFF"/>
<stop offset="1" stop-color="#4D7FFF"/>
</linearGradient>
</defs>
</svg>
