<svg width="16" height="16" viewBox="0 0 16 16" fill="none" xmlns="http://www.w3.org/2000/svg">
<path fill-rule="evenodd" clip-rule="evenodd" d="M15.5664 4.66645L15.5664 4.6233C15.5664 4.35556 15.5665 4.16368 15.5516 3.99321C15.3866 2.10776 13.8917 0.61291 12.0063 0.447955C11.8358 0.43304 11.644 0.433069 11.3762 0.43311L11.3331 0.433114L6.13307 0.433114L6.09536 0.433114C5.28731 0.433103 4.62646 0.433095 4.08938 0.476976C3.53347 0.522395 3.03139 0.619278 2.5625 0.858189C1.82867 1.23209 1.23205 1.82872 0.85814 2.56255C0.619229 3.03144 0.522346 3.53352 0.476927 4.08943C0.449003 4.4312 0.438852 4.8231 0.435165 5.27115C0.433773 5.29162 0.433065 5.31229 0.433065 5.33311V6.03097V6.09541V6.13311V7.99978V11.6664C0.433065 13.8204 2.17916 15.5664 4.33307 15.5664H4.6664C5.92058 15.5664 7.02356 14.9191 7.65946 13.9403C7.79113 13.7376 7.85697 13.6363 7.93514 13.6179C8.01331 13.5995 8.11727 13.6608 8.32518 13.7833C9.72315 14.6073 11.5349 14.404 12.7158 13.223C13.8472 12.0915 14.072 10.3967 13.3903 9.04141C13.2835 8.82921 13.2302 8.7231 13.2534 8.64655C13.2767 8.57 13.3793 8.51196 13.5846 8.39589C14.6747 7.77953 15.4365 6.65459 15.5516 5.33969C15.5665 5.16921 15.5664 4.97733 15.5664 4.7096L15.5664 4.66645ZM11.0777 9.01693C11.0199 8.95913 10.991 8.93023 10.9542 8.915C10.9175 8.89978 10.8766 8.89978 10.7948 8.89978H6.28128C5.81678 8.89978 5.58453 8.89978 5.53694 9.0321C5.48936 9.16442 5.66841 9.31233 6.02653 9.60816L9.00216 12.0663C9.72401 12.6626 10.7809 12.6124 11.4429 11.9503C12.1521 11.241 12.152 10.0912 11.4428 9.38205L11.0777 9.01693ZM2.67355 7.09978C2.66912 7.09975 2.66468 7.09975 2.66025 7.09978H2.63306C2.4445 7.09978 2.35022 7.09978 2.29164 7.0412C2.23306 6.98262 2.23306 6.88834 2.23306 6.69978V6.13311C2.23306 5.27818 2.23376 4.69111 2.27095 4.23601C2.30727 3.79141 2.37388 3.55258 2.46195 3.37973C2.66329 2.98459 2.98454 2.66333 3.37969 2.462C3.55253 2.37393 3.79136 2.30732 4.23596 2.271C4.69107 2.23381 5.27814 2.23311 6.13307 2.23311H11.3331C11.6616 2.23311 11.768 2.23398 11.8494 2.24111C12.8647 2.32993 13.6696 3.13485 13.7584 4.15009C13.7655 4.23156 13.7664 4.33788 13.7664 4.66645C13.7664 4.99502 13.7655 5.10134 13.7584 5.18281C13.6696 6.19805 12.8647 7.00297 11.8494 7.09179C11.768 7.09892 11.6616 7.09978 11.3331 7.09978H2.67355ZM2.31373 8.89978C2.33248 8.89978 2.35065 8.90631 2.3651 8.91826L6.23942 12.1188C6.32718 12.1913 6.37106 12.2275 6.38875 12.2844C6.40645 12.3412 6.39297 12.3886 6.36603 12.4835C6.15568 13.224 5.47438 13.7664 4.6664 13.7664H4.33307C3.17327 13.7664 2.23306 12.8262 2.23306 11.6664V8.98044C2.23306 8.93589 2.26918 8.89978 2.31373 8.89978V8.89978ZM4.6664 5.33311C4.29821 5.33311 3.99973 5.03464 3.99973 4.66645C3.99973 4.29826 4.29821 3.99978 4.6664 3.99978C5.03459 3.99978 5.33307 4.29826 5.33307 4.66645C5.33307 5.03464 5.03459 5.33311 4.6664 5.33311Z" fill="url(#paint0_linear_508_261)"/>
<defs>
<linearGradient id="paint0_linear_508_261" x1="7.99974" y1="0.433105" x2="7.99974" y2="15.5665" gradientUnits="userSpaceOnUse">
<stop stop-color="#ACF076"/>
<stop offset="1" stop-color="#EEE864"/>
</linearGradient>
</defs>
</svg>
