<svg width="128" height="128" viewBox="0 0 128 128" fill="none" xmlns="http://www.w3.org/2000/svg">
<path d="M48.0584 6.07289C41.8726 6.38719 36.1483 10.5467 33.8078 16.2576C32.2251 20.295 32.3951 20.7939 32.4848 23.7669C32.5463 25.8037 34.2193 27.5093 36.257 27.4989L37.2525 27.4938C39.0533 27.4847 40.4852 26.0637 40.4231 24.264C40.3067 20.8902 40.1902 22.1997 41.0491 19.3741C41.1348 19.092 41.2474 18.8147 41.3989 18.5618C42.5612 16.623 44.2598 14.9074 46.5002 14.3049C48.7304 13.7414 51.0306 13.785 53.3219 13.8285C54.2116 13.8454 55.1002 13.8621 55.9829 13.8434C59.8716 13.856 63.7604 13.8537 67.6488 13.8514L67.8368 13.8512C72.124 13.8485 76.4119 13.8459 80.6991 13.8633C83.2042 13.8547 85.7085 13.8535 88.2136 13.8523H88.2511C91.5787 13.8506 94.9056 13.8489 98.2325 13.8299C100.255 13.8238 102.289 13.856 104.289 14.2019C104.717 14.2759 105.126 14.4333 105.492 14.6681C106.792 15.5045 107.97 16.5244 108.989 17.6914C109.236 17.9736 109.432 18.2965 109.562 18.648C110.529 21.2677 110.488 24.0716 110.448 26.844V26.8452V26.8486L110.447 26.9212V26.9248C110.437 27.6772 110.426 28.4273 110.437 29.1705C110.394 39.6486 110.406 50.1269 110.419 60.6044V60.6058V60.6077C110.437 76.013 110.456 91.4183 110.296 106.821V106.824C109.728 110.502 106.553 113.664 102.814 114.025C101.174 114.17 99.5309 114.15 97.8879 114.13L97.8284 114.129C96.9053 114.118 95.9816 114.107 95.0585 114.126H95.0559C95.055 114.126 95.054 114.126 95.053 114.126C85.8057 114.093 76.5617 114.106 67.3156 114.12L65.6077 114.122C62.2125 114.126 58.8172 114.131 55.4214 114.133C54.7664 114.127 54.1099 114.134 53.4529 114.141L53.3631 114.142L53.272 114.143C51.1209 114.168 48.485 114.077 46.2621 113.71C46.2107 113.701 46.0534 113.627 46.007 113.603C45.7373 113.465 45.9458 113.575 45.6809 113.428C42.9621 111.922 41.2538 109.963 40.5619 106.743C40.2917 105.485 40.4575 105.145 40.4281 103.732C40.438 103.063 39.8855 102.521 39.2165 102.522L33.9336 102.526C33.0499 102.527 32.4453 102.979 32.4481 103.863C32.4502 104.49 32.4775 105.412 32.5519 106.763C32.556 106.837 32.5583 106.914 32.5583 106.989V107.352C32.5583 108.536 33.373 111.043 34.1421 112.661C35.9744 116.112 38.89 118.967 42.4409 120.625C43.9787 121.187 45.5505 121.709 47.1886 121.843C47.1891 121.843 47.1896 121.843 47.1901 121.843C47.1905 121.843 47.191 121.843 47.1914 121.843C58.6078 122.024 70.0322 122.007 81.4559 121.988H81.4579C88.1606 121.978 94.8632 121.967 101.564 121.996C107.415 122.124 113.006 118.787 116.042 113.845C117.954 110.722 118.449 106.99 118.362 103.386C118.328 97.9658 118.342 92.5438 118.356 87.1205V87.1168V87.1042C118.377 78.9719 118.397 70.19 118.255 62.041C118.405 55.43 118.382 48.8122 118.358 42.1944V42.1889C118.341 37.5433 118.324 32.8978 118.368 28.2544C118.361 27.6234 118.364 26.9872 118.367 26.3483L118.368 26.2338V26.2265C118.387 22.7127 118.406 19.1237 116.87 15.8963C115.321 12.2318 112.277 9.46056 108.841 7.55793C108.653 7.45382 108.456 7.36792 108.252 7.29926C106.093 6.57111 103.855 5.98717 101.556 6.0191C99.1674 6.00702 96.7787 6.01403 94.39 6.02105L94.3512 6.02116C91.463 6.02965 88.5754 6.03813 85.6872 6.01257C82.7187 6.01011 79.7508 6.01399 76.783 6.01788L76.7188 6.01797C71.6525 6.02461 66.5876 6.03124 61.5199 6.00601C59.6896 6.03056 57.8593 6.02062 56.0291 6.01067C53.3722 5.99624 50.7152 5.98181 48.0584 6.07289Z" fill="url(#paint0_linear_1005_142)" stroke="url(#paint1_linear_1005_142)" stroke-width="3"/>
<path fill-rule="evenodd" clip-rule="evenodd" d="M72.1788 40.1784C72.1788 39.0343 73.2607 38.1069 74.5955 38.1069H98.7621C100.097 38.1069 101.179 39.0343 101.179 40.1784V46.3926C101.179 47.5367 100.097 48.4641 98.7621 48.4641H74.5955C73.2607 48.4641 72.1788 47.5367 72.1788 46.3926V40.1784ZM74.5953 58.8214C73.2605 58.8214 72.1787 59.7488 72.1787 60.8929V67.1071C72.1787 68.2513 73.2605 69.1786 74.5953 69.1786H98.762C100.097 69.1786 101.179 68.2513 101.179 67.1071V60.8929C101.179 59.7488 100.097 58.8214 98.762 58.8214H74.5953ZM72.1787 81.6071C72.1787 80.463 73.2605 79.5357 74.5953 79.5357H98.762C100.097 79.5357 101.179 80.463 101.179 81.6071V87.8214C101.179 88.9655 100.097 89.8929 98.762 89.8929H74.5953C73.2605 89.8929 72.1787 88.9655 72.1787 87.8214V81.6071Z" fill="url(#paint2_linear_1005_142)"/>
<path fill-rule="evenodd" clip-rule="evenodd" d="M28.9749 53.01C28.9749 54.6669 27.6318 56.01 25.9749 56.01H15.9911C12.13 56.01 9 59.5872 9 63.9998C9 68.4125 12.13 71.9896 15.9911 71.9896H25.9749C27.6318 71.9896 28.9749 73.3328 28.9749 74.9896V84.9731C28.9749 88.8342 32.5521 91.9642 36.9647 91.9642C41.3774 91.9642 44.9545 88.8342 44.9545 84.9731V74.9896C44.9545 73.3328 46.2976 71.9896 47.9545 71.9896H57.9375C61.7986 71.9896 64.9286 68.4125 64.9286 63.9998C64.9286 59.5872 61.7986 56.01 57.9375 56.01H47.9545C46.2976 56.01 44.9545 54.6669 44.9545 53.01V43.0267C44.9545 39.1656 41.3774 36.0356 36.9647 36.0356C32.5521 36.0356 28.9749 39.1656 28.9749 43.0267V53.01ZM74.5955 37.1069C72.8585 37.1069 71.1788 38.343 71.1788 40.1784V46.3926C71.1788 48.228 72.8585 49.4641 74.5955 49.4641H98.7621C100.499 49.4641 102.179 48.228 102.179 46.3926V40.1784C102.179 38.343 100.499 37.1069 98.7621 37.1069H74.5955ZM74.5953 57.8214C72.8584 57.8214 71.1787 59.0575 71.1787 60.8929V67.1071C71.1787 68.9426 72.8584 70.1786 74.5953 70.1786H98.762C100.499 70.1786 102.179 68.9426 102.179 67.1071V60.8929C102.179 59.0575 100.499 57.8214 98.762 57.8214H74.5953ZM74.5953 78.5357C72.8584 78.5357 71.1787 79.7717 71.1787 81.6071V87.8214C71.1787 89.6569 72.8584 90.8929 74.5953 90.8929H98.762C100.499 90.8929 102.179 89.6569 102.179 87.8214V81.6071C102.179 79.7717 100.499 78.5357 98.762 78.5357H74.5953Z" fill="url(#paint3_linear_1005_142)"/>
<defs>
<linearGradient id="paint0_linear_1005_142" x1="85.5411" y1="82.9748" x2="18.8346" y2="52.0904" gradientUnits="userSpaceOnUse">
<stop stop-color="#2AD454"/>
<stop offset="1" stop-color="#B3FF5A"/>
</linearGradient>
<linearGradient id="paint1_linear_1005_142" x1="85.5411" y1="82.9748" x2="18.8346" y2="52.0904" gradientUnits="userSpaceOnUse">
<stop stop-color="#2AD454"/>
<stop offset="1" stop-color="#B3FF5A"/>
</linearGradient>
<linearGradient id="paint2_linear_1005_142" x1="86.6788" y1="89.8926" x2="86.6788" y2="38.1069" gradientUnits="userSpaceOnUse">
<stop stop-color="#02AA93"/>
<stop offset="1" stop-color="#67FF80"/>
</linearGradient>
<linearGradient id="paint3_linear_1005_142" x1="43.5616" y1="73.1487" x2="5.65107" y2="49.4585" gradientUnits="userSpaceOnUse">
<stop stop-color="#2AD454"/>
<stop offset="1" stop-color="#B3FF5A"/>
</linearGradient>
</defs>
</svg>
