<svg width="16" height="16" viewBox="0 0 16 16" fill="none" xmlns="http://www.w3.org/2000/svg">
<path d="M5.16667 5.83334L10.9444 5.83333C12.1411 5.83333 13.1111 6.80338 13.1111 8V12.3333C13.1111 13.53 12.1411 14.5 10.9444 14.5H5.16667C3.97005 14.5 3 13.53 3 12.3333V8C3 6.80338 3.97005 5.83334 5.16667 5.83334ZM5.16667 5.83334V3.66667C5.16667 2.47005 6.13672 1.5 7.33333 1.5L9.08529 1.5C10.1121 1.5 10.9444 2.33237 10.9444 3.35916M8.05556 9.44444V11.6111M8.77778 9.44444C8.77778 9.84332 8.45443 10.1667 8.05556 10.1667C7.65668 10.1667 7.33333 9.84332 7.33333 9.44444C7.33333 9.04557 7.65668 8.72222 8.05556 8.72222C8.45443 8.72222 8.77778 9.04557 8.77778 9.44444Z" stroke="url(#paint0_linear_579_225)" stroke-width="1.8" stroke-linecap="round" stroke-linejoin="round"/>
<defs>
<linearGradient id="paint0_linear_579_225" x1="8.05556" y1="14.5" x2="8.05556" y2="1.5" gradientUnits="userSpaceOnUse">
<stop stop-color="#00B59C"/>
<stop offset="1" stop-color="#9CFFAC"/>
</linearGradient>
</defs>
</svg>
