<svg width="192" height="192" viewBox="0 0 192 192" fill="none" xmlns="http://www.w3.org/2000/svg">
<path fill-rule="evenodd" clip-rule="evenodd" d="M32.9398 23.6632C26.1839 22.6509 19.2628 23.003 12.4518 23.3772C12.1496 30.3209 12.1876 37.2728 12.2256 44.2229C12.2498 48.6606 12.2741 53.0976 12.2097 57.5312C12.2755 57.9978 12.2735 58.5006 12.2715 59.009C12.2668 60.2032 12.2619 61.4279 13.134 62.2846C15.508 62.2627 17.882 62.1528 20.2561 62.0429L20.2641 62.0425C20.4842 58.3784 20.5282 54.7143 20.4952 51.0393C22.0015 50.9073 23.5774 50.9168 25.1678 50.9264C29.409 50.9521 33.753 50.9783 37.1541 48.3215C39.9875 44.6317 39.8684 38.7138 39.7655 33.5955C39.7469 32.6697 39.7288 31.77 39.7288 30.9144C39.7288 27.4999 36.6369 24.1474 32.9398 23.6632ZM20.7226 37.3298C20.6862 35.0093 20.6492 32.6473 20.6492 30.2102C21.4139 30.2102 22.1648 30.1873 22.9041 30.1647C25.4043 30.0884 27.7716 30.0161 30.09 30.8483C32.0881 32.8378 31.8433 35.8697 31.6192 38.6446C31.5595 39.3843 31.5013 40.1058 31.4874 40.7843C30.6858 44.8667 24.7936 44.3146 21.9721 44.0503C21.4627 44.0026 21.0534 43.9642 20.7923 43.9642C20.7923 41.7714 20.7577 39.57 20.7226 37.3299V37.3298V37.3298V37.3298V37.3298ZM47.3678 23.2095L47.3678 23.2095C46.5741 23.2368 45.781 23.2641 44.9888 23.2892C44.5597 36.196 44.5817 49.1578 44.9778 62.0646C51.3927 62.3727 57.8296 62.4387 64.2224 62.0096C67.7105 61.6135 71.7927 60.051 72.4969 56.1449C73.796 49.4356 73.5264 42.5393 73.2593 35.7061V35.7059V35.7057V35.7055V35.7053C73.1961 34.0891 73.1331 32.4764 73.091 30.8705C72.6069 27.0853 69.669 23.9494 65.8179 23.5643C59.7074 22.7847 53.5191 22.9977 47.3678 23.2095ZM52.9476 39.4879C52.966 36.3297 52.9843 33.171 52.9551 30.0122C53.6468 30.0103 54.3439 29.9939 55.0433 29.9775C58.3048 29.901 61.6144 29.8234 64.6406 31.2005L64.6626 31.5637C65.3448 38.3086 65.3448 45.1416 64.8936 51.9086C64.3004 55.9589 59.8157 55.7309 56.4202 55.5584C55.7846 55.5261 55.1872 55.4957 54.6606 55.4957C54.4631 55.4299 54.1645 55.3285 53.8655 55.227L53.8646 55.2267L53.8628 55.2261L53.8627 55.2261C53.5629 55.1243 53.2632 55.0226 53.0652 54.9565C52.8877 49.8037 52.9177 44.6466 52.9476 39.4879ZM79.2301 23.3112C87.2735 22.9591 95.3499 22.8931 103.393 23.3442C103.481 25.5559 103.481 27.7675 103.393 29.9792C99.1878 30.3505 94.9756 30.3017 90.762 30.2528C89.6066 30.2394 88.451 30.226 87.2955 30.2213C87.3161 31.7979 87.3198 33.3745 87.3236 34.9523C87.3279 36.7549 87.3322 38.559 87.3615 40.3662C88.3371 40.358 89.3133 40.3435 90.2899 40.3291L90.2905 40.3291H90.2906C93.2241 40.2858 96.1606 40.2424 99.091 40.3662C100.62 40.4433 101.446 41.3125 101.556 42.985C101.476 43.4436 101.497 43.9259 101.517 44.4081C101.559 45.3955 101.601 46.3828 100.786 47.1662C97.8424 47.2742 94.8993 47.3021 91.9563 47.3301C90.399 47.3449 88.8418 47.3596 87.2845 47.3863C87.2814 48.084 87.2794 48.7817 87.2773 49.4795C87.2652 53.6672 87.2531 57.8549 86.9984 62.0426C84.7868 62.1196 82.5641 62.1526 80.3525 62.1196L79.1861 62.1086C78.856 49.1798 78.779 36.229 79.2301 23.3112ZM16.534 86.9762C13.6402 86.7341 10.5483 88.1866 9.51398 91.0364C7.96252 94.4804 10.1082 98.5626 13.4751 99.938C24.0193 100.091 34.5702 100.071 45.1222 100.051H45.1226H45.123H45.1248C53.6107 100.035 62.0974 100.019 70.5819 100.092C71.0615 100.07 71.5538 100.064 72.0515 100.057H72.052C74.2949 100.028 76.6484 99.9976 78.4492 98.5296C80.074 97.25 80.4106 95.223 80.7353 93.267C80.835 92.6666 80.9336 92.0729 81.068 91.5095C79.2964 89.1989 77.1068 86.6681 73.8609 87.0092C61.9227 86.9542 49.9802 86.9637 38.0361 86.9732C30.8691 86.9788 23.7016 86.9845 16.534 86.9762ZM9.02981 127.996C8.95278 124.552 12.0227 121.383 15.5217 121.559C33.2809 121.502 51.0461 121.511 68.8129 121.52H68.8135C75.2749 121.523 81.7365 121.526 88.1981 121.526C91.2574 121.167 93.4118 123.522 95.2796 125.565L95.3392 125.63C95.2274 126.22 95.1594 126.846 95.0906 127.479C94.8745 129.466 94.6497 131.533 93.0395 132.859C91.4121 134.458 89.0768 134.497 86.9187 134.534C86.6108 134.539 86.3065 134.544 86.0084 134.554C74.3149 134.498 62.6258 134.504 50.9384 134.511C44.26 134.514 37.5821 134.518 30.9043 134.51C29.2358 134.495 27.5658 134.509 25.8956 134.522H25.8955C21.1555 134.56 16.4145 134.598 11.7036 134.004C11.4795 133.64 11.2373 133.277 10.9934 132.911C9.99125 131.41 8.95902 129.863 9.02981 127.996ZM16.6006 155.069C12.5062 154.894 8.91389 158.047 9.00403 161.474C8.92119 163.333 10.1291 164.871 11.3017 166.366C11.5872 166.729 11.8706 167.09 12.1328 167.453C17.6454 168.044 23.1932 168.006 28.7398 167.968C30.6941 167.955 32.6483 167.942 34.6007 167.956C42.4149 167.964 50.2291 167.961 58.0439 167.957C71.7201 167.951 85.3982 167.944 99.0814 168C99.4303 167.99 99.7863 167.985 100.147 167.98C102.672 167.944 105.405 167.904 107.309 166.313C109.193 164.994 109.456 162.937 109.709 160.96C109.79 160.33 109.869 159.708 110 159.12L109.93 159.055C107.745 157.023 105.224 154.679 101.644 155.036C94.0819 155.036 86.5201 155.033 78.9585 155.03C58.169 155.022 37.3813 155.013 16.6006 155.069Z" fill="url(#paint0_linear_724_122)"/>
<path d="M174.36 155L177.42 149.42L183 146.36L177.42 143.3L174.36 137.719L171.3 143.3L165.719 146.36L171.3 149.42L174.36 155ZM151.319 155L154.379 149.42L159.959 146.36L154.379 143.3L151.319 137.719L148.259 143.3L142.679 146.36L148.259 149.42L151.319 155ZM117.653 153.903C118.258 154.509 119.24 154.509 119.846 153.903L181.903 91.8458C182.509 91.2404 182.509 90.2584 181.903 89.6527L167.705 75.4543C167.099 74.8486 166.117 74.8486 165.512 75.4543L103.454 137.512C102.849 138.117 102.849 139.099 103.454 139.705L117.653 153.903ZM119.847 145.712C119.241 146.318 118.258 146.318 117.652 145.711L111.653 139.704C111.049 139.099 111.049 138.118 111.653 137.512L128.622 120.524C129.227 119.918 130.21 119.918 130.816 120.524L136.824 126.532C137.429 127.137 137.429 128.119 136.824 128.725L119.847 145.712ZM162.839 137.719L165.899 132.139L171.48 129.079L165.899 126.019L162.839 120.439L159.779 126.019L154.199 129.079L159.779 132.139L162.839 137.719Z" fill="url(#paint1_linear_724_122)"/>
<defs>
<linearGradient id="paint0_linear_724_122" x1="103.5" y1="146" x2="-7.90847" y2="73.1517" gradientUnits="userSpaceOnUse">
<stop stop-color="#F9D423"/>
<stop offset="0.515624" stop-color="#FF4E50"/>
<stop offset="0.991304" stop-color="#8A2387"/>
</linearGradient>
<linearGradient id="paint1_linear_724_122" x1="142.679" y1="74.3576" x2="142.679" y2="155" gradientUnits="userSpaceOnUse">
<stop stop-color="#FFA800"/>
<stop offset="1" stop-color="#FFF737"/>
</linearGradient>
</defs>
</svg>
