<svg width="16" height="16" viewBox="0 0 16 16" fill="none" xmlns="http://www.w3.org/2000/svg">
<path fill-rule="evenodd" clip-rule="evenodd" d="M4.26574 2.14802C4.26574 2.14802 4.26574 2.14802 4.26574 2.14802C4.12005 1.90776 3.79348 1.82597 3.54793 1.97487C3.30787 2.12044 3.22602 2.44659 3.37439 2.69206L3.37477 2.69269L3.95262 3.64095C3.98136 3.6881 4.04287 3.70304 4.09003 3.67432L4.81111 3.23522C4.85829 3.20649 4.87324 3.14495 4.8445 3.09778L4.26676 2.1497L4.26574 2.14802C4.26574 2.14802 4.26574 2.14802 4.26574 2.14802V2.14802ZM6.52034 2.22999C6.47349 2.24377 6.42182 2.22713 6.39641 2.18544L5.80488 1.21471L5.8043 1.21375C5.13969 0.118922 3.7046 -0.225205 2.61462 0.435737C1.51904 1.10008 1.1745 2.53569 1.83564 3.62599C1.83564 3.62599 1.83564 3.62599 1.83564 3.62599V3.62599C1.83564 3.62599 1.83564 3.62599 1.83564 3.62599L1.83666 3.62767L2.44272 4.62224C2.46634 4.661 2.46041 4.71046 2.4319 4.74578C2.20014 5.03297 2.16079 5.44593 2.36377 5.77926L3.5525 7.73137C3.5722 7.76374 3.5718 7.80444 3.5522 7.83686C2.901 8.91416 2.83512 10.2712 3.40385 11.4227L3.40457 11.4242L4.85944 14.3907L4.8597 14.3912C5.56013 15.8232 7.28811 16.3353 8.6533 15.4948L13.2179 12.7192L13.2191 12.7184C14.5943 11.886 14.9226 10.1227 13.9818 8.84352L13.98 8.84113L12.0117 6.18365L12.0117 6.1836C11.2636 5.17369 10.0698 4.60986 8.84513 4.66302C8.80813 4.66463 8.77292 4.64635 8.75366 4.61472L7.54247 2.62571C7.32582 2.26994 6.90185 2.11779 6.52034 2.22999ZM4.43073 5.71275C4.40199 5.66556 4.41697 5.60401 4.46417 5.5753L6.39794 4.39919C6.44511 4.37051 6.5066 4.38547 6.53532 4.43262L6.96323 5.13534C6.99196 5.18251 6.977 5.24403 6.92983 5.27276L4.99671 6.44992C4.94954 6.47865 4.88801 6.46369 4.85929 6.41652L4.43073 5.71275ZM10.5653 7.25497C9.97664 6.46037 8.88905 6.20646 7.99761 6.74908L7.997 6.74945L5.75224 8.11338L5.752 8.11353C4.85854 8.65754 4.58453 9.74947 5.01811 10.6264L5.0194 10.629L6.47604 13.5991L6.47653 13.6001C6.71373 14.0853 7.25744 14.2411 7.71068 13.9614L7.71574 13.9583C7.71574 13.9583 7.71575 13.9583 7.71575 13.9583V13.9583C7.71576 13.9583 7.71576 13.9583 7.71577 13.9583L12.2846 11.18L12.2866 11.1788C12.7432 10.9027 12.8552 10.3509 12.5325 9.91111L12.5317 9.91005L10.5653 7.25501L10.5653 7.25497Z" fill="url(#paint0_linear_670_231)"/>
<defs>
<linearGradient id="paint0_linear_670_231" x1="8.0084" y1="15.9006" x2="8.0084" y2="1.02954" gradientUnits="userSpaceOnUse">
<stop stop-color="#18AEFA"/>
<stop offset="1" stop-color="#83E1FF"/>
</linearGradient>
</defs>
</svg>
