<svg width="128" height="128" viewBox="0 0 128 128" fill="none" xmlns="http://www.w3.org/2000/svg">
<path fill-rule="evenodd" clip-rule="evenodd" d="M6 64C6 95.9343 32.0639 122 64 122C95.9343 122 122 95.9361 122 64C122 32.0658 95.9363 6 64 6C32.0658 6 6 32.0637 6 64ZM12.7969 64C12.7969 35.7665 35.7665 12.7969 64 12.7969C92.2336 12.7969 115.203 35.7665 115.203 64C115.203 92.2336 92.2336 115.203 64 115.203C35.7665 115.203 12.7969 92.2336 12.7969 64Z" fill="url(#paint0_linear_1013_867)" stroke="url(#paint1_linear_1013_867)" stroke-width="8"/>
<path d="M51.804 53.2806C51.8788 53.1054 51.9709 52.9394 52.0781 52.7847L74.7675 75.4742C74.6126 75.5813 74.4468 75.6731 74.2723 75.747L74.2703 75.7479L41.4269 89.8233L41.6238 90.2828L41.4269 89.8233C40.3708 90.2759 39.1407 90.0427 38.3263 89.2263L38.3255 89.2255C37.5105 88.4125 37.2739 87.1824 37.7283 86.1255L37.7285 86.125L51.8037 53.2813L51.804 53.2806ZM75.7479 74.2724C75.674 74.4468 75.5822 74.6125 75.4749 74.7674L52.7857 52.0781C52.9408 51.9707 53.1066 51.8786 53.2814 51.8041L53.2823 51.8037L86.1257 37.7285L86.1259 37.7284C87.1854 37.2738 88.4135 37.5106 89.2263 38.3254L89.2272 38.3263C90.042 39.1393 90.2787 40.3693 89.8242 41.4263L89.824 41.4269L75.7488 74.2703L75.7479 74.2724Z" fill="url(#paint2_linear_1013_867)" stroke="url(#paint3_linear_1013_867)"/>
<mask id="path-3-inside-1_1013_867" fill="white">
<path d="M90.2836 41.6238L87.5275 40.4389L87.5261 40.4422L90.2836 41.6238ZM76.2084 74.4673L73.451 73.2855L73.4457 73.2979L76.2084 74.4673ZM89.5804 37.9724L87.4566 40.0911L87.4613 40.096L89.5804 37.9724ZM85.9288 37.269L87.1105 40.0265L87.1118 40.0258L85.9288 37.269ZM53.0854 51.3442L54.2617 54.104L54.2671 54.1017L53.0854 51.3442ZM52.0503 52.0408L49.9448 49.9038L49.4471 50.3941L49.2172 51.054L52.0503 52.0408ZM52.048 52.0475L49.2149 51.0606L48.5958 52.8379L49.9266 54.1688L52.048 52.0475ZM75.505 75.5046L73.3837 77.6259L73.4333 77.6755L73.4852 77.7228L75.505 75.5046ZM75.5074 75.5066L73.4875 77.7248L75.6115 79.6589L77.6358 77.6208L75.5074 75.5066ZM52.048 52.0475L49.1845 51.1511L48.642 52.8843L49.9266 54.1688L52.048 52.0475ZM75.5074 75.5066L77.6205 77.6353L79.7569 75.514L77.6281 73.3852L75.5074 75.5066ZM74.4673 76.2074L73.298 73.4448L73.2856 73.45L74.4673 76.2074ZM37.9724 89.5794L40.0963 87.4607L40.0912 87.4556L37.9724 89.5794ZM37.269 85.9281L40.0251 87.1129L40.0265 87.1098L37.269 85.9281ZM51.3442 53.0844L54.1017 54.266L54.1034 54.2621L51.3442 53.0844ZM52.0503 52.0408L54.9126 52.9367L49.928 49.9197L52.0503 52.0408ZM87.5261 40.4422L73.451 73.2855L78.9659 75.649L93.041 42.8055L87.5261 40.4422ZM87.4613 40.096C87.5511 40.1855 87.5774 40.323 87.5275 40.4389L93.0396 42.8088C94.0605 40.4344 93.5293 37.6748 91.6996 35.8489L87.4613 40.096ZM87.1118 40.0258C87.2316 39.9744 87.3676 40.0019 87.4566 40.0911L91.7043 35.8536C89.8779 34.0227 87.1207 33.4929 84.7457 34.5121L87.1118 40.0258ZM54.2671 54.1017L87.1105 40.0265L84.747 34.5116L51.9036 48.5868L54.2671 54.1017ZM54.1557 54.1779C54.1952 54.139 54.2324 54.1165 54.2617 54.104L51.909 48.5844C51.1599 48.9037 50.4983 49.3586 49.9448 49.9038L54.1557 54.1779ZM54.881 53.0344L54.8833 53.0277L49.2172 51.054L49.2149 51.0606L54.881 53.0344ZM77.626 73.3831L54.1693 49.9262L49.9266 54.1688L73.3837 77.6259L77.626 73.3831ZM77.5272 73.2885L77.5249 73.2864L73.4852 77.7228L73.4875 77.7248L77.5272 73.2885ZM73.4457 73.2979C73.4358 73.3214 73.4154 73.3558 73.3789 73.3926L77.6358 77.6208C78.1877 77.0652 78.6497 76.3961 78.9712 75.6365L73.4457 73.2979ZM77.626 73.3831L54.1693 49.9262L49.9266 54.1688L73.3837 77.6259L77.626 73.3831ZM77.6281 73.3852L77.626 73.3831L73.3837 77.6259L73.3854 77.6278L77.6281 73.3852ZM75.6366 78.9702C76.3962 78.6487 77.0651 78.1867 77.6205 77.6353L73.393 73.3777C73.3559 73.4144 73.3215 73.4349 73.298 73.4448L75.6366 78.9702ZM42.8057 93.0403L75.6491 78.9649L73.2856 73.45L40.4422 87.5254L42.8057 93.0403ZM35.8486 91.6982C37.6807 93.5347 40.4404 94.0541 42.8057 93.0403L40.4422 87.5254C40.3213 87.5772 40.1837 87.5484 40.0963 87.4607L35.8486 91.6982ZM34.513 84.7432C33.4922 87.1175 34.0232 89.8774 35.8537 91.7034L40.0912 87.4556C40.0016 87.3662 39.9753 87.2289 40.0251 87.1129L34.513 84.7432ZM48.5868 51.9026L34.5116 84.7463L40.0265 87.1098L54.1017 54.266L48.5868 51.9026ZM49.928 49.9197C49.3638 50.484 48.905 51.1573 48.5851 51.9067L54.1034 54.2621C54.1195 54.2244 54.1431 54.1897 54.1713 54.1615L49.928 49.9197ZM54.9105 52.9435L54.9126 52.9367L49.1866 51.1443L49.1845 51.1511L54.9105 52.9435Z"/>
</mask>
<path d="M90.2836 41.6238L87.5275 40.4389L87.5261 40.4422L90.2836 41.6238ZM76.2084 74.4673L73.451 73.2855L73.4457 73.2979L76.2084 74.4673ZM89.5804 37.9724L87.4566 40.0911L87.4613 40.096L89.5804 37.9724ZM85.9288 37.269L87.1105 40.0265L87.1118 40.0258L85.9288 37.269ZM53.0854 51.3442L54.2617 54.104L54.2671 54.1017L53.0854 51.3442ZM52.0503 52.0408L49.9448 49.9038L49.4471 50.3941L49.2172 51.054L52.0503 52.0408ZM52.048 52.0475L49.2149 51.0606L48.5958 52.8379L49.9266 54.1688L52.048 52.0475ZM75.505 75.5046L73.3837 77.6259L73.4333 77.6755L73.4852 77.7228L75.505 75.5046ZM75.5074 75.5066L73.4875 77.7248L75.6115 79.6589L77.6358 77.6208L75.5074 75.5066ZM52.048 52.0475L49.1845 51.1511L48.642 52.8843L49.9266 54.1688L52.048 52.0475ZM75.5074 75.5066L77.6205 77.6353L79.7569 75.514L77.6281 73.3852L75.5074 75.5066ZM74.4673 76.2074L73.298 73.4448L73.2856 73.45L74.4673 76.2074ZM37.9724 89.5794L40.0963 87.4607L40.0912 87.4556L37.9724 89.5794ZM37.269 85.9281L40.0251 87.1129L40.0265 87.1098L37.269 85.9281ZM51.3442 53.0844L54.1017 54.266L54.1034 54.2621L51.3442 53.0844ZM52.0503 52.0408L54.9126 52.9367L49.928 49.9197L52.0503 52.0408ZM87.5261 40.4422L73.451 73.2855L78.9659 75.649L93.041 42.8055L87.5261 40.4422ZM87.4613 40.096C87.5511 40.1855 87.5774 40.323 87.5275 40.4389L93.0396 42.8088C94.0605 40.4344 93.5293 37.6748 91.6996 35.8489L87.4613 40.096ZM87.1118 40.0258C87.2316 39.9744 87.3676 40.0019 87.4566 40.0911L91.7043 35.8536C89.8779 34.0227 87.1207 33.4929 84.7457 34.5121L87.1118 40.0258ZM54.2671 54.1017L87.1105 40.0265L84.747 34.5116L51.9036 48.5868L54.2671 54.1017ZM54.1557 54.1779C54.1952 54.139 54.2324 54.1165 54.2617 54.104L51.909 48.5844C51.1599 48.9037 50.4983 49.3586 49.9448 49.9038L54.1557 54.1779ZM54.881 53.0344L54.8833 53.0277L49.2172 51.054L49.2149 51.0606L54.881 53.0344ZM77.626 73.3831L54.1693 49.9262L49.9266 54.1688L73.3837 77.6259L77.626 73.3831ZM77.5272 73.2885L77.5249 73.2864L73.4852 77.7228L73.4875 77.7248L77.5272 73.2885ZM73.4457 73.2979C73.4358 73.3214 73.4154 73.3558 73.3789 73.3926L77.6358 77.6208C78.1877 77.0652 78.6497 76.3961 78.9712 75.6365L73.4457 73.2979ZM77.626 73.3831L54.1693 49.9262L49.9266 54.1688L73.3837 77.6259L77.626 73.3831ZM77.6281 73.3852L77.626 73.3831L73.3837 77.6259L73.3854 77.6278L77.6281 73.3852ZM75.6366 78.9702C76.3962 78.6487 77.0651 78.1867 77.6205 77.6353L73.393 73.3777C73.3559 73.4144 73.3215 73.4349 73.298 73.4448L75.6366 78.9702ZM42.8057 93.0403L75.6491 78.9649L73.2856 73.45L40.4422 87.5254L42.8057 93.0403ZM35.8486 91.6982C37.6807 93.5347 40.4404 94.0541 42.8057 93.0403L40.4422 87.5254C40.3213 87.5772 40.1837 87.5484 40.0963 87.4607L35.8486 91.6982ZM34.513 84.7432C33.4922 87.1175 34.0232 89.8774 35.8537 91.7034L40.0912 87.4556C40.0016 87.3662 39.9753 87.2289 40.0251 87.1129L34.513 84.7432ZM48.5868 51.9026L34.5116 84.7463L40.0265 87.1098L54.1017 54.266L48.5868 51.9026ZM49.928 49.9197C49.3638 50.484 48.905 51.1573 48.5851 51.9067L54.1034 54.2621C54.1195 54.2244 54.1431 54.1897 54.1713 54.1615L49.928 49.9197ZM54.9105 52.9435L54.9126 52.9367L49.1866 51.1443L49.1845 51.1511L54.9105 52.9435Z" fill="url(#paint4_linear_1013_867)"/>
<path d="M49.9266 54.1688L49.573 53.8153L49.2195 54.1688L49.573 54.5224L49.9266 54.1688ZM73.3837 77.6259L73.0301 77.9795L73.3837 78.3331L73.7373 77.9795L73.3837 77.6259ZM77.626 73.3831L77.9796 73.7366L78.333 73.383L77.9795 73.0295L77.626 73.3831ZM40.4422 87.5254L40.9018 87.3285L39.9826 87.7224L40.4422 87.5254ZM54.1693 49.9262L54.5228 49.5726L54.1693 49.219L53.8157 49.5726L54.1693 49.9262ZM50.2801 54.5224L52.4015 52.401L51.6944 51.6939L49.573 53.8153L50.2801 54.5224ZM75.8586 75.8581L77.9796 73.7366L77.2724 73.0295L75.1514 75.151L75.8586 75.8581ZM42.0835 90.0859L40.9018 87.3285L39.9826 87.7224L41.1643 90.4798L42.0835 90.0859ZM77.9795 73.0295L54.5228 49.5726L53.8157 50.2797L77.2724 73.7366L77.9795 73.0295ZM53.8157 49.5726L49.573 53.8153L50.2801 54.5224L54.5228 50.2797L53.8157 49.5726ZM49.573 54.5224L73.0301 77.9795L73.7372 77.2724L50.2801 53.8153L49.573 54.5224ZM73.7373 77.9795L77.9796 73.7366L77.2724 73.0295L73.0301 77.2724L73.7373 77.9795ZM39.9826 87.7224L42.3461 93.2373L43.2653 92.8434L40.9018 87.3285L39.9826 87.7224ZM90.2836 41.6238L89.8897 42.543L90.6786 40.7052L90.2836 41.6238ZM87.5275 40.4389L86.609 40.0434L86.6065 40.0492L87.5275 40.4389ZM76.2084 74.4673L75.8186 75.3882L76.6023 73.5481L76.2084 74.4673ZM73.451 73.2855L72.5318 72.8916L72.5313 72.8928L73.451 73.2855ZM73.4457 73.2979L72.526 72.9052L72.5241 72.9097L73.4457 73.2979ZM89.5804 37.9724L90.2882 38.6787L88.8741 37.2644L89.5804 37.9724ZM87.4613 40.096L86.7465 40.7954L86.7554 40.8042L87.4613 40.096ZM85.9288 37.269L86.8478 36.8746L85.0096 37.6628L85.9288 37.269ZM87.1105 40.0265L87.5044 40.9456L87.5172 40.9401L87.5299 40.9343L87.1105 40.0265ZM53.0854 51.3442L54.0045 50.9503L52.1655 51.7362L53.0854 51.3442ZM54.2671 54.1017L54.6591 55.0216L54.661 55.0208L54.2671 54.1017ZM52.0503 52.0408L51.7213 52.9852L51.7364 52.9904L51.7516 52.9952L52.0503 52.0408ZM49.9448 49.9038L49.243 49.1913L49.2429 49.1914L49.9448 49.9038ZM49.4471 50.3941L48.7452 49.6818L48.5794 49.8453L48.5028 50.0651L49.4471 50.3941ZM49.2172 51.054L48.2729 50.7249L48.2727 50.7253L49.2172 51.054ZM52.048 52.0475L51.7492 53.0018L52.3769 51.1031L52.048 52.0475ZM48.5958 52.8379L47.6514 52.509L47.4451 53.1014L47.8886 53.545L48.5958 52.8379ZM49.9266 54.1688L49.2195 54.876L50.6337 53.4618L49.9266 54.1688ZM75.505 75.5046L76.2444 76.1778L74.7979 74.7975L75.505 75.5046ZM73.3837 77.6259L72.6766 76.9189L71.9892 77.6062L72.6568 78.3128L73.3837 77.6259ZM73.4333 77.6755L72.7262 78.3827L72.7429 78.3994L72.7605 78.4154L73.4333 77.6755ZM75.5074 75.5066L74.8001 74.7997L74.7837 74.8161L74.768 74.8334L75.5074 75.5066ZM73.4875 77.7248L72.813 78.4631L72.8142 78.4642L73.4875 77.7248ZM75.6115 79.6589L74.9382 80.3983L75.6462 81.043L76.321 80.3636L75.6115 79.6589ZM49.1845 51.1511L48.2303 50.8518L48.2301 50.8524L49.1845 51.1511ZM48.642 52.8843L47.6876 52.5857L47.5068 53.1634L47.9349 53.5915L48.642 52.8843ZM77.6205 77.6353L78.325 78.345L78.3251 78.345L77.6205 77.6353ZM79.7569 75.514L80.4615 76.2237L81.1736 75.5166L80.464 74.807L79.7569 75.514ZM77.6281 73.3852L78.3352 72.6781L78.3352 72.678L77.6281 73.3852ZM74.4673 76.2074L73.5481 76.6014L75.3882 75.8177L74.4673 76.2074ZM73.298 73.4448L72.9097 72.5232L72.9052 72.5251L73.298 73.4448ZM73.2856 73.45L72.8928 72.5304L72.8917 72.5309L73.2856 73.45ZM40.4422 87.5254L40.836 88.4446L40.8361 88.4446L40.4422 87.5254ZM37.9724 89.5794L37.2644 88.8732L38.6786 90.2874L37.9724 89.5794ZM40.0963 87.4607L40.8046 86.7547L40.7967 86.7469L40.0963 87.4607ZM37.269 85.9281L37.6629 85.0089L36.874 86.8467L37.269 85.9281ZM40.0265 87.1098L40.9425 87.5109L40.9456 87.5037L40.0265 87.1098ZM51.3442 53.0844L51.7367 52.1646L50.9503 54.0035L51.3442 53.0844ZM54.1017 54.266L55.0208 54.66L55.0221 54.6569L54.1017 54.266ZM54.9126 52.9367L55.8669 53.2355L56.1011 52.4872L55.4304 52.0813L54.9126 52.9367ZM49.928 49.9197L50.4458 49.0642L49.7751 48.6582L49.2208 49.2126L49.928 49.9197ZM78.9659 75.649L78.572 76.5681L79.4911 76.962L79.885 76.0429L78.9659 75.649ZM93.041 42.8055L93.9601 43.1995L94.354 42.2803L93.4349 41.8864L93.041 42.8055ZM93.0396 42.8088L92.6446 43.7275L93.5633 44.1225L93.9583 43.2038L93.0396 42.8088ZM91.6996 35.8489L92.406 35.141L91.6981 34.4346L90.9917 35.1425L91.6996 35.8489ZM91.7043 35.8536L92.4105 36.5616L93.1185 35.8554L92.4123 35.1474L91.7043 35.8536ZM84.7457 34.5121L84.3513 33.5932L83.4324 33.9875L83.8267 34.9065L84.7457 34.5121ZM84.747 34.5116L85.6661 34.1176L85.2722 33.1985L84.3531 33.5924L84.747 34.5116ZM51.9036 48.5868L51.5097 47.6676L50.5905 48.0615L50.9844 48.9807L51.9036 48.5868ZM54.1557 54.1779L53.4433 54.8798L54.145 55.592L54.8574 54.8904L54.1557 54.1779ZM51.909 48.5844L52.8289 48.1923L52.4368 47.2724L51.5169 47.6645L51.909 48.5844ZM54.881 53.0344L54.552 53.9787L55.4964 54.3077L55.8253 53.3633L54.881 53.0344ZM54.8833 53.0277L55.8276 53.3567L56.1566 52.4124L55.2122 52.0834L54.8833 53.0277ZM77.5272 73.2885L78.2666 73.9618L78.9387 73.2237L78.2017 72.5503L77.5272 73.2885ZM77.5249 73.2864L78.1994 72.5482L77.4599 71.8726L76.7855 72.6132L77.5249 73.2864ZM73.3789 73.3926L72.6689 72.6883L71.9652 73.3978L72.6742 74.102L73.3789 73.3926ZM78.9712 75.6365L79.8921 76.0263L80.2819 75.1054L79.3609 74.7156L78.9712 75.6365ZM73.3854 77.6278L72.6585 78.3146L73.3651 79.0623L74.0925 78.3349L73.3854 77.6278ZM75.6366 78.9702L74.7157 79.36L75.1054 80.2809L76.0264 79.8912L75.6366 78.9702ZM73.393 73.3777L74.1026 72.6731L73.3993 71.9648L72.6897 72.6667L73.393 73.3777ZM42.8057 93.0403L42.4118 92.1212L42.4117 92.1212L42.8057 93.0403ZM75.6491 78.9649L76.043 79.8841L76.9621 79.4902L76.5682 78.571L75.6491 78.9649ZM35.8486 91.6982L35.1423 90.9903L34.4344 91.6966L35.1406 92.4045L35.8486 91.6982ZM34.513 84.7432L34.908 83.8245L33.9893 83.4295L33.5943 84.3482L34.513 84.7432ZM35.8537 91.7034L35.1474 92.4113L35.8554 93.1175L36.5616 92.4096L35.8537 91.7034ZM48.5868 51.9026L48.9807 50.9835L48.0615 50.5896L47.6676 51.5087L48.5868 51.9026ZM34.5116 84.7463L33.5924 84.3524L33.1985 85.2716L34.1177 85.6655L34.5116 84.7463ZM48.5851 51.9067L47.6654 51.514L47.2728 52.4338L48.1925 52.8264L48.5851 51.9067ZM54.1713 54.1615L54.8784 54.8687L55.5856 54.1614L54.8783 53.4543L54.1713 54.1615ZM54.9105 52.9435L54.6117 53.8978L55.5661 54.1965L55.8648 53.2422L54.9105 52.9435ZM49.1866 51.1443L49.4853 50.19L48.5315 49.8914L48.2324 50.8451L49.1866 51.1443ZM90.6786 40.7052L87.9225 39.5202L87.1325 41.3575L89.8886 42.5425L90.6786 40.7052ZM86.6065 40.0492L86.6051 40.0525L88.447 40.8318L88.4484 40.8285L86.6065 40.0492ZM87.1322 41.3613L89.8897 42.543L90.6775 40.7047L87.92 39.523L87.1322 41.3613ZM76.6023 73.5481L73.8449 72.3664L73.0571 74.2047L75.8145 75.3864L76.6023 73.5481ZM72.5313 72.8928L72.526 72.9052L74.3653 73.6907L74.3706 73.6783L72.5313 72.8928ZM73.0559 74.2189L75.8186 75.3882L76.5982 73.5463L73.8355 72.377L73.0559 74.2189ZM88.8741 37.2644L86.7503 39.3832L88.1628 40.7991L90.2867 38.6803L88.8741 37.2644ZM86.7418 40.7905L86.7465 40.7954L88.176 39.3965L88.1713 39.3917L86.7418 40.7905ZM88.1691 40.8023L90.2882 38.6787L88.8725 37.266L86.7534 39.3896L88.1691 40.8023ZM85.0096 37.6628L86.1913 40.4203L88.0296 39.6326L86.8479 36.8751L85.0096 37.6628ZM87.5299 40.9343L87.5312 40.9337L86.6924 39.118L86.6911 39.1186L87.5299 40.9343ZM88.0307 39.6315L86.8478 36.8746L85.0098 37.6633L86.1928 40.4202L88.0307 39.6315ZM52.1655 51.7362L53.3418 54.496L55.1816 53.7119L54.0053 50.9521L52.1655 51.7362ZM54.6537 55.0239L54.6591 55.0216L53.875 53.1817L53.8696 53.184L54.6537 55.0239ZM55.1862 53.7078L54.0045 50.9503L52.1662 51.738L53.3479 54.4955L55.1862 53.7078ZM52.7626 51.339L50.6571 49.2019L49.2324 50.6056L51.3379 52.7427L52.7626 51.339ZM49.2429 49.1914L48.7452 49.6818L50.1489 51.1065L50.6466 50.6161L49.2429 49.1914ZM48.5028 50.0651L48.2729 50.7249L50.1615 51.383L50.3914 50.7232L48.5028 50.0651ZM48.8882 51.9983L51.7213 52.9852L52.3792 51.0965L49.5461 50.1096L48.8882 51.9983ZM52.3769 51.1031L49.5438 50.1162L48.8859 52.0049L51.719 52.9918L52.3769 51.1031ZM48.2705 50.7316L47.6514 52.509L49.5401 53.1669L50.1592 51.3895L48.2705 50.7316ZM47.8886 53.545L49.2194 54.8759L50.6337 53.4618L49.3029 52.1309L47.8886 53.545ZM74.7979 74.7975L72.6766 76.9189L74.0908 78.333L76.2121 76.2116L74.7979 74.7975ZM72.6766 78.3331L72.7262 78.3827L74.1404 76.9684L74.0908 76.9188L72.6766 78.3331ZM72.7605 78.4154L72.8124 78.4626L74.158 76.9829L74.1061 76.9357L72.7605 78.4154ZM74.2246 78.396L76.2444 76.1778L74.7656 74.8313L72.7458 77.0495L74.2246 78.396ZM74.768 74.8334L72.7481 77.0516L74.2269 78.3981L76.2468 76.1799L74.768 74.8334ZM72.8142 78.4642L74.9382 80.3983L76.2848 78.9196L74.1608 76.9855L72.8142 78.4642ZM76.321 80.3636L78.3453 78.3255L76.9263 76.9161L74.902 78.9542L76.321 80.3636ZM78.3405 76.9114L76.2121 74.7972L74.8026 76.2161L76.931 78.3303L78.3405 76.9114ZM52.3467 51.0931L49.4832 50.1967L48.8857 52.1054L51.7492 53.0018L52.3467 51.0931ZM48.2301 50.8524L47.6876 52.5857L49.5963 53.183L50.1388 51.4497L48.2301 50.8524ZM47.9349 53.5915L49.2195 54.876L50.6337 53.4617L49.3491 52.1772L47.9349 53.5915ZM74.7977 76.2112L76.9108 78.3399L78.3302 76.9308L76.2171 74.8021L74.7977 76.2112ZM78.3251 78.345L80.4615 76.2237L79.0523 74.8044L76.9159 76.9257L78.3251 78.345ZM80.464 74.807L78.3352 72.6781L76.921 74.0922L79.0498 76.2211L80.464 74.807ZM76.9208 72.6782L74.8001 74.7997L76.2146 76.2136L78.3353 74.0921L76.9208 72.6782ZM75.3882 75.8177L74.2189 73.055L72.3771 73.8345L73.5464 76.5972L75.3882 75.8177ZM72.9052 72.5251L72.8928 72.5304L73.6783 74.3697L73.6907 74.3644L72.9052 72.5251ZM72.3664 73.844L73.5481 76.6014L75.3864 75.8135L74.2047 73.0561L72.3664 73.844ZM38.6786 90.2874L40.8025 88.1686L39.39 86.7527L37.2661 88.8715L38.6786 90.2874ZM40.7967 86.7469L40.7916 86.7419L39.3908 88.1694L39.3959 88.1744L40.7967 86.7469ZM39.3832 86.7494L37.2644 88.8732L38.6803 90.2857L40.7991 88.1619L39.3832 86.7494ZM36.874 86.8467L39.6301 88.0316L40.42 86.1943L37.6639 85.0094L36.874 86.8467ZM40.9411 87.5141L40.9425 87.5109L39.1105 86.7086L39.1091 86.7118L40.9411 87.5141ZM40.4204 86.1906L37.6629 85.0089L36.8751 86.8472L39.6326 88.0289L40.4204 86.1906ZM50.9503 54.0035L53.7078 55.1852L54.4956 53.3469L51.7381 52.1652L50.9503 54.0035ZM55.0221 54.6569L55.0238 54.6529L53.1829 53.8712L53.1812 53.8752L55.0221 54.6569ZM54.4959 53.3423L51.7367 52.1646L50.9516 54.0041L53.7108 55.1818L54.4959 53.3423ZM51.7516 52.9952L54.6139 53.8911L55.2113 51.9824L52.349 51.0865L51.7516 52.9952ZM55.4304 52.0813L50.4458 49.0642L49.4102 50.7751L54.3948 53.7922L55.4304 52.0813ZM49.2211 50.6269L51.3434 52.7481L52.7572 51.3336L50.6349 49.2124L49.2211 50.6269ZM86.6069 40.0482L72.5318 72.8916L74.3701 73.6795L88.4452 40.8361L86.6069 40.0482ZM73.0571 74.2047L78.572 76.5681L79.3598 74.7298L73.8449 72.3664L73.0571 74.2047ZM79.885 76.0429L93.9601 43.1995L92.1218 42.4116L78.0467 75.255L79.885 76.0429ZM93.4349 41.8864L87.92 39.523L87.1322 41.3613L92.6471 43.7247L93.4349 41.8864ZM86.7554 40.8042C86.5546 40.6042 86.4967 40.3041 86.609 40.0434L88.446 40.8343C88.658 40.3418 88.5475 39.7667 88.1672 39.3877L86.7554 40.8042ZM87.1325 41.3575L92.6446 43.7275L93.4346 41.8902L87.9225 39.5202L87.1325 41.3575ZM93.9583 43.2038C95.141 40.453 94.5257 37.2563 92.406 35.141L90.9932 36.5567C92.5329 38.0932 92.98 40.4159 92.1209 42.4139L93.9583 43.2038ZM90.9917 35.1425L86.7534 39.3896L88.1691 40.8023L92.4074 36.5552L90.9917 35.1425ZM87.5061 40.9448C87.2495 41.0549 86.9488 40.9981 86.7487 40.7975L88.1645 39.3848C87.7863 39.0058 87.2137 38.894 86.7175 39.1069L87.5061 40.9448ZM88.1628 40.7991L92.4105 36.5616L90.998 35.1457L86.7503 39.3832L88.1628 40.7991ZM92.4123 35.1474C90.2962 33.0262 87.1021 32.4127 84.3513 33.5932L85.14 35.4311C87.1392 34.5732 89.4595 35.0193 90.9963 36.5599L92.4123 35.1474ZM83.8267 34.9065L86.1928 40.4202L88.0307 39.6315L85.6646 34.1178L83.8267 34.9065ZM54.661 55.0208L87.5044 40.9456L86.7166 39.1073L53.8732 53.1825L54.661 55.0208ZM88.0296 39.6325L85.6661 34.1176L83.8278 34.9055L86.1913 40.4204L88.0296 39.6325ZM84.3531 33.5924L51.5097 47.6676L52.2975 49.5059L85.1409 35.4307L84.3531 33.5924ZM50.9844 48.9807L53.3479 54.4956L55.1862 53.7077L52.8227 48.1928L50.9844 48.9807ZM54.8574 54.8904C54.8105 54.9366 54.7436 54.9856 54.6541 55.0237L53.8693 53.1842C53.7212 53.2473 53.5798 53.3415 53.454 53.4655L54.8574 54.8904ZM55.1816 53.7118L52.8289 48.1923L50.9891 48.9766L53.3418 54.4961L55.1816 53.7118ZM51.5169 47.6645C50.6478 48.035 49.8821 48.5618 49.243 49.1913L50.6465 50.6162C51.1144 50.1553 51.672 49.7725 52.3011 49.5044L51.5169 47.6645ZM49.2324 50.6056L53.4433 54.8798L54.868 53.4761L50.6571 49.2019L49.2324 50.6056ZM55.8253 53.3633L55.8276 53.3567L53.9389 52.6988L53.9366 52.7054L55.8253 53.3633ZM55.2122 52.0834L49.5461 50.1096L48.8882 51.9983L54.5543 53.9721L55.2122 52.0834ZM48.2727 50.7253L48.2704 50.7319L50.1593 51.3892L50.1616 51.3826L48.2727 50.7253ZM48.8859 52.0049L54.552 53.9787L55.2099 52.09L49.5438 50.1162L48.8859 52.0049ZM78.2017 72.5503L78.1994 72.5482L76.8504 74.0247L76.8527 74.0268L78.2017 72.5503ZM76.7855 72.6132L72.7458 77.0495L74.2246 78.396L78.2643 73.9597L76.7855 72.6132ZM72.8107 78.461L72.813 78.4631L74.162 76.9866L74.1597 76.9845L72.8107 78.461ZM74.2269 78.3981L78.2666 73.9618L76.7878 72.6153L72.7481 77.0516L74.2269 78.3981ZM72.5241 72.9097C72.5664 72.8094 72.6199 72.7377 72.6689 72.6883L74.0889 74.0968C74.2108 73.9738 74.3052 73.8335 74.3672 73.6862L72.5241 72.9097ZM72.6742 74.102L76.9311 78.3303L78.3405 76.9114L74.0836 72.6831L72.6742 74.102ZM78.3452 78.3256C78.983 77.6835 79.5187 76.9086 79.8921 76.0263L78.0503 75.2468C77.7807 75.8837 77.3923 76.447 76.9263 76.9161L78.3452 78.3256ZM79.3609 74.7156L73.8354 72.377L73.0559 74.2189L78.5814 76.5575L79.3609 74.7156ZM78.3352 72.678L78.3331 72.6759L76.9189 74.0902L76.921 74.0923L78.3352 72.678ZM72.6568 78.3128L72.6585 78.3146L74.1122 76.9409L74.1105 76.9391L72.6568 78.3128ZM74.0925 78.3349L78.3352 74.0923L76.921 72.678L72.6783 76.9206L74.0925 78.3349ZM76.0264 79.8912C76.9087 79.5177 77.6833 78.9821 78.325 78.345L76.9159 76.9257C76.4469 77.3914 75.8837 77.7798 75.2468 78.0493L76.0264 79.8912ZM78.3301 76.9308L74.1026 72.6731L72.6834 74.0822L76.9109 78.3399L78.3301 76.9308ZM72.6897 72.6667C72.7376 72.6194 72.8087 72.5658 72.9097 72.5232L73.6862 74.3663C73.8343 74.3039 73.9742 74.2094 74.0962 74.0886L72.6897 72.6667ZM72.3771 73.8345L74.7157 79.36L76.5575 78.5805L74.2189 73.055L72.3771 73.8345ZM43.1996 93.9595L76.043 79.8841L75.2552 78.0458L42.4118 92.1212L43.1996 93.9595ZM76.5682 78.571L74.2047 73.0561L72.3664 73.844L74.7299 79.3589L76.5682 78.571ZM72.8917 72.5309L40.0483 86.6063L40.8361 88.4446L73.6795 74.3692L72.8917 72.5309ZM35.1406 92.4045C37.2636 94.5326 40.4604 95.1336 43.1996 93.9595L42.4117 92.1212C40.4204 92.9747 38.0978 92.5369 36.5565 90.992L35.1406 92.4045ZM40.0484 86.6063C40.3042 86.4966 40.6032 86.5527 40.8046 86.7548L39.388 88.1665C39.7641 88.544 40.3383 88.6579 40.836 88.4446L40.0484 86.6063ZM39.39 86.7527L35.1423 90.9903L36.5548 92.4062L40.8025 88.1686L39.39 86.7527ZM33.5943 84.3482C32.4117 87.0988 33.0268 90.2959 35.1474 92.4113L36.5599 90.9954C35.0196 89.4588 34.5727 87.1361 35.4317 85.1381L33.5943 84.3482ZM36.5616 92.4096L40.7991 88.1619L39.3832 86.7494L35.1457 90.9971L36.5616 92.4096ZM40.7975 86.7478C40.9982 86.948 41.0555 87.2476 40.944 87.5074L39.1062 86.7185C38.895 87.2103 39.005 87.7845 39.3849 88.1635L40.7975 86.7478ZM40.4201 86.1943L34.908 83.8245L34.118 85.6618L39.6301 88.0316L40.4201 86.1943ZM47.6676 51.5087L33.5924 84.3524L35.4307 85.1403L49.5059 52.2966L47.6676 51.5087ZM34.1177 85.6655L39.6326 88.0289L40.4204 86.1906L34.9055 83.8272L34.1177 85.6655ZM40.9456 87.5037L55.0208 54.66L53.1825 53.8721L39.1073 86.7158L40.9456 87.5037ZM54.4956 53.3469L48.9807 50.9835L48.1929 52.8218L53.7078 55.1852L54.4956 53.3469ZM49.2208 49.2126C48.5672 49.8663 48.0359 50.6461 47.6654 51.514L49.5048 52.2993C49.7741 51.6684 50.1603 51.1016 50.6351 50.6267L49.2208 49.2126ZM48.1925 52.8264L53.7108 55.1818L54.4959 53.3423L48.9776 50.9869L48.1925 52.8264ZM55.023 54.6548C54.9886 54.7355 54.9397 54.8074 54.8784 54.8687L53.4642 53.4544C53.3465 53.5721 53.2504 53.7132 53.1837 53.8693L55.023 54.6548ZM54.8783 53.4543L50.635 49.2124L49.221 50.6269L53.4643 54.8688L54.8783 53.4543ZM55.8648 53.2422L55.8669 53.2355L53.9582 52.638L53.9561 52.6447L55.8648 53.2422ZM55.2113 51.9824L49.4853 50.19L48.8878 52.0987L54.6138 53.8911L55.2113 51.9824ZM48.2324 50.8451L48.2303 50.8518L50.1387 51.4503L50.1408 51.4436L48.2324 50.8451ZM48.8857 52.1054L54.6117 53.8978L55.2092 51.9891L49.4832 50.1967L48.8857 52.1054Z" fill="url(#paint5_linear_1013_867)" mask="url(#path-3-inside-1_1013_867)"/>
<defs>
<linearGradient id="paint0_linear_1013_867" x1="67.2178" y1="60.7197" x2="106.209" y2="17.3976" gradientUnits="userSpaceOnUse">
<stop stop-color="#7700D5"/>
<stop offset="1" stop-color="#BD00FF"/>
</linearGradient>
<linearGradient id="paint1_linear_1013_867" x1="101.008" y1="6.00001" x2="5.9999" y2="122" gradientUnits="userSpaceOnUse">
<stop stop-color="#DE00C0"/>
<stop offset="1" stop-color="#8720FF"/>
</linearGradient>
<linearGradient id="paint2_linear_1013_867" x1="80.8612" y1="37" x2="37.0013" y2="90.5525" gradientUnits="userSpaceOnUse">
<stop stop-color="#DE00C0"/>
<stop offset="1" stop-color="#8720FF"/>
</linearGradient>
<linearGradient id="paint3_linear_1013_867" x1="80.8612" y1="37" x2="37.0013" y2="90.5525" gradientUnits="userSpaceOnUse">
<stop stop-color="#DE00C0"/>
<stop offset="1" stop-color="#8720FF"/>
</linearGradient>
<linearGradient id="paint4_linear_1013_867" x1="82.7754" y1="34" x2="34.0014" y2="93.5526" gradientUnits="userSpaceOnUse">
<stop stop-color="#DE00C0"/>
<stop offset="1" stop-color="#8720FF"/>
</linearGradient>
<linearGradient id="paint5_linear_1013_867" x1="82.7754" y1="34" x2="34.0014" y2="93.5526" gradientUnits="userSpaceOnUse">
<stop stop-color="#DE00C0"/>
<stop offset="1" stop-color="#8720FF"/>
</linearGradient>
</defs>
</svg>
