<svg width="128" height="128" viewBox="0 0 128 128" fill="none" xmlns="http://www.w3.org/2000/svg">
<path d="M38.375 6C24.3607 6 13 17.3608 13 31.375C13 45.3892 24.3607 56.75 38.375 56.75C40.2629 56.742 42.1436 56.5238 43.9822 56.099L56.5 74.875C40.1875 100.25 63.75 122 63.75 122C63.75 122 87.3125 100.25 71 74.875L83.5352 56.099C85.3695 56.5224 87.24 56.7413 89.125 56.75C103.139 56.75 114.5 45.3892 114.5 31.375C114.5 17.3608 103.139 6 89.125 6C75.1107 6 63.75 17.3608 63.75 31.375C63.7587 37.2191 65.7844 42.8808 69.4849 47.404L63.7501 56.75L58.0299 47.4185C61.7274 42.8895 63.75 37.2221 63.75 31.375C63.75 17.3608 52.3892 6 38.375 6ZM38.375 20.5C44.3809 20.5 49.25 25.3691 49.25 31.375C49.25 37.3809 44.3809 42.25 38.375 42.25C32.3691 42.25 27.5 37.3809 27.5 31.375C27.5 25.3691 32.3691 20.5 38.375 20.5ZM89.125 20.5C95.128 20.5 100 25.3691 100 31.375C100 37.3809 95.128 42.25 89.125 42.25C83.122 42.25 78.25 37.3809 78.25 31.375C78.25 25.3691 83.122 20.5 89.125 20.5Z" fill="url(#paint0_linear_720_6)"/>
<defs>
<linearGradient id="paint0_linear_720_6" x1="11.5329" y1="7.14143" x2="130.537" y2="114.455" gradientUnits="userSpaceOnUse">
<stop stop-color="#F9D423"/>
<stop offset="0.515624" stop-color="#FF4E50"/>
<stop offset="0.991304" stop-color="#8A2387"/>
</linearGradient>
</defs>
</svg>
