<svg width="128" height="128" viewBox="0 0 128 128" fill="none" xmlns="http://www.w3.org/2000/svg">
<path d="M31.375 10C24.6451 10 18.1909 12.6734 13.4322 17.4322C8.67343 22.1909 6 28.6451 6 35.375C6 42.1049 8.67343 48.5591 13.4322 53.3178C18.1909 58.0766 24.6451 60.75 31.375 60.75C35.0752 60.7426 38.729 59.926 42.0804 58.3575L53.125 71.625L13.25 118.75L64 82.5L114.75 118.75L74.875 71.625L85.9167 58.343C89.2678 59.9169 92.9227 60.7385 96.625 60.75C103.355 60.75 109.809 58.0766 114.568 53.3178C119.327 48.5591 122 42.1049 122 35.375C121.995 35.3136 121.991 35.2522 121.986 35.1908C121.986 35.048 121.978 34.9088 121.971 34.766C121.939 33.6224 121.83 32.4823 121.645 31.3534C121.514 30.4871 121.311 29.6417 121.094 28.7905C120.966 28.2907 120.824 27.7948 120.666 27.3036C120.209 25.8927 119.607 24.5384 118.897 23.2117C117.78 21.1229 116.468 19.114 114.721 17.3493C110.835 13.4285 105.985 11.1528 100.946 10.3683C100.881 10.3586 100.816 10.3492 100.75 10.34C99.6443 10.1625 98.5277 10.0583 97.408 10.0283C97.321 10.0276 97.234 10 97.147 10C97.1035 10 97.06 10.0138 97.0238 10.0145C96.8933 10.0087 96.7628 10.0038 96.6323 10C89.9024 10 83.4481 12.6734 78.6894 17.4322C73.9307 22.1909 71.2573 28.6451 71.2573 35.375C71.2663 39.3682 72.2177 43.3028 74.034 46.859L64.0073 60.75L53.9921 46.8873C55.8087 43.3216 56.7562 39.3768 56.7572 35.375C56.7572 32.0424 56.1008 28.7424 54.8253 25.6636C53.5499 22.5847 51.6805 19.7872 49.3238 17.4309C46.9671 15.0746 44.1694 13.2055 41.0903 11.9305C38.0113 10.6555 34.7076 9.99952 31.375 10ZM31.375 24.5C34.2592 24.5 37.0253 25.6458 39.0648 27.6852C41.1042 29.7247 42.25 32.4908 42.25 35.375C42.25 38.2592 41.1042 41.0253 39.0648 43.0648C37.0253 45.1042 34.2592 46.25 31.375 46.25C28.4908 46.25 25.7247 45.1042 23.6852 43.0648C21.6458 41.0253 20.5 38.2592 20.5 35.375C20.5 32.4908 21.6458 29.7247 23.6852 27.6852C25.7247 25.6458 28.4908 24.5 31.375 24.5ZM96.625 24.5C99.5092 24.5 102.275 25.6458 104.315 27.6852C106.354 29.7247 107.5 32.4908 107.5 35.375C107.5 38.2592 106.354 41.0253 104.315 43.0648C102.275 45.1042 99.5092 46.25 96.625 46.25C93.7408 46.25 90.9747 45.1042 88.9352 43.0648C86.8958 41.0253 85.75 38.2592 85.75 35.375C85.75 32.4908 86.8958 29.7247 88.9352 27.6852C90.9747 25.6458 93.7408 24.5 96.625 24.5Z" fill="url(#paint0_linear_720_3)"/>
<defs>
<linearGradient id="paint0_linear_720_3" x1="6" y1="64.375" x2="122" y2="64.375" gradientUnits="userSpaceOnUse">
<stop stop-color="#02AA93"/>
<stop offset="1" stop-color="#67FF80"/>
</linearGradient>
</defs>
</svg>
