<svg width="16" height="16" viewBox="0 0 16 16" fill="none" xmlns="http://www.w3.org/2000/svg">
<path d="M9.88359 2.43543C10.7646 2.86221 11.4885 3.57565 11.9462 4.46819C12.9354 4.65608 13.8212 5.22254 14.4295 6.05616C15.0379 6.88976 15.3246 7.93021 15.2334 8.97286C15.1424 10.0155 14.6798 10.9849 13.9368 11.6904C13.6618 11.9515 13.5123 12.1034 13.3794 12.2265C13.2571 12.3397 13.0648 12.2861 13.0045 12.1308L12.8933 11.8439C12.8484 11.7283 12.8956 11.5981 12.9994 11.53C13.4093 11.2607 13.7588 10.9011 14.0225 10.4756C14.3249 9.98775 14.5051 9.42869 14.5468 8.84958C14.5884 8.27045 14.4899 7.68971 14.2603 7.16044C14.0308 6.63116 13.6775 6.17021 13.2327 5.81971C12.788 5.4692 12.2662 5.24033 11.7146 5.15396C11.163 5.06761 10.5995 5.12654 10.0755 5.32536C9.55149 5.5242 9.08366 5.85659 8.71479 6.29218C8.68531 6.32939 8.64897 6.36006 8.60787 6.38234C8.5668 6.40463 8.52184 6.41809 8.47565 6.4219C8.42947 6.4257 8.38304 6.41981 8.33909 6.40454C8.29515 6.38929 8.2546 6.36498 8.21986 6.33305C8.18514 6.30114 8.15692 6.26226 8.13692 6.21876C8.11691 6.17526 8.10551 6.12801 8.10342 6.07983C8.10131 6.03164 8.10855 5.9835 8.12467 5.93829C8.14081 5.89308 8.16552 5.85171 8.19732 5.81664C8.56309 5.38619 9.00986 5.03855 9.50998 4.7953C10.0101 4.55205 10.5528 4.41836 11.1046 4.40251C10.5484 3.5785 9.71121 3.00651 8.76385 2.80323C7.81648 2.59994 6.8303 2.78066 6.00654 3.30854C5.18276 3.83643 4.58344 4.67169 4.33086 5.64391C4.07829 6.61614 4.19149 7.65209 4.64734 8.54039C4.6688 8.582 4.68219 8.6276 4.68672 8.6746C4.69126 8.72159 4.68686 8.76906 4.67377 8.81429C4.6607 8.85951 4.63919 8.90161 4.61047 8.93818C4.58177 8.97475 4.54642 9.00508 4.50647 9.02743C4.46651 9.04978 4.42271 9.06371 4.37757 9.06843C4.33244 9.07315 4.28685 9.06858 4.24342 9.05495C4.19999 9.04133 4.15955 9.01893 4.12444 8.98904C4.08931 8.95915 4.06019 8.92235 4.03872 8.88073C3.75211 8.31841 3.57914 7.70093 3.53046 7.06634C2.9223 7.1489 2.36721 7.4697 1.9782 7.9634C1.58919 8.45711 1.39551 9.08665 1.43657 9.72381C1.47765 10.361 1.75039 10.9579 2.19926 11.3931C2.5866 11.7686 3.07996 11.9993 3.60202 12.0537C3.73979 12.0681 3.85274 12.1788 3.85274 12.3173V12.5348C3.85274 12.673 3.74034 12.7861 3.60261 12.7743C2.89889 12.714 2.23299 12.4055 1.71741 11.8955C1.14111 11.3256 0.796467 10.5473 0.754366 9.72085C0.712265 8.89438 0.97591 8.08254 1.49107 7.45228C2.00625 6.82203 2.73376 6.42126 3.52401 6.33244C3.59342 5.32324 3.97601 4.36488 4.61411 3.60183C5.25221 2.83876 6.11124 2.31238 7.0617 2.10198C8.01216 1.8916 9.00256 2.00863 9.88359 2.43543Z" stroke="url(#paint0_linear_595_78)"/>
<path d="M6.76855 9.625C5.68124 9.625 4.7998 10.5064 4.7998 11.5937C4.7998 12.6811 5.68124 13.5625 6.76855 13.5625C7.54835 13.5613 8.24847 13.101 8.56279 12.398C8.60181 12.3107 8.68582 12.2499 8.78142 12.2498L9.82373 12.2485C9.94854 12.2484 10.0498 12.3496 10.0498 12.4743V12.8975C10.0498 13.0221 10.1509 13.1233 10.2756 13.1233H11.1365C11.2612 13.1233 11.3623 13.0221 11.3623 12.8975V12.4653C11.3623 12.3446 11.4604 12.247 11.5811 12.2474C11.7017 12.2479 11.7998 12.1502 11.7998 12.0295V11.1617C11.7998 11.037 11.6986 10.9358 11.5739 10.9359L8.78171 10.9374C8.68597 10.9375 8.60176 10.8766 8.56267 10.7892C8.24829 10.0864 7.54825 9.62611 6.76855 9.625ZM6.76855 10.9375C7.131 10.9375 7.4248 11.2313 7.4248 11.5937C7.4248 11.9562 7.131 12.25 6.76855 12.25C6.40611 12.25 6.1123 11.9562 6.1123 11.5937C6.1123 11.2313 6.40611 10.9375 6.76855 10.9375Z" fill="url(#paint1_linear_595_78)"/>
<defs>
<linearGradient id="paint0_linear_595_78" x1="8" y1="12.7751" x2="8" y2="2.63383" gradientUnits="userSpaceOnUse">
<stop stop-color="#18AEFA"/>
<stop offset="1" stop-color="#83E1FF"/>
</linearGradient>
<linearGradient id="paint1_linear_595_78" x1="8.2998" y1="13.5625" x2="8.2998" y2="9.85662" gradientUnits="userSpaceOnUse">
<stop stop-color="#18AEFA"/>
<stop offset="1" stop-color="#83E1FF"/>
</linearGradient>
</defs>
</svg>
