<svg width="24" height="24" viewBox="0 0 24 24" fill="none" xmlns="http://www.w3.org/2000/svg">
<path d="M20.9766 14.7575V13.8575C20.9766 11.3123 20.9766 10.0398 20.1855 9.24952C19.3944 8.45752 18.1217 8.45752 15.5766 8.45752H8.37657C5.83046 8.45752 4.55786 8.45752 3.76676 9.24952C2.97656 10.0388 2.97656 11.3105 2.97656 13.8548V14.7575C2.97656 17.3037 2.97656 18.5762 3.76766 19.3673C4.55786 20.1575 5.83136 20.1575 8.37657 20.1575H15.5766C18.1217 20.1575 19.3953 20.1575 20.1855 19.3673C20.9766 18.5753 20.9766 17.3037 20.9766 14.7575Z" stroke="url(#paint0_linear_1005_527)" stroke-width="2.6"/>
<path fill-rule="evenodd" clip-rule="evenodd" d="M11.9763 2C11.7654 2 11.5631 2.08378 11.414 2.2329C11.2649 2.38203 11.1811 2.58429 11.1811 2.79518V11.7249C11.1811 12.6534 10.0258 13.0806 9.42169 12.3755L9.3999 12.3501C9.33196 12.2707 9.24905 12.2055 9.1559 12.1582C9.06276 12.1109 8.9612 12.0824 8.85704 12.0743C8.75288 12.0662 8.64815 12.0787 8.54882 12.1111C8.4495 12.1435 8.35753 12.1952 8.27817 12.2631C8.19881 12.3311 8.1336 12.414 8.08628 12.5071C8.03896 12.6003 8.01045 12.7018 8.00238 12.806C7.99431 12.9102 8.00683 13.0149 8.03923 13.1142C8.07163 13.2135 8.12328 13.3055 8.19123 13.3849L11.372 17.0957C11.4466 17.183 11.5393 17.2531 11.6436 17.3011C11.7479 17.3492 11.8614 17.3741 11.9763 17.3741C12.0911 17.3741 12.2046 17.3492 12.309 17.3011C12.4133 17.2531 12.506 17.183 12.5806 17.0957L15.7613 13.3849C15.8293 13.3055 15.8809 13.2135 15.9133 13.1142C15.9457 13.0149 15.9583 12.9102 15.9502 12.806C15.9421 12.7018 15.9136 12.6003 15.8663 12.5071C15.819 12.414 15.7538 12.3311 15.6744 12.2631C15.595 12.1952 15.5031 12.1435 15.4038 12.1111C15.3044 12.0787 15.1997 12.0662 15.0955 12.0743C14.9914 12.0824 14.8898 12.1109 14.7967 12.1582C14.7035 12.2055 14.6206 12.2707 14.5527 12.3501L14.5307 12.3757C13.9265 13.0806 12.7715 12.6533 12.7715 11.7249V2.79518C12.7715 2.58429 12.6877 2.38203 12.5386 2.2329C12.3894 2.08378 12.1872 2 11.9763 2Z" fill="url(#paint1_linear_1005_527)" stroke="url(#paint2_linear_1005_527)" stroke-width="1.5"/>
<defs>
<linearGradient id="paint0_linear_1005_527" x1="11.9766" y1="20.1575" x2="11.9766" y2="8.45752" gradientUnits="userSpaceOnUse">
<stop stop-color="#5558FF"/>
<stop offset="1" stop-color="#00C0FF"/>
</linearGradient>
<linearGradient id="paint1_linear_1005_527" x1="11.9763" y1="17.3741" x2="11.9763" y2="2" gradientUnits="userSpaceOnUse">
<stop stop-color="#5558FF"/>
<stop offset="1" stop-color="#00C0FF"/>
</linearGradient>
<linearGradient id="paint2_linear_1005_527" x1="11.9763" y1="17.3741" x2="11.9763" y2="2" gradientUnits="userSpaceOnUse">
<stop stop-color="#5558FF"/>
<stop offset="1" stop-color="#00C0FF"/>
</linearGradient>
</defs>
</svg>
