<svg width="128" height="128" viewBox="0 0 128 128" fill="none" xmlns="http://www.w3.org/2000/svg">
<path d="M47.9656 11C47.4353 11 46.9266 11.2107 46.5515 11.5857L11.5859 46.5463C11.2108 46.9214 11 47.4302 11 47.9606V111.7C11 114.636 13.3638 117 16.3 117H64H80.0344C80.5647 117 81.0734 116.789 81.4485 116.414L116.414 81.4537C116.789 81.0786 117 80.5698 117 80.0394V16.3C117 13.3638 114.636 11 111.7 11H64H47.9656Z" stroke="url(#paint0_linear_737_2)" stroke-width="12"/>
<path d="M60.1818 31C44.5691 31 32 43.5691 32 59.1818V64.8182C32 80.4309 44.5691 93 60.1818 93H87.8667C88.9712 93 89.8667 92.1046 89.8667 91V78.4667C89.8667 77.3621 88.9712 76.4667 87.8667 76.4667H60.1818C53.6443 76.4667 48.5333 71.3557 48.5333 64.8182V59.1818C48.5333 52.6442 53.6443 47.5333 60.1818 47.5333H87.8667C88.9712 47.5333 89.8667 46.6379 89.8667 45.5333V33C89.8667 31.8954 88.9712 31 87.8667 31H60.1818Z" fill="url(#paint1_linear_737_2)"/>
<defs>
<linearGradient id="paint0_linear_737_2" x1="20.8605" y1="64" x2="98.9225" y2="64" gradientUnits="userSpaceOnUse">
<stop stop-color="#5570FF"/>
<stop offset="1" stop-color="#4DD3FF"/>
</linearGradient>
<linearGradient id="paint1_linear_737_2" x1="37.3829" y1="62" x2="79.9979" y2="62" gradientUnits="userSpaceOnUse">
<stop stop-color="#5570FF"/>
<stop offset="1" stop-color="#4DD3FF"/>
</linearGradient>
</defs>
</svg>
