<svg width="16" height="16" viewBox="0 0 16 16" fill="none" xmlns="http://www.w3.org/2000/svg">
<path d="M13.25 8V5C13.25 3.11438 13.25 2.17157 12.6642 1.58579C12.0784 1 11.1356 1 9.25 1H6.75C4.86438 1 3.92157 1 3.33579 1.58579C2.75 2.17157 2.75 3.11438 2.75 5V5.375" stroke="url(#paint0_linear_563_437)" stroke-width="1.8"/>
<path d="M1 9.08731C1 7.4798 1 6.67604 1.43537 6.12923C1.5293 6.01127 1.63627 5.9043 1.75423 5.81037C2.30104 5.375 3.1048 5.375 4.71231 5.375V5.375C5.41143 5.375 5.76099 5.375 6.0814 5.48698C6.15252 5.51183 6.22218 5.54069 6.29004 5.5734C6.59578 5.72078 6.84296 5.96796 7.33731 6.46231L7.70343 6.82843C8.28149 7.40649 8.57052 7.69552 8.93806 7.84776C9.3056 8 9.71435 8 10.5319 8H11.5C12.9045 8 13.6067 8 14.1111 8.33706C14.3295 8.48298 14.517 8.67048 14.6629 8.88886C15 9.39331 15 10.0955 15 11.5V11.5C15 12.9045 15 13.6067 14.6629 14.1111C14.517 14.3295 14.3295 14.517 14.1111 14.6629C13.6067 15 12.9045 15 11.5 15H5C3.11438 15 2.17157 15 1.58579 14.4142C1 13.8284 1 12.8856 1 11V9.08731Z" stroke="url(#paint1_linear_563_437)" stroke-width="1.8"/>
<defs>
<linearGradient id="paint0_linear_563_437" x1="8" y1="8" x2="8" y2="1.41176" gradientUnits="userSpaceOnUse">
<stop stop-color="#18AEFA"/>
<stop offset="1" stop-color="#83E1FF"/>
</linearGradient>
<linearGradient id="paint1_linear_563_437" x1="8" y1="15" x2="8" y2="5.94118" gradientUnits="userSpaceOnUse">
<stop stop-color="#18AEFA"/>
<stop offset="1" stop-color="#83E1FF"/>
</linearGradient>
</defs>
</svg>
