<svg width="16" height="16" viewBox="0 0 16 16" fill="none" xmlns="http://www.w3.org/2000/svg">
<path fill-rule="evenodd" clip-rule="evenodd" d="M5.997 2.95975C6.29965 2.50579 6.80916 2.23311 7.35476 2.23311L8.64478 2.23311C9.19039 2.23311 9.69989 2.50579 10.0025 2.95975C10.5074 3.71707 11.2924 4.2428 12.1849 4.4213L12.2755 4.4394C13.1424 4.61279 13.7664 5.37399 13.7664 6.25809L13.7664 9.86644C13.7664 10.7214 13.7657 11.3084 13.7286 11.7635C13.6922 12.2081 13.6256 12.447 13.5376 12.6198C13.3362 13.015 13.015 13.3362 12.6198 13.5376C12.447 13.6256 12.2081 13.6922 11.7635 13.7286C11.3084 13.7657 10.7214 13.7664 9.86644 13.7664L6.1331 13.7664C5.27817 13.7664 4.6911 13.7657 4.236 13.7286C3.7914 13.6922 3.55257 13.6256 3.37972 13.5376C2.98458 13.3362 2.66332 13.015 2.46199 12.6198C2.37392 12.447 2.30731 12.2081 2.27099 11.7635C2.2338 11.3084 2.2331 10.7214 2.2331 9.86644L2.2331 6.25809C2.2331 5.37399 2.85714 4.61279 3.72407 4.4394L3.81459 4.4213C4.70709 4.2428 5.49213 3.71707 5.997 2.95975ZM7.35476 0.433107C6.20732 0.433106 5.1358 1.00657 4.49931 1.96129C4.25925 2.32139 3.88597 2.57138 3.46158 2.65625L3.37106 2.67436C1.66276 3.01602 0.433105 4.51596 0.433104 6.25809L0.433104 9.86644L0.433104 9.90414L0.433104 9.90416C0.433094 10.7122 0.433085 11.373 0.476966 11.9101C0.522386 12.466 0.619268 12.9681 0.858179 13.437C1.23209 14.1708 1.82871 14.7675 2.56254 15.1414C3.03143 15.3803 3.53351 15.4772 4.08942 15.5226C4.6265 15.5665 5.28734 15.5665 6.0954 15.5664L6.1331 15.5664L9.86644 15.5664L9.90414 15.5664C10.7122 15.5665 11.373 15.5665 11.9101 15.5226C12.466 15.4772 12.9681 15.3803 13.437 15.1414C14.1708 14.7675 14.7675 14.1708 15.1414 13.437C15.3803 12.9681 15.4772 12.466 15.5226 11.9101C15.5665 11.373 15.5664 10.7122 15.5664 9.90414L15.5664 9.86644L15.5664 6.25809C15.5664 4.51596 14.3368 3.01602 12.6285 2.67436L12.538 2.65625C12.1136 2.57138 11.7403 2.32139 11.5002 1.96129C10.8637 1.00657 9.79222 0.433107 8.64478 0.433107L7.35476 0.433107ZM6.2331 8.66644C6.2331 7.69074 7.02407 6.89977 7.99977 6.89977C8.97547 6.89977 9.76644 7.69074 9.76644 8.66644C9.76644 9.64214 8.97547 10.4331 7.99977 10.4331C7.02407 10.4331 6.2331 9.64214 6.2331 8.66644ZM7.99977 5.09977C6.02996 5.09977 4.4331 6.69663 4.4331 8.66644C4.4331 10.6363 6.02996 12.2331 7.99977 12.2331C9.96959 12.2331 11.5664 10.6363 11.5664 8.66644C11.5664 6.69663 9.96959 5.09977 7.99977 5.09977Z" fill="url(#paint0_linear_508_267)"/>
<defs>
<linearGradient id="paint0_linear_508_267" x1="1.94265" y1="17.422" x2="17.5565" y2="7.38446" gradientUnits="userSpaceOnUse">
<stop stop-color="#AE4CFF"/>
<stop offset="1" stop-color="#FFADFF"/>
</linearGradient>
</defs>
</svg>
