<svg width="16" height="16" viewBox="0 0 16 16" fill="none" xmlns="http://www.w3.org/2000/svg">
<path d="M5.66667 14.6111L7.74543 10.9333C7.84631 10.7548 7.93488 10.5981 8.01415 10.4595M8.01415 10.4595C8.25985 10.0298 8.41614 9.7738 8.57225 9.5817C9.86496 7.99106 12.1703 7.67682 13.8416 8.86345C14.1068 9.05174 14.4018 9.34624 14.9883 9.93278M8.01415 10.4595L7.61111 10.3333C6.68126 10.1474 6.21634 10.0544 5.78962 10.0634C4.64766 10.0877 3.5741 10.6128 2.85386 11.4993C2.58473 11.8305 2.37269 12.2546 1.94862 13.1028L1.8632 13.2736L1.76903 13.4327M14.9883 9.93278C15 9.36927 15 8.73036 15 8C15 5.08354 15 3.62531 14.2573 2.60306C14.0174 2.27291 13.7271 1.98258 13.3969 1.74271C12.3747 1 10.9165 1 8 1C5.08354 1 3.62531 1 2.60306 1.74271C2.27291 1.98258 1.98258 2.27291 1.74271 2.60306C1 3.62531 1 5.08354 1 8C1 10.9165 1 12.3747 1.74271 13.3969C1.75142 13.4089 1.76019 13.4209 1.76903 13.4327M14.9883 9.93278C14.9534 11.6195 14.814 12.6307 14.2573 13.3969C14.0174 13.7271 13.7271 14.0174 13.3969 14.2573C12.3747 15 10.9165 15 8 15C5.08354 15 3.62531 15 2.60306 14.2573C2.28489 14.0261 2.0037 13.7481 1.76903 13.4327M5.66667 5.66667C5.66667 6.52578 6.36311 7.22222 7.22222 7.22222C8.08133 7.22222 8.77778 6.52578 8.77778 5.66667C8.77778 4.80756 8.08133 4.11111 7.22222 4.11111C6.36311 4.11111 5.66667 4.80756 5.66667 5.66667Z" stroke="url(#paint0_linear_552_82)" stroke-width="1.8" stroke-linecap="round"/>
<defs>
<linearGradient id="paint0_linear_552_82" x1="8" y1="15" x2="8" y2="1" gradientUnits="userSpaceOnUse">
<stop stop-color="#A93AFF"/>
<stop offset="1" stop-color="#FF81FF"/>
</linearGradient>
</defs>
</svg>
