<svg width="16" height="16" viewBox="0 0 16 16" fill="none" xmlns="http://www.w3.org/2000/svg">
<path fill-rule="evenodd" clip-rule="evenodd" d="M2.44703 1.78053C3.4484 0.779169 4.91133 0.433594 6.66676 0.433594H9.33343C11.0889 0.433594 12.5518 0.779169 13.5532 1.78053C14.5545 2.78189 14.9001 4.24483 14.9001 6.00026V10.0003C14.9001 11.7557 14.5545 13.2186 13.5532 14.22C12.5518 15.2214 11.0889 15.5669 9.33343 15.5669H6.66676C4.91133 15.5669 3.4484 15.2214 2.44704 14.22C1.44567 13.2186 1.1001 11.7557 1.1001 10.0003V6.00026C1.1001 4.24483 1.44567 2.78189 2.44703 1.78053ZM3.71983 3.05332C3.22119 3.55196 2.9001 4.42236 2.9001 6.00026V10.0003C2.9001 11.5782 3.22119 12.4486 3.71983 12.9472C4.21846 13.4458 5.08886 13.7669 6.66676 13.7669H9.33343C10.9113 13.7669 11.7817 13.4458 12.2804 12.9472C12.779 12.4486 13.1001 11.5782 13.1001 10.0003V6.00026C13.1001 4.42236 12.779 3.55196 12.2804 3.05332C11.7817 2.55469 10.9113 2.23359 9.33343 2.23359H6.66676C5.08886 2.23359 4.21846 2.55469 3.71983 3.05332ZM6.0001 4.80332C5.86423 4.80332 5.7501 4.91761 5.7501 5.05332V5.71999C5.7501 5.85586 5.86439 5.96999 6.0001 5.96999H10.0001C10.136 5.96999 10.2501 5.85569 10.2501 5.71999V5.05332C10.2501 4.9142 10.1392 4.80332 10.0001 4.80332H6.0001ZM4.2501 5.05332C4.2501 4.0957 5.0293 3.30332 6.0001 3.30332H10.0001C10.9676 3.30332 11.7501 4.08577 11.7501 5.05332V5.71999C11.7501 6.67761 10.9709 7.46999 10.0001 7.46999H6.0001C5.04247 7.46999 4.2501 6.69078 4.2501 5.71999V5.05332ZM4.52402 9.3332C4.52402 8.83615 4.92697 8.4332 5.42402 8.4332H5.43173C5.92878 8.4332 6.33173 8.83615 6.33173 9.3332C6.33173 9.83026 5.92878 10.2332 5.43173 10.2332H5.42402C4.92697 10.2332 4.52402 9.83026 4.52402 9.3332ZM7.09678 9.3332C7.09678 8.83615 7.49972 8.4332 7.99678 8.4332H8.00448C8.50154 8.4332 8.90448 8.83615 8.90448 9.3332C8.90448 9.83026 8.50154 10.2332 8.00448 10.2332H7.99678C7.49972 10.2332 7.09678 9.83026 7.09678 9.3332ZM10.5695 8.4332C10.0725 8.4332 9.66953 8.83615 9.66953 9.3332C9.66953 9.83026 10.0725 10.2332 10.5695 10.2332H10.5772C11.0743 10.2332 11.4772 9.83026 11.4772 9.3332C11.4772 8.83615 11.0743 8.4332 10.5772 8.4332H10.5695ZM4.52402 11.6667C4.52402 11.1696 4.92697 10.7667 5.42402 10.7667H5.43173C5.92878 10.7667 6.33173 11.1696 6.33173 11.6667C6.33173 12.1638 5.92878 12.5667 5.43173 12.5667H5.42402C4.92697 12.5667 4.52402 12.1638 4.52402 11.6667ZM7.99678 10.7667C7.49972 10.7667 7.09678 11.1696 7.09678 11.6667C7.09678 12.1638 7.49972 12.5667 7.99678 12.5667H8.00448C8.50154 12.5667 8.90448 12.1638 8.90448 11.6667C8.90448 11.1696 8.50154 10.7667 8.00448 10.7667H7.99678ZM9.66953 11.6667C9.66953 11.1696 10.0725 10.7667 10.5695 10.7667H10.5772C11.0743 10.7667 11.4772 11.1696 11.4772 11.6667C11.4772 12.1638 11.0743 12.5667 10.5772 12.5667H10.5695C10.0725 12.5667 9.66953 12.1638 9.66953 11.6667Z" fill="url(#paint0_linear_598_140)"/>
<defs>
<linearGradient id="paint0_linear_598_140" x1="8.0001" y1="15.5669" x2="8.0001" y2="1.32379" gradientUnits="userSpaceOnUse">
<stop stop-color="#18AEFA"/>
<stop offset="1" stop-color="#83E1FF"/>
</linearGradient>
</defs>
</svg>
