<svg width="33" height="32" viewBox="0 0 33 32" fill="none" xmlns="http://www.w3.org/2000/svg">
<path d="M13.1668 17.1666V17.3332C13.1668 18.2173 13.518 19.0651 14.1431 19.6902C14.7682 20.3154 15.6161 20.6666 16.5001 20.6666C17.3842 20.6666 18.232 20.3154 18.8572 19.6902C19.4823 19.0651 19.8335 18.2173 19.8335 17.3332V17.1666C19.8335 16.5226 19.3108 15.9999 18.6668 15.9999H14.3335C13.6895 15.9999 13.1668 16.5226 13.1668 17.1666Z" fill="url(#paint0_linear_1005_157)"/>
<path fill-rule="evenodd" clip-rule="evenodd" d="M28.1392 3.02714C26.99 1.87725 25.5524 1.39772 23.9117 1.17706C22.3458 0.966449 20.3651 0.966497 17.9539 0.966555L16.4998 0.966555L13.1644 0.970558L13.1543 0.9706C11.3002 0.983873 9.71426 1.03606 8.39981 1.28772C7.03774 1.54849 5.84176 2.04507 4.86038 3.02715C3.7105 4.17634 3.23097 5.614 3.01031 7.25462C2.7997 8.82055 2.79975 10.8012 2.79981 13.2125V18.7873C2.79975 21.1985 2.7997 23.1792 3.01031 24.7452C3.23097 26.3858 3.71051 27.8234 4.86039 28.9726C6.00958 30.1225 7.44725 30.6021 9.08787 30.8227C10.6538 31.0333 12.6345 31.0333 15.0457 31.0332H17.9539C20.3651 31.0333 22.3458 31.0333 23.9117 30.8227C25.5521 30.6021 26.9896 30.1227 28.1387 28.9731L26.9371 27.7706L28.1397 28.9721C29.2893 27.823 29.7687 26.3855 29.9893 24.7452C30.1999 23.1792 30.1999 21.1985 30.1998 18.7873V13.2125C30.1999 10.8013 30.1999 8.82055 29.9893 7.25462C29.7686 5.61399 29.2891 4.17633 28.1392 3.02714ZM17.8331 4.36656C20.3952 4.36656 22.1459 4.37017 23.4585 4.54672C24.7223 4.7167 25.3225 5.01838 25.7345 5.43079L25.7356 5.43182C26.148 5.84387 26.4497 6.44403 26.6196 7.70783C26.7962 9.0205 26.7998 10.7711 26.7998 13.3332V18.6666C26.7998 21.2286 26.7962 22.9793 26.6196 24.292C26.4497 25.5557 26.148 26.1559 25.7356 26.568L25.7345 26.569C25.3225 26.9814 24.7223 27.2831 23.4585 27.4531C22.1459 27.6296 20.3952 27.6332 17.8331 27.6332H15.1665C12.6044 27.6332 10.8538 27.6296 9.54108 27.4531C8.27728 27.2831 7.67713 26.9814 7.26507 26.569L7.26404 26.568C6.85163 26.1559 6.54995 25.5557 6.37997 24.292C6.20342 22.9793 6.19981 21.2286 6.19981 18.6666V13.3332C6.19981 10.7711 6.20342 9.0205 6.37997 7.70783C6.54995 6.44403 6.85163 5.84387 7.26404 5.43182L7.26515 5.43071C7.62233 5.07318 8.11548 4.8039 9.03914 4.62706C9.86169 4.46958 10.9174 4.40447 12.3574 4.38007C12.8069 4.37245 13.0446 4.81955 13.3615 5.13856V5.13856C13.5575 5.33322 13.8735 5.33322 14.5001 5.33322H16.5001V7.99989H14.5001C13.8721 7.99989 13.5575 7.99989 13.3615 8.19456C13.1668 8.39056 13.1668 8.70656 13.1668 9.33322C13.1668 9.95989 13.1668 10.2759 13.3615 10.4719C13.5575 10.6666 13.8735 10.6666 14.5001 10.6666H16.5001V11.9999C16.5001 12.6279 16.5001 12.9426 16.6948 13.1386C16.8908 13.3332 17.2055 13.3332 17.8335 13.3332H18.5001C19.1281 13.3332 19.4428 13.3332 19.6388 13.1386C19.8335 12.9426 19.8335 12.6279 19.8335 11.9999C19.8335 11.3719 19.8335 11.0572 19.6388 10.8612C19.4428 10.6666 19.1268 10.6666 18.5001 10.6666H16.5001V7.99989H18.5001C19.1281 7.99989 19.4428 7.99989 19.6388 7.80522C19.8335 7.60922 19.8335 7.29456 19.8335 6.66656C19.8335 6.03856 19.8335 5.72389 19.6388 5.52789C19.4428 5.33322 19.1268 5.33322 18.5001 5.33322H16.5001V5.33322C16.5001 4.79935 16.9329 4.36656 17.4668 4.36656H17.8331Z" fill="url(#paint1_linear_1005_157)"/>
<path d="M16.5001 5.33322H14.5001C13.8735 5.33322 13.5575 5.33322 13.3615 5.13856V5.13856C13.0446 4.81955 12.8069 4.37245 12.3574 4.38007C10.9174 4.40447 9.86169 4.46958 9.03914 4.62706C8.11548 4.8039 7.62233 5.07318 7.26515 5.43071L7.26404 5.43182C6.85163 5.84387 6.54995 6.44403 6.37997 7.70783C6.20342 9.0205 6.19981 10.7711 6.19981 13.3332V18.6666C6.19981 21.2286 6.20342 22.9793 6.37997 24.292C6.54995 25.5557 6.85163 26.1559 7.26404 26.568L7.26507 26.569C7.67713 26.9814 8.27728 27.2831 9.54108 27.4531C10.8538 27.6296 12.6044 27.6332 15.1665 27.6332H17.8331C20.3952 27.6332 22.1459 27.6296 23.4585 27.4531C24.7223 27.2831 25.3225 26.9814 25.7345 26.569L25.7356 26.568C26.148 26.1559 26.4497 25.5557 26.6196 24.292C26.7962 22.9793 26.7998 21.2286 26.7998 18.6666V13.3332C26.7998 10.7711 26.7962 9.0205 26.6196 7.70783C26.4497 6.44403 26.148 5.84387 25.7356 5.43182L25.7345 5.43079C25.3225 5.01838 24.7223 4.7167 23.4585 4.54672C22.1459 4.37017 20.3952 4.36656 17.8331 4.36656H17.4668C16.9329 4.36656 16.5001 4.79935 16.5001 5.33322V5.33322ZM16.5001 5.33322V7.99989M16.5001 5.33322H18.5001C19.1268 5.33322 19.4428 5.33322 19.6388 5.52789C19.8335 5.72389 19.8335 6.03856 19.8335 6.66656C19.8335 7.29456 19.8335 7.60922 19.6388 7.80522C19.4428 7.99989 19.1281 7.99989 18.5001 7.99989H16.5001M16.5001 7.99989H14.5001C13.8721 7.99989 13.5575 7.99989 13.3615 8.19456C13.1668 8.39056 13.1668 8.70656 13.1668 9.33322C13.1668 9.95989 13.1668 10.2759 13.3615 10.4719C13.5575 10.6666 13.8735 10.6666 14.5001 10.6666H16.5001M16.5001 7.99989V10.6666M16.5001 10.6666V11.9999C16.5001 12.6279 16.5001 12.9426 16.6948 13.1386C16.8908 13.3332 17.2055 13.3332 17.8335 13.3332H18.5001C19.1281 13.3332 19.4428 13.3332 19.6388 13.1386C19.8335 12.9426 19.8335 12.6279 19.8335 11.9999C19.8335 11.3719 19.8335 11.0572 19.6388 10.8612C19.4428 10.6666 19.1268 10.6666 18.5001 10.6666H16.5001ZM23.9117 1.17706C25.5524 1.39772 26.99 1.87725 28.1392 3.02714C29.2891 4.17633 29.7686 5.61399 29.9893 7.25462C30.1999 8.82055 30.1999 10.8013 30.1998 13.2125V18.7873C30.1999 21.1985 30.1999 23.1792 29.9893 24.7452C29.7687 26.3855 29.2893 27.823 28.1397 28.9721L26.9371 27.7706L28.1387 28.9731C26.9896 30.1227 25.5521 30.6021 23.9117 30.8227C22.3458 31.0333 20.3651 31.0333 17.9539 31.0332H15.0457C12.6345 31.0333 10.6538 31.0333 9.08787 30.8227C7.44725 30.6021 6.00958 30.1225 4.86039 28.9726C3.71051 27.8234 3.23097 26.3858 3.01031 24.7452C2.7997 23.1792 2.79975 21.1985 2.79981 18.7873V13.2125C2.79975 10.8012 2.7997 8.82055 3.01031 7.25462C3.23097 5.614 3.7105 4.17634 4.86038 3.02715C5.84176 2.04507 7.03774 1.54849 8.39981 1.28772C9.71426 1.03606 11.3002 0.983873 13.1543 0.9706L13.1644 0.970558L16.4998 0.966555L17.9539 0.966555C20.3651 0.966497 22.3458 0.966449 23.9117 1.17706ZM13.1668 17.3332V17.1666C13.1668 16.5226 13.6895 15.9999 14.3335 15.9999H18.6668C19.3108 15.9999 19.8335 16.5226 19.8335 17.1666V17.3332C19.8335 18.2173 19.4823 19.0651 18.8572 19.6902C18.232 20.3154 17.3842 20.6666 16.5001 20.6666C15.6161 20.6666 14.7682 20.3154 14.1431 19.6902C13.518 19.0651 13.1668 18.2173 13.1668 17.3332Z" stroke="url(#paint2_linear_1005_157)" stroke-width="0.6"/>
<defs>
<linearGradient id="paint0_linear_1005_157" x1="30.1998" y1="31.0332" x2="5.26328" y2="8.05375" gradientUnits="userSpaceOnUse">
<stop stop-color="#731FFF"/>
<stop offset="0.905415" stop-color="#EB1AFF"/>
</linearGradient>
<linearGradient id="paint1_linear_1005_157" x1="30.1998" y1="31.0332" x2="5.26328" y2="8.05375" gradientUnits="userSpaceOnUse">
<stop stop-color="#731FFF"/>
<stop offset="0.905415" stop-color="#EB1AFF"/>
</linearGradient>
<linearGradient id="paint2_linear_1005_157" x1="30.1998" y1="31.0332" x2="5.26328" y2="8.05375" gradientUnits="userSpaceOnUse">
<stop stop-color="#731FFF"/>
<stop offset="0.905415" stop-color="#EB1AFF"/>
</linearGradient>
</defs>
</svg>
