<svg width="64" height="64" viewBox="0 0 64 64" fill="none" xmlns="http://www.w3.org/2000/svg">
<path d="M23.3624 23.0011C22.0589 22.9807 20.8029 22.5082 19.8091 21.6644C17.7362 19.7633 16.4804 17.1331 16.3053 14.3259C15.7584 8.71575 18.8189 5.40545 22.1247 5.03639C22.9213 4.94808 23.7274 5.02091 24.4952 5.25055C25.263 5.48019 25.9767 5.86195 26.594 6.37311C27.5148 7.20313 28.2624 8.207 28.7938 9.327C29.3252 10.447 29.63 11.661 29.6905 12.8992C30.1946 18.1291 27.4086 23.0011 23.3624 23.0011ZM11.4107 36.5034C10.2135 36.4749 9.07059 35.9978 8.20843 35.1667C6.30297 33.1827 5.18332 30.5739 5.0579 27.8259C4.56282 22.2158 7.32178 18.9055 10.3035 18.5364C11.0303 18.4544 11.7662 18.5315 12.4602 18.7623C13.1543 18.9932 13.7898 19.3722 14.3227 19.8731C16.0344 21.6244 17.0303 23.9518 17.1154 26.3992C17.5677 31.6313 14.7998 36.5034 11.4107 36.5034ZM40.6273 23.0011C36.5541 23.0011 33.7997 18.1268 34.3105 12.8924C34.371 11.6543 34.6758 10.4402 35.2072 9.32025C35.7386 8.20025 36.4862 7.19637 37.407 6.36636C38.0237 5.85827 38.7358 5.47882 39.5015 5.2504C40.2671 5.02198 41.0708 4.94921 41.865 5.03639C45.1708 5.40545 48.2313 8.71575 47.6845 14.3259C47.5099 17.1339 46.2541 19.765 44.1806 21.6667C43.1865 22.5097 41.9306 22.9814 40.6273 23.0011V23.0011ZM52.3675 36.5034C48.1233 36.5034 46.0057 31.6291 46.4828 26.3947C46.5774 23.9316 47.6085 21.5974 49.3655 19.8686C49.9236 19.364 50.5826 18.9839 51.2988 18.7534C52.015 18.523 52.7721 18.4475 53.5197 18.5319C56.5982 18.901 59.4494 22.2113 58.9408 27.8214C58.7985 30.5882 57.6351 33.2038 55.6755 35.1622C54.7742 35.999 53.5972 36.4762 52.3675 36.5034V36.5034ZM40.3527 59.0071C38.3221 59.0431 36.3213 58.5141 34.5738 57.4791C33.7971 57.0052 32.9048 56.7544 31.9949 56.7544C31.085 56.7544 30.1926 57.0052 29.4159 57.4791C22.4443 61.6513 13.7668 57.1798 13.9919 47.3795C13.9919 37.1425 24.1343 27.5019 31.9949 27.5019C39.8554 27.5019 49.9978 37.1425 49.9978 47.3795C49.9978 54.2251 46.0327 59.0071 40.3527 59.0071ZM31.9949 50.0056C34.0256 49.9696 36.0263 50.4987 37.7738 51.5336C42.2251 54.0833 43.285 49.5983 43.2467 47.3795C43.2467 40.7408 36.1265 34.253 31.9949 34.253C27.8632 34.253 20.743 40.7408 20.743 47.3795C20.6912 49.5646 21.7827 54.0991 26.2159 51.5336C27.9634 50.4987 29.9642 49.9696 31.9949 50.0056V50.0056Z" fill="url(#paint0_linear_906_20)"/>
<defs>
<linearGradient id="paint0_linear_906_20" x1="32" y1="59.0397" x2="32" y2="5" gradientUnits="userSpaceOnUse">
<stop stop-color="#02AA93"/>
<stop offset="1" stop-color="#67FF80"/>
</linearGradient>
</defs>
</svg>
