<svg width="16" height="16" viewBox="0 0 16 16" fill="none" xmlns="http://www.w3.org/2000/svg">
<path fill-rule="evenodd" clip-rule="evenodd" d="M5.2001 2.8501C2.38429 2.8501 0.100098 5.13429 0.100098 7.9501C0.100098 10.7659 2.38429 13.0501 5.2001 13.0501H10.8001C13.6159 13.0501 15.9001 10.7659 15.9001 7.9501C15.9001 5.13429 13.6159 2.8501 10.8001 2.8501H5.2001ZM1.9001 7.9501C1.9001 6.1284 3.3784 4.6501 5.2001 4.6501H10.8001C12.6218 4.6501 14.1001 6.1284 14.1001 7.9501C14.1001 9.77179 12.6218 11.2501 10.8001 11.2501H5.2001C3.3784 11.2501 1.9001 9.77179 1.9001 7.9501ZM11.698 5.70029C11.9732 5.70029 12.2372 5.80962 12.4318 6.00424C12.6264 6.19884 12.7357 6.46279 12.7357 6.73802C12.7357 7.01324 12.6264 7.27722 12.4318 7.47182C12.2372 7.66644 11.9732 7.77577 11.698 7.77577C11.4228 7.77577 11.1588 7.66644 10.9642 7.47182C10.7696 7.27722 10.6603 7.01324 10.6603 6.73802C10.6603 6.46279 10.7696 6.19884 10.9642 6.00424C11.1588 5.80962 11.4228 5.70029 11.698 5.70029ZM9.30405 8.49494C9.10942 8.68957 9.0001 8.95352 9.0001 9.22874C9.0001 9.50397 9.10942 9.76792 9.30405 9.96254C9.49865 10.1571 9.7626 10.2665 10.0378 10.2665C10.313 10.2665 10.577 10.1571 10.7716 9.96254C10.9662 9.76792 11.0756 9.50397 11.0756 9.22874C11.0756 8.95352 10.9662 8.68957 10.7716 8.49494C10.577 8.30034 10.313 8.19102 10.0378 8.19102C9.7626 8.19102 9.49865 8.30034 9.30405 8.49494ZM4.45292 6.58027C4.45292 6.23522 4.73052 5.95762 5.07557 5.95762C5.42062 5.95762 5.69822 6.23522 5.69822 6.58027V7.16044C5.69822 7.29852 5.81015 7.41044 5.94822 7.41044H6.5284C6.87345 7.41044 7.15105 7.68804 7.15105 8.03309C7.15105 8.37814 6.87345 8.65572 6.5284 8.65572H5.94822C5.81015 8.65572 5.69822 8.76767 5.69822 8.90572V9.48592C5.69822 9.83097 5.42062 10.1086 5.07557 10.1086C4.73052 10.1086 4.45292 9.83097 4.45292 9.48592V8.90572C4.45292 8.76767 4.341 8.65572 4.20292 8.65572H3.62275C3.2777 8.65572 3.0001 8.37814 3.0001 8.03309C3.0001 7.68804 3.2777 7.41044 3.62275 7.41044H4.20292C4.341 7.41044 4.45292 7.29852 4.45292 7.16044V6.58027Z" fill="url(#paint0_linear_661_85)"/>
<defs>
<linearGradient id="paint0_linear_661_85" x1="8.5" y1="5.74997" x2="8.5" y2="10.316" gradientUnits="userSpaceOnUse">
<stop stop-color="#DC18FC"/>
<stop offset="1" stop-color="#8E1EFF"/>
</linearGradient>
</defs>
</svg>
