<svg width="16" height="16" viewBox="0 0 16 16" fill="none" xmlns="http://www.w3.org/2000/svg">
<path d="M13.0501 15.5C12.8202 15.5007 12.5924 15.4558 12.38 15.3678C12.1676 15.2798 11.9747 15.1506 11.8126 14.9875L10.1361 13.3111C9.89471 13.0696 9.547 12.9795 9.20597 12.9961C8.79354 13.0161 8.37933 12.9574 7.98599 12.8213C7.41914 12.6251 6.91774 12.2758 6.53729 11.8121C6.15684 11.3484 5.91219 10.7884 5.83054 10.1942C5.74889 9.59992 5.83334 8.99467 6.07459 8.44552V8.44552C6.21598 8.1233 6.63714 8.04407 6.88595 8.29288L8.44659 9.85352C8.54174 9.94442 8.66828 9.99512 8.79983 9.99512C8.93143 9.99512 9.05794 9.94442 9.15309 9.85352C9.19959 9.80717 9.23649 9.75207 9.26169 9.69147C9.28689 9.63082 9.29989 9.56582 9.29994 9.50012C9.29999 9.43447 9.28709 9.36942 9.26199 9.30877C9.23689 9.24807 9.20004 9.19297 9.15359 9.14652L7.59289 7.58545C7.34409 7.33659 7.42335 6.91542 7.74559 6.77402V6.77402C8.29479 6.53292 8.90003 6.44857 9.49423 6.53032C10.0884 6.61212 10.6484 6.85677 11.1121 7.23727C11.5757 7.61772 11.925 8.11917 12.1212 8.68597C12.2574 9.07934 12.3161 9.49355 12.2961 9.90599C12.2795 10.247 12.3697 10.5946 12.6111 10.836L14.2876 12.5125C14.5323 12.7573 14.699 13.0691 14.7666 13.4086C14.8341 13.7481 14.7995 14.1 14.667 14.4197C14.5345 14.7395 14.3102 15.0129 14.0224 15.2051C13.7346 15.3974 13.3962 15.5001 13.0501 15.5ZM9.74409 11.89C9.92266 11.832 10.1187 11.8791 10.2514 12.0119L12.5201 14.2805C12.6629 14.4169 12.8527 14.4929 13.0501 14.4929C13.2475 14.4929 13.4373 14.4169 13.5801 14.2805C13.6498 14.211 13.7051 14.1283 13.7429 14.0373C13.7807 13.9463 13.8001 13.8488 13.8001 13.7503C13.8001 13.6518 13.7807 13.5542 13.7429 13.4632C13.7051 13.3723 13.6498 13.2896 13.5801 13.22L11.3121 10.9516C11.1792 10.8186 11.1319 10.6225 11.1896 10.4435V10.4435C11.2994 10.106 11.3277 9.74717 11.2722 9.39657C11.2167 9.04597 11.079 8.71347 10.8703 8.42632C10.6616 8.13917 10.3878 7.90552 10.0714 7.74452C9.75509 7.58352 9.40508 7.49977 9.05008 7.50002V7.50002C9.00175 7.50002 8.97934 7.55777 9.01352 7.59195L9.86109 8.43952C10.1423 8.72082 10.3003 9.10227 10.3003 9.50002C10.3003 9.89777 10.1423 10.2792 9.86109 10.5605C9.57534 10.8334 9.19544 10.9856 8.80034 10.9856C8.40524 10.9856 8.02534 10.8334 7.73959 10.5605L6.89237 9.71331C6.85804 9.67897 6.80008 9.70146 6.80008 9.75002V9.75002C6.79983 10.1051 6.88364 10.4551 7.04464 10.7716C7.20569 11.088 7.43934 11.3618 7.72654 11.5706C8.01374 11.7793 8.34624 11.9171 8.69694 11.9726C9.04764 12.0282 9.40644 11.9999 9.74409 11.89V11.89Z" fill="url(#paint0_linear_656_82)" stroke="url(#paint1_linear_656_82)" stroke-width="0.4"/>
<path d="M11.2998 2H10.2998C10.0237 2 9.7998 1.77614 9.7998 1.5V1.5C9.799 1.23502 9.6934 0.981135 9.50605 0.793765C9.31865 0.6064 9.06475 0.50079 8.7998 0.5H4.7998C4.53485 0.50079 4.28095 0.6064 4.09355 0.793765C3.9062 0.981135 3.8006 1.23502 3.7998 1.5V1.5C3.7998 1.77614 3.57595 2 3.2998 2H2.2998C2.03483 2.00079 1.78094 2.1064 1.59357 2.29377C1.4062 2.48114 1.30059 2.73502 1.2998 3V13.5C1.30059 13.765 1.4062 14.0189 1.59357 14.2063C1.78094 14.3936 2.03483 14.4992 2.2998 14.5H5.2998C5.57595 14.5 5.7998 14.2761 5.7998 14V14C5.7998 13.7239 5.57595 13.5 5.2998 13.5H3.2998C2.74752 13.5 2.2998 13.0523 2.2998 12.5V3.75C2.2998 3.33579 2.63559 3 3.0498 3V3C3.46402 3 3.7998 3.33579 3.7998 3.75V3.75C3.7998 4.16421 4.13559 4.5 4.5498 4.5H9.0498C9.46402 4.5 9.7998 4.16421 9.7998 3.75V3.75C9.7998 3.33579 10.1356 3 10.5498 3V3C10.964 3 11.2998 3.33579 11.2998 3.75V5C11.2998 5.27614 11.5237 5.5 11.7998 5.5V5.5C12.0759 5.5 12.2998 5.27614 12.2998 5V3C12.299 2.73502 12.1934 2.48114 12.0061 2.29377C11.8187 2.1064 11.5648 2.00079 11.2998 2ZM8.7998 2.5C8.7998 3.05228 8.35209 3.5 7.7998 3.5H5.7998C5.24752 3.5 4.7998 3.05228 4.7998 2.5V2.5C4.7998 1.94772 5.24752 1.5 5.7998 1.5H7.7998C8.35209 1.5 8.7998 1.94772 8.7998 2.5V2.5Z" fill="url(#paint2_linear_656_82)" stroke="url(#paint3_linear_656_82)" stroke-width="0.6"/>
<defs>
<linearGradient id="paint0_linear_656_82" x1="5.80029" y1="11" x2="14.8002" y2="11" gradientUnits="userSpaceOnUse">
<stop stop-color="#FFC152"/>
<stop offset="1" stop-color="#FF5F5F"/>
</linearGradient>
<linearGradient id="paint1_linear_656_82" x1="5.80029" y1="11" x2="14.8002" y2="11" gradientUnits="userSpaceOnUse">
<stop stop-color="#FFC152"/>
<stop offset="1" stop-color="#FF5F5F"/>
</linearGradient>
<linearGradient id="paint2_linear_656_82" x1="1.2998" y1="7.5" x2="12.2998" y2="7.5" gradientUnits="userSpaceOnUse">
<stop stop-color="#FFC152"/>
<stop offset="1" stop-color="#FF5F5F"/>
</linearGradient>
<linearGradient id="paint3_linear_656_82" x1="1.2998" y1="7.5" x2="12.2998" y2="7.5" gradientUnits="userSpaceOnUse">
<stop stop-color="#FFC152"/>
<stop offset="1" stop-color="#FF5F5F"/>
</linearGradient>
</defs>
</svg>
