<svg width="16" height="16" viewBox="0 0 16 16" fill="none" xmlns="http://www.w3.org/2000/svg">
<path d="M13.9223 7.9498V10.5998C13.9223 12.4854 13.9223 13.4282 13.3365 14.014C12.7507 14.5998 11.8079 14.5998 9.92232 14.5998H3.94732C2.92712 14.5998 2.1001 13.7728 2.1001 12.7526V12.7526C2.1001 11.7324 2.92713 10.9054 3.94732 10.9054H9.92232C11.8079 10.9054 12.7507 10.9054 13.3365 10.3196C13.9223 9.73379 13.9223 8.79098 13.9223 6.90536V5.2998C13.9223 3.41419 13.9223 2.47138 13.3365 1.88559C12.7507 1.2998 11.8079 1.2998 9.92232 1.2998H6.10009C4.21448 1.2998 3.27167 1.2998 2.68588 1.88559C2.1001 2.47138 2.1001 3.41419 2.1001 5.2998V12.7526" stroke="url(#paint0_linear_620_224)" stroke-width="1.8"/>
<path d="M7.69061 8.79963H6.54004C5.98775 8.79963 5.54004 8.35191 5.54004 7.79963V3.98145C5.54004 3.42916 5.98775 2.98145 6.54004 2.98145H7.68777C8.28057 2.98145 8.79099 3.09792 9.21902 3.33088C9.64894 3.56194 9.98038 3.89527 10.2133 4.33088C10.4463 4.76459 10.5628 5.28353 10.5628 5.8877C10.5628 6.49376 10.4463 7.01459 10.2133 7.4502C9.98227 7.8858 9.65178 8.22008 9.22186 8.45304C8.79193 8.6841 8.28152 8.79963 7.69061 8.79963ZM6.94629 7.20076C6.94629 7.42168 7.12538 7.60076 7.34629 7.60076H7.63663C7.96239 7.60076 8.23796 7.54584 8.46333 7.43599C8.69061 7.32425 8.86201 7.14338 8.97754 6.89338C9.09496 6.64148 9.15368 6.30626 9.15368 5.8877C9.15368 5.46913 9.09496 5.1358 8.97754 4.8877C8.86011 4.6377 8.68682 4.45777 8.45765 4.34792C8.23038 4.23618 7.95008 4.18031 7.61674 4.18031H7.34629C7.12538 4.18031 6.94629 4.35939 6.94629 4.58031V7.20076Z" fill="url(#paint1_linear_620_224)"/>
<defs>
<linearGradient id="paint0_linear_620_224" x1="7.8999" y1="15.2998" x2="7.8999" y2="0.299805" gradientUnits="userSpaceOnUse">
<stop stop-color="#FF1B71"/>
<stop offset="0.9998" stop-color="#FF867E"/>
<stop offset="0.9999" stop-color="#FF6678"/>
</linearGradient>
<linearGradient id="paint1_linear_620_224" x1="8.0514" y1="8.79963" x2="8.0514" y2="2.98145" gradientUnits="userSpaceOnUse">
<stop stop-color="#FF1B71"/>
<stop offset="0.9998" stop-color="#FF867E"/>
<stop offset="0.9999" stop-color="#FF6678"/>
</linearGradient>
</defs>
</svg>
