<svg width="16" height="16" viewBox="0 0 16 16" fill="none" xmlns="http://www.w3.org/2000/svg">
<path fill-rule="evenodd" clip-rule="evenodd" d="M6.13 2.85879C6.13 2.44169 6.47134 2.10036 6.88843 2.10036H9.24798C9.45648 2.10036 9.64344 2.18299 9.78362 2.32316C9.92379 2.46333 10.0064 2.65027 10.0064 2.85879C10.0064 3.27587 9.66507 3.61721 9.24798 3.61721H6.88843C6.67993 3.61721 6.49296 3.53458 6.35278 3.3944C6.21262 3.25424 6.13 3.06729 6.13 2.85879ZM11.3079 1.89219C11.3751 2.03499 11.5054 2.14129 11.6611 2.16668C12.1899 2.25288 12.7119 2.43729 13.1529 2.79911C13.8764 3.39269 14.2199 4.32389 14.2199 5.55541V12.1285C14.2199 13.295 13.866 14.2061 13.1675 14.8092C12.4899 15.3944 11.6087 15.5835 10.7648 15.5835H5.37157C4.52766 15.5835 3.64651 15.3944 2.96885 14.8092C2.2704 14.2061 1.9165 13.295 1.9165 12.1285V5.55541C1.9165 4.32389 2.25996 3.39269 2.98351 2.79911C3.42459 2.43725 3.94669 2.25284 4.47545 2.16665C4.63122 2.14127 4.76147 2.03497 4.82872 1.8922C5.19271 1.11948 5.97902 0.583496 6.88843 0.583496H9.24798C9.87544 0.583496 10.4436 0.837949 10.8563 1.25058C11.0416 1.43597 11.195 1.65275 11.3079 1.89219ZM11.6979 3.72606C11.5149 3.67292 11.3339 3.78741 11.2418 3.95434C10.8542 4.65709 10.1059 5.13407 9.24798 5.13407H6.88843C6.26096 5.13407 5.69284 4.87961 5.2802 4.46698C5.07388 4.26065 4.90712 4.01547 4.79193 3.74344C4.77096 3.6939 4.71961 3.66321 4.6667 3.67287C4.35404 3.72998 4.11789 3.83047 3.94558 3.97183C3.69328 4.17881 3.43336 4.59592 3.43336 5.55541V12.1285C3.43336 12.9844 3.68285 13.4217 3.96025 13.6612C4.25843 13.9187 4.72559 14.0666 5.37157 14.0666H10.7648C11.4108 14.0666 11.878 13.9187 12.1761 13.6612C12.4536 13.4217 12.7031 12.9844 12.7031 12.1285V5.55541C12.7031 4.59592 12.4431 4.17881 12.1908 3.97183C12.0633 3.86716 11.9007 3.7849 11.6979 3.72606ZM4.61314 8.75767C4.61314 8.33881 4.95271 7.99924 5.37157 7.99924H8.06821C8.48707 7.99924 8.82664 8.33881 8.82664 8.75767C8.82664 9.17654 8.48707 9.5161 8.06821 9.5161H5.37157C4.95271 9.5161 4.61314 9.17654 4.61314 8.75767ZM5.37157 10.6959C4.95271 10.6959 4.61314 11.0355 4.61314 11.4543C4.61314 11.8732 4.95271 12.2127 5.37157 12.2127H10.7648C11.1837 12.2127 11.5233 11.8732 11.5233 11.4543C11.5233 11.0355 11.1837 10.6959 10.7648 10.6959H5.37157Z" fill="url(#paint0_linear_620_179)" stroke="url(#paint1_linear_620_179)" stroke-width="0.4"/>
<defs>
<linearGradient id="paint0_linear_620_179" x1="8.06821" y1="15.5835" x2="8.06821" y2="0.583496" gradientUnits="userSpaceOnUse">
<stop stop-color="#A93AFF"/>
<stop offset="1" stop-color="#FF81FF"/>
</linearGradient>
<linearGradient id="paint1_linear_620_179" x1="8.06821" y1="15.5835" x2="8.06821" y2="0.583496" gradientUnits="userSpaceOnUse">
<stop stop-color="#A93AFF"/>
<stop offset="1" stop-color="#FF81FF"/>
</linearGradient>
</defs>
</svg>
