<svg width="16" height="16" viewBox="0 0 16 16" fill="none" xmlns="http://www.w3.org/2000/svg">
<path d="M11.2771 1H4.7002C3.31948 1 2.2002 2.11929 2.2002 3.5V12.5C2.2002 13.8807 3.31948 15 4.7002 15H11.2771C12.6578 15 13.7771 13.8807 13.7771 12.5V3.5C13.7771 2.11929 12.6578 1 11.2771 1Z" stroke="url(#paint0_linear_507_407)" stroke-width="1.6"/>
<path fill-rule="evenodd" clip-rule="evenodd" d="M5.29855 4.09835C6.00181 3.39509 6.95563 3 7.9502 3C8.94476 3 9.89858 3.39509 10.6018 4.09835C11.3051 4.80161 11.7002 5.75544 11.7002 6.75C11.7011 7.31349 11.5745 7.86987 11.3299 8.37749C11.1433 8.76464 10.8918 9.11577 10.5872 9.41609C10.4298 9.57123 10.1763 9.54087 10.039 9.36775L9.10545 8.19113C9.09363 8.17623 9.08306 8.16038 9.07274 8.1444C8.98824 8.01353 8.85807 7.9182 8.70703 7.87741C8.54676 7.83413 8.3759 7.85572 8.23144 7.9375L7.69395 8.25C7.55056 8.33365 7.44589 8.47041 7.40261 8.63067C7.35932 8.79093 7.38091 8.96179 7.4627 9.10625L7.79691 9.95317C7.90049 10.2157 7.706 10.4984 7.42689 10.4568C5.58135 10.1818 4.2002 8.62505 4.2002 6.75C4.2002 5.75544 4.59528 4.80161 5.29855 4.09835ZM4.38325 11.9331C4.50046 11.8158 4.65943 11.75 4.8252 11.75C4.99096 11.75 5.14993 11.8158 5.26714 11.9331C5.38435 12.0503 5.4502 12.2092 5.4502 12.375C5.4502 12.5408 5.38435 12.6997 5.26714 12.8169C5.14993 12.9342 4.99096 13 4.8252 13C4.65943 13 4.50046 12.9342 4.38325 12.8169C4.26604 12.6997 4.2002 12.5408 4.2002 12.375C4.2002 12.2092 4.26604 12.0503 4.38325 11.9331ZM8.12022 9.08206C8.05479 8.91627 8.12031 8.72755 8.2744 8.63797C8.42918 8.54798 8.62654 8.58518 8.73794 8.72535L10.8931 11.4372C11.0451 11.6284 10.9917 11.9099 10.7805 12.0322L9.96471 12.5047C9.75306 12.6272 9.48194 12.5329 9.39217 12.3054L8.12022 9.08206ZM7.95114 3.8C8.22728 3.8 8.45114 4.02386 8.45114 4.3V4.82627C8.45114 4.93673 8.54068 5.02627 8.65113 5.02627H9.20228C9.47842 5.02627 9.70228 5.25013 9.70228 5.52627C9.70228 5.80241 9.47842 6.02627 9.20228 6.02627H8.65114C8.54068 6.02627 8.45114 6.11581 8.45114 6.22627V6.81046C8.45114 7.0866 8.22728 7.31046 7.95114 7.31046C7.67499 7.31046 7.45114 7.0866 7.45114 6.81046V6.22627C7.45114 6.11581 7.36159 6.02627 7.25114 6.02627H6.7002C6.42405 6.02627 6.2002 5.80241 6.2002 5.52627C6.2002 5.25013 6.42405 5.02627 6.7002 5.02627H7.25114C7.36159 5.02627 7.45114 4.93673 7.45114 4.82627V4.3C7.45114 4.02386 7.67499 3.8 7.95114 3.8Z" fill="url(#paint1_linear_507_407)"/>
<defs>
<linearGradient id="paint0_linear_507_407" x1="3.02712" y1="15" x2="13.2331" y2="2.04736" gradientUnits="userSpaceOnUse">
<stop stop-color="#80EA32"/>
<stop offset="1" stop-color="#B3FF7B"/>
</linearGradient>
<linearGradient id="paint1_linear_507_407" x1="4.73591" y1="13" x2="12.1603" y2="4.45402" gradientUnits="userSpaceOnUse">
<stop stop-color="#80EA32"/>
<stop offset="1" stop-color="#B3FF7B"/>
</linearGradient>
</defs>
</svg>
