<svg width="32" height="32" viewBox="0 0 32 32" fill="none" xmlns="http://www.w3.org/2000/svg">
<path d="M13.4649 27.8476C13.1737 27.6947 12.8261 27.6947 12.5349 27.8476L9.84912 29.2582C9.11545 29.6435 8.25836 29.0205 8.39856 28.2037L8.91086 25.2192C8.96659 24.8946 8.85886 24.5633 8.62284 24.3335L6.45295 22.2211C5.85884 21.6427 6.18621 20.6341 7.00674 20.5149L10.0075 20.079C10.3331 20.0317 10.6146 19.8273 10.7603 19.5324L12.1034 16.8143C12.4704 16.0717 13.5294 16.0717 13.8964 16.8143L15.2395 19.5324C15.3852 19.8273 15.6667 20.0317 15.9923 20.079L18.9931 20.5149C19.8136 20.6341 20.1409 21.6427 19.5468 22.2211L17.377 24.3335C17.1409 24.5633 17.0332 24.8946 17.0889 25.2192L17.6012 28.2037C17.7414 29.0205 16.8843 29.6435 16.1507 29.2582L13.4649 27.8476Z" fill="url(#paint0_linear_1005_457)"/>
<path d="M23.4649 17.2722C23.1737 17.1193 22.8261 17.1193 22.5349 17.2722L20.4671 18.3582C19.7335 18.7435 18.8764 18.1205 19.0166 17.3037L19.4109 15.0066C19.4666 14.682 19.3589 14.3507 19.1228 14.1209L17.453 12.4953C16.8589 11.9169 17.1862 10.9083 18.0067 10.7891L20.3166 10.4535C20.6421 10.4062 20.9236 10.2019 21.0693 9.90694L22.1034 7.81432C22.4704 7.07166 23.5294 7.07166 23.8964 7.81432L24.9305 9.90694C25.0762 10.2019 25.3577 10.4062 25.6832 10.4535L27.9931 10.7891C28.8136 10.9083 29.1409 11.9169 28.5468 12.4953L26.877 14.1209C26.6409 14.3507 26.5332 14.682 26.5889 15.0066L26.9832 17.3037C27.1234 18.1205 26.2663 18.7435 25.5327 18.3582L23.4649 17.2722Z" fill="url(#paint1_linear_1005_457)"/>
<path d="M10.4649 11.6968C10.1737 11.5439 9.82605 11.5439 9.53492 11.6968L8.08512 12.4582C7.35145 12.8435 6.49436 12.2205 6.63456 11.4037L6.91086 9.79408C6.96659 9.46942 6.85886 9.13815 6.62284 8.90837L5.45295 7.76945C4.85885 7.19108 5.18621 6.18252 6.00674 6.06331L7.62563 5.82812C7.95118 5.78083 8.23264 5.57644 8.37838 5.28152L9.10337 3.81432C9.47035 3.07166 10.5294 3.07166 10.8964 3.81432L11.6214 5.28152C11.7671 5.57644 12.0486 5.78083 12.3742 5.82812L13.9931 6.06331C14.8136 6.18252 15.1409 7.19108 14.5468 7.76945L13.377 8.90837C13.1409 9.13815 13.0332 9.46942 13.0889 9.79408L13.3652 11.4037C13.5054 12.2205 12.6483 12.8435 11.9147 12.4582L10.4649 11.6968Z" fill="url(#paint2_linear_1005_457)"/>
<defs>
<linearGradient id="paint0_linear_1005_457" x1="12.9999" y1="30.2" x2="12.9999" y2="15" gradientUnits="userSpaceOnUse">
<stop stop-color="#FD5900"/>
<stop offset="1" stop-color="#FFDE00"/>
</linearGradient>
<linearGradient id="paint1_linear_1005_457" x1="22.9999" y1="19.3" x2="22.9999" y2="6.00001" gradientUnits="userSpaceOnUse">
<stop stop-color="#FD5900"/>
<stop offset="1" stop-color="#FFDE00"/>
</linearGradient>
<linearGradient id="paint2_linear_1005_457" x1="9.99989" y1="13.4" x2="9.99989" y2="2.00001" gradientUnits="userSpaceOnUse">
<stop stop-color="#FD5900"/>
<stop offset="1" stop-color="#FFDE00"/>
</linearGradient>
</defs>
</svg>
