<svg width="48" height="48" viewBox="0 0 48 48" fill="none" xmlns="http://www.w3.org/2000/svg">
<path d="M24.9055 1.2607C24.5603 1.24698 24.2467 1.46118 24.1265 1.78511V1.78511C24.1261 1.78641 24.1264 1.78557 24.1259 1.78688C23.5966 3.23712 21.3081 9.94297 22.6616 13.7328C22.7906 14.094 23.1653 14.3166 23.509 14.1466C23.7409 14.032 23.9891 13.836 24.1525 13.5011C24.3745 13.0551 22.5445 21.4501 23.9995 23.9961C23.9995 23.9961 25.5105 20.0471 28.5925 17.9931C28.598 17.9889 28.6735 17.9516 28.7291 17.9205C28.7724 17.8963 28.7316 17.8314 28.6914 17.8023V17.8023C28.1195 17.3885 27.3585 16.8304 27.4533 16.1309C28.4226 8.97833 34.262 5.47725 35.3364 4.8898C35.3388 4.88851 35.3373 4.88943 35.3396 4.88809V4.88809C35.5759 4.75199 35.5847 4.40907 35.3482 4.27307C32.1625 2.44031 28.5788 1.40674 24.9055 1.2607ZM23.9995 23.9961C23.9995 23.9961 28.0952 23.9259 30.9943 26.0799C31.1075 26.1641 31.2061 26.2744 31.3221 26.3548C31.3295 26.3599 31.3344 26.3618 31.3355 26.3591C31.3392 26.3509 31.3427 26.3427 31.3461 26.3345C31.6229 25.6748 31.9336 24.6995 32.6391 24.5812C39.5104 23.4286 44.5038 27.4719 45.7345 28.5951V28.5951C45.926 28.7626 46.2263 28.6659 46.2786 28.417C46.5838 26.9647 46.7467 25.4852 46.7635 24.0001C46.7626 21.5265 46.3584 19.071 45.5678 16.7299C45.4604 16.4118 45.1518 16.2089 44.8165 16.2261V16.2261C43.3132 16.2716 36.7527 16.6239 33.7204 19.2102C33.4234 19.4635 33.3481 19.9024 33.6426 20.1586C33.8332 20.3243 34.1025 20.4743 34.4675 20.5051C34.9735 20.5421 25.8895 21.7411 23.9995 23.9961ZM23.9995 23.9961V23.9961C23.9995 23.997 24 23.9984 23.9993 23.9979C23.9644 23.9737 20.5686 21.6003 19.69 18.1129C19.6712 18.0383 19.6606 17.9613 19.651 17.885C19.6439 17.8288 19.6347 17.7745 19.6265 17.7801C19.6092 17.7891 19.5923 17.7984 19.5758 17.8078C18.9605 18.1592 18.1273 18.7205 17.5038 18.3839C11.1954 14.9787 9.90148 8.42636 9.69153 7.01112V7.01112C9.66402 6.74671 9.35467 6.61943 9.15303 6.79265C5.96924 9.52759 3.60247 13.0913 2.31666 17.0876C2.20836 17.4242 2.32667 17.7905 2.60453 18.0091V18.0091C3.59746 18.7348 9.35021 22.7983 13.4947 22.5721C13.8796 22.5511 14.2041 22.2546 14.1321 21.8759C14.0849 21.6279 13.9647 21.344 13.6915 21.0991C13.3175 20.7621 21.1045 24.6511 23.9995 24.0001C24.0045 24.012 25.6757 28.002 24.5654 31.4352C24.536 31.5261 24.495 31.6143 24.4562 31.7016C24.4378 31.7429 24.4245 31.7781 24.4325 31.7781C24.4589 31.7799 24.4849 31.781 24.5105 31.7814C25.2155 31.7932 26.2064 31.7568 26.5564 32.3689C29.9689 38.3365 27.778 44.4013 27.0915 45.9931V45.9931C26.9745 46.2389 27.1756 46.5156 27.4446 46.4736C31.1156 45.901 34.5917 44.4376 37.5679 42.2118C37.8279 42.0174 37.9327 41.6794 37.8375 41.3691V41.3691C37.2688 39.7503 34.8783 33.4576 31.5013 31.3816C31.1764 31.1818 30.7461 31.2382 30.5842 31.5835C30.4757 31.8146 30.4058 32.1187 30.4885 32.4791C30.5975 32.9671 26.7495 25.0971 23.9995 23.9961ZM23.9995 24.0001C23.9995 24.0001 20.4955 26.8501 16.7855 26.6191C16.7735 26.6191 16.5555 26.5741 16.5615 26.5921C16.5639 26.6034 16.5663 26.6146 16.5688 26.6257C16.729 27.3229 17.0317 28.2946 16.5199 28.7945C11.4977 33.6997 5.11761 33.1268 3.65153 32.9211V32.9211C3.39403 32.8715 3.18619 33.1284 3.29396 33.3674C5.04684 37.2559 7.85781 40.5755 11.4062 42.9441C11.6804 43.1272 12.0436 43.0921 12.2845 42.8671V42.8671C13.5904 41.8354 18.8279 37.4978 19.6831 33.6477C19.767 33.27 19.5642 32.8788 19.1786 32.8463C18.9229 32.8248 18.6117 32.8637 18.2975 33.0611C17.8695 33.3251 23.8685 26.9211 23.9995 24.0001Z" fill="url(#paint0_linear_1061_117)"/>
<defs>
<linearGradient id="paint0_linear_1061_117" x1="44.7421" y1="2.02399" x2="3.29219" y2="44.9282" gradientUnits="userSpaceOnUse">
<stop stop-color="#D800BD"/>
<stop offset="0.408098" stop-color="#F92D7A"/>
<stop offset="0.590073" stop-color="#FF4A52"/>
<stop offset="1" stop-color="#FFB243"/>
</linearGradient>
</defs>
</svg>
