<svg width="16" height="16" viewBox="0 0 16 16" fill="none" xmlns="http://www.w3.org/2000/svg">
<path d="M10.4391 0.856762C10.1724 0.699144 9.83554 0.891355 9.83554 1.2011V4.2989C9.83554 4.60864 10.1724 4.80086 10.4391 4.64324L13.0594 3.09434C13.3213 2.9395 13.3213 2.5605 13.0594 2.40566L10.4391 0.856762ZM8.31299 1.25C6.92533 1.25034 5.57048 1.66578 4.42775 2.44135C3.37433 3.15629 2.54694 4.1462 2.03644 5.29712C1.96143 5.46622 2.03026 5.66228 2.18951 5.75642V5.75642C2.39361 5.87707 2.65659 5.78186 2.75399 5.56569C3.19857 4.57897 3.90654 3.72589 4.80615 3.09971C5.83202 2.38563 7.0569 2.00152 8.31299 2C8.42635 2.00084 8.53963 2.00479 8.65271 2.01186C8.8767 2.02585 9.07427 1.85355 9.07427 1.62912V1.62912C9.07427 1.44118 8.93396 1.28175 8.74652 1.26807C8.60226 1.25754 8.45768 1.25151 8.31299 1.25ZM8.31299 3.5C7.3179 3.50019 6.35011 3.82052 5.55677 4.41227C4.84086 4.94626 4.30235 5.67491 4.00552 6.5054C3.94871 6.66437 4.01937 6.83817 4.16484 6.92384V6.92384C4.38098 7.05114 4.65909 6.93065 4.74747 6.69589C4.98602 6.06227 5.39524 5.50076 5.93541 5.07414C6.60993 4.5414 7.44845 4.25075 8.31299 4.25C8.41846 4.25006 8.52382 4.25443 8.6288 4.2631C8.86076 4.28225 9.07427 4.10876 9.07427 3.87601V3.87601C9.07427 3.69614 8.9445 3.54095 8.76552 3.52304C8.61522 3.508 8.46419 3.5003 8.31299 3.5ZM13.7666 3.91586C13.6541 3.77026 13.4504 3.737 13.2921 3.83076V3.83076C13.088 3.9517 13.0453 4.22852 13.1889 4.41746C13.9721 5.44841 14.4004 6.70421 14.4032 8C14.4022 9.29826 13.9739 10.5569 13.1893 11.59C13.0476 11.7765 13.09 12.0496 13.2915 12.1688V12.1688C13.4476 12.2612 13.6484 12.2284 13.7595 12.0851C14.667 10.9137 15.1622 9.4792 15.1645 8C15.1641 6.52185 14.6713 5.08779 13.7666 3.91586ZM11.7649 5.05786C11.6537 4.93144 11.4679 4.90904 11.3229 4.99471V4.99471C11.1092 5.12102 11.0793 5.41879 11.2394 5.60846C11.4663 5.87724 11.6545 6.17661 11.7979 6.49818C12.009 6.97159 12.1185 7.4829 12.1194 8C12.1187 8.51696 12.0094 9.02822 11.7986 9.50163C11.6554 9.82326 11.4673 10.1227 11.2405 10.3916C11.0804 10.5814 11.1102 10.8791 11.3237 11.0058V11.0058C11.469 11.092 11.6555 11.0696 11.767 10.9427C12.4828 10.1279 12.8802 9.08393 12.8807 8C12.8795 6.91601 12.4813 5.87226 11.7649 5.05786ZM1.30374 6.10676C1.03709 5.94914 0.700195 6.14136 0.700195 6.4511V9.5489C0.700195 9.85864 1.03709 10.0509 1.30374 9.89324L3.92405 8.34434C4.18599 8.1895 4.18599 7.8105 3.92405 7.65566L1.30374 6.10676ZM4.74864 9.30242C4.66048 9.06791 4.38259 8.94762 4.16683 9.07497V9.07497C4.0219 9.16052 3.95153 9.33376 4.00808 9.49226C4.30445 10.3229 4.84257 11.0519 5.55819 11.5863C6.35096 12.1782 7.31822 12.4991 8.31299 12.5C8.46477 12.4991 8.61635 12.4908 8.76717 12.4751C8.94538 12.4565 9.07427 12.3017 9.07427 12.1225V12.1225C9.07427 11.8894 8.8599 11.7158 8.62759 11.7358C8.52303 11.7448 8.41807 11.7495 8.31299 11.75C7.44851 11.7488 6.61017 11.4578 5.93592 10.9248C5.39591 10.4979 4.98691 9.9362 4.74864 9.30242ZM2.75055 10.4311C2.65434 10.2173 2.39424 10.1231 2.19237 10.2425V10.2425C2.03488 10.3356 1.96678 10.5294 2.04078 10.6967C2.55035 11.8487 3.37727 12.8397 4.43062 13.5558C5.57222 14.3318 6.926 14.7483 8.31299 14.75C8.4565 14.7493 8.59992 14.7442 8.74305 14.7347C8.93216 14.722 9.07427 14.5615 9.07427 14.372V14.372C9.07427 14.1463 8.87541 13.9733 8.65024 13.9877C8.53798 13.9948 8.42553 13.999 8.31299 14C7.05682 13.9989 5.83175 13.6151 4.80559 12.9013C3.90434 12.2744 3.19527 11.4197 2.75055 10.4311ZM10.4391 11.3568C10.1724 11.1991 9.83554 11.3914 9.83554 11.7011V14.7989C9.83554 15.1086 10.1724 15.3009 10.4391 15.1432L13.0594 13.5943C13.3213 13.4395 13.3213 13.0605 13.0594 12.9057L10.4391 11.3568Z" fill="url(#paint0_linear_670_256)" stroke="url(#paint1_linear_670_256)" stroke-width="0.4"/>
<defs>
<linearGradient id="paint0_linear_670_256" x1="7.93234" y1="0.5" x2="7.93234" y2="15.5" gradientUnits="userSpaceOnUse">
<stop stop-color="#BAFA52"/>
<stop offset="1" stop-color="#3F8F5B"/>
</linearGradient>
<linearGradient id="paint1_linear_670_256" x1="7.93234" y1="0.5" x2="7.93234" y2="15.5" gradientUnits="userSpaceOnUse">
<stop stop-color="#BAFA52"/>
<stop offset="1" stop-color="#3F8F5B"/>
</linearGradient>
</defs>
</svg>
