<svg width="16" height="16" viewBox="0 0 16 16" fill="none" xmlns="http://www.w3.org/2000/svg">
<path d="M1 8C1 4.9359 1 3.40385 2.0248 2.4516C3.051 1.5 4.7002 1.5 8 1.5C11.2998 1.5 12.9497 1.5 13.9745 2.4516C15 3.4045 15 4.9359 15 8C15 11.0641 15 12.5961 13.9745 13.5477C12.9504 14.5 11.2998 14.5 8 14.5C4.7002 14.5 3.0503 14.5 2.0248 13.5477C1 12.5968 1 11.0641 1 8Z" stroke="url(#paint0_linear_643_128)" stroke-width="1.8"/>
<path d="M4.4 10.5C4.29391 10.5 4.19217 10.5421 4.11715 10.6172C4.04214 10.6922 4 10.7939 4 10.9V11.7C4 11.8061 4.04214 11.9078 4.11715 11.9828C4.19217 12.0579 4.29391 12.1 4.4 12.1H5.2C5.30609 12.1 5.40783 12.0579 5.48285 11.9828C5.55785 11.9078 5.6 11.8061 5.6 11.7V10.9C5.6 10.7939 5.55785 10.6922 5.48285 10.6172C5.40783 10.5421 5.30609 10.5 5.2 10.5H4.4Z" fill="url(#paint1_linear_643_128)"/>
<path d="M7.2 10.9C7.2 10.7939 7.24215 10.6922 7.31715 10.6172C7.39217 10.5421 7.49391 10.5 7.6 10.5H8.4C8.50609 10.5 8.60783 10.5421 8.68285 10.6172C8.75786 10.6922 8.8 10.7939 8.8 10.9V11.7C8.8 11.8061 8.75786 11.9078 8.68285 11.9828C8.60783 12.0579 8.50609 12.1 8.4 12.1H7.6C7.49391 12.1 7.39217 12.0579 7.31715 11.9828C7.24215 11.9078 7.2 11.8061 7.2 11.7V10.9Z" fill="url(#paint2_linear_643_128)"/>
<path d="M10.8 10.5C10.6939 10.5 10.5922 10.5421 10.5172 10.6172C10.4421 10.6922 10.4 10.7939 10.4 10.9V11.7C10.4 11.8061 10.4421 11.9078 10.5172 11.9828C10.5922 12.0579 10.6939 12.1 10.8 12.1H11.6C11.7061 12.1 11.8078 12.0579 11.8828 11.9828C11.9579 11.9078 12 11.8061 12 11.7V10.9C12 10.7939 11.9579 10.6922 11.8828 10.6172C11.8078 10.5421 11.7061 10.5 11.6 10.5H10.8Z" fill="url(#paint3_linear_643_128)"/>
<path d="M4.4 10.5C4.29391 10.5 4.19217 10.5421 4.11715 10.6172C4.04214 10.6922 4 10.7939 4 10.9V11.7C4 11.8061 4.04214 11.9078 4.11715 11.9828C4.19217 12.0579 4.29391 12.1 4.4 12.1H5.2C5.30609 12.1 5.40783 12.0579 5.48285 11.9828C5.55785 11.9078 5.6 11.8061 5.6 11.7V10.9C5.6 10.7939 5.55785 10.6922 5.48285 10.6172C5.40783 10.5421 5.30609 10.5 5.2 10.5H4.4Z" stroke="url(#paint4_linear_643_128)"/>
<path d="M7.2 10.9C7.2 10.7939 7.24215 10.6922 7.31715 10.6172C7.39217 10.5421 7.49391 10.5 7.6 10.5H8.4C8.50609 10.5 8.60783 10.5421 8.68285 10.6172C8.75786 10.6922 8.8 10.7939 8.8 10.9V11.7C8.8 11.8061 8.75786 11.9078 8.68285 11.9828C8.60783 12.0579 8.50609 12.1 8.4 12.1H7.6C7.49391 12.1 7.39217 12.0579 7.31715 11.9828C7.24215 11.9078 7.2 11.8061 7.2 11.7V10.9Z" stroke="url(#paint5_linear_643_128)"/>
<path d="M10.8 10.5C10.6939 10.5 10.5922 10.5421 10.5172 10.6172C10.4421 10.6922 10.4 10.7939 10.4 10.9V11.7C10.4 11.8061 10.4421 11.9078 10.5172 11.9828C10.5922 12.0579 10.6939 12.1 10.8 12.1H11.6C11.7061 12.1 11.8078 12.0579 11.8828 11.9828C11.9579 11.9078 12 11.8061 12 11.7V10.9C12 10.7939 11.9579 10.6922 11.8828 10.6172C11.8078 10.5421 11.7061 10.5 11.6 10.5H10.8Z" stroke="url(#paint6_linear_643_128)"/>
<defs>
<linearGradient id="paint0_linear_643_128" x1="1" y1="8" x2="15" y2="8" gradientUnits="userSpaceOnUse">
<stop stop-color="#FFC152"/>
<stop offset="1" stop-color="#FF5F5F"/>
</linearGradient>
<linearGradient id="paint1_linear_643_128" x1="4" y1="11.3" x2="12" y2="11.3" gradientUnits="userSpaceOnUse">
<stop stop-color="#FFC152"/>
<stop offset="1" stop-color="#FF5F5F"/>
</linearGradient>
<linearGradient id="paint2_linear_643_128" x1="4" y1="11.3" x2="12" y2="11.3" gradientUnits="userSpaceOnUse">
<stop stop-color="#FFC152"/>
<stop offset="1" stop-color="#FF5F5F"/>
</linearGradient>
<linearGradient id="paint3_linear_643_128" x1="4" y1="11.3" x2="12" y2="11.3" gradientUnits="userSpaceOnUse">
<stop stop-color="#FFC152"/>
<stop offset="1" stop-color="#FF5F5F"/>
</linearGradient>
<linearGradient id="paint4_linear_643_128" x1="4" y1="11.3" x2="12" y2="11.3" gradientUnits="userSpaceOnUse">
<stop stop-color="#FFC152"/>
<stop offset="1" stop-color="#FF5F5F"/>
</linearGradient>
<linearGradient id="paint5_linear_643_128" x1="4" y1="11.3" x2="12" y2="11.3" gradientUnits="userSpaceOnUse">
<stop stop-color="#FFC152"/>
<stop offset="1" stop-color="#FF5F5F"/>
</linearGradient>
<linearGradient id="paint6_linear_643_128" x1="4" y1="11.3" x2="12" y2="11.3" gradientUnits="userSpaceOnUse">
<stop stop-color="#FFC152"/>
<stop offset="1" stop-color="#FF5F5F"/>
</linearGradient>
</defs>
</svg>
