<svg width="16" height="16" viewBox="0 0 16 16" fill="none" xmlns="http://www.w3.org/2000/svg">
<g clip-path="url(#clip0_597_84)">
<path fill-rule="evenodd" clip-rule="evenodd" d="M6.73483 0.433105H6.77311H9.22644H9.26472H9.26473C10.1843 0.433096 10.9291 0.433089 11.5328 0.482417C12.1555 0.533287 12.7069 0.641069 13.2186 0.901778C14.0277 1.31403 14.6855 1.97185 15.0978 2.78095C15.3585 3.29262 15.4663 3.84409 15.5171 4.4667C15.5665 5.07046 15.5664 5.81523 15.5664 6.73482V6.77311V9.22644V9.26473C15.5664 10.1843 15.5665 10.9291 15.5171 11.5328C15.4663 12.1555 15.3585 12.7069 15.0978 13.2186C14.6855 14.0277 14.0277 14.6855 13.2186 15.0978C12.7069 15.3585 12.1555 15.4663 11.5328 15.5171C10.9291 15.5665 10.1843 15.5664 9.26472 15.5664H9.22644H6.7731H6.73482C5.81522 15.5664 5.07045 15.5665 4.4667 15.5171C3.84409 15.4663 3.29262 15.3585 2.78095 15.0978C1.97185 14.6855 1.31403 14.0277 0.901778 13.2186C0.641068 12.7069 0.533287 12.1555 0.482417 11.5328C0.433089 10.9291 0.433096 10.1843 0.433105 9.26473V9.26472V9.22644V6.7731V6.73482V6.73481C0.433096 5.81522 0.433089 5.07045 0.482417 4.4667C0.533287 3.84409 0.641069 3.29262 0.901778 2.78095C1.31403 1.97185 1.97185 1.31403 2.78095 0.901778C3.29262 0.641068 3.84409 0.533287 4.4667 0.482417C5.07045 0.433089 5.81522 0.433096 6.73482 0.433105H6.73483ZM4.61328 2.27644C4.10198 2.31821 3.81376 2.39572 3.59813 2.50559C3.12772 2.74527 2.74527 3.12772 2.50559 3.59813C2.39572 3.81376 2.31821 4.10198 2.27644 4.61328C2.23381 5.13509 2.23311 5.80616 2.23311 6.7731V9.22644C2.23311 10.1934 2.23381 10.8645 2.27644 11.3863C2.31821 11.8976 2.39572 12.1858 2.50559 12.4014C2.74527 12.8718 3.12772 13.2543 3.59813 13.494C3.81376 13.6038 4.10198 13.6813 4.61328 13.7231C5.13509 13.7657 5.80616 13.7664 6.7731 13.7664H9.22644C10.1934 13.7664 10.8645 13.7657 11.3863 13.7231C11.8976 13.6813 12.1858 13.6038 12.4014 13.494C12.8718 13.2543 13.2543 12.8718 13.494 12.4014C13.6038 12.1858 13.6813 11.8976 13.7231 11.3863C13.7657 10.8645 13.7664 10.1934 13.7664 9.22644V6.77311C13.7664 5.80617 13.7657 5.13509 13.7231 4.61328C13.6813 4.10198 13.6038 3.81376 13.494 3.59813C13.2543 3.12772 12.8718 2.74527 12.4014 2.50559C12.1858 2.39572 11.8976 2.31821 11.3863 2.27644C10.8645 2.23381 10.1934 2.23311 9.22644 2.23311H6.77311C5.80617 2.23311 5.13509 2.23381 4.61328 2.27644ZM10.5556 7.5C10.143 7.5 9.74734 7.66389 9.45561 7.95561C9.16389 8.24733 9 8.643 9 9.05556V9.94444C9 10.8031 9.69689 11.5 10.5556 11.5H11.4444C11.857 11.5 12.2527 11.3361 12.5444 11.0444C12.8361 10.7527 13 10.357 13 9.94444V9.05556C13 8.643 12.8361 8.24733 12.5444 7.95561C12.2527 7.66389 11.857 7.5 11.4444 7.5H10.5556ZM10.3333 9.05556C10.3333 8.99662 10.3567 8.9401 10.3984 8.89842C10.4401 8.85675 10.4966 8.83333 10.5556 8.83333H11.4444C11.5034 8.83333 11.5599 8.85675 11.6016 8.89842C11.6433 8.9401 11.6667 8.99662 11.6667 9.05556V9.94444C11.6667 10.0034 11.6433 10.0599 11.6016 10.1016C11.5599 10.1433 11.5034 10.1667 11.4444 10.1667H10.5556C10.4966 10.1667 10.4401 10.1433 10.3984 10.1016C10.3567 10.0599 10.3333 10.0034 10.3333 9.94444V9.05556ZM4.5 4.1C4.00294 4.1 3.6 4.50294 3.6 5C3.6 5.49706 4.00294 5.9 4.5 5.9H11.5C11.9971 5.9 12.4 5.49706 12.4 5C12.4 4.50294 11.9971 4.1 11.5 4.1H4.5ZM3.6 8C3.6 7.50294 4.00294 7.1 4.5 7.1H7.5C7.99706 7.1 8.4 7.50294 8.4 8C8.4 8.49706 7.99706 8.9 7.5 8.9H4.5C4.00294 8.9 3.6 8.49706 3.6 8ZM4.5 10.1C4.00294 10.1 3.6 10.5029 3.6 11C3.6 11.4971 4.00294 11.9 4.5 11.9H7.5C7.99706 11.9 8.4 11.4971 8.4 11C8.4 10.5029 7.99706 10.1 7.5 10.1H4.5Z" fill="url(#paint0_linear_597_84)"/>
</g>
<defs>
<linearGradient id="paint0_linear_597_84" x1="7.99977" y1="15.5664" x2="7.99977" y2="1.3233" gradientUnits="userSpaceOnUse">
<stop stop-color="#18AEFA"/>
<stop offset="1" stop-color="#83E1FF"/>
</linearGradient>
<clipPath id="clip0_597_84">
<rect width="16" height="16" fill="white"/>
</clipPath>
</defs>
</svg>
