<svg width="16" height="16" viewBox="0 0 16 16" fill="none" xmlns="http://www.w3.org/2000/svg">
<path d="M3.07812 8.61719C2.56036 8.61719 2.14062 8.19745 2.14062 7.67969L2.14062 1.9375C2.14062 1.41973 2.56036 1 3.07812 1C3.59589 1 4.01562 1.41973 4.01562 1.9375L4.01562 7.67969C4.01562 8.19745 3.59589 8.61719 3.07812 8.61719Z" fill="url(#paint0_linear_474_154)"/>
<path d="M6.35938 5.33594H9.64062C10.1584 5.33594 10.5781 4.9162 10.5781 4.39844C10.5781 3.88067 10.1584 3.46094 9.64062 3.46094V3.46094C9.35675 3.46094 9.21482 3.46094 9.11323 3.39216C9.07111 3.36363 9.03481 3.32733 9.00628 3.2852C8.9375 3.18362 8.9375 3.04168 8.9375 2.75781L8.9375 1.9375C8.9375 1.41973 8.51777 1 8 1C7.48223 1 7.0625 1.41973 7.0625 1.9375L7.0625 2.75781C7.0625 3.04168 7.0625 3.18362 6.99372 3.2852C6.96519 3.32733 6.92889 3.36363 6.88676 3.39216C6.78518 3.46094 6.64324 3.46094 6.35938 3.46094V3.46094C5.84161 3.46094 5.42188 3.88067 5.42188 4.39844C5.42188 4.9162 5.84161 5.33594 6.35938 5.33594Z" fill="url(#paint1_linear_474_154)"/>
<path d="M2.14062 13.4219C2.14062 13.9396 2.56036 14.3594 3.07812 14.3594C3.59589 14.3594 4.01562 13.9396 4.01562 13.4219L4.01562 12.6016C4.01562 12.3177 4.01562 12.1758 4.08441 12.0742C4.11293 12.032 4.14923 11.9957 4.19136 11.9672C4.29294 11.8984 4.43488 11.8984 4.71875 11.8984V11.8984C5.23652 11.8984 5.65625 11.4787 5.65625 10.9609C5.65625 10.4432 5.23652 10.0234 4.71875 10.0234H1.4375C0.919733 10.0234 0.5 10.4432 0.5 10.9609C0.5 11.4787 0.919733 11.8984 1.4375 11.8984V11.8984C1.72137 11.8984 1.8633 11.8984 1.96489 11.9672C2.00702 11.9957 2.04332 12.032 2.07184 12.0742C2.14062 12.1758 2.14062 12.3177 2.14062 12.6016L2.14062 13.4219Z" fill="url(#paint2_linear_474_154)"/>
<path d="M12.9219 14.3594C12.4041 14.3594 11.9844 13.9396 11.9844 13.4219V13.4219C11.9844 13.138 11.9844 12.9961 11.9156 12.8945C11.8871 12.8524 11.8508 12.8161 11.8086 12.7875C11.7071 12.7188 11.5651 12.7188 11.2812 12.7188V12.7188C10.7635 12.7188 10.3438 12.299 10.3438 11.7812C10.3438 11.2635 10.7635 10.8438 11.2812 10.8438H14.5625C15.0803 10.8438 15.5 11.2635 15.5 11.7812C15.5 12.299 15.0803 12.7188 14.5625 12.7188V12.7188C14.2786 12.7188 14.1367 12.7188 14.0351 12.7875C13.993 12.8161 13.9567 12.8524 13.9282 12.8945C13.8594 12.9961 13.8594 13.138 13.8594 13.4219V13.4219C13.8594 13.9396 13.4396 14.3594 12.9219 14.3594Z" fill="url(#paint3_linear_474_154)"/>
<path d="M7.0625 13.4219C7.0625 13.9396 7.48223 14.3594 8 14.3594C8.51777 14.3594 8.9375 13.9396 8.9375 13.4219L8.9375 7.67969C8.9375 7.16192 8.51777 6.74219 8 6.74219C7.48223 6.74219 7.0625 7.16192 7.0625 7.67969L7.0625 13.4219Z" fill="url(#paint4_linear_474_154)"/>
<path d="M11.9844 8.5C11.9844 9.01777 12.4041 9.4375 12.9219 9.4375C13.4396 9.4375 13.8594 9.01777 13.8594 8.5L13.8594 1.9375C13.8594 1.41973 13.4396 1 12.9219 1C12.4041 1 11.9844 1.41973 11.9844 1.9375L11.9844 8.5Z" fill="url(#paint5_linear_474_154)"/>
<defs>
<linearGradient id="paint0_linear_474_154" x1="8" y1="14.3594" x2="8" y2="1.78585" gradientUnits="userSpaceOnUse">
<stop stop-color="#18AEFA"/>
<stop offset="1" stop-color="#83E1FF"/>
</linearGradient>
<linearGradient id="paint1_linear_474_154" x1="8" y1="14.3594" x2="8" y2="1.78585" gradientUnits="userSpaceOnUse">
<stop stop-color="#18AEFA"/>
<stop offset="1" stop-color="#83E1FF"/>
</linearGradient>
<linearGradient id="paint2_linear_474_154" x1="8" y1="14.3594" x2="8" y2="1.78585" gradientUnits="userSpaceOnUse">
<stop stop-color="#18AEFA"/>
<stop offset="1" stop-color="#83E1FF"/>
</linearGradient>
<linearGradient id="paint3_linear_474_154" x1="8" y1="14.3594" x2="8" y2="1.78585" gradientUnits="userSpaceOnUse">
<stop stop-color="#18AEFA"/>
<stop offset="1" stop-color="#83E1FF"/>
</linearGradient>
<linearGradient id="paint4_linear_474_154" x1="8" y1="14.3594" x2="8" y2="1.78585" gradientUnits="userSpaceOnUse">
<stop stop-color="#18AEFA"/>
<stop offset="1" stop-color="#83E1FF"/>
</linearGradient>
<linearGradient id="paint5_linear_474_154" x1="8" y1="14.3594" x2="8" y2="1.78585" gradientUnits="userSpaceOnUse">
<stop stop-color="#18AEFA"/>
<stop offset="1" stop-color="#83E1FF"/>
</linearGradient>
</defs>
</svg>
