<svg width="16" height="16" viewBox="0 0 16 16" fill="none" xmlns="http://www.w3.org/2000/svg">
<path fill-rule="evenodd" clip-rule="evenodd" d="M7.79219 2.8056C9.18438 2.36663 9.67017 2.22609 10.0602 2.23383C10.9546 2.25159 11.7774 2.72664 12.2399 3.49229C12.4417 3.82621 12.5629 4.31719 12.8788 5.74235C13.0009 6.29339 13.04 6.48021 13.0524 6.6579C13.0804 7.05778 13.0158 7.45872 12.8637 7.82957C12.7961 7.99436 12.7003 8.15946 12.4113 8.64425L10.6871 11.5361C10.0285 12.6407 9.79286 13.0168 9.53129 13.2548C8.89739 13.8315 8.0205 14.0599 7.18578 13.8656C6.84136 13.7855 6.45226 13.5721 5.33847 12.9291C4.22467 12.286 3.84535 12.0557 3.60371 11.7975C3.01811 11.1718 2.77745 10.2982 2.95998 9.46083C3.0353 9.11532 3.24318 8.72326 3.87053 7.60055L5.51284 4.66145C5.78816 4.16873 5.88326 4.00325 5.99216 3.8623C6.23725 3.5451 6.55217 3.28868 6.91247 3.11298C7.07257 3.03491 7.2539 2.97533 7.79219 2.8056ZM10.096 0.434185C9.37001 0.41977 8.57648 0.670351 7.41979 1.03561L7.25091 1.08891L7.19021 1.10804C6.73545 1.25134 6.41872 1.35114 6.12351 1.4951C5.51445 1.79211 4.98209 2.22556 4.56779 2.76177C4.36698 3.02166 4.20505 3.31159 3.97255 3.72786L3.97255 3.72787L3.94151 3.78343L2.2992 6.72252L2.22391 6.85718C1.701 7.79214 1.34126 8.43535 1.20129 9.07745C0.89272 10.4929 1.29954 11.9697 2.28946 13.0275C2.73852 13.5073 3.37689 13.8755 4.30482 14.4108L4.43847 14.4879L4.57207 14.5651C5.49958 15.1011 6.13768 15.4698 6.77775 15.6188C8.18878 15.9472 9.67109 15.5611 10.7427 14.5862C11.2288 14.1439 11.6059 13.5108 12.1542 12.5904L12.2331 12.4579L13.9573 9.56605L13.9899 9.5114C14.2342 9.10191 14.4043 8.8167 14.529 8.51284C14.7862 7.88595 14.8954 7.20818 14.8481 6.53222C14.8251 6.20458 14.7532 5.88038 14.6499 5.41489L14.6361 5.35277L14.5978 5.17986C14.3358 3.99551 14.1561 3.183 13.7806 2.56152C12.9987 1.26724 11.6078 0.464205 10.096 0.434185ZM7.14424 4.61105C6.45349 5.80746 6.86341 7.3373 8.05982 8.02805C9.25623 8.7188 10.7861 8.30888 11.4768 7.11247C12.1676 5.91606 11.7577 4.38621 10.5612 3.69547C9.36483 3.00472 7.83499 3.41464 7.14424 4.61105ZM9.85982 4.91036C10.3853 5.21372 10.5653 5.8856 10.2619 6.41105C9.95857 6.93649 9.28669 7.11652 8.76124 6.81316C8.2358 6.50979 8.05577 5.83791 8.35913 5.31247C8.6625 4.78702 9.33438 4.60699 9.85982 4.91036Z" fill="url(#paint0_linear_525_652)"/>
<defs>
<linearGradient id="paint0_linear_525_652" x1="7.97945" y1="15.7336" x2="7.97945" y2="0.433594" gradientUnits="userSpaceOnUse">
<stop stop-color="#00B59C"/>
<stop offset="1" stop-color="#9CFFAC"/>
</linearGradient>
</defs>
</svg>
