<svg width="32" height="32" viewBox="0 0 32 32" fill="none" xmlns="http://www.w3.org/2000/svg">
<path d="M12.7165 9.2261C12.3997 9.2286 12.0554 9.40737 11.6205 9.75661L11.2821 10.0648C10.8611 10.4484 10.8449 11.1056 11.2467 11.5094L13.2484 13.5214C13.6261 13.901 14.2357 13.9158 14.6313 13.5549L14.8618 13.3446C15.8347 12.3817 15.6775 11.9094 15.1237 11.2342L13.6469 9.75079C13.3226 9.3974 13.0333 9.22361 12.7165 9.2261ZM10.3094 12.2464C9.93175 11.8669 9.32218 11.8521 8.92664 12.213L6.01355 14.8705C4.15094 16.309 2.72737 18.3804 2.24675 20.5249C1.83015 22.6095 2.30412 25.7152 4.88268 27.9579C7.39056 30.1381 10.3233 30.3543 12.2575 29.7689C14.1079 29.2089 15.3098 28.0536 15.4104 27.9547C15.4155 27.9496 15.4199 27.9454 15.425 27.9403C15.4464 27.9194 15.4671 27.8979 15.4871 27.8764L19.8474 23.1958C20.2138 22.8025 20.2038 22.19 19.8247 21.8089L17.8358 19.8098C17.4322 19.4041 16.771 19.4193 16.3864 19.8431L12.5759 24.0414C10.6426 26.1717 8.9638 25.0799 8.03748 24.2933C6.97147 23.2115 6.25885 21.1934 7.59428 19.9744L12.2767 15.7024C12.6973 15.3187 12.7131 14.6618 12.3116 14.2583L10.3094 12.2464ZM19.9973 16.5186C19.5541 16.492 19.1699 16.8487 18.6918 17.3493L18.5579 17.4929C18.1912 17.8862 18.2012 18.499 18.5805 18.8802L20.5794 20.8889C20.9794 21.2908 21.6333 21.2801 22.0199 20.8652L22.21 20.6612C23.291 19.5985 22.9875 19.2169 22.4303 18.5774L20.8937 17.0333C20.5503 16.6882 20.2634 16.5344 19.9973 16.5186Z" fill="url(#paint0_linear_1005_63)"/>
<path fill-rule="evenodd" clip-rule="evenodd" d="M19.901 1.95705C19.3514 1.90285 18.8619 2.30446 18.8077 2.85408C18.7535 3.4037 19.1551 3.89319 19.7048 3.94739C21.36 4.11062 23.3078 5.36243 24.9575 7.10499C26.6077 8.84812 27.7127 10.8204 27.8963 12.1177C27.9737 12.6646 28.4798 13.0451 29.0266 12.9677C29.5735 12.8903 29.954 12.3843 29.8766 11.8374C29.6087 9.94502 28.183 7.60296 26.4098 5.73C24.6361 3.85647 22.2679 2.19046 19.901 1.95705ZM17.28 6.07858C17.3576 5.53177 17.8637 5.15137 18.4106 5.22893C20.6595 5.54793 22.5811 6.91496 23.9925 8.5276C25.4043 10.1406 26.402 12.1066 26.7473 13.8157C26.8567 14.357 26.5065 14.8846 25.9652 14.9939C25.4238 15.1033 24.8963 14.7531 24.787 14.2118C24.5202 12.8916 23.7041 11.2347 22.4876 9.84482C21.2708 8.45461 19.7498 7.43891 18.1297 7.20911C17.5829 7.13154 17.2025 6.62539 17.28 6.07858ZM15.8426 8.95799C16.0188 8.43457 16.586 8.15311 17.1094 8.32933C20.7516 9.55555 22.4043 12.2459 23.5187 14.9967C23.7261 15.5085 23.4792 16.0916 22.9673 16.299C22.4554 16.5063 21.8724 16.2595 21.665 15.7476C20.6424 13.2232 19.305 11.1788 16.4712 10.2248C15.9478 10.0486 15.6664 9.4814 15.8426 8.95799Z" fill="url(#paint1_linear_1005_63)"/>
<defs>
<linearGradient id="paint0_linear_1005_63" x1="14.9801" y1="23.043" x2="0.866399" y2="14.2235" gradientUnits="userSpaceOnUse">
<stop stop-color="#2AD454"/>
<stop offset="1" stop-color="#B3FF5A"/>
</linearGradient>
<linearGradient id="paint1_linear_1005_63" x1="24.5011" y1="11.5211" x2="14.8253" y2="5.61046" gradientUnits="userSpaceOnUse">
<stop stop-color="#2AD454"/>
<stop offset="1" stop-color="#B3FF5A"/>
</linearGradient>
</defs>
</svg>
