<svg width="16" height="16" viewBox="0 0 16 16" fill="none" xmlns="http://www.w3.org/2000/svg">
<path fill-rule="evenodd" clip-rule="evenodd" d="M2.66693 3.5666C2.4276 3.5666 2.23359 3.76061 2.23359 3.99993V11.9999C2.23359 12.2393 2.4276 12.4333 2.66693 12.4333H3.1341C3.22648 12.4333 3.30684 12.37 3.32852 12.2802L3.59003 11.1968C3.68271 10.7857 3.91425 10.4189 4.2458 10.1584C4.57708 9.89812 4.98779 9.75995 5.40878 9.76691H10.5846C10.9848 9.75507 11.3782 9.87462 11.7044 10.1076C12.0364 10.3448 12.2799 10.686 12.3961 11.0772C12.4012 11.0944 12.4058 11.1117 12.4099 11.1291L12.6781 12.2787C12.6993 12.3692 12.78 12.4333 12.8729 12.4333H13.3336C13.5729 12.4333 13.7669 12.2393 13.7669 11.9999V3.99993C13.7669 3.76061 13.5729 3.5666 13.3336 3.5666H2.66693ZM12.0297 14.2333H13.3336C14.567 14.2333 15.5669 13.2334 15.5669 11.9999V3.99993C15.5669 2.7665 14.567 1.7666 13.3336 1.7666H2.66693C1.43349 1.7666 0.433594 2.7665 0.433594 3.99993V11.9999C0.433594 13.2334 1.43349 14.2333 2.66693 14.2333H3.97033C3.99075 14.234 4.01109 14.234 4.03132 14.2333H11.969C11.9891 14.234 12.0093 14.234 12.0297 14.2333ZM10.6138 12.4333C10.7426 12.4333 10.8378 12.3133 10.8086 12.1878L10.6703 11.5953C10.6683 11.5866 10.6654 11.5775 10.6581 11.5723V11.5723C10.6521 11.568 10.6448 11.5658 10.6374 11.5661C10.625 11.5667 10.6125 11.5669 10.6001 11.5669H5.4001L5.37924 11.5667C5.37151 11.5665 5.36396 11.569 5.35788 11.5738C5.3518 11.5786 5.34757 11.5853 5.34591 11.5929L5.34164 11.6114L5.20287 12.1863C5.17249 12.3122 5.26784 12.4333 5.39728 12.4333H10.6138ZM5.33343 6.23359C5.09411 6.23359 4.9001 6.4276 4.9001 6.66693C4.9001 6.90297 5.08883 7.09493 5.32362 7.10015L5.33359 7.1001H5.34544C5.57921 7.09374 5.76676 6.90224 5.76676 6.66693C5.76676 6.4276 5.57275 6.23359 5.33343 6.23359ZM7.76792 7.1001C7.64198 7.1001 7.54787 6.98492 7.55858 6.85944C7.564 6.79599 7.56676 6.73178 7.56676 6.66693C7.56676 5.43349 6.56687 4.43359 5.33343 4.43359C4.1 4.43359 3.1001 5.43349 3.1001 6.66693C3.1001 7.90036 4.1 8.90026 5.33343 8.90026L5.36066 8.9001H10.6397L10.6669 8.90026C11.9004 8.90026 12.9003 7.90036 12.9003 6.66693C12.9003 5.43349 11.9004 4.43359 10.6669 4.43359C9.43349 4.43359 8.43359 5.43349 8.43359 6.66693C8.43359 6.73178 8.43636 6.79599 8.44177 6.85944C8.45249 6.98492 8.35837 7.1001 8.23243 7.1001H7.76792ZM11.1003 6.66693C11.1003 6.90295 10.9116 7.09491 10.6768 7.10015L10.6669 7.1001H10.6549C10.4211 7.09374 10.2336 6.90224 10.2336 6.66693C10.2336 6.4276 10.4276 6.23359 10.6669 6.23359C10.9062 6.23359 11.1003 6.4276 11.1003 6.66693Z" fill="url(#paint0_linear_570_78)"/>
<defs>
<linearGradient id="paint0_linear_570_78" x1="8.00026" y1="14.2338" x2="8.00026" y2="1.7666" gradientUnits="userSpaceOnUse">
<stop stop-color="#00B59C"/>
<stop offset="1" stop-color="#9CFFAC"/>
</linearGradient>
</defs>
</svg>
