<svg width="16" height="16" viewBox="0 0 16 16" fill="none" xmlns="http://www.w3.org/2000/svg">
<path d="M14.1936 11.4185C13.6904 11.4217 13.1639 11.7378 13.1495 12.5111C13.135 13.2962 14.7103 13.1866 14.7156 13.5867C14.7174 13.7254 14.5086 13.8035 14.3708 13.8198C14.1979 13.8401 13.9472 13.7384 13.7545 13.6414C13.5892 13.5582 13.3834 13.589 13.2648 13.731C13.1353 13.8861 13.1589 14.1142 13.3375 14.2084C13.5698 14.331 13.9196 14.4659 14.3368 14.468C14.8453 14.4707 15.5048 14.2233 15.4998 13.4823C15.494 12.5913 13.9512 12.6306 13.9289 12.3266C13.9177 12.1739 14.0778 12.0807 14.2421 12.0862C14.3787 12.0907 14.5532 12.1526 14.7015 12.218C14.8798 12.2966 15.0957 12.247 15.2025 12.084C15.3041 11.9289 15.2709 11.7237 15.1057 11.6393C14.8965 11.5325 14.5793 11.416 14.1936 11.4185ZM2.15811 11.4452C1.4114 11.4309 0.606337 11.98 0.582362 12.9748C0.565358 13.6803 1.20501 14.4706 2.06828 14.4826C2.59319 14.4898 3.018 14.2607 3.22929 14.1194C3.32503 14.0554 3.37452 13.9455 3.37452 13.8303V13.1272C3.37452 12.9063 3.19544 12.7272 2.97452 12.7272H2.39464C2.23987 12.7272 2.11441 12.8526 2.11441 13.0074V13.0454C2.11441 13.189 2.23727 13.3019 2.3804 13.2898C2.518 13.2782 2.63809 13.3824 2.64599 13.5202L2.6469 13.5361C2.65106 13.6086 2.62484 13.6804 2.56326 13.7189C2.48451 13.7682 2.35562 13.8262 2.18239 13.8295C1.64878 13.8395 1.38876 13.4026 1.37145 13.0209C1.35287 12.6111 1.64177 12.1198 2.18968 12.1226C2.28427 12.1231 2.37009 12.1458 2.44535 12.1792C2.65063 12.2703 2.93011 12.2852 3.0721 12.1112C3.1898 11.967 3.16641 11.7567 3.00139 11.6705C2.79996 11.5653 2.50434 11.4519 2.15811 11.4452ZM4.9999 11.4598C4.84136 11.4598 4.69778 11.5534 4.63385 11.6985L3.65412 13.9221C3.53744 14.1869 3.73187 14.4841 4.02124 14.4834L4.0336 14.4833C4.19959 14.4829 4.34805 14.38 4.40671 14.2247L4.41796 14.1949C4.47675 14.0393 4.62576 13.9363 4.79214 13.9363H5.39987C5.56739 13.9363 5.71717 14.0407 5.77515 14.1979L5.78731 14.2308C5.84311 14.3821 5.98727 14.4826 6.14851 14.4826C6.42235 14.4826 6.60864 14.2047 6.50467 13.9514L5.58383 11.7079C5.52222 11.5578 5.37604 11.4598 5.21379 11.4598H4.9999ZM7.21737 11.4598C6.99646 11.4598 6.81737 11.6389 6.81737 11.8598V14.1135C6.81737 14.3174 6.9826 14.4826 7.18642 14.4826C7.39024 14.4826 7.55547 14.3174 7.55547 14.1135V13.7449C7.55547 13.4621 7.9219 13.3505 8.07959 13.5853C8.1951 13.7572 8.45072 13.7513 8.56107 13.576C8.71462 13.332 9.09429 13.4302 9.10241 13.7184L9.11399 14.1296C9.11953 14.3262 9.28043 14.4826 9.47702 14.4826C9.67759 14.4826 9.84018 14.32 9.84018 14.1194V11.8598C9.84018 11.6389 9.6611 11.4598 9.44018 11.4598H9.29769C9.15944 11.4598 9.03099 11.5312 8.95799 11.6486L8.66538 12.1192C8.50874 12.3712 8.14196 12.3709 7.98568 12.1187L7.69463 11.6491C7.6217 11.5314 7.49309 11.4598 7.35463 11.4598H7.21737ZM10.8448 11.4598C10.6239 11.4598 10.4448 11.6389 10.4448 11.8598V14.0826C10.4448 14.3035 10.6239 14.4826 10.8448 14.4826H12.3787C12.5456 14.4826 12.6809 14.3472 12.6809 14.1803C12.6809 14.0134 12.5456 13.878 12.3787 13.878H11.3504C11.1841 13.878 11.0493 13.7432 11.0493 13.577C11.0493 13.4097 11.1856 13.2746 11.3528 13.2759L12.2524 13.2831C12.423 13.2845 12.562 13.1466 12.562 12.976C12.562 12.8064 12.4245 12.6689 12.2549 12.6689H11.3516C11.1847 12.6689 11.0493 12.5336 11.0493 12.3666C11.0493 12.1997 11.1847 12.0643 11.3516 12.0643H12.3787C12.5456 12.0643 12.6809 11.929 12.6809 11.7621C12.6809 11.5951 12.5456 11.4598 12.3787 11.4598H10.8448ZM4.8875 12.9533C4.96212 12.7567 5.24072 12.758 5.31342 12.9553C5.36811 13.1038 5.25827 13.2613 5.10008 13.2613C4.94095 13.2613 4.83104 13.1021 4.8875 12.9533Z" fill="url(#paint0_linear_1005_182)"/>
<path d="M0.9 1.51465C0.679086 1.51465 0.5 1.69373 0.5 1.91465V9.81646C0.5 10.0374 0.679087 10.2165 0.900001 10.2165H2.58623C2.80715 10.2165 2.98623 10.0374 2.98623 9.81646V9.37335C2.98623 9.15243 2.80715 8.97335 2.58623 8.97335H2.14312C1.9222 8.97335 1.74312 8.79426 1.74312 8.57334V6.88711C1.74312 6.6662 1.9222 6.48711 2.14312 6.48711H2.58623C2.80715 6.48711 2.98623 6.30803 2.98623 6.08711V5.644C2.98623 5.42308 2.80715 5.244 2.58623 5.244H2.14312C1.9222 5.244 1.74312 5.06491 1.74312 4.844V3.15776C1.74312 2.93685 1.9222 2.75776 2.14312 2.75776H2.58623C2.80715 2.75776 2.98623 2.57868 2.98623 2.35776V1.91465C2.98623 1.69373 2.80715 1.51465 2.58623 1.51465H0.9Z" fill="url(#paint1_linear_1005_182)"/>
<path fill-rule="evenodd" clip-rule="evenodd" d="M4.62949 1.51465C4.40857 1.51465 4.22949 1.69373 4.22949 1.91465V9.81646C4.22949 10.0374 4.40857 10.2165 4.62949 10.2165H5.0726C5.29352 10.2165 5.4726 10.0374 5.4726 9.81646V8.13023C5.4726 7.90932 5.65169 7.73023 5.8726 7.73023H6.09416C7.12719 7.73023 7.95884 6.89858 7.95884 5.86555V3.37932C7.95884 2.34629 7.12719 1.51465 6.09416 1.51465H4.62949ZM6.09416 2.75776C6.43851 2.75776 6.71572 3.03498 6.71572 3.37932V5.86555C6.71572 6.2099 6.43851 6.48711 6.09416 6.48711C5.74982 6.48711 5.4726 6.2099 5.4726 5.86555V3.37932C5.4726 3.03498 5.74982 2.75776 6.09416 2.75776Z" fill="url(#paint2_linear_1005_182)"/>
<path d="M9.20215 1.91465C9.20215 1.69373 9.38124 1.51465 9.60215 1.51465H10.0452C10.2661 1.51465 10.4452 1.69373 10.4452 1.91465V9.81646C10.4452 10.0374 10.2661 10.2165 10.0452 10.2165H9.60215C9.38124 10.2165 9.20215 10.0374 9.20215 9.81646V1.91465Z" fill="url(#paint3_linear_1005_182)"/>
<path d="M13.5532 1.51465C12.5202 1.51465 11.6885 2.34629 11.6885 3.37932V8.35179C11.6885 9.38482 12.5202 10.2165 13.5532 10.2165C14.5862 10.2165 15.4179 9.38482 15.4179 8.35179V6.88711C15.4179 6.6662 15.2388 6.48711 15.0179 6.48711H14.5748C14.3539 6.48711 14.1748 6.6662 14.1748 6.88711V8.35179C14.1748 8.69613 13.8976 8.97335 13.5532 8.97335C13.2089 8.97335 12.9317 8.69613 12.9317 8.35179V3.37932C12.9317 3.03498 13.2089 2.75776 13.5532 2.75776C13.8976 2.75776 14.1748 3.03498 14.1748 3.37932V4.844C14.1748 5.06491 14.3539 5.244 14.5748 5.244H15.0179C15.2388 5.244 15.4179 5.06491 15.4179 4.844V3.37932C15.4179 2.34629 14.5862 1.51465 13.5532 1.51465Z" fill="url(#paint4_linear_1005_182)"/>
<defs>
<linearGradient id="paint0_linear_1005_182" x1="0.366405" y1="11.4486" x2="1.57984" y2="17.5322" gradientUnits="userSpaceOnUse">
<stop stop-color="#F9D423"/>
<stop offset="0.515624" stop-color="#FF4E50"/>
<stop offset="0.991304" stop-color="#8A2387"/>
</linearGradient>
<linearGradient id="paint1_linear_1005_182" x1="0.28438" y1="1.60027" x2="7.97907" y2="15.1947" gradientUnits="userSpaceOnUse">
<stop stop-color="#F9D423"/>
<stop offset="0.515624" stop-color="#FF4E50"/>
<stop offset="0.991304" stop-color="#8A2387"/>
</linearGradient>
<linearGradient id="paint2_linear_1005_182" x1="0.284522" y1="1.60027" x2="7.97921" y2="15.1947" gradientUnits="userSpaceOnUse">
<stop stop-color="#F9D423"/>
<stop offset="0.515624" stop-color="#FF4E50"/>
<stop offset="0.991304" stop-color="#8A2387"/>
</linearGradient>
<linearGradient id="paint3_linear_1005_182" x1="0.284721" y1="1.60027" x2="7.97941" y2="15.1947" gradientUnits="userSpaceOnUse">
<stop stop-color="#F9D423"/>
<stop offset="0.515624" stop-color="#FF4E50"/>
<stop offset="0.991304" stop-color="#8A2387"/>
</linearGradient>
<linearGradient id="paint4_linear_1005_182" x1="0.284854" y1="1.60027" x2="7.97954" y2="15.1947" gradientUnits="userSpaceOnUse">
<stop stop-color="#F9D423"/>
<stop offset="0.515624" stop-color="#FF4E50"/>
<stop offset="0.991304" stop-color="#8A2387"/>
</linearGradient>
</defs>
</svg>
