<svg width="48" height="48" viewBox="0 0 48 48" fill="none" xmlns="http://www.w3.org/2000/svg">
<path fill-rule="evenodd" clip-rule="evenodd" d="M35.5458 3.00007C35.7395 2.99736 35.9265 3.07323 36.0633 3.21007L42.7576 9.9043C42.8917 10.0398 42.9676 10.2213 42.9676 10.4124C42.9676 10.8053 42.6438 11.1291 42.2509 11.1291H13.1612C13.1612 11.1291 10.4516 11.1291 10.4516 13.8387V33.1613C10.4516 33.7135 10.0038 34.1613 9.45156 34.1613H6.03223C5.47994 34.1613 5.03223 33.7135 5.03223 33.1613V13.8387C5.03223 5.70974 13.1612 5.70974 13.1612 5.70974H33.8386C34.3909 5.70974 34.8386 5.26202 34.8386 4.70974V3.71678C34.8386 3.32794 35.1556 3.00549 35.5458 3.00007Z" fill="url(#paint0_linear_1012_849)"/>
<path d="M34.8386 36.871H5.74893C5.35603 36.871 5.03223 37.1949 5.03223 37.5878C5.03223 37.7788 5.1081 37.9603 5.24223 38.0958L11.9365 44.7901C12.0733 44.9269 12.2603 45.0028 12.454 45.0001C12.8442 44.9946 13.1612 44.6722 13.1612 44.2833V43.2904C13.1612 42.7381 13.6089 42.2904 14.1612 42.2904H34.8386C34.8386 42.2904 42.9676 42.2904 42.9676 34.1614V14.8389C42.9676 14.2866 42.5199 13.8389 41.9676 13.8389H38.5482C37.996 13.8389 37.5482 14.2866 37.5482 14.8389V34.1614C37.5482 36.871 34.8386 36.871 34.8386 36.871Z" fill="url(#paint1_linear_1012_849)"/>
<path d="M16.8711 19.2583H20.2904C20.8427 19.2583 21.2904 19.706 21.2904 20.2583V26.3873C21.2904 26.9396 20.8427 27.3873 20.2904 27.3873H16.8711C16.3188 27.3873 15.8711 26.9396 15.8711 26.3873V20.2583C15.8711 19.706 16.3188 19.2583 16.8711 19.2583Z" fill="url(#paint2_linear_1012_849)"/>
<path d="M27.71 19.2583H31.1293C31.6816 19.2583 32.1293 19.706 32.1293 20.2583V26.3873C32.1293 26.9396 31.6816 27.3873 31.1293 27.3873H27.71C27.1577 27.3873 26.71 26.9396 26.71 26.3873V20.2583C26.71 19.706 27.1577 19.2583 27.71 19.2583Z" fill="url(#paint3_linear_1012_849)"/>
<defs>
<linearGradient id="paint0_linear_1012_849" x1="7.10142" y1="34.1613" x2="35.1243" y2="-2.92626" gradientUnits="userSpaceOnUse">
<stop offset="0.106984" stop-color="#E02767"/>
<stop offset="0.871403" stop-color="#FA5D51"/>
</linearGradient>
<linearGradient id="paint1_linear_1012_849" x1="7.10142" y1="45.0001" x2="35.1243" y2="7.91257" gradientUnits="userSpaceOnUse">
<stop offset="0.106984" stop-color="#E02767"/>
<stop offset="0.871403" stop-color="#FA5D51"/>
</linearGradient>
<linearGradient id="paint2_linear_1012_849" x1="7.10161" y1="45.0002" x2="35.1245" y2="7.9127" gradientUnits="userSpaceOnUse">
<stop offset="0.106984" stop-color="#E02767"/>
<stop offset="0.871403" stop-color="#FA5D51"/>
</linearGradient>
<linearGradient id="paint3_linear_1012_849" x1="7.10179" y1="45.0002" x2="35.1247" y2="7.91271" gradientUnits="userSpaceOnUse">
<stop offset="0.106984" stop-color="#E02767"/>
<stop offset="0.871403" stop-color="#FA5D51"/>
</linearGradient>
</defs>
</svg>
