<svg width="128" height="128" viewBox="0 0 128 128" fill="none" xmlns="http://www.w3.org/2000/svg">
<path d="M119.541 40.7217C119.812 39.865 119.479 38.9325 118.726 38.442L75.0917 10.0143C73.7614 9.14753 72 10.1022 72 11.69V24.3951C72 25.0742 72.3446 25.7069 72.9151 26.0753L101.48 44.5196C102.251 45.0174 102.585 45.976 102.289 46.8447L99.6312 54.645C99.3551 55.4553 98.594 56 97.738 56H74C72.8954 56 72 56.8955 72 58V70C72 71.1046 72.8954 72 74 72H97.738C98.594 72 99.3551 72.5448 99.6312 73.3551L102.289 81.1553C102.585 82.024 102.251 82.9827 101.48 83.4805L72.9151 101.925C72.3446 102.293 72 102.926 72 103.605V116.316C72 117.903 73.7587 118.858 75.0893 117.994L118.723 89.6575C119.477 89.1674 119.812 88.2339 119.54 87.3762L112.342 64.6542C112.218 64.2611 112.218 63.8393 112.342 63.4462L119.541 40.7217Z" fill="url(#paint0_linear_735_57)"/>
<path d="M28.4259 73.3563C28.7016 72.5454 29.463 72 30.3195 72H53.8996C55.0042 72 55.8996 71.1046 55.8996 70V58C55.8996 56.8955 55.0042 56 53.8996 56H30.232C29.3693 56 28.6038 55.4468 28.333 54.6277L25.7562 46.8317C25.4709 45.9685 25.8037 45.0215 26.5662 44.5265L54.9886 26.0758C55.5568 25.7069 55.8996 25.0756 55.8996 24.3982V11.6942C55.8996 10.1055 54.1366 9.15105 52.8063 10.0195L9.27123 38.4421C8.51973 38.9328 8.18708 39.8639 8.45759 40.7196L15.6421 63.4474C15.7661 63.8397 15.7661 64.2607 15.6421 64.653L8.45875 87.3768C8.1877 88.2342 8.52226 89.1672 9.27645 89.657L52.9107 117.994C54.2413 118.858 56 117.903 56 116.316V103.604C56 102.926 55.6561 102.293 55.0865 101.925L26.5809 83.4803C25.8114 82.9824 25.4788 82.0252 25.7738 81.1574L28.4259 73.3563Z" fill="url(#paint1_linear_735_57)"/>
<defs>
<linearGradient id="paint0_linear_735_57" x1="96" y1="120" x2="96" y2="8" gradientUnits="userSpaceOnUse">
<stop stop-color="#5570FF"/>
<stop offset="1" stop-color="#4DD3FF"/>
</linearGradient>
<linearGradient id="paint1_linear_735_57" x1="32" y1="8" x2="32" y2="120" gradientUnits="userSpaceOnUse">
<stop stop-color="#FF97CE"/>
<stop offset="1" stop-color="#854FE6"/>
</linearGradient>
</defs>
</svg>
