<svg width="16" height="16" viewBox="0 0 16 16" fill="none" xmlns="http://www.w3.org/2000/svg">
<path d="M4.8486 1.00003C5.37 0.997847 5.88627 1.10295 6.36532 1.30881C6.84437 1.51466 7.27594 1.81688 7.63319 2.19665L12.4646 7.02513C12.9612 7.51859 13.3549 8.10568 13.6228 8.75238C13.8909 9.39909 14.0279 10.0926 14.026 10.7926C14.026 11.1118 13.6401 11.2717 13.4144 11.046L12.9584 10.5901C12.8729 10.5045 12.8218 10.391 12.807 10.2709C12.6943 9.36062 12.28 8.51206 11.6274 7.86235L6.78414 3.02142C6.53642 2.75628 6.23669 2.54508 5.90365 2.40102C5.57061 2.25697 5.21145 2.18316 4.8486 2.18422C3.37962 2.18422 2.1842 3.37965 2.1842 4.84861C2.1842 5.58636 2.48142 6.27318 3.03444 6.79658L4.1788 7.94208C4.21666 7.97997 4.26283 8.00853 4.31366 8.02547L5.37827 8.38035C5.55326 8.43867 5.5113 8.69719 5.32685 8.69719C5.18202 8.69719 5.10946 8.8723 5.21184 8.97474L7.13742 10.9013C7.17532 10.9392 7.22152 10.9678 7.27237 10.9848L8.34228 11.3417C8.51672 11.3999 8.47487 11.6576 8.29097 11.6576C8.14595 11.6576 8.07749 11.8299 8.19007 11.9213C8.92253 12.5161 9.84102 12.8438 10.7926 12.8418C11.2398 12.8418 11.4638 12.3011 11.1476 11.9848L6.86116 7.6984C6.66297 7.5002 6.66297 7.17886 6.86116 6.98067L6.98066 6.86118C7.17885 6.66298 7.50019 6.66298 7.69838 6.86118L14.8512 14.0141C15.0495 14.2123 15.0495 14.5337 14.8512 14.7318L14.7318 14.8514C14.5337 15.0495 14.2123 15.0495 14.0141 14.8514L13.3373 14.1746C13.2422 14.0794 13.1132 14.026 12.9785 14.026H10.7926C10.0925 14.0279 9.39905 13.891 8.75233 13.6229C8.10562 13.355 7.51854 12.9613 7.02511 12.4647L2.20965 7.64504C1.82649 7.28723 1.52129 6.85419 1.31314 6.37301C1.105 5.89183 0.998403 5.37288 1.00002 4.84861C1.00002 2.72656 2.72655 1.00003 4.8486 1.00003Z" fill="url(#paint0_linear_670_247)" stroke="url(#paint1_linear_670_247)" stroke-width="0.6"/>
<defs>
<linearGradient id="paint0_linear_670_247" x1="7.99998" y1="15" x2="7.99998" y2="1" gradientUnits="userSpaceOnUse">
<stop stop-color="#FD5900"/>
<stop offset="1" stop-color="#FFDE00"/>
</linearGradient>
<linearGradient id="paint1_linear_670_247" x1="7.99998" y1="15" x2="7.99998" y2="1" gradientUnits="userSpaceOnUse">
<stop stop-color="#FD5900"/>
<stop offset="1" stop-color="#FFDE00"/>
</linearGradient>
</defs>
</svg>
