<svg width="64" height="64" viewBox="0 0 64 64" fill="none" xmlns="http://www.w3.org/2000/svg">
<path d="M24.0718 14C23.4566 14.0023 22.9447 14.1568 22.4285 14.4475C21.8174 14.7916 19.548 16.9502 17.3842 19.2414C14.0953 22.7243 13.1338 23.5324 11.509 24.1952C8.95187 25.2381 6.79641 25.6302 5.02648 25.09C2.62392 24.3568 1.32486 25.5867 2.35785 27.764C3.34276 29.8402 7.28269 31.7224 12.4997 32.6112C19.7425 33.8453 24.5394 33.1157 29.6301 28.9412C30.606 28.141 31.6852 27.4817 32.0324 27.4817C32.3797 27.4817 33.5655 28.2224 34.6638 29.1223C37.2722 31.2597 38.544 31.5297 41.6363 32.4568C43.8371 33.1166 44.6941 33.1919 47.7886 32.9948C54.295 32.5802 58.6478 31.1811 60.94 28.7654C61.7118 27.9527 62 27.3284 62 26.483C62 24.7895 61.1014 24.6318 58.8094 25.2312C57.4176 25.5952 56.6414 25.3384 55.2405 25.0181C51.8098 24.2327 50.2578 23.1553 46.2598 18.7833C43.1536 15.3878 41.873 14.0761 40.1822 14.0107C39.1678 13.9726 38.0065 14.3855 36.2138 15.0707C34.3126 15.7974 32.3568 16.7274 31.8673 16.7273C31.3778 16.7271 29.8682 15.9115 28.5169 15.3264C26.4107 14.4144 25.0971 13.9961 24.0718 14ZM29.2733 35.8179C28.8412 35.8181 28.4153 35.9209 28.0308 36.118C27.6463 36.315 27.3141 36.6006 27.0616 36.9512C26.809 37.3018 26.6434 37.7073 26.5783 38.1345C26.5132 38.5616 26.5505 38.9981 26.6872 39.408L29.4144 47.5897C29.5961 48.1317 29.9435 48.6029 30.4076 48.9368C30.8716 49.2707 31.4288 49.4503 32.0005 49.4503C32.5721 49.4503 33.1294 49.2707 33.5934 48.9368C34.0574 48.6029 34.4049 48.1317 34.5866 47.5897L37.3138 39.408C37.4504 38.9981 37.4878 38.5616 37.4227 38.1345C37.3576 37.7073 37.1919 37.3018 36.9394 36.9512C36.6869 36.6006 36.3547 36.315 35.9701 36.118C35.5856 35.9209 35.1598 35.8181 34.7277 35.8179H29.2733Z" fill="url(#paint0_linear_919_27)"/>
<defs>
<linearGradient id="paint0_linear_919_27" x1="32" y1="47.5" x2="33" y2="15" gradientUnits="userSpaceOnUse">
<stop stop-color="#DC18FC"/>
<stop offset="0.699638" stop-color="#765FFC"/>
</linearGradient>
</defs>
</svg>
