<svg width="32" height="32" viewBox="0 0 32 32" fill="none" xmlns="http://www.w3.org/2000/svg">
<path fill-rule="evenodd" clip-rule="evenodd" d="M8.31633 23.575C8.82942 24.4712 9.12104 24.8794 9.30622 24.9605C9.4253 25.0125 9.66126 25.0132 9.78453 24.9615C9.92553 24.9023 10.0704 24.7452 10.1117 24.6065C10.1412 24.5077 10.1335 24.3591 10.0675 23.75C9.9206 22.3939 9.87702 21.3855 9.92552 20.4463C10.1037 16.9925 11.2067 15.0366 13.608 13.9972C14.7726 13.4931 15.9941 13.204 17.8914 13.058C18.5289 13.009 21.9427 12.983 21.987 13.0275C22.0136 13.0542 22.0268 13.8096 22.038 15.2551L22.0531 17.2053L22.132 17.3724C22.3418 17.8167 22.9154 18.1078 23.4022 18.0169C23.5034 17.998 23.6496 17.9527 23.727 17.9164C23.8368 17.8648 25.1689 16.9264 28.0748 14.01C31.6501 10.4218 31.8051 10.2616 31.9006 10.0576C31.99 9.86648 32 9.81732 32 9.57159C32 9.32586 31.9899 9.27669 31.9005 9.08557C31.8052 8.88165 31.6492 8.72041 28.0899 5.1458C24.6625 1.7036 23.8833 1.20024 23.7056 1.11657C23.5944 1.06424 23.4338 1.01743 23.3249 1.00572C22.8264 0.952102 22.2701 1.28193 22.1032 1.73001C22.0387 1.90238 22.0379 1.93381 22.0379 3.7966C22.0379 5.26328 22.0294 5.91075 22.0001 5.94901C21.966 5.99363 21.9308 5.99977 19.7577 6.01261C18.4256 6.02045 17.4657 6.04141 17.2562 6.05962C15.5996 6.20342 14.5266 6.38701 13.4648 6.65452C11.1493 7.23791 9.2191 8.34277 8.05026 9.75384C6.89259 11.1514 6.30128 12.5841 6.05445 14.8419C6.0004 15.3365 5.98023 16.985 6.02339 17.3833C6.10684 18.1533 6.29823 18.9851 6.61285 19.9451C6.97619 21.0537 7.44607 22.055 8.31633 23.575ZM4.01605 29.4373C4.62889 29.7426 5.19619 29.9069 5.85242 29.9694C6.26432 30.0086 22.6772 30.011 23.0913 29.972C23.9402 29.892 24.6858 29.6516 25.3408 29.2467C26.4585 28.5559 27.3231 27.4909 27.7109 26.3272C27.9818 25.514 28.0101 25.2218 27.9976 22.0525C27.989 19.8772 27.9842 19.6887 27.9348 19.5984C27.3 19.1871 26.8143 19.4479 26.1402 19.8098C26.0296 19.8692 25.914 19.9312 25.7918 19.9935C25.4665 20.1713 25.3121 20.2889 25.2375 20.4158C25.2304 20.4279 25.2241 20.4345 25.2185 20.4405C25.1757 20.4858 25.1725 20.4891 25.1576 22.539C25.1413 24.7701 25.1396 24.776 25.0806 24.9786C25.0776 24.9887 25.0746 24.9992 25.0714 25.0104C24.7216 26.1555 23.4141 27.2729 21.9945 27.1348C20.809 27.1421 19.7243 27.1606 18.6453 27.179C17.2821 27.2023 15.928 27.2254 14.3913 27.2254C8.32549 27.2323 6.49405 27.2254 6.32952 27.1999C5.94905 27.1408 5.49788 26.9602 5.16108 26.7323C4.95994 26.5962 4.53211 26.1735 4.38098 25.9616C4.13761 25.6203 3.94861 25.1734 3.87719 24.7702C3.85521 24.6462 3.84521 22.3373 3.84568 16.7255C3.84632 8.71428 3.84788 8.50063 3.90556 8.23968C4.17177 7.03602 5.23438 6.07372 6.46186 5.92469C6.61714 5.90585 6.82811 5.89125 7.49594 5.8912L8.68054 5.8911L8.96503 5.73674C9.42027 5.48974 9.84216 5.18944 10.2787 4.87869C10.5759 4.66716 10.8799 4.45078 11.2059 4.24307C11.8858 3.77599 11.9844 3.02262 10.6462 3.02193H8.61159C6.40113 2.9662 5.74144 3.03067 5.56148 3.0626C4.37759 3.27246 3.45312 3.74736 2.62677 4.57017C1.67117 5.52166 1.16115 6.58301 1.03386 7.88496C0.989263 8.34273 0.988409 24.6185 1.03315 25.0925C1.10149 25.8172 1.255 26.3617 1.56799 26.9897C1.84198 27.5395 2.10295 27.8928 2.60785 28.3977C3.11276 28.9025 3.46616 29.1634 4.01605 29.4373Z" fill="url(#paint0_linear_735_16)"/>
<defs>
<linearGradient id="paint0_linear_735_16" x1="0.551917" y1="1.28536" x2="30.3224" y2="34.0826" gradientUnits="userSpaceOnUse">
<stop stop-color="#F9D423"/>
<stop offset="0.515624" stop-color="#FF4E50"/>
<stop offset="0.991304" stop-color="#8A2387"/>
</linearGradient>
</defs>
</svg>
