<svg width="16" height="16" viewBox="0 0 16 16" fill="none" xmlns="http://www.w3.org/2000/svg">
<path fill-rule="evenodd" clip-rule="evenodd" d="M6.17205 2.22544C6.99597 2.0048 6.8452 2.05 7.69163 2.0048C8.53806 1.9596 9.38445 2.09446 10.1749 2.40049C10.9654 2.70651 11.6819 3.17673 12.2773 3.7801C12.8726 4.38347 13.3332 5.10627 13.6286 5.90076C13.6316 5.91874 13.6361 5.93671 13.6406 5.95543C13.7889 6.52232 13.7641 7.51306 13.3815 8.41842C13.0108 9.29459 12.3406 10.021 11.23 10.2509C9.05757 10.6994 7.6295 9.25864 7.2371 7.79463C7.1282 7.36985 7.04765 6.9383 6.99597 6.50285C6.93531 5.98613 6.93606 5.59223 6.98249 5.40876C7.02216 5.25162 7.00979 5.08585 6.94722 4.93634C6.88465 4.78683 6.77526 4.66166 6.63549 4.57962C6.49571 4.49757 6.33309 4.46309 6.17205 4.48135C6.01101 4.49961 5.86024 4.56962 5.74238 4.68087C4.99929 5.38108 4.44653 6.25881 4.13608 7.23148C4.05166 6.72751 3.99516 6.21926 3.96684 5.70906C3.91592 4.81492 3.95036 3.90955 4.1211 3.24531C4.16182 3.08744 4.14989 2.92059 4.08715 2.77011C4.0244 2.61962 3.91425 2.49373 3.77344 2.41155C3.63263 2.32936 3.46884 2.29538 3.30696 2.31476C3.14507 2.33414 2.99394 2.40582 2.8765 2.51892C0.839607 4.47868 0.0375796 7.35055 0.761725 9.87271C1.59745 13.0965 4.52623 15.4772 8.01142 15.4772C12.1474 15.4772 15.5 12.1245 15.5 7.98858C15.5 3.85264 12.1474 0.5 8.01142 0.5C6.77506 0.5 6.63549 0.499592 5.4846 0.895471C5.39444 0.938939 5.3139 1.00004 5.24776 1.07517C5.18161 1.1503 5.1312 1.23792 5.0995 1.33286C5.0678 1.42781 5.05545 1.52814 5.06319 1.62794C5.07093 1.72774 5.0986 1.82497 5.14456 1.91389C5.19053 2.00281 5.25385 2.08161 5.33079 2.14564C5.40773 2.20967 5.49672 2.25762 5.59251 2.28667C5.6883 2.31571 5.78894 2.32526 5.88848 2.31474C5.98802 2.30423 6.08445 2.27386 6.17205 2.22544ZM2.02056 7.98858C2.02056 7.20228 2.16134 6.43245 2.46688 5.70456C2.51705 6.70129 2.66158 7.64336 2.81509 8.21773C3.08992 9.24367 3.48682 10.2988 4.30532 11.1158C4.42354 11.2341 4.57793 11.3093 4.74389 11.3297C4.90985 11.35 5.07784 11.3142 5.22109 11.2279C5.36435 11.1417 5.47462 11.01 5.53435 10.8539C5.59408 10.6977 5.59982 10.526 5.55067 10.3662C5.26199 9.42203 5.29093 8.40925 5.63305 7.4831C5.68322 7.7452 5.73789 7.98633 5.79031 8.18253C6.33248 10.2067 8.39034 12.3664 11.5326 11.7171C12.1265 11.5991 12.6894 11.3586 13.1853 11.011C12.5904 12.0282 11.7087 12.8475 10.6507 13.3663C9.59259 13.8852 8.40504 14.0806 7.2365 13.9281C6.06797 13.7756 4.97032 13.282 4.08082 12.5091C3.19132 11.7361 2.54945 10.718 2.23548 9.58215C2.1254 9.04971 2.02056 8.53674 2.02056 7.98858Z" fill="url(#paint0_radial_554_165)" stroke="url(#paint1_radial_554_165)" stroke-width="0.5"/>
<defs>
<radialGradient id="paint0_radial_554_165" cx="0" cy="0" r="1" gradientUnits="userSpaceOnUse" gradientTransform="translate(4 2.5) rotate(56.6894) scale(20.9404 18.3913)">
<stop stop-color="#FFF44F"/>
<stop offset="0.06" stop-color="#FFE847"/>
<stop offset="0.168" stop-color="#FFC830"/>
<stop offset="0.304" stop-color="#FF980E"/>
<stop offset="0.356" stop-color="#FF8B16"/>
<stop offset="0.455" stop-color="#FF672A"/>
<stop offset="0.57" stop-color="#FF3647"/>
<stop offset="0.737" stop-color="#E31587"/>
</radialGradient>
<radialGradient id="paint1_radial_554_165" cx="0" cy="0" r="1" gradientUnits="userSpaceOnUse" gradientTransform="translate(4 2.5) rotate(56.6894) scale(20.9404 18.3913)">
<stop stop-color="#FFF44F"/>
<stop offset="0.06" stop-color="#FFE847"/>
<stop offset="0.168" stop-color="#FFC830"/>
<stop offset="0.304" stop-color="#FF980E"/>
<stop offset="0.356" stop-color="#FF8B16"/>
<stop offset="0.455" stop-color="#FF672A"/>
<stop offset="0.57" stop-color="#FF3647"/>
<stop offset="0.737" stop-color="#E31587"/>
</radialGradient>
</defs>
</svg>
