<svg width="128" height="128" viewBox="0 0 128 128" fill="none" xmlns="http://www.w3.org/2000/svg">
<path fill-rule="evenodd" clip-rule="evenodd" d="M99.376 6.75221L99.381 6.75139C99.804 6.67473 100.235 6.57274 100.689 6.46528L100.859 6.42506C101.368 6.30496 101.903 6.18237 102.443 6.10037C103.526 5.93601 104.689 5.92453 105.835 6.44662L105.836 6.44697C105.863 6.45919 105.89 6.47344 105.915 6.48962C107.522 7.51761 109.29 9.29839 109.094 11.6508C109.108 22.7434 109.101 33.8343 109.094 44.9248L109.093 45.9824C109.092 47.9887 109.091 49.995 109.09 52.0014C109.089 54.21 107.299 56 105.09 56H102.67C100.461 56 98.6699 54.2085 98.6713 51.999C98.6724 50.3998 98.6737 48.8007 98.675 47.2017V47.1975C98.6825 38.864 98.6893 30.5314 98.658 22.1895C98.6485 19.662 96.3227 17.7815 93.8463 18.2872C80.1148 21.0917 66.3407 23.6904 52.5814 26.2863L52.5418 26.2938C52.313 26.3369 52.0843 26.3801 51.8555 26.4233C49.9786 26.7774 48.6134 28.4094 48.6088 30.3195C48.605 31.8844 48.6063 33.4496 48.608 35.0159L48.6083 35.3112V35.3463C48.6093 36.3041 48.6103 37.2623 48.6102 38.2209C48.6099 40.6461 50.7394 42.5233 53.1277 42.1021C54.2943 41.8963 55.4605 41.676 56.6287 41.4503C57.2201 41.336 57.8123 41.2203 58.4053 41.1044L58.4229 41.101C60.7425 40.6478 63.0738 40.1923 65.4179 39.8116L65.4357 39.8088L65.4535 39.8069C69.0515 39.4272 72.5898 38.7036 76.1605 37.9734L76.1644 37.9726C77.0321 37.795 77.9024 37.617 78.7758 37.4435C80.2148 37.0369 81.5679 37.4097 82.6748 38.1303C83.7804 38.85 84.6729 39.9329 85.2448 41.0288C85.2625 41.0629 85.2772 41.0986 85.2887 41.1353C85.7302 42.5642 85.3708 43.9723 84.6169 45.092C83.8669 46.2057 82.7015 47.076 81.4324 47.4675L81.4196 47.4715L81.4063 47.475C79.0449 48.0939 76.646 48.491 74.2699 48.8634C74.0199 48.9026 73.7705 48.9416 73.5212 48.9804L73.515 48.9814C71.3879 49.3129 69.2843 49.6409 67.2086 50.1078L67.2061 50.1082C64.0228 50.8132 60.8083 51.3126 57.6184 51.8077L57.5899 51.8121L57.5847 51.8129C55.6411 52.1146 53.7066 52.4148 51.7843 52.7595C49.9293 53.0921 48.6117 54.724 48.6094 56.6086C48.6003 64.0292 48.6009 71.4512 48.6014 78.8751V78.8821V79.3087C48.6017 84.3715 48.602 89.4343 48.5991 94.4984V94.5041C48.5895 95.5518 48.6433 96.6186 48.7037 97.709L48.7194 97.9915L48.7197 97.9978C48.775 98.9894 48.8314 100.001 48.8419 101.007C48.8648 103.209 48.6708 105.451 47.7407 107.603C45.6923 113.845 40.5895 119.041 34.2481 120.995C27.9637 123.084 20.7469 121.849 15.4674 117.914C9.61338 113.655 6.28828 106.236 7.12898 99.0551C7.84008 90.8233 14.0077 83.4795 21.9644 81.211C25.0686 80.2873 28.381 80.1268 31.5617 80.6932C34.5742 81.2298 37.9666 79.1855 37.9588 76.1257C37.9345 66.6874 37.937 57.2485 37.9394 47.8105C37.9414 40.18 37.9433 32.5501 37.9312 24.9219C37.8328 23.306 38.329 21.553 39.2857 20.172C40.2419 18.7915 41.6981 17.7324 43.5343 17.6221C55.0194 15.3156 66.5229 13.1006 78.0219 10.8865C85.1424 9.51551 92.2603 8.14488 99.372 6.75308L99.376 6.75221ZM24.5313 91.011L24.5263 91.0129C20.879 92.2069 18.0249 95.4755 17.3434 99.2409L17.3418 99.2491L17.34 99.258C16.247 104.473 19.7884 110.123 24.9612 111.477L24.9723 111.48L24.9834 111.484C29.9477 112.977 35.7252 110.235 37.6416 105.497C37.7595 105.205 37.8236 104.895 37.8507 104.581C38.0511 102.265 38.0801 99.9262 37.785 97.6534C37.7569 97.4374 37.7094 97.2237 37.6358 97.0187C35.8395 92.0114 29.6046 89.2567 24.5362 91.0097L24.5313 91.011Z" fill="url(#paint0_linear_1012_845)"/>
<path d="M99.381 6.75138L99.5429 7.73818L99.5511 7.73683L99.5593 7.73535L99.381 6.75138ZM99.376 6.7522L99.214 5.7654L99.1886 5.76958L99.1634 5.77506L99.376 6.7522ZM105.835 6.44661L105.42 7.35666L105.428 7.36015L105.835 6.44661ZM109.094 11.6508L108.097 11.5678L108.094 11.6098V11.6521L109.094 11.6508ZM65.4179 39.8116L65.2625 38.8237L65.2576 38.8245L65.4179 39.8116ZM65.4357 39.8088L65.3296 38.8144L65.3048 38.8171L65.2803 38.8209L65.4357 39.8088ZM65.4535 39.8069L65.3485 38.8124L65.3474 38.8125L65.4535 39.8069ZM78.7758 37.4435L78.9706 38.4243L79.0095 38.4166L79.0477 38.4058L78.7758 37.4435ZM81.4324 47.4675L81.1376 46.5119L81.134 46.513L81.4324 47.4675ZM81.4196 47.4715L81.674 48.4386L81.6961 48.4328L81.7179 48.426L81.4196 47.4715ZM67.2086 50.1078L67.3666 51.0952L67.3975 51.0903L67.4281 51.0834L67.2086 50.1078ZM67.2061 50.1082L67.048 49.1208L67.0188 49.1255L66.9899 49.1319L67.2061 50.1082ZM57.5847 51.8129L57.4323 50.8246L57.4313 50.8247L57.5847 51.8129ZM48.5991 94.5041L49.5991 94.5133V94.5041H48.5991ZM47.7407 107.603L46.8227 107.206L46.8047 107.248L46.7905 107.291L47.7407 107.603ZM34.2481 120.995L33.9536 120.039L33.9431 120.043L33.9326 120.046L34.2481 120.995ZM15.4674 117.914L16.065 117.112L16.0557 117.105L15.4674 117.914ZM7.12902 99.0551L8.12224 99.1714L8.124 99.1563L8.12531 99.1412L7.12902 99.0551ZM21.9644 81.211L22.2386 82.1727L22.2496 82.1695L21.9644 81.211ZM37.9312 24.9219L38.9312 24.9203L38.9311 24.8907L38.9293 24.8611L37.9312 24.9219ZM43.5343 17.6221L43.5942 18.6203L43.6633 18.6162L43.7312 18.6025L43.5343 17.6221ZM99.372 6.75307L99.564 7.73445L99.5743 7.73244L99.5846 7.73021L99.372 6.75307ZM24.5263 91.0129L24.8374 91.9633L24.8596 91.956L24.8815 91.9477L24.5263 91.0129ZM24.5313 91.011L24.274 90.0447L24.2242 90.0579L24.1761 90.0762L24.5313 91.011ZM17.3434 99.2409L18.325 99.4322L18.3274 99.419L17.3434 99.2409ZM17.3418 99.2491L18.322 99.4473L18.3233 99.4404L17.3418 99.2491ZM17.34 99.258L18.3187 99.4631L18.3201 99.4562L17.34 99.258ZM24.9612 111.477L25.2226 110.512L25.2144 110.51L24.9612 111.477ZM24.9723 111.48L25.3111 110.539L25.2729 110.525L25.2337 110.515L24.9723 111.48ZM24.9834 111.484L24.6445 112.425L24.6697 112.434L24.6954 112.442L24.9834 111.484ZM24.5362 91.0097L24.7935 91.976L24.8286 91.9667L24.8631 91.9548L24.5362 91.0097ZM85.2887 41.1353L86.2441 40.8401L86.2434 40.8379L85.2887 41.1353ZM99.219 5.76458L99.214 5.7654L99.5379 7.739L99.5429 7.73818L99.219 5.76458ZM100.459 5.49214C99.9995 5.60082 99.5949 5.69633 99.2026 5.76741L99.5593 7.73535C100.013 7.65311 100.47 7.54462 100.919 7.43838L100.459 5.49214ZM100.629 5.45178L100.459 5.49214L100.919 7.43838L101.089 7.39819L100.629 5.45178ZM102.293 5.11168C101.709 5.20041 101.138 5.3317 100.629 5.45178L101.089 7.39819C101.598 7.27807 102.097 7.1643 102.593 7.08903L102.293 5.11168ZM106.25 5.5366C104.854 4.90066 103.469 4.93326 102.293 5.11168L102.593 7.08903C103.583 6.93873 104.524 6.94842 105.42 7.35666L106.25 5.5366ZM106.243 5.53342L106.242 5.53307L105.428 7.36015L105.429 7.3605L106.243 5.53342ZM110.091 11.7338C110.335 8.79781 108.137 6.72371 106.454 5.64722L105.376 7.332C106.907 8.31149 108.245 9.79895 108.097 11.5678L110.091 11.7338ZM110.094 44.9254C110.101 33.8351 110.108 22.7432 110.094 11.6495L108.094 11.6521C108.108 22.7436 108.101 33.8335 108.094 44.9242L110.094 44.9254ZM110.093 45.9829L110.094 44.9254L108.094 44.9242L108.093 45.9818L110.093 45.9829ZM110.09 52.0018C110.091 49.9955 110.092 47.9892 110.093 45.9829L108.093 45.9818C108.092 47.9882 108.091 49.9946 108.09 52.0009L110.09 52.0018ZM102.67 57H105.09V55H102.67V57ZM97.675 47.2009C97.6737 48.7999 97.6724 50.3991 97.6713 51.9984L99.6713 51.9997C99.6724 50.4006 99.6737 48.8016 99.675 47.2025L97.675 47.2009ZM97.675 47.1966V47.2009L99.675 47.2025V47.1975L97.675 47.1966ZM97.658 22.1933C97.6893 30.5324 97.6825 38.8628 97.675 47.1966L99.675 47.1975C99.6825 38.8643 99.6893 30.5303 99.658 22.1858L97.658 22.1933ZM52.7668 27.269C66.5249 24.6733 80.3063 22.0732 94.0464 19.267L93.6462 17.3075C79.9232 20.1101 66.1565 22.7075 52.396 25.3036L52.7668 27.269ZM52.7272 27.2764L52.7668 27.269L52.396 25.3036L52.3564 25.3111L52.7272 27.2764ZM52.0409 27.4059C52.2697 27.3628 52.4984 27.3196 52.7272 27.2764L52.3564 25.3111C52.1276 25.3543 51.8988 25.3974 51.6701 25.4406L52.0409 27.4059ZM49.608 35.0149C49.6063 33.4485 49.605 31.8849 49.6088 30.3219L47.6088 30.3171C47.605 31.8839 47.6063 33.4507 47.608 35.017L49.608 35.0149ZM49.6083 35.3102L49.608 35.0149L47.608 35.017L47.6083 35.3122L49.6083 35.3102ZM49.6083 35.3453V35.3102L47.6083 35.3122V35.3473L49.6083 35.3453ZM49.6102 38.2211C49.6103 37.2618 49.6093 36.303 49.6083 35.3453L47.6083 35.3473C47.6093 36.3052 47.6103 37.2629 47.6102 38.2208L49.6102 38.2211ZM56.439 40.4685C55.2732 40.6937 54.1129 40.9129 52.954 41.1173L53.3014 43.0869C54.4756 42.8798 55.6478 42.6583 56.8184 42.4321L56.439 40.4685ZM58.2136 40.1229C57.6205 40.2388 57.0292 40.3544 56.439 40.4685L56.8184 42.4321C57.411 42.3176 58.0042 42.2017 58.5971 42.0858L58.2136 40.1229ZM58.2312 40.1195L58.2136 40.1229L58.5971 42.0858L58.6146 42.0824L58.2312 40.1195ZM65.2576 38.8245C62.8951 39.2083 60.5482 39.6669 58.2312 40.1195L58.6146 42.0824C60.9367 41.6287 63.2525 41.1764 65.5782 40.7987L65.2576 38.8245ZM65.2803 38.8209L65.2625 38.8237L65.5733 40.7995L65.5911 40.7967L65.2803 38.8209ZM65.3474 38.8125L65.3296 38.8144L65.5418 40.8032L65.5596 40.8013L65.3474 38.8125ZM75.9601 36.9937C72.3814 37.7255 68.8904 38.4387 65.3485 38.8124L65.5584 40.8014C69.2125 40.4158 72.7981 39.6817 76.3608 38.9531L75.9601 36.9937ZM75.9639 36.9929L75.9601 36.9937L76.3608 38.9531L76.3649 38.9523L75.9639 36.9929ZM78.5809 36.4627C77.7043 36.6368 76.8312 36.8154 75.9639 36.9929L76.3649 38.9523C77.2329 38.7746 78.1005 38.5972 78.9706 38.4243L78.5809 36.4627ZM83.2204 37.2922C81.9339 36.4548 80.2849 35.9779 78.5039 36.4812L79.0477 38.4058C80.1447 38.0959 81.2018 38.3646 82.1292 38.9684L83.2204 37.2922ZM86.1313 40.5662C85.4942 39.3453 84.4939 38.1212 83.2204 37.2922L82.1292 38.9684C83.0669 39.5788 83.8515 40.5205 84.3582 41.4914L86.1313 40.5662ZM85.4463 45.6506C86.3316 44.3357 86.793 42.6165 86.2441 40.8401L84.3332 41.4305C84.6674 42.5119 84.4098 43.609 83.7874 44.5335L85.4463 45.6506ZM81.7272 48.4231C83.2178 47.9632 84.5706 46.951 85.4463 45.6506L83.7874 44.5335C83.1632 45.4605 82.1852 46.1888 81.1376 46.5119L81.7272 48.4231ZM81.7179 48.426L81.7307 48.422L81.134 46.513L81.1212 46.517L81.7179 48.426ZM81.6598 48.4423L81.674 48.4386L81.1652 46.5044L81.1519 46.5079L81.6598 48.4423ZM74.4247 49.8513C76.801 49.4789 79.2446 49.0753 81.6598 48.4423L81.1519 46.5079C78.8443 47.1127 76.491 47.5031 74.115 47.8755L74.4247 49.8513ZM73.675 49.9685C73.9247 49.9296 74.1744 49.8906 74.4247 49.8513L74.115 47.8755C73.8652 47.9146 73.6162 47.9536 73.3674 47.9923L73.675 49.9685ZM73.669 49.9694L73.675 49.9685L73.3674 47.9923L73.3606 47.9934L73.669 49.9694ZM67.4281 51.0834C69.4658 50.625 71.5363 50.3019 73.669 49.9694L73.3606 47.9934C71.2392 48.3241 69.1036 48.6564 66.9899 49.1319L67.4281 51.0834ZM67.3641 51.0956L67.3666 51.0952L67.0505 49.1204L67.048 49.1208L67.3641 51.0956ZM57.7709 52.796C60.9557 52.3016 64.2026 51.7976 67.4223 51.0845L66.9899 49.1319C63.8429 49.8288 60.6599 50.3237 57.465 50.8195L57.7709 52.796ZM57.7423 52.8004L57.7709 52.796L57.465 50.8195L57.4374 50.8238L57.7423 52.8004ZM57.7371 52.8012L57.7423 52.8004L57.4374 50.8238L57.4323 50.8246L57.7371 52.8012ZM51.9608 53.7438C53.8697 53.4016 55.7925 53.1031 57.7381 52.8011L57.4313 50.8247C55.4897 51.1261 53.5436 51.4281 51.6078 51.7752L51.9608 53.7438ZM49.6014 78.8751C49.6009 71.4511 49.6003 64.0296 49.6094 56.6098L47.6094 56.6074C47.6003 64.0287 47.6009 71.4514 47.6014 78.8751H49.6014ZM49.6014 78.8821V78.8751H47.6014V78.8821H49.6014ZM49.6014 79.3087V78.8821H47.6014V79.3088L49.6014 79.3087ZM49.5991 94.499C49.602 89.4345 49.6017 84.3714 49.6014 79.3087L47.6014 79.3088C47.6017 84.3716 47.602 89.4341 47.5991 94.4978L49.5991 94.499ZM49.5991 94.5041V94.499L47.5991 94.4978V94.5041H49.5991ZM49.7022 97.6537C49.6417 96.5621 49.5899 95.5249 49.5991 94.5133L47.5991 94.4949C47.5892 95.5787 47.6449 96.6751 47.7052 97.7643L49.7022 97.6537ZM49.7178 97.936L49.7022 97.6537L47.7052 97.7643L47.7209 98.047L49.7178 97.936ZM49.7182 97.9422L49.7178 97.936L47.7209 98.047L47.7213 98.0539L49.7182 97.9422ZM49.8418 100.997C49.8311 99.9638 49.7733 98.9299 49.7182 97.9422L47.7213 98.0539C47.7768 99.0492 47.8317 100.037 47.8419 101.017L49.8418 100.997ZM48.6586 108C49.6694 105.661 49.8653 103.257 49.8418 100.997L47.8419 101.017C47.8642 103.161 47.6721 105.241 46.8227 107.206L48.6586 108ZM34.5426 121.951C41.2067 119.897 46.5455 114.452 48.6908 107.915L46.7905 107.291C44.8391 113.238 39.9723 118.185 33.9536 120.039L34.5426 121.951ZM14.8698 118.716C20.4056 122.842 27.9623 124.138 34.5635 121.944L33.9326 120.046C27.9651 122.03 21.0882 120.856 16.065 117.112L14.8698 118.716ZM6.1358 98.9388C5.25219 106.486 8.73936 114.256 14.8791 118.723L16.0557 117.105C10.4874 113.054 7.32445 105.986 8.12224 99.1714L6.1358 98.9388ZM21.6902 80.2493C13.3429 82.6292 6.8803 90.3151 6.13273 98.969L8.12531 99.1412C8.79994 91.3315 14.6724 84.3298 22.2386 82.1727L21.6902 80.2493ZM31.7371 79.7087C28.4084 79.1159 24.938 79.2829 21.6792 80.2525L22.2496 82.1695C25.1993 81.2918 28.3537 81.1376 31.3864 81.6778L31.7371 79.7087ZM36.9394 47.8102C36.937 57.248 36.9345 66.6883 36.9588 76.1283L38.9588 76.1231C38.9345 66.6864 38.937 57.249 38.9394 47.8108L36.9394 47.8102ZM36.9312 24.9235C36.9433 32.5506 36.9414 40.1796 36.9394 47.8102L38.9394 47.8108C38.9414 40.1804 38.9433 32.5496 38.9312 24.9203L36.9312 24.9235ZM38.4637 19.6025C37.3831 21.1624 36.8206 23.1362 36.933 24.9827L38.9293 24.8611C38.845 23.4758 39.2749 21.9436 40.1077 20.7415L38.4637 19.6025ZM43.4743 16.6239C41.2595 16.7569 39.5489 18.0358 38.4637 19.6025L40.1077 20.7415C40.935 19.5472 42.1366 18.7079 43.5942 18.6203L43.4743 16.6239ZM77.8328 9.90453C66.3344 12.1185 54.827 14.3343 43.3374 16.6417L43.7312 18.6025C55.2117 16.2969 66.7113 14.0827 78.2109 11.8685L77.8328 9.90453ZM99.1799 5.77169C92.07 7.16315 84.9535 8.53349 77.8328 9.90453L78.2109 11.8685C85.3312 10.4975 92.4506 9.12659 99.564 7.73445L99.1799 5.77169ZM99.1634 5.77506L99.1594 5.77593L99.5846 7.73021L99.5886 7.72934L99.1634 5.77506ZM24.8815 91.9477L24.8865 91.9458L24.1761 90.0762L24.1711 90.0781L24.8815 91.9477ZM18.3274 99.419C18.9432 96.0166 21.5378 93.0435 24.8374 91.9633L24.2152 90.0625C20.2202 91.3703 17.1066 94.9344 16.3594 99.0628L18.3274 99.419ZM18.3233 99.4404L18.325 99.4322L16.3618 99.0496L16.3602 99.0578L18.3233 99.4404ZM18.3201 99.4562L18.322 99.4473L16.3616 99.0509L16.3598 99.0598L18.3201 99.4562ZM25.2144 110.51C20.5497 109.289 17.3367 104.149 18.3187 99.4631L16.3612 99.0529C15.1573 104.797 19.0271 110.957 24.708 112.444L25.2144 110.51ZM25.2337 110.515L25.2226 110.512L24.6998 112.442L24.7109 112.445L25.2337 110.515ZM25.3222 110.543L25.3111 110.539L24.6334 112.421L24.6445 112.425L25.3222 110.543ZM36.7145 105.122C34.9952 109.373 29.7496 111.873 25.2714 110.526L24.6954 112.442C30.1459 114.081 36.4553 111.097 38.5686 105.871L36.7145 105.122ZM36.7933 97.7821C37.0764 99.9623 37.0508 102.225 36.8544 104.495L38.847 104.668C39.0514 102.305 39.0838 99.89 38.7766 97.5246L36.7933 97.7821ZM24.8631 91.9548C29.4515 90.3678 35.0964 92.9015 36.6946 97.3564L38.5771 96.681C36.5825 91.1212 29.7576 88.1456 24.2093 90.0646L24.8631 91.9548ZM24.7886 91.9773L24.7935 91.976L24.2789 90.0434L24.274 90.0447L24.7886 91.9773ZM38.7766 97.5246C38.741 97.2499 38.6788 96.9645 38.5771 96.681L36.6946 97.3564C36.7399 97.4828 36.7729 97.6249 36.7933 97.7821L38.7766 97.5246ZM31.3864 81.6778C33.1609 81.9938 35.024 81.5516 36.4526 80.5868C37.889 79.6166 38.9637 78.0559 38.9588 76.1231L36.9588 76.1283C36.9617 77.2553 36.3441 78.2466 35.3332 78.9294C34.3143 79.6175 32.975 79.9292 31.7371 79.7087L31.3864 81.6778ZM51.6701 25.4406C49.3248 25.8831 47.6146 27.9238 47.6088 30.3171L49.6088 30.3219C49.6122 28.895 50.6323 27.6717 52.0409 27.4059L51.6701 25.4406ZM51.6078 51.7752C49.2585 52.1965 47.6123 54.2577 47.6094 56.6074L49.6094 56.6098C49.6111 55.1903 50.6001 53.9878 51.9608 53.7438L51.6078 51.7752ZM99.658 22.1858C99.6461 19.0232 96.7371 16.6762 93.6462 17.3075L94.0464 19.267C95.9082 18.8868 97.6509 20.3009 97.658 22.1933L99.658 22.1858ZM38.5686 105.871C38.7315 105.469 38.8133 105.058 38.847 104.668L36.8544 104.495C36.834 104.732 36.7876 104.941 36.7145 105.122L38.5686 105.871ZM84.3577 41.4905C84.3481 41.472 84.3402 41.4527 84.3339 41.4327L86.2434 40.8379C86.2143 40.7444 86.1769 40.6538 86.1318 40.5671L84.3577 41.4905ZM102.67 55C101.013 55 99.6703 53.6564 99.6713 51.9997L97.6713 51.9984C97.6696 54.7607 99.9086 57 102.67 57V55ZM47.6102 38.2208C47.6098 41.235 50.2689 43.6217 53.3014 43.0869L52.954 41.1173C51.21 41.4248 49.61 40.0572 49.6102 38.2211L47.6102 38.2208ZM108.09 52.0009C108.09 53.6575 106.747 55 105.09 55V57C107.851 57 110.089 54.7625 110.09 52.0018L108.09 52.0009ZM105.429 7.3605C105.411 7.35237 105.393 7.34277 105.376 7.332L106.454 5.64722C106.386 5.60409 106.316 5.56599 106.243 5.53342L105.429 7.3605Z" fill="url(#paint1_linear_1012_845)"/>
<path d="M88.6128 76.2128C88.0209 75.6209 87.8785 74.7281 88.127 73.9288C88.4335 72.943 88.6 71.8971 88.6 70.8C88.6 64.833 83.767 60 77.8 60C71.833 60 67 64.833 67 70.8C67 76.767 71.833 81.6 77.8 81.6C78.8971 81.6 79.943 81.4335 80.9288 81.127C81.7281 80.8785 82.6209 81.0209 83.2128 81.6128L87.1858 85.5858C87.9668 86.3668 87.9668 87.6332 87.1858 88.4142L83.2128 92.3872C82.6209 92.9791 81.7281 93.1215 80.9288 92.873C79.943 92.5665 78.8971 92.4 77.8 92.4C71.833 92.4 67 97.233 67 103.2C67 109.167 71.833 114 77.8 114C83.767 114 88.6 109.167 88.6 103.2C88.6 102.103 88.4335 101.057 88.127 100.071C87.8785 99.2719 88.0209 98.3791 88.6128 97.7872L92.5858 93.8142C93.3668 93.0332 94.6332 93.0332 95.4142 93.8142L112.314 110.714C112.689 111.089 113.198 111.3 113.728 111.3H119.091C120.145 111.3 121 110.445 121 109.391C121 108.884 120.799 108.399 120.441 108.041L88.6128 76.2128ZM77.8 76.2C74.83 76.2 72.4 73.797 72.4 70.8C72.4 67.803 74.83 65.4 77.8 65.4C80.77 65.4 83.2 67.803 83.2 70.8C83.2 73.797 80.77 76.2 77.8 76.2ZM77.8 108.6C74.83 108.6 72.4 106.197 72.4 103.2C72.4 100.203 74.83 97.8 77.8 97.8C80.77 97.8 83.2 100.203 83.2 103.2C83.2 106.197 80.77 108.6 77.8 108.6ZM94 88.35C93.244 88.35 92.65 87.756 92.65 87C92.65 86.244 93.244 85.65 94 85.65C94.756 85.65 95.35 86.244 95.35 87C95.35 87.756 94.756 88.35 94 88.35ZM113.728 62.7C113.198 62.7 112.689 62.9107 112.314 63.2858L98.1142 77.4858C97.3332 78.2668 97.3332 79.5332 98.1142 80.3142L100.686 82.8858C101.467 83.6668 102.733 83.6668 103.514 82.8858L120.441 65.9592C120.799 65.6011 121 65.1155 121 64.6092C121 63.5548 120.145 62.7 119.091 62.7H113.728Z" fill="url(#paint2_linear_1012_845)" stroke="url(#paint3_linear_1012_845)" stroke-width="3"/>
<defs>
<linearGradient id="paint0_linear_1012_845" x1="58.0872" y1="122" x2="58.0872" y2="6" gradientUnits="userSpaceOnUse">
<stop stop-color="#FFA800"/>
<stop offset="1" stop-color="#FFF737"/>
</linearGradient>
<linearGradient id="paint1_linear_1012_845" x1="58.0872" y1="122" x2="58.0872" y2="5.99999" gradientUnits="userSpaceOnUse">
<stop stop-color="#FFA800"/>
<stop offset="1" stop-color="#FFF737"/>
</linearGradient>
<linearGradient id="paint2_linear_1012_845" x1="66.2195" y1="60.5314" x2="121.889" y2="117.904" gradientUnits="userSpaceOnUse">
<stop stop-color="#F9D423"/>
<stop offset="0.515624" stop-color="#FF4E50"/>
<stop offset="0.991304" stop-color="#8A2387"/>
</linearGradient>
<linearGradient id="paint3_linear_1012_845" x1="66.2195" y1="60.5314" x2="121.889" y2="117.904" gradientUnits="userSpaceOnUse">
<stop stop-color="#F9D423"/>
<stop offset="0.515624" stop-color="#FF4E50"/>
<stop offset="0.991304" stop-color="#8A2387"/>
</linearGradient>
</defs>
</svg>
