<svg width="128" height="128" viewBox="0 0 128 128" fill="none" xmlns="http://www.w3.org/2000/svg">
<path d="M103.177 78.2532C103.184 75.7208 102.865 73.1902 102.199 70.7418C99.5365 60.952 91.9056 53.3597 87.4467 44.2466C85.1483 39.5486 83.7016 34.08 85.2783 29.0931C81.558 32.8771 79.7884 38.4847 80.6633 43.7184C81.6184 49.4383 85.4121 54.26 87.2619 59.7561C90.6848 69.9267 86.4437 82.154 77.4582 88.0203C78.9957 82.9454 78.1308 77.4338 76.4925 72.39C74.8542 67.3469 72.4674 62.5695 70.8726 57.5123C68.3657 49.5616 68.856 41.1095 69.6045 32.8198C71.3598 13.3654 82.7938 8.01092 82.7938 8.01092C82.7938 8.01092 71.1059 7.38863 62.5311 15.5375C57.1338 20.6674 52.5815 26.8772 50.4626 34.0131C49.834 36.1312 49.3949 38.307 49.1745 40.5058C49.1247 41.0014 48.7838 42.3772 49.0228 42.808C45.9642 37.294 40.4008 33.0447 34.1393 32.3028C27.8778 31.5611 21.1371 34.7138 18.3119 40.3508C15.4867 45.9882 17.3387 53.7437 22.7683 56.9503C21.843 54.705 22.643 52.0192 24.2489 50.1977C28.0748 45.8577 35.537 46.4324 39.8603 50.2773C44.1836 54.1218 45.8274 60.2163 45.9713 66.0006C46.1364 72.6221 44.8802 79.204 44.8237 85.8257C44.7486 94.6127 46.8909 102.956 53.477 109.174C61.4615 116.712 73.0547 118.741 83.9629 120C73.0616 117.698 62.5193 111.658 56.9798 101.99C52.2659 93.7646 51.5912 83.8713 51.7347 74.3911C51.8439 67.1752 52.4023 59.9208 54.0223 52.8735C55.6765 45.6771 58.8883 39.7847 62.2678 33.3305C58.4516 40.6196 60.8756 51.2352 63.5372 58.5688C66.4075 66.4775 71.0867 74.0638 71.4675 82.6667C71.483 83.0052 71.4911 83.3436 71.4917 83.6821C71.5079 88.8068 69.8609 93.774 68.2325 98.6329C76.0003 98.071 83.0377 93.2507 87.6154 86.9494C92.1931 80.6488 94.5643 72.9961 95.9133 65.3255C98.0382 73.1348 97.6748 81.6008 94.8885 89.1994C92.1016 96.7973 86.9048 103.491 80.2346 108.074C87.8798 105.759 94.6944 100.65 98.8247 93.8125C101.642 89.1465 103.162 83.6946 103.177 78.2532Z" fill="url(#paint0_linear_735_25)" stroke="url(#paint1_linear_735_25)" stroke-width="4" stroke-linejoin="round"/>
<defs>
<linearGradient id="paint0_linear_735_25" x1="15.7544" y1="9.10207" x2="128.23" y2="98.2929" gradientUnits="userSpaceOnUse">
<stop stop-color="#F9D423"/>
<stop offset="0.515624" stop-color="#FF4E50"/>
<stop offset="0.991304" stop-color="#8A2387"/>
</linearGradient>
<linearGradient id="paint1_linear_735_25" x1="15.7544" y1="9.10207" x2="128.23" y2="98.2929" gradientUnits="userSpaceOnUse">
<stop stop-color="#F9D423"/>
<stop offset="0.515624" stop-color="#FF4E50"/>
<stop offset="0.991304" stop-color="#8A2387"/>
</linearGradient>
</defs>
</svg>
