<svg width="128" height="128" viewBox="0 0 128 128" fill="none" xmlns="http://www.w3.org/2000/svg">
<path fill-rule="evenodd" clip-rule="evenodd" d="M68.8 8H59.2C53.0144 8 48 13.0144 48 19.2V52.8C48 53.1737 48.0183 53.5431 48.0541 53.9074C48.1175 54.5536 47.9564 55.2063 47.5813 55.7364L18.538 96.7895C16.8748 99.1421 15.9995 101.811 16 104.527C16.0006 107.243 16.877 109.911 18.5412 112.263C20.2053 114.615 22.5987 116.568 25.4808 117.926C28.3629 119.285 31.6321 120 34.9601 120H93.0399C96.3679 120 99.6371 119.285 102.519 117.926C105.401 116.568 107.795 114.615 109.459 112.263C111.123 109.911 111.999 107.243 112 104.527C112.001 101.811 111.125 99.1421 109.462 96.7895L80.4221 55.7364C80.0454 55.2041 79.8835 54.5487 79.9467 53.8997C79.982 53.5379 80 53.171 80 52.8V19.2C80 13.0144 74.9856 8 68.8 8ZM28.0313 96.7988L34.0061 87.7893C34.7471 86.6718 35.9988 86 37.3397 86H90.6603C92.0012 86 93.2529 86.6718 93.9939 87.7893L99.9687 96.7988C105.741 105.511 98.5229 113.141 86.9744 113.141H64H41.0256C29.4771 113.141 22.2586 105.511 28.0313 96.7988ZM66 20C64.4087 20 62.8826 20.6321 61.7574 21.7574C60.6321 22.8826 60 24.4087 60 26C60 27.5913 60.6321 29.1174 61.7574 30.2426C62.8826 31.3679 64.4087 32 66 32C67.5913 32 69.1174 31.3679 70.2426 30.2426C71.3679 29.1174 72 27.5913 72 26C72 24.4087 71.3679 22.8826 70.2426 21.7574C69.1174 20.6321 67.5913 20 66 20ZM53.7574 37.7574C54.8826 36.6321 56.4087 36 58 36C59.5913 36 61.1174 36.6321 62.2426 37.7574C63.3679 38.8826 64 40.4087 64 42C64 43.5913 63.3679 45.1174 62.2426 46.2426C61.1174 47.3679 59.5913 48 58 48C56.4087 48 54.8826 47.3679 53.7574 46.2426C52.6321 45.1174 52 43.5913 52 42C52 40.4087 52.6321 38.8826 53.7574 37.7574ZM70 48C68.4087 48 66.8826 48.6321 65.7574 49.7574C64.6321 50.8826 64 52.4087 64 54C64 55.5913 64.6321 57.1174 65.7574 58.2426C66.8826 59.3679 68.4087 60 70 60C71.5913 60 73.1174 59.3679 74.2426 58.2426C75.3679 57.1174 76 55.5913 76 54C76 52.4087 75.3679 50.8826 74.2426 49.7574C73.1174 48.6321 71.5913 48 70 48ZM53.7574 65.7574C54.8826 64.6321 56.4087 64 58 64C59.5913 64 61.1174 64.6321 62.2426 65.7574C63.3679 66.8826 64 68.4087 64 70C64 71.5913 63.3679 73.1174 62.2426 74.2426C61.1174 75.3679 59.5913 76 58 76C56.4087 76 54.8826 75.3679 53.7574 74.2426C52.6321 73.1174 52 71.5913 52 70C52 68.4087 52.6321 66.8826 53.7574 65.7574Z" fill="url(#paint0_linear_726_96)"/>
<defs>
<linearGradient id="paint0_linear_726_96" x1="64" y1="120" x2="64" y2="8" gradientUnits="userSpaceOnUse">
<stop stop-color="#5570FF"/>
<stop offset="1" stop-color="#4DD3FF"/>
</linearGradient>
</defs>
</svg>
