<svg width="64" height="65" viewBox="0 0 64 65" fill="none" xmlns="http://www.w3.org/2000/svg">
<path d="M16.8333 60.5H47.1667C50.5691 60.4963 53.8312 59.143 56.2371 56.7371C58.643 54.3312 59.9963 51.0691 60 47.6667V17.3333C59.9963 13.9309 58.643 10.6688 56.2371 8.2629C53.8312 5.857 50.5691 4.5037 47.1667 4.5H16.8333C13.4309 4.5037 10.1688 5.857 7.76289 8.2629C5.35698 10.6688 4.00371 13.9309 4 17.3333V47.6667C4.00371 51.0691 5.35698 54.3312 7.76289 56.7371C10.1688 59.143 13.4309 60.4963 16.8333 60.5ZM53 36.1667C53 36.719 52.5523 37.1667 52 37.1667H49.3333C48.7811 37.1667 48.3333 36.719 48.3333 36.1667V28.8333C48.3333 28.281 48.7811 27.8333 49.3333 27.8333H52C52.5523 27.8333 53 28.2811 53 28.8333V36.1667ZM22.6667 37C22.6667 36.4477 23.1144 36 23.6667 36H40.3333C40.8856 36 41.3333 36.4477 41.3333 37V52.5C41.3333 53.0523 40.8856 53.5 40.3333 53.5H23.6667C23.1144 53.5 22.6667 53.0523 22.6667 52.5V37ZM41.3333 28C41.3333 28.5523 40.8856 29 40.3333 29H23.6667C23.1144 29 22.6667 28.5523 22.6667 28V12.5C22.6667 11.9477 23.1144 11.5 23.6667 11.5H40.3333C40.8856 11.5 41.3333 11.9477 41.3333 12.5V28ZM15.6667 36.1667C15.6667 36.719 15.219 37.1667 14.6667 37.1667H12C11.4477 37.1667 11 36.719 11 36.1667V28.8333C11 28.281 11.4477 27.8333 12 27.8333H14.6667C15.219 27.8333 15.6667 28.2811 15.6667 28.8333V36.1667ZM11 47.6667V45.1667C11 44.6144 11.4477 44.1667 12 44.1667H14.6667C15.219 44.1667 15.6667 44.6144 15.6667 45.1667V52.1563C15.6667 52.7889 15.0809 53.2653 14.5011 53.0123C13.6564 52.6439 12.9055 52.078 12.3152 51.3553C11.4649 50.314 11.0003 49.011 11 47.6667ZM49.4989 53.0123C48.9191 53.2653 48.3333 52.7889 48.3333 52.1563V45.1667C48.3333 44.6144 48.7811 44.1667 49.3333 44.1667H52C52.5523 44.1667 53 44.6144 53 45.1667V47.6667C52.9997 49.011 52.5351 50.314 51.6848 51.3553C51.0945 52.078 50.3436 52.6439 49.4989 53.0123ZM53 17.3333V19.8333C53 20.3856 52.5523 20.8333 52 20.8333H49.3333C48.7811 20.8333 48.3333 20.3856 48.3333 19.8333V12.8437C48.3333 12.2111 48.9191 11.7347 49.4989 11.9877C50.3436 12.3561 51.0945 12.922 51.6848 13.6447C52.5351 14.686 52.9997 15.989 53 17.3333ZM14.5011 11.9877C15.0809 11.7347 15.6667 12.2111 15.6667 12.8437V19.8333C15.6667 20.3856 15.219 20.8333 14.6667 20.8333H12C11.4477 20.8333 11 20.3856 11 19.8333V17.3333C11.0003 15.989 11.4649 14.686 12.3152 13.6447C12.9055 12.922 13.6564 12.3561 14.5011 11.9877Z" fill="url(#paint0_linear_1005_93)"/>
<defs>
<linearGradient id="paint0_linear_1005_93" x1="49.8657" y1="4.5" x2="3.99995" y2="60.5002" gradientUnits="userSpaceOnUse">
<stop stop-color="#DE00C0"/>
<stop offset="1" stop-color="#8720FF"/>
</linearGradient>
</defs>
</svg>
