<svg width="17" height="16" viewBox="0 0 17 16" fill="none" xmlns="http://www.w3.org/2000/svg">
<path d="M14.6453 5.61692C14.9126 6.35301 15.0598 7.14687 15.0625 7.97576V8.00002C15.0625 8.83775 14.9151 9.63997 14.6451 10.3832C14.4574 10.9 14.2103 11.3889 13.9114 11.8413L13.9109 11.8421C13.7859 12.032 13.6513 12.2157 13.5081 12.3925C13.0503 12.9582 12.5056 13.4509 11.8941 13.8512L11.8939 13.8513C11.6686 13.9988 11.4347 14.1336 11.193 14.2542L11.1923 14.2544C10.2517 14.7252 9.1891 14.9906 8.0625 14.9906C6.9359 14.9906 5.87329 14.7252 4.93269 14.2544L4.93208 14.2542C4.69009 14.1334 4.45591 13.9987 4.23072 13.8513C3.61122 13.4456 3.06014 12.9449 2.5985 12.3699L2.5982 12.3695C2.45525 12.1919 2.32096 12.0066 2.19567 11.8145L2.19536 11.814C1.90451 11.3692 1.66368 10.8895 1.47956 10.3825L1.47954 10.3824C1.20964 9.63951 1.0625 8.83768 1.0625 8.00016C1.0625 4.14855 4.18746 1.00977 8.0625 1.00977C10.0064 1.00977 11.7627 1.80023 13.0306 3.07551L13.0308 3.07557C13.3959 3.44285 13.7204 3.85042 13.9964 4.29058L13.9967 4.29141C14.2576 4.7059 14.4756 5.14988 14.6451 5.61682L14.6453 5.61692Z" stroke="url(#paint0_linear_661_79)" stroke-width="1.8"/>
<path d="M9.47709 6.51203C9.36032 6.51203 9.26567 6.60838 9.26567 6.72724V11.8694C9.26567 12.1072 9.07635 12.2998 8.84281 12.2998H7.26753C7.03401 12.2998 6.84473 12.1072 6.84473 11.8694V6.72724C6.84473 6.60838 6.75007 6.51203 6.63332 6.51203H4.7729C4.53938 6.51203 4.3501 6.31932 4.3501 6.08159V4.73024C4.3501 4.49253 4.53938 4.2998 4.7729 4.2998H11.3265C11.56 4.2998 11.7493 4.49253 11.7493 4.73024V6.08159C11.7493 6.31932 11.56 6.51203 11.3265 6.51203H9.47709Z" fill="url(#paint1_linear_661_79)"/>
<defs>
<linearGradient id="paint0_linear_661_79" x1="15.021" y1="1.0984" x2="1.15068" y2="14.8722" gradientUnits="userSpaceOnUse">
<stop stop-color="#FE7970"/>
<stop offset="1" stop-color="#DC3282"/>
</linearGradient>
<linearGradient id="paint1_linear_661_79" x1="11.7273" y1="4.35769" x2="2.88046" y2="11.4669" gradientUnits="userSpaceOnUse">
<stop stop-color="#FE7970"/>
<stop offset="1" stop-color="#DC3282"/>
</linearGradient>
</defs>
</svg>
