<svg width="128" height="128" viewBox="0 0 128 128" fill="none" xmlns="http://www.w3.org/2000/svg">
<path fill-rule="evenodd" clip-rule="evenodd" d="M11 20.3104C11 16.2604 14.2604 13 18.3104 13H32.9312C36.9812 13 40.2416 16.2604 40.2416 20.3104V97.0697V108.035V115.346H32.9312C25.6208 115.346 11 108.035 11 97.0697V20.3104ZM54.8612 42.2416C50.8112 42.2416 47.5508 38.9812 47.5508 34.9312V20.3104C47.5508 16.2604 50.8112 13 54.8612 13H98.7236H109.689H117V20.3104C117 27.6208 109.689 42.2416 98.7236 42.2416H54.8612Z" fill="url(#paint0_linear_706_28)"/>
<path d="M52.3524 52.001C51.7852 51.9894 51.2211 52.0782 50.6933 52.2622C50.1654 52.4461 49.6846 52.7216 49.279 53.0723C48.8735 53.4231 48.5514 53.842 48.3317 54.3044C48.1121 54.7668 47.9993 55.2634 48 55.765V80.0058V104.247C48.0013 104.906 48.1987 105.553 48.5723 106.124C48.946 106.694 49.4827 107.168 50.1288 107.497C50.7749 107.827 51.5075 108 52.2533 108C52.9991 108 53.7318 107.827 54.3779 107.498L78.1269 95.3772L101.876 83.2568C102.522 82.9266 103.058 82.452 103.431 81.8807C103.804 81.3094 104 80.6614 104 80.0018C104 79.3423 103.804 78.6943 103.431 78.123C103.058 77.5516 102.522 77.077 101.876 76.7468L78.1269 64.6264L54.3779 52.506C53.7613 52.1904 53.0648 52.0167 52.3524 52.001Z" fill="url(#paint1_linear_706_28)"/>
<defs>
<linearGradient id="paint0_linear_706_28" x1="30.2124" y1="103.263" x2="122.888" y2="19.5155" gradientUnits="userSpaceOnUse">
<stop stop-color="#FE0844"/>
<stop offset="1" stop-color="#FEB302"/>
</linearGradient>
<linearGradient id="paint1_linear_706_28" x1="53.2093" y1="80" x2="94.4496" y2="80" gradientUnits="userSpaceOnUse">
<stop stop-color="#5570FF"/>
<stop offset="1" stop-color="#4DD3FF"/>
</linearGradient>
</defs>
</svg>
