<svg width="64" height="64" viewBox="0 0 64 64" fill="none" xmlns="http://www.w3.org/2000/svg">
<path d="M33.4043 32.0004C32.8521 32.0004 32.4043 32.4481 32.4043 33.0004V41.3993C32.4043 42.2867 31.3344 42.7345 30.7023 42.1115L21.1673 32.7125C20.77 32.3209 20.77 31.6799 21.1673 31.2882L31.7023 20.9029C32.0917 20.5191 32.717 20.5191 33.1064 20.9029L42.6272 30.2882C43.2641 30.9161 42.8196 32.0004 41.9252 32.0004H33.4043ZM33.1064 4.69205C32.717 4.30825 32.0917 4.30825 31.7023 4.69204L4.72244 31.2882C4.32513 31.6799 4.32514 32.3209 4.72245 32.7125L31.7023 59.308C32.0917 59.6918 32.717 59.6918 33.1064 59.308L44.0672 48.5034C44.2578 48.3155 44.3651 48.0589 44.3651 47.7912V33.0004C44.3651 32.4481 44.8129 32.0004 45.3651 32.0004H58.3696C59.2639 32.0004 59.7085 30.9161 59.0716 30.2882L33.1064 4.69205Z" fill="url(#paint0_linear_448_688)"/>
<defs>
<linearGradient id="paint0_linear_448_688" x1="32.4042" y1="4" x2="32.4042" y2="60" gradientUnits="userSpaceOnUse">
<stop stop-color="#97EB0E"/>
<stop offset="1" stop-color="#19B90B"/>
</linearGradient>
</defs>
</svg>
