<svg width="16" height="16" viewBox="0 0 16 16" fill="none" xmlns="http://www.w3.org/2000/svg">
<g clip-path="url(#clip0_670_236)">
<path d="M11.5882 3.82143C11.5882 4.05813 11.7687 4.25 11.9916 4.25H14.7143C14.9371 4.25 15.1176 4.44187 15.1176 4.67857V11.3214C15.1176 11.5581 14.9371 11.75 14.7143 11.75H11.9916C11.7687 11.75 11.5882 11.9419 11.5882 12.1786V13.25C11.5882 13.4491 11.6627 13.6398 11.795 13.7804C11.9275 13.9209 12.107 14 12.2941 14H13.3025C13.5254 14 13.7059 14.1918 13.7059 14.4286V15.0714C13.7059 15.3082 13.5254 15.5 13.3025 15.5H11.9412C11.5529 15.5 10.8824 15.1625 10.8824 14.75C10.8824 15.1625 10.2118 15.5 9.82353 15.5H8.46218C8.23941 15.5 8.05882 15.3082 8.05882 15.0714V14.4286C8.05882 14.1918 8.23941 14 8.46218 14H9.47059C9.65779 14 9.83734 13.9209 9.96973 13.7804C10.1021 13.6398 10.1765 13.4491 10.1765 13.25V2.75C10.1765 2.5511 10.1021 2.36032 9.96973 2.21966C9.83734 2.07903 9.65779 2 9.47059 2H8.46218C8.23941 2 8.05882 1.80813 8.05882 1.57143V0.928571C8.05882 0.691871 8.23941 0.5 8.46218 0.5H9.82353C10.2118 0.5 10.8824 0.8375 10.8824 1.25C10.8824 0.8375 11.5529 0.5 11.9412 0.5H13.3025C13.5254 0.5 13.7059 0.691871 13.7059 0.928571V1.57143C13.7059 1.80813 13.5254 2 13.3025 2H12.2941C12.107 2 11.9275 2.07903 11.795 2.21966C11.6627 2.36032 11.5882 2.5511 11.5882 2.75V3.82143ZM1 4.67857C1 4.44187 1.18058 4.25 1.40336 4.25H8.36134C8.58412 4.25 8.76471 4.44187 8.76471 4.67857V5.32143C8.76471 5.55813 8.58412 5.75 8.36134 5.75H2.81513C2.59235 5.75 2.41176 5.94187 2.41176 6.17857V9.82143C2.41176 10.0581 2.59235 10.25 2.81513 10.25H8.36134C8.58412 10.25 8.76471 10.4419 8.76471 10.6786V11.3214C8.76471 11.5581 8.58412 11.75 8.36134 11.75H1.40336C1.18058 11.75 1 11.5581 1 11.3214V4.67857ZM13.3025 10.25C13.5254 10.25 13.7059 10.0581 13.7059 9.82143V6.17857C13.7059 5.94187 13.5254 5.75 13.3025 5.75H11.9916C11.7687 5.75 11.5882 5.94187 11.5882 6.17857V9.82143C11.5882 10.0581 11.7687 10.25 11.9916 10.25H13.3025ZM5.58824 8C5.58824 7.70163 5.47669 7.41547 5.27809 7.20451C5.07956 6.99352 4.81023 6.875 4.52941 6.875C4.24859 6.875 3.97929 6.99352 3.78073 7.20451C3.58214 7.41547 3.47059 7.70163 3.47059 8C3.47059 8.29837 3.58214 8.58453 3.78073 8.79551C3.97929 9.00648 4.24859 9.125 4.52941 9.125C4.81023 9.125 5.07956 9.00648 5.27809 8.79551C5.47669 8.58453 5.58824 8.29837 5.58824 8ZM8.76471 7.35584C8.76471 7.23581 8.71951 7.11749 8.62466 7.0523C8.19897 6.75976 7.62283 6.83287 7.26824 7.25C6.87294 7.7 6.90823 8.4125 7.35294 8.8325C7.6982 9.17934 8.22771 9.21772 8.62369 8.94766C8.71911 8.88258 8.76471 8.76384 8.76471 8.64335V7.35584Z" fill="url(#paint0_linear_670_236)" stroke="url(#paint1_linear_670_236)" stroke-width="0.3"/>
</g>
<defs>
<linearGradient id="paint0_linear_670_236" x1="15.1176" y1="15.5" x2="2.65072" y2="3.63496" gradientUnits="userSpaceOnUse">
<stop stop-color="#731FFF"/>
<stop offset="0.905415" stop-color="#EB1AFF"/>
</linearGradient>
<linearGradient id="paint1_linear_670_236" x1="15.1176" y1="15.5" x2="2.65072" y2="3.63496" gradientUnits="userSpaceOnUse">
<stop stop-color="#731FFF"/>
<stop offset="0.905415" stop-color="#EB1AFF"/>
</linearGradient>
<clipPath id="clip0_670_236">
<rect width="16" height="16" fill="white"/>
</clipPath>
</defs>
</svg>
