<svg width="16" height="16" viewBox="0 0 16 16" fill="none" xmlns="http://www.w3.org/2000/svg">
<path fill-rule="evenodd" clip-rule="evenodd" d="M6.4107 0.433199L6.58156 0.433297H9.41883L9.58969 0.433199C10.5825 0.432341 11.3384 0.431687 11.9926 0.706524C12.5663 0.947596 13.0655 1.33731 13.4385 1.8355C13.8638 2.40346 14.0465 3.13697 14.2864 4.10034L14.3278 4.26613L14.8516 6.36156L14.8644 6.41289L14.8644 6.4129C15.0543 7.17228 15.1657 7.61808 15.2307 8.07114C15.3506 8.90831 15.3506 9.7583 15.2306 10.5955C15.1657 11.0485 15.0543 11.4943 14.8644 12.2537L14.8516 12.305L14.8237 12.4166L14.8237 12.4166C14.6703 13.0321 14.5507 13.512 14.3188 13.9144C13.8904 14.6576 13.1896 15.2048 12.3648 15.4401C11.9181 15.5675 11.4235 15.5671 10.7892 15.5667H10.7891L10.6742 15.5666H5.326L5.21106 15.5667H5.21104C4.57675 15.5671 4.08221 15.5675 3.63559 15.4401C2.81067 15.2048 2.10978 14.6576 1.68147 13.9144C1.44956 13.512 1.32995 13.0321 1.17654 12.4166L1.14872 12.3051L1.13588 12.2538C0.946021 11.4944 0.83456 11.0486 0.769652 10.5956C0.649694 9.75834 0.649699 8.90825 0.769667 8.07099C0.834581 7.61796 0.946046 7.17217 1.13591 6.41284L1.13591 6.41283L1.14875 6.36148L1.67265 4.26601L1.714 4.10023C1.95396 3.13688 2.13667 2.4034 2.56195 1.83545C2.93498 1.33728 3.4341 0.947577 4.00788 0.706514C4.66202 0.431687 5.41792 0.432341 6.4107 0.433199ZM6.58156 2.2333C5.33666 2.2333 4.9801 2.25046 4.70509 2.366C4.42639 2.48309 4.18396 2.67237 4.00278 2.91434C3.82398 3.15312 3.72085 3.49487 3.4189 4.7026L2.895 6.79807C2.6887 7.62325 2.60171 7.97566 2.55147 8.3263C2.54636 8.36194 2.54153 8.3976 2.53697 8.4333H3.46797L3.55093 8.4332C3.90494 8.43259 4.25472 8.43198 4.58587 8.53254C4.87518 8.62041 5.14434 8.76445 5.37793 8.95644C5.64531 9.1762 5.83942 9.46847 6.03604 9.76453L6.08229 9.83407C6.35785 10.2474 6.39898 10.2925 6.43189 10.3196C6.48267 10.3613 6.54118 10.3926 6.60408 10.4117C6.64493 10.4241 6.70458 10.4333 7.19892 10.4333H8.8013C9.29564 10.4333 9.35529 10.4241 9.39615 10.4117C9.45904 10.3926 9.51755 10.3613 9.56833 10.3196C9.60124 10.2925 9.64237 10.2474 9.91793 9.83407L9.96418 9.76452L9.96418 9.76451C10.1608 9.46847 10.3549 9.1762 10.6223 8.95644C10.8559 8.76445 11.125 8.62041 11.4144 8.53254C11.7455 8.43198 12.0953 8.43259 12.4493 8.4332L12.5323 8.4333H13.4633C13.4588 8.39764 13.4539 8.362 13.4488 8.3264C13.3986 7.97574 13.3116 7.62332 13.1053 6.7981L12.5815 4.70267C12.2796 3.49491 12.1764 3.15315 11.9977 2.91437C11.8165 2.67239 11.574 2.4831 11.2953 2.36601C11.0203 2.25046 10.6638 2.2333 9.41883 2.2333H6.58156ZM13.4633 10.2333H12.5323C12.0379 10.2333 11.9783 10.2425 11.9374 10.2549C11.8745 10.274 11.816 10.3053 11.7652 10.347C11.7323 10.3741 11.6912 10.4192 11.4156 10.8325L11.3694 10.9021C11.1728 11.1981 10.9786 11.4904 10.7113 11.7102C10.4777 11.9021 10.2085 12.0462 9.9192 12.1341C9.58805 12.2346 9.23827 12.234 8.88426 12.2334L8.8013 12.2333H7.19892L7.11596 12.2334C6.76195 12.234 6.41217 12.2346 6.08102 12.1341C5.79171 12.0462 5.52255 11.9021 5.28896 11.7102C5.02158 11.4904 4.82747 11.1981 4.63084 10.9021L4.5846 10.8325C4.30904 10.4192 4.26791 10.3741 4.235 10.347C4.18422 10.3053 4.12571 10.274 4.06281 10.2549C4.02196 10.2425 3.9623 10.2333 3.46797 10.2333H2.53695C2.54152 10.269 2.54635 10.3047 2.55146 10.3403C2.60169 10.691 2.68868 11.0434 2.89497 11.8685C3.09007 12.6489 3.15166 12.8605 3.24103 13.0156C3.43572 13.3534 3.7543 13.6022 4.12926 13.7091C4.30138 13.7582 4.52158 13.7666 5.326 13.7666H10.6742C11.4787 13.7666 11.6989 13.7582 11.871 13.7091C12.246 13.6022 12.5645 13.3534 12.7592 13.0156C12.8486 12.8605 12.9102 12.6489 13.1053 11.8685C13.3116 11.0433 13.3986 10.6908 13.4488 10.3402C13.4539 10.3046 13.4588 10.269 13.4633 10.2333ZM6.00021 3.76663C5.50316 3.76663 5.10021 4.16957 5.10021 4.66663C5.10021 5.16369 5.50316 5.56663 6.00021 5.56663H10.0002C10.4973 5.56663 10.9002 5.16369 10.9002 4.66663C10.9002 4.16957 10.4973 3.76663 10.0002 3.76663H6.00021ZM6.66688 6.4333C6.16982 6.4333 5.76688 6.83624 5.76688 7.3333C5.76688 7.83035 6.16982 8.2333 6.66688 8.2333H9.33355C9.8306 8.2333 10.2335 7.83035 10.2335 7.3333C10.2335 6.83624 9.8306 6.4333 9.33355 6.4333H6.66688Z" fill="url(#paint0_linear_591_181)"/>
<defs>
<linearGradient id="paint0_linear_591_181" x1="8.04313" y1="18.6496" x2="8.04313" y2="1.87866" gradientUnits="userSpaceOnUse">
<stop stop-color="#FDA700"/>
<stop offset="1" stop-color="#FFDE00"/>
</linearGradient>
</defs>
</svg>
