<svg width="64" height="64" viewBox="0 0 64 64" fill="none" xmlns="http://www.w3.org/2000/svg">
<path d="M38.7146 49.0286C50.8451 41.5578 56.8611 27.8768 52.1518 18.4711C47.4424 9.06554 33.7912 7.49715 21.6607 14.968C9.5303 22.439 3.51425 36.12 8.22355 45.5255C12.9328 54.9312 26.5842 56.4996 38.7146 49.0286Z" stroke="url(#paint0_linear_1005_386)" stroke-width="6"/>
<path fill-rule="evenodd" clip-rule="evenodd" d="M30.1875 3C35.1926 3 39.25 7.05742 39.25 12.0625C39.25 17.0676 35.1926 21.125 30.1875 21.125C25.1824 21.125 21.125 17.0676 21.125 12.0625C21.125 7.05742 25.1824 3 30.1875 3ZM12.0625 17.5C17.0676 17.5 21.125 21.5574 21.125 26.5625C21.125 31.5676 17.0676 35.625 12.0625 35.625C7.05742 35.625 3 31.5676 3 26.5625C3 21.5574 7.05742 17.5 12.0625 17.5ZM24.75 51.9375C24.75 46.9324 20.6926 42.875 15.6875 42.875C10.6824 42.875 6.625 46.9324 6.625 51.9375C6.625 56.9426 10.6824 61 15.6875 61C20.6926 61 24.75 56.9426 24.75 51.9375ZM41.0625 39.25C46.0676 39.25 50.125 43.3074 50.125 48.3125C50.125 53.3176 46.0676 57.375 41.0625 57.375C36.0574 57.375 32 53.3176 32 48.3125C32 43.3074 36.0574 39.25 41.0625 39.25ZM61 26.5625C61 21.5574 56.9426 17.5 51.9375 17.5C46.9324 17.5 42.875 21.5574 42.875 26.5625C42.875 31.5676 46.9324 35.625 51.9375 35.625C56.9426 35.625 61 31.5676 61 26.5625Z" fill="url(#paint1_linear_1005_386)"/>
<defs>
<linearGradient id="paint0_linear_1005_386" x1="30.1876" y1="53.7482" x2="30.1876" y2="10.2485" gradientUnits="userSpaceOnUse">
<stop stop-color="#5570FF"/>
<stop offset="1" stop-color="#4DD3FF"/>
</linearGradient>
<linearGradient id="paint1_linear_1005_386" x1="32" y1="61" x2="32" y2="3" gradientUnits="userSpaceOnUse">
<stop stop-color="#5558FF"/>
<stop offset="1" stop-color="#00C0FF"/>
</linearGradient>
</defs>
</svg>
