<svg width="48" height="48" viewBox="0 0 48 48" fill="none" xmlns="http://www.w3.org/2000/svg">
<g clip-path="url(#clip0_1005_279)">
<path fill-rule="evenodd" clip-rule="evenodd" d="M31.1959 21.2921C31.1959 21.2921 31.196 21.2921 31.1959 21.2921L26.3308 26.1574C26.0153 26.4729 25.892 26.9328 26.0075 27.3638L27.7883 34.0098C27.9038 34.4408 28.2405 34.7775 28.6715 34.893L35.3175 36.6738C35.7485 36.7893 36.2084 36.6661 36.5239 36.3505L41.3891 31.4853C41.7047 31.1696 41.8279 30.7097 41.7125 30.2788L39.9317 23.6328C39.8162 23.2018 39.4795 22.8651 39.0485 22.7496L32.4025 20.9688C31.9714 20.8533 31.5114 20.9766 31.1959 21.2921ZM33.9554 15.1733C33.9554 15.1733 33.9554 15.1733 33.9554 15.1733L40.6014 16.9541C43.103 17.6244 45.0569 19.5783 45.7272 22.0799L47.508 28.7259C48.1783 31.2276 47.4629 33.8967 45.6317 35.7279L40.7666 40.5932C38.9353 42.4244 36.2661 43.1396 33.7646 42.4693L27.1186 40.6885C24.617 40.0182 22.6631 38.0643 21.9928 35.5627L20.212 28.9167C19.5417 26.4152 20.2568 23.746 22.0881 21.9148C22.0881 21.9148 22.0881 21.9148 22.0881 21.9148L26.9533 17.0495C28.7846 15.2181 31.4539 14.503 33.9554 15.1733Z" fill="url(#paint0_linear_1005_279)"/>
<path fill-rule="evenodd" clip-rule="evenodd" d="M11.4763 26.5758C11.7919 26.2603 12.2517 26.137 12.6828 26.2525ZM11.4763 26.5758L6.6111 31.441C6.6111 31.441 6.6111 31.441 6.6111 31.441C6.29561 31.7565 6.17234 32.2164 6.28784 32.6475C6.28784 32.6475 6.28783 32.6475 6.28784 32.6475L8.06864 39.2935C8.18412 39.7245 8.52078 40.0612 8.95182 40.1767L15.5978 41.9575C16.0289 42.073 16.4888 41.9497 16.8043 41.6343C16.8043 41.6343 16.8043 41.6343 16.8043 41.6343L21.6695 36.769C21.985 36.4534 22.1083 35.9938 21.9928 35.5627L20.212 28.9167C20.0965 28.4857 19.7598 28.1488 19.3288 28.0333L12.6828 26.2525M14.2357 20.457C14.2357 20.457 14.2357 20.457 14.2357 20.457L20.8817 22.2378C23.3833 22.9081 25.3372 24.8622 26.0075 27.3638L27.7883 34.0098C28.4586 36.5113 27.7434 39.1803 25.9122 41.0116C25.9122 41.0116 25.9122 41.0115 25.9122 41.0116L21.047 45.8769C19.2157 47.7082 16.5464 48.4233 14.0449 47.753L7.39889 45.9722C4.89732 45.3019 2.94337 43.348 2.27308 40.8464L0.492283 34.2004C-0.177994 31.6989 0.537156 29.0296 2.36846 27.1983L7.2337 22.3331C9.06499 20.5019 11.7341 19.7867 14.2357 20.457Z" fill="url(#paint1_linear_1005_279)"/>
<path fill-rule="evenodd" clip-rule="evenodd" d="M17.8277 6.49565C17.4827 6.40321 17.1145 6.50184 16.8619 6.75448L11.7934 11.823C11.7933 11.823 11.7934 11.823 11.7934 11.823C11.5407 12.0757 11.442 12.4439 11.5345 12.789M11.5345 12.789L13.3897 19.7127C13.3897 19.7127 13.3897 19.7127 13.3897 19.7127C13.4822 20.0577 13.7518 20.3274 14.0969 20.4199L21.0205 22.275C21.3656 22.3674 21.7339 22.2688 21.9865 22.0163C21.9865 22.0163 21.9865 22.0163 21.9865 22.0163L27.055 16.9477C27.3077 16.695 27.4063 16.3267 27.3139 15.9818L25.4587 9.05805C25.4587 9.05803 25.4587 9.05808 25.4587 9.05805C25.3662 8.71296 25.0966 8.44336 24.7516 8.35089C24.7516 8.35088 24.7516 8.35089 24.7516 8.35089L17.8277 6.49565M19.3807 0.70011C16.9651 0.0528217 14.3876 0.743485 12.6192 2.51185C12.6192 2.51185 12.6192 2.51185 12.6192 2.51185L7.55067 7.58041C5.78236 9.3488 5.0917 11.9262 5.73894 14.3419L7.59415 21.2657C8.24148 23.6812 10.1283 25.5681 12.5439 26.2154L19.4676 28.0705C19.4675 28.0705 19.4676 28.0705 19.4676 28.0705C21.8831 28.7178 24.4608 28.0273 26.2292 26.2589L31.2977 21.1903C31.2976 21.1903 31.2977 21.1903 31.2977 21.1903C33.0659 19.422 33.7567 16.8445 33.1094 14.4288C33.1094 14.4288 33.1094 14.4288 33.1094 14.4288L31.2542 7.50508C30.6069 5.08949 28.7201 3.20264 26.3045 2.55535L19.3807 0.70011C19.3807 0.700115 19.3807 0.700104 19.3807 0.70011Z" fill="url(#paint2_linear_1005_279)"/>
</g>
<defs>
<linearGradient id="paint0_linear_1005_279" x1="16.4968" y1="3.46148" x2="22.3509" y2="25.3092" gradientUnits="userSpaceOnUse">
<stop stop-color="#7EF893"/>
<stop offset="1" stop-color="#1BB335"/>
</linearGradient>
<linearGradient id="paint1_linear_1005_279" x1="16.4968" y1="3.46148" x2="22.3509" y2="25.3092" gradientUnits="userSpaceOnUse">
<stop stop-color="#7EF893"/>
<stop offset="1" stop-color="#1BB335"/>
</linearGradient>
<linearGradient id="paint2_linear_1005_279" x1="16.4968" y1="3.46148" x2="22.3509" y2="25.3092" gradientUnits="userSpaceOnUse">
<stop stop-color="#7EF893"/>
<stop offset="1" stop-color="#1BB335"/>
</linearGradient>
<clipPath id="clip0_1005_279">
<rect width="48" height="48" fill="white"/>
</clipPath>
</defs>
</svg>
