<svg width="128" height="128" viewBox="0 0 128 128" fill="none" xmlns="http://www.w3.org/2000/svg">
<path fill-rule="evenodd" clip-rule="evenodd" d="M101.477 21.2877C91.5372 11.4992 78.0565 6 64 6C49.9435 6 36.4628 11.4992 26.5233 21.2877C16.5839 31.0763 11 44.3525 11 58.1956V101.686L11.0294 102.811C11.2693 107.043 12.8479 111.094 15.5439 114.397C18.2399 117.7 21.918 120.089 26.0626 121.23C30.2071 122.37 34.6101 122.204 38.6541 120.756C42.6981 119.307 46.1803 116.648 48.6123 113.152C50.1507 115.835 52.3852 118.068 55.0874 119.621C57.7895 121.175 60.8623 121.993 63.9912 121.993C67.1201 121.993 70.1928 121.175 72.8949 119.621C75.5971 118.068 77.8317 115.835 79.37 113.152C81.8546 116.733 85.4388 119.437 89.5974 120.866C93.756 122.296 98.2701 122.375 102.478 121.094C106.686 119.812 110.366 117.237 112.98 113.746C115.593 110.254 117.002 106.03 117 101.692V58.1956C117 44.3525 111.416 31.0763 101.477 21.2877ZM35.3551 29.0013C43.0413 21.6871 53.3118 17.5988 64 17.599C74.9328 17.599 85.4178 21.8761 93.1485 29.4895C100.879 37.1028 105.222 47.4287 105.222 58.1956V101.692L105.187 102.527C105.013 104.308 104.287 105.992 103.106 107.351C101.925 108.711 100.348 109.678 98.5886 110.123C96.8292 110.567 94.9736 110.467 93.2743 109.835C91.575 109.203 90.1148 108.071 89.0926 106.592L88.5213 105.839C87.3117 104.369 85.7555 103.214 83.9884 102.473C82.2214 101.731 80.2971 101.427 78.3832 101.586C76.4693 101.745 74.624 102.362 73.0079 103.385C71.3919 104.407 70.0543 105.803 69.1116 107.451C68.5976 108.344 67.8519 109.087 66.9508 109.603C66.0497 110.119 65.0255 110.39 63.9831 110.388C62.9406 110.386 61.9174 110.112 61.0181 109.593C60.1188 109.074 59.3757 108.328 58.8649 107.433C57.8794 105.718 56.4662 104.278 54.7589 103.25C53.0515 102.222 51.1062 101.639 49.1066 101.556C47.1071 101.474 45.1191 101.895 43.3305 102.779C41.5419 103.663 40.0115 104.982 38.8839 106.61L38.3657 107.283C37.2268 108.615 35.7082 109.58 34.0063 110.052C32.3044 110.525 30.4976 110.484 28.8197 109.934C27.1419 109.385 25.6702 108.351 24.5951 106.969C23.52 105.586 22.891 103.918 22.7896 102.179L22.7778 101.379V58.1956L22.8013 56.8037C23.1678 46.2839 27.6689 36.3155 35.3551 29.0013Z" fill="url(#paint0_linear_724_101)"/>
<path d="M52.8452 44.3533C50.665 42.2061 47.7082 41 44.625 41C41.5419 41 38.585 42.2061 36.4049 44.3533C34.2248 46.5003 33 49.4122 33 52.4486C33 55.485 34.2248 58.397 36.4049 60.544C38.585 62.6909 41.5419 63.8971 44.625 63.8971C47.7082 63.8971 50.665 62.6909 52.8452 60.544C55.0252 58.397 56.25 55.485 56.25 52.4486C56.25 49.4122 55.0252 46.5003 52.8452 44.3533Z" fill="url(#paint1_linear_724_101)"/>
<path d="M91.5951 44.3533C89.415 42.2061 86.4581 41 83.375 41C80.2918 41 77.3349 42.2061 75.1549 44.3533C72.9748 46.5003 71.7501 49.4122 71.7501 52.4486C71.7501 55.485 72.9748 58.397 75.1549 60.544C77.3349 62.6909 80.2918 63.8971 83.375 63.8971C86.4581 63.8971 89.415 62.6909 91.5951 60.544C93.7753 58.397 95 55.485 95 52.4486C95 49.4122 93.7753 46.5003 91.5951 44.3533Z" fill="url(#paint2_linear_724_101)"/>
<defs>
<linearGradient id="paint0_linear_724_101" x1="64" y1="9" x2="53.8939" y2="121.089" gradientUnits="userSpaceOnUse">
<stop stop-color="#8D007C"/>
<stop offset="0.417201" stop-color="#F92D7A"/>
<stop offset="0.702506" stop-color="#FF4A52"/>
<stop offset="1" stop-color="#FFB243"/>
</linearGradient>
<linearGradient id="paint1_linear_724_101" x1="64.0002" y1="-0.845899" x2="50.7002" y2="146.667" gradientUnits="userSpaceOnUse">
<stop stop-color="#8D007C"/>
<stop offset="0.417201" stop-color="#F92D7A"/>
<stop offset="0.702506" stop-color="#FF4A52"/>
<stop offset="1" stop-color="#FFB243"/>
</linearGradient>
<linearGradient id="paint2_linear_724_101" x1="64.0002" y1="-0.845899" x2="50.7002" y2="146.667" gradientUnits="userSpaceOnUse">
<stop stop-color="#8D007C"/>
<stop offset="0.417201" stop-color="#F92D7A"/>
<stop offset="0.702506" stop-color="#FF4A52"/>
<stop offset="1" stop-color="#FFB243"/>
</linearGradient>
</defs>
</svg>
