<svg width="16" height="16" viewBox="0 0 16 16" fill="none" xmlns="http://www.w3.org/2000/svg">
<path fill-rule="evenodd" clip-rule="evenodd" d="M13.634 2.24775C12.455 2.72081 11.0176 3.57352 9.65341 4.58473C9.06397 5.02166 8.49873 5.48038 7.98263 5.94062C8.88038 6.33963 9.6067 7.05542 10.0193 7.9457C11.5428 6.23189 13.0107 4.02199 13.7046 2.2917L13.7083 2.28257L13.7083 2.28259C13.7098 2.27897 13.7108 2.27614 13.7115 2.27405L13.7112 2.27362C13.709 2.2698 13.705 2.26427 13.6988 2.2582C13.693 2.25254 13.6872 2.2468 13.6816 2.24099C13.6821 2.24154 13.6821 2.24109 13.68 2.24061C13.6788 2.24035 13.6751 2.23964 13.668 2.24014C13.6618 2.24059 13.6505 2.24215 13.634 2.24775ZM8.5788 9.39304C8.45924 8.32914 7.59655 7.48753 6.52319 7.40068C6.42757 7.51082 6.3367 7.61969 6.25097 7.72698L5.69143 8.43358C6.09132 8.61286 6.46702 8.87028 6.79836 9.20591C7.11203 9.5201 7.35786 9.86932 7.53321 10.2449L8.22354 9.69129L8.22361 9.69123C8.34064 9.59738 8.45917 9.49782 8.5788 9.39304ZM3.81326 7.90591C3.73484 7.99732 3.66254 8.09482 3.5971 8.19712C2.11941 8.46238 0.808583 9.62654 0.618351 11.3618L0.618334 11.3619L0.438689 12.9987C0.266697 14.4814 1.52051 15.7244 2.98525 15.5612L2.98643 15.5611L4.6245 15.3813L4.64349 15.379C5.49155 15.2676 6.22995 14.9025 6.78271 14.3497L6.78272 14.3497L6.7867 14.3457C7.3464 13.7789 7.69589 13.067 7.81096 12.3067C7.87854 12.2626 7.94126 12.2188 7.99917 12.1771C8.01182 12.168 8.02423 12.1585 8.03639 12.1488L9.34965 11.0955L9.34972 11.0955C11.6236 9.27209 14.2888 5.66799 15.3737 2.96567C15.6865 2.20367 15.44 1.44743 14.9631 0.976992C14.4742 0.481258 13.7224 0.29363 12.9989 0.563424L12.9794 0.570927C11.6076 1.11894 10.0273 2.06698 8.58151 3.13869C7.1358 4.21034 5.76778 5.44778 4.84342 6.60501L4.84106 6.60798L3.81326 7.90591ZM4.23126 9.93887C4.29156 9.93585 4.36047 9.93716 4.4456 9.94085L4.49522 9.94354C4.84827 9.99609 5.20828 10.1678 5.5169 10.4764C5.8298 10.7893 5.98783 11.1291 6.03425 11.4836C6.03528 11.4914 6.03641 11.4993 6.03764 11.5071C6.039 11.5157 6.04027 11.5246 6.04146 11.5338L6.04593 11.5957C6.0502 11.653 6.05298 11.6903 6.05298 11.7467C6.05298 12.2457 5.86459 12.7167 5.50792 13.0789C5.24907 13.3369 4.8844 13.5301 4.41784 13.5932L2.78812 13.772L2.78619 13.7722C2.46605 13.8081 2.18816 13.5337 2.22681 13.2051L2.22684 13.2052L2.22761 13.1982L2.40761 11.5582L2.40762 11.558C2.51323 10.5944 3.31458 9.95816 4.20486 9.9398C4.21367 9.93962 4.22246 9.93931 4.23126 9.93887ZM13.4845 7.74032C13.6504 7.75609 13.812 7.82692 13.9398 7.95301L14.4331 8.43968L14.4368 8.44327C15.0134 9.01988 15.4014 9.69273 15.4014 10.4569C15.4014 11.2211 15.0134 11.894 14.4368 12.4706L12.4634 14.4439C11.8899 15.0175 11.217 15.3986 10.4564 15.3986C9.69586 15.3986 9.023 15.0175 8.44944 14.4439C8.15655 14.151 8.15655 13.6762 8.44944 13.3833C8.74233 13.0904 9.21721 13.0904 9.5101 13.3833C9.91654 13.7897 10.2303 13.8986 10.4564 13.8986C10.6825 13.8986 10.9963 13.7897 11.4028 13.3833L13.3761 11.4099C13.7928 10.9932 13.9014 10.6794 13.9014 10.4569C13.9014 10.2416 13.7997 9.94068 13.4152 9.54367L11.9692 10.9848C11.6758 11.2772 11.2009 11.2764 10.9085 10.983C10.6161 10.6896 10.6169 10.2148 10.9103 9.92238L12.8836 7.95571C13.0287 7.81112 13.2182 7.73823 13.408 7.73695C13.4335 7.73678 13.4591 7.7379 13.4845 7.74032ZM4.57683 2.59699C4.98327 2.19056 5.29708 2.08166 5.52317 2.08166C5.74358 2.08166 6.04736 2.18516 6.43907 2.56694L4.50266 4.50335C4.20977 4.79625 4.20977 5.27112 4.50266 5.56401C4.79555 5.85691 5.27043 5.85691 5.56332 5.56401L8.02999 3.09735C8.31696 2.81037 8.32276 2.3487 8.04739 2.05466C8.03965 2.0462 8.03169 2.03786 8.0235 2.02967L7.53016 1.53633C6.9566 0.962772 6.28374 0.581664 5.52317 0.581664C4.76259 0.581664 4.08973 0.962772 3.51617 1.53633L1.54284 3.50967L1.54282 3.50966L1.53927 3.51326C0.969268 4.09102 0.588167 4.76285 0.588167 5.52333C0.588167 6.28382 0.969268 6.95565 1.53927 7.5334C1.83017 7.82827 2.30504 7.83147 2.5999 7.54057C2.89477 7.24966 2.89798 6.7748 2.60707 6.47993C2.19707 6.06435 2.08817 5.74951 2.08817 5.52333C2.08817 5.29746 2.19677 4.98318 2.60537 4.56845L4.57683 2.59699Z" fill="url(#paint0_linear_620_168)"/>
<defs>
<linearGradient id="paint0_linear_620_168" x1="9.06813" y1="10.486" x2="9.06813" y2="0.616466" gradientUnits="userSpaceOnUse">
<stop stop-color="#FF5E3F"/>
<stop offset="1" stop-color="#FFB93F"/>
</linearGradient>
</defs>
</svg>
