<svg width="64" height="64" viewBox="0 0 64 64" fill="none" xmlns="http://www.w3.org/2000/svg">
<path fill-rule="evenodd" clip-rule="evenodd" d="M46 27C46 22.6055 49.6055 19 54 19C58.3945 19 62 22.6055 62 27C62 29.9663 60.3573 32.573 57.9381 33.9541C57.6015 34.1463 57.3747 34.4942 57.3747 34.8817V45.8301C57.3747 50.9729 53.4368 55.9801 47.7546 55.9801H39.5008C36.9867 55.9801 35.0671 57.9088 35.0671 60.0791V60.0791C35.0671 59.9199 34.9381 59.7909 34.7789 59.7909H29.4945C29.655 54.3506 34.3466 50.4032 39.5008 50.4032H47.7546C49.8312 50.4032 51.7978 48.4462 51.7978 45.8301V35.4407C51.7978 34.9954 51.5006 34.6097 51.0864 34.4461C48.1182 33.2731 46 30.3683 46 27ZM29.4945 59.7909C29.4917 59.8865 29.4902 59.9826 29.4902 60.0791V59.7951C29.4902 59.7928 29.4921 59.7909 29.4945 59.7909V59.7909ZM54 31C56.2109 31 58 29.2109 58 27C58 24.7891 56.2109 23 54 23C51.7891 23 50 24.7891 50 27C50 29.2109 51.7891 31 54 31Z" fill="url(#paint0_linear_726_65)"/>
<path d="M29.4945 59.7909L28.9947 59.7762L28.9947 59.7762L29.4945 59.7909ZM51.0864 34.4461L50.9026 34.9111L51.0864 34.4461ZM54 18.5C49.3293 18.5 45.5 22.3293 45.5 27H46.5C46.5 22.8816 49.8816 19.5 54 19.5V18.5ZM62.5 27C62.5 22.3293 58.6707 18.5 54 18.5V19.5C58.1184 19.5 61.5 22.8816 61.5 27H62.5ZM58.186 34.3884C60.753 32.9229 62.5 30.1549 62.5 27H61.5C61.5 29.7777 59.9616 32.2232 57.6902 33.5199L58.186 34.3884ZM57.8747 45.8301V34.8817H56.8747V45.8301H57.8747ZM47.7546 56.4801C53.7639 56.4801 57.8747 51.1952 57.8747 45.8301H56.8747C56.8747 50.7506 53.1097 55.4801 47.7546 55.4801V56.4801ZM39.5008 56.4801H47.7546V55.4801H39.5008V56.4801ZM35.5671 60.0791C35.5671 58.2094 37.2377 56.4801 39.5008 56.4801V55.4801C36.7356 55.4801 34.5671 57.6082 34.5671 60.0791H35.5671ZM29.4945 60.2909H34.7789V59.2909H29.4945V60.2909ZM39.5008 49.9032C34.1082 49.9032 29.1641 54.0347 28.9947 59.7762L29.9943 59.8056C30.1459 54.6665 34.585 50.9032 39.5008 50.9032V49.9032ZM47.7546 49.9032H39.5008V50.9032H47.7546V49.9032ZM51.2978 45.8301C51.2978 48.2099 49.5168 49.9032 47.7546 49.9032V50.9032C50.1456 50.9032 52.2978 48.6825 52.2978 45.8301H51.2978ZM51.2978 35.4407V45.8301H52.2978V35.4407H51.2978ZM45.5 27C45.5 30.5822 47.7518 33.6659 50.9026 34.9111L51.2702 33.9811C48.4846 32.8803 46.5 30.1545 46.5 27H45.5ZM29.9902 60.0791C29.9902 59.9875 29.9916 59.8963 29.9943 59.8056L28.9947 59.7762C28.9917 59.8767 28.9902 59.9777 28.9902 60.0791H29.9902ZM28.9902 59.7951V60.0791H29.9902V59.7951H28.9902ZM57.5 27C57.5 28.9348 55.9348 30.5 54 30.5V31.5C56.4871 31.5 58.5 29.4871 58.5 27H57.5ZM54 23.5C55.9348 23.5 57.5 25.0652 57.5 27H58.5C58.5 24.5129 56.4871 22.5 54 22.5V23.5ZM50.5 27C50.5 25.0652 52.0652 23.5 54 23.5V22.5C51.5129 22.5 49.5 24.5129 49.5 27H50.5ZM54 30.5C52.0652 30.5 50.5 28.9348 50.5 27H49.5C49.5 29.4871 51.5129 31.5 54 31.5V30.5ZM29.9902 59.7951C29.9902 60.0689 29.7683 60.2909 29.4945 60.2909V59.2909C29.216 59.2909 28.9902 59.5167 28.9902 59.7951H29.9902ZM52.2978 35.4407C52.2978 34.7636 51.8492 34.2099 51.2702 33.9811L50.9026 34.9111C51.1519 35.0096 51.2978 35.2272 51.2978 35.4407H52.2978ZM35.5671 60.0791C35.5671 59.6438 35.2142 59.2909 34.7789 59.2909V60.2909C34.662 60.2909 34.5671 60.1961 34.5671 60.0791H35.5671ZM57.6902 33.5199C57.2174 33.7898 56.8747 34.2932 56.8747 34.8817H57.8747C57.8747 34.6952 57.9857 34.5027 58.186 34.3884L57.6902 33.5199Z" fill="url(#paint1_linear_726_65)"/>
<path fill-rule="evenodd" clip-rule="evenodd" d="M34.0676 15.2656C34.6199 15.2656 35.0676 15.7133 35.0676 16.2656V17.1618C35.0676 19.8538 34.0221 21.2076 32.187 22.8648C30.38 24.4968 27.9748 25.3079 25.4475 25.3079H16.4129C15.1436 25.3079 14.2836 25.735 13.739 26.2965C13.1858 26.8668 12.76 27.7822 12.76 29.1002V29.7998C12.76 30.2178 13.0229 30.5862 13.4006 30.7654C16.1108 32.0513 18 34.8189 18 38C18 41.4096 15.8296 44.3442 12.8042 45.4884C12.7777 45.4984 12.76 45.5237 12.76 45.552V45.552C12.76 48.2518 14.4108 49.8462 16.4129 49.8462H25.4475C28.5253 49.8462 30.9728 51.6192 32.5368 53.6734C33.903 55.4679 34.8108 57.7332 35.0209 60.0014C35.0719 60.5514 34.6199 61 34.0676 61H30.4907C29.9385 61 29.4959 60.5491 29.3977 60.0056C29.2128 58.9834 28.7596 57.9187 28.0995 57.0516C27.2174 55.893 26.2491 55.4231 25.4475 55.4231H16.4129C10.6562 55.4231 7.18315 50.611 7.18315 45.552V45.552C7.18315 45.5108 7.1576 45.4739 7.11923 45.459C4.13385 44.2945 2 41.3808 2 38C2 34.8384 3.8662 32.0852 6.5498 30.7892C6.92369 30.6086 7.18315 30.242 7.18315 29.8268V29.1002C7.18315 26.5388 8.03835 24.1637 9.7359 22.4136C11.4421 20.6545 13.8028 19.731 16.4129 19.731H25.4475C26.7997 19.731 27.8103 19.303 28.4492 18.7259C28.616 18.5753 28.7694 18.4788 28.9042 18.394C29.2632 18.1682 29.4907 18.025 29.4907 17.1618V16.2656C29.4907 15.7133 29.9385 15.2656 30.4907 15.2656H34.0676ZM10 42C12.2109 42 14 40.2109 14 38C14 35.7891 12.2109 34 10 34C7.78906 34 6 35.7891 6 38C6 40.2109 7.78906 42 10 42Z" fill="url(#paint2_linear_726_65)"/>
<path d="M32.187 22.8648L31.8519 22.4938L31.8519 22.4938L32.187 22.8648ZM13.739 26.2965L13.3801 25.9483L13.3801 25.9483L13.739 26.2965ZM32.5368 53.6734L32.9346 53.3705L32.9346 53.3705L32.5368 53.6734ZM28.0995 57.0516L27.7017 57.3545L27.7017 57.3545L28.0995 57.0516ZM9.7359 22.4136L10.0948 22.7617L10.0948 22.7617L9.7359 22.4136ZM28.4492 18.7259L28.1141 18.3549L28.1141 18.3549L28.4492 18.7259ZM28.9042 18.394L29.1704 18.8173L29.1704 18.8173L28.9042 18.394ZM6.5498 30.7892L6.33237 30.3389L6.5498 30.7892ZM29.3977 60.0056L28.9056 60.0946L29.3977 60.0056ZM35.0209 60.0014L34.5231 60.0476L35.0209 60.0014ZM7.11923 45.459L7.30092 44.9931L7.11923 45.459ZM12.8042 45.4884L12.6273 45.0207L12.8042 45.4884ZM13.4006 30.7654L13.6149 30.3137L13.4006 30.7654ZM35.5676 17.1618V16.2656H34.5676V17.1618H35.5676ZM32.5222 23.2359C33.4497 22.3983 34.2204 21.6008 34.7524 20.6444C35.2909 19.6765 35.5676 18.5787 35.5676 17.1618H34.5676C34.5676 18.4369 34.3216 19.362 33.8785 20.1583C33.429 20.9662 32.7594 21.6742 31.8519 22.4938L32.5222 23.2359ZM25.4475 25.8079C28.0799 25.8079 30.6102 24.9626 32.5222 23.2359L31.8519 22.4938C30.1498 24.031 27.8697 24.8079 25.4475 24.8079V25.8079ZM16.4129 25.8079H25.4475V24.8079H16.4129V25.8079ZM14.0979 26.6446C14.5389 26.19 15.2646 25.8079 16.4129 25.8079V24.8079C15.0227 24.8079 14.0284 25.28 13.3801 25.9483L14.0979 26.6446ZM13.26 29.1002C13.26 27.8944 13.6468 27.1097 14.0979 26.6446L13.3801 25.9483C12.7248 26.624 12.26 27.6699 12.26 29.1002H13.26ZM13.26 29.7998V29.1002H12.26V29.7998H13.26ZM18.5 38C18.5 34.6168 16.4912 31.6784 13.6149 30.3137L13.1862 31.2171C15.7303 32.4242 17.5 35.0211 17.5 38H18.5ZM12.981 45.956C16.1928 44.7414 18.5 41.626 18.5 38H17.5C17.5 41.1932 15.4663 43.947 12.6273 45.0207L12.981 45.956ZM16.4129 49.3462C15.5499 49.3462 14.773 49.0051 14.2072 48.3769C13.6401 47.7472 13.26 46.7994 13.26 45.552H12.26C12.26 47.0044 12.7054 48.2037 13.4642 49.0461C14.2243 49.8901 15.2738 50.3462 16.4129 50.3462V49.3462ZM25.4475 49.3462H16.4129V50.3462H25.4475V49.3462ZM32.9346 53.3705C31.3103 51.2371 28.7304 49.3462 25.4475 49.3462V50.3462C28.3203 50.3462 30.6354 52.0013 32.139 53.9763L32.9346 53.3705ZM35.5188 59.9553C35.2997 57.5908 34.3557 55.2371 32.9346 53.3705L32.1389 53.9763C33.4503 55.6987 34.3218 57.8756 34.5231 60.0476L35.5188 59.9553ZM30.4907 61.5H34.0676V60.5H30.4907V61.5ZM27.7017 57.3545C28.3123 58.1566 28.7344 59.1476 28.9056 60.0946L29.8897 59.9167C29.6913 58.8193 29.2068 57.6807 28.4973 56.7488L27.7017 57.3545ZM25.4475 55.9231C26.0477 55.9231 26.8828 56.279 27.7017 57.3545L28.4973 56.7488C27.552 55.5071 26.4506 54.9231 25.4475 54.9231V55.9231ZM16.4129 55.9231H25.4475V54.9231H16.4129V55.9231ZM6.68315 45.552C6.68315 50.8166 10.3145 55.9231 16.4129 55.9231V54.9231C10.9979 54.9231 7.68315 50.4053 7.68315 45.552H6.68315ZM1.5 38C1.5 41.5954 3.76839 44.6887 6.93754 45.9248L7.30092 44.9931C4.49932 43.9004 2.5 41.1661 2.5 38H1.5ZM6.33237 30.3389C3.48431 31.7143 1.5 34.6374 1.5 38H2.5C2.5 35.0393 4.24808 32.456 6.76724 31.2394L6.33237 30.3389ZM6.68315 29.1002V29.8268H7.68315V29.1002H6.68315ZM9.377 22.0655C7.57666 23.9216 6.68315 26.4276 6.68315 29.1002H7.68315C7.68315 26.6499 8.50004 24.4059 10.0948 22.7617L9.377 22.0655ZM16.4129 19.231C13.6828 19.231 11.1875 20.1988 9.377 22.0655L10.0948 22.7617C11.6967 21.1102 13.9227 20.231 16.4129 20.231V19.231ZM25.4475 19.231H16.4129V20.231H25.4475V19.231ZM28.1141 18.3549C27.5795 18.8377 26.6937 19.231 25.4475 19.231V20.231C26.9056 20.231 28.0411 19.7683 28.7843 19.097L28.1141 18.3549ZM28.6379 17.9708C28.5021 18.0563 28.316 18.1725 28.1141 18.3549L28.7843 19.097C28.916 18.9781 29.0366 18.9014 29.1704 18.8173L28.6379 17.9708ZM28.9907 17.1618C28.9907 17.5626 28.9352 17.7059 28.9018 17.7623C28.8709 17.8145 28.8317 17.8489 28.6379 17.9708L29.1704 18.8173C29.3356 18.7133 29.5897 18.5633 29.7624 18.2716C29.9325 17.9842 29.9907 17.6242 29.9907 17.1618H28.9907ZM28.9907 16.2656V17.1618H29.9907V16.2656H28.9907ZM34.0676 14.7656H30.4907V15.7656H34.0676V14.7656ZM13.5 38C13.5 39.9348 11.9348 41.5 10 41.5V42.5C12.4871 42.5 14.5 40.4871 14.5 38H13.5ZM10 34.5C11.9348 34.5 13.5 36.0652 13.5 38H14.5C14.5 35.5129 12.4871 33.5 10 33.5V34.5ZM6.5 38C6.5 36.0652 8.06521 34.5 10 34.5V33.5C7.51292 33.5 5.5 35.5129 5.5 38H6.5ZM10 41.5C8.06521 41.5 6.5 39.9348 6.5 38H5.5C5.5 40.4871 7.51292 42.5 10 42.5V41.5ZM29.9907 16.2656C29.9907 15.9895 30.2146 15.7656 30.4907 15.7656V14.7656C29.6623 14.7656 28.9907 15.4372 28.9907 16.2656H29.9907ZM6.76724 31.2394C7.29134 30.9863 7.68315 30.4577 7.68315 29.8268H6.68315C6.68315 30.0263 6.55604 30.2309 6.33237 30.3389L6.76724 31.2394ZM30.4907 60.5C30.2298 60.5 29.9544 60.2745 29.8897 59.9167L28.9056 60.0946C29.0375 60.8238 29.6471 61.5 30.4907 61.5V60.5ZM34.5231 60.0476C34.544 60.2738 34.3572 60.5 34.0676 60.5V61.5C34.8827 61.5 35.5998 60.8289 35.5188 59.9553L34.5231 60.0476ZM7.68315 45.552C7.68315 45.3018 7.52845 45.0819 7.30092 44.9931L6.93754 45.9248C6.78675 45.866 6.68315 45.7198 6.68315 45.552H7.68315ZM12.6273 45.0207C12.4085 45.1034 12.26 45.3135 12.26 45.552H13.26C13.26 45.7339 13.1469 45.8933 12.981 45.956L12.6273 45.0207ZM12.26 29.7998C12.26 30.435 12.657 30.966 13.1862 31.2171L13.6149 30.3137C13.3888 30.2064 13.26 30.0006 13.26 29.7998H12.26ZM35.5676 16.2656C35.5676 15.4372 34.8961 14.7656 34.0676 14.7656V15.7656C34.3438 15.7656 34.5676 15.9895 34.5676 16.2656H35.5676Z" fill="url(#paint3_linear_726_65)"/>
<path fill-rule="evenodd" clip-rule="evenodd" d="M24.5 11C24.5 14.1275 26.3261 16.8553 28.9631 18.1683C29.3304 18.3512 29.584 18.7146 29.584 19.1249V60C29.584 60.5523 30.0317 61 30.584 61H34.6257C35.1779 61 35.6257 60.5523 35.6257 60V19.0179C35.6257 18.618 35.8668 18.2615 36.2201 18.0741C38.7581 16.7278 40.5 14.0545 40.5 11C40.5 6.60547 36.8945 3 32.5 3C28.1055 3 24.5 6.60547 24.5 11ZM32.5 15C34.7109 15 36.5 13.2109 36.5 11C36.5 8.78906 34.7109 7 32.5 7C30.2891 7 28.5 8.78906 28.5 11C28.5 13.2109 30.2891 15 32.5 15Z" fill="url(#paint4_linear_726_65)"/>
<path d="M36.2201 18.0741L35.9858 17.6324L36.2201 18.0741ZM29.186 17.7207C26.7105 16.4881 25 13.9287 25 11H24C24 14.3263 25.9418 17.2225 28.7403 18.6159L29.186 17.7207ZM30.084 60V19.1249H29.084V60H30.084ZM34.6257 60.5H30.584V61.5H34.6257V60.5ZM35.1257 19.0179V60H36.1257V19.0179H35.1257ZM40 11C40 13.8603 38.3686 16.3684 35.9858 17.6324L36.4544 18.5158C39.1477 17.0871 41 14.2487 41 11H40ZM32.5 3.5C36.6184 3.5 40 6.88161 40 11H41C41 6.32933 37.1707 2.5 32.5 2.5V3.5ZM25 11C25 6.88161 28.3816 3.5 32.5 3.5V2.5C27.8293 2.5 24 6.32933 24 11H25ZM36 11C36 12.9348 34.4348 14.5 32.5 14.5V15.5C34.9871 15.5 37 13.4871 37 11H36ZM32.5 7.5C34.4348 7.5 36 9.0652 36 11H37C37 8.51292 34.9871 6.5 32.5 6.5V7.5ZM29 11C29 9.0652 30.5652 7.5 32.5 7.5V6.5C30.0129 6.5 28 8.51292 28 11H29ZM32.5 14.5C30.5652 14.5 29 12.9348 29 11H28C28 13.4871 30.0129 15.5 32.5 15.5V14.5ZM36.1257 19.0179C36.1257 18.8256 36.2437 18.6276 36.4544 18.5158L35.9858 17.6324C35.49 17.8954 35.1257 18.4104 35.1257 19.0179H36.1257ZM34.6257 61.5C35.4541 61.5 36.1257 60.8284 36.1257 60H35.1257C35.1257 60.2761 34.9018 60.5 34.6257 60.5V61.5ZM29.084 60C29.084 60.8284 29.7556 61.5 30.584 61.5V60.5C30.3078 60.5 30.084 60.2761 30.084 60H29.084ZM28.7403 18.6159C28.9598 18.7252 29.084 18.9277 29.084 19.1249H30.084C30.084 18.5015 29.7011 17.9772 29.186 17.7207L28.7403 18.6159Z" fill="url(#paint5_linear_726_65)"/>
<defs>
<linearGradient id="paint0_linear_726_65" x1="52.5418" y1="22.051" x2="48.2357" y2="58.4406" gradientUnits="userSpaceOnUse">
<stop stop-color="#FF65A6"/>
<stop offset="1" stop-color="#F40631"/>
</linearGradient>
<linearGradient id="paint1_linear_726_65" x1="52.5418" y1="22.051" x2="48.2357" y2="58.4406" gradientUnits="userSpaceOnUse">
<stop stop-color="#FF65A6"/>
<stop offset="1" stop-color="#F40631"/>
</linearGradient>
<linearGradient id="paint2_linear_726_65" x1="26.5628" y1="56.9389" x2="23.1718" y2="18.7994" gradientUnits="userSpaceOnUse">
<stop stop-color="#5570FF"/>
<stop offset="1" stop-color="#95E5FF"/>
</linearGradient>
<linearGradient id="paint3_linear_726_65" x1="26.5628" y1="56.9389" x2="23.1718" y2="18.7994" gradientUnits="userSpaceOnUse">
<stop stop-color="#5570FF"/>
<stop offset="1" stop-color="#95E5FF"/>
</linearGradient>
<linearGradient id="paint4_linear_726_65" x1="32.2787" y1="75.5" x2="32.2787" y2="3" gradientUnits="userSpaceOnUse">
<stop offset="0.174286" stop-color="#FD3D00"/>
<stop offset="0.913169" stop-color="#FFDE00"/>
</linearGradient>
<linearGradient id="paint5_linear_726_65" x1="32.2787" y1="75.5" x2="32.2787" y2="3" gradientUnits="userSpaceOnUse">
<stop offset="0.174286" stop-color="#FD3D00"/>
<stop offset="0.913169" stop-color="#FFDE00"/>
</linearGradient>
</defs>
</svg>
