<svg width="128" height="128" viewBox="0 0 128 128" fill="none" xmlns="http://www.w3.org/2000/svg">
<path d="M79.4218 26.4614C83.1163 24.4945 86.0421 21.3989 89.8309 19.5859C89.8309 23.9386 89.8394 28.3 89.8309 32.6526C86.2918 34.97 82.8912 37.4841 79.4047 39.8785C79.4047 35.4062 79.3875 30.9339 79.4218 26.4614Z" fill="#FF007F"/>
<path d="M36.3333 75.4183C39.6649 72.8696 42.7636 69.9973 46.4405 67.9189C46.4578 72.2801 46.4491 76.6412 46.4491 81.0022C43.1088 83.4652 39.8721 86.091 36.342 88.2967C36.3074 84.0043 36.3247 79.7107 36.3333 75.4183Z" fill="#FF007F"/>
<path d="M36.7382 30.7884C38.2142 26.3502 45.1189 26.9402 46.3275 31.2844C46.4223 32.9691 46.4483 34.6622 46.4483 36.3555C42.8059 38.2452 39.8023 41.0672 36.3411 43.2307C36.5137 39.0918 35.8577 34.859 36.7382 30.7884Z" fill="#FF007F"/>
<path d="M15.1513 46.053C14.9182 43.4449 16.7654 40.8025 19.4238 40.3493C21.8232 39.7592 24.1192 41.4523 25.0599 43.5474C25.7764 47.1732 25.4915 50.8846 25.5174 54.5617C22.4706 57.033 19.0354 59.0684 16.3337 61.9329C15.2031 66.8843 15.9453 72.0327 15.6779 77.069C15.5138 79.5233 15.4966 81.9949 15.4966 84.4578C14.927 83.1491 15.16 81.6958 15.1513 80.3186C15.1771 68.9024 15.16 57.4777 15.1513 46.053Z" fill="#FF007F"/>
<path d="M79.4047 39.8777C82.8912 37.4833 86.2918 34.9692 89.8309 32.6519C89.8309 36.6368 89.8309 40.6217 89.8224 44.598C86.2405 46.9327 83.0037 49.7375 79.4218 52.072C79.3875 48.0101 79.4047 43.9397 79.4047 39.8777Z" fill="#FF007F"/>
<path d="M57.47 38.3397C57.8929 35.6116 60.8018 33.5253 63.5464 34.2179C65.2726 34.6112 66.4983 36.0222 67.3269 37.493C67.1628 39.3916 67.0766 41.3412 66.4897 43.1713C63.6758 45.9418 60.1802 47.9172 57.2369 50.5596C57.3577 46.4892 56.9693 42.3844 57.47 38.3397Z" fill="#FF007F"/>
<path d="M36.3413 43.2308C39.8024 41.0673 42.806 38.2452 46.4484 36.3555C46.4571 42.9657 46.4484 49.5673 46.4398 56.1775C43.0563 58.589 39.8542 61.2657 36.3413 63.4977C36.324 56.7419 36.3067 49.9863 36.3413 43.2308Z" fill="#FF007F"/>
<path d="M16.3346 61.9332C19.0362 59.0687 22.4715 57.0333 25.5183 54.562C25.5183 59.6587 25.5269 64.7552 25.5183 69.8519C22.0486 71.9901 18.829 74.5034 15.6787 77.0693C15.9462 72.033 15.2039 66.8846 16.3346 61.9332Z" fill="#FF007F"/>
<path d="M67.3273 37.4927C67.3445 37.6808 67.3877 38.0742 67.405 38.2708C67.8797 46.523 67.5085 54.7923 67.6122 63.0529C67.2323 68.9278 61.4236 71.4074 57.246 74.4182C57.2373 66.4648 57.246 58.5121 57.2373 50.5592C60.1806 47.9168 63.6762 45.9415 66.49 43.1709C67.077 41.3408 67.1632 39.3912 67.3273 37.4927Z" fill="#FF007F"/>
<path d="M79.422 52.0726C83.0039 49.7381 86.2407 46.9333 89.8226 44.5986C89.8396 53.0902 89.8396 61.5732 89.8226 70.0558C85.9384 71.7234 82.9353 74.734 79.422 76.9741C79.3964 68.6709 79.3877 60.3674 79.422 52.0726Z" fill="#FF007F"/>
<path d="M102.989 48.8753C104.577 45.01 110.817 45.01 112.639 48.7385C112.803 50.6967 112.829 52.6636 112.829 54.6303C109.255 56.8367 106.036 59.5304 102.601 61.9332C102.782 57.5807 102.333 53.1852 102.989 48.8753Z" fill="#FF007F"/>
<path d="M102.599 61.9327C106.034 59.5299 109.254 56.8362 112.827 54.6299C112.819 58.3327 112.819 62.0354 112.81 65.7382C109.116 67.7136 105.862 70.3472 102.642 72.9988C102.676 69.3044 102.591 65.6186 102.599 61.9327Z" fill="#FF007F"/>
<path d="M36.3415 63.4979C39.8545 61.2659 43.0566 58.5892 46.44 56.1777C46.4573 60.0943 46.4487 64.0023 46.44 67.9189C42.7631 69.9972 39.6644 72.8696 36.3329 75.4183C36.3242 71.442 36.3156 67.4657 36.3415 63.4979Z" fill="#FF007F"/>
<path d="M57.2456 74.4184C61.4232 71.4077 67.2319 68.9281 67.6118 63.0532C67.6118 71.0916 67.6203 79.1299 67.6203 87.1682C67.5945 89.3911 67.5685 92.034 65.592 93.5216C63.814 95.1722 61.1987 94.6674 59.2048 93.7446C57.9274 92.4275 57.306 90.6396 57.2888 88.8359C57.1505 84.03 57.2887 79.2242 57.2456 74.4184Z" fill="#FF007F"/>
<path d="M102.642 72.9989C105.862 70.3473 109.115 67.7137 112.81 65.7383C112.619 69.7665 113.345 73.9217 112.344 77.8636C111.117 80.8486 107.363 81.1132 104.731 79.959C102.538 78.2999 102.608 75.4608 102.642 72.9989Z" fill="#FF007F"/>
<path d="M15.6773 77.0685C18.8277 74.5026 22.0472 71.9892 25.5169 69.8511C25.3615 74.7341 25.888 79.66 25.2148 84.5172C24.4897 88.2706 19.5958 89.4421 16.7476 87.1763C16.0569 86.3639 15.6341 85.4571 15.4961 84.4573C15.4961 81.9943 15.5132 79.5227 15.6773 77.0685Z" fill="#FF007F"/>
<path d="M79.4215 76.9734C82.9347 74.7334 85.9379 71.7228 89.8221 70.0552C89.8477 76.9563 89.8221 83.866 89.8221 90.7671C86.3527 93.2216 83.0205 95.872 79.413 98.1474C79.4044 91.0919 79.3787 84.0289 79.4215 76.9734Z" fill="#FF007F"/>
<path d="M36.3412 88.2969C39.8713 86.0912 43.1079 83.4654 46.4483 81.0024C46.2671 86.4503 46.8625 91.9656 46.1116 97.3792C45.2484 101.047 40.4323 101.936 37.7048 99.6707C35.3744 96.3525 36.6173 92.0685 36.3412 88.2969Z" fill="#FF007F"/>
<path d="M79.4137 98.1479C83.0212 95.8725 86.3533 93.222 89.8227 90.7676C89.8397 94.4792 89.8312 98.1822 89.8227 101.893C86.2409 104.202 83.0212 107.016 79.405 109.299C79.405 105.578 79.3878 101.858 79.4137 98.1479Z" fill="#FF007F"/>
<path d="M79.4041 109.299C83.0203 107.016 86.2399 104.202 89.8218 101.893C89.6492 106.801 90.2708 111.77 89.468 116.627C88.4841 120.064 84.2292 120.843 81.4233 119.107C78.9979 116.421 79.4212 112.617 79.4041 109.299Z" fill="#FF007F"/>
<path d="M89.8309 19.5856C89.8224 17.1058 89.8908 14.6174 89.6926 12.146C89.2703 9.89697 87.3112 7.89593 84.8943 8.00707C82.4249 7.87027 80.0264 9.73451 79.767 12.2059C79.1624 16.9347 79.4733 21.7151 79.4218 26.4611M79.4218 26.4611C83.1163 24.4942 86.0421 21.3986 89.8309 19.5856L79.4218 26.4611ZM89.8309 19.5856C89.8309 23.9383 89.8394 28.2997 89.8309 32.6524V19.5856ZM79.4047 39.8782C79.4047 35.4059 79.3875 30.9336 79.4218 26.4611L79.4047 39.8782ZM89.8309 32.6524C86.2918 34.9697 82.8912 37.4838 79.4047 39.8782L89.8309 32.6524ZM89.8309 32.6524C89.8309 36.6373 89.8309 40.6222 89.8224 44.5985L89.8309 32.6524ZM79.4218 52.0725C79.3875 48.0106 79.4047 43.9402 79.4047 39.8782L79.4218 52.0725ZM36.3323 75.4184C39.6639 72.8697 42.7626 69.9973 46.4395 67.919L36.3323 75.4184ZM36.341 88.2968C36.3064 84.0044 36.3237 79.7108 36.3323 75.4184L36.341 88.2968ZM36.3323 75.4184C36.3237 71.4421 36.315 67.4658 36.341 63.498L36.3323 75.4184ZM46.4395 67.919C46.4568 72.2802 46.4481 76.6413 46.4481 81.0023L46.4395 67.919ZM46.4395 56.1778C46.4568 60.0944 46.4481 64.0024 46.4395 67.919V56.1778ZM46.4481 81.0023C43.1078 83.4652 39.8711 86.0911 36.341 88.2968L46.4481 81.0023ZM46.4481 81.0023C46.2669 86.4502 46.8624 91.9655 46.1115 97.379C45.2483 101.047 40.4321 101.936 37.7046 99.6705C35.3743 96.3523 36.6171 92.0684 36.341 88.2968M46.4481 36.3558C46.4481 34.6625 46.4222 32.9694 46.3273 31.2847C45.1188 26.9406 38.214 26.3505 36.7381 30.7887C35.8575 34.8593 36.5136 39.0922 36.341 43.2311M46.4481 36.3558C42.8057 38.2455 39.8022 41.0676 36.341 43.2311L46.4481 36.3558ZM46.4481 36.3558C46.4568 42.966 46.4481 49.5676 46.4395 56.1778L46.4481 36.3558ZM36.341 63.498C36.3237 56.7422 36.3064 49.9866 36.341 43.2311V63.498ZM25.5174 54.5617C25.4915 50.8845 25.7764 47.1732 25.0599 43.5473C24.1192 41.4523 21.8232 39.7592 19.4238 40.3492C16.7654 40.8024 14.9182 43.4449 15.1513 46.0529C15.16 57.4777 15.1771 68.9023 15.1513 80.3186C15.16 81.6957 14.927 83.1491 15.4966 84.4578M25.5174 54.5617C22.4706 57.033 19.0354 59.0683 16.3337 61.9329C15.2031 66.8843 15.9453 72.0327 15.6779 77.069M25.5174 54.5617C25.5174 59.6584 25.5261 64.7549 25.5174 69.8516V54.5617ZM15.6779 77.069C15.5138 79.5233 15.4966 81.9948 15.4966 84.4578L15.6779 77.069ZM25.5174 69.8516C22.0477 71.9897 18.8282 74.5031 15.6779 77.069L25.5174 69.8516ZM15.4966 84.4578C15.6346 85.4576 16.0575 86.3644 16.7481 87.1769C19.5964 89.4426 24.4903 88.2712 25.2154 84.5177C25.8885 79.6605 25.362 74.7346 25.5174 69.8516M89.8224 44.5985C86.2405 46.9332 83.0037 49.738 79.4218 52.0725L89.8224 44.5985ZM89.8224 44.5985C89.8394 53.0901 89.8394 61.5731 89.8224 70.0557V44.5985ZM79.4218 76.974C79.3961 68.6708 79.3875 60.3673 79.4218 52.0725V76.974ZM67.3271 37.493C66.4985 36.0222 65.2728 34.6112 63.5466 34.2179C60.802 33.5252 57.8931 35.6116 57.4703 38.3397C56.9695 42.3844 57.3579 46.4892 57.2371 50.5596M67.3271 37.493C67.163 39.3916 67.0768 41.3412 66.4899 43.1712C63.676 45.9418 60.1804 47.9172 57.2371 50.5596M67.3271 37.493C67.3443 37.6811 67.3875 38.0746 67.4048 38.2712C67.8795 46.5233 67.5083 54.7926 67.612 63.0533M57.2458 74.4185C57.2371 66.4652 57.2458 58.5125 57.2371 50.5596L57.2458 74.4185ZM46.4395 56.1778C43.056 58.5893 39.8539 61.266 36.341 63.498L46.4395 56.1778ZM67.612 63.0533C67.2321 68.9281 61.4234 71.4078 57.2458 74.4185L67.612 63.0533ZM67.612 63.0533C67.612 71.0916 67.6205 79.13 67.6205 87.1682C67.5947 89.3911 67.5687 92.0341 65.5922 93.5217C63.8142 95.1723 61.1989 94.6674 59.205 93.7447C57.9276 92.4275 57.3062 90.6397 57.289 88.836C57.1507 84.0301 57.2889 79.2243 57.2458 74.4185M89.8224 70.0557C85.9382 71.7233 82.935 74.7339 79.4218 76.974L89.8224 70.0557ZM89.8224 70.0557C89.848 76.9568 89.8224 83.8666 89.8224 90.7677V70.0557ZM79.4133 98.1479C79.4047 91.0924 79.379 84.0295 79.4218 76.974L79.4133 98.1479ZM112.828 54.63C112.828 52.6633 112.802 50.6964 112.638 48.7382C110.816 45.0097 104.576 45.0097 102.988 48.875C102.332 53.1848 102.781 57.5803 102.6 61.9329M112.828 54.63C109.255 56.8363 106.035 59.5301 102.6 61.9329L112.828 54.63ZM112.828 54.63C112.819 58.3328 112.819 62.0355 112.811 65.7383L112.828 54.63ZM102.643 72.999C102.677 69.3045 102.591 65.6187 102.6 61.9329L102.643 72.999ZM112.811 65.7383C109.116 67.7137 105.862 70.3473 102.643 72.999L112.811 65.7383ZM112.811 65.7383C112.62 69.7665 113.346 73.9217 112.344 77.8637C111.118 80.8486 107.364 81.1133 104.732 79.959C102.539 78.2999 102.609 75.4609 102.643 72.999M89.8224 90.7677C86.353 93.2221 83.0208 95.8726 79.4133 98.1479L89.8224 90.7677ZM89.8224 90.7677C89.8394 94.4793 89.8309 98.1823 89.8224 101.893V90.7677ZM79.4047 109.299C79.4047 105.579 79.3875 101.858 79.4133 98.1479L79.4047 109.299ZM89.8224 101.893C86.2405 104.202 83.0208 107.016 79.4047 109.299L89.8224 101.893ZM89.8224 101.893C89.6498 106.801 90.2713 111.77 89.4685 116.627C88.4847 120.064 84.2298 120.843 81.4239 119.107C78.9985 116.422 79.4218 112.617 79.4047 109.299" fill="#FF007F"/>
<path d="M79.4218 26.4611C83.1163 24.4942 86.0421 21.3986 89.8309 19.5856M79.4218 26.4611C79.3875 30.9336 79.4047 35.4059 79.4047 39.8782M79.4218 26.4611C79.4733 21.7151 79.1624 16.9347 79.767 12.2059C80.0264 9.73451 82.4249 7.87027 84.8943 8.00707C87.3112 7.89593 89.2703 9.89697 89.6926 12.146C89.8908 14.6174 89.8224 17.1058 89.8309 19.5856M89.8309 19.5856C89.8309 23.9383 89.8394 28.2997 89.8309 32.6524M79.4047 39.8782C82.8912 37.4838 86.2918 34.9697 89.8309 32.6524M79.4047 39.8782C79.4047 43.9402 79.3875 48.0106 79.4218 52.0725M89.8309 32.6524C89.8309 36.6373 89.8309 40.6222 89.8224 44.5985M89.8224 44.5985C86.2405 46.9332 83.0037 49.738 79.4218 52.0725M89.8224 44.5985C89.8394 53.0901 89.8394 61.5731 89.8224 70.0557M79.4218 52.0725C79.3875 60.3673 79.3961 68.6708 79.4218 76.974M36.3323 75.4184C39.6639 72.8697 42.7626 69.9973 46.4395 67.919M36.3323 75.4184C36.3237 79.7108 36.3064 84.0044 36.341 88.2968M36.3323 75.4184C36.3237 71.4421 36.315 67.4658 36.341 63.498M46.4395 67.919C46.4568 72.2802 46.4481 76.6413 46.4481 81.0023M46.4395 67.919C46.4481 64.0024 46.4568 60.0944 46.4395 56.1778M36.341 88.2968C39.8711 86.0911 43.1078 83.4652 46.4481 81.0023M36.341 88.2968C36.6171 92.0684 35.3743 96.3523 37.7046 99.6705C40.4321 101.936 45.2483 101.047 46.1115 97.379C46.8624 91.9655 46.2669 86.4502 46.4481 81.0023M36.341 63.498C36.3237 56.7422 36.3064 49.9866 36.341 43.2311M36.341 63.498C39.8539 61.266 43.056 58.5893 46.4395 56.1778M46.4395 56.1778C46.4481 49.5676 46.4568 42.966 46.4481 36.3558M46.4481 36.3558C46.4481 34.6625 46.4222 32.9694 46.3273 31.2847C45.1188 26.9406 38.214 26.3505 36.7381 30.7887C35.8575 34.8593 36.5136 39.0922 36.341 43.2311M46.4481 36.3558C42.8057 38.2455 39.8022 41.0676 36.341 43.2311M25.5174 54.5617C25.4915 50.8845 25.7764 47.1732 25.0599 43.5473C24.1192 41.4523 21.8232 39.7592 19.4238 40.3492C16.7654 40.8024 14.9182 43.4449 15.1513 46.0529C15.16 57.4777 15.1771 68.9023 15.1513 80.3186C15.16 81.6957 14.927 83.1491 15.4966 84.4578M25.5174 54.5617C22.4706 57.033 19.0354 59.0683 16.3337 61.9329C15.2031 66.8843 15.9453 72.0327 15.6779 77.069M25.5174 54.5617C25.5174 59.6584 25.5261 64.7549 25.5174 69.8516M15.4966 84.4578C15.4966 81.9948 15.5138 79.5233 15.6779 77.069M15.4966 84.4578C15.6346 85.4576 16.0575 86.3644 16.7481 87.1769C19.5964 89.4426 24.4903 88.2712 25.2154 84.5177C25.8885 79.6605 25.362 74.7346 25.5174 69.8516M15.6779 77.069C18.8282 74.5031 22.0477 71.9897 25.5174 69.8516M89.8224 70.0557C85.9382 71.7233 82.935 74.7339 79.4218 76.974M89.8224 70.0557C89.848 76.9568 89.8224 83.8666 89.8224 90.7677M79.4218 76.974C79.379 84.0295 79.4047 91.0924 79.4133 98.1479M67.3271 37.493C66.4985 36.0222 65.2728 34.6112 63.5466 34.2179C60.802 33.5252 57.8931 35.6116 57.4703 38.3397C56.9695 42.3844 57.3579 46.4892 57.2371 50.5596M67.3271 37.493C67.163 39.3916 67.0768 41.3412 66.4899 43.1712C63.676 45.9418 60.1804 47.9172 57.2371 50.5596M67.3271 37.493C67.3443 37.6811 67.3875 38.0746 67.4048 38.2712C67.8795 46.5233 67.5083 54.7926 67.612 63.0533M57.2371 50.5596C57.2458 58.5125 57.2371 66.4652 57.2458 74.4185M67.612 63.0533C67.2321 68.9281 61.4234 71.4078 57.2458 74.4185M67.612 63.0533C67.612 71.0916 67.6205 79.13 67.6205 87.1682C67.5947 89.3911 67.5687 92.0341 65.5922 93.5217C63.8142 95.1723 61.1989 94.6674 59.205 93.7447C57.9276 92.4275 57.3062 90.6397 57.289 88.836C57.1507 84.0301 57.2889 79.2243 57.2458 74.4185M89.8224 90.7677C86.353 93.2221 83.0208 95.8726 79.4133 98.1479M89.8224 90.7677C89.8394 94.4793 89.8309 98.1823 89.8224 101.893M79.4133 98.1479C79.3875 101.858 79.4047 105.579 79.4047 109.299M112.828 54.63C112.828 52.6633 112.802 50.6964 112.638 48.7382C110.816 45.0097 104.576 45.0097 102.988 48.875C102.332 53.1848 102.781 57.5803 102.6 61.9329M112.828 54.63C109.255 56.8363 106.035 59.5301 102.6 61.9329M112.828 54.63C112.819 58.3328 112.819 62.0355 112.811 65.7383M102.6 61.9329C102.591 65.6187 102.677 69.3045 102.643 72.999M112.811 65.7383C109.116 67.7137 105.862 70.3473 102.643 72.999M112.811 65.7383C112.62 69.7665 113.346 73.9217 112.344 77.8637C111.118 80.8486 107.364 81.1133 104.732 79.959C102.539 78.2999 102.609 75.4609 102.643 72.999M89.8224 101.893C86.2405 104.202 83.0208 107.016 79.4047 109.299M89.8224 101.893C89.6498 106.801 90.2713 111.77 89.4685 116.627C88.4847 120.064 84.2298 120.843 81.4239 119.107C78.9985 116.422 79.4218 112.617 79.4047 109.299" stroke="#FF007F" stroke-width="4"/>
</svg>
