<svg width="16" height="16" viewBox="0 0 16 16" fill="none" xmlns="http://www.w3.org/2000/svg">
<path d="M13.2732 14.096L12.7262 13.3813L12.7262 13.3813L13.2732 14.096ZM13.6971 13.6967L14.3335 14.3331L14.3335 14.3331L13.6971 13.6967ZM14.0962 13.2729L13.3815 12.7259L13.3815 12.7259L14.0962 13.2729ZM14.2744 11.1194L13.4796 11.5415L13.4796 11.5415L14.2744 11.1194ZM13.9504 10.6357L13.218 11.1588L13.218 11.1588L13.9504 10.6357ZM13.72 10.3132L14.4524 9.79009L14.4524 9.79009L13.72 10.3132ZM13.3422 8.56668L14.2373 8.65994L14.2373 8.65994L13.3422 8.56668ZM13.3421 7.44104L12.447 7.53433L12.447 7.53433L13.3421 7.44104ZM13.72 5.69442L14.4523 6.21754L14.4523 6.21754L13.72 5.69442ZM13.9501 5.37224L14.6825 5.89535C14.6924 5.88145 14.7019 5.86727 14.7111 5.85283L13.9501 5.37224ZM13.9501 5.37222L13.2178 4.8491C13.2078 4.86301 13.1983 4.87719 13.1892 4.89163L13.9501 5.37222ZM14.2742 4.88855L13.4793 4.46647L13.4793 4.46647L14.2742 4.88855ZM14.096 2.73501L13.3813 3.28202L13.3813 3.28202L14.096 2.73501ZM13.6968 2.31118L14.3332 1.67478C14.3235 1.66508 14.3135 1.65561 14.3034 1.64636L13.6968 2.31118ZM13.6968 2.31117L13.0604 2.94756C13.0701 2.95726 13.08 2.96674 13.0901 2.97598L13.6968 2.31117ZM13.2729 1.912L12.7259 2.62669L12.7259 2.62669L13.2729 1.912ZM11.1194 1.73377L11.5415 2.52866L11.5415 2.52866L11.1194 1.73377ZM10.6357 2.05784L11.1588 2.7902L11.1588 2.7902L10.6357 2.05784ZM10.3135 2.28796L10.8367 3.02032L10.8367 3.02032L10.3135 2.28796ZM8.56692 2.66579L8.47363 3.56094L8.56692 2.66579ZM7.44124 2.66578L7.53451 3.56093L7.53451 3.56093L7.44124 2.66578ZM5.6947 2.28793L6.21781 1.55557L6.21781 1.55557L5.6947 2.28793ZM5.37232 2.05766L4.8492 2.79002L4.8492 2.79002L5.37232 2.05766ZM4.88863 1.73359L5.31071 0.938702L5.31071 0.938702L4.88863 1.73359ZM2.73509 1.91182L2.18807 1.19714L2.18807 1.19714L2.73509 1.91182ZM1.91208 2.73483L1.1974 2.18781L1.1974 2.18781L1.91208 2.73483ZM1.73385 4.88837L2.52874 4.46629L2.52874 4.46629L1.73385 4.88837ZM2.05791 5.37204L1.32549 5.89519L1.33214 5.90427L2.05791 5.37204ZM2.05791 5.37205L2.78432 4.8407L2.78368 4.83982L2.05791 5.37205ZM2.05792 5.37206L1.33151 5.90341C1.34271 5.91871 1.35438 5.93366 1.36652 5.94822L2.05792 5.37206ZM2.05792 5.37206L2.79028 4.84894C2.77729 4.83076 2.76363 4.81306 2.74932 4.79589L2.05792 5.37206ZM2.28806 5.69425L1.5557 6.21737L1.5557 6.21737L2.28806 5.69425ZM2.66588 7.44092L1.77073 7.34761L1.77073 7.34761L2.66588 7.44092ZM2.66586 8.56679L3.56102 8.4735L3.56102 8.4735L2.66586 8.56679ZM2.28803 10.3134L1.55567 9.79026L1.55567 9.79026L2.28803 10.3134ZM2.05766 10.6359L2.78313 11.1687L2.79002 11.159L2.05766 10.6359ZM2.05765 10.6359L1.33219 10.1031L1.32529 10.1128L2.05765 10.6359ZM1.73359 11.1196L2.52848 11.5417L2.52848 11.5417L1.73359 11.1196ZM1.91182 13.2731L2.62651 12.7261L2.62651 12.7261L1.91182 13.2731ZM2.311 13.697L2.97582 13.0903C2.96657 13.0802 2.9571 13.0703 2.9474 13.0606L2.311 13.697ZM2.31101 13.697L1.6462 14.3036C1.65245 14.3105 1.65881 14.3172 1.66527 14.3239L2.31101 13.697ZM2.31106 13.697L1.66531 14.3239C1.66922 14.3279 1.67316 14.3319 1.67714 14.3359L2.31106 13.697ZM2.3111 13.6971L2.9475 13.0606L2.94502 13.0582L2.3111 13.6971ZM2.73483 14.0961L3.28184 13.3814L3.28184 13.3814L2.73483 14.0961ZM4.88837 14.2744L4.46629 13.4795L4.46629 13.4795L4.88837 14.2744ZM5.37206 13.9503L5.89517 14.6827L5.89517 14.6827L5.37206 13.9503ZM5.69459 13.7199L5.17148 12.9876L5.17148 12.9876L5.69459 13.7199ZM7.44117 13.3421L7.53445 12.4469L7.53445 12.4469L7.44117 13.3421ZM8.56699 13.3421L8.6603 14.2372L8.6603 14.2372L8.56699 13.3421ZM10.3137 13.7199L10.8368 12.9875L10.8368 12.9875L10.3137 13.7199ZM10.636 13.9501L10.1128 14.6825L10.1199 14.6874L10.636 13.9501ZM10.636 13.9501L10.1199 14.6874C10.1255 14.6914 10.1311 14.6952 10.1368 14.699L10.636 13.9501ZM10.636 13.9502L11.1591 13.2178C11.1513 13.2122 11.1433 13.2067 11.1353 13.2013L10.636 13.9502ZM11.1197 14.2742L10.6976 15.0691L10.6976 15.0691L11.1197 14.2742ZM13.0606 13.0604C12.8288 13.2922 12.7723 13.346 12.7262 13.3813L13.8202 14.8106C13.9842 14.6851 14.1403 14.5263 14.3334 14.3332L13.0606 13.0604ZM13.0607 13.0603L13.0606 13.0604L14.3334 14.3332L14.3335 14.3331L13.0607 13.0603ZM13.0607 13.0603L13.0607 13.0603L14.3335 14.3331L14.3335 14.3331L13.0607 13.0603ZM13.0607 13.0603L13.0607 13.0603L14.3335 14.3331L14.3335 14.3331L13.0607 13.0603ZM13.3815 12.7259C13.3462 12.772 13.2925 12.8285 13.0607 13.0603L14.3335 14.3331C14.5266 14.14 14.6854 13.984 14.8109 13.82L13.3815 12.7259ZM13.4796 11.5415C13.6813 11.9215 13.643 12.3843 13.3815 12.7259L14.8109 13.82C15.5003 12.9192 15.6013 11.6992 15.0693 10.6973L13.4796 11.5415ZM13.218 11.1588C13.4086 11.4257 13.4523 11.4902 13.4796 11.5415L15.0693 10.6973C14.9725 10.5149 14.8415 10.3349 14.6827 10.1126L13.218 11.1588ZM12.9876 10.8363L13.218 11.1588L14.6827 10.1126L14.4524 9.79009L12.9876 10.8363ZM12.447 8.47341C12.3702 9.21091 12.4574 10.094 12.9876 10.8363L14.4524 9.79009C14.268 9.53193 14.1868 9.14526 14.2373 8.65994L12.447 8.47341ZM12.4713 8.00393C12.4713 8.16277 12.4631 8.31939 12.447 8.47341L14.2373 8.65994C14.2598 8.44406 14.2713 8.22519 14.2713 8.00393H12.4713ZM12.447 7.53433C12.4631 7.68839 12.4713 7.84504 12.4713 8.00393H14.2713C14.2713 7.78261 14.2598 7.56368 14.2373 7.34774L12.447 7.53433ZM12.9876 5.17131C12.4574 5.91362 12.3701 6.7968 12.447 7.53433L14.2373 7.34775C14.1867 6.8624 14.2679 6.47571 14.4523 6.21754L12.9876 5.17131ZM13.2178 4.84912L12.9876 5.17131L14.4523 6.21754L14.6825 5.89535L13.2178 4.84912ZM13.1892 4.89163L13.1892 4.89164L14.7111 5.85283L14.7111 5.85282L13.1892 4.89163ZM13.4793 4.46647C13.4521 4.51777 13.4084 4.58228 13.2178 4.8491L14.6825 5.89534C14.8412 5.67308 14.9722 5.49305 15.0691 5.31063L13.4793 4.46647ZM13.3813 3.28202C13.6428 3.62369 13.6811 4.08646 13.4793 4.46647L15.0691 5.31063C15.601 4.30879 15.5001 3.08875 14.8106 2.18799L13.3813 3.28202ZM13.0604 2.94758C13.2923 3.17945 13.346 3.2359 13.3813 3.28202L14.8106 2.18799C14.6851 2.02398 14.5263 1.86792 14.3332 1.67478L13.0604 2.94758ZM13.0901 2.97598L13.0901 2.976L14.3034 1.64636L14.3034 1.64635L13.0901 2.97598ZM12.7259 2.62669C12.7721 2.66199 12.8285 2.7157 13.0604 2.94756L14.3332 1.67477C14.14 1.48164 13.984 1.32285 13.82 1.19732L12.7259 2.62669ZM11.5415 2.52866C11.9215 2.32688 12.3843 2.36518 12.7259 2.62669L13.82 1.19732C12.9192 0.507883 11.6992 0.40691 10.6973 0.938882L11.5415 2.52866ZM11.1588 2.7902C11.4257 2.5996 11.4902 2.5559 11.5415 2.52866L10.6973 0.938881C10.5149 1.03574 10.3349 1.16672 10.1126 1.32548L11.1588 2.7902ZM10.8367 3.02032L11.1588 2.7902L10.1126 1.32548L9.79043 1.5556L10.8367 3.02032ZM8.47363 3.56094C9.21116 3.63781 10.0943 3.55055 10.8367 3.02032L9.79043 1.5556C9.53226 1.74001 9.14556 1.82122 8.66022 1.77064L8.47363 3.56094ZM8.00401 3.53663C8.1629 3.53663 8.31956 3.54488 8.47363 3.56094L8.66022 1.77064C8.44427 1.74813 8.22533 1.73663 8.00401 1.73663V3.53663ZM7.53451 3.56093C7.68854 3.54488 7.84516 3.53663 8.00401 3.53663V1.73663C7.78274 1.73663 7.56386 1.74813 7.34797 1.77062L7.53451 3.56093ZM5.17158 3.02029C5.91387 3.5505 6.79701 3.63777 7.53451 3.56093L7.34797 1.77062C6.86265 1.82119 6.47598 1.73998 6.21781 1.55557L5.17158 3.02029ZM4.8492 2.79002L5.17159 3.02029L6.21781 1.55557L5.89543 1.3253L4.8492 2.79002ZM4.46655 2.52848C4.51785 2.55572 4.58236 2.59942 4.8492 2.79002L5.89543 1.3253C5.67316 1.16654 5.49313 1.03556 5.31071 0.938702L4.46655 2.52848ZM3.2821 2.62651C3.62377 2.365 4.08654 2.3267 4.46655 2.52848L5.31071 0.938702C4.30886 0.40673 3.08883 0.507703 2.18807 1.19714L3.2821 2.62651ZM2.94766 2.9474C3.17953 2.71552 3.23598 2.66181 3.2821 2.62651L2.18807 1.19714C2.02406 1.32267 1.868 1.48146 1.67486 1.6746L2.94766 2.9474ZM2.94765 2.9474L2.94766 2.9474L1.67486 1.6746L1.67486 1.67461L2.94765 2.9474ZM2.94765 2.9474L2.94765 2.9474L1.67486 1.67461L1.67486 1.67461L2.94765 2.9474ZM2.62677 3.28184C2.66207 3.23572 2.71578 3.17927 2.94765 2.9474L1.67486 1.67461C1.48172 1.86775 1.32293 2.0238 1.1974 2.18781L2.62677 3.28184ZM2.52874 4.46629C2.32696 4.08628 2.36526 3.62351 2.62677 3.28184L1.1974 2.18781C0.507961 3.08857 0.406988 4.30861 0.93896 5.31045L2.52874 4.46629ZM2.79027 4.84893C2.59968 4.5821 2.55598 4.51759 2.52874 4.46629L0.93896 5.31045C1.03582 5.49286 1.16679 5.6729 1.32554 5.89515L2.79027 4.84893ZM2.78368 4.83982L2.78367 4.83981L1.33214 5.90427L1.33215 5.90428L2.78368 4.83982ZM2.78432 4.8407L2.78432 4.8407L1.33151 5.9034L1.33151 5.90341L2.78432 4.8407ZM2.74932 4.79589L2.74932 4.79589L1.36652 5.94822L1.36652 5.94822L2.74932 4.79589ZM3.02042 5.17114L2.79028 4.84894L1.32556 5.89517L1.5557 6.21737L3.02042 5.17114ZM3.56103 7.53423C3.63791 6.79668 3.55066 5.91347 3.02042 5.17114L1.5557 6.21737C1.74011 6.47555 1.82132 6.86226 1.77073 7.34761L3.56103 7.53423ZM3.5367 8.00393C3.5367 7.84501 3.54497 7.68832 3.56103 7.53423L1.77073 7.34761C1.74822 7.56359 1.7367 7.78257 1.7367 8.00393H3.5367ZM3.56102 8.4735C3.54496 8.31945 3.5367 8.16281 3.5367 8.00393H1.7367C1.7367 8.22523 1.74821 8.44415 1.77071 8.66007L3.56102 8.4735ZM3.02039 10.8365C3.55061 10.0942 3.63787 9.21103 3.56102 8.4735L1.77071 8.66007C1.82129 9.14541 1.74008 9.5321 1.55567 9.79026L3.02039 10.8365ZM2.79002 11.159L3.02039 10.8365L1.55567 9.79026L1.3253 10.1128L2.79002 11.159ZM2.78306 11.1686L2.78306 11.1686L1.33226 10.1032L1.33225 10.1032L2.78306 11.1686ZM2.52848 11.5417C2.55572 11.4904 2.59942 11.4259 2.79001 11.159L1.32529 10.1128C1.16654 10.3351 1.03556 10.5151 0.938701 10.6975L2.52848 11.5417ZM2.62651 12.7261C2.365 12.3844 2.3267 11.9217 2.52848 11.5417L0.938702 10.6975C0.40673 11.6993 0.507703 12.9194 1.19714 13.8201L2.62651 12.7261ZM2.9474 13.0606C2.71552 12.8287 2.66181 12.7722 2.62651 12.7261L1.19714 13.8201C1.32267 13.9842 1.48146 14.1402 1.67461 14.3333L2.9474 13.0606ZM2.97583 13.0903L2.97582 13.0903L1.64618 14.3036L1.6462 14.3036L2.97583 13.0903ZM2.9568 13.0701L2.95676 13.0701L1.66527 14.3239L1.66531 14.3239L2.9568 13.0701ZM2.94502 13.0582L2.94497 13.0581L1.67714 14.3359L1.67719 14.3359L2.94502 13.0582ZM3.28184 13.3814C3.23573 13.3462 3.17929 13.2925 2.94749 13.0607L1.67471 14.3335C1.86779 14.5265 2.02382 14.6853 2.18782 14.8108L3.28184 13.3814ZM4.46629 13.4795C4.08628 13.6813 3.62351 13.643 3.28184 13.3814L2.18781 14.8108C3.08857 15.5002 4.30861 15.6012 5.31045 15.0693L4.46629 13.4795ZM4.84894 13.2179C4.5821 13.4085 4.51759 13.4522 4.46629 13.4795L5.31045 15.0693C5.49287 14.9724 5.67291 14.8414 5.89517 14.6827L4.84894 13.2179ZM5.17148 12.9876L4.84894 13.2179L5.89517 14.6827L6.21771 14.4523L5.17148 12.9876ZM7.53445 12.4469C6.79693 12.3701 5.91378 12.4573 5.17148 12.9876L6.21771 14.4523C6.47587 14.2679 6.86256 14.1867 7.34789 14.2372L7.53445 12.4469ZM8.00401 12.4712C7.84514 12.4712 7.6885 12.463 7.53445 12.4469L7.34789 14.2372C7.5638 14.2597 7.78271 14.2712 8.00401 14.2712V12.4712ZM8.47369 12.4469C8.3196 12.463 8.16292 12.4712 8.00401 12.4712V14.2712C8.22536 14.2712 8.44433 14.2597 8.6603 14.2372L8.47369 12.4469ZM10.8368 12.9875C10.0944 12.4573 9.21124 12.37 8.47369 12.4469L8.6603 14.2372C9.14566 14.1866 9.53236 14.2678 9.79054 14.4522L10.8368 12.9875ZM11.1591 13.2178L10.8368 12.9875L9.79054 14.4522L10.1129 14.6825L11.1591 13.2178ZM11.1521 13.2128L11.1521 13.2128L10.1199 14.6874L10.1199 14.6874L11.1521 13.2128ZM11.1353 13.2013L11.1352 13.2013L10.1368 14.699L10.1368 14.699L11.1353 13.2013ZM11.5417 13.4793C11.4904 13.4521 11.4259 13.4084 11.1591 13.2178L10.1129 14.6825C10.3351 14.8412 10.5152 14.9722 10.6976 15.0691L11.5417 13.4793ZM12.7262 13.3813C12.3845 13.6428 11.9217 13.6811 11.5417 13.4793L10.6976 15.0691C11.6994 15.601 12.9195 15.5001 13.8202 14.8106L12.7262 13.3813ZM9.11691 8.00409C9.11691 8.61864 8.61872 9.11683 8.00417 9.11683V10.9168C9.61283 10.9168 10.9169 9.61275 10.9169 8.00409H9.11691ZM8.00417 6.89135C8.61872 6.89135 9.11691 7.38954 9.11691 8.00409H10.9169C10.9169 6.39543 9.61283 5.09135 8.00417 5.09135V6.89135ZM6.89143 8.00409C6.89143 7.38954 7.38962 6.89135 8.00417 6.89135V5.09135C6.39551 5.09135 5.09143 6.39543 5.09143 8.00409H6.89143ZM8.00417 9.11683C7.38962 9.11683 6.89143 8.61864 6.89143 8.00409H5.09143C5.09143 9.61275 6.39551 10.9168 8.00417 10.9168V9.11683Z" fill="url(#paint0_linear_488_377)"/>
<defs>
<linearGradient id="paint0_linear_488_377" x1="13.5053" y1="1.73416" x2="1.6575" y2="14.0137" gradientUnits="userSpaceOnUse">
<stop stop-color="#FFC700"/>
<stop offset="0.551952" stop-color="#FF49AB"/>
<stop offset="1" stop-color="#BA49FF"/>
</linearGradient>
</defs>
</svg>
