<svg width="64" height="64" viewBox="0 0 64 64" fill="none" xmlns="http://www.w3.org/2000/svg">
<path d="M27.3336 22.6669C27.3336 21.7439 27.6073 20.8417 28.1201 20.0742C28.6329 19.3068 29.3617 18.7087 30.2144 18.3555C31.0672 18.0023 32.0055 17.9099 32.9107 18.0899C33.8159 18.27 34.6475 18.7144 35.3001 19.3671C35.9527 20.0197 36.3972 20.8512 36.5773 21.7565C36.7573 22.6617 36.6649 23.6 36.3117 24.4527C35.9585 25.3054 35.3604 26.0343 34.5929 26.5471C33.8255 27.0598 32.9233 27.3335 32.0003 27.3335C30.7626 27.3335 29.5756 26.8419 28.7005 25.9667C27.8253 25.0915 27.3336 23.9046 27.3336 22.6669ZM60.0001 35.2061V47.2204C60.0131 48.8357 59.6541 50.4323 58.9509 51.8865C58.2476 53.3408 57.2191 54.6136 55.9448 55.6064C54.7497 56.544 53.3552 57.1945 51.8688 57.5076C50.3824 57.8207 48.844 57.7882 47.3722 57.4123C47.2695 57.3867 41.9402 55.5037 41.9402 55.5037C41.0621 55.265 40.135 55.2739 39.2616 55.5294L26.4283 59.51C25.3123 59.8347 24.1559 59.9997 22.9937 60C21.7254 60.0011 20.465 59.7995 19.2604 59.4027L12.8694 57.3027C10.2763 56.4628 8.01846 54.8183 6.42361 52.6079C4.82876 50.3976 3.97996 47.7364 4.00045 45.0108V35.5001C3.98567 33.7409 4.33145 31.9973 5.01648 30.3768C5.7015 28.7563 6.71125 27.2934 7.98343 26.0782C9.50088 24.6599 11.3515 23.6471 13.3641 23.1336C13.3167 20.6207 13.772 18.1237 14.7032 15.7892C15.6344 13.4548 17.0228 11.33 18.7867 9.53963C20.5112 7.78536 22.5677 6.39204 24.8364 5.44094C27.105 4.48984 29.5403 4 32.0003 4C34.4602 4 36.8956 4.48984 39.1642 5.44094C41.4328 6.39204 43.4894 7.78536 45.2139 9.53963C48.6808 13.0554 50.6317 17.7899 50.6482 22.7276L51.7355 23.1079C54.1794 24.0448 56.2797 25.7045 57.7563 27.8656C59.2328 30.0266 60.0156 32.5865 60.0001 35.2038V35.2061ZM23.766 31.2535L31.4496 38.7668C31.5234 38.8416 31.6113 38.9009 31.7083 38.9415C31.8052 38.982 31.9092 39.0029 32.0143 39.0029C32.1193 39.0029 32.2234 38.982 32.3203 38.9415C32.4172 38.9009 32.5052 38.8416 32.579 38.7668L40.2789 31.2185C42.4649 28.9749 43.6852 25.9644 43.6782 22.8319C43.6712 19.6995 42.4376 16.6944 40.2416 14.4606V14.4606C39.1675 13.3664 37.8861 12.4972 36.4723 11.9039C35.0585 11.3105 33.5406 11.0049 32.0073 11.0049C30.474 11.0049 28.9561 11.3105 27.5423 11.9039C26.1285 12.4972 24.8471 13.3664 23.773 14.4606C21.5739 16.7017 20.3413 19.7158 20.34 22.8556C20.3387 25.9955 21.5687 29.0106 23.766 31.2535ZM53.0002 35.2038C53.0211 34.0287 52.6866 32.8746 52.0404 31.8928C51.3942 30.911 50.4665 30.1474 49.3789 29.7018C48.4537 32.1245 47.0354 34.3286 45.2139 36.1745L37.4813 43.7624C36.0286 45.2035 34.0652 46.0122 32.019 46.0122C29.9727 46.0122 28.0094 45.2035 26.5567 43.7624L18.8287 36.2165C17.0616 34.424 15.6695 32.2974 14.7337 29.9608C14.0231 30.2212 13.3735 30.6247 12.8251 31.1462C12.2394 31.7086 11.7753 32.3852 11.4615 33.134C11.1476 33.8829 10.9907 34.6882 11.0004 35.5001V45.0084C10.9757 46.2459 11.3473 47.4588 12.061 48.4701C12.7746 49.4814 13.7929 50.238 14.9671 50.6294L21.4444 52.748C22.4057 53.0642 23.4401 53.0829 24.4123 52.8017L37.2713 48.8164C39.5107 48.1637 41.8916 48.1759 44.1242 48.8514L49.2272 50.6667C49.6488 50.7537 50.0844 50.7467 50.503 50.6463C50.9216 50.5459 51.3129 50.3545 51.6492 50.0857C52.0797 49.7438 52.4256 49.3072 52.6599 48.8098C52.8942 48.3125 53.0107 47.7678 53.0002 47.2181V35.2038Z" fill="url(#paint0_linear_914_2)"/>
<defs>
<linearGradient id="paint0_linear_914_2" x1="4.0082" y1="31.1703" x2="60.0098" y2="31.1703" gradientUnits="userSpaceOnUse">
<stop stop-color="#A93AFF"/>
<stop offset="1" stop-color="#FF81FF"/>
</linearGradient>
</defs>
</svg>
