<svg width="64" height="64" viewBox="0 0 64 64" fill="none" xmlns="http://www.w3.org/2000/svg">
<path d="M7.33984 16.8533C7.33984 15.4857 8.44844 14.3771 9.81605 14.3771H54.1843C55.5518 14.3771 56.6604 15.4857 56.6604 16.8533V41.8391C56.6604 43.2066 55.5518 44.3153 54.1842 44.3153H51.6223C50.2547 44.3153 49.1461 43.2066 49.1461 41.8391V23.8905C49.1461 22.5229 48.0375 21.4143 46.6699 21.4143H17.0322C15.6646 21.4143 14.556 22.5229 14.556 23.8905V42.1372C14.556 43.5049 13.4474 44.6135 12.0798 44.6135H9.81605C8.44844 44.6135 7.33984 43.5049 7.33984 42.1372V16.8533ZM11.097 36.7126C11.097 35.3451 12.2057 34.2364 13.5732 34.2364H50.8445C52.2121 34.2364 53.3207 35.3451 53.3207 36.7126V38.7976C53.3207 40.1651 52.2121 41.2738 50.8445 41.2738H13.5732C12.2057 41.2738 11.097 40.1651 11.097 38.7976V36.7126ZM28.0343 6.47622C28.0343 5.10861 29.1429 4 30.5105 4H33.1321C34.4997 4 35.6083 5.10861 35.6083 6.47622V57.5238C35.6083 58.8914 34.4997 60 33.1321 60H30.5105C29.1429 60 28.0343 58.8914 28.0343 57.5238V6.47622Z" fill="url(#paint0_linear_1005_411)"/>
<defs>
<linearGradient id="paint0_linear_1005_411" x1="16.4759" y1="-6.50001" x2="60.5394" y2="75.6856" gradientUnits="userSpaceOnUse">
<stop stop-color="#FFCA64"/>
<stop offset="1" stop-color="#C70000"/>
</linearGradient>
</defs>
</svg>
