<svg width="16" height="16" viewBox="0 0 16 16" fill="none" xmlns="http://www.w3.org/2000/svg">
<path fill-rule="evenodd" clip-rule="evenodd" d="M4.4977 1.1001L11.5018 1.1001C12.0317 1.10008 12.4829 1.10007 12.8533 1.13034C13.2425 1.16213 13.6211 1.23177 13.983 1.41618C14.5287 1.69421 14.9723 2.13786 15.2504 2.68353C15.4348 3.04546 15.5044 3.42405 15.5362 3.81322C15.5665 4.18365 15.5665 4.63483 15.5664 5.16469V10.8355C15.5665 11.3654 15.5665 11.8166 15.5362 12.187C15.5044 12.5761 15.4348 12.9547 15.2504 13.3167C14.9723 13.8623 14.5287 14.306 13.983 14.584C13.6211 14.7684 13.2425 14.8381 12.8533 14.8699C12.4829 14.9001 12.0317 14.9001 11.5019 14.9001H4.4977C3.96783 14.9001 3.51665 14.9001 3.14622 14.8699C2.75706 14.8381 2.37847 14.7684 2.01653 14.584C1.47086 14.306 1.02722 13.8623 0.749188 13.3167C0.564774 12.9547 0.49514 12.5761 0.463344 12.187C0.433079 11.8166 0.433091 11.3654 0.433106 10.8355L0.433107 6.00055L0.433106 5.16469C0.433091 4.63483 0.433079 4.18365 0.463344 3.81321C0.49514 3.42405 0.564774 3.04546 0.749188 2.68353C1.02722 2.13786 1.47086 1.69421 2.01653 1.41618C2.37847 1.23177 2.75706 1.16213 3.14622 1.13034C3.51665 1.10007 3.96783 1.10008 4.4977 1.1001ZM2.87311 6.9001C2.64909 6.9001 2.53708 6.9001 2.45151 6.9437C2.37625 6.98205 2.31505 7.04324 2.2767 7.1185C2.23311 7.20407 2.23311 7.31608 2.23311 7.5401L2.23311 10.8001C2.23311 11.375 2.23381 11.7521 2.25737 12.0404C2.28007 12.3183 2.31943 12.4336 2.353 12.4995C2.45846 12.7065 2.62674 12.8747 2.83372 12.9802C2.89961 13.0138 3.01495 13.0531 3.2928 13.0758C3.58115 13.0994 3.9582 13.1001 4.5331 13.1001H11.4664C12.0413 13.1001 12.4184 13.0994 12.7067 13.0758C12.9846 13.0531 13.0999 13.0138 13.1658 12.9802C13.3728 12.8747 13.5411 12.7065 13.6465 12.4995C13.6801 12.4336 13.7195 12.3183 13.7422 12.0404C13.7657 11.7521 13.7664 11.375 13.7664 10.8001V7.5401C13.7664 7.31608 13.7664 7.20407 13.7228 7.1185C13.6845 7.04324 13.6233 6.98205 13.548 6.9437C13.4625 6.9001 13.3505 6.9001 13.1264 6.9001H2.87311ZM13.7629 4.45985C13.7665 4.6804 13.7683 4.79068 13.7252 4.87765C13.6877 4.95336 13.6252 5.0169 13.5501 5.05562C13.4638 5.1001 13.3513 5.1001 13.1262 5.1001H2.87331C2.64824 5.1001 2.53571 5.1001 2.44945 5.05562C2.37435 5.0169 2.31184 4.95336 2.27433 4.87765C2.23125 4.79068 2.23304 4.6804 2.2366 4.45985C2.23978 4.26337 2.24583 4.10095 2.25737 3.95979C2.28007 3.68194 2.31943 3.5666 2.353 3.50071C2.45846 3.29373 2.62674 3.12545 2.83372 3.01999C2.89961 2.98642 3.01495 2.94706 3.2928 2.92436C3.58115 2.9008 3.9582 2.9001 4.53311 2.9001L11.4664 2.9001C12.0413 2.9001 12.4184 2.9008 12.7067 2.92436C12.9846 2.94706 13.0999 2.98642 13.1658 3.01999C13.3728 3.12545 13.5411 3.29373 13.6465 3.50071C13.6801 3.5666 13.7195 3.68194 13.7422 3.95979C13.7537 4.10095 13.7598 4.26337 13.7629 4.45985Z" fill="url(#paint0_linear_614_78)"/>
<path fill-rule="evenodd" clip-rule="evenodd" d="M3 4.0334C3 3.59157 3.35817 3.2334 3.8 3.2334H3.8077C4.24953 3.2334 4.6077 3.59157 4.6077 4.0334C4.6077 4.47523 4.24953 4.8334 3.8077 4.8334H3.8C3.35817 4.8334 3 4.47523 3 4.0334ZM5 4.0334C5 3.59157 5.35817 3.2334 5.8 3.2334H5.8077C6.24953 3.2334 6.6077 3.59157 6.6077 4.0334C6.6077 4.47523 6.24953 4.8334 5.8077 4.8334H5.8C5.35817 4.8334 5 4.47523 5 4.0334ZM7.8 3.2334C7.35817 3.2334 7 3.59157 7 4.0334C7 4.47523 7.35817 4.8334 7.8 4.8334H7.8077C8.24953 4.8334 8.6077 4.47523 8.6077 4.0334C8.6077 3.59157 8.24953 3.2334 7.8077 3.2334H7.8Z" fill="url(#paint1_linear_614_78)"/>
<defs>
<linearGradient id="paint0_linear_614_78" x1="7.99977" y1="14.9001" x2="7.99977" y2="1.91186" gradientUnits="userSpaceOnUse">
<stop stop-color="#18AEFA"/>
<stop offset="1" stop-color="#83E1FF"/>
</linearGradient>
<linearGradient id="paint1_linear_614_78" x1="5.80385" y1="4.8334" x2="5.80385" y2="3.32752" gradientUnits="userSpaceOnUse">
<stop stop-color="#18AEFA"/>
<stop offset="1" stop-color="#83E1FF"/>
</linearGradient>
</defs>
</svg>
