<svg width="16" height="16" viewBox="0 0 16 16" fill="none" xmlns="http://www.w3.org/2000/svg">
<g clip-path="url(#clip0_556_225)">
<path fill-rule="evenodd" clip-rule="evenodd" d="M8.83411 3.03331V3.58759V4.54373C8.83411 5.00443 8.46064 5.37789 7.99995 5.37789C7.53926 5.37789 7.16579 5.00443 7.16579 4.54373V1.45847C7.16579 0.936997 7.56681 0.497736 8.08828 0.500364C9.52807 0.50762 11.0371 0.80765 12.1961 1.59C13.6727 2.58672 14.7463 4.07653 15.2246 5.79264C15.7029 7.50875 15.5548 9.33912 14.8066 10.9559C14.0585 12.5728 12.7592 13.8705 11.1415 14.6167C9.52379 15.3629 7.69331 15.5089 5.97774 15.0286C4.26219 14.5482 2.77366 13.4728 1.77869 11.995C0.783725 10.5172 0.347289 8.7335 0.54755 6.96329C0.738071 5.27911 1.49307 3.71172 2.68549 2.51429C2.78749 2.41186 2.95277 2.41486 3.05498 2.51707L3.85327 3.31536C3.96099 3.42308 3.95683 3.59846 3.84975 3.70682C3.09225 4.47334 2.56053 5.43629 2.31632 6.48961C2.05105 7.63389 2.13739 8.83153 2.56404 9.92589C2.99069 11.0202 3.73778 11.9603 4.70753 12.6231C5.67731 13.2858 6.82454 13.6404 7.99915 13.6404C9.47215 13.6372 10.8894 13.077 11.9666 12.0722C13.0438 11.0674 13.701 9.69243 13.8065 8.22318C13.912 6.75393 13.4579 5.29919 12.5353 4.15085C11.8317 3.27517 10.8608 2.50346 9.81956 2.18606C9.29089 2.02491 8.83411 2.48063 8.83411 3.03331ZM4.17766 5.65191C4.17766 5.43098 4.26542 5.21905 4.42165 5.06279C4.57792 4.90657 4.78902 4.81877 5.01001 4.81877C5.23094 4.81877 5.44286 4.90657 5.59913 5.06279L9.02888 8.49168C9.18071 8.64886 9.26471 8.8594 9.26278 9.07786C9.2609 9.29638 9.17326 9.50536 9.01876 9.65986C8.86426 9.81436 8.65522 9.902 8.43676 9.90393C8.21824 9.90581 8.00776 9.82181 7.85058 9.67004L4.42165 6.24109C4.26542 6.08482 4.17766 5.87289 4.17766 5.65191Z" fill="url(#paint0_linear_556_225)"/>
<path d="M8.08828 0.500364L8.08928 0.300366L8.08828 0.500364ZM12.1961 1.59L12.308 1.42423L12.308 1.42423L12.1961 1.59ZM15.2246 5.79264L15.0319 5.84634L15.0319 5.84634L15.2246 5.79264ZM14.8066 10.9559L14.6251 10.8719L14.6251 10.8719L14.8066 10.9559ZM11.1415 14.6167L11.0578 14.4351L11.0578 14.4351L11.1415 14.6167ZM5.97774 15.0286L5.92381 15.2212L5.92381 15.2212L5.97774 15.0286ZM1.77869 11.995L1.61279 12.1067L1.61279 12.1067L1.77869 11.995ZM0.54755 6.96329L0.746282 6.98577L0.746282 6.98577L0.54755 6.96329ZM2.68549 2.51429L2.54377 2.37316L2.54377 2.37316L2.68549 2.51429ZM3.05498 2.51707L2.91355 2.65849L2.91356 2.65849L3.05498 2.51707ZM3.85327 3.31536L3.71185 3.45678L3.71185 3.45678L3.85327 3.31536ZM3.84975 3.70682L3.70749 3.56623L3.70749 3.56623L3.84975 3.70682ZM2.31632 6.48961L2.12149 6.44444L2.12149 6.44444L2.31632 6.48961ZM2.56404 9.92589L2.75038 9.85325L2.75038 9.85324L2.56404 9.92589ZM4.70753 12.6231L4.59468 12.7882L4.59469 12.7882L4.70753 12.6231ZM7.99915 13.6404L7.99916 13.8404L7.99958 13.8404L7.99915 13.6404ZM11.9666 12.0722L12.103 12.2185L12.103 12.2185L11.9666 12.0722ZM13.8065 8.22318L13.607 8.20886L13.607 8.20886L13.8065 8.22318ZM12.5353 4.15085L12.3793 4.27612L12.3793 4.27612L12.5353 4.15085ZM9.81956 2.18606L9.87788 1.99475L9.87788 1.99475L9.81956 2.18606ZM4.42165 5.06279L4.28025 4.92134L4.28021 4.92138L4.42165 5.06279ZM5.59913 5.06279L5.74054 4.92135L5.74053 4.92134L5.59913 5.06279ZM9.02888 8.49168L9.17276 8.35271L9.17029 8.35024L9.02888 8.49168ZM9.26278 9.07786L9.06279 9.07609L9.06278 9.07614L9.26278 9.07786ZM8.43676 9.90393L8.43847 10.1039L8.43852 10.1039L8.43676 9.90393ZM7.85058 9.67004L7.70914 9.81148L7.71166 9.81391L7.85058 9.67004ZM4.42165 6.24109L4.28021 6.38249L4.28022 6.38251L4.42165 6.24109ZM9.03411 3.58759V3.03331H8.63411V3.58759H9.03411ZM9.03411 4.54373V3.58759H8.63411V4.54373H9.03411ZM7.99995 5.57789C8.5711 5.57789 9.03411 5.11488 9.03411 4.54373H8.63411C8.63411 4.89397 8.35019 5.17789 7.99995 5.17789V5.57789ZM6.96579 4.54373C6.96579 5.11488 7.4288 5.57789 7.99995 5.57789V5.17789C7.64971 5.17789 7.36579 4.89397 7.36579 4.54373H6.96579ZM6.96579 1.45847V4.54373H7.36579V1.45847H6.96579ZM8.08928 0.300366C7.44592 0.297124 6.96579 0.837524 6.96579 1.45847H7.36579C7.36579 1.03647 7.6877 0.698347 8.08727 0.700361L8.08928 0.300366ZM12.308 1.42423C11.1043 0.611735 9.55129 0.307734 8.08928 0.300366L8.08727 0.700361C9.50485 0.707505 10.9698 1.00357 12.0842 1.75577L12.308 1.42423ZM15.4173 5.73895C14.9262 3.97707 13.824 2.44753 12.308 1.42423L12.0842 1.75577C13.5214 2.72591 14.5664 4.17599 15.0319 5.84634L15.4173 5.73895ZM14.9881 11.0399C15.7562 9.38 15.9084 7.50081 15.4173 5.73894L15.0319 5.84634C15.4975 7.51669 15.3533 9.29825 14.6251 10.8719L14.9881 11.0399ZM11.2253 14.7983C12.8862 14.0322 14.2201 12.6999 14.9881 11.0399L14.6251 10.8719C13.8969 12.4456 12.6323 13.7088 11.0578 14.4351L11.2253 14.7983ZM5.92381 15.2212C7.68513 15.7143 9.56443 15.5644 11.2253 14.7983L11.0578 14.4351C9.48316 15.1614 7.70149 15.3035 6.03166 14.836L5.92381 15.2212ZM1.61279 12.1067C2.63429 13.6239 4.16252 14.728 5.92381 15.2212L6.03166 14.836C4.36187 14.3684 2.91303 13.3217 1.94459 11.8833L1.61279 12.1067ZM0.348817 6.9408C0.143216 8.75823 0.591291 10.5895 1.61279 12.1067L1.94459 11.8833C0.976159 10.4449 0.551362 8.70878 0.746282 6.98577L0.348817 6.9408ZM2.54377 2.37316C1.31955 3.60253 0.54442 5.21171 0.348817 6.9408L0.746282 6.98577C0.931723 5.3465 1.66659 3.82091 2.82721 2.65541L2.54377 2.37316ZM3.1964 2.37566C3.01915 2.1984 2.72696 2.1892 2.54377 2.37316L2.82721 2.65541C2.84801 2.63452 2.88638 2.63132 2.91355 2.65849L3.1964 2.37566ZM3.99469 3.17394L3.1964 2.37565L2.91356 2.65849L3.71185 3.45678L3.99469 3.17394ZM3.992 3.8474C4.17201 3.66525 4.18454 3.36379 3.99469 3.17394L3.71185 3.45678C3.73744 3.48238 3.74166 3.53166 3.70749 3.56623L3.992 3.8474ZM2.51116 6.53478C2.74699 5.51757 3.26048 4.58764 3.992 3.8474L3.70749 3.56623C2.92402 4.35904 2.37407 5.355 2.12149 6.44444L2.51116 6.53478ZM2.75038 9.85324C2.33836 8.79641 2.25498 7.63983 2.51116 6.53477L2.12149 6.44444C1.84712 7.62796 1.93642 8.86666 2.3777 9.99854L2.75038 9.85324ZM4.82039 12.458C3.88388 11.8179 3.1624 10.9101 2.75038 9.85325L2.3777 9.99854C2.81898 11.1304 3.59169 12.1027 4.59468 12.7882L4.82039 12.458ZM7.99914 13.4404C6.86481 13.4404 5.75691 13.098 4.82038 12.458L4.59469 12.7882C5.59771 13.4737 6.78427 13.8404 7.99916 13.8404L7.99914 13.4404ZM11.8302 11.926C10.7899 12.8963 9.42122 13.4373 7.99871 13.4404L7.99958 13.8404C9.52307 13.8371 10.9889 13.2577 12.103 12.2185L11.8302 11.926ZM13.607 8.20886C13.5052 9.62775 12.8704 10.9556 11.8302 11.926L12.103 12.2185C13.2171 11.1793 13.8969 9.75711 14.006 8.2375L13.607 8.20886ZM12.3793 4.27612C13.2703 5.3851 13.7089 6.78997 13.607 8.20886L14.006 8.2375C14.1151 6.71789 13.6454 5.21329 12.6912 4.02559L12.3793 4.27612ZM9.76124 2.37737C10.7532 2.67976 11.6928 3.4216 12.3793 4.27612L12.6912 4.02559C11.9706 3.12874 10.9683 2.32716 9.87788 1.99475L9.76124 2.37737ZM9.03411 3.03331C9.03411 2.81081 9.12634 2.61356 9.26266 2.4904C9.39561 2.37029 9.5701 2.3191 9.76124 2.37737L9.87788 1.99475C9.54035 1.89186 9.22212 1.98796 8.99451 2.19359C8.77027 2.39618 8.63411 2.70314 8.63411 3.03331H9.03411ZM4.28021 4.92138C4.08649 5.11516 3.97766 5.37795 3.97766 5.65191H4.37766C4.37766 5.48402 4.44436 5.32295 4.56309 5.20419L4.28021 4.92138ZM5.01001 4.61877C4.73576 4.61877 4.47386 4.7278 4.28025 4.92134L4.56304 5.20423C4.68198 5.08534 4.84229 5.01877 5.01001 5.01877V4.61877ZM5.74053 4.92134C5.54678 4.72765 5.284 4.61877 5.01001 4.61877V5.01877C5.17787 5.01877 5.33895 5.08549 5.45773 5.20423L5.74053 4.92134ZM9.17029 8.35024L5.74054 4.92135L5.45773 5.20422L8.88748 8.63312L9.17029 8.35024ZM9.46277 9.07962C9.46516 8.8087 9.36099 8.54763 9.17274 8.35273L8.88503 8.63063C9.00042 8.75009 9.06425 8.91009 9.06279 9.07609L9.46277 9.07962ZM9.16018 9.80128C9.35176 9.6097 9.46044 9.35055 9.46277 9.07957L9.06278 9.07614C9.06136 9.2422 8.99476 9.40102 8.87734 9.51844L9.16018 9.80128ZM8.43852 10.1039C8.70941 10.1015 8.9686 9.99287 9.16018 9.80128L8.87734 9.51844C8.75992 9.63585 8.60104 9.70247 8.43499 9.70394L8.43852 10.1039ZM7.71166 9.81391C7.90654 10.0021 8.16753 10.1062 8.43847 10.1039L8.43504 9.70394C8.26895 9.70536 8.10897 9.64152 7.9895 9.52616L7.71166 9.81391ZM4.28022 6.38251L7.70916 9.81146L7.992 9.52862L4.56307 6.09967L4.28022 6.38251ZM3.97766 5.65191C3.97766 5.92592 4.08648 6.18871 4.28021 6.38249L4.56309 6.09969C4.44436 5.98093 4.37766 5.81986 4.37766 5.65191H3.97766Z" fill="url(#paint1_linear_556_225)"/>
</g>
<defs>
<linearGradient id="paint0_linear_556_225" x1="7.99995" y1="15.3062" x2="7.99995" y2="0.500488" gradientUnits="userSpaceOnUse">
<stop stop-color="#FD5900"/>
<stop offset="1" stop-color="#FFDE00"/>
</linearGradient>
<linearGradient id="paint1_linear_556_225" x1="7.99995" y1="15.3062" x2="7.99995" y2="0.500488" gradientUnits="userSpaceOnUse">
<stop stop-color="#FD5900"/>
<stop offset="1" stop-color="#FFDE00"/>
</linearGradient>
<clipPath id="clip0_556_225">
<rect width="16" height="16" fill="white"/>
</clipPath>
</defs>
</svg>
