<svg width="16" height="16" viewBox="0 0 16 16" fill="none" xmlns="http://www.w3.org/2000/svg">
<path fill-rule="evenodd" clip-rule="evenodd" d="M5.5666 1.33359C5.5666 0.836537 5.16366 0.433594 4.6666 0.433594C4.16955 0.433594 3.7666 0.836537 3.7666 1.33359V2.26332C3.7666 2.40817 3.66278 2.53126 3.52193 2.56507C2.78554 2.74182 2.1327 3.09503 1.61386 3.61386C0.83903 4.3887 0.433594 5.4624 0.433594 6.66693V11.3336C0.433594 12.5381 0.83903 13.6118 1.61386 14.3867C2.3887 15.1615 3.4624 15.5669 4.66693 15.5669H11.3336C12.5381 15.5669 13.6118 15.1615 14.3867 14.3867C15.1615 13.6118 15.5669 12.5381 15.5669 11.3336V6.66693C15.5669 5.4624 15.1615 4.3887 14.3867 3.61386C13.6118 2.83903 12.5381 2.43359 11.3336 2.43359H5.8666C5.70092 2.43359 5.5666 2.29928 5.5666 2.13359V1.33359ZM2.23359 6.66693C2.23359 5.87145 2.49482 5.27849 2.88666 4.88666C3.27849 4.49482 3.87145 4.23359 4.66693 4.23359H11.3336C12.1291 4.23359 12.722 4.49482 13.1139 4.88666C13.5057 5.27849 13.7669 5.87145 13.7669 6.66693V11.3336C13.7669 12.1291 13.5057 12.722 13.1139 13.1139C12.722 13.5057 12.1291 13.7669 11.3336 13.7669H4.66693C3.87145 13.7669 3.27849 13.5057 2.88666 13.1139C2.49482 12.722 2.23359 12.1291 2.23359 11.3336V6.66693ZM5.66676 8.23359C5.24335 8.23359 4.9001 8.57684 4.9001 9.00026C4.9001 9.42368 5.24335 9.76693 5.66676 9.76693C6.09018 9.76693 6.43343 9.42368 6.43343 9.00026C6.43343 8.57684 6.09018 8.23359 5.66676 8.23359ZM3.1001 9.00026C3.1001 7.58273 4.24923 6.43359 5.66676 6.43359C7.0843 6.43359 8.23343 7.58273 8.23343 9.00026C8.23343 10.4178 7.0843 11.5669 5.66676 11.5669C4.24923 11.5669 3.1001 10.4178 3.1001 9.00026ZM9.6666 6.43359C9.16955 6.43359 8.7666 6.83654 8.7666 7.33359C8.7666 7.83065 9.16955 8.23359 9.6666 8.23359H12.3333C12.8303 8.23359 13.2333 7.83065 13.2333 7.33359C13.2333 6.83654 12.8303 6.43359 12.3333 6.43359H9.6666ZM8.7666 10.0001C8.7666 9.50304 9.16955 9.1001 9.6666 9.1001H9.99993C10.497 9.1001 10.8999 9.50304 10.8999 10.0001C10.8999 10.4972 10.497 10.9001 9.99993 10.9001H9.6666C9.16955 10.9001 8.7666 10.4972 8.7666 10.0001ZM12.0001 9.1001C11.503 9.1001 11.1001 9.50304 11.1001 10.0001C11.1001 10.4972 11.503 10.9001 12.0001 10.9001H12.3334C12.8305 10.9001 13.2334 10.4972 13.2334 10.0001C13.2334 9.50304 12.8305 9.1001 12.3334 9.1001H12.0001Z" fill="url(#paint0_linear_644_141)"/>
<defs>
<linearGradient id="paint0_linear_644_141" x1="0.433594" y1="8.00026" x2="15.5669" y2="8.00026" gradientUnits="userSpaceOnUse">
<stop stop-color="#FFC152"/>
<stop offset="1" stop-color="#FF5F5F"/>
</linearGradient>
</defs>
</svg>
