<svg width="16" height="16" viewBox="0 0 16 16" fill="none" xmlns="http://www.w3.org/2000/svg">
<path d="M5.03456 2.03687L0.782949 9.49015C0.607604 9.79754 0.607779 10.1747 0.783409 10.4819L2.00121 12.6122C2.3855 13.2844 3.35509 13.2837 3.73831 12.6108L7.39862 6.18433M6.43088 9.98617L4.91529 12.6373C4.53418 13.304 5.01554 14.1336 5.78344 14.1336H12.5488C12.9076 14.1336 13.2389 13.9414 13.417 13.6299L15.5 9.98617M13.3825 9.29493C14.1504 9.29493 14.6317 8.46529 14.2506 7.79864L10.652 1.5037C10.4739 1.19222 10.1426 1 9.78385 1H7.35257C6.58467 1 6.10331 1.82964 6.48441 2.49629L10.083 8.79123C10.2611 9.10271 10.5924 9.29493 10.9512 9.29493H13.3825Z" fill="url(#paint0_linear_592_87)"/>
<defs>
<linearGradient id="paint0_linear_592_87" x1="14.3438" y1="1.23642" x2="2.54203" y2="15.2063" gradientUnits="userSpaceOnUse">
<stop stop-color="#FFC700"/>
<stop offset="0.551952" stop-color="#FF49AB"/>
<stop offset="1" stop-color="#BA49FF"/>
</linearGradient>
</defs>
</svg>
