<svg width="16" height="16" viewBox="0 0 16 16" fill="none" xmlns="http://www.w3.org/2000/svg">
<path fill-rule="evenodd" clip-rule="evenodd" d="M1.8498 7.26637C1.8498 4.63382 3.98391 2.49971 6.61647 2.49971C8.3213 2.49971 9.81794 3.39408 10.6617 4.74351C10.9252 5.16496 11.4804 5.293 11.9019 5.02949C12.3234 4.76598 12.4514 4.2107 12.1879 3.78924C11.029 1.9358 8.96745 0.699707 6.61647 0.699707C2.9898 0.699707 0.0498047 3.6397 0.0498047 7.26637C0.0498047 8.2492 0.266499 9.18385 0.655297 10.0231L1.46645 9.64737L0.655297 10.0231C0.950671 10.6608 1.01372 10.8309 0.937389 11.0965C0.922428 11.1486 0.901712 11.1935 0.855325 11.2942C0.837661 11.3326 0.816276 11.379 0.790069 11.437C0.716859 11.5989 0.594686 11.8781 0.567735 12.2063C0.489527 13.1585 1.32809 13.9301 2.27052 13.773C2.71673 13.6987 3.11904 13.4887 3.33618 13.3754C3.37983 13.3526 3.41599 13.3337 3.44353 13.3206C3.63011 13.2319 3.71684 13.2135 3.87489 13.2506C3.87303 13.2502 3.87412 13.2505 3.87916 13.2521L3.87918 13.2521C3.89392 13.2567 3.94235 13.2719 4.0497 13.3092C4.17777 13.3536 4.35507 13.417 4.5999 13.5046L4.90303 12.6572L4.5999 13.5046C4.86932 13.601 5.14701 13.676 5.43677 13.7299C5.92545 13.8208 6.39526 13.4983 6.48612 13.0096C6.57699 12.5209 6.25449 12.0511 5.76581 11.9602C5.5693 11.9237 5.38436 11.8735 5.20616 11.8098L5.09734 11.7708C4.71098 11.6325 4.43179 11.5325 4.28697 11.4984L4.28697 11.4984C3.58487 11.3333 3.0631 11.5085 2.67091 11.6949L2.62863 11.7151C2.6422 11.6763 2.6553 11.6357 2.66737 11.5937C2.93957 10.6465 2.58025 9.88518 2.34053 9.3773L2.34045 9.37713C2.32237 9.33881 2.30496 9.30194 2.28856 9.26654C2.00728 8.65933 1.8498 7.98241 1.8498 7.26637ZM10.9499 5.36667C8.24371 5.36667 6.0499 7.56047 6.0499 10.2667C6.0499 12.9729 8.24371 15.1667 10.9499 15.1667C11.4952 15.1667 11.9902 15.0883 12.4625 14.9194C12.6359 14.8573 12.7596 14.8131 12.8485 14.7823C12.8928 14.7669 12.9235 14.7566 12.9444 14.7499L12.9553 14.7464C12.9702 14.7434 12.9783 14.743 12.9808 14.7429C12.9832 14.7428 12.9839 14.7429 12.9845 14.743L12.9847 14.7431C12.9874 14.7435 13.0085 14.7472 13.076 14.7793C13.1092 14.7951 13.1426 14.8122 13.1915 14.8373L13.2043 14.8439C13.2554 14.87 13.3222 14.9041 13.3948 14.9375C13.5444 15.0063 13.7378 15.0813 13.9741 15.1207C14.8095 15.2599 15.5527 14.576 15.4834 13.732C15.4604 13.4511 15.3565 13.218 15.3039 13.1016C15.2853 13.0605 15.2739 13.0362 15.2646 13.0161L15.2645 13.016C15.2541 12.9937 15.2461 12.9766 15.2334 12.9476C15.2178 12.9119 15.2134 12.8983 15.2131 12.8972C15.2131 12.8972 15.2131 12.8971 15.2131 12.8972C15.2 12.8518 15.199 12.8205 15.2157 12.7579C15.2409 12.6629 15.2864 12.5646 15.3866 12.3483L15.398 12.3239C15.6882 11.6973 15.8499 10.9997 15.8499 10.2667C15.8499 7.56047 13.6561 5.36667 10.9499 5.36667ZM7.8499 10.2667C7.8499 8.55458 9.23782 7.16667 10.9499 7.16667C12.662 7.16667 14.0499 8.55458 14.0499 10.2667C14.0499 10.7329 13.9475 11.1728 13.7647 11.5673C13.7532 11.5921 13.7406 11.6187 13.7272 11.6469C13.5887 11.9383 13.3647 12.4099 13.4103 12.9941C13.166 12.935 12.875 12.9161 12.5337 12.9963L12.5337 12.9963C12.4158 13.0241 12.2034 13.1002 11.9426 13.1936L11.9426 13.1936L11.8563 13.2245C11.6028 13.3152 11.3161 13.3667 10.9499 13.3667C9.23782 13.3667 7.8499 11.9787 7.8499 10.2667Z" fill="url(#paint0_linear_488_453)"/>
<defs>
<linearGradient id="paint0_linear_488_453" x1="0.0498047" y1="7.93319" x2="15.8499" y2="7.93319" gradientUnits="userSpaceOnUse">
<stop stop-color="#2FFFFF"/>
<stop offset="0.27" stop-color="#2AE7FF"/>
<stop offset="0.82" stop-color="#1EAAFF"/>
<stop offset="1" stop-color="#1A95FF"/>
</linearGradient>
</defs>
</svg>
