<svg width="16" height="16" viewBox="0 0 16 16" fill="none" xmlns="http://www.w3.org/2000/svg">
<path fill-rule="evenodd" clip-rule="evenodd" d="M2.34806 3.18608C2.81961 3.02889 3.3293 3.28374 3.48648 3.75529L3.49773 3.78903C3.82897 4.73556 4.25215 5.64605 4.76004 6.50631C5.31145 5.31174 6.50398 4.47432 7.8969 4.43481C10.0092 3.98644 12.1951 3.99285 14.3053 4.45402C14.7909 4.56015 15.0986 5.03983 14.9924 5.52542C14.8863 6.01102 14.4066 6.31864 13.921 6.21252C12.9221 5.99421 11.9038 5.89148 10.8867 5.90435C11.3144 6.4926 11.5667 7.21675 11.5667 8.00002C11.5667 8.62463 11.4063 9.21165 11.1244 9.72214C10.4566 11.761 9.36562 13.6388 7.92024 15.2315C7.5862 15.5996 7.01702 15.6272 6.64894 15.2932C6.28085 14.9591 6.25325 14.3899 6.58728 14.0219C7.27454 13.2645 7.87094 12.4342 8.367 11.548C8.24635 11.5604 8.12392 11.5667 8.00002 11.5667C6.70715 11.5667 5.57535 10.8794 4.94987 9.8502C3.56514 8.24001 2.49635 6.37967 1.79639 4.37681L1.7921 4.36453L1.79218 4.3645L1.77885 4.3245C1.62167 3.85295 1.87651 3.34326 2.34806 3.18608ZM9.55809 8.83399C9.53742 8.86506 9.51851 8.89769 9.50156 8.9318C9.18996 9.43315 8.63421 9.76668 8.00002 9.76668C7.36566 9.76668 6.80979 9.43298 6.49823 8.93141C6.48202 8.89896 6.4637 8.86723 6.44325 8.83643C6.30932 8.58751 6.23335 8.30269 6.23335 8.00002C6.23335 7.02782 7.01715 6.23996 7.98779 6.23339L8.01087 6.23338C8.98214 6.23921 9.76668 7.02736 9.76668 8.00002C9.76668 8.30171 9.69121 8.58565 9.55809 8.83399Z" fill="url(#paint0_linear_526_802)"/>
<path d="M8.00016 14.6668C11.6802 14.6668 14.6668 11.6802 14.6668 8.00016C14.6668 4.32016 11.6802 1.3335 8.00016 1.3335C4.32016 1.3335 1.3335 4.32016 1.3335 8.00016C1.3335 11.6802 4.32016 14.6668 8.00016 14.6668Z" stroke="url(#paint1_linear_526_802)" stroke-width="1.8" stroke-linecap="round" stroke-linejoin="round"/>
<defs>
<linearGradient id="paint0_linear_526_802" x1="8.37274" y1="16.3007" x2="8.37274" y2="2.36531" gradientUnits="userSpaceOnUse">
<stop stop-color="#F7598B"/>
<stop offset="1" stop-color="#F7C79D"/>
</linearGradient>
<linearGradient id="paint1_linear_526_802" x1="8" y1="15.5" x2="8" y2="0.5" gradientUnits="userSpaceOnUse">
<stop stop-color="#F7598B"/>
<stop offset="1" stop-color="#F7C79D"/>
</linearGradient>
</defs>
</svg>
