<svg width="64" height="64" viewBox="0 0 64 64" fill="none" xmlns="http://www.w3.org/2000/svg">
<path d="M57.6451 6.35721C56.198 4.92447 54.2668 4.08571 52.2319 4.00621C50.1971 3.92672 48.2063 4.61227 46.6519 5.92776L17.1825 31.4152C12.3395 32.5192 4 35.5348 4 43.1927C4.00494 47.6481 5.77704 51.9197 8.92751 55.0701C12.078 58.2206 16.3495 59.9927 20.8049 59.9977C28.4652 59.9977 31.4784 51.6582 32.5824 46.8151L58.1026 17.3084C59.4034 15.7538 60.0775 13.7697 59.9929 11.7443C59.9083 9.71893 59.0711 7.79798 57.6451 6.35721V6.35721ZM20.8049 52.9956C18.2051 52.9956 15.7117 51.9628 13.8733 50.1244C12.0349 48.286 11.0021 45.7926 11.0021 43.1927C11.0021 40.6393 15.9525 38.7908 19.5936 38.0579L25.9398 44.4041C25.2069 48.0498 23.3584 52.9956 20.8049 52.9956V52.9956ZM52.781 12.7571L38.2004 29.6157L34.3796 25.7996L51.2102 11.2447C51.4171 11.0683 51.6822 10.9752 51.9539 10.9835C52.2256 10.9918 52.4845 11.101 52.6802 11.2897C52.8759 11.4784 52.9944 11.7332 53.0126 12.0044C53.0308 12.2756 52.9474 12.5439 52.7787 12.7571H52.781Z" fill="url(#paint0_linear_914_2)"/>
<defs>
<linearGradient id="paint0_linear_914_2" x1="51.5" y1="8" x2="3.43318" y2="45.0284" gradientUnits="userSpaceOnUse">
<stop offset="0.38948" stop-color="#F8772F"/>
<stop offset="1" stop-color="#FCF39F"/>
</linearGradient>
</defs>
</svg>
