<svg width="16" height="16" viewBox="0 0 16 16" fill="none" xmlns="http://www.w3.org/2000/svg">
<path fill-rule="evenodd" clip-rule="evenodd" d="M2.28143 7.24977C2.41538 6.21839 2.82185 5.27257 3.42622 4.48688L3.46944 4.5301C3.76234 4.823 4.23721 4.823 4.5301 4.5301C4.823 4.23721 4.823 3.76234 4.5301 3.46944L4.48688 3.42622C5.27257 2.82185 6.21839 2.41538 7.24977 2.28143V2.66644C7.24977 3.08065 7.58556 3.41644 7.99977 3.41644C8.41399 3.41644 8.74977 3.08065 8.74977 2.66644V2.28143C9.78115 2.41538 10.727 2.82185 11.5127 3.42623L11.4695 3.46935C11.1766 3.76218 11.1765 4.23706 11.4693 4.53001C11.7622 4.82295 12.2371 4.82304 12.53 4.5302L12.5733 4.48689C13.1777 5.27257 13.5842 6.2184 13.7181 7.24977H13.3331C12.9189 7.24977 12.5831 7.58556 12.5831 7.99977C12.5831 8.41399 12.9189 8.74977 13.3331 8.74977H13.7181C13.5842 9.78115 13.1777 10.727 12.5733 11.5127L12.53 11.4693C12.2371 11.1765 11.7622 11.1766 11.4693 11.4695C11.1765 11.7625 11.1766 12.2374 11.4695 12.5302L11.5127 12.5733C10.54 13.3216 9.32183 13.7664 7.99977 13.7664C6.67778 13.7664 5.45968 13.3216 4.48701 12.5734L4.53025 12.5302C4.8232 12.2374 4.82328 11.7625 4.53044 11.4695C4.2376 11.1766 3.76273 11.1765 3.46978 11.4693L3.42632 11.5128C2.82189 10.7271 2.41539 9.78121 2.28143 8.74977H2.66644C3.08065 8.74977 3.41644 8.41399 3.41644 7.99977C3.41644 7.58556 3.08065 7.24977 2.66644 7.24977H2.28143ZM0.433105 7.99977C0.433105 3.82082 3.82082 0.433105 7.99977 0.433105C12.1787 0.433105 15.5664 3.82082 15.5664 7.99977C15.5664 12.1787 12.1787 15.5664 7.99977 15.5664C3.82082 15.5664 0.433105 12.1787 0.433105 7.99977ZM5.94278 6.55722L6.08775 5.82136C5.84246 5.77304 5.58922 5.85011 5.41245 6.02689C5.23567 6.20368 5.1586 6.45692 5.20693 6.70221L5.94278 6.55722ZM5.94278 6.55722C6.08775 5.82136 6.08788 5.82139 6.08801 5.82141L6.08833 5.82148L6.08911 5.82163L6.09133 5.82207L6.09831 5.82348L6.12213 5.82837C6.14227 5.83256 6.17083 5.83862 6.20688 5.84655C6.27894 5.86242 6.38121 5.88587 6.50628 5.91703C6.75567 5.97915 7.09959 6.0729 7.47763 6.19968C8.19753 6.44111 9.17719 6.84529 9.79916 7.46726C10.2941 7.96221 10.5635 8.53938 10.5878 9.12543C10.6119 9.70752 10.39 10.2418 10.0087 10.6231C9.62737 11.0044 9.09313 11.2263 8.51104 11.2022C7.92499 11.1779 7.34782 10.9085 6.85288 10.4135C6.23092 9.79158 5.82673 8.81194 5.58528 8.09206C5.45849 7.71402 5.36473 7.37011 5.3026 7.12073C5.27144 6.99566 5.24799 6.89339 5.23213 6.82134C5.22419 6.78528 5.21813 6.75673 5.21394 6.73658L5.20904 6.71276L5.20764 6.70579L5.2072 6.70357L5.20704 6.70278L5.20698 6.70247C5.20696 6.70233 5.20693 6.70221 5.94278 6.55722ZM7.91354 9.35288C7.5595 8.99884 7.24482 8.32038 7.01084 7.62524C7.70599 7.85922 8.38446 8.17389 8.7385 8.52792C9.01177 8.80119 9.08281 9.03589 9.08909 9.1875C9.09553 9.34307 9.03812 9.47229 8.94801 9.56239C8.85791 9.65249 8.72869 9.70991 8.57312 9.70347C8.42151 9.69719 8.18681 9.62615 7.91354 9.35288Z" fill="url(#paint0_linear_525_526)"/>
<defs>
<linearGradient id="paint0_linear_525_526" x1="14.3999" y1="0.705525" x2="0.616248" y2="14.9914" gradientUnits="userSpaceOnUse">
<stop stop-color="#FFC700"/>
<stop offset="0.551952" stop-color="#FF49AB"/>
<stop offset="1" stop-color="#BA49FF"/>
</linearGradient>
</defs>
</svg>
