<svg width="16" height="16" viewBox="0 0 16 16" fill="none" xmlns="http://www.w3.org/2000/svg">
<g clip-path="url(#clip0_508_275)">
<path d="M1 8C1 4.9359 1 3.40385 2.0248 2.4516C3.051 1.5 4.7002 1.5 8 1.5C11.2998 1.5 12.9497 1.5 13.9745 2.4516C15 3.4045 15 4.9359 15 8C15 11.0641 15 12.5961 13.9745 13.5477C12.9504 14.5 11.2998 14.5 8 14.5C4.7002 14.5 3.0503 14.5 2.0248 13.5477C1 12.5968 1 11.0641 1 8Z" stroke="url(#paint0_linear_508_275)" stroke-width="1.8"/>
<path d="M4.15361 4.22056C4.25774 4.09567 4.40721 4.01724 4.56916 4.00252C4.7311 3.98779 4.89226 4.03799 5.01721 4.14205L5.24374 4.33015C5.73851 4.74232 6.15969 5.09315 6.45082 5.41618C6.76077 5.75966 7.00202 6.15304 7.00202 6.65759C7.00202 7.1622 6.76077 7.5564 6.45082 7.89902C6.15969 8.22208 5.73851 8.57289 5.24374 8.98511L5.01721 9.17314C4.95566 9.22702 4.88396 9.26798 4.80632 9.2938C4.72869 9.31946 4.64669 9.32939 4.56516 9.32302C4.48362 9.31656 4.40421 9.29397 4.33156 9.25631C4.25892 9.21874 4.19452 9.16702 4.14216 9.1042C4.08981 9.04139 4.05055 8.96873 4.02668 8.89044C4.00282 8.81231 3.99485 8.73005 4.00323 8.6487C4.01161 8.56735 4.03618 8.48848 4.07549 8.41673C4.11479 8.34506 4.16805 8.28192 4.23212 8.23102L4.42348 8.0716C4.96241 7.62184 5.31489 7.32738 5.5406 7.07718C5.75487 6.83999 5.77531 6.72794 5.77531 6.65759C5.77531 6.5873 5.75487 6.47607 5.5406 6.23806C5.31407 5.98785 4.96241 5.69263 4.42348 5.24363L4.23212 5.08416C4.10723 4.98002 4.0288 4.83055 4.01408 4.66861C3.99935 4.50667 4.04954 4.34551 4.15361 4.22056ZM12 8.70208C12 8.86478 11.9354 9.02078 11.8203 9.13582C11.7053 9.25085 11.5493 9.31549 11.3866 9.31549H8.12517C7.96253 9.31549 7.8065 9.25085 7.69147 9.13582C7.57643 9.02078 7.51182 8.86478 7.51182 8.70208C7.51182 8.53946 7.57643 8.38346 7.69147 8.26843C7.8065 8.15339 7.96253 8.08876 8.12517 8.08876H11.3866C11.5493 8.08876 11.7053 8.15339 11.8203 8.26843C11.9354 8.38346 12 8.53946 12 8.70208Z" fill="url(#paint1_linear_508_275)" stroke="url(#paint2_linear_508_275)" stroke-width="0.5"/>
</g>
<defs>
<linearGradient id="paint0_linear_508_275" x1="1" y1="8" x2="15" y2="8" gradientUnits="userSpaceOnUse">
<stop stop-color="#02AA93"/>
<stop offset="1" stop-color="#67FF80"/>
</linearGradient>
<linearGradient id="paint1_linear_508_275" x1="4" y1="6.66244" x2="12" y2="6.66244" gradientUnits="userSpaceOnUse">
<stop stop-color="#02AA93"/>
<stop offset="1" stop-color="#67FF80"/>
</linearGradient>
<linearGradient id="paint2_linear_508_275" x1="4" y1="6.66244" x2="12" y2="6.66244" gradientUnits="userSpaceOnUse">
<stop stop-color="#02AA93"/>
<stop offset="1" stop-color="#67FF80"/>
</linearGradient>
<clipPath id="clip0_508_275">
<rect width="16" height="16" fill="white"/>
</clipPath>
</defs>
</svg>
