<svg width="128" height="128" viewBox="0 0 128 128" fill="none" xmlns="http://www.w3.org/2000/svg">
<path d="M36.7016 36.4C34.4821 36.4 32.7151 38.2016 32.9355 40.4102C33.4531 45.5957 34.997 55.096 39.5993 64.6168C46.1391 77.2927 54.9875 85.7437 62.6224 89.6527C63.6575 90.1827 64.885 90.1602 65.899 89.5907C71.498 86.4462 76.8636 81.124 80.9316 75.7852C82.8057 73.3256 80.9443 69.998 77.8521 69.998H60.8694C59.9193 69.998 58.9932 69.6673 58.3006 69.017C53.8687 64.855 50.2823 59.0006 48.6292 51.9977C48.0816 49.6781 49.9545 47.598 52.3378 47.598H112.152C114.697 47.598 116.596 49.9436 115.955 52.4063C112.374 66.1813 106.179 79.66 100.247 87.6373C91.0765 99.9566 78.6494 109.365 64.4185 114.764C64.3562 114.788 64.29 114.8 64.2233 114.8V114.8C64.1516 114.8 64.0797 114.786 64.0134 114.758C40.2546 105.007 27.4623 89.6705 19.0171 72.3689C13.9722 62.0436 8.71383 43.8863 8.00173 19.5946C7.92023 14 10.7244 14 13.5285 14H114.477C117.281 14 120.085 14 119.998 19.7739C119.853 24.1839 119.527 28.514 119.022 32.9274C118.794 34.918 117.094 36.4 115.09 36.4H36.7016Z" fill="url(#paint0_linear_820_12)"/>
<defs>
<linearGradient id="paint0_linear_820_12" x1="64" y1="114.8" x2="64" y2="14" gradientUnits="userSpaceOnUse">
<stop stop-color="#FD5900"/>
<stop offset="1" stop-color="#FFDE00"/>
</linearGradient>
</defs>
</svg>
