<svg width="16" height="16" viewBox="0 0 16 16" fill="none" xmlns="http://www.w3.org/2000/svg">
<path fill-rule="evenodd" clip-rule="evenodd" d="M7.99993 2.23311C5.55147 2.23311 3.5666 4.21798 3.5666 6.66644C3.5666 9.1149 5.55147 11.0998 7.99993 11.0998C10.4484 11.0998 12.4333 9.1149 12.4333 6.66644C12.4333 4.21798 10.4484 2.23311 7.99993 2.23311ZM1.7666 6.66644C1.7666 3.22387 4.55736 0.433106 7.99993 0.433107C11.4425 0.433107 14.2333 3.22387 14.2333 6.66644C14.2333 8.36044 13.5575 9.8966 12.4609 11.0201L12.8797 11.596L12.9036 11.6288L12.9036 11.6288C13.1813 12.0106 13.4254 12.3462 13.5944 12.6296C13.7619 12.9104 13.9489 13.2857 13.9352 13.7255C13.9176 14.2916 13.6484 14.8204 13.2009 15.1676C12.8533 15.4373 12.4398 15.5067 12.1141 15.5365C11.7855 15.5665 11.3706 15.5665 10.8984 15.5664L10.8579 15.5664L5.14197 15.5664L5.10147 15.5664C4.62928 15.5665 4.21437 15.5665 3.88574 15.5365C3.56011 15.5067 3.14657 15.4373 2.79897 15.1676C2.35148 14.8204 2.08222 14.2916 2.06462 13.7255C2.05095 13.2857 2.23802 12.9104 2.40549 12.6296C2.5745 12.3462 2.81856 12.0106 3.09631 11.6288L3.12013 11.596L3.53897 11.0201C2.44234 9.89661 1.7666 8.36044 1.7666 6.66644ZM4.96878 12.1144L4.57585 12.6547C4.26716 13.0792 4.07314 13.3475 3.95148 13.5515C3.9067 13.6266 3.88289 13.6755 3.87072 13.7032C3.87303 13.7091 3.87589 13.7147 3.87926 13.72C3.90882 13.7265 3.9624 13.736 4.04948 13.7439C4.28603 13.7655 4.61713 13.7664 5.14197 13.7664L10.8579 13.7664C11.3827 13.7664 11.7138 13.7655 11.9504 13.7439C12.0375 13.736 12.091 13.7265 12.1206 13.72C12.124 13.7147 12.1268 13.7091 12.1291 13.7032C12.117 13.6755 12.0932 13.6266 12.0484 13.5515C11.9267 13.3475 11.7327 13.0792 11.424 12.6547L11.0311 12.1144C10.1338 12.6147 9.10017 12.8998 7.99993 12.8998C6.8997 12.8998 5.86604 12.6147 4.96878 12.1144ZM7.99993 6.23311C7.76061 6.23311 7.5666 6.42712 7.5666 6.66644C7.5666 6.90576 7.76061 7.09977 7.99993 7.09977C8.23926 7.09977 8.43327 6.90576 8.43327 6.66644C8.43327 6.42712 8.23926 6.23311 7.99993 6.23311ZM5.7666 6.66644C5.7666 5.433 6.7665 4.43311 7.99993 4.43311C9.23337 4.43311 10.2333 5.433 10.2333 6.66644C10.2333 7.89988 9.23337 8.89977 7.99993 8.89977C6.7665 8.89977 5.7666 7.89988 5.7666 6.66644Z" fill="url(#paint0_linear_600_144)"/>
<defs>
<linearGradient id="paint0_linear_600_144" x1="7.99993" y1="15.5665" x2="7.99993" y2="0.433107" gradientUnits="userSpaceOnUse">
<stop stop-color="#EC396C"/>
<stop offset="1" stop-color="#FF709A"/>
</linearGradient>
</defs>
</svg>
