<svg width="16" height="16" viewBox="0 0 16 16" fill="none" xmlns="http://www.w3.org/2000/svg">
<path d="M8.04461 9.3999V9.16661C8.04461 8.41106 8.51131 8.01104 8.97797 7.68882C9.43353 7.3777 9.88902 6.97772 9.88902 6.24438C9.88902 5.22216 9.06683 4.3999 8.04461 4.3999C7.02239 4.3999 6.2002 5.22216 6.2002 6.24438" stroke="url(#paint0_linear_620_137)" stroke-width="1.8" stroke-linecap="round" stroke-linejoin="round"/>
<path d="M8.19775 11.6997H8.20375" stroke="url(#paint1_linear_620_137)" stroke-width="1.8" stroke-linecap="round" stroke-linejoin="round"/>
<path d="M2.92281 13.9943L3.45181 13.2662L3.45181 13.2662L2.92281 13.9943ZM2.10548 13.177L2.83359 12.648L2.83359 12.648L2.10548 13.177ZM13.9943 13.177L13.2662 12.648L13.2662 12.648L13.9943 13.177ZM13.177 13.9943L12.648 13.2662L12.648 13.2662L13.177 13.9943ZM13.177 2.10548L12.648 2.83359L12.648 2.83359L13.177 2.10548ZM13.9943 2.92281L13.2662 3.45181L13.2662 3.45181L13.9943 2.92281ZM2.92281 2.10548L3.45181 2.83359L3.45181 2.83359L2.92281 2.10548ZM2.10548 2.92281L2.83359 3.45181L2.83359 3.45181L2.10548 2.92281ZM8.0499 13.7999C6.64454 13.7999 5.66281 13.7987 4.90849 13.7169C4.17101 13.637 3.75839 13.489 3.45181 13.2662L2.3938 14.7224C3.05836 15.2053 3.82398 15.41 4.7146 15.5065C5.58839 15.6011 6.68463 15.5999 8.0499 15.5999V13.7999ZM0.499902 8.0499C0.499902 9.41517 0.498667 10.5114 0.593336 11.3852C0.689829 12.2758 0.89453 13.0414 1.37736 13.706L2.83359 12.648C2.61085 12.3414 2.46276 11.9288 2.38286 11.1913C2.30114 10.437 2.2999 9.45527 2.2999 8.0499H0.499902ZM3.45181 13.2662C3.21458 13.0939 3.00595 12.8852 2.83359 12.648L1.37736 13.706C1.66075 14.096 2.00376 14.4391 2.3938 14.7224L3.45181 13.2662ZM13.7999 8.0499C13.7999 9.45527 13.7987 10.437 13.7169 11.1913C13.637 11.9288 13.489 12.3414 13.2662 12.648L14.7224 13.706C15.2053 13.0414 15.41 12.2758 15.5065 11.3852C15.6011 10.5114 15.5999 9.41517 15.5999 8.0499H13.7999ZM8.0499 15.5999C9.41517 15.5999 10.5114 15.6011 11.3852 15.5065C12.2758 15.41 13.0414 15.2053 13.706 14.7224L12.648 13.2662C12.3414 13.489 11.9288 13.637 11.1913 13.7169C10.437 13.7987 9.45527 13.7999 8.0499 13.7999V15.5999ZM13.2662 12.648C13.0939 12.8852 12.8852 13.0939 12.648 13.2662L13.706 14.7224C14.096 14.4391 14.4391 14.096 14.7224 13.706L13.2662 12.648ZM8.0499 2.2999C9.45527 2.2999 10.437 2.30114 11.1913 2.38286C11.9288 2.46276 12.3414 2.61085 12.648 2.83359L13.706 1.37736C13.0414 0.89453 12.2758 0.689829 11.3852 0.593336C10.5114 0.498667 9.41517 0.499902 8.0499 0.499902V2.2999ZM15.5999 8.0499C15.5999 6.68463 15.6011 5.58839 15.5065 4.7146C15.41 3.82398 15.2053 3.05836 14.7224 2.3938L13.2662 3.45181C13.489 3.75839 13.637 4.17101 13.7169 4.90849C13.7987 5.66281 13.7999 6.64454 13.7999 8.0499H15.5999ZM12.648 2.83359C12.8852 3.00595 13.0939 3.21458 13.2662 3.45181L14.7224 2.3938C14.4391 2.00376 14.096 1.66075 13.706 1.37736L12.648 2.83359ZM8.0499 0.499902C6.68463 0.499902 5.58839 0.498667 4.7146 0.593336C3.82398 0.689829 3.05836 0.89453 2.3938 1.37736L3.45181 2.83359C3.75839 2.61085 4.17101 2.46276 4.90849 2.38286C5.66281 2.30114 6.64454 2.2999 8.0499 2.2999V0.499902ZM2.2999 8.0499C2.2999 6.64454 2.30114 5.66281 2.38286 4.90849C2.46276 4.17101 2.61085 3.75839 2.83359 3.45181L1.37736 2.3938C0.89453 3.05836 0.689829 3.82398 0.593336 4.7146C0.498667 5.58839 0.499902 6.68463 0.499902 8.0499H2.2999ZM2.3938 1.37736C2.00376 1.66075 1.66075 2.00376 1.37736 2.3938L2.83359 3.45181C3.00595 3.21458 3.21458 3.00595 3.45181 2.83359L2.3938 1.37736Z" fill="url(#paint2_linear_620_137)"/>
<defs>
<linearGradient id="paint0_linear_620_137" x1="6.43075" y1="9.40259" x2="11.1995" y2="6.92517" gradientUnits="userSpaceOnUse">
<stop stop-color="#2E4AFA"/>
<stop offset="1" stop-color="#8E9EFF"/>
</linearGradient>
<linearGradient id="paint1_linear_620_137" x1="7.90885" y1="11.6665" x2="8.64051" y2="11.1513" gradientUnits="userSpaceOnUse">
<stop stop-color="#2E4AFA"/>
<stop offset="1" stop-color="#8E9EFF"/>
</linearGradient>
<linearGradient id="paint2_linear_620_137" x1="2.23115" y1="14.7071" x2="16.8276" y2="4.4287" gradientUnits="userSpaceOnUse">
<stop stop-color="#2E4AFA"/>
<stop offset="1" stop-color="#8E9EFF"/>
</linearGradient>
</defs>
</svg>
