<svg width="32" height="32" viewBox="0 0 32 32" fill="none" xmlns="http://www.w3.org/2000/svg">
<path d="M17.1429 2.18351C16.4008 1.93883 15.5999 1.93883 14.8579 2.18351L7.65513 4.55856C5.7952 5.17186 4.75126 7.14423 5.29002 9.0271L9.96545 25.3669C10.1764 26.1042 10.6144 26.7564 11.2171 27.2306L13.7445 29.2189C15.0681 30.2604 16.9327 30.2604 18.2563 29.2189L20.7837 27.2306C21.3864 26.7564 21.8244 26.1042 22.0353 25.3669L26.7107 9.0271C27.2495 7.14423 26.2056 5.17186 24.3457 4.55856L17.1429 2.18351Z" stroke="url(#paint0_linear_1011_542)" stroke-width="3"/>
<path d="M16.6444 5.31185C16.309 4.89517 15.6741 4.89621 15.3401 5.31401L13.8739 7.14819C13.7399 7.31574 13.6756 7.52837 13.694 7.7421L14.8136 20.7108C14.828 20.8773 14.892 21.0357 14.9973 21.1656L15.3499 21.6003C15.6843 22.0125 16.3131 22.0128 16.6479 21.601L16.9933 21.1762C17.0988 21.0464 17.163 20.8878 17.1775 20.7212L18.3057 7.74702C18.3243 7.53218 18.2593 7.31843 18.1241 7.15044L16.6444 5.31185ZM12.8608 21.7361C12.4754 21.6691 12.095 21.8783 11.9453 22.2397L11.8527 22.463C11.7675 22.6686 11.7679 22.8998 11.8536 23.1052L11.9511 23.3386C12.1019 23.6996 12.4829 23.9078 12.8681 23.8397L14.387 23.5712C14.5945 23.5345 14.779 23.4171 14.9002 23.2447C15.0932 22.9702 15.0935 22.6041 14.9011 22.3292C14.7794 22.1555 14.5935 22.0373 14.3845 22.0009L12.8608 21.7361ZM20.0548 22.2397C19.905 21.8783 19.5247 21.6691 19.1393 21.7361L17.6155 22.0009C17.4065 22.0373 17.2206 22.1555 17.0989 22.3292C16.9065 22.6041 16.9068 22.9702 17.0998 23.2447C17.2209 23.4171 17.4055 23.5345 17.613 23.5712L19.1319 23.8397C19.5171 23.9078 19.8981 23.6996 20.0488 23.3386L20.1464 23.1052C20.2322 22.8998 20.2325 22.6686 20.1472 22.463L20.0548 22.2397ZM16.4601 23.8883C16.1858 23.6955 15.8196 23.6958 15.5451 23.8883C15.3723 24.0095 15.2543 24.1945 15.2176 24.4025L14.9492 25.9216C14.8811 26.3072 15.0897 26.6883 15.4511 26.8389L15.684 26.9358C15.8892 27.0212 16.12 27.0214 16.3254 26.9363L16.5488 26.8437C16.9104 26.6939 17.1196 26.3133 17.0523 25.9278L16.7862 24.4025C16.75 24.1946 16.6326 24.0097 16.4601 23.8883Z" fill="url(#paint1_linear_1011_542)"/>
<defs>
<linearGradient id="paint0_linear_1011_542" x1="16.0689" y1="36.9395" x2="16.0689" y2="4.5947" gradientUnits="userSpaceOnUse">
<stop stop-color="#FDA700"/>
<stop offset="1" stop-color="#FFDE00"/>
</linearGradient>
<linearGradient id="paint1_linear_1011_542" x1="16.0252" y1="31.6668" x2="16.0252" y2="6.65567" gradientUnits="userSpaceOnUse">
<stop stop-color="#FDA700"/>
<stop offset="1" stop-color="#FFDE00"/>
</linearGradient>
</defs>
</svg>
