<svg width="48" height="48" viewBox="0 0 48 48" fill="none" xmlns="http://www.w3.org/2000/svg">
<path d="M4.5 9C3.669 9 3 9.669 3 10.5V37.5C3 38.331 3.669 39 4.5 39H9C9.831 39 10.5 38.331 10.5 37.5V26.5C10.5 25.9477 10.9477 25.5 11.5 25.5H15.5C16.0523 25.5 16.5 25.9477 16.5 26.5V37.5C16.5 38.331 17.169 39 18 39H22.5C23.331 39 24 38.331 24 37.5V10.5C24 9.669 23.331 9 22.5 9H18C17.169 9 16.5 9.669 16.5 10.5V18.5C16.5 19.0523 16.0523 19.5 15.5 19.5H11.5C10.9477 19.5 10.5 19.0523 10.5 18.5V10.5C10.5 9.669 9.831 9 9 9H4.5Z" fill="url(#paint0_linear_1005_60)"/>
<path d="M27 10.5C27 9.669 27.669 9 28.5 9H33C33.831 9 34.5 9.669 34.5 10.5V18.5C34.5 19.0523 34.9477 19.5 35.5 19.5H43.5C44.331 19.5 45 20.169 45 21V24C45 24.831 44.331 25.5 43.5 25.5H35.5C34.9477 25.5 34.5 25.9477 34.5 26.5V27.5C34.5 28.0523 34.9477 28.5 35.5 28.5H43.5C44.331 28.5 45 29.169 45 30V37.5C45 38.331 44.331 39 43.5 39H28.5C27.669 39 27 38.331 27 37.5V10.5Z" fill="url(#paint1_linear_1005_60)"/>
<defs>
<linearGradient id="paint0_linear_1005_60" x1="13.5" y1="9" x2="13.5" y2="39" gradientUnits="userSpaceOnUse">
<stop stop-color="#0EEBB6"/>
<stop offset="1" stop-color="#04B6CE"/>
</linearGradient>
<linearGradient id="paint1_linear_1005_60" x1="36" y1="9" x2="36" y2="39" gradientUnits="userSpaceOnUse">
<stop stop-color="#0EEBB6"/>
<stop offset="1" stop-color="#04B6CE"/>
</linearGradient>
</defs>
</svg>
