<svg width="128" height="128" viewBox="0 0 128 128" fill="none" xmlns="http://www.w3.org/2000/svg">
<path d="M60.2185 8.12825C29.4091 10.212 6.04748 36.9661 8.13119 67.7727C10.2122 98.5822 36.9663 121.955 67.7757 119.871C98.585 117.788 121.955 91.0249 119.871 60.2155C117.788 29.4089 91.0277 6.04454 60.2185 8.12825ZM60.7727 16.324C87.152 14.5399 109.892 34.3913 111.677 60.7719C113.276 84.4213 97.479 105.149 75.1834 110.47C75.2801 110.102 75.356 109.714 75.4225 109.313C76.0119 107.283 76.3694 104.255 76.1522 103.997C75.5585 103.292 78.5459 95.924 79.9669 94.588C81.8497 92.8181 82.7361 88.8453 82.2056 84.5739C81.8117 81.4026 82.0165 79.7535 83.3764 75.1295C84.4292 71.5495 85.5091 68.9975 86.3708 68.049C87.1123 67.2329 88.5141 64.964 89.4777 63.0107C91.325 59.266 94.9351 55.2116 97.178 54.3683C99.425 53.5232 101.48 50.082 101.269 47.5137C101.018 44.4873 100.161 43.2277 98.7836 43.8739C97.9848 44.2489 97.4423 44.108 96.688 43.321C95.7973 42.3909 95.6389 42.4346 95.409 43.6819C95.2645 44.4655 94.743 45.1474 94.2499 45.1839C93.5533 45.2357 93.5966 44.687 94.4541 42.7517C95.0613 41.3816 95.5391 39.231 95.5199 37.9712C95.4867 35.7404 93.5337 30.6018 92.6107 30.3294C92.3572 30.2545 90.4517 31.7083 88.386 33.548C82.8241 38.5016 74.0821 44.7705 72.5668 44.892C71.8378 44.9507 70.4591 44.8374 69.5056 44.6446C67.7518 44.2901 65.1093 45.4849 58.8614 49.4467C56.1621 51.1583 54.5429 51.6278 50.7188 51.7984C47.7795 51.9296 45.0718 52.523 43.6709 53.3471C41.5882 54.5724 41.4361 54.8227 41.8239 56.345C42.057 57.2596 43.5135 59.2645 45.0582 60.8003L47.8629 63.5951L46.1512 66.3094C45.2065 67.804 44.1596 69.9185 43.8357 71.0028C43.5117 72.087 42.253 74.0465 41.0343 75.3602C38.6845 77.8937 34.238 85.2536 32.8121 88.9607C32.4587 89.879 28.8469 92.2673 26.3506 93.4715C20.6476 86.189 16.9977 77.1683 16.325 67.2204C14.5409 40.8411 34.3926 18.1093 60.7727 16.324Z" fill="url(#paint0_linear_721_70)" stroke="url(#paint1_linear_721_70)" stroke-width="3"/>
<defs>
<linearGradient id="paint0_linear_721_70" x1="64.001" y1="7.99902" x2="64.001" y2="120" gradientUnits="userSpaceOnUse">
<stop stop-color="#00FFE0"/>
<stop offset="1" stop-color="#078AA7"/>
</linearGradient>
<linearGradient id="paint1_linear_721_70" x1="64.001" y1="7.99902" x2="64.001" y2="120" gradientUnits="userSpaceOnUse">
<stop stop-color="#00FFE0"/>
<stop offset="1" stop-color="#078AA7"/>
</linearGradient>
</defs>
</svg>
