<svg width="16" height="16" viewBox="0 0 16 16" fill="none" xmlns="http://www.w3.org/2000/svg">
<path d="M7.12516 10.9168H8.87516C10.3335 10.9168 10.9168 10.3335 10.9168 8.87516V7.12516C10.9168 5.66683 10.3335 5.0835 8.87516 5.0835H7.12516C5.66683 5.0835 5.0835 5.66683 5.0835 7.12516V8.87516C5.0835 10.3335 5.66683 10.9168 7.12516 10.9168Z" stroke="url(#paint0_linear_483_84)" stroke-width="1.3" stroke-linecap="round" stroke-linejoin="round"/>
<path fill-rule="evenodd" clip-rule="evenodd" d="M5.67246 1.5166C6.03145 1.5166 6.32246 1.80762 6.32246 2.1666V2.48134C6.32246 2.59429 6.41594 2.68464 6.52888 2.68377C6.55257 2.68359 6.57633 2.6835 6.60016 2.6835H7.1501C7.26055 2.6835 7.3501 2.59395 7.3501 2.4835V2.1666C7.3501 1.80762 7.64111 1.5166 8.0001 1.5166C8.35908 1.5166 8.6501 1.80762 8.6501 2.1666V2.4835C8.6501 2.59395 8.73964 2.6835 8.8501 2.6835H9.40016C9.42587 2.6835 9.45149 2.6836 9.47703 2.68382C9.59003 2.68476 9.68359 2.59439 9.68359 2.48138V2.1666C9.68359 1.80762 9.97461 1.5166 10.3336 1.5166C10.6926 1.5166 10.9836 1.80762 10.9836 2.1666V2.71226C10.9836 2.80258 11.0443 2.88116 11.1305 2.90809C11.6094 3.05771 12.0266 3.29072 12.3681 3.63221C12.7096 3.97367 12.9426 4.39082 13.0922 4.86967C13.1191 4.95588 13.1977 5.0166 13.288 5.0166H13.8333C14.1923 5.0166 14.4833 5.30762 14.4833 5.6666C14.4833 6.02559 14.1923 6.3166 13.8333 6.3166H13.5189C13.4059 6.3166 13.3156 6.41017 13.3165 6.52317C13.3167 6.54875 13.3168 6.57441 13.3168 6.60016V7.1501C13.3168 7.26055 13.4064 7.3501 13.5168 7.3501H13.8333C14.1923 7.3501 14.4833 7.64111 14.4833 8.0001C14.4833 8.35908 14.1923 8.6501 13.8333 8.6501H13.5168C13.4064 8.6501 13.3168 8.73964 13.3168 8.8501V9.40016C13.3168 9.42587 13.3167 9.45149 13.3165 9.47703C13.3156 9.59003 13.4059 9.68359 13.5189 9.68359H13.8333C14.1923 9.68359 14.4833 9.97461 14.4833 10.3336C14.4833 10.6926 14.1923 10.9836 13.8333 10.9836H13.2881C13.1977 10.9836 13.1192 11.0443 13.0922 11.1305C12.9426 11.6094 12.7096 12.0266 12.3681 12.3681C12.0266 12.7096 11.6094 12.9426 11.1305 13.0922C11.0443 13.1192 10.9836 13.1977 10.9836 13.2881V13.8333C10.9836 14.1923 10.6926 14.4833 10.3336 14.4833C9.97461 14.4833 9.68359 14.1923 9.68359 13.8333V13.5189C9.68359 13.4059 9.59003 13.3156 9.47703 13.3165C9.45149 13.3167 9.42587 13.3168 9.40016 13.3168H8.85596C8.7455 13.3168 8.65596 13.4064 8.65596 13.5168V13.8333C8.65596 14.1923 8.36494 14.4833 8.00596 14.4833C7.64697 14.4833 7.35596 14.1923 7.35596 13.8333V13.5168C7.35596 13.4064 7.26641 13.3168 7.15596 13.3168H6.60016C6.57633 13.3168 6.55257 13.3167 6.52888 13.3166C6.41594 13.3157 6.32246 13.406 6.32246 13.519V13.8333C6.32246 14.1923 6.03145 14.4833 5.67246 14.4833C5.31348 14.4833 5.02246 14.1923 5.02246 13.8333V13.2898C5.02246 13.1994 4.9616 13.1208 4.87525 13.0939C4.39405 12.9444 3.97499 12.7109 3.63221 12.3681C3.29072 12.0266 3.05771 11.6094 2.90809 11.1305C2.88116 11.0443 2.80258 10.9836 2.71226 10.9836H2.1666C1.80762 10.9836 1.5166 10.6926 1.5166 10.3336C1.5166 9.97461 1.80762 9.68359 2.1666 9.68359H2.48138C2.59439 9.68359 2.68476 9.59003 2.68382 9.47703C2.6836 9.45149 2.6835 9.42587 2.6835 9.40016V8.8501C2.6835 8.73964 2.59395 8.6501 2.4835 8.6501H2.1666C1.80762 8.6501 1.5166 8.35908 1.5166 8.0001C1.5166 7.64111 1.80762 7.3501 2.1666 7.3501H2.4835C2.59395 7.3501 2.6835 7.26055 2.6835 7.1501V6.60016C2.6835 6.57441 2.6836 6.54875 2.68382 6.52317C2.68476 6.41017 2.59439 6.3166 2.48138 6.3166H2.1666C1.80762 6.3166 1.5166 6.02559 1.5166 5.6666C1.5166 5.30762 1.80762 5.0166 2.1666 5.0166H2.7123C2.80262 5.0166 2.8812 4.95588 2.90813 4.86967C3.05775 4.39082 3.29075 3.97367 3.63221 3.63221C3.97499 3.28943 4.39405 3.05595 4.87525 2.9064C4.9616 2.87956 5.02246 2.80091 5.02246 2.71048V2.1666C5.02246 1.80762 5.31348 1.5166 5.67246 1.5166ZM8.02334 12.0168C8.01756 12.0167 8.01177 12.0166 8.00596 12.0166C8.00014 12.0166 7.99435 12.0167 7.98857 12.0168H6.60016C5.49761 12.0168 4.89491 11.7923 4.55145 11.4489C4.20799 11.1054 3.9835 10.5027 3.9835 9.40016V6.60016C3.9835 5.49761 4.20799 4.89491 4.55145 4.55145C4.89491 4.20799 5.49761 3.9835 6.60016 3.9835H9.40016C10.5027 3.9835 11.1054 4.20799 11.4489 4.55145C11.7923 4.89491 12.0168 5.49761 12.0168 6.60016V7.98271C12.0167 7.98849 12.0166 7.99429 12.0166 8.0001C12.0166 8.00591 12.0167 8.0117 12.0168 8.01748V9.40016C12.0168 10.5027 11.7923 11.1054 11.4489 11.4489C11.1054 11.7923 10.5027 12.0168 9.40016 12.0168H8.02334Z" fill="url(#paint1_linear_483_84)"/>
<defs>
<linearGradient id="paint0_linear_483_84" x1="4.99918" y1="5.1409" x2="11.0128" y2="11.3385" gradientUnits="userSpaceOnUse">
<stop stop-color="#F9D423"/>
<stop offset="0.515624" stop-color="#FF4E50"/>
<stop offset="0.991304" stop-color="#8A2387"/>
</linearGradient>
<linearGradient id="paint1_linear_483_84" x1="1.32918" y1="1.64419" x2="14.6967" y2="15.4207" gradientUnits="userSpaceOnUse">
<stop stop-color="#F9D423"/>
<stop offset="0.515624" stop-color="#FF4E50"/>
<stop offset="0.991304" stop-color="#8A2387"/>
</linearGradient>
</defs>
</svg>
