<svg width="16" height="16" viewBox="0 0 16 16" fill="none" xmlns="http://www.w3.org/2000/svg">
<path d="M13.5378 2.75254C13.4945 2.52146 13.2681 2.37169 13.0415 2.41444C12.927 2.43601 12.8118 2.44886 12.6955 2.44886C11.7995 2.44886 10.8461 1.69964 10.837 1.69216C10.7889 1.65398 9.64551 0.75 8.41008 0.75H8.40925C7.02446 0.771983 5.89853 1.97466 5.89853 3.43166V4.24771C3.99209 4.46219 2.5 6.06527 2.5 8.02812V11.4267C2.5 13.5349 4.21504 15.25 6.32335 15.25C8.43165 15.25 10.1467 13.5349 10.1467 11.4267V8.02812C10.1467 6.06527 8.65459 4.46219 6.74816 4.24771V3.43166C6.74816 2.43601 7.49906 1.61416 8.44744 1.59924C9.34354 1.59924 10.2969 2.34847 10.306 2.35594C10.3541 2.39412 11.4983 3.2985 12.6955 3.2985C12.8649 3.2985 13.0333 3.28066 13.1993 3.24914C13.4299 3.20555 13.5818 2.9832 13.5378 2.75254ZM6.32335 6.75364C6.55734 6.75364 6.74816 6.94408 6.74816 7.17846V8.0281C6.74816 8.26248 6.55734 8.4529 6.32335 8.4529C6.08935 8.4529 5.89853 8.26248 5.89853 8.0281V7.17846C5.89853 6.94408 6.08935 6.75364 6.32335 6.75364ZM9.29706 8.0281V11.4266C9.29706 13.0661 7.96289 14.4004 6.32335 14.4004C4.68381 14.4004 3.34964 13.0661 3.34964 11.4266V8.0281C3.34964 6.53405 4.46124 5.30566 5.89853 5.09731V5.98228C5.40511 6.15823 5.0489 6.62535 5.0489 7.17846V8.0281C5.0489 8.73085 5.62059 9.30254 6.32335 9.30254C7.02611 9.30254 7.59779 8.73085 7.59779 8.0281V7.17846C7.59779 6.62535 7.24156 6.15823 6.74816 5.98228V5.09731C8.18544 5.30571 9.29706 6.53405 9.29706 8.0281Z" fill="url(#paint0_linear_670_220)" stroke="url(#paint1_linear_670_220)" stroke-width="0.8"/>
<defs>
<linearGradient id="paint0_linear_670_220" x1="8.02266" y1="15.25" x2="8.02266" y2="0.75" gradientUnits="userSpaceOnUse">
<stop stop-color="#FD3D00"/>
<stop offset="1" stop-color="#FAFF00"/>
</linearGradient>
<linearGradient id="paint1_linear_670_220" x1="8.02266" y1="15.25" x2="8.02266" y2="0.75" gradientUnits="userSpaceOnUse">
<stop stop-color="#FD3D00"/>
<stop offset="1" stop-color="#FAFF00"/>
</linearGradient>
</defs>
</svg>
