<svg width="64" height="64" viewBox="0 0 64 64" fill="none" xmlns="http://www.w3.org/2000/svg">
<path d="M59.9998 27.5458L57.0855 14.0498C56.4656 11.1925 54.8828 8.63498 52.6022 6.80547C50.3216 4.97596 47.4816 3.98557 44.5579 4.00016H19.442C16.5182 3.98557 13.6783 4.97596 11.3977 6.80547C9.11703 8.63498 7.53424 11.1925 6.91432 14.0498L4.084 26.7874L4 29.7741C4.01055 32.1152 4.8355 34.3797 6.33333 36.1791V47.1667C6.33703 50.5692 7.6903 53.8312 10.0962 56.2371C12.5021 58.643 15.7642 59.9963 19.1666 60H44.8332C48.2357 59.9963 51.4977 58.643 53.9036 56.2371C56.3095 53.8312 57.6628 50.5692 57.6665 47.1667V36.1791C59.1643 34.3797 59.9893 32.1152 59.9998 29.7741V27.5458ZM11 27.9308L13.7463 15.5641C14.035 14.269 14.7567 13.111 15.7922 12.2813C16.8276 11.4516 18.1151 10.9997 19.442 11.0001H20.3333V14.5001C20.3333 15.4284 20.702 16.3186 21.3584 16.975C22.0148 17.6314 22.905 18.0001 23.8333 18.0001C24.7615 18.0001 25.6518 17.6314 26.3081 16.975C26.9645 16.3186 27.3333 15.4284 27.3333 14.5001V11.0001H36.6666V14.5001C36.6666 15.4284 37.0353 16.3186 37.6917 16.975C38.3481 17.6314 39.2383 18.0001 40.1666 18.0001V18.0001C41.0948 18.0001 41.9851 17.6314 42.6414 16.975C43.2978 16.3186 43.6666 15.4284 43.6666 14.5001V11.0001H44.5579C45.8854 10.9999 47.1733 11.4525 48.2089 12.2831C49.2445 13.1138 49.9657 14.2728 50.2535 15.5688L52.9999 27.9308V29.7741C52.9774 30.603 52.6324 31.3903 52.0382 31.9687C51.444 32.547 50.6475 32.8706 49.8184 32.8706C48.9892 32.8706 48.1928 32.547 47.5986 31.9687C47.0044 31.3903 46.6593 30.603 46.6369 29.7741C46.6523 29.0123 46.5155 28.255 46.2346 27.5467C45.9537 26.8384 45.5343 26.1932 45.0009 25.649C44.4676 25.1048 43.831 24.6725 43.1285 24.3773C42.426 24.0822 41.6717 23.9302 40.9097 23.9302C40.1477 23.9302 39.3934 24.0822 38.6909 24.3773C37.9884 24.6725 37.3519 25.1048 36.8185 25.649C36.2852 26.1932 35.8658 26.8384 35.5849 27.5467C35.304 28.255 35.1672 29.0123 35.1826 29.7741C35.1826 30.6182 34.8473 31.4277 34.2504 32.0246C33.6535 32.6214 32.844 32.9567 31.9999 32.9567C31.1558 32.9567 30.3463 32.6214 29.7494 32.0246C29.1526 31.4277 28.8173 30.6182 28.8173 29.7741C28.8326 29.0123 28.6959 28.255 28.415 27.5467C28.1341 26.8384 27.7146 26.1932 27.1813 25.649C26.648 25.1048 26.0114 24.6725 25.3089 24.3773C24.6064 24.0822 23.8521 23.9302 23.0901 23.9302C22.3281 23.9302 21.5738 24.0822 20.8713 24.3773C20.1688 24.6725 19.5322 25.1048 18.9989 25.649C18.4656 26.1932 18.0462 26.8384 17.7653 27.5467C17.4844 28.255 17.3476 29.0123 17.363 29.7741C17.3405 30.603 16.9955 31.3903 16.4013 31.9687C15.8071 32.547 15.0106 32.8706 14.1815 32.8706C13.3523 32.8706 12.5559 32.547 11.9617 31.9687C11.3675 31.3903 11.0224 30.603 11 29.7741V27.9308ZM44.8332 53H19.1666C17.6195 53 16.1358 52.3854 15.0418 51.2915C13.9479 50.1975 13.3333 48.7138 13.3333 47.1667V39.8681C13.618 39.8937 13.891 39.9544 14.1826 39.9544C16.0016 39.953 17.7871 39.4648 19.3536 38.5404C20.9202 37.616 22.2107 36.289 23.0913 34.6974C23.971 36.2896 25.2614 37.617 26.8282 38.5414C28.3949 39.4657 30.1808 39.9533 31.9999 39.9533C33.819 39.9533 35.6049 39.4657 37.1717 38.5414C38.7384 37.617 40.0288 36.2896 40.9086 34.6974C41.7891 36.289 43.0796 37.616 44.6462 38.5404C46.2128 39.4648 47.9982 39.953 49.8172 39.9544C50.1089 39.9544 50.3819 39.8937 50.6665 39.8681V47.1667C50.6665 47.9327 50.5156 48.6913 50.2225 49.399C49.9293 50.1067 49.4997 50.7498 48.958 51.2915C48.4163 51.8332 47.7733 52.2628 47.0655 52.556C46.3578 52.8491 45.5993 53 44.8332 53Z" fill="url(#paint0_linear_906_20)"/>
<defs>
<linearGradient id="paint0_linear_906_20" x1="3.19056" y1="4.55103" x2="60.9218" y2="64.0483" gradientUnits="userSpaceOnUse">
<stop stop-color="#F9D423"/>
<stop offset="0.515624" stop-color="#FF4E50"/>
<stop offset="0.991304" stop-color="#8A2387"/>
</linearGradient>
</defs>
</svg>
