<svg width="32" height="32" viewBox="0 0 32 32" fill="none" xmlns="http://www.w3.org/2000/svg">
<path d="M26.7002 12.4837C26.7002 12.5789 25.954 22.016 25.5279 25.9876C25.261 28.425 23.6898 29.9033 21.3329 29.9453C19.522 29.9859 17.7492 29.9999 16.005 29.9999C14.1533 29.9999 12.3424 29.9859 10.5846 29.9453C8.30667 29.8907 6.73405 28.383 6.4808 25.9876C6.04237 22.002 5.30985 12.5789 5.29623 12.4837C5.28262 12.1967 5.3752 11.9237 5.5631 11.7025C5.74827 11.4982 6.01514 11.375 6.29563 11.375H25.7144C25.9935 11.375 26.2468 11.4982 26.4469 11.7025C26.6335 11.9237 26.7274 12.1967 26.7002 12.4837Z" stroke="url(#paint0_linear_1005_78)" stroke-width="3"/>
<path d="M28.6004 7.5676C28.6004 6.99223 28.147 6.54144 27.6024 6.54144H23.5204C22.6898 6.54144 21.9682 5.95066 21.783 5.11769L21.5543 4.09713C21.2343 2.86377 20.1301 2 18.891 2H13.1112C11.8585 2 10.7652 2.86377 10.433 4.16432L10.2192 5.11909C10.0326 5.95066 9.31098 6.54144 8.48179 6.54144H4.39979C3.8538 6.54144 3.40039 6.99223 3.40039 7.5676V8.09959C3.40039 8.66097 3.8538 9.12575 4.39979 9.12575H27.6024C28.147 9.12575 28.6004 8.66097 28.6004 8.09959V7.5676Z" fill="url(#paint1_linear_1005_78)"/>
<path d="M17 14.6875H15C13.8954 14.6875 13 15.5829 13 16.6875V24.6875C13 25.7921 13.8954 26.6875 15 26.6875H17C18.1046 26.6875 19 25.7921 19 24.6875V16.6875C19 15.5829 18.1046 14.6875 17 14.6875Z" fill="url(#paint2_linear_1005_78)"/>
<defs>
<linearGradient id="paint0_linear_1005_78" x1="6.46273" y1="29.9999" x2="23.4503" y2="8.77069" gradientUnits="userSpaceOnUse">
<stop offset="0.106984" stop-color="#E02767"/>
<stop offset="0.871403" stop-color="#FA5D51"/>
</linearGradient>
<linearGradient id="paint1_linear_1005_78" x1="4.77493" y1="9.12575" x2="8.02065" y2="-3.35285" gradientUnits="userSpaceOnUse">
<stop offset="0.106984" stop-color="#E02767"/>
<stop offset="0.871403" stop-color="#FA5D51"/>
</linearGradient>
<linearGradient id="paint2_linear_1005_78" x1="13.3273" y1="26.6875" x2="22.7413" y2="21.5704" gradientUnits="userSpaceOnUse">
<stop offset="0.106984" stop-color="#E02767"/>
<stop offset="0.871403" stop-color="#FA5D51"/>
</linearGradient>
</defs>
</svg>
