<svg width="128" height="128" viewBox="0 0 128 128" fill="none" xmlns="http://www.w3.org/2000/svg">
<path fill-rule="evenodd" clip-rule="evenodd" d="M64 11C34.8893 11 11 34.8893 11 64C11 93.1107 34.8893 117 64 117C93.1107 117 117 93.1107 117 64C117 34.8893 93.1107 11 64 11ZM64 110.789C38.3132 110.789 17.211 89.6868 17.211 64C17.211 38.3132 38.3132 17.211 64 17.211C89.6868 17.211 110.789 38.3132 110.789 64C110.789 89.6868 89.6868 110.789 64 110.789ZM64 46C54.0759 46 46 54.0759 46 64C46 73.9241 54.0759 82 64 82C73.9241 82 82 73.9241 82 64C82 54.0759 73.9241 46 64 46ZM63.8286 76.6857C56.7394 76.6857 50.9714 70.9176 50.9714 63.8286C50.9714 56.7394 56.7394 50.9714 63.8286 50.9714C70.9176 50.9714 76.6857 56.7394 76.6857 63.8286C76.6857 70.9176 70.9176 76.6857 63.8286 76.6857ZM90.2505 89.1433C88.7551 90.4077 86.5361 89.9678 85.4393 88.3454C84.3426 86.723 84.7887 84.5353 86.2463 83.2275C88.1711 81.5004 89.8316 79.4902 91.1677 77.2605C93.1131 74.0138 94.3235 70.3803 94.7138 66.6156C95.1041 62.8509 94.6649 59.0463 93.4269 55.4696C92.5767 53.0132 91.3639 50.7052 89.8343 48.6199C88.676 47.0408 88.6882 44.8081 90.0945 43.4453C91.5007 42.0824 93.7628 42.1071 94.967 43.6514C97.193 46.506 98.9392 49.7141 100.128 53.1501C101.705 57.7058 102.265 62.5517 101.768 67.3469C101.271 72.1421 99.7288 76.7702 97.2509 80.9055C95.382 84.0245 93.0148 86.806 90.2505 89.1433Z" fill="url(#paint0_linear_935_25)"/>
<path d="M85.4393 88.3454L83.7824 89.4655L83.7824 89.4655L85.4393 88.3454ZM90.2505 89.1433L88.9592 87.6161L88.9592 87.6161L90.2505 89.1433ZM86.2463 83.2275L87.5819 84.7161L87.5819 84.7161L86.2463 83.2275ZM91.1677 77.2605L89.4521 76.2325L89.4521 76.2325L91.1677 77.2605ZM94.7138 66.6156L96.7032 66.8218L96.7032 66.8218L94.7138 66.6156ZM93.4269 55.4696L91.5369 56.1238L91.5369 56.1238L93.4269 55.4696ZM89.8343 48.6199L88.2216 49.8028L88.2216 49.8028L89.8343 48.6199ZM90.0945 43.4453L88.7026 42.0091L88.7026 42.0091L90.0945 43.4453ZM94.967 43.6514L93.3899 44.8812L93.3899 44.8812L94.967 43.6514ZM100.128 53.1501L98.2385 53.8042L98.2385 53.8043L100.128 53.1501ZM97.2509 80.9055L98.9665 81.9335L98.9665 81.9335L97.2509 80.9055ZM13 64C13 35.9939 35.9939 13 64 13V9C33.7847 9 9 33.7847 9 64H13ZM64 115C35.9939 115 13 92.0061 13 64H9C9 94.2153 33.7847 119 64 119V115ZM115 64C115 92.0061 92.0061 115 64 115V119C94.2153 119 119 94.2153 119 64H115ZM64 13C92.0061 13 115 35.9939 115 64H119C119 33.7847 94.2153 9 64 9V13ZM15.211 64C15.211 90.7914 37.2086 112.789 64 112.789V108.789C39.4178 108.789 19.211 88.5822 19.211 64H15.211ZM64 15.211C37.2086 15.211 15.211 37.2086 15.211 64H19.211C19.211 39.4178 39.4178 19.211 64 19.211V15.211ZM112.789 64C112.789 37.2086 90.7914 15.211 64 15.211V19.211C88.5822 19.211 108.789 39.4178 108.789 64H112.789ZM64 112.789C90.7914 112.789 112.789 90.7914 112.789 64H108.789C108.789 88.5822 88.5822 108.789 64 108.789V112.789ZM48 64C48 55.1804 55.1804 48 64 48V44C52.9713 44 44 52.9713 44 64H48ZM64 80C55.1804 80 48 72.8196 48 64H44C44 75.0287 52.9713 84 64 84V80ZM80 64C80 72.8196 72.8196 80 64 80V84C75.0287 84 84 75.0287 84 64H80ZM64 48C72.8196 48 80 55.1804 80 64H84C84 52.9713 75.0287 44 64 44V48ZM48.9714 63.8286C48.9714 72.0222 55.6348 78.6857 63.8286 78.6857V74.6857C57.844 74.6857 52.9714 69.8131 52.9714 63.8286H48.9714ZM63.8286 48.9714C55.6349 48.9714 48.9714 55.6349 48.9714 63.8286H52.9714C52.9714 57.844 57.844 52.9714 63.8286 52.9714V48.9714ZM78.6857 63.8286C78.6857 55.6348 72.0222 48.9714 63.8286 48.9714V52.9714C69.8131 52.9714 74.6857 57.844 74.6857 63.8286H78.6857ZM63.8286 78.6857C72.0222 78.6857 78.6857 72.0222 78.6857 63.8286H74.6857C74.6857 69.8131 69.8131 74.6857 63.8286 74.6857V78.6857ZM83.7824 89.4655C85.4611 91.9488 89.0271 92.7968 91.5419 90.6705L88.9592 87.6161C88.4831 88.0186 87.611 87.9868 87.0962 87.2253L83.7824 89.4655ZM84.9106 81.7389C82.8373 83.5991 82.0349 86.8805 83.7824 89.4655L87.0962 87.2253C86.6503 86.5656 86.74 85.4715 87.5819 84.7161L84.9106 81.7389ZM89.4521 76.2325C88.2191 78.2901 86.6869 80.1451 84.9106 81.7389L87.5819 84.7161C89.6554 82.8557 91.444 80.6903 92.8833 78.2884L89.4521 76.2325ZM92.7245 66.4093C92.3643 69.8834 91.2473 73.2364 89.4521 76.2325L92.8833 78.2884C94.9789 74.7911 96.2827 70.8772 96.7032 66.8218L92.7245 66.4093ZM91.5369 56.1238C92.6793 59.4244 93.0847 62.9352 92.7245 66.4093L96.7032 66.8218C97.1236 62.7665 96.6504 58.6683 95.3169 54.8155L91.5369 56.1238ZM88.2216 49.8028C89.6332 51.7271 90.7523 53.857 91.5369 56.1238L95.3169 54.8155C94.401 52.1694 93.0946 49.6832 91.447 47.437L88.2216 49.8028ZM88.7026 42.0091C86.4619 44.1806 86.5741 47.5568 88.2216 49.8028L91.447 47.437C90.7779 46.5249 90.9145 45.4357 91.4864 44.8815L88.7026 42.0091ZM96.5442 42.4215C94.5192 39.8246 90.855 39.923 88.7026 42.0091L91.4864 44.8815C92.1464 44.2418 93.0065 44.3896 93.3899 44.8812L96.5442 42.4215ZM102.018 52.4959C100.757 48.8516 98.9051 45.4492 96.5442 42.4215L93.3899 44.8812C95.4809 47.5629 97.1213 50.5765 98.2385 53.8042L102.018 52.4959ZM103.757 67.5532C104.284 62.4673 103.691 57.3278 102.018 52.4959L98.2385 53.8043C99.7198 58.0839 100.245 62.6361 99.7783 67.1407L103.757 67.5532ZM98.9665 81.9335C101.595 77.5475 103.23 72.639 103.757 67.5532L99.7783 67.1407C99.3113 71.6452 97.863 75.9928 95.5353 79.8775L98.9665 81.9335ZM91.5419 90.6705C94.4736 88.1916 96.9843 85.2415 98.9665 81.9335L95.5353 79.8775C93.7797 82.8075 91.5559 85.4204 88.9592 87.6161L91.5419 90.6705Z" fill="url(#paint1_linear_935_25)"/>
<defs>
<linearGradient id="paint0_linear_935_25" x1="64" y1="117" x2="64" y2="11" gradientUnits="userSpaceOnUse">
<stop stop-color="#00FFE0"/>
<stop offset="0.9999" stop-color="#19FFFF"/>
<stop offset="1" stop-color="#00FF85"/>
</linearGradient>
<linearGradient id="paint1_linear_935_25" x1="64" y1="117" x2="64" y2="11" gradientUnits="userSpaceOnUse">
<stop stop-color="#00FFE0"/>
<stop offset="0.9999" stop-color="#19FFFF"/>
<stop offset="1" stop-color="#00FF85"/>
</linearGradient>
</defs>
</svg>
