<svg width="128" height="128" viewBox="0 0 128 128" fill="none" xmlns="http://www.w3.org/2000/svg">
<path d="M92.5234 43L72.1523 43.0093H53.0846C51.2012 43.0093 49.7419 44.7709 49.694 46.5002C49.694 46.5002 49.6395 45.1257 49.6393 63.8179L34.3683 48.2657C33.9974 47.8879 33.4918 47.6726 32.9624 47.667L32.0664 47.6576V47.6576C31.4774 47.6576 31 48.135 31 48.724V79.4401C31 79.9435 31.4081 80.3516 31.9115 80.3516V80.3516L32.6491 80.3343C33.1697 80.322 33.665 80.1072 34.0297 79.7355L49.6393 63.8269V63.8816L49.6487 81.3998C49.8959 83.9823 51.4383 84.8604 53.1302 85L72.1797 84.9543H92.3958C95.2929 84.9543 96.1817 83.0597 96.3333 81.2993V63.8813L96.324 46.9009C96.3246 44.4532 94.6902 43.0036 92.5234 43ZM72.9635 50C73.5237 50 74.0896 50.0355 74.6497 50.1002C82.3192 51.0311 87.7993 57.9681 86.9089 65.6224L86.8813 65.8685C85.8472 73.5013 78.8191 78.8696 71.1496 77.8815C63.8464 76.8862 58.546 70.4369 59.0272 63.0977C59.5011 55.7656 65.5885 50.043 72.9635 50ZM72.7721 57C69.3888 57.105 66.4913 59.666 66.0547 63.1341C65.5797 66.9542 68.2682 70.4432 72.0885 70.9453C75.9088 71.4406 79.4205 68.7521 79.9362 64.9388L79.9544 64.8112C80.4022 60.9844 77.6656 57.5161 73.8385 57.0547C73.4804 57.0113 73.1221 56.9891 72.7721 57Z" fill="url(#paint0_linear_719_80)"/>
<path d="M10 19C8.89543 19 8 19.8954 8 21V41.3011C8.0024 43.7605 10.3287 45.7537 12.7881 45.7561C15.2527 45.7609 18.0311 43.7656 18.0335 41.3011V31.0335C18.0335 29.929 18.929 29.0335 20.0335 29.0335H30.3011C32.7656 29.0311 34.7609 26.2527 34.7561 23.7881C34.7537 21.3287 32.7605 19.0024 30.3011 19H10ZM97.6989 19C95.2395 19.0024 93.2463 21.3287 93.2439 23.7881C93.2391 26.2527 95.2344 29.0311 97.6989 29.0335H107.966C109.071 29.0335 109.966 29.929 109.966 31.0335V41.3011C109.969 43.7656 112.747 45.7608 115.212 45.7561C117.671 45.7537 119.998 43.7605 120 41.3011V21C120 19.8954 119.105 19 118 19H97.6989ZM12.7881 84.6299C10.3287 84.6323 8.0024 86.6254 8 89.0849V109.386C8 110.491 8.89543 111.386 10 111.386H30.3011C32.7605 111.384 34.7537 109.057 34.7561 106.598C34.7609 104.133 32.7656 101.355 30.3011 101.352H20.0335C18.929 101.352 18.0335 100.457 18.0335 99.3525V89.0849C18.0311 86.6203 15.2527 84.6251 12.7881 84.6299ZM115.212 84.6299C112.747 84.6252 109.969 86.6203 109.966 89.0849V99.3525C109.966 100.457 109.071 101.352 107.966 101.352H97.6989C95.2344 101.355 93.2392 104.133 93.2439 106.598C93.2463 109.057 95.2395 111.384 97.6989 111.386H118C119.105 111.386 120 110.491 120 109.386V89.0849C119.998 86.6254 117.671 84.6323 115.212 84.6299Z" fill="url(#paint1_linear_719_80)"/>
<defs>
<linearGradient id="paint0_linear_719_80" x1="30.0557" y1="43.4133" x2="68.9597" y2="105.782" gradientUnits="userSpaceOnUse">
<stop stop-color="#F9D423"/>
<stop offset="0.515624" stop-color="#FF4E50"/>
<stop offset="0.991304" stop-color="#8A2387"/>
</linearGradient>
<linearGradient id="paint1_linear_719_80" x1="6.38112" y1="19.9091" x2="99.3522" y2="136.067" gradientUnits="userSpaceOnUse">
<stop stop-color="#F9D423"/>
<stop offset="0.515624" stop-color="#FF4E50"/>
<stop offset="0.991304" stop-color="#8A2387"/>
</linearGradient>
</defs>
</svg>
