<svg width="256" height="256" viewBox="0 0 256 256" fill="none" xmlns="http://www.w3.org/2000/svg">
<path fill-rule="evenodd" clip-rule="evenodd" d="M39.5439 28.88C39.5439 18.4529 47.9968 10 58.424 10H198.136C208.564 10 217.016 18.4529 217.016 28.88V189.36C217.016 199.788 208.564 208.24 198.136 208.24H137.72C132.506 208.24 128.28 204.014 128.28 198.8C128.28 193.586 132.506 189.36 137.72 189.36H188.696C193.91 189.36 198.136 185.134 198.136 179.92V38.32C198.136 33.1065 193.91 28.88 188.696 28.88H67.864C62.6504 28.88 58.424 33.1065 58.424 38.32V99.6801C58.424 104.894 54.1975 109.12 48.984 109.12C43.7704 109.12 39.5439 104.894 39.5439 99.6801V28.88Z" fill="url(#paint0_linear_721_62)"/>
<path fill-rule="evenodd" clip-rule="evenodd" d="M147.835 36.4316H99.2857C97.0495 36.4316 95.24 39.3867 95.24 43.0396C95.24 46.6926 97.0495 49.6477 99.2857 49.6477H147.835C150.07 49.6477 151.88 46.6926 151.88 43.0396C151.88 39.3867 150.07 36.4316 147.835 36.4316ZM165.366 64.7517H100.634C97.6526 64.7517 95.24 67.7068 95.24 71.3597C95.24 75.0126 97.6526 77.9677 100.634 77.9677H165.366C168.347 77.9677 170.76 75.0126 170.76 71.3597C170.76 67.7068 168.347 64.7517 165.366 64.7517ZM101.983 93.0717H182.897C186.624 93.0717 189.64 96.0268 189.64 99.6797C189.64 103.333 186.624 106.288 182.897 106.288H101.983C98.2557 106.288 95.24 103.333 95.24 99.6797C95.24 96.0268 98.2557 93.0717 101.983 93.0717ZM81.509 61.9197H71.2109C68.8411 61.9197 66.9199 63.6807 66.9199 65.853V76.8663C66.9199 79.0386 68.8411 80.7997 71.2109 80.7997H81.509C83.8788 80.7997 85.7999 79.0386 85.7999 76.8663V65.853C85.7999 63.6807 83.8788 61.9197 81.509 61.9197ZM71.2109 36.4316H81.509C83.8788 36.4316 85.7999 38.1927 85.7999 40.365V51.3783C85.7999 53.5506 83.8788 55.3117 81.509 55.3117H71.2109C68.8411 55.3117 66.9199 53.5506 66.9199 51.3783V40.365C66.9199 38.1927 68.8411 36.4316 71.2109 36.4316Z" fill="url(#paint1_linear_721_62)"/>
<path fill-rule="evenodd" clip-rule="evenodd" d="M16.5993 148.547L71.2998 188.287C72.3869 189.025 81.4804 195.968 82.9169 195.968C89.7446 195.968 88.4724 190.908 87.7507 189.002C87.5674 188.518 87.3716 188.036 87.2249 187.541L82.4319 171.312C80.7978 165.779 85.0051 160.248 90.8477 160.248H153.055C158.147 160.248 162.264 157.067 162.264 153.133V138.896C162.255 137.952 162.008 137.021 161.54 136.152C161.072 135.284 160.391 134.496 159.535 133.836C158.68 133.175 157.667 132.654 156.555 132.301C155.444 131.948 154.254 131.771 153.055 131.782H90.9239C85.0695 131.782 80.8605 126.229 82.516 120.69L87.3564 104.496C87.4155 104.298 87.4809 104.106 87.5445 103.91C87.9427 102.678 89.2417 97.8515 85.7733 96.2177C84.0568 95.4091 82.087 96.2896 80.568 97.419C71.586 104.098 72.4391 103.514 71.4378 104.199L16.6085 143.011C16.1044 143.355 15.7 143.78 15.4225 144.257C15.145 144.734 15.0009 145.252 15 145.777C14.9991 146.302 15.1415 146.82 15.4174 147.299C15.6933 147.777 16.0963 148.201 16.5993 148.547Z" fill="url(#paint2_linear_721_62)"/>
<path fill-rule="evenodd" clip-rule="evenodd" d="M239.961 198.579L185.26 238.319C184.173 239.057 175.08 246 173.643 246C166.815 246 168.088 240.94 168.81 239.034C168.993 238.55 169.188 238.068 169.335 237.573L174.128 221.344C175.762 215.811 171.555 210.28 165.712 210.28H103.505C98.4124 210.28 94.2959 207.099 94.2959 203.165V188.928C94.3052 187.984 94.5517 187.053 95.0198 186.184C95.4877 185.316 96.1692 184.528 97.0246 183.868C97.8802 183.207 98.8929 182.686 100.005 182.333C101.116 181.98 102.306 181.803 103.505 181.814H165.636C171.491 181.814 175.7 176.261 174.044 170.722L169.203 154.528C169.145 154.33 169.08 154.138 169.015 153.942C168.617 152.71 167.318 147.883 170.786 146.25C172.504 145.441 174.473 146.322 175.992 147.451C184.974 154.13 184.121 153.546 185.122 154.231L239.951 193.043C240.456 193.387 240.861 193.812 241.137 194.289C241.415 194.766 241.559 195.284 241.56 195.809C241.561 196.334 241.418 196.852 241.143 197.331C240.867 197.809 240.464 198.233 239.961 198.579Z" fill="url(#paint3_linear_721_62)"/>
<defs>
<linearGradient id="paint0_linear_721_62" x1="128.28" y1="208.24" x2="128.28" y2="10" gradientUnits="userSpaceOnUse">
<stop stop-color="#FDA700"/>
<stop offset="1" stop-color="#FFDE00"/>
</linearGradient>
<linearGradient id="paint1_linear_721_62" x1="128.28" y1="106.288" x2="128.28" y2="36.4316" gradientUnits="userSpaceOnUse">
<stop stop-color="#FDA700"/>
<stop offset="1" stop-color="#FFDE00"/>
</linearGradient>
<linearGradient id="paint2_linear_721_62" x1="88.6321" y1="195.968" x2="88.6321" y2="95.9038" gradientUnits="userSpaceOnUse">
<stop stop-color="#E34E2B"/>
<stop offset="1" stop-color="#FAA21E"/>
</linearGradient>
<linearGradient id="paint3_linear_721_62" x1="167.928" y1="246" x2="167.928" y2="145.936" gradientUnits="userSpaceOnUse">
<stop stop-color="#FDA700"/>
<stop offset="1" stop-color="#FFDE00"/>
</linearGradient>
</defs>
</svg>
