<svg width="24" height="24" viewBox="0 0 24 24" fill="none" xmlns="http://www.w3.org/2000/svg">
<g clip-path="url(#clip0_945_28)">
<path opacity="0.5" d="M2 12.4999L3.752 10.9669C4.19114 10.583 4.75974 10.3802 5.34272 10.3997C5.9257 10.4192 6.47949 10.6595 6.892 11.0719L11.182 15.3619C11.5149 15.6947 11.9546 15.8995 12.4235 15.9401C12.8925 15.9807 13.3608 15.8546 13.746 15.5839L14.045 15.3739C14.6006 14.9837 15.2721 14.7935 15.9498 14.8343C16.6275 14.8752 17.2713 15.1447 17.776 15.5989L21 18.4999" stroke="url(#paint0_linear_945_28)" stroke-width="2.5" stroke-linecap="round"/>
<path d="M22 12C22 16.714 22 19.071 20.535 20.535C19.072 22 16.714 22 12 22C7.286 22 4.929 22 3.464 20.535C2 19.072 2 16.714 2 12C2 7.286 2 4.929 3.464 3.464C4.93 2 7.286 2 12 2" stroke="url(#paint1_linear_945_28)" stroke-width="2.5" stroke-linecap="round"/>
<path d="M19.9955 6.5C20.5478 6.5 21.0138 6.04342 20.8581 5.51353C20.7139 5.02282 20.4628 4.56569 20.118 4.17707C19.5498 3.53669 18.7666 3.12677 17.9166 3.02488C17.0665 2.92298 16.2086 3.13618 15.5052 3.62412C14.8017 4.11206 14.3015 4.84092 14.0992 5.67278C13.8968 6.50465 14.0064 7.38182 14.4071 8.13836C14.8079 8.89489 15.472 9.4783 16.2739 9.77821C17.0758 10.0781 17.9597 10.0737 18.7586 9.76587C19.2434 9.57905 19.6764 9.28833 20.0298 8.91866C20.4115 8.51946 20.2073 7.89986 19.7167 7.64619V7.64619C19.2261 7.39252 18.6155 7.63301 18.1119 7.85965C18.087 7.87085 18.0617 7.88139 18.0362 7.89125C17.6959 8.0224 17.3193 8.02427 16.9777 7.89651C16.6361 7.76875 16.3532 7.52021 16.1825 7.19793C16.0117 6.87565 15.9651 6.50198 16.0513 6.14761C16.1374 5.79324 16.3505 5.48275 16.6502 5.27488C16.9499 5.06702 17.3153 4.9762 17.6775 5.01961C18.0396 5.06302 18.3732 5.23764 18.6153 5.51044C18.6335 5.53095 18.6511 5.55191 18.668 5.57329C19.0113 6.00594 19.4432 6.5 19.9955 6.5V6.5Z" fill="url(#paint2_linear_945_28)"/>
</g>
<defs>
<linearGradient id="paint0_linear_945_28" x1="1.72537" y1="10.4782" x2="7.62891" y2="24.7471" gradientUnits="userSpaceOnUse">
<stop stop-color="#F9D423"/>
<stop offset="0.515624" stop-color="#FF4E50"/>
<stop offset="0.991304" stop-color="#8A2387"/>
</linearGradient>
<linearGradient id="paint1_linear_945_28" x1="1.71091" y1="2.1968" x2="22.3292" y2="23.4459" gradientUnits="userSpaceOnUse">
<stop stop-color="#F9D423"/>
<stop offset="0.515624" stop-color="#FF4E50"/>
<stop offset="0.991304" stop-color="#8A2387"/>
</linearGradient>
<linearGradient id="paint2_linear_945_28" x1="17.5" y1="10" x2="17.5" y2="3" gradientUnits="userSpaceOnUse">
<stop stop-color="#FDA700"/>
<stop offset="1" stop-color="#FFDE00"/>
</linearGradient>
<clipPath id="clip0_945_28">
<rect width="24" height="24" fill="white"/>
</clipPath>
</defs>
</svg>
