<svg width="24" height="24" viewBox="0 0 24 24" fill="none" xmlns="http://www.w3.org/2000/svg">
<path d="M11.1095 23.0001C10.9936 23 10.8785 22.9797 10.7695 22.9401C10.5593 22.8631 10.381 22.7178 10.2631 22.5274C10.1452 22.337 10.0947 22.1126 10.1195 21.8901L10.8895 14.8001H4.99956C4.81789 14.8004 4.63958 14.7512 4.48378 14.6577C4.32797 14.5643 4.20056 14.4302 4.11523 14.2698C4.0299 14.1094 3.98987 13.9288 3.99944 13.7474C4.00902 13.566 4.06783 13.3906 4.16956 13.2401L12.0595 1.4401C12.1843 1.25543 12.3672 1.11775 12.5792 1.0489C12.7912 0.980061 13.0201 0.984 13.2295 1.0601C13.4309 1.13486 13.6029 1.27248 13.7199 1.45259C13.837 1.63269 13.893 1.84571 13.8795 2.0601L13.1095 9.2001H18.9995C19.1812 9.19982 19.3595 9.24904 19.5153 9.34247C19.6711 9.4359 19.7985 9.57001 19.8839 9.73039C19.9692 9.89077 20.0092 10.0714 19.9997 10.2528C19.9901 10.4342 19.9313 10.6096 19.8295 10.7601L11.9395 22.5601C11.8478 22.6958 11.7242 22.8069 11.5794 22.8836C11.4347 22.9604 11.2733 23.0004 11.1095 23.0001ZM6.86956 12.8001H11.9995C12.1391 12.8004 12.277 12.83 12.4045 12.8868C12.5319 12.9436 12.646 13.0265 12.7395 13.1301C12.8339 13.2351 12.905 13.3589 12.9481 13.4933C12.9912 13.6278 13.0053 13.7698 12.9895 13.9101L12.5395 18.0601L17.1295 11.2001H11.9995C11.8584 11.201 11.7187 11.1719 11.5896 11.115C11.4605 11.058 11.345 10.9743 11.2505 10.8695C11.1561 10.7646 11.0849 10.641 11.0416 10.5066C10.9984 10.3723 10.984 10.2304 10.9995 10.0901L11.4495 5.9401L6.86956 12.8001Z" fill="url(#paint0_linear_935_2)"/>
<defs>
<linearGradient id="paint0_linear_935_2" x1="7.5" y1="8" x2="15.5" y2="15" gradientUnits="userSpaceOnUse">
<stop stop-color="#C8FF6F"/>
<stop offset="0.515624" stop-color="#0094FF"/>
<stop offset="0.991304" stop-color="#FF6060"/>
</linearGradient>
</defs>
</svg>
