<svg width="16" height="16" viewBox="0 0 16 16" fill="none" xmlns="http://www.w3.org/2000/svg">
<path d="M8.04913 8.09588C8.18502 7.74621 8.38818 7.41524 8.61942 7.18462L11.8007 4.02358C12.612 3.22091 13.2501 3.30494 13.5674 3.42825C13.8847 3.55156 14.4121 3.9205 14.4685 5.06039L14.6802 9.54009C14.7138 10.2016 14.3841 11.0498 13.9127 11.515L10.7289 14.6825C9.92658 15.4813 9.27946 15.4012 8.96217 15.2779C8.64489 15.1546 8.11748 14.7856 8.06112 13.6457L7.85188 9.15956C7.83311 8.82432 7.91072 8.45201 8.04913 8.09588ZM13.5142 10.2198C13.5998 9.99966 13.6504 9.7734 13.6396 9.59031L13.4279 5.11061C13.4001 4.64516 13.2741 4.43224 13.1899 4.39953C13.1058 4.36681 12.8626 4.43629 12.5368 4.75686L9.35554 7.9179C9.09876 8.17586 8.87983 8.73921 8.89501 9.10286L9.10425 13.589C9.12557 14.052 9.25799 14.2674 9.34217 14.3001C9.42635 14.3328 9.66949 14.2634 9.99783 13.9363L13.1791 10.7753C13.3042 10.645 13.4286 10.44 13.5142 10.2198Z" fill="url(#paint0_linear_593_78)"/>
<path d="M4.35114 6.81526C4.44676 6.5692 4.59419 6.34327 4.78839 6.15043L8.45262 2.51376C9.00321 1.96005 10.0164 1.75013 10.7481 2.03449C11.0136 2.13767 11.1482 2.44339 11.045 2.70887C10.9419 2.97436 10.6362 3.10895 10.3707 3.00577C10.0145 2.86737 9.4545 2.98511 9.17974 3.25099L5.51551 6.88767C5.34433 7.05964 5.25122 7.29922 5.25883 7.54814L5.50562 12.7048C5.52225 13.0839 5.86227 13.5515 6.2184 13.6899C6.48389 13.793 6.61848 14.0988 6.51531 14.3642C6.41213 14.6297 6.10641 14.7643 5.84093 14.6611C5.10923 14.3768 4.50366 13.5377 4.46501 12.755L4.21821 7.59836C4.21168 7.32751 4.25551 7.06131 4.35114 6.81526Z" fill="url(#paint1_linear_593_78)"/>
<path d="M1.11354 5.557C1.20916 5.31094 1.35659 5.08501 1.55079 4.89217L5.21503 1.2555C5.82064 0.656098 6.72057 0.469218 7.51702 0.77875C7.78251 0.881928 7.9171 1.18765 7.81393 1.45313C7.71075 1.71861 7.39855 1.85069 7.13307 1.74751C6.72513 1.58897 6.25646 1.6826 5.94215 1.99273L2.27791 5.62941C2.10673 5.80138 2.01362 6.04096 2.02123 6.28988L2.26802 11.4465C2.29042 11.8875 2.56639 12.2705 2.98081 12.4316C3.24629 12.5348 3.38089 12.8405 3.27771 13.106C3.17453 13.3715 2.86881 13.5061 2.60333 13.4029C1.80688 13.0934 1.26932 12.3478 1.22741 11.4968L0.980616 6.3401C0.974083 6.06924 1.01791 5.80306 1.11354 5.557Z" fill="url(#paint2_linear_593_78)"/>
<path d="M8.04913 8.09588C8.18502 7.74621 8.38818 7.41524 8.61942 7.18462L11.8007 4.02358C12.612 3.22091 13.2501 3.30494 13.5674 3.42825C13.8847 3.55156 14.4121 3.9205 14.4685 5.06039L14.6802 9.54009C14.7138 10.2016 14.3841 11.0498 13.9127 11.515L10.7289 14.6825C9.92658 15.4813 9.27946 15.4012 8.96217 15.2779C8.64489 15.1546 8.11748 14.7856 8.06112 13.6457L7.85188 9.15956C7.83311 8.82432 7.91072 8.45201 8.04913 8.09588ZM13.5142 10.2198C13.5998 9.99966 13.6504 9.7734 13.6396 9.59031L13.4279 5.11061C13.4001 4.64516 13.2741 4.43224 13.1899 4.39953C13.1058 4.36681 12.8626 4.43629 12.5368 4.75686L9.35554 7.9179C9.09876 8.17586 8.87983 8.73921 8.89501 9.10286L9.10425 13.589C9.12557 14.052 9.25799 14.2674 9.34217 14.3001C9.42635 14.3328 9.66949 14.2634 9.99783 13.9363L13.1791 10.7753C13.3042 10.645 13.4286 10.44 13.5142 10.2198Z" stroke="url(#paint3_linear_593_78)"/>
<path d="M4.35114 6.81526C4.44676 6.5692 4.59419 6.34327 4.78839 6.15043L8.45262 2.51376C9.00321 1.96005 10.0164 1.75013 10.7481 2.03449C11.0136 2.13767 11.1482 2.44339 11.045 2.70887C10.9419 2.97436 10.6362 3.10895 10.3707 3.00577C10.0145 2.86737 9.4545 2.98511 9.17974 3.25099L5.51551 6.88767C5.34433 7.05964 5.25122 7.29922 5.25883 7.54814L5.50562 12.7048C5.52225 13.0839 5.86227 13.5515 6.2184 13.6899C6.48389 13.793 6.61848 14.0988 6.51531 14.3642C6.41213 14.6297 6.10641 14.7643 5.84093 14.6611C5.10923 14.3768 4.50366 13.5377 4.46501 12.755L4.21821 7.59836C4.21168 7.32751 4.25551 7.06131 4.35114 6.81526Z" stroke="url(#paint4_linear_593_78)"/>
<path d="M1.11354 5.557C1.20916 5.31094 1.35659 5.08501 1.55079 4.89217L5.21503 1.2555C5.82064 0.656098 6.72057 0.469218 7.51702 0.77875C7.78251 0.881928 7.9171 1.18765 7.81393 1.45313C7.71075 1.71861 7.39855 1.85069 7.13307 1.74751C6.72513 1.58897 6.25646 1.6826 5.94215 1.99273L2.27791 5.62941C2.10673 5.80138 2.01362 6.04096 2.02123 6.28988L2.26802 11.4465C2.29042 11.8875 2.56639 12.2705 2.98081 12.4316C3.24629 12.5348 3.38089 12.8405 3.27771 13.106C3.17453 13.3715 2.86881 13.5061 2.60333 13.4029C1.80688 13.0934 1.26932 12.3478 1.22741 11.4968L0.980616 6.3401C0.974083 6.06924 1.01791 5.80306 1.11354 5.557Z" stroke="url(#paint5_linear_593_78)"/>
<defs>
<linearGradient id="paint0_linear_593_78" x1="7.83128" y1="15.3558" x2="7.83128" y2="1.49749" gradientUnits="userSpaceOnUse">
<stop stop-color="#18AEFA"/>
<stop offset="1" stop-color="#83E1FF"/>
</linearGradient>
<linearGradient id="paint1_linear_593_78" x1="7.83128" y1="15.3558" x2="7.83128" y2="1.49749" gradientUnits="userSpaceOnUse">
<stop stop-color="#18AEFA"/>
<stop offset="1" stop-color="#83E1FF"/>
</linearGradient>
<linearGradient id="paint2_linear_593_78" x1="7.83128" y1="15.3558" x2="7.83128" y2="1.49749" gradientUnits="userSpaceOnUse">
<stop stop-color="#18AEFA"/>
<stop offset="1" stop-color="#83E1FF"/>
</linearGradient>
<linearGradient id="paint3_linear_593_78" x1="7.83128" y1="15.3558" x2="7.83128" y2="1.49749" gradientUnits="userSpaceOnUse">
<stop stop-color="#18AEFA"/>
<stop offset="1" stop-color="#83E1FF"/>
</linearGradient>
<linearGradient id="paint4_linear_593_78" x1="7.83128" y1="15.3558" x2="7.83128" y2="1.49749" gradientUnits="userSpaceOnUse">
<stop stop-color="#18AEFA"/>
<stop offset="1" stop-color="#83E1FF"/>
</linearGradient>
<linearGradient id="paint5_linear_593_78" x1="7.83128" y1="15.3558" x2="7.83128" y2="1.49749" gradientUnits="userSpaceOnUse">
<stop stop-color="#18AEFA"/>
<stop offset="1" stop-color="#83E1FF"/>
</linearGradient>
</defs>
</svg>
