<svg width="128" height="128" viewBox="0 0 128 128" fill="none" xmlns="http://www.w3.org/2000/svg">
<path d="M108.383 98.1301C107.539 97.2839 107.4 95.9745 107.95 94.9136C109.927 91.1036 110.984 86.785 110.702 82.0989C109.993 70.3089 100.679 60.328 89.077 59.067C85.6417 58.6648 82.1611 58.9984 78.8639 60.0468C75.5663 61.0953 72.526 62.8341 69.9435 65.1492C67.3611 67.4642 65.2941 70.3034 63.8789 73.4796C62.4637 76.6564 61.7324 80.0983 61.7324 83.5799C61.7324 97.2342 72.6812 108.257 86.1896 108.257C90.2397 108.257 94.0561 107.239 97.4094 105.468C98.484 104.9 99.82 105.034 100.677 105.896L112.336 117.633C114.461 119.773 117.946 119.773 120.07 117.633C122.195 115.495 122.195 111.985 120.07 109.847L108.383 98.1301ZM86.2442 97.2895C82.6329 97.2895 79.1689 95.8449 76.6152 93.2735C74.061 90.7028 72.6265 87.2156 72.6265 83.5799C72.6265 79.9435 74.061 76.4564 76.6152 73.8856C79.1689 71.3142 82.6329 69.8699 86.2442 69.8699C89.8558 69.8699 93.3197 71.3142 95.8734 73.8856C98.4271 76.4564 99.8621 79.9435 99.8621 83.5799C99.8621 87.2156 98.4271 90.7028 95.8734 93.2735C93.3197 95.8449 89.8558 97.2895 86.2442 97.2895ZM81.7067 46.7997C82.8279 48.4866 81.6508 50.7935 79.656 51.1447C77.9193 51.4505 76.2283 51.8973 74.5975 52.4703C73.57 52.8314 72.4109 52.4853 71.812 51.5754C70.8989 50.1883 68.853 50.2231 67.9875 51.6404L53.0715 76.0669C52.6232 76.8027 52.0088 77.4215 51.2781 77.8733C50.5475 78.3251 49.7212 78.5962 48.8665 78.6658C48.0118 78.7354 47.153 78.6007 46.3599 78.2732C45.5666 77.945 44.8614 77.4336 44.3018 76.7795L35.0447 65.9215C33.9118 64.5927 31.8131 64.7512 30.8926 66.2351L16.0858 90.1052C14.3972 92.7925 10.8021 93.5057 8.24203 91.6408C5.95425 89.9411 5.30053 86.7605 6.8258 84.2924L27.4158 51.1154C29.3767 47.9896 33.7888 47.6606 36.1856 50.4573L45.3718 61.2396C46.5092 62.5748 48.6193 62.4087 49.5338 60.9119L65.0009 35.5962C65.477 34.8127 66.1415 34.1627 66.9336 33.7064C67.7258 33.2503 68.619 33.0024 69.5315 32.9861C70.4434 32.9697 71.3456 33.1852 72.1531 33.6126C72.9607 34.0401 73.6478 34.6657 74.1516 35.4316L81.7067 46.7997ZM99.5755 51.5331C98.8952 52.6162 97.5273 53.0257 96.3244 52.5911C94.7784 52.0323 93.1857 51.5897 91.555 51.2718C89.629 50.8963 88.5026 48.6944 89.5452 47.0318L111.954 11.3027C113.643 8.61575 117.239 7.95765 119.744 9.82215C122.086 11.5221 122.686 14.7576 121.16 17.1705L99.5755 51.5331Z" fill="url(#paint0_linear_1005_397)" stroke="url(#paint1_linear_1005_397)" stroke-width="3"/>
<defs>
<linearGradient id="paint0_linear_1005_397" x1="64" y1="119.238" x2="64" y2="8.76217" gradientUnits="userSpaceOnUse">
<stop stop-color="#5558FF"/>
<stop offset="1" stop-color="#00C0FF"/>
</linearGradient>
<linearGradient id="paint1_linear_1005_397" x1="64" y1="119.238" x2="64" y2="8.76217" gradientUnits="userSpaceOnUse">
<stop stop-color="#5558FF"/>
<stop offset="1" stop-color="#00C0FF"/>
</linearGradient>
</defs>
</svg>
