<svg width="16" height="16" viewBox="0 0 16 16" fill="none" xmlns="http://www.w3.org/2000/svg">
<path fill-rule="evenodd" clip-rule="evenodd" d="M7.32167 1.00003L7.27616 1.00001C7.04383 0.999912 6.84884 0.999826 6.65919 1.02475C5.96013 1.11662 5.31848 1.46002 4.85427 1.99071C4.72834 2.13469 4.62025 2.29697 4.49147 2.49033L4.49146 2.49034L4.46622 2.52822C4.33572 2.72398 4.30516 2.76776 4.27545 2.80358C4.13954 2.96743 3.95902 3.08833 3.75576 3.15161C3.71132 3.16545 3.65921 3.17703 3.4285 3.22317L3.33797 3.24128L3.24081 3.26065C2.76238 3.3559 2.36373 3.43527 2.02161 3.60329C1.26811 3.97335 0.711936 4.65177 0.496834 5.46322C0.39917 5.83164 0.399528 6.23812 0.399957 6.72594L0.400015 6.82501L0.400015 9.43336L0.400015 9.47106L0.400015 9.47107C0.400004 10.2791 0.399996 10.94 0.443877 11.477C0.489297 12.033 0.586179 12.535 0.82509 13.0039C1.199 13.7378 1.79562 14.3344 2.52945 14.7083C2.99834 14.9472 3.50042 15.0441 4.05633 15.0895C4.59341 15.1334 5.25426 15.1334 6.06231 15.1334L6.10001 15.1334L9.83335 15.1334L9.87105 15.1334C10.6791 15.1334 11.34 15.1334 11.877 15.0895C12.4329 15.0441 12.935 14.9472 13.4039 14.7083C14.1377 14.3344 14.7344 13.7378 15.1083 13.0039C15.3472 12.535 15.4441 12.033 15.4895 11.477C15.5334 10.94 15.5334 10.2791 15.5333 9.47107L15.5333 9.43336L15.5333 6.82501L15.5334 6.72593C15.5338 6.23811 15.5342 5.83164 15.4365 5.46322C15.2214 4.65177 14.6653 3.97335 13.9118 3.60329C13.5696 3.43527 13.171 3.3559 12.6926 3.26065L12.5954 3.24128L12.5049 3.22317C12.2742 3.17703 12.222 3.16545 12.1776 3.15161C11.9743 3.08833 11.7938 2.96743 11.6579 2.80358C11.6282 2.76776 11.5976 2.72398 11.4671 2.52822L11.4419 2.49034C11.3131 2.29697 11.205 2.13469 11.0791 1.99072C10.6149 1.46002 9.97323 1.11662 9.27417 1.02475C9.08452 0.999826 8.88954 0.999912 8.6572 1.00001L8.61169 1.00003L7.32167 1.00003ZM6.89372 2.8094C6.9513 2.80184 7.02033 2.80003 7.32167 2.80003L8.61169 2.80003C8.91303 2.80003 8.98207 2.80184 9.03964 2.8094C9.3048 2.84425 9.54819 2.97451 9.72427 3.17581C9.76249 3.21951 9.8023 3.27595 9.96945 3.52668L9.98896 3.55596C10.0899 3.70755 10.1749 3.83513 10.2725 3.95271C10.6307 4.38469 11.1067 4.70342 11.6425 4.87025C11.7884 4.91565 11.9387 4.94566 12.1173 4.98132L12.1173 4.98132L12.1519 4.98822L12.2424 5.00633C12.87 5.13186 13.0155 5.16847 13.1183 5.21895C13.4041 5.35932 13.615 5.61665 13.6966 5.92444C13.726 6.03513 13.7333 6.18492 13.7333 6.82501L13.7333 9.43336C13.7333 10.2883 13.7326 10.8754 13.6955 11.3305C13.6591 11.7751 13.5925 12.0139 13.5045 12.1867C13.3031 12.5819 12.9819 12.9031 12.5867 13.1045C12.4139 13.1925 12.1751 13.2592 11.7305 13.2955C11.2753 13.3327 10.6883 13.3334 9.83335 13.3334L6.10001 13.3334C5.24508 13.3334 4.65801 13.3327 4.20291 13.2955C3.75831 13.2592 3.51948 13.1925 3.34663 13.1045C2.95149 12.9031 2.63024 12.5819 2.4289 12.1867C2.34083 12.0139 2.27422 11.7751 2.2379 11.3305C2.20072 10.8754 2.20002 10.2883 2.20002 9.43336L2.20002 6.82501C2.20002 6.18492 2.2074 6.03513 2.23674 5.92444C2.31833 5.61665 2.52929 5.35932 2.8151 5.21895C2.91789 5.16847 3.06332 5.13186 3.69098 5.00633L3.7815 4.98822L3.81603 4.98132L3.81603 4.98132C3.99465 4.94566 4.14498 4.91565 4.29082 4.87025C4.82668 4.70342 5.30262 4.38469 5.66091 3.95271C5.75842 3.83514 5.84341 3.70756 5.94439 3.55598L5.94439 3.55597L5.96392 3.52668C6.13107 3.27595 6.17087 3.21951 6.2091 3.17581C6.38518 2.97451 6.62856 2.84425 6.89372 2.8094ZM6.86691 8.56692C6.86691 7.95941 7.3594 7.46692 7.96691 7.46692C8.57442 7.46692 9.06691 7.95941 9.06691 8.56692C9.06691 9.17443 8.57442 9.66692 7.96691 9.66692C7.3594 9.66692 6.86691 9.17443 6.86691 8.56692ZM7.96691 5.66692C6.36528 5.66692 5.06691 6.9653 5.06691 8.56692C5.06691 10.1685 6.36528 11.4669 7.96691 11.4669C9.56854 11.4669 10.8669 10.1685 10.8669 8.56692C10.8669 6.9653 9.56854 5.66692 7.96691 5.66692Z" fill="url(#paint0_linear_508_267)"/>
<defs>
<linearGradient id="paint0_linear_508_267" x1="1.90945" y1="16.8662" x2="16.8819" y2="6.5601" gradientUnits="userSpaceOnUse">
<stop stop-color="#AE4CFF"/>
<stop offset="1" stop-color="#FFADFF"/>
</linearGradient>
</defs>
</svg>
