<svg width="64" height="64" viewBox="0 0 64 64" fill="none" xmlns="http://www.w3.org/2000/svg">
<path d="M56.7308 8.17158C55.1687 6.60947 52.6361 6.60947 51.074 8.17157L24.1207 35.1249C22.5586 36.687 20.0259 36.687 18.4638 35.1249L13.5444 30.2055C11.9823 28.6434 9.44972 28.6434 7.88762 30.2055L3.17158 34.9215C1.60948 36.4836 1.60947 39.0163 3.17156 40.5784L10.9194 48.3263L18.5316 55.9385C20.0937 57.5006 22.6263 57.5006 24.1884 55.9385L31.733 48.394L61.5147 18.6123C63.0768 17.0503 63.0768 14.5176 61.5147 12.9555L56.7308 8.17158Z" fill="url(#paint0_linear_911_49)"/>
<defs>
<linearGradient id="paint0_linear_911_49" x1="32.3432" y1="57.11" x2="32.3432" y2="7" gradientUnits="userSpaceOnUse">
<stop stop-color="#5570FF"/>
<stop offset="1" stop-color="#4DD3FF"/>
</linearGradient>
</defs>
</svg>
