<svg width="32" height="32" viewBox="0 0 32 32" fill="none" xmlns="http://www.w3.org/2000/svg">
<g clip-path="url(#clip0_1005_366)">
<path d="M30 16.0068C30 23.7192 23.7162 30 16 30C8.28378 30 2 23.7192 2 16.0068C2 8.28075 8.28378 2 16 2C23.7162 2 30 8.28075 30 16.0068Z" stroke="url(#paint0_linear_1005_366)" stroke-width="4"/>
<path d="M23.25 16.0085C23.25 16.4507 23.1107 16.8948 22.8324 17.2503C22.7801 17.32 22.5365 17.6075 22.3451 17.7946L22.2407 17.8968C20.7791 19.4464 17.1424 21.7769 15.2979 22.5236C15.2979 22.5408 14.2017 22.9846 13.6796 23H13.6101C12.8096 23 12.0614 22.5594 11.6786 21.845C11.4698 21.452 11.2784 20.3122 11.261 20.297C11.1044 19.2746 11 17.7096 11 15.9915C11 14.19 11.1044 12.5553 11.2957 11.5516C11.2957 11.5346 11.4872 10.616 11.609 10.3099C11.8004 9.86925 12.1484 9.49325 12.5834 9.25513C12.9315 9.08675 13.2969 9 13.6796 9C14.0799 9.01875 14.8281 9.27213 15.1239 9.39125C17.0727 10.1398 20.7965 12.5892 22.2234 14.0862C22.467 14.3244 22.728 14.6153 22.7976 14.6816C23.0934 15.0559 23.25 15.5151 23.25 16.0085Z" fill="url(#paint1_linear_1005_366)"/>
</g>
<defs>
<linearGradient id="paint0_linear_1005_366" x1="16" y1="2" x2="16" y2="30" gradientUnits="userSpaceOnUse">
<stop stop-color="#DC18FC"/>
<stop offset="1" stop-color="#8E1EFF"/>
</linearGradient>
<linearGradient id="paint1_linear_1005_366" x1="17.125" y1="9" x2="17.125" y2="23" gradientUnits="userSpaceOnUse">
<stop stop-color="#DC18FC"/>
<stop offset="1" stop-color="#8E1EFF"/>
</linearGradient>
<clipPath id="clip0_1005_366">
<rect width="32" height="32" fill="white"/>
</clipPath>
</defs>
</svg>
