<svg width="64" height="64" viewBox="0 0 64 64" fill="none" xmlns="http://www.w3.org/2000/svg">
<path d="M32.0018 26.4004C29.7064 26.4004 22.3169 39.3757 23.4444 41.5664C24.5719 43.757 39.4452 43.7331 40.5593 41.5664C41.6733 39.3996 34.2973 26.4015 32.0018 26.4004Z" fill="url(#paint0_linear_919_33)"/>
<path d="M32.0036 4C24.5928 4 0.737382 47.2497 4.37478 54.5536C8.01218 61.8575 56.0347 61.7733 59.6324 54.5536C63.2301 47.3339 39.4132 4 32.0036 4ZM50.11 48.2159C47.7528 52.9484 16.2893 53.0013 13.9045 48.2159C11.5196 43.4304 27.1521 15.0919 32.0072 15.0919C36.8623 15.0919 52.4671 43.4822 50.11 48.2159Z" fill="url(#paint1_linear_919_33)"/>
<defs>
<linearGradient id="paint0_linear_919_33" x1="32.0006" y1="43.2004" x2="32.0006" y2="26.4004" gradientUnits="userSpaceOnUse">
<stop stop-color="#5570FF"/>
<stop offset="1" stop-color="#4DD3FF"/>
</linearGradient>
<linearGradient id="paint1_linear_919_33" x1="32" y1="4" x2="32" y2="60" gradientUnits="userSpaceOnUse">
<stop stop-color="#DC18FC"/>
<stop offset="1" stop-color="#8E1EFF"/>
</linearGradient>
</defs>
</svg>
