<svg width="16" height="16" viewBox="0 0 16 16" fill="none" xmlns="http://www.w3.org/2000/svg">
<path d="M5.89404 3.51465C4.78947 3.51465 3.89404 4.41008 3.89404 5.51465V11.3478C3.89404 11.5689 4.07323 11.7481 4.29428 11.7481V11.7481C4.51532 11.7481 4.69451 11.9273 4.69451 12.1483V12.1483C4.69451 12.3694 4.87371 12.5486 5.09475 12.5486H8.69687C8.91792 12.5486 9.09711 12.3694 9.09711 12.1483V12.1483C9.09711 11.9273 9.2763 11.7481 9.49735 11.7481H12.3002C13.4047 11.7481 14.3002 10.8527 14.3002 9.74809V5.51465C14.3002 4.41008 13.4047 3.51465 12.3002 3.51465H5.89404Z" stroke="url(#paint0_linear_620_238)" stroke-width="1.6" stroke-linejoin="round"/>
<path d="M1 4.57386L0.99997 4.00004C0.999956 3.72388 1.22382 3.5 1.49999 3.5C1.77614 3.5 2 3.72386 2 4.00002V12.1C2 12.3209 1.82091 12.5 1.6 12.5H1.4C1.17909 12.5 1 12.3209 1 12.1V4.57386Z" fill="url(#paint1_linear_620_238)" stroke="url(#paint2_linear_620_238)" stroke-width="0.6"/>
<path fill-rule="evenodd" clip-rule="evenodd" d="M8.25 5.25C8.25 5.11193 8.13807 5 8 5C7.86193 5 7.75 5.11193 7.75 5.25V5.77507C7.75 5.90255 7.6518 6.00593 7.53317 6.05258C7.3138 6.13885 7.13898 6.3137 7.05275 6.5331C7.00613 6.65175 6.90275 6.75 6.77523 6.75H6.25C6.11193 6.75 6 6.86193 6 7C6 7.13807 6.11193 7.25 6.25 7.25H6.74415C6.8822 7.25 6.99415 7.36193 6.99415 7.5V8C6.99415 8.13807 6.8822 8.25 6.74415 8.25H6.25C6.11193 8.25 6 8.36193 6 8.5C6 8.63807 6.11193 8.75 6.25 8.75H6.7799C6.90603 8.75 7.00873 8.84623 7.05613 8.9631C7.14348 9.17855 7.31662 9.35005 7.53317 9.43522C7.6518 9.48187 7.75 9.58522 7.75 9.7127V10C7.75 10.1381 7.86193 10.25 8 10.25C8.13807 10.25 8.25 10.1381 8.25 10V9.7439C8.25 9.60583 8.36193 9.4939 8.5 9.4939H9C9.13807 9.4939 9.25 9.60583 9.25 9.7439V10C9.25 10.1381 9.36193 10.25 9.5 10.25C9.63807 10.25 9.75 10.1381 9.75 10V9.70823C9.75 9.58208 9.84627 9.47938 9.96317 9.432C10.176 9.34578 10.3459 9.17588 10.4322 8.9631C10.4795 8.84623 10.5822 8.75 10.7084 8.75H11.25C11.3881 8.75 11.5 8.63807 11.5 8.5C11.5 8.36193 11.3881 8.25 11.25 8.25H10.7442C10.6061 8.25 10.4942 8.13807 10.4942 8V7.5C10.4942 7.36193 10.6061 7.25 10.7442 7.25H11.25C11.3881 7.25 11.5 7.13807 11.5 7C11.5 6.86193 11.3881 6.75 11.25 6.75H10.713C10.5855 6.75 10.4822 6.65175 10.4355 6.5331C10.3503 6.3164 10.1788 6.14315 9.96317 6.0558C9.84627 6.00842 9.75 5.90573 9.75 5.77955V5.25C9.75 5.11193 9.63807 5 9.5 5C9.36193 5 9.25 5.11193 9.25 5.25V5.7439C9.25 5.88197 9.13807 5.9939 9 5.9939H8.5C8.36193 5.9939 8.25 5.88197 8.25 5.7439V5.25ZM7.5 8.68507C7.5 8.70032 7.50115 8.71565 7.50492 8.73042C7.54345 8.88187 7.6807 8.9939 7.84415 8.9939H9.64415C9.83745 8.9939 9.99415 8.8372 9.99415 8.6439V6.8439C9.99415 6.6811 9.88297 6.54425 9.73242 6.50513C9.71735 6.5012 9.70172 6.5 9.68612 6.5H9.25305C9.25137 6.5 9.25 6.49863 9.25 6.49695C9.25 6.49528 9.24863 6.4939 9.24695 6.4939H8.25305C8.25137 6.4939 8.25 6.49528 8.25 6.49695C8.25 6.49863 8.24863 6.5 8.24695 6.5H7.80215C7.78657 6.5 7.77095 6.5012 7.75585 6.50513C7.63292 6.53708 7.53625 6.63417 7.50492 6.75737C7.50115 6.77215 7.5 6.78745 7.5 6.80272V7.24708C7.5 7.2487 7.4987 7.25 7.49708 7.25C7.49545 7.25 7.49415 7.2513 7.49415 7.25292V8.24708C7.49415 8.2487 7.49545 8.25 7.49708 8.25C7.4987 8.25 7.5 8.2513 7.5 8.25292V8.68507Z" fill="url(#paint3_linear_620_238)" stroke="url(#paint4_linear_620_238)" stroke-width="0.6"/>
<defs>
<linearGradient id="paint0_linear_620_238" x1="9.09711" y1="3.51465" x2="9.09711" y2="12.5486" gradientUnits="userSpaceOnUse">
<stop stop-color="#BAFA52"/>
<stop offset="1" stop-color="#3F8F5B"/>
</linearGradient>
<linearGradient id="paint1_linear_620_238" x1="1.5" y1="3.5" x2="1.5" y2="12.5" gradientUnits="userSpaceOnUse">
<stop stop-color="#BAFA52"/>
<stop offset="1" stop-color="#3F8F5B"/>
</linearGradient>
<linearGradient id="paint2_linear_620_238" x1="1.5" y1="3.5" x2="1.5" y2="12.5" gradientUnits="userSpaceOnUse">
<stop stop-color="#BAFA52"/>
<stop offset="1" stop-color="#3F8F5B"/>
</linearGradient>
<linearGradient id="paint3_linear_620_238" x1="8.75" y1="5" x2="8.75" y2="10.25" gradientUnits="userSpaceOnUse">
<stop stop-color="#BAFA52"/>
<stop offset="1" stop-color="#3F8F5B"/>
</linearGradient>
<linearGradient id="paint4_linear_620_238" x1="8.75" y1="5" x2="8.75" y2="10.25" gradientUnits="userSpaceOnUse">
<stop stop-color="#BAFA52"/>
<stop offset="1" stop-color="#3F8F5B"/>
</linearGradient>
</defs>
</svg>
