<svg width="16" height="16" viewBox="0 0 16 16" fill="none" xmlns="http://www.w3.org/2000/svg">
<path d="M1.5 4H2.5V3C2.5 2.46957 2.71071 1.96086 3.08579 1.58579C3.46086 1.21071 3.96957 1 4.5 1H12.5C13.0304 1 13.5391 1.21071 13.9142 1.58579C14.2893 1.96086 14.5 2.46957 14.5 3V13C14.5 13.5304 14.2893 14.0391 13.9142 14.4142C13.5391 14.7893 13.0304 15 12.5 15H4.5C3.96957 15 3.46086 14.7893 3.08579 14.4142C2.71071 14.0391 2.5 13.5304 2.5 13V12H1.5M1.5 8H2.5M1.5 6H2.5M1.5 10H2.5" stroke="url(#paint0_linear_560_282)" stroke-width="1.8" stroke-linecap="round" stroke-linejoin="round"/>
<path fill-rule="evenodd" clip-rule="evenodd" d="M7.25 6C7.25 5.30964 7.80964 4.75 8.5 4.75C9.19036 4.75 9.75 5.30964 9.75 6C9.75 6.69036 9.19036 7.25 8.5 7.25C7.80964 7.25 7.25 6.69036 7.25 6ZM10.9628 7.67102C10.8609 7.60702 10.827 7.47112 10.8869 7.36672C11.1179 6.96411 11.25 6.49748 11.25 6C11.25 4.48122 10.0188 3.25 8.5 3.25C6.98122 3.25 5.75 4.48122 5.75 6C5.75 6.49765 5.88219 6.96443 6.11337 7.36714C6.17329 7.47152 6.1394 7.60742 6.03749 7.67144C5.86445 7.78015 5.70275 7.90865 5.55594 8.05546C5.04022 8.57118 4.75049 9.27065 4.75049 10V11C4.75049 11.4641 4.93486 11.9092 5.26305 12.2374C5.59124 12.5656 6.03636 12.75 6.50049 12.75H10.5005C10.9646 12.75 11.4097 12.5656 11.7379 12.2374C12.0661 11.9092 12.2505 11.4641 12.2505 11V10C12.2505 9.27065 11.9608 8.57118 11.445 8.05546C11.298 7.90846 11.1361 7.77982 10.9628 7.67102ZM8.5 8.75H7.50049C7.16897 8.75 6.85103 8.8817 6.6166 9.11612C6.38218 9.35054 6.25049 9.66848 6.25049 10V11C6.25049 11.0663 6.27683 11.1299 6.32371 11.1768C6.3706 11.2237 6.43418 11.25 6.50049 11.25H10.5005C10.5668 11.25 10.6304 11.2237 10.6773 11.1768C10.7241 11.1299 10.7505 11.0663 10.7505 11V10C10.7505 9.66848 10.6188 9.35054 10.3844 9.11612C10.15 8.8817 9.83201 8.75 9.50049 8.75H8.5Z" fill="url(#paint1_linear_560_282)"/>
<defs>
<linearGradient id="paint0_linear_560_282" x1="8" y1="15" x2="8" y2="1" gradientUnits="userSpaceOnUse">
<stop stop-color="#5570FF"/>
<stop offset="1" stop-color="#4DD3FF"/>
</linearGradient>
<linearGradient id="paint1_linear_560_282" x1="8.50049" y1="12.75" x2="8.50049" y2="3.25" gradientUnits="userSpaceOnUse">
<stop stop-color="#5570FF"/>
<stop offset="1" stop-color="#4DD3FF"/>
</linearGradient>
</defs>
</svg>
