<svg width="64" height="64" viewBox="0 0 64 64" fill="none" xmlns="http://www.w3.org/2000/svg">
<path fill-rule="evenodd" clip-rule="evenodd" d="M59.9464 30.2679C59.6083 24.8138 57.6817 19.5778 54.404 15.2053C51.1263 10.8329 46.6408 7.51512 41.5004 5.66099C36.3599 3.80687 30.7893 3.49744 25.4752 4.77086C20.161 6.04428 15.3356 8.84487 11.5938 12.8274C7.85204 16.81 5.35739 21.8004 4.41739 27.1835C3.47738 32.5667 4.13312 38.1072 6.30376 43.1222C8.47441 48.1372 12.0651 52.4074 16.6332 55.4064C21.2013 58.4055 26.5471 60.0023 32.0117 60H47.1248C50.524 59.9957 53.7827 58.6435 56.1863 56.2399C58.5898 53.8363 59.9421 50.5776 59.9464 47.1784V30.4871V30.2679ZM52.9528 47.1784C52.9528 48.7241 52.3388 50.2065 51.2458 51.2994C50.1529 52.3924 48.6705 53.0064 47.1248 53.0064H32.0117C29.0498 53.0047 26.1216 52.3786 23.4179 51.1692C20.7142 49.9598 18.2958 48.194 16.3204 45.9872C14.3362 43.782 12.8464 41.178 11.9511 38.3499C11.0557 35.5218 10.7753 32.5349 11.1288 29.5895C11.6866 24.9462 13.7734 20.6204 17.0604 17.2937C20.3474 13.967 24.6479 11.8285 29.2842 11.2151C30.1913 11.1019 31.1045 11.045 32.0187 11.0449C36.9052 11.0309 41.641 12.7358 45.3974 15.8611C47.5873 17.6802 49.3858 19.9242 50.6843 22.4576C51.9829 24.991 52.7546 27.7613 52.9528 30.6013V47.1784ZM26.1443 29.6943H33.1378C34.0653 29.6943 34.9547 29.3259 35.6105 28.6701C36.2662 28.0143 36.6346 27.1249 36.6346 26.1975C36.6346 25.2701 36.2662 24.3806 35.6105 23.7249C34.9547 23.0691 34.0653 22.7007 33.1378 22.7007H26.1443C25.2168 22.7007 24.3274 23.0691 23.6716 23.7249C23.0159 24.3806 22.6475 25.2701 22.6475 26.1975C22.6475 27.1249 23.0159 28.0143 23.6716 28.6701C24.3274 29.3259 25.2168 29.6943 26.1443 29.6943ZM26.1443 34.3569H42.4626C43.39 34.3569 44.2795 34.7253 44.9352 35.3811C45.591 36.0369 45.9594 36.9263 45.9594 37.8537C45.9594 38.7811 45.591 39.6706 44.9352 40.3263C44.2795 40.9821 43.39 41.3505 42.4626 41.3505H26.1443C25.2168 41.3505 24.3274 40.9821 23.6716 40.3263C23.0159 39.6706 22.6475 38.7811 22.6475 37.8537C22.6475 36.9263 23.0159 36.0369 23.6716 35.3811C24.3274 34.7253 25.2168 34.3569 26.1443 34.3569Z" fill="url(#paint0_linear_1005_2)"/>
<defs>
<linearGradient id="paint0_linear_1005_2" x1="80.0577" y1="41.1604" x2="39.8658" y2="-14.0403" gradientUnits="userSpaceOnUse">
<stop stop-color="#2AD454"/>
<stop offset="1" stop-color="#B3FF5A"/>
</linearGradient>
</defs>
</svg>
