<svg width="64" height="64" viewBox="0 0 64 64" fill="none" xmlns="http://www.w3.org/2000/svg">
<path d="M33.4387 11.9102C32.8645 11.9102 32.3579 12.2854 32.1903 12.8346L24.5775 37.7936C24.2225 38.9578 22.6079 39.0452 22.1291 37.9262L17.2348 26.484C17.0294 26.0037 16.5573 25.6922 16.0348 25.6922H5.30515C4.58432 25.6922 4 26.2765 4 26.9974V29.7585C4 30.4792 4.58432 31.0637 5.30515 31.0637H12.2762C12.7996 31.0637 13.2723 31.3763 13.4773 31.858L21.7391 51.2843C21.9439 51.7659 22.4168 52.0786 22.9401 52.0786H25.0809C25.6547 52.0786 26.1613 51.7038 26.329 51.1551L36.3952 18.2276C36.563 17.6789 37.0695 17.3041 37.6434 17.3041H53.7184C54.4393 17.3041 55.0236 16.7198 55.0236 15.9989V13.2153C55.0236 12.4945 54.4393 11.9102 53.7184 11.9102H33.4387ZM39.523 27.9797C38.4236 27.9797 37.8168 29.2559 38.5106 30.1087L45.4619 38.6519C45.8517 39.131 45.8524 39.8178 45.4635 40.2975L37.6281 49.9629C36.9365 50.816 37.5437 52.0899 38.6419 52.0899H40.3834C40.7773 52.0899 41.1501 51.912 41.3979 51.6058L47.6508 43.879C48.1731 43.2335 49.1574 43.2335 49.6799 43.879L55.9326 51.6058C56.1805 51.912 56.5534 52.0899 56.9473 52.0899H58.6924C59.79 52.0899 60.3974 50.8173 59.7071 49.9639L52.0777 40.5318C51.6901 40.0526 51.6906 39.3672 52.0792 38.8885L59.2065 30.1074C59.8989 29.2544 59.2917 27.9797 58.193 27.9797H56.4525C56.0594 27.9797 55.6871 28.157 55.4393 28.4623L49.8684 35.3229C49.3463 35.9659 48.3651 35.9662 47.8426 35.3237L42.2614 28.4615C42.0135 28.1567 41.6416 27.9797 41.2489 27.9797H39.523Z" fill="url(#paint0_linear_1005_363)" stroke="url(#paint1_linear_1005_363)" stroke-width="4"/>
<defs>
<linearGradient id="paint0_linear_1005_363" x1="32.7134" y1="52.0899" x2="32.7134" y2="11.9102" gradientUnits="userSpaceOnUse">
<stop stop-color="#FFA800"/>
<stop offset="1" stop-color="#FFF737"/>
</linearGradient>
<linearGradient id="paint1_linear_1005_363" x1="32.7134" y1="52.0899" x2="32.7134" y2="11.9102" gradientUnits="userSpaceOnUse">
<stop stop-color="#FFA800"/>
<stop offset="1" stop-color="#FFF737"/>
</linearGradient>
</defs>
</svg>
