<svg width="16" height="16" viewBox="0 0 16 16" fill="none" xmlns="http://www.w3.org/2000/svg">
<path fill-rule="evenodd" clip-rule="evenodd" d="M2.87679 1.0542C1.56413 1.0542 0.5 2.11833 0.5 3.43099V5.64618C0.5 6.95885 1.56413 8.02298 2.87679 8.02298H13.2143C14.527 8.02298 15.5911 6.95885 15.5911 5.64618V3.43099C15.5911 2.11833 14.527 1.0542 13.2143 1.0542H2.87679ZM2.3 3.43099C2.3 3.11244 2.55824 2.8542 2.87679 2.8542H13.2143C13.5329 2.8542 13.7911 3.11244 13.7911 3.43099V5.64618C13.7911 5.96474 13.5329 6.22298 13.2143 6.22298H2.87679C2.55824 6.22298 2.3 5.96474 2.3 5.64618V3.43099ZM3.0384 11.9226C3.0384 11.4001 3.46193 10.9766 3.98439 10.9766C4.50684 10.9766 4.93038 11.4001 4.93038 11.9226C4.93038 12.445 4.50684 12.8685 3.98439 12.8685C3.46193 12.8685 3.0384 12.445 3.0384 11.9226ZM3.98439 9.17656C2.46782 9.17656 1.2384 10.406 1.2384 11.9226C1.2384 13.4391 2.46782 14.6685 3.98439 14.6685C5.13547 14.6685 6.12113 13.9603 6.52936 12.9558C6.56143 12.8769 6.63663 12.8226 6.72183 12.8226H9.25306C9.36352 12.8226 9.45306 12.9121 9.45306 13.0226V13.7685C9.45306 14.2656 9.856 14.6685 10.3531 14.6685C10.8501 14.6685 11.2531 14.2656 11.2531 13.7685V13.0226C11.2531 12.9121 11.3426 12.8226 11.4531 12.8226H12.1143C12.2248 12.8226 12.3143 12.9121 12.3143 13.0226V13.7685C12.3143 14.2656 12.7173 14.6685 13.2143 14.6685C13.7114 14.6685 14.1143 14.2656 14.1143 13.7685V12.1072C14.1143 11.5081 13.6288 11.0226 13.0297 11.0226H10.3531H6.72183C6.63662 11.0226 6.56143 10.9682 6.52936 10.8893C6.12113 9.88481 5.13547 9.17656 3.98439 9.17656ZM4.72294 5.64629C5.33465 5.64629 5.83053 5.1504 5.83053 4.53869C5.83053 3.92698 5.33465 3.4311 4.72294 3.4311C4.11123 3.4311 3.61534 3.92698 3.61534 4.53869C3.61534 5.1504 4.11123 5.64629 4.72294 5.64629ZM9.15332 4.53869C9.15332 5.1504 8.65743 5.64629 8.04572 5.64629C7.43402 5.64629 6.93813 5.1504 6.93813 4.53869C6.93813 3.92698 7.43402 3.4311 8.04572 3.4311C8.65743 3.4311 9.15332 3.92698 9.15332 4.53869ZM11.3685 5.64629C11.9802 5.64629 12.4761 5.1504 12.4761 4.53869C12.4761 3.92698 11.9802 3.4311 11.3685 3.4311C10.7568 3.4311 10.2609 3.92698 10.2609 4.53869C10.2609 5.1504 10.7568 5.64629 11.3685 5.64629Z" fill="url(#paint0_linear_507_455)"/>
<defs>
<linearGradient id="paint0_linear_507_455" x1="0.5" y1="7.86137" x2="15.5911" y2="7.86137" gradientUnits="userSpaceOnUse">
<stop stop-color="#86D252"/>
<stop offset="1" stop-color="#B6F156"/>
</linearGradient>
</defs>
</svg>
