<svg width="16" height="16" viewBox="0 0 16 16" fill="none" xmlns="http://www.w3.org/2000/svg">
<path fill-rule="evenodd" clip-rule="evenodd" d="M11.8612 0.710682C12.6848 0.629844 13.4703 0.997878 14.2112 1.73871C14.952 2.47955 15.32 3.2651 15.2392 4.08864C15.1622 4.87284 14.6923 5.5016 14.2112 5.98272L13.4897 6.70422C13.4853 6.70867 13.4809 6.71307 13.4765 6.7174L9.13326 11.0606L9.1246 11.0693C9.12458 11.0693 9.12455 11.0693 9.12453 11.0693V11.0693C9.12451 11.0693 9.12448 11.0693 9.12446 11.0693C8.95439 11.2339 8.74012 11.371 8.54102 11.4711C8.34356 11.5703 8.10077 11.6634 7.85838 11.6981L5.91873 11.9752L5.91492 11.9757C5.91491 11.9757 5.91491 11.9757 5.91491 11.9757V11.9757C5.91491 11.9757 5.91491 11.9757 5.91491 11.9757C5.36662 12.0511 4.82195 11.9028 4.4336 11.516C4.04422 11.1282 3.89423 10.5824 3.9749 10.0299L3.97513 10.0283L4.25147 8.0939L4.25167 8.0925C4.28604 7.84777 4.37854 7.60352 4.47881 7.40402C4.57938 7.20393 4.7189 6.98695 4.88925 6.81661L9.22647 2.47938C9.23465 2.47081 9.24304 2.46242 9.25164 2.45422L9.96714 1.73871C10.4483 1.25759 11.077 0.787658 11.8612 0.710682ZM9.63852 4.55329C9.56866 4.43969 9.4102 4.41698 9.3159 4.51128L5.94991 7.87727C5.92693 7.90024 5.87313 7.97003 5.81905 8.07764C5.76485 8.18546 5.74153 8.2693 5.73708 8.3012L5.73674 8.30362C5.73674 8.30362 5.73674 8.30362 5.73674 8.30362V8.30362C5.73673 8.30362 5.73673 8.30362 5.73673 8.30362L5.45964 10.2433L5.45923 10.2461C5.43731 10.3954 5.48395 10.4451 5.49211 10.4532C5.50165 10.4627 5.55592 10.5106 5.7088 10.4899L5.71042 10.4897L7.64625 10.2131C7.67451 10.2091 7.75714 10.1862 7.86739 10.1308C7.97263 10.0779 8.04698 10.0235 8.07849 9.99407L11.4396 6.63297C11.5339 6.53866 11.5112 6.38019 11.3975 6.31038C10.6812 5.87036 10.0782 5.26819 9.63852 4.55329ZM12.846 5.22656C12.7891 5.28341 12.7036 5.30112 12.6301 5.26833C11.7602 4.87978 11.0659 4.18524 10.6805 3.32042C10.6478 3.24707 10.6656 3.1616 10.7224 3.10482L11.0278 2.79937C11.4231 2.40411 11.7416 2.22964 12.0078 2.20351C12.2346 2.18124 12.6025 2.2514 13.1505 2.79937C13.6985 3.34734 13.7686 3.71527 13.7464 3.94211C13.7202 4.20829 13.5458 4.5268 13.1505 4.92206L12.846 5.22656ZM1.86095 2.02285C2.83727 1.04654 4.26124 0.712093 5.96102 0.712093H7.24982C7.74688 0.712093 8.14982 1.11504 8.14982 1.61209C8.14982 2.10915 7.74688 2.51209 7.24982 2.51209H5.96102C4.43878 2.51209 3.60734 2.82205 3.13375 3.29564C2.66016 3.76923 2.3502 4.60067 2.3502 6.12291V9.98933C2.3502 11.5116 2.66016 12.343 3.13375 12.8166C3.60734 13.2902 4.43878 13.6002 5.96102 13.6002H9.82743C11.3497 13.6002 12.1811 13.2902 12.6547 12.8166C13.1283 12.343 13.4383 11.5116 13.4383 9.98933V8.70053C13.4383 8.20347 13.8412 7.80053 14.3383 7.80053C14.8353 7.80053 15.2383 8.20347 15.2383 8.70053V9.98933C15.2383 11.6891 14.9038 13.1131 13.9275 14.0894C12.9512 15.0657 11.5272 15.4002 9.82743 15.4002H5.96102C4.26124 15.4002 2.83727 15.0657 1.86095 14.0894C0.884638 13.1131 0.550195 11.6891 0.550195 9.98933V6.12291C0.550195 4.42314 0.884638 2.99917 1.86095 2.02285Z" fill="url(#paint0_linear_488_559)"/>
<defs>
<linearGradient id="paint0_linear_488_559" x1="5.56656" y1="13.6703" x2="8.77903" y2="4.27931" gradientUnits="userSpaceOnUse">
<stop stop-color="#22B4FA"/>
<stop offset="1" stop-color="#76DAFF"/>
</linearGradient>
</defs>
</svg>
