<svg width="128" height="128" viewBox="0 0 128 128" fill="none" xmlns="http://www.w3.org/2000/svg">
<path d="M71.2735 64L64 71.4026L92.9712 98.5799L100.271 91.1772L71.2735 64Z" fill="url(#paint0_linear_714_6)"/>
<path fill-rule="evenodd" clip-rule="evenodd" d="M58.2658 8.28698C60.2209 8.08905 62.1861 7.992 64.1512 8.00052C66.0198 8.00741 67.8863 8.1091 69.7449 8.30261C70.3316 8.36389 70.8815 8.61799 71.3084 9.02514C71.7353 9.43229 72.0152 9.96951 72.1043 10.5527L73.0834 16.9592C73.3328 17.0046 73.5826 17.0483 73.8324 17.0921C74.6933 17.2429 75.5545 17.3938 76.4012 17.6103C76.4151 17.6137 76.4289 17.6171 76.4428 17.6207C77.3111 17.8578 78.1587 18.1603 79.0063 18.4627L79.0064 18.4627C79.2281 18.5418 79.4499 18.6209 79.6719 18.6989L83.6823 13.6883C84.0516 13.2275 84.5635 12.9023 85.1375 12.7637C85.7115 12.6252 86.3153 12.681 86.8542 12.9226C90.3598 14.4905 93.6952 16.4122 96.8072 18.6624C97.2858 19.0085 97.6359 19.5036 97.8028 20.0701C97.9696 20.6367 97.9437 21.2426 97.7291 21.7928L95.3489 27.9076C97.0337 29.3804 98.6044 30.9699 100.068 32.663L106.224 30.2619C106.773 30.048 107.377 30.022 107.943 30.1878C108.508 30.3537 109.002 30.702 109.349 31.1786C111.602 34.2851 113.532 37.6158 115.104 41.1165C115.346 41.6554 115.401 42.2592 115.263 42.8333C115.124 43.4073 114.799 43.9192 114.338 44.2885L109.172 48.4293C109.898 50.5434 110.475 52.6984 110.901 54.8931L117.463 55.8984C118.047 55.9878 118.585 56.2685 118.992 56.6964C119.399 57.1244 119.653 57.6755 119.713 58.2631C120.101 62.08 120.096 65.927 119.697 69.7428C119.636 70.3288 119.383 70.8781 118.977 71.305C118.571 71.7318 118.035 72.0122 117.453 72.1023L111.041 73.0867C110.996 73.3343 110.953 73.5823 110.909 73.8304L110.909 73.8314L110.909 73.8324C110.758 74.6927 110.607 75.5533 110.39 76.3993L110.384 76.4241L110.38 76.4409C110.146 77.2977 109.847 78.1337 109.548 78.9698C109.464 79.2048 109.379 79.4399 109.297 79.6754L114.307 83.6912C114.767 84.0603 115.091 84.5712 115.23 85.1442C115.368 85.7171 115.313 86.3198 115.073 86.8581C113.505 90.364 111.583 93.6995 109.333 96.8117C108.987 97.2902 108.492 97.6404 107.925 97.8072C107.359 97.9741 106.753 97.9482 106.203 97.7336L100.088 95.3533C98.6164 97.0371 97.0306 98.6097 95.3384 100.072L97.7395 106.229C97.9546 106.778 97.9813 107.384 97.8154 107.95C97.6496 108.517 97.3004 109.012 96.8228 109.359C93.7147 111.612 90.3825 113.537 86.8801 115.109C86.3413 115.351 85.7375 115.407 85.1635 115.268C84.5894 115.13 84.0776 114.804 83.7083 114.344L79.5677 109.177C77.4554 109.903 75.3022 110.48 73.1094 110.906L72.099 117.469C72.0087 118.052 71.7275 118.588 71.2997 118.995C70.8718 119.401 70.3213 119.654 69.7344 119.714C65.9196 120.101 62.0743 120.096 58.2605 119.698C57.6745 119.637 57.1253 119.384 56.6984 118.978C56.2716 118.572 55.9913 118.036 55.9012 117.453L54.9168 111.042C54.6652 110.996 54.4132 110.952 54.1612 110.907C53.3025 110.757 52.4435 110.607 51.5991 110.391L51.5785 110.385L51.5575 110.38C50.6972 110.145 49.8593 109.846 49.0204 109.547L49.0203 109.547C48.7899 109.465 48.5594 109.383 48.3284 109.302L44.3128 114.312C43.9437 114.772 43.4328 115.096 42.8599 115.235C42.287 115.373 41.6843 115.318 41.1461 115.078C37.6404 113.51 34.3051 111.588 31.193 109.338C30.7145 108.992 30.3643 108.497 30.1975 107.93C30.0307 107.364 30.0566 106.758 30.2712 106.208L32.6514 100.093C30.9659 98.6208 29.3914 97.0354 27.9274 95.3428L21.7712 97.7439C21.2216 97.959 20.6161 97.9858 20.0497 97.8199C19.4832 97.654 18.9878 97.3049 18.641 96.8272C16.3878 93.7189 14.463 90.3866 12.8911 86.8841C12.6482 86.3446 12.5916 85.7396 12.7302 85.1644C12.8688 84.5893 13.1947 84.0765 13.6567 83.7068L18.8285 79.566C18.1026 77.4534 17.5245 75.3005 17.0994 73.1074L10.5369 72.1022C9.95294 72.0129 9.41515 71.7322 9.00793 71.3043C8.60071 70.8763 8.34711 70.3252 8.28692 69.7375C7.89951 65.9206 7.90412 62.0736 8.3026 58.2579C8.36361 57.6718 8.61695 57.1225 9.02305 56.6957C9.42915 56.2688 9.96515 55.9885 10.5474 55.8984L16.9588 54.914C17.004 54.6659 17.0476 54.4175 17.0912 54.1691L17.0912 54.1689C17.2422 53.3084 17.3933 52.4475 17.6099 51.6013C17.6132 51.5874 17.6166 51.5735 17.6202 51.5597C17.8534 50.7068 18.1517 49.8746 18.45 49.0424L18.45 49.0424L18.4502 49.0418C18.5351 48.8048 18.6201 48.5678 18.7035 48.3304L13.6879 44.3093C13.2283 43.9403 12.9039 43.4294 12.7654 42.8564C12.6269 42.2835 12.682 41.6808 12.9223 41.1425C14.4901 37.6367 16.4118 34.3012 18.6619 31.189C19.0079 30.7104 19.503 30.3603 20.0695 30.1934C20.636 30.0266 21.2419 30.0525 21.792 30.2671L27.9118 32.6526C29.3839 30.9687 30.9696 29.3962 32.6618 27.9336L30.2607 21.7771C30.0456 21.2275 30.0189 20.622 30.1848 20.0555C30.3507 19.489 30.6998 18.9936 31.1774 18.6468C34.2855 16.3934 37.6177 14.4686 41.1201 12.8966C41.6589 12.655 42.2627 12.5991 42.8367 12.7377C43.4108 12.8762 43.9226 13.2014 44.2919 13.6622L48.4325 18.8291C50.5448 18.1028 52.698 17.5254 54.8908 17.0999L55.9012 10.5319C55.9916 9.94883 56.2727 9.4122 56.7005 9.00599C57.1284 8.59978 57.6789 8.34691 58.2658 8.28698ZM64 104C75.008 104 84.9775 99.5534 92.2101 92.3583C92.2124 92.3564 92.2147 92.3543 92.2169 92.3521C99.4951 85.1083 104 75.0805 104 64.0005C104 43.7173 88.9032 26.9601 69.333 24.3529V55.7551C73.4641 57.6511 76.333 61.824 76.333 66.667C76.333 73.2944 70.9604 78.667 64.333 78.667C57.7056 78.667 52.333 73.2944 52.333 66.667C52.333 61.824 55.2019 57.6511 59.333 55.7551V24.2693C39.4405 26.5804 24 43.4873 24 64C24 86.0914 41.9086 104 64 104Z" fill="url(#paint1_linear_714_6)"/>
<defs>
<linearGradient id="paint0_linear_714_6" x1="99.0452" y1="64.9884" x2="86.0238" y2="99.2833" gradientUnits="userSpaceOnUse">
<stop stop-color="#FE0F7C"/>
<stop offset="1" stop-color="#DF0066"/>
</linearGradient>
<linearGradient id="paint1_linear_714_6" x1="64" y1="120.001" x2="64" y2="8" gradientUnits="userSpaceOnUse">
<stop stop-color="#5570FF"/>
<stop offset="1" stop-color="#4DD3FF"/>
</linearGradient>
</defs>
</svg>
