<svg width="32" height="32" viewBox="0 0 32 32" fill="none" xmlns="http://www.w3.org/2000/svg">
<path d="M6 1C5.44771 1 5 1.44772 5 2V20.6154H8.46154V2C8.46154 1.44772 8.01382 1 7.46154 1H6ZM10.6154 1C10.0631 1 9.61538 1.44772 9.61538 2V13.8462C9.61538 14.3984 10.0631 14.8462 10.6154 14.8462H13.0769H15.8718C16.2755 14.8462 16.6396 14.6034 16.7949 14.2308L21.7308 2.38462C22.0052 1.72593 21.5213 1 20.8077 1H19.496C19.1008 1 18.7427 1.23273 18.5822 1.59386L14.4154 10.9693C14.3031 11.2219 14.0527 11.3846 13.7763 11.3846C13.39 11.3846 13.0769 11.0715 13.0769 10.6853V2C13.0769 1.44772 12.6292 1 12.0769 1H10.6154ZM24.1483 1C23.7346 1 23.3635 1.25483 23.215 1.64102L17.8304 15.641C17.7415 15.8721 17.7415 16.1279 17.8305 16.359L19.4681 20.6154H21.2741H22.9297L21.292 16.359C21.2031 16.1279 21.2031 15.8721 21.2919 15.641L26.4004 2.35898C26.6523 1.70398 26.1688 1 25.467 1H24.1483ZM10.6154 17.1538C10.0631 17.1538 9.61538 17.6016 9.61538 18.1538V20.6154H11.5H13.0769H14.2308H16H17.9808L16.7949 17.7692C16.6396 17.3966 16.2755 17.1538 15.8718 17.1538H13.0769H10.6154Z" fill="url(#paint0_linear_390_203)"/>
<path d="M5 20.6152V29.9998C5 30.5521 5.44772 30.9998 6 30.9998H7.46154C8.01382 30.9998 8.46154 30.5521 8.46154 29.9998V20.6152H5ZM9.61538 20.6152V29.9998C9.61538 30.5521 10.0631 30.9998 10.6154 30.9998H12.0769C12.6292 30.9998 13.0769 30.5521 13.0769 29.9998V20.6152H9.61538ZM14.2308 20.6152L18.5822 30.406C18.7427 30.7671 19.1008 30.9998 19.496 30.9998H20.8077C21.5213 30.9998 22.0052 30.2739 21.7308 29.6152L17.9808 20.6152H14.2308ZM19.4681 20.6152L23.215 30.3588C23.3635 30.745 23.7346 30.9998 24.1484 30.9998H25.4671C26.1689 30.9998 26.6524 30.2959 26.4005 29.6409L22.9297 20.6152H19.4681Z" fill="url(#paint1_linear_390_203)"/>
<defs>
<linearGradient id="paint0_linear_390_203" x1="15.9615" y1="20.6154" x2="15.9615" y2="1" gradientUnits="userSpaceOnUse">
<stop stop-color="#5570FF"/>
<stop offset="1" stop-color="#4DD3FF"/>
</linearGradient>
<linearGradient id="paint1_linear_390_203" x1="9.06101" y1="18.6681" x2="13.2407" y2="37.3546" gradientUnits="userSpaceOnUse">
<stop stop-color="#FFCA64"/>
<stop offset="1" stop-color="#C70000"/>
</linearGradient>
</defs>
</svg>
