<svg width="128" height="128" viewBox="0 0 128 128" fill="none" xmlns="http://www.w3.org/2000/svg">
<path d="M63.5848 8C49.108 8 35.2242 10.1179 24.9876 13.888C14.7509 17.6579 9 22.7711 9 28.1027V99.8975C9 105.229 14.7509 110.342 24.9876 114.112C35.2242 117.882 49.108 120 63.5848 120C78.0616 120 91.9452 117.882 102.182 114.112C112.419 110.342 118.17 105.229 118.17 99.8975V28.1027C118.17 22.7711 112.419 17.6579 102.182 13.888C91.9452 10.1179 78.0616 8 63.5848 8ZM63.5848 18.0513C75.6488 18.0513 87.2193 19.1103 95.7489 20.9952C104.279 22.8802 109.072 25.4368 109.072 28.1027C109.072 30.7685 104.279 33.325 95.7489 35.21C87.2193 37.0949 75.6488 38.1539 63.5848 38.1539C51.5209 38.1539 39.951 37.0949 31.4205 35.21C22.8898 33.325 18.0975 30.7685 18.0975 28.1027C18.0975 25.4368 22.8898 22.8802 31.4205 20.9952C39.951 19.1103 51.5209 18.0513 63.5848 18.0513ZM18.0975 39.1747C23.0642 41.9466 29.818 44.2221 37.7557 45.7979C45.6933 47.3738 54.5674 48.2008 63.5848 48.2052C72.5975 48.203 81.4683 47.3789 89.4054 45.8066C97.3424 44.2342 104.099 41.9626 109.072 39.1944V64.0001C109.072 66.6659 104.279 69.2225 95.7489 71.1075C87.2193 72.9924 75.6488 74.0515 63.5848 74.0515C51.5209 74.0515 39.951 72.9924 31.4205 71.1075C22.8898 69.2225 18.0975 66.6659 18.0975 64.0001V39.1747ZM18.0975 75.0723C23.0642 77.8441 29.818 80.1196 37.7557 81.6955C45.6933 83.2713 54.5674 84.0983 63.5848 84.1026C72.5975 84.1009 81.4683 83.2765 89.4054 81.7041C97.3424 80.1318 104.099 77.8601 109.072 75.092V99.8975C109.072 102.564 104.279 105.12 95.7489 107.005C87.2193 108.89 75.6488 109.949 63.5848 109.949C51.5209 109.949 39.951 108.89 31.4205 107.005C22.8898 105.12 18.0975 102.564 18.0975 99.8975V75.0723Z" fill="url(#paint0_linear_721_73)" stroke="url(#paint1_linear_721_73)" stroke-width="4"/>
<defs>
<linearGradient id="paint0_linear_721_73" x1="63.5849" y1="120" x2="63.5849" y2="7.99999" gradientUnits="userSpaceOnUse">
<stop stop-color="#02AA93"/>
<stop offset="1" stop-color="#67FF80"/>
</linearGradient>
<linearGradient id="paint1_linear_721_73" x1="63.5849" y1="120" x2="63.5849" y2="7.99999" gradientUnits="userSpaceOnUse">
<stop stop-color="#02AA93"/>
<stop offset="1" stop-color="#67FF80"/>
</linearGradient>
</defs>
</svg>
