<svg width="16" height="16" viewBox="0 0 16 16" fill="none" xmlns="http://www.w3.org/2000/svg">
<path fill-rule="evenodd" clip-rule="evenodd" d="M3.98739 3.84501C3.84323 3.6828 3.59314 3.68146 3.44678 3.84169C2.69435 4.66538 2.17772 5.67985 1.95556 6.7781C1.70756 8.0041 1.83825 9.27652 2.33029 10.4265C2.82233 11.5765 3.65244 12.5497 4.71047 13.2169C5.63284 13.7985 6.6904 14.1237 7.77448 14.1633C8.02405 14.1724 8.20193 13.9373 8.17992 13.6886C8.13327 13.1613 8.19908 12.5468 8.51616 11.9495C8.95083 11.1302 9.85083 10.7748 10.5128 10.6122C10.9276 10.5118 11.3516 10.455 11.7782 10.4428H11.8068C12.9222 10.4308 13.4242 10.0682 13.6908 9.72283C13.9188 9.42683 14.0042 9.1315 14.0922 8.83216L14.1163 8.74922C14.1224 8.72811 14.1268 8.70652 14.1293 8.68467C14.2317 7.77994 14.1318 6.86361 13.8367 6.00195C13.5455 5.15166 13.0715 4.37584 12.4484 3.72896C12.4272 3.70705 12.3904 3.71687 12.3822 3.74616V3.74616C12.2735 4.14216 12.0988 4.5475 11.9082 4.83683C11.7375 5.0955 11.4068 5.35683 11.1322 5.55416C10.9388 5.68971 10.7381 5.81435 10.5308 5.9275C10.3788 6.0155 10.2422 6.09416 10.1108 6.18083C9.82283 6.3715 9.60016 6.57616 9.45016 6.88483C9.40098 6.98675 9.39263 7.10362 9.42683 7.2115C9.47683 7.39283 9.51083 7.59683 9.51083 7.80416C9.51216 8.23683 9.29216 8.58816 9.00883 8.81616C8.721 9.04579 8.36303 9.16958 7.99483 9.16683C6.35816 9.14883 5.3515 7.82016 5.21883 6.34283C5.1655 5.7555 4.90816 5.16083 4.58283 4.6415C4.40705 4.35931 4.20783 4.09305 3.98739 3.84501ZM4.89676 2.66959C4.68268 2.7945 4.65584 3.08553 4.81684 3.27396C5.04155 3.53697 5.24658 3.81645 5.43016 4.11016C5.80216 4.7035 6.14283 5.4515 6.21483 6.25283C6.31483 7.37283 7.0235 8.1555 8.0055 8.16616C8.14157 8.16636 8.27376 8.12081 8.38083 8.03683C8.47816 7.95883 8.5115 7.87683 8.51083 7.80616C8.51083 7.70216 8.4935 7.5875 8.46283 7.47616C8.36417 7.13445 8.39527 6.76833 8.55016 6.44816C8.80683 5.91883 9.1875 5.5915 9.5595 5.34616C9.71883 5.24083 9.88416 5.14616 10.0328 5.0595L10.0928 5.02616C10.2628 4.9275 10.4128 4.8395 10.5482 4.7415C10.8355 4.53483 11.0175 4.37016 11.0728 4.2855C11.1948 4.1015 11.3315 3.79616 11.4182 3.48083C11.4568 3.34069 11.4796 3.21867 11.4911 3.11759C11.5051 2.99409 11.44 2.87872 11.3355 2.81141C10.3423 2.17165 9.18431 1.8313 8.00016 1.8335C6.90693 1.83179 5.83606 2.12153 4.89676 2.66959ZM15.1282 8.82981C15.1235 8.82806 15.1206 8.82331 15.1211 8.81831C15.1518 8.54973 15.1675 8.27723 15.1675 8.00016C15.1675 4.04216 11.9588 0.833496 8.00083 0.833496C4.04283 0.833496 0.833496 4.04216 0.833496 8.00016C0.833496 11.9582 4.04216 15.1668 8.00016 15.1668C11.6402 15.1668 14.6468 12.4528 15.1062 8.9375C15.1149 8.90595 15.1244 8.87463 15.1348 8.84356C15.1366 8.83795 15.1337 8.83186 15.1282 8.82981V8.82981ZM12.5899 12.1206C12.8428 11.8392 12.5317 11.4033 12.1542 11.4296C12.0461 11.4372 11.9341 11.4416 11.8182 11.4428H11.7975L11.7375 11.4448C11.4056 11.459 11.0758 11.5054 10.7528 11.5835C10.1515 11.7308 9.62416 11.9968 9.40016 12.4182C9.17596 12.8405 9.14104 13.2901 9.18362 13.6679C9.20741 13.8789 9.41667 14.007 9.62154 13.9511C10.3137 13.7624 10.9687 13.4541 11.5565 13.0393C11.9353 12.7721 12.2817 12.4637 12.5899 12.1206Z" fill="url(#paint0_linear_497_431)" stroke="url(#paint1_linear_497_431)"/>
<defs>
<linearGradient id="paint0_linear_497_431" x1="8.0005" y1="15.1668" x2="8.0005" y2="1.67663" gradientUnits="userSpaceOnUse">
<stop stop-color="#18AEFA"/>
<stop offset="1" stop-color="#83E1FF"/>
</linearGradient>
<linearGradient id="paint1_linear_497_431" x1="8.0005" y1="15.1668" x2="8.0005" y2="1.67663" gradientUnits="userSpaceOnUse">
<stop stop-color="#18AEFA"/>
<stop offset="1" stop-color="#83E1FF"/>
</linearGradient>
</defs>
</svg>
