<svg width="64" height="64" viewBox="0 0 64 64" fill="none" xmlns="http://www.w3.org/2000/svg">
<path d="M47.1667 60H16.8333C13.4309 59.9963 10.1688 58.643 7.76289 56.2371C5.35698 53.8312 4.00371 50.5691 4 47.1667L4 16.8333C4.00371 13.4309 5.35698 10.1688 7.76289 7.76289C10.1688 5.35698 13.4309 4.00371 16.8333 4L47.1667 4C50.5691 4.00371 53.8312 5.35698 56.2371 7.76289C58.643 10.1688 59.9963 13.4309 60 16.8333V47.1667C59.9963 50.5691 58.643 53.8312 56.2371 56.2371C53.8312 58.643 50.5691 59.9963 47.1667 60ZM16.8333 11C15.2862 11 13.8025 11.6146 12.7085 12.7085C11.6146 13.8025 11 15.2862 11 16.8333V47.1667C11 48.7138 11.6146 50.1975 12.7085 51.2915C13.8025 52.3854 15.2862 53 16.8333 53H47.1667C48.7138 53 50.1975 52.3854 51.2915 51.2915C52.3854 50.1975 53 48.7138 53 47.1667V16.8333C53 15.2862 52.3854 13.8025 51.2915 12.7085C50.1975 11.6146 48.7138 11 47.1667 11H16.8333ZM28.5 32C28.5 32.6922 28.7053 33.3689 29.0899 33.9445C29.4744 34.5201 30.0211 34.9687 30.6606 35.2336C31.3001 35.4985 32.0039 35.5678 32.6828 35.4327C33.3617 35.2977 33.9854 34.9644 34.4749 34.4749C34.9644 33.9854 35.2977 33.3617 35.4327 32.6828C35.5678 32.0039 35.4985 31.3001 35.2336 30.6606C34.9687 30.0211 34.5201 29.4744 33.9445 29.0899C33.3689 28.7053 32.6922 28.5 32 28.5C31.0717 28.5 30.1815 28.8687 29.5251 29.5251C28.8687 30.1815 28.5 31.0717 28.5 32V32ZM18 21.5C18 22.1922 18.2053 22.8689 18.5899 23.4445C18.9744 24.0201 19.5211 24.4687 20.1606 24.7336C20.8001 24.9985 21.5039 25.0678 22.1828 24.9327C22.8617 24.7977 23.4854 24.4644 23.9749 23.9749C24.4644 23.4854 24.7977 22.8617 24.9327 22.1828C25.0678 21.5039 24.9985 20.8001 24.7336 20.1606C24.4687 19.5211 24.0201 18.9744 23.4445 18.5899C22.8689 18.2053 22.1922 18 21.5 18C20.5717 18 19.6815 18.3687 19.0251 19.0251C18.3687 19.6815 18 20.5717 18 21.5ZM39 21.5C39 22.1922 39.2053 22.8689 39.5899 23.4445C39.9744 24.0201 40.5211 24.4687 41.1606 24.7336C41.8001 24.9985 42.5039 25.0678 43.1828 24.9327C43.8617 24.7977 44.4854 24.4644 44.9749 23.9749C45.4644 23.4854 45.7977 22.8617 45.9327 22.1828C46.0678 21.5039 45.9985 20.8001 45.7336 20.1606C45.4687 19.5211 45.0201 18.9744 44.4445 18.5899C43.8689 18.2053 43.1922 18 42.5 18C41.5717 18 40.6815 18.3687 40.0251 19.0251C39.3687 19.6815 39 20.5717 39 21.5V21.5ZM18 42.5C18 43.1922 18.2053 43.8689 18.5899 44.4445C18.9744 45.0201 19.5211 45.4687 20.1606 45.7336C20.8001 45.9985 21.5039 46.0678 22.1828 45.9327C22.8617 45.7977 23.4854 45.4644 23.9749 44.9749C24.4644 44.4854 24.7977 43.8617 24.9327 43.1828C25.0678 42.5039 24.9985 41.8001 24.7336 41.1606C24.4687 40.5211 24.0201 39.9744 23.4445 39.5899C22.8689 39.2053 22.1922 39 21.5 39C20.5717 39 19.6815 39.3687 19.0251 40.0251C18.3687 40.6815 18 41.5717 18 42.5ZM39 42.5C39 43.1922 39.2053 43.8689 39.5899 44.4445C39.9744 45.0201 40.5211 45.4687 41.1606 45.7336C41.8001 45.9985 42.5039 46.0678 43.1828 45.9327C43.8617 45.7977 44.4854 45.4644 44.9749 44.9749C45.4644 44.4854 45.7977 43.8617 45.9327 43.1828C46.0678 42.5039 45.9985 41.8001 45.7336 41.1606C45.4687 40.5211 45.0201 39.9744 44.4445 39.5899C43.8689 39.2053 43.1922 39 42.5 39C41.5717 39 40.6815 39.3687 40.0251 40.0251C39.3687 40.6815 39 41.5717 39 42.5V42.5Z" fill="url(#paint0_linear_914_2)"/>
<defs>
<linearGradient id="paint0_linear_914_2" x1="3.19056" y1="4.55103" x2="60.9218" y2="64.0485" gradientUnits="userSpaceOnUse">
<stop stop-color="#F9D423"/>
<stop offset="0.515624" stop-color="#FF4E50"/>
<stop offset="0.991304" stop-color="#8A2387"/>
</linearGradient>
</defs>
</svg>
