<svg width="16" height="16" viewBox="0 0 16 16" fill="none" xmlns="http://www.w3.org/2000/svg">
<path d="M5.2898 1.2998H10.6098C11.668 1.2998 12.6829 1.72018 13.4311 2.46845C14.1794 3.21672 14.5998 4.23159 14.5998 5.2898V10.6098C14.5998 11.668 14.1794 12.6829 13.4311 13.4311C12.6829 14.1794 11.668 14.5998 10.6098 14.5998H5.2898C4.23159 14.5998 3.21672 14.1794 2.46845 13.4311C1.72018 12.6829 1.2998 11.668 1.2998 10.6098V5.2898C1.2998 4.23159 1.72018 3.21672 2.46845 2.46845C3.21672 1.72018 4.23159 1.2998 5.2898 1.2998Z" stroke="url(#paint0_linear_602_74)" stroke-width="1.8"/>
<path fill-rule="evenodd" clip-rule="evenodd" d="M7.50485 4.70503C7.6361 4.57375 7.81416 4.5 7.9998 4.5H11.4998C11.6855 4.5 11.8635 4.57375 11.9948 4.70503C12.1261 4.8363 12.1998 5.01435 12.1998 5.2C12.1998 5.38565 12.1261 5.5637 11.9948 5.69495C11.8635 5.82625 11.6855 5.9 11.4998 5.9H7.9998C7.81416 5.9 7.6361 5.82625 7.50485 5.69495C7.37355 5.5637 7.2998 5.38565 7.2998 5.2C7.2998 5.01435 7.37355 4.8363 7.50485 4.70503ZM9.39971 7.30029C9.21406 7.30029 9.03601 7.37404 8.90476 7.50534C8.77346 7.63659 8.69971 7.81464 8.69971 8.00029C8.69971 8.18594 8.77346 8.36399 8.90476 8.49524C9.03601 8.62654 9.21406 8.70029 9.39971 8.70029H11.4997C11.6854 8.70029 11.8634 8.62654 11.9947 8.49524C12.126 8.36399 12.1997 8.18594 12.1997 8.00029C12.1997 7.81464 12.126 7.63659 11.9947 7.50534C11.8634 7.37404 11.6854 7.30029 11.4997 7.30029H9.39971ZM7.9998 10.1001C7.81416 10.1001 7.6361 10.1738 7.50485 10.3051C7.37355 10.4364 7.2998 10.6144 7.2998 10.8001C7.2998 10.9857 7.37355 11.1637 7.50485 11.295C7.6361 11.4263 7.81416 11.5001 7.9998 11.5001H11.4998C11.6855 11.5001 11.8635 11.4263 11.9948 11.295C12.1261 11.1637 12.1998 10.9857 12.1998 10.8001C12.1998 10.6144 12.1261 10.4364 11.9948 10.3051C11.8635 10.1738 11.6855 10.1001 11.4998 10.1001H7.9998ZM5.22067 8.0289C5.14257 8.10704 5.01591 8.10705 4.9378 8.02893L4.58436 7.67549C4.51979 7.60864 4.44255 7.55529 4.35715 7.51864C4.27174 7.48194 4.17989 7.46264 4.08694 7.46179C3.994 7.46099 3.90182 7.47874 3.81579 7.51389C3.72977 7.54909 3.65161 7.60109 3.58589 7.66679C3.52016 7.73254 3.46818 7.81069 3.43299 7.89674C3.39779 7.98274 3.38008 8.07494 3.38089 8.16789C3.3817 8.26084 3.40101 8.35269 3.43769 8.43809C3.47438 8.52349 3.52771 8.60074 3.59456 8.66529L4.58436 9.65509C4.64937 9.72019 4.72658 9.77179 4.81155 9.80704C4.89653 9.84224 4.98762 9.86039 5.0796 9.86039C5.1716 9.86039 5.2627 9.84224 5.34765 9.80704C5.43265 9.77179 5.50985 9.72019 5.57485 9.65509L7.55445 7.67549C7.6859 7.54424 7.7598 7.36614 7.75995 7.18039C7.7601 6.99464 7.6864 6.81644 7.55515 6.68499C7.4239 6.55354 7.2458 6.47964 7.06005 6.47949C6.8743 6.47939 6.6961 6.55304 6.56465 6.68429L5.22067 8.0289Z" fill="url(#paint1_linear_602_74)"/>
<defs>
<linearGradient id="paint0_linear_602_74" x1="1.10756" y1="1.43068" x2="14.8187" y2="15.5613" gradientUnits="userSpaceOnUse">
<stop stop-color="#F9D423"/>
<stop offset="0.515624" stop-color="#FF4E50"/>
<stop offset="0.991304" stop-color="#8A2387"/>
</linearGradient>
<linearGradient id="paint1_linear_602_74" x1="3.25339" y1="4.56888" x2="10.2338" y2="13.6321" gradientUnits="userSpaceOnUse">
<stop stop-color="#F9D423"/>
<stop offset="0.515624" stop-color="#FF4E50"/>
<stop offset="0.991304" stop-color="#8A2387"/>
</linearGradient>
</defs>
</svg>
