<svg width="16" height="16" viewBox="0 0 16 16" fill="none" xmlns="http://www.w3.org/2000/svg">
<path fill-rule="evenodd" clip-rule="evenodd" d="M8.62448 1H7.37553H7.37552C6.07961 0.99999 5.03253 0.999981 4.20821 1.11081C3.35132 1.22601 2.62605 1.47296 2.0495 2.0495C1.47296 2.62605 1.22601 3.35132 1.11081 4.20821C0.999981 5.03253 0.99999 6.07961 1 7.37552V7.37552V8.62447V8.62448C0.99999 9.92039 0.999981 10.9675 1.11081 11.7918C1.22601 12.6487 1.47296 13.374 2.0495 13.9505C2.62605 14.527 3.35132 14.774 4.20821 14.8892C5.03252 15 6.0796 15 7.37551 15H8.62449C9.9204 15 10.9675 15 11.7918 14.8892C12.6487 14.774 13.374 14.527 13.9505 13.9505C14.527 13.374 14.774 12.6487 14.8892 11.7918C15 10.9675 15 9.9204 15 8.62449V7.37551C15 6.0796 15 5.03252 14.8892 4.20821C14.774 3.35132 14.527 2.62605 13.9505 2.0495C13.374 1.47296 12.6487 1.22601 11.7918 1.11081C10.9675 0.999981 9.9204 0.99999 8.62448 1H8.62448ZM4.40433 2.56952C5.11923 2.47341 6.0674 2.47184 7.43054 2.47184H8.56946C9.9326 2.47184 10.8808 2.47341 11.5957 2.56952C12.2893 2.66278 12.6522 2.83275 12.9097 3.09025C13.1673 3.34776 13.3372 3.71068 13.4305 4.40433C13.5266 5.11923 13.5282 6.0674 13.5282 7.43054V8.56946C13.5282 9.9326 13.5266 10.8808 13.4305 11.5957C13.3372 12.2893 13.1673 12.6522 12.9097 12.9097C12.6522 13.1673 12.2893 13.3372 11.5957 13.4305C10.8808 13.5266 9.9326 13.5282 8.56946 13.5282H7.43054C6.0674 13.5282 5.11923 13.5266 4.40433 13.4305C3.71068 13.3372 3.34776 13.1673 3.09025 12.9097C2.83275 12.6522 2.66278 12.2893 2.56952 11.5957C2.47341 10.8808 2.47184 9.9326 2.47184 8.56946V7.43054C2.47184 6.0674 2.47341 5.11923 2.56952 4.40433C2.66278 3.71068 2.83275 3.34776 3.09025 3.09025C3.34776 2.83275 3.71068 2.66278 4.40433 2.56952ZM4.01377 3.13548C3.5287 3.13548 3.13548 3.5287 3.13548 4.01377C3.13548 4.49883 3.5287 4.89205 4.01377 4.89205C4.49883 4.89205 4.89205 4.49883 4.89205 4.01377C4.89205 3.5287 4.49883 3.13548 4.01377 3.13548ZM11.9862 3.13548C11.5012 3.13548 11.1079 3.5287 11.1079 4.01377C11.1079 4.49883 11.5012 4.89205 11.9862 4.89205C12.4713 4.89205 12.8645 4.49883 12.8645 4.01377C12.8645 3.5287 12.4713 3.13548 11.9862 3.13548ZM8 3.84731C5.70653 3.84731 3.84731 5.70653 3.84731 8C3.84731 10.2935 5.70653 12.1527 8 12.1527C10.2935 12.1527 12.1527 10.2935 12.1527 8C12.1527 5.70653 10.2935 3.84731 8 3.84731ZM5.31915 8C5.31915 6.51941 6.51941 5.31915 8 5.31915C9.48059 5.31915 10.6809 6.51941 10.6809 8C10.6809 9.48059 9.48059 10.6809 8 10.6809C6.51941 10.6809 5.31915 9.48059 5.31915 8ZM8 5.98279C6.88593 5.98279 5.98279 6.88593 5.98279 8C5.98279 9.11407 6.88593 10.0172 8 10.0172C9.11407 10.0172 10.0172 9.11407 10.0172 8C10.0172 6.88593 9.11407 5.98279 8 5.98279ZM4.01377 11.1079C3.5287 11.1079 3.13548 11.5012 3.13548 11.9862C3.13548 12.4713 3.5287 12.8645 4.01377 12.8645C4.49883 12.8645 4.89205 12.4713 4.89205 11.9862C4.89205 11.5012 4.49883 11.1079 4.01377 11.1079ZM11.9862 11.1079C11.5012 11.1079 11.1079 11.5012 11.1079 11.9862C11.1079 12.4713 11.5012 12.8645 11.9862 12.8645C12.4713 12.8645 12.8645 12.4713 12.8645 11.9862C12.8645 11.5012 12.4713 11.1079 11.9862 11.1079Z" fill="#2D264B"/>
<path fill-rule="evenodd" clip-rule="evenodd" d="M8.62448 1H7.37553H7.37552C6.07961 0.99999 5.03253 0.999981 4.20821 1.11081C3.35132 1.22601 2.62605 1.47296 2.0495 2.0495C1.47296 2.62605 1.22601 3.35132 1.11081 4.20821C0.999981 5.03253 0.99999 6.07961 1 7.37552V7.37552V8.62447V8.62448C0.99999 9.92039 0.999981 10.9675 1.11081 11.7918C1.22601 12.6487 1.47296 13.374 2.0495 13.9505C2.62605 14.527 3.35132 14.774 4.20821 14.8892C5.03252 15 6.0796 15 7.37551 15H8.62449C9.9204 15 10.9675 15 11.7918 14.8892C12.6487 14.774 13.374 14.527 13.9505 13.9505C14.527 13.374 14.774 12.6487 14.8892 11.7918C15 10.9675 15 9.9204 15 8.62449V7.37551C15 6.0796 15 5.03252 14.8892 4.20821C14.774 3.35132 14.527 2.62605 13.9505 2.0495C13.374 1.47296 12.6487 1.22601 11.7918 1.11081C10.9675 0.999981 9.9204 0.99999 8.62448 1H8.62448ZM4.40433 2.56952C5.11923 2.47341 6.0674 2.47184 7.43054 2.47184H8.56946C9.9326 2.47184 10.8808 2.47341 11.5957 2.56952C12.2893 2.66278 12.6522 2.83275 12.9097 3.09025C13.1673 3.34776 13.3372 3.71068 13.4305 4.40433C13.5266 5.11923 13.5282 6.0674 13.5282 7.43054V8.56946C13.5282 9.9326 13.5266 10.8808 13.4305 11.5957C13.3372 12.2893 13.1673 12.6522 12.9097 12.9097C12.6522 13.1673 12.2893 13.3372 11.5957 13.4305C10.8808 13.5266 9.9326 13.5282 8.56946 13.5282H7.43054C6.0674 13.5282 5.11923 13.5266 4.40433 13.4305C3.71068 13.3372 3.34776 13.1673 3.09025 12.9097C2.83275 12.6522 2.66278 12.2893 2.56952 11.5957C2.47341 10.8808 2.47184 9.9326 2.47184 8.56946V7.43054C2.47184 6.0674 2.47341 5.11923 2.56952 4.40433C2.66278 3.71068 2.83275 3.34776 3.09025 3.09025C3.34776 2.83275 3.71068 2.66278 4.40433 2.56952ZM4.01377 3.13548C3.5287 3.13548 3.13548 3.5287 3.13548 4.01377C3.13548 4.49883 3.5287 4.89205 4.01377 4.89205C4.49883 4.89205 4.89205 4.49883 4.89205 4.01377C4.89205 3.5287 4.49883 3.13548 4.01377 3.13548ZM11.9862 3.13548C11.5012 3.13548 11.1079 3.5287 11.1079 4.01377C11.1079 4.49883 11.5012 4.89205 11.9862 4.89205C12.4713 4.89205 12.8645 4.49883 12.8645 4.01377C12.8645 3.5287 12.4713 3.13548 11.9862 3.13548ZM8 3.84731C5.70653 3.84731 3.84731 5.70653 3.84731 8C3.84731 10.2935 5.70653 12.1527 8 12.1527C10.2935 12.1527 12.1527 10.2935 12.1527 8C12.1527 5.70653 10.2935 3.84731 8 3.84731ZM5.31915 8C5.31915 6.51941 6.51941 5.31915 8 5.31915C9.48059 5.31915 10.6809 6.51941 10.6809 8C10.6809 9.48059 9.48059 10.6809 8 10.6809C6.51941 10.6809 5.31915 9.48059 5.31915 8ZM8 5.98279C6.88593 5.98279 5.98279 6.88593 5.98279 8C5.98279 9.11407 6.88593 10.0172 8 10.0172C9.11407 10.0172 10.0172 9.11407 10.0172 8C10.0172 6.88593 9.11407 5.98279 8 5.98279ZM4.01377 11.1079C3.5287 11.1079 3.13548 11.5012 3.13548 11.9862C3.13548 12.4713 3.5287 12.8645 4.01377 12.8645C4.49883 12.8645 4.89205 12.4713 4.89205 11.9862C4.89205 11.5012 4.49883 11.1079 4.01377 11.1079ZM11.9862 11.1079C11.5012 11.1079 11.1079 11.5012 11.1079 11.9862C11.1079 12.4713 11.5012 12.8645 11.9862 12.8645C12.4713 12.8645 12.8645 12.4713 12.8645 11.9862C12.8645 11.5012 12.4713 11.1079 11.9862 11.1079Z" fill="url(#paint0_linear_484_108)"/>
<defs>
<linearGradient id="paint0_linear_484_108" x1="1" y1="8" x2="15" y2="8" gradientUnits="userSpaceOnUse">
<stop stop-color="#5800E2"/>
<stop offset="1" stop-color="#FF00E6"/>
</linearGradient>
</defs>
</svg>
