<svg width="16" height="16" viewBox="0 0 16 16" fill="none" xmlns="http://www.w3.org/2000/svg">
<path d="M15.1032 6.82917L12.9628 4.9769C12.7786 4.81756 12.6729 4.58609 12.6729 4.3426V1.17481C12.6729 0.940199 12.4827 0.75 12.248 0.75H3.75195C3.51734 0.75 3.32715 0.940199 3.32715 1.17481V4.3426C3.32715 4.58609 3.22135 4.81756 3.03723 4.9769L0.896812 6.82917C0.803581 6.90986 0.75 7.02709 0.75 7.1504V14.8251C0.75 15.0599 0.940199 15.25 1.17481 15.25H14.8251C15.0599 15.25 15.25 15.0599 15.25 14.8251V7.1504C15.25 7.02709 15.1964 6.90986 15.1032 6.82917ZM12.6729 7.15487C12.6729 6.64382 13.2735 6.3693 13.6599 6.70372C13.9337 6.94076 13.935 7.36516 13.6624 7.60376C13.2768 7.94148 12.6729 7.66755 12.6729 7.15487ZM4.17676 2.43845C4.17676 1.97518 4.55233 1.59961 5.0156 1.59961H10.9844C11.4477 1.59961 11.8232 1.97518 11.8232 2.43845V8.83358C11.8232 9.07538 11.7189 9.30542 11.537 9.4647L8.55258 12.0776C8.23624 12.3545 7.76376 12.3545 7.44742 12.0776L4.46303 9.46467C4.28111 9.3054 4.17676 9.07535 4.17676 8.83355V2.43845ZM2.34013 6.70371C2.72656 6.36929 3.32715 6.64381 3.32715 7.15485C3.32715 7.66751 2.72325 7.94145 2.33752 7.60372C2.06501 7.36514 2.06624 6.94074 2.34013 6.70371ZM14.4004 13.5615C14.4004 14.0247 14.0247 14.4004 13.5615 14.4004H2.43845C1.97516 14.4004 1.5996 14.0247 1.5996 13.5615V9.93625C1.5996 9.21545 2.44869 8.83031 2.99101 9.30514L7.72016 13.4456C7.80029 13.5158 7.90011 13.5507 8 13.5507C8.09986 13.5507 8.19974 13.5158 8.27984 13.4456L13.009 9.30514C13.5514 8.83031 14.4004 9.21544 14.4004 9.93625V13.5615Z" fill="url(#paint0_linear_661_92)" stroke="url(#paint1_linear_661_92)" stroke-width="0.6"/>
<path d="M8.85076 2.87388C8.86127 2.73007 8.74064 2.5951 8.59767 2.59164C8.46944 2.58439 8.35121 2.68267 8.32587 2.80787C8.31349 3.48264 8.30601 4.15705 8.29541 4.83185C8.42661 5.00375 8.54839 5.18269 8.67286 5.35943C8.71414 5.42282 8.76427 5.48813 8.7658 5.56799C8.78377 6.07683 8.76534 6.58648 8.77977 7.0957C8.78797 7.05008 8.79264 7.00395 8.7933 6.95778C8.81201 5.59647 8.83339 4.2352 8.85076 2.87388Z" fill="url(#paint2_linear_661_92)"/>
<path d="M7.55664 2.81508C7.53409 2.53041 7.09114 2.51091 7.03697 2.78817C7.01694 3.68484 7.0098 4.58169 6.99512 5.47844C7.12443 5.62744 7.22995 5.79492 7.34894 5.95184C7.40598 6.03071 7.47184 6.1142 7.46992 6.21731C7.47934 6.48789 7.46478 6.75946 7.48842 7.02979C7.49662 6.98461 7.50083 6.93892 7.50104 6.89319C7.51795 5.53364 7.54284 4.17422 7.55664 2.81508Z" fill="url(#paint3_linear_661_92)"/>
<path d="M8.67271 5.35945C8.54824 5.18271 8.42646 5.00377 8.29526 4.83187C8.28644 5.56814 8.2705 6.30431 8.26611 7.04065C8.27855 7.2256 8.49905 7.33469 8.65665 7.24595C8.71485 7.21452 8.75476 7.1559 8.77963 7.09572C8.76519 6.5865 8.78363 6.07685 8.76565 5.56801C8.76413 5.48815 8.71399 5.42284 8.67271 5.35945Z" fill="url(#paint4_linear_661_92)"/>
<path d="M7.34913 5.95188C7.23014 5.79497 7.12462 5.62749 6.99531 5.47849C6.98296 5.87431 6.99674 6.27366 6.96843 6.66701C6.95989 6.7041 6.91848 6.74341 6.95036 6.7811C7.03526 6.9308 7.14479 7.0647 7.24852 7.20166C7.26944 7.19839 7.31128 7.19182 7.33221 7.18855C7.40543 7.16137 7.45521 7.09841 7.48861 7.02983C7.46497 6.75951 7.47953 6.48794 7.47011 6.21736C7.47203 6.11425 7.40617 6.03076 7.34913 5.95188Z" fill="url(#paint5_linear_661_92)"/>
<path d="M6.96835 6.66701C6.95415 6.6668 6.92572 6.66638 6.91151 6.66661C6.41458 6.66291 5.9166 6.64125 5.41992 6.6519C5.56346 6.67643 5.70901 6.68485 5.85206 6.71296C5.99222 6.84866 6.08651 7.02405 6.19073 7.18793C6.54331 7.19222 6.89582 7.20097 7.24843 7.20166C7.14471 7.0647 7.03517 6.9308 6.95027 6.7811C6.9184 6.74341 6.95981 6.7041 6.96835 6.66701Z" fill="url(#paint6_linear_661_92)"/>
<path d="M5.85207 6.7127C5.70902 6.68459 5.56347 6.67618 5.41994 6.65164C5.14144 6.68433 4.93179 6.99519 5.02069 7.26783C5.04286 7.36188 5.09945 7.44254 5.16599 7.50944C5.94839 8.32057 6.7281 9.13434 7.51051 9.94547C7.63259 10.0733 7.82685 10.1223 7.9946 10.0692C8.21324 9.99838 8.34021 9.78498 8.51059 9.64307C8.42536 9.48574 8.31549 9.34332 8.1912 9.21547C8.07861 9.32324 7.96997 9.43512 7.85607 9.54153C7.13625 8.79455 6.41824 8.04537 5.69795 7.29884C5.65945 7.2597 5.62182 7.21969 5.5842 7.17967C5.78671 7.18085 5.98872 7.18515 6.19075 7.18768C6.08652 7.02379 5.99224 6.8484 5.85207 6.7127Z" fill="url(#paint7_linear_661_92)"/>
<path d="M10.84 6.98823C10.7403 6.87869 10.5538 6.88268 10.4562 6.99382C10.1652 7.27747 9.87512 7.56248 9.58545 7.84794C9.71295 7.96956 9.83502 8.09693 9.95079 8.23047C10.2436 7.94551 10.5324 7.65599 10.8274 7.37374C10.9367 7.27713 10.9442 7.09113 10.84 6.98823Z" fill="url(#paint8_linear_661_92)"/>
<path d="M9.95096 8.23067C9.83519 8.09714 9.71312 7.96976 9.58562 7.84815C9.36266 8.06554 9.14012 8.28381 8.91846 8.50255C9.06848 8.60117 9.17742 8.74585 9.27118 8.89746C9.49822 8.67521 9.72437 8.45294 9.95096 8.23067Z" fill="url(#paint9_linear_661_92)"/>
<path d="M9.27121 8.8972C9.17744 8.74559 9.06851 8.60092 8.91848 8.50229C8.67568 8.73955 8.43289 8.97683 8.19141 9.21547C8.31569 9.34332 8.42557 9.48574 8.51079 9.64307C8.76441 9.39475 9.01758 9.14553 9.27121 8.8972Z" fill="url(#paint10_linear_661_92)"/>
<path d="M8.29517 4.83177C8.30577 4.15697 8.31325 3.48256 8.32564 2.80778C8.35097 2.68258 8.4692 2.5843 8.59744 2.59155C8.7404 2.59502 8.86104 2.72998 8.85052 2.87379C8.83315 4.23512 8.81177 5.59638 8.79306 6.95769C8.7924 7.00387 8.78774 7.04999 8.77954 7.09562M8.29517 4.83177C8.42637 5.00367 8.54815 5.18261 8.67262 5.35934C8.7139 5.42273 8.76404 5.48804 8.76556 5.5679C8.78354 6.07674 8.7651 6.58639 8.77954 7.09562M8.29517 4.83177C8.28635 5.56803 8.27041 6.30421 8.26602 7.04054C8.27846 7.22549 8.49896 7.33458 8.65656 7.24584C8.71476 7.21442 8.75467 7.15579 8.77954 7.09562M6.99524 5.47823C7.00992 4.58148 7.01706 3.68463 7.03709 2.78797C7.09126 2.51071 7.53421 2.5302 7.55676 2.81488C7.54296 4.17402 7.51807 5.53343 7.50116 6.89298C7.50095 6.93872 7.49674 6.9844 7.48854 7.02958M6.99524 5.47823C7.12455 5.62723 7.23007 5.79472 7.34906 5.95163C7.4061 6.0305 7.47196 6.11399 7.47004 6.2171C7.47946 6.48768 7.4649 6.75925 7.48854 7.02958M6.99524 5.47823C6.98289 5.87405 6.99667 6.2734 6.96836 6.66675M7.48854 7.02958C7.45514 7.09815 7.40536 7.16112 7.33214 7.18829C7.31121 7.19157 7.26937 7.19813 7.24845 7.20141M6.96836 6.66675C6.95982 6.70384 6.91841 6.74315 6.95029 6.78084C7.03519 6.93054 7.14472 7.06444 7.24845 7.20141M6.96836 6.66675C6.95416 6.66654 6.92574 6.66613 6.91152 6.66635C6.4146 6.66265 5.91661 6.64099 5.41994 6.65164M7.24845 7.20141C6.89584 7.20072 6.54332 7.19197 6.19075 7.18768M5.41994 6.65164C5.56347 6.67618 5.70902 6.68459 5.85207 6.7127C5.99224 6.8484 6.08652 7.02379 6.19075 7.18768M5.41994 6.65164C5.14144 6.68433 4.93179 6.99519 5.02069 7.26783C5.04286 7.36188 5.09945 7.44254 5.16599 7.50944C5.94839 8.32057 6.7281 9.13434 7.51051 9.94547C7.63259 10.0733 7.82685 10.1223 7.9946 10.0692C8.21324 9.99838 8.34021 9.78498 8.51059 9.64307M6.19075 7.18768C5.98872 7.18515 5.78671 7.18085 5.5842 7.17967C5.62182 7.21969 5.65945 7.2597 5.69795 7.29884C6.41824 8.04537 7.13625 8.79455 7.85607 9.54153C7.96997 9.43512 8.07861 9.32324 8.1912 9.21547M8.51059 9.64307C8.42536 9.48574 8.31549 9.34332 8.1912 9.21547M8.51059 9.64307C8.7642 9.39475 9.01737 9.14553 9.271 8.8972M8.1912 9.21547C8.43269 8.97683 8.67547 8.73955 8.91827 8.50229M9.271 8.8972C9.49804 8.67495 9.72419 8.45268 9.95077 8.23042M9.271 8.8972C9.17724 8.74559 9.0683 8.60092 8.91827 8.50229M8.91827 8.50229C9.13994 8.28355 9.36247 8.06528 9.58544 7.84789M9.58544 7.84789C9.87511 7.56243 10.1652 7.27742 10.4562 6.99377C10.5537 6.88263 10.7403 6.87864 10.84 6.98818C10.9442 7.09108 10.9367 7.27708 10.8274 7.37369C10.5324 7.65594 10.2435 7.94545 9.95077 8.23042M9.58544 7.84789C9.71294 7.9695 9.83501 8.09688 9.95077 8.23042" stroke="url(#paint11_linear_661_92)" stroke-width="0.6"/>
<defs>
<linearGradient id="paint0_linear_661_92" x1="7.88645" y1="0.703483" x2="8.10183" y2="15.3136" gradientUnits="userSpaceOnUse">
<stop stop-color="#A93AFF"/>
<stop offset="1" stop-color="#FF81FF"/>
</linearGradient>
<linearGradient id="paint1_linear_661_92" x1="7.88645" y1="0.703483" x2="8.10183" y2="15.3136" gradientUnits="userSpaceOnUse">
<stop stop-color="#A93AFF"/>
<stop offset="1" stop-color="#FF81FF"/>
</linearGradient>
<linearGradient id="paint2_linear_661_92" x1="7.9109" y1="10.1145" x2="8.05216" y2="2.5585" gradientUnits="userSpaceOnUse">
<stop stop-color="#A93AFF"/>
<stop offset="1" stop-color="#FF81FF"/>
</linearGradient>
<linearGradient id="paint3_linear_661_92" x1="7.91054" y1="10.1146" x2="8.05181" y2="2.55862" gradientUnits="userSpaceOnUse">
<stop stop-color="#A93AFF"/>
<stop offset="1" stop-color="#FF81FF"/>
</linearGradient>
<linearGradient id="paint4_linear_661_92" x1="7.91075" y1="10.1145" x2="8.05201" y2="2.55852" gradientUnits="userSpaceOnUse">
<stop stop-color="#A93AFF"/>
<stop offset="1" stop-color="#FF81FF"/>
</linearGradient>
<linearGradient id="paint5_linear_661_92" x1="7.91073" y1="10.1146" x2="8.05199" y2="2.55867" gradientUnits="userSpaceOnUse">
<stop stop-color="#A93AFF"/>
<stop offset="1" stop-color="#FF81FF"/>
</linearGradient>
<linearGradient id="paint6_linear_661_92" x1="7.91065" y1="10.1146" x2="8.05191" y2="2.55867" gradientUnits="userSpaceOnUse">
<stop stop-color="#A93AFF"/>
<stop offset="1" stop-color="#FF81FF"/>
</linearGradient>
<linearGradient id="paint7_linear_661_92" x1="7.91066" y1="10.1144" x2="8.05192" y2="2.55842" gradientUnits="userSpaceOnUse">
<stop stop-color="#A93AFF"/>
<stop offset="1" stop-color="#FF81FF"/>
</linearGradient>
<linearGradient id="paint8_linear_661_92" x1="7.91067" y1="10.1144" x2="8.05194" y2="2.55847" gradientUnits="userSpaceOnUse">
<stop stop-color="#A93AFF"/>
<stop offset="1" stop-color="#FF81FF"/>
</linearGradient>
<linearGradient id="paint9_linear_661_92" x1="7.91084" y1="10.1146" x2="8.05211" y2="2.55867" gradientUnits="userSpaceOnUse">
<stop stop-color="#A93AFF"/>
<stop offset="1" stop-color="#FF81FF"/>
</linearGradient>
<linearGradient id="paint10_linear_661_92" x1="7.91087" y1="10.1144" x2="8.05213" y2="2.55841" gradientUnits="userSpaceOnUse">
<stop stop-color="#A93AFF"/>
<stop offset="1" stop-color="#FF81FF"/>
</linearGradient>
<linearGradient id="paint11_linear_661_92" x1="7.91066" y1="10.1144" x2="8.05192" y2="2.55842" gradientUnits="userSpaceOnUse">
<stop stop-color="#A93AFF"/>
<stop offset="1" stop-color="#FF81FF"/>
</linearGradient>
</defs>
</svg>
