<svg width="16" height="16" viewBox="0 0 16 16" fill="none" xmlns="http://www.w3.org/2000/svg">
<path fill-rule="evenodd" clip-rule="evenodd" d="M8.43084 4.26163C9.26028 3.68103 9.83164 3.28218 10.2795 3.02604C10.7369 2.76449 10.9236 2.73888 10.9979 2.74213C11.3227 2.75635 11.6246 2.91353 11.8225 3.17148C11.8678 3.23052 11.9539 3.39813 12.0019 3.92281C12.0489 4.43661 12.0498 5.13341 12.0498 6.14587L12.0498 8.52033C12.0498 8.53714 12.0498 8.55385 12.0498 8.57048C12.0498 9.55587 12.0481 10.2381 12.0019 10.7434C11.9539 11.2681 11.8678 11.4357 11.8225 11.4947C11.6246 11.7527 11.3227 11.9099 10.9979 11.9241C10.9236 11.9273 10.7369 11.9017 10.2795 11.6402C9.83164 11.384 9.26028 10.9852 8.43084 10.4046L7.43906 9.71033C7.31365 9.62254 7.25095 9.57865 7.21704 9.51353C7.18314 9.4484 7.18314 9.37186 7.18314 9.21879L7.18314 5.44742C7.18314 5.29434 7.18314 5.2178 7.21704 5.15268C7.25095 5.08756 7.31365 5.04367 7.43906 4.95588L8.43084 4.26163ZM14.2318 9.93516C14.0284 10.0356 13.9267 10.0857 13.882 10.1538C13.8372 10.2218 13.832 10.321 13.8216 10.5196C13.8145 10.656 13.8056 10.7852 13.7944 10.9074C13.7391 11.5119 13.6185 12.1109 13.2506 12.5904C12.7288 13.2705 11.9329 13.6849 11.0766 13.7224C10.4727 13.7488 9.9129 13.5041 9.38593 13.2027C8.85787 12.9007 8.21898 12.4535 7.43595 11.9053L7.39861 11.8792V11.8792C7.04087 11.6288 6.86199 11.5036 6.7167 11.5546C6.68981 11.564 6.66439 11.5773 6.64123 11.5939C6.51611 11.6836 6.51611 11.902 6.51611 12.3387L6.51611 13.0001C6.51611 14.0494 5.66545 14.9001 4.61611 14.9001C3.56677 14.9001 2.71611 14.0494 2.71611 13.0001L2.71611 11.2492C2.71611 11.0354 2.71611 10.9285 2.66495 10.8525C2.61379 10.7766 2.5012 10.7309 2.27601 10.6395C0.970469 10.1096 0.0498033 8.82896 0.0498036 7.33327C0.0498039 5.36345 1.64665 3.7666 3.61647 3.7666L5.81007 3.7666C5.90389 3.7666 5.9508 3.7666 5.99483 3.75272C6.03886 3.73884 6.07729 3.71194 6.15415 3.65814L7.39861 2.78702L7.43595 2.76088L7.43596 2.76087L7.43597 2.76086C8.21899 2.21273 8.85787 1.7655 9.38593 1.46351C9.9129 1.16215 10.4727 0.917429 11.0766 0.943853C11.9329 0.981326 12.7288 1.39571 13.2506 2.07577C13.6185 2.55533 13.7391 3.15428 13.7944 3.75881C13.8056 3.88103 13.8145 4.01033 13.8216 4.14674C13.832 4.34532 13.8372 4.44461 13.882 4.51262C13.9267 4.58062 14.0284 4.63082 14.2318 4.73121C15.1904 5.20443 15.8498 6.1918 15.8498 7.33318C15.8498 8.47457 15.1904 9.46195 14.2318 9.93516ZM13.8498 7.33318C13.8498 7.52882 14.0418 7.57011 14.049 7.37461C14.0495 7.36086 14.0498 7.34705 14.0498 7.33318C14.0498 7.31931 14.0495 7.3055 14.049 7.29176C14.0418 7.09625 13.8498 7.13755 13.8498 7.33318V7.33318ZM5.38314 6.1666C5.38314 5.88376 5.38314 5.74233 5.29527 5.65447C5.2074 5.5666 5.06598 5.5666 4.78314 5.5666L3.61647 5.5666C2.64077 5.5666 1.8498 6.35756 1.8498 7.33327C1.8498 8.30897 2.64077 9.09993 3.61647 9.09993L4.78314 9.09993C5.06598 9.09993 5.2074 9.09993 5.29527 9.01206C5.38314 8.9242 5.38314 8.78278 5.38314 8.49993L5.38314 6.1666ZM4.61611 10.9001C4.56088 10.9001 4.51611 10.9449 4.51611 11.0001L4.51611 13.0001C4.51611 13.0553 4.56088 13.1001 4.61611 13.1001C4.67134 13.1001 4.71611 13.0553 4.71611 13.0001L4.71611 11.0001C4.71611 10.9449 4.67134 10.9001 4.61611 10.9001V10.9001Z" fill="url(#paint0_linear_525_583)"/>
<defs>
<linearGradient id="paint0_linear_525_583" x1="7.9498" y1="14.9001" x2="7.9498" y2="0.941896" gradientUnits="userSpaceOnUse">
<stop stop-color="#5570FF"/>
<stop offset="1" stop-color="#4DD3FF"/>
</linearGradient>
</defs>
</svg>
