<svg width="64" height="64" viewBox="0 0 64 64" fill="none" xmlns="http://www.w3.org/2000/svg">
<path fill-rule="evenodd" clip-rule="evenodd" d="M58 13.0151V50.9849C58 55.7331 53.6111 58 50.375 58H13.625C10.3889 58 6 55.7331 6 50.9849V13.0151C6 8.26693 10.3889 6 13.625 6H50.375C53.6111 6 58 8.26694 58 13.0151ZM53 50.9V13.1C53 12.3127 52.4639 11.6293 51.6666 11.2697L49.6537 11H13.625C12.1708 11 11 11.9366 11 13.1V50.9C11 52.0634 12.1708 53 13.625 53H50.375C51.8293 53 53 52.0634 53 50.9Z" fill="url(#paint0_linear_724_21)"/>
<path d="M51.6666 11.2697L52.0778 10.3581L51.9444 10.298L51.7994 10.2785L51.6666 11.2697ZM49.6537 11L49.7865 10.0089L49.7204 10H49.6537V11ZM59 50.9849V13.0151H57V50.9849H59ZM50.375 59C52.2009 59 54.3253 58.3678 56.0124 57.0643C57.7268 55.7398 59 53.7075 59 50.9849H57C57 53.0105 56.0787 54.4857 54.7896 55.4817C53.4733 56.4987 51.7852 57 50.375 57V59ZM13.625 59H50.375V57H13.625V59ZM5 50.9849C5 53.7075 6.27318 55.7398 7.98757 57.0643C9.67471 58.3678 11.7991 59 13.625 59V57C12.2148 57 10.5267 56.4987 9.21035 55.4817C7.92127 54.4857 7 53.0105 7 50.9849H5ZM5 13.0151V50.9849H7V13.0151H5ZM13.625 5C11.7991 5 9.67471 5.63216 7.98757 6.93566C6.27318 8.26021 5 10.2925 5 13.0151H7C7 10.9896 7.92127 9.51427 9.21035 8.51832C10.5267 7.50131 12.2148 7 13.625 7V5ZM50.375 5H13.625V7H50.375V5ZM59 13.0151C59 10.2925 57.7268 8.26021 56.0124 6.93566C54.3253 5.63216 52.2009 5 50.375 5V7C51.7852 7 53.4733 7.50131 54.7896 8.51832C56.0787 9.51428 57 10.9896 57 13.0151H59ZM52 13.1V50.9H54V13.1H52ZM51.2554 12.1812C51.7945 12.4244 52 12.8052 52 13.1H54C54 11.8203 53.1333 10.8342 52.0778 10.3581L51.2554 12.1812ZM49.5209 11.9911L51.5338 12.2608L51.7994 10.2785L49.7865 10.0089L49.5209 11.9911ZM13.625 12H49.6537V10H13.625V12ZM12 13.1C12 12.6856 12.5033 12 13.625 12V10C11.8383 10 10 11.1876 10 13.1H12ZM12 50.9V13.1H10V50.9H12ZM13.625 52C12.5033 52 12 51.3144 12 50.9H10C10 52.8124 11.8383 54 13.625 54V52ZM50.375 52H13.625V54H50.375V52ZM52 50.9C52 51.3144 51.4968 52 50.375 52V54C52.1618 54 54 52.8124 54 50.9H52Z" fill="url(#paint1_linear_724_21)"/>
<path fill-rule="evenodd" clip-rule="evenodd" d="M30.2777 28.7302C30.9471 29.6089 30.7775 30.8638 29.8988 31.5332L21.3925 38.0136L29.8956 44.4644C30.7756 45.132 30.9478 46.3865 30.2802 47.2665C29.6126 48.1465 28.358 48.3187 27.478 47.6511L19.9424 41.9343V46.0578C19.9424 47.1624 19.047 48.0578 17.9424 48.0578C16.8378 48.0578 15.9424 47.1624 15.9424 46.0578V29.9422C15.9424 28.8377 16.8378 27.9422 17.9424 27.9422C19.047 27.9422 19.9424 28.8377 19.9424 29.9422V34.0897L27.4748 28.3513C28.3534 27.6819 29.6084 27.8516 30.2777 28.7302Z" fill="url(#paint2_linear_724_21)"/>
<path d="M29.8988 31.5332L29.5958 31.1354L29.5958 31.1354L29.8988 31.5332ZM30.2777 28.7302L29.88 29.0332L29.88 29.0332L30.2777 28.7302ZM21.3925 38.0136L21.0895 37.6158C20.9652 37.7105 20.8923 37.8578 20.8925 38.0141C20.8926 38.1703 20.9658 38.3175 21.0903 38.4119L21.3925 38.0136ZM29.8956 44.4644L30.1978 44.066L30.1978 44.066L29.8956 44.4644ZM30.2802 47.2665L30.6785 47.5687L30.6785 47.5687L30.2802 47.2665ZM27.478 47.6511L27.1758 48.0495L27.1758 48.0495L27.478 47.6511ZM19.9424 41.9343L20.2446 41.536C20.0933 41.4212 19.8901 41.402 19.72 41.4865C19.5499 41.5709 19.4424 41.7444 19.4424 41.9343H19.9424ZM19.9424 34.0897H19.4424C19.4424 34.2798 19.5501 34.4534 19.7205 34.5378C19.8908 34.6222 20.0942 34.6027 20.2454 34.4875L19.9424 34.0897ZM27.4748 28.3513L27.7778 28.7491L27.7778 28.7491L27.4748 28.3513ZM30.2018 31.9309C31.3001 31.0942 31.5122 29.5255 30.6755 28.4272L29.88 29.0332C30.382 29.6922 30.2548 30.6334 29.5958 31.1354L30.2018 31.9309ZM21.6955 38.4113L30.2018 31.9309L29.5958 31.1354L21.0895 37.6158L21.6955 38.4113ZM21.0903 38.4119L29.5934 44.8627L30.1978 44.066L21.6947 37.6152L21.0903 38.4119ZM29.5934 44.8627C30.2534 45.3634 30.3825 46.3043 29.8818 46.9643L30.6785 47.5687C31.513 46.4687 31.2978 44.9005 30.1978 44.066L29.5934 44.8627ZM29.8818 46.9643C29.3811 47.6243 28.4402 47.7535 27.7802 47.2528L27.1758 48.0495C28.2758 48.8839 29.844 48.6687 30.6785 47.5687L29.8818 46.9643ZM27.7802 47.2528L20.2446 41.536L19.6402 42.3326L27.1758 48.0495L27.7802 47.2528ZM20.4424 46.0578V41.9343H19.4424V46.0578H20.4424ZM17.9424 48.5578C19.3231 48.5578 20.4424 47.4386 20.4424 46.0578H19.4424C19.4424 46.8863 18.7708 47.5578 17.9424 47.5578V48.5578ZM15.4424 46.0578C15.4424 47.4386 16.5617 48.5578 17.9424 48.5578V47.5578C17.114 47.5578 16.4424 46.8863 16.4424 46.0578H15.4424ZM15.4424 29.9422V46.0578H16.4424V29.9422H15.4424ZM17.9424 27.4422C16.5617 27.4422 15.4424 28.5615 15.4424 29.9422H16.4424C16.4424 29.1138 17.114 28.4422 17.9424 28.4422V27.4422ZM20.4424 29.9422C20.4424 28.5615 19.3231 27.4422 17.9424 27.4422V28.4422C18.7708 28.4422 19.4424 29.1138 19.4424 29.9422H20.4424ZM20.4424 34.0897V29.9422H19.4424V34.0897H20.4424ZM27.1718 27.9536L19.6394 33.692L20.2454 34.4875L27.7778 28.7491L27.1718 27.9536ZM30.6755 28.4272C29.8387 27.3289 28.2701 27.1169 27.1718 27.9536L27.7778 28.7491C28.4368 28.247 29.378 28.3743 29.88 29.0332L30.6755 28.4272Z" fill="url(#paint3_linear_724_21)"/>
<path d="M18 26C19.6569 26 21 24.6569 21 23C21 21.3431 19.6569 20 18 20C16.3431 20 15 21.3431 15 23C15 24.6569 16.3431 26 18 26Z" fill="#FFC540"/>
<path d="M35 5V26.4791C35 27.3846 36.1074 27.8239 36.7281 27.1646L40.7746 22.8668C41.1696 22.4473 41.8364 22.4475 42.2311 22.8671L46.2716 27.1626C46.8922 27.8223 48 27.3831 48 26.4774V5H35Z" fill="url(#paint4_linear_724_21)"/>
<defs>
<linearGradient id="paint0_linear_724_21" x1="32" y1="58" x2="32" y2="6" gradientUnits="userSpaceOnUse">
<stop stop-color="#FDA700"/>
<stop offset="1" stop-color="#FFDE00"/>
</linearGradient>
<linearGradient id="paint1_linear_724_21" x1="32" y1="58" x2="32" y2="6" gradientUnits="userSpaceOnUse">
<stop stop-color="#FDA700"/>
<stop offset="1" stop-color="#FFDE00"/>
</linearGradient>
<linearGradient id="paint2_linear_724_21" x1="23.3147" y1="45.8595" x2="23.3147" y2="27.9421" gradientUnits="userSpaceOnUse">
<stop stop-color="#FFE59A"/>
<stop offset="1" stop-color="#FFFFD5"/>
</linearGradient>
<linearGradient id="paint3_linear_724_21" x1="23.3147" y1="45.8595" x2="23.3147" y2="27.9421" gradientUnits="userSpaceOnUse">
<stop stop-color="#FFE59A"/>
<stop offset="1" stop-color="#FFFFD5"/>
</linearGradient>
<linearGradient id="paint4_linear_724_21" x1="41.5" y1="29" x2="41.5" y2="5" gradientUnits="userSpaceOnUse">
<stop stop-color="#FDA700"/>
<stop offset="1" stop-color="#FFDE00"/>
</linearGradient>
</defs>
</svg>
