<svg width="32" height="32" viewBox="0 0 32 32" fill="none" xmlns="http://www.w3.org/2000/svg">
<path fill-rule="evenodd" clip-rule="evenodd" d="M5.738 26.2795C5.49015 26.2795 5.25246 26.181 5.0772 26.0058C4.90195 25.8305 4.8035 25.5928 4.8035 25.345V6.65499C4.8035 6.40714 4.90195 6.16945 5.0772 5.9942C5.25246 5.81894 5.49015 5.72049 5.738 5.72049H23.0262C23.398 5.72049 23.7545 5.5728 24.0174 5.30993C24.2803 5.04705 24.428 4.69051 24.428 4.31874C24.428 3.94697 24.2803 3.59043 24.0174 3.32755C23.7545 3.06468 23.398 2.91699 23.0262 2.91699H5.738C4.74662 2.91699 3.79584 3.31082 3.09483 4.01183C2.39382 4.71284 2 5.66361 2 6.65499V25.345C2 26.3363 2.39382 27.2871 3.09483 27.9881C3.79584 28.6891 4.74662 29.083 5.738 29.083H24.428C25.4193 29.083 26.3701 28.6891 27.0711 27.9881C27.7721 27.2871 28.166 26.3363 28.166 25.345V19.2707C28.166 18.899 28.0183 18.5424 27.7554 18.2795C27.4925 18.0167 27.136 17.869 26.7642 17.869C26.3925 17.869 26.0359 18.0167 25.773 18.2795C25.5102 18.5424 25.3625 18.899 25.3625 19.2707V25.345C25.3625 25.5928 25.264 25.8305 25.0888 26.0058C24.9135 26.181 24.6758 26.2795 24.428 26.2795H5.738ZM29.6238 9.7949C29.8714 9.52918 30.0062 9.17772 29.9998 8.81457C29.9934 8.45142 29.8463 8.10494 29.5894 7.84811C29.3326 7.59129 28.9861 7.44418 28.623 7.43777C28.2598 7.43136 27.9084 7.56616 27.6426 7.81377L17.2548 18.1998L13.7541 14.5814C13.6264 14.448 13.4736 14.3411 13.3044 14.2669C13.1352 14.1927 12.9531 14.1527 12.7684 14.1491C12.5837 14.1456 12.4001 14.1785 12.2282 14.2462C12.0563 14.3138 11.8995 14.4147 11.7667 14.5432C11.634 14.6716 11.5279 14.8251 11.4546 14.9946C11.3814 15.1642 11.3423 15.3466 11.3398 15.5313C11.3373 15.716 11.3712 15.8994 11.4398 16.0709C11.5084 16.2424 11.6102 16.3987 11.7393 16.5308L16.2305 21.1734C16.3598 21.3074 16.5144 21.4143 16.6854 21.4879C16.8564 21.5616 17.0404 21.6004 17.2265 21.6021C17.4127 21.6038 17.5974 21.5685 17.7697 21.4981C17.9421 21.4277 18.0987 21.3236 18.2304 21.1921L29.6238 9.7949Z" fill="url(#paint0_linear_1005_132)" stroke="url(#paint1_linear_1005_132)" stroke-width="1.4"/>
<defs>
<linearGradient id="paint0_linear_1005_132" x1="30" y1="29.083" x2="8.29367" y2="5.59494" gradientUnits="userSpaceOnUse">
<stop stop-color="#731FFF"/>
<stop offset="0.905415" stop-color="#EB1AFF"/>
</linearGradient>
<linearGradient id="paint1_linear_1005_132" x1="30" y1="29.083" x2="8.29367" y2="5.59494" gradientUnits="userSpaceOnUse">
<stop stop-color="#731FFF"/>
<stop offset="0.905415" stop-color="#EB1AFF"/>
</linearGradient>
</defs>
</svg>
