<svg width="16" height="16" viewBox="0 0 16 16" fill="none" xmlns="http://www.w3.org/2000/svg">
<path fill-rule="evenodd" clip-rule="evenodd" d="M6.31797 0.100098C5.82091 0.100098 5.41797 0.503041 5.41797 1.0001C5.41797 1.49715 5.82091 1.9001 6.31797 1.9001H9.61209C10.1091 1.9001 10.5121 1.49715 10.5121 1.0001C10.5121 0.503041 10.1091 0.100098 9.61209 0.100098H6.31797ZM13.5425 4.1072C13.894 3.75573 13.894 3.18588 13.5425 2.8344C13.1911 2.48293 12.6212 2.48293 12.2697 2.8344L11.7379 3.36627C11.6058 3.49835 11.4005 3.52029 11.2379 3.42843C10.2712 2.8824 9.15447 2.5708 7.965 2.5708C4.28418 2.5708 1.30029 5.55469 1.30029 9.23551C1.30029 12.9163 4.28418 15.9002 7.965 15.9002C11.6458 15.9002 14.6297 12.9163 14.6297 9.23551C14.6297 7.64651 14.0736 6.1874 13.1455 5.04216C13.011 4.87626 13.0157 4.63404 13.1667 4.48304L13.5425 4.1072ZM7.965 4.3708C5.2783 4.3708 3.10029 6.5488 3.10029 9.23551C3.10029 11.9222 5.2783 14.1002 7.965 14.1002C10.6517 14.1002 12.8297 11.9222 12.8297 9.23551C12.8297 6.5488 10.6517 4.3708 7.965 4.3708ZM8.86445 6.76475C8.86445 6.26769 8.46151 5.86475 7.96445 5.86475C7.4674 5.86475 7.06445 6.26769 7.06445 6.76475V9.23533C7.06445 9.73239 7.4674 10.1353 7.96445 10.1353C8.46151 10.1353 8.86445 9.73239 8.86445 9.23533V6.76475Z" fill="url(#paint0_linear_0_1)"/>
<defs>
<linearGradient id="paint0_linear_0_1" x1="7.965" y1="15.9002" x2="7.49689" y2="-0.291006" gradientUnits="userSpaceOnUse">
<stop stop-color="#5AB5EE"/>
<stop offset="1" stop-color="#C7F84E"/>
</linearGradient>
</defs>
</svg>
