<svg width="16" height="16" viewBox="0 0 16 16" fill="none" xmlns="http://www.w3.org/2000/svg">
<path d="M3.18519 7.75026L4.89713 9.46219M5.46753 5.46753L7.17946 7.17946M7.74987 3.18519L9.4618 4.89713M2.15751 8.77699L8.77699 2.15751C9.41618 1.51833 9.73609 1.19874 10.1046 1.079C10.4288 0.973668 10.7779 0.973668 11.102 1.079C11.4704 1.19867 11.7897 1.51797 12.4281 2.15643L13.3422 3.07054C13.9814 3.70972 14.3014 4.03007 14.4211 4.3986C14.5264 4.72276 14.5262 5.07125 14.4209 5.39542C14.3012 5.76395 13.9816 6.08379 13.3425 6.72297L6.72297 13.3425C6.08379 13.9816 5.76395 14.3012 5.39542 14.4209C5.07125 14.5262 4.72276 14.5264 4.3986 14.4211C4.03007 14.3014 3.70972 13.9814 3.07054 13.3422L2.15642 12.4281C1.51797 11.7897 1.19867 11.4704 1.079 11.102C0.973668 10.7779 0.973668 10.4288 1.079 10.1046C1.19874 9.73609 1.51833 9.41618 2.15751 8.77699Z" stroke="url(#paint0_linear_573_109)" stroke-width="1.8" stroke-linecap="round" stroke-linejoin="round"/>
<defs>
<linearGradient id="paint0_linear_573_109" x1="2.93081" y1="13.8603" x2="14.8454" y2="4.11162" gradientUnits="userSpaceOnUse">
<stop stop-color="#FFC025"/>
<stop offset="1" stop-color="#FFFF7F"/>
</linearGradient>
</defs>
</svg>
