<svg width="64" height="64" viewBox="0 0 64 64" fill="none" xmlns="http://www.w3.org/2000/svg">
<path fill-rule="evenodd" clip-rule="evenodd" d="M51.2321 11.6816C45.1723 5.80477 36.3257 3.05468 27.9912 4.29076C22.3154 5.10262 16.8956 7.70277 12.7593 11.6816C11.8706 12.4971 12.0206 14.0733 12.9824 14.7718C13.8674 15.4776 15.1913 15.2289 15.9227 14.4207C20.2053 10.4675 25.9835 8.1855 31.8129 8.18184C37.6057 8.10504 43.3986 10.2481 47.7176 14.1136C48.3649 14.706 49.133 15.3752 50.0911 15.1521C51.6673 14.9766 52.4023 12.7531 51.2321 11.6816ZM21.5618 15.4338C20.6512 15.3863 19.7222 15.964 19.4736 16.8637C19.0054 18.0632 19.9965 19.5115 21.2656 19.5699C22.5957 19.6281 23.9278 19.6158 25.2593 19.6035C26.6075 19.5911 27.9553 19.5787 29.3002 19.6394C29.7681 19.8892 29.7606 20.3755 29.7534 20.8384C29.7514 20.9652 29.7495 21.0903 29.7573 21.2083C29.7472 24.8134 29.7483 28.4175 29.7495 32.0216C29.7504 34.9069 29.7513 37.7923 29.7464 40.6783C29.3138 40.686 28.8812 40.6803 28.4488 40.6746C27.6419 40.664 26.8355 40.6533 26.0307 40.7295C25.4822 40.9672 25.815 41.6072 26.0272 41.9619C26.7488 43.2556 27.4646 44.5533 28.1806 45.8513C29.1627 47.6316 30.1451 49.4126 31.1434 51.1849C31.4067 51.8433 32.2478 51.814 32.5112 51.1704C33.4302 49.6126 34.3354 48.0459 35.2405 46.479C36.0715 45.0406 36.9025 43.6022 37.7444 42.1704C37.7832 42.0854 37.8378 41.9914 37.8953 41.8924C38.1196 41.5064 38.3873 41.0454 37.9273 40.7514C37.0755 40.6461 36.2161 40.6607 35.3569 40.6752C34.8735 40.6833 34.3901 40.6915 33.9082 40.6783C33.9033 37.7955 33.9042 34.9126 33.9051 32.0297C33.9062 28.4214 33.9074 24.813 33.8972 21.2046C33.9031 21.0946 33.9017 20.9794 33.9004 20.8627C33.895 20.3973 33.8894 19.9092 34.3397 19.6431C35.7798 19.5783 37.222 19.5894 38.6646 19.6006C39.9074 19.6102 41.1504 19.6198 42.3926 19.5809C43.6178 19.6284 44.6418 18.3887 44.415 17.1892C44.2651 16.0774 43.1423 15.3351 42.0635 15.4302C39.9628 15.4302 37.8617 15.4288 35.7604 15.4274C31.0283 15.4243 26.2951 15.4211 21.5618 15.4338Z" fill="url(#paint0_linear_1012_841)"/>
<path d="M27.9911 4.29072L28.1327 5.28066L28.1378 5.2799L27.9911 4.29072ZM51.232 11.6816L50.5359 12.3995L50.5462 12.4095L50.5567 12.4191L51.232 11.6816ZM12.7592 11.6816L13.4354 12.4184L13.444 12.4105L13.4525 12.4023L12.7592 11.6816ZM12.9823 14.7718L13.6058 13.99L13.5882 13.9759L13.57 13.9627L12.9823 14.7718ZM15.9226 14.4207L15.2443 13.6859L15.2113 13.7164L15.1812 13.7497L15.9226 14.4207ZM31.8128 8.1818L31.8134 9.18188L31.826 9.18171L31.8128 8.1818ZM47.7175 14.1136L48.3927 13.3758L48.3844 13.3684L47.7175 14.1136ZM50.091 15.1521L49.9803 14.1583L49.9217 14.1648L49.8642 14.1782L50.091 15.1521ZM19.4735 16.8637L20.4051 17.2273L20.4237 17.1795L20.4374 17.1301L19.4735 16.8637ZM21.5617 15.4338L21.5096 16.4325L21.537 16.4339L21.5644 16.4338L21.5617 15.4338ZM21.2655 19.5699L21.2195 20.5688L21.2218 20.5689L21.2655 19.5699ZM29.3001 19.6394L29.771 18.7572L29.5713 18.6506L29.3452 18.6404L29.3001 19.6394ZM29.7572 21.2083L30.7572 21.2111L30.7573 21.1764L30.755 21.1417L29.7572 21.2083ZM29.7463 40.6783L29.764 41.6782L30.7446 41.6608L30.7463 40.68L29.7463 40.6783ZM26.0306 40.7295L25.9364 39.7339L25.7785 39.7489L25.633 39.8119L26.0306 40.7295ZM26.0271 41.9619L26.9004 41.4748L26.893 41.4616L26.8853 41.4487L26.0271 41.9619ZM31.1433 51.1849L32.0719 50.8136L32.0472 50.752L32.0146 50.6942L31.1433 51.1849ZM32.5111 51.1704L31.6498 50.6622L31.613 50.7246L31.5856 50.7917L32.5111 51.1704ZM37.7443 42.1704L38.6063 42.6773L38.6326 42.6326L38.6542 42.5854L37.7443 42.1704ZM37.9272 40.7514L38.4658 39.9088L38.2748 39.7868L38.0499 39.759L37.9272 40.7514ZM33.9081 40.6783L32.9081 40.68L32.9097 41.6514L33.8807 41.678L33.9081 40.6783ZM33.8971 21.2046L32.8985 21.1512L32.897 21.1793L32.8971 21.2074L33.8971 21.2046ZM34.3396 19.6431L34.2947 18.6441L34.0456 18.6553L33.831 18.7821L34.3396 19.6431ZM42.3925 19.5809L42.4313 18.5816L42.3963 18.5803L42.3612 18.5814L42.3925 19.5809ZM44.4149 17.1892L43.4239 17.3229L43.4274 17.349L43.4323 17.375L44.4149 17.1892ZM42.0634 15.4302V16.4302H42.1073L42.1511 16.4263L42.0634 15.4302ZM28.1378 5.2799C36.1723 4.08832 44.7051 6.74475 50.5359 12.3995L51.9282 10.9637C45.6393 4.86472 36.479 2.02096 27.8444 3.30154L28.1378 5.2799ZM13.4525 12.4023C17.4342 8.57211 22.6597 6.06352 28.1327 5.28066L27.8495 3.3008C21.971 4.14166 16.3568 6.83335 12.066 10.9609L13.4525 12.4023ZM13.57 13.9627C13.3588 13.8093 13.2005 13.5267 13.1737 13.1909C13.147 12.858 13.2568 12.5823 13.4354 12.4184L12.0831 10.9448C11.373 11.5964 11.1134 12.5166 11.18 13.3503C11.2464 14.181 11.644 15.0357 12.3947 15.5809L13.57 13.9627ZM15.1812 13.7497C14.7298 14.2485 13.9966 14.3017 13.6058 13.99L12.3588 15.5536C13.738 16.6536 15.6526 16.2094 16.6641 15.0917L15.1812 13.7497ZM31.8121 7.1818C25.7292 7.18562 19.7097 9.56387 15.2443 13.6859L16.6009 15.1555C20.7006 11.3711 26.2375 9.18538 31.8134 9.18188L31.8121 7.1818ZM48.3844 13.3684C43.8764 9.3337 37.84 7.10181 31.7995 7.18189L31.826 9.18171C37.3713 9.1082 42.9206 11.1624 47.0506 14.8587L48.3844 13.3684ZM49.8642 14.1782C49.6893 14.2189 49.5104 14.1933 49.2653 14.0601C48.9947 13.913 48.7243 13.6793 48.3927 13.3758L47.0424 14.8512C47.3581 15.1402 47.7953 15.5374 48.3101 15.8172C48.8503 16.1109 49.5345 16.3084 50.3177 16.1261L49.8642 14.1782ZM50.5567 12.4191C50.7829 12.6262 50.8852 13.0043 50.7417 13.4399C50.598 13.8759 50.2884 14.124 49.9803 14.1583L50.2016 16.146C51.4697 16.0048 52.3158 15.0533 52.6412 14.0658C52.9667 13.0779 52.8514 11.8085 51.9074 10.9441L50.5567 12.4191ZM20.4374 17.1301C20.5444 16.7428 21.0022 16.406 21.5096 16.4325L21.6139 14.4352C20.3 14.3666 18.8998 15.1853 18.5096 16.5974L20.4374 17.1301ZM21.3115 18.5709C21.0499 18.5589 20.7538 18.3941 20.5488 18.0881C20.3452 17.7842 20.3126 17.4641 20.4051 17.2273L18.542 16.5001C18.1662 17.4628 18.3951 18.4666 18.8872 19.2013C19.378 19.9339 20.212 20.5224 21.2195 20.5688L21.3115 18.5709ZM25.25 18.6036C23.914 18.6159 22.6085 18.6277 21.3092 18.5708L21.2218 20.5689C22.5828 20.6285 23.9413 20.6157 25.2684 20.6035L25.25 18.6036ZM29.3452 18.6404C27.9686 18.5783 26.5936 18.5912 25.25 18.6036L25.2684 20.6035C26.6212 20.591 27.9417 20.5791 29.255 20.6384L29.3452 18.6404ZM30.7532 20.8539C30.7563 20.6546 30.7691 20.2721 30.6717 19.9033C30.5577 19.4724 30.2911 19.0348 29.771 18.7572L28.8292 20.5216C28.8211 20.5172 28.7924 20.4982 28.7651 20.4612C28.7402 20.4275 28.7355 20.4047 28.7381 20.4146C28.7417 20.4283 28.7489 20.4648 28.7525 20.5396C28.7563 20.6166 28.7553 20.7013 28.7534 20.8228L30.7532 20.8539ZM30.755 21.1417C30.7504 21.0722 30.7511 20.9895 30.7532 20.8539L28.7534 20.8228C28.7516 20.9409 28.7484 21.1084 28.7595 21.2748L30.755 21.1417ZM30.7494 32.0213C30.7482 28.4169 30.7471 24.8144 30.7572 21.2111L28.7572 21.2055C28.7471 24.8124 28.7482 28.418 28.7494 32.0219L30.7494 32.0213ZM30.7463 40.68C30.7512 37.7928 30.7503 34.9064 30.7494 32.0213L28.7494 32.0219C28.7503 34.9074 28.7512 37.7917 28.7463 40.6766L30.7463 40.68ZM28.4355 41.6745C28.8654 41.6802 29.3134 41.6861 29.764 41.6782L29.7286 39.6785C29.314 39.6858 28.8969 39.6804 28.4619 39.6747L28.4355 41.6745ZM26.1248 41.725C26.8672 41.6548 27.6197 41.6637 28.4355 41.6745L28.4619 39.6747C27.6639 39.6642 26.8037 39.6519 25.9364 39.7339L26.1248 41.725ZM26.8853 41.4487C26.8398 41.3726 26.7997 41.3008 26.7688 41.2339C26.7538 41.2013 26.7433 41.1749 26.7363 41.1546C26.7292 41.1338 26.728 41.1256 26.7285 41.1286C26.729 41.1313 26.733 41.1548 26.7305 41.1944C26.7278 41.2355 26.7178 41.2971 26.6873 41.368C26.6557 41.4413 26.6094 41.5074 26.554 41.5602C26.5003 41.6114 26.4522 41.6367 26.4283 41.647L25.633 39.8119C25.2966 39.9577 25.0077 40.2115 24.8504 40.5769C24.7045 40.9158 24.718 41.2437 24.7587 41.475C24.8352 41.9098 25.064 42.2999 25.1688 42.4751L26.8853 41.4487ZM29.0561 45.3682C28.3403 44.0706 27.6234 42.7709 26.9004 41.4748L25.1537 42.4491C25.874 43.7404 26.5887 45.036 27.3049 46.3343L29.0561 45.3682ZM32.0146 50.6942C31.0189 48.9263 30.0386 47.1492 29.0561 45.3682L27.3049 46.3343C28.2866 48.114 29.2712 49.8988 30.272 51.6757L32.0146 50.6942ZM31.5856 50.7917C31.6026 50.75 31.6787 50.6686 31.8073 50.6661C31.8665 50.6649 31.9297 50.6816 31.9847 50.7182C32.0427 50.7567 32.0666 50.8004 32.0719 50.8136L30.2148 51.5562C30.5001 52.2696 31.1524 52.6795 31.847 52.6657C32.5279 52.6522 33.1562 52.2344 33.4366 51.5491L31.5856 50.7917ZM34.3746 45.9788C33.469 47.5463 32.5661 49.1091 31.6498 50.6622L33.3724 51.6785C34.2941 50.1161 35.2015 48.5454 36.1063 46.9792L34.3746 45.9788ZM36.8823 41.6635C36.0381 43.0991 35.2052 44.541 34.3746 45.9788L36.1063 46.9792C36.9376 45.5403 37.7667 44.1052 38.6063 42.6773L36.8823 41.6635ZM37.0305 41.3901C36.9803 41.4767 36.8979 41.6165 36.8345 41.7554L38.6542 42.5854C38.6684 42.5543 38.6952 42.5061 38.7599 42.3947L37.0305 41.3901ZM37.3887 41.594C37.3613 41.5765 37.2739 41.5079 37.2188 41.3695C37.1665 41.2381 37.1792 41.1337 37.1849 41.1035C37.1892 41.0803 37.1903 41.0931 37.1595 41.1567C37.1293 41.2192 37.09 41.2878 37.0305 41.3901L38.7599 42.3947C38.8466 42.2455 39.0752 41.8753 39.1508 41.4713C39.1939 41.2409 39.2013 40.942 39.0768 40.6294C38.9496 40.3099 38.7231 40.0733 38.4658 39.9088L37.3887 41.594ZM35.3737 41.675C36.2448 41.6603 37.0338 41.6486 37.8046 41.7439L38.0499 39.759C37.1169 39.6437 36.1872 39.661 35.3399 39.6753L35.3737 41.675ZM33.8807 41.678C34.3885 41.6918 34.894 41.6831 35.3737 41.675L35.3399 39.6753C34.8528 39.6835 34.3915 39.6912 33.9354 39.6787L33.8807 41.678ZM32.905 32.0294C32.9041 34.9121 32.9032 37.796 32.9081 40.68L34.908 40.6766C34.9032 37.795 34.9041 34.9131 34.905 32.0301L32.905 32.0294ZM32.8971 21.2074C32.9073 24.814 32.9061 28.4208 32.905 32.0294L34.905 32.0301C34.9061 28.422 34.9073 24.812 34.8971 21.2018L32.8971 21.2074ZM32.9004 20.8742C32.9018 20.9975 32.9023 21.0795 32.8985 21.1512L34.8957 21.258C34.9036 21.1098 34.9015 20.9613 34.9002 20.8512L32.9004 20.8742ZM33.831 18.7821C33.333 19.0764 33.086 19.514 32.9798 19.932C32.8875 20.2957 32.898 20.6713 32.9004 20.8742L34.9002 20.8512C34.8988 20.7294 34.8981 20.6426 34.9021 20.5631C34.906 20.4857 34.9133 20.4442 34.9183 20.4243C34.9225 20.4076 34.9211 20.4228 34.902 20.4502C34.8806 20.4811 34.8569 20.499 34.8483 20.504L33.831 18.7821ZM38.6723 18.6006C37.2341 18.5895 35.7655 18.5779 34.2947 18.6441L34.3846 20.6421C35.794 20.5786 37.2098 20.5894 38.6568 20.6005L38.6723 18.6006ZM42.3612 18.5814C41.1417 18.6196 39.9183 18.6102 38.6723 18.6006L38.6568 20.6005C39.8963 20.6101 41.1588 20.62 42.4239 20.5804L42.3612 18.5814ZM43.4323 17.375C43.5451 17.9713 42.9859 18.6031 42.4313 18.5816L42.3537 20.5801C44.2494 20.6537 45.7383 18.8062 45.3975 17.0034L43.4323 17.375ZM42.1511 16.4263C42.7927 16.3698 43.3575 16.8303 43.4239 17.3229L45.406 17.0555C45.1725 15.3246 43.4917 14.3005 41.9756 14.434L42.1511 16.4263ZM35.7596 16.4274C37.8609 16.4288 39.9623 16.4302 42.0634 16.4302V14.4302C39.963 14.4302 37.8623 14.4288 35.7609 14.4274L35.7596 16.4274ZM21.5644 16.4338C26.2957 16.4211 31.0273 16.4243 35.7596 16.4274L35.7609 14.4274C31.0292 14.4243 26.2942 14.4211 21.559 14.4338L21.5644 16.4338Z" fill="url(#paint1_linear_1012_841)"/>
<path d="M6.07342 22.5614C7.41923 21.5483 9.60252 22.7917 9.30264 24.4777C8.91865 26.2001 8.39933 27.8969 8.27865 29.667C7.70083 35.4414 9.30264 41.4134 12.7659 46.0797C16.3974 51.0606 22.022 54.5421 28.1185 55.5149C34.0064 56.5023 40.26 55.1894 45.2081 51.8359C50.3536 48.4275 54.062 42.9457 55.309 36.9006C56.1794 32.9181 55.9088 28.7418 54.7605 24.8433C54.3399 23.6146 55.3639 22.192 56.6658 22.2103C57.6569 22.1262 58.5748 22.8795 58.7906 23.834C60.7691 30.2777 60.3047 37.4345 57.5106 43.5637C54.9323 49.265 50.3865 54.0411 44.8204 56.8973C40.1723 59.3036 34.8292 60.3494 29.6142 59.885C22.4902 59.3328 15.6843 55.8366 10.9885 50.4682C5.04577 43.8234 2.65402 34.2492 4.74223 25.5858C5.0604 24.5471 5.1116 23.2452 6.07342 22.5614Z" fill="url(#paint2_linear_1012_841)" stroke="url(#paint3_linear_1012_841)" stroke-width="2"/>
<defs>
<linearGradient id="paint0_linear_1012_841" x1="31.9884" y1="51.666" x2="31.9884" y2="4" gradientUnits="userSpaceOnUse">
<stop stop-color="#A93AFF"/>
<stop offset="1" stop-color="#FF81FF"/>
</linearGradient>
<linearGradient id="paint1_linear_1012_841" x1="31.9877" y1="52.666" x2="31.9877" y2="3" gradientUnits="userSpaceOnUse">
<stop stop-color="#A93AFF"/>
<stop offset="1" stop-color="#FF81FF"/>
</linearGradient>
<linearGradient id="paint2_linear_1012_841" x1="32" y1="59.9926" x2="32" y2="22.1963" gradientUnits="userSpaceOnUse">
<stop stop-color="#A93AFF"/>
<stop offset="1" stop-color="#FF81FF"/>
</linearGradient>
<linearGradient id="paint3_linear_1012_841" x1="32" y1="59.9927" x2="32" y2="22.1964" gradientUnits="userSpaceOnUse">
<stop stop-color="#A93AFF"/>
<stop offset="1" stop-color="#FF81FF"/>
</linearGradient>
</defs>
</svg>
