<svg width="16" height="16" viewBox="0 0 16 16" fill="none" xmlns="http://www.w3.org/2000/svg">
<path fill-rule="evenodd" clip-rule="evenodd" d="M0.200195 2.6498C0.200195 1.62808 1.02847 0.799805 2.0502 0.799805C3.07192 0.799805 3.9002 1.62808 3.9002 2.6498V11.777C3.9002 12.4878 3.68982 13.1826 3.29558 13.774L2.71584 14.6436C2.56746 14.8661 2.31768 14.9998 2.0502 14.9998C1.78271 14.9998 1.53293 14.8661 1.38455 14.6436L0.804814 13.774C0.410573 13.1826 0.200195 12.4878 0.200195 11.777V2.6498ZM2.0002 3.1998C1.88974 3.1998 1.8002 3.28935 1.8002 3.3998V11.777C1.8002 11.9951 1.83584 12.2105 1.90465 12.4149C1.9548 12.5639 2.14559 12.5639 2.19574 12.4149C2.26455 12.2105 2.3002 11.9951 2.3002 11.777V3.3998C2.3002 3.28935 2.21065 3.1998 2.1002 3.1998H2.0002ZM4.4002 3.6998C4.4002 2.09818 5.69857 0.799805 7.3002 0.799805H12.9002C14.5018 0.799805 15.8002 2.09818 15.8002 3.6998V12.0998C15.8002 13.7014 14.5018 14.9998 12.9002 14.9998H7.3002C5.69857 14.9998 4.4002 13.7014 4.4002 12.0998V3.6998ZM7.3002 2.3998C6.58223 2.3998 6.0002 2.98183 6.0002 3.6998V12.0998C6.0002 12.8178 6.58223 13.3998 7.3002 13.3998H12.9002C13.6182 13.3998 14.2002 12.8178 14.2002 12.0998V3.6998C14.2002 2.98183 13.6182 2.3998 12.9002 2.3998H7.3002ZM7.2002 5.0998C7.2002 4.65798 7.55837 4.2998 8.0002 4.2998H12.2002C12.642 4.2998 13.0002 4.65798 13.0002 5.0998C13.0002 5.54163 12.642 5.89981 12.2002 5.89981H8.0002C7.55837 5.89981 7.2002 5.54163 7.2002 5.0998ZM7.2002 7.8998C7.2002 7.45798 7.55837 7.0998 8.0002 7.0998H12.2002C12.642 7.0998 13.0002 7.45798 13.0002 7.8998C13.0002 8.34163 12.642 8.6998 12.2002 8.6998H8.0002C7.55837 8.6998 7.2002 8.34163 7.2002 7.8998ZM7.2002 10.6998C7.2002 10.258 7.55837 9.89981 8.0002 9.89981H10.1002C10.542 9.89981 10.9002 10.258 10.9002 10.6998C10.9002 11.1416 10.542 11.4998 10.1002 11.4998H8.0002C7.55837 11.4998 7.2002 11.1416 7.2002 10.6998Z" fill="url(#paint0_linear_482_69)"/>
<defs>
<linearGradient id="paint0_linear_482_69" x1="1.1752" y1="15.0075" x2="17.197" y2="2.6131" gradientUnits="userSpaceOnUse">
<stop stop-color="#2E4AFA"/>
<stop offset="1" stop-color="#8E9EFF"/>
</linearGradient>
</defs>
</svg>
