<svg width="64" height="64" viewBox="0 0 64 64" fill="none" xmlns="http://www.w3.org/2000/svg">
<path fill-rule="evenodd" clip-rule="evenodd" d="M26.2377 12.2147C27.9433 10.1398 30.0142 8.44327 32.7253 8.42107C35.4406 8.4012 37.4743 10.117 39.046 12.2032C40.0041 13.4747 40.8749 14.9311 41.7786 16.4426C42.3577 17.4111 42.9503 18.4022 43.588 19.3816C46.8417 24.3793 50.9174 29.0181 59.8994 29.0524C59.955 29.0522 60 29.0977 60 29.1531V31.8576C60 31.9361 59.9365 31.9998 59.858 32.0001C55.4443 32.028 52.2964 33.3608 49.7591 35.373C47.1946 37.4066 45.274 40.1912 43.634 43.0696C42.9931 44.1945 42.3981 45.3297 41.818 46.4363C40.914 48.161 40.0464 49.8163 39.0979 51.2554C38.3194 52.4365 37.4816 53.4837 36.4441 54.2775C35.4067 55.0715 34.1257 55.5889 32.7253 55.5786C29.9285 55.5557 27.8732 53.603 26.18 51.2496C25.1579 49.8289 24.1983 48.1944 23.1973 46.4894C22.5403 45.3702 21.8652 44.2205 21.1431 43.0811C17.5178 37.3608 13.032 32.0563 4.14289 32.0001C4.06396 32 4 31.936 4 31.8571V29.1536C4 29.098 4.04504 29.0522 4.10061 29.0524C13.0928 29.018 17.5767 24.3644 21.1949 19.37C21.9134 18.3784 22.5857 17.3761 23.2416 16.3983C24.2434 14.9049 25.2069 13.4686 26.2377 12.2147ZM23.2531 21.5462C23.1266 21.7167 23.3575 21.9388 23.5189 21.801C24.518 20.9477 25.4871 20.1198 26.5313 19.3934C28.2627 18.1887 30.2706 17.2815 32.7253 17.2634C35.1838 17.2455 37.1474 18.1558 38.7583 19.3762C39.7465 20.1248 40.6347 20.9762 41.5453 21.8491C41.5964 21.898 41.6767 21.8294 41.6368 21.7709C41.4593 21.5113 41.2867 21.252 41.1185 20.9934C40.405 19.8977 39.7549 18.8154 39.1432 17.7974C38.2715 16.3465 37.4781 15.0258 36.6916 13.9819C35.3533 12.2055 34.2619 11.3574 32.7483 11.3685C31.2308 11.3809 29.9913 12.2855 28.5115 14.0855C27.6484 15.1356 26.7649 16.4491 25.7986 17.886C25.1084 18.9124 24.3759 20.0017 23.5781 21.1028C23.4712 21.2504 23.3628 21.3983 23.2531 21.5462ZM23.63 41.4979C21.5559 38.2254 18.9475 34.8339 15.3626 32.4193C14.5575 31.877 14.7078 30.4849 15.6205 30.1539C18.8673 28.9764 21.3042 27.3816 23.296 25.812C24.1066 25.1732 24.8472 24.5456 25.5412 23.9574C26.5021 23.143 27.3738 22.4043 28.2179 21.8169C29.6717 20.8053 30.9743 20.2238 32.7483 20.2108C34.5187 20.1978 35.68 20.7461 36.9794 21.7305C37.739 22.306 38.5139 23.0431 39.3772 23.8643C39.9907 24.4478 40.6488 25.0737 41.3775 25.7141C43.1855 27.3029 45.4508 28.924 48.5756 30.1219C49.4738 30.4663 49.6199 31.8413 48.8312 32.3922C48.5215 32.6085 48.2206 32.8329 47.9285 33.0645C44.9058 35.4616 42.7953 38.5833 41.0723 41.6073C40.3617 42.8547 39.7134 44.0899 39.1019 45.2549C38.231 46.9145 37.4348 48.4316 36.6398 49.6377C35.9632 50.6643 35.2903 51.4533 34.6538 51.9404C34.0172 52.4276 33.4623 52.6364 32.7483 52.6312C31.3164 52.6194 30.0613 51.6025 28.5691 49.5284C27.6967 48.3158 26.8083 46.8053 25.8396 45.158C25.1513 43.9878 24.4224 42.7484 23.63 41.4979Z" fill="url(#paint0_linear_1005_383)" stroke="url(#paint1_linear_1005_383)" stroke-width="3"/>
<defs>
<linearGradient id="paint0_linear_1005_383" x1="31.9999" y1="55.5788" x2="31.9999" y2="8.4209" gradientUnits="userSpaceOnUse">
<stop stop-color="#00B59C"/>
<stop offset="1" stop-color="#9CFFAC"/>
</linearGradient>
<linearGradient id="paint1_linear_1005_383" x1="31.9999" y1="55.5788" x2="31.9999" y2="8.4209" gradientUnits="userSpaceOnUse">
<stop stop-color="#00B59C"/>
<stop offset="1" stop-color="#9CFFAC"/>
</linearGradient>
</defs>
</svg>
