<svg width="128" height="128" viewBox="0 0 128 128" fill="none" xmlns="http://www.w3.org/2000/svg">
<path fill-rule="evenodd" clip-rule="evenodd" d="M18 9.48278V64.0001L18.0008 118.517C18.0008 120.061 19.6767 121.025 21.0179 120.261C25.277 117.834 29.7194 115.408 34.1597 112.984C39.1607 110.254 44.1588 107.525 48.8888 104.797C49.5147 104.436 49.8927 103.764 49.8955 103.042C49.9003 101.817 49.9327 100.478 49.966 99.1035C50.0124 97.1886 50.0605 95.2063 50.0374 93.3751C50.0191 91.9166 48.4556 91.0807 47.1878 91.8018C42.5965 94.4134 37.9011 97.0751 33.2935 99.6871L32.6339 100.061C31.3039 100.815 29.6542 99.8578 29.6482 98.3289C29.5705 78.6352 29.5639 59.6199 29.5571 40.3307C29.554 31.3944 29.5509 22.3993 29.5406 13.2508C29.5398 12.5402 29.1632 11.8802 28.5417 11.5357C27.0505 10.7092 25.4132 9.88196 23.7757 9.05468C22.8609 8.59249 21.946 8.13028 21.0565 7.66814C19.6867 6.95641 18 7.93907 18 9.48278ZM58.6039 86.2923C58.6025 85.5803 58.9741 84.9246 59.5887 84.5651C63.8047 82.0993 80.5943 72.2769 91.7434 65.7165C93.057 64.9435 93.0504 63.0479 91.7363 62.2758C82.2797 56.7198 73.7835 51.7743 64.9037 46.6054L64.9034 46.6053C61.0255 44.348 57.0744 42.0481 52.9381 39.6362C51.6098 38.8615 49.9403 39.8137 49.9316 41.3514C49.8835 49.9468 49.8759 58.0045 49.868 66.3034V66.3055C49.8643 70.2029 49.8605 74.1535 49.8525 78.238C49.8511 78.9489 49.4736 79.6082 48.8508 79.9509C47.361 80.7707 45.7153 81.5904 44.0699 82.41L44.0697 82.4101C43.1541 82.8661 42.2386 83.3222 41.35 83.7782C39.9798 84.4813 38.2973 83.5005 38.2943 81.9605C38.2536 61.7138 38.2534 41.4671 38.2942 21.2204C38.2973 19.6779 39.972 18.7201 41.303 19.4996C57.075 28.7359 72.559 37.9147 88.1129 47.1349L88.1149 47.1361C96.6181 52.1767 105.142 57.2297 113.746 62.3112C115.042 63.077 115.06 64.9471 113.778 65.737L61.6724 97.8425C60.3414 98.6626 58.6263 97.7071 58.6232 96.1437L58.6039 86.2923ZM71.0282 65.9396L66.3144 68.6611L61.6006 71.3827C60.2673 72.1525 58.6006 71.1902 58.6006 69.6506L58.6006 64.2076L58.6006 58.7645C58.6006 57.2249 60.2673 56.2627 61.6006 57.0325L66.3144 59.754L71.0282 62.4755C72.3615 63.2453 72.3615 65.1698 71.0282 65.9396Z" fill="url(#paint0_linear_715_2)"/>
<path d="M18 64.0001L16.5 64.0001L16.5 64.0002L18 64.0001ZM18.0008 118.517L16.5008 118.517L18.0008 118.517ZM21.0179 120.261L21.7607 121.564L21.7607 121.564L21.0179 120.261ZM34.1597 112.984L33.4409 111.668L33.4409 111.668L34.1597 112.984ZM48.8888 104.797L49.6383 106.096L49.6383 106.096L48.8888 104.797ZM49.8955 103.042L48.3955 103.036L48.3955 103.036L49.8955 103.042ZM49.966 99.1035L48.4665 99.0672L48.4665 99.0672L49.966 99.1035ZM50.0374 93.3751L51.5373 93.3562L51.5373 93.3562L50.0374 93.3751ZM47.1878 91.8018L46.4462 90.498L46.4462 90.498L47.1878 91.8018ZM33.2935 99.6871L34.0332 100.992L34.0332 100.992L33.2935 99.6871ZM32.6339 100.061L31.8942 98.7561L31.8942 98.7561L32.6339 100.061ZM29.6482 98.3289L31.1482 98.323L31.1482 98.323L29.6482 98.3289ZM29.5571 40.3307L31.0571 40.3302L29.5571 40.3307ZM29.5406 13.2508L31.0406 13.2491L31.0406 13.2491L29.5406 13.2508ZM28.5417 11.5357L27.8145 12.8477L27.8145 12.8477L28.5417 11.5357ZM23.7757 9.05468L23.0993 10.3935L23.0993 10.3935L23.7757 9.05468ZM21.0565 7.66814L20.365 8.9992L20.365 8.9992L21.0565 7.66814ZM59.5887 84.5651L60.346 85.8599L60.346 85.8599L59.5887 84.5651ZM58.6039 86.2923L57.1039 86.2953L57.1039 86.2953L58.6039 86.2923ZM91.7434 65.7165L92.5041 67.0093L92.5041 67.0093L91.7434 65.7165ZM91.7363 62.2758L90.9764 63.5691L90.9764 63.5691L91.7363 62.2758ZM64.9037 46.6054L65.6583 45.3091L65.6501 45.3043L65.6418 45.2996L64.9037 46.6054ZM64.9034 46.6053L64.1488 47.9017L64.157 47.9064L64.1653 47.9111L64.9034 46.6053ZM52.9381 39.6362L52.1825 40.9319L52.1825 40.9319L52.9381 39.6362ZM49.9316 41.3514L51.4316 41.3598L51.4316 41.3598L49.9316 41.3514ZM49.868 66.3034L48.368 66.302V66.3034H49.868ZM49.868 66.3055L51.368 66.3069V66.3055H49.868ZM49.8525 78.238L48.3525 78.2351L48.3525 78.2351L49.8525 78.238ZM48.8508 79.9509L49.574 81.2651L49.574 81.2651L48.8508 79.9509ZM44.0699 82.41L43.4011 81.0673L43.3628 81.0864L43.3256 81.1076L44.0699 82.41ZM44.0697 82.4101L44.7385 83.7528L44.7768 83.7337L44.8139 83.7125L44.0697 82.4101ZM41.35 83.7782L40.6651 82.4436L40.6651 82.4436L41.35 83.7782ZM38.2943 81.9605L39.7942 81.9575L39.7942 81.9575L38.2943 81.9605ZM38.2942 21.2204L39.7942 21.2234L39.7942 21.2234L38.2942 21.2204ZM41.303 19.4996L40.545 20.794L40.545 20.794L41.303 19.4996ZM88.1129 47.1349L87.348 48.4252L87.3488 48.4257L88.1129 47.1349ZM88.1149 47.1361L88.8798 45.8457L88.879 45.8453L88.1149 47.1361ZM113.746 62.3112L112.983 63.6027L112.983 63.6027L113.746 62.3112ZM113.778 65.737L112.991 64.46L112.991 64.46L113.778 65.737ZM61.6724 97.8425L62.4592 99.1195L62.4592 99.1195L61.6724 97.8425ZM58.6232 96.1437L57.1232 96.1466L57.1232 96.1466L58.6232 96.1437ZM71.0282 65.9396L70.2782 64.6406L70.2782 64.6406L71.0282 65.9396ZM61.6006 71.3827L60.8506 70.0836L60.8506 70.0836L61.6006 71.3827ZM58.6006 69.6506L60.1006 69.6506L60.1006 69.6506L58.6006 69.6506ZM58.6006 64.2076L60.1006 64.2076L60.1006 64.2076L58.6006 64.2076ZM58.6006 58.7645L60.1006 58.7645L60.1006 58.7645L58.6006 58.7645ZM61.6006 57.0325L62.3506 55.7334L62.3506 55.7334L61.6006 57.0325ZM66.3144 59.754L67.0644 58.455L67.0644 58.455L66.3144 59.754ZM71.0282 62.4755L70.2782 63.7746L70.2782 63.7746L71.0282 62.4755ZM19.5 64.0001V9.48278H16.5V64.0001H19.5ZM19.5008 118.517L19.5 64.0001L16.5 64.0002L16.5008 118.517L19.5008 118.517ZM20.2752 118.958C19.9234 119.158 19.5008 118.898 19.5008 118.517L16.5008 118.517C16.5008 121.224 19.4301 122.892 21.7607 121.564L20.2752 118.958ZM33.4409 111.668C29.003 114.091 24.5482 116.523 20.2752 118.958L21.7607 121.564C26.0057 119.145 30.4359 116.726 34.8784 114.301L33.4409 111.668ZM48.1394 103.498C43.4273 106.216 38.4449 108.936 33.4409 111.668L34.8784 114.301C39.8764 111.572 44.8903 108.835 49.6383 106.096L48.1394 103.498ZM48.3955 103.036C48.3948 103.241 48.288 103.412 48.1394 103.498L49.6383 106.096C50.7414 105.46 51.3907 104.287 51.3955 103.047L48.3955 103.036ZM48.4665 99.0672C48.4333 100.438 48.4004 101.793 48.3955 103.036L51.3955 103.047C51.4002 101.841 51.4322 100.518 51.4656 99.1399L48.4665 99.0672ZM48.5375 93.3939C48.5602 95.1925 48.513 97.1463 48.4665 99.0672L51.4656 99.1399C51.5118 97.2309 51.5607 95.2201 51.5373 93.3562L48.5375 93.3939ZM47.9294 93.1057C48.0959 93.0109 48.2508 93.0268 48.3624 93.0877C48.4665 93.1445 48.5356 93.238 48.5375 93.3939L51.5373 93.3562C51.5036 90.6743 48.635 89.253 46.4462 90.498L47.9294 93.1057ZM34.0332 100.992C38.6407 98.3801 43.337 95.7178 47.9294 93.1057L46.4462 90.498C41.8559 93.1089 37.1615 95.7701 32.5538 98.3822L34.0332 100.992ZM33.3737 101.366L34.0332 100.992L32.5538 98.3822L31.8942 98.7561L33.3737 101.366ZM28.1482 98.3349C28.1587 101.01 31.0456 102.686 33.3737 101.366L31.8942 98.7561C31.5623 98.9442 31.1497 98.7056 31.1482 98.323L28.1482 98.3349ZM28.0571 40.3312C28.0639 59.62 28.0705 78.638 28.1482 98.3349L31.1482 98.323C31.0705 78.6324 31.0639 59.6198 31.0571 40.3302L28.0571 40.3312ZM28.0406 13.2524C28.0509 22.4003 28.054 31.3948 28.0571 40.3312L31.0571 40.3302C31.054 31.394 31.0509 22.3983 31.0406 13.2491L28.0406 13.2524ZM27.8145 12.8477C27.9436 12.9193 28.0404 13.0681 28.0406 13.2524L31.0406 13.2491C31.0392 12.0123 30.3827 10.8412 29.2689 10.2238L27.8145 12.8477ZM23.0993 10.3935C24.7424 11.2237 26.3531 12.0376 27.8145 12.8477L29.2689 10.2238C27.7479 9.38073 26.0839 8.54026 24.4521 7.71585L23.0993 10.3935ZM20.365 8.9992C21.2633 9.46595 22.1859 9.93203 23.0993 10.3935L24.4521 7.71585C23.5359 7.25295 22.6287 6.79462 21.7481 6.33708L20.365 8.9992ZM19.5 9.48278C19.5 9.29403 19.5942 9.12926 19.7766 9.02172C19.9625 8.91205 20.1772 8.90163 20.365 8.9992L21.7481 6.33708C19.4242 5.12966 16.5 6.76404 16.5 9.48278H19.5ZM58.8314 83.2703C57.7512 83.9021 57.1015 85.0548 57.1039 86.2953L60.1039 86.2894C60.1036 86.1059 60.197 85.9471 60.346 85.8599L58.8314 83.2703ZM90.9827 64.4237C79.8356 70.9829 63.0476 80.8044 58.8314 83.2703L60.346 85.8599C64.5617 83.3942 81.3531 73.5708 92.5041 67.0093L90.9827 64.4237ZM90.9764 63.5691C91.3116 63.7661 91.3026 64.2355 90.9827 64.4237L92.5041 67.0093C94.8114 65.6516 94.7891 62.3297 92.4961 60.9825L90.9764 63.5691ZM64.1491 47.9018C73.0292 53.0708 81.5229 58.0149 90.9764 63.5691L92.4961 60.9825C83.0366 55.4248 74.5379 50.4778 65.6583 45.3091L64.1491 47.9018ZM64.1653 47.9111L64.1656 47.9113L65.6418 45.2996L65.6415 45.2994L64.1653 47.9111ZM52.1825 40.9319C56.3193 43.3442 60.2709 45.6444 64.1488 47.9017L65.658 45.3089C61.78 43.0516 57.8294 40.752 53.6937 38.3404L52.1825 40.9319ZM51.4316 41.3598C51.4338 40.9769 51.8501 40.7381 52.1825 40.9319L53.6938 38.3404C51.3694 36.985 48.4467 38.6505 48.4317 41.343L51.4316 41.3598ZM51.368 66.3048C51.3759 58.0054 51.3835 49.9512 51.4316 41.3598L48.4317 41.343C48.3835 49.9424 48.3759 58.0035 48.368 66.302L51.368 66.3048ZM51.368 66.3055V66.3034H48.368V66.3055H51.368ZM51.3525 78.241C51.3605 74.1556 51.3643 70.2042 51.368 66.3069L48.368 66.3041C48.3643 70.2016 48.3605 74.1514 48.3525 78.2351L51.3525 78.241ZM49.574 81.2651C50.6916 80.6501 51.3501 79.4784 51.3525 78.241L48.3525 78.2351C48.3522 78.4193 48.2556 78.5664 48.1277 78.6368L49.574 81.2651ZM44.7386 83.7527C46.3779 82.9361 48.0522 82.1025 49.574 81.2651L48.1277 78.6367C46.6697 79.439 45.0527 80.2447 43.4011 81.0673L44.7386 83.7527ZM44.8139 83.7125L44.8141 83.7124L43.3256 81.1076L43.3255 81.1077L44.8139 83.7125ZM42.0348 85.1127C42.914 84.6615 43.8214 84.2095 44.7385 83.7528L43.4009 81.0674C42.4868 81.5227 41.5631 81.9828 40.6651 82.4436L42.0348 85.1127ZM36.7943 81.9635C36.7997 84.677 39.715 86.3031 42.0348 85.1127L40.6651 82.4436C40.4762 82.5405 40.2596 82.5296 40.0723 82.419C39.8887 82.3105 39.7946 82.1453 39.7942 81.9575L36.7943 81.9635ZM36.7942 21.2174C36.7534 41.4661 36.7536 61.7148 36.7943 81.9635L39.7942 81.9575C39.7536 61.7128 39.7534 41.4681 39.7942 21.2234L36.7942 21.2174ZM42.061 18.2052C39.7311 16.8408 36.7996 18.5175 36.7942 21.2174L39.7942 21.2234C39.795 20.8383 40.2128 20.5995 40.545 20.794L42.061 18.2052ZM88.8778 45.8446C73.3245 36.6247 57.837 27.4439 42.061 18.2052L40.545 20.794C56.3129 30.028 71.7936 39.2047 87.348 48.4252L88.8778 45.8446ZM88.879 45.8453L88.877 45.8441L87.3488 48.4257L87.3508 48.4269L88.879 45.8453ZM114.508 61.0197C105.906 55.9389 97.3832 50.8865 88.8798 45.8457L87.35 48.4264C95.8531 53.4669 104.378 58.5205 112.983 63.6027L114.508 61.0197ZM114.565 67.0141C116.809 65.6314 116.777 62.3593 114.508 61.0197L112.983 63.6027C113.308 63.7947 113.311 64.2628 112.991 64.46L114.565 67.0141ZM62.4592 99.1195L114.565 67.0141L112.991 64.46L60.8855 96.5654L62.4592 99.1195ZM57.1232 96.1466C57.1286 98.8825 60.13 100.555 62.4592 99.1195L60.8855 96.5654C60.5528 96.7705 60.124 96.5316 60.1232 96.1407L57.1232 96.1466ZM57.1039 86.2953L57.1232 96.1466L60.1232 96.1407L60.1039 86.2894L57.1039 86.2953ZM67.0644 69.9602L71.7782 67.2387L70.2782 64.6406L65.5644 67.3621L67.0644 69.9602ZM62.3506 72.6817L67.0644 69.9602L65.5644 67.3621L60.8506 70.0836L62.3506 72.6817ZM57.1006 69.6506C57.1006 72.3449 60.0173 74.0289 62.3506 72.6817L60.8506 70.0836C60.5173 70.2761 60.1006 70.0355 60.1006 69.6506L57.1006 69.6506ZM57.1006 64.2076L57.1006 69.6506L60.1006 69.6506L60.1006 64.2076L57.1006 64.2076ZM57.1006 58.7645L57.1006 64.2076L60.1006 64.2076L60.1006 58.7645L57.1006 58.7645ZM62.3506 55.7334C60.0173 54.3863 57.1006 56.0702 57.1006 58.7645L60.1006 58.7645C60.1006 58.3796 60.5173 58.1391 60.8506 58.3315L62.3506 55.7334ZM67.0644 58.455L62.3506 55.7334L60.8506 58.3315L65.5644 61.053L67.0644 58.455ZM71.7782 61.1765L67.0644 58.455L65.5644 61.053L70.2782 63.7746L71.7782 61.1765ZM71.7782 67.2387C74.1115 65.8915 74.1115 62.5236 71.7782 61.1765L70.2782 63.7746C70.6115 63.967 70.6115 64.4481 70.2782 64.6406L71.7782 67.2387Z" fill="url(#paint1_linear_715_2)"/>
<defs>
<linearGradient id="paint0_linear_715_2" x1="26.998" y1="63.9803" x2="98.2326" y2="63.9803" gradientUnits="userSpaceOnUse">
<stop stop-color="#5570FF"/>
<stop offset="1" stop-color="#4DD3FF"/>
</linearGradient>
<linearGradient id="paint1_linear_715_2" x1="26.998" y1="63.9803" x2="98.2326" y2="63.9803" gradientUnits="userSpaceOnUse">
<stop stop-color="#5570FF"/>
<stop offset="1" stop-color="#4DD3FF"/>
</linearGradient>
</defs>
</svg>
