<svg width="24" height="24" viewBox="0 0 24 24" fill="none" xmlns="http://www.w3.org/2000/svg">
<path d="M13.9257 17.5982C14.1697 17.4085 14.3914 17.1868 14.8336 16.7448L20.3515 11.2253C20.4855 11.0929 20.424 10.8627 20.2469 10.8C19.3835 10.4991 18.5995 10.006 17.9543 9.35801C17.3064 8.71286 16.8134 7.92898 16.5124 7.06551C16.4497 6.88841 16.2196 6.82706 16.0872 6.96093L10.5663 12.4789C10.1243 12.921 9.90253 13.1428 9.71288 13.3868C9.48833 13.6754 9.29449 13.9864 9.13836 14.3156C9.00584 14.5945 8.90683 14.8929 8.7088 15.487L8.45226 16.2539L8.04504 17.474L7.66436 18.6175C7.61688 18.7609 7.61016 18.9145 7.64506 19.0615C7.67984 19.2084 7.75486 19.3427 7.86162 19.4494C7.96837 19.5562 8.10267 19.6312 8.24954 19.666C8.39654 19.7009 8.55013 19.6942 8.69357 19.6467L9.83703 19.266L11.0572 18.8588L11.8241 18.6023C12.4182 18.4042 12.7166 18.3066 12.9955 18.1727C13.3246 18.0152 13.6384 17.8241 13.9257 17.5982ZM22.0793 9.49752C22.3673 9.21927 22.5969 8.88644 22.755 8.51856C22.913 8.15063 22.9962 7.75491 22.9996 7.3545C23.0032 6.95408 22.9269 6.55698 22.7753 6.18636C22.6236 5.81573 22.3998 5.47901 22.1166 5.19581C21.8335 4.91262 21.4969 4.68863 21.1264 4.5369C20.7557 4.38518 20.3587 4.30877 19.9583 4.31212C19.5578 4.31546 19.1621 4.3985 18.7941 4.5564C18.4262 4.71428 18.0933 4.94386 17.8149 5.23174L17.6379 5.41024C17.5535 5.49348 17.4905 5.59601 17.4546 5.70898C17.4186 5.82194 17.4106 5.94197 17.4315 6.05869C17.4594 6.2079 17.5081 6.42824 17.5988 6.689C17.78 7.21194 18.1232 7.89804 18.7688 8.54369C19.2902 9.06936 19.9245 9.46946 20.6234 9.71369C20.8856 9.80433 21.1045 9.85307 21.2538 9.881C21.3705 9.90169 21.4904 9.89369 21.6034 9.85777C21.7164 9.82184 21.8189 9.75901 21.9022 9.6746L22.0793 9.49752Z" fill="url(#paint0_linear_1005_441)"/>
<path fill-rule="evenodd" clip-rule="evenodd" d="M1 7.13816C1 6.86078 1.11018 6.59476 1.30633 6.39861C1.50246 6.20248 1.76848 6.09229 2.04587 6.09229H11.1102C11.3875 6.09229 11.6536 6.20248 11.8497 6.39861C12.0458 6.59476 12.156 6.86078 12.156 7.13816C12.156 7.41554 12.0458 7.68156 11.8497 7.8777C11.6536 8.07385 11.3875 8.18403 11.1102 8.18403H2.04587C1.76848 8.18403 1.50246 8.07385 1.30633 7.8777C1.11018 7.68156 1 7.41554 1 7.13816ZM1 12.7161C1 12.4388 1.11018 12.1727 1.30633 11.9766C1.50246 11.7805 1.76848 11.6703 2.04587 11.6703H6.22937C6.50676 11.6703 6.77282 11.7805 6.96894 11.9766C7.16505 12.1727 7.27524 12.4388 7.27524 12.7161C7.27524 12.9935 7.16505 13.2596 6.96894 13.4557C6.77282 13.6518 6.50676 13.762 6.22937 13.762H2.04587C1.76848 13.762 1.50246 13.6518 1.30633 13.4557C1.11018 13.2596 1 12.9935 1 12.7161ZM1 18.2942C1 18.0167 1.11018 17.7508 1.30633 17.5546C1.50246 17.3584 1.76848 17.2482 2.04587 17.2482H4.13761C4.415 17.2482 4.68101 17.3584 4.87715 17.5546C5.07328 17.7508 5.18349 18.0167 5.18349 18.2942C5.18349 18.5715 5.07328 18.8376 4.87715 19.0337C4.68101 19.2298 4.415 19.34 4.13761 19.34H2.04587C1.76848 19.34 1.50246 19.2298 1.30633 19.0337C1.11018 18.8376 1 18.5715 1 18.2942Z" fill="url(#paint1_linear_1005_441)"/>
<defs>
<linearGradient id="paint0_linear_1005_441" x1="15.3114" y1="19.688" x2="15.3114" y2="4.312" gradientUnits="userSpaceOnUse">
<stop stop-color="#00B59C"/>
<stop offset="1" stop-color="#9CFFAC"/>
</linearGradient>
<linearGradient id="paint1_linear_1005_441" x1="6.57797" y1="19.34" x2="6.57797" y2="6.09229" gradientUnits="userSpaceOnUse">
<stop stop-color="#00B59C"/>
<stop offset="1" stop-color="#9CFFAC"/>
</linearGradient>
</defs>
</svg>
