<svg width="32" height="32" viewBox="0 0 32 32" fill="none" xmlns="http://www.w3.org/2000/svg">
<path d="M9.84449 21.2934C9.53866 21.1199 9.16418 21.1198 8.85824 21.2931L5.71813 23.0717C5.04196 23.4547 5.04191 24.4288 5.71804 24.8119L13.3826 29.1542C14.0493 29.5319 14.8755 29.0503 14.8755 28.2841V24.7298C14.8755 24.3698 14.6821 24.0376 14.369 23.86L9.84449 21.2934ZM22.6366 21.0216L22.6359 21.0229L17.6211 23.8528C17.3069 24.0301 17.1126 24.3629 17.1126 24.7237V28.2822C17.1126 29.048 17.9383 29.5296 18.6049 29.1525L26.2692 24.8171C26.9459 24.4343 26.9461 23.4596 26.2696 23.0765L22.6388 21.0204L22.6366 21.0216ZM28.925 11.6665C28.9253 10.9005 28.0995 10.4186 27.4328 10.7956L24.263 12.588C23.9492 12.7654 23.7552 13.098 23.7552 13.4585V18.5472C23.7552 18.9076 23.949 19.24 24.2626 19.4175L27.4293 21.2096C28.0958 21.5868 28.9216 21.1055 28.9219 20.3397L28.925 11.6665ZM4.57168 10.7867C3.90519 10.4097 3.07957 10.891 3.07929 11.6567L3.07617 20.3305C3.0759 21.0961 3.90106 21.5781 4.56782 21.2016L7.73764 19.4119C8.05174 19.2346 8.24599 18.9018 8.24599 18.5411V13.4485C8.24599 13.0881 8.05206 12.7556 7.73837 12.5781L4.57168 10.7867ZM17.1255 3.71444C17.126 2.94859 17.952 2.4676 18.6184 2.84512L26.2824 7.18713C26.9589 7.57041 26.9584 8.54528 26.2815 8.92781L23.139 10.7035C22.8334 10.8762 22.4596 10.876 22.1542 10.703L17.6299 8.14019C17.3163 7.96252 17.1225 7.62981 17.1228 7.26935L17.1255 3.71444ZM14.9038 3.71435C14.9038 2.94852 14.0782 2.46692 13.4116 2.84389L5.74539 7.17911C5.06836 7.56197 5.06838 8.53722 5.74542 8.92005L8.88491 10.6952C9.18998 10.8677 9.56309 10.8679 9.86836 10.6958L14.3951 8.14287C14.7094 7.96559 14.9038 7.63272 14.9038 7.27184V3.71435Z" fill="url(#paint0_linear_1069_243)"/>
<path d="M22.2035 18.9302V13.074C22.2035 12.7139 22.0098 12.3816 21.6966 12.204L16.4994 9.25821C16.1939 9.08503 15.8199 9.08482 15.5142 9.25765L10.3093 12.2001C9.99572 12.3774 9.80171 12.7097 9.80148 13.07L9.79785 18.926C9.79763 19.2865 9.99139 19.6191 10.305 19.7968L15.5059 22.7427C15.8114 22.9157 16.1853 22.9158 16.4909 22.7431L21.6956 19.8008C22.0094 19.6233 22.2035 19.2907 22.2035 18.9302Z" fill="url(#paint1_linear_1069_243)"/>
<defs>
<linearGradient id="paint0_linear_1069_243" x1="16.0006" y1="30" x2="16.0006" y2="2.00003" gradientUnits="userSpaceOnUse">
<stop stop-color="#5570FF"/>
<stop offset="1" stop-color="#4DD3FF"/>
</linearGradient>
<linearGradient id="paint1_linear_1069_243" x1="16.0005" y1="23.0215" x2="16.0005" y2="8.97907" gradientUnits="userSpaceOnUse">
<stop stop-color="#5570FF"/>
<stop offset="1" stop-color="#4DD3FF"/>
</linearGradient>
</defs>
</svg>
