<svg width="128" height="128" viewBox="0 0 128 128" fill="none" xmlns="http://www.w3.org/2000/svg">
<path d="M35.0427 22.8813C32.2348 23.6021 34.5761 31.9479 35.6759 35.8688C32.5222 39.9645 34.0303 45.3314 35.2135 49.5519C37.2923 56.9644 43.4704 61.8228 49.0112 60.406C54.5521 58.9894 58.9722 57.5811 56.8932 50.1685C55.8184 46.3351 50.3275 47.1185 51.2898 40.9187C52.6563 32.1396 47.5029 32.0229 39.475 34.077C38.321 29.9561 36.2466 22.5728 35.0427 22.8813ZM69.5625 14.0439C68.3585 14.3522 70.4249 21.7395 71.583 25.8562C63.5552 27.9103 59.1517 30.4727 64.9298 37.4269C69.0124 42.3352 63.8425 44.2811 64.9174 48.1145C66.9962 55.5269 71.5621 54.6353 77.1029 53.2146C82.6437 51.7979 85.4349 44.6354 83.3726 37.223C82.1895 33.0021 80.6814 27.6313 75.8111 25.5939C74.7113 21.673 72.3742 13.323 69.5663 14.0439H69.5625ZM14.7557 60.9565C12.7476 61.469 15.2348 70.3315 16.5137 74.8897C18.126 80.6399 20.5049 84.448 24.1958 87.0895C28.9991 90.5311 39.2351 89.2395 41.9097 84.402C43.247 81.9854 44.4468 77.7104 41.7347 76.0271L24.6498 65.5188C22.6793 64.3063 20.288 65.8022 18.7757 67.5771C17.8467 64.2605 16.7718 60.423 14.7639 60.9396L14.7557 60.9565ZM107.076 37.3233C105.068 37.8358 106.143 41.6734 107.076 44.9898C104.835 44.1773 101.981 44.0232 100.911 46.0148L91.6119 63.2773C90.133 66.0189 93.4117 69.1438 95.8322 70.6022C100.677 73.5147 110.222 69.7439 112.579 64.4689C114.392 60.4188 114.458 55.9855 112.846 50.2314C111.567 45.669 109.084 36.8106 107.076 37.3233ZM66.3003 68.3148C48.5071 72.8691 52.2482 82.8647 49.732 91.0521C47.7531 97.4896 39.571 95.7102 41.7208 103.377C44.4162 112.985 54.5855 116.523 71.7077 112.139L84.5474 108.852C101.67 104.469 108.627 96.5437 105.932 86.9356C103.782 79.2648 97.6287 84.7189 92.5419 80.0899C86.0804 74.2025 84.0889 63.7607 66.296 68.315L66.3003 68.3148Z" fill="url(#paint0_linear_714_2)"/>
<defs>
<linearGradient id="paint0_linear_714_2" x1="64" y1="14" x2="64" y2="114" gradientUnits="userSpaceOnUse">
<stop stop-color="#D3BAFF"/>
<stop offset="1" stop-color="#30E4F6"/>
</linearGradient>
</defs>
</svg>
