<svg width="128" height="128" viewBox="0 0 128 128" fill="none" xmlns="http://www.w3.org/2000/svg">
<path fill-rule="evenodd" clip-rule="evenodd" d="M30.1373 29.913C30.6755 29.3732 31.2693 29.1111 32.1482 29.1111H44.8889C45.7677 29.1111 46.3615 29.3732 46.8997 29.913C47.4866 30.5017 47.7037 31.0666 47.7037 31.7778V39.7778C47.7037 40.7596 46.9078 41.5556 45.926 41.5556H31.1111C30.1292 41.5556 29.3333 40.7596 29.3333 39.7778V31.7778C29.3333 31.0666 29.5504 30.5017 30.1373 29.913ZM32.1482 22C29.4436 22 27.0182 22.9695 25.1012 24.8925C23.2327 26.7668 22.2222 29.1186 22.2222 31.7778V45.1111H54.8148V31.7778C54.8148 29.1186 53.8043 26.7668 51.9359 24.8925C50.0188 22.9695 47.5933 22 44.8889 22H32.1482ZM81.1003 29.913C81.6385 29.3732 82.2323 29.1111 83.1111 29.1111H95.8518C96.6267 29.1111 97.2338 29.3481 97.8462 29.9463C98.4578 30.5431 98.6667 31.098 98.6667 31.7778V39.7778C98.6667 40.7596 97.8711 41.5556 96.8889 41.5556H82.074C81.0922 41.5556 80.2963 40.7596 80.2963 39.7778V31.7778C80.2963 31.0666 80.5134 30.5017 81.1003 29.913ZM83.1111 22C80.4067 22 77.9812 22.9695 76.0641 24.8925C74.1957 26.7668 73.1852 29.1186 73.1852 31.7778V45.1111H105.778V31.7778C105.778 29.0871 104.726 26.7254 102.815 24.8592C100.907 22.9946 98.528 22 95.8518 22H83.1111ZM17.45 54.5611C17.8291 54.182 18.213 54 18.8889 54H109.111C109.673 54 110.077 54.1508 110.542 54.6028C110.94 54.991 111.111 55.3623 111.111 56V94.8889C111.111 95.8711 110.316 96.6667 109.333 96.6667H18.6667C17.6848 96.6667 16.8889 95.8711 16.8889 94.8889V56C16.8889 55.3241 17.0709 54.9402 17.45 54.5611ZM18.8889 45.1111C15.9398 45.1111 13.2693 46.1709 11.1646 48.2757C9.05986 50.3804 8 53.0509 8 56V101.111C8 103.565 9.98985 105.556 12.4444 105.556H115.556C118.01 105.556 120 103.565 120 101.111V56C120 53.0127 118.895 50.3296 116.743 48.234C114.656 46.2022 112.04 45.1111 109.111 45.1111H18.8889Z" fill="url(#paint0_linear_724_144)"/>
<defs>
<linearGradient id="paint0_linear_724_144" x1="116.216" y1="24.3883" x2="90.3314" y2="111.511" gradientUnits="userSpaceOnUse">
<stop stop-color="#FE0F7C"/>
<stop offset="1" stop-color="#DF0066"/>
</linearGradient>
</defs>
</svg>
