<svg width="16" height="16" viewBox="0 0 16 16" fill="none" xmlns="http://www.w3.org/2000/svg">
<path fill-rule="evenodd" clip-rule="evenodd" d="M0.35 1.25C0.35 0.752944 0.752944 0.35 1.25 0.35H1.92399H14.0588H14.7331C15.2302 0.35 15.6331 0.752944 15.6331 1.25C15.6331 1.55925 15.4772 1.83207 15.2396 1.99409C15.0833 2.10067 15.0052 2.15396 14.982 2.19781C14.9588 2.24165 14.9588 2.30487 14.9588 2.4313V4.62079V4.65422V4.6543V4.65431V4.65432V4.65433V4.65434C14.9588 5.58949 14.9588 6.33854 14.916 6.94659C14.872 7.57036 14.7797 8.11344 14.5606 8.62311C14.0652 9.77581 13.1464 10.6946 11.9937 11.19C11.4841 11.4091 10.941 11.5014 10.3172 11.5453C10.0104 11.567 9.66773 11.5777 9.28335 11.583C9.10094 11.5855 9.00973 11.5868 8.95274 11.6419C8.95044 11.6441 8.94822 11.6463 8.94602 11.6487C8.89174 11.7064 8.89174 11.797 8.89174 11.9783V11.9783C8.89174 12.0854 8.89174 12.139 8.91616 12.1838C8.91717 12.1857 8.91821 12.1875 8.91928 12.1893C8.94511 12.2333 8.99106 12.2609 9.08295 12.316L11.8256 13.9616C12.2518 14.2173 12.39 14.7701 12.1343 15.1964C11.8785 15.6226 11.3257 15.7608 10.8995 15.5051L9.26295 14.5231C9.20373 14.4876 9.17413 14.4698 9.15129 14.4627C9.04102 14.4283 8.92462 14.4942 8.89738 14.6065C8.89174 14.6297 8.89174 14.6643 8.89174 14.7333V14.7333C8.89174 15.2304 8.48879 15.6333 7.99174 15.6333C7.49468 15.6333 7.09174 15.2304 7.09174 14.7333V14.7333C7.09174 14.6643 7.09174 14.6297 7.0861 14.6065C7.05886 14.4942 6.94246 14.4283 6.83218 14.4627C6.80935 14.4698 6.77974 14.4876 6.72053 14.5231L5.084 15.5051C4.65777 15.7608 4.10494 15.6226 3.84921 15.1964C3.59347 14.7701 3.73168 14.2173 4.1579 13.9616L6.90052 12.316C6.99242 12.2609 7.03837 12.2333 7.06419 12.1893C7.06526 12.1875 7.0663 12.1857 7.06732 12.1838C7.09174 12.139 7.09174 12.0854 7.09174 11.9783V11.9783C7.09174 11.797 7.09174 11.7064 7.03745 11.6487C7.03525 11.6463 7.03303 11.6441 7.03072 11.6419C6.97374 11.5868 6.88253 11.5855 6.70013 11.583C6.31548 11.5777 5.97257 11.567 5.6656 11.5453C5.04184 11.5014 4.49875 11.4091 3.98909 11.19C2.83638 10.6946 1.91764 9.77581 1.4222 8.62311C1.20314 8.11344 1.11083 7.57036 1.06685 6.94659C1.02398 6.33852 1.02399 5.58942 1.02399 4.65421L1.02399 4.62079V2.4311C1.02399 2.30471 1.02399 2.24151 1.00083 2.19767C0.977672 2.15383 0.899571 2.10054 0.743369 1.99396C0.505896 1.83193 0.35 1.55917 0.35 1.25ZM2.82399 2.55C2.82399 2.36144 2.82399 2.26716 2.88257 2.20858C2.94115 2.15 3.03543 2.15 3.22399 2.15H12.7588C12.9474 2.15 13.0417 2.15 13.1002 2.20858C13.1588 2.26716 13.1588 2.36144 13.1588 2.55V4.62079C13.1588 5.59707 13.1583 6.28268 13.1204 6.81999C13.0831 7.34885 13.0129 7.66568 12.9069 7.91233C12.5935 8.64159 12.0122 9.22283 11.2829 9.53627C11.0363 9.64228 10.7195 9.71251 10.1906 9.7498C9.6533 9.78768 8.96769 9.7882 7.99141 9.7882C7.01513 9.7882 6.32952 9.78768 5.7922 9.7498C5.26335 9.71251 4.94651 9.64228 4.69987 9.53627C3.97061 9.22283 3.38936 8.64159 3.07592 7.91233C2.96991 7.66568 2.89968 7.34885 2.8624 6.81999C2.82451 6.28268 2.82399 5.59707 2.82399 4.62079V2.55ZM6.19494 5.96894C6.19494 5.47188 5.792 5.06894 5.29494 5.06894C4.79789 5.06894 4.39494 5.47188 4.39494 5.96894L4.39494 7.31725C4.39494 7.81431 4.79789 8.21725 5.29494 8.21725C5.792 8.21725 6.19494 7.81431 6.19494 7.31725V5.96894ZM7.99141 3.72095C8.48846 3.72095 8.89141 4.12389 8.89141 4.62095L8.89141 7.31758C8.89141 7.81464 8.48846 8.21758 7.99141 8.21758C7.49435 8.21758 7.09141 7.81464 7.09141 7.31758L7.09141 4.62095C7.09141 4.12389 7.49435 3.72095 7.99141 3.72095ZM11.5884 5.29494C11.5884 4.79789 11.1854 4.39494 10.6884 4.39494C10.1913 4.39494 9.78837 4.79789 9.78837 5.29494V7.31742C9.78837 7.81447 10.1913 8.21742 10.6884 8.21742C11.1854 8.21742 11.5884 7.81447 11.5884 7.31742L11.5884 5.29494Z" fill="url(#paint0_linear_557_267)"/>
<defs>
<linearGradient id="paint0_linear_557_267" x1="0.5" y1="7.99171" x2="15.4831" y2="7.99171" gradientUnits="userSpaceOnUse">
<stop stop-color="#FFC152"/>
<stop offset="1" stop-color="#FF5F5F"/>
</linearGradient>
</defs>
</svg>
