<svg width="16" height="16" viewBox="0 0 16 16" fill="none" xmlns="http://www.w3.org/2000/svg">
<g clip-path="url(#clip0_658_137)">
<path fill-rule="evenodd" clip-rule="evenodd" d="M3.35936 2.08784V3.46132C3.35936 3.68224 3.18027 3.86132 2.95936 3.86132H2.33571C1.95491 3.86132 1.58971 4.01259 1.32044 4.28186C1.05117 4.55113 0.899902 4.91633 0.899902 5.29713V10.7025C0.899902 11.0833 1.05117 11.4485 1.32044 11.7178C1.58971 11.9871 1.95491 12.1383 2.33571 12.1383H2.95936C3.18027 12.1383 3.35936 12.3174 3.35936 12.5383V13.9122C3.35936 14.3333 3.52664 14.7372 3.82442 15.0349C4.1222 15.3327 4.52608 15.5 4.94719 15.5H13.4844C13.9055 15.5 14.3093 15.3327 14.6071 15.0349C14.9049 14.7372 15.0722 14.3333 15.0722 13.9122V2.08784C15.0722 1.66672 14.9049 1.26284 14.6071 0.965067C14.3093 0.667289 13.9055 0.5 13.4844 0.5H4.94719C4.52607 0.5 4.1222 0.66729 3.82442 0.965067C3.52665 1.26284 3.35936 1.66672 3.35936 2.08784ZM5.78368 2.32432C5.45231 2.32432 5.18368 2.59295 5.18368 2.92432V3.46132C5.18368 3.68224 5.36277 3.86132 5.58368 3.86132H7.74112C8.12192 3.86132 8.48712 4.01259 8.75639 4.28186C9.02566 4.55113 9.17693 4.91633 9.17693 5.29713V10.7025C9.17693 11.0833 9.02566 11.4485 8.75639 11.7178C8.48712 11.9871 8.12192 12.1383 7.74112 12.1383H5.58368C5.36277 12.1383 5.18368 12.3174 5.18368 12.5383V13.0757C5.18368 13.407 5.45231 13.6757 5.78368 13.6757H12.6479C12.9792 13.6757 13.2479 13.407 13.2479 13.0757V2.92432C13.2479 2.59295 12.9792 2.32432 12.6479 2.32432H5.78368ZM3.02017 5.38159C2.6888 5.38159 2.42017 5.65022 2.42017 5.98159V10.0181C2.42017 10.3494 2.6888 10.6181 3.02017 10.6181H7.05666C7.38803 10.6181 7.65666 10.3494 7.65666 10.0181V5.98159C7.65666 5.65022 7.38803 5.38159 7.05666 5.38159H3.02017Z" fill="url(#paint0_linear_658_137)"/>
<path d="M7.08953 9.7999C7.08953 9.96559 6.95522 10.0999 6.78953 10.0999H6.5634C6.39772 10.0999 6.2634 9.96559 6.2634 9.7999V7.142C6.2634 7.08422 6.25185 7.03031 6.22874 6.98024C6.20755 6.93017 6.17772 6.88684 6.13919 6.85024C6.10261 6.81173 6.05927 6.78188 6.00921 6.7607C5.95914 6.73953 5.90521 6.72893 5.84745 6.72893C5.78967 6.72893 5.73576 6.73953 5.68569 6.7607C5.63561 6.78188 5.59133 6.81173 5.55282 6.85024C5.51622 6.88684 5.48733 6.93017 5.46615 6.98024C5.44497 7.03031 5.43438 7.08422 5.43438 7.142V9.7999C5.43438 9.96559 5.30006 10.0999 5.13438 10.0999H4.90535C4.73966 10.0999 4.60535 9.96559 4.60535 9.7999V7.142C4.60535 7.08422 4.59477 7.03031 4.57359 6.98024C4.5524 6.93017 4.52256 6.88684 4.48404 6.85024C4.44745 6.81173 4.40412 6.78188 4.35405 6.7607C4.30399 6.73953 4.25006 6.72893 4.19229 6.72893C4.13452 6.72893 4.0806 6.73953 4.03052 6.7607C3.98045 6.78188 3.93617 6.81173 3.89766 6.85024C3.86106 6.88684 3.83218 6.93017 3.811 6.98024C3.78982 7.03031 3.77922 7.08422 3.77922 7.142V9.7999C3.77922 9.96559 3.64491 10.0999 3.47922 10.0999H3.2502C3.08451 10.0999 2.9502 9.96559 2.9502 9.7999V7.142C2.9502 6.97061 2.98199 6.80981 3.04552 6.65959C3.11101 6.50747 3.19958 6.37556 3.31128 6.26387C3.42489 6.15025 3.55682 6.06166 3.70702 5.99811C3.85914 5.93264 4.0209 5.8999 4.19229 5.8999C4.34636 5.8999 4.49463 5.92783 4.63714 5.98368C4.69358 6.00504 4.74775 6.03032 4.79966 6.05953C4.9351 6.13575 5.10748 6.13572 5.24268 6.0591C5.2939 6.03007 5.34721 6.00493 5.40262 5.98368C5.54511 5.92783 5.6934 5.8999 5.84745 5.8999C6.01884 5.8999 6.17964 5.93264 6.32984 5.99811C6.48196 6.06166 6.61389 6.15025 6.72557 6.26387C6.8392 6.37556 6.92777 6.50747 6.99132 6.65959C7.0568 6.80981 7.08953 6.97061 7.08953 7.142V9.7999Z" fill="url(#paint1_linear_658_137)" stroke="url(#paint2_linear_658_137)" stroke-width="0.2"/>
</g>
<defs>
<linearGradient id="paint0_linear_658_137" x1="7.98607" y1="0.500055" x2="8.07436" y2="13.943" gradientUnits="userSpaceOnUse">
<stop stop-color="#12F1FF"/>
<stop offset="1" stop-color="#0081C9"/>
</linearGradient>
<linearGradient id="paint1_linear_658_137" x1="5.01987" y1="5.89992" x2="5.04357" y2="9.66394" gradientUnits="userSpaceOnUse">
<stop stop-color="#12F1FF"/>
<stop offset="1" stop-color="#0081C9"/>
</linearGradient>
<linearGradient id="paint2_linear_658_137" x1="5.01987" y1="5.89992" x2="5.04357" y2="9.66394" gradientUnits="userSpaceOnUse">
<stop stop-color="#12F1FF"/>
<stop offset="1" stop-color="#0081C9"/>
</linearGradient>
<clipPath id="clip0_658_137">
<rect width="16" height="16" fill="white"/>
</clipPath>
</defs>
</svg>
