<svg width="16" height="16" viewBox="0 0 16 16" fill="none" xmlns="http://www.w3.org/2000/svg">
<path d="M7.89157 1.97012C8.08324 1.14928 8.86575 0.512614 9.71075 0.50178C10.4124 0.470114 11.1066 0.86345 11.4507 1.47428C11.8041 2.07012 11.7782 2.84762 11.4316 3.44095C11.0682 3.98012 10.4541 4.36428 9.79325 4.35678C9.22575 4.37512 8.68991 4.10012 8.29991 3.70178C7.90824 3.22762 7.73324 2.57178 7.89157 1.97012ZM8.92241 2.02428C8.76825 2.33095 8.80908 2.71928 9.01491 2.99262C9.31991 3.42095 9.99325 3.49595 10.3849 3.14345C10.6616 2.92512 10.7382 2.55762 10.7041 2.22262C10.5982 1.87095 10.3149 1.56095 9.94158 1.50178C9.53408 1.42095 9.09491 1.64595 8.92241 2.02428Z" fill="url(#paint0_linear_658_139)" stroke="url(#paint1_linear_658_139)" stroke-width="0.6"/>
<path d="M14.8442 6.20117C14.8684 6.31534 14.8917 6.43034 14.8942 6.54784C14.8884 8.05034 14.885 9.55447 14.8942 11.057C14.8925 11.1728 14.8692 11.2861 14.8442 11.3986C14.8284 9.94281 14.8484 8.48697 14.8325 7.03201C14.8334 6.75451 14.8434 6.47784 14.8442 6.20117Z" fill="url(#paint2_linear_658_139)"/>
<path fill-rule="evenodd" clip-rule="evenodd" d="M11.8572 5.15015C11.7306 5.15047 11.6041 5.1508 11.4775 5.15108C11.4841 5.15276 11.492 5.15476 11.5005 5.15696C11.5383 5.16666 11.5906 5.18011 11.6192 5.18691C11.9509 5.28358 12.2959 5.42108 12.5075 5.70941C12.5536 5.76235 12.5903 5.82288 12.6268 5.88321C12.684 5.97768 12.7408 6.07167 12.8334 6.13524C13.02 6.16169 13.2168 6.16095 13.4121 6.16021C13.543 6.15971 13.6731 6.15922 13.7992 6.16691C13.8413 6.57838 13.8363 6.99143 13.8313 7.4047C13.8282 7.66269 13.825 7.92076 13.8334 8.17858C13.9367 8.13941 14.0467 8.09691 14.1059 7.99525C14.1518 7.92908 14.197 7.86226 14.2424 7.79537C14.4229 7.52866 14.604 7.26111 14.8325 7.03191C14.833 6.89304 14.8357 6.75437 14.8384 6.61581C14.8411 6.4775 14.8438 6.33929 14.8442 6.20108C14.8342 5.63441 14.3134 5.15691 13.7542 5.15108C13.1223 5.14691 12.4898 5.14853 11.8572 5.15015ZM14.2424 7.79537C14.197 7.86226 14.1518 7.92908 14.1059 7.99525C14.0467 8.09691 13.9367 8.13941 13.8334 8.17858C13.8286 8.85621 13.8302 9.53388 13.8319 10.2115C13.8328 10.6039 13.8337 10.9962 13.8334 11.3885C13.8384 12.0319 13.3367 12.6027 12.7109 12.7202C12.6301 12.8845 12.551 13.0493 12.4719 13.214C12.3885 13.3875 12.3051 13.5609 12.22 13.7335C13.0959 13.8444 13.9709 13.4027 14.4667 12.686C14.7017 12.3002 14.8592 11.8552 14.8442 11.3985C14.8363 10.6706 14.8374 9.94271 14.8384 9.21488C14.8395 8.48713 14.8405 7.75941 14.8325 7.03191C14.604 7.26111 14.4229 7.52866 14.2424 7.79537Z" fill="url(#paint3_linear_658_139)"/>
<path d="M7.23096 5.14358C7.93762 5.15442 8.64431 5.14692 9.35097 5.14608C9.61597 5.15275 9.88181 5.15108 10.1468 5.14442C10.5901 5.15692 11.0351 5.13192 11.4776 5.15108C11.5135 5.16025 11.5843 5.17858 11.6193 5.18692C11.4118 5.51358 11.186 5.82858 10.9885 6.16192C9.89264 6.16858 8.79764 6.17608 7.70179 6.15775C7.62762 5.78858 7.47679 5.43275 7.23096 5.14358Z" fill="url(#paint4_linear_658_139)"/>
<path d="M11.6191 5.18701C11.9508 5.28368 12.2234 5.39689 12.4999 5.677C12.7156 5.89548 12.9166 6.052 12.9166 6.34367C12.8955 7.07804 12.9122 7.75023 12.9118 8.50023C12.8518 8.3369 12.9116 8.69714 12.9115 8.97365C12.5833 8.97365 12.2199 8.97365 11.9483 8.97365C11.8933 8.16284 11.9291 7.38534 11.9166 6.552C11.9166 6.427 11.6824 6.24701 11.5158 6.20868C11.3424 6.17035 11.1649 6.16284 10.9883 6.16201C11.1858 5.82868 11.4116 5.51368 11.6191 5.18701Z" fill="url(#paint5_linear_658_139)"/>
<path d="M12.9167 6.34326C12.914 6.71492 12.9126 7.0966 12.9126 7.46827C12.9117 8.3574 12.9117 9.24574 12.9109 10.1349C12.8992 10.9991 12.9834 11.8841 12.7109 12.7199C12.5451 13.0574 12.3859 13.3966 12.2201 13.7332C11.6267 14.5432 10.7826 15.1866 9.79675 15.4241C8.76592 15.6849 7.63923 15.5591 6.69923 15.0574C6.68507 14.6532 6.97173 14.2141 7.42173 14.2841C8.51175 14.7524 9.85258 14.5857 10.7651 13.8174C11.4809 13.2299 11.9351 12.3124 11.9167 11.3849C11.9059 9.76907 11.9542 8.16659 11.9167 6.5516C11.9292 7.38493 11.8934 8.16244 11.9484 8.97324C12.2201 8.97324 12.5834 8.97324 12.9117 8.97324C12.9117 8.69674 12.8519 8.33649 12.9119 8.49982C12.9123 7.74982 12.8957 7.07763 12.9167 6.34326Z" fill="url(#paint6_linear_658_139)"/>
<path d="M4.56982 11.9685C4.90649 11.961 5.24316 11.956 5.57899 11.9643C5.59399 12.0151 5.62316 12.1168 5.63816 12.1668C5.86066 13.1035 6.54399 13.8976 7.42149 14.2843C6.97149 14.2143 6.68482 14.6535 6.69899 15.0576C5.87816 14.6135 5.22399 13.8868 4.84732 13.0343C4.75899 12.826 4.69232 12.6076 4.64482 12.386C4.61482 12.2476 4.59149 12.1076 4.56982 11.9685Z" fill="url(#paint7_linear_658_139)"/>
<path d="M14.844 6.20108C14.8682 6.31525 14.8915 6.43025 14.894 6.54775C14.8882 8.05025 14.8848 9.55438 14.894 11.0569C14.8923 11.1727 14.869 11.2861 14.844 11.3986M14.844 6.20108C14.8432 6.47775 14.8332 6.75442 14.8323 7.03192M14.844 6.20108C14.8436 6.33929 14.8409 6.4775 14.8382 6.61582C14.8355 6.75438 14.8328 6.89304 14.8323 7.03192M14.844 6.20108C14.834 5.63442 14.3132 5.15692 13.754 5.15108C13.1221 5.14692 12.4896 5.14853 11.857 5.15015C11.7304 5.15048 11.6039 5.1508 11.4773 5.15108M14.844 11.3986C14.8282 9.94272 14.8482 8.48688 14.8323 7.03192M14.844 11.3986C14.859 11.8552 14.7015 12.3002 14.4665 12.6861C13.9707 13.4027 13.0957 13.8444 12.2198 13.7336M14.844 11.3986C14.8361 10.6706 14.8372 9.94272 14.8382 9.21488C14.8393 8.48713 14.8403 7.75941 14.8323 7.03192M14.8323 7.03192C14.6038 7.26111 14.4227 7.52866 14.2422 7.79538C14.1968 7.86226 14.1516 7.92908 14.1057 7.99525C14.0465 8.09692 13.9365 8.13942 13.8332 8.17858M11.4773 5.15108C11.4839 5.15277 11.4918 5.15477 11.5003 5.15696C11.5381 5.16667 11.5904 5.18012 11.619 5.18692M11.4773 5.15108C11.0348 5.13192 10.5898 5.15692 10.1465 5.14442C9.88151 5.15108 9.61567 5.15275 9.35067 5.14608C8.64401 5.14692 7.93732 5.15442 7.23066 5.14358C7.47649 5.43275 7.62732 5.78858 7.70149 6.15775C8.79734 6.17608 9.89234 6.16858 10.9882 6.16192M11.4773 5.15108C11.5132 5.16025 11.584 5.17858 11.619 5.18692M12.2198 13.7336C12.3049 13.5609 12.3883 13.3875 12.4717 13.214C12.5508 13.0493 12.6299 12.8846 12.7107 12.7202M12.2198 13.7336C12.3857 13.3969 12.5448 13.0577 12.7107 12.7202M12.2198 13.7336C11.6265 14.5436 10.7823 15.1869 9.79651 15.4244C8.76567 15.6852 7.63899 15.5594 6.69899 15.0577M13.8332 8.17858C13.8248 7.92076 13.828 7.66269 13.8311 7.40471C13.8361 6.99143 13.8411 6.57838 13.799 6.16692C13.6729 6.15923 13.5428 6.15972 13.4119 6.16021C13.2166 6.16095 13.0198 6.16169 12.8332 6.13524C12.7406 6.07168 12.6838 5.97768 12.6266 5.88321C12.5901 5.82288 12.5534 5.76235 12.5073 5.70942C12.2957 5.42108 11.9507 5.28358 11.619 5.18692M13.8332 8.17858C13.8284 8.85622 13.83 9.53388 13.8317 10.2116C13.8326 10.6039 13.8335 10.9962 13.8332 11.3886C13.8382 12.0319 13.3365 12.6027 12.7107 12.7202M11.619 5.18692C11.4115 5.51358 11.1857 5.82858 10.9882 6.16192M11.619 5.18692C11.9507 5.28358 12.2233 5.3968 12.4998 5.67691C12.7155 5.89538 12.9165 6.05191 12.9165 6.34358M10.9882 6.16192C11.1648 6.16275 11.3423 6.17025 11.5157 6.20858C11.6823 6.24692 11.9165 6.42691 11.9165 6.55191M12.9165 6.34358C12.9138 6.71523 12.9123 7.09692 12.9123 7.46858C12.9115 8.35772 12.9115 9.24605 12.9107 10.1352C12.899 10.9994 12.9832 11.8844 12.7107 12.7202M12.9165 6.34358C12.8954 7.07794 12.9121 7.75013 12.9117 8.50013C12.8517 8.3368 12.9115 8.69705 12.9114 8.97355C12.5832 8.97355 12.2198 8.97355 11.9482 8.97355C11.8932 8.16275 11.929 7.38524 11.9165 6.55191M6.69899 15.0577C6.68482 14.6536 6.97149 14.2144 7.42149 14.2844M6.69899 15.0577C5.87816 14.6136 5.22399 13.8869 4.84732 13.0344C4.75899 12.8261 4.69232 12.6077 4.64482 12.3861C4.61482 12.2477 4.59149 12.1077 4.56982 11.9686C4.90649 11.9611 5.24316 11.9561 5.57899 11.9644C5.59399 12.0152 5.62316 12.1169 5.63816 12.1669C5.86066 13.1036 6.54399 13.8977 7.42149 14.2844M11.9165 6.55191C11.954 8.16691 11.9057 9.76938 11.9165 11.3852C11.9348 12.3127 11.4807 13.2302 10.7648 13.8177C9.85234 14.5861 8.51151 14.7527 7.42149 14.2844" stroke="url(#paint8_linear_658_139)" stroke-width="0.6"/>
<path d="M4.90683 7.27947C4.85431 7.27947 4.81172 7.32205 4.81172 7.37458V10.1115C4.81172 10.2166 4.72655 10.3018 4.62149 10.3018H3.91272C3.80766 10.3018 3.72249 10.2166 3.72249 10.1115V7.37458C3.72249 7.32205 3.6799 7.27947 3.62737 7.27947H2.79033C2.68526 7.27947 2.6001 7.1943 2.6001 7.08923V6.49199C2.6001 6.38693 2.68526 6.30176 2.79033 6.30176H5.73893C5.84399 6.30176 5.92916 6.38693 5.92916 6.49199V7.08923C5.92916 7.1943 5.84399 7.27947 5.73893 7.27947H4.90683Z" fill="url(#paint9_linear_658_139)"/>
<path d="M6.08317 5.13525H2.49984C1.76345 5.13525 1.1665 5.73221 1.1665 6.46859V10.2186C1.1665 10.955 1.76345 11.5519 2.49984 11.5519H6.08317C6.81955 11.5519 7.4165 10.955 7.4165 10.2186V6.46859C7.4165 5.73221 6.81955 5.13525 6.08317 5.13525Z" stroke="url(#paint10_linear_658_139)" stroke-width="1.5"/>
<defs>
<linearGradient id="paint0_linear_658_139" x1="9.01003" y1="4.21318" x2="9.75156" y2="0.496579" gradientUnits="userSpaceOnUse">
<stop stop-color="#C41BFF"/>
<stop offset="1" stop-color="#FF78C8"/>
</linearGradient>
<linearGradient id="paint1_linear_658_139" x1="9.01003" y1="4.21318" x2="9.75156" y2="0.496579" gradientUnits="userSpaceOnUse">
<stop stop-color="#C41BFF"/>
<stop offset="1" stop-color="#FF78C8"/>
</linearGradient>
<linearGradient id="paint2_linear_658_139" x1="7.70845" y1="15.1669" x2="9.73222" y2="5.14366" gradientUnits="userSpaceOnUse">
<stop stop-color="#C41BFF"/>
<stop offset="1" stop-color="#FF78C8"/>
</linearGradient>
<linearGradient id="paint3_linear_658_139" x1="7.70837" y1="15.1668" x2="9.73212" y2="5.14356" gradientUnits="userSpaceOnUse">
<stop stop-color="#C41BFF"/>
<stop offset="1" stop-color="#FF78C8"/>
</linearGradient>
<linearGradient id="paint4_linear_658_139" x1="7.70847" y1="15.1668" x2="9.73222" y2="5.14356" gradientUnits="userSpaceOnUse">
<stop stop-color="#C41BFF"/>
<stop offset="1" stop-color="#FF78C8"/>
</linearGradient>
<linearGradient id="paint5_linear_658_139" x1="7.70828" y1="15.1669" x2="9.73203" y2="5.14365" gradientUnits="userSpaceOnUse">
<stop stop-color="#C41BFF"/>
<stop offset="1" stop-color="#FF78C8"/>
</linearGradient>
<linearGradient id="paint6_linear_658_139" x1="7.70842" y1="15.1665" x2="9.73217" y2="5.14324" gradientUnits="userSpaceOnUse">
<stop stop-color="#C41BFF"/>
<stop offset="1" stop-color="#FF78C8"/>
</linearGradient>
<linearGradient id="paint7_linear_658_139" x1="7.70817" y1="15.1667" x2="9.73192" y2="5.14346" gradientUnits="userSpaceOnUse">
<stop stop-color="#C41BFF"/>
<stop offset="1" stop-color="#FF78C8"/>
</linearGradient>
<linearGradient id="paint8_linear_658_139" x1="7.70817" y1="15.1668" x2="9.73192" y2="5.14356" gradientUnits="userSpaceOnUse">
<stop stop-color="#C41BFF"/>
<stop offset="1" stop-color="#FF78C8"/>
</linearGradient>
<linearGradient id="paint9_linear_658_139" x1="3.61207" y1="10.6963" x2="4.77969" y2="6.44316" gradientUnits="userSpaceOnUse">
<stop stop-color="#C41BFF"/>
<stop offset="1" stop-color="#FF78C8"/>
</linearGradient>
<linearGradient id="paint10_linear_658_139" x1="3.06638" y1="11.3116" x2="4.33393" y2="5.14398" gradientUnits="userSpaceOnUse">
<stop stop-color="#C41BFF"/>
<stop offset="1" stop-color="#FF78C8"/>
</linearGradient>
</defs>
</svg>
