<svg width="16" height="16" viewBox="0 0 16 16" fill="none" xmlns="http://www.w3.org/2000/svg">
<g clip-path="url(#clip0_657_113)">
<path d="M3.67887 6.20588C3.58371 5.88379 3.24546 5.69983 2.92338 5.79499C2.60129 5.89016 2.41734 6.2284 2.5125 6.55049L3.47533 9.80932C3.55169 10.0678 3.78904 10.2451 4.05852 10.2451C4.32801 10.2451 4.56535 10.0678 4.64171 9.80932L5.02136 8.52435L5.40101 9.80932C5.47737 10.0678 5.71471 10.2451 5.9842 10.2451C6.25368 10.2451 6.49103 10.0678 6.56738 9.80932L7.53022 6.55049C7.62538 6.2284 7.44142 5.89016 7.11934 5.79499C6.79725 5.69983 6.45901 5.88379 6.36385 6.20588L5.9842 7.49085L5.60455 6.20588C5.52819 5.94743 5.29084 5.77007 5.02136 5.77007C4.75187 5.77007 4.51453 5.94743 4.43817 6.20588L4.05852 7.49085L3.67887 6.20588Z" fill="url(#paint0_linear_657_113)"/>
<path fill-rule="evenodd" clip-rule="evenodd" d="M3.35936 2.08784V3.46132C3.35936 3.68224 3.18027 3.86132 2.95936 3.86132H2.33571C1.95491 3.86132 1.58971 4.01259 1.32044 4.28186C1.05117 4.55113 0.899902 4.91633 0.899902 5.29713V10.7025C0.899902 11.0833 1.05117 11.4485 1.32044 11.7178C1.58971 11.9871 1.95491 12.1383 2.33571 12.1383H2.95936C3.18027 12.1383 3.35936 12.3174 3.35936 12.5383V13.9122C3.35936 14.3333 3.52664 14.7372 3.82442 15.0349C4.1222 15.3327 4.52608 15.5 4.94719 15.5H13.4844C13.9055 15.5 14.3093 15.3327 14.6071 15.0349C14.9049 14.7372 15.0722 14.3333 15.0722 13.9122V2.08784C15.0722 1.66672 14.9049 1.26284 14.6071 0.965067C14.3093 0.667289 13.9055 0.5 13.4844 0.5H4.94719C4.52607 0.5 4.1222 0.66729 3.82442 0.965067C3.52665 1.26284 3.35936 1.66672 3.35936 2.08784ZM5.78368 2.32432C5.45231 2.32432 5.18368 2.59295 5.18368 2.92432V3.46132C5.18368 3.68224 5.36277 3.86132 5.58368 3.86132H7.74112C8.12192 3.86132 8.48712 4.01259 8.75639 4.28186C9.02566 4.55113 9.17693 4.91633 9.17693 5.29713V10.7025C9.17693 11.0833 9.02566 11.4485 8.75639 11.7178C8.48712 11.9871 8.12192 12.1383 7.74112 12.1383H5.58368C5.36277 12.1383 5.18368 12.3174 5.18368 12.5383V13.0757C5.18368 13.407 5.45231 13.6757 5.78368 13.6757H12.6479C12.9792 13.6757 13.2479 13.407 13.2479 13.0757V2.92432C13.2479 2.59295 12.9792 2.32432 12.6479 2.32432H5.78368ZM2.42017 5.38159V10.6181H7.65666V5.38159H2.42017Z" fill="url(#paint1_linear_657_113)"/>
</g>
<defs>
<linearGradient id="paint0_linear_657_113" x1="7.98605" y1="15.5" x2="7.98605" y2="1.38235" gradientUnits="userSpaceOnUse">
<stop stop-color="#18AEFA"/>
<stop offset="1" stop-color="#83E1FF"/>
</linearGradient>
<linearGradient id="paint1_linear_657_113" x1="7.98605" y1="15.5" x2="7.98605" y2="1.38235" gradientUnits="userSpaceOnUse">
<stop stop-color="#18AEFA"/>
<stop offset="1" stop-color="#83E1FF"/>
</linearGradient>
<clipPath id="clip0_657_113">
<rect width="16" height="16" fill="white"/>
</clipPath>
</defs>
</svg>
