<svg width="64" height="64" viewBox="0 0 64 64" fill="none" xmlns="http://www.w3.org/2000/svg">
<path opacity="0.5" d="M38.1487 13.2515L23.2038 18.546C22.3508 18.8453 21.6044 19.3885 21.0572 20.108C20.51 20.8276 20.1861 21.692 20.1256 22.5939V42.9719C20.069 43.6489 19.8417 44.3005 19.4648 44.8658C19.088 45.431 18.574 45.8915 17.9708 46.2041L11.3218 49.2823C10.9899 49.3915 10.6368 49.4207 10.2915 49.3675C9.94613 49.3142 9.61826 49.1801 9.33463 48.976C9.051 48.7719 8.81965 48.5036 8.65945 48.1931C8.49925 47.8826 8.41475 47.5385 8.41284 47.1891V17.7303C8.72771 16.663 9.25925 15.672 9.97425 14.8193C10.6893 13.9666 11.5724 13.2704 12.5685 12.7743L31.2842 2.21595C34.9473 1.43099 37.7024 2.77003 38.1487 6.49471V13.2515Z" fill="url(#paint0_linear_349_97)"/>
<path d="M34.6855 2.16943C35.653 2.41868 36.5134 2.97495 37.1378 3.75477C37.7622 4.53458 38.1169 5.49587 38.1486 6.49437V56.639C38.1044 57.6011 37.8416 58.5404 37.3803 59.3858C36.9189 60.2312 36.2711 60.9604 35.4859 61.518L52.2008 56.7775C53.0094 56.3436 53.7246 55.7546 54.3056 55.0442C54.8866 54.3338 55.322 53.5159 55.5868 52.6373V12.2199C55.5984 11.0688 55.2197 9.94777 54.5126 9.03941C53.8055 8.13106 52.8116 7.48896 51.6929 7.21776L34.6855 2.16943Z" fill="url(#paint1_linear_349_97)"/>
<path opacity="0.5" d="M29.699 60.795C32.3924 62.0879 33.2543 62.3341 35.4707 61.5646C36.2614 61.0005 36.9134 60.264 37.3774 59.4107C37.8414 58.5574 38.1052 57.6097 38.1487 56.6394V49.0977H19.9563C17.4783 49.9442 16.0008 52.5915 18.7712 54.5769L29.699 60.795Z" fill="url(#paint2_linear_349_97)"/>
<defs>
<linearGradient id="paint0_linear_349_97" x1="38.1487" y1="49.3933" x2="2.46786" y2="26.7554" gradientUnits="userSpaceOnUse">
<stop stop-color="#FF4000"/>
<stop offset="0.905415" stop-color="#FFA200"/>
</linearGradient>
<linearGradient id="paint1_linear_349_97" x1="55.5871" y1="61.518" x2="24.3702" y2="50.4008" gradientUnits="userSpaceOnUse">
<stop stop-color="#FF4000"/>
<stop offset="0.905415" stop-color="#FFA200"/>
</linearGradient>
<linearGradient id="paint2_linear_349_97" x1="38.1487" y1="62.0001" x2="28.5931" y2="46.3677" gradientUnits="userSpaceOnUse">
<stop stop-color="#FF4000"/>
<stop offset="0.905415" stop-color="#FFA200"/>
</linearGradient>
</defs>
</svg>
