<svg width="16" height="16" viewBox="0 0 16 16" fill="none" xmlns="http://www.w3.org/2000/svg">
<path fill-rule="evenodd" clip-rule="evenodd" d="M5.75241 3.55351C5.75213 3.55349 5.754 3.55101 5.75884 3.54613C5.7551 3.55109 5.75268 3.55353 5.75241 3.55351ZM6.56635 3.52067C6.37561 3.4615 6.37561 3.22367 6.56635 3.1645V3.1645C7.31445 2.93242 8.40298 2.7751 9.64464 2.7751C10.8863 2.7751 11.9748 2.93243 12.7229 3.16451V3.16451C12.9137 3.22368 12.9137 3.4615 12.7229 3.52067V3.52067C11.9748 3.75275 10.8863 3.91007 9.64464 3.91007C8.40298 3.91007 7.31445 3.75275 6.56635 3.52067V3.52067ZM13.4751 5.39829C13.4751 5.28562 13.3639 5.20647 13.2562 5.23985V5.23985C12.2923 5.5389 11.0156 5.71007 9.64464 5.71007C8.27373 5.71007 6.99702 5.53889 6.03303 5.23985C5.55646 5.09201 5.10529 4.89745 4.75363 4.63953C4.42055 4.39523 4.01416 3.96779 4.01416 3.34259C4.01416 2.71738 4.42055 2.28994 4.75363 2.04564C5.10529 1.78772 5.55646 1.59316 6.03303 1.44532C6.99702 1.14628 8.27373 0.975098 9.64464 0.975098C11.0156 0.975098 12.2923 1.14628 13.2563 1.44533C13.7328 1.59317 14.184 1.78773 14.5356 2.04566C14.8687 2.28996 15.2751 2.7174 15.2751 3.3426V6.57169C15.2751 6.71769 15.2518 6.85164 15.212 6.97409C15.2051 6.99532 15.2206 7.01754 15.2429 7.01754V7.01754C15.2607 7.01754 15.2751 7.03193 15.2751 7.04969V12.7357C15.2751 13.3609 14.8686 13.7883 14.5356 14.0325C14.184 14.2904 13.7329 14.485 13.2563 14.6328C12.2924 14.9319 11.0156 15.1032 9.64464 15.1032C8.27362 15.1032 6.9969 14.9319 6.03293 14.6328C5.55638 14.485 5.10525 14.2904 4.75363 14.0325C4.42066 13.7883 4.01416 13.3609 4.01416 12.7357V12.1733C4.01416 11.9524 4.19325 11.7733 4.41416 11.7733H5.41416C5.63507 11.7733 5.81416 11.9524 5.81416 12.1733V12.5732C5.81416 12.5763 5.81564 12.5792 5.81815 12.5811V12.5811C5.94526 12.6743 6.18687 12.796 6.56635 12.9137C7.31445 13.1458 8.40296 13.3032 9.64464 13.3032C10.8863 13.3032 11.9748 13.1458 12.7229 12.9137C13.1024 12.796 13.344 12.6743 13.4711 12.5811V12.5811C13.4736 12.5792 13.4751 12.5763 13.4751 12.5732V12.0482C13.4751 11.7752 13.2072 11.5813 12.9434 11.6516C12.8534 11.6755 12.7622 11.6986 12.6703 11.7206C11.5903 11.9801 10.2463 12.1481 8.98534 12.178C8.76449 12.1833 8.5854 12.0037 8.5854 11.7828V10.7828C8.5854 10.5619 8.76445 10.3833 8.98529 10.3775C10.1156 10.3476 11.3144 10.1952 12.2497 9.97046C12.7791 9.84328 13.1766 9.704 13.421 9.57629V9.57629C13.4548 9.55864 13.4751 9.52324 13.4751 9.48514V8.85144C13.4751 8.59066 13.2184 8.40585 12.9665 8.47316V8.47316C11.9982 8.73186 10.7711 8.89417 9.53375 8.92329C9.3129 8.92849 9.13379 8.74894 9.13379 8.52802V7.52802C9.13379 7.30711 9.31293 7.12854 9.53377 7.12274C10.6373 7.09376 11.7033 6.94751 12.5019 6.73415C12.9557 6.61292 13.2733 6.483 13.4563 6.37183V6.37183C13.468 6.36467 13.4751 6.35183 13.4751 6.33806V5.39829ZM13.5698 6.28886V6.28886C13.5721 6.28911 13.5674 6.2886 13.5698 6.28886V6.28886ZM13.5369 12.5246C13.5372 12.5246 13.5353 12.5271 13.5305 12.532C13.5342 12.527 13.5366 12.5246 13.5369 12.5246ZM5.75234 12.5246C5.75262 12.5246 5.75504 12.527 5.75879 12.532C5.75394 12.5271 5.75207 12.5246 5.75234 12.5246ZM13.5304 3.13906C13.5342 3.1341 13.5366 3.13166 13.5368 3.13168C13.5371 3.1317 13.5353 3.13418 13.5304 3.13906ZM5.75884 3.13904C5.754 3.13416 5.75213 3.13168 5.75241 3.13166C5.75268 3.13164 5.7551 3.13408 5.75884 3.13904Z" fill="url(#paint0_linear_658_120)"/>
<path d="M2.57257 4.72852H2.57029L2.56797 4.72855C2.44587 4.72995 2.32471 4.75538 2.21124 4.80393C2.09772 4.85249 1.99341 4.92357 1.90485 5.0142C1.81622 5.1049 1.74504 5.21353 1.69655 5.33454C1.64842 5.45464 1.62392 5.58388 1.62504 5.71474V11.0914C1.62392 11.2222 1.64842 11.3515 1.69655 11.4716C1.74504 11.5926 1.81622 11.7012 1.90485 11.7919C1.99341 11.8825 2.09772 11.9536 2.21124 12.0022C2.32471 12.0507 2.44587 12.0762 2.56797 12.0775L2.57029 12.0776H2.57257H7.82877H7.83106L7.83337 12.0775C7.95546 12.0762 8.07664 12.0507 8.19011 12.0022C8.30362 11.9536 8.40794 11.8825 8.4965 11.7919C8.58512 11.7012 8.65631 11.5926 8.7048 11.4716C8.75291 11.3515 8.77742 11.2223 8.77631 11.0914V5.71472C8.77742 5.58387 8.75291 5.45464 8.7048 5.33454C8.65631 5.21353 8.58512 5.1049 8.4965 5.0142C8.40794 4.92357 8.30362 4.85249 8.19011 4.80393C8.07664 4.75538 7.95546 4.72995 7.83337 4.72855L7.83106 4.72852H7.82877H2.57257Z" stroke="url(#paint1_linear_658_120)" stroke-width="1.5"/>
<path d="M3.39648 6.44463C3.39648 6.33417 3.48603 6.24463 3.59648 6.24463H5.48711C5.88475 6.24463 6.19776 6.34867 6.42611 6.55674C6.6584 6.7648 6.77455 7.06235 6.77455 7.44935C6.77455 7.63245 6.73517 7.80308 6.65643 7.96122C6.63781 7.99862 6.61731 8.03416 6.59494 8.06784C6.50511 8.20307 6.52786 8.42967 6.6428 8.54432C6.6894 8.59081 6.72938 8.64196 6.76273 8.69778C6.85722 8.85175 6.90447 9.05358 6.90447 9.30327C6.90447 9.56959 6.84541 9.80263 6.7273 10.0024C6.60918 10.1979 6.44973 10.3477 6.24893 10.4518C6.05208 10.5559 5.8316 10.6079 5.5875 10.6079H3.59648C3.48603 10.6079 3.39648 10.5183 3.39648 10.4079V6.44463ZM5.25678 7.97369C5.56388 7.97369 5.71742 7.8218 5.71742 7.51802C5.71742 7.3474 5.67805 7.23089 5.59931 7.16847C5.52057 7.10188 5.40048 7.06859 5.23906 7.06859H4.6418C4.53134 7.06859 4.4418 7.15813 4.4418 7.26859V7.77369C4.4418 7.88415 4.53134 7.97369 4.6418 7.97369H5.25678ZM5.32175 9.7839C5.49892 9.7839 5.63081 9.74853 5.71742 9.67779C5.80405 9.60704 5.84735 9.4822 5.84735 9.30327C5.84735 9.12432 5.80207 8.99532 5.71152 8.91625C5.62097 8.83303 5.48316 8.7914 5.29812 8.7914H4.6418C4.53134 8.7914 4.4418 8.88095 4.4418 8.9914V9.5839C4.4418 9.69436 4.53134 9.7839 4.6418 9.7839H5.32175Z" fill="url(#paint2_linear_658_120)"/>
<defs>
<linearGradient id="paint0_linear_658_120" x1="4.91416" y1="8.03917" x2="14.3751" y2="8.03917" gradientUnits="userSpaceOnUse">
<stop stop-color="#5800E2"/>
<stop offset="1" stop-color="#FF00E6"/>
</linearGradient>
<linearGradient id="paint1_linear_658_120" x1="1.625" y1="8.40307" x2="8.77635" y2="8.40307" gradientUnits="userSpaceOnUse">
<stop stop-color="#5800E2"/>
<stop offset="1" stop-color="#FF00E6"/>
</linearGradient>
<linearGradient id="paint2_linear_658_120" x1="3.39648" y1="8.42625" x2="6.90447" y2="8.42625" gradientUnits="userSpaceOnUse">
<stop stop-color="#5800E2"/>
<stop offset="1" stop-color="#FF00E6"/>
</linearGradient>
</defs>
</svg>
