<svg width="16" height="16" viewBox="0 0 16 16" fill="none" xmlns="http://www.w3.org/2000/svg">
<path d="M3.45678 5.63632C3.73591 5.44955 4.1136 5.52443 4.30036 5.80356L4.87197 6.65787C4.95117 6.77624 5.12521 6.77624 5.20442 6.65787L5.77603 5.80356C5.96279 5.52443 6.34047 5.44955 6.6196 5.63632C6.89873 5.82308 6.97361 6.20076 6.78685 6.47989L5.84428 7.88862C5.79925 7.95592 5.79925 8.04375 5.84428 8.11105L6.78685 9.51978C6.97361 9.79891 6.89873 10.1766 6.6196 10.3634C6.34047 10.5501 5.96279 10.4752 5.77603 10.1961L5.20442 9.3418C5.12521 9.22343 4.95117 9.22343 4.87197 9.3418L4.30036 10.1961C4.1136 10.4752 3.73591 10.5501 3.45678 10.3634C3.17765 10.1766 3.10277 9.79891 3.28954 9.51978L4.2321 8.11105C4.27714 8.04375 4.27714 7.95592 4.2321 7.88862L3.28954 6.47989C3.10277 6.20076 3.17765 5.82308 3.45678 5.63632Z" fill="url(#paint0_linear_657_92)"/>
<path fill-rule="evenodd" clip-rule="evenodd" d="M3.15936 3.86132C3.26981 3.86132 3.35936 3.77178 3.35936 3.66132V2.08784C3.35936 1.66672 3.52665 1.26284 3.82442 0.965067C4.1222 0.66729 4.52607 0.5 4.94719 0.5H13.4844C13.9055 0.5 14.3093 0.667289 14.6071 0.965067C14.9049 1.26284 15.0722 1.66672 15.0722 2.08784V13.9122C15.0722 14.3333 14.9049 14.7372 14.6071 15.0349C14.3093 15.3327 13.9055 15.5 13.4844 15.5H4.94719C4.52608 15.5 4.1222 15.3327 3.82442 15.0349C3.52664 14.7372 3.35936 14.3333 3.35936 13.9122V12.3383C3.35936 12.2279 3.26981 12.1383 3.15936 12.1383H2.33571C1.95491 12.1383 1.58971 11.9871 1.32044 11.7178C1.05117 11.4485 0.899902 11.0833 0.899902 10.7025V5.29713C0.899902 4.91633 1.05117 4.55113 1.32044 4.28186C1.58971 4.01259 1.95491 3.86132 2.33571 3.86132H3.15936ZM5.38368 3.86132C5.27322 3.86132 5.18368 3.77178 5.18368 3.66132V2.92432C5.18368 2.59295 5.45231 2.32432 5.78368 2.32432H12.6479C12.9792 2.32432 13.2479 2.59295 13.2479 2.92432V13.0757C13.2479 13.407 12.9792 13.6757 12.6479 13.6757H5.78368C5.45231 13.6757 5.18368 13.407 5.18368 13.0757V12.3383C5.18368 12.2279 5.27322 12.1383 5.38368 12.1383H7.74112C8.12192 12.1383 8.48712 11.9871 8.75639 11.7178C9.02566 11.4485 9.17693 11.0833 9.17693 10.7025V5.29713C9.17693 4.91633 9.02566 4.55113 8.75639 4.28186C8.48712 4.01259 8.12192 3.86132 7.74112 3.86132H5.38368ZM2.62017 5.38159C2.50972 5.38159 2.42017 5.47114 2.42017 5.58159V10.4181C2.42017 10.5285 2.50972 10.6181 2.62017 10.6181H7.45666C7.56712 10.6181 7.65666 10.5285 7.65666 10.4181V5.58159C7.65666 5.47114 7.56712 5.38159 7.45666 5.38159H2.62017Z" fill="url(#paint1_linear_657_92)"/>
<defs>
<linearGradient id="paint0_linear_657_92" x1="7.98605" y1="15.5" x2="7.98605" y2="0.5" gradientUnits="userSpaceOnUse">
<stop stop-color="#02AA93"/>
<stop offset="1" stop-color="#67FF80"/>
</linearGradient>
<linearGradient id="paint1_linear_657_92" x1="7.98605" y1="15.5" x2="7.98605" y2="0.5" gradientUnits="userSpaceOnUse">
<stop stop-color="#02AA93"/>
<stop offset="1" stop-color="#67FF80"/>
</linearGradient>
</defs>
</svg>
