<svg width="24" height="24" viewBox="0 0 24 24" fill="none" xmlns="http://www.w3.org/2000/svg">
<path d="M21.4961 7.42652L12.4962 2.28352C12.1887 2.10784 11.8113 2.10784 11.5039 2.28352L2.50385 7.42652C2.19228 7.60457 2 7.93591 2 8.29476V18.563C2 18.9218 2.19231 19.2532 2.50392 19.4312L4.83726 20.7644C5.14466 20.94 5.52201 20.94 5.82941 20.7644L8.16274 19.4312C8.47435 19.2532 8.66667 18.9218 8.66667 18.563V15.9137C8.66667 15.5548 8.47435 15.2235 8.16274 15.0454L5.83726 13.7168C5.52565 13.5388 5.33333 13.2074 5.33333 12.8485V10.1993C5.33333 9.84042 5.52569 9.50902 5.83737 9.331L11.504 6.09439C11.8114 5.91885 12.1886 5.91885 12.496 6.09439L18.1626 9.331C18.4743 9.50902 18.6667 9.84042 18.6667 10.1993V12.8485C18.6667 13.2074 18.4744 13.5388 18.1627 13.7168L15.8373 15.0454C15.5256 15.2235 15.3333 15.5548 15.3333 15.9137V18.563C15.3333 18.9218 15.5256 19.2532 15.8373 19.4312L18.1706 20.7644C18.478 20.94 18.8553 20.94 19.1627 20.7644L21.4961 19.4312C21.8077 19.2532 22 18.9218 22 18.563V8.29476C22 7.93591 21.8077 7.60457 21.4961 7.42652Z" fill="url(#paint0_linear_1036_45)"/>
<defs>
<linearGradient id="paint0_linear_1036_45" x1="15.1456" y1="16.3621" x2="-2.9301" y2="5.06667" gradientUnits="userSpaceOnUse">
<stop stop-color="#2AD454"/>
<stop offset="1" stop-color="#B3FF5A"/>
</linearGradient>
</defs>
</svg>
