<svg width="128" height="128" viewBox="0 0 128 128" fill="none" xmlns="http://www.w3.org/2000/svg">
<path d="M63.9347 119.869C33.2513 119.869 8 94.618 8 63.9347C8 33.2513 33.2513 8 63.9347 8C94.618 8 119.869 33.2513 119.869 63.9347C119.864 75.0584 116.518 85.8959 110.308 95.06C109.178 96.7274 109.308 98.9802 110.732 100.404L117.863 107.535C119.23 108.903 120 110.76 120 112.697C120 116.705 116.705 120 112.697 120C110.76 120 108.903 119.23 107.535 117.863L100.404 110.732C98.9802 109.308 96.7274 109.178 95.06 110.308C85.8959 116.518 75.0584 119.864 63.9347 119.869ZM94.4105 92.2273C94.8104 91.9676 95.1988 91.6848 95.5126 91.3258C102.137 83.7459 105.801 74.0175 105.813 63.9347C105.813 40.9607 86.9087 22.056 63.9347 22.056C54.4355 22.056 45.6329 25.2871 38.5743 30.7019C35.8585 32.7852 37.5458 36.686 40.9686 36.686H52.762C54.9711 36.686 56.762 38.4769 56.762 40.686V44.1567C56.762 46.3658 54.9711 48.1567 52.762 48.1567H27.854C26.2345 48.1567 24.7574 49.1277 24.2375 50.6614C24.073 51.147 23.9175 51.6355 23.7711 52.1268C23.0612 54.5097 24.9556 56.762 27.442 56.762H47.0267C49.2358 56.762 51.0267 58.5529 51.0267 60.762V64.2373C51.0267 66.4465 49.2358 68.2373 47.0267 68.2373H26.713C24.3418 68.2373 22.4756 70.2952 22.9724 72.6137C23.3051 74.1668 23.7278 75.7001 24.2379 77.2059C24.7577 78.7406 26.2353 79.7127 27.8557 79.7127H41.2913C43.5005 79.7127 45.2913 81.5035 45.2913 83.7127V87.1833C45.2913 89.3925 43.5005 91.1833 41.2913 91.1833H40.9686C37.5457 91.1833 35.8585 95.0841 38.5742 97.1674C45.6328 102.582 54.4355 105.813 63.9347 105.813C74.3624 105.813 83.9547 101.917 91.3201 95.5149C91.6829 95.1995 91.9685 94.8084 92.2306 94.4054C92.7967 93.5349 93.5395 92.7927 94.4105 92.2273ZM51.0267 87.1833C51.0267 89.3925 52.8175 91.1833 55.0267 91.1833H81.448C83.6571 91.1833 85.448 89.3925 85.448 87.1833V83.7127C85.448 81.5035 83.6571 79.7127 81.448 79.7127H55.0267C52.8175 79.7127 51.0267 81.5035 51.0267 83.7127V87.1833ZM79.7127 64.2373C79.7127 66.4465 81.5035 68.2373 83.7127 68.2373H98.6587C100.868 68.2373 102.659 66.4465 102.659 64.2373V60.762C102.659 58.5529 100.868 56.762 98.6587 56.762H83.7127C81.5035 56.762 79.7127 58.5529 79.7127 60.762V64.2373ZM56.762 64.2373C56.762 66.4465 58.5529 68.2373 60.762 68.2373H67.1073C69.3165 68.2373 71.1073 66.4465 71.1073 64.2373V60.762C71.1073 58.5529 69.3165 56.762 67.1073 56.762H60.762C58.5529 56.762 56.762 58.5529 56.762 60.762V64.2373ZM65.3673 44.1567C65.3673 46.3658 67.1582 48.1567 69.3673 48.1567H84.318C86.5271 48.1567 88.318 46.3658 88.318 44.1567V40.686C88.318 38.4769 86.5271 36.686 84.318 36.686H69.3673C67.1582 36.686 65.3673 38.4769 65.3673 40.686V44.1567Z" fill="url(#paint0_linear_714_81)"/>
<defs>
<linearGradient id="paint0_linear_714_81" x1="99.7312" y1="7.99999" x2="8.00032" y2="120.001" gradientUnits="userSpaceOnUse">
<stop stop-color="#DE00C0"/>
<stop offset="1" stop-color="#8720FF"/>
</linearGradient>
</defs>
</svg>
