<svg width="32" height="32" viewBox="0 0 32 32" fill="none" xmlns="http://www.w3.org/2000/svg">
<path d="M17.0211 6.0009C16.9321 5.99894 16.843 6.00018 16.7541 6.00463C16.1295 6.03502 15.5225 6.22287 14.9887 6.55092C14.455 6.87896 14.0117 7.33671 13.6995 7.88213C13.4526 8.31413 13.2935 8.79127 13.2315 9.28575C13.2016 9.52439 13.1946 9.76477 13.2103 10.0036C13.24 10.4569 13.0648 10.9216 12.6721 11.1499L9.07283 13.2431C8.67639 13.4737 8.18091 13.3922 7.79976 13.1372C7.60414 13.0063 7.39621 12.8939 7.17857 12.8019C6.72097 12.6085 6.22965 12.5089 5.73333 12.5088C5.24297 12.5088 4.75741 12.606 4.30439 12.795C3.85137 12.9839 3.43976 13.2608 3.09307 13.6098C2.74639 13.9589 2.47142 14.3733 2.28386 14.8293C2.09631 15.2854 1.99985 15.7741 2 16.2677C1.99985 16.7613 2.09631 17.2501 2.28386 17.7061C2.47142 18.1621 2.74639 18.5765 3.09307 18.9256C3.43976 19.2747 3.85137 19.5516 4.30439 19.7405C4.75741 19.9294 5.24297 20.0266 5.73333 20.0266C6.22905 20.0261 6.7197 19.9262 7.17666 19.7328C7.39379 19.6409 7.60125 19.5287 7.79644 19.3981C8.17747 19.1431 8.67277 19.0616 9.06918 19.2919L12.6718 21.3854C13.0646 21.6137 13.2399 22.0785 13.2102 22.5319C13.1946 22.7707 13.2016 23.0109 13.2315 23.2495C13.2935 23.744 13.4526 24.2211 13.6995 24.6531C13.9445 25.0808 14.2707 25.4556 14.6597 25.7563C15.0486 26.057 15.4926 26.2776 15.9662 26.4055C16.4399 26.5334 16.9339 26.5662 17.4202 26.5019C17.9064 26.4376 18.3753 26.2775 18.8 26.0307C19.2247 25.784 19.5969 25.4556 19.8954 25.0641C20.1939 24.6726 20.4129 24.2258 20.5399 23.7491C20.6669 23.2724 20.6993 22.7752 20.6353 22.2859C20.5714 21.7966 20.4123 21.3248 20.1672 20.8974C19.6719 20.0346 18.8563 19.4051 17.9 19.1475C16.9436 18.8898 15.9247 19.0251 15.0674 19.5235C14.9992 19.563 14.9322 19.6046 14.8666 19.6483C14.4861 19.9019 13.9923 19.9826 13.5968 19.7531L9.99664 17.6638C9.60156 17.4346 9.42637 16.9664 9.45828 16.5108C9.46393 16.43 9.46699 16.3491 9.46745 16.2681C9.46728 16.1862 9.46445 16.1044 9.45897 16.0228C9.42849 15.5685 9.60388 15.1023 9.99772 14.8737L13.5989 12.7835C13.995 12.5536 14.4898 12.635 14.8706 12.8896C14.9349 12.9326 15.0005 12.9736 15.0674 13.0126C15.9249 13.5109 16.9438 13.646 17.9002 13.3882C18.8565 13.1304 19.672 12.5008 20.1672 11.6378C20.4123 11.2104 20.5715 10.7386 20.6355 10.2494C20.6995 9.76011 20.6671 9.26294 20.5402 8.78627C20.4134 8.30959 20.1944 7.86274 19.896 7.47122C19.5975 7.07971 19.2254 6.7512 18.8008 6.50445C18.2591 6.18937 17.6466 6.0159 17.0211 6.0009Z" fill="url(#paint0_linear_1005_518)"/>
<path d="M23.0935 7.09347C23.7936 6.39333 24.7432 6 25.7333 6C26.7235 6 27.6731 6.39333 28.3732 7.09347C29.0733 7.7936 29.4667 8.74319 29.4667 9.73333C29.4667 10.7235 29.0733 11.6731 28.3732 12.3732C27.6731 13.0733 26.7235 13.4667 25.7333 13.4667C24.7432 13.4667 23.7936 13.0733 23.0935 12.3732C22.3933 11.6731 22 10.7235 22 9.73333C22 8.74319 22.3933 7.7936 23.0935 7.09347Z" fill="url(#paint1_linear_1005_518)"/>
<path d="M23.0935 20.1603C23.7936 19.4602 24.7432 19.0669 25.7333 19.0669C26.7235 19.0669 27.6731 19.4602 28.3732 20.1603C29.0733 20.8605 29.4667 21.8101 29.4667 22.8002C29.4667 23.7903 29.0733 24.7399 28.3732 25.4401C27.6731 26.1402 26.7235 26.5335 25.7333 26.5335C24.7432 26.5335 23.7936 26.1402 23.0935 25.4401C22.3933 24.7399 22 23.7903 22 22.8002C22 21.8101 22.3933 20.8605 23.0935 20.1603Z" fill="url(#paint2_linear_1005_518)"/>
<defs>
<linearGradient id="paint0_linear_1005_518" x1="11.3337" y1="26.5339" x2="11.3337" y2="6" gradientUnits="userSpaceOnUse">
<stop stop-color="#FD5900"/>
<stop offset="1" stop-color="#FFDE00"/>
</linearGradient>
<linearGradient id="paint1_linear_1005_518" x1="25.7333" y1="26.5333" x2="25.7333" y2="6" gradientUnits="userSpaceOnUse">
<stop stop-color="#FD5900"/>
<stop offset="1" stop-color="#FFDE00"/>
</linearGradient>
<linearGradient id="paint2_linear_1005_518" x1="25.7333" y1="26.5335" x2="25.7333" y2="6.00019" gradientUnits="userSpaceOnUse">
<stop stop-color="#FD5900"/>
<stop offset="1" stop-color="#FFDE00"/>
</linearGradient>
</defs>
</svg>
