<svg width="16" height="16" viewBox="0 0 16 16" fill="none" xmlns="http://www.w3.org/2000/svg">
<path fill-rule="evenodd" clip-rule="evenodd" d="M7.56086 0.5H7.59981H8.28295H8.3219H8.32192C9.40899 0.499992 10.2797 0.499986 10.9834 0.557486C11.7061 0.61653 12.3317 0.740661 12.9075 1.03407C13.8295 1.50385 14.5791 2.25345 15.0489 3.17545C15.3423 3.75129 15.4664 4.37685 15.5255 5.09952C15.583 5.80329 15.583 6.67397 15.5829 7.76105V7.8V8.48315V8.5221C15.583 9.60917 15.583 10.4799 15.5255 11.1836C15.4664 11.9063 15.3423 12.5319 15.0489 13.1077C14.5791 14.0297 13.8295 14.7793 12.9075 15.2491C12.3317 15.5425 11.7061 15.6666 10.9834 15.7257C10.2797 15.7832 9.40898 15.7832 8.3219 15.7831H8.28295H7.5998H7.56085C6.47377 15.7832 5.6031 15.7832 4.89932 15.7257C4.17666 15.6666 3.5511 15.5425 2.97525 15.2491C2.05326 14.7793 1.30365 14.0297 0.833873 13.1077C0.540466 12.5319 0.416335 11.9063 0.357291 11.1836C0.299791 10.4799 0.299797 9.60918 0.299805 8.52211V8.52209V8.48314V7.8V7.76105V7.76103C0.299797 6.67396 0.299791 5.80329 0.357291 5.09952C0.416335 4.37685 0.540466 3.75129 0.833873 3.17545C1.30365 2.25345 2.05326 1.50385 2.97525 1.03407C3.5511 0.740661 4.17666 0.61653 4.89932 0.557486C5.6031 0.499986 6.47377 0.499992 7.56084 0.5H7.56086ZM5.0459 2.35151C4.43455 2.40146 4.07224 2.49531 3.79243 2.63788C3.20913 2.93509 2.73489 3.40933 2.43768 3.99263C2.29512 4.27243 2.20126 4.63475 2.15131 5.2461C2.1005 5.86795 2.09981 6.66504 2.09981 7.8V8.48314C2.09981 9.40144 2.10026 10.0985 2.12735 10.6606L3.0532 9.73477L3.07802 9.70995C3.44762 9.34033 3.76258 9.02536 4.04246 8.78751C4.33672 8.53746 4.64984 8.32112 5.03154 8.19523C5.60758 8.00523 6.2287 8.00064 6.80748 8.18211C7.19099 8.30235 7.50728 8.51404 7.80519 8.75972C8.08856 8.9934 8.40814 9.30369 8.78316 9.66781L8.80834 9.69226L10.2446 11.0867L9.61768 11.7324L10.2541 11.096L12.5305 13.3724C12.9129 13.0886 13.2268 12.719 13.4451 12.2905C13.5876 12.0107 13.6815 11.6484 13.7314 11.037C13.7822 10.4152 13.7829 9.6181 13.7829 8.48315V7.8C13.7829 6.66505 13.7822 5.86796 13.7314 5.2461C13.6815 4.63475 13.5876 4.27243 13.4451 3.99263C13.1479 3.40933 12.6736 2.93509 12.0903 2.63788C11.8105 2.49531 11.4482 2.40146 10.8369 2.35151C10.215 2.3007 9.41791 2.3 8.28295 2.3H7.59981C6.46485 2.3 5.66776 2.3007 5.0459 2.35151ZM3.79243 13.6453C3.34086 13.4152 2.95464 13.079 2.66534 12.6682L4.326 11.0076C4.72718 10.6064 4.99054 10.344 5.20806 10.1591C5.41746 9.9812 5.52549 9.92768 5.59535 9.90465C5.81385 9.83258 6.04944 9.83084 6.26898 9.89967C6.33917 9.92168 6.44798 9.97359 6.65998 10.1484C6.88021 10.33 7.14742 10.5885 7.55449 10.9837L8.98596 12.3735L10.5627 13.9503C9.98336 13.9826 9.25778 13.9831 8.28295 13.9831H7.5998C6.46485 13.9831 5.66776 13.9824 5.0459 13.9316C4.43455 13.8817 4.07224 13.7878 3.79243 13.6453ZM10.1897 5.44478C10.1897 5.19718 10.3904 4.99646 10.638 4.99646C10.8856 4.99646 11.0863 5.19718 11.0863 5.44478C11.0863 5.69238 10.8856 5.89309 10.638 5.89309C10.3904 5.89309 10.1897 5.69238 10.1897 5.44478ZM10.638 3.19646C9.3963 3.19646 8.38969 4.20307 8.38969 5.44478C8.38969 6.68649 9.3963 7.69309 10.638 7.69309C11.8797 7.69309 12.8863 6.68649 12.8863 5.44478C12.8863 4.20307 11.8797 3.19646 10.638 3.19646Z" fill="url(#paint0_linear_525_677)"/>
<defs>
<linearGradient id="paint0_linear_525_677" x1="7.94138" y1="15.7831" x2="7.94138" y2="1.39901" gradientUnits="userSpaceOnUse">
<stop stop-color="#18AEFA"/>
<stop offset="1" stop-color="#83E1FF"/>
</linearGradient>
</defs>
</svg>
