<svg width="16" height="16" viewBox="0 0 16 16" fill="none" xmlns="http://www.w3.org/2000/svg">
<path fill-rule="evenodd" clip-rule="evenodd" d="M12.9438 3.05591C14.2554 4.3675 14.9946 6.14483 15 7.99969C15.0031 8.06404 15.0026 8.12843 14.9984 8.19255C14.9866 8.37527 14.8217 8.49969 14.6386 8.49969H6.40933C6.1848 8.49969 6.00349 8.68455 6.01738 8.90864C6.1255 10.6531 6.66611 12.3446 7.59182 13.8298C7.65884 13.9373 7.77457 14.0052 7.90123 14.0085C8.57664 14.0261 9.24923 13.924 9.8879 13.7074C10.1118 13.6315 10.3617 13.7451 10.4329 13.9705L10.4892 14.1489C10.5518 14.3472 10.4524 14.5617 10.2559 14.6299C9.53165 14.8815 8.76855 15.0069 8 14.9997C7.08071 14.9998 6.1704 14.8188 5.32106 14.4671C4.47172 14.1154 3.7 13.5998 3.04996 12.9497C2.39992 12.2997 1.88431 11.528 1.53258 10.6786C1.18084 9.82929 0.999869 8.91898 1 7.99969C0.999943 6.93009 1.24776 5.8773 1.72126 4.92304C1.83248 4.69889 2.12461 4.65101 2.3137 4.8149L2.45357 4.93611C2.59704 5.06045 2.6319 5.26788 2.54885 5.4386C2.29775 5.95479 2.12797 6.5065 2.04534 7.07413C2.01199 7.30329 2.19649 7.49969 2.42806 7.49969H4.6135C4.82907 7.49969 5.00518 7.32878 5.0192 7.11366C5.10867 5.7405 5.42299 4.39262 5.94837 3.12358C6.08114 2.80288 5.77411 2.4656 5.45723 2.60723C5.28052 2.68621 5.07118 2.62788 4.96604 2.46538L4.82674 2.2501C4.7031 2.05903 4.76314 1.80231 4.96627 1.69969C5.90431 1.22577 6.94503 0.984639 8 0.999687C9.85485 1.0051 11.6322 1.74433 12.9438 3.05591ZM5.51696 13.4634C5.83732 13.6129 6.13485 13.2699 5.99601 12.9448C5.44593 11.6569 5.11565 10.2844 5.02027 8.88454C5.00564 8.66991 4.82974 8.49969 4.61461 8.49969H2.44185C2.20525 8.49969 2.01929 8.70429 2.05931 8.93747C2.27329 10.184 2.86117 11.3402 3.75 12.2497C4.26943 12.7506 4.86691 13.1602 5.51696 13.4634ZM6.01609 7.09176C6.003 7.31549 6.18414 7.49969 6.40824 7.49969H9.59176C9.81586 7.49969 9.997 7.31549 9.98391 7.09176C9.88249 5.3592 9.36191 3.67602 8.46577 2.18757C8.39492 2.0699 8.26668 1.99969 8.12932 1.99969H7.87068C7.73332 1.99969 7.60508 2.0699 7.53423 2.18757C6.63809 3.67602 6.11751 5.3592 6.01609 7.09176ZM10.9854 7.10809C10.9972 7.32549 11.1742 7.49969 11.3919 7.49969H13.5147C13.749 7.49969 13.9342 7.29901 13.8977 7.06766C13.7306 6.00711 13.2834 5.00737 12.599 4.17342C12.0249 3.47403 11.304 2.9156 10.4919 2.5349C10.1708 2.38435 9.87637 2.73153 10.0191 3.05623C10.5816 4.33633 10.9095 5.70886 10.9854 7.10809ZM4.5 3.5C4.5 4.05228 4.05228 4.5 3.5 4.5C2.94772 4.5 2.5 4.05228 2.5 3.5C2.5 2.94772 2.94772 2.5 3.5 2.5C4.05228 2.5 4.5 2.94772 4.5 3.5ZM11.5 10.5C11.5 11.0523 11.0523 11.5 10.5 11.5C9.94771 11.5 9.5 11.0523 9.5 10.5C9.5 9.94771 9.94771 9.5 10.5 9.5C11.0523 9.5 11.5 9.94771 11.5 10.5ZM13.5 15.5C13.1044 15.5 12.7178 15.3827 12.3889 15.1629C12.06 14.9432 11.8036 14.6308 11.6522 14.2654C11.5009 13.8999 11.4613 13.4978 11.5384 13.1098C11.6156 12.7219 11.8061 12.3655 12.0858 12.0858C12.3655 11.8061 12.7219 11.6156 13.1098 11.5384C13.4978 11.4613 13.8999 11.5009 14.2654 11.6522C14.6308 11.8036 14.9432 12.06 15.1629 12.3889C15.3827 12.7178 15.5 13.1044 15.5 13.5C15.4984 14.0299 15.2872 14.5377 14.9125 14.9125C14.5377 15.2872 14.0299 15.4984 13.5 15.5ZM13.5 12.5C13.3022 12.5 13.1089 12.5587 12.9444 12.6685C12.78 12.7784 12.6518 12.9346 12.5761 13.1173C12.5004 13.3 12.4806 13.5011 12.5192 13.6951C12.5578 13.8891 12.653 14.0673 12.7929 14.2071C12.9327 14.347 13.1109 14.4422 13.3049 14.4808C13.4989 14.5194 13.7 14.4996 13.8827 14.4239C14.0654 14.3482 14.2216 14.22 14.3315 14.0556C14.4414 13.8911 14.5 13.6978 14.5 13.5C14.4992 13.235 14.3936 12.9811 14.2062 12.7938C14.0189 12.6064 13.765 12.5008 13.5 12.5Z" fill="url(#paint0_linear_550_939)"/>
<path d="M15 7.99969L14.6997 8.00056L14.7004 8.01425L15 7.99969ZM12.9438 3.05591L13.1559 2.84378L13.1559 2.84378L12.9438 3.05591ZM14.9984 8.19255L14.6991 8.1731L14.6991 8.1731L14.9984 8.19255ZM6.01738 8.90864L5.71795 8.9272L5.71795 8.9272L6.01738 8.90864ZM7.59182 13.8298L7.33723 13.9885L7.33723 13.9885L7.59182 13.8298ZM7.90123 14.0085L7.89339 14.3084L7.89339 14.3084L7.90123 14.0085ZM9.8879 13.7074L9.98425 13.9915L9.98425 13.9915L9.8879 13.7074ZM10.4329 13.9705L10.719 13.8802L10.719 13.8802L10.4329 13.9705ZM10.4892 14.1489L10.2031 14.2392L10.2031 14.2392L10.4892 14.1489ZM10.2559 14.6299L10.3544 14.9133L10.3544 14.9133L10.2559 14.6299ZM8 14.9997L8.00283 14.6997L7.99996 14.6997L8 14.9997ZM3.04996 12.9497L3.26209 12.7376L3.26209 12.7376L3.04996 12.9497ZM1.53258 10.6786L1.2554 10.7934L1.2554 10.7934L1.53258 10.6786ZM1 7.99969L1.3 7.99973L1.3 7.99967L1 7.99969ZM1.72126 4.92304L1.98999 5.05639L1.98999 5.05639L1.72126 4.92304ZM2.3137 4.8149L2.51018 4.58819L2.51018 4.58819L2.3137 4.8149ZM2.45357 4.93611L2.25709 5.16282L2.25709 5.16282L2.45357 4.93611ZM2.54885 5.4386L2.27908 5.30737L2.27908 5.30737L2.54885 5.4386ZM2.04534 7.07413L2.34222 7.11734L2.34222 7.11734L2.04534 7.07413ZM5.0192 7.11366L5.31856 7.13317L5.31856 7.13317L5.0192 7.11366ZM5.94837 3.12358L6.22556 3.23834L6.22556 3.23834L5.94837 3.12358ZM5.45723 2.60723L5.33481 2.33334L5.33481 2.33334L5.45723 2.60723ZM4.96604 2.46538L4.71417 2.62836L4.71417 2.62836L4.96604 2.46538ZM4.82674 2.2501L4.57487 2.41308L4.57487 2.41308L4.82674 2.2501ZM4.96627 1.69969L4.83099 1.43192L4.83099 1.43192L4.96627 1.69969ZM8 0.999687L7.99572 1.29968L7.99913 1.29969L8 0.999687ZM5.99601 12.9448L5.72012 13.0627L5.72012 13.0627L5.99601 12.9448ZM5.51696 13.4634L5.64379 13.1916L5.64379 13.1916L5.51696 13.4634ZM5.02027 8.88454L5.31957 8.86415L5.02027 8.88454ZM2.05931 8.93747L2.35499 8.88672L2.35499 8.88672L2.05931 8.93747ZM3.75 12.2497L3.53535 12.4595L3.54175 12.4656L3.75 12.2497ZM6.01609 7.09176L5.71661 7.07423L5.71661 7.07423L6.01609 7.09176ZM9.98391 7.09176L9.68442 7.10929L9.68442 7.10929L9.98391 7.09176ZM8.46577 2.18757L8.72279 2.03284L8.72279 2.03284L8.46577 2.18757ZM7.53423 2.18757L7.27722 2.03284L7.27722 2.03284L7.53423 2.18757ZM10.9854 7.10809L10.6858 7.12434L10.6858 7.12434L10.9854 7.10809ZM13.8977 7.06766L13.6014 7.11437L13.6014 7.11437L13.8977 7.06766ZM12.599 4.17342L12.8308 3.9831L12.8308 3.9831L12.599 4.17342ZM10.4919 2.5349L10.3646 2.80653L10.3646 2.80653L10.4919 2.5349ZM10.0191 3.05623L9.7444 3.17692L9.7444 3.17692L10.0191 3.05623ZM13.5 15.5L13.5 15.8L13.5009 15.8L13.5 15.5ZM11.6522 14.2654L11.3751 14.3802L11.3751 14.3802L11.6522 14.2654ZM14.2654 11.6522L14.3802 11.3751L14.3802 11.3751L14.2654 11.6522ZM15.5 13.5L15.8 13.5009V13.5H15.5ZM12.9444 12.6685L12.7778 12.4191L12.7778 12.4191L12.9444 12.6685ZM13.5 12.5L13.5009 12.2H13.5V12.5ZM12.5192 13.6951L12.225 13.7536L12.225 13.7536L12.5192 13.6951ZM13.3049 14.4808L13.3634 14.1866L13.3634 14.1866L13.3049 14.4808ZM14.3315 14.0556L14.082 13.8889L14.082 13.8889L14.3315 14.0556ZM14.5 13.5L14.8 13.5L14.8 13.4991L14.5 13.5ZM15.3 7.99881C15.2944 6.0647 14.5235 4.21141 13.1559 2.84378L12.7316 3.26805C13.9872 4.52358 14.6948 6.22497 14.7 8.00056L15.3 7.99881ZM15.2978 8.212C15.3027 8.13656 15.3033 8.06082 15.2996 7.98512L14.7004 8.01425C14.7029 8.06726 14.7025 8.12029 14.6991 8.1731L15.2978 8.212ZM14.6386 8.79969C14.9433 8.79969 15.2735 8.58661 15.2978 8.212L14.6991 8.1731C14.6989 8.17539 14.6985 8.17589 14.6984 8.17614C14.6981 8.17677 14.6965 8.17935 14.6922 8.18296C14.6825 8.19092 14.6636 8.19969 14.6386 8.19969V8.79969ZM6.40933 8.79969H14.6386V8.19969H6.40933V8.79969ZM6.31681 8.89009C6.3141 8.84637 6.34995 8.79969 6.40933 8.79969V8.19969C6.01966 8.19969 5.69289 8.52273 5.71795 8.9272L6.31681 8.89009ZM7.84641 13.6711C6.94707 12.2282 6.42185 10.5849 6.31681 8.89008L5.71795 8.9272C5.82915 10.7214 6.38516 12.461 7.33723 13.9885L7.84641 13.6711ZM7.90906 13.7086C7.8858 13.708 7.86154 13.6954 7.84641 13.6711L7.33723 13.9885C7.45614 14.1792 7.66333 14.3024 7.89339 14.3084L7.90906 13.7086ZM9.79156 13.4233C9.18638 13.6285 8.54906 13.7253 7.90906 13.7086L7.89339 14.3084C8.60423 14.327 9.31209 14.2194 9.98425 13.9915L9.79156 13.4233ZM10.719 13.8802C10.5927 13.4802 10.1602 13.2983 9.79156 13.4233L9.98425 13.9915C10.0634 13.9647 10.1308 14.01 10.1468 14.0609L10.719 13.8802ZM10.7753 14.0585L10.719 13.8802L10.1468 14.0609L10.2031 14.2392L10.7753 14.0585ZM10.3544 14.9133C10.7142 14.7883 10.8836 14.4014 10.7753 14.0585L10.2031 14.2392C10.2201 14.293 10.1906 14.335 10.1575 14.3465L10.3544 14.9133ZM7.99717 15.2997C8.80022 15.3072 9.59758 15.1762 10.3544 14.9133L10.1575 14.3465C9.46572 14.5868 8.73687 14.7066 8.00283 14.6997L7.99717 15.2997ZM5.20628 14.7443C6.09202 15.1111 7.04135 15.2998 8.00004 15.2997L7.99996 14.6997C7.12007 14.6998 6.24878 14.5266 5.43585 14.1899L5.20628 14.7443ZM2.83783 13.1619C3.51573 13.8398 4.32053 14.3775 5.20628 14.7443L5.43585 14.1899C4.62291 13.8533 3.88427 13.3598 3.26209 12.7376L2.83783 13.1619ZM1.2554 10.7934C1.62222 11.6792 2.15993 12.484 2.83783 13.1619L3.26209 12.7376C2.63992 12.1154 2.14641 11.3768 1.80975 10.5638L1.2554 10.7934ZM0.7 7.99964C0.699863 8.95834 0.888591 9.90767 1.2554 10.7934L1.80975 10.5638C1.47309 9.75091 1.29987 8.87962 1.3 7.99973L0.7 7.99964ZM1.45252 4.7897C0.958498 5.78531 0.69994 6.88375 0.7 7.9997L1.3 7.99967C1.29995 6.97644 1.53702 5.96928 1.98999 5.05639L1.45252 4.7897ZM2.51018 4.58819C2.18449 4.30593 1.65772 4.37616 1.45252 4.7897L1.98999 5.05639C2.00059 5.03503 2.01764 5.02291 2.04039 5.0189C2.06454 5.01464 2.09291 5.02053 2.11722 5.0416L2.51018 4.58819ZM2.65005 4.7094L2.51018 4.58819L2.11722 5.0416L2.25709 5.16282L2.65005 4.7094ZM2.81863 5.56984C2.95648 5.28646 2.90393 4.92944 2.65005 4.7094L2.25709 5.16282C2.29014 5.19147 2.30733 5.2493 2.27908 5.30737L2.81863 5.56984ZM2.34222 7.11734C2.42039 6.58026 2.58104 6.05824 2.81863 5.56983L2.27908 5.30737C2.01447 5.85133 1.83555 6.43274 1.74847 7.03092L2.34222 7.11734ZM2.42806 7.19969C2.3982 7.19969 2.37414 7.18727 2.35902 7.17069C2.34485 7.15515 2.33928 7.13753 2.34222 7.11734L1.74847 7.03092C1.68648 7.45677 2.02985 7.79969 2.42806 7.79969V7.19969ZM4.6135 7.19969H2.42806V7.79969H4.6135V7.19969ZM4.71983 7.09416C4.71571 7.15737 4.66513 7.19969 4.6135 7.19969V7.79969C4.99301 7.79969 5.29465 7.50018 5.31856 7.13317L4.71983 7.09416ZM5.67119 3.00883C5.13326 4.30816 4.81144 5.68821 4.71983 7.09416L5.31856 7.13317C5.4059 5.79278 5.71272 4.47708 6.22556 3.23834L5.67119 3.00883ZM5.57964 2.88112C5.59934 2.87231 5.61091 2.87351 5.61783 2.87514C5.62691 2.87727 5.63965 2.8834 5.65229 2.89693C5.67825 2.92469 5.68901 2.96578 5.67119 3.00883L6.22556 3.23834C6.34051 2.96068 6.26414 2.67278 6.09055 2.48714C5.91396 2.29828 5.62378 2.20419 5.33481 2.33334L5.57964 2.88112ZM4.71417 2.62836C4.90245 2.91934 5.27261 3.01834 5.57964 2.88112L5.33481 2.33334C5.28843 2.35407 5.23992 2.33643 5.21791 2.30241L4.71417 2.62836ZM4.57487 2.41308L4.71417 2.62836L5.21791 2.30241L5.07861 2.08712L4.57487 2.41308ZM4.83099 1.43192C4.4571 1.62081 4.36157 2.08344 4.57487 2.41308L5.07861 2.08712C5.04463 2.03461 5.06917 1.98381 5.10155 1.96745L4.83099 1.43192ZM8.00428 0.699717C6.90078 0.683977 5.81218 0.936205 4.83099 1.43192L5.10155 1.96745C5.99644 1.51534 6.98928 1.2853 7.99572 1.29966L8.00428 0.699717ZM13.1559 2.84378C11.7883 1.47615 9.93499 0.705328 8.00087 0.699688L7.99913 1.29969C9.77472 1.30486 11.4761 2.01251 12.7316 3.26805L13.1559 2.84378ZM5.72012 13.0627C5.74173 13.1133 5.72796 13.1567 5.70585 13.1812C5.69508 13.1932 5.6852 13.1974 5.67949 13.1987C5.67597 13.1995 5.66539 13.2016 5.64379 13.1916L5.39013 13.7353C5.68082 13.8709 5.97458 13.7792 6.15152 13.5829C6.32356 13.3921 6.38913 13.1015 6.2719 12.827L5.72012 13.0627ZM4.72096 8.90493C4.81863 10.3384 5.15684 11.7438 5.72012 13.0627L6.2719 12.827C5.73503 11.57 5.41266 10.2304 5.31957 8.86415L4.72096 8.90493ZM4.61461 8.79969C4.66613 8.79969 4.71666 8.84183 4.72096 8.90493L5.31957 8.86415C5.29463 8.498 4.99334 8.19969 4.61461 8.19969V8.79969ZM2.44185 8.79969H4.61461V8.19969H2.44185V8.79969ZM2.35499 8.88672C2.3513 8.86524 2.35696 8.84639 2.37151 8.82995C2.38693 8.81252 2.41142 8.79969 2.44185 8.79969V8.19969C2.03436 8.19969 1.68965 8.55719 1.76364 8.98823L2.35499 8.88672ZM3.96455 12.04C3.11837 11.1742 2.55869 10.0734 2.35499 8.88672L1.76364 8.98823C1.98788 10.2946 2.60397 11.5062 3.53545 12.4594L3.96455 12.04ZM5.64379 13.1916C5.02369 12.9023 4.45375 12.5116 3.95825 12.0337L3.54175 12.4656C4.08512 12.9897 4.71013 13.4181 5.39013 13.7353L5.64379 13.1916ZM6.40824 7.19969C6.34905 7.19969 6.31301 7.15317 6.31558 7.10929L5.71661 7.07423C5.69298 7.4778 6.01923 7.79969 6.40824 7.79969V7.19969ZM9.59176 7.19969H6.40824V7.79969H9.59176V7.19969ZM9.68442 7.10929C9.68699 7.15317 9.65095 7.19969 9.59176 7.19969V7.79969C9.98077 7.79969 10.307 7.4778 10.2834 7.07423L9.68442 7.10929ZM8.20876 2.34231C9.07983 3.78911 9.58584 5.4252 9.68442 7.10929L10.2834 7.07423C10.1791 5.29319 9.644 3.56292 8.72279 2.03284L8.20876 2.34231ZM8.12932 2.29969C8.1649 2.29969 8.19393 2.31768 8.20876 2.34231L8.72279 2.03284C8.59592 1.82211 8.36846 1.69969 8.12932 1.69969V2.29969ZM7.87068 2.29969H8.12932V1.69969H7.87068V2.29969ZM7.79124 2.34231C7.80607 2.31768 7.8351 2.29969 7.87068 2.29969V1.69969C7.63154 1.69969 7.40408 1.82211 7.27722 2.03284L7.79124 2.34231ZM6.31558 7.10929C6.41416 5.4252 6.92017 3.78911 7.79124 2.34231L7.27722 2.03284C6.356 3.56292 5.82086 5.29319 5.71661 7.07423L6.31558 7.10929ZM11.3919 7.19969C11.3399 7.19969 11.2884 7.15657 11.2849 7.09184L10.6858 7.12434C10.7059 7.4944 11.0084 7.79969 11.3919 7.79969V7.19969ZM13.5147 7.19969H11.3919V7.79969H13.5147V7.19969ZM13.6014 7.11437C13.6047 7.13543 13.599 7.15387 13.5846 7.16997C13.5692 7.18706 13.5449 7.19969 13.5147 7.19969V7.79969C13.918 7.79969 14.2616 7.44915 14.1941 7.02094L13.6014 7.11437ZM12.3671 4.36375C13.0176 5.15632 13.4425 6.10645 13.6014 7.11437L14.1941 7.02094C14.0186 5.90777 13.5493 4.85842 12.8308 3.9831L12.3671 4.36375ZM10.3646 2.80653C11.1363 3.16835 11.8215 3.69906 12.3671 4.36375L12.8308 3.9831C12.2283 3.24899 11.4716 2.66286 10.6193 2.26327L10.3646 2.80653ZM10.2937 2.93554C10.2712 2.88423 10.285 2.84021 10.3064 2.81597C10.3168 2.80423 10.326 2.80044 10.3306 2.79935C10.3331 2.79878 10.3429 2.79639 10.3646 2.80653L10.6193 2.26327C10.3271 2.12631 10.0325 2.21977 9.85673 2.41872C9.68632 2.61161 9.62427 2.90353 9.7444 3.17692L10.2937 2.93554ZM11.2849 7.09184C11.2071 5.65654 10.8707 4.24864 10.2937 2.93554L9.7444 3.17692C10.2924 4.42403 10.6119 5.76118 10.6858 7.12434L11.2849 7.09184ZM3.5 4.8C4.21797 4.8 4.8 4.21797 4.8 3.5H4.2C4.2 3.8866 3.8866 4.2 3.5 4.2V4.8ZM2.2 3.5C2.2 4.21797 2.78203 4.8 3.5 4.8V4.2C3.1134 4.2 2.8 3.8866 2.8 3.5H2.2ZM3.5 2.2C2.78203 2.2 2.2 2.78203 2.2 3.5H2.8C2.8 3.1134 3.1134 2.8 3.5 2.8V2.2ZM4.8 3.5C4.8 2.78203 4.21797 2.2 3.5 2.2V2.8C3.8866 2.8 4.2 3.1134 4.2 3.5H4.8ZM10.5 11.8C11.218 11.8 11.8 11.218 11.8 10.5H11.2C11.2 10.8866 10.8866 11.2 10.5 11.2V11.8ZM9.2 10.5C9.2 11.218 9.78203 11.8 10.5 11.8V11.2C10.1134 11.2 9.8 10.8866 9.8 10.5H9.2ZM10.5 9.2C9.78203 9.2 9.2 9.78203 9.2 10.5H9.8C9.8 10.1134 10.1134 9.8 10.5 9.8V9.2ZM11.8 10.5C11.8 9.78203 11.218 9.2 10.5 9.2V9.8C10.8866 9.8 11.2 10.1134 11.2 10.5H11.8ZM12.2222 15.4124C12.6004 15.6651 13.0451 15.8 13.5 15.8V15.2C13.1638 15.2 12.8351 15.1003 12.5555 14.9135L12.2222 15.4124ZM11.3751 14.3802C11.5492 14.8004 11.844 15.1597 12.2222 15.4124L12.5555 14.9135C12.276 14.7267 12.0581 14.4612 11.9294 14.1506L11.3751 14.3802ZM11.2442 13.0513C11.1554 13.4975 11.201 13.9599 11.3751 14.3802L11.9294 14.1506C11.8007 13.8399 11.7671 13.4981 11.8327 13.1683L11.2442 13.0513ZM11.8737 11.8737C11.552 12.1953 11.3329 12.6051 11.2442 13.0513L11.8327 13.1683C11.8983 12.8386 12.0602 12.5357 12.2979 12.2979L11.8737 11.8737ZM13.0513 11.2442C12.6051 11.3329 12.1953 11.552 11.8737 11.8737L12.2979 12.2979C12.5357 12.0602 12.8386 11.8983 13.1683 11.8327L13.0513 11.2442ZM14.3802 11.3751C13.9599 11.201 13.4975 11.1554 13.0513 11.2442L13.1683 11.8327C13.4981 11.7671 13.8399 11.8007 14.1506 11.9294L14.3802 11.3751ZM15.4124 12.2222C15.1597 11.844 14.8004 11.5492 14.3802 11.3751L14.1506 11.9294C14.4612 12.0581 14.7267 12.276 14.9135 12.5555L15.4124 12.2222ZM15.8 13.5C15.8 13.0451 15.6651 12.6004 15.4124 12.2222L14.9135 12.5555C15.1003 12.8351 15.2 13.1638 15.2 13.5H15.8ZM15.1246 15.1246C15.5554 14.6938 15.7982 14.1101 15.8 13.5009L15.2 13.4991C15.1987 13.9498 15.019 14.3816 14.7003 14.7003L15.1246 15.1246ZM13.5009 15.8C14.1101 15.7982 14.6938 15.5554 15.1246 15.1246L14.7003 14.7003C14.3816 15.019 13.9498 15.1987 13.4991 15.2L13.5009 15.8ZM13.1111 12.918C13.2262 12.8411 13.3616 12.8 13.5 12.8V12.2C13.2429 12.2 12.9915 12.2762 12.7778 12.4191L13.1111 12.918ZM12.8533 13.2321C12.9063 13.1042 12.996 12.9949 13.1111 12.918L12.7778 12.4191C12.564 12.5619 12.3974 12.765 12.299 13.0025L12.8533 13.2321ZM12.8135 13.6366C12.7864 13.5008 12.8003 13.36 12.8533 13.2321L12.299 13.0025C12.2006 13.2401 12.1748 13.5014 12.225 13.7536L12.8135 13.6366ZM13.005 13.995C12.9071 13.8971 12.8405 13.7724 12.8135 13.6366L12.225 13.7536C12.2751 14.0058 12.399 14.2374 12.5808 14.4192L13.005 13.995ZM13.3634 14.1866C13.2277 14.1595 13.1029 14.0929 13.005 13.995L12.5808 14.4192C12.7626 14.601 12.9942 14.7249 13.2464 14.775L13.3634 14.1866ZM13.7679 14.1467C13.64 14.1997 13.4992 14.2136 13.3634 14.1866L13.2464 14.775C13.4986 14.8252 13.7599 14.7994 13.9975 14.701L13.7679 14.1467ZM14.082 13.8889C14.0051 14.004 13.8958 14.0937 13.7679 14.1467L13.9975 14.701C14.235 14.6027 14.4381 14.436 14.5809 14.2222L14.082 13.8889ZM14.2 13.5C14.2 13.6384 14.1589 13.7738 14.082 13.8889L14.5809 14.2222C14.7238 14.0085 14.8 13.7571 14.8 13.5H14.2ZM13.9941 13.0059C14.1254 13.1372 14.1994 13.3152 14.2 13.5009L14.8 13.4991C14.799 13.1549 14.6618 12.825 14.4184 12.5816L13.9941 13.0059ZM13.4991 12.8C13.6848 12.8006 13.8628 12.8746 13.9941 13.0059L14.4184 12.5816C14.175 12.3382 13.8451 12.201 13.5009 12.2L13.4991 12.8Z" fill="url(#paint1_linear_550_939)"/>
<defs>
<linearGradient id="paint0_linear_550_939" x1="8.25" y1="15.5" x2="8.25" y2="1.85202" gradientUnits="userSpaceOnUse">
<stop stop-color="#18AEFA"/>
<stop offset="1" stop-color="#83E1FF"/>
</linearGradient>
<linearGradient id="paint1_linear_550_939" x1="8.25" y1="15.5" x2="8.25" y2="1.85202" gradientUnits="userSpaceOnUse">
<stop stop-color="#18AEFA"/>
<stop offset="1" stop-color="#83E1FF"/>
</linearGradient>
</defs>
</svg>
