<svg width="128" height="128" viewBox="0 0 128 128" fill="none" xmlns="http://www.w3.org/2000/svg">
<path fill-rule="evenodd" clip-rule="evenodd" d="M84.282 23.1972C82.7188 24.3677 81.1549 25.5387 79.4218 26.4614C79.3961 29.8154 79.3993 33.1693 79.4025 36.5232C79.4036 37.6416 79.4047 38.7601 79.4047 39.8785C80.7287 38.9692 82.0403 38.0427 83.3519 37.1162L83.352 37.1161C85.4941 35.6029 87.6359 34.0899 89.8309 32.6526L89.8309 32.6519C89.8366 29.75 89.8347 26.8443 89.8328 23.9399V23.9389V23.938V23.937V23.9361V23.9351V23.9341V23.9332V23.9322V23.9313V23.9303V23.9293V23.9284V23.9274V23.9264V23.9255V23.9245V23.9236V23.9226C89.8318 22.4765 89.8309 21.0307 89.8309 19.5859C87.8194 20.5484 86.0512 21.8725 84.282 23.1972ZM39.1796 73.1573C38.2372 73.92 37.295 74.6826 36.3333 75.4183C36.3321 76.0314 36.3307 76.6445 36.3293 77.2577V77.2578V77.2579V77.2581V77.2582V77.2584V77.2585V77.2586V77.2588V77.2589V77.259V77.2592V77.2593V77.2595V77.2596V77.2597V77.2599C36.3208 80.9386 36.3123 84.6179 36.342 88.2964L36.3412 88.297C36.4233 89.4196 36.371 90.5876 36.3183 91.762C36.194 94.5332 36.0681 97.3401 37.7048 99.6707C40.4323 101.936 45.2484 101.047 46.1117 97.3792C46.5879 93.9458 46.5226 90.4716 46.4573 86.9996C46.4196 84.9972 46.382 82.9955 46.4483 81.0028L46.4491 81.0022C46.4491 79.9118 46.4497 78.8214 46.4502 77.7309V77.7296C46.4518 74.4594 46.4535 71.1892 46.4405 67.9189C43.8249 69.3974 41.5019 71.2776 39.1796 73.1573ZM36.7382 30.7884C38.2142 26.3502 45.1189 26.9402 46.3275 31.2844C46.4223 32.9691 46.4483 34.6622 46.4483 36.3555C44.3179 37.4608 42.406 38.885 40.4933 40.3098C39.1358 41.3211 37.7779 42.3327 36.3411 43.2308C36.4016 41.7813 36.3604 40.3202 36.3191 38.8587V38.8586V38.8586V38.8585V38.8584V38.8584V38.8583V38.8583V38.8582V38.8582V38.8581V38.858V38.858V38.8579V38.8579V38.8578V38.8578V38.8577C36.2427 36.1463 36.1661 33.4331 36.7382 30.7884ZM19.4238 40.3493C16.7654 40.8025 14.9182 43.4449 15.1513 46.053C15.1527 47.9411 15.1544 49.8293 15.1561 51.7174C15.1645 61.2538 15.1729 70.7891 15.1513 80.3186C15.1533 80.6361 15.1425 80.9577 15.1316 81.2807C15.0952 82.3579 15.0583 83.45 15.4961 84.4566V84.4573C15.6341 85.4571 16.0569 86.3639 16.7476 87.1763C19.5958 89.4421 24.4897 88.2706 25.2148 84.5172C25.644 81.4203 25.5855 78.2954 25.527 75.1715C25.4938 73.3965 25.4606 71.6218 25.5168 69.8528L25.5183 69.8519C25.524 66.4541 25.5221 63.0564 25.5202 59.6587C25.5192 57.9598 25.5183 56.2609 25.5183 54.562C24.4665 55.4151 23.3684 56.2163 22.2702 57.0175L22.2702 57.0175C20.1871 58.5374 18.1036 60.0575 16.3346 61.9332C15.5999 65.1504 15.656 68.4507 15.712 71.7494C15.7422 73.5269 15.7724 75.304 15.6788 77.0672L15.6779 77.068C15.7715 75.3044 15.7413 73.527 15.7111 71.7492C15.6551 68.4504 15.5991 65.1501 16.3337 61.9329C18.1027 60.0572 20.1863 58.5371 22.2694 57.0172C23.3676 56.216 24.4656 55.4148 25.5174 54.5617C25.5113 53.6908 25.5226 52.818 25.5338 51.9449C25.5702 49.1314 25.6067 46.3145 25.0599 43.5474C24.1192 41.4523 21.8232 39.7592 19.4238 40.3493ZM63.5464 34.2179C60.8018 33.5253 57.8929 35.6116 57.47 38.3397C57.1517 40.9115 57.1927 43.5076 57.2338 46.1036C57.2574 47.5905 57.2809 49.0773 57.2369 50.5596L57.2373 50.5592C57.2416 54.5326 57.2416 58.506 57.2416 62.4793V62.4898C57.2416 66.4659 57.2416 70.4419 57.246 74.4182L57.2456 74.4184C57.2626 76.3216 57.2513 78.2248 57.2399 80.128C57.2226 83.0306 57.2053 85.9332 57.2888 88.8359C57.306 90.6396 57.9274 92.4275 59.2048 93.7446C61.1987 94.6674 63.814 95.1722 65.592 93.5216C67.5638 92.0376 67.5944 89.4037 67.6201 87.1842L67.6203 87.1682C67.6203 83.1491 67.6182 79.1299 67.6161 75.1108C67.6139 71.0935 67.6118 67.0762 67.6118 63.0589L67.6122 63.0529C67.5749 60.083 67.599 57.112 67.6231 54.141V54.1406V54.1405V54.1404V54.1403V54.1402V54.1401V54.14V54.1399V54.1399V54.1398V54.1397V54.1396C67.6661 48.8475 67.709 43.5556 67.405 38.2708C67.3958 38.1657 67.3791 38.0042 67.3629 37.848C67.3489 37.7121 67.3353 37.5802 67.3273 37.4927C67.3046 37.7554 67.2834 38.0191 67.2621 38.2833C67.1298 39.9285 66.9958 41.5941 66.49 43.1709L66.4897 43.1713C66.9954 41.5944 67.1294 39.9289 67.2617 38.2837C67.283 38.0195 67.3042 37.7558 67.3269 37.493C66.4983 36.0222 65.2726 34.6112 63.5464 34.2179ZM36.3413 43.2308C37.778 42.3327 39.136 41.3211 40.4934 40.3098C42.4061 38.885 44.318 37.4608 46.4484 36.3555C46.4571 42.9558 46.4484 49.5477 46.4398 56.148V56.1498V56.1515V56.1533V56.1551V56.1569V56.1587V56.1605V56.1623V56.1641V56.1659V56.1677V56.1695V56.1713L46.4398 56.1775C45.1816 57.0742 43.9486 58.0076 42.7153 58.9411L42.7153 58.9411L42.7152 58.9412L42.7152 58.9412L42.7151 58.9412L42.7151 58.9413L42.715 58.9413L42.715 58.9414L42.7149 58.9414L42.7149 58.9414L42.7148 58.9415L42.7148 58.9415L42.7147 58.9415L42.7147 58.9416C40.6315 60.5184 38.5477 62.0958 36.3413 63.4977C36.324 56.7419 36.3067 49.9863 36.3413 43.2308ZM84.6228 48.3353L84.6227 48.3354C82.9179 49.6203 81.2131 50.9053 79.422 52.0726C79.3877 60.3671 79.3964 68.6703 79.422 76.9731L79.4215 76.9734C79.3872 82.6248 79.3969 88.2811 79.4065 93.9344V93.9354V93.9365V93.9375V93.9394V93.9413V93.9432C79.4089 95.3448 79.4113 96.7463 79.413 98.1474C81.7955 96.6447 84.0579 94.9783 86.3191 93.3129C87.4817 92.4566 88.644 91.6006 89.8221 90.7671C89.8221 88.468 89.8249 86.168 89.8278 83.8676V83.8667V83.8657V83.8647C89.8335 79.2614 89.8392 74.6568 89.8221 70.056L89.8226 70.0558C89.8396 61.5732 89.8396 53.0902 89.8226 44.5986C88.0318 45.7658 86.3273 47.0506 84.6228 48.3353ZM102.989 48.8753C104.577 45.01 110.817 45.01 112.639 48.7385C112.803 50.6967 112.829 52.6636 112.829 54.6303L112.827 54.6312C112.823 56.4978 112.821 58.3644 112.819 60.2309C112.816 62.0667 112.814 63.9024 112.81 65.7382L112.81 65.7383C112.744 67.1344 112.788 68.5459 112.832 69.9584V69.9585C112.915 72.6213 112.998 75.288 112.344 77.8636C111.117 80.8486 107.363 81.1132 104.731 79.959C102.567 78.3217 102.606 75.5355 102.641 73.0966L102.642 72.9989L102.642 72.9988C102.661 70.9286 102.643 68.8611 102.624 66.7947C102.61 65.1736 102.595 63.5532 102.599 61.9327L102.601 61.9318C102.666 60.3516 102.649 58.7658 102.632 57.1805V57.1803V57.1802V57.1801V57.18V57.1798V57.1797V57.1796V57.179V57.1789C102.601 54.3984 102.571 51.6195 102.989 48.8753ZM42.7155 58.9414L42.7156 58.9413C43.9489 58.0078 45.1819 57.0744 46.44 56.1777C46.4573 60.0918 46.4487 63.9972 46.44 67.9112L46.44 67.9189C43.8245 69.3973 41.5016 71.2775 39.1792 73.1571L39.1791 73.1572L39.1791 73.1572C38.2367 73.92 37.2945 74.6826 36.3329 75.4183C36.3242 71.442 36.3156 67.4657 36.3415 63.4979C38.5482 62.0959 40.6322 60.5184 42.7155 58.9414ZM79.4137 98.1479C81.7962 96.6451 84.0586 94.9787 86.3198 93.3133L86.3209 93.3125C87.4831 92.4565 88.645 91.6007 89.8227 90.7676C89.8397 94.4765 89.8312 98.1767 89.8227 101.884V101.885L89.8227 101.893C89.8224 101.893 89.8221 101.893 89.8218 101.893C89.76 103.65 89.8 105.415 89.84 107.179C89.9117 110.344 89.9834 113.509 89.468 116.627C88.4841 120.064 84.2292 120.843 81.4233 119.107C79.3203 116.778 79.359 113.608 79.3953 110.644C79.4009 110.189 79.4064 109.74 79.4041 109.299C79.4044 109.298 79.4047 109.298 79.405 109.298C79.405 108.236 79.4036 107.174 79.4022 106.113V106.112C79.3987 103.455 79.3952 100.799 79.4137 98.1479ZM59.6572 72.7965L59.7123 72.7607L59.7127 72.7604C59.5536 72.8637 59.3949 72.9668 59.2368 73.0698C59.3765 72.9788 59.5167 72.8877 59.6572 72.7965Z" fill="url(#paint0_linear_1005_283)"/>
<path d="M89.8309 19.5856C89.8224 17.1058 89.8908 14.6174 89.6926 12.146C89.2703 9.89697 87.3112 7.89593 84.8943 8.00707C82.4249 7.87027 80.0264 9.73451 79.767 12.2059C79.1624 16.9347 79.4733 21.7151 79.4218 26.4611M79.4218 26.4611C83.1163 24.4942 86.0421 21.3986 89.8309 19.5856L79.4218 26.4611ZM89.8309 19.5856C89.8309 23.9383 89.8394 28.2997 89.8309 32.6524V19.5856ZM79.4047 39.8782C79.4047 35.4059 79.3875 30.9336 79.4218 26.4611L79.4047 39.8782ZM89.8309 32.6524C86.2918 34.9697 82.8912 37.4838 79.4047 39.8782L89.8309 32.6524ZM89.8309 32.6524C89.8309 36.6373 89.8309 40.6222 89.8224 44.5985L89.8309 32.6524ZM79.4218 52.0725C79.3875 48.0106 79.4047 43.9402 79.4047 39.8782L79.4218 52.0725ZM36.3323 75.4184C39.6639 72.8697 42.7626 69.9973 46.4395 67.919L36.3323 75.4184ZM36.341 88.2968C36.3064 84.0044 36.3237 79.7108 36.3323 75.4184L36.341 88.2968ZM36.3323 75.4184C36.3237 71.4421 36.315 67.4658 36.341 63.498L36.3323 75.4184ZM46.4395 67.919C46.4568 72.2802 46.4481 76.6413 46.4481 81.0023L46.4395 67.919ZM46.4395 56.1778C46.4568 60.0944 46.4481 64.0024 46.4395 67.919V56.1778ZM46.4481 81.0023C43.1078 83.4652 39.8711 86.0911 36.341 88.2968L46.4481 81.0023ZM46.4481 81.0023C46.2669 86.4502 46.8624 91.9655 46.1115 97.379C45.2483 101.047 40.4321 101.936 37.7046 99.6705C35.3743 96.3523 36.6171 92.0684 36.341 88.2968M46.4481 36.3558C46.4481 34.6625 46.4222 32.9694 46.3273 31.2847C45.1188 26.9406 38.214 26.3505 36.7381 30.7887C35.8575 34.8593 36.5136 39.0922 36.341 43.2311M46.4481 36.3558C42.8057 38.2455 39.8022 41.0676 36.341 43.2311L46.4481 36.3558ZM46.4481 36.3558C46.4568 42.966 46.4481 49.5676 46.4395 56.1778L46.4481 36.3558ZM36.341 63.498C36.3237 56.7422 36.3064 49.9866 36.341 43.2311V63.498ZM25.5174 54.5617C25.4915 50.8845 25.7764 47.1732 25.0599 43.5473C24.1192 41.4523 21.8232 39.7592 19.4238 40.3492C16.7654 40.8024 14.9182 43.4449 15.1513 46.0529C15.16 57.4777 15.1771 68.9023 15.1513 80.3186C15.16 81.6957 14.927 83.1491 15.4966 84.4578M25.5174 54.5617C22.4706 57.033 19.0354 59.0683 16.3337 61.9329C15.2031 66.8843 15.9453 72.0327 15.6779 77.069M25.5174 54.5617C25.5174 59.6584 25.5261 64.7549 25.5174 69.8516V54.5617ZM15.6779 77.069C15.5138 79.5233 15.4966 81.9948 15.4966 84.4578L15.6779 77.069ZM25.5174 69.8516C22.0477 71.9897 18.8282 74.5031 15.6779 77.069L25.5174 69.8516ZM15.4966 84.4578C15.6346 85.4576 16.0575 86.3644 16.7481 87.1769C19.5964 89.4426 24.4903 88.2712 25.2154 84.5177C25.8885 79.6605 25.362 74.7346 25.5174 69.8516M89.8224 44.5985C86.2405 46.9332 83.0037 49.738 79.4218 52.0725L89.8224 44.5985ZM89.8224 44.5985C89.8394 53.0901 89.8394 61.5731 89.8224 70.0557V44.5985ZM79.4218 76.974C79.3961 68.6708 79.3875 60.3673 79.4218 52.0725V76.974ZM67.3271 37.493C66.4985 36.0222 65.2728 34.6112 63.5466 34.2179C60.802 33.5252 57.8931 35.6116 57.4703 38.3397C56.9695 42.3844 57.3579 46.4892 57.2371 50.5596M67.3271 37.493C67.163 39.3916 67.0768 41.3412 66.4899 43.1712C63.676 45.9418 60.1804 47.9172 57.2371 50.5596M67.3271 37.493C67.3443 37.6811 67.3875 38.0746 67.4048 38.2712C67.8795 46.5233 67.5083 54.7926 67.612 63.0533M57.2458 74.4185C57.2371 66.4652 57.2458 58.5125 57.2371 50.5596L57.2458 74.4185ZM46.4395 56.1778C43.056 58.5893 39.8539 61.266 36.341 63.498L46.4395 56.1778ZM67.612 63.0533C67.2321 68.9281 61.4234 71.4078 57.2458 74.4185L67.612 63.0533ZM67.612 63.0533C67.612 71.0916 67.6205 79.13 67.6205 87.1682C67.5947 89.3911 67.5687 92.0341 65.5922 93.5217C63.8142 95.1723 61.1989 94.6674 59.205 93.7447C57.9276 92.4275 57.3062 90.6397 57.289 88.836C57.1507 84.0301 57.2889 79.2243 57.2458 74.4185M89.8224 70.0557C85.9382 71.7233 82.935 74.7339 79.4218 76.974L89.8224 70.0557ZM89.8224 70.0557C89.848 76.9568 89.8224 83.8666 89.8224 90.7677V70.0557ZM79.4133 98.1479C79.4047 91.0924 79.379 84.0295 79.4218 76.974L79.4133 98.1479ZM112.828 54.63C112.828 52.6633 112.802 50.6964 112.638 48.7382C110.816 45.0097 104.576 45.0097 102.988 48.875C102.332 53.1848 102.781 57.5803 102.6 61.9329M112.828 54.63C109.255 56.8363 106.035 59.5301 102.6 61.9329L112.828 54.63ZM112.828 54.63C112.819 58.3328 112.819 62.0355 112.811 65.7383L112.828 54.63ZM102.643 72.999C102.677 69.3045 102.591 65.6187 102.6 61.9329L102.643 72.999ZM112.811 65.7383C109.116 67.7137 105.862 70.3473 102.643 72.999L112.811 65.7383ZM112.811 65.7383C112.62 69.7665 113.346 73.9217 112.344 77.8637C111.118 80.8486 107.364 81.1133 104.732 79.959C102.539 78.2999 102.609 75.4609 102.643 72.999M89.8224 90.7677C86.353 93.2221 83.0208 95.8726 79.4133 98.1479L89.8224 90.7677ZM89.8224 90.7677C89.8394 94.4793 89.8309 98.1823 89.8224 101.893V90.7677ZM79.4047 109.299C79.4047 105.579 79.3875 101.858 79.4133 98.1479L79.4047 109.299ZM89.8224 101.893C86.2405 104.202 83.0208 107.016 79.4047 109.299L89.8224 101.893ZM89.8224 101.893C89.6498 106.801 90.2713 111.77 89.4685 116.627C88.4847 120.064 84.2298 120.843 81.4239 119.107C78.9985 116.422 79.4218 112.617 79.4047 109.299" fill="url(#paint1_linear_1005_283)"/>
<path d="M79.4218 26.4611C83.1163 24.4942 86.0421 21.3986 89.8309 19.5856ZM79.4218 26.4611C79.3875 30.9336 79.4047 35.4059 79.4047 39.8782ZM79.4218 26.4611C79.4733 21.7151 79.1624 16.9347 79.767 12.2059C80.0264 9.73451 82.4249 7.87027 84.8943 8.00707C87.3112 7.89593 89.2703 9.89697 89.6926 12.146C89.8908 14.6174 89.8224 17.1058 89.8309 19.5856M89.8309 19.5856C89.8309 23.9383 89.8394 28.2997 89.8309 32.6524ZM89.8309 32.6524C86.2918 34.9697 82.8912 37.4838 79.4047 39.8782ZM89.8309 32.6524C89.8309 35.5837 89.8309 38.515 89.8275 41.4428C89.8263 42.4952 89.8246 43.5472 89.8224 44.5985M79.4047 39.8782C79.4047 41.9235 79.4003 43.9709 79.4004 46.0183C79.4004 48.0371 79.4048 50.0558 79.4218 52.0725M36.3323 75.4184C39.6639 72.8697 42.7626 69.9973 46.4395 67.919ZM36.3323 75.4184C36.3237 79.7108 36.3064 84.0044 36.341 88.2968ZM36.3323 75.4184C36.3237 71.4421 36.315 67.4658 36.341 63.498ZM46.4395 67.919C46.4568 72.2802 46.4481 76.6413 46.4481 81.0023ZM46.4395 67.919C46.4481 64.0024 46.4568 60.0944 46.4395 56.1778ZM46.4481 81.0023C43.1078 83.4652 39.8711 86.0911 36.341 88.2968ZM46.4481 81.0023C46.2669 86.4502 46.8624 91.9655 46.1115 97.379C45.2483 101.047 40.4321 101.936 37.7046 99.6705C35.3743 96.3523 36.6171 92.0684 36.341 88.2968M46.4481 36.3558C46.4481 34.6625 46.4222 32.9694 46.3273 31.2847C45.1188 26.9406 38.214 26.3505 36.7381 30.7887C35.8575 34.8593 36.5136 39.0922 36.341 43.2311M46.4481 36.3558C42.8057 38.2455 39.8022 41.0676 36.341 43.2311ZM46.4481 36.3558C46.4568 42.966 46.4481 49.5676 46.4395 56.1778ZM36.341 43.2311C36.3064 49.9866 36.3237 56.7422 36.341 63.498ZM25.5174 54.5617C25.4915 50.8845 25.7764 47.1732 25.0599 43.5473C24.1192 41.4523 21.8232 39.7592 19.4238 40.3492C16.7654 40.8024 14.9182 43.4449 15.1513 46.0529C15.16 57.4777 15.1771 68.9023 15.1513 80.3186C15.16 81.6957 14.927 83.1491 15.4966 84.4578M25.5174 54.5617C22.4706 57.033 19.0354 59.0683 16.3337 61.9329C15.2031 66.8843 15.9453 72.0327 15.6779 77.069M25.5174 54.5617C25.5174 59.6584 25.5261 64.7549 25.5174 69.8516ZM15.6779 77.069C15.5138 79.5233 15.4966 81.9948 15.4966 84.4578ZM15.6779 77.069C18.8282 74.5031 22.0477 71.9897 25.5174 69.8516ZM15.4966 84.4578C15.6346 85.4576 16.0575 86.3644 16.7481 87.1769C19.5964 89.4426 24.4903 88.2712 25.2154 84.5177C25.8885 79.6605 25.362 74.7346 25.5174 69.8516M89.8224 44.5985C86.2405 46.9332 83.0037 49.738 79.4218 52.0725ZM89.8224 44.5985C89.8394 53.0901 89.8394 61.5731 89.8224 70.0557ZM79.4218 52.0725C79.3875 60.3673 79.3961 68.6708 79.4218 76.974ZM67.3271 37.493C66.4985 36.0222 65.2728 34.6112 63.5466 34.2179C60.802 33.5252 57.8931 35.6116 57.4703 38.3397C56.9695 42.3844 57.3579 46.4892 57.2371 50.5596M67.3271 37.493C67.163 39.3916 67.0768 41.3412 66.4899 43.1712C63.676 45.9418 60.1804 47.9172 57.2371 50.5596M67.3271 37.493C67.3443 37.6811 67.3875 38.0746 67.4048 38.2712C67.8795 46.5233 67.5083 54.7926 67.612 63.0533M57.2371 50.5596C57.2458 58.5125 57.2371 66.4652 57.2458 74.4185ZM46.4395 56.1778C43.056 58.5893 39.8539 61.266 36.341 63.498ZM67.612 63.0533C67.2321 68.9281 61.4234 71.4078 57.2458 74.4185ZM67.612 63.0533C67.612 71.0916 67.6205 79.13 67.6205 87.1682C67.5947 89.3911 67.5687 92.0341 65.5922 93.5217C63.8142 95.1723 61.1989 94.6674 59.205 93.7447C57.9276 92.4275 57.3062 90.6397 57.289 88.836C57.1507 84.03 57.2889 79.2243 57.2458 74.4185M89.8224 70.0557C85.9382 71.7233 82.935 74.7339 79.4218 76.974ZM89.8224 70.0557C89.848 76.9568 89.8224 83.8666 89.8224 90.7677ZM79.4218 76.974C79.379 84.0295 79.4047 91.0924 79.4133 98.1479ZM112.828 54.63C112.828 52.6633 112.802 50.6964 112.638 48.7382C110.816 45.0097 104.576 45.0097 102.988 48.875C102.332 53.1848 102.781 57.5803 102.6 61.9329M112.828 54.63C109.255 56.8363 106.035 59.5301 102.6 61.9329ZM112.828 54.63C112.819 58.3328 112.819 62.0355 112.811 65.7383ZM102.6 61.9329C102.591 65.6187 102.677 69.3045 102.643 72.999ZM112.811 65.7383C109.116 67.7137 105.862 70.3473 102.643 72.999ZM112.811 65.7383C112.62 69.7665 113.346 73.9217 112.344 77.8637C111.118 80.8486 107.364 81.1133 104.732 79.959C102.539 78.2999 102.609 75.4609 102.643 72.999M89.8224 90.7677C86.353 93.2221 83.0208 95.8726 79.4133 98.1479ZM89.8224 90.7677C89.8394 94.4793 89.8309 98.1823 89.8224 101.893ZM79.4133 98.1479C79.3875 101.858 79.4047 105.579 79.4047 109.299ZM89.8224 101.893C86.2405 104.202 83.0208 107.016 79.4047 109.299ZM89.8224 101.893C89.6498 106.801 90.2713 111.77 89.4685 116.627C88.4847 120.064 84.2298 120.843 81.4239 119.107C78.9985 116.422 79.4218 112.617 79.4047 109.299" fill="url(#paint2_linear_1005_283)"/>
<path d="M79.4218 26.4611C83.1163 24.4942 86.0421 21.3986 89.8309 19.5856M79.4218 26.4611C79.3875 30.9336 79.4047 35.4059 79.4047 39.8782M79.4218 26.4611C79.4733 21.7151 79.1624 16.9347 79.767 12.2059C80.0264 9.73451 82.4249 7.87027 84.8943 8.00707C87.3112 7.89593 89.2703 9.89697 89.6926 12.146C89.8908 14.6174 89.8224 17.1058 89.8309 19.5856M89.8309 19.5856C89.8309 23.9383 89.8394 28.2997 89.8309 32.6524M79.4047 39.8782C82.8912 37.4838 86.2918 34.9697 89.8309 32.6524M79.4047 39.8782L89.8224 44.5985M79.4047 39.8782L89.8275 41.4428M79.4047 39.8782C79.4047 41.9235 79.4003 43.9709 79.4004 46.0183M89.8309 32.6524L79.4218 52.0725M89.8309 32.6524C89.8309 35.5837 89.8309 38.515 89.8275 41.4428M89.8224 44.5985C86.2405 46.9332 83.0037 49.738 79.4218 52.0725M89.8224 44.5985C89.8394 53.0901 89.8394 61.5731 89.8224 70.0557M89.8224 44.5985C89.8246 43.5472 89.8263 42.4952 89.8275 41.4428M79.4218 52.0725C79.3875 60.3673 79.3961 68.6708 79.4218 76.974M79.4218 52.0725C79.4048 50.0558 79.4004 48.0371 79.4004 46.0183M36.3323 75.4184C39.6639 72.8697 42.7626 69.9973 46.4395 67.919M36.3323 75.4184C36.3237 79.7108 36.3064 84.0044 36.341 88.2968M36.3323 75.4184C36.3237 71.4421 36.315 67.4658 36.341 63.498M46.4395 67.919C46.4568 72.2802 46.4481 76.6413 46.4481 81.0023M46.4395 67.919C46.4481 64.0024 46.4568 60.0944 46.4395 56.1778M36.341 88.2968C39.8711 86.0911 43.1078 83.4652 46.4481 81.0023M36.341 88.2968C36.6171 92.0684 35.3743 96.3523 37.7046 99.6705C40.4321 101.936 45.2483 101.047 46.1115 97.379C46.8624 91.9655 46.2669 86.4502 46.4481 81.0023M36.341 63.498C36.3237 56.7422 36.3064 49.9866 36.341 43.2311M36.341 63.498C39.8539 61.266 43.056 58.5893 46.4395 56.1778M46.4395 56.1778C46.4481 49.5676 46.4568 42.966 46.4481 36.3558M46.4481 36.3558C46.4481 34.6625 46.4222 32.9694 46.3273 31.2847C45.1188 26.9406 38.214 26.3505 36.7381 30.7887C35.8575 34.8593 36.5136 39.0922 36.341 43.2311M46.4481 36.3558C42.8057 38.2455 39.8022 41.0676 36.341 43.2311M25.5174 54.5617C25.4915 50.8845 25.7764 47.1732 25.0599 43.5473C24.1192 41.4523 21.8232 39.7592 19.4238 40.3492C16.7654 40.8024 14.9182 43.4449 15.1513 46.0529C15.16 57.4777 15.1771 68.9023 15.1513 80.3186C15.16 81.6957 14.927 83.1491 15.4966 84.4578M25.5174 54.5617C22.4706 57.033 19.0354 59.0683 16.3337 61.9329C15.2031 66.8843 15.9453 72.0327 15.6779 77.069M25.5174 54.5617C25.5174 59.6584 25.5261 64.7549 25.5174 69.8516M15.4966 84.4578C15.4966 81.9948 15.5138 79.5233 15.6779 77.069M15.4966 84.4578C15.6346 85.4576 16.0575 86.3644 16.7481 87.1769C19.5964 89.4426 24.4903 88.2712 25.2154 84.5177C25.8885 79.6605 25.362 74.7346 25.5174 69.8516M15.6779 77.069C18.8282 74.5031 22.0477 71.9897 25.5174 69.8516M89.8224 70.0557C85.9382 71.7233 82.935 74.7339 79.4218 76.974M89.8224 70.0557C89.848 76.9568 89.8224 83.8666 89.8224 90.7677M79.4218 76.974C79.379 84.0295 79.4047 91.0924 79.4133 98.1479M67.3271 37.493C66.4985 36.0222 65.2728 34.6112 63.5466 34.2179C60.802 33.5252 57.8931 35.6116 57.4703 38.3397C56.9695 42.3844 57.3579 46.4892 57.2371 50.5596M67.3271 37.493C67.163 39.3916 67.0768 41.3412 66.4899 43.1712C63.676 45.9418 60.1804 47.9172 57.2371 50.5596M67.3271 37.493C67.3443 37.6811 67.3875 38.0746 67.4048 38.2712C67.8795 46.5233 67.5083 54.7926 67.612 63.0533M57.2371 50.5596C57.2458 58.5125 57.2371 66.4652 57.2458 74.4185M67.612 63.0533C67.2321 68.9281 61.4234 71.4078 57.2458 74.4185M67.612 63.0533C67.612 71.0916 67.6205 79.13 67.6205 87.1682C67.5947 89.3911 67.5687 92.0341 65.5922 93.5217C63.8142 95.1723 61.1989 94.6674 59.205 93.7447C57.9276 92.4275 57.3062 90.6397 57.289 88.836C57.1507 84.03 57.2889 79.2243 57.2458 74.4185M89.8224 90.7677C86.353 93.2221 83.0208 95.8726 79.4133 98.1479M89.8224 90.7677C89.8394 94.4793 89.8309 98.1823 89.8224 101.893M79.4133 98.1479C79.3875 101.858 79.4047 105.579 79.4047 109.299M112.828 54.63C112.828 52.6633 112.802 50.6964 112.638 48.7382C110.816 45.0097 104.576 45.0097 102.988 48.875C102.332 53.1848 102.781 57.5803 102.6 61.9329M112.828 54.63C109.255 56.8363 106.035 59.5301 102.6 61.9329M112.828 54.63C112.819 58.3328 112.819 62.0355 112.811 65.7383M102.6 61.9329C102.591 65.6187 102.677 69.3045 102.643 72.999M112.811 65.7383C109.116 67.7137 105.862 70.3473 102.643 72.999M112.811 65.7383C112.62 69.7665 113.346 73.9217 112.344 77.8637C111.118 80.8486 107.364 81.1133 104.732 79.959C102.539 78.2999 102.609 75.4609 102.643 72.999M89.8224 101.893C86.2405 104.202 83.0208 107.016 79.4047 109.299M89.8224 101.893C89.6498 106.801 90.2713 111.77 89.4685 116.627C88.4847 120.064 84.2298 120.843 81.4239 119.107C78.9985 116.422 79.4218 112.617 79.4047 109.299M89.8275 41.4428L79.4004 46.0183" stroke="url(#paint3_linear_1005_283)" stroke-width="4"/>
<defs>
<linearGradient id="paint0_linear_1005_283" x1="64.0023" y1="120" x2="64.0023" y2="69.1565" gradientUnits="userSpaceOnUse">
<stop stop-color="#A93AFF"/>
<stop offset="1" stop-color="#FF81FF"/>
</linearGradient>
<linearGradient id="paint1_linear_1005_283" x1="64.0028" y1="120" x2="64.0028" y2="63.2901" gradientUnits="userSpaceOnUse">
<stop stop-color="#A93AFF"/>
<stop offset="1" stop-color="#FF81FF"/>
</linearGradient>
<linearGradient id="paint2_linear_1005_283" x1="64.0028" y1="120" x2="64.0028" y2="63.2901" gradientUnits="userSpaceOnUse">
<stop stop-color="#A93AFF"/>
<stop offset="1" stop-color="#FF81FF"/>
</linearGradient>
<linearGradient id="paint3_linear_1005_283" x1="64.0028" y1="120" x2="64.0028" y2="63.2901" gradientUnits="userSpaceOnUse">
<stop stop-color="#A93AFF"/>
<stop offset="1" stop-color="#FF81FF"/>
</linearGradient>
</defs>
</svg>
