<svg width="128" height="128" viewBox="0 0 128 128" fill="none" xmlns="http://www.w3.org/2000/svg">
<path d="M58.6268 17.1005L58.6303 17.1002C68.9212 15.9456 79.5878 18.193 88.4193 23.6135L88.4205 23.6144C96.6995 28.6616 103.42 36.2704 107.27 45.1788L107.271 45.1815C112.426 56.9539 112.445 70.8648 107.359 82.6636L107.358 82.6654C103.351 92.0292 96.2007 99.997 87.3565 105.049L87.354 105.051C78.6158 110.094 68.2141 112.12 58.2028 110.883L58.1997 110.883C48.2378 109.704 38.7127 105.176 31.4712 98.2265L31.4678 98.2234C24.0301 91.1911 18.9688 81.6727 17.4 71.5488L17.3994 71.5445C15.5458 60.0954 18.0251 47.9714 24.4068 38.283L24.4099 38.2783C31.942 26.6112 44.8108 18.5693 58.6268 17.1005ZM88.8231 13.7962C78.3051 8.55079 66.1205 6.81431 54.548 8.79637C36.2224 11.7822 19.9284 24.5995 12.638 41.6733C7.23495 53.9797 6.5321 68.2561 10.6371 81.0514C14.5495 93.4593 22.9581 104.379 33.9581 111.323C51.73 122.906 76.1021 122.939 93.9058 111.407C104.497 104.728 112.745 94.4034 116.858 82.5698C121.531 69.3403 120.976 54.3461 115.295 41.5097C110.078 29.5476 100.534 19.5519 88.8231 13.7962Z" fill="url(#paint0_linear_705_19)"/>
<path d="M72.5405 34.1435C72.6879 32.7391 74.0509 31.6797 75.4542 31.7574C76.8277 31.6943 77.9411 32.8314 78.181 34.1095C78.2937 35.5139 78.2547 36.928 78.2596 38.3373C76.1066 39.3675 74.4438 41.1267 72.3443 42.2445C72.3736 39.5474 72.197 36.8308 72.5405 34.1435Z" fill="url(#paint1_linear_705_19)"/>
<path d="M72.3443 42.2445C74.4438 41.1267 76.1066 39.3675 78.2596 38.3373C78.2596 40.8108 78.2645 43.2893 78.2596 45.7628C76.2485 47.0797 74.3159 48.5085 72.3346 49.8691C72.3346 47.3276 72.3249 44.786 72.3443 42.2445Z" fill="url(#paint2_linear_705_19)"/>
<path d="M36.5038 69.8371C38.3971 68.3888 40.158 66.7565 42.2475 65.5754C42.2573 68.0538 42.2524 70.5321 42.2524 73.0104C40.3542 74.41 38.5149 75.9022 36.5087 77.1557C36.4891 74.7164 36.4989 72.2764 36.5038 69.8371Z" fill="url(#paint3_linear_705_19)"/>
<path d="M61.9801 39.4453C63.6969 38.3665 66.1003 39.8729 66.1836 41.8071C66.2131 46.2196 66.1836 50.637 66.1934 55.0543C64.2364 56.3859 62.3382 57.7903 60.4203 59.1753C60.4302 53.611 60.3958 48.0419 60.4351 42.4777C60.4056 41.2968 60.8765 40.0236 61.9801 39.4453Z" fill="url(#paint4_linear_705_19)"/>
<path d="M85.5093 43.2164C87.0545 41.9675 89.7277 42.7839 90.218 44.7228C90.3697 48.3238 90.257 51.9248 90.2917 55.5257C88.5309 56.867 86.4412 57.9215 85.0726 59.6904C84.7492 61.4495 84.6755 63.2476 84.4154 65.0214C84.3125 58.976 84.4008 52.9307 84.3612 46.8854C84.371 45.6121 84.3076 44.0376 85.5093 43.2164Z" fill="url(#paint5_linear_705_19)"/>
<path d="M36.7344 44.475C37.5731 41.9528 41.497 42.2882 42.1837 44.7569C42.2377 45.7142 42.2524 46.6764 42.2524 47.6386C40.1825 48.7126 38.4756 50.3162 36.5087 51.5457C36.6068 49.1937 36.234 46.7882 36.7344 44.475Z" fill="url(#paint6_linear_705_19)"/>
<path d="M24.467 53.1494C24.3346 51.6672 25.3843 50.1656 26.895 49.908C28.2586 49.5727 29.5633 50.5349 30.0979 51.7255C30.5051 53.786 30.3432 55.895 30.3579 57.9847C28.6265 59.3891 26.6743 60.5457 25.139 62.1736C24.4965 64.9873 24.9183 67.9131 24.7663 70.7751C24.6731 72.1698 24.6633 73.5744 24.6633 74.974C24.3396 74.2303 24.472 73.4044 24.467 72.6218C24.4818 66.1342 24.472 59.6418 24.467 53.1494Z" fill="url(#paint7_linear_705_19)"/>
<path d="M72.3346 49.8691C74.3159 48.5085 76.2485 47.0797 78.2596 45.7628C78.2596 48.0274 78.2596 50.2919 78.2547 52.5516C76.2192 53.8783 74.3798 55.4722 72.3443 56.7989C72.3249 54.4906 72.3346 52.1775 72.3346 49.8691Z" fill="url(#paint8_linear_705_19)"/>
<path d="M48.516 48.766C48.7564 47.2158 50.4094 46.0301 51.9691 46.4237C52.9501 46.6472 53.6466 47.4491 54.1175 48.2849C54.0243 49.3638 53.9753 50.4717 53.6417 51.5117C52.0427 53.0862 50.0562 54.2088 48.3836 55.7104C48.4523 53.3972 48.2315 51.0646 48.516 48.766Z" fill="url(#paint9_linear_705_19)"/>
<path d="M36.5087 51.5457C38.4756 50.3162 40.1825 48.7126 42.2524 47.6386C42.2573 51.3951 42.2524 55.1467 42.2475 58.9031C40.3248 60.2735 38.505 61.7946 36.5087 63.063C36.4989 59.2238 36.4891 55.3848 36.5087 51.5457Z" fill="url(#paint10_linear_705_19)"/>
<path d="M25.139 62.1736C26.6743 60.5457 28.6265 59.3891 30.3579 57.9847C30.3579 60.881 30.3628 63.7773 30.3579 66.6736C28.3861 67.8887 26.5566 69.317 24.7663 70.7751C24.9183 67.9131 24.4965 64.9873 25.139 62.1736Z" fill="url(#paint11_linear_705_19)"/>
<path d="M54.1175 48.2849C54.1273 48.3918 54.1518 48.6154 54.1616 48.7271C54.4314 53.4166 54.2205 58.1159 54.2794 62.8103C54.0635 66.1488 50.7625 67.558 48.3885 69.2689C48.3836 64.7492 48.3885 60.2298 48.3836 55.7104C50.0562 54.2088 52.0427 53.0862 53.6417 51.5117C53.9753 50.4717 54.0243 49.3638 54.1175 48.2849Z" fill="url(#paint12_linear_705_19)"/>
<path d="M72.3443 56.7989C74.3798 55.4722 76.2192 53.8783 78.2547 52.5516C78.2645 57.3772 78.2645 62.1979 78.2547 67.0184C76.0475 67.9661 74.3409 69.6769 72.3443 70.9499C72.3297 66.2314 72.3249 61.5127 72.3443 56.7989Z" fill="url(#paint13_linear_705_19)"/>
<path d="M96.5894 55.1224C97.4921 52.9258 101.038 52.9258 102.073 55.0446C102.167 56.1575 102.181 57.2752 102.181 58.3929C100.151 59.6466 98.321 61.1774 96.369 62.5429C96.4719 60.0695 96.2167 57.5716 96.5894 55.1224Z" fill="url(#paint14_linear_705_19)"/>
<path d="M60.4203 59.1753C62.3382 57.7903 64.2364 56.3859 66.1934 55.0543C66.1444 61.367 66.1738 67.6749 66.164 73.9873C64.3688 75.513 62.4951 76.9614 60.4253 78.1131C60.4154 71.8007 60.4154 65.4879 60.4203 59.1753Z" fill="url(#paint15_linear_705_19)"/>
<path d="M85.0726 59.6904C86.4412 57.9215 88.5309 56.867 90.2917 55.5257C90.2917 61.8189 90.2917 68.1074 90.2868 74.4002C87.6624 76.0721 84.1012 77.8311 84.3911 81.4855C84.3813 75.999 84.3125 70.5077 84.4154 65.0214C84.6755 63.2476 84.7492 61.4495 85.0726 59.6904Z" fill="url(#paint16_linear_705_19)"/>
<path d="M96.369 62.5429C98.321 61.1774 100.151 59.6466 102.181 58.3929C102.176 60.4971 102.176 62.6013 102.172 64.7055C100.072 65.8281 98.223 67.3247 96.3933 68.8315C96.4128 66.7321 96.3641 64.6375 96.369 62.5429Z" fill="url(#paint17_linear_705_19)"/>
<path d="M36.5087 63.063C38.505 61.7946 40.3248 60.2735 42.2475 58.9031C42.2573 61.1288 42.2524 63.3496 42.2475 65.5754C40.158 66.7565 38.3971 68.3888 36.5038 69.8371C36.4989 67.5775 36.494 65.3178 36.5087 63.063Z" fill="url(#paint18_linear_705_19)"/>
<path d="M48.3885 69.2689C50.7625 67.558 54.0635 66.1488 54.2794 62.8103C54.2794 67.3783 54.2843 71.9463 54.2843 76.5143C54.2696 77.7775 54.2548 79.2795 53.1316 80.1249C52.1212 81.0628 50.635 80.776 49.5019 80.2515C48.776 79.503 48.4228 78.4871 48.413 77.462C48.3345 74.731 48.413 71.9999 48.3885 69.2689Z" fill="url(#paint19_linear_705_19)"/>
<path d="M96.3933 68.8315C98.223 67.3247 100.072 65.8281 102.172 64.7055C102.063 66.9946 102.475 69.356 101.907 71.5961C101.21 73.2924 99.0763 73.4428 97.5804 72.7868C96.3342 71.844 96.3738 70.2306 96.3933 68.8315Z" fill="url(#paint20_linear_705_19)"/>
<path d="M24.7663 70.7751C26.5566 69.317 28.3861 67.8887 30.3579 66.6736C30.2696 69.4485 30.5689 72.2478 30.1862 75.0081C29.7742 77.141 26.9931 77.8068 25.3745 76.5192C24.9821 76.0575 24.7417 75.5422 24.6633 74.974C24.6633 73.5744 24.6731 72.1698 24.7663 70.7751Z" fill="url(#paint21_linear_705_19)"/>
<path d="M72.3443 70.9499C74.3409 69.6769 76.0475 67.9661 78.2547 67.0184C78.2693 70.9401 78.2547 74.8668 78.2547 78.7886C76.2832 80.1833 74.3896 81.6896 72.3395 82.9826C72.3346 78.9731 72.32 74.9594 72.3443 70.9499Z" fill="url(#paint22_linear_705_19)"/>
<path d="M36.5087 77.1557C38.5149 75.9022 40.3542 74.41 42.2524 73.0104C42.1494 76.1062 42.4879 79.2405 42.0611 82.3169C41.5706 84.4011 38.8336 84.9066 37.2837 83.6191C35.9593 81.7334 36.6657 79.299 36.5087 77.1557Z" fill="url(#paint23_linear_705_19)"/>
<path d="M60.4253 78.1131C62.4951 76.9614 64.3688 75.513 66.164 73.9873C66.1101 77.7635 66.2769 81.544 66.0954 85.3104C66.1052 86.4573 65.2076 87.2442 64.3688 87.8856C62.9268 88.0074 61.1806 87.8034 60.6852 86.2046C60.1212 83.5557 60.543 80.8003 60.4253 78.1131Z" fill="url(#paint24_linear_705_19)"/>
<path d="M84.3911 81.4855C84.1012 77.8311 87.6624 76.0721 90.2868 74.4002C90.2034 77.18 90.4878 80.0037 90.0024 82.7542C89.2076 84.8823 86.1421 84.7708 84.7589 83.2689C84.5726 82.686 84.4349 82.0885 84.3911 81.4855Z" fill="url(#paint25_linear_705_19)"/>
<path d="M72.3395 82.9826C74.3896 81.6896 76.2832 80.1833 78.2547 78.7886C78.2645 80.8978 78.2596 83.0021 78.2547 85.1107C76.2192 86.4232 74.3896 88.022 72.3346 89.3193C72.3346 87.2053 72.3249 85.0912 72.3395 82.9826Z" fill="url(#paint26_linear_705_19)"/>
<path d="M72.3346 89.3193C74.3896 88.022 76.2192 86.4232 78.2547 85.1107C78.1567 87.9002 78.5099 90.7238 78.0537 93.4841C77.4946 95.4374 75.0766 95.8796 73.4821 94.8935C72.1038 93.3672 72.3443 91.205 72.3346 89.3193Z" fill="url(#paint27_linear_705_19)"/>
<defs>
<linearGradient id="paint0_linear_705_19" x1="63.9999" y1="120.033" x2="63.9999" y2="7.99999" gradientUnits="userSpaceOnUse">
<stop stop-color="#00EACA"/>
<stop offset="1" stop-color="#00B553"/>
</linearGradient>
<linearGradient id="paint1_linear_705_19" x1="63.3299" y1="95.4007" x2="63.3299" y2="31.7534" gradientUnits="userSpaceOnUse">
<stop stop-color="#00EACA"/>
<stop offset="1" stop-color="#00B553"/>
</linearGradient>
<linearGradient id="paint2_linear_705_19" x1="63.3299" y1="95.4007" x2="63.3299" y2="31.7534" gradientUnits="userSpaceOnUse">
<stop stop-color="#00EACA"/>
<stop offset="1" stop-color="#00B553"/>
</linearGradient>
<linearGradient id="paint3_linear_705_19" x1="63.3299" y1="95.4007" x2="63.3299" y2="31.7534" gradientUnits="userSpaceOnUse">
<stop stop-color="#00EACA"/>
<stop offset="1" stop-color="#00B553"/>
</linearGradient>
<linearGradient id="paint4_linear_705_19" x1="63.3299" y1="95.4007" x2="63.3299" y2="31.7534" gradientUnits="userSpaceOnUse">
<stop stop-color="#00EACA"/>
<stop offset="1" stop-color="#00B553"/>
</linearGradient>
<linearGradient id="paint5_linear_705_19" x1="63.3299" y1="95.4007" x2="63.3299" y2="31.7534" gradientUnits="userSpaceOnUse">
<stop stop-color="#00EACA"/>
<stop offset="1" stop-color="#00B553"/>
</linearGradient>
<linearGradient id="paint6_linear_705_19" x1="63.3299" y1="95.4007" x2="63.3299" y2="31.7534" gradientUnits="userSpaceOnUse">
<stop stop-color="#00EACA"/>
<stop offset="1" stop-color="#00B553"/>
</linearGradient>
<linearGradient id="paint7_linear_705_19" x1="63.3299" y1="95.4007" x2="63.3299" y2="31.7534" gradientUnits="userSpaceOnUse">
<stop stop-color="#00EACA"/>
<stop offset="1" stop-color="#00B553"/>
</linearGradient>
<linearGradient id="paint8_linear_705_19" x1="63.3299" y1="95.4007" x2="63.3299" y2="31.7534" gradientUnits="userSpaceOnUse">
<stop stop-color="#00EACA"/>
<stop offset="1" stop-color="#00B553"/>
</linearGradient>
<linearGradient id="paint9_linear_705_19" x1="63.3299" y1="95.4007" x2="63.3299" y2="31.7534" gradientUnits="userSpaceOnUse">
<stop stop-color="#00EACA"/>
<stop offset="1" stop-color="#00B553"/>
</linearGradient>
<linearGradient id="paint10_linear_705_19" x1="63.3299" y1="95.4007" x2="63.3299" y2="31.7534" gradientUnits="userSpaceOnUse">
<stop stop-color="#00EACA"/>
<stop offset="1" stop-color="#00B553"/>
</linearGradient>
<linearGradient id="paint11_linear_705_19" x1="63.3299" y1="95.4007" x2="63.3299" y2="31.7534" gradientUnits="userSpaceOnUse">
<stop stop-color="#00EACA"/>
<stop offset="1" stop-color="#00B553"/>
</linearGradient>
<linearGradient id="paint12_linear_705_19" x1="63.3299" y1="95.4007" x2="63.3299" y2="31.7534" gradientUnits="userSpaceOnUse">
<stop stop-color="#00EACA"/>
<stop offset="1" stop-color="#00B553"/>
</linearGradient>
<linearGradient id="paint13_linear_705_19" x1="63.3299" y1="95.4007" x2="63.3299" y2="31.7534" gradientUnits="userSpaceOnUse">
<stop stop-color="#00EACA"/>
<stop offset="1" stop-color="#00B553"/>
</linearGradient>
<linearGradient id="paint14_linear_705_19" x1="63.3299" y1="95.4007" x2="63.3299" y2="31.7534" gradientUnits="userSpaceOnUse">
<stop stop-color="#00EACA"/>
<stop offset="1" stop-color="#00B553"/>
</linearGradient>
<linearGradient id="paint15_linear_705_19" x1="63.3299" y1="95.4007" x2="63.3299" y2="31.7534" gradientUnits="userSpaceOnUse">
<stop stop-color="#00EACA"/>
<stop offset="1" stop-color="#00B553"/>
</linearGradient>
<linearGradient id="paint16_linear_705_19" x1="63.3299" y1="95.4007" x2="63.3299" y2="31.7534" gradientUnits="userSpaceOnUse">
<stop stop-color="#00EACA"/>
<stop offset="1" stop-color="#00B553"/>
</linearGradient>
<linearGradient id="paint17_linear_705_19" x1="63.3299" y1="95.4007" x2="63.3299" y2="31.7534" gradientUnits="userSpaceOnUse">
<stop stop-color="#00EACA"/>
<stop offset="1" stop-color="#00B553"/>
</linearGradient>
<linearGradient id="paint18_linear_705_19" x1="63.3299" y1="95.4007" x2="63.3299" y2="31.7534" gradientUnits="userSpaceOnUse">
<stop stop-color="#00EACA"/>
<stop offset="1" stop-color="#00B553"/>
</linearGradient>
<linearGradient id="paint19_linear_705_19" x1="63.3299" y1="95.4007" x2="63.3299" y2="31.7534" gradientUnits="userSpaceOnUse">
<stop stop-color="#00EACA"/>
<stop offset="1" stop-color="#00B553"/>
</linearGradient>
<linearGradient id="paint20_linear_705_19" x1="63.3299" y1="95.4007" x2="63.3299" y2="31.7534" gradientUnits="userSpaceOnUse">
<stop stop-color="#00EACA"/>
<stop offset="1" stop-color="#00B553"/>
</linearGradient>
<linearGradient id="paint21_linear_705_19" x1="63.3299" y1="95.4007" x2="63.3299" y2="31.7534" gradientUnits="userSpaceOnUse">
<stop stop-color="#00EACA"/>
<stop offset="1" stop-color="#00B553"/>
</linearGradient>
<linearGradient id="paint22_linear_705_19" x1="63.3299" y1="95.4007" x2="63.3299" y2="31.7534" gradientUnits="userSpaceOnUse">
<stop stop-color="#00EACA"/>
<stop offset="1" stop-color="#00B553"/>
</linearGradient>
<linearGradient id="paint23_linear_705_19" x1="63.3299" y1="95.4007" x2="63.3299" y2="31.7534" gradientUnits="userSpaceOnUse">
<stop stop-color="#00EACA"/>
<stop offset="1" stop-color="#00B553"/>
</linearGradient>
<linearGradient id="paint24_linear_705_19" x1="63.3299" y1="95.4007" x2="63.3299" y2="31.7534" gradientUnits="userSpaceOnUse">
<stop stop-color="#00EACA"/>
<stop offset="1" stop-color="#00B553"/>
</linearGradient>
<linearGradient id="paint25_linear_705_19" x1="63.3299" y1="95.4007" x2="63.3299" y2="31.7534" gradientUnits="userSpaceOnUse">
<stop stop-color="#00EACA"/>
<stop offset="1" stop-color="#00B553"/>
</linearGradient>
<linearGradient id="paint26_linear_705_19" x1="63.3299" y1="95.4007" x2="63.3299" y2="31.7534" gradientUnits="userSpaceOnUse">
<stop stop-color="#00EACA"/>
<stop offset="1" stop-color="#00B553"/>
</linearGradient>
<linearGradient id="paint27_linear_705_19" x1="63.3299" y1="95.4007" x2="63.3299" y2="31.7534" gradientUnits="userSpaceOnUse">
<stop stop-color="#00EACA"/>
<stop offset="1" stop-color="#00B553"/>
</linearGradient>
</defs>
</svg>
