<svg width="128" height="128" viewBox="0 0 128 128" fill="none" xmlns="http://www.w3.org/2000/svg">
<path fill-rule="evenodd" clip-rule="evenodd" d="M33.8878 92.9868C33.2689 92.6296 32.8877 91.9693 32.8877 91.2547V75.4309C32.8877 73.8913 34.5544 72.929 35.8877 73.6988L62.9999 89.352C63.6187 89.7092 64.3811 89.7092 64.9999 89.352L92.1121 73.6988C93.4454 72.929 95.1121 73.8913 95.1121 75.4309V91.255C95.1121 91.9694 94.731 92.6296 94.1123 92.9869L81.7068 100.152C81.7066 100.152 81.7066 100.152 81.7068 100.152V100.152C81.7069 100.152 81.7069 100.153 81.7068 100.153L80.3686 100.925L65.0011 109.801C64.3822 110.158 63.6196 110.158 63.0007 109.801L46.2946 100.154C46.2937 100.153 46.2937 100.152 46.2946 100.151V100.151C46.2955 100.151 46.2955 100.15 46.2946 100.149L33.8878 92.9868Z" fill="#35CFEE"/>
<path fill-rule="evenodd" clip-rule="evenodd" d="M64.9987 48.7559C64.3799 49.1132 63.6175 49.1132 62.9986 48.7559L11.0001 18.7322C9.66672 17.9624 8 18.9246 8 20.4642V37.444V38.9507V82.3448C8 83.047 8.36824 83.6977 8.97019 84.0593L23.6369 92.8688C24.9699 93.6695 26.6667 92.7093 26.6667 91.1543V70.3037C26.6667 69.5828 26.2788 68.9178 25.6514 68.5629L21.4597 66.1917C20.8323 65.8368 20.4444 65.1718 20.4444 64.4509V49.6001C20.4444 48.0605 22.1111 47.0982 23.4445 47.8681L63.9123 71.2334C63.9301 71.2437 63.9521 71.2437 63.9699 71.2334V71.2334C63.9877 71.2231 64.0097 71.2231 64.0275 71.2334V71.2334C64.0453 71.2437 64.0672 71.2437 64.085 71.2334L104.556 47.8663C105.889 47.0965 107.556 48.0587 107.556 49.5984V64.4509C107.556 65.1718 107.168 65.8368 106.541 66.1917L102.349 68.5629C101.722 68.9178 101.334 69.5828 101.334 70.3037V91.1543C101.334 92.7093 103.03 93.6695 104.364 92.8688L119.03 84.0593C119.632 83.6977 120 83.047 120 82.3448V37.4455C120 37.4447 120 37.444 119.999 37.444V37.444C119.998 37.444 119.997 37.4434 119.997 37.4426V20.4642C119.997 18.9246 118.331 17.9624 116.997 18.7322L64.9987 48.7559Z" fill="url(#paint0_linear_724_82)"/>
<defs>
<linearGradient id="paint0_linear_724_82" x1="18.4186" y1="55.8443" x2="100.9" y2="55.8443" gradientUnits="userSpaceOnUse">
<stop stop-color="#5570FF"/>
<stop offset="1" stop-color="#4DD3FF"/>
</linearGradient>
</defs>
</svg>
