<svg width="16" height="16" viewBox="0 0 16 16" fill="none" xmlns="http://www.w3.org/2000/svg">
<path d="M7.98535 0.500002C6.83115 0.502461 5.69308 0.771274 4.65977 1.28552C3.88 1.67358 3.17575 2.19351 2.57717 2.82035C2.26479 3.14748 2.36641 3.66823 2.75417 3.90115V3.90115C3.07993 4.09682 3.49663 4.01775 3.76583 3.74954C4.24253 3.27458 4.79689 2.88208 5.4065 2.58977C6.21599 2.20164 7.10228 2.0001 8 2C9.59129 2 11.1174 2.63214 12.2426 3.75736C13.3679 4.88257 14 6.40871 14 8C14 9.59131 13.3679 11.1174 12.2426 12.2426C11.1174 13.3679 9.59129 14 8 14C7.10153 14 6.21455 13.7982 5.40449 13.4095C4.79442 13.1168 4.23972 12.7237 3.76286 12.2481C3.49369 11.9796 3.07678 11.9004 2.75088 12.0961V12.0961C2.36325 12.329 2.26154 12.8495 2.57365 13.1767C3.17418 13.8063 3.88121 14.3281 4.66429 14.7171C5.70088 15.2319 6.84259 15.4999 8 15.5C9.98913 15.5 11.8968 14.7098 13.3033 13.3033C14.7098 11.8968 15.5 9.98913 15.5 8C15.5 6.01087 14.7098 4.10321 13.3033 2.6967C11.8968 1.29018 9.98913 0.500002 8 0.500002C7.99513 0.499999 7.99022 0.499999 7.98535 0.500002ZM2.01464 4.24506C1.34812 3.845 0.5 4.3251 0.5 5.10247V10.8934C0.5 11.6707 1.348 12.1508 2.01452 11.7509L6.83926 8.85587C7.48651 8.46749 7.48657 7.52945 6.83937 7.14099L2.01464 4.24506ZM8 3.5C7.36146 3.50019 6.73025 3.63623 6.14836 3.89916C5.85395 4.03217 5.57559 4.19611 5.31772 4.38767C4.92388 4.68025 5.01287 5.25763 5.43358 5.51005V5.51005C5.73511 5.69097 6.11513 5.63965 6.41356 5.45366C6.87332 5.16712 7.40554 5.00839 7.9546 5C7.96973 4.99989 7.98487 4.99989 8 5C8.79564 5 9.55872 5.31607 10.1213 5.87868C10.6839 6.44129 11 7.20436 11 8C11 8.79564 10.6839 9.55871 10.1213 10.1213C9.55872 10.6839 8.79564 11 8 11C7.43438 11 6.88459 10.8402 6.41145 10.5448C6.11253 10.3582 5.7316 10.3067 5.42958 10.4882V10.4882C5.00925 10.7409 4.92039 11.318 5.3139 11.6107C5.57234 11.8029 5.8514 11.9674 6.14656 12.1008C6.72902 12.364 7.36084 12.5001 8 12.5C9.19346 12.5 10.3381 12.0259 11.182 11.182C12.0259 10.3381 12.5 9.19346 12.5 8C12.5 6.80654 12.0259 5.66193 11.182 4.81802C10.3381 3.97411 9.19346 3.5 8 3.5Z" fill="url(#paint0_linear_670_254)"/>
<defs>
<linearGradient id="paint0_linear_670_254" x1="8" y1="0.499999" x2="8" y2="15.5" gradientUnits="userSpaceOnUse">
<stop stop-color="#BAFA52"/>
<stop offset="1" stop-color="#3F8F5B"/>
</linearGradient>
</defs>
</svg>
