<svg width="32" height="32" viewBox="0 0 32 32" fill="none" xmlns="http://www.w3.org/2000/svg">
<path fill-rule="evenodd" clip-rule="evenodd" d="M16.0309 2.0007C15.8895 1.99463 15.7491 2.02828 15.6249 2.09802C15.5007 2.16777 15.3973 2.27097 15.3259 2.39653L13.4438 5.7069C13.1886 6.15562 12.6339 6.33643 12.1634 6.12424L8.75896 4.589C8.6344 4.53288 8.49771 4.51126 8.36249 4.52626C8.22727 4.54127 8.09823 4.59239 7.98821 4.67454C7.8782 4.75668 7.79104 4.86699 7.73541 4.99449C7.67978 5.12198 7.65763 5.26222 7.67114 5.40124L8.04586 9.24901C8.09478 9.75138 7.76166 10.2115 7.26911 10.3218L3.61294 11.1406C3.48002 11.1704 3.35701 11.2354 3.25616 11.3292C3.1553 11.423 3.08012 11.5422 3.0381 11.6752C2.99607 11.8081 2.98867 11.95 3.01662 12.0867C3.04458 12.2235 3.10692 12.3504 3.19743 12.4547L5.70624 15.3461C6.03245 15.722 6.0325 16.2807 5.70634 16.6567L3.19794 19.5485C3.10749 19.6528 3.04521 19.7797 3.0173 19.9164C2.9894 20.0532 2.99684 20.195 3.03889 20.3279C3.08094 20.4608 3.15613 20.58 3.25697 20.6738C3.35782 20.7675 3.48081 20.8325 3.6137 20.8623L7.27007 21.6803C7.76265 21.7905 8.09588 22.2505 8.04706 22.7529L7.67317 26.6006C7.65968 26.7397 7.68187 26.8799 7.73753 27.0074C7.79318 27.1349 7.88038 27.2452 7.99042 27.3273C8.10047 27.4094 8.22953 27.4605 8.36476 27.4755C8.5 27.4904 8.63669 27.4688 8.76124 27.4126L12.1655 25.8767C12.636 25.6644 13.1907 25.8451 13.446 26.2938L15.329 29.6038C15.3976 29.7244 15.4958 29.8244 15.6138 29.8939C15.7318 29.9635 15.8655 30 16.0015 30C16.1375 30 16.2711 29.9634 16.3891 29.8938C16.507 29.8242 16.6052 29.7241 16.6738 29.6035L18.5562 26.293C18.8114 25.8444 19.3661 25.6636 19.8366 25.8757L23.2408 27.4108C23.3654 27.4669 23.5021 27.4886 23.6373 27.4736C23.7726 27.4587 23.9017 27.4076 24.0117 27.3254C24.1218 27.2432 24.209 27.1329 24.2646 27.0054C24.3202 26.8779 24.3424 26.7376 24.3289 26.5985L23.9541 22.7512C23.9052 22.2489 24.2383 21.7888 24.7308 21.6785L28.3871 20.8594C28.52 20.8297 28.643 20.7646 28.7438 20.6709C28.8447 20.5771 28.9199 20.4578 28.9619 20.3249C29.0039 20.192 29.0113 20.0501 28.9834 19.9133C28.9554 19.7765 28.8931 19.6497 28.8026 19.5453L26.2938 16.6542C25.9676 16.2783 25.9675 15.7196 26.2936 15.3436L28.8021 12.4516C28.8925 12.3472 28.9548 12.2204 28.9827 12.0836C29.0106 11.9469 29.0032 11.805 28.9611 11.6721C28.9191 11.5392 28.8439 11.42 28.743 11.3262C28.6422 11.2325 28.5192 11.1675 28.3863 11.1377L24.7297 10.3197C24.2371 10.2095 23.9039 9.74954 23.9527 9.24714L24.3266 5.39942C24.3401 5.26038 24.3179 5.12014 24.2622 4.99265C24.2066 4.86516 24.1194 4.75487 24.0093 4.67274C23.8993 4.59062 23.7702 4.53953 23.635 4.52457C23.4997 4.5096 23.3631 4.53128 23.2385 4.58743L19.8345 6.12351C19.364 6.33583 18.8092 6.15516 18.554 5.70651L16.6708 2.39627C16.6049 2.28055 16.5118 2.18369 16.4 2.11457C16.2882 2.04545 16.1613 2.00629 16.0309 2.0007Z" stroke="url(#paint0_linear_390_190)" stroke-width="2"/>
<path fill-rule="evenodd" clip-rule="evenodd" d="M12.3216 23.0991C11.4621 23.4979 10.2854 22.6321 10.399 21.6915C10.5296 20.6108 10.5558 19.4017 10.2656 18.4199C9.93682 17.3072 8.97984 16.129 8.05546 15.1908C7.40022 14.5258 7.80728 13.2183 8.72988 13.0755C10.0728 12.8677 11.5812 12.5274 12.4277 11.9863C13.3933 11.3692 14.368 9.79115 15.0541 8.48507C15.4533 7.72519 16.6053 7.69328 17.017 8.44643C17.7904 9.86116 18.8142 11.5941 19.3848 11.9863C19.9772 12.3936 22.1917 12.8066 23.8971 13.0755C24.7328 13.2073 25.0765 14.2608 24.4791 14.8599C23.2711 16.071 21.7513 17.6828 21.5449 18.3203C21.3546 18.9083 21.5618 20.6922 21.7895 22.1928C21.9216 23.063 20.9287 23.7532 20.1366 23.3697C18.8695 22.7561 17.2341 22.1211 15.8926 22.1211C14.7493 22.1211 13.4348 22.5826 12.3216 23.0991ZM18.5789 20.5979C19.0565 20.7577 19.5366 20.3814 19.502 19.8789C19.4528 19.1658 19.328 18.6767 19.6426 17.7051C19.9758 16.6757 20.3759 16.3776 20.8613 15.8027C21.2678 15.3213 21.0316 14.5957 20.4186 14.4499C20.4014 14.4458 20.3843 14.4417 20.3672 14.4375C19.6239 14.2564 19.0912 14.2117 18.252 13.6348C17.4128 13.0579 17.1816 12.5671 16.7695 11.9492C16.423 11.4296 15.6641 11.4264 15.299 11.9331C14.8352 12.5767 14.2719 13.181 13.5039 13.6719C13.0312 13.974 12.5441 14.1963 12.0512 14.3683C11.3238 14.6221 11.0113 15.5283 11.4202 16.1812C11.7328 16.6805 11.9992 17.2297 12.1836 17.8535C12.3301 18.3492 12.4127 18.8353 12.4532 19.311C12.5155 20.0442 13.248 20.571 13.9595 20.3834C14.5651 20.2237 15.2056 20.1211 15.8926 20.1211C16.8613 20.1211 17.7496 20.3205 18.5789 20.5979Z" fill="url(#paint1_linear_390_190)"/>
<defs>
<linearGradient id="paint0_linear_390_190" x1="27.0821" y1="-3.86619" x2="2.26102" y2="20.8653" gradientUnits="userSpaceOnUse">
<stop stop-color="#FE7970"/>
<stop offset="1" stop-color="#D92B1A"/>
</linearGradient>
<linearGradient id="paint1_linear_390_190" x1="24.5247" y1="28.2711" x2="8.81177" y2="9.53716" gradientUnits="userSpaceOnUse">
<stop stop-color="#FE7970"/>
<stop offset="1" stop-color="#D92B1A"/>
</linearGradient>
</defs>
</svg>
