<svg width="32" height="32" viewBox="0 0 32 32" fill="none" xmlns="http://www.w3.org/2000/svg">
<mask id="path-1-inside-1_448_684" fill="white">
<path d="M21.6291 3.05377C21.1704 3.41099 19.8199 5.91046 18.4695 8.89007C17.9224 10.1046 17.1481 11.6932 16.7572 12.4234C15.5963 14.5866 12.7608 18.5223 11.4481 19.7778L10.9331 20.2749C10.5397 20.6547 10.5243 21.2801 10.8985 21.6788L11.1368 21.9327C11.6968 22.5316 12.4367 23.7755 13.0505 25.1666C14.2157 27.8173 14.4182 28.1998 14.6411 28.1998C14.7466 28.1998 15.3432 27.8709 16.0088 27.457C17.4938 26.5166 18.8819 25.2527 20.7708 23.1021C23.7194 19.7495 25.9324 19.0392 28.6581 20.5784C29.3947 20.9966 29.9999 21.2592 29.9999 21.1615C29.9999 21.0586 29.6251 20.0489 29.175 18.9121C28.7296 17.7873 27.5219 14.6331 26.4867 11.8677C26.4646 11.8087 26.439 11.7566 26.409 11.7013C25.6166 10.2396 23.2463 2.21716 21.6291 3.06218"/>
</mask>
<path d="M22.4892 4.15839C23.0993 3.68336 23.2088 2.80372 22.7337 2.19365C22.2587 1.58358 21.3791 1.47412 20.769 1.94915L22.4892 4.15839ZM18.4695 8.89007L17.1943 8.31214L17.193 8.3151L18.4695 8.89007ZM16.7572 12.4234L17.9908 13.0854L17.9915 13.0841L16.7572 12.4234ZM11.4481 19.7778L10.4804 18.7661L10.4757 18.7706L11.4481 19.7778ZM11.1368 21.9327L12.1594 20.9765L12.1576 20.9746L11.1368 21.9327ZM13.0505 25.1666L14.3321 24.6032L14.3313 24.6014L13.0505 25.1666ZM16.0088 27.457L16.7482 28.6458L16.7577 28.6398L16.0088 27.457ZM20.7708 23.1021L19.7196 22.1775L19.7189 22.1782L20.7708 23.1021ZM28.6581 20.5784L29.3492 19.3609L29.3465 19.3594L28.6581 20.5784ZM20.9807 1.82136C20.2955 2.17945 20.0302 3.02526 20.3883 3.71055C20.7464 4.39583 21.5922 4.66107 22.2775 4.30299L20.9807 1.82136ZM26.4867 11.8677L25.1755 12.3585L26.4867 11.8677ZM26.409 11.7013L25.1783 12.3685L26.409 11.7013ZM10.9331 20.2749L9.96079 19.2677L10.9331 20.2749ZM20.769 1.94915C20.5673 2.10616 20.4088 2.29965 20.3079 2.43052C20.1912 2.58204 20.0717 2.75689 19.9531 2.94194C19.7151 3.31332 19.4428 3.78544 19.1523 4.32231C18.5695 5.39958 17.8797 6.79985 17.1943 8.31214L19.7446 9.468C20.4097 8.00068 21.0703 6.66141 21.615 5.65473C21.8883 5.14964 22.1241 4.74368 22.3105 4.45283C22.4041 4.30677 22.4759 4.20446 22.5261 4.13928C22.5922 4.05344 22.5762 4.09069 22.4892 4.15839L20.769 1.94915ZM17.193 8.3151C16.6545 9.51051 15.8944 11.0687 15.5229 11.7626L17.9915 13.0841C18.4018 12.3176 19.1903 10.6987 19.746 9.46504L17.193 8.3151ZM15.5236 11.7614C14.9854 12.7642 14.0269 14.2319 13.0242 15.6219C12.0085 17.0299 11.0358 18.235 10.4804 18.7661L12.4157 20.7896C13.1731 20.0652 14.2745 18.6746 15.295 17.2601C16.3284 15.8276 17.3681 14.2458 17.9908 13.0854L15.5236 11.7614ZM10.4757 18.7706L9.96079 19.2677L11.9054 21.2822L12.4204 20.7851L10.4757 18.7706ZM9.87776 22.637L10.1161 22.8909L12.1576 20.9746L11.9193 20.7207L9.87776 22.637ZM10.1143 22.8889C10.5128 23.3151 11.1767 24.3881 11.7697 25.7318L14.3313 24.6014C13.6966 23.163 12.8808 21.748 12.1594 20.9765L10.1143 22.8889ZM11.7689 25.7299C12.3439 27.0382 12.7077 27.8482 12.9596 28.3279C13.0779 28.5532 13.2258 28.8142 13.415 29.0276C13.6472 29.2894 14.0534 29.5998 14.6411 29.5998V26.7998C15.1173 26.7998 15.4146 27.0623 15.5098 27.1696C15.5619 27.2284 15.5446 27.2281 15.4387 27.0265C15.2423 26.6523 14.9223 25.9457 14.3321 24.6032L11.7689 25.7299ZM14.6411 29.5998C14.9169 29.5998 15.1383 29.5158 15.1696 29.5047C15.2532 29.4752 15.3304 29.4416 15.3903 29.414C15.5131 29.3576 15.65 29.2865 15.7854 29.2126C16.0609 29.0623 16.4003 28.8622 16.7482 28.6458L15.2693 26.2682C14.9517 26.4657 14.66 26.637 14.4444 26.7546C14.3343 26.8147 14.2607 26.8516 14.2212 26.8698C14.1999 26.8796 14.2079 26.8749 14.2361 26.8649C14.2503 26.8599 14.2858 26.8477 14.336 26.8356C14.3738 26.8264 14.488 26.7998 14.6411 26.7998V29.5998ZM16.7577 28.6398C18.4021 27.5986 19.8915 26.2248 21.8227 24.0259L19.7189 22.1782C17.8724 24.2806 16.5855 25.4347 15.2598 26.2741L16.7577 28.6398ZM21.8221 24.0266C23.2437 22.4102 24.3279 21.6264 25.2249 21.3392C26.025 21.083 26.8531 21.167 27.9697 21.7975L29.3465 19.3594C27.7373 18.4507 26.0962 18.1202 24.3711 18.6725C22.7431 19.1938 21.2465 20.4414 19.7196 22.1775L21.8221 24.0266ZM27.9669 21.7959C28.3621 22.0203 28.744 22.2157 29.0474 22.3475C29.1866 22.408 29.368 22.4811 29.5476 22.527C29.6105 22.543 29.8212 22.597 30.0774 22.5777C30.2007 22.5685 30.5073 22.5318 30.8142 22.3094C31.2021 22.0285 31.3999 21.5915 31.3999 21.1615H28.5999C28.5999 20.7438 28.7929 20.3162 29.1716 20.0419C29.4693 19.8263 29.7622 19.7935 29.8675 19.7856C29.9968 19.7759 30.0955 19.7879 30.1383 19.7941C30.1883 19.8013 30.224 19.8099 30.24 19.8139C30.2831 19.8249 30.2672 19.8246 30.163 19.7793C29.9797 19.6997 29.6906 19.5547 29.3492 19.3609L27.9669 21.7959ZM31.3999 21.1615C31.3999 20.9967 31.3698 20.8633 31.3645 20.8386C31.3532 20.7859 31.3406 20.7385 31.3309 20.704C31.3111 20.6334 31.2869 20.5573 31.2629 20.485C31.2138 20.3374 31.147 20.1501 31.07 19.9409C30.915 19.5196 30.7044 18.9718 30.4766 18.3967L27.8733 19.4275C28.0957 19.9892 28.2976 20.5147 28.4424 20.9081C28.5154 21.1063 28.5704 21.2617 28.6057 21.368C28.6239 21.4226 28.6324 21.4511 28.6349 21.4599C28.6363 21.4651 28.6322 21.4511 28.6266 21.425C28.6238 21.4117 28.6184 21.3856 28.6134 21.351C28.6093 21.3226 28.5999 21.2528 28.5999 21.1615H31.3999ZM30.4766 18.3967C30.0361 17.2841 28.832 14.1395 27.7978 11.3768L25.1755 12.3585C26.2118 15.1267 27.4231 18.2905 27.8733 19.4275L30.4766 18.3967ZM27.6398 11.0341C27.4988 10.7739 27.2436 10.1176 26.864 9.11862C26.5076 8.18094 26.0757 7.03831 25.6149 5.96461C25.1627 4.91103 24.6429 3.82711 24.0915 3.04395C23.8235 2.66343 23.4698 2.23853 23.0203 1.95122C22.5218 1.63258 21.7618 1.41323 20.9807 1.82136L22.2775 4.30299C21.9007 4.49987 21.5685 4.34638 21.5123 4.31043C21.5051 4.30582 21.608 4.38045 21.8021 4.65604C22.1747 5.18511 22.6002 6.03972 23.0418 7.06884C23.4748 8.07783 23.8851 9.16208 24.2466 10.1133C24.5848 11.0032 24.9231 11.8979 25.1783 12.3685L27.6398 11.0341ZM27.7978 11.3768C27.7448 11.2351 27.6867 11.1206 27.6398 11.0341L25.1783 12.3685C25.1853 12.3815 25.1865 12.3844 25.1851 12.3815C25.1834 12.3777 25.1797 12.3695 25.1755 12.3585L27.7978 11.3768ZM9.96079 19.2677C9.01655 20.1792 8.97957 21.6801 9.87776 22.637L11.9193 20.7207C12.069 20.8801 12.0628 21.1303 11.9054 21.2822L9.96079 19.2677Z" fill="url(#paint0_linear_448_684)" mask="url(#path-1-inside-1_448_684)"/>
<path d="M15.7526 9.91992C15.7397 9.91992 15.7235 9.91992 15.7063 9.92833C13.2122 11.0199 12.3119 11.5169 11.5753 12.2103C11.0917 12.6736 10.6965 13.1664 10.6965 13.3103C10.6965 13.7579 12.6608 14.9525 12.9849 14.7014C13.1411 14.5785 13.7549 13.7001 14.3483 12.744C15.3961 11.041 15.9378 9.94514 15.7526 9.91992ZM8.77101 14.7424C8.34564 14.7424 2.31821 17.0201 2.03175 17.2912C1.94776 17.369 2.03606 17.5129 2.2299 17.6201C2.42375 17.7304 3.52542 18.4658 4.69494 19.258C5.86014 20.0502 6.87351 20.6942 6.94566 20.6984C7.01674 20.6984 7.55196 20.419 8.12379 20.0744C9.32669 19.3515 11.6485 17.1158 11.6367 16.6881C11.628 16.3068 9.31485 14.7392 8.76778 14.7392" fill="url(#paint1_linear_448_684)"/>
<defs>
<linearGradient id="paint0_linear_448_684" x1="13.5" y1="29.9997" x2="16.4111" y2="3.0444" gradientUnits="userSpaceOnUse">
<stop stop-color="#EC396C"/>
<stop offset="1" stop-color="#E74C3C"/>
</linearGradient>
<linearGradient id="paint1_linear_448_684" x1="13.5" y1="29.9997" x2="16.4111" y2="3.0444" gradientUnits="userSpaceOnUse">
<stop stop-color="#EC396C"/>
<stop offset="1" stop-color="#E74C3C"/>
</linearGradient>
</defs>
</svg>
