<svg width="24" height="24" viewBox="0 0 24 24" fill="none" xmlns="http://www.w3.org/2000/svg">
<path d="M14.5 14C13.4755 14 12.5326 13.6294 11.8243 12.984C11.6432 12.8189 11.3568 12.8189 11.1757 12.984C10.4674 13.6294 9.52448 14 8.5 14C6.61807 14 5.04037 12.7001 4.61671 10.9589C4.58384 10.8238 4.49034 10.7108 4.36366 10.6535C3.69655 10.3519 3.12307 9.87305 2.70682 9.2673C2.24825 8.59997 2.00189 7.8097 2 7C2 5.93913 2.42143 4.92172 3.17157 4.17157C3.92172 3.42143 4.93913 3 6 3C6.19858 3 6.38548 3.0175 6.583 3.04359C6.70154 3.05925 6.82069 3.02269 6.91278 2.94643C7.62197 2.35922 8.51718 2 9.5 2C10.5245 2 11.4674 2.37058 12.1757 3.01604C12.3568 3.18105 12.6432 3.18105 12.8243 3.01604C13.5326 2.37058 14.4755 2 15.5 2C17.3819 2 18.9596 3.29991 19.3833 5.04109C19.4162 5.17618 19.5097 5.28919 19.6363 5.34647C20.3035 5.64812 20.8769 6.12695 21.2932 6.7327C21.7517 7.40003 21.9981 8.1903 22 9C22 10.0609 21.5786 11.0783 20.8284 11.8284C20.0783 12.5786 19.0609 13 18 13L17.4045 12.9459C17.2933 12.9358 17.1835 12.9734 17.0977 13.0449C16.3869 13.6372 15.4877 14 14.5 14Z" stroke="url(#paint0_linear_1044_10)" stroke-width="2.6"/>
<path d="M3.81673 20.0833C3.50729 19.7739 3.08761 19.6 2.65 19.6C2.21239 19.6 1.79271 19.7739 1.48327 20.0833C1.17384 20.3928 1 20.8124 1 21.25C1 21.6877 1.17384 22.1073 1.48327 22.4168C1.79271 22.7262 2.21239 22.9 2.65 22.9C3.08761 22.9 3.50729 22.7262 3.81673 22.4168C4.12616 22.1073 4.3 21.6877 4.3 21.25C4.3 20.8124 4.12616 20.3928 3.81673 20.0833Z" fill="url(#paint1_linear_1044_10)"/>
<path d="M10.0945 17.1055C9.57882 16.5898 8.87934 16.3 8.15 16.3C7.42065 16.3 6.72118 16.5898 6.20546 17.1055C5.68973 17.6212 5.4 18.3207 5.4 19.05C5.4 19.7794 5.68973 20.4789 6.20546 20.9946C6.72118 21.5103 7.42065 21.8 8.15 21.8C8.87934 21.8 9.57882 21.5103 10.0945 20.9946C10.6103 20.4789 10.9 19.7794 10.9 19.05C10.9 18.3207 10.6103 17.6212 10.0945 17.1055Z" fill="url(#paint2_linear_1044_10)"/>
<defs>
<linearGradient id="paint0_linear_1044_10" x1="5.625" y1="12.5833" x2="15.8235" y2="-2.24734" gradientUnits="userSpaceOnUse">
<stop stop-color="#FE0844"/>
<stop offset="1" stop-color="#FEB302"/>
</linearGradient>
<linearGradient id="paint1_linear_1044_10" x1="2.79437" y1="22.1209" x2="8.59031" y2="14.5353" gradientUnits="userSpaceOnUse">
<stop stop-color="#FE0844"/>
<stop offset="1" stop-color="#FEB302"/>
</linearGradient>
<linearGradient id="paint2_linear_1044_10" x1="2.79437" y1="22.1209" x2="8.59031" y2="14.5353" gradientUnits="userSpaceOnUse">
<stop stop-color="#FE0844"/>
<stop offset="1" stop-color="#FEB302"/>
</linearGradient>
</defs>
</svg>
