<svg width="48" height="48" viewBox="0 0 48 48" fill="none" xmlns="http://www.w3.org/2000/svg">
<path d="M38.3768 8.7386L24.459 22.6581C24.2123 22.9048 23.8326 22.9048 23.5858 22.6581L9.64566 8.7386C9.17454 8.26921 8.54811 8 7.87682 8H4.25286C3.55913 8 3 8.56085 3 9.25458V37.8735C3 38.5673 3.55913 39.1281 4.25286 39.1281H9.53349C10.2272 39.1281 10.7863 38.5673 10.7863 37.8735V21.6054C10.7863 21.4708 10.9434 21.4052 11.0556 21.4932L22.2432 32.6826C23.2062 33.6439 24.7938 33.6439 25.7568 32.6826L36.9445 21.4932C37.0342 21.4035 37.2137 21.4708 37.2137 21.6054V37.8735C37.2137 38.5673 37.7728 39.1281 38.4665 39.1281H43.7471C44.4409 39.1281 45 38.5673 45 37.8735V9.25458C45 8.56085 44.4409 8 43.7471 8H40.1232C39.4743 8.02416 38.8479 8.26921 38.3768 8.7386Z" fill="url(#paint0_linear_448_692)"/>
<defs>
<linearGradient id="paint0_linear_448_692" x1="5.92405" y1="48.7584" x2="16.0549" y2="6.1125" gradientUnits="userSpaceOnUse">
<stop stop-color="#FE3661"/>
<stop offset="0.330956" stop-color="#C723C7"/>
<stop offset="0.549719" stop-color="#AA35D6"/>
<stop offset="1" stop-color="#1EA3FD"/>
</linearGradient>
</defs>
</svg>
