<svg width="48" height="48" viewBox="0 0 48 48" fill="none" xmlns="http://www.w3.org/2000/svg">
<path d="M23.1367 44C34.1824 44 43.1367 35.0457 43.1367 24C43.1367 12.9543 34.1824 4 23.1367 4C12.091 4 3.13672 12.9543 3.13672 24C3.13672 35.0457 12.091 44 23.1367 44Z" stroke="url(#paint0_linear_1005_73)" stroke-width="5"/>
<path d="M31.352 15.5283L23.399 23.4823C23.258 23.6233 23.0411 23.6233 22.9001 23.4823L14.9342 15.5283C14.6651 15.2601 14.307 15.1062 13.9235 15.1062H11.8526C11.4563 15.1062 11.1367 15.4267 11.1367 15.8231V32.1768C11.1367 32.5732 11.4563 32.8937 11.8526 32.8937H14.8702C15.2665 32.8937 15.5861 32.5732 15.5861 32.1768V22.8807C15.5861 22.8038 15.6758 22.7663 15.7399 22.8166L22.1328 29.2106C22.6831 29.7598 23.5903 29.7598 24.1406 29.2106L30.5335 22.8166C30.5849 22.7654 30.6874 22.8038 30.6874 22.8807V32.1768C30.6874 32.5732 31.0069 32.8937 31.4033 32.8937H34.4208C34.8173 32.8937 35.1367 32.5732 35.1367 32.1768V15.8231C35.1367 15.4267 34.8173 15.1062 34.4208 15.1062H32.35C31.9792 15.12 31.6212 15.2601 31.352 15.5283Z" fill="url(#paint1_linear_1005_73)"/>
<defs>
<linearGradient id="paint0_linear_1005_73" x1="2.55855" y1="4.3936" x2="43.7951" y2="46.8918" gradientUnits="userSpaceOnUse">
<stop stop-color="#F9D423"/>
<stop offset="0.515624" stop-color="#FF4E50"/>
<stop offset="0.991304" stop-color="#8A2387"/>
</linearGradient>
<linearGradient id="paint1_linear_1005_73" x1="10.7898" y1="15.2812" x2="28.1817" y2="39.4654" gradientUnits="userSpaceOnUse">
<stop stop-color="#F9D423"/>
<stop offset="0.515624" stop-color="#FF4E50"/>
<stop offset="0.991304" stop-color="#8A2387"/>
</linearGradient>
</defs>
</svg>
