<svg width="128" height="128" viewBox="0 0 128 128" fill="none" xmlns="http://www.w3.org/2000/svg">
<path d="M14.8638 5.81836C9.85255 5.81836 5.81836 9.79812 5.81836 14.7445V51.9547V58.6362C5.81836 58.888 5.86554 59.1376 5.95947 59.3711C8.68648 66.1513 12.5811 72.4867 17.8127 78.0456C24.0353 84.6576 33.2784 90.1878 42.8468 92.2388C52.4151 94.2898 62.3026 92.8604 69.824 85.5684C72.4002 83.0708 74.5751 79.3709 75.3411 75.5797C76.1071 71.7885 75.4697 67.911 72.432 65.04C71.4679 64.1288 70.0432 63.3542 68.5968 63.0968C67.1592 62.8409 65.0463 62.8623 64.0002 64.0002C65.1674 65.047 66.0855 66.734 65.824 68.165C65.5608 69.6056 64.7724 71.0288 63.8411 71.9888C60.9176 75.0025 56.9622 76.2134 53.1081 75.4547C49.254 74.6961 45.4935 72.5458 42.9547 69.9945C37.4029 64.4153 34.916 56.937 35.04 49.8468C35.0812 47.4833 35.3777 45.0975 35.8979 42.7331C37.9787 33.2757 43.8778 21.5311 50.5854 15.3809C52.6914 13.4498 54.9073 11.705 57.2154 10.1355C58.9666 8.94456 58.1633 5.81836 56.0455 5.81836H14.8638ZM64.0002 64.0002C62.833 62.9533 61.9149 61.2664 62.1763 59.8354C62.4395 58.3947 63.228 56.9716 64.1593 56.0115C67.0828 52.9978 71.0381 51.787 74.8922 52.5456C78.7463 53.3043 82.5069 55.4546 85.0456 58.0059C90.5975 63.585 93.0844 71.0633 92.9604 78.1536C92.9191 80.517 92.6227 82.9029 92.1025 85.2672C90.0217 94.7247 84.1226 106.469 77.415 112.619C75.3089 114.551 73.093 116.295 70.785 117.865C69.0337 119.056 69.8371 122.182 71.9549 122.182H113.137C118.148 122.182 122.182 118.202 122.182 113.256V76.0456V69.3641C122.182 69.1124 122.135 68.8628 122.041 68.6293C119.314 61.849 115.419 55.5137 110.188 49.9547C103.965 43.3428 94.7219 37.8126 85.1536 35.7615C75.5853 33.7105 65.6978 35.14 58.1763 42.432C55.6001 44.9296 53.4253 48.6294 52.6593 52.4206C51.8933 56.2118 52.5306 60.0894 55.5684 62.9604C56.5324 63.8716 57.9571 64.6461 59.4036 64.9036C60.8411 65.1595 62.9541 65.138 64.0002 64.0002Z" fill="url(#paint0_linear_721_40)"/>
<defs>
<linearGradient id="paint0_linear_721_40" x1="64.0002" y1="5.81836" x2="64.0002" y2="122.182" gradientUnits="userSpaceOnUse">
<stop stop-color="#FCBC18"/>
<stop offset="1" stop-color="#FF6F1E"/>
</linearGradient>
</defs>
</svg>
