<svg width="64" height="64" viewBox="0 0 64 64" fill="none" xmlns="http://www.w3.org/2000/svg">
<path d="M16.168 11.0034C13.7303 11.0811 11.3809 12.2026 9.57765 13.9088C7.74446 15.6427 6.43225 18.0268 6.16592 20.5879C6.03282 21.8687 6.16028 23.1801 6.56915 24.3959C6.97803 25.6119 7.66794 26.7302 8.58597 27.5954C9.66861 28.6158 11.0206 29.2584 12.264 30.0566C12.8858 30.4557 13.4855 30.8986 14.0005 31.4374C14.5155 31.9762 14.9474 32.619 15.1833 33.3381C15.393 33.9777 15.4409 34.6656 15.3473 35.3343C15.2536 36.0031 15.0175 36.6496 14.6704 37.2212C13.9766 38.3643 12.856 39.1962 11.6282 39.6412C10.2042 40.1573 8.63913 40.1812 7.26654 40.8308C6.18036 41.3447 5.26587 42.2431 4.69606 43.3329C4.12613 44.4229 3.90115 45.7036 4.03976 46.9358C4.20239 48.3836 4.86552 49.7555 5.86507 50.778C6.86449 51.8004 8.19114 52.4654 9.57712 52.6854C11.6097 53.008 13.7806 52.3328 15.2581 50.8464C15.9968 50.1032 16.5637 49.1769 16.8782 48.1596C17.1929 47.1421 17.2536 46.0349 17.0493 44.9876C16.8935 44.186 16.5893 43.4299 16.3044 42.6703C16.0198 41.9107 15.751 41.1302 15.6823 40.3181C15.5613 38.883 16.0916 37.4268 17.0086 36.3453C17.9257 35.2648 19.2039 34.5539 20.5568 34.2397C21.4297 34.0369 22.3416 33.9868 23.2231 34.144C24.1046 34.3014 24.9563 34.6647 25.6706 35.2242C26.3848 35.7836 26.96 36.5425 27.2771 37.4119C27.5942 38.2811 27.6462 39.2615 27.3932 40.1533C27.1343 41.0666 26.5763 41.8503 26.0124 42.6007C25.4484 43.3512 24.864 44.1005 24.5287 44.9867C24.1593 45.9639 24.1184 47.0669 24.3716 48.0835C24.6248 49.1001 25.161 50.0346 25.862 50.7909C26.6373 51.6274 27.6176 52.253 28.6854 52.5956C29.7529 52.9421 30.8485 53.0017 31.9652 53.0017C33.0827 53.0017 34.2471 52.9412 35.3151 52.5983C36.3829 52.2556 37.3631 51.6302 38.1385 50.7935C38.8393 50.0373 39.3756 49.1027 39.6288 48.0863C39.882 47.0695 39.8412 45.9665 39.4716 44.9893C39.1365 44.1031 38.5521 43.3538 37.9881 42.6034C37.4242 41.8531 36.8661 41.0693 36.6071 40.1559C36.3543 39.2641 36.4063 38.2837 36.7234 37.4145C37.0405 36.5453 37.6156 35.7863 38.3299 35.2268C39.0442 34.6674 39.8958 34.304 40.7774 34.1466C41.6589 33.9895 42.5708 34.0397 43.4435 34.2423C44.7964 34.5567 46.0745 35.2676 46.9918 36.348C47.909 37.4284 48.4393 38.8848 48.3182 40.3201C48.2495 41.1331 47.9807 41.9112 47.696 42.6719C47.4114 43.4324 47.1069 44.1898 46.9508 44.9894C46.7464 46.0369 46.8072 47.1441 47.1217 48.1616C47.4363 49.1789 48.0033 50.1052 48.742 50.8484C50.2196 52.3348 52.3904 53.01 54.4229 52.6873C55.8092 52.4673 57.1356 51.8024 58.135 50.78C59.1345 49.7577 59.7975 48.3857 59.9603 46.9377C60.0988 45.7056 59.8738 44.4249 59.304 43.3349C58.7342 42.245 57.8197 41.3467 56.7335 40.8328C55.3609 40.1832 53.7959 40.1593 52.3717 39.6432C51.1441 39.1982 50.0235 38.3663 49.3295 37.2231C48.9826 36.6516 48.7465 36.005 48.6527 35.3363C48.559 34.6676 48.6071 33.9797 48.8168 33.3399C49.0526 32.621 49.4845 31.9783 49.9996 31.4394C50.5145 30.9006 51.1143 30.4577 51.736 30.0584C52.9795 29.2603 54.3313 28.6177 55.4141 27.5974C56.3346 26.7317 57.0243 25.6134 57.4338 24.3974C57.8398 23.1818 57.9693 21.8702 57.8362 20.5894C57.5703 18.0282 56.2577 15.6443 54.4235 13.9102C52.6209 12.2042 50.2722 11.0827 47.8325 11.005C46.6137 10.9662 45.3804 11.1823 44.2569 11.675C43.1335 12.1676 42.1217 12.9338 41.3447 13.9105C40.4537 15.0301 39.8953 16.3942 39.3826 17.7458C38.8698 19.0975 38.3815 20.4753 37.6051 21.6836C36.3275 23.6759 34.3078 25.5664 32.0011 25.5664C29.6944 25.5664 27.6755 23.6759 26.395 21.6832C25.6187 20.4752 25.1304 19.0972 24.6176 17.7454C24.1048 16.3939 23.5465 15.0299 22.6557 13.9101C21.8786 12.9335 20.8667 12.1673 19.7431 11.6748C18.6199 11.1819 17.3863 10.9646 16.168 11.0034ZM32.0011 28.4978C32.9294 28.4978 33.8198 28.8667 34.4762 29.5231C35.1326 30.1796 35.5013 31.0699 35.5013 31.9982C35.5013 32.9266 35.1326 33.8168 34.4762 34.4732C33.8198 35.1297 32.9294 35.4985 32.0011 35.4985C31.0727 35.4985 30.1824 35.1297 29.526 34.4732C28.8695 33.8168 28.5008 32.9266 28.5008 31.9982C28.5008 31.0699 28.8695 30.1796 29.526 29.5231C30.1824 28.8667 31.0727 28.4978 32.0011 28.4978Z" fill="url(#paint0_linear_1005_369)"/>
<defs>
<linearGradient id="paint0_linear_1005_369" x1="58.1081" y1="12.2009" x2="45.0383" y2="55.9573" gradientUnits="userSpaceOnUse">
<stop stop-color="#FE0F7C"/>
<stop offset="1" stop-color="#DF0066"/>
</linearGradient>
</defs>
</svg>
