<svg width="24" height="24" viewBox="0 0 24 24" fill="none" xmlns="http://www.w3.org/2000/svg">
<g clip-path="url(#clip0_1005_434)">
<path d="M13.629 20.472L13.087 21.388C12.604 22.204 11.397 22.204 10.913 21.388L10.371 20.472C9.951 19.762 9.741 19.406 9.403 19.21C9.065 19.013 8.64 19.006 7.79 18.991C6.534 18.97 5.747 18.893 5.087 18.619C4.48036 18.3677 3.92916 17.9995 3.46487 17.5351C3.00057 17.0708 2.63227 16.5196 2.381 15.913C2 14.995 2 13.83 2 11.5V10.5C2 7.227 2 5.59 2.737 4.388C3.14905 3.7152 3.71445 3.14945 4.387 2.737C5.59 2 7.228 2 10.5 2H13.5C16.773 2 18.41 2 19.613 2.737C20.2855 3.14916 20.8508 3.71456 21.263 4.387C22 5.59 22 7.228 22 10.5V11.5C22 13.83 22 14.995 21.62 15.913C21.3686 16.5197 21.0002 17.071 20.5357 17.5353C20.0712 17.9995 19.5198 18.3678 18.913 18.619C18.253 18.893 17.466 18.969 16.21 18.991C15.36 19.006 14.935 19.013 14.597 19.21C14.259 19.406 14.049 19.761 13.629 20.472Z" stroke="url(#paint0_linear_1005_434)" stroke-width="2.6"/>
<path d="M20 11.8C20 12.2774 19.8104 12.7352 19.4728 13.0728C19.1352 13.4104 18.6774 13.6 18.2 13.6C17.7226 13.6 17.2648 13.4104 16.9272 13.0728C16.5896 12.7352 16.4 12.2774 16.4 11.8C16.4 11.3226 16.5896 10.8648 16.9272 10.5272C17.2648 10.1896 17.7226 10 18.2 10C18.6774 10 19.1352 10.1896 19.4728 10.5272C19.8104 10.8648 20 11.3226 20 11.8ZM13.8 11.8C13.8 12.2774 13.6104 12.7352 13.2728 13.0728C12.9352 13.4104 12.4774 13.6 12 13.6C11.5226 13.6 11.0648 13.4104 10.7272 13.0728C10.3896 12.7352 10.2 12.2774 10.2 11.8C10.2 11.3226 10.3896 10.8648 10.7272 10.5272C11.0648 10.1896 11.5226 10 12 10C12.4774 10 12.9352 10.1896 13.2728 10.5272C13.6104 10.8648 13.8 11.3226 13.8 11.8ZM7.6 11.8C7.6 12.2774 7.41036 12.7352 7.07279 13.0728C6.73523 13.4104 6.27739 13.6 5.8 13.6C5.32261 13.6 4.86477 13.4104 4.52721 13.0728C4.18964 12.7352 4 12.2774 4 11.8C4 11.3226 4.18964 10.8648 4.52721 10.5272C4.86477 10.1896 5.32261 10 5.8 10C6.27739 10 6.73523 10.1896 7.07279 10.5272C7.41036 10.8648 7.6 11.3226 7.6 11.8Z" fill="url(#paint1_linear_1005_434)"/>
</g>
<defs>
<linearGradient id="paint0_linear_1005_434" x1="12" y1="22" x2="12" y2="2" gradientUnits="userSpaceOnUse">
<stop stop-color="#5558FF"/>
<stop offset="1" stop-color="#00C0FF"/>
</linearGradient>
<linearGradient id="paint1_linear_1005_434" x1="12" y1="13.6" x2="12" y2="10" gradientUnits="userSpaceOnUse">
<stop stop-color="#5558FF"/>
<stop offset="1" stop-color="#00C0FF"/>
</linearGradient>
<clipPath id="clip0_1005_434">
<rect width="24" height="24" fill="white"/>
</clipPath>
</defs>
</svg>
