<svg width="128" height="128" viewBox="0 0 128 128" fill="none" xmlns="http://www.w3.org/2000/svg">
<path d="M109.274 66.3163C107.546 73.4529 102.154 80.898 94.1829 81.1278C89.0263 82.0397 83.5459 79.0337 82.145 73.8732C80.6824 68.8009 80.3468 63.2776 81.6038 58.1316C79.5475 61.0726 78.1009 65.41 75.4713 68.3971C69.277 76.7772 58.9052 83.0701 48.1988 81.2586C40.6796 79.8433 37.0905 71.6809 37.055 64.7115C36.5974 61.301 37.9065 55.3552 35.9249 56.9859C30.6909 70.4807 28.666 86.4029 27.017 100.704C27.6793 106.227 31.5803 112.075 28.3552 117.48C25.7064 122.276 17.699 119.665 18.0087 114.35C18.1046 103.437 21.9982 91.5645 24.7796 81.1278C27.8643 70.9266 31.548 60.8985 34.3668 50.6241C36.2791 39.0815 36.8158 28.7543 39.3931 17.322C40.5554 12.4666 44.515 6.8532 50.2164 8.20426C55.546 9.46794 54.1955 16.1821 53.3759 20.1358C51.14 28.7397 47.6269 35.4509 44.1011 43.5819C41.6641 49.9162 38.6204 57.6946 42.9019 63.9388C47.6344 70.4428 58.0776 70.3889 63.4903 64.754C72.7484 56.9171 78.2894 45.2812 79.9098 33.3914C81.5938 26.4779 81.9501 20.6569 84.6155 14.0202C86.2652 9.78902 91.1023 6.85564 95.5329 8.78846C99.7664 11.0924 98.5688 16.8725 97.6034 20.7168C94.2798 32.8958 88.9285 42.9021 83.9567 54.4578C82.7879 60.2799 85.5077 67.6275 91.8506 69.0862C98.1445 70.3402 104.762 66.4206 106.662 60.2708C107.846 58.6994 108.588 49.9884 110.463 53.7377C110.676 57.9584 110.317 62.2166 109.274 66.3163Z" fill="url(#paint0_linear_725_19)" stroke="url(#paint1_linear_725_19)" stroke-width="4"/>
<defs>
<linearGradient id="paint0_linear_725_19" x1="31.5496" y1="103.598" x2="109.322" y2="39.3514" gradientUnits="userSpaceOnUse">
<stop stop-color="#0072FF"/>
<stop offset="1" stop-color="#00E5A1"/>
</linearGradient>
<linearGradient id="paint1_linear_725_19" x1="31.5496" y1="103.598" x2="109.322" y2="39.3514" gradientUnits="userSpaceOnUse">
<stop stop-color="#0072FF"/>
<stop offset="1" stop-color="#00E5A1"/>
</linearGradient>
</defs>
</svg>
