<svg width="128" height="128" viewBox="0 0 128 128" fill="none" xmlns="http://www.w3.org/2000/svg">
<path fill-rule="evenodd" clip-rule="evenodd" d="M80 10H48C43.5817 10 40 13.5817 40 18V46C40 49.2244 41.9075 52.0032 44.6557 53.2696C45.2662 53.5509 45.5655 54.3048 45.2092 54.8748L28.8036 81.1238C28.6209 81.4161 28.3004 81.5938 27.9556 81.5938H17.625C13.9661 81.5938 11 84.5599 11 88.2188V111.406C11 115.065 13.9661 118.031 17.625 118.031H47.4375C51.0964 118.031 54.0625 115.065 54.0625 111.406V88.2188C54.0625 84.5599 51.0964 81.5938 47.4375 81.5938H44.4651C43.6797 81.5938 43.2008 80.7298 43.6171 80.0638L56.9771 58.6878L59.6132 54.47C59.7959 54.1776 60.1164 54 60.4612 54H67.0738C67.4186 54 67.7391 54.1776 67.9218 54.47L69.7816 57.4456L83.9179 80.0638C84.3342 80.7298 83.8553 81.5938 83.0699 81.5938H80.5629C76.904 81.5938 73.9379 84.5599 73.9379 88.2188V111.406C73.9379 115.065 76.904 118.031 80.5629 118.031H110.375C114.034 118.031 117 115.065 117 111.406V88.2188C117 84.5599 114.034 81.5938 110.375 81.5938H99.5794C99.2346 81.5938 98.9141 81.4161 98.7314 81.1238L82.4271 55.0369C82.0591 54.4482 82.3911 53.6683 83.0334 53.4049C85.9475 52.2099 88 49.3446 88 46V18C88 13.5817 84.4183 10 80 10Z" fill="url(#paint0_linear_1050_20)"/>
<path d="M80 10H48C43.5817 10 40 13.5817 40 18V46C40 50.4183 43.5817 54 48 54H80C84.4183 54 88 50.4183 88 46V18C88 13.5817 84.4183 10 80 10Z" fill="url(#paint1_linear_1050_20)"/>
<defs>
<linearGradient id="paint0_linear_1050_20" x1="63.9999" y1="118.031" x2="63.9999" y2="9.99999" gradientUnits="userSpaceOnUse">
<stop stop-color="#02AA93"/>
<stop offset="1" stop-color="#67FF80"/>
</linearGradient>
<linearGradient id="paint1_linear_1050_20" x1="64" y1="54" x2="64" y2="10" gradientUnits="userSpaceOnUse">
<stop stop-color="#02AA93"/>
<stop offset="1" stop-color="#67FF80"/>
</linearGradient>
</defs>
</svg>
