<svg width="48" height="48" viewBox="0 0 48 48" fill="none" xmlns="http://www.w3.org/2000/svg">
<path d="M6.14691 6.15798C4.82136 5.2301 3 6.17841 3 7.79645V35.5802C3 36.1106 3.21071 36.6194 3.58579 36.9944L7.22199 40.6306C8.48192 41.8906 10.6362 40.9982 10.6362 39.2164V22.9645C10.6362 21.3671 12.4164 20.4143 13.7456 21.3003L18.982 24.7911C20.3111 25.6771 22.0914 24.7243 22.0914 23.1269V18.3603C22.0914 17.7077 21.7729 17.0961 21.2383 16.7218L6.14691 6.15798Z" fill="white"/>
<path d="M6.14691 6.15798C4.82136 5.2301 3 6.17841 3 7.79645V35.5802C3 36.1106 3.21071 36.6194 3.58579 36.9944L7.22199 40.6306C8.48192 41.8906 10.6362 40.9982 10.6362 39.2164V22.9645C10.6362 21.3671 12.4164 20.4143 13.7456 21.3003L18.982 24.7911C20.3111 25.6771 22.0914 24.7243 22.0914 23.1269V18.3603C22.0914 17.7077 21.7729 17.0961 21.2383 16.7218L6.14691 6.15798Z" fill="url(#paint0_linear_1005_26)"/>
<path d="M26.7623 16.7218L41.8536 6.15798C43.1792 5.2301 45.0006 6.17841 45.0006 7.79645V35.5802C45.0006 36.1106 44.7898 36.6194 44.4148 36.9944L40.7786 40.6306C39.5186 41.8906 37.3644 40.9982 37.3644 39.2164V22.9645C37.3644 21.3671 35.5841 20.4143 34.255 21.3003L29.0185 24.7911C27.6894 25.6771 25.9092 24.7243 25.9092 23.1269V18.3603C25.9092 17.7077 26.2276 17.0961 26.7623 16.7218Z" fill="white"/>
<path d="M26.7623 16.7218L41.8536 6.15798C43.1792 5.2301 45.0006 6.17841 45.0006 7.79645V35.5802C45.0006 36.1106 44.7898 36.6194 44.4148 36.9944L40.7786 40.6306C39.5186 41.8906 37.3644 40.9982 37.3644 39.2164V22.9645C37.3644 21.3671 35.5841 20.4143 34.255 21.3003L29.0185 24.7911C27.6894 25.6771 25.9092 24.7243 25.9092 23.1269V18.3603C25.9092 17.7077 26.2276 17.0961 26.7623 16.7218Z" fill="url(#paint1_linear_1005_26)"/>
<defs>
<linearGradient id="paint0_linear_1005_26" x1="28.9543" y1="30.5578" x2="1.2444" y2="12.4169" gradientUnits="userSpaceOnUse">
<stop stop-color="#2AD454"/>
<stop offset="1" stop-color="#B3FF5A"/>
</linearGradient>
<linearGradient id="paint1_linear_1005_26" x1="28.9548" y1="30.5578" x2="1.24488" y2="12.4169" gradientUnits="userSpaceOnUse">
<stop stop-color="#2AD454"/>
<stop offset="1" stop-color="#B3FF5A"/>
</linearGradient>
</defs>
</svg>
