<svg width="48" height="48" viewBox="0 0 48 48" fill="none" xmlns="http://www.w3.org/2000/svg">
<path d="M10.0666 31.4813L22.4325 15.8764C23.2332 14.8659 24.7668 14.8659 25.5675 15.8764L37.9334 31.4813C39.2935 33.1883 41.7868 33.4788 43.4996 32.1187C45.2124 30.763 45.5029 28.2697 44.1428 26.5569L27.1263 5.09019C26.3372 4.09866 25.178 3.587 24 3.59134C22.8264 3.587 21.6628 4.09866 20.878 5.09019L3.85723 26.5613C2.49713 28.2697 2.78765 30.763 4.50042 32.1231C6.21319 33.4788 8.70647 33.1883 10.0666 31.4813Z" fill="url(#paint0_linear_1005_51)"/>
<path fill-rule="evenodd" clip-rule="evenodd" d="M30.4946 43.0183L25.5679 36.8021C24.7672 35.7918 23.2339 35.7918 22.4331 36.8021L17.5065 43.0183C16.2462 44.6066 13.9413 44.8727 12.3528 43.6186L12.3522 43.6174L12.3517 43.6162C10.7623 42.3543 10.498 40.0435 11.7567 38.4625L21.1112 26.661C21.8382 25.7446 22.9136 25.272 24.0005 25.272C25.0889 25.272 26.17 25.7461 26.8913 26.661L36.2429 38.461C37.5032 40.0437 37.2387 42.3549 35.6488 43.6167C34.0661 44.8713 31.7564 44.6068 30.4946 43.0183Z" fill="url(#paint1_linear_1005_51)"/>
<defs>
<linearGradient id="paint0_linear_1005_51" x1="60.098" y1="23.0912" x2="42.1812" y2="-12.1129" gradientUnits="userSpaceOnUse">
<stop stop-color="#2AD454"/>
<stop offset="1" stop-color="#B3FF5A"/>
</linearGradient>
<linearGradient id="paint1_linear_1005_51" x1="46.4129" y1="37.9709" x2="34.4216" y2="15.5078" gradientUnits="userSpaceOnUse">
<stop stop-color="#2AD454"/>
<stop offset="1" stop-color="#B3FF5A"/>
</linearGradient>
</defs>
</svg>
