<svg width="64" height="64" viewBox="0 0 64 64" fill="none" xmlns="http://www.w3.org/2000/svg">
<path fill-rule="evenodd" clip-rule="evenodd" d="M31.4531 4H23.2635C22.9873 4 22.7635 4.22386 22.7635 4.5V12.6896V21.3792V29.5688C22.7635 29.845 22.5396 30.0688 22.2635 30.0688H16.044C15.5932 30.0688 15.3726 30.6185 15.6984 30.9302L23.1255 38.0344L31.1075 45.6693C31.3008 45.8542 31.6054 45.8542 31.7987 45.6693L39.7807 38.0344L47.2078 30.9302C47.5336 30.6185 47.313 30.0688 46.8622 30.0688H40.6428C40.3666 30.0688 40.1428 29.845 40.1428 29.5688V21.3793V12.6897V4.5C40.1428 4.22386 39.9189 4 39.6428 4H31.4531Z" fill="url(#paint0_linear_1005_498)"/>
<path fill-rule="evenodd" clip-rule="evenodd" d="M9.25 61.5C11.8014 61.5 14.0195 60.085 15.1671 58H25.4996C26.6472 60.085 28.8652 61.5 31.4167 61.5C34.3557 61.5 36.856 59.6217 37.7826 57H49.4705C49.8864 57.978 50.5663 58.8239 51.437 59.4411C52.4053 60.1274 53.5621 60.4973 54.749 60.5H54.7502C56.2751 60.5 57.7377 59.8942 58.8161 58.8158C59.8943 57.7375 60.5002 56.275 60.5002 54.75C60.5002 53.225 59.8943 51.7625 58.816 50.6841C57.7377 49.6058 56.2751 49 54.7502 49H54.749C53.5621 49.0027 52.4052 49.3726 51.4369 50.0589C50.5663 50.6761 49.8864 51.522 49.4705 52.5H37.7826C36.856 49.8783 34.3557 48 31.4167 48C28.8652 48 26.6472 49.415 25.4996 51.5H15.1671C14.0195 49.415 11.8014 48 9.25 48C5.52208 48 2.5 51.0221 2.5 54.75C2.5 58.4779 5.52208 61.5 9.25 61.5Z" fill="url(#paint1_linear_1005_498)"/>
<defs>
<linearGradient id="paint0_linear_1005_498" x1="31.4531" y1="45.808" x2="31.4531" y2="4" gradientUnits="userSpaceOnUse">
<stop stop-color="#02AA93"/>
<stop offset="1" stop-color="#67FF80"/>
</linearGradient>
<linearGradient id="paint1_linear_1005_498" x1="31.5001" y1="61.5" x2="31.5001" y2="48" gradientUnits="userSpaceOnUse">
<stop stop-color="#00B59C"/>
<stop offset="1" stop-color="#9CFFAC"/>
</linearGradient>
</defs>
</svg>
