<svg width="16" height="16" viewBox="0 0 16 16" fill="none" xmlns="http://www.w3.org/2000/svg">
<path fill-rule="evenodd" clip-rule="evenodd" d="M0.299871 6.04766L0.29994 5.93605L0.299871 5.82445C0.299371 5.28771 0.298957 4.84381 0.407771 4.456C0.681101 3.48187 1.44236 2.72062 2.41649 2.44729C2.59671 2.39672 2.78904 2.36974 2.99717 2.3554V1.21671C2.99717 0.719655 3.40011 0.316711 3.89717 0.316711C4.39422 0.316711 4.79717 0.719655 4.79717 1.21671V2.35548C5.00482 2.36985 5.19673 2.39682 5.37659 2.44729C6.35072 2.72062 7.11198 3.48187 7.38531 4.456C7.49412 4.84381 7.49371 5.2877 7.49321 5.82444V5.82445L7.49314 5.93605L7.49321 6.04766V6.04766C7.49371 6.5844 7.49412 7.0283 7.38531 7.4161C7.11198 8.39023 6.35072 9.15149 5.37659 9.42482C4.98878 9.53364 4.54488 9.53322 4.00815 9.53272L3.89654 9.53265L3.78493 9.53272C3.24819 9.53322 2.8043 9.53364 2.41649 9.42482C1.44236 9.15149 0.681101 8.39023 0.407771 7.4161C0.298957 7.0283 0.299371 6.5844 0.299871 6.04766ZM2.09994 5.93605C2.09994 6.64461 2.10838 6.81412 2.14084 6.92982C2.24452 7.29932 2.53327 7.58807 2.90277 7.69175C3.01848 7.72422 3.18799 7.73265 3.89654 7.73265C4.60509 7.73265 4.7746 7.72422 4.89031 7.69175C5.25981 7.58807 5.54856 7.29932 5.65224 6.92982C5.6847 6.81412 5.69314 6.64461 5.69314 5.93605C5.69314 5.2275 5.6847 5.05799 5.65224 4.94228C5.54856 4.57279 5.25981 4.28403 4.89031 4.18036C4.7746 4.14789 4.60509 4.13945 3.89654 4.13945C3.18799 4.13945 3.01848 4.14789 2.90277 4.18036C2.53327 4.28403 2.24452 4.57279 2.14084 4.94228C2.10838 5.05799 2.09994 5.2275 2.09994 5.93605ZM11.087 14.7001C11.087 15.1972 11.49 15.6001 11.987 15.6001C12.4841 15.6001 12.887 15.1972 12.887 14.7001V13.5615C13.0946 13.5472 13.2865 13.5202 13.4664 13.4697C14.4405 13.1964 15.2018 12.4351 15.4751 11.461C15.5839 11.0732 15.5835 10.6293 15.583 10.0926V10.0926L15.5829 9.98095L15.583 9.86935V9.86934C15.5835 9.3326 15.5839 8.88871 15.4751 8.5009C15.2018 7.52677 14.4405 6.76551 13.4664 6.49218C13.0786 6.38337 12.6347 6.38378 12.0979 6.38428H12.0979L11.9863 6.38435L11.8747 6.38428H11.8747C11.338 6.38378 10.8941 6.38337 10.5063 6.49218C9.53216 6.76551 8.7709 7.52677 8.49757 8.5009C8.38875 8.88871 8.38917 9.3326 8.38967 9.86934V9.86935L8.38974 9.98095L8.38967 10.0926V10.0926C8.38917 10.6293 8.38875 11.0732 8.49757 11.461C8.7709 12.4351 9.53216 13.1964 10.5063 13.4697C10.6865 13.5203 10.8789 13.5473 11.087 13.5616V14.7001ZM11.987 6.16162C11.49 6.16162 11.087 5.75868 11.087 5.26162V1.21672C11.087 0.719666 11.49 0.316723 11.987 0.316723C12.4841 0.316723 12.887 0.719666 12.887 1.21672L12.887 5.26162C12.887 5.75868 12.4841 6.16162 11.987 6.16162ZM2.99717 14.7001C2.99717 15.1972 3.40011 15.6001 3.89717 15.6001C4.39422 15.6001 4.79717 15.1972 4.79717 14.7001V10.6552C4.79717 10.1581 4.39422 9.7552 3.89717 9.7552C3.40011 9.7552 2.99717 10.1581 2.99717 10.6552L2.99717 14.7001ZM10.2306 10.9747C10.1982 10.859 10.1897 10.6895 10.1897 9.98095C10.1897 9.2724 10.1982 9.10289 10.2306 8.98718C10.3343 8.61768 10.6231 8.32893 10.9926 8.22525C11.1083 8.19279 11.2778 8.18435 11.9863 8.18435C12.6949 8.18435 12.8644 8.19279 12.9801 8.22525C13.3496 8.32893 13.6384 8.61768 13.742 8.98718C13.7745 9.10289 13.7829 9.2724 13.7829 9.98095C13.7829 10.6895 13.7745 10.859 13.742 10.9747C13.6384 11.3442 13.3496 11.633 12.9801 11.7366C12.8644 11.7691 12.6949 11.7776 11.9863 11.7776C11.2778 11.7776 11.1083 11.7691 10.9926 11.7366C10.6231 11.633 10.3343 11.3442 10.2306 10.9747Z" fill="url(#paint0_linear_526_725)"/>
<defs>
<linearGradient id="paint0_linear_526_725" x1="0.562481" y1="1.00934" x2="15.2487" y2="14.9793" gradientUnits="userSpaceOnUse">
<stop stop-color="#D800BD"/>
<stop offset="0.408098" stop-color="#F92D7A"/>
<stop offset="0.590073" stop-color="#FF4A52"/>
<stop offset="1" stop-color="#FFB243"/>
</linearGradient>
</defs>
</svg>
