<svg width="128" height="128" viewBox="0 0 128 128" fill="none" xmlns="http://www.w3.org/2000/svg">
<path d="M59.5301 29.7998C54.8707 29.9029 50.3659 31.1027 46.3231 33.539C38.2375 38.4117 33.6508 47.2385 32.6922 57.3144C31.7337 67.3903 34.3344 78.7913 40.6493 89.2519C46.9242 99.6465 55.7203 107.208 64.9989 111.024C74.2775 114.841 84.1439 114.889 92.1786 110.047C100.213 105.205 104.794 96.4543 105.789 86.4492C106.784 76.444 104.256 65.112 98.0506 54.6758C91.8055 44.1731 82.9906 36.5123 73.6669 32.6299C69.005 30.6886 64.1895 29.6966 59.5301 29.7998ZM59.6463 33.3476C63.7434 33.2616 68.0396 34.144 72.2997 35.9179C80.8198 39.4658 89.1088 46.6066 94.9881 56.4941C100.83 66.3188 103.151 76.9482 102.241 86.0937C101.331 95.2393 97.2644 102.825 90.3397 106.998C83.415 111.171 74.8282 111.216 66.3524 107.729C57.8766 104.243 49.6121 97.1985 43.7049 87.4131C37.76 77.5651 35.3636 66.8698 36.2401 57.6562C37.1166 48.4426 41.1928 40.7877 48.162 36.5879C51.6465 34.4879 55.5493 33.4336 59.6463 33.3476Z" fill="#474747" stroke="url(#paint0_linear_718_29)" stroke-width="8" stroke-linejoin="round"/>
<path d="M17.4712 73.7514C17.4712 73.7514 7.24606 83.7142 8.04443 89.9367C9.14641 98.5189 19.7089 99.888 28.045 99.7886C48.2555 99.5515 120.238 75.4533 119.999 46.5445C119.924 37.1974 103.447 36.3713 103.447 36.9258C103.447 36.9258 115.666 40.0543 115.4 46.0741C114.407 68.5125 54.2837 93.7031 27.5826 94.3915C21.979 94.5369 14.1789 93.3054 11.9487 88.0582C9.95092 83.354 17.4712 73.7514 17.4712 73.7514Z" fill="#474747" stroke="url(#paint1_linear_718_29)" stroke-width="8" stroke-linejoin="round"/>
<path d="M95.6976 34.1183C95.6714 39.1451 93.656 43.9571 90.0922 47.5023C86.5284 51.0476 81.7059 53.0377 76.679 53.0377C71.6521 53.0377 66.8297 51.0476 63.2659 47.5023C59.702 43.9571 57.6867 39.1451 57.6604 34.1183C57.6473 31.6124 58.1296 29.1286 59.0795 26.8096C60.0294 24.4907 61.4282 22.3823 63.1955 20.6057C64.9629 18.8291 67.0639 17.4193 69.3779 16.4573C71.6918 15.4952 74.1731 15 76.679 15C79.185 15 81.6662 15.4952 83.9802 16.4573C86.2941 17.4193 88.3952 18.8291 90.1625 20.6057C91.9298 22.3823 93.3287 24.4907 94.2786 26.8096C95.2285 29.1286 95.7107 31.6124 95.6976 34.1183Z" fill="url(#paint2_linear_718_29)"/>
<path d="M61.8867 95.3017C61.8867 99.2249 60.3282 102.987 57.5541 105.762C54.7799 108.536 51.0174 110.094 47.0942 110.094C43.171 110.094 39.4085 108.536 36.6344 105.762C33.8602 102.987 32.3018 99.2249 32.3018 95.3017C32.3018 91.3785 33.8602 87.616 36.6344 84.8419C39.4085 82.0678 43.171 80.5093 47.0942 80.5093C51.0174 80.5093 54.7799 82.0678 57.5541 84.8419C60.3282 87.616 61.8867 91.3785 61.8867 95.3017Z" fill="url(#paint3_linear_718_29)"/>
<defs>
<linearGradient id="paint0_linear_718_29" x1="52.4797" y1="63.0767" x2="103.107" y2="57.1658" gradientUnits="userSpaceOnUse">
<stop stop-color="#0357D1"/>
<stop offset="1" stop-color="#27CDFC"/>
</linearGradient>
<linearGradient id="paint1_linear_718_29" x1="38.4466" y1="61.7568" x2="112.479" y2="44.1954" gradientUnits="userSpaceOnUse">
<stop stop-color="#0357D1"/>
<stop offset="1" stop-color="#27CDFC"/>
</linearGradient>
<linearGradient id="paint2_linear_718_29" x1="75.1609" y1="15.7646" x2="79.8706" y2="51.4403" gradientUnits="userSpaceOnUse">
<stop stop-color="#F70FA8"/>
<stop offset="1" stop-color="#F40631"/>
</linearGradient>
<linearGradient id="paint3_linear_718_29" x1="37.664" y1="106.602" x2="64.3426" y2="83.324" gradientUnits="userSpaceOnUse">
<stop stop-color="#FE0844"/>
<stop offset="1" stop-color="#FEB302"/>
</linearGradient>
</defs>
</svg>
