<svg width="64" height="64" viewBox="0 0 64 64" fill="none" xmlns="http://www.w3.org/2000/svg">
<path d="M46.8518 26.1667C47.7801 26.1667 48.6703 25.7979 49.3267 25.1415C49.9831 24.4852 50.3518 23.5949 50.3518 22.6667V21.0637C50.3475 17.7771 49.04 14.6264 46.7161 12.3024C44.3921 9.97848 41.2414 8.67099 37.9548 8.66667H36.1852C35.6329 8.66667 35.1852 8.21895 35.1852 7.66667V7.5C35.1852 6.57174 34.8164 5.6815 34.16 5.02513C33.5037 4.36875 32.6134 4 31.6852 4C30.7569 4 29.8667 4.36875 29.2103 5.02513C28.5539 5.6815 28.1852 6.57174 28.1852 7.5V7.66667C28.1852 8.21895 27.7375 8.66667 27.1852 8.66667H25.4155C22.4393 8.66223 19.5608 9.72866 17.3059 11.6711C15.051 13.6136 13.5702 16.3025 13.1339 19.2466C12.6977 22.1907 13.3352 25.1934 14.9299 27.7063C16.5247 30.2192 18.9702 32.0745 21.8198 32.9333L27.4489 34.4727C27.8837 34.5916 28.1852 34.9866 28.1852 35.4373V47.3333C28.1852 47.8856 27.7375 48.3333 27.1852 48.3333H25.4155C23.9847 48.3315 22.613 47.7623 21.6013 46.7505C20.5896 45.7388 20.0204 44.3671 20.0185 42.9363V41.3333C20.0185 40.4051 19.6498 39.5148 18.9934 38.8585C18.337 38.2021 17.4468 37.8333 16.5185 37.8333C15.5902 37.8333 14.7 38.2021 14.0436 38.8585C13.3873 39.5148 13.0185 40.4051 13.0185 41.3333V42.9363C13.0228 46.2229 14.3303 49.3736 16.6543 51.6976C18.9782 54.0215 22.1289 55.329 25.4155 55.3333H27.1852C27.7375 55.3333 28.1852 55.781 28.1852 56.3333V56.5C28.1852 57.4283 28.5539 58.3185 29.2103 58.9749C29.8667 59.6312 30.7569 60 31.6852 60C32.6134 60 33.5037 59.6312 34.16 58.9749C34.8164 58.3185 35.1852 57.4283 35.1852 56.5V56.3333C35.1852 55.781 35.6329 55.3333 36.1852 55.3333H37.9548C40.9311 55.3378 43.8095 54.2713 46.0644 52.3288C48.3194 50.3864 49.8002 47.6975 50.2364 44.7534C50.6727 41.8093 50.0352 38.8066 48.4404 36.2937C46.8457 33.7808 44.4001 31.9255 41.5505 31.0667L35.9221 29.5316C35.487 29.413 35.1852 29.0178 35.1852 28.5669V16.6667C35.1852 16.1144 35.6329 15.6667 36.1852 15.6667H37.9548C39.3856 15.6685 40.7573 16.2377 41.769 17.2495C42.7808 18.2612 43.35 19.6329 43.3518 21.0637V22.6667C43.3518 23.5949 43.7206 24.4852 44.377 25.1415C45.0333 25.7979 45.9236 26.1667 46.8518 26.1667ZM39.5765 37.7843C40.8074 38.1722 41.8587 38.9883 42.5399 40.0845C43.221 41.1808 43.4869 42.4847 43.2894 43.7602C43.0919 45.0356 42.4441 46.1981 41.4634 47.037C40.4826 47.876 39.2338 48.3358 37.9432 48.3333H36.1852C35.6329 48.3333 35.1852 47.8856 35.1852 47.3333V37.8947C35.1852 37.2352 35.8124 36.7563 36.4486 36.9301L39.5765 37.7843ZM28.1852 26.1053C28.1852 26.7648 27.5579 27.2437 26.9217 27.0699L23.7938 26.2157C22.5639 25.828 21.5132 25.013 20.8321 23.918C20.1509 22.8229 19.8841 21.5203 20.0801 20.2456C20.276 18.971 20.9217 17.8086 21.9003 16.9687C22.879 16.1288 24.1259 15.667 25.4155 15.6667H27.1852C27.7375 15.6667 28.1852 16.1144 28.1852 16.6667V26.1053Z" fill="url(#paint0_linear_906_20)"/>
<defs>
<linearGradient id="paint0_linear_906_20" x1="31.6851" y1="60" x2="31.6851" y2="4" gradientUnits="userSpaceOnUse">
<stop stop-color="#02AA93"/>
<stop offset="1" stop-color="#67FF80"/>
</linearGradient>
</defs>
</svg>
