<svg width="16" height="16" viewBox="0 0 16 16" fill="none" xmlns="http://www.w3.org/2000/svg">
<path d="M7.5 3H11.5C12.2957 3 13.0587 3.31607 13.6213 3.87868C14.1839 4.44129 14.5 5.20435 14.5 6V10C14.5 10.7957 14.1839 11.5587 13.6213 12.1213C13.0587 12.6839 12.2957 13 11.5 13H7.5C6.70435 13 5.94129 12.6839 5.37868 12.1213C4.81607 11.5587 4.5 10.7957 4.5 10V6C4.5 5.20435 4.81607 4.44129 5.37868 3.87868C5.94129 3.31607 6.70435 3 7.5 3Z" stroke="url(#paint0_linear_652_92)" stroke-width="1.8"/>
<path d="M2.64307 12.5943L8.8931 8.84428C9.2696 8.61838 9.50002 8.21153 9.50002 7.77246C9.50002 7.33336 9.2696 6.92653 8.8931 6.70061L2.64307 2.95061C2.25702 2.71896 1.7761 2.71278 1.38408 2.93468C0.992245 3.15651 0.75 3.57211 0.75 4.02246V11.5225C0.75 11.9728 0.992243 12.3884 1.38415 12.6102C1.57535 12.7185 1.78776 12.7725 1.99999 12.7725C2.22274 12.7725 2.44534 12.713 2.64307 12.5943Z" fill="url(#paint1_linear_652_92)"/>
<defs>
<linearGradient id="paint0_linear_652_92" x1="5" y1="7.5" x2="14.5" y2="8" gradientUnits="userSpaceOnUse">
<stop stop-color="#18AEFA"/>
<stop offset="1" stop-color="#83E1FF"/>
</linearGradient>
<linearGradient id="paint1_linear_652_92" x1="0.5" y1="7.5" x2="9" y2="7.5" gradientUnits="userSpaceOnUse">
<stop stop-color="#18AEFA"/>
<stop offset="1" stop-color="#83E1FF"/>
</linearGradient>
</defs>
</svg>
