<svg width="16" height="16" viewBox="0 0 16 16" fill="none" xmlns="http://www.w3.org/2000/svg">
<path d="M6.2347 5.87029L6.97839 6.37717L6.2347 5.87029ZM8.94753 6.18626L9.41924 5.41979L9.41924 5.41979L8.94753 6.18626ZM7.09987 5.33784L6.99966 4.44344L7.09987 5.33784ZM7.09986 10.6625L6.99966 11.5569L7.09986 10.6625ZM6.2347 10.13L5.49102 10.6369L6.2347 10.13ZM10.5607 8.53261L9.73019 8.18574L9.73019 8.18574L10.5607 8.53261ZM10.5607 7.46772L9.73019 7.81459L10.5607 7.46772ZM13.7668 8.00016C13.7668 11.185 11.185 13.7668 8.00016 13.7668V15.5668C12.1791 15.5668 15.5668 12.1791 15.5668 8.00016H13.7668ZM8.00016 13.7668C4.81532 13.7668 2.2335 11.185 2.2335 8.00016H0.433496C0.433496 12.1791 3.82121 15.5668 8.00016 15.5668V13.7668ZM2.2335 8.00016C2.2335 4.81532 4.81532 2.2335 8.00016 2.2335V0.433496C3.82121 0.433496 0.433496 3.82121 0.433496 8.00016H2.2335ZM8.00016 2.2335C11.185 2.2335 13.7668 4.81532 13.7668 8.00016H15.5668C15.5668 3.82121 12.1791 0.433496 8.00016 0.433496V2.2335ZM6.90016 8.00016C6.90016 7.38825 6.90096 6.98787 6.92617 6.695C6.95198 6.39505 6.99531 6.35235 6.97839 6.37717L5.49102 5.3634C5.23956 5.73234 5.16561 6.15932 5.1328 6.54065C5.09937 6.92906 5.10016 7.42156 5.10016 8.00016L6.90016 8.00016ZM9.41924 5.41979C8.95141 5.13187 8.54581 4.88111 8.20686 4.71448C7.87414 4.55092 7.46104 4.39175 6.99966 4.44344L7.20007 6.23225C7.13553 6.23948 7.16265 6.20689 7.41275 6.32984C7.65662 6.44973 7.97643 6.6454 8.47582 6.95274L9.41924 5.41979ZM6.97839 6.37717C7.04244 6.28319 7.12716 6.24041 7.20007 6.23225L6.99966 4.44344C6.38029 4.51283 5.83611 4.85709 5.49102 5.3634L6.97839 6.37717ZM8.47582 9.04758C7.97643 9.35492 7.65662 9.5506 7.41275 9.67048C7.16265 9.79343 7.13553 9.76085 7.20007 9.76808L6.99966 11.5569C7.46104 11.6086 7.87414 11.4494 8.20686 11.2858C8.54581 11.1192 8.95141 10.8685 9.41924 10.5805L8.47582 9.04758ZM5.10016 8.00016C5.10016 8.57876 5.09937 9.07126 5.1328 9.45967C5.16561 9.84101 5.23956 10.268 5.49102 10.6369L6.97839 9.62315C6.99531 9.64798 6.95198 9.60528 6.92617 9.30533C6.90096 9.01246 6.90016 8.61208 6.90016 8.00016L5.10016 8.00016ZM7.20007 9.76808C7.12716 9.75991 7.04245 9.71713 6.97839 9.62315L5.49102 10.6369C5.83611 11.1432 6.38029 11.4875 6.99966 11.5569L7.20007 9.76808ZM9.41924 10.5805C9.88749 10.2924 10.2935 10.0436 10.5974 9.81475C10.9011 9.58598 11.2171 9.29615 11.3911 8.87948L9.73019 8.18574C9.74193 8.15763 9.73492 8.21091 9.51451 8.3769C9.29424 8.54279 8.97479 8.7405 8.47582 9.04758L9.41924 10.5805ZM8.47582 6.95274C8.97479 7.25983 9.29424 7.45753 9.51451 7.62342C9.73492 7.78942 9.74193 7.84269 9.73019 7.81459L11.3911 7.12085C11.2171 6.70417 10.9011 6.41435 10.5974 6.18557C10.2935 5.95669 9.88749 5.70796 9.41924 5.41979L8.47582 6.95274ZM11.3911 8.87948C11.6254 8.3186 11.6254 7.68173 11.3911 7.12085L9.73019 7.81459C9.77904 7.93156 9.77904 8.06877 9.73019 8.18574L11.3911 8.87948Z" fill="url(#paint0_linear_536_856)"/>
<defs>
<linearGradient id="paint0_linear_536_856" x1="4.66683" y1="13.7144" x2="13.4904" y2="3.42033" gradientUnits="userSpaceOnUse">
<stop stop-color="#A056FF"/>
<stop offset="1" stop-color="#C59AFD"/>
</linearGradient>
</defs>
</svg>
