<svg width="64" height="64" viewBox="0 0 64 64" fill="none" xmlns="http://www.w3.org/2000/svg">
<path opacity="0.5" d="M38.1489 13.2515L23.2041 18.546C22.3511 18.8453 21.6047 19.3885 21.0575 20.108C20.5103 20.8276 20.1863 21.692 20.1258 22.5939V42.9719C20.0693 43.6489 19.8419 44.3005 19.4651 44.8658C19.0882 45.431 18.5742 45.8915 17.971 46.2041L11.322 49.2823C10.9901 49.3915 10.6371 49.4207 10.2917 49.3675C9.94637 49.3142 9.6185 49.1801 9.33488 48.976C9.05125 48.7719 8.81989 48.5036 8.6597 48.1931C8.4995 47.8826 8.415 47.5385 8.41309 47.1891V17.7303C8.72796 16.663 9.25949 15.672 9.9745 14.8193C10.6895 13.9666 11.5726 13.2704 12.5687 12.7743L31.2845 2.21595C34.9476 1.43099 37.7026 2.77003 38.1489 6.49471V13.2515Z" fill="url(#paint0_linear_349_97)"/>
<path d="M34.6858 2.16943C35.6532 2.41868 36.5137 2.97495 37.1381 3.75477C37.7625 4.53458 38.1171 5.49587 38.1488 6.49437V56.639C38.1046 57.6011 37.8419 58.5404 37.3805 59.3858C36.9192 60.2312 36.2713 60.9604 35.4861 61.518L52.201 56.7775C53.0096 56.3436 53.7249 55.7546 54.3059 55.0442C54.8868 54.3338 55.3222 53.5159 55.5871 52.6373V12.2199C55.5986 11.0688 55.22 9.94777 54.5129 9.03941C53.8057 8.13106 52.8118 7.48896 51.6931 7.21776L34.6858 2.16943Z" fill="url(#paint1_linear_349_97)"/>
<path opacity="0.5" d="M29.699 60.795C32.3924 62.0879 33.2543 62.3341 35.4707 61.5646C36.2614 61.0005 36.9134 60.264 37.3774 59.4107C37.8414 58.5574 38.1052 57.6097 38.1487 56.6394V49.0977H19.9563C17.4783 49.9442 16.0008 52.5915 18.7712 54.5769L29.699 60.795Z" fill="url(#paint2_linear_349_97)"/>
<defs>
<linearGradient id="paint0_linear_349_97" x1="10.4833" y1="64.0557" x2="38.2726" y2="9.65842" gradientUnits="userSpaceOnUse">
<stop stop-color="#FE3661"/>
<stop offset="0.330956" stop-color="#C723C7"/>
<stop offset="0.549719" stop-color="#AA35D6"/>
<stop offset="1" stop-color="#1EA3FD"/>
</linearGradient>
<linearGradient id="paint1_linear_349_97" x1="36.141" y1="79.879" x2="78.8995" y2="32.8974" gradientUnits="userSpaceOnUse">
<stop stop-color="#FE3661"/>
<stop offset="0.330956" stop-color="#C723C7"/>
<stop offset="0.549719" stop-color="#AA35D6"/>
<stop offset="1" stop-color="#1EA3FD"/>
</linearGradient>
<linearGradient id="paint2_linear_349_97" x1="18.7281" y1="65.9919" x2="22.2882" y2="48.0231" gradientUnits="userSpaceOnUse">
<stop stop-color="#FE3661"/>
<stop offset="0.330956" stop-color="#C723C7"/>
<stop offset="0.549719" stop-color="#AA35D6"/>
<stop offset="1" stop-color="#1EA3FD"/>
</linearGradient>
</defs>
</svg>
