<svg width="16" height="16" viewBox="0 0 16 16" fill="none" xmlns="http://www.w3.org/2000/svg">
<path fill-rule="evenodd" clip-rule="evenodd" d="M10.2187 0.897787C8.69445 0.450323 7.06626 0.508595 5.57789 1.06388C4.25887 1.55598 2.84618 2.32118 1.93105 3.62646C1.8928 3.68102 1.83069 3.71445 1.76406 3.71445H1.69752C1.31362 3.71445 0.945433 3.86696 0.67397 4.13842C0.402507 4.40989 0.25 4.77807 0.25 5.16198V10.7422C0.25 11.1261 0.402506 11.4943 0.67397 11.7657C0.945435 12.0372 1.31362 12.1897 1.69752 12.1897H1.76412C1.83076 12.1897 1.89286 12.2231 1.93111 12.2777C2.84619 13.5829 4.25876 14.3484 5.57789 14.8405C7.06626 15.3958 8.69445 15.4541 10.2187 15.0066C11.743 14.5592 13.0813 13.63 14.0333 12.3583C14.9854 11.0866 15.4999 9.54078 15.4999 7.9522C15.4999 6.36362 14.9854 4.81777 14.0333 3.54607C13.0813 2.27438 11.743 1.34525 10.2187 0.897787ZM4.95489 12.1897C4.76195 12.1897 4.68834 12.4256 4.85464 12.5234C5.26597 12.7654 5.72206 12.9731 6.20708 13.1541C7.33105 13.5734 8.56062 13.6174 9.7117 13.2795C10.8628 12.9416 11.8734 12.2399 12.5924 11.2796C13.3113 10.3192 13.6999 9.15185 13.6999 7.9522C13.6999 6.75255 13.3113 5.58517 12.5924 4.62482C11.8734 3.66447 10.8628 2.96282 9.7117 2.6249C8.56062 2.28699 7.33106 2.331 6.20708 2.75033C5.72212 2.93126 5.26612 3.13887 4.85486 3.38074C4.68854 3.47856 4.76213 3.71445 4.95509 3.71445H7.27772C7.66163 3.71445 8.02981 3.86696 8.30128 4.13842C8.57274 4.40989 8.72525 4.77807 8.72525 5.16198V10.7422C8.72525 11.1261 8.57274 11.4943 8.30128 11.7657C8.02981 12.0372 7.66163 12.1897 7.27772 12.1897H4.95489ZM1.95 5.21445C1.83954 5.21445 1.75 5.304 1.75 5.41445V10.4897C1.75 10.6002 1.83954 10.6897 1.95 10.6897H7.02525C7.1357 10.6897 7.22525 10.6002 7.22525 10.4897V5.41445C7.22525 5.304 7.1357 5.21445 7.02525 5.21445H1.95ZM2.54844 6.06895C2.54844 5.73757 2.81707 5.46895 3.14844 5.46895H4.43886C4.44926 5.46895 4.45965 5.46922 4.47004 5.46976C4.95375 5.49493 5.40934 5.70481 5.74282 6.05609C6.0763 6.40737 6.26222 6.87326 6.26222 7.35762C6.26222 7.84198 6.0763 8.30787 5.74282 8.65915C5.40934 9.01044 4.95375 9.22031 4.47004 9.24549C4.45965 9.24603 4.44926 9.2463 4.43886 9.2463H3.94844C3.83798 9.2463 3.74844 9.33584 3.74844 9.4463V9.90533C3.74844 10.2367 3.47981 10.5053 3.14844 10.5053C2.81707 10.5053 2.54844 10.2367 2.54844 9.90533V8.6463V6.06895ZM3.74844 7.8463C3.74844 7.95676 3.83798 8.0463 3.94844 8.0463H4.42084C4.59258 8.03407 4.75376 7.95807 4.87252 7.83297C4.99431 7.70467 5.06222 7.53452 5.06222 7.35762C5.06222 7.18072 4.99431 7.01057 4.87252 6.88228C4.75376 6.75717 4.59258 6.68117 4.42084 6.66895H3.94844C3.83798 6.66895 3.74844 6.75849 3.74844 6.86895V7.8463Z" fill="url(#paint0_linear_656_91)"/>
<defs>
<linearGradient id="paint0_linear_656_91" x1="0.25" y1="7.9522" x2="15.4999" y2="7.9522" gradientUnits="userSpaceOnUse">
<stop stop-color="#FFC152"/>
<stop offset="1" stop-color="#FF5F5F"/>
</linearGradient>
</defs>
</svg>
