<svg width="48" height="48" viewBox="0 0 48 48" fill="none" xmlns="http://www.w3.org/2000/svg">
<path d="M24 44C35.0457 44 44 35.0457 44 24C44 12.9543 35.0457 4 24 4C12.9543 4 4 12.9543 4 24C4 35.0457 12.9543 44 24 44Z" stroke="url(#paint0_linear_1005_70)" stroke-width="5"/>
<path d="M32.2153 15.5283L24.2623 23.4823C24.1213 23.6233 23.9043 23.6233 23.7633 23.4823L15.7975 15.5283C15.5283 15.2601 15.1703 15.1062 14.7867 15.1062H12.7159C12.3195 15.1062 12 15.4267 12 15.8231V32.1768C12 32.5732 12.3195 32.8937 12.7159 32.8937H15.7335C16.1298 32.8937 16.4493 32.5732 16.4493 32.1768V22.8807C16.4493 22.8038 16.5391 22.7663 16.6032 22.8166L22.9961 29.2106C23.5464 29.7598 24.4536 29.7598 25.0039 29.2106L31.3968 22.8166C31.4481 22.7654 31.5507 22.8038 31.5507 22.8807V32.1768C31.5507 32.5732 31.8702 32.8937 32.2665 32.8937H35.2841C35.6805 32.8937 36 32.5732 36 32.1768V15.8231C36 15.4267 35.6805 15.1062 35.2841 15.1062H33.2133C32.8425 15.12 32.4845 15.2601 32.2153 15.5283Z" fill="url(#paint1_linear_1005_70)"/>
<defs>
<linearGradient id="paint0_linear_1005_70" x1="24" y1="44" x2="24" y2="4" gradientUnits="userSpaceOnUse">
<stop stop-color="#FD5900"/>
<stop offset="1" stop-color="#FFDE00"/>
</linearGradient>
<linearGradient id="paint1_linear_1005_70" x1="24" y1="32.8937" x2="24" y2="15.1062" gradientUnits="userSpaceOnUse">
<stop stop-color="#FD5900"/>
<stop offset="1" stop-color="#FFDE00"/>
</linearGradient>
</defs>
</svg>
