<svg width="16" height="16" viewBox="0 0 16 16" fill="none" xmlns="http://www.w3.org/2000/svg">
<path d="M14.4993 10.5748C15.087 8.418 14.5359 6.14525 13.0216 4.48734C13.1131 4.28465 13.1504 4.06155 13.1206 3.83602C13.0781 3.51339 12.9116 3.22644 12.6508 3.02824C9.97429 0.99098 6.10273 0.990195 3.42703 3.02824C2.98645 3.36309 2.81661 3.95679 3.05626 4.48717C1.55489 6.13129 0.999905 8.38401 1.56594 10.5261C1.09323 10.827 0.87382 11.421 1.07415 11.9649L1.63531 13.4905C1.86751 14.1209 2.57106 14.4494 3.21229 14.2181L3.67384 14.052C3.78874 14.1896 3.92559 14.3078 4.09393 14.3854C4.38421 14.519 4.71811 14.5401 5.03481 14.4259C5.34365 14.3145 5.58999 14.091 5.72899 13.7965C5.86798 13.5016 5.88239 13.171 5.76984 12.8654L4.6479 9.81426C4.53535 9.50867 4.30943 9.26452 4.01143 9.12699C3.71343 8.98986 3.37936 8.97479 3.07091 9.08657C2.76209 9.19794 2.51536 9.42149 2.37636 9.71599C2.32961 9.81526 2.30221 9.91916 2.28375 10.0242C1.91589 8.25486 2.40883 6.4313 3.62795 5.07081C4.11545 5.31358 4.59071 5.21586 4.92749 4.95855C6.72035 3.5927 9.35742 3.5927 11.1503 4.95855C11.5242 5.24344 12.0388 5.26671 12.4494 5.07043C13.7207 6.4881 14.1972 8.4059 13.7396 10.242L13.7358 10.2406C13.7374 10.0617 13.7033 9.88313 13.6245 9.71601C13.4855 9.42151 13.2388 9.19796 12.93 9.0866C12.6211 8.97601 12.2871 8.98989 11.9891 9.12702C11.6915 9.26455 11.4655 9.5087 11.353 9.81429L10.2306 12.8654C10.1181 13.171 10.1325 13.5016 10.2715 13.7965C10.4834 14.2455 10.932 14.5 11.3875 14.5C11.5649 14.5 11.7415 14.4615 11.907 14.3855C12.0751 14.3077 12.2118 14.1896 12.3267 14.052L12.7882 14.2183C13.4197 14.446 14.1302 14.1305 14.3651 13.4905L14.9264 11.9649C15.1169 11.4476 14.9249 10.8876 14.4993 10.5748ZM3.35171 9.84914C3.56765 9.7723 3.80005 9.88291 3.87725 10.0917L4.99919 13.1429C5.07584 13.3525 4.96875 13.5855 4.75405 13.6632C4.75405 13.6632 4.75405 13.6632 4.75364 13.6632C4.53395 13.7417 4.30399 13.626 4.2281 13.4207L3.10616 10.3695C3.02914 10.1589 3.1375 9.92636 3.35171 9.84914ZM2.47571 11.0283L3.31726 13.3169L2.93193 13.4556C2.71924 13.5309 2.48331 13.4231 2.40601 13.213L1.84485 11.6874C1.7682 11.4778 1.87529 11.2447 2.08999 11.167L2.47571 11.0283ZM12.2254 4.24111C12.092 4.41274 11.8252 4.4484 11.6502 4.31484C9.56371 2.72546 6.51489 2.72546 4.42679 4.31563C4.24503 4.45384 3.98835 4.41618 3.85239 4.24111C3.71275 4.06155 3.74923 3.80708 3.9269 3.67195C5.11814 2.76508 6.57266 2.31168 7.99983 2.31168C9.42699 2.31168 10.9596 2.7651 12.1509 3.67195C12.3288 3.80724 12.3649 4.0618 12.2254 4.24111ZM11.7724 13.4207C11.6943 13.6317 11.4604 13.739 11.2464 13.6632C11.0315 13.5855 10.9247 13.3522 11.0013 13.1429L12.1236 10.0917C12.2001 9.88491 12.4303 9.77179 12.6495 9.84914C12.8645 9.92692 12.9712 10.1602 12.8947 10.3695L11.7724 13.4207ZM14.1556 11.6874L13.5941 13.213C13.5171 13.4235 13.2846 13.5314 13.069 13.4556L12.6836 13.3169L13.5251 11.0283L13.8938 11.161C13.8956 11.1617 13.8969 11.1632 13.8989 11.1638C13.9005 11.1644 13.9023 11.1641 13.9039 11.1646L13.9105 11.167C14.1255 11.2448 14.2323 11.478 14.1556 11.6874Z" fill="url(#paint0_linear_596_234)" stroke="url(#paint1_linear_596_234)"/>
<defs>
<linearGradient id="paint0_linear_596_234" x1="8.00001" y1="14.5" x2="8.00001" y2="1.5" gradientUnits="userSpaceOnUse">
<stop stop-color="#A93AFF"/>
<stop offset="1" stop-color="#FF81FF"/>
</linearGradient>
<linearGradient id="paint1_linear_596_234" x1="8.00001" y1="14.5" x2="8.00001" y2="1.5" gradientUnits="userSpaceOnUse">
<stop stop-color="#A93AFF"/>
<stop offset="1" stop-color="#FF81FF"/>
</linearGradient>
</defs>
</svg>
