<svg width="128" height="128" viewBox="0 0 128 128" fill="none" xmlns="http://www.w3.org/2000/svg">
<path d="M52.8226 8.00014C52.8074 8.00014 52.7932 8.00006 52.778 8.00002C52.3532 7.9989 45.8021 8.03721 39.0951 11.3908C32.1594 14.8586 24.7998 22.9335 24.7998 36.0001V71.2001C24.7998 73.4093 26.5907 75.2001 28.7998 75.2001H31.9998C34.2089 75.2001 35.9998 73.4093 35.9998 71.2001V36.0001C35.9998 26.6668 39.8402 23.5417 44.1045 21.4095V21.4095C45.5584 20.6826 47.1998 22.0507 47.1998 23.6763V36.0001C47.1998 43.4668 51.7594 48.7417 55.8951 50.8095C59.6977 52.7108 63.3595 52.7987 63.9246 52.8005C63.9765 52.8007 64.0231 52.8007 64.075 52.8005C64.6401 52.7987 68.3019 52.7109 72.1045 50.8095C76.2402 48.7417 80.7998 43.4668 80.7998 36.0001V23.6763C80.7998 22.0507 82.4412 20.6826 83.8951 21.4095V21.4095C88.1594 23.5417 91.9998 26.6668 91.9998 36.0001V71.2001C91.9998 73.4093 93.7907 75.2001 95.9998 75.2001H99.1998C101.409 75.2001 103.2 73.4093 103.2 71.2001V36.0001C103.2 22.9335 95.8402 14.8586 88.9045 11.3908C82.1974 8.03723 75.6463 7.9989 75.2216 8.00002C75.2064 8.00006 75.1922 8.00014 75.177 8.00014H73.5998C71.3907 8.00014 69.5998 9.791 69.5998 12.0001V36.0001C69.5998 39.7335 68.5594 40.0586 67.0951 40.7908C65.9292 41.3737 64.6576 41.5415 64.1878 41.5856C64.0621 41.5974 63.9375 41.5974 63.8118 41.5856C63.342 41.5415 62.0704 41.3737 60.9045 40.7908C59.4402 40.0586 58.3998 39.7335 58.3998 36.0001V12.0001C58.3998 9.791 56.6089 8.00014 54.3998 8.00014H52.8226Z" fill="url(#paint0_linear_719_48)"/>
<path d="M36 68C36 65.7909 34.1989 63.97 32.0119 64.2819C18.4369 66.2177 8 77.89 8 92C8 106.11 18.4369 117.782 32.0119 119.718C34.1989 120.03 36 118.209 36 116V68ZM95.9881 64.2819C93.8011 63.97 92 65.7909 92 68V110.4C92 112.609 90.2091 114.4 88 114.4H83.1467C81.7508 114.4 80.8 112.996 80.8 111.6V111.6V106C80.8 101.346 77.0536 97.6 72.4 97.6H55.6C50.9464 97.6 47.2 101.346 47.2 106V111.6C47.2 116.254 50.9464 120 55.6 120H72.4H92C107.464 120 120 107.464 120 92C120 77.89 109.563 66.2177 95.9881 64.2819Z" fill="url(#paint1_linear_719_48)"/>
<defs>
<linearGradient id="paint0_linear_719_48" x1="63.9998" y1="8" x2="63.9998" y2="75.2001" gradientUnits="userSpaceOnUse">
<stop offset="0.119792" stop-color="#7730F6"/>
<stop offset="0.84375" stop-color="#39D9FD"/>
</linearGradient>
<linearGradient id="paint1_linear_719_48" x1="64" y1="120" x2="64" y2="64" gradientUnits="userSpaceOnUse">
<stop stop-color="#5570FF"/>
<stop offset="1" stop-color="#4DD3FF"/>
</linearGradient>
</defs>
</svg>
