<svg width="16" height="16" viewBox="0 0 16 16" fill="none" xmlns="http://www.w3.org/2000/svg">
<path d="M15 10.1V5.9C15 2.4 13.6 1 10.1 1H5.9C2.4 1 1 2.4 1 5.9V10.1C1 13.6 2.4 15 5.9 15H10.1C13.6 15 15 13.6 15 10.1Z" stroke="url(#paint0_linear_553_109)" stroke-width="1.8" stroke-linecap="round" stroke-linejoin="round"/>
<path fill-rule="evenodd" clip-rule="evenodd" d="M11.948 4.9177C11.948 4.22425 11.7222 3.60033 11.1487 3.266C10.6332 2.96552 10.0465 3.03126 9.62726 3.14724L9.6261 3.14756L7.01808 3.86186C7.01808 3.86186 7.01807 3.86185 7.01807 3.86185C7.01807 3.86185 7.01807 3.86184 7.01806 3.86185L7.0135 3.86313C6.24017 4.0802 5.66814 4.73172 5.66814 5.63264V6.54703V7.02666C5.66814 7.03668 5.66734 7.04668 5.66604 7.05662C5.65778 7.11974 5.65752 7.1846 5.66604 7.24984C5.66734 7.25976 5.66814 7.26974 5.66814 7.27974V8.65245C5.66814 8.78522 5.54079 8.88103 5.40946 8.86152C5.31009 8.84676 5.2084 8.83911 5.10493 8.83911C3.96992 8.83911 3.0498 9.75922 3.0498 10.8942C3.0498 12.0292 3.96992 12.9494 5.10493 12.9494C6.18893 12.9494 7.07692 12.1101 7.15454 11.0459C7.16346 10.9996 7.16814 10.9518 7.16814 10.903V7.87709C7.16814 7.78689 7.22852 7.70785 7.31554 7.68413L10.1954 6.89916C10.3226 6.86448 10.448 6.96026 10.448 7.09212V7.77868C10.448 7.9111 10.3213 8.00683 10.1902 7.98784C10.0932 7.97378 9.99394 7.9665 9.89299 7.9665C8.75798 7.9665 7.83787 8.88662 7.83787 10.0216C7.83787 11.1566 8.75798 12.0767 9.89299 12.0767C11.028 12.0767 11.9481 11.1566 11.9481 10.0216L11.948 10.0022V5.87026C11.9484 5.85609 11.9484 5.84187 11.948 5.82759V4.9177ZM10.3006 5.31576C10.3876 5.29204 10.448 5.213 10.448 5.1228V4.9177C10.448 4.71935 10.4164 4.61866 10.3981 4.57832C10.3926 4.56635 10.3819 4.55778 10.369 4.55533C10.3561 4.55288 10.3376 4.55058 10.3124 4.54993C10.244 4.54817 10.1479 4.5595 10.0267 4.59309L10.0245 4.59369L7.41706 5.30783C7.3153 5.33674 7.25867 5.38224 7.22814 5.42092C7.1999 5.45669 7.16814 5.51853 7.16814 5.63264V5.90777C7.16814 6.03963 7.29351 6.13541 7.42073 6.10073L10.3006 5.31576ZM9.89299 9.4665C10.1962 9.4665 10.4427 9.70963 10.448 10.0116V10.0218L10.4481 10.0293C10.4439 10.3324 10.197 10.5767 9.89299 10.5767C9.58641 10.5767 9.33787 10.3282 9.33787 10.0216C9.33787 9.71504 9.58641 9.4665 9.89299 9.4665ZM10.3863 4.55676C10.3856 4.55589 10.3856 4.55584 10.3863 4.55676V4.55676ZM4.5498 10.8942C4.5498 10.5877 4.79834 10.3391 5.10493 10.3391C5.41151 10.3391 5.66005 10.5877 5.66005 10.8942C5.66005 11.2008 5.41151 11.4494 5.10493 11.4494C4.79834 11.4494 4.5498 11.2008 4.5498 10.8942Z" fill="url(#paint1_linear_553_109)"/>
<defs>
<linearGradient id="paint0_linear_553_109" x1="8" y1="15" x2="8" y2="1" gradientUnits="userSpaceOnUse">
<stop stop-color="#5570FF"/>
<stop offset="1" stop-color="#4DD3FF"/>
</linearGradient>
<linearGradient id="paint1_linear_553_109" x1="7.49906" y1="12.9494" x2="7.49906" y2="3.0498" gradientUnits="userSpaceOnUse">
<stop stop-color="#5570FF"/>
<stop offset="1" stop-color="#4DD3FF"/>
</linearGradient>
</defs>
</svg>
