<svg width="16" height="16" viewBox="0 0 16 16" fill="none" xmlns="http://www.w3.org/2000/svg">
<path d="M14.2771 10.2276C12.3951 11.5665 9.92648 11.7152 7.91819 10.6668M1.72313 5.77276C3.60976 4.4306 6.08579 4.28441 8.09671 5.34116M10.2493 9.41639C12.1738 8.2035 13.2881 5.98292 13.0675 3.67498M5.72139 6.60264C3.81504 7.81956 2.71322 10.0292 2.93268 12.3254M10.3514 6.75819C10.2628 4.48584 8.89681 2.41139 6.78823 1.44831M5.65058 9.28392C5.75424 11.5399 7.11635 13.5948 9.212 14.552M12.7142 3.28612C15.3177 5.88962 15.3177 10.1107 12.7142 12.7142C10.1107 15.3177 5.8896 15.3177 3.28612 12.7142C0.682622 10.1107 0.682622 5.8896 3.28612 3.28612C5.88962 0.682622 10.1107 0.682622 12.7142 3.28612ZM9.88578 6.11454C10.9272 7.15594 10.9272 8.84439 9.88578 9.88578C8.84439 10.9272 7.15594 10.9272 6.11454 9.88578C5.07315 8.84439 5.07315 7.15594 6.11454 6.11454C7.15594 5.07315 8.84439 5.07315 9.88578 6.11454Z" stroke="url(#paint0_linear_600_153)" stroke-width="1.8" stroke-linecap="round" stroke-linejoin="round"/>
<defs>
<linearGradient id="paint0_linear_600_153" x1="8.00016" y1="14.6668" x2="8.00016" y2="2.11781" gradientUnits="userSpaceOnUse">
<stop stop-color="#18AEFA"/>
<stop offset="1" stop-color="#83E1FF"/>
</linearGradient>
</defs>
</svg>
