<svg width="16" height="17" viewBox="0 0 16 17" fill="none" xmlns="http://www.w3.org/2000/svg">
<path d="M14.9995 9V5C14.9995 3.11438 14.9995 2.17157 14.4137 1.58579C13.8279 1 12.8851 1 10.9995 1H4.99951C3.11389 1 2.17108 1 1.5853 1.58579C0.999512 2.17157 0.999512 3.11438 0.999512 5V6" stroke="url(#paint0_linear_563_450)" stroke-width="1.8"/>
<path fill-rule="evenodd" clip-rule="evenodd" d="M3.5923 3.21104L3.49736 3.21099C3.04085 3.21062 2.66375 3.21032 2.33092 3.28921C1.26389 3.5421 0.430767 4.37522 0.177877 5.44225C0.0989956 5.77508 0.0992951 6.15218 0.0996576 6.60869L0.0997076 6.70363V11.1107L0.0997057 11.1712C0.0996647 12.0624 0.0996298 12.8203 0.180956 13.4252C0.267597 14.0696 0.461113 14.6734 0.949098 15.1613C1.43708 15.6493 2.04081 15.8428 2.68524 15.9295C3.29013 16.0108 4.04807 16.0108 4.9392 16.0107H4.93921L4.99971 16.0107H10.9997L11.0602 16.0107H11.0602C11.9513 16.0108 12.7093 16.0108 13.3142 15.9295C13.9586 15.8428 14.5623 15.6493 15.0503 15.1613C15.5383 14.6734 15.7318 14.0696 15.8185 13.4252C15.8998 12.8203 15.8997 12.0624 15.8997 11.1712V11.1712L15.8997 11.1107V10.0002V9.22215L15.8997 9.17136L15.8997 9.07037V8.61073H15.8957C15.8907 8.39252 15.8796 8.18775 15.8551 8.00495C15.805 7.63284 15.6847 7.22018 15.3432 6.87864C15.0017 6.53711 14.589 6.41681 14.2169 6.36678C13.8838 6.32201 13.4779 6.32207 13.0505 6.32214L12.9997 6.32215H9.16638C8.15528 6.32215 7.93456 6.3022 7.7555 6.21836C7.73839 6.21035 7.72149 6.2019 7.70482 6.19302C7.53032 6.10008 7.38192 5.93546 6.77526 5.12659L6.38637 4.60807L6.35797 4.57017L6.35795 4.57015C6.21235 4.37583 6.09002 4.21257 5.94845 4.06972C5.50046 3.61765 4.91619 3.32552 4.28574 3.23836C4.08651 3.21081 3.88249 3.21091 3.63967 3.21102L3.5923 3.21104ZM14.0997 9.22215V10.0002V11.1107C14.0997 12.079 14.0978 12.7146 14.0345 13.1854C13.9747 13.6302 13.8753 13.7907 13.7775 13.8885C13.6797 13.9864 13.5192 14.0857 13.0743 14.1455C12.6036 14.2088 11.968 14.2107 10.9997 14.2107H4.99971C4.03146 14.2107 3.39581 14.2088 2.92509 14.1455C2.48026 14.0857 2.31969 13.9864 2.22189 13.8885L1.59609 14.5144L2.22189 13.8885C2.12409 13.7907 2.02471 13.6302 1.96491 13.1854C1.90162 12.7146 1.89971 12.079 1.89971 11.1107V6.70363C1.89971 6.1014 1.90582 5.95666 1.92936 5.85736C2.02528 5.45262 2.3413 5.13661 2.74603 5.04069C2.84533 5.01715 2.99007 5.01104 3.5923 5.01104C3.9069 5.01104 3.97869 5.01303 4.03924 5.0214C4.27837 5.05446 4.49999 5.16527 4.66992 5.33674C4.71295 5.38016 4.75761 5.43639 4.94637 5.68807L5.33526 6.20659L5.42576 6.32749C5.89014 6.94854 6.28448 7.47591 6.85863 7.78172C6.90259 7.80513 6.94714 7.82741 6.99225 7.84853C7.58139 8.12437 8.23989 8.12341 9.01536 8.12229L9.16638 8.12215H12.9997C13.4966 8.12215 13.7787 8.12406 13.9771 8.15073C14.0115 8.15536 14.0378 8.1601 14.0575 8.16435C14.0618 8.18407 14.0665 8.2104 14.0711 8.2448C14.0978 8.4432 14.0997 8.7253 14.0997 9.22215ZM14.104 8.17695C14.1067 8.17835 14.1083 8.17896 14.1084 8.17891C14.1085 8.17888 14.1082 8.17871 14.1075 8.17841C14.1068 8.17808 14.1057 8.17758 14.104 8.17695ZM14.0429 8.11344C14.0429 8.11356 14.0435 8.11516 14.0449 8.11787C14.044 8.1154 14.0433 8.11403 14.0431 8.11359C14.043 8.11346 14.043 8.11341 14.0429 8.11344ZM4.11055 10.211C3.61349 10.211 3.21055 10.614 3.21055 11.111C3.21055 11.6081 3.61349 12.011 4.11055 12.011H10.3328C10.8298 12.011 11.2328 11.6081 11.2328 11.111C11.2328 10.614 10.8298 10.211 10.3328 10.211H4.11055Z" fill="url(#paint1_linear_563_450)"/>
<defs>
<linearGradient id="paint0_linear_563_450" x1="7.99951" y1="9" x2="7.99951" y2="1" gradientUnits="userSpaceOnUse">
<stop stop-color="#5570FF"/>
<stop offset="1" stop-color="#4DD3FF"/>
</linearGradient>
<linearGradient id="paint1_linear_563_450" x1="7.99966" y1="16.0107" x2="7.99966" y2="3.21094" gradientUnits="userSpaceOnUse">
<stop stop-color="#5570FF"/>
<stop offset="1" stop-color="#4DD3FF"/>
</linearGradient>
</defs>
</svg>
