<svg width="48" height="48" viewBox="0 0 48 48" fill="none" xmlns="http://www.w3.org/2000/svg">
<path d="M14.2781 22.698C13.7796 22.5906 12.777 22.5162 12.3736 22.5782C12.0788 22.6236 9.77355 22.95 7.25205 23.3026C4.73055 23.6551 2.56159 23.9815 2.43352 24.0283C1.89231 24.2225 1.84687 24.8973 2.35915 25.1506C2.46932 25.2057 29.9483 33.0043 30.1411 32.9796C30.2361 32.9672 32.7948 31.7222 35.8259 30.2116C41.7833 27.2411 41.5767 27.3595 41.5767 26.934C41.5767 26.6434 41.8136 26.6999 38.8156 26.2675C38.0182 26.1518 14.588 22.7669 14.2781 22.698ZM9.90025 28.4557C9.80385 28.4764 7.91031 32.6518 7.84146 32.8239C7.67758 33.2398 8.21879 33.4987 8.68563 33.3541C8.79855 33.3197 13.5895 31.8393 13.7328 31.7539C14.0206 31.5859 14.3277 31.0309 14.6554 30.089C14.7505 29.8163 14.5618 29.6593 14.3594 29.6084C13.9352 29.5037 9.94294 28.4461 9.90025 28.4557ZM35.0877 31.9123C35.0877 31.7994 34.9541 31.6878 34.731 31.8159C34.6333 31.871 31.4411 33.6722 31.28 33.7714C30.4868 34.2589 30.1907 34.3043 29.8202 34.2286C29.3479 34.1322 28.3371 33.8334 28.2696 34.0275C28.2187 34.1694 26.4904 39.0664 26.4546 39.1793C26.2783 39.7247 27.0784 39.8018 27.5673 39.5801C28.0699 39.3515 33.4834 36.4595 33.858 36.2722C34.1196 36.1414 34.2325 35.815 34.3427 35.322C34.4033 35.0535 35.0877 31.9839 35.0877 31.9123Z" fill="url(#paint0_linear_1060_92)"/>
<path d="M17.053 10.0106C17.3325 9.9707 44.9685 8.00418 45.4271 8.00005C45.7025 7.99729 46.0413 8.11435 45.9959 8.35259C45.9477 8.59772 42.9056 24.9744 42.8299 25.0928C42.7335 25.2457 42.6908 25.2443 41.041 25.0253C40.318 24.9303 16.1882 21.7685 15.3109 21.6583C14.7036 21.5812 14.2285 21.1281 14.3001 20.7329C14.3414 20.5001 16.4126 11.2666 16.4539 11.0352C16.5476 10.5147 16.7335 10.0561 17.053 10.0106Z" fill="url(#paint1_linear_1060_92)"/>
<defs>
<linearGradient id="paint0_linear_1060_92" x1="21.7906" y1="39.6959" x2="21.7906" y2="22.5557" gradientUnits="userSpaceOnUse">
<stop stop-color="#5570FF"/>
<stop offset="1" stop-color="#4DD3FF"/>
</linearGradient>
<linearGradient id="paint1_linear_1060_92" x1="30.1465" y1="25.1997" x2="30.1465" y2="8" gradientUnits="userSpaceOnUse">
<stop stop-color="#5570FF"/>
<stop offset="1" stop-color="#4DD3FF"/>
</linearGradient>
</defs>
</svg>
