<svg width="64" height="64" viewBox="0 0 64 64" fill="none" xmlns="http://www.w3.org/2000/svg">
<path d="M56.6481 43.3183C57.2906 42.676 58.3321 42.676 58.9746 43.3183V43.3183C60.3384 44.6817 60.3384 46.8872 58.9947 48.2707L56.2269 51.0376C44.2933 62.9875 24.9188 62.9875 12.9652 51.0376C1.0116 39.1078 1.0116 19.7394 12.9652 7.78947L15.733 5.02256C17.0968 3.65915 19.303 3.65915 20.6669 5.02256V5.02256C21.3093 5.66475 21.3093 6.70617 20.6669 7.34837L16.4149 11.599C6.48699 21.5238 6.48699 37.6441 16.4149 47.5689C26.3428 57.4937 42.4682 57.4937 52.3961 47.5689L56.6481 43.3183Z" fill="url(#paint0_linear_449_700)" stroke="url(#paint1_linear_449_700)" stroke-width="2"/>
<path d="M28.137 15.138C28.137 14.3058 27.8062 13.5076 27.2176 12.9191C26.6289 12.3306 25.8305 12 24.998 12C24.1654 12 23.367 12.3306 22.7783 12.9191C22.1897 13.5076 21.859 14.3058 21.859 15.138C21.859 15.9703 22.1897 16.7684 22.7783 17.3569C23.367 17.9454 24.1654 18.276 24.998 18.276C25.8305 18.276 26.6289 17.9454 27.2176 17.3569C27.8062 16.7684 28.137 15.9703 28.137 15.138ZM21.139 34.254C21.9715 34.254 22.7699 33.9234 23.3586 33.3349C23.9473 32.7464 24.278 31.9483 24.278 31.116C24.278 30.2837 23.9473 29.4856 23.3586 28.8971C22.7699 28.3086 21.9715 27.978 21.139 27.978C20.3065 27.978 19.5081 28.3086 18.9194 28.8971C18.3307 29.4856 18 30.2837 18 31.116C18 31.9483 18.3307 32.7464 18.9194 33.3349C19.5081 33.9234 20.3065 34.254 21.139 34.254ZM32.8887 46C33.7212 46 34.5196 45.6694 35.1083 45.0809C35.6969 44.4924 36.0277 43.6942 36.0277 42.862C36.0277 42.0297 35.6969 41.2316 35.1083 40.6431C34.5196 40.0546 33.7212 39.724 32.8887 39.724C32.0561 39.724 31.2577 40.0546 30.669 40.6431C30.0804 41.2316 29.7497 42.0297 29.7497 42.862C29.7497 43.6942 30.0804 44.4924 30.669 45.0809C31.2577 45.6694 32.0561 46 32.8887 46ZM36.7764 30.0508C37.6089 30.0508 38.4073 29.7202 38.996 29.1317C39.5847 28.5432 39.9154 27.745 39.9154 26.9128C39.9154 26.0805 39.5847 25.2824 38.996 24.6939C38.4073 24.1054 37.6089 23.7748 36.7764 23.7748C35.9439 23.7748 35.1455 24.1054 34.5568 24.6939C33.9681 25.2824 33.6374 26.0805 33.6374 26.9128C33.6374 27.745 33.9681 28.5432 34.5568 29.1317C35.1455 29.7202 35.9439 30.0508 36.7764 30.0508ZM51.9818 39.0042C51.9818 38.172 51.6511 37.3738 51.0625 36.7853C50.4738 36.1968 49.6754 35.8662 48.8428 35.8662C48.0103 35.8662 47.2119 36.1968 46.6232 36.7853C46.0346 37.3738 45.7038 38.172 45.7038 39.0042C45.7038 39.8365 46.0346 40.6347 46.6232 41.2231C47.2119 41.8116 48.0103 42.1422 48.8428 42.1422C49.6754 42.1422 50.4738 41.8116 51.0625 41.2231C51.6511 40.6347 51.9818 39.8365 51.9818 39.0042Z" fill="url(#paint2_linear_449_700)" stroke="url(#paint3_linear_449_700)" stroke-width="3"/>
<defs>
<linearGradient id="paint0_linear_449_700" x1="32" y1="60" x2="32" y2="4" gradientUnits="userSpaceOnUse">
<stop stop-color="#FD3A84"/>
<stop offset="1" stop-color="#FFA68D"/>
</linearGradient>
<linearGradient id="paint1_linear_449_700" x1="32" y1="60" x2="32" y2="4" gradientUnits="userSpaceOnUse">
<stop stop-color="#FD3A84"/>
<stop offset="1" stop-color="#FFA68D"/>
</linearGradient>
<linearGradient id="paint2_linear_449_700" x1="51.0234" y1="29" x2="22.6652" y2="18.7473" gradientUnits="userSpaceOnUse">
<stop stop-color="#FE7970"/>
<stop offset="1" stop-color="#DC3282"/>
</linearGradient>
<linearGradient id="paint3_linear_449_700" x1="51.0234" y1="29" x2="22.6652" y2="18.7473" gradientUnits="userSpaceOnUse">
<stop stop-color="#FE7970"/>
<stop offset="1" stop-color="#DC3282"/>
</linearGradient>
</defs>
</svg>
