<svg width="128" height="128" viewBox="0 0 128 128" fill="none" xmlns="http://www.w3.org/2000/svg">
<path d="M54.4024 11.9774C66.1735 9.5331 78.7001 11.7756 89.2243 17.5612C102.477 24.8417 112.459 38.1396 115.59 53.1718C120.086 71.3731 113.529 91.5554 100.181 104.27C94.0868 110.22 86.4961 114.234 78.568 117C77.1159 116.26 75.3264 115.625 74.747 113.913C74.0282 112.343 74.6296 110.549 75.649 109.293C76.8665 108.269 78.4801 108.023 79.9175 107.462C91.6373 103.015 101.194 93.185 105.66 81.2999C109.327 71.6722 109.503 60.7811 106.481 50.9592C102.616 38.6031 93.2728 28.213 81.5823 23.1225C73.5442 19.4972 64.45 18.817 55.8324 20.2222C43.1373 22.5021 31.7108 30.8217 25.2862 42.1836C20.1597 50.9964 18.3262 61.6334 19.815 71.7319C21.8612 87.7357 33.2583 101.953 48.0657 107.522C50.0459 108.172 52.5835 108.688 53.1849 111.073C54.2336 113.868 51.6888 116.163 49.3052 116.933C41.3257 114.279 33.7643 110.153 27.6477 104.233C19.1036 96.0104 13.3097 84.8504 11.6375 72.9802C9.28327 58.3294 13.559 42.8264 22.6532 31.2851C30.5153 21.2687 41.9711 14.1526 54.4024 11.9774Z" fill="url(#paint0_linear_730_49)" stroke="url(#paint1_linear_730_49)" stroke-width="4"/>
<path fill-rule="evenodd" clip-rule="evenodd" d="M67.4064 88.6674C64.3694 92.1211 57.718 89.96 57.6682 85.1734C57.5506 78.9483 57.5715 72.7193 57.5921 66.4887C57.6047 62.6828 57.6172 58.8762 57.5983 55.0696C54.3987 57.3688 51.1795 59.635 47.962 61.9003C47.1943 62.4408 46.4266 62.9811 45.6594 63.5219C43.7475 64.9055 41.0889 65.5518 38.958 64.2793C35.423 62.6637 35.0048 57.2709 37.982 54.8575C41.5457 52.1407 45.2206 49.5782 48.8958 47.0156C52.5021 44.5012 56.1086 41.9865 59.6098 39.3257C61.5416 37.5787 64.6782 37.6393 66.7891 39.033C73.879 43.6176 80.2319 48.1924 87.3317 52.7569C87.4559 52.8393 87.5811 52.9216 87.7066 53.0042C89.184 53.9751 90.73 54.9913 91.4641 56.6851C93.0074 59.7148 91.0459 63.8654 87.7698 64.5519C85.4598 65.3093 83.1892 63.9764 81.3075 62.7544C79.4896 61.5367 78.3911 60.3592 76.546 59.1812C74.0454 57.5852 71.5444 55.9888 69.1094 54.2918C69.0268 59.2977 69.0567 64.3063 69.0864 69.3161C69.1142 73.9682 69.1419 78.6215 69.0795 83.2748C69.0395 85.1834 68.6115 87.1526 67.4064 88.6674Z" fill="url(#paint2_linear_730_49)" stroke="url(#paint3_linear_730_49)" stroke-width="4"/>
<defs>
<linearGradient id="paint0_linear_730_49" x1="64" y1="11" x2="52.9396" y2="115.833" gradientUnits="userSpaceOnUse">
<stop stop-color="#A6FF70"/>
<stop offset="0.752309" stop-color="#FF913B"/>
<stop offset="1" stop-color="#FE3E02"/>
</linearGradient>
<linearGradient id="paint1_linear_730_49" x1="64" y1="11" x2="52.9396" y2="115.833" gradientUnits="userSpaceOnUse">
<stop stop-color="#A6FF70"/>
<stop offset="0.752309" stop-color="#FF913B"/>
<stop offset="1" stop-color="#FE3E02"/>
</linearGradient>
<linearGradient id="paint2_linear_730_49" x1="64" y1="38" x2="58.8845" y2="89.8559" gradientUnits="userSpaceOnUse">
<stop stop-color="#A6FF70"/>
<stop offset="0.752309" stop-color="#FF913B"/>
<stop offset="1" stop-color="#FE3E02"/>
</linearGradient>
<linearGradient id="paint3_linear_730_49" x1="64" y1="38" x2="58.8845" y2="89.8559" gradientUnits="userSpaceOnUse">
<stop stop-color="#A6FF70"/>
<stop offset="0.752309" stop-color="#FF913B"/>
<stop offset="1" stop-color="#FE3E02"/>
</linearGradient>
</defs>
</svg>
