<svg width="64" height="64" viewBox="0 0 64 64" fill="none" xmlns="http://www.w3.org/2000/svg">
<path d="M23.7331 6.00292C22.9219 6.04842 22.2187 6.59312 21.96 7.37832L6.10523 55.3065C5.67233 56.6169 6.62912 57.9741 7.98632 57.9741H16.0385C16.9251 57.9741 17.7038 57.3761 17.9482 56.509L24.0152 34.9902L28.3754 47.539C28.6497 48.3567 29.4037 48.9001 30.2513 48.9001H33.8835C34.7311 48.9001 35.4851 48.3567 35.7594 47.539L40.0962 35.063L45.989 56.4973C46.2295 57.3709 47.0121 57.9741 47.9026 57.9741H55.6753C56.3786 58.0898 57.0897 57.8129 57.5382 57.2487C57.5434 57.2422 57.5486 57.2357 57.5538 57.2292C57.5603 57.2214 57.5668 57.2123 57.572 57.2045C57.5902 57.1811 57.6084 57.1577 57.6253 57.1343C57.6539 57.094 57.6799 57.0524 57.7059 57.0095L57.7189 56.9861C58.0764 56.3777 58.0933 55.6224 57.7657 54.9971L41.885 7.37442C41.2727 5.53363 38.7117 5.54793 38.1189 7.39522L32.0206 26.4284L25.7221 7.37832C25.4608 6.58792 24.7497 6.04062 23.9307 6.00292C23.8644 5.99903 23.7994 5.99903 23.7331 6.00292Z" fill="url(#paint0_linear_445_103)"/>
<defs>
<linearGradient id="paint0_linear_445_103" x1="31.9998" y1="58.013" x2="31.9998" y2="5.8325" gradientUnits="userSpaceOnUse">
<stop stop-color="#2920A7"/>
<stop offset="1" stop-color="#006FD2"/>
</linearGradient>
</defs>
</svg>
