<svg width="16" height="16" viewBox="0 0 16 16" fill="none" xmlns="http://www.w3.org/2000/svg">
<path fill-rule="evenodd" clip-rule="evenodd" d="M9.8191 0.857471C9.27091 0.557155 8.61081 0.431606 7.99936 0.432623C7.38926 0.433638 6.72895 0.560863 6.18177 0.867366L2.62405 2.83943L2.62397 2.83948L2.6237 2.83963C2.04648 3.15936 1.57435 3.6836 1.24893 4.23549C0.923489 4.78742 0.693359 5.45419 0.693359 6.11346V9.88012C0.693359 10.5394 0.923489 11.2062 1.24893 11.7581C1.57421 12.3097 2.04606 12.8338 2.62294 13.1535L2.62405 13.1541L6.18257 15.1333L6.18471 15.1345C6.73167 15.4368 7.39321 15.5618 8.00336 15.5618C8.61351 15.5618 9.27505 15.4368 9.82201 15.1345L9.82415 15.1333L13.3827 13.1541L13.3836 13.1536C13.9606 12.8339 14.4325 12.3098 14.7578 11.7581C15.0832 11.2062 15.3134 10.5394 15.3134 9.88012V6.11346C15.3134 5.45419 15.0832 4.78742 14.7578 4.23549C14.4324 3.68371 13.9604 3.15957 13.3834 2.83983L13.3827 2.83943L9.82415 0.86026C9.82415 0.860258 9.82415 0.860252 9.82415 0.860248V0.860248C9.82415 0.860243 9.82415 0.860238 9.82415 0.860235L9.8191 0.857471ZM7.06061 2.43824C7.27297 2.31902 7.61166 2.23327 8.00236 2.23262C8.39129 2.23197 8.73356 2.31587 8.95213 2.43493L12.5092 4.41332L12.5107 4.41414V4.41414C12.633 4.48186 12.6167 4.65244 12.4958 4.72251L8.20024 7.21068C8.07628 7.28248 7.92338 7.28252 7.79939 7.21076L3.5117 4.72944C3.38796 4.65783 3.37093 4.4834 3.496 4.41414V4.41414L3.49635 4.41395L7.05635 2.44062C7.05635 2.44062 7.05635 2.44062 7.05636 2.44062V2.44062C7.05636 2.44062 7.05636 2.44062 7.05637 2.44062L7.06061 2.43824ZM3.09371 6.56723C2.82705 6.41291 2.49336 6.60533 2.49336 6.91343V9.88012C2.49336 10.1409 2.59323 10.4941 2.79945 10.8438C3.00563 11.1935 3.26671 11.4525 3.496 11.5794L3.49748 11.5803L7.05534 13.5591L7.05627 13.5596V13.5596C7.07622 13.5706 7.1001 13.5558 7.1001 13.533V9.11643C7.1001 8.97367 7.02401 8.84173 6.90045 8.77022L3.09371 6.56723ZM8.9001 13.5288C8.9001 13.5551 8.92752 13.5722 8.9505 13.5596V13.5596L8.95137 13.5591L12.5092 11.5803L12.5107 11.5794C12.74 11.4525 13.0011 11.1935 13.2073 10.8438C13.4135 10.4941 13.5134 10.1409 13.5134 9.88012V6.9072C13.5134 6.59902 13.1795 6.40661 12.9129 6.56107L9.09961 8.76989C8.97612 8.84142 8.9001 8.97332 8.9001 9.11602V13.5288Z" fill="url(#paint0_linear_571_93)"/>
<defs>
<linearGradient id="paint0_linear_571_93" x1="4.34836" y1="14.4811" x2="14.4071" y2="3.14089" gradientUnits="userSpaceOnUse">
<stop stop-color="#A056FF"/>
<stop offset="1" stop-color="#C59AFD"/>
</linearGradient>
</defs>
</svg>
