<svg width="64" height="64" viewBox="0 0 64 64" fill="none" xmlns="http://www.w3.org/2000/svg">
<path d="M35.2812 27.0782H28.7188C27.8126 27.0782 27.0782 27.8126 27.0782 28.7188V48.4063C27.0782 49.3123 27.8126 50.0469 28.7188 50.0469H35.2812C36.1874 50.0469 36.9218 49.3123 36.9218 48.4063V28.7188C36.9218 27.8126 36.1874 27.0782 35.2812 27.0782ZM33.6406 46.7657H30.3594V30.3594H33.6406V46.7657ZM32 13.9531C29.2861 13.9531 27.0782 16.1611 27.0782 18.875C27.0782 21.5889 29.2861 23.7969 32 23.7969C34.7139 23.7969 36.9218 21.5889 36.9218 18.875C36.9218 16.1611 34.7139 13.9531 32 13.9531ZM32 20.5157C31.0953 20.5157 30.3594 19.7796 30.3594 18.875C30.3594 17.9704 31.0953 17.2343 32 17.2343C32.9047 17.2343 33.6406 17.9704 33.6406 18.875C33.6406 19.7796 32.9047 20.5157 32 20.5157ZM32 4C16.5063 4 4 16.5196 4 32C4 47.4937 16.5193 60 32 60C47.4937 60 60 47.4804 60 32C60 16.5063 47.4807 4 32 4ZM32 56.7188C18.3701 56.7188 7.28125 45.6299 7.28125 32C7.28125 18.3701 18.3701 7.28125 32 7.28125C45.6299 7.28125 56.7188 18.3701 56.7188 32C56.7188 45.6299 45.6299 56.7188 32 56.7188Z" fill="url(#paint0_linear_719_45)" stroke="url(#paint1_linear_719_45)" stroke-width="3"/>
<defs>
<linearGradient id="paint0_linear_719_45" x1="4" y1="60" x2="71.5714" y2="30.5486" gradientUnits="userSpaceOnUse">
<stop stop-color="#0357D1"/>
<stop offset="1" stop-color="#27CDFC"/>
</linearGradient>
<linearGradient id="paint1_linear_719_45" x1="4" y1="60" x2="71.5714" y2="30.5486" gradientUnits="userSpaceOnUse">
<stop stop-color="#0357D1"/>
<stop offset="1" stop-color="#27CDFC"/>
</linearGradient>
</defs>
</svg>
