<svg width="64" height="64" viewBox="0 0 64 64" fill="none" xmlns="http://www.w3.org/2000/svg">
<path fill-rule="evenodd" clip-rule="evenodd" d="M15.3628 20.2157C15.0027 20.1233 14.6667 20.4082 14.6667 20.7801V51.7579C14.6667 53.2307 13.4728 54.4246 12 54.4246H6.66667C5.19387 54.4246 4 53.2307 4 51.7579V10.4245C4 9.68807 4.59693 9.09114 5.33334 9.09114H6.66667L7.19841 9.09101H7.20467C7.56161 9.09087 7.91828 9.09061 8.27414 9.09114H14.5458C14.6126 9.09114 14.6667 9.14527 14.6667 9.21207C14.6667 9.27434 14.7138 9.32634 14.7756 9.33274C15.9164 9.45021 17.0035 9.62461 18.0122 9.88327C19.792 10.3395 21.5796 11.1049 23.1764 12.4315C24.7827 13.766 25.9183 15.4377 26.727 17.304C28.235 20.784 28.7854 25.4153 29.0563 31.0431C29.3334 36.7964 29.3334 44.5587 29.3334 54.4244L21.3334 54.4246C19.8606 54.4246 18.6668 53.2299 18.6664 51.7572C18.6643 43.052 18.6414 36.5264 18.402 31.556C18.1314 25.9337 17.5984 23.065 16.9398 21.545C16.6651 20.9113 16.4466 20.708 16.3602 20.6362C16.2643 20.5565 16.0206 20.3844 15.3628 20.2157ZM39.6363 27.0306C39.6363 25.5578 40.8302 24.364 42.303 24.364H47.1514C48.6242 24.364 49.8181 25.5578 49.8181 27.0306V31.8792C49.8181 33.3519 51.0121 34.5459 52.4848 34.5459H57.3333C58.8061 34.5459 60 35.7397 60 37.2125V42.0609C60 43.5338 58.8061 44.7276 57.3333 44.7276H52.4848C51.0121 44.7276 49.8181 45.9215 49.8181 47.3943V52.2428C49.8181 53.7155 48.6242 54.9095 47.1514 54.9095H42.303C40.8302 54.9095 39.6363 53.7155 39.6363 52.2428V47.3943C39.6363 45.9215 38.4425 44.7276 36.9697 44.7276H32.1211C30.6485 44.7276 29.4545 43.5338 29.4545 42.0609V37.2125C29.4545 35.7397 30.6483 34.5459 32.1211 34.5459H36.9697C38.4425 34.5459 39.6363 33.3519 39.6363 31.8792V27.0306Z" fill="url(#paint0_linear_1005_343)"/>
<defs>
<linearGradient id="paint0_linear_1005_343" x1="60" y1="34.3865" x2="4" y2="34.3865" gradientUnits="userSpaceOnUse">
<stop stop-color="#FFCD1A"/>
<stop offset="1" stop-color="#FD9C0C"/>
</linearGradient>
</defs>
</svg>
