<svg width="32" height="32" viewBox="0 0 32 32" fill="none" xmlns="http://www.w3.org/2000/svg">
<path d="M10.8 3H21.2C23.2687 3 25.2527 3.82179 26.7154 5.28456C28.1782 6.74735 29 8.73131 29 10.8V21.2C29 23.2687 28.1782 25.2527 26.7154 26.7154C25.2527 28.1782 23.2687 29 21.2 29H10.8C8.73131 29 6.74735 28.1782 5.28456 26.7154C3.82179 25.2527 3 23.2687 3 21.2V10.8C3 8.73131 3.82179 6.74735 5.28456 5.28456C6.74735 3.82179 8.73131 3 10.8 3Z" stroke="url(#paint0_linear_1005_96)" stroke-width="4"/>
<path d="M17.8095 15.0102C18.072 14.7476 18.4281 14.6001 18.7994 14.6001H22.9994C23.3707 14.6001 23.7268 14.7476 23.9894 15.0102C24.2519 15.2727 24.3994 15.6288 24.3994 16.0001C24.3994 16.3714 24.2519 16.7275 23.9894 16.99C23.7268 17.2526 23.3707 17.4001 22.9994 17.4001H18.7994C18.4281 17.4001 18.072 17.2526 17.8095 16.99C17.5469 16.7275 17.3994 16.3714 17.3994 16.0001C17.3994 15.6288 17.5469 15.2727 17.8095 15.0102Z" fill="url(#paint1_linear_1005_96)"/>
<path d="M15.0097 20.6101C15.2722 20.3475 15.6283 20.2 15.9996 20.2H22.9996C23.3709 20.2 23.727 20.3475 23.9896 20.6101C24.2521 20.8726 24.3996 21.2287 24.3996 21.6C24.3996 21.9713 24.2521 22.3273 23.9896 22.5898C23.727 22.8524 23.3709 23 22.9996 23H15.9996C15.6283 23 15.2722 22.8524 15.0097 22.5898C14.7471 22.3273 14.5996 21.9713 14.5996 21.6C14.5996 21.2287 14.7471 20.8726 15.0097 20.6101Z" fill="url(#paint2_linear_1005_96)"/>
<path d="M15.0097 9.41005C15.2722 9.1475 15.6283 9 15.9996 9H22.9996C23.3709 9 23.727 9.1475 23.9896 9.41005C24.2521 9.6726 24.3996 10.0287 24.3996 10.4C24.3996 10.7713 24.2521 11.1274 23.9896 11.3899C23.727 11.6525 23.3709 11.8 22.9996 11.8H15.9996C15.6283 11.8 15.2722 11.6525 15.0097 11.3899C14.7471 11.1274 14.5996 10.7713 14.5996 10.4C14.5996 10.0287 14.7471 9.6726 15.0097 9.41005Z" fill="url(#paint3_linear_1005_96)"/>
<path d="M9.16872 15.3505L10.1585 16.3403V16.3389L13.1293 13.3681C13.3922 13.1056 13.7486 12.9583 14.1201 12.9585C14.4916 12.9588 14.8478 13.1066 15.1103 13.3695C15.3728 13.6324 15.5202 13.9888 15.5199 14.3603C15.5196 14.7318 15.3718 15.088 15.1089 15.3505L11.1497 19.3097C11.0197 19.4399 10.8653 19.5431 10.6953 19.6136C10.5254 19.684 10.3432 19.7203 10.1592 19.7203C9.97524 19.7203 9.79306 19.684 9.6231 19.6136C9.45315 19.5431 9.29874 19.4399 9.16872 19.3097L7.18912 17.3301C7.05541 17.201 6.94875 17.0465 6.87538 16.8757C6.80201 16.7049 6.76339 16.5212 6.76177 16.3353C6.76015 16.1494 6.79558 15.965 6.86597 15.793C6.93636 15.6209 7.04032 15.4646 7.17177 15.3331C7.30322 15.2017 7.45953 15.0977 7.63158 15.0273C7.80364 14.957 7.98799 14.9215 8.17388 14.9231C8.35977 14.9248 8.54348 14.9634 8.71429 15.0368C8.88509 15.1101 9.03957 15.2168 9.16872 15.3505Z" fill="url(#paint4_linear_1005_96)"/>
<defs>
<linearGradient id="paint0_linear_1005_96" x1="24.172" y1="24.3286" x2="9.54092" y2="7.49856" gradientUnits="userSpaceOnUse">
<stop stop-color="#248EFE"/>
<stop offset="1" stop-color="#1DF4FF"/>
</linearGradient>
<linearGradient id="paint1_linear_1005_96" x1="21.1242" y1="20.4848" x2="13.6864" y2="9.70597" gradientUnits="userSpaceOnUse">
<stop stop-color="#248EFE"/>
<stop offset="1" stop-color="#1DF4FF"/>
</linearGradient>
<linearGradient id="paint2_linear_1005_96" x1="21.1244" y1="20.4847" x2="13.6866" y2="9.70582" gradientUnits="userSpaceOnUse">
<stop stop-color="#248EFE"/>
<stop offset="1" stop-color="#1DF4FF"/>
</linearGradient>
<linearGradient id="paint3_linear_1005_96" x1="21.1244" y1="20.4847" x2="13.6866" y2="9.70587" gradientUnits="userSpaceOnUse">
<stop stop-color="#248EFE"/>
<stop offset="1" stop-color="#1DF4FF"/>
</linearGradient>
<linearGradient id="paint4_linear_1005_96" x1="21.1241" y1="20.4848" x2="13.6863" y2="9.70597" gradientUnits="userSpaceOnUse">
<stop stop-color="#248EFE"/>
<stop offset="1" stop-color="#1DF4FF"/>
</linearGradient>
</defs>
</svg>
