<svg width="128" height="128" viewBox="0 0 128 128" fill="none" xmlns="http://www.w3.org/2000/svg">
<path fill-rule="evenodd" clip-rule="evenodd" d="M27.679 9.7377C25.4703 9.78121 23.715 11.607 23.7585 13.8157L23.9189 21.9564C23.9624 24.1651 25.7882 25.9203 27.9969 25.8768L43.4386 25.5726C45.6473 25.5291 47.4025 23.7034 47.359 21.4946L47.1987 13.354C47.1552 11.1453 45.3294 9.39002 43.1207 9.43353L27.679 9.7377ZM57.2674 9.15486C55.0587 9.19837 53.3034 11.0242 53.3469 13.2329L53.5073 21.3735C53.5508 23.5822 55.3766 25.3375 57.5853 25.294L80.328 24.846C82.5367 24.8025 84.292 22.9767 84.2484 20.768L84.0881 12.6273C84.0446 10.4186 82.2188 8.66336 80.0101 8.70687L57.2674 9.15486ZM94.1568 8.4282C91.9481 8.47171 90.1928 10.2975 90.2363 12.5062L90.3967 20.6469C90.4402 22.8556 92.266 24.6108 94.4747 24.5673L96.0828 24.5356C98.2916 24.4921 100.117 26.2474 100.161 28.4561L100.211 31.0249C100.255 33.2336 102.081 34.9889 104.289 34.9454L112.43 34.785C114.639 34.7415 116.394 32.9157 116.351 30.707L116.108 18.375C115.995 12.645 111.258 8.09133 105.528 8.2042L94.1568 8.4282ZM101.593 101.153C101.636 103.362 103.462 105.117 105.671 105.074L113.812 104.913C116.02 104.87 117.775 103.044 117.732 100.835L117.409 84.4329C117.365 82.2242 115.54 80.469 113.331 80.5125L105.19 80.6729C102.981 80.7164 101.226 82.5421 101.27 84.7509L101.593 101.153ZM116.637 45.2379C116.593 43.0292 114.768 41.274 112.559 41.3175L104.418 41.4779C102.209 41.5214 100.454 43.3471 100.498 45.5559L100.984 70.2199C101.027 72.4286 102.853 74.1839 105.062 74.1404L113.202 73.98C115.411 73.9365 117.166 72.1107 117.123 69.902L116.637 45.2379ZM17.5915 43.1934C17.9711 42.5012 18.9655 42.5012 19.3451 43.1934L21.3272 46.8077C21.4188 46.9747 21.5562 47.1121 21.7232 47.2037L25.3375 49.1857C26.0297 49.5653 26.0297 50.5597 25.3375 50.9394L21.7232 52.9214C21.5562 53.013 21.4188 53.1504 21.3272 53.3174L19.3451 56.9317C18.9655 57.6239 17.9711 57.6239 17.5915 56.9317L15.6095 53.3174C15.5179 53.1504 15.3805 53.013 15.2135 52.9214L11.5992 50.9394C10.907 50.5597 10.907 49.5653 11.5992 49.1857L15.2135 47.2037C15.3805 47.1121 15.5179 46.9747 15.6095 46.8077L17.5915 43.1934ZM40.1729 43.1934C40.5526 42.5012 41.547 42.5012 41.9266 43.1934L43.9086 46.8077C44.0002 46.9747 44.1376 47.1121 44.3046 47.2037L47.9188 49.1857C48.6111 49.5653 48.6111 50.5597 47.9188 50.9394L44.3046 52.9214C44.1376 53.013 44.0002 53.1504 43.9086 53.3174L41.9266 56.9317C41.547 57.6239 40.5526 57.6239 40.1729 56.9317L38.1909 53.3174C38.0993 53.1504 37.962 53.013 37.795 52.9214L34.1807 50.9394C33.4885 50.5597 33.4885 49.5653 34.1807 49.1857L37.795 47.2037C37.962 47.1121 38.0993 46.9747 38.1909 46.8077L40.1729 43.1934ZM71.8955 42.6693C72.4889 42.0757 73.4513 42.0757 74.045 42.6693L87.9603 56.5848C88.5539 57.1783 88.5539 58.1407 87.9603 58.7342L27.14 119.554C26.5465 120.148 25.5841 120.148 24.9906 119.554L11.075 105.639C10.4815 105.046 10.4815 104.083 11.075 103.49L71.8955 42.6693ZM74.0453 50.698C73.4516 50.1037 72.4886 50.1035 71.8946 50.6976L55.256 67.3462C54.6626 67.9399 54.6626 68.902 55.2563 69.4953L61.1444 75.3834C61.7383 75.9774 62.701 75.9771 63.2944 75.3828L79.9246 58.7335C80.517 58.1401 80.517 57.1788 79.9246 56.5854L74.0453 50.698ZM28.8822 60.1294C29.2618 59.4372 30.2562 59.4372 30.6358 60.1294L32.6179 63.7437C32.7094 63.9107 32.8468 64.048 33.0138 64.1396L36.6282 66.1217C37.3204 66.5013 37.3204 67.4957 36.6282 67.8753L33.0138 69.8576C32.8468 69.9492 32.7094 70.0865 32.6179 70.2535L30.6358 73.8678C30.2562 74.5601 29.2618 74.5601 28.8822 73.8678L26.9002 70.2535C26.8086 70.0865 26.6712 69.9492 26.5042 69.8576L22.8898 67.8753C22.1976 67.4957 22.1976 66.5013 22.8898 66.1217L26.5042 64.1396C26.6712 64.048 26.8086 63.9107 26.9002 63.7437L28.8822 60.1294Z" fill="url(#paint0_linear_731_78)"/>
<defs>
<linearGradient id="paint0_linear_731_78" x1="30.0423" y1="106.801" x2="130.182" y2="23.0963" gradientUnits="userSpaceOnUse">
<stop stop-color="#FE0844"/>
<stop offset="1" stop-color="#FEB302"/>
</linearGradient>
</defs>
</svg>
