<svg width="16" height="16" viewBox="0 0 16 16" fill="none" xmlns="http://www.w3.org/2000/svg">
<path d="M11.2884 1.5H4.71143C3.33071 1.5 2.21143 2.61929 2.21143 4V12C2.21143 13.3807 3.33071 14.5 4.71143 14.5H11.2884C12.6691 14.5 13.7884 13.3807 13.7884 12V4C13.7884 2.61929 12.6691 1.5 11.2884 1.5Z" stroke="url(#paint0_linear_505_88)" stroke-width="1.8"/>
<path d="M10.9902 8.73828C11.1811 8.54733 11.2884 8.28832 11.2884 8.01827C11.2884 7.7482 11.1811 7.4892 10.9902 7.29822C10.7992 7.10727 10.5402 7 10.2702 7H5.51825C5.2482 7 4.9892 7.10727 4.79825 7.29822C4.6073 7.4892 4.5 7.7482 4.5 8.01827C4.5 8.28832 4.6073 8.54733 4.79825 8.73828C4.9892 8.92923 5.2482 9.03652 5.51825 9.03652H10.2702C10.5402 9.03652 10.7992 8.92923 10.9902 8.73828Z" fill="url(#paint1_linear_505_88)"/>
<path d="M10.9902 5.73828C11.1811 5.54733 11.2884 5.28832 11.2884 5.01827C11.2884 4.7482 11.1811 4.4892 10.9902 4.29822C10.7992 4.10727 10.5402 4 10.2702 4H5.51825C5.2482 4 4.9892 4.10727 4.79825 4.29822C4.6073 4.4892 4.5 4.7482 4.5 5.01827C4.5 5.28832 4.6073 5.54733 4.79825 5.73828C4.9892 5.92923 5.2482 6.03652 5.51825 6.03652H10.2702C10.5402 6.03652 10.7992 5.92923 10.9902 5.73828Z" fill="url(#paint2_linear_505_88)"/>
<path d="M8.61422 11.7383C8.80517 11.5473 8.91248 11.2883 8.91248 11.0183C8.91248 10.7482 8.80517 10.4892 8.61422 10.2982C8.42327 10.1073 8.16428 10 7.89423 10H5.51825C5.2482 10 4.9892 10.1073 4.79825 10.2982C4.6073 10.4892 4.5 10.7482 4.5 11.0183C4.5 11.2883 4.6073 11.5473 4.79825 11.7383C4.9892 11.9292 5.2482 12.0365 5.51825 12.0365H7.89423C8.16428 12.0365 8.42327 11.9292 8.61422 11.7383Z" fill="url(#paint3_linear_505_88)"/>
<defs>
<linearGradient id="paint0_linear_505_88" x1="3.36912" y1="14.5041" x2="8.5074" y2="0.774911" gradientUnits="userSpaceOnUse">
<stop offset="0.190745" stop-color="#22B4FA"/>
<stop offset="0.896724" stop-color="#7DDCFF"/>
</linearGradient>
<linearGradient id="paint1_linear_505_88" x1="5.17884" y1="9.03716" x2="5.42159" y2="6.60942" gradientUnits="userSpaceOnUse">
<stop offset="0.190745" stop-color="#22B4FA"/>
<stop offset="0.896724" stop-color="#7DDCFF"/>
</linearGradient>
<linearGradient id="paint2_linear_505_88" x1="5.17884" y1="6.03716" x2="5.42159" y2="3.60942" gradientUnits="userSpaceOnUse">
<stop offset="0.190745" stop-color="#22B4FA"/>
<stop offset="0.896724" stop-color="#7DDCFF"/>
</linearGradient>
<linearGradient id="paint3_linear_505_88" x1="4.94125" y1="12.0372" x2="5.30971" y2="9.64183" gradientUnits="userSpaceOnUse">
<stop offset="0.190745" stop-color="#22B4FA"/>
<stop offset="0.896724" stop-color="#7DDCFF"/>
</linearGradient>
</defs>
</svg>
