<svg width="16" height="16" viewBox="0 0 16 16" fill="none" xmlns="http://www.w3.org/2000/svg">
<path d="M11.2771 1H4.7002C3.31948 1 2.2002 2.11929 2.2002 3.5V12.5C2.2002 13.8807 3.31948 15 4.7002 15H11.2771C12.6578 15 13.7771 13.8807 13.7771 12.5V3.5C13.7771 2.11929 12.6578 1 11.2771 1Z" stroke="url(#paint0_linear_507_401)" stroke-width="1.6"/>
<path d="M7.9502 3C6.95563 3 6.00181 3.39509 5.29855 4.09835C4.59528 4.80161 4.2002 5.75544 4.2002 6.75C4.2002 8.62505 5.58135 10.1818 7.42689 10.4568C7.706 10.4984 7.90049 10.2157 7.79691 9.95317L7.4627 9.10625C7.38091 8.96179 7.35932 8.79093 7.40261 8.63067C7.44589 8.47041 7.55056 8.33365 7.69395 8.25L8.23145 7.9375C8.3759 7.85572 8.54676 7.83413 8.70703 7.87741C8.85807 7.9182 8.98824 8.01353 9.07274 8.1444C9.08306 8.16038 9.09363 8.17623 9.10545 8.19113L10.039 9.36775C10.1763 9.54087 10.4298 9.57123 10.5872 9.41609C10.8918 9.11577 11.1433 8.76464 11.3299 8.37749C11.5745 7.86987 11.7011 7.31349 11.7002 6.75C11.7002 5.75544 11.3051 4.80161 10.6018 4.09835C9.89858 3.39509 8.94476 3 7.9502 3ZM7.9502 6.125C8.11596 6.125 8.27493 6.19085 8.39214 6.30806C8.50935 6.42527 8.5752 6.58424 8.5752 6.75C8.5752 6.91576 8.50935 7.07473 8.39214 7.19194C8.27493 7.30915 8.11596 7.375 7.9502 7.375C7.78443 7.375 7.62546 7.30915 7.50825 7.19194C7.39104 7.07473 7.3252 6.91576 7.3252 6.75C7.3252 6.58424 7.39104 6.42527 7.50825 6.30806C7.62546 6.19085 7.78443 6.125 7.9502 6.125ZM4.8252 11.75C4.65943 11.75 4.50046 11.8158 4.38325 11.9331C4.26604 12.0503 4.2002 12.2092 4.2002 12.375C4.2002 12.5408 4.26604 12.6997 4.38325 12.8169C4.50046 12.9342 4.65943 13 4.8252 13C4.99096 13 5.14993 12.9342 5.26714 12.8169C5.38435 12.6997 5.4502 12.5408 5.4502 12.375C5.4502 12.2092 5.38435 12.0503 5.26714 11.9331C5.14993 11.8158 4.99096 11.75 4.8252 11.75ZM8.2744 8.63797C8.12031 8.72755 8.05479 8.91627 8.12022 9.08206L9.39217 12.3054C9.48194 12.5329 9.75306 12.6272 9.96471 12.5047L10.7805 12.0322C10.9917 11.9099 11.0451 11.6284 10.8931 11.4372L8.73794 8.72535C8.62654 8.58518 8.42918 8.54798 8.2744 8.63797V8.63797Z" fill="url(#paint1_linear_507_401)"/>
<defs>
<linearGradient id="paint0_linear_507_401" x1="2.03286" y1="1.13776" x2="16.2896" y2="13.2876" gradientUnits="userSpaceOnUse">
<stop stop-color="#F9D423"/>
<stop offset="0.515624" stop-color="#FF4E50"/>
<stop offset="0.991304" stop-color="#8A2387"/>
</linearGradient>
<linearGradient id="paint1_linear_507_401" x1="4.09179" y1="3.0984" x2="14.0728" y2="10.8132" gradientUnits="userSpaceOnUse">
<stop stop-color="#F9D423"/>
<stop offset="0.515624" stop-color="#FF4E50"/>
<stop offset="0.991304" stop-color="#8A2387"/>
</linearGradient>
</defs>
</svg>
