<svg width="16" height="16" viewBox="0 0 16 16" fill="none" xmlns="http://www.w3.org/2000/svg">
<path d="M7.54376 2.7406C7.67794 2.68925 7.82663 2.70356 7.96807 2.7002C10.0851 2.70524 12.2013 2.69598 14.3173 2.70441C14.9765 2.70441 15.5386 3.27759 15.4978 3.88443C15.496 6.69058 15.5015 9.49587 15.4951 12.3012C15.4924 12.8777 14.9447 13.3886 14.3246 13.397C12.1432 13.4021 9.96177 13.3979 7.78039 13.3987C7.51384 13.4156 7.26088 13.2203 7.24002 12.9712C7.1956 12.6883 7.47485 12.414 7.78311 12.44C9.92734 12.435 12.0725 12.4417 14.2167 12.4375C14.3627 12.4636 14.4924 12.3466 14.4633 12.2103C14.4661 9.46393 14.4624 6.71668 14.4651 3.96945C14.467 3.85497 14.4724 3.66223 14.2965 3.6656C12.097 3.64792 9.89651 3.67233 7.69788 3.65382C7.18834 3.63614 7.07048 2.90472 7.54376 2.7406Z" fill="url(#paint0_linear_650_115)" stroke="url(#paint1_linear_650_115)" stroke-width="0.6"/>
<path d="M4.56752 4.7264C5.77246 4.38889 7.08891 4.50252 8.24762 4.94019C9.56139 5.43509 10.692 6.2894 11.595 7.29436C11.7383 7.43576 11.8307 7.64617 11.7418 7.83471C11.6621 8.06028 11.3983 8.14445 11.2069 8.2707C9.75629 9.09384 8.13519 9.81184 6.39895 9.7958C5.05166 9.79163 3.69894 9.10146 3.09692 7.96349C2.96727 7.75896 3.01804 7.47616 3.22567 7.33476C3.92198 6.81292 4.76516 6.43838 5.66185 6.34832C6.54946 6.25825 7.4815 6.43079 8.23671 6.88025C8.57399 7.07889 8.49694 7.61335 8.11432 7.72109C7.76437 7.83808 7.4951 7.53844 7.17958 7.46017C6.20221 7.11003 5.08158 7.3095 4.22842 7.84481C4.7842 8.54847 5.74979 8.88173 6.67095 8.83126C8.03997 8.76813 9.30569 8.19664 10.468 7.56454C9.60577 6.70013 8.52594 5.98807 7.30107 5.64804C6.16866 5.33746 4.91748 5.49233 3.88571 6.01501C3.00807 6.44931 2.26098 7.07805 1.60548 7.76654C2.0851 8.82035 2.94551 9.74871 4.07248 10.2377C5.1795 10.7208 6.4606 10.762 7.64107 10.5214C9.3202 10.1813 10.8806 9.46504 12.3384 8.63768C12.6485 8.43062 13.1318 8.66126 13.1336 9.01393C13.1635 9.28068 12.9169 9.45493 12.692 9.56267C10.799 10.6063 8.72268 11.5162 6.48962 11.6223C5.04623 11.6828 3.56385 11.278 2.44776 10.4119C1.59731 9.76131 0.951777 8.88846 0.564636 7.93319C0.476691 7.7497 0.464904 7.51993 0.615409 7.36085C1.66168 6.19597 2.97271 5.1565 4.56752 4.7264Z" fill="url(#paint2_linear_650_115)" stroke="url(#paint3_linear_650_115)" stroke-width="0.6"/>
<defs>
<linearGradient id="paint0_linear_650_115" x1="11.3676" y1="13.3997" x2="11.3676" y2="2.7002" gradientUnits="userSpaceOnUse">
<stop stop-color="#00B59C"/>
<stop offset="1" stop-color="#9CFFAC"/>
</linearGradient>
<linearGradient id="paint1_linear_650_115" x1="11.3676" y1="13.3997" x2="11.3676" y2="2.7002" gradientUnits="userSpaceOnUse">
<stop stop-color="#00B59C"/>
<stop offset="1" stop-color="#9CFFAC"/>
</linearGradient>
<linearGradient id="paint2_linear_650_115" x1="6.81804" y1="11.6282" x2="6.81804" y2="4.52979" gradientUnits="userSpaceOnUse">
<stop stop-color="#00B59C"/>
<stop offset="1" stop-color="#9CFFAC"/>
</linearGradient>
<linearGradient id="paint3_linear_650_115" x1="6.81804" y1="11.6282" x2="6.81804" y2="4.52979" gradientUnits="userSpaceOnUse">
<stop stop-color="#00B59C"/>
<stop offset="1" stop-color="#9CFFAC"/>
</linearGradient>
</defs>
</svg>
