<svg width="64" height="64" viewBox="0 0 64 64" fill="none" xmlns="http://www.w3.org/2000/svg">
<path d="M13.3046 9.81408C4.51854 19.2413 6.65199 36.8181 18.0453 49.0766C29.4457 61.328 45.806 63.6076 54.5826 54.1733C63.3592 44.7484 61.2376 27.1598 49.8348 14.9202C38.4321 2.66174 22.0741 0.384489 13.2975 9.81644M21.2608 13.7368C28.1609 6.31806 40.839 7.93052 49.5896 17.3365C58.338 26.7402 59.8443 40.3778 52.9348 47.7847C46.0465 55.2058 33.3472 53.591 24.6083 44.1944C15.8576 34.7907 14.363 21.1626 21.2537 13.7462" fill="url(#paint0_linear_448_679)"/>
<path d="M50.4007 43.6643H57.9302C59.0688 43.6643 60 44.586 60 45.7246V53.2612C60 54.3999 59.0712 55.3216 57.9302 55.3216H50.4007C49.2621 55.3216 48.3309 54.3999 48.3309 53.2612V45.7246C48.3309 44.586 49.2597 43.6643 50.4007 43.6643ZM17.4442 38.9966H6.8996C5.29421 38.9966 4 37.7024 4 36.1088V25.5547C4 23.9588 5.29657 22.6669 6.8996 22.6669H17.4442C19.0496 22.6669 20.3438 23.9611 20.3438 25.5547V36.1088C20.3438 37.7048 19.0473 38.9966 17.4442 38.9966ZM51.7656 20.3402H47.237C46.5534 20.3402 45.9994 19.7838 45.9994 19.1002V14.5716C45.9994 13.888 46.5534 13.334 47.237 13.334H51.7656C52.4493 13.334 53.0056 13.888 53.0056 14.5716V19.1002C53.0056 19.7838 52.4493 20.3402 51.7656 20.3402Z" fill="url(#paint1_linear_448_679)"/>
<defs>
<linearGradient id="paint0_linear_448_679" x1="33.9417" y1="59.9912" x2="33.9417" y2="4" gradientUnits="userSpaceOnUse">
<stop stop-color="#5570FF"/>
<stop offset="1" stop-color="#4DD3FF"/>
</linearGradient>
<linearGradient id="paint1_linear_448_679" x1="55.8692" y1="4.53729" x2="20.918" y2="54.5572" gradientUnits="userSpaceOnUse">
<stop stop-color="#FE7970"/>
<stop offset="1" stop-color="#D92B1A"/>
</linearGradient>
</defs>
</svg>
