<svg width="64" height="64" viewBox="0 0 64 64" fill="none" xmlns="http://www.w3.org/2000/svg">
<path d="M11 25.0003V49.5006C11 56.5007 11 59.9993 16.2501 60C21.5001 60.0007 21.5001 56.5007 21.5001 49.5006C21.5001 56.5007 21.5001 60.0007 26.7502 60C32.0003 59.9993 32.0003 56.5007 32.0003 49.5006C32.0003 56.5007 32.0003 59.9993 37.2503 60C42.5004 60.0007 42.5004 56.5007 42.5004 49.5006C42.5004 56.5007 42.5004 59.9993 47.7505 60C53.0005 60.0007 53.0005 56.5007 53.0005 49.5006V25.0038C53.0005 25.0018 52.999 25.0003 52.997 25.0003L52.9935 24.9968C52.9998 14.4985 49.4985 4.0007 32.0003 4C14.5001 3.9993 11 14.5008 11 25.0003Z" stroke="url(#paint0_linear_1005_163)" stroke-width="6" stroke-linejoin="round"/>
<path d="M28.5011 26.7506C28.5011 23.842 26.1596 21.5005 23.2511 21.5005C20.3425 21.5005 18.001 23.842 18.001 26.7506C18.001 29.6591 20.3425 32.0006 23.2511 32.0006C26.1596 32.0006 28.5011 29.6591 28.5011 26.7506Z" fill="url(#paint1_linear_1005_163)"/>
<path d="M47.6652 26.7501C47.6652 23.8415 45.3237 21.5 42.4151 21.5C39.5066 21.5 37.165 23.8415 37.165 26.7501C37.165 29.6586 39.5066 32.0001 42.4151 32.0001C45.3237 32.0001 47.6652 29.6586 47.6652 26.7501Z" fill="url(#paint2_linear_1005_163)"/>
<defs>
<linearGradient id="paint0_linear_1005_163" x1="32.0003" y1="60" x2="32.0003" y2="4" gradientUnits="userSpaceOnUse">
<stop stop-color="#FD3A84"/>
<stop offset="1" stop-color="#FFA68D"/>
</linearGradient>
<linearGradient id="paint1_linear_1005_163" x1="48.6129" y1="26.7506" x2="34.9638" y2="11.9384" gradientUnits="userSpaceOnUse">
<stop stop-color="#FE7970"/>
<stop offset="1" stop-color="#DC3282"/>
</linearGradient>
<linearGradient id="paint2_linear_1005_163" x1="46.7767" y1="26.7501" x2="33.1276" y2="11.9379" gradientUnits="userSpaceOnUse">
<stop stop-color="#FE7970"/>
<stop offset="1" stop-color="#DC3282"/>
</linearGradient>
</defs>
</svg>
