<svg width="16" height="16" viewBox="0 0 16 16" fill="none" xmlns="http://www.w3.org/2000/svg">
<g clip-path="url(#clip0_576_133)">
<path d="M15 10.346V12.4267C14.9312 12.4805 14.8613 12.5331 14.7902 12.5841L14.789 12.585C14.227 12.984 13.6612 13.2501 13.0922 13.373L13.0907 13.3734C12.5084 13.4958 11.975 13.4631 11.509 13.2469C11.05 13.034 10.6949 12.6826 10.4422 12.2092C10.1918 11.7402 10.0504 11.175 10.006 10.5243L10.0057 10.5209L10.0056 10.5175C9.9758 9.84828 10.0651 9.12092 10.2679 8.33805C10.4572 7.55251 10.7411 6.79658 11.1191 6.07024L11.1201 6.06835C11.5099 5.33267 11.9447 4.67318 12.4249 4.09154C12.7234 3.732 13.3838 3.02099 14.0746 2.44971C14.3299 2.75628 14.5365 3.09758 14.6891 3.46144C14.4172 3.67541 14.1494 3.93257 13.8862 4.2344C13.5341 4.64034 13.2066 5.11737 12.904 5.66698L12.9025 5.66972C12.6031 6.20019 12.3716 6.7574 12.2084 7.34186C12.0445 7.92863 11.9649 8.46719 11.9649 8.95853C11.9649 9.43877 12.0316 9.83766 12.1558 10.1626C12.2927 10.4838 12.4773 10.7079 12.7019 10.8537C12.9173 10.9936 13.1931 11.0574 13.5519 11.0203C13.8921 10.9836 14.2589 10.8488 14.653 10.5999C14.7545 10.5322 14.8551 10.4589 14.9548 10.3812L15 10.346Z" fill="url(#paint0_linear_576_133)"/>
<path d="M15 10.1V5.9C15 2.4 13.6 1 10.1 1H5.9C2.4 1 1 2.4 1 5.9V10.1C1 13.6 2.4 15 5.9 15H10.1C13.6 15 15 13.6 15 10.1Z" stroke="url(#paint1_linear_576_133)" stroke-width="1.8" stroke-linecap="round" stroke-linejoin="round"/>
<path d="M3 1V6.38341C3 6.91683 3.5872 7.19763 3.95463 6.8399L4.80925 6.00786C4.91808 5.90189 5.08377 5.90192 5.19257 6.00795L6.04517 6.83882C6.41254 7.19683 7 6.91609 7 6.38251V1H3Z" fill="url(#paint2_linear_576_133)"/>
</g>
<defs>
<linearGradient id="paint0_linear_576_133" x1="12.5" y1="13.4441" x2="12.5" y2="3.09644" gradientUnits="userSpaceOnUse">
<stop stop-color="#18AEFA"/>
<stop offset="1" stop-color="#83E1FF"/>
</linearGradient>
<linearGradient id="paint1_linear_576_133" x1="8" y1="15" x2="8" y2="1.82353" gradientUnits="userSpaceOnUse">
<stop stop-color="#18AEFA"/>
<stop offset="1" stop-color="#83E1FF"/>
</linearGradient>
<linearGradient id="paint2_linear_576_133" x1="5" y1="7" x2="5" y2="1.35294" gradientUnits="userSpaceOnUse">
<stop stop-color="#18AEFA"/>
<stop offset="1" stop-color="#83E1FF"/>
</linearGradient>
<clipPath id="clip0_576_133">
<rect width="16" height="16" fill="white"/>
</clipPath>
</defs>
</svg>
