<svg width="16" height="16" viewBox="0 0 16 16" fill="none" xmlns="http://www.w3.org/2000/svg">
<path d="M5.48924 0.942911C6.85383 0.482343 8.34828 0.353591 9.75708 0.687136C11.3174 1.05179 12.7321 1.95823 13.766 3.17403C15.6354 5.41898 16.083 8.80804 14.6899 11.402C14.4344 11.8315 13.7054 11.5627 13.7816 11.0711C13.9028 10.5388 14.1816 10.0549 14.3106 9.5235C14.6587 8.07006 14.5669 6.47924 13.8759 5.13642C13.3755 4.13837 12.5746 3.32871 11.707 2.64174C11.5044 2.48879 11.3009 2.33153 11.0688 2.22524C10.474 2.18809 9.86098 2.27018 9.31721 2.52422C9.59687 2.79296 9.93193 2.9969 10.2047 3.27514C11.2125 4.21442 11.9156 5.47688 12.152 6.83525C12.5789 9.11565 11.7001 11.6285 9.83935 13.0482C9.51377 13.3376 9.00119 13.0239 9.01417 12.623C9.02457 12.4001 9.22279 12.2687 9.36828 12.1296C10.3632 11.2689 11.0541 10.0489 11.216 8.73891C11.545 6.41184 10.2212 3.91543 8.02448 3.00639C7.98031 3.00381 7.892 2.99862 7.84784 2.99516C6.56896 3.56893 5.48058 4.62746 5.00176 5.95732C4.57056 7.15843 4.49956 8.503 4.87448 9.7283C5.27538 11.0339 6.2486 12.1132 7.41664 12.7976C8.76736 13.6064 10.4558 13.6418 11.9312 13.1769C12.1797 13.0749 12.4914 13.1692 12.6127 13.4162C12.7123 13.6228 12.6716 13.901 12.4724 14.0341C11.2636 14.9293 9.77696 15.4314 8.27557 15.4953C6.39666 15.5627 4.50043 14.8982 3.07782 13.6712C1.71756 12.5159 0.836977 10.8395 0.581551 9.08105C0.332184 7.41679 0.658613 5.67044 1.50715 4.21528C2.37388 2.68668 3.82593 1.50803 5.48924 0.942911ZM4.03027 2.84913C2.84317 3.77113 1.98078 5.10445 1.63877 6.56737C1.34437 7.85144 1.46213 9.22454 1.96606 10.442C2.65529 12.134 4.08915 13.5052 5.81134 14.1231C6.82093 14.4843 7.93096 14.6304 8.98821 14.4109C7.09454 14.0842 5.40179 12.8374 4.46233 11.173C3.73674 9.93052 3.4588 8.43987 3.67354 7.0193C3.86835 5.68858 4.54632 4.46241 5.4624 3.48943C6.40099 2.49139 7.67294 1.85368 9.00635 1.57371C7.26425 1.28423 5.41477 1.75344 4.03027 2.84913Z" fill="url(#paint0_linear_650_119)" stroke="url(#paint1_linear_650_119)" stroke-width="0.8"/>
<defs>
<linearGradient id="paint0_linear_650_119" x1="15.4605" y1="0.595095" x2="0.579127" y2="15.3575" gradientUnits="userSpaceOnUse">
<stop stop-color="#FE7970"/>
<stop offset="1" stop-color="#DC3282"/>
</linearGradient>
<linearGradient id="paint1_linear_650_119" x1="15.4605" y1="0.595095" x2="0.579127" y2="15.3575" gradientUnits="userSpaceOnUse">
<stop stop-color="#FE7970"/>
<stop offset="1" stop-color="#DC3282"/>
</linearGradient>
</defs>
</svg>
