<svg width="24" height="24" viewBox="0 0 24 24" fill="none" xmlns="http://www.w3.org/2000/svg">
<path d="M21.8 16.95C21.8 17.368 21.569 17.731 21.217 17.918L12.527 22.802C12.351 22.934 12.131 23 11.9 23C11.669 23 11.449 22.934 11.273 22.802L2.583 17.918C2.40665 17.8253 2.25907 17.6861 2.15628 17.5154C2.0535 17.3448 1.99945 17.1492 2 16.95V7.05C2 6.632 2.231 6.269 2.583 6.082L11.273 1.198C11.449 1.066 11.669 1 11.9 1C12.131 1 12.351 1.066 12.527 1.198L21.217 6.082C21.569 6.269 21.8 6.632 21.8 7.05V16.95ZM12.34 4.68061C12.0624 4.54459 11.7376 4.54459 11.46 4.68061L5.85999 7.42461C5.51726 7.59255 5.3 7.94093 5.3 8.3226V15.6774C5.3 16.0591 5.51726 16.4075 5.85999 16.5754L11.46 19.3194C11.7376 19.4554 12.0624 19.4554 12.34 19.3194L17.94 16.5754C18.2828 16.4075 18.5 16.0591 18.5 15.6774V8.3226C18.5 7.94093 18.2828 7.59255 17.94 7.42461L12.34 4.68061Z" fill="url(#paint0_linear_928_44)"/>
<path d="M11.309 13.0347L15.909 15.6261C16.5756 16.0016 17.3998 15.5199 17.3998 14.7548V9.69217C17.3998 9.33067 17.2047 8.99732 16.8895 8.82029L12.2895 6.23662C11.6229 5.86222 10.7998 6.34396 10.7998 7.10851V12.1635C10.7998 12.5245 10.9944 12.8575 11.309 13.0347Z" fill="url(#paint1_linear_928_44)"/>
<defs>
<linearGradient id="paint0_linear_928_44" x1="11.9" y1="1" x2="9.35596" y2="22.7018" gradientUnits="userSpaceOnUse">
<stop stop-color="#A6FF70"/>
<stop offset="0.752309" stop-color="#FF913B"/>
<stop offset="1" stop-color="#FE3E02"/>
</linearGradient>
<linearGradient id="paint1_linear_928_44" x1="14.0998" y1="16.4659" x2="14.0998" y2="5.3999" gradientUnits="userSpaceOnUse">
<stop stop-color="#FD5900"/>
<stop offset="1" stop-color="#FFDE00"/>
</linearGradient>
</defs>
</svg>
