<svg width="16" height="16" viewBox="0 0 16 16" fill="none" xmlns="http://www.w3.org/2000/svg">
<path d="M13.5316 13.6789L14.6812 5.72399C14.7562 5.2045 14.4987 4.69345 14.0366 4.44462L8.54163 1.48583C8.16879 1.28508 7.71966 1.28673 7.34833 1.49023L1.95501 4.44563C1.49768 4.69624 1.24398 5.20445 1.31856 5.72062L2.46863 13.6789C2.55749 14.2939 3.08448 14.7502 3.70578 14.7502H12.2945C12.9157 14.7502 13.4427 14.2938 13.5316 13.6789Z" stroke="url(#paint0_linear_669_202)" stroke-width="1.8"/>
<path d="M7.93775 4.125C7.59506 4.125 7.2664 4.26114 7.02409 4.50345C6.78176 4.74577 6.64564 5.07443 6.64564 5.41713C6.64564 5.75981 6.78176 6.08848 7.02409 6.33079C7.2664 6.57311 7.59506 6.70924 7.93775 6.70924C8.28045 6.70924 8.6091 6.57311 8.85143 6.33079C9.09374 6.08848 9.22988 5.75981 9.22988 5.41713C9.22988 5.07443 9.09374 4.74577 8.85143 4.50345C8.6091 4.26114 8.28045 4.125 7.93775 4.125ZM11.8196 6.15686C11.7242 5.94516 11.5519 5.7776 11.3376 5.68806C11.1234 5.59854 10.8831 5.59371 10.6654 5.67457L10.0879 5.88906C10.043 5.90571 10.0024 5.93211 9.96899 5.96635C9.93559 6.0006 9.9102 6.04184 9.89468 6.08709C9.75479 6.49486 9.491 6.84875 9.14018 7.0993C8.78935 7.34985 8.36903 7.48453 7.93791 7.48453C7.50681 7.48453 7.08648 7.34985 6.73565 7.0993C6.38483 6.84875 6.12104 6.49486 5.98116 6.08709C5.96564 6.04184 5.94025 6.0006 5.90684 5.96635C5.87344 5.93211 5.83284 5.90571 5.78799 5.88906L5.22559 5.68006C5.00398 5.59786 4.75906 5.60517 4.54274 5.70046C4.32643 5.79576 4.15573 5.97154 4.0668 6.19054C3.97788 6.40955 3.97773 6.65458 4.06639 6.8737C4.15504 7.09281 4.32554 7.2688 4.54174 7.36435L5.85044 7.94141C5.94108 7.98139 5.99958 8.0711 5.99958 8.17016V9.65541C5.99958 9.80591 5.9724 9.95517 5.91935 10.096L5.21784 11.9585C5.13935 12.1633 5.14424 12.3907 5.23146 12.592C5.31869 12.7933 5.48129 12.9524 5.68443 13.0351C5.88755 13.1179 6.11504 13.1177 6.31809 13.0349C6.52115 12.9519 6.68361 12.7926 6.77065 12.5913L7.75136 10.3579C7.76599 10.3247 7.79001 10.2965 7.8205 10.2768C7.85098 10.2571 7.88655 10.2468 7.92283 10.2472C7.9591 10.2475 7.99449 10.2585 8.02459 10.2787C8.05469 10.299 8.07818 10.3276 8.09216 10.3611L9.02055 12.5794C9.10676 12.7929 9.27391 12.9636 9.48555 13.0544C9.69719 13.1451 9.93613 13.1485 10.1502 13.0638C10.3644 12.9791 10.5363 12.8131 10.6285 12.6021C10.7207 12.3911 10.7257 12.1522 10.6425 11.9375L9.95485 10.0951C9.90266 9.95526 9.87594 9.80724 9.87594 9.658V8.17151C9.87594 8.0716 9.93543 7.98129 10.0272 7.94184L11.3461 7.37501C11.4579 7.32697 11.559 7.25715 11.6436 7.16961C11.7281 7.08206 11.7943 6.97855 11.8384 6.86511C11.8825 6.75167 11.9036 6.63059 11.9003 6.50892C11.8971 6.38727 11.8697 6.26748 11.8196 6.15654V6.15686Z" fill="url(#paint1_linear_669_202)"/>
<defs>
<linearGradient id="paint0_linear_669_202" x1="8.00013" y1="14.1252" x2="8.00013" y2="1.87518" gradientUnits="userSpaceOnUse">
<stop stop-color="#C703E1"/>
<stop offset="1" stop-color="#FF00FF"/>
</linearGradient>
<linearGradient id="paint1_linear_669_202" x1="7.95046" y1="12.7056" x2="7.95046" y2="4.48648" gradientUnits="userSpaceOnUse">
<stop stop-color="#C703E1"/>
<stop offset="1" stop-color="#FF00FF"/>
</linearGradient>
</defs>
</svg>
