<svg width="48" height="48" viewBox="0 0 48 48" fill="none" xmlns="http://www.w3.org/2000/svg">
<path fill-rule="evenodd" clip-rule="evenodd" d="M39.0966 8.31721C35.1904 4.55489 29.8769 2.24316 24.0001 2.24316C13.8615 2.24316 5.38666 9.10846 2.94991 18.4631C2.64186 19.6457 3.58422 20.7364 4.8063 20.7364H9.82208C10.7341 20.7364 11.5157 20.1124 11.8462 19.2623C13.7752 14.301 18.5735 10.9499 24.0001 10.9459C24.359 10.9459 24.7137 10.9611 25.0661 10.9905C25.1033 10.9935 25.1401 10.9985 25.1768 11.0034C25.2067 11.0075 25.2365 11.0115 25.2663 11.0144C25.5644 11.0427 25.8613 11.0797 26.154 11.1286C26.1739 11.1321 26.1932 11.1361 26.2123 11.14C26.2299 11.1437 26.2473 11.1473 26.2649 11.1504C26.5782 11.2059 26.8894 11.2701 27.195 11.3473C27.2194 11.3534 27.2434 11.3598 27.2672 11.3662C27.286 11.3712 27.3047 11.3762 27.3234 11.381C27.628 11.4626 27.9293 11.5518 28.2263 11.653C28.2405 11.6579 28.2546 11.663 28.2688 11.6682C28.2829 11.6734 28.297 11.6785 28.3112 11.6834C28.6342 11.7966 28.953 11.9217 29.2652 12.0587C30.7473 12.7146 32.0889 13.644 33.2264 14.788C33.9318 15.4976 33.845 16.632 33.1375 17.3395L32.0033 18.4737C31.7553 18.7218 31.616 19.059 31.616 19.4104C31.616 20.137 32.2143 20.7354 32.941 20.7364H44.4308C45.1585 20.7364 45.7569 20.1381 45.7569 19.4104V7.9206C45.7569 7.20045 45.1705 6.6054 44.4504 6.59452C44.0925 6.59017 43.7465 6.7305 43.4941 6.98288L42.1138 8.3632C41.2879 9.18909 39.9379 9.12746 39.0966 8.31721ZM45.0501 29.537C45.3582 28.3544 44.4158 27.2637 43.1937 27.2637H38.1779C37.2659 27.2637 36.4844 27.8878 36.1539 28.7378C34.2248 33.6991 29.4265 37.0503 24 37.0542C23.641 37.0542 23.2863 37.039 22.9339 37.0096C22.8967 37.0066 22.8599 37.0017 22.8232 36.9967C22.7933 36.9927 22.7635 36.9886 22.7337 36.9857C22.4356 36.9574 22.1387 36.9204 21.846 36.8715C21.8261 36.8681 21.8069 36.8641 21.7877 36.8601C21.7702 36.8564 21.7527 36.8528 21.7351 36.8497C21.4218 36.7942 21.1107 36.7301 20.805 36.6528C20.7807 36.6467 20.7567 36.6403 20.7328 36.6339C20.714 36.6289 20.6953 36.6239 20.6766 36.6191C20.372 36.5375 20.0707 36.4483 19.7737 36.3471C19.7454 36.3373 19.7171 36.3265 19.6889 36.3167C19.3658 36.2035 19.047 36.0784 18.7348 35.9414C17.2524 35.2846 15.9153 34.3512 14.7802 33.2046C14.0765 32.4937 14.1635 31.3596 14.8709 30.6522L15.9967 29.5264C16.2448 29.2784 16.384 28.9411 16.384 28.5897C16.384 27.8631 15.7857 27.2648 15.059 27.2637H3.56924C2.84148 27.2637 2.24316 27.862 2.24316 28.5897V40.0795C2.24316 40.7997 2.82951 41.3947 3.54966 41.4056C3.90756 41.4099 4.25349 41.2696 4.50587 41.0172L5.88721 39.6359C6.71353 38.8096 8.06443 38.8718 8.90572 39.6828C12.8096 43.4465 18.1228 45.757 24 45.757C34.1386 45.757 42.6134 38.8917 45.0501 29.537Z" fill="url(#paint0_linear_1005_54)"/>
<defs>
<linearGradient id="paint0_linear_1005_54" x1="24" y1="45.757" x2="24" y2="2.24316" gradientUnits="userSpaceOnUse">
<stop stop-color="#5570FF"/>
<stop offset="1" stop-color="#4DD3FF"/>
</linearGradient>
</defs>
</svg>
