<svg width="16" height="16" viewBox="0 0 16 16" fill="none" xmlns="http://www.w3.org/2000/svg">
<g clip-path="url(#clip0_497_123)">
<path d="M1 8C1 4.9359 1 3.40385 2.0248 2.4516C3.051 1.5 4.7002 1.5 8 1.5C11.2998 1.5 12.9497 1.5 13.9745 2.4516C15 3.4045 15 4.9359 15 8C15 11.0641 15 12.5961 13.9745 13.5477C12.9504 14.5 11.2998 14.5 8 14.5C4.7002 14.5 3.0503 14.5 2.0248 13.5477C1 12.5968 1 11.0641 1 8Z" stroke="url(#paint0_linear_497_123)" stroke-width="1.8"/>
<path d="M12.6669 11.3412C12.6669 11.5378 12.5888 11.7263 12.4498 11.8653C12.3108 12.0043 12.1223 12.0824 11.9257 12.0824H7.98478C7.78825 12.0824 7.59972 12.0043 7.46072 11.8653C7.32172 11.7263 7.24365 11.5378 7.24365 11.3412C7.24365 11.1447 7.32172 10.9562 7.46072 10.8172C7.59972 10.6782 7.78825 10.6001 7.98478 10.6001H11.9257C12.1223 10.6001 12.3108 10.6782 12.4498 10.8172C12.5888 10.9562 12.6669 11.1447 12.6669 11.3412Z" fill="url(#paint1_linear_497_123)" stroke="url(#paint2_linear_497_123)" stroke-width="0.5"/>
<path fill-rule="evenodd" clip-rule="evenodd" d="M8.996 7.4529C9.11579 7.5194 9.20819 7.6244 9.2732 7.7294C9.3999 7.9464 9.38967 8.2124 9.26638 8.4469L9.0268 8.8669C8.90019 9.0909 8.66394 9.2309 8.42095 9.2309C8.30117 9.2309 8.16764 9.1959 8.05809 9.1259C7.9691 9.0664 7.86645 9.0454 7.75693 9.0454C7.41807 9.0454 7.13395 9.3359 7.12372 9.6824C7.12372 10.0849 6.8088 10.3999 6.41519 10.3999H5.94967C5.55263 10.3999 5.23773 10.0849 5.23773 9.6824C5.2309 9.3359 4.94678 9.0454 4.60792 9.0454C4.49495 9.0454 4.3923 9.0664 4.30673 9.1259C4.19718 9.1959 4.06025 9.2309 3.94389 9.2309C3.69744 9.2309 3.4613 9.0909 3.33465 8.8669L3.09845 8.4469C2.97183 8.2194 2.965 7.9464 3.09162 7.7294C3.14638 7.6244 3.24907 7.5194 3.36545 7.4529C3.4613 7.4039 3.5229 7.3234 3.58108 7.2289C3.75223 6.9279 3.64952 6.5324 3.35862 6.3539C3.01975 6.1544 2.9102 5.7099 3.10529 5.3634L3.33465 4.9504C3.53315 4.6039 3.9576 4.4814 4.2999 4.6844C4.59767 4.8524 4.98442 4.7404 5.15902 4.4429C5.21377 4.3449 5.24457 4.2399 5.23773 4.1349C5.2309 3.9984 5.26853 3.8689 5.33355 3.7639C5.4602 3.5469 5.68955 3.4069 5.9394 3.3999H6.42203C6.67529 3.3999 6.90465 3.5469 7.0313 3.7639C7.0929 3.8689 7.13395 3.9984 7.12372 4.1349C7.11685 4.2399 7.14768 4.3449 7.20245 4.4429C7.37699 4.7404 7.76377 4.8524 8.06492 4.6844C8.4038 4.4814 8.83168 4.6039 9.0268 4.9504L9.25614 5.3634C9.45468 5.7099 9.34513 6.1544 9.00283 6.3539C8.71189 6.5324 8.60917 6.9279 8.78382 7.2289C8.8385 7.3234 8.90019 7.4039 8.996 7.4529ZM6.14998 7.7749C6.63323 7.7749 7.02498 7.38315 7.02498 6.8999C7.02498 6.41666 6.63323 6.0249 6.14998 6.0249C5.66673 6.0249 5.27498 6.41666 5.27498 6.8999C5.27498 7.38315 5.66673 7.7749 6.14998 7.7749Z" fill="url(#paint3_linear_497_123)"/>
</g>
<defs>
<linearGradient id="paint0_linear_497_123" x1="8" y1="14.5" x2="8" y2="1.5" gradientUnits="userSpaceOnUse">
<stop stop-color="#5570FF"/>
<stop offset="1" stop-color="#4DD3FF"/>
</linearGradient>
<linearGradient id="paint1_linear_497_123" x1="9.95527" y1="12.0824" x2="9.95527" y2="10.6001" gradientUnits="userSpaceOnUse">
<stop stop-color="#5570FF"/>
<stop offset="1" stop-color="#4DD3FF"/>
</linearGradient>
<linearGradient id="paint2_linear_497_123" x1="9.95527" y1="12.0824" x2="9.95527" y2="10.6001" gradientUnits="userSpaceOnUse">
<stop stop-color="#5570FF"/>
<stop offset="1" stop-color="#4DD3FF"/>
</linearGradient>
<linearGradient id="paint3_linear_497_123" x1="6.18182" y1="10.3999" x2="6.18182" y2="3.3999" gradientUnits="userSpaceOnUse">
<stop stop-color="#5570FF"/>
<stop offset="1" stop-color="#4DD3FF"/>
</linearGradient>
<clipPath id="clip0_497_123">
<rect width="16" height="16" fill="white"/>
</clipPath>
</defs>
</svg>
