<svg width="128" height="128" viewBox="0 0 128 128" fill="none" xmlns="http://www.w3.org/2000/svg">
<path fill-rule="evenodd" clip-rule="evenodd" d="M76.8724 9.83034C78.182 9.05886 79.7356 8.81317 81.2194 9.14289L81.9279 9.30034C81.9771 9.31129 82.0262 9.32285 82.0752 9.33503C92.2685 11.8716 101.462 17.4192 108.457 25.2552C115.452 33.0911 119.925 42.8523 121.294 53.2669C121.328 53.526 121.345 53.7871 121.345 54.0485V109.157C121.345 111.793 120.298 114.32 118.435 116.183C116.571 118.047 114.044 119.094 111.408 119.094H16.9363C14.3011 119.094 11.7737 118.047 9.91029 116.183C8.04686 114.32 7 111.793 7 109.157V56.3316C7 56.2221 7.00299 56.1127 7.00898 56.0035C7.10061 54.3304 7.62403 52.7097 8.52826 51.2991C9.40116 49.9374 10.6002 48.8163 12.0154 48.037L76.8724 9.83034ZM19 60.3634V81.7032C20.8759 81.1494 22.8245 80.8625 24.7883 80.8543L24.809 80.8543C30.311 80.8543 35.5877 83.0399 39.4782 86.9305C43.3687 90.821 45.5544 96.0976 45.5544 101.6L45.5543 101.621C45.5465 103.487 45.2872 105.326 44.7955 107.094H109.345V60.3634H19ZM19 107.094V92.602C19.5348 92.2529 20.1009 91.9512 20.6921 91.7014C21.9985 91.1494 23.4013 90.8615 24.8194 90.8543C27.6655 90.857 30.3944 91.9888 32.4071 94.0015C34.4198 96.0142 35.5516 98.7432 35.5544 101.589C35.5442 103.547 35.0003 105.446 34.004 107.094H19ZM107.998 48.3634C106.306 42.7928 103.417 37.629 99.505 33.2466C94.4951 27.6347 88.0223 23.546 80.8274 21.4279L35.1035 48.3634H107.998ZM73.109 81.918C73.109 78.1575 76.1575 75.109 79.918 75.109C83.6785 75.109 86.727 78.1575 86.727 81.918C86.727 85.6785 83.6785 88.727 79.918 88.727C76.1575 88.727 73.109 85.6785 73.109 81.918ZM79.918 65.109C70.6346 65.109 63.109 72.6346 63.109 81.918C63.109 91.2014 70.6346 98.727 79.918 98.727C89.2014 98.727 96.727 91.2014 96.727 81.918C96.727 72.6346 89.2014 65.109 79.918 65.109Z" fill="url(#paint0_linear_820_2)"/>
<defs>
<linearGradient id="paint0_linear_820_2" x1="14.7564" y1="87.9243" x2="117.715" y2="61.6097" gradientUnits="userSpaceOnUse">
<stop stop-color="#F5F013"/>
<stop offset="1" stop-color="#F9A60D"/>
</linearGradient>
</defs>
</svg>
