<svg width="16" height="16" viewBox="0 0 16 16" fill="none" xmlns="http://www.w3.org/2000/svg">
<path d="M6.86148 13.044L6.90959 12.8116C6.96097 12.5633 6.77141 12.3305 6.51789 12.3305H6.28058H3.6002C3.37928 12.3305 3.2002 12.1514 3.2002 11.9305V9.80608C3.2002 9.5454 3.44562 9.35516 3.70187 9.40296C3.98427 9.45563 4.22534 9.48305 4.38664 9.48305C5.20481 9.48305 5.86969 8.81817 5.86969 8C5.86969 7.18183 5.20481 6.51695 4.38664 6.51695C4.22534 6.51695 3.98427 6.54437 3.70187 6.59704C3.44562 6.64484 3.2002 6.4546 3.2002 6.19393V4.06949C3.2002 3.84858 3.37928 3.66949 3.6002 3.66949H6.28058H6.51789C6.77141 3.66949 6.96097 3.43666 6.90959 3.18841L6.86148 2.95601C6.79229 2.6217 6.75952 2.34974 6.75952 2.18644C6.75952 1.53256 7.29206 1 7.94596 1C8.59985 1 9.1324 1.53256 9.1324 2.18644C9.1324 2.34974 9.09963 2.6217 9.03044 2.95601L8.98233 3.18841C8.93094 3.43666 9.12051 3.66949 9.37403 3.66949H9.61134H12.2917C12.5126 3.66949 12.6917 3.84858 12.6917 4.06949V6.19392C12.6917 6.4546 12.4463 6.64484 12.19 6.59704C11.9076 6.54437 11.6666 6.51695 11.5053 6.51695C10.6871 6.51695 10.0222 7.18183 10.0222 8C10.0222 8.81817 10.6871 9.48305 11.5053 9.48305C11.6666 9.48305 11.9076 9.45563 12.19 9.40296C12.4463 9.35516 12.6917 9.5454 12.6917 9.80607V11.9305C12.6917 12.1514 12.5126 12.3305 12.2917 12.3305H9.61134H9.37403C9.12053 12.3305 8.93097 12.5633 8.98233 12.8116L9.03041 13.0439C9.09961 13.3783 9.1324 13.6503 9.1324 13.8136C9.1324 14.4675 8.59985 15 7.94596 15C7.29206 15 6.75952 14.4675 6.75952 13.8136C6.75952 13.6503 6.79229 13.3783 6.86148 13.044Z" stroke="url(#paint0_linear_659_164)" stroke-width="1.8"/>
<defs>
<linearGradient id="paint0_linear_659_164" x1="7.94596" y1="15.5932" x2="7.94596" y2="0.40678" gradientUnits="userSpaceOnUse">
<stop stop-color="#02AA93"/>
<stop offset="1" stop-color="#67FF80"/>
</linearGradient>
</defs>
</svg>
