<svg width="64" height="64" viewBox="0 0 64 64" fill="none" xmlns="http://www.w3.org/2000/svg">
<path d="M4 16.8333V47.1667C4.00371 50.5691 5.35698 53.8312 7.76289 56.2371C10.1688 58.643 13.4309 59.9963 16.8333 60H47.1667C50.5691 59.9963 53.8312 58.643 56.2371 56.2371C58.643 53.8312 59.9963 50.5691 60 47.1667V16.8333C59.9963 13.4309 58.643 10.1688 56.2371 7.76289C53.8312 5.35698 50.5691 4.00371 47.1667 4H16.8333C13.4309 4.00371 10.1688 5.35698 7.76289 7.76289C5.35698 10.1688 4.00371 13.4309 4 16.8333ZM28.3333 53C27.781 53 27.3333 52.5523 27.3333 52V49.3333C27.3333 48.7811 27.781 48.3333 28.3333 48.3333H35.6667C36.219 48.3333 36.6667 48.7811 36.6667 49.3333V52C36.6667 52.5523 36.2189 53 35.6667 53H28.3333ZM27.5 22.6667C28.0523 22.6667 28.5 23.1144 28.5 23.6667V40.3333C28.5 40.8856 28.0523 41.3333 27.5 41.3333H12C11.4477 41.3333 11 40.8856 11 40.3333V23.6667C11 23.1144 11.4477 22.6667 12 22.6667H27.5ZM36.5 41.3333C35.9477 41.3333 35.5 40.8856 35.5 40.3333V23.6667C35.5 23.1144 35.9477 22.6667 36.5 22.6667H52C52.5523 22.6667 53 23.1144 53 23.6667V40.3333C53 40.8856 52.5523 41.3333 52 41.3333H36.5ZM28.3333 15.6667C27.781 15.6667 27.3333 15.219 27.3333 14.6667V12C27.3333 11.4477 27.781 11 28.3333 11H35.6667C36.219 11 36.6667 11.4477 36.6667 12V14.6667C36.6667 15.219 36.2189 15.6667 35.6667 15.6667H28.3333ZM16.8333 11H19.3333C19.8856 11 20.3333 11.4477 20.3333 12V14.6667C20.3333 15.219 19.8856 15.6667 19.3333 15.6667H12.3437C11.7111 15.6667 11.2347 15.0809 11.4877 14.5011C11.8561 13.6564 12.422 12.9055 13.1447 12.3152C14.186 11.4649 15.489 11.0003 16.8333 11ZM11.4877 49.4989C11.2347 48.9191 11.7111 48.3333 12.3437 48.3333H19.3333C19.8856 48.3333 20.3333 48.7811 20.3333 49.3333V52C20.3333 52.5523 19.8856 53 19.3333 53H16.8333C15.489 52.9997 14.186 52.5351 13.1447 51.6848C12.422 51.0945 11.8561 50.3436 11.4877 49.4989ZM47.1667 53H44.6667C44.1144 53 43.6667 52.5523 43.6667 52V49.3333C43.6667 48.7811 44.1144 48.3333 44.6667 48.3333H51.6563C52.2889 48.3333 52.7653 48.9191 52.5123 49.4989C52.1439 50.3436 51.578 51.0945 50.8553 51.6848C49.814 52.5351 48.511 52.9997 47.1667 53ZM52.5123 14.5011C52.7653 15.0809 52.2889 15.6667 51.6563 15.6667H44.6667C44.1144 15.6667 43.6667 15.219 43.6667 14.6667V12C43.6667 11.4477 44.1144 11 44.6667 11H47.1667C48.511 11.0003 49.814 11.4649 50.8553 12.3152C51.578 12.9055 52.1439 13.6564 52.5123 14.5011Z" fill="url(#paint0_linear_911_49)"/>
<defs>
<linearGradient id="paint0_linear_911_49" x1="14.15" y1="53.3889" x2="64.6487" y2="9.32786" gradientUnits="userSpaceOnUse">
<stop stop-color="#FE0844"/>
<stop offset="1" stop-color="#FEB302"/>
</linearGradient>
</defs>
</svg>
