<svg width="16" height="16" viewBox="0 0 16 16" fill="none" xmlns="http://www.w3.org/2000/svg">
<path fill-rule="evenodd" clip-rule="evenodd" d="M0.5 8.64286C0.5 10.2208 1.77919 11.5 3.35714 11.5H3.49763C3.85505 11.5 4.19948 11.634 4.46295 11.8755L6.5552 13.7934C6.95077 14.156 7.46789 14.3571 8.00451 14.3571C8.89957 14.3571 9.74954 13.7869 9.97152 12.843C10.2074 11.84 10.5 10.1486 10.5 7.92857C10.5 5.70851 10.2074 4.01717 9.97152 3.0141C9.74954 2.07027 8.89957 1.5 8.00451 1.5C7.46789 1.5 6.95077 1.70115 6.5552 2.06376L4.46295 3.98165C4.19948 4.22316 3.85505 4.35714 3.49763 4.35714H3.35714C1.77919 4.35714 0.5 5.63633 0.5 7.21429V8.64286ZM3.35714 10.0714C2.56816 10.0714 1.92857 9.43184 1.92857 8.64286V7.21429C1.92857 6.42531 2.56816 5.78571 3.35714 5.78571H3.49763C4.21247 5.78571 4.90133 5.51776 5.42827 5.03473L7.52052 3.11683C7.65262 2.99574 7.82531 2.92857 8.00451 2.92857C8.31254 2.92857 8.52743 3.11383 8.58089 3.34115C8.7953 4.25281 9.07143 5.83373 9.07143 7.92857C9.07143 10.0234 8.7953 11.6043 8.58089 12.516C8.52743 12.7433 8.31254 12.9286 8.00451 12.9286C7.82531 12.9286 7.65262 12.8614 7.52052 12.7403L5.42827 10.8224C4.90133 10.3394 4.21247 10.0714 3.49763 10.0714H3.35714Z" fill="url(#paint0_linear_497_404)"/>
<path d="M13.7659 3.71148C14.1225 3.54276 14.5484 3.69507 14.7171 4.05166C15.2462 5.16994 15.4985 6.56025 15.5 7.92061C15.5015 9.28101 15.2522 10.6771 14.7168 11.8061C14.5478 12.1625 14.1218 12.3144 13.7654 12.1454C13.4089 11.9764 13.257 11.5504 13.426 11.194C13.8487 10.3027 14.0727 9.12789 14.0714 7.92217C14.0701 6.71642 13.8434 5.54541 13.4258 4.66263C13.257 4.30603 13.4094 3.88019 13.7659 3.71148Z" fill="url(#paint1_linear_497_404)"/>
<path d="M11.6091 10.7103C11.2563 10.5339 11.1133 10.1048 11.2897 9.75199C11.9034 8.52451 11.9034 7.33263 11.2897 6.10515C11.1133 5.75231 11.2563 5.32326 11.6091 5.14684C11.962 4.97042 12.391 5.11343 12.5674 5.46628C13.3823 7.09594 13.3823 8.7612 12.5674 10.3909C12.391 10.7437 11.962 10.8867 11.6091 10.7103Z" fill="url(#paint2_linear_497_404)"/>
<path fill-rule="evenodd" clip-rule="evenodd" d="M0.5 8.64286C0.5 10.2208 1.77919 11.5 3.35714 11.5H3.49763C3.85505 11.5 4.19948 11.634 4.46295 11.8755L6.5552 13.7934C6.95077 14.156 7.46789 14.3571 8.00451 14.3571C8.89957 14.3571 9.74954 13.7869 9.97152 12.843C10.2074 11.84 10.5 10.1486 10.5 7.92857C10.5 5.70851 10.2074 4.01717 9.97152 3.0141C9.74954 2.07027 8.89957 1.5 8.00451 1.5C7.46789 1.5 6.95077 1.70115 6.5552 2.06376L4.46295 3.98165C4.19948 4.22316 3.85505 4.35714 3.49763 4.35714H3.35714C1.77919 4.35714 0.5 5.63633 0.5 7.21429V8.64286ZM3.35714 10.0714C2.56816 10.0714 1.92857 9.43184 1.92857 8.64286V7.21429C1.92857 6.42531 2.56816 5.78571 3.35714 5.78571H3.49763C4.21247 5.78571 4.90133 5.51776 5.42827 5.03473L7.52052 3.11683C7.65262 2.99574 7.82531 2.92857 8.00451 2.92857C8.31254 2.92857 8.52743 3.11383 8.58089 3.34115C8.7953 4.25281 9.07143 5.83373 9.07143 7.92857C9.07143 10.0234 8.7953 11.6043 8.58089 12.516C8.52743 12.7433 8.31254 12.9286 8.00451 12.9286C7.82531 12.9286 7.65262 12.8614 7.52052 12.7403L5.42827 10.8224C4.90133 10.3394 4.21247 10.0714 3.49763 10.0714H3.35714Z" stroke="url(#paint3_linear_497_404)" stroke-width="0.6"/>
<path d="M13.7659 3.71148C14.1225 3.54276 14.5484 3.69507 14.7171 4.05166C15.2462 5.16994 15.4985 6.56025 15.5 7.92061C15.5015 9.28101 15.2522 10.6771 14.7168 11.8061C14.5478 12.1625 14.1218 12.3144 13.7654 12.1454C13.4089 11.9764 13.257 11.5504 13.426 11.194C13.8487 10.3027 14.0727 9.12789 14.0714 7.92217C14.0701 6.71642 13.8434 5.54541 13.4258 4.66263C13.257 4.30603 13.4094 3.88019 13.7659 3.71148Z" stroke="url(#paint4_linear_497_404)" stroke-width="0.6"/>
<path d="M11.6091 10.7103C11.2563 10.5339 11.1133 10.1048 11.2897 9.75199C11.9034 8.52451 11.9034 7.33263 11.2897 6.10515C11.1133 5.75231 11.2563 5.32326 11.6091 5.14684C11.962 4.97042 12.391 5.11343 12.5674 5.46628C13.3823 7.09594 13.3823 8.7612 12.5674 10.3909C12.391 10.7437 11.962 10.8867 11.6091 10.7103Z" stroke="url(#paint5_linear_497_404)" stroke-width="0.6"/>
<defs>
<linearGradient id="paint0_linear_497_404" x1="0.502197" y1="7.73807" x2="15.5025" y2="7.73807" gradientUnits="userSpaceOnUse">
<stop stop-color="#A93AFF"/>
<stop offset="1" stop-color="#FF81FF"/>
</linearGradient>
<linearGradient id="paint1_linear_497_404" x1="0.502197" y1="7.73807" x2="15.5025" y2="7.73807" gradientUnits="userSpaceOnUse">
<stop stop-color="#A93AFF"/>
<stop offset="1" stop-color="#FF81FF"/>
</linearGradient>
<linearGradient id="paint2_linear_497_404" x1="0.502197" y1="7.73807" x2="15.5025" y2="7.73807" gradientUnits="userSpaceOnUse">
<stop stop-color="#A93AFF"/>
<stop offset="1" stop-color="#FF81FF"/>
</linearGradient>
<linearGradient id="paint3_linear_497_404" x1="0.502197" y1="7.73807" x2="15.5025" y2="7.73807" gradientUnits="userSpaceOnUse">
<stop stop-color="#A93AFF"/>
<stop offset="1" stop-color="#FF81FF"/>
</linearGradient>
<linearGradient id="paint4_linear_497_404" x1="0.502197" y1="7.73807" x2="15.5025" y2="7.73807" gradientUnits="userSpaceOnUse">
<stop stop-color="#A93AFF"/>
<stop offset="1" stop-color="#FF81FF"/>
</linearGradient>
<linearGradient id="paint5_linear_497_404" x1="0.502197" y1="7.73807" x2="15.5025" y2="7.73807" gradientUnits="userSpaceOnUse">
<stop stop-color="#A93AFF"/>
<stop offset="1" stop-color="#FF81FF"/>
</linearGradient>
</defs>
</svg>
