<svg width="24" height="24" viewBox="0 0 24 24" fill="none" xmlns="http://www.w3.org/2000/svg">
<path d="M6.44765 6.28244C6.61602 6.12883 6.71725 5.91518 6.72951 5.6876C6.74177 5.46001 6.66407 5.23673 6.51317 5.06592C6.36227 4.89512 6.15027 4.79048 5.92291 4.77458C5.69555 4.75869 5.47105 4.83281 5.29786 4.98096C4.21879 5.93075 3.35471 7.09977 2.76329 8.41C2.17187 9.72023 1.86671 11.1415 1.86817 12.579C1.86817 12.8094 1.95967 13.0302 2.12253 13.1931C2.28539 13.356 2.50627 13.4475 2.73659 13.4475C2.96691 13.4475 3.1878 13.356 3.35066 13.1931C3.51352 13.0302 3.60502 12.8094 3.60502 12.579C3.60351 11.3877 3.85631 10.2097 4.34652 9.12385C4.83673 8.03799 5.55307 7.06928 6.44765 6.28244ZM18.7017 4.98096C18.5285 4.83281 18.304 4.75869 18.0766 4.77458C17.8493 4.79048 17.6373 4.89512 17.4864 5.06592C17.3355 5.23673 17.2578 5.46001 17.27 5.6876C17.2823 5.91518 17.3835 6.12883 17.5519 6.28244C18.4465 7.06928 19.1628 8.03799 19.653 9.12385C20.1432 10.2097 20.396 11.3877 20.3945 12.579C20.3945 12.8094 20.486 13.0302 20.6489 13.1931C20.8117 13.356 21.0326 13.4475 21.2629 13.4475C21.4933 13.4475 21.7142 13.356 21.877 13.1931C22.0399 13.0302 22.1314 12.8094 22.1314 12.579C22.1328 11.1415 21.8277 9.72023 21.2363 8.41C20.6448 7.09977 19.7808 5.93075 18.7017 4.98096ZM9.90049 20.7098C9.78891 20.6776 9.67201 20.6682 9.55671 20.682C9.44142 20.6958 9.33006 20.7326 9.22924 20.7902C9.12841 20.8478 9.04016 20.9251 8.96971 21.0174C8.89926 21.1097 8.84804 21.2152 8.81907 21.3276C8.79011 21.4401 8.78399 21.5572 8.80108 21.6721C8.81817 21.7869 8.85812 21.8972 8.91857 21.9963C8.97902 22.0955 9.05874 22.1815 9.15302 22.2493C9.24729 22.3171 9.35421 22.3653 9.46744 22.391C11.1286 22.8186 12.871 22.8186 14.5321 22.391C14.6453 22.3653 14.7523 22.3171 14.8465 22.2493C14.9408 22.1815 15.0205 22.0955 15.081 21.9963C15.1414 21.8972 15.1814 21.7869 15.1985 21.6721C15.2156 21.5572 15.2094 21.4401 15.1805 21.3276C15.1515 21.2152 15.1003 21.1097 15.0298 21.0174C14.9594 20.9251 14.8711 20.8478 14.7703 20.7902C14.6695 20.7326 14.5581 20.6958 14.4428 20.682C14.3275 20.6682 14.2106 20.6776 14.0991 20.7098C13.4132 20.8858 12.7079 20.9745 11.9998 20.9738C11.2918 20.9739 10.5865 20.8852 9.90049 20.7098Z" fill="url(#paint0_linear_479_230)"/>
<path d="M8.52632 4.47368C8.52632 5.39496 8.89229 6.27851 9.54373 6.92995C10.1952 7.58139 11.0787 7.94737 12 7.94737C12.9213 7.94737 13.8048 7.58139 14.4563 6.92995C15.1077 6.27851 15.4737 5.39496 15.4737 4.47368C15.4737 3.55241 15.1077 2.66886 14.4563 2.01742C13.8048 1.36598 12.9213 1 12 1C11.0787 1 10.1952 1.36598 9.54373 2.01742C8.89229 2.66886 8.52632 3.55241 8.52632 4.47368ZM1 18.3684C1 18.8246 1.08985 19.2763 1.26442 19.6977C1.43899 20.1192 1.69486 20.5021 2.01742 20.8247C2.33998 21.1472 2.72292 21.4031 3.14436 21.5777C3.56581 21.7523 4.01751 21.8421 4.47368 21.8421C4.92985 21.8421 5.38156 21.7523 5.80301 21.5777C6.22445 21.4031 6.60739 21.1472 6.92995 20.8247C7.25251 20.5021 7.50838 20.1192 7.68295 19.6977C7.85752 19.2763 7.94737 18.8246 7.94737 18.3684C7.94737 17.4471 7.58139 16.5636 6.92995 15.9122C6.27851 15.2607 5.39496 14.8947 4.47368 14.8947C3.55241 14.8947 2.66886 15.2607 2.01742 15.9122C1.36598 16.5636 1 17.4471 1 18.3684ZM19.5263 21.8421C18.605 21.8421 17.7215 21.4761 17.07 20.8247C16.4186 20.1732 16.0526 19.2897 16.0526 18.3684C16.0526 17.4471 16.4186 16.5636 17.07 15.9122C17.7215 15.2607 18.605 14.8947 19.5263 14.8947C20.4476 14.8947 21.3311 15.2607 21.9826 15.9122C22.634 16.5636 23 17.4471 23 18.3684C23 19.2897 22.634 20.1732 21.9826 20.8247C21.3311 21.4761 20.4476 21.8421 19.5263 21.8421Z" fill="url(#paint1_linear_479_230)"/>
<defs>
<linearGradient id="paint0_linear_479_230" x1="11.9998" y1="22.7117" x2="11.9998" y2="4.77246" gradientUnits="userSpaceOnUse">
<stop stop-color="#02AA93"/>
<stop offset="1" stop-color="#67FF80"/>
</linearGradient>
<linearGradient id="paint1_linear_479_230" x1="12" y1="21.8421" x2="12" y2="0.999999" gradientUnits="userSpaceOnUse">
<stop stop-color="#02AA93"/>
<stop offset="1" stop-color="#67FF80"/>
</linearGradient>
</defs>
</svg>
