<svg width="64" height="64" viewBox="0 0 64 64" fill="none" xmlns="http://www.w3.org/2000/svg">
<path fill-rule="evenodd" clip-rule="evenodd" d="M10.3077 3C8.36957 3 6.51083 3.76992 5.14037 5.14037C3.76992 6.51083 3 8.36957 3 10.3077V53.3846C3 55.3227 3.76992 57.1815 5.14037 58.5519C6.51083 59.9224 8.36957 60.6923 10.3077 60.6923H53.3846C55.3227 60.6923 57.1815 59.9224 58.5519 58.5519C59.9224 57.1815 60.6923 55.3227 60.6923 53.3846V10.3077C60.6923 8.36957 59.9224 6.51083 58.5519 5.14037C57.1815 3.76992 55.3227 3 53.3846 3H10.3077ZM9.38301 9.38301C9.62825 9.13777 9.96087 9 10.3077 9H53.3846C53.7314 9 54.064 9.13777 54.3093 9.38301C54.5545 9.62826 54.6923 9.96087 54.6923 10.3077V53.3846C54.6923 53.7314 54.5545 54.064 54.3093 54.3093C54.064 54.5545 53.7314 54.6923 53.3846 54.6923H10.3077C9.96087 54.6923 9.62826 54.5545 9.38301 54.3093C9.13777 54.064 9 53.7314 9 53.3846V10.3077C9 9.96087 9.13777 9.62825 9.38301 9.38301ZM20.3586 14.487C18.7018 14.487 17.3586 15.8301 17.3586 17.487C17.3586 19.1439 18.7018 20.487 20.3586 20.487H43.333C44.9898 20.487 46.333 19.1439 46.333 17.487C46.333 15.8301 44.9898 14.487 43.333 14.487H20.3586ZM34.8458 26.1024C34.8458 24.4455 33.5027 23.1024 31.8458 23.1024C30.1889 23.1024 28.8458 24.4455 28.8458 26.1024V37.0057C28.8458 38.7875 26.6915 39.6798 25.4316 38.4199L22.4799 35.4682C21.3084 34.2967 19.4089 34.2967 18.2373 35.4682C17.0657 36.6398 17.0657 38.5393 18.2373 39.7109L29.7245 51.1981C30.8961 52.3696 32.7956 52.3696 33.9671 51.1981L45.4543 39.7109C46.6259 38.5393 46.6259 36.6398 45.4543 35.4682C44.2827 34.2967 42.3832 34.2967 41.2117 35.4682L38.26 38.4199C37.0001 39.6798 34.8458 38.7875 34.8458 37.0057V26.1024Z" fill="url(#paint0_linear_945_41)"/>
<defs>
<linearGradient id="paint0_linear_945_41" x1="31.8462" y1="60.6923" x2="31.8462" y2="3" gradientUnits="userSpaceOnUse">
<stop stop-color="#5570FF"/>
<stop offset="1" stop-color="#4DD3FF"/>
</linearGradient>
</defs>
</svg>
