<svg width="16" height="16" viewBox="0 0 16 16" fill="none" xmlns="http://www.w3.org/2000/svg">
<path d="M5.98014 14.6668H9.98014C13.3135 14.6668 14.6468 13.3335 14.6468 10.0002V6.00016C14.6468 2.66683 13.3135 1.3335 9.98014 1.3335H5.98014C2.64681 1.3335 1.31348 2.66683 1.31348 6.00016V10.0002C1.31348 13.3335 2.64681 14.6668 5.98014 14.6668Z" stroke="url(#paint0_linear_564_523)" stroke-width="1.8" stroke-linecap="round" stroke-linejoin="round"/>
<path fill-rule="evenodd" clip-rule="evenodd" d="M6.85639 4.8343C6.76476 4.52885 6.48999 4.31475 6.17141 4.30055C5.85282 4.28636 5.5601 4.47518 5.44167 4.77127L4.48653 7.15912C4.45615 7.23505 4.38261 7.28484 4.30083 7.28484H3.75C3.33579 7.28484 3 7.62063 3 8.03484C3 8.44905 3.33579 8.78484 3.75 8.78484H4.94401C5.25069 8.78484 5.52647 8.59813 5.64037 8.31338L5.82408 7.85412C5.89439 7.67833 6.14693 7.68958 6.20134 7.87093L7.21067 11.2354C7.30231 11.5408 7.57708 11.7549 7.89566 11.7691C8.21424 11.7833 8.50697 11.5945 8.6254 11.2984L9.61175 8.83255C9.62327 8.80373 9.65118 8.78484 9.68221 8.78484V8.78484C9.71184 8.78484 9.73864 8.80216 9.75176 8.82873C10.0447 9.4219 10.6557 9.82989 11.362 9.82989C12.3532 9.82989 13.1567 9.02635 13.1567 8.03513C13.1567 7.04391 12.3532 6.24037 11.362 6.24037C10.6842 6.24037 10.0942 6.61606 9.7888 7.17056C9.75115 7.23893 9.68109 7.28484 9.60304 7.28484H9.12306C8.81638 7.28484 8.5406 7.47155 8.4267 7.7563L8.24299 8.21556C8.17268 8.39136 7.92014 8.3801 7.86573 8.19875L6.85639 4.8343ZM11.0672 8.03513C11.0672 7.87234 11.1992 7.74037 11.362 7.74037C11.5248 7.74037 11.6567 7.87234 11.6567 8.03513C11.6567 8.19792 11.5248 8.32989 11.362 8.32989C11.1992 8.32989 11.0672 8.19792 11.0672 8.03513Z" fill="url(#paint1_linear_564_523)"/>
<defs>
<linearGradient id="paint0_linear_564_523" x1="7.98014" y1="14.6668" x2="7.98014" y2="1.3335" gradientUnits="userSpaceOnUse">
<stop stop-color="#A93AFF"/>
<stop offset="1" stop-color="#FF81FF"/>
</linearGradient>
<linearGradient id="paint1_linear_564_523" x1="8.07837" y1="11.7699" x2="8.07837" y2="4.2998" gradientUnits="userSpaceOnUse">
<stop stop-color="#A93AFF"/>
<stop offset="1" stop-color="#FF81FF"/>
</linearGradient>
</defs>
</svg>
