<svg width="128" height="128" viewBox="0 0 128 128" fill="none" xmlns="http://www.w3.org/2000/svg">
<path fill-rule="evenodd" clip-rule="evenodd" d="M38.0435 15.3813C36.7347 15.3813 35.4795 15.9013 34.554 16.8267C33.6286 17.7522 33.1087 19.0074 33.1087 20.3161V39.2659C33.1087 40.5747 33.6286 41.8299 34.554 42.7553C35.4795 43.6808 36.7347 44.2007 38.0435 44.2007C39.3523 44.2007 40.6075 43.6808 41.5329 42.7553C42.4584 41.8299 42.9783 40.5747 42.9783 39.2659V20.3161C42.9783 19.0074 42.4584 17.7522 41.5329 16.8267C40.6075 15.9013 39.3523 15.3813 38.0435 15.3813ZM26.7922 28.0146H18.2895L18.2747 28.0148C17.3031 28.031 16.3442 28.2385 15.4527 28.6254C14.5614 29.0123 13.7549 29.571 13.0795 30.2695C12.404 30.9682 11.8728 31.793 11.5162 32.6969C11.1616 33.5958 10.9865 34.5555 11.0008 35.5217V106.176C10.9865 107.142 11.1616 108.101 11.5162 109C11.8728 109.904 12.404 110.73 13.0795 111.428C13.7549 112.127 14.5614 112.686 15.4527 113.072C16.3442 113.459 17.3031 113.666 18.2747 113.683H18.2895H108.331H108.345C109.317 113.666 110.276 113.459 111.167 113.072C112.059 112.686 112.864 112.127 113.54 111.428C114.215 110.73 114.747 109.904 115.104 109C115.458 108.101 115.633 107.142 115.619 106.176V53.0316C115.619 50.1555 112.553 48.6894 110.279 49.7183C109.618 50.0173 108.943 50.2832 108.255 50.5148C106.831 50.9945 105.749 52.3274 105.749 53.9493V103.814H20.8705V37.8842H26.7922C28.7546 37.8842 30.3453 36.2934 30.3453 34.3311V31.5676C30.3453 29.6053 28.7546 28.0146 26.7922 28.0146ZM49.2948 28.0146C47.3325 28.0146 45.7418 29.6053 45.7418 31.5676V34.3311C45.7418 36.2934 47.3325 37.8842 49.2948 37.8842H76.0608C78.4635 37.8842 80.0094 35.6381 79.6332 33.5125C79.5105 32.8196 79.4213 32.1209 79.3661 31.4192C79.2229 29.6039 77.7401 28.0146 75.7523 28.0146H49.2948ZM31.3321 48.1486C29.3699 48.1486 27.7791 49.7394 27.7791 51.7016V58.8078C27.7791 60.7701 29.3699 62.3609 31.3321 62.3609H38.4383C40.4005 62.3609 41.9913 60.7701 41.9913 58.8078V51.7016C41.9913 49.7394 40.4005 48.1486 38.4383 48.1486H31.3321ZM50.282 48.1486C48.3197 48.1486 46.7289 49.7394 46.7289 51.7016V58.8078C46.7289 60.7701 48.3197 62.3609 50.282 62.3609H57.3881C59.3504 62.3609 60.9412 60.7701 60.9412 58.8078V51.7016C60.9412 49.7394 59.3504 48.1486 57.3881 48.1486H50.282ZM69.2316 48.1486C67.2693 48.1486 65.6785 49.7394 65.6785 51.7016V58.8078C65.6785 60.7701 67.2693 62.3609 69.2316 62.3609H76.3377C78.3001 62.3609 79.8908 60.7701 79.8908 58.8078V51.7016C79.8908 49.7394 78.3001 48.1486 76.3377 48.1486H69.2316ZM88.1812 48.1486C86.219 48.1486 84.6282 49.7394 84.6282 51.7016V58.8078C84.6282 60.7701 86.219 62.3609 88.1812 62.3609H95.2874C97.2496 62.3609 98.8405 60.7701 98.8405 58.8078V51.7016C98.8405 49.7394 97.2496 48.1486 95.2874 48.1486H88.1812ZM31.3321 63.9399C29.3699 63.9399 27.7791 65.5307 27.7791 67.493V74.5991C27.7791 76.5614 29.3699 78.1522 31.3321 78.1522H38.4383C40.4005 78.1522 41.9913 76.5614 41.9913 74.5991V67.493C41.9913 65.5307 40.4005 63.9399 38.4383 63.9399H31.3321ZM50.282 63.9399C48.3197 63.9399 46.7289 65.5307 46.7289 67.493V74.5991C46.7289 76.5614 48.3197 78.1522 50.282 78.1522H57.3881C59.3504 78.1522 60.9412 76.5614 60.9412 74.5991V67.493C60.9412 65.5307 59.3504 63.9399 57.3881 63.9399H50.282ZM69.2316 63.9399C67.2693 63.9399 65.6785 65.5307 65.6785 67.493V74.5991C65.6785 76.5614 67.2693 78.1522 69.2316 78.1522H76.3377C78.3001 78.1522 79.8908 76.5614 79.8908 74.5991V67.493C79.8908 65.5307 78.3001 63.9399 76.3377 63.9399H69.2316ZM88.1812 63.9399C86.219 63.9399 84.6282 65.5307 84.6282 67.493V74.5991C84.6282 76.5614 86.219 78.1522 88.1812 78.1522H95.2874C97.2496 78.1522 98.8405 76.5614 98.8405 74.5991V67.493C98.8405 65.5307 97.2496 63.9399 95.2874 63.9399H88.1812ZM31.3321 79.7314C29.3699 79.7314 27.7791 81.3222 27.7791 83.2844V90.3906C27.7791 92.3529 29.3699 93.9436 31.3321 93.9436H38.4383C40.4005 93.9436 41.9913 92.3529 41.9913 90.3906V83.2844C41.9913 81.3222 40.4005 79.7314 38.4383 79.7314H31.3321ZM50.282 79.7314C48.3197 79.7314 46.7289 81.3222 46.7289 83.2844V90.3906C46.7289 92.3529 48.3197 93.9436 50.282 93.9436H57.3881C59.3504 93.9436 60.9412 92.3529 60.9412 90.3906V83.2844C60.9412 81.3222 59.3504 79.7314 57.3881 79.7314H50.282ZM69.2316 79.7314C67.2693 79.7314 65.6785 81.3222 65.6785 83.2844V90.3906C65.6785 92.3529 67.2693 93.9436 69.2316 93.9436H76.3377C78.3001 93.9436 79.8908 92.3529 79.8908 90.3906V83.2844C79.8908 81.3222 78.3001 79.7314 76.3377 79.7314H69.2316ZM88.1812 79.7314C86.219 79.7314 84.6282 81.3222 84.6282 83.2844V90.3906C84.6282 92.3529 86.219 93.9436 88.1812 93.9436H95.2874C97.2496 93.9436 98.8405 92.3529 98.8405 90.3906V83.2844C98.8405 81.3222 97.2496 79.7314 95.2874 79.7314H88.1812Z" fill="url(#paint0_linear_724_115)"/>
<path d="M101.21 45.5828C109.931 45.5828 117 38.5128 117 29.7914C117 21.07 109.931 14 101.21 14C92.488 14 85.418 21.07 85.418 29.7914C85.418 38.5128 92.488 45.5828 101.21 45.5828Z" fill="url(#paint1_linear_724_115)"/>
<defs>
<linearGradient id="paint0_linear_724_115" x1="9.4878" y1="16.3486" x2="110.443" y2="127.08" gradientUnits="userSpaceOnUse">
<stop stop-color="#F9D423"/>
<stop offset="0.515624" stop-color="#FF4E50"/>
<stop offset="0.991304" stop-color="#8A2387"/>
</linearGradient>
<linearGradient id="paint1_linear_724_115" x1="101.21" y1="45.5828" x2="101.21" y2="14" gradientUnits="userSpaceOnUse">
<stop stop-color="#FD5900"/>
<stop offset="1" stop-color="#FFDE00"/>
</linearGradient>
</defs>
</svg>
