<svg width="16" height="16" viewBox="0 0 16 16" fill="none" xmlns="http://www.w3.org/2000/svg">
<path fill-rule="evenodd" clip-rule="evenodd" d="M12.955 5.6804C12.9764 5.73657 13.0159 5.78502 13.07 5.8112C14.2154 6.3656 15.0063 7.40494 15.3525 8.5409C15.8169 10.0643 15.5205 11.8892 14.1204 13.1172C13.2938 13.8729 12.2119 14.2874 11.0902 14.28H3.69996C3.67884 14.28 3.65773 14.2792 3.63666 14.2777C-0.157392 14.0102 -0.552908 9.02509 2.45011 7.77397C2.54121 7.73602 2.59712 7.64 2.58116 7.5426C2.37652 6.29364 2.59985 5.16535 3.14423 4.23166C3.84057 3.03734 5.01294 2.24554 6.27197 1.91455C7.53096 1.58358 8.94048 1.69667 10.1319 2.39643C11.0623 2.94287 11.8072 3.81637 12.2386 5.00436C12.2633 5.07236 12.3222 5.12129 12.391 5.14359C12.6502 5.22757 12.8585 5.42611 12.955 5.6804ZM11.1914 7.15297C11.2406 7.14224 11.2919 7.14587 11.3391 7.16343C11.4029 7.18719 11.4702 7.20395 11.5399 7.2128C12.5742 7.34418 13.336 8.09885 13.6307 9.06572C13.9254 10.0325 13.714 11.0831 12.9283 11.7684C12.9225 11.7736 12.9166 11.7788 12.9109 11.784C12.4194 12.2358 11.7731 12.485 11.1 12.48C11.1 12.48 11.1 12.48 11.1 12.48V12.48C11.1 12.48 11.1 12.48 11.0999 12.48H11.0933H3.7345C1.76958 12.3139 1.76845 9.4694 3.7311 9.30027C3.98039 9.30491 4.22228 9.36531 4.43809 9.47525C4.88099 9.70087 5.42294 9.52474 5.64856 9.08184C5.87419 8.63895 5.69806 8.097 5.25516 7.87138C5.02852 7.75592 4.79045 7.66691 4.54568 7.60502C4.47125 7.58619 4.41145 7.52896 4.39539 7.45388C4.18992 6.49306 4.35876 5.72225 4.69923 5.13829C5.12476 4.40845 5.87115 3.88108 6.72962 3.6554C7.58813 3.42971 8.49486 3.52245 9.22031 3.94853C9.702 4.23143 10.1443 4.68482 10.4464 5.36801C10.4849 5.45494 10.4501 5.55433 10.3811 5.61967C10.1006 5.88511 10.0135 6.31252 10.1951 6.6758C10.3831 7.05176 10.7987 7.23866 11.1914 7.15297Z" fill="url(#paint0_linear_650_102)"/>
<defs>
<linearGradient id="paint0_linear_650_102" x1="8.0081" y1="14.2801" x2="8.0081" y2="2.4742" gradientUnits="userSpaceOnUse">
<stop stop-color="#18AEFA"/>
<stop offset="1" stop-color="#83E1FF"/>
</linearGradient>
</defs>
</svg>
