<svg width="192" height="192" viewBox="0 0 192 192" fill="none" xmlns="http://www.w3.org/2000/svg">
<path d="M15.6614 77.1422C67.8254 60.9225 120 44.7221 172.184 28.5216C176.929 26.3539 182.552 31.3512 180.604 35.9936C168.913 77.2766 157.212 118.56 145.501 159.833C144.674 164.427 137.799 166.058 134.729 162.48C122.271 148.524 109.904 134.481 97.5368 120.449C95.447 118.281 95.4268 114.733 97.4762 112.536C105.714 102.474 113.871 92.3643 122.18 82.3601C124.25 79.7608 128.661 79.5305 131.104 81.775C133.659 83.866 133.861 87.789 131.63 90.1679C124.502 98.8676 117.435 107.605 110.257 116.258C118.889 126.214 127.712 136.026 136.435 145.925C146.157 111.624 155.95 77.3533 165.602 43.0339C122.16 56.7117 78.5773 69.9772 35.146 83.6263C43.8383 86.8107 52.3489 90.4364 61.0009 93.7455C63.5348 94.5417 65.8871 96.5847 65.8972 99.2896C65.7559 111.471 65.0996 123.652 64.7362 135.825C68.8452 131.844 72.7319 127.634 76.9923 123.787C80.6065 120.967 86.7244 123.662 86.8759 128.084C87.2696 130.53 85.4928 132.535 83.8169 134.156C76.3764 141.513 69.3297 149.234 61.7984 156.495C58.1337 159.555 51.4705 156.706 51.7633 151.968C52.2379 135.882 52.7325 119.787 53.3887 103.701C41.6375 98.8867 29.7751 94.3306 17.9733 89.6307C15.7422 88.6715 13.0467 88.0576 11.7948 85.8323C9.79589 82.6 11.7443 77.9672 15.6614 77.1422Z" fill="url(#paint0_linear_724_120)" stroke="url(#paint1_linear_724_120)" stroke-width="6"/>
<defs>
<linearGradient id="paint0_linear_724_120" x1="95.9999" y1="40.1341" x2="95.9999" y2="164.426" gradientUnits="userSpaceOnUse">
<stop stop-color="#A5B9FF"/>
<stop offset="1" stop-color="#BBE9FF"/>
</linearGradient>
<linearGradient id="paint1_linear_724_120" x1="95.9999" y1="40.1341" x2="95.9999" y2="164.426" gradientUnits="userSpaceOnUse">
<stop stop-color="#A5B9FF"/>
<stop offset="1" stop-color="#BBE9FF"/>
</linearGradient>
</defs>
</svg>
