<svg width="17" height="16" viewBox="0 0 17 16" fill="none" xmlns="http://www.w3.org/2000/svg">
<path fill-rule="evenodd" clip-rule="evenodd" d="M2.75 4.65271C2.75 3.86642 3.00817 3.28112 3.39464 2.89464C3.78112 2.50817 4.36642 2.25 5.15271 2.25H12.749C13.5352 2.25 14.1206 2.50817 14.507 2.89464C14.8935 3.28112 15.1517 3.86642 15.1517 4.65271V11.5976C15.1517 12.3839 14.8935 12.9692 14.507 13.3557C14.1206 13.7421 13.5352 14.0003 12.749 14.0003H5.15271C4.36642 14.0003 3.78112 13.7421 3.39464 13.3557C3.00817 12.9692 2.75 12.3839 2.75 11.5976V4.65271ZM5.15271 0.45C3.95738 0.45 2.89133 0.852374 2.12185 1.62185C1.35237 2.39133 0.95 3.45738 0.95 4.65271V11.5976C0.95 12.7929 1.35237 13.859 2.12185 14.6285C2.89133 15.3979 3.95738 15.8003 5.15271 15.8003H12.749C13.9443 15.8003 15.0103 15.3979 15.7798 14.6285C16.5493 13.859 16.9517 12.7929 16.9517 11.5976V4.65271C16.9517 3.45738 16.5493 2.39133 15.7798 1.62185C15.0103 0.852374 13.9443 0.45 12.749 0.45H5.15271ZM10.4696 5.57455L8.24913 4.24226C7.36094 3.70935 6.65039 4.06463 6.65039 5.21927V7.88383C6.65039 8.86084 7.36094 9.30494 8.24913 8.77202L10.4696 7.43974C11.269 6.90683 11.269 6.10746 10.4696 5.57455Z" fill="url(#paint0_linear_567_558)"/>
<path fill-rule="evenodd" clip-rule="evenodd" d="M9.80587 12C9.91415 12 10.0004 12.0874 10.0272 12.1923C10.1239 12.5703 10.467 12.8501 10.875 12.8501C11.283 12.8501 11.6261 12.5703 11.7228 12.1923C11.7496 12.0874 11.8359 12 11.9441 12H13.2C13.6416 12 14 11.6416 14 11.2C14 10.7584 13.6416 10.4 13.2 10.4H11.9249C11.8283 10.4 11.75 10.3217 11.75 10.2251V10.2251C11.75 9.7421 11.358 9.3501 10.875 9.3501C10.392 9.3501 10 9.7421 10 10.2251V10.2251C10 10.3217 9.92169 10.4 9.8251 10.4H4.8C4.3584 10.4 4 10.7584 4 11.2C4 11.6416 4.3584 12 4.8 12H9.80587Z" fill="url(#paint1_linear_567_558)"/>
<defs>
<linearGradient id="paint0_linear_567_558" x1="8.95084" y1="15.7503" x2="8.95084" y2="0.5" gradientUnits="userSpaceOnUse">
<stop stop-color="#A93AFF"/>
<stop offset="1" stop-color="#FF81FF"/>
</linearGradient>
<linearGradient id="paint1_linear_567_558" x1="9" y1="12.8501" x2="9" y2="9.3501" gradientUnits="userSpaceOnUse">
<stop stop-color="#A93AFF"/>
<stop offset="1" stop-color="#FF81FF"/>
</linearGradient>
</defs>
</svg>
