<svg width="16" height="16" viewBox="0 0 16 16" fill="none" xmlns="http://www.w3.org/2000/svg">
<g clip-path="url(#clip0_683_145)">
<path d="M11.9746 10.1232C11.8375 10.7301 11.5897 11.3099 11.2405 11.8325L12.7371 12.8326C13.2096 12.1255 13.5448 11.341 13.7303 10.5199L11.9746 10.1232ZM11.2405 11.8325C10.6801 12.6712 9.8836 13.3249 8.9517 13.7109L9.64053 15.3739C10.9013 14.8516 11.979 13.9673 12.7371 12.8326L11.2405 11.8325ZM8.9517 13.7109C8.01979 14.0969 6.99435 14.1979 6.00505 14.0011L5.65389 15.7665C6.99236 16.0328 8.37972 15.8961 9.64053 15.3739L8.9517 13.7109ZM6.00505 14.0011C5.01575 13.8043 4.10702 13.3186 3.39377 12.6054L2.12098 13.8782C3.08596 14.8431 4.31542 15.5003 5.65389 15.7665L6.00505 14.0011ZM3.39377 12.6054C2.68052 11.8921 2.19479 10.9834 1.99801 9.99406L0.232591 10.3452C0.498829 11.6837 1.15599 12.9132 2.12098 13.8782L3.39377 12.6054ZM1.99801 9.99406C1.80122 9.00475 1.90222 7.97932 2.28823 7.04741L0.625241 6.35858C0.102996 7.61939 -0.0336471 9.00675 0.232591 10.3452L1.99801 9.99406ZM2.28823 7.04741C2.67423 6.11551 3.32791 5.319 4.1666 4.7586L3.16658 3.26196C2.03188 4.02014 1.14749 5.09777 0.625241 6.35858L2.28823 7.04741ZM4.1666 4.7586C4.68923 4.4094 5.26907 4.16165 5.87597 4.02451L5.47924 2.26877C4.65817 2.4543 3.87367 2.78949 3.16658 3.26196L4.1666 4.7586ZM6.10001 4.33243V5.66577H7.90001V4.33243H6.10001ZM10.3333 9.8991H11.6667V8.0991H10.3333V9.8991ZM6.10001 5.66577C6.10001 8.00377 7.99534 9.8991 10.3333 9.8991V8.0991C8.98945 8.0991 7.90001 7.00966 7.90001 5.66577H6.10001ZM5.87597 4.02451C5.90667 4.01757 5.92403 4.02062 5.935 4.02382C5.94828 4.0277 5.96923 4.0373 5.99418 4.06058C6.04764 4.11045 6.10001 4.20694 6.10001 4.33243H7.90001C7.90001 3.17031 6.89927 1.9479 5.47924 2.26877L5.87597 4.02451ZM13.7303 10.5199C14.0512 9.09984 12.8288 8.0991 11.6667 8.0991V9.8991C11.7922 9.8991 11.8886 9.95147 11.9385 10.0049C11.9618 10.0299 11.9714 10.0509 11.9753 10.0641C11.9785 10.0751 11.9815 10.0925 11.9746 10.1232L13.7303 10.5199ZM11.2478 2.07867C11.8665 2.33497 12.4288 2.71064 12.9023 3.18422L14.1751 1.91142C13.5344 1.2707 12.7738 0.762446 11.9366 0.415689L11.2478 2.07867ZM12.9023 3.18422C13.3759 3.65779 13.7516 4.22001 14.0079 4.83877L15.6709 4.14994C15.3241 3.3128 14.8159 2.55215 14.1751 1.91142L12.9023 3.18422ZM12.9399 5.89046H12.2961V7.69046H12.9399V5.89046ZM10.1961 3.79046V3.14664H8.39611V3.79046H10.1961ZM14.0079 4.83877C14.1107 5.08709 14.063 5.30152 13.89 5.49729C13.6966 5.71606 13.3485 5.89046 12.9399 5.89046V7.69046C13.8326 7.69046 14.6832 7.31793 15.2388 6.6892C15.8147 6.03748 16.066 5.10386 15.6709 4.14994L14.0079 4.83877ZM12.2961 5.89046C11.1363 5.89046 10.1961 4.95026 10.1961 3.79046H8.39611C8.39611 5.94437 10.1422 7.69046 12.2961 7.69046V5.89046ZM11.9366 0.415689C10.9827 0.0205648 10.0491 0.271867 9.39737 0.847772C8.76865 1.40336 8.39611 2.25398 8.39611 3.14664H10.1961C10.1961 2.73802 10.3705 2.38992 10.5893 2.1966C10.785 2.0236 10.9995 1.97582 11.2478 2.07867L11.9366 0.415689Z" fill="url(#paint0_linear_683_145)"/>
</g>
<defs>
<linearGradient id="paint0_linear_683_145" x1="0.100006" y1="8.06161" x2="15.8625" y2="8.06161" gradientUnits="userSpaceOnUse">
<stop stop-color="#76FFF7"/>
<stop offset="1" stop-color="#FBE200"/>
</linearGradient>
<clipPath id="clip0_683_145">
<rect width="16" height="16" fill="white"/>
</clipPath>
</defs>
</svg>
