<svg width="16" height="16" viewBox="0 0 16 16" fill="none" xmlns="http://www.w3.org/2000/svg">
<path fill-rule="evenodd" clip-rule="evenodd" d="M3.5362 2.55619C3.3974 2.69498 3.23313 3.04669 3.23313 4.18646V6.22702C3.23313 6.34573 3.33601 6.43774 3.45467 6.43433C3.48296 6.43352 3.51134 6.43311 3.53981 6.43311H12.4598C12.4862 6.43311 12.5125 6.43346 12.5386 6.43415C12.6572 6.43731 12.76 6.34497 12.7575 6.22643C12.7371 5.26544 12.5859 4.95199 12.4567 4.82285C12.3179 4.68406 11.9662 4.51979 10.8265 4.51979H9.12647C8.75913 4.51979 8.39964 4.46519 8.07394 4.26767C7.79461 4.09827 7.61485 3.85928 7.52406 3.73858L7.52405 3.73857L7.50391 3.7119L7.49876 3.70514C7.49876 3.70513 7.49876 3.70512 7.49877 3.70511V3.70511C7.49878 3.70511 7.49878 3.70509 7.49877 3.70508L6.65314 2.57312L6.65254 2.57233C6.4737 2.33393 6.4451 2.31539 6.4271 2.30458L6.42694 2.30448C6.42429 2.30287 6.40542 2.29141 6.34956 2.27946C6.28705 2.26609 6.18277 2.25312 6.01313 2.25312H5.16647C4.0267 2.25312 3.67499 2.41739 3.5362 2.55619ZM1.43313 4.18646V7.26273C1.43313 7.31365 1.41348 7.36246 1.37962 7.40049C1.36458 7.41738 1.34974 7.43445 1.33509 7.4517L1.31417 7.47262L1.28253 7.51234C0.833337 8.07622 0.582003 8.81608 0.65654 9.61152L0.922675 12.9382L0.923317 12.9462L0.924103 12.9543L0.931709 13.0339C0.973163 13.4733 1.03915 14.1728 1.47071 14.7116C1.98785 15.3572 2.81144 15.5664 3.80648 15.5664H12.1931C13.1882 15.5664 14.0118 15.3572 14.5289 14.7116C14.9605 14.1728 15.0265 13.4733 15.0679 13.0339L15.0755 12.9543L15.0763 12.9462L15.0769 12.9382L15.3427 9.61585C15.4233 8.83091 15.1788 8.10816 14.7411 7.55196C14.7308 7.53682 14.722 7.52493 14.7156 7.51644C14.694 7.48764 14.674 7.46447 14.6597 7.44867C14.6445 7.43075 14.6291 7.41301 14.6135 7.39546C14.5795 7.3574 14.5598 7.30854 14.5598 7.25754V6.45312C14.5598 5.32622 14.4407 4.26127 13.7295 3.55006C13.0183 2.83886 11.9534 2.71979 10.8265 2.71979H9.12647C9.07872 2.71979 9.04314 2.71796 9.01752 2.71571C9.01148 2.71518 9.00596 2.71215 9.00218 2.70741V2.70741C8.98461 2.68524 8.96623 2.66111 8.93982 2.62644L8.93829 2.62443L8.09415 1.49448L8.09313 1.49312L8.06916 1.46105L8.06916 1.46105C7.92702 1.2706 7.70414 0.971955 7.35417 0.761674C6.96312 0.526707 6.51736 0.453125 6.01313 0.453125H5.16647C4.03957 0.453125 2.97461 0.572189 2.26341 1.2834C1.5522 1.9946 1.43313 3.05956 1.43313 4.18646ZM3.53981 8.23311C3.19784 8.23311 2.89669 8.38566 2.69544 8.63082L2.66743 8.66495V8.66495C2.66508 8.66729 2.66291 8.66981 2.66095 8.6725C2.50394 8.88741 2.42099 9.15622 2.44899 9.44676L2.44969 9.45404L2.45028 9.46134L2.7163 12.7866C2.7422 13.0504 2.76138 13.2281 2.79547 13.3763C2.82766 13.5164 2.86057 13.5675 2.87557 13.5863L2.87585 13.5866C2.88362 13.5963 2.91437 13.6348 3.03648 13.6761C3.17439 13.7228 3.41181 13.7664 3.80648 13.7664H12.1931C12.5878 13.7664 12.8252 13.7228 12.9631 13.6761C13.0852 13.6348 13.116 13.5963 13.1238 13.5866L13.124 13.5863C13.139 13.5675 13.172 13.5164 13.2042 13.3763C13.2382 13.2281 13.2574 13.0504 13.2833 12.7866L13.5493 9.46134L13.5503 9.44927L13.5516 9.43723C13.5839 9.13606 13.49 8.8613 13.3074 8.64145L13.2453 8.5666C13.0506 8.36235 12.7744 8.23311 12.4598 8.23311H3.53981ZM13.3501 8.68283C13.3559 8.68865 13.3526 8.68574 13.3439 8.67666L13.3501 8.68283ZM6.28626 10.4331C5.7892 10.4331 5.38626 10.836 5.38626 11.3331C5.38626 11.8302 5.7892 12.2331 6.28626 12.2331H9.71293C10.21 12.2331 10.6129 11.8302 10.6129 11.3331C10.6129 10.836 10.21 10.4331 9.71293 10.4331H6.28626Z" fill="url(#paint0_linear_499_484)"/>
<defs>
<linearGradient id="paint0_linear_499_484" x1="0.430868" y1="0.601838" x2="16.0184" y2="16.2422" gradientUnits="userSpaceOnUse">
<stop stop-color="#F9D423"/>
<stop offset="0.515624" stop-color="#FF4E50"/>
<stop offset="0.991304" stop-color="#8A2387"/>
</linearGradient>
</defs>
</svg>
