<svg width="16" height="16" viewBox="0 0 16 16" fill="none" xmlns="http://www.w3.org/2000/svg">
<path d="M8.17784 4.38293L1.5927 10.9681C1.40516 11.1556 1.2998 11.41 1.2998 11.6752V14.3C1.2998 14.5209 1.47889 14.7 1.69981 14.7L4.32461 14.7C4.58983 14.7 4.84418 14.5946 5.03171 14.4071L11.6168 7.82194M8.17784 4.38293L10.6442 1.91659L10.6456 1.91513C10.9851 1.57563 11.1552 1.40558 11.3512 1.34188C11.5239 1.28578 11.7099 1.28578 11.8826 1.34188C12.0785 1.40553 12.2483 1.57539 12.5874 1.91441L14.0832 3.41021C14.4236 3.75068 14.594 3.921 14.6577 4.11731C14.7138 4.28999 14.7138 4.47599 14.6577 4.64866C14.594 4.84483 14.4239 5.01489 14.0839 5.35488L14.0832 5.35561L11.6168 7.82194M8.17784 4.38293L11.6168 7.82194" stroke="url(#paint0_linear_670_253)" stroke-width="2" stroke-linecap="round" stroke-linejoin="round"/>
<defs>
<linearGradient id="paint0_linear_670_253" x1="8.03915" y1="17.4297" x2="8.03915" y2="2.57978" gradientUnits="userSpaceOnUse">
<stop stop-color="#FDA700"/>
<stop offset="1" stop-color="#FFDE00"/>
</linearGradient>
</defs>
</svg>
