<svg width="128" height="128" viewBox="0 0 128 128" fill="none" xmlns="http://www.w3.org/2000/svg">
<path fill-rule="evenodd" clip-rule="evenodd" d="M8 15C23.2421 26.4316 52.087 29.0356 75.1882 31.1211C83.7337 31.8926 91.4931 32.5931 97.4874 33.6432C89.9609 35.3137 80.2338 36.2209 69.8002 37.1941C47.6013 39.2645 22.2043 41.6332 8 52.2864L11.7286 33.6432L8 15ZM8 75.7837C23.2421 87.2153 52.087 89.8193 75.1882 91.9048H75.1883C83.7337 92.6763 91.4932 93.3768 97.4874 94.4269C89.9609 96.0974 80.2339 97.0046 69.8004 97.9777L69.8002 97.9778C47.6013 100.048 22.2043 102.417 8 113.07L11.7286 94.4269L8 75.7837ZM107.221 62.9426C90.9662 60.6855 77.0274 58.75 60.3418 46.2358L64.0704 64.8791L60.3418 83.5223C75.6479 72.0427 87.9218 70.1827 102.657 67.9498C108.023 67.1366 113.716 66.2739 120 64.8791C115.54 64.0978 111.307 63.51 107.221 62.9426Z" fill="url(#paint0_linear_730_11)"/>
<defs>
<linearGradient id="paint0_linear_730_11" x1="114.926" y1="16.6855" x2="26.6507" y2="122.669" gradientUnits="userSpaceOnUse">
<stop stop-color="#D800BD"/>
<stop offset="0.408098" stop-color="#F92D7A"/>
<stop offset="0.590073" stop-color="#FF4A52"/>
<stop offset="1" stop-color="#FFB243"/>
</linearGradient>
</defs>
</svg>
