<svg width="24" height="24" viewBox="0 0 24 24" fill="none" xmlns="http://www.w3.org/2000/svg">
<path fill-rule="evenodd" clip-rule="evenodd" d="M19.9996 8.29384L9.79914 11.9591L9.80024 11.958L8.89385 12.3126L9.80024 11.9591V19.4964C9.80024 21.4314 8.05451 23 5.89957 23C3.74573 23 2 21.4314 2 19.4964C2 17.5615 3.74573 15.9929 5.89957 15.9929C6.63598 15.9892 7.36046 16.1789 8.00061 16.5429V12.6609L8.00061 7.97043C8.00061 7.31152 8.00061 6.75271 8.05561 6.2929C8.11391 5.80449 8.24261 5.35349 8.55282 4.93548C8.86193 4.51747 9.27443 4.23697 9.75404 3.99936C10.2039 3.77606 10.7782 3.56045 11.4558 3.30635L13.9682 2.36143C15.4136 1.81692 16.5918 1.37472 17.5422 1.15691C18.5256 0.932507 19.4804 0.896207 20.3274 1.40332L20.3384 1.40882C20.6299 1.58164 20.8827 1.81268 21.0809 2.08753C21.3988 2.52534 21.5627 3.05115 21.6563 3.61216C21.6747 3.72544 21.6904 3.83914 21.7036 3.95316C21.8004 4.77596 21.8004 5.80885 21.8004 7.04084V7.04092V7.54693L21.8004 17.3404C21.8004 19.2753 20.0546 20.844 17.8997 20.844C15.7458 20.844 14.0001 19.2753 14.0001 17.3404C14.0001 15.4055 15.7458 13.8368 17.8997 13.8368C18.6361 13.8332 19.3606 14.0228 20.0007 14.3869V8.29338L19.9996 8.29384Z" fill="url(#paint0_linear_448_695)"/>
<defs>
<linearGradient id="paint0_linear_448_695" x1="1" y1="29.5" x2="30.0822" y2="0.609184" gradientUnits="userSpaceOnUse">
<stop stop-color="#FFC700"/>
<stop offset="0.1987" stop-color="#FF49AB"/>
<stop offset="0.37955" stop-color="#BA49FF"/>
<stop offset="0.49923" stop-color="#5849FF"/>
<stop offset="0.765566" stop-color="#1EFFD6"/>
<stop offset="1" stop-color="#00FFFF"/>
</linearGradient>
</defs>
</svg>
