<svg width="16" height="16" viewBox="0 0 16 16" fill="none" xmlns="http://www.w3.org/2000/svg">
<path d="M12.7652 11.4924C12.4137 11.1409 11.8439 11.1409 11.4924 11.4924C11.1409 11.8439 11.1409 12.4137 11.4924 12.7652L12.7652 11.4924ZM14.0637 15.3366C14.4152 15.6881 14.9851 15.6881 15.3365 15.3366C15.688 14.9851 15.688 14.4153 15.3365 14.0638L14.0637 15.3366ZM6.94527 5.02154C7.43621 4.94378 7.77116 4.48276 7.6934 3.99183C7.61564 3.50089 7.15463 3.16594 6.66369 3.2437L6.94527 5.02154ZM3.24368 6.66371C3.16592 7.15465 3.50087 7.61566 3.99181 7.69342C4.48274 7.77118 4.94376 7.43623 5.02152 6.94529L3.24368 6.66371ZM11.4924 12.7652L14.0637 15.3366L15.3365 14.0638L12.7652 11.4924L11.4924 12.7652ZM6.9859 11.8716C4.2876 11.8716 2.1002 9.6842 2.1002 6.9859H0.300195C0.300195 10.6783 3.29349 13.6716 6.9859 13.6716V11.8716ZM11.8716 6.9859C11.8716 9.6842 9.6842 11.8716 6.9859 11.8716V13.6716C10.6783 13.6716 13.6716 10.6783 13.6716 6.9859H11.8716ZM6.9859 2.1002C9.6842 2.1002 11.8716 4.2876 11.8716 6.9859H13.6716C13.6716 3.29349 10.6783 0.300195 6.9859 0.300195V2.1002ZM6.9859 0.300195C3.29349 0.300195 0.300195 3.29349 0.300195 6.9859H2.1002C2.1002 4.2876 4.2876 2.1002 6.9859 2.1002V0.300195ZM6.66369 3.2437C4.90322 3.52253 3.52251 4.90324 3.24368 6.66371L5.02152 6.94529C5.17836 5.95503 5.95501 5.17838 6.94527 5.02154L6.66369 3.2437Z" fill="url(#paint0_linear_525_631)"/>
<defs>
<linearGradient id="paint0_linear_525_631" x1="7.95017" y1="14.7002" x2="7.95017" y2="1.99431" gradientUnits="userSpaceOnUse">
<stop stop-color="#18AEFA"/>
<stop offset="1" stop-color="#83E1FF"/>
</linearGradient>
</defs>
</svg>
