<svg width="64" height="64" viewBox="0 0 64 64" fill="none" xmlns="http://www.w3.org/2000/svg">
<path fill-rule="evenodd" clip-rule="evenodd" d="M7.17773 32C7.17783 24.0435 10.3385 16.4129 15.9646 10.7869C21.5907 5.16076 29.2212 2.00009 37.1777 2C43.8771 2.00009 50.3454 4.24085 55.5806 8.3075C57.2162 9.57789 57.2037 11.9741 55.7392 13.4385C54.2748 14.9029 51.9148 14.8723 50.2277 13.6711C46.4422 10.9757 41.8859 9.50005 37.1777 9.50005C31.2104 9.50005 25.4874 11.8706 21.2679 16.0901C17.0483 20.3097 14.6778 26.0327 14.6778 32C14.6778 37.9674 17.0483 43.6903 21.2679 47.9099C25.4874 52.1294 31.2104 54.5 37.1777 54.5C41.8859 54.5 46.4422 53.0243 50.2277 50.3289C51.9148 49.1277 54.2748 49.0971 55.7392 50.5615C57.2037 52.0259 57.2162 54.4221 55.5806 55.6925C50.3454 59.7592 43.8771 61.9999 37.1777 62C29.2212 61.9999 21.5907 58.8392 15.9646 53.2131C10.3385 47.5871 7.17783 39.9565 7.17773 32ZM22.1778 32.0081C22.1756 28.0328 23.7517 24.219 26.5596 21.405L26.5712 21.3934C27.964 20.0006 29.6176 18.8957 31.4376 18.1418C33.2574 17.388 35.208 17 37.1777 17.0001C39.1475 17 41.0981 17.388 42.9179 18.1418C43.9657 18.5759 44.9583 19.1261 45.8777 19.7809C47.0026 20.5816 46.9929 22.1849 46.0165 23.1612C45.0402 24.1375 43.4671 24.1036 42.2795 23.3994C40.7483 22.4911 38.9883 22 37.1777 21.9999C34.5256 22 31.982 23.0536 30.1067 24.9289C28.2313 26.8043 27.1778 29.3479 27.1777 32C27.1778 34.6521 28.2313 37.1957 30.1067 39.0711C31.982 40.9464 34.5256 42 37.1777 42.0001C38.9883 42 40.7483 41.5089 42.2795 40.6006C43.4671 39.8964 45.0402 39.8625 46.0165 40.8388C46.9929 41.8151 47.0025 43.4185 45.8777 44.2193C43.354 46.0161 40.3165 46.9999 37.1777 46.9999C33.1995 47 29.3842 45.4196 26.5712 42.6066C23.7601 39.7956 22.1799 35.9836 22.1778 32.0081Z" fill="url(#paint0_linear_1005_332)"/>
<defs>
<linearGradient id="paint0_linear_1005_332" x1="67.4957" y1="26.9691" x2="17.7212" y2="2.56577" gradientUnits="userSpaceOnUse">
<stop stop-color="#FF7B87"/>
<stop offset="1" stop-color="#FF3678"/>
</linearGradient>
</defs>
</svg>
