<svg width="128" height="128" viewBox="0 0 128 128" fill="none" xmlns="http://www.w3.org/2000/svg">
<path fill-rule="evenodd" clip-rule="evenodd" d="M64.0021 6C57.5198 6.00611 51.2232 8.14537 46.1003 12.082C42.0603 15.1866 38.9308 19.2704 36.9934 23.9091C36.2024 25.8031 37.7023 27.75 39.7547 27.75H53.5516C55.2832 27.75 56.6868 29.1536 56.6868 30.8851V39.1149C56.6868 40.8464 55.2832 42.25 53.5516 42.25H37.876C36.1446 42.25 34.7408 43.6536 34.7408 45.3851V53.6149C34.7408 55.3464 36.1446 56.75 37.876 56.75H53.5516C55.2832 56.75 56.6868 58.1536 56.6868 59.8851V68.1149C56.6868 69.8464 55.2832 71.25 53.5516 71.25H39.7689C37.7165 71.25 36.2167 73.1969 37.0077 75.0909C38.9441 79.7274 42.0715 83.8095 46.109 86.9136C51.2288 90.8499 57.5223 92.9908 64.0021 93C70.4843 92.9939 76.7811 90.8546 81.9039 86.918C85.944 83.8134 89.0735 79.7296 91.0108 75.0909C91.8018 73.1969 90.302 71.25 88.2496 71.25H74.4526C72.7211 71.25 71.3175 69.8464 71.3175 68.1149V59.8851C71.3175 58.1536 72.7211 56.75 74.4526 56.75H90.1283C91.8597 56.75 93.2634 55.3464 93.2634 53.6149V45.3851C93.2634 43.6536 91.8597 42.25 90.1283 42.25H74.4526C72.7211 42.25 71.3175 40.8464 71.3175 39.1149V30.8851C71.3175 29.1536 72.7211 27.75 74.4526 27.75H88.2353C90.2877 27.75 91.7876 25.8031 90.9966 23.9091C89.0602 19.2726 85.9327 15.1905 81.8953 12.0864C76.7754 8.15008 70.482 6.00925 64.0021 6ZM23.2457 71.25C21.514 71.25 20.0935 72.6577 20.2744 74.3798C21.0555 81.8189 24.6041 88.906 30.4802 94.6475C37.1009 101.117 46.2533 105.465 56.3453 106.941C56.5408 106.97 56.6868 107.137 56.6868 107.335C56.6868 107.441 56.6446 107.542 56.5695 107.616L47.4665 116.638C45.4777 118.609 46.8735 122 49.6733 122H78.331C81.1308 122 82.5265 118.609 80.5378 116.638L71.4445 107.626C71.3631 107.545 71.3175 107.436 71.3175 107.321C71.3175 107.107 71.4757 106.926 71.6874 106.895C81.7594 105.415 90.8941 101.076 97.5075 94.6213C103.381 88.8892 106.933 81.8135 107.725 74.384C107.909 72.6605 106.487 71.25 104.754 71.25H103.714C101.982 71.25 100.6 72.66 100.366 74.3756C99.4715 80.9175 95.7894 87.0594 89.8657 91.7561C83.0062 97.1947 73.7029 100.25 64.0021 100.25C54.3014 100.25 44.998 97.1947 38.1385 91.7561C32.2148 87.0594 28.5328 80.9175 27.6385 74.3756C27.404 72.66 26.0218 71.25 24.2905 71.25H23.2457Z" fill="url(#paint0_linear_1005_314)"/>
<defs>
<linearGradient id="paint0_linear_1005_314" x1="64.0026" y1="122" x2="64.0026" y2="63.2648" gradientUnits="userSpaceOnUse">
<stop stop-color="#A93AFF"/>
<stop offset="1" stop-color="#FF81FF"/>
</linearGradient>
</defs>
</svg>
