<svg width="128" height="128" viewBox="0 0 128 128" fill="none" xmlns="http://www.w3.org/2000/svg">
<path fill-rule="evenodd" clip-rule="evenodd" d="M96.4551 45.0071C110.716 49.355 120 56.3863 120 63.7902C120 71.1941 110.766 78.2005 96.5796 82.5485C99.8898 96.9837 98.4462 108.487 92.0249 112.189C90.5316 113.034 88.7893 113.456 86.8729 113.456C80.6009 113.456 72.3876 109.034 64.0747 101.332C55.7618 109.083 47.5484 113.556 41.2764 113.556C39.36 113.556 37.6427 113.158 36.1493 112.288C29.728 108.586 28.2596 97.0582 31.5449 82.5733C17.2836 78.2254 8 71.1941 8 63.7902C8 56.4111 17.2338 49.4047 31.4453 45.0319C28.1351 30.5967 29.5787 19.0933 36 15.3913C37.4933 14.5466 39.2356 14.1242 41.152 14.1242V19.2175C40.1067 19.2175 39.2356 19.3915 38.5387 19.8138C35.4524 21.6027 34.1333 28.3855 35.2036 37.0814C35.4773 39.1932 35.8756 41.4045 36.3982 43.6903C40.8533 42.5722 45.7564 41.7275 50.9084 41.1809C53.9449 36.9572 57.1556 33.1558 60.3413 29.8017C52.8996 22.9443 45.9058 19.1927 41.1769 19.1927V14.0994C47.4489 14.0994 55.6622 18.5219 63.9751 26.2239C72.288 18.4722 80.5013 14 86.7733 14V14.0249C88.6551 14.0283 90.3639 14.4262 91.8507 15.292C98.272 18.9939 99.7404 30.5222 96.4551 45.0071ZM86.7484 19.0933C82.0199 19.1066 75.0376 22.8819 67.6089 29.7768C70.8444 33.131 74.0302 36.9572 77.1164 41.1809C82.2436 41.7275 87.1218 42.5722 91.6018 43.6654C92.0996 41.3548 92.5227 39.0939 92.7716 36.9572C93.8169 28.2613 92.4729 21.5033 89.3618 19.7144C88.64 19.3169 87.7938 19.1182 86.7484 19.1182V19.0933ZM87.1964 57.6037C88.3911 54.5726 89.4364 51.5414 90.2827 48.6097C87.296 47.8643 84.16 47.268 80.9244 46.7959C82.0444 48.5351 83.1644 50.324 84.2098 52.1377C85.28 53.9514 86.2507 55.79 87.1964 57.6037ZM74.3289 81.5795C76.2204 78.8714 78.0373 75.9645 79.8293 72.8836C81.5218 69.8773 83.1147 66.8213 84.5582 63.7902C83.1147 60.7342 81.5467 57.7031 79.8044 54.7216C78.0124 51.6656 76.1707 48.7587 74.2791 46.0506C70.8942 45.7773 67.4596 45.6282 64 45.6282C60.5156 45.6282 57.0809 45.7773 53.6711 46.0754C51.7796 48.7836 49.9627 51.6905 48.1707 54.7713C46.4533 57.7528 44.8604 60.8087 43.4418 63.8647C44.8853 66.9207 46.4533 69.9519 48.1956 72.9333C49.9876 75.9893 51.8293 78.8962 53.7209 81.6043C57.1058 81.8776 60.5404 82.0267 64 82.0267C67.4844 82.0267 70.9191 81.8776 74.3289 81.5795ZM90.3573 78.9707C89.4862 76.0141 88.4409 72.9582 87.1964 69.9022C86.2507 71.7407 85.28 73.5793 84.2347 75.393C83.1893 77.2316 82.0693 79.0204 80.9493 80.7845C84.2098 80.3124 87.3707 79.6913 90.3573 78.9707ZM57.7031 86.9213C59.7938 89.6046 61.9342 92.0394 64.0498 94.2258C66.1404 92.0394 68.2809 89.6046 70.3218 86.9213C68.256 87.0206 66.1156 87.0704 63.9751 87.0704C61.8596 87.0704 59.7689 87.0206 57.7031 86.9213ZM37.6924 79.0204C40.6791 79.741 43.8151 80.3372 47.0507 80.8093C45.9307 79.0701 44.8356 77.2812 43.7653 75.4924C42.6951 73.6787 41.7244 71.8401 40.7787 70.0264C39.584 73.0575 38.5387 76.0887 37.6924 79.0204ZM70.272 40.684C68.1813 38.0007 66.0409 35.5658 63.9253 33.3794C61.8347 35.5658 59.7191 38.0007 57.6533 40.684C59.7191 40.5846 61.8596 40.5349 64 40.5349C66.1156 40.5349 68.2062 40.5846 70.272 40.684ZM43.7404 52.1874C44.7858 50.3488 45.9058 48.56 47.0258 46.7959C43.7653 47.268 40.6293 47.8891 37.6178 48.5848C38.4889 51.5414 39.5342 54.5974 40.7787 57.6534C41.6996 55.8397 42.6951 54.0011 43.7404 52.1874ZM13.0524 63.815C13.0524 67.3928 18.2791 71.8898 26.368 75.3433C28.3591 76.1881 30.4996 76.9583 32.7396 77.6788C34.0338 73.2314 35.7262 68.6102 37.8169 63.8647C35.7013 59.0944 33.984 54.4483 32.6898 49.9762C30.4747 50.6967 28.3342 51.442 26.368 52.2868C18.2791 55.6906 13.0524 60.2373 13.0524 63.815ZM35.2533 90.6481C34.208 99.344 35.552 106.102 38.6631 107.891C39.3351 108.288 40.2062 108.487 41.2516 108.512C45.9804 108.512 52.9742 104.735 60.416 97.8284C57.1804 94.4743 53.9947 90.6481 50.9084 86.4244C45.7813 85.8778 40.9031 85.033 36.4231 83.9398C35.9253 86.2504 35.5022 88.5114 35.2533 90.6481ZM89.4862 107.791C92.5724 106.003 93.8916 99.2197 92.8213 90.5239C92.5476 88.412 92.1493 86.2007 91.6516 83.8901C87.1964 85.0082 82.2933 85.8529 77.1413 86.3995C74.1049 90.6232 70.8942 94.4246 67.7084 97.7787C75.1502 104.636 82.144 108.388 86.8729 108.388C87.9182 108.388 88.7893 108.214 89.4862 107.791ZM95.2853 77.6539C97.5004 76.9334 99.6409 76.1881 101.607 75.3433C109.671 71.9146 114.898 67.3679 114.972 63.815C114.972 60.2373 109.746 55.7403 101.657 52.2868C99.6409 51.442 97.5005 50.647 95.2356 49.9513C93.9413 54.3986 92.2489 59.0199 90.1582 63.7654C92.2738 68.5357 93.9911 73.1818 95.2853 77.6539ZM70.2218 63.7774C70.2218 67.2138 67.436 69.9996 63.9996 69.9996C60.5631 69.9996 57.7773 67.2138 57.7773 63.7774C57.7773 60.341 60.5631 57.5552 63.9996 57.5552C67.436 57.5552 70.2218 60.341 70.2218 63.7774Z" fill="url(#paint0_linear_730_39)"/>
<path d="M96.4551 45.0071L95.4799 44.7859L95.2742 45.6925L96.1635 45.9636L96.4551 45.0071ZM96.5796 82.5485L96.2865 81.5924L95.3969 81.865L95.6049 82.772L96.5796 82.5485ZM92.0249 112.189L92.5173 113.059L92.5243 113.055L92.0249 112.189ZM64.0747 101.332L64.7543 100.598L64.0725 99.9663L63.3927 100.6L64.0747 101.332ZM36.1493 112.288L36.6526 111.424L36.6488 111.422L36.1493 112.288ZM31.5449 82.5733L32.5201 82.7945L32.7258 81.8879L31.8365 81.6168L31.5449 82.5733ZM31.4453 45.0319L31.7394 45.9877L32.6278 45.7143L32.42 44.8084L31.4453 45.0319ZM36 15.3913L35.5076 14.5209L35.5005 14.525L36 15.3913ZM41.152 14.1242H42.152V13.1242H41.152V14.1242ZM41.152 19.2175V20.2175H42.152V19.2175H41.152ZM38.5387 19.8138L39.0401 20.679L39.0486 20.6741L39.057 20.669L38.5387 19.8138ZM35.2036 37.0814L34.211 37.2035L34.2119 37.2099L35.2036 37.0814ZM36.3982 43.6903L35.4234 43.9132L35.651 44.9088L36.6416 44.6602L36.3982 43.6903ZM50.9084 41.1809L51.0139 42.1753L51.4591 42.1281L51.7204 41.7646L50.9084 41.1809ZM60.3413 29.8017L61.0664 30.4904L61.7656 29.7542L61.019 29.0663L60.3413 29.8017ZM41.1769 19.1927H40.1769V20.1927H41.1769V19.1927ZM41.1769 14.0994V13.0994H40.1769V14.0994H41.1769ZM63.9751 26.2239L63.2955 26.9575L63.9773 27.5892L64.6571 26.9553L63.9751 26.2239ZM86.7733 14H87.7733V13H86.7733V14ZM86.7733 14.0249H85.7733V15.023L86.7715 15.0249L86.7733 14.0249ZM91.8507 15.292L91.3475 16.1561L91.3512 16.1583L91.8507 15.292ZM67.6089 29.7768L66.9286 29.0439L66.1814 29.7374L66.8892 30.4711L67.6089 29.7768ZM86.7484 19.0933H87.7484V18.0905L86.7456 18.0933L86.7484 19.0933ZM77.1164 41.1809L76.309 41.7708L76.5702 42.1283L77.0104 42.1752L77.1164 41.1809ZM91.6018 43.6654L91.3647 44.6369L92.363 44.8805L92.5793 43.876L91.6018 43.6654ZM92.7716 36.9572L91.7787 36.8378L91.7783 36.8415L92.7716 36.9572ZM89.3618 19.7144L89.8602 18.8475L89.8523 18.8429L89.8442 18.8385L89.3618 19.7144ZM86.7484 19.1182H85.7484V20.1182H86.7484V19.1182ZM90.2827 48.6097L91.2434 48.887L91.5311 47.8905L90.5248 47.6394L90.2827 48.6097ZM87.1964 57.6037L86.3098 58.0661L87.3231 60.0094L88.1268 57.9704L87.1964 57.6037ZM80.9244 46.7959L81.0688 45.8064L78.8934 45.489L80.0837 47.3374L80.9244 46.7959ZM84.2098 52.1377L83.3433 52.6371L83.3485 52.6459L84.2098 52.1377ZM79.8293 72.8836L80.6938 73.3865L80.7007 73.3742L79.8293 72.8836ZM74.3289 81.5795L74.416 82.5757L74.8813 82.535L75.1487 82.1521L74.3289 81.5795ZM84.5582 63.7902L85.4611 64.2202L85.665 63.792L85.4624 63.3631L84.5582 63.7902ZM79.8044 54.7216L80.6678 54.2171L80.6671 54.2158L79.8044 54.7216ZM74.2791 46.0506L75.0989 45.478L74.8292 45.0917L74.3596 45.0538L74.2791 46.0506ZM53.6711 46.0754L53.584 45.0792L53.1187 45.1199L52.8513 45.5028L53.6711 46.0754ZM48.1707 54.7713L47.3063 54.2685L47.3041 54.2722L48.1707 54.7713ZM43.4418 63.8647L42.5348 63.4437L42.3376 63.8684L42.5376 64.2918L43.4418 63.8647ZM48.1956 72.9333L47.3322 73.4378L47.3329 73.4391L48.1956 72.9333ZM53.7209 81.6043L52.9011 82.177L53.1708 82.5632L53.6404 82.6011L53.7209 81.6043ZM87.1964 69.9022L88.1226 69.525L87.3022 67.5104L86.3072 69.4447L87.1964 69.9022ZM90.3573 78.9707L90.5919 79.9429L91.6136 79.6964L91.3166 78.6881L90.3573 78.9707ZM84.2347 75.393L83.3682 74.8936L83.3653 74.8987L84.2347 75.393ZM80.9493 80.7845L80.1051 80.2485L78.9384 82.086L81.0926 81.7741L80.9493 80.7845ZM64.0498 94.2258L63.3311 94.9212L64.054 95.6683L64.7725 94.9169L64.0498 94.2258ZM57.7031 86.9213L57.7512 85.9224L55.5756 85.8178L56.9143 87.5359L57.7031 86.9213ZM70.3218 86.9213L71.1177 87.5267L72.4162 85.8194L70.2738 85.9224L70.3218 86.9213ZM47.0507 80.8093L46.9063 81.7988L49.0817 82.1162L47.8914 80.2679L47.0507 80.8093ZM37.6924 79.0204L36.7317 78.7431L36.4418 79.7474L37.4579 79.9926L37.6924 79.0204ZM43.7653 75.4924L42.9041 76.0006L42.9072 76.0058L43.7653 75.4924ZM40.7787 70.0264L41.6654 69.564L40.652 67.6207L39.8483 69.6597L40.7787 70.0264ZM63.9253 33.3794L64.644 32.6841L63.9211 31.9369L63.2026 32.6883L63.9253 33.3794ZM70.272 40.684L70.224 41.6828L72.3995 41.7875L71.0608 40.0694L70.272 40.684ZM57.6533 40.684L56.8609 40.0739L55.5424 41.7867L57.7014 41.6828L57.6533 40.684ZM47.0258 46.7959L47.87 47.3319L49.0367 45.4944L46.8825 45.8063L47.0258 46.7959ZM43.7404 52.1874L44.6069 52.6868L44.6098 52.6817L43.7404 52.1874ZM37.6178 48.5848L37.3927 47.6105L36.3586 47.8493L36.6585 48.8674L37.6178 48.5848ZM40.7787 57.6534L39.8525 58.0305L40.6786 60.0592L41.6703 58.1061L40.7787 57.6534ZM26.368 75.3433L25.9753 76.263L25.9774 76.2639L26.368 75.3433ZM32.7396 77.6788L32.4333 78.6307L33.4124 78.9456L33.6997 77.9582L32.7396 77.6788ZM37.8169 63.8647L38.732 64.2679L38.9102 63.8634L38.731 63.4593L37.8169 63.8647ZM32.6898 49.9762L33.6504 49.6982L33.3631 48.7056L32.3805 49.0252L32.6898 49.9762ZM26.368 52.2868L26.7559 53.2085L26.7627 53.2056L26.368 52.2868ZM38.6631 107.891L39.1723 107.03L39.1616 107.024L38.6631 107.891ZM35.2533 90.6481L36.2462 90.7674L36.2466 90.7638L35.2533 90.6481ZM41.2516 108.512L41.2278 109.512L41.2397 109.512H41.2516V108.512ZM60.416 97.8284L61.0963 98.5614L61.8435 97.8679L61.1357 97.1341L60.416 97.8284ZM50.9084 86.4244L51.7159 85.8344L51.4547 85.4769L51.0145 85.43L50.9084 86.4244ZM36.4231 83.9398L36.6602 82.9683L35.6619 82.7247L35.4455 83.7292L36.4231 83.9398ZM92.8213 90.5239L93.8139 90.4017L93.813 90.3953L92.8213 90.5239ZM89.4862 107.791L88.9847 106.926L88.9763 106.931L88.9679 106.936L89.4862 107.791ZM91.6516 83.8901L92.6291 83.6795L92.4113 82.6684L91.4081 82.9202L91.6516 83.8901ZM77.1413 86.3995L77.0358 85.4051L76.5907 85.4523L76.3294 85.8158L77.1413 86.3995ZM67.7084 97.7787L66.9834 97.09L66.2842 97.8261L67.0308 98.5141L67.7084 97.7787ZM101.607 75.3433L101.216 74.423L101.212 74.4245L101.607 75.3433ZM95.2853 77.6539L94.3247 77.9319L94.612 78.9245L95.5947 78.6049L95.2853 77.6539ZM114.972 63.815L115.972 63.8361L115.972 63.8256V63.815H114.972ZM101.657 52.2868L102.05 51.3671L102.043 51.3645L101.657 52.2868ZM95.2356 49.9513L95.5292 48.9954L94.559 48.6974L94.2754 49.6719L95.2356 49.9513ZM90.1582 63.7654L89.2431 63.3622L89.0649 63.7667L89.2441 64.1708L90.1582 63.7654ZM121 63.7902C121 59.647 118.408 55.7804 114.194 52.4666C109.962 49.1387 103.951 46.2469 96.7467 44.0505L96.1635 45.9636C103.221 48.1152 108.982 50.913 112.957 54.0387C116.95 57.1784 119 60.5294 119 63.7902H121ZM96.8726 83.5046C104.039 81.3082 110.019 78.4224 114.229 75.1004C118.423 71.7918 121 67.9316 121 63.7902H119C119 67.0528 116.961 70.3977 112.99 73.5303C109.037 76.6495 103.307 79.4409 96.2865 81.5924L96.8726 83.5046ZM92.5243 113.055C96.1159 110.985 98.1708 106.821 98.9411 101.538C99.7145 96.2331 99.2265 89.617 97.5543 82.325L95.6049 82.772C97.2429 89.9151 97.6882 96.2683 96.962 101.249C96.2327 106.252 94.3552 109.691 91.5254 111.323L92.5243 113.055ZM86.8729 114.456C88.9376 114.456 90.8539 114 92.5173 113.059L91.5325 111.319C90.2092 112.067 88.6411 112.456 86.8729 112.456V114.456ZM63.395 102.065C67.5985 105.96 71.7991 109.047 75.7684 111.164C79.7279 113.277 83.5146 114.456 86.8729 114.456V112.456C83.9591 112.456 80.5032 111.424 76.7099 109.4C72.9262 107.381 68.8638 104.406 64.7543 100.598L63.395 102.065ZM41.2764 114.556C44.6371 114.556 48.4251 113.363 52.3843 111.231C56.3534 109.094 60.5537 105.982 64.7567 102.063L63.3927 100.6C59.2827 104.433 55.2199 107.433 51.4362 109.47C47.6425 111.512 44.1878 112.556 41.2764 112.556V114.556ZM35.6461 113.153C37.3208 114.128 39.2194 114.556 41.2764 114.556V112.556C39.5006 112.556 37.9646 112.188 36.6526 111.424L35.6461 113.153ZM30.5697 82.3521C28.9101 89.669 28.4349 96.3034 29.2178 101.62C29.9974 106.915 32.0586 111.084 35.6499 113.155L36.6488 111.422C33.8188 109.791 31.935 106.345 31.1964 101.329C30.4611 96.3347 30.8943 89.9625 32.5201 82.7945L30.5697 82.3521ZM7 63.7902C7 67.9334 9.59203 71.8 13.8063 75.1138C18.0384 78.4417 24.0491 81.3335 31.2533 83.5299L31.8365 81.6168C24.7793 79.4652 19.0176 76.6674 15.0426 73.5417C11.0497 70.402 9 67.051 9 63.7902H7ZM31.1512 44.0761C23.9727 46.2849 17.9872 49.1768 13.7742 52.4984C9.57873 55.8062 7 59.6602 7 63.7902H9C9 60.5411 11.0382 57.2024 15.0125 54.069C18.9692 50.9494 24.7064 48.1517 31.7394 45.9877L31.1512 44.0761ZM35.5005 14.525C31.909 16.5956 29.8541 20.7589 29.0838 26.0424C28.3104 31.3473 28.7984 37.9633 30.4706 45.2554L32.42 44.8084C30.782 37.6653 30.3367 31.3121 31.0629 26.3309C31.7922 21.3284 33.6696 17.8891 36.4995 16.2577L35.5005 14.525ZM41.152 13.1242C39.0873 13.1242 37.171 13.58 35.5076 14.521L36.4924 16.2617C37.8157 15.5132 39.3838 15.1242 41.152 15.1242V13.1242ZM42.152 19.2175V14.1242H40.152V19.2175H42.152ZM39.057 20.669C39.539 20.3769 40.206 20.2175 41.152 20.2175V18.2175C40.0073 18.2175 38.9321 18.406 38.0204 18.9586L39.057 20.669ZM36.1961 36.9592C35.6697 32.6822 35.7378 28.9226 36.2942 26.0475C36.863 23.1082 37.8899 21.3457 39.0401 20.679L38.0372 18.9487C36.1012 20.0708 34.9254 22.5941 34.3307 25.6675C33.7235 28.8049 33.6672 32.7847 34.211 37.2035L36.1961 36.9592ZM37.3731 43.4674C36.857 41.2103 36.4646 39.0306 36.1953 36.9528L34.2119 37.2099C34.49 39.3559 34.8941 41.5986 35.4234 43.9132L37.3731 43.4674ZM50.8029 40.1865C45.6109 40.7373 40.6612 41.5894 36.1548 42.7203L36.6416 44.6602C41.0455 43.555 45.902 42.7176 51.0139 42.1753L50.8029 40.1865ZM59.6163 29.113C56.402 32.4971 53.1618 36.3333 50.0965 40.5972L51.7204 41.7646C54.728 37.581 57.9091 33.8145 61.0664 30.4904L59.6163 29.113ZM41.1769 20.1927C43.3023 20.1927 46.0603 21.0454 49.2605 22.8023C52.4434 24.5497 55.9873 27.1494 59.6637 30.5371L61.019 29.0663C57.2536 25.5967 53.5797 22.8919 50.223 21.0491C46.8837 19.2158 43.7804 18.1927 41.1769 18.1927V20.1927ZM40.1769 14.0994V19.1927H42.1769V14.0994H40.1769ZM64.6548 25.4904C60.4513 21.5958 56.2506 18.509 52.2814 16.3911C48.3218 14.2784 44.5351 13.0994 41.1769 13.0994V15.0994C44.0906 15.0994 47.5466 16.1316 51.3399 18.1556C55.1236 20.1745 59.186 23.15 63.2955 26.9575L64.6548 25.4904ZM86.7733 13C83.4127 13 79.6247 14.193 75.6655 16.3246C71.6964 18.4615 67.496 21.5734 63.2931 25.4926L64.6571 26.9553C68.7671 23.1227 72.8298 20.1227 76.6136 18.0856C80.4073 16.0431 83.862 15 86.7733 15V13ZM87.7733 14.0249V14H85.7733V14.0249H87.7733ZM92.3539 14.4278C90.6875 13.4575 88.7985 13.0286 86.7752 13.0249L86.7715 15.0249C88.5116 15.0281 90.0403 15.3949 91.3475 16.1561L92.3539 14.4278ZM97.4303 45.2283C99.0899 37.9114 99.5651 31.277 98.7822 25.9603C98.0026 20.6653 95.9414 16.496 92.3501 14.4256L91.3512 16.1583C94.1813 17.7898 96.065 21.2357 96.8036 26.2516C97.5389 31.2457 97.1057 37.6179 95.4799 44.7859L97.4303 45.2283ZM68.2892 30.5098C71.9593 27.1034 75.4971 24.4887 78.6755 22.7294C81.8713 20.9605 84.6264 20.0993 86.7512 20.0933L86.7456 18.0933C84.142 18.1006 81.0417 19.1337 77.707 20.9795C74.3549 22.8349 70.6873 25.5553 66.9286 29.0439L68.2892 30.5098ZM77.9239 40.5909C74.8144 36.3354 71.5997 32.4735 68.3286 29.0826L66.8892 30.4711C70.0892 33.7884 73.246 37.5789 76.309 41.7708L77.9239 40.5909ZM91.8388 42.6939C87.3125 41.5894 82.3903 40.7375 77.2225 40.1865L77.0104 42.1752C82.0968 42.7175 86.931 43.555 91.3647 44.6369L91.8388 42.6939ZM91.7783 36.8415C91.5347 38.9327 91.1189 41.1585 90.6242 43.4548L92.5793 43.876C93.0802 41.5511 93.5107 39.255 93.7648 37.0729L91.7783 36.8415ZM88.8633 20.5814C90.0272 21.2505 91.064 23.0098 91.6444 25.94C92.2125 28.8082 92.2928 32.5609 91.7787 36.8378L93.7644 37.0765C94.2956 32.6576 94.2266 28.6833 93.6063 25.5514C92.9982 22.4814 91.8075 19.9672 89.8602 18.8475L88.8633 20.5814ZM86.7484 20.1182C87.6624 20.1182 88.3349 20.2905 88.8793 20.5904L89.8442 18.8385C88.9451 18.3433 87.9251 18.1182 86.7484 18.1182V20.1182ZM85.7484 19.0933V19.1182H87.7484V19.0933H85.7484ZM89.3219 48.3323C88.4854 51.2305 87.4506 54.2317 86.2661 57.237L88.1268 57.9704C89.3316 54.9134 90.3875 51.8524 91.2434 48.887L89.3219 48.3323ZM80.7801 47.7855C83.9885 48.2536 87.0913 48.8439 90.0405 49.5799L90.5248 47.6394C87.5007 46.8847 84.3315 46.2824 81.0688 45.8064L80.7801 47.7855ZM85.0762 51.6384C84.0192 49.8044 82.8893 48.0001 81.7652 46.2545L80.0837 47.3374C81.1996 49.0702 82.3097 50.8436 83.3434 52.6371L85.0762 51.6384ZM88.0831 57.1413C87.1369 55.3268 86.1558 53.4678 85.071 51.6295L83.3485 52.6459C84.4042 54.435 85.3644 56.2531 86.3098 58.0661L88.0831 57.1413ZM78.9649 72.3808C77.1828 75.4447 75.3808 78.3271 73.5091 81.0069L75.1487 82.1521C77.0601 79.4156 78.8919 76.4842 80.6937 73.3864L78.9649 72.3808ZM83.6554 63.3602C82.2223 66.3694 80.64 69.4052 78.9579 72.393L80.7007 73.3742C82.4036 70.3495 84.0071 67.2733 85.4611 64.2202L83.6554 63.3602ZM78.941 55.2262C80.6662 58.1784 82.2208 61.1832 83.654 64.2173L85.4624 63.3631C84.0085 60.2852 82.4271 57.2277 80.6678 54.2171L78.941 55.2262ZM73.4593 46.6232C75.3333 49.3062 77.1608 52.1903 78.9418 55.2275L80.6671 54.2158C78.864 51.141 77.0081 48.2113 75.0989 45.478L73.4593 46.6232ZM64 46.6282C67.4309 46.6282 70.8387 46.7761 74.1986 47.0473L74.3596 45.0538C70.9498 44.7785 67.4882 44.6282 64 44.6282V46.6282ZM53.7582 47.0716C57.1386 46.7761 60.5442 46.6282 64 46.6282V44.6282C60.4869 44.6282 57.0232 44.7785 53.584 45.0792L53.7582 47.0716ZM49.0351 55.2741C50.8172 52.2103 52.6192 49.3278 54.4909 46.648L52.8513 45.5028C50.9399 48.2393 49.1081 51.1707 47.3063 54.2685L49.0351 55.2741ZM44.3488 64.2858C45.7545 61.2578 47.3337 58.2279 49.0372 55.2704L47.3041 54.2722C45.573 57.2777 43.9664 60.3597 42.5348 63.4437L44.3488 64.2858ZM49.059 72.4288C47.3338 69.4765 45.7792 66.4717 44.346 63.4376L42.5376 64.2918C43.9915 67.3697 45.5729 70.4272 47.3322 73.4378L49.059 72.4288ZM54.5407 81.0317C52.6667 78.3488 50.8392 75.4646 49.0582 72.4275L47.3329 73.4391C49.136 76.5139 50.9919 79.4436 52.9011 82.177L54.5407 81.0317ZM64 81.0267C60.5691 81.0267 57.1613 80.8788 53.8014 80.6076L53.6404 82.6011C57.0502 82.8764 60.5118 83.0267 64 83.0267V81.0267ZM74.2418 80.5833C70.8614 80.8788 67.4558 81.0267 64 81.0267V83.0267C67.5131 83.0267 70.9768 82.8764 74.416 82.5757L74.2418 80.5833ZM86.2703 70.2793C87.5008 73.3011 88.5354 76.3253 89.3981 79.2534L91.3166 78.6881C90.4371 75.703 89.381 72.6152 88.1226 69.525L86.2703 70.2793ZM85.1011 75.8923C86.1581 74.0583 87.1372 72.2035 88.0857 70.3596L86.3072 69.4447C85.3642 71.278 84.4019 73.1002 83.3683 74.8936L85.1011 75.8923ZM81.7935 81.3205C82.9147 79.5547 84.0458 77.7484 85.104 75.8873L83.3653 74.8987C82.3329 76.7147 81.224 78.4862 80.1051 80.2485L81.7935 81.3205ZM90.1228 77.9986C87.1648 78.7122 84.0344 79.3274 80.806 79.7948L81.0926 81.7741C84.3852 81.2974 87.5765 80.6703 90.5919 79.9429L90.1228 77.9986ZM64.7684 93.5305C62.6764 91.3684 60.5596 88.9604 58.4919 86.3067L56.9143 87.5359C59.028 90.2488 61.1921 92.7105 63.3311 94.9212L64.7684 93.5305ZM69.5258 86.3159C67.5122 88.9634 65.3973 91.3696 63.327 93.5347L64.7725 94.9169C66.8836 92.7092 69.0496 90.2457 71.1177 87.5267L69.5258 86.3159ZM63.9751 88.0704C66.1308 88.0704 68.2872 88.0202 70.3698 87.9201L70.2738 85.9224C68.2248 86.0209 66.1003 86.0704 63.9751 86.0704V88.0704ZM57.6551 87.9201C59.7372 88.0203 61.8439 88.0704 63.9751 88.0704V86.0704C61.8752 86.0704 59.8006 86.021 57.7512 85.9224L57.6551 87.9201ZM47.195 79.8198C43.9869 79.3517 40.8811 78.761 37.927 78.0483L37.4579 79.9926C40.4771 80.7209 43.6434 81.3228 46.9063 81.7988L47.195 79.8198ZM42.9072 76.0058C43.9806 77.8001 45.0819 79.5991 46.2099 81.3507L47.8914 80.2679C46.7795 78.5412 45.6905 76.7624 44.6235 74.979L42.9072 76.0058ZM39.892 70.4888C40.8382 72.3033 41.8193 74.1623 42.9041 76.0006L44.6266 74.9842C43.5709 73.1951 42.6107 71.377 41.6654 69.564L39.892 70.4888ZM38.6532 79.2978C39.4897 76.3996 40.5245 73.3984 41.709 70.3931L39.8483 69.6597C38.6435 72.7167 37.5876 75.7777 36.7317 78.7431L38.6532 79.2978ZM63.2067 34.0748C65.2987 36.2369 67.4156 38.6449 69.4832 41.2986L71.0608 40.0694C68.9471 37.3565 66.7831 34.8947 64.644 32.6841L63.2067 34.0748ZM58.4457 41.294C60.4886 38.6404 62.5807 36.2325 64.6481 34.0705L63.2026 32.6883C61.0886 34.8991 58.9496 37.3609 56.8609 40.0739L58.4457 41.294ZM64 39.5349C61.8444 39.5349 59.6879 39.5849 57.6053 39.6851L57.7014 41.6828C59.7503 41.5843 61.8748 41.5349 64 41.5349V39.5349ZM70.3201 39.6851C68.2379 39.585 66.1312 39.5349 64 39.5349V41.5349C66.0999 41.5349 68.1745 41.5842 70.224 41.6828L70.3201 39.6851ZM46.1816 46.2599C45.0605 48.0257 43.9293 49.832 42.8711 51.6931L44.6098 52.6817C45.6422 50.8657 46.7511 49.0942 47.87 47.3319L46.1816 46.2599ZM37.8429 49.5592C40.8334 48.8683 43.9416 48.2529 47.1691 47.7856L46.8825 45.8063C43.5891 46.2831 40.4253 46.9099 37.3927 47.6105L37.8429 49.5592ZM41.7048 57.2762C40.4743 54.2544 39.4397 51.2303 38.577 48.3022L36.6585 48.8674C37.5381 51.8525 38.5942 54.9404 39.8525 58.0305L41.7048 57.2762ZM42.874 51.688C41.82 53.5169 40.816 55.371 39.887 57.2007L41.6703 58.1061C42.5831 56.3083 43.5702 54.4853 44.6068 52.6867L42.874 51.688ZM26.7607 74.4236C22.7795 72.7239 19.548 70.7854 17.3308 68.8692C15.0642 66.9103 14.0524 65.1473 14.0524 63.815H12.0524C12.0524 66.0606 13.654 68.3349 16.023 70.3824C18.4413 72.4724 21.8676 74.5092 25.9753 76.263L26.7607 74.4236ZM33.0458 76.7268C30.8257 76.0127 28.7148 75.2527 26.7586 74.4227L25.9774 76.2639C28.0035 77.1234 30.1734 77.9038 32.4333 78.6307L33.0458 76.7268ZM36.9018 63.4616C34.7949 68.2437 33.0869 72.9063 31.7794 77.3994L33.6997 77.9582C34.9806 73.5566 36.6575 68.9767 38.732 64.2679L36.9018 63.4616ZM31.7292 50.2541C33.0375 54.775 34.7712 59.4637 36.9028 64.2701L38.731 63.4593C36.6315 58.7251 34.9305 54.1217 33.6504 49.6982L31.7292 50.2541ZM26.7627 53.2056C28.6868 52.3789 30.7931 51.6446 32.9991 50.9271L32.3805 49.0252C30.1562 49.7487 27.9816 50.5051 25.9733 51.368L26.7627 53.2056ZM14.0524 63.815C14.0524 62.4811 15.0664 60.7054 17.3319 58.7413C19.5482 56.8199 22.778 54.8824 26.7559 53.2085L25.9801 51.3651C21.8691 53.095 18.4411 55.1327 16.0218 57.2301C13.6518 59.2848 12.0524 61.5712 12.0524 63.815H14.0524ZM39.1616 107.024C37.9977 106.355 36.9609 104.595 36.3805 101.665C35.8124 98.7971 35.7321 95.0444 36.2462 90.7674L34.2605 90.5287C33.7293 94.9477 33.7983 98.9219 34.4186 102.054C35.0267 105.124 36.2174 107.638 38.1646 108.758L39.1616 107.024ZM41.2754 107.512C40.3316 107.49 39.647 107.311 39.1723 107.03L38.154 108.751C39.0232 109.266 40.0809 109.484 41.2278 109.512L41.2754 107.512ZM59.7357 97.0955C56.0592 100.508 52.5153 103.126 49.3327 104.885C46.1324 106.654 43.3753 107.512 41.2516 107.512V109.512C43.8567 109.512 46.9609 108.481 50.3002 106.635C53.6571 104.78 57.3311 102.056 61.0963 98.5614L59.7357 97.0955ZM50.101 87.0143C53.2105 91.2698 56.4252 95.1317 59.6963 98.5227L61.1357 97.1341C57.9357 93.8169 54.7789 90.0263 51.7159 85.8344L50.101 87.0143ZM36.186 84.9113C40.7124 86.0158 45.6346 86.8678 50.8024 87.4187L51.0145 85.43C45.9281 84.8877 41.0939 84.0502 36.6602 82.9683L36.186 84.9113ZM36.2466 90.7638C36.4902 88.6726 36.906 86.4468 37.4007 84.1504L35.4455 83.7292C34.9447 86.0541 34.5142 88.3502 34.26 90.5324L36.2466 90.7638ZM91.8288 90.646C92.3552 94.9231 92.2871 98.6826 91.7307 101.558C91.1619 104.497 90.135 106.26 88.9847 106.926L89.9877 108.657C91.9236 107.534 93.0995 105.011 93.6942 101.938C94.3014 98.8004 94.3577 94.8205 93.8138 90.4017L91.8288 90.646ZM90.674 84.1007C91.1674 86.391 91.5602 88.5742 91.8296 90.6524L93.813 90.3953C93.5349 88.2498 93.1313 86.0105 92.6291 83.6795L90.674 84.1007ZM77.2468 87.3939C82.4389 86.8431 87.3886 85.9909 91.895 84.86L91.4081 82.9202C87.0043 84.0254 82.1478 84.8627 77.0358 85.4051L77.2468 87.3939ZM68.4335 98.4674C71.6478 95.0832 74.888 91.247 77.9533 86.9832L76.3294 85.8158C73.3218 89.9994 70.1407 93.7659 66.9834 97.09L68.4335 98.4674ZM86.8729 107.388C84.7475 107.388 81.9895 106.535 78.7892 104.778C75.6064 103.031 72.0625 100.431 68.3861 97.0433L67.0308 98.5141C70.7961 101.984 74.4701 104.689 77.8268 106.531C81.1661 108.365 84.2694 109.388 86.8729 109.388V107.388ZM88.9679 106.936C88.4859 107.228 87.8189 107.388 86.8729 107.388V109.388C88.0175 109.388 89.0928 109.199 90.0045 108.647L88.9679 106.936ZM101.212 74.4245C99.2883 75.2512 97.182 75.9854 94.976 76.703L95.5947 78.6049C97.8189 77.8814 99.9935 77.125 102.002 76.2621L101.212 74.4245ZM113.973 63.794C113.945 65.1264 112.905 66.9037 110.632 68.8693C108.407 70.7926 105.182 72.7368 101.216 74.423L101.998 76.2636C106.097 74.5211 109.516 72.4777 111.94 70.3822C114.314 68.329 115.926 66.0566 115.972 63.8361L113.973 63.794ZM101.264 53.2065C105.245 54.9062 108.477 56.8446 110.694 58.7609C112.961 60.7198 113.972 62.4828 113.972 63.815H115.972C115.972 61.5695 114.371 59.2952 112.002 57.2477C109.584 55.1577 106.157 53.1209 102.05 51.3671L101.264 53.2065ZM94.9419 50.9072C97.1715 51.592 99.2808 52.3754 101.27 53.2091L102.043 51.3645C100.001 50.5087 97.8294 49.7019 95.5292 48.9954L94.9419 50.9072ZM91.0734 64.1685C93.1802 59.3864 94.8882 54.7238 96.1957 50.2307L94.2754 49.6719C92.9945 54.0734 91.3176 58.6534 89.2431 63.3622L91.0734 64.1685ZM96.2459 77.376C94.9376 72.8551 93.2039 68.1664 91.0724 63.3599L89.2441 64.1708C91.3436 68.905 93.0446 73.5084 94.3247 77.9319L96.2459 77.376ZM63.9996 70.9996C67.9883 70.9996 71.2218 67.7661 71.2218 63.7774H69.2218C69.2218 66.6616 66.8837 68.9996 63.9996 68.9996V70.9996ZM56.7773 63.7774C56.7773 67.7661 60.0108 70.9996 63.9996 70.9996V68.9996C61.1154 68.9996 58.7773 66.6616 58.7773 63.7774H56.7773ZM63.9996 56.5552C60.0108 56.5552 56.7773 59.7887 56.7773 63.7774H58.7773C58.7773 60.8932 61.1154 58.5552 63.9996 58.5552V56.5552ZM71.2218 63.7774C71.2218 59.7887 67.9883 56.5552 63.9996 56.5552V58.5552C66.8837 58.5552 69.2218 60.8932 69.2218 63.7774H71.2218Z" fill="url(#paint1_linear_730_39)"/>
<defs>
<linearGradient id="paint0_linear_730_39" x1="114.926" y1="15.7111" x2="25.0794" y2="121.972" gradientUnits="userSpaceOnUse">
<stop stop-color="#D800BD"/>
<stop offset="0.408098" stop-color="#F92D7A"/>
<stop offset="0.590073" stop-color="#FF4A52"/>
<stop offset="1" stop-color="#FFB243"/>
</linearGradient>
<linearGradient id="paint1_linear_730_39" x1="114.926" y1="15.7111" x2="25.0794" y2="121.972" gradientUnits="userSpaceOnUse">
<stop stop-color="#D800BD"/>
<stop offset="0.408098" stop-color="#F92D7A"/>
<stop offset="0.590073" stop-color="#FF4A52"/>
<stop offset="1" stop-color="#FFB243"/>
</linearGradient>
</defs>
</svg>
