<svg width="48" height="48" viewBox="0 0 48 48" fill="none" xmlns="http://www.w3.org/2000/svg">
<path fill-rule="evenodd" clip-rule="evenodd" d="M37.3095 15.1389C37.6293 15.5548 38.2491 15.5763 38.5969 15.1834L42.5395 10.7295C43.049 10.1539 43.9999 10.5143 43.9999 11.2831V11.3571V11.8098V25.4271V25.8797V28.3555C43.9999 28.5249 43.9485 28.6902 43.8523 28.8296L37.0568 38.6845C36.8079 39.0436 36.3319 39.1747 35.9352 38.9918L28.8927 35.7665C28.6359 35.6488 28.337 35.669 28.0984 35.8201L20.3011 40.7548C20.1675 40.8393 20.0126 40.8842 19.8545 40.8842H17.1688H13.0106C10.1395 40.8842 4 41.4114 4 38.5403V29.9142V29.4615V29.4068C4 28.5947 8.85131 28.2605 9.32383 28.921L11.5918 32.0912C11.9205 32.5506 12.6009 32.558 12.9395 32.1058L18.9674 24.0558C19.1378 23.8279 19.4067 23.6934 19.6915 23.6934C19.9437 23.6934 20.185 23.7986 20.3562 23.9832L22.1971 25.9702C22.5662 26.3685 23.2112 26.3142 23.5085 25.8599L32.9464 11.4373C33.1134 11.1818 33.399 11.0281 33.7038 11.0281C33.9844 11.0281 34.2491 11.1584 34.4203 11.3805L37.3095 15.1389Z" stroke="url(#paint0_linear_1005_188)" stroke-width="5"/>
<rect x="4" y="4" width="39.9999" height="39.9999" rx="4" stroke="url(#paint1_linear_1005_188)" stroke-width="5"/>
<defs>
<linearGradient id="paint0_linear_1005_188" x1="25.9047" y1="40.8842" x2="25.9047" y2="10.4463" gradientUnits="userSpaceOnUse">
<stop stop-color="#FD5900"/>
<stop offset="1" stop-color="#FFDE00"/>
</linearGradient>
<linearGradient id="paint1_linear_1005_188" x1="24" y1="43.9999" x2="24" y2="4" gradientUnits="userSpaceOnUse">
<stop stop-color="#FD5900"/>
<stop offset="1" stop-color="#FFDE00"/>
</linearGradient>
</defs>
</svg>
