<svg width="16" height="16" viewBox="0 0 16 16" fill="none" xmlns="http://www.w3.org/2000/svg">
<path fill-rule="evenodd" clip-rule="evenodd" d="M8.06949 2.33333C6.1333 2.33333 4.63641 3.7973 4.63641 5.51629V7.14583C4.63641 7.36034 4.54827 7.54986 4.50233 7.64308C4.44264 7.76421 4.36459 7.89265 4.28134 8.01858C4.11362 8.27228 3.88915 8.56904 3.65 8.86902C3.34313 9.25391 3.27779 9.69962 3.37555 10.0418C3.46843 10.3669 3.70959 10.6213 4.1211 10.6896C5.15885 10.8617 6.48558 11 8.06949 11C9.77015 11 11.07 10.8405 12.0099 10.6535C12.3438 10.5871 12.5369 10.3853 12.6203 10.1244C12.7095 9.84557 12.6782 9.46726 12.4537 9.10713C12.3459 8.93404 12.2299 8.75718 12.1132 8.57988C12.1012 8.56175 12.0892 8.54359 12.0773 8.52541C11.9739 8.36855 11.8697 8.21051 11.777 8.06368C11.6747 7.90174 11.5752 7.73622 11.4996 7.58506C11.4406 7.46692 11.3334 7.24153 11.3334 7V5.47462C11.3334 3.72882 9.97773 2.33333 8.06949 2.33333ZM3.30308 5.51629C3.30308 2.9831 5.47723 1 8.06949 1C10.6897 1 12.6668 2.96826 12.6668 5.47462V6.93449C12.6723 6.94745 12.655 6.91104 12.6668 6.93449C12.7118 7.02465 12.8081 7.19938 12.9042 7.3516C12.9896 7.48678 13.0863 7.63351 13.1911 7.79249C13.2028 7.81031 13.2147 7.82829 13.2266 7.84642C13.3433 8.02351 13.4676 8.21301 13.5853 8.40192C13.9981 9.06423 14.1091 9.84653 13.8903 10.5306C13.6657 11.2326 13.1004 11.796 12.2701 11.9612C11.2412 12.166 9.85399 12.3333 8.06949 12.3333C6.40777 12.3333 5.00799 12.1882 3.90297 12.0049C2.95536 11.8478 2.31995 11.2008 2.0935 10.4081C1.87193 9.63244 2.0445 8.74393 2.60745 8.03783C2.83758 7.74918 3.03362 7.48819 3.16909 7.28327C3.23453 7.18428 3.27785 7.11031 3.30308 7.06024V5.51629ZM10.5236 13.2539C10.7516 13.543 10.702 13.9622 10.4129 14.1902C9.0521 15.2632 6.96223 15.2768 5.58672 14.1897C5.29785 13.9614 5.24876 13.5422 5.47706 13.2533C5.70536 12.9644 6.1246 12.9153 6.41347 13.1436C7.30058 13.8447 8.70689 13.8374 9.58729 13.1432C9.87641 12.9152 10.2956 12.9648 10.5236 13.2539Z" fill="url(#paint0_linear_508_273)"/>
<path d="M12.6668 6.93449C12.655 6.91104 12.6723 6.94745 12.6668 6.93449ZM12.6668 6.93449C12.7118 7.02465 12.8081 7.19938 12.9042 7.3516C12.9896 7.48678 13.0863 7.63351 13.1911 7.79249C13.2028 7.81031 13.2147 7.82829 13.2266 7.84642C13.3433 8.02351 13.4676 8.21301 13.5853 8.40192C13.9981 9.06423 14.1091 9.84653 13.8903 10.5306C13.6657 11.2326 13.1004 11.796 12.2701 11.9612C11.2412 12.166 9.85399 12.3333 8.06949 12.3333C6.40777 12.3333 5.00799 12.1882 3.90297 12.0049C2.95536 11.8478 2.31995 11.2008 2.0935 10.4081C1.87193 9.63244 2.0445 8.74393 2.60745 8.03783C2.83758 7.74918 3.03362 7.48819 3.16909 7.28327C3.23453 7.18428 3.27785 7.11031 3.30308 7.06024V5.51629C3.30308 2.9831 5.47723 1 8.06949 1C10.6897 1 12.6668 2.96826 12.6668 5.47462V6.93449ZM4.63641 5.51629C4.63641 3.7973 6.1333 2.33333 8.06949 2.33333C9.97773 2.33333 11.3334 3.72882 11.3334 5.47462V7C11.3334 7.24153 11.4406 7.46692 11.4996 7.58506C11.5752 7.73622 11.6747 7.90174 11.777 8.06368C11.8697 8.21051 11.9739 8.36855 12.0773 8.52541C12.0892 8.54359 12.1012 8.56175 12.1132 8.57988C12.2299 8.75718 12.3459 8.93404 12.4537 9.10713C12.6782 9.46726 12.7095 9.84557 12.6203 10.1244C12.5369 10.3853 12.3438 10.5871 12.0099 10.6535C11.07 10.8405 9.77015 11 8.06949 11C6.48558 11 5.15885 10.8617 4.1211 10.6896C3.70959 10.6213 3.46843 10.3669 3.37555 10.0418C3.27779 9.69962 3.34313 9.25391 3.65 8.86902C3.88915 8.56904 4.11362 8.27228 4.28134 8.01858C4.36459 7.89265 4.44264 7.76421 4.50233 7.64308C4.54827 7.54986 4.63641 7.36034 4.63641 7.14583V5.51629ZM10.4129 14.1902C10.702 13.9622 10.7516 13.543 10.5236 13.2539C10.2956 12.9648 9.87641 12.9152 9.58729 13.1432C8.70689 13.8374 7.30058 13.8447 6.41347 13.1436C6.1246 12.9153 5.70536 12.9644 5.47706 13.2533C5.24876 13.5422 5.29785 13.9614 5.58672 14.1897C6.96223 15.2768 9.0521 15.2632 10.4129 14.1902Z" stroke="url(#paint1_linear_508_273)" stroke-width="0.6" stroke-linecap="round"/>
<defs>
<linearGradient id="paint0_linear_508_273" x1="2" y1="8" x2="14.0002" y2="8" gradientUnits="userSpaceOnUse">
<stop stop-color="#FFC152"/>
<stop offset="1" stop-color="#FF5F5F"/>
</linearGradient>
<linearGradient id="paint1_linear_508_273" x1="2" y1="8" x2="14.0002" y2="8" gradientUnits="userSpaceOnUse">
<stop stop-color="#FFC152"/>
<stop offset="1" stop-color="#FF5F5F"/>
</linearGradient>
</defs>
</svg>
