<svg width="24" height="24" viewBox="0 0 24 24" fill="none" xmlns="http://www.w3.org/2000/svg">
<path d="M10.8476 1C9.52148 1 8.24975 1.52677 7.31209 2.46443C6.37443 3.40209 5.84767 4.67383 5.84766 5.99989C5.84767 7.32594 6.37443 8.59768 7.31209 9.5353C8.24975 10.473 9.52148 10.9998 10.8476 10.9998C12.1736 10.9998 13.4453 10.473 14.383 9.5353C15.3206 8.59768 15.8474 7.32594 15.8475 5.99989C15.8474 4.67383 15.3206 3.40209 14.383 2.46443C13.4453 1.52677 12.1736 1 10.8476 1ZM10.8476 2.24997C11.8421 2.24997 12.7959 2.64503 13.4991 3.34827C14.2024 4.05152 14.5975 5.00534 14.5975 5.99989C14.5975 6.99443 14.2024 7.94818 13.4991 8.65142C12.7959 9.3547 11.8421 9.7498 10.8476 9.7498C9.85298 9.7498 8.89922 9.3547 8.19597 8.65142C7.49273 7.94818 7.09764 6.99443 7.09763 5.99989C7.09764 5.00534 7.49273 4.05152 8.19597 3.34827C8.89922 2.64503 9.85298 2.24997 10.8476 2.24997Z" fill="url(#paint0_linear_922_25)" stroke="url(#paint1_linear_922_25)"/>
<path d="M10.8482 12.25C8.41465 12.2529 6.06565 13.1431 4.24143 14.7538C2.53077 16.2643 1.39169 18.3112 1.00564 20.5512C0.964757 20.7885 1.15157 20.9998 1.39233 20.9998H1.85209C2.05093 20.9998 2.2186 20.8535 2.25477 20.658C2.61489 18.7112 3.62564 16.9403 5.12657 15.6389C6.7149 14.2617 8.74598 13.5024 10.8482 13.5C11.1115 13.5021 11.3743 13.5161 11.6361 13.542C11.8799 13.5661 12.0982 13.3793 12.0982 13.1343V12.688C12.0982 12.4875 11.9499 12.3172 11.7505 12.2976C11.4507 12.2681 11.1496 12.2522 10.8482 12.25Z" fill="url(#paint2_linear_922_25)" stroke="url(#paint3_linear_922_25)"/>
<path d="M20.4923 15.2548V14.5222C20.4923 12.5769 18.9154 11 16.9701 11C15.0249 11 13.448 12.5769 13.448 14.5222V15.2548C12.5226 15.727 11.9396 16.6778 11.9385 17.7168V20.2326C11.9402 21.7603 13.1782 22.9983 14.7059 23H19.2344C20.7621 22.9983 22.0001 21.7603 22.0018 20.2326V17.7168C22.0007 16.6778 21.4177 15.727 20.4923 15.2548ZM16.9701 12.5095C18.0817 12.5095 18.9828 13.4106 18.9828 14.5222V14.9493H14.9575V14.5222C14.9575 13.4106 15.8586 12.5095 16.9701 12.5095ZM20.4923 20.2326C20.4923 20.9273 19.9291 21.4905 19.2344 21.4905H14.7059C14.0112 21.4905 13.448 20.9273 13.448 20.2326V17.7168C13.448 17.0221 14.0112 16.4589 14.7059 16.4589H19.2344C19.9291 16.4589 20.4923 17.0221 20.4923 17.7168V20.2326V20.2326Z" fill="url(#paint4_linear_922_25)"/>
<path d="M16.7186 17.9683H17.2218C17.6386 17.9683 17.9765 18.3062 17.9765 18.723C17.9765 19.1398 17.6386 19.4778 17.2218 19.4778H16.7186C16.3018 19.4778 15.9639 19.1398 15.9639 18.723C15.9639 18.3062 16.3018 17.9683 16.7186 17.9683Z" fill="url(#paint5_linear_922_25)"/>
<defs>
<linearGradient id="paint0_linear_922_25" x1="10.8476" y1="10.9998" x2="10.8476" y2="1" gradientUnits="userSpaceOnUse">
<stop stop-color="#FDA700"/>
<stop offset="1" stop-color="#FFDE00"/>
</linearGradient>
<linearGradient id="paint1_linear_922_25" x1="10.8476" y1="10.9998" x2="10.8476" y2="1" gradientUnits="userSpaceOnUse">
<stop stop-color="#FDA700"/>
<stop offset="1" stop-color="#FFDE00"/>
</linearGradient>
<linearGradient id="paint2_linear_922_25" x1="6.51848" y1="20.9998" x2="6.51848" y2="12.25" gradientUnits="userSpaceOnUse">
<stop stop-color="#FDA700"/>
<stop offset="1" stop-color="#FFDE00"/>
</linearGradient>
<linearGradient id="paint3_linear_922_25" x1="6.51848" y1="20.9998" x2="6.51848" y2="12.25" gradientUnits="userSpaceOnUse">
<stop stop-color="#FDA700"/>
<stop offset="1" stop-color="#FFDE00"/>
</linearGradient>
<linearGradient id="paint4_linear_922_25" x1="11.793" y1="11.1181" x2="24.0391" y2="21.7019" gradientUnits="userSpaceOnUse">
<stop stop-color="#F9D423"/>
<stop offset="0.515624" stop-color="#FF4E50"/>
<stop offset="0.991304" stop-color="#8A2387"/>
</linearGradient>
<linearGradient id="paint5_linear_922_25" x1="15.9348" y1="17.9831" x2="17.4162" y2="20.0188" gradientUnits="userSpaceOnUse">
<stop stop-color="#F9D423"/>
<stop offset="0.515624" stop-color="#FF4E50"/>
<stop offset="0.991304" stop-color="#8A2387"/>
</linearGradient>
</defs>
</svg>
