<svg width="32" height="32" viewBox="0 0 32 32" fill="none" xmlns="http://www.w3.org/2000/svg">
<path fill-rule="evenodd" clip-rule="evenodd" d="M2.6841 29.3159C3.12155 29.7534 3.71468 29.9994 4.33333 30H27.6667C28.2853 29.9994 28.8784 29.7534 29.3159 29.3159C29.7534 28.8784 29.9994 28.2853 30 27.6667V17C30 16.4477 29.5523 16 29 16H28.6667C28.1144 16 27.6667 16.4477 27.6667 17V26.6667C27.6667 27.219 27.219 27.6667 26.6667 27.6667H5.33333C4.78105 27.6667 4.33333 27.219 4.33333 26.6667V5.33333C4.33333 4.78105 4.78105 4.33333 5.33333 4.33333H15C15.5523 4.33333 16 3.88562 16 3.33333V3C16 2.44772 15.5523 2 15 2H4.33333C3.71468 2.00062 3.12155 2.24665 2.6841 2.6841C2.24665 3.12155 2.00062 3.71468 2 4.33333V27.6667C2.00062 28.2853 2.24665 28.8784 2.6841 29.3159ZM30.0003 10.3333C30.0003 10.8856 29.5526 11.3333 29.0003 11.3333H21.667C21.1147 11.3333 20.667 10.8856 20.667 10.3333V3C20.667 2.44771 21.1147 2 21.667 2H29.0003C29.5526 2 30.0003 2.44772 30.0003 3V10.3333ZM23.0003 8C23.0003 8.55229 23.448 9 24.0003 9H26.667C27.2193 9 27.667 8.55228 27.667 8V5.33333C27.667 4.78105 27.2193 4.33333 26.667 4.33333H24.0003C23.448 4.33333 23.0003 4.78105 23.0003 5.33333V8ZM18.1663 14.8335C17.6141 14.8335 17.1663 14.3858 17.1663 13.8335V8.8335C17.1663 8.28121 16.7186 7.8335 16.1663 7.8335H8.83301C8.28072 7.8335 7.83301 8.28121 7.83301 8.8335V23.1668C7.83301 23.7191 8.28072 24.1668 8.83301 24.1668H23.1663C23.7186 24.1668 24.1663 23.7191 24.1663 23.1668V15.8335C24.1663 15.2812 23.7186 14.8335 23.1663 14.8335H18.1663ZM10.1663 11.1668C10.1663 10.6145 10.6141 10.1668 11.1663 10.1668H13.833C14.3853 10.1668 14.833 10.6145 14.833 11.1668V13.8335C14.833 14.3858 14.3853 14.8335 13.833 14.8335H11.1663C10.6141 14.8335 10.1663 14.3858 10.1663 13.8335V11.1668ZM14.833 20.8335C14.833 21.3858 14.3853 21.8335 13.833 21.8335H11.1663C10.6141 21.8335 10.1663 21.3858 10.1663 20.8335V18.1668C10.1663 17.6145 10.6141 17.1668 11.1663 17.1668H13.833C14.3853 17.1668 14.833 17.6145 14.833 18.1668V20.8335ZM21.833 20.8335C21.833 21.3858 21.3853 21.8335 20.833 21.8335H18.1663C17.6141 21.8335 17.1663 21.3858 17.1663 20.8335V18.1668C17.1663 17.6145 17.6141 17.1668 18.1663 17.1668H20.833C21.3853 17.1668 21.833 17.6145 21.833 18.1668V20.8335Z" fill="url(#paint0_linear_922_36)"/>
<path d="M4.33333 30L4.33263 30.7H4.33333V30ZM2.6841 29.3159L2.18912 29.8109L2.18913 29.8109L2.6841 29.3159ZM27.6667 30L27.6667 30.7L27.6674 30.7L27.6667 30ZM29.3159 29.3159L29.8109 29.8109L29.8109 29.8109L29.3159 29.3159ZM30 27.6667L30.7 27.6674V27.6667H30ZM4.33333 2L4.33333 1.3L4.33263 1.3L4.33333 2ZM2.6841 2.6841L2.18913 2.18913L2.18913 2.18913L2.6841 2.6841ZM2 4.33333L1.3 4.33263V4.33333H2ZM2 27.6667L1.3 27.6667L1.3 27.6674L2 27.6667ZM4.33403 29.3C3.90079 29.2996 3.48542 29.1273 3.17907 28.8209L2.18913 29.8109C2.75768 30.3794 3.52858 30.6992 4.33263 30.7L4.33403 29.3ZM27.6667 29.3H4.33333V30.7H27.6667V29.3ZM28.8209 28.8209C28.5146 29.1273 28.0992 29.2996 27.666 29.3L27.6674 30.7C28.4714 30.6992 29.2423 30.3794 29.8109 29.8109L28.8209 28.8209ZM29.3 27.666C29.2996 28.0992 29.1273 28.5146 28.8209 28.8209L29.8109 29.8109C30.3794 29.2423 30.6992 28.4714 30.7 27.6674L29.3 27.666ZM29.3 17V27.6667H30.7V17H29.3ZM29 16.7C29.1657 16.7 29.3 16.8343 29.3 17H30.7C30.7 16.0611 29.9389 15.3 29 15.3V16.7ZM28.6667 16.7H29V15.3H28.6667V16.7ZM28.3667 17C28.3667 16.8343 28.501 16.7 28.6667 16.7V15.3C27.7278 15.3 26.9667 16.0611 26.9667 17H28.3667ZM28.3667 26.6667V17H26.9667V26.6667H28.3667ZM26.6667 28.3667C27.6055 28.3667 28.3667 27.6055 28.3667 26.6667H26.9667C26.9667 26.8324 26.8324 26.9667 26.6667 26.9667V28.3667ZM5.33333 28.3667H26.6667V26.9667H5.33333V28.3667ZM3.63333 26.6667C3.63333 27.6055 4.39445 28.3667 5.33333 28.3667V26.9667C5.16765 26.9667 5.03333 26.8324 5.03333 26.6667H3.63333ZM3.63333 5.33333V26.6667H5.03333V5.33333H3.63333ZM5.33333 3.63333C4.39445 3.63333 3.63333 4.39445 3.63333 5.33333H5.03333C5.03333 5.16765 5.16765 5.03333 5.33333 5.03333V3.63333ZM15 3.63333H5.33333V5.03333H15V3.63333ZM15.3 3.33333C15.3 3.49902 15.1657 3.63333 15 3.63333V5.03333C15.9389 5.03333 16.7 4.27222 16.7 3.33333H15.3ZM15.3 3V3.33333H16.7V3H15.3ZM15 2.7C15.1657 2.7 15.3 2.83432 15.3 3H16.7C16.7 2.06111 15.9389 1.3 15 1.3V2.7ZM4.33333 2.7H15V1.3H4.33333V2.7ZM3.17907 3.17907C3.48542 2.87273 3.90079 2.70043 4.33403 2.7L4.33263 1.3C3.52858 1.3008 2.75768 1.62057 2.18913 2.18913L3.17907 3.17907ZM2.7 4.33403C2.70043 3.90079 2.87273 3.48542 3.17907 3.17907L2.18913 2.18913C1.62057 2.75768 1.3008 3.52858 1.3 4.33263L2.7 4.33403ZM2.7 27.6667V4.33333H1.3V27.6667H2.7ZM3.17908 28.8209C2.87273 28.5146 2.70043 28.0992 2.7 27.666L1.3 27.6674C1.3008 28.4714 1.62057 29.2423 2.18912 29.8109L3.17908 28.8209ZM29.0003 12.0333C29.9392 12.0333 30.7003 11.2722 30.7003 10.3333H29.3003C29.3003 10.499 29.166 10.6333 29.0003 10.6333V12.0333ZM21.667 12.0333H29.0003V10.6333H21.667V12.0333ZM19.967 10.3333C19.967 11.2722 20.7281 12.0333 21.667 12.0333V10.6333C21.5013 10.6333 21.367 10.499 21.367 10.3333H19.967ZM19.967 3V10.3333H21.367V3H19.967ZM21.667 1.3C20.7281 1.3 19.967 2.06111 19.967 3H21.367C21.367 2.83431 21.5013 2.7 21.667 2.7V1.3ZM29.0003 1.3H21.667V2.7H29.0003V1.3ZM30.7003 3C30.7003 2.06112 29.9392 1.3 29.0003 1.3V2.7C29.166 2.7 29.3003 2.83431 29.3003 3H30.7003ZM30.7003 10.3333V3H29.3003V10.3333H30.7003ZM24.0003 8.3C23.8346 8.3 23.7003 8.16569 23.7003 8H22.3003C22.3003 8.93888 23.0614 9.7 24.0003 9.7V8.3ZM26.667 8.3H24.0003V9.7H26.667V8.3ZM26.967 8C26.967 8.16569 26.8327 8.3 26.667 8.3V9.7C27.6059 9.7 28.367 8.93888 28.367 8H26.967ZM26.967 5.33333V8H28.367V5.33333H26.967ZM26.667 5.03333C26.8327 5.03333 26.967 5.16765 26.967 5.33333H28.367C28.367 4.39445 27.6059 3.63333 26.667 3.63333V5.03333ZM24.0003 5.03333H26.667V3.63333H24.0003V5.03333ZM23.7003 5.33333C23.7003 5.16765 23.8346 5.03333 24.0003 5.03333V3.63333C23.0614 3.63333 22.3003 4.39445 22.3003 5.33333H23.7003ZM23.7003 8V5.33333H22.3003V8H23.7003ZM16.4663 13.8335C16.4663 14.7724 17.2275 15.5335 18.1663 15.5335V14.1335C18.0007 14.1335 17.8663 13.9992 17.8663 13.8335H16.4663ZM16.4663 8.8335V13.8335H17.8663V8.8335H16.4663ZM16.1663 8.5335C16.332 8.5335 16.4663 8.66781 16.4663 8.8335H17.8663C17.8663 7.89461 17.1052 7.1335 16.1663 7.1335V8.5335ZM8.83301 8.5335H16.1663V7.1335H8.83301V8.5335ZM8.53301 8.8335C8.53301 8.66781 8.66732 8.5335 8.83301 8.5335V7.1335C7.89412 7.1335 7.13301 7.89461 7.13301 8.8335H8.53301ZM8.53301 23.1668V8.8335H7.13301V23.1668H8.53301ZM8.83301 23.4668C8.66732 23.4668 8.53301 23.3325 8.53301 23.1668H7.13301C7.13301 24.1057 7.89412 24.8668 8.83301 24.8668V23.4668ZM23.1663 23.4668H8.83301V24.8668H23.1663V23.4668ZM23.4663 23.1668C23.4663 23.3325 23.332 23.4668 23.1663 23.4668V24.8668C24.1052 24.8668 24.8663 24.1057 24.8663 23.1668H23.4663ZM23.4663 15.8335V23.1668H24.8663V15.8335H23.4663ZM23.1663 15.5335C23.332 15.5335 23.4663 15.6678 23.4663 15.8335H24.8663C24.8663 14.8946 24.1052 14.1335 23.1663 14.1335V15.5335ZM18.1663 15.5335H23.1663V14.1335H18.1663V15.5335ZM11.1663 9.46683C10.2275 9.46683 9.46634 10.2279 9.46634 11.1668H10.8663C10.8663 11.0011 11.0007 10.8668 11.1663 10.8668V9.46683ZM13.833 9.46683H11.1663V10.8668H13.833V9.46683ZM15.533 11.1668C15.533 10.2279 14.7719 9.46683 13.833 9.46683V10.8668C13.9987 10.8668 14.133 11.0011 14.133 11.1668H15.533ZM15.533 13.8335V11.1668H14.133V13.8335H15.533ZM13.833 15.5335C14.7719 15.5335 15.533 14.7724 15.533 13.8335H14.133C14.133 13.9992 13.9987 14.1335 13.833 14.1335V15.5335ZM11.1663 15.5335H13.833V14.1335H11.1663V15.5335ZM9.46634 13.8335C9.46634 14.7724 10.2275 15.5335 11.1663 15.5335V14.1335C11.0007 14.1335 10.8663 13.9992 10.8663 13.8335H9.46634ZM9.46634 11.1668V13.8335H10.8663V11.1668H9.46634ZM13.833 22.5335C14.7719 22.5335 15.533 21.7724 15.533 20.8335H14.133C14.133 20.9992 13.9987 21.1335 13.833 21.1335V22.5335ZM11.1663 22.5335H13.833V21.1335H11.1663V22.5335ZM9.46634 20.8335C9.46634 21.7724 10.2275 22.5335 11.1663 22.5335V21.1335C11.0007 21.1335 10.8663 20.9992 10.8663 20.8335H9.46634ZM9.46634 18.1668V20.8335H10.8663V18.1668H9.46634ZM11.1663 16.4668C10.2275 16.4668 9.46634 17.2279 9.46634 18.1668H10.8663C10.8663 18.0011 11.0007 17.8668 11.1663 17.8668V16.4668ZM13.833 16.4668H11.1663V17.8668H13.833V16.4668ZM15.533 18.1668C15.533 17.2279 14.7719 16.4668 13.833 16.4668V17.8668C13.9987 17.8668 14.133 18.0011 14.133 18.1668H15.533ZM15.533 20.8335V18.1668H14.133V20.8335H15.533ZM20.833 22.5335C21.7719 22.5335 22.533 21.7724 22.533 20.8335H21.133C21.133 20.9992 20.9987 21.1335 20.833 21.1335V22.5335ZM18.1663 22.5335H20.833V21.1335H18.1663V22.5335ZM16.4663 20.8335C16.4663 21.7724 17.2275 22.5335 18.1663 22.5335V21.1335C18.0007 21.1335 17.8663 20.9992 17.8663 20.8335H16.4663ZM16.4663 18.1668V20.8335H17.8663V18.1668H16.4663ZM18.1663 16.4668C17.2275 16.4668 16.4663 17.2279 16.4663 18.1668H17.8663C17.8663 18.0011 18.0007 17.8668 18.1663 17.8668V16.4668ZM20.833 16.4668H18.1663V17.8668H20.833V16.4668ZM22.533 18.1668C22.533 17.2279 21.7719 16.4668 20.833 16.4668V17.8668C20.9987 17.8668 21.133 18.0011 21.133 18.1668H22.533ZM22.533 20.8335V18.1668H21.133V20.8335H22.533Z" fill="url(#paint1_linear_922_36)"/>
<defs>
<linearGradient id="paint0_linear_922_36" x1="16.0002" y1="2" x2="16.0002" y2="30" gradientUnits="userSpaceOnUse">
<stop stop-color="#FF97CE"/>
<stop offset="1" stop-color="#854FE6"/>
</linearGradient>
<linearGradient id="paint1_linear_922_36" x1="16.0002" y1="2" x2="16.0002" y2="30" gradientUnits="userSpaceOnUse">
<stop stop-color="#FF97CE"/>
<stop offset="1" stop-color="#854FE6"/>
</linearGradient>
</defs>
</svg>
