<svg width="16" height="16" viewBox="0 0 16 16" fill="none" xmlns="http://www.w3.org/2000/svg">
<path d="M5.90251 7.46152C5.18848 7.46152 4.50367 7.17786 3.99877 6.67296C3.49387 6.16806 3.21022 5.48326 3.21022 4.76922V2.61538C3.21022 2.47257 3.26694 2.33561 3.36793 2.23463C3.4689 2.13365 3.60587 2.07692 3.74868 2.07692H4.28713C4.42994 2.07692 4.56691 2.02018 4.66788 1.91921C4.76887 1.81822 4.8256 1.68127 4.8256 1.53846C4.8256 1.39565 4.76887 1.2587 4.66788 1.15771C4.56691 1.05673 4.42994 1 4.28713 1H3.74868C3.32025 1 2.90936 1.17019 2.60643 1.47314C2.30348 1.77607 2.1333 2.18696 2.1333 2.61538V4.76922C2.13398 5.37754 2.28232 5.9766 2.56557 6.51495C2.84881 7.0533 3.2585 7.51486 3.75945 7.85998C4.24074 8.2843 4.63106 8.80175 4.90684 9.38108C5.18262 9.96042 5.33816 10.5896 5.36406 11.2307C5.36406 12.2304 5.76117 13.1891 6.46803 13.896C7.1749 14.6028 8.13362 15 9.13327 15C10.1329 15 11.0917 14.6028 11.7985 13.896C12.5054 13.1891 12.9025 12.2304 12.9025 11.2307V10.6169C13.4101 10.4858 13.8524 10.1742 14.1467 9.74027C14.4409 9.30639 14.5667 8.78011 14.5007 8.26006C14.4347 7.74 14.1812 7.26189 13.7878 6.91535C13.3946 6.5688 12.8882 6.37761 12.364 6.37761C11.8398 6.37761 11.3336 6.5688 10.9402 6.91535C10.5469 7.26189 10.2934 7.74 10.2274 8.26006C10.1613 8.78011 10.2872 9.30639 10.5814 9.74027C10.8756 10.1742 11.318 10.4858 11.8256 10.6169V11.2307C11.8256 11.9448 11.5419 12.6296 11.037 13.1345C10.5321 13.6394 9.84732 13.923 9.13327 13.923C8.41924 13.923 7.73444 13.6394 7.22953 13.1345C6.72463 12.6296 6.44098 11.9448 6.44098 11.2307C6.46824 10.5888 6.62544 9.95914 6.9031 9.37975C7.18077 8.80037 7.57309 8.28335 8.05636 7.85998C8.55531 7.51366 8.9629 7.05157 9.24423 6.5133C9.52556 5.97502 9.67224 5.37658 9.67174 4.76922V2.61538C9.67174 2.18696 9.50154 1.77607 9.19861 1.47314C8.89566 1.17019 8.48478 1 8.05636 1H7.51789C7.37508 1 7.23813 1.05673 7.13714 1.15771C7.03617 1.2587 6.97944 1.39565 6.97944 1.53846C6.97944 1.68127 7.03617 1.81822 7.13714 1.91921C7.23813 2.02018 7.37508 2.07692 7.51789 2.07692H8.05636C8.19917 2.07692 8.33612 2.13365 8.43711 2.23463C8.53808 2.33561 8.59482 2.47257 8.59482 2.61538V4.76922C8.59482 5.12277 8.52518 5.47287 8.38988 5.79952C8.25458 6.12616 8.05625 6.42297 7.80626 6.67296C7.55626 6.92296 7.25946 7.12128 6.93281 7.25658C6.60617 7.39188 6.25608 7.46152 5.90251 7.46152ZM12.364 9.61536C12.0784 9.61536 11.8045 9.50189 11.6025 9.29993C11.4006 9.09797 11.2871 8.82405 11.2871 8.53844C11.2871 8.25282 11.4006 7.9789 11.6025 7.77694C11.8045 7.57498 12.0784 7.46152 12.364 7.46152C12.6497 7.46152 12.9236 7.57498 13.1255 7.77694C13.3275 7.9789 13.441 8.25282 13.441 8.53844C13.441 8.82405 13.3275 9.09797 13.1255 9.29993C12.9236 9.50189 12.6497 9.61536 12.364 9.61536Z" fill="url(#paint0_linear_670_249)" stroke="url(#paint1_linear_670_249)" stroke-width="0.8"/>
<defs>
<linearGradient id="paint0_linear_670_249" x1="8.32558" y1="15" x2="8.32558" y2="1" gradientUnits="userSpaceOnUse">
<stop stop-color="#FDA700"/>
<stop offset="1" stop-color="#FFDE00"/>
</linearGradient>
<linearGradient id="paint1_linear_670_249" x1="8.32558" y1="15" x2="8.32558" y2="1" gradientUnits="userSpaceOnUse">
<stop stop-color="#FDA700"/>
<stop offset="1" stop-color="#FFDE00"/>
</linearGradient>
</defs>
</svg>
