<svg width="64" height="64" viewBox="0 0 64 64" fill="none" xmlns="http://www.w3.org/2000/svg">
<path d="M47.1667 6H16.8333C13.4309 6.00371 10.1688 7.35698 7.76289 9.76289C5.35698 12.1688 4.00371 15.4309 4 18.8333L4 32.8333C4.00371 36.2358 5.35698 39.4979 7.76289 41.9038C10.1688 44.3097 13.4309 45.663 16.8333 45.6667H28.5V50.3333H22.6667C21.7384 50.3333 20.8482 50.7021 20.1918 51.3585C19.5354 52.0148 19.1667 52.9051 19.1667 53.8333C19.1667 54.7616 19.5354 55.6518 20.1918 56.3082C20.8482 56.9646 21.7384 57.3333 22.6667 57.3333H41.3333C42.2616 57.3333 43.1518 56.9646 43.8082 56.3082C44.4646 55.6518 44.8333 54.7616 44.8333 53.8333C44.8333 52.9051 44.4646 52.0148 43.8082 51.3585C43.1518 50.7021 42.2616 50.3333 41.3333 50.3333H35.5V45.6667H47.1667C50.5691 45.663 53.8312 44.3097 56.2371 41.9038C58.643 39.4979 59.9963 36.2358 60 32.8333V18.8333C59.9963 15.4309 58.643 12.1688 56.2371 9.76289C53.8312 7.35698 50.5691 6.00371 47.1667 6ZM53 32.8333C53 34.3804 52.3854 35.8642 51.2915 36.9581C50.1975 38.0521 48.7138 38.6667 47.1667 38.6667H16.8333C15.2862 38.6667 13.8025 38.0521 12.7085 36.9581C11.6146 35.8642 11 34.3804 11 32.8333V18.8333C11 17.2862 11.6146 15.8025 12.7085 14.7085C13.8025 13.6146 15.2862 13 16.8333 13H47.1667C48.7138 13 50.1975 13.6146 51.2915 14.7085C52.3854 15.8025 53 17.2862 53 18.8333V32.8333Z" fill="url(#paint0_linear_914_23)"/>
<path d="M41.0588 34.9998H32.9328C32.4189 35.0044 31.913 34.8731 31.4662 34.6191C31.0195 34.3652 30.6478 33.9977 30.3888 33.5538C30.1354 33.1262 29.9997 32.6392 29.9953 32.1422C29.9909 31.6452 30.118 31.1558 30.3638 30.7238L34.4298 23.4888C34.693 23.0418 35.0684 22.6712 35.5188 22.4137C35.9692 22.1562 36.479 22.0207 36.9978 22.0207C37.5166 22.0207 38.0264 22.1562 38.4768 22.4137C38.9272 22.6712 39.3026 23.0418 39.5658 23.4888L43.6288 30.7208C43.875 31.153 44.0024 31.6427 43.998 32.1402C43.9936 32.6376 43.8576 33.125 43.6038 33.5528C43.3448 33.997 42.9731 34.3648 42.5261 34.619C42.0791 34.8731 41.5729 35.0045 41.0588 34.9998ZM36.9878 25.0228L33.1038 31.9998H40.9158L36.9878 25.0228ZM27.9968 33.4998C27.9968 33.102 27.8388 32.7204 27.5575 32.4391C27.2762 32.1578 26.8947 31.9998 26.4968 31.9998H23.7089C23.5857 32.002 23.4642 31.9709 23.3572 31.9098C23.2502 31.8488 23.1616 31.76 23.1009 31.6528C23.0371 31.5477 23.0022 31.4277 22.9995 31.3048C22.9969 31.1819 23.0267 31.0605 23.0859 30.9528L29.3468 19.3719C29.4073 19.2595 29.4972 19.1655 29.6068 19.1001C29.7164 19.0346 29.8417 19 29.9693 19C30.097 19 30.2223 19.0346 30.3319 19.1001C30.4415 19.1655 30.5313 19.2595 30.5918 19.3719L31.2138 20.5219C31.3018 20.7046 31.4258 20.8675 31.5785 21.0009C31.7312 21.1343 31.9094 21.2354 32.1022 21.298C32.2951 21.3606 32.4986 21.3835 32.7006 21.3652C32.9025 21.3469 33.0987 21.2879 33.2771 21.1917C33.4556 21.0955 33.6128 20.9641 33.739 20.8054C33.8653 20.6468 33.9581 20.4642 34.0118 20.2687C34.0655 20.0732 34.079 19.8688 34.0515 19.6679C34.024 19.467 33.9561 19.2738 33.8518 19.0999L33.2298 17.9489C32.9064 17.3677 32.4335 16.8836 31.8602 16.5465C31.2869 16.2095 30.6339 16.0317 29.9688 16.0317C29.3038 16.0317 28.6508 16.2095 28.0774 16.5465C27.5041 16.8836 27.0313 17.3677 26.7078 17.9489L20.4469 29.5208C20.1412 30.0861 19.9875 30.721 20.0008 31.3635C20.0141 32.006 20.1939 32.6341 20.5226 33.1862C20.8514 33.7384 21.3178 34.1958 21.8763 34.5137C22.4348 34.8316 23.0662 34.9991 23.7089 34.9998H26.4968C26.8947 34.9998 27.2762 34.8418 27.5575 34.5604C27.8388 34.2791 27.9968 33.8976 27.9968 33.4998Z" fill="url(#paint1_linear_914_23)" stroke="url(#paint2_linear_914_23)"/>
<defs>
<linearGradient id="paint0_linear_914_23" x1="32" y1="57.3333" x2="32" y2="6" gradientUnits="userSpaceOnUse">
<stop stop-color="#02AA93"/>
<stop offset="1" stop-color="#67FF80"/>
</linearGradient>
<linearGradient id="paint1_linear_914_23" x1="31.999" y1="34.9999" x2="31.999" y2="16.0317" gradientUnits="userSpaceOnUse">
<stop stop-color="#02AA93"/>
<stop offset="1" stop-color="#67FF80"/>
</linearGradient>
<linearGradient id="paint2_linear_914_23" x1="31.999" y1="34.9999" x2="31.999" y2="16.0317" gradientUnits="userSpaceOnUse">
<stop stop-color="#02AA93"/>
<stop offset="1" stop-color="#67FF80"/>
</linearGradient>
</defs>
</svg>
