<svg width="16" height="16" viewBox="0 0 16 16" fill="none" xmlns="http://www.w3.org/2000/svg">
<g clip-path="url(#clip0_580_271)">
<path d="M5.3113 7.85972L4.30329 7.01968C4.05619 6.81317 3.9323 6.71029 3.8658 6.56889C3.79999 6.42749 3.79999 6.2665 3.79999 5.94449V3.87109C2.89 3.9607 2.27749 4.163 1.8204 4.62009C1 5.43979 1 6.76067 1 9.40107C1 12.04 1 13.3602 1.8204 14.18C2.6401 15.0004 3.96029 15.0004 6.59999 15.0004H9.39995C12.0396 15.0004 13.3598 15.0004 14.1796 14.18C15 13.361 15 12.0408 15 9.40107C15 6.76136 15 5.4405 14.1796 4.62009C13.7225 4.163 13.1093 3.9607 12.1986 3.87109C12.2 4.0671 12.2 4.27639 12.2 4.50109V5.94519C12.2 6.26719 12.2 6.42819 12.1335 6.56959C12.0677 6.71099 11.9445 6.81457 11.696 7.02038L10.6879 7.86042C9.40275 8.93141 8.76019 9.46687 8.00002 9.46687C7.23978 9.46687 6.59649 8.93141 5.3113 7.85972Z" stroke="url(#paint0_linear_580_271)" stroke-width="1.8"/>
<path fill-rule="evenodd" clip-rule="evenodd" d="M4.30394 7.01997L5.31123 7.86001C6.59644 8.93099 7.23973 9.46646 7.99926 9.46646C8.76013 9.46646 9.4027 8.93099 10.6886 7.85931L11.6966 7.01927C11.9437 6.81346 12.0676 6.70989 12.1334 6.56919C12.1999 6.42779 12.1999 6.26679 12.1999 5.9441V4.49999C12.1999 4.276 12.1999 4.066 12.1985 3.87139C12.1901 2.63169 12.1299 1.9555 11.6875 1.5124C11.1744 1 10.3499 1 8.69993 1H7.29993C5.65004 1 4.82474 1 4.31234 1.5124C3.86924 1.9555 3.80834 2.63169 3.79994 3.87139C3.79902 4.00006 3.79931 4.1345 3.79962 4.27551C3.79978 4.34854 3.79994 4.42333 3.79994 4.49999V5.9441C3.79994 6.26609 3.79994 6.42779 3.86575 6.56919C3.93183 6.70903 4.05531 6.81218 4.2994 7.01622L4.30394 7.01997Z" stroke="url(#paint1_linear_580_271)" stroke-width="1.8"/>
<path fill-rule="evenodd" clip-rule="evenodd" d="M11.0234 10.8643H4.97762C4.53851 10.8643 4.18213 11.2206 4.18213 11.6597C4.18213 12.0988 4.53851 12.4553 4.97762 12.4553H11.0234C11.4625 12.4553 11.8189 12.0988 11.8189 11.6597C11.8189 11.2206 11.4625 10.8643 11.0234 10.8643Z" fill="url(#paint2_linear_580_271)"/>
<path fill-rule="evenodd" clip-rule="evenodd" d="M10.1004 3.60156C10.1004 3.76725 9.95454 3.90163 9.77481 3.90163H9.55322C9.42371 3.90163 9.31616 3.99923 9.29064 4.12619C9.20352 4.55868 9.01075 4.95732 8.73806 5.29875C8.63216 5.43136 8.66055 5.6334 8.8187 5.69499C9.11284 5.80955 9.4358 5.87292 9.77481 5.87292C9.95454 5.87292 10.1004 6.00716 10.1004 6.17286C10.1004 6.33856 9.95454 6.47295 9.77481 6.47295C9.17539 6.47295 8.61549 6.31596 8.13978 6.0447C8.05349 5.99548 7.94715 5.99548 7.86085 6.04472C7.38528 6.31596 6.82538 6.47295 6.226 6.47295C6.04627 6.47295 5.90039 6.33856 5.90039 6.17286C5.90039 6.00716 6.04627 5.87292 6.226 5.87292C6.56488 5.87292 6.88781 5.80943 7.18189 5.69498C7.34009 5.63338 7.36847 5.43126 7.26258 5.29859C6.98995 4.9572 6.79725 4.55861 6.71016 4.12619C6.68461 3.99923 6.57706 3.90163 6.44754 3.90163H6.226C6.04627 3.90163 5.90039 3.76725 5.90039 3.60156C5.90039 3.43586 6.04627 3.30147 6.226 3.30147H7.42016C7.56073 3.30147 7.67471 3.18751 7.67471 3.04692V2.57302C7.67471 2.40734 7.82057 2.27295 8.00036 2.27295C8.1802 2.27295 8.32606 2.40734 8.32606 2.57302V3.04692C8.32606 3.1875 8.44004 3.30147 8.58061 3.30147H9.77481C9.95454 3.30147 10.1004 3.43586 10.1004 3.60156ZM7.83336 4.99941C7.92156 5.10314 8.07914 5.10315 8.16728 4.99944C8.36895 4.76231 8.52054 4.48753 8.60747 4.1886C8.65075 4.03973 8.53072 3.90161 8.37569 3.90161H7.62507C7.47004 3.90161 7.35002 4.03973 7.39329 4.1886C7.48023 4.48752 7.63175 4.76228 7.83336 4.99941Z" fill="url(#paint3_linear_580_271)" stroke="url(#paint4_linear_580_271)" stroke-width="0.4"/>
</g>
<defs>
<linearGradient id="paint0_linear_580_271" x1="1.875" y1="15.0064" x2="14.7533" y2="3.59871" gradientUnits="userSpaceOnUse">
<stop stop-color="#2E4AFA"/>
<stop offset="1" stop-color="#8E9EFF"/>
</linearGradient>
<linearGradient id="paint1_linear_580_271" x1="4.32435" y1="9.47103" x2="13.5914" y2="2.99625" gradientUnits="userSpaceOnUse">
<stop stop-color="#2E4AFA"/>
<stop offset="1" stop-color="#8E9EFF"/>
</linearGradient>
<linearGradient id="paint2_linear_580_271" x1="4.65942" y1="12.4561" x2="5.66851" y2="9.04547" gradientUnits="userSpaceOnUse">
<stop stop-color="#2E4AFA"/>
<stop offset="1" stop-color="#8E9EFF"/>
</linearGradient>
<linearGradient id="paint3_linear_580_271" x1="6.16289" y1="6.47596" x2="11.5541" y2="3.62869" gradientUnits="userSpaceOnUse">
<stop stop-color="#2E4AFA"/>
<stop offset="1" stop-color="#8E9EFF"/>
</linearGradient>
<linearGradient id="paint4_linear_580_271" x1="6.16289" y1="6.47522" x2="10.7723" y2="3.2294" gradientUnits="userSpaceOnUse">
<stop stop-color="#2E4AFA"/>
<stop offset="1" stop-color="#8E9EFF"/>
</linearGradient>
<clipPath id="clip0_580_271">
<rect width="16" height="16" fill="white"/>
</clipPath>
</defs>
</svg>
