<svg width="16" height="16" viewBox="0 0 16 16" fill="none" xmlns="http://www.w3.org/2000/svg">
<path d="M10.2 15H6C3.9 15 2.5 13.6 2.5 11.5V4.5C2.5 2.4 3.9 1 6 1H10.2C12.3 1 13.7 2.4 13.7 4.5V11.5C13.7 13.6 12.3 15 10.2 15Z" stroke="url(#paint0_linear_563_474)" stroke-width="1.8" stroke-miterlimit="10" stroke-linecap="round" stroke-linejoin="round"/>
<path fill-rule="evenodd" clip-rule="evenodd" d="M8.1791 4.30308C7.83981 4.26501 7.50601 4.56419 7.51041 4.91492C7.50058 5.60749 7.50209 6.30041 7.50359 6.99329C7.50477 7.5392 7.50596 8.08509 7.5016 8.63077C7.49062 8.89746 7.53127 9.21009 7.77502 9.36361C8.11542 9.63368 8.67213 9.40395 8.74021 8.97254C8.7604 8.65209 8.75764 8.33074 8.75487 8.00935V8.00935C8.75325 7.82192 8.98558 7.73973 9.10403 7.88499C9.25537 8.0706 9.40743 8.25562 9.55951 8.44067C9.76128 8.68619 9.96309 8.93174 10.1633 9.17872C10.3115 9.37818 10.5454 9.5205 10.7991 9.47007C11.2537 9.43086 11.493 8.81229 11.2042 8.45931C10.9152 8.08898 10.6159 7.72747 10.3165 7.36588C10.2223 7.25211 10.1281 7.13833 10.0343 7.02427C9.97479 6.95203 9.97357 6.84815 10.0317 6.77487C10.2252 6.53115 10.4234 6.29142 10.6217 6.05168C10.8017 5.83401 10.9817 5.61633 11.1581 5.39566C11.3481 5.18609 11.3876 4.85329 11.2383 4.60902C11.0318 4.24148 10.4653 4.20672 10.2193 4.54848C9.87152 4.96332 9.52922 5.38314 9.18699 5.80287C9.15912 5.83706 9.13125 5.87124 9.10337 5.90542C8.98522 6.0503 8.75356 5.96797 8.75447 5.78103C8.7545 5.77518 8.75452 5.76934 8.75455 5.76349C8.75591 5.48541 8.75727 5.20725 8.75008 4.92949C8.76217 4.60788 8.49094 4.31878 8.1791 4.30308ZM5.26423 7.11094C4.81404 6.97536 4.36824 7.48521 4.53623 7.92896C4.61842 8.22796 4.90407 8.34008 5.16855 8.44389C5.18622 8.45083 5.20378 8.45772 5.22119 8.46463C5.29633 8.49447 5.34246 8.56881 5.34216 8.64966C5.34127 8.89385 5.35817 9.13765 5.39633 9.37882C5.40885 9.45797 5.37601 9.53823 5.30678 9.57857C5.27969 9.59435 5.25218 9.60992 5.22457 9.62554C5.02706 9.73728 4.82436 9.85196 4.73496 10.0704C4.57905 10.4121 4.79757 10.866 5.16431 10.9366C5.42228 11.004 5.64976 10.8648 5.86565 10.7327C5.87081 10.7295 5.87598 10.7264 5.88113 10.7232C5.9583 10.6761 6.05651 10.6907 6.12167 10.7534C6.26326 10.8897 6.41382 11.016 6.57336 11.1292C6.63838 11.1754 6.6733 11.2542 6.65471 11.3317C6.64621 11.3672 6.63708 11.4028 6.6279 11.4386C6.56615 11.6796 6.50255 11.9277 6.62144 12.1569C6.77515 12.4986 7.2473 12.6063 7.53718 12.3821C7.74301 12.2388 7.79368 11.9902 7.84212 11.7525C7.84445 11.741 7.84678 11.7296 7.84912 11.7182C7.86701 11.6312 7.94304 11.5704 8.03169 11.5644C8.21008 11.5525 8.38782 11.5302 8.56425 11.5013C8.63941 11.4889 8.71586 11.5187 8.75714 11.5827C8.77885 11.6163 8.80019 11.6508 8.82165 11.6855C8.95498 11.9012 9.09256 12.1237 9.34675 12.186C9.74425 12.3127 10.1769 11.9261 10.1209 11.5081C10.0879 11.2936 9.96664 11.1164 9.84587 10.9398C9.78993 10.858 9.73408 10.7763 9.68715 10.6912C9.65707 10.6453 9.62767 10.5957 9.59766 10.545C9.45939 10.3115 9.30821 10.0561 9.01851 10.0503C9.00758 10.05 8.99657 10.0493 8.98571 10.048C8.82396 10.0287 8.68034 10.0924 8.53623 10.1564C8.43853 10.1997 8.3406 10.2431 8.23664 10.2609C7.6415 10.3539 6.98269 10.0334 6.74551 9.45294C6.53578 9.09324 6.58737 8.66518 6.68949 8.27969C6.77407 7.97602 6.60276 7.65104 6.31946 7.539C6.20716 7.49316 6.09552 7.44548 5.98388 7.39781C5.74623 7.29631 5.50854 7.19481 5.26423 7.11094Z" fill="url(#paint1_linear_563_474)"/>
<path d="M7.51041 4.91492L7.71046 4.91776L7.71039 4.91242L7.51041 4.91492ZM8.1791 4.30308L8.15676 4.50221L8.16905 4.50283L8.1791 4.30308ZM7.50359 6.99329L7.30359 6.99373L7.30359 6.99373L7.50359 6.99329ZM7.5016 8.63077L7.70154 8.639L7.7016 8.63236L7.5016 8.63077ZM7.77502 9.36361L7.89932 9.20693L7.89081 9.20018L7.88161 9.19438L7.77502 9.36361ZM8.74021 8.97254L8.93777 9.00371L8.93923 8.99446L8.93982 8.98512L8.74021 8.97254ZM9.55951 8.44067L9.71402 8.31368L9.71402 8.31368L9.55951 8.44067ZM10.1633 9.17872L10.3239 9.05932L10.3186 9.05279L10.1633 9.17872ZM10.7991 9.47007L10.7819 9.27081L10.7709 9.27176L10.7601 9.27391L10.7991 9.47007ZM11.2042 8.45931L11.0465 8.58241L11.0494 8.58595L11.2042 8.45931ZM10.3165 7.36588L10.4706 7.23834L10.4706 7.23834L10.3165 7.36588ZM10.6217 6.05168L10.4676 5.92423L10.4676 5.92423L10.6217 6.05168ZM11.1581 5.39566L11.0097 5.26109L11.0019 5.27076L11.1581 5.39566ZM11.2383 4.60902L11.0638 4.70702L11.0676 4.71334L11.2383 4.60902ZM10.2193 4.54848L10.3725 4.67696L10.3773 4.6713L10.3816 4.66531L10.2193 4.54848ZM9.18699 5.80287L9.03198 5.67649L9.03198 5.67649L9.18699 5.80287ZM8.75455 5.76349L8.95455 5.76447L8.95455 5.76447L8.75455 5.76349ZM8.75008 4.92949L8.54982 4.92197L8.55015 4.93467L8.75008 4.92949ZM4.53623 7.92896L4.72908 7.87595L4.72659 7.86691L4.72327 7.85815L4.53623 7.92896ZM5.26423 7.11094L5.32922 6.92163L5.3219 6.91943L5.26423 7.11094ZM5.16855 8.44389L5.09548 8.63007L5.09548 8.63007L5.16855 8.44389ZM5.22457 9.62554L5.12609 9.45147L5.12609 9.45147L5.22457 9.62554ZM4.73496 10.0704L4.91707 10.1534L4.92006 10.1461L4.73496 10.0704ZM5.16431 10.9366L5.21497 10.7427L5.20211 10.7402L5.16431 10.9366ZM5.86565 10.7327L5.76126 10.5621L5.76126 10.5621L5.86565 10.7327ZM6.6279 11.4386L6.43416 11.389L6.43416 11.389L6.6279 11.4386ZM6.62144 12.1569L6.80413 12.0747L6.79897 12.0648L6.62144 12.1569ZM7.53718 12.3821L7.42275 12.2178L7.41485 12.2239L7.53718 12.3821ZM7.84212 11.7525L7.64615 11.7125L7.64615 11.7125L7.84212 11.7525ZM8.82165 11.6855L8.65154 11.7907L8.65154 11.7907L8.82165 11.6855ZM9.34675 12.186L9.40759 11.995L9.39438 11.9918L9.34675 12.186ZM10.1209 11.5081L10.3192 11.4815L10.3186 11.4776L10.1209 11.5081ZM9.84587 10.9398L10.011 10.8269L10.011 10.8269L9.84587 10.9398ZM9.68715 10.6912L9.8623 10.5946L9.8586 10.5879L9.85439 10.5815L9.68715 10.6912ZM9.59766 10.545L9.42556 10.6469L9.42556 10.6469L9.59766 10.545ZM8.53623 10.1564L8.61731 10.3392L8.61731 10.3392L8.53623 10.1564ZM8.23664 10.2609L8.26752 10.4585L8.27031 10.458L8.23664 10.2609ZM6.74551 9.45294L6.93065 9.37728L6.92534 9.36431L6.91828 9.35219L6.74551 9.45294ZM6.68949 8.27969L6.4968 8.22603L6.49615 8.22848L6.68949 8.27969ZM6.31946 7.539L6.24388 7.72418L6.24591 7.72498L6.31946 7.539ZM5.98388 7.39781L6.06243 7.21388L6.06243 7.21388L5.98388 7.39781ZM9.01851 10.0503L9.01446 10.2502L9.01446 10.2502L9.01851 10.0503ZM8.98571 10.048L9.00935 9.8494L8.98571 10.048ZM8.56425 11.5013L8.59664 11.6986L8.56425 11.5013ZM8.75714 11.5827L8.92521 11.4743L8.75714 11.5827ZM6.57336 11.1292L6.4576 11.2923L6.57336 11.1292ZM6.65471 11.3317L6.46022 11.2851L6.65471 11.3317ZM5.88113 10.7232L5.98544 10.8939L5.88113 10.7232ZM6.12167 10.7534L5.98299 10.8975L6.12167 10.7534ZM8.03169 11.5644L8.01831 11.3649L8.03169 11.5644ZM5.22119 8.46463L5.14738 8.65052L5.22119 8.46463ZM9.10337 5.90542L9.25837 6.03182L9.10337 5.90542ZM8.75447 5.78103L8.95447 5.782L8.75447 5.78103ZM10.0343 7.02427L9.87983 7.15137L10.0343 7.02427ZM10.0317 6.77487L9.8751 6.65052L10.0317 6.77487ZM9.10403 7.88499L9.25903 7.7586L9.10403 7.88499ZM7.71039 4.91242C7.70749 4.68123 7.93779 4.47726 8.1568 4.50183L8.2014 4.10433C7.74184 4.05276 7.30453 4.44716 7.31042 4.91743L7.71039 4.91242ZM7.70359 6.99286C7.70209 6.29971 7.70059 5.60842 7.71039 4.91776L7.31043 4.91209C7.30058 5.60657 7.30209 6.30112 7.30359 6.99373L7.70359 6.99286ZM7.7016 8.63236C7.70596 8.0855 7.70477 7.5386 7.70359 6.99286L7.30359 6.99373C7.30477 7.53981 7.30595 8.08468 7.30161 8.62917L7.7016 8.63236ZM7.88161 9.19438C7.73996 9.10516 7.69058 8.90261 7.70143 8.63899L7.30177 8.62254C7.29067 8.89231 7.32258 9.31501 7.66843 9.53284L7.88161 9.19438ZM8.54266 8.94136C8.52139 9.07614 8.42147 9.18995 8.2842 9.24594C8.14714 9.30185 8.00224 9.28859 7.89932 9.20693L7.65071 9.52029C7.88819 9.70871 8.19185 9.71561 8.43527 9.61632C8.67848 9.51711 8.89096 9.30035 8.93777 9.00371L8.54266 8.94136ZM8.55488 8.01107C8.55765 8.33367 8.56027 8.64785 8.54061 8.95996L8.93982 8.98512C8.96053 8.65634 8.95762 8.32782 8.95486 8.00763L8.55488 8.01107ZM9.71402 8.31368C9.5619 8.12859 9.41009 7.94386 9.25903 7.7586L8.94902 8.01138C9.10065 8.19734 9.25296 8.38266 9.40499 8.56765L9.71402 8.31368ZM10.3186 9.05279C10.118 8.80519 9.91573 8.55911 9.71402 8.31368L9.40499 8.56765C9.60684 8.81326 9.80821 9.05828 10.0079 9.30466L10.3186 9.05279ZM10.7601 9.27391C10.6093 9.30388 10.4451 9.22267 10.3238 9.05942L10.0028 9.29802C10.1779 9.5337 10.4815 9.73711 10.838 9.66623L10.7601 9.27391ZM11.0494 8.58595C11.1381 8.69427 11.1546 8.85677 11.0944 9.00878C11.0344 9.16042 10.9157 9.25927 10.7819 9.27081L10.8162 9.66933C11.137 9.64166 11.3652 9.41161 11.4664 9.15592C11.5674 8.90061 11.5592 8.57733 11.359 8.33267L11.0494 8.58595ZM10.1625 7.49342C10.4621 7.85537 10.7596 8.21469 11.0466 8.58237L11.3619 8.33625C11.0708 7.96328 10.7696 7.59956 10.4706 7.23834L10.1625 7.49342ZM9.87983 7.15137C9.97393 7.26569 10.0683 7.37969 10.1625 7.49342L10.4706 7.23834C10.3764 7.12453 10.2823 7.01097 10.1887 6.89717L9.87983 7.15137ZM10.4676 5.92423C10.2695 6.16371 10.07 6.40497 9.8751 6.65052L10.1884 6.89921C10.3804 6.65732 10.5774 6.41913 10.7758 6.17913L10.4676 5.92423ZM11.0019 5.27076C10.8267 5.48994 10.6477 5.70635 10.4676 5.92423L10.7758 6.17913C10.9556 5.96167 11.1367 5.74273 11.3143 5.52056L11.0019 5.27076ZM11.0676 4.71334C11.1685 4.87831 11.1432 5.11436 11.0099 5.26135L11.3063 5.52997C11.553 5.25781 11.6067 4.82826 11.4089 4.50469L11.0676 4.71334ZM10.3816 4.66531C10.458 4.55911 10.59 4.50389 10.7316 4.5124C10.8733 4.52092 10.9992 4.59179 11.0639 4.70696L11.4126 4.51108C11.2709 4.2587 11.0103 4.12843 10.7556 4.11312C10.5008 4.09781 10.2265 4.19609 10.0569 4.43164L10.3816 4.66531ZM9.342 5.92926C9.68437 5.50935 10.0258 5.09059 10.3725 4.67696L10.066 4.41999C9.71722 4.83605 9.37407 5.25693 9.03198 5.67649L9.342 5.92926ZM9.25837 6.03182C9.28625 5.99763 9.31412 5.96344 9.342 5.92926L9.03198 5.67649C9.00411 5.71068 8.97624 5.74485 8.94838 5.77902L9.25837 6.03182ZM8.55456 5.76252C8.55453 5.76836 8.5545 5.77421 8.55447 5.78006L8.95447 5.782C8.95449 5.77616 8.95452 5.77031 8.95455 5.76447L8.55456 5.76252ZM8.55015 4.93467C8.55724 5.20884 8.55591 5.48392 8.55456 5.76252L8.95455 5.76447C8.95591 5.4869 8.95729 5.20567 8.95001 4.92432L8.55015 4.93467ZM8.16905 4.50283C8.37241 4.51307 8.55817 4.71059 8.55022 4.92198L8.94994 4.93701C8.96617 4.50516 8.60948 4.12449 8.18916 4.10333L8.16905 4.50283ZM4.72327 7.85815C4.67065 7.71914 4.71037 7.55721 4.81826 7.43516C4.92592 7.31337 5.07294 7.2622 5.20656 7.30244L5.3219 6.91943C5.00533 6.8241 4.70436 6.96006 4.51857 7.17024C4.333 7.38016 4.23382 7.69504 4.34918 7.99977L4.72327 7.85815ZM5.24163 8.25772C4.95435 8.14496 4.78033 8.06241 4.72908 7.87595L4.34338 7.98197C4.45651 8.3935 4.8538 8.5352 5.09548 8.63007L5.24163 8.25772ZM5.295 8.27875C5.27716 8.27167 5.25923 8.26463 5.24163 8.25772L5.09548 8.63007C5.11321 8.63702 5.1304 8.64377 5.14738 8.65052L5.295 8.27875ZM5.59387 9.34757C5.55754 9.11793 5.5413 8.88489 5.54216 8.65039L5.14216 8.64893C5.14123 8.90282 5.1588 9.15736 5.19878 9.41008L5.59387 9.34757ZM5.32305 9.79961C5.35047 9.7841 5.3791 9.76791 5.40747 9.75138L5.20608 9.40577C5.18029 9.4208 5.15389 9.43574 5.12609 9.45147L5.32305 9.79961ZM4.92006 10.1461C4.97886 10.0025 5.11327 9.9183 5.32305 9.79961L5.12609 9.45147C4.94085 9.55627 4.66986 9.70145 4.54987 9.99461L4.92006 10.1461ZM5.20211 10.7402C5.09176 10.719 4.99208 10.637 4.93318 10.5171C4.87422 10.3969 4.8677 10.2613 4.91692 10.1534L4.553 9.98736C4.44632 10.2212 4.4711 10.4834 4.5741 10.6933C4.67717 10.9033 4.87011 11.0836 5.1265 11.133L5.20211 10.7402ZM5.76126 10.5621C5.52853 10.7045 5.37666 10.7854 5.21487 10.7431L5.11375 11.1301C5.46791 11.2226 5.77098 11.0251 5.97003 10.9033L5.76126 10.5621ZM5.77682 10.5526C5.77162 10.5558 5.76642 10.5589 5.76126 10.5621L5.97003 10.9033C5.97521 10.9001 5.98033 10.897 5.98544 10.8939L5.77682 10.5526ZM6.68913 10.9662C6.53837 10.8591 6.39541 10.7393 6.26036 10.6093L5.98299 10.8975C6.1311 11.0401 6.28927 11.1729 6.4576 11.2923L6.68913 10.9662ZM6.82164 11.4883C6.83075 11.4527 6.84028 11.4156 6.84919 11.3784L6.46022 11.2851C6.45215 11.3188 6.44341 11.3529 6.43416 11.389L6.82164 11.4883ZM6.79897 12.0648C6.72111 11.9147 6.75576 11.7453 6.82164 11.4883L6.43416 11.389C6.37653 11.6139 6.28399 11.9407 6.44391 12.249L6.79897 12.0648ZM7.41485 12.2239C7.22399 12.3715 6.90281 12.2949 6.80384 12.0748L6.43903 12.2389C6.64749 12.7024 7.2706 12.841 7.65951 12.5404L7.41485 12.2239ZM7.64615 11.7125C7.59396 11.9686 7.55179 12.1283 7.4229 12.218L7.65146 12.5463C7.93422 12.3494 7.99339 12.0117 8.03809 11.7924L7.64615 11.7125ZM7.65321 11.678C7.65084 11.6895 7.64848 11.7011 7.64615 11.7125L8.03809 11.7924C8.04043 11.7809 8.04273 11.7697 8.04503 11.7585L7.65321 11.678ZM8.53187 11.3039C8.36038 11.332 8.1891 11.3534 8.01831 11.3649L8.04507 11.764C8.23106 11.7515 8.41526 11.7284 8.59664 11.6986L8.53187 11.3039ZM8.99176 11.5804C8.97048 11.546 8.94813 11.5098 8.92521 11.4743L8.58907 11.6911C8.60956 11.7228 8.6299 11.7557 8.65154 11.7907L8.99176 11.5804ZM9.39438 11.9918C9.23309 11.9522 9.13504 11.8121 8.99176 11.5804L8.65154 11.7907C8.77493 11.9903 8.95202 12.2952 9.29912 12.3803L9.39438 11.9918ZM9.92266 11.5346C9.9403 11.6663 9.88142 11.8044 9.77157 11.9013C9.66189 11.9981 9.52571 12.0331 9.40745 11.9955L9.28605 12.3766C9.56529 12.4655 9.84418 12.3706 10.0362 12.2013C10.228 12.032 10.3575 11.7678 10.3191 11.4815L9.92266 11.5346ZM9.68078 11.0527C9.80622 11.2361 9.89827 11.3764 9.92322 11.5385L10.3186 11.4776C10.2775 11.2108 10.1271 10.9967 10.011 10.8269L9.68078 11.0527ZM9.512 10.7877C9.56437 10.8827 9.62582 10.9723 9.68078 11.0527L10.011 10.8269C9.95403 10.7436 9.9038 10.6699 9.8623 10.5946L9.512 10.7877ZM9.42556 10.6469C9.45508 10.6967 9.48686 10.7505 9.51992 10.8009L9.85439 10.5815C9.82728 10.5402 9.80025 10.4946 9.76975 10.4431L9.42556 10.6469ZM9.01446 10.2502C9.09263 10.2518 9.15576 10.2842 9.22158 10.3518C9.29317 10.4253 9.35372 10.5255 9.42556 10.6469L9.76975 10.4431C9.70333 10.3309 9.61915 10.1867 9.50816 10.0727C9.3914 9.95282 9.23409 9.85459 9.02255 9.85031L9.01446 10.2502ZM8.61731 10.3392C8.77017 10.2714 8.86358 10.2349 8.96208 10.2466L9.00935 9.8494C8.78435 9.82262 8.59052 9.91349 8.45514 9.97353L8.61731 10.3392ZM8.27031 10.458C8.40307 10.4353 8.52383 10.3806 8.61731 10.3392L8.45515 9.97353C8.35322 10.0187 8.27812 10.0509 8.20296 10.0637L8.27031 10.458ZM6.56037 9.52859C6.83646 10.2043 7.59128 10.5642 8.26752 10.4585L8.20575 10.0633C7.69171 10.1436 7.12892 9.8625 6.93065 9.37728L6.56037 9.52859ZM6.49615 8.22848C6.39169 8.62286 6.32017 9.12053 6.57273 9.55368L6.91828 9.35219C6.75139 9.06596 6.78306 8.7075 6.88282 8.3309L6.49615 8.22848ZM6.24591 7.72498C6.43696 7.80054 6.5531 8.02395 6.49682 8.22603L6.88215 8.33335C6.99503 7.92809 6.76856 7.50154 6.39302 7.35302L6.24591 7.72498ZM5.90533 7.58174C6.01672 7.62931 6.12984 7.67762 6.24388 7.72417L6.39504 7.35383C6.28447 7.3087 6.17432 7.26166 6.06243 7.21388L5.90533 7.58174ZM5.19929 7.3001C5.43555 7.3812 5.66655 7.47976 5.90533 7.58174L6.06243 7.21388C5.8259 7.11286 5.58153 7.00841 5.32917 6.92177L5.19929 7.3001ZM9.02255 9.85031C9.01813 9.85022 9.01366 9.84991 9.00935 9.8494L8.96208 10.2466C8.97947 10.2487 8.99703 10.2499 9.01446 10.2502L9.02255 9.85031ZM8.59664 11.6986C8.5984 11.6983 8.5986 11.6988 8.59711 11.6982C8.59521 11.6974 8.59172 11.6952 8.58907 11.6911L8.92521 11.4743C8.83632 11.3364 8.67716 11.2801 8.53187 11.3039L8.59664 11.6986ZM6.4576 11.2923C6.46032 11.2943 6.46085 11.2958 6.46055 11.2951C6.46002 11.2938 6.45906 11.2899 6.46022 11.2851L6.84919 11.3784C6.88923 11.2114 6.81193 11.0533 6.68913 10.9662L6.4576 11.2923ZM5.98544 10.8939C5.98299 10.8954 5.98037 10.8955 5.97963 10.8954C5.97939 10.8954 5.98092 10.8956 5.98299 10.8975L6.26036 10.6093C6.13531 10.489 5.9381 10.454 5.77682 10.5526L5.98544 10.8939ZM8.04503 11.7585C8.04434 11.7618 8.04238 11.7642 8.04159 11.7648C8.04121 11.7651 8.04227 11.7642 8.04507 11.764L8.01831 11.3649C7.84836 11.3763 7.69085 11.4948 7.65321 11.678L8.04503 11.7585ZM5.19878 9.41008C5.19924 9.41297 5.19853 9.4141 5.19895 9.41315C5.19959 9.41168 5.20183 9.40825 5.20608 9.40577L5.40747 9.75138C5.55646 9.66456 5.61768 9.49805 5.59387 9.34757L5.19878 9.41008ZM5.14738 8.65052C5.14429 8.64929 5.14239 8.6472 5.14183 8.64633C5.14149 8.6458 5.14217 8.64663 5.14216 8.64893L5.54216 8.65039C5.54273 8.49461 5.45314 8.34154 5.295 8.27875L5.14738 8.65052ZM8.94838 5.77902C8.94679 5.78097 8.94617 5.78117 8.94689 5.78071C8.94755 5.78029 8.94855 5.77983 8.94964 5.77955C8.95162 5.77905 8.9521 5.77951 8.95136 5.77925C8.95063 5.77898 8.95147 5.779 8.95288 5.78091C8.95365 5.78195 8.9542 5.78307 8.95449 5.78396C8.9548 5.78491 8.95445 5.78447 8.95447 5.782L8.55447 5.78006C8.55263 6.15754 9.02225 6.32136 9.25837 6.03182L8.94838 5.77902ZM10.1887 6.89717C10.1886 6.89709 10.1887 6.89721 10.1888 6.89744C10.1889 6.89762 10.1889 6.89774 10.1889 6.89784C10.1889 6.89794 10.1889 6.89815 10.1888 6.89847C10.1887 6.89864 10.1886 6.89881 10.1885 6.89897C10.1884 6.89913 10.1884 6.89922 10.1884 6.89921L9.8751 6.65052C9.75792 6.79812 9.76082 7.00678 9.87983 7.15137L10.1887 6.89717ZM8.95486 8.00763C8.95484 8.00513 8.95519 8.00472 8.95486 8.00572C8.95456 8.00667 8.95397 8.00788 8.95315 8.00899C8.95163 8.01105 8.95066 8.01113 8.95137 8.01087C8.95208 8.01062 8.95169 8.01105 8.94986 8.01058C8.94884 8.01032 8.94793 8.0099 8.94734 8.00952C8.94671 8.00912 8.94738 8.00937 8.94902 8.01138L9.25903 7.7586C9.02371 7.47001 8.5516 7.63063 8.55488 8.01107L8.95486 8.00763Z" fill="url(#paint2_linear_563_474)"/>
<defs>
<linearGradient id="paint0_linear_563_474" x1="7.11266" y1="6.95788" x2="7.16946" y2="13.3924" gradientUnits="userSpaceOnUse">
<stop stop-color="#DE14FF"/>
<stop offset="1" stop-color="#7F00FF"/>
</linearGradient>
<linearGradient id="paint1_linear_563_474" x1="7.31289" y1="7.7894" x2="7.34484" y2="11.5582" gradientUnits="userSpaceOnUse">
<stop stop-color="#DE14FF"/>
<stop offset="1" stop-color="#7F00FF"/>
</linearGradient>
<linearGradient id="paint2_linear_563_474" x1="7.31289" y1="7.7894" x2="7.34484" y2="11.5582" gradientUnits="userSpaceOnUse">
<stop stop-color="#DE14FF"/>
<stop offset="1" stop-color="#7F00FF"/>
</linearGradient>
</defs>
</svg>
