<svg width="16" height="16" viewBox="0 0 16 16" fill="none" xmlns="http://www.w3.org/2000/svg">
<path fill-rule="evenodd" clip-rule="evenodd" d="M4.65555 1.59276C4.67058 1.6082 4.68821 1.62094 4.70674 1.63194C4.71948 1.6395 4.73232 1.64686 4.74525 1.65402C5.05564 1.82604 5.09807 2.24224 4.79018 2.4187C4.36187 2.66417 3.95775 2.94861 3.61128 3.30461C2.57954 4.34655 1.92333 5.79302 1.95469 7.27085C1.95542 7.28719 1.95596 7.30383 1.9565 7.32064C1.96064 7.44813 1.96509 7.58566 2.05583 7.68402C2.2581 7.90197 2.65872 7.85728 2.81945 7.61111C2.86922 7.51508 2.87351 7.40636 2.87772 7.29966C2.87914 7.2635 2.88056 7.22758 2.88373 7.19245C2.90725 6.3528 3.16989 5.52332 3.61991 4.81537C4.3208 3.6974 5.50306 2.88126 6.81155 2.67193C7.07937 2.62227 7.51757 2.53765 7.79855 2.48312C7.95965 2.45185 8.08951 2.32473 8.08756 2.16064C8.08632 2.0561 8.07096 1.9451 8.02126 1.87539C7.93095 1.72608 7.76482 1.67478 7.60453 1.62529C7.55609 1.61033 7.50818 1.59553 7.46306 1.57825C7.14391 1.48048 6.82748 1.37344 6.51107 1.26641L6.51106 1.2664L6.51106 1.2664C6.03077 1.10393 5.55053 0.941477 5.06089 0.811504C4.6332 0.709167 4.3744 1.30392 4.65555 1.59276ZM13.904 8.05845C13.6539 8.09765 13.5073 8.35089 13.5261 8.59001C13.5128 9.98003 12.9177 11.3748 11.8483 12.2771C11.4439 12.6337 10.8473 12.6562 10.2602 12.6783C9.50997 12.7066 8.77525 12.7343 8.47714 13.4578C8.44915 13.5258 8.41562 13.5891 8.38338 13.6499C8.2892 13.8277 8.20609 13.9845 8.30466 14.1752C8.40207 14.3637 8.59766 14.3901 8.78928 14.416C8.85711 14.4251 8.92443 14.4342 8.98674 14.4504C9.22175 14.5145 9.45644 14.5796 9.69112 14.6447L9.69114 14.6447L9.69116 14.6447C10.1916 14.7835 10.692 14.9223 11.1953 15.0509C11.3967 15.1231 11.6299 15.1308 11.7817 14.9552C11.9426 14.7691 11.9079 14.5099 11.7597 14.3257C11.6331 14.2043 11.4625 14.1521 11.2972 14.1016L11.2972 14.1016L11.2971 14.1015C11.265 14.0917 11.233 14.0819 11.2015 14.0717L11.1508 14.0568C11.0613 14.0305 10.9721 14.0043 10.8824 13.9792C11.8664 13.5465 12.7523 12.8863 13.3881 12.0129C14.1203 10.9828 14.5131 9.70485 14.4426 8.43948C14.4167 8.18782 14.1478 8.0075 13.904 8.05845ZM10.0756 1.85909C10.9176 0.967692 12.3617 0.798348 13.4099 1.42241C13.9093 1.73914 14.3358 2.18915 14.5436 2.7505C14.8721 3.58781 14.7685 4.58662 14.2574 5.32984C13.8262 5.94293 13.1379 6.36315 12.3946 6.46586C11.6624 6.5764 10.8995 6.35453 10.317 5.90295C10.1406 5.75556 9.98149 5.58778 9.83567 5.40981C9.03443 4.37572 9.14575 2.77793 10.0756 1.85909ZM12.9238 2.23934C12.161 1.74698 11.065 1.99551 10.5703 2.74972C10.0442 3.45688 10.1783 4.52468 10.8368 5.1017C11.1026 5.32514 11.4248 5.48744 11.7714 5.5329C12.6354 5.67166 13.5377 5.05467 13.7432 4.20874C13.8427 3.74696 13.7957 3.23187 13.5236 2.83439C13.3692 2.59526 13.1598 2.39692 12.9238 2.23934ZM1.72257 9.85244C1.44111 9.82108 1.29451 10.1112 1.30705 10.3534C1.29516 11.6437 1.29949 12.9348 1.30866 14.2251C1.30887 14.2544 1.30841 14.284 1.30794 14.3138C1.30619 14.4264 1.30441 14.5413 1.33855 14.6465C1.38762 14.7977 1.52836 14.9755 1.93582 14.979C2.62928 14.9848 3.32274 14.9842 4.01607 14.9836C4.61375 14.983 5.21134 14.9824 5.80875 14.9861C5.85726 14.9892 5.90528 14.9882 5.95273 14.9839C6.27215 14.9544 6.47849 14.6431 6.47929 14.3224C6.47933 14.3084 6.47926 14.2944 6.47908 14.2805C6.47649 13.7401 6.47737 13.1997 6.47825 12.6595C6.47951 11.8906 6.48076 11.1219 6.47202 10.3534C6.47046 10.2217 6.45712 10.0657 6.33639 9.98493C6.1684 9.8622 5.95827 9.86349 5.75519 9.86474H5.755C5.7013 9.86506 5.6481 9.86537 5.5963 9.86341C4.93188 9.86905 4.26745 9.86372 3.60303 9.85832L3.60281 9.85832C2.97606 9.8533 2.34932 9.84828 1.72257 9.85244ZM3.79816 10.7653L3.82607 10.7652C3.8982 10.7649 4.20212 10.7643 4.5343 10.7637C5.0878 10.7626 5.53686 11.2112 5.5364 11.7647C5.53607 12.1575 5.5358 12.6178 5.53584 13.0543C5.53588 13.604 5.09304 14.0517 4.54335 14.0521C4.0795 14.0524 3.61565 14.0507 3.1518 14.0484C2.65105 14.0457 2.2461 13.6364 2.24432 13.1357C2.24319 12.8157 2.24218 12.5113 2.24236 12.3997C2.24284 12.112 2.24397 11.9289 2.24493 11.7795C2.24851 11.2206 2.70048 10.7656 3.25936 10.7656C3.43896 10.7656 3.61856 10.7654 3.79816 10.7653Z" fill="url(#paint0_linear_596_236)"/>
<path d="M4.70674 1.63194L4.96194 1.20197L4.96194 1.20197L4.70674 1.63194ZM4.65555 1.59276L4.29725 1.94151L4.29725 1.94151L4.65555 1.59276ZM4.74525 1.65402L4.50289 2.09136L4.50289 2.09136L4.74525 1.65402ZM4.79018 2.4187L4.54156 1.98489L4.54156 1.98489L4.79018 2.4187ZM3.61128 3.30461L3.96658 3.65644L3.9696 3.65334L3.61128 3.30461ZM1.95469 7.27085L1.45466 7.28146L1.45519 7.29317L1.95469 7.27085ZM1.9565 7.32064L2.45624 7.30444L2.45624 7.30444L1.9565 7.32064ZM2.05583 7.68402L1.68831 8.02304L1.68934 8.02415L2.05583 7.68402ZM2.81945 7.61111L3.23811 7.88446L3.25182 7.86346L3.26337 7.84119L2.81945 7.61111ZM2.87772 7.29966L3.37733 7.31937L3.37733 7.31937L2.87772 7.29966ZM2.88373 7.19245L3.3817 7.23747L3.3831 7.22199L3.38354 7.20645L2.88373 7.19245ZM3.61991 4.81537L4.04188 5.08361L4.04354 5.08096L3.61991 4.81537ZM6.81155 2.67193L6.89055 3.1658L6.9027 3.16355L6.81155 2.67193ZM7.79855 2.48312L7.70329 1.99228L7.79855 2.48312ZM8.08756 2.16064L7.5876 2.16659L7.5876 2.16659L8.08756 2.16064ZM8.02126 1.87539L7.59343 2.13416L7.60319 2.1503L7.61414 2.16565L8.02126 1.87539ZM7.60453 1.62529L7.45701 2.10303L7.45701 2.10303L7.60453 1.62529ZM7.46306 1.57825L7.64191 1.11133L7.6259 1.1052L7.6095 1.10018L7.46306 1.57825ZM6.51107 1.26641L6.67129 0.792769L6.66918 0.792066L6.51107 1.26641ZM6.51106 1.2664L6.66917 0.792063L6.66017 0.789062L6.65106 0.786405L6.51106 1.2664ZM6.51106 1.2664L6.35083 1.74004L6.36088 1.74344L6.37106 1.7464L6.51106 1.2664ZM5.06089 0.811504L5.18921 0.328094L5.17725 0.325232L5.06089 0.811504ZM13.5261 8.59001L14.026 8.59479L14.0263 8.57277L14.0245 8.55081L13.5261 8.59001ZM13.904 8.05845L13.9814 8.55242L13.9939 8.55046L14.0062 8.54788L13.904 8.05845ZM11.8483 12.2771L11.5258 11.8949L11.5177 11.9021L11.8483 12.2771ZM10.2602 12.6783L10.2414 12.1787L10.2414 12.1787L10.2602 12.6783ZM8.47714 13.4578L8.01484 13.2674L8.01484 13.2674L8.47714 13.4578ZM8.38338 13.6499L8.8252 13.884L8.8252 13.884L8.38338 13.6499ZM8.30466 14.1752L8.74883 13.9456L8.74883 13.9456L8.30466 14.1752ZM8.78928 14.416L8.85619 13.9205L8.85619 13.9205L8.78928 14.416ZM8.98674 14.4504L9.11823 13.968L9.11245 13.9665L8.98674 14.4504ZM9.69112 14.6447L9.84924 14.1703L9.8371 14.1663L9.82478 14.1629L9.69112 14.6447ZM9.69116 14.6447L9.53304 15.119L9.54518 15.1231L9.5575 15.1265L9.69116 14.6447ZM11.1953 15.0509L11.364 14.5802L11.3418 14.5722L11.319 14.5664L11.1953 15.0509ZM11.7817 14.9552L12.1599 15.2823L12.1599 15.2823L11.7817 14.9552ZM11.7597 14.3257L12.1494 14.0123L12.1291 13.9871L12.1057 13.9647L11.7597 14.3257ZM11.2972 14.1016L11.4434 13.6234L11.4196 13.6161L11.3952 13.6113L11.2972 14.1016ZM11.2972 14.1016L11.1115 14.5658L11.1541 14.5828L11.1991 14.5918L11.2972 14.1016ZM11.2971 14.1015L11.4828 13.6373L11.4634 13.6295L11.4433 13.6234L11.2971 14.1015ZM11.2015 14.0717L11.3562 13.5962L11.3494 13.594L11.3425 13.592L11.2015 14.0717ZM11.1508 14.0568L11.0098 14.5365L11.0098 14.5365L11.1508 14.0568ZM10.8824 13.9792L10.6812 13.5215L9.40145 14.0843L10.7478 14.4607L10.8824 13.9792ZM13.3881 12.0129L13.7924 12.3073L13.7957 12.3026L13.3881 12.0129ZM14.4426 8.43948L14.9419 8.41166L14.9412 8.39994L14.94 8.38826L14.4426 8.43948ZM13.4099 1.42241L13.6777 0.999996L13.6657 0.992798L13.4099 1.42241ZM10.0756 1.85909L10.427 2.21474L10.4331 2.20869L10.4391 2.20243L10.0756 1.85909ZM14.5436 2.7505L14.0746 2.92408L14.0781 2.9331L14.5436 2.7505ZM14.2574 5.32984L14.6664 5.61751L14.6694 5.61317L14.2574 5.32984ZM12.3946 6.46586L12.3262 5.97053L12.32 5.97146L12.3946 6.46586ZM10.317 5.90295L9.99645 6.28664L10.0035 6.29251L10.0107 6.29811L10.317 5.90295ZM9.83567 5.40981L9.44028 5.71617L9.44891 5.7267L9.83567 5.40981ZM10.5703 2.74972L10.9714 3.04815L10.9803 3.0363L10.9884 3.02395L10.5703 2.74972ZM12.9238 2.23934L13.2016 1.82349L13.195 1.81924L12.9238 2.23934ZM10.8368 5.1017L10.5073 5.47785L10.5151 5.48442L10.8368 5.1017ZM11.7714 5.5329L11.8506 5.03922L11.8435 5.03808L11.8364 5.03715L11.7714 5.5329ZM13.7432 4.20874L14.2292 4.32679L14.2319 4.31408L13.7432 4.20874ZM13.5236 2.83439L13.1034 3.10576L13.111 3.11682L13.5236 2.83439ZM1.30705 10.3534L1.80703 10.358L1.80717 10.3428L1.80638 10.3275L1.30705 10.3534ZM1.72257 9.85244L1.6672 10.3494L1.69645 10.3526L1.72589 10.3524L1.72257 9.85244ZM1.30866 14.2251L0.808673 14.2286L0.808673 14.2286L1.30866 14.2251ZM1.30794 14.3138L0.808004 14.306L0.808004 14.306L1.30794 14.3138ZM1.33855 14.6465L0.862975 14.8009L1.33855 14.6465ZM1.93582 14.979L1.94003 14.479L1.94003 14.479L1.93582 14.979ZM4.01607 14.9836L4.01559 14.4836L4.01558 14.4836L4.01607 14.9836ZM5.80875 14.9861L5.84047 14.4871L5.82616 14.4862L5.81182 14.4861L5.80875 14.9861ZM5.95273 14.9839L5.99861 15.4817L5.99861 15.4817L5.95273 14.9839ZM6.47929 14.3224L5.97929 14.3211L5.97929 14.3211L6.47929 14.3224ZM6.47908 14.2805L5.97907 14.2829L5.97912 14.2869L6.47908 14.2805ZM6.47825 12.6595L5.97825 12.6586L5.97825 12.6586L6.47825 12.6595ZM6.47202 10.3534L6.97198 10.3477L6.97198 10.3475L6.47202 10.3534ZM6.33639 9.98493L6.04142 10.3887L6.04979 10.3948L6.05841 10.4005L6.33639 9.98493ZM5.75519 9.86474L5.75519 10.3647L5.75826 10.3647L5.75519 9.86474ZM5.755 9.86474L5.755 9.36473L5.75201 9.36475L5.755 9.86474ZM5.5963 9.86341L5.61521 9.36377L5.60363 9.36333L5.59205 9.36343L5.5963 9.86341ZM3.60303 9.85832L3.59636 10.3583L3.59896 10.3583L3.60303 9.85832ZM3.60281 9.85832L3.60948 9.35835L3.60682 9.35833L3.60281 9.85832ZM3.82607 10.7652L3.82653 11.2652L3.8283 11.2652L3.82607 10.7652ZM3.79816 10.7653L3.7986 11.2653L3.79862 11.2653L3.79816 10.7653ZM4.5343 10.7637L4.53335 10.2637L4.53335 10.2637L4.5343 10.7637ZM5.5364 11.7647L5.0364 11.7643L5.5364 11.7647ZM5.53584 13.0543L5.03584 13.0544L5.03584 13.0544L5.53584 13.0543ZM4.54335 14.0521L4.54372 14.5521L4.54372 14.5521L4.54335 14.0521ZM3.1518 14.0484L3.14913 14.5484L3.14935 14.5484L3.1518 14.0484ZM2.24432 13.1357L2.74432 13.1339L2.74432 13.1339L2.24432 13.1357ZM2.24236 12.3997L1.74236 12.3988L1.74236 12.3988L2.24236 12.3997ZM2.24493 11.7795L1.74494 11.7763L1.74494 11.7763L2.24493 11.7795ZM3.25936 10.7656L3.25934 11.2656L3.25934 11.2656L3.25936 10.7656ZM4.96194 1.20197C4.96805 1.2056 4.98913 1.21863 5.01384 1.24401L4.29725 1.94151C4.35202 1.99777 4.40836 2.03628 4.45153 2.0619L4.96194 1.20197ZM4.98761 1.21669C4.97886 1.21184 4.9703 1.20693 4.96194 1.20197L4.45153 2.0619C4.46866 2.07207 4.48578 2.08188 4.50289 2.09136L4.98761 1.21669ZM5.0388 2.8525C5.36664 2.66461 5.52273 2.32929 5.49821 1.9978C5.47449 1.67721 5.286 1.38205 4.98761 1.21669L4.50289 2.09136C4.51489 2.09801 4.50281 2.09695 4.50094 2.07158C4.49997 2.0585 4.5022 2.03931 4.51276 2.01892C4.5241 1.99705 4.53832 1.98675 4.54156 1.98489L5.0388 2.8525ZM3.9696 3.65334C4.27371 3.34087 4.63627 3.0832 5.0388 2.8525L4.54156 1.98489C4.08748 2.24513 3.6418 2.55636 3.25297 2.95589L3.9696 3.65334ZM2.45458 7.26024C2.42645 5.93482 3.01746 4.61491 3.96657 3.65642L3.256 2.9528C2.14163 4.07818 1.42021 5.65123 1.4548 7.28145L2.45458 7.26024ZM2.45624 7.30444C2.45572 7.28819 2.45508 7.26846 2.45419 7.24852L1.45519 7.29317C1.45576 7.30593 1.4562 7.31947 1.45677 7.33684L2.45624 7.30444ZM2.42334 7.345C2.43949 7.3625 2.45021 7.3803 2.45666 7.3943C2.46268 7.40735 2.46388 7.41464 2.46329 7.41181C2.46263 7.4086 2.46105 7.39934 2.45962 7.38013C2.45812 7.36002 2.45733 7.33804 2.45624 7.30444L1.45677 7.33684C1.45951 7.42153 1.4497 7.76436 1.68831 8.02303L2.42334 7.345ZM2.40078 7.33776C2.40488 7.33148 2.40898 7.32705 2.41204 7.32426C2.41354 7.32289 2.41474 7.32197 2.41554 7.32139C2.41634 7.32082 2.41677 7.32058 2.41677 7.32058C2.41678 7.32058 2.41669 7.32063 2.4165 7.32072C2.41631 7.32081 2.41603 7.32094 2.41566 7.3211C2.41492 7.32142 2.41387 7.32182 2.41254 7.32223C2.40979 7.32308 2.40648 7.32378 2.40297 7.32414C2.39945 7.32449 2.39662 7.32441 2.39478 7.32423C2.39294 7.32404 2.39291 7.32383 2.39458 7.32438C2.39632 7.32495 2.40012 7.32643 2.40526 7.32964C2.41053 7.33294 2.41652 7.33765 2.42231 7.34389L1.68934 8.02415C1.91754 8.27002 2.23464 8.34623 2.50347 8.31908C2.77133 8.29202 3.06086 8.15594 3.23811 7.88446L2.40078 7.33776ZM2.37811 7.27995C2.37701 7.30775 2.37619 7.32784 2.37493 7.34673C2.37373 7.36492 2.3724 7.37716 2.37112 7.38575C2.36856 7.40295 2.36739 7.39674 2.37553 7.38103L3.26337 7.84119C3.37306 7.62953 3.37395 7.40499 3.37733 7.31937L2.37811 7.27995ZM2.38576 7.14744C2.38125 7.19737 2.37944 7.24611 2.37811 7.27995L3.37733 7.31937C3.37885 7.28089 3.37987 7.25778 3.3817 7.23747L2.38576 7.14744ZM3.19794 4.54715C2.70133 5.3284 2.41007 6.24526 2.38393 7.17846L3.38354 7.20645C3.40443 6.46033 3.63846 5.71824 4.04187 5.0836L3.19794 4.54715ZM6.73256 2.17821C5.27441 2.41148 3.96978 3.31599 3.19627 4.54979L4.04354 5.08096C4.67182 4.07881 5.73171 3.35103 6.89053 3.16565L6.73256 2.17821ZM7.70329 1.99228C7.42201 2.04687 6.98584 2.13109 6.7204 2.18031L6.9027 3.16355C7.1729 3.11345 7.61312 3.02843 7.89381 2.97396L7.70329 1.99228ZM7.5876 2.16659C7.5869 2.10823 7.61154 2.05966 7.63837 2.03086C7.66239 2.00507 7.68646 1.99554 7.70329 1.99228L7.89381 2.97396C8.2333 2.90808 8.59301 2.61576 8.58753 2.15469L7.5876 2.16659ZM7.61414 2.16565C7.59761 2.14248 7.58947 2.1238 7.58608 2.11504C7.58262 2.10611 7.58216 2.1024 7.58287 2.10588C7.58354 2.1091 7.58472 2.11606 7.58574 2.12722C7.58674 2.13823 7.58742 2.1514 7.5876 2.16659L8.58753 2.15469C8.58617 2.04053 8.57463 1.79026 8.42838 1.58513L7.61414 2.16565ZM7.45701 2.10303C7.49885 2.11595 7.52891 2.12531 7.55655 2.13517C7.58327 2.14471 7.59952 2.15189 7.60947 2.15704C7.6266 2.1659 7.60921 2.16025 7.59343 2.13416L8.44909 1.61662C8.24382 1.27724 7.87262 1.18477 7.75205 1.14755L7.45701 2.10303ZM7.2842 2.04516C7.34754 2.06943 7.4117 2.08904 7.45701 2.10303L7.75205 1.14755C7.70048 1.13162 7.66881 1.12164 7.64191 1.11133L7.2842 2.04516ZM6.35085 1.74004C6.66611 1.84669 6.98938 1.95608 7.31661 2.05632L7.6095 1.10018C7.29843 1.00489 6.98885 0.900197 6.67129 0.792774L6.35085 1.74004ZM6.35295 1.74075L6.35295 1.74075L6.66918 0.792066L6.66917 0.792063L6.35295 1.74075ZM6.37106 1.7464L6.37106 1.7464L6.65106 0.786405L6.65106 0.786404L6.37106 1.7464ZM4.93261 1.29477C5.40343 1.41974 5.8679 1.57667 6.35083 1.74004L6.67128 0.79277C6.19365 0.631196 5.69764 0.463209 5.18917 0.32824L4.93261 1.29477ZM5.01384 1.24401C5.03369 1.2644 5.03772 1.28522 5.03809 1.28931C5.03817 1.29017 5.03811 1.28229 5.0427 1.27278C5.0474 1.26303 5.04682 1.27177 5.0263 1.28354C5.0151 1.28996 5.00003 1.29584 4.98244 1.29844C4.96455 1.3011 4.95099 1.29932 4.94453 1.29778L5.17725 0.325232C4.67343 0.204676 4.29711 0.516967 4.14211 0.838104C3.99399 1.14498 3.972 1.60736 4.29725 1.94151L5.01384 1.24401ZM14.0245 8.55081C14.0243 8.54805 14.0245 8.54296 14.0261 8.53691C14.0268 8.53409 14.0277 8.53171 14.0285 8.52986C14.0289 8.52896 14.0292 8.52828 14.0295 8.5278C14.0297 8.52732 14.0299 8.5271 14.0299 8.52711C14.0299 8.52712 14.0297 8.5274 14.0293 8.52792C14.0288 8.52845 14.0282 8.52923 14.0272 8.53022C14.0253 8.53221 14.0221 8.53506 14.0175 8.53816C14.0075 8.545 13.9945 8.55037 13.9814 8.55242L13.8265 7.56448C13.2504 7.6548 12.9942 8.20441 13.0276 8.62921L14.0245 8.55081ZM12.1708 12.6593C13.362 11.6541 14.0115 10.1161 14.026 8.59479L13.0261 8.58522C13.014 9.84397 12.4734 11.0954 11.5259 11.895L12.1708 12.6593ZM10.2791 13.1779C10.5644 13.1672 10.9002 13.1556 11.218 13.094C11.5415 13.0313 11.8865 12.9101 12.179 12.6522L11.5177 11.9021C11.4058 12.0008 11.2503 12.0691 11.0276 12.1123C10.7992 12.1566 10.5432 12.1673 10.2414 12.1787L10.2791 13.1779ZM8.93944 13.6483C9.02229 13.4472 9.14994 13.3482 9.35178 13.2835C9.58846 13.2076 9.88581 13.1928 10.2791 13.1779L10.2414 12.1787C9.88439 12.1921 9.43925 12.2053 9.04648 12.3312C8.61886 12.4683 8.23009 12.7449 8.01484 13.2674L8.93944 13.6483ZM8.8252 13.884C8.85587 13.8261 8.90082 13.742 8.93944 13.6483L8.01484 13.2674C7.99748 13.3095 7.97536 13.352 7.94156 13.4158L8.8252 13.884ZM8.74883 13.9456C8.75108 13.95 8.75722 13.9645 8.75946 13.9861C8.76162 14.0069 8.75877 14.0209 8.75824 14.0231C8.75819 14.0233 8.7606 14.0135 8.77229 13.9879C8.78459 13.961 8.80025 13.9311 8.8252 13.884L7.94156 13.4158C7.86761 13.5554 7.62568 13.9506 7.86049 14.4048L8.74883 13.9456ZM8.85619 13.9205C8.80574 13.9137 8.77186 13.9089 8.74143 13.9031C8.71214 13.8974 8.69875 13.8929 8.69442 13.8912C8.69137 13.89 8.70137 13.8935 8.71586 13.9056C8.73168 13.9189 8.74289 13.9341 8.74883 13.9456L7.86049 14.4048C8.09574 14.86 8.58693 14.8932 8.72238 14.9115L8.85619 13.9205ZM9.11245 13.9665C9.01585 13.9414 8.91776 13.9288 8.85619 13.9205L8.72238 14.9115C8.79646 14.9215 8.83302 14.9271 8.86102 14.9344L9.11245 13.9665ZM9.82478 14.1629C9.59028 14.0978 9.3545 14.0324 9.11822 13.968L8.85526 14.9328C9.089 14.9965 9.32261 15.0613 9.55747 15.1265L9.82478 14.1629ZM9.84925 14.1703L9.84924 14.1703L9.53301 15.119L9.53303 15.119L9.84925 14.1703ZM9.84927 14.1703L9.84925 14.1703L9.53303 15.119L9.53304 15.119L9.84927 14.1703ZM11.319 14.5664C10.8215 14.4393 10.3261 14.3019 9.82481 14.1629L9.5575 15.1265C10.0571 15.2651 10.5624 15.4053 11.0715 15.5353L11.319 14.5664ZM11.4035 14.6282C11.4093 14.6214 11.4198 14.6126 11.4334 14.6059C11.446 14.5996 11.4542 14.5988 11.4538 14.5988C11.4526 14.5989 11.444 14.5996 11.427 14.597C11.4101 14.5943 11.3887 14.5891 11.364 14.5802L11.0265 15.5215C11.2964 15.6183 11.8027 15.6954 12.1599 15.2823L11.4035 14.6282ZM11.3701 14.639C11.3775 14.6482 11.3823 14.6569 11.3851 14.6637C11.3878 14.6706 11.3878 14.6734 11.3876 14.6716C11.3875 14.6693 11.3875 14.6621 11.3907 14.652C11.3942 14.6412 11.3995 14.6329 11.4035 14.6282L12.1599 15.2823C12.5227 14.8627 12.4025 14.3271 12.1494 14.0123L11.3701 14.639ZM11.151 14.5797C11.2385 14.6065 11.2946 14.6242 11.343 14.6453C11.3876 14.6648 11.406 14.6792 11.4137 14.6866L12.1057 13.9647C11.8785 13.7469 11.5863 13.6671 11.4434 13.6234L11.151 14.5797ZM11.1991 14.5918L11.1991 14.5918L11.3952 13.6113L11.3952 13.6113L11.1991 14.5918ZM11.1115 14.5658L11.1115 14.5658L11.4829 13.6373L11.4828 13.6373L11.1115 14.5658ZM11.0469 14.5472C11.0833 14.559 11.1195 14.5701 11.151 14.5797L11.4433 13.6234C11.4104 13.6133 11.3827 13.6048 11.3562 13.5962L11.0469 14.5472ZM11.0098 14.5365L11.0605 14.5514L11.3425 13.592L11.2918 13.5771L11.0098 14.5365ZM10.7478 14.4607C10.8338 14.4847 10.9197 14.51 11.0098 14.5365L11.2919 13.5771C11.2029 13.5509 11.1105 13.5238 11.0171 13.4976L10.7478 14.4607ZM12.9839 11.7186C12.4075 12.5103 11.5966 13.1189 10.6812 13.5215L11.0837 14.4369C12.1361 13.974 13.097 13.2622 13.7923 12.3072L12.9839 11.7186ZM13.9434 8.46729C14.0073 9.61338 13.6508 10.7803 12.9806 11.7233L13.7957 12.3026C14.5899 11.1852 15.019 9.79632 14.9419 8.41166L13.9434 8.46729ZM14.0062 8.54788C13.9911 8.55104 13.9806 8.54959 13.9761 8.54857C13.972 8.54762 13.9704 8.54655 13.9696 8.54603C13.9689 8.54551 13.9648 8.54255 13.9596 8.5344C13.954 8.52553 13.9473 8.51052 13.9453 8.49069L14.94 8.38826C14.8813 7.81844 14.3126 7.46228 13.8017 7.56902L14.0062 8.54788ZM13.6657 0.992798C12.4254 0.254365 10.722 0.44659 9.71209 1.51575L10.4391 2.20243C11.1132 1.48879 12.298 1.34233 13.1541 1.85203L13.6657 0.992798ZM15.0125 2.57695C14.7575 1.88799 14.2443 1.35949 13.6776 1.00016L13.1421 1.84467C13.5743 2.11879 13.9141 2.49032 14.0747 2.92404L15.0125 2.57695ZM14.6694 5.61317C15.2771 4.72956 15.3966 3.55566 15.009 2.56789L14.0781 2.9331C14.3476 3.61995 14.26 4.44368 13.8454 5.04651L14.6694 5.61317ZM12.4631 6.96116C13.3439 6.83944 14.1554 6.34391 14.6664 5.61749L13.8484 5.04219C13.4969 5.54195 12.9319 5.88687 12.3262 5.97057L12.4631 6.96116ZM10.0107 6.29811C10.6927 6.82681 11.5914 7.09278 12.4693 6.96026L12.32 5.97146C11.7334 6.06002 11.1064 5.88225 10.6234 5.50779L10.0107 6.29811ZM9.44891 5.7267C9.60977 5.92302 9.79069 6.11472 9.99645 6.28664L10.6376 5.51926C10.4906 5.3964 10.3532 5.25254 10.2224 5.09292L9.44891 5.7267ZM9.72413 1.50345C8.61568 2.5988 8.48315 4.48058 9.44043 5.71606L10.2309 5.10357C9.58571 4.27086 9.67582 2.95707 10.427 2.21474L9.72413 1.50345ZM10.9884 3.02395C11.3365 2.49314 12.127 2.3201 12.6527 2.65943L13.195 1.81924C12.1951 1.17386 10.7934 1.49788 10.1522 2.47548L10.9884 3.02395ZM11.1663 4.72563C10.6964 4.31392 10.6068 3.53838 10.9714 3.04815L10.1691 2.45129C9.48167 3.37538 9.6601 4.73544 10.5073 5.47777L11.1663 4.72563ZM11.8364 5.03715C11.6019 5.00638 11.366 4.89337 11.1586 4.71898L10.5151 5.48442C10.8392 5.75691 11.2478 5.9685 11.7063 6.02865L11.8364 5.03715ZM13.2573 4.09072C13.1118 4.68972 12.4505 5.13557 11.8506 5.03922L11.6921 6.02657C12.8202 6.20776 13.9636 5.41961 14.229 4.32675L13.2573 4.09072ZM13.111 3.11682C13.2848 3.37078 13.3337 3.73529 13.2544 4.10339L14.2319 4.31408C14.3517 3.75863 14.3065 3.09296 13.9362 2.55196L13.111 3.11682ZM12.6461 2.65514C12.8356 2.78167 12.9924 2.93351 13.1036 3.10566L13.9436 2.56312C13.7459 2.25702 13.484 2.01217 13.2015 1.82354L12.6461 2.65514ZM1.80638 10.3275C1.80603 10.3208 1.80684 10.3099 1.80988 10.2986C1.81298 10.2871 1.81578 10.2848 1.81213 10.2899C1.80807 10.2957 1.79275 10.3146 1.76079 10.3306C1.72557 10.3482 1.69035 10.3519 1.6672 10.3494L1.77793 9.35551C1.42505 9.31619 1.15262 9.49167 0.996983 9.71069C0.853609 9.91246 0.796365 10.16 0.80772 10.3793L1.80638 10.3275ZM1.80865 14.2215C1.79949 12.9323 1.79517 11.6443 1.80703 10.358L0.807072 10.3488C0.795142 11.6431 0.799499 12.9373 0.808673 14.2286L1.80865 14.2215ZM1.80788 14.3216C1.80833 14.2928 1.8089 14.2574 1.80865 14.2215L0.808673 14.2286C0.808834 14.2513 0.808483 14.2752 0.808004 14.306L1.80788 14.3216ZM1.81412 14.4921C1.81422 14.4924 1.81332 14.4897 1.81216 14.4828C1.81098 14.4758 1.8097 14.4655 1.80875 14.4508C1.80665 14.4182 1.80695 14.3814 1.80788 14.3216L0.808004 14.306C0.806515 14.4018 0.798676 14.6028 0.862975 14.8009L1.81412 14.4921ZM1.94003 14.479C1.80729 14.4779 1.77591 14.4491 1.78717 14.4569C1.79202 14.4602 1.79919 14.4668 1.80555 14.4759C1.81134 14.4843 1.81362 14.4906 1.81412 14.4921L0.862975 14.8009C0.914218 14.9587 1.01866 15.1412 1.2184 15.2794C1.41416 15.4147 1.65689 15.4766 1.9316 15.4789L1.94003 14.479ZM4.01558 14.4836C3.32193 14.4842 2.63077 14.4848 1.94003 14.479L1.9316 15.4789C2.62778 15.4848 3.32355 15.4842 4.01657 15.4836L4.01558 14.4836ZM5.81182 14.4861C5.21234 14.4824 4.61298 14.483 4.01559 14.4836L4.01656 15.4836C4.61453 15.483 5.21034 15.4824 5.80568 15.4861L5.81182 14.4861ZM5.90686 14.486C5.88372 14.4881 5.86169 14.4884 5.84047 14.4871L5.77703 15.4851C5.85283 15.4899 5.92683 15.4884 5.99861 15.4817L5.90686 14.486ZM5.97929 14.3211C5.97915 14.3791 5.95935 14.4307 5.93615 14.4615C5.92556 14.4756 5.91707 14.4817 5.91354 14.4838C5.91097 14.4853 5.90968 14.4857 5.90686 14.486L5.99861 15.4817C6.65553 15.4212 6.97806 14.8123 6.97929 14.3236L5.97929 14.3211ZM5.97912 14.2869C5.97926 14.2983 5.97932 14.3097 5.97929 14.3211L6.97929 14.3236C6.97933 14.3072 6.97925 14.2906 6.97904 14.2741L5.97912 14.2869ZM5.97825 12.6586C5.97737 13.1987 5.97648 13.7406 5.97908 14.2829L6.97907 14.2781C6.97649 13.7396 6.97737 13.2008 6.97825 12.6603L5.97825 12.6586ZM5.97205 10.3591C5.98075 11.1238 5.97952 11.8892 5.97825 12.6586L6.97825 12.6603C6.97951 11.892 6.98077 11.12 6.97198 10.3477L5.97205 10.3591ZM6.05841 10.4005C6.0283 10.3804 6.00509 10.3552 5.98926 10.3308C5.97448 10.3081 5.96914 10.291 5.96791 10.2867C5.96678 10.2827 5.96812 10.286 5.96951 10.3002C5.97088 10.3143 5.97174 10.3327 5.97205 10.3593L6.97198 10.3475C6.97112 10.2746 6.96769 10.1466 6.92987 10.0135C6.88962 9.87175 6.80186 9.69473 6.61437 9.56933L6.05841 10.4005ZM5.75826 10.3647C5.86717 10.3641 5.93088 10.3647 5.98465 10.3728C6.00813 10.3763 6.02238 10.3804 6.03051 10.3834C6.0379 10.3861 6.04059 10.388 6.04142 10.3887L6.63136 9.58121C6.30761 9.34468 5.91987 9.36372 5.75211 9.36475L5.75826 10.3647ZM5.755 10.3647H5.75519V9.36474H5.755V10.3647ZM5.57738 10.3631C5.64201 10.3655 5.70627 10.365 5.758 10.3647L5.75201 9.36475C5.69633 9.36508 5.65419 9.36524 5.61521 9.36377L5.57738 10.3631ZM3.59896 10.3583C4.26274 10.3637 4.93129 10.3691 5.60054 10.3634L5.59205 9.36343C4.93246 9.36903 4.27215 9.36374 3.60709 9.35833L3.59896 10.3583ZM3.59615 10.3583L3.59636 10.3583L3.60969 9.35836L3.60948 9.35836L3.59615 10.3583ZM1.72589 10.3524C2.34837 10.3483 2.97144 10.3533 3.59881 10.3583L3.60682 9.35833C2.98068 9.35332 2.35027 9.34826 1.71925 9.35245L1.72589 10.3524ZM3.82561 10.2652L3.7977 10.2653L3.79862 11.2653L3.82653 11.2652L3.82561 10.2652ZM4.53335 10.2637C4.20166 10.2643 3.8968 10.2649 3.82384 10.2653L3.8283 11.2652C3.89959 11.2649 4.20258 11.2643 4.53525 11.2637L4.53335 10.2637ZM6.0364 11.7651C6.03709 10.9349 5.36353 10.2621 4.53335 10.2637L4.53525 11.2637C4.81207 11.2631 5.03663 11.4875 5.0364 11.7643L6.0364 11.7651ZM6.03584 13.0543C6.0358 12.618 6.03607 12.1578 6.0364 11.7651L5.0364 11.7643C5.03607 12.1571 5.0358 12.6177 5.03584 13.0544L6.03584 13.0543ZM4.54372 14.5521C5.37233 14.5515 6.03591 13.8771 6.03584 13.0543L5.03584 13.0544C5.03586 13.331 4.81375 13.5519 4.54298 13.5521L4.54372 14.5521ZM3.14935 14.5484C3.61351 14.5507 4.07846 14.5524 4.54372 14.5521L4.54298 13.5521C4.08054 13.5524 3.61779 13.5507 3.15425 13.5484L3.14935 14.5484ZM1.74433 13.1375C1.74706 13.91 2.3714 14.5443 3.14913 14.5484L3.15446 13.5484C2.93071 13.5472 2.74513 13.3628 2.74432 13.1339L1.74433 13.1375ZM1.74236 12.3988C1.74217 12.5122 1.7432 12.8184 1.74433 13.1375L2.74432 13.1339C2.74318 12.8131 2.74218 12.5105 2.74236 12.4005L1.74236 12.3988ZM1.74494 11.7763C1.74398 11.926 1.74284 12.1101 1.74236 12.3988L2.74236 12.4005C2.74284 12.114 2.74397 11.9317 2.74492 11.7827L1.74494 11.7763ZM3.25938 10.2656C2.42174 10.2656 1.75026 10.9464 1.74494 11.7763L2.74492 11.7827C2.74676 11.4949 2.97922 11.2656 3.25934 11.2656L3.25938 10.2656ZM3.79772 10.2653C3.61808 10.2654 3.43871 10.2656 3.25938 10.2656L3.25934 11.2656C3.43921 11.2656 3.61905 11.2654 3.7986 11.2653L3.79772 10.2653Z" fill="url(#paint1_linear_596_236)"/>
<defs>
<linearGradient id="paint0_linear_596_236" x1="13.6969" y1="1.05721" x2="0.669266" y2="13.741" gradientUnits="userSpaceOnUse">
<stop stop-color="#FFC700"/>
<stop offset="0.551952" stop-color="#FF49AB"/>
<stop offset="1" stop-color="#BA49FF"/>
</linearGradient>
<linearGradient id="paint1_linear_596_236" x1="13.6969" y1="1.05721" x2="0.669266" y2="13.741" gradientUnits="userSpaceOnUse">
<stop stop-color="#FFC700"/>
<stop offset="0.551952" stop-color="#FF49AB"/>
<stop offset="1" stop-color="#BA49FF"/>
</linearGradient>
</defs>
</svg>
