<svg width="16" height="16" viewBox="0 0 16 16" fill="none" xmlns="http://www.w3.org/2000/svg">
<path fill-rule="evenodd" clip-rule="evenodd" d="M6.09101 0.799805H6.05303H6.05302C5.19428 0.799795 4.49529 0.799787 3.92791 0.846144C3.34167 0.894041 2.81714 0.995878 2.32881 1.2447C1.56077 1.63603 0.936327 2.26047 0.54499 3.02852C0.296171 3.51685 0.194334 4.04138 0.146437 4.62761C0.10008 5.19499 0.100088 5.89398 0.100098 6.75272V6.75273V6.79071V6.8287V6.82871C0.100088 7.68744 0.10008 8.38643 0.146437 8.95382C0.194334 9.54005 0.29617 10.0646 0.54499 10.5529C0.936328 11.321 1.56077 11.9454 2.32881 12.3367C2.81714 12.5856 3.34167 12.6874 3.92791 12.7353C4.49529 12.7816 5.19428 12.7816 6.05302 12.7816H6.09101H6.90842C7.01428 12.7816 7.1001 12.8674 7.1001 12.9733V12.9733C7.1001 13.07 7.02806 13.1512 6.93243 13.1655C6.69954 13.2001 6.46792 13.2461 6.23841 13.3034L5.23636 13.554C4.75415 13.6745 4.46096 14.1631 4.58152 14.6454C4.70207 15.1276 5.19071 15.4208 5.67293 15.3002L6.67497 15.0497C7.10999 14.9409 7.55504 14.8866 8.0001 14.8866C8.44516 14.8866 8.89021 14.9409 9.32522 15.0497L10.3273 15.3002C10.8095 15.4208 11.2981 15.1276 11.4187 14.6454C11.5392 14.1631 11.246 13.6745 10.7638 13.554L9.76179 13.3034C9.53227 13.2461 9.30065 13.2001 9.06777 13.1655C8.97214 13.1512 8.9001 13.07 8.9001 12.9733V12.9733C8.9001 12.8674 8.98592 12.7816 9.09178 12.7816H9.90919H9.94717C10.8059 12.7816 11.5049 12.7816 12.0723 12.7353C12.6585 12.6874 13.1831 12.5856 13.6714 12.3367C14.4394 11.9454 15.0639 11.321 15.4552 10.5529C15.704 10.0646 15.8059 9.54005 15.8538 8.95382C15.9001 8.38643 15.9001 7.68744 15.9001 6.8287V6.79071V6.75273C15.9001 5.89399 15.9001 5.195 15.8538 4.62761C15.8059 4.04138 15.704 3.51685 15.4552 3.02852C15.0639 2.26047 14.4394 1.63603 13.6714 1.2447C13.1831 0.995878 12.6585 0.894041 12.0723 0.846144C11.5049 0.799787 10.8059 0.799795 9.94718 0.799805H9.94717H9.90919H6.09101ZM9.90919 10.9816H8.0001H6.09101C5.18516 10.9816 4.55991 10.9809 4.07448 10.9413C3.59957 10.9025 3.33829 10.8309 3.14599 10.7329C2.71664 10.5142 2.36757 10.1651 2.1488 9.73573C2.05082 9.54344 1.97926 9.28216 1.94046 8.80724C1.9008 8.32181 1.9001 7.69656 1.9001 6.79071C1.9001 5.88487 1.9008 5.25962 1.94046 4.77419C1.97926 4.29927 2.05082 4.03799 2.1488 3.8457C2.36757 3.41635 2.71664 3.06727 3.14599 2.84851C3.33829 2.75053 3.59957 2.67897 4.07448 2.64017C4.55991 2.60051 5.18516 2.59981 6.09101 2.59981H9.90919C10.815 2.59981 11.4403 2.60051 11.9257 2.64017C12.4006 2.67897 12.6619 2.75053 12.8542 2.84851C13.2836 3.06727 13.6326 3.41635 13.8514 3.8457C13.9494 4.03799 14.0209 4.29927 14.0597 4.77419C14.0994 5.25962 14.1001 5.88487 14.1001 6.79071C14.1001 7.69656 14.0994 8.32181 14.0597 8.80724C14.0209 9.28216 13.9494 9.54344 13.8514 9.73573C13.6326 10.1651 13.2836 10.5142 12.8542 10.7329C12.6619 10.8309 12.4006 10.9025 11.9257 10.9413C11.4403 10.9809 10.815 10.9816 9.90919 10.9816ZM11.8183 10.0998C12.3153 10.0998 12.7183 9.69686 12.7183 9.1998C12.7183 8.70275 12.3153 8.2998 11.8183 8.2998L8.0001 8.29981C7.50304 8.29981 7.1001 8.70275 7.1001 9.19981C7.1001 9.69686 7.50304 10.0998 8.0001 10.0998L11.8183 10.0998ZM4.45455 10.1088C4.98173 10.1088 5.40909 9.68143 5.40909 9.15425C5.40909 8.62707 4.98173 8.19971 4.45455 8.19971C3.92736 8.19971 3.5 8.62707 3.5 9.15425C3.5 9.68143 3.92736 10.1088 4.45455 10.1088Z" fill="url(#paint0_linear_526_734)"/>
<defs>
<linearGradient id="paint0_linear_526_734" x1="1.0876" y1="15.3351" x2="17.4368" y2="2.81414" gradientUnits="userSpaceOnUse">
<stop stop-color="#2E4AFA"/>
<stop offset="1" stop-color="#8E9EFF"/>
</linearGradient>
</defs>
</svg>
