<svg width="16" height="16" viewBox="0 0 16 16" fill="none" xmlns="http://www.w3.org/2000/svg">
<path d="M5.3999 10.5419L10.0339 6.29293C10.2299 6.11793 10.2229 5.83794 10.0199 5.66994L8.57791 4.46594C8.19991 4.15094 7.89891 4.29794 7.89891 4.78794V11.3189C7.89891 11.8089 8.20691 11.9489 8.57791 11.6409L10.0199 10.4369C10.2229 10.2689 10.2299 9.98893 10.0339 9.81393L5.3999 5.56495" stroke="url(#paint0_linear_555_197)" stroke-width="1.5" stroke-miterlimit="10" stroke-linecap="round" stroke-linejoin="round"/>
<path d="M10.2 15H6C3.9 15 2.5 13.6 2.5 11.5V4.5C2.5 2.4 3.9 1 6 1H10.2C12.3 1 13.7 2.4 13.7 4.5V11.5C13.7 13.6 12.3 15 10.2 15Z" stroke="url(#paint1_linear_555_197)" stroke-width="1.8" stroke-miterlimit="10" stroke-linecap="round" stroke-linejoin="round"/>
<defs>
<linearGradient id="paint0_linear_555_197" x1="5.69845" y1="11.808" x2="12.2283" y2="8.88112" gradientUnits="userSpaceOnUse">
<stop stop-color="#2E4AFA"/>
<stop offset="1" stop-color="#8E9EFF"/>
</linearGradient>
<linearGradient id="paint1_linear_555_197" x1="3.2" y1="15.0075" x2="17.1574" y2="7.14488" gradientUnits="userSpaceOnUse">
<stop stop-color="#2E4AFA"/>
<stop offset="1" stop-color="#8E9EFF"/>
</linearGradient>
</defs>
</svg>
