<svg width="16" height="16" viewBox="0 0 16 16" fill="none" xmlns="http://www.w3.org/2000/svg">
<g clip-path="url(#clip0_497_112)">
<path fill-rule="evenodd" clip-rule="evenodd" d="M2.0835 4.2935C2.0835 3.10523 2.25053 2.66212 2.45633 2.45633C2.66212 2.25053 3.10523 2.0835 4.2935 2.0835H11.7002C12.8921 2.0835 13.3371 2.25062 13.5437 2.45682C13.7497 2.66252 13.9168 3.10516 13.9168 4.2935V7.7165C13.9168 7.82696 13.8273 7.9165 13.7168 7.9165H2.2835C2.17304 7.9165 2.0835 7.82696 2.0835 7.7165V4.2935ZM15.4168 8.5135C15.4168 8.5554 15.4167 8.59712 15.4163 8.63865C15.4167 8.64789 15.4168 8.65718 15.4168 8.6665C15.4168 8.68144 15.4164 8.69628 15.4155 8.711C15.4006 9.80991 15.2491 10.7706 14.6042 11.4143C13.9213 12.096 12.8838 12.2235 11.7068 12.2235H8.95C8.83954 12.2235 8.75 12.313 8.75 12.4235V13.7165C8.75 13.827 8.83954 13.9165 8.95 13.9165H11C11.4142 13.9165 11.75 14.2523 11.75 14.6665C11.75 15.0807 11.4142 15.4165 11 15.4165H8.01485C8.00991 15.4166 8.00496 15.4166 8 15.4166C7.99504 15.4166 7.99009 15.4166 7.98515 15.4165H5C4.58579 15.4165 4.25 15.0807 4.25 14.6665C4.25 14.2523 4.58579 13.9165 5 13.9165H7.05C7.16046 13.9165 7.25 13.827 7.25 13.7165V12.4235C7.25 12.313 7.16046 12.2235 7.05 12.2235H4.29458C3.11671 12.2267 2.07936 12.0996 1.39616 11.4177C0.749764 10.7725 0.599041 9.80888 0.584688 8.70914C0.583897 8.69503 0.583496 8.68081 0.583496 8.6665C0.583496 8.65757 0.583652 8.64868 0.583962 8.63982C0.583646 8.6001 0.583496 8.56021 0.583496 8.52016V4.2935C0.583496 3.11509 0.713128 2.0782 1.39567 1.39567C2.0782 0.713128 3.11509 0.583496 4.2935 0.583496H11.7002C12.8815 0.583496 13.9199 0.713042 14.6033 1.39517C15.2872 2.07781 15.4168 3.11516 15.4168 4.2935V8.5135ZM2.15854 9.63884C2.13809 9.52103 2.2317 9.4165 2.35127 9.4165H13.6483C13.768 9.4165 13.8616 9.52112 13.841 9.63897C13.7729 10.0291 13.6653 10.2321 13.5445 10.3527C13.3391 10.5577 12.8965 10.7235 11.7068 10.7235H4.2935H4.29138C3.10301 10.7268 2.66077 10.5606 2.45583 10.356C2.33457 10.235 2.22659 10.0309 2.15854 9.63884Z" fill="url(#paint0_linear_497_112)" stroke="url(#paint1_linear_497_112)" stroke-width="0.3"/>
</g>
<defs>
<linearGradient id="paint0_linear_497_112" x1="0.369091" y1="0.729453" x2="15.6608" y2="16.4892" gradientUnits="userSpaceOnUse">
<stop stop-color="#F9D423"/>
<stop offset="0.515624" stop-color="#FF4E50"/>
<stop offset="0.991304" stop-color="#8A2387"/>
</linearGradient>
<linearGradient id="paint1_linear_497_112" x1="0.369091" y1="0.729453" x2="15.6608" y2="16.4892" gradientUnits="userSpaceOnUse">
<stop stop-color="#F9D423"/>
<stop offset="0.515624" stop-color="#FF4E50"/>
<stop offset="0.991304" stop-color="#8A2387"/>
</linearGradient>
<clipPath id="clip0_497_112">
<rect width="16" height="16" fill="white"/>
</clipPath>
</defs>
</svg>
