<svg width="16" height="16" viewBox="0 0 16 16" fill="none" xmlns="http://www.w3.org/2000/svg">
<path fill-rule="evenodd" clip-rule="evenodd" d="M7.25412 0.5H8.74588C9.78538 0.499994 10.6121 0.499989 11.2787 0.555348C11.9614 0.612044 12.5431 0.730662 13.0744 1.00664C13.8963 1.43358 14.5664 2.10372 14.9934 2.92562C15.2693 3.4569 15.388 4.03858 15.4447 4.72129C15.5 5.38791 15.5 6.21463 15.5 7.25414V8.74586C15.5 9.78537 15.5 10.6121 15.4447 11.2787C15.388 11.9614 15.2693 12.5431 14.9934 13.0744C14.5664 13.8963 13.8963 14.5664 13.0744 14.9934C12.5431 15.2693 11.9614 15.388 11.2787 15.4447C10.6121 15.5 9.78537 15.5 8.74586 15.5H7.25414C6.21463 15.5 5.38791 15.5 4.72129 15.4447C4.03858 15.388 3.4569 15.2693 2.92562 14.9934C2.10372 14.5664 1.43358 13.8963 1.00664 13.0744C0.730662 12.5431 0.612044 11.9614 0.555348 11.2787C0.499989 10.6121 0.499994 9.78538 0.5 8.74588V7.25412C0.499994 6.21462 0.499989 5.38791 0.555348 4.72129C0.612044 4.03858 0.730662 3.4569 1.00664 2.92562C1.43358 2.10372 2.10372 1.43358 2.92562 1.00664C3.4569 0.730662 4.03858 0.612044 4.72129 0.555348C5.38791 0.499989 6.21462 0.499994 7.25412 0.5ZM4.84544 2.0502C4.25716 2.09906 3.89857 2.19154 3.61708 2.33776C3.06915 2.62239 2.62239 3.06915 2.33776 3.61708C2.19154 3.89857 2.09906 4.25716 2.0502 4.84544C2.0006 5.44269 2 6.20712 2 7.2875V8.7125C2 9.79288 2.0006 10.5573 2.0502 11.1546C2.09906 11.7428 2.19154 12.1014 2.33776 12.3829C2.62239 12.9309 3.06915 13.3776 3.61708 13.6622C3.89857 13.8085 4.25716 13.9009 4.84544 13.9498C5.44269 13.9994 6.20712 14 7.2875 14H8.7125C9.79288 14 10.5573 13.9994 11.1546 13.9498C11.7428 13.9009 12.1014 13.8085 12.3829 13.6622C12.9309 13.3776 13.3776 12.9309 13.6622 12.3829C13.8085 12.1014 13.9009 11.7428 13.9498 11.1546C13.9994 10.5573 14 9.79288 14 8.7125V7.2875C14 6.20712 13.9994 5.44269 13.9498 4.84544C13.9009 4.25716 13.8085 3.89857 13.6622 3.61708C13.3776 3.06915 12.9309 2.62239 12.3829 2.33776C12.1014 2.19154 11.7428 2.09906 11.1546 2.0502C10.5573 2.0006 9.79288 2 8.7125 2H7.2875C6.20712 2 5.44269 2.0006 4.84544 2.0502ZM7.87132 4.06802C8.28553 4.06802 8.62132 4.4038 8.62132 4.81802V8.1296C8.62132 8.37872 8.77526 8.60192 9.00812 8.69044L11.2665 9.54894C11.6537 9.69613 11.8482 10.1293 11.7011 10.5165C11.5539 10.9037 11.1207 11.0982 10.7335 10.9511L7.60482 9.76171C7.31374 9.65106 7.12132 9.37206 7.12132 9.06066V4.81802C7.12132 4.4038 7.45711 4.06802 7.87132 4.06802Z" fill="url(#paint0_linear_556_208)" stroke="url(#paint1_linear_556_208)" stroke-width="0.6" stroke-linecap="round" stroke-linejoin="round"/>
<defs>
<linearGradient id="paint0_linear_556_208" x1="0.283186" y1="0.647598" x2="15.7469" y2="16.5844" gradientUnits="userSpaceOnUse">
<stop stop-color="#F9D423"/>
<stop offset="0.515624" stop-color="#FF4E50"/>
<stop offset="0.991304" stop-color="#8A2387"/>
</linearGradient>
<linearGradient id="paint1_linear_556_208" x1="0.283186" y1="0.647598" x2="15.7469" y2="16.5844" gradientUnits="userSpaceOnUse">
<stop stop-color="#F9D423"/>
<stop offset="0.515624" stop-color="#FF4E50"/>
<stop offset="0.991304" stop-color="#8A2387"/>
</linearGradient>
</defs>
</svg>
