<svg width="16" height="16" viewBox="0 0 16 16" fill="none" xmlns="http://www.w3.org/2000/svg">
<path fill-rule="evenodd" clip-rule="evenodd" d="M8.36652 2.08974C8.33061 2.11862 8.26585 2.17496 8.16783 2.27822C7.93414 2.52443 7.63461 2.89756 7.18683 3.45729L4.11583 7.29604C3.77175 7.72614 3.55334 8.00059 3.4148 8.21013C3.36286 8.2887 3.33498 8.34002 3.32066 8.36904C3.32263 8.3742 3.32503 8.37919 3.32782 8.38395C3.35943 8.3909 3.41693 8.40119 3.51073 8.40971C3.76089 8.43243 4.11164 8.43333 4.66244 8.43333H5.06677L5.09653 8.43332C5.35085 8.4333 5.5929 8.43328 5.79686 8.44994C6.01927 8.46811 6.27438 8.5105 6.52935 8.64041C6.88686 8.82257 7.17752 9.11324 7.35968 9.47074C7.4896 9.72572 7.53199 9.98083 7.55016 10.2032C7.56682 10.4072 7.5668 10.6492 7.56677 10.9036L7.56677 10.9333V12.1054C7.56677 12.8222 7.56756 13.3007 7.59625 13.6389C7.60828 13.7808 7.62365 13.8652 7.63365 13.9102C7.63366 13.9102 7.63368 13.9102 7.63369 13.9102C7.6696 13.8814 7.73436 13.825 7.83238 13.7218C8.06607 13.4756 8.36559 13.1024 8.81338 12.5427L11.8844 8.70395C12.2285 8.27385 12.4469 7.9994 12.5854 7.78986C12.6373 7.71129 12.6652 7.65996 12.6795 7.63094C12.6776 7.62578 12.6752 7.6208 12.6724 7.61603C12.6408 7.60908 12.5833 7.5988 12.4895 7.59028C12.2393 7.56755 11.8886 7.56666 11.3378 7.56666H10.9334L10.9037 7.56666C10.6494 7.56669 10.4073 7.56671 10.2034 7.55005C9.98094 7.53188 9.72583 7.48949 9.47086 7.35957C9.11335 7.17741 8.82268 6.88675 8.64053 6.52924C8.51061 6.27427 8.46822 6.01916 8.45005 5.79675C8.43339 5.59279 8.43341 5.35074 8.43344 5.09642L8.43344 5.06666V3.89458C8.43344 3.17777 8.43265 2.69929 8.40396 2.36105C8.39193 2.21918 8.37655 2.13474 8.36656 2.08975C8.36654 2.08975 8.36653 2.08974 8.36652 2.08974ZM8.03824 0.30718C8.66842 0.208067 9.30628 0.431817 9.73646 0.902883C10.0916 1.2918 10.1649 1.82408 10.1975 2.20895C10.2335 2.63279 10.2335 3.18886 10.2334 3.85228V3.89458V5.06666C10.2334 5.36154 10.2341 5.52857 10.2441 5.65017C10.2472 5.68855 10.2507 5.7127 10.2531 5.72618C10.259 5.73412 10.266 5.74114 10.2739 5.74702C10.2874 5.74939 10.3115 5.75289 10.3499 5.75602C10.4715 5.76596 10.6386 5.76666 10.9334 5.76666H11.3378L11.3788 5.76666C11.8765 5.76664 12.3106 5.76662 12.6523 5.79766C12.9868 5.82804 13.417 5.89876 13.7715 6.18173C14.2237 6.54271 14.4868 7.09008 14.4861 7.66871C14.4857 8.12229 14.2722 8.50237 14.0869 8.78255C13.8977 9.06881 13.6265 9.40774 13.3156 9.79638L13.2899 9.8284L10.2189 13.6671L10.1925 13.7001C9.77811 14.2182 9.43074 14.6524 9.13789 14.961C8.87198 15.2411 8.48225 15.611 7.96197 15.6928C7.33179 15.7919 6.69393 15.5682 6.26375 15.0971C5.9086 14.7082 5.83533 14.1759 5.80269 13.791C5.76674 13.3672 5.76675 12.8111 5.76677 12.1477L5.76677 12.1054V10.9333C5.76677 10.6384 5.76607 10.4714 5.75614 10.3498C5.753 10.3114 5.7495 10.2873 5.74713 10.2738C5.74125 10.2659 5.73423 10.2588 5.72629 10.253C5.71281 10.2506 5.68866 10.2471 5.65028 10.244C5.52868 10.234 5.36165 10.2333 5.06677 10.2333H4.66244L4.62141 10.2333C4.1237 10.2334 3.68965 10.2334 3.3479 10.2023C3.0134 10.1719 2.58324 10.1012 2.22874 9.81826C1.77652 9.45728 1.51344 8.9099 1.51406 8.33127C1.51455 7.87769 1.72805 7.49762 1.91329 7.21743C2.10254 6.93118 2.3737 6.59226 2.68464 6.20362L2.71027 6.17159L5.78127 2.33284L5.80768 2.29982C6.22211 1.78176 6.56947 1.34753 6.86232 1.03902C7.12823 0.758877 7.51796 0.389009 8.03824 0.30718Z" fill="url(#paint0_linear_620_155)"/>
<defs>
<linearGradient id="paint0_linear_620_155" x1="8.03731" y1="18.6484" x2="8.03731" y2="1.87946" gradientUnits="userSpaceOnUse">
<stop stop-color="#FDA700"/>
<stop offset="1" stop-color="#FFDE00"/>
</linearGradient>
</defs>
</svg>
