<svg width="16" height="16" viewBox="0 0 16 16" fill="none" xmlns="http://www.w3.org/2000/svg">
<path fill-rule="evenodd" clip-rule="evenodd" d="M0.100098 3.55565C0.100098 2.19949 1.19949 1.1001 2.55565 1.1001H13.4445C14.8007 1.1001 15.9001 2.19949 15.9001 3.55565V5.5001C15.9001 5.99715 15.4972 6.4001 15.0001 6.4001C14.503 6.4001 14.1001 5.99715 14.1001 5.5001V3.55565C14.1001 3.1936 13.8066 2.9001 13.4445 2.9001H2.55565C2.1936 2.9001 1.9001 3.1936 1.9001 3.55565V7.44454C1.9001 7.8066 2.1936 8.1001 2.55565 8.1001H7.1251C7.62215 8.1001 8.0251 8.50304 8.0251 9.0001C8.0251 9.49715 7.62215 9.9001 7.1251 9.9001H2.55565C1.19949 9.9001 0.100098 8.80071 0.100098 7.44454V3.55565ZM9.43343 8.22232C9.43343 6.86615 10.5328 5.76676 11.889 5.76676C13.2452 5.76676 14.3445 6.86615 14.3445 8.22232V8.69614C14.3445 8.80103 14.426 8.88681 14.5291 8.90587C15.3092 9.05003 15.9001 9.73384 15.9001 10.5557V13.6668C15.9001 14.5934 15.1489 15.3445 14.2223 15.3445H9.55565C8.62904 15.3445 7.87788 14.5934 7.87788 13.6668V10.5557C7.87788 9.73384 8.46874 9.05003 9.24883 8.90587C9.35197 8.88681 9.43343 8.80103 9.43343 8.69614V8.22232ZM10.3334 10.6779H9.87788C9.76742 10.6779 9.67788 10.7674 9.67788 10.8779V13.3445C9.67788 13.455 9.76742 13.5445 9.87788 13.5445H13.9001C14.0106 13.5445 14.1001 13.455 14.1001 13.3445V10.8779C14.1001 10.7674 14.0106 10.6779 13.9001 10.6779H13.4445H10.3334ZM11.4334 8.87788C11.323 8.87788 11.2334 8.78833 11.2334 8.67788V8.22232C11.2334 7.86027 11.5269 7.56676 11.889 7.56676C12.251 7.56676 12.5445 7.86027 12.5445 8.22232V8.67788C12.5445 8.78833 12.455 8.87788 12.3445 8.87788H11.4334ZM5.66693 5.50026C5.66693 6.14459 5.14459 6.66693 4.50026 6.66693C3.85593 6.66693 3.33359 6.14459 3.33359 5.50026C3.33359 4.85593 3.85593 4.33359 4.50026 4.33359C5.14459 4.33359 5.66693 4.85593 5.66693 5.50026ZM8.00026 6.66693C8.64459 6.66693 9.16693 6.14459 9.16693 5.50026C9.16693 4.85593 8.64459 4.33359 8.00026 4.33359C7.35593 4.33359 6.83359 4.85593 6.83359 5.50026C6.83359 6.14459 7.35593 6.66693 8.00026 6.66693Z" fill="url(#paint0_linear_507_464)"/>
<defs>
<linearGradient id="paint0_linear_507_464" x1="8.0001" y1="15.3445" x2="8.0001" y2="1.93801" gradientUnits="userSpaceOnUse">
<stop stop-color="#18AEFA"/>
<stop offset="1" stop-color="#83E1FF"/>
</linearGradient>
</defs>
</svg>
