<svg width="128" height="128" viewBox="0 0 128 128" fill="none" xmlns="http://www.w3.org/2000/svg">
<path d="M8 29H120V32.5H8V29Z" fill="#3DAEE9"/>
<path fill-rule="evenodd" clip-rule="evenodd" d="M15 15C11.134 15 8 18.134 8 22V106C8 109.866 11.134 113 15 113H113C116.866 113 120 109.866 120 106V22C120 18.134 116.866 15 113 15H15ZM25.5 39.5C21.634 39.5 18.5 42.634 18.5 46.5V93.1665C18.5 97.0326 21.634 100.166 25.5 100.166H102.5C106.366 100.166 109.5 97.0326 109.5 93.1665V46.5C109.5 42.634 106.366 39.5 102.5 39.5H25.5Z" fill="url(#paint0_linear_922_16)"/>
<path d="M71 73C71 69.134 67.866 66 64 66C60.134 66 57 69.134 57 73C57 76.866 60.134 80 64 80C67.866 80 71 76.866 71 73Z" fill="url(#paint1_linear_922_16)"/>
<path fill-rule="evenodd" clip-rule="evenodd" d="M43.875 50C42.2872 50 41 51.2872 41 52.875V87.375C41 88.9628 42.2872 90.25 43.875 90.25H84.125C85.7128 90.25 87 88.9628 87 87.375V52.875C87 51.2872 85.7128 50 84.125 50H43.875ZM48.1875 60.0625C46.5997 60.0625 45.3125 61.3497 45.3125 62.9375V82.1041C45.3125 83.692 46.5997 84.9789 48.1875 84.9789H79.8125C81.4003 84.9789 82.6875 83.692 82.6875 82.1041V62.9375C82.6875 61.3497 81.4003 60.0625 79.8125 60.0625H48.1875Z" fill="url(#paint2_linear_922_16)"/>
<defs>
<linearGradient id="paint0_linear_922_16" x1="63.9999" y1="113" x2="110" y2="32" gradientUnits="userSpaceOnUse">
<stop stop-color="#FD3D00"/>
<stop offset="1" stop-color="#FFE600"/>
</linearGradient>
<linearGradient id="paint1_linear_922_16" x1="64" y1="78.47" x2="64" y2="66" gradientUnits="userSpaceOnUse">
<stop stop-color="#FFE59A"/>
<stop offset="1" stop-color="#FFFFD5"/>
</linearGradient>
<linearGradient id="paint2_linear_922_16" x1="64" y1="90.25" x2="82.8929" y2="56.9821" gradientUnits="userSpaceOnUse">
<stop stop-color="#FD3D00"/>
<stop offset="1" stop-color="#FFE600"/>
</linearGradient>
</defs>
</svg>
