<svg width="16" height="16" viewBox="0 0 16 16" fill="none" xmlns="http://www.w3.org/2000/svg">
<path fill-rule="evenodd" clip-rule="evenodd" d="M4.65956 1.29007C5.22208 0.690056 6.02856 0.5 6.8962 0.5H9.25575C10.1234 0.5 10.9299 0.690056 11.4924 1.29007C12.0433 1.87773 12.1782 2.66868 12.1782 3.42247V3.67073C12.1782 3.78119 12.2678 3.87073 12.3782 3.87073L12.5433 3.87073C13.924 3.87075 15.0432 4.99003 15.0432 6.37073V10.1639C15.0432 10.9768 14.8394 11.7517 14.274 12.3171C13.7086 12.8825 12.9336 13.0864 12.1208 13.0864H11.8576C11.751 13.0864 11.6637 13.1701 11.6537 13.2763C11.5917 13.9342 11.3714 14.5458 10.9034 15.0138C10.338 15.5791 9.56302 15.783 8.75014 15.783H7.40182C6.58893 15.783 5.81396 15.5791 5.24857 15.0138C4.78057 14.5458 4.5603 13.9342 4.4983 13.2763C4.48829 13.1701 4.40097 13.0864 4.29431 13.0864H4.03087C3.21798 13.0864 2.44301 12.8825 1.87762 12.3171C1.31223 11.7517 1.1084 10.9768 1.1084 10.1639V6.79309C1.1084 5.98021 1.31223 5.20523 1.87762 4.63984C2.38363 4.13384 3.05751 3.91743 3.77619 3.87755C3.88555 3.87148 3.97373 3.78285 3.97373 3.67333V3.42247C3.97373 2.66868 4.10863 1.87773 4.65956 1.29007ZM10.3782 3.6707C10.3782 3.78116 10.2887 3.8707 10.1782 3.8707L5.97373 3.87065C5.86327 3.87064 5.77373 3.7811 5.77373 3.67065V3.42247C5.77373 2.82795 5.89164 2.60766 5.97273 2.52116C6.04224 2.44702 6.24699 2.3 6.8962 2.3H9.25575C9.90497 2.3 10.1097 2.44702 10.1792 2.52116C10.2603 2.60766 10.3782 2.82795 10.3782 3.42247V3.6707ZM4.85692 5.67063L4.03087 5.67062H4.03086C3.49544 5.67062 3.25918 5.80387 3.15041 5.91264C3.04165 6.0214 2.9084 6.25767 2.9084 6.79309V10.1639C2.9084 10.6993 3.04165 10.9356 3.15041 11.0443C3.25918 11.1531 3.49544 11.2864 4.03087 11.2864H4.33763C4.41581 11.2864 4.47918 11.223 4.47918 11.1448V11.1448C4.47918 11.0803 4.43505 11.025 4.37504 11.0013C4.04141 10.8696 3.80536 10.5443 3.80536 10.1639C3.80536 9.66682 4.2083 9.26388 4.70536 9.26388H5.37918H5.37935H10.6312H10.7724H10.7726H11.4469C11.944 9.26388 12.3469 9.66682 12.3469 10.1639C12.3469 10.5445 12.1106 10.8699 11.7768 11.0015C11.7167 11.0252 11.6726 11.0804 11.6726 11.1449V11.1449C11.6726 11.223 11.7359 11.2864 11.814 11.2864H12.1208C12.6562 11.2864 12.8924 11.1531 13.0012 11.0443C13.11 10.9356 13.2432 10.6993 13.2432 10.1639V6.37073C13.2432 5.98413 12.9298 5.67074 12.5432 5.67073L11.2896 5.67071L11.2782 5.67079H4.87373L4.85692 5.67063ZM6.27935 12.8605V11.2639C6.27935 11.1534 6.36889 11.0639 6.47935 11.0639H9.67244C9.7829 11.0639 9.87244 11.1534 9.87244 11.2639V12.1864L9.87261 12.2037V12.8605C9.87261 13.3959 9.73936 13.6322 9.63059 13.741C9.52183 13.8497 9.28556 13.983 8.75014 13.983H7.40182C6.86639 13.983 6.63013 13.8497 6.52136 13.741C6.4126 13.6322 6.27935 13.3959 6.27935 12.8605ZM4.70536 6.56741C4.2083 6.56741 3.80536 6.97036 3.80536 7.46741C3.80536 7.96447 4.2083 8.36742 4.70536 8.36742H6.72783C7.22488 8.36742 7.62783 7.96447 7.62783 7.46741C7.62783 6.97036 7.22488 6.56741 6.72783 6.56741H4.70536Z" fill="url(#paint0_linear_491_629)"/>
<defs>
<linearGradient id="paint0_linear_491_629" x1="8.07581" y1="15.783" x2="8.07581" y2="1.399" gradientUnits="userSpaceOnUse">
<stop stop-color="#18AEFA"/>
<stop offset="1" stop-color="#83E1FF"/>
</linearGradient>
</defs>
</svg>
