<svg width="128" height="128" viewBox="0 0 128 128" fill="none" xmlns="http://www.w3.org/2000/svg">
<path d="M52.0214 101.743C52.3277 102.298 52.7719 102.765 53.3113 103.099C53.8507 103.433 54.467 103.622 55.1007 103.649C55.7345 103.675 56.3644 103.538 56.9296 103.25C57.4948 102.962 57.9763 102.533 58.3277 102.005L62.1143 96.3127L90.8721 52.5313C91.4486 51.6538 91.7909 50.6434 91.8666 49.5962C91.9422 48.549 91.7485 47.4999 91.3041 46.5486C90.8597 45.5974 90.1792 44.7757 89.3275 44.1618C88.4758 43.5479 87.4811 43.1621 86.4382 43.0412L15.0653 34.7844M52.0214 101.743L55.9224 108.814C56.5832 110.019 57.4622 111.091 58.5146 111.975C59.7151 112.974 61.113 113.709 62.6169 114.13C64.1207 114.551 65.6967 114.65 67.2414 114.42C68.7862 114.19 70.265 113.637 71.5809 112.795C72.8968 111.954 74.0202 110.845 74.8776 109.539L117.54 44.5229C118.577 42.9423 119.192 41.1227 119.326 39.2373C119.461 37.3518 119.111 35.4633 118.309 33.7515C117.508 32.0397 116.281 30.5615 114.747 29.4577C113.212 28.3539 111.421 27.6612 109.543 27.4456L25.6912 17.8299C23.6712 17.5983 21.6264 17.9272 19.7809 18.7807C17.9355 19.6341 16.3606 20.9791 15.2288 22.6682C14.0971 24.3573 13.4521 26.3254 13.3647 28.3568C13.2773 30.3881 13.7508 32.4043 14.7333 34.1844L15.0653 34.7844M52.0214 101.743L15.0653 34.7844" stroke="url(#paint0_linear_731_2)" stroke-width="10" stroke-linecap="round" stroke-linejoin="round"/>
<defs>
<linearGradient id="paint0_linear_731_2" x1="40.5" y1="58.5" x2="135.975" y2="13.8428" gradientUnits="userSpaceOnUse">
<stop stop-color="#43E97B"/>
<stop offset="0.978261" stop-color="#38F9D7"/>
</linearGradient>
</defs>
</svg>
