<svg width="16" height="16" viewBox="0 0 16 16" fill="none" xmlns="http://www.w3.org/2000/svg">
<path d="M12.8989 9.31592V9.31592C12.8989 9.31601 12.8989 9.31601 12.8989 9.31592V9.31592Z" fill="url(#paint0_linear_563_424)"/>
<path d="M9.87713 12.3934C10.2184 12.1863 10.6247 12.0893 11.0103 12.1926L11.9213 12.4368C12.3602 12.5543 12.5304 13.0821 12.2007 13.3946V13.3946C11.2283 14.3163 10.0096 14.9365 8.69208 15.18C7.37458 15.4236 6.01472 15.2802 4.77703 14.7671C3.53934 14.254 2.47686 13.3932 1.71811 12.289C0.959372 11.1847 0.536892 9.88418 0.501783 8.54482C0.466675 7.20545 0.820443 5.88461 1.52029 4.74209C2.22014 3.59957 3.23607 2.68433 4.44518 2.10711C4.48848 2.08643 4.53196 2.06623 4.57561 2.04649C5.39511 1.67593 6.13731 2.48067 5.90454 3.34941L5.83568 3.60638C5.77562 3.83053 5.61031 4.00907 5.4009 4.10904V4.10904C4.5787 4.50156 3.88787 5.12392 3.41197 5.90083C2.93608 6.67774 2.69552 7.57592 2.71939 8.48669C2.74326 9.39746 3.03055 10.2818 3.54649 11.0327C4.06244 11.7836 4.78493 12.3689 5.62656 12.7178C6.46819 13.0667 7.39289 13.1643 8.28879 12.9986C8.85327 12.8943 9.39108 12.6883 9.87713 12.3934Z" fill="url(#paint1_linear_563_424)"/>
<path d="M8.27857 2.79205C8.54883 1.78341 8.68397 1.2791 9.17149 1.07609C9.65901 0.873085 10.0439 1.09338 10.8136 1.53397C11.1371 1.7191 11.4484 1.92615 11.7453 2.154C12.612 2.81904 13.3393 3.64828 13.8855 4.59437C14.4317 5.54046 14.7862 6.58487 14.9288 7.66798C14.9777 8.03907 15.0013 8.4122 14.9999 8.78487C14.9966 9.67179 14.995 10.1152 14.5754 10.436C14.1558 10.7567 13.6515 10.6215 12.6429 10.3513L8.75478 9.30945C7.77725 9.04752 7.28848 8.91655 7.06617 8.5315C6.84386 8.14645 6.97483 7.65769 7.23676 6.68015L8.27857 2.79205Z" stroke="url(#paint2_linear_563_424)" stroke-width="1.8" stroke-linejoin="round"/>
<defs>
<linearGradient id="paint0_linear_563_424" x1="12.9007" y1="8.19765" x2="0.50211" y2="8.19765" gradientUnits="userSpaceOnUse">
<stop stop-color="#FD3A84"/>
<stop offset="1" stop-color="#FFA68D"/>
</linearGradient>
<linearGradient id="paint1_linear_563_424" x1="12.9007" y1="8.19765" x2="0.50211" y2="8.19765" gradientUnits="userSpaceOnUse">
<stop stop-color="#FD3A84"/>
<stop offset="1" stop-color="#FFA68D"/>
</linearGradient>
<linearGradient id="paint2_linear_563_424" x1="15.0012" y1="5.66875" x2="6.95479" y2="5.66875" gradientUnits="userSpaceOnUse">
<stop stop-color="#FD3A84"/>
<stop offset="1" stop-color="#FFA68D"/>
</linearGradient>
</defs>
</svg>
