<svg width="24" height="24" viewBox="0 0 24 24" fill="none" xmlns="http://www.w3.org/2000/svg">
<g clip-path="url(#clip0_1005_489)">
<g filter="url(#filter0_d_1005_489)">
<path d="M12 22C17.523 22 22 17.523 22 12C22 6.477 17.523 2 12 2C6.477 2 2 6.477 2 12C2 13.6 2.376 15.112 3.043 16.453C3.221 16.809 3.28 17.216 3.177 17.601L2.582 19.827C2.52329 20.0472 2.52351 20.279 2.58264 20.4991C2.64177 20.7193 2.75773 20.9199 2.91889 21.0811C3.08005 21.2423 3.28075 21.3582 3.50086 21.4174C3.72098 21.4764 3.95277 21.4767 4.173 21.418L6.399 20.823C6.7854 20.7257 7.19402 20.7731 7.548 20.956C8.93091 21.6446 10.4551 22.002 12 22Z" stroke="url(#paint0_linear_1005_489)" stroke-width="2.6" shape-rendering="crispEdges"/>
</g>
<path fill-rule="evenodd" clip-rule="evenodd" d="M7.43391 10.6541C8.44301 10.6541 9.26099 9.83616 9.26099 8.82707C9.26099 7.81798 8.44301 7 7.43391 7C6.42485 7 5.60684 7.81798 5.60684 8.82707C5.60684 9.83616 6.42485 10.6541 7.43391 10.6541ZM18.999 14.275V14.2717L18.9993 14.2686L18.999 14.275ZM18.9993 14.2686L19 14.2453C19 14.2506 18.9999 14.2559 18.9996 14.2613L18.9993 14.2686ZM18.8545 14.6784C18.8126 14.7659 18.7719 14.8514 18.7481 14.9271L18.7352 14.9463C17.9475 16.0196 16.9326 16.8788 15.7735 17.4535C14.6144 18.0281 13.344 18.302 12.0665 18.2525H12.0105L11.8327 18.2547C10.5897 18.2551 9.36201 17.9635 8.23681 17.4005C7.1117 16.8375 6.11678 16.0171 5.32298 14.9975L5.32098 14.9964C5.22735 14.9154 5.15069 14.8144 5.09595 14.6998C5.0412 14.5854 5.00958 14.4598 5.00314 14.3315V14.3337C4.9952 14.257 5.00235 14.1795 5.02413 14.1059C5.04592 14.0324 5.08185 13.9646 5.12964 13.9067C5.17743 13.8489 5.23602 13.8023 5.30167 13.7699C5.36731 13.7376 5.43857 13.7202 5.51088 13.7189H5.51388C5.62882 13.7341 5.73803 13.7812 5.83072 13.8553L5.81286 13.84C7.57039 15.3385 9.75109 16.1605 12.0016 16.1727H11.9926L12.1665 16.1748C14.3602 16.1793 16.4856 15.3621 18.1714 13.8659C18.259 13.7806 18.3727 13.7322 18.4913 13.7296H18.4983C18.5641 13.7294 18.6293 13.7431 18.69 13.7698C18.7509 13.7966 18.8061 13.836 18.8526 13.8856C18.8991 13.9352 18.9361 13.994 18.9612 14.0589C18.9863 14.1238 18.9992 14.1932 18.999 14.2633V14.2717C18.99 14.395 18.9208 14.5398 18.8545 14.6784ZM16.5693 10.6541C17.5784 10.6541 18.3963 9.83616 18.3963 8.82707C18.3963 7.81798 17.5784 7 16.5693 7C15.5602 7 14.7422 7.81798 14.7422 8.82707C14.7422 9.83616 15.5602 10.6541 16.5693 10.6541Z" fill="url(#paint1_linear_1005_489)"/>
</g>
<defs>
<filter id="filter0_d_1005_489" x="-3.2998" y="0.700195" width="30.5996" height="30.5996" filterUnits="userSpaceOnUse" color-interpolation-filters="sRGB">
<feFlood flood-opacity="0" result="BackgroundImageFix"/>
<feColorMatrix in="SourceAlpha" type="matrix" values="0 0 0 0 0 0 0 0 0 0 0 0 0 0 0 0 0 0 127 0" result="hardAlpha"/>
<feOffset dy="4"/>
<feGaussianBlur stdDeviation="2"/>
<feComposite in2="hardAlpha" operator="out"/>
<feColorMatrix type="matrix" values="0 0 0 0 0 0 0 0 0 0 0 0 0 0 0 0 0 0 0.25 0"/>
<feBlend mode="normal" in2="BackgroundImageFix" result="effect1_dropShadow_1005_489"/>
<feBlend mode="normal" in="SourceGraphic" in2="effect1_dropShadow_1005_489" result="shape"/>
</filter>
<linearGradient id="paint0_linear_1005_489" x1="12" y1="22" x2="12" y2="2" gradientUnits="userSpaceOnUse">
<stop stop-color="#00B59C"/>
<stop offset="1" stop-color="#9CFFAC"/>
</linearGradient>
<linearGradient id="paint1_linear_1005_489" x1="12" y1="18.2582" x2="12" y2="7" gradientUnits="userSpaceOnUse">
<stop stop-color="#02AA93"/>
<stop offset="1" stop-color="#67FF80"/>
</linearGradient>
<clipPath id="clip0_1005_489">
<rect width="24" height="24" fill="white"/>
</clipPath>
</defs>
</svg>
