<svg width="16" height="16" viewBox="0 0 16 16" fill="none" xmlns="http://www.w3.org/2000/svg">
<path fill-rule="evenodd" clip-rule="evenodd" d="M3.71429 5.32143H7.73429C7.94741 5.32143 8.1518 5.23677 8.3025 5.08607C8.4532 4.93537 8.53786 4.73098 8.53786 4.51786C8.53786 4.30474 8.4532 4.10034 8.3025 3.94965C8.1518 3.79895 7.94741 3.71429 7.73429 3.71429H5.52143C5.41097 3.71429 5.32014 3.6244 5.33385 3.51479C5.37796 3.1621 5.53816 2.83185 5.79215 2.57786C6.09355 2.27647 6.50233 2.10714 6.92857 2.10714H9.07143C9.49767 2.10714 9.90645 2.27647 10.2079 2.57786C10.5092 2.87926 10.6786 3.28804 10.6786 3.71429V5.85714C10.6786 6.59643 10.0786 7.19643 9.33929 7.19643H6.66071C5.87927 7.19643 5.12984 7.50685 4.57727 8.05942C4.02471 8.61198 3.71429 9.36142 3.71429 10.1429V10.4786C3.71429 10.589 3.6244 10.6799 3.51479 10.6661C3.1621 10.622 2.83185 10.4618 2.57786 10.2079C2.27647 9.90645 2.10714 9.49767 2.10714 9.07143V6.92857C2.10714 6.50233 2.27647 6.09355 2.57786 5.79215C2.87926 5.49075 3.28804 5.32143 3.71429 5.32143ZM5.32143 10.6786V12.2857C5.32143 12.712 5.49075 13.1207 5.79215 13.4221C6.09355 13.7235 6.50233 13.8929 6.92857 13.8929H9.07143C9.49767 13.8929 9.90645 13.7235 10.2079 13.4221C10.4618 13.1681 10.622 12.8379 10.6661 12.4852C10.6799 12.3756 10.589 12.2857 10.4786 12.2857H8.26786C8.05474 12.2857 7.85034 12.2011 7.69965 12.0504C7.54895 11.8997 7.46429 11.6953 7.46429 11.4821C7.46429 11.269 7.54895 11.0646 7.69965 10.9139C7.85034 10.7632 8.05474 10.6786 8.26786 10.6786H12.2857C12.712 10.6786 13.1207 10.5092 13.4221 10.2079C13.7235 9.90645 13.8929 9.49767 13.8929 9.07143V6.92857C13.8929 6.50233 13.7235 6.09355 13.4221 5.79215C13.1681 5.53816 12.8379 5.37796 12.4852 5.33385C12.3756 5.32014 12.2857 5.41097 12.2857 5.52143V5.85714C12.2857 6.63858 11.9753 7.38802 11.4227 7.94058C10.8702 8.49314 10.1207 8.80357 9.33929 8.80357H6.66071C5.92143 8.80357 5.32143 9.40357 5.32143 10.1429V10.6786ZM6.92857 0.5C6.07609 0.5 5.25852 0.838647 4.65573 1.44144C4.10022 1.99695 3.76904 2.73485 3.7205 3.51439C3.71364 3.62463 3.62463 3.71364 3.51439 3.7205C2.73485 3.76904 1.99695 4.10022 1.44144 4.65573C0.838647 5.25852 0.5 6.07609 0.5 6.92857V9.07143C0.5 9.92391 0.838647 10.7415 1.44144 11.3443C1.99695 11.8998 2.73485 12.231 3.51439 12.2795C3.62463 12.2864 3.71364 12.3754 3.7205 12.4856C3.76904 13.2651 4.10022 14.0031 4.65573 14.5586C5.25852 15.1614 6.07609 15.5 6.92857 15.5H9.07143C9.92391 15.5 10.7415 15.1614 11.3443 14.5586C11.8998 14.0031 12.231 13.2651 12.2795 12.4856C12.2864 12.3754 12.3754 12.2864 12.4856 12.2795C13.2651 12.231 14.0031 11.8998 14.5586 11.3443C15.1614 10.7415 15.5 9.92391 15.5 9.07143V6.92857C15.5 6.07609 15.1614 5.25852 14.5586 4.65573C14.0031 4.10022 13.2651 3.76904 12.4856 3.7205C12.3754 3.71364 12.2864 3.62463 12.2795 3.51439C12.231 2.73485 11.8998 1.99695 11.3443 1.44144C10.7415 0.838647 9.92391 0.5 9.07143 0.5H6.92857Z" fill="url(#paint0_linear_670_263)" stroke="url(#paint1_linear_670_263)" stroke-width="0.4"/>
<defs>
<linearGradient id="paint0_linear_670_263" x1="8" y1="15.5" x2="8" y2="0.5" gradientUnits="userSpaceOnUse">
<stop stop-color="#FFA800"/>
<stop offset="1" stop-color="#FFF737"/>
</linearGradient>
<linearGradient id="paint1_linear_670_263" x1="8" y1="15.5" x2="8" y2="0.5" gradientUnits="userSpaceOnUse">
<stop stop-color="#FFA800"/>
<stop offset="1" stop-color="#FFF737"/>
</linearGradient>
</defs>
</svg>
