<svg width="128" height="128" viewBox="0 0 128 128" fill="none" xmlns="http://www.w3.org/2000/svg">
<path d="M64 115C92.1665 115 115 92.1665 115 64C115 35.8335 92.1665 13 64 13C35.8335 13 13 35.8335 13 64C13 92.1665 35.8335 115 64 115Z" stroke="url(#paint0_linear_730_2)" stroke-width="12"/>
<path d="M80.3813 83.1191L80.3872 83.1217C82.6143 84.0976 85.0598 84.5822 87.7172 84.5822C93.0385 84.5822 97.2376 82.7222 100.253 78.978C103.282 75.2228 104.765 70.0033 104.765 63.3806C104.765 56.7602 103.296 51.5755 100.289 47.8917C97.2961 44.1703 93.0836 42.3249 87.7172 42.3249C82.4558 42.3249 78.3449 44.09 75.4477 47.6454C75.5874 45.4761 75.6571 43.0826 75.6571 40.4655V26.6944V26.2222H75.1849H69.1373H68.665V26.6944V83.3814V83.8536H69.1373H73.4727H73.8421L73.9311 83.4951L75.0755 78.8841C76.5289 80.7576 78.2981 82.1721 80.3813 83.1191ZM78.2909 51.72L78.2923 51.7182C79.9938 49.4949 82.8019 48.3331 86.8429 48.3331C90.5408 48.3331 93.1975 49.5621 94.9107 51.9606C96.6484 54.3934 97.555 58.1499 97.555 63.3078C97.555 68.3373 96.6509 72.1279 94.9033 74.7384C93.1831 77.2838 90.5734 78.5738 86.9886 78.5738C82.9505 78.5738 80.1151 77.4015 78.3637 75.1505C76.592 72.8489 75.6571 68.9619 75.6571 63.3806C75.6571 57.7949 76.5692 53.9468 78.2909 51.72Z" fill="url(#paint1_linear_730_2)" stroke="url(#paint2_linear_730_2)"/>
<path d="M49.4687 75.497C47.756 77.5028 44.9994 78.5607 41.0849 78.5739H41.0115C37.4989 78.5739 34.8965 77.3191 33.1276 74.8394C31.3608 72.3044 30.445 68.579 30.445 63.5993C30.445 58.6214 31.3723 54.8432 33.1678 52.208C34.9683 49.5763 37.5379 48.2603 40.9386 48.2603C44.9482 48.2603 47.7857 49.4544 49.5634 51.7563C51.36 54.0828 52.3065 57.9708 52.3065 63.5263V64.8688C52.1852 69.9592 51.2057 73.4629 49.4687 75.497ZM54.0539 42.9806H53.6512L53.5876 43.3782L52.8323 48.0987C49.8197 44.1981 45.6058 42.252 40.2465 42.252C34.9228 42.252 30.7233 44.138 27.7088 47.9315C24.7059 51.71 23.2344 56.9279 23.2344 63.5263C23.2344 70.0761 24.6936 75.2461 27.673 78.9766C30.6637 82.721 34.8264 84.5822 40.1006 84.5822C45.5035 84.5822 49.6825 82.7354 52.5686 79.0139C52.3932 80.5189 52.3065 82.2548 52.3065 84.2194V101.306V101.778H52.7788H58.8263H59.2986V101.306V43.4528V42.9806H58.8263H54.0539Z" fill="url(#paint3_linear_730_2)"/>
<path d="M49.8279 75.8036L49.4687 75.497M49.4687 75.497C47.756 77.5028 44.9994 78.5607 41.0849 78.5739H41.0115C37.4989 78.5739 34.8965 77.3191 33.1276 74.8394C31.3608 72.3044 30.445 68.579 30.445 63.5993C30.445 58.6214 31.3723 54.8432 33.1678 52.208C34.9683 49.5763 37.5379 48.2603 40.9386 48.2603C44.9482 48.2603 47.7857 49.4544 49.5634 51.7563C51.36 54.0828 52.3065 57.9708 52.3065 63.5263V64.8688C52.1852 69.9592 51.2057 73.4629 49.4687 75.497ZM54.0539 42.9806H53.6512L53.5876 43.3782L52.8323 48.0987C49.8197 44.1981 45.6058 42.252 40.2465 42.252C34.9228 42.252 30.7233 44.138 27.7088 47.9315C24.7059 51.71 23.2344 56.9279 23.2344 63.5263C23.2344 70.0761 24.6936 75.2461 27.673 78.9766C30.6637 82.721 34.8264 84.5822 40.1006 84.5822C45.5035 84.5822 49.6825 82.7354 52.5686 79.0139C52.3932 80.5189 52.3065 82.2548 52.3065 84.2194V101.306V101.778H52.7788H58.8263H59.2986V101.306V43.4528V42.9806H58.8263H54.0539Z" stroke="url(#paint4_linear_730_2)"/>
<defs>
<linearGradient id="paint0_linear_730_2" x1="40.7282" y1="53.4168" x2="110.698" y2="44.0805" gradientUnits="userSpaceOnUse">
<stop stop-color="#0357D1"/>
<stop offset="1" stop-color="#27CDFC"/>
</linearGradient>
<linearGradient id="paint1_linear_730_2" x1="86.7151" y1="26.2222" x2="86.7151" y2="84.5822" gradientUnits="userSpaceOnUse">
<stop stop-color="#189CFC"/>
<stop offset="1" stop-color="#1E78FF"/>
</linearGradient>
<linearGradient id="paint2_linear_730_2" x1="86.7151" y1="26.2222" x2="86.7151" y2="84.5822" gradientUnits="userSpaceOnUse">
<stop stop-color="#189CFC"/>
<stop offset="1" stop-color="#1E78FF"/>
</linearGradient>
<linearGradient id="paint3_linear_730_2" x1="33.0382" y1="65.8386" x2="58.0546" y2="63.8163" gradientUnits="userSpaceOnUse">
<stop stop-color="#0357D1"/>
<stop offset="1" stop-color="#27CDFC"/>
</linearGradient>
<linearGradient id="paint4_linear_730_2" x1="33.0382" y1="65.8386" x2="58.0546" y2="63.8163" gradientUnits="userSpaceOnUse">
<stop stop-color="#0357D1"/>
<stop offset="1" stop-color="#27CDFC"/>
</linearGradient>
</defs>
</svg>
