<svg width="128" height="128" viewBox="0 0 128 128" fill="none" xmlns="http://www.w3.org/2000/svg">
<path d="M64 118C93.8234 118 118 93.8234 118 64C118 34.1766 93.8234 10 64 10C34.1766 10 10 34.1766 10 64C10 93.8234 34.1766 118 64 118Z" stroke="url(#paint0_linear_1012_827)" stroke-width="12"/>
<path fill-rule="evenodd" clip-rule="evenodd" d="M80.5152 86.2466L80.509 86.2438C79.5476 85.8068 78.6493 85.2757 77.8144 84.6513C76.4766 83.6508 74.3 84.1412 73.8976 85.7625L73.6793 86.6419V86.6419C73.624 86.8649 73.4238 87.0215 73.194 87.0215V87.0215H68.6035V87.0215C68.3274 87.0215 68.1035 86.7976 68.1035 86.5215V86.5215V26.5V26.5C68.1035 26.2239 68.3274 26 68.6035 26V26H75.0069V26C75.2831 26 75.5069 26.2239 75.5069 26.5V26.5V41.0812C75.5069 41.54 75.5049 41.9923 75.5008 42.4382C75.4832 44.3846 78.3731 45.6609 80.1154 44.7928C82.4504 43.6293 85.1746 43.0499 88.2764 43.0499C93.9585 43.0499 98.4187 45.0039 101.587 48.9442C104.771 52.8447 106.327 58.3344 106.327 65.3442C106.327 72.3565 104.757 77.883 101.549 81.8591C98.3568 85.8236 93.9107 87.793 88.2764 87.793C85.4627 87.793 82.8733 87.2799 80.5152 86.2466ZM78.2971 52.9958L78.2956 52.9977C76.4726 55.3555 75.5069 59.43 75.5069 65.3442C75.5069 71.2538 76.4967 75.3695 78.3727 77.8065C80.2271 80.1899 83.2293 81.4311 87.5049 81.4311C91.3006 81.4311 94.0638 80.0653 95.8852 77.3701C97.7356 74.6061 98.6929 70.5925 98.6929 65.2671C98.6929 59.8058 97.7329 55.8284 95.893 53.2525C94.079 50.7129 91.2661 49.4116 87.3507 49.4116C83.0719 49.4116 80.0987 50.6417 78.2971 52.9958ZM39.9006 78.4312C44.0453 78.4173 46.9641 77.2971 48.7775 75.1733C50.6167 73.0196 51.6538 69.3098 51.7823 63.9199V62.4985C51.7823 56.6162 50.7801 52.4995 48.8778 50.0361C46.9955 47.5988 43.9911 46.3345 39.7456 46.3345C36.1449 46.3345 33.4242 47.7279 31.5177 50.5144C29.6166 53.3046 28.6348 57.305 28.6348 62.5758C28.6348 67.8484 29.6045 71.7929 31.4752 74.4771C33.3481 77.1026 36.1036 78.4312 39.8228 78.4312H39.9006ZM53.1387 41.1652C53.1775 40.9226 53.3868 40.7442 53.6324 40.7442V40.7442H58.6856V40.7442C58.9617 40.7442 59.1856 40.968 59.1856 41.2442V41.2442V102.5V102.5C59.1856 102.776 58.9617 103 58.6856 103V103H52.2823V103C52.0062 103 51.7823 102.776 51.7823 102.5V102.5V84.4088V84.4088C51.7823 82.8505 49.3003 81.7518 47.9601 82.5469C45.4323 84.0466 42.3927 84.793 38.8584 84.793C33.2739 84.793 28.8663 82.8223 25.6997 78.8576C22.5451 74.9077 21 69.4336 21 62.4985C21 55.5119 22.5581 49.9871 25.7376 45.9863C28.9295 41.9697 33.376 39.9727 39.0128 39.9727C42.9444 39.9727 46.2938 40.9618 49.0414 42.9431C50.4626 43.9679 52.7929 43.3266 53.0697 41.5964L53.1387 41.1652V41.1652Z" fill="url(#paint1_linear_1012_827)"/>
<path d="M80.509 86.2438L80.0952 87.1542L80.0972 87.155L80.509 86.2438ZM80.5152 86.2466L80.1033 87.1579L80.1139 87.1625L80.5152 86.2466ZM101.587 48.9442L100.808 49.5708L100.812 49.5766L101.587 48.9442ZM101.549 81.8591L100.771 81.2312L100.77 81.2319L101.549 81.8591ZM78.2956 52.9977L77.5098 52.3792L77.5045 52.386L78.2956 52.9977ZM78.2971 52.9958L79.083 53.6144L79.0912 53.6035L78.2971 52.9958ZM78.3727 77.8065L77.5803 78.4165L77.5835 78.4206L78.3727 77.8065ZM95.8852 77.3701L96.7138 77.93L96.7162 77.9264L95.8852 77.3701ZM95.893 53.2525L96.7068 52.6713L96.7067 52.6713L95.893 53.2525ZM48.7775 75.1733L48.0171 74.5239L48.017 74.5239L48.7775 75.1733ZM39.9006 78.4312L39.9006 79.4312L39.904 79.4312L39.9006 78.4312ZM51.7823 63.9199L52.782 63.9437L52.7823 63.9318V63.9199H51.7823ZM48.8778 50.0361L49.6693 49.4249L49.6693 49.4248L48.8778 50.0361ZM31.5177 50.5144L30.6924 49.9497L30.6913 49.9513L31.5177 50.5144ZM31.4752 74.4771L30.6547 75.0489L30.6611 75.0578L31.4752 74.4771ZM25.6997 78.8576L24.9183 79.4816L24.9183 79.4816L25.6997 78.8576ZM25.7376 45.9863L26.5205 46.6084L26.5205 46.6084L25.7376 45.9863ZM73.6793 86.6419L72.7088 86.401L72.7088 86.401L73.6793 86.6419ZM47.9601 82.5469L47.4499 81.6869L47.9601 82.5469ZM75.5008 42.4382L76.5008 42.4473L75.5008 42.4382ZM80.1154 44.7928L79.6694 43.8977L80.1154 44.7928ZM77.8144 84.6513L78.4133 83.8504L77.8144 84.6513ZM73.8976 85.7625L72.927 85.5216L73.8976 85.7625ZM49.0414 42.9431L49.6263 42.132L49.0414 42.9431ZM53.0697 41.5964L52.0823 41.4384L53.0697 41.5964ZM80.0972 87.155L80.1034 87.1578L80.9271 85.3353L80.9209 85.3325L80.0972 87.155ZM77.2155 85.4521C78.1086 86.12 79.069 86.6877 80.0952 87.1542L80.9228 85.3334C80.0262 84.9258 79.19 84.4313 78.4133 83.8504L77.2155 85.4521ZM74.6499 86.8828L74.8681 86.0034L72.927 85.5216L72.7088 86.401L74.6499 86.8828ZM68.6035 88.0215H73.194V86.0215H68.6035V88.0215ZM67.1035 26.5V86.5215H69.1035V26.5H67.1035ZM75.0069 25H68.6035V27H75.0069V25ZM76.5069 41.0812V26.5H74.5069V41.0812H76.5069ZM76.5008 42.4473C76.5049 41.9983 76.5069 41.543 76.5069 41.0812H74.5069C74.5069 41.5371 74.5049 41.9864 74.5009 42.4291L76.5008 42.4473ZM88.2764 42.0499C85.0497 42.0499 82.1674 42.653 79.6694 43.8977L80.5613 45.6878C82.7333 44.6056 85.2994 44.0499 88.2764 44.0499V42.0499ZM102.366 48.3176C98.9805 44.1067 94.2143 42.0499 88.2764 42.0499V44.0499C93.7028 44.0499 97.8569 45.9011 100.808 49.5708L102.366 48.3176ZM107.327 65.3442C107.327 58.1997 105.742 52.4531 102.362 48.3118L100.812 49.5766C103.8 53.2363 105.327 58.4691 105.327 65.3442H107.327ZM102.327 82.487C105.727 78.2736 107.327 72.4946 107.327 65.3442H105.327C105.327 72.2184 103.787 77.4924 100.771 81.2312L102.327 82.487ZM88.2764 88.793C94.1725 88.793 98.9217 86.7166 102.328 82.4863L100.77 81.2319C97.792 84.9306 93.6489 86.793 88.2764 86.793V88.793ZM80.1139 87.1625C82.6108 88.2567 85.3386 88.793 88.2764 88.793V86.793C85.5868 86.793 83.1358 86.3031 80.9166 85.3307L80.1139 87.1625ZM79.0814 53.6162L79.0829 53.6143L77.5113 52.3773L77.5098 52.3792L79.0814 53.6162ZM76.5069 65.3442C76.5069 59.4823 77.4752 55.6937 79.0867 53.6094L77.5045 52.386C75.4701 55.0173 74.5069 59.3777 74.5069 65.3442H76.5069ZM79.1651 77.1965C77.4966 75.029 76.5069 71.1935 76.5069 65.3442H74.5069C74.5069 71.3141 75.4968 75.71 77.5803 78.4165L79.1651 77.1965ZM87.5049 80.4311C83.4208 80.4311 80.7651 79.2528 79.162 77.1924L77.5835 78.4206C79.6892 81.127 83.0378 82.4311 87.5049 82.4311V80.4311ZM95.0567 76.8102C93.4499 79.1878 91.0232 80.4311 87.5049 80.4311V82.4311C91.5781 82.4311 94.6777 80.9428 96.7138 77.93L95.0567 76.8102ZM97.6929 65.2671C97.6929 70.4954 96.7492 74.282 95.0542 76.8138L96.7162 77.9264C98.722 74.9302 99.6929 70.6896 99.6929 65.2671H97.6929ZM95.0793 53.8337C96.7416 56.161 97.6929 59.8897 97.6929 65.2671H99.6929C99.6929 59.7219 98.7242 55.4958 96.7068 52.6713L95.0793 53.8337ZM87.3507 50.4116C91.0218 50.4116 93.4945 51.615 95.0793 53.8337L96.7067 52.6713C94.6635 49.8108 91.5104 48.4116 87.3507 48.4116V50.4116ZM79.0912 53.6035C80.6387 51.5815 83.2582 50.4116 87.3507 50.4116V48.4116C82.8856 48.4116 79.5587 49.7019 77.503 52.3881L79.0912 53.6035ZM48.017 74.5239C46.461 76.3463 43.8751 77.4178 39.8972 77.4312L39.904 79.4312C44.2155 79.4167 47.4672 78.2479 49.538 75.8226L48.017 74.5239ZM50.7826 63.896C50.6557 69.2199 49.6272 72.6384 48.0171 74.5239L49.5379 75.8227C51.6062 73.4007 52.6519 69.3996 52.782 63.9437L50.7826 63.896ZM50.7823 62.4985V63.9199H52.7823V62.4985H50.7823ZM48.0863 50.6473C49.7817 52.8427 50.7823 56.6808 50.7823 62.4985H52.7823C52.7823 56.5515 51.7785 52.1562 49.6693 49.4249L48.0863 50.6473ZM39.7456 47.3345C43.7896 47.3345 46.451 48.5297 48.0863 50.6473L49.6693 49.4248C47.54 46.6678 44.1926 45.3345 39.7456 45.3345V47.3345ZM32.343 51.079C34.0509 48.5828 36.4528 47.3345 39.7456 47.3345V45.3345C35.837 45.3345 32.7975 46.8729 30.6924 49.9497L32.343 51.079ZM29.6348 62.5758C29.6348 57.4091 30.6005 53.6365 32.3441 51.0774L30.6913 49.9513C28.6327 52.9726 27.6348 57.2008 27.6348 62.5758H29.6348ZM32.2956 73.9053C30.5905 71.4586 29.6348 67.7497 29.6348 62.5758H27.6348C27.6348 67.947 28.6185 72.1271 30.6548 75.0488L32.2956 73.9053ZM39.8228 77.4312C36.3781 77.4312 33.9479 76.2215 32.2893 73.8963L30.6611 75.0578C32.7483 77.9836 35.8291 79.4312 39.8228 79.4312V77.4312ZM39.9006 77.4312H39.8228V79.4312H39.9006V77.4312ZM58.6856 39.7442H53.6324V41.7442H58.6856V39.7442ZM60.1856 102.5V41.2442H58.1856V102.5H60.1856ZM52.2823 104H58.6856V102H52.2823V104ZM50.7823 84.4088V102.5H52.7823V84.4088H50.7823ZM38.8584 85.793C42.5344 85.793 45.7586 85.0158 48.4703 83.4069L47.4499 81.6869C45.106 83.0774 42.2509 83.793 38.8584 83.793V85.793ZM24.9183 79.4816C28.2976 83.7126 33.0086 85.793 38.8584 85.793V83.793C33.5392 83.793 29.435 81.9319 26.4811 78.2335L24.9183 79.4816ZM20 62.4985C20 69.5711 21.575 75.2955 24.9183 79.4816L26.4811 78.2335C23.5152 74.5198 22 69.2961 22 62.4985H20ZM24.9547 45.3641C21.5883 49.6001 20 55.3737 20 62.4985H22C22 55.65 23.5279 50.374 26.5205 46.6084L24.9547 45.3641ZM39.0128 38.9727C33.1092 38.9727 28.3588 41.0804 24.9547 45.3641L26.5205 46.6084C29.5002 42.8589 33.6428 40.9727 39.0128 40.9727V38.9727ZM49.6263 42.132C46.6815 40.0085 43.1186 38.9727 39.0128 38.9727V40.9727C42.7702 40.9727 45.9061 41.9151 48.4565 43.7542L49.6263 42.132ZM52.1513 41.0072L52.0823 41.4384L54.0571 41.7544L54.1261 41.3231L52.1513 41.0072ZM72.7088 86.401C72.7641 86.1781 72.9642 86.0215 73.194 86.0215V88.0215C73.8833 88.0215 74.4839 87.5517 74.6499 86.8827L72.7088 86.401ZM52.2823 102C52.5584 102 52.7823 102.224 52.7823 102.5H50.7823C50.7823 103.328 51.4539 104 52.2823 104V102ZM58.1856 102.5C58.1856 102.224 58.4095 102 58.6856 102V104C59.514 104 60.1856 103.328 60.1856 102.5H58.1856ZM58.6856 41.7442C58.4095 41.7442 58.1856 41.5203 58.1856 41.2442H60.1856C60.1856 40.4157 59.514 39.7442 58.6856 39.7442V41.7442ZM68.6035 86.0215C68.8797 86.0215 69.1035 86.2454 69.1035 86.5215H67.1035C67.1035 87.3499 67.7751 88.0215 68.6035 88.0215V86.0215ZM52.7823 84.4088C52.7823 83.0704 51.7499 82.1368 50.7988 81.6902C49.8362 81.2381 48.5064 81.0601 47.4499 81.6869L48.4703 83.4069C48.754 83.2387 49.3352 83.2124 49.9487 83.5005C50.5737 83.794 50.7823 84.1889 50.7823 84.4088H52.7823ZM53.6324 39.7442C52.8956 39.7442 52.2676 40.2794 52.1512 41.0073L54.1262 41.323C54.0873 41.5658 53.878 41.7442 53.6324 41.7442V39.7442ZM74.5009 42.4291C74.4871 43.942 75.5892 45.0276 76.7126 45.5711C77.8443 46.1186 79.3382 46.2973 80.5613 45.6878L79.6694 43.8977C79.1504 44.1563 78.3281 44.1309 77.5837 43.7707C76.8309 43.4066 76.4969 42.8808 76.5008 42.4473L74.5009 42.4291ZM78.4133 83.8504C77.4768 83.1502 76.2781 82.9866 75.251 83.2566C74.2136 83.5292 73.2341 84.2843 72.927 85.5216L74.8681 86.0034C74.9635 85.6193 75.2735 85.3186 75.7594 85.1909C76.2557 85.0604 76.8141 85.152 77.2155 85.4521L78.4133 83.8504ZM48.4565 43.7542C49.4542 44.4736 50.727 44.5875 51.7831 44.2573C52.8486 43.9242 53.845 43.0803 54.0571 41.7544L52.0823 41.4384C52.0176 41.8427 51.7104 42.1846 51.1863 42.3484C50.6527 42.5152 50.0498 42.4374 49.6263 42.132L48.4565 43.7542ZM75.0069 27C74.7308 27 74.5069 26.7761 74.5069 26.5H76.5069C76.5069 25.6716 75.8353 25 75.0069 25V27ZM69.1035 26.5C69.1035 26.7761 68.8797 27 68.6035 27V25C67.7751 25 67.1035 25.6716 67.1035 26.5H69.1035Z" fill="url(#paint2_linear_1012_827)"/>
<path d="M49.1578 75.498L48.7775 75.1733M48.7775 75.1733C46.9641 77.2971 44.0453 78.4173 39.9006 78.4312H39.8228C36.1036 78.4312 33.3481 77.1026 31.4752 74.4771C29.6045 71.7929 28.6348 67.8484 28.6348 62.5758C28.6348 57.305 29.6166 53.3046 31.5177 50.5144C33.4242 47.7279 36.1449 46.3345 39.7456 46.3345C43.9911 46.3345 46.9955 47.5988 48.8778 50.0361C50.7801 52.4995 51.7823 56.6162 51.7823 62.4985V63.9199C51.6538 69.3098 50.6167 73.0196 48.7775 75.1733ZM53.6324 40.7442H53.206L53.1387 41.1652L52.339 46.1634C49.1492 42.0333 44.6874 39.9727 39.0128 39.9727C33.376 39.9727 28.9295 41.9697 25.7376 45.9863C22.5581 49.9871 21 55.5119 21 62.4985C21 69.4336 22.5451 74.9077 25.6997 78.8576C28.8663 82.8223 33.2739 84.793 38.8584 84.793C44.5791 84.793 49.0039 82.8375 52.0598 78.8971C51.8741 80.4906 51.7823 82.3287 51.7823 84.4088V102.5V103H52.2823H58.6856H59.1856V102.5V41.2442V40.7442H58.6856H53.6324Z" stroke="url(#paint3_linear_1012_827)"/>
<defs>
<linearGradient id="paint0_linear_1012_827" x1="10" y1="118" x2="140.316" y2="61.2009" gradientUnits="userSpaceOnUse">
<stop stop-color="#0357D1"/>
<stop offset="1" stop-color="#27CDFC"/>
</linearGradient>
<linearGradient id="paint1_linear_1012_827" x1="21" y1="103" x2="72.255" y2="89.4652" gradientUnits="userSpaceOnUse">
<stop stop-color="#0357D1"/>
<stop offset="1" stop-color="#27CDFC"/>
</linearGradient>
<linearGradient id="paint2_linear_1012_827" x1="21" y1="103" x2="72.255" y2="89.4652" gradientUnits="userSpaceOnUse">
<stop stop-color="#0357D1"/>
<stop offset="1" stop-color="#27CDFC"/>
</linearGradient>
<linearGradient id="paint3_linear_1012_827" x1="21" y1="103" x2="72.255" y2="89.4652" gradientUnits="userSpaceOnUse">
<stop stop-color="#0357D1"/>
<stop offset="1" stop-color="#27CDFC"/>
</linearGradient>
</defs>
</svg>
