<svg width="128" height="128" viewBox="0 0 128 128" fill="none" xmlns="http://www.w3.org/2000/svg">
<path d="M64.3317 11C50.9829 11 38.1809 16.3028 28.7418 25.7418C19.3028 35.1809 14 47.9829 14 61.3317C14 74.6805 19.3028 87.4826 28.7418 96.9217C38.1809 106.361 50.9829 111.663 64.3317 111.663C72.3746 111.642 80.2777 109.694 87.3863 106.004C89.1605 105.083 91.3721 105.44 92.5903 107.025C94.2535 109.189 95.8409 111.406 97.3243 113.633C98.5488 115.472 101.007 116.061 102.888 114.903L108.322 111.556C110.203 110.398 110.794 107.93 109.579 106.085C107.75 103.305 105.782 100.539 103.693 97.8358C102.481 96.2673 102.55 94.0593 103.781 92.5055C110.79 83.6604 114.644 72.6838 114.663 61.3317C114.663 47.9829 109.361 35.1809 99.9217 25.7418C90.4826 16.3028 77.6806 11 64.3317 11ZM64.3317 28.9756C71.9596 28.9756 79.2751 32.3846 84.6688 38.4525C90.0626 44.5205 93.0927 52.7504 93.0927 61.3317C93.0822 66.8023 91.8394 72.1547 89.5099 76.9012C88.4677 79.0246 85.7299 79.4109 83.8232 78.011C76.894 72.9231 69.2856 69.2354 61.1373 68.7867C58.9321 68.6652 57.2797 70.6156 57.4503 72.8176L57.9419 79.1659C58.1126 81.3689 60.0615 83.0039 62.231 83.4228C65.0395 83.9651 68.1326 85.2201 71.3499 87.0972C73.8713 88.5683 73.5514 92.1202 70.7263 92.8554C68.6355 93.3996 66.4907 93.6804 64.3317 93.6879C56.7039 93.6879 49.3884 90.2789 43.9946 84.211C38.6009 78.143 35.5707 69.9131 35.5707 61.3317C35.5707 52.7504 38.6009 44.5205 43.9946 38.4525C49.3884 32.3846 56.7039 28.9756 64.3317 28.9756Z" fill="url(#paint0_linear_718_7)"/>
<defs>
<linearGradient id="paint0_linear_718_7" x1="32.2453" y1="104.486" x2="127.042" y2="25.9386" gradientUnits="userSpaceOnUse">
<stop stop-color="#FE0844"/>
<stop offset="1" stop-color="#FEB302"/>
</linearGradient>
</defs>
</svg>
