<svg width="24" height="24" viewBox="0 0 24 24" fill="none" xmlns="http://www.w3.org/2000/svg">
<path d="M12.7674 12.5187L12.7684 12.5193L20.0937 9.58914C20.7506 9.3264 21.4651 9.81015 21.4651 10.5176V12.9993C21.4651 13.7893 20.5294 14.3179 19.7396 14.3024C19.617 14.3 19.4938 14.3044 19.3707 14.3157C18.6353 14.3831 17.9434 14.6934 17.4038 15.1976C16.8643 15.7017 16.5079 16.3711 16.3909 17.1002C16.2738 17.8293 16.4028 18.5766 16.7573 19.2243C17.1119 19.872 17.672 20.3833 18.3493 20.6775C19.0265 20.9718 19.7825 21.0322 20.4979 20.8494C21.2133 20.6665 21.8476 20.2508 22.3006 19.6676C22.7536 19.0845 22.9997 18.3672 23 17.6288V7.85054C23 6.68096 23 5.70068 22.9181 4.91891C22.9067 4.8112 22.893 4.70374 22.8772 4.59659C22.7974 4.06245 22.6582 3.56515 22.3871 3.14868C22.2218 2.89273 22.0059 2.67334 21.7526 2.50403L21.7455 2.49891C21.021 2.01798 20.2075 2.05175 19.3695 2.26561C18.5591 2.47231 17.5542 2.89287 16.3222 3.40859L14.1795 4.30496C13.6014 4.54645 13.1123 4.75212 12.7286 4.96394C12.3193 5.18905 11.9683 5.4551 11.7043 5.85212C11.4403 6.24915 11.3298 6.67584 11.2796 7.1404C11.2326 7.57631 11.2326 8.10738 11.2326 8.73361V15.0448C11.2326 15.8348 10.2968 16.3634 9.50699 16.3479C9.38433 16.3455 9.26117 16.3499 9.13806 16.3612C8.40272 16.4286 7.71075 16.7389 7.17123 17.243C6.6317 17.7472 6.27532 18.4166 6.15827 19.1457C6.04121 19.8748 6.17014 20.6221 6.52473 21.2698C6.87932 21.9175 7.4394 22.4288 8.11666 22.723C8.79393 23.0173 9.54986 23.0777 10.2653 22.8949C10.9808 22.712 11.615 22.2963 12.068 21.7131C12.5211 21.13 12.7671 20.4127 12.7674 19.6743V12.5187Z" fill="url(#paint0_linear_1005_477)"/>
<path d="M7.65117 1.76744C7.65117 1.5639 7.57031 1.3687 7.42639 1.22478C7.28246 1.08086 7.08726 1 6.88372 1C6.68019 1 6.48498 1.08086 6.34106 1.22478C6.19714 1.3687 6.11628 1.5639 6.11628 1.76744V5.83565C6.11628 6.62559 5.18056 7.15423 4.39078 7.13875C4.26812 7.13634 4.14496 7.14072 4.02185 7.15201C3.28651 7.21946 2.59454 7.52972 2.05501 8.03388C1.51549 8.53805 1.15911 9.20744 1.04205 9.93652C0.925003 10.6656 1.05393 11.4129 1.40852 12.0606C1.76311 12.7083 2.32318 13.2196 3.00045 13.5139C3.67772 13.8081 4.43365 13.8686 5.14908 13.6857C5.8645 13.5029 6.49872 13.0871 6.95175 12.504C7.40478 11.9209 7.65085 11.2035 7.65117 10.4651V6.79619C7.65117 5.98078 8.63845 5.4516 9.44559 5.56749C9.61871 5.59235 9.78893 5.60465 9.95349 5.60465C10.157 5.60465 10.3522 5.5238 10.4962 5.37987C10.6401 5.23595 10.7209 5.04075 10.7209 4.83721C10.7209 4.63367 10.6401 4.43847 10.4962 4.29455C10.3522 4.15062 10.157 4.06977 9.95349 4.06977C9.39724 4.05619 8.86142 3.85742 8.43089 3.50493C7.98679 3.13963 7.65117 2.584 7.65117 1.76744Z" fill="url(#paint1_linear_1005_477)"/>
<defs>
<linearGradient id="paint0_linear_1005_477" x1="14.5581" y1="2.11621" x2="11.8788" y2="22.6488" gradientUnits="userSpaceOnUse">
<stop stop-color="#A6FF70"/>
<stop offset="0.752309" stop-color="#FF913B"/>
<stop offset="1" stop-color="#FE3E02"/>
</linearGradient>
<linearGradient id="paint1_linear_1005_477" x1="5.86045" y1="1" x2="4.11876" y2="13.5475" gradientUnits="userSpaceOnUse">
<stop stop-color="#A6FF70"/>
<stop offset="0.752309" stop-color="#FF913B"/>
<stop offset="1" stop-color="#FE3E02"/>
</linearGradient>
</defs>
</svg>
