<svg width="16" height="16" viewBox="0 0 16 16" fill="none" xmlns="http://www.w3.org/2000/svg">
<path fill-rule="evenodd" clip-rule="evenodd" d="M3.93276 0.5L12.5473 0.5C13.058 0.5 13.5478 0.702883 13.909 1.06402C14.2701 1.42515 14.473 1.91495 14.473 2.42568V10.5338C14.473 11.0445 14.2701 11.5343 13.909 11.8954C13.8322 11.9722 13.7497 12.0417 13.6624 12.1037C13.5424 12.189 13.4595 12.3215 13.4595 12.4688V13.5743C13.4595 13.6303 13.5048 13.6757 13.5608 13.6757V13.6757C14.0646 13.6757 14.473 14.0841 14.473 14.5878C14.473 15.0916 14.0646 15.5 13.5608 15.5H3.93243C3.28731 15.5 2.66861 15.2437 2.21244 14.7876C1.75627 14.3314 1.5 13.7127 1.5 13.0676C1.5 13.0592 1.50004 13.0509 1.50013 13.0425C1.50004 13.0374 1.5 13.0322 1.5 13.027V2.89189C1.5 2.88378 1.50011 2.87567 1.50032 2.86757C1.51723 2.23375 1.78095 1.63159 2.2353 1.18936C2.68957 0.7472 3.29884 0.499859 3.93276 0.5ZM3.32432 10.196C3.32432 10.4575 3.57295 10.6477 3.83424 10.6371C3.86689 10.6358 3.89963 10.6351 3.93243 10.6351H12.5473C12.5742 10.6351 12.6 10.6245 12.619 10.6054C12.638 10.5864 12.6486 10.5607 12.6486 10.5338V2.42568C12.6486 2.3988 12.638 2.37302 12.619 2.35401C12.6 2.335 12.5742 2.32432 12.5473 2.32432H3.93243C3.77392 2.32427 3.62133 2.38611 3.50774 2.49666C3.39641 2.60503 3.33086 2.7518 3.32432 2.90679V10.196ZM11.2351 13.6757C11.456 13.6757 11.6351 13.4966 11.6351 13.2757V12.8595C11.6351 12.6385 11.456 12.4595 11.2351 12.4595H3.93243C3.77115 12.4595 3.61648 12.5235 3.50244 12.6376C3.38839 12.7516 3.32432 12.9063 3.32432 13.0676C3.32432 13.2288 3.38839 13.3835 3.50244 13.4976C3.61648 13.6116 3.77115 13.6757 3.93243 13.6757H11.2351Z" fill="url(#paint0_linear_650_96)"/>
<path d="M9.052 5.97527H11.3993L8.90605 9.4952H11.5452M4.45166 6.97257L5.53207 3.73034C5.55905 3.64952 5.61075 3.57923 5.67986 3.5294C5.74897 3.47956 5.832 3.45271 5.9172 3.45264C6.09254 3.45264 6.24862 3.56412 6.30436 3.73034L7.38477 6.97257M4.84288 5.79892H6.99355" stroke="url(#paint1_linear_650_96)" stroke-width="1.2" stroke-linecap="round" stroke-linejoin="round"/>
<defs>
<linearGradient id="paint0_linear_650_96" x1="1.5" y1="8" x2="14.473" y2="8" gradientUnits="userSpaceOnUse">
<stop stop-color="#CDF97D"/>
<stop offset="1" stop-color="#A2EA99"/>
</linearGradient>
<linearGradient id="paint1_linear_650_96" x1="4.45166" y1="6.47392" x2="11.5452" y2="6.47392" gradientUnits="userSpaceOnUse">
<stop stop-color="#CDF97D"/>
<stop offset="1" stop-color="#A2EA99"/>
</linearGradient>
</defs>
</svg>
