<svg width="16" height="16" viewBox="0 0 16 16" fill="none" xmlns="http://www.w3.org/2000/svg">
<path fill-rule="evenodd" clip-rule="evenodd" d="M1.78004 1.78004C2.7814 0.77868 4.24434 0.433105 5.99977 0.433105H9.99977C11.7552 0.433105 13.2181 0.77868 14.2195 1.78004C15.2209 2.7814 15.5664 4.24434 15.5664 5.99977V9.99977C15.5664 11.7552 15.2209 13.2181 14.2195 14.2195C13.2181 15.2209 11.7552 15.5664 9.99977 15.5664H5.99977C4.24434 15.5664 2.7814 15.2209 1.78004 14.2195C0.77868 13.2181 0.433105 11.7552 0.433105 9.99977V5.99977C0.433105 4.24434 0.77868 2.7814 1.78004 1.78004ZM3.05283 3.05283C2.5542 3.55147 2.23311 4.42187 2.23311 5.99977V9.99977C2.23311 10.4535 2.25966 10.8488 2.30935 11.1935L4.56471 9.67927L4.56498 9.67909C5.41934 9.10591 6.6252 9.16041 7.41289 9.83716L7.42053 9.84372L7.42049 9.84376L7.63557 10.0328C7.81895 10.1874 8.15815 10.1866 8.33995 10.0304L8.34027 10.0302L11.1133 7.65043C11.8464 7.02067 12.9314 6.92949 13.7664 7.37688V5.99977C13.7664 4.42187 13.4453 3.55147 12.9467 3.05283C12.4481 2.5542 11.5777 2.23311 9.99977 2.23311H5.99977C4.42187 2.23311 3.55147 2.5542 3.05283 3.05283ZM13.7664 9.67991L12.9933 9.01588L12.9933 9.01586C12.8106 8.85891 12.4689 8.85891 12.2862 9.01586L12.2858 9.01613L9.51282 11.3959L9.5125 11.3961C8.65521 12.1322 7.31713 12.1321 6.45995 11.3959L6.45224 11.3892L6.45228 11.3892L6.23721 11.2002C6.07747 11.0657 5.76593 11.0411 5.56806 11.1737L5.56789 11.1738L5.5678 11.1739L3.00351 12.8955C3.01975 12.913 3.03619 12.9301 3.05283 12.9467C3.55147 13.4453 4.42187 13.7664 5.99977 13.7664H9.99977C11.5777 13.7664 12.4481 13.4453 12.9467 12.9467C13.4453 12.4481 13.7664 11.5777 13.7664 9.99977V9.67991ZM5.99977 4.89977C5.76045 4.89977 5.56644 5.09378 5.56644 5.33311C5.56644 5.57243 5.76045 5.76644 5.99977 5.76644C6.2391 5.76644 6.43311 5.57243 6.43311 5.33311C6.43311 5.09378 6.2391 4.89977 5.99977 4.89977ZM3.76644 5.33311C3.76644 4.09967 4.76634 3.09977 5.99977 3.09977C7.23321 3.09977 8.23311 4.09967 8.23311 5.33311C8.23311 6.56654 7.23321 7.56644 5.99977 7.56644C4.76634 7.56644 3.76644 6.56654 3.76644 5.33311Z" fill="url(#paint0_linear_650_111)"/>
<defs>
<linearGradient id="paint0_linear_650_111" x1="14.3999" y1="0.705525" x2="0.616248" y2="14.9914" gradientUnits="userSpaceOnUse">
<stop stop-color="#FFC700"/>
<stop offset="0.551952" stop-color="#FF49AB"/>
<stop offset="1" stop-color="#BA49FF"/>
</linearGradient>
</defs>
</svg>
