<svg width="128" height="128" viewBox="0 0 128 128" fill="none" xmlns="http://www.w3.org/2000/svg">
<path d="M90.402 11C78.8372 10.9899 55.2176 15.8345 52.6971 18.9314C51.9385 19.8634 51.9126 20.8093 52.5985 22.8157C54.139 27.3218 55.1294 34.8717 51.7508 56.8629C47.8326 82.3647 46.1802 91.1967 45.2982 92.096C44.9341 92.4674 43.0049 92.0184 41.0097 91.0954C36.0958 88.822 28.478 88.8022 24.8611 91.051C14.0823 97.7493 18.8338 111.562 33.6896 116.498V116.503C34.8177 116.878 38.0057 117.085 40.778 116.967C44.6783 116.801 46.7212 116.196 49.8037 114.28C55.6751 110.632 58.4685 104.424 61.6342 87.987C63.0047 80.8702 64.196 74.3337 64.4291 74.0959C64.6623 73.8582 66.3262 75.8731 67.9783 77.9359C78.7207 91.3486 85.5895 96.8105 93.3694 96.8105C95.7818 96.8105 97.3376 96.5388 97.3376 95.9626C97.3376 95.4412 95.433 93.3521 93.1033 91.0135C86.4553 84.0912 83.5316 73.923 77.0483 66.5244L80.2376 64.8583C101.684 51.594 114.2 31.9068 108.468 20.4496C105.101 13.7185 99.9224 11.0086 90.402 11ZM86.5718 28.6669C90.5693 28.6555 94.1661 29.0495 95.7602 29.9485C97.4765 30.9165 97.6883 31.203 96.4454 30.8851C94.9952 30.5141 94.1356 31.1413 91.9646 34.1681C88.5744 38.8948 83.127 43.9561 76.7673 48.2858C69.2292 53.4179 67.4611 54.4029 67.017 53.7081C66.4539 52.8272 69.803 32.681 70.6943 31.59C72.1381 29.8227 79.9095 28.6856 86.5718 28.6669Z" fill="url(#paint0_linear_705_60)"/>
<defs>
<linearGradient id="paint0_linear_705_60" x1="64.4284" y1="117" x2="64.4284" y2="11" gradientUnits="userSpaceOnUse">
<stop stop-color="#5570FF"/>
<stop offset="1" stop-color="#4DD3FF"/>
</linearGradient>
</defs>
</svg>
