<svg width="128" height="128" viewBox="0 0 128 128" fill="none" xmlns="http://www.w3.org/2000/svg">
<path d="M45 95C51.6276 95 57 89.6276 57 83C57 76.3724 51.6276 71 45 71C38.3724 71 33 76.3724 33 83C33 89.6276 38.3724 95 45 95Z" fill="#FFC540"/>
<path fill-rule="evenodd" clip-rule="evenodd" d="M118 101.97V26.0302C118 20.585 115.454 16.5204 112.025 13.8713C108.651 11.2643 104.402 10 100.75 10H96H67H27.25C23.5982 10 19.3494 11.2643 15.9751 13.8713C12.5464 16.5204 10 20.585 10 26.0302V101.97C10 107.415 12.5464 111.48 15.9751 114.129C19.3494 116.736 23.5982 118 27.25 118H100.75C104.402 118 108.651 116.736 112.025 114.129C115.454 111.48 118 107.415 118 101.97ZM67 24H27.25C25.0066 24 24 25.3712 24 26.2V101.8C24 102.629 25.0066 104 27.25 104H100.75C102.994 104 104 102.629 104 101.8V26.2C104 25.6555 103.649 24.9642 102.746 24.4786L99.1746 24H96V65.4104C96 67.7471 93.5287 68.8802 92.1443 67.1782L83.1309 56.0961C82.2504 55.0135 80.763 55.013 79.8818 56.0953L70.855 67.1834C69.4704 68.8843 67 67.751 67 65.4148V24Z" fill="url(#paint0_linear_731_18)"/>
<defs>
<linearGradient id="paint0_linear_731_18" x1="20.5" y1="111.5" x2="114.5" y2="15.0002" gradientUnits="userSpaceOnUse">
<stop stop-color="#F9D423"/>
<stop offset="0.515624" stop-color="#FF4E50"/>
<stop offset="0.991304" stop-color="#8A2387"/>
</linearGradient>
</defs>
</svg>
