<svg width="24" height="24" viewBox="0 0 24 24" fill="none" xmlns="http://www.w3.org/2000/svg">
<path opacity="0.45" d="M2.22784 2.53375C1 4.0696 1 6.53785 1 11.4764C1 16.415 1 18.8843 2.22784 20.4181C3.45463 21.9529 5.43049 21.9529 9.38116 21.9529H12.918C12.6206 21.2949 12.4877 20.5744 12.5308 19.8535C12.5739 19.1327 12.7917 18.4332 13.1653 17.8153C13.539 17.1973 14.0573 16.6796 14.6757 16.3066C15.294 15.9336 15.9938 15.7166 16.7147 15.6744V11.7384C16.7147 11.1132 16.963 10.5136 17.4051 10.0716C17.8471 9.6295 18.4467 9.38116 19.0719 9.38116C19.697 9.38116 20.2966 9.6295 20.7387 10.0716C21.1807 10.5136 21.4291 11.1132 21.4291 11.7384C21.4291 11.9008 21.4795 12.0593 21.5733 12.1919C21.6671 12.3246 21.7997 12.4249 21.9529 12.479V11.4764C21.9529 6.53785 21.9529 4.06855 20.725 2.53375C19.4983 1 17.5224 1 13.5717 1H9.38116C5.43049 1 3.45463 1 2.22784 2.53375Z" fill="url(#paint0_linear_12_87)"/>
<path fill-rule="evenodd" clip-rule="evenodd" d="M7.54773 11.4764C7.54773 10.4344 7.96164 9.43518 8.69841 8.69841C9.43518 7.96164 10.4344 7.54773 11.4764 7.54773C12.5183 7.54773 13.5176 7.96164 14.2544 8.69841C14.9912 9.43518 15.4051 10.4344 15.4051 11.4764C15.4051 12.5183 14.9912 13.5176 14.2544 14.2544C13.5176 14.9912 12.5183 15.4051 11.4764 15.4051C10.4344 15.4051 9.43518 14.9912 8.69841 14.2544C7.96164 13.5176 7.54773 12.5183 7.54773 11.4764ZM11.4764 9.1192C10.8512 9.1192 10.2517 9.36754 9.8096 9.8096C9.36754 10.2517 9.1192 10.8512 9.1192 11.4764C9.1192 12.1016 9.36754 12.7011 9.8096 13.1432C10.2517 13.5852 10.8512 13.8336 11.4764 13.8336C12.1016 13.8336 12.7011 13.5852 13.1432 13.1432C13.5852 12.7011 13.8336 12.1016 13.8336 11.4764C13.8336 10.8512 13.5852 10.2517 13.1432 9.8096C12.7011 9.36754 12.1016 9.1192 11.4764 9.1192ZM19.0718 10.9526C19.2802 10.9526 19.4801 11.0354 19.6274 11.1827C19.7748 11.3301 19.8576 11.5299 19.8576 11.7383C19.8576 12.3635 20.1059 12.963 20.548 13.4051C20.99 13.8472 21.5896 14.0955 22.2148 14.0955C22.4231 14.0955 22.623 14.1783 22.7704 14.3256C22.9177 14.473 23.0005 14.6729 23.0005 14.8812C23.0005 15.0896 22.9177 15.2895 22.7704 15.4368C22.623 15.5842 22.4231 15.667 22.2148 15.667C21.3645 15.6682 20.537 15.3924 19.8576 14.8812V20.1195C19.8574 20.7473 19.6522 21.3579 19.2732 21.8583C18.8942 22.3588 18.362 22.7218 17.7577 22.892C17.1534 23.0623 16.5101 23.0304 15.9255 22.8014C15.341 22.5724 14.8473 22.1587 14.5194 21.6233C14.1916 21.0878 14.0477 20.46 14.1095 19.8352C14.1713 19.2105 14.4355 18.623 14.8619 18.1622C15.2883 17.7014 15.8536 17.3925 16.4717 17.2825C17.0898 17.1725 17.7269 17.2674 18.2861 17.5527V11.7383C18.2861 11.5299 18.3689 11.3301 18.5162 11.1827C18.6636 11.0354 18.8634 10.9526 19.0718 10.9526ZM18.2861 20.1195C18.2861 19.7721 18.1481 19.4391 17.9025 19.1935C17.6569 18.9479 17.3238 18.8099 16.9765 18.8099C16.6292 18.8099 16.2961 18.9479 16.0505 19.1935C15.8049 19.4391 15.667 19.7721 15.667 20.1195C15.667 20.4668 15.8049 20.7999 16.0505 21.0455C16.2961 21.2911 16.6292 21.429 16.9765 21.429C17.3238 21.429 17.6569 21.2911 17.9025 21.0455C18.1481 20.7999 18.2861 20.4668 18.2861 20.1195Z" fill="url(#paint1_linear_12_87)"/>
<defs>
<linearGradient id="paint0_linear_12_87" x1="11.4764" y1="1" x2="11.4764" y2="21.9529" gradientUnits="userSpaceOnUse">
<stop stop-color="#DC18FC"/>
<stop offset="1" stop-color="#8E1EFF"/>
</linearGradient>
<linearGradient id="paint1_linear_12_87" x1="15.2741" y1="7.54773" x2="15.2741" y2="23" gradientUnits="userSpaceOnUse">
<stop stop-color="#DC18FC"/>
<stop offset="1" stop-color="#8E1EFF"/>
</linearGradient>
</defs>
</svg>
