<svg width="16" height="16" viewBox="0 0 16 16" fill="none" xmlns="http://www.w3.org/2000/svg">
<path fill-rule="evenodd" clip-rule="evenodd" d="M7.89668 0.299805H7.98977H7.98983C9.12877 0.299799 10.0474 0.299794 10.7821 0.379395C11.5414 0.461664 12.197 0.636458 12.7666 1.05031C13.1002 1.29269 13.3935 1.58607 13.6359 1.91967C14.0498 2.48929 14.2246 3.14478 14.3069 3.90412C14.3864 4.63883 14.3864 5.55753 14.3864 6.69647V9.3032C14.3864 10.4422 14.3864 11.3608 14.3069 12.0955C14.2246 12.8548 14.0498 13.5104 13.6359 14.08C13.3935 14.4136 13.1002 14.7069 12.7666 14.9493C12.197 15.3631 11.5414 15.5379 10.7821 15.6202C10.0474 15.6998 9.12874 15.6998 7.98981 15.6998H7.89658C6.75765 15.6998 5.83902 15.6998 5.10432 15.6202C4.34498 15.5379 3.68949 15.3631 3.11987 14.9493C2.78626 14.7069 2.49288 14.4136 2.2505 14.08C1.83665 13.5104 1.66186 12.8548 1.5796 12.0955C1.49999 11.3608 1.49999 10.4421 1.5 9.30312V6.69648C1.49999 5.55751 1.49999 4.63885 1.5796 3.90412C1.66186 3.14478 1.83665 2.48929 2.2505 1.91967C2.49288 1.58607 2.78626 1.29269 3.11987 1.05031C3.68949 0.636458 4.34498 0.461664 5.10432 0.379395C5.83903 0.299794 6.75769 0.299799 7.89663 0.299805H7.89668ZM7.94322 1.87526C6.74745 1.87526 5.91402 1.87635 5.27401 1.94569C4.64872 2.01344 4.30219 2.13867 4.0459 2.32488C3.84604 2.47008 3.67028 2.64584 3.52508 2.8457C3.33887 3.102 3.21363 3.44853 3.14588 4.07381C3.07654 4.71383 3.07546 5.54725 3.07546 6.74303V9.25657C3.07546 10.4523 3.07654 11.2858 3.14588 11.9258C3.21363 12.551 3.33887 12.8976 3.52508 13.1538C3.67028 13.3537 3.84604 13.5296 4.0459 13.6747C4.30219 13.861 4.64872 13.9862 5.27401 14.0539C5.91402 14.1233 6.74745 14.1244 7.94322 14.1244C9.139 14.1244 9.97242 14.1233 10.6125 14.0539C11.2378 13.9862 11.5843 13.861 11.8406 13.6747C12.0405 13.5296 12.2162 13.3537 12.3613 13.1538C12.5476 12.8976 12.6728 12.551 12.7405 11.9258C12.8099 11.2858 12.811 10.4523 12.811 9.25657V6.74303C12.811 5.54725 12.8099 4.71383 12.7405 4.07381C12.6728 3.44853 12.5476 3.102 12.3613 2.8457C12.2162 2.64584 12.0405 2.47008 11.8406 2.32488C11.5843 2.13867 11.2378 2.01344 10.6125 1.94569C9.97242 1.87635 9.139 1.87526 7.94322 1.87526ZM11.5612 6.52667C11.5612 4.54212 9.95239 2.93333 7.96785 2.93333C5.98289 2.93333 4.374 4.54212 4.37451 6.52667C4.374 8.51121 5.98289 10.12 7.96785 10.12C9.95239 10.12 11.5612 8.51121 11.5612 6.52667ZM6.42785 6.52667C6.42785 5.67659 7.11777 4.98667 7.96785 4.98667C8.81793 4.98667 9.50785 5.67659 9.50785 6.52667C9.50785 7.37675 8.81793 8.06667 7.96785 8.06667C7.11777 8.06667 6.42785 7.37675 6.42785 6.52667ZM6.42785 12.1733C6.42785 11.6064 5.96831 11.1467 5.40118 11.1467C4.83405 11.1467 4.37431 11.6064 4.37451 12.1733C4.37431 12.7403 4.83405 13.2 5.40118 13.2C5.96831 13.2 6.42785 12.7403 6.42785 12.1733ZM11.5612 12.1733C11.5612 11.6064 11.1012 11.1467 10.5345 11.1467C9.96779 11.1467 9.50785 11.6064 9.50785 12.1733C9.50785 12.7403 9.96779 13.2 10.5345 13.2C11.1012 13.2 11.5612 12.7403 11.5612 12.1733Z" fill="url(#paint0_linear_557_253)"/>
<defs>
<linearGradient id="paint0_linear_557_253" x1="7.66" y1="15.6998" x2="7.66" y2="0.299805" gradientUnits="userSpaceOnUse">
<stop offset="0.187487" stop-color="#FDA700"/>
<stop offset="0.682487" stop-color="#FFCE3C"/>
</linearGradient>
</defs>
</svg>
