<svg width="48" height="48" viewBox="0 0 48 48" fill="none" xmlns="http://www.w3.org/2000/svg">
<path d="M6.39168 10.1422L3.09168 15.8578C0.891667 19.6682 38.9968 41.6682 41.1968 37.8578L44.4968 32.1422C46.6968 28.3318 8.59168 6.3318 6.39168 10.1422Z" fill="url(#paint0_linear_1005_322)"/>
<path d="M41.1978 10.1422L44.4978 15.8578C46.6978 19.6682 8.59265 41.6682 6.39265 37.8578L3.09265 32.1422C0.892659 28.3318 38.9978 6.3318 41.1978 10.1422Z" fill="url(#paint1_linear_1005_322)"/>
<path d="M20.4943 2H27.0943C31.4943 2 31.4943 46 27.0943 46H20.4943C16.0943 46 16.0943 2 20.4943 2Z" fill="url(#paint2_linear_1005_322)"/>
<defs>
<linearGradient id="paint0_linear_1005_322" x1="36.8658" y1="33.1609" x2="22.5507" y2="9.21579" gradientUnits="userSpaceOnUse">
<stop stop-color="#248EFE"/>
<stop offset="1" stop-color="#1DF4FF"/>
</linearGradient>
<linearGradient id="paint1_linear_1005_322" x1="10.2145" y1="37.5389" x2="31.6434" y2="3.78051" gradientUnits="userSpaceOnUse">
<stop stop-color="#248EFE"/>
<stop offset="1" stop-color="#1DF4FF"/>
</linearGradient>
<linearGradient id="paint2_linear_1005_322" x1="2.2687" y1="22.0256" x2="47.9258" y2="21.7733" gradientUnits="userSpaceOnUse">
<stop stop-color="#248EFE"/>
<stop offset="1" stop-color="#1DF4FF"/>
</linearGradient>
</defs>
</svg>
