<svg width="128" height="128" viewBox="0 0 128 128" fill="none" xmlns="http://www.w3.org/2000/svg">
<path d="M98.9829 33.0619C98.755 31.2948 100.178 28.4984 99.9871 24.6914C99.7899 20.8781 97.8493 15.5644 89.8832 11.7078C89.7415 11.6395 89.5998 11.5714 89.4519 11.5032C84.2706 9.09742 76.7172 7.37372 67.9071 8.21697C61.0623 8.87425 53.9526 11.0505 47.2495 14.8886C41.2179 18.3298 35.6607 23.042 31.1509 28.8704C28.5018 32.5348 26.1914 36.6829 24.5403 41.1595C23.8256 43.094 23.2341 45.0968 22.7906 47.1429C22.2176 49.8028 21.9034 52.7108 22.0265 55.78C22.3531 60.6473 23.7947 65.9672 27.0169 70.7539C28.5386 73.0232 30.4301 75.0817 32.6172 76.7992C34.792 78.5167 37.281 79.9056 39.998 80.8171C44.3538 82.2494 48.6356 82.2494 52.1782 81.71C54.0573 81.4248 55.7823 80.9845 57.3041 80.4947C59.1831 79.8933 60.9082 79.1988 62.2698 78.6098C65.2394 77.3015 68.0241 75.7328 70.242 74.468C72.46 73.2031 74.6348 71.932 76.7233 70.9027C77.9679 70.3076 79.4465 69.6441 80.9066 69.1418C81.2948 69.0116 81.683 68.8876 82.071 68.7822C83.525 68.3791 84.9605 68.1994 86.2358 68.3296C87.3263 68.4349 88.2505 68.7946 88.8727 69.2348C89.1376 69.4022 89.3656 69.6379 89.5566 69.8858C89.7229 70.1152 89.8339 70.3322 89.8955 70.45C89.9627 70.5989 90.0002 70.9027 89.8833 71.3429C89.7724 71.7893 89.5322 72.304 89.1625 72.8186C88.7806 73.3456 88.2507 73.8913 87.536 74.4555C86.8336 75.0011 85.9958 75.5344 85.0224 76.049C82.8845 77.0845 80.759 77.7789 77.7709 78.9012C75.0601 79.918 71.8256 81.2325 68.7945 83.3158C67.2049 84.4443 65.6154 85.8518 64.2477 87.5569C62.8861 89.262 61.7032 91.3205 61.044 93.7324C60.4525 96.1444 60.4217 98.823 61.2165 101.396C61.617 102.704 62.233 103.944 63.0216 105.048C63.8225 106.164 64.8268 107.175 66.0158 107.981C68.129 109.395 70.4579 109.915 72.4725 109.971H73.1564C74.863 109.928 76.4894 109.574 77.9742 109.072C79.5268 108.595 80.9315 107.95 82.139 107.379C83.3712 106.79 84.32 106.313 85.3119 105.916C86.2176 105.513 87.0062 105.253 87.7208 105.141C88.3985 105.036 88.953 105.085 89.3535 105.197C89.5321 105.247 89.6924 105.327 89.8216 105.408C89.9449 105.488 90.0312 105.563 90.0742 105.6C90.1414 105.631 90.2036 105.68 90.2467 105.694C90.2961 105.694 90.3391 105.719 90.4008 105.707C90.4558 105.694 90.4008 105.893 90.179 106.153C89.9202 106.457 89.5444 106.761 88.9653 107.213C88.4046 107.641 87.6407 108.205 86.9445 108.9C86.1744 109.662 85.4228 110.63 84.9607 111.826C84.4987 113.035 84.4248 114.276 84.6157 115.367C84.8375 116.638 85.4229 117.68 86.1005 118.417C87.0123 119.422 88.072 119.85 88.8545 119.967C89.0454 119.993 89.2242 120.005 89.3904 119.998C90.7828 119.949 91.3434 118.876 91.5898 118.56C91.2449 118.231 90.8937 117.388 90.6164 116.669C90.5856 116.588 90.5548 116.514 90.5305 116.433C90.4197 116.117 90.3211 115.77 90.3457 115.46C90.3578 115.236 90.4129 115.001 90.5181 114.852C90.604 114.722 90.7277 114.604 90.8386 114.561C90.9494 114.511 91.1342 114.362 91.467 114.158C91.8798 113.91 92.1694 113.767 92.9025 113.37C93.4754 113.066 94.3256 112.595 95.1389 111.956C95.9521 111.318 96.8886 110.388 97.554 109.092C98.1454 107.932 98.4349 106.649 98.4349 105.384C98.4411 104.119 98.1577 102.891 97.6649 101.794C97.1473 100.69 96.4326 99.7479 95.6194 98.9729C94.7999 98.1916 93.8697 97.5716 92.8963 97.1066C90.9433 96.1826 88.8855 95.9223 87.0803 95.9905C85.2136 96.0586 83.5008 96.4803 82.09 96.9267C80.6976 97.398 79.2559 98.018 78.2332 98.4334C77.0565 98.9109 76.1508 99.2394 75.2945 99.4379C74.4873 99.5805 73.8774 99.5681 73.4339 99.4687C73.3788 99.4556 73.323 99.4435 73.2675 99.4258C72.8178 99.2831 72.5714 99.0351 72.6391 98.9111C72.6765 98.8617 72.683 98.7995 72.6942 98.694C72.7063 98.5949 72.7194 98.4832 72.7679 98.3841C72.8417 98.1732 72.9651 97.8074 73.2177 97.4664C73.4026 97.0882 73.7106 96.6604 74.2158 96.1767C74.7333 95.6807 75.411 95.1785 76.2242 94.7321C77.863 93.74 79.8161 93.0021 82.3482 92.2023C84.6894 91.4582 87.8992 90.5468 90.8503 89.3129C92.4398 88.6805 94.091 87.9054 95.6928 86.9258C97.3316 85.9275 98.952 84.6999 100.431 83.1808C101.965 81.5935 103.295 79.721 104.275 77.6252C105.279 75.4675 105.932 73.0184 105.994 70.3956C106.055 67.81 105.532 65.3671 104.657 63.2094C103.758 60.9697 102.446 58.9608 100.881 57.2805C97.5661 53.7215 93.3705 51.787 89.6 50.95C85.2319 49.9765 81.1349 50.3362 77.9867 51.0059C77.1118 51.1981 76.2862 51.4089 75.5161 51.6383C72.6082 52.5002 70.1931 53.6596 68.4988 54.5587C65.7449 55.991 63.0033 57.7333 61.1365 58.8803C58.9679 60.2134 57.0272 61.3667 55.0803 62.2533C54.2116 62.6564 53.2628 63.016 52.277 63.264C51.4884 63.4563 50.7183 63.5865 49.9605 63.6236C48.5127 63.6983 47.2928 63.4376 46.4673 62.9602C45.9868 62.6997 45.4939 62.3215 45.0441 61.8255C44.5943 61.3233 44.2124 60.7405 43.9536 60.1204C43.3622 58.744 43.1773 57.0761 43.4361 55.495C43.5033 54.5091 43.7195 53.517 44.0583 52.5312C44.3232 51.7685 44.6867 50.9935 45.1488 50.2123C46.2331 48.3769 47.8042 46.6408 49.6463 45.1465C52.5111 42.4866 55.8627 40.5645 59.2635 39.3182C63.0463 37.9293 66.669 37.4519 69.848 37.4271C73.9142 37.4023 77.5554 38.1029 80.4079 38.4378C80.4881 38.4439 80.568 38.4563 80.6482 38.4626C85.158 38.9648 88.6143 37.9046 91.6824 36.4289C94.6582 35.0028 97.3195 33.0743 98.9829 33.0619Z" fill="url(#paint0_linear_724_66)"/>
<defs>
<linearGradient id="paint0_linear_724_66" x1="60.647" y1="10.2514" x2="78.8939" y2="113.915" gradientUnits="userSpaceOnUse">
<stop stop-color="#F70FA8"/>
<stop offset="1" stop-color="#F40631"/>
</linearGradient>
</defs>
</svg>
