<svg width="64" height="64" viewBox="0 0 64 64" fill="none" xmlns="http://www.w3.org/2000/svg">
<path fill-rule="evenodd" clip-rule="evenodd" d="M21.743 4.24599C27.7377 3.8959 32.2969 3.62964 37.7526 5.58326C53.0269 11.0528 50.2516 29.8809 36.8345 33.5903C36.5716 33.663 36.2376 33.7559 36.1978 34.0258C36.1715 34.2044 36.2942 34.3741 36.4308 34.5431L49.6356 53.4166C50.0098 53.9515 50.6215 54.27 51.2743 54.27H54.7194C55.824 54.27 56.7194 55.1655 56.7194 56.27V58C56.7194 59.1046 55.824 60 54.7194 60H46.8474C46.1842 60 45.5642 59.6712 45.192 59.1223L29.4594 35.9164C29.0872 35.3674 28.4671 35.0387 27.804 35.0387H23.1275C22.0229 35.0387 21.1275 35.9341 21.1275 37.0387V52.27C21.1275 53.3746 22.0229 54.27 23.1275 54.27H26.5183C27.6229 54.27 28.5183 55.1655 28.5183 56.27V58C28.5183 59.1046 27.6229 60 26.5183 60H9C7.89543 60 7 59.1046 7 58V56.27C7 55.1655 7.89543 54.27 9 54.27H12.5069C13.6114 54.27 14.5069 53.3746 14.5069 52.27V12.7615C14.5069 11.7443 13.7427 10.894 12.7289 10.81C12.6617 10.8044 12.5941 10.7988 12.5261 10.7932C11.4784 10.7066 10.3305 10.6117 9.10447 10.4494C8.14515 10.3224 7.45266 9.4888 7.45266 8.52111V6.54684C7.45266 5.40185 8.41221 4.49256 9.55666 4.52764C14.3862 4.67564 18.3012 4.447 21.743 4.24599ZM25.3019 10.9022C28.4361 10.7209 31.5008 10.5437 34.2735 11.3321C38.8299 12.628 40.9957 15.8942 40.9948 19.2849C40.9934 23.6152 39.0997 26.9743 33.9787 28.3528C30.1242 29.3904 25.5109 29.4425 23.0038 29.3737C21.9613 29.3451 21.1594 28.4823 21.1594 27.4395L21.1592 13.0618C21.1592 11.9572 22.0549 11.0617 23.1585 11.015C23.8748 10.9847 24.5902 10.9433 25.3019 10.9022Z" fill="url(#paint0_linear_445_100)" stroke="url(#paint1_linear_445_100)" stroke-width="2"/>
<defs>
<linearGradient id="paint0_linear_445_100" x1="31.8597" y1="60" x2="31.8597" y2="4" gradientUnits="userSpaceOnUse">
<stop stop-color="#5570FF"/>
<stop offset="1" stop-color="#4DD3FF"/>
</linearGradient>
<linearGradient id="paint1_linear_445_100" x1="31.8597" y1="60" x2="31.8597" y2="4" gradientUnits="userSpaceOnUse">
<stop stop-color="#5570FF"/>
<stop offset="1" stop-color="#4DD3FF"/>
</linearGradient>
</defs>
</svg>
