<svg width="16" height="16" viewBox="0 0 16 16" fill="none" xmlns="http://www.w3.org/2000/svg">
<path d="M8 1H3.00001C1.89544 1 1.00001 1.89543 1.00001 3L1 8" stroke="url(#paint0_linear_607_74)" stroke-width="1.8" stroke-linecap="round" stroke-linejoin="round"/>
<path d="M8 1L13 1.00001C14.1046 1.00001 15 1.89544 15 3.00001V8" stroke="url(#paint1_linear_607_74)" stroke-width="1.8" stroke-linecap="round" stroke-linejoin="round"/>
<path d="M8 15H13C14.1046 15 15 14.1046 15 13V8" stroke="url(#paint2_linear_607_74)" stroke-width="1.8" stroke-linecap="round" stroke-linejoin="round"/>
<path d="M8 15H3.00001C1.89544 15 1.00001 14.1046 1.00001 13L1 8" stroke="url(#paint3_linear_607_74)" stroke-width="1.8" stroke-linecap="round" stroke-linejoin="round"/>
<path d="M4.42822 11.3542C4.42822 11.1319 4.60845 10.9517 4.83076 10.9517H7.80278C8.0251 10.9517 8.20532 11.1319 8.20532 11.3542V11.3542C8.20532 11.5765 8.0251 11.7567 7.80279 11.7567H4.83076C4.60845 11.7567 4.42822 11.5765 4.42822 11.3542V11.3542Z" fill="url(#paint4_linear_607_74)" stroke="url(#paint5_linear_607_74)" stroke-width="0.6"/>
<path fill-rule="evenodd" clip-rule="evenodd" d="M4.2 8.52098C4.08954 8.52098 4 8.43143 4 8.32097V4.7C4 4.58954 4.08954 4.5 4.2 4.5H6.12273C6.50463 4.5 6.8068 4.58775 7.0288 4.76285C7.30538 4.97902 7.44387 5.3723 7.44387 5.7374C7.44387 6.18512 7.22163 6.55154 6.77013 6.75915C6.64927 6.81473 6.59118 6.96307 6.66173 7.07585L7.38405 8.23056C7.46738 8.36377 7.37161 8.53663 7.21449 8.53663H6.74875C6.67982 8.53663 6.61575 8.50113 6.5792 8.44269L5.70109 7.03896C5.66453 6.98052 5.60046 6.94502 5.53153 6.94502H5.0595C4.94904 6.94502 4.8595 7.03457 4.8595 7.14502V8.32098C4.8595 8.43143 4.76996 8.52098 4.6595 8.52098H4.2ZM4.85992 6.06675C4.85992 6.17721 4.94947 6.26675 5.05992 6.26675H5.88855C6.12272 6.26675 6.29395 6.22487 6.4035 6.14115C6.5126 6.05743 6.56715 5.91695 6.56715 5.7197C6.56715 5.58202 6.5298 5.46892 6.45595 5.37955C6.3506 5.25677 6.18315 5.19518 5.95318 5.19518H5.05992C4.94947 5.19518 4.85992 5.28472 4.85992 5.39518V6.06675ZM12.0498 4.5C12.1602 4.5 12.2498 4.58954 12.2498 4.7V8.32098C12.2498 8.43143 12.1602 8.52098 12.0498 8.52098H11.631C11.5205 8.52098 11.431 8.43143 11.431 8.32098V6.46488C11.431 6.26379 11.1675 6.18845 11.0612 6.35913L10.3867 7.44197C10.3082 7.56798 10.1246 7.56755 10.0467 7.44117L9.37765 6.3559C9.2721 6.18467 9.00823 6.25888 9.0074 6.46004L8.99977 8.3218C8.99932 8.43193 8.90991 8.52098 8.79977 8.52098H8.38018C8.26972 8.52098 8.18018 8.43143 8.18018 8.32097V4.7C8.18018 4.58954 8.26972 4.5 8.38018 4.5H9.13806C9.20734 4.5 9.27169 4.53585 9.30814 4.59477L10.0485 5.79131C10.1266 5.91749 10.31 5.91771 10.3884 5.79171L11.1331 4.59437C11.1696 4.53568 11.2338 4.5 11.3029 4.5H12.0498Z" fill="url(#paint6_linear_607_74)"/>
<path d="M7.0288 4.76285L6.90494 4.91988L6.90564 4.92043L7.0288 4.76285ZM6.4035 6.14115L6.52495 6.30006L6.52526 6.29981L6.4035 6.14115ZM6.45595 5.37955L6.61015 5.25213L6.60773 5.24931L6.45595 5.37955ZM9.30814 4.59477L9.47821 4.48953L9.30814 4.59477ZM10.3867 7.44197L10.5564 7.54771L10.3867 7.44197ZM10.0467 7.44117L10.2169 7.33622L10.0467 7.44117ZM11.0612 6.35913L10.8915 6.25338L11.0612 6.35913ZM5.70109 7.03896L5.53153 7.14502L5.70109 7.03896ZM6.5792 8.44269L6.74875 8.33663L6.5792 8.44269ZM11.1331 4.59437L10.9632 4.48875L11.1331 4.59437ZM7.38405 8.23056L7.21449 8.33663L7.38405 8.23056ZM8.99977 8.3218L8.79977 8.32098L8.99977 8.3218ZM10.0485 5.79131L10.2186 5.68608L10.0485 5.79131ZM10.3884 5.79171L10.2186 5.68608L10.3884 5.79171ZM6.77013 6.75915L6.68658 6.57744L6.77013 6.75915ZM6.66173 7.07585L6.49217 7.18191L6.66173 7.07585ZM9.37765 6.3559L9.2074 6.46086L9.37765 6.3559ZM3.8 4.7V8.32097H4.2V4.7H3.8ZM6.12273 4.3H4.2V4.7H6.12273V4.3ZM7.15266 4.60582C6.88481 4.39456 6.53396 4.3 6.12273 4.3V4.7C6.47529 4.7 6.72879 4.78094 6.90494 4.91988L7.15266 4.60582ZM7.64387 5.7374C7.64387 5.33269 7.49203 4.87108 7.15196 4.60527L6.90564 4.92043C7.11872 5.08697 7.24387 5.41191 7.24387 5.7374H7.64387ZM6.85369 6.94086C7.37521 6.70105 7.64387 6.26427 7.64387 5.7374H7.24387C7.24387 6.10598 7.06805 6.40203 6.68658 6.57744L6.85369 6.94086ZM6.49217 7.18191L7.21449 8.33663L7.55361 8.12449L6.83129 6.96978L6.49217 7.18191ZM7.21449 8.33663H6.74875V8.73663H7.21449V8.33663ZM6.74875 8.33663L5.87064 6.93289L5.53153 7.14502L6.40964 8.54876L6.74875 8.33663ZM5.0595 7.14502H5.53153V6.74502H5.0595V7.14502ZM5.0595 8.32098V7.14502H4.6595V8.32098H5.0595ZM4.2 8.72098H4.6595V8.32098H4.2V8.72098ZM5.88855 6.06675H5.05992V6.46675H5.88855V6.06675ZM6.28205 5.98224C6.2243 6.02639 6.1064 6.06675 5.88855 6.06675V6.46675C6.13905 6.46675 6.3636 6.42336 6.52495 6.30006L6.28205 5.98224ZM6.36715 5.7197C6.36715 5.88315 6.32269 5.95106 6.28174 5.98249L6.52526 6.29981C6.70251 6.16379 6.76715 5.95075 6.76715 5.7197H6.36715ZM6.30177 5.50695C6.34105 5.55448 6.36715 5.62011 6.36715 5.7197H6.76715C6.76715 5.54394 6.71855 5.38337 6.61013 5.25215L6.30177 5.50695ZM5.95318 5.39518C6.14998 5.39518 6.25061 5.44737 6.30417 5.50979L6.60773 5.24931C6.45059 5.06618 6.21632 4.99518 5.95318 4.99518V5.39518ZM5.05992 5.39518H5.95318V4.99518H5.05992V5.39518ZM5.05992 6.06675V5.39518H4.65992V6.06675H5.05992ZM12.4498 8.32098V4.7H12.0498V8.32098H12.4498ZM11.631 8.72098H12.0498V8.32098H11.631V8.72098ZM11.231 6.46488V8.32098H11.631V6.46488H11.231ZM10.5564 7.54771L11.231 6.46488L10.8915 6.25338L10.2169 7.33622L10.5564 7.54771ZM9.2074 6.46086L9.87642 7.54612L10.2169 7.33622L9.5479 6.25095L9.2074 6.46086ZM9.19977 8.32262L9.2074 6.46086L8.80741 6.45921L8.79977 8.32098L9.19977 8.32262ZM8.38018 8.72098H8.79977V8.32098H8.38018V8.72098ZM7.98018 4.7V8.32097H8.38018V4.7H7.98018ZM9.13806 4.3H8.38018V4.7H9.13806V4.3ZM10.2186 5.68608L9.47821 4.48953L9.13806 4.7L9.87841 5.89654L10.2186 5.68608ZM10.9632 4.48875L10.2186 5.68608L10.5582 5.89733L11.3029 4.7L10.9632 4.48875ZM12.0498 4.3H11.3029V4.7H12.0498V4.3ZM9.13806 4.7L9.13806 4.7L9.47821 4.48953C9.40531 4.37171 9.27662 4.3 9.13806 4.3V4.7ZM8.38018 4.7L8.38018 4.7V4.3C8.15926 4.3 7.98018 4.47909 7.98018 4.7H8.38018ZM8.38018 8.32098L8.38018 8.32097H7.98018C7.98018 8.54189 8.15926 8.72098 8.38018 8.72098V8.32098ZM10.2169 7.33622L10.2169 7.33622L9.87642 7.54612C10.0322 7.79888 10.3994 7.79975 10.5564 7.54771L10.2169 7.33622ZM11.631 6.46488C11.631 6.0627 11.1041 5.91202 10.8915 6.25338L11.231 6.46488L11.231 6.46488H11.631ZM11.631 8.32098L11.631 8.32098H11.231C11.231 8.54189 11.4101 8.72098 11.631 8.72098V8.32098ZM12.4498 4.7C12.4498 4.47909 12.2707 4.3 12.0498 4.3V4.7L12.0498 4.7H12.4498ZM4.6595 8.32098L4.6595 8.32098V8.72098C4.88041 8.72098 5.0595 8.54189 5.0595 8.32098H4.6595ZM5.0595 6.74502C4.83859 6.74502 4.6595 6.92411 4.6595 7.14502H5.0595L5.0595 7.14502V6.74502ZM5.87064 6.93289C5.79753 6.81601 5.66939 6.74502 5.53153 6.74502V7.14502L5.53153 7.14502L5.87064 6.93289ZM12.0498 8.32098L12.0498 8.32098V8.72098C12.2707 8.72098 12.4498 8.54189 12.4498 8.32098H12.0498ZM6.74875 8.33663L6.74875 8.33663L6.40964 8.54876C6.48275 8.66564 6.61089 8.73663 6.74875 8.73663V8.33663ZM5.05992 4.99518C4.83901 4.99518 4.65992 5.17426 4.65992 5.39518H5.05992L5.05992 5.39518V4.99518ZM11.3029 4.7L11.3029 4.7V4.3C11.1647 4.3 11.0363 4.37137 10.9632 4.48875L11.3029 4.7ZM7.21449 8.33663L7.21449 8.33663V8.73663C7.52874 8.73663 7.72026 8.39091 7.55361 8.12449L7.21449 8.33663ZM5.05992 6.06675L5.05992 6.06675H4.65992C4.65992 6.28766 4.83901 6.46675 5.05992 6.46675V6.06675ZM8.79977 8.32098L8.79977 8.32098V8.72098C9.02004 8.72098 9.19886 8.54289 9.19977 8.32262L8.79977 8.32098ZM3.8 8.32097C3.8 8.54189 3.97909 8.72098 4.2 8.72098V8.32098L4.2 8.32097H3.8ZM9.87841 5.89654C10.0346 6.14891 10.4015 6.14934 10.5582 5.89733L10.2186 5.68608L10.2186 5.68608L9.87841 5.89654ZM6.68658 6.57744C6.47619 6.67418 6.34651 6.94905 6.49217 7.18191L6.83129 6.96978C6.83102 6.96935 6.83105 6.9693 6.83114 6.96956C6.83121 6.9698 6.83121 6.96991 6.8312 6.96977C6.83117 6.96946 6.83108 6.96729 6.83245 6.96346C6.83555 6.95481 6.84322 6.94567 6.85369 6.94086L6.68658 6.57744ZM9.5479 6.25095C9.33679 5.90849 8.80906 6.05691 8.80741 6.45921L9.2074 6.46086L9.2074 6.46086L9.5479 6.25095ZM4.2 4.7L4.2 4.7V4.3C3.97909 4.3 3.8 4.47909 3.8 4.7H4.2Z" fill="url(#paint7_linear_607_74)"/>
<defs>
<linearGradient id="paint0_linear_607_74" x1="1" y1="4.50008" x2="8" y2="4.50008" gradientUnits="userSpaceOnUse">
<stop stop-color="#F237EF"/>
<stop offset="0.986957" stop-color="#FC5252"/>
</linearGradient>
<linearGradient id="paint1_linear_607_74" x1="11.5" y1="8" x2="11.5" y2="1" gradientUnits="userSpaceOnUse">
<stop stop-color="#FD5900"/>
<stop offset="1" stop-color="#FFDE00"/>
</linearGradient>
<linearGradient id="paint2_linear_607_74" x1="14.9792" y1="8.04437" x2="8.03463" y2="14.9312" gradientUnits="userSpaceOnUse">
<stop stop-color="#FE7970"/>
<stop offset="1" stop-color="#DC3282"/>
</linearGradient>
<linearGradient id="paint3_linear_607_74" x1="0.99989" y1="11.5" x2="8" y2="11.5" gradientUnits="userSpaceOnUse">
<stop stop-color="#FF823B"/>
<stop offset="0.986957" stop-color="#FF005B"/>
</linearGradient>
<linearGradient id="paint4_linear_607_74" x1="4.42817" y1="11.3542" x2="8.20532" y2="11.3542" gradientUnits="userSpaceOnUse">
<stop stop-color="#FF823B"/>
<stop offset="0.986957" stop-color="#FF005B"/>
</linearGradient>
<linearGradient id="paint5_linear_607_74" x1="4.42817" y1="11.3542" x2="8.20532" y2="11.3542" gradientUnits="userSpaceOnUse">
<stop stop-color="#FF823B"/>
<stop offset="0.986957" stop-color="#FF005B"/>
</linearGradient>
<linearGradient id="paint6_linear_607_74" x1="5.37888" y1="7.53028" x2="7.57551" y2="7.53028" gradientUnits="userSpaceOnUse">
<stop stop-color="#FF823B"/>
<stop offset="0.986957" stop-color="#FF005B"/>
</linearGradient>
<linearGradient id="paint7_linear_607_74" x1="5.37888" y1="7.53028" x2="7.57551" y2="7.53028" gradientUnits="userSpaceOnUse">
<stop stop-color="#FF823B"/>
<stop offset="0.986957" stop-color="#FF005B"/>
</linearGradient>
</defs>
</svg>
