<svg width="32" height="32" viewBox="0 0 32 32" fill="none" xmlns="http://www.w3.org/2000/svg">
<path d="M13.4996 2.00122C13.1778 1.98411 12.8605 2.151 12.5053 2.2299C7.04123 3.6838 2.73476 8.44469 2.03569 15.0459C1.81349 18.8844 2.68616 22.0391 4.73511 24.7797C6.7538 27.4799 9.36308 29.2102 12.4158 29.8704C13.2926 30.0599 13.5431 30.0456 14.0712 29.8007C14.5008 29.6016 14.5381 29.5208 14.6777 28.558C14.767 27.9418 14.712 25.8009 14.5982 25.4956C14.4948 25.2186 14.2723 24.9904 13.9171 24.7897C9.83678 23.9241 7.16308 20.257 7.15258 16.0004C7.15833 15.8759 7.16662 15.7517 7.17745 15.6275C7.1706 15.1264 7.20139 14.6202 7.28184 14.1163C7.44964 13.2968 7.77096 12.5045 8.21142 11.7648C9.48703 9.32895 11.5321 7.62641 14.1955 7.14652C14.4903 6.89432 14.6189 6.55095 14.6827 5.98323C14.7759 5.15375 14.7096 3.17585 14.5783 2.86126C14.4546 2.56485 14.1608 2.26536 13.8226 2.0907C13.7124 2.03377 13.6067 2.00692 13.4996 2.00122ZM18.5007 2.00122C18.3934 2.00692 18.2877 2.03377 18.1775 2.0907C17.8394 2.26536 17.5455 2.56485 17.4218 2.86126C17.2907 3.17585 17.2244 5.15375 17.3175 5.98323C17.3812 6.55095 17.5098 6.89432 17.8047 7.14652C20.468 7.62641 22.5131 9.32895 23.7887 11.7648C24.2293 12.5045 24.5505 13.2968 24.7184 14.1163C24.7987 14.6202 24.8296 15.1264 24.8227 15.6275C24.8335 15.7517 24.8418 15.8759 24.8476 16.0004C24.8373 20.257 22.1635 23.9241 18.0832 24.7897C17.7278 24.9904 17.5054 25.2186 17.4021 25.4956C17.2881 25.8009 17.2331 27.9418 17.3226 28.558C17.4621 29.5208 17.4993 29.6016 17.9291 29.8007C18.4572 30.0456 18.7077 30.0599 19.5844 29.8704C22.6372 29.2102 25.2465 27.4798 27.2651 24.7797C29.314 22.0391 30.1867 18.8844 29.9645 15.0459C29.2654 8.44469 24.9589 3.6838 19.4949 2.2299C19.1397 2.151 18.8225 1.98411 18.5007 2.00122Z" fill="url(#paint0_linear_1011_574)"/>
<defs>
<linearGradient id="paint0_linear_1011_574" x1="16.0001" y1="29.9999" x2="16.0001" y2="1.99999" gradientUnits="userSpaceOnUse">
<stop stop-color="#5570FF"/>
<stop offset="1" stop-color="#4DD3FF"/>
</linearGradient>
</defs>
</svg>
