<svg width="192" height="192" viewBox="0 0 192 192" fill="none" xmlns="http://www.w3.org/2000/svg">
<path fill-rule="evenodd" clip-rule="evenodd" d="M71.5546 26.9201L71.5605 26.918C91.4071 19.9201 114.292 22.1137 132.354 32.9223C134.879 34.6307 138.635 35.4235 141.524 33.3371C143.695 31.9622 144.734 29.5107 144.727 27.152C144.721 24.7849 143.66 22.337 141.417 21.0066C124.185 10.1641 103.049 6.02042 82.9589 8.87667C58.7003 12.2169 36.2483 26.3687 22.7173 46.7693C3.68733 74.6436 2.94038 113.828 21.4783 142.126L21.5008 142.161L21.526 142.193C23.2365 144.388 25.9934 145.083 28.4517 144.649C30.8961 144.217 33.2395 142.635 34.1245 140.036C34.8575 138.302 34.7005 136.608 34.2021 135.083C33.7121 133.584 32.8661 132.174 32.1506 130.982L32.1415 130.967C20.3568 110.421 19.8543 83.9934 30.6097 62.9179L30.6133 62.9109C38.9532 46.2429 53.9436 33.0056 71.5546 26.9201ZM118.694 93.7478L118.683 93.7473L118.672 93.747C111.502 93.5847 104.289 93.6088 97.0931 93.6329H97.0864H97.082C92.2233 93.6492 87.3719 93.6655 82.5463 93.6243C84.8284 86.3764 87.1351 79.1271 89.4425 71.876L89.4488 71.856L89.4519 71.8465C92.5251 62.1885 95.5993 52.5272 98.6181 42.8614C99.7292 39.6935 98.4481 35.9049 95.5074 34.1687C93.4556 32.8219 90.9495 32.7756 88.8553 33.6081C86.765 34.4391 84.9771 36.1885 84.4058 38.5705C79.3792 54.2767 74.3882 70.0116 69.3993 85.7396C68.1039 89.8237 66.8085 93.9073 65.5128 97.9898C64.429 100.358 64.8036 103.02 66.0559 105.055C67.3191 107.106 69.5445 108.626 72.2429 108.554C79.309 108.634 86.3821 108.62 93.4475 108.606H93.4602H93.4638C96.6743 108.6 99.8831 108.594 103.089 108.596C98.3147 114.922 93.5719 121.279 88.8313 127.634L88.8249 127.643L88.7681 127.719C84.7987 133.04 80.8307 138.359 76.847 143.657C74.9247 145.6 74.3704 148.374 74.9264 150.81C75.4884 153.272 77.218 155.519 79.9861 156.263C83.3534 157.28 86.9025 155.614 88.672 152.802C93.5338 146.266 98.4182 139.738 103.303 133.209L103.307 133.205C110.201 123.991 117.099 114.774 123.938 105.523C125.719 103.33 125.754 100.436 124.734 98.1228C123.71 95.8022 121.539 93.8759 118.694 93.7478ZM169.549 48.9306L169.563 48.9512C187.745 76.7903 187.4 115.143 169.134 142.859C158.01 160.12 140.715 173.346 121.02 179.283C97.3683 186.598 70.6281 183.255 49.6171 170.091C47.2717 168.806 46.1319 166.323 46.0873 163.906C46.0428 161.492 47.0861 158.963 49.3266 157.557C52.2885 155.427 56.0618 156.348 58.608 158.075C74.3625 167.514 93.8228 170.488 111.718 166.332L111.727 166.33C130.184 162.206 146.735 150.453 156.848 134.487L156.855 134.476C171.431 112.095 171.921 81.5307 158.123 58.6801C156.731 56.8851 156.155 54.5216 156.459 52.3385C156.767 50.1275 157.995 48.0291 160.276 46.9354C163.289 45.2781 167.463 46.0555 169.535 48.9107L169.549 48.9306Z" fill="url(#paint0_linear_1012_821)"/>
<path d="M71.5605 26.9179L70.8954 25.0317L70.8896 25.0337L71.5605 26.9179ZM71.5546 26.92L72.2078 28.8103L72.2167 28.8072L72.2255 28.8041L71.5546 26.92ZM132.354 32.9222L133.475 31.2657L133.429 31.2345L133.381 31.206L132.354 32.9222ZM141.524 33.337L140.454 31.6473L140.402 31.6799L140.353 31.7156L141.524 33.337ZM141.417 21.0065L140.352 22.6993L140.374 22.7132L140.397 22.7266L141.417 21.0065ZM82.9589 8.87661L83.2317 10.8579L83.2404 10.8567L82.9589 8.87661ZM22.7173 46.7692L24.3691 47.8968L24.3766 47.8858L24.384 47.8746L22.7173 46.7692ZM21.4783 142.126L23.1605 141.044L23.1559 141.037L23.1513 141.03L21.4783 142.126ZM21.5008 142.161L19.8186 143.243L19.8704 143.323L19.9296 143.398L21.5008 142.161ZM21.526 142.193L23.1036 140.964L23.0972 140.956L21.526 142.193ZM28.4517 144.649L28.7994 146.619L28.7998 146.618L28.4517 144.649ZM34.1245 140.036L32.2823 139.257L32.2544 139.323L32.2313 139.391L34.1245 140.036ZM32.1506 130.982L33.8654 129.953L33.8604 129.944L32.1506 130.982ZM32.1415 130.967L30.4066 131.962L30.4189 131.983L30.4317 132.005L32.1415 130.967ZM30.6097 62.9178L28.8312 62.0028L28.8283 62.0087L30.6097 62.9178ZM30.6133 62.9108L32.3918 63.8257L32.3969 63.8157L32.4019 63.8057L30.6133 62.9108ZM118.683 93.7472L118.775 91.7493L118.756 91.7484L118.736 91.7479L118.683 93.7472ZM118.694 93.7477L118.603 95.7456L118.604 95.7457L118.694 93.7477ZM118.672 93.7469L118.725 91.7476L118.718 91.7474L118.672 93.7469ZM97.0864 93.6328L97.0795 91.6328H97.0758L97.0864 93.6328ZM97.082 93.6328L97.0887 95.6328H97.0925L97.082 93.6328ZM82.5463 93.6242L80.6386 93.0235L79.827 95.6011L82.5292 95.6241L82.5463 93.6242ZM89.4488 71.8559L87.5436 71.2476L87.5428 71.2501L89.4488 71.8559ZM89.4519 71.8464L91.3571 72.4548L91.3577 72.4529L89.4519 71.8464ZM98.6181 42.8613L96.7308 42.1994L96.7193 42.232L96.709 42.2651L98.6181 42.8613ZM95.5074 34.1686L94.4099 35.8406L94.4496 35.8667L94.4905 35.8908L95.5074 34.1686ZM84.4058 38.5704L86.3106 39.18L86.3333 39.1092L86.3506 39.0369L84.4058 38.5704ZM65.5128 97.9897L67.3313 98.822L67.3821 98.711L67.419 98.5947L65.5128 97.9897ZM66.0559 105.055L64.3525 106.103L64.3529 106.104L66.0559 105.055ZM72.2429 108.554L72.2655 106.554H72.2275L72.1895 106.555L72.2429 108.554ZM93.4602 108.606V106.606H93.4566L93.4602 108.606ZM93.4638 108.606V110.606H93.4676L93.4638 108.606ZM103.089 108.596L104.686 109.801L107.103 106.598L103.091 106.596L103.089 108.596ZM88.8313 127.634L90.4339 128.831L90.4344 128.83L88.8313 127.634ZM88.8249 127.643L87.2223 126.446L87.2217 126.447L88.8249 127.643ZM76.847 143.657L78.2687 145.064L78.364 144.967L78.4455 144.859L76.847 143.657ZM79.9861 156.263L80.5643 154.348L80.5349 154.339L80.5052 154.331L79.9861 156.263ZM88.672 152.802L87.0672 151.608L87.0207 151.671L86.9792 151.737L88.672 152.802ZM103.303 133.209L104.905 134.407L104.906 134.406L103.303 133.209ZM103.307 133.205L101.705 132.007L101.704 132.008L103.307 133.205ZM123.938 105.523L122.386 104.262L122.357 104.297L122.33 104.334L123.938 105.523ZM169.563 48.9511L171.238 47.8575L171.228 47.8423L171.218 47.8273L169.563 48.9511ZM169.549 48.9305L171.204 47.8067L171.194 47.7929L171.185 47.7792L169.549 48.9305ZM169.134 142.859L167.464 141.758L167.459 141.767L167.453 141.776L169.134 142.859ZM121.02 179.283L120.443 177.368L120.436 177.37L120.429 177.372L121.02 179.283ZM49.6171 170.091L50.679 168.396L50.6294 168.365L50.5781 168.337L49.6171 170.091ZM49.3266 157.557L50.3897 159.251L50.4431 159.218L50.4943 159.181L49.3266 157.557ZM58.608 158.075L57.4853 159.73L57.5319 159.762L57.5801 159.791L58.608 158.075ZM111.718 166.332L111.281 164.38L111.274 164.382L111.266 164.384L111.718 166.332ZM156.848 134.487L155.161 133.413L155.159 133.417L156.848 134.487ZM156.855 134.476L155.179 133.385L155.174 133.393L155.168 133.402L156.855 134.476ZM158.123 58.68L159.835 57.6462L159.775 57.5465L159.704 57.4544L158.123 58.68ZM160.276 46.9353L161.141 48.7387L161.191 48.7146L161.24 48.6877L160.276 46.9353ZM169.535 48.9106L171.171 47.7593L171.162 47.7476L171.154 47.736L169.535 48.9106ZM70.8896 25.0337L70.8837 25.0358L72.2255 28.8041L72.2314 28.802L70.8896 25.0337ZM133.381 31.206C114.802 20.0881 91.2964 17.8383 70.8954 25.0317L72.2255 28.8041C91.5178 22.0017 113.782 24.1391 131.327 34.6383L133.381 31.206ZM140.353 31.7156C138.408 33.1201 135.619 32.7162 133.475 31.2657L131.233 34.5786C134.139 36.5449 138.862 37.7266 142.695 34.9584L140.353 31.7156ZM142.727 27.1569C142.732 28.971 141.933 30.7107 140.454 31.6473L142.594 35.0266C145.457 33.2135 146.736 30.0492 146.727 27.1459L142.727 27.1569ZM140.397 22.7266C141.912 23.6252 142.722 25.3393 142.727 27.1569L146.727 27.1459C146.72 24.2293 145.408 21.0485 142.437 19.2863L140.397 22.7266ZM83.2404 10.8567C102.886 8.06364 123.541 12.1216 140.352 22.6993L142.482 19.3137C124.829 8.20633 103.212 3.97707 82.6774 6.89652L83.2404 10.8567ZM24.384 47.8746C37.5989 27.9507 59.5441 14.1195 83.2317 10.8579L82.6861 6.8953C57.8566 10.3141 34.8978 24.7864 21.0506 45.6637L24.384 47.8746ZM23.1513 141.03C5.06616 113.423 5.78612 75.1164 24.3691 47.8968L21.0655 45.6415C1.5886 74.1705 0.814657 114.233 19.8053 143.222L23.1513 141.03ZM23.183 141.079L23.1605 141.044L19.7961 143.208L19.8186 143.243L23.183 141.079ZM23.0972 140.956L23.072 140.924L19.9296 143.398L19.9548 143.43L23.0972 140.956ZM28.104 142.679C26.2074 143.014 24.263 142.451 23.1036 140.964L19.9485 143.422C22.21 146.324 25.7794 147.152 28.7994 146.619L28.104 142.679ZM32.2313 139.391C31.6299 141.157 29.992 142.346 28.104 142.679L28.7998 146.618C31.8006 146.088 34.8492 144.112 36.0178 140.681L32.2313 139.391ZM32.3011 135.704C32.7008 136.927 32.772 138.099 32.2823 139.257L35.9667 140.815C36.943 138.505 36.7002 136.289 36.1032 134.462L32.3011 135.704ZM30.4358 132.011C31.1702 133.235 31.8927 134.455 32.3011 135.704L36.1032 134.462C35.5316 132.713 34.562 131.113 33.8654 129.953L30.4358 132.011ZM30.4317 132.005L30.4408 132.02L33.8604 129.944L33.8513 129.929L30.4317 132.005ZM28.8283 62.0087C17.7698 83.6781 18.2814 110.822 30.4066 131.962L33.8764 129.972C22.4323 110.02 21.9389 84.3084 32.3911 63.8269L28.8283 62.0087ZM28.8349 61.9959L28.8312 62.0028L32.3882 63.8327L32.3918 63.8257L28.8349 61.9959ZM70.9014 25.0296C52.7911 31.2877 37.396 44.8855 28.8247 62.0158L32.4019 63.8057C40.5105 47.6001 55.0961 34.7233 72.2078 28.8103L70.9014 25.0296ZM118.592 95.7451L118.603 95.7456L118.786 91.7498L118.775 91.7493L118.592 95.7451ZM118.62 95.7462L118.631 95.7465L118.736 91.7479L118.725 91.7476L118.62 95.7462ZM97.0998 95.6328C104.3 95.6087 111.487 95.5847 118.627 95.7464L118.718 91.7474C111.517 91.5844 104.278 91.6087 97.0864 91.6328L97.0998 95.6328ZM97.0925 95.6328H97.0998L97.0864 91.6328H97.0795L97.0925 95.6328ZM97.0925 95.6328H97.0969L97.0758 91.6328L97.0715 91.6329L97.0925 95.6328ZM82.5292 95.6241C87.3687 95.6654 92.232 95.6491 97.0887 95.6328L97.0758 91.6328C92.215 91.6491 87.3751 91.6653 82.5633 91.6243L82.5292 95.6241ZM87.5366 71.2694C85.2294 78.5201 82.9218 85.7723 80.6386 93.0235L84.4539 94.2249C86.735 86.9804 89.0408 79.734 91.3483 72.4823L87.5366 71.2694ZM87.5428 71.2501L87.5366 71.2694L91.3483 72.4823L91.3549 72.4618L87.5428 71.2501ZM87.5466 71.238L87.5436 71.2476L91.354 72.4643L91.3571 72.4548L87.5466 71.238ZM96.709 42.2651C93.6921 51.9249 90.6195 61.5811 87.546 71.24L91.3577 72.4529C94.4306 62.7957 97.5065 53.1293 100.527 43.4575L96.709 42.2651ZM94.4905 35.8908C96.5748 37.1214 97.5395 39.8936 96.7308 42.1994L100.505 43.5232C101.919 39.4932 100.321 34.6882 96.5242 32.4464L94.4905 35.8908ZM89.5941 35.4665C91.1836 34.8347 92.9883 34.9075 94.4099 35.8406L96.6048 32.4966C93.9228 30.7361 90.7153 30.7164 88.1164 31.7495L89.5941 35.4665ZM86.3506 39.0369C86.7466 37.3858 88.0076 36.0972 89.5941 35.4665L88.1164 31.7495C85.5223 32.7808 83.2075 34.991 82.4609 38.104L86.3506 39.0369ZM71.3057 86.3442C76.2947 70.6158 81.285 54.8834 86.3106 39.18L82.5009 37.9608C77.4735 53.6699 72.4816 69.4072 67.4929 85.1348L71.3057 86.3442ZM67.419 98.5947C68.7148 94.512 70.0102 90.4283 71.3057 86.3442L67.4929 85.1348C66.1975 89.2189 64.9021 93.3024 63.6065 97.3847L67.419 98.5947ZM67.7592 104.007C66.803 102.453 66.5653 100.496 67.3313 98.822L63.6942 97.1574C62.2926 100.22 62.8041 103.587 64.3525 106.103L67.7592 104.007ZM72.1895 106.555C70.3283 106.604 68.718 105.563 67.7588 104.006L64.3529 106.104C65.9201 108.648 68.7606 110.648 72.2962 110.553L72.1895 106.555ZM93.4439 106.606C86.3763 106.62 79.3161 106.634 72.2655 106.554L72.2202 110.554C79.3018 110.634 86.3882 110.62 93.4514 110.606L93.4439 106.606ZM93.4566 106.606H93.4439L93.4514 110.606H93.4638L93.4566 106.606ZM93.4638 106.606H93.4602V110.606H93.4638V106.606ZM103.091 106.596C99.8814 106.594 96.6702 106.6 93.4602 106.606L93.4676 110.606C96.6784 110.6 99.8848 110.594 103.088 110.596L103.091 106.596ZM90.4344 128.83C95.1756 122.475 99.915 116.121 104.686 109.801L101.493 107.391C96.7144 113.722 91.9683 120.084 87.2282 126.438L90.4344 128.83ZM90.4275 128.839L90.4339 128.831L87.2282 126.438L87.2223 126.446L90.4275 128.839ZM90.3711 128.915L90.4282 128.838L87.2217 126.447L87.1648 126.523L90.3711 128.915ZM78.4455 144.859C82.4319 139.557 86.4021 134.235 90.3711 128.915L87.1648 126.523C83.195 131.845 79.2296 137.16 75.2484 142.455L78.4455 144.859ZM76.8762 150.365C76.4491 148.493 76.897 146.45 78.2687 145.064L75.4252 142.25C72.9523 144.75 72.2916 148.254 72.9765 151.255L76.8762 150.365ZM80.5052 154.331C78.579 153.814 77.3047 152.242 76.8762 150.365L72.9765 151.255C73.672 154.302 75.8569 157.224 79.4669 158.194L80.5052 154.331ZM86.9792 151.737C85.618 153.9 82.9481 155.068 80.5643 154.348L79.4078 158.177C83.7587 159.492 88.1869 157.328 90.3647 153.867L86.9792 151.737ZM101.702 132.011C96.8171 138.539 91.931 145.07 87.0672 151.608L90.2767 153.996C95.1365 147.462 100.019 140.936 104.905 134.407L101.702 132.011ZM101.704 132.008L101.701 132.012L104.906 134.406L104.909 134.402L101.704 132.008ZM122.33 104.334C115.495 113.579 108.601 122.792 101.705 132.007L104.908 134.403C111.802 125.19 118.704 115.968 125.547 106.712L122.33 104.334ZM122.904 98.9297C123.691 100.714 123.594 102.774 122.386 104.262L125.491 106.784C127.845 103.886 127.818 100.158 126.564 97.3157L122.904 98.9297ZM118.604 95.7457C120.527 95.8323 122.115 97.1415 122.905 98.9301L126.564 97.3157C125.305 94.4631 122.552 91.9194 118.784 91.7497L118.604 95.7457ZM171.218 47.8273L171.204 47.8067L167.895 50.0543L167.909 50.0749L171.218 47.8273ZM170.804 143.96C189.502 115.588 189.862 76.3737 171.238 47.8575L167.889 50.0448C185.629 77.2068 185.299 114.698 167.464 141.758L170.804 143.96ZM121.598 181.198C141.758 175.121 159.44 161.594 170.815 143.942L167.453 141.776C156.581 158.646 139.673 171.571 120.443 177.368L121.598 181.198ZM48.5552 171.786C70.0666 185.263 97.4111 188.678 121.611 181.194L120.429 177.372C97.3255 184.518 71.1896 181.247 50.679 168.396L48.5552 171.786ZM44.0876 163.943C44.1425 166.917 45.5526 170.145 48.6561 171.845L50.5781 168.337C48.9908 167.467 48.1213 165.729 48.087 163.869L44.0876 163.943ZM48.2635 155.863C45.3132 157.714 44.0329 160.976 44.0876 163.943L48.087 163.869C48.0527 162.008 48.859 160.212 50.3897 159.251L48.2635 155.863ZM59.7307 156.42C56.851 154.467 52.0986 153.1 48.1589 155.933L50.4943 159.181C52.4784 157.754 55.2726 158.229 57.4853 159.73L59.7307 156.42ZM111.266 164.384C93.869 168.424 74.9402 165.529 59.6359 156.359L57.5801 159.791C73.7848 169.499 93.7766 172.552 112.171 168.28L111.266 164.384ZM111.291 164.378L111.281 164.38L112.155 168.284L112.164 168.282L111.291 164.378ZM155.159 133.417C145.326 148.94 129.223 160.371 111.291 164.378L112.164 168.282C131.146 164.041 148.144 151.966 158.538 135.557L155.159 133.417ZM155.168 133.402L155.161 133.413L158.535 135.561L158.542 135.55L155.168 133.402ZM156.411 59.7138C169.813 81.909 169.336 111.648 155.179 133.385L158.531 135.567C173.527 112.542 174.029 81.1522 159.835 57.6462L156.411 59.7138ZM154.478 52.0625C154.104 54.7542 154.805 57.6647 156.543 59.9056L159.704 57.4544C158.658 56.1053 158.207 54.2888 158.44 52.6143L154.478 52.0625ZM159.412 45.1319C156.423 46.5647 154.862 49.3086 154.478 52.0625L158.44 52.6143C158.673 50.9462 159.567 49.4934 161.141 48.7387L159.412 45.1319ZM171.154 47.736C168.453 44.0136 163.152 43.0708 159.312 45.1829L161.24 48.6877C163.426 47.4853 166.474 48.0973 167.917 50.0853L171.154 47.736ZM171.185 47.7792L171.171 47.7593L167.9 50.0619L167.914 50.0818L171.185 47.7792Z" fill="url(#paint1_linear_1012_821)"/>
<defs>
<linearGradient id="paint0_linear_1012_821" x1="95.509" y1="183.083" x2="95.509" y2="8" gradientUnits="userSpaceOnUse">
<stop stop-color="#FD5900"/>
<stop offset="1" stop-color="#FFDE00"/>
</linearGradient>
<linearGradient id="paint1_linear_1012_821" x1="95.5092" y1="185.083" x2="95.5092" y2="6" gradientUnits="userSpaceOnUse">
<stop stop-color="#FD5900"/>
<stop offset="1" stop-color="#FFDE00"/>
</linearGradient>
</defs>
</svg>
