<svg width="16" height="16" viewBox="0 0 16 16" fill="none" xmlns="http://www.w3.org/2000/svg">
<path d="M2.57617 4C1.68075 4 1 4.679 1 5.54933C1 6.50308 1.68075 6.87175 2.435 7.09808C3.149 7.32383 3.48733 7.57525 3.48733 8.06992C3.48733 8.57158 3.114 8.9245 2.62575 8.9245C2.13575 8.9245 1.71225 8.57217 1.71225 8.02908C1.71225 7.72808 1.85342 7.65167 1.85342 7.48425C1.85342 7.29175 1.721 7.14942 1.504 7.14942C1.25725 7.14942 1 7.52683 1 8.06292C1 8.92625 1.7385 9.56208 2.62575 9.56208C3.52117 9.56208 4.20133 8.88367 4.20133 8.01275C4.20133 7.066 3.52117 6.69033 2.75933 6.464C2.05408 6.247 1.714 5.98683 1.714 5.49217C1.714 4.99925 2.07917 4.64633 2.56742 4.64633C3.07317 4.64633 3.48033 5.00625 3.48733 5.50092C3.49667 5.72725 3.65358 5.86083 3.83675 5.86083C3.88581 5.86254 3.93466 5.85377 3.98006 5.83511C4.02546 5.81645 4.06636 5.78832 4.10003 5.75261C4.1337 5.71689 4.15937 5.67441 4.17533 5.62799C4.19129 5.58157 4.19717 5.53229 4.19258 5.48342C4.17683 4.62008 3.45583 4 2.57617 4ZM6.17592 9.55333C6.57433 9.55333 6.88175 9.41917 6.88175 9.15083C6.88239 9.06354 6.84867 8.97951 6.78788 8.91686C6.72709 8.85422 6.6441 8.81799 6.55683 8.816C6.44017 8.816 6.35792 8.86558 6.16717 8.86558C5.65267 8.86558 5.24725 8.42225 5.24725 7.90308C5.24725 7.34192 5.66142 6.89683 6.18525 6.89683C6.77383 6.89683 7.14775 7.34892 7.14775 8.00225V9.20042C7.14775 9.41042 7.31342 9.55275 7.51233 9.55275C7.70308 9.55275 7.86817 9.41042 7.86817 9.20042V7.97717C7.86817 6.97383 7.181 6.2365 6.201 6.2365C5.2875 6.2365 4.53267 6.94817 4.53267 7.9025C4.53267 8.82417 5.2805 9.55333 6.17592 9.55333ZM9.82583 11.798C10.7212 11.798 11.4014 11.1196 11.4014 10.2487C11.4014 9.29492 10.7212 8.92625 9.95942 8.69992C9.25417 8.47417 8.91408 8.22275 8.91408 7.72808C8.91408 7.23342 9.28742 6.8735 9.7675 6.8735C10.2575 6.8735 10.6874 7.22583 10.6874 7.76892C10.6874 8.07167 10.5468 8.14633 10.5468 8.31375C10.5468 8.50625 10.6787 8.64858 10.8869 8.64858C11.1442 8.64858 11.4014 8.27117 11.4014 7.73508C11.4014 6.87175 10.6559 6.23592 9.7675 6.23592C8.87208 6.23592 8.20008 6.91433 8.20008 7.78525C8.20008 8.732 8.87208 9.10767 9.63508 9.334C10.3491 9.551 10.6874 9.81117 10.6874 10.3058C10.6874 10.8075 10.3141 11.1517 9.83458 11.1517C9.3195 11.1517 8.92108 10.8011 8.91408 10.2971C8.90533 10.0707 8.73908 9.94475 8.56525 9.94475C8.3745 9.94475 8.20008 10.0708 8.20942 10.3128C8.21583 11.1873 8.93683 11.798 9.82525 11.798H9.82583ZM13.4256 9.55275C13.8893 9.55275 14.2562 9.41917 14.5117 9.25933C14.7602 9.10067 14.8588 8.96533 14.8588 8.816C14.8588 8.65733 14.7422 8.515 14.5275 8.515C14.2702 8.515 14.0637 8.9 13.4326 8.9C12.8772 8.9 12.4368 8.45667 12.4368 7.8955C12.4368 7.34133 12.8597 6.88983 13.3906 6.88983C13.9634 6.88983 14.2702 7.26725 14.2702 7.50933C14.2702 7.577 14.2207 7.61083 14.1536 7.61083H13.4571C13.2669 7.61083 13.1257 7.73683 13.1257 7.90425C13.1257 8.08742 13.2669 8.22275 13.4571 8.22275H14.4114C14.776 8.22275 15 8.03025 15 7.70358C15 6.88225 14.3035 6.23825 13.3818 6.23825C12.4683 6.23825 11.731 6.975 11.731 7.89492C11.731 8.81483 12.4963 9.55275 13.4256 9.55275Z" fill="url(#paint0_linear_496_93)" stroke="url(#paint1_linear_496_93)" stroke-width="0.4"/>
<defs>
<linearGradient id="paint0_linear_496_93" x1="4.5" y1="11.241" x2="8.56058" y2="2.73589" gradientUnits="userSpaceOnUse">
<stop stop-color="#A056FF"/>
<stop offset="1" stop-color="#C59AFD"/>
</linearGradient>
<linearGradient id="paint1_linear_496_93" x1="4.5" y1="11.241" x2="8.56058" y2="2.73589" gradientUnits="userSpaceOnUse">
<stop stop-color="#A056FF"/>
<stop offset="1" stop-color="#C59AFD"/>
</linearGradient>
</defs>
</svg>
