<svg width="32" height="32" viewBox="0 0 32 32" fill="none" xmlns="http://www.w3.org/2000/svg">
<path d="M2.00058 16.0943C2.00058 9.02069 5.65862 5.37373 7.79884 5.37373C9.93918 5.37373 10.2901 6.43022 10.2901 8.16646C10.2901 11.5367 6.32163 10.1525 6.32163 16.4772C6.32163 18.5721 7.23969 21.1618 9.62874 21.1618C11.5455 21.1618 12.2506 18.8771 13.2224 14.788C14.8347 8.64059 16.4668 4 21.9746 4C27.326 4 30 8.50269 30 15.5767C30 22.6505 25.8569 27.1531 23.7165 27.1531C21.5763 27.1531 21.0269 26.2994 21.0269 24.5631C21.0269 21.1928 25.5245 21.6762 25.5245 15.3515C25.5245 13.2567 24.6064 10.1714 22.2175 10.1714C20.3007 10.1714 19.6232 10.3057 18.4475 14.7884C17.8081 19.5775 16.2868 27.3334 10.4664 27.3334C5.11531 27.3334 2.00058 23.1677 2.00058 16.0943Z" fill="url(#paint0_linear_390_122)"/>
<defs>
<linearGradient id="paint0_linear_390_122" x1="13.5" y1="29" x2="16" y2="4" gradientUnits="userSpaceOnUse">
<stop stop-color="#EC396C"/>
<stop offset="1" stop-color="#E74C3C"/>
</linearGradient>
</defs>
</svg>
