<svg width="48" height="48" viewBox="0 0 48 48" fill="none" xmlns="http://www.w3.org/2000/svg">
<path fill-rule="evenodd" clip-rule="evenodd" d="M8.00011 26V8.48846L13.4078 13.3509C13.9833 14.1097 15.0373 14.3694 15.9138 13.9192C18.2793 12.7043 21.0391 12.0002 24.0001 12.0002C26.9611 12.0002 29.7209 12.7043 32.0864 13.9192C32.9629 14.3694 34.0169 14.1097 34.5924 13.3509L40.0001 8.48845V26V26.0002C40.0001 26.8965 39.9015 27.7782 39.7124 28.6359L32.1662 28.0071C31.0654 27.9153 30.0987 28.7333 30.007 29.8341C29.9153 30.9348 30.7333 31.9015 31.834 31.9933L38.1505 32.5196C37.3971 33.7692 36.4331 34.9137 35.295 35.9115L29.8945 33.2113C28.9066 32.7173 27.7052 33.1178 27.2113 34.1057C26.7173 35.0937 27.1177 36.295 28.1057 36.789L31.3848 38.4286C29.1947 39.4288 26.6912 40.0002 24.0001 40.0002C21.309 40.0002 18.8055 39.4288 16.6155 38.4286L19.8945 36.789C20.8825 36.295 21.2829 35.0937 20.789 34.1057C20.295 33.1178 19.0936 32.7173 18.1057 33.2113L12.7053 35.9115C11.5672 34.9137 10.6031 33.7692 9.84973 32.5196L16.1662 31.9933C17.267 31.9015 18.0849 30.9348 17.9932 29.8341C17.9015 28.7333 16.9348 27.9153 15.834 28.0071L8.2878 28.6359C8.09872 27.7782 8.00011 26.8965 8.00011 26.0002V26ZM4.2678 28.9709C4.09185 28.0075 4.00011 27.0154 4.00011 26.0002V26V8.48803C4.00011 5.02727 8.09916 3.19745 10.6744 5.51383L10.6748 5.51427L15.3852 9.74966C18.0004 8.62643 20.9231 8.00016 24.0001 8.00016C27.0771 8.00016 29.9998 8.62643 32.615 9.74966L37.3254 5.51427L37.3259 5.51383C39.9011 3.19745 44.0001 5.02727 44.0001 8.48803V26V26.0002C44.0001 27.0154 43.9084 28.0075 43.7324 28.9709L44.1662 29.0071C45.267 29.0988 46.0849 30.0655 45.9932 31.1663C45.9015 32.267 44.9348 33.085 43.834 32.9933L42.4971 32.8818C41.6622 34.7016 40.5066 36.3623 39.0988 37.8134L41.8945 39.2113C42.8825 39.7053 43.2829 40.9066 42.789 41.8946C42.295 42.8825 41.0936 43.283 40.1057 42.789L35.7102 40.5913C32.39 42.746 28.3258 44.0002 24.0001 44.0002C19.6744 44.0002 15.6102 42.746 12.29 40.5913L7.89454 42.789C6.90658 43.283 5.70524 42.8825 5.21126 41.8946C4.71728 40.9066 5.11773 39.7053 6.10568 39.2113L8.90144 37.8134C7.49366 36.3623 6.33798 34.7016 5.50312 32.8818L4.1662 32.9933C3.06545 33.085 2.09875 32.267 2.00702 31.1663C1.91529 30.0655 2.73327 29.0988 3.83402 29.0071L4.2678 28.9709ZM30 24C31.6569 24 33 22.6569 33 21C33 19.3431 31.6569 18 30 18C28.3431 18 27 19.3431 27 21C27 22.6569 28.3431 24 30 24ZM21 21C21 22.6569 19.6569 24 18 24C16.3431 24 15 22.6569 15 21C15 19.3431 16.3431 18 18 18C19.6569 18 21 19.3431 21 21ZM24 32C25.6569 32 27 30.6569 27 29C27 27.3431 25.6569 26 24 26C22.3431 26 21 27.3431 21 29C21 30.6569 22.3431 32 24 32Z" fill="url(#paint0_linear_726_56)"/>
<defs>
<linearGradient id="paint0_linear_726_56" x1="9.97504" y1="39.3346" x2="45.9296" y2="4.40729" gradientUnits="userSpaceOnUse">
<stop stop-color="#FE0844"/>
<stop offset="1" stop-color="#FEB302"/>
</linearGradient>
</defs>
</svg>
