<svg width="16" height="16" viewBox="0 0 16 16" fill="none" xmlns="http://www.w3.org/2000/svg">
<path fill-rule="evenodd" clip-rule="evenodd" d="M5.55216 0.802034L5.51075 0.794725C4.78878 0.667303 4.18738 0.56116 3.69983 0.519825C3.19938 0.477397 2.69979 0.489811 2.22702 0.690461C1.98104 0.794858 1.75288 0.931759 1.54777 1.09595C1.53877 1.10315 1.53427 1.10675 1.53011 1.10945C1.52594 1.11216 1.52019 1.11513 1.50869 1.12106C1.42819 1.16264 1.35265 1.21717 1.28516 1.28466C1.21775 1.35207 1.16326 1.42752 1.12171 1.50791C1.11577 1.51941 1.1128 1.52516 1.11009 1.52932C1.10739 1.53348 1.10378 1.53798 1.09658 1.54698C0.93211 1.7523 0.794992 1.98072 0.690461 2.22702C0.48981 2.69979 0.477397 3.19938 0.519825 3.69983C0.56116 4.18738 0.667303 4.78879 0.794726 5.51076L0.802034 5.55217L1.12877 7.40369L1.13487 7.43821C1.29558 8.34898 1.42491 9.08188 1.57569 9.67293C1.73117 10.2824 1.92388 10.8038 2.24212 11.2755C2.75559 12.0366 3.47257 12.6381 4.31132 13.0115C4.83116 13.2429 5.37809 13.3421 6.00531 13.3893C6.31525 13.4126 6.66048 13.4241 7.04693 13.4297C7.16185 13.4313 7.21931 13.4322 7.24861 13.4656C7.27791 13.4991 7.27062 13.5608 7.25604 13.6844C7.19131 14.233 7.36941 14.8048 7.79035 15.2258C8.52001 15.9554 9.70302 15.9554 10.4327 15.2258L14.8837 10.7747C15.6134 10.0451 15.6134 8.86206 14.8837 8.1324C14.5405 7.78916 14.0969 7.60739 13.6474 7.58707C13.5421 7.58231 13.4895 7.57993 13.4618 7.55118C13.4341 7.52243 13.4338 7.47367 13.4331 7.37616C13.4295 6.85357 13.419 6.40071 13.3893 6.00531C13.3421 5.37809 13.2429 4.83116 13.0115 4.31132C12.6381 3.47257 12.0366 2.75559 11.2755 2.24212C10.8038 1.92388 10.2824 1.73117 9.67293 1.57569C9.08188 1.42491 8.34897 1.29558 7.4382 1.13486L7.40368 1.12877L5.55216 0.802034ZM2.70879 3.98108C2.54665 3.81894 2.46559 3.73788 2.40094 3.77061C2.33629 3.80335 2.35342 3.91512 2.38768 4.13868C2.43373 4.43924 2.49679 4.79816 2.57464 5.23935L2.90138 7.09087C3.06961 8.04416 3.18776 8.71026 3.31983 9.22799C3.44911 9.73475 3.57707 10.0358 3.73429 10.2688C4.05914 10.7503 4.51274 11.1309 5.04337 11.3671C5.30019 11.4814 5.61886 11.5551 6.14037 11.5944C6.67318 11.6345 7.34968 11.6351 8.31769 11.6351H8.65555C8.69642 11.6351 8.71686 11.6351 8.73524 11.6274C8.75361 11.6198 8.76807 11.6054 8.79697 11.5765L11.5765 8.79697C11.6054 8.76807 11.6198 8.75361 11.6274 8.73524C11.6351 8.71686 11.6351 8.69642 11.6351 8.65555V8.31769C11.6351 7.34968 11.6345 6.67318 11.5944 6.14037C11.5551 5.61886 11.4814 5.30019 11.3671 5.04337C11.1309 4.51274 10.7503 4.05914 10.2688 3.73429C10.0358 3.57707 9.73475 3.44911 9.22799 3.31983C8.71026 3.18776 8.04416 3.06961 7.09087 2.90138L5.23935 2.57464C4.79877 2.49689 4.44025 2.43391 4.13995 2.38787C3.91632 2.35359 3.80451 2.33645 3.77177 2.40109C3.73904 2.46574 3.82013 2.54683 3.98231 2.70901L5.29736 4.02407C5.64883 4.37554 5.64883 4.94539 5.29736 5.29686C4.94589 5.64833 4.37604 5.64833 4.02457 5.29686L2.70879 3.98108ZM13.5142 9.40519C13.5409 9.37847 13.5842 9.37847 13.6109 9.40519C13.6376 9.43191 13.6376 9.47523 13.6109 9.50195L9.15989 13.953C9.13318 13.9797 9.08986 13.9797 9.06314 13.953C9.03642 13.9263 9.03642 13.8829 9.06314 13.8562L13.5142 9.40519ZM7.0577 6.58765C6.79837 6.58765 6.58815 6.79787 6.58815 7.05719C6.58815 7.31652 6.79837 7.52674 7.0577 7.52674C7.31702 7.52674 7.52724 7.31652 7.52724 7.05719C7.52724 6.79787 7.31702 6.58765 7.0577 6.58765ZM4.78815 7.05719C4.78815 5.80376 5.80426 4.78765 7.0577 4.78765C8.31113 4.78765 9.32724 5.80376 9.32724 7.05719C9.32724 8.31063 8.31113 9.32674 7.0577 9.32674C5.80426 9.32674 4.78815 8.31063 4.78815 7.05719Z" fill="url(#paint0_linear_650_86)"/>
<defs>
<linearGradient id="paint0_linear_650_86" x1="7.96548" y1="15.773" x2="7.96548" y2="1.39841" gradientUnits="userSpaceOnUse">
<stop stop-color="#18AEFA"/>
<stop offset="1" stop-color="#83E1FF"/>
</linearGradient>
</defs>
</svg>
