<svg width="128" height="128" viewBox="0 0 128 128" fill="none" xmlns="http://www.w3.org/2000/svg">
<path fill-rule="evenodd" clip-rule="evenodd" d="M50.5842 10.1116C55.196 8.69426 60.0419 8 64.9849 8C74.3708 8 81.1507 10.6009 86.3826 12.9355C94.9847 16.5705 100.801 21.5878 104.705 25.0974C108.311 28.3386 109.502 35.6503 108.439 38.9442C107.501 41.8534 106.421 43.1534 106.106 43.5331C106.064 43.5834 106.036 43.6175 106.023 43.6371C105.683 44.1568 105.324 44.7073 104.962 45.2639C102.89 48.4421 100.689 51.8189 101.19 50.7896C101.13 50.9128 101.068 51.0362 101.003 51.1594C100.621 51.8769 99.8151 52.4231 98.9928 52.9806C98.4436 53.353 97.8869 53.7304 97.444 54.1672C100.424 57.2343 103.137 60.5588 105.089 64.35H105.101C107.863 69.7282 109 75.7388 109 81.9156C109 88.1115 107.69 94.2391 104.562 99.6453C101.808 104.405 98.0567 108.503 93.5668 111.633C89.1634 114.702 84.3138 116.738 79.3748 118.076H79.3636C74.3336 119.434 69.2906 120 64.4137 120C55.3565 120 47.1086 118.449 39.8084 114.619C34.6135 112.127 30.7274 108.753 27.363 105.498C25.6508 103.841 24.1786 102.256 22.8923 100.652C22.6243 100.264 22.356 99.888 22.0925 99.5191C20.1105 96.744 18.4015 94.3512 19.2015 90.0757C19.6536 86.3811 20.4916 85.2516 21.2301 84.2564C21.4036 84.0225 21.5717 83.796 21.7279 83.5453C22.5502 82.226 23.3913 81.0671 24.2653 79.8922C25.0256 78.8703 25.8122 77.8417 26.5542 76.8714C27.5184 75.6105 28.4074 74.4481 29.0656 73.5266C29.1629 73.3903 29.2578 73.2162 29.3702 73.01C29.9343 71.9752 30.9387 70.1327 34.8983 68.2116C34.5951 67.8706 34.2897 67.532 33.9842 67.1933C32.2288 65.2471 30.4727 63.3002 29.1424 60.9047C26.6994 56.507 24.7377 50.8657 24.7377 44.5203C24.7377 38.9175 25.7228 33.4203 28.3406 28.2672C30.5967 23.8253 33.8023 19.8729 37.7104 16.7828C41.508 13.7807 45.8903 11.5547 50.5732 10.1116H50.5842ZM97.654 81.9056C97.654 77.1137 96.761 72.9169 94.9804 69.4505C93.1962 65.9858 91.0963 63.1504 88.4003 60.6656C85.7037 58.1854 82.6025 55.9293 79.5165 54.1742C78.8133 53.7516 78.0757 53.3253 77.3185 52.8877C72.3689 50.027 66.585 46.6841 64.1233 40.743C64.0846 39.5457 64.3526 37.9952 65.0926 37.2252C65.8303 36.4552 67.403 36.0016 68.9683 36.0016C73.4997 36.5322 79.0523 40.4767 84.1714 44.1131C85.4751 45.0393 86.7508 45.9455 87.9743 46.7702C89.0191 47.6617 90.2786 47.1804 90.9601 45.9014C91.5056 44.7798 92.8177 42.8877 94.1997 40.8949C94.9864 39.7605 95.7958 38.5933 96.4993 37.5171C96.5602 37.4239 96.6243 37.3281 96.6899 37.2299C97.4555 36.0852 98.4317 34.6255 97.0684 33.4005C93.2711 29.9873 88.8252 26.1405 81.838 23.2033C76.6643 20.8866 72.7388 19.2002 64.8763 19.2002C60.9632 19.2002 57.266 19.7354 53.7888 20.8039C50.3099 21.8757 47.2445 23.4587 44.5932 25.5542C41.9395 27.652 39.8318 30.2387 38.2665 33.3198C36.7011 36.4009 35.8752 40.4055 35.8752 44.5137C35.8752 48.707 37.089 52.2697 38.872 55.4785C40.6539 58.6868 42.5222 60.9828 45.1764 63.4636C52.2004 69.3811 58.8414 74.2208 66.6562 79.636C68.4368 81.0932 69.8188 82.9771 69.8188 84.6017C69.8188 86.4844 69.5263 87.4246 68.5275 88.3149C67.624 89.1236 66.3488 89.2638 64.437 89.2638C62.5234 89.2638 60.0406 88.9918 57.8222 88.3047C55.2562 87.5521 53.9885 86.9518 51.859 85.88C48.4873 84.1731 44.8297 82.1296 42.1961 78.9511C40.152 77.1672 39.5661 77.9891 38.2489 79.8372C38.2082 79.8943 38.1668 79.9523 38.1247 80.0113C37.2608 81.2206 36.2292 82.5664 35.2014 83.907C32.7929 87.049 30.4061 90.1625 30.2527 91.4233C30.0843 92.8064 38.515 101.735 44.7174 104.643C50.1517 107.55 56.3109 108.8 64.3123 108.8C68.3113 108.8 72.3594 108.334 76.3178 107.265C80.2733 106.194 83.8885 104.638 87.0186 102.456C90.1499 100.273 92.7627 97.4249 94.7192 94.0442C96.6752 90.6646 97.654 86.5261 97.654 81.9056Z" fill="url(#paint0_linear_730_30)"/>
<defs>
<linearGradient id="paint0_linear_730_30" x1="64" y1="8" x2="64" y2="120" gradientUnits="userSpaceOnUse">
<stop stop-color="#BFFF55"/>
<stop offset="1" stop-color="#0B8600"/>
</linearGradient>
</defs>
</svg>
