<svg width="16" height="16" viewBox="0 0 16 16" fill="none" xmlns="http://www.w3.org/2000/svg">
<path d="M13.0581 2.64079C11.4988 2.64079 9.98933 2.19258 8.69188 1.34465L8.2703 1.06909C8.12977 0.976969 7.94674 0.976969 7.8062 1.06909L7.38463 1.34465C6.08719 2.1926 4.57774 2.64079 3.01842 2.64079C2.7872 2.64079 2.6001 2.82424 2.6001 3.05094V7.76108C2.6001 11.0411 4.73256 13.9418 7.9059 14.9788C7.9488 14.9929 7.99372 15 8.03826 15C8.0828 15 8.12774 14.9928 8.17062 14.9788C11.344 13.9418 13.4765 11.0411 13.4765 7.76108V3.05094C13.4765 2.82424 13.2893 2.64079 13.0581 2.64079ZM12.6398 7.76108C12.6398 10.6418 10.7966 13.1944 8.03826 14.156C5.27998 13.1944 3.43675 10.6418 3.43675 7.76108V3.4515C5.01239 3.37781 6.53002 2.88915 7.8487 2.02718L8.03826 1.90343L8.22782 2.02718C9.54652 2.88911 11.0641 3.37781 12.6398 3.4515V7.76108Z" fill="url(#paint0_linear_661_107)" stroke="url(#paint1_linear_661_107)" stroke-width="1.2"/>
<path d="M8.64143 10.6708C8.64143 11.0413 8.3411 11.3416 7.97062 11.3416C7.60014 11.3416 7.2998 11.0413 7.2998 10.6708C7.2998 10.3003 7.60014 10 7.97062 10C8.3411 10 8.64143 10.3003 8.64143 10.6708Z" fill="url(#paint2_linear_661_107)" stroke="url(#paint3_linear_661_107)" stroke-width="0.4"/>
<path fill-rule="evenodd" clip-rule="evenodd" d="M7.98184 5C8.31321 5 8.58184 5.26863 8.58184 5.6V8.28326C8.58184 8.61463 8.31321 8.88326 7.98184 8.88326C7.65047 8.88326 7.38184 8.61463 7.38184 8.28326V5.6C7.38184 5.26863 7.65047 5 7.98184 5Z" fill="url(#paint4_linear_661_107)" stroke="url(#paint5_linear_661_107)" stroke-width="0.4" stroke-linecap="round"/>
<defs>
<linearGradient id="paint0_linear_661_107" x1="8.07022" y1="17.8519" x2="8.07022" y2="2.33727" gradientUnits="userSpaceOnUse">
<stop stop-color="#FDA700"/>
<stop offset="1" stop-color="#FFDE00"/>
</linearGradient>
<linearGradient id="paint1_linear_661_107" x1="8.07022" y1="17.8519" x2="8.07022" y2="2.33727" gradientUnits="userSpaceOnUse">
<stop stop-color="#FDA700"/>
<stop offset="1" stop-color="#FFDE00"/>
</linearGradient>
<linearGradient id="paint2_linear_661_107" x1="7.97456" y1="11.6149" x2="7.97456" y2="10.1282" gradientUnits="userSpaceOnUse">
<stop stop-color="#FDA700"/>
<stop offset="1" stop-color="#FFDE00"/>
</linearGradient>
<linearGradient id="paint3_linear_661_107" x1="7.97456" y1="11.6149" x2="7.97456" y2="10.1282" gradientUnits="userSpaceOnUse">
<stop stop-color="#FDA700"/>
<stop offset="1" stop-color="#FFDE00"/>
</linearGradient>
<linearGradient id="paint4_linear_661_107" x1="7.98536" y1="9.67431" x2="7.98536" y2="5.37093" gradientUnits="userSpaceOnUse">
<stop stop-color="#FDA700"/>
<stop offset="1" stop-color="#FFDE00"/>
</linearGradient>
<linearGradient id="paint5_linear_661_107" x1="7.98536" y1="9.67431" x2="7.98536" y2="5.37093" gradientUnits="userSpaceOnUse">
<stop stop-color="#FDA700"/>
<stop offset="1" stop-color="#FFDE00"/>
</linearGradient>
</defs>
</svg>
