<svg width="16" height="16" viewBox="0 0 16 16" fill="none" xmlns="http://www.w3.org/2000/svg">
<path d="M13.0581 2.64079C11.4988 2.64079 9.98933 2.19258 8.69188 1.34465L8.2703 1.06909C8.12977 0.976969 7.94674 0.976969 7.8062 1.06909L7.38463 1.34465C6.08719 2.1926 4.57774 2.64079 3.01842 2.64079C2.7872 2.64079 2.6001 2.82424 2.6001 3.05094V7.76108C2.6001 11.0411 4.73256 13.9418 7.9059 14.9788C7.9488 14.9929 7.99372 15 8.03826 15C8.0828 15 8.12774 14.9928 8.17062 14.9788C11.344 13.9418 13.4765 11.0411 13.4765 7.76108V3.05094C13.4765 2.82424 13.2893 2.64079 13.0581 2.64079ZM12.6398 7.76108C12.6398 10.6418 10.7966 13.1944 8.03826 14.156C5.27998 13.1944 3.43675 10.6418 3.43675 7.76108V3.4515C5.01239 3.37781 6.53002 2.88915 7.8487 2.02718L8.03826 1.90343L8.22782 2.02718C9.54652 2.88911 11.0641 3.37781 12.6398 3.4515V7.76108Z" fill="url(#paint0_linear_661_107)" stroke="url(#paint1_linear_661_107)" stroke-width="1.2"/>
<path d="M6.79465 6.94586C6.75262 6.90078 6.70196 6.86461 6.64569 6.83953C6.58938 6.81445 6.52861 6.80096 6.46699 6.79988C6.40538 6.79879 6.34417 6.81013 6.28703 6.83321C6.22989 6.85628 6.17798 6.89064 6.13441 6.93421C6.09083 6.97779 6.05648 7.0297 6.0334 7.08684C6.01032 7.14398 5.99898 7.20518 6.00007 7.2668C6.00116 7.32842 6.01465 7.38918 6.03973 7.44547C6.06481 7.50176 6.10097 7.55243 6.14606 7.59444L6.92717 8.37556C7.16149 8.60988 7.16149 8.98978 6.92717 9.2241L6.14606 10.0052C6.10097 10.0472 6.06481 10.0979 6.03973 10.1541C6.01465 10.2104 6.00116 10.2712 6.00007 10.3328C5.99898 10.3944 6.01032 10.4556 6.0334 10.5128C6.05648 10.5699 6.09083 10.6218 6.13441 10.6654C6.17798 10.709 6.22989 10.7433 6.28703 10.7664C6.34417 10.7895 6.40538 10.8008 6.46699 10.7997C6.52861 10.7986 6.58938 10.7852 6.64569 10.7601C6.70196 10.735 6.75262 10.6989 6.79465 10.6538L7.57572 9.87265C7.81004 9.63833 8.18994 9.63833 8.42426 9.87264L9.20537 10.6538C9.29237 10.7348 9.40743 10.7789 9.5263 10.7769C9.6452 10.7747 9.75864 10.7266 9.8427 10.6425C9.92676 10.5584 9.97494 10.445 9.97707 10.3261C9.97915 10.2072 9.93504 10.0922 9.85396 10.0052L9.07285 9.22409C8.83853 8.98978 8.83853 8.60988 9.07284 8.37556L9.85396 7.59444C9.93504 7.50745 9.97915 7.39239 9.97707 7.2735C9.97494 7.15462 9.92676 7.04119 9.8427 6.95711C9.75864 6.87303 9.6452 6.82487 9.5263 6.82277C9.40743 6.82067 9.29237 6.8648 9.20537 6.94586L8.42426 7.72697C8.18994 7.96129 7.81004 7.96129 7.57572 7.72697L6.79465 6.94586Z" fill="url(#paint2_linear_661_107)" stroke="url(#paint3_linear_661_107)" stroke-width="0.6"/>
<defs>
<linearGradient id="paint0_linear_661_107" x1="13.109" y1="1.40016" x2="6.66" y2="13.9805" gradientUnits="userSpaceOnUse">
<stop stop-color="#FE0F7C"/>
<stop offset="1" stop-color="#DF0066"/>
</linearGradient>
<linearGradient id="paint1_linear_661_107" x1="13.109" y1="1.40016" x2="6.66" y2="13.9805" gradientUnits="userSpaceOnUse">
<stop stop-color="#FE0F7C"/>
<stop offset="1" stop-color="#DF0066"/>
</linearGradient>
<linearGradient id="paint2_linear_661_107" x1="9.84275" y1="6.91414" x2="8.27608" y2="10.8255" gradientUnits="userSpaceOnUse">
<stop stop-color="#FE0F7C"/>
<stop offset="1" stop-color="#DF0066"/>
</linearGradient>
<linearGradient id="paint3_linear_661_107" x1="9.84275" y1="6.91414" x2="8.27608" y2="10.8255" gradientUnits="userSpaceOnUse">
<stop stop-color="#FE0F7C"/>
<stop offset="1" stop-color="#DF0066"/>
</linearGradient>
</defs>
</svg>
