<svg width="24" height="24" viewBox="0 0 24 24" fill="none" xmlns="http://www.w3.org/2000/svg">
<g clip-path="url(#clip0_1005_174)">
<path d="M6.33333 20C5.97971 20 5.64057 19.8595 5.39052 19.6095C5.14048 19.3594 5 19.0203 5 18.6667V13.3333C5 12.9797 5.14048 12.6406 5.39052 12.3905C5.64057 12.1405 5.97971 12 6.33333 12C6.68696 12 7.02609 12.1405 7.27614 12.3905C7.52619 12.6406 7.66667 12.9797 7.66667 13.3333V18.6667C7.66667 19.0203 7.52619 19.3594 7.27614 19.6095C7.02609 19.8595 6.68696 20 6.33333 20ZM12 20C11.6464 20 11.3072 19.8595 11.0572 19.6095C10.8071 19.3594 10.6667 19.0203 10.6667 18.6667V5.33333C10.6667 4.97971 10.8071 4.64057 11.0572 4.39052C11.3072 4.14048 11.6464 4 12 4C12.3536 4 12.6928 4.14048 12.9428 4.39052C13.1929 4.64057 13.3333 4.97971 13.3333 5.33333V18.6667C13.3333 19.0203 13.1929 19.3594 12.9428 19.6095C12.6928 19.8595 12.3536 20 12 20ZM17.6667 20C17.313 20 16.9739 19.8595 16.7239 19.6095C16.4738 19.3594 16.3333 19.0203 16.3333 18.6667V10.6667C16.3333 10.313 16.4738 9.97391 16.7239 9.72386C16.9739 9.47381 17.313 9.33333 17.6667 9.33333C18.0203 9.33333 18.3594 9.47381 18.6095 9.72386C18.8595 9.97391 19 10.313 19 10.6667V18.6667C19 19.0203 18.8595 19.3594 18.6095 19.6095C18.3594 19.8595 18.0203 20 17.6667 20Z" fill="url(#paint0_linear_1005_174)"/>
<path d="M19 2H5C4.20435 2 3.44129 2.31607 2.87868 2.87868C2.31607 3.44129 2 4.20435 2 5V19C2 19.7956 2.31607 20.5587 2.87868 21.1214C3.44129 21.6839 4.20435 22 5 22H19C19.7956 22 20.5587 21.6839 21.1214 21.1214C21.6839 20.5587 22 19.7956 22 19V5C22 4.20435 21.6839 3.44129 21.1214 2.87868C20.5587 2.31607 19.7956 2 19 2Z" stroke="url(#paint1_linear_1005_174)" stroke-width="2.4"/>
</g>
<defs>
<linearGradient id="paint0_linear_1005_174" x1="10.1928" y1="14.6173" x2="3.04272" y2="12.2706" gradientUnits="userSpaceOnUse">
<stop stop-color="#2AD454"/>
<stop offset="1" stop-color="#B3FF5A"/>
</linearGradient>
<linearGradient id="paint1_linear_1005_174" x1="9.41831" y1="15.2716" x2="-0.500854" y2="11.5511" gradientUnits="userSpaceOnUse">
<stop stop-color="#2AD454"/>
<stop offset="1" stop-color="#B3FF5A"/>
</linearGradient>
<clipPath id="clip0_1005_174">
<rect width="24" height="24" fill="white"/>
</clipPath>
</defs>
</svg>
