<svg width="16" height="16" viewBox="0 0 16 16" fill="none" xmlns="http://www.w3.org/2000/svg">
<path fill-rule="evenodd" clip-rule="evenodd" d="M5.9974 2.96015C6.30005 2.50618 6.80955 2.2335 7.35516 2.2335L8.64518 2.2335C9.19078 2.2335 9.70029 2.50618 10.0029 2.96015C10.5078 3.71746 11.2928 4.24319 12.1853 4.42169L12.2759 4.43979C13.1428 4.61318 13.7668 5.37438 13.7668 6.25848L13.7668 9.86683C13.7668 10.7218 13.7661 11.3088 13.7289 11.7639C13.6926 12.2085 13.626 12.4474 13.5379 12.6202C13.3366 13.0154 13.0154 13.3366 12.6202 13.5379C12.4474 13.626 12.2085 13.6926 11.7639 13.7289C11.3088 13.7661 10.7218 13.7668 9.86683 13.7668L6.1335 13.7668C5.27857 13.7668 4.6915 13.7661 4.23639 13.7289C3.7918 13.6926 3.55297 13.626 3.38012 13.5379C2.98498 13.3366 2.66372 13.0154 2.46239 12.6202C2.37432 12.4474 2.30771 12.2085 2.27138 11.7639C2.2342 11.3088 2.2335 10.7218 2.2335 9.86683L2.2335 6.25848C2.2335 5.37438 2.85753 4.61318 3.72446 4.43979L3.81499 4.42169C4.70749 4.24319 5.49253 3.71746 5.9974 2.96015ZM7.35516 0.433497C6.20772 0.433498 5.1362 1.00696 4.49971 1.96169C4.25964 2.32178 3.88636 2.57177 3.46198 2.65664L3.37145 2.67475C1.66316 3.01641 0.433501 4.51635 0.433501 6.25848L0.433501 9.86683L0.433501 9.90453C0.43349 10.7126 0.433481 11.3734 0.477362 11.9105C0.522782 12.4664 0.619665 12.9685 0.858575 13.4374C1.23248 14.1712 1.82911 14.7678 2.56294 15.1418C3.03183 15.3807 3.5339 15.4775 4.08982 15.523C4.62689 15.5668 5.28774 15.5668 6.09579 15.5668L6.1335 15.5668L9.86683 15.5668L9.90454 15.5668C10.7126 15.5668 11.3734 15.5668 11.9105 15.523C12.4664 15.4775 12.9685 15.3807 13.4374 15.1418C14.1712 14.7678 14.7679 14.1712 15.1418 13.4374C15.3807 12.9685 15.4776 12.4664 15.523 11.9105C15.5669 11.3734 15.5668 10.7126 15.5668 9.90453L15.5668 9.86683L15.5668 6.25848C15.5668 4.51635 14.3372 3.01641 12.6289 2.67475L12.5384 2.65664C12.114 2.57177 11.7407 2.32178 11.5006 1.96169C10.8641 1.00696 9.79262 0.433498 8.64518 0.433497L7.35516 0.433497ZM6.2335 8.66683C6.2335 7.69113 7.02446 6.90016 8.00017 6.90016C8.97587 6.90016 9.76683 7.69113 9.76683 8.66683C9.76683 9.64253 8.97587 10.4335 8.00017 10.4335C7.02446 10.4335 6.2335 9.64253 6.2335 8.66683ZM8.00017 5.10016C6.03035 5.10016 4.4335 6.69702 4.4335 8.66683C4.4335 10.6366 6.03035 12.2335 8.00017 12.2335C9.96998 12.2335 11.5668 10.6366 11.5668 8.66683C11.5668 6.69702 9.96998 5.10017 8.00017 5.10016Z" fill="url(#paint0_linear_488_416)"/>
<defs>
<linearGradient id="paint0_linear_488_416" x1="3" y1="15" x2="10" y2="3" gradientUnits="userSpaceOnUse">
<stop stop-color="#A700B5"/>
<stop offset="0.467487" stop-color="#FF0099"/>
<stop offset="1" stop-color="#FFD600"/>
</linearGradient>
</defs>
</svg>
