<svg width="64" height="64" viewBox="0 0 64 64" fill="none" xmlns="http://www.w3.org/2000/svg">
<path d="M27.4003 2.35246C33.9603 1.32914 40.849 2.54951 46.6344 5.81306C52.209 8.91758 56.7426 13.8544 59.3569 19.6762C62.3378 26.2275 62.8116 33.8643 60.7056 40.7441C58.6411 47.5892 54.0141 53.6082 47.9589 57.3972C43.1348 60.4533 37.4185 62.0539 31.7126 61.9986C24.5611 61.9398 17.4581 59.2364 12.1257 54.4655C7.47442 50.3688 4.14077 44.7959 2.76444 38.7494C1.21865 32.0632 2.02785 24.8516 5.09522 18.7048C9.30378 10.0723 17.8869 3.74568 27.4003 2.35246ZM27.414 6.51832C19.3359 7.89772 12.1533 13.4257 8.63982 20.8067C5.32346 27.6657 5.2785 36.0113 8.50841 42.9117C10.7424 47.7171 14.5048 51.7932 19.0938 54.4413C23.5928 57.048 28.8976 58.2061 34.0779 57.7844C39.3896 57.3833 44.5492 55.2641 48.6125 51.8277C52.821 48.3118 55.885 43.4407 57.1541 38.1029C58.4924 32.5645 57.9702 26.5767 55.6118 21.3806C53.236 16.0738 49.0033 11.6349 43.8368 8.97635C38.8329 6.38003 32.9609 5.51575 27.414 6.51832Z" fill="url(#paint0_linear_1005_32)" stroke="url(#paint1_linear_1005_32)" stroke-width="2"/>
<path fill-rule="evenodd" clip-rule="evenodd" d="M46.4426 18.5849C43.3548 14.5903 38.4892 11.9665 33.4316 11.749C32.6988 11.7174 32.2585 12.5014 32.6135 13.1433C34.4298 16.4283 36.3178 19.6732 38.2053 22.9173C38.9509 24.1987 39.6963 25.4799 40.4372 26.7633C40.8006 27.3927 41.6887 27.4358 42.0801 26.8235C42.7937 25.7068 43.4408 24.5462 44.0881 23.3852L44.0881 23.385L44.0882 23.385C44.669 22.3431 45.25 21.3009 45.8794 20.2901C45.9144 20.2339 45.9429 20.1741 45.9711 20.1142C46.0298 19.9898 46.1105 19.8629 46.1925 19.7341L46.1925 19.7341C46.4273 19.3652 46.6726 18.9796 46.4426 18.5849ZM26.8293 12.1428C21.8526 12.8716 17.1387 15.7393 14.4891 20.0388C14.1083 20.6567 14.5673 21.4164 15.2929 21.4312C20.6938 21.5411 26.1019 21.492 31.5054 21.443V21.443C32.0141 21.4384 32.3329 20.8923 32.0842 20.4485C31.2641 18.9849 30.4246 17.5322 29.5852 16.0798L29.5851 16.0797C29.024 15.1088 28.463 14.1381 27.9079 13.1642C27.882 13.1188 27.852 13.0757 27.8216 13.0331C27.7668 12.9562 27.7148 12.8699 27.6619 12.782L27.6618 12.782L27.6618 12.782C27.4633 12.4525 27.2515 12.1009 26.8293 12.1428ZM46.4596 27.3719C46.4596 27.3719 46.4596 27.3719 46.4596 27.3718V27.3718C46.4596 27.3718 46.4597 27.3718 46.4597 27.3718C47.3059 25.9186 48.1521 24.4655 48.9954 23.011C49.3588 22.3842 50.2437 22.3431 50.6022 22.9727C53.0966 27.353 53.1957 32.8893 51.3878 37.5676C51.2929 37.813 51.1013 38.0128 50.8483 38.0849C50.0804 38.3038 49.2855 38.2451 48.4887 38.1864H48.4887H48.4887H48.4886C48.012 38.1512 47.5347 38.116 47.0621 38.1402L46.7095 38.1586C45.0507 38.2455 43.3814 38.333 41.7255 38.1986C41.0342 38.1425 40.6719 37.3865 41.0157 36.7841C42.8121 33.6355 44.636 30.5035 46.4594 27.3723C46.4594 27.3723 46.4594 27.3723 46.4594 27.3723V27.3723C46.4594 27.3723 46.4594 27.3723 46.4594 27.3723L46.4596 27.3719ZM13.6549 25.2524C13.3017 25.2531 12.9185 25.2538 12.7434 25.5901C10.7062 30.2985 10.9708 35.8588 13.3558 40.3806C13.6787 40.9927 14.512 41.0257 14.8876 40.4444C15.4169 39.6254 15.8913 38.7701 16.3656 37.9151C16.7673 37.191 17.1689 36.4671 17.6036 35.7654C18.33 34.4428 19.0993 33.1425 19.8685 31.8422C20.8799 30.1328 21.8911 28.4235 22.8043 26.6644C23.1409 26.0161 22.6684 25.2544 21.9379 25.2506C20.7477 25.2444 19.5578 25.2455 18.3678 25.2467H18.3678H18.3678C16.9378 25.2481 15.5078 25.2494 14.077 25.238C14.0287 25.2376 13.9804 25.2413 13.9322 25.2451C13.8452 25.2521 13.7511 25.2523 13.6549 25.2524ZM17.9612 43.2278C18.5621 42.2815 19.1092 41.2983 19.6562 40.3154C20.2714 39.2097 20.8865 38.1043 21.5779 37.0517C21.9706 36.454 22.8397 36.5075 23.1974 37.1268C24.0488 38.6012 24.9075 40.0719 25.7661 41.5427L25.7662 41.5429C27.5727 44.6373 29.3794 47.7319 31.1192 50.8604C31.4718 51.4944 31.0467 52.2728 30.3215 52.2532C25.3749 52.1192 20.5886 49.5257 17.447 45.7529C16.7959 45.1308 17.236 44.4285 17.6403 43.7835C17.7602 43.592 17.8771 43.4056 17.9612 43.2278ZM49.5222 43.6831C49.8835 43.0598 49.4087 42.3192 48.6883 42.3162C43.4308 42.2938 38.1736 42.3003 32.9188 42.3095C32.1898 42.3108 31.7118 43.0647 32.0505 43.7102C32.5968 44.7515 33.1924 45.7671 33.7883 46.7831C34.2799 47.6214 34.7716 48.46 35.236 49.3135C35.3919 49.5613 35.5321 49.8228 35.6725 50.0849C35.9322 50.5696 36.1929 51.056 36.5559 51.4606C36.7435 51.6698 37.0312 51.7471 37.3086 51.7022C42.2357 50.9057 46.996 48.0403 49.5222 43.6831Z" fill="url(#paint2_linear_1005_32)"/>
<defs>
<linearGradient id="paint0_linear_1005_32" x1="43.5402" y1="5.10612" x2="44.7812" y2="61.2724" gradientUnits="userSpaceOnUse">
<stop stop-color="#00FFE0"/>
<stop offset="1" stop-color="#078AA7"/>
</linearGradient>
<linearGradient id="paint1_linear_1005_32" x1="43.5402" y1="5.10612" x2="44.7812" y2="61.2724" gradientUnits="userSpaceOnUse">
<stop stop-color="#00FFE0"/>
<stop offset="1" stop-color="#078AA7"/>
</linearGradient>
<linearGradient id="paint2_linear_1005_32" x1="39.9342" y1="13.845" x2="40.7569" y2="51.763" gradientUnits="userSpaceOnUse">
<stop stop-color="#00FFE0"/>
<stop offset="1" stop-color="#078AA7"/>
</linearGradient>
</defs>
</svg>
