<svg width="16" height="16" viewBox="0 0 16 16" fill="none" xmlns="http://www.w3.org/2000/svg">
<g clip-path="url(#clip0_596_231)">
<path fill-rule="evenodd" clip-rule="evenodd" d="M5.19413 0.600208L5.08139 0.600152C4.50572 0.599718 4.04804 0.599373 3.64859 0.706406C2.57305 0.994595 1.73296 1.83469 1.44477 2.91022C1.33774 3.30967 1.33808 3.76735 1.33852 4.34302L1.33857 4.45576C1.33857 4.95282 1.74152 5.35576 2.23857 5.35576C2.73563 5.35576 3.13857 4.95282 3.13857 4.45576C3.13857 3.71067 3.1463 3.51468 3.18344 3.3761C3.30519 2.92173 3.66009 2.56682 4.11446 2.44507C4.25305 2.40794 4.44904 2.40021 5.19413 2.40021H5.93302C6.43007 2.40021 6.83302 1.99726 6.83302 1.50021C6.83302 1.00315 6.43007 0.600208 5.93302 0.600208H5.19413ZM11.1054 2.40021C11.8505 2.40021 12.0465 2.40794 12.1851 2.44507C12.6394 2.56682 12.9943 2.92173 13.1161 3.3761C13.1532 3.51468 13.1609 3.71067 13.1609 4.45576C13.1609 4.95282 13.5639 5.35576 14.0609 5.35576C14.558 5.35576 14.9609 4.95282 14.9609 4.45576L14.961 4.34302C14.9614 3.76735 14.9618 3.30967 14.8547 2.91022C14.5666 1.83469 13.7265 0.994595 12.6509 0.706406C12.2515 0.599373 11.7938 0.599718 11.2181 0.600152L11.1054 0.600208H10.3665C9.86945 0.600208 9.4665 1.00315 9.4665 1.50021C9.4665 1.99726 9.86945 2.40021 10.3665 2.40021H11.1054ZM14.7996 9.46691H14.0609H13.1445C12.956 9.46691 12.8617 9.46691 12.8031 9.40833C12.7445 9.34975 12.7445 9.25547 12.7445 9.06691V7.93331L12.7445 7.88254V7.88252C12.7446 7.45514 12.7447 7.04917 12.6999 6.71612C12.6499 6.34401 12.5296 5.93135 12.188 5.58981C11.8465 5.24827 11.4338 5.12798 11.0617 5.07795C10.7287 5.03317 10.3227 5.03324 9.8953 5.03331L9.84453 5.03331H6.45564L6.40487 5.03331H6.40487C5.97747 5.03324 5.57151 5.03317 5.23845 5.07795C4.86633 5.12798 4.45368 5.24827 4.11214 5.58981C3.7706 5.93135 3.65031 6.344 3.60028 6.71612C3.5555 7.04918 3.55557 7.45515 3.55564 7.88254L3.55564 7.93331L3.55564 9.06691C3.55564 9.25547 3.55564 9.34975 3.49706 9.40833C3.43848 9.46691 3.3442 9.46691 3.15564 9.46691H2.23857H1.49961C1.00255 9.46691 0.599609 9.86985 0.599609 10.3669C0.599609 10.6911 0.771072 10.9753 1.02827 11.1338C1.20115 11.2402 1.28759 11.2935 1.31297 11.3387C1.33834 11.384 1.33859 11.4516 1.33907 11.5867C1.34076 12.0535 1.34803 12.4593 1.37937 12.8051C1.42215 13.2771 1.51537 13.7249 1.75613 14.1419C2.02967 14.6157 2.42311 15.0091 2.89691 15.2827C3.31391 15.5234 3.76168 15.6167 4.23369 15.6594C4.68416 15.7003 5.23649 15.7003 5.89283 15.7002H5.93302C6.43007 15.7002 6.83302 15.2973 6.83302 14.8002C6.83302 14.3032 6.43007 13.9002 5.93302 13.9002C5.22588 13.9002 4.7557 13.8994 4.39616 13.8668C4.049 13.8353 3.89429 13.7801 3.79691 13.7238C3.59675 13.6083 3.43054 13.4421 3.31497 13.2419C3.25875 13.1445 3.20349 12.9898 3.17202 12.6427C3.14894 12.388 3.14178 12.0778 3.13956 11.6672C3.13854 11.479 3.13804 11.3848 3.19668 11.3259C3.25532 11.2669 3.34981 11.2669 3.5388 11.2669H12.7607C12.9497 11.2669 13.0442 11.2669 13.1028 11.3259C13.1615 11.3848 13.161 11.479 13.16 11.6672C13.1577 12.0778 13.1506 12.388 13.1275 12.6427C13.096 12.9898 13.0408 13.1445 12.9845 13.2419C12.869 13.4421 12.7028 13.6083 12.5026 13.7238C12.4052 13.7801 12.2505 13.8353 11.9034 13.8668C11.5438 13.8994 11.0736 13.9002 10.3665 13.9002C9.86945 13.9002 9.4665 14.3032 9.4665 14.8002C9.4665 15.2973 9.86945 15.7002 10.3665 15.7002H10.4067C11.063 15.7003 11.6154 15.7003 12.0658 15.6594C12.5378 15.6167 12.9856 15.5234 13.4026 15.2827C13.8764 15.0091 14.2698 14.6157 14.5434 14.1419C14.7841 13.7249 14.8774 13.2771 14.9202 12.8051C14.9515 12.4593 14.9588 12.0534 14.9604 11.5865C14.9609 11.4514 14.9612 11.3839 14.9865 11.3386C15.0119 11.2934 15.0983 11.2401 15.2711 11.1337C15.5282 10.9752 15.6996 10.6911 15.6996 10.3669C15.6996 9.86985 15.2967 9.46691 14.7996 9.46691ZM10.8878 6.82461C10.8878 6.82449 10.8885 6.82585 10.8897 6.82904C10.8883 6.82632 10.8877 6.82473 10.8878 6.82461ZM10.9159 6.95596V6.95596C10.9093 6.90673 10.8711 6.86852 10.8219 6.8619V6.8619C10.6235 6.83522 10.3414 6.83331 9.84453 6.83331L6.45564 6.83331C5.9588 6.83331 5.6767 6.83522 5.47829 6.8619V6.8619C5.42906 6.86852 5.39085 6.90673 5.38423 6.95596V6.95596C5.35755 7.15437 5.35564 7.43647 5.35564 7.93331V9.06665C5.35564 9.25521 5.35564 9.34949 5.41422 9.40807C5.4728 9.46665 5.56708 9.46665 5.75564 9.46665H10.5445C10.7331 9.46665 10.8274 9.46665 10.886 9.40807C10.9445 9.34949 10.9445 9.25521 10.9445 9.06665L10.9445 7.93331C10.9445 7.43647 10.9426 7.15437 10.9159 6.95596ZM5.4124 6.82461C5.41245 6.82473 5.41185 6.82632 5.41045 6.82904C5.41165 6.82585 5.41235 6.82449 5.4124 6.82461ZM5.35137 6.88812C5.34865 6.88952 5.34706 6.89012 5.34694 6.89007C5.34682 6.89002 5.34818 6.88932 5.35137 6.88812ZM10.9488 6.88812C10.952 6.88932 10.9534 6.89002 10.9532 6.89007C10.9531 6.89012 10.9515 6.88952 10.9488 6.88812Z" fill="url(#paint0_linear_596_231)"/>
</g>
<defs>
<linearGradient id="paint0_linear_596_231" x1="14.5357" y1="0.871919" x2="0.782212" y2="15.1263" gradientUnits="userSpaceOnUse">
<stop stop-color="#FFC700"/>
<stop offset="0.551952" stop-color="#FF49AB"/>
<stop offset="1" stop-color="#BA49FF"/>
</linearGradient>
<clipPath id="clip0_596_231">
<rect width="16" height="16" fill="white"/>
</clipPath>
</defs>
</svg>
