<svg width="32" height="32" viewBox="0 0 32 32" fill="none" xmlns="http://www.w3.org/2000/svg">
<path fill-rule="evenodd" clip-rule="evenodd" d="M17.259 0.72998C10.4339 0.72998 4.93457 6.22927 4.93457 13.0545C4.93457 16.1055 6.03644 18.8957 7.8657 21.0451V21.0451C8.17447 21.4079 8.23883 21.9731 7.90195 22.31L6.66823 23.5437C5.44187 24.77 5.16574 26.9909 6.74993 28.3391C8.89937 30.1683 11.6895 31.2702 14.7406 31.2702C21.5658 31.2702 27.065 25.7709 27.065 18.9457C27.065 15.8947 25.9632 13.1046 24.134 10.9551V10.9551C23.8252 10.5923 23.7608 10.027 24.0977 9.69014L25.3314 8.45649C26.5577 7.23014 26.8339 5.00932 25.2497 3.66112C23.1003 1.83185 20.3101 0.72998 17.259 0.72998ZM7.93457 13.0545C7.93457 7.88612 12.0907 3.72998 17.259 3.72998C19.5748 3.72998 21.6809 4.56327 23.3054 5.94575C23.3253 5.96271 23.3314 5.97439 23.3347 5.98211C23.3391 5.99227 23.3456 6.01356 23.345 6.04892C23.3436 6.12523 23.3077 6.23755 23.21 6.33516L10.5397 19.0054C10.4421 19.1031 10.3298 19.139 10.2535 19.1404C10.2181 19.141 10.1968 19.1345 10.1867 19.1301C10.179 19.1268 10.1673 19.1207 10.1503 19.1008C8.76785 17.4763 7.93457 15.3702 7.93457 13.0545ZM21.4599 12.9947C21.5575 12.8971 21.6698 12.8612 21.7461 12.8598C21.7815 12.8591 21.8028 12.8657 21.8129 12.8701C21.8206 12.8734 21.8323 12.8795 21.8493 12.8994C23.2317 14.5239 24.065 16.63 24.065 18.9457C24.065 24.1141 19.9089 28.2702 14.7406 28.2702C12.4249 28.2702 10.3187 27.4369 8.69424 26.0544C8.67431 26.0375 8.66823 26.0258 8.6649 26.0181C8.66053 26.0079 8.65396 25.9866 8.65461 25.9512C8.65602 25.8749 8.69194 25.7626 8.78955 25.665L21.4599 12.9947Z" fill="url(#paint0_linear_1005_515)"/>
<defs>
<linearGradient id="paint0_linear_1005_515" x1="9.034" y1="-4.99629" x2="35.4285" y2="35.5088" gradientUnits="userSpaceOnUse">
<stop stop-color="#FFCA64"/>
<stop offset="1" stop-color="#C70000"/>
</linearGradient>
</defs>
</svg>
