<svg width="128" height="128" viewBox="0 0 128 128" fill="none" xmlns="http://www.w3.org/2000/svg">
<path fill-rule="evenodd" clip-rule="evenodd" d="M120 64C120 94.9279 94.9279 120 64 120C33.0721 120 8 94.9279 8 64C8 33.0721 33.0721 8 64 8C94.9279 8 120 33.0721 120 64ZM106 64C106 87.196 87.196 106 64 106C40.804 106 22 87.196 22 64C22 40.804 40.804 22 64 22C87.196 22 106 40.804 106 64Z" fill="url(#paint0_linear_718_16)"/>
<path d="M80.6691 35.6354C80.1071 34.1112 78.0585 33.8575 77.1416 35.1985L65.2137 52.6439C64.418 53.8076 62.7003 53.805 61.9082 52.6387L50.8542 36.3627C49.9323 35.0053 47.8581 35.2745 47.3132 36.8223L31.6322 81.3661C31.2781 82.3719 31.7754 83.4786 32.7625 83.8818L44.0091 88.4752C45.2142 88.9674 46.5609 88.1955 46.7452 86.9069L50.4547 60.9765C50.7134 59.1683 53.0612 58.6246 54.0884 60.1351L61.8934 71.6126C62.6859 72.778 64.4029 72.7801 65.1983 71.6167L74.4269 58.1181C75.4013 56.693 77.6021 57.0888 78.0188 58.7641L84.272 83.9054C84.5865 85.1698 86.0067 85.8007 87.1558 85.1865L95.4637 80.7451C96.3443 80.2743 96.7428 79.2262 96.3973 78.2894L80.6691 35.6354Z" fill="url(#paint1_linear_718_16)"/>
<defs>
<linearGradient id="paint0_linear_718_16" x1="114.926" y1="9.92496" x2="12.5505" y2="117.55" gradientUnits="userSpaceOnUse">
<stop stop-color="#D800BD"/>
<stop offset="0.408098" stop-color="#F92D7A"/>
<stop offset="0.590073" stop-color="#FF4A52"/>
<stop offset="1" stop-color="#FFB243"/>
</linearGradient>
<linearGradient id="paint1_linear_718_16" x1="94.7703" y1="33.6419" x2="74.5993" y2="91.8343" gradientUnits="userSpaceOnUse">
<stop stop-color="#FE0F7C"/>
<stop offset="1" stop-color="#DF0066"/>
</linearGradient>
</defs>
</svg>
