<svg width="16" height="16" viewBox="0 0 16 16" fill="none" xmlns="http://www.w3.org/2000/svg">
<path d="M10.9519 7.15865C10.9519 8.97748 9.47748 10.4519 7.65865 10.4519C5.83983 10.4519 4.36538 8.97748 4.36538 7.15865V6.31731C4.36538 5.89247 4.70978 5.54808 5.13462 5.54808C5.55945 5.54808 5.90385 5.89247 5.90385 6.31731L5.90385 7.15865C5.90385 8.12781 6.6895 8.91346 7.65865 8.91346C8.62781 8.91346 9.41346 8.12781 9.41346 7.15865L9.41346 6.31731C9.41346 5.89247 9.75786 5.54808 10.1827 5.54808C10.6075 5.54808 10.9519 5.89247 10.9519 6.31731V7.15865Z" fill="url(#paint0_linear_491_674)"/>
<path fill-rule="evenodd" clip-rule="evenodd" d="M3.45192 0.5C3.19473 0.5 2.95455 0.628539 2.81188 0.842538L1.13502 3.35783C1.05118 3.47972 1.00156 3.62698 1.00004 3.78575C1.00001 3.78825 1 3.79076 1 3.79327V11.8462C1 13.8641 2.63588 15.5 4.65385 15.5H10.6635C12.6814 15.5 14.3173 13.8641 14.3173 11.8462V3.79456C14.3173 3.79162 14.3173 3.78869 14.3173 3.78575C14.3158 3.63905 14.2725 3.49312 14.1881 3.36658L12.5054 0.842538C12.3628 0.628539 12.1226 0.5 11.8654 0.5H3.45192ZM11.7514 3.02404C11.905 3.02404 11.9966 2.85286 11.9114 2.72506L11.5108 2.1241C11.4751 2.0706 11.4151 2.03846 11.3508 2.03846H3.96652C3.90222 2.03846 3.84218 2.0706 3.80651 2.1241L3.40587 2.72506C3.32067 2.85286 3.41229 3.02404 3.56588 3.02404H11.7514ZM12.7788 4.75481C12.7788 4.6486 12.6927 4.5625 12.5865 4.5625H2.73077C2.62456 4.5625 2.53846 4.6486 2.53846 4.75481V11.8462C2.53846 13.0144 3.48555 13.9615 4.65385 13.9615H10.6635C11.8318 13.9615 12.7788 13.0144 12.7788 11.8462V4.75481Z" fill="url(#paint1_linear_491_674)"/>
<defs>
<linearGradient id="paint0_linear_491_674" x1="2.73058" y1="14.7306" x2="13.4404" y2="2.34552" gradientUnits="userSpaceOnUse">
<stop stop-color="#00CDDA"/>
<stop offset="1" stop-color="#00FFF6"/>
</linearGradient>
<linearGradient id="paint1_linear_491_674" x1="2.73058" y1="14.7306" x2="13.4404" y2="2.34552" gradientUnits="userSpaceOnUse">
<stop stop-color="#00CDDA"/>
<stop offset="1" stop-color="#00FFF6"/>
</linearGradient>
</defs>
</svg>
