<svg width="16" height="16" viewBox="0 0 16 16" fill="none" xmlns="http://www.w3.org/2000/svg">
<g id="Frame 212">
<g id="Group 8741">
<path id="Union" fill-rule="evenodd" clip-rule="evenodd" d="M4.71094 4.9001H4.0001C3.39258 4.9001 2.9001 5.39258 2.9001 6.0001V11.889C2.9001 13.0488 3.8403 13.989 5.0001 13.989H11.0001C12.1599 13.989 13.1001 13.0488 13.1001 11.889V6.0001C13.1001 5.39258 12.6076 4.9001 12.0001 4.9001H11.1776V5.11121C11.1776 5.60827 10.7747 6.01121 10.2776 6.01121C9.78055 6.01121 9.3776 5.60827 9.3776 5.11121V4.9001H6.51094V5.11121C6.51094 5.60827 6.10799 6.01121 5.61094 6.01121C5.11388 6.01121 4.71094 5.60827 4.71094 5.11121V4.9001ZM6.52983 3.1001H9.35871C9.24727 2.41947 8.65643 1.9001 7.94427 1.9001C7.23212 1.9001 6.64127 2.41947 6.52983 3.1001ZM11.1693 3.1001H12.0001C13.6017 3.1001 14.9001 4.39847 14.9001 6.0001V11.889C14.9001 14.0429 13.154 15.789 11.0001 15.789H5.0001C2.84619 15.789 1.1001 14.0429 1.1001 11.889V6.0001C1.1001 4.39847 2.39847 3.1001 4.0001 3.1001H4.71923C4.8388 1.42329 6.23701 0.100098 7.94427 0.100098C9.65153 0.100098 11.0497 1.42329 11.1693 3.1001Z" fill="url(#paint0_linear_0_1)"/>
<path id="Rectangle 125 (Stroke)" fill-rule="evenodd" clip-rule="evenodd" d="M11.1777 9.00007C11.1777 10.7858 9.73012 12.2334 7.9444 12.2334C6.15868 12.2334 4.71107 10.7858 4.71107 9.00006L4.71107 8.22229C4.71107 7.72523 5.11401 7.32229 5.61107 7.32229C6.10812 7.32229 6.51107 7.72523 6.51107 8.22229L6.51107 9.00006C6.51107 9.79167 7.15279 10.4334 7.9444 10.4334C8.73601 10.4334 9.37773 9.79167 9.37773 9.00007L9.37773 8.22229C9.37773 7.72523 9.78068 7.32229 10.2777 7.32229C10.7748 7.32229 11.1777 7.72523 11.1777 8.22229L11.1777 9.00007Z" fill="url(#paint1_linear_0_1)"/>
</g>
</g>
<defs>
<linearGradient id="paint0_linear_0_1" x1="8.0001" y1="15.789" x2="8.0001" y2="0.100098" gradientUnits="userSpaceOnUse">
<stop stop-color="#A93AFF"/>
<stop offset="1" stop-color="#FF81FF"/>
</linearGradient>
<linearGradient id="paint1_linear_0_1" x1="7.9444" y1="7.32229" x2="7.9444" y2="12.2334" gradientUnits="userSpaceOnUse">
<stop stop-color="#A93AFF"/>
<stop offset="1" stop-color="#FF81FF"/>
</linearGradient>
</defs>
</svg>
