<svg width="128" height="128" viewBox="0 0 128 128" fill="none" xmlns="http://www.w3.org/2000/svg">
<path d="M40.5048 13.0027C42.4183 11.8968 44.8661 12.5524 45.9707 14.4667L57.3078 34.1125C58.1582 35.5861 59.8463 36.332 61.5414 36.1859C62.3045 36.1202 63.0704 36.0858 63.837 36.0829C64.598 36.0862 65.3581 36.1205 66.1153 36.1858C67.8098 36.3318 69.4974 35.587 70.3484 34.1144L81.7041 14.4637C82.8095 12.5508 85.2564 11.8964 87.1691 13.002L96.3456 18.3063C98.2569 19.4111 98.9118 21.8554 97.8089 23.7678L86.4596 43.4467C85.6123 44.9157 85.8077 46.7439 86.7741 48.1374C87.6424 49.3896 88.4061 50.7106 89.0582 52.0874C89.7828 53.617 91.2667 54.6952 92.9592 54.6952H115.674C117.883 54.6952 119.674 56.4861 119.674 58.6952V69.3076C119.674 71.5167 117.883 73.3076 115.674 73.3076H92.9587C91.2574 73.3076 89.7679 74.3969 89.0465 75.9377C88.3997 77.3194 87.6401 78.6456 86.7752 79.9032C85.8179 81.2951 85.6276 83.1156 86.4717 84.5789L97.8084 104.232C98.9116 106.144 98.2567 108.589 96.3453 109.694L87.171 114.997C85.2575 116.103 82.8096 115.448 81.7048 113.533L70.363 93.8817C69.5142 92.411 67.8307 91.6647 66.139 91.8127C65.3737 91.8797 64.6057 91.9157 63.837 91.9199C63.0745 91.9157 62.3129 91.8801 61.5541 91.8137C59.8621 91.6658 58.1778 92.411 57.328 93.8816L45.9715 113.536C44.8662 115.449 42.4195 116.104 40.5067 114.998L31.3269 109.693C29.4155 108.589 28.7604 106.144 29.8633 104.232L41.2127 84.5516C42.0594 83.0834 41.8649 81.2564 40.8991 79.8636C40.0311 78.6119 39.267 77.2912 38.6144 75.9148C37.8894 74.3857 36.4055 73.3076 34.7132 73.3076H12C9.79086 73.3076 8 71.5167 8 69.3076V58.6952C8 56.4861 9.79086 54.6952 12 54.6952H34.7154C36.4158 54.6952 37.9048 53.6072 38.626 52.0674C39.2741 50.6838 40.0348 49.3557 40.9003 48.0965C41.8562 46.7055 42.0453 44.8867 41.202 43.4247L29.8638 23.7683C28.7606 21.8557 29.4156 19.4111 31.3273 18.3064L40.5048 13.0027Z" fill="url(#paint0_linear_719_28)"/>
<path d="M64 48C59.7565 48 55.6869 49.6857 52.6863 52.6863C49.6857 55.6869 48 59.7565 48 64C48 68.2435 49.6857 72.3131 52.6863 75.3137C55.6869 78.3143 59.7565 80 64 80C68.2435 80 72.3131 78.3143 75.3137 75.3137C78.3143 72.3131 80 68.2435 80 64C80 59.7565 78.3143 55.6869 75.3137 52.6863C72.3131 49.6857 68.2435 48 64 48Z" fill="url(#paint1_linear_719_28)"/>
<defs>
<linearGradient id="paint0_linear_719_28" x1="8" y1="64" x2="119.674" y2="64" gradientUnits="userSpaceOnUse">
<stop stop-color="#02AA93"/>
<stop offset="1" stop-color="#67FF80"/>
</linearGradient>
<linearGradient id="paint1_linear_719_28" x1="64" y1="80" x2="64" y2="48" gradientUnits="userSpaceOnUse">
<stop stop-color="#00F0FF"/>
<stop offset="1" stop-color="#85FFF0"/>
</linearGradient>
</defs>
</svg>
