<svg width="128" height="128" viewBox="0 0 128 128" fill="none" xmlns="http://www.w3.org/2000/svg">
<path fill-rule="evenodd" clip-rule="evenodd" d="M45.9707 14.4666C44.8661 12.5524 42.4183 11.8968 40.5048 13.0026L31.3273 18.3063C29.4156 19.411 28.7606 21.8557 29.8638 23.7682L41.202 43.4246C42.0453 44.8866 41.8562 46.7054 40.9002 48.0964C40.0348 49.3557 39.2741 50.6837 38.626 52.0674C37.9048 53.6071 36.4158 54.6952 34.7154 54.6952H12C9.79086 54.6952 8 56.486 8 58.6952V69.3075C8 71.5166 9.79086 73.3075 12 73.3075H34.7132C36.4055 73.3075 37.8894 74.3856 38.6144 75.9148C39.267 77.2911 40.0311 78.6118 40.8991 79.8635C41.8649 81.2563 42.0594 83.0833 41.2127 84.5515L29.8633 104.232C28.7604 106.144 29.4155 108.589 31.3269 109.693L40.5067 114.998C42.4195 116.104 44.8662 115.449 45.9715 113.536L57.328 93.8815C58.1778 92.4109 59.8621 91.6657 61.5541 91.8137C62.3129 91.88 63.0745 91.9157 63.837 91.9198C64.6057 91.9156 65.3737 91.8797 66.139 91.8127C67.8307 91.6646 69.5142 92.4109 70.363 93.8817L81.7048 113.533C82.8096 115.447 85.2575 116.103 87.171 114.997L96.3453 109.694C98.2567 108.589 98.9116 106.144 97.8084 104.232L86.4717 84.5788C85.6276 83.1155 85.8179 81.295 86.7752 79.9031C87.6401 78.6456 88.3997 77.3193 89.0465 75.9377C89.7679 74.3968 91.2574 73.3075 92.9587 73.3075H115.674C117.883 73.3075 119.674 71.5166 119.674 69.3075V58.6952C119.674 56.486 117.883 54.6952 115.674 54.6952H92.9592C91.2667 54.6952 89.7828 53.6169 89.0582 52.0874C88.4061 50.7106 87.6424 49.3895 86.7741 48.1374C85.8077 46.7438 85.6123 44.9156 86.4596 43.4466L97.8089 23.7677C98.9118 21.8554 98.2569 19.4111 96.3456 18.3063L87.1691 13.0019C85.2564 11.8963 82.8095 12.5508 81.704 14.4637L70.3484 34.1144C69.4974 35.5869 67.8098 36.3318 66.1153 36.1857C65.3581 36.1205 64.598 36.0861 63.837 36.0828C63.0704 36.0857 62.3045 36.1201 61.5414 36.1859C59.8462 36.3319 58.1582 35.586 57.3078 34.1124L45.9707 14.4666ZM52.6863 52.6862C55.6869 49.6856 59.7565 47.9999 64 47.9999C68.2435 47.9999 72.3131 49.6856 75.3137 52.6862C78.3143 55.6868 80 59.7565 80 63.9999C80 68.2434 78.3143 72.3131 75.3137 75.3136C72.3131 78.3142 68.2435 79.9999 64 79.9999C59.7565 79.9999 55.6869 78.3142 52.6863 75.3136C49.6857 72.3131 48 68.2434 48 63.9999C48 59.7565 49.6857 55.6868 52.6863 52.6862Z" fill="url(#paint0_linear_719_28)"/>
<defs>
<linearGradient id="paint0_linear_719_28" x1="8" y1="64" x2="119.674" y2="64" gradientUnits="userSpaceOnUse">
<stop stop-color="#02AA93"/>
<stop offset="1" stop-color="#67FF80"/>
</linearGradient>
</defs>
</svg>
