<svg width="64" height="64" viewBox="0 0 64 64" fill="none" xmlns="http://www.w3.org/2000/svg">
<path d="M34.4922 52.2647C32.9318 51.4451 31.068 51.4451 29.5076 52.2647L21.7363 56.3463C17.8034 58.4118 13.2093 55.0718 13.9608 50.6938L15.4418 42.0656C15.7405 40.3254 15.1631 38.5498 13.8979 37.318L7.62705 31.2132C4.4425 28.1128 6.19719 22.7067 10.5954 22.0677L19.2732 20.807C21.0183 20.5535 22.5269 19.4581 23.3082 17.8771L27.1944 10.0126C29.1613 6.03162 34.8384 6.03162 36.8054 10.0126L40.6916 17.8771C41.4729 19.4581 42.9817 20.5535 44.7267 20.807L53.4043 22.0677C57.8027 22.7067 59.5575 28.1128 56.373 31.2132L50.102 37.318C48.837 38.5498 48.2594 40.3254 48.5582 42.0656L50.0391 50.6938C50.7907 55.0718 46.1964 58.4118 42.2635 56.3463L34.4922 52.2647Z" stroke="url(#paint0_linear_1005_340)" stroke-width="8"/>
<defs>
<linearGradient id="paint0_linear_1005_340" x1="31.9999" y1="61.3946" x2="31.9999" y2="0.287302" gradientUnits="userSpaceOnUse">
<stop stop-color="#FD5900"/>
<stop offset="1" stop-color="#FFDE00"/>
</linearGradient>
</defs>
</svg>
