<svg width="128" height="128" viewBox="0 0 128 128" fill="none" xmlns="http://www.w3.org/2000/svg">
<path d="M63.6606 11C49.9594 11 36.8193 13.0044 27.1311 16.5725C17.4428 20.1405 12 24.9798 12 30.0257V97.9744C12 103.02 17.4428 107.86 27.1311 111.428C36.8193 114.996 49.9594 117 63.6606 117C77.3619 117 90.5017 114.996 100.19 111.428C109.879 107.86 115.321 103.02 115.321 97.9744V30.0257C115.321 24.9798 109.879 20.1405 100.19 16.5725C90.5017 13.0044 77.3619 11 63.6606 11ZM63.6606 20.5128C75.0784 20.5128 86.029 21.5151 94.1017 23.2991C102.175 25.0831 106.711 27.5027 106.711 30.0257C106.711 32.5487 102.175 34.9683 94.1017 36.7523C86.029 38.5362 75.0784 39.5385 63.6606 39.5385C52.243 39.5385 41.2929 38.5362 33.2194 36.7523C25.1457 34.9683 20.6102 32.5487 20.6102 30.0257C20.6102 27.5027 25.1457 25.0831 33.2194 23.2991C41.2929 21.5151 52.243 20.5128 63.6606 20.5128ZM20.6102 40.5046C25.3107 43.128 31.7028 45.2817 39.2152 46.7731C46.7276 48.2644 55.1263 49.0472 63.6606 49.0513C72.1905 49.0493 80.5861 48.2693 88.0979 46.7812C95.6098 45.2931 102.005 43.1431 106.711 40.5233V64.0001C106.711 66.5231 102.175 68.9428 94.1017 70.7268C86.029 72.5107 75.0784 73.513 63.6606 73.513C52.243 73.513 41.2929 72.5107 33.2194 70.7268C25.1457 68.9428 20.6102 66.5231 20.6102 64.0001V40.5046ZM20.6102 74.4791C25.3107 77.1025 31.7028 79.256 39.2152 80.7475C46.7276 82.2389 55.1263 83.0216 63.6606 83.0257C72.1905 83.0241 80.5861 82.2438 88.0979 80.7557C95.6098 79.2676 102.005 77.1176 106.711 74.4978V97.9744C106.711 100.498 102.175 102.917 94.1017 104.701C86.029 106.485 75.0784 107.487 63.6606 107.487C52.243 107.487 41.2929 106.485 33.2194 104.701C25.1457 102.917 20.6102 100.498 20.6102 97.9744V74.4791Z" fill="url(#paint0_linear_721_73)" stroke="url(#paint1_linear_721_73)" stroke-width="4"/>
<defs>
<linearGradient id="paint0_linear_721_73" x1="27.1311" y1="101.477" x2="102.06" y2="28.4413" gradientUnits="userSpaceOnUse">
<stop stop-color="#0072FF"/>
<stop offset="1" stop-color="#00E5A1"/>
</linearGradient>
<linearGradient id="paint1_linear_721_73" x1="27.1311" y1="101.477" x2="102.06" y2="28.4413" gradientUnits="userSpaceOnUse">
<stop stop-color="#0072FF"/>
<stop offset="1" stop-color="#00E5A1"/>
</linearGradient>
</defs>
</svg>
