<svg width="128" height="128" viewBox="0 0 128 128" fill="none" xmlns="http://www.w3.org/2000/svg">
<path opacity="0.4" d="M34.3575 55.0127C37.2477 55.0127 39.5875 52.6382 39.5875 49.7049L41.0293 24.0641C41.0293 20.326 38.0408 17.2997 34.3575 17.2997C30.6742 17.2997 27.6923 20.326 27.6923 24.0641L29.1275 49.7049C29.1275 52.6382 31.4673 55.0127 34.3575 55.0127" fill="url(#paint0_linear_905_67)"/>
<path d="M27.216 106.629C27.216 106.629 28.7168 108.172 29.6475 108.844C30.9976 109.882 32.6622 110.4 34.3203 110.4C36.1816 110.4 37.9118 109.815 39.3209 108.711C39.5765 108.452 40.6645 107.474 41.5623 106.563C47.1986 101.235 56.4199 87.3269 59.238 80.0437C59.6837 78.9396 60.6471 76.146 60.7061 74.6495C60.7061 73.2261 60.3915 71.8559 59.7492 70.5589C58.8513 68.936 57.4422 67.6323 55.7776 66.9206C54.6241 66.4617 51.1702 65.75 51.1047 65.75C47.3231 65.0317 41.1756 64.6459 34.3859 64.6459C27.9173 64.6459 22.0254 65.0317 18.1848 65.617C18.1193 65.6835 13.8331 66.3952 12.3585 67.18C9.6714 68.6101 8.00017 71.4036 8.00017 74.3901V74.6495C8.06571 76.5983 9.73694 80.6955 9.79592 80.6955C12.6141 87.5863 21.3896 101.168 27.216 106.629" fill="url(#paint1_linear_905_67)"/>
<path opacity="0.4" d="M93.6523 54.7139C96.5425 54.7139 98.8822 52.3393 98.8822 49.406L100.318 23.7645C100.318 20.0264 97.3355 17 93.6523 17C89.969 17 86.9805 20.0264 86.9805 23.7645L88.4223 49.406C88.4223 52.3393 90.762 54.7139 93.6523 54.7139" fill="url(#paint2_linear_905_67)"/>
<path d="M119.041 70.2589C118.143 68.6359 116.734 67.3389 115.069 66.6205C113.916 66.1616 110.456 65.4498 110.397 65.4498C106.615 64.7315 100.467 64.3457 93.6777 64.3457C87.2091 64.3457 81.3172 64.7315 77.4766 65.3168C77.4111 65.3833 73.1249 66.1017 71.6503 66.8799C68.9567 68.31 67.292 71.1036 67.292 74.0968V74.3562C67.3575 76.3051 69.0222 80.3957 69.0877 80.3957C71.9059 87.2866 80.6749 100.876 86.5078 106.33C86.5078 106.33 88.0086 107.873 88.9393 108.538C90.2828 109.582 91.9475 110.101 93.6187 110.101C95.4735 110.101 97.1971 109.516 98.6127 108.412C98.8683 108.152 99.9563 107.175 100.854 106.27C106.484 100.935 115.712 87.0272 118.523 79.7505C118.975 78.6464 119.939 75.8461 119.998 74.3562C119.998 72.9261 119.683 71.5559 119.041 70.2589" fill="url(#paint3_linear_905_67)"/>
<defs>
<linearGradient id="paint0_linear_905_67" x1="34.3608" y1="17.2997" x2="34.3608" y2="55.0127" gradientUnits="userSpaceOnUse">
<stop stop-color="#FDA700"/>
<stop offset="1" stop-color="#FFDE00"/>
</linearGradient>
<linearGradient id="paint1_linear_905_67" x1="34.3531" y1="64.6459" x2="34.3531" y2="110.4" gradientUnits="userSpaceOnUse">
<stop stop-color="#FDA700"/>
<stop offset="1" stop-color="#FFDE00"/>
</linearGradient>
<linearGradient id="paint2_linear_905_67" x1="93.649" y1="54.7139" x2="93.649" y2="17" gradientUnits="userSpaceOnUse">
<stop stop-color="#FDA700"/>
<stop offset="1" stop-color="#FFDE00"/>
</linearGradient>
<linearGradient id="paint3_linear_905_67" x1="93.6449" y1="110.101" x2="93.6449" y2="64.3457" gradientUnits="userSpaceOnUse">
<stop stop-color="#FDA700"/>
<stop offset="1" stop-color="#FFDE00"/>
</linearGradient>
</defs>
</svg>
