<svg width="16" height="16" viewBox="0 0 16 16" fill="none" xmlns="http://www.w3.org/2000/svg">
<path d="M12.2285 0.551436C12.6143 0.359288 13.0968 0.73202 13.0772 1.22929C13.0916 1.50506 12.9297 1.72212 12.7664 1.89292C11.7225 3.03781 10.6916 4.1987 9.65984 5.35693C9.60426 5.42455 9.5323 5.45897 9.45836 5.48824C9.37555 5.52101 9.28159 5.53219 9.20212 5.492C9.02514 5.40249 8.88064 5.22012 8.88983 4.97886C8.87848 4.79294 8.98135 4.64082 9.09179 4.5234C9.43646 4.13781 9.78145 3.7528 10.1259 3.36721C10.4108 3.04818 10.0636 2.57066 9.67163 2.74203C8.47784 3.26401 7.2843 3.78689 6.09103 4.3107C5.7657 4.45351 5.77431 4.9178 6.10474 5.04837C7.72029 5.6868 9.33667 6.32274 10.9525 6.95995C11.3738 7.11741 11.8352 7.37628 11.9691 7.91891C12.2391 9.04779 12.1718 10.2514 11.9668 11.3874C11.9093 11.6996 11.7649 12.0252 11.4979 12.1462C8.98362 13.2545 6.4777 14.3942 3.94606 15.4492C3.59131 15.6164 3.16623 15.3514 3.04672 14.9359C2.93628 14.6157 3.02932 14.2357 3.2449 14.0098C4.13668 13.0109 5.02165 12.0021 5.91948 11.0093C6.17364 10.7095 6.65773 10.9533 6.66075 11.3723C6.69101 11.6827 6.45198 11.8731 6.28709 12.0643C6.10887 12.2539 5.93434 12.4481 5.76119 12.6441C5.47265 12.9706 5.85393 13.5031 6.25313 13.3284C7.39492 12.8287 8.53388 12.3197 9.67546 11.8192C10.002 11.676 9.99426 11.2082 9.66294 11.0764C8.23649 10.5088 6.81241 9.93263 5.38472 9.36804C4.99518 9.20791 4.59883 9.05846 4.23652 8.82272C3.94228 8.6368 3.7373 8.28809 3.66771 7.90735C3.47559 6.85053 3.55577 5.75457 3.73352 4.7031C3.77361 4.42555 3.91505 4.1569 4.13894 4.04214C6.83699 2.8839 9.50478 1.62338 12.2285 0.551436ZM4.92167 5.7013C4.71234 5.61126 4.49448 5.77963 4.47671 6.0068C4.43609 6.52587 4.44418 7.05045 4.5247 7.56398C4.54361 7.6814 4.56101 7.82906 4.66388 7.88956C4.91349 8.05324 5.18427 8.1671 5.45355 8.2783C7.19758 8.96527 8.93973 9.65817 10.684 10.3441C10.9312 10.4413 11.2038 10.2749 11.2204 10.0098C11.2558 9.44331 11.249 8.86758 11.1174 8.32371C11.0941 8.22752 11.0321 8.14503 10.9448 8.09848C10.6899 7.96263 10.418 7.87314 10.1538 7.76502C8.41557 7.06936 6.66756 6.41019 4.93164 5.70564C4.92832 5.70418 4.925 5.70273 4.92167 5.7013Z" fill="url(#paint0_linear_650_113)" stroke="url(#paint1_linear_650_113)" stroke-width="0.8"/>
<defs>
<linearGradient id="paint0_linear_650_113" x1="8.77375" y1="10.456" x2="8.77375" y2="0.674941" gradientUnits="userSpaceOnUse">
<stop stop-color="#FF5E3F"/>
<stop offset="1" stop-color="#FFB93F"/>
</linearGradient>
<linearGradient id="paint1_linear_650_113" x1="8.77375" y1="10.456" x2="8.77375" y2="0.674941" gradientUnits="userSpaceOnUse">
<stop stop-color="#FF5E3F"/>
<stop offset="1" stop-color="#FFB93F"/>
</linearGradient>
</defs>
</svg>
