<svg width="48" height="48" viewBox="0 0 48 48" fill="none" xmlns="http://www.w3.org/2000/svg">
<path fill-rule="evenodd" clip-rule="evenodd" d="M8.9914 4.01464C8.74784 4.05864 8.52157 4.19534 8.36915 4.41376L2.17489 13.2557C1.86848 13.6926 1.97533 14.296 2.41217 14.6024L16.7539 24.5443L24.3765 19.2473C24.5666 19.1137 24.7882 19.0572 25.0034 19.0744L25.0097 19.0682H39.639C39.9014 19.0682 40.1402 19.175 40.3147 19.3447C40.3351 19.3651 40.5347 19.5537 40.8269 19.8695V19.8601L45.6117 24.5836L45.7154 24.483C46.0925 24.1043 46.0972 23.4868 45.7154 23.1128L41.0563 18.5402C40.6525 18.1018 40.3587 17.8362 40.3335 17.8095C40.156 17.6304 39.9108 17.522 39.639 17.522H28.6521L9.71579 4.17492C9.49738 4.02092 9.23496 3.97221 8.9914 4.01464Z" fill="url(#paint0_linear_1060_87)"/>
<path fill-rule="evenodd" clip-rule="evenodd" d="M25.0031 17.5031L25.0078 17.4968H39.6386C39.901 17.4968 40.1399 17.6021 40.3143 17.7734C40.3347 17.7922 40.5343 17.9824 40.8266 18.2982V18.2888L45.715 23.1144C46.0953 23.49 46.0921 24.1043 45.715 24.483L41.0921 29.051C40.6694 29.5129 40.3567 29.7942 40.3316 29.8209C40.154 30 39.9105 30.1116 39.6386 30.1116H28.6455L9.71386 43.4209C9.27859 43.7273 8.67363 43.6205 8.36878 43.1837L2.1761 34.3401C1.86812 33.9017 1.97497 33.2449 2.4118 32.9385L24.3777 17.6744C24.5662 17.5424 24.7878 17.4874 25.0031 17.5031Z" fill="url(#paint1_linear_1060_87)"/>
<defs>
<linearGradient id="paint0_linear_1060_87" x1="24" y1="4" x2="24" y2="24.5836" gradientUnits="userSpaceOnUse">
<stop stop-color="#00FFE0"/>
<stop offset="1" stop-color="#078AA7"/>
</linearGradient>
<linearGradient id="paint1_linear_1060_87" x1="23.9995" y1="17.4968" x2="23.9995" y2="43.5958" gradientUnits="userSpaceOnUse">
<stop stop-color="#00FFE0"/>
<stop offset="1" stop-color="#078AA7"/>
</linearGradient>
</defs>
</svg>
