<svg width="64" height="64" viewBox="0 0 64 64" fill="none" xmlns="http://www.w3.org/2000/svg">
<path d="M32 59C46.9117 59 59 46.9117 59 32C59 17.0883 46.9117 5 32 5C17.0883 5 5 17.0883 5 32C5 46.9117 17.0883 59 32 59Z" stroke="url(#paint0_linear_453_3559)" stroke-width="5" stroke-linecap="round" stroke-linejoin="round"/>
<path fill-rule="evenodd" clip-rule="evenodd" d="M27.958 12.9711C27.8182 12.4392 27.4656 11.9883 26.9831 11.7245C26.5006 11.4606 25.9307 11.4071 25.4075 11.5765C22.1725 12.6239 19.2321 14.4236 16.8276 16.8279C14.4231 19.2322 12.623 22.1724 11.5753 25.4073C11.4058 25.9306 11.4593 26.5005 11.7232 26.9831C11.9871 27.4657 12.4381 27.8183 12.9701 27.958L24.4184 30.9641C24.3725 31.3029 24.3488 31.6487 24.3488 32C24.3488 32.3513 24.3725 32.6971 24.4184 33.0359L12.9701 36.042C12.4381 36.1817 11.9872 36.5342 11.7233 37.0168C11.4594 37.4993 11.4058 38.0692 11.5752 38.5925C12.6227 41.8275 14.4224 44.7679 16.8266 47.1724C19.2309 49.5769 22.1712 51.377 25.4061 52.4247C25.9293 52.5941 26.4992 52.5407 26.9817 52.2769C27.4643 52.013 27.8169 51.5622 27.9567 51.0303L30.9648 39.5818C31.3033 39.6276 31.6489 39.6512 32 39.6512C32.351 39.6512 32.6965 39.6276 33.035 39.5818L36.042 51.0301C36.1817 51.562 36.5343 52.0129 37.0169 52.2768C37.4994 52.5406 38.0693 52.5942 38.5925 52.4247C41.8277 51.3772 44.7682 49.5773 47.1727 47.1727C49.5773 44.7682 51.3772 41.8277 52.4247 38.5925C52.5942 38.0693 52.5406 37.4994 52.2768 37.0168C52.0129 36.5343 51.5619 36.1817 51.0299 36.042L39.5816 33.0359C39.6275 32.6971 39.6512 32.3513 39.6512 32C39.6512 31.6491 39.6275 31.3036 39.5818 30.9652L51.0299 27.9593C51.5619 27.8196 52.0129 27.467 52.2767 26.9845C52.5406 26.5019 52.5942 25.932 52.4247 25.4087C51.3772 22.1736 49.5773 19.233 47.1727 16.8285C44.7682 14.424 41.8277 12.6241 38.5925 11.5765C38.0693 11.4071 37.4994 11.4606 37.0168 11.7245C36.5343 11.9884 36.1817 12.4393 36.042 12.9713L33.0359 24.4184C32.6971 24.3726 32.3513 24.3489 32 24.3489C31.649 24.3489 31.3035 24.3725 30.965 24.4183L27.958 12.9711ZM28.6172 30.6235C28.657 30.5605 28.6936 30.4946 28.7268 30.4261C29.0875 29.6808 29.6878 29.0782 30.4318 28.7147C30.4807 28.6907 30.5284 28.665 30.5746 28.6376C31.0125 28.4517 31.4943 28.3489 32 28.3489C32.487 28.3489 32.9518 28.4442 33.3766 28.6173C33.4397 28.6571 33.5055 28.6937 33.574 28.7268C34.3192 29.0874 34.9219 29.6878 35.2853 30.4316C35.3093 30.4807 35.335 30.5284 35.3625 30.5748C35.5484 31.0127 35.6512 31.4943 35.6512 32C35.6512 32.4869 35.5559 32.9515 35.3829 33.3763C35.343 33.4394 35.3063 33.5054 35.2732 33.574C34.9126 34.3192 34.3122 34.9219 33.5684 35.2853C33.5191 35.3093 33.4713 35.3352 33.4248 35.3627C32.9871 35.5485 32.5055 35.6512 32 35.6512C31.4945 35.6512 31.0129 35.5485 30.5751 35.3627C30.5287 35.3352 30.4809 35.3094 30.4318 35.2853C29.6878 34.9218 29.0875 34.3191 28.7268 33.5739C28.6936 33.5053 28.657 33.4394 28.6171 33.3763C28.4441 32.9516 28.3488 32.4869 28.3488 32C28.3488 31.5131 28.4442 31.0483 28.6172 30.6235ZM27.246 26.0047L24.6596 16.1589C22.8047 17.0203 21.1099 18.2026 19.6559 19.6565C18.2019 21.1102 17.0196 22.8048 16.158 24.6595L26.0053 27.2452C26.3701 26.7859 26.7866 26.3695 27.246 26.0047ZM37.9954 27.2461C37.6306 26.7867 37.2142 26.3702 36.7548 26.0053L39.3405 16.1591C41.1955 17.0205 42.8903 18.2029 44.3443 19.6569C45.7983 21.1109 46.9807 22.8057 47.8422 24.6607L37.9954 27.2461ZM36.754 37.9954C37.2134 37.6306 37.6299 37.2142 37.9948 36.7548L47.8422 39.3405C46.9807 41.1955 45.7983 42.8903 44.3443 44.3443C42.8903 45.7983 41.1955 46.9808 39.3404 47.8422L36.754 37.9954ZM26.0052 36.7548C26.37 37.2141 26.7865 37.6306 27.2459 37.9953L24.6586 47.8421C22.8037 46.9806 21.1091 45.7981 19.6552 44.3441C18.2014 42.8902 17.0191 41.1955 16.1578 39.3406L26.0052 36.7548Z" fill="url(#paint1_linear_453_3559)"/>
<defs>
<linearGradient id="paint0_linear_453_3559" x1="32" y1="59" x2="31" y2="2" gradientUnits="userSpaceOnUse">
<stop stop-color="#E80058"/>
<stop offset="0.9998" stop-color="#FF867E"/>
<stop offset="1" stop-color="#FF001D"/>
</linearGradient>
<linearGradient id="paint1_linear_453_3559" x1="32" y1="62.867" x2="32" y2="4.76532" gradientUnits="userSpaceOnUse">
<stop stop-color="#E80058"/>
<stop offset="0.9998" stop-color="#FF867E"/>
</linearGradient>
</defs>
</svg>
