<svg width="128" height="128" viewBox="0 0 128 128" fill="none" xmlns="http://www.w3.org/2000/svg">
<path d="M64.0002 16C51.2216 16 38.9663 21.0763 29.9305 30.1121C20.8946 39.148 15.8184 51.4032 15.8184 64.1818C15.8184 76.9604 20.8946 89.2157 29.9305 98.2515C38.9663 107.287 51.2216 112.364 64.0002 112.364C76.7788 112.364 89.034 107.287 98.0699 98.2515C107.106 89.2157 112.182 76.9604 112.182 64.1818C112.16 58.568 111.157 53.0011 109.219 47.7325L109.32 47.6555L109.069 47.2989C105.634 38.1159 99.4786 30.1996 91.4255 24.607C83.3724 19.0144 73.8048 16.0118 64.0002 16ZM64.0002 20.8182C71.9455 20.8215 79.7371 23.0077 86.5245 27.1381C93.3118 31.2684 98.8339 37.1841 102.488 44.2394L72.4224 65.7236L21.128 70.3828C20.8159 68.3303 20.6517 66.2579 20.6365 64.1818C20.6365 52.6811 25.2052 41.6514 33.3375 33.5191C41.4697 25.3868 52.4994 20.8182 64.0002 20.8182ZM105.143 50.6379C106.597 55.006 107.347 59.5779 107.364 64.1818C107.353 75.5992 102.839 86.5515 94.8028 94.6616L78.2572 69.848L105.143 50.6379ZM71.9405 72.5365L89.6425 99.0847C82.2134 104.562 73.2302 107.526 64.0002 107.545C54.7516 107.535 45.7486 104.568 38.306 99.0773C30.8635 93.5868 25.3714 85.8606 22.6318 77.0271L71.9405 72.5365Z" fill="url(#paint0_linear_714_99)" stroke="url(#paint1_linear_714_99)" stroke-width="8"/>
<path fill-rule="evenodd" clip-rule="evenodd" d="M107.364 54.5452C112.686 54.5452 117 50.2308 117 44.9088C117 39.5868 112.686 35.2725 107.364 35.2725C102.042 35.2725 97.7275 39.5868 97.7275 44.9088C97.7275 50.2308 102.042 54.5452 107.364 54.5452ZM30.2727 73.818C30.2727 79.14 25.9584 83.4544 20.6364 83.4544C15.3143 83.4544 11 79.14 11 73.818C11 68.496 15.3143 64.1816 20.6364 64.1816C25.9584 64.1816 30.2727 68.496 30.2727 73.818ZM102.545 97.9088C102.545 103.231 98.2308 107.545 92.9088 107.545C87.5868 107.545 83.2725 103.231 83.2725 97.9088C83.2725 92.5868 87.5868 88.2725 92.9088 88.2725C98.2308 88.2725 102.545 92.5868 102.545 97.9088ZM83.2727 68.9996C83.2727 74.3217 78.9584 78.636 73.6364 78.636C68.3143 78.636 64 74.3217 64 68.9996C64 63.6776 68.3143 59.3633 73.6364 59.3633C78.9584 59.3633 83.2727 63.6776 83.2727 68.9996Z" fill="url(#paint2_linear_714_99)"/>
<path d="M111 44.9088C111 46.9171 109.372 48.5452 107.364 48.5452V60.5452C116 60.5452 123 53.5445 123 44.9088H111ZM107.364 41.2725C109.372 41.2725 111 42.9005 111 44.9088H123C123 36.2731 116 29.2725 107.364 29.2725V41.2725ZM103.728 44.9088C103.728 42.9005 105.356 41.2725 107.364 41.2725V29.2725C98.7282 29.2725 91.7275 36.2731 91.7275 44.9088H103.728ZM107.364 48.5452C105.356 48.5452 103.728 46.9171 103.728 44.9088H91.7275C91.7275 53.5446 98.7282 60.5452 107.364 60.5452V48.5452ZM20.6364 89.4544C29.2721 89.4544 36.2727 82.4537 36.2727 73.818H24.2727C24.2727 75.8263 22.6447 77.4544 20.6364 77.4544V89.4544ZM5 73.818C5 82.4537 12.0006 89.4544 20.6364 89.4544V77.4544C18.6281 77.4544 17 75.8263 17 73.818H5ZM20.6364 58.1816C12.0006 58.1816 5 65.1823 5 73.818H17C17 71.8097 18.6281 70.1816 20.6364 70.1816V58.1816ZM36.2727 73.818C36.2727 65.1823 29.2721 58.1816 20.6364 58.1816V70.1816C22.6447 70.1816 24.2727 71.8097 24.2727 73.818H36.2727ZM92.9088 113.545C101.545 113.545 108.545 106.545 108.545 97.9088H96.5452C96.5452 99.9171 94.9171 101.545 92.9088 101.545V113.545ZM77.2725 97.9088C77.2725 106.545 84.2731 113.545 92.9088 113.545V101.545C90.9005 101.545 89.2725 99.9171 89.2725 97.9088H77.2725ZM92.9088 82.2725C84.2731 82.2725 77.2725 89.2731 77.2725 97.9088H89.2725C89.2725 95.9005 90.9005 94.2725 92.9088 94.2725V82.2725ZM108.545 97.9088C108.545 89.2731 101.545 82.2725 92.9088 82.2725V94.2725C94.9171 94.2725 96.5452 95.9005 96.5452 97.9088H108.545ZM73.6364 84.636C82.2721 84.636 89.2727 77.6354 89.2727 68.9996H77.2727C77.2727 71.008 75.6447 72.636 73.6364 72.636V84.636ZM58 68.9996C58 77.6354 65.0006 84.636 73.6364 84.636V72.636C71.6281 72.636 70 71.008 70 68.9996H58ZM73.6364 53.3633C65.0006 53.3633 58 60.3639 58 68.9996H70C70 66.9913 71.6281 65.3633 73.6364 65.3633V53.3633ZM89.2727 68.9996C89.2727 60.3639 82.2721 53.3633 73.6364 53.3633V65.3633C75.6447 65.3633 77.2727 66.9913 77.2727 68.9996H89.2727Z" fill="url(#paint3_linear_714_99)"/>
<defs>
<linearGradient id="paint0_linear_714_99" x1="64.0002" y1="16" x2="64.0002" y2="112.364" gradientUnits="userSpaceOnUse">
<stop offset="0.119792" stop-color="#7730F6"/>
<stop offset="0.84375" stop-color="#39D9FD"/>
</linearGradient>
<linearGradient id="paint1_linear_714_99" x1="64.0002" y1="16" x2="64.0002" y2="112.364" gradientUnits="userSpaceOnUse">
<stop offset="0.119792" stop-color="#7730F6"/>
<stop offset="0.84375" stop-color="#39D9FD"/>
</linearGradient>
<linearGradient id="paint2_linear_714_99" x1="64.0001" y1="78.1007" x2="64.0001" y2="35.2725" gradientUnits="userSpaceOnUse">
<stop stop-color="#5558FF"/>
<stop offset="1" stop-color="#00C0FF"/>
</linearGradient>
<linearGradient id="paint3_linear_714_99" x1="64.0001" y1="78.1007" x2="64.0001" y2="35.2725" gradientUnits="userSpaceOnUse">
<stop stop-color="#5558FF"/>
<stop offset="1" stop-color="#00C0FF"/>
</linearGradient>
</defs>
</svg>
