<svg width="16" height="16" viewBox="0 0 16 16" fill="none" xmlns="http://www.w3.org/2000/svg">
<path d="M12.9698 11.697C12.6183 11.3455 12.0485 11.3455 11.697 11.697C11.3455 12.0485 11.3455 12.6183 11.697 12.9698L12.9698 11.697ZM14.3636 15.6364C14.715 15.9879 15.2849 15.9879 15.6364 15.6364C15.9878 15.285 15.9878 14.7151 15.6364 14.3636L14.3636 15.6364ZM6.95265 4.92996C7.44359 4.8522 7.77854 4.39118 7.70078 3.90024C7.62302 3.40931 7.16201 3.07436 6.67107 3.15212L6.95265 4.92996ZM3.1521 6.67109C3.07434 7.16203 3.40929 7.62304 3.90022 7.7008C4.39116 7.77856 4.85218 7.44361 4.92994 6.95267L3.1521 6.67109ZM11.697 12.9698L14.3636 15.6364L15.6364 14.3636L12.9698 11.697L11.697 12.9698ZM7 12.1C4.18335 12.1 1.9 9.81665 1.9 7H0.1C0.1 10.8108 3.18924 13.9 7 13.9V12.1ZM12.1 7C12.1 9.81665 9.81665 12.1 7 12.1V13.9C10.8108 13.9 13.9 10.8108 13.9 7H12.1ZM7 1.9C9.81665 1.9 12.1 4.18335 12.1 7H13.9C13.9 3.18924 10.8108 0.1 7 0.1V1.9ZM7 0.1C3.18924 0.1 0.1 3.18924 0.1 7H1.9C1.9 4.18335 4.18335 1.9 7 1.9V0.1ZM6.67107 3.15212C4.85966 3.43902 3.439 4.85968 3.1521 6.67109L4.92994 6.95267C5.09485 5.91147 5.91145 5.09487 6.95265 4.92996L6.67107 3.15212Z" fill="url(#paint0_linear_525_631)"/>
<defs>
<linearGradient id="paint0_linear_525_631" x1="7.99999" y1="15" x2="7.99999" y2="1" gradientUnits="userSpaceOnUse">
<stop stop-color="#A93AFF"/>
<stop offset="1" stop-color="#FF81FF"/>
</linearGradient>
</defs>
</svg>
