<svg width="16" height="16" viewBox="0 0 16 16" fill="none" xmlns="http://www.w3.org/2000/svg">
<path d="M10.5 11.5C11.0523 11.5 11.5 11.0523 11.5 10.5C11.5 9.94772 11.0523 9.5 10.5 9.5C9.94772 9.5 9.5 9.94772 9.5 10.5C9.5 11.0523 9.94772 11.5 10.5 11.5Z" fill="url(#paint0_linear_550_939)" stroke="url(#paint1_linear_550_939)" stroke-width="0.6"/>
<path d="M3.5 4.5C4.05228 4.5 4.5 4.05228 4.5 3.5C4.5 2.94772 4.05228 2.5 3.5 2.5C2.94772 2.5 2.5 2.94772 2.5 3.5C2.5 4.05228 2.94772 4.5 3.5 4.5Z" fill="url(#paint2_linear_550_939)" stroke="url(#paint3_linear_550_939)" stroke-width="0.6"/>
<path d="M13.5 15.5C13.1044 15.5 12.7178 15.3827 12.3889 15.1629C12.06 14.9432 11.8036 14.6308 11.6522 14.2654C11.5009 13.8999 11.4613 13.4978 11.5384 13.1098C11.6156 12.7219 11.8061 12.3655 12.0858 12.0858C12.3655 11.8061 12.7219 11.6156 13.1098 11.5384C13.4978 11.4613 13.8999 11.5009 14.2654 11.6522C14.6308 11.8036 14.9432 12.06 15.1629 12.3889C15.3827 12.7178 15.5 13.1044 15.5 13.5C15.4984 14.0299 15.2872 14.5377 14.9125 14.9125C14.5377 15.2872 14.0299 15.4984 13.5 15.5ZM13.5 12.5C13.3022 12.5 13.1089 12.5587 12.9444 12.6685C12.78 12.7784 12.6518 12.9346 12.5761 13.1173C12.5004 13.3 12.4806 13.5011 12.5192 13.6951C12.5578 13.8891 12.653 14.0673 12.7929 14.2071C12.9327 14.347 13.1109 14.4422 13.3049 14.4808C13.4989 14.5194 13.7 14.4996 13.8827 14.4239C14.0654 14.3482 14.2216 14.22 14.3315 14.0556C14.4414 13.8911 14.5 13.6978 14.5 13.5C14.4992 13.235 14.3936 12.9811 14.2062 12.7938C14.0189 12.6064 13.765 12.5008 13.5 12.5Z" fill="url(#paint4_linear_550_939)" stroke="url(#paint5_linear_550_939)" stroke-width="0.6"/>
<path d="M15 7.99969C14.9946 6.14484 14.2554 4.3675 12.9438 3.05591C11.6322 1.74433 9.85485 1.0051 8 0.999687C6.94503 0.984639 5.90431 1.22577 4.96627 1.69969C4.76314 1.80231 4.7031 2.05903 4.82674 2.2501L4.96604 2.46538C5.07118 2.62788 5.28052 2.68621 5.45723 2.60723V2.60723C5.77411 2.4656 6.08114 2.80288 5.94837 3.12358C5.42299 4.39262 5.10867 5.7405 5.0192 7.11366C5.00518 7.32878 4.82907 7.49969 4.6135 7.49969H2.42806C2.19649 7.49969 2.01199 7.30329 2.04534 7.07413C2.12797 6.5065 2.29775 5.95479 2.54885 5.4386C2.6319 5.26788 2.59704 5.06045 2.45357 4.93611L2.3137 4.8149C2.12461 4.65101 1.83248 4.69889 1.72126 4.92304C1.24776 5.8773 0.999943 6.93009 1 7.99969C0.999869 8.91898 1.18084 9.82929 1.53258 10.6786C1.88431 11.528 2.39992 12.2997 3.04996 12.9497C3.7 13.5998 4.47172 14.1154 5.32106 14.4671C6.1704 14.8188 7.08071 14.9998 8 14.9997C8.76855 15.0069 9.53165 14.8815 10.2559 14.6299C10.4524 14.5617 10.5518 14.3472 10.4892 14.1488L10.4329 13.9705C10.3617 13.7451 10.1118 13.6315 9.8879 13.7074C9.24923 13.924 8.57664 14.0261 7.90123 14.0085C7.77457 14.0052 7.65884 13.9373 7.59182 13.8298C6.66611 12.3446 6.1255 10.6531 6.01738 8.90864C6.00349 8.68455 6.18481 8.49969 6.40933 8.49969H14.6386C14.8217 8.49969 14.9866 8.37527 14.9984 8.19255C15.0026 8.12843 15.0031 8.06404 15 7.99969ZM5.99601 12.9448C6.13485 13.2699 5.83732 13.6129 5.51696 13.4634C4.86691 13.1602 4.26943 12.7506 3.75 12.2497C2.86117 11.3402 2.27329 10.184 2.05931 8.93747C2.01929 8.70429 2.20525 8.49969 2.44185 8.49969H4.61461C4.82974 8.49969 5.00564 8.66991 5.02027 8.88454C5.11565 10.2844 5.44593 11.6569 5.99601 12.9448ZM6.40824 7.49969C6.18414 7.49969 6.003 7.31549 6.01609 7.09176C6.11751 5.3592 6.63809 3.67602 7.53423 2.18757C7.60508 2.0699 7.73332 1.99969 7.87068 1.99969H8.12932C8.26668 1.99969 8.39492 2.0699 8.46577 2.18757C9.36191 3.67602 9.88249 5.3592 9.98391 7.09176C9.997 7.31549 9.81586 7.49969 9.59176 7.49969H6.40824ZM11.3919 7.49969C11.1742 7.49969 10.9972 7.32549 10.9854 7.10809C10.9095 5.70886 10.5816 4.33633 10.0191 3.05623C9.87637 2.73153 10.1708 2.38435 10.4919 2.5349C11.304 2.9156 12.0249 3.47403 12.599 4.17342C13.2834 5.00737 13.7306 6.00711 13.8977 7.06766C13.9342 7.29901 13.749 7.49969 13.5147 7.49969H11.3919Z" fill="url(#paint6_linear_550_939)" stroke="url(#paint7_linear_550_939)" stroke-width="0.6"/>
<defs>
<linearGradient id="paint0_linear_550_939" x1="9.93122" y1="8.9893" x2="12.1142" y2="10.4887" gradientUnits="userSpaceOnUse">
<stop stop-color="#ABDAFB"/>
<stop offset="1" stop-color="#638FFF"/>
</linearGradient>
<linearGradient id="paint1_linear_550_939" x1="9.93122" y1="8.9893" x2="12.1142" y2="10.4887" gradientUnits="userSpaceOnUse">
<stop stop-color="#ABDAFB"/>
<stop offset="1" stop-color="#638FFF"/>
</linearGradient>
<linearGradient id="paint2_linear_550_939" x1="2.93122" y1="1.9893" x2="5.11419" y2="3.48875" gradientUnits="userSpaceOnUse">
<stop stop-color="#ABDAFB"/>
<stop offset="1" stop-color="#638FFF"/>
</linearGradient>
<linearGradient id="paint3_linear_550_939" x1="2.93122" y1="1.9893" x2="5.11419" y2="3.48875" gradientUnits="userSpaceOnUse">
<stop stop-color="#ABDAFB"/>
<stop offset="1" stop-color="#638FFF"/>
</linearGradient>
<linearGradient id="paint4_linear_550_939" x1="12.3624" y1="10.4786" x2="16.7284" y2="13.4775" gradientUnits="userSpaceOnUse">
<stop stop-color="#ABDAFB"/>
<stop offset="1" stop-color="#638FFF"/>
</linearGradient>
<linearGradient id="paint5_linear_550_939" x1="12.3624" y1="10.4786" x2="16.7284" y2="13.4775" gradientUnits="userSpaceOnUse">
<stop stop-color="#ABDAFB"/>
<stop offset="1" stop-color="#638FFF"/>
</linearGradient>
<linearGradient id="paint6_linear_550_939" x1="4.01898" y1="-2.57614" x2="19.3013" y2="7.92179" gradientUnits="userSpaceOnUse">
<stop stop-color="#ABDAFB"/>
<stop offset="1" stop-color="#638FFF"/>
</linearGradient>
<linearGradient id="paint7_linear_550_939" x1="4.01898" y1="-2.57614" x2="19.3013" y2="7.92179" gradientUnits="userSpaceOnUse">
<stop stop-color="#ABDAFB"/>
<stop offset="1" stop-color="#638FFF"/>
</linearGradient>
</defs>
</svg>
