<svg width="128" height="128" viewBox="0 0 128 128" fill="none" xmlns="http://www.w3.org/2000/svg">
<path fill-rule="evenodd" clip-rule="evenodd" d="M85.1211 11.4382C85.6685 11.6895 86.1288 11.9007 86.5746 12.0686L86.6384 12.0926L86.7003 12.1208C99.7097 18.0575 110.225 29.3353 115.319 42.8516C120.064 55.2394 120.222 69.3366 115.788 81.8309C109.11 101.271 91.062 116.024 70.8493 118.355C59.0468 119.854 46.7777 117.413 36.4818 111.315C25.8614 105.104 17.3998 95.213 12.888 83.6464C7.51103 70.0335 7.71022 54.2673 13.4916 40.8161C19.3873 26.8807 31.1234 15.6044 45.2299 10.5068C47.2147 9.6517 49.3328 10.1075 50.8508 11.1748C52.3695 12.2424 53.5151 14.0816 53.3739 16.2632C53.3929 19.418 50.8369 21.3584 48.6839 22.0278C38.4054 25.9543 29.7486 34.0838 25.0225 44.1783L25.0194 44.185C20.1762 54.4303 19.5445 66.6495 23.2659 77.3805L23.2704 77.3935C26.666 87.4078 33.8027 96.0448 42.8957 101.215L42.9045 101.22C51.1345 105.955 60.9509 107.75 70.2983 106.314L70.3101 106.312C80.4509 104.816 89.9973 99.468 96.6661 91.5542L96.6708 91.5487L96.6755 91.5432C102.867 84.3027 106.585 74.9193 107.034 65.3351L107.035 65.3252L107.036 65.3153C107.651 54.493 104.078 43.4972 97.2638 35.1679L97.2577 35.1605L97.2517 35.153C92.3033 28.984 85.6236 24.3139 78.2354 21.5965C75.7683 20.8362 74.5325 18.5945 74.3388 16.5397C74.1445 14.48 74.9398 12.0428 77.1761 10.8015C79.1485 9.65719 81.1308 9.9314 82.6883 10.4365C83.4615 10.6873 84.2023 11.0179 84.8402 11.3095L85.1211 11.4382ZM88.2137 44.3441C80.3663 33.626 65.3477 29.1671 53.0768 34.1793L53.0308 34.1981L52.9861 34.2199C50.4804 35.4428 49.8511 38.139 50.3282 40.2629C50.806 42.39 52.533 44.556 55.3405 44.556V44.556C55.4291 44.556 55.5176 44.5481 55.6049 44.5325V44.5325C56.5057 44.3712 57.4 44.171 58.2596 43.9784L58.2763 43.9746L58.2828 43.9731C59.1446 43.78 59.9725 43.5946 60.799 43.4447C62.4643 43.1425 64.0302 43.0035 65.5797 43.2444L65.6392 43.2537L65.6992 43.2581C75.0679 43.9529 83.1884 52.4186 83.5612 61.9998L83.5624 62.0306L83.5649 62.0613C84.2963 71.1854 77.904 80.19 69.2482 82.5731L69.2335 82.5771L69.219 82.5815C63.2212 84.3639 56.4117 82.9625 51.5508 78.959L51.5403 78.9504L51.5297 78.9419C48.6569 76.6621 46.5009 73.5194 45.253 70.0261C44.4694 67.8324 46.3138 65.8705 48.6271 65.5966V65.5966V65.5966C48.7261 65.5849 48.8237 65.5633 48.9185 65.5322V65.5322C51.1746 64.7918 52.3045 61.9277 50.8994 59.8397C47.9633 54.9177 44.9927 50.009 41.9877 45.1274C41.3399 43.7533 39.979 43.0925 38.7262 43.0534C37.457 43.0139 36.0368 43.6069 35.3348 45.0123C32.315 49.9163 29.3289 54.8418 26.3834 59.7958C25.6368 60.8751 25.6023 62.1808 25.9908 63.2328C26.3869 64.3054 27.2924 65.2979 28.6196 65.5925L28.7044 65.6113L28.7909 65.6202C30.2383 65.7693 31.7366 65.7517 33.1267 65.7353V65.7353C33.2025 65.7344 33.2661 65.7926 33.2722 65.8682C34.078 75.7777 39.8192 85.0839 48.3265 90.0814C57.4657 95.6097 69.4499 95.7561 78.7251 90.4805C86.1399 86.3656 91.7055 79.0005 93.6446 70.6569C95.8511 61.6456 93.8309 51.6962 88.2137 44.3441Z" fill="url(#paint0_linear_1005_151)"/>
<defs>
<linearGradient id="paint0_linear_1005_151" x1="149.394" y1="-13.421" x2="9.00002" y2="132.098" gradientUnits="userSpaceOnUse">
<stop stop-color="#D800BD"/>
<stop offset="0.408098" stop-color="#F92D7A"/>
<stop offset="0.590073" stop-color="#FF4A52"/>
<stop offset="1" stop-color="#FFB243"/>
</linearGradient>
</defs>
</svg>
