<svg width="64" height="64" viewBox="0 0 64 64" fill="none" xmlns="http://www.w3.org/2000/svg">
<path d="M55.7261 35.3118L50.0166 36.6724C49.2984 36.8553 48.6113 37.144 47.978 37.5292L43.3343 34.678C43.8358 32.8354 43.8358 30.8923 43.3343 29.0498L47.978 26.1985C48.6113 26.5837 49.2984 26.8725 50.0166 27.0553C50.0166 27.0553 56.2671 28.5111 56.5364 28.5111C58.4598 28.4928 60.0041 26.9186 59.9857 24.9951C59.9705 23.4064 58.8821 22.0293 57.3397 21.6476L51.6209 20.28C51.4911 20.2484 51.38 20.1643 51.3145 20.0479C51.2442 19.9358 51.2224 19.8001 51.2541 19.6718L52.6147 13.96C53.1713 12.1188 52.13 10.1749 50.2888 9.61837C48.4476 9.06181 46.5038 10.1031 45.9472 11.9443C45.9059 12.0808 45.8731 12.2197 45.8488 12.3602L44.4882 18.072C44.3286 18.7878 44.2762 19.5233 44.3327 20.2546L39.689 23.1174C38.4953 22.0894 37.1038 21.3165 35.6002 20.8466V15.3786C36.2592 15.0447 36.8635 14.6125 37.3927 14.0969L41.5465 9.94541C42.9064 8.58481 42.9059 6.37942 41.5453 5.0196C40.1847 3.65966 37.9793 3.66021 36.6195 5.0208L32.4679 9.1745C32.2758 9.36687 31.9642 9.36709 31.7718 9.17494C31.7717 9.17483 31.7715 9.17461 31.7714 9.1745L27.6153 5.02069C26.2547 3.6601 24.0488 3.6601 22.6882 5.02069C21.3277 6.38128 21.3277 8.58711 22.6882 9.9477L26.8421 14.0992C27.3713 14.6139 27.9757 15.0453 28.6345 15.3786V20.8466C27.1342 21.3208 25.7467 22.0967 24.5573 23.1267L19.9019 20.2546C19.9601 19.518 19.9076 18.7768 19.7464 18.0557L18.3858 12.3602C17.9698 10.4823 16.1101 9.29714 14.2322 9.71314C12.3543 10.1291 11.1691 11.9888 11.5851 13.8667C11.5931 13.9026 11.6016 13.9383 11.6107 13.9738L12.9713 19.6856C13.003 19.8141 12.9812 19.9498 12.911 20.0618C12.8454 20.1783 12.7343 20.2623 12.6045 20.2939L6.89497 21.6475C5.02393 22.0942 3.86927 23.973 4.31598 25.8439C4.6898 27.4099 6.08832 28.5156 7.69823 28.518C7.96755 28.518 14.218 27.0622 14.218 27.0622C14.9362 26.8794 15.6233 26.5906 16.2566 26.2054L20.9003 29.0567C20.3988 30.8992 20.3988 32.8423 20.9003 34.6848L16.2566 37.5361C15.6233 37.1509 14.9362 36.8621 14.218 36.6793L8.50848 35.3187C6.67013 34.7527 4.72106 35.7843 4.15509 37.6227C3.58912 39.461 4.62072 41.4101 6.45907 41.9761C6.60193 42.02 6.74752 42.0548 6.89475 42.08L12.6043 43.4406C12.7341 43.4722 12.8452 43.5563 12.9107 43.6728C12.981 43.7848 13.0028 43.9205 12.9711 44.0489L11.6106 49.7608C11.1618 51.6317 12.3146 53.5122 14.1855 53.961C16.0564 54.4098 17.937 53.257 18.3858 51.3861L19.7464 45.6743C19.9078 44.9525 19.9603 44.2105 19.9019 43.4732L24.5573 40.6103C25.7467 41.6403 27.1342 42.4162 28.6345 42.8904V48.3491C27.976 48.6848 27.3717 49.1176 26.8421 49.6331L22.6882 53.7799C21.3277 55.1405 21.3277 57.3463 22.6882 58.7069C24.0488 60.0675 26.2547 60.0675 27.6153 58.7069L31.7668 54.5531C31.9589 54.3607 32.2705 54.3605 32.4629 54.5527C32.463 54.5528 32.4632 54.553 32.4633 54.5531L36.6149 58.7069C37.9755 60.0675 40.1813 60.0675 41.5419 58.7069C42.9025 57.3463 42.9025 55.1405 41.5419 53.7799L37.3881 49.6284C36.8595 49.1149 36.2568 48.6837 35.6002 48.349V42.881C37.1005 42.4068 38.488 41.6309 39.6774 40.6009L44.3211 43.4638C44.2629 44.2004 44.3154 44.9415 44.4766 45.6626L45.8372 51.3744C46.286 53.2453 48.1666 54.3981 50.0375 53.9493C51.9084 53.5005 53.0612 51.62 52.6124 49.7491L51.2518 44.0373C51.2201 43.9088 51.2419 43.7731 51.3122 43.6612C51.3778 43.5447 51.4888 43.4606 51.6187 43.429L57.3282 42.0684C59.1991 41.6196 60.3519 39.7391 59.9031 37.8682C59.4543 35.9972 57.5738 34.8444 55.7028 35.2932L55.7261 35.3118ZM32.1173 36.5076C29.5526 36.5076 27.4736 34.4285 27.4736 31.8639C27.4736 29.2992 29.5526 27.2202 32.1173 27.2202C34.682 27.2202 36.761 29.2992 36.761 31.8639C36.761 34.4285 34.682 36.5076 32.1173 36.5076Z" fill="url(#paint0_linear_906_20)"/>
<defs>
<linearGradient id="paint0_linear_906_20" x1="32" y1="59.7274" x2="32" y2="4" gradientUnits="userSpaceOnUse">
<stop stop-color="#A93AFF"/>
<stop offset="1" stop-color="#FF81FF"/>
</linearGradient>
</defs>
</svg>
