<svg width="16" height="16" viewBox="0 0 16 16" fill="none" xmlns="http://www.w3.org/2000/svg">
<path d="M8 0.75C3.98825 0.75 0.75 3.99167 0.75 8C0.75 12.0118 3.9916 15.25 8 15.25C12.0118 15.25 15.25 12.0083 15.25 8C15.25 3.98825 12.0084 0.75 8 0.75ZM8 14.4004C4.47082 14.4004 1.59961 11.5292 1.59961 8C1.59961 4.47082 4.47082 1.59961 8 1.59961C11.5292 1.59961 14.4004 4.47082 14.4004 8C14.4004 11.5292 11.5292 14.4004 8 14.4004Z" fill="url(#paint0_linear_612_290)" stroke="url(#paint1_linear_612_290)"/>
<path fill-rule="evenodd" clip-rule="evenodd" d="M8 5.5C8.55228 5.5 9 5.05228 9 4.5C9 3.94772 8.55228 3.5 8 3.5C7.44772 3.5 7 3.94772 7 4.5C7 5.05228 7.44772 5.5 8 5.5ZM8.9001 7.5001C8.9001 7.00304 8.49715 6.6001 8.0001 6.6001C7.50304 6.6001 7.1001 7.00304 7.1001 7.5001V11.9334C7.1001 12.4305 7.50304 12.8334 8.0001 12.8334C8.49715 12.8334 8.9001 12.4305 8.9001 11.9334V7.5001Z" fill="url(#paint2_linear_612_290)"/>
<path d="M8.75 4.5C8.75 4.91421 8.41421 5.25 8 5.25V5.75C8.69036 5.75 9.25 5.19036 9.25 4.5H8.75ZM8 3.75C8.41421 3.75 8.75 4.08579 8.75 4.5H9.25C9.25 3.80964 8.69036 3.25 8 3.25V3.75ZM7.25 4.5C7.25 4.08579 7.58579 3.75 8 3.75V3.25C7.30964 3.25 6.75 3.80964 6.75 4.5H7.25ZM8 5.25C7.58579 5.25 7.25 4.91421 7.25 4.5H6.75C6.75 5.19036 7.30964 5.75 8 5.75V5.25ZM8.0001 6.8501C8.35908 6.8501 8.6501 7.14111 8.6501 7.5001H9.1501C9.1501 6.86497 8.63523 6.3501 8.0001 6.3501V6.8501ZM7.3501 7.5001C7.3501 7.14111 7.64111 6.8501 8.0001 6.8501V6.3501C7.36497 6.3501 6.8501 6.86497 6.8501 7.5001H7.3501ZM7.3501 11.9334V7.5001H6.8501V11.9334H7.3501ZM8.0001 12.5834C7.64111 12.5834 7.3501 12.2924 7.3501 11.9334H6.8501C6.8501 12.5686 7.36497 13.0834 8.0001 13.0834V12.5834ZM8.6501 11.9334C8.6501 12.2924 8.35908 12.5834 8.0001 12.5834V13.0834C8.63522 13.0834 9.1501 12.5686 9.1501 11.9334H8.6501ZM8.6501 7.5001V11.9334H9.1501V7.5001H8.6501Z" fill="url(#paint3_linear_612_290)"/>
<defs>
<linearGradient id="paint0_linear_612_290" x1="8" y1="15.25" x2="8" y2="0.75" gradientUnits="userSpaceOnUse">
<stop stop-color="#FD3A84"/>
<stop offset="1" stop-color="#FFA68D"/>
</linearGradient>
<linearGradient id="paint1_linear_612_290" x1="8" y1="15.25" x2="8" y2="0.75" gradientUnits="userSpaceOnUse">
<stop stop-color="#FD3A84"/>
<stop offset="1" stop-color="#FFA68D"/>
</linearGradient>
<linearGradient id="paint2_linear_612_290" x1="8" y1="12.8334" x2="8" y2="3.5" gradientUnits="userSpaceOnUse">
<stop stop-color="#FD3A84"/>
<stop offset="1" stop-color="#FFA68D"/>
</linearGradient>
<linearGradient id="paint3_linear_612_290" x1="8" y1="12.8334" x2="8" y2="3.5" gradientUnits="userSpaceOnUse">
<stop stop-color="#FD3A84"/>
<stop offset="1" stop-color="#FFA68D"/>
</linearGradient>
</defs>
</svg>
