<svg width="16" height="16" viewBox="0 0 16 16" fill="none" xmlns="http://www.w3.org/2000/svg">
<path d="M1 8C1 4.9359 1 3.40385 2.0248 2.4516C3.051 1.5 4.7002 1.5 8 1.5C11.2998 1.5 12.9497 1.5 13.9745 2.4516C15 3.4045 15 4.9359 15 8C15 11.0641 15 12.5961 13.9745 13.5477C12.9504 14.5 11.2998 14.5 8 14.5C4.7002 14.5 3.0503 14.5 2.0248 13.5477C1 12.5968 1 11.0641 1 8Z" stroke="url(#paint0_linear_508_275)" stroke-width="1.8"/>
<path fill-rule="evenodd" clip-rule="evenodd" d="M7.0087 4.64716C7.12374 4.53212 7.18837 4.37612 7.18837 4.21342C7.18837 4.0508 7.12374 3.8948 7.0087 3.77977C6.89367 3.66473 6.73767 3.6001 6.57497 3.6001H5.31354C5.1509 3.6001 4.99487 3.66473 4.87984 3.77977C4.7648 3.8948 4.7002 4.0508 4.7002 4.21342C4.7002 4.37612 4.7648 4.53212 4.87984 4.64716C4.99487 4.76219 5.1509 4.82682 5.31354 4.82682H6.57497C6.73767 4.82682 6.89367 4.76219 7.0087 4.64716ZM4.15361 7.22056C4.25774 7.09567 4.40721 7.01724 4.56916 7.00252C4.7311 6.98779 4.89226 7.03799 5.01721 7.14205L5.24374 7.33015L5.24415 7.33049L5.24416 7.33049C5.73875 7.74251 6.15977 8.09325 6.45082 8.41618C6.76077 8.75967 7.00202 9.15304 7.00202 9.65759C7.00202 10.1622 6.76077 10.5564 6.45082 10.899C6.16001 11.2217 5.73946 11.5721 5.24541 11.9837L5.24539 11.9837L5.24374 11.9851L5.01721 12.1731C4.95566 12.227 4.88396 12.268 4.80632 12.2938C4.72869 12.3195 4.64669 12.3294 4.56516 12.323C4.48362 12.3166 4.40421 12.294 4.33156 12.2563C4.25892 12.2187 4.19452 12.167 4.14216 12.1042C4.08981 12.0414 4.05055 11.9687 4.02668 11.8904C4.00282 11.8123 3.99485 11.7301 4.00323 11.6487C4.01161 11.5673 4.03618 11.4885 4.07549 11.4167C4.11479 11.3451 4.16805 11.2819 4.23212 11.231L4.42348 11.0716C4.96241 10.6218 5.31489 10.3274 5.5406 10.0772C5.75487 9.83999 5.77531 9.72794 5.77531 9.65759C5.77531 9.5873 5.75487 9.47607 5.5406 9.23806C5.31407 8.98785 4.96241 8.69263 4.42348 8.24363L4.23212 8.08416C4.10723 7.98002 4.0288 7.83055 4.01408 7.66861C3.99935 7.50667 4.04954 7.34551 4.15361 7.22056ZM12 11.7021C12 11.8648 11.9354 12.0208 11.8203 12.1358C11.7053 12.2509 11.5493 12.3155 11.3866 12.3155H8.12517C7.96253 12.3155 7.8065 12.2509 7.69147 12.1358C7.57643 12.0208 7.51182 11.8648 7.51182 11.7021C7.51182 11.5395 7.57643 11.3835 7.69147 11.2684C7.8065 11.1534 7.96253 11.0888 8.12517 11.0888H11.3866C11.5493 11.0888 11.7053 11.1534 11.8203 11.2684C11.9354 11.3835 12 11.5395 12 11.7021ZM11.1884 4.21342C11.1884 4.37612 11.1237 4.53212 11.0087 4.64716C10.8937 4.76219 10.7377 4.82682 10.575 4.82682H9.31354C9.1509 4.82682 8.99487 4.76219 8.87984 4.64716C8.7648 4.53212 8.7002 4.37612 8.7002 4.21342C8.7002 4.0508 8.7648 3.8948 8.87984 3.77977C8.99487 3.66473 9.1509 3.6001 9.31354 3.6001H10.575C10.7377 3.6001 10.8937 3.66473 11.0087 3.77977C11.1237 3.8948 11.1884 4.0508 11.1884 4.21342Z" fill="url(#paint1_linear_508_275)"/>
<path d="M4.56916 7.00252L4.59178 7.2515L4.59181 7.2515L4.56916 7.00252ZM4.15361 7.22056L3.9616 7.06046L3.96151 7.06056L4.15361 7.22056ZM5.01721 7.14205L4.85722 7.33416L4.85751 7.33439L5.01721 7.14205ZM5.24374 7.33015L5.40374 7.13805L5.40345 7.13781L5.24374 7.33015ZM5.24415 7.33049L5.40823 7.14179L5.40415 7.13839L5.24415 7.33049ZM5.24416 7.33049L5.08008 7.51919L5.08414 7.52258L5.24416 7.33049ZM6.45082 8.41618L6.26511 8.58356L6.26522 8.58367L6.45082 8.41618ZM6.45082 10.899L6.26543 10.7313L6.26511 10.7317L6.45082 10.899ZM5.24541 11.9837L5.39855 12.1815L5.40544 12.1758L5.24541 11.9837ZM5.24539 11.9837L5.09225 11.7859L5.08543 11.7916L5.24539 11.9837ZM5.24374 11.9851L5.40341 12.1775L5.4037 12.1772L5.24374 11.9851ZM5.01721 12.1731L4.85749 11.9807L4.85256 11.985L5.01721 12.1731ZM4.80632 12.2938L4.88476 12.5312L4.88522 12.531L4.80632 12.2938ZM4.56516 12.323L4.54542 12.5722L4.54568 12.5723L4.56516 12.323ZM4.33156 12.2563L4.44661 12.0344L4.44641 12.0343L4.33156 12.2563ZM4.14216 12.1042L3.95012 12.2643L3.95013 12.2643L4.14216 12.1042ZM4.02668 11.8904L4.26581 11.8175L4.26578 11.8174L4.02668 11.8904ZM4.00323 11.6487L3.75454 11.6231L3.75454 11.6231L4.00323 11.6487ZM4.07549 11.4167L3.85629 11.2965L3.85624 11.2966L4.07549 11.4167ZM4.23212 11.231L4.38766 11.4268L4.39213 11.4231L4.23212 11.231ZM4.42348 11.0716L4.5835 11.2637L4.58367 11.2635L4.42348 11.0716ZM5.5406 10.0772L5.35509 9.90959L5.35498 9.90972L5.5406 10.0772ZM5.5406 9.23806L5.72641 9.07079L5.72593 9.07026L5.5406 9.23806ZM4.42348 8.24363L4.26343 8.43569L4.26346 8.43571L4.42348 8.24363ZM4.23212 8.08416L4.07202 8.27617L4.07207 8.27621L4.23212 8.08416ZM4.01408 7.66861L3.7651 7.69125L4.01408 7.66861ZM6.93837 4.21342C6.93837 4.3098 6.90009 4.40222 6.83193 4.47038L7.18548 4.82393C7.34739 4.66202 7.43837 4.44244 7.43837 4.21342H6.93837ZM6.83193 3.95654C6.9001 4.02471 6.93837 4.11713 6.93837 4.21342H7.43837C7.43837 3.98446 7.34737 3.76488 7.18548 3.60299L6.83193 3.95654ZM6.57497 3.8501C6.67135 3.8501 6.76377 3.88838 6.83193 3.95654L7.18548 3.60299C7.02357 3.44108 6.80399 3.3501 6.57497 3.3501V3.8501ZM5.31354 3.8501H6.57497V3.3501H5.31354V3.8501ZM5.05662 3.95654C5.12478 3.88838 5.21722 3.8501 5.31354 3.8501V3.3501C5.08458 3.3501 4.86497 3.44108 4.70306 3.60299L5.05662 3.95654ZM4.9502 4.21342C4.9502 4.11711 4.98846 4.0247 5.05662 3.95654L4.70306 3.60299C4.54115 3.7649 4.4502 3.98449 4.4502 4.21342H4.9502ZM5.05662 4.47038C4.98847 4.40224 4.9502 4.30983 4.9502 4.21342H4.4502C4.4502 4.44241 4.54113 4.66201 4.70306 4.82393L5.05662 4.47038ZM5.31354 4.57682C5.21722 4.57682 5.12478 4.53854 5.05662 4.47038L4.70306 4.82393C4.86497 4.98584 5.08458 5.07682 5.31354 5.07682V4.57682ZM6.57497 4.57682H5.31354V5.07682H6.57497V4.57682ZM6.83193 4.47038C6.76377 4.53854 6.67135 4.57682 6.57497 4.57682V5.07682C6.80399 5.07682 7.02357 4.98584 7.18548 4.82393L6.83193 4.47038ZM4.54654 6.75355C4.31857 6.77426 4.10818 6.88466 3.9616 7.06046L4.34562 7.38066C4.40731 7.30667 4.49585 7.26021 4.59178 7.2515L4.54654 6.75355ZM5.1772 6.94995C5.00133 6.80347 4.77448 6.73281 4.54651 6.75355L4.59181 7.2515C4.68772 7.24277 4.78319 7.2725 4.85722 7.33416L5.1772 6.94995ZM5.40345 7.13781L5.17692 6.94972L4.85751 7.33439L5.08404 7.52249L5.40345 7.13781ZM5.40415 7.13839L5.40374 7.13805L5.08374 7.52224L5.08415 7.52258L5.40415 7.13839ZM5.4082 7.14184L5.40819 7.14184L5.08011 7.51914L5.08011 7.51915L5.4082 7.14184ZM6.63653 8.24881C6.3308 7.90959 5.8936 7.54613 5.40417 7.13841L5.08414 7.52258C5.5839 7.9389 5.98874 8.2769 6.26511 8.58356L6.63653 8.24881ZM7.25202 9.65759C7.25202 9.06439 6.96547 8.61334 6.63643 8.2487L6.26522 8.58367C6.55607 8.90599 6.75202 9.24169 6.75202 9.65759H7.25202ZM6.63622 11.0667C6.96559 10.7026 7.25202 10.2507 7.25202 9.65759H6.75202C6.75202 10.0737 6.55594 10.4102 6.26543 10.7313L6.63622 11.0667ZM5.40544 12.1758C5.89432 11.7685 6.33105 11.4054 6.63654 11.0664L6.26511 10.7317C5.98897 11.0381 5.58459 11.3757 5.08538 11.7917L5.40544 12.1758ZM5.39843 12.1814L5.39845 12.1814L5.09237 11.786L5.09234 11.7861L5.39843 12.1814ZM5.4037 12.1772L5.40535 12.1759L5.08543 11.7916L5.08378 11.793L5.4037 12.1772ZM5.17689 12.3655L5.40341 12.1775L5.08407 11.7927L4.85754 11.9808L5.17689 12.3655ZM4.88522 12.531C4.99426 12.4948 5.09515 12.4372 5.18186 12.3613L4.85256 11.985C4.81617 12.0169 4.77365 12.0412 4.72742 12.0566L4.88522 12.531ZM4.54568 12.5723C4.6603 12.5812 4.77559 12.5673 4.88476 12.5312L4.72788 12.0564C4.68178 12.0717 4.63308 12.0776 4.58464 12.0738L4.54568 12.5723ZM4.21651 12.4783C4.31901 12.5314 4.43086 12.5632 4.54542 12.5722L4.58489 12.0738C4.53639 12.07 4.48941 12.0565 4.44661 12.0344L4.21651 12.4783ZM3.95013 12.2643C4.02382 12.3527 4.11445 12.4255 4.21671 12.4784L4.44641 12.0343C4.40338 12.012 4.36523 11.9814 4.33419 11.9441L3.95013 12.2643ZM3.78755 11.9633C3.82114 12.0735 3.8764 12.1758 3.95012 12.2643L4.3342 11.9441C4.30321 11.907 4.27996 11.8639 4.26581 11.8175L3.78755 11.9633ZM3.75454 11.6231C3.74276 11.7376 3.75396 11.8534 3.78758 11.9635L4.26578 11.8174C4.25169 11.7713 4.24695 11.7225 4.25191 11.6743L3.75454 11.6231ZM3.85624 11.2966C3.80093 11.3976 3.76634 11.5086 3.75454 11.6231L4.25191 11.6743C4.25688 11.6261 4.27143 11.5794 4.29474 11.5368L3.85624 11.2966ZM4.07662 11.0353C3.98652 11.1068 3.9116 11.1957 3.85629 11.2965L4.29469 11.5369C4.31798 11.4945 4.34957 11.457 4.38762 11.4268L4.07662 11.0353ZM4.26347 10.8795L4.0721 11.0389L4.39213 11.4231L4.5835 11.2637L4.26347 10.8795ZM5.35498 9.90972C5.14411 10.1435 4.80888 10.4243 4.2633 10.8797L4.58367 11.2635C5.11595 10.8193 5.48566 10.5113 5.72623 10.2446L5.35498 9.90972ZM5.52531 9.65759C5.52531 9.65835 5.52735 9.66658 5.51292 9.69665C5.49511 9.73376 5.45315 9.80105 5.35509 9.90959L5.72611 10.2448C5.96073 9.98506 6.02531 9.81547 6.02531 9.65759H5.52531ZM5.3548 9.40532C5.45305 9.51446 5.49513 9.58187 5.51299 9.61904C5.52742 9.64904 5.52531 9.65702 5.52531 9.65759H6.02531C6.02531 9.49951 5.96045 9.33077 5.7264 9.07079L5.3548 9.40532ZM4.26346 8.43571C4.80833 8.88966 5.1434 9.17183 5.35528 9.40585L5.72593 9.07026C5.48474 8.80388 5.11649 8.4956 4.5835 8.05156L4.26346 8.43571ZM4.07207 8.27621L4.26343 8.43569L4.58353 8.05158L4.39217 7.89211L4.07207 8.27621ZM3.7651 7.69125C3.78583 7.9192 3.89622 8.12959 4.07202 8.27617L4.39222 7.89215C4.31823 7.83046 4.27177 7.74191 4.26305 7.64598L3.7651 7.69125ZM3.96151 7.06056C3.81502 7.23645 3.74438 7.4633 3.7651 7.69125L4.26305 7.64598C4.25433 7.55004 4.28406 7.45457 4.3457 7.38055L3.96151 7.06056ZM11.9971 12.3126C12.159 12.1507 12.25 11.9311 12.25 11.7021H11.75C11.75 11.7985 11.7117 11.8909 11.6436 11.959L11.9971 12.3126ZM11.3866 12.5655C11.6156 12.5655 11.8352 12.4745 11.9971 12.3126L11.6436 11.959C11.5754 12.0272 11.483 12.0655 11.3866 12.0655V12.5655ZM8.12517 12.5655H11.3866V12.0655H8.12517V12.5655ZM7.51469 12.3126C7.6766 12.4745 7.89621 12.5655 8.12517 12.5655V12.0655C8.02885 12.0655 7.93641 12.0272 7.86824 11.959L7.51469 12.3126ZM7.26182 11.7021C7.26182 11.9311 7.35276 12.1507 7.51469 12.3126L7.86824 11.959C7.8001 11.8909 7.76182 11.7985 7.76182 11.7021H7.26182ZM7.51469 11.0916C7.35278 11.2536 7.26182 11.4732 7.26182 11.7021H7.76182C7.76182 11.6058 7.80009 11.5134 7.86824 11.4452L7.51469 11.0916ZM8.12517 10.8388C7.89621 10.8388 7.6766 10.9297 7.51469 11.0916L7.86824 11.4452C7.93641 11.377 8.02885 11.3388 8.12517 11.3388V10.8388ZM11.3866 10.8388H8.12517V11.3388H11.3866V10.8388ZM11.9971 11.0916C11.8352 10.9297 11.6156 10.8388 11.3866 10.8388V11.3388C11.483 11.3388 11.5754 11.377 11.6436 11.4452L11.9971 11.0916ZM12.25 11.7021C12.25 11.4731 12.159 11.2535 11.9971 11.0916L11.6436 11.4452C11.7117 11.5134 11.75 11.6058 11.75 11.7021H12.25ZM11.1855 4.82393C11.3474 4.66202 11.4384 4.44244 11.4384 4.21342H10.9384C10.9384 4.3098 10.9001 4.40222 10.8319 4.47038L11.1855 4.82393ZM10.575 5.07682C10.804 5.07682 11.0236 4.98584 11.1855 4.82393L10.8319 4.47038C10.7638 4.53854 10.6714 4.57682 10.575 4.57682V5.07682ZM9.31354 5.07682H10.575V4.57682H9.31354V5.07682ZM8.70306 4.82393C8.86497 4.98584 9.08458 5.07682 9.31354 5.07682V4.57682C9.21722 4.57682 9.12478 4.53854 9.05662 4.47038L8.70306 4.82393ZM8.4502 4.21342C8.4502 4.44241 8.54114 4.66201 8.70306 4.82393L9.05662 4.47038C8.98847 4.40224 8.9502 4.30983 8.9502 4.21342H8.4502ZM8.70306 3.60299C8.54115 3.7649 8.4502 3.98449 8.4502 4.21342H8.9502C8.9502 4.11711 8.98846 4.0247 9.05662 3.95654L8.70306 3.60299ZM9.31354 3.3501C9.08458 3.3501 8.86497 3.44108 8.70306 3.60299L9.05662 3.95654C9.12478 3.88838 9.21722 3.8501 9.31354 3.8501V3.3501ZM10.575 3.3501H9.31354V3.8501H10.575V3.3501ZM11.1855 3.60299C11.0236 3.44108 10.804 3.3501 10.575 3.3501V3.8501C10.6714 3.8501 10.7638 3.88838 10.8319 3.95654L11.1855 3.60299ZM11.4384 4.21342C11.4384 3.98446 11.3474 3.76488 11.1855 3.60299L10.8319 3.95654C10.9001 4.02471 10.9384 4.11713 10.9384 4.21342H11.4384Z" fill="url(#paint2_linear_508_275)"/>
<defs>
<linearGradient id="paint0_linear_508_275" x1="7.99999" y1="1.5" x2="7.99999" y2="14.5" gradientUnits="userSpaceOnUse">
<stop stop-color="#00FFE0"/>
<stop offset="1" stop-color="#078AA7"/>
</linearGradient>
<linearGradient id="paint1_linear_508_275" x1="7.99999" y1="3.6001" x2="7.99999" y2="12.3249" gradientUnits="userSpaceOnUse">
<stop stop-color="#00FFE0"/>
<stop offset="1" stop-color="#078AA7"/>
</linearGradient>
<linearGradient id="paint2_linear_508_275" x1="7.99999" y1="3.6001" x2="7.99999" y2="12.3249" gradientUnits="userSpaceOnUse">
<stop stop-color="#00FFE0"/>
<stop offset="1" stop-color="#078AA7"/>
</linearGradient>
</defs>
</svg>
