<svg width="16" height="16" viewBox="0 0 16 16" fill="none" xmlns="http://www.w3.org/2000/svg">
<path fill-rule="evenodd" clip-rule="evenodd" d="M11.1311 2.62681C12.3863 2.2084 13.0326 2.44625 13.2912 2.70527C13.5509 2.96538 13.7879 3.6148 13.373 4.87013L13.3727 4.87112L11.3025 11.0817L11.3023 11.0822C10.974 12.0689 10.6146 12.7385 10.2801 13.1436C9.94315 13.5516 9.71434 13.6001 9.62443 13.6001C9.53452 13.6001 9.30571 13.5516 8.96877 13.1436C8.63428 12.7385 8.27486 12.0689 7.94651 11.0822L7.94636 11.0817L7.54151 9.86716C7.49366 9.72362 7.53091 9.56536 7.63775 9.45822L9.87383 7.21589C10.2248 6.86393 10.224 6.29408 9.87205 5.9431C9.52009 5.59212 8.95024 5.59292 8.59926 5.94488L6.27743 8.2732C6.1703 8.38062 6.01163 8.4182 5.8677 8.37022L4.91845 8.05381L4.918 8.05366C3.93097 7.72522 3.26128 7.36615 2.85613 7.03205C2.44801 6.69549 2.4001 6.46744 2.4001 6.37849C2.4001 6.28926 2.4483 6.06059 2.85686 5.72295C3.26223 5.38795 3.93204 5.02768 4.91888 4.69754L4.91935 4.69738L11.1311 2.62681ZM15.0817 5.43629C15.5883 3.90429 15.529 2.39895 14.5649 1.43343C13.5997 0.466767 12.0946 0.408251 10.5619 0.919178L4.34924 2.99005L4.34834 2.99035C3.24628 3.35899 2.34936 3.80725 1.71021 4.33544C1.07419 4.86105 0.600098 5.55028 0.600098 6.37849C0.600098 7.20698 1.07447 7.8959 1.71093 8.42076C2.35038 8.94808 3.24756 9.39485 4.34969 9.76159L5.57662 10.1706C5.69607 10.2104 5.78979 10.3041 5.82961 10.4235L6.23858 11.6505C6.60541 12.7529 7.05275 13.6502 7.58081 14.2897C8.10644 14.9262 8.79598 15.4001 9.62443 15.4001C10.4529 15.4001 11.1424 14.9262 11.668 14.2897C12.1961 13.6502 12.6434 12.7529 13.0103 11.6505L15.081 5.43831L15.0817 5.43629Z" fill="url(#paint0_linear_594_123)"/>
<defs>
<linearGradient id="paint0_linear_594_123" x1="7.9982" y1="15.4001" x2="7.9982" y2="1.4716" gradientUnits="userSpaceOnUse">
<stop stop-color="#18AEFA"/>
<stop offset="1" stop-color="#83E1FF"/>
</linearGradient>
</defs>
</svg>
