<svg width="16" height="16" viewBox="0 0 16 16" fill="none" xmlns="http://www.w3.org/2000/svg">
<path d="M3.72656 5.36131H8.12109C8.36378 5.36131 8.56056 5.16456 8.56056 4.92188C8.56056 4.67919 8.36378 4.48244 8.12109 4.48244H3.72656C3.48387 4.48244 3.28711 4.67919 3.28711 4.92188C3.28711 5.16456 3.48387 5.36131 3.72656 5.36131ZM10.3027 8.81837H3.69727C3.45457 8.81837 3.25781 9.01513 3.25781 9.25781C3.25781 9.5005 3.45457 9.69725 3.69727 9.69725H10.3027C10.5454 9.69725 10.7422 9.5005 10.7422 9.25781C10.7422 9.01513 10.5454 8.81837 10.3027 8.81837ZM10.3027 6.59181H3.69727C3.45457 6.59181 3.25781 6.78856 3.25781 7.03125C3.25781 7.27394 3.45457 7.47069 3.69727 7.47069H10.3027C10.5454 7.47069 10.7422 7.27394 10.7422 7.03125C10.7422 6.78856 10.5454 6.59181 10.3027 6.59181ZM13.3027 1.40625H2.69727C1.48569 1.40625 0.5 2.39194 0.5 3.6035V10.6348C0.5 11.8463 1.48569 12.832 2.69727 12.832H4.01562V14.1504C4.01562 14.3125 4.10484 14.4614 4.24772 14.5378C4.39038 14.6142 4.56378 14.6061 4.69884 14.516L7.22487 12.832H13.3027C14.5143 12.832 15.5 11.8463 15.5 10.6348V3.6035C15.5 2.39194 14.5143 1.40625 13.3027 1.40625ZM14.6211 10.6348C14.6211 11.3617 14.0297 11.9531 13.3027 11.9531H7.09181C7.00506 11.9531 6.92022 11.9788 6.84803 12.0269L4.89453 13.3293V12.3926C4.89453 12.1499 4.69778 11.9531 4.45506 11.9531H2.69727C1.97032 11.9531 1.37891 11.3617 1.37891 10.6348V3.6035C1.37891 2.87657 1.97032 2.28516 2.69727 2.28516H13.3027C14.0297 2.28516 14.6211 2.87657 14.6211 3.6035V10.6348Z" fill="url(#paint0_linear_662_79)" stroke="url(#paint1_linear_662_79)" stroke-width="0.8"/>
<defs>
<linearGradient id="paint0_linear_662_79" x1="8" y1="14.5898" x2="8" y2="1.40625" gradientUnits="userSpaceOnUse">
<stop stop-color="#5570FF"/>
<stop offset="1" stop-color="#4DD3FF"/>
</linearGradient>
<linearGradient id="paint1_linear_662_79" x1="8" y1="14.5898" x2="8" y2="1.40625" gradientUnits="userSpaceOnUse">
<stop stop-color="#5570FF"/>
<stop offset="1" stop-color="#4DD3FF"/>
</linearGradient>
</defs>
</svg>
