<svg width="16" height="16" viewBox="0 0 16 16" fill="none" xmlns="http://www.w3.org/2000/svg">
<path fill-rule="evenodd" clip-rule="evenodd" d="M6.07872 1.00006L6.07872 1L6.0687 1.00005C5.48238 1.00282 4.90238 1.12129 4.36194 1.34865C3.8215 1.57602 3.33125 1.90781 2.91929 2.32502C2.50733 2.74222 2.18176 3.23663 1.96125 3.77991C1.80034 4.17634 1.69768 4.5931 1.65574 5.01724C1.20478 5.39062 0.828577 5.84816 0.548967 6.36589C0.194246 7.02269 0.00577682 7.75637 2.8193e-05 8.50281L7.45058e-06 8.50281L0 8.50892C-0.000532746 9.09105 0.113605 9.66759 0.335899 10.2056C0.558192 10.7436 0.884287 11.2326 1.29556 11.6446C1.70684 12.0566 2.19524 12.3835 2.73287 12.6067C3.1777 12.7914 3.64902 12.9021 4.1282 12.9351C4.47277 13.5168 4.94514 14.0158 5.51244 14.3927C6.24348 14.8784 7.10038 15.1402 7.97804 15.1459C7.98785 15.146 7.99766 15.1459 8.00747 15.1456C8.82075 15.1244 9.61587 14.9005 10.3208 14.4943C10.8774 14.1735 11.3639 13.747 11.7538 13.2405C12.4804 13.1888 13.1857 12.9578 13.8052 12.5646C14.5712 12.0785 15.1688 11.3682 15.5166 10.5304C15.8645 9.69259 15.9458 8.76793 15.7494 7.88228C15.5814 7.1246 15.2171 6.42695 14.6962 5.85781C14.6586 5.41152 14.553 4.9728 14.3823 4.55708C14.1618 4.02019 13.8371 3.53229 13.427 3.12157C13.0169 2.71084 12.5295 2.38542 11.993 2.1641C11.4564 1.94279 10.8813 1.82995 10.3009 1.83211L10.299 1.83212C9.83995 1.83484 9.38498 1.90488 8.94834 2.03906C8.62867 1.7761 8.27394 1.55723 7.89354 1.38916C7.32164 1.1365 6.70392 1.00406 6.07872 1.00006ZM5.05996 3.0078C5.38053 2.87293 5.72446 2.80236 6.07222 2.80006C6.44908 2.80315 6.82135 2.88332 7.16612 3.03563C7.51242 3.18863 7.82358 3.41116 8.08029 3.68941C8.34472 3.97603 8.76365 4.05974 9.11792 3.89676C9.4915 3.7249 9.89743 3.63467 10.3086 3.6321C10.651 3.63095 10.9901 3.69757 11.3066 3.8281C11.6234 3.95877 11.9111 4.15089 12.1532 4.39338C12.3954 4.63586 12.587 4.92391 12.7172 5.24089C12.8474 5.55786 12.9135 5.89749 12.9117 6.24015C12.9103 6.49442 13.0166 6.7374 13.2043 6.90901C13.6007 7.27158 13.8758 7.74748 13.9921 8.27196C14.1084 8.79644 14.0602 9.34402 13.8542 9.84016C13.6482 10.3363 13.2944 10.7569 12.8408 11.0448C12.3872 11.3326 11.8559 11.4737 11.3193 11.4489C10.9921 11.4337 10.6826 11.5975 10.511 11.8764C10.2417 12.3143 9.86742 12.678 9.42204 12.9347C8.98095 13.1889 8.48394 13.3301 7.97525 13.3458C7.45305 13.3396 6.94367 13.1825 6.50851 12.8934C6.0693 12.6016 5.7248 12.188 5.51726 11.7032C5.39065 11.4075 5.11584 11.2019 4.79643 11.1638C4.67156 11.1489 4.54558 11.1428 4.42004 11.1456C4.07784 11.1439 3.73921 11.0756 3.4231 10.9443C3.10379 10.8118 2.81372 10.6176 2.56946 10.3729C2.32519 10.1282 2.13152 9.83781 1.9995 9.51827C1.86786 9.19967 1.80008 8.85832 1.8 8.51361C1.80398 8.06216 1.9182 7.61851 2.13275 7.22125C2.34778 6.82309 2.65706 6.48365 3.03355 6.2326C3.28598 6.06427 3.4366 5.78008 3.4342 5.47668C3.43144 5.12724 3.49767 4.78068 3.6291 4.45688C3.76052 4.13308 3.95457 3.8384 4.20011 3.58974C4.44564 3.34107 4.73784 3.14332 5.05996 3.0078ZM5.98202 4.39174C5.56102 4.12751 5.00552 4.2546 4.74129 4.6756C4.47706 5.09661 4.60415 5.65211 5.02516 5.91634L5.89731 6.46371L5.04113 6.97652C4.61472 7.23193 4.47608 7.78466 4.73149 8.21108C4.9869 8.6375 5.53962 8.77613 5.96604 8.52072L8.08135 7.25374C8.34991 7.09289 8.51559 6.80404 8.51885 6.49101C8.52211 6.17799 8.36248 5.88575 8.09733 5.71934L5.98202 4.39174ZM8.37863 9.46523C7.9584 9.19977 7.40253 9.32523 7.13707 9.74547C6.87161 10.1657 6.99708 10.7216 7.41731 10.987C7.90098 11.2926 8.46136 11.4547 9.03346 11.4547C9.60556 11.4547 10.1659 11.2926 10.6496 10.987C11.0698 10.7216 11.1953 10.1657 10.9298 9.74547C10.6644 9.32523 10.1085 9.19977 9.68829 9.46523C9.49232 9.58903 9.26526 9.65474 9.03346 9.65474C8.80166 9.65474 8.5746 9.58903 8.37863 9.46523Z" fill="url(#paint0_linear_547_927)"/>
<defs>
<linearGradient id="paint0_linear_547_927" x1="7.92703" y1="15.1459" x2="7.61145" y2="0.644593" gradientUnits="userSpaceOnUse">
<stop stop-color="#5AB5EE"/>
<stop offset="1" stop-color="#C7F84E"/>
</linearGradient>
</defs>
</svg>
