<svg width="128" height="128" viewBox="0 0 128 128" fill="none" xmlns="http://www.w3.org/2000/svg">
<path d="M10.3758 29.5918C9.06363 29.5918 8 30.6554 8 31.9676V41.9623C8 43.2744 9.06363 44.3381 10.3758 44.3381H15.455C16.7672 44.3381 17.8308 45.4018 17.8308 46.7139V81.2861C17.8308 82.5982 18.8946 83.6618 20.2066 83.6618H30.2015C31.5136 83.6618 32.5772 82.5982 32.5772 81.2861V46.7139C32.5772 45.4018 33.641 44.3381 34.953 44.3381H40.0324C41.3445 44.3381 42.4082 43.2744 42.4082 41.9623V31.9676C42.4082 30.6554 41.3445 29.5918 40.0324 29.5918H10.3758ZM90.1025 29.5918C88.4363 29.5918 87.2878 31.2622 87.8842 32.818L96.5967 55.5438C96.8049 56.0869 96.8066 56.6873 96.6016 57.2316L87.8575 80.4487C87.2723 82.0023 88.4205 83.6618 90.0808 83.6618H96.5467C97.5005 83.6618 98.3617 83.0915 98.734 82.2134L101.664 75.3029C102.483 73.3718 105.22 73.3718 106.039 75.3029L108.969 82.2134C109.341 83.0915 110.202 83.6618 111.156 83.6618H117.623C119.282 83.6618 120.431 82.0023 119.845 80.4487L111.101 57.2316C110.896 56.6873 110.898 56.0869 111.106 55.5438L119.819 32.818C120.415 31.2622 119.267 29.5918 117.6 29.5918H111.156C110.202 29.5918 109.341 30.1621 108.969 31.0401L106.039 37.9507C105.22 39.8819 102.483 39.8819 101.664 37.9507L98.734 31.0401C98.3617 30.1621 97.5005 29.5918 96.5467 29.5918H90.1025ZM49.6994 44.3381C48.3873 44.3381 47.3236 45.4018 47.3236 46.7139V96.0325C47.3236 97.3445 48.3873 98.4082 49.6994 98.4082H79.3561C80.6682 98.4082 81.7319 97.3445 81.7319 96.0325V86.0376C81.7319 84.7255 80.6682 83.6618 79.3561 83.6618H64.4458C63.1337 83.6618 62.07 82.5982 62.07 81.2861V81.1221C62.07 79.81 63.1337 78.7464 64.4458 78.7464H79.3561C80.6682 78.7464 81.7319 77.6827 81.7319 76.3706V66.3757C81.7319 65.0636 80.6682 64 79.3561 64H64.4458C63.1337 64 62.07 62.9363 62.07 61.6242V61.4603C62.07 60.1482 63.1337 59.0845 64.4458 59.0845H79.3561C80.6682 59.0845 81.7319 58.0209 81.7319 56.7087V46.7139C81.7319 45.4018 80.6682 44.3381 79.3561 44.3381H49.6994Z" fill="url(#paint0_linear_1005_405)"/>
<defs>
<linearGradient id="paint0_linear_1005_405" x1="64.5277" y1="98.4082" x2="64.5277" y2="29.5918" gradientUnits="userSpaceOnUse">
<stop stop-color="#02AA93"/>
<stop offset="1" stop-color="#67FF80"/>
</linearGradient>
</defs>
</svg>
