<svg width="16" height="16" viewBox="0 0 16 16" fill="none" xmlns="http://www.w3.org/2000/svg">
<path fill-rule="evenodd" clip-rule="evenodd" d="M4.66683 0.433502L4.62368 0.433497C4.35595 0.433457 4.16407 0.433428 3.99359 0.448342C2.10815 0.613297 0.613297 2.10815 0.448342 3.99359C0.433428 4.16407 0.433457 4.35595 0.433497 4.62368L0.433502 4.66683V9.86683L0.433501 9.90454C0.433491 10.7126 0.433482 11.3734 0.477363 11.9105C0.522783 12.4664 0.619665 12.9685 0.858576 13.4374C1.23248 14.1712 1.82911 14.7679 2.56294 15.1418C3.03183 15.3807 3.53391 15.4776 4.08982 15.523C4.43159 15.5509 4.82347 15.561 5.27152 15.5647C5.292 15.5661 5.31267 15.5668 5.3335 15.5668L6.0958 15.5668H6.1335H8.00017H11.6668C13.8207 15.5668 15.5668 13.8207 15.5668 11.6668V11.3335C15.5668 10.0793 14.9195 8.97634 13.9407 8.34044C13.738 8.20877 13.6367 8.14293 13.6183 8.06476C13.5999 7.98659 13.6612 7.88263 13.7837 7.67472C14.6077 6.27675 14.4044 4.46496 13.2234 3.2841C12.0919 2.15271 10.3971 1.9279 9.0418 2.60964C8.82959 2.71638 8.72349 2.76975 8.64694 2.74648C8.57038 2.72321 8.51235 2.62058 8.39628 2.4153C7.77992 1.32524 6.65498 0.563382 5.34008 0.448342C5.1696 0.433428 4.97772 0.433457 4.70999 0.433497L4.66683 0.433502ZM7.10017 4.66527C7.10017 4.33793 7.09929 4.23182 7.09218 4.15047C7.00336 3.13524 6.19843 2.33031 5.1832 2.24149C5.10172 2.23436 4.99541 2.2335 4.66683 2.2335C4.33826 2.2335 4.23195 2.23436 4.15047 2.24149C3.13524 2.33031 2.33031 3.13524 2.24149 4.15047C2.23436 4.23195 2.2335 4.33826 2.2335 4.66683V9.86683C2.2335 10.7218 2.2342 11.3088 2.27139 11.7639C2.30771 12.2085 2.37432 12.4474 2.46239 12.6202C2.66372 13.0154 2.98498 13.3366 3.38012 13.5379C3.55297 13.626 3.7918 13.6926 4.2364 13.729C4.68828 13.7659 5.27027 13.7668 6.1154 13.7668H6.1335H6.70017C6.88873 13.7668 6.98301 13.7668 7.04159 13.7083C7.10017 13.6497 7.10017 13.5554 7.10017 13.3668V13.3397C7.10013 13.3352 7.10013 13.3308 7.10017 13.3263V4.66742M9.60855 9.97337C9.31272 10.3315 9.16481 10.5105 9.03249 10.463C8.90017 10.4154 8.90017 10.1831 8.90017 9.71862V5.20505C8.90017 5.1233 8.90017 5.08243 8.91539 5.04568C8.93061 5.00892 8.95952 4.98002 9.01732 4.92222L9.38244 4.55707C10.0916 3.84786 11.2414 3.84782 11.9507 4.55696C12.6128 5.21899 12.663 6.27589 12.0667 6.99774L9.60855 9.97337ZM8.91864 13.6348C8.9067 13.6493 8.90017 13.6674 8.90017 13.6862V13.6862C8.90017 13.7307 8.93628 13.7668 8.98083 13.7668H11.6668C12.8266 13.7668 13.7668 12.8266 13.7668 11.6668V11.3335C13.7668 10.5255 13.2244 9.84422 12.4839 9.63387C12.389 9.60693 12.3416 9.59345 12.2847 9.61115C12.2279 9.62884 12.1917 9.67272 12.1192 9.76048L8.91864 13.6348ZM5.3335 11.3335C5.3335 11.7017 5.03502 12.0002 4.66683 12.0002C4.29865 12.0002 4.00017 11.7017 4.00017 11.3335C4.00017 10.9653 4.29865 10.6668 4.66683 10.6668C5.03502 10.6668 5.3335 10.9653 5.3335 11.3335Z" fill="url(#paint0_linear_508_253)"/>
<defs>
<linearGradient id="paint0_linear_508_253" x1="0.583496" y1="8.00017" x2="15.4168" y2="8.00017" gradientUnits="userSpaceOnUse">
<stop stop-color="#FFC152"/>
<stop offset="1" stop-color="#FF5F5F"/>
</linearGradient>
</defs>
</svg>
