<svg width="128" height="128" viewBox="0 0 128 128" fill="none" xmlns="http://www.w3.org/2000/svg">
<path d="M46.3825 8.0006C45.8705 8.01319 45.36 8.06332 44.8553 8.15059H18.621C17.2334 8.13096 15.8557 8.38733 14.568 8.90478C13.2803 9.42224 12.1082 10.1905 11.12 11.1648C10.1318 12.1392 9.34705 13.3002 8.81144 14.5805C8.27582 15.8607 8 17.2347 8 18.6225C8 20.0103 8.27582 21.3842 8.81144 22.6645C9.34705 23.9448 10.1318 25.1058 11.12 26.0802C12.1082 27.0545 13.2803 27.8227 14.568 28.3402C15.8557 28.8576 17.2334 29.114 18.621 29.0944H36.0742V109.379C36.0546 110.767 36.311 112.144 36.8284 113.432C37.3459 114.72 38.1141 115.892 39.0884 116.88C40.0628 117.868 41.2238 118.653 42.5041 119.189C43.7844 119.724 45.1583 120 46.5461 120C47.9339 120 49.3079 119.724 50.5881 119.189C51.8684 118.653 53.0294 117.868 54.0038 116.88C54.9781 115.892 55.7464 114.72 56.2638 113.432C56.7813 112.144 57.0376 110.767 57.018 109.379V29.0944H109.378C110.765 29.114 112.143 28.8576 113.431 28.3402C114.718 27.8227 115.89 27.0545 116.879 26.0802C117.867 25.1058 118.652 23.9448 119.187 22.6645C119.723 21.3842 119.999 20.0103 119.999 18.6225C119.999 17.2347 119.723 15.8607 119.187 14.5805C118.652 13.3002 117.867 12.1392 116.879 11.1648C115.89 10.1905 114.718 9.42224 113.431 8.90478C112.143 8.38733 110.765 8.13096 109.378 8.15059H48.2642C47.6427 8.04405 47.0129 7.99385 46.3825 8.0006ZM74.3075 35.9257C71.5326 35.969 68.8883 37.112 66.9555 39.1036C65.0227 41.0952 63.9595 43.7726 63.9993 46.5476V87.7943C63.9654 88.28 63.9654 88.7675 63.9993 89.2533V109.379C63.9797 110.767 64.236 112.144 64.7535 113.432C65.2709 114.72 66.0392 115.892 67.0135 116.88C67.9879 117.868 69.1489 118.653 70.4292 119.189C71.7094 119.724 73.0834 120 74.4712 120C75.859 120 77.2329 119.724 78.5132 119.189C79.7934 118.653 80.9545 117.868 81.9288 116.88C82.9032 115.892 83.6714 114.72 84.1889 113.432C84.7063 112.144 84.9627 110.767 84.9431 109.379V89.676C85.0705 89.2446 85.333 88.4997 86.0612 87.467C87.067 86.0407 87.525 84.9276 91.8834 84.9445C96.9587 84.9641 97.2268 86.1395 98.0193 87.3171C98.7758 88.441 98.8927 89.2303 98.9056 89.3078V109.379C98.886 110.767 99.1424 112.144 99.6598 113.432C100.177 114.72 100.945 115.892 101.92 116.88C102.894 117.868 104.055 118.653 105.336 119.189C106.616 119.724 107.99 120 109.378 120C110.765 120 112.139 119.724 113.42 119.189C114.7 118.653 115.861 117.868 116.835 116.88C117.81 115.892 118.578 114.72 119.095 113.432C119.613 112.144 119.869 110.767 119.849 109.379V88.4352C119.851 88.1074 119.837 87.7798 119.808 87.4534C119.808 87.4534 119.286 81.4196 115.39 75.6316C111.496 69.8436 103.045 64.0438 91.9653 64.0007C89.4774 63.9911 87.1401 64.3191 84.9431 64.8597V46.5476C84.9632 45.146 84.7017 43.7546 84.1742 42.4559C83.6466 41.1572 82.8638 39.9776 81.8719 38.9871C80.8801 37.9965 79.6996 37.2152 78.4002 36.6893C77.1008 36.1634 75.7091 35.9038 74.3075 35.9257Z" fill="url(#paint0_linear_735_66)"/>
<defs>
<linearGradient id="paint0_linear_735_66" x1="136.021" y1="114.923" x2="77.9941" y2="-12.5397" gradientUnits="userSpaceOnUse">
<stop stop-color="#315783"/>
<stop offset="0.428293" stop-color="#723483"/>
<stop offset="1" stop-color="#FC5185"/>
</linearGradient>
</defs>
</svg>
