<svg width="128" height="128" viewBox="0 0 128 128" fill="none" xmlns="http://www.w3.org/2000/svg">
<path d="M46.3825 8.0006C45.9849 8.01038 45.5882 8.04279 45.1945 8.09765C44.9682 8.12918 44.7405 8.15059 44.512 8.15059H18.621C17.2334 8.13096 15.8557 8.38733 14.568 8.90478C13.2803 9.42224 12.1082 10.1905 11.12 11.1648C10.1318 12.1392 9.34705 13.3002 8.81144 14.5805C8.27582 15.8607 8 17.2347 8 18.6225C8 20.0103 8.27582 21.3842 8.81144 22.6645C9.34705 23.9448 10.1318 25.1058 11.12 26.0802C12.1082 27.0545 13.2803 27.8227 14.568 28.3402C15.8557 28.8576 17.2334 29.114 18.621 29.0944H32.0742C34.2833 29.0944 36.0742 30.8853 36.0742 33.0944V109.379C36.0546 110.767 36.311 112.144 36.8284 113.432C37.3459 114.72 38.1141 115.892 39.0884 116.88C40.0628 117.868 41.2238 118.653 42.5041 119.189C43.7844 119.724 45.1583 120 46.5461 120C47.9339 120 49.3079 119.724 50.5881 119.189C51.8684 118.653 53.0294 117.868 54.0038 116.88C54.9781 115.892 55.7464 114.72 56.2638 113.432C56.7813 112.144 57.0376 110.767 57.018 109.379V33.0944C57.018 30.8853 58.8089 29.0944 61.018 29.0944H109.378C110.765 29.114 112.143 28.8576 113.431 28.3402C114.718 27.8227 115.89 27.0545 116.879 26.0802C117.867 25.1058 118.652 23.9448 119.187 22.6645C119.723 21.3842 119.999 20.0103 119.999 18.6225C119.999 17.2347 119.723 15.8607 119.187 14.5805C118.652 13.3002 117.867 12.1392 116.879 11.1648C115.89 10.1905 114.718 9.42224 113.431 8.90478C112.143 8.38733 110.765 8.13096 109.378 8.15059H48.6046C48.3781 8.15059 48.1522 8.12954 47.9279 8.09854C47.416 8.02782 46.8994 7.99507 46.3825 8.0006Z" fill="url(#paint0_linear_1005_329)"/>
<path d="M66.9553 39.1035C68.8881 37.1119 71.5324 35.9689 74.3073 35.9256C75.7089 35.9037 77.1006 36.1633 78.4 36.6892C79.6994 37.2151 80.8799 37.9964 81.8717 38.987C82.8636 39.9775 83.6464 41.1571 84.174 42.4558C84.7015 43.7545 84.963 45.1459 84.9429 46.5475V59.756C84.9429 62.3522 87.3874 64.241 89.9776 64.0645C90.6292 64.0201 91.2916 63.998 91.9651 64.0006C103.045 64.0437 111.496 69.8435 115.39 75.6315C119.254 81.3717 119.799 87.3538 119.808 87.4521V87.4579C119.837 87.7828 119.851 88.1088 119.849 88.4351V109.379C119.869 110.767 119.613 112.144 119.095 113.432C118.578 114.72 117.81 115.892 116.835 116.88C115.861 117.868 114.7 118.653 113.42 119.189C112.139 119.724 110.765 120 109.378 120C107.99 120 106.616 119.724 105.336 119.189C104.055 118.653 102.894 117.868 101.92 116.88C100.945 115.892 100.177 114.72 99.6596 113.432C99.1422 112.144 98.8858 110.767 98.9054 109.379V89.6383C98.9054 89.4183 98.8922 89.1973 98.832 88.9857C98.7344 88.6422 98.5131 88.0509 98.0191 87.317C97.2266 86.1394 96.9585 84.964 91.8832 84.9444C87.5248 84.9275 87.0668 86.0406 86.061 87.4669C85.5798 88.1494 85.3019 88.7061 85.132 89.1298C84.9893 89.4858 84.9429 89.8707 84.9429 90.2542V109.379C84.9625 110.767 84.7061 112.144 84.1887 113.432C83.6712 114.72 82.903 115.892 81.9286 116.88C80.9543 117.868 79.7932 118.653 78.513 119.189C77.2327 119.724 75.8588 120 74.471 120C73.0832 120 71.7092 119.724 70.429 119.189C69.1487 118.653 67.9877 117.868 67.0133 116.88C66.039 115.892 65.2707 114.72 64.7533 113.432C64.2358 112.144 63.9795 110.767 63.9991 109.379V89.2532C63.9652 88.7674 63.9652 88.2799 63.9991 87.7942V46.5475C63.9593 43.7725 65.0225 41.0951 66.9553 39.1035Z" fill="url(#paint1_linear_1005_329)"/>
<defs>
<linearGradient id="paint0_linear_1005_329" x1="63.9995" y1="120" x2="63.9995" y2="8" gradientUnits="userSpaceOnUse">
<stop stop-color="#5570FF"/>
<stop offset="1" stop-color="#4DD3FF"/>
</linearGradient>
<linearGradient id="paint1_linear_1005_329" x1="91.9118" y1="120" x2="91.9118" y2="35.9243" gradientUnits="userSpaceOnUse">
<stop stop-color="#5570FF"/>
<stop offset="1" stop-color="#4DD3FF"/>
</linearGradient>
</defs>
</svg>
