<svg width="16" height="17" viewBox="0 0 16 17" fill="none" xmlns="http://www.w3.org/2000/svg">
<path d="M14.9995 9V5C14.9995 3.11438 14.9995 2.17157 14.4137 1.58579C13.8279 1 12.8851 1 10.9995 1H4.99951C3.11389 1 2.17108 1 1.5853 1.58579C0.999512 2.17157 0.999512 3.11438 0.999512 5V6" stroke="url(#paint0_linear_563_457)" stroke-width="1.8"/>
<path fill-rule="evenodd" clip-rule="evenodd" d="M3.49736 2.21099C3.52863 2.21101 3.56027 2.21104 3.5923 2.21104C3.60826 2.21104 3.62404 2.21103 3.63967 2.21102C3.88249 2.21091 4.08651 2.21082 4.28574 2.23836C4.91619 2.32552 5.50046 2.61765 5.94845 3.06972C6.09002 3.21257 6.21236 3.37584 6.35797 3.57017C6.36734 3.58268 6.3768 3.59531 6.38637 3.60807L6.77526 4.12659C7.38192 4.93546 7.53032 5.10008 7.70482 5.19302C7.72149 5.2019 7.73839 5.21035 7.7555 5.21836C7.93456 5.3022 8.15528 5.32215 9.16638 5.32215H12.9997C13.0167 5.32215 13.0336 5.32214 13.0505 5.32214C13.4779 5.32207 13.8838 5.32201 14.2169 5.36678C14.589 5.41681 15.0017 5.53711 15.3432 5.87864C15.6847 6.22018 15.805 6.63284 15.8551 7.00495C15.8796 7.18775 15.8907 7.39252 15.8957 7.61073H15.8997V8.07037C15.8997 8.10388 15.8997 8.13755 15.8997 8.17136C15.8997 8.18826 15.8997 8.20519 15.8997 8.22215V10.0002V11.1107L15.8997 11.1712C15.8998 12.0624 15.8998 12.8203 15.8185 13.4252C15.7318 14.0696 15.5383 14.6734 15.0503 15.1613C14.5623 15.6493 13.9586 15.8428 13.3142 15.9295C12.7093 16.0108 11.9513 16.0108 11.0602 16.0107L10.9997 16.0107H4.99971L4.93921 16.0107C4.04808 16.0108 3.29014 16.0108 2.68524 15.9295C2.04081 15.8428 1.43708 15.6493 0.949098 15.1613L1.58549 14.5249L0.949098 15.1613C0.461113 14.6734 0.267597 14.0696 0.180956 13.4252C0.0996298 12.8203 0.0996647 12.0624 0.0997057 11.1712L0.0997076 11.1107V5.70363C0.0997076 5.6716 0.0996825 5.63996 0.0996576 5.60869C0.0992951 5.15218 0.0989956 4.77508 0.177877 4.44225C0.430767 3.37522 1.26389 2.5421 2.33092 2.28921C2.66375 2.21032 3.04085 2.21062 3.49736 2.21099ZM14.0997 10.0002V8.22215C14.0997 7.7253 14.0978 7.4432 14.0711 7.2448C14.0665 7.2104 14.0618 7.18407 14.0575 7.16435C14.0378 7.1601 14.0115 7.15536 13.9771 7.15073C13.7787 7.12406 13.4966 7.12215 12.9997 7.12215H9.16638C9.11554 7.12215 9.06521 7.12222 9.01536 7.12229C8.23989 7.12341 7.58139 7.12437 6.99225 6.84853C6.94714 6.82741 6.90259 6.80513 6.85863 6.78172C6.28448 6.47591 5.89014 5.94854 5.42576 5.32749C5.3959 5.28757 5.36576 5.24726 5.33526 5.20659L4.94637 4.68807C4.75761 4.43639 4.71295 4.38016 4.66992 4.33674C4.49999 4.16527 4.27837 4.05446 4.03924 4.0214C3.97869 4.01303 3.9069 4.01104 3.5923 4.01104C2.99007 4.01104 2.84533 4.01715 2.74603 4.04069C2.3413 4.13661 2.02528 4.45262 1.92936 4.85736C1.90582 4.95666 1.89971 5.1014 1.89971 5.70363V11.1107C1.89971 12.079 1.90162 12.7146 1.96491 13.1854C2.02471 13.6302 2.12409 13.7907 2.22189 13.8885L1.59609 14.5144L2.22189 13.8885C2.31969 13.9864 2.48026 14.0857 2.92509 14.1455C3.39581 14.2088 4.03146 14.2107 4.99971 14.2107H10.9997C11.968 14.2107 12.6036 14.2088 13.0743 14.1455C13.5192 14.0857 13.6797 13.9864 13.7775 13.8885C13.8753 13.7907 13.9747 13.6302 14.0345 13.1854C14.0978 12.7146 14.0997 12.079 14.0997 11.1107V10.0002ZM14.1084 7.17891C14.1083 7.17896 14.1067 7.17835 14.104 7.17695C14.1072 7.17815 14.1085 7.17886 14.1084 7.17891ZM14.0449 7.11787C14.0435 7.11515 14.0429 7.11356 14.0429 7.11344C14.043 7.11332 14.0437 7.11468 14.0449 7.11787Z" fill="url(#paint1_linear_563_457)"/>
<path fill-rule="evenodd" clip-rule="evenodd" d="M8.996 11.053C9.11579 11.1195 9.20819 11.2245 9.2732 11.3295C9.3999 11.5465 9.38967 11.8125 9.26638 12.047L9.0268 12.467C8.90019 12.691 8.66394 12.831 8.42095 12.831C8.30117 12.831 8.16764 12.796 8.05809 12.726C7.9691 12.6665 7.86645 12.6455 7.75693 12.6455C7.41807 12.6455 7.13395 12.936 7.12372 13.2825C7.12372 13.685 6.8088 14 6.41519 14H5.94967C5.55263 14 5.23773 13.685 5.23773 13.2825C5.2309 12.936 4.94678 12.6455 4.60792 12.6455C4.49495 12.6455 4.3923 12.6665 4.30673 12.726C4.19718 12.796 4.06025 12.831 3.94389 12.831C3.69744 12.831 3.4613 12.691 3.33465 12.467L3.09845 12.047C2.97183 11.8195 2.965 11.5465 3.09162 11.3295C3.14638 11.2245 3.24907 11.1195 3.36545 11.053C3.4613 11.004 3.5229 10.9235 3.58108 10.829C3.75223 10.528 3.64952 10.1325 3.35862 9.954C3.01975 9.7545 2.9102 9.31 3.10529 8.9635L3.33465 8.5505C3.53315 8.204 3.9576 8.0815 4.2999 8.2845C4.59767 8.4525 4.98442 8.3405 5.15902 8.043C5.21377 7.945 5.24457 7.84 5.23773 7.735C5.2309 7.5985 5.26853 7.469 5.33355 7.364C5.4602 7.147 5.68955 7.007 5.9394 7H6.42203C6.67529 7 6.90465 7.147 7.0313 7.364C7.0929 7.469 7.13395 7.5985 7.12372 7.735C7.11685 7.84 7.14768 7.945 7.20245 8.043C7.37699 8.3405 7.76377 8.4525 8.06492 8.2845C8.4038 8.0815 8.83168 8.204 9.0268 8.5505L9.25614 8.9635C9.45468 9.31 9.34513 9.7545 9.00283 9.954C8.71189 10.1325 8.60917 10.528 8.78382 10.829C8.8385 10.9235 8.90019 11.004 8.996 11.053ZM6.14998 11.375C6.63323 11.375 7.02498 10.9832 7.02498 10.5C7.02498 10.0168 6.63323 9.625 6.14998 9.625C5.66673 9.625 5.27498 10.0168 5.27498 10.5C5.27498 10.9832 5.66673 11.375 6.14998 11.375Z" fill="url(#paint2_linear_563_457)"/>
<defs>
<linearGradient id="paint0_linear_563_457" x1="1.5" y1="16" x2="6.23394" y2="6.81642" gradientUnits="userSpaceOnUse">
<stop stop-color="#2E4AFA"/>
<stop offset="1" stop-color="#8E9EFF"/>
</linearGradient>
<linearGradient id="paint1_linear_563_457" x1="1.08712" y1="16.0182" x2="19.5207" y2="1.67844" gradientUnits="userSpaceOnUse">
<stop stop-color="#2E4AFA"/>
<stop offset="1" stop-color="#8E9EFF"/>
</linearGradient>
<linearGradient id="paint2_linear_563_457" x1="3.39773" y1="9.39919" x2="4.86987" y2="5.76432" gradientUnits="userSpaceOnUse">
<stop stop-color="#2E4AFA"/>
<stop offset="1" stop-color="#8E9EFF"/>
</linearGradient>
</defs>
</svg>
