<svg width="129" height="128" viewBox="0 0 129 128" fill="none" xmlns="http://www.w3.org/2000/svg">
<path d="M64.748 8C33.8217 8 8.74805 33.0736 8.74805 64C8.74805 94.9264 33.8217 120 64.748 120C95.6744 120 120.748 94.9264 120.748 64C120.748 33.0736 95.6744 8 64.748 8Z" stroke="url(#paint0_linear_1013_854)" stroke-width="12"/>
<path d="M114.643 90.9279L111.562 85.7794L110.039 86.6906L109.257 88.2833L114.643 90.9279ZM114.578 91.0578L109.192 88.4132L109.059 88.6843L108.954 88.9674L114.578 91.0578ZM114.644 90.9274L117.725 96.0759L120.644 94.3291V90.9274H114.644ZM114.644 90.926L109.264 88.2691L108.644 89.5251V90.926H114.644ZM115.612 88.9929L120.969 91.6956L120.969 91.6956L115.612 88.9929ZM119.783 77.5171L113.868 76.5113L113.802 76.9001L113.787 77.2941L119.783 77.5171ZM97.1401 40.3526L100.287 35.244L100.287 35.2437L97.1401 40.3526ZM97.0561 38.7261L93.4909 33.9003L93.4902 33.9008L97.0561 38.7261ZM98.7468 37.4771L102.312 42.303L102.313 42.3024L98.7468 37.4771ZM98.5247 35.8131L96.2903 41.3815L96.2924 41.3823L98.5247 35.8131ZM46.7743 40.3987L41.797 37.0481L41.796 37.0496L46.7743 40.3987ZM46.1934 40.8071L44.6888 34.9988L44.6867 34.9993L46.1934 40.8071ZM29.0594 67.9954L23.0622 68.1812L23.0623 68.1815L29.0594 67.9954ZM30.9643 68.5244L26.1877 64.8934L26.1876 64.8935L30.9643 68.5244ZM45.5604 59.3674L51.5359 58.8255L50.9006 51.8202L44.0832 53.5521L45.5604 59.3674ZM46.137 60.1901L48.7839 54.8055L48.7837 54.8054L46.137 60.1901ZM39.7668 113.834L37.1533 108.433L26.9729 113.359L36.7602 119.026L39.7668 113.834ZM50.5153 117.325L52.196 111.565L51.5911 111.389L50.9628 111.342L50.5153 117.325ZM89.0426 113.088L93.4514 117.158L85.9281 107.96L89.0426 113.088ZM88.7819 113.37L84.373 109.301L70.2078 124.646L90.3582 119.16L88.7819 113.37ZM89.685 113.124L91.2613 118.914L92.531 118.568L93.5395 117.723L89.685 113.124ZM89.6861 113.123L93.5407 117.722L98.8389 113.28L93.6958 108.66L89.6861 113.123ZM89.401 112.867L86.2274 107.775L79.4539 111.997L85.3914 117.331L89.401 112.867ZM89.7222 112.665L87.9137 106.944L87.1607 107.182L86.4948 107.607L89.7222 112.665ZM109.257 88.2833C109.259 88.2781 109.26 88.2768 109.247 88.3023C109.238 88.3201 109.216 88.3647 109.192 88.4132L119.964 93.7024C119.961 93.7077 119.96 93.709 119.973 93.6834C119.982 93.6657 120.005 93.6211 120.028 93.5726L109.257 88.2833ZM111.563 85.7788L111.562 85.7794L117.724 96.0765L117.725 96.0759L111.563 85.7788ZM108.644 90.926V90.9274H120.644V90.926H108.644ZM110.255 86.2901C109.931 86.932 109.594 87.6002 109.264 88.2691L120.023 93.5829C120.327 92.9677 120.641 92.3455 120.969 91.6956L110.255 86.2901ZM113.787 77.2941C113.76 78.0248 113.504 79.1538 112.834 80.8282C112.174 82.4788 111.289 84.2423 110.255 86.2901L120.969 91.6956C121.95 89.7504 123.086 87.5083 123.976 85.2853C124.855 83.0861 125.677 80.4738 125.779 77.74L113.787 77.2941ZM93.9933 45.4611C102.912 50.9548 108.3 55.8369 111.256 60.6321C114.057 65.1767 114.957 70.1035 113.868 76.5113L125.698 78.5229C127.202 69.6785 126.02 61.7142 121.471 54.3351C117.077 47.2066 109.847 41.1326 100.287 35.244L93.9933 45.4611ZM93.4902 33.9008C89.3748 36.9421 89.9357 42.9621 93.9937 45.4614L100.287 35.2437C103.165 37.0163 103.623 41.3336 100.622 43.5515L93.4902 33.9008ZM95.1815 32.6513L93.4909 33.9003L100.621 43.552L102.312 42.303L95.1815 32.6513ZM96.2924 41.3823C92.724 39.952 91.9239 35.0588 95.1807 32.6519L102.313 42.3024C106.777 39.0036 105.72 32.233 100.757 30.2438L96.2924 41.3823ZM51.7516 43.7493C55.8611 37.6447 59.7052 34.838 65.2928 34.1648C71.583 33.4069 80.955 35.2279 96.2903 41.3815L100.759 30.2447C85.1524 23.9822 73.3542 21.1067 63.8573 22.251C53.6577 23.4799 47.0976 29.1741 41.797 37.0481L51.7516 43.7493ZM47.6981 46.6153C49.3113 46.1974 50.7757 45.1999 51.7526 43.7479L41.796 37.0496C42.5025 35.9995 43.5445 35.2952 44.6888 34.9988L47.6981 46.6153ZM35.0565 67.8095C34.88 62.1138 35.4211 57.5334 37.1665 54.0929C38.7359 50.9995 41.5974 48.1981 47.7002 46.6148L44.6867 34.9993C35.6657 37.3397 29.7745 42.1402 26.4649 48.6638C23.3314 54.8404 22.8674 61.8923 23.0622 68.1812L35.0565 67.8095ZM26.1876 64.8935C27.6037 63.0306 29.799 62.6847 31.3693 63.1083C33.0024 63.5488 34.9738 65.1436 35.0565 67.8093L23.0623 68.1815C23.1745 71.7992 25.8102 74.0377 28.2442 74.6942C30.6156 75.3339 33.7486 74.7764 35.741 72.1552L26.1876 64.8935ZM44.0832 53.5521C36.1094 55.5777 30.2999 59.4836 26.1877 64.8934L35.741 72.1553C38.079 69.0795 41.4749 66.5958 47.0377 65.1827L44.0832 53.5521ZM39.585 59.9093C39.7912 62.1834 41.1332 64.4162 43.4903 65.5748L48.7837 54.8054C50.418 55.6087 51.3883 57.1983 51.5359 58.8255L39.585 59.9093ZM43.4901 65.5747C52.966 70.2328 57.0638 77.9617 56.5211 85.412C55.972 92.9509 50.516 101.967 37.1533 108.433L42.3802 119.235C58.4768 111.446 67.5475 99.2155 68.4894 86.2838C69.4378 73.2634 61.9911 61.2978 48.7839 54.8055L43.4901 65.5747ZM36.7602 119.026C41.1222 121.552 45.6015 122.974 50.0679 123.308L50.9628 111.342C48.4683 111.155 45.7233 110.35 42.7733 108.642L36.7602 119.026ZM85.9281 107.96C76.8691 113.461 63.7646 114.941 52.196 111.565L48.8346 123.085C63.2396 127.288 79.8854 125.669 92.1571 118.216L85.9281 107.96ZM93.1907 117.44L93.4514 117.158L84.6338 109.018L84.373 109.301L93.1907 117.44ZM88.1086 107.335L87.2055 107.581L90.3582 119.16L91.2613 118.914L88.1086 107.335ZM85.8316 108.525L85.8305 108.526L93.5395 117.723L93.5407 117.722L85.8316 108.525ZM85.3914 117.331L85.6764 117.587L93.6958 108.66L93.4107 108.404L85.3914 117.331ZM86.4948 107.607C86.4058 107.663 86.3167 107.72 86.2274 107.775L92.5747 117.959C92.7004 117.881 92.8254 117.802 92.9496 117.723L86.4948 107.607ZM108.954 88.9674C105.057 99.4526 95.4794 104.552 87.9137 106.944L91.5307 118.386C100.431 115.572 114.385 108.799 120.202 93.1482L108.954 88.9674Z" fill="url(#paint1_linear_1013_854)"/>
<defs>
<linearGradient id="paint0_linear_1013_854" x1="47.0028" y1="116.69" x2="47.0829" y2="48.1907" gradientUnits="userSpaceOnUse">
<stop stop-color="#124DA4"/>
<stop offset="1" stop-color="#2896FF"/>
</linearGradient>
<linearGradient id="paint1_linear_1013_854" x1="60.2061" y1="116.661" x2="60.2714" y2="60.7871" gradientUnits="userSpaceOnUse">
<stop stop-color="#124DA4"/>
<stop offset="1" stop-color="#2896FF"/>
</linearGradient>
</defs>
</svg>
