<svg width="16" height="16" viewBox="0 0 16 16" fill="none" xmlns="http://www.w3.org/2000/svg">
<g clip-path="url(#clip0_505_94)">
<path d="M1 8C1 4.9359 1 3.40385 2.0248 2.4516C3.051 1.5 4.7002 1.5 8 1.5C11.2998 1.5 12.9497 1.5 13.9745 2.4516C15 3.4045 15 4.9359 15 8C15 11.0641 15 12.5961 13.9745 13.5477C12.9504 14.5 11.2998 14.5 8 14.5C4.7002 14.5 3.0503 14.5 2.0248 13.5477C1 12.5968 1 11.0641 1 8Z" stroke="url(#paint0_linear_505_94)" stroke-width="1.8"/>
<path d="M4.63441 3.19299C4.72553 3.08371 4.85631 3.01509 4.99802 3.00221C5.13971 2.98932 5.28073 3.03324 5.39006 3.1243L5.58828 3.28888C6.0212 3.64953 6.38973 3.95651 6.64448 4.23917C6.91568 4.53971 7.12678 4.88392 7.12678 5.3254C7.12678 5.76693 6.91568 6.11186 6.64448 6.41166C6.38973 6.69431 6.0212 7.0013 5.58828 7.36196L5.39006 7.52654C5.3362 7.57365 5.27346 7.60952 5.20553 7.63207C5.1376 7.65456 5.06586 7.66325 4.99452 7.65765C4.92317 7.65201 4.85368 7.63221 4.79012 7.59929C4.72655 7.56641 4.67021 7.52118 4.62439 7.46619C4.57858 7.41121 4.54423 7.34763 4.52335 7.27917C4.50247 7.21076 4.49549 7.13879 4.50283 7.06763C4.51016 6.99642 4.53166 6.92743 4.56605 6.86467C4.60044 6.80192 4.64704 6.74669 4.7031 6.70218L4.87055 6.56266C5.34212 6.16912 5.65053 5.91147 5.84803 5.69254C6.03552 5.485 6.05341 5.38695 6.05341 5.3254C6.05341 5.2639 6.03552 5.16657 5.84803 4.95831C5.64982 4.73938 5.34212 4.48106 4.87055 4.08818L4.7031 3.94864C4.59383 3.85752 4.5252 3.72674 4.51232 3.58504C4.49944 3.44334 4.54335 3.30232 4.63441 3.19299ZM11.5 7.11436C11.5 7.25672 11.4435 7.3932 11.3428 7.49385C11.2422 7.59451 11.1056 7.65104 10.9633 7.65104H8.10954C7.96722 7.65104 7.8307 7.59451 7.73004 7.49385C7.62939 7.3932 7.57286 7.25672 7.57286 7.11436C7.57286 6.97204 7.62939 6.83552 7.73004 6.73486C7.8307 6.63425 7.96722 6.57768 8.10954 6.57768H10.9633C11.1056 6.57768 11.2422 6.63425 11.3428 6.73486C11.4435 6.83552 11.5 6.97204 11.5 7.11436Z" fill="url(#paint1_linear_505_94)"/>
<path d="M4.63441 8.19299C4.72553 8.08371 4.85631 8.01509 4.99802 8.00221C5.13971 7.98932 5.28073 8.03324 5.39006 8.1243L5.58828 8.28888C6.0212 8.64953 6.38973 8.95651 6.64448 9.23917C6.91568 9.53971 7.12678 9.88392 7.12678 10.3254C7.12678 10.7669 6.91568 11.1119 6.64448 11.4117C6.38973 11.6943 6.0212 12.0013 5.58828 12.362L5.39006 12.5265C5.3362 12.5737 5.27346 12.6095 5.20553 12.6321C5.1376 12.6546 5.06586 12.6633 4.99452 12.6577C4.92317 12.652 4.85368 12.6322 4.79012 12.5993C4.72655 12.5664 4.67021 12.5212 4.62439 12.4662C4.57858 12.4112 4.54423 12.3476 4.52335 12.2792C4.50247 12.2108 4.49549 12.1388 4.50283 12.0676C4.51016 11.9964 4.53166 11.9274 4.56605 11.8647C4.60044 11.8019 4.64704 11.7467 4.7031 11.7022L4.87055 11.5627C5.34212 11.1691 5.65053 10.9115 5.84803 10.6925C6.03552 10.485 6.05341 10.387 6.05341 10.3254C6.05341 10.2639 6.03552 10.1666 5.84803 9.95831C5.64982 9.73938 5.34212 9.48106 4.87055 9.08818L4.7031 8.94864C4.59383 8.85752 4.5252 8.72674 4.51232 8.58504C4.49944 8.44334 4.54335 8.30232 4.63441 8.19299ZM11.5 12.1144C11.5 12.2567 11.4435 12.3932 11.3428 12.4939C11.2422 12.5945 11.1056 12.651 10.9633 12.651H8.10954C7.96722 12.651 7.8307 12.5945 7.73004 12.4939C7.62939 12.3932 7.57286 12.2567 7.57286 12.1144C7.57286 11.972 7.62939 11.8355 7.73004 11.7349C7.8307 11.6343 7.96722 11.5777 8.10954 11.5777H10.9633C11.1056 11.5777 11.2422 11.6343 11.3428 11.7349C11.4435 11.8355 11.5 11.972 11.5 12.1144Z" fill="url(#paint2_linear_505_94)"/>
</g>
<defs>
<linearGradient id="paint0_linear_505_94" x1="1" y1="8" x2="15" y2="8" gradientUnits="userSpaceOnUse">
<stop stop-color="#2FFFFF"/>
<stop offset="0.27" stop-color="#2AE7FF"/>
<stop offset="0.82" stop-color="#1EAAFF"/>
<stop offset="1" stop-color="#1A95FF"/>
</linearGradient>
<linearGradient id="paint1_linear_505_94" x1="4.5" y1="5.32965" x2="11.5" y2="5.32965" gradientUnits="userSpaceOnUse">
<stop stop-color="#2FFFFF"/>
<stop offset="0.27" stop-color="#2AE7FF"/>
<stop offset="0.82" stop-color="#1EAAFF"/>
<stop offset="1" stop-color="#1A95FF"/>
</linearGradient>
<linearGradient id="paint2_linear_505_94" x1="4.5" y1="10.3297" x2="11.5" y2="10.3297" gradientUnits="userSpaceOnUse">
<stop stop-color="#2FFFFF"/>
<stop offset="0.27" stop-color="#2AE7FF"/>
<stop offset="0.82" stop-color="#1EAAFF"/>
<stop offset="1" stop-color="#1A95FF"/>
</linearGradient>
<clipPath id="clip0_505_94">
<rect width="16" height="16" fill="white"/>
</clipPath>
</defs>
</svg>
