<svg width="16" height="16" viewBox="0 0 16 16" fill="none" xmlns="http://www.w3.org/2000/svg">
<path d="M12.6757 3.64307C12.5336 3.64307 12.3973 3.69951 12.2969 3.79997C12.1964 3.90044 12.14 4.0367 12.14 4.17878V5.25021C12.14 5.39229 12.1964 5.52855 12.2969 5.62902C12.3973 5.72948 12.5336 5.78592 12.6757 5.78592C12.8177 5.78592 12.954 5.72948 13.0545 5.62902C13.1549 5.52855 13.2114 5.39229 13.2114 5.25021V4.17878C13.2114 4.0367 13.1549 3.90044 13.0545 3.79997C12.954 3.69951 12.8177 3.64307 12.6757 3.64307ZM12.14 7.92878C12.14 7.7867 12.1964 7.65044 12.2969 7.54997C12.3973 7.44951 12.5336 7.39307 12.6757 7.39307C12.8177 7.39307 12.954 7.44951 13.0545 7.54997C13.1549 7.65044 13.2114 7.7867 13.2114 7.92878V8.00021C13.2114 8.14229 13.1549 8.27855 13.0545 8.37902C12.954 8.47948 12.8177 8.53592 12.6757 8.53592C12.5336 8.53592 12.3973 8.47948 12.2969 8.37902C12.1964 8.27855 12.14 8.14229 12.14 8.00021V7.92878ZM12.6757 10.0716C12.5336 10.0716 12.3973 10.1281 12.2969 10.2285C12.1964 10.329 12.14 10.4653 12.14 10.6074V11.6788C12.14 11.8209 12.1964 11.9571 12.2969 12.0576C12.3973 12.1581 12.5336 12.2145 12.6757 12.2145C12.8177 12.2145 12.954 12.1581 13.0545 12.0576C13.1549 11.9571 13.2114 11.8209 13.2114 11.6788V10.6074C13.2114 10.4653 13.1549 10.329 13.0545 10.2285C12.954 10.1281 12.8177 10.0716 12.6757 10.0716ZM2.92871 4.17878C2.92871 4.0367 2.98515 3.90044 3.08562 3.79997C3.18608 3.69951 3.32234 3.64307 3.46443 3.64307C3.60651 3.64307 3.74277 3.69951 3.84323 3.79997C3.9437 3.90044 4.00014 4.0367 4.00014 4.17878V5.25021C4.00014 5.39229 3.9437 5.52855 3.84323 5.62902C3.74277 5.72948 3.60651 5.78592 3.46443 5.78592C3.32234 5.78592 3.18608 5.72948 3.08562 5.62902C2.98515 5.52855 2.92871 5.39229 2.92871 5.25021V4.17878ZM3.46443 7.40996C3.32234 7.40996 3.18608 7.4664 3.08562 7.56687C2.98515 7.66734 2.92871 7.8036 2.92871 7.94568V8.01711C2.92871 8.15919 2.98515 8.29545 3.08562 8.39591C3.18608 8.49638 3.32234 8.55282 3.46443 8.55282C3.60651 8.55282 3.74277 8.49638 3.84323 8.39591C3.9437 8.29545 4.00014 8.15919 4.00014 8.01711V7.94568C4.00014 7.8036 3.9437 7.66734 3.84323 7.56687C3.74277 7.4664 3.60651 7.40996 3.46443 7.40996ZM2.92871 10.6074C2.92871 10.4653 2.98515 10.329 3.08562 10.2285C3.18608 10.1281 3.32234 10.0716 3.46443 10.0716C3.60651 10.0716 3.74277 10.1281 3.84323 10.2285C3.9437 10.329 4.00014 10.4653 4.00014 10.6074V11.6788C4.00014 11.8209 3.9437 11.9571 3.84323 12.0576C3.74277 12.1581 3.60651 12.2145 3.46443 12.2145C3.32234 12.2145 3.18608 12.1581 3.08562 12.0576C2.98515 11.9571 2.92871 11.8209 2.92871 11.6788V10.6074ZM6.17741 6.30298C6.17741 5.86905 6.64777 5.59959 7.0217 5.81816L10.0217 7.57102C10.0941 7.61325 10.1541 7.6737 10.1958 7.74636C10.2375 7.81902 10.2595 7.90134 10.2595 7.98512C10.2595 8.06891 10.2375 8.15123 10.1958 8.22389C10.1541 8.29655 10.0941 8.357 10.0217 8.39923L7.0217 10.1521C6.93643 10.2018 6.83957 10.2282 6.74087 10.2285C6.64216 10.2289 6.54511 10.2032 6.45949 10.1541C6.37388 10.105 6.30272 10.0342 6.25319 9.94881C6.20367 9.86343 6.17753 9.76651 6.17741 9.6678V6.30298Z" fill="url(#paint0_linear_526_717)" stroke="url(#paint1_linear_526_717)" stroke-width="0.7"/>
<path d="M15 10.1V5.9C15 2.4 13.6 1 10.1 1H5.9C2.4 1 1 2.4 1 5.9V10.1C1 13.6 2.4 15 5.9 15H10.1C13.6 15 15 13.6 15 10.1Z" stroke="url(#paint2_linear_526_717)" stroke-width="1.8" stroke-linecap="round" stroke-linejoin="round"/>
<defs>
<linearGradient id="paint0_linear_526_717" x1="14.3438" y1="1.73144" x2="2.83401" y2="15.6487" gradientUnits="userSpaceOnUse">
<stop stop-color="#FFC700"/>
<stop offset="0.551952" stop-color="#FF49AB"/>
<stop offset="1" stop-color="#BA49FF"/>
</linearGradient>
<linearGradient id="paint1_linear_526_717" x1="14.3438" y1="1.73144" x2="2.83401" y2="15.6487" gradientUnits="userSpaceOnUse">
<stop stop-color="#FFC700"/>
<stop offset="0.551952" stop-color="#FF49AB"/>
<stop offset="1" stop-color="#BA49FF"/>
</linearGradient>
<linearGradient id="paint2_linear_526_717" x1="16.5417" y1="-2.12232" x2="-2.59702" y2="17.1684" gradientUnits="userSpaceOnUse">
<stop stop-color="#FFC700"/>
<stop offset="0.551952" stop-color="#FF49AB"/>
<stop offset="1" stop-color="#BA49FF"/>
</linearGradient>
</defs>
</svg>
