<svg width="16" height="16" viewBox="0 0 16 16" fill="none" xmlns="http://www.w3.org/2000/svg">
<path d="M8.10526 0.5C7.58112 0.499833 7.07462 0.689289 6.67925 1.03339C6.28388 1.3775 6.02635 1.85302 5.95419 2.37217C5.88203 2.89132 6.00012 3.41905 6.28666 3.85793C6.51777 4.21191 6.84588 4.48883 7.22878 4.65763C7.39252 4.72982 7.51316 4.88353 7.51316 5.06248V7.80263C7.51316 7.95967 7.57554 8.11027 7.68658 8.22131C7.79762 8.33235 7.94823 8.39474 8.10526 8.39474C8.2623 8.39474 8.4129 8.33235 8.52394 8.22131C8.63499 8.11027 8.69737 7.95967 8.69737 7.80263V5.06166C8.69737 4.8831 8.8175 4.72961 8.98074 4.65723C9.36283 4.48779 9.69005 4.21065 9.92043 3.85678C10.206 3.41818 10.3235 2.89122 10.2515 2.37284C10.1794 1.85447 9.92261 1.37954 9.52828 1.03543C9.13395 0.69133 8.62862 0.501192 8.10526 0.5ZM2.97368 2.07895C2.45023 2.07895 1.94822 2.28689 1.57808 2.65703C1.20794 3.02716 1 3.52918 1 4.05263V13.5263C1 14.0498 1.20794 14.5518 1.57808 14.9219C1.94822 15.2921 2.45023 15.5 2.97368 15.5C3.49714 15.5 3.99915 15.2921 4.36929 14.9219C4.73943 14.5518 4.94737 14.0498 4.94737 13.5263V11.1632C4.94737 10.9422 5.12645 10.7632 5.34737 10.7632H5.73158C5.95249 10.7632 6.13158 10.9422 6.13158 11.1632V13.5263C6.13158 14.0498 6.33952 14.5518 6.70966 14.9219C7.07979 15.2921 7.58181 15.5 8.10526 15.5C8.62872 15.5 9.13073 15.2921 9.50087 14.9219C9.87101 14.5518 10.0789 14.0498 10.0789 13.5263V11.1632C10.0789 10.9422 10.258 10.7632 10.4789 10.7632H13.6316C14.0503 10.7632 14.452 10.5968 14.7481 10.3007C15.0442 10.0046 15.2105 9.60297 15.2105 9.18421V4.05263C15.2105 3.52918 15.0026 3.02716 14.6324 2.65703C14.2623 2.28689 13.7603 2.07895 13.2368 2.07895C12.7134 2.07895 12.2114 2.28689 11.8412 2.65703C11.4711 3.02716 11.2632 3.52918 11.2632 4.05263V6.41579C11.2632 6.6367 11.0841 6.81579 10.8632 6.81579H9.88684C9.66593 6.81579 9.48684 6.99488 9.48684 7.21579V7.6C9.48684 7.82091 9.66593 8 9.88684 8H12.0474C12.2683 8 12.4474 7.82091 12.4474 7.6V4.05263C12.4474 3.84325 12.5305 3.64244 12.6786 3.49439C12.8267 3.34633 13.0275 3.26316 13.2368 3.26316C13.4462 3.26316 13.647 3.34633 13.7951 3.49439C13.9431 3.64244 14.0263 3.84325 14.0263 4.05263V9.18421C14.0263 9.2889 13.9847 9.3893 13.9107 9.46333C13.8367 9.53736 13.7363 9.57895 13.6316 9.57895H9.29474C9.07382 9.57895 8.89474 9.75803 8.89474 9.97895V13.5263C8.89474 13.7357 8.81156 13.9365 8.6635 14.0846C8.51545 14.2326 8.31464 14.3158 8.10526 14.3158C7.89588 14.3158 7.69508 14.2326 7.54702 14.0846C7.39897 13.9365 7.31579 13.7357 7.31579 13.5263V9.97895C7.31579 9.75803 7.1367 9.57895 6.91579 9.57895H4.16316C3.94224 9.57895 3.76316 9.75803 3.76316 9.97895V13.5263C3.76316 13.7357 3.67998 13.9365 3.53193 14.0846C3.38387 14.2326 3.18307 14.3158 2.97368 14.3158C2.7643 14.3158 2.5635 14.2326 2.41544 14.0846C2.26739 13.9365 2.18421 13.7357 2.18421 13.5263V4.05263C2.18421 3.84325 2.26739 3.64244 2.41544 3.49439C2.5635 3.34633 2.7643 3.26316 2.97368 3.26316C3.18307 3.26316 3.38387 3.34633 3.53193 3.49439C3.67998 3.64244 3.76316 3.84325 3.76316 4.05263V7.6C3.76316 7.82091 3.94224 8 4.16316 8H6.32368C6.5446 8 6.72368 7.82091 6.72368 7.6V7.21579C6.72368 6.99488 6.5446 6.81579 6.32368 6.81579H5.34737C5.12645 6.81579 4.94737 6.6367 4.94737 6.41579V4.05263C4.94737 3.52918 4.73943 3.02716 4.36929 2.65703C3.99915 2.28689 3.49714 2.07895 2.97368 2.07895Z" fill="url(#paint0_linear_652_99)" stroke="url(#paint1_linear_652_99)" stroke-width="0.6"/>
<defs>
<linearGradient id="paint0_linear_652_99" x1="3.66447" y1="13.625" x2="13.1179" y2="2.87798" gradientUnits="userSpaceOnUse">
<stop stop-color="#FF405B"/>
<stop offset="1" stop-color="#FF8860"/>
</linearGradient>
<linearGradient id="paint1_linear_652_99" x1="3.66447" y1="13.625" x2="13.1179" y2="2.87798" gradientUnits="userSpaceOnUse">
<stop stop-color="#FF405B"/>
<stop offset="1" stop-color="#FF8860"/>
</linearGradient>
</defs>
</svg>
