<svg width="16" height="16" viewBox="0 0 16 16" fill="none" xmlns="http://www.w3.org/2000/svg">
<path fill-rule="evenodd" clip-rule="evenodd" d="M10.8924 1.19692L10.8963 1.1988L10.8963 1.1987L10.8924 1.19692ZM10.2892 2.36904L10.2892 2.3694C9.74206 2.53124 9.21231 2.88189 8.97389 3.44544C8.70623 4.0427 8.71906 4.72666 8.78573 5.3692C8.85148 5.72853 8.54823 6.09266 8.20203 6.07147C7.19818 6.06376 6.19799 5.85087 5.26904 5.4482C5.432 5.15003 5.62264 4.8711 5.81329 4.59214L5.81339 4.59199L5.81349 4.59185L5.81353 4.59178L5.81358 4.59171L5.81363 4.59164C5.85262 4.5346 5.89161 4.47755 5.93036 4.42033C6.46471 4.62551 7.02281 4.76327 7.58822 4.82492C7.58 3.9772 7.72888 3.08708 8.22488 2.39733C8.76564 1.62667 9.65439 1.2211 10.5303 1.07275L10.5367 1.07384L10.5736 1.06421C10.6789 1.03651 10.7225 1.02504 10.8963 1.02504C11.6665 0.999879 12.4702 1.2719 13.0566 1.81137C12.7661 2.08206 12.5569 2.42983 12.3514 2.77181C11.8071 2.2247 10.9842 2.11485 10.2892 2.36904ZM1.67545 2.03317C1.86819 1.72972 2.32673 1.69985 2.5569 1.97055C2.883 2.3212 3.22188 2.65837 3.58085 2.97048C3.57126 3.00435 3.56032 3.0374 3.5482 3.06976C3.56036 3.03732 3.57133 3.00417 3.58095 2.97021C4.28794 3.57615 5.07531 4.08286 5.93027 4.42003C5.89141 4.47741 5.8523 4.53463 5.8132 4.59184C5.62255 4.8708 5.43191 5.14973 5.26895 5.4479C4.44323 5.09629 3.67597 4.59922 2.97903 4.01449L2.9789 4.01473L2.81358 3.88276C2.41807 3.54174 2.04082 3.17663 1.69464 2.78071C1.53022 2.57263 1.51652 2.24895 1.67545 2.03317ZM15.2233 2.17936C15.0991 1.81522 14.626 1.65531 14.3364 1.90481C14.0861 2.14179 13.7345 2.20248 13.4102 2.16684C13.3562 2.11668 13.3058 2.06259 13.2553 2.00854C13.1915 1.94007 13.1277 1.87166 13.0567 1.81137C12.7662 2.08206 12.5571 2.42983 12.3516 2.77181C12.3926 2.81709 12.474 2.90764 12.5141 2.95291C12.5224 2.96254 12.5342 2.97699 12.5461 2.99144C12.558 3.00589 12.5699 3.02034 12.5781 3.02998C12.6813 3.15039 12.7955 3.27852 12.9544 3.31127C13.6696 3.49238 14.4881 3.37004 15.0535 2.84888C15.2398 2.69089 15.2891 2.41345 15.2233 2.17936ZM2.39508 4.83059C2.29186 4.53196 1.95846 4.34315 1.66891 4.45296C1.37479 4.54062 1.19302 4.90284 1.29258 5.20918C1.47161 5.70144 1.77213 6.14457 2.16125 6.47692C2.21186 6.51332 2.26271 6.55271 2.31421 6.5926L2.31422 6.59261L2.31422 6.59261C2.54623 6.77232 2.79146 6.96227 3.08746 6.93546C3.44551 6.89404 3.66931 6.47499 3.55513 6.12338C3.49119 5.9731 3.38432 5.84594 3.24091 5.77851C2.8655 5.57717 2.56224 5.23808 2.39508 4.83059ZM13.297 5.63283C13.4049 5.02208 14.3119 5.0346 14.4288 5.63476C14.4096 9.67689 11.5589 13.4859 7.84668 14.4723C7.96341 14.1872 8.14104 13.9408 8.31836 13.6948C8.51844 13.4172 8.71814 13.1401 8.82952 12.8086C10.4107 12.0265 11.683 10.6373 12.4878 9.01414C12.9993 7.9689 13.2259 6.79846 13.297 5.63283ZM3.082 7.68019C2.82533 7.3199 2.21699 7.42876 2.09825 7.86515C1.97865 8.19213 2.18241 8.47625 2.36622 8.73254C2.40282 8.78357 2.43862 8.83349 2.47092 8.88243C2.8025 9.31109 3.22541 9.68393 3.73418 9.84668C4.16989 10.0663 4.68962 9.59918 4.54073 9.11076C4.4727 8.85008 4.26568 8.76304 4.05595 8.67486C3.92776 8.62097 3.79857 8.56665 3.69947 8.47201C3.48262 8.29752 3.32952 8.06104 3.1776 7.8264C3.14587 7.77739 3.1142 7.72846 3.082 7.68019ZM5.11744 11.0555C5.43622 10.8427 5.89932 11.0392 5.98519 11.4284C6.0272 11.6528 5.9587 11.9062 5.78058 12.0459C4.96215 12.593 4.06517 12.9995 3.14262 13.3078C3.22019 13.325 3.29751 13.3438 3.37486 13.3627L3.37496 13.3627L3.37506 13.3627L3.37515 13.3628C3.50537 13.3945 3.63566 13.4262 3.7674 13.4504C4.0021 13.4985 4.23772 13.5361 4.47515 13.5669C4.47517 13.5669 4.47518 13.5669 4.47519 13.5669C5.1109 13.6286 5.75302 13.6132 6.38782 13.5352C6.38785 13.5351 6.38789 13.5351 6.38793 13.535C7.2301 13.4213 8.05858 13.1882 8.8295 12.8086C8.71813 13.1401 8.51843 13.4171 8.31834 13.6947C8.14102 13.9407 7.96339 14.1871 7.84666 14.4723C7.09493 14.691 6.31489 14.7902 5.53668 14.8143C5.53665 14.8143 5.53662 14.8144 5.53659 14.8144C4.89358 14.8357 4.24692 14.7855 3.61486 14.6536C3.61486 14.6536 3.61486 14.6536 3.61485 14.6536C3.01109 14.5197 2.41736 14.3241 1.86475 14.0332C2.01742 13.6796 2.23796 13.3707 2.45842 13.0618C2.68904 12.7388 2.91958 12.4158 3.07229 12.042C3.79206 11.8127 4.47256 11.4611 5.11744 11.0555ZM3.07229 12.042C2.42924 12.2501 1.7524 12.3252 1.08194 12.2712C0.526582 12.3156 0.393222 13.1941 0.897429 13.4321C1.208 13.6527 1.52586 13.8627 1.86475 14.0332C2.01742 13.6796 2.23796 13.3707 2.45842 13.0618C2.68904 12.7388 2.91958 12.4158 3.07229 12.042Z" fill="url(#paint0_linear_670_269)"/>
<path d="M10.8963 1.1988L10.7662 1.46912L11.0764 1.61842L11.1819 1.29069L10.8963 1.1988ZM10.8924 1.19692L11.0159 0.923519L10.7623 1.46724L10.8924 1.19692ZM10.8963 1.1987L11.1819 1.29059L11.264 1.03558L11.0199 0.925296L10.8963 1.1987ZM10.2892 2.3694L10.3743 2.65708L10.6171 2.58526L10.5871 2.33383L10.2892 2.3694ZM10.2892 2.36904L10.1861 2.0873L9.96315 2.16885L9.9913 2.40461L10.2892 2.36904ZM8.97389 3.44544L9.24772 3.56815L9.25018 3.56233L8.97389 3.44544ZM8.78573 5.3692L8.48733 5.40016L8.48853 5.41175L8.49063 5.4232L8.78573 5.3692ZM8.20203 6.07147L8.22036 5.77203L8.21236 5.77154L8.20434 5.77148L8.20203 6.07147ZM5.26904 5.4482L5.0058 5.30432L4.84817 5.59273L5.14973 5.72345L5.26904 5.4482ZM5.81329 4.59214L6.06097 4.76142L6.06141 4.76077L5.81329 4.59214ZM5.81339 4.59199L5.56565 4.42281L5.56527 4.42337L5.81339 4.59199ZM5.81349 4.59185L6.06123 4.76104L6.06229 4.75946L5.81349 4.59185ZM5.81358 4.59171L5.5656 4.42287L5.56477 4.42409L5.81358 4.59171ZM5.81363 4.59164L5.56595 4.42237L5.56565 4.42281L5.81363 4.59164ZM5.93036 4.42033L6.0379 4.14027L5.81554 4.05488L5.68197 4.25209L5.93036 4.42033ZM7.58822 4.82492L7.5557 5.12315L7.89148 5.15977L7.8882 4.82201L7.58822 4.82492ZM8.22488 2.39733L8.46846 2.57249L8.47045 2.56965L8.22488 2.39733ZM10.5303 1.07275L10.5804 0.776962L10.5303 0.768484L10.4802 0.776966L10.5303 1.07275ZM10.5367 1.07384L10.4867 1.36963L10.5502 1.38039L10.6126 1.36409L10.5367 1.07384ZM10.5736 1.06421L10.6495 1.35446L10.6499 1.35434L10.5736 1.06421ZM10.8963 1.02504V1.3252L10.9061 1.32488L10.8963 1.02504ZM13.0566 1.81137L13.2611 2.03085L13.4982 1.80996L13.2597 1.59058L13.0566 1.81137ZM12.3514 2.77181L12.1388 2.98341L12.4103 3.25631L12.6086 2.92633L12.3514 2.77181ZM2.5569 1.97055L2.32813 2.16507L2.33722 2.17485L2.5569 1.97055ZM1.67545 2.03317L1.91701 2.21108L1.92314 2.20274L1.92869 2.19401L1.67545 2.03317ZM3.58085 2.97048L3.86949 3.05226L3.9214 2.86904L3.7777 2.74409L3.58085 2.97048ZM3.5482 3.06976L3.26724 2.9646L3.82915 3.17498L3.5482 3.06976ZM3.58095 2.97021L3.77618 2.74243L3.42014 2.43728L3.29231 2.88844L3.58095 2.97021ZM5.93027 4.42003L6.17866 4.58827L6.3886 4.2783L6.04033 4.14095L5.93027 4.42003ZM5.8132 4.59184L5.56552 4.42257L5.56552 4.42257L5.8132 4.59184ZM5.26895 5.4479L5.15142 5.72392L5.40173 5.8305L5.5322 5.59178L5.26895 5.4479ZM2.97903 4.01449L3.17186 3.78466L2.8863 3.54508L2.7133 3.87526L2.97903 4.01449ZM2.9789 4.01473L2.79174 4.24919L3.0759 4.47602L3.24464 4.15396L2.9789 4.01473ZM2.81358 3.88276L2.61754 4.11013L2.62642 4.11721L2.81358 3.88276ZM1.69464 2.78071L1.45925 2.9667L1.46388 2.97256L1.46879 2.97818L1.69464 2.78071ZM14.3364 1.90481L14.1404 1.67728L14.1301 1.68698L14.3364 1.90481ZM15.2233 2.17936L15.5121 2.09814L15.5099 2.09027L15.5073 2.08254L15.2233 2.17936ZM13.4102 2.16684L13.2061 2.38667L13.2788 2.4542L13.3775 2.46504L13.4102 2.16684ZM13.2553 2.00854L13.036 2.21318L13.036 2.21318L13.2553 2.00854ZM13.0567 1.81137L13.251 1.5828L13.0476 1.40984L12.8522 1.59189L13.0567 1.81137ZM12.3516 2.77181L12.0944 2.61729L11.9796 2.80834L12.1294 2.97341L12.3516 2.77181ZM12.5141 2.95291L12.7425 2.7583L12.7386 2.75382L12.5141 2.95291ZM12.5461 2.99144L12.7779 2.80097L12.7779 2.80097L12.5461 2.99144ZM12.5781 3.02998L12.3497 3.22455L12.3503 3.22525L12.5781 3.02998ZM12.9544 3.31127L13.0281 3.02015L13.0149 3.01744L12.9544 3.31127ZM15.0535 2.84888L14.8593 2.61986L14.8502 2.62829L15.0535 2.84888ZM1.66891 4.45296L1.7546 4.74047L1.76508 4.73735L1.7753 4.73347L1.66891 4.45296ZM2.39508 4.83059L2.11154 4.92859L2.11431 4.9366L2.11753 4.94445L2.39508 4.83059ZM1.29258 5.20918L1.0071 5.30196L1.01065 5.31172L1.29258 5.20918ZM2.16125 6.47692L1.96641 6.70504L1.97592 6.71317L1.98608 6.72047L2.16125 6.47692ZM2.31421 6.5926L2.1305 6.82978L2.13893 6.83631L2.1478 6.84222L2.31421 6.5926ZM2.31422 6.59261L2.48728 6.34743L2.48063 6.34299L2.31422 6.59261ZM2.31422 6.59261L2.49811 6.35521L2.48723 6.34752L2.31422 6.59261ZM3.08746 6.93546L3.11452 7.23434L3.12193 7.23348L3.08746 6.93546ZM3.55513 6.12338L3.84046 6.03073L3.83637 6.01812L3.83118 6.00593L3.55513 6.12338ZM3.24091 5.77851L3.09913 6.04289L3.1061 6.04662L3.11326 6.04999L3.24091 5.77851ZM14.4288 5.63476L14.7288 5.63618L14.7289 5.60652L14.7232 5.5774L14.4288 5.63476ZM13.297 5.63283L13.0016 5.58067L12.9986 5.59749L12.9976 5.61455L13.297 5.63283ZM7.84668 14.4723L7.56905 14.3586L7.34033 14.9173L7.92372 14.7622L7.84668 14.4723ZM8.31836 13.6948L8.56172 13.8702L8.56172 13.8702L8.31836 13.6948ZM8.82952 12.8086L8.6965 12.5397L8.58483 12.595L8.54515 12.7131L8.82952 12.8086ZM12.4878 9.01414L12.7566 9.1474L12.7572 9.14601L12.4878 9.01414ZM2.09825 7.86515L2.37999 7.96821L2.38438 7.95623L2.38772 7.94392L2.09825 7.86515ZM3.082 7.68019L3.33169 7.51364L3.32634 7.50613L3.082 7.68019ZM2.36622 8.73254L2.12244 8.90738L2.12244 8.90738L2.36622 8.73254ZM2.47092 8.88243L2.22055 9.04769L2.22675 9.05708L2.23363 9.06598L2.47092 8.88243ZM3.73418 9.84668L3.86924 9.5788L3.84812 9.56815L3.82559 9.56094L3.73418 9.84668ZM4.54073 9.11076L4.25021 9.18658L4.25377 9.19824L4.54073 9.11076ZM4.05595 8.67486L3.93967 8.95142L3.93967 8.95142L4.05595 8.67486ZM3.69947 8.47201L3.90667 8.25506L3.89746 8.24626L3.88754 8.23828L3.69947 8.47201ZM3.1776 7.8264L2.92577 7.98944L2.92577 7.98944L3.1776 7.8264ZM5.98519 11.4284L6.28022 11.3731L6.27814 11.3637L5.98519 11.4284ZM5.11744 11.0555L5.27721 11.3096L5.28402 11.305L5.11744 11.0555ZM5.78058 12.0459L5.94732 12.2953L5.95676 12.2889L5.96569 12.2819L5.78058 12.0459ZM3.14262 13.3078L3.04755 13.0232L2.02141 13.3661L3.07759 13.6006L3.14262 13.3078ZM3.37486 13.3627L3.30385 13.6542L3.30615 13.6547L3.37486 13.3627ZM3.37515 13.3628L3.44617 13.0713L3.44387 13.0707L3.37515 13.3628ZM3.7674 13.4504L3.82771 13.1564L3.82148 13.1553L3.7674 13.4504ZM4.47515 13.5669L4.43653 13.8644L4.51749 13.8749L4.59262 13.843L4.47515 13.5669ZM4.47519 13.5669L4.50415 13.2683L4.42806 13.2609L4.35772 13.2909L4.47519 13.5669ZM6.38782 13.5352L6.4244 13.8329L6.55222 13.8172L6.62888 13.7137L6.38782 13.5352ZM6.38793 13.535L6.3478 13.2377L6.22226 13.2547L6.14686 13.3564L6.38793 13.535ZM8.8295 12.8086L9.11388 12.9041L9.34335 12.2212L8.69699 12.5394L8.8295 12.8086ZM8.31834 13.6947L8.56171 13.8701L8.56171 13.8701L8.31834 13.6947ZM7.84666 14.4723L7.93048 14.7603L8.06945 14.7199L8.12429 14.5859L7.84666 14.4723ZM5.53668 14.8143L5.5274 14.5144L5.36619 14.5194L5.28144 14.6566L5.53668 14.8143ZM5.53659 14.8144L5.5465 15.1142L5.70729 15.1089L5.79183 14.9721L5.53659 14.8144ZM3.61486 14.6536L3.67615 14.3599L3.4777 14.3185L3.36525 14.4872L3.61486 14.6536ZM3.61485 14.6536L3.54989 14.9465L3.75049 14.991L3.86447 14.82L3.61485 14.6536ZM1.86475 14.0332L1.58933 13.9143L1.47921 14.1693L1.725 14.2987L1.86475 14.0332ZM2.45842 13.0618L2.21425 12.8875L2.21425 12.8875L2.45842 13.0618ZM3.07229 12.042L2.98121 11.7562L2.8476 11.7988L2.79457 11.9286L3.07229 12.042ZM1.08194 12.2712L1.10599 11.9722L1.08203 11.9703L1.05806 11.9722L1.08194 12.2712ZM3.07229 12.042L3.35001 12.1554L3.59415 11.5578L2.97993 11.7566L3.07229 12.042ZM0.897429 13.4321L1.07115 13.1875L1.0495 13.1721L1.02549 13.1608L0.897429 13.4321ZM1.86475 14.0332L1.72991 14.3012L2.01406 14.4441L2.14016 14.1521L1.86475 14.0332ZM2.45842 13.0618L2.21425 12.8875L2.21425 12.8875L2.45842 13.0618ZM11.0264 0.928476L11.0225 0.926598L10.7623 1.46724L10.7662 1.46912L11.0264 0.928476ZM10.6108 1.1068L10.6107 1.1069L11.1819 1.29069L11.1819 1.29059L10.6108 1.1068ZM10.7689 1.47032L10.7728 1.47209L11.0199 0.925296L11.0159 0.923519L10.7689 1.47032ZM10.5871 2.33383L10.5871 2.33348L9.9913 2.40461L9.99134 2.40496L10.5871 2.33383ZM9.25018 3.56233C9.44234 3.10813 9.88093 2.80301 10.3743 2.65708L10.2041 2.08172C9.60319 2.25947 8.98228 2.65564 8.6976 3.32855L9.25018 3.56233ZM9.08412 5.33824C9.01831 4.70395 9.01445 4.08851 9.24766 3.56813L8.70013 3.32275C8.398 3.9969 8.41981 4.74937 8.48733 5.40016L9.08412 5.33824ZM8.18371 6.37091C8.47032 6.38846 8.71965 6.24647 8.87901 6.05487C9.03878 5.86277 9.13181 5.59384 9.08083 5.31521L8.49063 5.4232C8.50539 5.50389 8.47967 5.59669 8.41771 5.6712C8.35534 5.74619 8.27994 5.77568 8.22036 5.77203L8.18371 6.37091ZM5.14973 5.72345C6.1152 6.14196 7.15516 6.36344 8.19973 6.37146L8.20434 5.77148C7.24121 5.76408 6.28078 5.55979 5.38836 5.17294L5.14973 5.72345ZM5.56561 4.42287C5.37633 4.69981 5.17709 4.99091 5.0058 5.30432L5.53229 5.59207C5.68692 5.30916 5.86894 5.04239 6.06097 4.76142L5.56561 4.42287ZM5.56527 4.42337L5.56516 4.42351L6.06141 4.76077L6.06151 4.76062L5.56527 4.42337ZM5.56575 4.42266L5.56565 4.42281L6.06113 4.76118L6.06123 4.76104L5.56575 4.42266ZM5.56473 4.42416L5.56468 4.42423L6.06229 4.75946L6.06234 4.7594L5.56473 4.42416ZM5.56477 4.42409L5.56473 4.42416L6.06234 4.7594L6.06239 4.75933L5.56477 4.42409ZM5.56565 4.42281L5.5656 4.42287L6.06156 4.76055L6.06161 4.76048L5.56565 4.42281ZM5.68197 4.25209C5.64363 4.3087 5.60499 4.36523 5.56595 4.42237L6.06131 4.76092C6.10024 4.70396 6.13958 4.64639 6.17875 4.58856L5.68197 4.25209ZM7.62074 4.52669C7.08197 4.46794 6.54905 4.33654 6.0379 4.14027L5.82282 4.70039C6.38037 4.91449 6.96365 5.0586 7.5557 5.12315L7.62074 4.52669ZM7.98131 2.22218C7.43186 2.98628 7.27973 3.95109 7.28823 4.82783L7.8882 4.82201C7.88027 4.0033 8.02591 3.18788 8.46844 2.57247L7.98131 2.22218ZM10.4802 0.776966C9.55614 0.933472 8.58143 1.3669 7.9793 2.22501L8.47045 2.56965C8.94985 1.88644 9.75265 1.50874 10.5804 1.36854L10.4802 0.776966ZM10.5868 0.778049L10.5804 0.776962L10.4802 1.36855L10.4867 1.36963L10.5868 0.778049ZM10.4977 0.773959L10.4609 0.783592L10.6126 1.36409L10.6495 1.35446L10.4977 0.773959ZM10.8963 0.725037C10.8042 0.725037 10.734 0.727962 10.6682 0.737063C10.6019 0.746234 10.5477 0.76081 10.4973 0.774073L10.6499 1.35434C10.7048 1.33991 10.7251 1.3349 10.7504 1.33141C10.7761 1.32785 10.8147 1.32504 10.8963 1.32504V0.725037ZM13.2597 1.59058C12.6115 0.994265 11.7298 0.697652 10.8866 0.725197L10.9061 1.32488C11.6032 1.30211 12.3289 1.54954 12.8535 2.03216L13.2597 1.59058ZM12.6086 2.92633C12.8181 2.57765 13.0068 2.26786 13.2611 2.03085L12.8521 1.59189C12.5254 1.89626 12.2958 2.282 12.0943 2.61729L12.6086 2.92633ZM10.3922 2.65079C10.9971 2.42958 11.6908 2.53319 12.1388 2.98341L12.5641 2.56022C11.9233 1.91622 10.9714 1.80011 10.1861 2.0873L10.3922 2.65079ZM2.78545 1.77622C2.4246 1.35183 1.72346 1.39802 1.42222 1.87232L1.92869 2.19401C2.01291 2.06141 2.22886 2.04787 2.32836 2.16488L2.78545 1.77622ZM3.7777 2.74409C3.42875 2.44069 3.09756 2.11139 2.77659 1.76625L2.33722 2.17485C2.66844 2.53101 3.01501 2.87604 3.38401 3.19688L3.7777 2.74409ZM3.82917 3.17492C3.844 3.1353 3.85754 3.09444 3.86949 3.05226L3.29222 2.88871C3.28498 2.91425 3.27663 2.9395 3.26724 2.9646L3.82917 3.17492ZM3.29231 2.88844C3.28506 2.91405 3.27669 2.93938 3.26726 2.96454L3.82915 3.17498C3.84402 3.13526 3.85761 3.09429 3.86959 3.05199L3.29231 2.88844ZM6.04033 4.14095C5.22203 3.81824 4.46285 3.33095 3.77618 2.74243L3.38573 3.198C4.11302 3.82134 4.9286 4.34749 5.82021 4.69911L6.04033 4.14095ZM6.06088 4.76112C6.09993 4.70399 6.13938 4.64626 6.17866 4.58827L5.68188 4.2518C5.64343 4.30857 5.60468 4.36527 5.56552 4.42257L6.06088 4.76112ZM5.5322 5.59178C5.68683 5.30886 5.86885 5.04209 6.06088 4.76112L5.56552 4.42257C5.37625 4.69951 5.177 4.99061 5.00571 5.30402L5.5322 5.59178ZM2.78621 4.24431C3.50165 4.84457 4.29387 5.35875 5.15142 5.72392L5.38649 5.17188C4.5926 4.83382 3.85028 4.35387 3.17186 3.78466L2.78621 4.24431ZM3.24464 4.15396L3.24477 4.15372L2.7133 3.87526L2.71317 3.8755L3.24464 4.15396ZM2.62642 4.11721L2.79174 4.24919L3.16607 3.78027L3.00074 3.6483L2.62642 4.11721ZM1.46879 2.97818C1.82584 3.38653 2.21351 3.76148 2.61768 4.10996L3.00948 3.65555C2.62263 3.322 2.2558 2.96673 1.92048 2.58324L1.46879 2.97818ZM1.4339 1.85525C1.19074 2.18539 1.21536 2.65804 1.45925 2.9667L1.93002 2.59471C1.84509 2.48722 1.8423 2.31251 1.91701 2.21108L1.4339 1.85525ZM14.5322 2.13209C14.5856 2.08611 14.6633 2.06985 14.7506 2.09774C14.8396 2.12616 14.911 2.19306 14.9394 2.27618L15.5073 2.08254C15.3247 1.54724 14.6144 1.26925 14.1406 1.67753L14.5322 2.13209ZM13.3775 2.46504C13.7528 2.5063 14.2059 2.44161 14.5427 2.12264L14.1301 1.68698C13.9664 1.84198 13.7161 1.89865 13.443 1.86863L13.3775 2.46504ZM13.036 2.21318C13.0851 2.2659 13.1429 2.32797 13.2061 2.38667L13.6144 1.947C13.5696 1.9054 13.5264 1.85929 13.4747 1.8039L13.036 2.21318ZM12.8624 2.03994C12.9179 2.0871 12.9701 2.14252 13.036 2.21318L13.4747 1.8039C13.4129 1.73762 13.3374 1.65622 13.251 1.5828L12.8624 2.03994ZM12.6087 2.92633C12.8182 2.57765 13.0069 2.26786 13.2612 2.03085L12.8522 1.59189C12.5256 1.89626 12.2959 2.282 12.0944 2.61729L12.6087 2.92633ZM12.7386 2.75382C12.6976 2.7076 12.6155 2.6162 12.5737 2.57021L12.1294 2.97341C12.1698 3.01797 12.2504 3.10767 12.2897 3.152L12.7386 2.75382ZM12.7779 2.80097C12.7668 2.78743 12.7529 2.7705 12.7425 2.75834L12.2858 3.14748C12.2919 3.15459 12.3017 3.16656 12.3143 3.18192L12.7779 2.80097ZM12.8064 2.83541C12.8004 2.8283 12.7905 2.81633 12.7779 2.80097L12.3143 3.18192C12.3255 3.19546 12.3394 3.21239 12.3497 3.22455L12.8064 2.83541ZM13.0149 3.01744C12.9723 3.00865 12.9211 2.96913 12.8058 2.8347L12.3503 3.22525C12.4416 3.33165 12.6187 3.54839 12.8938 3.60509L13.0149 3.01744ZM14.8502 2.62829C14.3754 3.0659 13.6683 3.18258 13.028 3.02045L12.8808 3.60209C13.6709 3.80217 14.6007 3.67417 15.2568 3.06947L14.8502 2.62829ZM14.9345 2.26058C14.978 2.41505 14.9325 2.5581 14.8595 2.62006L15.2475 3.0777C15.5471 2.82367 15.6003 2.41185 15.5121 2.09814L14.9345 2.26058ZM1.7753 4.73347C1.87886 4.69419 2.05336 4.76026 2.11154 4.92859L2.67862 4.73259C2.53037 4.30365 2.03807 3.99211 1.56253 4.17246L1.7753 4.73347ZM1.57789 5.11646C1.52675 4.95909 1.63322 4.77664 1.7546 4.74047L1.58323 4.16546C1.11635 4.3046 0.859295 4.84659 1.00727 5.3019L1.57789 5.11646ZM2.35609 6.2488C2.00849 5.95192 1.73683 5.55294 1.57451 5.10664L1.01065 5.31172C1.2064 5.84994 1.53577 6.33723 1.96641 6.70504L2.35609 6.2488ZM2.49792 6.35543C2.44723 6.31617 2.39211 6.27343 2.33641 6.23337L1.98608 6.72047C2.0316 6.75321 2.07818 6.78925 2.1305 6.82978L2.49792 6.35543ZM2.48063 6.34299L2.48062 6.34299L2.1478 6.84222L2.14781 6.84222L2.48063 6.34299ZM2.48723 6.34752L2.48722 6.34752L2.14121 6.8377L2.14122 6.8377L2.48723 6.34752ZM3.0604 6.63669C2.90278 6.65096 2.75352 6.55341 2.49793 6.35544L2.13052 6.82979C2.33893 6.99122 2.68014 7.27357 3.11451 7.23424L3.0604 6.63669ZM3.2698 6.21604C3.2986 6.30474 3.28622 6.41087 3.23681 6.49883C3.18789 6.58595 3.11854 6.62987 3.05298 6.63745L3.12193 7.23348C3.41443 7.19964 3.63601 7.01332 3.75995 6.79265C3.88341 6.57283 3.92584 6.29363 3.84046 6.03073L3.2698 6.21604ZM3.11326 6.04999C3.17585 6.07942 3.23725 6.14252 3.27908 6.24083L3.83118 6.00593C3.74513 5.80368 3.5928 5.61246 3.36857 5.50702L3.11326 6.04999ZM2.11753 4.94445C2.31028 5.41434 2.66048 5.80764 3.09913 6.04289L3.3827 5.51413C3.07052 5.3467 2.8142 5.06182 2.67264 4.71673L2.11753 4.94445ZM14.7232 5.5774C14.632 5.10901 14.2284 4.88231 13.8616 4.87971C13.492 4.87709 13.0861 5.10208 13.0016 5.58067L13.5925 5.68499C13.6158 5.55282 13.7172 5.4787 13.8574 5.4797C14.0002 5.48071 14.1086 5.56036 14.1343 5.69213L14.7232 5.5774ZM7.92372 14.7622C11.775 13.7389 14.709 9.80512 14.7288 5.63618L14.1288 5.63334C14.1102 9.54867 11.3427 13.2329 7.76964 14.1824L7.92372 14.7622ZM8.07499 13.5193C7.90104 13.7607 7.70145 14.0352 7.56905 14.3586L8.12431 14.586C8.22537 14.3392 8.38103 14.1209 8.56172 13.8702L8.07499 13.5193ZM8.54515 12.7131C8.45056 12.9946 8.27932 13.2359 8.07499 13.5193L8.56172 13.8702C8.75757 13.5985 8.98572 13.2857 9.1139 12.9042L8.54515 12.7131ZM12.219 8.88089C11.4385 10.4552 10.2095 11.7913 8.6965 12.5397L8.96254 13.0775C10.6119 12.2617 11.9276 10.8194 12.7566 9.1474L12.219 8.88089ZM12.9976 5.61455C12.9279 6.75586 12.7068 7.88403 12.2183 8.88228L12.7572 9.14601C13.2917 8.05377 13.5238 6.84106 13.5965 5.65111L12.9976 5.61455ZM2.38772 7.94392C2.41198 7.85478 2.48789 7.78831 2.59285 7.76894C2.69857 7.74943 2.78871 7.78555 2.83766 7.85426L3.32634 7.50613C3.11862 7.21455 2.77626 7.12496 2.48396 7.1789C2.19089 7.23298 1.90326 7.43913 1.80877 7.78639L2.38772 7.94392ZM2.61001 8.5577C2.5138 8.42356 2.43932 8.3172 2.39607 8.21163C2.35715 8.11663 2.35254 8.04327 2.37999 7.96821L1.8165 7.7621C1.72436 8.01401 1.76183 8.2462 1.84085 8.43908C1.91553 8.62138 2.03483 8.78523 2.12244 8.90738L2.61001 8.5577ZM2.7213 8.71716C2.68522 8.6625 2.6459 8.60775 2.61001 8.5577L2.12244 8.90738C2.15973 8.95938 2.19202 9.00448 2.22055 9.04769L2.7213 8.71716ZM3.82559 9.56094C3.3961 9.42355 3.01931 9.10106 2.70822 8.69888L2.23363 9.06598C2.58569 9.52113 3.05472 9.9443 3.64278 10.1324L3.82559 9.56094ZM4.25377 9.19824C4.28926 9.31465 4.24868 9.43718 4.15512 9.52205C4.06127 9.60718 3.95393 9.6215 3.86924 9.5788L3.59913 10.1146C3.95014 10.2915 4.32052 10.1821 4.55824 9.96645C4.79625 9.75055 4.9411 9.39529 4.82769 9.02328L4.25377 9.19824ZM3.93967 8.95142C4.05171 8.99852 4.11942 9.02877 4.17058 9.06744C4.21022 9.09741 4.23556 9.12943 4.25045 9.18652L4.83101 9.03501C4.72095 8.61329 4.36432 8.47908 4.17222 8.39831L3.93967 8.95142ZM3.49227 8.68896C3.63825 8.82837 3.82154 8.90175 3.93967 8.95142L4.17222 8.39831C4.03399 8.34019 3.9589 8.30493 3.90667 8.25506L3.49227 8.68896ZM2.92577 7.98944C3.07282 8.21657 3.25061 8.4959 3.51141 8.70574L3.88754 8.23828C3.71463 8.09915 3.58621 7.90552 3.42943 7.66336L2.92577 7.98944ZM2.83243 7.84667C2.86329 7.89294 2.89385 7.94014 2.92577 7.98944L3.42943 7.66336C3.39789 7.61465 3.3651 7.56399 3.33157 7.51372L2.83243 7.84667ZM6.27814 11.3637C6.15014 10.7836 5.45793 10.4675 4.95086 10.806L5.28402 11.305C5.41451 11.2179 5.6485 11.2948 5.69223 11.493L6.27814 11.3637ZM5.96569 12.2819C6.25167 12.0577 6.33758 11.6804 6.28006 11.3731L5.69031 11.4836C5.71683 11.6252 5.66573 11.7547 5.59546 11.8098L5.96569 12.2819ZM3.23769 13.5923C4.17957 13.2776 5.10195 12.8604 5.94732 12.2953L5.61384 11.7965C4.82236 12.3256 3.95078 12.7214 3.04755 13.0232L3.23769 13.5923ZM3.44587 13.0712C3.36903 13.0525 3.28873 13.0329 3.20766 13.0149L3.07759 13.6006C3.15166 13.6171 3.226 13.6352 3.30385 13.6542L3.44587 13.0712ZM3.44367 13.0707L3.44357 13.0707L3.30615 13.6547L3.30625 13.6547L3.44367 13.0707ZM3.44377 13.0707L3.44367 13.0707L3.30625 13.6547L3.30635 13.6548L3.44377 13.0707ZM3.44387 13.0707L3.44377 13.0707L3.30635 13.6548L3.30644 13.6548L3.44387 13.0707ZM3.82148 13.1553C3.69968 13.133 3.57779 13.1033 3.44616 13.0713L3.30415 13.6542C3.43295 13.6856 3.57165 13.7195 3.71332 13.7454L3.82148 13.1553ZM4.51378 13.2694C4.28203 13.2393 4.05381 13.2029 3.82769 13.1565L3.7071 13.7442C3.95038 13.7942 4.1934 13.8329 4.43653 13.8644L4.51378 13.2694ZM4.59262 13.843C4.59621 13.8414 4.59907 13.8401 4.60079 13.8393C4.60167 13.8389 4.60237 13.8386 4.6028 13.8384C4.60302 13.8383 4.6032 13.8382 4.6033 13.8382C4.60336 13.8381 4.6034 13.8381 4.60343 13.8381C4.60344 13.8381 4.60345 13.8381 4.60346 13.8381C4.60346 13.8381 4.60347 13.8381 4.60347 13.8381C4.60347 13.8381 4.60347 13.8381 4.60347 13.8381C4.60347 13.8381 4.60347 13.8381 4.60347 13.8381C4.60347 13.8381 4.60347 13.8381 4.60347 13.8381C4.6037 13.838 4.60237 13.8386 4.6008 13.8393C4.5991 13.8401 4.59624 13.8414 4.59265 13.843L4.35772 13.2909C4.35413 13.2924 4.35127 13.2937 4.34955 13.2945C4.34868 13.2949 4.34797 13.2952 4.34754 13.2954C4.34732 13.2955 4.34715 13.2956 4.34704 13.2957C4.34698 13.2957 4.34694 13.2957 4.34691 13.2957C4.3469 13.2957 4.34689 13.2957 4.34688 13.2957C4.34688 13.2957 4.34687 13.2957 4.34687 13.2957C4.34687 13.2957 4.34687 13.2957 4.34687 13.2957C4.34687 13.2957 4.34687 13.2957 4.34687 13.2957C4.34687 13.2957 4.34687 13.2957 4.34687 13.2957C4.34664 13.2958 4.34798 13.2952 4.34954 13.2945C4.35124 13.2937 4.35411 13.2924 4.35769 13.2909L4.59262 13.843ZM4.44622 13.8655C5.10597 13.9295 5.77017 13.9133 6.4244 13.8329L6.35123 13.2374C5.73586 13.313 5.11584 13.3276 4.50415 13.2683L4.44622 13.8655ZM6.14686 13.3564L6.14675 13.3566L6.62888 13.7137L6.629 13.7136L6.14686 13.3564ZM8.69699 12.5394C7.9588 12.9029 7.16218 13.1278 6.3478 13.2377L6.42806 13.8323C7.29803 13.7149 8.15836 13.4734 8.96202 13.0777L8.69699 12.5394ZM8.56171 13.8701C8.75755 13.5984 8.98571 13.2856 9.11388 12.9041L8.54513 12.713C8.45055 12.9945 8.27931 13.2358 8.07497 13.5193L8.56171 13.8701ZM8.12429 14.5859C8.22535 14.3391 8.38101 14.1208 8.56171 13.8701L8.07497 13.5193C7.90102 13.7606 7.70144 14.0352 7.56903 14.3586L8.12429 14.5859ZM5.54596 15.1141C6.34291 15.0895 7.14895 14.9877 7.93048 14.7603L7.76284 14.1842C7.04091 14.3943 6.28688 14.4909 5.5274 14.5144L5.54596 15.1141ZM5.28144 14.6566L5.28135 14.6568L5.79183 14.9721L5.79192 14.9719L5.28144 14.6566ZM5.52668 14.5146C4.90576 14.5351 4.2831 14.4866 3.67615 14.3599L3.55358 14.9473C4.21073 15.0844 4.88139 15.1362 5.5465 15.1142L5.52668 14.5146ZM3.86447 14.82C3.86698 14.8163 3.86887 14.8132 3.86978 14.8118C3.87029 14.8109 3.87069 14.8103 3.87093 14.8099C3.87105 14.8097 3.87114 14.8095 3.8712 14.8094C3.87123 14.8094 3.87126 14.8094 3.87127 14.8093C3.87128 14.8093 3.87128 14.8093 3.87129 14.8093C3.87129 14.8093 3.87129 14.8093 3.87129 14.8093C3.87129 14.8093 3.87129 14.8093 3.87129 14.8093C3.87129 14.8093 3.87129 14.8093 3.87129 14.8093C3.87129 14.8093 3.87129 14.8093 3.87129 14.8093C3.87144 14.8091 3.87068 14.8103 3.86979 14.8117C3.86888 14.8132 3.86698 14.8162 3.86448 14.82L3.36525 14.4872C3.36274 14.4909 3.36084 14.494 3.35993 14.4954C3.35942 14.4963 3.35902 14.4969 3.35879 14.4973C3.35867 14.4975 3.35857 14.4977 3.35851 14.4978C3.35848 14.4978 3.35846 14.4978 3.35844 14.4979C3.35844 14.4979 3.35843 14.4979 3.35843 14.4979C3.35843 14.4979 3.35842 14.4979 3.35842 14.4979C3.35842 14.4979 3.35842 14.4979 3.35842 14.4979C3.35842 14.4979 3.35842 14.4979 3.35842 14.4979C3.35842 14.4979 3.35842 14.4979 3.35842 14.4979C3.35828 14.4981 3.35904 14.4969 3.35993 14.4955C3.36084 14.494 3.36273 14.491 3.36524 14.4872L3.86447 14.82ZM1.725 14.2987C2.30671 14.6049 2.92694 14.8083 3.54989 14.9465L3.67982 14.3607C3.09523 14.2311 2.52802 14.0433 2.00449 13.7677L1.725 14.2987ZM2.21425 12.8875C1.99678 13.1922 1.75675 13.5265 1.58933 13.9143L2.14016 14.1521C2.2781 13.8327 2.47914 13.5492 2.70259 13.2361L2.21425 12.8875ZM2.79457 11.9286C2.65724 12.2647 2.44812 12.5599 2.21425 12.8875L2.70259 13.2361C2.92996 12.9176 3.18192 12.5669 3.35001 12.1555L2.79457 11.9286ZM4.95772 10.8016C4.32636 11.1987 3.66932 11.5369 2.98121 11.7562L3.16336 12.3279C3.91481 12.0884 4.61876 11.7236 5.27716 11.3095L4.95772 10.8016ZM1.05789 12.5703C1.76655 12.6273 2.48301 12.548 3.16465 12.3274L2.97993 11.7566C2.37546 11.9522 1.73825 12.0231 1.10599 11.9722L1.05789 12.5703ZM1.02549 13.1608C0.929561 13.1155 0.862688 12.9926 0.888768 12.8252C0.914767 12.6584 1.0106 12.5779 1.10581 12.5703L1.05806 11.9722C0.597921 12.0089 0.349395 12.3898 0.295926 12.7328C0.24254 13.0753 0.36109 13.5107 0.769371 13.7034L1.02549 13.1608ZM1.99958 13.7652C1.68074 13.6048 1.37723 13.4049 1.07115 13.1875L0.72371 13.6767C1.03876 13.9004 1.37098 14.1206 1.72991 14.3012L1.99958 13.7652ZM2.21425 12.8875C1.99678 13.1922 1.75675 13.5265 1.58933 13.9142L2.14016 14.1521C2.2781 13.8327 2.47914 13.5491 2.70259 13.2361L2.21425 12.8875ZM2.79457 11.9285C2.65724 12.2647 2.44812 12.5599 2.21425 12.8875L2.70259 13.2361C2.92996 12.9176 3.18192 12.5669 3.35001 12.1554L2.79457 11.9285Z" fill="url(#paint1_linear_670_269)"/>
<defs>
<linearGradient id="paint0_linear_670_269" x1="7.91725" y1="14.8192" x2="7.91725" y2="1.02347" gradientUnits="userSpaceOnUse">
<stop stop-color="#5570FF"/>
<stop offset="1" stop-color="#4DD3FF"/>
</linearGradient>
<linearGradient id="paint1_linear_670_269" x1="7.91725" y1="14.8192" x2="7.91725" y2="1.02347" gradientUnits="userSpaceOnUse">
<stop stop-color="#5570FF"/>
<stop offset="1" stop-color="#4DD3FF"/>
</linearGradient>
</defs>
</svg>
