<svg width="16" height="16" viewBox="0 0 16 16" fill="none" xmlns="http://www.w3.org/2000/svg">
<path fill-rule="evenodd" clip-rule="evenodd" d="M2.5001 3.48926C1.45076 3.48926 0.600098 4.33992 0.600098 5.38926V12.5004C0.600098 14.102 1.89847 15.4004 3.5001 15.4004H10.1668C10.1734 15.4004 10.1801 15.4003 10.1867 15.4002H12.5003C14.1019 15.4002 15.4003 14.1018 15.4003 12.5002V8.27793C15.4003 7.22859 14.5496 6.37793 13.5003 6.37793H11.2668C11.1563 6.37793 11.0668 6.28839 11.0668 6.17793V5.38926C11.0668 4.33992 10.2161 3.48926 9.16676 3.48926H2.5001ZM9.06676 6.37793C9.17722 6.37793 9.26676 6.28839 9.26676 6.17793V5.38926C9.26676 5.33403 9.22199 5.28926 9.16676 5.28926H2.5001C2.44487 5.28926 2.4001 5.33403 2.4001 5.38926V12.5004C2.4001 13.1079 2.89258 13.6004 3.5001 13.6004H4.85132C4.99358 13.6004 5.09094 13.4556 5.05083 13.3191C4.97453 13.0594 4.93359 12.7845 4.93359 12.5002V8.27793C4.93359 7.22859 5.78425 6.37793 6.83359 6.37793H9.06676ZM6.73359 8.27793C6.73359 8.2227 6.77836 8.17793 6.83359 8.17793H13.5003C13.5555 8.17793 13.6003 8.2227 13.6003 8.27793V12.5002C13.6003 13.1077 13.1078 13.6002 12.5003 13.6002H7.83359C7.22608 13.6002 6.73359 13.1077 6.73359 12.5002V8.27793Z" fill="url(#paint0_linear_505_328)"/>
<path d="M3.6665 4.38889V3.66667C3.6665 2.47005 4.63655 1.5 5.83317 1.5C7.02979 1.5 7.99984 2.47005 7.99984 3.66667V4.38889" stroke="url(#paint1_linear_505_328)" stroke-width="1.8" stroke-linecap="round" stroke-linejoin="round"/>
<path d="M8.72168 9.44434L8.72168 10.1666C8.72168 10.9643 9.36838 11.611 10.1661 11.611C10.9639 11.611 11.6106 10.9643 11.6106 10.1666V9.44434" stroke="url(#paint2_linear_505_328)" stroke-width="1.5" stroke-linecap="round" stroke-linejoin="round"/>
<defs>
<linearGradient id="paint0_linear_505_328" x1="3.28263" y1="13.9942" x2="14.0884" y2="2.27918" gradientUnits="userSpaceOnUse">
<stop stop-color="#FE0844"/>
<stop offset="1" stop-color="#FEB302"/>
</linearGradient>
<linearGradient id="paint1_linear_505_328" x1="4.45192" y1="4.04784" x2="6.98886" y2="0.727544" gradientUnits="userSpaceOnUse">
<stop stop-color="#FE0844"/>
<stop offset="1" stop-color="#FEB302"/>
</linearGradient>
<linearGradient id="paint2_linear_505_328" x1="9.24529" y1="11.3552" x2="11.1949" y2="9.08707" gradientUnits="userSpaceOnUse">
<stop stop-color="#FE0844"/>
<stop offset="1" stop-color="#FEB302"/>
</linearGradient>
</defs>
</svg>
