<svg width="64" height="64" viewBox="0 0 64 64" fill="none" xmlns="http://www.w3.org/2000/svg">
<path d="M33.1854 56.0956C26.9124 55.2781 20.9113 52.8911 17.3007 49.7775C16.4918 49.0799 15.044 47.5963 14.5605 46.9757C14.4257 46.8027 14.5226 46.7155 14.7331 46.7771C15.3812 46.9666 16.4063 47.354 17.4104 47.381C18.4757 47.4098 19.2544 46.84 19.8258 46.0333C19.9615 45.8417 20.0228 45.6091 20.0228 45.3743V35.6442C20.0228 24.5177 20.0714 25.2481 19.2846 24.5612C18.329 23.7267 16.4523 23.9867 14.5487 25.2617C11.6451 27.2065 7.37278 30.9113 4.9157 35.395C4.47936 36.1912 4.08543 36.8774 4.0403 36.9198C3.99516 36.9621 3.98663 36.0974 4.02138 34.9982C5.34202 23.7568 16.8707 13.7378 25.9506 9.6003C27.099 9.10903 31.1975 7.896 31.4427 7.896C31.4821 7.896 29.7662 8.89762 29.3645 9.19106C26.9566 10.9498 26.1239 11.4966 25.7743 13.6385C25.5158 15.2232 25.8743 16.2019 26.5724 16.9842C26.9016 17.353 27.0416 17.4441 27.4434 17.4938C27.528 17.5043 27.6136 17.503 27.6984 17.4947C27.8571 17.4793 28.0105 17.4665 28.1618 17.4551C28.9086 17.3992 29.55 18.0007 29.55 18.7498V43.8551C29.55 45.7477 31.4427 45.7477 33.3202 45.8671C35.0306 45.76 36.7289 44.9047 38.4237 43.8458C38.7914 43.6162 39.0101 43.2105 39.0102 42.7771L39.013 31.9369L39.016 21.6637C39.016 21.4559 38.9654 21.2511 38.8687 21.0672L38.2456 19.8836C38.0554 19.5586 37.8013 19.2978 37.5094 19.0775C36.5418 18.3481 36.7352 17.4814 37.9355 17.6467C38.7529 17.7592 39.5464 17.9061 40.2222 18.0905C40.6518 18.2077 41.1189 18.1382 41.4643 17.8569C45.3105 14.7253 48.968 10.9202 53.1207 8.93819C54.1524 8.44576 54.9904 9.55807 54.3676 10.5167C52.5253 13.3519 50.6503 16.1136 48.7042 18.9229C48.5557 19.1373 48.4761 19.3918 48.4761 19.6525V41.6877C48.4761 41.9874 48.5912 42.2753 48.8628 42.402C49.3523 42.6305 50.1491 42.8481 50.6597 42.9197C50.7574 42.9334 50.8575 42.93 50.9548 42.9151C54.8541 42.3186 56.923 40.2668 59.4142 38.0211C59.9121 37.5722 60.1553 37.726 59.8932 38.3431C59.307 39.7236 58.2294 42.0209 57.5424 43.0508C54.4771 47.6452 49.5914 51.3245 45.5111 53.919C44.7459 54.4055 44.7373 54.4078 44.471 54.1986C42.8495 52.9338 41.7659 52.0937 39.8347 50.9539C39.3497 50.6676 38.7319 50.744 38.3352 51.1438C36.7141 52.7772 35.8057 54.0329 34.0052 55.8206C33.7899 56.0344 33.4863 56.1349 33.1854 56.0956Z" fill="url(#paint0_linear_1005_326)"/>
<defs>
<linearGradient id="paint0_linear_1005_326" x1="32.1535" y1="56.1577" x2="32.1535" y2="7.896" gradientUnits="userSpaceOnUse">
<stop stop-color="#FD5900"/>
<stop offset="1" stop-color="#FFDE00"/>
</linearGradient>
</defs>
</svg>
