<svg width="16" height="16" viewBox="0 0 16 16" fill="none" xmlns="http://www.w3.org/2000/svg">
<path fill-rule="evenodd" clip-rule="evenodd" d="M6.11566 1.24576C6.71023 1.09022 7.35066 0.994681 8.02234 1.00023H8.02569C9.40437 1.005 10.8593 1.37778 12.0863 2.29374C12.2046 2.38226 12.3141 2.48217 12.4131 2.59171C12.6625 2.86709 12.8075 3.21523 12.9312 3.56826C13.2719 3.72626 13.6165 3.8928 13.8442 4.19551L13.8454 4.19663L15.5641 6.49123C16.4807 7.71766 15.8691 9.41811 14.4999 9.93871C13.8429 12.0617 12.2159 13.8667 9.88429 14.4676C9.86986 14.4715 9.85531 14.4749 9.84063 14.4777C9.73057 14.497 9.6228 14.52 9.51057 14.5439C9.13606 14.6238 8.71189 14.7143 7.98654 14.7143C7.98503 14.7143 7.98351 14.7143 7.982 14.7143C7.98014 14.7143 7.97831 14.7143 7.97649 14.7143C7.90706 14.713 7.95703 14.7131 7.97311 14.7131C6.5932 14.7081 5.13906 14.3333 3.91357 13.4185C3.79529 13.33 3.68586 13.2301 3.58683 13.1205C3.33789 12.8457 3.19263 12.4978 3.06877 12.1451C2.72803 11.9871 2.38346 11.8205 2.15571 11.5179L2.1546 11.5167L0.435886 9.22214C-0.480706 7.99583 0.13096 6.29537 1.50001 5.77469C2.15703 3.65174 3.784 1.84669 6.11566 1.24576ZM10.9632 3.78066C10.0824 3.12194 9.08706 2.85966 8.01269 2.85711C7.52509 2.85243 7.04566 2.92203 6.58629 3.04283C4.529 3.57323 3.1606 5.41634 3.01283 7.42074H1.43039L4.00006 10.8587L6.56974 7.42074H5.01291C5.056 6.80283 5.21397 6.26689 5.59314 5.85857L5.59669 5.85474L5.60011 5.85086C6.47169 4.86526 8.20551 4.45954 9.44834 5.1372C9.86197 5.58043 10.4682 5.51963 10.8381 5.27774C11.0381 5.14703 11.2187 4.93671 11.2754 4.66071C11.3355 4.36783 11.2409 4.07589 11.0245 3.83643L10.9965 3.80557L10.9632 3.78066ZM14.5697 8.28569L12.0001 4.84774L9.4304 8.28569H10.9872C10.9441 8.9036 10.7862 9.43954 10.407 9.84786L10.402 9.85329L10.3971 9.85889C9.4584 10.9426 7.80297 11.2564 6.55203 10.5695C6.1386 10.1262 5.53246 10.1863 5.16226 10.4279C4.96223 10.5585 4.78154 10.7687 4.72477 11.0447C4.66454 11.3376 4.75929 11.6295 4.97569 11.8689L5.0036 11.8997L5.03691 11.9247C5.91794 12.5835 6.91374 12.847 7.98911 12.8493L8.16717 12.8497L8.17029 12.8466C8.59457 12.835 9.0112 12.7695 9.41383 12.6636C11.4711 12.1332 12.8395 10.2901 12.9873 8.28569H14.5697Z" fill="url(#paint0_linear_656_89)"/>
<defs>
<linearGradient id="paint0_linear_656_89" x1="8" y1="14.7143" x2="8" y2="1" gradientUnits="userSpaceOnUse">
<stop stop-color="#00B59C"/>
<stop offset="1" stop-color="#9CFFAC"/>
</linearGradient>
</defs>
</svg>
