<svg width="16" height="16" viewBox="0 0 16 16" fill="none" xmlns="http://www.w3.org/2000/svg">
<path fill-rule="evenodd" clip-rule="evenodd" d="M6.73483 0.433106L6.77311 0.433106H9.22644L9.26472 0.433106C10.1843 0.433096 10.9291 0.433089 11.5328 0.482417C12.1555 0.533287 12.7069 0.641069 13.2186 0.901778C14.0277 1.31403 14.6855 1.97185 15.0978 2.78095C15.3585 3.29262 15.4663 3.84409 15.5171 4.4667C15.5665 5.07046 15.5664 5.81523 15.5664 6.73482V6.77311V9.22644V9.26473C15.5664 10.1843 15.5665 10.9291 15.5171 11.5328C15.4663 12.1555 15.3585 12.7069 15.0978 13.2186C14.6855 14.0277 14.0277 14.6855 13.2186 15.0978C12.7069 15.3585 12.1555 15.4663 11.5328 15.5171C10.9291 15.5665 10.1843 15.5664 9.26472 15.5664H9.22644H6.7731H6.73482C5.81522 15.5664 5.07045 15.5665 4.4667 15.5171C3.84409 15.4663 3.29262 15.3585 2.78095 15.0978C1.97185 14.6855 1.31403 14.0277 0.901778 13.2186C0.641068 12.7069 0.533287 12.1555 0.482417 11.5328C0.433089 10.9291 0.433096 10.1843 0.433106 9.26472L0.433106 9.22644V6.7731L0.433106 6.73482C0.433096 5.81522 0.433089 5.07045 0.482417 4.4667C0.533287 3.84409 0.641069 3.29262 0.901778 2.78095C1.31403 1.97185 1.97185 1.31403 2.78095 0.901778C3.29262 0.641068 3.84409 0.533287 4.4667 0.482417C5.07046 0.433089 5.81523 0.433096 6.73483 0.433106ZM4.61328 2.27644C4.10198 2.31821 3.81376 2.39572 3.59813 2.50559C3.12772 2.74527 2.74527 3.12772 2.50559 3.59813C2.39572 3.81376 2.31821 4.10198 2.27644 4.61328C2.23381 5.13509 2.23311 5.80616 2.23311 6.7731V9.22644C2.23311 10.1934 2.23381 10.8645 2.27644 11.3863C2.31821 11.8976 2.39572 12.1858 2.50559 12.4014C2.74527 12.8718 3.12772 13.2543 3.59813 13.494C3.81376 13.6038 4.10198 13.6813 4.61328 13.7231C5.13509 13.7657 5.80616 13.7664 6.7731 13.7664H9.22644C10.1934 13.7664 10.8645 13.7657 11.3863 13.7231C11.8976 13.6813 12.1858 13.6038 12.4014 13.494C12.8718 13.2543 13.2543 12.8718 13.494 12.4014C13.6038 12.1858 13.6813 11.8976 13.7231 11.3863C13.7657 10.8645 13.7664 10.1934 13.7664 9.22644V6.77311C13.7664 5.80617 13.7657 5.13509 13.7231 4.61328C13.6813 4.10198 13.6038 3.81376 13.494 3.59813C13.2543 3.12772 12.8718 2.74527 12.4014 2.50559C12.1858 2.39572 11.8976 2.31821 11.3863 2.27644C10.8645 2.23381 10.1934 2.23311 9.22644 2.23311H6.77311C5.80617 2.23311 5.13509 2.23381 4.61328 2.27644Z" fill="url(#paint0_linear_506_359)"/>
<path fill-rule="evenodd" clip-rule="evenodd" d="M8.99318 4.10349L8.25237 3.36268C8.14819 3.25864 8.00698 3.2002 7.85974 3.2002C7.71251 3.2002 7.57129 3.25864 7.46711 3.36268L6.72631 4.10349C6.63745 4.19264 6.58149 4.30931 6.5676 4.43441C6.55371 4.5595 6.5827 4.68561 6.64984 4.79208C6.71697 4.89855 6.81827 4.97906 6.93713 5.02045C7.056 5.06183 7.1854 5.06163 7.30414 5.01987V8.74984C7.25079 8.72749 7.1964 8.70772 7.14116 8.69057L6.10181 8.36462C5.91361 8.30578 5.7491 8.1884 5.63224 8.02957C5.51539 7.87074 5.45228 7.67876 5.45212 7.48157V7.14969C5.71806 7.02354 5.93316 6.81065 6.06204 6.54602C6.19093 6.28139 6.22592 5.98077 6.16127 5.69362C6.09661 5.40646 5.93616 5.14985 5.7063 4.96599C5.47644 4.78213 5.19086 4.68196 4.89651 4.68196C4.60217 4.68196 4.31658 4.78213 4.08672 4.96599C3.85686 5.14985 3.69641 5.40646 3.63176 5.69362C3.56711 5.98077 3.6021 6.28139 3.73098 6.54602C3.85986 6.81065 4.07496 7.02354 4.34091 7.14969V7.48157C4.34105 7.91564 4.47983 8.33831 4.73701 8.68798C4.9942 9.03764 5.35635 9.29602 5.77067 9.42545L6.81002 9.75067C6.95325 9.79536 7.07844 9.88467 7.16733 10.0055C7.25623 10.1264 7.30416 10.2725 7.30414 10.4226V10.7322C7.04286 10.856 6.83046 11.0636 6.70072 11.322C6.57097 11.5804 6.53133 11.8747 6.58808 12.1582C6.64483 12.4417 6.79472 12.6981 7.01392 12.8867C7.23313 13.0752 7.50907 13.185 7.79787 13.1987C8.08667 13.2124 8.37176 13.1292 8.60782 12.9622C8.84388 12.7953 9.01736 12.5542 9.10069 12.2774C9.18401 12.0005 9.17239 11.7038 9.06767 11.4343C8.96296 11.1648 8.77116 10.938 8.52277 10.79C8.61188 10.6475 8.74905 10.5416 8.90947 10.4915L9.94882 10.1663C10.3631 10.0368 10.7253 9.77845 10.9825 9.42878C11.2397 9.07912 11.3784 8.65645 11.3786 8.22238V7.98384C11.5267 7.95495 11.6993 7.89272 11.8483 7.74382C12.0231 7.56899 12.0786 7.36156 12.1009 7.19933C12.1194 7.06005 12.1194 6.8956 12.1194 6.74447V6.69261C12.1194 6.54075 12.1194 6.37703 12.1009 6.23776C12.0786 6.07552 12.0231 5.86735 11.8483 5.69326C11.7002 5.55042 11.5084 5.46145 11.3038 5.44065C11.1645 5.42213 11 5.42213 10.8489 5.42213H10.797C10.6452 5.42213 10.4815 5.42213 10.3422 5.44065C10.18 5.46287 9.97179 5.51843 9.7977 5.69326C9.65485 5.84132 9.56588 6.03308 9.54508 6.23776C9.52925 6.38908 9.52307 6.54125 9.52656 6.69335V6.74373C9.52656 6.89634 9.52656 7.06005 9.54508 7.19933C9.5673 7.36156 9.62286 7.56973 9.7977 7.74382C9.94586 7.89198 10.1192 7.95495 10.2674 7.98384V8.22238C10.2674 8.41969 10.2043 8.61184 10.0875 8.77082C9.97059 8.9298 9.806 9.04729 9.61768 9.10617L8.57759 9.43064C8.52268 9.44807 8.46856 9.46784 8.41535 9.4899V5.02061C8.53409 5.06237 8.66348 5.06257 8.78235 5.02119C8.90122 4.9798 9.00252 4.89929 9.06965 4.79282C9.13678 4.68635 9.16578 4.56024 9.15189 4.43515C9.13799 4.31005 9.08204 4.19338 8.99318 4.10423" fill="url(#paint1_linear_506_359)"/>
<path d="M8.99318 4.10349L8.25237 3.36268C8.14819 3.25864 8.00698 3.2002 7.85974 3.2002C7.71251 3.2002 7.57129 3.25864 7.46711 3.36268L6.72631 4.10349C6.63745 4.19264 6.58149 4.30931 6.5676 4.43441C6.55371 4.5595 6.5827 4.68561 6.64984 4.79208C6.71697 4.89855 6.81827 4.97906 6.93713 5.02045C7.056 5.06183 7.1854 5.06163 7.30414 5.01987V8.74984C7.25079 8.72749 7.1964 8.70772 7.14116 8.69057L6.10181 8.36462C5.91361 8.30578 5.7491 8.1884 5.63224 8.02957C5.51539 7.87074 5.45228 7.67876 5.45212 7.48157V7.14969C5.71806 7.02354 5.93316 6.81065 6.06204 6.54602C6.19093 6.28139 6.22592 5.98077 6.16127 5.69362C6.09661 5.40646 5.93616 5.14985 5.7063 4.96599C5.47644 4.78213 5.19086 4.68196 4.89651 4.68196C4.60217 4.68196 4.31658 4.78213 4.08672 4.96599C3.85686 5.14985 3.69641 5.40646 3.63176 5.69362C3.56711 5.98077 3.6021 6.28139 3.73098 6.54602C3.85986 6.81065 4.07496 7.02354 4.34091 7.14969V7.48157C4.34105 7.91564 4.47983 8.33831 4.73701 8.68798C4.9942 9.03764 5.35635 9.29602 5.77067 9.42545L6.81002 9.75067C6.95325 9.79536 7.07844 9.88467 7.16733 10.0055C7.25623 10.1264 7.30416 10.2725 7.30414 10.4226V10.7322C7.04286 10.856 6.83046 11.0636 6.70072 11.322C6.57097 11.5804 6.53133 11.8747 6.58808 12.1582C6.64483 12.4417 6.79472 12.6981 7.01392 12.8867C7.23313 13.0752 7.50907 13.185 7.79787 13.1987C8.08667 13.2124 8.37176 13.1292 8.60782 12.9622C8.84388 12.7953 9.01736 12.5542 9.10069 12.2774C9.18401 12.0005 9.17239 11.7038 9.06767 11.4343C8.96296 11.1648 8.77116 10.938 8.52277 10.79C8.61188 10.6475 8.74905 10.5416 8.90947 10.4915L9.94882 10.1663C10.3631 10.0368 10.7253 9.77845 10.9825 9.42878C11.2397 9.07912 11.3784 8.65645 11.3786 8.22238V7.98384C11.5267 7.95495 11.6993 7.89272 11.8483 7.74382C12.0231 7.56899 12.0786 7.36156 12.1009 7.19933C12.1194 7.06005 12.1194 6.8956 12.1194 6.74447V6.69261C12.1194 6.54075 12.1194 6.37703 12.1009 6.23776C12.0786 6.07552 12.0231 5.86735 11.8483 5.69326C11.7002 5.55042 11.5084 5.46145 11.3038 5.44065C11.1645 5.42213 11 5.42213 10.8489 5.42213H10.797C10.6452 5.42213 10.4815 5.42213 10.3422 5.44065C10.18 5.46287 9.97179 5.51843 9.7977 5.69326C9.65485 5.84132 9.56588 6.03308 9.54508 6.23776C9.52925 6.38908 9.52307 6.54125 9.52656 6.69335V6.74373C9.52656 6.89634 9.52656 7.06005 9.54508 7.19933C9.5673 7.36156 9.62286 7.56973 9.7977 7.74382C9.94586 7.89198 10.1192 7.95495 10.2674 7.98384V8.22238C10.2674 8.41969 10.2043 8.61184 10.0875 8.77082C9.97059 8.9298 9.806 9.04729 9.61768 9.10617L8.57759 9.43064C8.52268 9.44807 8.46856 9.46784 8.41535 9.4899V5.02061C8.53409 5.06237 8.66348 5.06257 8.78235 5.02119C8.90122 4.9798 9.00252 4.89929 9.06965 4.79282C9.13678 4.68635 9.16578 4.56024 9.15189 4.43515C9.13799 4.31005 9.08204 4.19338 8.99318 4.10423" stroke="url(#paint2_linear_506_359)" stroke-width="0.2"/>
<defs>
<linearGradient id="paint0_linear_506_359" x1="7.99977" y1="15.5664" x2="7.99977" y2="0.433105" gradientUnits="userSpaceOnUse">
<stop stop-color="#4461F8"/>
<stop offset="1" stop-color="#57D5FF"/>
</linearGradient>
<linearGradient id="paint1_linear_506_359" x1="7.85974" y1="13.2002" x2="7.85974" y2="3.2002" gradientUnits="userSpaceOnUse">
<stop stop-color="#4461F8"/>
<stop offset="1" stop-color="#57D5FF"/>
</linearGradient>
<linearGradient id="paint2_linear_506_359" x1="7.85974" y1="13.2002" x2="7.85974" y2="3.2002" gradientUnits="userSpaceOnUse">
<stop stop-color="#4461F8"/>
<stop offset="1" stop-color="#57D5FF"/>
</linearGradient>
</defs>
</svg>
