<svg width="16" height="16" viewBox="0 0 16 16" fill="none" xmlns="http://www.w3.org/2000/svg">
<path fill-rule="evenodd" clip-rule="evenodd" d="M1.9001 5.5001C1.9001 4.09367 2.0977 3.57529 2.33649 3.33649C2.57529 3.0977 3.09367 2.9001 4.5001 2.9001H11.5001C12.9065 2.9001 13.4249 3.0977 13.6637 3.33649C13.9025 3.57529 14.1001 4.09367 14.1001 5.5001V11.1001C14.1001 12.5065 13.9025 13.0249 13.6637 13.2637C13.4249 13.5025 12.9065 13.7001 11.5001 13.7001H4.5001C3.09367 13.7001 2.57529 13.5025 2.33649 13.2637C2.0977 13.0249 1.9001 12.5065 1.9001 11.1001V5.5001ZM4.5001 1.1001C3.10653 1.1001 1.87491 1.25249 1.0637 2.0637C0.252495 2.87491 0.100098 4.10653 0.100098 5.5001V11.1001C0.100098 12.4937 0.252495 13.7253 1.0637 14.5365C1.87491 15.3477 3.10653 15.5001 4.5001 15.5001H11.5001C12.8937 15.5001 14.1253 15.3477 14.9365 14.5365C15.7477 13.7253 15.9001 12.4937 15.9001 11.1001V5.5001C15.9001 4.10653 15.7477 2.87491 14.9365 2.0637C14.1253 1.25249 12.8937 1.1001 11.5001 1.1001H4.5001ZM9.33359 4.43359C8.83654 4.43359 8.43359 4.83654 8.43359 5.33359C8.43359 5.83065 8.83654 6.23359 9.33359 6.23359H12.6669C13.164 6.23359 13.5669 5.83065 13.5669 5.33359C13.5669 4.83654 13.164 4.43359 12.6669 4.43359H9.33359ZM9.1001 8.0001C9.1001 7.50304 9.50304 7.1001 10.0001 7.1001H12.6668C13.1638 7.1001 13.5668 7.50304 13.5668 8.0001C13.5668 8.49715 13.1638 8.9001 12.6668 8.9001H10.0001C9.50304 8.9001 9.1001 8.49715 9.1001 8.0001ZM11.3336 9.7666C10.8365 9.7666 10.4336 10.1695 10.4336 10.6666C10.4336 11.1637 10.8365 11.5666 11.3336 11.5666H12.6669C13.164 11.5666 13.5669 11.1637 13.5669 10.6666C13.5669 10.1695 13.164 9.7666 12.6669 9.7666H11.3336ZM5.66673 5.86338C5.41452 5.86338 5.21006 6.06784 5.21006 6.32005C5.21006 6.57226 5.41452 6.77671 5.66673 6.77671C5.91894 6.77671 6.12339 6.57226 6.12339 6.32005C6.12339 6.06784 5.91894 5.86338 5.66673 5.86338ZM3.71006 6.32005C3.71006 5.23941 4.58609 4.36338 5.66673 4.36338C6.74736 4.36338 7.62339 5.23941 7.62339 6.32005C7.62339 7.40068 6.74736 8.27671 5.66673 8.27671C4.58609 8.27671 3.71006 7.40068 3.71006 6.32005ZM8.74679 11.0662C8.61885 9.74109 7.56814 8.69883 6.24456 8.57826C5.86246 8.5403 5.47436 8.54054 5.08758 8.57843C3.77065 8.70586 2.71551 9.73582 2.58707 11.0662C2.54726 11.4785 2.84922 11.845 3.26152 11.8848C3.67381 11.9246 4.04031 11.6226 4.08012 11.2103C4.13832 10.6075 4.61622 10.1309 5.23234 10.0714L5.23344 10.0713C5.52526 10.0427 5.81574 10.0429 6.09897 10.0712L6.09896 10.0712L6.10662 10.0719C6.71449 10.1264 7.19513 10.6034 7.25373 11.2103C7.29354 11.6226 7.66004 11.9246 8.07234 11.8848C8.48463 11.845 8.7866 11.4785 8.74679 11.0662Z" fill="url(#paint0_linear_661_122)"/>
<defs>
<linearGradient id="paint0_linear_661_122" x1="1.67615" y1="17.2657" x2="17.0606" y2="6.41417" gradientUnits="userSpaceOnUse">
<stop stop-color="#AE4CFF"/>
<stop offset="1" stop-color="#FFADFF"/>
</linearGradient>
</defs>
</svg>
