<svg width="16" height="16" viewBox="0 0 16 16" fill="none" xmlns="http://www.w3.org/2000/svg">
<path fill-rule="evenodd" clip-rule="evenodd" d="M3.85567 4.22423C3.85567 3.27196 4.62763 2.5 5.5799 2.5C6.53216 2.5 7.30412 3.27196 7.30412 4.22423C7.30412 5.17649 6.53216 5.94845 5.5799 5.94845C4.62763 5.94845 3.85567 5.17649 3.85567 4.22423ZM5.5799 1C3.79921 1 2.35567 2.44354 2.35567 4.22423C2.35567 6.00492 3.79921 7.44845 5.5799 7.44845C7.36059 7.44845 8.80412 6.00492 8.80412 4.22423C8.80412 2.44354 7.36059 1 5.5799 1ZM4.21907 8.42268C2.16509 8.42268 0.5 10.0878 0.5 12.1418C0.5 13.6491 1.72199 14.8711 3.22938 14.8711H7.93041C9.43781 14.8711 10.6598 13.6491 10.6598 12.1418C10.6598 10.0878 8.99471 8.42268 6.94072 8.42268H4.21907ZM2 12.1418C2 10.9162 2.99351 9.92268 4.21907 9.92268H6.94072C8.16628 9.92268 9.15979 10.9162 9.15979 12.1418C9.15979 12.8207 8.60938 13.3711 7.93041 13.3711H3.22938C2.55041 13.3711 2 12.8207 2 12.1418Z" fill="url(#paint0_linear_488_566)"/>
<path fill-rule="evenodd" clip-rule="evenodd" d="M9.91016 1C9.49594 1 9.16016 1.33579 9.16016 1.75C9.16016 2.16421 9.49594 2.5 9.91016 2.5C10.8624 2.5 11.6344 3.27196 11.6344 4.22423C11.6344 5.17649 10.8624 5.94845 9.91016 5.94845C9.49594 5.94845 9.16016 6.28424 9.16016 6.69845C9.16016 7.11267 9.49594 7.44845 9.91016 7.44845C11.6908 7.44845 13.1344 6.00492 13.1344 4.22423C13.1344 2.44354 11.6908 1 9.91016 1ZM11.147 8.42285C10.7328 8.42285 10.397 8.75864 10.397 9.17285C10.397 9.58706 10.7328 9.92285 11.147 9.92285H11.8892C13.1148 9.92285 14.1083 10.9164 14.1083 12.1419C14.1083 12.8209 13.5579 13.3713 12.8789 13.3713H11.147C10.7328 13.3713 10.397 13.7071 10.397 14.1213C10.397 14.5355 10.7328 14.8713 11.147 14.8713H12.8789C14.3863 14.8713 15.6083 13.6493 15.6083 12.1419C15.6083 10.0879 13.9432 8.42285 11.8892 8.42285H11.147Z" fill="url(#paint1_linear_488_566)"/>
<defs>
<linearGradient id="paint0_linear_488_566" x1="3.03995" y1="13.8803" x2="12.215" y2="6.0401" gradientUnits="userSpaceOnUse">
<stop stop-color="#A056FF"/>
<stop offset="1" stop-color="#C59AFD"/>
</linearGradient>
<linearGradient id="paint1_linear_488_566" x1="10.7722" y1="13.8805" x2="18.5576" y2="9.65824" gradientUnits="userSpaceOnUse">
<stop stop-color="#A056FF"/>
<stop offset="1" stop-color="#C59AFD"/>
</linearGradient>
</defs>
</svg>
