<svg width="128" height="128" viewBox="0 0 128 128" fill="none" xmlns="http://www.w3.org/2000/svg">
<path fill-rule="evenodd" clip-rule="evenodd" d="M29 43C29 23.61 44.61 8 64 8C83.39 8 99 23.61 99 43V57C102.878 57 106 60.122 106 64V113C106 116.878 102.878 120 99 120H29C25.122 120 22 116.878 22 113V64C22 60.122 25.122 57 29 57V43ZM64 22C75.598 22 85 31.402 85 43C85 57.7 77.6041 66.7153 64 71.875V64C52.402 64 43 54.598 43 43C43 31.402 52.402 22 64 22ZM59.0503 87.0503C60.363 85.7375 62.1435 85 64 85C65.8565 85 67.637 85.7375 68.9497 87.0503C70.2625 88.363 71 90.1435 71 92C71 93.8565 70.2625 95.637 68.9497 96.9497C67.637 98.2625 65.8565 99 64 99C62.1435 99 60.363 98.2625 59.0503 96.9497C57.7375 95.637 57 93.8565 57 92C57 90.1435 57.7375 88.363 59.0503 87.0503ZM64 99H67.5C70.7883 99 72.8772 100.854 74.8571 102.61C74.9846 102.723 75.1116 102.836 75.2385 102.948C77.1985 104.684 78 107.092 78 107.967V109.542C77.9953 109.575 77.9969 109.607 77.9984 109.64C77.9992 109.656 78 109.673 78 109.689C78 111.516 75.7327 113 72.9278 113H55.0722C52.2673 113 50 111.523 50 109.689C50 109.658 50.004 109.627 50.0079 109.595C50.0102 109.578 50.0125 109.56 50.014 109.542C50.0077 109.542 50.0028 108.744 50 107.953C49.9986 107.078 50.616 104.642 52.4885 102.871C54.4709 100.995 57 99 60.5 99H64Z" fill="url(#paint0_linear_718_9)"/>
<defs>
<linearGradient id="paint0_linear_718_9" x1="64" y1="18.5" x2="64" y2="120" gradientUnits="userSpaceOnUse">
<stop stop-color="#9EE170"/>
<stop offset="1" stop-color="#E5ECA2"/>
</linearGradient>
</defs>
</svg>
