<svg width="64" height="64" viewBox="0 0 64 64" fill="none" xmlns="http://www.w3.org/2000/svg">
<path d="M14.766 4C8.82297 4 4 8.82297 4 14.766C4 20.7136 8.82157 25.5354 14.7694 25.5354C16.5282 25.5354 18.157 25.0337 19.6179 24.2726C19.859 24.147 20.1545 24.1811 20.353 24.367L28.0184 31.5455C28.281 31.7913 28.281 32.2079 28.0186 32.4539L20.3564 39.6294C20.158 39.8153 19.8626 39.8496 19.6215 39.7239C18.1606 38.9627 16.5317 38.461 14.773 38.461C8.82997 38.461 4.007 43.284 4.007 49.234C4.007 55.177 8.82997 60 14.773 60C20.7207 60 25.5424 55.1784 25.5424 49.2306C25.5424 48.3719 25.4251 47.5553 25.231 46.7596C25.1773 46.5391 25.24 46.3055 25.4027 46.1474L33.8653 37.9341C34.1044 37.702 34.4837 37.6995 34.7259 37.928L53.3628 55.5229C53.4784 55.6317 53.6312 55.6926 53.79 55.6926H59.3819C59.7256 55.6926 60.0042 55.414 60.0042 55.0703V51.6484C60.0042 51.48 59.9359 51.3187 59.815 51.2016L25.4032 17.8529C25.24 17.6948 25.1773 17.4609 25.2311 17.2403C25.4254 16.4447 25.5423 15.6283 25.5423 14.7697C25.5423 8.8197 20.716 4 14.766 4ZM14.766 10.4615C17.1451 10.4615 19.0736 12.3901 19.0736 14.7691C19.0736 17.1482 17.1451 19.0769 14.766 19.0769C12.387 19.0769 10.4583 17.1482 10.4583 14.7691C10.4583 12.3901 12.387 10.4615 14.766 10.4615ZM53.7829 8.30774C53.6239 8.30774 53.4711 8.36841 53.3555 8.47762L37.0449 23.8822C36.7879 24.1249 36.7845 24.5328 37.0374 24.7799L41.7944 29.4235C42.0355 29.6588 42.4203 29.6594 42.6622 29.4249L59.8079 12.7992C59.9287 12.6821 59.997 12.5209 59.997 12.3526V8.93046C59.997 8.58682 59.7184 8.30821 59.3748 8.30821L53.7829 8.30774ZM14.766 44.9231C17.1451 44.9231 19.0736 46.8518 19.0736 49.2309C19.0736 51.6099 17.1451 53.5385 14.766 53.5385C12.387 53.5385 10.4583 51.6099 10.4583 49.2309C10.4583 46.8518 12.387 44.9231 14.766 44.9231Z" fill="url(#paint0_linear_1054_32)"/>
<defs>
<linearGradient id="paint0_linear_1054_32" x1="32.0021" y1="3.99673" x2="32.0021" y2="60" gradientUnits="userSpaceOnUse">
<stop stop-color="#97EB0E"/>
<stop offset="1" stop-color="#19B90B"/>
</linearGradient>
</defs>
</svg>
