<svg width="16" height="16" viewBox="0 0 16 16" fill="none" xmlns="http://www.w3.org/2000/svg">
<g clip-path="url(#clip0_597_127)">
<path d="M7.74016 1.48235C7.81516 1.30152 7.88433 1.07235 8.09183 1.00569C8.33266 0.914854 8.61433 1.04819 8.69516 1.29152C9.15516 2.47985 9.59349 3.67652 10.0418 4.86902C10.1685 5.14319 9.98016 5.52151 9.66849 5.53818C9.01539 5.55899 8.3612 5.53493 7.70811 5.54525C7.41885 5.54982 7.16224 5.72881 7.06212 6.00022V6.00022C6.87984 6.49437 7.25653 7.02756 7.78322 7.02867C8.57729 7.03034 9.37115 7.03131 10.165 7.03425C10.58 7.03578 10.9505 7.29426 11.0967 7.68272C11.3614 8.38631 11.6271 9.0896 11.8868 9.79485C12.0218 10.0749 11.7985 10.449 11.4877 10.4574C9.59091 10.473 7.69416 10.4593 5.79741 10.4617C5.56821 10.4619 5.36478 10.6067 5.28138 10.8202V10.8202C5.14228 11.1762 5.39818 11.5602 5.78044 11.5608C8.15855 11.5648 10.5372 11.5576 12.9152 11.5599C13.236 11.5649 13.5877 11.5165 13.871 11.704C14.3552 12.0165 14.5985 12.609 14.6235 13.1682C14.6535 13.8249 14.2368 14.4749 13.6218 14.7115C13.1568 14.8874 12.6518 14.8407 12.1652 14.8499C9.21933 14.8465 6.27433 14.8532 3.32849 14.8532C2.83183 14.8599 2.30016 14.7615 1.93266 14.4015C1.35016 13.8707 1.28599 12.9265 1.68849 12.2732C1.90516 11.9915 2.39933 12.0857 2.50266 12.424C2.61759 12.6819 2.37885 12.9007 2.36572 13.1518C2.3622 13.2189 2.37083 13.2869 2.38371 13.3529C2.4402 13.6424 2.72203 13.8593 3.01933 13.854C6.29099 13.859 9.56349 13.8515 12.836 13.8557C13.0285 13.8557 13.2352 13.8474 13.401 13.7349C13.7827 13.5032 13.7768 12.8457 13.3785 12.6324C13.1652 12.4999 12.9052 12.5357 12.666 12.5299C9.88651 12.5323 7.10621 12.5225 4.32672 12.5256C4.27741 12.5257 4.22801 12.5319 4.17878 12.5291C3.93128 12.5149 3.72246 12.2491 3.80516 12.004C4.05933 11.2815 4.33766 10.5674 4.60183 9.84819C4.66266 9.63735 4.85766 9.46735 5.08516 9.47985C6.59938 9.47517 8.11414 9.478 9.629 9.47758C10.1705 9.47743 10.5541 8.93146 10.3657 8.42376V8.42376C10.2742 8.17744 10.0585 7.99495 9.79599 7.98333C9.33922 7.96311 8.87749 8.02791 8.42016 8.01069C7.61183 8.00735 6.80516 7.97152 5.99599 7.98235C5.67349 8.00819 5.41933 7.63902 5.54349 7.34319C5.83933 6.53569 6.14599 5.73235 6.44766 4.92735C6.50933 4.73235 6.69516 4.57818 6.90599 4.58735C7.34876 4.5824 7.79188 4.58796 8.23513 4.59018C8.56923 4.59185 8.79839 4.25816 8.68023 3.94564C8.66023 3.89273 8.64019 3.83984 8.62012 3.78696C8.48848 3.44025 8.07612 3.47427 7.85433 3.7715V3.7715C7.55266 4.09567 6.93933 3.77569 7.05433 3.33569C7.26433 2.71152 7.51516 2.10152 7.74016 1.48235Z" fill="url(#paint0_linear_597_127)" stroke="url(#paint1_linear_597_127)"/>
</g>
<defs>
<linearGradient id="paint0_linear_597_127" x1="8.02857" y1="14.8535" x2="8.02857" y2="0.977037" gradientUnits="userSpaceOnUse">
<stop stop-color="#FD5900"/>
<stop offset="1" stop-color="#FFF500"/>
</linearGradient>
<linearGradient id="paint1_linear_597_127" x1="8.02857" y1="14.8535" x2="8.02857" y2="0.977037" gradientUnits="userSpaceOnUse">
<stop stop-color="#FD5900"/>
<stop offset="1" stop-color="#FFF500"/>
</linearGradient>
<clipPath id="clip0_597_127">
<rect width="16" height="16" fill="white"/>
</clipPath>
</defs>
</svg>
