<svg width="16" height="16" viewBox="0 0 16 16" fill="none" xmlns="http://www.w3.org/2000/svg">
<path fill-rule="evenodd" clip-rule="evenodd" d="M8.09588 1.78623C8.44788 1.65281 8.83112 1.91402 8.83112 2.29773V4.12012H3.72827C3.07871 4.12012 2.4717 4.30767 1.9586 4.6314C2.05741 4.26776 2.32349 3.96756 2.6856 3.83042L8.09588 1.78623ZM0.416504 7.11518V4.94818C0.416504 3.82706 1.10542 2.82454 2.15476 2.42749L7.56424 0.383607C8.90184 -0.123045 10.3311 0.869227 10.3311 2.29773V4.12012H11.5501C13.3838 4.12012 14.8785 5.61478 14.8785 7.44849V7.86705C15.3089 8.12039 15.5999 8.58518 15.5999 9.12453V10.5281C15.5999 11.0675 15.3089 11.5323 14.8785 11.7856V12.0339C14.8785 13.8677 13.3838 15.3623 11.5501 15.3623H3.72827C1.89455 15.3623 0.399902 13.8677 0.399902 12.0339V7.44849C0.399902 7.33603 0.405525 7.22483 0.416504 7.11518ZM1.93293 7.44849C1.93293 6.46144 2.74123 5.65314 3.72827 5.65314H11.5501C12.5372 5.65314 13.3455 6.46144 13.3455 7.44849V7.66308H12.7349C12.1513 7.66308 11.6082 7.89285 11.2114 8.29669C10.7731 8.7284 10.5194 9.35059 10.5815 10.0172C10.6791 11.1602 11.6648 11.9295 12.6946 11.9862C12.7355 11.9885 12.7764 11.9896 12.8174 11.9896H13.3455V12.0339C13.3455 13.021 12.5372 13.8293 11.5501 13.8293H3.72827C2.74123 13.8293 1.93293 13.021 1.93293 12.0339V7.44849ZM12.7732 10.4554C12.7875 10.4562 12.802 10.4566 12.8166 10.4566H14.0669V9.19615H12.7357C12.5595 9.19615 12.4105 9.26349 12.3037 9.37316L12.29 9.38692C12.1611 9.51269 12.091 9.68962 12.1088 9.87635L12.1096 9.88536L12.1096 9.88536C12.1321 10.1559 12.3986 10.4349 12.7732 10.4554ZM3.46596 7.78235C3.46596 7.35901 3.80914 7.01583 4.23247 7.01583H9.00188C9.42522 7.01583 9.7684 7.35901 9.7684 7.78235C9.7684 8.20568 9.42522 8.54886 9.00188 8.54886H4.23247C3.80914 8.54886 3.46596 8.20568 3.46596 7.78235Z" fill="url(#paint0_linear_554_140)"/>
<path d="M8.09588 1.78623L8.1489 1.92655L8.14904 1.9265L8.09588 1.78623ZM8.83112 4.12012V4.27012C8.91396 4.27012 8.98112 4.20296 8.98112 4.12012H8.83112ZM1.9586 4.6314L1.81385 4.59207C1.79763 4.65174 1.8197 4.71525 1.86942 4.75202C1.91915 4.78878 1.98634 4.79126 2.03864 4.75826L1.9586 4.6314ZM2.6856 3.83042L2.63258 3.6901L2.63247 3.69014L2.6856 3.83042ZM0.416504 7.11518L0.565758 7.13012C0.566255 7.12516 0.566504 7.12017 0.566504 7.11518H0.416504ZM2.15476 2.42749L2.10174 2.28717L2.10168 2.2872L2.15476 2.42749ZM7.56424 0.383607L7.61726 0.523926L7.61737 0.523882L7.56424 0.383607ZM10.3311 4.12012H10.1811C10.1811 4.20296 10.2483 4.27012 10.3311 4.27012V4.12012ZM14.8785 7.86705H14.7285C14.7285 7.92019 14.7566 7.96937 14.8024 7.99632L14.8785 7.86705ZM14.8785 11.7856L14.8024 11.6564C14.7566 11.6833 14.7285 11.7325 14.7285 11.7856H14.8785ZM13.3455 7.66308V7.81308C13.4283 7.81308 13.4955 7.74592 13.4955 7.66308H13.3455ZM11.2114 8.29669L11.3166 8.40356L11.3184 8.40182L11.2114 8.29669ZM10.5815 10.0172L10.7309 10.0044L10.7308 10.0032L10.5815 10.0172ZM12.6946 11.9862L12.7029 11.8365L12.7028 11.8365L12.6946 11.9862ZM13.3455 11.9896H13.4955C13.4955 11.9068 13.4283 11.8396 13.3455 11.8396V11.9896ZM12.7732 10.4554L12.765 10.6052L12.7652 10.6052L12.7732 10.4554ZM14.0669 10.4566V10.6066C14.1498 10.6066 14.2169 10.5394 14.2169 10.4566H14.0669ZM14.0669 9.19615H14.2169C14.2169 9.1133 14.1498 9.04615 14.0669 9.04615V9.19615ZM12.3037 9.37316L12.4098 9.47916L12.4112 9.4778L12.3037 9.37316ZM12.29 9.38692L12.3947 9.49427L12.3961 9.49292L12.29 9.38692ZM12.1088 9.87635L12.2581 9.86213L12.2581 9.86213L12.1088 9.87635ZM12.1096 9.88536L12.1203 10.035C12.1606 10.0321 12.198 10.0131 12.2241 9.98225C12.2502 9.95142 12.2628 9.91136 12.259 9.87114L12.1096 9.88536ZM12.1096 9.88536L12.0989 9.73575C12.0589 9.7386 12.0217 9.75735 11.9956 9.7878C11.9696 9.81825 11.9568 9.85787 11.9601 9.89782L12.1096 9.88536ZM8.98112 2.29773C8.98112 1.80918 8.49297 1.47531 8.04272 1.64597L8.14904 1.9265C8.4028 1.83031 8.68112 2.01887 8.68112 2.29773H8.98112ZM8.98112 4.12012V2.29773H8.68112V4.12012H8.98112ZM8.83112 3.97012H3.72827V4.27012H8.83112V3.97012ZM3.72827 3.97012C3.04944 3.97012 2.41481 4.1662 1.87856 4.50454L2.03864 4.75826C2.52859 4.44913 3.10798 4.27012 3.72827 4.27012V3.97012ZM2.63247 3.69014C2.22474 3.84456 1.92507 4.18274 1.81385 4.59207L2.10335 4.67073C2.18974 4.35278 2.42224 4.09056 2.73872 3.9707L2.63247 3.69014ZM8.04286 1.64591L2.63258 3.6901L2.73862 3.97074L8.1489 1.92655L8.04286 1.64591ZM0.566504 7.11518V4.94818H0.266504V7.11518H0.566504ZM0.566504 4.94818C0.566504 3.88911 1.21713 2.94265 2.20784 2.56778L2.10168 2.2872C0.993718 2.70643 0.266504 3.765 0.266504 4.94818H0.566504ZM2.20778 2.56781L7.61726 0.523926L7.51122 0.243289L2.10174 2.28717L2.20778 2.56781ZM7.61737 0.523882C8.85637 0.054577 10.1811 0.973673 10.1811 2.29773H10.4811C10.4811 0.76478 8.94731 -0.300667 7.51111 0.243333L7.61737 0.523882ZM10.1811 2.29773V4.12012H10.4811V2.29773H10.1811ZM11.5501 3.97012H10.3311V4.27012H11.5501V3.97012ZM15.0285 7.44849C15.0285 5.53194 13.4667 3.97012 11.5501 3.97012V4.27012C13.301 4.27012 14.7285 5.69762 14.7285 7.44849H15.0285ZM15.0285 7.86705V7.44849H14.7285V7.86705H15.0285ZM15.7499 9.12453C15.7499 8.52929 15.4284 8.01665 14.9546 7.73778L14.8024 7.99632C15.1894 8.22413 15.4499 8.64107 15.4499 9.12453H15.7499ZM15.7499 10.5281V9.12453H15.4499V10.5281H15.7499ZM14.9546 11.9149C15.4284 11.636 15.7499 11.1234 15.7499 10.5281H15.4499C15.4499 11.0116 15.1894 11.4286 14.8024 11.6564L14.9546 11.9149ZM15.0285 12.0339V11.7856H14.7285V12.0339H15.0285ZM11.5501 15.5123C13.4667 15.5123 15.0285 13.9505 15.0285 12.0339H14.7285C14.7285 13.7848 13.301 15.2123 11.5501 15.2123V15.5123ZM3.72827 15.5123H11.5501V15.2123H3.72827V15.5123ZM0.249902 12.0339C0.249902 13.9505 1.81171 15.5123 3.72827 15.5123V15.2123C1.9774 15.2123 0.549902 13.7848 0.549902 12.0339H0.249902ZM0.249902 7.44849V12.0339H0.549902V7.44849H0.249902ZM0.26725 7.10023C0.255775 7.21484 0.249902 7.33102 0.249902 7.44849H0.549902C0.549902 7.34103 0.555275 7.23482 0.565758 7.13012L0.26725 7.10023ZM3.72827 5.50314C2.65838 5.50314 1.78293 6.3786 1.78293 7.44849H2.08293C2.08293 6.54428 2.82407 5.80314 3.72827 5.80314V5.50314ZM11.5501 5.50314H3.72827V5.80314H11.5501V5.50314ZM13.4955 7.44849C13.4955 6.3786 12.62 5.50314 11.5501 5.50314V5.80314C12.4543 5.80314 13.1955 6.54428 13.1955 7.44849H13.4955ZM13.4955 7.66308V7.44849H13.1955V7.66308H13.4955ZM12.7349 7.81308H13.3455V7.51308H12.7349V7.81308ZM11.3184 8.40182C11.6868 8.02689 12.1913 7.81308 12.7349 7.81308V7.51308C12.1114 7.51308 11.5296 7.75881 11.1044 8.19155L11.3184 8.40182ZM10.7308 10.0032C10.6731 9.38385 10.9088 8.80534 11.3166 8.40355L11.1061 8.18983C10.6375 8.65147 10.3656 9.31734 10.4321 10.0311L10.7308 10.0032ZM12.7028 11.8365C11.735 11.7831 10.8212 11.061 10.7309 10.0044L10.432 10.0299C10.5371 11.2594 11.5946 12.0758 12.6863 12.136L12.7028 11.8365ZM12.8174 11.8396C12.7792 11.8396 12.741 11.8386 12.7029 11.8365L12.6863 12.136C12.7299 12.1384 12.7736 12.1396 12.8174 12.1396V11.8396ZM13.3455 11.8396H12.8174V12.1396H13.3455V11.8396ZM13.4955 12.0339V11.9896H13.1955V12.0339H13.4955ZM11.5501 13.9793C12.62 13.9793 13.4955 13.1038 13.4955 12.0339H13.1955C13.1955 12.9381 12.4543 13.6793 11.5501 13.6793V13.9793ZM3.72827 13.9793H11.5501V13.6793H3.72827V13.9793ZM1.78293 12.0339C1.78293 13.1038 2.65838 13.9793 3.72827 13.9793V13.6793C2.82407 13.6793 2.08293 12.9381 2.08293 12.0339H1.78293ZM1.78293 7.44849V12.0339H2.08293V7.44849H1.78293ZM12.8166 10.3066C12.8047 10.3066 12.7929 10.3063 12.7813 10.3056L12.7652 10.6052C12.7822 10.6061 12.7993 10.6066 12.8166 10.6066V10.3066ZM14.0669 10.3066H12.8166V10.6066H14.0669V10.3066ZM13.9169 9.19615V10.4566H14.2169V9.19615H13.9169ZM12.7357 9.34615H14.0669V9.04615H12.7357V9.34615ZM12.4112 9.4778C12.4895 9.39732 12.5997 9.34615 12.7357 9.34615V9.04615C12.5193 9.04615 12.3314 9.12966 12.1962 9.26851L12.4112 9.4778ZM12.3961 9.49292L12.4098 9.47915L12.1976 9.26716L12.1838 9.28092L12.3961 9.49292ZM12.2581 9.86213C12.2448 9.72262 12.2969 9.5898 12.3947 9.49426L12.1852 9.27958C12.0254 9.43558 11.9372 9.65661 11.9594 9.89057L12.2581 9.86213ZM12.259 9.87114L12.2581 9.86213L11.9594 9.89057L11.9603 9.89958L12.259 9.87114ZM12.1203 10.035L12.1203 10.035L12.0989 9.73574L12.0989 9.73575L12.1203 10.035ZM12.7814 10.3056C12.4732 10.2888 12.2747 10.0607 12.2591 9.87291L11.9601 9.89782C11.9895 10.2511 12.3241 10.581 12.765 10.6052L12.7814 10.3056ZM4.23247 6.86583C3.72629 6.86583 3.31596 7.27617 3.31596 7.78235H3.61596C3.61596 7.44185 3.89198 7.16583 4.23247 7.16583V6.86583ZM9.00188 6.86583H4.23247V7.16583H9.00188V6.86583ZM9.9184 7.78235C9.9184 7.27617 9.50806 6.86583 9.00188 6.86583V7.16583C9.34238 7.16583 9.6184 7.44185 9.6184 7.78235H9.9184ZM9.00188 8.69886C9.50806 8.69886 9.9184 8.28852 9.9184 7.78235H9.6184C9.6184 8.12284 9.34238 8.39886 9.00188 8.39886V8.69886ZM4.23247 8.69886H9.00188V8.39886H4.23247V8.69886ZM3.31596 7.78235C3.31596 8.28852 3.72629 8.69886 4.23247 8.69886V8.39886C3.89198 8.39886 3.61596 8.12284 3.61596 7.78235H3.31596Z" fill="url(#paint1_linear_554_140)"/>
<defs>
<linearGradient id="paint0_linear_554_140" x1="7.99992" y1="15.3623" x2="7.99992" y2="0.249512" gradientUnits="userSpaceOnUse">
<stop stop-color="#A93AFF"/>
<stop offset="1" stop-color="#FF81FF"/>
</linearGradient>
<linearGradient id="paint1_linear_554_140" x1="7.99992" y1="15.3623" x2="7.99992" y2="0.249512" gradientUnits="userSpaceOnUse">
<stop stop-color="#A93AFF"/>
<stop offset="1" stop-color="#FF81FF"/>
</linearGradient>
</defs>
</svg>
