<svg width="128" height="128" viewBox="0 0 128 128" fill="none" xmlns="http://www.w3.org/2000/svg">
<path d="M105.72 14C99.1301 14 93.6974 19.4211 93.6974 26.0106C93.6974 28.2231 94.3201 30.2964 95.3832 32.084L80.8148 51.7642C78.3635 50.6135 75.6456 49.9499 72.7753 49.9499C69.5766 49.9499 66.5567 50.7547 63.9027 52.1652C64.2937 51.2642 64.2485 50.1725 63.4199 49.1479L59.6396 44.4683C59.0737 43.7414 58.2054 43.3115 57.2842 43.3042C54.7167 43.283 53.2999 46.2768 54.9444 48.2486L58.7247 52.9438C59.3749 53.7477 60.1672 54.0893 60.9438 54.1079C56.8057 57.4069 54.0511 62.3795 53.7297 67.9716L24.406 71.4405C22.8228 68.9326 20.0422 67.2397 16.8882 67.2397C12.0103 67.2397 8 71.2617 8 76.1396C8 81.0175 12.0103 85.0278 16.8882 85.0278C20.17 85.0278 23.0338 83.1927 24.5773 80.5194L55.3765 76.8793C58.3815 83.5144 65.0603 88.1774 72.7753 88.1774C77.8626 88.1774 82.4976 86.1409 85.9344 82.8593L89.6524 87.4727C92.1833 90.602 96.8746 86.8061 94.3437 83.6768L90.5634 78.9972C90.2893 78.6451 89.9427 78.3664 89.5551 78.168C91.039 75.4554 91.8871 72.3501 91.8871 69.0617C91.8871 64.9697 90.5677 61.1729 88.3482 58.0517L103.345 37.7759C104.113 37.9323 104.908 38.0173 105.72 38.0173C112.309 38.0173 117.726 32.6001 117.726 26.0106C117.726 19.4211 112.309 14 105.72 14ZM42.5484 21.4321C40.2873 21.4328 38.119 22.3312 36.5202 23.9301C34.9213 25.5289 34.0229 27.6972 34.0222 29.9583C34.0218 32.22 34.9199 34.3893 36.5188 35.989C38.1177 37.5887 40.2866 38.4877 42.5484 38.4883C43.6827 38.4856 44.8051 38.2566 45.8498 37.8148L49.4355 42.2647C51.9664 45.394 56.6616 41.5981 54.1307 38.4688L50.3465 33.7892C50.3098 33.7416 50.2617 33.7059 50.2219 33.6608C50.7822 32.5067 51.075 31.2411 51.0784 29.9583C51.0778 27.6965 50.1788 25.5276 48.5791 23.9287C46.9794 22.3298 44.8101 21.4317 42.5484 21.4321ZM105.72 21.5373C108.238 21.5373 110.193 23.4926 110.193 26.0106C110.193 28.5285 108.238 30.4839 105.72 30.4839C103.202 30.4839 101.231 28.5285 101.231 26.0106C101.231 23.4926 103.202 21.5373 105.72 21.5373ZM72.7753 59.7491C77.979 59.7491 82.1034 63.858 82.1034 69.0617C82.1034 74.2654 77.979 78.3782 72.7753 78.3782C67.5716 78.3782 63.4588 74.2654 63.4588 69.0617C63.4588 63.858 67.5716 59.7491 72.7753 59.7491ZM16.8882 72.8148C18.7521 72.8148 20.213 74.2757 20.213 76.1396C20.213 78.0034 18.7521 79.4527 16.8882 79.4527C15.0243 79.4527 13.579 78.0034 13.579 76.1396C13.579 74.2757 15.0243 72.8148 16.8882 72.8148ZM63.5912 86.8848C62.4935 86.8825 61.3923 87.465 60.8504 88.629L58.2147 94.0484C56.461 97.6708 61.8959 100.303 63.6496 96.6802L66.2697 91.2647C66.6865 90.4431 66.7063 89.4773 66.32 88.6407C65.7829 87.4746 64.6889 86.8871 63.5912 86.8848ZM97.9177 88.9288C95.3502 88.9075 93.9333 91.9013 95.5779 93.8731L99.3582 98.5645C99.4654 98.6971 99.5825 98.7987 99.6969 98.907C98.8274 100.493 98.3696 102.272 98.3654 104.081C98.3656 105.502 98.6456 106.908 99.1894 108.221C99.7332 109.533 100.53 110.725 101.535 111.73C102.54 112.734 103.732 113.531 105.045 114.074C106.357 114.617 107.764 114.897 109.185 114.896C112.053 114.896 114.804 113.757 116.832 111.728C118.86 109.7 120 106.949 120 104.081C120 102.661 119.721 101.254 119.178 99.9412C118.634 98.6287 117.838 97.436 116.833 96.4313C115.829 95.4267 114.637 94.6297 113.324 94.0858C112.012 93.542 110.605 93.262 109.185 93.2619C107.348 93.2631 105.542 93.7321 103.937 94.6245L100.269 90.0889C99.7033 89.362 98.8389 88.9361 97.9177 88.9288ZM55.6529 98.5333C53.8513 98.5337 52.1235 99.2496 50.8495 100.524C49.5755 101.798 48.8596 103.525 48.8593 105.327C48.8589 106.219 49.0344 107.103 49.3757 107.928C49.7169 108.752 50.2173 109.502 50.8481 110.133C51.479 110.764 52.228 111.265 53.0524 111.607C53.8769 111.948 54.7605 112.124 55.6529 112.125C56.5457 112.125 57.4298 111.949 58.2546 111.608C59.0795 111.266 59.829 110.766 60.4603 110.134C61.0915 109.503 61.5922 108.754 61.9337 107.929C62.2752 107.104 62.4508 106.22 62.4505 105.327C62.4503 104.435 62.2743 103.551 61.9326 102.726C61.5909 101.902 61.0901 101.153 60.4589 100.522C59.8277 99.8913 59.0784 99.391 58.2537 99.0497C57.4291 98.7085 56.5454 98.533 55.6529 98.5333Z" fill="url(#paint0_linear_719_63)" stroke="url(#paint1_linear_719_63)" stroke-width="2"/>
<defs>
<linearGradient id="paint0_linear_719_63" x1="18.4186" y1="64.4482" x2="100.899" y2="64.4482" gradientUnits="userSpaceOnUse">
<stop stop-color="#C156C4"/>
<stop offset="1" stop-color="#00A3FF"/>
</linearGradient>
<linearGradient id="paint1_linear_719_63" x1="18.4186" y1="64.4482" x2="100.899" y2="64.4482" gradientUnits="userSpaceOnUse">
<stop stop-color="#C156C4"/>
<stop offset="1" stop-color="#00A3FF"/>
</linearGradient>
</defs>
</svg>
