<svg width="16" height="16" viewBox="0 0 16 16" fill="none" xmlns="http://www.w3.org/2000/svg">
<path fill-rule="evenodd" clip-rule="evenodd" d="M12.4948 5.58494C12.4273 5.5636 12.3741 5.50958 12.3551 5.44139C11.9618 4.0309 11.1574 3.01089 10.1202 2.39951C8.93408 1.70035 7.53008 1.58639 6.27587 1.91519C5.02163 2.244 3.85336 3.03224 3.15902 4.22175C2.61584 5.15229 2.39281 6.27704 2.59654 7.5221C2.61249 7.61953 2.55651 7.71557 2.46536 7.75351C-0.533149 9.00133 -0.114692 13.9708 3.64964 14.2379C4.14545 14.2731 4.57591 13.8997 4.61109 13.4039C4.64628 12.9081 4.27287 12.4776 3.77706 12.4424C1.78742 12.3013 1.79847 9.44226 3.75204 9.27986C3.9865 9.27974 4.22603 9.33734 4.44482 9.44879C4.88772 9.67442 5.42966 9.49829 5.65529 9.05539C5.88091 8.6125 5.70478 8.07055 5.26188 7.84492C5.0388 7.73128 4.80326 7.64259 4.5604 7.5811C4.48587 7.56222 4.42596 7.50491 4.40995 7.42972C4.20665 6.47483 4.37504 5.70909 4.71355 5.12917C5.13691 4.4039 5.87906 3.88005 6.73233 3.65636C7.58561 3.43266 8.48619 3.52578 9.20613 3.95016C9.70125 4.24202 10.1546 4.71602 10.4544 5.43817C10.4967 5.53999 10.4421 5.65413 10.3407 5.69737C10.2745 5.72557 10.2091 5.75584 10.1445 5.78815C9.69991 6.01044 9.51971 6.55104 9.742 6.99563C9.96429 7.44021 10.5049 7.62041 10.9495 7.39812C11.156 7.29488 11.3725 7.23625 11.5957 7.22255C11.6101 7.22167 11.6247 7.22258 11.6388 7.2251C13.6486 7.58296 14.4593 10.3602 12.8941 11.7292L12.8812 11.7407C12.3864 12.1905 11.7442 12.4383 11.08 12.4333C10.5829 12.4296 10.177 12.8295 10.1733 13.3266C10.1696 13.8236 10.5695 14.2295 11.0665 14.2332C12.1861 14.2416 13.2612 13.8249 14.0856 13.0783C16.6403 10.8351 15.5713 6.55707 12.4948 5.58494ZM7.17725 12.8031C7.47014 13.096 7.47014 13.5709 7.17725 13.8638L5.84392 15.1971C5.55102 15.49 5.07615 15.49 4.78326 15.1971C4.49036 14.9042 4.49036 14.4294 4.78326 14.1365L6.11659 12.8031C6.40948 12.5102 6.88436 12.5102 7.17725 12.8031ZM9.84375 13.8638C10.1366 13.5709 10.1366 13.096 9.84375 12.8031C9.55086 12.5102 9.07599 12.5102 8.78309 12.8031L7.44976 14.1365C7.15687 14.4294 7.15687 14.9042 7.44976 15.1971C7.74265 15.49 8.21753 15.49 8.51042 15.1971L9.84375 13.8638ZM9.84375 10.1361C10.1366 10.429 10.1366 10.9039 9.84375 11.1968L8.51042 12.5301C8.21753 12.823 7.74265 12.823 7.44976 12.5301C7.15687 12.2372 7.15687 11.7624 7.44976 11.4695L8.78309 10.1361C9.07599 9.84326 9.55086 9.84326 9.84375 10.1361ZM7.17725 11.1968C7.47014 10.9039 7.47014 10.429 7.17725 10.1361C6.88436 9.84326 6.40948 9.84326 6.11659 10.1361L4.78326 11.4695C4.49036 11.7624 4.49036 12.2372 4.78326 12.5301C5.07615 12.823 5.55102 12.823 5.84392 12.5301L7.17725 11.1968Z" fill="url(#paint0_linear_596_138)"/>
<defs>
<linearGradient id="paint0_linear_596_138" x1="0.738202" y1="2.37387" x2="14.285" y2="15.7723" gradientUnits="userSpaceOnUse">
<stop stop-color="#DEFCF2"/>
<stop offset="1" stop-color="#98E1FD"/>
</linearGradient>
</defs>
</svg>
