<svg width="16" height="16" viewBox="0 0 16 16" fill="none" xmlns="http://www.w3.org/2000/svg">
<path fill-rule="evenodd" clip-rule="evenodd" d="M10.1202 2.39951C11.1574 3.01089 11.9618 4.0309 12.3551 5.44139C12.3741 5.50958 12.4273 5.56361 12.4948 5.58494C15.5713 6.55707 16.6403 10.8351 14.0856 13.0784C13.2612 13.8249 12.1861 14.2416 11.0665 14.2332C10.5695 14.2295 10.1696 13.8236 10.1733 13.3266C10.177 12.8295 10.5829 12.4296 11.08 12.4333C11.7442 12.4383 12.3864 12.1905 12.8812 11.7407L12.8941 11.7292C14.4593 10.3602 13.6486 7.58296 11.6388 7.2251C11.6247 7.22258 11.6101 7.22167 11.5957 7.22255C11.3725 7.23625 11.156 7.29488 10.9495 7.39812C10.5049 7.62041 9.96429 7.44021 9.742 6.99563C9.51971 6.55105 9.69991 6.01044 10.1445 5.78815C10.2091 5.75584 10.2745 5.72557 10.3407 5.69737C10.4421 5.65414 10.4967 5.53999 10.4544 5.43817C10.1546 4.71602 9.70125 4.24202 9.20613 3.95016C8.48619 3.52578 7.58561 3.43266 6.73233 3.65636C5.87906 3.88005 5.13691 4.4039 4.71355 5.12917C4.37504 5.70909 4.20665 6.47484 4.40995 7.42972C4.42596 7.50491 4.48587 7.56222 4.5604 7.5811C4.80326 7.64259 5.0388 7.73128 5.26188 7.84492C5.70478 8.07055 5.88091 8.6125 5.65529 9.05539C5.42966 9.49829 4.88772 9.67442 4.44482 9.44879C4.22603 9.33734 3.9865 9.27974 3.75204 9.27986C1.79847 9.44226 1.78742 12.3013 3.77706 12.4425C4.27287 12.4776 4.64628 12.9081 4.61109 13.4039C4.57591 13.8997 4.14545 14.2731 3.64964 14.2379C-0.114692 13.9708 -0.533149 9.00133 2.46536 7.75351C2.55651 7.71557 2.61248 7.61953 2.59654 7.5221C2.39281 6.27704 2.61584 5.15229 3.15902 4.22175C3.85336 3.03224 5.02163 2.244 6.27587 1.91519C7.53008 1.58639 8.93408 1.70035 10.1202 2.39951ZM8.66383 11.4333C8.16677 11.4333 7.76383 11.8363 7.76383 12.3333C7.76383 12.8304 8.16677 13.2333 8.66383 13.2333H8.66983C9.16689 13.2333 9.56983 12.8304 9.56983 12.3333C9.56983 11.8363 9.16689 11.4333 8.66983 11.4333H8.66383ZM9.43033 10.3333C9.43033 9.83628 9.83328 9.43333 10.3303 9.43333H10.3363C10.8334 9.43333 11.2363 9.83628 11.2363 10.3333C11.2363 10.8304 10.8334 11.2333 10.3363 11.2333H10.3303C9.83328 11.2333 9.43033 10.8304 9.43033 10.3333ZM7.33033 9.43333C6.83328 9.43333 6.43033 9.83628 6.43033 10.3333C6.43033 10.8304 6.83328 11.2333 7.33033 11.2333H7.33633C7.83339 11.2333 8.23633 10.8304 8.23633 10.3333C8.23633 9.83628 7.83339 9.43333 7.33633 9.43333H7.33033ZM5.09695 12.3333C5.09695 11.8363 5.49989 11.4333 5.99695 11.4333H6.00295C6.5 11.4333 6.90295 11.8363 6.90295 12.3333C6.90295 12.8304 6.5 13.2333 6.00295 13.2333H5.99695C5.49989 13.2333 5.09695 12.8304 5.09695 12.3333ZM7.33044 13.4333C6.83339 13.4333 6.43044 13.8363 6.43044 14.3333C6.43044 14.8304 6.83339 15.2333 7.33044 15.2333H7.33644C7.8335 15.2333 8.23644 14.8304 8.23644 14.3333C8.23644 13.8363 7.8335 13.4333 7.33644 13.4333H7.33044Z" fill="url(#paint0_linear_596_135)"/>
<defs>
<linearGradient id="paint0_linear_596_135" x1="0.738202" y1="2.36535" x2="14.1041" y2="15.7646" gradientUnits="userSpaceOnUse">
<stop stop-color="#DEFCF2"/>
<stop offset="1" stop-color="#98E1FD"/>
</linearGradient>
</defs>
</svg>
