<svg width="16" height="16" viewBox="0 0 16 16" fill="none" xmlns="http://www.w3.org/2000/svg">
<path fill-rule="evenodd" clip-rule="evenodd" d="M4.40758 8.78146C4.33536 8.75736 4.27935 8.69728 4.2691 8.62184C4.16319 7.84208 4.45371 7.28306 4.86355 6.91974C5.42654 6.42066 6.27245 6.23766 6.97189 6.46266C7.44507 6.61487 7.95205 6.35468 8.10426 5.8815C8.25647 5.40832 7.99627 4.90134 7.5231 4.74913C6.20067 4.32374 4.69479 4.66389 3.6695 5.57281C2.82255 6.32363 2.33282 7.43336 2.47082 8.73826C2.48017 8.82667 2.43235 8.91201 2.35359 8.95327C0.219538 10.0712 0.617297 13.7553 3.48715 13.9642C3.5089 13.9658 3.5307 13.9666 3.55251 13.9666H8.77615C9.63484 13.972 10.4635 13.6547 11.0968 13.0758C12.0292 12.2497 12.3204 11.0836 12.1514 10.0386C12.0721 9.54789 11.61 9.21442 11.1193 9.29375C10.6286 9.37309 10.2952 9.83518 10.3745 10.3259C10.4596 10.8523 10.3097 11.3703 9.89976 11.7315L9.88569 11.7441C9.58763 12.0181 9.19526 12.1696 8.7859 12.1666C8.78589 12.1666 8.78588 12.1666 8.78588 12.1666V12.1666C8.78589 12.1666 8.78588 12.1666 8.78587 12.1666H8.77922H3.58992C2.53438 12.0637 2.54639 10.5651 3.56776 10.4437C3.57742 10.4425 3.58747 10.4422 3.59718 10.4427C3.72296 10.4499 3.84636 10.4827 3.96038 10.5397C4.40496 10.762 4.94557 10.5818 5.16786 10.1372C5.39015 9.69262 5.20995 9.15202 4.76536 8.92973C4.64941 8.87175 4.52985 8.82225 4.40758 8.78146Z" fill="url(#paint0_linear_596_162)"/>
<path d="M8.22255 5.70664C8.35055 7.53777 9.90434 9.02756 11.7639 9.10933C13.0759 9.16622 14.2493 8.55466 14.9533 7.5911C15.2448 7.19643 15.0884 6.93332 14.6013 7.02221C14.363 7.06487 14.1177 7.08265 13.8617 7.07198C12.123 7.00087 10.7008 5.54664 10.6937 3.82929C10.6901 3.36707 10.7861 2.92973 10.9603 2.5315C11.1523 2.09061 10.9212 1.88083 10.4768 2.06928C9.06878 2.66306 8.10521 4.08174 8.22255 5.70664Z" stroke="url(#paint1_linear_596_162)" stroke-width="1.3" stroke-linecap="round" stroke-linejoin="round"/>
<defs>
<linearGradient id="paint0_linear_596_162" x1="6.59845" y1="13.9666" x2="6.59845" y2="5.12028" gradientUnits="userSpaceOnUse">
<stop stop-color="#18AEFA"/>
<stop offset="1" stop-color="#83E1FF"/>
</linearGradient>
<linearGradient id="paint1_linear_596_162" x1="8.11334" y1="2.06999" x2="15.4495" y2="9.39043" gradientUnits="userSpaceOnUse">
<stop stop-color="#F9D423"/>
<stop offset="0.515624" stop-color="#FF4E50"/>
<stop offset="0.991304" stop-color="#8A2387"/>
</linearGradient>
</defs>
</svg>
