<svg width="16" height="16" viewBox="0 0 16 16" fill="none" xmlns="http://www.w3.org/2000/svg">
<path d="M14.647 5.66634C14.647 6.39967 14.307 7.05967 13.767 7.48634C13.2537 6.87301 12.5337 6.43967 11.647 6.32634C11.487 5.35967 11.1337 4.59967 10.667 4.02634V4.01967C11.087 3.59301 11.6737 3.33301 12.3137 3.33301C13.6003 3.33301 14.647 4.37967 14.647 5.66634Z" stroke="url(#paint0_linear_596_144)" stroke-width="1.8" stroke-miterlimit="10" stroke-linecap="round" stroke-linejoin="round"/>
<path fill-rule="evenodd" clip-rule="evenodd" d="M4.54052 7.60714C4.46615 7.58823 4.40649 7.53097 4.39054 7.45591C4.22424 6.67339 4.30676 6.02031 4.52119 5.49596C4.79555 4.82504 5.3157 4.29229 5.96958 3.9497C7.29097 3.25738 8.95265 3.41954 9.92661 4.53849C9.93993 4.55775 9.95403 4.57653 9.96889 4.5948C10.1611 4.83094 10.3351 5.11632 10.4763 5.45811C10.5184 5.56007 10.4636 5.6741 10.362 5.71721C10.2954 5.74551 10.2295 5.77592 10.1645 5.80841C9.71993 6.0307 9.53973 6.57131 9.76202 7.01589C9.98431 7.46047 10.5249 7.64067 10.9695 7.41838C11.1819 7.31218 11.4128 7.25216 11.6481 7.24143C11.6624 7.24078 11.6767 7.24186 11.6907 7.24454C12.2657 7.35467 12.731 7.65119 13.0767 8.06429C13.0767 8.06429 13.0767 8.0643 13.0767 8.0643V8.0643C13.0767 8.0643 13.0767 8.0643 13.0767 8.06431L13.0796 8.06771C13.9888 9.14318 14.0058 10.8244 12.9201 11.7767L12.9045 11.7907C12.413 12.2425 11.7667 12.4917 11.0936 12.4867C11.0936 12.4867 11.0936 12.4867 11.0936 12.4867V12.4867C11.0936 12.4867 11.0936 12.4867 11.0936 12.4867H11.0869H3.72919C1.75704 12.3148 1.77418 9.47384 3.72565 9.3003C3.97246 9.30668 4.21512 9.36724 4.43751 9.47844C4.88209 9.70073 5.4227 9.52053 5.64499 9.07595C5.86728 8.63137 5.68708 8.09076 5.2425 7.86847C5.01774 7.75609 4.78239 7.66862 4.54052 7.60714ZM2.85511 4.81464C2.52309 5.62657 2.41419 6.54845 2.5762 7.54328C2.59205 7.64063 2.53609 7.7365 2.44503 7.7744C-0.565765 9.02717 -0.148151 14.0093 3.62821 14.2843C3.64996 14.2859 3.67176 14.2867 3.69357 14.2867H11.0838C12.2059 14.2941 13.2882 13.8793 14.1149 13.123C16.0602 11.4086 15.8765 8.58977 14.4556 6.90731C13.9576 6.31284 13.3003 5.84842 12.5142 5.59926C12.4468 5.5779 12.3943 5.5242 12.3753 5.45613C12.1655 4.7047 11.8386 4.06139 11.421 3.52875C11.4024 3.50025 11.3822 3.47272 11.3604 3.4463C9.74051 1.48829 7.06474 1.34382 5.13422 2.35528C4.15143 2.87019 3.30908 3.70452 2.85511 4.81464Z" fill="url(#paint1_linear_596_144)"/>
<defs>
<linearGradient id="paint0_linear_596_144" x1="11.2362" y1="7.28952" x2="14.8678" y2="4.44211" gradientUnits="userSpaceOnUse">
<stop stop-color="#FFC025"/>
<stop offset="1" stop-color="#FFFF7F"/>
</linearGradient>
<linearGradient id="paint1_linear_596_144" x1="8.00217" y1="14.2868" x2="8.00217" y2="2.47643" gradientUnits="userSpaceOnUse">
<stop stop-color="#18AEFA"/>
<stop offset="1" stop-color="#83E1FF"/>
</linearGradient>
</defs>
</svg>
