<svg width="16" height="16" viewBox="0 0 16 16" fill="none" xmlns="http://www.w3.org/2000/svg">
<path fill-rule="evenodd" clip-rule="evenodd" d="M4.28469 7.60725C4.2103 7.58833 4.15063 7.53102 4.13471 7.45593C3.84258 6.07741 4.31334 5.06044 5.04425 4.41249C5.93643 3.62158 7.26978 3.33016 8.38828 3.68996C8.86146 3.84217 9.36844 3.58197 9.52065 3.1088C9.67286 2.63562 9.41267 2.12864 8.93949 1.97643C7.198 1.41623 5.20468 1.86481 3.85019 3.06556C2.67852 4.10424 2.01775 5.67318 2.3207 7.54296C2.33647 7.64028 2.2805 7.73609 2.18946 7.77394C-0.822185 9.02618 -0.404825 14.0092 3.37187 14.2842C3.39362 14.2857 3.41541 14.2865 3.43722 14.2865H10.8274C11.95 14.294 13.0327 13.8788 13.8596 13.122C15.0711 12.0497 15.454 10.5341 15.2323 9.16288C15.153 8.6722 14.6909 8.33873 14.2002 8.41806C13.7096 8.4974 13.3761 8.95949 13.4554 9.45017C13.5933 10.3029 13.3515 11.1706 12.6622 11.7779L12.6482 11.7906C12.1567 12.2423 11.5103 12.4915 10.8372 12.4866C10.8372 12.4866 10.8372 12.4865 10.8372 12.4865V12.4865C10.8372 12.4865 10.8372 12.4865 10.8372 12.4865H10.8306H3.47286C1.50101 12.3147 1.51783 9.47464 3.46835 9.30026C3.71549 9.3065 3.95849 9.36708 4.18117 9.47842C4.62575 9.70071 5.16635 9.52051 5.38864 9.07593C5.61093 8.63135 5.43073 8.09074 4.98615 7.86845C4.76155 7.75615 4.52638 7.66873 4.28469 7.60725ZM12.25 6.225C12.25 5.21702 13.0727 4.4 14.075 4.4C15.0784 4.4 15.9 5.22163 15.9 6.225C15.9 7.23299 15.0773 8.05 14.075 8.05H8.3C7.96863 8.05 7.7 7.78137 7.7 7.45C7.7 7.11863 7.96863 6.85 8.3 6.85H11.9442C12.1215 6.85 12.25 6.5773 12.25 6.4V6.4V6.225ZM13.45 6.4C13.45 6.5773 13.5785 6.85 13.7558 6.85H14.075C14.4167 6.85 14.7 6.56802 14.7 6.225C14.7 5.88437 14.4156 5.6 14.075 5.6C13.7333 5.6 13.45 5.88198 13.45 6.225V6.4V6.4ZM10.5585 3.4C9.70418 3.4 9.017 4.09358 9.017 4.9415V5.0745V5.0745C9.017 5.1777 8.9445 5.283 8.8413 5.283H8C7.66863 5.283 7.4 5.55163 7.4 5.883C7.4 6.21437 7.66863 6.483 8 6.483H10.5585C11.4128 6.483 12.1 5.78942 12.1 4.9415C12.1 4.08718 11.4064 3.4 10.5585 3.4ZM10.5585 5.283H10.3927C10.2895 5.283 10.217 5.1777 10.217 5.0745V5.0745V4.9415C10.217 4.75342 10.3698 4.6 10.5585 4.6C10.7466 4.6 10.9 4.75282 10.9 4.9415C10.9 5.12958 10.7472 5.283 10.5585 5.283Z" fill="url(#paint0_linear_596_169)"/>
<defs>
<linearGradient id="paint0_linear_596_169" x1="8.09985" y1="14.2866" x2="8.09985" y2="2.4755" gradientUnits="userSpaceOnUse">
<stop stop-color="#18AEFA"/>
<stop offset="1" stop-color="#83E1FF"/>
</linearGradient>
</defs>
</svg>
