<svg width="16" height="16" viewBox="0 0 16 16" fill="none" xmlns="http://www.w3.org/2000/svg">
<path fill-rule="evenodd" clip-rule="evenodd" d="M4.33018 8.0229C4.24242 8.01486 4.16686 7.95378 4.14939 7.8674C3.94969 6.87991 4.29204 6.17192 4.79987 5.72173C5.44226 5.15225 6.40573 4.94311 7.20625 5.20062C7.67943 5.35283 8.18641 5.09264 8.33862 4.61946C8.49083 4.14628 8.23063 3.6393 7.75746 3.48709C6.33395 3.02918 4.71051 3.39549 3.60581 4.37479C2.68073 5.19488 2.14973 6.41468 2.32555 7.85444C2.33666 7.94547 2.28659 8.03379 2.2043 8.07428C-0.139459 9.22757 0.26389 13.2233 3.35208 13.4481C3.37383 13.4497 3.39563 13.4505 3.41743 13.4505H9.16349C10.0859 13.4564 10.9758 13.1155 11.6559 12.4937C12.6556 11.6082 12.9689 10.3578 12.7873 9.23408C12.7079 8.7434 12.2458 8.40993 11.7552 8.48926C11.2645 8.5686 10.931 9.03069 11.0103 9.52137C11.1082 10.1265 10.9361 10.7288 10.4588 11.1494L10.4447 11.1621C10.1 11.4789 9.64638 11.654 9.1734 11.6505C9.1734 11.6505 9.17339 11.6505 9.17339 11.6505V11.6505C9.17339 11.6505 9.17338 11.6505 9.17338 11.6505H9.16672H3.45424C2.20624 11.5334 2.19119 9.78912 3.35514 9.58592C3.41119 9.57613 3.46754 9.59655 3.51316 9.63055C3.65902 9.73925 3.83912 9.80489 4.03489 9.80827C4.29971 9.81284 4.56031 9.87672 4.79873 9.99592C5.24331 10.2182 5.78392 10.038 6.00621 9.59343C6.2285 9.14885 6.0483 8.60825 5.60372 8.38596C5.20455 8.18637 4.77284 8.06346 4.33018 8.0229Z" fill="url(#paint0_linear_596_201)"/>
<path d="M14.6693 5.60102C14.6693 6.57562 14.2175 7.45277 13.4998 8.01981C12.977 8.44509 12.2948 8.70203 11.5683 8.70203C9.85831 8.70203 8.46729 7.31101 8.46729 5.60102C8.46729 4.75045 8.81283 3.97963 9.37987 3.42144V3.41259C9.93805 2.84554 10.7177 2.5 11.5683 2.5C13.2783 2.5 14.6693 3.89103 14.6693 5.60102Z" stroke="url(#paint1_linear_596_201)" stroke-width="1.8" stroke-miterlimit="10" stroke-linecap="round" stroke-linejoin="round"/>
<defs>
<linearGradient id="paint0_linear_596_201" x1="6.76793" y1="13.4505" x2="6.76793" y2="3.88909" gradientUnits="userSpaceOnUse">
<stop stop-color="#18AEFA"/>
<stop offset="1" stop-color="#83E1FF"/>
</linearGradient>
<linearGradient id="paint1_linear_596_201" x1="9.35432" y1="8.40813" x2="14.828" y2="3.92951" gradientUnits="userSpaceOnUse">
<stop stop-color="#FFC025"/>
<stop offset="1" stop-color="#FFFF7F"/>
</linearGradient>
</defs>
</svg>
