<svg width="16" height="16" viewBox="0 0 16 16" fill="none" xmlns="http://www.w3.org/2000/svg">
<path fill-rule="evenodd" clip-rule="evenodd" d="M0.561986 2.13729C0.81772 1.71106 1.37055 1.57285 1.79678 1.82859L3.46197 2.8277L3.46267 2.82812C4.20493 3.27121 5.13001 3.27107 5.87216 2.8277C7.18311 2.04454 8.81769 2.04454 10.1286 2.8277C10.8708 3.27108 11.7959 3.27121 12.5382 2.82809L12.5388 2.8277L14.204 1.82859C14.6302 1.57285 15.1831 1.71106 15.4388 2.13729C15.6945 2.56351 15.5563 3.11634 15.1301 3.37207L13.4634 4.37207L13.462 4.37296C12.151 5.15612 10.5164 5.15612 9.20549 4.37296C8.46311 3.92946 7.53769 3.92946 6.7953 4.37296C5.48435 5.15612 3.84977 5.15612 2.53883 4.37296L2.53735 4.37208L0.870684 3.37207C0.444461 3.11634 0.306253 2.56351 0.561986 2.13729ZM3.46267 8.50588L3.46197 8.5063L1.79678 9.50541C1.37055 9.76115 0.81772 9.62294 0.561986 9.19672C0.306253 8.7705 0.444461 8.21766 0.870684 7.96193L2.53735 6.96193L2.53883 6.96104C3.84977 6.17788 5.48435 6.17788 6.7953 6.96104C7.53769 7.40455 8.46311 7.40455 9.20549 6.96104C10.5164 6.17788 12.151 6.17788 13.462 6.96104L13.4634 6.96193L15.1301 7.96193C15.5563 8.21766 15.6945 8.7705 15.4388 9.19672C15.1831 9.62294 14.6302 9.76115 14.204 9.50541L12.5388 8.5063L12.5382 8.50591C11.7959 8.0628 10.8708 8.06293 10.1286 8.5063C8.81769 9.28946 7.18311 9.28946 5.87216 8.5063C5.13001 8.06293 4.20493 8.0628 3.46267 8.50588ZM3.46197 13.1728L3.46267 13.1724C4.20493 12.7293 5.13001 12.7294 5.87216 13.1728C7.18311 13.956 8.81769 13.956 10.1286 13.1728C10.8708 12.7294 11.7959 12.7293 12.5382 13.1724L12.5388 13.1728L14.204 14.1719C14.6302 14.4277 15.1831 14.2894 15.4388 13.8632C15.6945 13.437 15.5563 12.8842 15.1301 12.6284L13.4634 11.6284L13.462 11.6275C12.151 10.8444 10.5164 10.8444 9.20549 11.6275C8.46311 12.0711 7.53769 12.0711 6.7953 11.6275C5.48435 10.8444 3.84977 10.8444 2.53883 11.6275L2.53735 11.6284L0.870684 12.6284C0.444461 12.8842 0.306253 13.437 0.561986 13.8632C0.81772 14.2894 1.37055 14.4277 1.79678 14.1719L3.46197 13.1728Z" fill="url(#paint0_linear_596_140)"/>
<defs>
<linearGradient id="paint0_linear_596_140" x1="0.433594" y1="1.7002" x2="0.433594" y2="14.3003" gradientUnits="userSpaceOnUse">
<stop stop-color="white"/>
<stop offset="1" stop-color="#B5B5B5"/>
</linearGradient>
</defs>
</svg>
