<svg width="16" height="16" viewBox="0 0 16 16" fill="none" xmlns="http://www.w3.org/2000/svg">
<path fill-rule="evenodd" clip-rule="evenodd" d="M4.05081 7.45919C3.9769 7.43925 3.91801 7.3816 3.90309 7.30651C3.6585 6.07569 4.08536 5.17274 4.73654 4.59546C5.54742 3.87662 6.76039 3.61198 7.7754 3.93848C8.24858 4.09069 8.75556 3.8305 8.90777 3.35732C9.05998 2.88414 8.79979 2.37717 8.32661 2.22496C6.68861 1.69805 4.81567 2.11985 3.54249 3.24853C2.45117 4.21598 1.83263 5.6709 2.09307 7.39993C2.10746 7.49547 2.05322 7.58905 1.9647 7.62777C-0.828422 8.84955 -0.415118 13.5103 3.13726 13.7689C3.15901 13.7705 3.18081 13.7713 3.20261 13.7713H10.0577C11.1151 13.7782 12.135 13.3873 12.914 12.6744C14.0568 11.663 14.4171 10.2336 14.2084 8.94291C14.1291 8.45222 13.667 8.11876 13.1763 8.19809C12.6856 8.27742 12.3521 8.73951 12.4315 9.2302C12.5563 10.0023 12.3372 10.7836 11.7169 11.3302L11.7028 11.3429C11.2591 11.7507 10.6755 11.9758 10.0675 11.9713C10.0675 11.9713 10.0675 11.9713 10.0675 11.9713V11.9713C10.0675 11.9713 10.0675 11.9713 10.0675 11.9713H10.0609H3.23855C1.49182 11.8162 1.50888 9.30403 3.2336 9.14595C3.45198 9.15202 3.66668 9.20581 3.86359 9.30426C4.30817 9.52655 4.84877 9.34635 5.07106 8.90177C5.29335 8.45719 5.11315 7.91658 4.66857 7.69429C4.47032 7.59517 4.26337 7.51653 4.05081 7.45919Z" fill="url(#paint0_linear_596_178)"/>
<path d="M14.4023 7.49756C14.0547 7.81704 13.5983 7.99258 13.1244 7.98907H9.23096C7.59144 7.8697 7.58793 5.48239 9.23096 5.36302H9.24851C8.30061 2.71592 11.541 1.40991 12.9032 3.05646V3.05997C13.149 3.36189 13.335 3.76212 13.4193 4.27118C13.8862 4.33086 14.2654 4.55906 14.5357 4.88205C15.1501 5.60878 15.2028 6.79541 14.4023 7.49756Z" stroke="url(#paint1_linear_596_178)" stroke-width="1.5" stroke-miterlimit="10" stroke-linecap="round" stroke-linejoin="round"/>
<defs>
<linearGradient id="paint0_linear_596_178" x1="7.1994" y1="13.7714" x2="7.1994" y2="2" gradientUnits="userSpaceOnUse">
<stop stop-color="#5570FF"/>
<stop offset="1" stop-color="#4DD3FF"/>
</linearGradient>
<linearGradient id="paint1_linear_596_178" x1="11.5" y1="7.98912" x2="11.5" y2="2.32812" gradientUnits="userSpaceOnUse">
<stop stop-color="#5570FF"/>
<stop offset="1" stop-color="#4DD3FF"/>
</linearGradient>
</defs>
</svg>
