<svg width="16" height="16" viewBox="0 0 16 16" fill="none" xmlns="http://www.w3.org/2000/svg">
<path d="M12.0002 1.3335L12.412 2.15722C12.589 2.5112 12.6775 2.6882 12.7957 2.84157C12.9006 2.97767 13.0227 3.09968 13.1588 3.20459C13.3121 3.32281 13.4891 3.41131 13.8431 3.5883L14.6668 4.00016L13.8431 4.41202C13.4891 4.58902 13.3121 4.67751 13.1588 4.79574C13.0227 4.90065 12.9006 5.02266 12.7957 5.15875C12.6775 5.31213 12.589 5.48912 12.412 5.84311L12.0002 6.66683L11.5883 5.84311C11.4113 5.48912 11.3228 5.31213 11.2046 5.15875C11.0997 5.02266 10.9777 4.90065 10.8416 4.79574C10.6882 4.67751 10.5112 4.58902 10.1572 4.41202L9.3335 4.00016L10.1572 3.5883C10.5112 3.41131 10.6882 3.32281 10.8416 3.20459C10.9777 3.09968 11.0997 2.97767 11.2046 2.84157C11.3228 2.6882 11.4113 2.5112 11.5883 2.15722L12.0002 1.3335Z" stroke="url(#paint0_linear_596_108)" stroke-width="1.8" stroke-linecap="round" stroke-linejoin="round"/>
<path d="M14.0002 8.92636C13.1261 10.4595 11.4765 11.4932 9.58546 11.4932C6.78089 11.4932 4.50733 9.21961 4.50733 6.41505C4.50733 4.52385 5.54116 2.87412 7.0745 2.00016C3.85336 2.30558 1.3335 5.01811 1.3335 8.31919C1.3335 11.8249 4.17544 14.6668 7.68116 14.6668C10.9821 14.6668 13.6945 12.1472 14.0002 8.92636Z" stroke="url(#paint1_linear_596_108)" stroke-width="1.8" stroke-linecap="round" stroke-linejoin="round"/>
<defs>
<linearGradient id="paint0_linear_596_108" x1="1.14077" y1="1.46469" x2="14.8863" y2="15.6308" gradientUnits="userSpaceOnUse">
<stop stop-color="#F9D423"/>
<stop offset="0.515624" stop-color="#FF4E50"/>
<stop offset="0.991304" stop-color="#8A2387"/>
</linearGradient>
<linearGradient id="paint1_linear_596_108" x1="1.14077" y1="1.46469" x2="14.8863" y2="15.6308" gradientUnits="userSpaceOnUse">
<stop stop-color="#F9D423"/>
<stop offset="0.515624" stop-color="#FF4E50"/>
<stop offset="0.991304" stop-color="#8A2387"/>
</linearGradient>
</defs>
</svg>
