<svg width="16" height="16" viewBox="0 0 16 16" fill="none" xmlns="http://www.w3.org/2000/svg">
<path fill-rule="evenodd" clip-rule="evenodd" d="M4.54104 7.60725C4.46664 7.58833 4.40698 7.53102 4.39106 7.45592C4.09893 6.07741 4.56969 5.06044 5.3006 4.41249C6.19278 3.62158 7.52612 3.33016 8.64463 3.68996C9.11781 3.84217 9.62479 3.58197 9.777 3.1088C9.92921 2.63562 9.66901 2.12864 9.19584 1.97643C7.45434 1.41623 5.46103 1.86481 4.10654 3.06556C2.93487 4.10425 2.2741 5.67318 2.57705 7.54296C2.59282 7.64028 2.53685 7.73609 2.44581 7.77394C-0.565838 9.02618 -0.148477 14.0092 3.62822 14.2842C3.64996 14.2857 3.67176 14.2865 3.69357 14.2865H11.0838C12.2063 14.294 13.2891 13.8788 14.1159 13.122C15.3275 12.0497 15.7104 10.5341 15.4887 9.16288C15.4094 8.6722 14.9473 8.33873 14.4566 8.41806C13.9659 8.4974 13.6324 8.95949 13.7118 9.45017C13.8496 10.3029 13.6079 11.1706 12.9186 11.7779L12.9045 11.7906C12.413 12.2423 11.7667 12.4915 11.0936 12.4866C11.0936 12.4866 11.0936 12.4865 11.0936 12.4865V12.4865C11.0936 12.4865 11.0936 12.4865 11.0936 12.4865H11.0869H3.7292C1.75736 12.3147 1.77417 9.47464 3.7247 9.30026C3.97184 9.3065 4.21483 9.36708 4.43751 9.47842C4.88209 9.70071 5.4227 9.52051 5.64499 9.07593C5.86728 8.63135 5.68708 8.09074 5.2425 7.86845C5.0179 7.75615 4.78273 7.66873 4.54104 7.60725Z" fill="url(#paint0_linear_596_156)"/>
<path d="M10.0068 5.60554C10.0968 6.89271 11.189 7.93994 12.4962 7.99743C13.4184 8.03742 14.2432 7.60753 14.7381 6.9302C14.943 6.65277 14.8331 6.46782 14.4906 6.53031C14.3232 6.5603 14.1507 6.5728 13.9708 6.5653C12.7486 6.51531 11.7488 5.49307 11.7438 4.28588C11.7413 3.96096 11.8088 3.65354 11.9313 3.37362C12.0663 3.06369 11.9038 2.91623 11.5914 3.0487C10.6016 3.46609 9.92431 4.46334 10.0068 5.60554Z" stroke="url(#paint1_linear_596_156)" stroke-width="1.3" stroke-linecap="round" stroke-linejoin="round"/>
<defs>
<linearGradient id="paint0_linear_596_156" x1="8.0022" y1="14.2866" x2="8.0022" y2="2.4755" gradientUnits="userSpaceOnUse">
<stop stop-color="#18AEFA"/>
<stop offset="1" stop-color="#83E1FF"/>
</linearGradient>
<linearGradient id="paint1_linear_596_156" x1="9.93002" y1="3.0492" x2="15.0869" y2="8.19503" gradientUnits="userSpaceOnUse">
<stop stop-color="#F9D423"/>
<stop offset="0.515624" stop-color="#FF4E50"/>
<stop offset="0.991304" stop-color="#8A2387"/>
</linearGradient>
</defs>
</svg>
