<svg width="16" height="16" viewBox="0 0 16 16" fill="none" xmlns="http://www.w3.org/2000/svg">
<path fill-rule="evenodd" clip-rule="evenodd" d="M12.4948 5.58494C12.4273 5.56361 12.3741 5.50958 12.3551 5.44139C11.9618 4.0309 11.1574 3.01089 10.1202 2.39951C8.93408 1.70035 7.53008 1.58639 6.27587 1.91519C5.02163 2.244 3.85336 3.03224 3.15902 4.22175C2.6159 5.15218 2.39286 6.27678 2.59647 7.52165C2.6124 7.61908 2.55643 7.71512 2.46529 7.75305C-0.533143 9.00092 -0.114663 13.9703 3.64964 14.2374C4.14545 14.2726 4.57591 13.8992 4.61109 13.4034C4.64628 12.9076 4.27287 12.4771 3.77706 12.442C1.78742 12.3008 1.79847 9.44178 3.75204 9.27937C3.9865 9.27926 4.22603 9.33685 4.44482 9.44831C4.88772 9.67393 5.42966 9.4978 5.65529 9.0549C5.88091 8.61201 5.70478 8.07006 5.26188 7.84444C5.03877 7.73077 4.80319 7.64207 4.56029 7.58058C4.48575 7.56171 4.42584 7.50439 4.40984 7.42918C4.20671 6.47455 4.3751 5.70898 4.71355 5.12917C5.13691 4.4039 5.87906 3.88005 6.73233 3.65636C7.58561 3.43266 8.48619 3.52578 9.20613 3.95016C9.69232 4.23675 10.1382 4.69898 10.438 5.39934C10.4817 5.50141 10.4272 5.6168 10.3251 5.66032C10.258 5.68891 10.1916 5.71961 10.1261 5.75237C9.66177 5.98454 9.47356 6.54917 9.70573 7.01351C9.9379 7.47785 10.5025 7.66607 10.9669 7.4339C11.1907 7.32198 11.4262 7.26385 11.6694 7.25966C11.6915 7.25928 11.7134 7.25814 11.735 7.25626C11.7588 7.25421 11.7831 7.25527 11.8062 7.26113C13.6925 7.73873 14.4151 10.3989 12.8941 11.7292L12.8812 11.7407C12.3864 12.1905 11.7442 12.4383 11.08 12.4333C10.5829 12.4296 10.177 12.8295 10.1733 13.3266C10.1696 13.8236 10.5695 14.2295 11.0665 14.2332C12.1861 14.2416 13.2612 13.8249 14.0856 13.0784C16.6403 10.8351 15.5713 6.55707 12.4948 5.58494Z" fill="url(#paint0_linear_596_121)"/>
<path d="M6.28188 12.8324H6.71964C6.8301 12.8324 6.91964 12.9219 6.91964 13.0324V14.6986C6.91964 14.9709 7.19388 15.1071 7.33418 14.8988L8.89669 12.6642C9.08802 12.3919 9.00511 12.1676 8.71812 12.1676H8.28036C8.1699 12.1676 8.08036 12.0781 8.08036 11.9676V10.3014C8.08036 10.0291 7.80612 9.89292 7.66582 10.1012L6.10331 12.3358C5.91198 12.6081 5.99489 12.8324 6.28188 12.8324Z" fill="url(#paint1_linear_596_121)" stroke="url(#paint2_linear_596_121)" stroke-width="0.6" stroke-miterlimit="10" stroke-linecap="round" stroke-linejoin="round"/>
<defs>
<linearGradient id="paint0_linear_596_121" x1="8.00151" y1="14.2397" x2="8.00151" y2="2.47412" gradientUnits="userSpaceOnUse">
<stop stop-color="#18AEFA"/>
<stop offset="1" stop-color="#83E1FF"/>
</linearGradient>
<linearGradient id="paint1_linear_596_121" x1="6.42907" y1="14.7631" x2="9.99088" y2="13.0145" gradientUnits="userSpaceOnUse">
<stop stop-color="#FFC025"/>
<stop offset="1" stop-color="#FFFF7F"/>
</linearGradient>
<linearGradient id="paint2_linear_596_121" x1="6.42907" y1="14.7631" x2="9.99088" y2="13.0145" gradientUnits="userSpaceOnUse">
<stop stop-color="#FFC025"/>
<stop offset="1" stop-color="#FFFF7F"/>
</linearGradient>
</defs>
</svg>
