<svg width="16" height="16" viewBox="0 0 16 16" fill="none" xmlns="http://www.w3.org/2000/svg">
<g clip-path="url(#clip0_594_78)">
<path d="M13.7551 12.0107C12.8103 13.3672 11.4162 14.3459 9.81936 14.7737C8.22255 15.2015 6.5259 15.0509 5.02941 14.3485C3.53291 13.6462 2.33299 12.4372 1.6418 10.9355C0.950609 9.43385 0.812685 7.73612 1.25241 6.14257C1.69214 4.54898 2.68121 3.16223 4.04469 2.22751C5.40819 1.29279 7.05827 0.870306 8.7032 1.03477C10.3481 1.19924 11.8819 1.94006 13.0333 3.12623C14.1848 4.3124 14.8797 5.86752 14.9952 7.5166C15.1587 9.84656 11.0764 9.39504 9.6137 8.6734C10.6973 7.42785 9.92666 5.52997 7.84347 5.67553C6.48507 5.77051 5.5649 6.57622 5.67623 8.16818C5.8942 11.2742 9.13573 12.9985 13.7411 11.897M1.01713 8.49439C0.796823 5.34706 7.80301 2.86765 9.77329 6.40187M8.49504 14.9946C6.16511 15.158 4.47662 11.3163 5.71827 7.40608" stroke="url(#paint0_linear_594_78)" stroke-width="1.8" stroke-linecap="round" stroke-linejoin="round"/>
</g>
<defs>
<linearGradient id="paint0_linear_594_78" x1="8" y1="15.0124" x2="7.64938" y2="0.649705" gradientUnits="userSpaceOnUse">
<stop stop-color="#2AADFF"/>
<stop offset="1" stop-color="#CAFE4A"/>
</linearGradient>
<clipPath id="clip0_594_78">
<rect width="16" height="16" fill="white"/>
</clipPath>
</defs>
</svg>
