<svg width="16" height="16" viewBox="0 0 16 16" fill="none" xmlns="http://www.w3.org/2000/svg">
<path d="M8 1H3.00001C1.89544 1 1.00001 1.89543 1.00001 3L1 8" stroke="url(#paint0_linear_611_256)" stroke-width="1.8" stroke-linecap="round" stroke-linejoin="round"/>
<path d="M8 1L13 1.00001C14.1046 1.00001 15 1.89544 15 3.00001V8" stroke="url(#paint1_linear_611_256)" stroke-width="1.8" stroke-linecap="round" stroke-linejoin="round"/>
<path d="M8 15H13C14.1046 15 15 14.1046 15 13V8" stroke="url(#paint2_linear_611_256)" stroke-width="1.8" stroke-linecap="round" stroke-linejoin="round"/>
<path d="M8 15H3.00001C1.89544 15 1.00001 14.1046 1.00001 13L1 8" stroke="url(#paint3_linear_611_256)" stroke-width="1.8" stroke-linecap="round" stroke-linejoin="round"/>
<path fill-rule="evenodd" clip-rule="evenodd" d="M3.9999 3.8999C4.33127 3.8999 4.5999 4.16853 4.5999 4.4999V7.4999C4.5999 7.61901 4.62109 7.69124 4.6398 7.73257C4.65787 7.77252 4.68022 7.79854 4.70549 7.81865C4.76302 7.86442 4.8666 7.90043 4.99749 7.89991L5.01546 7.9001C5.15257 7.90366 5.24784 7.86655 5.29744 7.82565C5.32846 7.80006 5.3999 7.72855 5.3999 7.4999V4.4999C5.3999 4.16853 5.66853 3.8999 5.9999 3.8999C6.33127 3.8999 6.5999 4.16853 6.5999 4.4999V7.4999C6.5999 7.61901 6.62109 7.69124 6.6398 7.73257C6.65787 7.77252 6.68022 7.79854 6.70549 7.81865C6.76302 7.86442 6.8666 7.90043 6.99749 7.89991L7.01546 7.9001C7.15257 7.90366 7.24784 7.86655 7.29744 7.82565C7.32846 7.80006 7.3999 7.72855 7.3999 7.4999V4.4999C7.3999 4.16853 7.66853 3.8999 7.9999 3.8999C8.33127 3.8999 8.5999 4.16853 8.5999 4.4999V7.4999C8.5999 8.0286 8.41036 8.46329 8.06089 8.75147C7.73289 9.02194 7.33235 9.10705 6.99332 9.09991C6.69305 9.09965 6.3235 9.02585 6.00635 8.79427C5.68919 9.03099 5.31378 9.10666 4.99332 9.09991C4.67776 9.09964 4.2857 9.01814 3.95833 8.75766C3.60473 8.47631 3.3999 8.04394 3.3999 7.4999V4.4999C3.3999 4.16853 3.66853 3.8999 3.9999 3.8999ZM10.9278 9.08819C11.9892 9.08819 12.7238 8.54404 12.7238 7.56449L12.7243 7.53756C12.7243 6.69416 12.1528 6.34054 11.1732 6.06822C10.3298 5.85076 10.1119 5.74204 10.1119 5.41535V5.38793C10.1119 5.14304 10.3298 4.95252 10.7378 4.95252C11.0528 4.95252 11.3835 5.06582 11.7181 5.25492C11.888 5.35096 12.1068 5.3134 12.2187 5.15352L12.4008 4.89352C12.5067 4.74217 12.4803 4.53244 12.3248 4.43287C11.8814 4.14924 11.3508 3.9999 10.7647 3.9999C9.75775 3.9999 9.05051 4.57147 9.05051 5.46923V5.49666C9.05051 6.47621 9.70339 6.74804 10.6829 6.99292C11.4994 7.21038 11.6625 7.34654 11.6625 7.61836V7.6458C11.6625 7.94505 11.3906 8.10814 10.9553 8.10814C10.5058 8.10814 10.1242 7.95672 9.76971 7.72008C9.60709 7.61153 9.38572 7.63164 9.26162 7.78274L9.08008 8.00376C8.95765 8.15283 8.97542 8.37413 9.13348 8.48472C9.67538 8.86385 10.3016 9.06481 10.9278 9.08819ZM4.3334 10.4997H7.66674C8.12674 10.4997 8.50007 10.873 8.50007 11.333C8.50007 11.793 8.12674 12.1664 7.66674 12.1664H4.3334C3.8734 12.1664 3.50007 11.793 3.50007 11.333C3.50007 10.873 3.8734 10.4997 4.3334 10.4997Z" fill="url(#paint4_linear_611_256)"/>
<defs>
<linearGradient id="paint0_linear_611_256" x1="-3.5" y1="15" x2="9.5" y2="1" gradientUnits="userSpaceOnUse">
<stop stop-color="#02AA93"/>
<stop offset="0.140625" stop-color="#7EAA4B"/>
<stop offset="0.276042" stop-color="#FFB509"/>
<stop offset="0.677083" stop-color="#FFEE31"/>
<stop offset="0.807292" stop-color="#C7F350"/>
<stop offset="1" stop-color="#01E1A4"/>
</linearGradient>
<linearGradient id="paint1_linear_611_256" x1="11.5" y1="1" x2="11.5" y2="8" gradientUnits="userSpaceOnUse">
<stop stop-color="#00FFE0"/>
<stop offset="1" stop-color="#078AA7"/>
</linearGradient>
<linearGradient id="paint2_linear_611_256" x1="3.5" y1="22" x2="16.5" y2="8" gradientUnits="userSpaceOnUse">
<stop stop-color="#02AA93"/>
<stop offset="0.140625" stop-color="#7EAA4B"/>
<stop offset="0.276042" stop-color="#FFB509"/>
<stop offset="0.677083" stop-color="#FFEE31"/>
<stop offset="0.807292" stop-color="#C7F350"/>
<stop offset="1" stop-color="#01E1A4"/>
</linearGradient>
<linearGradient id="paint3_linear_611_256" x1="4.49999" y1="8" x2="4.49999" y2="15" gradientUnits="userSpaceOnUse">
<stop stop-color="#00FFE0"/>
<stop offset="1" stop-color="#078AA7"/>
</linearGradient>
<linearGradient id="paint4_linear_611_256" x1="8.0621" y1="3.8999" x2="8.0621" y2="12.1664" gradientUnits="userSpaceOnUse">
<stop stop-color="#00FFE0"/>
<stop offset="1" stop-color="#078AA7"/>
</linearGradient>
</defs>
</svg>
