<svg width="64" height="64" viewBox="0 0 64 64" fill="none" xmlns="http://www.w3.org/2000/svg">
<path d="M23.2722 46.0005H12.1643C9.99899 46.0005 7.92241 45.1404 6.39134 43.6093C4.86026 42.0782 4.00011 40.0016 4.00011 37.8364V25.5482C3.98978 22.3271 4.69604 19.144 6.06773 16.2295C7.43943 13.3151 9.44221 10.7422 11.931 8.69735C14.2905 6.73951 17.0612 5.33912 20.0369 4.60045C23.0126 3.86178 26.1165 3.80386 29.1177 4.431C33.2603 5.26433 37.0554 7.32716 40.0078 10.3503C42.9602 13.3734 44.9326 17.2163 45.6676 21.3774C46.2132 24.3133 46.0999 27.3337 45.3358 30.2204C44.5718 33.1071 43.1761 35.7881 41.2496 38.0696C39.012 40.6217 36.2436 42.6539 33.1383 44.0239C30.0329 45.3938 26.6656 46.0684 23.2722 46.0005ZM24.9446 11.0113C21.81 11.0049 18.7727 12.0996 16.363 14.1044C14.6861 15.5033 13.3366 17.2532 12.4096 19.2305C11.4827 21.2078 11.0008 23.3644 10.998 25.5482V37.8364C10.998 38.1457 11.1208 38.4423 11.3396 38.6611C11.5583 38.8798 11.8549 39.0027 12.1643 39.0027H23.2722C25.6461 39.0671 28.0054 38.6129 30.1857 37.6718C32.3661 36.7307 34.3149 35.3253 35.8963 33.5537C37.1597 32.0494 38.0731 30.2832 38.5705 28.3828C39.0679 26.4823 39.1369 24.4951 38.7724 22.5647C38.2596 19.8069 36.9395 17.2635 34.9794 15.2569C33.0193 13.2503 30.5075 11.8709 27.7624 11.2936C26.8346 11.1082 25.8908 11.0137 24.9446 11.0113ZM52.9406 26.8334C52.9375 26.8319 52.9347 26.83 52.932 26.8279C52.6473 26.5993 52.356 26.3791 52.0587 26.1674C51.4315 25.721 50.5933 26.1916 50.5365 26.9594C50.3995 28.8104 50.0536 30.6413 49.5045 32.4167C49.3921 32.7802 49.4865 33.1756 49.7422 33.4574C51.8113 35.7375 52.9712 38.7083 52.985 41.8018V51.832C52.985 52.1414 52.8621 52.438 52.6434 52.6567C52.4247 52.8755 52.128 52.9984 51.8187 52.9984H42.8148C40.9797 53.0393 39.1547 52.7159 37.4454 52.0468C35.9244 51.4515 34.5219 50.5929 33.3015 49.512C33.0227 49.2651 32.6357 49.1756 32.28 49.2858C30.5041 49.8362 28.6812 50.2185 26.8353 50.4281C26.093 50.5124 25.6623 51.3298 26.0973 51.9372C26.3454 52.2836 26.6059 52.6213 26.8784 52.9494C28.8607 55.2144 31.3141 57.0187 34.0669 58.236C36.8198 59.4532 39.8054 60.054 42.8148 59.9962H51.8187C53.984 59.9962 56.0605 59.136 57.5916 57.605C59.1227 56.0739 59.9828 53.9973 59.9828 51.832V41.8018C59.9932 38.9414 59.3671 36.1146 58.1499 33.5261C56.9335 30.9392 55.1571 28.6551 52.9495 26.8392C52.9467 26.8369 52.9437 26.835 52.9406 26.8334V26.8334Z" fill="url(#paint0_linear_914_23)"/>
<defs>
<linearGradient id="paint0_linear_914_23" x1="31.9915" y1="60" x2="31.9915" y2="4" gradientUnits="userSpaceOnUse">
<stop stop-color="#5570FF"/>
<stop offset="1" stop-color="#4DD3FF"/>
</linearGradient>
</defs>
</svg>
