<svg width="64" height="64" viewBox="0 0 64 64" fill="none" xmlns="http://www.w3.org/2000/svg">
<path d="M31.2648 3.99003C30.9468 3.99815 30.6336 4.06879 30.343 4.19792L12.4454 12.1606C12.1544 12.29 11.8919 12.4754 11.6727 12.7063C11.4535 12.9373 11.282 13.2091 11.168 13.5064L4.14079 31.7924C4.12592 31.8611 4.11406 31.9306 4.10523 32.0003C3.94006 32.5423 3.97007 33.125 4.19003 33.647L12.15 51.5446C12.2793 51.8355 12.4648 52.098 12.6957 52.3173C12.9267 52.5364 13.1986 52.708 13.4957 52.822L31.7818 59.8492C32.0788 59.9637 32.3955 60.0185 32.7137 60.0106C33.0319 60.0025 33.3455 59.9319 33.6364 59.8027L51.5367 51.84C52.1232 51.5782 52.5817 51.0941 52.8114 50.4942L59.8385 32.2082C59.8645 32.14 59.8874 32.0706 59.907 32.0003C60.0626 31.4549 60.022 30.8722 59.7921 30.3536L51.8294 12.4533C51.5675 11.8668 51.0834 11.4083 50.4836 11.1786L32.1976 4.15143C31.9003 4.03681 31.5833 3.98197 31.2648 3.99003Z" stroke="url(#paint0_linear_1011_549)" stroke-width="6"/>
<path d="M16.1335 19.4004C15.618 19.4004 15.2002 19.8182 15.2002 20.3337V43.2869V43.6671C15.2002 44.1825 15.618 44.6004 16.1335 44.6004H21.6807H21.8948C21.9088 44.6004 21.9202 44.589 21.9202 44.575C21.9202 44.5629 21.928 44.5526 21.9399 44.5502C22.471 44.4407 23.8711 44.0914 24.7355 43.2869L31.3643 37.1173C31.7226 36.7837 32.2778 36.7837 32.6361 37.1173L39.2649 43.2869C40.1293 44.0914 41.5293 44.4407 42.0605 44.5502C42.0724 44.5527 42.0802 44.563 42.0802 44.575C42.0802 44.589 42.0916 44.6004 42.1056 44.6004H42.3197H47.8669C48.3823 44.6004 48.8002 44.1825 48.8002 43.6671V43.2869V20.3337C48.8002 19.8182 48.3823 19.4004 47.8669 19.4004H41.3335C40.8181 19.4004 40.4002 19.8182 40.4002 20.3337V31.6533C40.4002 32.5098 39.343 32.914 38.7716 32.276L32.6954 25.4915C32.3245 25.0773 31.6759 25.0773 31.305 25.4915L25.2288 32.276C24.6574 32.914 23.6002 32.5098 23.6002 31.6533V20.3337C23.6002 19.8182 23.1823 19.4004 22.6669 19.4004H16.1335Z" fill="url(#paint1_linear_1011_549)"/>
<defs>
<linearGradient id="paint0_linear_1011_549" x1="49.8656" y1="3.98925" x2="3.97853" y2="59.9939" gradientUnits="userSpaceOnUse">
<stop stop-color="#DE00C0"/>
<stop offset="1" stop-color="#8720FF"/>
</linearGradient>
<linearGradient id="paint1_linear_1011_549" x1="42.7196" y1="19.4004" x2="23.9416" y2="49.9701" gradientUnits="userSpaceOnUse">
<stop stop-color="#DE00C0"/>
<stop offset="1" stop-color="#8720FF"/>
</linearGradient>
</defs>
</svg>
