<svg width="128" height="128" viewBox="0 0 128 128" fill="none" xmlns="http://www.w3.org/2000/svg">
<path d="M77.0538 6.0941V6H76.1615H9.23846C6.89767 6 5 7.89769 5 10.2385V43.7C5 63.0565 19.6612 79.047 38.4615 81.1603V113.523H22.6231C20.2823 113.523 18.3846 115.421 18.3846 117.762C18.3846 120.102 20.2823 122 22.6231 122H62.7769C65.1177 122 67.0154 120.102 67.0154 117.762C67.0154 115.421 65.1177 113.523 62.7769 113.523H46.9385V81.1603C65.7389 79.047 80.4 63.0565 80.4 43.7V10.2385C80.4 8.20379 78.9661 6.50389 77.0538 6.0941ZM45.7551 14.4769H71.9231V43.7C71.9231 59.8128 58.8128 72.9231 42.7 72.9231C26.5872 72.9231 13.4769 59.8128 13.4769 43.7V14.4769H36.8193L31.9866 28.975C31.5561 30.2675 31.7726 31.6884 32.5692 32.7935C33.3657 33.8985 34.645 34.5538 36.0077 34.5538H43.5116L38.6789 49.0518C37.9386 51.2725 39.139 53.6729 41.3595 54.4132C43.5805 55.1532 45.9806 53.9532 46.7209 51.7326L53.4132 31.6556C53.8439 30.363 53.6272 28.9422 52.8306 27.837C52.0341 26.732 50.7549 26.0769 49.3923 26.0769H41.8884L45.7551 14.4769Z" fill="url(#paint0_linear_921_8)" stroke="url(#paint1_linear_921_8)" stroke-width="2"/>
<path fill-rule="evenodd" clip-rule="evenodd" d="M122.333 76.5C122.333 74.567 120.766 73 118.833 73H110.023C108.548 68.8172 104.602 66.0142 100.167 66H93.1667C88.7317 66.0142 84.7851 68.8172 83.3107 73H74.5C72.567 73 71 74.567 71 76.5C71 78.433 72.567 80 74.5 80H75.6667V109.167C75.6667 116.254 81.4124 122 88.5 122H104.833C111.921 122 117.667 116.254 117.667 109.167V80H118.833C120.766 80 122.333 78.433 122.333 76.5ZM110.667 109.167C110.667 112.388 108.055 115 104.833 115H88.5C85.2784 115 82.6667 112.388 82.6667 109.167V80H110.667V109.167ZM90.833 108C92.766 108 94.333 106.433 94.333 104.5V90.5C94.333 88.567 92.766 87 90.833 87C88.9 87 87.333 88.567 87.333 90.5V104.5C87.333 106.433 88.9 108 90.833 108ZM106 104.5C106 106.433 104.433 108 102.5 108C100.567 108 99 106.433 99 104.5V90.5C99 88.567 100.567 87 102.5 87C104.433 87 106 88.567 106 90.5V104.5Z" fill="url(#paint2_linear_921_8)"/>
<defs>
<linearGradient id="paint0_linear_921_8" x1="42.7" y1="122" x2="42.7" y2="6" gradientUnits="userSpaceOnUse">
<stop stop-color="#FD3A84"/>
<stop offset="1" stop-color="#FFA68D"/>
</linearGradient>
<linearGradient id="paint1_linear_921_8" x1="42.7" y1="122" x2="42.7" y2="6" gradientUnits="userSpaceOnUse">
<stop stop-color="#FD3A84"/>
<stop offset="1" stop-color="#FFA68D"/>
</linearGradient>
<linearGradient id="paint2_linear_921_8" x1="120.599" y1="67.6006" x2="97.3752" y2="121.056" gradientUnits="userSpaceOnUse">
<stop stop-color="#FE0F7C"/>
<stop offset="1" stop-color="#DF0066"/>
</linearGradient>
</defs>
</svg>
