<svg width="64" height="64" viewBox="0 0 64 64" fill="none" xmlns="http://www.w3.org/2000/svg">
<path fill-rule="evenodd" clip-rule="evenodd" d="M24.1592 29.574L24.8898 30.1753C24.4993 30.1526 24.0936 30.2919 23.7811 30.5582C22.0243 32.0554 19.2705 33.2 17.8234 33.7372C17.2669 33.9438 16.9128 34.4993 16.8985 35.0927C16.8253 38.1278 15.3509 42.7775 14.1726 46.0472C13.9887 46.5576 13.4597 46.8427 12.9807 47.1008L12.9605 47.1118C12.7674 47.2158 12.5942 47.3586 12.4528 47.5345C12.1536 47.9081 12.0423 48.3713 12.1062 48.8102C12.2054 49.4903 13.0588 49.4298 13.4884 48.8933L21.7279 38.6051C22.0058 38.2582 22.0395 37.7841 22.067 37.3404C22.0877 37.005 22.21 36.6781 22.4264 36.4071C22.9988 35.6923 24.0417 35.5769 24.7566 36.1495C25.4714 36.722 25.5868 37.7648 25.0142 38.4797C24.7971 38.75 24.505 38.9405 24.1826 39.0339C23.7556 39.1574 23.3002 39.2938 23.0224 39.6408L16.077 48.3131L14.7818 49.928C14.3514 50.4643 14.4789 51.3109 15.1646 51.2587C15.6063 51.2249 16.0337 51.0151 16.3327 50.6418C16.4732 50.4657 16.5744 50.2657 16.6335 50.0547L16.6391 50.0346C16.786 49.5103 16.9482 48.9307 17.4064 48.6395C20.3412 46.7738 24.5612 44.3171 27.5076 43.584C28.0813 43.4413 28.5451 42.9776 28.6276 42.3921C28.8421 40.8685 29.3693 37.9394 30.4507 35.8998C30.6171 35.586 30.6751 35.2246 30.6182 34.8894L31.3685 35.5067C31.8991 35.9435 32.6834 35.8674 33.12 35.3366L52.3509 11.9681C52.7877 11.4373 52.7116 10.6531 52.1808 10.2164L44.9715 4.28358C44.4409 3.84685 43.6566 3.92302 43.2198 4.45372L23.9889 27.8223C23.5522 28.353 23.6284 29.1373 24.1592 29.574ZM12.0888 52.5333H51.911C53.9729 52.5333 55.6444 54.2047 55.6444 56.2667C55.6444 58.3286 53.9729 60 51.911 60H12.0888C10.0269 60 8.35547 58.3286 8.35547 56.2667C8.35547 54.2047 10.0269 52.5333 12.0888 52.5333Z" fill="url(#paint0_linear_1005_177)"/>
<defs>
<linearGradient id="paint0_linear_1005_177" x1="31.9999" y1="60" x2="31.9999" y2="4.00001" gradientUnits="userSpaceOnUse">
<stop stop-color="#5570FF"/>
<stop offset="1" stop-color="#4DD3FF"/>
</linearGradient>
</defs>
</svg>
