<svg width="64" height="64" viewBox="0 0 64 64" fill="none" xmlns="http://www.w3.org/2000/svg">
<path d="M31.8037 6.54102C25.7614 6.54102 21.4909 9.2812 19.6089 10.7779C18.9361 11.313 18.8018 12.2398 19.2022 13.0006L25.099 24.2057C25.6611 25.2738 27.035 25.5864 28.1513 25.1274C29.3666 24.6276 30.674 24.365 32.0025 24.3622C33.2404 24.3647 34.4611 24.5928 35.6067 25.0291C36.7091 25.449 38.0379 25.1247 38.5877 24.081L44.4228 13.0044C44.8244 12.242 44.6889 11.3129 44.0136 10.7777C42.1249 9.28074 37.8432 6.54102 31.8037 6.54102ZM32.0023 29.4539C29.1916 29.4539 26.9105 31.735 26.9105 34.5457C26.9105 37.3589 29.1916 39.6374 32.0023 39.6374C34.8155 39.6374 37.094 37.3589 37.094 34.5457C37.094 31.7325 34.8155 29.4539 32.0023 29.4539ZM21.9406 36.47C21.6884 35.3789 20.7559 34.5005 19.6377 34.5603L5.94654 35.2923C5.12019 35.3365 4.4111 35.8851 4.26642 36.6998C3.85753 39.0024 3.50574 43.9632 6.54391 49.0168C9.61314 54.1224 14.3198 56.2919 16.5701 57.0772C17.3378 57.345 18.1541 57.0202 18.6117 56.3481L26.034 45.447C26.6822 44.4951 26.3821 43.2002 25.5205 42.436C25.2548 42.2003 24.9986 41.9522 24.7519 41.6928C24.6208 41.5556 24.4935 41.4147 24.3702 41.2704C24.2605 41.1407 24.141 41.0207 24.0365 40.8859C24.0331 40.8824 24.0296 40.879 24.0262 40.8756C23.7704 40.5474 23.5349 40.2039 23.321 39.847C23.2981 39.8113 23.2676 39.7808 23.2472 39.7426C23.2014 39.6688 23.1734 39.5924 23.1326 39.5186C23.014 39.3088 22.9029 39.0949 22.7994 38.8773C22.4159 38.0936 22.1294 37.2866 21.9406 36.47Z" fill="url(#paint0_linear_1005_319)"/>
<path d="M41.9975 36.4807C42.1783 35.7401 42.3007 34.9892 42.3259 34.2434C42.3262 34.2435 42.326 34.2431 42.3259 34.2434C42.3252 34.2431 42.325 34.2415 42.3258 34.2415L59.4154 35.1499C59.4178 35.1501 59.4197 35.1521 59.4197 35.1545C59.4196 35.154 59.4197 35.155 59.4197 35.1545C59.4247 35.1695 61.6122 41.8817 57.462 48.7859C54.3934 53.891 49.6815 56.0713 47.4279 56.8623C46.6591 57.1321 45.8405 56.8074 45.382 56.134L38.0452 45.3587C37.3759 44.3757 37.7238 43.038 38.6262 42.2635C39.1427 41.8201 39.6149 41.3249 40.0349 40.7845C40.912 39.6558 41.5416 38.3551 41.8829 36.967C41.8983 36.9135 41.9081 36.8601 41.9211 36.8092C41.9484 36.7001 41.9739 36.5906 41.9975 36.4807Z" fill="url(#paint1_linear_1005_319)"/>
<defs>
<linearGradient id="paint0_linear_1005_319" x1="24.5477" y1="57.4595" x2="24.5477" y2="6.54102" gradientUnits="userSpaceOnUse">
<stop stop-color="#FDA700"/>
<stop offset="1" stop-color="#FFDE00"/>
</linearGradient>
<linearGradient id="paint1_linear_1005_319" x1="48.3961" y1="57.2482" x2="48.3961" y2="34.2413" gradientUnits="userSpaceOnUse">
<stop stop-color="#FDA700"/>
<stop offset="1" stop-color="#FFDE00"/>
</linearGradient>
</defs>
</svg>
