<svg width="16" height="16" viewBox="0 0 16 16" fill="none" xmlns="http://www.w3.org/2000/svg">
<path d="M14.659 5.60651C14.9289 6.35048 15.0774 7.1528 15.0802 7.99056V8.01506C15.0802 8.86174 14.9315 9.67251 14.659 10.4237C14.4695 10.946 14.2201 11.4401 13.9183 11.8974L13.9179 11.8982C13.7917 12.09 13.6559 12.2757 13.5114 12.4544C13.0492 13.026 12.4996 13.5242 11.8824 13.9286L11.8822 13.9287C11.6548 14.0779 11.4188 14.214 11.1747 14.3359L11.174 14.3362C10.2247 14.812 9.1522 15.0802 8.0152 15.0802C6.87812 15.0802 5.80566 14.812 4.85632 14.3362L4.8557 14.3359C4.61147 14.2139 4.37512 14.0778 4.14784 13.9287C3.52259 13.5187 2.96638 13.0126 2.50046 12.4316L2.50015 12.4312C2.35588 12.2516 2.22034 12.0643 2.0939 11.8702L2.09358 11.8698C1.80003 11.4202 1.55695 10.9353 1.37113 10.423L1.37111 10.4228C1.0987 9.67205 0.950195 8.86167 0.950195 8.0152C0.950195 4.12248 4.10418 0.950195 8.0152 0.950195C9.97711 0.950195 11.7498 1.74909 13.0294 3.03798L13.0295 3.03805C13.3981 3.40923 13.7256 3.82117 14.0041 4.26603L14.0046 4.26685C14.2679 4.68577 14.4878 5.13448 14.659 5.60641L14.659 5.60651Z" stroke="url(#paint0_linear_659_158)" stroke-width="1.8"/>
<path fill-rule="evenodd" clip-rule="evenodd" d="M5.86365 11.6844C5.86365 11.8474 5.79534 12.0044 5.67498 12.1182C5.55137 12.2352 5.38548 12.2998 5.21308 12.2998C5.04067 12.2998 4.87478 12.2352 4.75442 12.1182C4.63406 12.0044 4.5625 11.8474 4.5625 11.6844V8.18443C4.5625 7.90829 4.78636 7.68443 5.0625 7.68443H9.76381C9.83212 7.68137 9.90369 7.67518 9.972 7.66287C10.1477 7.64137 10.3201 7.59205 10.4794 7.52437C10.6421 7.45668 10.7853 7.35212 10.8926 7.2198C10.9446 7.14905 10.9869 7.06905 11.0129 6.98593C11.052 6.86287 11.0715 6.73362 11.0682 6.60749C11.0715 6.47824 11.052 6.34904 11.0129 6.22595C10.9869 6.14287 10.9446 6.06287 10.8926 5.99211C10.7853 5.8598 10.6421 5.75519 10.4794 5.68749C10.3201 5.6198 10.1477 5.57057 9.972 5.54904C9.90369 5.53673 9.83212 5.53057 9.76381 5.53057H5.21308C5.04067 5.53057 4.87478 5.46595 4.75442 5.34904C4.63406 5.23519 4.5625 5.07827 4.5625 4.91519C4.5625 4.75211 4.63406 4.59519 4.75442 4.47827C4.87478 4.36442 5.04067 4.2998 5.21308 4.2998H9.76706C9.77031 4.2998 9.77687 4.2998 9.78012 4.2998C9.91019 4.2998 10.0436 4.31211 10.1737 4.33365C10.4632 4.37365 10.7429 4.45057 11.0097 4.56442C11.3772 4.71519 11.6961 4.95827 11.94 5.26288C12.0799 5.4475 12.1873 5.65057 12.2588 5.86904C12.3336 6.10903 12.3726 6.35519 12.3694 6.60749C12.3726 6.85674 12.3336 7.10593 12.2588 7.34287C12.1873 7.56137 12.0799 7.76749 11.94 7.94905C11.6961 8.25362 11.3772 8.49668 11.0097 8.65055C10.7429 8.76137 10.4632 8.83824 10.1737 8.8813C10.0436 8.8998 9.91019 8.91212 9.78012 8.91518C9.77687 8.91518 9.77031 8.91518 9.76706 8.91518H6.36365C6.08751 8.91518 5.86365 9.13904 5.86365 9.41518V11.6844Z" fill="url(#paint1_linear_659_158)" stroke="url(#paint2_linear_659_158)" stroke-width="0.8"/>
<defs>
<linearGradient id="paint0_linear_659_158" x1="3.51126" y1="13.4121" x2="16.2531" y2="2.2945" gradientUnits="userSpaceOnUse">
<stop stop-color="#FE0844"/>
<stop offset="1" stop-color="#FEB302"/>
</linearGradient>
<linearGradient id="paint1_linear_659_158" x1="5.97753" y1="11.3554" x2="13.1657" y2="5.2348" gradientUnits="userSpaceOnUse">
<stop stop-color="#FE0844"/>
<stop offset="1" stop-color="#FEB302"/>
</linearGradient>
<linearGradient id="paint2_linear_659_158" x1="5.97753" y1="11.3554" x2="13.1657" y2="5.2348" gradientUnits="userSpaceOnUse">
<stop stop-color="#FE0844"/>
<stop offset="1" stop-color="#FEB302"/>
</linearGradient>
</defs>
</svg>
