<svg width="17" height="16" viewBox="0 0 17 16" fill="none" xmlns="http://www.w3.org/2000/svg">
<g clip-path="url(#clip0_658_152)">
<path d="M14.8154 5.62724C15.0864 6.36006 15.2355 7.1504 15.2383 7.97563V7.99978C15.2383 8.8338 15.089 9.63243 14.8153 10.3724C14.6251 10.8869 14.3746 11.3736 14.0716 11.8241L14.0711 11.8249C13.9445 12.0138 13.8081 12.1968 13.663 12.3728C13.1988 12.9358 12.647 13.4265 12.0272 13.8249L12.027 13.825C11.7986 13.972 11.5616 14.1061 11.3165 14.2262L11.3159 14.2264C10.3626 14.6951 9.2856 14.9593 8.14384 14.9593C7.00201 14.9593 5.92506 14.6951 4.97175 14.2264L4.97113 14.2262C4.72588 14.1059 4.48855 13.9718 4.26031 13.825C3.63245 13.4211 3.07392 12.9227 2.60605 12.3503L2.60574 12.3499C2.46087 12.173 2.32477 11.9885 2.1978 11.7973L2.19748 11.7969C1.9027 11.354 1.65861 10.8764 1.47201 10.3717L1.47198 10.3715C1.19844 9.63199 1.04932 8.83372 1.04932 7.99992C1.04932 4.16539 4.21647 1.04053 8.14384 1.04053C10.1139 1.04053 11.894 1.82748 13.179 3.0971L13.1791 3.09717C13.5492 3.4628 13.8781 3.86858 14.1577 4.30679L14.1583 4.3076C14.4226 4.72025 14.6435 5.16226 14.8153 5.62714L14.8154 5.62724Z" stroke="url(#paint0_linear_658_152)" stroke-width="1.8"/>
<path fill-rule="evenodd" clip-rule="evenodd" d="M9.41434 8.57032C9.48634 8.57032 9.55834 8.57631 9.63034 8.5882C9.80713 8.61198 9.98061 8.65659 10.141 8.72492C10.3046 8.78741 10.4487 8.88845 10.5567 9.01926C10.6091 9.08766 10.6516 9.16492 10.6778 9.24521C10.7171 9.36413 10.7367 9.486 10.7335 9.6109C10.7367 9.73573 10.7171 9.8576 10.6778 9.97652C10.6516 10.0568 10.6091 10.1341 10.5567 10.2025C10.4487 10.3333 10.3046 10.4344 10.141 10.4968C9.98061 10.5652 9.80713 10.6098 9.63034 10.6336C9.56166 10.6455 9.48958 10.6514 9.4209 10.6514H4.84157C4.66808 10.6514 4.50115 10.7139 4.38003 10.8268C4.25892 10.9368 4.18692 11.0885 4.18692 11.246C4.18692 11.4036 4.25892 11.5552 4.38003 11.6652C4.50115 11.7782 4.66808 11.8406 4.84157 11.8406H9.42414C9.42746 11.8406 9.43394 11.8406 9.43726 11.8406C9.56814 11.8376 9.70241 11.8287 9.83329 11.8079C10.1246 11.7692 10.4061 11.6949 10.6745 11.585C11.0444 11.4363 11.3652 11.2044 11.6107 10.9101C11.7514 10.7317 11.8595 10.5325 11.9315 10.3244C12.0068 10.0925 12.0461 9.85169 12.0427 9.6109C12.0461 9.37011 12.0068 9.12924 11.9315 8.89739C11.8595 8.68924 11.7514 8.49004 11.6107 8.31166C11.3652 8.01739 11.0444 7.78546 10.6745 7.63685C10.4061 7.52686 10.1246 7.45249 9.83329 7.41386C9.70241 7.39303 9.56814 7.38416 9.43726 7.38114C9.42904 7.38114 9.42054 7.38114 9.41239 7.38114H6.87263C6.85169 7.37905 6.83041 7.37818 6.8088 7.37818C6.73679 7.37523 6.66478 7.36924 6.59277 7.35735C6.41601 7.33659 6.24253 7.28896 6.08214 7.22359C5.91848 7.15818 5.77445 7.0571 5.66643 6.92926C5.61406 6.86088 5.57151 6.78359 5.54532 6.70331C5.50604 6.58439 5.4864 6.45953 5.48968 6.33764C5.4864 6.21278 5.50604 6.08791 5.54532 5.96899C5.57151 5.88872 5.61406 5.81143 5.66643 5.74305C5.77445 5.6152 5.91848 5.51413 6.08214 5.44872C6.24253 5.38332 6.41601 5.33575 6.59277 5.31494C6.66151 5.30305 6.73352 5.2971 6.80226 5.2971H11.3815C11.555 5.2971 11.722 5.23466 11.8431 5.12169C11.9642 5.01169 12.0363 4.86007 12.0363 4.7025C12.0363 4.54494 11.9642 4.39332 11.8431 4.28034C11.722 4.17035 11.555 4.10791 11.3815 4.10791H6.79899C6.79571 4.10791 6.78916 4.10791 6.78589 4.10791C6.65496 4.10791 6.52075 4.1198 6.38983 4.14062C6.09851 4.17926 5.81701 4.25359 5.5486 4.36359C5.17871 4.50927 4.85794 4.74413 4.61244 5.03845C4.47169 5.21683 4.36367 5.41305 4.29166 5.62413C4.21637 5.85602 4.17709 6.09386 4.18036 6.33764C4.17709 6.57845 4.21637 6.81926 4.29166 7.04818C4.36367 7.25926 4.47169 7.45847 4.61244 7.63389C4.85794 7.92816 5.17871 8.16305 5.5486 8.31166C5.81701 8.41869 6.09851 8.49306 6.38983 8.53465C6.52075 8.55252 6.65496 8.56441 6.78589 8.56737C6.79014 8.56737 6.7944 8.56737 6.79899 8.56737L6.80226 8.57032H9.41434Z" fill="url(#paint1_linear_658_152)" stroke="url(#paint2_linear_658_152)" stroke-width="0.8"/>
</g>
<defs>
<linearGradient id="paint0_linear_658_152" x1="8.14384" y1="15.4998" x2="8.14384" y2="0.499987" gradientUnits="userSpaceOnUse">
<stop stop-color="#02AA93"/>
<stop offset="1" stop-color="#67FF80"/>
</linearGradient>
<linearGradient id="paint1_linear_658_152" x1="8.11156" y1="11.8406" x2="8.11156" y2="4.10791" gradientUnits="userSpaceOnUse">
<stop stop-color="#02AA93"/>
<stop offset="1" stop-color="#67FF80"/>
</linearGradient>
<linearGradient id="paint2_linear_658_152" x1="8.11156" y1="11.8406" x2="8.11156" y2="4.10791" gradientUnits="userSpaceOnUse">
<stop stop-color="#02AA93"/>
<stop offset="1" stop-color="#67FF80"/>
</linearGradient>
<clipPath id="clip0_658_152">
<rect width="16.2883" height="16" fill="white"/>
</clipPath>
</defs>
</svg>
