<svg width="17" height="16" viewBox="0 0 17 16" fill="none" xmlns="http://www.w3.org/2000/svg">
<g clip-path="url(#clip0_659_155)">
<path fill-rule="evenodd" clip-rule="evenodd" d="M6.95376 10.2148C6.95376 9.91661 7.21575 9.67438 7.53842 9.67438C7.8608 9.67438 8.12278 9.91661 8.12278 10.2148V12.1065C8.12278 12.2442 8.06714 12.3738 7.96501 12.4739C7.86555 12.5737 7.72544 12.6362 7.57914 12.6468C7.36876 12.6603 7.15566 12.6631 6.94528 12.6603C6.76984 12.655 6.59745 12.644 6.42201 12.6198C6.22622 12.5954 6.03347 12.5549 5.84344 12.4981C5.67988 12.4523 5.52209 12.3873 5.37312 12.3092C5.20955 12.2226 5.06059 12.1171 4.92892 11.9957C4.7976 11.8768 4.68935 11.739 4.6018 11.5902C4.50814 11.4337 4.43824 11.2632 4.39718 11.0903C4.34763 10.8904 4.32422 10.6877 4.32422 10.485C4.32422 10.2825 4.34763 10.077 4.39718 9.87993C4.44095 9.70422 4.50814 9.53413 4.6018 9.37434C4.6924 9.22595 4.80337 9.09067 4.93197 8.96922C5.06635 8.8475 5.21533 8.74234 5.38194 8.65571C5.52514 8.58011 5.67716 8.51798 5.83496 8.47214C6.01888 8.41787 6.20586 8.38018 6.39283 8.35322C6.57099 8.32872 6.74948 8.31524 6.92763 8.31272C7.13802 8.3071 7.34843 8.30991 7.55881 8.32339H9.57784C9.63932 8.32339 9.69762 8.31524 9.756 8.30458C9.81438 8.29362 9.87276 8.28007 9.9284 8.25845C9.99867 8.23431 10.0658 8.20166 10.13 8.16396C10.1856 8.13168 10.2382 8.0965 10.2878 8.05607C10.3376 8.01528 10.3814 7.97225 10.4194 7.9236C10.4632 7.87214 10.5012 7.81816 10.5331 7.76137C10.6034 7.63964 10.656 7.51001 10.6852 7.37507C10.7319 7.15603 10.7554 6.93196 10.7523 6.70758C10.7496 6.49419 10.7204 6.28048 10.6679 6.07525C10.6298 5.93215 10.5711 5.79972 10.4924 5.67263C10.4252 5.56468 10.3404 5.46739 10.2409 5.3836C10.133 5.28884 10.0102 5.2107 9.87889 5.14856C9.83204 5.1269 9.78253 5.11059 9.72991 5.10243C9.68004 5.08894 9.63045 5.08078 9.57784 5.08078H8.12278V6.24264C8.12278 6.54076 7.8608 6.78299 7.53842 6.78299C7.21575 6.78299 6.95376 6.54076 6.95376 6.24264V4.54039C6.95376 4.24226 7.21575 4 7.53842 4H9.58361C9.58671 4 9.58944 4 9.59521 4C9.73258 4.00283 9.87002 4.01883 10.0013 4.05147C10.1388 4.07845 10.2705 4.12145 10.396 4.17825C10.6298 4.28652 10.8459 4.42427 11.0356 4.58903C11.2199 4.74845 11.3777 4.92951 11.5033 5.12941C11.6407 5.34564 11.7401 5.57817 11.8043 5.82138C11.8772 6.10757 11.9183 6.40224 11.921 6.6966C11.9241 6.9966 11.8949 7.29379 11.8307 7.58847C11.7781 7.82631 11.6903 8.05607 11.5647 8.2694C11.5006 8.38018 11.4273 8.48814 11.3427 8.58825C11.261 8.68555 11.1704 8.7747 11.071 8.85845C10.9685 8.94227 10.8606 9.01787 10.7435 9.08281C10.6237 9.15279 10.4955 9.21247 10.3638 9.26357C10.241 9.30688 10.1127 9.34205 9.98101 9.36367C9.85546 9.38818 9.72379 9.40166 9.59247 9.40418C9.58944 9.40418 9.58671 9.40418 9.58361 9.40418H7.53842C7.52386 9.40418 7.51197 9.40418 7.49741 9.40418C7.31615 9.3907 7.13802 9.38818 6.95681 9.3907C6.82549 9.39604 6.69383 9.40418 6.56521 9.42299C6.43661 9.43935 6.31105 9.46631 6.19127 9.50148C6.10948 9.52598 6.03076 9.55827 5.95474 9.59877C5.88144 9.63676 5.81731 9.68252 5.75589 9.7365C5.70635 9.78263 5.66258 9.83661 5.62728 9.89593C5.58656 9.96375 5.55738 10.0394 5.53668 10.115C5.5075 10.2364 5.4929 10.3607 5.4929 10.485C5.4929 10.6095 5.5075 10.731 5.53668 10.8528C5.55432 10.9309 5.58656 11.004 5.62728 11.0743C5.65952 11.1308 5.7033 11.1851 5.75589 11.2309C5.81426 11.2849 5.87873 11.3335 5.95169 11.3715C6.0277 11.412 6.10948 11.4443 6.19432 11.4688C6.32293 11.5064 6.4512 11.5334 6.58591 11.5498C6.70842 11.5661 6.83126 11.5742 6.95376 11.5795V10.2148Z" fill="url(#paint0_linear_659_155)" stroke="url(#paint1_linear_659_155)" stroke-width="0.8"/>
<path d="M8.14412 15.0631C12.0449 15.0631 15.2072 11.9009 15.2072 8.00007C15.2072 4.09925 12.0449 0.937012 8.14412 0.937012C4.2433 0.937012 1.08105 4.09925 1.08105 8.00007C1.08105 11.9009 4.2433 15.0631 8.14412 15.0631Z" stroke="url(#paint2_linear_659_155)" stroke-width="1.8"/>
</g>
<defs>
<linearGradient id="paint0_linear_659_155" x1="11.8987" y1="4.05491" x2="3.38853" y2="11.4572" gradientUnits="userSpaceOnUse">
<stop stop-color="#FE7970"/>
<stop offset="1" stop-color="#DC3282"/>
</linearGradient>
<linearGradient id="paint1_linear_659_155" x1="11.8987" y1="4.05491" x2="3.38853" y2="11.4572" gradientUnits="userSpaceOnUse">
<stop stop-color="#FE7970"/>
<stop offset="1" stop-color="#DC3282"/>
</linearGradient>
<linearGradient id="paint2_linear_659_155" x1="15.1654" y1="1.02657" x2="1.151" y2="14.9243" gradientUnits="userSpaceOnUse">
<stop stop-color="#FE7970"/>
<stop offset="1" stop-color="#DC3282"/>
</linearGradient>
<clipPath id="clip0_659_155">
<rect width="16.2883" height="16" fill="white"/>
</clipPath>
</defs>
</svg>
