<svg width="16" height="16" viewBox="0 0 16 16" fill="none" xmlns="http://www.w3.org/2000/svg">
<g clip-path="url(#clip0_659_161)">
<path d="M14.5359 5.62724C14.8017 6.36006 14.948 7.1504 14.9508 7.97563V7.99978C14.9508 8.8338 14.8043 9.63243 14.5358 10.3724C14.3491 10.8869 14.1034 11.3736 13.8062 11.8241L13.8057 11.8249C13.6815 12.0138 13.5476 12.1968 13.4053 12.3728C12.9499 12.9358 12.4085 13.4265 11.8005 13.8249L11.8003 13.825C11.5763 13.972 11.3437 14.1061 11.1033 14.2262L11.1027 14.2264C10.1675 14.6951 9.1109 14.9593 7.99078 14.9593C6.8706 14.9593 5.81406 14.6951 4.87883 14.2264L4.87822 14.2262C4.63762 14.1059 4.40479 13.9718 4.18088 13.825C3.56492 13.4211 3.01698 12.9227 2.55798 12.3503L2.55768 12.3499C2.41555 12.173 2.28203 11.9885 2.15747 11.7973L2.15715 11.7969C1.86797 11.354 1.6285 10.8764 1.44544 10.3717L1.44542 10.3715C1.17706 9.63199 1.03076 8.83372 1.03076 7.99992C1.03076 4.16539 4.13787 1.04053 7.99078 1.04053C9.92352 1.04053 11.6698 1.82748 12.9305 3.0971L12.9306 3.09717C13.2937 3.4628 13.6163 3.86858 13.8907 4.30679L13.8912 4.3076C14.1505 4.72025 14.3672 5.16226 14.5358 5.62714L14.5359 5.62724Z" stroke="url(#paint0_linear_659_161)" stroke-width="1.8"/>
<path d="M4.45996 5.3335V10.6431L7.99978 7.54611L11.5396 10.6431V5.3335" stroke="url(#paint1_linear_659_161)" stroke-width="1.8" stroke-linecap="round" stroke-linejoin="round"/>
</g>
<defs>
<linearGradient id="paint0_linear_659_161" x1="7.99076" y1="14.9593" x2="7.99076" y2="1.85928" gradientUnits="userSpaceOnUse">
<stop stop-color="#18AEFA"/>
<stop offset="1" stop-color="#83E1FF"/>
</linearGradient>
<linearGradient id="paint1_linear_659_161" x1="7.99978" y1="10.6431" x2="7.99978" y2="5.64583" gradientUnits="userSpaceOnUse">
<stop stop-color="#18AEFA"/>
<stop offset="1" stop-color="#83E1FF"/>
</linearGradient>
<clipPath id="clip0_659_161">
<rect width="16" height="16" fill="white"/>
</clipPath>
</defs>
</svg>
