<svg width="64" height="64" viewBox="0 0 64 64" fill="none" xmlns="http://www.w3.org/2000/svg">
<path fill-rule="evenodd" clip-rule="evenodd" d="M17.7721 13.4778C16.8042 14.2192 16 15.4677 16 17.9737V51.607L28.9763 44.4981L28.9943 44.4883C30.5744 43.6347 32.4782 43.6347 34.0583 44.4883L34.0684 44.4938L47.188 51.6371V17.5226C47.188 15.2626 46.4168 14.1282 45.4284 13.4195C44.2493 12.574 42.267 12 39.4098 12H23.7782C20.8399 12 18.9035 12.6112 17.7721 13.4778ZM9.69284 56.2293C9.25336 55.3903 9.01625 54.4602 9.00049 53.5132C9.00016 53.4937 9 53.4743 9 53.4549V17.9737C9 13.7127 10.5078 10.2244 13.5155 7.92067C16.3597 5.74217 20.0623 5 23.7782 5H39.4098C43.0036 5 46.6604 5.6892 49.5076 7.73089C52.5456 9.90936 54.188 13.2863 54.188 17.5226V53.4549C54.188 55.0233 53.5649 56.5274 52.4559 57.6364C51.3469 58.7454 49.8428 59.3684 48.2744 59.3684C48.2559 59.3684 48.2374 59.3683 48.2189 59.368C47.2738 59.353 46.3447 59.1207 45.5036 58.6892C45.4782 58.6761 45.4529 58.6628 45.4278 58.6491L31.5288 51.0814L17.723 58.6447C17.7096 58.652 17.6963 58.6593 17.6828 58.6664C17.6737 58.6712 17.6645 58.6761 17.6554 58.6808C14.8198 60.1545 11.3283 59.1185 9.75405 56.3413C9.73307 56.3045 9.71266 56.2672 9.69284 56.2293ZM19.5 27.1278C19.5 25.1948 21.067 23.6278 23 23.6278H28.6278V18.0001C28.6278 16.0671 30.1948 14.5001 32.1278 14.5001C34.0608 14.5001 35.6278 16.0671 35.6278 18.0001V23.6278H40.9774C42.9104 23.6278 44.4774 25.1948 44.4774 27.1278C44.4774 29.0608 42.9104 30.6278 40.9774 30.6278H35.6278V35.9775C35.6278 37.9105 34.0608 39.4775 32.1278 39.4775C30.1948 39.4775 28.6278 37.9105 28.6278 35.9775V30.6278H23C21.067 30.6278 19.5 29.0608 19.5 27.1278Z" fill="url(#paint0_linear_833_73)"/>
<defs>
<linearGradient id="paint0_linear_833_73" x1="8.34684" y1="5.53498" x2="63.7561" y2="52.997" gradientUnits="userSpaceOnUse">
<stop stop-color="#F9D423"/>
<stop offset="0.515624" stop-color="#FF4E50"/>
<stop offset="0.991304" stop-color="#8A2387"/>
</linearGradient>
</defs>
</svg>
