<svg width="128" height="128" viewBox="0 0 128 128" fill="none" xmlns="http://www.w3.org/2000/svg">
<path d="M83.1336 32.3965C63.7736 32.3965 47.9336 48.2365 47.9336 67.5965C47.9336 86.9565 63.7736 102.796 83.1336 102.796C102.494 102.796 118.334 86.9565 118.334 67.5965C118.334 48.2365 102.494 32.3965 83.1336 32.3965Z" stroke="url(#paint0_linear_1005_375)" stroke-width="12"/>
<path fill-rule="evenodd" clip-rule="evenodd" d="M48.7325 16.3387L63.3191 60.3589C63.5903 61.1773 64.3554 61.7298 65.2176 61.7298H71.8159C72.5299 61.7298 73.179 61.3411 73.5954 60.7611C75.7246 57.795 79.2033 55.8628 83.1333 55.8628C89.6136 55.8628 94.8667 61.1159 94.8667 67.5962C94.8667 74.0762 89.6136 79.3295 83.1333 79.3295C79.2035 79.3295 75.725 77.3976 73.5956 74.4317C73.1793 73.8518 72.5302 73.4631 71.8163 73.4631H56.9951C56.1374 73.4631 55.3751 72.9162 55.1004 72.1036L50.6253 58.8645C49.9925 56.9925 47.3172 57.0745 46.8002 58.9818L32.5419 111.59C32.2077 112.823 30.4992 112.926 30.0195 111.743L14.9996 74.7114C14.6936 73.9568 13.9606 73.4631 13.1463 73.4631H2.33333C1.59696 73.4631 1 72.866 1 72.1298V63.0631C1 62.3268 1.59696 61.7298 2.33333 61.7298H21.3348C22.1615 61.7298 22.903 62.2384 23.2007 63.0096L26.9726 72.7824C27.6674 74.5825 30.2567 74.4522 30.7672 72.5914L46.1811 16.4054C46.5301 15.133 48.3176 15.0863 48.7325 16.3387Z" fill="url(#paint1_linear_1005_375)"/>
<defs>
<linearGradient id="paint0_linear_1005_375" x1="83.1338" y1="102.796" x2="83.1338" y2="32.3965" gradientUnits="userSpaceOnUse">
<stop stop-color="#00B59C"/>
<stop offset="1" stop-color="#9CFFAC"/>
</linearGradient>
<linearGradient id="paint1_linear_1005_375" x1="47.9333" y1="112.575" x2="47.9333" y2="15.4248" gradientUnits="userSpaceOnUse">
<stop stop-color="#00B59C"/>
<stop offset="1" stop-color="#9CFFAC"/>
</linearGradient>
</defs>
</svg>
