<svg width="16" height="16" viewBox="0 0 16 16" fill="none" xmlns="http://www.w3.org/2000/svg">
<path fill-rule="evenodd" clip-rule="evenodd" d="M3.12447 5.12988C2.88581 5.12988 2.69691 4.92084 2.75547 4.68948C2.85188 4.30861 3.00985 4.01643 3.21017 3.8007C3.54059 3.44487 4.11265 3.16133 5.12088 3.16133H10.5141C11.5224 3.16133 12.0944 3.44487 12.4249 3.8007C12.6252 4.01643 12.7831 4.30861 12.8796 4.68948C12.9381 4.92084 12.7492 5.12988 12.5106 5.12988H3.12447ZM3.0501 6.92988C2.82918 6.92988 2.6501 7.10897 2.6501 7.32988V11.3625C2.6501 12.2357 2.86855 12.826 3.21017 13.1939C3.54059 13.5497 4.11265 13.8332 5.12088 13.8332H10.5141C11.5224 13.8332 12.0944 13.5497 12.4249 13.1939C12.7665 12.826 12.9849 12.2357 12.9849 11.3625V7.32988C12.9849 7.10897 12.8058 6.92988 12.5849 6.92988H3.0501ZM5.12088 1.36133C3.76957 1.36133 2.65624 1.75195 1.89115 2.57589C1.13727 3.38776 0.850098 4.48291 0.850098 5.63211V11.3625C0.850098 12.5117 1.13727 13.6068 1.89115 14.4187C2.65624 15.2426 3.76957 15.6332 5.12088 15.6332H10.5141C11.8655 15.6332 12.9788 15.2426 13.7439 14.4187C14.4978 13.6068 14.7849 12.5117 14.7849 11.3625V5.63211C14.7849 4.48291 14.4978 3.38776 13.7439 2.57589C12.9788 1.75195 11.8655 1.36133 10.5141 1.36133H5.12088Z" fill="url(#paint0_linear_505_254)"/>
<path fill-rule="evenodd" clip-rule="evenodd" d="M6.02119 1.2501C6.02119 0.753041 5.61825 0.350098 5.12119 0.350098C4.62414 0.350098 4.22119 0.753041 4.22119 1.2501V3.27257C4.22119 3.76963 4.62414 4.17257 5.12119 4.17257C5.61825 4.17257 6.02119 3.76963 6.02119 3.27257V1.2501ZM11.4138 1.2501C11.4138 0.753041 11.0108 0.350098 10.5138 0.350098C10.0167 0.350098 9.61377 0.753041 9.61377 1.2501V3.27257C9.61377 3.76963 10.0167 4.17257 10.5138 4.17257C11.0108 4.17257 11.4138 3.76963 11.4138 3.27257V1.2501Z" fill="url(#paint1_linear_505_254)"/>
<path fill-rule="evenodd" clip-rule="evenodd" d="M4.23352 8.9999C4.23352 8.39239 4.72601 7.8999 5.33352 7.8999H5.33957C5.94709 7.8999 6.43957 8.39239 6.43957 8.9999C6.43957 9.60742 5.94709 10.0999 5.33957 10.0999H5.33352C4.72601 10.0999 4.23352 9.60742 4.23352 8.9999ZM10 7.8999C9.39251 7.8999 8.90002 8.39239 8.90002 8.9999C8.90002 9.60742 9.39251 10.0999 10 10.0999H10.0061C10.6136 10.0999 11.1061 9.60742 11.1061 8.9999C11.1061 8.39239 10.6136 7.8999 10.0061 7.8999H10ZM10 10.9224C9.39251 10.9224 8.90002 11.4148 8.90002 12.0224C8.90002 12.6299 9.39251 13.1224 10 13.1224H10.0061C10.6136 13.1224 11.1061 12.6299 11.1061 12.0224C11.1061 11.4148 10.6136 10.9224 10.0061 10.9224H10ZM5.3334 10.9225C4.72589 10.9225 4.2334 11.415 4.2334 12.0225C4.2334 12.63 4.72589 13.1225 5.3334 13.1225H5.33945C5.94697 13.1225 6.43945 12.63 6.43945 12.0225C6.43945 11.415 5.94697 10.9225 5.33945 10.9225H5.3334Z" fill="url(#paint2_linear_505_254)"/>
<defs>
<linearGradient id="paint0_linear_505_254" x1="7.81751" y1="15.6332" x2="7.81751" y2="2.20085" gradientUnits="userSpaceOnUse">
<stop stop-color="#18AEFA"/>
<stop offset="1" stop-color="#83E1FF"/>
</linearGradient>
<linearGradient id="paint1_linear_505_254" x1="7.81748" y1="4.17257" x2="7.81748" y2="0.574949" gradientUnits="userSpaceOnUse">
<stop stop-color="#18AEFA"/>
<stop offset="1" stop-color="#83E1FF"/>
</linearGradient>
<linearGradient id="paint2_linear_505_254" x1="7.66974" y1="13.1225" x2="7.66974" y2="8.20712" gradientUnits="userSpaceOnUse">
<stop stop-color="#18AEFA"/>
<stop offset="1" stop-color="#83E1FF"/>
</linearGradient>
</defs>
</svg>
