<svg width="32" height="32" viewBox="0 0 32 32" fill="none" xmlns="http://www.w3.org/2000/svg">
<path d="M3.43995 7.93072C3.21371 7.65924 3.40676 7.24707 3.76016 7.24707H14.3685C14.479 7.24707 14.585 7.29098 14.6633 7.36916L17.1642 9.87007C17.3269 10.0329 17.5908 10.0329 17.7536 9.87007L20.2545 7.36916C20.3327 7.29098 20.4387 7.24707 20.5493 7.24707H29.5823C29.9537 7.24707 30.1396 7.69605 29.8771 7.95862L22.1046 15.7311C21.9522 15.8835 21.9411 16.1271 22.0791 16.2926L28.5601 24.0697C28.7863 24.3413 28.5932 24.7534 28.2399 24.7534H17.6315C17.521 24.7534 17.415 24.7096 17.3367 24.6313L14.8358 22.1304C14.6731 21.9676 14.4092 21.9676 14.2464 22.1304L11.7455 24.6313C11.6673 24.7096 11.5613 24.7534 11.4507 24.7534H2.41766C2.0463 24.7534 1.86034 24.3044 2.12292 24.0419L9.89539 16.2694C10.0478 16.117 10.0589 15.8734 9.92081 15.7079L3.43995 7.93072Z" fill="url(#paint0_linear_1005_509)"/>
<defs>
<linearGradient id="paint0_linear_1005_509" x1="16" y1="24.7534" x2="16" y2="7.24707" gradientUnits="userSpaceOnUse">
<stop stop-color="#FDA700"/>
<stop offset="1" stop-color="#FFDE00"/>
</linearGradient>
</defs>
</svg>
