<svg width="128" height="128" viewBox="0 0 128 128" fill="none" xmlns="http://www.w3.org/2000/svg">
<path fill-rule="evenodd" clip-rule="evenodd" d="M17 64C17 38.0426 38.0426 17 64 17C89.9574 17 111 38.0426 111 64C111 89.9574 89.9574 111 64 111C38.0426 111 17 89.9574 17 64ZM64 5C31.4152 5 5 31.4152 5 64C5 96.5848 31.4152 123 64 123C96.5848 123 123 96.5848 123 64C123 31.4152 96.5848 5 64 5ZM81.8372 44.706C81.1226 42.0387 78.3809 40.4557 75.7136 41.1703C73.0462 41.885 71.4633 44.6266 72.1779 47.294L76.2502 62.4932L62.7318 78.2391C60.933 80.3343 61.1732 83.491 63.2684 85.2897C65.3636 87.0885 68.5203 86.8483 70.3191 84.7531L79.3849 74.1934L81.6882 82.7901C82.4028 85.4574 85.1445 87.0404 87.8118 86.3257C90.4792 85.6111 92.0622 82.8694 91.3475 80.2021L87.2753 65.0029L100.794 49.257C102.592 47.1618 102.352 44.0051 100.257 42.2063C98.1618 40.4075 95.0051 40.6478 93.2063 42.743L84.1405 53.3027L81.8372 44.706ZM42.3929 41C39.6315 41 37.3929 43.2386 37.3929 46C37.3929 48.7614 39.6315 51 42.3929 51H64.9782C67.7396 51 69.9782 48.7614 69.9782 46C69.9782 43.2386 67.7396 41 64.9782 41H42.3929ZM36.6955 58.7471C33.9341 58.7471 31.6955 60.9857 31.6955 63.7471C31.6955 66.5085 33.9341 68.7471 36.6955 68.7471H59.2808C62.0422 68.7471 64.2808 66.5085 64.2808 63.7471C64.2808 60.9857 62.0422 58.7471 59.2808 58.7471H36.6955ZM31 76.4961C28.2386 76.4961 26 78.7346 26 81.4961C26 84.2575 28.2386 86.4961 31 86.4961H53.5853C56.3467 86.4961 58.5853 84.2575 58.5853 81.4961C58.5853 78.7346 56.3467 76.4961 53.5853 76.4961H31Z" fill="url(#paint0_linear_820_16)"/>
<defs>
<linearGradient id="paint0_linear_820_16" x1="3.29439" y1="6.16111" x2="124.942" y2="131.531" gradientUnits="userSpaceOnUse">
<stop stop-color="#F9D423"/>
<stop offset="0.515624" stop-color="#FF4E50"/>
<stop offset="0.991304" stop-color="#8A2387"/>
</linearGradient>
</defs>
</svg>
