<svg width="128" height="128" viewBox="0 0 128 128" fill="none" xmlns="http://www.w3.org/2000/svg">
<path d="M25.5843 82.587C31.579 69.147 42.651 53.5737 49.515 45.4563C42.859 38.811 37.9843 35.1577 34.4857 33.1897C30.3224 37.1679 27.0101 41.9499 24.7494 47.246C22.4887 52.542 21.3266 58.2419 21.3337 64.0003C21.3337 70.667 22.859 76.971 25.5843 82.587ZM47.1897 24.7737C55.723 26.9337 64.0003 31.7817 64.0003 31.7817V31.755C64.0003 31.755 72.2777 26.9337 80.8057 24.7683C75.4953 22.4939 69.7772 21.3253 64.0003 21.3337C58.027 21.3337 52.347 22.5603 47.1897 24.7737ZM93.515 33.1897C90.0217 35.163 85.1523 38.8163 78.4963 45.4563C85.3603 53.579 96.427 69.1417 102.422 82.5817C105.225 76.7892 106.677 70.4356 106.667 64.0003C106.667 51.8937 101.622 40.9603 93.515 33.1897ZM95.691 92.5657C88.2083 80.6403 73.8777 66.1977 64.0003 58.7363C54.1337 66.203 39.7923 80.6457 32.315 92.5763C36.3115 97.0174 41.1984 100.567 46.6575 102.995C52.1166 105.423 58.0257 106.674 64.0003 106.667C69.9766 106.673 75.8872 105.421 81.3474 102.991C86.8075 100.562 91.6948 97.0094 95.691 92.5657ZM64.0003 117.334C34.5443 117.334 10.667 93.4563 10.667 64.0003C10.667 34.5443 34.5443 10.667 64.0003 10.667C93.4563 10.667 117.334 34.5443 117.334 64.0003C117.334 93.4563 93.4563 117.334 64.0003 117.334Z" fill="url(#paint0_linear_729_120)"/>
<defs>
<linearGradient id="paint0_linear_729_120" x1="44.5" y1="102" x2="101" y2="35.5" gradientUnits="userSpaceOnUse">
<stop stop-color="#02AA93"/>
<stop offset="1" stop-color="#67FF80"/>
</linearGradient>
</defs>
</svg>
