<svg width="64" height="64" viewBox="0 0 64 64" fill="none" xmlns="http://www.w3.org/2000/svg">
<path d="M4.07126 17.9917C3.98322 18.8095 4.47967 21.3288 5.80051 24.1668C9.5207 29.6275 14.8331 30.0806 20.0513 33.2483C20.6077 33.8727 20.8277 34.174 16.5594 35.9831C9.88839 38.8108 5.69208 41.2158 4.41438 44.7738C4.03727 45.8252 3.86175 48.6055 4.12764 49.305C4.4728 50.2119 5.87942 50.2039 12.3249 49.0334C18.7997 47.8575 19.1029 47.7888 19.643 47.2991C20.6316 46.3 20.4191 45.0154 20.8069 42.7301C21.1956 41.4309 22.1734 40.0742 23.2383 39.3566C27.2769 36.6358 36.0768 38.7912 40.1901 42.9664C41.7401 44.5397 42.7133 45.4099 43.4901 47.8499C43.9382 49.2577 44.3933 49.8689 45.1002 50.0035C50.7865 48.1784 52.718 48.2357 59.5644 45.9567C60.1436 45.5249 60.1459 44.0999 59.5672 42.3535C58.5769 39.3528 56.86 37.967 53.6775 35.6591C52.1031 34.5173 50.1151 33.4379 46.749 31.895C43.5475 30.4275 43.6446 29.8312 44.0213 29.5747C46.7827 27.13 55.7828 26.3442 55.9534 22.3295C55.9534 20.5123 55.595 19.046 55.038 18.5703C54.2972 17.9373 53.5066 17.9174 50.3956 18.456C40.4233 20.1822 40.4901 20.1148 40.0263 20.8334C40.6625 23.2253 40.6287 23.7006 39.2723 24.7987C38.2795 25.6891 34.4472 26.0501 32.142 26.0501C29.354 26.0501 26.4533 25.1326 24.3667 23.0055C22.8589 21.4685 22.0893 19.3751 21.0621 16.6384C20.1601 14.2348 20.0362 13.9813 19.1093 13.9967C14.2475 15.1848 9.03795 16.6525 4.07126 17.9917Z" fill="url(#paint0_linear_1005_354)"/>
<defs>
<linearGradient id="paint0_linear_1005_354" x1="47.2727" y1="17.8143" x2="31.6681" y2="58.1258" gradientUnits="userSpaceOnUse">
<stop stop-color="#FE7970"/>
<stop offset="0.83028" stop-color="#C2352A"/>
</linearGradient>
</defs>
</svg>
