<svg width="48" height="48" viewBox="0 0 48 48" fill="none" xmlns="http://www.w3.org/2000/svg">
<path d="M26.1185 37.6446V11.3554C26.1185 10.8031 25.6707 10.3554 25.1185 10.3554H17.1569C16.6046 10.3554 16.1569 10.8031 16.1569 11.3554V37.6446M26.1185 37.6446H16.1569M26.1185 37.6446V43.3846C26.1185 43.8102 25.9494 44.2183 25.6485 44.5193C25.3476 44.8202 24.9394 44.9892 24.5138 44.9892H17.7615C17.5508 44.9892 17.3422 44.9477 17.1475 44.8671C16.9528 44.7864 16.7759 44.6683 16.6269 44.5193C16.4779 44.3702 16.3597 44.1934 16.2791 43.9987C16.1984 43.804 16.1569 43.5953 16.1569 43.3846V37.6446M16.1569 37.6446V14.9523C16.1569 14.4 15.7092 13.9523 15.1569 13.9523H5.05385M16.1569 37.6446H5.05385M16.1569 37.6446V43.1908C16.1569 43.6706 15.9663 44.1308 15.627 44.4701C15.2877 44.8094 14.8275 45 14.3477 45H6.80923C6.32939 45 5.86921 44.8094 5.52991 44.4701C5.19061 44.1308 5 43.6706 5 43.1908L5.05385 37.6446M5.05385 13.9523H15.2108C15.7631 13.9523 16.2108 13.5046 16.2108 12.9523V8.40615C16.2108 7.92632 16.0202 7.46613 15.6809 7.12683C15.3416 6.78754 14.8814 6.59692 14.4015 6.59692H6.86308C6.38324 6.59692 5.92305 6.78754 5.58376 7.12683C5.24446 7.46613 5.05385 7.92632 5.05385 8.40615V13.9523ZM5.05385 13.9523V37.6446M17.7615 3H24.5138C24.7255 3 24.935 3.04185 25.1304 3.12317C25.3258 3.20448 25.5032 3.32364 25.6523 3.47378C25.8014 3.62393 25.9194 3.80209 25.9994 3.99802C26.0794 4.19394 26.1199 4.40376 26.1185 4.61538V9.36615C26.1185 9.91844 25.6707 10.3662 25.1185 10.3662H17.1569C16.6046 10.3662 16.1569 9.91844 16.1569 9.36615V4.61538C16.1555 4.40376 16.196 4.19394 16.276 3.99802C16.356 3.80209 16.4739 3.62393 16.6231 3.47378C16.7722 3.32364 16.9496 3.20448 17.145 3.12317C17.3404 3.04185 17.5499 3 17.7615 3Z" stroke="url(#paint0_linear_1044_12)" stroke-width="3" stroke-linecap="round" stroke-linejoin="round"/>
<path d="M27.012 18.1522L37.4857 16.4689C38.03 16.3815 38.4008 15.87 38.3148 15.3255L37.6197 10.9261C37.5403 10.4338 37.269 9.99305 36.8653 9.70037C36.4637 9.40918 35.9635 9.28816 35.4734 9.36335C35.4702 9.36383 35.469 9.36767 35.4712 9.36991V9.36991C35.4735 9.37215 35.4722 9.37599 35.4691 9.37649L27.712 10.6138C27.4679 10.6516 27.2339 10.7377 27.0234 10.8668M27.012 18.1522L26.1612 12.7676C26.1197 12.5241 26.1271 12.2749 26.1828 12.0343C26.2386 11.7937 26.3416 11.5666 26.4859 11.3662M27.012 18.1522L30.0105 37.0134C30.0972 37.5584 30.609 37.9302 31.1541 37.8441L41.6258 36.1907M27.012 18.1522L38.4607 16.3338C38.4617 16.3336 38.4615 16.3322 38.4606 16.3322V16.3322C38.4601 16.3322 38.4597 16.3326 38.4598 16.3331L41.6258 36.1907M41.6258 36.1907L42.4874 41.5753C42.5273 41.8194 42.5184 42.0689 42.4614 42.3096C42.4044 42.5502 42.3003 42.7772 42.1551 42.9774C42.01 43.1776 41.8266 43.3471 41.6156 43.4762C41.4046 43.6052 41.1702 43.6912 40.9258 43.7291L33.1612 44.9676C32.6687 45.0452 32.1654 44.9244 31.7617 44.6317C31.358 44.3391 31.0868 43.8983 31.0074 43.4061L30.3125 39.0084C30.2264 38.4632 30.5983 37.9513 31.1434 37.8647L41.6 36.2038C41.6098 36.2023 41.6188 36.1977 41.6258 36.1907V36.1907Z" stroke="url(#paint1_linear_1044_12)" stroke-width="3" stroke-linecap="round" stroke-linejoin="round"/>
<defs>
<linearGradient id="paint0_linear_1044_12" x1="8.82773" y1="40.0417" x2="36.9555" y2="27.7014" gradientUnits="userSpaceOnUse">
<stop stop-color="#FE0844"/>
<stop offset="1" stop-color="#FEB302"/>
</linearGradient>
<linearGradient id="paint1_linear_1044_12" x1="28.6001" y1="36.9695" x2="39.6623" y2="34.0402" gradientUnits="userSpaceOnUse">
<stop stop-color="#F502A3"/>
<stop offset="1" stop-color="#FFBB37"/>
</linearGradient>
</defs>
</svg>
