<svg width="16" height="16" viewBox="0 0 16 16" fill="none" xmlns="http://www.w3.org/2000/svg">
<path fill-rule="evenodd" clip-rule="evenodd" d="M15.3332 7.99984C15.3332 12.0499 12.0499 15.3332 7.99984 15.3332C3.94974 15.3332 0.666504 12.0499 0.666504 7.99984C0.666504 3.94974 3.94974 0.666504 7.99984 0.666504C12.0499 0.666504 15.3332 3.94974 15.3332 7.99984ZM13.8665 7.99984C13.8665 11.2399 11.2399 13.8665 7.99984 13.8665C4.75977 13.8665 2.13317 11.2399 2.13317 7.99984C2.13317 4.75977 4.75977 2.13317 7.99984 2.13317C11.2399 2.13317 13.8665 4.75977 13.8665 7.99984Z" fill="url(#paint0_linear_670_266)" stroke="url(#paint1_linear_670_266)" stroke-width="0.4"/>
<path fill-rule="evenodd" clip-rule="evenodd" d="M6.20739 4.70041C6.10673 4.69798 6.00659 4.71588 5.91289 4.75305C5.81916 4.79021 5.73376 4.84591 5.66166 4.91685C5.58959 4.98781 5.53226 5.07258 5.49309 5.16618C5.45393 5.25981 5.43369 5.36038 5.43359 5.46198V7.99941L5.43406 10.5368C5.43393 10.6707 5.46876 10.8023 5.53499 10.9184C5.60126 11.0344 5.69663 11.1308 5.81153 11.1978C5.92639 11.2648 6.05676 11.3001 6.18946 11.3002C6.32216 11.3002 6.45253 11.265 6.56746 11.1981L8.74476 9.92865L10.9221 8.66018C11.037 8.59331 11.1325 8.49708 11.1989 8.38115C11.2652 8.26521 11.3002 8.13368 11.3003 7.99978C11.3003 7.86588 11.2654 7.73435 11.1991 7.61838C11.1328 7.50238 11.0374 7.40608 10.9225 7.33911L8.74476 6.07115L6.56746 4.80221C6.50179 4.76408 6.43083 4.73611 6.35693 4.71928C6.30783 4.70798 6.25776 4.70168 6.20739 4.70041Z" fill="url(#paint2_linear_670_266)"/>
<defs>
<linearGradient id="paint0_linear_670_266" x1="7.99984" y1="15.3332" x2="7.99984" y2="0.666504" gradientUnits="userSpaceOnUse">
<stop stop-color="#FD3A84"/>
<stop offset="1" stop-color="#FFA68D"/>
</linearGradient>
<linearGradient id="paint1_linear_670_266" x1="7.99984" y1="15.3332" x2="7.99984" y2="0.666504" gradientUnits="userSpaceOnUse">
<stop stop-color="#FD3A84"/>
<stop offset="1" stop-color="#FFA68D"/>
</linearGradient>
<linearGradient id="paint2_linear_670_266" x1="5.43273" y1="7.90241" x2="11.299" y2="7.90241" gradientUnits="userSpaceOnUse">
<stop stop-color="#FD3A84"/>
<stop offset="1" stop-color="#FFA68D"/>
</linearGradient>
</defs>
</svg>
