<svg width="16" height="16" viewBox="0 0 16 16" fill="none" xmlns="http://www.w3.org/2000/svg">
<path fill-rule="evenodd" clip-rule="evenodd" d="M8.3 2.3835C6.9076 2.3835 5.57225 2.93662 4.58769 3.92118C3.60313 4.90575 3.05 6.24111 3.05 7.6335V7.8085C3.05 7.94776 2.99469 8.0813 2.89623 8.1797C2.79777 8.27816 2.66424 8.3335 2.525 8.3335C2.38576 8.3335 2.25223 8.27816 2.15377 8.1797C2.05531 8.0813 2 7.94776 2 7.8085V7.6335C2 5.96263 2.66375 4.3602 3.84523 3.17872C5.02671 1.99724 6.62913 1.3335 8.3 1.3335C9.97087 1.3335 11.5733 1.99724 12.7548 3.17872C13.9363 4.3602 14.6 5.96263 14.6 7.6335V7.8085C14.6 7.94776 14.5447 8.0813 14.4462 8.1797C14.3478 8.27816 14.2143 8.3335 14.075 8.3335C13.9357 8.3335 13.8022 8.27816 13.7038 8.1797C13.6053 8.0813 13.55 7.94776 13.55 7.8085V7.6335C13.55 6.24111 12.9969 4.90575 12.0123 3.92118C11.0277 2.93662 9.6924 2.3835 8.3 2.3835ZM8.3 4.48351C7.4646 4.48351 6.66335 4.81539 6.07261 5.40612C5.48187 5.99686 5.15 6.7981 5.15 7.6335V7.8085C5.15 7.94776 5.09469 8.0813 4.99623 8.17976C4.89777 8.27823 4.76424 8.3335 4.625 8.3335C4.48576 8.3335 4.35223 8.27823 4.25377 8.17976C4.15531 8.0813 4.1 7.94776 4.1 7.8085V7.6335C4.1 6.5196 4.5425 5.45132 5.33015 4.66366C6.11781 3.87601 7.18607 3.43351 8.3 3.43351C9.41393 3.43351 10.4822 3.87601 11.2699 4.66366C12.0575 5.45132 12.5 6.5196 12.5 7.6335V7.8085C12.5 7.94776 12.4447 8.0813 12.3462 8.17976C12.2478 8.27823 12.1143 8.3335 11.975 8.3335C11.8357 8.3335 11.7022 8.27823 11.6038 8.17976C11.5053 8.0813 11.45 7.94776 11.45 7.8085V7.6335C11.45 6.7981 11.1181 5.99686 10.5274 5.40612C9.93667 4.81539 9.1354 4.48351 8.3 4.48351ZM6.91133 6.05756C7.295 5.71965 7.78873 5.53332 8.3 5.53349C8.81047 5.53464 9.30307 5.72164 9.68573 6.05953C10.0683 6.39742 10.3149 6.8631 10.3792 7.3695C10.4435 7.8759 10.3213 8.38843 10.0352 8.81123C9.86979 9.05577 9.65613 9.26063 9.4098 9.41482C9.09064 9.61459 8.825 9.92973 8.825 10.3063V10.3063C8.825 10.7631 9.19537 11.1335 9.65224 11.1335H12.5C13.0569 11.1335 13.5911 11.3548 13.9849 11.7486C14.3787 12.1424 14.6 12.6766 14.6 13.2335C14.6 13.7904 14.3787 14.3246 13.9849 14.7184C13.5911 15.1122 13.0569 15.3335 12.5 15.3335H4.1C3.54305 15.3335 3.0089 15.1122 2.61507 14.7184C2.22125 14.3246 2 13.7904 2 13.2335C2 12.6766 2.22125 12.1424 2.61507 11.7486C3.0089 11.3548 3.54305 11.1335 4.1 11.1335H6.94876C7.40508 11.1335 7.775 10.7636 7.775 10.3073V10.3073C7.775 9.93035 7.50859 9.61512 7.18871 9.4158C6.94173 9.2619 6.72743 9.0571 6.56143 8.81243C6.27442 8.3893 6.15161 7.8761 6.21603 7.3689C6.28044 6.8617 6.52766 6.39546 6.91133 6.05756ZM7.55753 6.89103C7.3606 7.08796 7.25 7.35503 7.25 7.6335C7.25 7.91196 7.3606 8.17903 7.55753 8.37596C7.75447 8.5729 8.02153 8.6835 8.3 8.6835C8.57847 8.6835 8.84553 8.5729 9.04247 8.37596C9.2394 8.17903 9.35 7.91196 9.35 7.6335C9.35 7.35503 9.2394 7.08796 9.04247 6.89103C8.84553 6.6941 8.57847 6.58349 8.3 6.58349C8.02153 6.58349 7.75447 6.6941 7.55753 6.89103ZM13.2425 12.491C13.0455 12.2941 12.7785 12.1835 12.5 12.1835H4.1C3.82152 12.1835 3.55445 12.2941 3.35754 12.491C3.16063 12.688 3.05 12.955 3.05 13.2335C3.05 13.512 3.16063 13.779 3.35754 13.976C3.55445 14.1728 3.82152 14.2835 4.1 14.2835H12.5C12.7785 14.2835 13.0455 14.1728 13.2425 13.976C13.4394 13.779 13.55 13.512 13.55 13.2335C13.55 12.955 13.4394 12.688 13.2425 12.491Z" fill="url(#paint0_linear_645_74)" stroke="url(#paint1_linear_645_74)" stroke-width="0.7"/>
<defs>
<linearGradient id="paint0_linear_645_74" x1="8.3" y1="15.3335" x2="8.3" y2="1.3335" gradientUnits="userSpaceOnUse">
<stop stop-color="#A93AFF"/>
<stop offset="1" stop-color="#FF81FF"/>
</linearGradient>
<linearGradient id="paint1_linear_645_74" x1="8.3" y1="15.3335" x2="8.3" y2="1.3335" gradientUnits="userSpaceOnUse">
<stop stop-color="#A93AFF"/>
<stop offset="1" stop-color="#FF81FF"/>
</linearGradient>
</defs>
</svg>
