<svg width="16" height="16" viewBox="0 0 16 16" fill="none" xmlns="http://www.w3.org/2000/svg">
<path fill-rule="evenodd" clip-rule="evenodd" d="M8.15264 0.700195H8.06439C6.98459 0.700189 6.11364 0.700183 5.41708 0.775651C4.69719 0.853646 4.07575 1.01936 3.53572 1.41171C3.21944 1.6415 2.9413 1.91964 2.71151 2.23591C2.31916 2.77594 2.15345 3.39738 2.07546 4.11727C1.99999 4.81384 1.99999 5.68477 2 6.76458V9.23581C1.99999 10.3156 1.99999 11.1866 2.07546 11.8831C2.15345 12.603 2.31916 13.2245 2.71151 13.7645C2.9413 14.0808 3.21944 14.3589 3.53572 14.5887C4.07575 14.981 4.69719 15.1467 5.41708 15.2247C6.11362 15.3002 6.98453 15.3002 8.06429 15.3002H8.15268C9.23244 15.3002 10.1034 15.3002 10.7999 15.2247C11.5198 15.1467 12.1413 14.981 12.6813 14.5887C12.9976 14.3589 13.2757 14.0808 13.5055 13.7645C13.8979 13.2245 14.0636 12.603 14.1416 11.8831C14.217 11.1866 14.217 10.3157 14.217 9.23588V6.76457C14.217 5.68479 14.217 4.81382 14.1416 4.11727C14.0636 3.39738 13.8979 2.77594 13.5055 2.23591C13.2757 1.91964 12.9976 1.6415 12.6813 1.41171C12.1413 1.01936 11.5198 0.853646 10.7999 0.775651C10.1034 0.700183 9.23244 0.700189 8.15264 0.700195ZM5.57796 2.26058C6.18472 2.19484 6.97486 2.19381 8.10851 2.19381C9.24217 2.19381 10.0323 2.19484 10.6391 2.26058C11.2319 2.32481 11.5604 2.44354 11.8034 2.62007C11.9929 2.75773 12.1595 2.92436 12.2971 3.11384C12.4737 3.35682 12.5924 3.68535 12.6566 4.27815C12.7224 4.88492 12.7234 5.67505 12.7234 6.80871V9.19168C12.7234 10.3253 12.7224 11.1155 12.6566 11.7222C12.5924 12.315 12.4737 12.6436 12.2971 12.8865C12.1595 13.076 11.9929 13.2427 11.8034 13.3803C11.5604 13.5569 11.2319 13.6756 10.6391 13.7398C10.0323 13.8056 9.24217 13.8066 8.10851 13.8066C6.97486 13.8066 6.18472 13.8056 5.57796 13.7398C4.98515 13.6756 4.65662 13.5569 4.41365 13.3803C4.22417 13.2427 4.05754 13.076 3.91988 12.8865C3.74334 12.6436 3.62461 12.315 3.56038 11.7222C3.49464 11.1155 3.49362 10.3253 3.49362 9.19168V6.80871C3.49362 5.67505 3.49464 4.88492 3.56038 4.27815C3.62461 3.68535 3.74334 3.35682 3.91988 3.11384C4.05754 2.92436 4.22417 2.75773 4.41365 2.62007C4.65662 2.44354 4.98515 2.32481 5.57796 2.26058ZM8.10851 3.08317C7.03802 3.08317 6.17021 3.95098 6.17021 5.02147C6.17021 6.09196 7.03802 6.95977 8.10851 6.95977C9.179 6.95977 10.0468 6.09196 10.0468 5.02147C10.0468 3.95098 9.179 3.08317 8.10851 3.08317ZM7.66383 5.02147C7.66383 4.77588 7.86292 4.57679 8.10851 4.57679C8.3541 4.57679 8.55319 4.77588 8.55319 5.02147C8.55319 5.26706 8.3541 5.46615 8.10851 5.46615C7.86292 5.46615 7.66383 5.26706 7.66383 5.02147ZM8.10851 7.84913C6.709 7.84913 5.57447 8.98366 5.57447 10.3832C5.57447 11.7827 6.709 12.9172 8.10851 12.9172C9.50802 12.9172 10.6426 11.7827 10.6426 10.3832C10.6426 8.98366 9.50802 7.84913 8.10851 7.84913ZM7.06809 10.3832C7.06809 9.80856 7.5339 9.34275 8.10851 9.34275C8.68312 9.34275 9.14894 9.80856 9.14894 10.3832C9.14894 10.9578 8.68312 11.4236 8.10851 11.4236C7.5339 11.4236 7.06809 10.9578 7.06809 10.3832Z" fill="url(#paint0_linear_497_114)" stroke="url(#paint1_linear_497_114)" stroke-width="0.3"/>
<defs>
<linearGradient id="paint0_linear_497_114" x1="2.42818" y1="8.00021" x2="13.4163" y2="6.97061" gradientUnits="userSpaceOnUse">
<stop stop-color="#8D01A2"/>
<stop offset="1" stop-color="#FF00D2"/>
</linearGradient>
<linearGradient id="paint1_linear_497_114" x1="2.42818" y1="8.00021" x2="13.4163" y2="6.97061" gradientUnits="userSpaceOnUse">
<stop stop-color="#8D01A2"/>
<stop offset="1" stop-color="#FF00D2"/>
</linearGradient>
</defs>
</svg>
