<svg width="16" height="16" viewBox="0 0 16 16" fill="none" xmlns="http://www.w3.org/2000/svg">
<path fill-rule="evenodd" clip-rule="evenodd" d="M2.23359 5.99994C2.23359 5.20446 2.49482 4.6115 2.88666 4.21966C3.27849 3.82783 3.87145 3.5666 4.66693 3.5666H11.3336C12.1291 3.5666 12.722 3.82783 13.1139 4.21966C13.5057 4.6115 13.7669 5.20446 13.7669 5.99994V9.99994C13.7669 10.7954 13.5057 11.3884 13.1139 11.7802C12.722 12.172 12.1291 12.4333 11.3336 12.4333H4.66693C3.87145 12.4333 3.27849 12.172 2.88666 11.7802C2.49482 11.3884 2.23359 10.7954 2.23359 9.99994V5.99994ZM4.66693 1.7666C3.4624 1.7666 2.3887 2.17204 1.61386 2.94687C0.83903 3.72171 0.433594 4.79541 0.433594 5.99994V9.99994C0.433594 11.2045 0.83903 12.2782 1.61386 13.053C2.3887 13.8278 3.4624 14.2333 4.66693 14.2333H11.3336C12.5381 14.2333 13.6118 13.8278 14.3867 13.053C15.1615 12.2782 15.5669 11.2045 15.5669 9.99994V5.99994C15.5669 4.79541 15.1615 3.72171 14.3867 2.94687C13.6118 2.17204 12.5381 1.7666 11.3336 1.7666H4.66693ZM7.1 7.07296C7.1 7.04971 7.10051 7.02797 7.10144 7.00771C7.10242 6.9863 7.12547 6.97391 7.14384 6.98494V6.98494L9.07638 8.14446V8.14446C9.12054 8.17517 9.12054 8.2374 9.07638 8.26811V8.26811L7.14384 9.42764C7.13936 9.43033 7.13496 9.43292 7.13064 9.43542C7.11689 9.44338 7.1 9.43367 7.1 9.41777V9.41777V7.07296ZM8.06993 5.44145C7.54784 5.12819 6.82161 4.92526 6.16059 5.30662C5.50113 5.68707 5.3 6.42306 5.3 7.07296V9.41777C5.3 10.0459 5.53547 10.7258 6.16059 11.0864C6.79308 11.4513 7.50803 11.3083 8.06993 10.9711L10.0239 9.79872C10.0362 9.79137 10.0483 9.78374 10.0601 9.77582C10.5754 9.43231 10.9885 8.89153 10.9885 8.20629C10.9885 7.52104 10.5754 6.98026 10.0601 6.63676C10.0483 6.62884 10.0362 6.6212 10.0239 6.61386L8.06993 5.44145Z" fill="url(#paint0_linear_562_399)"/>
<defs>
<linearGradient id="paint0_linear_562_399" x1="8.00026" y1="14.2333" x2="8.00026" y2="1.7666" gradientUnits="userSpaceOnUse">
<stop stop-color="#EC396C"/>
<stop offset="1" stop-color="#FF709A"/>
</linearGradient>
</defs>
</svg>
