<svg width="16" height="16" viewBox="0 0 16 16" fill="none" xmlns="http://www.w3.org/2000/svg">
<path fill-rule="evenodd" clip-rule="evenodd" d="M2.23359 5.99994C2.23359 5.20446 2.49482 4.6115 2.88666 4.21966C3.27849 3.82783 3.87145 3.5666 4.66693 3.5666H11.3336C12.1291 3.5666 12.722 3.82783 13.1139 4.21966C13.5057 4.6115 13.7669 5.20446 13.7669 5.99994V7.5001C13.7669 7.99715 14.1699 8.4001 14.6669 8.4001C15.164 8.4001 15.5669 7.99715 15.5669 7.5001V5.99994C15.5669 4.79541 15.1615 3.72171 14.3867 2.94687C13.6118 2.17204 12.5381 1.7666 11.3336 1.7666H4.66693C3.4624 1.7666 2.3887 2.17204 1.61386 2.94687C0.83903 3.72171 0.433594 4.79541 0.433594 5.99994V9.99994C0.433594 11.2045 0.83903 12.2782 1.61386 13.053C2.3887 13.8278 3.4624 14.2333 4.66693 14.2333H9.5001C9.99715 14.2333 10.4001 13.8303 10.4001 13.3333C10.4001 12.8362 9.99715 12.4333 9.5001 12.4333H4.66693C3.87145 12.4333 3.27849 12.172 2.88666 11.7802C2.49482 11.3884 2.23359 10.7954 2.23359 9.99994V5.99994ZM8.46371 7.83422C8.59318 7.9119 8.59318 8.09953 8.46371 8.17721L7.4029 8.8137C7.26959 8.89368 7.1 8.79766 7.1 8.6422V7.36923C7.1 7.21377 7.26959 7.11775 7.4029 7.19773L8.46371 7.83422ZM7.94204 5.42207C7.45547 5.13013 6.76121 4.93075 6.12329 5.29878C5.48692 5.66591 5.3 6.3717 5.3 6.97542V9.10707C5.3 9.69615 5.52126 10.3476 6.12329 10.6949C6.73268 11.0465 7.41566 10.9052 7.94204 10.5894L9.71841 9.52354C9.73065 9.51619 9.74272 9.50856 9.7546 9.50064C10.2379 9.17845 10.635 8.66432 10.635 8.00571C10.635 7.34711 10.2379 6.83298 9.7546 6.51079C9.74272 6.50287 9.73065 6.49524 9.71841 6.48789L7.94204 5.42207Z" fill="url(#paint0_linear_562_407)"/>
<path d="M14.9225 10.3443C15.141 9.97036 14.8716 9.5 14.4377 9.5H11.0728C10.9741 9.50012 10.8772 9.52626 10.7918 9.57578C10.7064 9.62531 10.6356 9.69646 10.5865 9.78208C10.5374 9.8677 10.5117 9.96475 10.5121 10.0635C10.5124 10.1622 10.5388 10.259 10.5885 10.3443L12.3414 13.3443C12.3836 13.4166 12.4441 13.4767 12.5167 13.5184C12.5894 13.5601 12.6717 13.5821 12.7555 13.5821C12.8393 13.5821 12.9216 13.5601 12.9943 13.5184C13.0669 13.4767 13.1274 13.4166 13.1696 13.3443L14.9225 10.3443Z" fill="url(#paint1_linear_562_407)" stroke="url(#paint2_linear_562_407)" stroke-width="0.7"/>
<defs>
<linearGradient id="paint0_linear_562_407" x1="8.00026" y1="14.2333" x2="8.00026" y2="1.7666" gradientUnits="userSpaceOnUse">
<stop stop-color="#EC396C"/>
<stop offset="1" stop-color="#FF709A"/>
</linearGradient>
<linearGradient id="paint1_linear_562_407" x1="10.5121" y1="11.541" x2="15" y2="11.541" gradientUnits="userSpaceOnUse">
<stop stop-color="#EC396C"/>
<stop offset="1" stop-color="#FF709A"/>
</linearGradient>
<linearGradient id="paint2_linear_562_407" x1="10.5121" y1="11.541" x2="15" y2="11.541" gradientUnits="userSpaceOnUse">
<stop stop-color="#EC396C"/>
<stop offset="1" stop-color="#FF709A"/>
</linearGradient>
</defs>
</svg>
