<svg width="16" height="16" viewBox="0 0 16 16" fill="none" xmlns="http://www.w3.org/2000/svg">
<path d="M2.23889 6.27752L6.75175 9.68542L6.75326 9.68667C7.25435 10.0541 7.50505 10.238 7.77964 10.309C8.02234 10.3718 8.27746 10.3718 8.52017 10.309C8.79499 10.2379 9.04643 10.0535 9.54841 9.68542L14.0611 6.27752M13.9135 5.56777L9.77642 2.25543C9.26274 1.84415 9.00569 1.63858 8.72004 1.55695C8.468 1.48492 8.20113 1.48111 7.94719 1.54613C7.6594 1.61982 7.39698 1.81813 6.87211 2.21502L2.43804 5.56794C2.09392 5.82816 1.92208 5.95835 1.79801 6.1228C1.68812 6.26845 1.60623 6.43317 1.55634 6.60867C1.5 6.80681 1.5 7.02256 1.5 7.45399V12.0409C1.5 12.8686 1.5 13.2826 1.66107 13.5987C1.80275 13.8767 2.02865 14.1027 2.30672 14.2443C2.62252 14.4052 3.03615 14.4052 3.86216 14.4052H12.4378C13.2639 14.4052 13.6769 14.4052 13.9927 14.2443C14.2707 14.1027 14.4974 13.8766 14.6391 13.5985C14.8 13.2827 14.8 12.8695 14.8 12.0434V7.40541C14.8 6.99374 14.8 6.78663 14.7473 6.59532C14.7003 6.42472 14.6223 6.26394 14.5185 6.12064C14.4013 5.95889 14.2391 5.82848 13.9135 5.56777Z" stroke="url(#paint0_linear_592_96)" stroke-width="1.8" stroke-linecap="round" stroke-linejoin="round"/>
<defs>
<linearGradient id="paint0_linear_592_96" x1="8.18905" y1="17.0342" x2="8.18905" y2="2.7327" gradientUnits="userSpaceOnUse">
<stop stop-color="#FDA700"/>
<stop offset="1" stop-color="#FFDE00"/>
</linearGradient>
</defs>
</svg>
