<svg width="16" height="16" viewBox="0 0 16 16" fill="none" xmlns="http://www.w3.org/2000/svg">
<path d="M6.09091 6.18182H3.54545M11.0508 5.36596C11.1818 5.98005 11.1818 6.80265 11.1818 8.09091C11.1818 9.37892 11.1818 10.2015 11.0509 10.8155M11.0508 5.36596C11.0006 5.13061 10.9311 4.92588 10.835 4.7373C10.53 4.13861 10.0432 3.65185 9.44452 3.3468C8.76389 3 7.87289 3 6.09091 3C4.30892 3 3.41793 3 2.7373 3.3468C2.13861 3.65185 1.65185 4.13861 1.3468 4.7373C1 5.41793 1 6.30892 1 8.09091C1 9.87289 1 10.7639 1.3468 11.4445C1.65185 12.0432 2.13861 12.53 2.7373 12.835C3.41793 13.1818 4.30892 13.1818 6.09091 13.1818C7.87289 13.1818 8.76389 13.1818 9.44452 12.835C10.0432 12.53 10.53 12.0432 10.835 11.4445C10.9312 11.2558 11.0006 11.051 11.0509 10.8155M11.0508 5.36596L11.1818 5.30476L11.4353 5.19398C13.044 4.49107 13.8483 4.13962 14.4241 4.51643C15 4.89324 15 5.77098 15 7.52648V8.65534C15 10.4108 15 11.2886 14.4241 11.6654C13.8483 12.0422 13.044 11.6907 11.4353 10.9878L11.1818 10.8771L11.0509 10.8155" stroke="url(#paint0_linear_525_570)" stroke-width="1.8" stroke-linecap="round"/>
<defs>
<linearGradient id="paint0_linear_525_570" x1="8" y1="13.1818" x2="8" y2="3.59893" gradientUnits="userSpaceOnUse">
<stop stop-color="#18AEFA"/>
<stop offset="1" stop-color="#83E1FF"/>
</linearGradient>
</defs>
</svg>
