<svg width="16" height="16" viewBox="0 0 16 16" fill="none" xmlns="http://www.w3.org/2000/svg">
<path fill-rule="evenodd" clip-rule="evenodd" d="M2.75085 0.600098C1.50774 0.600098 0.5 1.60784 0.5 2.85094V11.104C0.5 13.1759 2.17957 14.8555 4.25141 14.8555H11.7401C13.8092 14.8555 15.4877 13.1802 15.4915 11.1111L15.5 6.6094C15.5039 4.5348 13.8232 2.85094 11.7486 2.85094H9.2191C9.11292 2.85094 9.01108 2.80872 8.93605 2.73358L7.68496 1.48066C7.12202 0.916889 6.358 0.600098 5.56129 0.600098H2.75085ZM6.62305 2.54087L7.39956 3.31851C7.39956 3.31851 8.4345 4.12316 9.21903 4.35143C10.1675 4.62741 11.7485 4.35143 11.7485 4.35143C12.9933 4.35143 14.0017 5.36175 13.9994 6.6065L13.9909 11.1082C13.9886 12.3497 12.9815 13.3548 11.7401 13.3548H4.25134C3.00823 13.3548 2.00049 12.3471 2.00049 11.104V7.00228V4.70171V2.85087C2.00049 2.4365 2.3364 2.10059 2.75077 2.10059H5.56122C5.95957 2.10059 6.34158 2.25898 6.62305 2.54087Z" fill="url(#paint0_linear_637_74)"/>
<path d="M15.4915 11.1111L15.6915 11.1115L15.6915 11.1115L15.4915 11.1111ZM15.5 6.6094L15.7 6.60977L15.7 6.60977L15.5 6.6094ZM8.93605 2.73358L8.79453 2.8749L8.79453 2.8749L8.93605 2.73358ZM7.68496 1.48066L7.82649 1.33934L7.82649 1.33934L7.68496 1.48066ZM7.39956 3.31851L7.25804 3.45983L7.2669 3.46871L7.2768 3.47641L7.39956 3.31851ZM6.62305 2.54087L6.76458 2.39955L6.76458 2.39955L6.62305 2.54087ZM9.21903 4.35143L9.16315 4.54347L9.16315 4.54347L9.21903 4.35143ZM11.7485 4.35143V4.15143H11.7312L11.7141 4.15441L11.7485 4.35143ZM13.9994 6.6065L13.7994 6.60613L13.7994 6.60613L13.9994 6.6065ZM13.9909 11.1082L13.7909 11.1078L13.7909 11.1078L13.9909 11.1082ZM0.7 2.85094C0.7 1.71829 1.6182 0.800098 2.75085 0.800098V0.400098C1.39728 0.400098 0.3 1.49738 0.3 2.85094H0.7ZM0.7 11.104V2.85094H0.3V11.104H0.7ZM4.25141 14.6555C2.29002 14.6555 0.7 13.0654 0.7 11.104H0.3C0.3 13.2863 2.06911 15.0555 4.25141 15.0555V14.6555ZM11.7401 14.6555H4.25141V15.0555H11.7401V14.6555ZM15.2915 11.1107C15.2879 13.0695 13.6989 14.6555 11.7401 14.6555V15.0555C13.9195 15.0555 15.6875 13.2909 15.6915 11.1115L15.2915 11.1107ZM15.3 6.60902L15.2915 11.1107L15.6915 11.1115L15.7 6.60977L15.3 6.60902ZM11.7486 3.05094C13.7126 3.05094 15.3037 4.64503 15.3 6.60902L15.7 6.60977C15.7041 4.42458 13.9338 2.65094 11.7486 2.65094V3.05094ZM9.2191 3.05094H11.7486V2.65094H9.2191V3.05094ZM8.79453 2.8749C8.90708 2.98761 9.05982 3.05094 9.2191 3.05094V2.65094C9.16601 2.65094 9.11509 2.62983 9.07758 2.59226L8.79453 2.8749ZM7.54344 1.62198L8.79453 2.8749L9.07758 2.59226L7.82649 1.33934L7.54344 1.62198ZM5.56129 0.800098C6.30491 0.800098 7.01801 1.09578 7.54344 1.62198L7.82649 1.33934C7.22602 0.738 6.4111 0.400098 5.56129 0.400098V0.800098ZM2.75085 0.800098H5.56129V0.400098H2.75085V0.800098ZM7.54109 3.1772L6.76458 2.39955L6.48153 2.68218L7.25804 3.45983L7.54109 3.1772ZM9.2749 4.1594C8.91202 4.05381 8.47748 3.80918 8.12336 3.58121C7.94866 3.46874 7.79781 3.36315 7.6907 3.28572C7.6372 3.24705 7.59474 3.21549 7.56582 3.19373C7.55137 3.18285 7.5403 3.17443 7.53295 3.16879C7.52927 3.16598 7.52652 3.16386 7.52474 3.16249C7.52384 3.1618 7.52319 3.16129 7.52279 3.16098C7.52259 3.16083 7.52245 3.16072 7.52237 3.16066C7.52233 3.16063 7.52231 3.16061 7.5223 3.1606C7.5223 3.1606 7.5223 3.1606 7.5223 3.1606C7.52231 3.16061 7.52232 3.16062 7.39956 3.31851C7.2768 3.47641 7.27683 3.47642 7.27685 3.47644C7.27687 3.47645 7.2769 3.47648 7.27692 3.4765C7.27698 3.47654 7.27705 3.4766 7.27714 3.47666C7.27731 3.4768 7.27755 3.47698 7.27784 3.47721C7.27844 3.47768 7.27929 3.47833 7.28038 3.47917C7.28256 3.48085 7.28571 3.48328 7.28981 3.48642C7.298 3.49268 7.30994 3.50177 7.32531 3.51334C7.35606 3.53648 7.40058 3.56957 7.45636 3.60989C7.56782 3.69047 7.72473 3.80031 7.90684 3.91754C8.26632 4.14896 8.74151 4.42079 9.16315 4.54347L9.2749 4.1594ZM11.7485 4.35143C11.7141 4.15441 11.7141 4.15441 11.7142 4.1544C11.7142 4.15441 11.7142 4.1544 11.7142 4.15441C11.7141 4.15441 11.7141 4.15441 11.714 4.15442C11.7139 4.15445 11.7137 4.15448 11.7134 4.15454C11.7128 4.15464 11.7118 4.15481 11.7104 4.15505C11.7077 4.15551 11.7035 4.15622 11.6979 4.15715C11.6867 4.159 11.6699 4.16172 11.648 4.16512C11.6043 4.17192 11.5403 4.18141 11.4604 4.19197C11.3006 4.21311 11.0777 4.23848 10.8261 4.25537C10.3159 4.28963 9.71336 4.28697 9.2749 4.1594L9.16315 4.54347C9.67318 4.69187 10.3354 4.68921 10.8529 4.65447C11.115 4.63687 11.3467 4.61049 11.5129 4.58851C11.5961 4.57752 11.663 4.56759 11.7094 4.56038C11.7327 4.55677 11.7508 4.55384 11.7632 4.55178C11.7694 4.55075 11.7742 4.54995 11.7775 4.54938C11.7791 4.5491 11.7804 4.54888 11.7813 4.54872C11.7818 4.54865 11.7821 4.54858 11.7824 4.54854C11.7825 4.54852 11.7826 4.5485 11.7827 4.54848C11.7828 4.54848 11.7828 4.54847 11.7828 4.54846C11.7829 4.54846 11.7829 4.54845 11.7485 4.35143ZM14.1994 6.60688C14.2019 5.25152 13.1039 4.15143 11.7485 4.15143V4.55143C12.8827 4.55143 13.8015 5.47197 13.7994 6.60613L14.1994 6.60688ZM14.1909 11.1086L14.1994 6.60688L13.7994 6.60613L13.7909 11.1078L14.1909 11.1086ZM11.7401 13.5548C13.0918 13.5548 14.1884 12.4603 14.1909 11.1086L13.7909 11.1078C13.7888 12.239 12.8712 13.1548 11.7401 13.1548V13.5548ZM4.25134 13.5548H11.7401V13.1548H4.25134V13.5548ZM1.80049 11.104C1.80049 12.4575 2.89777 13.5548 4.25134 13.5548V13.1548C3.11868 13.1548 2.20049 12.2366 2.20049 11.104H1.80049ZM1.80049 7.00228V11.104H2.20049V7.00228H1.80049ZM1.80049 4.70171V7.00228H2.20049V4.70171H1.80049ZM1.80049 2.85087V4.70171H2.20049V2.85087H1.80049ZM2.75077 1.90059C2.22594 1.90059 1.80049 2.32604 1.80049 2.85087H2.20049C2.20049 2.54696 2.44686 2.30059 2.75077 2.30059V1.90059ZM5.56122 1.90059H2.75077V2.30059H5.56122V1.90059ZM6.76458 2.39955C6.44559 2.08009 6.01267 1.90059 5.56122 1.90059V2.30059C5.90648 2.30059 6.23757 2.43787 6.48153 2.68218L6.76458 2.39955Z" fill="url(#paint1_linear_637_74)"/>
<path fill-rule="evenodd" clip-rule="evenodd" d="M10.4355 10.2695V9.52372H9.38496C9.29531 9.52372 9.25049 9.52372 9.21274 9.52748C8.85026 9.56353 8.56353 9.85026 8.52748 10.2127C8.52373 10.2505 8.52372 10.2953 8.52372 10.385C8.52372 10.4919 8.52372 10.5454 8.52848 10.5879C8.57466 10.9999 8.94084 11.3001 9.35396 11.2646C9.39652 11.2609 9.44896 11.2504 9.55386 11.2295L9.66709 11.2068C9.81255 11.1777 9.88528 11.1632 9.94665 11.1394C10.1971 11.0426 10.3784 10.8214 10.4242 10.5569C10.4355 10.492 10.4355 10.4179 10.4355 10.2695ZM6.61196 11.0342V10.2884H5.56143C5.47179 10.2884 5.42696 10.2884 5.38921 10.2922C5.02673 10.3282 4.74 10.615 4.70395 10.9774C4.7002 11.0152 4.7002 11.06 4.7002 11.1497C4.7002 11.2566 4.7002 11.3101 4.70495 11.3526C4.75113 11.7646 5.11731 12.0648 5.53043 12.0293C5.57298 12.0256 5.62547 12.0151 5.73033 11.9942L5.84354 11.9715C5.98901 11.9424 6.06175 11.9279 6.12312 11.9041C6.37356 11.8073 6.55485 11.5861 6.60072 11.3216C6.61196 11.2567 6.61196 11.1826 6.61196 11.0342Z" fill="url(#paint2_linear_637_74)"/>
<path d="M6.61196 10.2884V8.37667M6.61196 10.2884V11.0342M6.61196 10.2884H5.56143M10.4355 9.52372V7.61196M10.4355 9.52372V10.2695M10.4355 9.52372H9.38496M10.4355 7.61196L6.61196 8.37667M10.4355 7.61196C10.4355 7.61196 10.4355 6.27106 10.1556 6.04161C9.87571 5.81215 9.45252 5.89679 8.60614 6.06607M10.4355 7.61196V7.56578C10.4355 7.42238 10.4355 7.35068 10.4308 7.29364C10.3662 6.50445 9.66044 5.92589 8.87391 6.01728C8.81705 6.02388 8.74675 6.03794 8.60614 6.06607V6.06607M6.61196 8.37667V7.71872M6.61196 7.71872C6.61196 7.11852 6.61196 6.81842 6.78529 6.60699C6.95861 6.39557 7.25289 6.33672 7.84143 6.21901M6.61196 7.71872V7.71872C6.61196 7.61836 6.61196 7.56818 6.61478 7.52382C6.65292 6.92377 7.06995 6.41508 7.65087 6.26C7.69381 6.24853 7.74302 6.23869 7.84143 6.21901V6.21901M6.61196 7.71872V11.0342M7.84143 6.21901L8.60614 6.06607M10.4355 10.2695C10.4355 10.4179 10.4355 10.492 10.4242 10.5569C10.3784 10.8214 10.1971 11.0426 9.94665 11.1394C9.88528 11.1632 9.81255 11.1777 9.66709 11.2068M10.4355 10.2695V10.2695C10.4355 10.7251 10.1139 11.1175 9.66709 11.2068V11.2068M9.66709 11.2068L9.55386 11.2295M9.55386 11.2295C9.44896 11.2504 9.39652 11.2609 9.35396 11.2646C8.94084 11.3001 8.57466 10.9999 8.52848 10.5879C8.52372 10.5454 8.52372 10.4919 8.52372 10.385M9.55386 11.2295V11.2295C9.02093 11.336 8.52372 10.9284 8.52372 10.385V10.385M8.52372 10.385C8.52372 10.2953 8.52373 10.2505 8.52748 10.2127C8.56353 9.85026 8.85026 9.56353 9.21274 9.52748C9.25049 9.52372 9.29531 9.52372 9.38496 9.52372M8.52372 10.385V10.385C8.52372 9.90931 8.90931 9.52372 9.38496 9.52372V9.52372M6.61196 11.0342C6.61196 11.1826 6.61196 11.2567 6.60072 11.3216C6.55485 11.5861 6.37356 11.8073 6.12312 11.9041C6.06175 11.9279 5.98901 11.9424 5.84354 11.9715M6.61196 11.0342V11.0342C6.61196 11.4899 6.29034 11.8822 5.84354 11.9715V11.9715M5.84354 11.9715L5.73033 11.9942M5.73033 11.9942C5.62547 12.0151 5.57298 12.0256 5.53043 12.0293C5.11731 12.0648 4.75113 11.7646 4.70495 11.3526C4.7002 11.3101 4.7002 11.2566 4.7002 11.1497M5.73033 11.9942V11.9942C5.19741 12.1008 4.7002 11.6931 4.7002 11.1497V11.1497M4.7002 11.1497C4.7002 11.06 4.7002 11.0152 4.70395 10.9774C4.74 10.615 5.02673 10.3282 5.38921 10.2922C5.42696 10.2884 5.47179 10.2884 5.56143 10.2884M4.7002 11.1497V11.1497C4.7002 10.674 5.08578 10.2884 5.56143 10.2884V10.2884" stroke="url(#paint3_linear_637_74)"/>
<defs>
<linearGradient id="paint0_linear_637_74" x1="8" y1="14.8555" x2="8" y2="0.600098" gradientUnits="userSpaceOnUse">
<stop stop-color="#A93AFF"/>
<stop offset="1" stop-color="#FF81FF"/>
</linearGradient>
<linearGradient id="paint1_linear_637_74" x1="8" y1="14.8555" x2="8" y2="0.600098" gradientUnits="userSpaceOnUse">
<stop stop-color="#A93AFF"/>
<stop offset="1" stop-color="#FF81FF"/>
</linearGradient>
<linearGradient id="paint2_linear_637_74" x1="7.56784" y1="12.2002" x2="7.56784" y2="5.7002" gradientUnits="userSpaceOnUse">
<stop stop-color="#A93AFF"/>
<stop offset="1" stop-color="#FF81FF"/>
</linearGradient>
<linearGradient id="paint3_linear_637_74" x1="7.56784" y1="12.2002" x2="7.56784" y2="5.7002" gradientUnits="userSpaceOnUse">
<stop stop-color="#A93AFF"/>
<stop offset="1" stop-color="#FF81FF"/>
</linearGradient>
</defs>
</svg>
