<svg width="16" height="16" viewBox="0 0 16 16" fill="none" xmlns="http://www.w3.org/2000/svg">
<path fill-rule="evenodd" clip-rule="evenodd" d="M0.5 3.25085C0.5 2.00774 1.50774 1 2.75085 1H5.56129C6.358 1 7.12202 1.31679 7.68496 1.88056L8.93605 3.13348C9.01108 3.20862 9.11291 3.25085 9.2191 3.25085H11.7486C13.8232 3.25085 15.5039 4.93471 15.5 7.0093L15.4915 11.511C15.4877 13.5801 13.8092 15.2554 11.7401 15.2554H4.25141C2.17957 15.2554 0.5 13.5758 0.5 11.5039V3.25085ZM7.39964 4.28376C7.55557 4.1276 7.55557 3.87465 7.39964 3.71849L6.62313 2.94084C6.34165 2.65896 5.95965 2.50056 5.56129 2.50056H2.75085C2.33648 2.50056 2.00056 2.83648 2.00056 3.25085V5.10169C2.00056 5.32261 2.17965 5.50169 2.40056 5.50169H5.56129C5.95965 5.50169 6.34165 5.3433 6.62313 5.06141L7.39964 4.28376ZM2.40056 7.00226C2.17965 7.00226 2.00056 7.18134 2.00056 7.40226V11.5039C2.00056 12.7471 3.0083 13.7548 4.25141 13.7548H11.7401C12.9816 13.7548 13.9887 12.7496 13.991 11.5082L13.9994 7.00648C14.0018 5.76172 12.9934 4.75141 11.7486 4.75141H9.2191C9.11292 4.75141 9.01109 4.79363 8.93605 4.86877L7.68496 6.1217C7.12202 6.68546 6.358 7.00226 5.56129 7.00226H2.40056Z" fill="url(#paint0_linear_638_126)" stroke="url(#paint1_linear_638_126)" stroke-width="0.3"/>
<defs>
<linearGradient id="paint0_linear_638_126" x1="8" y1="15.2554" x2="8" y2="1" gradientUnits="userSpaceOnUse">
<stop stop-color="#FD5900"/>
<stop offset="1" stop-color="#FFDE00"/>
</linearGradient>
<linearGradient id="paint1_linear_638_126" x1="8" y1="15.2554" x2="8" y2="1" gradientUnits="userSpaceOnUse">
<stop stop-color="#FD5900"/>
<stop offset="1" stop-color="#FFDE00"/>
</linearGradient>
</defs>
</svg>
