<svg width="16" height="16" viewBox="0 0 16 16" fill="none" xmlns="http://www.w3.org/2000/svg">
<path fill-rule="evenodd" clip-rule="evenodd" d="M4.00567 4.22423C4.00567 3.35481 4.71048 2.65 5.5799 2.65C6.44932 2.65 7.15412 3.35481 7.15412 4.22423C7.15412 5.09365 6.44932 5.79845 5.5799 5.79845C4.71048 5.79845 4.00567 5.09365 4.00567 4.22423ZM5.5799 0.85C3.71636 0.85 2.20567 2.36069 2.20567 4.22423C2.20567 6.08776 3.71636 7.59845 5.5799 7.59845C7.44343 7.59845 8.95412 6.08776 8.95412 4.22423C8.95412 2.36069 7.44343 0.85 5.5799 0.85ZM4.21907 8.27268C2.08224 8.27268 0.35 10.0049 0.35 12.1418C0.35 13.732 1.63914 15.0211 3.22938 15.0211H7.93041C9.52065 15.0211 10.8098 13.732 10.8098 12.1418C10.8098 10.0049 9.07755 8.27268 6.94072 8.27268H4.21907ZM2.15 12.1418C2.15 10.999 3.07636 10.0727 4.21907 10.0727H6.94072C8.08344 10.0727 9.00979 10.999 9.00979 12.1418C9.00979 12.7379 8.52654 13.2211 7.93041 13.2211H3.22938C2.63326 13.2211 2.15 12.7379 2.15 12.1418Z" fill="url(#paint0_linear_488_566)"/>
<path fill-rule="evenodd" clip-rule="evenodd" d="M9.91016 0.85C9.4131 0.85 9.01016 1.25294 9.01016 1.75C9.01016 2.24706 9.4131 2.65 9.91016 2.65C10.7796 2.65 11.4844 3.35481 11.4844 4.22423C11.4844 5.09365 10.7796 5.79845 9.91016 5.79845C9.4131 5.79845 9.01016 6.2014 9.01016 6.69845C9.01016 7.19551 9.4131 7.59845 9.91016 7.59845C11.7737 7.59845 13.2844 6.08776 13.2844 4.22423C13.2844 2.36069 11.7737 0.85 9.91016 0.85ZM11.147 8.27285C10.6499 8.27285 10.247 8.6758 10.247 9.17285C10.247 9.66991 10.6499 10.0729 11.147 10.0729H11.8892C13.032 10.0729 13.9583 10.9992 13.9583 12.1419C13.9583 12.7381 13.4751 13.2213 12.8789 13.2213H11.147C10.6499 13.2213 10.247 13.6242 10.247 14.1213C10.247 14.6184 10.6499 15.0213 11.147 15.0213H12.8789C14.4692 15.0213 15.7583 13.7322 15.7583 12.1419C15.7583 10.0051 14.0261 8.27285 11.8892 8.27285H11.147Z" fill="url(#paint1_linear_488_566)"/>
<defs>
<linearGradient id="paint0_linear_488_566" x1="3.03995" y1="13.8803" x2="12.215" y2="6.0401" gradientUnits="userSpaceOnUse">
<stop stop-color="#A056FF"/>
<stop offset="1" stop-color="#C59AFD"/>
</linearGradient>
<linearGradient id="paint1_linear_488_566" x1="10.7722" y1="13.8805" x2="18.5576" y2="9.65824" gradientUnits="userSpaceOnUse">
<stop stop-color="#A056FF"/>
<stop offset="1" stop-color="#C59AFD"/>
</linearGradient>
</defs>
</svg>
