<svg width="16" height="16" viewBox="0 0 16 16" fill="none" xmlns="http://www.w3.org/2000/svg">
<path fill-rule="evenodd" clip-rule="evenodd" d="M5.10377 2.31256C5.03714 2.30242 4.96012 2.30003 4.61958 2.30003H4.1C3.5251 2.30003 3.14805 2.30073 2.85969 2.32429C2.58185 2.34699 2.4665 2.38635 2.40061 2.41993C2.19363 2.52539 2.02535 2.69367 1.91989 2.90064C1.88632 2.96653 1.84696 3.08188 1.82426 3.35973C1.8007 3.64808 1.8 4.02513 1.8 4.60003V8.1475C1.8 8.16403 1.82335 8.16745 1.82809 8.15161V8.15161C2.03164 7.46995 2.20258 6.89749 2.55781 6.45393C2.86873 6.06569 3.27428 5.76396 3.73549 5.57771C4.26242 5.36492 4.85986 5.36569 5.57126 5.36661L5.71421 5.36673H11.1991L11.2401 5.36673H11.2401V5.36673C11.3024 5.36673 11.3528 5.31574 11.3517 5.25346C11.3451 4.89109 11.3293 4.76264 11.2964 4.6664C11.1863 4.34441 10.9334 4.09149 10.6114 3.98141C10.4741 3.93446 10.2712 3.92226 9.41667 3.92226H8.53597L8.48506 3.92227H8.48505C8.22153 3.92241 7.99959 3.92252 7.78093 3.88923C7.3168 3.81859 6.87677 3.63632 6.49863 3.35809C6.32048 3.22701 6.16362 3.06999 5.97738 2.88356L5.94138 2.84754C5.70059 2.60674 5.64444 2.55397 5.59016 2.51403C5.44672 2.40849 5.27981 2.33936 5.10377 2.31256ZM2.85969 13.4536C3.08788 13.4722 3.3716 13.4765 3.76496 13.4775H10.6858C11.6195 13.4775 11.8317 13.4616 11.9905 13.3975C12.1655 13.3268 12.3193 13.2124 12.4372 13.0651C12.5443 12.9315 12.6205 12.7328 12.8888 11.8384L13.402 10.1277C13.6163 9.41348 13.7589 8.93509 13.8348 8.56554C13.9095 8.20135 13.8937 8.05229 13.8729 7.97629C13.7999 7.70976 13.6293 7.48046 13.395 7.33398C13.3282 7.29221 13.1899 7.23427 12.8196 7.20117C12.4439 7.16758 11.9447 7.16673 11.1991 7.16673H5.71421C4.78052 7.16673 4.56826 7.18264 4.40949 7.24676C4.23455 7.3174 4.08072 7.43186 3.96278 7.57912C3.85575 7.71276 3.77952 7.9115 3.51121 8.80581L2.38 12.5764C2.33117 12.7391 2.29137 12.8724 2.25934 12.9843C2.2178 13.1294 2.2661 13.2894 2.40061 13.3579V13.3579C2.4665 13.3915 2.58185 13.4309 2.85969 13.4536ZM4.06342 15.2778C3.94974 15.2778 3.83969 15.2778 3.73328 15.2775H3.05048L3.01528 15.2775C2.68119 15.2775 2.37321 15.2776 2.11999 15.2549C1.85244 15.231 1.53494 15.1749 1.23692 14.9886C0.832188 14.7356 0.537505 14.3396 0.411477 13.8792V13.8792C0.407548 13.8644 0.401573 13.8503 0.393875 13.837C0.366673 13.7903 0.340727 13.7428 0.316082 13.6944C0.131668 13.3325 0.0620344 12.9539 0.0302387 12.5647C-2.61553e-05 12.1943 -1.41267e-05 11.7431 0 11.2132V11.2132V11.1778V4.60003V4.56463V4.5646C-1.41267e-05 4.03474 -2.6155e-05 3.58357 0.0302387 3.21315C0.0620344 2.82399 0.131669 2.44539 0.316082 2.08346C0.594115 1.53779 1.03776 1.09415 1.58343 0.816115C1.94536 0.631701 2.32396 0.562067 2.71312 0.530271C3.08355 0.500006 3.53473 0.500018 4.0646 0.500033L4.1 0.500034H4.61958L4.6705 0.500017C4.93402 0.499884 5.15596 0.499772 5.37463 0.533055C5.83875 0.603701 6.27879 0.785969 6.65693 1.0642C6.83508 1.19528 6.99194 1.3523 7.17818 1.53873L7.21418 1.57475C7.45497 1.81555 7.51112 1.86832 7.5654 1.90826C7.70883 2.0138 7.87574 2.08293 8.05179 2.10973C8.11842 2.11987 8.19544 2.12226 8.53597 2.12226H9.41667L9.55108 2.12216C10.1977 2.12143 10.7334 2.12083 11.1937 2.2782C12.0426 2.56843 12.7094 3.2352 12.9996 4.08409C13.0808 4.32168 13.12 4.57939 13.1387 4.86207C13.1526 5.0706 13.1595 5.17486 13.1912 5.24275C13.224 5.31314 13.2524 5.34794 13.3147 5.39435C13.3747 5.43912 13.4864 5.47003 13.7097 5.53185C13.9315 5.59326 14.1461 5.68078 14.3491 5.80766C14.9669 6.19382 15.4166 6.79835 15.609 7.50101C15.7397 7.97833 15.6949 8.45498 15.598 8.92722C15.5041 9.38509 15.3373 9.94096 15.1379 10.6056L15.1261 10.6449L14.6129 12.3557L14.5719 12.4926C14.3684 13.1743 14.1974 13.7468 13.8422 14.1903C13.5313 14.5786 13.1257 14.8803 12.6645 15.0665C12.1376 15.2793 11.5401 15.2786 10.8287 15.2776L10.6858 15.2775H10.6565L10.6333 15.2778H4.1H4.06459H4.06342ZM5.7667 9.4224C5.26964 9.4224 4.8667 9.82534 4.8667 10.3224C4.8667 10.8195 5.26964 11.2224 5.7667 11.2224H10.6334C11.1304 11.2224 11.5334 10.8195 11.5334 10.3224C11.5334 9.82534 11.1304 9.4224 10.6334 9.4224H5.7667Z" fill="url(#paint0_linear_520_136)"/>
<defs>
<linearGradient id="paint0_linear_520_136" x1="7.84505" y1="15.2778" x2="7.84505" y2="0.5" gradientUnits="userSpaceOnUse">
<stop stop-color="#5570FF"/>
<stop offset="1" stop-color="#4DD3FF"/>
</linearGradient>
</defs>
</svg>
