<svg width="16" height="16" viewBox="0 0 16 16" fill="none" xmlns="http://www.w3.org/2000/svg">
<path fill-rule="evenodd" clip-rule="evenodd" d="M2.75085 0.600098C1.50774 0.600098 0.5 1.60784 0.5 2.85094V11.104C0.5 13.1759 2.17957 14.8555 4.25141 14.8555H11.7401C13.8092 14.8555 15.4877 13.1802 15.4915 11.1111L15.5 6.6094C15.5039 4.5348 13.8232 2.85094 11.7486 2.85094H9.2191C9.11292 2.85094 9.01108 2.80872 8.93605 2.73358L7.68496 1.48066C7.12202 0.916889 6.358 0.600098 5.56129 0.600098H2.75085ZM6.62305 2.54087L7.39956 3.31851C7.39956 3.31851 8.4345 4.12316 9.21903 4.35143C10.1675 4.62741 11.7485 4.35143 11.7485 4.35143C12.9933 4.35143 14.0017 5.36175 13.9994 6.6065L13.9909 11.1082C13.9886 12.3497 12.9815 13.3548 11.7401 13.3548H4.25134C3.00823 13.3548 2.00049 12.3471 2.00049 11.104V7.00228V4.70171V2.85087C2.00049 2.4365 2.3364 2.10059 2.75077 2.10059H5.56122C5.95957 2.10059 6.34158 2.25898 6.62305 2.54087ZM7.69262 8.23073H11.3848C11.7242 8.23073 12.0002 7.95504 12.0002 7.61535C12.0002 7.27569 11.7242 7 11.3848 7H7.69262C7.35321 7 7.07715 7.27569 7.07715 7.61535C7.07715 7.95504 7.35321 8.23073 7.69262 8.23073ZM5.84609 8.23073H4.61538C4.27578 8.23073 4 7.95504 4 7.61535C4 7.27569 4.27578 7 4.61538 7H5.84609C6.18568 7 6.46144 7.27569 6.46144 7.61535C6.46144 7.95504 6.18568 8.23073 5.84609 8.23073ZM4.61551 10.5768H8.30761C8.64703 10.5768 8.92312 10.3011 8.92312 9.96144C8.92312 9.62175 8.64703 9.34609 8.30761 9.34609H4.61551C4.27609 9.34609 4 9.62175 4 9.96144C4 10.3011 4.27609 10.5768 4.61551 10.5768ZM11.3844 10.5768H10.1536C9.81406 10.5768 9.53828 10.3011 9.53828 9.96144C9.53828 9.62175 9.81406 9.34609 10.1536 9.34609H11.3844C11.724 9.34609 11.9997 9.62175 11.9997 9.96144C11.9997 10.3011 11.724 10.5768 11.3844 10.5768Z" fill="url(#paint0_linear_620_209)"/>
<path d="M15.4915 11.1111L15.6915 11.1115L15.4915 11.1111ZM15.5 6.6094L15.7 6.60977L15.5 6.6094ZM8.93605 2.73358L8.79453 2.8749L8.93605 2.73358ZM7.68496 1.48066L7.82649 1.33934V1.33934L7.68496 1.48066ZM7.39956 3.31851L7.25804 3.45983L7.2669 3.46871L7.2768 3.47641L7.39956 3.31851ZM6.62305 2.54087L6.76458 2.39955L6.62305 2.54087ZM9.21903 4.35143L9.16315 4.54347L9.21903 4.35143ZM11.7485 4.35143V4.15143H11.7312L11.7141 4.15441L11.7485 4.35143ZM13.9994 6.6065L13.7994 6.60613L13.9994 6.6065ZM13.9909 11.1082L13.7909 11.1078L13.9909 11.1082ZM0.7 2.85094C0.7 1.71829 1.6182 0.800098 2.75085 0.800098V0.400098C1.39728 0.400098 0.3 1.49738 0.3 2.85094H0.7ZM0.7 11.104V2.85094H0.3V11.104H0.7ZM4.25141 14.6555C2.29002 14.6555 0.7 13.0654 0.7 11.104H0.3C0.3 13.2863 2.06911 15.0555 4.25141 15.0555V14.6555ZM11.7401 14.6555H4.25141V15.0555H11.7401V14.6555ZM15.2915 11.1107C15.2879 13.0695 13.6989 14.6555 11.7401 14.6555V15.0555C13.9195 15.0555 15.6875 13.2909 15.6915 11.1115L15.2915 11.1107ZM15.3 6.60902L15.2915 11.1107L15.6915 11.1115L15.7 6.60977L15.3 6.60902ZM11.7486 3.05094C13.7126 3.05094 15.3037 4.64503 15.3 6.60902L15.7 6.60977C15.7041 4.42458 13.9338 2.65094 11.7486 2.65094V3.05094ZM9.2191 3.05094H11.7486V2.65094H9.2191V3.05094ZM8.79453 2.8749C8.90708 2.98761 9.05982 3.05094 9.2191 3.05094V2.65094C9.16601 2.65094 9.11509 2.62983 9.07758 2.59226L8.79453 2.8749ZM7.54344 1.62198L8.79453 2.8749L9.07758 2.59226L7.82649 1.33934L7.54344 1.62198ZM5.56129 0.800098C6.30491 0.800098 7.01801 1.09578 7.54344 1.62198L7.82649 1.33934C7.22602 0.738 6.4111 0.400098 5.56129 0.400098V0.800098ZM2.75085 0.800098H5.56129V0.400098H2.75085V0.800098ZM7.54109 3.1772L6.76458 2.39955L6.48153 2.68218L7.25804 3.45983L7.54109 3.1772ZM9.2749 4.1594C8.91202 4.05381 8.47748 3.80918 8.12336 3.58121C7.94866 3.46874 7.79781 3.36315 7.6907 3.28572C7.6372 3.24705 7.59474 3.21549 7.56582 3.19373C7.55137 3.18285 7.5403 3.17443 7.53295 3.16879C7.52927 3.16598 7.52652 3.16386 7.52474 3.16249C7.52384 3.1618 7.52319 3.16129 7.52279 3.16098C7.52259 3.16083 7.52245 3.16072 7.52237 3.16066C7.52233 3.16063 7.52231 3.16061 7.5223 3.1606C7.5223 3.1606 7.5223 3.1606 7.5223 3.1606C7.52231 3.16061 7.52232 3.16062 7.39956 3.31851C7.2768 3.47641 7.27683 3.47642 7.27685 3.47644C7.27687 3.47645 7.2769 3.47648 7.27692 3.4765C7.27698 3.47654 7.27705 3.4766 7.27714 3.47666C7.27731 3.4768 7.27755 3.47698 7.27784 3.47721C7.27844 3.47768 7.27929 3.47833 7.28038 3.47917C7.28256 3.48085 7.28572 3.48328 7.28981 3.48642C7.298 3.49268 7.30994 3.50177 7.32531 3.51334C7.35606 3.53648 7.40058 3.56957 7.45636 3.60989C7.56782 3.69047 7.72473 3.80031 7.90684 3.91754C8.26632 4.14896 8.74151 4.42079 9.16315 4.54347L9.2749 4.1594ZM11.7485 4.35143C11.7141 4.15441 11.7141 4.15441 11.7142 4.1544C11.7142 4.15441 11.7142 4.1544 11.7142 4.15441C11.7141 4.15441 11.7141 4.15441 11.714 4.15442C11.7139 4.15445 11.7137 4.15448 11.7134 4.15454C11.7128 4.15464 11.7118 4.15481 11.7104 4.15505C11.7077 4.15551 11.7035 4.15622 11.6979 4.15715C11.6867 4.159 11.6699 4.16172 11.648 4.16512C11.6043 4.17192 11.5403 4.18141 11.4604 4.19197C11.3006 4.21311 11.0777 4.23848 10.8261 4.25537C10.3159 4.28963 9.71336 4.28697 9.2749 4.1594L9.16315 4.54347C9.67318 4.69187 10.3354 4.68921 10.8529 4.65447C11.115 4.63687 11.3467 4.61049 11.5129 4.58851C11.5961 4.57752 11.663 4.56759 11.7094 4.56038C11.7327 4.55677 11.7508 4.55384 11.7632 4.55178C11.7694 4.55075 11.7742 4.54995 11.7775 4.54938C11.7791 4.5491 11.7804 4.54888 11.7813 4.54872C11.7818 4.54865 11.7821 4.54858 11.7824 4.54854C11.7825 4.54852 11.7826 4.5485 11.7827 4.54848C11.7828 4.54848 11.7828 4.54847 11.7828 4.54846C11.7829 4.54846 11.7829 4.54845 11.7485 4.35143ZM14.1994 6.60688C14.2019 5.25152 13.1039 4.15143 11.7485 4.15143V4.55143C12.8827 4.55143 13.8015 5.47197 13.7994 6.60613L14.1994 6.60688ZM14.1909 11.1086L14.1994 6.60688L13.7994 6.60613L13.7909 11.1078L14.1909 11.1086ZM11.7401 13.5548C13.0918 13.5548 14.1884 12.4603 14.1909 11.1086L13.7909 11.1078C13.7888 12.239 12.8712 13.1548 11.7401 13.1548V13.5548ZM4.25134 13.5548H11.7401V13.1548H4.25134V13.5548ZM1.80049 11.104C1.80049 12.4575 2.89777 13.5548 4.25134 13.5548V13.1548C3.11868 13.1548 2.20049 12.2366 2.20049 11.104H1.80049ZM1.80049 7.00228V11.104H2.20049V7.00228H1.80049ZM1.80049 4.70171V7.00228H2.20049V4.70171H1.80049ZM1.80049 2.85087V4.70171H2.20049V2.85087H1.80049ZM2.75077 1.90059C2.22594 1.90059 1.80049 2.32604 1.80049 2.85087H2.20049C2.20049 2.54696 2.44686 2.30059 2.75077 2.30059V1.90059ZM5.56122 1.90059H2.75077V2.30059H5.56122V1.90059ZM6.76458 2.39955C6.44559 2.08009 6.01267 1.90059 5.56122 1.90059V2.30059C5.90648 2.30059 6.23757 2.43787 6.48153 2.68218L6.76458 2.39955ZM11.3848 8.03073H7.69262V8.43073H11.3848V8.03073ZM11.8002 7.61535C11.8002 7.84449 11.6138 8.03073 11.3848 8.03073V8.43073C11.8345 8.43073 12.2002 8.0656 12.2002 7.61535H11.8002ZM11.3848 7.2C11.6138 7.2 11.8002 7.38625 11.8002 7.61535H12.2002C12.2002 7.16513 11.8345 6.8 11.3848 6.8V7.2ZM7.69262 7.2H11.3848V6.8H7.69262V7.2ZM7.27715 7.61535C7.27715 7.38625 7.46356 7.2 7.69262 7.2V6.8C7.24286 6.8 6.87715 7.16513 6.87715 7.61535H7.27715ZM7.69262 8.03073C7.46357 8.03073 7.27715 7.84449 7.27715 7.61535H6.87715C6.87715 8.0656 7.24285 8.43073 7.69262 8.43073V8.03073ZM4.61538 8.43073H5.84609V8.03073H4.61538V8.43073ZM3.8 7.61535C3.8 8.06552 4.16535 8.43073 4.61538 8.43073V8.03073C4.38622 8.03073 4.2 7.84457 4.2 7.61535H3.8ZM4.61538 6.8C4.16535 6.8 3.8 7.16521 3.8 7.61535H4.2C4.2 7.38617 4.38621 7.2 4.61538 7.2V6.8ZM5.84609 6.8H4.61538V7.2H5.84609V6.8ZM6.66144 7.61535C6.66144 7.16522 6.29613 6.8 5.84609 6.8V7.2C6.07524 7.2 6.26144 7.38616 6.26144 7.61535H6.66144ZM5.84609 8.43073C6.29613 8.43073 6.66144 8.06551 6.66144 7.61535H6.26144C6.26144 7.84458 6.07523 8.03073 5.84609 8.03073V8.43073ZM8.30761 10.3768H4.61551V10.7768H8.30761V10.3768ZM8.72312 9.96144C8.72312 10.1906 8.53669 10.3768 8.30761 10.3768V10.7768C8.75736 10.7768 9.12312 10.4117 9.12312 9.96144H8.72312ZM8.30761 9.54609C8.5367 9.54609 8.72312 9.73234 8.72312 9.96144H9.12312C9.12312 9.51117 8.75736 9.14609 8.30761 9.14609V9.54609ZM4.61551 9.54609H8.30761V9.14609H4.61551V9.54609ZM4.2 9.96144C4.2 9.73233 4.38642 9.54609 4.61551 9.54609V9.14609C4.16576 9.14609 3.8 9.51117 3.8 9.96144H4.2ZM4.61551 10.3768C4.38642 10.3768 4.2 10.1906 4.2 9.96144H3.8C3.8 10.4117 4.16576 10.7768 4.61551 10.7768V10.3768ZM10.1536 10.7768H11.3844V10.3768H10.1536V10.7768ZM9.33828 9.96144C9.33828 10.4116 9.70363 10.7768 10.1536 10.7768V10.3768C9.9245 10.3768 9.73828 10.1907 9.73828 9.96144H9.33828ZM10.1536 9.14609C9.70363 9.14609 9.33828 9.51127 9.33828 9.96144H9.73828C9.73828 9.73224 9.9245 9.54609 10.1536 9.54609V9.14609ZM11.3844 9.14609H10.1536V9.54609H11.3844V9.14609ZM12.1997 9.96144C12.1997 9.51128 11.8344 9.14609 11.3844 9.14609V9.54609C11.6135 9.54609 11.7997 9.73223 11.7997 9.96144H12.1997ZM11.3844 10.7768C11.8344 10.7768 12.1997 10.4116 12.1997 9.96144H11.7997C11.7997 10.1907 11.6135 10.3768 11.3844 10.3768V10.7768Z" fill="url(#paint1_linear_620_209)"/>
<defs>
<linearGradient id="paint0_linear_620_209" x1="8" y1="14.8555" x2="8" y2="1.43865" gradientUnits="userSpaceOnUse">
<stop stop-color="#18AEFA"/>
<stop offset="1" stop-color="#83E1FF"/>
</linearGradient>
<linearGradient id="paint1_linear_620_209" x1="8" y1="14.8555" x2="8" y2="1.43865" gradientUnits="userSpaceOnUse">
<stop stop-color="#18AEFA"/>
<stop offset="1" stop-color="#83E1FF"/>
</linearGradient>
</defs>
</svg>
