<svg width="16" height="16" viewBox="0 0 16 16" fill="none" xmlns="http://www.w3.org/2000/svg">
<path fill-rule="evenodd" clip-rule="evenodd" d="M2.75085 0.600098C1.50774 0.600098 0.5 1.60784 0.5 2.85094V11.104C0.5 13.1759 2.17957 14.8555 4.25141 14.8555H11.7401C13.8092 14.8555 15.4877 13.1802 15.4915 11.1111L15.5 6.6094C15.5039 4.5348 13.8232 2.85094 11.7486 2.85094H9.2191C9.11292 2.85094 9.01108 2.80872 8.93605 2.73358L7.68496 1.48066C7.12202 0.916889 6.358 0.600098 5.56129 0.600098H2.75085ZM6.62305 2.54087L7.39956 3.31851C7.39956 3.31851 8.4345 4.12316 9.21903 4.35143C10.1675 4.62741 11.7485 4.35143 11.7485 4.35143C12.9933 4.35143 14.0017 5.36175 13.9994 6.6065L13.9909 11.1082C13.9886 12.3497 12.9815 13.3548 11.7401 13.3548H4.25134C3.00823 13.3548 2.00049 12.3471 2.00049 11.104V7.00228V4.70171V2.85087C2.00049 2.4365 2.3364 2.10059 2.75077 2.10059H5.56122C5.95957 2.10059 6.34158 2.25898 6.62305 2.54087Z" fill="url(#paint0_linear_638_96)"/>
<path d="M15.4915 11.1111L15.6915 11.1115L15.6915 11.1115L15.4915 11.1111ZM15.5 6.6094L15.7 6.60977L15.7 6.60977L15.5 6.6094ZM8.93605 2.73358L8.79453 2.8749L8.79453 2.8749L8.93605 2.73358ZM7.68496 1.48066L7.82649 1.33934L7.82649 1.33934L7.68496 1.48066ZM7.39956 3.31851L7.25804 3.45983L7.2669 3.46871L7.2768 3.47641L7.39956 3.31851ZM6.62305 2.54087L6.76458 2.39955L6.76458 2.39955L6.62305 2.54087ZM9.21903 4.35143L9.16315 4.54347L9.16315 4.54347L9.21903 4.35143ZM11.7485 4.35143V4.15143H11.7312L11.7141 4.15441L11.7485 4.35143ZM13.9994 6.6065L13.7994 6.60613L13.7994 6.60613L13.9994 6.6065ZM13.9909 11.1082L13.7909 11.1078L13.7909 11.1078L13.9909 11.1082ZM0.7 2.85094C0.7 1.71829 1.6182 0.800098 2.75085 0.800098V0.400098C1.39728 0.400098 0.3 1.49738 0.3 2.85094H0.7ZM0.7 11.104V2.85094H0.3V11.104H0.7ZM4.25141 14.6555C2.29002 14.6555 0.7 13.0654 0.7 11.104H0.3C0.3 13.2863 2.06911 15.0555 4.25141 15.0555V14.6555ZM11.7401 14.6555H4.25141V15.0555H11.7401V14.6555ZM15.2915 11.1107C15.2879 13.0695 13.6989 14.6555 11.7401 14.6555V15.0555C13.9195 15.0555 15.6875 13.2909 15.6915 11.1115L15.2915 11.1107ZM15.3 6.60902L15.2915 11.1107L15.6915 11.1115L15.7 6.60977L15.3 6.60902ZM11.7486 3.05094C13.7126 3.05094 15.3037 4.64503 15.3 6.60902L15.7 6.60977C15.7041 4.42458 13.9338 2.65094 11.7486 2.65094V3.05094ZM9.2191 3.05094H11.7486V2.65094H9.2191V3.05094ZM8.79453 2.8749C8.90708 2.98761 9.05982 3.05094 9.2191 3.05094V2.65094C9.16601 2.65094 9.11509 2.62983 9.07758 2.59226L8.79453 2.8749ZM7.54344 1.62198L8.79453 2.8749L9.07758 2.59226L7.82649 1.33934L7.54344 1.62198ZM5.56129 0.800098C6.30491 0.800098 7.01801 1.09578 7.54344 1.62198L7.82649 1.33934C7.22602 0.738 6.4111 0.400098 5.56129 0.400098V0.800098ZM2.75085 0.800098H5.56129V0.400098H2.75085V0.800098ZM7.54109 3.1772L6.76458 2.39955L6.48153 2.68218L7.25804 3.45983L7.54109 3.1772ZM9.2749 4.1594C8.91202 4.05381 8.47748 3.80918 8.12336 3.58121C7.94866 3.46874 7.79781 3.36315 7.6907 3.28572C7.6372 3.24705 7.59474 3.21549 7.56582 3.19373C7.55137 3.18285 7.5403 3.17443 7.53295 3.16879C7.52927 3.16598 7.52652 3.16386 7.52474 3.16249C7.52384 3.1618 7.52319 3.16129 7.52279 3.16098C7.52259 3.16083 7.52245 3.16072 7.52237 3.16066C7.52233 3.16063 7.52231 3.16061 7.5223 3.1606C7.5223 3.1606 7.5223 3.1606 7.5223 3.1606C7.52231 3.16061 7.52232 3.16062 7.39956 3.31851C7.2768 3.47641 7.27683 3.47642 7.27685 3.47644C7.27687 3.47645 7.2769 3.47648 7.27692 3.4765C7.27698 3.47654 7.27705 3.4766 7.27714 3.47666C7.27731 3.4768 7.27755 3.47698 7.27784 3.47721C7.27844 3.47768 7.27929 3.47833 7.28038 3.47917C7.28256 3.48085 7.28571 3.48328 7.28981 3.48642C7.298 3.49268 7.30994 3.50177 7.32531 3.51334C7.35606 3.53648 7.40058 3.56957 7.45636 3.60989C7.56782 3.69047 7.72473 3.80031 7.90684 3.91754C8.26632 4.14896 8.74151 4.42079 9.16315 4.54347L9.2749 4.1594ZM11.7485 4.35143C11.7141 4.15441 11.7141 4.15441 11.7142 4.1544C11.7142 4.15441 11.7142 4.1544 11.7142 4.15441C11.7141 4.15441 11.7141 4.15441 11.714 4.15442C11.7139 4.15445 11.7137 4.15448 11.7134 4.15454C11.7128 4.15464 11.7118 4.15481 11.7104 4.15505C11.7077 4.15551 11.7035 4.15622 11.6979 4.15715C11.6867 4.159 11.6699 4.16172 11.648 4.16512C11.6043 4.17192 11.5403 4.18141 11.4604 4.19197C11.3006 4.21311 11.0777 4.23848 10.8261 4.25537C10.3159 4.28963 9.71336 4.28697 9.2749 4.1594L9.16315 4.54347C9.67318 4.69187 10.3354 4.68921 10.8529 4.65447C11.115 4.63687 11.3467 4.61049 11.5129 4.58851C11.5961 4.57752 11.663 4.56759 11.7094 4.56038C11.7327 4.55677 11.7508 4.55384 11.7632 4.55178C11.7694 4.55075 11.7742 4.54995 11.7775 4.54938C11.7791 4.5491 11.7804 4.54888 11.7813 4.54872C11.7818 4.54865 11.7821 4.54858 11.7824 4.54854C11.7825 4.54852 11.7826 4.5485 11.7827 4.54848C11.7828 4.54848 11.7828 4.54847 11.7828 4.54846C11.7829 4.54846 11.7829 4.54845 11.7485 4.35143ZM14.1994 6.60688C14.2019 5.25152 13.1039 4.15143 11.7485 4.15143V4.55143C12.8827 4.55143 13.8015 5.47197 13.7994 6.60613L14.1994 6.60688ZM14.1909 11.1086L14.1994 6.60688L13.7994 6.60613L13.7909 11.1078L14.1909 11.1086ZM11.7401 13.5548C13.0918 13.5548 14.1884 12.4603 14.1909 11.1086L13.7909 11.1078C13.7888 12.239 12.8712 13.1548 11.7401 13.1548V13.5548ZM4.25134 13.5548H11.7401V13.1548H4.25134V13.5548ZM1.80049 11.104C1.80049 12.4575 2.89777 13.5548 4.25134 13.5548V13.1548C3.11868 13.1548 2.20049 12.2366 2.20049 11.104H1.80049ZM1.80049 7.00228V11.104H2.20049V7.00228H1.80049ZM1.80049 4.70171V7.00228H2.20049V4.70171H1.80049ZM1.80049 2.85087V4.70171H2.20049V2.85087H1.80049ZM2.75077 1.90059C2.22594 1.90059 1.80049 2.32604 1.80049 2.85087H2.20049C2.20049 2.54696 2.44686 2.30059 2.75077 2.30059V1.90059ZM5.56122 1.90059H2.75077V2.30059H5.56122V1.90059ZM6.76458 2.39955C6.44559 2.08009 6.01267 1.90059 5.56122 1.90059V2.30059C5.90648 2.30059 6.23757 2.43787 6.48153 2.68218L6.76458 2.39955Z" fill="url(#paint1_linear_638_96)"/>
<path d="M7.7499 5.7002C5.89755 5.7002 4.3999 7.19784 4.3999 9.0502C4.3999 10.9025 5.89755 12.4002 7.7499 12.4002C9.60226 12.4002 11.0999 10.9025 11.0999 9.0502C11.0999 7.19784 9.60226 5.7002 7.7499 5.7002ZM10.2853 8.63808C10.3044 8.75325 10.2118 8.85314 10.095 8.85314H9.32931C9.21886 8.85314 9.12958 8.76357 9.12677 8.65315C9.11354 8.13298 9.04864 7.62009 8.93206 7.17144C8.88628 6.99527 9.06634 6.83898 9.21407 6.94531C9.76311 7.34047 10.1681 7.93134 10.2853 8.63808ZM7.82412 11.5464C7.78399 11.5949 7.71598 11.595 7.67459 11.5476C7.51132 11.3605 7.26285 10.8096 7.17508 9.85385C7.16453 9.73897 7.25625 9.64137 7.37162 9.64137H8.08878C8.20414 9.64137 8.29583 9.73897 8.28569 9.85388C8.20155 10.8076 7.9798 11.3582 7.82412 11.5464ZM7.36406 8.85314C7.25154 8.85314 7.16094 8.75983 7.16653 8.64745C7.22329 7.50719 7.48645 6.81723 7.63714 6.57755C7.67534 6.51678 7.74986 6.51092 7.79287 6.56838C7.96568 6.79928 8.23629 7.4923 8.29386 8.64745C8.29946 8.75983 8.20885 8.85314 8.09633 8.85314H7.36406ZM6.28573 6.94531C6.43347 6.83898 6.61574 6.99607 6.57306 7.17302C6.46424 7.62418 6.41173 8.14017 6.38082 8.66316C6.37453 8.76955 6.28682 8.85314 6.18024 8.85314H5.40478C5.28803 8.85314 5.1954 8.75325 5.2145 8.63808C5.33171 7.93134 5.7367 7.34047 6.28573 6.94531ZM5.34091 9.88654C5.29744 9.76391 5.393 9.64137 5.52312 9.64137H6.1826C6.28821 9.64137 6.37533 9.72352 6.38453 9.82873C6.41858 10.2182 6.4828 10.6031 6.57719 10.9555C6.62329 11.1277 6.45193 11.2789 6.30672 11.1756C5.86962 10.8649 5.52634 10.4095 5.34091 9.88654ZM9.19319 11.1758C9.04784 11.2789 8.87744 11.128 8.92431 10.9561C9.01845 10.6108 9.08235 10.2353 9.11601 9.82948C9.12476 9.72395 9.212 9.64137 9.31789 9.64137H10.0034C10.1374 9.64137 10.2334 9.77069 10.1837 9.8951C9.97615 10.4146 9.62917 10.8667 9.19319 11.1758Z" fill="url(#paint2_linear_638_96)" stroke="url(#paint3_linear_638_96)" stroke-width="0.4"/>
<defs>
<linearGradient id="paint0_linear_638_96" x1="8" y1="14.8555" x2="8" y2="0.600098" gradientUnits="userSpaceOnUse">
<stop stop-color="#A93AFF"/>
<stop offset="1" stop-color="#FF81FF"/>
</linearGradient>
<linearGradient id="paint1_linear_638_96" x1="8" y1="14.8555" x2="8" y2="0.600098" gradientUnits="userSpaceOnUse">
<stop stop-color="#A93AFF"/>
<stop offset="1" stop-color="#FF81FF"/>
</linearGradient>
<linearGradient id="paint2_linear_638_96" x1="7.7499" y1="12.4002" x2="7.7499" y2="5.7002" gradientUnits="userSpaceOnUse">
<stop stop-color="#A93AFF"/>
<stop offset="1" stop-color="#FF81FF"/>
</linearGradient>
<linearGradient id="paint3_linear_638_96" x1="7.7499" y1="12.4002" x2="7.7499" y2="5.7002" gradientUnits="userSpaceOnUse">
<stop stop-color="#A93AFF"/>
<stop offset="1" stop-color="#FF81FF"/>
</linearGradient>
</defs>
</svg>
