<svg width="16" height="16" viewBox="0 0 16 16" fill="none" xmlns="http://www.w3.org/2000/svg">
<path d="M5.9 15H10.1C13.6 15 15 13.6977 15 10.4419V5.55814C15 2.30233 13.6 1 10.1 1H5.9C2.4 1 1 2.30233 1 5.55814V10.4419C1 13.6977 2.4 15 5.9 15Z" stroke="url(#paint0_linear_669_191)" stroke-width="1.8" stroke-linecap="round" stroke-linejoin="round"/>
<path d="M9.42595 3C9.31549 3 9.22595 3.08954 9.22595 3.2V5.10769C9.22595 5.21815 9.13641 5.30769 9.02595 5.30769H8.44372C8.27141 5.30769 8.17975 5.51105 8.29387 5.64015L10.2299 7.83047C10.3095 7.92053 10.45 7.92053 10.5296 7.83047L12.4657 5.64015C12.5798 5.51105 12.4882 5.30769 12.3159 5.30769H11.7336C11.6232 5.30769 11.5336 5.21815 11.5336 5.10769V3.2C11.5336 3.08954 11.4441 3 11.3336 3H9.42595Z" fill="url(#paint1_linear_669_191)"/>
<path d="M6.07462 6C6.00738 6 5.96525 6.11469 5.96525 6.25521V6.98279C5.96525 7.07614 5.90038 7.1562 5.81102 7.1832C5.64965 7.23194 5.49497 7.29779 5.34956 7.37726C5.26752 7.4221 5.16483 7.41138 5.09873 7.34528L4.57985 6.82639C4.48047 6.72702 4.37218 6.68163 4.32464 6.72916L3.72916 7.32464C3.68161 7.37218 3.72695 7.48049 3.82638 7.57985L4.34526 8.09874C4.41137 8.16485 4.42209 8.26753 4.37725 8.34957C4.29778 8.49499 4.23193 8.64967 4.18318 8.81103C4.15619 8.90039 4.07612 8.96527 3.98277 8.96527H3.25521C3.11469 8.96527 3 9.00742 3 9.07465V9.92534C3 9.99258 3.1147 10.0347 3.25521 10.0347H3.98277C4.07612 10.0347 4.15619 10.0996 4.18318 10.189C4.23193 10.3503 4.29778 10.505 4.37725 10.6504C4.42209 10.7325 4.41137 10.8351 4.34527 10.9013L3.82638 11.4201C3.72703 11.5195 3.68162 11.6278 3.72916 11.6753L4.32464 12.2708C4.37217 12.3184 4.48049 12.273 4.57985 12.1736L5.09873 11.6547C5.16484 11.5886 5.26753 11.5779 5.34956 11.6227C5.49498 11.7022 5.64965 11.7681 5.81102 11.8168C5.90038 11.8438 5.96525 11.9239 5.96525 12.0172V12.7448C5.96525 12.8853 6.00741 13 6.07463 13H6.92532C6.99254 13 7.0347 12.8853 7.0347 12.7448V12.0172C7.0347 11.9239 7.09957 11.8438 7.18893 11.8168C7.3503 11.7681 7.50497 11.7022 7.65039 11.6227C7.73243 11.5779 7.83511 11.5886 7.90122 11.6547L8.4201 12.1736C8.51946 12.273 8.62777 12.3184 8.67531 12.2708L9.27079 11.6754C9.31833 11.6278 9.27299 11.5195 9.17357 11.4201L8.65466 10.9013C8.58856 10.8351 8.57784 10.7325 8.62267 10.6504C8.70215 10.505 8.768 10.3503 8.81674 10.189C8.84374 10.0996 8.9238 10.0347 9.01715 10.0347H9.74472C9.88523 10.0347 9.99992 9.99257 9.99992 9.92534V9.07465C9.99992 9.00742 9.88524 8.96527 9.74472 8.96527H9.01715C8.9238 8.96527 8.84374 8.90039 8.81674 8.81103C8.76799 8.64967 8.70215 8.49499 8.62267 8.34957C8.57784 8.26754 8.58855 8.16485 8.65466 8.09874L9.17354 7.57985C9.2729 7.48048 9.31831 7.37219 9.27078 7.32465L8.6753 6.72916C8.62776 6.68162 8.51945 6.72696 8.42009 6.82639L7.90121 7.34528C7.8351 7.41139 7.73241 7.4221 7.65038 7.37727C7.50496 7.29779 7.35028 7.23194 7.18891 7.18319C7.09955 7.1562 7.03468 7.07613 7.03468 6.98278V6.25521C7.03468 6.11469 6.99252 6 6.92529 6L6.07462 6ZM6.49996 8.4184C7.09441 8.4184 7.58154 8.90554 7.58154 9.5C7.58154 10.0945 7.09441 10.5816 6.49996 10.5816C5.9055 10.5816 5.41837 10.0945 5.41837 9.5C5.41837 8.90554 5.9055 8.4184 6.49996 8.4184Z" fill="url(#paint2_linear_669_191)"/>
<defs>
<linearGradient id="paint0_linear_669_191" x1="8" y1="15" x2="8" y2="1.82353" gradientUnits="userSpaceOnUse">
<stop stop-color="#18AEFA"/>
<stop offset="1" stop-color="#83E1FF"/>
</linearGradient>
<linearGradient id="paint1_linear_669_191" x1="10.3798" y1="8" x2="10.3798" y2="3.29412" gradientUnits="userSpaceOnUse">
<stop stop-color="#18AEFA"/>
<stop offset="1" stop-color="#83E1FF"/>
</linearGradient>
<linearGradient id="paint2_linear_669_191" x1="6.49996" y1="13" x2="6.49996" y2="6.41176" gradientUnits="userSpaceOnUse">
<stop stop-color="#18AEFA"/>
<stop offset="1" stop-color="#83E1FF"/>
</linearGradient>
</defs>
</svg>
