<svg width="16" height="16" viewBox="0 0 16 16" fill="none" xmlns="http://www.w3.org/2000/svg">
<path d="M5.9 15H10.1C13.6 15 15 13.6977 15 10.4419V5.55814C15 2.30233 13.6 1 10.1 1H5.9C2.4 1 1 2.30233 1 5.55814V10.4419C1 13.6977 2.4 15 5.9 15Z" stroke="url(#paint0_linear_666_140)" stroke-width="1.8" stroke-linecap="round" stroke-linejoin="round"/>
<path d="M4.05447 6.1875C4.05346 6.20461 4.05288 6.22179 4.05273 6.23891V9.73818C4.05284 10.1037 4.2471 10.4414 4.56236 10.6241L7.56085 12.3626C7.87618 12.5454 8.26474 12.5454 8.58014 12.3626L11.5786 10.6241C11.894 10.4413 12.0883 10.1034 12.0882 9.73777V6.23891C12.0877 6.22602 12.087 6.21314 12.086 6.20025" stroke="url(#paint1_linear_666_140)" stroke-width="1.2"/>
<path d="M8.09498 3.50001C8.09481 3.5 8.09466 3.50014 8.09466 3.50032V3.50032C8.09466 3.50049 8.09453 3.50063 8.09436 3.50063C8.09042 3.50069 8.08651 3.50077 8.08259 3.50088C8.07601 3.50105 8.0708 3.50647 8.0708 3.51305V8.76247C8.0708 8.8726 8.16068 8.96402 8.26874 8.94278C8.37788 8.92134 8.48326 8.88183 8.58058 8.82541L11.5813 7.06636C11.7266 6.98107 11.849 6.86066 11.9374 6.71585C12.0259 6.57097 12.0778 6.40624 12.0886 6.23613C12.0792 6.06459 12.0279 5.89812 11.9393 5.75171C11.8508 5.60528 11.7278 5.48355 11.5813 5.39744L8.58058 3.63843C8.43266 3.55174 8.26573 3.50414 8.09498 3.50001Z" fill="url(#paint2_linear_666_140)"/>
<path d="M3.80184 6.02734C3.80112 6.03855 3.8008 6.0498 3.80048 6.061C3.80153 6.04976 3.80277 6.03855 3.80421 6.02734H3.80184ZM3.80015 6.07005C3.80009 6.07284 3.79983 6.07565 3.7998 6.07845V9.55292C3.79991 9.91584 4.00985 10.2513 4.35034 10.4327L7.58844 12.1587C7.76366 12.2522 7.94338 12.2976 8.13899 12.2949V8.78337C7.9457 8.78371 7.75568 8.73653 7.58809 8.6466L4.34728 6.90003C4.18966 6.81467 4.05716 6.69419 3.96167 6.54938C3.86618 6.40456 3.81068 6.23984 3.80015 6.07005Z" fill="url(#paint3_linear_666_140)"/>
<path d="M8.09449 3.5C7.9074 3.49533 7.72264 3.54347 7.5605 3.63829L4.55969 5.39741C4.41443 5.48276 4.29216 5.60318 4.20373 5.748C4.11529 5.89283 4.06343 6.05756 4.05273 6.22761C4.06208 6.39915 4.11332 6.56558 4.20182 6.71196C4.29031 6.85841 4.4133 6.98012 4.55969 7.06623L7.5605 8.82534C7.71555 8.91629 7.89145 8.96416 8.07049 8.96416C8.24953 8.96416 8.42544 8.91629 8.58048 8.82534L11.5813 7.06623C11.7265 6.98093 11.8488 6.86046 11.9373 6.71565C12.0257 6.57083 12.0776 6.40611 12.0882 6.23607C12.0789 6.06455 12.0277 5.89808 11.9392 5.75169C11.8507 5.60529 11.7277 5.48354 11.5813 5.39741L8.58048 3.63829C8.43246 3.55158 8.26535 3.50402 8.09449 3.5Z" stroke="url(#paint4_linear_666_140)" stroke-width="1.2"/>
<defs>
<linearGradient id="paint0_linear_666_140" x1="7.99998" y1="15" x2="7.99998" y2="1" gradientUnits="userSpaceOnUse">
<stop stop-color="#FDA700"/>
<stop offset="1" stop-color="#FFDE00"/>
</linearGradient>
<linearGradient id="paint1_linear_666_140" x1="8.07049" y1="12.4997" x2="8.07049" y2="6.1875" gradientUnits="userSpaceOnUse">
<stop stop-color="#FDA700"/>
<stop offset="1" stop-color="#FFDE00"/>
</linearGradient>
<linearGradient id="paint2_linear_666_140" x1="10.0797" y1="8.96163" x2="10.0797" y2="3.5" gradientUnits="userSpaceOnUse">
<stop stop-color="#FDA700"/>
<stop offset="1" stop-color="#FFDE00"/>
</linearGradient>
<linearGradient id="paint3_linear_666_140" x1="5.96941" y1="12.295" x2="5.96941" y2="6.02734" gradientUnits="userSpaceOnUse">
<stop stop-color="#FDA700"/>
<stop offset="1" stop-color="#FFDE00"/>
</linearGradient>
<linearGradient id="paint4_linear_666_140" x1="8.07049" y1="8.96416" x2="8.07049" y2="3.5" gradientUnits="userSpaceOnUse">
<stop stop-color="#FDA700"/>
<stop offset="1" stop-color="#FFDE00"/>
</linearGradient>
</defs>
</svg>
