<svg width="16" height="16" viewBox="0 0 16 16" fill="none" xmlns="http://www.w3.org/2000/svg">
<path fill-rule="evenodd" clip-rule="evenodd" d="M8.49092 1.50673C8.27926 1.50084 8.00921 1.50003 7.6431 1.50003C6.65384 1.50003 5.95685 1.50061 5.41255 1.54494C4.87695 1.58856 4.55536 1.6708 4.30502 1.79788C3.78466 2.06203 3.36181 2.48488 3.09766 3.00524C2.97058 3.25558 2.88834 3.57718 2.84472 4.11277C2.80038 4.65707 2.79981 5.35406 2.79981 6.34332V9.53205C2.79981 10.5245 2.80039 11.2238 2.845 11.7698C2.88889 12.307 2.97165 12.6295 3.09954 12.8805C3.36319 13.398 3.78389 13.8187 4.30133 14.0823C4.55233 14.2102 4.87483 14.293 5.41209 14.3369C5.95809 14.3815 6.65734 14.382 7.64981 14.382H7.95542C8.94789 14.382 9.64713 14.3815 10.1931 14.3369C10.7304 14.293 11.0529 14.2102 11.3039 14.0823C11.8213 13.8187 12.242 13.398 12.5057 12.8805C12.6336 12.6295 12.7163 12.307 12.7602 11.7698C12.8048 11.2238 12.8054 10.5245 12.8054 9.53205V6.66513C12.8054 6.29804 12.8046 6.02722 12.7987 5.81494H12.4409H12.4105C11.8763 5.81495 11.4305 5.81496 11.0662 5.7852C10.6864 5.75416 10.3297 5.68705 9.99244 5.51521C9.475 5.25156 9.0543 4.83086 8.79065 4.31341C8.61881 3.97615 8.5517 3.6195 8.52066 3.23961C8.4909 2.87538 8.49091 2.42954 8.49092 1.89539V1.89538L8.49092 1.86494V1.50673ZM12.3727 4.31494C12.2144 4.07124 11.9802 3.83093 11.3849 3.23566L11.0678 2.91859C10.4735 2.32426 10.2341 2.09097 9.99092 1.93295C9.991 2.46806 9.99247 2.83346 10.0157 3.11746C10.0391 3.40459 10.081 3.54187 10.1272 3.63243C10.247 3.86763 10.4382 4.05886 10.6734 4.1787C10.764 4.22484 10.9013 4.26672 11.1884 4.29018C11.4724 4.31339 11.8377 4.31486 12.3727 4.31494ZM9.4992 0.116708C9.01034 -0.000268012 8.5001 -0.000155956 7.73273 1.25468e-05L7.6431 2.56002e-05L7.61059 2.5481e-05C6.66122 1.90437e-05 5.90313 1.38581e-05 5.29078 0.049887C4.66275 0.101038 4.12249 0.208339 3.62605 0.460349C2.82185 0.868585 2.16836 1.52207 1.76013 2.32627C1.50812 2.82271 1.40082 3.36297 1.34967 3.991C1.29979 4.60335 1.2998 5.36144 1.2998 6.31081V6.31082V6.34332V9.53205V9.56466C1.2998 10.5171 1.29979 11.2777 1.34998 11.8919C1.40145 12.5219 1.50944 13.0638 1.76303 13.5615C2.17049 14.3612 2.82066 15.0114 3.62035 15.4188C4.11804 15.6724 4.65993 15.7804 5.28994 15.8319C5.90421 15.8821 6.66477 15.8821 7.61723 15.882H7.64981H7.95542H7.988C8.94046 15.8821 9.70102 15.8821 10.3153 15.8319C10.9453 15.7804 11.4872 15.6724 11.9849 15.4188C12.7846 15.0114 13.4347 14.3612 13.8422 13.5615C14.0958 13.0638 14.2038 12.5219 14.2552 11.8919C14.3054 11.2777 14.3054 10.5171 14.3054 9.56468V9.53205V6.66513L14.3054 6.57521C14.3056 5.80538 14.3057 5.29349 14.188 4.80314C14.0839 4.36948 13.9122 3.95492 13.6791 3.57466C13.4157 3.14469 13.0536 2.78281 12.5092 2.23858L12.4456 2.175L12.1285 1.85793L12.0651 1.79455L12.0651 1.79454C11.5226 1.25181 11.1619 0.890937 10.7335 0.627977C10.3516 0.393547 9.93502 0.220992 9.4992 0.116708Z" fill="url(#paint0_linear_633_74)"/>
<path fill-rule="evenodd" clip-rule="evenodd" d="M9.04076 6.2998C9.04242 6.2998 9.04377 6.30115 9.04377 6.30281C9.04377 6.30468 9.04556 6.30607 9.0474 6.30576C9.278 6.26677 9.278 6.45481 9.278 6.5965V8.3788C9.278 9.68226 8.32825 10.7677 7.08446 10.98C7.00015 10.9944 6.93569 11.0657 6.93569 11.1512V12.5384C6.93569 12.6312 7.01091 12.7064 7.10369 12.7064H8.04438C8.20824 12.7064 8.34108 12.8393 8.34108 13.0031C8.34108 13.1669 8.20824 13.2998 8.04438 13.2998H5.23362C5.06976 13.2998 4.93692 13.1669 4.93692 13.0031C4.93692 12.8393 5.06976 12.7064 5.23362 12.7064H6.1743C6.26709 12.7064 6.3423 12.6312 6.3423 12.5384V11.1512C6.3423 11.0657 6.27785 10.9944 6.19354 10.98C4.94975 10.7677 4 9.68226 4 8.3788V6.5965C4 6.43264 4.13284 6.2998 4.2967 6.2998H9.04076ZM8.51662 6.89319C8.6094 6.89319 8.68462 6.96841 8.68462 7.06119V8.37881C8.68462 9.5067 7.7669 10.4244 6.639 10.4244C5.5111 10.4244 4.59338 9.5067 4.59338 8.37881V7.06119C4.59338 6.96841 4.6686 6.89319 4.76138 6.89319H8.51662Z" fill="url(#paint1_linear_633_74)" stroke="url(#paint2_linear_633_74)" stroke-width="0.6"/>
<path d="M6.11092 7.72211L6.35163 7H6.79669L6.6041 7.57776H6.97785C7.04572 7.57776 7.10943 7.61039 7.1491 7.66543C7.18878 7.72048 7.19957 7.79125 7.17812 7.85562L6.8448 8.8556C6.80793 8.9662 6.68838 9.02597 6.57776 8.98911C6.46716 8.95224 6.40738 8.83268 6.44425 8.72208L6.68495 7.99997H6.3112C6.24333 7.99997 6.17961 7.96733 6.13994 7.9123C6.10027 7.85726 6.08948 7.78649 6.11092 7.72211Z" fill="url(#paint3_linear_633_74)" stroke="url(#paint4_linear_633_74)" stroke-width="0.4"/>
<defs>
<linearGradient id="paint0_linear_633_74" x1="7.80263" y1="23.079" x2="7.80263" y2="-1.08181" gradientUnits="userSpaceOnUse">
<stop stop-color="#FD3A84"/>
<stop offset="1" stop-color="#FFA68D"/>
</linearGradient>
<linearGradient id="paint1_linear_633_74" x1="6.639" y1="16.4718" x2="6.639" y2="5.823" gradientUnits="userSpaceOnUse">
<stop stop-color="#FD3A84"/>
<stop offset="1" stop-color="#FFA68D"/>
</linearGradient>
<linearGradient id="paint2_linear_633_74" x1="6.639" y1="16.4718" x2="6.639" y2="5.823" gradientUnits="userSpaceOnUse">
<stop stop-color="#FD3A84"/>
<stop offset="1" stop-color="#FFA68D"/>
</linearGradient>
<linearGradient id="paint3_linear_633_74" x1="6.64453" y1="12.311" x2="6.64453" y2="6.62223" gradientUnits="userSpaceOnUse">
<stop stop-color="#FD3A84"/>
<stop offset="1" stop-color="#FFA68D"/>
</linearGradient>
<linearGradient id="paint4_linear_633_74" x1="6.64453" y1="12.311" x2="6.64453" y2="6.62223" gradientUnits="userSpaceOnUse">
<stop stop-color="#FD3A84"/>
<stop offset="1" stop-color="#FFA68D"/>
</linearGradient>
</defs>
</svg>
