<svg width="16" height="16" viewBox="0 0 16 16" fill="none" xmlns="http://www.w3.org/2000/svg">
<path fill-rule="evenodd" clip-rule="evenodd" d="M7.6431 1.50003C8.00921 1.50003 8.27926 1.50084 8.49092 1.50673V1.86494L8.49092 1.89538V1.89539C8.49091 2.42954 8.4909 2.87538 8.52066 3.23961C8.5517 3.6195 8.61881 3.97615 8.79065 4.31341C9.0543 4.83086 9.475 5.25156 9.99244 5.51521C10.3297 5.68705 10.6864 5.75416 11.0662 5.7852C11.4305 5.81496 11.8763 5.81495 12.4105 5.81494H12.4409H12.7987C12.8046 6.02722 12.8054 6.29804 12.8054 6.66513V9.53205C12.8054 10.5245 12.8048 11.2238 12.7602 11.7698C12.7163 12.307 12.6336 12.6295 12.5057 12.8805C12.242 13.398 11.8213 13.8187 11.3039 14.0823C11.0529 14.2102 10.7304 14.293 10.1931 14.3369C9.64713 14.3815 8.94789 14.382 7.95542 14.382H7.64981C6.65734 14.382 5.95809 14.3815 5.41209 14.3369C4.87483 14.293 4.55233 14.2102 4.30133 14.0823C3.78389 13.8187 3.36319 13.398 3.09954 12.8805C2.97165 12.6295 2.88889 12.307 2.845 11.7698C2.80039 11.2238 2.79981 10.5245 2.79981 9.53205V6.34332C2.79981 5.35406 2.80038 4.65707 2.84472 4.11277C2.88834 3.57718 2.97058 3.25558 3.09766 3.00524C3.36181 2.48488 3.78466 2.06203 4.30502 1.79788C4.55536 1.6708 4.87695 1.58856 5.41255 1.54494C5.95685 1.50061 6.65384 1.50003 7.6431 1.50003ZM11.3849 3.23566C11.9802 3.83093 12.2144 4.07124 12.3727 4.31494C11.8377 4.31486 11.4724 4.31339 11.1884 4.29018C10.9013 4.26672 10.764 4.22484 10.6734 4.1787C10.4382 4.05886 10.247 3.86763 10.1272 3.63243C10.081 3.54187 10.0391 3.40459 10.0157 3.11746C9.99247 2.83346 9.991 2.46806 9.99092 1.93295C10.2341 2.09097 10.4735 2.32426 11.0678 2.91859L11.3849 3.23566ZM7.73273 1.25468e-05C8.5001 -0.000155956 9.01034 -0.000268012 9.4992 0.116708C9.93502 0.220992 10.3516 0.393547 10.7335 0.627977C11.1619 0.890937 11.5226 1.25181 12.0651 1.79454L12.0651 1.79455L12.1285 1.85793L12.4456 2.175L12.5092 2.23858C13.0536 2.78281 13.4157 3.14469 13.6791 3.57466C13.9122 3.95492 14.0839 4.36948 14.188 4.80314C14.3057 5.29349 14.3056 5.80538 14.3054 6.57521L14.3054 6.66513V9.53205V9.56468C14.3054 10.5171 14.3054 11.2777 14.2552 11.8919C14.2038 12.5219 14.0958 13.0638 13.8422 13.5615C13.4347 14.3612 12.7846 15.0114 11.9849 15.4188C11.4872 15.6724 10.9453 15.7804 10.3153 15.8319C9.70102 15.8821 8.94046 15.8821 7.988 15.882H7.95542H7.64981H7.61723C6.66477 15.8821 5.90421 15.8821 5.28994 15.8319C4.65993 15.7804 4.11804 15.6724 3.62035 15.4188C2.82066 15.0114 2.17049 14.3612 1.76303 13.5615C1.50944 13.0638 1.40145 12.5219 1.34998 11.8919C1.29979 11.2777 1.2998 10.5171 1.2998 9.56466V9.53205V6.34332V6.31082V6.31081C1.2998 5.36144 1.29979 4.60335 1.34967 3.991C1.40082 3.36297 1.50812 2.82271 1.76013 2.32627C2.16836 1.52207 2.82185 0.868585 3.62605 0.460349C4.12249 0.208339 4.66275 0.101038 5.29078 0.049887C5.90313 1.38581e-05 6.66122 1.90437e-05 7.61059 2.5481e-05L7.6431 2.56002e-05L7.73273 1.25468e-05ZM7.66192 10.0668C7.77912 10.184 7.9381 10.2498 8.10385 10.2498H9.15806C9.32381 10.2498 9.48279 10.184 9.6 10.0668C9.71722 9.94958 9.78306 9.79061 9.78306 9.62484C9.78306 9.45909 9.71722 9.30011 9.59999 9.1829C9.48279 9.06571 9.32382 8.99985 9.15806 8.99985H8.10385C7.93809 8.99985 7.77912 9.06571 7.66192 9.18291C7.54472 9.30011 7.47885 9.45908 7.47885 9.62484C7.47885 9.79062 7.54472 9.94959 7.66192 10.0668ZM3.78306 12.4887C3.90027 12.606 4.05924 12.6718 4.22499 12.6718H9.15805C9.3238 12.6718 9.48278 12.6059 9.59999 12.4887C9.71721 12.3715 9.78305 12.2126 9.78305 12.0468C9.78305 11.881 9.71721 11.7221 9.59999 11.6049C9.48278 11.4877 9.32381 11.4218 9.15805 11.4218H4.22499C4.05923 11.4218 3.90026 11.4877 3.78306 11.6049C3.66586 11.7221 3.6 11.881 3.6 12.0468C3.6 12.2126 3.66587 12.3715 3.78306 12.4887Z" fill="url(#paint0_linear_633_117)"/>
<path d="M6.12151 10.003C6.06865 9.83703 5.91452 9.72437 5.74038 9.72437H4.97894C4.80429 9.72437 4.64984 9.83767 4.5974 10.0043L4.53835 10.1918C4.48591 10.3584 4.33146 10.4717 4.15681 10.4717H3.97652C3.6974 10.4717 3.5041 10.193 3.60185 9.93159L4.7984 6.73158C4.85685 6.57528 5.00619 6.47168 5.17306 6.47168H5.5431C5.70962 6.47168 5.85872 6.57484 5.91742 6.73066L7.12294 9.93067C7.22149 10.1923 7.02816 10.4717 6.74862 10.4717H6.5632C6.38906 10.4717 6.23493 10.359 6.18207 10.1931L6.12151 10.003ZM5.04366 8.58974C4.98278 8.78305 5.12713 8.97986 5.32981 8.97986H5.38765C5.59055 8.97986 5.73493 8.78264 5.67363 8.58922L5.64462 8.49768C5.55605 8.21827 5.16055 8.21863 5.07249 8.4982L5.04366 8.58974Z" fill="url(#paint1_linear_633_117)"/>
<defs>
<linearGradient id="paint0_linear_633_117" x1="7.80263" y1="15.882" x2="7.80263" y2="0.934238" gradientUnits="userSpaceOnUse">
<stop stop-color="#18AEFA"/>
<stop offset="1" stop-color="#83E1FF"/>
</linearGradient>
<linearGradient id="paint1_linear_633_117" x1="5.36333" y1="10.4717" x2="5.36333" y2="6.70697" gradientUnits="userSpaceOnUse">
<stop stop-color="#18AEFA"/>
<stop offset="1" stop-color="#83E1FF"/>
</linearGradient>
</defs>
</svg>
