<svg width="16" height="16" viewBox="0 0 16 16" fill="none" xmlns="http://www.w3.org/2000/svg">
<path fill-rule="evenodd" clip-rule="evenodd" d="M8.49092 1.50673C8.27926 1.50084 8.00921 1.50003 7.6431 1.50003C6.65384 1.50003 5.95685 1.50061 5.41255 1.54494C4.87695 1.58856 4.55536 1.6708 4.30502 1.79788C3.78466 2.06203 3.36181 2.48488 3.09766 3.00524C2.97058 3.25558 2.88834 3.57718 2.84472 4.11277C2.80038 4.65707 2.7998 5.35406 2.7998 6.34332V9.53205C2.7998 10.5245 2.80039 11.2238 2.845 11.7698C2.88889 12.307 2.97165 12.6295 3.09954 12.8805C3.36319 13.398 3.78389 13.8187 4.30133 14.0823C4.55233 14.2102 4.87483 14.293 5.41209 14.3369C5.95809 14.3815 6.65734 14.382 7.64981 14.382H7.95542C8.94789 14.382 9.64713 14.3815 10.1931 14.3369C10.7304 14.293 11.0529 14.2102 11.3039 14.0823C11.8213 13.8187 12.242 13.398 12.5057 12.8805C12.6336 12.6295 12.7163 12.307 12.7602 11.7698C12.8048 11.2238 12.8054 10.5245 12.8054 9.53205V6.66513C12.8054 6.29804 12.8046 6.02722 12.7987 5.81494H12.4409H12.4105C11.8763 5.81495 11.4305 5.81496 11.0662 5.7852C10.6864 5.75416 10.3297 5.68705 9.99244 5.51521C9.475 5.25156 9.0543 4.83086 8.79065 4.31341C8.61881 3.97615 8.5517 3.6195 8.52066 3.23961C8.4909 2.87538 8.49091 2.42954 8.49092 1.89539V1.89538L8.49092 1.86494V1.50673ZM12.3727 4.31494C12.2144 4.07124 11.9802 3.83093 11.3849 3.23566L11.0678 2.91859C10.4735 2.32426 10.2341 2.09097 9.99092 1.93295C9.991 2.46806 9.99247 2.83346 10.0157 3.11746C10.0391 3.40459 10.081 3.54187 10.1272 3.63243C10.247 3.86763 10.4382 4.05886 10.6734 4.1787C10.764 4.22484 10.9013 4.26672 11.1884 4.29018C11.4724 4.31339 11.8377 4.31486 12.3727 4.31494ZM9.4992 0.116708C9.01034 -0.000267982 8.5001 -0.000155926 7.73273 1.25766e-05L7.6431 2.563e-05L7.61059 2.55108e-05C6.66122 1.90735e-05 5.90313 1.38879e-05 5.29078 0.0498871C4.66275 0.101038 4.12249 0.208339 3.62605 0.460349C2.82185 0.868585 2.16836 1.52207 1.76013 2.32627C1.50812 2.82271 1.40082 3.36297 1.34967 3.991C1.29979 4.60335 1.2998 5.36144 1.2998 6.31081V6.31082V6.34332V9.53205V9.56466C1.2998 10.5171 1.29979 11.2777 1.34998 11.8919C1.40145 12.5219 1.50944 13.0638 1.76303 13.5615C2.17049 14.3612 2.82066 15.0114 3.62035 15.4188C4.11804 15.6724 4.65992 15.7804 5.28994 15.8319C5.90421 15.8821 6.66477 15.8821 7.61723 15.882H7.64981H7.95542H7.988C8.94046 15.8821 9.70102 15.8821 10.3153 15.8319C10.9453 15.7804 11.4872 15.6724 11.9849 15.4188C12.7846 15.0114 13.4347 14.3612 13.8422 13.5615C14.0958 13.0638 14.2038 12.5219 14.2552 11.8919C14.3054 11.2777 14.3054 10.5171 14.3054 9.56468V9.53205V6.66513L14.3054 6.57521C14.3056 5.80538 14.3057 5.29349 14.188 4.80314C14.0839 4.36948 13.9122 3.95492 13.6791 3.57466C13.4157 3.14469 13.0536 2.78281 12.5092 2.23858L12.4456 2.175L12.1285 1.85793L12.0651 1.79455L12.0651 1.79454C11.5226 1.25181 11.1619 0.890937 10.7335 0.627977C10.3516 0.393547 9.93502 0.220992 9.4992 0.116708Z" fill="url(#paint0_linear_627_78)"/>
<path d="M6.57747 5.00004C6.3827 4.99805 6.1932 5.06331 6.04095 5.18481C5.89053 5.31213 5.82184 5.47024 5.78157 5.62895C5.70044 5.94755 5.72413 6.28036 5.80052 6.64751C5.88935 7.07685 6.14813 7.59502 6.3554 8.09068C6.24999 8.54252 6.22275 8.94047 6.05931 9.40416C5.92014 9.80329 5.74249 10.0319 5.57963 10.3854C5.20655 10.5264 4.76241 10.6104 4.46869 10.7928C4.15246 10.9894 3.87531 11.2074 3.71068 11.5153C3.54487 11.8215 3.56264 12.2555 3.78352 12.5694C3.89308 12.7334 4.03639 12.8637 4.22767 12.9395C4.41953 13.0153 4.62739 13.0183 4.80209 12.9573C5.1503 12.8377 5.39783 12.5694 5.63411 12.255C5.85322 11.9636 6.01015 11.4685 6.20854 11.0706C6.507 10.9711 6.72256 10.8455 7.04056 10.7745C7.37456 10.6999 7.59722 10.736 7.91108 10.7005C8.04551 10.8532 8.1598 11.0972 8.29897 11.218C8.58144 11.4626 8.89115 11.658 9.26127 11.6799C9.63198 11.7036 10.0015 11.4727 10.2052 11.1256H10.2242V11.1067C10.3142 10.9486 10.3764 10.7792 10.3722 10.5885C10.3687 10.399 10.2715 10.2012 10.1501 10.071C9.90735 9.8104 9.59764 9.74526 9.26186 9.70084C9.00426 9.66768 8.64303 9.76006 8.33687 9.77546C8.0692 9.42251 7.80212 9.15603 7.55932 8.70241C7.42904 8.45724 7.39232 8.2482 7.28218 7.99889C7.36686 7.5962 7.53682 7.14851 7.55932 6.79675C7.58775 6.37037 7.57117 6.00321 7.44858 5.66744C7.38614 5.48818 7.27795 5.32834 7.13472 5.20376C6.98334 5.07806 6.79428 5.00656 6.59761 5.00064H6.57866L6.57747 5.00004ZM6.96595 9.3858C7.07254 9.57293 7.20401 9.69196 7.31771 9.86725C7.15071 9.89686 7.02398 9.86606 6.8558 9.90396C6.82619 9.90988 6.80961 9.93357 6.78119 9.94127C6.81494 9.84948 6.85935 9.79322 6.89252 9.70025C6.93042 9.59247 6.93042 9.49476 6.96595 9.3858ZM9.14994 10.5879C9.34951 10.6146 9.41939 10.6513 9.44604 10.6626C9.44189 10.672 9.45314 10.6685 9.44604 10.6815C9.3732 10.8029 9.36313 10.7952 9.31575 10.7922C9.27667 10.7899 9.12625 10.7082 8.98413 10.6069C9.02558 10.6104 9.11204 10.5832 9.14994 10.5891V10.5879ZM5.00462 11.5141C4.97205 11.5615 4.94421 11.6752 4.91224 11.7172C4.73162 11.9577 4.56521 12.0702 4.52376 12.0874C4.51606 12.0797 4.5356 12.0874 4.52376 12.0696H4.50481C4.44381 11.9825 4.46217 12.0193 4.50481 11.9393C4.54804 11.86 4.68839 11.7013 4.93119 11.5508C4.94895 11.5402 4.98626 11.5248 5.00462 11.5141Z" fill="url(#paint1_linear_627_78)" stroke="url(#paint2_linear_627_78)" stroke-width="0.4"/>
<defs>
<linearGradient id="paint0_linear_627_78" x1="7.80263" y1="15.882" x2="7.80263" y2="0" gradientUnits="userSpaceOnUse">
<stop stop-color="#DD2025"/>
<stop offset="0.9998" stop-color="#FF867E"/>
</linearGradient>
<linearGradient id="paint1_linear_627_78" x1="6.98626" y1="13" x2="7" y2="4.5" gradientUnits="userSpaceOnUse">
<stop stop-color="#DD2025"/>
<stop offset="0.9998" stop-color="#FF867E"/>
</linearGradient>
<linearGradient id="paint2_linear_627_78" x1="6.98626" y1="13" x2="6.98626" y2="5" gradientUnits="userSpaceOnUse">
<stop stop-color="#DD2025"/>
<stop offset="0.9998" stop-color="#FF867E"/>
</linearGradient>
</defs>
</svg>
