<svg width="16" height="16" viewBox="0 0 16 16" fill="none" xmlns="http://www.w3.org/2000/svg">
<path d="M8 1C4.1552 1 1 4.15525 1 8C1 11.8447 4.1552 15 8 15C11.8447 15 15 11.8447 15 8C15 4.15525 11.8447 1 8 1ZM8 14.1797C4.6074 14.1797 1.82031 11.3926 1.82031 8C1.82031 4.60741 4.6074 1.82031 8 1.82031C11.3926 1.82031 14.1797 4.60741 14.1797 8C14.1797 11.3926 11.3926 14.1797 8 14.1797ZM6.40542 11.7787C5.91761 11.572 5.47858 11.276 5.10134 10.8987C4.72398 10.5214 4.42798 10.0824 4.22129 9.59458C4.13317 9.38545 3.89042 9.28811 3.68377 9.3767C3.47507 9.46475 3.37777 9.70549 3.46586 9.91417C3.71378 10.4998 4.06867 11.0261 4.52131 11.4787C4.97392 11.9314 5.50023 12.2862 6.08583 12.5341C6.29419 12.6224 6.53525 12.5251 6.6233 12.3162C6.71145 12.1076 6.61411 11.8668 6.40542 11.7787ZM12.5341 6.08583C12.2862 5.50023 11.9314 4.97392 11.4787 4.52122C11.0261 4.06863 10.4998 3.71381 9.91417 3.46586C9.70669 3.37814 9.46475 3.47428 9.3767 3.68373C9.28855 3.89242 9.38589 4.13316 9.59458 4.2212C10.0824 4.42792 10.5214 4.724 10.8987 5.10123C11.276 5.47858 11.572 5.91761 11.7787 6.40542C11.8671 6.61477 12.1085 6.71123 12.3163 6.6233C12.525 6.53525 12.6223 6.29451 12.5341 6.08583ZM8 5.12891C6.41702 5.12891 5.12891 6.41702 5.12891 8C5.12891 9.58298 6.41702 10.8711 8 10.8711C9.58298 10.8711 10.8711 9.58298 10.8711 8C10.8711 6.41702 9.58298 5.12891 8 5.12891ZM8 10.0508C6.86928 10.0508 5.94922 9.13072 5.94922 8C5.94922 6.86928 6.86928 5.94922 8 5.94922C9.13072 5.94922 10.0508 6.86928 10.0508 8C10.0508 9.13072 9.13072 10.0508 8 10.0508ZM8 8.41016C7.7737 8.41016 7.58984 8.2263 7.58984 8C7.58984 7.7737 7.7737 7.58984 8 7.58984C8.2263 7.58984 8.41016 7.7737 8.41016 8C8.41016 8.2263 8.2263 8.41016 8 8.41016Z" fill="url(#paint0_linear_633_104)" stroke="url(#paint1_linear_633_104)" stroke-width="0.8"/>
<defs>
<linearGradient id="paint0_linear_633_104" x1="14.6052" y1="8" x2="2.92346" y2="3.7743" gradientUnits="userSpaceOnUse">
<stop stop-color="#FE7970"/>
<stop offset="1" stop-color="#DC3282"/>
</linearGradient>
<linearGradient id="paint1_linear_633_104" x1="14.6052" y1="8" x2="2.92346" y2="3.7743" gradientUnits="userSpaceOnUse">
<stop stop-color="#FE7970"/>
<stop offset="1" stop-color="#DC3282"/>
</linearGradient>
</defs>
</svg>
