<svg width="16" height="16" viewBox="0 0 16 16" fill="none" xmlns="http://www.w3.org/2000/svg">
<path fill-rule="evenodd" clip-rule="evenodd" d="M8.49092 1.50673C8.27926 1.50084 8.00921 1.50003 7.6431 1.50003C6.65384 1.50003 5.95685 1.50061 5.41255 1.54494C4.87695 1.58856 4.55536 1.6708 4.30502 1.79788C3.78466 2.06203 3.36181 2.48488 3.09766 3.00524C2.97058 3.25558 2.88834 3.57718 2.84472 4.11277C2.80038 4.65707 2.7998 5.35406 2.7998 6.34332V9.53205C2.7998 10.5245 2.80039 11.2238 2.845 11.7698C2.88889 12.307 2.97165 12.6295 3.09954 12.8805C3.36319 13.398 3.78389 13.8187 4.30133 14.0823C4.55233 14.2102 4.87483 14.293 5.41209 14.3369C5.95809 14.3815 6.65734 14.382 7.64981 14.382H7.95542C8.94789 14.382 9.64713 14.3815 10.1931 14.3369C10.7304 14.293 11.0529 14.2102 11.3039 14.0823C11.8213 13.8187 12.242 13.398 12.5057 12.8805C12.6336 12.6295 12.7163 12.307 12.7602 11.7698C12.8048 11.2238 12.8054 10.5245 12.8054 9.53205V6.66513C12.8054 6.29804 12.8046 6.02722 12.7987 5.81494H12.4409H12.4105C11.8763 5.81495 11.4305 5.81496 11.0662 5.7852C10.6864 5.75416 10.3297 5.68705 9.99244 5.51521C9.475 5.25156 9.0543 4.83086 8.79065 4.31341C8.61881 3.97615 8.5517 3.6195 8.52066 3.23961C8.4909 2.87538 8.49091 2.42954 8.49092 1.89539V1.89538L8.49092 1.86494V1.50673ZM12.3727 4.31494C12.2144 4.07124 11.9802 3.83093 11.3849 3.23566L11.0678 2.91859C10.4735 2.32426 10.2341 2.09097 9.99092 1.93295C9.991 2.46806 9.99247 2.83346 10.0157 3.11746C10.0391 3.40459 10.081 3.54187 10.1272 3.63243C10.247 3.86763 10.4382 4.05886 10.6734 4.1787C10.764 4.22484 10.9013 4.26672 11.1884 4.29018C11.4724 4.31339 11.8377 4.31486 12.3727 4.31494ZM9.4992 0.116708C9.01034 -0.000267982 8.5001 -0.000155926 7.73273 1.25766e-05L7.6431 2.563e-05L7.61059 2.55108e-05C6.66122 1.90735e-05 5.90313 1.38879e-05 5.29078 0.0498871C4.66275 0.101038 4.12249 0.208339 3.62605 0.460349C2.82185 0.868585 2.16836 1.52207 1.76013 2.32627C1.50812 2.82271 1.40082 3.36297 1.34967 3.991C1.29979 4.60335 1.2998 5.36144 1.2998 6.31081V6.31082V6.34332V9.53205V9.56466C1.2998 10.5171 1.29979 11.2777 1.34998 11.8919C1.40145 12.5219 1.50944 13.0638 1.76303 13.5615C2.17049 14.3612 2.82066 15.0114 3.62035 15.4188C4.11804 15.6724 4.65992 15.7804 5.28994 15.8319C5.90421 15.8821 6.66477 15.8821 7.61723 15.882H7.64981H7.95542H7.988C8.94046 15.8821 9.70102 15.8821 10.3153 15.8319C10.9453 15.7804 11.4872 15.6724 11.9849 15.4188C12.7846 15.0114 13.4347 14.3612 13.8422 13.5615C14.0958 13.0638 14.2038 12.5219 14.2552 11.8919C14.3054 11.2777 14.3054 10.5171 14.3054 9.56468V9.53205V6.66513L14.3054 6.57521C14.3056 5.80538 14.3057 5.29349 14.188 4.80314C14.0839 4.36948 13.9122 3.95492 13.6791 3.57466C13.4157 3.14469 13.0536 2.78281 12.5092 2.23858L12.4456 2.175L12.1285 1.85793L12.0651 1.79455L12.0651 1.79454C11.5226 1.25181 11.1619 0.890937 10.7335 0.627977C10.3516 0.393547 9.93502 0.220992 9.4992 0.116708Z" fill="url(#paint0_linear_633_91)"/>
<path fill-rule="evenodd" clip-rule="evenodd" d="M6.89986 8.38386C6.12406 8.38386 5.49515 9.01277 5.49515 9.78857C5.49515 10.5644 6.12406 11.1933 6.89986 11.1933C7.67566 11.1933 8.30456 10.5644 8.30456 9.78857C8.30456 9.01277 7.67566 8.38386 6.89986 8.38386ZM6.33538 9.78857C6.33538 9.47682 6.5881 9.22409 6.89986 9.22409C7.21161 9.22409 7.46433 9.47682 7.46433 9.78857C7.46433 10.1003 7.21161 10.353 6.89986 10.353C6.5881 10.353 6.33538 10.1003 6.33538 9.78857Z" fill="url(#paint1_linear_633_91)"/>
<path fill-rule="evenodd" clip-rule="evenodd" d="M3.3999 9.78861C3.3999 10.0482 3.46782 10.2816 3.57388 10.5243C3.67454 10.7546 3.82164 11.0191 3.99863 11.3372L4.05188 11.4329L4.10815 11.5269C4.29518 11.8392 4.45063 12.0989 4.59979 12.3012C4.75694 12.5144 4.92507 12.6899 5.1499 12.8197C5.37473 12.9495 5.61078 13.0074 5.874 13.0369C6.12381 13.0649 6.42637 13.0697 6.79038 13.0755L6.8999 13.0772L7.00942 13.0755C7.37344 13.0697 7.67599 13.0649 7.92581 13.0369C8.18903 13.0074 8.42507 12.9495 8.6499 12.8197C8.87473 12.6899 9.04286 12.5144 9.20002 12.3012C9.34918 12.0988 9.50463 11.8392 9.69166 11.5269L9.74793 11.4329L9.80117 11.3372C9.97816 11.0191 10.1253 10.7546 10.2259 10.5243C10.332 10.2816 10.3999 10.0482 10.3999 9.78861C10.3999 9.529 10.332 9.29565 10.2259 9.05295C10.1253 8.8226 9.97816 8.55818 9.80118 8.24003L9.74793 8.14431L9.69165 8.05033C9.50462 7.73798 9.34917 7.47838 9.20002 7.27603C9.04286 7.06282 8.87473 6.88733 8.6499 6.75753C8.42507 6.62772 8.18903 6.56986 7.92581 6.54036C7.67599 6.51236 7.37344 6.50754 7.00942 6.50175L6.8999 6.5L6.79038 6.50175C6.42637 6.50754 6.12381 6.51236 5.874 6.54036C5.61078 6.56986 5.37473 6.62772 5.1499 6.75753C4.92507 6.88733 4.75694 7.06282 4.59979 7.27603C4.45063 7.47838 4.29518 7.73799 4.10815 8.05033L4.05188 8.14431L3.99863 8.24003C3.82165 8.55817 3.67454 8.8226 3.57388 9.05295C3.46782 9.29565 3.3999 9.529 3.3999 9.78861ZM4.74245 10.9459C4.5535 10.6062 4.42644 10.3769 4.3438 10.1878C4.26477 10.007 4.24013 9.89229 4.24013 9.78861C4.24013 9.68494 4.26477 9.57027 4.3438 9.38941C4.42644 9.20032 4.5535 8.97099 4.74245 8.63132L4.77963 8.56448L4.81893 8.49885C5.01862 8.16538 5.15369 7.94068 5.27613 7.77457C5.39324 7.61569 5.48023 7.53703 5.57002 7.48519C5.65981 7.43335 5.77142 7.39735 5.96758 7.37536C6.17265 7.35238 6.43478 7.34776 6.82342 7.34156L6.8999 7.34034L6.97638 7.34156C7.36502 7.34776 7.62715 7.35238 7.83223 7.37536C8.02838 7.39735 8.14 7.43335 8.22979 7.48519C8.31957 7.53703 8.40656 7.61569 8.52368 7.77457C8.64611 7.94068 8.78119 8.16538 8.98088 8.49885L9.02017 8.56447L9.05736 8.63132C9.24631 8.97099 9.37337 9.20032 9.456 9.38941C9.53504 9.57027 9.55967 9.68494 9.55967 9.78861C9.55967 9.89229 9.53504 10.007 9.456 10.1878C9.37337 10.3769 9.24631 10.6062 9.05735 10.9459L9.02017 11.0128L8.98088 11.0784C8.78119 11.4119 8.64612 11.6365 8.52368 11.8027C8.40656 11.9615 8.31957 12.0402 8.22979 12.092C8.14 12.1439 8.02838 12.1799 7.83223 12.2019C7.62715 12.2248 7.36502 12.2295 6.97638 12.2357L6.8999 12.2369L6.82342 12.2357C6.43478 12.2295 6.17265 12.2248 5.96758 12.2019C5.77143 12.1799 5.65981 12.1439 5.57002 12.092C5.48023 12.0402 5.39324 11.9615 5.27613 11.8027C5.15369 11.6365 5.01862 11.4119 4.81893 11.0784L4.77963 11.0128L4.74245 10.9459Z" fill="url(#paint2_linear_633_91)"/>
<path fill-rule="evenodd" clip-rule="evenodd" d="M6.89986 8.38386C6.12406 8.38386 5.49515 9.01277 5.49515 9.78857C5.49515 10.5644 6.12406 11.1933 6.89986 11.1933C7.67566 11.1933 8.30456 10.5644 8.30456 9.78857C8.30456 9.01277 7.67566 8.38386 6.89986 8.38386ZM6.33538 9.78857C6.33538 9.47682 6.5881 9.22409 6.89986 9.22409C7.21161 9.22409 7.46433 9.47682 7.46433 9.78857C7.46433 10.1003 7.21161 10.353 6.89986 10.353C6.5881 10.353 6.33538 10.1003 6.33538 9.78857Z" stroke="url(#paint3_linear_633_91)" stroke-width="0.4"/>
<path fill-rule="evenodd" clip-rule="evenodd" d="M3.3999 9.78861C3.3999 10.0482 3.46782 10.2816 3.57388 10.5243C3.67454 10.7546 3.82164 11.0191 3.99863 11.3372L4.05188 11.4329L4.10815 11.5269C4.29518 11.8392 4.45063 12.0989 4.59979 12.3012C4.75694 12.5144 4.92507 12.6899 5.1499 12.8197C5.37473 12.9495 5.61078 13.0074 5.874 13.0369C6.12381 13.0649 6.42637 13.0697 6.79038 13.0755L6.8999 13.0772L7.00942 13.0755C7.37344 13.0697 7.67599 13.0649 7.92581 13.0369C8.18903 13.0074 8.42507 12.9495 8.6499 12.8197C8.87473 12.6899 9.04286 12.5144 9.20002 12.3012C9.34918 12.0988 9.50463 11.8392 9.69166 11.5269L9.74793 11.4329L9.80117 11.3372C9.97816 11.0191 10.1253 10.7546 10.2259 10.5243C10.332 10.2816 10.3999 10.0482 10.3999 9.78861C10.3999 9.529 10.332 9.29565 10.2259 9.05295C10.1253 8.8226 9.97816 8.55818 9.80118 8.24003L9.74793 8.14431L9.69165 8.05033C9.50462 7.73798 9.34917 7.47838 9.20002 7.27603C9.04286 7.06282 8.87473 6.88733 8.6499 6.75753C8.42507 6.62772 8.18903 6.56986 7.92581 6.54036C7.67599 6.51236 7.37344 6.50754 7.00942 6.50175L6.8999 6.5L6.79038 6.50175C6.42637 6.50754 6.12381 6.51236 5.874 6.54036C5.61078 6.56986 5.37473 6.62772 5.1499 6.75753C4.92507 6.88733 4.75694 7.06282 4.59979 7.27603C4.45063 7.47838 4.29518 7.73799 4.10815 8.05033L4.05188 8.14431L3.99863 8.24003C3.82165 8.55817 3.67454 8.8226 3.57388 9.05295C3.46782 9.29565 3.3999 9.529 3.3999 9.78861ZM4.74245 10.9459C4.5535 10.6062 4.42644 10.3769 4.3438 10.1878C4.26477 10.007 4.24013 9.89229 4.24013 9.78861C4.24013 9.68494 4.26477 9.57027 4.3438 9.38941C4.42644 9.20032 4.5535 8.97099 4.74245 8.63132L4.77963 8.56448L4.81893 8.49885C5.01862 8.16538 5.15369 7.94068 5.27613 7.77457C5.39324 7.61569 5.48023 7.53703 5.57002 7.48519C5.65981 7.43335 5.77142 7.39735 5.96758 7.37536C6.17265 7.35238 6.43478 7.34776 6.82342 7.34156L6.8999 7.34034L6.97638 7.34156C7.36502 7.34776 7.62715 7.35238 7.83223 7.37536C8.02838 7.39735 8.14 7.43335 8.22979 7.48519C8.31957 7.53703 8.40656 7.61569 8.52368 7.77457C8.64611 7.94068 8.78119 8.16538 8.98088 8.49885L9.02017 8.56447L9.05736 8.63132C9.24631 8.97099 9.37337 9.20032 9.456 9.38941C9.53504 9.57027 9.55967 9.68494 9.55967 9.78861C9.55967 9.89229 9.53504 10.007 9.456 10.1878C9.37337 10.3769 9.24631 10.6062 9.05735 10.9459L9.02017 11.0128L8.98088 11.0784C8.78119 11.4119 8.64612 11.6365 8.52368 11.8027C8.40656 11.9615 8.31957 12.0402 8.22979 12.092C8.14 12.1439 8.02838 12.1799 7.83223 12.2019C7.62715 12.2248 7.36502 12.2295 6.97638 12.2357L6.8999 12.2369L6.82342 12.2357C6.43478 12.2295 6.17265 12.2248 5.96758 12.2019C5.77143 12.1799 5.65981 12.1439 5.57002 12.092C5.48023 12.0402 5.39324 11.9615 5.27613 11.8027C5.15369 11.6365 5.01862 11.4119 4.81893 11.0784L4.77963 11.0128L4.74245 10.9459Z" stroke="url(#paint4_linear_633_91)" stroke-width="0.4"/>
<defs>
<linearGradient id="paint0_linear_633_91" x1="13.3029" y1="0.285897" x2="-0.979386" y2="12.4076" gradientUnits="userSpaceOnUse">
<stop stop-color="#FFC700"/>
<stop offset="0.551952" stop-color="#FF49AB"/>
<stop offset="1" stop-color="#BA49FF"/>
</linearGradient>
<linearGradient id="paint1_linear_633_91" x1="9.86032" y1="6.6184" x2="3.89456" y2="13.1989" gradientUnits="userSpaceOnUse">
<stop stop-color="#FFC700"/>
<stop offset="0.551952" stop-color="#FF49AB"/>
<stop offset="1" stop-color="#BA49FF"/>
</linearGradient>
<linearGradient id="paint2_linear_633_91" x1="9.86032" y1="6.6184" x2="3.89456" y2="13.1989" gradientUnits="userSpaceOnUse">
<stop stop-color="#FFC700"/>
<stop offset="0.551952" stop-color="#FF49AB"/>
<stop offset="1" stop-color="#BA49FF"/>
</linearGradient>
<linearGradient id="paint3_linear_633_91" x1="9.86032" y1="6.6184" x2="3.89456" y2="13.1989" gradientUnits="userSpaceOnUse">
<stop stop-color="#FFC700"/>
<stop offset="0.551952" stop-color="#FF49AB"/>
<stop offset="1" stop-color="#BA49FF"/>
</linearGradient>
<linearGradient id="paint4_linear_633_91" x1="9.86032" y1="6.6184" x2="3.89456" y2="13.1989" gradientUnits="userSpaceOnUse">
<stop stop-color="#FFC700"/>
<stop offset="0.551952" stop-color="#FF49AB"/>
<stop offset="1" stop-color="#BA49FF"/>
</linearGradient>
</defs>
</svg>
