<svg width="16" height="16" viewBox="0 0 16 16" fill="none" xmlns="http://www.w3.org/2000/svg">
<path fill-rule="evenodd" clip-rule="evenodd" d="M8.49092 1.50673C8.27926 1.50084 8.00921 1.50003 7.6431 1.50003C6.65384 1.50003 5.95685 1.50061 5.41255 1.54494C4.87695 1.58856 4.55536 1.6708 4.30502 1.79788C3.78466 2.06203 3.36181 2.48488 3.09766 3.00524C2.97058 3.25558 2.88834 3.57718 2.84472 4.11277C2.80038 4.65707 2.7998 5.35406 2.7998 6.34332V9.53205C2.7998 10.5245 2.80039 11.2238 2.845 11.7698C2.88889 12.307 2.97165 12.6295 3.09954 12.8805C3.36319 13.398 3.78389 13.8187 4.30133 14.0823C4.55233 14.2102 4.87483 14.293 5.41209 14.3369C5.95809 14.3815 6.65734 14.382 7.64981 14.382H7.95542C8.94789 14.382 9.64713 14.3815 10.1931 14.3369C10.7304 14.293 11.0529 14.2102 11.3039 14.0823C11.8213 13.8187 12.242 13.398 12.5057 12.8805C12.6336 12.6295 12.7163 12.307 12.7602 11.7698C12.8048 11.2238 12.8054 10.5245 12.8054 9.53205V6.66513C12.8054 6.29804 12.8046 6.02722 12.7987 5.81494H12.4409H12.4105C11.8763 5.81495 11.4305 5.81496 11.0662 5.7852C10.6864 5.75416 10.3297 5.68705 9.99244 5.51521C9.475 5.25156 9.0543 4.83086 8.79065 4.31341C8.61881 3.97615 8.5517 3.6195 8.52066 3.23961C8.4909 2.87538 8.49091 2.42954 8.49092 1.89539V1.89538L8.49092 1.86494V1.50673ZM12.3727 4.31494C12.2144 4.07124 11.9802 3.83093 11.3849 3.23566L11.0678 2.91859C10.4735 2.32426 10.2341 2.09097 9.99092 1.93295C9.991 2.46806 9.99247 2.83346 10.0157 3.11746C10.0391 3.40459 10.081 3.54187 10.1272 3.63243C10.247 3.86763 10.4382 4.05886 10.6734 4.1787C10.764 4.22484 10.9013 4.26672 11.1884 4.29018C11.4724 4.31339 11.8377 4.31486 12.3727 4.31494ZM9.4992 0.116708C9.01034 -0.000267982 8.5001 -0.000155926 7.73273 1.25766e-05L7.6431 2.563e-05L7.61059 2.55108e-05C6.66122 1.90735e-05 5.90313 1.38879e-05 5.29078 0.0498871C4.66275 0.101038 4.12249 0.208339 3.62605 0.460349C2.82185 0.868585 2.16836 1.52207 1.76013 2.32627C1.50812 2.82271 1.40082 3.36297 1.34967 3.991C1.29979 4.60335 1.2998 5.36144 1.2998 6.31081V6.31082V6.34332V9.53205V9.56466C1.2998 10.5171 1.29979 11.2777 1.34998 11.8919C1.40145 12.5219 1.50944 13.0638 1.76303 13.5615C2.17049 14.3612 2.82066 15.0114 3.62035 15.4188C4.11804 15.6724 4.65992 15.7804 5.28994 15.8319C5.90421 15.8821 6.66477 15.8821 7.61723 15.882H7.64981H7.95542H7.988C8.94046 15.8821 9.70102 15.8821 10.3153 15.8319C10.9453 15.7804 11.4872 15.6724 11.9849 15.4188C12.7846 15.0114 13.4347 14.3612 13.8422 13.5615C14.0958 13.0638 14.2038 12.5219 14.2552 11.8919C14.3054 11.2777 14.3054 10.5171 14.3054 9.56468V9.53205V6.66513L14.3054 6.57521C14.3056 5.80538 14.3057 5.29349 14.188 4.80314C14.0839 4.36948 13.9122 3.95492 13.6791 3.57466C13.4157 3.14469 13.0536 2.78281 12.5092 2.23858L12.4456 2.175L12.1285 1.85793L12.0651 1.79455L12.0651 1.79454C11.5226 1.25181 11.1619 0.890937 10.7335 0.627977C10.3516 0.393547 9.93502 0.220992 9.4992 0.116708Z" fill="url(#paint0_linear_684_76)"/>
<path d="M6.90001 6.20026C4.96706 6.20026 3.3999 7.76735 3.3999 9.70037C3.40032 10.9038 4.01775 12.0134 5.01906 12.6511C5.16507 12.7441 5.35011 12.6455 5.37091 12.4736L5.53636 11.1064C5.54535 11.0321 5.51982 10.9583 5.47165 10.9011C5.18952 10.5658 5.03346 10.1408 5.03324 9.70034C5.03324 8.66947 5.86907 7.83365 6.89994 7.83365C7.93081 7.83365 8.76663 8.66947 8.76663 9.70034C8.76577 10.1403 8.60971 10.5646 8.32783 10.8994C8.27962 10.9567 8.25408 11.0305 8.26308 11.1048L8.42848 12.4706C8.44928 12.6424 8.63431 12.7411 8.78033 12.6481C9.78086 12.011 10.3985 10.9028 10.4 9.70031C10.4 7.76735 8.8329 6.2002 6.89988 6.2002" fill="url(#paint1_linear_684_76)"/>
<path d="M6.90009 8.53374C6.59066 8.53374 6.2939 8.65666 6.07511 8.87546C5.85631 9.09425 5.7334 9.391 5.7334 9.70043C5.73366 9.90004 5.78514 10.0963 5.8829 10.2703C5.98066 10.4443 6.12144 10.5904 6.29178 10.6945L6.00174 13.0791C6.29465 13.1583 6.59664 13.1991 6.90009 13.2004C7.20326 13.1998 7.50509 13.1598 7.79796 13.0814L7.50839 10.6944C7.67873 10.5903 7.81952 10.4443 7.91727 10.2702C8.01503 10.0962 8.06651 9.89999 8.06677 9.70038C8.06677 9.39095 7.94386 9.0942 7.72506 8.87541C7.50627 8.65661 7.20951 8.53374 6.90009 8.53374Z" fill="url(#paint2_linear_684_76)"/>
<defs>
<linearGradient id="paint0_linear_684_76" x1="1.2998" y1="7.94102" x2="14.3054" y2="7.94102" gradientUnits="userSpaceOnUse">
<stop stop-color="#FFC152"/>
<stop offset="1" stop-color="#FF5F5F"/>
</linearGradient>
<linearGradient id="paint1_linear_684_76" x1="3.3999" y1="9.44353" x2="10.4" y2="9.44353" gradientUnits="userSpaceOnUse">
<stop stop-color="#FFC152"/>
<stop offset="1" stop-color="#FF5F5F"/>
</linearGradient>
<linearGradient id="paint2_linear_684_76" x1="5.7334" y1="10.8671" x2="8.06677" y2="10.8671" gradientUnits="userSpaceOnUse">
<stop stop-color="#FFC152"/>
<stop offset="1" stop-color="#FF5F5F"/>
</linearGradient>
</defs>
</svg>
