<svg width="16" height="16" viewBox="0 0 16 16" fill="none" xmlns="http://www.w3.org/2000/svg">
<path fill-rule="evenodd" clip-rule="evenodd" d="M8.49092 1.50673C8.27926 1.50084 8.00921 1.50003 7.6431 1.50003C6.65384 1.50003 5.95685 1.50061 5.41255 1.54494C4.87695 1.58856 4.55536 1.6708 4.30502 1.79788C3.78466 2.06203 3.36181 2.48488 3.09766 3.00524C2.97058 3.25558 2.88834 3.57718 2.84472 4.11277C2.80038 4.65707 2.79981 5.35406 2.79981 6.34332V9.53205C2.79981 10.5245 2.80039 11.2238 2.845 11.7698C2.88889 12.307 2.97165 12.6295 3.09954 12.8805C3.36319 13.398 3.78389 13.8187 4.30133 14.0823C4.55233 14.2102 4.87483 14.293 5.41209 14.3369C5.95809 14.3815 6.65734 14.382 7.64981 14.382H7.95542C8.94789 14.382 9.64713 14.3815 10.1931 14.3369C10.7304 14.293 11.0529 14.2102 11.3039 14.0823C11.8213 13.8187 12.242 13.398 12.5057 12.8805C12.6336 12.6295 12.7163 12.307 12.7602 11.7698C12.8048 11.2238 12.8054 10.5245 12.8054 9.53205V6.66513C12.8054 6.29804 12.8046 6.02722 12.7987 5.81494H12.4409H12.4105C11.8763 5.81495 11.4305 5.81496 11.0662 5.7852C10.6864 5.75416 10.3297 5.68705 9.99244 5.51521C9.475 5.25156 9.0543 4.83086 8.79065 4.31341C8.61881 3.97615 8.5517 3.6195 8.52066 3.23961C8.4909 2.87538 8.49091 2.42954 8.49092 1.89539V1.89538L8.49092 1.86494V1.50673ZM12.3727 4.31494C12.2144 4.07124 11.9802 3.83093 11.3849 3.23566L11.0678 2.91859C10.4735 2.32426 10.2341 2.09097 9.99092 1.93295C9.991 2.46806 9.99247 2.83346 10.0157 3.11746C10.0391 3.40459 10.081 3.54187 10.1272 3.63243C10.247 3.86763 10.4382 4.05886 10.6734 4.1787C10.764 4.22484 10.9013 4.26672 11.1884 4.29018C11.4724 4.31339 11.8377 4.31486 12.3727 4.31494ZM9.4992 0.116708C9.01034 -0.000268012 8.5001 -0.000155956 7.73273 1.25468e-05L7.6431 2.56002e-05L7.61059 2.5481e-05C6.66122 1.90437e-05 5.90313 1.38581e-05 5.29078 0.049887C4.66275 0.101038 4.12249 0.208339 3.62605 0.460349C2.82185 0.868585 2.16836 1.52207 1.76013 2.32627C1.50812 2.82271 1.40082 3.36297 1.34967 3.991C1.29979 4.60335 1.2998 5.36144 1.2998 6.31081V6.31082V6.34332V9.53205V9.56466C1.2998 10.5171 1.29979 11.2777 1.34998 11.8919C1.40145 12.5219 1.50944 13.0638 1.76303 13.5615C2.17049 14.3612 2.82066 15.0114 3.62035 15.4188C4.11804 15.6724 4.65993 15.7804 5.28994 15.8319C5.90421 15.8821 6.66477 15.8821 7.61723 15.882H7.64981H7.95542H7.988C8.94046 15.8821 9.70102 15.8821 10.3153 15.8319C10.9453 15.7804 11.4872 15.6724 11.9849 15.4188C12.7846 15.0114 13.4347 14.3612 13.8422 13.5615C14.0958 13.0638 14.2038 12.5219 14.2552 11.8919C14.3054 11.2777 14.3054 10.5171 14.3054 9.56468V9.53205V6.66513L14.3054 6.57521C14.3056 5.80538 14.3057 5.29349 14.188 4.80314C14.0839 4.36948 13.9122 3.95492 13.6791 3.57466C13.4157 3.14469 13.0536 2.78281 12.5092 2.23858L12.4456 2.175L12.1285 1.85793L12.0651 1.79455L12.0651 1.79454C11.5226 1.25181 11.1619 0.890937 10.7335 0.627977C10.3516 0.393547 9.93502 0.220992 9.4992 0.116708Z" fill="url(#paint0_linear_666_163)"/>
<path fill-rule="evenodd" clip-rule="evenodd" d="M5.41887 10.8769C5.37551 10.738 5.34614 10.5606 5.34439 10.4697C5.34319 10.3916 5.35757 10.2695 5.36156 10.2358V10.2358C5.36194 10.2325 5.35816 10.2304 5.3556 10.2325L3.99033 11.3497C3.75031 11.5435 3.42842 11.5435 3.27657 11.3489C3.12752 11.1575 3.20414 10.8556 3.44102 10.674L3.45046 10.6667L5.73096 8.91665C5.80684 8.85842 5.76553 8.73713 5.66989 8.73732L4.55699 8.73952C4.55672 8.73952 4.55653 8.73925 4.55661 8.739V8.739C4.5567 8.73874 4.5565 8.73848 4.55624 8.73848C4.31758 8.73752 4.16181 8.57667 4.20656 8.38263C4.25029 8.19232 4.47107 8.04116 4.70059 8.04116H4.70479L7.20312 8.03831C7.29716 8.0382 7.33907 7.92012 7.26613 7.86075L6.57213 7.29588C6.43076 7.17901 6.44897 6.9943 6.60882 6.88268C6.76627 6.77247 7.00771 6.77212 7.15149 6.88198L7.15712 6.88688L9.34353 8.56594C9.55775 8.73082 9.7404 8.93301 9.88374 9.16215C10.1186 9.53752 10.2274 9.97809 10.1944 10.4196C10.1824 10.5723 10.1531 10.7232 10.107 10.8692C10.0124 11.1682 9.85415 11.4431 9.643 11.675C9.41616 11.9249 9.13955 12.1245 8.83095 12.2611C8.49489 12.4103 8.13116 12.4872 7.76344 12.4867C7.39605 12.4886 7.03243 12.4128 6.69632 12.2646C6.38728 12.1297 6.11029 11.9309 5.88355 11.6813C5.67202 11.4502 5.51343 11.1757 5.41887 10.8769ZM7.76383 11.4294C8.19241 11.4287 8.5878 11.2653 8.87049 10.977C9.00414 10.8423 9.10745 10.6805 9.17351 10.5025C9.23492 10.3335 9.25855 10.153 9.24274 9.97387C9.22738 9.79718 9.17488 9.62923 9.09093 9.47671C9.00835 9.32698 8.89427 9.19228 8.75466 9.0782C8.47356 8.85349 8.12367 8.73241 7.76383 8.73531C7.4036 8.73318 7.05365 8.85524 6.77294 9.08099C6.63299 9.19611 6.51892 9.33113 6.43634 9.48125C6.35201 9.63344 6.29989 9.8021 6.28452 9.9788C6.26861 10.158 6.2924 10.3385 6.35414 10.5075C6.41949 10.6851 6.52263 10.8465 6.65646 10.9805C6.93946 11.2681 7.33486 11.4301 7.76383 11.4294ZM7.14941 9.41229C6.97693 9.55819 6.8629 9.7636 6.84994 9.99695C6.83627 10.237 6.93285 10.4598 7.10183 10.625C7.28843 10.8029 7.53709 10.9011 7.79494 10.8986C8.05258 10.901 8.30097 10.8028 8.4874 10.625C8.65671 10.4598 8.75296 10.237 8.73967 9.99695C8.72671 9.76393 8.6123 9.55819 8.44015 9.41229C8.27045 9.26884 8.04301 9.1814 7.79461 9.1814C7.55908 9.17986 7.33054 9.26168 7.14941 9.41229Z" fill="url(#paint1_linear_666_163)"/>
<defs>
<linearGradient id="paint0_linear_666_163" x1="7.84081" y1="19.1174" x2="7.84081" y2="1.51704" gradientUnits="userSpaceOnUse">
<stop stop-color="#FDA700"/>
<stop offset="1" stop-color="#FFDE00"/>
</linearGradient>
<linearGradient id="paint1_linear_666_163" x1="6.70021" y1="12.4868" x2="6.70021" y2="6.7998" gradientUnits="userSpaceOnUse">
<stop stop-color="#FDA700"/>
<stop offset="1" stop-color="#FFDE00"/>
</linearGradient>
</defs>
</svg>
