<svg width="16" height="16" viewBox="0 0 16 16" fill="none" xmlns="http://www.w3.org/2000/svg">
<path fill-rule="evenodd" clip-rule="evenodd" d="M8.49092 1.50673C8.27926 1.50084 8.00921 1.50003 7.6431 1.50003C6.65384 1.50003 5.95685 1.50061 5.41255 1.54494C4.87695 1.58856 4.55536 1.6708 4.30502 1.79788C3.78466 2.06203 3.36181 2.48488 3.09766 3.00524C2.97058 3.25558 2.88834 3.57718 2.84472 4.11277C2.80038 4.65707 2.79981 5.35406 2.79981 6.34332V9.53205C2.79981 10.5245 2.80039 11.2238 2.845 11.7698C2.88889 12.307 2.97165 12.6295 3.09954 12.8805C3.36319 13.398 3.78389 13.8187 4.30133 14.0823C4.55233 14.2102 4.87483 14.293 5.41209 14.3369C5.95809 14.3815 6.65734 14.382 7.64981 14.382H7.95542C8.94789 14.382 9.64713 14.3815 10.1931 14.3369C10.7304 14.293 11.0529 14.2102 11.3039 14.0823C11.8213 13.8187 12.242 13.398 12.5057 12.8805C12.6336 12.6295 12.7163 12.307 12.7602 11.7698C12.8048 11.2238 12.8054 10.5245 12.8054 9.53205V6.66513C12.8054 6.29804 12.8046 6.02722 12.7987 5.81494H12.4409H12.4105C11.8763 5.81495 11.4305 5.81496 11.0662 5.7852C10.6864 5.75416 10.3297 5.68705 9.99244 5.51521C9.475 5.25156 9.0543 4.83086 8.79065 4.31341C8.61881 3.97615 8.5517 3.6195 8.52066 3.23961C8.4909 2.87538 8.49091 2.42954 8.49092 1.89539V1.89538L8.49092 1.86494V1.50673ZM12.3727 4.31494C12.2144 4.07124 11.9802 3.83093 11.3849 3.23566L11.0678 2.91859C10.4735 2.32426 10.2341 2.09097 9.99092 1.93295C9.991 2.46806 9.99247 2.83346 10.0157 3.11746C10.0391 3.40459 10.081 3.54187 10.1272 3.63243C10.247 3.86763 10.4382 4.05886 10.6734 4.1787C10.764 4.22484 10.9013 4.26672 11.1884 4.29018C11.4724 4.31339 11.8377 4.31486 12.3727 4.31494ZM9.4992 0.116708C9.01034 -0.000268012 8.5001 -0.000155956 7.73273 1.25468e-05L7.6431 2.56002e-05L7.61059 2.5481e-05C6.66122 1.90437e-05 5.90313 1.38581e-05 5.29078 0.049887C4.66275 0.101038 4.12249 0.208339 3.62605 0.460349C2.82185 0.868585 2.16836 1.52207 1.76013 2.32627C1.50812 2.82271 1.40082 3.36297 1.34967 3.991C1.29979 4.60335 1.2998 5.36144 1.2998 6.31081V6.31082V6.34332V9.53205V9.56466C1.2998 10.5171 1.29979 11.2777 1.34998 11.8919C1.40145 12.5219 1.50944 13.0638 1.76303 13.5615C2.17049 14.3612 2.82066 15.0114 3.62035 15.4188C4.11804 15.6724 4.65993 15.7804 5.28994 15.8319C5.90421 15.8821 6.66477 15.8821 7.61723 15.882H7.64981H7.95542H7.988C8.94046 15.8821 9.70102 15.8821 10.3153 15.8319C10.9453 15.7804 11.4872 15.6724 11.9849 15.4188C12.7846 15.0114 13.4347 14.3612 13.8422 13.5615C14.0958 13.0638 14.2038 12.5219 14.2552 11.8919C14.3054 11.2777 14.3054 10.5171 14.3054 9.56468V9.53205V6.66513L14.3054 6.57521C14.3056 5.80538 14.3057 5.29349 14.188 4.80314C14.0839 4.36948 13.9122 3.95492 13.6791 3.57466C13.4157 3.14469 13.0536 2.78281 12.5092 2.23858L12.4456 2.175L12.1285 1.85793L12.0651 1.79455L12.0651 1.79454C11.5226 1.25181 11.1619 0.890937 10.7335 0.627977C10.3516 0.393547 9.93502 0.220992 9.4992 0.116708Z" fill="url(#paint0_linear_632_82)"/>
<path d="M5.16765 9.28945C5.10474 9.3648 5.07816 9.56617 5.14535 9.63774C5.34431 9.84969 5.44379 10.163 5.44379 10.5777C5.44379 11.3368 5.4806 11.7904 5.55429 11.9385C5.59308 12.0151 5.64379 12.0716 5.70644 12.1078C5.80405 12.1643 5.90135 12.2498 5.89803 12.3625L5.88444 12.8235C5.88201 12.9059 5.82945 12.9792 5.75037 13.0026C5.5641 13.0578 5.38823 13.0854 5.22288 13.0854C4.8494 13.0854 4.55922 12.9414 4.35231 12.6533C4.14541 12.3652 4.04195 11.9439 4.04195 11.3893V11.2964C4.04195 10.9357 4.02705 10.684 3.99724 10.5413C3.9597 10.3596 3.89077 10.2369 3.79047 10.1731C3.69725 10.1139 3.6001 10.0318 3.6001 9.92138V9.11795C3.6001 9.00749 3.69609 8.92578 3.79244 8.87176C3.88725 8.81861 3.95464 8.71958 3.99461 8.5747C4.03845 8.41313 4.06563 8.20445 4.07615 7.94876C4.08842 7.69026 4.09982 7.4857 4.11034 7.33495C4.13314 7.01457 4.20678 6.74532 4.33127 6.52732C4.45752 6.30919 4.68283 6.2002 5.0072 6.2002C5.05104 6.2002 5.20885 6.20419 5.4806 6.21226C5.60216 6.21589 5.69741 6.21897 5.76635 6.22151C5.84808 6.22452 5.906 6.28188 5.91289 6.36338L5.96993 7.03727C5.97981 7.15396 5.8848 7.2486 5.77411 7.28684C5.61215 7.34281 5.50469 7.47056 5.45166 7.67007C5.40961 7.82895 5.38068 8.05245 5.3649 8.34045C5.35087 8.62588 5.33247 8.83313 5.30967 8.96238C5.28688 9.09163 5.23953 9.20057 5.16765 9.28945V9.28945ZM7.44072 6.39684C7.44314 6.31473 7.49758 6.24988 7.57943 6.24293C7.64852 6.23707 7.74304 6.23088 7.86297 6.22438C8.11366 6.20826 8.3031 6.2002 8.43104 6.2002C8.92729 6.2002 9.20254 6.51251 9.25691 7.13701C9.27447 7.3282 9.28322 7.55976 9.28322 7.83163V7.92451C9.28322 8.28526 9.2981 8.53701 9.32791 8.67963C9.36547 8.86138 9.4344 8.98414 9.53473 9.04794C9.62794 9.1072 9.7251 9.18924 9.7251 9.29969V10.1058C9.7251 10.2152 9.63036 10.2971 9.53726 10.3545C9.4474 10.4099 9.38112 10.5098 9.33847 10.6544C9.2981 10.7916 9.26129 10.9976 9.22797 11.2722C9.19466 11.5441 9.16485 11.7554 9.13854 11.9062C9.08241 12.232 8.96672 12.5053 8.79135 12.726C8.61779 12.9468 8.33904 13.0571 7.95504 13.0571C7.8358 13.0571 7.70683 13.0451 7.56807 13.0211C7.48182 13.0061 7.4187 12.9331 7.41132 12.8459L7.35531 12.1837C7.34544 12.067 7.44055 11.9728 7.55113 11.9342C7.71039 11.8787 7.81082 11.7522 7.85241 11.5549C7.87872 11.4311 7.89454 11.2938 7.89979 11.143C7.90504 10.9923 7.90941 10.8388 7.91291 10.6827C7.91816 10.5265 7.9331 10.3811 7.95766 10.2464C7.98222 10.1119 8.03478 9.99482 8.11541 9.8952V9.8952C8.17207 9.82673 8.16744 9.58547 8.10637 9.5209C8.06738 9.47967 8.03448 9.43212 8.00766 9.37826C7.92347 9.20594 7.88135 8.96638 7.88135 8.65945C7.88135 8.35257 7.8796 8.14257 7.8761 8.02957C7.86735 7.65257 7.83579 7.41032 7.78141 7.30263C7.73897 7.2176 7.68559 7.15533 7.62128 7.11582C7.52405 7.05609 7.4239 6.96905 7.42726 6.85499L7.44072 6.39684Z" fill="url(#paint1_linear_632_82)"/>
<defs>
<linearGradient id="paint0_linear_632_82" x1="-1.70151" y1="17.5537" x2="15.6812" y2="0.546234" gradientUnits="userSpaceOnUse">
<stop stop-color="#FD5900"/>
<stop offset="1" stop-color="#FFDE00"/>
</linearGradient>
<linearGradient id="paint1_linear_632_82" x1="1.95586" y1="13.8101" x2="9.3268" y2="4.6965" gradientUnits="userSpaceOnUse">
<stop stop-color="#FD5900"/>
<stop offset="1" stop-color="#FFDE00"/>
</linearGradient>
</defs>
</svg>
