<svg width="16" height="16" viewBox="0 0 16 16" fill="none" xmlns="http://www.w3.org/2000/svg">
<path fill-rule="evenodd" clip-rule="evenodd" d="M8.49092 1.50673C8.27926 1.50084 8.00921 1.50003 7.6431 1.50003C6.65384 1.50003 5.95685 1.50061 5.41255 1.54494C4.87695 1.58856 4.55536 1.6708 4.30502 1.79788C3.78466 2.06203 3.36181 2.48488 3.09766 3.00524C2.97058 3.25558 2.88834 3.57718 2.84472 4.11277C2.80038 4.65707 2.79981 5.35406 2.79981 6.34332V9.53205C2.79981 10.5245 2.80039 11.2238 2.845 11.7698C2.88889 12.307 2.97165 12.6295 3.09954 12.8805C3.36319 13.398 3.78389 13.8187 4.30133 14.0823C4.55233 14.2102 4.87483 14.293 5.41209 14.3369C5.95809 14.3815 6.65734 14.382 7.64981 14.382H7.95542C8.94789 14.382 9.64713 14.3815 10.1931 14.3369C10.7304 14.293 11.0529 14.2102 11.3039 14.0823C11.8213 13.8187 12.242 13.398 12.5057 12.8805C12.6336 12.6295 12.7163 12.307 12.7602 11.7698C12.8048 11.2238 12.8054 10.5245 12.8054 9.53205V6.66513C12.8054 6.29804 12.8046 6.02722 12.7987 5.81494H12.4409H12.4105C11.8763 5.81495 11.4305 5.81496 11.0662 5.7852C10.6864 5.75416 10.3297 5.68705 9.99244 5.51521C9.475 5.25156 9.0543 4.83086 8.79065 4.31341C8.61881 3.97615 8.5517 3.6195 8.52066 3.23961C8.4909 2.87538 8.49091 2.42954 8.49092 1.89539V1.89538L8.49092 1.86494V1.50673ZM12.3727 4.31494C12.2144 4.07124 11.9802 3.83093 11.3849 3.23566L11.0678 2.91859C10.4735 2.32426 10.2341 2.09097 9.99092 1.93295C9.991 2.46806 9.99247 2.83346 10.0157 3.11746C10.0391 3.40459 10.081 3.54187 10.1272 3.63243C10.247 3.86763 10.4382 4.05886 10.6734 4.1787C10.764 4.22484 10.9013 4.26672 11.1884 4.29018C11.4724 4.31339 11.8377 4.31486 12.3727 4.31494ZM9.4992 0.116708C9.01034 -0.000268012 8.5001 -0.000155956 7.73273 1.25468e-05L7.6431 2.56002e-05L7.61059 2.5481e-05C6.66122 1.90437e-05 5.90313 1.38581e-05 5.29078 0.049887C4.66275 0.101038 4.12249 0.208339 3.62605 0.460349C2.82185 0.868585 2.16836 1.52207 1.76013 2.32627C1.50812 2.82271 1.40082 3.36297 1.34967 3.991C1.29979 4.60335 1.2998 5.36144 1.2998 6.31081V6.31082V6.34332V9.53205V9.56466C1.2998 10.5171 1.29979 11.2777 1.34998 11.8919C1.40145 12.5219 1.50944 13.0638 1.76303 13.5615C2.17049 14.3612 2.82066 15.0114 3.62035 15.4188C4.11804 15.6724 4.65993 15.7804 5.28994 15.8319C5.90421 15.8821 6.66477 15.8821 7.61723 15.882H7.64981H7.95542H7.988C8.94046 15.8821 9.70102 15.8821 10.3153 15.8319C10.9453 15.7804 11.4872 15.6724 11.9849 15.4188C12.7846 15.0114 13.4347 14.3612 13.8422 13.5615C14.0958 13.0638 14.2038 12.5219 14.2552 11.8919C14.3054 11.2777 14.3054 10.5171 14.3054 9.56468V9.53205V6.66513L14.3054 6.57521C14.3056 5.80538 14.3057 5.29349 14.188 4.80314C14.0839 4.36948 13.9122 3.95492 13.6791 3.57466C13.4157 3.14469 13.0536 2.78281 12.5092 2.23858L12.4456 2.175L12.1285 1.85793L12.0651 1.79455L12.0651 1.79454C11.5226 1.25181 11.1619 0.890937 10.7335 0.627977C10.3516 0.393547 9.93502 0.220992 9.4992 0.116708Z" fill="url(#paint0_linear_627_202)"/>
<path d="M9.46509 6.00019C8.95386 6.00764 6.85684 6.22125 6.01737 9.16422C5.30399 11.6653 3.93675 11.6041 3.76776 11.5877C3.75651 11.5866 3.75618 11.5862 3.74491 11.5853V11.5853C3.69707 11.5819 3.6001 11.6593 3.6001 11.7073V12.8619C3.6001 12.938 3.66204 12.9996 3.73815 12.9991V12.9991C3.74693 12.9991 3.75549 12.9984 3.76426 12.9983C3.96277 12.9971 6.07868 13.1684 7.09808 10.3517C7.12728 10.271 7.20388 10.2143 7.28968 10.2143H8.79597C8.90643 10.2143 8.99597 10.1248 8.99597 10.0143V9.00623C8.99597 8.89578 8.90643 8.80623 8.79597 8.80623H8.01374C7.88266 8.80623 7.79139 8.68372 7.84575 8.56445C8.0256 8.16983 8.50545 7.42906 9.57828 7.41091C9.57857 7.41091 9.57844 7.41091 9.57873 7.4109V7.4109C9.66446 7.40986 9.72485 7.34834 9.72485 7.2626V6.07538C9.72485 6.03386 9.69118 6.00019 9.64966 6.00019H9.5757C9.57502 6.00019 9.57446 6.00075 9.57446 6.00143V6.00143C9.57446 6.00215 9.57388 6.00271 9.57316 6.00265C9.56565 6.00204 9.52986 5.99925 9.46509 6.00019Z" fill="url(#paint1_linear_627_202)" stroke="url(#paint2_linear_627_202)" stroke-width="0.3"/>
<defs>
<linearGradient id="paint0_linear_627_202" x1="1.2979" y1="7.70568" x2="14.3026" y2="7.70568" gradientUnits="userSpaceOnUse">
<stop stop-color="#FD3A84"/>
<stop offset="1" stop-color="#FFA68D"/>
</linearGradient>
<linearGradient id="paint1_linear_627_202" x1="3.5992" y1="9.39627" x2="9.72356" y2="9.39627" gradientUnits="userSpaceOnUse">
<stop stop-color="#FD3A84"/>
<stop offset="1" stop-color="#FFA68D"/>
</linearGradient>
<linearGradient id="paint2_linear_627_202" x1="3.5992" y1="9.39627" x2="9.72356" y2="9.39627" gradientUnits="userSpaceOnUse">
<stop stop-color="#FD3A84"/>
<stop offset="1" stop-color="#FFA68D"/>
</linearGradient>
</defs>
</svg>
