<svg width="16" height="16" viewBox="0 0 16 16" fill="none" xmlns="http://www.w3.org/2000/svg">
<path fill-rule="evenodd" clip-rule="evenodd" d="M8.49092 1.50673C8.27926 1.50084 8.00921 1.50003 7.6431 1.50003C6.65384 1.50003 5.95685 1.50061 5.41255 1.54494C4.87695 1.58856 4.55536 1.6708 4.30502 1.79788C3.78466 2.06203 3.36181 2.48488 3.09766 3.00524C2.97058 3.25558 2.88834 3.57718 2.84472 4.11277C2.80038 4.65707 2.79981 5.35406 2.79981 6.34332V9.53205C2.79981 10.5245 2.80039 11.2238 2.845 11.7698C2.88889 12.307 2.97165 12.6295 3.09954 12.8805C3.36319 13.398 3.78389 13.8187 4.30133 14.0823C4.55233 14.2102 4.87483 14.293 5.41209 14.3369C5.95809 14.3815 6.65734 14.382 7.64981 14.382H7.95542C8.94789 14.382 9.64713 14.3815 10.1931 14.3369C10.7304 14.293 11.0529 14.2102 11.3039 14.0823C11.8213 13.8187 12.242 13.398 12.5057 12.8805C12.6336 12.6295 12.7163 12.307 12.7602 11.7698C12.8048 11.2238 12.8054 10.5245 12.8054 9.53205V6.66513C12.8054 6.29804 12.8046 6.02722 12.7987 5.81494H12.4409H12.4105C11.8763 5.81495 11.4305 5.81496 11.0662 5.7852C10.6864 5.75416 10.3297 5.68705 9.99244 5.51521C9.475 5.25156 9.0543 4.83086 8.79065 4.31341C8.61881 3.97615 8.5517 3.6195 8.52066 3.23961C8.4909 2.87538 8.49091 2.42954 8.49092 1.89539V1.89538L8.49092 1.86494V1.50673ZM12.3727 4.31494C12.2144 4.07124 11.9802 3.83093 11.3849 3.23566L11.0678 2.91859C10.4735 2.32426 10.2341 2.09097 9.99092 1.93295C9.991 2.46806 9.99247 2.83346 10.0157 3.11746C10.0391 3.40459 10.081 3.54187 10.1272 3.63243C10.247 3.86763 10.4382 4.05886 10.6734 4.1787C10.764 4.22484 10.9013 4.26672 11.1884 4.29018C11.4724 4.31339 11.8377 4.31486 12.3727 4.31494ZM9.4992 0.116708C9.01034 -0.000268012 8.5001 -0.000155956 7.73273 1.25468e-05L7.6431 2.56002e-05L7.61059 2.5481e-05C6.66122 1.90437e-05 5.90313 1.38581e-05 5.29078 0.049887C4.66275 0.101038 4.12249 0.208339 3.62605 0.460349C2.82185 0.868585 2.16836 1.52207 1.76013 2.32627C1.50812 2.82271 1.40082 3.36297 1.34967 3.991C1.29979 4.60335 1.2998 5.36144 1.2998 6.31081V6.31082V6.34332V9.53205V9.56466C1.2998 10.5171 1.29979 11.2777 1.34998 11.8919C1.40145 12.5219 1.50944 13.0638 1.76303 13.5615C2.17049 14.3612 2.82066 15.0114 3.62035 15.4188C4.11804 15.6724 4.65993 15.7804 5.28994 15.8319C5.90421 15.8821 6.66477 15.8821 7.61723 15.882H7.64981H7.95542H7.988C8.94046 15.8821 9.70102 15.8821 10.3153 15.8319C10.9453 15.7804 11.4872 15.6724 11.9849 15.4188C12.7846 15.0114 13.4347 14.3612 13.8422 13.5615C14.0958 13.0638 14.2038 12.5219 14.2552 11.8919C14.3054 11.2777 14.3054 10.5171 14.3054 9.56468V9.53205V6.66513L14.3054 6.57521C14.3056 5.80538 14.3057 5.29349 14.188 4.80314C14.0839 4.36948 13.9122 3.95492 13.6791 3.57466C13.4157 3.14469 13.0536 2.78281 12.5092 2.23858L12.4456 2.175L12.1285 1.85793L12.0651 1.79455L12.0651 1.79454C11.5226 1.25181 11.1619 0.890937 10.7335 0.627977C10.3516 0.393547 9.93502 0.220992 9.4992 0.116708Z" fill="url(#paint0_linear_626_194)"/>
<path fill-rule="evenodd" clip-rule="evenodd" d="M5.00051 12.9939C5.02773 12.997 5.06101 13 5.09126 13C5.29092 13 5.51781 12.9123 5.64487 12.7792L6.89543 11.5314C6.94536 11.4816 7.01776 11.4624 7.08681 11.4767C7.90673 11.6468 8.76104 11.3937 9.36888 10.7916C9.84384 10.3167 10.104 9.68439 10.104 9.0128C10.104 8.34121 9.84384 7.70894 9.36888 7.23399C8.38569 6.25383 6.79142 6.25685 5.81126 7.23399C5.20603 7.83342 4.95285 8.69064 5.12069 9.51644C5.13468 9.58528 5.11532 9.65731 5.06564 9.70698L3.81766 10.955C3.6664 11.1093 3.57564 11.3845 3.60589 11.5963L3.69665 12.2588C3.74505 12.5795 4.02942 12.8608 4.34404 12.9032L5.00051 12.9939ZM6.1289 7.55466C6.53125 7.15231 7.05764 6.95264 7.58704 6.95264C8.11645 6.95264 8.64586 7.15533 9.03914 7.55466C9.42636 7.94188 9.64115 8.45919 9.64115 9.0128C9.64115 9.56338 9.42636 10.0837 9.03914 10.4709C8.4946 11.0155 7.69898 11.2121 6.96991 10.9822C6.89125 10.958 6.80352 10.9761 6.74302 11.0367L5.31513 12.4615C5.2637 12.5129 5.13059 12.5553 5.05799 12.5432L4.39849 12.4524C4.28354 12.4373 4.1595 12.3072 4.14135 12.1923L4.0506 11.5298C4.04152 11.4602 4.08387 11.3271 4.1353 11.2756L5.55714 9.8538C5.61765 9.7933 5.63882 9.70859 5.61462 9.62691C5.38773 8.88877 5.58437 8.09617 6.1289 7.55466ZM6.92786 8.99134C6.92786 9.36646 7.2334 9.672 7.60852 9.672C7.98365 9.672 8.28919 9.36646 8.28919 8.99134C8.28919 8.61621 7.98365 8.31067 7.60852 8.31067C7.2334 8.31067 6.92786 8.61621 6.92786 8.99134ZM7.38163 8.99134C7.38163 8.8673 7.48449 8.76445 7.60852 8.76445C7.73256 8.76445 7.83541 8.8673 7.83541 8.99134C7.83541 9.11537 7.73256 9.21823 7.60852 9.21823C7.48449 9.21823 7.38163 9.11537 7.38163 8.99134Z" fill="url(#paint1_linear_626_194)"/>
<path d="M5.00051 12.9939L4.94571 13.3903L4.95634 13.3915L5.00051 12.9939ZM5.64487 12.7792L5.36227 12.4959L5.35553 12.503L5.64487 12.7792ZM9.36888 10.7916L9.65037 11.0758L9.65172 11.0745L9.36888 10.7916ZM9.36888 7.23399L9.65172 6.95114L9.65129 6.95071L9.36888 7.23399ZM5.81126 7.23399L6.09274 7.51819L6.09366 7.51727L5.81126 7.23399ZM3.81766 10.955L3.5348 10.6721L3.53203 10.6749L3.81766 10.955ZM3.60589 11.5963L4.0022 11.542L4.00187 11.5397L3.60589 11.5963ZM3.69665 12.2588L3.30031 12.3131L3.30113 12.3185L3.69665 12.2588ZM4.34404 12.9032L4.39882 12.507L4.39741 12.5068L4.34404 12.9032ZM6.1289 7.55466L6.41096 7.83829L6.41175 7.8375L6.1289 7.55466ZM9.03914 7.55466L8.75413 7.83534L8.75629 7.8375L9.03914 7.55466ZM9.03914 10.4709L8.75629 10.1881L8.75629 10.1881L9.03914 10.4709ZM6.96991 10.9822L7.09021 10.6007L7.08754 10.5999L6.96991 10.9822ZM6.74302 11.0367L7.02556 11.3198L7.02586 11.3195L6.74302 11.0367ZM5.31513 12.4615L5.03258 12.1784L5.03228 12.1787L5.31513 12.4615ZM5.05799 12.5432L5.12377 12.1485L5.11252 12.1469L5.05799 12.5432ZM4.39849 12.4524L4.45303 12.0562L4.45068 12.0559L4.39849 12.4524ZM4.14135 12.1923L3.74497 12.2466L3.74625 12.2547L4.14135 12.1923ZM4.0506 11.5298L3.65395 11.5815L3.6543 11.584L4.0506 11.5298ZM4.1353 11.2756L3.85246 10.9928L3.85246 10.9928L4.1353 11.2756ZM5.55714 9.8538L5.83998 10.1366L5.83999 10.1366L5.55714 9.8538ZM5.61462 9.62691L5.99816 9.51327L5.99697 9.50939L5.61462 9.62691ZM5.06564 9.70698L4.7828 9.42414L5.06564 9.70698ZM6.89543 11.5314L6.61291 11.2483L6.89543 11.5314ZM5.09126 12.6C5.08876 12.6 5.08311 12.5998 5.07394 12.5992C5.06508 12.5985 5.05527 12.5976 5.04468 12.5964L4.95634 13.3915C4.98732 13.3949 5.03831 13.4 5.09126 13.4V12.6ZM5.35553 12.503C5.31474 12.5457 5.19828 12.6 5.09126 12.6V13.4C5.38357 13.4 5.72089 13.2788 5.93421 13.0554L5.35553 12.503ZM6.61291 11.2483L5.36235 12.496L5.92739 13.0623L7.17795 11.8146L6.61291 11.2483ZM9.0874 10.5074C8.57369 11.0162 7.85514 11.2276 7.16803 11.0851L7.00559 11.8684C7.95832 12.066 8.9484 11.7711 9.65037 11.0758L9.0874 10.5074ZM9.704 9.0128C9.704 9.579 9.48549 10.1093 9.08604 10.5088L9.65172 11.0745C10.2022 10.524 10.504 9.78978 10.504 9.0128H9.704ZM9.08604 7.51683C9.48549 7.91628 9.704 8.44659 9.704 9.0128H10.504C10.504 8.23582 10.2022 7.50161 9.65172 6.95114L9.08604 7.51683ZM6.09366 7.51727C6.91803 6.69544 8.25971 6.69305 9.08648 7.51727L9.65129 6.95071C8.51168 5.81461 6.66481 5.81826 5.52885 6.95071L6.09366 7.51727ZM5.51268 9.43677C5.37135 8.74144 5.58456 8.0215 6.09274 7.51819L5.52978 6.94979C4.82751 7.64534 4.53435 8.63985 4.72871 9.59611L5.51268 9.43677ZM4.1005 11.2378L5.34849 9.98983L4.7828 9.42414L3.53481 10.6721L4.1005 11.2378ZM4.00187 11.5397C3.99732 11.5079 4.00053 11.4492 4.02356 11.3794C4.04653 11.3098 4.0792 11.2596 4.10329 11.235L3.53203 10.6749C3.40486 10.8047 3.31651 10.9692 3.26386 11.1287C3.21126 11.2881 3.18422 11.473 3.20991 11.6529L4.00187 11.5397ZM4.09295 12.2045L4.00219 11.542L3.2096 11.6506L3.30035 12.3131L4.09295 12.2045ZM4.39741 12.5068C4.26212 12.4886 4.11451 12.3471 4.09217 12.1991L3.30113 12.3185C3.3756 12.8119 3.79672 13.2331 4.29068 13.2996L4.39741 12.5068ZM5.05529 12.5977L4.39882 12.507L4.28926 13.2994L4.94573 13.3902L5.05529 12.5977ZM7.58704 6.55264C6.95667 6.55264 6.32697 6.7909 5.84606 7.27181L6.41175 7.8375C6.73553 7.51371 7.1586 7.35264 7.58704 7.35264V6.55264ZM9.32413 7.27398C8.85136 6.79394 8.2173 6.55264 7.58704 6.55264V7.35264C8.01561 7.35264 8.44036 7.51672 8.75414 7.83533L9.32413 7.27398ZM10.0411 9.0128C10.0411 8.35347 9.78447 7.73431 9.32198 7.27181L8.75629 7.8375C9.06825 8.14945 9.24115 8.56491 9.24115 9.0128H10.0411ZM9.32198 10.7538C9.78469 10.2911 10.0411 9.66879 10.0411 9.0128H9.24115C9.24115 9.45797 9.06803 9.87637 8.75629 10.1881L9.32198 10.7538ZM6.8496 11.3637C7.72229 11.6389 8.67298 11.4028 9.32198 10.7538L8.75629 10.1881C8.31623 10.6282 7.67566 10.7853 7.09021 10.6007L6.8496 11.3637ZM7.02586 11.3195C6.97437 11.371 6.90518 11.3808 6.85227 11.3645L7.08754 10.5999C6.87732 10.5352 6.63267 10.5813 6.46017 10.7538L7.02586 11.3195ZM5.59767 12.7447L7.02556 11.3198L6.46047 10.7535L5.03258 12.1784L5.59767 12.7447ZM4.99223 12.9378C5.11891 12.9589 5.24095 12.9311 5.31566 12.9074C5.38986 12.8838 5.50645 12.8359 5.59797 12.7444L5.03228 12.1787C5.04603 12.1649 5.05752 12.1563 5.06382 12.152C5.07045 12.1473 5.07498 12.1449 5.0766 12.144C5.07937 12.1425 5.07801 12.1435 5.07334 12.145C5.06868 12.1465 5.06687 12.1465 5.06969 12.1461C5.07136 12.1459 5.07624 12.1454 5.08401 12.1453C5.09139 12.1452 5.10522 12.1456 5.12374 12.1486L4.99223 12.9378ZM4.34396 12.8487L5.00345 12.9395L5.11252 12.1469L4.45303 12.0562L4.34396 12.8487ZM3.74625 12.2547C3.77186 12.4169 3.86043 12.5502 3.94747 12.6393C4.0334 12.7273 4.17061 12.8259 4.34631 12.849L4.45068 12.0559C4.48475 12.0603 4.50511 12.071 4.51152 12.0747C4.51872 12.0788 4.52065 12.0812 4.51977 12.0803C4.51897 12.0795 4.5199 12.08 4.52222 12.0842C4.52407 12.0875 4.53214 12.1026 4.53646 12.1299L3.74625 12.2547ZM3.6543 11.584L3.74505 12.2466L4.53765 12.138L4.4469 11.4755L3.6543 11.584ZM3.85246 10.9928C3.76136 11.0839 3.71357 11.1999 3.6902 11.2712C3.66656 11.3432 3.63817 11.4604 3.65396 11.5815L4.44724 11.478C4.44961 11.4962 4.44948 11.5095 4.44924 11.516C4.44898 11.5229 4.44839 11.527 4.44825 11.5279C4.44805 11.5293 4.44849 11.5262 4.45032 11.5206C4.45217 11.515 4.45343 11.5129 4.45226 11.5151C4.45154 11.5164 4.44919 11.5207 4.44468 11.5272C4.44041 11.5333 4.43187 11.5448 4.41815 11.5585L3.85246 10.9928ZM5.2743 9.57096L3.85246 10.9928L4.41814 11.5585L5.83998 10.1366L5.2743 9.57096ZM5.2311 9.74055C5.22325 9.71403 5.22169 9.68256 5.22981 9.6504C5.23795 9.61816 5.25439 9.59087 5.2743 9.57096L5.83999 10.1366C6.00481 9.97182 6.06376 9.73474 5.99814 9.51328L5.2311 9.74055ZM5.84685 7.27103C5.19623 7.91803 4.96207 8.86537 5.23227 9.74444L5.99697 9.50939C5.81339 8.91217 5.97251 8.2743 6.41096 7.83829L5.84685 7.27103ZM7.60852 9.272C7.45431 9.272 7.32786 9.14555 7.32786 8.99134H6.52786C6.52786 9.58737 7.01249 10.072 7.60852 10.072V9.272ZM7.88919 8.99134C7.88919 9.14555 7.76273 9.272 7.60852 9.272V10.072C8.20456 10.072 8.68919 9.58737 8.68919 8.99134H7.88919ZM7.60852 8.71067C7.76273 8.71067 7.88919 8.83713 7.88919 8.99134H8.68919C8.68919 8.3953 8.20456 7.91067 7.60852 7.91067V8.71067ZM7.32786 8.99134C7.32786 8.83713 7.45431 8.71067 7.60852 8.71067V7.91067C7.01249 7.91067 6.52786 8.3953 6.52786 8.99134H7.32786ZM7.60852 8.36445C7.26358 8.36445 6.98163 8.64639 6.98163 8.99134H7.78163C7.78163 9.08822 7.7054 9.16445 7.60852 9.16445V8.36445ZM8.23541 8.99134C8.23541 8.64639 7.95347 8.36445 7.60852 8.36445V9.16445C7.51164 9.16445 7.43541 9.08822 7.43541 8.99134H8.23541ZM7.60852 9.61823C7.95347 9.61823 8.23541 9.33628 8.23541 8.99134H7.43541C7.43541 8.89446 7.51164 8.81823 7.60852 8.81823V9.61823ZM6.98163 8.99134C6.98163 9.33628 7.26358 9.61823 7.60852 9.61823V8.81823C7.70541 8.81823 7.78163 8.89446 7.78163 8.99134H6.98163ZM4.72871 9.59611C4.71797 9.54327 4.73073 9.47622 4.7828 9.42414L5.34849 9.98983C5.49991 9.8384 5.5514 9.6273 5.51268 9.43677L4.72871 9.59611ZM7.17795 11.8146C7.12557 11.8669 7.05828 11.8793 7.00559 11.8684L7.16803 11.0851C6.97723 11.0455 6.76515 11.0964 6.61291 11.2483L7.17795 11.8146Z" fill="url(#paint2_linear_626_194)"/>
<defs>
<linearGradient id="paint0_linear_626_194" x1="7.80263" y1="15.882" x2="7.80263" y2="0" gradientUnits="userSpaceOnUse">
<stop stop-color="#FF1B71"/>
<stop offset="0.9998" stop-color="#FF867E"/>
<stop offset="0.9999" stop-color="#FF6678"/>
</linearGradient>
<linearGradient id="paint1_linear_626_194" x1="6.85205" y1="13" x2="6.85205" y2="6.5" gradientUnits="userSpaceOnUse">
<stop stop-color="#FF1B71"/>
<stop offset="0.9998" stop-color="#FF867E"/>
<stop offset="0.9999" stop-color="#FF6678"/>
</linearGradient>
<linearGradient id="paint2_linear_626_194" x1="6.85205" y1="13" x2="6.85205" y2="6.5" gradientUnits="userSpaceOnUse">
<stop stop-color="#FF1B71"/>
<stop offset="0.9998" stop-color="#FF867E"/>
<stop offset="0.9999" stop-color="#FF6678"/>
</linearGradient>
</defs>
</svg>
