<svg width="16" height="16" viewBox="0 0 16 16" fill="none" xmlns="http://www.w3.org/2000/svg">
<path fill-rule="evenodd" clip-rule="evenodd" d="M8.49092 1.50673C8.27926 1.50084 8.00921 1.50003 7.6431 1.50003C6.65384 1.50003 5.95685 1.50061 5.41255 1.54494C4.87695 1.58856 4.55536 1.6708 4.30502 1.79788C3.78466 2.06203 3.36181 2.48488 3.09766 3.00524C2.97058 3.25558 2.88834 3.57718 2.84472 4.11277C2.80038 4.65707 2.79981 5.35406 2.79981 6.34332V9.53205C2.79981 10.5245 2.80039 11.2238 2.845 11.7698C2.88889 12.307 2.97165 12.6295 3.09954 12.8805C3.36319 13.398 3.78389 13.8187 4.30133 14.0823C4.55233 14.2102 4.87483 14.293 5.41209 14.3369C5.95809 14.3815 6.65734 14.382 7.64981 14.382H7.95542C8.94789 14.382 9.64713 14.3815 10.1931 14.3369C10.7304 14.293 11.0529 14.2102 11.3039 14.0823C11.8213 13.8187 12.242 13.398 12.5057 12.8805C12.6336 12.6295 12.7163 12.307 12.7602 11.7698C12.8048 11.2238 12.8054 10.5245 12.8054 9.53205V6.66513C12.8054 6.29804 12.8046 6.02722 12.7987 5.81494H12.4409H12.4105C11.8763 5.81495 11.4305 5.81496 11.0662 5.7852C10.6864 5.75416 10.3297 5.68705 9.99244 5.51521C9.475 5.25156 9.0543 4.83086 8.79065 4.31341C8.61881 3.97615 8.5517 3.6195 8.52066 3.23961C8.4909 2.87538 8.49091 2.42954 8.49092 1.89539V1.89538L8.49092 1.86494V1.50673ZM12.3727 4.31494C12.2144 4.07124 11.9802 3.83093 11.3849 3.23566L11.0678 2.91859C10.4735 2.32426 10.2341 2.09097 9.99092 1.93295C9.991 2.46806 9.99247 2.83346 10.0157 3.11746C10.0391 3.40459 10.081 3.54187 10.1272 3.63243C10.247 3.86763 10.4382 4.05886 10.6734 4.1787C10.764 4.22484 10.9013 4.26672 11.1884 4.29018C11.4724 4.31339 11.8377 4.31486 12.3727 4.31494ZM9.4992 0.116708C9.01034 -0.000268012 8.5001 -0.000155956 7.73273 1.25468e-05L7.6431 2.56002e-05L7.61059 2.5481e-05C6.66122 1.90437e-05 5.90313 1.38581e-05 5.29078 0.049887C4.66275 0.101038 4.12249 0.208339 3.62605 0.460349C2.82185 0.868585 2.16836 1.52207 1.76013 2.32627C1.50812 2.82271 1.40082 3.36297 1.34967 3.991C1.29979 4.60335 1.2998 5.36144 1.2998 6.31081V6.31082V6.34332V9.53205V9.56466C1.2998 10.5171 1.29979 11.2777 1.34998 11.8919C1.40145 12.5219 1.50944 13.0638 1.76303 13.5615C2.17049 14.3612 2.82066 15.0114 3.62035 15.4188C4.11804 15.6724 4.65993 15.7804 5.28994 15.8319C5.90421 15.8821 6.66477 15.8821 7.61723 15.882H7.64981H7.95542H7.988C8.94046 15.8821 9.70102 15.8821 10.3153 15.8319C10.9453 15.7804 11.4872 15.6724 11.9849 15.4188C12.7846 15.0114 13.4347 14.3612 13.8422 13.5615C14.0958 13.0638 14.2038 12.5219 14.2552 11.8919C14.3054 11.2777 14.3054 10.5171 14.3054 9.56468V9.53205V6.66513L14.3054 6.57521C14.3056 5.80538 14.3057 5.29349 14.188 4.80314C14.0839 4.36948 13.9122 3.95492 13.6791 3.57466C13.4157 3.14469 13.0536 2.78281 12.5092 2.23858L12.4456 2.175L12.1285 1.85793L12.0651 1.79455L12.0651 1.79454C11.5226 1.25181 11.1619 0.890937 10.7335 0.627977C10.3516 0.393547 9.93502 0.220992 9.4992 0.116708ZM4.22494 10.7497C4.05919 10.7497 3.90022 10.6838 3.78301 10.5666C3.66582 10.4494 3.59995 10.2905 3.59995 10.1247C3.59995 9.95892 3.66581 9.79995 3.78301 9.68275C3.90021 9.56555 4.05918 9.49969 4.22494 9.49969H5.27915C5.44491 9.49969 5.60388 9.56555 5.72108 9.68274C5.83831 9.79995 5.90415 9.95893 5.90415 10.1247C5.90415 10.2904 5.83831 10.4494 5.72109 10.5666C5.60388 10.6838 5.4449 10.7497 5.27915 10.7497H4.22494ZM6.66186 10.5666C6.77907 10.6838 6.93804 10.7497 7.1038 10.7497H9.158C9.32376 10.7497 9.48273 10.6838 9.59995 10.5666C9.71717 10.4494 9.78301 10.2904 9.78301 10.1247C9.78301 9.95893 9.71717 9.79995 9.59994 9.68274C9.48273 9.56555 9.32377 9.49969 9.158 9.49969H7.1038C6.93803 9.49969 6.77906 9.56555 6.66186 9.68275C6.54466 9.79995 6.4788 9.95892 6.4788 10.1247C6.4788 10.2905 6.54467 10.4494 6.66186 10.5666ZM3.78306 12.4887C3.90027 12.606 4.05924 12.6718 4.22499 12.6718H9.15805C9.3238 12.6718 9.48278 12.6059 9.59999 12.4887C9.71721 12.3715 9.78305 12.2126 9.78305 12.0468C9.78305 11.881 9.71721 11.7221 9.59999 11.6049C9.48278 11.4877 9.32381 11.4218 9.15805 11.4218H4.22499C4.05923 11.4218 3.90026 11.4877 3.78306 11.6049C3.66586 11.7221 3.6 11.881 3.6 12.0468C3.6 12.2126 3.66587 12.3715 3.78306 12.4887ZM6.54284 8.41269C6.66376 8.35236 6.78228 8.28882 6.89825 8.22217C7.02111 8.15091 7.15439 8.0654 7.28903 7.97464L7.28927 7.97448C7.77644 7.64568 8.01981 7.48142 8.01981 7.20019C8.01981 6.91896 7.77644 6.75471 7.28927 6.4259L7.28903 6.42574C7.15439 6.33498 7.02065 6.24948 6.89825 6.17822C6.79082 6.11559 6.66887 6.05108 6.54284 5.9877C6.05687 5.74318 5.81343 5.62092 5.59538 5.7563C5.37778 5.89169 5.35783 6.17484 5.31794 6.74189C5.30706 6.90204 5.2998 7.05918 5.2998 7.20019C5.2998 7.34121 5.30706 7.49834 5.31794 7.65849C5.35783 8.22554 5.37778 8.50907 5.59538 8.64409C5.81333 8.77941 6.05619 8.65733 6.54216 8.41303L6.54284 8.41269Z" fill="url(#paint0_linear_633_117)"/>
<defs>
<linearGradient id="paint0_linear_633_117" x1="2.11266" y1="15.882" x2="16.4466" y2="7.07862" gradientUnits="userSpaceOnUse">
<stop stop-color="#88E344"/>
<stop offset="1" stop-color="#B3FF7A"/>
</linearGradient>
</defs>
</svg>
