<svg width="16" height="16" viewBox="0 0 16 16" fill="none" xmlns="http://www.w3.org/2000/svg">
<path fill-rule="evenodd" clip-rule="evenodd" d="M8.09957 3.7998H8.09996C9.2942 3.79984 10.4396 4.29185 11.2841 5.16763C12.0893 6.00261 12.5581 7.12131 12.6 8.29705C12.6034 8.39147 12.5277 8.46975 12.4334 8.46975H11.8657C11.7764 8.46975 11.7027 8.3993 11.6991 8.30987C11.6606 7.37708 11.2864 6.49087 10.6472 5.82796C9.9716 5.1274 9.05535 4.73381 8.09987 4.73381L8.09957 3.7998ZM8.09987 4.73381C7.28714 4.73606 6.50045 5.02314 5.86678 5.54575C5.79956 5.60118 5.70103 5.59554 5.64066 5.53288L5.23203 5.10911C5.16531 5.03998 5.17073 4.92898 5.24369 4.86657C6.04653 4.18007 7.05563 3.8019 8.09957 3.7998L8.09987 4.73381ZM11.0018 5.71781C11.0012 5.71848 11.0012 5.7195 11.0017 5.72029C11.5699 6.36123 11.9224 7.17092 12.0128 8.02845C12.0193 8.08932 12.0699 8.13628 12.131 8.13628C12.1991 8.13628 12.253 8.07836 12.2461 8.01045C12.1453 7.02659 11.7232 6.10408 11.0451 5.40045C11.0448 5.39999 11.0443 5.39954 11.044 5.39921C10.261 4.58726 9.20183 4.13347 8.10016 4.13339C7.24223 4.13513 6.40847 4.41204 5.71111 4.9218C5.64966 4.96672 5.64359 5.05535 5.69643 5.11014C5.74164 5.15705 5.81473 5.16246 5.86766 5.12452C6.51972 4.65754 7.29703 4.40241 8.09899 4.40024H8.09938H8.09987C9.09214 4.40024 10.0437 4.78744 10.7678 5.47767C10.7685 5.47834 10.7696 5.47834 10.7703 5.47767C10.771 5.47699 10.7721 5.47699 10.7728 5.47767L10.8874 5.59656C10.8876 5.59666 10.8877 5.59689 10.8879 5.59712L11.0018 5.71532C11.0025 5.71601 11.0025 5.71713 11.0018 5.71781ZM3.92451 6.7354C3.96869 6.62199 4.11551 6.59254 4.19998 6.68021L4.64146 7.13804C4.68404 7.18227 4.69894 7.24616 4.68026 7.30467C4.57631 7.62982 4.51598 7.96828 4.50095 8.31035C4.49704 8.39959 4.4236 8.46975 4.33433 8.46975H3.76689C3.67223 8.46975 3.59655 8.39108 3.60023 8.29656C3.62109 7.76055 3.73084 7.23237 3.92451 6.7354ZM4.28503 7.249C4.22244 7.18403 4.11362 7.20947 4.08979 7.29655C4.02582 7.52992 3.98076 7.76877 3.95518 8.01035C3.948 8.07826 4.00185 8.13628 4.07001 8.13628C4.13088 8.13628 4.18139 8.08951 4.18794 8.02904C4.21214 7.80478 4.25436 7.58286 4.31419 7.36563C4.32557 7.32424 4.31479 7.27982 4.28503 7.249Z" fill="url(#paint0_linear_666_74)"/>
<path d="M8.09957 3.7998H8.09996C9.2942 3.79984 10.4396 4.29185 11.2841 5.16763C12.0893 6.00261 12.5581 7.12131 12.6 8.29705C12.6034 8.39147 12.5277 8.46975 12.4334 8.46975H11.8657C11.7764 8.46975 11.7027 8.3993 11.6991 8.30987C11.6606 7.37708 11.2864 6.49087 10.6472 5.82796C9.9716 5.1274 9.05535 4.73381 8.09987 4.73381M8.09957 3.7998L8.09987 4.73381M8.09957 3.7998C7.05563 3.8019 6.04653 4.18007 5.24369 4.86657C5.17073 4.92898 5.16531 5.03998 5.23203 5.10911L5.64066 5.53288C5.70103 5.59554 5.79956 5.60118 5.86678 5.54575C6.50045 5.02314 7.28714 4.73606 8.09987 4.73381M11.0451 5.40045C11.7232 6.10408 12.1453 7.02659 12.2461 8.01045C12.253 8.07836 12.1991 8.13628 12.131 8.13628C12.0699 8.13628 12.0193 8.08932 12.0128 8.02845C11.9224 7.17092 11.5699 6.36123 11.0017 5.72029C11.0012 5.7195 11.0012 5.71848 11.0018 5.71781C11.0025 5.71713 11.0025 5.71601 11.0018 5.71532L10.8879 5.59712C10.8877 5.59689 10.8876 5.59666 10.8874 5.59656L10.7728 5.47767C10.7721 5.47699 10.771 5.47699 10.7703 5.47767C10.7696 5.47834 10.7685 5.47834 10.7678 5.47767C10.0437 4.78744 9.09214 4.40024 8.09987 4.40024H8.09938H8.09899C7.29703 4.40241 6.51972 4.65754 5.86766 5.12452C5.81473 5.16246 5.74164 5.15705 5.69643 5.11014C5.64359 5.05535 5.64966 4.96672 5.71111 4.9218C6.40847 4.41204 7.24223 4.13513 8.10016 4.13339C9.20183 4.13347 10.261 4.58726 11.044 5.39921C11.0443 5.39954 11.0448 5.39999 11.0451 5.40045ZM4.68026 7.30467C4.69894 7.24616 4.68404 7.18227 4.64146 7.13804L4.19998 6.68021C4.11551 6.59254 3.96869 6.62199 3.92451 6.7354C3.73084 7.23237 3.62109 7.76055 3.60023 8.29656C3.59655 8.39108 3.67223 8.46975 3.76689 8.46975H4.33433C4.4236 8.46975 4.49704 8.39959 4.50095 8.31035C4.51598 7.96828 4.57631 7.62982 4.68026 7.30467ZM4.31419 7.36563C4.25436 7.58286 4.21214 7.80478 4.18794 8.02904C4.18139 8.08951 4.13088 8.13628 4.07001 8.13628C4.00185 8.13628 3.948 8.07826 3.95518 8.01035C3.98076 7.76877 4.02582 7.52992 4.08979 7.29655C4.11362 7.20947 4.22244 7.18403 4.28503 7.249C4.31479 7.27982 4.32557 7.32424 4.31419 7.36563Z" stroke="url(#paint1_linear_666_74)" stroke-width="0.6" stroke-linecap="round" stroke-linejoin="round"/>
<path fill-rule="evenodd" clip-rule="evenodd" d="M8.49515 10.801C8.54495 10.2321 7.75102 10.0421 7.51941 10.5644C7.50522 10.5962 7.48605 10.6261 7.46276 10.652C7.37332 10.7517 7.31207 10.8708 7.2836 10.9977L7.27646 11.0407C7.2154 11.4121 7.42734 11.7188 7.71491 11.7894C7.99662 11.8585 8.32656 11.6952 8.46423 11.3587C8.46423 11.3585 8.46433 11.3584 8.46433 11.3581C8.46433 11.358 8.46433 11.3579 8.46433 11.3577L8.49975 11.2501C8.52715 11.1331 8.52754 11.0145 8.50239 10.9049C8.49456 10.8708 8.49212 10.8359 8.49515 10.801ZM8.79505 6.86648C8.83351 6.7796 8.9291 6.73341 9.02108 6.75719C9.11296 6.78087 9.17421 6.86756 9.16599 6.96208L8.843 10.6526C8.83273 10.7702 8.84574 10.8884 8.85259 11.0064C8.85895 11.1157 8.84867 11.2266 8.82245 11.3349L8.82089 11.3415L8.79906 11.4075C8.79828 11.41 8.79779 11.4124 8.79779 11.415C8.79779 11.4179 8.7974 11.4207 8.79633 11.4234L8.78752 11.4473C8.60542 11.9411 8.10914 12.2296 7.63526 12.1135C7.15943 11.9964 6.86129 11.5096 6.94739 10.9864L6.956 10.9347L6.95688 10.9306C6.99739 10.7451 7.08595 10.5726 7.21442 10.4293L8.79505 6.86648Z" fill="url(#paint2_linear_666_74)"/>
<path d="M7.27646 11.0407L7.2836 10.9977C7.31207 10.8708 7.37332 10.7517 7.46276 10.652C7.48605 10.6261 7.50522 10.5962 7.51941 10.5644C7.75102 10.0421 8.54495 10.2321 8.49515 10.801C8.49212 10.8359 8.49456 10.8708 8.50239 10.9049C8.52754 11.0145 8.52715 11.1331 8.49975 11.2501L8.46433 11.3577C8.46433 11.3579 8.46433 11.358 8.46433 11.3581C8.46433 11.3584 8.46423 11.3585 8.46423 11.3587C8.32656 11.6952 7.99662 11.8585 7.71491 11.7894C7.42734 11.7188 7.2154 11.4121 7.27646 11.0407ZM7.21442 10.4293C7.08595 10.5726 6.99739 10.7451 6.95688 10.9306L6.956 10.9347L6.94739 10.9864C6.86129 11.5096 7.15943 11.9964 7.63526 12.1135C8.10914 12.2296 8.60542 11.9411 8.78752 11.4473L8.79633 11.4234C8.7974 11.4207 8.79779 11.4179 8.79779 11.415C8.79779 11.4124 8.79828 11.41 8.79906 11.4075L8.82089 11.3415L8.82245 11.3349C8.84867 11.2266 8.85895 11.1157 8.85259 11.0064C8.84574 10.8884 8.83273 10.7702 8.843 10.6526L9.16599 6.96208C9.17421 6.86756 9.11296 6.78087 9.02108 6.75719C8.9291 6.73341 8.83351 6.7796 8.79505 6.86648L7.21442 10.4293Z" stroke="url(#paint3_linear_666_74)" stroke-width="0.6" stroke-linecap="round" stroke-linejoin="round"/>
<path d="M5.9 15H10.1C13.6 15 15 13.6977 15 10.4419V5.55814C15 2.30233 13.6 1 10.1 1H5.9C2.4 1 1 2.30233 1 5.55814V10.4419C1 13.6977 2.4 15 5.9 15Z" stroke="url(#paint4_linear_666_74)" stroke-width="1.8" stroke-linecap="round" stroke-linejoin="round"/>
<defs>
<linearGradient id="paint0_linear_666_74" x1="8.1001" y1="8.46975" x2="8.1001" y2="3.7998" gradientUnits="userSpaceOnUse">
<stop stop-color="#EC396C"/>
<stop offset="1" stop-color="#FF709A"/>
</linearGradient>
<linearGradient id="paint1_linear_666_74" x1="8.1001" y1="8.46975" x2="8.1001" y2="3.7998" gradientUnits="userSpaceOnUse">
<stop stop-color="#EC396C"/>
<stop offset="1" stop-color="#FF709A"/>
</linearGradient>
<linearGradient id="paint2_linear_666_74" x1="8.04967" y1="12.1391" x2="8.04967" y2="6.75098" gradientUnits="userSpaceOnUse">
<stop stop-color="#EC396C"/>
<stop offset="1" stop-color="#FF709A"/>
</linearGradient>
<linearGradient id="paint3_linear_666_74" x1="8.04967" y1="12.1391" x2="8.04967" y2="6.75098" gradientUnits="userSpaceOnUse">
<stop stop-color="#EC396C"/>
<stop offset="1" stop-color="#FF709A"/>
</linearGradient>
<linearGradient id="paint4_linear_666_74" x1="8" y1="15" x2="8" y2="1" gradientUnits="userSpaceOnUse">
<stop stop-color="#EC396C"/>
<stop offset="1" stop-color="#FF709A"/>
</linearGradient>
</defs>
</svg>
