<svg width="16" height="16" viewBox="0 0 16 16" fill="none" xmlns="http://www.w3.org/2000/svg">
<path d="M5.9 15H10.1C13.6 15 15 13.6977 15 10.4419V5.55814C15 2.30233 13.6 1 10.1 1H5.9C2.4 1 1 2.30233 1 5.55814V10.4419C1 13.6977 2.4 15 5.9 15Z" stroke="url(#paint0_linear_666_152)" stroke-width="1.8" stroke-linecap="round" stroke-linejoin="round"/>
<path d="M7.64494 3.64421C7.65979 3.62951 7.6783 3.61848 7.70048 3.61113C7.72272 3.60376 7.74863 3.6001 7.77826 3.6001C7.80796 3.6001 7.8376 3.6001 7.86717 3.6001C7.89674 3.6001 7.92644 3.6001 7.95608 3.6001C7.98578 3.6001 8.01535 3.6001 8.04499 3.6001C8.07456 3.6001 8.10426 3.6001 8.13389 3.6001C8.16359 3.6001 8.19316 3.6001 8.2228 3.6001C8.2525 3.6001 8.28214 3.6001 8.31164 3.6001C8.34128 3.6001 8.37098 3.6001 8.40061 3.6001C8.43019 3.6001 8.45989 3.6001 8.48952 3.6001C8.51909 3.6001 8.54879 3.6001 8.57843 3.6001C8.60806 3.6001 8.6377 3.6001 8.66734 3.6001C8.69691 3.6001 8.72294 3.60376 8.74506 3.61113C8.7673 3.61848 8.78581 3.62951 8.80066 3.64421C8.81551 3.65893 8.83396 3.66996 8.85621 3.6773C8.87839 3.68465 8.90442 3.68834 8.93406 3.68834C8.96363 3.68834 8.99333 3.68834 9.0229 3.68834C9.05254 3.68834 9.08211 3.68834 9.11181 3.68834C9.14144 3.68834 9.16735 3.692 9.18959 3.69935C9.21184 3.70673 9.23035 3.71774 9.2452 3.73246C9.25992 3.74715 9.2785 3.75818 9.30068 3.76553C9.32299 3.7729 9.34883 3.77657 9.37853 3.77657C9.40816 3.77657 9.43407 3.78025 9.45625 3.7876C9.47856 3.79495 9.49707 3.80598 9.51179 3.82067C9.52664 3.8354 9.54522 3.84641 9.5674 3.85378C9.58964 3.86112 9.61189 3.86848 9.63407 3.87582C9.65631 3.8832 9.67482 3.8942 9.68974 3.90892C9.70446 3.92362 9.72297 3.93466 9.74521 3.94202C9.76746 3.94936 9.78964 3.95672 9.81194 3.96406C9.83419 3.97142 9.8527 3.98244 9.86742 3.99716C9.88234 4.01185 9.90079 4.0229 9.92303 4.03023C9.94527 4.03759 9.96751 4.04494 9.98969 4.05232C10.0119 4.05966 10.0305 4.0707 10.0452 4.08538C10.0601 4.1001 10.0786 4.11112 10.1008 4.11848C10.123 4.12584 10.1453 4.13318 10.1675 4.14054C10.1898 4.14788 10.2083 4.15892 10.223 4.17364C10.2379 4.18834 10.2528 4.20303 10.2675 4.21774C10.2823 4.23246 10.2971 4.24715 10.312 4.26185C10.3268 4.27658 10.3453 4.2876 10.3676 4.29496C10.3898 4.3023 10.412 4.30966 10.4342 4.317C10.4565 4.32436 10.4749 4.33538 10.4898 4.3501C10.5046 4.3648 10.5195 4.37952 10.5342 4.39422C10.549 4.40891 10.5638 4.42362 10.5787 4.43834C10.5935 4.45304 10.6083 4.46774 10.6231 4.48246C10.638 4.49716 10.6527 4.51186 10.6676 4.52656C10.6824 4.54128 10.6972 4.55597 10.712 4.57068C10.7269 4.5854 10.7416 4.60009 10.7564 4.61482C10.7713 4.6295 10.7861 4.64419 10.8009 4.65892C10.8158 4.67362 10.8305 4.68834 10.8454 4.70304C10.8601 4.71776 10.875 4.73244 10.8898 4.74715C10.9047 4.76186 10.9195 4.77658 10.9343 4.79127C10.949 4.80598 10.9639 4.8207 10.9787 4.83537C10.9936 4.8501 11.0046 4.86848 11.012 4.89054C11.0195 4.9126 11.0269 4.93464 11.0343 4.95672C11.0417 4.97878 11.0528 4.99715 11.0676 5.01186C11.0825 5.02658 11.0973 5.04128 11.1121 5.05598C11.1268 5.07068 11.1417 5.0854 11.1565 5.1001C11.1714 5.1148 11.1825 5.13318 11.1898 5.15523C11.1973 5.17732 11.2047 5.19935 11.2121 5.22142C11.2195 5.24348 11.2306 5.26186 11.2455 5.27656C11.2602 5.29127 11.275 5.30598 11.2899 5.32068C11.3047 5.33539 11.3195 5.3501 11.3344 5.36482C11.3491 5.37949 11.3603 5.39787 11.3677 5.41996C11.3751 5.442 11.3825 5.46406 11.3898 5.48614C11.3972 5.50818 11.4084 5.52655 11.4233 5.54128C11.4381 5.55598 11.4492 5.57436 11.4566 5.59642C11.4639 5.61848 11.4677 5.64422 11.4677 5.67363C11.4677 5.70304 11.4714 5.72878 11.4788 5.75081C11.4861 5.77288 11.4973 5.79128 11.512 5.80598C11.527 5.82068 11.5381 5.83906 11.5455 5.86114C11.5529 5.88318 11.5566 5.90891 11.5566 5.93832C11.5566 5.96774 11.5603 5.99346 11.5677 6.01554C11.5752 6.0376 11.5862 6.05598 11.6011 6.07067C11.6159 6.0854 11.627 6.10378 11.6344 6.12584C11.6418 6.14787 11.6455 6.1736 11.6455 6.20306C11.6455 6.23246 11.6455 6.26185 11.6455 6.29131C11.6455 6.32067 11.6492 6.34645 11.6566 6.3685C11.6641 6.39055 11.6751 6.40893 11.69 6.42365C11.7047 6.43831 11.7159 6.4567 11.7232 6.47875C11.7307 6.50086 11.7344 6.52658 11.7344 6.55596C11.7344 6.5854 11.7344 6.61484 11.7344 6.64422C11.7344 6.6736 11.7344 6.70304 11.7344 6.73242C11.7344 6.76186 11.7344 6.79124 11.7344 6.82068C11.7344 6.85006 11.7344 6.87944 11.7344 6.90895C11.7344 6.93833 11.7344 6.96777 11.7344 6.99715C11.7344 7.02659 11.7344 7.05597 11.7344 7.08535C11.7344 7.11479 11.7344 7.14417 11.7344 7.17368C11.7344 7.20305 11.7344 7.23243 11.7344 7.26181C11.7344 7.29132 11.7344 7.3207 11.7344 7.35008C11.7344 7.37952 11.7344 7.4089 11.7344 7.43834C11.7344 7.46772 11.7307 7.4935 11.7232 7.51555C11.7159 7.5376 11.7047 7.55592 11.69 7.57064C11.6751 7.58543 11.6641 7.60375 11.6566 7.62586C11.6492 7.64785 11.6455 7.67363 11.6455 7.70307C11.6455 7.73245 11.6455 7.76183 11.6455 7.79127C11.6455 7.82065 11.6418 7.84643 11.6344 7.86848C11.627 7.89059 11.6159 7.90891 11.6011 7.92363C11.5862 7.93829 11.5752 7.95674 11.5677 7.97879C11.5603 8.00084 11.5566 8.02656 11.5566 8.056C11.5566 8.08538 11.5529 8.11109 11.5455 8.13321C11.5381 8.15519 11.527 8.17364 11.512 8.18836C11.4973 8.20302 11.4861 8.2214 11.4788 8.24345C11.4714 8.26557 11.4639 8.28756 11.4566 8.30961C11.4492 8.33172 11.4381 8.3501 11.4233 8.36483C11.4084 8.37942 11.3972 8.39787 11.3898 8.41992C11.3825 8.44203 11.3751 8.46402 11.3677 8.48613C11.3603 8.50818 11.3491 8.52657 11.3344 8.54123C11.3195 8.55595 11.3047 8.57067 11.2899 8.58539C11.275 8.60011 11.2602 8.61477 11.2455 8.62955C11.2306 8.64428 11.2195 8.6626 11.2121 8.68458C11.2047 8.70676 11.1973 8.72875 11.1898 8.75086C11.1825 8.77291 11.1714 8.7913 11.1565 8.80595C11.1417 8.82068 11.1268 8.83533 11.1121 8.85006C11.0973 8.86484 11.0825 8.8795 11.0676 8.89422C11.0528 8.90888 11.0381 8.92366 11.0231 8.93838C11.0084 8.95298 10.9936 8.9677 10.9787 8.98242C10.9639 8.99714 10.949 9.01186 10.9343 9.02652C10.9195 9.0413 10.9047 9.05603 10.8898 9.07068C10.875 9.08541 10.8601 9.10013 10.8454 9.11485C10.8305 9.12951 10.8158 9.14416 10.8009 9.15895C10.7861 9.1736 10.7713 9.18833 10.7564 9.20305C10.7416 9.21777 10.7269 9.23243 10.712 9.24708C10.6972 9.26187 10.6824 9.27659 10.6676 9.29125C10.6527 9.30597 10.638 9.32063 10.6231 9.33541C10.6083 9.35013 10.5935 9.36479 10.5787 9.37951C10.5638 9.3943 10.5452 9.40523 10.5231 9.41256C10.5009 9.41995 10.4786 9.42734 10.4565 9.43461C10.4342 9.442 10.4157 9.45305 10.4009 9.46778C10.386 9.48243 10.3676 9.49349 10.3453 9.50088C10.3231 9.50815 10.3009 9.51548 10.2787 9.52287C10.2564 9.5302 10.2379 9.54132 10.223 9.55598C10.2083 9.5707 10.1898 9.58169 10.1675 9.58902C10.1453 9.59641 10.123 9.60381 10.1008 9.61113C10.0786 9.61853 10.0601 9.62952 10.0452 9.64424C10.0305 9.6589 10.0119 9.66996 9.98969 9.67735C9.96751 9.68468 9.94154 9.68834 9.91184 9.68834C9.88234 9.68834 9.85636 9.69194 9.83419 9.69933C9.81194 9.70666 9.79336 9.71772 9.77851 9.73251C9.76379 9.74716 9.74521 9.75815 9.72297 9.76555C9.70073 9.77288 9.67482 9.77654 9.64519 9.77654C9.61555 9.77654 9.58964 9.78027 9.5674 9.7876C9.54522 9.79493 9.52664 9.80605 9.51179 9.82071C9.49707 9.83543 9.47856 9.84642 9.45625 9.85375C9.43407 9.86114 9.40816 9.86487 9.37853 9.86487C9.34883 9.86487 9.31926 9.86487 9.28962 9.86487C9.25992 9.86487 9.23035 9.86487 9.20071 9.86487C9.17108 9.86487 9.14144 9.86487 9.11181 9.86487C9.08211 9.86487 9.05254 9.86487 9.0229 9.86487C8.99333 9.86487 8.96363 9.86487 8.93406 9.86487C8.90442 9.86487 8.87472 9.86487 8.84515 9.86487C8.81551 9.86487 8.78581 9.86487 8.75618 9.86487C8.72661 9.86487 8.69691 9.86487 8.66734 9.86487C8.6377 9.86487 8.60806 9.86487 8.57843 9.86487C8.54879 9.86487 8.52276 9.86114 8.50058 9.85375C8.47834 9.84642 8.45989 9.83543 8.44504 9.82071C8.43019 9.80605 8.41174 9.79493 8.38943 9.7876C8.36731 9.78027 8.34128 9.77654 8.31164 9.77654C8.28214 9.77654 8.2525 9.77654 8.2228 9.77654C8.19316 9.77654 8.16726 9.77288 8.14501 9.76555C8.12284 9.75815 8.10426 9.74716 8.08947 9.73251C8.07456 9.71772 8.05611 9.70666 8.03393 9.69933C8.01169 9.69194 7.98944 9.68468 7.9672 9.67735C7.94502 9.66996 7.92644 9.6589 7.91166 9.64424C7.89687 9.62952 7.87836 9.61853 7.85611 9.61113C7.83387 9.60381 7.81163 9.59641 7.78939 9.58902C7.76721 9.58169 7.74863 9.5707 7.73384 9.55598C7.71906 9.54132 7.70048 9.5302 7.6783 9.52287C7.65606 9.51548 7.63381 9.50815 7.61157 9.50088C7.58939 9.49349 7.57081 9.48243 7.55603 9.46778C7.54124 9.45305 7.52639 9.43827 7.51167 9.42361C7.49676 9.40895 7.48197 9.3943 7.46712 9.37951C7.45234 9.36479 7.43749 9.35013 7.42264 9.33541C7.40785 9.32063 7.39306 9.30597 7.37828 9.29125C7.36343 9.27659 7.34858 9.26187 7.33373 9.24708C7.31901 9.23243 7.30416 9.21777 7.28937 9.20305C7.27452 9.18833 7.25967 9.1736 7.24482 9.15895C7.2301 9.14416 7.21525 9.12951 7.20046 9.11485C7.18561 9.10013 7.17076 9.08541 7.15604 9.07068C7.14119 9.05603 7.12634 9.0413 7.11156 9.02652C7.09671 9.01186 7.08186 8.99714 7.06714 8.98242C7.05229 8.9677 7.03744 8.95298 7.02265 8.93838C7.0078 8.92366 6.99295 8.90888 6.97823 8.89422C6.96338 8.8795 6.95219 8.86111 6.94486 8.83906C6.93747 8.81701 6.93008 8.7949 6.92262 8.77291C6.91523 8.75086 6.90411 8.73241 6.88932 8.71769C6.87447 8.70303 6.85962 8.68831 6.84484 8.67359C6.82999 8.65893 6.81526 8.64428 6.80041 8.62955C6.78556 8.61477 6.77438 8.59645 6.76705 8.57433C6.75966 8.55235 6.75593 8.52657 6.75593 8.49713C6.75593 8.46775 6.75226 8.44203 6.74481 8.41992C6.73741 8.39787 6.72636 8.37942 6.71151 8.36483C6.69666 8.3501 6.6856 8.33172 6.67814 8.30961C6.67075 8.28756 6.66702 8.26184 6.66702 8.2324C6.66702 8.20302 6.66336 8.17737 6.6559 8.15519C6.64851 8.1332 6.63745 8.11482 6.6226 8.1001C6.60775 8.08538 6.59669 8.06699 6.58924 8.045C6.58184 8.02289 6.57818 7.99718 6.57818 7.9678C6.57818 7.93829 6.57818 7.90891 6.57818 7.87953C6.57818 7.85009 6.57818 7.82065 6.57818 7.79127C6.57818 7.76183 6.57818 7.73245 6.57818 7.70307C6.57818 7.67363 6.57818 7.64418 6.57818 7.6148C6.57818 7.58543 6.57818 7.55592 6.57818 7.52654C6.57818 7.49716 6.57818 7.46772 6.57818 7.43834C6.57818 7.4089 6.57818 7.37952 6.57818 7.35008C6.57818 7.3207 6.57818 7.29132 6.57818 7.26181C6.57818 7.23243 6.57818 7.20305 6.57818 7.17368C6.57818 7.14417 6.58184 7.11846 6.58924 7.09641C6.59669 7.07436 6.60775 7.05597 6.6226 7.04125C6.63745 7.02659 6.64851 7.00814 6.6559 6.98615C6.66336 6.96404 6.66702 6.93833 6.66702 6.90895C6.66702 6.87944 6.67075 6.85379 6.67814 6.83174C6.6856 6.80963 6.69666 6.79124 6.71151 6.77652C6.72636 6.76186 6.73741 6.74348 6.74481 6.72143C6.75226 6.69931 6.75966 6.67733 6.76705 6.65528C6.77438 6.63316 6.78556 6.61484 6.80041 6.60012C6.81526 6.58533 6.82999 6.57068 6.84484 6.55596C6.85962 6.5413 6.87447 6.52658 6.88932 6.51185C6.90411 6.4972 6.91523 6.47875 6.92262 6.4567C6.93008 6.43465 6.93747 6.4126 6.94486 6.39055C6.95219 6.3685 6.96338 6.35011 6.97823 6.33539C6.99295 6.32067 7.0078 6.30601 7.02265 6.29131C7.03744 6.27654 7.05229 6.26185 7.06714 6.24715C7.08186 6.23246 7.09671 6.21776 7.11156 6.20306C7.12634 6.18837 7.14119 6.1736 7.15604 6.15891C7.17076 6.14422 7.18561 6.1295 7.20046 6.11482C7.21525 6.1001 7.2301 6.0854 7.24482 6.07067C7.25967 6.05598 7.27452 6.04128 7.28937 6.02656C7.30416 6.01186 7.32267 6.00084 7.34491 5.99346C7.36709 5.98612 7.38934 5.97878 7.41158 5.97142C7.43382 5.96408 7.45234 5.95303 7.46712 5.93832C7.48197 5.92361 7.49676 5.90892 7.51167 5.89422C7.52639 5.87952 7.54124 5.8648 7.55603 5.8501C7.57081 5.8354 7.58939 5.82436 7.61157 5.81702C7.63381 5.80966 7.65979 5.80598 7.68936 5.80598C7.71906 5.80598 7.74496 5.8023 7.76721 5.79496C7.78939 5.7876 7.80796 5.77658 7.82269 5.76185C7.8376 5.74716 7.85611 5.73612 7.87836 5.72878C7.90054 5.72142 7.92644 5.71773 7.95608 5.71773C7.98578 5.71773 8.01169 5.71406 8.03393 5.70671C8.05611 5.69935 8.07456 5.68834 8.08947 5.67363C8.10426 5.65892 8.12284 5.64788 8.14501 5.64054C8.16726 5.63318 8.19316 5.6295 8.2228 5.6295C8.2525 5.6295 8.28214 5.6295 8.31164 5.6295C8.34128 5.6295 8.37098 5.6295 8.40061 5.6295C8.43019 5.6295 8.45989 5.6295 8.48952 5.6295C8.51909 5.6295 8.54879 5.6295 8.57843 5.6295C8.60806 5.6295 8.6377 5.6295 8.66734 5.6295C8.69691 5.6295 8.72294 5.63318 8.74506 5.64054C8.7673 5.64788 8.78581 5.65892 8.80066 5.67363C8.81551 5.68834 8.83396 5.69935 8.85621 5.70671C8.87839 5.71406 8.90442 5.71773 8.93406 5.71773C8.96363 5.71773 8.98954 5.72142 9.01178 5.72878C9.03402 5.73612 9.05254 5.74716 9.06739 5.76185C9.08211 5.77658 9.10069 5.7876 9.12293 5.79496C9.14511 5.8023 9.16735 5.80966 9.18959 5.81702C9.21184 5.82436 9.23035 5.8354 9.2452 5.8501C9.25992 5.8648 9.2785 5.87584 9.30068 5.88318C9.32299 5.89053 9.34516 5.89789 9.36741 5.90524C9.38959 5.9126 9.40816 5.92361 9.42289 5.93832C9.4378 5.95303 9.45259 5.96774 9.46744 5.98246C9.48222 5.99716 9.49707 6.01186 9.51179 6.02656C9.52664 6.04128 9.54149 6.05598 9.55634 6.07067C9.57113 6.0854 9.58591 6.1001 9.6007 6.11482C9.61555 6.1295 9.6304 6.14422 9.64519 6.15891C9.66004 6.1736 9.67482 6.18837 9.68974 6.20306C9.70446 6.21776 9.71931 6.23246 9.73409 6.24715C9.74888 6.26185 9.76006 6.28027 9.76746 6.30235C9.77485 6.32433 9.78231 6.34645 9.78964 6.3685C9.79703 6.39055 9.80821 6.40893 9.823 6.42365C9.83785 6.43831 9.84897 6.4567 9.85636 6.47875C9.86369 6.50086 9.87122 6.52285 9.87861 6.5449C9.886 6.56701 9.89712 6.58533 9.91184 6.60012C9.92676 6.61484 9.93788 6.63316 9.94527 6.65528C9.95266 6.67733 9.95633 6.70304 9.95633 6.73242C9.95633 6.76186 9.95633 6.79124 9.95633 6.82068C9.95633 6.85006 9.95999 6.87584 9.96751 6.89789C9.97484 6.92001 9.98603 6.93833 10.0008 6.95305C10.0157 6.96777 10.0267 6.98615 10.0342 7.00814C10.0416 7.03025 10.0452 7.05597 10.0452 7.08535C10.0452 7.11479 10.0452 7.14417 10.0452 7.17368C10.0452 7.20305 10.0416 7.22877 10.0342 7.25082C10.0267 7.27287 10.0157 7.29132 10.0008 7.30598C9.98603 7.3207 9.97484 7.33902 9.96751 7.36113C9.95999 7.38318 9.95633 7.4089 9.95633 7.43834C9.95633 7.46772 9.95266 7.4935 9.94527 7.51555C9.93788 7.5376 9.92676 7.55592 9.91184 7.57064C9.89712 7.58543 9.886 7.60375 9.87861 7.62586C9.87122 7.64785 9.86369 7.6699 9.85636 7.69201C9.84897 7.71406 9.83785 7.73245 9.823 7.74711C9.80821 7.76183 9.79703 7.78028 9.78964 7.80233C9.78231 7.82431 9.77485 7.84643 9.76746 7.86848C9.76006 7.89059 9.74888 7.90891 9.73409 7.92363C9.71931 7.93829 9.70446 7.95301 9.68974 7.9678C9.67482 7.98246 9.66004 7.99718 9.64519 8.01183C9.6304 8.02655 9.61555 8.04128 9.6007 8.056C9.58591 8.07072 9.5674 8.08178 9.54522 8.08904C9.52298 8.09643 9.50074 8.10376 9.47856 8.11109C9.45625 8.11855 9.4378 8.12948 9.42289 8.14426C9.40816 8.15892 9.38959 8.16991 9.36741 8.17737C9.34516 8.1847 9.32299 8.19203 9.30068 8.19936C9.2785 8.20668 9.25992 8.21774 9.2452 8.2324C9.23035 8.24712 9.21184 8.25818 9.18959 8.26557C9.16735 8.27283 9.14144 8.27656 9.11181 8.27656C9.08211 8.27656 9.05254 8.27656 9.0229 8.27656C8.99333 8.27656 8.96729 8.27283 8.94505 8.26557C8.92287 8.25818 8.91181 8.24712 8.91181 8.2324C8.91181 8.21774 8.92287 8.20668 8.94505 8.19936C8.96729 8.19203 8.98954 8.1847 9.01178 8.17737C9.03402 8.16991 9.05254 8.15892 9.06739 8.14426C9.08211 8.12948 9.10069 8.11855 9.12293 8.11109C9.14511 8.10376 9.16735 8.09643 9.18959 8.08904C9.21184 8.08178 9.23035 8.07072 9.2452 8.056C9.25992 8.04128 9.27477 8.02655 9.28962 8.01183C9.30441 7.99718 9.31926 7.98246 9.33411 7.9678C9.34883 7.95301 9.36374 7.93829 9.37853 7.92363C9.39331 7.90891 9.40444 7.89059 9.41183 7.86848C9.41922 7.84643 9.42668 7.82431 9.43407 7.80233C9.44146 7.78028 9.45259 7.76183 9.46744 7.74711C9.48222 7.73245 9.49334 7.71406 9.50074 7.69201C9.50826 7.6699 9.51559 7.64785 9.52298 7.62586C9.53031 7.60375 9.54149 7.58543 9.55634 7.57064C9.57113 7.55592 9.58225 7.5376 9.58964 7.51555C9.59704 7.4935 9.6007 7.46772 9.6007 7.43834C9.6007 7.4089 9.6007 7.37952 9.6007 7.35008C9.6007 7.3207 9.6007 7.29132 9.6007 7.26181C9.6007 7.23243 9.59704 7.20672 9.58964 7.18461C9.58225 7.16262 9.57113 7.14417 9.55634 7.12951C9.54149 7.11479 9.53031 7.0964 9.52298 7.07435C9.51559 7.0523 9.51179 7.02659 9.51179 6.99715C9.51179 6.96777 9.50826 6.94199 9.50074 6.92C9.49334 6.89789 9.48222 6.87944 9.46744 6.86485C9.45259 6.85006 9.44146 6.83174 9.43407 6.80963C9.42668 6.78758 9.41922 6.76559 9.41183 6.74348C9.40444 6.72143 9.39331 6.70304 9.37853 6.68838C9.36374 6.6736 9.34883 6.65888 9.33411 6.64422C9.31926 6.6295 9.30441 6.61484 9.28962 6.60012C9.27477 6.58533 9.25992 6.57068 9.2452 6.55596C9.23035 6.5413 9.2155 6.52658 9.20071 6.51185C9.18586 6.4972 9.17108 6.48241 9.15623 6.46769C9.14144 6.45303 9.12293 6.44198 9.10069 6.43465C9.07844 6.42732 9.05627 6.41993 9.03402 6.4126C9.01178 6.40527 8.99333 6.39428 8.97848 6.37955C8.96363 6.36477 8.94505 6.35378 8.92287 6.34645C8.90063 6.33905 8.87839 6.33173 8.85621 6.32433C8.83396 6.317 8.81551 6.30601 8.80066 6.29131C8.78581 6.27654 8.7673 6.26551 8.74506 6.25819C8.72294 6.25081 8.69691 6.24715 8.66734 6.24715C8.6377 6.24715 8.60806 6.24715 8.57843 6.24715C8.54879 6.24715 8.51909 6.24715 8.48952 6.24715C8.45989 6.24715 8.43019 6.24715 8.40061 6.24715C8.37098 6.24715 8.34507 6.25081 8.32283 6.25819C8.30052 6.26551 8.28214 6.27654 8.26722 6.29131C8.2525 6.30601 8.23399 6.317 8.21174 6.32433C8.18937 6.33173 8.16359 6.33539 8.13389 6.33539C8.10426 6.33539 8.07835 6.33905 8.05611 6.34645C8.03393 6.35378 8.01535 6.36477 8.0005 6.37955C7.98578 6.39428 7.9672 6.40527 7.94502 6.4126C7.92278 6.41993 7.90054 6.42732 7.87836 6.43465C7.85611 6.44198 7.8376 6.45303 7.82269 6.46769C7.80796 6.48241 7.79311 6.4972 7.77826 6.51185C7.76354 6.52658 7.74863 6.5413 7.73384 6.55596C7.71906 6.57068 7.70048 6.58167 7.6783 6.58906C7.65606 6.59639 7.63381 6.60378 7.61157 6.61118C7.58939 6.61844 7.57454 6.63316 7.56715 6.65528C7.55976 6.67733 7.5523 6.69931 7.54497 6.72143C7.53745 6.74348 7.52639 6.76186 7.51167 6.77652C7.49676 6.79124 7.48197 6.80603 7.46712 6.82068C7.45234 6.8354 7.43749 6.85006 7.42264 6.86485C7.40785 6.87944 7.39673 6.89789 7.38934 6.92C7.38194 6.94199 7.37449 6.96404 7.36709 6.98615C7.35976 7.00814 7.34858 7.02659 7.33373 7.04125C7.31901 7.05597 7.30782 7.07436 7.30043 7.09641C7.29304 7.11846 7.28937 7.14417 7.28937 7.17368C7.28937 7.20305 7.28558 7.22877 7.27825 7.25082C7.27086 7.27287 7.25967 7.29132 7.24482 7.30598C7.2301 7.3207 7.21891 7.33902 7.21152 7.36113C7.20413 7.38318 7.20046 7.4089 7.20046 7.43834C7.20046 7.46772 7.20046 7.49716 7.20046 7.52654C7.20046 7.55592 7.20046 7.58543 7.20046 7.6148C7.20046 7.64418 7.20046 7.67363 7.20046 7.70307C7.20046 7.73245 7.20046 7.76183 7.20046 7.79127C7.20046 7.82065 7.20413 7.84643 7.21152 7.86848C7.21891 7.89059 7.2301 7.90891 7.24482 7.92363C7.25967 7.93829 7.27086 7.95674 7.27825 7.97879C7.28558 8.00084 7.28937 8.02656 7.28937 8.056C7.28937 8.08538 7.29304 8.11109 7.30043 8.13321C7.30782 8.15519 7.31901 8.17364 7.33373 8.18836C7.34858 8.20302 7.35976 8.2214 7.36709 8.24345C7.37449 8.26557 7.38194 8.28756 7.38934 8.30961C7.39673 8.33172 7.40785 8.3501 7.42264 8.36483C7.43749 8.37942 7.44854 8.39787 7.456 8.41992C7.46339 8.44203 7.47091 8.46402 7.47824 8.48613C7.48564 8.50818 7.49676 8.52657 7.51167 8.54123C7.52639 8.55595 7.54124 8.57067 7.55603 8.58539C7.57081 8.60011 7.58573 8.61477 7.60045 8.62955C7.6153 8.64428 7.63015 8.65893 7.64494 8.67359C7.65979 8.68831 7.67457 8.70303 7.68936 8.71769C7.70421 8.73241 7.71906 8.7472 7.73384 8.76186C7.74863 8.77658 7.76354 8.7913 7.77826 8.80595C7.79311 8.82068 7.80796 8.83533 7.82269 8.85006C7.8376 8.86484 7.85239 8.8795 7.86717 8.89422C7.88202 8.90888 7.89687 8.92366 7.91166 8.93838C7.92644 8.95298 7.94502 8.9641 7.9672 8.97143C7.98944 8.97882 8.01169 8.98608 8.03393 8.99348C8.05611 9.00081 8.07456 9.01186 8.08947 9.02652C8.10426 9.0413 8.12284 9.0523 8.14501 9.05963C8.16726 9.06702 8.18937 9.07435 8.21174 9.08174C8.23399 9.08907 8.2525 9.10013 8.26722 9.11485C8.28214 9.12951 8.30052 9.1405 8.32283 9.14789C8.34507 9.15522 8.37098 9.15895 8.40061 9.15895C8.43019 9.15895 8.45989 9.15895 8.48952 9.15895C8.51909 9.15895 8.545 9.16261 8.56724 9.17001C8.58949 9.17727 8.60806 9.18833 8.62285 9.20305C8.6377 9.21777 8.65615 9.22876 8.67839 9.23609C8.70064 9.24355 8.72661 9.24708 8.75618 9.24708C8.78581 9.24708 8.81551 9.24708 8.84515 9.24708C8.87472 9.24708 8.90442 9.24708 8.93406 9.24708C8.96363 9.24708 8.99333 9.24708 9.0229 9.24708C9.05254 9.24708 9.08211 9.24708 9.11181 9.24708C9.14144 9.24708 9.17108 9.24708 9.20071 9.24708C9.23035 9.24708 9.25626 9.24355 9.2785 9.23609C9.30068 9.22876 9.31926 9.21777 9.33411 9.20305C9.34883 9.18833 9.36741 9.17727 9.38959 9.17001C9.41183 9.16261 9.4378 9.15895 9.46744 9.15895C9.49707 9.15895 9.52664 9.15895 9.55634 9.15895C9.58592 9.15895 9.61189 9.15522 9.63407 9.14789C9.65631 9.1405 9.67482 9.12951 9.68974 9.11485C9.70446 9.10013 9.72297 9.08907 9.74521 9.08174C9.76746 9.07435 9.78964 9.06702 9.81194 9.05963C9.83419 9.0523 9.8527 9.0413 9.86742 9.02652C9.88234 9.01186 9.90079 9.00081 9.92303 8.99348C9.94527 8.98608 9.96751 8.97882 9.98969 8.97143C10.0119 8.9641 10.0305 8.95298 10.0452 8.93838C10.0601 8.92366 10.0786 8.9126 10.1008 8.90528C10.123 8.89788 10.1453 8.89056 10.1675 8.88316C10.1898 8.87577 10.2083 8.86484 10.223 8.85006C10.2379 8.83533 10.2528 8.82068 10.2675 8.80595C10.2823 8.7913 10.2971 8.77658 10.312 8.76186C10.3268 8.7472 10.3417 8.73241 10.3564 8.71769C10.3713 8.70303 10.386 8.68831 10.4009 8.67359C10.4157 8.65893 10.4304 8.64428 10.4454 8.62955C10.4601 8.61477 10.4749 8.60011 10.4898 8.58539C10.5046 8.57067 10.5195 8.55595 10.5342 8.54123C10.549 8.52657 10.5638 8.51185 10.5787 8.49713C10.5935 8.4824 10.6083 8.46775 10.6231 8.45309C10.638 8.4383 10.6491 8.41992 10.6564 8.39787C10.6639 8.37588 10.6713 8.35377 10.6786 8.33172C10.6861 8.3096 10.6972 8.29128 10.712 8.27656C10.7269 8.26184 10.7416 8.24712 10.7564 8.2324C10.7713 8.21774 10.7861 8.20302 10.8009 8.18836C10.8158 8.17364 10.8268 8.15519 10.8342 8.13321C10.8417 8.11109 10.8491 8.08904 10.8565 8.06699C10.8639 8.04494 10.875 8.02655 10.8898 8.01183C10.9047 7.99718 10.9157 7.97879 10.9231 7.95674C10.9306 7.93463 10.9343 7.90891 10.9343 7.87953C10.9343 7.85009 10.938 7.82431 10.9454 7.80233C10.9528 7.78028 10.9639 7.76183 10.9787 7.74711C10.9936 7.73245 11.0046 7.71406 11.012 7.69201C11.0195 7.6699 11.0231 7.64418 11.0231 7.6148C11.0231 7.58543 11.0231 7.55592 11.0231 7.52654C11.0231 7.49716 11.0269 7.47145 11.0343 7.44933C11.0417 7.42735 11.0528 7.4089 11.0676 7.39424C11.0825 7.37952 11.0935 7.36113 11.1009 7.33902C11.1084 7.31703 11.1121 7.29132 11.1121 7.26181C11.1121 7.23243 11.1121 7.20305 11.1121 7.17368C11.1121 7.14417 11.1121 7.11479 11.1121 7.08535C11.1121 7.05597 11.1121 7.02659 11.1121 6.99715C11.1121 6.96777 11.1121 6.93833 11.1121 6.90895C11.1121 6.87944 11.1121 6.85006 11.1121 6.82068C11.1121 6.79124 11.1121 6.76186 11.1121 6.73242C11.1121 6.70304 11.1084 6.67733 11.1009 6.65528C11.0935 6.63316 11.0825 6.61484 11.0676 6.60012C11.0528 6.58533 11.0417 6.56701 11.0343 6.5449C11.0269 6.52285 11.0231 6.4972 11.0231 6.46769C11.0231 6.43831 11.0231 6.40893 11.0231 6.37955C11.0231 6.35011 11.0195 6.32433 11.012 6.30235C11.0046 6.28027 10.9936 6.26185 10.9787 6.24715C10.9639 6.23246 10.9528 6.21403 10.9454 6.19203C10.938 6.16995 10.9343 6.14422 10.9343 6.11482C10.9343 6.0854 10.9306 6.05966 10.9231 6.0376C10.9157 6.01554 10.9047 5.99716 10.8898 5.98246C10.875 5.96774 10.8639 5.94936 10.8565 5.92732C10.8491 5.90524 10.8417 5.88318 10.8342 5.86114C10.8268 5.83906 10.8158 5.82068 10.8009 5.80598C10.7861 5.79128 10.775 5.77288 10.7676 5.75081C10.7602 5.72878 10.7528 5.70671 10.7453 5.68464C10.7379 5.6626 10.7269 5.64422 10.712 5.6295C10.6972 5.6148 10.6861 5.59642 10.6786 5.57436C10.6713 5.55232 10.6639 5.53024 10.6564 5.50817C10.6491 5.48614 10.638 5.46776 10.6231 5.45304C10.6083 5.43834 10.5935 5.42362 10.5787 5.40892C10.5638 5.39422 10.549 5.37949 10.5342 5.36482C10.5195 5.3501 10.5083 5.33172 10.5009 5.30965C10.4934 5.2876 10.4861 5.26554 10.4786 5.24348C10.4712 5.22142 10.4601 5.20304 10.4454 5.18831C10.4304 5.17361 10.4157 5.15892 10.4009 5.14421C10.386 5.12952 10.3713 5.1148 10.3564 5.1001C10.3417 5.0854 10.3268 5.07068 10.312 5.05598C10.2971 5.04128 10.2823 5.02658 10.2675 5.01186C10.2528 4.99715 10.2379 4.98245 10.223 4.96774C10.2083 4.95304 10.1934 4.93833 10.1786 4.92364C10.1638 4.90892 10.149 4.89422 10.1341 4.8795C10.1194 4.8648 10.1008 4.85378 10.0786 4.84642C10.0564 4.83908 10.0342 4.83172 10.0119 4.82435C9.98969 4.81699 9.97118 4.80598 9.95633 4.79127C9.94154 4.77658 9.92676 4.76186 9.91184 4.74715C9.89712 4.73244 9.88234 4.71776 9.86742 4.70304C9.8527 4.68834 9.83419 4.6773 9.81194 4.66996C9.78964 4.66257 9.76746 4.65524 9.74521 4.64788C9.72297 4.64054 9.70446 4.6295 9.68974 4.61482C9.67482 4.60009 9.65631 4.58906 9.63407 4.58171C9.61189 4.57435 9.58964 4.56702 9.5674 4.55966C9.54522 4.5523 9.52664 4.54128 9.51179 4.52656C9.49707 4.51186 9.47856 4.50084 9.45625 4.49348C9.43407 4.48614 9.41183 4.47878 9.38959 4.47142C9.36741 4.46408 9.34883 4.45304 9.33411 4.43834C9.31926 4.42362 9.30068 4.4126 9.2785 4.40524C9.25626 4.3979 9.23035 4.39422 9.20071 4.39422C9.17108 4.39422 9.14511 4.39052 9.12293 4.38317C9.10069 4.37583 9.08211 4.3648 9.06739 4.3501C9.05254 4.33538 9.03402 4.32436 9.01178 4.317C8.98954 4.30966 8.96363 4.30598 8.93406 4.30598C8.90442 4.30598 8.87472 4.30598 8.84515 4.30598C8.81551 4.30598 8.78581 4.30598 8.75618 4.30598C8.72661 4.30598 8.69691 4.30598 8.66734 4.30598C8.6377 4.30598 8.61179 4.3023 8.58949 4.29496C8.56724 4.2876 8.54879 4.27658 8.53394 4.26185C8.51909 4.24715 8.50058 4.23612 8.47834 4.22877C8.45609 4.22142 8.43019 4.21774 8.40061 4.21774C8.37098 4.21774 8.34128 4.21774 8.31164 4.21774C8.28214 4.21774 8.2525 4.21774 8.2228 4.21774C8.19316 4.21774 8.16359 4.21774 8.13389 4.21774C8.10426 4.21774 8.07456 4.21774 8.04499 4.21774C8.01535 4.21774 7.98944 4.22142 7.9672 4.22877C7.94502 4.23612 7.92644 4.24715 7.91166 4.26185C7.89687 4.27658 7.87836 4.2876 7.85611 4.29496C7.83387 4.3023 7.80796 4.30598 7.77826 4.30598C7.74863 4.30598 7.71906 4.30598 7.68936 4.30598C7.65979 4.30598 7.63015 4.30598 7.60045 4.30598C7.57081 4.30598 7.54124 4.30598 7.51167 4.30598C7.48197 4.30598 7.456 4.30966 7.43382 4.317C7.41158 4.32436 7.39306 4.33538 7.37828 4.3501C7.36343 4.3648 7.34491 4.37583 7.32267 4.38317C7.30043 4.39052 7.27452 4.39422 7.24482 4.39422C7.21525 4.39422 7.18561 4.39422 7.15604 4.39422C7.12634 4.39422 7.10044 4.3979 7.07819 4.40524C7.05595 4.4126 7.03744 4.42362 7.02265 4.43834C7.0078 4.45304 6.98929 4.46408 6.96704 4.47142C6.94486 4.47878 6.92262 4.48614 6.90038 4.49348C6.87814 4.50084 6.85962 4.51186 6.84484 4.52656C6.82999 4.54128 6.81147 4.5523 6.78923 4.55966C6.76705 4.56702 6.74108 4.57068 6.71151 4.57068C6.68181 4.57068 6.6559 4.57435 6.63366 4.58171C6.61148 4.58906 6.5929 4.60009 6.57818 4.61482C6.56333 4.6295 6.54854 4.64419 6.53369 4.65892C6.51884 4.67362 6.50399 4.68834 6.48927 4.70304C6.47436 4.71776 6.45584 4.72877 6.43373 4.73614C6.41142 4.74348 6.38918 4.75084 6.36694 4.7582C6.34482 4.76553 6.32624 4.77658 6.31146 4.79127C6.29661 4.80598 6.28182 4.8207 6.26697 4.83537C6.25212 4.8501 6.2374 4.8648 6.22249 4.8795C6.2077 4.89422 6.18912 4.90526 6.16701 4.9126C6.14476 4.91994 6.12246 4.9273 6.10034 4.93464C6.0781 4.94202 6.05959 4.95304 6.04474 4.96774C6.02991 4.98245 6.01508 4.99715 6.00025 5.01186C5.9855 5.02658 5.97067 5.04128 5.95584 5.05598C5.94101 5.07068 5.92618 5.0854 5.91143 5.1001C5.89652 5.1148 5.88177 5.12952 5.86693 5.14421C5.8521 5.15892 5.83727 5.17361 5.82244 5.18831C5.80761 5.20304 5.79286 5.21773 5.77803 5.23246C5.7632 5.24716 5.74837 5.26186 5.73354 5.27656C5.71879 5.29127 5.70396 5.30598 5.68913 5.32068C5.6743 5.33539 5.65947 5.3501 5.64463 5.36482C5.62988 5.37949 5.61505 5.39422 5.60022 5.40892C5.58542 5.42362 5.57058 5.43834 5.55579 5.45304C5.54094 5.46776 5.52614 5.48244 5.51132 5.49716C5.49651 5.51186 5.48168 5.52655 5.46686 5.54128C5.45205 5.55598 5.43725 5.5707 5.4224 5.58538C5.40761 5.6001 5.39279 5.6148 5.37796 5.6295C5.36315 5.64422 5.35202 5.6626 5.34463 5.68464C5.33723 5.70671 5.32981 5.72878 5.3224 5.75081C5.315 5.77288 5.30389 5.79128 5.28908 5.80598C5.27425 5.82068 5.25943 5.8354 5.24461 5.8501C5.22979 5.8648 5.21497 5.87952 5.20018 5.89422C5.18535 5.90892 5.17423 5.92732 5.16681 5.94935C5.15941 5.97142 5.15203 5.99346 5.14461 6.01554C5.13718 6.0376 5.12608 6.05598 5.11127 6.07067C5.09643 6.0854 5.08533 6.10378 5.07792 6.12584C5.07051 6.14787 5.0631 6.16995 5.05569 6.19203C5.04828 6.21403 5.03718 6.23246 5.02235 6.24715C5.00756 6.26185 4.99644 6.28027 4.98903 6.30235C4.98162 6.32433 4.97421 6.34645 4.9668 6.3685C4.95939 6.39055 4.94829 6.40893 4.93347 6.42365C4.91864 6.43831 4.90755 6.4567 4.90013 6.47875C4.89272 6.50086 4.88901 6.52658 4.88901 6.55596C4.88901 6.5854 4.88528 6.61118 4.8779 6.63316C4.87049 6.65528 4.85939 6.6736 4.84455 6.68838C4.82975 6.70304 4.81865 6.72143 4.81121 6.74348C4.80382 6.76559 4.80011 6.79124 4.80011 6.82068C4.80011 6.85006 4.79642 6.87584 4.789 6.89789C4.78159 6.92001 4.77047 6.93833 4.75567 6.95305C4.74083 6.96777 4.72973 6.98615 4.72232 7.00814C4.71493 7.03025 4.71121 7.05597 4.71121 7.08535C4.71121 7.11479 4.71121 7.14417 4.71121 7.17368C4.71121 7.20305 4.71121 7.23243 4.71121 7.26181C4.71121 7.29132 4.71121 7.3207 4.71121 7.35008C4.71121 7.37952 4.71121 7.4089 4.71121 7.43834C4.71121 7.46772 4.7075 7.4935 4.70009 7.51555C4.6927 7.5376 4.68158 7.55592 4.66675 7.57064C4.65193 7.58543 4.64083 7.60375 4.63342 7.62586C4.62601 7.64785 4.62231 7.67363 4.62231 7.70307C4.62231 7.73245 4.62231 7.76183 4.62231 7.79127C4.62231 7.82065 4.62231 7.85009 4.62231 7.87953C4.62231 7.90891 4.62601 7.93463 4.63342 7.95674C4.64083 7.97879 4.65193 7.99718 4.66675 8.01183C4.68158 8.02655 4.6927 8.04494 4.70009 8.06699C4.7075 8.08904 4.71121 8.11482 4.71121 8.14426C4.71121 8.17364 4.71121 8.20302 4.71121 8.2324C4.71121 8.26184 4.71121 8.29128 4.71121 8.32066C4.71121 8.35011 4.71121 8.37942 4.71121 8.40893C4.71121 8.43831 4.71121 8.46775 4.71121 8.49713C4.71121 8.52657 4.71121 8.55595 4.71121 8.58539C4.71121 8.61477 4.71121 8.64428 4.71121 8.67359C4.71121 8.70303 4.71493 8.72875 4.72232 8.75086C4.72973 8.77291 4.74083 8.7913 4.75567 8.80595C4.77047 8.82068 4.78159 8.83906 4.789 8.86111C4.79642 8.88316 4.80011 8.90888 4.80011 8.93838C4.80011 8.9677 4.80011 8.99714 4.80011 9.02652C4.80011 9.05603 4.80382 9.08174 4.81121 9.10373C4.81865 9.12591 4.82975 9.14416 4.84455 9.15895C4.85939 9.1736 4.87049 9.19206 4.8779 9.21404C4.88528 9.23609 4.88901 9.26187 4.88901 9.29125C4.88901 9.32063 4.89272 9.3464 4.90013 9.36845C4.90755 9.39057 4.91864 9.40895 4.93347 9.42361C4.94829 9.43827 4.95939 9.45672 4.9668 9.47877C4.97421 9.50088 4.97793 9.5266 4.97793 9.55598C4.97793 9.58536 4.98162 9.61113 4.98903 9.63318C4.99644 9.6553 5.00756 9.67362 5.02235 9.68834C5.03718 9.703 5.04828 9.72145 5.05569 9.74343C5.0631 9.76555 5.07051 9.7876 5.07792 9.80958C5.08533 9.83176 5.09643 9.85008 5.11127 9.86487C5.12608 9.87953 5.13718 9.89791 5.14461 9.9199C5.15203 9.94201 5.15941 9.96406 5.16681 9.98611C5.17423 10.0082 5.18535 10.0265 5.20018 10.0413C5.21497 10.056 5.2261 10.0744 5.23351 10.0964C5.24089 10.1184 5.24831 10.1406 5.25574 10.1626C5.26315 10.1846 5.27425 10.203 5.28908 10.2178C5.30389 10.2325 5.31869 10.2472 5.33354 10.2618C5.34832 10.2766 5.36315 10.2913 5.37796 10.3059C5.39279 10.3207 5.40392 10.339 5.4113 10.3611C5.41871 10.3832 5.42612 10.4052 5.43353 10.4274C5.44094 10.4494 5.45205 10.4677 5.46686 10.4824C5.48168 10.4971 5.49651 10.5119 5.51132 10.5266C5.52614 10.5413 5.54094 10.556 5.55579 10.5707C5.57058 10.5854 5.58542 10.6001 5.60022 10.6148C5.61505 10.6295 5.62988 10.6442 5.64463 10.6589C5.65947 10.6736 5.67062 10.692 5.67804 10.714C5.68538 10.7361 5.69279 10.7582 5.70021 10.7803C5.70762 10.8023 5.71879 10.8207 5.73354 10.8354C5.74837 10.8501 5.7632 10.8648 5.77803 10.8796C5.79286 10.8943 5.80761 10.9089 5.82244 10.9236C5.83727 10.9383 5.8521 10.953 5.86693 10.9677C5.88177 10.9825 5.89652 10.9972 5.91143 11.0119C5.92618 11.0266 5.94101 11.0413 5.95584 11.056C5.97067 11.0707 5.9855 11.0853 6.00025 11.1001C6.01508 11.1148 6.02991 11.1295 6.04474 11.1442C6.05959 11.1589 6.07431 11.1737 6.08916 11.1883C6.10401 11.203 6.11879 11.2177 6.13364 11.2324C6.14843 11.2471 6.16334 11.2619 6.17806 11.2765C6.19291 11.2913 6.2077 11.306 6.22249 11.3207C6.2374 11.3354 6.25212 11.3501 6.26697 11.3648C6.28182 11.3795 6.29661 11.3942 6.31146 11.4089C6.32624 11.4236 6.34103 11.4383 6.35588 11.453C6.37073 11.4678 6.38551 11.4824 6.4003 11.4971C6.41515 11.5119 6.42994 11.5266 6.44479 11.5412C6.45964 11.556 6.47436 11.5706 6.48927 11.5854C6.50399 11.6001 6.51884 11.6148 6.53369 11.6295C6.54854 11.6443 6.56333 11.6589 6.57818 11.6736C6.5929 11.6883 6.60775 11.7031 6.6226 11.7178C6.63745 11.7324 6.65224 11.7472 6.66702 11.7619C6.68181 11.7766 6.70032 11.7877 6.72256 11.7949C6.74481 11.8023 6.76705 11.8096 6.78923 11.817C6.81147 11.8244 6.82999 11.8354 6.84484 11.8501C6.85962 11.8648 6.87447 11.8795 6.88932 11.8942C6.90411 11.9089 6.91889 11.9236 6.93374 11.9383C6.94853 11.953 6.96704 11.9641 6.98929 11.9714C7.01153 11.9788 7.03371 11.9861 7.05595 11.9934C7.07819 12.0008 7.09671 12.0119 7.11156 12.0265C7.12634 12.0413 7.14119 12.056 7.15604 12.0707C7.17076 12.0854 7.18561 12.1001 7.20046 12.1149C7.21525 12.1295 7.23376 12.1405 7.25601 12.1479C7.27825 12.1552 7.30043 12.1626 7.32267 12.1699C7.34491 12.1773 7.36343 12.1883 7.37828 12.2031C7.39306 12.2177 7.41158 12.2288 7.43382 12.2361C7.456 12.2434 7.47824 12.2508 7.50049 12.2582C7.52273 12.2656 7.54124 12.2765 7.55603 12.2913C7.57081 12.306 7.58939 12.317 7.61157 12.3244C7.63381 12.3317 7.65606 12.3391 7.6783 12.3464C7.70048 12.3538 7.71906 12.3648 7.73384 12.3795C7.74863 12.3943 7.76721 12.4052 7.78939 12.4126C7.81163 12.4199 7.83387 12.4273 7.85611 12.4346C7.87836 12.442 7.89687 12.453 7.91166 12.4678C7.92644 12.4825 7.94502 12.4935 7.9672 12.5008C7.98944 12.5082 8.01169 12.5155 8.03393 12.5229C8.05611 12.5302 8.06723 12.5413 8.06723 12.5559C8.06723 12.5707 8.05611 12.5818 8.03393 12.589C8.01169 12.5964 7.98578 12.6001 7.95608 12.6001C7.92644 12.6001 7.89674 12.6001 7.86717 12.6001C7.8376 12.6001 7.80796 12.6001 7.77826 12.6001C7.74863 12.6001 7.72272 12.5964 7.70048 12.589C7.6783 12.5818 7.65979 12.5707 7.64494 12.5559C7.63015 12.5413 7.61157 12.5302 7.58939 12.5229C7.56715 12.5155 7.54124 12.5118 7.51167 12.5118C7.48197 12.5118 7.45234 12.5118 7.42264 12.5118C7.39306 12.5118 7.36709 12.5082 7.34491 12.5008C7.32267 12.4935 7.30416 12.4825 7.28937 12.4678C7.27452 12.453 7.25601 12.442 7.23376 12.4346C7.21152 12.4273 7.18561 12.4236 7.15604 12.4236C7.12634 12.4236 7.10044 12.4199 7.07819 12.4126C7.05595 12.4052 7.03744 12.3943 7.02265 12.3795C7.0078 12.3648 6.98929 12.3538 6.96704 12.3464C6.94486 12.3391 6.91889 12.3354 6.88932 12.3354C6.85962 12.3354 6.83371 12.3317 6.81147 12.3244C6.78923 12.317 6.77071 12.306 6.75593 12.2913C6.74108 12.2765 6.72256 12.2656 6.70032 12.2582C6.67814 12.2508 6.6559 12.2434 6.63366 12.2361C6.61148 12.2288 6.5929 12.2177 6.57818 12.2031C6.56333 12.1883 6.54475 12.1773 6.52251 12.1699C6.50033 12.1626 6.47809 12.1552 6.45584 12.1479C6.43373 12.1405 6.41515 12.1295 6.4003 12.1149C6.38551 12.1001 6.36694 12.0891 6.34482 12.0818C6.32251 12.0744 6.30027 12.067 6.27816 12.0596C6.25591 12.0523 6.2374 12.0413 6.22249 12.0265C6.2077 12.0119 6.19291 11.9972 6.17806 11.9825C6.16334 11.9677 6.14843 11.953 6.13364 11.9383C6.11879 11.9236 6.10034 11.9126 6.0781 11.9053C6.05583 11.8979 6.03358 11.8905 6.01134 11.8832C5.98917 11.8758 5.97067 11.8648 5.95584 11.8501C5.94101 11.8354 5.92618 11.8207 5.91143 11.8059C5.89652 11.7913 5.88177 11.7766 5.86693 11.7619C5.8521 11.7472 5.83727 11.7324 5.82244 11.7178C5.80761 11.7031 5.79286 11.6883 5.77803 11.6736C5.7632 11.6589 5.7447 11.6478 5.72245 11.6406C5.70021 11.6332 5.67804 11.6258 5.65579 11.6185C5.63354 11.6111 5.61505 11.6001 5.60022 11.5854C5.58542 11.5706 5.57058 11.556 5.55579 11.5412C5.54094 11.5266 5.52614 11.5119 5.51132 11.4971C5.49651 11.4824 5.48168 11.4678 5.46686 11.453C5.45205 11.4383 5.43725 11.4236 5.4224 11.4089C5.40761 11.3942 5.39279 11.3795 5.37796 11.3648C5.36315 11.3501 5.34832 11.3354 5.33354 11.3207C5.31869 11.306 5.30389 11.2913 5.28908 11.2765C5.27425 11.2619 5.26315 11.2434 5.25574 11.2214C5.24831 11.1994 5.24089 11.1773 5.23351 11.1553C5.2261 11.1332 5.21497 11.1148 5.20018 11.1001C5.18535 11.0853 5.17054 11.0707 5.15572 11.056C5.14089 11.0413 5.12608 11.0266 5.11127 11.0119C5.09643 10.9972 5.08164 10.9825 5.0668 10.9677C5.052 10.953 5.03718 10.9383 5.02235 10.9236C5.00756 10.9089 4.99272 10.8943 4.97793 10.8796C4.9631 10.8648 4.94829 10.8501 4.93347 10.8354C4.91864 10.8207 4.90755 10.8023 4.90013 10.7803C4.89272 10.7582 4.88528 10.7361 4.8779 10.714C4.87049 10.692 4.85939 10.6736 4.84455 10.6589C4.82975 10.6442 4.81493 10.6295 4.80011 10.6148C4.78531 10.6001 4.77047 10.5854 4.75567 10.5707C4.74083 10.556 4.72973 10.5376 4.72232 10.5156C4.71493 10.4935 4.7075 10.4714 4.70009 10.4494C4.6927 10.4274 4.68158 10.4089 4.66675 10.3943C4.65193 10.3795 4.64083 10.3611 4.63342 10.339C4.62601 10.3171 4.6186 10.2949 4.61122 10.2729C4.60381 10.2508 4.59268 10.2325 4.57785 10.2178C4.56304 10.203 4.55191 10.1846 4.54453 10.1626C4.53711 10.1406 4.5297 10.1184 4.5223 10.0964C4.51488 10.0744 4.50378 10.056 4.48894 10.0413C4.47414 10.0265 4.46304 10.0082 4.45563 9.98611C4.44819 9.96406 4.44079 9.94201 4.43339 9.9199C4.42599 9.89791 4.41487 9.87953 4.40007 9.86487C4.38524 9.85008 4.37412 9.83176 4.36671 9.80958C4.3593 9.7876 4.3556 9.76188 4.3556 9.73251C4.3556 9.703 4.35191 9.67735 4.34448 9.6553C4.33707 9.63318 4.32597 9.6148 4.31117 9.60008C4.29633 9.58535 4.28522 9.56703 4.27784 9.54492C4.2704 9.52287 4.26668 9.49715 4.26668 9.46778C4.26668 9.43827 4.26299 9.41256 4.25559 9.39057C4.24817 9.36846 4.23707 9.35013 4.22225 9.33541C4.20746 9.32063 4.19633 9.30237 4.18892 9.28019C4.18151 9.2582 4.17782 9.23243 4.17782 9.20305C4.17782 9.1736 4.17782 9.14416 4.17782 9.11485C4.17782 9.08541 4.17409 9.05963 4.16669 9.03758C4.15928 9.01559 4.14817 8.99714 4.13336 8.98242C4.11854 8.9677 4.10743 8.94938 4.10002 8.92733C4.09262 8.90528 4.08889 8.8795 4.08889 8.85006C4.08889 8.82068 4.08889 8.7913 4.08889 8.76186C4.08889 8.73241 4.08889 8.70303 4.08889 8.67359C4.08889 8.64428 4.08889 8.61477 4.08889 8.58539C4.08889 8.55595 4.0852 8.5303 4.07779 8.50818C4.07038 8.48613 4.05928 8.46775 4.04443 8.45309C4.02964 8.4383 4.01854 8.41992 4.0111 8.39787C4.00372 8.37588 4 8.35011 4 8.32066C4 8.29128 4 8.26184 4 8.2324C4 8.20302 4 8.17364 4 8.14426C4 8.11482 4 8.08538 4 8.056C4 8.02656 4 7.99718 4 7.9678C4 7.93829 4 7.90891 4 7.87953C4 7.85009 4 7.82065 4 7.79127C4 7.76183 4 7.73245 4 7.70307C4 7.67363 4 7.64418 4 7.6148C4 7.58543 4 7.55592 4 7.52654C4 7.49716 4 7.46772 4 7.43834C4 7.4089 4.00372 7.38318 4.0111 7.36113C4.01854 7.33902 4.02964 7.3207 4.04443 7.30598C4.05928 7.29132 4.07038 7.27287 4.07779 7.25082C4.0852 7.22877 4.08889 7.20305 4.08889 7.17368C4.08889 7.14417 4.08889 7.11479 4.08889 7.08535C4.08889 7.05597 4.08889 7.02659 4.08889 6.99715C4.08889 6.96777 4.08889 6.93833 4.08889 6.90895C4.08889 6.87944 4.09262 6.85379 4.10002 6.83174C4.10743 6.80963 4.11854 6.79124 4.13336 6.77652C4.14817 6.76186 4.15928 6.74348 4.16669 6.72143C4.17409 6.69931 4.17782 6.6736 4.17782 6.64422C4.17782 6.61484 4.18151 6.58906 4.18892 6.56701C4.19633 6.5449 4.20746 6.52658 4.22225 6.51185C4.23707 6.4972 4.24817 6.47875 4.25559 6.4567C4.26299 6.43465 4.26668 6.40893 4.26668 6.37955C4.26668 6.35011 4.2704 6.32433 4.27784 6.30235C4.28522 6.28027 4.29633 6.26185 4.31117 6.24715C4.32597 6.23246 4.33707 6.21403 4.34448 6.19203C4.35191 6.16995 4.3593 6.14787 4.36671 6.12584C4.37412 6.10378 4.38524 6.0854 4.40007 6.07067C4.41487 6.05598 4.42599 6.0376 4.43339 6.01554C4.44079 5.99346 4.44819 5.97142 4.45563 5.94935C4.46304 5.92732 4.47414 5.90892 4.48894 5.89422C4.50378 5.87952 4.51488 5.86114 4.5223 5.83906C4.5297 5.81702 4.53711 5.79496 4.54453 5.77288C4.55191 5.75081 4.56304 5.73244 4.57785 5.71773C4.59268 5.70304 4.60381 5.68464 4.61122 5.6626C4.6186 5.64054 4.62601 5.61848 4.63342 5.59642C4.64083 5.57436 4.65193 5.55598 4.66675 5.54128C4.68158 5.52655 4.6927 5.50818 4.70009 5.48614C4.7075 5.46406 4.71493 5.442 4.72232 5.41996C4.72973 5.39787 4.74083 5.37949 4.75567 5.36482C4.77047 5.3501 4.78531 5.33539 4.80011 5.32068C4.81493 5.30598 4.82975 5.29127 4.84455 5.27656C4.85939 5.26186 4.87418 5.24716 4.88901 5.23246C4.90382 5.21773 4.91864 5.20304 4.93347 5.18831C4.94829 5.17361 4.95939 5.15523 4.9668 5.13318C4.97421 5.11113 4.98162 5.08906 4.98903 5.067C4.99644 5.04496 5.00756 5.02658 5.02235 5.01186C5.03718 4.99715 5.052 4.98245 5.0668 4.96774C5.08164 4.95304 5.09643 4.93833 5.11127 4.92364C5.12608 4.90892 5.14089 4.89422 5.15572 4.8795C5.17054 4.8648 5.18535 4.8501 5.20018 4.83537C5.21497 4.8207 5.22979 4.80598 5.24461 4.79127C5.25943 4.77658 5.27425 4.76186 5.28908 4.74715C5.30389 4.73244 5.31869 4.71776 5.33354 4.70304C5.34832 4.68834 5.36315 4.67362 5.37796 4.65892C5.39279 4.64419 5.40761 4.6295 5.4224 4.61482C5.43725 4.60009 5.45576 4.58906 5.47799 4.58171C5.5002 4.57435 5.52243 4.56702 5.54465 4.55966C5.56688 4.5523 5.58542 4.54128 5.60022 4.52656C5.61505 4.51186 5.62988 4.49716 5.64463 4.48246C5.65947 4.46774 5.6743 4.45304 5.68913 4.43834C5.70396 4.42362 5.71879 4.40891 5.73354 4.39422C5.74837 4.37952 5.7632 4.3648 5.77803 4.3501C5.79286 4.33538 5.81136 4.32436 5.8336 4.317C5.85577 4.30966 5.87802 4.3023 5.90027 4.29496C5.92251 4.2876 5.94101 4.27658 5.95584 4.26185C5.97067 4.24715 5.9855 4.23246 6.00025 4.21774C6.01508 4.20303 6.02991 4.18834 6.04474 4.17364C6.05959 4.15892 6.0781 4.14788 6.10034 4.14054C6.12246 4.13318 6.14476 4.12584 6.16701 4.11848C6.18912 4.11112 6.2077 4.1001 6.22249 4.08538C6.2374 4.0707 6.25591 4.05966 6.27816 4.05232C6.30027 4.04494 6.32251 4.03759 6.34482 4.03023C6.36694 4.0229 6.38551 4.01185 6.4003 3.99716C6.41515 3.98244 6.43373 3.97142 6.45584 3.96406C6.47809 3.95672 6.50399 3.95304 6.53369 3.95304C6.56333 3.95304 6.58924 3.94936 6.61148 3.94202C6.63366 3.93466 6.65224 3.92362 6.66702 3.90892C6.68181 3.8942 6.70032 3.8832 6.72256 3.87582C6.74481 3.86848 6.76705 3.86112 6.78923 3.85378C6.81147 3.84641 6.82999 3.8354 6.84484 3.82067C6.85962 3.80598 6.87814 3.79495 6.90038 3.7876C6.92262 3.78025 6.94853 3.77657 6.97823 3.77657C7.0078 3.77657 7.03744 3.77657 7.06714 3.77657C7.09671 3.77657 7.12261 3.7729 7.14486 3.76553C7.1671 3.75818 7.18561 3.74715 7.20046 3.73246C7.21525 3.71774 7.23376 3.70673 7.25601 3.69935C7.27825 3.692 7.30416 3.68834 7.33373 3.68834C7.36343 3.68834 7.39306 3.68834 7.42264 3.68834C7.45234 3.68834 7.48197 3.68834 7.51167 3.68834C7.54124 3.68834 7.56715 3.68465 7.58939 3.6773C7.61157 3.66996 7.63015 3.65893 7.64494 3.64421Z" fill="url(#paint1_linear_666_152)" stroke="url(#paint2_linear_666_152)" stroke-width="0.8"/>
<defs>
<linearGradient id="paint0_linear_666_152" x1="14.9583" y1="1.08876" x2="1.06918" y2="14.8623" gradientUnits="userSpaceOnUse">
<stop stop-color="#FE7970"/>
<stop offset="1" stop-color="#DC3282"/>
</linearGradient>
<linearGradient id="paint1_linear_666_152" x1="11.7114" y1="3.65716" x2="2.89529" y2="11.1704" gradientUnits="userSpaceOnUse">
<stop stop-color="#FE7970"/>
<stop offset="1" stop-color="#DC3282"/>
</linearGradient>
<linearGradient id="paint2_linear_666_152" x1="11.7115" y1="3.65716" x2="2.8953" y2="11.1704" gradientUnits="userSpaceOnUse">
<stop stop-color="#FE7970"/>
<stop offset="1" stop-color="#DC3282"/>
</linearGradient>
</defs>
</svg>
