<svg width="16" height="16" viewBox="0 0 16 16" fill="none" xmlns="http://www.w3.org/2000/svg">
<path fill-rule="evenodd" clip-rule="evenodd" d="M12.0586 2.62334L9.06114 3.05154C8.91335 3.07265 8.80357 3.19923 8.80357 3.34852V6.90476C8.80357 7.07045 8.93789 7.20476 9.10357 7.20476H13.5929C13.7585 7.20476 13.8929 7.07045 13.8929 6.90476V4.21548C13.893 3.98514 13.8437 3.75745 13.7481 3.54785C13.6526 3.33825 13.5132 3.15163 13.3392 3.00064C13.1652 2.84965 12.9609 2.73782 12.7399 2.67272C12.519 2.60762 12.2866 2.59078 12.0586 2.62334ZM13.8929 9.11191C13.8929 8.94622 13.7585 8.81191 13.5929 8.81191H9.10357C8.93789 8.81191 8.80357 8.94622 8.80357 9.11191V12.6681C8.80357 12.8174 8.91335 12.944 9.06114 12.9651L12.0586 13.3933C12.2866 13.4259 12.519 13.409 12.7399 13.344C12.9609 13.2789 13.1652 13.167 13.3392 13.016C13.5132 12.865 13.6526 12.6784 13.7481 12.4688C13.8437 12.2592 13.893 12.0315 13.8929 11.8012V9.11191ZM6.89643 7.20476C7.06211 7.20476 7.19643 7.07045 7.19643 6.90476V3.66357C7.19643 3.48099 7.03471 3.34075 6.85397 3.36659L3.48714 3.84798C3.10413 3.90266 2.75369 4.09368 2.50019 4.38596C2.24669 4.67823 2.10713 5.05215 2.10714 5.43905V6.90476C2.10714 7.07045 2.24146 7.20476 2.40714 7.20476H6.89643ZM2.10714 9.11191C2.10714 8.94622 2.24146 8.81191 2.40714 8.81191H6.89643C7.06211 8.81191 7.19643 8.94622 7.19643 9.11191V12.3531C7.19643 12.5357 7.03471 12.6759 6.85397 12.6501L3.48714 12.1687C3.10413 12.114 2.75369 11.923 2.50019 11.6307C2.24669 11.3384 2.10713 10.9645 2.10714 10.5776V9.11191ZM3.26 2.25691C2.49397 2.36627 1.7931 2.74831 1.28609 3.33286C0.779086 3.91742 0.499971 4.66525 0.5 5.43905V10.5776C0.499971 11.3514 0.779086 12.0993 1.28609 12.6838C1.7931 13.2684 2.49397 13.6504 3.26 13.7598L11.8314 14.9844C12.2874 15.0495 12.752 15.0158 13.1939 14.8857C13.6357 14.7556 14.0444 14.532 14.3923 14.2301C14.7402 13.9283 15.0191 13.5552 15.2102 13.1361C15.4014 12.717 15.5002 12.2618 15.5 11.8012V4.21441C15.5 3.7539 15.4011 3.29877 15.2099 2.87983C15.0187 2.46089 14.7397 2.08792 14.3919 1.78617C14.044 1.48443 13.6354 1.26096 13.1936 1.13088C12.7519 1.00081 12.2873 0.96718 11.8314 1.03226L3.26 2.25691Z" fill="url(#paint0_linear_632_96)"/>
<defs>
<linearGradient id="paint0_linear_632_96" x1="14" y1="8" x2="0.999999" y2="7" gradientUnits="userSpaceOnUse">
<stop stop-color="#18AEFA"/>
<stop offset="1" stop-color="#83E1FF"/>
</linearGradient>
</defs>
</svg>
