<svg width="16" height="16" viewBox="0 0 16 16" fill="none" xmlns="http://www.w3.org/2000/svg">
<path fill-rule="evenodd" clip-rule="evenodd" d="M8.49092 1.50673C8.27926 1.50084 8.00921 1.50003 7.6431 1.50003C6.65384 1.50003 5.95685 1.50061 5.41255 1.54494C4.87695 1.58856 4.55536 1.6708 4.30502 1.79788C3.78466 2.06203 3.36181 2.48488 3.09766 3.00524C2.97058 3.25558 2.88834 3.57718 2.84472 4.11277C2.80038 4.65707 2.79981 5.35406 2.79981 6.34332V9.53205C2.79981 10.5245 2.80039 11.2238 2.845 11.7698C2.88889 12.307 2.97165 12.6295 3.09954 12.8805C3.36319 13.398 3.78389 13.8187 4.30133 14.0823C4.55233 14.2102 4.87483 14.293 5.41209 14.3369C5.95809 14.3815 6.65734 14.382 7.64981 14.382H7.95542C8.94789 14.382 9.64713 14.3815 10.1931 14.3369C10.7304 14.293 11.0529 14.2102 11.3039 14.0823C11.8213 13.8187 12.242 13.398 12.5057 12.8805C12.6336 12.6295 12.7163 12.307 12.7602 11.7698C12.8048 11.2238 12.8054 10.5245 12.8054 9.53205V6.66513C12.8054 6.29804 12.8046 6.02722 12.7987 5.81494H12.4409H12.4105C11.8763 5.81495 11.4305 5.81496 11.0662 5.7852C10.6864 5.75416 10.3297 5.68705 9.99244 5.51521C9.475 5.25156 9.0543 4.83086 8.79065 4.31341C8.61881 3.97615 8.5517 3.6195 8.52066 3.23961C8.4909 2.87538 8.49091 2.42954 8.49092 1.89539V1.89538L8.49092 1.86494V1.50673ZM12.3727 4.31494C12.2144 4.07124 11.9802 3.83093 11.3849 3.23566L11.0678 2.91859C10.4735 2.32426 10.2341 2.09097 9.99092 1.93295C9.991 2.46806 9.99247 2.83346 10.0157 3.11746C10.0391 3.40459 10.081 3.54187 10.1272 3.63243C10.247 3.86763 10.4382 4.05886 10.6734 4.1787C10.764 4.22484 10.9013 4.26672 11.1884 4.29018C11.4724 4.31339 11.8377 4.31486 12.3727 4.31494ZM9.4992 0.116708C9.01034 -0.000268012 8.5001 -0.000155956 7.73273 1.25468e-05L7.6431 2.56002e-05L7.61059 2.5481e-05C6.66122 1.90437e-05 5.90313 1.38581e-05 5.29078 0.049887C4.66275 0.101038 4.12249 0.208339 3.62605 0.460349C2.82185 0.868585 2.16836 1.52207 1.76013 2.32627C1.50812 2.82271 1.40082 3.36297 1.34967 3.991C1.29979 4.60335 1.2998 5.36144 1.2998 6.31081V6.31082V6.34332V9.53205V9.56466C1.2998 10.5171 1.29979 11.2777 1.34998 11.8919C1.40145 12.5219 1.50944 13.0638 1.76303 13.5615C2.17049 14.3612 2.82066 15.0114 3.62035 15.4188C4.11804 15.6724 4.65993 15.7804 5.28994 15.8319C5.90421 15.8821 6.66477 15.8821 7.61723 15.882H7.64981H7.95542H7.988C8.94046 15.8821 9.70102 15.8821 10.3153 15.8319C10.9453 15.7804 11.4872 15.6724 11.9849 15.4188C12.7846 15.0114 13.4347 14.3612 13.8422 13.5615C14.0958 13.0638 14.2038 12.5219 14.2552 11.8919C14.3054 11.2777 14.3054 10.5171 14.3054 9.56468V9.53205V6.66513L14.3054 6.57521C14.3056 5.80538 14.3057 5.29349 14.188 4.80314C14.0839 4.36948 13.9122 3.95492 13.6791 3.57466C13.4157 3.14469 13.0536 2.78281 12.5092 2.23858L12.4456 2.175L12.1285 1.85793L12.0651 1.79455L12.0651 1.79454C11.5226 1.25181 11.1619 0.890937 10.7335 0.627977C10.3516 0.393547 9.93502 0.220992 9.4992 0.116708Z" fill="url(#paint0_linear_666_123)"/>
<path d="M7.35287 9.08984L5.43596 9.29492L5.39714 9.32363C5.29679 9.39336 5.29679 9.60664 5.39714 9.67637L5.43596 9.70508L7.35287 9.91016C7.42156 9.99815 7.62122 10.254 7.62751 10.2622C7.69073 10.3424 7.79316 10.3424 7.85632 10.2622L8.34337 9.64498C8.37498 9.60495 8.39079 9.55245 8.39079 9.5C8.39079 9.44755 8.37498 9.39505 8.34337 9.35502L7.85791 8.73979C7.79469 8.65967 7.69232 8.65967 7.6291 8.73979L7.35287 9.08984ZM4.49649 9.70787C4.49268 9.70754 4.48944 9.70508 4.48555 9.70508C4.3961 9.70508 4.32373 9.79679 4.32373 9.91016V12.7949C4.32373 12.9083 4.3961 13 4.48555 13C4.57499 13 4.64737 12.9083 4.64737 12.7949V11.0157C5.0118 11.8227 5.65143 12.4086 6.40448 12.5451C6.49297 12.5611 6.575 12.4833 6.58763 12.3711C6.58872 12.3613 6.58921 12.3515 6.58921 12.3418C6.58921 12.2413 6.53103 12.1536 6.45031 12.1389C5.53249 11.9728 4.79987 11.0443 4.6687 9.88112C4.65659 9.77377 4.58058 9.7001 4.49649 9.70787ZM4.32373 6.20508V9.08984C4.32373 9.20321 4.3961 9.29492 4.48555 9.29492C4.48944 9.29492 4.49268 9.29246 4.49649 9.29213C4.58058 9.2999 4.65659 9.22623 4.66869 9.11888C4.79986 7.95568 5.53249 7.02725 6.45031 6.86103C6.53103 6.84641 6.58921 6.7587 6.58921 6.65815C6.58921 6.64854 6.58872 6.63872 6.58763 6.62891C6.575 6.51675 6.49297 6.43885 6.40448 6.45487C5.65143 6.59143 5.0118 7.17726 4.64737 7.98434V6.20508C4.64737 6.09172 4.57499 6 4.48555 6C4.3961 6 4.32373 6.09172 4.32373 6.20508Z" fill="url(#paint1_linear_666_123)" stroke="url(#paint2_linear_666_123)" stroke-width="0.4"/>
<path d="M5.43587 9.29492H7.35278L7.62901 8.94487C7.69223 8.86475 7.7946 8.86475 7.85782 8.94487L8.18146 9.35502C8.21307 9.39505 8.22888 9.44755 8.22888 9.5C8.22888 9.5525 8.21307 9.60495 8.18146 9.64498L7.85623 10.0572C7.79307 10.1373 7.69064 10.1372 7.62742 10.0572C7.62113 10.0489 7.42147 9.79307 7.35278 9.70508H5.43587L7.66253 11.317C7.71755 11.358 7.78224 11.3539 7.83403 11.3129L8.26448 10.9479C8.59134 10.6689 8.97 10.5254 9.36162 10.5254C9.45223 10.5254 9.52344 10.4352 9.52344 10.3203V8.67969C9.52344 8.56484 9.45223 8.47461 9.36162 8.47461C8.97 8.47461 8.59134 8.33105 8.26448 8.05215L7.83403 7.68711C7.78224 7.64609 7.71755 7.64199 7.66253 7.68301L5.43587 9.29492ZM4 6.20508C4 6.31843 4.07238 6.41016 4.16182 6.41016H4.8091C4.89854 6.41016 4.97092 6.31843 4.97092 6.20508C4.97092 6.09172 4.89854 6 4.8091 6H4.16182C4.07238 6 4 6.09172 4 6.20508ZM4.97092 12.7949C4.97092 12.6816 4.89854 12.5898 4.8091 12.5898H4.16182C4.07238 12.5898 4 12.6816 4 12.7949C4 12.9083 4.07238 13 4.16182 13H4.8091C4.89854 13 4.97092 12.9083 4.97092 12.7949ZM4.97092 9.91016V9.08984C4.97092 8.97648 4.89854 8.88477 4.8091 8.88477H4.16182C4.07238 8.88477 4 8.97648 4 9.08984V9.91016C4 10.0235 4.07238 10.1152 4.16182 10.1152H4.8091C4.89854 10.1152 4.97092 10.0235 4.97092 9.91016ZM6.26548 11.9609V12.7812C6.26548 12.8946 6.33784 12.9863 6.4273 12.9863H7.07459C7.164 12.9863 7.23641 12.8946 7.23641 12.7812V11.9609C7.23641 11.8476 7.164 11.7559 7.07459 11.7559H6.4273C6.33784 11.7559 6.26548 11.8476 6.26548 11.9609ZM6.26548 6.21875V7.03906C6.26548 7.15243 6.33784 7.24414 6.4273 7.24414H7.07459C7.164 7.24414 7.23641 7.15243 7.23641 7.03906V6.21875C7.23641 6.10539 7.164 6.01367 7.07459 6.01367H6.4273C6.33784 6.01367 6.26548 6.10539 6.26548 6.21875Z" stroke="url(#paint3_linear_666_123)" stroke-width="0.6"/>
<defs>
<linearGradient id="paint0_linear_666_123" x1="7.84081" y1="19.1174" x2="7.84081" y2="1.51704" gradientUnits="userSpaceOnUse">
<stop stop-color="#FDA700"/>
<stop offset="1" stop-color="#FFDE00"/>
</linearGradient>
<linearGradient id="paint1_linear_666_123" x1="6.35723" y1="13" x2="6.35723" y2="6" gradientUnits="userSpaceOnUse">
<stop stop-color="#FDA700"/>
<stop offset="1" stop-color="#FFDE00"/>
</linearGradient>
<linearGradient id="paint2_linear_666_123" x1="6.35723" y1="13" x2="6.35723" y2="6" gradientUnits="userSpaceOnUse">
<stop stop-color="#FDA700"/>
<stop offset="1" stop-color="#FFDE00"/>
</linearGradient>
<linearGradient id="paint3_linear_666_123" x1="6.76172" y1="13" x2="6.76172" y2="6" gradientUnits="userSpaceOnUse">
<stop stop-color="#FDA700"/>
<stop offset="1" stop-color="#FFDE00"/>
</linearGradient>
</defs>
</svg>
