<svg width="16" height="16" viewBox="0 0 16 16" fill="none" xmlns="http://www.w3.org/2000/svg">
<path fill-rule="evenodd" clip-rule="evenodd" d="M8.49092 1.50673C8.27926 1.50084 8.00921 1.50003 7.6431 1.50003C6.65384 1.50003 5.95685 1.50061 5.41255 1.54494C4.87695 1.58856 4.55536 1.6708 4.30502 1.79788C3.78466 2.06203 3.36181 2.48488 3.09766 3.00524C2.97058 3.25558 2.88834 3.57718 2.84472 4.11277C2.80038 4.65707 2.79981 5.35406 2.79981 6.34332V9.53205C2.79981 10.5245 2.80039 11.2238 2.845 11.7698C2.88889 12.307 2.97165 12.6295 3.09954 12.8805C3.36319 13.398 3.78389 13.8187 4.30133 14.0823C4.55233 14.2102 4.87483 14.293 5.41209 14.3369C5.95809 14.3815 6.65734 14.382 7.64981 14.382H7.95542C8.94789 14.382 9.64713 14.3815 10.1931 14.3369C10.7304 14.293 11.0529 14.2102 11.3039 14.0823C11.8213 13.8187 12.242 13.398 12.5057 12.8805C12.6336 12.6295 12.7163 12.307 12.7602 11.7698C12.8048 11.2238 12.8054 10.5245 12.8054 9.53205V6.66513C12.8054 6.29804 12.8046 6.02722 12.7987 5.81494H12.4409H12.4105C11.8763 5.81495 11.4305 5.81496 11.0662 5.7852C10.6864 5.75416 10.3297 5.68705 9.99244 5.51521C9.475 5.25156 9.0543 4.83086 8.79065 4.31341C8.61881 3.97615 8.5517 3.6195 8.52066 3.23961C8.4909 2.87538 8.49091 2.42954 8.49092 1.89539V1.89538L8.49092 1.86494V1.50673ZM12.3727 4.31494C12.2144 4.07124 11.9802 3.83093 11.3849 3.23566L11.0678 2.91859C10.4735 2.32426 10.2341 2.09097 9.99092 1.93295C9.991 2.46806 9.99247 2.83346 10.0157 3.11746C10.0391 3.40459 10.081 3.54187 10.1272 3.63243C10.247 3.86763 10.4382 4.05886 10.6734 4.1787C10.764 4.22484 10.9013 4.26672 11.1884 4.29018C11.4724 4.31339 11.8377 4.31486 12.3727 4.31494ZM9.4992 0.116708C9.01034 -0.000268012 8.5001 -0.000155956 7.73273 1.25468e-05L7.6431 2.56002e-05L7.61059 2.5481e-05C6.66122 1.90437e-05 5.90313 1.38581e-05 5.29078 0.049887C4.66275 0.101038 4.12249 0.208339 3.62605 0.460349C2.82185 0.868585 2.16836 1.52207 1.76013 2.32627C1.50812 2.82271 1.40082 3.36297 1.34967 3.991C1.29979 4.60335 1.2998 5.36144 1.2998 6.31081V6.31082V6.34332V9.53205V9.56466C1.2998 10.5171 1.29979 11.2777 1.34998 11.8919C1.40145 12.5219 1.50944 13.0638 1.76303 13.5615C2.17049 14.3612 2.82066 15.0114 3.62035 15.4188C4.11804 15.6724 4.65993 15.7804 5.28994 15.8319C5.90421 15.8821 6.66477 15.8821 7.61723 15.882H7.64981H7.95542H7.988C8.94046 15.8821 9.70102 15.8821 10.3153 15.8319C10.9453 15.7804 11.4872 15.6724 11.9849 15.4188C12.7846 15.0114 13.4347 14.3612 13.8422 13.5615C14.0958 13.0638 14.2038 12.5219 14.2552 11.8919C14.3054 11.2777 14.3054 10.5171 14.3054 9.56468V9.53205V6.66513L14.3054 6.57521C14.3056 5.80538 14.3057 5.29349 14.188 4.80314C14.0839 4.36948 13.9122 3.95492 13.6791 3.57466C13.4157 3.14469 13.0536 2.78281 12.5092 2.23858L12.4456 2.175L12.1285 1.85793L12.0651 1.79455L12.0651 1.79454C11.5226 1.25181 11.1619 0.890937 10.7335 0.627977C10.3516 0.393547 9.93502 0.220992 9.4992 0.116708Z" fill="url(#paint0_linear_627_166)"/>
<path d="M6.57786 8.08723C6.652 8.02463 6.66994 7.91812 6.6246 7.83234C6.45183 7.50546 6.38272 7.25977 6.3661 7.07454C6.348 6.87478 6.3885 6.71571 6.46888 6.56293C6.55571 6.39758 6.6861 6.24406 6.85178 6.06242C6.97531 5.92734 7.12362 5.77179 7.25579 5.5986C7.31436 5.52186 7.30245 5.41437 7.23313 5.3472L7.04712 5.16697C6.95743 5.08007 6.8104 5.0956 6.7306 5.19167C6.63738 5.3039 6.53714 5.40815 6.43973 5.51457C6.2759 5.69398 6.08721 5.90743 5.95099 6.16711C5.80802 6.43901 5.72088 6.76306 5.75617 7.15481C5.78523 7.47587 5.89421 7.81809 6.08867 8.19426C6.14579 8.30477 6.29068 8.3297 6.38574 8.24944L6.57786 8.08723ZM7.08955 6.85813C7.15854 6.65779 7.28388 6.45699 7.47304 6.23773C7.55473 6.14305 7.7025 6.15466 7.77491 6.25661L7.93835 6.48672C7.9941 6.56522 7.98533 6.67184 7.92165 6.74407C7.75112 6.9375 7.68279 7.06408 7.65561 7.14261C7.6237 7.23509 7.64487 7.3272 7.66635 7.41894C7.69212 7.52844 7.73477 7.71118 7.73201 7.90798C7.72917 8.10955 7.68429 8.31994 7.58242 8.55309C7.5327 8.6669 7.38813 8.69494 7.29135 8.61709L7.09738 8.46108C7.02157 8.40011 7.00238 8.29407 7.04116 8.20485C7.10472 8.05862 7.11746 7.96157 7.11839 7.89577C7.11993 7.78665 7.0963 7.72561 7.05795 7.54065C7.02113 7.36382 6.99383 7.13484 7.08955 6.85813ZM5.48304 8.68495C5.36701 8.63299 5.36564 8.48648 5.48164 8.43446C5.51533 8.41936 5.54957 8.40576 5.58398 8.39328C5.68162 8.35787 5.74335 8.2592 5.72307 8.15732L5.65822 7.83147C5.63533 7.71646 5.51845 7.64486 5.40859 7.68589C5.24149 7.74829 5.09071 7.82436 4.96767 7.91612C4.8112 8.03302 4.61362 8.24128 4.61362 8.5609C4.61362 8.78225 4.7149 8.96691 4.84997 9.10369C4.90238 9.15678 4.93004 9.23047 4.92405 9.30482C4.92161 9.33517 4.92039 9.36566 4.92042 9.39619C4.92042 9.71384 5.01888 9.98803 5.19289 10.2036C5.2385 10.2601 5.25691 10.3344 5.24439 10.4059C5.23984 10.4319 5.23619 10.4583 5.23345 10.485C5.22368 10.5802 5.16071 10.6646 5.06879 10.6911C4.88713 10.7435 4.71322 10.8116 4.56238 10.8951C4.42984 10.9684 4.29914 11.062 4.19728 11.1826C4.0948 11.3043 4 11.48 4 11.7053C4 11.8632 4.05799 11.9908 4.11475 12.0789C4.17273 12.1684 4.24729 12.245 4.3246 12.3097C4.47985 12.4396 4.68786 12.5572 4.92564 12.656C5.40364 12.855 6.05132 13 6.76127 13C7.78202 13 8.49872 12.8579 8.96721 12.7107C9.14525 12.6562 9.31993 12.5868 9.49001 12.5032C9.55444 12.4706 9.61887 12.4362 9.67901 12.3933C9.67976 12.3928 9.66136 12.3547 9.63314 12.2975C9.60473 12.2399 8.87386 11.9752 8.81258 11.9945V11.9945C8.3987 12.1248 7.73477 12.2602 6.76127 12.2602C6.11575 12.2602 5.53619 12.1277 5.12598 11.9568C5.02189 11.9134 4.9148 11.8655 4.81482 11.8036C4.72216 11.7463 4.72276 11.6201 4.81826 11.5677V11.5677C4.96204 11.4881 5.15062 11.4206 5.35583 11.3736C5.4286 11.3569 5.50257 11.387 5.55454 11.4407C5.60592 11.4937 5.66282 11.5421 5.72457 11.5858C6.02063 11.7937 6.42777 11.8902 6.91467 11.8902C7.31659 11.8902 7.60744 11.8414 7.8038 11.7889C7.90856 11.7612 8.01389 11.7298 8.11112 11.6747C8.1194 11.67 8.122 11.6634 8.11848 11.6546C8.09525 11.5963 7.99629 11.3538 7.92606 11.1818C7.88609 11.084 7.77348 11.0394 7.67126 11.0664V11.0664C7.52123 11.1067 7.27548 11.1504 6.91467 11.1504C6.48115 11.1504 6.19797 11.0616 6.03383 10.9465C6.01634 10.9343 6.00029 10.9218 5.98559 10.9092C5.87517 10.8142 6.00047 10.6945 6.14331 10.723C6.33717 10.7616 6.55029 10.7804 6.7806 10.7804C7.22946 10.7804 7.55314 10.7276 7.77097 10.6706C7.8894 10.6399 8.00875 10.6044 8.11889 10.5426C8.12284 10.5402 8.01261 10.2635 7.93365 10.0669C7.89134 9.96158 7.76994 9.9149 7.65989 9.9428C7.65367 9.94438 7.64744 9.94591 7.64119 9.94738C7.46938 9.99214 7.18926 10.0406 6.78029 10.0406C6.28848 10.0406 5.96111 9.94294 5.76721 9.81014C5.74162 9.79258 5.71857 9.77465 5.69786 9.75637C5.58627 9.6579 5.70805 9.53209 5.85348 9.56369C6.17067 9.63259 6.53338 9.67067 6.91467 9.67067C7.3942 9.67067 7.84376 9.61046 8.21025 9.50462C8.30881 9.47616 8.36358 9.37367 8.3392 9.27403L8.26113 8.95506C8.23296 8.83996 8.11145 8.77463 7.9968 8.80458C7.69844 8.88254 7.32521 8.93082 6.91467 8.93082C6.38574 8.93082 5.91908 8.85092 5.59479 8.73033C5.5543 8.71539 5.51708 8.70019 5.48304 8.68495ZM8.76759 8.63059C8.77608 8.74337 8.87678 8.82365 8.98973 8.8294C9.20933 8.84058 9.30181 8.9185 9.33661 8.96338C9.38233 9.02257 9.39828 9.11431 9.37834 9.21123C9.34275 9.38287 9.24242 9.54934 9.07981 9.70249C8.96033 9.81496 8.81724 9.91019 8.66768 9.98582C8.57693 10.0317 8.52562 10.1335 8.5527 10.2315L8.63944 10.5454C8.67123 10.6605 8.79642 10.7228 8.90298 10.669C9.09425 10.5725 9.28711 10.4457 9.45719 10.2859C9.68729 10.0691 9.89408 9.77351 9.97354 9.39064C10.0303 9.1169 10.0079 8.7466 9.78516 8.45843C9.59277 8.20994 9.29873 8.08564 8.92055 8.08836C8.81275 8.08913 8.73402 8.18522 8.74212 8.29272L8.76759 8.63059Z" fill="url(#paint1_linear_627_166)" stroke="url(#paint2_linear_627_166)" stroke-width="0.2"/>
<defs>
<linearGradient id="paint0_linear_627_166" x1="-1.70151" y1="17.5537" x2="15.6812" y2="0.546234" gradientUnits="userSpaceOnUse">
<stop stop-color="#FD5900"/>
<stop offset="1" stop-color="#FFDE00"/>
</linearGradient>
<linearGradient id="paint1_linear_627_166" x1="2.61538" y1="13.842" x2="11.3209" y2="6.04096" gradientUnits="userSpaceOnUse">
<stop stop-color="#FD5900"/>
<stop offset="1" stop-color="#FFDE00"/>
</linearGradient>
<linearGradient id="paint2_linear_627_166" x1="2.61538" y1="13.842" x2="11.3209" y2="6.04096" gradientUnits="userSpaceOnUse">
<stop stop-color="#FD5900"/>
<stop offset="1" stop-color="#FFDE00"/>
</linearGradient>
</defs>
</svg>
