<svg width="16" height="16" viewBox="0 0 16 16" fill="none" xmlns="http://www.w3.org/2000/svg">
<path fill-rule="evenodd" clip-rule="evenodd" d="M7.6431 1.50003C8.00921 1.50003 8.27926 1.50084 8.49092 1.50673V1.86494L8.49092 1.89538V1.89539C8.49091 2.42954 8.4909 2.87538 8.52066 3.23961C8.5517 3.6195 8.61881 3.97615 8.79065 4.31341C9.0543 4.83086 9.475 5.25156 9.99244 5.51521C10.3297 5.68705 10.6864 5.75416 11.0662 5.7852C11.4305 5.81496 11.8763 5.81495 12.4105 5.81494H12.4409H12.7987C12.8046 6.02722 12.8054 6.29804 12.8054 6.66513V9.53205C12.8054 10.5245 12.8048 11.2238 12.7602 11.7698C12.7163 12.307 12.6336 12.6295 12.5057 12.8805C12.242 13.398 11.8213 13.8187 11.3039 14.0823C11.0529 14.2102 10.7304 14.293 10.1931 14.3369C9.64713 14.3815 8.94789 14.382 7.95542 14.382H7.64981C6.65734 14.382 5.95809 14.3815 5.41209 14.3369C4.87483 14.293 4.55233 14.2102 4.30133 14.0823C3.78389 13.8187 3.36319 13.398 3.09954 12.8805C2.97165 12.6295 2.88889 12.307 2.845 11.7698C2.80039 11.2238 2.79981 10.5245 2.79981 9.53205V6.34332C2.79981 5.35406 2.80038 4.65707 2.84472 4.11277C2.88834 3.57718 2.97058 3.25558 3.09766 3.00524C3.36181 2.48488 3.78466 2.06203 4.30502 1.79788C4.55536 1.6708 4.87695 1.58856 5.41255 1.54494C5.95685 1.50061 6.65384 1.50003 7.6431 1.50003ZM11.3849 3.23566C11.9802 3.83093 12.2144 4.07124 12.3727 4.31494C11.8377 4.31486 11.4724 4.31339 11.1884 4.29018C10.9013 4.26672 10.764 4.22484 10.6734 4.1787C10.4382 4.05886 10.247 3.86763 10.1272 3.63243C10.081 3.54187 10.0391 3.40459 10.0157 3.11746C9.99247 2.83346 9.991 2.46806 9.99092 1.93295C10.2341 2.09097 10.4735 2.32426 11.0678 2.91859L11.3849 3.23566ZM7.73273 1.25468e-05C8.5001 -0.000155956 9.01034 -0.000268012 9.4992 0.116708C9.93502 0.220992 10.3516 0.393547 10.7335 0.627977C11.1619 0.890937 11.5226 1.25181 12.0651 1.79454L12.0651 1.79455L12.1285 1.85793L12.4456 2.175L12.5092 2.23858C13.0536 2.78281 13.4157 3.14469 13.6791 3.57466C13.9122 3.95492 14.0839 4.36948 14.188 4.80314C14.3057 5.29349 14.3056 5.80538 14.3054 6.57521L14.3054 6.66513V9.53205V9.56468C14.3054 10.5171 14.3054 11.2777 14.2552 11.8919C14.2038 12.5219 14.0958 13.0638 13.8422 13.5615C13.4347 14.3612 12.7846 15.0114 11.9849 15.4188C11.4872 15.6724 10.9453 15.7804 10.3153 15.8319C9.70102 15.8821 8.94046 15.8821 7.988 15.882H7.95542H7.64981H7.61723C6.66477 15.8821 5.90421 15.8821 5.28994 15.8319C4.65993 15.7804 4.11804 15.6724 3.62035 15.4188C2.82066 15.0114 2.17049 14.3612 1.76303 13.5615C1.50944 13.0638 1.40145 12.5219 1.34998 11.8919C1.29979 11.2777 1.2998 10.5171 1.2998 9.56466V9.53205V6.34332V6.31082V6.31081C1.2998 5.36144 1.29979 4.60335 1.34967 3.991C1.40082 3.36297 1.50812 2.82271 1.76013 2.32627C2.16836 1.52207 2.82185 0.868585 3.62605 0.460349C4.12249 0.208339 4.66275 0.101038 5.29078 0.049887C5.90313 1.38581e-05 6.66122 1.90437e-05 7.61059 2.5481e-05L7.6431 2.56002e-05L7.73273 1.25468e-05ZM6.1001 6.2C6.1001 6.08954 6.18964 6 6.3001 6H6.6001H7.4001C7.51055 6 7.6001 6.08954 7.6001 6.2V6.8C7.6001 6.91046 7.51055 7 7.4001 7H6.8001C6.68964 7 6.6001 7.08954 6.6001 7.2V9.5C6.6001 9.89781 6.44207 10.2793 6.16075 10.5607C5.87944 10.842 5.49791 11 5.1001 11C4.70228 11 4.32075 10.842 4.03944 10.5607C3.75813 10.2793 3.6001 9.89781 3.6001 9.5C3.6001 9.10219 3.75813 8.72066 4.03944 8.43934C4.32075 8.15803 4.70228 8 5.1001 8C5.31837 8.0003 5.53204 8.04818 5.72703 8.13823C5.88411 8.21078 6.1001 8.10853 6.1001 7.9355V6.2ZM9.82426 11.9757C9.93679 12.0883 10 12.2409 10 12.4C10 12.5591 9.93679 12.7117 9.82426 12.8243C9.71173 12.9368 9.55912 13 9.39999 13H4.59999C4.44087 13 4.28826 12.9368 4.17574 12.8243C4.06323 12.7117 4 12.5591 4 12.4C4 12.2409 4.06323 12.0883 4.17574 11.9757C4.28826 11.8632 4.44087 11.8 4.59999 11.8H9.39999C9.55912 11.8 9.71173 11.8632 9.82426 11.9757ZM10 9.29999C10 9.14087 9.93679 8.98826 9.82426 8.87574C9.71173 8.76323 9.55912 8.7 9.39999 8.7H7.92429C7.76516 8.7 7.61255 8.76323 7.50003 8.87574C7.38752 8.98826 7.32429 9.14087 7.32429 9.29999C7.32429 9.45913 7.38752 9.61174 7.50003 9.72427C7.61255 9.83679 7.76516 9.9 7.92429 9.9H9.39999C9.55912 9.9 9.71173 9.83679 9.82426 9.72427C9.93679 9.61174 10 9.45913 10 9.29999Z" fill="url(#paint0_linear_627_114)"/>
<defs>
<linearGradient id="paint0_linear_627_114" x1="1.2998" y1="7.94102" x2="14.3054" y2="7.94102" gradientUnits="userSpaceOnUse">
<stop stop-color="#FFC152"/>
<stop offset="1" stop-color="#FF5F5F"/>
</linearGradient>
</defs>
</svg>
