<svg width="16" height="16" viewBox="0 0 16 16" fill="none" xmlns="http://www.w3.org/2000/svg">
<path fill-rule="evenodd" clip-rule="evenodd" d="M8.49092 1.50673C8.27926 1.50084 8.00921 1.50003 7.6431 1.50003C6.65384 1.50003 5.95685 1.50061 5.41255 1.54494C4.87695 1.58856 4.55536 1.6708 4.30502 1.79788C3.78466 2.06203 3.36181 2.48488 3.09766 3.00524C2.97058 3.25558 2.88834 3.57718 2.84472 4.11277C2.80038 4.65707 2.7998 5.35406 2.7998 6.34332V9.53205C2.7998 10.5245 2.80039 11.2238 2.845 11.7698C2.88889 12.307 2.97165 12.6295 3.09954 12.8805C3.36319 13.398 3.78389 13.8187 4.30133 14.0823C4.55233 14.2102 4.87483 14.293 5.41209 14.3369C5.95809 14.3815 6.65734 14.382 7.64981 14.382H7.95542C8.94789 14.382 9.64713 14.3815 10.1931 14.3369C10.7304 14.293 11.0529 14.2102 11.3039 14.0823C11.8213 13.8187 12.242 13.398 12.5057 12.8805C12.6336 12.6295 12.7163 12.307 12.7602 11.7698C12.8048 11.2238 12.8054 10.5245 12.8054 9.53205V6.66513C12.8054 6.29804 12.8046 6.02722 12.7987 5.81494H12.4409H12.4105C11.8763 5.81495 11.4305 5.81496 11.0662 5.7852C10.6864 5.75416 10.3297 5.68705 9.99244 5.51521C9.475 5.25156 9.0543 4.83086 8.79065 4.31341C8.61881 3.97615 8.5517 3.6195 8.52066 3.23961C8.4909 2.87538 8.49091 2.42954 8.49092 1.89539V1.89538L8.49092 1.86494V1.50673ZM12.3727 4.31494C12.2144 4.07124 11.9802 3.83093 11.3849 3.23566L11.0678 2.91859C10.4735 2.32426 10.2341 2.09097 9.99092 1.93295C9.991 2.46806 9.99247 2.83346 10.0157 3.11746C10.0391 3.40459 10.081 3.54187 10.1272 3.63243C10.247 3.86763 10.4382 4.05886 10.6734 4.1787C10.764 4.22484 10.9013 4.26672 11.1884 4.29018C11.4724 4.31339 11.8377 4.31486 12.3727 4.31494ZM9.4992 0.116708C9.01034 -0.000267982 8.5001 -0.000155926 7.73273 1.25766e-05L7.6431 2.563e-05L7.61059 2.55108e-05C6.66122 1.90735e-05 5.90313 1.38879e-05 5.29078 0.0498871C4.66275 0.101038 4.12249 0.208339 3.62605 0.460349C2.82185 0.868585 2.16836 1.52207 1.76013 2.32627C1.50812 2.82271 1.40082 3.36297 1.34967 3.991C1.29979 4.60335 1.2998 5.36144 1.2998 6.31081V6.31082V6.34332V9.53205V9.56466C1.2998 10.5171 1.29979 11.2777 1.34998 11.8919C1.40145 12.5219 1.50944 13.0638 1.76303 13.5615C2.17049 14.3612 2.82066 15.0114 3.62035 15.4188C4.11804 15.6724 4.65992 15.7804 5.28994 15.8319C5.90421 15.8821 6.66477 15.8821 7.61723 15.882H7.64981H7.95542H7.988C8.94046 15.8821 9.70102 15.8821 10.3153 15.8319C10.9453 15.7804 11.4872 15.6724 11.9849 15.4188C12.7846 15.0114 13.4347 14.3612 13.8422 13.5615C14.0958 13.0638 14.2038 12.5219 14.2552 11.8919C14.3054 11.2777 14.3054 10.5171 14.3054 9.56468V9.53205V6.66513L14.3054 6.57521C14.3056 5.80538 14.3057 5.29349 14.188 4.80314C14.0839 4.36948 13.9122 3.95492 13.6791 3.57466C13.4157 3.14469 13.0536 2.78281 12.5092 2.23858L12.4456 2.175L12.1285 1.85793L12.0651 1.79455L12.0651 1.79454C11.5226 1.25181 11.1619 0.890937 10.7335 0.627977C10.3516 0.393547 9.93502 0.220992 9.4992 0.116708Z" fill="url(#paint0_linear_626_165)"/>
<path d="M6.76616 7.91038C6.72497 7.78802 6.6103 7.70564 6.48126 7.70564H5.22782C5.09841 7.70564 4.98353 7.78844 4.9426 7.91122L4.7591 8.4617C4.71818 8.58449 4.60329 8.66728 4.47388 8.66728H4.10072C3.89111 8.66728 3.74584 8.45822 3.81896 8.26177L5.33254 4.19578C5.37635 4.07811 5.48871 4 5.6143 4H6.08808C6.21345 4 6.32571 4.07781 6.36966 4.19524L7.89159 8.26123C7.96513 8.45779 7.81986 8.66728 7.61001 8.66728H7.23703C7.10793 8.66728 6.99326 8.58491 6.95208 8.4626L6.76616 7.91038ZM5.4021 6.53126C5.33746 6.7259 5.48235 6.92667 5.68742 6.92667H6.01953C6.22499 6.92667 6.36991 6.72511 6.30448 6.53036L6.13757 6.03315C6.04563 5.75938 5.65824 5.76004 5.56723 6.03405L5.4021 6.53126Z" fill="url(#paint1_linear_626_165)"/>
<path d="M6.76616 7.91038C6.72497 7.78802 6.6103 7.70564 6.48126 7.70564H5.22782C5.09841 7.70564 4.98353 7.78844 4.9426 7.91122L4.7591 8.4617C4.71818 8.58449 4.60329 8.66728 4.47388 8.66728H4.10072C3.89111 8.66728 3.74584 8.45822 3.81896 8.26177L5.33254 4.19578C5.37635 4.07811 5.48871 4 5.6143 4H6.08808C6.21345 4 6.32571 4.07781 6.36966 4.19524L7.89159 8.26123C7.96513 8.45779 7.81986 8.66728 7.61001 8.66728H7.23703C7.10793 8.66728 6.99326 8.58491 6.95208 8.4626L6.76616 7.91038ZM5.4021 6.53126C5.33746 6.7259 5.48235 6.92667 5.68742 6.92667H6.01953C6.22499 6.92667 6.36991 6.72511 6.30448 6.53036L6.13757 6.03315C6.04563 5.75938 5.65824 5.76004 5.56723 6.03405L5.4021 6.53126Z" fill="url(#paint2_linear_626_165)"/>
<path d="M6.76616 7.91038C6.72497 7.78802 6.6103 7.70564 6.48126 7.70564H5.22782C5.09841 7.70564 4.98353 7.78844 4.9426 7.91122L4.7591 8.4617C4.71818 8.58449 4.60329 8.66728 4.47388 8.66728H4.10072C3.89111 8.66728 3.74584 8.45822 3.81896 8.26177L5.33254 4.19578C5.37635 4.07811 5.48871 4 5.6143 4H6.08808C6.21345 4 6.32571 4.07781 6.36966 4.19524L7.89159 8.26123C7.96513 8.45779 7.81986 8.66728 7.61001 8.66728H7.23703C7.10793 8.66728 6.99326 8.58491 6.95208 8.4626L6.76616 7.91038ZM5.4021 6.53126C5.33746 6.7259 5.48235 6.92667 5.68742 6.92667H6.01953C6.22499 6.92667 6.36991 6.72511 6.30448 6.53036L6.13757 6.03315C6.04563 5.75938 5.65824 5.76004 5.56723 6.03405L5.4021 6.53126Z" stroke="url(#paint3_linear_626_165)" stroke-width="0.2"/>
<path d="M6.4528 12.9358C6.40789 12.9358 6.36946 12.9183 6.35263 12.8766C6.31469 12.783 6.18144 12.7349 6.09924 12.7937C5.90707 12.9312 5.6778 12.9999 5.41155 12.9999C5.07176 12.9999 4.78969 12.9017 4.56529 12.7051C4.34305 12.5084 4.23193 12.2605 4.23193 11.9614C4.23193 11.5938 4.36765 11.3117 4.63901 11.1151C4.91254 10.9185 5.30686 10.8191 5.82187 10.817H6.04946C6.15925 10.817 6.24818 10.728 6.24818 10.6182C6.24818 10.458 6.20651 10.3297 6.12318 10.2336C6.042 10.1374 5.91272 10.0893 5.73534 10.0893C5.57931 10.0893 5.45646 10.1267 5.36669 10.2015C5.35497 10.2115 5.34408 10.222 5.33392 10.233C5.2213 10.3549 5.10068 10.5093 4.9346 10.5093H4.60948C4.44347 10.5093 4.30361 10.3711 4.35712 10.2139C4.38809 10.1228 4.43397 10.0353 4.49476 9.95152C4.61874 9.78051 4.79396 9.64696 5.02047 9.55082C5.24703 9.45251 5.50132 9.40332 5.78339 9.40332C6.21078 9.40332 6.54955 9.51125 6.79957 9.72712C7.05175 9.94081 7.17784 10.2421 7.17784 10.6311V12.1344C7.17988 12.4574 7.2242 12.7031 7.31067 12.8717C7.31391 12.8781 7.31566 12.8851 7.31566 12.8923C7.31566 12.9163 7.29611 12.9358 7.27206 12.9358H6.4528ZM5.61352 12.2916C5.75025 12.2916 5.87635 12.2616 5.99179 12.2018C6.08193 12.1534 6.15384 12.0925 6.20748 12.0193C6.23706 11.979 6.24818 11.9287 6.24818 11.8788V11.6594C6.24818 11.4933 6.11361 11.3587 5.94754 11.3587H5.90202C5.43825 11.3587 5.19147 11.519 5.16153 11.8396L5.15834 11.8941C5.15834 12.0094 5.19893 12.1046 5.28011 12.1794C5.36134 12.2542 5.47246 12.2916 5.61352 12.2916Z" fill="url(#paint4_linear_626_165)" stroke="url(#paint5_linear_626_165)" stroke-width="0.2"/>
<defs>
<linearGradient id="paint0_linear_626_165" x1="13.3029" y1="0.285897" x2="-0.979386" y2="12.4076" gradientUnits="userSpaceOnUse">
<stop stop-color="#00E4FE"/>
<stop offset="1" stop-color="#1550F2"/>
</linearGradient>
<linearGradient id="paint1_linear_626_165" x1="7.51627" y1="8.73138" x2="7.51627" y2="4" gradientUnits="userSpaceOnUse">
<stop stop-color="#5558FF"/>
<stop offset="1" stop-color="#00C0FF"/>
</linearGradient>
<linearGradient id="paint2_linear_626_165" x1="2.78054" y1="8.66728" x2="2.78054" y2="2.52744" gradientUnits="userSpaceOnUse">
<stop stop-color="#5558FF"/>
<stop offset="1" stop-color="#00C0FF"/>
</linearGradient>
<linearGradient id="paint3_linear_626_165" x1="2.78054" y1="8.66728" x2="2.78054" y2="2.52744" gradientUnits="userSpaceOnUse">
<stop stop-color="#5558FF"/>
<stop offset="1" stop-color="#00C0FF"/>
</linearGradient>
<linearGradient id="paint4_linear_626_165" x1="3.46739" y1="12.9999" x2="3.46739" y2="8.26856" gradientUnits="userSpaceOnUse">
<stop stop-color="#5558FF"/>
<stop offset="1" stop-color="#00C0FF"/>
</linearGradient>
<linearGradient id="paint5_linear_626_165" x1="3.46739" y1="12.9999" x2="3.46739" y2="8.26856" gradientUnits="userSpaceOnUse">
<stop stop-color="#5558FF"/>
<stop offset="1" stop-color="#00C0FF"/>
</linearGradient>
</defs>
</svg>
