<svg width="16" height="16" viewBox="0 0 16 16" fill="none" xmlns="http://www.w3.org/2000/svg">
<path d="M5.375 6.5C5.99632 6.5 6.5 5.99632 6.5 5.375C6.5 4.75368 5.99632 4.25 5.375 4.25C4.75368 4.25 4.25 4.75368 4.25 5.375C4.25 5.99632 4.75368 6.5 5.375 6.5Z" fill="url(#paint0_linear_497_396)"/>
<path fill-rule="evenodd" clip-rule="evenodd" d="M7.25412 0.5H8.74588C9.78538 0.499994 10.6121 0.499989 11.2787 0.555348C11.9614 0.612044 12.5431 0.730662 13.0744 1.00664C13.8963 1.43358 14.5664 2.10372 14.9934 2.92562C15.2693 3.4569 15.388 4.03858 15.4447 4.72129C15.5 5.3879 15.5 6.21459 15.5 7.25408V8.74586C15.5 9.23301 15.5 9.67355 15.4943 10.0727C15.4936 10.1231 15.4978 10.1735 15.4996 10.224C15.5005 10.2514 15.4999 10.2789 15.4979 10.3063C15.4941 10.3565 15.4879 10.4066 15.4865 10.4569C15.4784 10.7553 15.4654 11.0283 15.4447 11.2787C15.388 11.9614 15.2693 12.5431 14.9934 13.0744C14.5664 13.8963 13.8963 14.5664 13.0744 14.9934C12.5431 15.2693 11.9614 15.388 11.2787 15.4447C10.6121 15.5 9.78541 15.5 8.74592 15.5H7.25414C6.21466 15.5 5.3879 15.5 4.7213 15.4447C4.03858 15.388 3.4569 15.2693 2.92562 14.9934C2.32907 14.6835 1.81247 14.2455 1.41078 13.7143C1.40317 13.7047 1.39583 13.6949 1.38875 13.6849C1.24592 13.4928 1.118 13.2888 1.00664 13.0744C0.730662 12.5431 0.612044 11.9614 0.555348 11.2787C0.499989 10.6121 0.499994 9.78539 0.5 8.74589V7.25412C0.499994 6.21462 0.499989 5.38791 0.555348 4.72129C0.612044 4.03858 0.730662 3.4569 1.00664 2.92562C1.43358 2.10372 2.10372 1.43358 2.92562 1.00664C3.4569 0.730662 4.03858 0.612044 4.7213 0.555348C5.38791 0.499989 6.21462 0.499994 7.25412 0.5ZM14 7.2875V7.2875C14 7.68456 13.5161 7.87906 13.2413 7.59243L12.9598 7.29875C12.3671 6.68053 11.378 6.68315 10.7886 7.3045L8.06519 10.1758C7.65223 10.6111 6.9515 10.5873 6.56906 10.1249L6.13653 9.60193C5.51994 8.85642 4.3693 8.88096 3.78506 9.65207L2.54858 11.284C2.38909 11.4945 2.07206 11.4178 2.0502 11.1546V11.1546C2.0006 10.5573 2 9.79288 2 8.7125V7.2875C2 6.20712 2.0006 5.44269 2.0502 4.84544C2.09906 4.25716 2.19154 3.89857 2.33776 3.61708C2.62239 3.06915 3.06915 2.62239 3.61708 2.33776C3.89857 2.19154 4.25716 2.09906 4.84544 2.0502C5.44269 2.0006 6.20712 2 7.2875 2H8.7125C9.79288 2 10.5573 2.0006 11.1546 2.0502C11.7428 2.09906 12.1014 2.19154 12.3829 2.33776C12.9309 2.62239 13.3776 3.06915 13.6622 3.61708C13.8085 3.89857 13.9009 4.25716 13.9498 4.84544C13.9994 5.44269 14 6.20712 14 7.2875ZM3.61708 13.6622V13.6622C3.2193 13.4556 3.17806 12.9371 3.44876 12.5798L4.21793 11.5646C4.60743 11.0505 5.37452 11.0342 5.78558 11.5312L6.13254 11.9507C6.7062 12.6443 7.75729 12.68 8.37672 12.027L11.1552 9.09764C11.5482 8.68341 12.2076 8.68166 12.6027 9.0938L13.6923 10.2304C13.8786 10.4248 13.981 10.6862 13.9642 10.9549C13.9599 11.0236 13.9552 11.09 13.9498 11.1546C13.9009 11.7428 13.8085 12.1014 13.6622 12.3829C13.3776 12.9309 12.9309 13.3776 12.3829 13.6622C12.1014 13.8085 11.7428 13.9009 11.1546 13.9498C10.5573 13.9994 9.79288 14 8.7125 14H7.2875C6.20712 14 5.44269 13.9994 4.84544 13.9498C4.25716 13.9009 3.89857 13.8085 3.61708 13.6622Z" fill="url(#paint1_linear_497_396)"/>
<path d="M5.375 6.5C5.99632 6.5 6.5 5.99632 6.5 5.375C6.5 4.75368 5.99632 4.25 5.375 4.25C4.75368 4.25 4.25 4.75368 4.25 5.375C4.25 5.99632 4.75368 6.5 5.375 6.5Z" stroke="url(#paint2_linear_497_396)" stroke-width="0.3"/>
<path fill-rule="evenodd" clip-rule="evenodd" d="M7.25412 0.5H8.74588C9.78538 0.499994 10.6121 0.499989 11.2787 0.555348C11.9614 0.612044 12.5431 0.730662 13.0744 1.00664C13.8963 1.43358 14.5664 2.10372 14.9934 2.92562C15.2693 3.4569 15.388 4.03858 15.4447 4.72129C15.5 5.3879 15.5 6.21459 15.5 7.25408V8.74586C15.5 9.23301 15.5 9.67355 15.4943 10.0727C15.4936 10.1231 15.4978 10.1735 15.4996 10.224C15.5005 10.2514 15.4999 10.2789 15.4979 10.3063C15.4941 10.3565 15.4879 10.4066 15.4865 10.4569C15.4784 10.7553 15.4654 11.0283 15.4447 11.2787C15.388 11.9614 15.2693 12.5431 14.9934 13.0744C14.5664 13.8963 13.8963 14.5664 13.0744 14.9934C12.5431 15.2693 11.9614 15.388 11.2787 15.4447C10.6121 15.5 9.78541 15.5 8.74592 15.5H7.25414C6.21466 15.5 5.3879 15.5 4.7213 15.4447C4.03858 15.388 3.4569 15.2693 2.92562 14.9934C2.32907 14.6835 1.81247 14.2455 1.41078 13.7143C1.40317 13.7047 1.39583 13.6949 1.38875 13.6849C1.24592 13.4928 1.118 13.2888 1.00664 13.0744C0.730662 12.5431 0.612044 11.9614 0.555348 11.2787C0.499989 10.6121 0.499994 9.78539 0.5 8.74589V7.25412C0.499994 6.21462 0.499989 5.38791 0.555348 4.72129C0.612044 4.03858 0.730662 3.4569 1.00664 2.92562C1.43358 2.10372 2.10372 1.43358 2.92562 1.00664C3.4569 0.730662 4.03858 0.612044 4.7213 0.555348C5.38791 0.499989 6.21462 0.499994 7.25412 0.5ZM14 7.2875V7.2875C14 7.68456 13.5161 7.87906 13.2413 7.59243L12.9598 7.29875C12.3671 6.68053 11.378 6.68315 10.7886 7.3045L8.06519 10.1758C7.65223 10.6111 6.9515 10.5873 6.56906 10.1249L6.13653 9.60193C5.51994 8.85642 4.3693 8.88096 3.78506 9.65207L2.54858 11.284C2.38909 11.4945 2.07206 11.4178 2.0502 11.1546V11.1546C2.0006 10.5573 2 9.79288 2 8.7125V7.2875C2 6.20712 2.0006 5.44269 2.0502 4.84544C2.09906 4.25716 2.19154 3.89857 2.33776 3.61708C2.62239 3.06915 3.06915 2.62239 3.61708 2.33776C3.89857 2.19154 4.25716 2.09906 4.84544 2.0502C5.44269 2.0006 6.20712 2 7.2875 2H8.7125C9.79288 2 10.5573 2.0006 11.1546 2.0502C11.7428 2.09906 12.1014 2.19154 12.3829 2.33776C12.9309 2.62239 13.3776 3.06915 13.6622 3.61708C13.8085 3.89857 13.9009 4.25716 13.9498 4.84544C13.9994 5.44269 14 6.20712 14 7.2875ZM3.61708 13.6622V13.6622C3.2193 13.4556 3.17806 12.9371 3.44876 12.5798L4.21793 11.5646C4.60743 11.0505 5.37452 11.0342 5.78558 11.5312L6.13254 11.9507C6.7062 12.6443 7.75729 12.68 8.37672 12.027L11.1552 9.09764C11.5482 8.68341 12.2076 8.68166 12.6027 9.0938L13.6923 10.2304C13.8786 10.4248 13.981 10.6862 13.9642 10.9549C13.9599 11.0236 13.9552 11.09 13.9498 11.1546C13.9009 11.7428 13.8085 12.1014 13.6622 12.3829C13.3776 12.9309 12.9309 13.3776 12.3829 13.6622C12.1014 13.8085 11.7428 13.9009 11.1546 13.9498C10.5573 13.9994 9.79288 14 8.7125 14H7.2875C6.20712 14 5.44269 13.9994 4.84544 13.9498C4.25716 13.9009 3.89857 13.8085 3.61708 13.6622Z" stroke="url(#paint3_linear_497_396)" stroke-width="0.3"/>
<defs>
<linearGradient id="paint0_linear_497_396" x1="1.4375" y1="15.5" x2="16.0089" y2="4.57143" gradientUnits="userSpaceOnUse">
<stop stop-color="#9BE862"/>
<stop offset="1" stop-color="#C8FF9F"/>
</linearGradient>
<linearGradient id="paint1_linear_497_396" x1="1.4375" y1="15.5" x2="16.0089" y2="4.57143" gradientUnits="userSpaceOnUse">
<stop stop-color="#9BE862"/>
<stop offset="1" stop-color="#C8FF9F"/>
</linearGradient>
<linearGradient id="paint2_linear_497_396" x1="1.4375" y1="15.5" x2="16.0089" y2="4.57143" gradientUnits="userSpaceOnUse">
<stop stop-color="#9BE862"/>
<stop offset="1" stop-color="#C8FF9F"/>
</linearGradient>
<linearGradient id="paint3_linear_497_396" x1="1.4375" y1="15.5" x2="16.0089" y2="4.57143" gradientUnits="userSpaceOnUse">
<stop stop-color="#9BE862"/>
<stop offset="1" stop-color="#C8FF9F"/>
</linearGradient>
</defs>
</svg>
