<svg width="16" height="16" viewBox="0 0 16 16" fill="none" xmlns="http://www.w3.org/2000/svg">
<path fill-rule="evenodd" clip-rule="evenodd" d="M1.84694 1.84694C2.8483 0.845575 4.31123 0.5 6.06667 0.5H10.0667C11.8221 0.5 13.285 0.845575 14.2864 1.84694C15.2878 2.8483 15.6333 4.31123 15.6333 6.06667V10.0667C15.6333 11.8221 15.2878 13.285 14.2864 14.2864C13.285 15.2878 11.8221 15.6333 10.0667 15.6333H6.06667C4.31123 15.6333 2.8483 15.2878 1.84694 14.2864C0.845575 13.285 0.5 11.8221 0.5 10.0667V6.06667C0.5 4.31123 0.845575 2.8483 1.84694 1.84694ZM3.11973 3.11973C2.62109 3.61837 2.3 4.48877 2.3 6.06667V10.0667C2.3 11.6446 2.62109 12.515 3.11973 13.0136C3.61837 13.5122 4.48877 13.8333 6.06667 13.8333H10.0667C11.6446 13.8333 12.515 13.5122 13.0136 13.0136C13.5122 12.515 13.8333 11.6446 13.8333 10.0667V6.06667C13.8333 4.48877 13.5122 3.61837 13.0136 3.11973C12.636 2.74211 12.0452 2.46632 11.0953 2.35469C10.9789 2.341 10.8782 2.43341 10.8782 2.55068V6C10.8782 6.33192 10.6955 6.63689 10.4029 6.79351C10.1102 6.95012 9.75513 6.93296 9.47896 6.74885L8.35003 5.99623C8.28285 5.95144 8.19533 5.95144 8.12815 5.99623L6.99923 6.74885C6.72306 6.93296 6.36797 6.95012 6.07533 6.79351C5.78269 6.63689 5.6 6.33192 5.6 6V2.51935C5.6 2.40535 5.50457 2.31416 5.39085 2.32204C4.23111 2.40242 3.54207 2.69739 3.11973 3.11973ZM7.4 2.5C7.4 2.38954 7.48954 2.3 7.6 2.3H8.87819C8.98864 2.3 9.07819 2.38954 9.07819 2.5V3.94463C9.07819 4.10437 8.90016 4.19965 8.76725 4.11104L8.73832 4.09176C8.43601 3.89022 8.04217 3.89022 7.73986 4.09176L7.71094 4.11104C7.57803 4.19965 7.4 4.10437 7.4 3.94463V2.5ZM4.3999 8.6C3.90285 8.6 3.4999 9.00294 3.4999 9.5C3.4999 9.99706 3.90285 10.4 4.3999 10.4H6.8374C7.33446 10.4 7.7374 9.99706 7.7374 9.5C7.7374 9.00294 7.33446 8.6 6.8374 8.6H4.3999ZM4.3999 11.0375C3.90285 11.0375 3.4999 11.4404 3.4999 11.9375C3.4999 12.4346 3.90285 12.8375 4.3999 12.8375H9.2749C9.77196 12.8375 10.1749 12.4346 10.1749 11.9375C10.1749 11.4404 9.77196 11.0375 9.2749 11.0375H4.3999Z" fill="url(#paint0_linear_636_138)"/>
<defs>
<linearGradient id="paint0_linear_636_138" x1="2.71624" y1="13.4171" x2="13.4171" y2="2.71624" gradientUnits="userSpaceOnUse">
<stop stop-color="#0072FF"/>
<stop offset="1" stop-color="#00E5A1"/>
</linearGradient>
</defs>
</svg>
