<svg width="16" height="16" viewBox="0 0 16 16" fill="none" xmlns="http://www.w3.org/2000/svg">
<path fill-rule="evenodd" clip-rule="evenodd" d="M8.49092 1.50673C8.27926 1.50084 8.00921 1.50003 7.6431 1.50003C6.65384 1.50003 5.95685 1.50061 5.41255 1.54494C4.87695 1.58856 4.55536 1.6708 4.30502 1.79788C3.78466 2.06203 3.36181 2.48488 3.09766 3.00524C2.97058 3.25558 2.88834 3.57718 2.84472 4.11277C2.80038 4.65707 2.79981 5.35406 2.79981 6.34332V9.53205C2.79981 10.5245 2.80039 11.2238 2.845 11.7698C2.88889 12.307 2.97165 12.6295 3.09954 12.8805C3.36319 13.398 3.78389 13.8187 4.30133 14.0823C4.55233 14.2102 4.87483 14.293 5.41209 14.3369C5.95809 14.3815 6.65734 14.382 7.64981 14.382H7.95542C8.94789 14.382 9.64713 14.3815 10.1931 14.3369C10.7304 14.293 11.0529 14.2102 11.3039 14.0823C11.8213 13.8187 12.242 13.398 12.5057 12.8805C12.6336 12.6295 12.7163 12.307 12.7602 11.7698C12.8048 11.2238 12.8054 10.5245 12.8054 9.53205V6.66513C12.8054 6.29804 12.8046 6.02722 12.7987 5.81494H12.4409H12.4105C11.8763 5.81495 11.4305 5.81496 11.0662 5.7852C10.6864 5.75416 10.3297 5.68705 9.99244 5.51521C9.475 5.25156 9.0543 4.83086 8.79065 4.31341C8.61881 3.97615 8.5517 3.6195 8.52066 3.23961C8.4909 2.87538 8.49091 2.42954 8.49092 1.89539V1.89538L8.49092 1.86494V1.50673ZM12.3727 4.31494C12.2144 4.07124 11.9802 3.83093 11.3849 3.23566L11.0678 2.91859C10.4735 2.32426 10.2341 2.09097 9.99092 1.93295C9.991 2.46806 9.99247 2.83346 10.0157 3.11746C10.0391 3.40459 10.081 3.54187 10.1272 3.63243C10.247 3.86763 10.4382 4.05886 10.6734 4.1787C10.764 4.22484 10.9013 4.26672 11.1884 4.29018C11.4724 4.31339 11.8377 4.31486 12.3727 4.31494ZM9.4992 0.116708C9.01034 -0.000268012 8.5001 -0.000155956 7.73273 1.25468e-05L7.6431 2.56002e-05L7.61059 2.5481e-05C6.66122 1.90437e-05 5.90313 1.38581e-05 5.29078 0.049887C4.66275 0.101038 4.12249 0.208339 3.62605 0.460349C2.82185 0.868585 2.16836 1.52207 1.76013 2.32627C1.50812 2.82271 1.40082 3.36297 1.34967 3.991C1.29979 4.60335 1.2998 5.36144 1.2998 6.31081V6.31082V6.34332V9.53205V9.56466C1.2998 10.5171 1.29979 11.2777 1.34998 11.8919C1.40145 12.5219 1.50944 13.0638 1.76303 13.5615C2.17049 14.3612 2.82066 15.0114 3.62035 15.4188C4.11804 15.6724 4.65993 15.7804 5.28994 15.8319C5.90421 15.8821 6.66477 15.8821 7.61723 15.882H7.64981H7.95542H7.988C8.94046 15.8821 9.70102 15.8821 10.3153 15.8319C10.9453 15.7804 11.4872 15.6724 11.9849 15.4188C12.7846 15.0114 13.4347 14.3612 13.8422 13.5615C14.0958 13.0638 14.2038 12.5219 14.2552 11.8919C14.3054 11.2777 14.3054 10.5171 14.3054 9.56468V9.53205V6.66513L14.3054 6.57521C14.3056 5.80538 14.3057 5.29349 14.188 4.80314C14.0839 4.36948 13.9122 3.95492 13.6791 3.57466C13.4157 3.14469 13.0536 2.78281 12.5092 2.23858L12.4456 2.175L12.1285 1.85793L12.0651 1.79455L12.0651 1.79454C11.5226 1.25181 11.1619 0.890937 10.7335 0.627977C10.3516 0.393547 9.93502 0.220992 9.4992 0.116708ZM6.25319 11.2859C6.41953 11.4522 6.51297 11.6778 6.51297 11.913C6.51297 12.1482 6.41953 12.3738 6.25319 12.5402C6.08685 12.7065 5.86125 12.7999 5.62603 12.7999H4.48702C4.2518 12.7999 4.0262 12.7065 3.85988 12.5402C3.69356 12.3738 3.6001 12.1482 3.6001 11.913C3.6001 11.6778 3.69356 11.4522 3.85988 11.2859C4.0262 11.1195 4.2518 11.0261 4.48702 11.0261H5.62603C5.86125 11.0261 6.08685 11.1195 6.25319 11.2859ZM9.91288 11.887C9.91288 11.6518 9.81944 11.4262 9.65309 11.2599C9.48675 11.0936 9.26115 11.0001 9.02593 11.0001H7.88692C7.6517 11.0001 7.4261 11.0936 7.25978 11.2599C7.09346 11.4262 7 11.6518 7 11.887C7 12.1223 7.09346 12.3479 7.25978 12.5142C7.4261 12.6806 7.6517 12.774 7.88692 12.774H9.02593C9.26115 12.774 9.48675 12.6806 9.65309 12.5142C9.81944 12.3479 9.91288 12.1223 9.91288 11.887Z" fill="url(#paint0_linear_626_149)"/>
<path d="M7.58002 9.34445C7.52716 9.17853 7.37303 9.06586 7.19889 9.06586H6.10063C5.92599 9.06586 5.77154 9.17916 5.71909 9.34574L5.60123 9.72012C5.54879 9.8867 5.39433 10 5.21969 10H4.77681C4.49769 10 4.30439 9.72135 4.40215 9.45991L5.97261 5.25991C6.03106 5.1036 6.1804 5 6.34728 5H6.94839C7.1149 5 7.264 5.10316 7.32271 5.25899L8.90494 9.45899C9.00349 9.72058 8.81016 10 8.53063 10H8.08123C7.90708 10 7.75295 9.88733 7.7001 9.72141L7.58002 9.34445ZM6.22418 7.7451C6.16329 7.93841 6.30765 8.13523 6.51032 8.13523H6.78733C6.99023 8.13523 7.13461 7.938 7.07331 7.74458L6.93437 7.30622C6.8458 7.02681 6.4503 7.02717 6.36224 7.30674L6.22418 7.7451Z" fill="url(#paint1_linear_626_149)"/>
<defs>
<linearGradient id="paint0_linear_626_149" x1="7.80263" y1="15.882" x2="7.80263" y2="0.934238" gradientUnits="userSpaceOnUse">
<stop stop-color="#18AEFA"/>
<stop offset="1" stop-color="#83E1FF"/>
</linearGradient>
<linearGradient id="paint1_linear_626_149" x1="6.65448" y1="10" x2="6.65448" y2="5.29412" gradientUnits="userSpaceOnUse">
<stop stop-color="#18AEFA"/>
<stop offset="1" stop-color="#83E1FF"/>
</linearGradient>
</defs>
</svg>
