<svg width="16" height="16" viewBox="0 0 16 16" fill="none" xmlns="http://www.w3.org/2000/svg">
<path fill-rule="evenodd" clip-rule="evenodd" d="M8.49092 1.50673C8.27926 1.50084 8.00921 1.50003 7.6431 1.50003C6.65384 1.50003 5.95685 1.50061 5.41255 1.54494C4.87695 1.58856 4.55536 1.6708 4.30502 1.79788C3.78466 2.06203 3.36181 2.48488 3.09766 3.00524C2.97058 3.25558 2.88834 3.57718 2.84472 4.11277C2.80038 4.65707 2.7998 5.35406 2.7998 6.34332V9.53205C2.7998 10.5245 2.80039 11.2238 2.845 11.7698C2.88889 12.307 2.97165 12.6295 3.09954 12.8805C3.36319 13.398 3.78389 13.8187 4.30133 14.0823C4.55233 14.2102 4.87483 14.293 5.41209 14.3369C5.95809 14.3815 6.65734 14.382 7.64981 14.382H7.95542C8.94789 14.382 9.64713 14.3815 10.1931 14.3369C10.7304 14.293 11.0529 14.2102 11.3039 14.0823C11.8213 13.8187 12.242 13.398 12.5057 12.8805C12.6336 12.6295 12.7163 12.307 12.7602 11.7698C12.8048 11.2238 12.8054 10.5245 12.8054 9.53205V6.66513C12.8054 6.29804 12.8046 6.02722 12.7987 5.81494H12.4409H12.4105C11.8763 5.81495 11.4305 5.81496 11.0662 5.7852C10.6864 5.75416 10.3297 5.68705 9.99244 5.51521C9.475 5.25156 9.0543 4.83086 8.79065 4.31341C8.61881 3.97615 8.5517 3.6195 8.52066 3.23961C8.4909 2.87538 8.49091 2.42954 8.49092 1.89539V1.89538L8.49092 1.86494V1.50673ZM12.3727 4.31494C12.2144 4.07124 11.9802 3.83093 11.3849 3.23566L11.0678 2.91859C10.4735 2.32426 10.2341 2.09097 9.99092 1.93295C9.991 2.46806 9.99247 2.83346 10.0157 3.11746C10.0391 3.40459 10.081 3.54187 10.1272 3.63243C10.247 3.86763 10.4382 4.05886 10.6734 4.1787C10.764 4.22484 10.9013 4.26672 11.1884 4.29018C11.4724 4.31339 11.8377 4.31486 12.3727 4.31494ZM9.4992 0.116708C9.01034 -0.000267982 8.5001 -0.000155926 7.73273 1.25766e-05L7.6431 2.563e-05L7.61059 2.55108e-05C6.66122 1.90735e-05 5.90313 1.38879e-05 5.29078 0.0498871C4.66275 0.101038 4.12249 0.208339 3.62605 0.460349C2.82185 0.868585 2.16836 1.52207 1.76013 2.32627C1.50812 2.82271 1.40082 3.36297 1.34967 3.991C1.29979 4.60335 1.2998 5.36144 1.2998 6.31081V6.31082V6.34332V9.53205V9.56466C1.2998 10.5171 1.29979 11.2777 1.34998 11.8919C1.40145 12.5219 1.50944 13.0638 1.76303 13.5615C2.17049 14.3612 2.82066 15.0114 3.62035 15.4188C4.11804 15.6724 4.65992 15.7804 5.28994 15.8319C5.90421 15.8821 6.66477 15.8821 7.61723 15.882H7.64981H7.95542H7.988C8.94046 15.8821 9.70102 15.8821 10.3153 15.8319C10.9453 15.7804 11.4872 15.6724 11.9849 15.4188C12.7846 15.0114 13.4347 14.3612 13.8422 13.5615C14.0958 13.0638 14.2038 12.5219 14.2552 11.8919C14.3054 11.2777 14.3054 10.5171 14.3054 9.56468V9.53205V6.66513L14.3054 6.57521C14.3056 5.80538 14.3057 5.29349 14.188 4.80314C14.0839 4.36948 13.9122 3.95492 13.6791 3.57466C13.4157 3.14469 13.0536 2.78281 12.5092 2.23858L12.4456 2.175L12.1285 1.85793L12.0651 1.79455L12.0651 1.79454C11.5226 1.25181 11.1619 0.890937 10.7335 0.627977C10.3516 0.393547 9.93502 0.220992 9.4992 0.116708Z" fill="url(#paint0_linear_633_129)"/>
<path fill-rule="evenodd" clip-rule="evenodd" d="M4.99295 8.58929H6.73495C6.82731 8.58929 6.91588 8.5526 6.98118 8.4873C7.04648 8.42199 7.08317 8.33342 7.08317 8.24107C7.08317 8.14872 7.04648 8.06015 6.98118 7.99485C6.91588 7.92954 6.82731 7.89286 6.73495 7.89286H5.88938C5.77893 7.89286 5.68661 7.80152 5.7179 7.69559C5.75055 7.58508 5.81041 7.48336 5.89336 7.40041C6.02397 7.2698 6.20111 7.19643 6.38581 7.19643H7.31438C7.49909 7.19643 7.67623 7.2698 7.80683 7.40041C7.93744 7.53101 8.01081 7.70815 8.01081 7.89286V8.82143C8.01081 9.14179 7.75081 9.40179 7.43045 9.40179H6.26974C5.93112 9.40179 5.60636 9.5363 5.36692 9.77575C5.12747 10.0152 4.99295 10.3399 4.99295 10.6786V10.7107C4.99295 10.8212 4.90162 10.9135 4.79569 10.8822C4.68518 10.8496 4.58346 10.7897 4.50051 10.7067C4.3699 10.5761 4.29653 10.399 4.29653 10.2143V9.28571C4.29653 9.10101 4.3699 8.92387 4.50051 8.79326C4.63111 8.66266 4.80825 8.58929 4.99295 8.58929ZM5.68938 10.9107V11.6071C5.68938 11.7918 5.76276 11.969 5.89336 12.0996C6.02397 12.2302 6.20111 12.3036 6.38581 12.3036H7.31438C7.49909 12.3036 7.67623 12.2302 7.80683 12.0996C7.88978 12.0166 7.94965 11.9149 7.98229 11.8044C8.01358 11.6985 7.92127 11.6071 7.81081 11.6071H6.96617C6.87382 11.6071 6.78525 11.5705 6.71994 11.5052C6.65464 11.4399 6.61795 11.3513 6.61795 11.2589C6.61795 11.1666 6.65464 11.078 6.71994 11.0127C6.78525 10.9474 6.87382 10.9107 6.96617 10.9107H8.70724C8.89194 10.9107 9.06908 10.8373 9.19969 10.7067C9.3303 10.5761 9.40367 10.399 9.40367 10.2143V9.28571C9.40367 9.10101 9.3303 8.92387 9.19969 8.79326C9.11674 8.71031 9.01502 8.65045 8.90451 8.61781C8.79858 8.58652 8.70724 8.67883 8.70724 8.78929V8.82143C8.70724 9.16005 8.57272 9.48481 8.33328 9.72425C8.09383 9.9637 7.76908 10.0982 7.43045 10.0982H6.26974C5.94938 10.0982 5.68938 10.3582 5.68938 10.6786V10.9107ZM6.38581 6.5C6.0164 6.5 5.66212 6.64675 5.40091 6.90796C5.18715 7.12173 5.05004 7.39782 5.00728 7.69353C4.99148 7.80285 4.90295 7.89138 4.79363 7.90719C4.49792 7.94994 4.22182 8.08705 4.00806 8.30082C3.74684 8.56203 3.6001 8.91631 3.6001 9.28571V10.2143C3.6001 10.5837 3.74684 10.938 4.00806 11.1992C4.22182 11.413 4.49792 11.5501 4.79363 11.5928C4.90295 11.6086 4.99148 11.6971 5.00728 11.8065C5.05004 12.1022 5.18715 12.3783 5.40091 12.592C5.66212 12.8533 6.0164 13 6.38581 13H7.31438C7.68379 13 8.03807 12.8533 8.29928 12.592C8.51305 12.3783 8.65016 12.1022 8.69291 11.8065C8.70872 11.6971 8.79724 11.6086 8.90656 11.5928C9.20227 11.5501 9.47837 11.413 9.69214 11.1992C9.95335 10.938 10.1001 10.5837 10.1001 10.2143V9.28571C10.1001 8.91631 9.95335 8.56203 9.69214 8.30082C9.47837 8.08705 9.20227 7.94994 8.90656 7.90719C8.79724 7.89138 8.70872 7.80285 8.69291 7.69353C8.65016 7.39782 8.51305 7.12173 8.29928 6.90796C8.03807 6.64675 7.68379 6.5 7.31438 6.5H6.38581Z" fill="url(#paint1_linear_633_129)" stroke="url(#paint2_linear_633_129)" stroke-width="0.4"/>
<defs>
<linearGradient id="paint0_linear_633_129" x1="3.15991" y1="15.1294" x2="16.3853" y2="6.26813" gradientUnits="userSpaceOnUse">
<stop stop-color="#FFC025"/>
<stop offset="1" stop-color="#FFFF7F"/>
</linearGradient>
<linearGradient id="paint1_linear_633_129" x1="4.52975" y1="12.692" x2="10.2664" y2="7.99819" gradientUnits="userSpaceOnUse">
<stop stop-color="#FFC025"/>
<stop offset="1" stop-color="#FFFF7F"/>
</linearGradient>
<linearGradient id="paint2_linear_633_129" x1="4.52975" y1="12.692" x2="10.2664" y2="7.99819" gradientUnits="userSpaceOnUse">
<stop stop-color="#FFC025"/>
<stop offset="1" stop-color="#FFFF7F"/>
</linearGradient>
</defs>
</svg>
