<svg width="16" height="16" viewBox="0 0 16 16" fill="none" xmlns="http://www.w3.org/2000/svg">
<path fill-rule="evenodd" clip-rule="evenodd" d="M8.49092 1.50673C8.27926 1.50084 8.00921 1.50003 7.6431 1.50003C6.65384 1.50003 5.95685 1.50061 5.41255 1.54494C4.87695 1.58856 4.55536 1.6708 4.30502 1.79788C3.78466 2.06203 3.36181 2.48488 3.09766 3.00524C2.97058 3.25558 2.88834 3.57718 2.84472 4.11277C2.80038 4.65707 2.7998 5.35406 2.7998 6.34332V9.53205C2.7998 10.5245 2.80039 11.2238 2.845 11.7698C2.88889 12.307 2.97165 12.6295 3.09954 12.8805C3.36319 13.398 3.78389 13.8187 4.30133 14.0823C4.55233 14.2102 4.87483 14.293 5.41209 14.3369C5.95809 14.3815 6.65734 14.382 7.64981 14.382H7.95542C8.94789 14.382 9.64713 14.3815 10.1931 14.3369C10.7304 14.293 11.0529 14.2102 11.3039 14.0823C11.8213 13.8187 12.242 13.398 12.5057 12.8805C12.6336 12.6295 12.7163 12.307 12.7602 11.7698C12.8048 11.2238 12.8054 10.5245 12.8054 9.53205V6.66513C12.8054 6.29804 12.8046 6.02722 12.7987 5.81494H12.4409H12.4105C11.8763 5.81495 11.4305 5.81496 11.0662 5.7852C10.6864 5.75416 10.3297 5.68705 9.99244 5.51521C9.475 5.25156 9.0543 4.83086 8.79065 4.31341C8.61881 3.97615 8.5517 3.6195 8.52066 3.23961C8.4909 2.87538 8.49091 2.42954 8.49092 1.89539V1.89538L8.49092 1.86494V1.50673ZM12.3727 4.31494C12.2144 4.07124 11.9802 3.83093 11.3849 3.23566L11.0678 2.91859C10.4735 2.32426 10.2341 2.09097 9.99092 1.93295C9.991 2.46806 9.99247 2.83346 10.0157 3.11746C10.0391 3.40459 10.081 3.54187 10.1272 3.63243C10.247 3.86763 10.4382 4.05886 10.6734 4.1787C10.764 4.22484 10.9013 4.26672 11.1884 4.29018C11.4724 4.31339 11.8377 4.31486 12.3727 4.31494ZM9.4992 0.116708C9.01034 -0.000267982 8.5001 -0.000155926 7.73273 1.25766e-05L7.6431 2.563e-05L7.61059 2.55108e-05C6.66122 1.90735e-05 5.90313 1.38879e-05 5.29078 0.0498871C4.66275 0.101038 4.12249 0.208339 3.62605 0.460349C2.82185 0.868585 2.16836 1.52207 1.76013 2.32627C1.50812 2.82271 1.40082 3.36297 1.34967 3.991C1.29979 4.60335 1.2998 5.36144 1.2998 6.31081V6.31082V6.34332V9.53205V9.56466C1.2998 10.5171 1.29979 11.2777 1.34998 11.8919C1.40145 12.5219 1.50944 13.0638 1.76303 13.5615C2.17049 14.3612 2.82066 15.0114 3.62035 15.4188C4.11804 15.6724 4.65992 15.7804 5.28994 15.8319C5.90421 15.8821 6.66477 15.8821 7.61723 15.882H7.64981H7.95542H7.988C8.94046 15.8821 9.70102 15.8821 10.3153 15.8319C10.9453 15.7804 11.4872 15.6724 11.9849 15.4188C12.7846 15.0114 13.4347 14.3612 13.8422 13.5615C14.0958 13.0638 14.2038 12.5219 14.2552 11.8919C14.3054 11.2777 14.3054 10.5171 14.3054 9.56468V9.53205V6.66513L14.3054 6.57521C14.3056 5.80538 14.3057 5.29349 14.188 4.80314C14.0839 4.36948 13.9122 3.95492 13.6791 3.57466C13.4157 3.14469 13.0536 2.78281 12.5092 2.23858L12.4456 2.175L12.1285 1.85793L12.0651 1.79455L12.0651 1.79454C11.5226 1.25181 11.1619 0.890937 10.7335 0.627977C10.3516 0.393547 9.93502 0.220992 9.4992 0.116708Z" fill="url(#paint0_linear_626_88)"/>
<path d="M6.8999 6C4.96461 6 3.3999 7.56471 3.3999 9.5C3.3999 11.4353 4.96461 13 6.8999 13C8.8352 13 10.3999 11.4353 10.3999 9.5C10.3999 7.56471 8.8352 6 6.8999 6ZM9.56556 9.1863C9.57256 9.24425 9.52643 9.29412 9.46805 9.29412H8.44108C8.38585 9.29412 8.34114 9.24934 8.34047 9.19412C8.33212 8.50695 8.2377 7.82559 8.05719 7.2698C8.02908 7.18324 8.11777 7.10303 8.19629 7.14904C8.91892 7.57245 9.45833 8.29764 9.56556 9.1863ZM6.94016 12.1476C6.91688 12.1688 6.88301 12.1688 6.85938 12.148C6.68625 11.9957 6.37732 11.3742 6.28963 10.224C6.28525 10.1665 6.33102 10.1176 6.3887 10.1176H7.36993C7.42761 10.1176 7.47337 10.1665 7.46909 10.2241C7.38343 11.3733 7.10818 11.9947 6.94016 12.1476ZM6.38492 9.29412C6.32866 9.29412 6.28343 9.24728 6.28554 9.19106C6.33633 7.83302 6.66692 7.05753 6.81821 6.86459C6.84035 6.83635 6.87877 6.83325 6.90396 6.85881C7.0841 7.04162 7.42175 7.81903 7.47309 9.19106C7.4752 9.24728 7.42997 9.29412 7.37371 9.29412H6.38492ZM5.60352 7.14904C5.68204 7.10303 5.77124 7.18345 5.74413 7.27033C5.5703 7.82737 5.50091 8.51048 5.46367 9.19912C5.46079 9.25233 5.41689 9.29412 5.3636 9.29412H4.33175C4.27338 9.29412 4.22725 9.24425 4.23424 9.1863C4.34147 8.29764 4.88088 7.57245 5.60352 7.14904ZM4.3397 10.2412C4.32104 10.1788 4.36881 10.1176 4.43386 10.1176H5.36478C5.41759 10.1176 5.46122 10.1587 5.46514 10.2114C5.50507 10.7481 5.59969 11.2809 5.74903 11.743C5.77642 11.8278 5.69136 11.9058 5.61385 11.8619C5.01304 11.5213 4.54611 10.9304 4.3397 10.2412ZM8.18596 11.8619C8.10845 11.9058 8.02361 11.8278 8.05138 11.7432C8.20079 11.2876 8.29534 10.7771 8.33501 10.2118C8.33872 10.159 8.38242 10.1176 8.43537 10.1176H9.40079C9.46778 10.1176 9.5158 10.1823 9.49385 10.2455C9.25538 10.9329 8.78586 11.522 8.18596 11.8619Z" fill="url(#paint1_linear_626_88)" stroke="url(#paint2_linear_626_88)" stroke-width="0.4"/>
<defs>
<linearGradient id="paint0_linear_626_88" x1="7.80263" y1="15.882" x2="7.80263" y2="0.934238" gradientUnits="userSpaceOnUse">
<stop stop-color="#18AEFA"/>
<stop offset="1" stop-color="#83E1FF"/>
</linearGradient>
<linearGradient id="paint1_linear_626_88" x1="6.8999" y1="13" x2="6.8999" y2="6.41176" gradientUnits="userSpaceOnUse">
<stop stop-color="#18AEFA"/>
<stop offset="1" stop-color="#83E1FF"/>
</linearGradient>
<linearGradient id="paint2_linear_626_88" x1="6.8999" y1="13" x2="6.8999" y2="6.41176" gradientUnits="userSpaceOnUse">
<stop stop-color="#18AEFA"/>
<stop offset="1" stop-color="#83E1FF"/>
</linearGradient>
</defs>
</svg>
