<svg width="16" height="16" viewBox="0 0 16 16" fill="none" xmlns="http://www.w3.org/2000/svg">
<path fill-rule="evenodd" clip-rule="evenodd" d="M8.49092 1.50673C8.27926 1.50084 8.00921 1.50003 7.6431 1.50003C6.65384 1.50003 5.95685 1.50061 5.41255 1.54494C4.87695 1.58856 4.55536 1.6708 4.30502 1.79788C3.78466 2.06203 3.36181 2.48488 3.09766 3.00524C2.97058 3.25558 2.88834 3.57718 2.84472 4.11277C2.80038 4.65707 2.7998 5.35406 2.7998 6.34332V9.53205C2.7998 10.5245 2.80039 11.2238 2.845 11.7698C2.88889 12.307 2.97165 12.6295 3.09954 12.8805C3.36319 13.398 3.78389 13.8187 4.30133 14.0823C4.55233 14.2102 4.87483 14.293 5.41209 14.3369C5.95809 14.3815 6.65734 14.382 7.64981 14.382H7.95542C8.94789 14.382 9.64713 14.3815 10.1931 14.3369C10.7304 14.293 11.0529 14.2102 11.3039 14.0823C11.8213 13.8187 12.242 13.398 12.5057 12.8805C12.6336 12.6295 12.7163 12.307 12.7602 11.7698C12.8048 11.2238 12.8054 10.5245 12.8054 9.53205V6.66513C12.8054 6.29804 12.8046 6.02722 12.7987 5.81494H12.4409H12.4105C11.8763 5.81495 11.4305 5.81496 11.0662 5.7852C10.6864 5.75416 10.3297 5.68705 9.99244 5.51521C9.475 5.25156 9.0543 4.83086 8.79065 4.31341C8.61881 3.97615 8.5517 3.6195 8.52066 3.23961C8.4909 2.87538 8.49091 2.42954 8.49092 1.89539V1.89538L8.49092 1.86494V1.50673ZM12.3727 4.31494C12.2144 4.07124 11.9802 3.83093 11.3849 3.23566L11.0678 2.91859C10.4735 2.32426 10.2341 2.09097 9.99092 1.93295C9.991 2.46806 9.99247 2.83346 10.0157 3.11746C10.0391 3.40459 10.081 3.54187 10.1272 3.63243C10.247 3.86763 10.4382 4.05886 10.6734 4.1787C10.764 4.22484 10.9013 4.26672 11.1884 4.29018C11.4724 4.31339 11.8377 4.31486 12.3727 4.31494ZM9.4992 0.116708C9.01034 -0.000267982 8.5001 -0.000155926 7.73273 1.25766e-05L7.6431 2.563e-05L7.61059 2.55108e-05C6.66122 1.90735e-05 5.90313 1.38879e-05 5.29078 0.0498871C4.66275 0.101038 4.12249 0.208339 3.62605 0.460349C2.82185 0.868585 2.16836 1.52207 1.76013 2.32627C1.50812 2.82271 1.40082 3.36297 1.34967 3.991C1.29979 4.60335 1.2998 5.36144 1.2998 6.31081V6.31082V6.34332V9.53205V9.56466C1.2998 10.5171 1.29979 11.2777 1.34998 11.8919C1.40145 12.5219 1.50944 13.0638 1.76303 13.5615C2.17049 14.3612 2.82066 15.0114 3.62035 15.4188C4.11804 15.6724 4.65992 15.7804 5.28994 15.8319C5.90421 15.8821 6.66477 15.8821 7.61723 15.882H7.64981H7.95542H7.988C8.94046 15.8821 9.70102 15.8821 10.3153 15.8319C10.9453 15.7804 11.4872 15.6724 11.9849 15.4188C12.7846 15.0114 13.4347 14.3612 13.8422 13.5615C14.0958 13.0638 14.2038 12.5219 14.2552 11.8919C14.3054 11.2777 14.3054 10.5171 14.3054 9.56468V9.53205V6.66513L14.3054 6.57521C14.3056 5.80538 14.3057 5.29349 14.188 4.80314C14.0839 4.36948 13.9122 3.95492 13.6791 3.57466C13.4157 3.14469 13.0536 2.78281 12.5092 2.23858L12.4456 2.175L12.1285 1.85793L12.0651 1.79455L12.0651 1.79454C11.5226 1.25181 11.1619 0.890937 10.7335 0.627977C10.3516 0.393547 9.93502 0.220992 9.4992 0.116708Z" fill="url(#paint0_linear_627_154)"/>
<path d="M4.13441 7.19299C4.22552 7.08371 4.35631 7.01508 4.49802 7.00221C4.63971 6.98932 4.78073 7.03324 4.89006 7.1243L5.08827 7.28888C5.5212 7.64953 5.88972 7.95651 6.14447 8.23916C6.41567 8.53971 6.62677 8.88391 6.62677 9.32539C6.62677 9.76692 6.41567 10.1118 6.14447 10.4116C5.88972 10.6943 5.5212 11.0013 5.08827 11.362L4.89006 11.5265C4.8362 11.5736 4.77346 11.6095 4.70553 11.6321C4.6376 11.6545 4.56585 11.6632 4.49451 11.6576C4.42317 11.652 4.35368 11.6322 4.29012 11.5993C4.22655 11.5664 4.17021 11.5211 4.12439 11.4662C4.07858 11.4112 4.04423 11.3476 4.02334 11.2791C4.00247 11.2108 3.99549 11.1388 4.00282 11.0676C4.01016 10.9964 4.03166 10.9274 4.06605 10.8646C4.10044 10.8019 4.14704 10.7467 4.2031 10.7021L4.37055 10.5627C4.84211 10.1691 5.15053 9.91146 5.34803 9.69253C5.53551 9.48499 5.5534 9.38695 5.5534 9.32539C5.5534 9.26389 5.53551 9.16656 5.34803 8.9583C5.14981 8.73937 4.84211 8.48105 4.37055 8.08818L4.2031 7.94864C4.09383 7.85752 4.0252 7.72673 4.01232 7.58504C3.99943 7.44334 4.04335 7.30232 4.13441 7.19299ZM11 11.1143C11 11.2567 10.9434 11.3932 10.8428 11.4938C10.7421 11.5945 10.6056 11.651 10.4633 11.651H7.60953C7.46721 11.651 7.33069 11.5945 7.23003 11.4938C7.12938 11.3932 7.07285 11.2567 7.07285 11.1143C7.07285 10.972 7.12938 10.8355 7.23003 10.7349C7.33069 10.6342 7.46721 10.5777 7.60953 10.5777H10.4633C10.6056 10.5777 10.7421 10.6342 10.8428 10.7349C10.9434 10.8355 11 10.972 11 11.1143Z" fill="url(#paint1_linear_627_154)" stroke="url(#paint2_linear_627_154)" stroke-width="0.5"/>
<defs>
<linearGradient id="paint0_linear_627_154" x1="13.8661" y1="0.453954" x2="6.77793" y2="15.0287" gradientUnits="userSpaceOnUse">
<stop stop-color="#FE0F7C"/>
<stop offset="1" stop-color="#DF0066"/>
</linearGradient>
<linearGradient id="paint1_linear_627_154" x1="10.7635" y1="7.13318" x2="9.45404" y2="12.0731" gradientUnits="userSpaceOnUse">
<stop stop-color="#FE0F7C"/>
<stop offset="1" stop-color="#DF0066"/>
</linearGradient>
<linearGradient id="paint2_linear_627_154" x1="10.7635" y1="7.13318" x2="9.45404" y2="12.0731" gradientUnits="userSpaceOnUse">
<stop stop-color="#FE0F7C"/>
<stop offset="1" stop-color="#DF0066"/>
</linearGradient>
</defs>
</svg>
