<svg width="16" height="16" viewBox="0 0 16 16" fill="none" xmlns="http://www.w3.org/2000/svg">
<path fill-rule="evenodd" clip-rule="evenodd" d="M7.6431 1.50003C8.00921 1.50003 8.27926 1.50084 8.49092 1.50673V1.86494L8.49092 1.89538V1.89539C8.49091 2.42954 8.4909 2.87538 8.52066 3.23961C8.5517 3.6195 8.61881 3.97615 8.79065 4.31341C9.0543 4.83086 9.475 5.25156 9.99244 5.51521C10.3297 5.68705 10.6864 5.75416 11.0662 5.7852C11.4305 5.81496 11.8763 5.81495 12.4105 5.81494H12.4409H12.7987C12.8046 6.02722 12.8054 6.29804 12.8054 6.66513V9.53205C12.8054 10.5245 12.8048 11.2238 12.7602 11.7698C12.7163 12.307 12.6336 12.6295 12.5057 12.8805C12.242 13.398 11.8213 13.8187 11.3039 14.0823C11.0529 14.2102 10.7304 14.293 10.1931 14.3369C9.64713 14.3815 8.94789 14.382 7.95542 14.382H7.64981C6.65734 14.382 5.95809 14.3815 5.41209 14.3369C4.87483 14.293 4.55233 14.2102 4.30133 14.0823C3.78389 13.8187 3.36319 13.398 3.09954 12.8805C2.97165 12.6295 2.88889 12.307 2.845 11.7698C2.80039 11.2238 2.7998 10.5245 2.7998 9.53205V6.34332C2.7998 5.35406 2.80038 4.65707 2.84472 4.11277C2.88834 3.57718 2.97058 3.25558 3.09766 3.00524C3.36181 2.48488 3.78466 2.06203 4.30502 1.79788C4.55536 1.6708 4.87695 1.58856 5.41255 1.54494C5.95685 1.50061 6.65384 1.50003 7.6431 1.50003ZM11.3849 3.23566C11.9802 3.83093 12.2144 4.07124 12.3727 4.31494C11.8377 4.31486 11.4724 4.31339 11.1884 4.29018C10.9013 4.26672 10.764 4.22484 10.6734 4.1787C10.4382 4.05886 10.247 3.86763 10.1272 3.63243C10.081 3.54187 10.0391 3.40459 10.0157 3.11746C9.99247 2.83346 9.991 2.46806 9.99092 1.93295C10.2341 2.09097 10.4735 2.32426 11.0678 2.91859L11.3849 3.23566ZM7.73273 1.25766e-05C8.5001 -0.000155926 9.01034 -0.000267982 9.4992 0.116708C9.93502 0.220992 10.3516 0.393547 10.7335 0.627977C11.1619 0.890937 11.5226 1.25181 12.0651 1.79454L12.0651 1.79455L12.1285 1.85793L12.4456 2.175L12.5092 2.23858C13.0536 2.78281 13.4157 3.14469 13.6791 3.57466C13.9122 3.95492 14.0839 4.36948 14.188 4.80314C14.3057 5.29349 14.3056 5.80538 14.3054 6.57521L14.3054 6.66513V9.53205V9.56468C14.3054 10.5171 14.3054 11.2777 14.2552 11.8919C14.2038 12.5219 14.0958 13.0638 13.8422 13.5615C13.4347 14.3612 12.7846 15.0114 11.9849 15.4188C11.4872 15.6724 10.9453 15.7804 10.3153 15.8319C9.70102 15.8821 8.94046 15.8821 7.988 15.882H7.95542H7.64981H7.61723C6.66477 15.8821 5.90421 15.8821 5.28994 15.8319C4.65992 15.7804 4.11804 15.6724 3.62035 15.4188C2.82066 15.0114 2.17049 14.3612 1.76303 13.5615C1.50944 13.0638 1.40145 12.5219 1.34998 11.8919C1.29979 11.2777 1.2998 10.5171 1.2998 9.56466V9.53205V6.34332V6.31082V6.31081C1.2998 5.36144 1.29979 4.60335 1.34967 3.991C1.40082 3.36297 1.50812 2.82271 1.76013 2.32627C2.16836 1.52207 2.82185 0.868585 3.62605 0.460349C4.12249 0.208339 4.66275 0.101038 5.29078 0.0498871C5.90313 1.38879e-05 6.66122 1.90735e-05 7.61059 2.55108e-05L7.6431 2.563e-05L7.73273 1.25766e-05ZM9.51297 9.50022C9.51297 9.73544 9.41953 9.96104 9.25319 10.1274C9.08685 10.2937 8.86125 10.3871 8.62603 10.3871H4.48702C4.2518 10.3871 4.0262 10.2937 3.85988 10.1274C3.69356 9.96104 3.6001 9.73544 3.6001 9.50022C3.6001 9.26498 3.69356 9.03939 3.85988 8.87304C4.0262 8.70672 4.2518 8.61328 4.48702 8.61328H8.62603C8.86125 8.61328 9.08685 8.70672 9.25319 8.87304C9.41953 9.03939 9.51297 9.26498 9.51297 9.50022ZM9.25319 7.51408C9.41953 7.34776 9.51297 7.12216 9.51297 6.88694C9.51297 6.6517 9.41953 6.4261 9.25319 6.25976C9.08685 6.09344 8.86125 6 8.62603 6H4.48702C4.2518 6 4.0262 6.09344 3.85988 6.25976C3.69356 6.4261 3.6001 6.6517 3.6001 6.88694C3.6001 7.12216 3.69356 7.34776 3.85988 7.51408C4.0262 7.6804 4.2518 7.77386 4.48702 7.77386H8.62603C8.86125 7.77386 9.08685 7.6804 9.25319 7.51408ZM7.44347 12.113C7.44347 12.3482 7.35 12.5738 7.18368 12.7402C7.01736 12.9065 6.79177 12.9999 6.55655 12.9999H4.48702C4.2518 12.9999 4.0262 12.9065 3.85988 12.7402C3.69356 12.5738 3.6001 12.3482 3.6001 12.113C3.6001 11.8778 3.69356 11.6522 3.85988 11.4858C4.0262 11.3195 4.2518 11.2261 4.48702 11.2261H6.55655C6.79177 11.2261 7.01736 11.3195 7.18368 11.4858C7.35 11.6522 7.44347 11.8778 7.44347 12.113Z" fill="url(#paint0_linear_626_130)"/>
<defs>
<linearGradient id="paint0_linear_626_130" x1="4.10396" y1="-4.05551" x2="19.9755" y2="4.87195" gradientUnits="userSpaceOnUse">
<stop stop-color="#ABDAFB"/>
<stop offset="1" stop-color="#638FFF"/>
</linearGradient>
</defs>
</svg>
