<svg width="16" height="16" viewBox="0 0 16 16" fill="none" xmlns="http://www.w3.org/2000/svg">
<path fill-rule="evenodd" clip-rule="evenodd" d="M8.49092 1.50673C8.27926 1.50084 8.00921 1.50003 7.6431 1.50003C6.65384 1.50003 5.95685 1.50061 5.41255 1.54494C4.87695 1.58856 4.55536 1.6708 4.30502 1.79788C3.78466 2.06203 3.36181 2.48488 3.09766 3.00524C2.97058 3.25558 2.88834 3.57718 2.84472 4.11277C2.80038 4.65707 2.79981 5.35406 2.79981 6.34332V9.53205C2.79981 10.5245 2.80039 11.2238 2.845 11.7698C2.88889 12.307 2.97165 12.6295 3.09954 12.8805C3.36319 13.398 3.78389 13.8187 4.30133 14.0823C4.55233 14.2102 4.87483 14.293 5.41209 14.3369C5.95809 14.3815 6.65734 14.382 7.64981 14.382H7.95542C8.94789 14.382 9.64713 14.3815 10.1931 14.3369C10.7304 14.293 11.0529 14.2102 11.3039 14.0823C11.8213 13.8187 12.242 13.398 12.5057 12.8805C12.6336 12.6295 12.7163 12.307 12.7602 11.7698C12.8048 11.2238 12.8054 10.5245 12.8054 9.53205V6.66513C12.8054 6.29804 12.8046 6.02722 12.7987 5.81494H12.4409H12.4105C11.8763 5.81495 11.4305 5.81496 11.0662 5.7852C10.6864 5.75416 10.3297 5.68705 9.99244 5.51521C9.475 5.25156 9.0543 4.83086 8.79065 4.31341C8.61881 3.97615 8.5517 3.6195 8.52066 3.23961C8.4909 2.87538 8.49091 2.42954 8.49092 1.89539V1.89538L8.49092 1.86494V1.50673ZM12.3727 4.31494C12.2144 4.07124 11.9802 3.83093 11.3849 3.23566L11.0678 2.91859C10.4735 2.32426 10.2341 2.09097 9.99092 1.93295C9.991 2.46806 9.99247 2.83346 10.0157 3.11746C10.0391 3.40459 10.081 3.54187 10.1272 3.63243C10.247 3.86763 10.4382 4.05886 10.6734 4.1787C10.764 4.22484 10.9013 4.26672 11.1884 4.29018C11.4724 4.31339 11.8377 4.31486 12.3727 4.31494ZM9.4992 0.116708C9.01034 -0.000268012 8.5001 -0.000155956 7.73273 1.25468e-05L7.6431 2.56002e-05L7.61059 2.5481e-05C6.66122 1.90437e-05 5.90313 1.38581e-05 5.29078 0.049887C4.66275 0.101038 4.12249 0.208339 3.62605 0.460349C2.82185 0.868585 2.16836 1.52207 1.76013 2.32627C1.50812 2.82271 1.40082 3.36297 1.34967 3.991C1.29979 4.60335 1.2998 5.36144 1.2998 6.31081V6.31082V6.34332V9.53205V9.56466C1.2998 10.5171 1.29979 11.2777 1.34998 11.8919C1.40145 12.5219 1.50944 13.0638 1.76303 13.5615C2.17049 14.3612 2.82066 15.0114 3.62035 15.4188C4.11804 15.6724 4.65993 15.7804 5.28994 15.8319C5.90421 15.8821 6.66477 15.8821 7.61723 15.882H7.64981H7.95542H7.988C8.94046 15.8821 9.70102 15.8821 10.3153 15.8319C10.9453 15.7804 11.4872 15.6724 11.9849 15.4188C12.7846 15.0114 13.4347 14.3612 13.8422 13.5615C14.0958 13.0638 14.2038 12.5219 14.2552 11.8919C14.3054 11.2777 14.3054 10.5171 14.3054 9.56468V9.53205V6.66513L14.3054 6.57521C14.3056 5.80538 14.3057 5.29349 14.188 4.80314C14.0839 4.36948 13.9122 3.95492 13.6791 3.57466C13.4157 3.14469 13.0536 2.78281 12.5092 2.23858L12.4456 2.175L12.1285 1.85793L12.0651 1.79455L12.0651 1.79454C11.5226 1.25181 11.1619 0.890937 10.7335 0.627977C10.3516 0.393547 9.93502 0.220992 9.4992 0.116708Z" fill="url(#paint0_linear_632_77)"/>
<path d="M4.96745 9.28945C4.90455 9.3648 4.87797 9.56617 4.94515 9.63774C5.14412 9.84969 5.24359 10.163 5.24359 10.5777C5.24359 11.3368 5.2804 11.7904 5.35409 11.9385C5.39288 12.0151 5.4436 12.0716 5.50625 12.1078C5.60386 12.1643 5.70116 12.2498 5.69783 12.3625L5.68425 12.8235C5.68182 12.9059 5.62925 12.9792 5.55017 13.0026C5.3639 13.0578 5.18803 13.0854 5.02268 13.0854C4.6492 13.0854 4.35902 12.9414 4.15211 12.6533C3.94521 12.3652 3.84176 11.9439 3.84176 11.3893V11.2964C3.84176 10.9357 3.82686 10.684 3.79705 10.5413C3.7595 10.3596 3.69058 10.2369 3.59028 10.1731C3.49706 10.1139 3.3999 10.0318 3.3999 9.92138V9.11795C3.3999 9.00749 3.4959 8.92578 3.59225 8.87176C3.68706 8.81861 3.75445 8.71958 3.79441 8.5747C3.83825 8.41313 3.86543 8.20445 3.87595 7.94876C3.88823 7.69026 3.89962 7.4857 3.91015 7.33495C3.93294 7.01457 4.00658 6.74532 4.13107 6.52732C4.25732 6.30919 4.48263 6.2002 4.80701 6.2002C4.85085 6.2002 5.00865 6.20419 5.2804 6.21226C5.40197 6.21589 5.49721 6.21897 5.56616 6.22151C5.64789 6.22452 5.7058 6.28188 5.7127 6.36338L5.76973 7.03727C5.77961 7.15396 5.68461 7.2486 5.57392 7.28684C5.41195 7.34281 5.30449 7.47056 5.25146 7.67007C5.20941 7.82895 5.18048 8.05245 5.16471 8.34045C5.15068 8.62588 5.13227 8.83313 5.10947 8.96238C5.08668 9.09163 5.03933 9.20057 4.96745 9.28945V9.28945ZM7.18715 11.1067C7.29761 11.1067 7.38715 11.1962 7.38715 11.3067V12L7.38011 12.4003C7.37819 12.5093 7.28923 12.5968 7.18014 12.5968H6.52311C6.41532 12.5968 6.32805 12.5113 6.32837 12.4035C6.3287 12.2938 6.32984 12.1549 6.32984 12V11.3067C6.32984 11.1962 6.41938 11.1067 6.52984 11.1067H6.84766H7.18715ZM8.24053 6.39684C8.24294 6.31473 8.29738 6.24988 8.37924 6.24293C8.44833 6.23707 8.54284 6.23088 8.66278 6.22438C8.91346 6.20826 9.1029 6.2002 9.23084 6.2002C9.72709 6.2002 10.0023 6.51251 10.0567 7.13701C10.0743 7.3282 10.083 7.55976 10.083 7.83163V7.92451C10.083 8.28526 10.0979 8.53701 10.1277 8.67963C10.1653 8.86138 10.2342 8.98414 10.3345 9.04794C10.4277 9.1072 10.5249 9.18924 10.5249 9.29969V10.1058C10.5249 10.2152 10.4302 10.2971 10.3371 10.3545C10.2472 10.4099 10.1809 10.5098 10.1383 10.6544C10.0979 10.7916 10.0611 10.9976 10.0278 11.2722C9.99447 11.5441 9.96465 11.7554 9.93834 11.9062C9.88222 12.232 9.76653 12.5053 9.59115 12.726C9.41759 12.9468 9.13884 13.0571 8.75484 13.0571C8.6356 13.0571 8.50663 13.0451 8.36788 13.0211C8.28163 13.0061 8.2185 12.9331 8.21113 12.8459L8.15512 12.1837C8.14525 12.067 8.24036 11.9728 8.35093 11.9342C8.5102 11.8787 8.61063 11.7522 8.65222 11.5549C8.67853 11.4311 8.69434 11.2938 8.69959 11.143C8.70484 10.9923 8.70922 10.8388 8.71272 10.6827C8.71797 10.5265 8.7329 10.3811 8.75746 10.2464C8.78203 10.1119 8.83459 9.99482 8.91521 9.8952V9.8952C8.97187 9.82673 8.96724 9.58547 8.90618 9.5209C8.86719 9.47967 8.83428 9.43212 8.80746 9.37826C8.72328 9.20594 8.68115 8.96638 8.68115 8.65945C8.68115 8.35257 8.6794 8.14257 8.6759 8.02957C8.66715 7.65257 8.63559 7.41032 8.58121 7.30263C8.53878 7.2176 8.4854 7.15533 8.42109 7.11582C8.32385 7.05609 8.22371 6.96905 8.22706 6.85499L8.24053 6.39684Z" fill="url(#paint1_linear_632_77)"/>
<defs>
<linearGradient id="paint0_linear_632_77" x1="-0.778588" y1="7.41349" x2="16.3892" y2="7.41349" gradientUnits="userSpaceOnUse">
<stop stop-color="#A93AFF"/>
<stop offset="1" stop-color="#FF81FF"/>
</linearGradient>
<linearGradient id="paint1_linear_632_77" x1="3.40095" y1="9.54076" x2="10.5261" y2="9.54076" gradientUnits="userSpaceOnUse">
<stop stop-color="#A93AFF"/>
<stop offset="1" stop-color="#FF81FF"/>
</linearGradient>
</defs>
</svg>
