<svg width="16" height="16" viewBox="0 0 16 16" fill="none" xmlns="http://www.w3.org/2000/svg">
<path fill-rule="evenodd" clip-rule="evenodd" d="M8.49092 1.50673C8.27926 1.50084 8.00921 1.50003 7.6431 1.50003C6.65384 1.50003 5.95685 1.50061 5.41255 1.54494C4.87695 1.58856 4.55536 1.6708 4.30502 1.79788C3.78466 2.06203 3.36181 2.48488 3.09766 3.00524C2.97058 3.25558 2.88834 3.57718 2.84472 4.11277C2.80038 4.65707 2.79981 5.35406 2.79981 6.34332V9.53205C2.79981 10.5245 2.80039 11.2238 2.845 11.7698C2.88889 12.307 2.97165 12.6295 3.09954 12.8805C3.36319 13.398 3.78389 13.8187 4.30133 14.0823C4.55233 14.2102 4.87483 14.293 5.41209 14.3369C5.95809 14.3815 6.65734 14.382 7.64981 14.382H7.95542C8.94789 14.382 9.64713 14.3815 10.1931 14.3369C10.7304 14.293 11.0529 14.2102 11.3039 14.0823C11.8213 13.8187 12.242 13.398 12.5057 12.8805C12.6336 12.6295 12.7163 12.307 12.7602 11.7698C12.8048 11.2238 12.8054 10.5245 12.8054 9.53205V6.66513C12.8054 6.29804 12.8046 6.02722 12.7987 5.81494H12.4409H12.4105C11.8763 5.81495 11.4305 5.81496 11.0662 5.7852C10.6864 5.75416 10.3297 5.68705 9.99244 5.51521C9.475 5.25156 9.0543 4.83086 8.79065 4.31341C8.61881 3.97615 8.5517 3.6195 8.52066 3.23961C8.4909 2.87538 8.49091 2.42954 8.49092 1.89539V1.89538L8.49092 1.86494V1.50673ZM12.3727 4.31494C12.2144 4.07124 11.9802 3.83093 11.3849 3.23566L11.0678 2.91859C10.4735 2.32426 10.2341 2.09097 9.99092 1.93295C9.991 2.46806 9.99247 2.83346 10.0157 3.11746C10.0391 3.40459 10.081 3.54187 10.1272 3.63243C10.247 3.86763 10.4382 4.05886 10.6734 4.1787C10.764 4.22484 10.9013 4.26672 11.1884 4.29018C11.4724 4.31339 11.8377 4.31486 12.3727 4.31494ZM9.4992 0.116708C9.01034 -0.000268012 8.5001 -0.000155956 7.73273 1.25468e-05L7.6431 2.56002e-05L7.61059 2.5481e-05C6.66122 1.90437e-05 5.90313 1.38581e-05 5.29078 0.049887C4.66275 0.101038 4.12249 0.208339 3.62605 0.460349C2.82185 0.868585 2.16836 1.52207 1.76013 2.32627C1.50812 2.82271 1.40082 3.36297 1.34967 3.991C1.29979 4.60335 1.2998 5.36144 1.2998 6.31081V6.31082V6.34332V9.53205V9.56466C1.2998 10.5171 1.29979 11.2777 1.34998 11.8919C1.40145 12.5219 1.50944 13.0638 1.76303 13.5615C2.17049 14.3612 2.82066 15.0114 3.62035 15.4188C4.11804 15.6724 4.65993 15.7804 5.28994 15.8319C5.90421 15.8821 6.66477 15.8821 7.61723 15.882H7.64981H7.95542H7.988C8.94046 15.8821 9.70102 15.8821 10.3153 15.8319C10.9453 15.7804 11.4872 15.6724 11.9849 15.4188C12.7846 15.0114 13.4347 14.3612 13.8422 13.5615C14.0958 13.0638 14.2038 12.5219 14.2552 11.8919C14.3054 11.2777 14.3054 10.5171 14.3054 9.56468V9.53205V6.66513L14.3054 6.57521C14.3056 5.80538 14.3057 5.29349 14.188 4.80314C14.0839 4.36948 13.9122 3.95492 13.6791 3.57466C13.4157 3.14469 13.0536 2.78281 12.5092 2.23858L12.4456 2.175L12.1285 1.85793L12.0651 1.79455L12.0651 1.79454C11.5226 1.25181 11.1619 0.890937 10.7335 0.627977C10.3516 0.393547 9.93502 0.220992 9.4992 0.116708Z" fill="url(#paint0_linear_627_194)"/>
<path d="M3.60256 6.45027C3.6084 6.41901 3.64302 6.4055 3.67087 6.39014C3.84001 6.29677 4.15492 6.14662 4.61561 5.93964C5.11939 5.71208 5.40624 5.58191 5.47617 5.54915C5.54768 5.51638 5.59774 5.5 5.62635 5.5C5.65495 5.5 5.67005 5.51254 5.67165 5.53763C5.6994 5.96983 5.7294 6.27678 5.76164 6.45843C5.76358 6.4693 5.76485 6.48034 5.76405 6.49138C5.76307 6.50488 5.7608 6.51568 5.75724 6.52373C5.74946 6.54125 5.72706 6.54527 5.70951 6.55307L4.99335 6.87305C4.86225 6.93162 4.84999 7.11093 4.97221 7.18631C5.04133 7.22892 5.1227 7.27902 5.21633 7.33669C5.53418 7.52957 5.70978 7.63753 5.74315 7.66063C5.77653 7.68188 5.79322 7.6973 5.79322 7.7069C5.79322 7.71182 5.79281 7.7174 5.792 7.72377C5.79023 7.73769 5.78543 7.75089 5.77967 7.76367C5.70026 7.93974 5.60386 8.2332 5.49047 8.64415C5.47935 8.68076 5.45948 8.69912 5.43087 8.69912C5.40386 8.69912 5.37367 8.68754 5.34029 8.66438L3.69136 7.49824C3.67826 7.48894 3.66557 7.47832 3.65917 7.46362C3.65157 7.44615 3.64778 7.42413 3.64778 7.39749C3.64778 7.14868 3.63983 6.93372 3.62394 6.75243C3.60805 6.56927 3.6001 6.47476 3.6001 6.47476V6.469C3.60069 6.4621 3.60151 6.45591 3.60256 6.45027ZM7.78658 7.24086L5.92018 11.8739C5.88616 11.9584 5.79422 12.0042 5.70624 11.9804L5.22159 11.8493C5.11753 11.8213 5.06148 11.7084 5.10163 11.6083C5.98775 9.39951 6.65123 7.77958 7.09196 6.74859C7.12682 6.66697 7.21588 6.6237 7.30181 6.64579L7.74854 6.76071C7.85518 6.78813 7.91243 6.90396 7.86946 7.00531L7.86526 7.01522L7.78658 7.24086ZM9.49916 10.9613C9.49982 10.9664 9.5 10.9716 9.5 10.9768C9.5 10.9768 9.5 10.9809 9.5 10.9835C9.46819 11.3441 9.45157 11.6487 9.44995 11.8975C9.44995 11.9418 9.43957 11.9726 9.41898 11.99L7.7574 13.1644C7.71293 13.1875 7.67957 13.1991 7.6573 13.1991C7.63504 13.1991 7.61758 13.1788 7.60485 13.1383C7.59213 13.0979 7.55637 12.9783 7.49755 12.7797C7.44078 12.5877 7.38023 12.4147 7.31602 12.2606C7.31158 12.2499 7.30786 12.2389 7.30624 12.2275C7.30504 12.219 7.3045 12.2112 7.3045 12.204C7.3045 12.1906 7.32118 12.1742 7.35455 12.1549C7.68041 11.9567 7.93605 11.8008 8.12143 11.6874C8.24463 11.6121 8.23245 11.4303 8.1006 11.3714L7.38821 11.0531C7.37069 11.0453 7.34825 11.0413 7.34045 11.0237C7.33691 11.0157 7.33462 11.0049 7.33366 10.9914C7.33288 10.9803 7.33414 10.9693 7.33606 10.9584C7.36829 10.7768 7.39836 10.4698 7.42608 10.0376C7.4277 10.0125 7.44276 10 7.47139 10C7.49995 10 7.54922 10.0164 7.6192 10.0491C7.69073 10.0819 7.97752 10.2121 8.47969 10.4396C8.94184 10.6466 9.25756 10.7968 9.42685 10.8901C9.45469 10.9055 9.49058 10.9175 9.49712 10.9487C9.49796 10.9526 9.49862 10.9568 9.49916 10.9613Z" fill="url(#paint1_linear_627_194)" stroke="url(#paint2_linear_627_194)" stroke-width="0.5"/>
<defs>
<linearGradient id="paint0_linear_627_194" x1="-0.778588" y1="7.41349" x2="16.3892" y2="7.41349" gradientUnits="userSpaceOnUse">
<stop stop-color="#A93AFF"/>
<stop offset="1" stop-color="#FF81FF"/>
</linearGradient>
<linearGradient id="paint1_linear_627_194" x1="2.64108" y1="9.23428" x2="10.5627" y2="9.23428" gradientUnits="userSpaceOnUse">
<stop stop-color="#A93AFF"/>
<stop offset="1" stop-color="#FF81FF"/>
</linearGradient>
<linearGradient id="paint2_linear_627_194" x1="2.64108" y1="9.23428" x2="10.5627" y2="9.23428" gradientUnits="userSpaceOnUse">
<stop stop-color="#A93AFF"/>
<stop offset="1" stop-color="#FF81FF"/>
</linearGradient>
</defs>
</svg>
