<svg width="16" height="16" viewBox="0 0 16 16" fill="none" xmlns="http://www.w3.org/2000/svg">
<path fill-rule="evenodd" clip-rule="evenodd" d="M8.49092 1.50673C8.27926 1.50084 8.00921 1.50003 7.6431 1.50003C6.65384 1.50003 5.95685 1.50061 5.41255 1.54494C4.87695 1.58856 4.55536 1.6708 4.30502 1.79788C3.78466 2.06203 3.36181 2.48488 3.09766 3.00524C2.97058 3.25558 2.88834 3.57718 2.84472 4.11277C2.80038 4.65707 2.7998 5.35406 2.7998 6.34332V9.53205C2.7998 10.5245 2.80039 11.2238 2.845 11.7698C2.88889 12.307 2.97165 12.6295 3.09954 12.8805C3.36319 13.398 3.78389 13.8187 4.30133 14.0823C4.55233 14.2102 4.87483 14.293 5.41209 14.3369C5.95809 14.3815 6.65734 14.382 7.64981 14.382H7.95542C8.94789 14.382 9.64713 14.3815 10.1931 14.3369C10.7304 14.293 11.0529 14.2102 11.3039 14.0823C11.8213 13.8187 12.242 13.398 12.5057 12.8805C12.6336 12.6295 12.7163 12.307 12.7602 11.7698C12.8048 11.2238 12.8054 10.5245 12.8054 9.53205V6.66513C12.8054 6.29804 12.8046 6.02722 12.7987 5.81494H12.4409H12.4105C11.8763 5.81495 11.4305 5.81496 11.0662 5.7852C10.6864 5.75416 10.3297 5.68705 9.99244 5.51521C9.475 5.25156 9.0543 4.83086 8.79065 4.31341C8.61881 3.97615 8.5517 3.6195 8.52066 3.23961C8.4909 2.87538 8.49091 2.42954 8.49092 1.89539V1.89538L8.49092 1.86494V1.50673ZM12.3727 4.31494C12.2144 4.07124 11.9802 3.83093 11.3849 3.23566L11.0678 2.91859C10.4735 2.32426 10.2341 2.09097 9.99092 1.93295C9.991 2.46806 9.99247 2.83346 10.0157 3.11746C10.0391 3.40459 10.081 3.54187 10.1272 3.63243C10.247 3.86763 10.4382 4.05886 10.6734 4.1787C10.764 4.22484 10.9013 4.26672 11.1884 4.29018C11.4724 4.31339 11.8377 4.31486 12.3727 4.31494ZM9.4992 0.116708C9.01034 -0.000267982 8.5001 -0.000155926 7.73273 1.25766e-05L7.6431 2.563e-05L7.61059 2.55108e-05C6.66122 1.90735e-05 5.90313 1.38879e-05 5.29078 0.0498871C4.66275 0.101038 4.12249 0.208339 3.62605 0.460349C2.82185 0.868585 2.16836 1.52207 1.76013 2.32627C1.50812 2.82271 1.40082 3.36297 1.34967 3.991C1.29979 4.60335 1.2998 5.36144 1.2998 6.31081V6.31082V6.34332V9.53205V9.56466C1.2998 10.5171 1.29979 11.2777 1.34998 11.8919C1.40145 12.5219 1.50944 13.0638 1.76303 13.5615C2.17049 14.3612 2.82066 15.0114 3.62035 15.4188C4.11804 15.6724 4.65992 15.7804 5.28994 15.8319C5.90421 15.8821 6.66477 15.8821 7.61723 15.882H7.64981H7.95542H7.988C8.94046 15.8821 9.70102 15.8821 10.3153 15.8319C10.9453 15.7804 11.4872 15.6724 11.9849 15.4188C12.7846 15.0114 13.4347 14.3612 13.8422 13.5615C14.0958 13.0638 14.2038 12.5219 14.2552 11.8919C14.3054 11.2777 14.3054 10.5171 14.3054 9.56468V9.53205V6.66513L14.3054 6.57521C14.3056 5.80538 14.3057 5.29349 14.188 4.80314C14.0839 4.36948 13.9122 3.95492 13.6791 3.57466C13.4157 3.14469 13.0536 2.78281 12.5092 2.23858L12.4456 2.175L12.1285 1.85793L12.0651 1.79455L12.0651 1.79454C11.5226 1.25181 11.1619 0.890937 10.7335 0.627977C10.3516 0.393547 9.93502 0.220992 9.4992 0.116708Z" fill="url(#paint0_linear_636_151)"/>
<path d="M5 8C5 7.44844 5.44844 7 6 7H6.5C7.05156 7 7.5 7.44844 7.5 8V8.05625C7.5 8.39688 7.32656 8.71406 7.04063 8.89687L6.38125 9.32031C6.18765 9.44479 6.0284 9.61588 5.91811 9.8179C5.80782 10.0199 5.75002 10.2464 5.75 10.4766V10.5C5.75 10.7766 5.97344 11 6.25 11C6.52656 11 6.75 10.7766 6.75 10.5V10.4781C6.75 10.35 6.81562 10.2312 6.92188 10.1625L7.58125 9.73906C8.15312 9.37031 8.5 8.7375 8.5 8.05625V8C8.5 6.89531 7.60469 6 6.5 6H6C4.89531 6 4 6.89531 4 8C4 8.27656 4.22344 8.5 4.5 8.5C4.77656 8.5 5 8.27656 5 8ZM6.25 13C6.41576 13 6.57473 12.9342 6.69194 12.8169C6.80915 12.6997 6.875 12.5408 6.875 12.375C6.875 12.2092 6.80915 12.0503 6.69194 11.9331C6.57473 11.8158 6.41576 11.75 6.25 11.75C6.08424 11.75 5.92527 11.8158 5.80806 11.9331C5.69085 12.0503 5.625 12.2092 5.625 12.375C5.625 12.5408 5.69085 12.6997 5.80806 12.8169C5.92527 12.9342 6.08424 13 6.25 13Z" fill="url(#paint1_linear_636_151)" stroke="url(#paint2_linear_636_151)" stroke-width="0.6"/>
<defs>
<linearGradient id="paint0_linear_636_151" x1="7.80263" y1="15.882" x2="7.80263" y2="0" gradientUnits="userSpaceOnUse">
<stop stop-color="#A5A5A5"/>
<stop offset="0.9973" stop-color="#DCDCDC"/>
</linearGradient>
<linearGradient id="paint1_linear_636_151" x1="6.25" y1="13" x2="6.25" y2="6" gradientUnits="userSpaceOnUse">
<stop stop-color="#A5A5A5"/>
<stop offset="0.9973" stop-color="#DCDCDC"/>
</linearGradient>
<linearGradient id="paint2_linear_636_151" x1="6.25" y1="13" x2="6.25" y2="6" gradientUnits="userSpaceOnUse">
<stop stop-color="#A5A5A5"/>
<stop offset="0.9973" stop-color="#DCDCDC"/>
</linearGradient>
</defs>
</svg>
