<svg width="16" height="16" viewBox="0 0 16 16" fill="none" xmlns="http://www.w3.org/2000/svg">
<path fill-rule="evenodd" clip-rule="evenodd" d="M8.49092 1.50673C8.27926 1.50084 8.00921 1.50003 7.6431 1.50003C6.65384 1.50003 5.95685 1.50061 5.41255 1.54494C4.87695 1.58856 4.55536 1.6708 4.30502 1.79788C3.78466 2.06203 3.36181 2.48488 3.09766 3.00524C2.97058 3.25558 2.88834 3.57718 2.84472 4.11277C2.80038 4.65707 2.7998 5.35406 2.7998 6.34332V9.53205C2.7998 10.5245 2.80039 11.2238 2.845 11.7698C2.88889 12.307 2.97165 12.6295 3.09954 12.8805C3.36319 13.398 3.78389 13.8187 4.30133 14.0823C4.55233 14.2102 4.87483 14.293 5.41209 14.3369C5.95809 14.3815 6.65734 14.382 7.64981 14.382H7.95542C8.94789 14.382 9.64713 14.3815 10.1931 14.3369C10.7304 14.293 11.0529 14.2102 11.3039 14.0823C11.8213 13.8187 12.242 13.398 12.5057 12.8805C12.6336 12.6295 12.7163 12.307 12.7602 11.7698C12.8048 11.2238 12.8054 10.5245 12.8054 9.53205V6.66513C12.8054 6.29804 12.8046 6.02722 12.7987 5.81494H12.4409H12.4105C11.8763 5.81495 11.4305 5.81496 11.0662 5.7852C10.6864 5.75416 10.3297 5.68705 9.99244 5.51521C9.475 5.25156 9.0543 4.83086 8.79065 4.31341C8.61881 3.97615 8.5517 3.6195 8.52066 3.23961C8.4909 2.87538 8.49091 2.42954 8.49092 1.89539V1.89538L8.49092 1.86494V1.50673ZM12.3727 4.31494C12.2144 4.07124 11.9802 3.83093 11.3849 3.23566L11.0678 2.91859C10.4735 2.32426 10.2341 2.09097 9.99092 1.93295C9.991 2.46806 9.99247 2.83346 10.0157 3.11746C10.0391 3.40459 10.081 3.54187 10.1272 3.63243C10.247 3.86763 10.4382 4.05886 10.6734 4.1787C10.764 4.22484 10.9013 4.26672 11.1884 4.29018C11.4724 4.31339 11.8377 4.31486 12.3727 4.31494ZM9.4992 0.116708C9.01034 -0.000267982 8.5001 -0.000155926 7.73273 1.25766e-05L7.6431 2.563e-05L7.61059 2.55108e-05C6.66122 1.90735e-05 5.90313 1.38879e-05 5.29078 0.0498871C4.66275 0.101038 4.12249 0.208339 3.62605 0.460349C2.82185 0.868585 2.16836 1.52207 1.76013 2.32627C1.50812 2.82271 1.40082 3.36297 1.34967 3.991C1.29979 4.60335 1.2998 5.36144 1.2998 6.31081V6.31082V6.34332V9.53205V9.56466C1.2998 10.5171 1.29979 11.2777 1.34998 11.8919C1.40145 12.5219 1.50944 13.0638 1.76303 13.5615C2.17049 14.3612 2.82066 15.0114 3.62035 15.4188C4.11804 15.6724 4.65992 15.7804 5.28994 15.8319C5.90421 15.8821 6.66477 15.8821 7.61723 15.882H7.64981H7.95542H7.988C8.94046 15.8821 9.70102 15.8821 10.3153 15.8319C10.9453 15.7804 11.4872 15.6724 11.9849 15.4188C12.7846 15.0114 13.4347 14.3612 13.8422 13.5615C14.0958 13.0638 14.2038 12.5219 14.2552 11.8919C14.3054 11.2777 14.3054 10.5171 14.3054 9.56468V9.53205V6.66513L14.3054 6.57521C14.3056 5.80538 14.3057 5.29349 14.188 4.80314C14.0839 4.36948 13.9122 3.95492 13.6791 3.57466C13.4157 3.14469 13.0536 2.78281 12.5092 2.23858L12.4456 2.175L12.1285 1.85793L12.0651 1.79455L12.0651 1.79454C11.5226 1.25181 11.1619 0.890937 10.7335 0.627977C10.3516 0.393547 9.93502 0.220992 9.4992 0.116708Z" fill="url(#paint0_linear_626_100)"/>
<path d="M3.5552 7.0424L3.55565 7.04236C3.77366 7.02496 3.99362 7.00742 4.21147 7.01432C4.49689 7.02334 4.72906 7.22731 4.81541 7.49952C4.95023 7.92459 5.04097 8.36391 5.13174 8.80354C5.21545 9.20886 5.68571 9.2188 5.77381 8.81438L5.77386 8.81413L5.77388 8.81402C5.87011 8.37232 5.96626 7.93092 6.10297 7.50259C6.18576 7.24321 6.39842 7.03998 6.66926 7.01192C6.83772 6.99445 7.00886 6.99591 7.17619 7.01808C7.41371 7.04959 7.60429 7.22266 7.67799 7.45068C7.74896 7.67026 7.79796 7.89723 7.84691 8.124C7.87866 8.2712 7.91042 8.41831 7.94818 8.56324C7.96827 8.64913 7.98817 8.73506 8.00806 8.82096C8.09905 9.21385 8.57001 9.2036 8.65115 8.80856L8.65128 8.80792C8.74198 8.3664 8.83259 7.92531 8.96913 7.49966C9.05759 7.22387 9.29643 7.02081 9.58594 7.01315C9.81676 7.00704 10.0494 7.02617 10.2795 7.04509L10.285 7.04556C10.3576 7.05152 10.4102 7.1178 10.3982 7.18967C10.2708 7.95262 10.0615 8.6992 9.85234 9.44551L9.85224 9.44588L9.85181 9.44736L9.8517 9.44776L9.85158 9.44818C9.72597 9.89638 9.6004 10.3444 9.4926 10.796C9.43612 10.9665 9.39541 11.144 9.3547 11.3218C9.30133 11.5546 9.2479 11.7877 9.15883 12.0054C9.07846 12.2018 8.89751 12.3375 8.68745 12.3678C8.49311 12.3959 8.29393 12.3985 8.09943 12.3727C7.84254 12.3386 7.64749 12.1388 7.57007 11.8915C7.43212 11.4507 7.33613 10.9967 7.24013 10.5426C7.16116 10.1691 7.08218 9.79553 6.97979 9.42918C6.96348 9.37077 6.94138 9.29927 6.88445 9.27842C6.7902 9.24391 6.73638 9.37539 6.70996 9.47222C6.61052 9.83642 6.54041 10.2327 6.4698 10.6317L6.46975 10.6319C6.393 11.0656 6.31565 11.5026 6.19947 11.9052C6.13199 12.139 5.95467 12.3322 5.71427 12.3702C5.51025 12.4025 5.29878 12.3981 5.09364 12.3658C4.89151 12.334 4.71515 12.2062 4.63664 12.0173C4.55326 11.8166 4.50431 11.6003 4.45551 11.3846C4.4193 11.2245 4.38311 11.0646 4.33294 10.9117C4.22101 10.4462 4.09189 9.98443 3.96271 9.52252L3.96193 9.51965C3.75023 8.76269 3.53854 8.00566 3.40238 7.23251C3.38572 7.13798 3.45514 7.05035 3.55081 7.04274L3.55103 7.04271L3.5552 7.0424Z" fill="url(#paint1_linear_626_100)" stroke="url(#paint2_linear_626_100)" stroke-width="0.2"/>
<defs>
<linearGradient id="paint0_linear_626_100" x1="32.0306" y1="30.5522" x2="-7.36058" y2="3.08645" gradientUnits="userSpaceOnUse">
<stop stop-color="#248EFE"/>
<stop offset="1" stop-color="#1DF4FF"/>
</linearGradient>
<linearGradient id="paint1_linear_626_100" x1="19.9401" y1="17.3732" x2="5.758" y2="1.69741" gradientUnits="userSpaceOnUse">
<stop stop-color="#248EFE"/>
<stop offset="1" stop-color="#1DF4FF"/>
</linearGradient>
<linearGradient id="paint2_linear_626_100" x1="19.9401" y1="17.3732" x2="5.758" y2="1.69741" gradientUnits="userSpaceOnUse">
<stop stop-color="#248EFE"/>
<stop offset="1" stop-color="#1DF4FF"/>
</linearGradient>
</defs>
</svg>
