<svg width="16" height="16" viewBox="0 0 16 16" fill="none" xmlns="http://www.w3.org/2000/svg">
<path fill-rule="evenodd" clip-rule="evenodd" d="M8.49092 1.50673C8.27926 1.50084 8.00921 1.50003 7.6431 1.50003C6.65384 1.50003 5.95685 1.50061 5.41255 1.54494C4.87695 1.58856 4.55536 1.6708 4.30502 1.79788C3.78466 2.06203 3.36181 2.48488 3.09766 3.00524C2.97058 3.25558 2.88834 3.57718 2.84472 4.11277C2.80038 4.65707 2.79981 5.35406 2.79981 6.34332V9.53205C2.79981 10.5245 2.80039 11.2238 2.845 11.7698C2.88889 12.307 2.97165 12.6295 3.09954 12.8805C3.36319 13.398 3.78389 13.8187 4.30133 14.0823C4.55233 14.2102 4.87483 14.293 5.41209 14.3369C5.95809 14.3815 6.65734 14.382 7.64981 14.382H7.95542C8.94789 14.382 9.64713 14.3815 10.1931 14.3369C10.7304 14.293 11.0529 14.2102 11.3039 14.0823C11.8213 13.8187 12.242 13.398 12.5057 12.8805C12.6336 12.6295 12.7163 12.307 12.7602 11.7698C12.8048 11.2238 12.8054 10.5245 12.8054 9.53205V6.66513C12.8054 6.29804 12.8046 6.02722 12.7987 5.81494H12.4409H12.4105C11.8763 5.81495 11.4305 5.81496 11.0662 5.7852C10.6864 5.75416 10.3297 5.68705 9.99244 5.51521C9.475 5.25156 9.0543 4.83086 8.79065 4.31341C8.61881 3.97615 8.5517 3.6195 8.52066 3.23961C8.4909 2.87538 8.49091 2.42954 8.49092 1.89539V1.89538L8.49092 1.86494V1.50673ZM12.3727 4.31494C12.2144 4.07124 11.9802 3.83093 11.3849 3.23566L11.0678 2.91859C10.4735 2.32426 10.2341 2.09097 9.99092 1.93295C9.991 2.46806 9.99247 2.83346 10.0157 3.11746C10.0391 3.40459 10.081 3.54187 10.1272 3.63243C10.247 3.86763 10.4382 4.05886 10.6734 4.1787C10.764 4.22484 10.9013 4.26672 11.1884 4.29018C11.4724 4.31339 11.8377 4.31486 12.3727 4.31494ZM9.4992 0.116708C9.01034 -0.000268012 8.5001 -0.000155956 7.73273 1.25468e-05L7.6431 2.56002e-05L7.61059 2.5481e-05C6.66122 1.90437e-05 5.90313 1.38581e-05 5.29078 0.049887C4.66275 0.101038 4.12249 0.208339 3.62605 0.460349C2.82185 0.868585 2.16836 1.52207 1.76013 2.32627C1.50812 2.82271 1.40082 3.36297 1.34967 3.991C1.29979 4.60335 1.2998 5.36144 1.2998 6.31081V6.31082V6.34332V9.53205V9.56466C1.2998 10.5171 1.29979 11.2777 1.34998 11.8919C1.40145 12.5219 1.50944 13.0638 1.76303 13.5615C2.17049 14.3612 2.82066 15.0114 3.62035 15.4188C4.11804 15.6724 4.65993 15.7804 5.28994 15.8319C5.90421 15.8821 6.66477 15.8821 7.61723 15.882H7.64981H7.95542H7.988C8.94046 15.8821 9.70102 15.8821 10.3153 15.8319C10.9453 15.7804 11.4872 15.6724 11.9849 15.4188C12.7846 15.0114 13.4347 14.3612 13.8422 13.5615C14.0958 13.0638 14.2038 12.5219 14.2552 11.8919C14.3054 11.2777 14.3054 10.5171 14.3054 9.56468V9.53205V6.66513L14.3054 6.57521C14.3056 5.80538 14.3057 5.29349 14.188 4.80314C14.0839 4.36948 13.9122 3.95492 13.6791 3.57466C13.4157 3.14469 13.0536 2.78281 12.5092 2.23858L12.4456 2.175L12.1285 1.85793L12.0651 1.79455L12.0651 1.79454C11.5226 1.25181 11.1619 0.890937 10.7335 0.627977C10.3516 0.393547 9.93502 0.220992 9.4992 0.116708Z" fill="url(#paint0_linear_626_189)"/>
<path d="M6.53011 7.85727L5.47373 6.34692C5.47302 6.34591 5.47157 6.34578 5.47069 6.34666C5.46981 6.34754 5.46835 6.3474 5.46763 6.34638C5.21145 5.98121 4.71114 5.89447 4.34498 6.14979C3.97815 6.40555 3.89065 6.90699 4.14642 7.27381L5.62757 9.38701C5.67583 9.45586 5.67588 9.54754 5.62769 9.61643L4.14979 11.7295C3.89402 12.093 3.98488 12.5978 4.34834 12.8536C4.7118 13.1093 5.2166 13.0218 5.47237 12.655L6.53033 11.1424C6.60988 11.0287 6.77827 11.0286 6.85796 11.1422L7.91899 12.655C8.17475 13.0218 8.67619 13.1093 9.04302 12.8536C9.40984 12.5978 9.49734 12.0964 9.24157 11.7295L7.76036 9.61626C7.71213 9.54746 7.71205 9.45585 7.76016 9.38696L9.23821 7.27045C9.49397 6.90699 9.40311 6.40219 9.03965 6.14642C8.67619 5.89065 8.17139 5.97815 7.91562 6.34498L6.85789 7.85727C6.77827 7.9711 6.60972 7.9711 6.53011 7.85727Z" fill="url(#paint1_linear_626_189)" stroke="url(#paint2_linear_626_189)" stroke-width="0.2"/>
<defs>
<linearGradient id="paint0_linear_626_189" x1="2.11266" y1="15.882" x2="16.4466" y2="7.07862" gradientUnits="userSpaceOnUse">
<stop stop-color="#88E344"/>
<stop offset="1" stop-color="#B3FF7A"/>
</linearGradient>
<linearGradient id="paint1_linear_626_189" x1="4.33675" y1="13" x2="10.4707" y2="9.45893" gradientUnits="userSpaceOnUse">
<stop stop-color="#88E344"/>
<stop offset="1" stop-color="#B3FF7A"/>
</linearGradient>
<linearGradient id="paint2_linear_626_189" x1="4.33675" y1="13" x2="10.4707" y2="9.45893" gradientUnits="userSpaceOnUse">
<stop stop-color="#88E344"/>
<stop offset="1" stop-color="#B3FF7A"/>
</linearGradient>
</defs>
</svg>
